<svg width="350" height="350" viewBox="0 0 350 350" fill="none" xmlns="http://www.w3.org/2000/svg">
<path d="M119.518 97.9231C119.733 98.0293 119.948 98.1356 120.169 98.245C123.654 99.9792 126.96 102.008 130.272 104.046C131.288 104.672 132.307 105.293 133.328 105.911C133.594 106.072 133.859 106.232 134.133 106.398C134.626 106.696 135.119 106.995 135.612 107.293C135.835 107.428 136.058 107.563 136.287 107.702C136.5 107.831 136.713 107.961 136.932 108.093C137.751 108.611 138.534 109.176 139.311 109.754C140.268 110.23 141.102 110.12 142.114 109.851C142.348 109.765 142.582 109.679 142.823 109.591C143.093 109.495 143.362 109.4 143.639 109.302C143.928 109.198 144.217 109.095 144.515 108.988C154.056 105.697 164.033 104.247 174.102 104.301C174.373 104.302 174.645 104.303 174.926 104.304C185.674 104.345 196.016 106.073 206.269 109.33C206.514 109.406 206.759 109.482 207.011 109.561C207.651 109.777 207.651 109.777 208.474 110.181C209.697 110.37 210.455 109.616 211.419 108.924C211.88 108.609 212.341 108.296 212.803 107.983C213.052 107.814 213.3 107.645 213.556 107.471C214.971 106.529 216.424 105.648 217.878 104.768C218.03 104.676 218.182 104.584 218.339 104.489C222.661 101.874 227.042 99.3348 231.6 97.1506C232.198 96.8599 232.792 96.5596 233.386 96.2591C237.613 94.1492 242.117 92.2191 246.901 92.1893C247.112 92.184 247.322 92.1786 247.539 92.1732C249.608 92.16 251.294 92.668 252.836 94.0979C256.844 98.5589 257.316 105.649 257.902 111.323C257.93 111.595 257.93 111.595 257.959 111.872C258.77 120.12 257.993 128.558 257.145 136.771C257.113 137.087 257.113 137.087 257.08 137.41C256.686 141.282 256.686 141.282 256.284 143.022C255.468 146.562 256.537 148.837 258.073 152.061C261.852 160.32 262.711 169.378 262.54 178.325C262.819 178.324 262.819 178.324 263.103 178.323C268.315 178.314 268.315 178.314 269.417 179.211C270.309 180.199 270.362 180.814 270.342 182.108C270.23 183.057 269.884 183.558 269.24 184.252C267.056 185.589 264.456 185.024 262.025 184.767C261.998 184.983 261.998 184.983 261.97 185.203C261.584 188.222 261.104 191.127 260.221 194.044C260.538 194.11 260.855 194.175 261.181 194.243C261.602 194.332 262.023 194.422 262.443 194.511C262.652 194.554 262.86 194.597 263.075 194.641C264.574 194.964 265.85 195.351 267.018 196.396C267.603 197.431 267.674 198.293 267.436 199.456C266.994 200.312 266.381 200.853 265.568 201.373C263.736 201.747 261.829 201.115 260.076 200.599C259.865 200.539 259.654 200.479 259.437 200.417C258.925 200.27 258.413 200.121 257.902 199.971C257.858 200.114 257.814 200.257 257.769 200.404C257.323 201.811 256.779 203.101 256.082 204.4C255.981 204.589 255.88 204.777 255.776 204.971C254.147 207.942 252.145 210.536 249.787 212.969C249.519 213.246 249.252 213.526 248.987 213.806C243.917 219.175 236.945 224.109 229.813 226.256C230.126 226.495 230.126 226.495 230.446 226.739C233.243 228.875 235.949 231.07 238.52 233.475C239.05 233.971 239.584 234.46 240.126 234.943C241.337 236.023 242.484 237.101 243.526 238.345C243.857 238.732 244.2 239.109 244.551 239.479C247.518 242.608 249.959 246.159 251.975 249.965C252.095 250.182 252.216 250.4 252.34 250.624C254.519 254.708 255.586 259.367 254.304 263.901C253.099 267.285 251.015 269.453 247.851 271.096C242.134 273.433 236.447 273.474 230.733 271.091C230.339 270.923 229.947 270.752 229.555 270.58C229.602 270.763 229.649 270.946 229.697 271.134C230.337 273.745 230.721 276.374 231.085 279.036C231.135 279.396 231.135 279.396 231.185 279.764C236.115 315.568 236.115 315.568 230.851 322.534C227.608 326.049 222.623 327.707 217.958 328.047C216.509 328.097 215.06 328.11 213.61 328.111C213.308 328.112 213.308 328.112 213.001 328.112C207.442 328.107 201.085 327.687 196.796 323.684C194.581 321.243 193.648 318.351 192.913 315.21C192.87 315.031 192.827 314.851 192.783 314.665C192.512 313.433 192.388 312.219 192.304 310.96C192.282 310.636 192.26 310.313 192.237 309.98C192.221 309.734 192.205 309.488 192.189 309.235C192.023 309.25 191.858 309.266 191.688 309.281C186.501 309.744 181.346 309.832 176.141 309.818C175.033 309.815 173.925 309.817 172.817 309.819C167.568 309.831 162.373 309.697 157.142 309.235C157.126 309.462 157.109 309.689 157.093 309.923C157.06 310.372 157.06 310.372 157.026 310.83C156.993 311.274 156.993 311.274 156.961 311.727C156.861 312.849 156.674 313.934 156.433 315.033C156.388 315.241 156.343 315.449 156.296 315.663C155.423 319.505 153.952 322.599 150.699 324.955C146.354 327.594 141.456 328.097 136.494 328.109C135.89 328.111 135.287 328.119 134.684 328.128C128.954 328.168 123.395 327.069 119.067 323.07C115.725 319.531 115.787 315.476 115.83 310.894C115.831 310.619 115.833 310.344 115.834 310.06C115.887 299.985 116.807 290.005 118.117 280.019C118.142 279.822 118.168 279.625 118.195 279.422C118.573 276.55 119.027 273.693 119.518 270.838C119.197 270.944 118.877 271.049 118.547 271.158C112.506 273.126 106.996 273.767 101.109 270.935C98.0727 269.373 96.0525 267.044 94.8293 263.855C93.4185 258.84 95.278 253.522 97.6694 249.132C99.6744 245.592 102.069 242.445 104.82 239.455C105.292 238.941 105.746 238.417 106.198 237.885C108.068 235.741 110.132 233.763 112.302 231.926C112.573 231.691 112.843 231.456 113.113 231.22C115.106 229.487 117.148 227.842 119.26 226.256C119.112 226.19 118.965 226.124 118.812 226.056C118.328 225.838 117.844 225.617 117.361 225.395C116.688 225.088 116.015 224.788 115.337 224.493C110.685 222.422 106.545 219.61 102.768 216.206C102.552 216.021 102.336 215.836 102.113 215.646C100.835 214.545 99.7126 213.387 98.6444 212.083C98.4355 211.835 98.2265 211.587 98.0112 211.332C95.2366 207.975 93.0007 204.177 91.1712 200.229C89.8087 200.338 88.6127 200.627 87.3057 201.034C85.8594 201.458 84.8928 201.682 83.4403 201.26C82.425 200.642 81.938 200.092 81.6364 198.941C81.5087 197.94 81.5934 197.479 82.0551 196.573C83.2938 195.106 84.9574 194.86 86.7581 194.511C86.9847 194.466 87.2112 194.42 87.4446 194.373C87.9993 194.261 88.5542 194.152 89.1096 194.044C89.0733 193.882 89.0369 193.72 88.9995 193.553C88.3475 190.634 87.7039 187.733 87.3057 184.767C87.0251 184.777 87.0251 184.777 86.7389 184.788C85.8863 184.814 85.0339 184.831 84.1811 184.848C83.8868 184.858 83.5925 184.869 83.2893 184.88C80.8401 184.916 80.8401 184.916 79.8989 184.15C79.1301 183.263 79.0196 182.855 79.0111 181.707C79.0056 181.373 79.0056 181.373 79 181.033C79.0873 180.082 79.3571 179.545 80.0741 178.921C81.724 178.214 83.5694 178.314 85.3398 178.32C85.7496 178.321 85.7496 178.321 86.1677 178.322C86.3731 178.323 86.5786 178.324 86.7903 178.325C86.7863 178.112 86.7822 177.9 86.7781 177.681C86.6238 168.318 87.9422 159.173 91.8275 150.549C91.9355 150.309 92.0436 150.069 92.1548 149.822C92.3611 149.374 92.5734 148.928 92.7932 148.486C93.5679 146.829 93.5373 145.578 93.2328 143.793C93.198 143.574 93.1633 143.354 93.1275 143.128C93.0527 142.669 92.9753 142.21 92.8958 141.752C91.0166 130.752 90.266 119.071 91.6866 107.973C91.7128 107.758 91.7391 107.542 91.7661 107.32C92.3559 102.622 93.339 96.8059 97.0982 93.5422C103.837 89.2775 113.429 94.8915 119.518 97.9231Z" fill="#FBE9CC"/>
<path d="M119.518 97.9231C119.733 98.0293 119.948 98.1356 120.169 98.245C123.654 99.9792 126.96 102.008 130.272 104.046C131.288 104.672 132.307 105.293 133.328 105.911C133.594 106.072 133.859 106.232 134.133 106.398C134.626 106.696 135.119 106.995 135.612 107.293C135.835 107.428 136.058 107.563 136.287 107.702C136.5 107.831 136.713 107.961 136.932 108.093C137.751 108.611 138.534 109.176 139.311 109.754C140.268 110.23 141.102 110.12 142.114 109.851C142.348 109.765 142.582 109.679 142.823 109.591C143.093 109.495 143.362 109.4 143.639 109.302C143.928 109.198 144.217 109.095 144.515 108.988C154.056 105.697 164.033 104.247 174.102 104.301C174.373 104.302 174.645 104.303 174.926 104.304C185.674 104.345 196.016 106.073 206.269 109.33C206.514 109.406 206.759 109.482 207.011 109.561C207.651 109.777 207.651 109.777 208.474 110.181C209.697 110.37 210.455 109.616 211.419 108.924C211.88 108.609 212.341 108.296 212.803 107.983C213.052 107.814 213.3 107.645 213.556 107.471C214.971 106.529 216.424 105.648 217.878 104.768C218.03 104.676 218.182 104.584 218.339 104.489C222.661 101.874 227.042 99.3348 231.6 97.1506C232.198 96.8599 232.792 96.5596 233.386 96.2591C237.613 94.1492 242.117 92.2191 246.901 92.1893C247.112 92.184 247.322 92.1786 247.539 92.1732C249.608 92.16 251.294 92.668 252.836 94.0979C256.844 98.5589 257.316 105.649 257.902 111.323C257.93 111.595 257.93 111.595 257.959 111.872C258.77 120.12 257.993 128.558 257.145 136.771C257.113 137.087 257.113 137.087 257.08 137.41C256.686 141.282 256.686 141.282 256.284 143.022C255.468 146.562 256.537 148.837 258.073 152.061C261.852 160.32 262.711 169.378 262.54 178.325C262.819 178.324 262.819 178.324 263.103 178.323C268.315 178.314 268.315 178.314 269.417 179.211C270.309 180.199 270.362 180.814 270.342 182.108C270.23 183.057 269.884 183.558 269.24 184.252C267.056 185.589 264.456 185.024 262.025 184.767C261.998 184.983 261.998 184.983 261.97 185.203C261.584 188.222 261.104 191.127 260.221 194.044C260.538 194.11 260.855 194.175 261.181 194.243C261.602 194.332 262.023 194.422 262.443 194.511C262.652 194.554 262.86 194.597 263.075 194.641C264.574 194.964 265.85 195.351 267.018 196.396C267.603 197.431 267.674 198.293 267.436 199.456C266.994 200.312 266.381 200.853 265.568 201.373C263.736 201.747 261.829 201.115 260.076 200.599C259.865 200.539 259.654 200.479 259.437 200.417C258.925 200.27 258.413 200.121 257.902 199.971C257.858 200.114 257.814 200.257 257.769 200.404C257.323 201.811 256.779 203.101 256.082 204.4C255.981 204.589 255.88 204.777 255.776 204.971C254.147 207.942 252.145 210.536 249.787 212.969C249.519 213.246 249.252 213.526 248.987 213.806C243.917 219.175 236.945 224.109 229.813 226.256C230.126 226.495 230.126 226.495 230.446 226.739C233.243 228.875 235.949 231.07 238.52 233.475C239.05 233.971 239.584 234.46 240.126 234.943C241.337 236.023 242.484 237.101 243.526 238.345C243.857 238.732 244.2 239.109 244.551 239.479C247.518 242.608 249.959 246.159 251.975 249.965C252.095 250.182 252.216 250.4 252.34 250.624C254.519 254.708 255.586 259.367 254.304 263.901C253.099 267.285 251.015 269.453 247.851 271.096C242.134 273.433 236.447 273.474 230.733 271.091C230.339 270.923 229.947 270.752 229.555 270.58C229.602 270.763 229.649 270.946 229.697 271.134C230.337 273.745 230.721 276.374 231.085 279.036C231.135 279.396 231.135 279.396 231.185 279.764C236.115 315.568 236.115 315.568 230.851 322.534C227.608 326.049 222.623 327.707 217.958 328.047C216.509 328.097 215.06 328.11 213.61 328.111C213.308 328.112 213.308 328.112 213.001 328.112C207.442 328.107 201.085 327.687 196.796 323.684C194.581 321.243 193.648 318.351 192.913 315.21C192.87 315.031 192.827 314.851 192.783 314.665C192.512 313.433 192.388 312.219 192.304 310.96C192.282 310.636 192.26 310.313 192.237 309.98C192.221 309.734 192.205 309.488 192.189 309.235C192.023 309.25 191.858 309.266 191.688 309.281C186.501 309.744 181.346 309.832 176.141 309.818C175.033 309.815 173.925 309.817 172.817 309.819C167.568 309.831 162.373 309.697 157.142 309.235C157.126 309.462 157.109 309.689 157.093 309.923C157.06 310.372 157.06 310.372 157.026 310.83C156.993 311.274 156.993 311.274 156.961 311.727C156.861 312.849 156.674 313.934 156.433 315.033C156.388 315.241 156.343 315.449 156.296 315.663C155.423 319.505 153.952 322.599 150.699 324.955C146.354 327.594 141.456 328.097 136.494 328.109C135.89 328.111 135.287 328.119 134.684 328.128C128.954 328.168 123.395 327.069 119.067 323.07C115.725 319.531 115.787 315.476 115.83 310.894C115.831 310.619 115.833 310.344 115.834 310.06C115.887 299.985 116.807 290.005 118.117 280.019C118.142 279.822 118.168 279.625 118.195 279.422C118.573 276.55 119.027 273.693 119.518 270.838C119.197 270.944 118.877 271.049 118.547 271.158C112.506 273.126 106.996 273.767 101.109 270.935C98.0727 269.373 96.0525 267.044 94.8293 263.855C93.4185 258.84 95.278 253.522 97.6694 249.132C99.6744 245.592 102.069 242.445 104.82 239.455C105.292 238.941 105.746 238.417 106.198 237.885C108.068 235.741 110.132 233.763 112.302 231.926C112.573 231.691 112.843 231.456 113.113 231.22C115.106 229.487 117.148 227.842 119.26 226.256C119.112 226.19 118.965 226.124 118.812 226.056C118.328 225.838 117.844 225.617 117.361 225.395C116.688 225.088 116.015 224.788 115.337 224.493C110.685 222.422 106.545 219.61 102.768 216.206C102.552 216.021 102.336 215.836 102.113 215.646C100.835 214.545 99.7126 213.387 98.6444 212.083C98.4355 211.835 98.2265 211.587 98.0112 211.332C95.2366 207.975 93.0007 204.177 91.1712 200.229C89.8087 200.338 88.6127 200.627 87.3057 201.034C85.8594 201.458 84.8928 201.682 83.4403 201.26C82.425 200.642 81.938 200.092 81.6364 198.941C81.5087 197.94 81.5934 197.479 82.0551 196.573C83.2938 195.106 84.9574 194.86 86.7581 194.511C86.9847 194.466 87.2112 194.42 87.4446 194.373C87.9993 194.261 88.5542 194.152 89.1096 194.044C89.0733 193.882 89.0369 193.72 88.9995 193.553C88.3475 190.634 87.7039 187.733 87.3057 184.767C87.0251 184.777 87.0251 184.777 86.7389 184.788C85.8863 184.814 85.0339 184.831 84.1811 184.848C83.8868 184.858 83.5925 184.869 83.2893 184.88C80.8401 184.916 80.8401 184.916 79.8989 184.15C79.1301 183.263 79.0196 182.855 79.0111 181.707C79.0056 181.373 79.0056 181.373 79 181.033C79.0873 180.082 79.3571 179.545 80.0741 178.921C81.724 178.214 83.5694 178.314 85.3398 178.32C85.7496 178.321 85.7496 178.321 86.1677 178.322C86.3731 178.323 86.5786 178.324 86.7903 178.325C86.7863 178.112 86.7822 177.9 86.7781 177.681C86.6238 168.318 87.9422 159.173 91.8275 150.549C91.9355 150.309 92.0436 150.069 92.1548 149.822C92.3611 149.374 92.5734 148.928 92.7932 148.486C93.5679 146.829 93.5373 145.578 93.2328 143.793C93.198 143.574 93.1633 143.354 93.1275 143.128C93.0527 142.669 92.9753 142.21 92.8958 141.752C91.0166 130.752 90.266 119.071 91.6866 107.973C91.7128 107.758 91.7391 107.542 91.7661 107.32C92.3559 102.622 93.339 96.8059 97.0982 93.5422C103.837 89.2775 113.429 94.8915 119.518 97.9231ZM101.221 99.582C100.062 101.067 99.5706 102.538 99.1276 104.349C99.0867 104.513 99.0458 104.677 99.0037 104.846C97.9778 109.343 98.0355 113.906 98.0485 118.491C98.049 118.837 98.0495 119.184 98.0499 119.53C98.064 126.931 98.5093 134.147 99.7715 141.441C100.295 144.564 100.718 147.418 99.1759 150.284C95.0557 158.691 92.7715 168.936 93.2328 178.325C93.7694 178.861 94.9357 178.654 95.6809 178.679C97.4053 178.756 99.0993 178.895 100.803 179.178C101.071 179.219 101.071 179.219 101.345 179.261C102.499 179.468 103.239 179.798 104.056 180.644C104.431 181.58 104.451 182.537 104.142 183.497C103.772 184.217 103.424 184.693 102.702 185.071C100.153 185.833 96.9033 185.217 94.2636 185.025C94.1794 186.603 94.4901 187.965 94.8917 189.486C94.951 189.72 95.0103 189.953 95.0714 190.193C95.3587 191.375 95.3587 191.375 95.8097 192.498C96.2554 192.461 96.701 192.424 97.1465 192.385C97.3947 192.364 97.6428 192.343 97.8985 192.322C98.6267 192.256 98.6267 192.256 99.2605 192.105C100.14 191.945 100.988 191.939 101.882 191.934C102.217 191.931 102.552 191.927 102.897 191.923C104.171 192.007 104.171 192.007 104.829 192.498C105.301 193.212 105.432 193.824 105.457 194.672C105.473 194.959 105.473 194.959 105.488 195.251C105.269 196.162 104.834 196.658 104.056 197.137C103.058 197.472 102.046 197.669 101.012 197.861C100.735 197.917 100.458 197.973 100.173 198.03C99.4924 198.166 98.8113 198.298 98.129 198.425C99.213 201.96 101.183 204.894 103.541 207.702C103.714 207.909 103.714 207.909 103.891 208.12C109.905 215.185 118.34 219.342 127.075 222.018C131.054 223.244 131.054 223.244 131.887 224.71C132.051 226.016 131.894 226.753 131.114 227.803C130.489 228.147 130.489 228.147 129.745 228.415C125.023 230.262 121.004 232.97 117.333 236.467C116.807 236.963 116.274 237.435 115.727 237.906C112.718 240.527 109.798 243.414 107.406 246.615C107.175 246.916 106.944 247.217 106.713 247.518C103.834 251.308 100.49 256.044 100.964 261.046C101.256 262.699 102.131 263.66 103.401 264.715C106.103 266.587 109.424 266.845 112.594 266.29C114.525 265.898 116.353 265.312 118.165 264.541C118.334 264.47 118.503 264.398 118.677 264.325C119.881 263.781 120.979 263.128 121.523 261.868C121.691 261.315 121.828 260.763 121.957 260.2C122.034 259.89 122.034 259.89 122.112 259.573C122.221 259.133 122.327 258.691 122.432 258.25C122.595 257.563 122.763 256.878 122.934 256.193C123.156 255.295 123.378 254.397 123.598 253.499C123.965 252.008 124.354 250.525 124.769 249.047C124.851 248.738 124.851 248.738 124.936 248.423C125.342 246.989 125.887 245.791 127.088 244.843C127.919 244.487 128.413 244.425 129.31 244.553C130.093 244.974 130.672 245.34 131.211 246.051C131.729 247.865 131.121 249.627 130.655 251.389C130.501 251.987 130.348 252.586 130.194 253.184C130.113 253.497 130.032 253.81 129.948 254.132C126.376 267.948 123.965 281.857 122.868 296.093C122.853 296.289 122.837 296.485 122.822 296.687C122.475 301.156 122.3 305.624 122.262 310.106C122.258 310.572 122.252 311.038 122.245 311.504C122.12 315.226 122.12 315.226 123.775 318.45C126.659 321.361 131.641 321.622 135.493 321.654C142.081 321.722 142.081 321.722 147.7 318.773C150.286 315.602 150.541 310.876 150.902 306.954C151.055 305.491 151.213 304.432 152.246 303.308C153.522 302.414 154.578 302.467 156.063 302.599C156.257 302.613 156.452 302.627 156.653 302.641C157.417 302.697 158.178 302.763 158.939 302.852C163.91 303.431 168.939 303.369 173.938 303.372C174.318 303.372 174.698 303.373 175.078 303.373C180.952 303.383 186.777 303.234 192.624 302.606C194.242 302.471 195.439 302.383 196.827 303.308C198.357 305.178 198.478 307.308 198.728 309.622C199.356 314.979 199.356 314.979 202.126 319.479C206.089 322.473 213.106 321.974 217.748 321.379C220.724 320.943 223.799 320.368 225.883 318.013C227.152 316.285 227.283 314.499 227.272 312.402C227.271 312.203 227.27 312.005 227.27 311.8C227.244 308.827 227.075 305.858 226.913 302.889C226.896 302.572 226.879 302.255 226.861 301.929C226.083 287.743 224.288 273.645 220.832 259.85C220.789 259.675 220.745 259.501 220.7 259.321C220.26 257.567 219.815 255.815 219.36 254.066C219.231 253.569 219.103 253.072 218.975 252.575C218.817 251.963 218.657 251.351 218.495 250.74C218.11 249.239 217.823 247.908 217.958 246.357C218.517 245.439 219.032 244.952 220.02 244.553C220.583 244.514 220.583 244.514 221.164 244.569C221.355 244.583 221.546 244.596 221.742 244.61C222.63 244.908 223.022 245.388 223.628 246.099C223.944 246.787 224.136 247.493 224.328 248.224C224.386 248.43 224.444 248.636 224.503 248.849C224.688 249.515 224.867 250.183 225.045 250.85C225.171 251.308 225.297 251.765 225.424 252.222C226.145 254.853 226.835 257.491 227.324 260.177C227.603 261.589 227.993 262.358 229.039 263.365C232.971 265.877 237.737 267.092 242.343 266.167C244.784 265.536 246.482 264.549 247.836 262.398C248.806 260.34 248.369 258.388 247.694 256.321C245.704 251.076 242.325 246.853 238.574 242.749C238.354 242.502 238.134 242.255 237.907 242C236.254 240.153 234.509 238.458 232.647 236.822C232.518 236.707 232.388 236.592 232.255 236.473C228.52 233.159 224.505 230.148 219.73 228.544C218.916 228.257 218.461 228.05 217.781 227.497C217.314 226.495 217.146 225.531 217.443 224.453C218.341 223.329 219.133 222.943 220.503 222.568C220.872 222.461 221.241 222.353 221.609 222.244C221.809 222.186 222.008 222.128 222.214 222.068C230.447 219.601 237.423 215.879 243.728 210.022C243.903 209.864 244.078 209.706 244.258 209.543C247.367 206.615 249.955 202.494 251.201 198.425C251.021 198.393 250.84 198.361 250.654 198.327C249.832 198.177 249.011 198.019 248.19 197.861C247.905 197.811 247.621 197.76 247.328 197.708C244.629 197.178 244.629 197.178 243.728 195.848C243.509 195.053 243.566 194.335 243.728 193.529C244.19 192.789 244.497 192.371 245.274 191.983C247.994 191.753 250.603 192.254 253.263 192.756C253.799 191.384 254.246 190.029 254.6 188.6C254.645 188.426 254.691 188.252 254.738 188.072C254.998 187.034 255.115 186.093 255.067 185.025C254.811 185.043 254.555 185.062 254.292 185.081C252.522 185.205 250.752 185.309 248.979 185.347C248.699 185.354 248.419 185.36 248.131 185.367C247.192 185.267 246.59 185.005 245.79 184.509C245.211 183.539 245.017 182.902 245.017 181.771C245.332 180.709 245.692 180.291 246.563 179.613C247.7 179.156 248.732 179.008 249.951 178.935C250.121 178.924 250.29 178.913 250.465 178.902C251 178.869 251.536 178.838 252.071 178.808C252.437 178.786 252.802 178.763 253.167 178.74C254.058 178.686 254.949 178.633 255.84 178.582C255.934 174.217 255.87 169.997 255.067 165.698C255.025 165.473 254.984 165.248 254.941 165.016C253.917 159.662 252.225 154.364 249.847 149.455C248.626 146.824 249.216 144.321 249.647 141.543C250.817 133.881 251.268 126.205 251.282 118.458C251.283 118.204 251.284 117.95 251.285 117.687C251.294 113.212 251.19 108.646 250.09 104.285C250.042 104.069 249.993 103.852 249.944 103.629C249.517 101.868 248.884 100.243 247.336 99.2115C245.913 99.1188 244.692 99.277 243.326 99.6947C243.14 99.7508 242.955 99.807 242.763 99.8648C232.298 103.186 222.173 109.641 213.272 115.948C211.549 117.138 209.997 117.693 207.908 117.508C207.115 117.242 207.115 117.242 206.298 116.864C201.348 114.728 195.925 113.587 190.642 112.612C190.436 112.572 190.23 112.533 190.017 112.492C174.6 109.583 157.84 111.325 143.189 116.815C141.484 117.449 140.101 117.861 138.346 117.154C135.849 115.952 133.547 114.308 131.227 112.805C127.344 110.296 123.385 107.899 119.315 105.704C118.926 105.494 118.537 105.283 118.15 105.07C109.977 100.213 109.977 100.213 101.221 99.582Z" fill="black"/>
<path d="M174.44 239.013C174.742 239.014 175.043 239.016 175.354 239.018C181.155 239.138 185.843 241.201 189.869 245.326C190.076 245.53 190.282 245.734 190.494 245.944C196.634 252.328 198.519 262.007 198.482 270.555C198.38 275.427 197.006 279.476 193.477 282.95C193.313 283.114 193.148 283.278 192.979 283.447C187.042 289.002 178.509 288.921 170.902 288.674C165.821 288.462 160.954 287.089 156.884 283.981C156.691 283.835 156.498 283.689 156.299 283.539C152.954 280.82 151.213 276.612 150.743 272.404C150.604 270.685 150.666 268.953 150.699 267.231C150.704 266.954 150.708 266.678 150.712 266.393C151.067 258.768 154.014 251.351 158.946 245.584C159.099 245.404 159.252 245.224 159.41 245.039C163.263 240.88 168.884 238.98 174.44 239.013Z" fill="#F2D3A3"/>
<path d="M192.039 239.829C192.258 240.027 192.478 240.226 192.704 240.43C192.921 240.626 193.138 240.821 193.361 241.023C197.406 244.866 199.978 249.876 201.723 255.119C201.818 255.394 201.913 255.669 202.01 255.952C204.125 262.647 204.739 270.438 203.012 277.281C202.97 277.448 202.929 277.616 202.886 277.789C201.549 282.939 198.045 287.233 193.5 289.944C187.635 293.226 181.443 294.091 174.826 294.095C174.5 294.096 174.5 294.096 174.167 294.096C170.848 294.092 167.608 293.996 164.357 293.258C164.167 293.215 163.977 293.172 163.78 293.128C157.755 291.703 151.989 288.361 148.664 283.041C144.532 276.166 144.579 266.759 146.412 259.122C146.466 258.907 146.52 258.691 146.576 258.469C146.63 258.25 146.684 258.031 146.739 257.806C148.268 251.79 150.964 246.377 155.08 241.718C155.316 241.45 155.316 241.45 155.557 241.176C164.857 231.262 181.949 231.158 192.039 239.829ZM158.02 246.614C153.403 252.369 150.969 259.901 150.699 267.23C150.692 267.406 150.685 267.581 150.678 267.761C150.501 272.744 151.241 277.313 154.307 281.404C154.467 281.633 154.467 281.633 154.631 281.866C157.979 286.246 163.988 287.785 169.161 288.546C170.977 288.765 172.807 288.734 174.633 288.716C174.954 288.714 174.954 288.714 175.282 288.713C182.344 288.67 188.779 287.639 193.992 282.435C194.243 282.188 194.243 282.188 194.499 281.937C198.226 278.006 198.576 272.85 198.455 267.725C198.138 259.407 195.482 251.113 189.612 245.068C189.464 244.905 189.317 244.742 189.165 244.573C185.936 241.099 181.011 239.256 176.348 239.042C168.873 238.851 163.039 240.895 158.02 246.614Z" fill="black"/>
<path d="M232.599 177.6C235.357 179.487 237.03 182.043 237.801 185.283C238.232 189.314 237.368 192.378 234.842 195.556C232.783 197.849 229.872 199.048 226.858 199.262C223.199 199.384 220.217 198.33 217.444 195.916C215.029 193.404 214.013 190.266 214.055 186.851C214.214 183.547 215.508 180.821 217.958 178.582C222.454 175.207 227.697 174.7 232.599 177.6Z" fill="#F4A99C"/>
<path d="M129.053 177.036C129.251 177.135 129.45 177.234 129.655 177.336C132.221 178.782 134.077 181.546 134.948 184.316C135.689 187.468 135.384 190.627 133.809 193.474C132.111 196.047 129.684 197.983 126.733 198.94C123.441 199.583 120.157 199.413 117.206 197.73C114.517 195.904 112.489 193.392 111.787 190.179C111.453 185.763 111.977 182.762 114.831 179.305C118.51 175.274 124.336 174.684 129.053 177.036Z" fill="#F4A99C"/>
<path d="M109.08 108.109C110.789 108.34 112.308 109.039 113.849 109.777C114.008 109.853 114.167 109.929 114.331 110.007C118.487 112.026 122.143 114.839 125.77 117.673C126.163 117.98 126.559 118.285 126.956 118.588C127.684 119.205 127.997 119.629 128.118 120.583C127.998 121.573 127.764 121.787 127.007 122.42C126.772 122.618 126.538 122.816 126.296 123.02C125.13 123.952 123.94 124.851 122.749 125.75C121.206 126.917 119.738 128.153 118.28 129.424C117.548 130.061 116.797 130.672 116.039 131.279C114.914 132.19 113.856 133.155 112.802 134.146C110.634 136.17 110.634 136.17 109.597 137.061C109.408 137.225 109.219 137.389 109.025 137.558C108.437 137.866 108.437 137.866 107.627 137.839C106.891 137.608 106.891 137.608 106.327 136.787C104.403 132.268 104.483 126.764 104.504 121.945C104.507 121.194 104.504 120.443 104.501 119.692C104.494 111.12 104.494 111.12 106.453 108.567C107.253 107.953 108.107 108.082 109.08 108.109Z" fill="#F4A99C"/>
<path d="M242.182 108.231C244.094 109.744 244.346 112.441 244.613 114.734C245.273 121.701 245.699 130.903 242.697 137.351C241.885 137.757 241.244 137.846 240.378 137.608C239.577 137.049 238.9 136.376 238.208 135.69C237.404 134.898 236.578 134.129 235.756 133.356C235.577 133.188 235.399 133.02 235.216 132.847C233.809 131.528 232.355 130.303 230.843 129.104C230.387 128.729 229.93 128.353 229.474 127.977C228.395 127.093 227.303 126.228 226.205 125.368C225.9 125.128 225.596 124.888 225.292 124.648C224.716 124.195 224.136 123.749 223.55 123.309C223.166 123.013 223.166 123.013 222.774 122.71C222.547 122.539 222.319 122.367 222.085 122.19C221.431 121.486 221.333 121.037 221.309 120.085C222.525 118.225 224.432 116.999 226.205 115.704C226.371 115.581 226.537 115.459 226.708 115.332C237.838 107.126 237.838 107.126 242.182 108.231Z" fill="#F4A99C"/>
<path d="M174.73 173.606C174.984 173.598 175.238 173.591 175.5 173.583C177.286 173.568 178.757 173.849 180.334 174.717C181.239 175.621 181.578 176.323 181.703 177.6C181.546 179.526 180.601 180.763 179.239 182.077C178.788 182.448 178.788 182.448 178.031 182.786C177.451 183.166 177.451 183.166 177.394 183.757C177.318 185.925 177.896 187.99 179.304 189.663C180.986 191.012 182.669 191.551 184.812 191.451C187.46 191.122 189.017 189.909 190.691 187.888C191.324 187.151 191.547 187.098 192.527 187.006C193.625 187.099 193.998 187.349 194.766 188.117C195.213 189.012 195.142 189.973 195.023 190.952C193.691 193.518 191.078 195.433 188.416 196.434C185.471 197.341 182.091 197.244 179.281 195.993C177.639 195.111 176.217 194.097 174.923 192.756C174.177 193.096 173.77 193.385 173.151 193.964C170.262 196.514 166.872 197.117 163.148 196.936C159.637 196.598 157.179 194.52 154.959 191.961C154.237 191.057 154.207 190.346 154.214 189.215C154.361 188.291 154.875 187.893 155.595 187.344C156.344 186.97 156.825 186.99 157.657 187.086C158.592 187.729 159.241 188.411 159.944 189.293C161.094 190.633 162.053 191.13 163.827 191.316C165.989 191.423 168.034 191.374 169.769 189.921C171.241 188.215 172.016 186.42 171.979 184.16C171.798 183.33 171.581 183.126 170.896 182.641C170.709 182.526 170.522 182.41 170.329 182.292C169.117 181.514 168.036 180.255 167.707 178.84C167.568 177.545 167.563 176.568 168.126 175.377C169.891 173.473 172.316 173.629 174.73 173.606Z" fill="black"/>
<path d="M212.311 162.601C212.942 162.908 213.513 163.242 214.093 163.636C214.444 163.851 214.444 163.851 214.802 164.071C216.589 165.908 217.264 167.842 217.266 170.361C217.219 172.724 216.421 174.385 214.813 176.086C212.966 177.824 211.07 178.22 208.599 178.181C206.685 177.951 204.976 177.08 203.656 175.667C203.431 175.358 203.216 175.041 203.012 174.717C202.906 174.563 202.801 174.409 202.692 174.25C201.513 172.169 201.598 169.223 202.191 166.959C203.046 165.042 204.591 163.632 206.44 162.685C208.271 162.037 210.453 162.008 212.311 162.601Z" fill="black"/>
<path d="M143.113 162.879C144.981 163.997 146.34 165.442 147.092 167.501C147.691 169.964 147.56 172.481 146.318 174.717C145.033 176.424 143.533 177.62 141.422 178.067C139.04 178.352 137.244 178.109 135.237 176.779C134.961 176.603 134.685 176.428 134.4 176.247C132.8 174.757 132.078 172.796 131.974 170.654C131.951 168.236 132.289 166.425 133.972 164.597C136.442 162.254 139.923 161.397 143.113 162.879Z" fill="black"/>
</svg>
