<svg width="350" height="350" viewBox="0 0 350 350" fill="none" xmlns="http://www.w3.org/2000/svg">
<path d="M196.147 95.8224C196.345 95.8564 196.543 95.8905 196.746 95.9255C204.493 97.2924 212.118 99.7253 219.428 102.603C219.576 102.467 219.576 102.467 219.727 102.329C220.555 101.59 221.295 101.038 222.338 100.626C222.659 100.494 222.659 100.494 222.986 100.361C224.812 99.7563 226.505 99.5839 228.427 99.5943C228.799 99.5962 228.799 99.5962 229.18 99.5982C243.25 99.804 256.354 107.598 265.956 117.444C266.759 118.284 267.5 119.164 268.219 120.076C268.736 120.728 269.276 121.355 269.818 121.985C277.285 130.943 282.49 143.31 281.586 155.042C281.157 158.972 279.259 162.899 276.253 165.493C272.749 168.167 268.731 169.332 264.351 169.31C264.174 169.311 263.998 169.312 263.815 169.313C262.421 169.311 261.047 169.2 259.661 169.056C259.717 169.215 259.773 169.374 259.83 169.537C261.047 173.031 262.15 176.491 262.826 180.132C262.862 180.318 262.899 180.505 262.937 180.697C264.154 187.118 263.994 194.329 262.6 200.7C262.536 201.001 262.536 201.001 262.471 201.308C261.558 205.548 260.125 209.537 258.079 213.358C257.973 213.569 257.867 213.781 257.758 213.999C255.236 218.925 251.344 223.308 247.004 226.694C246.819 226.838 246.819 226.838 246.63 226.986C242.461 230.224 237.719 232.783 232.764 234.605C232.906 234.704 233.049 234.803 233.196 234.905C237.105 237.676 240.704 240.96 243.613 244.776C243.71 244.902 243.807 245.028 243.907 245.158C245.914 247.78 247.598 250.533 249.165 253.436C249.243 253.581 249.322 253.725 249.403 253.875C249.942 254.892 249.942 254.892 249.942 255.399C250.091 255.399 250.24 255.399 250.394 255.399C250.433 255.133 250.433 255.133 250.473 254.861C250.586 254.23 250.718 253.621 250.873 253C250.922 252.806 250.97 252.613 251.02 252.413C251.118 252.02 251.218 251.628 251.32 251.236C252.212 247.623 252.252 244.132 252.142 240.439C252.125 239.848 252.116 239.257 252.108 238.666C252.097 238.401 252.097 238.401 252.086 238.13C252.073 236.777 252.478 235.878 253.332 234.831C254.522 233.903 255.96 233.994 257.401 234.153C260.433 234.883 262.697 236.755 264.86 238.899C265.059 239.095 265.258 239.291 265.463 239.493C268.416 242.565 270.041 246.301 271.146 250.37C271.193 250.541 271.24 250.712 271.288 250.888C272.404 255.235 272.439 260.81 271.189 265.119C271.108 265.428 271.028 265.737 270.948 266.046C269.44 271.684 266.445 276.95 262.148 280.941C261.961 281.127 261.775 281.314 261.582 281.506C261.396 281.692 261.209 281.879 261.017 282.071C260.905 282.188 260.793 282.305 260.677 282.425C259.75 283.378 258.781 284.207 257.712 284.995C257.554 285.112 257.396 285.229 257.234 285.349C251.322 289.679 244.514 292.301 237.284 293.372C236.93 293.436 236.93 293.436 236.568 293.501C235.304 293.643 234.048 293.622 232.778 293.613C232.515 293.612 232.253 293.611 231.983 293.609C231.339 293.607 230.695 293.603 230.051 293.598C230.067 293.793 230.083 293.988 230.099 294.189C230.275 296.559 230.322 298.92 230.331 301.297C230.332 301.496 230.333 301.695 230.334 301.901C230.339 302.954 230.342 304.008 230.344 305.061C230.347 306.138 230.354 307.214 230.363 308.29C230.369 309.129 230.371 309.968 230.372 310.807C230.373 311.204 230.376 311.6 230.38 311.996C230.424 316.41 229.676 320.284 226.526 323.597C223.69 326.289 220.219 327.235 216.49 327.955C216.321 327.995 216.152 328.035 215.978 328.076C215.189 328.21 214.41 328.222 213.612 328.227C213.36 328.229 213.36 328.229 213.103 328.232C206.808 328.278 200.61 328.032 195.718 323.493C192.615 320.155 191.771 315.413 191.852 311.003C191.587 311.068 191.321 311.133 191.047 311.2C187.613 311.961 184.071 312.165 180.563 312.179C180.292 312.18 180.022 312.182 179.743 312.183C178.873 312.187 178.002 312.189 177.132 312.189C176.835 312.19 176.538 312.19 176.232 312.191C171.531 312.193 166.911 312.013 162.242 311.455C161.889 311.413 161.535 311.372 161.181 311.331C160.254 311.223 159.327 311.113 158.4 311.003C158.402 311.245 158.405 311.488 158.407 311.738C158.371 315.958 156.886 320.3 153.971 323.371C149.69 327.429 143.809 328.233 138.17 328.237C137.998 328.238 137.827 328.238 137.65 328.238C132.327 328.23 126.997 327.351 122.979 323.543C119.863 320.167 119.451 316.04 119.463 311.659C119.462 311.283 119.462 310.907 119.461 310.53C119.46 309.533 119.461 308.535 119.464 307.537C119.466 306.918 119.467 306.299 119.468 305.68C119.478 299.76 119.537 293.854 119.975 287.948C119.988 287.768 120.001 287.587 120.015 287.402C120.294 283.58 120.639 279.772 121.105 275.968C120.858 276.053 120.611 276.137 120.356 276.224C120.209 276.275 120.062 276.325 119.91 276.377C119.605 276.481 119.3 276.586 118.996 276.692C118.794 276.76 118.794 276.76 118.589 276.829C118.454 276.875 118.319 276.921 118.18 276.969C114.687 277.941 109.99 277.809 106.639 276.42C106.438 276.352 106.238 276.284 106.031 276.214C103.022 275.153 100.375 272.905 98.9541 270.049C97.3108 266.593 97.2322 262.123 98.4155 258.478C98.5186 258.208 98.6218 257.938 98.728 257.66C98.819 257.415 98.819 257.415 98.9119 257.165C100.341 253.373 102.302 249.973 104.831 246.81C104.985 246.612 105.14 246.415 105.299 246.211C108.099 242.693 111.293 239.629 114.748 236.766C114.909 236.632 115.071 236.499 115.237 236.361C115.927 235.795 116.613 235.25 117.363 234.766C117.959 234.435 117.959 234.435 118.167 233.927C118.004 233.899 117.842 233.871 117.675 233.842C111.928 232.57 106.039 228.721 101.666 224.885C101.472 224.716 101.278 224.546 101.077 224.372C100.514 223.872 99.9581 223.364 99.4061 222.851C99.2558 222.713 99.1054 222.575 98.9505 222.433C91.1927 215.022 86.9684 203.492 86.683 192.91C86.665 191.909 86.6615 190.909 86.6637 189.907C86.6638 189.696 86.6639 189.484 86.6641 189.266C86.6822 182.419 87.4801 174.826 90.591 168.604C90.3095 168.677 90.028 168.75 89.738 168.825C85.2103 169.824 80.5154 168.957 76.5556 166.621C72.7686 164.181 70.5697 160.206 69.5631 155.902C67.3815 145.544 71.8647 134.121 77.408 125.55C77.9439 124.745 78.4969 123.955 79.0634 123.172C79.1592 123.039 79.2549 122.907 79.3535 122.77C82.3197 118.708 85.7378 114.988 89.6868 111.871C90.092 111.532 90.497 111.193 90.9017 110.853C93.2764 108.916 95.8415 107.28 98.502 105.768C98.6646 105.675 98.8272 105.583 98.9947 105.488C103.191 103.13 107.621 101.498 112.29 100.343C112.45 100.302 112.611 100.262 112.777 100.22C115.19 99.6389 117.617 99.6018 120.088 99.5943C120.244 99.5934 120.401 99.5926 120.562 99.5917C124.164 99.5818 128.005 100.119 130.824 102.603C130.824 102.752 130.824 102.902 130.824 103.055C131.042 102.956 131.261 102.857 131.486 102.755C139.286 99.3043 147.524 97.0421 155.914 95.5964C156.128 95.5591 156.342 95.5219 156.562 95.4835C169.476 93.3198 183.268 93.6 196.147 95.8224Z" fill="#F2D3A3"/>
<path d="M196.147 95.8224C196.345 95.8564 196.543 95.8905 196.746 95.9255C204.493 97.2924 212.118 99.7253 219.428 102.603C219.576 102.467 219.576 102.467 219.727 102.329C220.555 101.59 221.295 101.038 222.338 100.626C222.659 100.494 222.659 100.494 222.986 100.361C224.812 99.7563 226.505 99.5839 228.427 99.5943C228.799 99.5962 228.799 99.5962 229.18 99.5982C243.25 99.804 256.354 107.598 265.956 117.444C266.759 118.284 267.5 119.164 268.219 120.076C268.736 120.728 269.276 121.355 269.818 121.985C277.285 130.943 282.49 143.31 281.586 155.042C281.157 158.972 279.259 162.899 276.253 165.493C272.749 168.167 268.731 169.332 264.351 169.31C264.174 169.311 263.998 169.312 263.815 169.313C262.421 169.311 261.047 169.2 259.661 169.056C259.717 169.215 259.773 169.374 259.83 169.537C261.047 173.031 262.15 176.491 262.826 180.132C262.862 180.318 262.899 180.505 262.937 180.697C264.154 187.118 263.994 194.329 262.6 200.7C262.536 201.001 262.536 201.001 262.471 201.308C261.558 205.548 260.125 209.537 258.079 213.358C257.973 213.569 257.867 213.781 257.758 213.999C255.236 218.925 251.344 223.308 247.004 226.694C246.819 226.838 246.819 226.838 246.63 226.986C242.461 230.224 237.719 232.783 232.764 234.605C232.906 234.704 233.049 234.803 233.196 234.905C237.105 237.676 240.704 240.96 243.613 244.776C243.71 244.902 243.807 245.028 243.907 245.158C245.914 247.78 247.598 250.533 249.165 253.436C249.243 253.581 249.322 253.725 249.403 253.875C249.942 254.892 249.942 254.892 249.942 255.399C250.091 255.399 250.24 255.399 250.394 255.399C250.433 255.133 250.433 255.133 250.473 254.861C250.586 254.23 250.718 253.621 250.873 253C250.922 252.806 250.97 252.613 251.02 252.413C251.118 252.02 251.218 251.628 251.32 251.236C252.212 247.623 252.252 244.132 252.142 240.439C252.125 239.848 252.116 239.257 252.108 238.666C252.097 238.401 252.097 238.401 252.086 238.13C252.073 236.777 252.478 235.878 253.332 234.831C254.522 233.903 255.96 233.994 257.401 234.153C260.433 234.883 262.697 236.755 264.86 238.899C265.059 239.095 265.258 239.291 265.463 239.493C268.416 242.565 270.041 246.301 271.146 250.37C271.193 250.541 271.24 250.712 271.288 250.888C272.404 255.235 272.439 260.81 271.189 265.119C271.108 265.428 271.028 265.737 270.948 266.046C269.44 271.684 266.445 276.95 262.148 280.941C261.961 281.127 261.775 281.314 261.582 281.506C261.396 281.692 261.209 281.879 261.017 282.071C260.905 282.188 260.793 282.305 260.677 282.425C259.75 283.378 258.781 284.207 257.712 284.995C257.554 285.112 257.396 285.229 257.234 285.349C251.322 289.679 244.514 292.301 237.284 293.372C236.93 293.436 236.93 293.436 236.568 293.501C235.304 293.643 234.048 293.622 232.778 293.613C232.515 293.612 232.253 293.611 231.983 293.609C231.339 293.607 230.695 293.603 230.051 293.598C230.067 293.793 230.083 293.988 230.099 294.189C230.275 296.559 230.322 298.92 230.331 301.297C230.332 301.496 230.333 301.695 230.334 301.901C230.339 302.954 230.342 304.008 230.344 305.061C230.347 306.138 230.354 307.214 230.363 308.29C230.369 309.129 230.371 309.968 230.372 310.807C230.373 311.204 230.376 311.6 230.38 311.996C230.424 316.41 229.676 320.284 226.526 323.597C223.69 326.289 220.219 327.235 216.49 327.955C216.321 327.995 216.152 328.035 215.978 328.076C215.189 328.21 214.41 328.222 213.612 328.227C213.36 328.229 213.36 328.229 213.103 328.232C206.808 328.278 200.61 328.032 195.718 323.493C192.615 320.155 191.771 315.413 191.852 311.003C191.587 311.068 191.321 311.133 191.047 311.2C187.613 311.961 184.071 312.165 180.563 312.179C180.292 312.18 180.022 312.182 179.743 312.183C178.873 312.187 178.002 312.189 177.132 312.189C176.835 312.19 176.538 312.19 176.232 312.191C171.531 312.193 166.911 312.013 162.242 311.455C161.889 311.413 161.535 311.372 161.181 311.331C160.254 311.223 159.327 311.113 158.4 311.003C158.402 311.245 158.405 311.488 158.407 311.738C158.371 315.958 156.886 320.3 153.971 323.371C149.69 327.429 143.809 328.233 138.17 328.237C137.998 328.238 137.827 328.238 137.65 328.238C132.327 328.23 126.997 327.351 122.979 323.543C119.863 320.167 119.451 316.04 119.463 311.659C119.462 311.283 119.462 310.907 119.461 310.53C119.46 309.533 119.461 308.535 119.464 307.537C119.466 306.918 119.467 306.299 119.468 305.68C119.478 299.76 119.537 293.854 119.975 287.948C119.988 287.768 120.001 287.587 120.015 287.402C120.294 283.58 120.639 279.772 121.105 275.968C120.858 276.053 120.611 276.137 120.356 276.224C120.209 276.275 120.062 276.325 119.91 276.377C119.605 276.481 119.3 276.586 118.996 276.692C118.794 276.76 118.794 276.76 118.589 276.829C118.454 276.875 118.319 276.921 118.18 276.969C114.687 277.941 109.99 277.809 106.639 276.42C106.438 276.352 106.238 276.284 106.031 276.214C103.022 275.153 100.375 272.905 98.9541 270.049C97.3108 266.593 97.2322 262.123 98.4155 258.478C98.5186 258.208 98.6218 257.938 98.728 257.66C98.819 257.415 98.819 257.415 98.9119 257.165C100.341 253.373 102.302 249.973 104.831 246.81C104.985 246.612 105.14 246.415 105.299 246.211C108.099 242.693 111.293 239.629 114.748 236.766C114.909 236.632 115.071 236.499 115.237 236.361C115.927 235.795 116.613 235.25 117.363 234.766C117.959 234.435 117.959 234.435 118.167 233.927C118.004 233.899 117.842 233.871 117.675 233.842C111.928 232.57 106.039 228.721 101.666 224.885C101.472 224.716 101.278 224.546 101.077 224.372C100.514 223.872 99.9581 223.364 99.4061 222.851C99.2558 222.713 99.1054 222.575 98.9505 222.433C91.1927 215.022 86.9684 203.492 86.683 192.91C86.665 191.909 86.6615 190.909 86.6637 189.907C86.6638 189.696 86.6639 189.484 86.6641 189.266C86.6822 182.419 87.4801 174.826 90.591 168.604C90.3095 168.677 90.028 168.75 89.738 168.825C85.2103 169.824 80.5154 168.957 76.5556 166.621C72.7686 164.181 70.5697 160.206 69.5631 155.902C67.3815 145.544 71.8647 134.121 77.408 125.55C77.9439 124.745 78.4969 123.955 79.0634 123.172C79.1592 123.039 79.2549 122.907 79.3535 122.77C82.3197 118.708 85.7378 114.988 89.6868 111.871C90.092 111.532 90.497 111.193 90.9017 110.853C93.2764 108.916 95.8415 107.28 98.502 105.768C98.6646 105.675 98.8272 105.583 98.9947 105.488C103.191 103.13 107.621 101.498 112.29 100.343C112.45 100.302 112.611 100.262 112.777 100.22C115.19 99.6389 117.617 99.6018 120.088 99.5943C120.244 99.5934 120.401 99.5926 120.562 99.5917C124.164 99.5818 128.005 100.119 130.824 102.603C130.824 102.752 130.824 102.902 130.824 103.055C131.042 102.956 131.261 102.857 131.486 102.755C139.286 99.3043 147.524 97.0421 155.914 95.5964C156.128 95.5591 156.342 95.5219 156.562 95.4835C169.476 93.3198 183.268 93.6 196.147 95.8224ZM159.53 100.795C159.172 100.837 159.172 100.837 158.807 100.88C151.129 101.795 143.689 103.674 136.475 106.446C136.269 106.524 136.063 106.602 135.851 106.683C135.326 106.885 134.805 107.094 134.285 107.308C134.009 107.421 133.733 107.534 133.449 107.651C132.822 107.97 132.822 107.97 132.654 108.55C132.63 109.228 132.646 109.893 132.675 110.571C132.746 114.575 131.764 118.683 130.598 122.494C130.53 122.716 130.463 122.937 130.393 123.166C127.003 134.074 122.068 145.395 114.147 153.829C113.717 154.288 113.313 154.757 112.911 155.24C109.501 159.123 104.416 163.623 99.4591 165.298C98.2644 165.713 97.5737 166.011 96.9039 167.115C96.5245 167.977 96.2443 168.864 95.9792 169.767C95.7723 170.471 95.5493 171.17 95.3252 171.869C94.4146 174.767 93.6426 177.671 93.1699 180.673C93.104 181.092 93.0323 181.51 92.9568 181.927C92.5776 184.197 92.5487 186.44 92.5539 188.737C92.5546 189.391 92.5493 190.045 92.5436 190.699C92.5303 194.533 92.8344 198.402 93.9108 202.099C93.9681 202.301 94.0253 202.504 94.0844 202.712C97.0083 212.66 103.623 220.545 112.668 225.509C117.598 228.144 122.761 230.115 128.275 231.098C128.476 231.134 128.677 231.171 128.884 231.208C129.066 231.239 129.248 231.27 129.436 231.302C130.185 231.516 130.576 231.974 131.05 232.57C131.125 232.645 131.199 232.72 131.276 232.796C131.373 233.628 131.298 234.105 130.951 234.873C130.168 235.733 129.444 235.91 128.338 236.187C119.026 238.57 111.481 246.513 106.619 254.537C104.456 258.195 102.708 262.006 103.329 266.36C103.803 268.148 105.102 269.551 106.642 270.52C110.004 272.253 114.165 272.572 117.799 271.433C119.465 270.77 121.266 269.887 122.461 268.509C122.648 268.049 122.648 268.049 122.762 267.529C122.811 267.331 122.86 267.133 122.911 266.929C122.962 266.714 123.013 266.499 123.065 266.278C123.148 265.942 123.148 265.942 123.233 265.599C123.411 264.879 123.586 264.158 123.761 263.438C124.421 260.713 125.085 258.003 125.996 255.349C126.059 255.164 126.121 254.98 126.185 254.789C126.581 253.68 126.998 252.566 128.112 252.009C129.035 251.893 129.97 251.801 130.815 252.238C131.411 252.721 131.711 253.086 131.954 253.817C132.012 254.93 131.883 255.833 131.565 256.898C131.48 257.187 131.396 257.476 131.311 257.766C131.266 257.917 131.222 258.067 131.175 258.222C130.077 261.92 129.166 265.645 128.338 269.413C128.27 269.715 128.27 269.715 128.201 270.022C126.827 276.199 126.138 282.506 125.664 288.808C125.634 289.19 125.603 289.573 125.571 289.956C125.427 291.739 125.334 293.518 125.276 295.306C125.267 295.596 125.257 295.885 125.247 296.184C125.145 299.504 125.123 302.824 125.119 306.146C125.118 307.025 125.112 307.905 125.106 308.785C125.102 309.477 125.101 310.17 125.1 310.862C125.1 311.186 125.098 311.511 125.095 311.836C125.07 314.673 125.262 317.378 127.208 319.592C129.998 322.223 133.811 322.65 137.479 322.606C137.959 322.601 138.438 322.602 138.918 322.603C142.938 322.595 147.28 322.123 150.263 319.14C152.298 316.467 152.65 313.328 152.763 310.084C152.78 309.617 152.799 309.151 152.821 308.684C152.841 308.266 152.856 307.848 152.871 307.429C152.985 306.643 153.179 306.21 153.653 305.578C155.627 304.262 159.645 305.328 161.917 305.564C166.642 306.051 171.32 306.298 176.071 306.298C176.776 306.298 177.481 306.303 178.186 306.307C182.561 306.319 186.861 305.946 191.188 305.324C191.761 305.242 192.333 305.162 192.906 305.082C193.149 305.047 193.393 305.012 193.645 304.976C195.459 304.777 195.459 304.777 196.429 305.281C197.108 305.852 197.251 306.103 197.503 306.934C197.561 307.673 197.561 307.673 197.565 308.508C197.569 308.818 197.574 309.129 197.579 309.439C197.584 309.92 197.588 310.402 197.589 310.883C197.605 314.249 197.971 317.514 200.441 320.044C203.235 322.362 207.087 322.575 210.556 322.585C211.042 322.587 211.529 322.594 212.015 322.601C215.817 322.63 219.692 322.207 222.547 319.478C224.138 317.672 224.679 315.444 224.692 313.084C224.694 312.917 224.695 312.75 224.697 312.578C224.701 312.028 224.702 311.478 224.703 310.929C224.704 310.538 224.706 310.147 224.708 309.756C224.713 308.495 224.713 307.234 224.711 305.974C224.711 305.759 224.711 305.544 224.711 305.323C224.709 298.211 224.502 291.18 223.722 284.105C223.672 283.636 223.622 283.167 223.572 282.698C222.589 273.62 221.223 264.313 218.298 255.625C218.16 254.835 218.123 254.133 218.519 253.416C219.03 252.773 219.539 252.242 220.332 252.009C221.154 251.934 221.746 251.947 222.522 252.235C223.715 253.267 224.118 254.899 224.491 256.384C224.537 256.559 224.583 256.735 224.63 256.915C224.727 257.287 224.823 257.66 224.918 258.032C225.066 258.612 225.217 259.192 225.369 259.771C225.847 261.604 226.294 263.436 226.678 265.291C227.146 267.579 227.146 267.579 228.646 269.317C228.811 269.423 228.977 269.53 229.147 269.639C229.317 269.762 229.487 269.885 229.663 270.011C232.652 272.006 236.291 272.429 239.78 271.742C242.249 271.102 244.433 269.999 245.873 267.831C247.011 265.693 246.743 263.242 246.099 260.994C243.191 251.574 235.683 243.023 227.146 238.251C225.243 237.248 223.312 236.804 221.19 236.532C220.322 236.368 219.857 236.091 219.202 235.509C218.837 234.779 218.844 234.037 218.976 233.248C219.897 231.965 221.056 231.777 222.552 231.515C222.701 231.492 222.85 231.469 223.003 231.445C225.172 231.109 227.202 230.527 229.274 229.816C229.437 229.761 229.599 229.706 229.766 229.649C232.152 228.84 234.417 227.947 236.606 226.694C236.913 226.529 237.22 226.365 237.527 226.202C246.378 221.447 253.043 213.26 255.941 203.648C256.222 202.67 256.482 201.689 256.723 200.7C256.76 200.56 256.798 200.419 256.837 200.274C257.667 196.956 257.719 193.478 257.712 190.077C257.712 189.775 257.712 189.775 257.712 189.467C257.703 186.054 257.446 182.798 256.723 179.453C256.684 179.265 256.645 179.076 256.605 178.881C255.841 175.223 254.573 171.672 253.332 168.152C253.279 167.98 253.226 167.808 253.171 167.631C252.891 166.817 252.644 166.563 251.908 166.091C251.608 165.954 251.305 165.822 251.001 165.694C250.672 165.542 250.343 165.388 250.015 165.233C249.768 165.117 249.768 165.117 249.516 164.998C246.899 163.704 244.544 161.808 242.257 160.015C242.131 159.917 242.006 159.818 241.877 159.717C238.45 156.997 235.327 153.841 232.764 150.296C232.654 150.146 232.544 149.996 232.43 149.841C224.373 138.827 216.496 122.459 217.394 108.48C205.089 101.743 190.057 99.9701 176.232 100.029C175.311 100.032 174.389 100.03 173.468 100.026C168.779 100.01 164.187 100.236 159.53 100.795Z" fill="black"/>
<path d="M246.451 109.893C253.281 113.385 259.977 118.638 264.634 124.754C264.753 124.91 264.872 125.065 264.995 125.226C266.763 127.546 268.422 129.884 269.833 132.439C269.937 132.625 270.041 132.812 270.148 133.004C273.461 138.967 275.798 145.054 275.822 151.934C275.825 152.374 275.825 152.374 275.827 152.822C275.783 156.026 275.056 158.749 272.844 161.12C269.911 163.782 266.09 163.843 262.347 163.677C253.427 163.05 245.051 156.064 239.399 149.647C238.653 148.763 237.959 147.844 237.284 146.905C237.181 146.762 237.078 146.619 236.972 146.472C233.259 141.276 230.302 135.702 228.047 129.726C227.806 129.088 227.56 128.452 227.312 127.817C225.624 123.403 224.29 118.792 223.496 114.131C223.451 113.91 223.405 113.689 223.358 113.462C223.091 112.106 222.993 110.777 222.974 109.398C222.97 109.235 222.966 109.072 222.962 108.903C222.963 107.889 223.096 107.248 223.722 106.446C229.377 102.205 240.988 107.22 246.451 109.893Z" fill="#7D5232"/>
<path d="M119.89 105.259C120.317 105.256 120.317 105.256 120.752 105.254C124.925 105.263 124.925 105.263 126.53 106.672C126.995 107.74 127.061 108.757 127.052 109.907C127.051 110.174 127.051 110.174 127.049 110.447C126.893 118.472 123.36 127.04 119.996 134.173C119.749 134.698 119.51 135.227 119.273 135.757C115.516 144.045 109.903 151.628 102.571 157.076C102.349 157.245 102.128 157.414 101.9 157.588C98.4328 160.125 94.5015 162.039 90.365 163.179C90.161 163.239 89.9571 163.298 89.7469 163.359C87.2051 163.991 84.2173 163.9 81.7759 162.953C81.4918 162.846 81.4918 162.846 81.202 162.736C78.5287 161.569 76.744 159.289 75.6731 156.624C75.0743 154.75 74.885 152.991 74.9102 151.03C74.9132 150.644 74.9132 150.644 74.9162 150.251C74.9513 148.227 75.1848 146.382 75.6731 144.419C75.7334 144.136 75.7937 143.854 75.8558 143.563C77.4393 136.345 81.2334 129.56 85.8444 123.85C86.0629 123.562 86.0629 123.562 86.2859 123.269C89.0292 119.737 92.3678 116.698 96.0157 114.131C96.1529 114.032 96.2901 113.934 96.4315 113.832C101.694 110.071 107.768 107.166 114.098 105.768C114.28 105.726 114.462 105.684 114.649 105.642C116.399 105.278 118.107 105.248 119.89 105.259Z" fill="#7D5232"/>
<path d="M181.003 246.358C181.208 246.437 181.414 246.516 181.625 246.597C186.747 248.842 189.825 254.31 191.852 259.242C192.853 261.817 193.409 264.44 193.887 267.153C193.926 267.364 193.966 267.576 194.007 267.793C194.617 271.931 194.388 276.553 192.982 280.489C192.893 280.749 192.804 281.008 192.711 281.276C191.085 285.534 188.001 288.835 183.887 290.756C178.453 293.135 171.472 292.879 166.023 290.765C161.808 289.037 158.865 286.227 156.896 282.131C153.857 274.767 155.154 266.208 158.131 259.044C159.369 256.186 160.813 253.421 162.92 251.105C163.018 250.997 163.116 250.888 163.216 250.777C167.911 245.624 174.479 243.724 181.003 246.358Z" fill="#FFBB4D"/>
<path d="M188.611 244.18C191.392 246.528 193.449 249.296 195.243 252.461C195.317 252.591 195.391 252.721 195.467 252.855C197.737 256.913 199.051 261.445 199.763 266.023C199.802 266.271 199.802 266.271 199.843 266.525C200.974 273.972 199.931 282.146 195.522 288.427C191.248 293.934 185.872 296.55 179.119 297.807C171.207 298.626 163.359 297.046 157.054 292.056C152.591 288.406 150.162 282.997 149.585 277.324C149.503 276.059 149.496 274.792 149.5 273.524C149.5 273.352 149.5 273.181 149.5 273.004C149.516 268.239 150.274 263.744 151.845 259.242C151.896 259.095 151.946 258.948 151.998 258.796C153.685 253.997 156.278 249.823 159.756 246.132C159.883 245.994 160.009 245.855 160.14 245.712C167.716 237.714 180.209 237.278 188.611 244.18ZM164.955 249.071C164.741 249.263 164.528 249.456 164.308 249.654C160.313 253.385 158.12 258.368 156.592 263.536C156.523 263.764 156.453 263.992 156.382 264.227C154.686 270.368 154.467 277.515 157.447 283.307C160.034 287.709 163.632 290.087 168.429 291.588C170.547 292.11 172.594 292.319 174.773 292.299C175.021 292.297 175.269 292.295 175.525 292.294C180.741 292.224 185.417 290.855 189.14 287.044C191.753 284.286 192.957 280.952 193.786 277.312C193.851 277.026 193.925 276.742 194.009 276.46C195.62 268.801 192.82 259.87 188.914 253.365C188.357 252.564 187.753 251.833 187.106 251.105C186.894 250.845 186.894 250.845 186.678 250.58C184.356 247.796 180.993 245.785 177.386 245.228C172.733 244.808 168.472 245.893 164.955 249.071Z" fill="black"/>
<path d="M140.536 169.479C142.85 170.568 144.03 172.231 144.895 174.565C145.357 176.799 145.001 178.669 143.862 180.651C143.091 181.77 142.19 182.439 140.996 183.07C141.356 183.856 141.826 184.526 142.324 185.231C143.911 187.588 144.426 189.824 144.428 192.62C144.431 192.824 144.434 193.028 144.437 193.238C144.444 196.595 143.142 199.634 140.77 202.056C140.62 202.056 140.471 202.056 140.318 202.056C140.243 202.28 140.168 202.504 140.091 202.734C139.101 203.755 137.77 204.396 136.517 205.037C136.301 205.15 136.301 205.15 136.08 205.265C133.792 206.4 131.596 206.697 129.058 206.676C128.639 206.673 128.639 206.673 128.211 206.671C126.219 206.636 124.537 206.451 122.687 205.673C122.373 205.558 122.373 205.558 122.051 205.441C118.538 204.038 116.053 201.383 114.397 198.044C113.674 196.269 113.293 194.654 113.307 192.733C113.308 192.526 113.31 192.32 113.311 192.107C113.409 188.34 115.262 185.32 117.933 182.748C119.054 181.796 120.268 181.068 121.557 180.357C121.72 180.262 121.882 180.167 122.05 180.07C124.391 178.777 127.165 178.508 129.793 178.535C129.98 178.536 130.167 178.537 130.359 178.538C130.816 178.541 131.272 178.545 131.728 178.549C131.718 178.279 131.707 178.009 131.697 177.731C131.62 174.954 131.829 173.15 133.776 171.043C135.694 169.272 138.007 168.737 140.536 169.479Z" fill="#F4A99C"/>
<path d="M213.862 169.748C215.743 170.84 216.818 172.243 217.62 174.255C218.033 175.811 217.904 177.433 217.62 179.001C217.85 178.998 217.85 178.998 218.085 178.994C218.792 178.985 219.498 178.979 220.205 178.973C220.447 178.969 220.688 178.966 220.937 178.962C225.257 178.935 229.34 180.695 232.48 183.66C235.018 186.352 236.279 189.526 236.249 193.224C236.116 196.937 234.427 199.928 231.86 202.509C231.726 202.65 231.592 202.792 231.454 202.938C228.59 205.732 224.268 206.95 220.362 206.911C218.536 206.844 216.866 206.461 215.133 205.899C214.779 205.788 214.779 205.788 214.417 205.675C210.557 204.277 207.972 201.229 206.193 197.647C205.519 196.019 205.332 194.575 205.344 192.832C205.345 192.632 205.346 192.432 205.347 192.226C205.411 188.806 206.844 186.049 208.805 183.296C208.64 183.209 208.64 183.209 208.473 183.12C206.825 182.179 205.176 180.76 204.601 178.886C204.199 176.4 204.345 174.102 205.731 171.956C207.665 169.44 210.932 168.416 213.862 169.748Z" fill="#F4A99C"/>
<path d="M258.531 240.707C261.346 243.077 263.248 245.872 264.634 249.296C264.698 249.449 264.763 249.602 264.829 249.76C266.966 255.405 266.557 262.783 264.182 268.283C260.376 276.551 253.345 282.767 244.862 286.005C240.003 287.762 234.988 288.587 229.825 288.4C229.483 287.196 229.419 285.942 229.292 284.701C229.246 284.249 229.199 283.797 229.151 283.346C229.122 283.058 229.092 282.771 229.062 282.475C229.021 282.082 229.021 282.082 228.98 281.682C228.924 280.979 228.911 280.289 228.921 279.584C229.104 279.519 229.288 279.453 229.477 279.385C230.727 278.922 231.838 278.484 232.933 277.72C234.465 276.831 236.135 276.985 237.854 276.96C239.978 276.913 241.652 276.567 243.613 275.742C243.886 275.63 244.159 275.518 244.44 275.403C247.76 273.9 250.012 271.594 251.355 268.198C251.656 267.335 251.801 266.548 251.891 265.641C252.1 264.184 252.775 263.187 253.568 261.984C257.721 255.671 258.289 248.062 258.531 240.707Z" fill="#7D5232"/>
<path d="M184.252 177.588C185.365 178.483 186.202 179.682 186.654 181.035C186.794 182.83 186.328 184.071 185.213 185.457C183.521 187.254 181.154 188.298 178.743 188.72C178.444 188.72 178.146 188.72 177.838 188.72C177.844 189.738 177.861 190.755 177.881 191.772C177.882 192.058 177.883 192.345 177.885 192.641C177.924 194.325 178.029 195.581 179.195 196.857C180.549 198.122 182.385 198.159 184.142 198.135C186.889 198 188.585 196.668 190.411 194.752C190.767 194.35 191.111 193.939 191.443 193.517C191.878 192.983 192.069 192.818 192.746 192.735C194.003 192.694 194.703 192.846 195.695 193.693C196.313 194.621 196.306 195.317 196.147 196.405C195.181 199.302 192.18 201.406 189.592 202.734C188.775 203.081 187.954 203.377 187.106 203.638C186.882 203.713 186.658 203.788 186.428 203.864C182.283 204.17 178.952 204.105 175.606 201.458C175.094 201.071 175.094 201.071 174.222 201.152C173.708 201.467 173.708 201.467 173.191 201.887C172.02 202.744 170.853 203.212 169.475 203.638C169.14 203.75 169.14 203.75 168.797 203.864C164.305 204.243 160.601 203.855 157.044 200.926C156.78 200.717 156.78 200.717 156.51 200.503C154.943 199.196 153.33 197.544 153.131 195.431C153.214 194.443 153.486 194.002 154.105 193.241C155.116 192.567 156.086 192.626 157.27 192.789C157.863 193.213 157.863 193.213 158.4 193.919C160.002 195.856 161.848 197.736 164.486 198.037C164.968 198.064 165.446 198.073 165.93 198.072C166.099 198.072 166.269 198.072 166.444 198.072C167.775 198.045 168.783 197.779 169.927 197.083C170.088 197.011 170.249 196.938 170.415 196.863C171.008 196.533 171.079 196.13 171.284 195.501C171.358 195.352 171.433 195.203 171.51 195.049C171.545 194.574 171.566 194.097 171.581 193.621C171.591 193.337 171.6 193.052 171.61 192.76C171.619 192.462 171.628 192.164 171.637 191.857C171.647 191.554 171.656 191.251 171.666 190.948C171.69 190.205 171.713 189.463 171.736 188.72C171.388 188.679 171.388 188.679 171.033 188.636C168.483 188.224 165.954 187.026 164.281 185.019C163.344 183.666 162.939 182.479 163.147 180.809C163.664 179.004 165.084 177.835 166.616 176.852C168.092 176.049 169.642 175.693 171.284 175.385C171.49 175.343 171.696 175.301 171.909 175.257C176.094 174.691 180.695 175.156 184.252 177.588Z" fill="black"/>
<path d="M213.862 169.748C215.743 170.84 216.818 172.243 217.62 174.255C217.803 174.947 217.803 174.947 217.846 175.611C217.862 175.753 217.879 175.895 217.896 176.042C218.027 177.888 217.316 179.875 216.221 181.361C214.41 183.011 212.732 183.621 210.307 183.599C208.524 183.433 207.173 182.534 205.972 181.24C204.457 179.277 204.297 177.101 204.51 174.707C204.923 172.799 206 171.322 207.598 170.225C209.632 169.077 211.691 168.762 213.862 169.748Z" fill="black"/>
<path d="M140.536 169.479C142.85 170.568 144.03 172.231 144.895 174.565C145.358 176.807 144.983 178.642 143.877 180.643C142.977 181.985 141.643 182.941 140.1 183.439C137.85 183.844 136.111 183.44 134.215 182.166C132.964 181.088 132.033 179.499 131.728 177.871C131.548 175.327 131.73 173.504 133.367 171.486C135.297 169.397 137.774 168.668 140.536 169.479Z" fill="black"/>
</svg>
