<svg width="8" height="15" viewBox="0 0 8 15" fill="none" xmlns="http://www.w3.org/2000/svg">
<path d="M6.74485 5.22892L1.82747 0.311534C1.62674 0.111998 1.35521 0 1.07218 0C0.789152 0 0.517623 0.111998 0.316896 0.311534C0.216483 0.411127 0.136782 0.529617 0.0823926 0.660168C0.0280028 0.790719 0 0.930747 0 1.07217C0 1.2136 0.0280028 1.35363 0.0823926 1.48418C0.136782 1.61473 0.216483 1.73322 0.316896 1.83282L5.245 6.73949C5.34541 6.83908 5.42511 6.95757 5.4795 7.08812C5.53389 7.21867 5.56189 7.3587 5.56189 7.50013C5.56189 7.64156 5.53389 7.78159 5.4795 7.91214C5.42511 8.04269 5.34541 8.16118 5.245 8.26077L0.316896 13.1674C0.115162 13.3678 0.00126407 13.64 0.000259511 13.9243C-0.000745052 14.2086 0.111227 14.4816 0.311541 14.6834C0.511855 14.8851 0.784102 14.999 1.06839 15C1.35269 15.001 1.62573 14.889 1.82747 14.6887L6.74485 9.77134C7.34673 9.16872 7.68479 8.35184 7.68479 7.50013C7.68479 6.64842 7.34673 5.83154 6.74485 5.22892Z" fill="#8C8C8C"/>
</svg>
