<svg width="350" height="350" viewBox="0 0 350 350" fill="none" xmlns="http://www.w3.org/2000/svg">
<ellipse cx="172.73" cy="191.541" rx="93.6486" ry="76.6216" fill="#FBE9CC"/>
<path d="M106.382 94.539L130.381 106.228L154.786 127.795L96.3269 162.984L96.327 127.795L106.382 94.539Z" fill="#FBE9CC"/>
<path d="M243.113 94.539L219.114 106.228L194.709 127.795L253.168 162.984L253.168 127.795L243.113 94.539Z" fill="#FBE9CC"/>
<path d="M125.021 96.616C128.596 99.069 132.042 101.708 135.248 104.629C135.683 105.024 136.124 105.41 136.57 105.793C142.807 111.23 142.807 111.23 144.403 113.657C144.674 114.088 144.674 114.088 145.234 114.567C146.836 114.508 148.302 114.073 149.835 113.631C157.85 111.401 166.187 110.502 174.49 110.545C174.851 110.547 174.851 110.547 175.218 110.548C185.329 110.585 195.001 112.119 204.738 114.788C205.202 114.292 205.666 113.796 206.129 113.3C206.341 113.074 206.341 113.074 206.557 112.844C207.194 112.161 207.83 111.479 208.452 110.782C209.934 109.128 211.515 107.616 213.154 106.118C213.527 105.777 213.898 105.433 214.267 105.087C215.673 103.779 217.117 102.536 218.623 101.344C218.832 101.178 219.041 101.011 219.256 100.84C234.959 88.5418 234.959 88.5418 242.653 88.9123C244.667 89.1913 246.157 90.132 247.493 91.6473C256.83 104.503 259.419 128.99 258.906 144.53C258.823 148.68 259.707 151.417 261.844 155.04C267.317 164.791 271.295 178.629 271.295 189.939C271.5 189.95 271.706 189.961 271.917 189.972C277.546 190.302 277.546 190.302 278.788 191.482C279.47 192.303 279.954 193.068 280 194.154C279.841 195.385 279.492 196.147 278.554 196.95C276.72 198.316 274.061 197.621 271.917 197.308C271.712 197.277 271.506 197.245 271.295 197.212C271.302 197.448 271.31 197.684 271.318 197.927C271.413 202.285 270.811 206.606 269.972 210.876C270.092 210.899 270.212 210.922 270.335 210.946C271.603 211.208 272.778 211.585 273.981 212.061C274.15 212.125 274.319 212.189 274.493 212.255C276.031 212.856 277.291 213.455 277.989 215.015C278.296 216.104 278.082 217.092 277.631 218.107C277.004 218.891 276.259 219.625 275.231 219.748C273.444 219.807 272.024 219.344 270.372 218.7C270.12 218.605 269.868 218.51 269.609 218.413C268.994 218.181 268.381 217.946 267.769 217.708C267.686 218.129 267.686 218.129 267.602 218.559C267.339 219.738 266.924 220.823 266.46 221.937C266.375 222.144 266.289 222.351 266.201 222.565C265.293 224.728 264.245 226.818 263.17 228.903C262.861 229.503 262.559 230.106 262.259 230.711C262.376 230.76 262.492 230.809 262.613 230.86C263.325 231.253 263.918 231.767 264.532 232.295C264.658 232.403 264.785 232.511 264.916 232.623C267.696 235.018 267.696 235.018 267.821 236.328C267.856 237.658 267.834 238.505 266.887 239.526C266.099 240.257 265.458 240.48 264.408 240.545C261.833 240.431 260.04 238.349 258.292 236.661C257.584 237.348 256.932 238.056 256.299 238.811C253.825 241.755 251.113 244.679 248.057 247.026C247.519 247.44 246.992 247.866 246.465 248.294C232.773 259.258 215.284 264.471 198.127 266.634C197.899 266.663 197.67 266.693 197.435 266.724C177.77 269.247 156.609 268.775 137.3 263.989C136.957 263.905 136.957 263.905 136.607 263.82C130.906 262.414 125.323 260.527 119.99 258.067C119.485 257.834 118.977 257.607 118.468 257.382C112.924 254.889 107.619 251.532 102.92 247.68C102.701 247.506 102.483 247.332 102.257 247.153C100.541 245.756 98.9622 244.214 97.3912 242.658C97.1512 242.42 96.9108 242.183 96.6698 241.946C94.9908 240.293 93.5121 238.563 92.1212 236.661C91.2466 237.233 90.4797 237.811 89.7245 238.534C88.2859 239.838 87.1457 240.586 85.1558 240.491C84.1616 240.334 83.4726 239.97 82.7953 239.194C82.1354 238.205 81.9853 237.163 82.2039 236C82.6324 234.932 83.2359 234.239 84.0909 233.493C84.2065 233.39 84.322 233.286 84.4411 233.18C85.4987 232.242 86.595 231.354 87.7135 230.49C87.4303 229.75 87.1108 229.059 86.7286 228.366C85.1389 225.43 83.8133 222.459 82.6346 219.335C82.4407 218.851 82.2244 218.391 81.9835 217.928C81.8336 217.982 81.6838 218.035 81.5294 218.09C80.8416 218.333 80.1523 218.572 79.4628 218.81C79.2272 218.894 78.9915 218.978 78.7487 219.065C77.1118 219.625 75.6882 220.03 73.9945 219.443C73.0733 218.815 72.4256 218.125 72.0661 217.047C71.985 215.809 72.0186 215.024 72.7273 213.961C73.755 212.97 74.7626 212.512 76.1019 212.047C76.3676 211.949 76.3676 211.949 76.6387 211.85C77.8193 211.427 78.9918 211.126 80.2204 210.876C80.1803 210.736 80.1403 210.596 80.099 210.452C79.5115 208.271 79.1954 206.06 78.8981 203.824C78.8533 203.49 78.8533 203.49 78.8077 203.149C78.5894 201.181 78.6593 199.189 78.6777 197.212C78.4513 197.244 78.2248 197.276 77.9916 197.308C72.8434 198.009 72.8434 198.009 71.405 196.992C70.5438 196.083 70.138 195.286 70 194.044C70.1282 192.804 70.6049 192.043 71.5014 191.193C73.5798 189.824 76.486 189.849 78.8981 189.939C78.9066 189.637 78.9066 189.637 78.9153 189.329C79.3566 177.844 82.9384 163.237 89.145 153.352C90.795 150.639 91.1365 148.286 91.1971 145.139C91.2177 144.088 91.2615 143.038 91.304 141.988C91.3253 141.458 91.3456 140.928 91.3648 140.398C91.4494 138.127 91.6274 135.875 91.8733 133.617C91.8918 133.445 91.9104 133.274 91.9295 133.097C92.0587 131.915 92.1982 130.734 92.3416 129.554C92.3617 129.386 92.3818 129.219 92.4024 129.047C93.7513 117.833 95.3851 105.886 100.275 95.6143C100.377 95.3971 100.377 95.3971 100.481 95.1755C101.761 92.4832 103.478 90.2549 106.309 89.1542C112.668 87.9482 120.032 93.2403 125.021 96.616ZM108.209 96.7162C100.574 110.677 98.7229 130.016 98.4762 145.733C98.4733 145.89 98.4703 146.047 98.4673 146.208C98.453 146.965 98.4437 147.721 98.4447 148.478C98.3981 151.626 97.2025 154.101 95.7576 156.84C90.6699 166.707 86.4538 178.536 86.6116 189.719C86.7671 189.727 86.9226 189.734 87.0828 189.742C105.339 190.686 105.339 190.686 108.554 194.058C109.097 195.309 109.231 196.295 108.843 197.611C108.333 198.479 107.783 198.968 106.887 199.416C105.377 199.546 104.039 199.315 102.59 198.92C97.2533 197.57 91.6754 196.918 86.1708 196.992C86.046 200.992 86.484 204.975 87.2727 208.892C89.0417 208.756 90.7821 208.519 92.5344 208.245C96.2615 207.685 99.9055 207.313 103.678 207.267C103.954 207.261 104.229 207.256 104.513 207.25C106.981 207.245 106.981 207.245 107.989 208.231C108.622 209.042 108.736 209.637 108.719 210.656C108.718 210.878 108.717 211.101 108.716 211.331C108.648 211.996 108.505 212.482 108.209 213.08C107.837 213.342 107.837 213.342 107.328 213.521C107.123 213.593 106.918 213.666 106.706 213.741C105.461 214.092 104.164 214.079 102.879 214.14C100.201 214.293 97.5591 214.579 94.9036 214.953C94.7329 214.977 94.5623 215.001 94.3864 215.025C92.7262 215.258 91.0994 215.519 89.4766 215.945C89.6044 217.282 90.1402 218.421 90.6749 219.636C90.7718 219.858 90.8686 220.08 90.9684 220.309C91.8893 222.38 92.9584 224.349 94.1047 226.303C95.2433 226.178 96.1237 225.621 97.1074 225.077C99.0448 224.032 101.014 223.142 103.057 222.326C103.597 222.109 104.134 221.887 104.672 221.664C105.025 221.52 105.377 221.377 105.73 221.234C105.89 221.167 106.05 221.1 106.215 221.032C107.365 220.575 108.377 220.369 109.604 220.719C110.339 221.087 110.79 221.37 111.295 222.033C111.669 223.295 111.776 224.596 111.212 225.821C110.171 227.317 107.824 227.898 106.198 228.576C104.179 229.428 102.223 230.369 100.275 231.372C99.6885 231.667 99.1005 231.96 98.5124 232.253C98.8493 233.345 99.4906 234.06 100.234 234.898C100.361 235.042 100.488 235.187 100.619 235.335C102.619 237.587 104.719 239.669 107.107 241.51C107.296 241.657 107.296 241.657 107.488 241.808C121.187 252.518 138.27 257.414 155.303 259.416C155.582 259.449 155.861 259.483 156.148 259.517C162.068 260.169 167.993 260.326 173.942 260.312C174.5 260.311 175.058 260.311 175.616 260.31C181.376 260.301 187.104 260.187 192.837 259.581C193.018 259.562 193.198 259.544 193.384 259.525C205.587 258.249 217.625 255.583 228.76 250.325C228.954 250.234 229.148 250.144 229.348 250.051C233.681 248.016 237.701 245.458 241.543 242.611C241.677 242.512 241.811 242.413 241.949 242.311C245.652 239.545 248.838 236.335 251.68 232.694C249.564 230.249 244.848 228.851 241.908 227.679C239.441 226.693 239.441 226.693 238.678 225.421C238.308 224.313 238.324 223.363 238.719 222.281C239.298 221.403 239.883 220.906 240.882 220.573C242.741 220.455 244.267 221.208 245.95 221.895C246.168 221.983 246.385 222.07 246.609 222.16C249.742 223.426 252.743 224.793 255.647 226.523C256.438 225.608 257.001 224.639 257.562 223.576C257.704 223.308 257.704 223.308 257.848 223.034C258.987 220.821 259.856 218.498 260.716 216.165C259.957 215.659 259.461 215.592 258.562 215.456C258.414 215.433 258.266 215.411 258.114 215.387C257.632 215.314 257.149 215.244 256.667 215.173C256.502 215.149 256.338 215.125 256.168 215.1C253.124 214.649 250.076 214.242 246.997 214.139C246.808 214.132 246.618 214.125 246.422 214.117C246.067 214.106 245.711 214.098 245.355 214.095C244.143 214.058 243.43 213.763 242.424 213.08C241.631 212.207 241.476 211.403 241.495 210.228C241.6 209.228 242.033 208.61 242.755 207.942C246.55 205.38 256.377 207.973 260.652 208.779C261.35 208.888 261.995 208.901 262.7 208.892C262.843 207.91 262.985 206.927 263.127 205.945C263.167 205.669 263.207 205.393 263.249 205.109C263.561 202.939 263.842 200.811 263.815 198.617C263.814 198.38 263.814 198.38 263.812 198.137C263.81 197.756 263.806 197.374 263.802 196.992C258.209 196.731 252.228 197.594 246.852 199.114C245.344 199.537 243.972 199.749 242.534 199.03C241.545 198.14 241.144 197.501 241.033 196.151C241.05 194.965 241.599 194.28 242.434 193.468C243.312 192.87 244.185 192.641 245.207 192.377C245.418 192.322 245.63 192.266 245.848 192.208C251.646 190.727 257.607 189.963 263.581 189.719C263.631 187.939 263.493 186.232 263.237 184.471C263.198 184.206 263.16 183.94 263.12 183.667C262.389 178.892 261.194 174.226 259.614 169.664C259.504 169.341 259.504 169.341 259.392 169.011C257.724 164.123 255.682 159.446 253.295 154.865C252.035 152.415 251.595 150.463 251.57 147.708C251.558 147.096 251.542 146.484 251.525 145.872C251.521 145.711 251.517 145.551 251.512 145.385C251.084 131.008 249.438 114.747 243.967 101.344C243.85 101.058 243.85 101.058 243.732 100.767C243.476 100.149 243.213 99.534 242.948 98.92C242.866 98.726 242.783 98.5319 242.699 98.332C242.619 98.1533 242.539 97.9746 242.457 97.7906C242.387 97.6309 242.317 97.4712 242.245 97.3067C242.008 96.9001 242.008 96.9001 241.545 96.7641C238.104 96.3921 232.543 101.077 229.862 102.887C229.7 102.995 229.539 103.104 229.372 103.215C225.847 105.579 222.495 108.158 219.355 111.017C218.905 111.426 218.449 111.827 217.989 112.226C215.539 114.355 215.539 114.355 213.327 116.721C212.616 117.525 211.843 118.267 211.08 119.02C210.412 119.683 209.769 120.352 209.16 121.069C208.936 121.327 208.711 121.584 208.485 121.84C208.383 121.956 208.281 122.072 208.177 122.191C207.546 122.818 207.05 123.009 206.19 123.019C204.781 122.988 203.525 122.578 202.19 122.157C197.711 120.815 193.143 119.861 188.526 119.127C188.325 119.094 188.124 119.062 187.917 119.028C183.667 118.396 179.387 118.23 175.096 118.245C174.858 118.246 174.619 118.246 174.374 118.246C170.353 118.258 166.411 118.428 162.424 118.975C162.018 119.03 162.018 119.03 161.603 119.086C156.504 119.801 151.489 120.98 146.57 122.501C145.321 122.877 144.329 123.134 143.03 122.942C141.797 122.259 140.93 121.29 139.986 120.256C139.673 119.918 139.36 119.58 139.046 119.242C138.822 119 138.822 119 138.594 118.754C138.096 118.223 137.585 117.708 137.066 117.198C136.503 116.645 135.977 116.081 135.468 115.477C134.519 114.372 133.432 113.418 132.35 112.448C132.027 112.157 131.707 111.863 131.387 111.568C130.02 110.309 128.611 109.12 127.163 107.956C126.916 107.752 126.669 107.549 126.422 107.345C118.078 100.287 118.078 100.287 108.209 96.7162Z" fill="black"/>
<path d="M184.118 194.416C185.32 195.569 185.599 196.534 185.675 198.162C185.621 200.195 184.757 201.693 183.393 203.161C181.871 204.586 180.152 205.754 178.292 206.689C178.186 208.884 178.622 210.912 180.055 212.639C181.967 214.446 184.227 215.153 186.816 215.124C188.828 214.956 190.907 214.262 192.397 212.859C193.346 211.654 193.831 210.404 194.224 208.936C194.493 208.101 194.956 207.579 195.647 207.06C196.702 206.738 197.602 206.804 198.623 207.157C199.384 207.676 199.714 208.055 200.11 208.892C200.533 211.313 199.435 213.652 198.104 215.609C195.784 218.699 192.238 220.653 188.43 221.234C184.196 221.495 180.148 220.759 176.836 217.936C176.198 217.366 175.587 216.774 174.986 216.165C174.887 216.275 174.788 216.384 174.686 216.497C171.728 219.62 167.828 221.205 163.554 221.33C159.574 221.295 156.128 219.765 153.299 216.98C151.17 214.767 149.982 212.457 150.006 209.365C150.12 208.333 150.389 208.004 151.185 207.35C152.033 206.808 152.801 206.894 153.767 206.98C154.476 207.191 154.851 207.484 155.372 208.011C155.592 208.555 155.759 209.047 155.909 209.609C156.538 211.683 157.384 212.985 159.249 214.126C161.508 215.303 163.9 215.385 166.336 214.705C168.496 213.964 170.15 212.858 171.171 210.779C171.645 209.404 171.742 207.908 171.901 206.468C171.712 206.414 171.522 206.36 171.327 206.305C168.69 205.329 166.105 203.031 164.849 200.518C164.24 198.925 164.135 197.239 164.812 195.65C165.871 193.909 167.702 193.089 169.596 192.605C174.077 191.625 180.361 191.373 184.118 194.416Z" fill="black"/>
<path d="M232.989 200.683C235.446 202.739 237.342 205.682 237.796 208.892C237.964 211.194 238.026 213.561 237.135 215.724C237.046 215.941 236.958 216.157 236.866 216.38C236.111 218.04 235.123 219.297 233.829 220.573C233.689 220.716 233.548 220.859 233.403 221.006C230.851 223.431 227.232 224.474 223.767 224.423C220.153 224.265 216.89 222.756 214.285 220.266C212.712 218.495 211.555 216.465 210.909 214.182C210.86 214.023 210.811 213.864 210.76 213.7C209.905 210.533 210.614 207.381 212.066 204.512C212.774 203.347 213.706 202.369 214.656 201.399C214.77 201.277 214.885 201.154 215.003 201.028C219.962 196.225 227.787 196.762 232.989 200.683Z" fill="#F4A99C"/>
<path d="M134.738 200.697C137.276 202.865 139.213 205.96 139.547 209.328C139.834 213.301 138.746 216.698 136.129 219.733C133.567 222.457 130.396 224.072 126.649 224.38C122.566 224.499 119.168 223.196 116.197 220.397C116.034 220.237 115.871 220.077 115.702 219.912C115.578 219.792 115.453 219.673 115.324 219.55C113.031 217.141 112.205 213.76 112.08 210.532C112.18 206.998 113.863 203.568 116.418 201.151C121.791 196.612 129.15 196.469 134.738 200.697Z" fill="#F4A99C"/>
<path d="M115.262 108.837C115.936 109.103 116.493 109.477 117.08 109.898C117.24 110.007 117.4 110.117 117.565 110.229C118.052 110.566 118.531 110.912 119.008 111.262C119.15 111.365 119.291 111.469 119.436 111.575C122.172 113.608 124.599 115.955 127.011 118.355C127.198 118.541 127.385 118.727 127.578 118.919C128.542 119.886 129.47 120.869 130.36 121.905C130.897 122.519 131.487 123.073 132.077 123.634C132.644 124.254 132.869 124.741 132.975 125.573C132.869 126.445 132.618 126.715 132.011 127.35C131.452 127.726 130.86 128.032 130.262 128.342C128.496 129.288 126.791 130.309 125.094 131.373C124.117 131.985 123.137 132.588 122.141 133.168C119.096 134.947 116.241 137.037 113.465 139.208C110.429 141.548 110.429 141.548 108.364 141.532C107.769 141.454 107.769 141.454 107.094 140.959C105.72 139.008 106.198 136.891 106.584 134.65C106.896 132.755 107.173 130.86 107.414 128.954C109.489 112.609 109.489 112.609 112.438 109.154C113.37 108.678 114.234 108.703 115.262 108.837Z" fill="#F4A99C"/>
<path d="M236.915 108.837C238.666 109.799 239.323 111.785 239.89 113.605C241.501 119.174 242.148 125.046 242.952 130.772C243.022 131.268 243.092 131.764 243.163 132.26C244.16 139.285 244.16 139.285 243.086 140.793C242.394 141.374 241.926 141.647 241.033 141.799C239.261 141.528 238.039 140.44 236.71 139.298C235.097 137.925 233.358 136.72 231.626 135.504C231.491 135.409 231.356 135.313 231.217 135.215C228.694 133.438 226.003 131.945 223.327 130.416C222.16 129.748 220.996 129.075 219.835 128.397C219.63 128.278 219.424 128.16 219.213 128.038C219.025 127.928 218.837 127.818 218.643 127.704C218.479 127.609 218.315 127.513 218.145 127.415C217.741 127.129 217.741 127.129 217.3 126.468C217.21 125.599 217.312 124.794 217.805 124.063C218.18 123.66 218.569 123.293 218.981 122.928C219.251 122.678 219.52 122.428 219.788 122.177C219.993 121.987 219.993 121.987 220.203 121.793C220.602 121.403 220.966 120.999 221.329 120.575C222.247 119.504 223.241 118.511 224.24 117.516C224.559 117.199 224.877 116.88 225.194 116.561C227.476 114.277 229.914 112.298 232.507 110.38C232.631 110.287 232.755 110.195 232.883 110.1C234.155 109.164 235.298 108.406 236.915 108.837Z" fill="#F4A99C"/>
<path d="M141.253 179.058C143.421 180.216 144.886 182.091 145.661 184.43C146.332 187.324 146.215 190.598 144.656 193.162C143.547 194.71 142.102 196.207 140.165 196.551C137.969 196.799 136.428 196.447 134.664 195.125C132.87 193.527 131.901 191.069 131.735 188.715C131.612 185.715 132.182 182.992 134.215 180.683C136.148 178.709 138.56 177.945 141.253 179.058Z" fill="black"/>
<path d="M214.105 179.044C216.41 180.469 217.572 182.611 218.242 185.169C218.778 187.857 218.463 190.832 217.066 193.217C215.963 194.8 214.56 196.054 212.672 196.551C210.788 196.744 209.23 196.622 207.706 195.466C205.688 193.742 204.487 191.935 204.257 189.243C204.066 185.937 204.531 183.286 206.722 180.683C207.147 180.233 207.525 179.941 208.044 179.581C208.162 179.495 208.28 179.409 208.402 179.32C209.995 178.328 212.405 178.277 214.105 179.044Z" fill="black"/>
</svg>
