<svg width="185" height="159" viewBox="0 0 185 159" fill="none" xmlns="http://www.w3.org/2000/svg">
<path d="M48.4712 6.876C51.6202 9.03696 54.6557 11.3617 57.4803 13.9347C57.864 14.2827 58.2525 14.623 58.6452 14.9608C64.1394 19.75 64.1394 19.75 65.5459 21.8887C65.7846 22.2681 65.7846 22.2681 66.2777 22.6904C67.6892 22.6383 68.98 22.2549 70.3306 21.8652C77.392 19.9005 84.7358 19.1091 92.051 19.1471C92.3684 19.1481 92.3684 19.1481 92.6922 19.1491C101.599 19.1819 110.12 20.5338 118.698 22.8845C119.107 22.4478 119.515 22.0109 119.924 21.574C120.11 21.3749 120.11 21.3749 120.3 21.1717C120.862 20.5708 121.422 19.9693 121.97 19.3557C123.275 17.8981 124.668 16.5662 126.112 15.2471C126.44 14.9461 126.767 14.643 127.093 14.3389C128.331 13.1865 129.603 12.0912 130.929 11.0414C131.114 10.8947 131.298 10.7481 131.488 10.597C145.321 -0.236953 145.321 -0.236953 152.099 0.0894012C153.873 0.335169 155.186 1.16389 156.363 2.49882C164.589 13.8245 166.869 35.3956 166.417 49.0863C166.344 52.7422 167.123 55.1532 169.006 58.3452C173.827 66.9349 177.331 79.1255 177.331 89.0894C177.512 89.0989 177.693 89.1084 177.879 89.1182C182.838 89.409 182.838 89.409 183.932 90.4484C184.533 91.1715 184.96 91.8459 185 92.8025C184.86 93.8869 184.553 94.5581 183.726 95.2658C182.11 96.4688 179.768 95.8563 177.879 95.5813C177.698 95.5532 177.518 95.5252 177.331 95.4963C177.338 95.7041 177.345 95.9118 177.352 96.1258C177.435 99.9656 176.905 103.772 176.166 107.534C176.272 107.554 176.377 107.574 176.486 107.595C177.603 107.826 178.638 108.158 179.697 108.577C179.846 108.634 179.995 108.69 180.149 108.749C181.503 109.278 182.613 109.806 183.228 111.18C183.499 112.14 183.31 113.01 182.913 113.904C182.361 114.594 181.704 115.241 180.799 115.349C179.224 115.401 177.974 114.994 176.518 114.426C176.296 114.343 176.074 114.259 175.846 114.173C175.304 113.969 174.764 113.762 174.225 113.552C174.152 113.923 174.152 113.923 174.078 114.302C173.846 115.341 173.48 116.297 173.072 117.277C172.997 117.46 172.921 117.643 172.844 117.831C172.044 119.737 171.121 121.578 170.174 123.414C169.901 123.943 169.635 124.475 169.371 125.007C169.474 125.05 169.577 125.094 169.683 125.138C170.31 125.485 170.832 125.937 171.373 126.402C171.485 126.498 171.597 126.593 171.712 126.692C174.161 128.802 174.161 128.802 174.271 129.956C174.302 131.127 174.282 131.873 173.448 132.773C172.754 133.417 172.19 133.613 171.264 133.671C168.996 133.57 167.417 131.736 165.876 130.249C165.253 130.854 164.678 131.478 164.12 132.143C161.941 134.736 159.552 137.313 156.859 139.38C156.386 139.745 155.921 140.12 155.457 140.497C143.395 150.156 127.989 154.749 112.874 156.653C112.673 156.68 112.472 156.706 112.265 156.733C94.9399 158.956 76.2986 158.54 59.2883 154.324C58.9858 154.25 58.9858 154.25 58.6772 154.175C53.6555 152.936 48.7368 151.274 44.0388 149.107C43.5936 148.902 43.1465 148.702 42.6984 148.503C37.8139 146.307 33.1403 143.35 29.001 139.957C28.8083 139.803 28.6156 139.65 28.4171 139.492C26.9049 138.261 25.5143 136.902 24.1304 135.532C23.9189 135.322 23.7071 135.113 23.4948 134.905C22.0157 133.449 20.713 131.924 19.4877 130.249C18.7172 130.753 18.0416 131.262 17.3764 131.899C16.109 133.047 15.1046 133.707 13.3516 133.623C12.4757 133.485 11.8687 133.164 11.272 132.48C10.6907 131.609 10.5585 130.692 10.751 129.667C11.1285 128.725 11.6602 128.115 12.4134 127.458C12.5152 127.367 12.617 127.276 12.7219 127.182C13.6536 126.356 14.6194 125.574 15.6047 124.813C15.3553 124.161 15.0738 123.552 14.7371 122.941C13.3366 120.355 12.1688 117.737 11.1305 114.986C10.9597 114.559 10.7691 114.154 10.5569 113.746C10.4249 113.793 10.2929 113.84 10.1569 113.889C9.55096 114.103 8.94367 114.313 8.33628 114.523C8.12869 114.597 7.92109 114.671 7.7072 114.747C6.26514 115.241 5.01107 115.598 3.51896 115.081C2.70747 114.528 2.13688 113.92 1.82015 112.97C1.74865 111.879 1.7783 111.188 2.4026 110.252C3.30799 109.378 4.19564 108.974 5.37551 108.565C5.60957 108.479 5.60957 108.479 5.84837 108.392C6.88847 108.019 7.92131 107.754 9.00367 107.534C8.96838 107.41 8.9331 107.287 8.89674 107.16C8.37921 105.239 8.10074 103.291 7.83878 101.321C7.79936 101.026 7.79936 101.026 7.75915 100.726C7.56684 98.9928 7.62839 97.2377 7.64463 95.4963C7.44516 95.5244 7.2457 95.5524 7.04019 95.5813C2.50494 96.1985 2.50494 96.1985 1.2377 95.3022C0.479096 94.5014 0.121578 93.7996 0 92.7054C0.112965 91.6134 0.532894 90.9429 1.32264 90.1936C3.15359 88.9879 5.71384 89.0099 7.83878 89.0894C7.84629 88.8232 7.84629 88.8232 7.85395 88.5517C8.24268 78.4342 11.3981 65.566 16.8659 56.858C18.3194 54.4676 18.6203 52.3946 18.6737 49.6225C18.6918 48.6965 18.7304 47.7716 18.7678 46.8462C18.7866 46.3793 18.8045 45.9124 18.8214 45.4454C18.8959 43.4452 19.0527 41.4616 19.2693 39.4721C19.2857 39.3208 19.302 39.1696 19.3189 39.0137C19.4327 37.9724 19.5556 36.9323 19.6819 35.8925C19.6996 35.7451 19.7173 35.5977 19.7355 35.4459C20.9238 25.5668 22.363 15.0422 26.6713 5.99351C26.7609 5.8022 26.7609 5.8022 26.8524 5.60701C27.9801 3.23524 29.4928 1.27214 31.9861 0.30251C37.588 -0.759927 44.0757 3.90215 48.4712 6.876ZM33.6606 6.96426C26.9339 19.2631 25.3035 36.2996 25.0862 50.1458C25.0836 50.284 25.081 50.4222 25.0783 50.5646C25.0657 51.2313 25.0575 51.8969 25.0584 52.5638C25.0174 55.3376 23.9641 57.5172 22.6912 59.9306C18.2092 68.6225 14.495 79.0434 14.634 88.8953C14.771 88.9019 14.908 88.9086 15.0492 88.9155C31.1317 89.7471 31.1317 89.7471 33.964 92.7176C34.4423 93.8198 34.5611 94.6883 34.2188 95.8482C33.7691 96.6127 33.2848 97.0433 32.4957 97.4378C31.1657 97.5526 29.9865 97.3488 28.7098 97.001C24.0088 95.8114 19.095 95.2377 14.2457 95.3022C14.1358 98.826 14.5216 102.335 15.2165 105.786C16.7748 105.666 18.3081 105.457 19.8518 105.216C23.1351 104.722 26.3453 104.395 29.6684 104.354C29.9114 104.349 30.1544 104.344 30.4047 104.339C32.5783 104.335 32.5783 104.335 33.4665 105.204C34.0242 105.918 34.1245 106.442 34.1096 107.339C34.1089 107.536 34.1081 107.732 34.1073 107.934C34.0473 108.52 33.9207 108.948 33.6606 109.475C33.333 109.706 33.333 109.706 32.884 109.863C32.7033 109.927 32.5226 109.992 32.3365 110.058C31.2391 110.367 30.0969 110.355 28.9646 110.409C26.6058 110.544 24.2782 110.796 21.9389 111.125C21.7885 111.146 21.6382 111.167 21.4833 111.189C20.0207 111.394 18.5876 111.624 17.1579 111.999C17.2706 113.177 17.7426 114.18 18.2136 115.251C18.2989 115.447 18.3843 115.642 18.4721 115.843C19.2834 117.668 20.2252 119.403 21.2351 121.124C22.2381 121.014 23.0138 120.523 23.8804 120.044C25.5871 119.124 27.3216 118.34 29.1213 117.621C29.5972 117.43 30.0708 117.234 30.5444 117.037C30.855 116.911 31.1657 116.785 31.4765 116.659C31.6175 116.6 31.7585 116.541 31.9039 116.48C32.9168 116.078 33.8087 115.897 34.8892 116.205C35.5365 116.529 35.9339 116.779 36.3787 117.362C36.7082 118.474 36.8029 119.621 36.3059 120.699C35.3891 122.017 33.3216 122.53 31.889 123.126C30.1102 123.877 28.3872 124.706 26.6713 125.589C26.1541 125.85 25.6361 126.108 25.1181 126.366C25.4149 127.328 25.9798 127.958 26.6349 128.696C26.7467 128.823 26.8585 128.95 26.9738 129.081C28.7361 131.065 30.5855 132.899 32.6899 134.52C32.856 134.65 32.856 134.65 33.0254 134.783C45.0937 144.218 60.1428 148.531 75.1479 150.295C75.3937 150.324 75.6394 150.354 75.8926 150.384C81.1074 150.959 86.3268 151.097 91.5683 151.085C92.0597 151.084 92.5511 151.083 93.0425 151.083C98.1174 151.075 103.163 150.974 108.214 150.441C108.373 150.424 108.532 150.408 108.695 150.391C119.445 149.267 130.051 146.918 139.86 142.286C140.031 142.207 140.202 142.127 140.378 142.045C144.195 140.253 147.736 137.999 151.121 135.491C151.239 135.404 151.357 135.316 151.479 135.226C154.741 132.79 157.547 129.962 160.052 126.754C158.188 124.6 154.032 123.369 151.443 122.336C149.269 121.468 149.269 121.468 148.597 120.347C148.272 119.371 148.285 118.534 148.633 117.581C149.143 116.807 149.659 116.369 150.538 116.076C152.177 115.972 153.521 116.635 155.004 117.241C155.195 117.318 155.387 117.395 155.584 117.475C158.344 118.589 160.988 119.794 163.547 121.318C164.243 120.512 164.739 119.658 165.233 118.721C165.358 118.485 165.358 118.485 165.485 118.245C166.488 116.295 167.254 114.248 168.012 112.193C167.343 111.747 166.906 111.688 166.114 111.568C165.984 111.548 165.854 111.528 165.719 111.508C165.295 111.443 164.87 111.381 164.444 111.32C164.3 111.298 164.155 111.277 164.005 111.254C161.323 110.858 158.639 110.499 155.926 110.408C155.759 110.402 155.592 110.396 155.42 110.389C155.107 110.379 154.793 110.372 154.48 110.369C153.412 110.337 152.784 110.077 151.898 109.475C151.198 108.706 151.062 107.998 151.079 106.963C151.171 106.082 151.552 105.538 152.189 104.949C155.532 102.692 164.189 104.976 167.955 105.686C168.57 105.782 169.139 105.793 169.759 105.786C169.885 104.921 170.01 104.055 170.135 103.189C170.171 102.946 170.206 102.703 170.243 102.453C170.518 100.541 170.766 98.6673 170.742 96.734C170.741 96.5249 170.741 96.5249 170.74 96.3116C170.737 95.9751 170.734 95.6386 170.73 95.3022C165.803 95.0724 160.534 95.8326 155.798 97.1716C154.47 97.5442 153.261 97.7313 151.995 97.0981C151.123 96.3137 150.769 95.7508 150.672 94.562C150.687 93.5165 151.171 92.9134 151.906 92.1981C152.68 91.6715 153.448 91.4694 154.349 91.2372C154.535 91.1881 154.722 91.1389 154.914 91.0883C160.022 89.7835 165.273 89.1105 170.536 88.8953C170.58 87.3268 170.458 85.8236 170.233 84.2721C170.199 84.0383 170.165 83.8045 170.13 83.5636C169.486 79.3569 168.433 75.2465 167.041 71.2277C166.944 70.9431 166.944 70.9431 166.846 70.6528C165.376 66.3464 163.577 62.226 161.474 58.1909C160.364 56.0319 159.977 54.313 159.955 51.8855C159.944 51.3463 159.93 50.8071 159.915 50.2679C159.911 50.1265 159.908 49.9852 159.904 49.8396C159.526 37.1741 158.077 22.8489 153.257 11.0414C153.154 10.7896 153.154 10.7896 153.049 10.5327C152.824 9.98816 152.593 9.4466 152.359 8.90575C152.286 8.73479 152.214 8.56382 152.14 8.38767C152.069 8.23028 151.999 8.07289 151.926 7.91074C151.865 7.77008 151.803 7.62943 151.739 7.48452C151.531 7.1263 151.531 7.1263 151.123 7.00649C148.091 6.67876 143.192 10.8061 140.831 12.4004C140.689 12.4959 140.546 12.5914 140.399 12.6898C137.294 14.7723 134.341 17.0438 131.575 19.5627C131.178 19.923 130.776 20.2766 130.371 20.6275C128.213 22.5028 128.213 22.5028 126.265 24.5879C125.638 25.2955 124.957 25.9491 124.284 26.6131C123.696 27.1965 123.13 27.7861 122.593 28.4178C122.396 28.645 122.198 28.8716 121.999 29.0973C121.909 29.1994 121.819 29.3015 121.727 29.4067C121.172 29.9591 120.734 30.1268 119.977 30.1355C118.736 30.1088 117.629 29.747 116.453 29.3764C112.507 28.1944 108.483 27.3534 104.416 26.7068C104.239 26.6782 104.062 26.6496 103.88 26.6202C100.135 26.0634 96.3651 25.9168 92.5849 25.9302C92.3748 25.9306 92.1647 25.9309 91.9482 25.9313C88.4062 25.9413 84.9336 26.0914 81.4214 26.5733C81.0634 26.6218 81.0634 26.6218 80.6982 26.6712C76.2056 27.3013 71.7877 28.3397 67.4547 29.6797C66.354 30.0111 65.4802 30.2368 64.3362 30.068C63.2496 29.4661 62.4861 28.6125 61.6545 27.7018C61.3787 27.4038 61.1026 27.106 60.8264 26.8084C60.6291 26.5955 60.6291 26.5955 60.4278 26.3782C59.9897 25.9106 59.5391 25.4572 59.0821 25.008C58.5859 24.5202 58.1224 24.0234 57.6745 23.4912C56.8386 22.5182 55.8807 21.678 54.9273 20.8236C54.6426 20.5672 54.3607 20.3077 54.0789 20.0481C52.8747 18.9387 51.6335 17.8914 50.3575 16.8659C50.1399 16.6866 49.9225 16.5071 49.7052 16.3274C42.3547 10.1102 42.3547 10.1102 33.6606 6.96426Z" fill="black"/>
<path d="M100.533 93.033C101.592 94.049 101.837 94.8987 101.904 96.3336C101.857 98.1238 101.095 99.4436 99.8936 100.737C98.5529 101.992 97.0391 103.021 95.4001 103.845C95.3065 105.779 95.691 107.565 96.9533 109.087C98.6373 110.679 100.629 111.301 102.909 111.276C104.682 111.128 106.514 110.516 107.826 109.281C108.662 108.219 109.089 107.117 109.436 105.825C109.672 105.089 110.08 104.629 110.689 104.172C111.618 103.889 112.412 103.946 113.31 104.257C113.981 104.714 114.272 105.049 114.621 105.786C114.993 107.919 114.026 109.98 112.853 111.703C110.809 114.425 107.685 116.147 104.331 116.659C100.602 116.889 97.035 116.24 94.1177 113.753C93.5555 113.251 93.0172 112.729 92.4879 112.193C92.4005 112.29 92.3132 112.386 92.2232 112.485C89.6176 115.237 86.1814 116.633 82.4164 116.744C78.9101 116.712 75.8743 115.364 73.3824 112.911C71.5066 110.961 70.4601 108.926 70.4815 106.203C70.5821 105.293 70.8189 105.003 71.5198 104.427C72.2673 103.95 72.9435 104.026 73.795 104.101C74.4197 104.287 74.7497 104.545 75.2086 105.01C75.4025 105.489 75.5497 105.923 75.6818 106.417C76.2362 108.244 76.9812 109.391 78.6244 110.397C80.6144 111.433 82.7212 111.505 84.8675 110.907C86.7702 110.254 88.2277 109.28 89.1267 107.449C89.544 106.237 89.6294 104.919 89.7698 103.651C89.6031 103.603 89.4364 103.555 89.2647 103.506C86.9415 102.647 84.6641 100.623 83.557 98.4086C83.0212 97.0053 82.9287 95.5198 83.5252 94.1206C84.4581 92.5866 86.0706 91.8643 87.7396 91.4374C91.6871 90.5742 97.2226 90.3524 100.533 93.033Z" fill="black"/>
<path d="M143.586 98.5542C145.75 100.365 147.42 102.958 147.82 105.786C147.968 107.814 148.023 109.899 147.238 111.805C147.16 111.995 147.082 112.186 147.001 112.382C146.336 113.845 145.465 114.952 144.326 116.076C144.202 116.202 144.078 116.328 143.95 116.458C141.702 118.594 138.514 119.513 135.462 119.468C132.277 119.329 129.403 117.999 127.108 115.806C125.723 114.246 124.703 112.458 124.134 110.446C124.091 110.306 124.048 110.166 124.003 110.021C123.249 107.232 123.874 104.455 125.153 101.928C125.777 100.901 126.598 100.04 127.435 99.1852C127.536 99.0773 127.636 98.9694 127.74 98.8583C132.11 94.6267 139.003 95.0998 143.586 98.5542Z" fill="#F4A99C"/>
<path d="M57.0313 98.5663C59.2672 100.476 60.9733 103.203 61.2679 106.17C61.5205 109.67 60.5619 112.662 58.2569 115.336C55.9995 117.736 53.2057 119.159 49.9047 119.43C46.3082 119.535 43.3146 118.387 40.6978 115.921C40.5539 115.78 40.41 115.639 40.2617 115.494C40.1518 115.389 40.042 115.283 39.9288 115.175C37.9085 113.053 37.1808 110.074 37.0704 107.23C37.1582 104.117 38.6413 101.096 40.8919 98.9667C45.6251 94.9682 52.1082 94.8419 57.0313 98.5663Z" fill="#F4A99C"/>
<path d="M39.8734 17.6425C40.4674 17.8764 40.9578 18.2059 41.4751 18.5768C41.6161 18.6732 41.757 18.7695 41.9023 18.8688C42.331 19.1657 42.7533 19.4698 43.1739 19.7781C43.2984 19.8693 43.4228 19.9605 43.551 20.0544C45.961 21.8453 48.0993 23.9125 50.224 26.0273C50.3887 26.1911 50.5534 26.3549 50.7231 26.5236C51.5729 27.3756 52.3904 28.2421 53.1746 29.1548C53.6473 29.6954 54.1672 30.1834 54.6871 30.6778C55.1861 31.2237 55.3846 31.6532 55.4782 32.3857C55.3841 33.154 55.1629 33.3915 54.6287 33.951C54.1357 34.2827 53.615 34.5518 53.0877 34.8247C51.532 35.6582 50.0302 36.5583 48.5348 37.495C47.674 38.034 46.8109 38.5652 45.9334 39.0765C43.251 40.644 40.7359 42.4851 38.2906 44.3971C35.616 46.4591 35.616 46.4591 33.7971 46.4448C33.2723 46.3766 33.2723 46.3766 32.6777 45.9397C31.4672 44.2215 31.8888 42.3565 32.2288 40.3822C32.5031 38.7127 32.7473 37.043 32.9599 35.3647C34.7878 20.965 34.7878 20.965 37.3859 17.9216C38.2065 17.5021 38.9678 17.5238 39.8734 17.6425Z" fill="#F4A99C"/>
<path d="M147.044 17.6425C148.586 18.4892 149.166 20.2393 149.665 21.8425C151.084 26.7489 151.654 31.9213 152.363 36.966C152.424 37.4029 152.486 37.8397 152.548 38.2764C153.427 44.4652 153.427 44.4652 152.48 45.7941C151.871 46.3062 151.458 46.5464 150.672 46.6799C149.11 46.4417 148.034 45.4827 146.863 44.4772C145.442 43.2677 143.91 42.2056 142.384 41.1345C142.265 41.0505 142.147 40.9665 142.024 40.8799C139.802 39.3149 137.431 37.9996 135.073 36.6523C134.045 36.0639 133.02 35.4708 131.997 34.8732C131.816 34.769 131.636 34.6648 131.449 34.5575C131.284 34.4605 131.118 34.3634 130.948 34.2635C130.803 34.1793 130.658 34.0952 130.509 34.0085C130.153 33.7569 130.153 33.7569 129.765 33.1744C129.685 32.409 129.775 31.6997 130.209 31.0554C130.539 30.7007 130.882 30.3771 131.245 30.0559C131.483 29.8357 131.72 29.615 131.956 29.3938C132.137 29.2263 132.137 29.2263 132.321 29.0554C132.673 28.7122 132.993 28.3561 133.313 27.9824C134.122 27.0393 134.998 26.1645 135.878 25.2884C136.159 25.0084 136.439 24.7275 136.719 24.4464C138.729 22.4342 140.877 20.6908 143.161 19.0015C143.27 18.92 143.379 18.8385 143.492 18.7546C144.613 17.9299 145.62 17.2628 147.044 17.6425Z" fill="#F4A99C"/>
<path d="M62.7709 79.5033C64.6806 80.5235 65.9714 82.1755 66.6539 84.2357C67.2446 86.7857 67.1418 89.6698 65.7681 91.9289C64.7918 93.2918 63.5187 94.6111 61.8123 94.9139C59.8779 95.1327 58.5204 94.8221 56.9661 93.658C55.3856 92.25 54.5319 90.0845 54.3861 88.011C54.2771 85.3679 54.7794 82.9689 56.5703 80.9352C58.2734 79.1964 60.3985 78.5233 62.7709 79.5033Z" fill="black"/>
<path d="M126.949 79.4912C128.98 80.7466 130.004 82.6339 130.594 84.8872C131.066 87.255 130.789 89.8762 129.558 91.9774C128.587 93.3711 127.35 94.4764 125.687 94.9139C124.028 95.0843 122.655 94.9766 121.312 93.9583C119.534 92.4397 118.477 90.8476 118.274 88.4764C118.106 85.5637 118.515 83.2285 120.445 80.9352C120.82 80.5388 121.153 80.2816 121.61 79.9644C121.714 79.8886 121.818 79.8127 121.926 79.7346C123.329 78.8607 125.452 78.8155 126.949 79.4912Z" fill="black"/>
</svg>
