<svg width="185" height="181" viewBox="0 0 185 181" fill="none" xmlns="http://www.w3.org/2000/svg">
<path d="M100.569 2.30073C102.963 4.24147 104.506 6.80638 105.344 9.7684C105.39 10.3647 105.39 10.3647 105.374 10.9063C105.369 11.0887 105.365 11.271 105.361 11.4589C105.353 11.662 105.353 11.662 105.344 11.8692C105.534 11.7762 105.723 11.6832 105.918 11.5875C109.452 9.89628 112.505 9.11552 116.327 10.4203C117.261 10.8027 118.078 11.2622 118.883 11.8692C119.074 12.0094 119.266 12.1496 119.464 12.2941C120.089 12.8366 120.474 13.3567 120.911 14.0575C121.046 14.2712 121.182 14.4848 121.322 14.7049C122.435 16.7526 122.509 19.1452 121.922 21.3748C121.441 22.6644 120.892 23.8491 120.05 24.9408C121.264 25.4023 122.482 25.839 123.714 26.2483C128.727 27.9289 133.594 29.7391 138.292 32.1868C138.712 32.4045 139.136 32.6162 139.56 32.827C143.349 34.7419 146.859 37.2222 150.161 39.8798C150.364 40.0378 150.567 40.1957 150.776 40.3585C153.843 42.789 156.722 45.5431 159.265 48.5164C159.38 48.6509 159.495 48.7854 159.614 48.924C163.073 52.995 165.993 57.3987 168.602 62.0549C168.715 62.2573 168.829 62.4598 168.945 62.6684C174.254 72.2455 177.108 82.7288 178.78 93.4879C179.213 96.2541 179.826 98.7284 180.915 101.313C183.204 106.929 184.952 113.072 184.989 119.175C184.99 119.361 184.992 119.548 184.994 119.74C184.998 120.338 184.999 120.936 185 121.534C185 121.84 185 121.84 185 122.153C184.996 125.129 184.907 128.002 184.241 130.914C184.2 131.104 184.158 131.294 184.116 131.49C182.164 140.348 177.924 147.97 171.636 154.49C171.511 154.62 171.386 154.75 171.257 154.884C169.609 156.591 167.921 158.181 166.034 159.625C165.879 159.745 165.725 159.864 165.566 159.987C159.33 164.782 152.358 168.47 145.026 171.296C144.798 171.385 144.571 171.473 144.336 171.565C137.587 174.167 130.612 175.852 123.534 177.275C123.137 177.355 122.74 177.436 122.343 177.517C108.579 180.303 93.581 180.883 79.635 179.529C78.9804 179.467 78.3261 179.418 77.6702 179.372C58.2958 177.974 37.4804 172.987 14.7767 155.89C14.5784 155.702 14.5784 155.702 14.376 155.51C7.26311 148.708 2.48096 139.684 0.771414 129.981C0.73651 129.783 0.701606 129.585 0.665645 129.382C-0.983112 119.617 0.476336 109.396 4.54081 100.368C5.80466 97.5313 6.26046 94.838 6.62611 91.7605C8.59855 75.3278 16.283 59.3367 27.376 47.1733C27.7887 46.7152 28.1833 46.2473 28.5778 45.7737C33.3559 40.3161 39.5525 36.1778 45.8218 32.6437C45.9603 32.5639 46.0989 32.4841 46.2416 32.4019C55.407 27.1329 68.2818 22.8764 78.9677 23.0734C78.964 22.8796 78.9604 22.6859 78.9566 22.4862C78.8773 17.6648 79.0433 13.5326 81.0685 9.06814C81.1714 8.83976 81.2743 8.61138 81.3803 8.37608C82.2949 6.53375 83.5971 5.14106 85.0367 3.69944C85.1958 3.53756 85.355 3.37567 85.519 3.20889C89.7678 -0.818109 95.8745 -0.979254 100.569 2.30073ZM88.5188 9.61066C85.803 13.3996 85.0844 18.0367 85.6202 22.6066C85.7341 23.6027 85.7788 24.5954 85.7953 25.5973C85.8013 25.8877 85.8073 26.178 85.8135 26.4772C85.7275 27.3729 85.6334 27.769 85.0367 28.4421C83.5268 29.2142 82.0977 29.2501 80.4266 29.3175C63.8927 30.2802 46.1921 37.1761 34.6176 49.2167C34.0564 49.7824 33.4927 50.3435 32.9161 50.8935C31.405 52.3515 30.1174 53.9165 28.8512 55.5876C28.5735 55.9531 28.2918 56.3157 28.0097 56.678C20.1494 66.8922 15.0734 79.7368 13.2932 92.4663C12.6913 96.7418 11.9443 100.438 10.1426 104.399C5.82298 114.164 5.62009 126.277 9.39155 136.234C11.2424 140.833 13.7216 144.985 17.1027 148.611C17.5354 149.076 17.9435 149.553 18.351 150.04C25.0094 157.626 35.3426 162.664 44.6783 165.924C45.3387 166.155 45.9964 166.393 46.6543 166.631C65.1913 173.196 86.3314 174.681 110.013 172.697C110.376 172.658 110.74 172.618 111.103 172.579C124.95 171.062 138.747 167.713 151.145 161.242C151.559 161.027 151.977 160.819 152.394 160.611C157.535 158.013 162.118 154.488 166.267 150.522C166.425 150.373 166.583 150.225 166.746 150.072C172.413 144.614 176.363 136.992 177.705 129.28C177.757 128.999 177.81 128.717 177.864 128.427C179.236 119.627 177.644 110.077 174.031 101.979C173.035 99.7335 172.479 97.6399 172.162 95.2058C172.034 94.2337 171.887 93.2645 171.743 92.2948C171.714 92.1027 171.686 91.9105 171.657 91.7125C169.07 74.3803 160.463 55.5647 146.028 44.8738C145.9 44.781 145.773 44.6882 145.641 44.5926C145.261 44.316 144.887 44.0329 144.513 43.7486C137.704 38.6487 129.831 35.0826 121.757 32.5416C121.525 32.4682 121.525 32.4682 121.288 32.3933C118.695 31.5789 116.092 30.9299 113.397 30.5575C112.263 30.3745 111.572 30.1442 110.713 29.3758C110.08 28.3325 110.014 27.2936 110.246 26.1079C110.69 25.3743 111.255 24.8219 111.88 24.2405C114.458 21.8291 114.458 21.8291 115.702 18.6822C115.695 17.8483 115.627 17.7201 115.075 17.0191C114.225 16.3664 113.518 16.2082 112.45 16.224C110.457 16.5046 108.718 17.5929 107.212 18.8718C106.985 19.0479 106.759 19.2239 106.526 19.4053C105.782 20.0263 105.27 20.7339 104.732 21.5416C104.56 21.7965 104.389 22.0513 104.212 22.3139C103.878 22.8197 103.548 23.3286 103.224 23.8403C102.777 24.474 102.777 24.474 102.076 24.9408C100.869 25.1016 99.8364 25.1374 98.7794 24.5031C97.9878 23.606 98.045 22.9038 98.0567 21.7434C98.1082 20.9743 98.2553 20.315 98.4557 19.5721C98.8533 17.9102 98.9209 16.3298 98.9107 14.6265C98.9153 14.348 98.92 14.0695 98.9248 13.7826C98.9235 11.4522 98.4809 9.48606 96.8345 7.76243C95.6207 6.65615 94.388 6.58114 92.7979 6.6245C90.9586 6.8898 89.6764 8.23592 88.5188 9.61066Z" fill="black"/>
<path d="M103.641 102.955C104.969 103.879 106.216 104.887 107.445 105.938C107.701 106.153 107.956 106.368 108.212 106.583C108.734 107.022 109.255 107.463 109.774 107.906C110.197 108.266 110.623 108.623 111.054 108.974C112.183 109.91 113.11 110.773 113.368 112.286C113.438 113.567 113.116 114.47 112.347 115.508C111.866 115.92 111.397 116.29 110.888 116.661C109.217 117.969 108.492 119.471 107.646 121.376C105.703 125.587 101.516 129.568 97.2284 131.283C93.568 132.616 90.7254 132.597 87.1055 131.073C85.4444 130.294 84.0613 129.341 82.7024 128.113C82.5842 128.006 82.4659 127.9 82.344 127.79C80.0924 125.727 78.2269 123.444 76.8897 120.684C75.866 118.573 74.6857 117.196 72.8933 115.673C72.1372 115.015 71.7988 114.524 71.6368 113.521C71.5874 112.08 71.7359 111.225 72.6908 110.13C72.8365 109.979 72.9821 109.828 73.1322 109.673C73.2874 109.505 73.4427 109.338 73.6026 109.165C74.9037 107.81 76.3308 106.637 77.8006 105.471C78.0537 105.265 78.3065 105.058 78.5592 104.85C86.7523 98.1897 94.6256 96.8403 103.641 102.955Z" fill="black"/>
<path d="M46.3115 106.678C49.8929 109.461 52.1868 113.59 52.8245 118.076C53.1257 122.531 52.0536 126.982 49.1062 130.442C46.258 133.578 42.6944 135.561 38.4386 135.859C33.5402 136.093 29.4449 135.259 25.66 131.994C22.4964 128.955 20.3575 125.097 20.1062 120.65C20.0758 115.832 21.4134 111.659 24.7327 108.084C30.9241 102.304 39.5017 101.912 46.3115 106.678Z" fill="#F4A99C"/>
<path d="M148.452 103.324C152.543 103.163 156.732 104.803 159.732 107.572C162.898 110.558 164.592 114.489 164.731 118.818C164.767 123.273 163.451 127.346 160.432 130.681C160.296 130.838 160.161 130.994 160.022 131.156C157.477 133.918 153.799 135.653 150.058 135.845C145.516 136.007 141.506 135.44 138.009 132.286C137.62 131.911 137.236 131.532 136.856 131.148C136.657 130.956 136.457 130.764 136.252 130.567C132.996 127.174 132.256 122.862 132.333 118.365C132.409 116.551 132.814 115.059 133.588 113.408C133.692 113.18 133.797 112.952 133.904 112.717C136.002 108.533 139.521 105.666 143.859 104.071C145.384 103.617 146.873 103.442 148.452 103.324Z" fill="#F4A99C"/>
<path d="M132.99 89.657C135.21 90.9312 136.576 92.6787 137.394 95.1187C138.053 98.2927 137.669 101.266 135.966 104.027C134.88 105.549 133.594 106.727 131.721 107.105C129.667 107.342 128.059 107.143 126.352 105.938C124.419 104.367 123.399 102.47 122.939 100.03C122.627 96.9642 123.18 94.0325 125.098 91.5535C127.104 89.3161 130.208 88.2952 132.99 89.657Z" fill="black"/>
<path d="M57.5658 89.5841C59.7825 90.8688 61.1256 92.9761 61.821 95.4103C62.4182 98.1521 62.0806 101.325 60.6422 103.724C59.4084 105.457 57.7478 106.726 55.6255 107.105C53.6584 107.342 52.0897 106.754 50.4465 105.69C48.6413 104.018 47.5605 101.679 47.3992 99.252C47.3441 96.181 47.7887 93.483 49.9504 91.1597C52.1195 89.1646 54.7557 88.3452 57.5658 89.5841Z" fill="black"/>
<path d="M99.2927 107.589C99.9991 108.115 100.689 108.656 101.376 109.206C101.817 109.553 102.259 109.9 102.701 110.246C102.989 110.472 103.276 110.699 103.563 110.926C104.146 111.388 104.726 111.828 105.344 112.241C105.344 112.395 105.344 112.549 105.344 112.707C97.5389 115.957 89.3197 116.711 81.3457 113.493C80.7742 113.248 80.2182 112.996 79.668 112.707C80.2413 111.253 81.74 110.378 82.9359 109.439C83.0762 109.329 83.2166 109.218 83.3612 109.104C88.6265 104.982 93.4828 103.669 99.2927 107.589Z" fill="#FFBB4D"/>
<path d="M85.0367 121.111C85.25 121.144 85.4634 121.178 85.6832 121.213C89.6842 121.79 93.9588 121.963 97.9451 121.213C98.6312 121.102 99.2818 121.094 99.9757 121.111C98.4253 123.511 96.2679 125.376 93.4399 126.013C91.5925 126.306 90.0066 125.721 88.4559 124.727C87.1496 123.762 86.041 122.619 85.0367 121.344C85.0367 121.267 85.0367 121.19 85.0367 121.111Z" fill="#FFBB4D"/>
</svg>
