<svg width="350" height="350" viewBox="0 0 350 350" fill="none" xmlns="http://www.w3.org/2000/svg">
<path d="M270.675 186.574C270.675 229.921 227.096 250.973 174.99 250.973C122.883 250.973 79.9729 229.921 79.9729 186.574C79.9729 143.227 122.883 94 174.99 94C227.096 94 270.675 143.227 270.675 186.574Z" fill="#F2D3A3"/>
<path d="M138.081 169.599C140.62 170.795 141.916 172.62 142.865 175.183C143.372 177.635 142.981 179.688 141.731 181.863C140.886 183.092 139.896 183.827 138.585 184.519C138.98 185.382 139.496 186.117 140.043 186.892C141.785 189.479 142.351 191.934 142.353 195.002C142.356 195.226 142.359 195.451 142.362 195.682C142.37 199.366 140.941 202.702 138.337 205.361C138.173 205.361 138.009 205.361 137.84 205.361C137.759 205.607 137.677 205.853 137.592 206.106C136.505 207.226 135.043 207.93 133.669 208.634C133.431 208.757 133.431 208.757 133.188 208.884C130.677 210.13 128.266 210.456 125.481 210.432C125.02 210.43 125.02 210.43 124.55 210.427C122.364 210.389 120.517 210.186 118.487 209.331C118.141 209.205 118.141 209.205 117.789 209.076C113.932 207.537 111.204 204.623 109.386 200.957C108.592 199.008 108.174 197.235 108.189 195.126C108.191 194.9 108.192 194.673 108.194 194.44C108.302 190.304 110.335 186.989 113.267 184.166C114.499 183.12 115.831 182.321 117.246 181.541C117.424 181.437 117.603 181.333 117.787 181.225C120.357 179.807 123.403 179.511 126.287 179.541C126.492 179.542 126.697 179.543 126.909 179.544C127.41 179.547 127.911 179.552 128.412 179.556C128.4 179.26 128.389 178.963 128.377 178.658C128.292 175.609 128.522 173.629 130.659 171.317C132.764 169.373 135.304 168.785 138.081 169.599Z" fill="#F4A99C"/>
<path d="M218.575 169.895C220.64 171.093 221.82 172.634 222.7 174.842C223.153 176.551 223.011 178.33 222.7 180.053C222.953 180.049 222.953 180.049 223.211 180.045C223.986 180.034 224.762 180.028 225.538 180.022C225.803 180.017 226.068 180.013 226.342 180.009C231.083 179.98 235.565 181.912 239.013 185.166C241.799 188.122 243.182 191.605 243.15 195.666C243.004 199.742 241.15 203.025 238.332 205.858C238.185 206.013 238.038 206.169 237.887 206.329C234.742 209.397 229.998 210.733 225.71 210.69C223.705 210.616 221.872 210.197 219.97 209.58C219.581 209.458 219.581 209.458 219.184 209.333C214.947 207.799 212.108 204.453 210.156 200.521C209.416 198.734 209.211 197.149 209.223 195.235C209.225 195.016 209.226 194.796 209.228 194.57C209.297 190.816 210.871 187.789 213.023 184.767C212.842 184.672 212.842 184.672 212.658 184.574C210.849 183.541 209.039 181.983 208.408 179.926C207.967 177.197 208.127 174.675 209.649 172.318C211.772 169.557 215.358 168.433 218.575 169.895Z" fill="#F4A99C"/>
<path d="M186.07 178.502C187.292 179.484 188.211 180.8 188.706 182.286C188.861 184.256 188.349 185.618 187.124 187.14C185.268 189.112 182.669 190.258 180.022 190.722C179.694 190.722 179.367 190.722 179.029 190.722C179.035 191.839 179.054 192.955 179.076 194.072C179.077 194.386 179.079 194.701 179.08 195.025C179.124 196.874 179.239 198.254 180.518 199.654C182.004 201.042 184.02 201.083 185.949 201.057C188.965 200.908 190.826 199.447 192.831 197.343C193.221 196.902 193.599 196.45 193.963 195.988C194.442 195.401 194.651 195.22 195.394 195.129C196.774 195.084 197.542 195.251 198.631 196.181C199.31 197.199 199.303 197.963 199.128 199.158C198.067 202.338 194.773 204.647 191.932 206.106C191.035 206.487 190.134 206.811 189.203 207.098C188.957 207.18 188.711 207.262 188.458 207.346C183.908 207.682 180.252 207.61 176.578 204.705C176.017 204.28 176.017 204.28 175.059 204.369C174.495 204.714 174.495 204.714 173.927 205.175C172.643 206.117 171.361 206.63 169.849 207.098C169.48 207.221 169.48 207.221 169.104 207.346C164.173 207.762 160.107 207.337 156.202 204.121C155.912 203.891 155.912 203.891 155.616 203.656C153.896 202.222 152.125 200.408 151.906 198.088C151.998 197.004 152.296 196.52 152.976 195.684C154.085 194.945 155.15 195.009 156.45 195.188C157.101 195.653 157.101 195.653 157.691 196.429C159.449 198.555 161.476 200.619 164.371 200.95C164.901 200.979 165.426 200.989 165.956 200.988C166.143 200.988 166.329 200.988 166.521 200.988C167.982 200.958 169.088 200.666 170.345 199.903C170.522 199.823 170.698 199.743 170.88 199.66C171.531 199.299 171.609 198.856 171.834 198.166C171.916 198.002 171.998 197.838 172.082 197.669C172.12 197.147 172.144 196.624 172.16 196.101C172.171 195.789 172.181 195.477 172.192 195.156C172.202 194.829 172.211 194.502 172.221 194.165C172.232 193.832 172.243 193.5 172.254 193.167C172.28 192.352 172.306 191.537 172.33 190.722C171.948 190.676 171.948 190.676 171.558 190.63C168.759 190.177 165.984 188.862 164.147 186.659C163.118 185.174 162.674 183.871 162.901 182.038C163.47 180.056 165.028 178.772 166.71 177.693C168.33 176.812 170.032 176.421 171.834 176.083C172.06 176.036 172.287 175.99 172.52 175.943C177.115 175.321 182.165 175.832 186.07 178.502Z" fill="black"/>
<path d="M218.574 169.895C220.639 171.093 221.82 172.634 222.699 174.842C222.901 175.602 222.901 175.602 222.947 176.331C222.966 176.487 222.984 176.643 223.003 176.804C223.146 178.831 222.366 181.011 221.164 182.642C219.176 184.454 217.334 185.124 214.672 185.099C212.715 184.917 211.231 183.93 209.913 182.51C208.25 180.355 208.074 177.966 208.308 175.338C208.761 173.243 209.943 171.623 211.698 170.418C213.931 169.158 216.191 168.812 218.574 169.895Z" fill="black"/>
<path d="M138.081 169.599C140.621 170.795 141.916 172.62 142.865 175.183C143.374 177.644 142.963 179.658 141.749 181.854C140.76 183.329 139.296 184.377 137.602 184.924C135.131 185.369 133.223 184.925 131.141 183.526C129.768 182.344 128.747 180.599 128.412 178.812C128.214 176.019 128.414 174.018 130.211 171.802C132.33 169.51 135.048 168.709 138.081 169.599Z" fill="black"/>
<path d="M187.704 94.7067C187.901 94.7304 188.097 94.7541 188.3 94.7785C198.72 96.049 208.617 98.2728 218.482 101.884C218.628 101.725 218.775 101.565 218.925 101.4C222.916 97.2065 228.658 94.6398 234.467 94.3893C238.004 94.3233 241.233 94.6489 244.632 95.6329C244.825 95.6887 245.018 95.7445 245.218 95.802C250.187 97.2909 254.894 99.7252 259.211 102.579C259.394 102.7 259.577 102.821 259.766 102.946C263.227 105.247 266.478 107.737 269.625 110.451C269.788 110.591 269.951 110.731 270.119 110.875C273.908 114.149 277.649 117.609 280.732 121.565C281.093 121.99 281.455 122.415 281.817 122.838C285.164 126.862 288.064 131.186 290.524 135.804C290.632 136.005 290.74 136.205 290.852 136.411C291.203 137.087 291.521 137.775 291.84 138.467C291.91 138.599 291.98 138.731 292.052 138.866C294.088 142.734 293.688 147.136 293.639 151.378C293.632 152.206 293.635 153.034 293.639 153.862C293.641 154.668 293.638 155.474 293.633 156.28C293.631 156.66 293.631 157.041 293.632 157.422C293.635 159.738 293.393 161.612 292.303 163.705C292.116 164.112 292.116 164.112 291.925 164.529C289.387 169.429 284.994 173.175 279.807 175.05C278.979 175.306 278.146 175.525 277.305 175.73C277.106 175.779 276.907 175.828 276.702 175.878C275.33 176.188 274.037 176.263 272.633 176.208C272.678 176.371 272.722 176.534 272.768 176.701C273.59 179.817 273.929 182.949 274.021 186.164C274.029 186.437 274.037 186.711 274.045 186.993C274.285 196.893 272.82 206.593 268.467 215.569C268.381 215.748 268.294 215.928 268.204 216.113C265.271 222.11 260.874 228.052 255.714 232.336C255.204 232.764 254.723 233.218 254.236 233.672C241.078 245.512 223.273 250.762 206.217 253.772C205.881 253.833 205.881 253.833 205.537 253.895C202.466 254.443 199.381 254.844 196.281 255.19C196.119 255.209 195.958 255.228 195.792 255.247C189.474 255.969 183.118 256.178 176.765 256.161C176.252 256.16 175.74 256.159 175.227 256.159C166.157 256.146 157.126 255.689 148.133 254.467C147.925 254.44 147.717 254.412 147.504 254.384C146.241 254.215 144.989 254.001 143.736 253.772C143.451 253.721 143.166 253.67 142.872 253.618C125.455 250.491 108.043 244.618 94.7548 232.499C94.2623 232.052 93.7627 231.617 93.2587 231.183C91.6687 229.79 90.2774 228.296 88.9559 226.645C88.614 226.22 88.2672 225.798 87.9145 225.381C85.5557 222.585 83.647 219.497 81.9484 216.263C81.8628 216.101 81.7772 215.939 81.6891 215.772C79.1251 210.841 77.5535 205.521 76.6259 200.056C76.5883 199.85 76.5508 199.644 76.5121 199.431C75.1971 192.038 75.5571 183.996 77.0887 176.671C76.9258 176.637 76.763 176.603 76.5952 176.569C69.6033 175.104 63.4216 172.611 59.3269 166.403C57.8663 164.091 56.4512 161.552 56.4147 158.777C56.412 158.615 56.4094 158.452 56.4066 158.284C56.3987 157.748 56.3944 157.212 56.3908 156.675C56.3892 156.49 56.3876 156.305 56.386 156.114C56.3777 155.132 56.3722 154.15 56.369 153.168C56.366 152.364 56.358 151.559 56.3453 150.755C56.2159 142.369 56.2159 142.369 58.1128 138.93C58.3025 138.498 58.4891 138.065 58.6715 137.631C60.6585 133.331 63.1371 129.422 66.0855 125.721C66.4361 125.279 66.7814 124.834 67.1253 124.387C68.217 122.972 69.3344 121.6 70.5477 120.286C70.8327 119.974 71.1161 119.661 71.3899 119.339C72.607 117.913 73.9201 116.588 75.2449 115.263C75.6396 114.868 76.0324 114.47 76.4252 114.073C77.7959 112.695 79.1837 111.398 80.7105 110.192C81.2353 109.772 81.7304 109.331 82.2232 108.874C85.9677 105.519 90.3292 102.764 94.6761 100.264C94.9348 100.112 95.1934 99.961 95.4599 99.8051C99.4595 97.56 103.841 95.8832 108.33 94.9383C108.525 94.896 108.721 94.8537 108.922 94.8102C115.293 93.5304 122.386 94.7889 127.843 98.3649C129.173 99.3179 130.318 100.499 131.471 101.653C132.759 101.575 133.864 101.174 135.058 100.727C144.575 97.3014 154.502 95.3713 164.563 94.4752C164.931 94.4412 164.931 94.4412 165.307 94.4065C172.633 93.8206 180.406 93.8241 187.704 94.7067ZM160.629 103.274C160.412 103.3 160.195 103.326 159.971 103.352C158.564 103.521 157.167 103.734 155.769 103.968C155.489 104.014 155.209 104.061 154.92 104.108C142.214 106.219 130.08 110.18 120.594 119.25C120.186 119.613 119.776 119.974 119.365 120.335C118.376 121.227 117.504 122.156 116.66 123.186C116.563 123.301 116.466 123.416 116.366 123.534C114.37 125.9 112.695 128.404 111.106 131.058C111.014 131.21 110.922 131.361 110.827 131.518C106.868 138.081 104.329 145.347 102.305 152.704C101.24 156.571 100.178 160.34 98.3787 163.936C98.2457 164.208 98.1126 164.481 97.9756 164.761C97.0545 166.562 95.945 168.153 94.6761 169.725C94.4511 170.008 94.4511 170.008 94.2214 170.296C92.0118 172.936 88.9182 174.726 85.651 175.745C85.16 178.325 85.16 178.325 84.6964 180.911C84.6624 181.106 84.6284 181.3 84.5934 181.501C82.784 194.717 85.4935 208.461 93.5389 219.225C94.4725 220.417 95.4735 221.545 96.4949 222.662C96.9274 223.14 97.3428 223.627 97.7568 224.121C104.84 232.242 115.689 237.415 125.685 240.806C125.947 240.896 126.209 240.985 126.478 241.077C136.798 244.561 147.519 245.992 158.315 247.058C158.475 247.074 158.636 247.09 158.801 247.106C164.466 247.664 170.14 247.801 175.83 247.796C176.105 247.796 176.38 247.796 176.664 247.796C186.119 247.786 195.484 247.157 204.829 245.669C205.089 245.627 205.349 245.586 205.617 245.544C212.124 244.497 218.499 242.959 224.73 240.806C224.945 240.734 225.16 240.661 225.381 240.586C236.851 236.686 248.202 230.121 255.74 220.431C255.911 220.215 256.082 219.998 256.259 219.775C257.635 217.996 258.796 216.131 259.905 214.18C259.986 214.039 260.067 213.898 260.15 213.754C264.369 206.371 265.741 198.126 265.748 189.724C265.749 189.504 265.749 189.284 265.75 189.057C265.75 185.718 265.634 182.438 265.095 179.135C265.025 178.698 264.965 178.26 264.912 177.822C264.783 176.512 264.783 176.512 263.995 175.547C263.772 175.488 263.548 175.429 263.318 175.368C257.684 173.489 253.985 168.552 251.409 163.431C249.523 159.57 248.32 155.529 247.206 151.39C245.738 145.952 243.892 140.739 241.392 135.689C241.243 135.387 241.243 135.387 241.092 135.079C239.251 131.377 237.037 128.026 234.45 124.806C234.261 124.57 234.071 124.333 233.877 124.088C231.204 120.803 228.18 117.776 224.73 115.313C224.595 115.217 224.46 115.12 224.321 115.02C206.9 102.697 181.23 100.607 160.629 103.274Z" fill="black"/>
<path d="M243.196 104.193C243.346 104.242 243.496 104.291 243.651 104.342C246.086 105.143 248.363 106.207 250.627 107.389C250.775 107.465 250.924 107.541 251.076 107.619C256.142 110.231 260.965 113.722 265.129 117.573C265.601 118.006 266.08 118.42 266.57 118.834C267.765 119.857 268.883 120.953 270.004 122.053C270.21 122.253 270.417 122.454 270.63 122.66C271.868 123.874 273.011 125.127 274.1 126.472C274.491 126.95 274.895 127.407 275.316 127.859C277.664 130.482 279.652 133.406 281.513 136.375C281.597 136.508 281.681 136.642 281.767 136.779C283.993 140.367 285.846 144.151 286.855 148.243C286.901 148.424 286.947 148.604 286.994 148.789C287.699 153.323 286.72 157.827 284.123 161.623C283.737 162.129 283.334 162.606 282.907 163.079C282.789 163.216 282.671 163.353 282.549 163.494C280.029 166.216 276.098 167.74 272.407 167.934C268.86 168.04 265.961 167.446 263.167 165.133C263.026 165.019 262.884 164.905 262.738 164.788C257.812 160.41 256.317 152.585 254.546 146.646C251.037 134.926 245.541 124.066 236.926 115.149C236.808 115.027 236.691 114.905 236.57 114.779C233.48 111.593 229.96 109.134 226.243 106.704C230.171 102.361 238.057 102.469 243.196 104.193Z" fill="#7D5232"/>
<path d="M123.29 105.87C123.444 106.097 123.598 106.323 123.757 106.557C123.636 106.636 123.515 106.715 123.391 106.797C119.918 109.084 116.764 111.513 113.729 114.336C113.553 114.499 113.377 114.662 113.196 114.83C112.16 115.816 111.24 116.873 110.339 117.979C109.94 118.469 109.537 118.951 109.124 119.431C101.059 128.905 96.9021 140.677 93.525 152.375C92.9467 154.377 92.3461 156.331 91.4873 158.238C91.3965 158.441 91.3057 158.645 91.2122 158.855C90.5285 160.355 89.7978 161.761 88.7764 163.072C88.6152 163.284 88.4541 163.497 88.2881 163.716C86.5289 165.83 83.8388 167.46 81.0333 167.834C80.818 167.848 80.6028 167.862 80.381 167.876C80.2339 167.887 80.0867 167.898 79.9351 167.908C75.4681 168.19 71.5724 166.885 68.1169 164.043C64.9742 161.17 63.0259 157.276 62.8024 153.06C62.7215 150.379 62.8795 147.989 63.8236 145.454C63.9171 145.189 64.0106 144.924 64.1069 144.652C65.5343 140.889 67.5714 137.316 69.8869 134.013C70.0233 133.819 70.0233 133.819 70.1626 133.62C72.0647 130.921 74.0839 128.298 76.3546 125.885C76.6432 125.576 76.93 125.265 77.2075 124.946C78.4028 123.574 79.6885 122.295 80.9885 121.019C81.3694 120.645 81.7484 120.269 82.1273 119.893C83.6493 118.392 85.2175 117.025 86.9107 115.709C87.1504 115.511 87.3891 115.313 87.6258 115.112C96.9456 107.27 111.32 98.4708 123.29 105.87Z" fill="#7D5232"/>
<ellipse cx="57.5946" cy="151.73" rx="2.59459" ry="9.72973" fill="black"/>
<ellipse cx="292.405" cy="151.081" rx="2.59459" ry="10.3784" fill="black"/>
</svg>
