<svg width="185" height="220" viewBox="0 0 185 220" fill="none" xmlns="http://www.w3.org/2000/svg">
<path d="M40.3913 31.2053C43.9411 32.8586 45.9623 35.5782 47.4743 38.3566C47.6887 38.7491 47.6887 38.7491 47.9075 39.1496C54.8049 52.2034 55.5076 66.8307 54.4604 80.2747C50.0524 81.194 50.0524 81.194 48.396 81.1425C48.055 81.1324 47.7139 81.1224 47.3626 81.1121C47.2227 81.2756 47.0828 81.4392 46.9386 81.6077C46.8581 81.4437 46.7775 81.2797 46.6945 81.1108C45.9878 79.719 45.2053 78.3865 44.2896 77.0543C36.231 65.0256 28.2492 47.1535 33.5164 34.3578C34.7726 31.9485 36.5568 30.171 40.3913 31.2053Z" fill="#F4A99C"/>
<path d="M49.7548 5.43012C50.8327 6.31208 51.8299 7.26998 52.8244 8.24391C53.0638 8.47044 53.3032 8.69697 53.5498 8.93037C64.508 19.5049 68.0866 36.2165 70.4745 50.7065C70.5206 50.9851 70.5667 51.2637 70.6142 51.5508C71.5664 57.4064 72.5216 63.4322 72.2651 69.3799C72.6603 69.2696 72.6603 69.2696 73.0635 69.157C74.6577 68.7594 76.2825 68.5615 77.9087 68.3407C78.2211 68.2963 78.5335 68.252 78.8554 68.2063C82.9404 67.6448 86.9761 67.5416 91.0926 67.5419C91.9361 67.5413 92.7794 67.5367 93.6228 67.5318C99.9854 67.5149 106.469 67.9256 112.681 69.3799C112.677 69.0996 112.672 68.8193 112.667 68.5306C112.636 65.755 112.777 63.041 113.081 60.283C113.103 60.0787 113.125 59.8744 113.148 59.6639C115 42.6031 118.43 22.4398 130.587 9.5229C130.708 9.39245 130.829 9.26199 130.954 9.12759C135.55 4.20155 141.786 0.386938 148.665 0.00637889C155.344 -0.123443 161.561 1.71964 166.52 6.33253C172.732 12.3168 175.239 21.7821 175.414 30.1887C175.425 31.198 175.423 32.2069 175.416 33.2163C175.415 33.4298 175.414 33.6433 175.413 33.8632C175.397 37.1995 175.299 40.4912 174.841 43.8C174.783 44.2307 174.783 44.2307 174.724 44.6702C172.647 59.7385 167.22 75.5497 158.751 88.271C158.422 88.7902 158.422 88.7902 158.52 89.3035C158.782 89.9944 159.144 90.3411 159.676 90.852C159.872 91.042 160.067 91.232 160.268 91.4277C160.476 91.6278 160.685 91.8279 160.899 92.0341C162.606 93.7061 164.169 95.3728 165.632 97.262C165.865 97.5438 166.099 97.8249 166.333 98.1053C180.3 114.918 186.61 139.47 184.651 161.091C183.498 172.832 179.342 184.124 171.278 192.864C170.799 193.387 170.341 193.922 169.884 194.466C165.164 199.858 158.409 204.028 152.074 207.256C151.84 207.375 151.605 207.495 151.363 207.619C138.902 213.916 125.614 217.119 111.806 218.664C110.857 218.77 109.91 218.883 108.963 219C94.2505 220.687 78.6307 219.799 64.0795 217.232C63.7805 217.18 63.4815 217.128 63.1734 217.075C46.6591 214.18 29.2178 207.917 16.9014 196.127C16.6294 195.867 16.3557 195.61 16.0805 195.354C12.0137 191.565 8.85037 187.096 6.26896 182.187C6.17379 182.006 6.07862 181.826 5.98056 181.639C-2.7709 164.71 -0.809093 142.402 4.79041 124.768C6.07451 120.783 7.54353 116.908 9.33855 113.121C9.4437 112.898 9.54884 112.674 9.65718 112.444C12.781 105.85 16.9305 99.9216 21.8437 94.5331C22.3264 94.0004 22.7963 93.4595 23.2636 92.9134C24.3554 91.6568 25.5458 90.4978 26.7329 89.3322C25.7817 87.4058 24.8233 85.4851 23.8097 83.5907C13.5321 64.3433 5.16784 40.3981 11.4649 18.5598C13.463 12.0133 17.0412 6.24253 23.1517 2.87213C31.8976 -1.76438 41.9536 -0.564144 49.7548 5.43012ZM22.729 12.4527C17.8727 18.0252 16.8979 26.036 16.9166 33.1523C16.9167 33.3544 16.9169 33.5565 16.917 33.7646C16.9379 40.4718 17.7966 47.0453 19.5705 53.5203C19.6403 53.7767 19.71 54.0332 19.7818 54.2973C21.9884 62.2406 25.1152 69.9343 28.7793 77.3096C28.9132 77.5792 29.047 77.8488 29.185 78.1265C30.859 81.4682 32.6909 84.6962 34.6563 87.8746C35.2268 88.82 35.2354 89.4178 35.0903 90.5043C34.5256 92.5366 32.1689 94.0719 30.6558 95.4544C28.3987 97.5228 26.3973 99.6786 24.5607 102.121C24.2939 102.476 24.0256 102.829 23.7561 103.181C21.3825 106.287 19.2496 109.497 17.2683 112.866C17.1191 113.116 17.1191 113.116 16.9669 113.372C8.01623 128.577 4.41297 151.298 8.64997 168.495C11.551 179.306 17.6789 188.595 26.7329 195.233C26.8925 195.35 27.0521 195.467 27.2165 195.588C29.8335 197.487 32.5701 199.101 35.43 200.605C35.6028 200.696 35.7755 200.787 35.9535 200.881C48.9677 207.711 63.357 210.362 77.8587 211.665C78.128 211.689 78.128 211.689 78.4028 211.714C78.9999 211.766 79.5973 211.814 80.1949 211.86C80.4789 211.882 80.7629 211.904 81.0555 211.927C83.3659 212.095 85.6658 212.161 87.9818 212.168C88.3513 212.169 88.7209 212.171 89.0905 212.173C90.266 212.178 91.4416 212.179 92.6171 212.18C92.9175 212.18 92.9175 212.18 93.2239 212.18C99.2223 212.183 105.177 212.099 111.142 211.407C111.675 211.346 112.207 211.289 112.74 211.232C117.288 210.745 121.777 210.065 126.239 209.046C126.522 208.982 126.805 208.918 127.097 208.851C133.706 207.33 140.044 205.269 146.191 202.395C146.382 202.306 146.574 202.217 146.771 202.125C159.404 196.162 170.105 186.377 174.895 173.044C176.679 167.89 177.513 162.564 177.654 157.119C177.663 156.859 177.671 156.599 177.68 156.332C178.169 139.202 173.962 121.395 164.097 107.238C163.923 106.986 163.923 106.986 163.746 106.729C162.161 104.432 160.55 102.191 158.725 100.076C158.563 99.8852 158.401 99.6946 158.234 99.4982C156.904 97.9778 155.482 96.5504 154.057 95.1196C153.857 94.9186 153.657 94.7176 153.451 94.5106C152.517 93.5785 151.586 92.6978 150.54 91.8902C149.96 91.1172 149.919 90.3175 149.95 89.3622C150.09 88.3899 150.563 87.6071 151.051 86.7742C151.188 86.5341 151.326 86.2941 151.467 86.0468C151.713 85.6153 151.96 85.184 152.207 84.7531C159.808 71.5033 165.628 57.2232 167.678 42.0094C167.723 41.699 167.768 41.3886 167.814 41.0687C167.969 39.8146 167.98 38.5664 167.986 37.3041C167.987 37.0516 167.989 36.7992 167.99 36.5391C167.993 36.0058 167.994 35.4724 167.995 34.939C167.998 34.1397 168.006 33.3406 168.014 32.5413C168.051 25.4923 166.953 17.7835 162.051 12.3367C161.924 12.1837 161.797 12.0307 161.667 11.8731C159.293 9.21433 155.465 7.58782 151.971 7.37159C145.533 7.13216 141.258 9.74541 136.595 13.9384C123.754 26.1531 120.255 51.148 119.51 68.0222C119.482 68.6531 119.452 69.2839 119.422 69.9147C119.383 70.7494 119.35 71.584 119.322 72.4192C119.305 72.8054 119.288 73.1915 119.27 73.5776C119.266 73.7545 119.262 73.9315 119.257 74.1138C119.195 75.3168 118.9 75.947 118.053 76.798C116.264 77.6927 113.69 76.8951 111.85 76.4623C109.753 75.9987 107.665 75.6042 105.535 75.3272C105.315 75.2977 105.095 75.2683 104.868 75.2379C94.4256 73.9439 83.1345 74.0804 72.9025 76.5469C70.9376 77.0115 68.82 77.5033 66.8773 76.7501C66.0748 75.9993 65.894 75.2453 65.7854 74.1639C65.7748 73.8425 65.7642 73.521 65.7532 73.1899C65.7385 72.8185 65.7236 72.4471 65.7085 72.0757C65.7011 71.8792 65.6938 71.6828 65.6862 71.4804C65.2591 60.5307 63.5046 49.7905 60.7542 39.1956C60.6465 38.7783 60.6465 38.7783 60.5366 38.3525C57.6344 27.2943 52.9535 15.8029 42.8482 9.5229C36.3002 5.81109 27.892 6.88531 22.729 12.4527Z" fill="black"/>
<path d="M151.133 27.286C154.445 29.7051 156.307 33.4623 157.19 37.405C159.475 52.5399 152.389 70.6101 143.514 82.6794C142.782 83.6096 142.164 84.1157 140.99 84.3201C139.747 84.3671 138.967 84.3108 137.989 83.4968C137.163 82.709 136.939 81.9775 136.888 80.8499C136.907 79.4498 137.458 78.5862 138.229 77.4535C138.491 77.0467 138.752 76.6393 139.012 76.2315C139.21 75.9244 139.21 75.9244 139.412 75.6111C146.001 65.2483 152.701 49.3338 149.969 36.7155C149.56 35.4916 148.89 34.4761 147.982 33.568C146.767 33.3287 145.695 33.4586 144.624 34.0796C142.82 35.3922 141.6 37.116 140.595 39.0837C140.488 39.2922 140.381 39.5007 140.27 39.7156C135.442 49.3167 133.3 60.3461 132.758 71.0196C132.747 71.2276 132.736 71.4357 132.725 71.6501C132.673 72.6833 132.626 73.7165 132.588 74.7504C132.571 75.1305 132.555 75.5106 132.538 75.8908C132.525 76.2262 132.513 76.5616 132.5 76.9072C132.322 78.2397 131.93 79.0739 130.923 79.9636C129.895 80.4677 129.152 80.601 128.029 80.3792C126.885 79.7962 126.276 79.2303 125.727 78.0771C125.656 77.3872 125.625 76.7591 125.634 76.0706C125.634 75.877 125.633 75.6834 125.633 75.4839C125.633 74.856 125.64 74.2284 125.647 73.6006C125.649 73.3854 125.65 73.1703 125.652 72.9487C125.758 59.1007 128.436 40.6824 138.264 30.2057C141.54 27.0388 146.912 24.6639 151.133 27.286Z" fill="black"/>
<path d="M44.383 28.4521C45.2928 29.1662 46.1228 29.9375 46.941 30.7543C47.0986 30.9089 47.2562 31.0636 47.4186 31.2229C49.8498 33.7942 51.4664 37.2375 52.8243 40.4746C52.932 40.7311 52.932 40.7311 53.0418 40.9928C55.7823 47.6685 57.1851 54.8829 58.4519 61.9617C58.5018 62.235 58.5517 62.5082 58.6031 62.7897C59.1865 66.1111 59.3028 69.4377 59.3395 72.8031C59.3446 73.2674 59.3515 73.7317 59.3601 74.1959C59.3708 74.851 59.3724 75.5054 59.3712 76.1606C59.3754 76.357 59.3795 76.5534 59.3838 76.7557C59.3653 78.2155 58.9757 78.8407 57.9403 79.8677C57.163 80.4573 56.3558 80.488 55.3893 80.4592C54.5058 80.323 53.9963 79.9396 53.3359 79.3561C52.6234 78.1903 52.4418 77.1687 52.3997 75.8278C52.3909 75.6389 52.382 75.4499 52.3729 75.2552C52.3544 74.853 52.3373 74.4508 52.3216 74.0485C52.2798 72.9985 52.2248 71.9492 52.1719 70.8997C52.1619 70.6957 52.1519 70.4916 52.1416 70.2814C51.6082 59.4385 49.4851 43.6163 41.825 35.3586C40.452 34.1439 39.3995 33.4383 37.5414 33.4651C36.8786 33.5325 36.8786 33.5325 36.2294 34.2075C35.2018 35.7171 34.76 37.384 34.6626 39.1956C34.6491 39.4456 34.6356 39.6955 34.6216 39.953C34.2886 52.8398 39.5396 67.55 46.9455 78.0241C47.7326 79.1883 47.9875 80.2714 47.9642 81.6583C47.6473 82.6463 47.2999 83.0975 46.5413 83.8006C45.3979 84.3411 44.3447 84.5208 43.104 84.2163C41.9382 83.3954 41.1556 82.4741 40.3861 81.2746C40.279 81.1101 40.1718 80.9456 40.0614 80.7761C38.5897 78.4839 37.2379 76.1234 35.9416 73.7285C35.8308 73.5251 35.72 73.3217 35.6059 73.1121C30.4719 63.516 27.7648 51.9938 27.6441 41.1781C27.6384 40.8525 27.6326 40.5269 27.6267 40.1915C27.6378 35.8605 29.2649 31.6027 32.2925 28.4671C36.0334 25.068 40.3354 25.9005 44.383 28.4521Z" fill="black"/>
<path d="M43.3118 145.912C47.0522 148.478 49.3126 151.941 50.3463 156.336C51.0349 160.434 50.3717 165.08 48.0011 168.559C47.4989 169.203 46.9771 169.815 46.4294 170.42C46.2843 170.586 46.1392 170.752 45.9897 170.923C43.9028 173.172 40.4339 175.094 37.3416 175.33C32.2452 175.475 28.0472 174.96 24.1029 171.397C21.1114 168.235 19.3209 164.149 19.2028 159.789C19.3901 155.178 20.902 151.06 24.2128 147.796C29.5214 143.04 37.1847 142.321 43.3118 145.912Z" fill="#F4A99C"/>
<path d="M159.237 146.631C162.207 148.779 164.329 152.201 165.216 155.744C165.959 160.501 165.255 165.086 162.562 169.142C160.161 172.297 156.786 174.582 152.842 175.281C148.109 175.705 144.158 175.179 140.308 172.211C137.091 169.493 134.986 165.915 134.424 161.723C134.161 157.065 134.946 152.697 138.117 149.077C138.501 148.683 138.89 148.294 139.284 147.91C139.441 147.748 139.598 147.586 139.76 147.419C145.025 142.334 153.492 142.687 159.237 146.631Z" fill="#F4A99C"/>
<path d="M100.147 146.12C101.271 147.365 101.522 148.128 101.494 149.774C101.247 152.298 99.4409 154.201 97.5712 155.774C96.446 156.607 96.446 156.607 95.7986 156.607C95.81 157.809 95.8279 159.01 95.8517 160.211C95.8589 160.619 95.8643 161.026 95.8679 161.434C95.8532 164.982 95.8532 164.982 97.6532 167.942C99.6919 169.193 101.646 169.497 103.998 168.965C106.748 168.129 108.513 166.891 110.123 164.537C111.262 163.072 111.262 163.072 111.914 162.747C112.884 162.636 113.374 162.708 114.248 163.162C115.184 163.936 115.88 164.608 116.105 165.843C116.199 167.677 115.614 168.899 114.454 170.287C111.55 173.377 107.309 175.464 103.019 175.606C99.5445 175.695 96.5597 175.506 93.5924 173.506C93.3075 173.332 93.0226 173.158 92.729 172.978C91.4924 173.338 90.3639 174.052 89.2318 174.657C85.9639 176.069 81.5082 176.099 78.1925 174.866C77.9247 174.75 77.657 174.633 77.3811 174.513C77.2207 174.446 77.0603 174.379 76.895 174.309C73.6935 172.943 70.5386 171.037 69.1196 167.696C68.7383 166.423 68.783 165.464 69.2595 164.201C69.9733 163.105 69.9733 163.105 70.7303 162.747C71.8247 162.58 72.7138 162.58 73.704 163.098C74.262 163.715 74.6969 164.327 75.1588 165.017C76.6443 167.198 78.8676 168.624 81.4739 169.142C83.9116 169.36 85.9368 169.065 87.8689 167.495C88.861 166.224 88.9734 165.053 88.998 163.477C89.0029 163.28 89.0079 163.083 89.013 162.88C89.0282 162.255 89.0401 161.629 89.0519 161.004C89.0617 160.578 89.0717 160.153 89.0819 159.727C89.1064 158.687 89.1279 157.647 89.1478 156.607C88.9892 156.531 88.8306 156.454 88.6671 156.375C86.4869 155.252 84.6097 153.044 83.6981 150.792C83.3055 149.513 83.3197 148.552 83.9519 147.335C86.903 143.825 96.399 143.525 100.147 146.12Z" fill="black"/>
<path d="M147.982 33.3122C149.507 34.4016 150.119 36.1984 150.427 37.9735C151.997 51.4098 145.862 65.4902 139.077 76.7501C138.96 76.9445 138.843 77.139 138.723 77.3393C137.564 79.2244 137.564 79.2244 136.726 79.8676C135.448 79.7133 134.474 79.2722 133.331 78.6915C133.104 78.5764 132.876 78.4613 132.642 78.3427C132.385 78.2112 132.385 78.2112 132.122 78.077C133.62 45.2195 133.62 45.2195 143.516 34.6172C144.839 33.486 146.256 32.8855 147.982 33.3122Z" fill="#F4A99C"/>
<path d="M56.6963 130.364C58.4712 131.797 59.6314 133.697 60.2425 135.888C60.5452 138.843 60.21 142.167 58.384 144.594C56.8701 146.309 55.2948 147.61 52.9363 147.814C50.8904 147.742 48.8957 146.675 47.3736 145.349C45.4364 143.095 44.9613 140.205 45.0535 137.314C45.3338 134.667 46.5227 132.605 48.4718 130.818C50.9201 128.853 54.0542 128.625 56.6963 130.364Z" fill="black"/>
<path d="M135.959 130.26C137.903 131.745 139.543 133.764 139.879 136.245C140.153 139.595 139.821 142.455 137.734 145.192C136.325 146.656 134.393 147.711 132.346 147.83C130.313 147.687 128.529 146.611 127.16 145.138C125.051 142.289 124.63 139.332 124.96 135.888C125.523 133.426 127.015 131.291 129.111 129.874C131.382 128.725 133.798 128.988 135.959 130.26Z" fill="black"/>
</svg>
