<svg width="180" height="223" viewBox="0 0 180 223" fill="none" xmlns="http://www.w3.org/2000/svg">
<path d="M38.1156 5.57187C38.3178 5.67183 38.52 5.77179 38.7283 5.87478C42.0061 7.5061 45.1168 9.4144 48.232 11.3322C49.1879 11.9207 50.1464 12.5047 51.1068 13.0859C51.3567 13.2372 51.6066 13.3886 51.8641 13.5445C52.3279 13.8251 52.7917 14.1056 53.2557 14.3858C53.4653 14.5131 53.6749 14.6404 53.8908 14.7715C54.091 14.8928 54.2911 15.0142 54.4972 15.1393C55.2674 15.6265 56.0039 16.1576 56.7353 16.7012C57.6351 17.1488 58.4203 17.0457 59.3718 16.7922C59.5921 16.7116 59.8124 16.631 60.0394 16.548C60.2925 16.4582 60.5457 16.3684 60.8065 16.2759C61.0784 16.1785 61.3502 16.0811 61.6303 15.9807C70.6063 12.8853 79.9911 11.5211 89.463 11.5717C89.7188 11.5726 89.9746 11.5734 90.2382 11.5743C100.35 11.6128 110.078 13.2386 119.724 16.3027C119.954 16.3743 120.184 16.4459 120.422 16.5197C121.023 16.7231 121.023 16.7231 121.797 17.1029C122.948 17.2807 123.661 16.5715 124.568 15.9201C125.002 15.6243 125.436 15.3295 125.87 15.0357C126.104 14.8767 126.338 14.7177 126.578 14.5539C127.91 13.6678 129.276 12.8387 130.644 12.0111C130.787 11.9244 130.93 11.8376 131.078 11.7483C135.144 9.28838 139.264 6.89994 143.552 4.84521C144.115 4.57177 144.674 4.28923 145.233 4.00657C149.209 2.02173 153.446 0.206073 157.946 0.178056C158.144 0.173056 158.342 0.168056 158.546 0.162905C160.492 0.150498 162.079 0.628375 163.529 1.97347C167.299 6.17007 167.744 12.8401 168.295 18.1777C168.321 18.4331 168.321 18.4331 168.349 18.6936C169.111 26.4532 168.381 34.3905 167.582 42.1165C167.552 42.414 167.552 42.414 167.522 42.7175C167.151 46.3604 167.151 46.3604 166.773 47.9971C166.005 51.327 167.011 53.4672 168.456 56.4997C172.01 64.2694 172.819 72.7899 172.658 81.2066C172.92 81.2058 172.92 81.2058 173.188 81.2049C178.091 81.1963 178.091 81.1963 179.128 82.0399C179.967 82.9695 180.016 83.5486 179.997 84.7652C179.892 85.6586 179.567 86.1296 178.961 86.7822C176.906 88.0403 174.46 87.5086 172.173 87.267C172.148 87.4698 172.148 87.4698 172.122 87.6766C171.759 90.5171 171.307 93.2501 170.476 95.9941C170.774 96.0557 171.073 96.1172 171.38 96.1806C171.776 96.2648 172.171 96.3491 172.567 96.4335C172.763 96.4736 172.959 96.5138 173.161 96.5552C174.572 96.8591 175.772 97.2233 176.87 98.2062C177.421 99.1804 177.487 99.9909 177.264 101.085C176.848 101.89 176.271 102.399 175.507 102.888C173.783 103.24 171.99 102.645 170.34 102.161C170.142 102.104 169.943 102.047 169.739 101.989C169.257 101.851 168.776 101.71 168.295 101.57C168.253 101.704 168.212 101.839 168.17 101.977C167.75 103.301 167.239 104.514 166.582 105.736C166.488 105.913 166.393 106.09 166.295 106.273C164.763 109.068 162.879 111.508 160.661 113.797C160.409 114.058 160.158 114.321 159.908 114.585C155.139 119.634 148.58 124.276 141.871 126.296C142.166 126.521 142.166 126.521 142.467 126.75C145.098 128.759 147.644 130.824 150.062 133.087C150.561 133.553 151.063 134.014 151.573 134.468C152.713 135.484 153.791 136.498 154.771 137.668C155.082 138.033 155.405 138.387 155.735 138.735C158.527 141.678 160.822 145.019 162.719 148.599C162.832 148.804 162.946 149.008 163.063 149.219C165.113 153.061 166.116 157.444 164.91 161.709C163.777 164.892 161.817 166.932 158.84 168.477C153.462 170.676 148.112 170.714 142.736 168.473C142.366 168.315 141.997 168.154 141.628 167.992C141.673 168.164 141.717 168.336 141.763 168.513C142.365 170.97 142.725 173.443 143.068 175.947C143.115 176.286 143.115 176.286 143.162 176.631C147.799 210.313 147.799 210.313 142.848 216.865C139.797 220.173 135.107 221.732 130.72 222.052C129.356 222.099 127.993 222.111 126.629 222.112C126.345 222.113 126.345 222.113 126.056 222.113C120.827 222.109 114.847 221.714 110.812 217.948C108.728 215.652 107.85 212.93 107.16 209.976C107.119 209.807 107.078 209.638 107.037 209.464C106.782 208.304 106.666 207.163 106.586 205.978C106.566 205.673 106.545 205.369 106.524 205.056C106.509 204.825 106.493 204.593 106.478 204.355C106.322 204.37 106.167 204.384 106.006 204.399C101.127 204.834 96.2778 204.916 91.3819 204.903C90.3395 204.901 89.2972 204.902 88.2549 204.905C83.3171 204.916 78.4298 204.79 73.5088 204.355C73.4935 204.569 73.4783 204.782 73.4625 205.002C73.4314 205.425 73.4314 205.425 73.3996 205.856C73.3692 206.274 73.3692 206.274 73.3382 206.7C73.2442 207.755 73.0685 208.776 72.8421 209.81C72.7996 210.005 72.757 210.201 72.7132 210.402C71.8916 214.016 70.5085 216.927 67.4483 219.143C63.3606 221.626 58.7535 222.099 54.0847 222.11C53.5172 222.112 52.9499 222.12 52.3824 222.128C46.9925 222.166 41.7626 221.132 37.6914 217.37C34.5475 214.041 34.6063 210.226 34.646 205.916C34.6474 205.657 34.6487 205.398 34.6501 205.132C34.7 195.653 35.5657 186.265 36.7975 176.871C36.8217 176.686 36.8459 176.501 36.8708 176.31C37.2266 173.608 37.6538 170.921 38.1156 168.235C37.8141 168.334 37.5125 168.434 37.2018 168.536C31.5199 170.387 26.3357 170.99 20.7978 168.326C17.9419 166.856 16.0415 164.666 14.8908 161.666C13.5636 156.948 15.3129 151.945 17.5625 147.815C19.4486 144.486 21.7009 141.525 24.2892 138.713C24.733 138.229 25.1604 137.736 25.5856 137.236C27.3449 135.219 29.2864 133.358 31.3279 131.63C31.5822 131.409 31.8363 131.187 32.0902 130.966C33.9652 129.336 35.8865 127.788 37.8732 126.296C37.7341 126.234 37.5951 126.172 37.4518 126.108C36.9958 125.902 36.5408 125.695 36.0863 125.486C35.4538 125.197 34.8201 124.915 34.1829 124.637C29.8065 122.69 25.9118 120.044 22.3584 116.842C22.1553 116.668 21.9522 116.494 21.7429 116.315C20.5404 115.279 19.4845 114.19 18.4797 112.963C18.2831 112.73 18.0866 112.497 17.8841 112.257C15.2739 109.099 13.1706 105.526 11.4496 101.812C10.1678 101.915 9.04278 102.186 7.81327 102.57C6.45275 102.968 5.54338 103.179 4.17699 102.782C3.22195 102.2 2.76384 101.684 2.48006 100.6C2.35995 99.6592 2.43964 99.2248 2.87399 98.3728C4.03919 96.993 5.60416 96.7613 7.29813 96.4335C7.51125 96.3905 7.72437 96.3475 7.94395 96.3033C8.4657 96.1984 8.98774 96.0954 9.5102 95.9941C9.47603 95.8417 9.44185 95.6893 9.40663 95.5323C8.79332 92.7864 8.18781 90.0571 7.81327 87.267C7.54931 87.2765 7.54931 87.2765 7.28002 87.2863C6.47805 87.3115 5.67616 87.3272 4.87394 87.3428C4.59708 87.3529 4.32021 87.3631 4.03495 87.3736C1.73097 87.407 1.73097 87.407 0.845625 86.6865C0.122366 85.8519 0.0184303 85.4686 0.0104164 84.3883C0.0052603 84.0742 0.0052603 84.0742 0 83.7538C0.0821608 82.8598 0.335934 82.3546 1.01039 81.7671C2.56245 81.102 4.29847 81.196 5.96388 81.2018C6.34939 81.2028 6.34939 81.2028 6.74269 81.2039C6.93598 81.2048 7.12928 81.2056 7.32843 81.2066C7.32463 81.0068 7.32082 80.8071 7.31689 80.6013C7.17174 71.793 8.41206 63.1907 12.067 55.0774C12.1686 54.8517 12.2702 54.626 12.3749 54.3935C12.5689 53.9719 12.7687 53.5528 12.9754 53.1373C13.7042 51.578 13.6754 50.4016 13.3889 48.7224C13.3562 48.5159 13.3236 48.3093 13.2899 48.0964C13.2195 47.6648 13.1467 47.2335 13.0719 46.8026C11.3041 36.454 10.598 25.4658 11.9344 15.0262C11.9591 14.8235 11.9838 14.6207 12.0092 14.4119C12.564 9.99219 13.4889 4.52098 17.0252 1.45075C23.3646 -2.5611 32.3875 2.72003 38.1156 5.57187Z" fill="#FBE9CC"/>
<path d="M38.1156 5.57187C38.3178 5.67183 38.52 5.77179 38.7283 5.87478C42.0061 7.5061 45.1168 9.4144 48.232 11.3322C49.1879 11.9207 50.1464 12.5047 51.1068 13.0859C51.3567 13.2372 51.6066 13.3886 51.8641 13.5445C52.3279 13.8251 52.7917 14.1056 53.2557 14.3858C53.4653 14.5131 53.6749 14.6404 53.8908 14.7715C54.091 14.8928 54.2911 15.0142 54.4972 15.1393C55.2674 15.6265 56.0039 16.1576 56.7353 16.7012C57.6351 17.1488 58.4203 17.0457 59.3718 16.7922C59.5921 16.7116 59.8124 16.631 60.0394 16.548C60.2925 16.4582 60.5457 16.3684 60.8065 16.2759C61.0784 16.1785 61.3502 16.0811 61.6303 15.9807C70.6063 12.8853 79.9911 11.5211 89.463 11.5717C89.7188 11.5726 89.9746 11.5734 90.2382 11.5743C100.35 11.6128 110.078 13.2386 119.724 16.3027C119.954 16.3743 120.184 16.4459 120.422 16.5197C121.023 16.7231 121.023 16.7231 121.797 17.1029C122.948 17.2807 123.661 16.5715 124.568 15.9201C125.002 15.6243 125.436 15.3295 125.87 15.0357C126.104 14.8767 126.338 14.7177 126.578 14.5539C127.91 13.6678 129.276 12.8387 130.644 12.0111C130.787 11.9244 130.93 11.8376 131.078 11.7483C135.144 9.28838 139.264 6.89994 143.552 4.84521C144.115 4.57177 144.674 4.28923 145.233 4.00657C149.209 2.02173 153.446 0.206073 157.946 0.178056C158.144 0.173056 158.342 0.168056 158.546 0.162905C160.492 0.150498 162.079 0.628375 163.529 1.97347C167.299 6.17007 167.744 12.8401 168.295 18.1777C168.321 18.4331 168.321 18.4331 168.349 18.6936C169.111 26.4532 168.381 34.3905 167.582 42.1165C167.552 42.414 167.552 42.414 167.522 42.7175C167.151 46.3604 167.151 46.3604 166.773 47.9971C166.005 51.327 167.011 53.4672 168.456 56.4997C172.01 64.2694 172.819 72.7899 172.658 81.2066C172.92 81.2058 172.92 81.2058 173.188 81.2049C178.091 81.1963 178.091 81.1963 179.128 82.0399C179.967 82.9695 180.016 83.5486 179.997 84.7652C179.892 85.6586 179.567 86.1296 178.961 86.7822C176.906 88.0403 174.46 87.5086 172.173 87.267C172.148 87.4698 172.148 87.4698 172.122 87.6766C171.759 90.5171 171.307 93.2501 170.476 95.9941C170.774 96.0557 171.073 96.1172 171.38 96.1806C171.776 96.2648 172.171 96.3491 172.567 96.4335C172.763 96.4736 172.959 96.5138 173.161 96.5552C174.572 96.8591 175.772 97.2233 176.87 98.2062C177.421 99.1804 177.487 99.9909 177.264 101.085C176.848 101.89 176.271 102.399 175.507 102.888C173.783 103.24 171.99 102.645 170.34 102.161C170.142 102.104 169.943 102.047 169.739 101.989C169.257 101.851 168.776 101.71 168.295 101.57C168.253 101.704 168.212 101.839 168.17 101.977C167.75 103.301 167.239 104.514 166.582 105.736C166.488 105.913 166.393 106.09 166.295 106.273C164.763 109.068 162.879 111.508 160.661 113.797C160.409 114.058 160.158 114.321 159.908 114.585C155.139 119.634 148.58 124.276 141.871 126.296C142.166 126.521 142.166 126.521 142.467 126.75C145.098 128.759 147.644 130.824 150.062 133.087C150.561 133.553 151.063 134.014 151.573 134.468C152.713 135.484 153.791 136.498 154.771 137.668C155.082 138.033 155.405 138.387 155.735 138.735C158.527 141.678 160.822 145.019 162.719 148.599C162.832 148.804 162.946 149.008 163.063 149.219C165.113 153.061 166.116 157.444 164.91 161.709C163.777 164.892 161.817 166.932 158.84 168.477C153.462 170.676 148.112 170.714 142.736 168.473C142.366 168.315 141.997 168.154 141.628 167.992C141.673 168.164 141.717 168.336 141.763 168.513C142.365 170.97 142.725 173.443 143.068 175.947C143.115 176.286 143.115 176.286 143.162 176.631C147.799 210.313 147.799 210.313 142.848 216.865C139.797 220.173 135.107 221.732 130.72 222.052C129.356 222.099 127.993 222.111 126.629 222.112C126.345 222.113 126.345 222.113 126.056 222.113C120.827 222.109 114.847 221.714 110.812 217.948C108.728 215.652 107.85 212.93 107.16 209.976C107.119 209.807 107.078 209.638 107.037 209.464C106.782 208.304 106.666 207.163 106.586 205.978C106.566 205.673 106.545 205.369 106.524 205.056C106.509 204.825 106.493 204.593 106.478 204.355C106.322 204.37 106.167 204.384 106.006 204.399C101.127 204.834 96.2778 204.916 91.3819 204.903C90.3395 204.901 89.2972 204.902 88.2549 204.905C83.3171 204.916 78.4298 204.79 73.5088 204.355C73.4935 204.569 73.4783 204.782 73.4625 205.002C73.4314 205.425 73.4314 205.425 73.3996 205.856C73.3692 206.274 73.3692 206.274 73.3382 206.7C73.2442 207.755 73.0685 208.776 72.8421 209.81C72.7996 210.005 72.757 210.201 72.7132 210.402C71.8916 214.016 70.5085 216.927 67.4483 219.143C63.3606 221.626 58.7535 222.099 54.0847 222.11C53.5172 222.112 52.9499 222.12 52.3824 222.128C46.9925 222.166 41.7626 221.132 37.6914 217.37C34.5475 214.041 34.6063 210.226 34.646 205.916C34.6474 205.657 34.6487 205.398 34.6501 205.132C34.7 195.653 35.5657 186.265 36.7975 176.871C36.8217 176.686 36.8459 176.501 36.8708 176.31C37.2266 173.608 37.6538 170.921 38.1156 168.235C37.8141 168.334 37.5125 168.434 37.2018 168.536C31.5199 170.387 26.3357 170.99 20.7978 168.326C17.9419 166.856 16.0415 164.666 14.8908 161.666C13.5636 156.948 15.3129 151.945 17.5625 147.815C19.4486 144.486 21.7009 141.525 24.2892 138.713C24.733 138.229 25.1604 137.736 25.5856 137.236C27.3449 135.219 29.2864 133.358 31.3279 131.63C31.5822 131.409 31.8363 131.187 32.0902 130.966C33.9652 129.336 35.8865 127.788 37.8732 126.296C37.7341 126.234 37.5951 126.172 37.4518 126.108C36.9958 125.902 36.5408 125.695 36.0863 125.486C35.4538 125.197 34.8201 124.915 34.1829 124.637C29.8065 122.69 25.9118 120.044 22.3584 116.842C22.1553 116.668 21.9522 116.494 21.7429 116.315C20.5404 115.279 19.4845 114.19 18.4797 112.963C18.2831 112.73 18.0866 112.497 17.8841 112.257C15.2739 109.099 13.1706 105.526 11.4496 101.812C10.1678 101.915 9.04278 102.186 7.81327 102.57C6.45275 102.968 5.54338 103.179 4.17699 102.782C3.22195 102.2 2.76384 101.684 2.48006 100.6C2.35995 99.6592 2.43964 99.2248 2.87399 98.3728C4.03919 96.993 5.60416 96.7613 7.29813 96.4335C7.51125 96.3905 7.72437 96.3475 7.94395 96.3033C8.4657 96.1984 8.98774 96.0954 9.5102 95.9941C9.47603 95.8417 9.44185 95.6893 9.40663 95.5323C8.79332 92.7864 8.18781 90.0571 7.81327 87.267C7.54931 87.2765 7.54931 87.2765 7.28002 87.2863C6.47805 87.3115 5.67616 87.3272 4.87394 87.3428C4.59708 87.3529 4.32021 87.3631 4.03495 87.3736C1.73097 87.407 1.73097 87.407 0.845625 86.6865C0.122366 85.8519 0.0184303 85.4686 0.0104164 84.3883C0.0052603 84.0742 0.0052603 84.0742 0 83.7538C0.0821608 82.8598 0.335934 82.3546 1.01039 81.7671C2.56245 81.102 4.29847 81.196 5.96388 81.2018C6.34939 81.2028 6.34939 81.2028 6.74269 81.2039C6.93598 81.2048 7.12928 81.2056 7.32843 81.2066C7.32463 81.0068 7.32082 80.8071 7.31689 80.6013C7.17174 71.793 8.41206 63.1907 12.067 55.0774C12.1686 54.8517 12.2702 54.626 12.3749 54.3935C12.5689 53.9719 12.7687 53.5528 12.9754 53.1373C13.7042 51.578 13.6754 50.4016 13.3889 48.7224C13.3562 48.5159 13.3236 48.3093 13.2899 48.0964C13.2195 47.6648 13.1467 47.2335 13.0719 46.8026C11.3041 36.454 10.598 25.4658 11.9344 15.0262C11.9591 14.8235 11.9838 14.6207 12.0092 14.4119C12.564 9.99219 13.4889 4.52098 17.0252 1.45075C23.3646 -2.5611 32.3875 2.72003 38.1156 5.57187ZM20.9039 7.13245C19.8133 8.5297 19.351 9.91284 18.9342 11.6172C18.8958 11.7715 18.8573 11.9257 18.8177 12.0847C17.8526 16.3148 17.9069 20.607 17.9191 24.9199C17.9196 25.2459 17.92 25.5718 17.9204 25.8977C17.9337 32.8596 18.3526 39.6478 19.54 46.5101C20.0323 49.4474 20.4308 52.132 18.9797 54.8284C15.1038 62.7367 12.955 72.3748 13.3889 81.2066C13.8937 81.7113 14.9909 81.5163 15.6919 81.5399C17.314 81.6119 18.9076 81.7431 20.51 82.0096C20.7624 82.0479 20.7624 82.0479 21.0199 82.0871C22.1059 82.2821 22.8018 82.5923 23.5705 83.3883C23.9236 84.2686 23.9422 85.1695 23.651 86.072C23.3036 86.7497 22.9758 87.1977 22.2969 87.553C19.8984 88.2695 16.8418 87.69 14.3586 87.5094C14.2794 88.9937 14.5717 90.2754 14.9495 91.7063C15.0053 91.9258 15.061 92.1454 15.1185 92.3715C15.3888 93.4834 15.3888 93.4834 15.8131 94.5396C16.2323 94.5051 16.6515 94.4695 17.0706 94.4335C17.3041 94.4138 17.5375 94.3941 17.778 94.3739C18.4631 94.3116 18.4631 94.3116 19.0592 94.1703C19.8868 94.0191 20.6843 94.0135 21.5251 94.0093C21.8404 94.0059 22.1557 94.0024 22.4806 93.9989C23.6787 94.0779 23.6787 94.0779 24.2978 94.5396C24.7419 95.2107 24.8651 95.7867 24.8886 96.585C24.9032 96.8545 24.9032 96.8545 24.918 97.1295C24.7115 97.9859 24.3027 98.4527 23.5705 98.9031C22.6318 99.2189 21.6794 99.4037 20.7069 99.5849C20.4465 99.6373 20.186 99.6896 19.9176 99.7435C19.2774 99.8716 18.6367 99.9953 17.9949 100.115C19.0146 103.44 20.868 106.201 23.0857 108.842C23.2487 109.037 23.2487 109.037 23.415 109.235C29.0728 115.881 37.0075 119.792 45.2245 122.309C48.968 123.463 48.968 123.463 49.7517 124.842C49.9053 126.07 49.7581 126.763 49.0245 127.751C48.4364 128.075 48.4364 128.075 47.7366 128.327C43.2939 130.064 39.5139 132.612 36.0598 135.901C35.5657 136.368 35.0642 136.813 34.5494 137.255C31.7188 139.721 28.9723 142.437 26.7219 145.448C26.5045 145.731 26.287 146.014 26.0695 146.297C23.3618 149.863 20.2163 154.318 20.6615 159.023C20.9364 160.579 21.7593 161.483 22.954 162.475C25.496 164.236 28.6197 164.479 31.6025 163.957C33.4183 163.588 35.1387 163.036 36.8429 162.311C37.0018 162.244 37.1607 162.177 37.3243 162.108C38.457 161.596 39.4904 160.982 40.0018 159.796C40.1598 159.277 40.289 158.757 40.4101 158.228C40.4824 157.936 40.4824 157.936 40.5561 157.638C40.6583 157.223 40.7585 156.808 40.857 156.393C41.0103 155.747 41.1687 155.102 41.3287 154.458C41.5384 153.613 41.7466 152.769 41.9537 151.924C42.2991 150.522 42.6653 149.126 43.0549 147.735C43.1327 147.445 43.1327 147.445 43.212 147.148C43.5941 145.8 44.1075 144.672 45.2367 143.781C46.0189 143.446 46.4832 143.388 47.3275 143.508C48.0633 143.904 48.6084 144.249 49.1154 144.917C49.6029 146.624 49.031 148.282 48.5927 149.939C48.4479 150.502 48.3032 151.065 48.1585 151.627C48.0822 151.922 48.0059 152.216 47.9272 152.519C44.5672 165.516 42.2986 178.601 41.2671 191.992C41.2526 192.176 41.2382 192.361 41.2233 192.551C40.8972 196.755 40.7326 200.958 40.6973 205.175C40.6934 205.613 40.688 206.051 40.6811 206.49C40.5634 209.991 40.5634 209.991 42.1207 213.024C44.8334 215.762 49.5199 216.007 53.1433 216.038C59.3413 216.102 59.3413 216.102 64.6264 213.328C67.0593 210.344 67.2991 205.898 67.6388 202.209C67.7828 200.833 67.9316 199.837 68.9028 198.78C70.1039 197.938 71.0975 197.989 72.4936 198.113C72.6769 198.126 72.8602 198.139 73.049 198.152C73.7676 198.205 74.4837 198.267 75.1994 198.351C79.8761 198.896 84.6068 198.837 89.3088 198.84C89.6662 198.84 90.0237 198.841 90.3811 198.841C95.9075 198.85 101.387 198.71 106.887 198.119C108.409 197.993 109.536 197.909 110.841 198.78C112.28 200.539 112.394 202.542 112.629 204.719C113.22 209.758 113.22 209.758 115.826 213.991C119.554 216.809 126.155 216.339 130.522 215.78C133.321 215.369 136.214 214.828 138.174 212.613C139.368 210.987 139.491 209.308 139.481 207.334C139.48 207.147 139.48 206.961 139.479 206.768C139.455 203.971 139.296 201.178 139.144 198.386C139.128 198.088 139.111 197.789 139.095 197.482C138.362 184.138 136.674 170.875 133.423 157.898C133.382 157.734 133.341 157.57 133.299 157.401C132.885 155.751 132.466 154.103 132.038 152.457C131.916 151.99 131.796 151.522 131.676 151.054C131.527 150.478 131.377 149.903 131.224 149.328C130.862 147.916 130.592 146.664 130.72 145.205C131.245 144.341 131.729 143.884 132.659 143.508C133.188 143.471 133.188 143.471 133.735 143.523C133.914 143.536 134.094 143.549 134.279 143.562C135.115 143.842 135.483 144.293 136.053 144.963C136.35 145.61 136.531 146.274 136.712 146.962C136.766 147.156 136.82 147.35 136.876 147.549C137.05 148.176 137.218 148.804 137.386 149.432C137.505 149.863 137.623 150.293 137.742 150.723C138.421 153.198 139.07 155.679 139.53 158.206C139.792 159.534 140.159 160.257 141.144 161.205C144.842 163.568 149.325 164.711 153.658 163.841C155.954 163.247 157.552 162.319 158.826 160.295C159.738 158.36 159.327 156.523 158.692 154.578C156.82 149.644 153.642 145.671 150.113 141.811C149.906 141.579 149.699 141.346 149.485 141.107C147.93 139.369 146.289 137.774 144.537 136.236C144.416 136.127 144.294 136.019 144.169 135.907C140.655 132.79 136.878 129.957 132.386 128.448C131.62 128.178 131.192 127.983 130.553 127.463C130.113 126.521 129.955 125.614 130.235 124.6C131.079 123.542 131.824 123.18 133.114 122.827C133.461 122.726 133.808 122.624 134.154 122.522C134.342 122.467 134.529 122.412 134.723 122.356C142.468 120.035 149.03 116.534 154.962 111.024C155.126 110.876 155.29 110.727 155.46 110.574C158.385 107.82 160.819 103.943 161.992 100.115C161.822 100.085 161.652 100.054 161.477 100.023C160.703 99.882 159.931 99.7336 159.158 99.5849C158.891 99.5373 158.624 99.4896 158.348 99.4405C155.809 98.9419 155.809 98.9419 154.962 97.691C154.755 96.9431 154.809 96.2675 154.962 95.5093C155.396 94.8134 155.685 94.4205 156.416 94.0547C158.974 93.8388 161.429 94.3102 163.931 94.782C164.435 93.4915 164.856 92.2172 165.189 90.873C165.232 90.7089 165.274 90.5449 165.319 90.3759C165.563 89.3996 165.673 88.5147 165.628 87.5094C165.387 87.5269 165.147 87.5444 164.899 87.5625C163.234 87.6787 161.569 87.7768 159.901 87.8125C159.638 87.8187 159.375 87.825 159.103 87.8314C158.22 87.7375 157.653 87.4911 156.901 87.0246C156.356 86.1115 156.174 85.5121 156.174 84.4489C156.47 83.4493 156.809 83.0559 157.628 82.4186C158.698 81.9885 159.668 81.849 160.816 81.7804C160.975 81.7703 161.134 81.7602 161.298 81.7499C161.802 81.7184 162.306 81.6897 162.81 81.6611C163.154 81.6401 163.497 81.619 163.841 81.5976C164.679 81.546 165.517 81.4968 166.355 81.449C166.443 77.3426 166.384 73.3721 165.628 69.328C165.589 69.1166 165.55 68.9051 165.51 68.6873C164.546 63.6499 162.955 58.6666 160.717 54.049C159.569 51.5735 160.124 49.2189 160.529 46.6055C161.63 39.3976 162.054 32.1773 162.067 24.8896C162.068 24.6503 162.069 24.411 162.07 24.1644C162.078 19.9542 161.981 15.6594 160.946 11.5566C160.901 11.353 160.855 11.1494 160.808 10.9397C160.407 9.28303 159.811 7.75465 158.355 6.78397C157.017 6.69669 155.868 6.84559 154.583 7.2385C154.408 7.2913 154.234 7.34409 154.054 7.39848C144.209 10.5227 134.684 16.5955 126.311 22.5278C124.69 23.6477 123.231 24.1693 121.265 23.9957C120.519 23.7457 120.519 23.7457 119.75 23.3897C115.094 21.3804 109.992 20.3074 105.023 19.3897C104.829 19.3526 104.635 19.3155 104.435 19.2773C89.9316 16.5408 74.1655 18.1796 60.3837 23.3434C58.7794 23.94 57.4783 24.3278 55.8274 23.6624C53.4789 22.5321 51.3133 20.9854 49.1305 19.5716C45.4776 17.2109 41.753 14.9566 37.9247 12.8916C37.5587 12.6939 37.1932 12.4952 36.8284 12.2954C29.1399 7.72612 29.1399 7.72612 20.9039 7.13245Z" fill="black"/>
<path d="M89.7811 138.296C90.0651 138.298 90.3491 138.299 90.6416 138.301C96.0981 138.414 100.508 140.355 104.296 144.235C104.49 144.427 104.684 144.619 104.884 144.817C110.66 150.822 112.432 159.927 112.398 167.968C112.302 172.551 111.009 176.36 107.69 179.629C107.535 179.783 107.38 179.937 107.221 180.096C101.636 185.321 93.6092 185.245 86.4527 185.013C81.6738 184.813 77.0949 183.523 73.2663 180.598C73.0848 180.461 72.9032 180.324 72.7162 180.183C69.5692 177.625 67.9313 173.667 67.4889 169.708C67.3583 168.091 67.417 166.461 67.4483 164.841C67.4523 164.581 67.4564 164.321 67.4606 164.053C67.7944 156.881 70.5662 149.903 75.2057 144.478C75.3497 144.309 75.4938 144.14 75.6422 143.966C79.2668 140.053 84.555 138.266 89.7811 138.296Z" fill="#F2D3A3"/>
<path d="M106.337 139.064C106.543 139.251 106.75 139.437 106.963 139.629C107.167 139.814 107.371 139.998 107.581 140.187C111.385 143.803 113.805 148.516 115.447 153.447C115.536 153.706 115.625 153.965 115.717 154.231C117.706 160.53 118.284 167.859 116.659 174.295C116.62 174.453 116.581 174.611 116.541 174.773C115.283 179.618 111.987 183.658 107.712 186.208C102.194 189.295 96.3695 190.109 90.1447 190.113C89.8378 190.113 89.8378 190.113 89.5247 190.114C86.4022 190.11 83.3541 190.02 80.2964 189.325C80.1174 189.285 79.9383 189.245 79.7538 189.203C74.0854 187.863 68.6619 184.719 65.5341 179.714C61.6471 173.247 61.6905 164.397 63.4151 157.214C63.4661 157.011 63.517 156.808 63.5695 156.599C63.6202 156.393 63.6709 156.187 63.7231 155.975C65.1613 150.316 67.6976 145.224 71.5694 140.842C71.7916 140.589 71.7916 140.589 72.0182 140.331C80.7669 131.005 96.8453 130.907 106.337 139.064ZM74.3354 145.447C69.9916 150.86 67.7022 157.946 67.4482 164.841C67.4416 165.006 67.435 165.17 67.4282 165.34C67.2622 170.027 67.9579 174.326 70.8421 178.174C70.993 178.389 70.993 178.389 71.147 178.609C74.2966 182.73 79.9488 184.177 84.8155 184.893C86.5234 185.098 88.2456 185.07 89.9629 185.053C90.2653 185.051 90.2653 185.051 90.5738 185.05C97.217 185.009 103.27 184.04 108.175 179.144C108.41 178.912 108.41 178.912 108.651 178.676C112.157 174.978 112.486 170.128 112.372 165.306C112.074 157.482 109.576 149.679 104.053 143.993C103.915 143.839 103.776 143.686 103.633 143.527C100.596 140.259 95.9631 138.525 91.5765 138.324C84.5443 138.145 79.0564 140.067 74.3354 145.447Z" fill="black"/>
<path d="M144.492 80.5247C147.086 82.2997 148.661 84.7043 149.386 87.7519C149.791 91.5441 148.979 94.4267 146.602 97.4164C144.665 99.5735 141.927 100.701 139.092 100.902C135.65 101.017 132.844 100.026 130.236 97.7545C127.964 95.3916 127.008 92.4399 127.047 89.2272C127.197 86.119 128.415 83.5545 130.72 81.449C134.949 78.2739 139.88 77.7971 144.492 80.5247Z" fill="#F4A99C"/>
<path d="M47.0851 79.9945C47.272 80.0876 47.4589 80.1807 47.6514 80.2766C50.0658 81.6365 51.8116 84.2369 52.6305 86.8428C53.3278 89.8075 53.0413 92.7795 51.5595 95.4581C49.9622 97.8778 47.6793 99.6997 44.9034 100.6C41.8062 101.204 38.7165 101.045 35.9405 99.4618C33.4117 97.7435 31.5031 95.381 30.8431 92.3578C30.529 88.2036 31.0216 85.381 33.7066 82.1289C37.1674 78.3365 42.6482 77.7821 47.0851 79.9945Z" fill="#F4A99C"/>
<path d="M28.2967 15.154C29.9045 15.3709 31.3328 16.0285 32.7824 16.7231C32.9322 16.7945 33.082 16.8659 33.2363 16.9394C37.1455 18.8384 40.5854 21.4851 43.9966 24.1509C44.3668 24.4401 44.7395 24.7262 45.1127 25.0118C45.798 25.5918 46.0918 25.9906 46.2054 26.8886C46.0927 27.8201 45.8725 28.0213 45.161 28.6168C44.94 28.8031 44.7191 28.9893 44.4915 29.1812C43.3953 30.0576 42.2752 30.9036 41.1548 31.7487C39.704 32.8473 38.3223 34.0094 36.9509 35.2047C36.2622 35.8045 35.5561 36.3793 34.843 36.95C33.7849 37.8071 32.7891 38.7149 31.7976 39.6469C29.7583 41.5514 29.7583 41.5514 28.7825 42.3892C28.605 42.5436 28.4275 42.698 28.2447 42.857C27.6916 43.1468 27.6916 43.1468 26.9294 43.1212C26.2371 42.9044 26.2371 42.9044 25.7068 42.1317C23.8968 37.8807 23.9723 32.7032 23.9922 28.17C23.9948 27.4633 23.9922 26.7568 23.9891 26.0501C23.9826 17.9863 23.9826 17.9863 25.8252 15.5849C26.5779 15.007 27.3815 15.1287 28.2967 15.154Z" fill="#F4A99C"/>
<path d="M153.507 15.2686C155.305 16.6922 155.542 19.2291 155.794 21.3859C156.414 27.9404 156.815 36.5964 153.992 42.662C153.228 43.044 152.625 43.1283 151.81 42.9044C151.057 42.3785 150.42 41.7455 149.768 41.0994C149.012 40.3546 148.235 39.6311 147.462 38.9045C147.294 38.7464 147.126 38.5884 146.954 38.4256C145.63 37.1848 144.262 36.0317 142.841 34.9046C142.411 34.5516 141.982 34.198 141.553 33.844C140.537 33.0126 139.51 32.1984 138.477 31.3895C138.191 31.1638 137.904 30.9381 137.618 30.7124C137.077 30.2862 136.531 29.8672 135.98 29.453C135.619 29.1741 135.619 29.1741 135.25 28.8895C135.036 28.728 134.822 28.5664 134.601 28.4C133.987 27.7377 133.894 27.3156 133.871 26.4199C135.015 24.6699 136.809 23.5174 138.477 22.2988C138.633 22.1833 138.789 22.0678 138.95 21.9489C149.421 14.2292 149.421 14.2292 153.507 15.2686Z" fill="#F4A99C"/>
<path d="M90.0538 76.7673C90.2929 76.7602 90.5319 76.7532 90.7782 76.7459C92.4589 76.7316 93.8423 76.9959 95.3264 77.8127C96.1773 78.6636 96.4965 79.3234 96.6143 80.5247C96.4657 82.3367 95.5769 83.5002 94.2961 84.7368C93.8719 85.0852 93.8719 85.0852 93.1598 85.4034C92.6143 85.7612 92.6143 85.7612 92.5604 86.3172C92.4883 88.3561 93.0329 90.2987 94.3567 91.873C95.9395 93.142 97.5229 93.6483 99.5384 93.5548C102.03 93.2451 103.494 92.1037 105.069 90.2026C105.664 89.5095 105.874 89.46 106.796 89.373C107.829 89.4606 108.179 89.696 108.902 90.4185C109.323 91.2605 109.256 92.1644 109.144 93.0851C107.891 95.4989 105.433 97.301 102.929 98.2421C100.159 99.0952 96.9791 99.004 94.335 97.8274C92.7905 96.9981 91.4531 96.0437 90.2356 94.782C89.5344 95.1025 89.151 95.3743 88.569 95.9183C85.8507 98.3175 82.6626 98.8851 79.1594 98.7146C75.856 98.3968 73.5435 96.4416 71.4557 94.0349C70.7765 93.1841 70.7481 92.5148 70.755 91.4516C70.8932 90.582 71.376 90.2079 72.0542 89.6912C72.7579 89.3393 73.2112 89.3585 73.9936 89.4488C74.8733 90.0536 75.4834 90.6947 76.145 91.5245C77.2266 92.7849 78.1287 93.2526 79.7974 93.4279C81.8314 93.5284 83.7548 93.4826 85.3872 92.1154C86.7717 90.5103 87.5009 88.8223 87.4667 86.696C87.2961 85.9154 87.0917 85.7229 86.4478 85.2671C86.2716 85.1586 86.0953 85.0502 85.9137 84.9385C84.7741 84.2067 83.7575 83.0227 83.4479 81.6914C83.3167 80.4735 83.3123 79.554 83.8418 78.4339C85.5018 76.6428 87.783 76.7892 90.0538 76.7673Z" fill="black"/>
<path d="M125.407 66.4152C126.001 66.7039 126.538 67.0182 127.083 67.3887C127.413 67.5912 127.413 67.5912 127.75 67.7978C129.432 69.5261 130.066 71.3454 130.069 73.7148C130.024 75.9381 129.274 77.5 127.76 79.1005C126.023 80.7359 124.24 81.108 121.915 81.0711C120.114 80.8551 118.507 80.0353 117.265 78.7066C117.053 78.4156 116.851 78.1174 116.659 77.8127C116.56 77.6677 116.461 77.5227 116.358 77.3733C115.249 75.4153 115.329 72.6445 115.887 70.5145C116.692 68.7117 118.144 67.3851 119.884 66.4938C121.606 65.8845 123.659 65.8576 125.407 66.4152Z" fill="black"/>
<path d="M60.312 66.6766C62.0692 67.7279 63.3477 69.0872 64.0544 71.025C64.6184 73.3416 64.4953 75.7093 63.3271 77.8127C62.1176 79.4188 60.7064 80.5433 58.7212 80.9641C56.4798 81.2324 54.7908 81.0035 52.9031 79.752C52.6431 79.587 52.3831 79.422 52.1153 79.2521C50.6105 77.8505 49.9314 76.0056 49.8329 73.9909C49.811 71.7157 50.1295 70.0125 51.7128 68.293C54.0364 66.0885 57.3112 65.282 60.312 66.6766Z" fill="black"/>
</svg>
