<svg width="350" height="350" viewBox="0 0 350 350" fill="none" xmlns="http://www.w3.org/2000/svg">
<path d="M119.517 98.5528C119.732 98.659 119.947 98.7653 120.168 98.8748C123.653 100.609 126.959 102.637 130.271 104.676C131.287 105.302 132.306 105.922 133.327 106.54C133.592 106.701 133.858 106.862 134.132 107.028C134.625 107.326 135.118 107.624 135.611 107.922C135.834 108.057 136.056 108.193 136.286 108.332C136.499 108.461 136.711 108.59 136.931 108.723C137.749 109.241 138.532 109.805 139.31 110.383C140.266 110.859 141.101 110.75 142.112 110.48C142.346 110.394 142.581 110.309 142.822 110.22C143.091 110.125 143.36 110.029 143.637 109.931C143.926 109.828 144.215 109.724 144.513 109.617C154.054 106.327 164.031 104.877 174.099 104.931C174.371 104.932 174.643 104.932 174.923 104.933C185.672 104.974 196.013 106.703 206.266 109.96C206.511 110.036 206.756 110.112 207.008 110.19C207.647 110.407 207.647 110.407 208.471 110.81C209.693 110.999 210.451 110.245 211.416 109.553C211.877 109.239 212.338 108.925 212.8 108.613C213.049 108.444 213.297 108.275 213.553 108.101C214.968 107.159 216.42 106.277 217.874 105.398C218.027 105.305 218.179 105.213 218.336 105.118C222.658 102.503 227.038 99.9645 231.596 97.7803C232.195 97.4897 232.788 97.1893 233.382 96.8889C237.609 94.779 242.113 92.8489 246.897 92.8192C247.107 92.8138 247.318 92.8085 247.535 92.8031C249.603 92.7899 251.29 93.2978 252.832 94.7277C256.839 99.1887 257.311 106.279 257.897 111.953C257.925 112.224 257.925 112.224 257.954 112.501C258.765 120.75 257.989 129.187 257.14 137.4C257.108 137.716 257.108 137.716 257.076 138.039C256.682 141.911 256.682 141.911 256.279 143.651C255.464 147.19 256.533 149.466 258.068 152.689C261.847 160.948 262.706 170.006 262.536 178.952C262.814 178.952 262.814 178.952 263.098 178.951C268.31 178.942 268.31 178.942 269.413 179.838C270.304 180.826 270.358 181.442 270.337 182.735C270.225 183.685 269.88 184.186 269.235 184.879C267.051 186.217 264.451 185.652 262.02 185.395C261.993 185.61 261.993 185.61 261.966 185.83C261.58 188.85 261.099 191.755 260.216 194.672C260.533 194.737 260.85 194.802 261.177 194.87C261.597 194.959 262.018 195.049 262.439 195.139C262.647 195.181 262.855 195.224 263.07 195.268C264.57 195.591 265.845 195.978 267.013 197.023C267.598 198.059 267.669 198.92 267.432 200.083C266.989 200.939 266.376 201.481 265.563 202C263.732 202.374 261.825 201.742 260.071 201.227C259.861 201.166 259.65 201.106 259.433 201.044C258.92 200.897 258.409 200.748 257.897 200.599C257.853 200.741 257.81 200.884 257.765 201.032C257.318 202.438 256.775 203.728 256.077 205.028C255.976 205.216 255.875 205.404 255.772 205.598C254.143 208.569 252.14 211.163 249.783 213.596C249.514 213.873 249.248 214.153 248.983 214.433C243.913 219.801 236.941 224.735 229.809 226.883C230.122 227.122 230.122 227.122 230.442 227.365C233.239 229.501 235.945 231.696 238.516 234.101C239.046 234.597 239.58 235.086 240.122 235.569C241.333 236.649 242.479 237.727 243.522 238.971C243.853 239.359 244.196 239.735 244.546 240.105C247.514 243.234 249.954 246.785 251.97 250.591C252.091 250.808 252.211 251.026 252.336 251.25C254.515 255.333 255.581 259.993 254.299 264.527C253.095 267.91 251.011 270.079 247.847 271.721C242.13 274.059 236.443 274.099 230.729 271.717C230.335 271.549 229.943 271.378 229.551 271.206C229.598 271.388 229.645 271.571 229.694 271.759C230.334 274.371 230.717 277 231.081 279.661C231.131 280.021 231.131 280.021 231.182 280.389C236.111 316.193 236.111 316.193 230.848 323.158C227.604 326.673 222.619 328.331 217.955 328.671C216.505 328.721 215.057 328.734 213.606 328.735C213.305 328.736 213.305 328.736 212.998 328.736C207.439 328.731 201.082 328.311 196.793 324.308C194.578 321.868 193.645 318.975 192.911 315.835C192.868 315.655 192.824 315.475 192.78 315.29C192.509 314.057 192.386 312.844 192.301 311.584C192.279 311.261 192.257 310.937 192.235 310.604C192.219 310.358 192.202 310.113 192.186 309.86C192.02 309.875 191.855 309.89 191.685 309.906C186.498 310.368 181.343 310.456 176.139 310.442C175.031 310.439 173.923 310.441 172.815 310.444C167.566 310.456 162.371 310.321 157.14 309.86C157.124 310.087 157.107 310.314 157.091 310.547C157.058 310.996 157.058 310.996 157.024 311.455C156.992 311.899 156.992 311.899 156.959 312.352C156.859 313.474 156.672 314.558 156.431 315.658C156.386 315.866 156.341 316.073 156.294 316.288C155.421 320.129 153.951 323.223 150.698 325.579C146.352 328.218 141.455 328.721 136.492 328.733C135.889 328.735 135.286 328.743 134.682 328.752C128.953 328.792 123.394 327.693 119.066 323.694C115.724 320.155 115.786 316.1 115.829 311.518C115.83 311.243 115.832 310.968 115.833 310.685C115.886 300.609 116.806 290.63 118.116 280.644C118.141 280.447 118.167 280.25 118.194 280.047C118.572 277.175 119.026 274.319 119.517 271.464C119.196 271.569 118.876 271.675 118.546 271.784C112.506 273.751 106.995 274.392 101.108 271.56C98.0722 269.998 96.0521 267.669 94.8289 264.481C93.4181 259.466 95.2776 254.147 97.6689 249.758C99.6738 246.218 102.068 243.071 104.819 240.082C105.291 239.567 105.745 239.043 106.197 238.511C108.068 236.367 110.131 234.389 112.302 232.552C112.572 232.317 112.842 232.082 113.112 231.847C115.105 230.114 117.147 228.469 119.259 226.883C119.111 226.817 118.964 226.751 118.811 226.683C118.327 226.464 117.843 226.243 117.36 226.021C116.687 225.714 116.014 225.415 115.336 225.119C110.684 223.049 106.544 220.237 102.767 216.833C102.551 216.648 102.335 216.463 102.113 216.272C100.834 215.172 99.712 214.014 98.6439 212.71C98.435 212.462 98.226 212.214 98.0108 211.959C95.2362 208.602 93.0003 204.804 91.1709 200.856C89.8084 200.965 88.6125 201.254 87.3055 201.661C85.8593 202.085 84.8926 202.309 83.4401 201.887C82.4249 201.269 81.938 200.72 81.6363 199.568C81.5086 198.568 81.5933 198.106 82.0551 197.2C83.2937 195.733 84.9572 195.487 86.7579 195.139C86.9845 195.093 87.211 195.047 87.4444 195C87.999 194.889 88.554 194.779 89.1093 194.672C89.073 194.51 89.0367 194.348 88.9992 194.181C88.3473 191.262 87.7036 188.361 87.3055 185.395C87.0249 185.405 87.0249 185.405 86.7387 185.415C85.8862 185.442 85.0338 185.459 84.181 185.475C83.8867 185.486 83.5924 185.497 83.2891 185.508C80.84 185.544 80.84 185.544 79.8989 184.778C79.1301 183.89 79.0196 183.483 79.0111 182.335C79.0056 182.001 79.0056 182.001 79 181.66C79.0873 180.71 79.3571 180.173 80.074 179.548C81.7239 178.841 83.5693 178.941 85.3396 178.947C85.7494 178.948 85.7494 178.948 86.1675 178.95C86.373 178.951 86.5784 178.951 86.7901 178.952C86.7861 178.74 86.782 178.528 86.7779 178.309C86.6236 168.946 87.942 159.802 91.8272 151.177C91.9352 150.937 92.0432 150.697 92.1545 150.45C92.3608 150.002 92.5731 149.557 92.7928 149.115C93.5675 147.457 93.537 146.207 93.2324 144.422C93.1977 144.202 93.1629 143.983 93.1272 143.756C93.0523 143.298 92.975 142.839 92.8954 142.381C91.0163 131.38 90.2657 119.7 91.6863 108.603C91.7125 108.387 91.7387 108.172 91.7658 107.95C92.3555 103.252 93.3387 97.4357 97.0978 94.172C103.837 89.9074 113.428 95.5213 119.517 98.5528Z" fill="#FBE9CC"/>
<path d="M256.521 149.028C256.521 165.747 221.592 137.235 176.415 137.235C131.238 137.235 93.8818 165.747 93.8818 149.028C93.8818 132.309 131.238 110.701 176.415 110.701C221.592 110.701 256.521 132.309 256.521 149.028Z" fill="#AADCE7"/>
<path d="M100.886 96.7707L124.177 105.917L141.47 119.564L99.8805 143.307L94.4133 121.862L100.886 96.7707Z" fill="#AADCE7"/>
<path d="M249.271 93.8713L225.979 103.018L208.686 116.665L250.276 140.408L255.743 118.963L249.271 93.8713Z" fill="#AADCE7"/>
<path d="M119.517 98.5528C119.732 98.659 119.947 98.7653 120.168 98.8748C123.653 100.609 126.959 102.637 130.271 104.676C131.287 105.302 132.306 105.922 133.327 106.54C133.592 106.701 133.858 106.862 134.132 107.028C134.625 107.326 135.118 107.624 135.611 107.922C135.834 108.057 136.056 108.193 136.286 108.332C136.499 108.461 136.711 108.59 136.931 108.723C137.749 109.241 138.532 109.805 139.31 110.383C140.266 110.859 141.101 110.75 142.112 110.48C142.346 110.394 142.581 110.309 142.822 110.22C143.091 110.125 143.36 110.029 143.637 109.931C143.926 109.828 144.215 109.724 144.513 109.617C154.054 106.327 164.031 104.877 174.099 104.931C174.371 104.932 174.643 104.932 174.923 104.933C185.672 104.974 196.013 106.703 206.266 109.96C206.511 110.036 206.756 110.112 207.008 110.19C207.647 110.407 207.647 110.407 208.471 110.81C209.693 110.999 210.451 110.245 211.416 109.553C211.877 109.239 212.338 108.925 212.8 108.613C213.049 108.444 213.297 108.275 213.553 108.101C214.968 107.159 216.42 106.277 217.874 105.398C218.027 105.305 218.179 105.213 218.336 105.118C222.658 102.503 227.038 99.9645 231.596 97.7803C232.195 97.4897 232.788 97.1893 233.382 96.8889C237.609 94.779 242.113 92.8489 246.897 92.8192C247.107 92.8138 247.318 92.8085 247.535 92.8031C249.603 92.7899 251.29 93.2978 252.832 94.7277C256.839 99.1887 257.311 106.279 257.897 111.953C257.925 112.224 257.925 112.224 257.954 112.501C258.765 120.75 257.989 129.187 257.14 137.4C257.108 137.716 257.108 137.716 257.076 138.039C256.682 141.911 256.682 141.911 256.279 143.651C255.464 147.19 256.533 149.466 258.068 152.689C261.847 160.948 262.706 170.006 262.536 178.952C262.814 178.952 262.814 178.952 263.098 178.951C268.31 178.942 268.31 178.942 269.413 179.838C270.304 180.826 270.358 181.442 270.337 182.735C270.225 183.685 269.88 184.186 269.235 184.879C267.051 186.217 264.451 185.652 262.02 185.395C261.993 185.61 261.993 185.61 261.966 185.83C261.58 188.85 261.099 191.755 260.216 194.672C260.533 194.737 260.85 194.802 261.177 194.87C261.597 194.959 262.018 195.049 262.439 195.139C262.647 195.181 262.855 195.224 263.07 195.268C264.57 195.591 265.845 195.978 267.013 197.023C267.598 198.059 267.669 198.92 267.432 200.083C266.989 200.939 266.376 201.481 265.563 202C263.732 202.374 261.825 201.742 260.071 201.227C259.861 201.166 259.65 201.106 259.433 201.044C258.92 200.897 258.409 200.748 257.897 200.599C257.853 200.741 257.81 200.884 257.765 201.032C257.318 202.438 256.775 203.728 256.077 205.028C255.976 205.216 255.875 205.404 255.772 205.598C254.143 208.569 252.14 211.163 249.783 213.596C249.514 213.873 249.248 214.153 248.983 214.433C243.913 219.801 236.941 224.735 229.809 226.883C230.122 227.122 230.122 227.122 230.442 227.365C233.239 229.501 235.945 231.696 238.516 234.101C239.046 234.597 239.58 235.086 240.122 235.569C241.333 236.649 242.479 237.727 243.522 238.971C243.853 239.359 244.196 239.735 244.546 240.105C247.514 243.234 249.954 246.785 251.97 250.591C252.091 250.808 252.211 251.026 252.336 251.25C254.515 255.333 255.581 259.993 254.299 264.527C253.095 267.91 251.011 270.079 247.847 271.721C242.13 274.059 236.443 274.099 230.729 271.717C230.335 271.549 229.943 271.378 229.551 271.206C229.598 271.388 229.645 271.571 229.694 271.759C230.334 274.371 230.717 277 231.081 279.661C231.131 280.021 231.131 280.021 231.182 280.389C236.111 316.193 236.111 316.193 230.848 323.158C227.604 326.673 222.619 328.331 217.955 328.671C216.505 328.721 215.057 328.734 213.606 328.735C213.305 328.736 213.305 328.736 212.998 328.736C207.439 328.731 201.082 328.311 196.793 324.308C194.578 321.868 193.645 318.975 192.911 315.835C192.868 315.655 192.824 315.475 192.78 315.29C192.509 314.057 192.386 312.844 192.301 311.584C192.279 311.261 192.257 310.937 192.235 310.604C192.219 310.358 192.202 310.113 192.186 309.86C192.02 309.875 191.855 309.89 191.685 309.906C186.498 310.368 181.343 310.456 176.139 310.442C175.031 310.439 173.923 310.441 172.815 310.444C167.566 310.456 162.371 310.321 157.14 309.86C157.124 310.087 157.107 310.314 157.091 310.547C157.058 310.996 157.058 310.996 157.024 311.455C156.992 311.899 156.992 311.899 156.959 312.352C156.859 313.474 156.672 314.558 156.431 315.658C156.386 315.866 156.341 316.073 156.294 316.288C155.421 320.129 153.951 323.223 150.698 325.579C146.352 328.218 141.455 328.721 136.492 328.733C135.889 328.735 135.286 328.743 134.682 328.752C128.953 328.792 123.394 327.693 119.066 323.694C115.724 320.155 115.786 316.1 115.829 311.518C115.83 311.243 115.832 310.968 115.833 310.685C115.886 300.609 116.806 290.63 118.116 280.644C118.141 280.447 118.167 280.25 118.194 280.047C118.572 277.175 119.026 274.319 119.517 271.464C119.196 271.569 118.876 271.675 118.546 271.784C112.506 273.751 106.995 274.392 101.108 271.56C98.0722 269.998 96.0521 267.669 94.8289 264.481C93.4181 259.466 95.2776 254.147 97.6689 249.758C99.6738 246.218 102.068 243.071 104.819 240.082C105.291 239.567 105.745 239.043 106.197 238.511C108.068 236.367 110.131 234.389 112.302 232.552C112.572 232.317 112.842 232.082 113.112 231.847C115.105 230.114 117.147 228.469 119.259 226.883C119.111 226.817 118.964 226.751 118.811 226.683C118.327 226.464 117.843 226.243 117.36 226.021C116.687 225.714 116.014 225.415 115.336 225.119C110.684 223.049 106.544 220.237 102.767 216.833C102.551 216.648 102.335 216.463 102.113 216.272C100.834 215.172 99.712 214.014 98.6439 212.71C98.435 212.462 98.226 212.214 98.0108 211.959C95.2362 208.602 93.0003 204.804 91.1709 200.856C89.8084 200.965 88.6125 201.254 87.3055 201.661C85.8593 202.085 84.8926 202.309 83.4401 201.887C82.4249 201.269 81.938 200.72 81.6363 199.568C81.5086 198.568 81.5933 198.106 82.0551 197.2C83.2937 195.733 84.9572 195.487 86.7579 195.139C86.9845 195.093 87.211 195.047 87.4444 195C87.999 194.889 88.554 194.779 89.1093 194.672C89.073 194.51 89.0367 194.348 88.9992 194.181C88.3473 191.262 87.7036 188.361 87.3055 185.395C87.0249 185.405 87.0249 185.405 86.7387 185.415C85.8862 185.442 85.0338 185.459 84.181 185.475C83.8867 185.486 83.5924 185.497 83.2891 185.508C80.84 185.544 80.84 185.544 79.8989 184.778C79.1301 183.89 79.0196 183.483 79.0111 182.335C79.0056 182.001 79.0056 182.001 79 181.66C79.0873 180.71 79.3571 180.173 80.074 179.548C81.7239 178.841 83.5693 178.941 85.3396 178.947C85.7494 178.948 85.7494 178.948 86.1675 178.95C86.373 178.951 86.5784 178.951 86.7901 178.952C86.7861 178.74 86.782 178.528 86.7779 178.309C86.6236 168.946 87.942 159.802 91.8272 151.177C91.9352 150.937 92.0432 150.697 92.1545 150.45C92.3608 150.002 92.5731 149.557 92.7928 149.115C93.5675 147.457 93.537 146.207 93.2324 144.422C93.1977 144.202 93.1629 143.983 93.1272 143.756C93.0523 143.298 92.975 142.839 92.8954 142.381C91.0163 131.38 90.2657 119.7 91.6863 108.603C91.7125 108.387 91.7387 108.172 91.7658 107.95C92.3555 103.252 93.3387 97.4357 97.0978 94.172C103.837 89.9074 113.428 95.5213 119.517 98.5528ZM101.221 100.212C100.062 101.697 99.5701 103.167 99.1271 104.979C99.0862 105.143 99.0453 105.307 99.0032 105.476C97.9773 109.972 98.0351 114.535 98.048 119.12C98.0485 119.466 98.049 119.813 98.0494 120.159C98.0635 127.56 98.5088 134.775 99.771 142.07C100.294 145.192 100.718 148.046 99.1754 150.912C95.0553 159.319 92.7711 169.564 93.2324 178.952C93.769 179.489 94.9353 179.282 95.6805 179.307C97.4048 179.383 99.0987 179.523 100.802 179.806C101.07 179.847 101.07 179.847 101.344 179.888C102.499 180.096 103.238 180.426 104.055 181.272C104.431 182.207 104.451 183.165 104.141 184.124C103.772 184.845 103.423 185.321 102.702 185.699C100.152 186.46 96.9028 185.844 94.2632 185.652C94.179 187.23 94.4897 188.593 94.8913 190.114C94.9506 190.347 95.0099 190.58 95.071 190.821C95.3583 192.003 95.3583 192.003 95.8093 193.125C96.255 193.089 96.7006 193.051 97.1461 193.013C97.3942 192.992 97.6424 192.971 97.898 192.949C98.6262 192.883 98.6262 192.883 99.26 192.733C100.14 192.572 100.987 192.566 101.881 192.562C102.216 192.558 102.552 192.554 102.897 192.551C104.17 192.635 104.17 192.635 104.829 193.125C105.301 193.839 105.432 194.451 105.457 195.3C105.472 195.586 105.472 195.586 105.488 195.879C105.268 196.789 104.834 197.285 104.055 197.764C103.058 198.1 102.045 198.296 101.011 198.489C100.735 198.544 100.458 198.6 100.172 198.657C99.4919 198.793 98.8108 198.925 98.1285 199.052C99.2125 202.587 101.183 205.521 103.54 208.329C103.713 208.536 103.713 208.536 103.89 208.747C109.904 215.812 118.339 219.968 127.074 222.645C131.053 223.871 131.053 223.871 131.886 225.337C132.049 226.643 131.893 227.379 131.113 228.429C130.488 228.773 130.488 228.773 129.744 229.041C125.021 230.888 121.003 233.596 117.332 237.093C116.806 237.589 116.273 238.062 115.726 238.532C112.717 241.154 109.798 244.04 107.405 247.241C107.174 247.542 106.943 247.843 106.712 248.144C103.834 251.934 100.49 256.67 100.963 261.671C101.255 263.325 102.13 264.286 103.4 265.34C106.102 267.212 109.423 267.471 112.593 266.916C114.524 266.524 116.352 265.937 118.164 265.166C118.333 265.095 118.502 265.024 118.676 264.951C119.88 264.406 120.978 263.754 121.522 262.494C121.69 261.941 121.827 261.389 121.956 260.826C122.033 260.516 122.033 260.516 122.111 260.199C122.22 259.758 122.326 259.317 122.431 258.876C122.594 258.189 122.762 257.504 122.932 256.819C123.155 255.921 123.377 255.023 123.597 254.125C123.964 252.634 124.353 251.151 124.767 249.673C124.85 249.364 124.85 249.364 124.934 249.048C125.341 247.615 125.886 246.417 127.087 245.469C127.918 245.113 128.412 245.051 129.309 245.179C130.091 245.6 130.671 245.966 131.21 246.677C131.728 248.491 131.12 250.253 130.654 252.015C130.5 252.613 130.346 253.211 130.193 253.81C130.111 254.123 130.03 254.435 129.947 254.758C126.375 268.574 123.963 282.482 122.867 296.717C122.852 296.913 122.836 297.11 122.82 297.312C122.474 301.78 122.299 306.248 122.261 310.731C122.257 311.196 122.251 311.662 122.244 312.128C122.119 315.85 122.119 315.85 123.774 319.074C126.658 321.985 131.64 322.246 135.491 322.278C142.08 322.346 142.08 322.346 147.698 319.397C150.284 316.226 150.539 311.5 150.9 307.578C151.053 306.115 151.211 305.057 152.244 303.933C153.52 303.038 154.577 303.092 156.061 303.224C156.256 303.238 156.45 303.251 156.651 303.265C157.415 303.321 158.176 303.388 158.937 303.477C163.908 304.056 168.937 303.993 173.935 303.997C174.315 303.997 174.695 303.997 175.075 303.998C180.95 304.007 186.775 303.858 192.621 303.231C194.239 303.096 195.436 303.007 196.824 303.933C198.354 305.802 198.475 307.932 198.725 310.246C199.353 315.603 199.353 315.603 202.123 320.103C206.086 323.097 213.103 322.598 217.745 322.004C220.721 321.567 223.795 320.992 225.879 318.637C227.148 316.91 227.279 315.124 227.268 313.026C227.267 312.828 227.267 312.629 227.266 312.424C227.24 309.451 227.072 306.482 226.91 303.514C226.893 303.197 226.875 302.88 226.858 302.553C226.079 288.368 224.285 274.27 220.829 260.475C220.785 260.301 220.741 260.126 220.696 259.947C220.256 258.193 219.811 256.441 219.356 254.692C219.227 254.195 219.099 253.698 218.971 253.201C218.814 252.588 218.654 251.977 218.492 251.366C218.106 249.865 217.82 248.534 217.955 246.983C218.514 246.065 219.028 245.578 220.016 245.179C220.579 245.14 220.579 245.14 221.16 245.195C221.351 245.209 221.542 245.222 221.739 245.236C222.627 245.534 223.018 246.014 223.624 246.725C223.94 247.413 224.133 248.119 224.325 248.85C224.382 249.056 224.44 249.262 224.499 249.475C224.684 250.141 224.863 250.809 225.041 251.476C225.167 251.934 225.294 252.391 225.42 252.848C226.142 255.479 226.831 258.117 227.32 260.803C227.599 262.215 227.989 262.984 229.036 263.991C232.967 266.503 237.733 267.717 242.339 266.793C244.779 266.162 246.478 265.175 247.832 263.023C248.802 260.966 248.365 259.014 247.69 256.946C245.7 251.702 242.321 247.479 238.57 243.375C238.35 243.128 238.13 242.881 237.903 242.626C236.25 240.779 234.505 239.084 232.643 237.448C232.514 237.333 232.384 237.218 232.251 237.099C228.516 233.785 224.502 230.774 219.727 229.17C218.912 228.883 218.457 228.676 217.778 228.123C217.31 227.122 217.142 226.158 217.44 225.079C218.337 223.955 219.129 223.57 220.5 223.195C220.869 223.088 221.237 222.98 221.606 222.871C221.805 222.812 222.005 222.754 222.21 222.694C230.443 220.227 237.419 216.506 243.724 210.648C243.899 210.491 244.074 210.333 244.254 210.17C247.363 207.242 249.951 203.121 251.197 199.052C251.017 199.02 250.836 198.988 250.65 198.955C249.827 198.804 249.006 198.647 248.185 198.489C247.901 198.438 247.617 198.387 247.324 198.335C244.625 197.805 244.625 197.805 243.724 196.475C243.505 195.68 243.562 194.962 243.724 194.156C244.186 193.417 244.493 192.999 245.27 192.61C247.99 192.381 250.599 192.882 253.259 193.383C253.794 192.011 254.242 190.657 254.595 189.228C254.641 189.053 254.687 188.879 254.734 188.699C254.994 187.662 255.111 186.721 255.062 185.652C254.807 185.671 254.551 185.69 254.287 185.709C252.518 185.832 250.748 185.937 248.975 185.975C248.695 185.981 248.415 185.988 248.127 185.995C247.188 185.895 246.586 185.633 245.786 185.137C245.207 184.166 245.013 183.529 245.013 182.399C245.327 181.337 245.688 180.918 246.559 180.241C247.696 179.784 248.727 179.635 249.947 179.562C250.116 179.552 250.286 179.541 250.46 179.53C250.996 179.497 251.531 179.466 252.067 179.436C252.432 179.413 252.798 179.391 253.163 179.368C254.054 179.313 254.945 179.261 255.836 179.21C255.929 174.845 255.866 170.624 255.062 166.326C255.021 166.101 254.98 165.876 254.937 165.644C253.913 160.29 252.221 154.993 249.842 150.084C248.622 147.452 249.211 144.95 249.642 142.172C250.812 134.51 251.264 126.834 251.278 119.088C251.279 118.833 251.28 118.579 251.281 118.317C251.289 113.841 251.186 109.276 250.086 104.915C250.037 104.698 249.989 104.482 249.939 104.259C249.512 102.498 248.879 100.873 247.332 99.8412C245.909 99.7485 244.687 99.9067 243.321 100.324C243.136 100.381 242.95 100.437 242.759 100.494C232.294 103.816 222.17 110.271 213.268 116.577C211.546 117.767 209.994 118.322 207.905 118.137C207.112 117.872 207.112 117.872 206.294 117.493C201.345 115.357 195.922 114.217 190.64 113.241C190.433 113.202 190.227 113.162 190.014 113.122C174.597 110.213 157.838 111.955 143.188 117.444C141.483 118.078 140.099 118.49 138.344 117.783C135.848 116.581 133.546 114.937 131.226 113.434C127.343 110.925 123.383 108.529 119.314 106.334C118.925 106.124 118.536 105.912 118.149 105.7C109.976 100.843 109.976 100.843 101.221 100.212Z" fill="black"/>
<path d="M174.437 239.639C174.739 239.64 175.041 239.642 175.352 239.644C181.152 239.764 185.84 241.827 189.866 245.952C190.073 246.156 190.279 246.36 190.492 246.57C196.631 252.954 198.516 262.632 198.479 271.18C198.377 276.052 197.003 280.101 193.474 283.575C193.31 283.739 193.145 283.903 192.976 284.072C187.039 289.626 178.507 289.546 170.899 289.299C165.819 289.086 160.952 287.714 156.882 284.606C156.689 284.46 156.496 284.314 156.297 284.164C152.952 281.445 151.211 277.237 150.741 273.029C150.602 271.31 150.664 269.578 150.697 267.856C150.702 267.579 150.706 267.303 150.71 267.018C151.065 259.394 154.012 251.977 158.944 246.21C159.097 246.03 159.25 245.85 159.408 245.665C163.261 241.506 168.882 239.606 174.437 239.639Z" fill="#F2D3A3"/>
<path d="M192.036 240.455C192.255 240.654 192.475 240.852 192.701 241.056C192.918 241.252 193.135 241.448 193.359 241.649C197.403 245.492 199.975 250.502 201.72 255.745C201.815 256.02 201.91 256.295 202.007 256.578C204.122 263.273 204.736 271.064 203.009 277.906C202.967 278.074 202.926 278.241 202.883 278.414C201.546 283.564 198.042 287.858 193.498 290.569C187.632 293.851 181.441 294.716 174.824 294.72C174.498 294.721 174.498 294.721 174.165 294.721C170.846 294.717 167.606 294.621 164.355 293.883C164.165 293.84 163.975 293.797 163.778 293.753C157.753 292.328 151.988 288.986 148.663 283.666C144.531 276.791 144.577 267.384 146.41 259.748C146.465 259.533 146.519 259.317 146.575 259.095C146.628 258.876 146.682 258.657 146.738 258.432C148.267 252.416 150.963 247.003 155.078 242.345C155.315 242.076 155.315 242.076 155.556 241.802C164.855 231.889 181.947 231.784 192.036 240.455ZM158.019 247.24C153.401 252.995 150.968 260.526 150.698 267.856C150.691 268.031 150.684 268.206 150.676 268.387C150.5 273.369 151.239 277.939 154.305 282.029C154.466 282.258 154.466 282.258 154.629 282.491C157.977 286.872 163.986 288.41 169.159 289.171C170.974 289.39 172.805 289.359 174.631 289.341C174.952 289.339 174.952 289.339 175.28 289.338C182.342 289.295 188.776 288.265 193.99 283.06C194.24 282.814 194.24 282.814 194.496 282.563C198.223 278.631 198.573 273.476 198.452 268.35C198.135 260.033 195.48 251.739 189.609 245.695C189.461 245.531 189.314 245.368 189.162 245.199C185.934 241.725 181.009 239.882 176.346 239.668C168.871 239.478 163.037 241.521 158.019 247.24Z" fill="black"/>
<path d="M232.595 178.228C235.353 180.115 237.026 182.671 237.797 185.91C238.228 189.941 237.364 193.006 234.838 196.184C232.779 198.477 229.869 199.675 226.855 199.889C223.196 200.012 220.214 198.958 217.441 196.543C215.026 194.031 214.009 190.894 214.052 187.478C214.21 184.174 215.505 181.448 217.955 179.21C222.451 175.835 227.693 175.328 232.595 178.228Z" fill="#F4A99C"/>
<path d="M129.052 177.664C129.25 177.763 129.449 177.862 129.654 177.964C132.22 179.41 134.076 182.174 134.946 184.944C135.688 188.095 135.383 191.255 133.808 194.102C132.11 196.674 129.683 198.611 126.733 199.568C123.44 200.21 120.156 200.041 117.205 198.358C114.517 196.531 112.488 194.02 111.786 190.806C111.453 186.39 111.976 183.39 114.83 179.933C118.509 175.902 124.335 175.312 129.052 177.664Z" fill="#F4A99C"/>
<path d="M109.08 108.739C110.789 108.969 112.307 109.668 113.848 110.407C114.007 110.483 114.166 110.558 114.33 110.637C118.486 112.655 122.142 115.469 125.768 118.302C126.162 118.61 126.558 118.914 126.955 119.218C127.683 119.834 127.996 120.258 128.117 121.213C127.997 122.203 127.763 122.417 127.006 123.05C126.771 123.248 126.537 123.446 126.295 123.65C125.129 124.581 123.939 125.481 122.748 126.379C121.206 127.547 119.737 128.782 118.279 130.053C117.547 130.69 116.796 131.301 116.038 131.908C114.913 132.819 113.855 133.784 112.801 134.775C110.633 136.799 110.633 136.799 109.596 137.69C109.407 137.854 109.219 138.018 109.024 138.187C108.436 138.495 108.436 138.495 107.626 138.468C106.89 138.237 106.89 138.237 106.326 137.416C104.402 132.897 104.483 127.394 104.504 122.575C104.507 121.824 104.504 121.072 104.501 120.321C104.494 111.749 104.494 111.749 106.452 109.197C107.252 108.582 108.107 108.712 109.08 108.739Z" fill="#F4A99C"/>
<path d="M242.178 108.86C244.09 110.374 244.342 113.07 244.609 115.363C245.269 122.33 245.695 131.532 242.694 137.979C241.881 138.386 241.24 138.475 240.374 138.237C239.573 137.678 238.896 137.005 238.204 136.318C237.4 135.527 236.574 134.758 235.752 133.985C235.574 133.817 235.395 133.649 235.212 133.476C233.805 132.157 232.351 130.931 230.84 129.733C230.383 129.358 229.927 128.982 229.471 128.606C228.392 127.722 227.3 126.857 226.201 125.997C225.897 125.757 225.593 125.517 225.288 125.277C224.713 124.824 224.132 124.378 223.547 123.938C223.163 123.642 223.163 123.642 222.771 123.339C222.543 123.168 222.316 122.996 222.081 122.819C221.428 122.115 221.329 121.666 221.305 120.714C222.521 118.854 224.428 117.629 226.201 116.333C226.367 116.211 226.533 116.088 226.704 115.961C237.834 107.755 237.834 107.755 242.178 108.86Z" fill="#F4A99C"/>
<path d="M174.727 174.233C174.981 174.226 175.236 174.218 175.497 174.211C177.284 174.195 178.755 174.476 180.332 175.344C181.237 176.249 181.576 176.95 181.701 178.227C181.543 180.154 180.598 181.39 179.237 182.705C178.786 183.075 178.786 183.075 178.029 183.413C177.449 183.794 177.449 183.794 177.392 184.385C177.315 186.552 177.894 188.617 179.301 190.291C180.984 191.64 182.667 192.178 184.809 192.078C187.458 191.749 189.014 190.536 190.688 188.515C191.321 187.778 191.544 187.726 192.524 187.633C193.623 187.726 193.995 187.976 194.763 188.744C195.21 189.639 195.14 190.6 195.02 191.579C193.688 194.145 191.075 196.061 188.413 197.061C185.469 197.968 182.089 197.871 179.278 196.62C177.636 195.739 176.215 194.724 174.921 193.383C174.175 193.724 173.768 194.013 173.149 194.591C170.259 197.141 166.87 197.744 163.147 197.563C159.635 197.225 157.177 195.147 154.958 192.589C154.236 191.684 154.205 190.973 154.213 189.843C154.36 188.918 154.873 188.521 155.594 187.971C156.342 187.597 156.824 187.618 157.655 187.714C158.59 188.357 159.239 189.038 159.942 189.92C161.092 191.26 162.051 191.757 163.825 191.943C165.987 192.05 168.032 192.002 169.767 190.548C171.238 188.842 172.014 187.048 171.977 184.787C171.796 183.958 171.579 183.753 170.894 183.268C170.707 183.153 170.519 183.038 170.326 182.919C169.115 182.141 168.034 180.883 167.705 179.468C167.566 178.173 167.561 177.195 168.124 176.005C169.889 174.101 172.313 174.256 174.727 174.233Z" fill="black"/>
<path d="M213.539 161.141C214.274 161.488 214.94 161.865 215.616 162.309C216.025 162.553 216.025 162.553 216.442 162.8C218.527 164.875 219.313 167.058 219.316 169.902C219.26 172.57 218.331 174.444 216.455 176.365C214.301 178.328 212.092 178.774 209.21 178.73C206.978 178.471 204.986 177.487 203.447 175.892C203.184 175.543 202.934 175.185 202.696 174.82C202.573 174.646 202.45 174.472 202.323 174.292C200.948 171.943 201.047 168.617 201.738 166.061C202.736 163.897 204.537 162.305 206.692 161.236C208.827 160.504 211.372 160.472 213.539 161.141Z" fill="black"/>
<path d="M141.979 160.475C144.161 161.809 145.749 163.534 146.627 165.993C147.328 168.933 147.175 171.937 145.724 174.607C144.222 176.645 142.469 178.072 140.003 178.606C137.219 178.946 135.121 178.656 132.776 177.068C132.453 176.858 132.13 176.649 131.797 176.433C129.928 174.655 129.085 172.313 128.962 169.757C128.935 166.87 129.331 164.708 131.297 162.526C134.184 159.729 138.251 158.705 141.979 160.475Z" fill="black"/>
<path d="M146.948 135.366C147.371 135.578 147.721 135.825 147.939 136.252C148.17 136.97 148.151 137.789 147.835 138.477C147.456 139.126 146.946 139.683 146.439 140.238C146.293 140.399 146.149 140.563 146.005 140.727C144.121 142.836 141.623 144.12 138.959 145.026C138.866 145.058 138.774 145.091 138.679 145.125C137.078 145.654 134.622 146.114 133.014 145.452C132.616 145.218 132.449 144.92 132.262 144.516C132.12 143.91 132.077 143.416 132.351 142.845C133.048 142.091 133.875 142.009 134.859 141.859C138.078 141.329 141.25 140.359 143.325 137.726C143.636 137.294 143.908 136.851 144.172 136.39C144.813 135.275 145.687 134.854 146.948 135.366Z" fill="black"/>
<path d="M203.691 135.282C204.431 135.708 204.876 136.302 205.352 136.989C207.092 139.475 209.818 141.057 212.814 141.614C213.392 141.708 213.971 141.797 214.552 141.875C215.392 141.994 216.275 142.135 216.895 142.745C217.197 143.251 217.228 143.719 217.16 144.292C216.992 144.787 216.772 145.219 216.291 145.47C214.947 146.024 213.083 145.739 211.728 145.363C211.639 145.338 211.55 145.313 211.458 145.288C210.047 144.887 208.702 144.389 207.382 143.756C207.271 143.704 207.16 143.651 207.045 143.597C204.758 142.443 202.196 140.158 201.299 137.759C201.198 137.162 201.22 136.633 201.536 136.106C202.054 135.4 202.791 134.9 203.691 135.282Z" fill="black"/>
<path d="M101.613 113.159C101.673 113.183 101.732 113.208 101.793 113.233C103.24 113.837 104.606 114.586 105.943 115.403C105.992 115.433 106.042 115.463 106.093 115.494C106.674 115.847 107.233 116.217 107.773 116.63C107.99 116.799 107.99 116.799 108.239 116.912C108.246 116.96 108.253 117.008 108.26 117.057C108.306 117.07 108.352 117.083 108.399 117.096C108.861 117.264 109.246 117.663 109.613 117.981C109.744 118.096 109.744 118.096 109.887 118.193C109.996 118.279 109.996 118.279 110.017 118.424C110.078 118.377 110.138 118.329 110.2 118.281C112.008 116.884 114.292 116.262 116.569 116.537C117.245 116.629 117.879 116.769 118.514 117.022C118.693 117.082 118.693 117.082 118.825 116.993C118.991 116.852 119.109 116.7 119.239 116.525C119.289 116.456 119.34 116.387 119.393 116.316C119.445 116.244 119.498 116.172 119.552 116.098C119.605 116.027 119.658 115.956 119.712 115.882C119.95 115.559 120.171 115.238 120.372 114.889C120.448 114.794 120.527 114.7 120.608 114.609C120.787 114.404 120.952 114.196 121.11 113.975C121.348 113.65 121.611 113.356 121.885 113.061C122.066 112.865 122.241 112.664 122.417 112.463C125.621 108.878 130.229 105.61 135.145 105.222C136.815 105.142 138.489 105.723 139.756 106.804C142.327 109.2 143.409 112.858 144.243 116.157C144.257 116.211 144.271 116.264 144.285 116.319C144.433 116.894 144.524 117.475 144.612 118.062C144.628 118.17 144.644 118.278 144.66 118.386C144.694 118.611 144.728 118.837 144.762 119.063C144.795 119.291 144.83 119.518 144.864 119.746C145.077 121.134 145.255 122.512 145.32 123.916C145.323 123.972 145.325 124.028 145.328 124.085C145.343 124.397 145.351 124.709 145.355 125.021C145.356 125.113 145.357 125.204 145.358 125.298C145.364 126.231 145.298 127.152 145.198 128.079C145.191 128.14 145.185 128.201 145.179 128.264C144.994 129.996 144.482 131.685 143.507 133.14C143.467 133.2 143.427 133.259 143.387 133.321C142.496 134.588 141.047 135.492 139.535 135.802C138.91 135.91 138.281 135.997 137.652 136.081C137.816 136.25 137.98 136.418 138.144 136.587C138.195 136.639 138.246 136.691 138.298 136.745C138.612 137.067 138.927 137.385 139.245 137.702C142.272 140.726 142.272 140.726 142.291 141.906C142.244 142.476 142.085 142.969 141.699 143.4C140.536 144.328 138.724 144.161 137.322 144.202C137.142 144.208 136.962 144.214 136.782 144.22C136.207 144.238 135.631 144.257 135.055 144.27C134.313 144.264 134.313 144.264 133.644 144.529C133.526 144.682 133.441 144.836 133.353 145.008C133.285 145.128 133.217 145.247 133.148 145.367C133.072 145.501 132.998 145.637 132.924 145.772C132.498 146.553 132.051 147.323 131.589 148.082C131.561 148.128 131.533 148.174 131.505 148.221C130.389 150.061 130.389 150.061 129.42 150.361C128.782 150.495 128.239 150.356 127.675 150.04C127.379 149.815 127.178 149.502 126.967 149.2C126.934 149.153 126.901 149.105 126.867 149.057C126.499 148.524 126.153 147.977 125.811 147.427C125.777 147.372 125.742 147.316 125.706 147.259C124.171 144.791 122.718 142.278 121.323 139.728C121.13 139.375 120.936 139.023 120.741 138.672C120.085 137.486 119.449 136.29 118.827 135.087C118.775 134.986 118.775 134.986 118.722 134.883C118.624 134.694 118.526 134.504 118.429 134.315C118.385 134.23 118.385 134.23 118.34 134.143C118.229 133.927 118.138 133.747 118.102 133.506C118.031 133.529 117.959 133.551 117.886 133.575C117.622 133.649 117.369 133.697 117.098 133.736C117.005 133.75 116.912 133.763 116.816 133.777C116.719 133.791 116.622 133.805 116.525 133.819C116.426 133.833 116.327 133.847 116.228 133.862C115.988 133.897 115.747 133.931 115.506 133.965C115.499 134.007 115.491 134.049 115.484 134.092C114.527 139.526 113.408 144.964 111.883 150.27C111.82 150.489 111.759 150.709 111.699 150.929C111.445 151.831 111.197 152.584 110.351 153.084C109.842 153.342 109.244 153.371 108.701 153.215C107.86 152.869 107.183 152.173 106.518 151.572C106.467 151.525 106.415 151.478 106.361 151.43C105.842 150.958 105.332 150.476 104.825 149.991C104.74 149.909 104.654 149.827 104.569 149.745C104.489 149.669 104.409 149.592 104.329 149.516C104.222 149.414 104.113 149.315 104.004 149.216C103.914 149.123 103.914 149.123 103.823 149.028C103.229 148.723 102.298 149.136 101.688 149.303C101.59 149.329 101.493 149.355 101.395 149.381C100.986 149.49 100.578 149.601 100.169 149.711C98.18 150.251 98.18 150.251 97.3233 150.381C97.2395 150.394 97.2395 150.394 97.1541 150.407C96.5304 150.489 95.9874 150.367 95.4645 150.021C94.9223 149.558 94.7173 149.016 94.6532 148.316C94.6043 147.208 95.4273 146.037 95.9165 145.087C95.9501 145.022 95.9838 144.956 96.0185 144.888C96.4936 143.959 96.9835 143.039 97.474 142.118C97.4207 142.125 97.3674 142.132 97.3125 142.139C94.8325 142.451 92.9438 142.303 90.8958 140.784C89.1862 139.434 88.0617 137.226 87.3742 135.197C87.3154 135.025 87.2539 134.853 87.1925 134.681C85.1949 128.98 83.9688 120.936 86.6122 115.29C87.3983 113.778 88.4801 112.723 90.0532 112.062C90.1183 112.034 90.1835 112.006 90.2506 111.977C93.7334 110.679 98.3099 111.776 101.613 113.159Z" fill="black"/>
<path d="M92.1719 114.249C92.2209 114.242 92.27 114.235 92.3205 114.227C97.6381 113.455 102.748 116.043 106.906 119.138C107.239 119.388 107.561 119.648 107.871 119.926C107.936 119.983 107.936 119.983 108.002 120.041C108.101 120.129 108.199 120.218 108.298 120.307C108.221 120.595 108.079 120.824 107.927 121.079C107.367 122.056 107.084 123.117 106.88 124.218C106.545 124.172 106.212 124.125 105.88 124.06C104.739 123.836 103.578 123.716 102.421 123.871C102.358 123.879 102.295 123.886 102.231 123.894C101.931 123.942 101.73 123.996 101.518 124.221C101.262 124.591 101.239 124.813 101.316 125.247C101.402 125.575 101.552 125.754 101.835 125.932C102.201 126.096 102.59 126.054 102.984 126.045C103.698 126.038 104.404 126.056 105.116 126.108C105.197 126.113 105.278 126.119 105.362 126.124C105.907 126.166 106.438 126.246 106.975 126.35C106.985 126.416 106.996 126.482 107.007 126.549C107.312 128.186 108.091 130.058 109.376 131.179C109.486 131.306 109.486 131.306 109.512 131.443C109.425 131.699 109.246 131.871 109.062 132.062C109.02 132.107 108.978 132.151 108.935 132.197C108.071 133.095 107.121 133.921 106.14 134.689C106.088 134.729 106.036 134.77 105.982 134.812C103.173 136.996 99.9461 139.088 96.3663 139.639C96.2609 139.656 96.1556 139.673 96.0504 139.691C94.8028 139.902 93.771 139.744 92.7102 139.008C89.0324 136.129 88.5285 129.979 88.0042 125.687C87.9133 124.881 87.8689 124.077 87.8668 123.265C87.8657 123.13 87.8657 123.13 87.8647 122.991C87.8563 120.689 87.9731 117.975 89.2247 115.959C89.2587 115.89 89.2927 115.82 89.3278 115.749C90.0214 114.729 91.0152 114.419 92.1719 114.249Z" fill="#F4A99C"/>
<path d="M134.538 107.958C134.628 107.943 134.719 107.928 134.812 107.912C135.9 107.746 136.77 107.881 137.673 108.514C139.626 109.967 140.529 112.634 141.221 114.876C141.263 115.012 141.263 115.012 141.307 115.151C141.761 116.661 142.052 118.182 142.276 119.742C142.29 119.835 142.303 119.927 142.317 120.023C142.849 123.685 143.538 128.531 141.387 131.826C140.611 132.812 139.681 133.22 138.465 133.393C138.415 133.401 138.365 133.408 138.313 133.415C134.913 133.903 131.426 133.062 128.229 131.929C128.158 131.904 128.087 131.879 128.014 131.853C124.173 130.474 124.173 130.474 123.094 129.52C123.038 129.369 123.038 129.369 123.119 129.133C123.164 129.04 123.211 128.947 123.258 128.855C123.307 128.755 123.354 128.654 123.402 128.554C123.426 128.504 123.449 128.454 123.474 128.402C124.096 127.042 124.168 125.508 124.024 124.042C124.416 123.784 124.81 123.553 125.236 123.354C125.293 123.327 125.351 123.3 125.41 123.272C126.334 122.849 127.301 122.518 128.262 122.188C128.325 122.167 128.387 122.145 128.452 122.123C128.506 122.104 128.56 122.086 128.616 122.067C128.83 121.976 128.945 121.856 129.074 121.665C129.202 121.344 129.171 121.03 129.079 120.702C128.903 120.378 128.729 120.212 128.392 120.064C128.166 120.053 127.953 120.087 127.731 120.125C127.667 120.135 127.604 120.145 127.538 120.156C126.258 120.385 125.054 120.95 123.93 121.59C123.68 121.725 123.68 121.725 123.463 121.757C123.433 121.704 123.433 121.704 123.403 121.649C122.818 120.6 122.21 119.607 121.29 118.817C121.158 118.695 121.158 118.695 121.054 118.488C121.101 118.481 121.149 118.474 121.198 118.467C121.211 118.422 121.224 118.376 121.237 118.33C121.303 118.149 121.382 118.019 121.493 117.863C121.532 117.808 121.57 117.753 121.61 117.697C121.671 117.61 121.671 117.61 121.734 117.522C121.817 117.404 121.901 117.285 121.985 117.166C122.045 117.08 122.045 117.08 122.106 116.993C122.236 116.805 122.359 116.614 122.482 116.422C122.656 116.152 122.847 115.911 123.059 115.67C123.199 115.507 123.334 115.341 123.469 115.173C125.897 112.14 129.171 109.429 132.935 108.288C133.02 108.262 133.105 108.235 133.193 108.207C133.634 108.087 134.087 108.027 134.538 107.958Z" fill="#F4A99C"/>
<path d="M121.363 131.542C121.598 131.542 121.752 131.604 121.953 131.72C122.008 131.751 122.063 131.782 122.12 131.815C122.179 131.848 122.237 131.882 122.298 131.917C122.422 131.987 122.546 132.057 122.67 132.126C122.732 132.161 122.794 132.196 122.857 132.232C124.789 133.307 126.855 134.086 128.949 134.783C129.042 134.814 129.042 134.814 129.138 134.846C129.899 135.099 130.665 135.292 131.449 135.457C131.581 135.485 131.581 135.485 131.716 135.513C132.117 135.596 132.515 135.671 132.921 135.722C133.821 135.841 134.275 136.074 134.846 136.78C135.062 137.041 135.296 137.284 135.527 137.53C135.624 137.635 135.721 137.741 135.819 137.847C136.534 138.619 137.281 139.361 138.024 140.107C138.343 140.427 138.661 140.75 138.976 141.075C139.013 141.112 139.05 141.15 139.088 141.189C139.337 141.447 139.337 141.447 139.349 141.528C138.755 141.581 138.163 141.603 137.567 141.617C136.105 141.654 134.632 141.697 133.182 141.893C133.116 141.901 133.05 141.909 132.983 141.917C132.488 141.993 132.128 142.151 131.817 142.554C131.707 142.72 131.607 142.888 131.51 143.061C131.479 143.115 131.449 143.168 131.417 143.223C131.326 143.385 131.237 143.548 131.148 143.712C130.873 144.214 130.592 144.711 130.302 145.204C130.127 145.503 129.953 145.804 129.782 146.106C129.259 147.028 129.259 147.028 129.038 147.351C128.99 147.358 128.942 147.365 128.893 147.372C127.377 145.13 126.007 142.808 124.683 140.448C124.64 140.371 124.64 140.371 124.595 140.292C123.75 138.784 122.922 137.267 122.098 135.748C122.055 135.669 122.012 135.59 121.968 135.508C121.428 134.513 120.901 133.513 120.395 132.5C120.572 132.253 120.745 132.069 120.983 131.88C121.189 131.727 121.189 131.727 121.363 131.542Z" fill="#F4A99C"/>
<path d="M111.735 132.988C111.976 133.042 112.196 133.144 112.42 133.244C112.492 133.275 112.492 133.275 112.565 133.307C112.682 133.358 112.798 133.41 112.915 133.462C112.89 134.128 112.761 134.774 112.638 135.427C112.626 135.49 112.614 135.553 112.602 135.618C110.668 145.991 110.668 145.991 109.135 150.379C109.087 150.386 109.039 150.393 108.99 150.4C108.857 150.284 108.733 150.166 108.608 150.041C108.53 149.963 108.452 149.886 108.373 149.809C108.332 149.769 108.292 149.729 108.25 149.687C108.053 149.495 107.853 149.307 107.653 149.119C107.355 148.837 107.058 148.555 106.764 148.27C106.656 148.166 106.548 148.062 106.44 147.958C106.349 147.869 106.258 147.781 106.167 147.693C106.006 147.538 105.845 147.383 105.684 147.228C105.608 147.154 105.608 147.154 105.53 147.079C104.956 146.52 104.956 146.52 104.226 146.223C104.004 146.231 103.805 146.25 103.588 146.285C103.521 146.295 103.455 146.306 103.387 146.316C101.714 146.599 100.049 147.065 98.421 147.538C98.1123 147.628 97.8148 147.703 97.4943 147.74C97.5525 147.386 97.714 147.116 97.8982 146.815C98.2781 146.179 98.6194 145.526 98.9554 144.866C99.0324 144.715 99.1098 144.564 99.1876 144.413C99.4319 143.939 99.672 143.463 99.9101 142.986C99.9791 142.848 100.048 142.709 100.118 142.571C100.273 142.261 100.427 141.952 100.573 141.637C100.597 141.586 100.622 141.535 100.647 141.482C100.711 141.347 100.774 141.211 100.836 141.075C101.027 140.799 101.239 140.692 101.534 140.554C101.676 140.482 101.818 140.41 101.959 140.338C102.038 140.298 102.117 140.259 102.198 140.218C105.536 138.52 109.181 136.084 111.48 133.082C111.587 132.993 111.587 132.993 111.735 132.988Z" fill="#F4A99C"/>
<path d="M118.431 119.765C119.793 120.546 120.664 121.758 121.235 123.198C121.257 123.252 121.279 123.307 121.302 123.364C121.688 124.58 121.607 125.917 121.225 127.121C121.204 127.191 121.184 127.26 121.162 127.332C120.693 128.767 119.648 129.926 118.321 130.629C116.793 131.398 115.203 131.52 113.575 130.994C111.989 130.44 110.81 129.347 110.06 127.849C109.319 126.2 109.264 124.54 109.844 122.839C110.014 122.4 110.236 122.005 110.49 121.61C110.52 121.561 110.55 121.511 110.582 121.461C112.275 118.94 115.864 118.344 118.431 119.765Z" fill="#F4A99C"/>
</svg>
