<svg width="180" height="223" viewBox="0 0 180 223" fill="none" xmlns="http://www.w3.org/2000/svg">
<path d="M38.1156 5.57187C38.3178 5.67183 38.52 5.77179 38.7283 5.87478C42.0061 7.5061 45.1168 9.4144 48.232 11.3322C49.1879 11.9207 50.1464 12.5047 51.1068 13.0859C51.3567 13.2372 51.6066 13.3886 51.8641 13.5445C52.3279 13.8251 52.7917 14.1056 53.2557 14.3858C53.4653 14.5131 53.6749 14.6404 53.8908 14.7715C54.091 14.8928 54.2911 15.0142 54.4972 15.1393C55.2674 15.6265 56.0039 16.1576 56.7353 16.7012C57.6351 17.1488 58.4203 17.0457 59.3718 16.7922C59.5921 16.7116 59.8124 16.631 60.0394 16.548C60.2925 16.4582 60.5457 16.3684 60.8065 16.2759C61.0784 16.1785 61.3502 16.0811 61.6303 15.9807C70.6063 12.8853 79.9911 11.5211 89.463 11.5717C89.7188 11.5726 89.9746 11.5734 90.2382 11.5743C100.35 11.6128 110.078 13.2386 119.724 16.3027C119.954 16.3743 120.184 16.4459 120.422 16.5197C121.023 16.7231 121.023 16.7231 121.797 17.1029C122.948 17.2807 123.661 16.5715 124.568 15.9201C125.002 15.6243 125.436 15.3295 125.87 15.0357C126.104 14.8767 126.338 14.7177 126.578 14.5539C127.91 13.6678 129.276 12.8387 130.644 12.0111C130.787 11.9244 130.93 11.8376 131.078 11.7483C135.144 9.28838 139.264 6.89994 143.552 4.84521C144.115 4.57177 144.674 4.28923 145.233 4.00657C149.209 2.02173 153.446 0.206073 157.946 0.178056C158.144 0.173056 158.342 0.168056 158.546 0.162905C160.492 0.150498 162.079 0.628375 163.529 1.97347C167.299 6.17007 167.744 12.8401 168.295 18.1777C168.321 18.4331 168.321 18.4331 168.349 18.6936C169.111 26.4532 168.381 34.3905 167.582 42.1165C167.552 42.414 167.552 42.414 167.522 42.7175C167.151 46.3604 167.151 46.3604 166.773 47.9971C166.005 51.327 167.011 53.4672 168.456 56.4997C172.01 64.2694 172.819 72.7899 172.658 81.2065C172.92 81.2058 172.92 81.2058 173.188 81.205C178.091 81.1963 178.091 81.1963 179.128 82.0399C179.967 82.9695 180.016 83.5486 179.997 84.7652C179.892 85.6586 179.567 86.1296 178.961 86.7822C176.906 88.0403 174.46 87.5086 172.173 87.267C172.148 87.4698 172.148 87.4698 172.122 87.6766C171.759 90.5171 171.307 93.2501 170.476 95.9941C170.774 96.0557 171.073 96.1172 171.38 96.1806C171.776 96.2648 172.171 96.3491 172.567 96.4335C172.763 96.4736 172.959 96.5138 173.161 96.5552C174.572 96.8591 175.772 97.2232 176.87 98.2062C177.421 99.1804 177.487 99.9909 177.264 101.085C176.848 101.89 176.271 102.399 175.506 102.888C173.783 103.24 171.99 102.645 170.34 102.161C170.142 102.104 169.943 102.047 169.739 101.989C169.257 101.851 168.776 101.71 168.295 101.57C168.253 101.704 168.212 101.839 168.17 101.977C167.75 103.301 167.239 104.514 166.582 105.736C166.488 105.913 166.393 106.09 166.295 106.273C164.763 109.068 162.879 111.508 160.661 113.797C160.409 114.058 160.158 114.321 159.908 114.585C155.139 119.634 148.58 124.276 141.871 126.296C142.166 126.521 142.166 126.521 142.467 126.75C145.098 128.759 147.644 130.824 150.062 133.087C150.561 133.553 151.063 134.014 151.573 134.468C152.713 135.484 153.791 136.498 154.771 137.668C155.082 138.033 155.405 138.387 155.735 138.735C158.527 141.678 160.822 145.019 162.719 148.599C162.832 148.804 162.946 149.008 163.063 149.219C165.113 153.061 166.116 157.444 164.91 161.709C163.777 164.892 161.817 166.932 158.84 168.477C153.462 170.676 148.112 170.714 142.736 168.473C142.366 168.315 141.997 168.154 141.628 167.992C141.673 168.164 141.717 168.336 141.763 168.513C142.365 170.97 142.725 173.443 143.068 175.947C143.115 176.286 143.115 176.286 143.162 176.631C147.799 210.313 147.799 210.313 142.848 216.865C139.797 220.173 135.107 221.732 130.72 222.052C129.356 222.099 127.993 222.111 126.629 222.112C126.345 222.113 126.345 222.113 126.056 222.113C120.827 222.109 114.847 221.714 110.812 217.948C108.728 215.652 107.85 212.93 107.16 209.976C107.119 209.807 107.078 209.638 107.037 209.464C106.782 208.304 106.666 207.163 106.586 205.978C106.566 205.673 106.545 205.369 106.524 205.056C106.509 204.825 106.493 204.593 106.478 204.355C106.322 204.37 106.167 204.384 106.006 204.399C101.127 204.834 96.2778 204.916 91.3819 204.903C90.3395 204.901 89.2972 204.902 88.2549 204.905C83.3171 204.916 78.4298 204.79 73.5088 204.355C73.4935 204.569 73.4783 204.782 73.4625 205.002C73.4314 205.425 73.4314 205.425 73.3996 205.856C73.3693 206.274 73.3693 206.274 73.3382 206.7C73.2442 207.755 73.0685 208.776 72.8421 209.81C72.7996 210.005 72.757 210.201 72.7132 210.402C71.8916 214.016 70.5085 216.927 67.4483 219.143C63.3606 221.626 58.7535 222.099 54.0847 222.11C53.5172 222.112 52.9499 222.12 52.3824 222.128C46.9925 222.166 41.7626 221.132 37.6914 217.37C34.5475 214.041 34.6063 210.226 34.646 205.916C34.6474 205.657 34.6487 205.398 34.6501 205.132C34.7 195.653 35.5657 186.265 36.7975 176.871C36.8217 176.686 36.8459 176.501 36.8708 176.31C37.2266 173.608 37.6538 170.921 38.1156 168.235C37.8141 168.334 37.5125 168.434 37.2018 168.536C31.5199 170.387 26.3357 170.99 20.7978 168.326C17.9419 166.856 16.0415 164.666 14.8908 161.666C13.5636 156.948 15.3129 151.945 17.5625 147.815C19.4486 144.486 21.7009 141.525 24.2892 138.713C24.733 138.229 25.1604 137.736 25.5856 137.236C27.3449 135.219 29.2864 133.358 31.3279 131.63C31.5822 131.409 31.8363 131.187 32.0902 130.966C33.9652 129.336 35.8865 127.788 37.8732 126.296C37.7341 126.234 37.5951 126.172 37.4518 126.108C36.9958 125.902 36.5408 125.695 36.0863 125.486C35.4538 125.197 34.8201 124.915 34.1829 124.637C29.8065 122.69 25.9118 120.044 22.3584 116.842C22.1553 116.668 21.9522 116.494 21.7429 116.315C20.5404 115.279 19.4845 114.19 18.4797 112.963C18.2831 112.73 18.0866 112.497 17.8841 112.257C15.2739 109.099 13.1706 105.526 11.4496 101.812C10.1678 101.915 9.04278 102.186 7.81327 102.57C6.45275 102.968 5.54338 103.179 4.17699 102.782C3.22195 102.2 2.76384 101.684 2.48006 100.6C2.35995 99.6592 2.43964 99.2248 2.87399 98.3728C4.03919 96.993 5.60416 96.7613 7.29813 96.4335C7.51125 96.3905 7.72437 96.3475 7.94395 96.3033C8.4657 96.1984 8.98774 96.0954 9.5102 95.9941C9.47603 95.8417 9.44185 95.6893 9.40663 95.5323C8.79332 92.7864 8.18781 90.0571 7.81327 87.267C7.54931 87.2765 7.54931 87.2765 7.28002 87.2863C6.47805 87.3115 5.67616 87.3272 4.87394 87.3428C4.59708 87.3529 4.32021 87.3631 4.03495 87.3736C1.73097 87.407 1.73097 87.407 0.845625 86.6865C0.122366 85.8519 0.0184303 85.4686 0.0104164 84.3883C0.0052603 84.0742 0.0052603 84.0742 0 83.7538C0.0821608 82.8598 0.335934 82.3546 1.01039 81.7671C2.56245 81.102 4.29847 81.196 5.96388 81.2018C6.34939 81.2028 6.34939 81.2028 6.74269 81.2039C6.93598 81.2048 7.12928 81.2056 7.32843 81.2065C7.32463 81.0068 7.32082 80.8071 7.31689 80.6013C7.17174 71.793 8.41206 63.1907 12.067 55.0774C12.1686 54.8517 12.2702 54.626 12.3749 54.3935C12.5689 53.9719 12.7687 53.5528 12.9754 53.1373C13.7042 51.578 13.6754 50.4016 13.3889 48.7224C13.3562 48.5158 13.3236 48.3093 13.2899 48.0964C13.2195 47.6648 13.1467 47.2335 13.0719 46.8026C11.3041 36.454 10.598 25.4658 11.9344 15.0262C11.9591 14.8235 11.9838 14.6207 12.0092 14.4119C12.564 9.99219 13.4889 4.52098 17.0252 1.45075C23.3646 -2.5611 32.3875 2.72003 38.1156 5.57187Z" fill="#FBE9CC"/>
<path d="M38.1156 5.57187C38.3178 5.67183 38.52 5.77179 38.7283 5.87478C42.0061 7.5061 45.1168 9.4144 48.232 11.3322C49.1879 11.9207 50.1464 12.5047 51.1068 13.0859C51.3567 13.2372 51.6066 13.3886 51.8641 13.5445C52.3279 13.8251 52.7917 14.1056 53.2557 14.3858C53.4653 14.5131 53.6749 14.6404 53.8908 14.7715C54.091 14.8928 54.2911 15.0142 54.4972 15.1393C55.2674 15.6265 56.0039 16.1576 56.7353 16.7012C57.6351 17.1488 58.4203 17.0457 59.3718 16.7922C59.5921 16.7116 59.8124 16.631 60.0394 16.548C60.2925 16.4582 60.5457 16.3684 60.8065 16.2759C61.0784 16.1785 61.3502 16.0811 61.6303 15.9807C70.6063 12.8853 79.9911 11.5211 89.463 11.5717C89.7188 11.5726 89.9746 11.5734 90.2382 11.5743C100.35 11.6128 110.078 13.2386 119.724 16.3027C119.954 16.3743 120.184 16.4459 120.422 16.5197C121.023 16.7231 121.023 16.7231 121.797 17.1029C122.948 17.2807 123.661 16.5715 124.568 15.9201C125.002 15.6243 125.436 15.3295 125.87 15.0357C126.104 14.8767 126.338 14.7177 126.578 14.5539C127.91 13.6678 129.276 12.8387 130.644 12.0111C130.787 11.9244 130.93 11.8376 131.078 11.7483C135.144 9.28838 139.264 6.89994 143.552 4.84521C144.115 4.57177 144.674 4.28923 145.233 4.00657C149.209 2.02173 153.446 0.206073 157.946 0.178056C158.144 0.173056 158.342 0.168056 158.546 0.162905C160.492 0.150498 162.079 0.628375 163.529 1.97347C167.299 6.17007 167.744 12.8401 168.295 18.1777C168.321 18.4331 168.321 18.4331 168.349 18.6936C169.111 26.4532 168.381 34.3905 167.582 42.1165C167.552 42.414 167.552 42.414 167.522 42.7175C167.151 46.3604 167.151 46.3604 166.773 47.9971C166.005 51.327 167.011 53.4672 168.456 56.4997C172.01 64.2694 172.819 72.7899 172.658 81.2065C172.92 81.2058 172.92 81.2058 173.188 81.205C178.091 81.1963 178.091 81.1963 179.128 82.0399C179.967 82.9695 180.016 83.5486 179.997 84.7652C179.892 85.6586 179.567 86.1296 178.961 86.7822C176.906 88.0403 174.46 87.5086 172.173 87.267C172.148 87.4698 172.148 87.4698 172.122 87.6766C171.759 90.5171 171.307 93.2501 170.476 95.9941C170.774 96.0557 171.073 96.1172 171.38 96.1806C171.776 96.2648 172.171 96.3491 172.567 96.4335C172.763 96.4736 172.959 96.5138 173.161 96.5552C174.572 96.8591 175.772 97.2232 176.87 98.2062C177.421 99.1804 177.487 99.9909 177.264 101.085C176.848 101.89 176.271 102.399 175.506 102.888C173.783 103.24 171.99 102.645 170.34 102.161C170.142 102.104 169.943 102.047 169.739 101.989C169.257 101.851 168.776 101.71 168.295 101.57C168.253 101.704 168.212 101.839 168.17 101.977C167.75 103.301 167.239 104.514 166.582 105.736C166.488 105.913 166.393 106.09 166.295 106.273C164.763 109.068 162.879 111.508 160.661 113.797C160.409 114.058 160.158 114.321 159.908 114.585C155.139 119.634 148.58 124.276 141.871 126.296C142.166 126.521 142.166 126.521 142.467 126.75C145.098 128.759 147.644 130.824 150.062 133.087C150.561 133.553 151.063 134.014 151.573 134.468C152.713 135.484 153.791 136.498 154.771 137.668C155.082 138.033 155.405 138.387 155.735 138.735C158.527 141.678 160.822 145.019 162.719 148.599C162.832 148.804 162.946 149.008 163.063 149.219C165.113 153.061 166.116 157.444 164.91 161.709C163.777 164.892 161.817 166.932 158.84 168.477C153.462 170.676 148.112 170.714 142.736 168.473C142.366 168.315 141.997 168.154 141.628 167.992C141.673 168.164 141.717 168.336 141.763 168.513C142.365 170.97 142.725 173.443 143.068 175.947C143.115 176.286 143.115 176.286 143.162 176.631C147.799 210.313 147.799 210.313 142.848 216.865C139.797 220.173 135.107 221.732 130.72 222.052C129.356 222.099 127.993 222.111 126.629 222.112C126.345 222.113 126.345 222.113 126.056 222.113C120.827 222.109 114.847 221.714 110.812 217.948C108.728 215.652 107.85 212.93 107.16 209.976C107.119 209.807 107.078 209.638 107.037 209.464C106.782 208.304 106.666 207.163 106.586 205.978C106.566 205.673 106.545 205.369 106.524 205.056C106.509 204.825 106.493 204.593 106.478 204.355C106.322 204.37 106.167 204.384 106.006 204.399C101.127 204.834 96.2778 204.916 91.3819 204.903C90.3395 204.901 89.2972 204.902 88.2549 204.905C83.3171 204.916 78.4298 204.79 73.5088 204.355C73.4935 204.569 73.4783 204.782 73.4625 205.002C73.4314 205.425 73.4314 205.425 73.3996 205.856C73.3693 206.274 73.3693 206.274 73.3382 206.7C73.2442 207.755 73.0685 208.776 72.8421 209.81C72.7996 210.005 72.757 210.201 72.7132 210.402C71.8916 214.016 70.5085 216.927 67.4483 219.143C63.3606 221.626 58.7535 222.099 54.0847 222.11C53.5172 222.112 52.9499 222.12 52.3824 222.128C46.9925 222.166 41.7626 221.132 37.6914 217.37C34.5475 214.041 34.6063 210.226 34.646 205.916C34.6474 205.657 34.6487 205.398 34.6501 205.132C34.7 195.653 35.5657 186.265 36.7975 176.871C36.8217 176.686 36.8459 176.501 36.8708 176.31C37.2266 173.608 37.6538 170.921 38.1156 168.235C37.8141 168.334 37.5125 168.434 37.2018 168.536C31.5199 170.387 26.3357 170.99 20.7978 168.326C17.9419 166.856 16.0415 164.666 14.8908 161.666C13.5636 156.948 15.3129 151.945 17.5625 147.815C19.4486 144.486 21.7009 141.525 24.2892 138.713C24.733 138.229 25.1604 137.736 25.5856 137.236C27.3449 135.219 29.2864 133.358 31.3279 131.63C31.5822 131.409 31.8363 131.187 32.0902 130.966C33.9652 129.336 35.8865 127.788 37.8732 126.296C37.7341 126.234 37.5951 126.172 37.4518 126.108C36.9958 125.902 36.5408 125.695 36.0863 125.486C35.4538 125.197 34.8201 124.915 34.1829 124.637C29.8065 122.69 25.9118 120.044 22.3584 116.842C22.1553 116.668 21.9522 116.494 21.7429 116.315C20.5404 115.279 19.4845 114.19 18.4797 112.963C18.2831 112.73 18.0866 112.497 17.8841 112.257C15.2739 109.099 13.1706 105.526 11.4496 101.812C10.1678 101.915 9.04278 102.186 7.81327 102.57C6.45275 102.968 5.54338 103.179 4.17699 102.782C3.22195 102.2 2.76384 101.684 2.48006 100.6C2.35995 99.6592 2.43964 99.2248 2.87399 98.3728C4.03919 96.993 5.60416 96.7613 7.29813 96.4335C7.51125 96.3905 7.72437 96.3475 7.94395 96.3033C8.4657 96.1984 8.98774 96.0954 9.5102 95.9941C9.47603 95.8417 9.44185 95.6893 9.40663 95.5323C8.79332 92.7864 8.18781 90.0571 7.81327 87.267C7.54931 87.2765 7.54931 87.2765 7.28002 87.2863C6.47805 87.3115 5.67616 87.3272 4.87394 87.3428C4.59708 87.3529 4.32021 87.3631 4.03495 87.3736C1.73097 87.407 1.73097 87.407 0.845625 86.6865C0.122366 85.8519 0.0184303 85.4686 0.0104164 84.3883C0.0052603 84.0742 0.0052603 84.0742 0 83.7538C0.0821608 82.8598 0.335934 82.3546 1.01039 81.7671C2.56245 81.102 4.29847 81.196 5.96388 81.2018C6.34939 81.2028 6.34939 81.2028 6.74269 81.2039C6.93598 81.2048 7.12928 81.2056 7.32843 81.2065C7.32463 81.0068 7.32082 80.8071 7.31689 80.6013C7.17174 71.793 8.41206 63.1907 12.067 55.0774C12.1686 54.8517 12.2702 54.626 12.3749 54.3935C12.5689 53.9719 12.7687 53.5528 12.9754 53.1373C13.7042 51.578 13.6754 50.4016 13.3889 48.7224C13.3562 48.5158 13.3236 48.3093 13.2899 48.0964C13.2195 47.6648 13.1467 47.2335 13.0719 46.8026C11.3041 36.454 10.598 25.4658 11.9344 15.0262C11.9591 14.8235 11.9838 14.6207 12.0092 14.4119C12.564 9.99219 13.4889 4.52098 17.0252 1.45075C23.3646 -2.5611 32.3875 2.72003 38.1156 5.57187ZM20.9039 7.13245C19.8133 8.5297 19.351 9.91284 18.9342 11.6172C18.8958 11.7715 18.8573 11.9257 18.8177 12.0847C17.8526 16.3148 17.9069 20.607 17.9191 24.9199C17.9196 25.2459 17.92 25.5718 17.9204 25.8977C17.9337 32.8596 18.3526 39.6478 19.54 46.5101C20.0323 49.4474 20.4308 52.132 18.9797 54.8283C15.1038 62.7367 12.955 72.3748 13.3889 81.2065C13.8937 81.7113 14.9909 81.5163 15.6919 81.5399C17.314 81.6119 18.9076 81.7431 20.51 82.0096C20.7624 82.0479 20.7624 82.0479 21.0199 82.0871C22.1059 82.2821 22.8018 82.5923 23.5705 83.3883C23.9236 84.2686 23.9422 85.1695 23.651 86.072C23.3036 86.7497 22.9758 87.1977 22.2969 87.553C19.8984 88.2695 16.8418 87.69 14.3586 87.5094C14.2794 88.9937 14.5717 90.2754 14.9495 91.7063C15.0053 91.9258 15.061 92.1454 15.1185 92.3715C15.3888 93.4834 15.3888 93.4834 15.8131 94.5396C16.2323 94.5051 16.6515 94.4695 17.0706 94.4335C17.3041 94.4138 17.5375 94.3942 17.778 94.3739C18.4631 94.3116 18.4631 94.3116 19.0592 94.1703C19.8868 94.0191 20.6843 94.0135 21.5251 94.0093C21.8404 94.0059 22.1557 94.0024 22.4806 93.9989C23.6787 94.0779 23.6787 94.0779 24.2978 94.5396C24.7419 95.2107 24.8651 95.7867 24.8886 96.585C24.9032 96.8545 24.9032 96.8545 24.918 97.1295C24.7115 97.9859 24.3027 98.4527 23.5705 98.9031C22.6318 99.2189 21.6794 99.4037 20.7069 99.5849C20.4465 99.6373 20.186 99.6896 19.9176 99.7435C19.2774 99.8716 18.6367 99.9953 17.9949 100.115C19.0146 103.44 20.868 106.201 23.0857 108.842C23.2487 109.037 23.2487 109.037 23.415 109.235C29.0728 115.881 37.0075 119.792 45.2245 122.309C48.968 123.463 48.968 123.463 49.7517 124.842C49.9053 126.07 49.7581 126.763 49.0245 127.751C48.4364 128.075 48.4364 128.075 47.7366 128.327C43.2939 130.064 39.5139 132.612 36.0598 135.901C35.5657 136.368 35.0642 136.813 34.5494 137.255C31.7188 139.721 28.9723 142.437 26.7219 145.448C26.5045 145.731 26.287 146.014 26.0695 146.297C23.3618 149.863 20.2163 154.318 20.6615 159.023C20.9364 160.579 21.7593 161.483 22.954 162.475C25.496 164.236 28.6197 164.479 31.6025 163.957C33.4183 163.588 35.1387 163.036 36.8429 162.311C37.0018 162.244 37.1607 162.177 37.3243 162.108C38.457 161.596 39.4904 160.982 40.0018 159.796C40.1598 159.277 40.289 158.757 40.4101 158.228C40.4824 157.936 40.4824 157.936 40.5561 157.638C40.6583 157.223 40.7585 156.808 40.857 156.393C41.0103 155.747 41.1687 155.102 41.3287 154.458C41.5384 153.613 41.7466 152.769 41.9537 151.924C42.2991 150.522 42.6653 149.126 43.0549 147.735C43.1327 147.445 43.1327 147.445 43.212 147.148C43.5941 145.8 44.1075 144.672 45.2367 143.781C46.0189 143.446 46.4832 143.388 47.3275 143.508C48.0633 143.904 48.6084 144.249 49.1154 144.917C49.6029 146.624 49.031 148.282 48.5927 149.939C48.4479 150.502 48.3032 151.065 48.1585 151.627C48.0822 151.922 48.0059 152.216 47.9272 152.519C44.5672 165.516 42.2986 178.601 41.2671 191.992C41.2526 192.176 41.2382 192.361 41.2233 192.551C40.8972 196.755 40.7326 200.958 40.6973 205.175C40.6934 205.613 40.688 206.051 40.6811 206.49C40.5634 209.991 40.5634 209.991 42.1207 213.024C44.8334 215.762 49.5199 216.007 53.1433 216.038C59.3413 216.102 59.3413 216.102 64.6264 213.328C67.0593 210.344 67.2991 205.898 67.6388 202.209C67.7828 200.833 67.9316 199.837 68.9028 198.78C70.1039 197.938 71.0975 197.989 72.4936 198.113C72.6769 198.126 72.8602 198.139 73.049 198.152C73.7676 198.205 74.4837 198.267 75.1994 198.351C79.8761 198.896 84.6068 198.837 89.3088 198.84C89.6662 198.84 90.0237 198.841 90.3811 198.841C95.9075 198.85 101.387 198.71 106.887 198.119C108.409 197.993 109.536 197.909 110.841 198.78C112.28 200.539 112.394 202.542 112.629 204.719C113.22 209.758 113.22 209.758 115.826 213.991C119.554 216.809 126.155 216.339 130.522 215.78C133.321 215.369 136.214 214.828 138.174 212.613C139.368 210.987 139.491 209.308 139.481 207.334C139.48 207.147 139.48 206.961 139.479 206.768C139.455 203.971 139.296 201.178 139.144 198.386C139.128 198.088 139.111 197.789 139.095 197.482C138.362 184.138 136.674 170.875 133.423 157.898C133.382 157.734 133.341 157.57 133.299 157.401C132.885 155.751 132.466 154.103 132.038 152.457C131.916 151.99 131.796 151.522 131.676 151.054C131.527 150.478 131.377 149.903 131.224 149.328C130.862 147.916 130.592 146.664 130.72 145.205C131.245 144.341 131.729 143.884 132.659 143.508C133.188 143.471 133.188 143.471 133.735 143.523C133.914 143.536 134.094 143.549 134.279 143.562C135.114 143.842 135.483 144.293 136.053 144.963C136.35 145.61 136.531 146.274 136.712 146.962C136.766 147.156 136.82 147.35 136.876 147.549C137.05 148.176 137.218 148.804 137.386 149.432C137.505 149.863 137.623 150.293 137.742 150.723C138.421 153.198 139.07 155.679 139.53 158.206C139.792 159.534 140.159 160.257 141.144 161.205C144.842 163.568 149.325 164.711 153.658 163.841C155.954 163.247 157.552 162.319 158.826 160.295C159.738 158.36 159.327 156.523 158.692 154.578C156.82 149.644 153.642 145.671 150.113 141.811C149.906 141.579 149.699 141.346 149.485 141.107C147.93 139.369 146.289 137.774 144.537 136.236C144.416 136.127 144.294 136.019 144.169 135.907C140.655 132.79 136.878 129.957 132.386 128.448C131.62 128.178 131.192 127.983 130.553 127.463C130.113 126.521 129.955 125.614 130.235 124.6C131.079 123.542 131.824 123.18 133.114 122.827C133.461 122.726 133.808 122.624 134.154 122.522C134.342 122.467 134.529 122.412 134.723 122.356C142.468 120.035 149.03 116.534 154.961 111.024C155.126 110.876 155.29 110.727 155.46 110.574C158.385 107.82 160.819 103.943 161.992 100.115C161.822 100.085 161.652 100.054 161.477 100.023C160.703 99.882 159.931 99.7335 159.158 99.5849C158.891 99.5373 158.624 99.4896 158.348 99.4405C155.809 98.9419 155.809 98.9419 154.961 97.691C154.755 96.9431 154.809 96.2675 154.961 95.5093C155.396 94.8134 155.685 94.4205 156.416 94.0547C158.974 93.8388 161.429 94.3102 163.931 94.782C164.435 93.4915 164.856 92.2172 165.189 90.873C165.232 90.7089 165.274 90.5449 165.319 90.3759C165.563 89.3996 165.673 88.5147 165.628 87.5094C165.387 87.5269 165.147 87.5444 164.899 87.5625C163.234 87.6787 161.569 87.7768 159.901 87.8125C159.638 87.8187 159.375 87.825 159.103 87.8314C158.22 87.7375 157.653 87.4911 156.901 87.0246C156.356 86.1115 156.174 85.5121 156.174 84.4489C156.47 83.4493 156.809 83.0559 157.628 82.4186C158.698 81.9885 159.668 81.849 160.816 81.7804C160.975 81.7703 161.134 81.7602 161.298 81.7499C161.802 81.7184 162.306 81.6897 162.81 81.6611C163.154 81.6401 163.497 81.619 163.841 81.5976C164.679 81.546 165.517 81.4968 166.355 81.449C166.443 77.3426 166.384 73.3721 165.628 69.328C165.589 69.1166 165.55 68.9051 165.51 68.6873C164.546 63.6499 162.955 58.6666 160.717 54.049C159.569 51.5735 160.124 49.2189 160.529 46.6055C161.63 39.3976 162.054 32.1773 162.067 24.8896C162.068 24.6503 162.069 24.411 162.07 24.1644C162.078 19.9542 161.981 15.6594 160.946 11.5566C160.901 11.353 160.855 11.1494 160.808 10.9397C160.407 9.28303 159.811 7.75465 158.355 6.78397C157.017 6.69669 155.868 6.84559 154.583 7.2385C154.408 7.2913 154.234 7.34409 154.054 7.39848C144.209 10.5227 134.684 16.5955 126.311 22.5278C124.69 23.6477 123.231 24.1693 121.265 23.9957C120.519 23.7457 120.519 23.7457 119.75 23.3897C115.094 21.3804 109.992 20.3074 105.023 19.3897C104.829 19.3526 104.635 19.3155 104.435 19.2773C89.9316 16.5408 74.1655 18.1796 60.3837 23.3434C58.7794 23.94 57.4783 24.3278 55.8274 23.6624C53.4789 22.5321 51.3133 20.9854 49.1305 19.5716C45.4776 17.2109 41.753 14.9566 37.9247 12.8916C37.5587 12.6939 37.1932 12.4952 36.8284 12.2954C29.1399 7.72612 29.1399 7.72612 20.9039 7.13245Z" fill="black"/>
<path d="M89.7811 138.296C90.0651 138.298 90.3491 138.299 90.6417 138.301C96.0981 138.415 100.508 140.355 104.296 144.236C104.49 144.427 104.684 144.619 104.884 144.817C110.66 150.822 112.432 159.927 112.398 167.968C112.302 172.551 111.009 176.361 107.69 179.629C107.535 179.783 107.38 179.937 107.221 180.096C101.636 185.322 93.6092 185.245 86.4527 185.013C81.6738 184.813 77.0949 183.523 73.2663 180.598C73.0848 180.461 72.9032 180.324 72.7162 180.183C69.5692 177.625 67.9313 173.667 67.489 169.708C67.3583 168.091 67.4171 166.461 67.4483 164.841C67.4524 164.581 67.4564 164.321 67.4606 164.053C67.7944 156.881 70.5662 149.904 75.2057 144.478C75.3498 144.309 75.4938 144.14 75.6422 143.966C79.2668 140.053 84.555 138.266 89.7811 138.296Z" fill="#F2D3A3"/>
<path d="M106.337 139.064C106.543 139.25 106.75 139.437 106.963 139.629C107.167 139.813 107.371 139.997 107.581 140.187C111.386 143.802 113.805 148.515 115.447 153.447C115.536 153.706 115.625 153.965 115.717 154.231C117.706 160.529 118.284 167.859 116.659 174.295C116.62 174.453 116.581 174.611 116.541 174.773C115.283 179.618 111.987 183.657 107.712 186.207C102.194 189.295 96.3695 190.109 90.1448 190.113C89.8379 190.113 89.8379 190.113 89.5247 190.113C86.4023 190.11 83.3542 190.02 80.2965 189.325C80.1174 189.285 79.9384 189.245 79.7539 189.203C74.0854 187.863 68.6619 184.719 65.5341 179.714C61.6471 173.246 61.6906 164.397 63.4151 157.214C63.4661 157.011 63.5171 156.808 63.5696 156.599C63.6203 156.393 63.6709 156.187 63.7231 155.975C65.1614 150.316 67.6976 145.223 71.5694 140.841C71.7916 140.589 71.7916 140.589 72.0183 140.331C80.767 131.005 96.8454 130.907 106.337 139.064ZM74.3355 145.446C69.9917 150.86 67.7023 157.945 67.4483 164.841C67.4417 165.006 67.4351 165.17 67.4283 165.34C67.2622 170.027 67.958 174.326 70.8422 178.174C70.9931 178.389 70.9931 178.389 71.1471 178.609C74.2967 182.729 79.9489 184.177 84.8155 184.893C86.5234 185.098 88.2457 185.069 89.963 185.052C90.2654 185.051 90.2654 185.051 90.5739 185.049C97.2171 185.009 103.27 184.04 108.175 179.144C108.41 178.912 108.41 178.912 108.651 178.676C112.157 174.977 112.486 170.127 112.372 165.306C112.074 157.481 109.576 149.679 104.054 143.993C103.915 143.839 103.776 143.685 103.633 143.527C100.596 140.258 95.9632 138.525 91.5766 138.323C84.5443 138.144 79.0565 140.067 74.3355 145.446Z" fill="black"/>
<path d="M144.492 80.5247C147.086 82.2996 148.661 84.7042 149.386 87.7518C149.791 91.544 148.979 94.4266 146.602 97.4163C144.665 99.5734 141.927 100.701 139.092 100.902C135.65 101.017 132.844 100.026 130.236 97.7544C127.964 95.3915 127.008 92.4398 127.047 89.2271C127.197 86.1189 128.415 83.5544 130.72 81.4489C134.949 78.2739 139.88 77.797 144.492 80.5247Z" fill="#F4A99C"/>
<path d="M47.0851 79.9944C47.272 80.0875 47.4589 80.1806 47.6514 80.2766C50.0658 81.6364 51.8116 84.2368 52.6305 86.8427C53.3278 89.8075 53.0413 92.7794 51.5595 95.4581C49.9622 97.8778 47.6793 99.6997 44.9034 100.6C41.8062 101.204 38.7165 101.045 35.9405 99.4618C33.4117 97.7434 31.5031 95.3809 30.8431 92.3578C30.529 88.2035 31.0216 85.381 33.7066 82.1288C37.1674 78.3364 42.6482 77.7821 47.0851 79.9944Z" fill="#F4A99C"/>
<path d="M28.2967 15.154C29.9045 15.3708 31.3327 16.0285 32.7824 16.7231C32.9322 16.7944 33.0819 16.8658 33.2362 16.9393C37.1454 18.8383 40.5854 21.485 43.9965 24.1508C44.3668 24.4401 44.7395 24.7261 45.1126 25.0117C45.7979 25.5918 46.0918 25.9905 46.2054 26.8886C46.0927 27.82 45.8725 28.0212 45.1609 28.6167C44.94 28.803 44.7191 28.9892 44.4914 29.1811C43.3953 30.0575 42.2752 30.9036 41.1548 31.7486C39.704 32.8472 38.3222 34.0094 36.9509 35.2047C36.2621 35.8044 35.5561 36.3792 34.843 36.9499C33.7848 37.807 32.7891 38.7148 31.7976 39.6468C29.7583 41.5513 29.7583 41.5513 28.7825 42.3892C28.605 42.5435 28.4275 42.6979 28.2446 42.857C27.6916 43.1467 27.6916 43.1467 26.9293 43.1211C26.2371 42.9043 26.2371 42.9043 25.7068 42.1316C23.8968 37.8806 23.9722 32.7031 23.9921 28.17C23.9947 27.4633 23.9921 26.7567 23.989 26.05C23.9826 17.9863 23.9826 17.9863 25.8252 15.5848C26.5779 15.0069 27.3815 15.1286 28.2967 15.154Z" fill="#F4A99C"/>
<path d="M153.507 15.2688C155.305 16.6924 155.542 19.2293 155.794 21.386C156.414 27.9405 156.815 36.5965 153.992 42.6621C153.228 43.0442 152.625 43.1284 151.81 42.9045C151.057 42.3787 150.42 41.7456 149.768 41.0995C149.012 40.3547 148.235 39.6313 147.462 38.9046C147.294 38.7466 147.126 38.5886 146.954 38.4257C145.63 37.185 144.262 36.0318 142.841 34.9047C142.411 34.5517 141.982 34.1982 141.553 33.8441C140.537 33.0128 139.51 32.1985 138.477 31.3896C138.191 31.1639 137.904 30.9383 137.618 30.7126C137.077 30.2863 136.531 29.8673 135.98 29.4531C135.619 29.1742 135.619 29.1742 135.25 28.8897C135.036 28.7281 134.822 28.5666 134.601 28.4001C133.987 27.7378 133.894 27.3157 133.871 26.42C135.015 24.6701 136.809 23.5175 138.477 22.2989C138.633 22.1835 138.789 22.068 138.95 21.949C149.421 14.2294 149.421 14.2294 153.507 15.2688Z" fill="#F4A99C"/>
<path d="M90.0538 76.7675C90.2929 76.7604 90.532 76.7534 90.7783 76.7462C92.4589 76.7318 93.8424 76.9961 95.3265 77.8129C96.1774 78.6638 96.4965 79.3236 96.6143 80.525C96.4658 82.337 95.5769 83.5004 94.2962 84.737C93.8719 85.0855 93.8719 85.0855 93.1598 85.4036C92.6143 85.7614 92.6143 85.7614 92.5604 86.3174C92.4884 88.3563 93.033 90.2989 94.3568 91.8732C95.9396 93.1422 97.523 93.6485 99.5385 93.555C102.03 93.2453 103.494 92.1039 105.069 90.2028C105.664 89.5097 105.874 89.4602 106.796 89.3732C107.829 89.4608 108.179 89.6962 108.902 90.4187C109.323 91.2607 109.256 92.1646 109.144 93.0853C107.891 95.4992 105.433 97.3012 102.929 98.2424C100.159 99.0954 96.9791 99.0042 94.335 97.8276C92.7905 96.9984 91.4532 96.0439 90.2357 94.7822C89.5345 95.1027 89.151 95.3745 88.569 95.9186C85.8507 98.3177 82.6626 98.8853 79.1594 98.7148C75.856 98.397 73.5435 96.4418 71.4558 94.0351C70.7765 93.1843 70.7482 92.5151 70.755 91.4518C70.8932 90.5823 71.376 90.2082 72.0543 89.6914C72.758 89.3396 73.2112 89.3587 73.9936 89.449C74.8734 90.0538 75.4834 90.6949 76.1451 91.5247C77.2266 92.7851 78.1287 93.2528 79.7975 93.4281C81.8314 93.5286 83.7549 93.4828 85.3873 92.1156C86.7718 90.5106 87.5009 88.8226 87.4668 86.6962C87.2961 85.9156 87.0917 85.7231 86.4479 85.2673C86.2716 85.1588 86.0954 85.0504 85.9138 84.9387C84.7741 84.2069 83.7575 83.0229 83.4479 81.6916C83.3167 80.4737 83.3124 79.5542 83.8419 78.4341C85.5019 76.643 87.783 76.7894 90.0538 76.7675Z" fill="black"/>
<path d="M125.407 66.4153C126.001 66.704 126.538 67.0183 127.083 67.3888C127.413 67.5913 127.413 67.5913 127.75 67.7979C129.432 69.5263 130.066 71.3455 130.069 73.7149C130.024 75.9383 129.274 77.5001 127.76 79.1007C126.023 80.736 124.24 81.1081 121.915 81.0713C120.114 80.8553 118.507 80.0354 117.265 78.7067C117.053 78.4157 116.851 78.1175 116.659 77.8128C116.56 77.6678 116.461 77.5228 116.358 77.3734C115.249 75.4155 115.329 72.6447 115.887 70.5147C116.692 68.7118 118.144 67.3852 119.884 66.4939C121.606 65.8846 123.659 65.8577 125.407 66.4153Z" fill="black"/>
<path d="M60.3121 66.6766C62.0692 67.7279 63.3477 69.0872 64.0544 71.0249C64.6184 73.3416 64.4954 75.7093 63.3272 77.8127C62.1177 79.4188 60.7064 80.5433 58.7212 80.9641C56.4798 81.2324 54.7909 81.0035 52.9032 79.752C52.6432 79.587 52.3832 79.422 52.1153 79.252C50.6106 77.8505 49.9315 76.0055 49.833 73.9908C49.8111 71.7157 50.1295 70.0125 51.7129 68.293C54.0365 66.0885 57.3112 65.282 60.3121 66.6766Z" fill="black"/>
<path d="M59.1684 50.324C59.8326 50.8028 60.146 51.3983 60.4824 52.1225C60.5467 52.2585 60.5467 52.2585 60.6123 52.3973C60.7518 52.6929 60.89 52.9892 61.0281 53.2854C61.1249 53.4915 61.2217 53.6976 61.3185 53.9036C62.0065 55.3712 62.6765 56.8462 63.3318 58.3287C63.4283 58.5239 63.4283 58.5239 63.5267 58.723C63.7059 59.1143 63.7845 59.4943 63.8658 59.9163C64.0782 60.7869 64.3345 61.4951 65.0389 62.0801C66.591 62.806 68.5461 62.8185 70.2252 62.9705C71.006 63.0439 71.7848 63.1353 72.5639 63.2246C73.17 63.2939 73.776 63.3603 74.3834 63.4179C74.551 63.4347 74.551 63.4347 74.7221 63.4519C74.9288 63.4725 75.1357 63.4918 75.3428 63.5093C76.1652 63.5942 76.898 63.8317 77.452 64.4732C77.8111 64.9809 77.9808 65.3107 77.9897 65.939C77.9931 66.0457 77.9965 66.1525 78 66.2624C77.829 67.3945 77.0285 68.0853 76.2472 68.8481C76.1265 68.9678 76.0059 69.0875 75.8855 69.2074C75.5696 69.5212 75.2523 69.8336 74.9346 70.1457C74.4273 70.6447 73.9222 71.1458 73.4169 71.6468C73.2418 71.82 73.0662 71.9927 72.8905 72.1653C72.3425 72.7062 71.8103 73.2509 71.3122 73.8383C70.9979 74.2028 70.659 74.5427 70.3193 74.8832C70.251 74.9531 70.1827 75.023 70.1123 75.095C69.9395 75.2686 69.7602 75.4355 69.5799 75.6012C69.501 75.6012 69.4221 75.6012 69.3409 75.6012C69.6079 77.546 69.9171 79.4827 70.2371 81.4194C70.3966 82.3873 70.5555 83.3552 70.7138 84.3233C70.7713 84.673 70.8297 85.0226 70.8883 85.3721C70.9215 85.5736 70.9546 85.7751 70.9877 85.9766C71.0028 86.0644 71.0178 86.1523 71.0333 86.2428C71.1948 87.2381 71.2356 88.1328 70.6554 89.0026C70.0021 89.6205 69.4462 89.9172 68.5445 89.9009C67.697 89.7718 66.9721 89.297 66.2339 88.8829C65.9945 88.7509 65.755 88.6189 65.5155 88.487C64.9703 88.1858 64.4263 87.8826 63.8831 87.5779C63.2831 87.2415 62.6819 86.9076 62.0794 86.5758C62.0025 86.5335 61.9256 86.4911 61.8464 86.4475C61.5466 86.2824 61.2468 86.1173 60.9467 85.9525C60.7399 85.8389 60.5332 85.725 60.3265 85.6111C60.1958 85.5395 60.065 85.468 59.9303 85.3942C59.6654 85.2438 59.4045 85.0864 59.1473 84.9231C59.0223 84.8441 58.8972 84.7651 58.7684 84.6838C58.6582 84.6114 58.5481 84.5389 58.4346 84.4643C58.1089 84.302 58.1089 84.302 57.7535 84.41C57.3808 84.5799 57.0218 84.76 56.6636 84.9586C56.5955 84.9962 56.5274 85.0338 56.4572 85.0725C56.2353 85.1953 56.0139 85.319 55.7925 85.4428C55.6366 85.5295 55.4808 85.6161 55.3249 85.7027C54.2472 86.3029 53.1799 86.9197 52.1166 87.5452C51.2205 88.0718 50.3194 88.589 49.4142 89.0998C49.2867 89.1722 49.1593 89.2447 49.028 89.3193C48.9096 89.3859 48.7912 89.4524 48.6692 89.5209C48.5648 89.5798 48.4604 89.6387 48.3528 89.6994C47.7675 89.9906 47.1609 90.0533 46.5163 89.9598C45.8424 89.6803 45.3824 89.2294 44.9628 88.6436C44.5512 87.4072 44.9371 85.9415 45.1486 84.6856C45.1803 84.4916 45.2118 84.2975 45.2433 84.1033C45.3258 83.5956 45.4098 83.0882 45.4941 82.5808C45.6285 81.771 45.7608 80.9608 45.893 80.1505C45.9387 79.8715 45.9851 79.5927 46.0316 79.3138C46.1033 78.8817 46.1709 78.449 46.2364 78.0159C46.2645 77.8365 46.2942 77.6574 46.3253 77.4785C46.3729 77.2042 46.4158 76.9295 46.458 76.6544C46.4735 76.5719 46.489 76.4895 46.5049 76.4045C46.5528 76.0664 46.5636 75.8025 46.3897 75.5024C46.1227 75.174 45.8288 74.9067 45.4977 74.6444C45.4001 74.5653 45.3024 74.4861 45.2018 74.4046C45.2018 74.3257 45.2018 74.2467 45.2018 74.1653C45.1229 74.1653 45.044 74.1653 44.9628 74.1653C44.7923 73.9921 44.7923 73.9921 44.5933 73.751C44.124 73.1988 43.6214 72.6894 43.1068 72.1798C42.9643 72.0378 42.9643 72.0378 42.819 71.893C42.5181 71.5932 42.2169 71.2938 41.9155 70.9944C41.5181 70.5997 41.121 70.2045 40.7242 69.8091C40.6345 69.7202 40.5447 69.6313 40.4522 69.5397C39.8986 68.9879 39.3762 68.4177 38.8683 67.8236C38.7815 67.726 38.7815 67.726 38.6931 67.6265C38.1795 67.0382 37.9781 66.5878 38.0019 65.795C38.0909 65.0649 38.4798 64.5032 38.9878 63.9946C39.5794 63.6977 40.1332 63.5582 40.7896 63.473C40.8833 63.4599 40.9771 63.4468 41.0737 63.4334C41.2773 63.4051 41.4809 63.3774 41.6847 63.3501C42.011 63.3058 42.3368 63.2587 42.6626 63.2111C43.7991 63.0473 44.9339 62.9041 46.0775 62.7997C46.6316 62.7481 47.1848 62.689 47.7381 62.6293C48.0074 62.6024 48.2771 62.5791 48.5471 62.5596C49.9501 62.5114 49.9501 62.5114 51.1359 61.875C51.4709 61.3578 51.6443 60.7953 51.8094 60.2056C51.9353 59.7889 52.1214 59.4098 52.3139 59.0205C52.383 58.8742 52.4517 58.7277 52.52 58.581C52.5544 58.5078 52.5887 58.4345 52.6241 58.359C52.9317 57.7 53.2333 57.0382 53.5355 56.3767C53.6175 56.1976 53.6995 56.0185 53.7816 55.8394C54.2095 54.9065 54.6342 53.9731 55.0335 53.0274C55.0918 52.8904 55.15 52.7535 55.2101 52.6123C55.3163 52.3608 55.4209 52.1087 55.5235 51.8557C55.8897 50.9899 56.2431 50.6027 57.0622 50.1295C57.7925 49.9101 58.4882 49.9659 59.1684 50.324Z" fill="#010100"/>
<path d="M57.8253 56.3159C58.2147 56.5114 58.3068 56.9527 58.4731 57.3393C58.5663 57.5515 58.6598 57.7637 58.7534 57.9757C58.8076 58.0986 58.8618 58.2215 58.9176 58.3481C59.264 59.1259 59.619 59.8996 59.9735 60.6736C60.1414 61.0402 60.3089 61.407 60.4765 61.7737C60.5579 61.9513 60.6397 62.1286 60.7219 62.3058C60.9292 62.7529 61.1306 63.2013 61.3223 63.6554C61.3614 63.7453 61.4006 63.8353 61.4409 63.9279C61.5144 64.0971 61.5859 64.2673 61.6548 64.4385C61.9361 65.0743 62.3164 65.3942 62.9496 65.6726C63.2717 65.7705 63.5886 65.8185 63.9222 65.8581C64.0161 65.8712 64.11 65.8842 64.2068 65.8976C64.4135 65.9261 64.6204 65.9536 64.8273 65.9802C65.1815 66.026 65.5351 66.0752 65.8888 66.1251C66.6702 66.2349 67.4521 66.3414 68.234 66.4475C68.6369 66.5022 69.0397 66.557 69.4425 66.612C69.6907 66.6459 69.9389 66.6796 70.1871 66.7132C70.2988 66.7284 70.4106 66.7437 70.5257 66.7594C70.6232 66.7726 70.7208 66.7858 70.8213 66.7994C71.1112 66.8436 71.3972 66.8992 71.6842 66.9592C71.1252 67.642 70.5134 68.2629 69.887 68.8827C69.703 69.0649 69.5195 69.2475 69.3362 69.4303C68.8154 69.9494 68.2941 70.468 67.7716 70.9854C67.4507 71.3033 67.1306 71.6221 66.811 71.9415C66.6897 72.0623 66.5681 72.1829 66.4462 72.3031C66.2756 72.4712 66.1062 72.6404 65.937 72.8099C65.8406 72.9056 65.7442 73.0013 65.6448 73.0999C65.0086 73.8445 64.9626 74.5116 65.0214 75.4576C65.1167 76.5207 65.3135 77.5741 65.4899 78.6259C65.532 78.8823 65.5739 79.1388 65.6157 79.3952C65.7161 80.0091 65.8179 80.6227 65.9204 81.2362C65.9925 81.6685 66.0642 82.1009 66.1359 82.5333C66.1995 82.917 66.2632 83.3007 66.327 83.6843C65.9016 83.5504 65.5169 83.4072 65.1314 83.1822C65.0389 83.1287 64.9463 83.0751 64.851 83.0199C64.752 82.9618 64.653 82.9036 64.551 82.8437C64.446 82.7828 64.3411 82.7218 64.233 82.659C64.0047 82.5264 63.7766 82.3935 63.5486 82.2604C63.1655 82.037 62.7817 81.8147 62.3978 81.5928C61.8875 81.2977 61.3773 81.0026 60.8674 80.7069C60.7504 80.6391 60.6335 80.5713 60.513 80.5015C60.2633 80.3559 60.0143 80.2094 59.7656 80.0621C59.6407 79.9881 59.5158 79.9142 59.3871 79.8379C59.2745 79.7709 59.1619 79.7039 59.0459 79.6348C58.4935 79.327 57.9781 79.2421 57.3595 79.3569C56.8397 79.5801 56.3573 79.8558 55.8696 80.1419C55.6019 80.2988 55.3325 80.4524 55.0625 80.6055C54.2271 81.0806 53.3955 81.5624 52.5653 82.0468C52.29 82.2074 52.0145 82.3678 51.7391 82.5281C51.54 82.6442 51.3413 82.7608 51.1425 82.8773C50.9592 82.9841 50.9592 82.9841 50.7721 83.0931C50.6639 83.1565 50.5556 83.2198 50.4441 83.2851C50.1539 83.4423 49.8651 83.5683 49.5566 83.6843C49.6162 83.2602 49.6772 82.8363 49.7385 82.4124C49.7583 82.2757 49.7781 82.139 49.7985 81.9982C49.9328 81.0875 50.0793 80.1796 50.2349 79.2723C50.2533 79.1642 50.2717 79.0562 50.2907 78.9448C50.3828 78.4044 50.4761 77.8643 50.5713 77.3245C50.9956 75.3782 50.9956 75.3782 50.554 73.5138C50.131 72.9593 49.6218 72.4843 49.1198 72.0031C48.894 71.7848 48.6692 71.5656 48.4447 71.3461C48.2955 71.2025 48.2955 71.2025 48.1432 71.056C47.9261 70.8188 47.9261 70.8188 47.9261 70.5849C47.8516 70.5536 47.7772 70.5222 47.7005 70.4899C47.4603 70.351 47.4603 70.351 47.3438 70.0001C47.2669 70.0001 47.1901 70.0001 47.1109 70.0001C46.9464 69.8322 46.9464 69.8322 46.7538 69.5976C46.2825 69.041 45.7733 68.531 45.2548 68.0191C45.0763 67.8429 44.8981 67.6664 44.7202 67.4896C44.6036 67.3745 44.6036 67.3745 44.4846 67.2571C44.3158 67.0762 44.3158 67.0762 44.3158 66.9592C44.8495 66.8732 45.3833 66.7881 45.9171 66.7033C45.999 66.6903 46.0808 66.6773 46.1651 66.6639C47.1709 66.5043 48.1774 66.3533 49.1867 66.2177C49.3275 66.1987 49.3275 66.1987 49.4711 66.1793C49.9275 66.1177 50.3841 66.0574 50.8409 65.9988C52.4833 65.8101 52.4833 65.8101 53.8656 64.9709C54.0216 64.7029 54.1519 64.4518 54.2769 64.1705C54.3133 64.0917 54.3498 64.0129 54.3873 63.9318C54.506 63.6745 54.6226 63.4163 54.7391 63.158C54.8212 62.9789 54.9034 62.7999 54.9858 62.6209C55.1534 62.2563 55.3202 61.8913 55.4864 61.526C55.7107 61.0335 55.9382 60.5426 56.1671 60.0522C56.3001 59.7668 56.4331 59.4814 56.5661 59.196C56.6562 59.0028 56.6562 59.0028 56.748 58.8056C57.1283 57.984 57.4847 57.1549 57.8253 56.3159Z" fill="#FFBB4D"/>
<path d="M123.502 50.5095C124.187 51.1693 124.499 52.0547 124.873 52.9136C124.946 53.0802 125.02 53.2467 125.094 53.4132C125.245 53.7557 125.396 54.0984 125.547 54.4414C125.876 55.1916 126.209 55.94 126.542 56.6883C126.604 56.8278 126.666 56.9674 126.729 57.1111C127.075 57.8861 127.426 58.6578 127.785 59.4266C127.843 59.5515 127.843 59.5515 127.902 59.679C128.091 60.0833 128.28 60.4873 128.471 60.8908C128.539 61.0358 128.607 61.1807 128.675 61.3257C128.765 61.5165 128.765 61.5165 128.857 61.7112C128.985 62.0133 128.985 62.0133 128.985 62.2529C129.099 62.2586 129.212 62.2643 129.329 62.2701C130.56 62.3367 131.775 62.4679 132.997 62.6298C133.192 62.6553 133.387 62.6809 133.583 62.7064C133.988 62.7596 134.393 62.8134 134.798 62.8675C135.314 62.9363 135.83 63.003 136.347 63.0692C136.748 63.121 137.15 63.1744 137.551 63.2281C137.742 63.2533 137.932 63.278 138.122 63.3022C140.657 63.6246 140.657 63.6246 141.502 64.6496C141.901 65.2656 142.061 65.7054 141.979 66.447C141.718 67.6015 140.727 68.3665 139.915 69.1507C139.697 69.364 139.479 69.5777 139.262 69.7918C139.127 69.9239 138.992 70.0556 138.857 70.1867C138.513 70.5214 138.19 70.8645 137.879 71.2296C137.442 71.7387 136.965 72.1948 136.477 72.6539C136.294 72.8297 136.112 73.0057 135.929 73.1819C135.646 73.4559 135.361 73.7285 135.073 73.9974C133.989 74.9378 133.989 74.9378 133.284 76.1479C133.309 76.5346 133.405 76.8601 133.515 77.2319C133.57 77.5361 133.616 77.8412 133.662 78.1469C133.716 78.4997 133.775 78.8514 133.835 79.2031C133.965 79.9675 134.094 80.7323 134.221 81.4971C134.243 81.6244 134.264 81.7517 134.286 81.8829C134.458 82.9138 134.628 83.9449 134.788 84.9778C134.825 85.2144 134.863 85.4508 134.901 85.6871C135.283 88.1848 135.283 88.1848 134.819 89.0428C134.395 89.6018 133.979 89.8756 133.295 89.9916C132.16 90.0651 131.366 89.6479 130.416 89.0952C130.213 88.9804 130.009 88.8659 129.805 88.7516C129.341 88.4898 128.877 88.2259 128.414 87.9605C127.544 87.4621 126.671 86.9709 125.795 86.4825C125.183 86.1395 124.575 85.7905 123.975 85.4258C123.804 85.3235 123.804 85.3235 123.63 85.2192C123.416 85.0904 123.203 84.9596 122.992 84.8266C122.897 84.7696 122.802 84.7127 122.703 84.6539C122.621 84.6031 122.539 84.5523 122.454 84.4999C121.877 84.3288 121.307 84.7343 120.807 85.0055C120.681 85.0737 120.555 85.1419 120.425 85.2121C120.292 85.285 120.16 85.3578 120.023 85.4328C119.885 85.5077 119.748 85.5825 119.606 85.6596C118.588 86.2153 117.584 86.792 116.584 87.3801C116.117 87.6548 115.645 87.9184 115.168 88.1759C114.848 88.3499 114.53 88.5263 114.212 88.7039C114.105 88.7632 113.999 88.8225 113.889 88.8836C113.676 89.0026 113.462 89.1218 113.249 89.2412C113.15 89.2962 113.051 89.3512 112.949 89.4079C112.861 89.4573 112.773 89.5067 112.681 89.5575C111.916 89.9519 111.203 90.1018 110.359 89.8558C109.753 89.5867 109.392 89.1991 109.078 88.6159C108.642 87.3001 109.108 85.6788 109.324 84.3469C109.361 84.1103 109.399 83.8736 109.436 83.637C109.629 82.4147 109.831 81.1939 110.039 79.974C110.058 79.8583 110.078 79.7426 110.098 79.6235C110.192 79.0693 110.286 78.5154 110.384 77.9618C110.418 77.7622 110.452 77.5626 110.486 77.3629C110.502 77.2731 110.518 77.1832 110.535 77.0906C110.615 76.6184 110.645 76.2532 110.508 75.7939C110.318 75.5183 110.318 75.5183 110.063 75.2564C109.965 75.1518 109.868 75.0472 109.768 74.9394C109.21 74.3623 108.647 73.7918 108.078 73.2259C107.856 73.0045 107.634 72.7826 107.412 72.5606C106.782 71.9304 106.152 71.3009 105.521 70.6719C105.133 70.2848 104.745 69.8972 104.358 69.5093C104.211 69.3625 104.064 69.2159 103.917 69.0695C103.711 68.8652 103.506 68.6601 103.302 68.4548C103.241 68.3954 103.181 68.336 103.119 68.2748C102.491 67.6419 102.037 67.0425 102 66.1325C102.009 65.4529 102.204 64.9301 102.641 64.4099C103.189 63.934 103.654 63.7241 104.381 63.6151C104.468 63.6015 104.555 63.588 104.644 63.574C104.93 63.5303 105.216 63.4905 105.502 63.4513C105.6 63.4373 105.698 63.4234 105.8 63.4091C106.438 63.3189 107.077 63.2346 107.716 63.1519C108.066 63.1056 108.415 63.0565 108.765 63.0066C109.865 62.8516 110.952 62.7169 112.062 62.6705C113.769 62.6284 113.769 62.6284 115.211 61.8423C115.694 61.1252 115.972 60.3351 116.228 59.5139C116.496 58.6549 116.871 57.8554 117.253 57.0429C117.447 56.6295 117.634 56.2133 117.821 55.797C117.857 55.7158 117.894 55.6346 117.931 55.5509C118.18 54.9978 118.425 54.443 118.667 53.8872C118.7 53.813 118.732 53.7388 118.765 53.6624C118.917 53.3158 119.068 52.969 119.217 52.6215C120.09 50.6197 120.09 50.6197 121.118 50.15C121.94 49.84 122.788 50.0351 123.502 50.5095Z" fill="#010100"/>
<path d="M122 56C122.403 56.3297 122.576 56.7775 122.784 57.2416C122.825 57.3301 122.865 57.4186 122.907 57.5098C123.039 57.7998 123.17 58.0903 123.301 58.3809C123.392 58.5814 123.484 58.7818 123.575 58.9823C124.011 59.9436 124.44 60.9078 124.856 61.8781C124.892 61.9608 124.927 62.0435 124.964 62.1287C125.13 62.5159 125.294 62.9036 125.457 63.2921C125.944 64.6016 125.944 64.6016 127 65.4088C127.546 65.5835 128.114 65.6477 128.68 65.7264C128.817 65.7464 128.954 65.7663 129.095 65.7869C129.532 65.8505 129.969 65.9124 130.406 65.9742C130.837 66.0363 131.267 66.0986 131.698 66.161C131.978 66.2015 132.258 66.2418 132.538 66.282C133.694 66.4484 134.847 66.6278 136 66.8155C135.55 67.3552 135.087 67.8689 134.587 68.3622C134.524 68.4254 134.46 68.4886 134.395 68.5537C134.128 68.82 133.86 69.0855 133.592 69.3511C132.92 70.0192 132.255 70.6837 131.641 71.4077C131.243 71.8617 130.8 72.2736 130.364 72.6902C129.676 73.3644 129.324 74.0091 129.285 74.9853C129.288 75.5878 129.396 76.1735 129.496 76.7662C129.516 76.8909 129.537 77.0156 129.558 77.144C129.623 77.5417 129.689 77.9393 129.755 78.3369C129.798 78.5995 129.842 78.862 129.885 79.1246C130.119 80.5532 130.119 80.5532 130.368 81.9793C130.385 82.0731 130.402 82.1669 130.419 82.2636C130.464 82.509 130.509 82.7544 130.554 82.9997C130.607 83.3423 130.628 83.6546 130.615 84C130.21 83.8448 129.835 83.6686 129.458 83.4536C129.35 83.3925 129.243 83.3314 129.132 83.2685C129.017 83.2025 128.902 83.1366 128.783 83.0687C128.663 83.0001 128.543 82.9315 128.419 82.8609C127.296 82.2188 126.18 81.5661 125.065 80.9103C124.956 80.8463 124.847 80.7824 124.735 80.7165C124.491 80.5729 124.249 80.4281 124.006 80.2825C123.879 80.2065 123.752 80.1305 123.621 80.0522C123.505 79.9827 123.39 79.9132 123.271 79.8416C122.711 79.5422 122.151 79.468 121.521 79.5536C121.153 79.6863 120.822 79.8704 120.482 80.0644C120.384 80.1184 120.285 80.1724 120.184 80.2281C119.871 80.4015 119.559 80.5781 119.248 80.7554C119.149 80.8113 119.05 80.8672 118.948 80.9248C117.997 81.4623 117.053 82.0114 116.11 82.5629C115.823 82.7306 115.536 82.898 115.249 83.0653C115.04 83.1872 114.832 83.3098 114.623 83.4323C114.497 83.5063 114.37 83.5802 114.24 83.6564C114.126 83.7227 114.013 83.7891 113.897 83.8574C113.624 84 113.624 84 113.385 84C113.585 82.4654 113.832 80.9418 114.103 79.4185C114.134 79.24 114.166 79.0614 114.197 78.8829C114.44 77.5122 114.44 77.5122 114.531 77.0015C114.587 76.6883 114.64 76.3748 114.693 76.0612C114.709 75.9771 114.724 75.893 114.74 75.8064C114.906 74.7926 114.804 74.0944 114.224 73.2533C113.737 72.6286 113.167 72.0834 112.604 71.5284C112.471 71.3956 112.338 71.2628 112.205 71.1298C111.857 70.7829 111.509 70.4371 111.16 70.0916C110.599 69.5355 110.04 68.9779 109.481 68.4202C109.285 68.2256 109.09 68.0316 108.894 67.8376C108.775 67.7196 108.656 67.6017 108.538 67.4837C108.434 67.3805 108.33 67.2772 108.222 67.1709C108 66.9356 108 66.9356 108 66.8155C108.404 66.7489 108.808 66.6843 109.212 66.6202C109.344 66.5991 109.477 66.578 109.613 66.5563C110.577 66.4073 111.542 66.2785 112.51 66.1592C112.757 66.1283 113.004 66.0974 113.252 66.0665C113.624 66.0202 113.996 65.9745 114.368 65.9308C114.721 65.8893 115.074 65.8455 115.427 65.8015C115.533 65.7897 115.638 65.778 115.747 65.7658C116.522 65.6664 117.194 65.4628 117.793 64.9408C118.37 64.1336 118.747 63.2288 119.143 62.324C119.222 62.1476 119.3 61.9711 119.379 61.7948C119.498 61.5264 119.618 61.2581 119.737 60.9895C120.112 60.1437 120.498 59.3033 120.886 58.4635C121.264 57.6451 121.638 56.8258 122 56Z" fill="#FFBB4D"/>
<path d="M21.273 19.3119C21.3289 19.3351 21.3848 19.3582 21.4424 19.3821C22.8037 19.9504 24.0884 20.6542 25.3458 21.4227C25.3927 21.4511 25.4395 21.4795 25.4878 21.5088C26.0339 21.8408 26.5601 22.1886 27.0677 22.5775C27.272 22.7367 27.272 22.7367 27.506 22.8427C27.5127 22.8877 27.5193 22.9326 27.5262 22.9789C27.5692 22.991 27.6122 23.0032 27.6565 23.0156C28.0914 23.1739 28.4538 23.5489 28.7986 23.8486C28.9223 23.9567 28.9223 23.9567 29.0565 24.0474C29.1589 24.1291 29.1589 24.1291 29.1792 24.2653C29.2358 24.2207 29.2925 24.1762 29.3508 24.1302C31.052 22.8159 33.2 22.2313 35.3428 22.4897C35.9784 22.5768 36.575 22.7085 37.1721 22.9464C37.3402 23.0029 37.3402 23.0029 37.4643 22.9186C37.6211 22.786 37.7319 22.6437 37.8538 22.4783C37.9017 22.4136 37.9496 22.3488 37.999 22.2821C38.0485 22.2144 38.0979 22.1467 38.1489 22.0769C38.1984 22.01 38.248 21.9431 38.2991 21.8742C38.5233 21.5696 38.7311 21.2677 38.92 20.9399C38.9915 20.85 39.0655 20.762 39.142 20.6764C39.3102 20.4835 39.4657 20.2877 39.6148 20.0797C39.8383 19.774 40.086 19.4977 40.3433 19.2201C40.5137 19.0353 40.6788 18.8466 40.844 18.6571C43.858 15.2849 48.1932 12.2102 52.8175 11.8457C54.3883 11.7706 55.963 12.3165 57.1548 13.3342C59.5739 15.5876 60.5919 19.0293 61.376 22.1327C61.3893 22.1829 61.4026 22.2332 61.4163 22.2849C61.5549 22.8259 61.6409 23.3723 61.7232 23.9243C61.7385 24.0258 61.7538 24.1274 61.7691 24.229C61.801 24.4415 61.8327 24.654 61.8642 24.8666C61.896 25.0807 61.9282 25.2947 61.9609 25.5086C62.1605 26.8146 62.3288 28.1105 62.3896 29.4318C62.3921 29.4844 62.3946 29.5369 62.3972 29.5911C62.4107 29.8845 62.4184 30.1776 62.422 30.4713C62.4231 30.5573 62.4243 30.6433 62.4254 30.7318C62.4306 31.609 62.3683 32.476 62.2745 33.3477C62.2686 33.4051 62.2627 33.4626 62.2566 33.5218C62.0831 35.1512 61.6012 36.7402 60.6836 38.1092C60.6463 38.1652 60.609 38.2211 60.5706 38.2788C59.7326 39.4709 58.37 40.3213 56.9475 40.6131C56.3594 40.7151 55.768 40.797 55.1764 40.8759C55.3303 41.0345 55.4844 41.1929 55.6385 41.3512C55.6865 41.4005 55.7345 41.4498 55.7839 41.5006C56.0786 41.8029 56.3754 42.1028 56.6742 42.401C59.5221 45.2451 59.5221 45.2451 59.5402 46.355C59.4955 46.8916 59.3466 47.3557 58.983 47.7605C57.889 48.6339 56.1846 48.4768 54.8654 48.5152C54.6962 48.5207 54.527 48.5263 54.3577 48.5319C53.8161 48.5497 53.2745 48.5672 52.7328 48.579C52.0345 48.5735 52.0345 48.5735 51.4053 48.8228C51.2942 48.9667 51.2142 49.1118 51.1314 49.2738C51.0674 49.3862 51.0033 49.4986 50.9392 49.6109C50.8676 49.7375 50.7977 49.8649 50.7282 49.9926C50.3279 50.7272 49.9073 51.4514 49.472 52.1657C49.4459 52.2088 49.4199 52.2518 49.3931 52.2961C48.3431 54.0269 48.3431 54.0269 47.4314 54.3097C46.832 54.4358 46.3208 54.3045 45.7904 54.0074C45.5116 53.7954 45.3226 53.5016 45.1243 53.217C45.0934 53.1726 45.0624 53.1282 45.0305 53.0825C44.6837 52.5812 44.3587 52.067 44.037 51.5494C44.0045 51.4971 43.9719 51.4448 43.9384 51.391C42.4939 49.0691 41.1267 46.7053 39.8146 44.3064C39.6331 43.9746 39.4502 43.6437 39.267 43.3128C38.6502 42.1973 38.0522 41.0727 37.4668 39.9404C37.4177 39.8457 37.4177 39.8457 37.3676 39.7491C37.2754 39.5709 37.1836 39.3926 37.0919 39.2141C37.0504 39.134 37.0504 39.134 37.0081 39.0523C36.9045 38.8494 36.8185 38.6802 36.7849 38.4533C36.7177 38.4746 36.6505 38.496 36.5813 38.5179C36.3331 38.588 36.0954 38.6332 35.8404 38.6699C35.7528 38.6827 35.6651 38.6955 35.5749 38.7086C35.4836 38.7216 35.3924 38.7345 35.3012 38.7475C35.2081 38.7609 35.1151 38.7744 35.022 38.788C34.7956 38.8208 34.5691 38.8532 34.3426 38.8854C34.3357 38.9248 34.3288 38.9641 34.3216 39.0047C33.4216 44.1162 32.369 49.232 30.9338 54.2233C30.8748 54.4297 30.8176 54.6364 30.7606 54.8433C30.5221 55.6924 30.2886 56.401 29.4927 56.8713C29.0146 57.1136 28.4513 57.1407 27.9404 56.9943C27.1501 56.6687 26.5125 56.0142 25.8874 55.4482C25.8387 55.4042 25.79 55.3602 25.7399 55.3148C25.2508 54.8711 24.7713 54.4179 24.2946 53.961C24.2142 53.884 24.1338 53.8071 24.0533 53.7303C23.9779 53.6584 23.9028 53.5864 23.8279 53.5141C23.7275 53.4184 23.6248 53.3252 23.5221 53.232C23.4378 53.1445 23.4378 53.1445 23.3517 53.0552C22.7928 52.7684 21.917 53.157 21.3433 53.3138C21.2516 53.3384 21.1599 53.363 21.0682 53.3874C20.6835 53.4902 20.2991 53.594 19.9148 53.6983C18.0434 54.2058 18.0434 54.2058 17.2374 54.3281C17.1586 54.3402 17.1586 54.3402 17.0782 54.3526C16.4915 54.4298 15.9806 54.3149 15.4887 53.989C14.9787 53.5539 14.7858 53.0443 14.7255 52.3852C14.6795 51.3435 15.4538 50.2419 15.914 49.3483C15.9456 49.2865 15.9773 49.2246 16.0099 49.1608C16.4568 48.2872 16.9177 47.4209 17.3792 46.5549C17.329 46.5613 17.2789 46.5677 17.2272 46.5744C14.8942 46.8679 13.1174 46.7289 11.1908 45.3003C9.58257 44.0295 8.5247 41.9524 7.87792 40.0445C7.82264 39.8819 7.76477 39.7202 7.70697 39.5585C5.82779 34.1957 4.67432 26.6284 7.16109 21.317C7.90065 19.8944 8.9183 18.9018 10.3982 18.2802C10.4594 18.254 10.5207 18.2277 10.5838 18.2007C13.8603 16.9793 18.1655 18.0115 21.273 19.3119Z" fill="black"/>
<path d="M12.3918 20.338C12.438 20.3312 12.4841 20.3245 12.5316 20.3175C17.5341 19.5904 22.3407 22.0258 26.2523 24.9367C26.5655 25.1724 26.8685 25.4171 27.1609 25.6784C27.2215 25.732 27.2215 25.732 27.2833 25.7867C27.3766 25.8696 27.4695 25.953 27.5622 26.0366C27.4894 26.3072 27.3562 26.5231 27.2131 26.7628C26.6863 27.6821 26.4203 28.6804 26.2284 29.7156C25.9134 29.673 25.5997 29.6286 25.2877 29.5672C24.2139 29.3569 23.1224 29.2442 22.0332 29.3896C21.9742 29.3967 21.9153 29.4039 21.8545 29.4113C21.5725 29.4567 21.3833 29.5073 21.1837 29.7185C20.9432 30.0666 20.9219 30.276 20.9941 30.6841C21.0749 30.9923 21.2156 31.1607 21.4819 31.3286C21.8268 31.4831 22.1929 31.4434 22.5629 31.4344C23.2344 31.4281 23.8991 31.4454 24.5689 31.4935C24.6452 31.4987 24.7216 31.5039 24.8002 31.5092C25.3128 31.548 25.8126 31.6234 26.3172 31.7214C26.3274 31.7834 26.3376 31.8453 26.348 31.9091C26.6349 33.4491 27.3678 35.21 28.5761 36.2643C28.68 36.3835 28.68 36.3835 28.7047 36.5131C28.6223 36.7539 28.4538 36.9153 28.2809 37.0955C28.2414 37.1373 28.2019 37.1791 28.1611 37.2221C27.3485 38.0666 26.4548 38.8441 25.532 39.566C25.4831 39.6042 25.4342 39.6425 25.3839 39.6819C22.7413 41.7371 19.7053 43.7046 16.3377 44.2232C16.2385 44.2387 16.1395 44.2549 16.0405 44.2716C14.8669 44.4701 13.8962 44.3216 12.8982 43.6296C9.43838 40.9207 8.9644 35.1355 8.47112 31.0977C8.38568 30.3392 8.34387 29.5828 8.34187 28.8194C8.34088 28.692 8.34088 28.692 8.33988 28.562C8.33199 26.396 8.44189 23.8427 9.61935 21.9461C9.65133 21.881 9.68332 21.816 9.71628 21.749C10.3688 20.789 11.3037 20.4975 12.3918 20.338Z" fill="#F4A99C"/>
<path d="M52.2465 14.4191C52.3318 14.405 52.4171 14.3909 52.5049 14.3764C53.5278 14.2203 54.3464 14.3468 55.1961 14.9425C57.0334 16.3095 57.8829 18.818 58.534 20.9268C58.5737 21.0549 58.5737 21.0549 58.6143 21.1857C59.042 22.6061 59.3156 24.0377 59.5267 25.5051C59.5394 25.5921 59.5521 25.6791 59.5651 25.7687C60.0654 29.2141 60.7137 33.7733 58.69 36.8731C57.9603 37.7999 57.0848 38.1839 55.9412 38.3472C55.8941 38.354 55.847 38.3608 55.7985 38.3679C52.6001 38.8262 49.3194 38.0358 46.3117 36.9696C46.245 36.946 46.1783 36.9224 46.1096 36.8981C42.4964 35.6008 42.4964 35.6008 41.4807 34.7032C41.4289 34.5613 41.4289 34.5613 41.5047 34.339C41.5473 34.2515 41.5911 34.1646 41.6357 34.078C41.6811 33.9837 41.7261 33.8891 41.7709 33.7944C41.7932 33.7474 41.8155 33.7004 41.8385 33.6519C42.4238 32.3724 42.4913 30.9292 42.3561 29.5501C42.7248 29.3068 43.0957 29.0898 43.4958 28.9024C43.5499 28.877 43.604 28.8515 43.6597 28.8253C44.5294 28.428 45.4391 28.1159 46.3431 27.8061C46.402 27.7857 46.4609 27.7653 46.5216 27.7443C46.5725 27.727 46.6234 27.7097 46.6759 27.6919C46.8775 27.6063 46.9854 27.4932 47.1066 27.3135C47.2274 27.0117 47.1976 26.7164 47.1114 26.4077C46.946 26.1033 46.7818 25.9466 46.4653 25.8073C46.2528 25.7975 46.0521 25.8291 45.8429 25.8649C45.7832 25.8746 45.7234 25.8843 45.6618 25.8943C44.4574 26.1094 43.3246 26.6413 42.2673 27.2438C42.0326 27.3703 42.0326 27.3703 41.8283 27.4006C41.8004 27.3502 41.8004 27.3502 41.772 27.2988C41.2219 26.3116 40.6498 25.3776 39.7839 24.6349C39.6602 24.5198 39.6602 24.5198 39.5617 24.3255C39.6067 24.3188 39.6517 24.3122 39.698 24.3053C39.71 24.2627 39.7221 24.2201 39.7345 24.1762C39.7961 24.0062 39.871 23.884 39.9753 23.7368C40.0115 23.6852 40.0477 23.6337 40.085 23.5806C40.1426 23.4995 40.1426 23.4995 40.2014 23.4169C40.2802 23.305 40.3588 23.193 40.4374 23.0811C40.4939 23.0006 40.4939 23.0006 40.5516 22.9186C40.6738 22.7422 40.7901 22.5625 40.905 22.3813C41.0689 22.1277 41.2487 21.9006 41.4481 21.6741C41.5803 21.5213 41.7073 21.3648 41.8335 21.207C44.1181 18.3532 47.1978 15.8032 50.7392 14.7298C50.8192 14.7048 50.8992 14.6797 50.9817 14.6539C51.3962 14.5411 51.8224 14.4838 52.2465 14.4191Z" fill="#F4A99C"/>
<path d="M39.8525 36.6057C40.0735 36.606 40.218 36.6643 40.4077 36.7732C40.4596 36.8026 40.5114 36.8319 40.5648 36.8621C40.6198 36.8938 40.6749 36.9255 40.7316 36.9582C40.8485 37.0241 40.9654 37.0899 41.0824 37.1556C41.1404 37.1882 41.1984 37.2208 41.2582 37.2545C43.0757 38.2662 45.0192 38.999 46.9887 39.6543C47.0767 39.6839 47.0767 39.6839 47.1665 39.7141C47.8822 39.9524 48.6029 40.1333 49.3411 40.2886C49.4652 40.3149 49.4652 40.3149 49.5918 40.3417C49.9688 40.4195 50.3432 40.4905 50.7252 40.5382C51.5723 40.6497 51.9989 40.8693 52.5368 41.5336C52.7392 41.7786 52.9597 42.007 53.1769 42.2388C53.2685 42.338 53.36 42.4373 53.4515 42.5366C54.1245 43.263 54.8274 43.9612 55.526 44.6627C55.8264 44.9646 56.1254 45.2676 56.4218 45.5733C56.4566 45.609 56.4913 45.6447 56.5271 45.6814C56.761 45.9237 56.761 45.9237 56.7723 46C56.2137 46.0502 55.6569 46.0704 55.0964 46.0833C53.7211 46.1183 52.3352 46.1584 50.9707 46.3432C50.909 46.3508 50.8473 46.3584 50.7837 46.3662C50.318 46.437 49.9794 46.5864 49.6865 46.9653C49.5835 47.1213 49.4893 47.2797 49.3977 47.4425C49.369 47.4927 49.3403 47.5428 49.3108 47.5944C49.2249 47.747 49.1411 47.9004 49.0577 48.0543C48.7992 48.5263 48.5344 48.9938 48.2621 49.4579C48.0969 49.7397 47.9337 50.0224 47.7725 50.3065C47.2803 51.1743 47.2803 51.1743 47.0724 51.4776C47.0274 51.4842 46.9825 51.4909 46.9361 51.4978C45.5099 49.3889 44.2209 47.2039 42.9757 44.9841C42.9348 44.9112 42.9348 44.9112 42.8931 44.8369C42.0978 43.4189 41.3193 41.9919 40.5442 40.5628C40.5037 40.4882 40.4632 40.4136 40.4214 40.3367C39.9132 39.4006 39.4175 38.4598 38.9419 37.5067C39.1085 37.2751 39.2709 37.1014 39.4951 36.9242C39.6888 36.7798 39.6888 36.7798 39.8525 36.6057Z" fill="#F4A99C"/>
<path d="M30.7946 37.9662C31.0212 38.0173 31.2283 38.113 31.4396 38.2072C31.5068 38.2366 31.5068 38.2366 31.5754 38.2666C31.6855 38.3148 31.7953 38.3634 31.9052 38.4122C31.8813 39.0386 31.7598 39.6466 31.6443 40.2611C31.6333 40.3204 31.6222 40.3796 31.6109 40.4407C29.791 50.1986 29.791 50.1986 28.3491 54.3263C28.3041 54.333 28.2592 54.3397 28.2128 54.3466C28.0878 54.2369 27.9708 54.1259 27.8537 54.0082C27.7799 53.9356 27.7062 53.8629 27.6323 53.7903C27.5941 53.7526 27.5558 53.7148 27.5164 53.6758C27.3316 53.4949 27.1432 53.3179 26.9548 53.1408C26.6743 52.8764 26.3954 52.6105 26.1183 52.3425C26.0169 52.2445 25.9156 52.1466 25.8142 52.0486C25.7284 51.9657 25.6427 51.8828 25.557 51.7999C25.4057 51.6536 25.2541 51.5077 25.1025 51.3619C25.0309 51.2925 25.0309 51.2925 24.9579 51.2217C24.418 50.6967 24.418 50.6967 23.7308 50.4167C23.5223 50.4245 23.335 50.4425 23.1303 50.4753C23.068 50.485 23.0057 50.4946 22.9415 50.5045C21.3676 50.7703 19.8016 51.2086 18.27 51.6543C17.9796 51.7385 17.6997 51.8091 17.3982 51.8438C17.4529 51.5111 17.6049 51.2568 17.7782 50.9737C18.1355 50.3754 18.4566 49.7614 18.7727 49.1404C18.8451 48.9983 18.918 48.8564 18.9912 48.7146C19.221 48.2686 19.4469 47.8207 19.6708 47.3716C19.7358 47.2415 19.8009 47.1114 19.8663 46.9814C20.0125 46.6902 20.1571 46.3986 20.2943 46.1029C20.3173 46.0547 20.3403 46.0065 20.364 45.9568C20.4244 45.8298 20.4834 45.7021 20.5423 45.5744C20.7215 45.3146 20.9212 45.2137 21.1988 45.0835C21.3322 45.0162 21.4655 44.9486 21.5987 44.8808C21.6727 44.8434 21.7468 44.806 21.8231 44.7675C24.9633 43.1705 28.3922 40.8789 30.5554 38.0549C30.6561 37.971 30.6561 37.971 30.7946 37.9662Z" fill="#F4A99C"/>
<path d="M37.0943 25.5268C38.3754 26.2615 39.1952 27.4016 39.7318 28.7557C39.7527 28.8072 39.7737 28.8588 39.7952 28.9119C40.158 30.0565 40.0819 31.314 39.7226 32.447C39.7033 32.5123 39.6839 32.5777 39.6639 32.645C39.2219 33.9954 38.2397 35.0856 36.9908 35.7471C35.5538 36.47 34.0574 36.5849 32.5264 36.0897C31.0341 35.5692 29.9253 34.5406 29.2199 33.131C28.5229 31.5798 28.4711 30.0183 29.0166 28.4182C29.1761 28.0056 29.3855 27.6339 29.6239 27.262C29.6524 27.2158 29.6809 27.1696 29.7102 27.1219C31.3037 24.7505 34.6799 24.1902 37.0943 25.5268Z" fill="#F4A99C"/>
</svg>
