<svg width="180" height="223" viewBox="0 0 180 223" fill="none" xmlns="http://www.w3.org/2000/svg">
<path d="M38.1156 5.57187C38.3178 5.67183 38.52 5.77179 38.7283 5.87478C42.0061 7.5061 45.1168 9.4144 48.232 11.3322C49.1879 11.9207 50.1464 12.5047 51.1068 13.0859C51.3567 13.2372 51.6066 13.3886 51.8641 13.5445C52.3279 13.8251 52.7917 14.1056 53.2557 14.3858C53.4653 14.5131 53.6749 14.6404 53.8908 14.7715C54.091 14.8928 54.2911 15.0142 54.4972 15.1393C55.2674 15.6265 56.0039 16.1576 56.7353 16.7012C57.6351 17.1488 58.4203 17.0457 59.3718 16.7922C59.5921 16.7116 59.8124 16.631 60.0394 16.548C60.2925 16.4582 60.5457 16.3684 60.8065 16.2759C61.0784 16.1785 61.3502 16.0811 61.6303 15.9807C70.6063 12.8853 79.9911 11.5211 89.463 11.5717C89.7188 11.5726 89.9746 11.5734 90.2382 11.5743C100.35 11.6128 110.078 13.2386 119.724 16.3027C119.954 16.3743 120.184 16.4459 120.422 16.5197C121.023 16.7231 121.023 16.7231 121.797 17.1029C122.948 17.2807 123.661 16.5715 124.568 15.9201C125.002 15.6243 125.436 15.3295 125.87 15.0357C126.104 14.8767 126.338 14.7177 126.578 14.5539C127.91 13.6678 129.276 12.8387 130.644 12.0111C130.787 11.9244 130.93 11.8376 131.078 11.7483C135.144 9.28838 139.264 6.89994 143.552 4.84521C144.115 4.57177 144.674 4.28923 145.233 4.00657C149.209 2.02173 153.446 0.206073 157.946 0.178056C158.144 0.173056 158.342 0.168056 158.546 0.162905C160.492 0.150498 162.079 0.628375 163.529 1.97347C167.299 6.17007 167.744 12.8401 168.295 18.1777C168.321 18.4331 168.321 18.4331 168.349 18.6936C169.111 26.4532 168.381 34.3905 167.582 42.1165C167.552 42.414 167.552 42.414 167.522 42.7175C167.151 46.3604 167.151 46.3604 166.773 47.9971C166.005 51.327 167.011 53.4672 168.456 56.4997C172.01 64.2694 172.819 72.7899 172.658 81.2065C172.92 81.2058 172.92 81.2058 173.188 81.205C178.091 81.1963 178.091 81.1963 179.128 82.0399C179.967 82.9695 180.016 83.5486 179.997 84.7652C179.892 85.6586 179.567 86.1296 178.961 86.7822C176.906 88.0403 174.46 87.5086 172.173 87.267C172.148 87.4698 172.148 87.4698 172.122 87.6766C171.759 90.5171 171.307 93.2501 170.476 95.9941C170.774 96.0557 171.073 96.1172 171.38 96.1806C171.776 96.2648 172.171 96.3491 172.567 96.4335C172.763 96.4736 172.959 96.5138 173.161 96.5552C174.572 96.8591 175.772 97.2232 176.87 98.2062C177.421 99.1804 177.487 99.9909 177.264 101.085C176.848 101.89 176.271 102.399 175.506 102.888C173.783 103.24 171.99 102.645 170.34 102.161C170.142 102.104 169.943 102.047 169.739 101.989C169.257 101.851 168.776 101.71 168.295 101.57C168.253 101.704 168.212 101.839 168.17 101.977C167.75 103.301 167.239 104.514 166.582 105.736C166.488 105.913 166.393 106.09 166.295 106.273C164.763 109.068 162.879 111.508 160.661 113.797C160.409 114.058 160.158 114.321 159.908 114.585C155.139 119.634 148.58 124.276 141.871 126.296C142.166 126.521 142.166 126.521 142.467 126.75C145.098 128.759 147.644 130.824 150.062 133.087C150.561 133.553 151.063 134.014 151.573 134.468C152.713 135.484 153.791 136.498 154.771 137.668C155.082 138.033 155.405 138.387 155.735 138.735C158.527 141.678 160.822 145.019 162.719 148.599C162.832 148.804 162.946 149.008 163.063 149.219C165.113 153.061 166.116 157.444 164.91 161.709C163.777 164.892 161.817 166.932 158.84 168.477C153.462 170.676 148.112 170.714 142.736 168.473C142.366 168.315 141.997 168.154 141.628 167.992C141.673 168.164 141.717 168.336 141.763 168.513C142.365 170.97 142.725 173.443 143.068 175.947C143.115 176.286 143.115 176.286 143.162 176.631C147.799 210.313 147.799 210.313 142.848 216.865C139.797 220.173 135.107 221.732 130.72 222.052C129.356 222.099 127.993 222.111 126.629 222.112C126.345 222.113 126.345 222.113 126.056 222.113C120.827 222.109 114.847 221.714 110.812 217.948C108.728 215.652 107.85 212.93 107.16 209.976C107.119 209.807 107.078 209.638 107.037 209.464C106.782 208.304 106.666 207.163 106.586 205.978C106.566 205.673 106.545 205.369 106.524 205.056C106.509 204.825 106.493 204.593 106.478 204.355C106.322 204.37 106.167 204.384 106.006 204.399C101.127 204.834 96.2778 204.916 91.3819 204.903C90.3395 204.901 89.2972 204.902 88.2549 204.905C83.3171 204.916 78.4298 204.79 73.5088 204.355C73.4935 204.569 73.4783 204.782 73.4625 205.002C73.4314 205.425 73.4314 205.425 73.3996 205.856C73.3693 206.274 73.3693 206.274 73.3382 206.7C73.2442 207.755 73.0685 208.776 72.8421 209.81C72.7996 210.005 72.757 210.201 72.7132 210.402C71.8916 214.016 70.5085 216.927 67.4483 219.143C63.3606 221.626 58.7535 222.099 54.0847 222.11C53.5172 222.112 52.9499 222.12 52.3824 222.128C46.9925 222.166 41.7626 221.132 37.6914 217.37C34.5475 214.041 34.6063 210.226 34.646 205.916C34.6474 205.657 34.6487 205.398 34.6501 205.132C34.7 195.653 35.5657 186.265 36.7975 176.871C36.8217 176.686 36.8459 176.501 36.8708 176.31C37.2266 173.608 37.6538 170.921 38.1156 168.235C37.8141 168.334 37.5125 168.434 37.2018 168.536C31.5199 170.387 26.3357 170.99 20.7978 168.326C17.9419 166.856 16.0415 164.666 14.8908 161.666C13.5636 156.948 15.3129 151.945 17.5625 147.815C19.4486 144.486 21.7009 141.525 24.2892 138.713C24.733 138.229 25.1604 137.736 25.5856 137.236C27.3449 135.219 29.2864 133.358 31.3279 131.63C31.5822 131.409 31.8363 131.187 32.0902 130.966C33.9652 129.336 35.8865 127.788 37.8732 126.296C37.7341 126.234 37.5951 126.172 37.4518 126.108C36.9958 125.902 36.5408 125.695 36.0863 125.486C35.4538 125.197 34.8201 124.915 34.1829 124.637C29.8065 122.69 25.9118 120.044 22.3584 116.842C22.1553 116.668 21.9522 116.494 21.7429 116.315C20.5404 115.279 19.4845 114.19 18.4797 112.963C18.2831 112.73 18.0866 112.497 17.8841 112.257C15.2739 109.099 13.1706 105.526 11.4496 101.812C10.1678 101.915 9.04278 102.186 7.81327 102.57C6.45275 102.968 5.54338 103.179 4.17699 102.782C3.22195 102.2 2.76384 101.684 2.48006 100.6C2.35995 99.6592 2.43964 99.2248 2.87399 98.3728C4.03919 96.993 5.60416 96.7613 7.29813 96.4335C7.51125 96.3905 7.72437 96.3475 7.94395 96.3033C8.4657 96.1984 8.98774 96.0954 9.5102 95.9941C9.47603 95.8417 9.44185 95.6893 9.40663 95.5323C8.79332 92.7864 8.18781 90.0571 7.81327 87.267C7.54931 87.2765 7.54931 87.2765 7.28002 87.2863C6.47805 87.3115 5.67616 87.3272 4.87394 87.3428C4.59708 87.3529 4.32021 87.3631 4.03495 87.3736C1.73097 87.407 1.73097 87.407 0.845625 86.6865C0.122366 85.8519 0.0184303 85.4686 0.0104164 84.3883C0.0052603 84.0742 0.0052603 84.0742 0 83.7538C0.0821608 82.8598 0.335934 82.3546 1.01039 81.7671C2.56245 81.102 4.29847 81.196 5.96388 81.2018C6.34939 81.2028 6.34939 81.2028 6.74269 81.2039C6.93598 81.2048 7.12928 81.2056 7.32843 81.2065C7.32463 81.0068 7.32082 80.8071 7.31689 80.6013C7.17174 71.793 8.41206 63.1907 12.067 55.0774C12.1686 54.8517 12.2702 54.626 12.3749 54.3935C12.5689 53.9719 12.7687 53.5528 12.9754 53.1373C13.7042 51.578 13.6754 50.4016 13.3889 48.7224C13.3562 48.5158 13.3236 48.3093 13.2899 48.0964C13.2195 47.6648 13.1467 47.2335 13.0719 46.8026C11.3041 36.454 10.598 25.4658 11.9344 15.0262C11.9591 14.8235 11.9838 14.6207 12.0092 14.4119C12.564 9.99219 13.4889 4.52098 17.0252 1.45075C23.3646 -2.5611 32.3875 2.72003 38.1156 5.57187Z" fill="#FBE9CC"/>
<path d="M38.1156 5.57187C38.3178 5.67183 38.52 5.77179 38.7283 5.87478C42.0061 7.5061 45.1168 9.4144 48.232 11.3322C49.1879 11.9207 50.1464 12.5047 51.1068 13.0859C51.3567 13.2372 51.6066 13.3886 51.8641 13.5445C52.3279 13.8251 52.7917 14.1056 53.2557 14.3858C53.4653 14.5131 53.6749 14.6404 53.8908 14.7715C54.091 14.8928 54.2911 15.0142 54.4972 15.1393C55.2674 15.6265 56.0039 16.1576 56.7353 16.7012C57.6351 17.1488 58.4203 17.0457 59.3718 16.7922C59.5921 16.7116 59.8124 16.631 60.0394 16.548C60.2925 16.4582 60.5457 16.3684 60.8065 16.2759C61.0784 16.1785 61.3502 16.0811 61.6303 15.9807C70.6063 12.8853 79.9911 11.5211 89.463 11.5717C89.7188 11.5726 89.9746 11.5734 90.2382 11.5743C100.35 11.6128 110.078 13.2386 119.724 16.3027C119.954 16.3743 120.184 16.4459 120.422 16.5197C121.023 16.7231 121.023 16.7231 121.797 17.1029C122.948 17.2807 123.661 16.5715 124.568 15.9201C125.002 15.6243 125.436 15.3295 125.87 15.0357C126.104 14.8767 126.338 14.7177 126.578 14.5539C127.91 13.6678 129.276 12.8387 130.644 12.0111C130.787 11.9244 130.93 11.8376 131.078 11.7483C135.144 9.28838 139.264 6.89994 143.552 4.84521C144.115 4.57177 144.674 4.28923 145.233 4.00657C149.209 2.02173 153.446 0.206073 157.946 0.178056C158.144 0.173056 158.342 0.168056 158.546 0.162905C160.492 0.150498 162.079 0.628375 163.529 1.97347C167.299 6.17007 167.744 12.8401 168.295 18.1777C168.321 18.4331 168.321 18.4331 168.349 18.6936C169.111 26.4532 168.381 34.3905 167.582 42.1165C167.552 42.414 167.552 42.414 167.522 42.7175C167.151 46.3604 167.151 46.3604 166.773 47.9971C166.005 51.327 167.011 53.4672 168.456 56.4997C172.01 64.2694 172.819 72.7899 172.658 81.2065C172.92 81.2058 172.92 81.2058 173.188 81.205C178.091 81.1963 178.091 81.1963 179.128 82.0399C179.967 82.9695 180.016 83.5486 179.997 84.7652C179.892 85.6586 179.567 86.1296 178.961 86.7822C176.906 88.0403 174.46 87.5086 172.173 87.267C172.148 87.4698 172.148 87.4698 172.122 87.6766C171.759 90.5171 171.307 93.2501 170.476 95.9941C170.774 96.0557 171.073 96.1172 171.38 96.1806C171.776 96.2648 172.171 96.3491 172.567 96.4335C172.763 96.4736 172.959 96.5138 173.161 96.5552C174.572 96.8591 175.772 97.2232 176.87 98.2062C177.421 99.1804 177.487 99.9909 177.264 101.085C176.848 101.89 176.271 102.399 175.506 102.888C173.783 103.24 171.99 102.645 170.34 102.161C170.142 102.104 169.943 102.047 169.739 101.989C169.257 101.851 168.776 101.71 168.295 101.57C168.253 101.704 168.212 101.839 168.17 101.977C167.75 103.301 167.239 104.514 166.582 105.736C166.488 105.913 166.393 106.09 166.295 106.273C164.763 109.068 162.879 111.508 160.661 113.797C160.409 114.058 160.158 114.321 159.908 114.585C155.139 119.634 148.58 124.276 141.871 126.296C142.166 126.521 142.166 126.521 142.467 126.75C145.098 128.759 147.644 130.824 150.062 133.087C150.561 133.553 151.063 134.014 151.573 134.468C152.713 135.484 153.791 136.498 154.771 137.668C155.082 138.033 155.405 138.387 155.735 138.735C158.527 141.678 160.822 145.019 162.719 148.599C162.832 148.804 162.946 149.008 163.063 149.219C165.113 153.061 166.116 157.444 164.91 161.709C163.777 164.892 161.817 166.932 158.84 168.477C153.462 170.676 148.112 170.714 142.736 168.473C142.366 168.315 141.997 168.154 141.628 167.992C141.673 168.164 141.717 168.336 141.763 168.513C142.365 170.97 142.725 173.443 143.068 175.947C143.115 176.286 143.115 176.286 143.162 176.631C147.799 210.313 147.799 210.313 142.848 216.865C139.797 220.173 135.107 221.732 130.72 222.052C129.356 222.099 127.993 222.111 126.629 222.112C126.345 222.113 126.345 222.113 126.056 222.113C120.827 222.109 114.847 221.714 110.812 217.948C108.728 215.652 107.85 212.93 107.16 209.976C107.119 209.807 107.078 209.638 107.037 209.464C106.782 208.304 106.666 207.163 106.586 205.978C106.566 205.673 106.545 205.369 106.524 205.056C106.509 204.825 106.493 204.593 106.478 204.355C106.322 204.37 106.167 204.384 106.006 204.399C101.127 204.834 96.2778 204.916 91.3819 204.903C90.3395 204.901 89.2972 204.902 88.2549 204.905C83.3171 204.916 78.4298 204.79 73.5088 204.355C73.4935 204.569 73.4783 204.782 73.4625 205.002C73.4314 205.425 73.4314 205.425 73.3996 205.856C73.3693 206.274 73.3693 206.274 73.3382 206.7C73.2442 207.755 73.0685 208.776 72.8421 209.81C72.7996 210.005 72.757 210.201 72.7132 210.402C71.8916 214.016 70.5085 216.927 67.4483 219.143C63.3606 221.626 58.7535 222.099 54.0847 222.11C53.5172 222.112 52.9499 222.12 52.3824 222.128C46.9925 222.166 41.7626 221.132 37.6914 217.37C34.5475 214.041 34.6063 210.226 34.646 205.916C34.6474 205.657 34.6487 205.398 34.6501 205.132C34.7 195.653 35.5657 186.265 36.7975 176.871C36.8217 176.686 36.8459 176.501 36.8708 176.31C37.2266 173.608 37.6538 170.921 38.1156 168.235C37.8141 168.334 37.5125 168.434 37.2018 168.536C31.5199 170.387 26.3357 170.99 20.7978 168.326C17.9419 166.856 16.0415 164.666 14.8908 161.666C13.5636 156.948 15.3129 151.945 17.5625 147.815C19.4486 144.486 21.7009 141.525 24.2892 138.713C24.733 138.229 25.1604 137.736 25.5856 137.236C27.3449 135.219 29.2864 133.358 31.3279 131.63C31.5822 131.409 31.8363 131.187 32.0902 130.966C33.9652 129.336 35.8865 127.788 37.8732 126.296C37.7341 126.234 37.5951 126.172 37.4518 126.108C36.9958 125.902 36.5408 125.695 36.0863 125.486C35.4538 125.197 34.8201 124.915 34.1829 124.637C29.8065 122.69 25.9118 120.044 22.3584 116.842C22.1553 116.668 21.9522 116.494 21.7429 116.315C20.5404 115.279 19.4845 114.19 18.4797 112.963C18.2831 112.73 18.0866 112.497 17.8841 112.257C15.2739 109.099 13.1706 105.526 11.4496 101.812C10.1678 101.915 9.04278 102.186 7.81327 102.57C6.45275 102.968 5.54338 103.179 4.17699 102.782C3.22195 102.2 2.76384 101.684 2.48006 100.6C2.35995 99.6592 2.43964 99.2248 2.87399 98.3728C4.03919 96.993 5.60416 96.7613 7.29813 96.4335C7.51125 96.3905 7.72437 96.3475 7.94395 96.3033C8.4657 96.1984 8.98774 96.0954 9.5102 95.9941C9.47603 95.8417 9.44185 95.6893 9.40663 95.5323C8.79332 92.7864 8.18781 90.0571 7.81327 87.267C7.54931 87.2765 7.54931 87.2765 7.28002 87.2863C6.47805 87.3115 5.67616 87.3272 4.87394 87.3428C4.59708 87.3529 4.32021 87.3631 4.03495 87.3736C1.73097 87.407 1.73097 87.407 0.845625 86.6865C0.122366 85.8519 0.0184303 85.4686 0.0104164 84.3883C0.0052603 84.0742 0.0052603 84.0742 0 83.7538C0.0821608 82.8598 0.335934 82.3546 1.01039 81.7671C2.56245 81.102 4.29847 81.196 5.96388 81.2018C6.34939 81.2028 6.34939 81.2028 6.74269 81.2039C6.93598 81.2048 7.12928 81.2056 7.32843 81.2065C7.32463 81.0068 7.32082 80.8071 7.31689 80.6013C7.17174 71.793 8.41206 63.1907 12.067 55.0774C12.1686 54.8517 12.2702 54.626 12.3749 54.3935C12.5689 53.9719 12.7687 53.5528 12.9754 53.1373C13.7042 51.578 13.6754 50.4016 13.3889 48.7224C13.3562 48.5158 13.3236 48.3093 13.2899 48.0964C13.2195 47.6648 13.1467 47.2335 13.0719 46.8026C11.3041 36.454 10.598 25.4658 11.9344 15.0262C11.9591 14.8235 11.9838 14.6207 12.0092 14.4119C12.564 9.99219 13.4889 4.52098 17.0252 1.45075C23.3646 -2.5611 32.3875 2.72003 38.1156 5.57187ZM20.9039 7.13245C19.8133 8.5297 19.351 9.91284 18.9342 11.6172C18.8958 11.7715 18.8573 11.9257 18.8177 12.0847C17.8526 16.3148 17.9069 20.607 17.9191 24.9199C17.9196 25.2459 17.92 25.5718 17.9204 25.8977C17.9337 32.8596 18.3526 39.6478 19.54 46.5101C20.0323 49.4474 20.4308 52.132 18.9797 54.8283C15.1038 62.7367 12.955 72.3748 13.3889 81.2065C13.8937 81.7113 14.9909 81.5163 15.6919 81.5399C17.314 81.6119 18.9076 81.7431 20.51 82.0096C20.7624 82.0479 20.7624 82.0479 21.0199 82.0871C22.1059 82.2821 22.8018 82.5923 23.5705 83.3883C23.9236 84.2686 23.9422 85.1695 23.651 86.072C23.3036 86.7497 22.9758 87.1977 22.2969 87.553C19.8984 88.2695 16.8418 87.69 14.3586 87.5094C14.2794 88.9937 14.5717 90.2754 14.9495 91.7063C15.0053 91.9258 15.061 92.1454 15.1185 92.3715C15.3888 93.4834 15.3888 93.4834 15.8131 94.5396C16.2323 94.5051 16.6515 94.4695 17.0706 94.4335C17.3041 94.4138 17.5375 94.3942 17.778 94.3739C18.4631 94.3116 18.4631 94.3116 19.0592 94.1703C19.8868 94.0191 20.6843 94.0135 21.5251 94.0093C21.8404 94.0059 22.1557 94.0024 22.4806 93.9989C23.6787 94.0779 23.6787 94.0779 24.2978 94.5396C24.7419 95.2107 24.8651 95.7867 24.8886 96.585C24.9032 96.8545 24.9032 96.8545 24.918 97.1295C24.7115 97.9859 24.3027 98.4527 23.5705 98.9031C22.6318 99.2189 21.6794 99.4037 20.7069 99.5849C20.4465 99.6373 20.186 99.6896 19.9176 99.7435C19.2774 99.8716 18.6367 99.9953 17.9949 100.115C19.0146 103.44 20.868 106.201 23.0857 108.842C23.2487 109.037 23.2487 109.037 23.415 109.235C29.0728 115.881 37.0075 119.792 45.2245 122.309C48.968 123.463 48.968 123.463 49.7517 124.842C49.9053 126.07 49.7581 126.763 49.0245 127.751C48.4364 128.075 48.4364 128.075 47.7366 128.327C43.2939 130.064 39.5139 132.612 36.0598 135.901C35.5657 136.368 35.0642 136.813 34.5494 137.255C31.7188 139.721 28.9723 142.437 26.7219 145.448C26.5045 145.731 26.287 146.014 26.0695 146.297C23.3618 149.863 20.2163 154.318 20.6615 159.023C20.9364 160.579 21.7593 161.483 22.954 162.475C25.496 164.236 28.6197 164.479 31.6025 163.957C33.4183 163.588 35.1387 163.036 36.8429 162.311C37.0018 162.244 37.1607 162.177 37.3243 162.108C38.457 161.596 39.4904 160.982 40.0018 159.796C40.1598 159.277 40.289 158.757 40.4101 158.228C40.4824 157.936 40.4824 157.936 40.5561 157.638C40.6583 157.223 40.7585 156.808 40.857 156.393C41.0103 155.747 41.1687 155.102 41.3287 154.458C41.5384 153.613 41.7466 152.769 41.9537 151.924C42.2991 150.522 42.6653 149.126 43.0549 147.735C43.1327 147.445 43.1327 147.445 43.212 147.148C43.5941 145.8 44.1075 144.672 45.2367 143.781C46.0189 143.446 46.4832 143.388 47.3275 143.508C48.0633 143.904 48.6084 144.249 49.1154 144.917C49.6029 146.624 49.031 148.282 48.5927 149.939C48.4479 150.502 48.3032 151.065 48.1585 151.627C48.0822 151.922 48.0059 152.216 47.9272 152.519C44.5672 165.516 42.2986 178.601 41.2671 191.992C41.2526 192.176 41.2382 192.361 41.2233 192.551C40.8972 196.755 40.7326 200.958 40.6973 205.175C40.6934 205.613 40.688 206.051 40.6811 206.49C40.5634 209.991 40.5634 209.991 42.1207 213.024C44.8334 215.762 49.5199 216.007 53.1433 216.038C59.3413 216.102 59.3413 216.102 64.6264 213.328C67.0593 210.344 67.2991 205.898 67.6388 202.209C67.7828 200.833 67.9316 199.837 68.9028 198.78C70.1039 197.938 71.0975 197.989 72.4936 198.113C72.6769 198.126 72.8602 198.139 73.049 198.152C73.7676 198.205 74.4837 198.267 75.1994 198.351C79.8761 198.896 84.6068 198.837 89.3088 198.84C89.6662 198.84 90.0237 198.841 90.3811 198.841C95.9075 198.85 101.387 198.71 106.887 198.119C108.409 197.993 109.536 197.909 110.841 198.78C112.28 200.539 112.394 202.542 112.629 204.719C113.22 209.758 113.22 209.758 115.826 213.991C119.554 216.809 126.155 216.339 130.522 215.78C133.321 215.369 136.214 214.828 138.174 212.613C139.368 210.987 139.491 209.308 139.481 207.334C139.48 207.147 139.48 206.961 139.479 206.768C139.455 203.971 139.296 201.178 139.144 198.386C139.128 198.088 139.111 197.789 139.095 197.482C138.362 184.138 136.674 170.875 133.423 157.898C133.382 157.734 133.341 157.57 133.299 157.401C132.885 155.751 132.466 154.103 132.038 152.457C131.916 151.99 131.796 151.522 131.676 151.054C131.527 150.478 131.377 149.903 131.224 149.328C130.862 147.916 130.592 146.664 130.72 145.205C131.245 144.341 131.729 143.884 132.659 143.508C133.188 143.471 133.188 143.471 133.735 143.523C133.914 143.536 134.094 143.549 134.279 143.562C135.114 143.842 135.483 144.293 136.053 144.963C136.35 145.61 136.531 146.274 136.712 146.962C136.766 147.156 136.82 147.35 136.876 147.549C137.05 148.176 137.218 148.804 137.386 149.432C137.505 149.863 137.623 150.293 137.742 150.723C138.421 153.198 139.07 155.679 139.53 158.206C139.792 159.534 140.159 160.257 141.144 161.205C144.842 163.568 149.325 164.711 153.658 163.841C155.954 163.247 157.552 162.319 158.826 160.295C159.738 158.36 159.327 156.523 158.692 154.578C156.82 149.644 153.642 145.671 150.113 141.811C149.906 141.579 149.699 141.346 149.485 141.107C147.93 139.369 146.289 137.774 144.537 136.236C144.416 136.127 144.294 136.019 144.169 135.907C140.655 132.79 136.878 129.957 132.386 128.448C131.62 128.178 131.192 127.983 130.553 127.463C130.113 126.521 129.955 125.614 130.235 124.6C131.079 123.542 131.824 123.18 133.114 122.827C133.461 122.726 133.808 122.624 134.154 122.522C134.342 122.467 134.529 122.412 134.723 122.356C142.468 120.035 149.03 116.534 154.961 111.024C155.126 110.876 155.29 110.727 155.46 110.574C158.385 107.82 160.819 103.943 161.992 100.115C161.822 100.085 161.652 100.054 161.477 100.023C160.703 99.882 159.931 99.7335 159.158 99.5849C158.891 99.5373 158.624 99.4896 158.348 99.4405C155.809 98.9419 155.809 98.9419 154.961 97.691C154.755 96.9431 154.809 96.2675 154.961 95.5093C155.396 94.8134 155.685 94.4205 156.416 94.0547C158.974 93.8388 161.429 94.3102 163.931 94.782C164.435 93.4915 164.856 92.2172 165.189 90.873C165.232 90.7089 165.274 90.5449 165.319 90.3759C165.563 89.3996 165.673 88.5147 165.628 87.5094C165.387 87.5269 165.147 87.5444 164.899 87.5625C163.234 87.6787 161.569 87.7768 159.901 87.8125C159.638 87.8187 159.375 87.825 159.103 87.8314C158.22 87.7375 157.653 87.4911 156.901 87.0246C156.356 86.1115 156.174 85.5121 156.174 84.4489C156.47 83.4493 156.809 83.0559 157.628 82.4186C158.698 81.9885 159.668 81.849 160.816 81.7804C160.975 81.7703 161.134 81.7602 161.298 81.7499C161.802 81.7184 162.306 81.6897 162.81 81.6611C163.154 81.6401 163.497 81.619 163.841 81.5976C164.679 81.546 165.517 81.4968 166.355 81.449C166.443 77.3426 166.384 73.3721 165.628 69.328C165.589 69.1166 165.55 68.9051 165.51 68.6873C164.546 63.6499 162.955 58.6666 160.717 54.049C159.569 51.5735 160.124 49.2189 160.529 46.6055C161.63 39.3976 162.054 32.1773 162.067 24.8896C162.068 24.6503 162.069 24.411 162.07 24.1644C162.078 19.9542 161.981 15.6594 160.946 11.5566C160.901 11.353 160.855 11.1494 160.808 10.9397C160.407 9.28303 159.811 7.75465 158.355 6.78397C157.017 6.69669 155.868 6.84559 154.583 7.2385C154.408 7.2913 154.234 7.34409 154.054 7.39848C144.209 10.5227 134.684 16.5955 126.311 22.5278C124.69 23.6477 123.231 24.1693 121.265 23.9957C120.519 23.7457 120.519 23.7457 119.75 23.3897C115.094 21.3804 109.992 20.3074 105.023 19.3897C104.829 19.3526 104.635 19.3155 104.435 19.2773C89.9316 16.5408 74.1655 18.1796 60.3837 23.3434C58.7794 23.94 57.4783 24.3278 55.8274 23.6624C53.4789 22.5321 51.3133 20.9854 49.1305 19.5716C45.4776 17.2109 41.753 14.9566 37.9247 12.8916C37.5587 12.6939 37.1932 12.4952 36.8284 12.2954C29.1399 7.72612 29.1399 7.72612 20.9039 7.13245Z" fill="black"/>
<path d="M89.7811 138.296C90.0651 138.298 90.3491 138.299 90.6416 138.301C96.0981 138.415 100.508 140.355 104.296 144.236C104.49 144.427 104.684 144.619 104.884 144.817C110.66 150.822 112.432 159.927 112.398 167.968C112.302 172.551 111.009 176.361 107.69 179.629C107.535 179.783 107.38 179.937 107.221 180.096C101.636 185.322 93.6092 185.245 86.4527 185.013C81.6738 184.813 77.0949 183.523 73.2663 180.598C73.0848 180.461 72.9032 180.324 72.7162 180.183C69.5692 177.625 67.9313 173.667 67.4889 169.708C67.3583 168.091 67.417 166.461 67.4483 164.841C67.4523 164.581 67.4564 164.321 67.4606 164.053C67.7944 156.881 70.5662 149.904 75.2057 144.478C75.3497 144.309 75.4938 144.14 75.6422 143.966C79.2668 140.053 84.555 138.266 89.7811 138.296Z" fill="#F2D3A3"/>
<path d="M106.337 139.064C106.543 139.25 106.75 139.437 106.963 139.629C107.167 139.813 107.371 139.997 107.581 140.187C111.385 143.802 113.805 148.515 115.447 153.447C115.536 153.706 115.625 153.965 115.717 154.231C117.706 160.529 118.284 167.859 116.659 174.295C116.62 174.453 116.581 174.611 116.541 174.773C115.283 179.618 111.987 183.657 107.712 186.207C102.194 189.295 96.3695 190.109 90.1447 190.113C89.8378 190.113 89.8378 190.113 89.5247 190.113C86.4022 190.11 83.3541 190.02 80.2964 189.325C80.1174 189.285 79.9383 189.245 79.7538 189.203C74.0854 187.863 68.6619 184.719 65.5341 179.714C61.6471 173.246 61.6905 164.397 63.4151 157.214C63.4661 157.011 63.517 156.808 63.5695 156.599C63.6202 156.393 63.6709 156.187 63.7231 155.975C65.1613 150.316 67.6976 145.223 71.5694 140.841C71.7916 140.589 71.7916 140.589 72.0182 140.331C80.7669 131.005 96.8453 130.907 106.337 139.064ZM74.3354 145.446C69.9916 150.86 67.7022 157.945 67.4482 164.841C67.4416 165.006 67.435 165.17 67.4282 165.34C67.2622 170.027 67.9579 174.326 70.8421 178.174C70.993 178.389 70.993 178.389 71.147 178.609C74.2966 182.729 79.9488 184.177 84.8155 184.893C86.5234 185.098 88.2456 185.069 89.9629 185.052C90.2653 185.051 90.2653 185.051 90.5738 185.049C97.217 185.009 103.27 184.04 108.175 179.144C108.41 178.912 108.41 178.912 108.651 178.676C112.157 174.977 112.486 170.127 112.372 165.306C112.074 157.481 109.576 149.679 104.053 143.993C103.915 143.839 103.776 143.685 103.633 143.527C100.596 140.258 95.9631 138.525 91.5765 138.323C84.5443 138.144 79.0564 140.067 74.3354 145.446Z" fill="black"/>
<path d="M144.492 80.5247C147.086 82.2996 148.661 84.7042 149.386 87.7518C149.791 91.544 148.979 94.4266 146.602 97.4163C144.665 99.5734 141.927 100.701 139.092 100.902C135.65 101.017 132.844 100.026 130.236 97.7544C127.964 95.3915 127.008 92.4398 127.047 89.2271C127.197 86.1189 128.415 83.5544 130.72 81.4489C134.949 78.2739 139.88 77.797 144.492 80.5247Z" fill="#F4A99C"/>
<path d="M47.0851 79.9944C47.272 80.0875 47.4589 80.1806 47.6514 80.2766C50.0658 81.6364 51.8116 84.2368 52.6305 86.8427C53.3278 89.8075 53.0413 92.7794 51.5595 95.4581C49.9622 97.8778 47.6793 99.6997 44.9034 100.6C41.8062 101.204 38.7165 101.045 35.9405 99.4618C33.4117 97.7434 31.5031 95.3809 30.8431 92.3578C30.529 88.2035 31.0216 85.381 33.7066 82.1288C37.1674 78.3364 42.6482 77.7821 47.0851 79.9944Z" fill="#F4A99C"/>
<path d="M28.2967 15.154C29.9045 15.3708 31.3328 16.0285 32.7824 16.7231C32.9322 16.7944 33.082 16.8658 33.2363 16.9393C37.1455 18.8383 40.5854 21.485 43.9966 24.1508C44.3668 24.4401 44.7395 24.7261 45.1127 25.0117C45.798 25.5918 46.0918 25.9905 46.2054 26.8886C46.0927 27.82 45.8725 28.0212 45.161 28.6167C44.94 28.803 44.7191 28.9892 44.4915 29.1811C43.3953 30.0575 42.2752 30.9036 41.1548 31.7486C39.704 32.8472 38.3223 34.0094 36.9509 35.2047C36.2622 35.8044 35.5561 36.3792 34.843 36.9499C33.7849 37.807 32.7891 38.7148 31.7976 39.6468C29.7583 41.5513 29.7583 41.5513 28.7825 42.3892C28.605 42.5435 28.4275 42.6979 28.2447 42.857C27.6916 43.1467 27.6916 43.1467 26.9294 43.1211C26.2371 42.9043 26.2371 42.9043 25.7068 42.1316C23.8968 37.8806 23.9723 32.7031 23.9922 28.17C23.9948 27.4633 23.9922 26.7567 23.9891 26.05C23.9826 17.9863 23.9826 17.9863 25.8252 15.5848C26.5779 15.0069 27.3815 15.1286 28.2967 15.154Z" fill="#F4A99C"/>
<path d="M153.507 15.2688C155.305 16.6924 155.542 19.2293 155.794 21.386C156.414 27.9405 156.815 36.5965 153.992 42.6621C153.228 43.0442 152.625 43.1284 151.81 42.9045C151.057 42.3787 150.42 41.7456 149.768 41.0995C149.012 40.3547 148.235 39.6313 147.462 38.9046C147.294 38.7466 147.126 38.5886 146.954 38.4257C145.63 37.185 144.262 36.0318 142.841 34.9047C142.411 34.5517 141.982 34.1982 141.553 33.8441C140.537 33.0128 139.51 32.1985 138.477 31.3896C138.191 31.1639 137.904 30.9383 137.618 30.7126C137.077 30.2863 136.531 29.8673 135.98 29.4531C135.619 29.1742 135.619 29.1742 135.25 28.8897C135.036 28.7281 134.822 28.5666 134.601 28.4001C133.987 27.7378 133.894 27.3157 133.871 26.42C135.015 24.6701 136.809 23.5175 138.477 22.2989C138.633 22.1835 138.789 22.068 138.95 21.949C149.421 14.2294 149.421 14.2294 153.507 15.2688Z" fill="#F4A99C"/>
<path d="M90.0538 76.7675C90.2929 76.7604 90.5319 76.7534 90.7782 76.7462C92.4589 76.7318 93.8423 76.9961 95.3264 77.8129C96.1773 78.6638 96.4965 79.3236 96.6143 80.525C96.4657 82.337 95.5769 83.5004 94.2961 84.737C93.8719 85.0855 93.8719 85.0855 93.1598 85.4036C92.6143 85.7614 92.6143 85.7614 92.5604 86.3174C92.4883 88.3563 93.0329 90.2989 94.3567 91.8732C95.9395 93.1422 97.5229 93.6485 99.5384 93.555C102.03 93.2453 103.494 92.1039 105.069 90.2028C105.664 89.5097 105.874 89.4602 106.796 89.3732C107.829 89.4608 108.179 89.6962 108.902 90.4187C109.323 91.2607 109.256 92.1646 109.144 93.0853C107.891 95.4992 105.433 97.3012 102.929 98.2424C100.159 99.0954 96.9791 99.0042 94.335 97.8276C92.7905 96.9984 91.4531 96.0439 90.2356 94.7822C89.5344 95.1027 89.151 95.3745 88.569 95.9186C85.8507 98.3177 82.6626 98.8853 79.1594 98.7148C75.856 98.397 73.5435 96.4418 71.4557 94.0351C70.7765 93.1843 70.7481 92.5151 70.755 91.4518C70.8932 90.5823 71.376 90.2082 72.0542 89.6914C72.7579 89.3396 73.2112 89.3587 73.9936 89.449C74.8733 90.0538 75.4834 90.6949 76.145 91.5247C77.2266 92.7851 78.1287 93.2528 79.7974 93.4281C81.8314 93.5286 83.7548 93.4828 85.3872 92.1156C86.7717 90.5106 87.5009 88.8226 87.4667 86.6962C87.2961 85.9156 87.0917 85.7231 86.4478 85.2673C86.2716 85.1588 86.0953 85.0504 85.9137 84.9387C84.7741 84.2069 83.7575 83.0229 83.4479 81.6916C83.3167 80.4737 83.3123 79.5542 83.8418 78.4341C85.5018 76.643 87.783 76.7894 90.0538 76.7675Z" fill="black"/>
<path d="M125.407 66.4153C126.001 66.704 126.538 67.0183 127.083 67.3888C127.413 67.5913 127.413 67.5913 127.75 67.7979C129.432 69.5263 130.066 71.3455 130.069 73.7149C130.024 75.9383 129.274 77.5001 127.76 79.1007C126.023 80.736 124.24 81.1081 121.915 81.0713C120.114 80.8553 118.507 80.0354 117.265 78.7067C117.053 78.4157 116.851 78.1175 116.659 77.8128C116.56 77.6678 116.461 77.5228 116.358 77.3734C115.249 75.4155 115.329 72.6447 115.887 70.5147C116.692 68.7118 118.144 67.3852 119.884 66.4939C121.606 65.8846 123.659 65.8577 125.407 66.4153Z" fill="black"/>
<path d="M60.312 66.6766C62.0692 67.7279 63.3477 69.0872 64.0544 71.0249C64.6184 73.3416 64.4953 75.7093 63.3271 77.8127C62.1176 79.4188 60.7064 80.5433 58.7212 80.9641C56.4798 81.2324 54.7908 81.0035 52.9031 79.752C52.6431 79.587 52.3831 79.422 52.1153 79.252C50.6105 77.8505 49.9314 76.0055 49.8329 73.9908C49.811 71.7157 50.1295 70.0125 51.7128 68.293C54.0364 66.0885 57.3112 65.282 60.312 66.6766Z" fill="black"/>
<path d="M77.5181 57.9751C79.939 60.1064 81.8196 63.4361 82.1759 66.6859C82.5657 73.0705 80.0814 78.4646 75.9282 83.2322C75.5088 83.6944 75.0816 84.1478 74.6518 84.6003C74.4604 84.8232 74.27 85.0471 74.0808 85.2721C73.3381 86.13 72.5223 86.918 71.7126 87.712C71.1687 88.2486 70.6433 88.7901 70.1474 89.3715C69.3895 90.2422 68.584 91.0619 67.7716 91.8815C67.6133 92.0412 67.4551 92.2009 67.292 92.3655C66.9592 92.7007 66.6262 93.0357 66.2929 93.3704C65.868 93.7973 65.4452 94.2263 65.0228 94.6558C64.6157 95.0687 64.2061 95.4791 63.7969 95.8898C63.6466 96.0432 63.4964 96.1966 63.3415 96.3546C62.3709 97.3217 61.6369 97.9206 60.2532 98.1256C58.8971 97.9386 57.8429 97.0451 56.7529 96.267C55.6173 95.485 54.4386 94.7678 53.2709 94.0351C52.2986 93.4235 51.3303 92.8056 50.3621 92.1876C49.5267 91.6546 48.6898 91.1244 47.8489 90.6002C44.8055 88.6969 41.8372 86.6676 39.1814 84.242C39.0782 84.1479 38.9751 84.0538 38.8688 83.9568C35.7046 81.03 33.2126 77.2783 33.0066 72.8524C33.0005 72.454 32.9987 72.0556 33.001 71.6572C33.002 71.4466 33.003 71.2361 33.0041 71.0192C33.0748 67.5515 34.3652 64.626 36.6734 62.0282C36.7745 61.9143 36.8757 61.8005 36.9799 61.6832C39.0947 59.4442 42.1005 57.9974 45.1757 57.8652C49.3453 57.7702 52.711 58.88 55.8418 61.6699C56.139 61.9104 56.4373 62.1497 56.7375 62.3865C56.8523 62.22 56.967 62.0535 57.0853 61.8819C59.4523 58.4813 62.661 55.8712 66.8444 55.12C70.7187 54.6468 74.4216 55.5685 77.5181 57.9751Z" fill="#FF6060"/>
<path d="M118.363 57.729C119.659 58.7331 120.714 59.8632 121.638 61.2209C121.958 61.6885 122.304 62.127 122.662 62.5659C122.75 62.4682 122.837 62.3705 122.927 62.2698C125.213 59.8383 128.5 57.9717 131.886 57.8542C135.643 57.8159 138.617 58.5936 141.472 61.1327C141.65 61.2855 141.65 61.2855 141.831 61.4413C144.157 63.5844 145.78 66.9154 145.985 70.0694C145.999 70.6142 146 71.1573 145.996 71.7022C145.997 71.8841 145.999 72.0661 146 72.2536C145.988 76.7968 143.685 80.4965 140.633 83.7048C137.929 86.3233 134.628 88.4398 131.462 90.4493C130.814 90.862 130.17 91.281 129.526 91.6991C129.27 91.8647 129.014 92.0304 128.757 92.1959C128.318 92.4801 127.878 92.7647 127.439 93.0497C126.451 93.6883 125.459 94.3187 124.461 94.9405C124.27 95.0593 124.079 95.1782 123.882 95.3007C123.502 95.5373 123.121 95.7735 122.741 96.0092C121.984 96.4793 121.237 96.9461 120.522 97.4786C120.032 97.818 119.762 97.987 119.18 98.0475C119.059 98.0643 118.937 98.0812 118.811 98.0986C117.539 97.922 116.601 97.0954 115.734 96.2086C115.624 96.099 115.514 95.9894 115.401 95.8764C115.041 95.5167 114.683 95.1545 114.326 94.7921C114.074 94.5394 113.822 94.2868 113.57 94.0343C113.043 93.5059 112.517 92.9764 111.992 92.4459C111.322 91.769 110.65 91.094 109.978 90.4197C109.333 89.7729 108.689 89.1252 108.045 88.4773C107.923 88.3553 107.802 88.2332 107.677 88.1075C106.485 86.9084 105.303 85.7134 104.211 84.4214C103.961 84.1522 103.711 83.8834 103.46 83.6152C101.621 81.5659 100.078 79.3543 98.8362 76.8973C98.7773 76.782 98.7184 76.6666 98.6578 76.5477C96.8009 72.8386 96.2045 68.553 97.4031 64.5364C98.0289 62.731 98.8796 61.1853 100.09 59.6996C100.176 59.5846 100.262 59.4696 100.351 59.3511C104.689 53.7907 113.009 54.0533 118.363 57.729Z" fill="#FF6060"/>
<path d="M118.363 57.729C119.659 58.7331 120.714 59.8632 121.638 61.2209C121.958 61.6885 122.304 62.127 122.662 62.5659C122.75 62.4682 122.837 62.3705 122.927 62.2698C125.213 59.8383 128.5 57.9717 131.886 57.8542C135.643 57.8159 138.617 58.5936 141.472 61.1327C141.65 61.2855 141.65 61.2855 141.831 61.4413C144.157 63.5844 145.78 66.9154 145.985 70.0694C145.999 70.6142 146 71.1573 145.996 71.7022C145.997 71.8841 145.999 72.0661 146 72.2536C145.988 76.7968 143.685 80.4965 140.633 83.7048C137.929 86.3233 134.628 88.4398 131.462 90.4493C130.814 90.862 130.17 91.281 129.526 91.6991C129.27 91.8647 129.014 92.0304 128.757 92.1959C128.318 92.4801 127.878 92.7647 127.439 93.0497C126.451 93.6883 125.459 94.3187 124.461 94.9405C124.27 95.0593 124.079 95.1782 123.882 95.3007C123.502 95.5373 123.121 95.7735 122.741 96.0092C121.984 96.4793 121.237 96.9461 120.522 97.4786C120.032 97.818 119.762 97.987 119.18 98.0475C119.059 98.0643 118.937 98.0812 118.811 98.0986C117.539 97.922 116.601 97.0954 115.734 96.2086C115.624 96.099 115.514 95.9894 115.401 95.8764C115.041 95.5167 114.683 95.1545 114.326 94.7921C114.074 94.5394 113.822 94.2868 113.57 94.0343C113.043 93.5059 112.517 92.9764 111.992 92.4459C111.322 91.769 110.65 91.094 109.978 90.4197C109.333 89.7729 108.689 89.1252 108.045 88.4773C107.923 88.3553 107.802 88.2332 107.677 88.1075C106.485 86.9084 105.303 85.7134 104.211 84.4214C103.961 84.1522 103.711 83.8834 103.46 83.6152C101.621 81.5659 100.078 79.3543 98.8362 76.8973C98.7773 76.782 98.7184 76.6666 98.6578 76.5477C96.8009 72.8386 96.2045 68.553 97.4031 64.5364C98.0289 62.731 98.8796 61.1853 100.09 59.6996C100.176 59.5846 100.262 59.4696 100.351 59.3511C104.689 53.7907 113.009 54.0533 118.363 57.729ZM104.569 61.8493C104.454 61.9389 104.34 62.0285 104.222 62.1208C102.932 63.2586 101.819 65.4021 101.664 67.113C101.406 72.9716 103.968 77.0015 107.793 81.1968C108.106 81.5218 108.422 81.8393 108.748 82.1513C109.044 82.4469 109.312 82.7539 109.582 83.0729C110.374 83.9831 111.223 84.833 112.078 85.6836C112.35 85.9548 112.621 86.2271 112.892 86.4994C113.745 87.3531 114.609 88.1836 115.526 88.9688C116.1 89.4742 116.63 90.0221 117.165 90.5682C117.38 90.7882 117.596 91.0077 117.812 91.2267C117.952 91.3696 117.952 91.3696 118.094 91.5153C118.519 91.9119 118.779 92.1255 119.371 92.1211C120.219 91.8745 120.861 91.421 121.587 90.9265C121.908 90.7134 122.228 90.5004 122.548 90.2876C122.714 90.177 122.88 90.0663 123.05 89.9523C123.88 89.4033 124.721 88.8721 125.562 88.3401C125.894 88.1291 126.227 87.918 126.559 87.7068C126.718 87.6057 126.877 87.5045 127.041 87.4003C135.939 82.1975 135.939 82.1975 141.17 73.7511C141.668 71.1192 141.077 68.4281 139.58 66.2271C138.276 64.5152 136.606 63.2182 134.486 62.745C132.65 62.634 130.959 62.5883 129.291 63.4616C129.052 63.5859 129.052 63.5859 128.809 63.7128C126.755 64.9064 125.197 66.5475 124.132 68.6588C123.674 69.5223 123.228 69.8028 122.304 70.0899C121.486 70.2214 120.704 70.1389 119.975 69.7316C119.592 69.157 119.569 68.932 119.505 68.2649C119.145 65.9622 117.881 63.975 116.213 62.3867C116.095 62.2694 115.977 62.1521 115.856 62.0312C113.929 60.2171 111.731 59.7678 109.168 59.8234C107.337 59.9115 105.974 60.7209 104.569 61.8493Z" fill="black"/>
<path d="M77.5181 57.9751C79.939 60.1064 81.8196 63.4361 82.1759 66.6859C82.5657 73.0705 80.0814 78.4646 75.9282 83.2322C75.5089 83.6944 75.0816 84.1478 74.6518 84.6003C74.4604 84.8232 74.27 85.0471 74.0808 85.2721C73.3381 86.13 72.5223 86.918 71.7126 87.712C71.1687 88.2486 70.6433 88.7901 70.1474 89.3715C69.3895 90.2422 68.584 91.0619 67.7716 91.8815C67.6133 92.0412 67.4551 92.2009 67.292 92.3655C66.9592 92.7007 66.6262 93.0357 66.2929 93.3704C65.868 93.7973 65.4452 94.2263 65.0228 94.6558C64.6157 95.0687 64.2061 95.4791 63.7969 95.8898C63.6466 96.0432 63.4964 96.1966 63.3415 96.3546C62.3709 97.3217 61.6369 97.9206 60.2532 98.1256C58.8971 97.9386 57.8429 97.0451 56.7529 96.267C55.6173 95.485 54.4386 94.7678 53.2709 94.0351C52.2986 93.4235 51.3303 92.8056 50.3621 92.1876C49.5267 91.6546 48.6898 91.1244 47.8489 90.6002C44.8055 88.6969 41.8372 86.6676 39.1814 84.242C39.0782 84.1479 38.9751 84.0538 38.8688 83.9568C35.7046 81.03 33.2126 77.2783 33.0066 72.8524C33.0005 72.454 32.9987 72.0556 33.001 71.6572C33.002 71.4466 33.003 71.2361 33.0041 71.0192C33.0748 67.5515 34.3652 64.626 36.6734 62.0282C36.7745 61.9143 36.8757 61.8005 36.9799 61.6832C39.0947 59.4442 42.1005 57.9974 45.1757 57.8652C49.3453 57.7702 52.711 58.88 55.8418 61.6699C56.139 61.9104 56.4373 62.1497 56.7375 62.3865C56.8523 62.22 56.967 62.0535 57.0853 61.8819C59.4523 58.4813 62.661 55.8712 66.8444 55.12C70.7187 54.6468 74.4216 55.5685 77.5181 57.9751ZM61.9319 63.3228C60.6622 64.875 59.8064 66.6203 59.6654 68.6299C59.5965 69.0604 59.4709 69.3594 59.2455 69.7314C58.4623 70.2208 57.4528 70.2196 56.5583 70.0896C55.729 69.7257 55.4767 69.2961 55.1028 68.4885C53.6988 65.7479 51.3326 63.8647 48.4682 62.7769C46.3138 62.1488 44.1297 62.6886 42.2045 63.7412C39.9939 65.1826 38.4552 67.167 37.849 69.7537C37.8071 70.0438 37.7737 70.3351 37.7483 70.6271C37.7337 70.7878 37.7192 70.9485 37.7042 71.1141C37.5712 74.1112 38.706 76.9427 40.7041 79.1476C44.2576 82.8732 49.0399 85.4943 53.3636 88.2204C54.2412 88.7754 55.1157 89.3352 55.9903 89.895C56.2813 90.0812 56.5725 90.2673 56.8637 90.4534C57.0419 90.5674 57.2201 90.6815 57.4037 90.7989C57.5702 90.905 57.7367 91.011 57.9082 91.1203C58.2673 91.354 58.6135 91.5971 58.96 91.8486C59.4995 92.1687 59.7043 92.212 60.3204 92.1243C60.7992 91.7957 60.7992 91.7957 61.2791 91.3098C61.3765 91.2166 61.474 91.1234 61.5745 91.0274C61.9357 90.6794 62.2926 90.3273 62.6492 89.9746C62.7984 89.8278 62.9476 89.6809 63.1013 89.5297C64.2586 88.389 65.4083 87.2408 66.5561 86.0905C66.9317 85.7144 67.3079 85.339 67.6842 84.9636C68.0509 84.5975 68.4172 84.231 68.7834 83.8644C69.0391 83.6086 69.2951 83.3531 69.5511 83.0976C73.7079 78.9259 77.3909 74.3156 77.3954 68.1899C77.3608 65.7136 76.4583 63.7517 74.8198 61.8938C73.2019 60.3782 70.8686 59.5976 68.6799 59.6552C65.898 59.9122 63.7715 61.2789 61.9319 63.3228Z" fill="black"/>
<path d="M21.273 19.3119C21.3289 19.3351 21.3848 19.3582 21.4424 19.3821C22.8037 19.9504 24.0884 20.6542 25.3458 21.4227C25.3927 21.4511 25.4395 21.4795 25.4878 21.5088C26.0339 21.8408 26.5601 22.1886 27.0677 22.5775C27.272 22.7367 27.272 22.7367 27.506 22.8427C27.5127 22.8877 27.5193 22.9326 27.5262 22.9789C27.5692 22.991 27.6122 23.0032 27.6565 23.0156C28.0914 23.1739 28.4538 23.5489 28.7986 23.8486C28.9223 23.9567 28.9223 23.9567 29.0565 24.0474C29.1589 24.1291 29.1589 24.1291 29.1792 24.2653C29.2358 24.2207 29.2925 24.1762 29.3508 24.1302C31.052 22.8159 33.2 22.2313 35.3428 22.4897C35.9784 22.5768 36.575 22.7085 37.1721 22.9464C37.3402 23.0029 37.3402 23.0029 37.4643 22.9186C37.6211 22.786 37.7319 22.6437 37.8538 22.4783C37.9017 22.4136 37.9496 22.3488 37.999 22.2821C38.0485 22.2144 38.0979 22.1467 38.1489 22.0769C38.1984 22.01 38.248 21.9431 38.2991 21.8742C38.5233 21.5696 38.7311 21.2677 38.92 20.9399C38.9915 20.85 39.0655 20.762 39.142 20.6764C39.3102 20.4835 39.4657 20.2877 39.6148 20.0797C39.8383 19.774 40.086 19.4977 40.3433 19.2201C40.5137 19.0353 40.6788 18.8466 40.844 18.6571C43.858 15.2849 48.1932 12.2102 52.8175 11.8457C54.3883 11.7706 55.963 12.3165 57.1548 13.3342C59.5739 15.5876 60.5919 19.0293 61.376 22.1327C61.3893 22.1829 61.4026 22.2332 61.4163 22.2849C61.5549 22.8259 61.6409 23.3723 61.7232 23.9243C61.7385 24.0258 61.7538 24.1274 61.7691 24.229C61.801 24.4415 61.8327 24.654 61.8642 24.8666C61.896 25.0807 61.9282 25.2947 61.9609 25.5086C62.1605 26.8146 62.3288 28.1105 62.3896 29.4318C62.3921 29.4844 62.3946 29.5369 62.3972 29.5911C62.4107 29.8845 62.4184 30.1776 62.422 30.4713C62.4231 30.5573 62.4243 30.6433 62.4254 30.7318C62.4306 31.609 62.3683 32.476 62.2745 33.3477C62.2686 33.4051 62.2627 33.4626 62.2566 33.5218C62.0831 35.1512 61.6012 36.7402 60.6836 38.1092C60.6463 38.1652 60.609 38.2211 60.5706 38.2788C59.7326 39.4709 58.37 40.3213 56.9475 40.6131C56.3594 40.7151 55.768 40.797 55.1764 40.8759C55.3303 41.0345 55.4844 41.1929 55.6385 41.3512C55.6865 41.4005 55.7345 41.4498 55.7839 41.5006C56.0786 41.8029 56.3754 42.1028 56.6742 42.401C59.5221 45.2451 59.5221 45.2451 59.5402 46.355C59.4955 46.8916 59.3466 47.3557 58.983 47.7605C57.889 48.6339 56.1846 48.4768 54.8654 48.5152C54.6962 48.5207 54.527 48.5263 54.3577 48.5319C53.8161 48.5497 53.2745 48.5672 52.7328 48.579C52.0345 48.5735 52.0345 48.5735 51.4053 48.8228C51.2942 48.9667 51.2142 49.1118 51.1314 49.2738C51.0674 49.3862 51.0033 49.4986 50.9392 49.6109C50.8676 49.7375 50.7977 49.8649 50.7282 49.9926C50.3279 50.7272 49.9073 51.4514 49.472 52.1657C49.4459 52.2088 49.4199 52.2518 49.3931 52.2961C48.3431 54.0269 48.3431 54.0269 47.4314 54.3097C46.832 54.4358 46.3208 54.3045 45.7904 54.0074C45.5116 53.7954 45.3226 53.5016 45.1243 53.217C45.0934 53.1726 45.0624 53.1282 45.0305 53.0825C44.6837 52.5812 44.3587 52.067 44.037 51.5494C44.0045 51.4971 43.9719 51.4448 43.9384 51.391C42.4939 49.0691 41.1267 46.7053 39.8146 44.3064C39.6331 43.9746 39.4502 43.6437 39.267 43.3128C38.6502 42.1973 38.0522 41.0727 37.4668 39.9404C37.4177 39.8457 37.4177 39.8457 37.3676 39.7491C37.2754 39.5709 37.1836 39.3926 37.0919 39.2141C37.0504 39.134 37.0504 39.134 37.0081 39.0523C36.9045 38.8494 36.8185 38.6802 36.7849 38.4533C36.7177 38.4746 36.6505 38.496 36.5813 38.5179C36.3331 38.588 36.0954 38.6332 35.8404 38.6699C35.7528 38.6827 35.6651 38.6955 35.5749 38.7086C35.4836 38.7216 35.3924 38.7345 35.3012 38.7475C35.2081 38.7609 35.1151 38.7744 35.022 38.788C34.7956 38.8208 34.5691 38.8532 34.3426 38.8854C34.3357 38.9248 34.3288 38.9641 34.3216 39.0047C33.4216 44.1162 32.369 49.232 30.9338 54.2233C30.8748 54.4297 30.8176 54.6364 30.7606 54.8433C30.5221 55.6924 30.2886 56.401 29.4927 56.8713C29.0146 57.1136 28.4513 57.1407 27.9404 56.9943C27.1501 56.6687 26.5125 56.0142 25.8874 55.4482C25.8387 55.4042 25.79 55.3602 25.7399 55.3148C25.2508 54.8711 24.7713 54.4179 24.2946 53.961C24.2142 53.884 24.1338 53.8071 24.0533 53.7303C23.9779 53.6584 23.9028 53.5864 23.8279 53.5141C23.7275 53.4184 23.6248 53.3252 23.5221 53.232C23.4378 53.1445 23.4378 53.1445 23.3517 53.0552C22.7928 52.7684 21.917 53.157 21.3433 53.3138C21.2516 53.3384 21.1599 53.363 21.0682 53.3874C20.6835 53.4902 20.2991 53.594 19.9148 53.6983C18.0434 54.2058 18.0434 54.2058 17.2374 54.3281C17.1586 54.3402 17.1586 54.3402 17.0782 54.3526C16.4915 54.4298 15.9806 54.3149 15.4887 53.989C14.9787 53.5539 14.7858 53.0443 14.7255 52.3852C14.6795 51.3435 15.4538 50.2419 15.914 49.3483C15.9456 49.2865 15.9773 49.2246 16.0099 49.1608C16.4568 48.2872 16.9177 47.4209 17.3792 46.5549C17.329 46.5613 17.2789 46.5677 17.2272 46.5744C14.8942 46.8679 13.1174 46.7289 11.1908 45.3003C9.58257 44.0295 8.5247 41.9524 7.87792 40.0445C7.82264 39.8819 7.76477 39.7202 7.70697 39.5585C5.82779 34.1957 4.67432 26.6284 7.16109 21.317C7.90065 19.8944 8.9183 18.9018 10.3982 18.2802C10.4594 18.254 10.5207 18.2277 10.5838 18.2007C13.8603 16.9793 18.1655 18.0115 21.273 19.3119Z" fill="black"/>
<path d="M12.3918 20.338C12.4379 20.3312 12.4841 20.3245 12.5316 20.3175C17.5341 19.5904 22.3407 22.0258 26.2522 24.9367C26.5655 25.1724 26.8685 25.4171 27.1609 25.6784C27.2215 25.732 27.2215 25.732 27.2833 25.7867C27.3766 25.8696 27.4694 25.953 27.5621 26.0366C27.4894 26.3072 27.3562 26.5231 27.213 26.7628C26.6863 27.6821 26.4202 28.6804 26.2283 29.7156C25.9133 29.673 25.5996 29.6286 25.2876 29.5672C24.2139 29.3569 23.1224 29.2442 22.0331 29.3896C21.9742 29.3967 21.9152 29.4039 21.8545 29.4113C21.5724 29.4567 21.3833 29.5073 21.1837 29.7185C20.9432 30.0666 20.9218 30.276 20.9941 30.6841C21.0749 30.9923 21.2156 31.1607 21.4819 31.3286C21.8268 31.4831 22.1928 31.4434 22.5629 31.4344C23.2343 31.4281 23.8991 31.4454 24.5689 31.4935C24.6452 31.4987 24.7215 31.5039 24.8001 31.5092C25.3128 31.548 25.8126 31.6234 26.3172 31.7214C26.3273 31.7834 26.3375 31.8453 26.348 31.9091C26.6348 33.4491 27.3678 35.21 28.5761 36.2643C28.68 36.3835 28.68 36.3835 28.7046 36.5131C28.6223 36.7539 28.4537 36.9153 28.2809 37.0955C28.2413 37.1373 28.2018 37.1791 28.1611 37.2221C27.3485 38.0666 26.4547 38.8441 25.5319 39.566C25.4831 39.6042 25.4342 39.6425 25.3838 39.6819C22.7413 41.7371 19.7053 43.7046 16.3376 44.2232C16.2385 44.2387 16.1394 44.2549 16.0405 44.2716C14.8668 44.4701 13.8961 44.3216 12.8982 43.6296C9.43834 40.9207 8.96436 35.1355 8.47108 31.0977C8.38564 30.3392 8.34383 29.5828 8.34183 28.8194C8.34085 28.692 8.34085 28.692 8.33984 28.562C8.33196 26.396 8.44185 23.8427 9.61931 21.9461C9.6513 21.881 9.68328 21.816 9.71624 21.749C10.3688 20.789 11.3037 20.4975 12.3918 20.338Z" fill="#F4A99C"/>
<path d="M52.2465 14.4191C52.3318 14.405 52.4171 14.3909 52.505 14.3764C53.5278 14.2203 54.3464 14.3468 55.1961 14.9425C57.0334 16.3095 57.883 18.818 58.534 20.9268C58.5738 21.0549 58.5738 21.0549 58.6143 21.1857C59.042 22.6061 59.3156 24.0377 59.5268 25.5051C59.5394 25.5921 59.5521 25.6791 59.5652 25.7687C60.0654 29.2141 60.7138 33.7733 58.6901 36.8731C57.9603 37.7999 57.0848 38.1839 55.9412 38.3472C55.8941 38.354 55.8471 38.3608 55.7986 38.3679C52.6002 38.8262 49.3195 38.0358 46.3117 36.9696C46.2451 36.946 46.1784 36.9224 46.1097 36.8981C42.4964 35.6008 42.4964 35.6008 41.4807 34.7032C41.4289 34.5613 41.4289 34.5613 41.5047 34.339C41.5474 34.2515 41.5911 34.1646 41.6357 34.078C41.6811 33.9837 41.7262 33.8891 41.7709 33.7944C41.7933 33.7474 41.8156 33.7004 41.8386 33.6519C42.4239 32.3724 42.4913 30.9292 42.3562 29.5501C42.7249 29.3068 43.0958 29.0898 43.4958 28.9024C43.5499 28.877 43.604 28.8515 43.6598 28.8253C44.5295 28.428 45.4392 28.1159 46.3431 27.8061C46.402 27.7857 46.4609 27.7653 46.5216 27.7443C46.5726 27.727 46.6235 27.7097 46.6759 27.6919C46.8776 27.6063 46.9854 27.4932 47.1066 27.3135C47.2274 27.0117 47.1977 26.7164 47.1114 26.4077C46.9461 26.1033 46.7818 25.9466 46.4654 25.8073C46.2528 25.7975 46.0522 25.8291 45.843 25.8649C45.7832 25.8746 45.7234 25.8843 45.6619 25.8943C44.4574 26.1094 43.3246 26.6413 42.2674 27.2438C42.0327 27.3703 42.0327 27.3703 41.8283 27.4006C41.8004 27.3502 41.8004 27.3502 41.772 27.2988C41.222 26.3116 40.6498 25.3776 39.7839 24.6349C39.6602 24.5198 39.6602 24.5198 39.5618 24.3255C39.6067 24.3188 39.6517 24.3122 39.698 24.3053C39.7101 24.2627 39.7221 24.2201 39.7346 24.1762C39.7961 24.0062 39.8711 23.884 39.9753 23.7368C40.0115 23.6852 40.0477 23.6337 40.085 23.5806C40.1426 23.4995 40.1426 23.4995 40.2015 23.4169C40.2802 23.305 40.3589 23.193 40.4375 23.0811C40.494 23.0006 40.494 23.0006 40.5516 22.9186C40.6738 22.7422 40.7901 22.5625 40.905 22.3813C41.069 22.1277 41.2488 21.9006 41.4481 21.6741C41.5804 21.5213 41.7073 21.3648 41.8335 21.207C44.1181 18.3532 47.1978 15.8032 50.7392 14.7298C50.8192 14.7048 50.8993 14.6797 50.9817 14.6539C51.3962 14.5411 51.8225 14.4838 52.2465 14.4191Z" fill="#F4A99C"/>
<path d="M39.8525 36.6057C40.0735 36.606 40.218 36.6643 40.4077 36.7732C40.4595 36.8026 40.5114 36.8319 40.5648 36.8621C40.6198 36.8938 40.6749 36.9255 40.7316 36.9582C40.8484 37.0241 40.9653 37.0899 41.0823 37.1556C41.1404 37.1882 41.1984 37.2208 41.2582 37.2545C43.0756 38.2662 45.0191 38.999 46.9886 39.6543C47.0766 39.6839 47.0766 39.6839 47.1664 39.7141C47.8822 39.9524 48.6029 40.1333 49.3411 40.2886C49.4652 40.3149 49.4652 40.3149 49.5918 40.3417C49.9687 40.4195 50.3431 40.4905 50.7252 40.5382C51.5722 40.6497 51.9989 40.8693 52.5368 41.5336C52.7391 41.7786 52.9597 42.007 53.1769 42.2388C53.2684 42.338 53.3599 42.4373 53.4514 42.5366C54.1244 43.263 54.8273 43.9612 55.526 44.6627C55.8263 44.9646 56.1254 45.2676 56.4218 45.5733C56.4565 45.609 56.4913 45.6447 56.5271 45.6814C56.761 45.9237 56.761 45.9237 56.7723 46C56.2137 46.0502 55.6568 46.0704 55.0963 46.0833C53.7211 46.1183 52.3352 46.1584 50.9707 46.3432C50.909 46.3508 50.8473 46.3584 50.7837 46.3662C50.318 46.437 49.9794 46.5864 49.6865 46.9653C49.5835 47.1213 49.4893 47.2797 49.3976 47.4425C49.369 47.4927 49.3403 47.5428 49.3107 47.5944C49.2249 47.747 49.1411 47.9004 49.0576 48.0543C48.7991 48.5263 48.5344 48.9938 48.2621 49.4579C48.0968 49.7397 47.9337 50.0224 47.7725 50.3065C47.2803 51.1743 47.2803 51.1743 47.0723 51.4776C47.0274 51.4842 46.9824 51.4909 46.9361 51.4978C45.5098 49.3889 44.2209 47.2039 42.9757 44.9841C42.9348 44.9112 42.9348 44.9112 42.8931 44.8369C42.0978 43.4189 41.3193 41.9919 40.5442 40.5628C40.5037 40.4882 40.4631 40.4136 40.4214 40.3367C39.9132 39.4006 39.4174 38.4598 38.9419 37.5067C39.1084 37.2751 39.2708 37.1014 39.4951 36.9242C39.6887 36.7798 39.6887 36.7798 39.8525 36.6057Z" fill="#F4A99C"/>
<path d="M30.7946 37.9662C31.0212 38.0173 31.2284 38.113 31.4397 38.2072C31.5069 38.2366 31.5069 38.2366 31.5755 38.2666C31.6855 38.3148 31.7954 38.3634 31.9052 38.4122C31.8814 39.0386 31.7598 39.6466 31.6444 40.2611C31.6333 40.3204 31.6223 40.3796 31.6109 40.4407C29.7911 50.1986 29.7911 50.1986 28.3491 54.3263C28.3042 54.333 28.2592 54.3397 28.2129 54.3466C28.0878 54.2369 27.9709 54.1259 27.8537 54.0082C27.78 53.9356 27.7062 53.8629 27.6324 53.7903C27.5941 53.7526 27.5559 53.7148 27.5164 53.6758C27.3317 53.4949 27.1432 53.3179 26.9548 53.1408C26.6743 52.8764 26.3954 52.6105 26.1184 52.3425C26.017 52.2445 25.9156 52.1466 25.8142 52.0486C25.7284 51.9657 25.6427 51.8828 25.557 51.7999C25.4057 51.6536 25.2542 51.5077 25.1026 51.3619C25.031 51.2925 25.031 51.2925 24.9579 51.2217C24.4181 50.6967 24.4181 50.6967 23.7309 50.4167C23.5223 50.4245 23.3351 50.4425 23.1304 50.4753C23.0681 50.485 23.0058 50.4946 22.9416 50.5045C21.3676 50.7703 19.8017 51.2086 18.27 51.6543C17.9796 51.7385 17.6998 51.8091 17.3982 51.8438C17.453 51.5111 17.6049 51.2568 17.7782 50.9737C18.1356 50.3754 18.4566 49.7614 18.7728 49.1404C18.8452 48.9983 18.9181 48.8564 18.9912 48.7146C19.221 48.2686 19.4469 47.8207 19.6709 47.3716C19.7358 47.2415 19.801 47.1114 19.8663 46.9814C20.0126 46.6902 20.1571 46.3986 20.2944 46.1029C20.3174 46.0547 20.3404 46.0065 20.3641 45.9568C20.4245 45.8298 20.4835 45.7021 20.5423 45.5744C20.7215 45.3146 20.9212 45.2137 21.1988 45.0835C21.3323 45.0162 21.4656 44.9486 21.5987 44.8808C21.6728 44.8434 21.7469 44.806 21.8232 44.7675C24.9634 43.1705 28.3923 40.8789 30.5555 38.0549C30.6562 37.971 30.6562 37.971 30.7946 37.9662Z" fill="#F4A99C"/>
<path d="M37.0943 25.5268C38.3754 26.2615 39.1951 27.4016 39.7318 28.7557C39.7527 28.8072 39.7736 28.8588 39.7952 28.9119C40.158 30.0565 40.0819 31.314 39.7226 32.447C39.7032 32.5123 39.6838 32.5777 39.6639 32.645C39.2219 33.9954 38.2397 35.0856 36.9907 35.7471C35.5538 36.47 34.0574 36.5849 32.5264 36.0897C31.0341 35.5692 29.9253 34.5406 29.2199 33.131C28.5229 31.5798 28.471 30.0183 29.0165 28.4182C29.1761 28.0056 29.3855 27.6339 29.6238 27.262C29.6523 27.2158 29.6808 27.1696 29.7102 27.1219C31.3036 24.7505 34.6798 24.1902 37.0943 25.5268Z" fill="#F4A99C"/>
</svg>
