<svg width="180" height="278" viewBox="0 0 180 278" fill="none" xmlns="http://www.w3.org/2000/svg">
<path d="M90.3608 1.94393C93.8548 4.77271 96.3609 9.25284 96.9824 13.7089C97.2071 16.5476 97.2363 19.449 96.2584 22.1556C96.6541 22.1692 96.6541 22.1692 97.0578 22.183C102.2 22.3886 107.186 23.1226 112.186 24.3276C112.518 24.4054 112.518 24.4054 112.856 24.4848C118.991 25.9364 124.88 28.0457 130.528 30.8436C130.748 30.9522 130.968 31.0608 131.195 31.1726C135.882 33.5047 140.213 36.2402 144.284 39.5316C144.43 39.6497 144.577 39.7678 144.727 39.8895C148.034 42.5827 151.072 45.5808 153.696 48.9437C154.067 49.3916 154.439 49.8391 154.812 50.2861C157.714 53.8537 159.943 57.8722 161.926 62.0104C162.131 62.4336 162.341 62.8538 162.552 63.2738C165.941 70.2022 168.025 77.7734 169.452 85.3294C170.087 88.6399 170.894 91.7823 172.003 94.9586C172.825 97.3149 173.437 99.5571 173.726 102.037C173.769 102.319 173.812 102.601 173.856 102.892C175.055 112.689 172.247 122.695 166.245 130.514C162.775 134.931 158.744 138.474 153.937 141.374C153.784 141.467 153.63 141.56 153.472 141.655C150.715 143.305 150.715 143.305 149.834 143.305C149.834 143.464 149.834 143.624 149.834 143.788C150.009 143.848 150.184 143.908 150.363 143.971C151.505 144.475 152.374 145.319 153.318 146.123C153.686 146.434 154.059 146.739 154.433 147.043C156.336 148.609 158.094 150.312 159.835 152.053C160.006 152.224 160.006 152.224 160.18 152.398C161.395 153.613 162.579 154.841 163.698 156.145C164.277 156.815 164.885 157.456 165.491 158.102C166.559 159.251 167.581 160.425 168.562 161.649C168.994 162.187 169.43 162.72 169.871 163.25C173.697 167.866 176.983 172.547 178.871 178.281C179.008 178.696 179.153 179.108 179.301 179.52C180.299 182.714 180.312 187.114 178.794 190.124C178.71 190.294 178.625 190.464 178.538 190.639C176.612 194.043 173.746 195.939 170.106 197.122C164.293 198.463 157.905 196.642 152.73 193.985C152.81 194.144 152.89 194.304 152.972 194.468C154.825 206.372 154.223 218.968 146.906 228.988C141.679 235.91 134.404 239.737 126.425 242.735C126.425 246.159 126.425 249.584 126.425 253.112C127.142 253.271 127.859 253.43 128.597 253.595C129.683 253.929 130.754 254.306 131.825 254.686C132.32 254.861 132.816 255.031 133.313 255.202C136.296 256.244 138.682 257.374 140.392 260.111C141.091 261.948 140.952 264.557 140.222 266.371C139.161 268.24 137.702 269.529 135.64 270.134C135.066 270.257 134.548 270.278 133.961 270.279C133.742 270.279 133.523 270.279 133.297 270.28C133.07 270.279 132.843 270.278 132.609 270.277C132.271 270.278 132.271 270.278 131.927 270.28C130.79 270.278 129.715 270.241 128.597 270.005C128.608 270.172 128.62 270.338 128.631 270.51C128.719 272.798 128.148 274.458 126.598 276.158C125.224 277.363 123.572 277.818 121.78 277.795C119.906 277.606 118.09 276.649 116.772 275.315C115.931 274.172 115.217 272.971 114.6 271.695C114.448 271.794 114.296 271.892 114.14 271.994C111.855 273.432 109.847 273.981 107.118 273.625C105.335 273.031 103.735 272.145 102.774 270.488C101.689 268.3 101.426 266.21 102.156 263.866C103.1 261.536 104.81 259.685 106.601 257.964C107.263 257.314 107.865 256.623 108.467 255.918C108.73 255.615 109.007 255.326 109.29 255.043C109.35 254.404 109.381 253.788 109.39 253.148C109.395 252.961 109.4 252.774 109.405 252.582C109.419 251.984 109.43 251.387 109.441 250.789C109.45 250.384 109.46 249.98 109.47 249.575C109.493 248.582 109.513 247.589 109.532 246.596C109.357 246.626 109.182 246.657 109.003 246.688C102.983 247.715 97.0868 247.913 90.9978 247.88C90.1661 247.877 89.3345 247.878 88.5028 247.88C84.2302 247.884 79.9906 247.86 75.745 247.32C75.4557 247.284 75.1663 247.249 74.8682 247.212C74.2036 247.126 73.5416 247.03 72.8792 246.928C72.5526 246.879 72.5526 246.879 72.2193 246.83C71.705 246.753 71.191 246.675 70.677 246.596C70.635 247.729 70.6045 248.862 70.5842 249.996C70.5758 250.38 70.5643 250.765 70.5496 251.15C70.3793 253.733 70.3793 253.733 71.4717 255.976C71.7618 256.237 72.0602 256.49 72.3664 256.732C75.1724 259.399 78.1255 262.479 78.2791 266.566C78.175 268.552 77.5496 270.471 76.0458 271.838C74.1545 273.348 72.5255 273.779 70.1001 273.727C68.1634 273.501 66.4323 272.614 64.885 271.453C64.8701 271.744 64.8701 271.744 64.8549 272.041C64.3666 274.029 62.9278 275.621 61.265 276.763C59.4933 277.744 57.7852 278.069 55.8096 277.569C53.9402 276.915 52.6711 275.832 51.7474 274.078C51.1805 272.686 51.2882 271.24 51.3704 269.764C51.1973 269.842 51.0243 269.92 50.846 270.001C49.726 270.404 48.6131 270.326 47.4336 270.322C47.1905 270.326 46.9474 270.33 46.6969 270.334C44.3012 270.335 42.7574 269.776 40.9892 268.121C39.3834 266.347 39.1679 264.318 39.2235 262.001C39.4098 259.851 40.4695 258.565 42.0554 257.192C43.0904 256.432 44.2041 256.039 45.4124 255.631C45.6622 255.542 45.912 255.453 46.1694 255.361C46.9362 255.089 47.7051 254.824 48.4743 254.56C48.9581 254.389 49.4418 254.219 49.9252 254.047C51.0485 253.649 52.1744 253.26 53.301 252.871C53.4603 249.526 53.6196 246.181 53.7837 242.735C52.6488 242.316 52.6488 242.316 51.491 241.89C49.1935 241.026 47.0202 240.024 44.8543 238.873C44.6204 238.755 44.3865 238.637 44.1454 238.515C36.4051 234.51 30.7352 227.352 27.9666 219.157C25.4383 210.993 26.0785 202.332 27.237 193.985C27.1148 194.037 26.9926 194.089 26.8667 194.143C21.0839 196.59 14.4762 198.836 8.28853 196.513C5.10654 195.165 2.20932 192.914 0.879775 189.644C-1.04661 184.139 0.446938 178.682 2.88775 173.594C4.03483 171.304 5.41489 169.232 6.96496 167.197C7.06615 167.063 7.16733 166.928 7.27158 166.79C8.65176 164.958 10.0791 163.165 11.5503 161.405C11.7059 161.218 11.7059 161.218 11.8646 161.028C14.652 157.69 17.6535 154.56 20.721 151.48C20.9084 151.292 21.0959 151.103 21.289 150.909C22.4283 149.773 23.6008 148.694 24.8237 147.649C25.0927 147.415 25.3617 147.18 25.6306 146.946C26.993 145.771 28.3214 144.681 29.8917 143.788C29.1864 143.217 28.4371 142.782 27.6402 142.351C24.693 140.755 22.0657 138.916 19.6227 136.619C19.1111 136.14 18.5884 135.686 18.0512 135.236C11.1201 129.165 6.69129 119.341 6.05808 110.226C5.82177 105.879 5.92963 101.553 7.01021 97.316C7.07237 97.0691 7.07237 97.0691 7.13577 96.8172C7.39272 95.8843 7.70437 94.9881 8.07418 94.0944C9.09386 91.6212 9.76485 89.2315 10.2342 86.5995C10.4235 85.5426 10.6284 84.4887 10.8329 83.4346C10.873 83.2272 10.913 83.0198 10.9543 82.8062C11.4864 80.0854 12.1959 77.4197 12.9983 74.7664C13.0638 74.5489 13.1293 74.3315 13.1967 74.1075C16.5499 63.1576 21.9388 53.1102 29.8917 44.841C30.0049 44.7224 30.1182 44.6038 30.2349 44.4817C31.5904 43.0693 32.9953 41.771 34.5279 40.5535C34.9786 40.1925 35.4224 39.8228 35.859 39.4449C37.9229 37.6596 40.1385 36.164 42.441 34.705C42.6055 34.6004 42.77 34.4959 42.9395 34.3882C52.3276 28.4889 63.2572 24.9244 74.1764 23.2718C74.4426 23.2313 74.7088 23.1908 74.9831 23.1491C76.5351 22.9289 78.0393 22.8284 79.6064 22.8796C79.6064 22.7203 79.6064 22.5611 79.6064 22.397C79.4471 22.3472 79.2878 22.2974 79.1237 22.2461C78.4798 21.951 78.0811 21.675 77.54 21.2355C75.4865 19.6686 73.2906 19.1289 70.7609 18.9108C69.9068 18.7693 69.4273 18.5816 68.7464 18.053C68.0974 17.0815 68.0472 16.0439 68.2637 14.9156C68.7932 13.948 69.3737 13.3648 70.3971 12.9453C73.2954 12.1787 76.1161 13.0107 78.6995 14.3585C79.5044 14.8392 80.2835 15.3482 81.0544 15.8809C81.2169 15.9929 81.3795 16.1049 81.547 16.2202C82.7596 17.0596 83.9603 17.9151 85.1571 18.777C85.3658 18.9267 85.3658 18.9267 85.5787 19.0796C87.5952 20.5279 87.5952 20.5279 88.4565 21.2431C88.9644 21.7218 88.9644 21.7218 89.5011 21.673C89.6728 21.2474 89.6728 21.2474 89.848 20.8132C89.9124 20.6536 89.9768 20.494 90.0431 20.3296C90.8657 17.6742 90.8242 14.3448 89.7424 11.7783C89.6631 11.581 89.5837 11.3838 89.502 11.1806C88.4225 8.76752 86.6724 7.03876 84.4727 5.61767C83.6763 5.07572 83.2932 4.73876 82.9851 3.81427C82.8955 2.60494 82.9566 1.8857 83.7091 0.918263C85.8505 -1.01598 88.3989 0.484994 90.3608 1.94393Z" fill="#FFF1A6"/>
<path d="M90.3608 1.94393C93.8548 4.77271 96.3609 9.25284 96.9824 13.7089C97.2071 16.5476 97.2363 19.449 96.2584 22.1556C96.6541 22.1692 96.6541 22.1692 97.0578 22.183C102.2 22.3886 107.186 23.1226 112.186 24.3276C112.518 24.4054 112.518 24.4054 112.856 24.4848C118.991 25.9364 124.88 28.0457 130.528 30.8436C130.748 30.9522 130.968 31.0608 131.195 31.1726C135.882 33.5047 140.213 36.2402 144.284 39.5316C144.43 39.6497 144.577 39.7678 144.727 39.8895C148.034 42.5827 151.072 45.5808 153.696 48.9437C154.067 49.3916 154.439 49.8391 154.812 50.2861C157.714 53.8537 159.943 57.8722 161.926 62.0104C162.131 62.4336 162.341 62.8538 162.552 63.2738C165.941 70.2022 168.025 77.7734 169.452 85.3294C170.087 88.6399 170.894 91.7823 172.003 94.9586C172.825 97.3149 173.437 99.5571 173.726 102.037C173.769 102.319 173.812 102.601 173.856 102.892C175.055 112.689 172.247 122.695 166.245 130.514C162.775 134.931 158.744 138.474 153.937 141.374C153.784 141.467 153.63 141.56 153.472 141.655C150.715 143.305 150.715 143.305 149.834 143.305C149.834 143.464 149.834 143.624 149.834 143.788C150.009 143.848 150.184 143.908 150.363 143.971C151.505 144.475 152.374 145.319 153.318 146.123C153.686 146.434 154.059 146.739 154.433 147.043C156.336 148.609 158.094 150.312 159.835 152.053C160.006 152.224 160.006 152.224 160.18 152.398C161.395 153.613 162.579 154.841 163.698 156.145C164.277 156.815 164.885 157.456 165.491 158.102C166.559 159.251 167.581 160.425 168.562 161.649C168.994 162.187 169.43 162.72 169.871 163.25C173.697 167.866 176.983 172.547 178.871 178.281C179.008 178.696 179.153 179.108 179.301 179.52C180.299 182.714 180.312 187.114 178.794 190.124C178.71 190.294 178.625 190.464 178.538 190.639C176.612 194.043 173.746 195.939 170.106 197.122C164.293 198.463 157.905 196.642 152.73 193.985C152.81 194.144 152.89 194.304 152.972 194.468C154.825 206.372 154.223 218.968 146.906 228.988C141.679 235.91 134.404 239.737 126.425 242.735C126.425 246.159 126.425 249.584 126.425 253.112C127.142 253.271 127.859 253.43 128.597 253.595C129.683 253.929 130.754 254.306 131.825 254.686C132.32 254.861 132.816 255.031 133.313 255.202C136.296 256.244 138.682 257.374 140.392 260.111C141.091 261.948 140.952 264.557 140.222 266.371C139.161 268.24 137.702 269.529 135.64 270.134C135.066 270.257 134.548 270.278 133.961 270.279C133.742 270.279 133.523 270.279 133.297 270.28C133.07 270.279 132.843 270.278 132.609 270.277C132.271 270.278 132.271 270.278 131.927 270.28C130.79 270.278 129.715 270.241 128.597 270.005C128.608 270.172 128.62 270.338 128.631 270.51C128.719 272.798 128.148 274.458 126.598 276.158C125.224 277.363 123.572 277.818 121.78 277.795C119.906 277.606 118.09 276.649 116.772 275.315C115.931 274.172 115.217 272.971 114.6 271.695C114.448 271.794 114.296 271.892 114.14 271.994C111.855 273.432 109.847 273.981 107.118 273.625C105.335 273.031 103.735 272.145 102.774 270.488C101.689 268.3 101.426 266.21 102.156 263.866C103.1 261.536 104.81 259.685 106.601 257.964C107.263 257.314 107.865 256.623 108.467 255.918C108.73 255.615 109.007 255.326 109.29 255.043C109.35 254.404 109.381 253.788 109.39 253.148C109.395 252.961 109.4 252.774 109.405 252.582C109.419 251.984 109.43 251.387 109.441 250.789C109.45 250.384 109.46 249.98 109.47 249.575C109.493 248.582 109.513 247.589 109.532 246.596C109.357 246.626 109.182 246.657 109.003 246.688C102.983 247.715 97.0868 247.913 90.9978 247.88C90.1661 247.877 89.3345 247.878 88.5028 247.88C84.2302 247.884 79.9906 247.86 75.745 247.32C75.4557 247.284 75.1663 247.249 74.8682 247.212C74.2036 247.126 73.5416 247.03 72.8792 246.928C72.5526 246.879 72.5526 246.879 72.2193 246.83C71.705 246.753 71.191 246.675 70.677 246.596C70.635 247.729 70.6045 248.862 70.5842 249.996C70.5758 250.38 70.5643 250.765 70.5496 251.15C70.3793 253.733 70.3793 253.733 71.4717 255.976C71.7618 256.237 72.0602 256.49 72.3664 256.732C75.1724 259.399 78.1255 262.479 78.2791 266.566C78.175 268.552 77.5496 270.471 76.0458 271.838C74.1545 273.348 72.5255 273.779 70.1001 273.727C68.1634 273.501 66.4323 272.614 64.885 271.453C64.8701 271.744 64.8701 271.744 64.8549 272.041C64.3666 274.029 62.9278 275.621 61.265 276.763C59.4933 277.744 57.7852 278.069 55.8096 277.569C53.9402 276.915 52.6711 275.832 51.7474 274.078C51.1805 272.686 51.2882 271.24 51.3704 269.764C51.1973 269.842 51.0243 269.92 50.846 270.001C49.726 270.404 48.6131 270.326 47.4336 270.322C47.1905 270.326 46.9474 270.33 46.6969 270.334C44.3012 270.335 42.7574 269.776 40.9892 268.121C39.3834 266.347 39.1679 264.318 39.2235 262.001C39.4098 259.851 40.4695 258.565 42.0554 257.192C43.0904 256.432 44.2041 256.039 45.4124 255.631C45.6622 255.542 45.912 255.453 46.1694 255.361C46.9362 255.089 47.7051 254.824 48.4743 254.56C48.9581 254.389 49.4418 254.219 49.9252 254.047C51.0485 253.649 52.1744 253.26 53.301 252.871C53.4603 249.526 53.6196 246.181 53.7837 242.735C52.6488 242.316 52.6488 242.316 51.491 241.89C49.1935 241.026 47.0202 240.024 44.8543 238.873C44.6204 238.755 44.3865 238.637 44.1454 238.515C36.4051 234.51 30.7352 227.352 27.9666 219.157C25.4383 210.993 26.0785 202.332 27.237 193.985C27.1148 194.037 26.9926 194.089 26.8667 194.143C21.0839 196.59 14.4762 198.836 8.28853 196.513C5.10654 195.165 2.20932 192.914 0.879775 189.644C-1.04661 184.139 0.446938 178.682 2.88775 173.594C4.03483 171.304 5.41489 169.232 6.96496 167.197C7.06615 167.063 7.16733 166.928 7.27158 166.79C8.65176 164.958 10.0791 163.165 11.5503 161.405C11.7059 161.218 11.7059 161.218 11.8646 161.028C14.652 157.69 17.6535 154.56 20.721 151.48C20.9084 151.292 21.0959 151.103 21.289 150.909C22.4283 149.773 23.6008 148.694 24.8237 147.649C25.0927 147.415 25.3617 147.18 25.6306 146.946C26.993 145.771 28.3214 144.681 29.8917 143.788C29.1864 143.217 28.4371 142.782 27.6402 142.351C24.693 140.755 22.0657 138.916 19.6227 136.619C19.1111 136.14 18.5884 135.686 18.0512 135.236C11.1201 129.165 6.69129 119.341 6.05808 110.226C5.82177 105.879 5.92963 101.553 7.01021 97.316C7.07237 97.0691 7.07237 97.0691 7.13577 96.8172C7.39272 95.8843 7.70437 94.9881 8.07418 94.0944C9.09386 91.6212 9.76485 89.2315 10.2342 86.5995C10.4235 85.5426 10.6284 84.4887 10.8329 83.4346C10.873 83.2272 10.913 83.0198 10.9543 82.8062C11.4864 80.0854 12.1959 77.4197 12.9983 74.7664C13.0638 74.5489 13.1293 74.3315 13.1967 74.1075C16.5499 63.1576 21.9388 53.1102 29.8917 44.841C30.0049 44.7224 30.1182 44.6038 30.2349 44.4817C31.5904 43.0693 32.9953 41.771 34.5279 40.5535C34.9786 40.1925 35.4224 39.8228 35.859 39.4449C37.9229 37.6596 40.1385 36.164 42.441 34.705C42.6055 34.6004 42.77 34.4959 42.9395 34.3882C52.3276 28.4889 63.2572 24.9244 74.1764 23.2718C74.4426 23.2313 74.7088 23.1908 74.9831 23.1491C76.5351 22.9289 78.0393 22.8284 79.6064 22.8796C79.6064 22.7203 79.6064 22.5611 79.6064 22.397C79.4471 22.3472 79.2878 22.2974 79.1237 22.2461C78.4798 21.951 78.0811 21.675 77.54 21.2355C75.4865 19.6686 73.2906 19.1289 70.7609 18.9108C69.9068 18.7693 69.4273 18.5816 68.7464 18.053C68.0974 17.0815 68.0472 16.0439 68.2637 14.9156C68.7932 13.948 69.3737 13.3648 70.3971 12.9453C73.2954 12.1787 76.1161 13.0107 78.6995 14.3585C79.5044 14.8392 80.2835 15.3482 81.0544 15.8809C81.2169 15.9929 81.3795 16.1049 81.547 16.2202C82.7596 17.0596 83.9603 17.9151 85.1571 18.777C85.3658 18.9267 85.3658 18.9267 85.5787 19.0796C87.5952 20.5279 87.5952 20.5279 88.4565 21.2431C88.9644 21.7218 88.9644 21.7218 89.5011 21.673C89.6728 21.2474 89.6728 21.2474 89.848 20.8132C89.9124 20.6536 89.9768 20.494 90.0431 20.3296C90.8657 17.6742 90.8242 14.3448 89.7424 11.7783C89.6631 11.581 89.5837 11.3838 89.502 11.1806C88.4225 8.76752 86.6724 7.03876 84.4727 5.61767C83.6763 5.07572 83.2932 4.73876 82.9851 3.81427C82.8955 2.60494 82.9566 1.8857 83.7091 0.918263C85.8505 -1.01598 88.3989 0.484994 90.3608 1.94393ZM35.925 47.4957C35.6678 47.7416 35.6678 47.7416 35.4053 47.9926C32.7385 50.5494 30.326 53.1583 28.2023 56.1837C28.0946 56.3353 27.9869 56.4869 27.8759 56.6431C21.6287 65.493 17.3136 76.4144 16.2346 87.212C15.9462 90.0396 15.3558 92.4479 14.3062 95.0928C12.7629 98.9832 12.0757 102.459 12.2487 106.647C12.2753 107.373 12.284 108.099 12.2903 108.826C12.3621 113.588 13.5954 117.328 15.653 121.585C15.7298 121.746 15.8067 121.908 15.8858 122.074C19.7607 130.109 27.5677 136.37 35.9093 139.3C37.3034 139.78 38.7007 140.249 40.1053 140.697C40.27 140.751 40.4348 140.805 40.6045 140.861C41.0569 141.008 41.5104 141.153 41.964 141.297C42.7301 141.637 43.0081 141.855 43.4063 142.581C43.6956 143.777 43.7962 144.225 43.2253 145.326C42.6258 146.026 42.2578 146.416 41.322 146.498C41.079 146.495 40.8361 146.491 40.5858 146.488C40.3459 146.486 40.106 146.485 39.8589 146.483C39.0623 146.442 39.0623 146.442 38.1328 146.239C36.8394 146.07 36.0412 146.747 35.0351 147.483C34.8459 147.616 34.6568 147.748 34.4619 147.885C33.8988 148.282 33.3423 148.688 32.7877 149.097C32.6351 149.209 32.4825 149.322 32.3253 149.437C31.4183 150.11 30.5316 150.805 29.6503 151.51C29.2966 151.79 29.2966 151.79 28.9358 152.075C27.7271 153.044 26.5997 154.045 25.5213 155.156C25.0692 155.609 24.6007 156.027 24.1147 156.443C22.5253 157.814 21.0853 159.31 19.7227 160.905C19.2142 161.471 18.6741 161.993 18.1266 162.521C12.6078 167.998 6.40621 176.827 6.1203 184.814C6.19521 186.711 6.74896 187.827 8.12638 189.113C10.7319 191.239 14.1394 191.135 17.3423 190.848C20.2495 190.352 22.9945 189.171 25.5505 187.729C26.0564 187.455 26.572 187.213 27.0937 186.97C28.8802 186.1 28.8802 186.1 30.1212 184.609C30.483 183.495 30.5926 182.338 30.7415 181.18C30.9669 179.794 31.3717 178.454 31.762 177.107C31.8453 176.819 31.9287 176.531 32.0146 176.234C32.5409 174.457 33.106 172.7 33.7681 170.968C33.8385 170.776 33.9089 170.584 33.9814 170.386C34.5009 169.096 35.199 168.163 36.4077 167.438C37.1643 167.237 37.5315 167.295 38.3383 167.438C38.9878 167.964 39.4136 168.382 39.7863 169.128C39.9211 170.556 39.7216 171.796 39.2283 173.14C39.166 173.319 39.1038 173.499 39.0397 173.683C38.6077 174.92 38.1533 176.148 37.702 177.377C35.7094 182.829 34.2548 188.272 33.376 194.021C33.3068 194.472 33.2349 194.921 33.1599 195.37C32.5747 198.918 32.4711 202.434 32.4558 206.022C32.453 206.349 32.453 206.349 32.4501 206.684C32.4245 210.472 32.6323 214.351 33.9189 217.953C33.9801 218.129 34.0413 218.305 34.1043 218.487C35.1069 221.249 36.6553 223.627 38.5797 225.841C38.8242 226.134 38.8242 226.134 39.0736 226.432C46.3914 234.938 57.8749 237.997 68.505 239.839C68.7589 239.883 69.0127 239.927 69.2742 239.972C71.1048 240.285 72.9395 240.554 74.7797 240.804C75.0353 240.841 75.2908 240.877 75.5541 240.915C89.6259 242.877 105.692 242.25 119.426 238.391C119.663 238.325 119.9 238.26 120.144 238.193C127.062 236.262 133.469 233.483 138.733 228.496C138.905 228.337 138.905 228.337 139.081 228.176C144.459 223.213 147.091 216.522 147.467 209.267C147.486 208.376 147.488 207.486 147.481 206.595C147.481 206.435 147.48 206.276 147.479 206.111C147.45 200.714 146.953 195.431 145.973 190.124C145.935 189.905 145.897 189.687 145.858 189.462C144.975 184.463 143.305 179.552 141.462 174.827C141.395 174.655 141.329 174.484 141.26 174.307C141.134 173.986 141.007 173.665 140.876 173.345C140.284 171.835 140.089 170.246 140.422 168.645C140.877 168.093 141.233 167.757 141.87 167.438C143.098 167.346 143.776 167.43 144.766 168.162C147.77 172.406 148.846 178.523 149.923 183.503C150.223 184.654 150.45 185.348 151.492 185.981C151.683 186.098 151.875 186.215 152.072 186.335C152.279 186.455 152.487 186.576 152.7 186.7C152.915 186.826 153.129 186.952 153.35 187.082C158.06 189.777 163.507 191.756 168.99 190.689C170.852 190.09 172.376 188.978 173.364 187.273C174.141 185.42 173.722 183.405 173.229 181.526C173.147 181.212 173.147 181.212 173.064 180.892C170.468 171.339 163.061 163.763 156.26 156.94C156.036 156.716 155.812 156.491 155.582 156.259C154.479 155.159 153.365 154.091 152.183 153.077C151.609 152.583 151.064 152.06 150.513 151.541C149.094 150.249 147.575 149.182 145.973 148.132C145.699 147.941 145.426 147.75 145.153 147.559C143.585 146.427 143.585 146.427 141.735 146.201C141.482 146.258 141.482 146.258 141.225 146.317C139.805 146.634 138.265 146.735 136.999 145.99C136.383 145.268 136.282 144.868 136.275 143.939C136.271 143.753 136.268 143.567 136.264 143.375C136.328 142.745 136.469 142.395 136.802 141.857C137.224 141.588 137.224 141.588 137.739 141.378C137.934 141.298 138.129 141.219 138.33 141.136C139.494 140.695 140.665 140.277 141.84 139.866C146.873 138.071 151.304 136.217 155.385 132.686C155.504 132.584 155.623 132.481 155.746 132.375C161.931 126.981 166.68 119.732 167.693 111.449C167.72 110.781 167.738 110.118 167.742 109.45C167.744 109.262 167.745 109.074 167.746 108.881C167.749 108.484 167.75 108.088 167.751 107.692C167.753 107.097 167.761 106.503 167.769 105.908C167.79 102.776 167.328 99.9693 166.29 96.9992C166.198 96.7239 166.198 96.7239 166.103 96.443C165.809 95.5792 165.5 94.7294 165.139 93.8911C164.072 91.3433 163.714 88.829 163.346 86.0996C161.5 72.601 155.876 60.2707 146.456 50.3917C146.152 50.0466 145.85 49.6998 145.551 49.3509C141.273 44.4324 135.757 40.656 130.045 37.601C129.897 37.5208 129.749 37.4407 129.596 37.3581C122.412 33.4992 114.558 31.3593 106.636 29.637C106.443 29.5938 106.249 29.5506 106.05 29.506C104.964 29.2649 103.875 29.0732 102.774 28.913C102.561 28.8806 102.347 28.8483 102.127 28.815C80.2549 25.6363 55.1755 31.0352 35.925 47.4957Z" fill="black"/>
<path d="M97.269 93.168C101.408 95.7242 106.286 99.3734 107.75 104.219C108.208 106.562 107.474 108.658 106.213 110.635C103.123 114.953 98.531 118.144 93.3624 119.413C93.2135 119.455 93.0645 119.497 92.911 119.54C88.4282 120.538 84.0957 119.123 80.3304 116.758C76.786 114.379 73.4207 111.31 72.4635 106.981C72.1257 104.895 72.5363 103.207 73.7296 101.452C74.1466 100.91 74.5785 100.386 75.0211 99.865C75.3123 99.4917 75.3123 99.4917 75.6093 99.1109C76.3969 98.2272 77.2463 97.4804 78.1584 96.7277C78.2783 96.6277 78.3982 96.5277 78.5217 96.4246C84.5188 91.4489 90.1536 89.2316 97.269 93.168Z" fill="black"/>
<path d="M149.171 98.4474C151.522 100.675 152.709 103.471 152.815 106.676C152.855 110.194 151.984 113.489 149.527 116.128C146.753 118.72 143.486 119.866 139.738 119.793C136.31 119.628 133.106 118.086 130.769 115.552C130.197 114.786 129.748 113.994 129.321 113.139C129.203 112.905 129.085 112.671 128.964 112.431C127.728 109.659 127.725 106.574 128.572 103.672C129.059 102.448 129.747 101.403 130.528 100.348C130.654 100.174 130.781 100 130.911 99.8209C132.83 97.4146 135.559 96.0735 138.492 95.3402C142.545 95.0024 146.01 95.8201 149.171 98.4474Z" fill="#F4A99C"/>
<path d="M43.889 96.2448C44.2301 96.3983 44.2301 96.3983 44.5781 96.555C47.6583 98.0802 49.4962 100.535 50.6464 103.726C51.3769 107.432 51.0097 111.273 48.8816 114.466C48.5929 114.834 48.2964 115.196 47.9917 115.552C47.8536 115.722 47.7154 115.892 47.5731 116.067C45.7185 118.148 42.7129 119.575 39.9353 119.744C37.4756 119.807 35.4968 119.599 33.2703 118.448C33.0498 118.337 32.8292 118.227 32.602 118.113C30.0304 116.706 28.2047 114.263 27.2672 111.494C26.4022 107.82 26.723 103.83 28.6445 100.561C32.0364 95.6232 38.3632 93.6778 43.889 96.2448Z" fill="#F4A99C"/>
<path d="M59.5757 244.424C62.0844 244.902 62.0844 244.902 64.6437 245.389C64.6353 245.934 64.6269 246.479 64.6183 247.04C64.2129 254.046 64.2129 254.046 67.0452 260.142C67.5744 260.673 68.112 261.193 68.6559 261.709C71.3077 264.227 71.3077 264.227 71.4765 265.948C71.401 266.627 71.401 266.627 70.9184 267.351C69.818 267.316 69.2255 267.207 68.4372 266.416C68.1744 266.133 67.9155 265.846 67.6604 265.556C66.6515 264.415 65.9677 263.765 64.4024 263.489C63.3989 263.506 62.8958 263.585 62.1059 264.212C61.3501 265.126 61.0792 265.984 60.7522 267.109C59.9899 269.647 59.9899 269.647 59.3344 270.488C58.4444 270.684 58.4444 270.684 57.645 270.729C57.2159 269.988 57.1025 269.448 57.0964 268.595C57.0914 268.374 57.0864 268.153 57.0813 267.925C57.075 267.461 57.0706 266.998 57.0681 266.535C57.0462 265.228 57.0462 265.228 56.5185 264.06C55.0284 263.187 52.9063 263.694 51.2799 263.972C50.0856 264.174 48.9288 264.273 47.7202 264.289C47.4209 264.293 47.1216 264.297 46.8133 264.301C46.061 264.213 46.061 264.213 45.5802 263.922C45.337 263.489 45.337 263.489 45.3649 262.904C45.5783 262.283 45.5783 262.283 46.1108 261.891C48.0398 260.989 49.9949 260.271 52.0189 259.613C55.457 258.617 55.457 258.617 58.2455 256.513C59.355 254.243 59.1646 251.244 59.2521 248.754C59.2596 248.54 59.2672 248.327 59.275 248.107C59.2807 247.92 59.2865 247.733 59.2925 247.541C59.3545 246.5 59.4719 245.462 59.5757 244.424Z" fill="#FFBB4D"/>
<path d="M120.633 244.665C120.64 245.028 120.64 245.028 120.648 245.399C120.666 246.309 120.688 247.219 120.71 248.128C120.719 248.52 120.727 248.911 120.735 249.303C120.628 253.42 120.628 253.42 122.136 257.086C124.166 258.844 127.102 259.493 129.62 260.275C131.434 260.842 133.069 261.413 134.63 262.524C134.54 263.233 134.54 263.233 134.389 263.972C133.014 264.66 131.1 264.175 129.638 263.972C128.305 263.793 126.986 263.667 125.641 263.64C125.351 263.633 125.061 263.627 124.762 263.62C123.865 263.753 123.597 263.991 123.046 264.696C122.757 265.274 122.76 265.672 122.737 266.318C122.728 266.543 122.719 266.767 122.71 266.999C122.702 267.235 122.693 267.47 122.684 267.713C122.668 268.178 122.65 268.643 122.632 269.108C122.624 269.315 122.617 269.521 122.61 269.734C122.564 270.247 122.564 270.247 122.322 270.729C121.553 270.745 121.553 270.745 120.633 270.488C119.458 269.198 119.129 267.368 118.748 265.718C118.409 264.794 118.012 264.351 117.254 263.731C116.326 263.352 115.472 263.457 114.509 263.67C113.367 264.225 112.587 265.313 111.784 266.266C111.089 267.01 110.626 267.307 109.622 267.426C109.433 267.401 109.244 267.376 109.049 267.351C108.512 266.545 108.499 266.162 108.648 265.221C109.265 263.189 111.35 261.633 112.835 260.216C115.611 257.29 115.433 253.439 115.369 249.613C115.365 249.223 115.362 248.834 115.359 248.445C115.351 247.507 115.339 246.569 115.324 245.631C115.982 245.468 116.641 245.308 117.3 245.148C117.485 245.102 117.671 245.056 117.862 245.009C118.804 244.782 119.656 244.603 120.633 244.665Z" fill="#FFBB4D"/>
<path d="M126.64 83.409C128.493 84.4522 129.901 86.2388 130.528 88.2809C130.602 88.9809 130.608 89.6741 130.603 90.3775C130.601 90.6682 130.601 90.6682 130.599 90.9647C130.55 93.3582 130.035 95.2027 128.356 96.9689C126.547 98.6519 124.576 99.3295 122.11 99.2541C119.973 98.9331 118.253 97.7696 116.923 96.0988C115.459 93.9427 115.319 91.779 115.565 89.2463C116.008 87.1302 117.072 85.2483 118.84 83.9718C121.29 82.4682 123.973 82.1538 126.64 83.409Z" fill="black"/>
<path d="M60.4986 83.5675C62.293 84.8303 63.5098 86.4025 64.161 88.5223C64.5222 91.1065 64.2947 93.5518 62.9845 95.8227C61.6626 97.5334 60.1698 98.4603 58.1277 99.141C55.9358 99.3635 54.1914 99.0069 52.4064 97.6958C50.6543 96.2105 49.7444 94.9019 49.4397 92.625C49.228 89.9611 49.3141 87.9085 50.8877 85.6263C51.5061 84.9023 51.5061 84.9023 52.0944 84.4197C52.2785 84.2504 52.4627 84.0812 52.6524 83.9068C54.9751 82.2864 58.043 82.1206 60.4986 83.5675Z" fill="black"/>
<path d="M94.4739 97.7695C97.2157 99.3394 99.8046 101.323 101.568 103.968C101.568 104.207 101.568 104.446 101.568 104.692C99.1097 105.35 96.7976 105.454 94.258 105.456C93.9225 105.457 93.5871 105.458 93.2517 105.459C92.5502 105.46 91.8488 105.461 91.1474 105.461C90.2582 105.46 89.3691 105.464 88.48 105.468C87.7872 105.471 87.0943 105.471 86.4015 105.471C85.9174 105.471 85.4333 105.474 84.9492 105.477C79.9449 105.464 79.9449 105.464 78.3997 104.692C79.6733 101.002 84.2332 98.3944 87.5704 96.7278C90.1524 95.7721 92.0991 96.5697 94.4739 97.7695Z" fill="#FFBB4D"/>
<path d="M100.602 110.243C99.2816 111.31 97.9497 112.113 96.4092 112.822C96.2195 112.913 96.0297 113.004 95.8342 113.098C92.7223 114.554 89.8654 115.146 86.4995 114.104C84.0588 113.21 81.7289 111.986 79.6064 110.484C79.6064 110.404 79.6064 110.325 79.6064 110.243C79.8349 110.243 80.0634 110.244 80.2989 110.244C82.4576 110.249 84.6163 110.253 86.775 110.255C87.8847 110.256 88.9944 110.258 90.104 110.261C91.1759 110.263 92.2478 110.265 93.3197 110.265C93.7276 110.266 94.1356 110.267 94.5435 110.268C95.117 110.27 95.6905 110.27 96.2641 110.27C96.4309 110.271 96.5977 110.272 96.7696 110.273C97.6073 110.271 98.4164 110.221 99.2446 110.105C100.12 110.001 100.12 110.001 100.602 110.243Z" fill="#FFBB4D"/>
<path d="M64.0917 58.2668C64.6224 58.6729 64.8779 59.0182 64.9939 59.651C65.0818 60.9798 64.2011 61.8547 63.3462 62.8011C60.1551 66.2434 55.2952 68.6413 50.4925 68.9615C50.2036 68.975 49.9152 68.9816 49.626 68.9865C49.5296 68.9908 49.4331 68.9951 49.3337 68.9996C48.5917 69.01 48.0938 68.827 47.5241 68.3657C47.0895 67.8703 46.9697 67.409 47.0061 66.7641C47.1118 66.0708 47.504 65.6996 48.0383 65.2702C48.4075 65.0225 48.7543 64.9973 49.1906 64.9747C53.3735 64.7237 57.1068 63.2955 60.068 60.39C60.3968 60.0266 60.6717 59.6501 60.9463 59.2485C61.6913 58.1828 62.7759 57.6382 64.0917 58.2668Z" fill="black"/>
<path d="M116.908 58.2668C116.378 58.6729 116.122 59.0182 116.006 59.651C115.918 60.9798 116.799 61.8547 117.654 62.8011C120.845 66.2434 125.705 68.6413 130.507 68.9615C130.796 68.975 131.085 68.9816 131.374 68.9865C131.47 68.9908 131.567 68.9951 131.666 68.9996C132.408 69.01 132.906 68.827 133.476 68.3657C133.911 67.8703 134.03 67.409 133.994 66.7641C133.888 66.0708 133.496 65.6996 132.962 65.2702C132.593 65.0225 132.246 64.9973 131.809 64.9747C127.627 64.7237 123.893 63.2955 120.932 60.39C120.603 60.0266 120.328 59.6501 120.054 59.2485C119.309 58.1828 118.224 57.6382 116.908 58.2668Z" fill="black"/>
<mask id="mask0_501_18558" style="mask-type:alpha" maskUnits="userSpaceOnUse" x="47" y="84" width="16" height="24">
<path d="M55.9127 84.0028C57.63 83.9542 59.1723 84.537 60.4258 85.7127C61.1475 86.4105 61.6125 87.159 62.0082 88.0731C62.044 88.1552 62.0798 88.2374 62.1167 88.3221C62.632 89.7718 62.4251 91.4826 61.7907 92.8481C61.5306 93.3856 61.2423 93.8732 60.8377 94.3157C60.7752 94.3854 60.7127 94.455 60.6484 94.5267C59.5992 95.6381 58.0853 96.4493 56.5333 96.507C56.3569 96.5083 56.1808 96.5075 56.0044 96.5056C55.9436 96.5052 55.8828 96.5049 55.8202 96.5045C55.6719 96.5036 55.5236 96.5022 55.3753 96.5007C55.3949 96.5823 55.4146 96.6638 55.4348 96.7479C56.9871 103.219 56.9871 103.219 55.615 105.574C55.0023 106.56 53.8736 107.263 52.7572 107.542C51.2798 107.758 49.9618 107.52 48.7229 106.665C47.7776 105.905 47.1807 104.714 47.0257 103.524C46.7057 100.115 49.4461 97.0029 51.4736 94.5499C51.314 94.2804 51.1473 94.0171 50.9762 93.7549C50.1003 92.3701 49.6382 90.7047 50.0049 89.07C50.4457 87.3165 51.4141 85.8429 52.9563 84.8737C53.8926 84.3515 54.8438 84.0621 55.9127 84.0028Z" fill="black"/>
</mask>
<g mask="url(#mask0_501_18558)">
<rect x="47" y="94.3691" width="10.6272" height="13.1575" fill="black"/>
<path d="M53.0343 96.1104C54.9514 102.079 54.9514 102.079 54.1268 104.07C53.7819 104.733 53.2832 105.203 52.5868 105.482C51.7851 105.726 51.0534 105.715 50.3031 105.318C49.6647 104.872 49.2063 104.3 49.0546 103.524C48.8138 101.009 50.8662 98.5227 52.3466 96.6956C52.8309 96.1104 52.8309 96.1104 53.0343 96.1104Z" fill="#AADCE7"/>
</g>
<mask id="mask1_501_18558" style="mask-type:alpha" maskUnits="userSpaceOnUse" x="119" y="84" width="16" height="24">
<path d="M125.495 84.0028C123.778 83.9542 122.235 84.537 120.982 85.7127C120.26 86.4105 119.795 87.159 119.399 88.0731C119.364 88.1552 119.328 88.2374 119.291 88.3221C118.776 89.7718 118.982 91.4826 119.617 92.8481C119.877 93.3856 120.165 93.8732 120.57 94.3157C120.632 94.3854 120.695 94.455 120.759 94.5267C121.808 95.6381 123.322 96.4493 124.874 96.507C125.051 96.5083 125.227 96.5075 125.403 96.5056C125.464 96.5052 125.525 96.5049 125.587 96.5045C125.736 96.5036 125.884 96.5022 126.032 96.5007C126.013 96.5823 125.993 96.6638 125.973 96.7479C124.42 103.219 124.42 103.219 125.793 105.574C126.405 106.56 127.534 107.263 128.65 107.542C130.128 107.758 131.446 107.52 132.685 106.665C133.63 105.905 134.227 104.714 134.382 103.524C134.702 100.115 131.961 97.0029 129.934 94.5499C130.094 94.2804 130.26 94.0171 130.431 93.7549C131.307 92.3701 131.769 90.7047 131.403 89.07C130.962 87.3165 129.993 85.8429 128.451 84.8737C127.515 84.3515 126.564 84.0621 125.495 84.0028Z" fill="black"/>
</mask>
<g mask="url(#mask1_501_18558)">
<rect width="10.6272" height="13.1575" transform="matrix(-1 0 0 1 134.408 94.3691)" fill="black"/>
<path d="M128.373 96.1104C126.456 102.079 126.456 102.079 127.281 104.07C127.626 104.733 128.124 105.203 128.821 105.482C129.622 105.726 130.354 105.715 131.104 105.318C131.743 104.872 132.201 104.3 132.353 103.524C132.594 101.009 130.541 98.5227 129.061 96.6956C128.577 96.1104 128.577 96.1104 128.373 96.1104Z" fill="#AADCE7"/>
</g>
<path d="M28.273 25.5883C28.3289 25.6114 28.3848 25.6346 28.4424 25.6584C29.8037 26.2268 31.0884 26.9305 32.3458 27.6991C32.3927 27.7275 32.4395 27.7559 32.4878 27.7852C33.0339 28.1171 33.5601 28.465 34.0677 28.8538C34.272 29.0131 34.272 29.0131 34.506 29.1191C34.5127 29.164 34.5193 29.209 34.5262 29.2553C34.5692 29.2674 34.6122 29.2795 34.6565 29.292C35.0914 29.4503 35.4538 29.8253 35.7986 30.1249C35.9223 30.2331 35.9223 30.2331 36.0565 30.3238C36.1589 30.4054 36.1589 30.4054 36.1792 30.5417C36.2358 30.4971 36.2925 30.4525 36.3508 30.4066C38.052 29.0923 40.2 28.5077 42.3428 28.766C42.9784 28.8531 43.575 28.9848 44.1721 29.2228C44.3402 29.2792 44.3402 29.2792 44.4643 29.195C44.6211 29.0624 44.7319 28.9201 44.8538 28.7547C44.9017 28.6899 44.9496 28.6252 44.999 28.5584C45.0485 28.4907 45.0979 28.423 45.1489 28.3533C45.1984 28.2864 45.248 28.2195 45.2991 28.1506C45.5233 27.846 45.7311 27.5441 45.92 27.2163C45.9915 27.1264 46.0655 27.0384 46.142 26.9527C46.3102 26.7599 46.4657 26.564 46.6148 26.356C46.8383 26.0503 47.086 25.774 47.3433 25.4965C47.5137 25.3116 47.6788 25.123 47.844 24.9335C50.858 21.5613 55.1932 18.4865 59.8175 18.122C61.3883 18.047 62.963 18.5929 64.1548 19.6105C66.5739 21.8639 67.5919 25.3057 68.376 28.4091C68.3893 28.4593 68.4026 28.5095 68.4163 28.5613C68.5549 29.1023 68.6409 29.6487 68.7232 30.2006C68.7385 30.3022 68.7538 30.4038 68.7691 30.5053C68.801 30.7179 68.8327 30.9304 68.8642 31.143C68.896 31.3571 68.9282 31.571 68.9609 31.785C69.1605 33.0909 69.3288 34.3868 69.3896 35.7082C69.3921 35.7607 69.3946 35.8133 69.3972 35.8675C69.4107 36.1609 69.4184 36.454 69.422 36.7477C69.4231 36.8337 69.4243 36.9196 69.4254 37.0082C69.4306 37.8854 69.3683 38.7524 69.2745 39.6241C69.2686 39.6815 69.2627 39.739 69.2566 39.7981C69.0831 41.4276 68.6012 43.0166 67.6836 44.3856C67.6463 44.4415 67.609 44.4975 67.5706 44.5552C66.7326 45.7472 65.37 46.5977 63.9475 46.8894C63.3594 46.9915 62.768 47.0733 62.1764 47.1523C62.3303 47.3108 62.4844 47.4693 62.6385 47.6276C62.6865 47.6769 62.7345 47.7262 62.7839 47.777C63.0786 48.0792 63.3754 48.3792 63.6742 48.6774C66.5221 51.5215 66.5221 51.5215 66.5402 52.6314C66.4955 53.1679 66.3466 53.6321 65.983 54.0369C64.889 54.9102 63.1846 54.7532 61.8654 54.7915C61.6962 54.797 61.527 54.8026 61.3577 54.8083C60.8161 54.8261 60.2745 54.8436 59.7328 54.8554C59.0345 54.8499 59.0345 54.8499 58.4053 55.0992C58.2942 55.2431 58.2142 55.3881 58.1314 55.5502C58.0674 55.6626 58.0033 55.7749 57.9392 55.8872C57.8676 56.0139 57.7977 56.1413 57.7282 56.269C57.3279 57.0036 56.9073 57.7278 56.472 58.4421C56.4459 58.4851 56.4199 58.5281 56.3931 58.5725C55.3431 60.3033 55.3431 60.3033 54.4314 60.5861C53.832 60.7121 53.3208 60.5808 52.7904 60.2838C52.5116 60.0718 52.3226 59.778 52.1243 59.4933C52.0934 59.449 52.0624 59.4046 52.0305 59.3588C51.6837 58.8576 51.3587 58.3434 51.037 57.8258C51.0045 57.7735 50.9719 57.7212 50.9384 57.6673C49.4939 55.3454 48.1267 52.9817 46.8146 50.5828C46.6331 50.251 46.4502 49.92 46.267 49.5892C45.6502 48.4736 45.0522 47.3491 44.4668 46.2167C44.4177 46.122 44.4177 46.122 44.3676 46.0254C44.2754 45.8473 44.1836 45.6689 44.0919 45.4905C44.0504 45.4104 44.0504 45.4104 44.0081 45.3286C43.9045 45.1258 43.8185 44.9566 43.7849 44.7297C43.7177 44.751 43.6505 44.7723 43.5813 44.7943C43.3331 44.8644 43.0954 44.9096 42.8404 44.9463C42.7528 44.9591 42.6651 44.9718 42.5749 44.985C42.4836 44.998 42.3924 45.0109 42.3012 45.0239C42.2081 45.0373 42.1151 45.0508 42.022 45.0643C41.7956 45.0971 41.5691 45.1296 41.3426 45.1618C41.3357 45.2011 41.3288 45.2405 41.3216 45.2811C40.4216 50.3926 39.369 55.5084 37.9338 60.4997C37.8748 60.706 37.8176 60.9128 37.7606 61.1197C37.5221 61.9687 37.2886 62.6774 36.4927 63.1477C36.0146 63.39 35.4513 63.417 34.9404 63.2706C34.1501 62.9451 33.5125 62.2905 32.8874 61.7246C32.8387 61.6806 32.79 61.6365 32.7399 61.5911C32.2508 61.1475 31.7713 60.6942 31.2946 60.2374C31.2142 60.1604 31.1338 60.0835 31.0533 60.0067C30.9779 59.9348 30.9028 59.8628 30.8279 59.7905C30.7275 59.6948 30.6248 59.6015 30.5221 59.5083C30.4378 59.4208 30.4378 59.4208 30.3517 59.3316C29.7928 59.0448 28.917 59.4334 28.3433 59.5902C28.2516 59.6148 28.1599 59.6393 28.0682 59.6638C27.6835 59.7666 27.2991 59.8704 26.9148 59.9747C25.0434 60.4821 25.0434 60.4821 24.2374 60.6045C24.1586 60.6166 24.1586 60.6166 24.0782 60.629C23.4915 60.7062 22.9806 60.5913 22.4887 60.2654C21.9787 59.8303 21.7858 59.3206 21.7255 58.6615C21.6795 57.6199 22.4538 56.5183 22.914 55.6247C22.9456 55.5628 22.9773 55.501 23.0099 55.4372C23.4568 54.5636 23.9177 53.6973 24.3792 52.8312C24.329 52.8377 24.2789 52.8441 24.2272 52.8507C21.8942 53.1443 20.1174 53.0053 18.1908 51.5767C16.5826 50.3059 15.5247 48.2288 14.8779 46.3209C14.8226 46.1582 14.7648 45.9966 14.707 45.8348C12.8278 40.4721 11.6743 32.9047 14.1611 27.5934C14.9007 26.1708 15.9183 25.1782 17.3982 24.5566C17.4594 24.5303 17.5207 24.5041 17.5838 24.4771C20.8603 23.2557 25.1655 24.2878 28.273 25.5883Z" fill="black"/>
<path d="M19.3918 26.6144C19.438 26.6076 19.4841 26.6008 19.5316 26.5938C24.5341 25.8668 29.3407 28.3022 33.2522 31.2131C33.5655 31.4487 33.8685 31.6934 34.1609 31.9548C34.2215 32.0084 34.2215 32.0084 34.2833 32.0631C34.3766 32.1459 34.4695 32.2294 34.5622 32.3129C34.4894 32.5836 34.3562 32.7995 34.2131 33.0392C33.6863 33.9584 33.4203 34.9567 33.2284 35.992C32.9134 35.9494 32.5996 35.905 32.2877 35.8436C31.2139 35.6332 30.1224 35.5205 29.0332 35.666C28.9742 35.6731 28.9153 35.6803 28.8545 35.6876C28.5724 35.7331 28.3833 35.7836 28.1837 35.9949C27.9432 36.343 27.9219 36.5524 27.9941 36.9605C28.0749 37.2687 28.2156 37.4371 28.4819 37.605C28.8268 37.7595 29.1929 37.7198 29.5629 37.7108C30.2344 37.7045 30.8991 37.7218 31.5689 37.7699C31.6452 37.7751 31.7215 37.7803 31.8002 37.7856C32.3128 37.8244 32.8126 37.8998 33.3172 37.9978C33.3274 38.0597 33.3375 38.1217 33.348 38.1855C33.6348 39.7255 34.3678 41.4863 35.5761 42.5407C35.68 42.6599 35.68 42.6599 35.7047 42.7895C35.6223 43.0302 35.4537 43.1917 35.2809 43.3718C35.2414 43.4136 35.2018 43.4554 35.1611 43.4985C34.3485 44.3429 33.4548 45.1204 32.532 45.8423C32.4831 45.8806 32.4342 45.9188 32.3838 45.9582C29.7413 48.0134 26.7053 49.981 23.3377 50.4996C23.2385 50.5151 23.1395 50.5312 23.0405 50.548C21.8669 50.7465 20.8962 50.598 19.8982 49.906C16.4384 47.1971 15.9644 41.4118 15.4711 37.3741C15.3857 36.6156 15.3439 35.8592 15.3419 35.0957C15.3409 34.9684 15.3409 34.9684 15.3399 34.8384C15.332 32.6724 15.4419 30.119 16.6193 28.2225C16.6513 28.1574 16.6833 28.0924 16.7163 28.0253C17.3688 27.0653 18.3037 26.7739 19.3918 26.6144Z" fill="#F4A99C"/>
<path d="M59.2465 20.6955C59.3318 20.6814 59.4171 20.6673 59.5049 20.6528C60.5278 20.4966 61.3464 20.6231 62.1961 21.2189C64.0334 22.5859 64.8829 25.0943 65.534 27.2032C65.5738 27.3313 65.5738 27.3313 65.6143 27.462C66.042 28.8825 66.3156 30.3141 66.5267 31.7814C66.5394 31.8684 66.5521 31.9555 66.5651 32.0451C67.0654 35.4905 67.7137 40.0497 65.69 43.1495C64.9603 44.0763 64.0848 44.4603 62.9412 44.6235C62.8941 44.6304 62.847 44.6372 62.7985 44.6442C59.6001 45.1026 56.3195 44.3121 53.3117 43.246C53.245 43.2224 53.1783 43.1987 53.1096 43.1744C49.4964 41.8772 49.4964 41.8772 48.4807 40.9795C48.4289 40.8376 48.4289 40.8376 48.5047 40.6153C48.5474 40.5279 48.5911 40.4409 48.6357 40.3544C48.6811 40.26 48.7261 40.1655 48.7709 40.0708C48.7932 40.0238 48.8155 39.9768 48.8385 39.9283C49.4238 38.6488 49.4913 37.2055 49.3561 35.8265C49.7248 35.5832 50.0957 35.3662 50.4958 35.1787C50.5499 35.1533 50.604 35.1279 50.6597 35.1017C51.5294 34.7043 52.4391 34.3922 53.3431 34.0825C53.402 34.0621 53.4609 34.0417 53.5216 34.0207C53.5725 34.0034 53.6234 33.9861 53.6759 33.9683C53.8775 33.8827 53.9854 33.7696 54.1066 33.5898C54.2274 33.2881 54.1976 32.9928 54.1114 32.6841C53.946 32.3797 53.7818 32.223 53.4653 32.0837C53.2528 32.0739 53.0521 32.1055 52.8429 32.1413C52.7832 32.151 52.7234 32.1607 52.6618 32.1707C51.4574 32.3858 50.3246 32.9177 49.2673 33.5202C49.0326 33.6466 49.0326 33.6466 48.8283 33.677C48.8004 33.6266 48.8004 33.6266 48.772 33.5752C48.2219 32.5879 47.6498 31.6539 46.7839 30.9113C46.6602 30.7961 46.6602 30.7961 46.5617 30.6019C46.6067 30.5952 46.6517 30.5885 46.698 30.5817C46.71 30.539 46.7221 30.4964 46.7345 30.4525C46.7961 30.2826 46.871 30.1603 46.9753 30.0132C47.0115 29.9616 47.0477 29.9101 47.085 29.857C47.1426 29.7759 47.1426 29.7759 47.2014 29.6932C47.2802 29.5814 47.3588 29.4694 47.4374 29.3574C47.4939 29.277 47.4939 29.277 47.5516 29.1949C47.6738 29.0186 47.7901 28.8389 47.905 28.6576C48.0689 28.4041 48.2487 28.177 48.4481 27.9504C48.5803 27.7976 48.7073 27.6412 48.8335 27.4834C51.1181 24.6296 54.1978 22.0795 57.7392 21.0062C57.8192 20.9811 57.8992 20.9561 57.9817 20.9302C58.3962 20.8174 58.8224 20.7602 59.2465 20.6955Z" fill="#F4A99C"/>
<path d="M46.8525 42.882C47.0735 42.8824 47.218 42.9406 47.4077 43.0496C47.4596 43.0789 47.5114 43.1083 47.5648 43.1385C47.6198 43.1702 47.6749 43.2019 47.7316 43.2346C47.8485 43.3005 47.9654 43.3663 48.0824 43.4319C48.1404 43.4646 48.1984 43.4972 48.2582 43.5308C50.0757 44.5426 52.0191 45.2753 53.9886 45.9307C54.0767 45.9603 54.0767 45.9603 54.1665 45.9905C54.8822 46.2288 55.6029 46.4097 56.3411 46.565C56.4652 46.5912 56.4652 46.5912 56.5918 46.618C56.9687 46.6959 57.3432 46.7669 57.7252 46.8145C58.5723 46.9261 58.9989 47.1457 59.5368 47.81C59.7392 48.055 59.9597 48.2834 60.1769 48.5151C60.2685 48.6144 60.36 48.7137 60.4515 48.813C61.1244 49.5394 61.8273 50.2376 62.526 50.9391C62.8264 51.241 63.1254 51.544 63.4218 51.8497C63.4566 51.8854 63.4913 51.921 63.5271 51.9578C63.761 52.2001 63.761 52.2001 63.7723 52.2763C63.2137 52.3266 62.6569 52.3468 62.0964 52.3597C60.7211 52.3947 59.3352 52.4348 57.9707 52.6195C57.909 52.6271 57.8473 52.6348 57.7837 52.6426C57.318 52.7133 56.9794 52.8628 56.6865 53.2417C56.5835 53.3977 56.4893 53.556 56.3977 53.7189C56.369 53.769 56.3403 53.8192 56.3108 53.8708C56.2249 54.0233 56.1411 54.1768 56.0577 54.3307C55.7992 54.8027 55.5344 55.2702 55.2621 55.7343C55.0968 56.016 54.9337 56.2988 54.7725 56.5829C54.2803 57.4507 54.2803 57.4507 54.0724 57.7539C54.0274 57.7606 53.9825 57.7673 53.9361 57.7741C52.5098 55.6652 51.2209 53.4803 49.9757 51.2605C49.9348 51.1876 49.9348 51.1876 49.8931 51.1132C49.0978 49.6953 48.3193 48.2683 47.5442 46.8392C47.5037 46.7646 47.4632 46.69 47.4214 46.6131C46.9132 45.677 46.4175 44.7361 45.9419 43.783C46.1085 43.5514 46.2709 43.3778 46.4951 43.2005C46.6888 43.0561 46.6888 43.0561 46.8525 42.882Z" fill="#F4A99C"/>
<path d="M37.7946 44.2425C38.0212 44.2936 38.2283 44.3894 38.4396 44.4835C38.5068 44.5129 38.5068 44.5129 38.5754 44.5429C38.6855 44.5911 38.7953 44.6398 38.9052 44.6886C38.8813 45.315 38.7598 45.923 38.6443 46.5375C38.6333 46.5967 38.6222 46.656 38.6109 46.7171C36.791 56.475 36.791 56.475 35.3491 60.6027C35.3041 60.6094 35.2591 60.616 35.2128 60.6229C35.0878 60.5133 34.9708 60.4023 34.8537 60.2846C34.7799 60.2119 34.7062 60.1393 34.6323 60.0667C34.5941 60.0289 34.5558 59.9911 34.5164 59.9522C34.3316 59.7713 34.1432 59.5943 33.9548 59.4172C33.6743 59.1528 33.3954 58.8869 33.1183 58.6188C33.0169 58.5209 32.9155 58.4229 32.8142 58.325C32.7284 58.2421 32.6427 58.1592 32.557 58.0762C32.4057 57.93 32.2541 57.7841 32.1025 57.6382C32.0309 57.5689 32.0309 57.5689 31.9579 57.4981C31.418 56.9731 31.418 56.9731 30.7308 56.6931C30.5223 56.7008 30.335 56.7189 30.1303 56.7517C30.068 56.7613 30.0057 56.771 29.9415 56.7809C28.3676 57.0467 26.8016 57.485 25.27 57.9307C24.9796 58.0149 24.6997 58.0855 24.3982 58.1202C24.4529 57.7875 24.6049 57.5332 24.7781 57.2501C25.1355 56.6518 25.4566 56.0377 25.7727 55.4168C25.8451 55.2747 25.918 55.1327 25.9911 54.991C26.221 54.5449 26.4469 54.097 26.6708 53.648C26.7358 53.5179 26.8009 53.3878 26.8663 53.2578C27.0125 52.9665 27.1571 52.675 27.2943 52.3793C27.3173 52.3311 27.3403 52.2828 27.364 52.2331C27.4244 52.1062 27.4834 51.9785 27.5422 51.8508C27.7215 51.591 27.9211 51.4901 28.1988 51.3599C28.3322 51.2926 28.4655 51.225 28.5987 51.1572C28.6727 51.1198 28.7468 51.0824 28.8231 51.0439C31.9633 49.4469 35.3922 47.1552 37.5554 44.3313C37.6561 44.2474 37.6561 44.2474 37.7946 44.2425Z" fill="#F4A99C"/>
<path d="M44.0943 31.8031C45.3754 32.5379 46.1952 33.678 46.7318 35.032C46.7527 35.0836 46.7737 35.1351 46.7952 35.1883C47.158 36.3329 47.0819 37.5904 46.7226 38.7234C46.7032 38.7887 46.6839 38.854 46.6639 38.9214C46.2219 40.2717 45.2397 41.362 43.9908 42.0235C42.5538 42.7464 41.0574 42.8613 39.5264 42.3661C38.0341 41.8455 36.9253 40.8169 36.2199 39.4074C35.5229 37.8561 35.4711 36.2947 36.0165 34.6946C36.1761 34.282 36.3855 33.9102 36.6239 33.5384C36.6524 33.4922 36.6809 33.4459 36.7102 33.3983C38.3037 31.0269 41.6798 30.4666 44.0943 31.8031Z" fill="#F4A99C"/>
</svg>
