<svg width="350" height="350" viewBox="0 0 350 350" fill="none" xmlns="http://www.w3.org/2000/svg">
<path d="M175.341 68.8359C178.641 71.5076 181.008 75.7388 181.594 79.9473C181.807 82.6282 181.834 85.3685 180.911 87.9248C181.284 87.9375 181.284 87.9375 181.666 87.9506C186.522 88.1448 191.231 88.838 195.954 89.9761C196.267 90.0496 196.267 90.0496 196.586 90.1246C202.38 91.4955 207.942 93.4876 213.276 96.1301C213.484 96.2326 213.692 96.3352 213.906 96.4408C218.333 98.6433 222.423 101.227 226.268 104.335C226.406 104.447 226.544 104.559 226.687 104.673C229.81 107.217 232.679 110.049 235.157 113.225C235.508 113.648 235.859 114.07 236.211 114.492C238.952 117.862 241.057 121.657 242.93 125.565C243.123 125.965 243.322 126.362 243.521 126.759C246.722 133.302 248.691 140.453 250.038 147.589C250.638 150.715 251.4 153.683 252.447 156.683C253.223 158.909 253.801 161.026 254.075 163.368C254.115 163.635 254.156 163.901 254.197 164.176C255.33 173.429 252.678 182.879 247.009 190.264C243.732 194.435 239.925 197.781 235.385 200.52C235.24 200.608 235.095 200.695 234.946 200.785C232.342 202.344 232.342 202.344 231.51 202.344C231.51 202.494 231.51 202.645 231.51 202.8C231.675 202.857 231.84 202.914 232.01 202.972C233.088 203.449 233.909 204.246 234.8 205.005C235.148 205.299 235.501 205.586 235.853 205.874C237.651 207.353 239.311 208.961 240.955 210.606C241.117 210.767 241.117 210.767 241.281 210.932C242.428 212.079 243.547 213.239 244.604 214.47C245.151 215.103 245.725 215.709 246.297 216.318C247.306 217.404 248.271 218.512 249.198 219.669C249.605 220.177 250.017 220.68 250.434 221.181C254.047 225.54 257.151 229.961 258.933 235.376C259.063 235.768 259.2 236.158 259.34 236.547C260.282 239.563 260.294 243.719 258.861 246.561C258.782 246.722 258.702 246.883 258.619 247.048C256.8 250.263 254.094 252.054 250.656 253.171C245.166 254.437 239.132 252.717 234.245 250.208C234.321 250.359 234.396 250.509 234.473 250.664C236.224 261.907 235.655 273.804 228.744 283.266C223.808 289.804 216.937 293.418 209.401 296.249C209.401 299.484 209.401 302.718 209.401 306.05C210.078 306.201 210.755 306.351 211.453 306.506C212.479 306.822 213.49 307.178 214.501 307.536C214.969 307.702 215.438 307.863 215.907 308.024C218.724 309.008 220.977 310.075 222.593 312.66C223.252 314.395 223.121 316.859 222.432 318.573C221.43 320.338 220.052 321.556 218.104 322.126C217.562 322.242 217.073 322.262 216.519 322.263C216.312 322.263 216.105 322.264 215.892 322.264C215.678 322.263 215.463 322.262 215.242 322.261C214.923 322.263 214.923 322.263 214.597 322.264C213.524 322.263 212.509 322.227 211.453 322.005C211.463 322.162 211.474 322.319 211.485 322.481C211.568 324.642 211.029 326.21 209.564 327.816C208.267 328.954 206.707 329.384 205.015 329.362C203.244 329.183 201.529 328.28 200.284 327.019C199.491 325.941 198.816 324.806 198.233 323.6C198.09 323.694 197.946 323.787 197.799 323.884C195.641 325.242 193.744 325.76 191.167 325.424C189.483 324.863 187.972 324.026 187.065 322.461C186.04 320.394 185.791 318.421 186.481 316.207C187.372 314.006 188.988 312.258 190.679 310.633C191.304 310.019 191.873 309.366 192.441 308.701C192.689 308.415 192.951 308.141 193.219 307.874C193.275 307.27 193.304 306.689 193.313 306.084C193.318 305.908 193.322 305.731 193.326 305.549C193.34 304.985 193.351 304.421 193.361 303.856C193.37 303.474 193.379 303.092 193.388 302.71C193.41 301.772 193.429 300.834 193.447 299.896C193.282 299.925 193.117 299.953 192.947 299.983C187.261 300.953 181.693 301.14 175.942 301.109C175.157 301.106 174.371 301.107 173.586 301.109C169.551 301.113 165.547 301.09 161.537 300.58C161.264 300.546 160.99 300.513 160.709 300.478C160.081 300.396 159.456 300.306 158.83 300.209C158.522 300.164 158.522 300.164 158.207 300.117C157.721 300.045 157.236 299.971 156.751 299.896C156.711 300.966 156.682 302.036 156.663 303.107C156.655 303.47 156.644 303.834 156.63 304.197C156.469 306.637 156.469 306.637 157.501 308.755C157.775 309.002 158.057 309.24 158.346 309.469C160.996 311.988 163.785 314.896 163.93 318.757C163.832 320.632 163.241 322.445 161.821 323.736C160.035 325.162 158.496 325.569 156.206 325.52C154.377 325.306 152.742 324.468 151.28 323.372C151.266 323.647 151.266 323.647 151.252 323.928C150.791 325.805 149.432 327.308 147.861 328.387C146.188 329.314 144.575 329.621 142.709 329.148C140.943 328.531 139.745 327.508 138.873 325.851C138.337 324.537 138.439 323.171 138.516 321.777C138.353 321.851 138.19 321.925 138.021 322.001C136.963 322.382 135.912 322.308 134.798 322.304C134.569 322.308 134.339 322.311 134.103 322.315C131.84 322.317 130.382 321.789 128.712 320.225C127.195 318.55 126.992 316.634 127.044 314.445C127.22 312.415 128.221 311.2 129.719 309.904C130.697 309.186 131.748 308.815 132.89 308.429C133.125 308.345 133.361 308.261 133.604 308.175C134.329 307.918 135.055 307.668 135.781 307.418C136.238 307.257 136.695 307.095 137.152 306.933C138.212 306.557 139.276 306.19 140.34 305.822C140.49 302.663 140.641 299.504 140.796 296.249C139.724 295.854 139.724 295.854 138.63 295.452C136.461 294.635 134.408 293.689 132.362 292.602C132.141 292.491 131.921 292.379 131.693 292.264C124.383 288.481 119.028 281.721 116.413 273.982C114.025 266.272 114.63 258.092 115.724 250.208C115.608 250.257 115.493 250.307 115.374 250.357C109.913 252.668 103.672 254.789 97.8281 252.596C94.8228 251.323 92.0866 249.197 90.8309 246.108C89.0115 240.909 90.4221 235.755 92.7273 230.95C93.8107 228.787 95.1141 226.83 96.578 224.908C96.6736 224.781 96.7691 224.655 96.8676 224.524C98.1711 222.793 99.5192 221.101 100.909 219.438C101.056 219.262 101.056 219.262 101.205 219.082C103.838 215.93 106.673 212.974 109.57 210.065C109.747 209.887 109.924 209.708 110.106 209.525C111.182 208.452 112.29 207.433 113.445 206.446C113.699 206.225 113.953 206.004 114.207 205.782C115.493 204.673 116.748 203.643 118.231 202.8C117.565 202.26 116.857 201.849 116.105 201.442C113.321 199.935 110.84 198.199 108.533 196.029C108.049 195.576 107.556 195.148 107.048 194.722C100.502 188.99 96.3196 179.711 95.7215 171.103C95.4983 166.997 95.6002 162.911 96.6208 158.91C96.6795 158.676 96.6795 158.676 96.7393 158.438C96.982 157.557 97.2764 156.711 97.6256 155.867C98.5886 153.531 99.2224 151.274 99.6656 148.788C99.8444 147.79 100.038 146.795 100.231 145.799C100.269 145.603 100.307 145.408 100.346 145.206C100.848 142.636 101.518 140.119 102.276 137.613C102.338 137.407 102.4 137.202 102.464 136.99C105.63 126.649 110.72 117.16 118.231 109.35C118.338 109.238 118.445 109.126 118.555 109.01C119.835 107.677 121.162 106.45 122.61 105.301C123.035 104.96 123.454 104.61 123.867 104.254C125.816 102.567 127.909 101.155 130.083 99.7769C130.239 99.6782 130.394 99.5795 130.554 99.4778C139.421 93.9062 149.743 90.5397 160.055 88.9789C160.307 88.9407 160.558 88.9024 160.817 88.863C162.283 88.655 163.704 88.5602 165.184 88.6085C165.184 88.4581 165.184 88.3077 165.184 88.1527C165.033 88.1057 164.883 88.0587 164.728 88.0102C164.12 87.7315 163.743 87.4708 163.232 87.0558C161.293 85.5759 159.219 85.0662 156.83 84.8602C156.023 84.7265 155.57 84.5493 154.927 84.05C154.314 83.1325 154.267 82.1526 154.471 81.087C154.971 80.1731 155.52 79.6223 156.486 79.2262C159.223 78.5021 161.887 79.2879 164.327 80.5608C165.087 81.0148 165.823 81.4955 166.551 81.9987C166.705 82.1044 166.858 82.2101 167.017 82.3191C168.162 83.1118 169.296 83.9198 170.426 84.7338C170.623 84.8753 170.623 84.8753 170.824 85.0196C172.729 86.3874 172.729 86.3874 173.542 87.0629C174.022 87.5151 174.022 87.5151 174.529 87.4689C174.691 87.067 174.691 87.067 174.856 86.6569C174.917 86.5062 174.978 86.3555 175.041 86.2002C175.818 83.6923 175.778 80.5479 174.757 78.1239C174.682 77.9376 174.607 77.7514 174.53 77.5595C173.51 75.2804 171.857 73.6477 169.78 72.3056C169.028 71.7937 168.666 71.4755 168.375 70.6024C168.29 69.4602 168.348 68.7809 169.059 67.8672C171.081 66.0405 173.488 67.458 175.341 68.8359Z" fill="#FFF1A6"/>
<path d="M175.341 68.8359C178.641 71.5076 181.008 75.7388 181.594 79.9473C181.807 82.6282 181.834 85.3685 180.911 87.9248C181.284 87.9375 181.284 87.9375 181.666 87.9506C186.522 88.1448 191.231 88.838 195.954 89.9761C196.267 90.0496 196.267 90.0496 196.586 90.1246C202.38 91.4955 207.942 93.4876 213.276 96.1301C213.484 96.2326 213.692 96.3352 213.906 96.4408C218.333 98.6433 222.423 101.227 226.268 104.335C226.406 104.447 226.544 104.559 226.687 104.673C229.81 107.217 232.679 110.049 235.157 113.225C235.508 113.648 235.859 114.07 236.211 114.492C238.952 117.862 241.057 121.657 242.93 125.565C243.123 125.965 243.322 126.362 243.521 126.759C246.722 133.302 248.691 140.453 250.038 147.589C250.638 150.715 251.4 153.683 252.447 156.683C253.223 158.909 253.801 161.026 254.075 163.368C254.115 163.635 254.156 163.901 254.197 164.176C255.33 173.429 252.678 182.879 247.009 190.264C243.732 194.435 239.925 197.781 235.385 200.52C235.24 200.608 235.095 200.695 234.946 200.785C232.342 202.344 232.342 202.344 231.51 202.344C231.51 202.494 231.51 202.645 231.51 202.8C231.675 202.857 231.84 202.914 232.01 202.972C233.088 203.449 233.909 204.246 234.8 205.005C235.148 205.299 235.501 205.586 235.853 205.874C237.651 207.353 239.311 208.961 240.955 210.606C241.117 210.767 241.117 210.767 241.281 210.932C242.428 212.079 243.547 213.239 244.604 214.47C245.151 215.103 245.725 215.709 246.297 216.318C247.306 217.404 248.271 218.512 249.198 219.669C249.605 220.177 250.017 220.68 250.434 221.181C254.047 225.54 257.151 229.961 258.933 235.376C259.063 235.768 259.2 236.158 259.34 236.547C260.282 239.563 260.294 243.719 258.861 246.561C258.782 246.722 258.702 246.883 258.619 247.048C256.8 250.263 254.094 252.054 250.656 253.171C245.166 254.437 239.132 252.717 234.245 250.208C234.321 250.359 234.396 250.509 234.473 250.664C236.224 261.907 235.655 273.804 228.744 283.266C223.808 289.804 216.937 293.418 209.401 296.249C209.401 299.484 209.401 302.718 209.401 306.05C210.078 306.201 210.755 306.351 211.453 306.506C212.479 306.822 213.49 307.178 214.501 307.536C214.969 307.702 215.438 307.863 215.907 308.024C218.724 309.008 220.977 310.075 222.593 312.66C223.252 314.395 223.121 316.859 222.432 318.573C221.43 320.338 220.052 321.556 218.104 322.126C217.562 322.242 217.073 322.262 216.519 322.263C216.312 322.263 216.105 322.264 215.892 322.264C215.678 322.263 215.463 322.262 215.242 322.261C214.923 322.263 214.923 322.263 214.597 322.264C213.524 322.263 212.509 322.227 211.453 322.005C211.463 322.162 211.474 322.319 211.485 322.481C211.568 324.642 211.029 326.21 209.564 327.816C208.267 328.954 206.707 329.384 205.015 329.362C203.244 329.183 201.529 328.28 200.284 327.019C199.491 325.941 198.816 324.806 198.233 323.6C198.09 323.694 197.946 323.787 197.799 323.884C195.641 325.242 193.744 325.76 191.167 325.424C189.483 324.863 187.972 324.026 187.065 322.461C186.04 320.394 185.791 318.421 186.481 316.207C187.372 314.006 188.988 312.258 190.679 310.633C191.304 310.019 191.873 309.366 192.441 308.701C192.689 308.415 192.951 308.141 193.219 307.874C193.275 307.27 193.304 306.689 193.313 306.084C193.318 305.908 193.322 305.731 193.326 305.549C193.34 304.985 193.351 304.421 193.361 303.856C193.37 303.474 193.379 303.092 193.388 302.71C193.41 301.772 193.429 300.834 193.447 299.896C193.282 299.925 193.117 299.953 192.947 299.983C187.261 300.953 181.693 301.14 175.942 301.109C175.157 301.106 174.371 301.107 173.586 301.109C169.551 301.113 165.547 301.09 161.537 300.58C161.264 300.546 160.99 300.513 160.709 300.478C160.081 300.396 159.456 300.306 158.83 300.209C158.522 300.164 158.522 300.164 158.207 300.117C157.721 300.045 157.236 299.971 156.751 299.896C156.711 300.966 156.682 302.036 156.663 303.107C156.655 303.47 156.644 303.834 156.63 304.197C156.469 306.637 156.469 306.637 157.501 308.755C157.775 309.002 158.057 309.24 158.346 309.469C160.996 311.988 163.785 314.896 163.93 318.757C163.832 320.632 163.241 322.445 161.821 323.736C160.035 325.162 158.496 325.569 156.206 325.52C154.377 325.306 152.742 324.468 151.28 323.372C151.266 323.647 151.266 323.647 151.252 323.928C150.791 325.805 149.432 327.308 147.861 328.387C146.188 329.314 144.575 329.621 142.709 329.148C140.943 328.531 139.745 327.508 138.873 325.851C138.337 324.537 138.439 323.171 138.516 321.777C138.353 321.851 138.19 321.925 138.021 322.001C136.963 322.382 135.912 322.308 134.798 322.304C134.569 322.308 134.339 322.311 134.103 322.315C131.84 322.317 130.382 321.789 128.712 320.225C127.195 318.55 126.992 316.634 127.044 314.445C127.22 312.415 128.221 311.2 129.719 309.904C130.697 309.186 131.748 308.815 132.89 308.429C133.125 308.345 133.361 308.261 133.604 308.175C134.329 307.918 135.055 307.668 135.781 307.418C136.238 307.257 136.695 307.095 137.152 306.933C138.212 306.557 139.276 306.19 140.34 305.822C140.49 302.663 140.641 299.504 140.796 296.249C139.724 295.854 139.724 295.854 138.63 295.452C136.461 294.635 134.408 293.689 132.362 292.602C132.141 292.491 131.921 292.379 131.693 292.264C124.383 288.481 119.028 281.721 116.413 273.982C114.025 266.272 114.63 258.092 115.724 250.208C115.608 250.257 115.493 250.307 115.374 250.357C109.913 252.668 103.672 254.789 97.8281 252.596C94.8228 251.323 92.0866 249.197 90.8309 246.108C89.0115 240.909 90.4221 235.755 92.7273 230.95C93.8107 228.787 95.1141 226.83 96.578 224.908C96.6736 224.781 96.7691 224.655 96.8676 224.524C98.1711 222.793 99.5192 221.101 100.909 219.438C101.056 219.262 101.056 219.262 101.205 219.082C103.838 215.93 106.673 212.974 109.57 210.065C109.747 209.887 109.924 209.708 110.106 209.525C111.182 208.452 112.29 207.433 113.445 206.446C113.699 206.225 113.953 206.004 114.207 205.782C115.493 204.673 116.748 203.643 118.231 202.8C117.565 202.26 116.857 201.849 116.105 201.442C113.321 199.935 110.84 198.199 108.533 196.029C108.049 195.576 107.556 195.148 107.048 194.722C100.502 188.99 96.3196 179.711 95.7215 171.103C95.4983 166.997 95.6002 162.911 96.6208 158.91C96.6795 158.676 96.6795 158.676 96.7393 158.438C96.982 157.557 97.2764 156.711 97.6256 155.867C98.5886 153.531 99.2224 151.274 99.6656 148.788C99.8444 147.79 100.038 146.795 100.231 145.799C100.269 145.603 100.307 145.408 100.346 145.206C100.848 142.636 101.518 140.119 102.276 137.613C102.338 137.407 102.4 137.202 102.464 136.99C105.63 126.649 110.72 117.16 118.231 109.35C118.338 109.238 118.445 109.126 118.555 109.01C119.835 107.677 121.162 106.45 122.61 105.301C123.035 104.96 123.454 104.61 123.867 104.254C125.816 102.567 127.909 101.155 130.083 99.7769C130.239 99.6782 130.394 99.5795 130.554 99.4778C139.421 93.9062 149.743 90.5397 160.055 88.9789C160.307 88.9407 160.558 88.9024 160.817 88.863C162.283 88.655 163.704 88.5602 165.184 88.6085C165.184 88.4581 165.184 88.3077 165.184 88.1527C165.033 88.1057 164.883 88.0587 164.728 88.0102C164.12 87.7315 163.743 87.4708 163.232 87.0558C161.293 85.5759 159.219 85.0662 156.83 84.8602C156.023 84.7265 155.57 84.5493 154.927 84.05C154.314 83.1325 154.267 82.1526 154.471 81.087C154.971 80.1731 155.52 79.6223 156.486 79.2262C159.223 78.5021 161.887 79.2879 164.327 80.5608C165.087 81.0148 165.823 81.4955 166.551 81.9987C166.705 82.1044 166.858 82.2101 167.017 82.3191C168.162 83.1118 169.296 83.9198 170.426 84.7338C170.623 84.8753 170.623 84.8753 170.824 85.0196C172.729 86.3874 172.729 86.3874 173.542 87.0629C174.022 87.5151 174.022 87.5151 174.529 87.4689C174.691 87.067 174.691 87.067 174.856 86.6569C174.917 86.5062 174.978 86.3555 175.041 86.2002C175.818 83.6923 175.778 80.5479 174.757 78.1239C174.682 77.9376 174.607 77.7514 174.53 77.5595C173.51 75.2804 171.857 73.6477 169.78 72.3056C169.028 71.7937 168.666 71.4755 168.375 70.6024C168.29 69.4602 168.348 68.7809 169.059 67.8672C171.081 66.0405 173.488 67.458 175.341 68.8359ZM123.929 111.857C123.686 112.089 123.686 112.089 123.438 112.326C120.92 114.741 118.641 117.205 116.636 120.062C116.534 120.206 116.432 120.349 116.327 120.496C110.427 128.854 106.352 139.169 105.333 149.367C105.06 152.037 104.503 154.312 103.511 156.81C102.054 160.484 101.405 163.767 101.568 167.722C101.593 168.408 101.602 169.093 101.608 169.78C101.675 174.278 102.84 177.81 104.783 181.83C104.856 181.983 104.929 182.135 105.003 182.292C108.663 189.88 116.036 195.793 123.914 198.562C125.231 199.015 126.551 199.458 127.877 199.881C128.033 199.932 128.188 199.983 128.349 200.035C128.776 200.175 129.204 200.311 129.633 200.447C130.356 200.768 130.619 200.974 130.995 201.66C131.268 202.789 131.363 203.213 130.824 204.253C130.258 204.913 129.91 205.282 129.026 205.359C128.797 205.356 128.567 205.353 128.331 205.349C128.104 205.348 127.878 205.347 127.645 205.345C126.892 205.307 126.892 205.307 126.014 205.114C124.793 204.955 124.039 205.595 123.089 206.29C122.91 206.415 122.731 206.54 122.547 206.669C122.015 207.044 121.49 207.427 120.966 207.814C120.822 207.92 120.678 208.026 120.529 208.135C119.673 208.77 118.835 209.427 118.003 210.093C117.669 210.357 117.669 210.357 117.328 210.626C116.187 211.541 115.122 212.487 114.103 213.536C113.676 213.964 113.234 214.358 112.775 214.751C111.274 216.047 109.914 217.459 108.627 218.965C108.147 219.5 107.637 219.993 107.12 220.492C101.907 225.665 96.0503 234.003 95.7803 241.547C95.851 243.338 96.374 244.392 97.6749 245.607C100.136 247.615 103.354 247.517 106.379 247.245C109.124 246.777 111.717 245.661 114.131 244.3C114.609 244.041 115.096 243.813 115.588 243.583C117.276 242.761 117.276 242.761 118.448 241.353C118.789 240.301 118.893 239.208 119.034 238.115C119.247 236.806 119.629 235.54 119.997 234.268C120.076 233.996 120.155 233.724 120.236 233.444C120.733 231.765 121.267 230.105 121.892 228.47C121.959 228.288 122.025 228.107 122.094 227.92C122.584 226.702 123.244 225.821 124.385 225.136C125.1 224.946 125.446 225.001 126.208 225.136C126.822 225.632 127.224 226.028 127.576 226.732C127.703 228.081 127.515 229.252 127.049 230.521C126.99 230.69 126.931 230.86 126.871 231.034C126.463 232.202 126.034 233.362 125.607 234.523C123.726 239.672 122.352 244.812 121.522 250.242C121.456 250.668 121.389 251.092 121.318 251.517C120.765 254.867 120.667 258.187 120.653 261.576C120.65 261.885 120.65 261.885 120.647 262.201C120.623 265.779 120.819 269.443 122.035 272.844C122.092 273.011 122.15 273.177 122.21 273.349C123.157 275.957 124.619 278.203 126.436 280.294C126.667 280.571 126.667 280.571 126.903 280.853C133.814 288.886 144.66 291.775 154.699 293.514C154.939 293.556 155.179 293.598 155.426 293.641C157.155 293.936 158.887 294.19 160.625 294.426C160.867 294.461 161.108 294.495 161.357 294.531C174.647 296.383 189.821 295.792 202.792 292.147C203.015 292.085 203.239 292.023 203.469 291.96C210.003 290.137 216.054 287.511 221.026 282.802C221.188 282.652 221.188 282.652 221.354 282.499C226.433 277.812 228.919 271.493 229.275 264.641C229.292 263.799 229.294 262.959 229.288 262.117C229.287 261.967 229.287 261.816 229.286 261.661C229.258 256.563 228.789 251.574 227.864 246.561C227.828 246.355 227.792 246.149 227.755 245.936C226.921 241.215 225.343 236.577 223.603 232.114C223.54 231.952 223.477 231.79 223.412 231.623C223.294 231.32 223.173 231.017 223.05 230.715C222.491 229.288 222.307 227.788 222.621 226.276C223.05 225.754 223.387 225.437 223.989 225.136C225.148 225.049 225.788 225.128 226.724 225.82C229.561 229.828 230.577 235.605 231.594 240.308C231.877 241.396 232.092 242.05 233.076 242.648C233.256 242.759 233.437 242.869 233.623 242.983C233.819 243.097 234.015 243.211 234.217 243.328C234.42 243.447 234.622 243.566 234.831 243.689C239.279 246.234 244.423 248.103 249.602 247.096C251.36 246.529 252.799 245.48 253.733 243.869C254.466 242.119 254.07 240.216 253.605 238.441C253.528 238.145 253.528 238.145 253.449 237.842C250.997 228.82 244.002 221.665 237.579 215.222C237.368 215.009 237.156 214.797 236.938 214.578C235.897 213.539 234.845 212.531 233.728 211.573C233.187 211.106 232.671 210.613 232.151 210.122C230.811 208.902 229.377 207.894 227.864 206.902C227.605 206.722 227.347 206.542 227.089 206.361C225.608 205.292 225.608 205.292 223.861 205.079C223.622 205.133 223.622 205.133 223.379 205.188C222.038 205.488 220.584 205.583 219.387 204.879C218.806 204.198 218.711 203.82 218.704 202.942C218.7 202.766 218.697 202.591 218.694 202.41C218.754 201.814 218.888 201.484 219.202 200.976C219.6 200.722 219.6 200.722 220.087 200.524C220.271 200.448 220.455 200.373 220.645 200.295C221.744 199.878 222.851 199.484 223.96 199.096C228.714 197.4 232.898 195.65 236.753 192.315C236.865 192.218 236.977 192.121 237.093 192.021C242.935 186.927 247.42 180.08 248.377 172.257C248.402 171.626 248.419 171 248.423 170.369C248.424 170.192 248.426 170.014 248.427 169.832C248.429 169.457 248.431 169.083 248.432 168.709C248.434 168.148 248.441 167.586 248.448 167.024C248.468 164.066 248.032 161.415 247.052 158.61C246.965 158.35 246.965 158.35 246.875 158.085C246.598 157.269 246.306 156.467 245.965 155.675C244.957 153.269 244.619 150.894 244.272 148.316C242.528 135.568 237.216 123.922 228.319 114.592C228.032 114.266 227.747 113.939 227.465 113.609C223.424 108.964 218.215 105.397 212.82 102.512C212.681 102.436 212.541 102.361 212.397 102.283C205.611 98.6382 198.194 96.6171 190.712 94.9905C190.529 94.9497 190.347 94.9089 190.159 94.8668C189.133 94.639 188.104 94.458 187.065 94.3067C186.863 94.2762 186.661 94.2456 186.454 94.2142C165.796 91.212 142.11 96.311 123.929 111.857Z" fill="black"/>
<path d="M181.865 154.992C185.774 157.407 190.381 160.853 191.764 165.43C192.197 167.643 191.503 169.622 190.313 171.489C187.394 175.567 183.057 178.58 178.176 179.779C178.035 179.819 177.894 179.859 177.749 179.899C173.515 180.841 169.424 179.505 165.868 177.272C162.52 175.025 159.342 172.126 158.438 168.038C158.119 166.068 158.507 164.474 159.633 162.816C160.027 162.304 160.435 161.809 160.853 161.317C161.128 160.965 161.128 160.965 161.409 160.605C162.153 159.771 162.955 159.065 163.816 158.354C163.929 158.26 164.043 158.165 164.159 158.068C169.823 153.369 175.145 151.275 181.865 154.992Z" fill="black"/>
<path d="M230.884 159.978C233.104 162.082 234.225 164.723 234.325 167.749C234.364 171.073 233.54 174.184 231.22 176.677C228.6 179.125 225.515 180.207 221.975 180.138C218.737 179.982 215.711 178.526 213.504 176.133C212.964 175.409 212.54 174.661 212.137 173.853C212.026 173.633 211.914 173.412 211.799 173.185C210.633 170.567 210.629 167.653 211.429 164.913C211.89 163.757 212.539 162.77 213.276 161.773C213.396 161.609 213.516 161.445 213.639 161.275C215.451 159.003 218.028 157.736 220.798 157.044C224.626 156.725 227.899 157.497 230.884 159.978Z" fill="#F4A99C"/>
<path d="M131.451 157.898C131.773 158.043 131.773 158.043 132.102 158.191C135.011 159.632 136.747 161.95 137.833 164.964C138.523 168.464 138.176 172.092 136.166 175.107C135.894 175.454 135.614 175.797 135.326 176.132C135.196 176.293 135.065 176.454 134.931 176.619C133.179 178.584 130.34 179.932 127.717 180.092C125.394 180.152 123.525 179.955 121.422 178.867C121.214 178.763 121.006 178.659 120.791 178.551C118.362 177.222 116.638 174.915 115.753 172.3C114.936 168.831 115.239 165.062 117.054 161.974C120.257 157.311 126.232 155.474 131.451 157.898Z" fill="#F4A99C"/>
<path d="M146.266 297.845C148.635 298.296 148.635 298.296 151.052 298.756C151.044 299.271 151.037 299.785 151.028 300.315C150.646 306.932 150.646 306.932 153.32 312.69C153.82 313.191 154.328 313.683 154.842 314.17C157.346 316.548 157.346 316.548 157.506 318.173C157.434 318.814 157.434 318.814 156.978 319.498C155.939 319.465 155.38 319.362 154.635 318.615C154.387 318.348 154.142 318.077 153.901 317.803C152.949 316.726 152.303 316.112 150.824 315.851C149.877 315.867 149.402 315.942 148.656 316.534C147.942 317.397 147.686 318.207 147.377 319.27C146.657 321.667 146.657 321.667 146.038 322.461C145.198 322.646 145.198 322.646 144.443 322.689C144.037 321.989 143.93 321.478 143.924 320.673C143.92 320.464 143.915 320.255 143.91 320.04C143.904 319.602 143.9 319.165 143.898 318.728C143.877 317.493 143.877 317.493 143.379 316.39C141.971 315.565 139.967 316.045 138.431 316.307C137.303 316.498 136.211 316.592 135.069 316.606C134.786 316.61 134.504 316.614 134.213 316.617C133.502 316.535 133.502 316.535 133.048 316.26C132.818 315.851 132.818 315.851 132.845 315.298C133.046 314.711 133.046 314.711 133.549 314.341C135.371 313.49 137.217 312.812 139.129 312.19C142.376 311.249 142.376 311.249 145.01 309.262C146.058 307.118 145.878 304.286 145.96 301.934C145.967 301.732 145.975 301.531 145.982 301.323C145.987 301.147 145.993 300.971 145.998 300.789C146.057 299.805 146.168 298.825 146.266 297.845Z" fill="#FFBB4D"/>
<path d="M203.932 298.072C203.938 298.415 203.938 298.415 203.945 298.765C203.963 299.624 203.983 300.484 204.004 301.343C204.013 301.713 204.02 302.083 204.028 302.452C203.927 306.341 203.927 306.341 205.351 309.803C207.268 311.463 210.041 312.076 212.419 312.815C214.133 313.35 215.677 313.889 217.151 314.939C217.066 315.609 217.066 315.609 216.923 316.307C215.625 316.956 213.817 316.498 212.436 316.307C211.178 316.138 209.931 316.018 208.661 315.993C208.387 315.987 208.113 315.98 207.831 315.974C206.983 316.099 206.73 316.325 206.211 316.99C205.938 317.536 205.94 317.912 205.919 318.522C205.91 318.734 205.902 318.947 205.893 319.165C205.885 319.388 205.877 319.61 205.869 319.839C205.853 320.279 205.837 320.718 205.819 321.157C205.812 321.352 205.805 321.548 205.798 321.749C205.755 322.233 205.755 322.233 205.527 322.688C204.801 322.703 204.801 322.703 203.932 322.461C202.821 321.242 202.511 319.514 202.151 317.955C201.831 317.083 201.456 316.664 200.741 316.079C199.864 315.721 199.057 315.82 198.148 316.022C197.069 316.545 196.332 317.573 195.574 318.473C194.917 319.176 194.48 319.456 193.532 319.569C193.354 319.545 193.175 319.522 192.991 319.498C192.483 318.736 192.471 318.375 192.613 317.486C193.195 315.567 195.164 314.097 196.567 312.759C199.188 309.996 199.02 306.358 198.96 302.745C198.956 302.377 198.953 302.01 198.951 301.642C198.943 300.756 198.931 299.87 198.917 298.984C199.539 298.831 200.161 298.679 200.783 298.528C200.959 298.485 201.134 298.441 201.314 298.397C202.204 298.183 203.009 298.013 203.932 298.072Z" fill="#FFBB4D"/>
<path d="M209.604 145.775C211.354 146.76 212.684 148.448 213.276 150.376C213.346 151.037 213.352 151.692 213.347 152.356C213.345 152.631 213.345 152.631 213.343 152.911C213.297 155.171 212.81 156.913 211.225 158.582C209.516 160.171 207.655 160.811 205.326 160.74C203.308 160.437 201.683 159.338 200.427 157.76C199.045 155.723 198.913 153.68 199.145 151.288C199.563 149.289 200.568 147.512 202.238 146.306C204.552 144.886 207.085 144.589 209.604 145.775Z" fill="black"/>
<path d="M147.138 145.925C148.832 147.117 149.982 148.602 150.597 150.604C150.938 153.045 150.723 155.354 149.485 157.499C148.237 159.115 146.827 159.99 144.898 160.633C142.828 160.843 141.181 160.506 139.495 159.268C137.84 157.865 136.981 156.629 136.693 154.479C136.493 151.963 136.574 150.025 138.061 147.869C138.645 147.185 138.645 147.185 139.2 146.73C139.374 146.57 139.548 146.41 139.727 146.245C141.921 144.715 144.818 144.558 147.138 145.925Z" fill="black"/>
<path d="M179.225 159.338C181.815 160.821 184.26 162.694 185.925 165.192C185.925 165.418 185.925 165.643 185.925 165.876C183.603 166.498 181.42 166.596 179.021 166.598C178.704 166.599 178.388 166.599 178.071 166.6C177.408 166.601 176.746 166.602 176.083 166.602C175.244 166.602 174.404 166.605 173.564 166.609C172.91 166.611 172.256 166.612 171.601 166.612C171.144 166.612 170.687 166.614 170.23 166.617C165.503 166.605 165.503 166.605 164.044 165.876C165.247 162.391 169.553 159.928 172.705 158.354C175.144 157.452 176.982 158.205 179.225 159.338Z" fill="#FFBB4D"/>
<path d="M185.013 171.118C183.766 172.126 182.508 172.884 181.053 173.554C180.874 173.64 180.695 173.726 180.51 173.814C177.571 175.19 174.873 175.749 171.694 174.765C169.389 173.92 167.188 172.765 165.184 171.346C165.184 171.271 165.184 171.195 165.184 171.118C165.399 171.118 165.615 171.119 165.838 171.119C167.876 171.124 169.915 171.128 171.954 171.13C173.002 171.131 174.05 171.133 175.098 171.135C176.11 171.138 177.123 171.139 178.135 171.14C178.52 171.14 178.906 171.141 179.291 171.142C179.833 171.144 180.374 171.144 180.916 171.144C181.073 171.145 181.231 171.145 181.393 171.146C182.184 171.145 182.949 171.098 183.731 170.988C184.557 170.89 184.557 170.89 185.013 171.118Z" fill="#FFBB4D"/>
<path d="M145.881 135.306C146.508 135.758 146.804 136.321 147.122 137.005C147.183 137.133 147.183 137.133 147.245 137.264C147.376 137.543 147.507 137.823 147.637 138.103C147.729 138.298 147.82 138.492 147.912 138.687C148.561 140.073 149.194 141.466 149.813 142.866C149.904 143.05 149.904 143.05 149.997 143.238C150.166 143.608 150.241 143.967 150.317 144.365C150.518 145.188 150.76 145.856 151.425 146.409C152.891 147.095 154.738 147.106 156.324 147.25C157.061 147.319 157.797 147.406 158.532 147.49C159.105 147.555 159.677 147.618 160.251 147.672C160.409 147.688 160.409 147.688 160.571 147.705C160.766 147.724 160.961 147.742 161.157 147.759C161.934 147.839 162.626 148.063 163.149 148.669C163.488 149.149 163.648 149.46 163.657 150.054C163.66 150.154 163.663 150.255 163.666 150.359C163.505 151.428 162.749 152.081 162.011 152.801C161.897 152.914 161.783 153.027 161.669 153.14C161.371 153.437 161.071 153.732 160.771 154.027C160.292 154.498 159.815 154.971 159.338 155.444C159.173 155.608 159.007 155.771 158.841 155.934C158.323 156.445 157.821 156.959 157.35 157.514C157.053 157.858 156.733 158.179 156.412 158.501C156.348 158.567 156.283 158.633 156.217 158.701C156.054 158.865 155.884 159.022 155.714 159.179C155.64 159.179 155.565 159.179 155.488 159.179C155.741 161.016 156.033 162.845 156.335 164.674C156.485 165.588 156.636 166.502 156.785 167.416C156.839 167.747 156.895 168.077 156.95 168.407C156.981 168.597 157.012 168.788 157.044 168.978C157.058 169.061 157.072 169.144 157.087 169.229C157.239 170.169 157.278 171.014 156.73 171.836C156.113 172.419 155.588 172.7 154.736 172.684C153.936 172.562 153.251 172.114 152.554 171.723C152.328 171.598 152.102 171.473 151.876 171.349C151.361 171.064 150.847 170.778 150.334 170.49C149.767 170.173 149.199 169.857 148.63 169.544C148.558 169.504 148.485 169.464 148.41 169.423C148.127 169.267 147.844 169.111 147.561 168.955C147.365 168.848 147.17 168.74 146.975 168.633C146.851 168.565 146.728 168.498 146.601 168.428C146.35 168.286 146.104 168.137 145.861 167.983C145.743 167.908 145.625 167.834 145.503 167.757C145.399 167.689 145.295 167.62 145.188 167.55C144.88 167.396 144.88 167.396 144.545 167.498C144.193 167.659 143.854 167.829 143.515 168.016C143.451 168.052 143.387 168.087 143.321 168.124C143.111 168.24 142.902 168.357 142.693 168.474C142.546 168.556 142.398 168.637 142.251 168.719C141.233 169.286 140.225 169.869 139.221 170.459C138.375 170.957 137.524 171.445 136.669 171.928C136.548 171.996 136.428 172.064 136.304 172.135C136.192 172.198 136.08 172.261 135.965 172.325C135.866 172.381 135.768 172.437 135.666 172.494C135.114 172.769 134.541 172.828 133.932 172.74C133.295 172.476 132.861 172.05 132.465 171.497C132.076 170.329 132.44 168.945 132.64 167.759C132.67 167.575 132.7 167.392 132.73 167.209C132.808 166.729 132.887 166.25 132.966 165.771C133.093 165.006 133.218 164.241 133.343 163.475C133.386 163.212 133.43 162.949 133.474 162.685C133.542 162.277 133.606 161.869 133.668 161.459C133.694 161.29 133.722 161.121 133.751 160.952C133.796 160.693 133.837 160.433 133.877 160.174C133.891 160.096 133.906 160.018 133.921 159.938C133.966 159.618 133.977 159.369 133.812 159.086C133.56 158.775 133.283 158.523 132.97 158.275C132.878 158.201 132.785 158.126 132.69 158.049C132.69 157.974 132.69 157.9 132.69 157.823C132.616 157.823 132.541 157.823 132.465 157.823C132.304 157.659 132.304 157.659 132.116 157.431C131.672 156.91 131.198 156.429 130.712 155.948C130.577 155.813 130.577 155.813 130.44 155.677C130.156 155.394 129.871 155.111 129.587 154.828C129.211 154.455 128.836 154.082 128.462 153.709C128.377 153.625 128.292 153.541 128.205 153.454C127.682 152.933 127.188 152.394 126.709 151.833C126.627 151.741 126.627 151.741 126.543 151.647C126.058 151.092 125.868 150.666 125.89 149.918C125.975 149.228 126.342 148.697 126.822 148.217C127.38 147.937 127.903 147.805 128.523 147.724C128.612 147.712 128.7 147.7 128.792 147.687C128.984 147.66 129.176 147.634 129.369 147.608C129.677 147.567 129.984 147.522 130.292 147.477C131.366 147.322 132.437 147.187 133.517 147.089C134.041 147.04 134.563 146.984 135.086 146.928C135.34 146.902 135.595 146.88 135.85 146.862C137.175 146.816 137.175 146.816 138.295 146.215C138.611 145.727 138.775 145.196 138.931 144.639C139.05 144.245 139.226 143.887 139.407 143.519C139.473 143.381 139.537 143.243 139.602 143.104C139.634 143.035 139.667 142.966 139.7 142.895C139.991 142.272 140.276 141.647 140.561 141.022C140.638 140.853 140.716 140.684 140.794 140.515C141.198 139.634 141.599 138.752 141.976 137.859C142.031 137.73 142.086 137.6 142.143 137.467C142.243 137.23 142.342 136.992 142.439 136.753C142.785 135.935 143.118 135.569 143.892 135.122C144.582 134.915 145.239 134.968 145.881 135.306Z" fill="#010100"/>
<path d="M144.613 140.965C144.98 141.149 145.067 141.566 145.224 141.931C145.312 142.132 145.401 142.332 145.489 142.532C145.54 142.649 145.591 142.765 145.644 142.884C145.971 143.619 146.307 144.349 146.641 145.08C146.8 145.427 146.958 145.773 147.116 146.119C147.193 146.287 147.271 146.455 147.348 146.622C147.544 147.044 147.734 147.468 147.915 147.897C147.952 147.982 147.989 148.066 148.027 148.154C148.097 148.314 148.164 148.474 148.229 148.636C148.495 149.237 148.854 149.539 149.452 149.802C149.756 149.894 150.056 149.94 150.371 149.977C150.459 149.989 150.548 150.002 150.639 150.014C150.835 150.041 151.03 150.067 151.226 150.092C151.56 150.135 151.894 150.182 152.228 150.229C152.966 150.333 153.704 150.433 154.443 150.534C154.823 150.585 155.204 150.637 155.584 150.689C155.819 150.721 156.053 150.753 156.288 150.784C156.393 150.799 156.499 150.813 156.607 150.828C156.699 150.841 156.792 150.853 156.886 150.866C157.16 150.908 157.43 150.96 157.701 151.017C157.174 151.662 156.596 152.248 156.004 152.833C155.83 153.006 155.657 153.178 155.484 153.351C154.992 153.841 154.5 154.331 154.006 154.819C153.703 155.12 153.401 155.421 153.099 155.722C152.984 155.836 152.87 155.95 152.754 156.064C152.593 156.223 152.433 156.382 152.274 156.543C152.183 156.633 152.091 156.723 151.998 156.816C151.397 157.52 151.353 158.15 151.409 159.043C151.499 160.047 151.685 161.042 151.851 162.035C151.891 162.278 151.931 162.52 151.97 162.762C152.065 163.342 152.161 163.921 152.258 164.501C152.326 164.909 152.394 165.317 152.461 165.726C152.521 166.088 152.582 166.45 152.642 166.813C152.24 166.686 151.877 166.551 151.513 166.339C151.425 166.288 151.338 166.237 151.248 166.185C151.154 166.13 151.061 166.075 150.965 166.019C150.865 165.961 150.766 165.904 150.664 165.844C150.449 165.719 150.233 165.594 150.018 165.468C149.656 165.257 149.294 165.047 148.931 164.837C148.449 164.559 147.967 164.28 147.486 164.001C147.375 163.937 147.265 163.873 147.151 163.807C146.915 163.669 146.68 163.531 146.445 163.392C146.327 163.322 146.209 163.252 146.088 163.18C145.981 163.117 145.875 163.053 145.765 162.988C145.244 162.698 144.757 162.617 144.173 162.726C143.682 162.937 143.226 163.197 142.765 163.467C142.513 163.615 142.258 163.76 142.003 163.905C141.214 164.354 140.429 164.809 139.645 165.266C139.385 165.418 139.125 165.569 138.864 165.721C138.676 165.83 138.489 165.941 138.301 166.051C138.128 166.152 138.128 166.152 137.951 166.254C137.849 166.314 137.747 166.374 137.641 166.436C137.367 166.584 137.094 166.703 136.803 166.813C136.859 166.412 136.917 166.012 136.975 165.612C136.994 165.482 137.012 165.353 137.032 165.22C137.158 164.36 137.297 163.503 137.444 162.646C137.461 162.544 137.479 162.442 137.496 162.337C137.583 161.826 137.672 161.316 137.761 160.806C138.162 158.968 138.162 158.968 137.745 157.207C137.346 156.684 136.865 156.235 136.391 155.78C136.177 155.574 135.965 155.367 135.753 155.16C135.612 155.024 135.612 155.024 135.468 154.886C135.263 154.662 135.263 154.662 135.263 154.441C135.193 154.412 135.123 154.382 135.05 154.351C134.823 154.22 134.823 154.22 134.713 153.889C134.641 153.889 134.568 153.889 134.493 153.889C134.338 153.73 134.338 153.73 134.156 153.509C133.711 152.983 133.23 152.501 132.74 152.018C132.572 151.851 132.403 151.685 132.235 151.518C132.125 151.409 132.125 151.409 132.013 151.298C131.854 151.127 131.854 151.127 131.854 151.017C132.358 150.936 132.862 150.855 133.366 150.775C133.443 150.763 133.52 150.751 133.6 150.738C134.55 150.587 135.501 150.445 136.454 150.317C136.587 150.299 136.587 150.299 136.722 150.28C137.153 150.222 137.585 150.165 138.016 150.11C139.567 149.932 139.567 149.932 140.873 149.139C141.02 148.886 141.143 148.649 141.261 148.383C141.296 148.309 141.33 148.234 141.366 148.158C141.478 147.915 141.588 147.671 141.698 147.427C141.775 147.258 141.853 147.089 141.931 146.92C142.089 146.575 142.247 146.23 142.403 145.885C142.615 145.42 142.83 144.957 143.046 144.494C143.172 144.224 143.298 143.954 143.423 143.685C143.508 143.502 143.508 143.502 143.595 143.316C143.954 142.54 144.291 141.757 144.613 140.965Z" fill="#FFBB4D"/>
<path d="M206.64 135.481C207.287 136.104 207.582 136.941 207.935 137.752C208.005 137.909 208.074 138.066 208.144 138.224C208.287 138.547 208.429 138.871 208.571 139.195C208.882 139.903 209.197 140.61 209.511 141.317C209.57 141.448 209.628 141.58 209.689 141.716C210.015 142.448 210.346 143.177 210.685 143.903C210.74 144.021 210.74 144.021 210.796 144.141C210.975 144.523 211.153 144.905 211.333 145.286C211.398 145.423 211.462 145.56 211.526 145.696C211.611 145.877 211.611 145.877 211.698 146.061C211.819 146.346 211.819 146.346 211.819 146.572C211.926 146.578 212.033 146.583 212.143 146.588C213.306 146.651 214.454 146.775 215.608 146.928C215.792 146.952 215.977 146.976 216.161 147C216.544 147.051 216.926 147.102 217.308 147.153C217.796 147.218 218.284 147.281 218.772 147.343C219.151 147.392 219.53 147.442 219.909 147.493C220.089 147.517 220.269 147.54 220.449 147.563C222.842 147.868 222.842 147.868 223.641 148.836C224.017 149.417 224.169 149.833 224.091 150.533C223.845 151.624 222.908 152.346 222.142 153.087C221.936 153.288 221.73 153.49 221.525 153.692C221.398 153.817 221.27 153.941 221.142 154.065C220.818 154.381 220.513 154.705 220.219 155.05C219.806 155.531 219.356 155.962 218.895 156.395C218.722 156.561 218.55 156.728 218.377 156.894C218.11 157.153 217.841 157.41 217.569 157.664C216.545 158.552 216.545 158.552 215.879 159.695C215.902 160.06 215.993 160.368 216.097 160.719C216.149 161.006 216.193 161.294 216.236 161.583C216.287 161.916 216.342 162.248 216.399 162.581C216.523 163.303 216.644 164.025 216.764 164.747C216.784 164.868 216.804 164.988 216.825 165.112C216.988 166.085 217.149 167.059 217.3 168.035C217.335 168.258 217.371 168.481 217.407 168.704C217.767 171.063 217.767 171.063 217.329 171.874C216.928 172.402 216.535 172.66 215.889 172.77C214.817 172.839 214.067 172.445 213.17 171.923C212.978 171.815 212.786 171.707 212.594 171.599C212.155 171.352 211.717 171.102 211.28 170.852C210.458 170.381 209.633 169.917 208.807 169.456C208.228 169.132 207.654 168.802 207.087 168.458C206.926 168.361 206.926 168.361 206.761 168.263C206.559 168.141 206.358 168.017 206.159 167.892C206.069 167.838 205.979 167.784 205.886 167.729C205.809 167.681 205.731 167.633 205.651 167.583C205.106 167.422 204.567 167.805 204.095 168.061C203.976 168.125 203.857 168.19 203.735 168.256C203.609 168.325 203.484 168.393 203.354 168.464C203.225 168.535 203.095 168.606 202.961 168.679C202 169.203 201.051 169.748 200.107 170.303C199.666 170.563 199.22 170.812 198.77 171.055C198.467 171.219 198.167 171.386 197.866 171.554C197.766 171.61 197.665 171.666 197.562 171.723C197.36 171.836 197.158 171.948 196.957 172.061C196.864 172.113 196.77 172.165 196.674 172.219C196.591 172.265 196.507 172.312 196.421 172.36C195.698 172.732 195.025 172.874 194.228 172.642C193.655 172.387 193.314 172.021 193.018 171.471C192.606 170.228 193.046 168.697 193.25 167.439C193.285 167.215 193.321 166.992 193.356 166.768C193.538 165.614 193.729 164.461 193.925 163.309C193.943 163.199 193.962 163.09 193.981 162.978C194.07 162.454 194.159 161.931 194.251 161.408C194.283 161.22 194.315 161.031 194.348 160.843C194.363 160.758 194.378 160.673 194.394 160.586C194.469 160.14 194.497 159.795 194.369 159.361C194.189 159.101 194.189 159.101 193.948 158.853C193.856 158.754 193.764 158.656 193.669 158.554C193.143 158.009 192.611 157.47 192.074 156.936C191.864 156.726 191.654 156.517 191.444 156.307C190.85 155.712 190.254 155.117 189.658 154.523C189.292 154.158 188.926 153.792 188.56 153.425C188.421 153.287 188.282 153.148 188.143 153.01C187.949 152.817 187.756 152.623 187.562 152.43C187.505 152.373 187.449 152.317 187.39 152.26C186.797 151.662 186.368 151.096 186.333 150.236C186.341 149.594 186.526 149.101 186.938 148.609C187.456 148.16 187.895 147.962 188.582 147.859C188.664 147.846 188.746 147.833 188.83 147.82C189.1 147.779 189.37 147.741 189.64 147.704C189.733 147.691 189.826 147.678 189.921 147.664C190.524 147.579 191.128 147.499 191.731 147.421C192.062 147.378 192.392 147.331 192.722 147.284C193.761 147.138 194.787 147.01 195.836 146.967C197.448 146.927 197.448 146.927 198.81 146.184C199.266 145.507 199.529 144.761 199.77 143.985C200.023 143.174 200.378 142.419 200.739 141.652C200.922 141.261 201.098 140.868 201.275 140.475C201.309 140.398 201.344 140.322 201.379 140.243C201.614 139.72 201.845 139.196 202.074 138.671C202.105 138.601 202.135 138.531 202.167 138.459C202.31 138.132 202.453 137.804 202.594 137.476C203.418 135.585 203.418 135.585 204.389 135.142C205.165 134.849 205.966 135.033 206.64 135.481Z" fill="#010100"/>
<path d="M205.222 140.666C205.603 140.977 205.766 141.4 205.963 141.839C206.001 141.922 206.039 142.006 206.079 142.092C206.204 142.366 206.327 142.64 206.451 142.915C206.537 143.104 206.623 143.293 206.71 143.483C207.122 144.391 207.527 145.301 207.92 146.218C207.953 146.296 207.987 146.374 208.021 146.454C208.178 146.82 208.333 147.186 208.487 147.553C208.947 148.79 208.947 148.79 209.944 149.552C210.46 149.717 210.996 149.778 211.531 149.852C211.661 149.871 211.79 149.89 211.923 149.909C212.336 149.969 212.748 150.028 213.161 150.086C213.568 150.145 213.975 150.204 214.381 150.263C214.646 150.301 214.91 150.339 215.175 150.377C216.266 150.534 217.356 150.703 218.444 150.881C218.02 151.39 217.582 151.876 217.11 152.341C217.05 152.401 216.99 152.461 216.929 152.522C216.676 152.774 216.423 153.025 216.171 153.275C215.535 153.906 214.907 154.534 214.328 155.218C213.952 155.646 213.533 156.036 213.121 156.429C212.472 157.066 212.14 157.675 212.102 158.597C212.105 159.166 212.208 159.719 212.302 160.279C212.321 160.396 212.34 160.514 212.36 160.635C212.422 161.011 212.484 161.386 212.547 161.762C212.587 162.01 212.628 162.258 212.669 162.506C212.89 163.855 212.89 163.855 213.125 165.202C213.141 165.291 213.157 165.379 213.174 165.47C213.216 165.702 213.259 165.934 213.301 166.166C213.351 166.489 213.371 166.784 213.359 167.11C212.976 166.964 212.622 166.797 212.266 166.594C212.164 166.537 212.062 166.479 211.958 166.42C211.849 166.357 211.74 166.295 211.629 166.231C211.515 166.166 211.401 166.101 211.284 166.035C210.224 165.428 209.17 164.812 208.117 164.192C208.014 164.132 207.911 164.072 207.805 164.009C207.575 163.874 207.346 163.737 207.117 163.6C206.997 163.528 206.877 163.456 206.753 163.382C206.644 163.316 206.535 163.251 206.422 163.183C205.894 162.9 205.365 162.83 204.77 162.911C204.422 163.036 204.109 163.21 203.788 163.393C203.696 163.445 203.603 163.496 203.507 163.548C203.211 163.712 202.917 163.879 202.623 164.046C202.529 164.099 202.436 164.152 202.34 164.206C201.442 164.714 200.55 165.232 199.659 165.753C199.388 165.912 199.117 166.07 198.846 166.228C198.649 166.343 198.452 166.459 198.255 166.574C198.136 166.644 198.016 166.714 197.893 166.786C197.786 166.849 197.679 166.911 197.569 166.976C197.311 167.11 197.311 167.11 197.085 167.11C197.275 165.661 197.508 164.222 197.764 162.783C197.793 162.615 197.823 162.446 197.853 162.278C198.082 160.983 198.082 160.983 198.168 160.501C198.221 160.205 198.272 159.909 198.322 159.613C198.336 159.533 198.351 159.454 198.365 159.372C198.523 158.415 198.426 157.755 197.878 156.961C197.418 156.371 196.88 155.856 196.348 155.332C196.222 155.206 196.097 155.081 195.971 154.955C195.643 154.628 195.314 154.301 194.985 153.975C194.455 153.45 193.927 152.923 193.399 152.396C193.214 152.212 193.029 152.029 192.844 151.846C192.732 151.735 192.62 151.623 192.508 151.512C192.41 151.414 192.311 151.317 192.21 151.216C192 150.994 192 150.994 192 150.881C192.381 150.818 192.763 150.757 193.144 150.696C193.269 150.676 193.395 150.656 193.524 150.636C194.434 150.495 195.345 150.373 196.259 150.261C196.493 150.232 196.726 150.202 196.96 150.173C197.311 150.13 197.662 150.086 198.014 150.045C198.348 150.006 198.681 149.965 199.015 149.923C199.114 149.912 199.214 149.901 199.317 149.889C200.048 149.795 200.684 149.603 201.249 149.11C201.794 148.348 202.15 147.493 202.524 146.639C202.598 146.472 202.672 146.305 202.747 146.139C202.859 145.885 202.972 145.632 203.085 145.378C203.439 144.58 203.803 143.786 204.17 142.993C204.527 142.22 204.881 141.446 205.222 140.666Z" fill="#FFBB4D"/>
<path d="M114.813 91.1667C114.866 91.1885 114.919 91.2104 114.973 91.2329C116.259 91.7697 117.472 92.4343 118.66 93.1602C118.704 93.187 118.748 93.2139 118.794 93.2415C119.31 93.555 119.807 93.8836 120.286 94.2508C120.479 94.4012 120.479 94.4012 120.7 94.5013C120.706 94.5437 120.713 94.5862 120.719 94.63C120.76 94.6414 120.8 94.6528 120.842 94.6646C121.253 94.8141 121.595 95.1683 121.921 95.4513C122.038 95.5534 122.038 95.5534 122.165 95.6391C122.261 95.7162 122.261 95.7162 122.28 95.8449C122.334 95.8028 122.387 95.7607 122.442 95.7173C124.049 94.476 126.078 93.9238 128.102 94.1679C128.702 94.2501 129.265 94.3745 129.829 94.5992C129.988 94.6526 129.988 94.6526 130.105 94.573C130.253 94.4477 130.358 94.3133 130.473 94.1572C130.518 94.096 130.564 94.0348 130.61 93.9718C130.657 93.9079 130.704 93.8439 130.752 93.7781C130.799 93.7149 130.845 93.6517 130.894 93.5866C131.105 93.299 131.302 93.0138 131.48 92.7042C131.548 92.6193 131.617 92.5362 131.69 92.4553C131.849 92.2732 131.995 92.0882 132.136 91.8918C132.347 91.6031 132.581 91.3421 132.824 91.08C132.985 90.9054 133.141 90.7272 133.297 90.5482C136.144 87.3634 140.238 84.4595 144.605 84.1152C146.089 84.0443 147.576 84.5599 148.702 85.521C150.986 87.6492 151.948 90.8997 152.688 93.8308C152.701 93.8782 152.714 93.9256 152.726 93.9745C152.857 94.4855 152.939 95.0015 153.016 95.5228C153.031 95.6187 153.045 95.7146 153.06 95.8105C153.09 96.0113 153.12 96.212 153.15 96.4128C153.18 96.615 153.21 96.817 153.241 97.0191C153.429 98.2525 153.588 99.4764 153.646 100.724C153.648 100.774 153.65 100.824 153.653 100.875C153.666 101.152 153.673 101.429 153.676 101.706C153.677 101.787 153.678 101.868 153.68 101.952C153.684 102.781 153.626 103.599 153.537 104.423C153.531 104.477 153.526 104.531 153.52 104.587C153.356 106.126 152.901 107.627 152.035 108.92C151.999 108.973 151.964 109.025 151.928 109.08C151.136 110.206 149.849 111.009 148.506 111.284C147.95 111.381 147.392 111.458 146.833 111.533C146.979 111.682 147.124 111.832 147.27 111.982C147.315 112.028 147.36 112.075 147.407 112.123C147.685 112.408 147.966 112.691 148.248 112.973C150.938 115.659 150.938 115.659 150.955 116.707C150.912 117.214 150.772 117.652 150.428 118.035C149.395 118.86 147.785 118.711 146.54 118.748C146.38 118.753 146.22 118.758 146.06 118.763C145.549 118.78 145.037 118.797 144.525 118.808C143.866 118.803 143.866 118.803 143.272 119.038C143.167 119.174 143.091 119.311 143.013 119.464C142.953 119.57 142.892 119.676 142.831 119.782C142.764 119.902 142.698 120.022 142.632 120.143C142.254 120.837 141.857 121.521 141.446 122.195C141.421 122.236 141.397 122.277 141.371 122.318C140.38 123.953 140.38 123.953 139.519 124.22C138.952 124.339 138.47 124.215 137.969 123.935C137.705 123.734 137.527 123.457 137.34 123.188C137.31 123.146 137.281 123.104 137.251 123.061C136.924 122.588 136.617 122.102 136.313 121.613C136.282 121.564 136.251 121.514 136.22 121.464C134.855 119.271 133.564 117.038 132.325 114.773C132.154 114.459 131.981 114.147 131.808 113.834C131.225 112.781 130.66 111.719 130.108 110.649C130.061 110.56 130.061 110.56 130.014 110.468C129.927 110.3 129.84 110.132 129.753 109.963C129.714 109.888 129.714 109.888 129.674 109.81C129.577 109.619 129.495 109.459 129.463 109.245C129.4 109.265 129.337 109.285 129.271 109.306C129.037 109.372 128.812 109.415 128.571 109.449C128.489 109.461 128.406 109.473 128.321 109.486C128.235 109.498 128.148 109.51 128.062 109.522C127.974 109.535 127.886 109.548 127.799 109.561C127.585 109.592 127.371 109.622 127.157 109.653C127.15 109.69 127.144 109.727 127.137 109.765C126.287 114.593 125.293 119.425 123.937 124.139C123.882 124.333 123.828 124.529 123.774 124.724C123.549 125.526 123.328 126.195 122.576 126.639C122.125 126.868 121.593 126.894 121.11 126.756C120.364 126.448 119.762 125.83 119.171 125.295C119.125 125.254 119.079 125.212 119.032 125.169C118.57 124.75 118.117 124.322 117.667 123.891C117.591 123.818 117.515 123.745 117.439 123.673C117.368 123.605 117.297 123.537 117.226 123.469C117.132 123.378 117.035 123.29 116.938 123.202C116.858 123.12 116.858 123.12 116.777 123.035C116.249 122.764 115.422 123.131 114.88 123.28C114.793 123.303 114.707 123.326 114.62 123.349C114.257 123.446 113.894 123.544 113.531 123.643C111.763 124.122 111.763 124.122 111.002 124.238C110.928 124.249 110.928 124.249 110.852 124.261C110.298 124.334 109.815 124.225 109.35 123.917C108.869 123.506 108.687 123.025 108.63 122.402C108.586 121.419 109.317 120.378 109.752 119.534C109.782 119.476 109.812 119.418 109.843 119.357C110.265 118.532 110.7 117.714 111.136 116.896C111.089 116.902 111.041 116.908 110.992 116.915C108.789 117.192 107.111 117.061 105.291 115.711C103.772 114.511 102.773 112.549 102.162 110.747C102.11 110.594 102.056 110.441 102.001 110.288C100.226 105.224 99.1369 98.0766 101.485 93.0604C102.184 91.7168 103.145 90.7793 104.543 90.1923C104.601 90.1675 104.658 90.1427 104.718 90.1172C107.812 88.9636 111.879 89.9385 114.813 91.1667Z" fill="black"/>
<path d="M106.426 92.1365C106.469 92.1301 106.513 92.1237 106.558 92.1171C111.282 91.4305 115.822 93.7306 119.516 96.4798C119.812 96.7023 120.098 96.9334 120.374 97.1802C120.431 97.2309 120.431 97.2309 120.49 97.2825C120.578 97.3608 120.666 97.4396 120.753 97.5185C120.684 97.7741 120.559 97.978 120.423 98.2044C119.926 99.0726 119.675 100.015 119.493 100.993C119.196 100.953 118.9 100.911 118.605 100.853C117.591 100.654 116.56 100.548 115.531 100.685C115.476 100.692 115.42 100.699 115.363 100.706C115.096 100.749 114.918 100.796 114.729 100.996C114.502 101.325 114.482 101.522 114.55 101.908C114.626 102.199 114.759 102.358 115.011 102.517C115.336 102.662 115.682 102.625 116.032 102.616C116.666 102.611 117.294 102.627 117.926 102.672C117.998 102.677 118.07 102.682 118.145 102.687C118.629 102.724 119.101 102.795 119.577 102.888C119.587 102.946 119.597 103.005 119.606 103.065C119.877 104.519 120.57 106.182 121.711 107.178C121.809 107.291 121.809 107.291 121.832 107.413C121.754 107.64 121.595 107.793 121.432 107.963C121.395 108.002 121.357 108.042 121.319 108.083C120.551 108.88 119.707 109.614 118.836 110.296C118.79 110.332 118.743 110.369 118.696 110.406C116.2 112.347 113.333 114.205 110.152 114.695C110.059 114.709 109.965 114.725 109.872 114.74C108.763 114.928 107.846 114.788 106.904 114.134C103.636 111.576 103.189 106.112 102.723 102.298C102.642 101.582 102.603 100.868 102.601 100.147C102.6 100.026 102.6 100.026 102.599 99.9037C102.591 97.858 102.695 95.4465 103.807 93.6553C103.837 93.5938 103.868 93.5324 103.899 93.4691C104.515 92.5624 105.398 92.2872 106.426 92.1365Z" fill="#F4A99C"/>
<path d="M144.066 86.5453C144.147 86.532 144.228 86.5187 144.31 86.5049C145.277 86.3575 146.05 86.4769 146.852 87.0396C148.587 88.3307 149.39 90.6998 150.005 92.6914C150.042 92.8124 150.042 92.8124 150.08 92.9359C150.484 94.2774 150.743 95.6295 150.942 97.0153C150.954 97.0975 150.966 97.1797 150.978 97.2644C151.451 100.518 152.063 104.824 150.152 107.752C149.463 108.627 148.636 108.99 147.556 109.144C147.511 109.15 147.467 109.157 147.421 109.164C144.4 109.596 141.302 108.85 138.461 107.843C138.398 107.821 138.335 107.798 138.27 107.775C134.858 106.55 134.858 106.55 133.899 105.702C133.85 105.568 133.85 105.568 133.921 105.358C133.962 105.276 134.003 105.194 134.045 105.112C134.088 105.023 134.131 104.934 134.173 104.844C134.194 104.8 134.215 104.755 134.237 104.71C134.789 103.501 134.853 102.138 134.726 100.836C135.074 100.606 135.424 100.401 135.802 100.224C135.853 100.2 135.904 100.176 135.957 100.151C136.778 99.7759 137.637 99.4811 138.491 99.1886C138.547 99.1693 138.602 99.15 138.66 99.1302C138.708 99.1139 138.756 99.0975 138.805 99.0807C138.996 98.9998 139.098 98.893 139.212 98.7233C139.326 98.4383 139.298 98.1594 139.217 97.8678C139.06 97.5804 138.905 97.4324 138.606 97.3008C138.406 97.2915 138.216 97.3214 138.019 97.3552C137.962 97.3644 137.906 97.3735 137.848 97.383C136.71 97.5861 135.64 98.0885 134.642 98.6575C134.42 98.7769 134.42 98.7769 134.227 98.8056C134.201 98.758 134.201 98.758 134.174 98.7094C133.654 97.777 133.114 96.8949 132.296 96.1935C132.179 96.0848 132.179 96.0848 132.086 95.9013C132.129 95.895 132.171 95.8887 132.215 95.8822C132.226 95.842 132.238 95.8017 132.25 95.7603C132.308 95.5998 132.378 95.4843 132.477 95.3453C132.511 95.2966 132.545 95.2479 132.581 95.1978C132.635 95.1212 132.635 95.1212 132.691 95.0431C132.765 94.9375 132.839 94.8318 132.913 94.726C132.967 94.65 132.967 94.65 133.021 94.5725C133.137 94.406 133.246 94.2363 133.355 94.0651C133.51 93.8256 133.68 93.6111 133.868 93.3972C133.993 93.2529 134.113 93.1051 134.232 92.9561C136.39 90.2608 139.298 87.8524 142.643 86.8387C142.718 86.8151 142.794 86.7914 142.872 86.767C143.263 86.6604 143.666 86.6064 144.066 86.5453Z" fill="#F4A99C"/>
<path d="M132.361 107.499C132.569 107.5 132.706 107.555 132.885 107.658C132.934 107.685 132.983 107.713 133.033 107.742C133.085 107.772 133.137 107.801 133.191 107.832C133.301 107.895 133.412 107.957 133.522 108.019C133.577 108.05 133.632 108.08 133.688 108.112C135.405 109.068 137.24 109.76 139.1 110.379C139.183 110.407 139.183 110.407 139.268 110.435C139.944 110.66 140.625 110.831 141.322 110.978C141.439 111.002 141.439 111.002 141.559 111.028C141.915 111.101 142.268 111.168 142.629 111.213C143.429 111.319 143.832 111.526 144.34 112.154C144.531 112.385 144.74 112.601 144.945 112.82C145.031 112.913 145.118 113.007 145.204 113.101C145.84 113.787 146.503 114.446 147.163 115.109C147.447 115.394 147.729 115.68 148.009 115.969C148.042 116.002 148.075 116.036 148.109 116.071C148.33 116.3 148.33 116.3 148.34 116.372C147.813 116.419 147.287 116.438 146.758 116.45C145.459 116.484 144.15 116.521 142.861 116.696C142.803 116.703 142.744 116.71 142.684 116.718C142.245 116.784 141.925 116.926 141.648 117.283C141.551 117.431 141.462 117.58 141.375 117.734C141.348 117.782 141.321 117.829 141.293 117.878C141.212 118.022 141.133 118.167 141.054 118.312C140.81 118.758 140.56 119.199 140.303 119.638C140.147 119.904 139.993 120.171 139.841 120.439C139.376 121.259 139.376 121.259 139.179 121.545C139.137 121.551 139.094 121.558 139.051 121.564C137.704 119.572 136.486 117.509 135.31 115.412C135.272 115.343 135.272 115.343 135.232 115.273C134.481 113.934 133.746 112.586 133.014 111.237C132.976 111.166 132.937 111.096 132.898 111.023C132.418 110.139 131.95 109.25 131.501 108.35C131.658 108.132 131.811 107.968 132.023 107.8C132.206 107.664 132.206 107.664 132.361 107.499Z" fill="#F4A99C"/>
<path d="M123.806 108.784C124.02 108.832 124.216 108.922 124.416 109.011C124.479 109.039 124.479 109.039 124.544 109.067C124.648 109.113 124.752 109.159 124.855 109.205C124.833 109.797 124.718 110.371 124.609 110.951C124.598 111.007 124.588 111.063 124.577 111.121C122.859 120.337 122.859 120.337 121.497 124.235C121.454 124.241 121.412 124.248 121.368 124.254C121.25 124.151 121.139 124.046 121.029 123.935C120.959 123.866 120.889 123.797 120.82 123.729C120.784 123.693 120.747 123.657 120.71 123.621C120.536 123.45 120.358 123.283 120.18 123.115C119.915 122.866 119.652 122.615 119.39 122.361C119.294 122.269 119.198 122.176 119.103 122.084C119.022 122.006 118.941 121.927 118.86 121.849C118.717 121.711 118.574 121.573 118.43 121.435C118.363 121.37 118.363 121.37 118.294 121.303C117.784 120.807 117.784 120.807 117.135 120.543C116.938 120.55 116.761 120.567 116.568 120.598C116.509 120.607 116.45 120.616 116.39 120.626C114.903 120.877 113.424 121.29 111.978 121.711C111.703 121.791 111.439 121.858 111.154 121.89C111.206 121.576 111.349 121.336 111.513 121.069C111.851 120.504 112.154 119.924 112.452 119.337C112.521 119.203 112.59 119.069 112.659 118.935C112.876 118.514 113.089 118.091 113.301 117.667C113.362 117.544 113.423 117.421 113.485 117.298C113.623 117.023 113.76 116.748 113.889 116.468C113.911 116.423 113.933 116.377 113.955 116.33C114.012 116.21 114.068 116.09 114.124 115.969C114.293 115.724 114.481 115.629 114.744 115.506C114.87 115.442 114.996 115.378 115.121 115.314C115.191 115.279 115.261 115.244 115.333 115.207C118.299 113.699 121.537 111.535 123.58 108.868C123.676 108.788 123.676 108.788 123.806 108.784Z" fill="#F4A99C"/>
<path d="M129.756 97.0361C130.966 97.73 131.74 98.8068 132.247 100.086C132.267 100.134 132.286 100.183 132.307 100.233C132.649 101.314 132.577 102.502 132.238 103.572C132.22 103.634 132.202 103.695 132.183 103.759C131.765 105.034 130.838 106.064 129.658 106.689C128.301 107.371 126.888 107.48 125.442 107.012C124.032 106.521 122.985 105.549 122.319 104.218C121.661 102.753 121.612 101.278 122.127 99.7669C122.278 99.3772 122.475 99.0261 122.7 98.6749C122.727 98.6312 122.754 98.5876 122.782 98.5426C124.287 96.3029 127.476 95.7738 129.756 97.0361Z" fill="#F4A99C"/>
</svg>
