<svg width="180" height="264" viewBox="0 0 180 264" fill="none" xmlns="http://www.w3.org/2000/svg">
<path d="M84.3709 1.06779C88.7506 3.12003 91.1857 7.70198 93.3145 11.8254C93.4119 12.0127 93.5093 12.2 93.6096 12.3929C95.6703 16.4108 97.7102 20.9345 98.5096 25.3903C98.7201 25.4119 98.9307 25.4335 99.1477 25.4557C101.87 25.7986 104.333 26.5927 106.908 27.5166C107.748 27.7984 107.748 27.7984 108.611 27.9878C109.257 27.6405 109.819 27.2885 110.415 26.8694C110.779 26.6261 111.143 26.3837 111.508 26.1423C111.792 25.9544 111.792 25.9544 112.08 25.7628C117.222 22.4108 124.535 18.4813 130.834 19.3294C132.299 19.9462 132.848 20.8018 133.501 22.1874C134.828 25.8427 134.082 30.5554 133.63 34.3193C133.594 34.6245 133.559 34.9298 133.522 35.2443C133.354 36.5618 133.165 37.8269 132.771 39.0972C132.447 40.1771 132.21 41.0034 132.277 42.1299C133.109 43.3501 134.126 44.2073 135.249 45.1508C136.054 45.8753 136.707 46.7022 137.364 47.5595C137.494 47.7281 137.624 47.8967 137.757 48.0704C144.535 57.0245 147.745 67.2212 149.793 78.1593C150.653 82.7234 151.577 86.8376 153.923 90.9057C154.17 91.3487 154.415 91.7922 154.66 92.236C155.028 92.902 155.398 93.5674 155.771 94.2312C159.371 100.647 161.268 107.244 161.229 114.626C161.228 114.837 161.228 115.048 161.227 115.265C161.212 118.384 161.103 121.359 160.273 124.385C160.219 124.587 160.164 124.789 160.109 124.997C156.763 137.092 147.444 146.095 136.831 152.165C135.054 153.165 133.255 154.106 131.412 154.978C133.091 156.244 134.771 157.505 136.48 158.73C139.388 160.842 142.087 163.18 144.688 165.657C144.861 165.821 145.034 165.986 145.212 166.156C149.717 170.477 153.613 175.241 156.232 180.953C160.591 176.574 162.683 171.552 163.773 165.535C164.168 163.436 164.606 161.55 166.226 160.047C167.401 159.274 168.085 159.192 169.509 159.307C172.383 160.119 174.197 162.821 175.624 165.278C180.084 173.295 181.155 182.483 178.744 191.343C178.692 191.538 178.639 191.733 178.585 191.934C176.796 198.343 173.087 203.802 168.643 208.66C168.427 208.897 168.21 209.134 167.988 209.378C160.709 216.982 148.625 223.827 137.953 224.274C137.408 224.264 136.863 224.255 136.318 224.245C136.338 224.509 136.358 224.773 136.379 225.045C136.565 227.623 136.656 230.186 136.665 232.772C136.666 232.961 136.667 233.151 136.668 233.346C136.672 234.348 136.675 235.35 136.676 236.353C136.677 237.166 136.681 237.978 136.688 238.791C136.749 246.563 136.749 246.563 136.241 250.055C136.21 250.273 136.179 250.492 136.147 250.717C135.591 253.957 133.841 257.142 131.292 259.237C125.279 263.333 117.612 264.164 110.541 262.866C105.956 261.76 101.852 259.527 99.3033 255.452C97.3734 252.007 96.7184 248.669 96.7779 244.737C96.4772 244.787 96.4772 244.787 96.1705 244.838C95.2428 244.992 94.3147 245.144 93.3867 245.296C93.0715 245.349 92.7564 245.402 92.4318 245.456C88.6375 246.073 84.9199 246.234 81.0834 246.234C80.3173 246.234 79.5513 246.239 78.7852 246.245C73.8202 246.261 69.0235 245.742 64.1645 244.737C64.1604 245.02 64.1563 245.303 64.1521 245.595C64.0136 250.333 62.6327 254.835 59.3482 258.392C54.2429 263.124 47.4649 263.479 40.88 263.266C38.8323 263.143 36.9535 262.704 35.0145 262.054C34.6997 261.949 34.385 261.845 34.0607 261.737C30.1774 260.28 26.9786 257.669 25.2196 253.885C23.7576 250.176 23.7133 246.284 23.7202 242.348C23.7199 241.988 23.7196 241.629 23.7193 241.258C23.7191 240.499 23.7197 239.739 23.7209 238.98C23.7224 237.848 23.7209 236.717 23.719 235.585C23.7179 231.841 23.7599 228.1 23.8848 224.357C23.8956 224.025 23.9065 223.692 23.9177 223.35C24.2188 215.218 25.5861 207.099 27.2219 199.136C27.0724 199.194 26.9229 199.252 26.7689 199.312C21.3039 201.424 16.444 202.776 10.7506 200.516C7.36508 198.957 4.6685 196.55 3.19474 193.095C1.5829 188.517 2.41322 184.327 4.37625 180.053C6.8726 174.918 10.5442 170.566 14.5228 166.523C14.8057 166.229 15.0883 165.935 15.3707 165.641C16.8508 164.123 18.3851 162.736 20.0437 161.417C20.6273 160.947 21.1983 160.474 21.7641 159.985C23.7208 158.292 25.7317 156.742 27.8566 155.266C28.6588 154.727 28.6588 154.727 29.2422 154.112C29.0592 154.019 28.8763 153.927 28.6878 153.831C21.8779 150.363 21.8779 150.363 19.1407 148.34C18.8378 148.119 18.535 147.897 18.223 147.669C15.9911 146.01 13.9371 144.196 11.9253 142.279C11.6824 142.055 11.4394 141.83 11.1891 141.599C4.24978 134.992 0.366446 126.074 0.0109655 116.547C-0.213834 106.353 3.03542 97.889 8.13063 89.1657C10.6829 84.6723 11.469 79.5558 12.4943 74.5554C13.7891 68.2749 15.4349 62.1933 18.5634 56.5606C18.7973 56.1209 18.7973 56.1209 19.0358 55.6722C20.896 52.3032 23.3295 49.2769 25.8149 46.3509C25.9562 46.1837 26.0975 46.0166 26.2431 45.8443C26.9184 45.0622 27.5973 44.3421 28.3899 43.6778C29.8763 42.4761 29.8763 42.4761 30.4767 40.7545C30.323 39.7472 30.0753 38.7871 29.8194 37.8007C28.7704 32.3997 27.4004 24.4253 30.3605 19.4196C31.3766 18.3139 32.0094 17.9398 33.5173 17.742C35.6305 17.816 37.6583 18.6256 39.6323 19.3294C39.9076 19.4269 40.1829 19.5244 40.4666 19.6248C42.4831 20.409 44.4011 21.4099 46.3245 22.3959C46.6153 22.5432 46.9062 22.6905 47.2058 22.8422C48.5662 23.5496 49.8188 24.2557 50.9998 25.2381C53.0011 26.9358 53.0011 26.9358 55.5051 27.3521C57.4138 26.9787 59.2019 26.3318 61.02 25.6547C62.2477 25.2662 63.4599 25.1521 64.7417 25.1017C64.7756 24.8936 64.8096 24.6854 64.8445 24.471C65.0358 23.6345 65.3147 22.9735 65.6944 22.2054C65.8318 21.9271 65.9693 21.6488 66.1109 21.3621C66.2603 21.0663 66.4097 20.7706 66.5636 20.4658C66.7185 20.1585 66.8735 19.8512 67.0331 19.5346C77.6959 -1.34297 77.6959 -1.34297 84.3709 1.06779Z" fill="#ECECEB"/>
<path d="M144 69.2112C144 87.6246 116.725 56.2232 81.4476 56.2232C46.1703 56.2232 17 87.6246 17 69.2112C17 50.7979 46.1703 27 81.4476 27C116.725 27 144 50.7979 144 69.2112Z" fill="#AADCE7"/>
<path d="M84.3709 1.06779C88.7506 3.12003 91.1857 7.70198 93.3145 11.8254C93.4119 12.0127 93.5093 12.2 93.6096 12.3929C95.6703 16.4108 97.7102 20.9345 98.5096 25.3903C98.7201 25.4119 98.9307 25.4335 99.1477 25.4557C101.87 25.7986 104.333 26.5927 106.908 27.5166C107.748 27.7984 107.748 27.7984 108.611 27.9878C109.257 27.6405 109.819 27.2885 110.415 26.8694C110.779 26.6261 111.143 26.3837 111.508 26.1423C111.792 25.9544 111.792 25.9544 112.08 25.7628C117.222 22.4108 124.535 18.4813 130.834 19.3294C132.299 19.9462 132.848 20.8018 133.501 22.1874C134.828 25.8427 134.082 30.5554 133.63 34.3193C133.594 34.6245 133.559 34.9298 133.522 35.2443C133.354 36.5618 133.165 37.8269 132.771 39.0972C132.447 40.1771 132.21 41.0034 132.277 42.1299C133.109 43.3501 134.126 44.2073 135.249 45.1508C136.054 45.8753 136.707 46.7022 137.364 47.5595C137.494 47.7281 137.624 47.8967 137.757 48.0704C144.535 57.0245 147.745 67.2212 149.793 78.1593C150.653 82.7234 151.577 86.8376 153.923 90.9057C154.17 91.3487 154.415 91.7922 154.66 92.236C155.028 92.902 155.398 93.5674 155.771 94.2312C159.371 100.647 161.268 107.244 161.229 114.626C161.228 114.837 161.228 115.048 161.227 115.265C161.212 118.384 161.103 121.359 160.273 124.385C160.219 124.587 160.164 124.789 160.109 124.997C156.763 137.092 147.444 146.095 136.831 152.165C135.054 153.165 133.255 154.106 131.412 154.978C133.091 156.244 134.771 157.505 136.48 158.73C139.388 160.842 142.087 163.18 144.688 165.657C144.861 165.821 145.034 165.986 145.212 166.156C149.717 170.477 153.613 175.241 156.232 180.953C160.591 176.574 162.683 171.552 163.773 165.535C164.168 163.436 164.606 161.55 166.226 160.047C167.401 159.274 168.085 159.192 169.509 159.307C172.383 160.119 174.197 162.821 175.624 165.278C180.084 173.295 181.155 182.483 178.744 191.343C178.692 191.538 178.639 191.733 178.585 191.934C176.796 198.343 173.087 203.802 168.643 208.66C168.427 208.897 168.21 209.134 167.988 209.378C160.709 216.982 148.625 223.827 137.953 224.274C137.408 224.264 136.863 224.255 136.318 224.245C136.338 224.509 136.358 224.773 136.379 225.045C136.565 227.623 136.656 230.186 136.665 232.772C136.666 232.961 136.667 233.151 136.668 233.346C136.672 234.348 136.675 235.35 136.676 236.353C136.677 237.166 136.681 237.978 136.688 238.791C136.749 246.563 136.749 246.563 136.241 250.055C136.21 250.273 136.179 250.492 136.147 250.717C135.591 253.957 133.841 257.142 131.292 259.237C125.279 263.333 117.612 264.164 110.541 262.866C105.956 261.76 101.852 259.527 99.3033 255.452C97.3734 252.007 96.7184 248.669 96.7779 244.737C96.4772 244.787 96.4772 244.787 96.1705 244.838C95.2428 244.992 94.3147 245.144 93.3867 245.296C93.0715 245.349 92.7564 245.402 92.4318 245.456C88.6375 246.073 84.9199 246.234 81.0834 246.234C80.3173 246.234 79.5513 246.239 78.7852 246.245C73.8202 246.261 69.0235 245.742 64.1645 244.737C64.1604 245.02 64.1563 245.303 64.1521 245.595C64.0136 250.333 62.6327 254.835 59.3482 258.392C54.2429 263.124 47.4649 263.479 40.88 263.266C38.8323 263.143 36.9535 262.704 35.0145 262.054C34.6997 261.949 34.385 261.845 34.0607 261.737C30.1774 260.28 26.9786 257.669 25.2196 253.885C23.7576 250.176 23.7133 246.284 23.7202 242.348C23.7199 241.988 23.7196 241.629 23.7193 241.258C23.7191 240.499 23.7197 239.739 23.7209 238.98C23.7224 237.848 23.7209 236.717 23.719 235.585C23.7179 231.841 23.7599 228.1 23.8848 224.357C23.8956 224.025 23.9065 223.692 23.9177 223.35C24.2188 215.218 25.5861 207.099 27.2219 199.136C27.0724 199.194 26.9229 199.252 26.7689 199.312C21.3039 201.424 16.444 202.776 10.7506 200.516C7.36508 198.957 4.6685 196.55 3.19474 193.095C1.5829 188.517 2.41322 184.327 4.37625 180.053C6.8726 174.918 10.5442 170.566 14.5228 166.523C14.8057 166.229 15.0883 165.935 15.3707 165.641C16.8508 164.123 18.3851 162.736 20.0437 161.417C20.6273 160.947 21.1983 160.474 21.7641 159.985C23.7208 158.292 25.7317 156.742 27.8566 155.266C28.6588 154.727 28.6588 154.727 29.2422 154.112C29.0592 154.019 28.8763 153.927 28.6878 153.831C21.8779 150.363 21.8779 150.363 19.1407 148.34C18.8378 148.119 18.535 147.897 18.223 147.669C15.9911 146.01 13.9371 144.196 11.9253 142.279C11.6824 142.055 11.4394 141.83 11.1891 141.599C4.24978 134.992 0.366446 126.074 0.0109655 116.547C-0.213834 106.353 3.03542 97.889 8.13063 89.1657C10.6829 84.6723 11.469 79.5558 12.4943 74.5554C13.7891 68.2749 15.4349 62.1933 18.5634 56.5606C18.7973 56.1209 18.7973 56.1209 19.0358 55.6722C20.896 52.3032 23.3295 49.2769 25.8149 46.3509C25.9562 46.1837 26.0975 46.0166 26.2431 45.8443C26.9184 45.0622 27.5973 44.3421 28.3899 43.6778C29.8763 42.4761 29.8763 42.4761 30.4767 40.7545C30.323 39.7472 30.0753 38.7871 29.8194 37.8007C28.7704 32.3997 27.4004 24.4253 30.3605 19.4196C31.3766 18.3139 32.0094 17.9398 33.5173 17.742C35.6305 17.816 37.6583 18.6256 39.6323 19.3294C39.9076 19.4269 40.1829 19.5244 40.4666 19.6248C42.4831 20.409 44.4011 21.4099 46.3245 22.3959C46.6153 22.5432 46.9062 22.6905 47.2058 22.8422C48.5662 23.5496 49.8188 24.2557 50.9998 25.2381C53.0011 26.9358 53.0011 26.9358 55.5051 27.3521C57.4138 26.9787 59.2019 26.3318 61.02 25.6547C62.2477 25.2662 63.4599 25.1521 64.7417 25.1017C64.7756 24.8936 64.8096 24.6854 64.8445 24.471C65.0358 23.6345 65.3147 22.9735 65.6944 22.2054C65.8318 21.9271 65.9693 21.6488 66.1109 21.3621C66.2603 21.0663 66.4097 20.7706 66.5636 20.4658C66.7185 20.1585 66.8735 19.8512 67.0331 19.5346C77.6959 -1.34297 77.6959 -1.34297 84.3709 1.06779ZM69.2021 30.5624C67.7691 31.1927 66.2248 31.5241 64.7139 31.9222C56.6666 34.0601 49.0996 37.3817 42.2298 42.1299C42.0654 42.2421 41.9009 42.3543 41.7315 42.4698C39.3228 44.1172 37.0587 45.8938 34.8644 47.8167C34.4658 48.1658 34.0644 48.5116 33.6627 48.8571C30.3778 51.732 27.835 54.9245 25.4902 58.5809C25.3822 58.7487 25.2743 58.9164 25.1631 59.0892C21.4962 64.8849 19.9704 71.3735 18.5713 78.0038C18.5215 78.2386 18.4717 78.4734 18.4204 78.7153C18.1726 79.884 17.9283 81.0532 17.6914 82.2241C16.9404 85.868 15.7968 89.1671 13.9997 92.439C13.7458 92.9131 13.4921 93.3873 13.2387 93.8617C13.0521 94.2093 13.0521 94.2093 12.8618 94.5638C8.235 103.207 4.62237 112.832 7.52283 122.709C7.6411 123.076 7.76172 123.442 7.88472 123.808C7.94504 123.991 8.00536 124.174 8.0675 124.362C11.6365 134.866 20.7507 142.28 30.4047 147.086C33.285 148.466 36.2672 149.575 39.267 150.665C42.6948 151.924 42.6948 151.924 43.3843 152.958C43.276 154.022 43.276 154.022 43.0956 154.978C42.8422 155.057 42.5888 155.136 42.3277 155.218C31.6978 158.938 21.4682 167.429 14.8115 176.335C14.6852 176.502 14.559 176.668 14.429 176.84C13.0175 178.707 11.7383 180.605 10.6266 182.667C10.5324 182.841 10.4382 183.015 10.3411 183.194C9.16126 185.463 8.58674 187.778 9.20716 190.293C9.98383 192.35 11.5008 193.866 13.4563 194.854C16.5114 195.985 19.4401 195.226 22.3452 193.966C23.629 193.368 24.8605 192.7 26.0756 191.972C26.5888 191.665 27.1112 191.374 27.6345 191.085C30.7822 188.991 31.4087 185.487 32.4498 182.04C32.8926 180.659 33.2192 179.745 34.4372 178.933C35.6963 178.77 36.2548 178.791 37.3053 179.528C38.0596 180.603 37.9872 181.098 37.9006 182.396C37.7291 183.182 37.5422 183.936 37.32 184.706C37.2598 184.923 37.1996 185.14 37.1377 185.363C37.0093 185.825 36.88 186.287 36.7496 186.748C36.4082 187.96 36.0777 189.175 35.7461 190.39C35.681 190.627 35.616 190.865 35.5489 191.11C32.958 200.59 31.5721 210.483 30.6492 220.259C30.6164 220.603 30.6164 220.603 30.5829 220.953C30.1418 225.959 30.0542 230.97 30.0545 235.992C30.0539 237.019 30.0486 238.046 30.0432 239.073C29.7227 246.939 29.7227 246.939 32.7833 253.875C36.1202 256.458 39.8509 256.674 43.9074 256.678C44.2759 256.686 44.6444 256.693 45.0241 256.7C48.5066 256.711 51.9712 256.078 54.6402 253.684C57.514 250.675 57.6793 245.824 58.0672 241.898C58.3551 239.19 58.3551 239.19 59.258 238.099C61.2265 237.115 64.1175 238.085 66.1487 238.496C76.4854 240.477 87.4206 240.565 97.6778 237.943C98.805 237.668 99.9596 237.671 101.107 237.81C102.076 238.472 102.327 239.004 102.55 240.119C102.601 240.62 102.641 241.123 102.674 241.625C103.025 248.484 103.025 248.484 106.681 254.063C109.754 256.496 113.464 256.671 117.233 256.66C117.577 256.665 117.92 256.67 118.274 256.675C122.076 256.677 125.255 256.032 128.038 253.323C130.578 249.185 130.346 244.436 130.311 239.758C130.308 239.183 130.306 238.608 130.303 238.033C130.294 236.419 130.277 234.806 130.257 233.192C130.253 232.829 130.249 232.465 130.245 232.09C130.013 216.545 127.521 200.597 123.457 185.61C122.955 183.716 122.571 182.049 122.753 180.087C123.488 179.202 123.933 178.977 125.062 178.789C126.164 178.972 126.574 179.308 127.371 180.087C127.762 181.021 127.762 181.021 128.064 182.119C128.182 182.522 128.301 182.925 128.421 183.327C128.482 183.535 128.543 183.743 128.605 183.958C129.834 188.404 129.834 188.404 133.024 191.505C133.536 191.758 134.061 191.984 134.586 192.209C134.94 192.397 135.291 192.589 135.64 192.784C138.86 194.554 142.161 195.803 145.851 194.876C147.923 194.171 149.285 193.428 150.406 191.506C151.526 189.08 151.333 186.728 150.442 184.254C148.365 179.42 145.124 175.481 141.513 171.718C141.344 171.539 141.175 171.361 141.001 171.177C135.22 165.099 128.48 160.823 121.07 156.995C120.735 156.82 120.4 156.645 120.055 156.465C119.604 156.233 119.604 156.233 119.144 155.996C118.424 155.555 118.424 155.555 117.847 154.689C117.738 153.824 117.738 153.824 117.847 152.958C118.854 151.907 120.26 151.685 121.617 151.316C133.892 147.789 145.23 140.11 151.539 128.829C152.588 126.856 153.314 124.798 153.923 122.653C154.021 122.311 154.119 121.969 154.22 121.616C156.655 111.472 152.691 101.954 147.665 93.3229C147.538 93.1017 147.411 92.8806 147.28 92.6528C147.044 92.2448 146.805 91.839 146.56 91.4365C144.087 87.1664 143.518 82.0121 142.674 77.2355C140.852 66.9935 137.272 58.0562 129.969 50.4997C129.737 50.2538 129.506 50.0079 129.268 49.7545C127.353 47.7638 125.252 46.0848 123.042 44.4388C122.763 44.23 122.763 44.23 122.479 44.017C114.225 37.8729 104.973 33.6404 94.9442 31.3308C93.3967 30.9612 93.3967 30.9612 92.9048 30.4389C91.9707 29.5568 90.4837 29.6544 89.2559 29.5211C88.7666 29.4666 88.7666 29.4666 88.2674 29.411C85.4517 29.1309 82.6497 29.0566 79.8218 29.0521C79.6176 29.0511 79.4133 29.0501 79.2029 29.049C74.0512 29.0275 74.0512 29.0275 69.2021 30.5624Z" fill="black"/>
<path d="M94.204 169.155C94.892 169.701 95.548 170.265 96.2007 170.852C96.483 171.077 96.7654 171.303 97.0564 171.535C99.7248 173.755 101.547 177.05 103.127 180.088C103.223 180.269 103.319 180.45 103.418 180.637C106.579 186.685 108.35 193.474 108.611 200.291C108.62 200.486 108.63 200.681 108.64 200.883C109.004 209.182 106.812 216.794 101.322 223.135C97.469 227.131 92.5813 229.3 87.2536 230.595C86.8351 230.702 86.8351 230.702 86.4081 230.81C78.995 232.368 70.5548 230.847 64.1645 226.843C63.1454 226.13 62.2052 225.363 61.2784 224.534C61.038 224.321 60.7977 224.108 60.5501 223.888C55.298 218.951 52.5316 211.557 52.2479 204.432C51.9955 193.063 55.6266 180.797 63.5196 172.373C71.7669 163.996 84.3921 162.403 94.204 169.155Z" fill="#F2D3A3"/>
<path d="M94.204 169.155C94.892 169.701 95.548 170.265 96.2007 170.852C96.483 171.077 96.7654 171.303 97.0564 171.535C99.7248 173.755 101.547 177.05 103.127 180.088C103.223 180.269 103.319 180.45 103.418 180.637C106.579 186.685 108.35 193.474 108.611 200.291C108.62 200.486 108.63 200.681 108.64 200.883C109.004 209.182 106.812 216.794 101.322 223.135C97.469 227.131 92.5813 229.3 87.2536 230.595C86.8351 230.702 86.8351 230.702 86.4081 230.81C78.995 232.368 70.5548 230.847 64.1645 226.843C63.1454 226.13 62.2052 225.363 61.2784 224.534C61.038 224.321 60.7977 224.108 60.5501 223.888C55.298 218.951 52.5316 211.557 52.2479 204.432C51.9955 193.063 55.6266 180.797 63.5196 172.373C71.7669 163.996 84.3921 162.403 94.204 169.155ZM67.1589 178.103C60.984 186.043 58.0847 196.467 59.0337 206.45C59.71 211.531 61.983 216.589 65.9864 219.889C71.6221 224.008 78.5541 225.418 85.4227 224.357C90.4219 223.396 95.1696 220.801 98.2559 216.704C102.45 210.296 102.907 202.244 101.514 194.857C101.388 194.26 101.251 193.668 101.107 193.075C101.059 192.875 101.011 192.674 100.962 192.467C99.483 186.494 96.8189 180.729 92.4487 176.336C92.2787 176.156 92.1086 175.976 91.9335 175.79C88.6833 172.618 84.3223 171.319 79.8991 171.321C74.7694 171.454 70.4217 174.284 67.1589 178.103Z" fill="black"/>
<path d="M169.797 168.543C169.988 168.543 170.178 168.543 170.374 168.543C170.703 169.444 171.026 170.346 171.349 171.249C171.44 171.5 171.532 171.751 171.626 172.01C174.188 179.216 173.608 187.505 170.41 194.422C169.955 195.343 169.456 196.233 168.931 197.116C168.75 197.423 168.569 197.73 168.382 198.046C162.261 207.748 151.462 214.241 140.461 216.82C140.142 216.89 139.822 216.959 139.493 217.03C139.143 217.116 139.143 217.116 138.786 217.204C137.763 217.364 136.776 217.336 135.741 217.319C135.112 213.984 134.616 210.638 134.151 207.276C133.843 205.086 133.476 202.931 132.975 200.778C132.857 200.015 132.889 199.567 133.143 198.847C133.35 198.942 133.556 199.036 133.769 199.133C136.995 200.547 139.927 201.228 143.443 201.265C143.693 201.269 143.944 201.273 144.201 201.277C148.157 201.248 151.339 199.54 154.201 196.885C156.049 194.892 157.121 192.422 157.549 189.756C158.103 188.407 158.971 187.766 160.067 186.831C165.386 182.2 168.762 175.463 169.797 168.543Z" fill="#3A9592"/>
<path d="M38.1171 97.039C41.2619 99.1549 43.0897 102.236 43.9615 105.914C44.3458 110.217 43.4519 113.702 40.7867 117.17C38.8908 119.347 35.5853 121.288 32.6768 121.555C28.7013 121.697 25.5892 121.414 22.3154 118.901C22.0827 118.746 22.0827 118.746 21.8453 118.587C20.5857 117.66 19.8233 116.51 19.0505 115.168C18.9531 114.999 18.8556 114.83 18.7552 114.656C17.0896 111.629 16.9329 108.031 17.5973 104.674C18.9222 100.739 21.3183 97.9835 24.9851 96.137C29.4033 93.9858 33.974 94.589 38.1171 97.039Z" fill="#F4A99C"/>
<path d="M138.519 97.3422C141.274 99.3134 143.121 102.219 144.025 105.494C144.531 109.679 143.818 113.478 141.224 116.881C138.817 119.53 135.721 121.255 132.121 121.596C128.427 121.636 125.701 120.834 122.753 118.613C122.378 118.363 122.378 118.363 121.996 118.108C119.517 115.76 118.082 112.575 117.778 109.188C117.676 105.268 118.993 101.656 121.671 98.7706C122.862 97.6582 124.194 96.8438 125.639 96.101C125.831 96.002 126.022 95.903 126.219 95.8011C130.136 94.1576 135.077 95.1214 138.519 97.3422Z" fill="#F4A99C"/>
<path d="M62.2077 137.771C62.8522 137.262 63.2728 136.562 63.7299 135.889C66.5096 131.872 71.0788 130.008 75.7396 129.138C82.086 128.044 89.409 128.625 94.8415 132.329C95.4221 132.752 95.9782 133.189 96.5276 133.651C96.6578 133.759 96.788 133.867 96.9221 133.978C97.8738 134.844 98.4708 135.917 99.0978 137.027C99.4667 137.571 99.6409 137.768 100.254 137.967C100.922 138.038 101.336 138.007 101.958 137.746C102.543 137.272 102.757 136.916 102.999 136.201C103.033 134.155 101.685 132.625 100.345 131.199C95.3575 126.13 88.5724 124.108 81.5617 124C74.0196 124.025 67.1175 125.99 61.5704 131.272C60.2377 132.631 58.982 134.209 59.0002 136.187C59.1259 136.92 59.5201 137.265 60.0505 137.771C60.8143 138.026 61.4501 138.023 62.2077 137.771Z" fill="black"/>
<path d="M82.6358 9.5166C86.4969 11.3172 88.6513 18.8922 90.0111 22.6119C90.8924 25.0546 91.774 27.4991 92.4487 30.0082C90.9276 30.0351 89.5204 29.94 88.0112 29.7196C85.3475 29.3836 82.6824 29.3653 80.0022 29.3588C79.7962 29.3574 79.5902 29.3559 79.378 29.3545C76.3801 29.3373 73.4794 29.5708 70.514 30.0082C70.7418 28.7288 71.1858 27.6765 71.7767 26.5268C71.8786 26.3269 71.9804 26.127 72.0854 25.921C72.4243 25.2614 72.7673 24.6042 73.1115 23.9473C73.2285 23.7225 73.3455 23.4977 73.4661 23.2661C74.965 20.4045 76.5786 17.6413 78.3607 14.9462C78.5216 14.7013 78.6826 14.4564 78.8484 14.2041C79.9846 12.5178 81.2514 11.0048 82.6358 9.5166Z" fill="#3A9592"/>
<path d="M119.921 79.5235C121.798 80.5943 122.974 82.2333 123.707 84.2473C124.297 86.8513 124.314 89.891 123.136 92.3251C122.029 94.0618 120.712 95.2159 118.713 95.8121C116.885 96.0152 115.602 95.7309 114.095 94.6577C112.175 92.9218 111.137 90.8456 110.851 88.2631C110.765 85.5542 111.424 83.1623 113.193 81.0748C115.139 79.0961 117.3 78.3606 119.921 79.5235Z" fill="black"/>
<path d="M47.1937 79.3183C49.2882 80.4912 50.6684 82.4175 51.3302 84.7062C51.9035 87.7402 51.4077 90.5533 49.8059 93.1786C48.9956 94.2925 48.2067 95.1534 46.8476 95.5236C44.7904 95.7972 42.9714 95.803 41.2625 94.5303C39.1532 92.536 38.505 90.2328 38.3876 87.3882C38.4144 84.9271 39.286 82.273 41.0754 80.5156C42.9118 79.0836 44.9514 78.4501 47.1937 79.3183Z" fill="black"/>
<path d="M127.371 26.5449C127.519 29.1832 127.308 31.6315 126.83 34.2293C126.78 34.5028 126.73 34.7763 126.678 35.0581C126.434 36.3162 126.186 37.4984 125.639 38.6667C123.633 37.407 121.652 36.115 119.692 34.7858C118.527 34.002 117.341 33.2895 116.115 32.6058C117.116 31.4776 118.269 30.7903 119.56 30.0444C119.885 29.8552 119.885 29.8552 120.216 29.6623C125.641 26.5449 125.641 26.5449 127.371 26.5449Z" fill="#3A9592"/>
<path d="M36.1689 25.9673C37.9339 26.5032 39.5446 27.1637 41.1656 28.0417C41.4803 28.2099 41.4803 28.2099 41.8013 28.3815C43.6582 29.3901 45.4104 30.5192 47.1363 31.7396C46.0049 32.7078 44.8312 33.4021 43.5286 34.1026C41.6029 35.1567 39.814 36.3233 38.0382 37.6122C37.3234 38.0891 37.3234 38.0891 36.7462 38.0891C35.9922 34.0703 36.1112 30.0407 36.1689 25.9673Z" fill="#3A9592"/>
<path d="M67.9165 104.182C69.535 104.924 70.8027 105.898 71.4982 107.564C71.8302 108.848 71.8773 110.089 71.6684 111.397C71.1486 112.264 70.8305 112.682 69.9368 113.129C68.4723 113.369 67.3371 113.269 66.0946 112.426C64.7383 111.275 64.072 109.922 63.7676 108.181C63.6781 106.718 64.1109 105.863 65.0303 104.759C66.1399 104.02 66.5952 104.012 67.9165 104.182Z" fill="black"/>
<path d="M96.4893 104.182C97.3344 104.706 98.0582 105.299 98.5096 106.202C98.7376 108.137 98.6374 109.608 97.4803 111.208C96.3328 112.533 95.3885 113.078 93.6392 113.219C92.6993 113.209 92.4429 113.125 91.6009 112.606C90.6263 111.572 90.6161 110.561 90.6381 109.205C90.8596 107.257 91.9314 106.001 93.4059 104.796C94.4048 104.126 95.3205 104.044 96.4893 104.182Z" fill="black"/>
<path d="M54.9209 55.2032C55.3192 55.4023 55.6486 55.6352 55.853 56.0371C56.0709 56.712 56.0532 57.4824 55.7553 58.1299C55.3986 58.7404 54.9189 59.2642 54.4426 59.7865C54.3047 59.9384 54.1691 60.0923 54.0338 60.2464C52.2616 62.2307 49.9118 63.4386 47.4052 64.2903C47.3183 64.3213 47.2315 64.3523 47.142 64.3842C45.6357 64.8815 43.3259 65.314 41.8131 64.6919C41.4383 64.4713 41.2818 64.1912 41.1056 63.8106C40.9717 63.2409 40.9312 62.7759 41.1892 62.239C41.8444 61.5295 42.6232 61.4525 43.5483 61.3111C46.5768 60.813 49.5605 59.9001 51.5128 57.423C51.8058 57.0175 52.0615 56.6 52.3098 56.1669C52.9129 55.1172 53.735 54.7216 54.9209 55.2032Z" fill="black"/>
<path d="M108.301 55.1241C108.997 55.5251 109.416 56.0837 109.864 56.7302C111.501 59.0691 114.065 60.5566 116.883 61.0813C117.427 61.1699 117.972 61.2533 118.518 61.3262C119.309 61.4384 120.14 61.5709 120.722 62.1454C121.007 62.6211 121.036 63.061 120.971 63.6C120.814 64.0658 120.607 64.4719 120.154 64.7082C118.889 65.2297 117.136 64.9616 115.861 64.6075C115.778 64.5842 115.694 64.5609 115.607 64.5369C114.28 64.1597 113.015 63.6917 111.774 63.0962C111.669 63.0468 111.564 62.9973 111.457 62.9463C109.304 61.861 106.895 59.7109 106.05 57.4543C105.955 56.8931 105.976 56.395 106.274 55.899C106.761 55.2357 107.454 54.7647 108.301 55.1241Z" fill="black"/>
<path d="M28.273 24.3119C28.3289 24.3351 28.3848 24.3582 28.4424 24.3821C29.8037 24.9504 31.0884 25.6542 32.3458 26.4227C32.3927 26.4511 32.4395 26.4795 32.4878 26.5088C33.0339 26.8408 33.5601 27.1886 34.0677 27.5775C34.272 27.7367 34.272 27.7367 34.506 27.8427C34.5127 27.8877 34.5193 27.9326 34.5262 27.9789C34.5692 27.991 34.6122 28.0032 34.6565 28.0156C35.0914 28.1739 35.4538 28.5489 35.7986 28.8486C35.9223 28.9567 35.9223 28.9567 36.0565 29.0474C36.1589 29.1291 36.1589 29.1291 36.1792 29.2653C36.2358 29.2207 36.2925 29.1762 36.3508 29.1302C38.052 27.8159 40.2 27.2313 42.3428 27.4897C42.9784 27.5768 43.575 27.7085 44.1721 27.9464C44.3402 28.0029 44.3402 28.0029 44.4643 27.9186C44.6211 27.786 44.7319 27.6437 44.8538 27.4783C44.9017 27.4136 44.9496 27.3488 44.999 27.2821C45.0485 27.2144 45.0979 27.1467 45.1489 27.0769C45.1984 27.01 45.248 26.9431 45.2991 26.8742C45.5233 26.5696 45.7311 26.2677 45.92 25.9399C45.9915 25.85 46.0655 25.762 46.142 25.6764C46.3102 25.4835 46.4657 25.2877 46.6148 25.0797C46.8383 24.774 47.086 24.4977 47.3433 24.2201C47.5137 24.0353 47.6788 23.8466 47.844 23.6571C50.858 20.2849 55.1932 17.2102 59.8175 16.8457C61.3883 16.7706 62.963 17.3165 64.1548 18.3342C66.5739 20.5876 67.5919 24.0293 68.376 27.1327C68.3893 27.1829 68.4026 27.2332 68.4163 27.2849C68.5549 27.8259 68.6409 28.3723 68.7232 28.9243C68.7385 29.0258 68.7538 29.1274 68.7691 29.229C68.801 29.4415 68.8327 29.654 68.8642 29.8666C68.896 30.0807 68.9282 30.2947 68.9609 30.5086C69.1605 31.8146 69.3288 33.1105 69.3896 34.4318C69.3921 34.4844 69.3946 34.5369 69.3972 34.5911C69.4107 34.8845 69.4184 35.1776 69.422 35.4713C69.4231 35.5573 69.4243 35.6433 69.4254 35.7318C69.4306 36.609 69.3683 37.476 69.2745 38.3477C69.2686 38.4051 69.2627 38.4626 69.2566 38.5218C69.0831 40.1512 68.6012 41.7402 67.6836 43.1092C67.6463 43.1652 67.609 43.2211 67.5706 43.2788C66.7326 44.4709 65.37 45.3213 63.9475 45.6131C63.3594 45.7151 62.768 45.797 62.1764 45.8759C62.3303 46.0345 62.4844 46.1929 62.6385 46.3512C62.6865 46.4005 62.7345 46.4498 62.7839 46.5006C63.0786 46.8029 63.3754 47.1028 63.6742 47.401C66.5221 50.2451 66.5221 50.2451 66.5402 51.355C66.4955 51.8916 66.3466 52.3557 65.983 52.7605C64.889 53.6339 63.1846 53.4768 61.8654 53.5152C61.6962 53.5207 61.527 53.5263 61.3577 53.5319C60.8161 53.5497 60.2745 53.5672 59.7328 53.579C59.0345 53.5735 59.0345 53.5735 58.4053 53.8228C58.2942 53.9667 58.2142 54.1118 58.1314 54.2738C58.0674 54.3862 58.0033 54.4986 57.9392 54.6109C57.8676 54.7375 57.7977 54.8649 57.7282 54.9926C57.3279 55.7272 56.9073 56.4514 56.472 57.1657C56.4459 57.2088 56.4199 57.2518 56.3931 57.2961C55.3431 59.0269 55.3431 59.0269 54.4314 59.3097C53.832 59.4358 53.3208 59.3045 52.7904 59.0074C52.5116 58.7954 52.3226 58.5016 52.1243 58.217C52.0934 58.1726 52.0624 58.1282 52.0305 58.0825C51.6837 57.5812 51.3587 57.067 51.037 56.5494C51.0045 56.4971 50.9719 56.4448 50.9384 56.391C49.4939 54.0691 48.1267 51.7053 46.8146 49.3064C46.6331 48.9746 46.4502 48.6437 46.267 48.3128C45.6502 47.1973 45.0522 46.0727 44.4668 44.9404C44.4177 44.8457 44.4177 44.8457 44.3676 44.7491C44.2754 44.5709 44.1836 44.3926 44.0919 44.2141C44.0504 44.134 44.0504 44.134 44.0081 44.0523C43.9045 43.8494 43.8185 43.6802 43.7849 43.4533C43.7177 43.4746 43.6505 43.496 43.5813 43.5179C43.3331 43.588 43.0954 43.6332 42.8404 43.6699C42.7528 43.6827 42.6651 43.6955 42.5749 43.7086C42.4836 43.7216 42.3924 43.7345 42.3012 43.7475C42.2081 43.7609 42.1151 43.7744 42.022 43.788C41.7956 43.8208 41.5691 43.8532 41.3426 43.8854C41.3357 43.9248 41.3288 43.9641 41.3216 44.0047C40.4216 49.1162 39.369 54.232 37.9338 59.2233C37.8748 59.4297 37.8176 59.6364 37.7606 59.8433C37.5221 60.6924 37.2886 61.401 36.4927 61.8713C36.0146 62.1136 35.4513 62.1407 34.9404 61.9943C34.1501 61.6687 33.5125 61.0142 32.8874 60.4482C32.8387 60.4042 32.79 60.3602 32.7399 60.3148C32.2508 59.8711 31.7713 59.4179 31.2946 58.961C31.2142 58.884 31.1338 58.8071 31.0533 58.7303C30.9779 58.6584 30.9028 58.5864 30.8279 58.5141C30.7275 58.4184 30.6248 58.3252 30.5221 58.232C30.4378 58.1445 30.4378 58.1445 30.3517 58.0552C29.7928 57.7684 28.917 58.157 28.3433 58.3138C28.2516 58.3384 28.1599 58.363 28.0682 58.3874C27.6835 58.4902 27.2991 58.594 26.9148 58.6983C25.0434 59.2058 25.0434 59.2058 24.2374 59.3281C24.1586 59.3402 24.1586 59.3402 24.0782 59.3526C23.4915 59.4298 22.9806 59.3149 22.4887 58.989C21.9787 58.5539 21.7858 58.0443 21.7255 57.3852C21.6795 56.3435 22.4538 55.2419 22.914 54.3483C22.9456 54.2865 22.9773 54.2246 23.0099 54.1608C23.4568 53.2872 23.9177 52.4209 24.3792 51.5549C24.329 51.5613 24.2789 51.5677 24.2272 51.5744C21.8942 51.8679 20.1174 51.7289 18.1908 50.3003C16.5826 49.0295 15.5247 46.9524 14.8779 45.0445C14.8226 44.8819 14.7648 44.7202 14.707 44.5585C12.8278 39.1957 11.6743 31.6284 14.1611 26.317C14.9007 24.8944 15.9183 23.9018 17.3982 23.2802C17.4594 23.254 17.5207 23.2277 17.5838 23.2007C20.8603 21.9793 25.1655 23.0115 28.273 24.3119Z" fill="black"/>
<path d="M19.3919 25.338C19.438 25.3312 19.4841 25.3245 19.5316 25.3175C24.5341 24.5904 29.3407 27.0258 33.2523 29.9367C33.5656 30.1724 33.8686 30.4171 34.1609 30.6784C34.2215 30.732 34.2215 30.732 34.2833 30.7867C34.3767 30.8696 34.4695 30.953 34.5622 31.0366C34.4894 31.3072 34.3563 31.5231 34.2131 31.7628C33.6863 32.6821 33.4203 33.6804 33.2284 34.7156C32.9134 34.673 32.5997 34.6286 32.2877 34.5672C31.2139 34.3569 30.1224 34.2442 29.0332 34.3896C28.9742 34.3967 28.9153 34.4039 28.8546 34.4113C28.5725 34.4567 28.3833 34.5073 28.1837 34.7185C27.9433 35.0666 27.9219 35.276 27.9941 35.6841C28.075 35.9923 28.2157 36.1607 28.482 36.3286C28.8268 36.4831 29.1929 36.4434 29.5629 36.4344C30.2344 36.4281 30.8991 36.4454 31.569 36.4935C31.6453 36.4987 31.7216 36.5039 31.8002 36.5092C32.3128 36.548 32.8126 36.6234 33.3172 36.7214C33.3274 36.7834 33.3376 36.8453 33.3481 36.9091C33.6349 38.4491 34.3678 40.21 35.5761 41.2643C35.68 41.3835 35.68 41.3835 35.7047 41.5131C35.6223 41.7539 35.4538 41.9153 35.2809 42.0955C35.2414 42.1373 35.2019 42.1791 35.1612 42.2221C34.3486 43.0666 33.4548 43.8441 32.532 44.566C32.4831 44.6042 32.4342 44.6425 32.3839 44.6819C29.7413 46.7371 26.7053 48.7046 23.3377 49.2232C23.2385 49.2387 23.1395 49.2549 23.0405 49.2716C21.8669 49.4701 20.8962 49.3216 19.8983 48.6296C16.4384 45.9207 15.9644 40.1355 15.4711 36.0977C15.3857 35.3392 15.3439 34.5828 15.3419 33.8194C15.3409 33.692 15.3409 33.692 15.3399 33.562C15.332 31.396 15.4419 28.8427 16.6194 26.9461C16.6514 26.881 16.6833 26.816 16.7163 26.749C17.3688 25.789 18.3037 25.4975 19.3919 25.338Z" fill="#F4A99C"/>
<path d="M59.2465 19.4191C59.3318 19.405 59.417 19.3909 59.5049 19.3764C60.5278 19.2203 61.3464 19.3468 62.196 19.9425C64.0334 21.3095 64.8829 23.818 65.534 25.9268C65.5737 26.0549 65.5737 26.0549 65.6143 26.1857C66.042 27.6061 66.3155 29.0377 66.5267 30.5051C66.5394 30.5921 66.552 30.6791 66.5651 30.7687C67.0653 34.2141 67.7137 38.7733 65.69 41.8731C64.9602 42.7999 64.0847 43.1839 62.9411 43.3472C62.8941 43.354 62.847 43.3608 62.7985 43.3679C59.6001 43.8262 56.3194 43.0358 53.3117 41.9696C53.245 41.946 53.1783 41.9224 53.1096 41.8981C49.4964 40.6008 49.4964 40.6008 48.4807 39.7032C48.4289 39.5613 48.4289 39.5613 48.5047 39.339C48.5473 39.2515 48.5911 39.1646 48.6356 39.078C48.681 38.9837 48.7261 38.8891 48.7709 38.7944C48.7932 38.7474 48.8155 38.7004 48.8385 38.6519C49.4238 37.3724 49.4913 35.9292 49.3561 34.5501C49.7248 34.3068 50.0957 34.0898 50.4958 33.9024C50.5499 33.877 50.604 33.8515 50.6597 33.8253C51.5294 33.428 52.4391 33.1159 53.343 32.8061C53.402 32.7857 53.4609 32.7653 53.5216 32.7443C53.5725 32.727 53.6234 32.7097 53.6759 32.6919C53.8775 32.6063 53.9853 32.4932 54.1065 32.3135C54.2273 32.0117 54.1976 31.7164 54.1114 31.4077C53.946 31.1033 53.7817 30.9466 53.4653 30.8073C53.2527 30.7975 53.0521 30.8291 52.8429 30.8649C52.7831 30.8746 52.7234 30.8843 52.6618 30.8943C51.4574 31.1094 50.3245 31.6413 49.2673 32.2438C49.0326 32.3703 49.0326 32.3703 48.8282 32.4006C48.8004 32.3502 48.8004 32.3502 48.7719 32.2988C48.2219 31.3116 47.6497 30.3776 46.7839 29.6349C46.6602 29.5198 46.6602 29.5198 46.5617 29.3255C46.6067 29.3188 46.6516 29.3122 46.6979 29.3053C46.71 29.2627 46.7221 29.2201 46.7345 29.1762C46.7961 29.0062 46.871 28.884 46.9753 28.7368C47.0115 28.6852 47.0477 28.6337 47.0849 28.5806C47.1426 28.4995 47.1426 28.4995 47.2014 28.4169C47.2801 28.305 47.3588 28.193 47.4374 28.0811C47.4939 28.0006 47.4939 28.0006 47.5515 27.9186C47.6738 27.7422 47.7901 27.5625 47.9049 27.3813C48.0689 27.1277 48.2487 26.9006 48.4481 26.6741C48.5803 26.5213 48.7072 26.3648 48.8335 26.207C51.118 23.3532 54.1978 20.8032 57.7392 19.7298C57.8192 19.7048 57.8992 19.6797 57.9816 19.6539C58.3961 19.5411 58.8224 19.4838 59.2465 19.4191Z" fill="#F4A99C"/>
<path d="M46.8526 41.6057C47.0735 41.606 47.2181 41.6643 47.4078 41.7732C47.4596 41.8026 47.5114 41.8319 47.5648 41.8621C47.6199 41.8938 47.6749 41.9255 47.7316 41.9582C47.8485 42.0241 47.9654 42.0899 48.0824 42.1556C48.1404 42.1882 48.1985 42.2208 48.2583 42.2545C50.0757 43.2662 52.0192 43.999 53.9887 44.6543C54.0767 44.6839 54.0767 44.6839 54.1665 44.7141C54.8823 44.9524 55.603 45.1333 56.3412 45.2886C56.4652 45.3149 56.4652 45.3149 56.5918 45.3417C56.9688 45.4195 57.3432 45.4905 57.7252 45.5382C58.5723 45.6497 58.9989 45.8693 59.5368 46.5336C59.7392 46.7786 59.9597 47.007 60.1769 47.2388C60.2685 47.338 60.36 47.4373 60.4515 47.5366C61.1245 48.263 61.8274 48.9612 62.5261 49.6627C62.8264 49.9646 63.1254 50.2676 63.4219 50.5733C63.4566 50.609 63.4913 50.6447 63.5271 50.6814C63.761 50.9237 63.761 50.9237 63.7724 51C63.2137 51.0502 62.6569 51.0704 62.0964 51.0833C60.7211 51.1183 59.3353 51.1584 57.9707 51.3432C57.909 51.3508 57.8473 51.3584 57.7837 51.3662C57.318 51.437 56.9795 51.5864 56.6866 51.9653C56.5835 52.1213 56.4894 52.2797 56.3977 52.4425C56.369 52.4927 56.3403 52.5428 56.3108 52.5944C56.2249 52.747 56.1411 52.9004 56.0577 53.0543C55.7992 53.5263 55.5344 53.9938 55.2621 54.4579C55.0969 54.7397 54.9337 55.0224 54.7726 55.3065C54.2803 56.1743 54.2803 56.1743 54.0724 56.4776C54.0274 56.4842 53.9825 56.4909 53.9362 56.4978C52.5099 54.3889 51.2209 52.2039 49.9758 49.9841C49.9349 49.9112 49.9349 49.9112 49.8931 49.8369C49.0978 48.4189 48.3193 46.9919 47.5443 45.5628C47.5037 45.4882 47.4632 45.4136 47.4214 45.3367C46.9132 44.4006 46.4175 43.4598 45.942 42.5067C46.1085 42.2751 46.2709 42.1014 46.4952 41.9242C46.6888 41.7798 46.6888 41.7798 46.8526 41.6057Z" fill="#F4A99C"/>
<path d="M37.7946 42.9662C38.0212 43.0173 38.2283 43.113 38.4396 43.2072C38.5068 43.2366 38.5068 43.2366 38.5754 43.2666C38.6855 43.3148 38.7953 43.3634 38.9052 43.4122C38.8813 44.0386 38.7598 44.6466 38.6443 45.2611C38.6333 45.3204 38.6222 45.3796 38.6109 45.4407C36.791 55.1986 36.791 55.1986 35.3491 59.3263C35.3041 59.333 35.2591 59.3397 35.2128 59.3466C35.0878 59.2369 34.9708 59.1259 34.8537 59.0082C34.7799 58.9356 34.7062 58.8629 34.6323 58.7903C34.5941 58.7526 34.5558 58.7148 34.5164 58.6758C34.3316 58.4949 34.1432 58.3179 33.9548 58.1408C33.6743 57.8764 33.3954 57.6105 33.1183 57.3425C33.0169 57.2445 32.9155 57.1466 32.8142 57.0486C32.7284 56.9657 32.6427 56.8828 32.557 56.7999C32.4057 56.6536 32.2541 56.5077 32.1025 56.3619C32.0309 56.2925 32.0309 56.2925 31.9579 56.2217C31.418 55.6967 31.418 55.6967 30.7308 55.4167C30.5223 55.4245 30.335 55.4425 30.1303 55.4753C30.068 55.485 30.0057 55.4946 29.9415 55.5045C28.3676 55.7703 26.8016 56.2086 25.27 56.6543C24.9796 56.7385 24.6997 56.8091 24.3982 56.8438C24.4529 56.5111 24.6049 56.2568 24.7781 55.9737C25.1355 55.3754 25.4566 54.7614 25.7727 54.1404C25.8451 53.9983 25.918 53.8564 25.9911 53.7146C26.221 53.2686 26.4469 52.8207 26.6708 52.3716C26.7358 52.2415 26.8009 52.1114 26.8663 51.9814C27.0125 51.6902 27.1571 51.3986 27.2943 51.1029C27.3173 51.0547 27.3403 51.0065 27.364 50.9568C27.4244 50.8298 27.4834 50.7021 27.5422 50.5744C27.7215 50.3146 27.9211 50.2137 28.1988 50.0835C28.3322 50.0162 28.4655 49.9486 28.5987 49.8808C28.6727 49.8434 28.7468 49.806 28.8231 49.7675C31.9633 48.1705 35.3922 45.8789 37.5554 43.0549C37.6561 42.971 37.6561 42.971 37.7946 42.9662Z" fill="#F4A99C"/>
<path d="M44.0944 30.5268C45.3755 31.2615 46.1952 32.4016 46.7318 33.7557C46.7528 33.8072 46.7737 33.8588 46.7953 33.9119C47.158 35.0565 47.0819 36.314 46.7227 37.447C46.7033 37.5123 46.6839 37.5777 46.6639 37.645C46.2219 38.9954 45.2397 40.0856 43.9908 40.7471C42.5538 41.47 41.0575 41.5849 39.5265 41.0897C38.0342 40.5692 36.9253 39.5406 36.2199 38.131C35.523 36.5798 35.4711 35.0183 36.0166 33.4182C36.1761 33.0056 36.3855 32.6339 36.6239 32.262C36.6524 32.2158 36.6809 32.1696 36.7102 32.1219C38.3037 29.7505 41.6799 29.1902 44.0944 30.5268Z" fill="#F4A99C"/>
</svg>
