<svg width="180" height="264" viewBox="0 0 180 264" fill="none" xmlns="http://www.w3.org/2000/svg">
<path d="M84.3709 1.06779C88.7506 3.12003 91.1857 7.70198 93.3145 11.8254C93.4119 12.0127 93.5093 12.2 93.6096 12.3929C95.6703 16.4108 97.7102 20.9345 98.5096 25.3903C98.7201 25.4119 98.9307 25.4335 99.1477 25.4557C101.87 25.7986 104.333 26.5927 106.908 27.5166C107.748 27.7984 107.748 27.7984 108.611 27.9878C109.257 27.6405 109.819 27.2885 110.415 26.8694C110.779 26.6261 111.143 26.3837 111.508 26.1423C111.792 25.9544 111.792 25.9544 112.08 25.7628C117.222 22.4108 124.535 18.4813 130.834 19.3294C132.299 19.9462 132.848 20.8018 133.501 22.1874C134.828 25.8427 134.082 30.5554 133.63 34.3193C133.594 34.6245 133.559 34.9298 133.522 35.2443C133.354 36.5618 133.165 37.8269 132.771 39.0972C132.447 40.1771 132.21 41.0034 132.277 42.1299C133.109 43.3501 134.126 44.2073 135.249 45.1508C136.054 45.8753 136.707 46.7022 137.364 47.5595C137.494 47.7281 137.624 47.8967 137.757 48.0704C144.535 57.0245 147.745 67.2212 149.793 78.1593C150.653 82.7234 151.577 86.8376 153.923 90.9057C154.17 91.3487 154.415 91.7922 154.66 92.236C155.028 92.902 155.398 93.5674 155.771 94.2312C159.371 100.647 161.268 107.244 161.229 114.626C161.228 114.837 161.228 115.048 161.227 115.265C161.212 118.384 161.103 121.359 160.273 124.385C160.219 124.587 160.164 124.789 160.109 124.997C156.763 137.092 147.444 146.095 136.831 152.165C135.054 153.165 133.255 154.106 131.412 154.978C133.091 156.244 134.771 157.505 136.48 158.73C139.388 160.842 142.087 163.18 144.688 165.657C144.861 165.821 145.034 165.986 145.212 166.156C149.717 170.477 153.613 175.241 156.232 180.953C160.591 176.574 162.683 171.552 163.773 165.535C164.168 163.436 164.606 161.55 166.226 160.047C167.401 159.274 168.085 159.192 169.509 159.307C172.383 160.119 174.197 162.821 175.624 165.278C180.084 173.295 181.155 182.483 178.744 191.343C178.692 191.538 178.639 191.733 178.585 191.934C176.796 198.343 173.087 203.802 168.643 208.66C168.427 208.897 168.21 209.134 167.988 209.378C160.709 216.982 148.625 223.827 137.953 224.274C137.408 224.264 136.863 224.255 136.318 224.245C136.338 224.509 136.358 224.773 136.379 225.045C136.565 227.623 136.656 230.186 136.665 232.772C136.666 232.961 136.667 233.151 136.668 233.346C136.672 234.348 136.675 235.35 136.676 236.353C136.677 237.166 136.681 237.978 136.688 238.791C136.749 246.563 136.749 246.563 136.241 250.055C136.21 250.273 136.179 250.492 136.147 250.717C135.591 253.957 133.841 257.142 131.292 259.237C125.279 263.333 117.612 264.164 110.541 262.866C105.956 261.76 101.852 259.527 99.3033 255.452C97.3734 252.007 96.7184 248.669 96.7779 244.737C96.4772 244.787 96.4772 244.787 96.1705 244.838C95.2428 244.992 94.3147 245.144 93.3867 245.296C93.0715 245.349 92.7564 245.402 92.4318 245.456C88.6375 246.073 84.9199 246.234 81.0834 246.234C80.3173 246.234 79.5513 246.239 78.7852 246.245C73.8202 246.261 69.0235 245.742 64.1645 244.737C64.1604 245.02 64.1563 245.303 64.1521 245.595C64.0136 250.333 62.6327 254.835 59.3482 258.392C54.2429 263.124 47.4649 263.479 40.88 263.266C38.8323 263.143 36.9535 262.704 35.0145 262.054C34.6997 261.949 34.385 261.845 34.0607 261.737C30.1774 260.28 26.9786 257.669 25.2196 253.885C23.7576 250.176 23.7133 246.284 23.7202 242.348C23.7199 241.988 23.7196 241.629 23.7193 241.258C23.7191 240.499 23.7197 239.739 23.7209 238.98C23.7224 237.848 23.7209 236.717 23.719 235.585C23.7179 231.841 23.7599 228.1 23.8848 224.357C23.8956 224.025 23.9065 223.692 23.9177 223.35C24.2188 215.218 25.5861 207.099 27.2219 199.136C27.0724 199.194 26.9229 199.252 26.7689 199.312C21.3039 201.424 16.444 202.776 10.7506 200.516C7.36508 198.957 4.6685 196.55 3.19474 193.095C1.5829 188.517 2.41322 184.327 4.37625 180.053C6.8726 174.918 10.5442 170.566 14.5228 166.523C14.8057 166.229 15.0883 165.935 15.3707 165.641C16.8508 164.123 18.3851 162.736 20.0437 161.417C20.6273 160.947 21.1983 160.474 21.7641 159.985C23.7208 158.292 25.7317 156.742 27.8566 155.266C28.6588 154.727 28.6588 154.727 29.2422 154.112C29.0592 154.019 28.8763 153.927 28.6878 153.831C21.8779 150.363 21.8779 150.363 19.1407 148.34C18.8378 148.119 18.535 147.897 18.223 147.669C15.9911 146.01 13.9371 144.196 11.9253 142.279C11.6824 142.055 11.4394 141.83 11.1891 141.599C4.24978 134.992 0.366446 126.074 0.0109655 116.547C-0.213834 106.353 3.03542 97.889 8.13063 89.1657C10.6829 84.6723 11.469 79.5558 12.4943 74.5554C13.7891 68.2749 15.4349 62.1933 18.5634 56.5606C18.7973 56.1209 18.7973 56.1209 19.0358 55.6722C20.896 52.3032 23.3295 49.2769 25.8149 46.3509C25.9562 46.1837 26.0975 46.0166 26.2431 45.8443C26.9184 45.0622 27.5973 44.3421 28.3899 43.6778C29.8763 42.4761 29.8763 42.4761 30.4767 40.7545C30.323 39.7472 30.0753 38.7871 29.8194 37.8007C28.7704 32.3997 27.4004 24.4253 30.3605 19.4196C31.3766 18.3139 32.0094 17.9398 33.5173 17.742C35.6305 17.816 37.6583 18.6256 39.6323 19.3294C39.9076 19.4269 40.1829 19.5244 40.4666 19.6248C42.4831 20.409 44.4011 21.4099 46.3245 22.3959C46.6153 22.5432 46.9062 22.6905 47.2058 22.8422C48.5662 23.5496 49.8188 24.2557 50.9998 25.2381C53.0011 26.9358 53.0011 26.9358 55.5051 27.3521C57.4138 26.9787 59.2019 26.3318 61.02 25.6547C62.2477 25.2662 63.4599 25.1521 64.7417 25.1017C64.7756 24.8936 64.8096 24.6854 64.8445 24.471C65.0358 23.6345 65.3147 22.9735 65.6944 22.2054C65.8318 21.9271 65.9693 21.6488 66.1109 21.3621C66.2603 21.0663 66.4097 20.7706 66.5636 20.4658C66.7185 20.1585 66.8735 19.8512 67.0331 19.5346C77.6959 -1.34297 77.6959 -1.34297 84.3709 1.06779Z" fill="#ECECEB"/>
<path d="M84.3709 1.06779C88.7506 3.12003 91.1857 7.70198 93.3145 11.8254C93.4119 12.0127 93.5093 12.2 93.6096 12.3929C95.6703 16.4108 97.7102 20.9345 98.5096 25.3903C98.7201 25.4119 98.9307 25.4335 99.1477 25.4557C101.87 25.7986 104.333 26.5927 106.908 27.5166C107.748 27.7984 107.748 27.7984 108.611 27.9878C109.257 27.6405 109.819 27.2885 110.415 26.8694C110.779 26.6261 111.143 26.3837 111.508 26.1423C111.792 25.9544 111.792 25.9544 112.08 25.7628C117.222 22.4108 124.535 18.4813 130.834 19.3294C132.299 19.9462 132.848 20.8018 133.501 22.1874C134.828 25.8427 134.082 30.5554 133.63 34.3193C133.594 34.6245 133.559 34.9298 133.522 35.2443C133.354 36.5618 133.165 37.8269 132.771 39.0972C132.447 40.1771 132.21 41.0034 132.277 42.1299C133.109 43.3501 134.126 44.2073 135.249 45.1508C136.054 45.8753 136.707 46.7022 137.364 47.5595C137.494 47.7281 137.624 47.8967 137.757 48.0704C144.535 57.0245 147.745 67.2212 149.793 78.1593C150.653 82.7234 151.577 86.8376 153.923 90.9057C154.17 91.3487 154.415 91.7922 154.66 92.236C155.028 92.902 155.398 93.5674 155.771 94.2312C159.371 100.647 161.268 107.244 161.229 114.626C161.228 114.837 161.228 115.048 161.227 115.265C161.212 118.384 161.103 121.359 160.273 124.385C160.219 124.587 160.164 124.789 160.109 124.997C156.763 137.092 147.444 146.095 136.831 152.165C135.054 153.165 133.255 154.106 131.412 154.978C133.091 156.244 134.771 157.505 136.48 158.73C139.388 160.842 142.087 163.18 144.688 165.657C144.861 165.821 145.034 165.986 145.212 166.156C149.717 170.477 153.613 175.241 156.232 180.953C160.591 176.574 162.683 171.552 163.773 165.535C164.168 163.436 164.606 161.55 166.226 160.047C167.401 159.274 168.085 159.192 169.509 159.307C172.383 160.119 174.197 162.821 175.624 165.278C180.084 173.295 181.155 182.483 178.744 191.343C178.692 191.538 178.639 191.733 178.585 191.934C176.796 198.343 173.087 203.802 168.643 208.66C168.427 208.897 168.21 209.134 167.988 209.378C160.709 216.982 148.625 223.827 137.953 224.274C137.408 224.264 136.863 224.255 136.318 224.245C136.338 224.509 136.358 224.773 136.379 225.045C136.565 227.623 136.656 230.186 136.665 232.772C136.666 232.961 136.667 233.151 136.668 233.346C136.672 234.348 136.675 235.35 136.676 236.353C136.677 237.166 136.681 237.978 136.688 238.791C136.749 246.563 136.749 246.563 136.241 250.055C136.21 250.273 136.179 250.492 136.147 250.717C135.591 253.957 133.841 257.142 131.292 259.237C125.279 263.333 117.612 264.164 110.541 262.866C105.956 261.76 101.852 259.527 99.3033 255.452C97.3734 252.007 96.7184 248.669 96.7779 244.737C96.4772 244.787 96.4772 244.787 96.1705 244.838C95.2428 244.992 94.3147 245.144 93.3867 245.296C93.0715 245.349 92.7564 245.402 92.4318 245.456C88.6375 246.073 84.9199 246.234 81.0834 246.234C80.3173 246.234 79.5513 246.239 78.7852 246.245C73.8202 246.261 69.0235 245.742 64.1645 244.737C64.1604 245.02 64.1563 245.303 64.1521 245.595C64.0136 250.333 62.6327 254.835 59.3482 258.392C54.2429 263.124 47.4649 263.479 40.88 263.266C38.8323 263.143 36.9535 262.704 35.0145 262.054C34.6997 261.949 34.385 261.845 34.0607 261.737C30.1774 260.28 26.9786 257.669 25.2196 253.885C23.7576 250.176 23.7133 246.284 23.7202 242.348C23.7199 241.988 23.7196 241.629 23.7193 241.258C23.7191 240.499 23.7197 239.739 23.7209 238.98C23.7224 237.848 23.7209 236.717 23.719 235.585C23.7179 231.841 23.7599 228.1 23.8848 224.357C23.8956 224.025 23.9065 223.692 23.9177 223.35C24.2188 215.218 25.5861 207.099 27.2219 199.136C27.0724 199.194 26.9229 199.252 26.7689 199.312C21.3039 201.424 16.444 202.776 10.7506 200.516C7.36508 198.957 4.6685 196.55 3.19474 193.095C1.5829 188.517 2.41322 184.327 4.37625 180.053C6.8726 174.918 10.5442 170.566 14.5228 166.523C14.8057 166.229 15.0883 165.935 15.3707 165.641C16.8508 164.123 18.3851 162.736 20.0437 161.417C20.6273 160.947 21.1983 160.474 21.7641 159.985C23.7208 158.292 25.7317 156.742 27.8566 155.266C28.6588 154.727 28.6588 154.727 29.2422 154.112C29.0592 154.019 28.8763 153.927 28.6878 153.831C21.8779 150.363 21.8779 150.363 19.1407 148.34C18.8378 148.119 18.535 147.897 18.223 147.669C15.9911 146.01 13.9371 144.196 11.9253 142.279C11.6824 142.055 11.4394 141.83 11.1891 141.599C4.24978 134.992 0.366446 126.074 0.0109655 116.547C-0.213834 106.353 3.03542 97.889 8.13063 89.1657C10.6829 84.6723 11.469 79.5558 12.4943 74.5554C13.7891 68.2749 15.4349 62.1933 18.5634 56.5606C18.7973 56.1209 18.7973 56.1209 19.0358 55.6722C20.896 52.3032 23.3295 49.2769 25.8149 46.3509C25.9562 46.1837 26.0975 46.0166 26.2431 45.8443C26.9184 45.0622 27.5973 44.3421 28.3899 43.6778C29.8763 42.4761 29.8763 42.4761 30.4767 40.7545C30.323 39.7472 30.0753 38.7871 29.8194 37.8007C28.7704 32.3997 27.4004 24.4253 30.3605 19.4196C31.3766 18.3139 32.0094 17.9398 33.5173 17.742C35.6305 17.816 37.6583 18.6256 39.6323 19.3294C39.9076 19.4269 40.1829 19.5244 40.4666 19.6248C42.4831 20.409 44.4011 21.4099 46.3245 22.3959C46.6153 22.5432 46.9062 22.6905 47.2058 22.8422C48.5662 23.5496 49.8188 24.2557 50.9998 25.2381C53.0011 26.9358 53.0011 26.9358 55.5051 27.3521C57.4138 26.9787 59.2019 26.3318 61.02 25.6547C62.2477 25.2662 63.4599 25.1521 64.7417 25.1017C64.7756 24.8936 64.8096 24.6854 64.8445 24.471C65.0358 23.6345 65.3147 22.9735 65.6944 22.2054C65.8318 21.9271 65.9693 21.6488 66.1109 21.3621C66.2603 21.0663 66.4097 20.7706 66.5636 20.4658C66.7185 20.1585 66.8735 19.8512 67.0331 19.5346C77.6959 -1.34297 77.6959 -1.34297 84.3709 1.06779ZM69.2021 30.5624C67.7691 31.1927 66.2248 31.5241 64.7139 31.9222C56.6666 34.0601 49.0996 37.3817 42.2298 42.1299C42.0654 42.2421 41.9009 42.3543 41.7315 42.4698C39.3228 44.1172 37.0587 45.8938 34.8644 47.8167C34.4658 48.1658 34.0644 48.5116 33.6627 48.8571C30.3778 51.732 27.835 54.9245 25.4902 58.5809C25.3822 58.7487 25.2743 58.9164 25.1631 59.0892C21.4962 64.8849 19.9704 71.3735 18.5713 78.0038C18.5215 78.2386 18.4717 78.4734 18.4204 78.7153C18.1726 79.884 17.9283 81.0532 17.6914 82.2241C16.9404 85.868 15.7968 89.1671 13.9997 92.439C13.7458 92.9131 13.4921 93.3873 13.2387 93.8617C13.0521 94.2093 13.0521 94.2093 12.8618 94.5638C8.235 103.207 4.62237 112.832 7.52283 122.709C7.6411 123.076 7.76172 123.442 7.88472 123.808C7.94504 123.991 8.00536 124.174 8.0675 124.362C11.6365 134.866 20.7507 142.28 30.4047 147.086C33.285 148.466 36.2672 149.575 39.267 150.665C42.6948 151.924 42.6948 151.924 43.3843 152.958C43.276 154.022 43.276 154.022 43.0956 154.978C42.8422 155.057 42.5888 155.136 42.3277 155.218C31.6978 158.938 21.4682 167.429 14.8115 176.335C14.6852 176.502 14.559 176.668 14.429 176.84C13.0175 178.707 11.7383 180.605 10.6266 182.667C10.5324 182.841 10.4382 183.015 10.3411 183.194C9.16126 185.463 8.58674 187.778 9.20716 190.293C9.98383 192.35 11.5008 193.866 13.4563 194.854C16.5114 195.985 19.4401 195.226 22.3452 193.966C23.629 193.368 24.8605 192.7 26.0756 191.972C26.5888 191.665 27.1112 191.374 27.6345 191.085C30.7822 188.991 31.4087 185.487 32.4498 182.04C32.8926 180.659 33.2192 179.745 34.4372 178.933C35.6963 178.77 36.2548 178.791 37.3053 179.528C38.0596 180.603 37.9872 181.098 37.9006 182.396C37.7291 183.182 37.5422 183.936 37.32 184.706C37.2598 184.923 37.1996 185.14 37.1377 185.363C37.0093 185.825 36.88 186.287 36.7496 186.748C36.4082 187.96 36.0777 189.175 35.7461 190.39C35.681 190.627 35.616 190.865 35.5489 191.11C32.958 200.59 31.5721 210.483 30.6492 220.259C30.6164 220.603 30.6164 220.603 30.5829 220.953C30.1418 225.959 30.0542 230.97 30.0545 235.992C30.0539 237.019 30.0486 238.046 30.0432 239.073C29.7227 246.939 29.7227 246.939 32.7833 253.875C36.1202 256.458 39.8509 256.674 43.9074 256.678C44.2759 256.686 44.6444 256.693 45.0241 256.7C48.5066 256.711 51.9712 256.078 54.6402 253.684C57.514 250.675 57.6793 245.824 58.0672 241.898C58.3551 239.19 58.3551 239.19 59.258 238.099C61.2265 237.115 64.1175 238.085 66.1487 238.496C76.4854 240.477 87.4206 240.565 97.6778 237.943C98.805 237.668 99.9596 237.671 101.107 237.81C102.076 238.472 102.327 239.004 102.55 240.119C102.601 240.62 102.641 241.123 102.674 241.625C103.025 248.484 103.025 248.484 106.681 254.063C109.754 256.496 113.464 256.671 117.233 256.66C117.577 256.665 117.92 256.67 118.274 256.675C122.076 256.677 125.255 256.032 128.038 253.323C130.578 249.185 130.346 244.436 130.311 239.758C130.308 239.183 130.306 238.608 130.303 238.033C130.294 236.419 130.277 234.806 130.257 233.192C130.253 232.829 130.249 232.465 130.245 232.09C130.013 216.545 127.521 200.597 123.457 185.61C122.955 183.716 122.571 182.049 122.753 180.087C123.488 179.202 123.933 178.977 125.062 178.789C126.164 178.972 126.574 179.308 127.371 180.087C127.762 181.021 127.762 181.021 128.064 182.119C128.182 182.522 128.301 182.925 128.421 183.327C128.482 183.535 128.543 183.743 128.605 183.958C129.834 188.404 129.834 188.404 133.024 191.505C133.536 191.758 134.061 191.984 134.586 192.209C134.94 192.397 135.291 192.589 135.64 192.784C138.86 194.554 142.161 195.803 145.851 194.876C147.923 194.171 149.285 193.428 150.406 191.506C151.526 189.08 151.333 186.728 150.442 184.254C148.365 179.42 145.124 175.481 141.513 171.718C141.344 171.539 141.175 171.361 141.001 171.177C135.22 165.099 128.48 160.823 121.07 156.995C120.735 156.82 120.4 156.645 120.055 156.465C119.604 156.233 119.604 156.233 119.144 155.996C118.424 155.555 118.424 155.555 117.847 154.689C117.738 153.824 117.738 153.824 117.847 152.958C118.854 151.907 120.26 151.685 121.617 151.316C133.892 147.789 145.23 140.11 151.539 128.829C152.588 126.856 153.314 124.798 153.923 122.653C154.021 122.311 154.119 121.969 154.22 121.616C156.655 111.472 152.691 101.954 147.665 93.3229C147.538 93.1017 147.411 92.8806 147.28 92.6528C147.044 92.2448 146.805 91.839 146.56 91.4365C144.087 87.1664 143.518 82.0121 142.674 77.2355C140.852 66.9935 137.272 58.0562 129.969 50.4997C129.737 50.2538 129.506 50.0079 129.268 49.7545C127.353 47.7638 125.252 46.0848 123.042 44.4388C122.763 44.23 122.763 44.23 122.479 44.017C114.225 37.8729 104.973 33.6404 94.9442 31.3308C93.3967 30.9612 93.3967 30.9612 92.9048 30.4389C91.9707 29.5568 90.4837 29.6544 89.2559 29.5211C88.7666 29.4666 88.7666 29.4666 88.2674 29.411C85.4517 29.1309 82.6497 29.0566 79.8218 29.0521C79.6176 29.0511 79.4133 29.0501 79.2029 29.049C74.0512 29.0275 74.0512 29.0275 69.2021 30.5624Z" fill="black"/>
<path d="M94.204 169.155C94.892 169.701 95.548 170.265 96.2006 170.852C96.483 171.077 96.7654 171.303 97.0563 171.535C99.7248 173.755 101.547 177.05 103.127 180.088C103.223 180.269 103.319 180.45 103.418 180.637C106.579 186.685 108.35 193.474 108.611 200.291C108.62 200.486 108.63 200.681 108.64 200.883C109.004 209.182 106.812 216.794 101.322 223.135C97.469 227.131 92.5813 229.3 87.2536 230.595C86.8351 230.702 86.8351 230.702 86.4081 230.81C78.995 232.368 70.5547 230.847 64.1645 226.843C63.1454 226.13 62.2052 225.363 61.2783 224.534C61.038 224.321 60.7977 224.108 60.55 223.888C55.298 218.951 52.5316 211.557 52.2479 204.432C51.9955 193.063 55.6265 180.797 63.5196 172.373C71.7669 163.996 84.392 162.403 94.204 169.155Z" fill="#F2D3A3"/>
<path d="M94.204 169.155C94.892 169.701 95.548 170.265 96.2006 170.852C96.483 171.077 96.7654 171.303 97.0563 171.535C99.7248 173.755 101.547 177.05 103.127 180.088C103.223 180.269 103.319 180.45 103.418 180.637C106.579 186.685 108.35 193.474 108.611 200.291C108.62 200.486 108.63 200.681 108.64 200.883C109.004 209.182 106.812 216.794 101.322 223.135C97.469 227.131 92.5813 229.3 87.2536 230.595C86.8351 230.702 86.8351 230.702 86.4081 230.81C78.995 232.368 70.5547 230.847 64.1645 226.843C63.1454 226.13 62.2052 225.363 61.2783 224.534C61.038 224.321 60.7977 224.108 60.55 223.888C55.298 218.951 52.5316 211.557 52.2479 204.432C51.9955 193.063 55.6265 180.797 63.5196 172.373C71.7669 163.996 84.392 162.403 94.204 169.155ZM67.1588 178.103C60.984 186.043 58.0847 196.467 59.0337 206.45C59.71 211.531 61.9829 216.589 65.9864 219.889C71.6221 224.008 78.5541 225.418 85.4227 224.357C90.4219 223.396 95.1696 220.801 98.2559 216.704C102.45 210.296 102.907 202.244 101.514 194.857C101.388 194.26 101.251 193.668 101.107 193.075C101.059 192.875 101.011 192.674 100.962 192.467C99.483 186.494 96.8189 180.729 92.4487 176.336C92.2786 176.156 92.1086 175.976 91.9334 175.79C88.6833 172.618 84.3223 171.319 79.8991 171.321C74.7693 171.454 70.4217 174.284 67.1588 178.103Z" fill="black"/>
<path d="M169.797 168.543C169.988 168.543 170.178 168.543 170.374 168.543C170.703 169.444 171.026 170.346 171.349 171.249C171.44 171.5 171.532 171.751 171.626 172.01C174.188 179.216 173.608 187.505 170.41 194.422C169.955 195.343 169.456 196.233 168.931 197.116C168.75 197.423 168.569 197.73 168.382 198.046C162.261 207.748 151.462 214.241 140.461 216.82C140.142 216.89 139.822 216.959 139.493 217.03C139.143 217.116 139.143 217.116 138.786 217.204C137.763 217.364 136.776 217.336 135.741 217.319C135.112 213.984 134.616 210.638 134.151 207.276C133.843 205.086 133.476 202.931 132.975 200.778C132.857 200.015 132.889 199.567 133.143 198.847C133.35 198.942 133.556 199.036 133.769 199.133C136.995 200.547 139.927 201.228 143.443 201.265C143.693 201.269 143.944 201.273 144.201 201.277C148.157 201.248 151.339 199.54 154.201 196.885C156.049 194.892 157.121 192.422 157.549 189.756C158.103 188.407 158.971 187.766 160.067 186.831C165.386 182.2 168.762 175.463 169.797 168.543Z" fill="#3A9592"/>
<path d="M38.1171 97.039C41.2619 99.1549 43.0897 102.236 43.9615 105.914C44.3458 110.217 43.4519 113.702 40.7867 117.17C38.8908 119.347 35.5853 121.288 32.6768 121.555C28.7013 121.697 25.5892 121.414 22.3154 118.901C22.0827 118.746 22.0827 118.746 21.8453 118.587C20.5857 117.66 19.8233 116.51 19.0505 115.168C18.9531 114.999 18.8556 114.83 18.7552 114.656C17.0896 111.629 16.9329 108.031 17.5973 104.674C18.9222 100.739 21.3183 97.9835 24.9851 96.137C29.4033 93.9858 33.974 94.589 38.1171 97.039Z" fill="#F4A99C"/>
<path d="M138.519 97.3422C141.274 99.3134 143.121 102.219 144.025 105.494C144.531 109.679 143.818 113.478 141.224 116.881C138.817 119.53 135.721 121.255 132.121 121.596C128.427 121.636 125.701 120.834 122.753 118.613C122.378 118.363 122.378 118.363 121.996 118.108C119.517 115.76 118.082 112.575 117.778 109.188C117.676 105.268 118.993 101.656 121.671 98.7706C122.862 97.6582 124.194 96.8438 125.639 96.101C125.831 96.002 126.022 95.903 126.219 95.8011C130.136 94.1576 135.077 95.1214 138.519 97.3422Z" fill="#F4A99C"/>
<path d="M53.1971 117.458C54.1456 118.207 54.7645 119.237 55.4373 120.227C59.5281 126.135 66.2524 128.878 73.1115 130.157C82.4514 131.767 93.2283 130.912 101.223 125.463C102.078 124.842 102.896 124.198 103.705 123.519C103.896 123.36 104.088 123.201 104.285 123.038C105.686 121.763 106.564 120.186 107.487 118.553C108.03 117.753 108.286 117.463 109.188 117.17C110.172 117.065 110.781 117.111 111.696 117.494C112.557 118.192 112.872 118.715 113.229 119.767C113.279 122.778 111.295 125.028 109.322 127.126C101.983 134.582 91.9972 137.557 81.6797 137.715C70.5803 137.679 60.4226 134.789 52.2591 127.018C50.2979 125.02 48.4499 122.697 48.4767 119.787C48.6617 118.71 49.2419 118.202 50.0224 117.458C51.1465 117.083 52.0821 117.087 53.1971 117.458Z" fill="black"/>
<path d="M82.6358 9.5166C86.4969 11.3172 88.6513 18.8922 90.0111 22.6119C90.8924 25.0546 91.774 27.4991 92.4487 30.0082C90.9276 30.0351 89.5204 29.94 88.0112 29.7196C85.3476 29.3836 82.6824 29.3653 80.0022 29.3588C79.7962 29.3574 79.5902 29.3559 79.378 29.3545C76.3802 29.3373 73.4795 29.5708 70.514 30.0082C70.7419 28.7288 71.1858 27.6765 71.7767 26.5268C71.8786 26.3269 71.9805 26.127 72.0854 25.921C72.4243 25.2614 72.7674 24.6042 73.1115 23.9473C73.2285 23.7225 73.3455 23.4977 73.4661 23.2661C74.9651 20.4045 76.5786 17.6413 78.3607 14.9462C78.5216 14.7013 78.6826 14.4564 78.8484 14.2041C79.9847 12.5178 81.2514 11.0048 82.6358 9.5166Z" fill="#3A9592"/>
<path d="M119.921 79.5235C121.798 80.5943 122.974 82.2333 123.707 84.2473C124.297 86.8513 124.314 89.891 123.136 92.3251C122.029 94.0618 120.712 95.2159 118.713 95.8121C116.885 96.0152 115.602 95.7309 114.095 94.6577C112.175 92.9218 111.137 90.8456 110.851 88.2631C110.765 85.5542 111.424 83.1623 113.193 81.0748C115.139 79.0961 117.3 78.3606 119.921 79.5235Z" fill="black"/>
<path d="M47.1937 79.3183C49.2881 80.4912 50.6684 82.4175 51.3302 84.7062C51.9035 87.7402 51.4076 90.5533 49.8059 93.1786C48.9956 94.2925 48.2067 95.1534 46.8476 95.5236C44.7904 95.7972 42.9714 95.803 41.2625 94.5303C39.1532 92.536 38.505 90.2328 38.3876 87.3882C38.4144 84.9271 39.286 82.273 41.0753 80.5156C42.9118 79.0836 44.9514 78.4501 47.1937 79.3183Z" fill="black"/>
<path d="M127.371 26.5449C127.519 29.1832 127.308 31.6315 126.83 34.2293C126.78 34.5028 126.73 34.7763 126.678 35.0581C126.434 36.3162 126.186 37.4984 125.639 38.6667C123.633 37.407 121.652 36.115 119.692 34.7858C118.527 34.002 117.341 33.2895 116.115 32.6058C117.116 31.4776 118.269 30.7903 119.56 30.0444C119.885 29.8552 119.885 29.8552 120.216 29.6623C125.641 26.5449 125.641 26.5449 127.371 26.5449Z" fill="#3A9592"/>
<path d="M36.1689 25.9673C37.9338 26.5032 39.5445 27.1637 41.1655 28.0417C41.4802 28.2099 41.4802 28.2099 41.8013 28.3815C43.6581 29.3901 45.4104 30.5192 47.1362 31.7396C46.0048 32.7078 44.8311 33.4021 43.5286 34.1026C41.6029 35.1567 39.814 36.3233 38.0381 37.6122C37.3234 38.0891 37.3234 38.0891 36.7461 38.0891C35.9922 34.0703 36.1112 30.0407 36.1689 25.9673Z" fill="#3A9592"/>
<path d="M67.9165 104.182C69.535 104.924 70.8027 105.898 71.4982 107.564C71.8302 108.848 71.8773 110.089 71.6684 111.397C71.1486 112.264 70.8305 112.682 69.9368 113.129C68.4723 113.369 67.3371 113.269 66.0946 112.426C64.7383 111.275 64.072 109.922 63.7676 108.181C63.6781 106.718 64.1109 105.863 65.0303 104.759C66.1399 104.02 66.5952 104.012 67.9165 104.182Z" fill="black"/>
<path d="M96.4893 104.182C97.3344 104.706 98.0582 105.299 98.5096 106.202C98.7376 108.137 98.6374 109.608 97.4803 111.208C96.3328 112.533 95.3885 113.078 93.6392 113.219C92.6992 113.209 92.4429 113.125 91.6009 112.606C90.6262 111.572 90.6161 110.561 90.6381 109.205C90.8595 107.257 91.9314 106.001 93.4058 104.796C94.4048 104.126 95.3204 104.044 96.4893 104.182Z" fill="black"/>
<path d="M48.1684 67.324C48.8326 67.8028 49.146 68.3983 49.4824 69.1225C49.5467 69.2585 49.5467 69.2585 49.6123 69.3973C49.7518 69.6929 49.89 69.9892 50.0281 70.2854C50.1249 70.4915 50.2217 70.6976 50.3185 70.9036C51.0065 72.3712 51.6765 73.8462 52.3318 75.3287C52.4283 75.5239 52.4283 75.5239 52.5267 75.723C52.7059 76.1143 52.7845 76.4943 52.8658 76.9163C53.0782 77.7869 53.3345 78.4951 54.0389 79.0801C55.591 79.806 57.5461 79.8185 59.2252 79.9705C60.006 80.0439 60.7848 80.1353 61.5639 80.2246C62.17 80.2939 62.776 80.3603 63.3834 80.4179C63.551 80.4347 63.551 80.4347 63.7221 80.4519C63.9288 80.4725 64.1357 80.4918 64.3428 80.5093C65.1652 80.5942 65.898 80.8317 66.452 81.4732C66.8111 81.9809 66.9808 82.3107 66.9897 82.939C66.9931 83.0457 66.9965 83.1525 67 83.2624C66.829 84.3945 66.0285 85.0853 65.2472 85.8481C65.1265 85.9678 65.0059 86.0875 64.8855 86.2074C64.5696 86.5212 64.2523 86.8336 63.9346 87.1457C63.4273 87.6447 62.9222 88.1458 62.4169 88.6468C62.2418 88.82 62.0662 88.9927 61.8905 89.1653C61.3425 89.7062 60.8103 90.2509 60.3122 90.8383C59.9979 91.2028 59.659 91.5427 59.3193 91.8832C59.251 91.9531 59.1827 92.023 59.1123 92.095C58.9395 92.2686 58.7602 92.4355 58.5799 92.6012C58.501 92.6012 58.4221 92.6012 58.3409 92.6012C58.6079 94.546 58.9171 96.4827 59.2371 98.4194C59.3966 99.3873 59.5555 100.355 59.7138 101.323C59.7713 101.673 59.8297 102.023 59.8883 102.372C59.9215 102.574 59.9546 102.775 59.9877 102.977C60.0028 103.064 60.0178 103.152 60.0333 103.243C60.1948 104.238 60.2356 105.133 59.6554 106.003C59.0021 106.621 58.4462 106.917 57.5445 106.901C56.697 106.772 55.9721 106.297 55.2339 105.883C54.9945 105.751 54.755 105.619 54.5155 105.487C53.9703 105.186 53.4263 104.883 52.8831 104.578C52.2831 104.242 51.6819 103.908 51.0794 103.576C51.0025 103.533 50.9256 103.491 50.8464 103.447C50.5466 103.282 50.2468 103.117 49.9467 102.952C49.7399 102.839 49.5332 102.725 49.3265 102.611C49.1958 102.54 49.065 102.468 48.9303 102.394C48.6654 102.244 48.4045 102.086 48.1473 101.923C48.0223 101.844 47.8972 101.765 47.7684 101.684C47.6582 101.611 47.5481 101.539 47.4346 101.464C47.1089 101.302 47.1089 101.302 46.7535 101.41C46.3808 101.58 46.0218 101.76 45.6636 101.959C45.5955 101.996 45.5274 102.034 45.4572 102.073C45.2353 102.195 45.0139 102.319 44.7925 102.443C44.6366 102.529 44.4808 102.616 44.3249 102.703C43.2472 103.303 42.1799 103.92 41.1166 104.545C40.2205 105.072 39.3194 105.589 38.4142 106.1C38.2867 106.172 38.1593 106.245 38.028 106.319C37.9096 106.386 37.7912 106.452 37.6692 106.521C37.5648 106.58 37.4604 106.639 37.3528 106.699C36.7675 106.991 36.1609 107.053 35.5163 106.96C34.8424 106.68 34.3824 106.229 33.9628 105.644C33.5512 104.407 33.9371 102.942 34.1486 101.686C34.1803 101.492 34.2118 101.297 34.2433 101.103C34.3258 100.596 34.4098 100.088 34.4941 99.5808C34.6285 98.771 34.7608 97.9608 34.893 97.1505C34.9387 96.8715 34.9851 96.5927 35.0316 96.3138C35.1033 95.8817 35.1709 95.449 35.2364 95.0159C35.2645 94.8365 35.2942 94.6574 35.3253 94.4785C35.3729 94.2042 35.4158 93.9295 35.458 93.6544C35.4735 93.5719 35.489 93.4895 35.5049 93.4045C35.5528 93.0664 35.5636 92.8025 35.3897 92.5024C35.1227 92.174 34.8288 91.9067 34.4977 91.6444C34.4001 91.5653 34.3024 91.4861 34.2018 91.4046C34.2018 91.3257 34.2018 91.2467 34.2018 91.1653C34.1229 91.1653 34.044 91.1653 33.9628 91.1653C33.7923 90.9921 33.7923 90.9921 33.5933 90.751C33.124 90.1988 32.6214 89.6894 32.1068 89.1798C31.9643 89.0378 31.9643 89.0378 31.819 88.893C31.5181 88.5932 31.2169 88.2938 30.9155 87.9944C30.5181 87.5997 30.121 87.2045 29.7242 86.8091C29.6345 86.7202 29.5447 86.6313 29.4522 86.5397C28.8986 85.9879 28.3762 85.4177 27.8683 84.8236C27.7815 84.726 27.7815 84.726 27.6931 84.6265C27.1795 84.0382 26.9781 83.5878 27.0019 82.795C27.0909 82.0649 27.4798 81.5032 27.9878 80.9946C28.5794 80.6977 29.1332 80.5582 29.7896 80.473C29.8833 80.4599 29.9771 80.4468 30.0737 80.4334C30.2773 80.4051 30.4809 80.3774 30.6847 80.3501C31.011 80.3058 31.3368 80.2587 31.6626 80.2111C32.7991 80.0473 33.9339 79.9041 35.0775 79.7997C35.6316 79.7481 36.1848 79.689 36.7381 79.6293C37.0074 79.6024 37.2771 79.5791 37.5471 79.5596C38.9501 79.5114 38.9501 79.5114 40.1359 78.875C40.4709 78.3578 40.6443 77.7953 40.8094 77.2056C40.9353 76.7889 41.1214 76.4098 41.3139 76.0205C41.383 75.8742 41.4517 75.7277 41.52 75.581C41.5544 75.5078 41.5887 75.4345 41.6241 75.359C41.9317 74.7 42.2333 74.0382 42.5355 73.3767C42.6175 73.1976 42.6995 73.0185 42.7816 72.8394C43.2095 71.9065 43.6342 70.9731 44.0335 70.0274C44.0918 69.8904 44.15 69.7535 44.2101 69.6123C44.3163 69.3608 44.4209 69.1087 44.5235 68.8557C44.8897 67.9899 45.2431 67.6027 46.0622 67.1295C46.7925 66.9101 47.4882 66.9659 48.1684 67.324Z" fill="#010100"/>
<path d="M46.8253 73.3159C47.2147 73.5114 47.3068 73.9527 47.4731 74.3393C47.5663 74.5515 47.6598 74.7637 47.7534 74.9757C47.8076 75.0986 47.8617 75.2215 47.9176 75.3481C48.2639 76.1259 48.619 76.8996 48.9735 77.6736C49.1414 78.0402 49.3089 78.407 49.4765 78.7737C49.5579 78.9513 49.6397 79.1286 49.7219 79.3058C49.9292 79.7529 50.1306 80.2013 50.3223 80.6554C50.3614 80.7453 50.4005 80.8353 50.4409 80.9279C50.5144 81.0971 50.5859 81.2673 50.6548 81.4385C50.9361 82.0743 51.3164 82.3942 51.9496 82.6726C52.2717 82.7705 52.5886 82.8185 52.9222 82.8581C53.0161 82.8712 53.11 82.8842 53.2068 82.8976C53.4135 82.9261 53.6204 82.9536 53.8273 82.9802C54.1815 83.026 54.5351 83.0752 54.8888 83.1251C55.6702 83.2349 56.4521 83.3414 57.234 83.4475C57.6369 83.5022 58.0397 83.557 58.4425 83.612C58.6907 83.6459 58.9389 83.6796 59.1871 83.7132C59.2988 83.7284 59.4106 83.7437 59.5257 83.7594C59.6232 83.7726 59.7208 83.7858 59.8213 83.7994C60.1112 83.8436 60.3972 83.8992 60.6842 83.9592C60.1252 84.642 59.5134 85.2629 58.887 85.8827C58.703 86.0649 58.5195 86.2475 58.3362 86.4303C57.8154 86.9494 57.2941 87.468 56.7716 87.9854C56.4507 88.3033 56.1305 88.6221 55.811 88.9415C55.6897 89.0623 55.5681 89.1829 55.4461 89.3031C55.2756 89.4712 55.1062 89.6404 54.937 89.8099C54.8406 89.9056 54.7442 90.0013 54.6448 90.0999C54.0086 90.8445 53.9626 91.5116 54.0214 92.4576C54.1167 93.5207 54.3135 94.5741 54.4899 95.6259C54.532 95.8823 54.5739 96.1388 54.6157 96.3952C54.7161 97.0091 54.8179 97.6227 54.9203 98.2362C54.9925 98.6685 55.0642 99.1009 55.1359 99.5333C55.1995 99.917 55.2632 100.301 55.327 100.684C54.9016 100.55 54.5169 100.407 54.1314 100.182C54.0389 100.129 53.9463 100.075 53.8509 100.02C53.7519 99.9618 53.6529 99.9036 53.551 99.8437C53.446 99.7828 53.3411 99.7218 53.233 99.659C53.0047 99.5264 52.7766 99.3935 52.5486 99.2604C52.1655 99.037 51.7817 98.8147 51.3978 98.5928C50.8875 98.2977 50.3773 98.0026 49.8674 97.7069C49.7504 97.6391 49.6335 97.5713 49.513 97.5015C49.2633 97.3559 49.0142 97.2094 48.7656 97.0621C48.6407 96.9881 48.5158 96.9142 48.3871 96.8379C48.2745 96.7709 48.1619 96.7039 48.0459 96.6348C47.4935 96.327 46.9781 96.2421 46.3595 96.3569C45.8397 96.5801 45.3573 96.8558 44.8696 97.1419C44.6019 97.2988 44.3325 97.4524 44.0625 97.6055C43.2271 98.0806 42.3955 98.5624 41.5653 99.0468C41.29 99.2074 41.0145 99.3678 40.7391 99.5281C40.54 99.6442 40.3413 99.7608 40.1425 99.8773C39.9592 99.9841 39.9592 99.9841 39.7721 100.093C39.6639 100.156 39.5556 100.22 39.4441 100.285C39.1539 100.442 38.8651 100.568 38.5565 100.684C38.6162 100.26 38.6772 99.8363 38.7385 99.4124C38.7583 99.2757 38.7781 99.139 38.7985 98.9982C38.9328 98.0875 39.0793 97.1796 39.2348 96.2723C39.2533 96.1642 39.2717 96.0562 39.2907 95.9448C39.3828 95.4044 39.4761 94.8643 39.5713 94.3245C39.9956 92.3782 39.9956 92.3782 39.554 90.5138C39.131 89.9593 38.6217 89.4843 38.1198 89.0031C37.894 88.7848 37.6692 88.5656 37.4447 88.3461C37.2955 88.2025 37.2955 88.2025 37.1432 88.056C36.9261 87.8188 36.9261 87.8188 36.9261 87.5849C36.8516 87.5536 36.7772 87.5222 36.7004 87.4899C36.4602 87.351 36.4602 87.351 36.3438 87.0001C36.2669 87.0001 36.1901 87.0001 36.1109 87.0001C35.9464 86.8322 35.9464 86.8322 35.7537 86.5976C35.2825 86.041 34.7733 85.531 34.2548 85.0191C34.0763 84.8429 33.8981 84.6664 33.7202 84.4896C33.6036 84.3745 33.6036 84.3745 33.4846 84.2571C33.3158 84.0762 33.3158 84.0762 33.3158 83.9592C33.8495 83.8732 34.3833 83.7881 34.9171 83.7033C34.999 83.6903 35.0808 83.6773 35.1651 83.6639C36.1709 83.5043 37.1774 83.3533 38.1867 83.2177C38.3275 83.1987 38.3275 83.1987 38.4711 83.1793C38.9275 83.1177 39.3841 83.0574 39.8409 82.9988C41.4833 82.8101 41.4833 82.8101 42.8656 81.9709C43.0216 81.7029 43.1519 81.4518 43.2769 81.1705C43.3133 81.0917 43.3498 81.0129 43.3873 80.9318C43.506 80.6745 43.6226 80.4163 43.7391 80.158C43.8212 79.9789 43.9034 79.7999 43.9858 79.6209C44.1534 79.2563 44.3202 78.8913 44.4864 78.526C44.7106 78.0335 44.9382 77.5426 45.1671 77.0522C45.3001 76.7668 45.4331 76.4814 45.5661 76.196C45.6561 76.0028 45.6561 76.0028 45.748 75.8056C46.1283 74.984 46.4847 74.1549 46.8253 73.3159Z" fill="#FFBB4D"/>
<path d="M120.502 67.5095C121.187 68.1693 121.499 69.0547 121.873 69.9136C121.946 70.0802 122.02 70.2467 122.094 70.4132C122.245 70.7557 122.396 71.0984 122.547 71.4414C122.876 72.1916 123.209 72.94 123.542 73.6883C123.604 73.8278 123.666 73.9674 123.729 74.1111C124.075 74.8861 124.426 75.6578 124.785 76.4266C124.843 76.5515 124.843 76.5515 124.902 76.679C125.091 77.0833 125.28 77.4873 125.471 77.8908C125.539 78.0358 125.607 78.1807 125.675 78.3257C125.765 78.5165 125.765 78.5165 125.857 78.7112C125.985 79.0133 125.985 79.0133 125.985 79.2529C126.099 79.2586 126.212 79.2643 126.329 79.2701C127.56 79.3367 128.775 79.4679 129.997 79.6298C130.192 79.6553 130.387 79.6809 130.583 79.7064C130.988 79.7596 131.393 79.8134 131.798 79.8675C132.314 79.9363 132.83 80.003 133.347 80.0692C133.748 80.121 134.15 80.1744 134.551 80.2281C134.742 80.2533 134.932 80.278 135.122 80.3022C137.657 80.6246 137.657 80.6246 138.502 81.6496C138.901 82.2656 139.061 82.7054 138.979 83.447C138.718 84.6015 137.727 85.3665 136.915 86.1507C136.697 86.364 136.479 86.5777 136.262 86.7918C136.127 86.9239 135.992 87.0556 135.857 87.1867C135.513 87.5214 135.19 87.8645 134.879 88.2296C134.442 88.7387 133.965 89.1948 133.477 89.6539C133.294 89.8297 133.112 90.0057 132.929 90.1819C132.646 90.4559 132.361 90.7285 132.073 90.9974C130.989 91.9378 130.989 91.9378 130.284 93.1479C130.309 93.5346 130.405 93.8601 130.515 94.2319C130.57 94.5361 130.616 94.8412 130.662 95.1469C130.716 95.4997 130.775 95.8514 130.835 96.2031C130.965 96.9675 131.094 97.7323 131.221 98.4971C131.243 98.6244 131.264 98.7517 131.286 98.8829C131.458 99.9138 131.628 100.945 131.788 101.978C131.825 102.214 131.863 102.451 131.901 102.687C132.283 105.185 132.283 105.185 131.819 106.043C131.395 106.602 130.979 106.876 130.295 106.992C129.16 107.065 128.366 106.648 127.416 106.095C127.213 105.98 127.009 105.866 126.805 105.752C126.341 105.49 125.877 105.226 125.414 104.961C124.544 104.462 123.671 103.971 122.795 103.483C122.183 103.139 121.575 102.79 120.975 102.426C120.804 102.324 120.804 102.324 120.63 102.219C120.416 102.09 120.203 101.96 119.992 101.827C119.897 101.77 119.802 101.713 119.703 101.654C119.621 101.603 119.539 101.552 119.454 101.5C118.877 101.329 118.307 101.734 117.807 102.005C117.681 102.074 117.555 102.142 117.425 102.212C117.292 102.285 117.16 102.358 117.023 102.433C116.885 102.508 116.748 102.583 116.606 102.66C115.588 103.215 114.584 103.792 113.584 104.38C113.117 104.655 112.645 104.918 112.168 105.176C111.848 105.35 111.53 105.526 111.212 105.704C111.105 105.763 110.999 105.822 110.889 105.884C110.676 106.003 110.462 106.122 110.249 106.241C110.15 106.296 110.051 106.351 109.949 106.408C109.861 106.457 109.773 106.507 109.681 106.558C108.916 106.952 108.203 107.102 107.359 106.856C106.753 106.587 106.392 106.199 106.078 105.616C105.642 104.3 106.108 102.679 106.324 101.347C106.361 101.11 106.399 100.874 106.436 100.637C106.629 99.4147 106.831 98.1939 107.039 96.974C107.058 96.8583 107.078 96.7426 107.098 96.6235C107.192 96.0693 107.286 95.5154 107.384 94.9618C107.418 94.7622 107.452 94.5626 107.486 94.3629C107.502 94.2731 107.518 94.1832 107.535 94.0906C107.615 93.6184 107.645 93.2532 107.508 92.7939C107.318 92.5183 107.318 92.5183 107.063 92.2564C106.965 92.1518 106.868 92.0472 106.768 91.9394C106.21 91.3623 105.647 90.7918 105.078 90.2259C104.856 90.0045 104.634 89.7826 104.412 89.5606C103.782 88.9304 103.152 88.3009 102.521 87.6719C102.133 87.2848 101.745 86.8972 101.358 86.5093C101.211 86.3625 101.064 86.2159 100.917 86.0695C100.711 85.8652 100.506 85.6601 100.302 85.4548C100.241 85.3954 100.181 85.336 100.119 85.2748C99.4915 84.6419 99.0374 84.0425 99 83.1325C99.0089 82.4529 99.2039 81.9301 99.6407 81.4099C100.189 80.934 100.654 80.7241 101.381 80.6151C101.468 80.6015 101.555 80.588 101.644 80.574C101.93 80.5303 102.216 80.4905 102.502 80.4513C102.6 80.4373 102.698 80.4234 102.8 80.4091C103.438 80.3189 104.077 80.2346 104.716 80.1519C105.066 80.1056 105.415 80.0565 105.765 80.0066C106.865 79.8516 107.952 79.7169 109.062 79.6705C110.769 79.6284 110.769 79.6284 112.211 78.8423C112.694 78.1252 112.972 77.3351 113.228 76.5139C113.496 75.6549 113.871 74.8554 114.253 74.0429C114.447 73.6295 114.634 73.2133 114.821 72.797C114.857 72.7158 114.894 72.6346 114.931 72.5509C115.18 71.9978 115.425 71.443 115.667 70.8872C115.7 70.813 115.732 70.7388 115.765 70.6624C115.917 70.3158 116.068 69.969 116.217 69.6215C117.09 67.6197 117.09 67.6197 118.118 67.15C118.94 66.84 119.788 67.0351 120.502 67.5095Z" fill="#010100"/>
<path d="M119 73C119.403 73.3297 119.576 73.7775 119.784 74.2416C119.825 74.3301 119.865 74.4186 119.907 74.5098C120.039 74.7998 120.17 75.0903 120.301 75.3809C120.392 75.5814 120.484 75.7818 120.575 75.9823C121.011 76.9436 121.44 77.9078 121.856 78.8781C121.892 78.9608 121.927 79.0435 121.964 79.1287C122.13 79.5159 122.294 79.9036 122.457 80.2921C122.944 81.6016 122.944 81.6016 124 82.4088C124.546 82.5835 125.114 82.6477 125.68 82.7264C125.817 82.7464 125.954 82.7663 126.095 82.7869C126.532 82.8505 126.969 82.9124 127.406 82.9742C127.837 83.0363 128.267 83.0986 128.698 83.161C128.978 83.2015 129.258 83.2418 129.538 83.282C130.694 83.4484 131.847 83.6278 133 83.8155C132.55 84.3552 132.087 84.8689 131.587 85.3622C131.524 85.4254 131.46 85.4886 131.395 85.5537C131.128 85.82 130.86 86.0855 130.592 86.3511C129.92 87.0192 129.255 87.6837 128.641 88.4077C128.243 88.8617 127.8 89.2736 127.364 89.6902C126.676 90.3644 126.324 91.0091 126.285 91.9853C126.288 92.5878 126.396 93.1735 126.496 93.7662C126.516 93.8909 126.537 94.0156 126.558 94.144C126.623 94.5417 126.689 94.9393 126.755 95.3369C126.798 95.5995 126.842 95.862 126.885 96.1246C127.119 97.5532 127.119 97.5532 127.368 98.9793C127.385 99.0731 127.402 99.1669 127.419 99.2636C127.464 99.509 127.509 99.7544 127.554 99.9997C127.607 100.342 127.628 100.655 127.615 101C127.21 100.845 126.835 100.669 126.458 100.454C126.35 100.393 126.243 100.331 126.132 100.268C126.017 100.203 125.902 100.137 125.783 100.069C125.663 100 125.543 99.9315 125.419 99.8609C124.296 99.2188 123.18 98.5661 122.065 97.9103C121.956 97.8463 121.847 97.7824 121.735 97.7165C121.491 97.5729 121.249 97.4281 121.006 97.2825C120.879 97.2065 120.752 97.1305 120.621 97.0522C120.505 96.9827 120.39 96.9132 120.271 96.8416C119.711 96.5422 119.151 96.468 118.521 96.5536C118.153 96.6863 117.822 96.8704 117.482 97.0644C117.384 97.1184 117.285 97.1724 117.184 97.2281C116.871 97.4015 116.559 97.5781 116.248 97.7554C116.149 97.8113 116.05 97.8672 115.948 97.9248C114.997 98.4623 114.053 99.0114 113.11 99.5629C112.823 99.7306 112.536 99.898 112.249 100.065C112.04 100.187 111.832 100.31 111.623 100.432C111.497 100.506 111.37 100.58 111.24 100.656C111.126 100.723 111.013 100.789 110.897 100.857C110.624 101 110.624 101 110.385 101C110.585 99.4654 110.832 97.9418 111.103 96.4185C111.134 96.24 111.166 96.0614 111.197 95.8829C111.44 94.5122 111.44 94.5122 111.531 94.0015C111.587 93.6883 111.64 93.3748 111.693 93.0612C111.709 92.9771 111.724 92.893 111.74 92.8064C111.906 91.7926 111.804 91.0944 111.224 90.2533C110.737 89.6286 110.167 89.0834 109.604 88.5284C109.471 88.3956 109.338 88.2628 109.205 88.1298C108.857 87.7829 108.509 87.4371 108.16 87.0916C107.599 86.5355 107.04 85.9779 106.481 85.4202C106.285 85.2256 106.09 85.0316 105.894 84.8376C105.775 84.7196 105.656 84.6017 105.538 84.4837C105.434 84.3805 105.33 84.2772 105.222 84.1709C105 83.9356 105 83.9356 105 83.8155C105.404 83.7489 105.808 83.6843 106.212 83.6202C106.344 83.5991 106.477 83.578 106.613 83.5563C107.577 83.4073 108.542 83.2785 109.51 83.1592C109.757 83.1283 110.004 83.0974 110.252 83.0665C110.624 83.0202 110.996 82.9745 111.368 82.9308C111.721 82.8893 112.074 82.8455 112.427 82.8015C112.533 82.7897 112.638 82.778 112.747 82.7658C113.522 82.6664 114.194 82.4628 114.793 81.9408C115.37 81.1336 115.747 80.2288 116.143 79.324C116.222 79.1476 116.3 78.9711 116.379 78.7948C116.498 78.5264 116.618 78.2581 116.737 77.9895C117.112 77.1437 117.498 76.3033 117.886 75.4635C118.264 74.6451 118.638 73.8258 119 73Z" fill="#FFBB4D"/>
<path d="M24.273 24.3119C24.3289 24.3351 24.3848 24.3582 24.4424 24.3821C25.8037 24.9504 27.0884 25.6542 28.3458 26.4227C28.3927 26.4511 28.4395 26.4795 28.4878 26.5088C29.0339 26.8408 29.5601 27.1886 30.0677 27.5775C30.272 27.7367 30.272 27.7367 30.506 27.8427C30.5127 27.8877 30.5193 27.9326 30.5262 27.9789C30.5692 27.991 30.6122 28.0032 30.6565 28.0156C31.0914 28.1739 31.4538 28.5489 31.7986 28.8486C31.9223 28.9567 31.9223 28.9567 32.0565 29.0474C32.1589 29.1291 32.1589 29.1291 32.1792 29.2653C32.2358 29.2207 32.2925 29.1762 32.3508 29.1302C34.052 27.8159 36.2 27.2313 38.3428 27.4897C38.9784 27.5768 39.575 27.7085 40.1721 27.9464C40.3402 28.0029 40.3402 28.0029 40.4643 27.9186C40.6211 27.786 40.7319 27.6437 40.8538 27.4783C40.9017 27.4136 40.9496 27.3488 40.999 27.2821C41.0485 27.2144 41.0979 27.1467 41.1489 27.0769C41.1984 27.01 41.248 26.9431 41.2991 26.8742C41.5233 26.5696 41.7311 26.2677 41.92 25.9399C41.9915 25.85 42.0655 25.762 42.142 25.6764C42.3102 25.4835 42.4657 25.2877 42.6148 25.0797C42.8383 24.774 43.086 24.4977 43.3433 24.2201C43.5137 24.0353 43.6788 23.8466 43.844 23.6571C46.858 20.2849 51.1932 17.2102 55.8175 16.8457C57.3883 16.7706 58.963 17.3165 60.1548 18.3342C62.5739 20.5876 63.5919 24.0293 64.376 27.1327C64.3893 27.1829 64.4026 27.2332 64.4163 27.2849C64.5549 27.8259 64.6409 28.3723 64.7232 28.9243C64.7385 29.0258 64.7538 29.1274 64.7691 29.229C64.801 29.4415 64.8327 29.654 64.8642 29.8666C64.896 30.0807 64.9282 30.2947 64.9609 30.5086C65.1605 31.8146 65.3288 33.1105 65.3896 34.4318C65.3921 34.4844 65.3946 34.5369 65.3972 34.5911C65.4107 34.8845 65.4184 35.1776 65.422 35.4713C65.4231 35.5573 65.4243 35.6433 65.4254 35.7318C65.4306 36.609 65.3683 37.476 65.2745 38.3477C65.2686 38.4051 65.2627 38.4626 65.2566 38.5218C65.0831 40.1512 64.6012 41.7402 63.6836 43.1092C63.6463 43.1652 63.609 43.2211 63.5706 43.2788C62.7326 44.4709 61.37 45.3213 59.9475 45.6131C59.3594 45.7151 58.768 45.797 58.1764 45.8759C58.3303 46.0345 58.4844 46.1929 58.6385 46.3512C58.6865 46.4005 58.7345 46.4498 58.7839 46.5006C59.0786 46.8029 59.3754 47.1028 59.6742 47.401C62.5221 50.2451 62.5221 50.2451 62.5402 51.355C62.4955 51.8916 62.3466 52.3557 61.983 52.7605C60.889 53.6339 59.1846 53.4768 57.8654 53.5152C57.6962 53.5207 57.527 53.5263 57.3577 53.5319C56.8161 53.5497 56.2745 53.5672 55.7328 53.579C55.0345 53.5735 55.0345 53.5735 54.4053 53.8228C54.2942 53.9667 54.2142 54.1118 54.1314 54.2738C54.0674 54.3862 54.0033 54.4986 53.9392 54.6109C53.8676 54.7375 53.7977 54.8649 53.7282 54.9926C53.3279 55.7272 52.9073 56.4514 52.472 57.1657C52.4459 57.2088 52.4199 57.2518 52.3931 57.2961C51.3431 59.0269 51.3431 59.0269 50.4314 59.3097C49.832 59.4358 49.3208 59.3045 48.7904 59.0074C48.5116 58.7954 48.3226 58.5016 48.1243 58.217C48.0934 58.1726 48.0624 58.1282 48.0305 58.0825C47.6837 57.5812 47.3587 57.067 47.037 56.5494C47.0045 56.4971 46.9719 56.4448 46.9384 56.391C45.4939 54.0691 44.1267 51.7053 42.8146 49.3064C42.6331 48.9746 42.4502 48.6437 42.267 48.3128C41.6502 47.1973 41.0522 46.0727 40.4668 44.9404C40.4177 44.8457 40.4177 44.8457 40.3676 44.7491C40.2754 44.5709 40.1836 44.3926 40.0919 44.2141C40.0504 44.134 40.0504 44.134 40.0081 44.0523C39.9045 43.8494 39.8185 43.6802 39.7849 43.4533C39.7177 43.4746 39.6505 43.496 39.5813 43.5179C39.3331 43.588 39.0954 43.6332 38.8404 43.6699C38.7528 43.6827 38.6651 43.6955 38.5749 43.7086C38.4836 43.7216 38.3924 43.7345 38.3012 43.7475C38.2081 43.7609 38.1151 43.7744 38.022 43.788C37.7956 43.8208 37.5691 43.8532 37.3426 43.8854C37.3357 43.9248 37.3288 43.9641 37.3216 44.0047C36.4216 49.1162 35.369 54.232 33.9338 59.2233C33.8748 59.4297 33.8176 59.6364 33.7606 59.8433C33.5221 60.6924 33.2886 61.401 32.4927 61.8713C32.0146 62.1136 31.4513 62.1407 30.9404 61.9943C30.1501 61.6687 29.5125 61.0142 28.8874 60.4482C28.8387 60.4042 28.79 60.3602 28.7399 60.3148C28.2508 59.8711 27.7713 59.4179 27.2946 58.961C27.2142 58.884 27.1338 58.8071 27.0533 58.7303C26.9779 58.6584 26.9028 58.5864 26.8279 58.5141C26.7275 58.4184 26.6248 58.3252 26.5221 58.232C26.4378 58.1445 26.4378 58.1445 26.3517 58.0552C25.7928 57.7684 24.917 58.157 24.3433 58.3138C24.2516 58.3384 24.1599 58.363 24.0682 58.3874C23.6835 58.4902 23.2991 58.594 22.9148 58.6983C21.0434 59.2058 21.0434 59.2058 20.2374 59.3281C20.1586 59.3402 20.1586 59.3402 20.0782 59.3526C19.4915 59.4298 18.9806 59.3149 18.4887 58.989C17.9787 58.5539 17.7858 58.0443 17.7255 57.3852C17.6795 56.3435 18.4538 55.2419 18.914 54.3483C18.9456 54.2865 18.9773 54.2246 19.0099 54.1608C19.4568 53.2872 19.9177 52.4209 20.3792 51.5549C20.329 51.5613 20.2789 51.5677 20.2272 51.5744C17.8942 51.8679 16.1174 51.7289 14.1908 50.3003C12.5826 49.0295 11.5247 46.9524 10.8779 45.0445C10.8226 44.8819 10.7648 44.7202 10.707 44.5585C8.82779 39.1957 7.67432 31.6284 10.1611 26.317C10.9007 24.8944 11.9183 23.9018 13.3982 23.2802C13.4594 23.254 13.5207 23.2277 13.5838 23.2007C16.8603 21.9793 21.1655 23.0115 24.273 24.3119Z" fill="black"/>
<path d="M15.3918 25.338C15.438 25.3312 15.4841 25.3245 15.5316 25.3175C20.5341 24.5904 25.3407 27.0258 29.2523 29.9367C29.5655 30.1724 29.8685 30.4171 30.1609 30.6784C30.2215 30.732 30.2215 30.732 30.2833 30.7867C30.3766 30.8696 30.4695 30.953 30.5622 31.0366C30.4894 31.3072 30.3562 31.5231 30.2131 31.7628C29.6863 32.6821 29.4203 33.6804 29.2284 34.7156C28.9134 34.673 28.5997 34.6286 28.2877 34.5672C27.2139 34.3569 26.1224 34.2442 25.0332 34.3896C24.9742 34.3967 24.9153 34.4039 24.8545 34.4113C24.5725 34.4567 24.3833 34.5073 24.1837 34.7185C23.9432 35.0666 23.9219 35.276 23.9941 35.6841C24.0749 35.9923 24.2156 36.1607 24.4819 36.3286C24.8268 36.4831 25.1929 36.4434 25.5629 36.4344C26.2344 36.4281 26.8991 36.4454 27.5689 36.4935C27.6452 36.4987 27.7216 36.5039 27.8002 36.5092C28.3128 36.548 28.8126 36.6234 29.3172 36.7214C29.3274 36.7834 29.3376 36.8453 29.348 36.9091C29.6349 38.4491 30.3678 40.21 31.5761 41.2643C31.68 41.3835 31.68 41.3835 31.7047 41.5131C31.6223 41.7539 31.4538 41.9153 31.2809 42.0955C31.2414 42.1373 31.2019 42.1791 31.1611 42.2221C30.3485 43.0666 29.4548 43.8441 28.532 44.566C28.4831 44.6042 28.4342 44.6425 28.3839 44.6819C25.7413 46.7371 22.7053 48.7046 19.3377 49.2232C19.2385 49.2387 19.1395 49.2549 19.0405 49.2716C17.8669 49.4701 16.8962 49.3216 15.8982 48.6296C12.4384 45.9207 11.9644 40.1355 11.4711 36.0977C11.3857 35.3392 11.3439 34.5828 11.3419 33.8194C11.3409 33.692 11.3409 33.692 11.3399 33.562C11.332 31.396 11.4419 28.8427 12.6193 26.9461C12.6513 26.881 12.6833 26.816 12.7163 26.749C13.3688 25.789 14.3037 25.4975 15.3918 25.338Z" fill="#F4A99C"/>
<path d="M55.2465 19.4191C55.3318 19.405 55.4171 19.3909 55.5049 19.3764C56.5278 19.2203 57.3464 19.3468 58.1961 19.9425C60.0334 21.3095 60.8829 23.818 61.534 25.9268C61.5737 26.0549 61.5737 26.0549 61.6143 26.1857C62.042 27.6061 62.3156 29.0377 62.5267 30.5051C62.5394 30.5921 62.5521 30.6791 62.5651 30.7687C63.0654 34.2141 63.7137 38.7733 61.69 41.8731C60.9603 42.7999 60.0848 43.1839 58.9412 43.3472C58.8941 43.354 58.847 43.3608 58.7985 43.3679C55.6001 43.8262 52.3194 43.0358 49.3117 41.9696C49.245 41.946 49.1783 41.9224 49.1096 41.8981C45.4964 40.6008 45.4964 40.6008 44.4807 39.7032C44.4289 39.5613 44.4289 39.5613 44.5047 39.339C44.5473 39.2515 44.5911 39.1646 44.6357 39.078C44.6811 38.9837 44.7261 38.8891 44.7709 38.7944C44.7932 38.7474 44.8155 38.7004 44.8385 38.6519C45.4238 37.3724 45.4913 35.9292 45.3561 34.5501C45.7248 34.3068 46.0957 34.0898 46.4958 33.9024C46.5499 33.877 46.604 33.8515 46.6597 33.8253C47.5294 33.428 48.4391 33.1159 49.3431 32.8061C49.402 32.7857 49.4609 32.7653 49.5216 32.7443C49.5725 32.727 49.6234 32.7097 49.6759 32.6919C49.8775 32.6063 49.9854 32.4932 50.1066 32.3135C50.2274 32.0117 50.1976 31.7164 50.1114 31.4077C49.946 31.1033 49.7818 30.9466 49.4653 30.8073C49.2528 30.7975 49.0521 30.8291 48.8429 30.8649C48.7832 30.8746 48.7234 30.8843 48.6618 30.8943C47.4574 31.1094 46.3246 31.6413 45.2673 32.2438C45.0326 32.3703 45.0326 32.3703 44.8283 32.4006C44.8004 32.3502 44.8004 32.3502 44.772 32.2988C44.2219 31.3116 43.6498 30.3776 42.7839 29.6349C42.6602 29.5198 42.6602 29.5198 42.5617 29.3255C42.6067 29.3188 42.6517 29.3122 42.698 29.3053C42.71 29.2627 42.7221 29.2201 42.7345 29.1762C42.7961 29.0062 42.871 28.884 42.9753 28.7368C43.0115 28.6852 43.0477 28.6337 43.085 28.5806C43.1426 28.4995 43.1426 28.4995 43.2014 28.4169C43.2802 28.305 43.3588 28.193 43.4374 28.0811C43.4939 28.0006 43.4939 28.0006 43.5516 27.9186C43.6738 27.7422 43.7901 27.5625 43.905 27.3813C44.0689 27.1277 44.2487 26.9006 44.4481 26.6741C44.5803 26.5213 44.7073 26.3648 44.8335 26.207C47.1181 23.3532 50.1978 20.8032 53.7392 19.7298C53.8192 19.7048 53.8992 19.6797 53.9817 19.6539C54.3962 19.5411 54.8224 19.4838 55.2465 19.4191Z" fill="#F4A99C"/>
<path d="M42.8525 41.6057C43.0735 41.606 43.218 41.6643 43.4077 41.7732C43.4596 41.8026 43.5114 41.8319 43.5648 41.8621C43.6198 41.8938 43.6749 41.9255 43.7316 41.9582C43.8485 42.0241 43.9654 42.0899 44.0824 42.1556C44.1404 42.1882 44.1984 42.2208 44.2582 42.2545C46.0757 43.2662 48.0192 43.999 49.9887 44.6543C50.0767 44.6839 50.0767 44.6839 50.1665 44.7141C50.8822 44.9524 51.6029 45.1333 52.3411 45.2886C52.4652 45.3149 52.4652 45.3149 52.5918 45.3417C52.9688 45.4195 53.3432 45.4905 53.7252 45.5382C54.5723 45.6497 54.9989 45.8693 55.5368 46.5336C55.7392 46.7786 55.9597 47.007 56.1769 47.2388C56.2685 47.338 56.36 47.4373 56.4515 47.5366C57.1245 48.263 57.8274 48.9612 58.526 49.6627C58.8264 49.9646 59.1254 50.2676 59.4218 50.5733C59.4566 50.609 59.4913 50.6447 59.5271 50.6814C59.761 50.9237 59.761 50.9237 59.7723 51C59.2137 51.0502 58.6569 51.0704 58.0964 51.0833C56.7211 51.1183 55.3352 51.1584 53.9707 51.3432C53.909 51.3508 53.8473 51.3584 53.7837 51.3662C53.318 51.437 52.9794 51.5864 52.6865 51.9653C52.5835 52.1213 52.4893 52.2797 52.3977 52.4425C52.369 52.4927 52.3403 52.5428 52.3108 52.5944C52.2249 52.747 52.1411 52.9004 52.0577 53.0543C51.7992 53.5263 51.5344 53.9938 51.2621 54.4579C51.0969 54.7397 50.9337 55.0224 50.7725 55.3065C50.2803 56.1743 50.2803 56.1743 50.0724 56.4776C50.0274 56.4842 49.9825 56.4909 49.9361 56.4978C48.5099 54.3889 47.2209 52.2039 45.9757 49.9841C45.9348 49.9112 45.9348 49.9112 45.8931 49.8369C45.0978 48.4189 44.3193 46.9919 43.5442 45.5628C43.5037 45.4882 43.4632 45.4136 43.4214 45.3367C42.9132 44.4006 42.4175 43.4598 41.9419 42.5067C42.1085 42.2751 42.2709 42.1014 42.4951 41.9242C42.6888 41.7798 42.6888 41.7798 42.8525 41.6057Z" fill="#F4A99C"/>
<path d="M33.7946 42.9662C34.0212 43.0173 34.2283 43.113 34.4396 43.2072C34.5068 43.2366 34.5068 43.2366 34.5754 43.2666C34.6855 43.3148 34.7953 43.3634 34.9052 43.4122C34.8813 44.0386 34.7598 44.6466 34.6443 45.2611C34.6333 45.3204 34.6222 45.3796 34.6109 45.4407C32.791 55.1986 32.791 55.1986 31.3491 59.3263C31.3041 59.333 31.2592 59.3397 31.2128 59.3466C31.0878 59.2369 30.9708 59.1259 30.8537 59.0082C30.7799 58.9356 30.7062 58.8629 30.6323 58.7903C30.5941 58.7526 30.5558 58.7148 30.5164 58.6758C30.3316 58.4949 30.1432 58.3179 29.9548 58.1408C29.6743 57.8764 29.3954 57.6105 29.1183 57.3425C29.0169 57.2445 28.9156 57.1466 28.8142 57.0486C28.7284 56.9657 28.6427 56.8828 28.557 56.7999C28.4057 56.6536 28.2541 56.5077 28.1025 56.3619C28.0309 56.2925 28.0309 56.2925 27.9579 56.2217C27.418 55.6967 27.418 55.6967 26.7308 55.4167C26.5223 55.4245 26.335 55.4425 26.1303 55.4753C26.068 55.485 26.0057 55.4946 25.9415 55.5045C24.3676 55.7703 22.8016 56.2086 21.27 56.6543C20.9796 56.7385 20.6997 56.8091 20.3982 56.8438C20.4529 56.5111 20.6049 56.2568 20.7782 55.9737C21.1355 55.3754 21.4566 54.7614 21.7727 54.1404C21.8451 53.9983 21.918 53.8564 21.9912 53.7146C22.221 53.2686 22.4469 52.8207 22.6708 52.3716C22.7358 52.2415 22.8009 52.1114 22.8663 51.9814C23.0125 51.6902 23.1571 51.3986 23.2943 51.1029C23.3173 51.0547 23.3403 51.0065 23.364 50.9568C23.4244 50.8298 23.4834 50.7021 23.5423 50.5744C23.7215 50.3146 23.9212 50.2137 24.1988 50.0835C24.3322 50.0162 24.4655 49.9486 24.5987 49.8808C24.6727 49.8434 24.7468 49.806 24.8231 49.7675C27.9633 48.1705 31.3922 45.8789 33.5554 43.0549C33.6561 42.971 33.6561 42.971 33.7946 42.9662Z" fill="#F4A99C"/>
<path d="M40.0943 30.5268C41.3754 31.2615 42.1952 32.4016 42.7318 33.7557C42.7527 33.8072 42.7737 33.8588 42.7952 33.9119C43.158 35.0565 43.0819 36.314 42.7226 37.447C42.7033 37.5123 42.6839 37.5777 42.6639 37.645C42.2219 38.9954 41.2397 40.0856 39.9908 40.7471C38.5538 41.47 37.0574 41.5849 35.5264 41.0897C34.0341 40.5692 32.9253 39.5406 32.2199 38.131C31.5229 36.5798 31.4711 35.0183 32.0166 33.4182C32.1761 33.0056 32.3855 32.6339 32.6239 32.262C32.6524 32.2158 32.6809 32.1696 32.7102 32.1219C34.3037 29.7505 37.6799 29.1902 40.0943 30.5268Z" fill="#F4A99C"/>
</svg>
