<svg width="350" height="350" viewBox="0 0 350 350" fill="none" xmlns="http://www.w3.org/2000/svg">
<path d="M169.371 67.0678C173.751 69.12 176.186 73.702 178.315 77.8254C178.412 78.0127 178.509 78.2 178.61 78.3929C180.67 82.4108 182.71 86.9345 183.51 91.3903C183.72 91.4119 183.931 91.4335 184.148 91.4557C186.87 91.7986 189.333 92.5927 191.908 93.5166C192.748 93.7984 192.748 93.7984 193.611 93.9878C194.257 93.6405 194.819 93.2885 195.415 92.8694C195.779 92.6261 196.143 92.3837 196.508 92.1423C196.792 91.9544 196.792 91.9544 197.08 91.7628C202.222 88.4108 209.535 84.4813 215.834 85.3294C217.299 85.9462 217.848 86.8018 218.501 88.1874C219.828 91.8427 219.082 96.5554 218.63 100.319C218.594 100.625 218.559 100.93 218.522 101.244C218.354 102.562 218.165 103.827 217.771 105.097C217.447 106.177 217.21 107.003 217.277 108.13C218.109 109.35 219.126 110.207 220.249 111.151C221.054 111.875 221.707 112.702 222.364 113.559C222.494 113.728 222.624 113.897 222.757 114.07C229.535 123.025 232.745 133.221 234.793 144.159C235.653 148.723 236.577 152.838 238.923 156.906C239.17 157.349 239.415 157.792 239.66 158.236C240.028 158.902 240.398 159.567 240.771 160.231C244.371 166.647 246.268 173.244 246.229 180.626C246.228 180.837 246.228 181.048 246.227 181.265C246.212 184.384 246.103 187.359 245.273 190.385C245.219 190.587 245.164 190.789 245.109 190.997C241.763 203.092 232.444 212.095 221.831 218.165C220.054 219.165 218.255 220.106 216.412 220.978C218.091 222.244 219.771 223.505 221.48 224.73C224.388 226.842 227.087 229.18 229.688 231.657C229.861 231.821 230.034 231.986 230.212 232.156C234.717 236.477 238.613 241.241 241.232 246.953C245.591 242.574 247.683 237.552 248.773 231.535C249.168 229.436 249.606 227.55 251.226 226.047C252.401 225.274 253.085 225.192 254.509 225.307C257.383 226.119 259.197 228.821 260.624 231.278C265.084 239.295 266.155 248.483 263.744 257.343C263.692 257.538 263.639 257.733 263.585 257.934C261.796 264.343 258.087 269.802 253.643 274.66C253.427 274.897 253.21 275.134 252.988 275.378C245.709 282.982 233.625 289.827 222.953 290.274C222.408 290.264 221.863 290.255 221.318 290.245C221.338 290.509 221.358 290.773 221.379 291.045C221.565 293.623 221.656 296.186 221.665 298.772C221.666 298.961 221.667 299.151 221.668 299.346C221.672 300.348 221.675 301.35 221.676 302.353C221.677 303.166 221.681 303.978 221.688 304.791C221.749 312.562 221.749 312.562 221.241 316.055C221.21 316.273 221.179 316.492 221.147 316.717C220.591 319.957 218.841 323.142 216.292 325.237C210.279 329.333 202.612 330.164 195.541 328.866C190.956 327.759 186.852 325.527 184.303 321.452C182.373 318.007 181.718 314.669 181.778 310.737C181.477 310.787 181.477 310.787 181.17 310.838C180.243 310.992 179.315 311.144 178.387 311.296C178.072 311.349 177.756 311.402 177.432 311.456C173.637 312.073 169.92 312.234 166.083 312.234C165.317 312.234 164.551 312.239 163.785 312.245C158.82 312.261 154.024 311.742 149.164 310.737C149.16 311.02 149.156 311.303 149.152 311.595C149.014 316.333 147.633 320.835 144.348 324.392C139.243 329.124 132.465 329.479 125.88 329.266C123.832 329.143 121.953 328.704 120.014 328.054C119.7 327.949 119.385 327.845 119.061 327.737C115.177 326.28 111.979 323.669 110.22 319.885C108.758 316.176 108.713 312.284 108.72 308.348C108.72 307.988 108.72 307.629 108.719 307.258C108.719 306.499 108.72 305.739 108.721 304.98C108.722 303.848 108.721 302.717 108.719 301.585C108.718 297.84 108.76 294.1 108.885 290.357C108.896 290.025 108.907 289.692 108.918 289.35C109.219 281.218 110.586 273.099 112.222 265.136C112.072 265.194 111.923 265.252 111.769 265.312C106.304 267.424 101.444 268.776 95.7506 266.516C92.3651 264.957 89.6685 262.55 88.1947 259.095C86.5829 254.517 87.4132 250.327 89.3763 246.053C91.8726 240.918 95.5442 236.566 99.5228 232.523C99.8057 232.229 100.088 231.935 100.371 231.641C101.851 230.123 103.385 228.736 105.044 227.417C105.627 226.947 106.198 226.474 106.764 225.985C108.721 224.292 110.732 222.742 112.857 221.266C113.659 220.727 113.659 220.727 114.242 220.112C114.059 220.019 113.876 219.927 113.688 219.831C106.878 216.363 106.878 216.363 104.141 214.34C103.838 214.119 103.535 213.897 103.223 213.669C100.991 212.01 98.9371 210.196 96.9253 208.279C96.6824 208.055 96.4394 207.83 96.1891 207.599C89.2498 200.992 85.3664 192.074 85.011 182.547C84.7862 172.353 88.0354 163.889 93.1306 155.166C95.6829 150.672 96.469 145.556 97.4943 140.555C98.7891 134.275 100.435 128.193 103.563 122.561C103.797 122.121 103.797 122.121 104.036 121.672C105.896 118.303 108.33 115.277 110.815 112.351C110.956 112.184 111.097 112.017 111.243 111.844C111.918 111.062 112.597 110.342 113.39 109.678C114.876 108.476 114.876 108.476 115.477 106.754C115.323 105.747 115.075 104.787 114.819 103.801C113.77 98.3997 112.4 90.4253 115.361 85.4196C116.377 84.3139 117.009 83.9398 118.517 83.742C120.631 83.816 122.658 84.6256 124.632 85.3294C124.908 85.4269 125.183 85.5244 125.467 85.6248C127.483 86.409 129.401 87.4099 131.325 88.3959C131.615 88.5432 131.906 88.6905 132.206 88.8422C133.566 89.5496 134.819 90.2557 136 91.2381C138.001 92.9358 138.001 92.9358 140.505 93.3521C142.414 92.9787 144.202 92.3318 146.02 91.6547C147.248 91.2662 148.46 91.1521 149.742 91.1017C149.776 90.8936 149.81 90.6854 149.845 90.471C150.036 89.6345 150.315 88.9735 150.694 88.2054C150.832 87.9271 150.969 87.6488 151.111 87.3621C151.26 87.0663 151.41 86.7706 151.564 86.4658C151.719 86.1585 151.873 85.8512 152.033 85.5346C162.696 64.657 162.696 64.657 169.371 67.0678Z" fill="#ECECEB"/>
<path d="M169.371 67.0678C173.751 69.12 176.186 73.702 178.315 77.8254C178.412 78.0127 178.509 78.2 178.61 78.3929C180.67 82.4108 182.71 86.9345 183.51 91.3903C183.72 91.4119 183.931 91.4335 184.148 91.4557C186.87 91.7986 189.333 92.5927 191.908 93.5166C192.748 93.7984 192.748 93.7984 193.611 93.9878C194.257 93.6405 194.819 93.2885 195.415 92.8694C195.779 92.6261 196.143 92.3837 196.508 92.1423C196.792 91.9544 196.792 91.9544 197.08 91.7628C202.222 88.4108 209.535 84.4813 215.834 85.3294C217.299 85.9462 217.848 86.8018 218.501 88.1874C219.828 91.8427 219.082 96.5554 218.63 100.319C218.594 100.625 218.559 100.93 218.522 101.244C218.354 102.562 218.165 103.827 217.771 105.097C217.447 106.177 217.21 107.003 217.277 108.13C218.109 109.35 219.126 110.207 220.249 111.151C221.054 111.875 221.707 112.702 222.364 113.559C222.494 113.728 222.624 113.897 222.757 114.07C229.535 123.025 232.745 133.221 234.793 144.159C235.653 148.723 236.577 152.838 238.923 156.906C239.17 157.349 239.415 157.792 239.66 158.236C240.028 158.902 240.398 159.567 240.771 160.231C244.371 166.647 246.268 173.244 246.229 180.626C246.228 180.837 246.228 181.048 246.227 181.265C246.212 184.384 246.103 187.359 245.273 190.385C245.219 190.587 245.164 190.789 245.109 190.997C241.763 203.092 232.444 212.095 221.831 218.165C220.054 219.165 218.255 220.106 216.412 220.978C218.091 222.244 219.771 223.505 221.48 224.73C224.388 226.842 227.087 229.18 229.688 231.657C229.861 231.821 230.034 231.986 230.212 232.156C234.717 236.477 238.613 241.241 241.232 246.953C245.591 242.574 247.683 237.552 248.773 231.535C249.168 229.436 249.606 227.55 251.226 226.047C252.401 225.274 253.085 225.192 254.509 225.307C257.383 226.119 259.197 228.821 260.624 231.278C265.084 239.295 266.155 248.483 263.744 257.343C263.692 257.538 263.639 257.733 263.585 257.934C261.796 264.343 258.087 269.802 253.643 274.66C253.427 274.897 253.21 275.134 252.988 275.378C245.709 282.982 233.625 289.827 222.953 290.274C222.408 290.264 221.863 290.255 221.318 290.245C221.338 290.509 221.358 290.773 221.379 291.045C221.565 293.623 221.656 296.186 221.665 298.772C221.666 298.961 221.667 299.151 221.668 299.346C221.672 300.348 221.675 301.35 221.676 302.353C221.677 303.166 221.681 303.978 221.688 304.791C221.749 312.562 221.749 312.562 221.241 316.055C221.21 316.273 221.179 316.492 221.147 316.717C220.591 319.957 218.841 323.142 216.292 325.237C210.279 329.333 202.612 330.164 195.541 328.866C190.956 327.759 186.852 325.527 184.303 321.452C182.373 318.007 181.718 314.669 181.778 310.737C181.477 310.787 181.477 310.787 181.17 310.838C180.243 310.992 179.315 311.144 178.387 311.296C178.072 311.349 177.756 311.402 177.432 311.456C173.637 312.073 169.92 312.234 166.083 312.234C165.317 312.234 164.551 312.239 163.785 312.245C158.82 312.261 154.024 311.742 149.164 310.737C149.16 311.02 149.156 311.303 149.152 311.595C149.014 316.333 147.633 320.835 144.348 324.392C139.243 329.124 132.465 329.479 125.88 329.266C123.832 329.143 121.953 328.704 120.014 328.054C119.7 327.949 119.385 327.845 119.061 327.737C115.177 326.28 111.979 323.669 110.22 319.885C108.758 316.176 108.713 312.284 108.72 308.348C108.72 307.988 108.72 307.629 108.719 307.258C108.719 306.499 108.72 305.739 108.721 304.98C108.722 303.848 108.721 302.717 108.719 301.585C108.718 297.84 108.76 294.1 108.885 290.357C108.896 290.025 108.907 289.692 108.918 289.35C109.219 281.218 110.586 273.099 112.222 265.136C112.072 265.194 111.923 265.252 111.769 265.312C106.304 267.424 101.444 268.776 95.7506 266.516C92.3651 264.957 89.6685 262.55 88.1947 259.095C86.5829 254.517 87.4132 250.327 89.3763 246.053C91.8726 240.918 95.5442 236.566 99.5228 232.523C99.8057 232.229 100.088 231.935 100.371 231.641C101.851 230.123 103.385 228.736 105.044 227.417C105.627 226.947 106.198 226.474 106.764 225.985C108.721 224.292 110.732 222.742 112.857 221.266C113.659 220.727 113.659 220.727 114.242 220.112C114.059 220.019 113.876 219.927 113.688 219.831C106.878 216.363 106.878 216.363 104.141 214.34C103.838 214.119 103.535 213.897 103.223 213.669C100.991 212.01 98.9371 210.196 96.9253 208.279C96.6824 208.055 96.4394 207.83 96.1891 207.599C89.2498 200.992 85.3664 192.074 85.011 182.547C84.7862 172.353 88.0354 163.889 93.1306 155.166C95.6829 150.672 96.469 145.556 97.4943 140.555C98.7891 134.275 100.435 128.193 103.563 122.561C103.797 122.121 103.797 122.121 104.036 121.672C105.896 118.303 108.33 115.277 110.815 112.351C110.956 112.184 111.097 112.017 111.243 111.844C111.918 111.062 112.597 110.342 113.39 109.678C114.876 108.476 114.876 108.476 115.477 106.754C115.323 105.747 115.075 104.787 114.819 103.801C113.77 98.3997 112.4 90.4253 115.361 85.4196C116.377 84.3139 117.009 83.9398 118.517 83.742C120.631 83.816 122.658 84.6256 124.632 85.3294C124.908 85.4269 125.183 85.5244 125.467 85.6248C127.483 86.409 129.401 87.4099 131.325 88.3959C131.615 88.5432 131.906 88.6905 132.206 88.8422C133.566 89.5496 134.819 90.2557 136 91.2381C138.001 92.9358 138.001 92.9358 140.505 93.3521C142.414 92.9787 144.202 92.3318 146.02 91.6547C147.248 91.2662 148.46 91.1521 149.742 91.1017C149.776 90.8936 149.81 90.6854 149.845 90.471C150.036 89.6345 150.315 88.9735 150.694 88.2054C150.832 87.9271 150.969 87.6488 151.111 87.3621C151.26 87.0663 151.41 86.7706 151.564 86.4658C151.719 86.1585 151.873 85.8512 152.033 85.5346C162.696 64.657 162.696 64.657 169.371 67.0678ZM154.202 96.5624C152.769 97.1927 151.225 97.5241 149.714 97.9222C141.667 100.06 134.1 103.382 127.23 108.13C127.065 108.242 126.901 108.354 126.731 108.47C124.323 110.117 122.059 111.894 119.864 113.817C119.466 114.166 119.064 114.512 118.663 114.857C115.378 117.732 112.835 120.924 110.49 124.581C110.382 124.749 110.274 124.916 110.163 125.089C106.496 130.885 104.97 137.374 103.571 144.004C103.522 144.239 103.472 144.473 103.42 144.715C103.173 145.884 102.928 147.053 102.691 148.224C101.94 151.868 100.797 155.167 98.9997 158.439C98.7458 158.913 98.4921 159.387 98.2387 159.862C98.0521 160.209 98.0521 160.209 97.8618 160.564C93.235 169.207 89.6224 178.832 92.5228 188.709C92.6411 189.076 92.7617 189.442 92.8847 189.808C92.945 189.991 93.0054 190.174 93.0675 190.362C96.6365 200.866 105.751 208.28 115.405 213.086C118.285 214.466 121.267 215.575 124.267 216.665C127.695 217.924 127.695 217.924 128.384 218.958C128.276 220.022 128.276 220.022 128.096 220.978C127.842 221.057 127.589 221.136 127.328 221.218C116.698 224.938 106.468 233.429 99.8115 242.335C99.6852 242.502 99.559 242.668 99.429 242.84C98.0175 244.707 96.7383 246.605 95.6266 248.667C95.5324 248.841 95.4382 249.015 95.3411 249.194C94.1613 251.463 93.5867 253.778 94.2072 256.293C94.9838 258.35 96.5008 259.866 98.4563 260.854C101.511 261.985 104.44 261.226 107.345 259.966C108.629 259.368 109.861 258.7 111.076 257.972C111.589 257.665 112.111 257.374 112.634 257.085C115.782 254.991 116.409 251.487 117.45 248.04C117.893 246.659 118.219 245.745 119.437 244.933C120.696 244.77 121.255 244.791 122.305 245.528C123.06 246.603 122.987 247.098 122.901 248.396C122.729 249.182 122.542 249.936 122.32 250.706C122.26 250.923 122.2 251.14 122.138 251.363C122.009 251.825 121.88 252.287 121.75 252.748C121.408 253.96 121.078 255.175 120.746 256.39C120.681 256.627 120.616 256.865 120.549 257.11C117.958 266.59 116.572 276.483 115.649 286.259C115.616 286.603 115.616 286.603 115.583 286.953C115.142 291.959 115.054 296.97 115.055 301.992C115.054 303.019 115.049 304.046 115.043 305.073C114.723 312.939 114.723 312.939 117.783 319.875C121.12 322.458 124.851 322.674 128.907 322.678C129.276 322.686 129.644 322.693 130.024 322.7C133.507 322.711 136.971 322.078 139.64 319.684C142.514 316.675 142.679 311.824 143.067 307.898C143.355 305.19 143.355 305.19 144.258 304.099C146.226 303.115 149.118 304.085 151.149 304.496C161.485 306.477 172.421 306.565 182.678 303.943C183.805 303.668 184.96 303.671 186.107 303.81C187.076 304.472 187.327 305.004 187.55 306.119C187.601 306.62 187.641 307.123 187.674 307.625C188.025 314.484 188.025 314.484 191.681 320.063C194.754 322.496 198.464 322.671 202.233 322.66C202.577 322.665 202.92 322.67 203.274 322.675C207.076 322.677 210.255 322.032 213.038 319.323C215.578 315.185 215.346 310.436 215.311 305.758C215.308 305.183 215.306 304.608 215.303 304.033C215.294 302.419 215.277 300.806 215.257 299.192C215.253 298.829 215.249 298.465 215.245 298.09C215.013 282.545 212.521 266.597 208.457 251.61C207.955 249.716 207.571 248.049 207.753 246.087C208.488 245.202 208.933 244.977 210.062 244.789C211.164 244.972 211.574 245.308 212.371 246.087C212.762 247.021 212.762 247.021 213.064 248.119C213.182 248.522 213.301 248.925 213.421 249.327C213.482 249.535 213.543 249.743 213.605 249.958C214.834 254.404 214.834 254.404 218.024 257.505C218.536 257.758 219.061 257.984 219.586 258.209C219.94 258.397 220.291 258.589 220.64 258.784C223.86 260.554 227.161 261.803 230.851 260.876C232.923 260.171 234.285 259.428 235.406 257.506C236.526 255.08 236.333 252.728 235.442 250.254C233.365 245.42 230.124 241.481 226.513 237.718C226.344 237.539 226.175 237.361 226.001 237.177C220.22 231.099 213.48 226.823 206.07 222.995C205.735 222.82 205.4 222.645 205.055 222.465C204.604 222.233 204.604 222.233 204.144 221.996C203.424 221.555 203.424 221.555 202.847 220.689C202.738 219.824 202.738 219.824 202.847 218.958C203.854 217.907 205.26 217.685 206.617 217.316C218.892 213.789 230.23 206.11 236.539 194.829C237.589 192.856 238.314 190.798 238.923 188.653C239.021 188.311 239.119 187.969 239.22 187.616C241.655 177.472 237.691 167.954 232.665 159.323C232.538 159.102 232.411 158.881 232.28 158.653C232.044 158.245 231.805 157.839 231.56 157.437C229.087 153.166 228.518 148.012 227.674 143.236C225.852 132.994 222.272 124.056 214.969 116.5C214.737 116.254 214.506 116.008 214.268 115.755C212.353 113.764 210.252 112.085 208.042 110.439C207.763 110.23 207.763 110.23 207.479 110.017C199.225 103.873 189.973 99.6404 179.944 97.3308C178.397 96.9612 178.397 96.9612 177.905 96.4389C176.971 95.5568 175.484 95.6544 174.256 95.5211C173.767 95.4666 173.767 95.4666 173.267 95.411C170.452 95.1309 167.65 95.0566 164.822 95.0521C164.618 95.0511 164.413 95.0501 164.203 95.049C159.051 95.0275 159.051 95.0275 154.202 96.5624Z" fill="black"/>
<path d="M179.204 235.155C179.892 235.701 180.548 236.265 181.2 236.852C181.483 237.077 181.765 237.303 182.056 237.535C184.725 239.755 186.547 243.05 188.127 246.088C188.223 246.269 188.319 246.45 188.418 246.637C191.579 252.685 193.35 259.474 193.611 266.291C193.62 266.486 193.63 266.681 193.639 266.883C194.004 275.182 191.811 282.794 186.322 289.135C182.469 293.131 177.581 295.3 172.253 296.595C171.835 296.702 171.835 296.702 171.408 296.81C163.995 298.368 155.555 296.847 149.164 292.843C148.145 292.13 147.205 291.363 146.278 290.534C146.038 290.321 145.797 290.108 145.55 289.888C140.298 284.951 137.531 277.557 137.248 270.432C136.995 259.063 140.626 246.797 148.519 238.373C156.767 229.996 169.392 228.403 179.204 235.155Z" fill="#F2D3A3"/>
<path d="M179.204 235.155C179.892 235.701 180.548 236.265 181.2 236.852C181.483 237.077 181.765 237.303 182.056 237.535C184.725 239.755 186.547 243.05 188.127 246.088C188.223 246.269 188.319 246.45 188.418 246.637C191.579 252.685 193.35 259.474 193.611 266.291C193.62 266.486 193.63 266.681 193.639 266.883C194.004 275.182 191.811 282.794 186.322 289.135C182.469 293.131 177.581 295.3 172.253 296.595C171.835 296.702 171.835 296.702 171.408 296.81C163.995 298.368 155.555 296.847 149.164 292.843C148.145 292.13 147.205 291.363 146.278 290.534C146.038 290.321 145.797 290.108 145.55 289.888C140.298 284.951 137.531 277.557 137.248 270.432C136.995 259.063 140.626 246.797 148.519 238.373C156.767 229.996 169.392 228.403 179.204 235.155ZM152.159 244.103C145.984 252.043 143.084 262.467 144.033 272.45C144.71 277.531 146.983 282.589 150.986 285.889C156.622 290.008 163.554 291.418 170.422 290.357C175.422 289.396 180.169 286.801 183.256 282.704C187.45 276.296 187.907 268.244 186.513 260.857C186.388 260.26 186.251 259.668 186.107 259.075C186.059 258.875 186.011 258.674 185.961 258.467C184.483 252.494 181.819 246.729 177.448 242.336C177.278 242.156 177.108 241.976 176.933 241.79C173.683 238.618 169.322 237.319 164.899 237.321C159.769 237.454 155.421 240.284 152.159 244.103Z" fill="black"/>
<path d="M254.797 234.543C254.988 234.543 255.178 234.543 255.375 234.543C255.703 235.444 256.026 236.346 256.349 237.249C256.44 237.5 256.532 237.751 256.626 238.01C259.188 245.216 258.608 253.505 255.41 260.422C254.955 261.343 254.456 262.233 253.931 263.116C253.75 263.423 253.569 263.73 253.382 264.046C247.261 273.748 236.462 280.241 225.461 282.82C225.142 282.89 224.822 282.959 224.493 283.03C224.143 283.116 224.143 283.116 223.786 283.204C222.763 283.364 221.776 283.336 220.741 283.319C220.112 279.984 219.616 276.638 219.151 273.276C218.843 271.086 218.476 268.931 217.975 266.778C217.857 266.015 217.889 265.567 218.143 264.847C218.35 264.942 218.556 265.036 218.769 265.133C221.995 266.547 224.927 267.228 228.443 267.265C228.693 267.269 228.944 267.273 229.201 267.277C233.157 267.248 236.339 265.54 239.201 262.885C241.049 260.892 242.121 258.422 242.549 255.756C243.103 254.407 243.971 253.766 245.067 252.831C250.386 248.2 253.762 241.463 254.797 234.543Z" fill="#3A9592"/>
<path d="M123.117 163.039C126.261 165.155 128.089 168.236 128.961 171.914C129.345 176.217 128.451 179.702 125.786 183.17C123.89 185.347 120.585 187.288 117.676 187.555C113.701 187.697 110.589 187.414 107.315 184.901C107.082 184.746 107.082 184.746 106.845 184.587C105.585 183.66 104.823 182.51 104.05 181.168C103.953 180.999 103.855 180.83 103.755 180.656C102.089 177.629 101.932 174.031 102.597 170.674C103.922 166.739 106.318 163.983 109.985 162.137C114.403 159.986 118.974 160.589 123.117 163.039Z" fill="#F4A99C"/>
<path d="M223.519 163.342C226.274 165.313 228.121 168.219 229.025 171.494C229.531 175.679 228.818 179.478 226.225 182.881C223.817 185.53 220.722 187.255 217.121 187.596C213.427 187.636 210.701 186.834 207.753 184.613C207.378 184.363 207.378 184.363 206.996 184.108C204.517 181.76 203.082 178.575 202.778 175.188C202.676 171.268 203.993 167.656 206.671 164.771C207.862 163.658 209.194 162.844 210.639 162.101C210.831 162.002 211.022 161.903 211.219 161.801C215.136 160.158 220.077 161.121 223.519 163.342Z" fill="#F4A99C"/>
<path d="M138.197 183.458C139.146 184.207 139.765 185.237 140.437 186.227C144.528 192.135 151.253 194.878 158.112 196.157C167.452 197.767 178.228 196.912 186.223 191.463C187.078 190.842 187.896 190.198 188.705 189.519C188.896 189.36 189.088 189.201 189.285 189.038C190.686 187.763 191.564 186.186 192.487 184.553C193.03 183.753 193.286 183.463 194.188 183.17C195.172 183.065 195.781 183.111 196.696 183.494C197.557 184.192 197.872 184.715 198.229 185.767C198.279 188.778 196.295 191.028 194.323 193.126C186.983 200.582 176.997 203.557 166.68 203.715C155.58 203.679 145.423 200.789 137.259 193.018C135.298 191.02 133.45 188.697 133.477 185.787C133.662 184.71 134.242 184.202 135.023 183.458C136.147 183.083 137.082 183.087 138.197 183.458Z" fill="black"/>
<path d="M167.635 75.5166C171.497 77.3172 173.651 84.8922 175.011 88.6119C175.892 91.0546 176.774 93.4991 177.448 96.0082C175.927 96.0351 174.52 95.94 173.011 95.7196C170.347 95.3836 167.682 95.3653 165.002 95.3588C164.796 95.3574 164.59 95.3559 164.378 95.3545C161.38 95.3373 158.479 95.5708 155.514 96.0082C155.742 94.7288 156.185 93.6765 156.776 92.5268C156.878 92.3269 156.98 92.127 157.085 91.921C157.424 91.2614 157.767 90.6042 158.111 89.9473C158.228 89.7225 158.345 89.4977 158.466 89.2661C159.965 86.4045 161.578 83.6413 163.36 80.9462C163.521 80.7013 163.682 80.4564 163.848 80.2041C164.984 78.5178 166.251 77.0048 167.635 75.5166Z" fill="#3A9592"/>
<path d="M204.921 145.523C206.798 146.594 207.974 148.233 208.707 150.247C209.297 152.851 209.314 155.891 208.136 158.325C207.029 160.062 205.712 161.216 203.712 161.812C201.885 162.015 200.602 161.731 199.095 160.658C197.174 158.922 196.136 156.846 195.851 154.263C195.765 151.554 196.424 149.162 198.193 147.075C200.139 145.096 202.3 144.361 204.921 145.523Z" fill="black"/>
<path d="M132.194 145.318C134.288 146.491 135.668 148.417 136.33 150.706C136.904 153.74 136.408 156.553 134.806 159.179C133.996 160.292 133.207 161.153 131.848 161.524C129.79 161.797 127.971 161.803 126.263 160.53C124.153 158.536 123.505 156.233 123.388 153.388C123.414 150.927 124.286 148.273 126.075 146.516C127.912 145.084 129.951 144.45 132.194 145.318Z" fill="black"/>
<path d="M212.371 92.5449C212.519 95.1832 212.308 97.6315 211.83 100.229C211.78 100.503 211.73 100.776 211.678 101.058C211.435 102.316 211.187 103.498 210.64 104.667C208.633 103.407 206.653 102.115 204.692 100.786C203.527 100.002 202.341 99.2895 201.115 98.6058C202.116 97.4776 203.27 96.7903 204.561 96.0444C204.885 95.8552 204.885 95.8552 205.216 95.6623C210.641 92.5449 210.641 92.5449 212.371 92.5449Z" fill="#3A9592"/>
<path d="M121.169 91.9673C122.934 92.5032 124.544 93.1637 126.165 94.0417C126.48 94.2099 126.48 94.2099 126.801 94.3815C128.658 95.3901 130.41 96.5192 132.136 97.7396C131.005 98.7078 129.831 99.4021 128.528 100.103C126.603 101.157 124.814 102.323 123.038 103.612C122.323 104.089 122.323 104.089 121.746 104.089C120.992 100.07 121.111 96.0407 121.169 91.9673Z" fill="#3A9592"/>
<path d="M152.916 170.182C154.535 170.924 155.802 171.898 156.498 173.564C156.83 174.848 156.877 176.089 156.668 177.397C156.148 178.264 155.83 178.682 154.937 179.129C153.472 179.369 152.337 179.269 151.094 178.426C149.738 177.275 149.072 175.922 148.767 174.181C148.678 172.718 149.111 171.863 150.03 170.759C151.14 170.02 151.595 170.012 152.916 170.182Z" fill="black"/>
<path d="M181.489 170.182C182.334 170.706 183.058 171.299 183.509 172.202C183.737 174.137 183.637 175.608 182.48 177.208C181.332 178.533 180.388 179.078 178.639 179.219C177.699 179.209 177.443 179.125 176.601 178.606C175.626 177.572 175.616 176.561 175.638 175.205C175.859 173.257 176.931 172.001 178.405 170.796C179.404 170.126 180.32 170.044 181.489 170.182Z" fill="black"/>
<path d="M130.739 121.14C130.831 121.152 130.923 121.165 131.018 121.177C134.155 121.6 138.497 122.214 140.632 124.861C141.033 125.455 141.236 125.841 141.124 126.575C140.983 127.033 140.686 127.383 140.323 127.689C139.751 127.947 139.232 127.855 138.642 127.691C138.14 127.456 137.67 127.171 137.196 126.885C135.397 125.818 133.69 125.275 131.621 124.974C131.393 124.941 131.393 124.941 131.16 124.907C129.796 124.723 128.442 124.662 127.079 124.884C126.993 124.897 126.906 124.911 126.816 124.924C126.151 125.032 125.503 125.184 124.854 125.369C124.239 125.53 123.611 125.577 123.029 125.269C122.686 125.028 122.501 124.825 122.301 124.453C122.19 123.781 122.24 123.15 122.571 122.547C123.247 121.973 124.038 121.734 124.884 121.533C124.991 121.507 125.098 121.481 125.208 121.455C127.02 121.042 128.895 120.889 130.739 121.14Z" fill="black"/>
<path d="M210.392 133.696C210.511 133.759 210.511 133.759 210.632 133.824C211.248 134.186 211.743 134.655 211.98 135.388C212.04 136.121 211.978 136.616 211.625 137.27C211.132 137.779 210.705 138.011 210.016 138C209.342 137.9 208.7 137.604 208.062 137.356C206.311 136.676 204.748 136.388 202.888 136.394C202.756 136.394 202.756 136.394 202.623 136.394C200.349 136.403 198.058 136.625 195.935 137.566C195.285 137.843 194.737 137.86 194.056 137.682C193.457 137.314 193.247 136.876 193.044 136.17C192.96 135.526 192.98 135.074 193.25 134.486C194.358 133.091 195.749 132.812 197.38 132.544C197.633 132.502 197.885 132.458 198.137 132.413C202.108 131.737 206.705 131.717 210.392 133.696Z" fill="black"/>
<path d="M254.541 119.578C258.889 119.999 263.035 121.497 266.199 124.563L266.502 124.866L266.534 124.898C269.434 128.003 270.581 131.829 270.211 135.712L270.209 135.725C269.693 140.788 266.539 144.227 262.709 146.955L262.705 146.957C262.584 147.043 262.461 147.129 262.339 147.215L262.34 147.216C262.277 147.26 262.215 147.304 262.151 147.349L262.151 147.35C261.832 147.576 261.512 147.801 261.19 148.026C259.981 148.875 259.272 149.618 258.802 150.388C258.329 151.163 258.015 152.101 257.79 153.468L257.788 153.479L257.786 153.488C257.77 153.582 257.754 153.675 257.737 153.771C257.725 153.847 257.712 153.923 257.699 154.001L257.676 154.147L257.631 154.288C257.417 154.957 257.088 155.402 256.642 155.812L256.378 156.055L256.047 156.191C255.164 156.553 254.456 156.58 253.683 156.504L253.684 156.505C253.575 156.495 253.575 156.496 253.464 156.485L253.461 156.485C253.215 156.461 252.972 156.436 252.736 156.411C252.573 156.395 252.409 156.379 252.246 156.362L252.244 156.362C251.893 156.327 251.542 156.292 251.193 156.255C250.756 156.21 250.317 156.166 249.875 156.123L248.355 155.97C248.116 155.947 247.88 155.922 247.649 155.897C247.522 155.884 247.396 155.872 247.265 155.858L247.165 155.847L247.066 155.828C246.054 155.62 245.475 155.125 245.051 154.735L244.786 154.491L244.623 154.169C244.046 153.036 244.296 151.905 244.331 151.623C244.343 151.523 244.354 151.423 244.366 151.32L244.367 151.31L244.369 151.3C244.675 148.851 245.391 146.759 246.629 144.889C247.856 143.035 249.526 141.504 251.588 140.078L251.602 140.069L251.615 140.06C251.945 139.839 252.281 139.634 252.575 139.455C253.56 138.839 254.467 138.154 255.266 137.404L255.278 137.391L255.291 137.38C255.366 137.311 255.442 137.241 255.52 137.17C256.612 136.143 257.037 135.19 257.065 133.882C256.992 133.306 256.678 132.683 256.123 132.189C255.378 131.674 254.566 131.358 253.575 131.209L253.565 131.208C253.486 131.195 253.406 131.182 253.325 131.17C251.93 130.993 250.829 131.138 249.957 131.636C249.059 132.26 248.362 133.064 247.586 134.101L247.581 134.11C247.535 134.17 247.489 134.229 247.443 134.291L247.314 134.468L247.236 134.574L247.146 134.669C246.492 135.357 245.763 135.587 245.16 135.703L244.958 135.742L244.753 135.738C243.674 135.722 242.66 135.252 242.002 134.912C241.64 134.724 241.292 134.523 241.002 134.356C240.693 134.178 240.467 134.049 240.277 133.953L240.277 133.952C239.997 133.809 239.715 133.668 239.432 133.525L239.43 133.524C239.249 133.432 239.068 133.34 238.887 133.248L238.887 133.249C238.803 133.207 238.719 133.164 238.633 133.12L238.629 133.119C238.03 132.815 237.559 132.579 237.229 132.361C236.734 132.033 236.483 131.704 236.302 131.473L236.05 131.151L235.944 130.757C235.564 129.345 236.042 128.252 236.582 127.447L236.581 127.447C236.64 127.357 236.64 127.357 236.7 127.265L236.71 127.25C237.853 125.543 239.213 124.149 240.876 122.893C240.963 122.826 241.051 122.758 241.142 122.689L241.156 122.678L241.168 122.669C243.552 120.89 246.315 119.918 249.261 119.518L249.261 119.519C249.343 119.507 249.424 119.495 249.508 119.483L249.519 119.481L249.53 119.48C251.218 119.258 252.849 119.415 254.261 119.553C254.351 119.561 254.442 119.569 254.536 119.578L254.541 119.578Z" fill="#FFF288" stroke="black" stroke-width="4"/>
<path d="M245.073 157.499C247.972 155.852 252.149 155.733 255.043 158.108L255.32 158.346L255.366 158.39C255.467 158.487 255.468 158.488 255.57 158.587L255.767 158.772L255.787 158.792L255.808 158.813C257.414 160.429 258.014 162.468 257.911 164.454L257.906 164.539L257.895 164.624C257.625 166.573 256.584 168.313 254.939 169.521L254.894 169.552L254.849 169.582C252.603 171.05 250.43 171.189 248.086 170.882L248.057 170.878L248.028 170.874C245.911 170.533 244.352 169.285 243.27 168.082L243.231 168.037L243.194 167.991C241.827 166.279 241.422 164.247 241.716 162.311L241.726 162.251L241.738 162.191C242.151 160.263 243.306 158.68 244.946 157.579L245.008 157.537L245.073 157.499Z" fill="#FFF288" stroke="black" stroke-width="4"/>
<path d="M110.273 90.3119C110.329 90.3351 110.385 90.3582 110.442 90.3821C111.804 90.9504 113.088 91.6542 114.346 92.4227C114.393 92.4511 114.44 92.4795 114.488 92.5088C115.034 92.8408 115.56 93.1886 116.068 93.5775C116.272 93.7367 116.272 93.7367 116.506 93.8427C116.513 93.8877 116.519 93.9326 116.526 93.9789C116.569 93.991 116.612 94.0032 116.656 94.0156C117.091 94.1739 117.454 94.5489 117.799 94.8486C117.922 94.9567 117.922 94.9567 118.057 95.0474C118.159 95.1291 118.159 95.1291 118.179 95.2653C118.236 95.2207 118.292 95.1762 118.351 95.1302C120.052 93.8159 122.2 93.2313 124.343 93.4897C124.978 93.5768 125.575 93.7085 126.172 93.9464C126.34 94.0029 126.34 94.0029 126.464 93.9186C126.621 93.786 126.732 93.6437 126.854 93.4783C126.902 93.4136 126.95 93.3488 126.999 93.2821C127.048 93.2144 127.098 93.1467 127.149 93.0769C127.198 93.01 127.248 92.9431 127.299 92.8742C127.523 92.5696 127.731 92.2677 127.92 91.9399C127.992 91.85 128.065 91.762 128.142 91.6764C128.31 91.4835 128.466 91.2877 128.615 91.0797C128.838 90.774 129.086 90.4977 129.343 90.2201C129.514 90.0353 129.679 89.8466 129.844 89.6571C132.858 86.2849 137.193 83.2102 141.818 82.8457C143.388 82.7706 144.963 83.3165 146.155 84.3342C148.574 86.5876 149.592 90.0293 150.376 93.1327C150.389 93.1829 150.403 93.2332 150.416 93.2849C150.555 93.8259 150.641 94.3723 150.723 94.9243C150.738 95.0258 150.754 95.1274 150.769 95.229C150.801 95.4415 150.833 95.654 150.864 95.8666C150.896 96.0807 150.928 96.2947 150.961 96.5086C151.16 97.8146 151.329 99.1105 151.39 100.432C151.392 100.484 151.395 100.537 151.397 100.591C151.411 100.885 151.418 101.178 151.422 101.471C151.423 101.557 151.424 101.643 151.425 101.732C151.431 102.609 151.368 103.476 151.274 104.348C151.269 104.405 151.263 104.463 151.257 104.522C151.083 106.151 150.601 107.74 149.684 109.109C149.646 109.165 149.609 109.221 149.571 109.279C148.733 110.471 147.37 111.321 145.948 111.613C145.359 111.715 144.768 111.797 144.176 111.876C144.33 112.034 144.484 112.193 144.639 112.351C144.687 112.401 144.734 112.45 144.784 112.501C145.079 112.803 145.375 113.103 145.674 113.401C148.522 116.245 148.522 116.245 148.54 117.355C148.495 117.892 148.347 118.356 147.983 118.761C146.889 119.634 145.185 119.477 143.865 119.515C143.696 119.521 143.527 119.526 143.358 119.532C142.816 119.55 142.275 119.567 141.733 119.579C141.034 119.574 141.034 119.574 140.405 119.823C140.294 119.967 140.214 120.112 140.131 120.274C140.067 120.386 140.003 120.499 139.939 120.611C139.868 120.738 139.798 120.865 139.728 120.993C139.328 121.727 138.907 122.451 138.472 123.166C138.446 123.209 138.42 123.252 138.393 123.296C137.343 125.027 137.343 125.027 136.431 125.31C135.832 125.436 135.321 125.304 134.79 125.007C134.512 124.795 134.323 124.502 134.124 124.217C134.093 124.173 134.062 124.128 134.031 124.082C133.684 123.581 133.359 123.067 133.037 122.549C133.004 122.497 132.972 122.445 132.938 122.391C131.494 120.069 130.127 117.705 128.815 115.306C128.633 114.975 128.45 114.644 128.267 114.313C127.65 113.197 127.052 112.073 126.467 110.94C126.418 110.846 126.418 110.846 126.368 110.749C126.275 110.571 126.184 110.393 126.092 110.214C126.05 110.134 126.05 110.134 126.008 110.052C125.905 109.849 125.819 109.68 125.785 109.453C125.718 109.475 125.651 109.496 125.581 109.518C125.333 109.588 125.095 109.633 124.84 109.67C124.753 109.683 124.665 109.695 124.575 109.709C124.484 109.722 124.392 109.735 124.301 109.747C124.208 109.761 124.115 109.774 124.022 109.788C123.796 109.821 123.569 109.853 123.343 109.885C123.336 109.925 123.329 109.964 123.322 110.005C122.422 115.116 121.369 120.232 119.934 125.223C119.875 125.43 119.818 125.636 119.761 125.843C119.522 126.692 119.289 127.401 118.493 127.871C118.015 128.114 117.451 128.141 116.94 127.994C116.15 127.669 115.512 127.014 114.887 126.448C114.839 126.404 114.79 126.36 114.74 126.315C114.251 125.871 113.771 125.418 113.295 124.961C113.214 124.884 113.134 124.807 113.053 124.73C112.978 124.658 112.903 124.586 112.828 124.514C112.727 124.418 112.625 124.325 112.522 124.232C112.438 124.144 112.438 124.144 112.352 124.055C111.793 123.768 110.917 124.157 110.343 124.314C110.252 124.338 110.16 124.363 110.068 124.387C109.683 124.49 109.299 124.594 108.915 124.698C107.043 125.206 107.043 125.206 106.237 125.328C106.159 125.34 106.159 125.34 106.078 125.353C105.492 125.43 104.981 125.315 104.489 124.989C103.979 124.554 103.786 124.044 103.726 123.385C103.68 122.344 104.454 121.242 104.914 120.348C104.946 120.286 104.977 120.225 105.01 120.161C105.457 119.287 105.918 118.421 106.379 117.555C106.329 117.561 106.279 117.568 106.227 117.574C103.894 117.868 102.117 117.729 100.191 116.3C98.5826 115.03 97.5247 112.952 96.8779 111.045C96.8226 110.882 96.7648 110.72 96.707 110.558C94.8278 105.196 93.6743 97.6284 96.1611 92.317C96.9007 90.8944 97.9183 89.9018 99.3982 89.2802C99.4594 89.254 99.5207 89.2277 99.5838 89.2007C102.86 87.9793 107.165 89.0115 110.273 90.3119Z" fill="black"/>
<path d="M101.392 91.338C101.438 91.3312 101.484 91.3245 101.531 91.3175C106.534 90.5904 111.341 93.0258 115.252 95.9367C115.565 96.1724 115.868 96.4171 116.161 96.6784C116.221 96.732 116.221 96.732 116.283 96.7867C116.376 96.8696 116.469 96.953 116.562 97.0366C116.489 97.3072 116.356 97.5231 116.213 97.7628C115.686 98.6821 115.42 99.6804 115.228 100.716C114.913 100.673 114.599 100.629 114.288 100.567C113.214 100.357 112.122 100.244 111.033 100.39C110.974 100.397 110.915 100.404 110.854 100.411C110.572 100.457 110.383 100.507 110.184 100.719C109.943 101.067 109.922 101.276 109.994 101.684C110.075 101.992 110.215 102.161 110.482 102.329C110.827 102.483 111.193 102.443 111.563 102.434C112.234 102.428 112.899 102.445 113.569 102.494C113.645 102.499 113.721 102.504 113.8 102.509C114.313 102.548 114.812 102.623 115.317 102.721C115.327 102.783 115.337 102.845 115.348 102.909C115.635 104.449 116.368 106.21 117.576 107.264C117.68 107.384 117.68 107.384 117.705 107.513C117.622 107.754 117.454 107.915 117.281 108.095C117.241 108.137 117.202 108.179 117.161 108.222C116.348 109.067 115.455 109.844 114.532 110.566C114.483 110.604 114.434 110.642 114.384 110.682C111.741 112.737 108.705 114.705 105.338 115.223C105.238 115.239 105.139 115.255 105.04 115.272C103.867 115.47 102.896 115.322 101.898 114.63C98.4382 111.921 97.9642 106.135 97.471 102.098C97.3855 101.339 97.3437 100.583 97.3417 99.8194C97.3407 99.692 97.3407 99.692 97.3397 99.562C97.3318 97.396 97.4417 94.8427 98.6192 92.9461C98.6512 92.881 98.6832 92.816 98.7161 92.749C99.3687 91.789 100.304 91.4975 101.392 91.338Z" fill="#F4A99C"/>
<path d="M141.246 85.4191C141.331 85.405 141.417 85.3909 141.504 85.3764C142.527 85.2203 143.346 85.3468 144.196 85.9425C146.033 87.3095 146.882 89.818 147.534 91.9268C147.573 92.0549 147.573 92.0549 147.614 92.1857C148.042 93.6061 148.315 95.0377 148.526 96.5051C148.539 96.5921 148.552 96.6791 148.565 96.7687C149.065 100.214 149.713 104.773 147.69 107.873C146.96 108.8 146.084 109.184 144.941 109.347C144.894 109.354 144.847 109.361 144.798 109.368C141.6 109.826 138.319 109.036 135.311 107.97C135.245 107.946 135.178 107.922 135.109 107.898C131.496 106.601 131.496 106.601 130.48 105.703C130.428 105.561 130.428 105.561 130.504 105.339C130.547 105.252 130.591 105.165 130.635 105.078C130.681 104.984 130.726 104.889 130.77 104.794C130.793 104.747 130.815 104.7 130.838 104.652C131.423 103.372 131.491 101.929 131.356 100.55C131.724 100.307 132.095 100.09 132.495 99.9024C132.549 99.877 132.604 99.8515 132.659 99.8253C133.529 99.428 134.439 99.1159 135.343 98.8061C135.402 98.7857 135.46 98.7653 135.521 98.7443C135.572 98.727 135.623 98.7097 135.675 98.6919C135.877 98.6063 135.985 98.4932 136.106 98.3135C136.227 98.0117 136.197 97.7164 136.111 97.4077C135.946 97.1033 135.781 96.9466 135.465 96.8073C135.252 96.7975 135.052 96.8291 134.842 96.8649C134.783 96.8746 134.723 96.8843 134.661 96.8943C133.457 97.1094 132.324 97.6413 131.267 98.2438C131.032 98.3703 131.032 98.3703 130.828 98.4006C130.8 98.3502 130.8 98.3502 130.772 98.2988C130.221 97.3116 129.649 96.3776 128.783 95.6349C128.66 95.5198 128.66 95.5198 128.561 95.3255C128.606 95.3188 128.651 95.3122 128.698 95.3053C128.71 95.2627 128.722 95.2201 128.734 95.1762C128.796 95.0062 128.871 94.884 128.975 94.7368C129.011 94.6852 129.047 94.6337 129.085 94.5806C129.142 94.4995 129.142 94.4995 129.201 94.4169C129.28 94.305 129.358 94.193 129.437 94.0811C129.493 94.0006 129.493 94.0006 129.551 93.9186C129.673 93.7422 129.79 93.5625 129.905 93.3813C130.068 93.1277 130.248 92.9006 130.448 92.6741C130.58 92.5213 130.707 92.3648 130.833 92.207C133.118 89.3532 136.197 86.8032 139.739 85.7298C139.819 85.7048 139.899 85.6797 139.981 85.6539C140.396 85.5411 140.822 85.4838 141.246 85.4191Z" fill="#F4A99C"/>
<path d="M128.853 107.606C129.074 107.606 129.218 107.664 129.408 107.773C129.46 107.803 129.512 107.832 129.565 107.862C129.62 107.894 129.675 107.926 129.732 107.958C129.849 108.024 129.966 108.09 130.083 108.156C130.141 108.188 130.199 108.221 130.259 108.254C132.076 109.266 134.019 109.999 135.989 110.654C136.077 110.684 136.077 110.684 136.167 110.714C136.883 110.952 137.603 111.133 138.341 111.289C138.466 111.315 138.466 111.315 138.592 111.342C138.969 111.42 139.344 111.49 139.726 111.538C140.573 111.65 140.999 111.869 141.537 112.534C141.739 112.779 141.96 113.007 142.177 113.239C142.269 113.338 142.36 113.437 142.452 113.537C143.125 114.263 143.828 114.961 144.526 115.663C144.827 115.965 145.126 116.268 145.422 116.573C145.457 116.609 145.492 116.645 145.527 116.681C145.761 116.924 145.761 116.924 145.773 117C145.214 117.05 144.657 117.07 144.097 117.083C142.721 117.118 141.336 117.158 139.971 117.343C139.909 117.351 139.848 117.358 139.784 117.366C139.318 117.437 138.98 117.586 138.687 117.965C138.584 118.121 138.49 118.28 138.398 118.443C138.369 118.493 138.341 118.543 138.311 118.594C138.225 118.747 138.141 118.9 138.058 119.054C137.799 119.526 137.535 119.994 137.262 120.458C137.097 120.74 136.934 121.022 136.773 121.307C136.281 122.174 136.281 122.174 136.073 122.478C136.028 122.484 135.983 122.491 135.936 122.498C134.51 120.389 133.221 118.204 131.976 115.984C131.935 115.911 131.935 115.911 131.893 115.837C131.098 114.419 130.32 112.992 129.545 111.563C129.504 111.488 129.464 111.414 129.422 111.337C128.914 110.401 128.418 109.46 127.942 108.507C128.109 108.275 128.271 108.101 128.495 107.924C128.689 107.78 128.689 107.78 128.853 107.606Z" fill="#F4A99C"/>
<path d="M119.795 108.966C120.022 109.017 120.229 109.113 120.44 109.207C120.507 109.237 120.507 109.237 120.576 109.267C120.686 109.315 120.796 109.363 120.906 109.412C120.882 110.039 120.76 110.647 120.645 111.261C120.634 111.32 120.623 111.38 120.611 111.441C118.791 121.199 118.791 121.199 117.349 125.326C117.305 125.333 117.26 125.34 117.213 125.347C117.088 125.237 116.971 125.126 116.854 125.008C116.78 124.936 116.707 124.863 116.633 124.79C116.594 124.753 116.556 124.715 116.517 124.676C116.332 124.495 116.144 124.318 115.955 124.141C115.675 123.876 115.396 123.61 115.119 123.342C115.017 123.245 114.916 123.147 114.815 123.049C114.729 122.966 114.643 122.883 114.557 122.8C114.406 122.654 114.255 122.508 114.103 122.362C114.031 122.293 114.031 122.293 113.958 122.222C113.418 121.697 113.418 121.697 112.731 121.417C112.523 121.424 112.335 121.442 112.131 121.475C112.068 121.485 112.006 121.495 111.942 121.505C110.368 121.77 108.802 122.209 107.27 122.654C106.98 122.739 106.7 122.809 106.399 122.844C106.453 122.511 106.605 122.257 106.779 121.974C107.136 121.375 107.457 120.761 107.773 120.14C107.846 119.998 107.918 119.856 107.992 119.715C108.221 119.269 108.447 118.821 108.671 118.372C108.736 118.241 108.801 118.111 108.867 117.981C109.013 117.69 109.158 117.399 109.295 117.103C109.318 117.055 109.341 117.006 109.364 116.957C109.425 116.83 109.484 116.702 109.543 116.574C109.722 116.315 109.922 116.214 110.199 116.083C110.333 116.016 110.466 115.949 110.599 115.881C110.673 115.843 110.747 115.806 110.824 115.767C113.964 114.171 117.393 111.879 119.556 109.055C119.657 108.971 119.657 108.971 119.795 108.966Z" fill="#F4A99C"/>
<path d="M126.094 96.5268C127.375 97.2615 128.195 98.4016 128.731 99.7557C128.752 99.8072 128.773 99.8588 128.795 99.9119C129.158 101.057 129.082 102.314 128.722 103.447C128.703 103.512 128.683 103.578 128.663 103.645C128.222 104.995 127.239 106.086 125.99 106.747C124.553 107.47 123.057 107.585 121.526 107.09C120.034 106.569 118.925 105.541 118.22 104.131C117.523 102.58 117.471 101.018 118.016 99.4182C118.176 99.0056 118.385 98.6339 118.623 98.262C118.652 98.2158 118.68 98.1696 118.71 98.1219C120.303 95.7505 123.679 95.1902 126.094 96.5268Z" fill="#F4A99C"/>
</svg>
