<svg width="350" height="350" viewBox="0 0 350 350" fill="none" xmlns="http://www.w3.org/2000/svg">
<path d="M169.371 67.0678C173.751 69.12 176.186 73.702 178.315 77.8254C178.412 78.0127 178.509 78.2 178.61 78.3929C180.67 82.4108 182.71 86.9345 183.51 91.3903C183.72 91.4119 183.931 91.4335 184.148 91.4557C186.87 91.7986 189.333 92.5927 191.908 93.5166C192.748 93.7984 192.748 93.7984 193.611 93.9878C194.257 93.6405 194.819 93.2885 195.415 92.8694C195.779 92.6261 196.143 92.3837 196.508 92.1423C196.792 91.9544 196.792 91.9544 197.08 91.7628C202.222 88.4108 209.535 84.4813 215.834 85.3294C217.299 85.9462 217.848 86.8018 218.501 88.1874C219.828 91.8427 219.082 96.5554 218.63 100.319C218.594 100.625 218.559 100.93 218.522 101.244C218.354 102.562 218.165 103.827 217.771 105.097C217.447 106.177 217.21 107.003 217.277 108.13C218.109 109.35 219.126 110.207 220.249 111.151C221.054 111.875 221.707 112.702 222.364 113.559C222.494 113.728 222.624 113.897 222.757 114.07C229.535 123.025 232.745 133.221 234.793 144.159C235.653 148.723 236.577 152.838 238.923 156.906C239.17 157.349 239.415 157.792 239.66 158.236C240.028 158.902 240.398 159.567 240.771 160.231C244.371 166.647 246.268 173.244 246.229 180.626C246.228 180.837 246.228 181.048 246.227 181.265C246.212 184.384 246.103 187.359 245.273 190.385C245.219 190.587 245.164 190.789 245.109 190.997C241.763 203.092 232.444 212.095 221.831 218.165C220.054 219.165 218.255 220.106 216.412 220.978C218.091 222.244 219.771 223.505 221.48 224.73C224.388 226.842 227.087 229.18 229.688 231.657C229.861 231.821 230.034 231.986 230.212 232.156C234.717 236.477 238.613 241.241 241.232 246.953C245.591 242.574 247.683 237.552 248.773 231.535C249.168 229.436 249.606 227.55 251.226 226.047C252.401 225.274 253.085 225.192 254.509 225.307C257.383 226.119 259.197 228.821 260.624 231.278C265.084 239.295 266.155 248.483 263.744 257.343C263.692 257.538 263.639 257.733 263.585 257.934C261.796 264.343 258.087 269.802 253.643 274.66C253.427 274.897 253.21 275.134 252.988 275.378C245.709 282.982 233.625 289.827 222.953 290.274C222.408 290.264 221.863 290.255 221.318 290.245C221.338 290.509 221.358 290.773 221.379 291.045C221.565 293.623 221.656 296.186 221.665 298.772C221.666 298.961 221.667 299.151 221.668 299.346C221.672 300.348 221.675 301.35 221.676 302.353C221.677 303.166 221.681 303.978 221.688 304.791C221.749 312.562 221.749 312.562 221.241 316.055C221.21 316.273 221.179 316.492 221.147 316.717C220.591 319.957 218.841 323.142 216.292 325.237C210.279 329.333 202.612 330.164 195.541 328.866C190.956 327.759 186.852 325.527 184.303 321.452C182.373 318.007 181.718 314.669 181.778 310.737C181.477 310.787 181.477 310.787 181.17 310.838C180.243 310.992 179.315 311.144 178.387 311.296C178.072 311.349 177.756 311.402 177.432 311.456C173.637 312.073 169.92 312.234 166.083 312.234C165.317 312.234 164.551 312.239 163.785 312.245C158.82 312.261 154.024 311.742 149.164 310.737C149.16 311.02 149.156 311.303 149.152 311.595C149.014 316.333 147.633 320.835 144.348 324.392C139.243 329.124 132.465 329.479 125.88 329.266C123.832 329.143 121.953 328.704 120.014 328.054C119.7 327.949 119.385 327.845 119.061 327.737C115.177 326.28 111.979 323.669 110.22 319.885C108.758 316.176 108.713 312.284 108.72 308.348C108.72 307.988 108.72 307.629 108.719 307.258C108.719 306.499 108.72 305.739 108.721 304.98C108.722 303.848 108.721 302.717 108.719 301.585C108.718 297.84 108.76 294.1 108.885 290.357C108.896 290.025 108.907 289.692 108.918 289.35C109.219 281.218 110.586 273.099 112.222 265.136C112.072 265.194 111.923 265.252 111.769 265.312C106.304 267.424 101.444 268.776 95.7506 266.516C92.3651 264.957 89.6685 262.55 88.1947 259.095C86.5829 254.517 87.4132 250.327 89.3763 246.053C91.8726 240.918 95.5442 236.566 99.5228 232.523C99.8057 232.229 100.088 231.935 100.371 231.641C101.851 230.123 103.385 228.736 105.044 227.417C105.627 226.947 106.198 226.474 106.764 225.985C108.721 224.292 110.732 222.742 112.857 221.266C113.659 220.727 113.659 220.727 114.242 220.112C114.059 220.019 113.876 219.927 113.688 219.831C106.878 216.363 106.878 216.363 104.141 214.34C103.838 214.119 103.535 213.897 103.223 213.669C100.991 212.01 98.9371 210.196 96.9253 208.279C96.6824 208.055 96.4394 207.83 96.1891 207.599C89.2498 200.992 85.3664 192.074 85.011 182.547C84.7862 172.353 88.0354 163.889 93.1306 155.166C95.6829 150.672 96.469 145.556 97.4943 140.555C98.7891 134.275 100.435 128.193 103.563 122.561C103.797 122.121 103.797 122.121 104.036 121.672C105.896 118.303 108.33 115.277 110.815 112.351C110.956 112.184 111.097 112.017 111.243 111.844C111.918 111.062 112.597 110.342 113.39 109.678C114.876 108.476 114.876 108.476 115.477 106.754C115.323 105.747 115.075 104.787 114.819 103.801C113.77 98.3997 112.4 90.4253 115.361 85.4196C116.377 84.3139 117.009 83.9398 118.517 83.742C120.631 83.816 122.658 84.6256 124.632 85.3294C124.908 85.4269 125.183 85.5244 125.467 85.6248C127.483 86.409 129.401 87.4099 131.325 88.3959C131.615 88.5432 131.906 88.6905 132.206 88.8422C133.566 89.5496 134.819 90.2557 136 91.2381C138.001 92.9358 138.001 92.9358 140.505 93.3521C142.414 92.9787 144.202 92.3318 146.02 91.6547C147.248 91.2662 148.46 91.1521 149.742 91.1017C149.776 90.8936 149.81 90.6854 149.845 90.471C150.036 89.6345 150.315 88.9735 150.694 88.2054C150.832 87.9271 150.969 87.6488 151.111 87.3621C151.26 87.0663 151.41 86.7706 151.564 86.4658C151.719 86.1585 151.873 85.8512 152.033 85.5346C162.696 64.657 162.696 64.657 169.371 67.0678Z" fill="#ECECEB"/>
<path d="M169.371 67.0678C173.751 69.12 176.186 73.702 178.315 77.8254C178.412 78.0127 178.509 78.2 178.61 78.3929C180.67 82.4108 182.71 86.9345 183.51 91.3903C183.72 91.4119 183.931 91.4335 184.148 91.4557C186.87 91.7986 189.333 92.5927 191.908 93.5166C192.748 93.7984 192.748 93.7984 193.611 93.9878C194.257 93.6405 194.819 93.2885 195.415 92.8694C195.779 92.6261 196.143 92.3837 196.508 92.1423C196.792 91.9544 196.792 91.9544 197.08 91.7628C202.222 88.4108 209.535 84.4813 215.834 85.3294C217.299 85.9462 217.848 86.8018 218.501 88.1874C219.828 91.8427 219.082 96.5554 218.63 100.319C218.594 100.625 218.559 100.93 218.522 101.244C218.354 102.562 218.165 103.827 217.771 105.097C217.447 106.177 217.21 107.003 217.277 108.13C218.109 109.35 219.126 110.207 220.249 111.151C221.054 111.875 221.707 112.702 222.364 113.559C222.494 113.728 222.624 113.897 222.757 114.07C229.535 123.025 232.745 133.221 234.793 144.159C235.653 148.723 236.577 152.838 238.923 156.906C239.17 157.349 239.415 157.792 239.66 158.236C240.028 158.902 240.398 159.567 240.771 160.231C244.371 166.647 246.268 173.244 246.229 180.626C246.228 180.837 246.228 181.048 246.227 181.265C246.212 184.384 246.103 187.359 245.273 190.385C245.219 190.587 245.164 190.789 245.109 190.997C241.763 203.092 232.444 212.095 221.831 218.165C220.054 219.165 218.255 220.106 216.412 220.978C218.091 222.244 219.771 223.505 221.48 224.73C224.388 226.842 227.087 229.18 229.688 231.657C229.861 231.821 230.034 231.986 230.212 232.156C234.717 236.477 238.613 241.241 241.232 246.953C245.591 242.574 247.683 237.552 248.773 231.535C249.168 229.436 249.606 227.55 251.226 226.047C252.401 225.274 253.085 225.192 254.509 225.307C257.383 226.119 259.197 228.821 260.624 231.278C265.084 239.295 266.155 248.483 263.744 257.343C263.692 257.538 263.639 257.733 263.585 257.934C261.796 264.343 258.087 269.802 253.643 274.66C253.427 274.897 253.21 275.134 252.988 275.378C245.709 282.982 233.625 289.827 222.953 290.274C222.408 290.264 221.863 290.255 221.318 290.245C221.338 290.509 221.358 290.773 221.379 291.045C221.565 293.623 221.656 296.186 221.665 298.772C221.666 298.961 221.667 299.151 221.668 299.346C221.672 300.348 221.675 301.35 221.676 302.353C221.677 303.166 221.681 303.978 221.688 304.791C221.749 312.562 221.749 312.562 221.241 316.055C221.21 316.273 221.179 316.492 221.147 316.717C220.591 319.957 218.841 323.142 216.292 325.237C210.279 329.333 202.612 330.164 195.541 328.866C190.956 327.759 186.852 325.527 184.303 321.452C182.373 318.007 181.718 314.669 181.778 310.737C181.477 310.787 181.477 310.787 181.17 310.838C180.243 310.992 179.315 311.144 178.387 311.296C178.072 311.349 177.756 311.402 177.432 311.456C173.637 312.073 169.92 312.234 166.083 312.234C165.317 312.234 164.551 312.239 163.785 312.245C158.82 312.261 154.024 311.742 149.164 310.737C149.16 311.02 149.156 311.303 149.152 311.595C149.014 316.333 147.633 320.835 144.348 324.392C139.243 329.124 132.465 329.479 125.88 329.266C123.832 329.143 121.953 328.704 120.014 328.054C119.7 327.949 119.385 327.845 119.061 327.737C115.177 326.28 111.979 323.669 110.22 319.885C108.758 316.176 108.713 312.284 108.72 308.348C108.72 307.988 108.72 307.629 108.719 307.258C108.719 306.499 108.72 305.739 108.721 304.98C108.722 303.848 108.721 302.717 108.719 301.585C108.718 297.84 108.76 294.1 108.885 290.357C108.896 290.025 108.907 289.692 108.918 289.35C109.219 281.218 110.586 273.099 112.222 265.136C112.072 265.194 111.923 265.252 111.769 265.312C106.304 267.424 101.444 268.776 95.7506 266.516C92.3651 264.957 89.6685 262.55 88.1947 259.095C86.5829 254.517 87.4132 250.327 89.3763 246.053C91.8726 240.918 95.5442 236.566 99.5228 232.523C99.8057 232.229 100.088 231.935 100.371 231.641C101.851 230.123 103.385 228.736 105.044 227.417C105.627 226.947 106.198 226.474 106.764 225.985C108.721 224.292 110.732 222.742 112.857 221.266C113.659 220.727 113.659 220.727 114.242 220.112C114.059 220.019 113.876 219.927 113.688 219.831C106.878 216.363 106.878 216.363 104.141 214.34C103.838 214.119 103.535 213.897 103.223 213.669C100.991 212.01 98.9371 210.196 96.9253 208.279C96.6824 208.055 96.4394 207.83 96.1891 207.599C89.2498 200.992 85.3664 192.074 85.011 182.547C84.7862 172.353 88.0354 163.889 93.1306 155.166C95.6829 150.672 96.469 145.556 97.4943 140.555C98.7891 134.275 100.435 128.193 103.563 122.561C103.797 122.121 103.797 122.121 104.036 121.672C105.896 118.303 108.33 115.277 110.815 112.351C110.956 112.184 111.097 112.017 111.243 111.844C111.918 111.062 112.597 110.342 113.39 109.678C114.876 108.476 114.876 108.476 115.477 106.754C115.323 105.747 115.075 104.787 114.819 103.801C113.77 98.3997 112.4 90.4253 115.361 85.4196C116.377 84.3139 117.009 83.9398 118.517 83.742C120.631 83.816 122.658 84.6256 124.632 85.3294C124.908 85.4269 125.183 85.5244 125.467 85.6248C127.483 86.409 129.401 87.4099 131.325 88.3959C131.615 88.5432 131.906 88.6905 132.206 88.8422C133.566 89.5496 134.819 90.2557 136 91.2381C138.001 92.9358 138.001 92.9358 140.505 93.3521C142.414 92.9787 144.202 92.3318 146.02 91.6547C147.248 91.2662 148.46 91.1521 149.742 91.1017C149.776 90.8936 149.81 90.6854 149.845 90.471C150.036 89.6345 150.315 88.9735 150.694 88.2054C150.832 87.9271 150.969 87.6488 151.111 87.3621C151.26 87.0663 151.41 86.7706 151.564 86.4658C151.719 86.1585 151.873 85.8512 152.033 85.5346C162.696 64.657 162.696 64.657 169.371 67.0678ZM154.202 96.5624C152.769 97.1927 151.225 97.5241 149.714 97.9222C141.667 100.06 134.1 103.382 127.23 108.13C127.065 108.242 126.901 108.354 126.731 108.47C124.323 110.117 122.059 111.894 119.864 113.817C119.466 114.166 119.064 114.512 118.663 114.857C115.378 117.732 112.835 120.924 110.49 124.581C110.382 124.749 110.274 124.916 110.163 125.089C106.496 130.885 104.97 137.374 103.571 144.004C103.522 144.239 103.472 144.473 103.42 144.715C103.173 145.884 102.928 147.053 102.691 148.224C101.94 151.868 100.797 155.167 98.9997 158.439C98.7458 158.913 98.4921 159.387 98.2387 159.862C98.0521 160.209 98.0521 160.209 97.8618 160.564C93.235 169.207 89.6224 178.832 92.5228 188.709C92.6411 189.076 92.7617 189.442 92.8847 189.808C92.945 189.991 93.0054 190.174 93.0675 190.362C96.6365 200.866 105.751 208.28 115.405 213.086C118.285 214.466 121.267 215.575 124.267 216.665C127.695 217.924 127.695 217.924 128.384 218.958C128.276 220.022 128.276 220.022 128.096 220.978C127.842 221.057 127.589 221.136 127.328 221.218C116.698 224.938 106.468 233.429 99.8115 242.335C99.6852 242.502 99.559 242.668 99.429 242.84C98.0175 244.707 96.7383 246.605 95.6266 248.667C95.5324 248.841 95.4382 249.015 95.3411 249.194C94.1613 251.463 93.5867 253.778 94.2072 256.293C94.9838 258.35 96.5008 259.866 98.4563 260.854C101.511 261.985 104.44 261.226 107.345 259.966C108.629 259.368 109.861 258.7 111.076 257.972C111.589 257.665 112.111 257.374 112.634 257.085C115.782 254.991 116.409 251.487 117.45 248.04C117.893 246.659 118.219 245.745 119.437 244.933C120.696 244.77 121.255 244.791 122.305 245.528C123.06 246.603 122.987 247.098 122.901 248.396C122.729 249.182 122.542 249.936 122.32 250.706C122.26 250.923 122.2 251.14 122.138 251.363C122.009 251.825 121.88 252.287 121.75 252.748C121.408 253.96 121.078 255.175 120.746 256.39C120.681 256.627 120.616 256.865 120.549 257.11C117.958 266.59 116.572 276.483 115.649 286.259C115.616 286.603 115.616 286.603 115.583 286.953C115.142 291.959 115.054 296.97 115.055 301.992C115.054 303.019 115.049 304.046 115.043 305.073C114.723 312.939 114.723 312.939 117.783 319.875C121.12 322.458 124.851 322.674 128.907 322.678C129.276 322.686 129.644 322.693 130.024 322.7C133.507 322.711 136.971 322.078 139.64 319.684C142.514 316.675 142.679 311.824 143.067 307.898C143.355 305.19 143.355 305.19 144.258 304.099C146.226 303.115 149.118 304.085 151.149 304.496C161.485 306.477 172.421 306.565 182.678 303.943C183.805 303.668 184.96 303.671 186.107 303.81C187.076 304.472 187.327 305.004 187.55 306.119C187.601 306.62 187.641 307.123 187.674 307.625C188.025 314.484 188.025 314.484 191.681 320.063C194.754 322.496 198.464 322.671 202.233 322.66C202.577 322.665 202.92 322.67 203.274 322.675C207.076 322.677 210.255 322.032 213.038 319.323C215.578 315.185 215.346 310.436 215.311 305.758C215.308 305.183 215.306 304.608 215.303 304.033C215.294 302.419 215.277 300.806 215.257 299.192C215.253 298.829 215.249 298.465 215.245 298.09C215.013 282.545 212.521 266.597 208.457 251.61C207.955 249.716 207.571 248.049 207.753 246.087C208.488 245.202 208.933 244.977 210.062 244.789C211.164 244.972 211.574 245.308 212.371 246.087C212.762 247.021 212.762 247.021 213.064 248.119C213.182 248.522 213.301 248.925 213.421 249.327C213.482 249.535 213.543 249.743 213.605 249.958C214.834 254.404 214.834 254.404 218.024 257.505C218.536 257.758 219.061 257.984 219.586 258.209C219.94 258.397 220.291 258.589 220.64 258.784C223.86 260.554 227.161 261.803 230.851 260.876C232.923 260.171 234.285 259.428 235.406 257.506C236.526 255.08 236.333 252.728 235.442 250.254C233.365 245.42 230.124 241.481 226.513 237.718C226.344 237.539 226.175 237.361 226.001 237.177C220.22 231.099 213.48 226.823 206.07 222.995C205.735 222.82 205.4 222.645 205.055 222.465C204.604 222.233 204.604 222.233 204.144 221.996C203.424 221.555 203.424 221.555 202.847 220.689C202.738 219.824 202.738 219.824 202.847 218.958C203.854 217.907 205.26 217.685 206.617 217.316C218.892 213.789 230.23 206.11 236.539 194.829C237.589 192.856 238.314 190.798 238.923 188.653C239.021 188.311 239.119 187.969 239.22 187.616C241.655 177.472 237.691 167.954 232.665 159.323C232.538 159.102 232.411 158.881 232.28 158.653C232.044 158.245 231.805 157.839 231.56 157.437C229.087 153.166 228.518 148.012 227.674 143.236C225.852 132.994 222.272 124.056 214.969 116.5C214.737 116.254 214.506 116.008 214.268 115.755C212.353 113.764 210.252 112.085 208.042 110.439C207.763 110.23 207.763 110.23 207.479 110.017C199.225 103.873 189.973 99.6404 179.944 97.3308C178.397 96.9612 178.397 96.9612 177.905 96.4389C176.971 95.5568 175.484 95.6544 174.256 95.5211C173.767 95.4666 173.767 95.4666 173.267 95.411C170.452 95.1309 167.65 95.0566 164.822 95.0521C164.618 95.0511 164.413 95.0501 164.203 95.049C159.051 95.0275 159.051 95.0275 154.202 96.5624Z" fill="black"/>
<path d="M179.204 235.155C179.892 235.7 180.548 236.264 181.2 236.852C181.483 237.077 181.765 237.302 182.056 237.535C184.725 239.754 186.547 243.049 188.127 246.087C188.223 246.268 188.319 246.45 188.418 246.637C191.579 252.684 193.35 259.474 193.611 266.29C193.62 266.486 193.63 266.681 193.639 266.882C194.004 275.181 191.811 282.793 186.322 289.135C182.469 293.131 177.581 295.299 172.253 296.595C171.835 296.701 171.835 296.701 171.408 296.81C163.995 298.368 155.555 296.847 149.164 292.843C148.145 292.13 147.205 291.363 146.278 290.534C146.038 290.321 145.797 290.107 145.55 289.888C140.298 284.951 137.531 277.557 137.248 270.431C136.995 259.063 140.626 246.796 148.519 238.372C156.767 229.995 169.392 228.402 179.204 235.155Z" fill="#F2D3A3"/>
<path d="M179.204 235.155C179.892 235.7 180.548 236.264 181.2 236.852C181.483 237.077 181.765 237.302 182.056 237.535C184.725 239.754 186.547 243.049 188.127 246.087C188.223 246.268 188.319 246.45 188.418 246.637C191.579 252.684 193.35 259.474 193.611 266.29C193.62 266.486 193.63 266.681 193.639 266.882C194.004 275.181 191.811 282.793 186.322 289.135C182.469 293.131 177.581 295.299 172.253 296.595C171.835 296.701 171.835 296.701 171.408 296.81C163.995 298.368 155.555 296.847 149.164 292.843C148.145 292.13 147.205 291.363 146.278 290.534C146.038 290.321 145.797 290.107 145.55 289.888C140.298 284.951 137.531 277.557 137.248 270.431C136.995 259.063 140.626 246.796 148.519 238.372C156.767 229.995 169.392 228.402 179.204 235.155ZM152.159 244.103C145.984 252.042 143.084 262.467 144.033 272.45C144.71 277.531 146.983 282.589 150.986 285.889C156.622 290.007 163.554 291.418 170.422 290.357C175.422 289.396 180.169 286.8 183.256 282.704C187.45 276.295 187.907 268.243 186.513 260.856C186.388 260.259 186.251 259.667 186.107 259.075C186.059 258.874 186.011 258.673 185.961 258.466C184.483 252.493 181.819 246.729 177.448 242.335C177.278 242.155 177.108 241.975 176.933 241.79C173.683 238.618 169.322 237.318 164.899 237.321C159.769 237.453 155.421 240.283 152.159 244.103Z" fill="black"/>
<path d="M254.797 234.543C254.988 234.543 255.178 234.543 255.375 234.543C255.703 235.444 256.026 236.346 256.349 237.249C256.44 237.5 256.532 237.751 256.626 238.01C259.188 245.216 258.608 253.505 255.41 260.422C254.955 261.343 254.456 262.233 253.931 263.116C253.75 263.423 253.569 263.73 253.382 264.046C247.261 273.748 236.462 280.241 225.461 282.82C225.142 282.89 224.822 282.959 224.493 283.03C224.143 283.116 224.143 283.116 223.786 283.204C222.763 283.364 221.776 283.336 220.741 283.319C220.112 279.984 219.616 276.638 219.151 273.276C218.843 271.086 218.476 268.931 217.975 266.778C217.857 266.015 217.889 265.567 218.143 264.847C218.35 264.942 218.556 265.036 218.769 265.133C221.995 266.547 224.927 267.228 228.443 267.265C228.693 267.269 228.944 267.273 229.201 267.277C233.157 267.248 236.339 265.54 239.201 262.885C241.049 260.892 242.121 258.422 242.549 255.756C243.103 254.407 243.971 253.766 245.067 252.831C250.386 248.2 253.762 241.463 254.797 234.543Z" fill="#3A9592"/>
<path d="M123.117 163.038C126.261 165.154 128.089 168.235 128.961 171.913C129.345 176.216 128.451 179.702 125.786 183.169C123.89 185.346 120.585 187.287 117.676 187.554C113.701 187.697 110.589 187.413 107.315 184.901C107.082 184.745 107.082 184.745 106.845 184.586C105.585 183.659 104.823 182.51 104.05 181.167C103.953 180.998 103.855 180.829 103.755 180.655C102.089 177.628 101.932 174.031 102.597 170.673C103.922 166.738 106.318 163.983 109.985 162.137C114.403 159.985 118.974 160.589 123.117 163.038Z" fill="#F4A99C"/>
<path d="M223.519 163.342C226.274 165.313 228.121 168.219 229.025 171.494C229.531 175.679 228.818 179.478 226.225 182.881C223.817 185.53 220.722 187.255 217.121 187.596C213.427 187.636 210.701 186.834 207.753 184.613C207.378 184.363 207.378 184.363 206.996 184.108C204.517 181.76 203.082 178.575 202.778 175.188C202.676 171.268 203.993 167.656 206.671 164.771C207.862 163.658 209.194 162.844 210.639 162.101C210.831 162.002 211.022 161.903 211.219 161.801C215.136 160.158 220.077 161.121 223.519 163.342Z" fill="#F4A99C"/>
<path d="M138.197 183.458C139.146 184.207 139.765 185.237 140.437 186.227C144.528 192.135 151.253 194.878 158.112 196.157C167.452 197.767 178.228 196.912 186.223 191.463C187.078 190.842 187.896 190.198 188.705 189.519C188.896 189.36 189.088 189.201 189.285 189.038C190.686 187.763 191.564 186.186 192.487 184.553C193.03 183.753 193.286 183.463 194.188 183.17C195.172 183.065 195.781 183.111 196.696 183.494C197.557 184.192 197.872 184.715 198.229 185.767C198.279 188.778 196.295 191.028 194.323 193.126C186.983 200.582 176.997 203.557 166.68 203.715C155.58 203.679 145.423 200.789 137.259 193.018C135.298 191.02 133.45 188.697 133.477 185.787C133.662 184.71 134.242 184.202 135.023 183.458C136.147 183.083 137.082 183.087 138.197 183.458Z" fill="black"/>
<path d="M167.635 75.5166C171.497 77.3172 173.651 84.8922 175.011 88.6119C175.892 91.0546 176.774 93.4991 177.448 96.0082C175.927 96.0351 174.52 95.94 173.011 95.7196C170.347 95.3836 167.682 95.3653 165.002 95.3588C164.796 95.3574 164.59 95.3559 164.378 95.3545C161.38 95.3373 158.479 95.5708 155.514 96.0082C155.742 94.7288 156.185 93.6765 156.776 92.5268C156.878 92.3269 156.98 92.127 157.085 91.921C157.424 91.2614 157.767 90.6042 158.111 89.9473C158.228 89.7225 158.345 89.4977 158.466 89.2661C159.965 86.4045 161.578 83.6413 163.36 80.9462C163.521 80.7013 163.682 80.4564 163.848 80.2041C164.984 78.5178 166.251 77.0048 167.635 75.5166Z" fill="#3A9592"/>
<path d="M204.921 145.523C206.798 146.594 207.974 148.233 208.707 150.247C209.297 152.851 209.314 155.891 208.136 158.325C207.029 160.062 205.712 161.216 203.712 161.812C201.885 162.015 200.602 161.731 199.095 160.658C197.174 158.922 196.136 156.846 195.851 154.263C195.765 151.554 196.424 149.162 198.193 147.075C200.139 145.096 202.3 144.361 204.921 145.523Z" fill="black"/>
<path d="M132.194 145.318C134.288 146.491 135.668 148.417 136.33 150.706C136.904 153.74 136.408 156.553 134.806 159.179C133.996 160.292 133.207 161.153 131.848 161.524C129.79 161.797 127.971 161.803 126.263 160.53C124.153 158.536 123.505 156.233 123.388 153.388C123.414 150.927 124.286 148.273 126.075 146.516C127.912 145.084 129.951 144.45 132.194 145.318Z" fill="black"/>
<path d="M212.371 92.5449C212.519 95.1832 212.308 97.6315 211.83 100.229C211.78 100.503 211.73 100.776 211.678 101.058C211.435 102.316 211.187 103.498 210.64 104.667C208.633 103.407 206.653 102.115 204.692 100.786C203.527 100.002 202.341 99.2895 201.115 98.6058C202.116 97.4776 203.27 96.7903 204.561 96.0444C204.885 95.8552 204.885 95.8552 205.216 95.6623C210.641 92.5449 210.641 92.5449 212.371 92.5449Z" fill="#3A9592"/>
<path d="M121.169 91.9668C122.934 92.5027 124.544 93.1632 126.165 94.0412C126.48 94.2094 126.48 94.2094 126.801 94.3811C128.658 95.3896 130.41 96.5187 132.136 97.7391C131.005 98.7073 129.831 99.4016 128.528 100.102C126.603 101.156 124.814 102.323 123.038 103.612C122.323 104.089 122.323 104.089 121.746 104.089C120.992 100.07 121.111 96.0402 121.169 91.9668Z" fill="#3A9592"/>
<path d="M152.916 170.183C154.535 170.925 155.802 171.898 156.498 173.565C156.83 174.849 156.877 176.089 156.668 177.398C156.148 178.264 155.83 178.683 154.937 179.13C153.472 179.37 152.337 179.27 151.094 178.426C149.738 177.276 149.072 175.922 148.767 174.181C148.678 172.718 149.111 171.863 150.03 170.76C151.14 170.02 151.595 170.012 152.916 170.183Z" fill="black"/>
<path d="M181.489 170.181C182.334 170.706 183.058 171.299 183.509 172.202C183.737 174.137 183.637 175.608 182.48 177.207C181.332 178.533 180.388 179.077 178.639 179.218C177.699 179.208 177.443 179.125 176.601 178.605C175.626 177.571 175.616 176.56 175.638 175.205C175.859 173.256 176.931 172.001 178.405 170.796C179.404 170.126 180.32 170.044 181.489 170.181Z" fill="black"/>
<path d="M133.168 133.324C133.833 133.803 134.146 134.398 134.482 135.123C134.547 135.259 134.547 135.259 134.612 135.397C134.752 135.693 134.89 135.989 135.028 136.285C135.125 136.492 135.222 136.698 135.319 136.904C136.006 138.371 136.676 139.846 137.332 141.329C137.428 141.524 137.428 141.524 137.527 141.723C137.706 142.114 137.784 142.494 137.866 142.916C138.078 143.787 138.334 144.495 139.039 145.08C140.591 145.806 142.546 145.819 144.225 145.97C145.006 146.044 145.785 146.135 146.564 146.225C147.17 146.294 147.776 146.36 148.383 146.418C148.551 146.435 148.551 146.435 148.722 146.452C148.929 146.473 149.136 146.492 149.343 146.509C150.165 146.594 150.898 146.832 151.452 147.473C151.811 147.981 151.981 148.311 151.99 148.939C151.993 149.046 151.997 149.152 152 149.262C151.829 150.395 151.028 151.085 150.247 151.848C150.126 151.968 150.006 152.087 149.885 152.207C149.57 152.521 149.252 152.834 148.935 153.146C148.427 153.645 147.922 154.146 147.417 154.647C147.242 154.82 147.066 154.993 146.891 155.165C146.343 155.706 145.81 156.251 145.312 156.838C144.998 157.203 144.659 157.543 144.319 157.883C144.251 157.953 144.183 158.023 144.112 158.095C143.94 158.269 143.76 158.436 143.58 158.601C143.501 158.601 143.422 158.601 143.341 158.601C143.608 160.546 143.917 162.483 144.237 164.419C144.397 165.387 144.556 166.355 144.714 167.323C144.771 167.673 144.83 168.023 144.888 168.372C144.921 168.574 144.955 168.775 144.988 168.977C145.003 169.064 145.018 169.152 145.033 169.243C145.195 170.238 145.236 171.133 144.655 172.003C144.002 172.621 143.446 172.917 142.545 172.901C141.697 172.772 140.972 172.297 140.234 171.883C139.994 171.751 139.755 171.619 139.515 171.487C138.97 171.186 138.426 170.883 137.883 170.578C137.283 170.242 136.682 169.908 136.079 169.576C136.002 169.533 135.926 169.491 135.846 169.447C135.547 169.282 135.247 169.117 134.947 168.952C134.74 168.839 134.533 168.725 134.327 168.611C134.196 168.54 134.065 168.468 133.93 168.394C133.665 168.244 133.404 168.086 133.147 167.923C133.022 167.844 132.897 167.765 132.768 167.684C132.658 167.611 132.548 167.539 132.435 167.464C132.109 167.302 132.109 167.302 131.754 167.41C131.381 167.58 131.022 167.76 130.664 167.959C130.595 167.996 130.527 168.034 130.457 168.073C130.235 168.195 130.014 168.319 129.793 168.443C129.637 168.529 129.481 168.616 129.325 168.703C128.247 169.303 127.18 169.92 126.117 170.545C125.22 171.072 124.319 171.589 123.414 172.1C123.287 172.172 123.159 172.245 123.028 172.319C122.91 172.386 122.791 172.452 122.669 172.521C122.565 172.58 122.46 172.639 122.353 172.699C121.767 172.991 121.161 173.053 120.516 172.96C119.842 172.68 119.382 172.229 118.963 171.644C118.551 170.407 118.937 168.942 119.149 167.686C119.18 167.492 119.212 167.297 119.243 167.103C119.326 166.596 119.41 166.088 119.494 165.581C119.628 164.771 119.761 163.961 119.893 163.151C119.939 162.872 119.985 162.593 120.032 162.314C120.103 161.882 120.171 161.449 120.236 161.016C120.265 160.837 120.294 160.657 120.325 160.479C120.373 160.204 120.416 159.93 120.458 159.654C120.473 159.572 120.489 159.489 120.505 159.405C120.553 159.066 120.564 158.803 120.39 158.502C120.123 158.174 119.829 157.907 119.498 157.644C119.4 157.565 119.302 157.486 119.202 157.405C119.202 157.326 119.202 157.247 119.202 157.165C119.123 157.165 119.044 157.165 118.963 157.165C118.792 156.992 118.792 156.992 118.593 156.751C118.124 156.199 117.621 155.689 117.107 155.18C116.964 155.038 116.964 155.038 116.819 154.893C116.518 154.593 116.217 154.294 115.916 153.994C115.518 153.6 115.121 153.205 114.724 152.809C114.634 152.72 114.545 152.631 114.452 152.54C113.899 151.988 113.376 151.418 112.868 150.824C112.782 150.726 112.782 150.726 112.693 150.627C112.18 150.038 111.978 149.588 112.002 148.795C112.091 148.065 112.48 147.503 112.988 146.995C113.579 146.698 114.133 146.558 114.79 146.473C114.883 146.46 114.977 146.447 115.074 146.433C115.277 146.405 115.481 146.377 115.685 146.35C116.011 146.306 116.337 146.259 116.663 146.211C117.799 146.047 118.934 145.904 120.077 145.8C120.632 145.748 121.185 145.689 121.738 145.629C122.007 145.602 122.277 145.579 122.547 145.56C123.95 145.511 123.95 145.511 125.136 144.875C125.471 144.358 125.644 143.795 125.809 143.206C125.935 142.789 126.121 142.41 126.314 142.02C126.383 141.874 126.452 141.728 126.52 141.581C126.554 141.508 126.589 141.435 126.624 141.359C126.932 140.7 127.233 140.038 127.536 139.377C127.617 139.198 127.699 139.018 127.782 138.839C128.209 137.906 128.634 136.973 129.033 136.027C129.092 135.89 129.15 135.753 129.21 135.612C129.316 135.361 129.421 135.109 129.524 134.856C129.89 133.99 130.243 133.603 131.062 133.13C131.793 132.91 132.488 132.966 133.168 133.324Z" fill="#010100"/>
<path d="M131.825 139.316C132.214 139.512 132.306 139.953 132.473 140.34C132.566 140.552 132.659 140.764 132.753 140.976C132.807 141.099 132.861 141.222 132.917 141.349C133.264 142.126 133.619 142.9 133.973 143.674C134.141 144.041 134.309 144.407 134.476 144.774C134.558 144.952 134.639 145.129 134.722 145.306C134.929 145.753 135.13 146.202 135.322 146.656C135.361 146.746 135.4 146.836 135.441 146.928C135.514 147.098 135.586 147.268 135.654 147.439C135.936 148.075 136.316 148.395 136.949 148.673C137.271 148.771 137.588 148.819 137.922 148.859C138.016 148.872 138.11 148.885 138.206 148.898C138.413 148.927 138.62 148.954 138.827 148.981C139.181 149.026 139.535 149.076 139.888 149.126C140.67 149.235 141.452 149.342 142.234 149.448C142.637 149.503 143.039 149.557 143.442 149.612C143.69 149.646 143.939 149.68 144.187 149.714C144.298 149.729 144.41 149.744 144.525 149.76C144.623 149.773 144.72 149.786 144.821 149.8C145.111 149.844 145.397 149.9 145.684 149.96C145.125 150.642 144.513 151.263 143.887 151.883C143.703 152.065 143.519 152.248 143.336 152.431C142.815 152.95 142.294 153.468 141.771 153.986C141.45 154.304 141.13 154.623 140.811 154.942C140.689 155.063 140.568 155.183 140.446 155.304C140.275 155.472 140.106 155.641 139.937 155.81C139.84 155.906 139.744 156.002 139.644 156.1C139.008 156.845 138.962 157.512 139.021 158.458C139.116 159.521 139.313 160.575 139.49 161.626C139.532 161.883 139.574 162.139 139.615 162.396C139.716 163.01 139.817 163.623 139.92 164.237C139.992 164.669 140.064 165.101 140.136 165.534C140.199 165.918 140.263 166.301 140.327 166.685C139.901 166.551 139.517 166.408 139.131 166.183C139.039 166.129 138.946 166.076 138.851 166.02C138.752 165.962 138.653 165.904 138.551 165.844C138.446 165.783 138.341 165.722 138.233 165.66C138.004 165.527 137.776 165.394 137.548 165.261C137.165 165.037 136.781 164.815 136.397 164.593C135.887 164.298 135.377 164.003 134.867 163.707C134.75 163.64 134.633 163.572 134.513 163.502C134.263 163.356 134.014 163.21 133.765 163.063C133.64 162.989 133.515 162.915 133.387 162.838C133.274 162.771 133.162 162.704 133.046 162.635C132.493 162.328 131.978 162.243 131.359 162.357C130.839 162.581 130.357 162.856 129.869 163.142C129.602 163.299 129.332 163.453 129.062 163.606C128.227 164.081 127.395 164.563 126.565 165.047C126.29 165.208 126.014 165.368 125.739 165.529C125.54 165.645 125.341 165.761 125.142 165.878C124.959 165.985 124.959 165.985 124.772 166.094C124.664 166.157 124.555 166.22 124.444 166.286C124.154 166.443 123.865 166.569 123.556 166.685C123.616 166.261 123.677 165.837 123.738 165.413C123.758 165.276 123.778 165.14 123.798 164.999C123.932 164.088 124.079 163.18 124.234 162.273C124.253 162.165 124.271 162.057 124.29 161.945C124.382 161.405 124.476 160.865 124.571 160.325C124.995 158.379 124.995 158.379 124.554 156.514C124.131 155.96 123.621 155.485 123.119 155.004C122.894 154.785 122.669 154.566 122.444 154.347C122.295 154.203 122.295 154.203 122.143 154.057C121.926 153.819 121.926 153.819 121.926 153.585C121.851 153.554 121.777 153.523 121.7 153.49C121.46 153.351 121.46 153.351 121.343 153.001C121.267 153.001 121.19 153.001 121.111 153.001C120.946 152.833 120.946 152.833 120.753 152.598C120.282 152.041 119.773 151.531 119.254 151.02C119.076 150.843 118.898 150.667 118.72 150.49C118.603 150.375 118.603 150.375 118.484 150.258C118.315 150.077 118.315 150.077 118.315 149.96C118.849 149.874 119.383 149.789 119.917 149.704C119.999 149.691 120.08 149.678 120.165 149.664C121.171 149.505 122.177 149.354 123.186 149.218C123.327 149.199 123.327 149.199 123.471 149.18C123.927 149.118 124.384 149.058 124.841 148.999C126.483 148.811 126.483 148.811 127.865 147.971C128.021 147.703 128.152 147.452 128.277 147.171C128.313 147.092 128.349 147.013 128.387 146.932C128.506 146.675 128.622 146.417 128.739 146.159C128.821 145.979 128.903 145.8 128.985 145.621C129.153 145.257 129.32 144.892 129.486 144.526C129.71 144.034 129.938 143.543 130.167 143.053C130.3 142.767 130.433 142.482 130.566 142.197C130.656 142.003 130.656 142.003 130.748 141.806C131.128 140.985 131.484 140.155 131.825 139.316Z" fill="#FFBB4D"/>
<path d="M205.502 133.509C206.187 134.169 206.499 135.055 206.873 135.914C206.946 136.08 207.02 136.247 207.094 136.413C207.245 136.756 207.396 137.098 207.547 137.441C207.876 138.192 208.209 138.94 208.542 139.688C208.604 139.828 208.666 139.967 208.729 140.111C209.075 140.886 209.426 141.658 209.785 142.427C209.843 142.552 209.843 142.552 209.902 142.679C210.091 143.083 210.28 143.487 210.471 143.891C210.539 144.036 210.607 144.181 210.675 144.326C210.765 144.517 210.765 144.517 210.857 144.711C210.985 145.013 210.985 145.013 210.985 145.253C211.099 145.259 211.212 145.264 211.329 145.27C212.56 145.337 213.775 145.468 214.997 145.63C215.192 145.655 215.387 145.681 215.583 145.706C215.988 145.76 216.393 145.813 216.798 145.867C217.314 145.936 217.83 146.003 218.347 146.069C218.748 146.121 219.15 146.174 219.551 146.228C219.742 146.253 219.932 146.278 220.122 146.302C222.657 146.625 222.657 146.625 223.502 147.65C223.901 148.266 224.061 148.705 223.979 149.447C223.718 150.601 222.727 151.367 221.915 152.151C221.697 152.364 221.479 152.578 221.262 152.792C221.127 152.924 220.992 153.056 220.857 153.187C220.513 153.521 220.19 153.864 219.879 154.23C219.442 154.739 218.965 155.195 218.477 155.654C218.294 155.83 218.112 156.006 217.929 156.182C217.646 156.456 217.361 156.728 217.073 156.997C215.989 157.938 215.989 157.938 215.284 159.148C215.309 159.535 215.405 159.86 215.515 160.232C215.57 160.536 215.616 160.841 215.662 161.147C215.716 161.5 215.775 161.851 215.835 162.203C215.965 162.967 216.094 163.732 216.221 164.497C216.243 164.624 216.264 164.752 216.286 164.883C216.458 165.914 216.628 166.945 216.788 167.978C216.825 168.214 216.863 168.451 216.901 168.687C217.283 171.185 217.283 171.185 216.819 172.043C216.395 172.602 215.979 172.876 215.295 172.992C214.16 173.065 213.366 172.648 212.416 172.095C212.213 171.98 212.009 171.866 211.805 171.752C211.341 171.49 210.877 171.226 210.414 170.961C209.544 170.462 208.671 169.971 207.795 169.483C207.183 169.139 206.575 168.79 205.975 168.426C205.804 168.324 205.804 168.324 205.63 168.219C205.416 168.09 205.203 167.96 204.992 167.827C204.897 167.77 204.802 167.713 204.703 167.654C204.621 167.603 204.539 167.552 204.454 167.5C203.877 167.329 203.307 167.734 202.807 168.005C202.681 168.074 202.555 168.142 202.425 168.212C202.292 168.285 202.16 168.358 202.023 168.433C201.885 168.508 201.748 168.583 201.606 168.66C200.588 169.215 199.584 169.792 198.584 170.38C198.117 170.655 197.645 170.918 197.168 171.176C196.848 171.35 196.53 171.526 196.212 171.704C196.105 171.763 195.999 171.822 195.889 171.884C195.676 172.003 195.462 172.122 195.249 172.241C195.15 172.296 195.051 172.351 194.949 172.408C194.861 172.457 194.773 172.507 194.681 172.558C193.916 172.952 193.203 173.102 192.359 172.856C191.753 172.587 191.392 172.199 191.078 171.616C190.642 170.3 191.108 168.679 191.324 167.347C191.361 167.11 191.399 166.874 191.436 166.637C191.629 165.415 191.831 164.194 192.039 162.974C192.058 162.858 192.078 162.743 192.098 162.623C192.192 162.069 192.286 161.515 192.384 160.962C192.418 160.762 192.452 160.563 192.486 160.363C192.502 160.273 192.518 160.183 192.535 160.091C192.615 159.618 192.645 159.253 192.508 158.794C192.318 158.518 192.318 158.518 192.063 158.256C191.965 158.152 191.868 158.047 191.768 157.939C191.21 157.362 190.647 156.792 190.078 156.226C189.856 156.004 189.634 155.783 189.412 155.561C188.782 154.93 188.152 154.301 187.521 153.672C187.133 153.285 186.745 152.897 186.358 152.509C186.211 152.362 186.064 152.216 185.917 152.07C185.711 151.865 185.506 151.66 185.302 151.455C185.241 151.395 185.181 151.336 185.119 151.275C184.491 150.642 184.037 150.042 184 149.132C184.009 148.453 184.204 147.93 184.641 147.41C185.189 146.934 185.654 146.724 186.381 146.615C186.468 146.602 186.555 146.588 186.644 146.574C186.93 146.53 187.216 146.49 187.502 146.451C187.6 146.437 187.698 146.423 187.8 146.409C188.438 146.319 189.077 146.235 189.716 146.152C190.066 146.106 190.415 146.056 190.765 146.007C191.865 145.852 192.952 145.717 194.062 145.67C195.769 145.628 195.769 145.628 197.211 144.842C197.694 144.125 197.972 143.335 198.228 142.514C198.496 141.655 198.871 140.855 199.253 140.043C199.447 139.63 199.634 139.213 199.821 138.797C199.857 138.716 199.894 138.635 199.931 138.551C200.18 137.998 200.425 137.443 200.667 136.887C200.7 136.813 200.732 136.739 200.765 136.662C200.917 136.316 201.068 135.969 201.217 135.621C202.09 133.62 202.09 133.62 203.118 133.15C203.94 132.84 204.788 133.035 205.502 133.509Z" fill="#010100"/>
<path d="M204 139C204.403 139.33 204.576 139.778 204.784 140.242C204.825 140.33 204.865 140.419 204.907 140.51C205.039 140.8 205.17 141.09 205.301 141.381C205.392 141.581 205.484 141.782 205.575 141.982C206.011 142.944 206.44 143.908 206.856 144.878C206.892 144.961 206.927 145.043 206.964 145.129C207.13 145.516 207.294 145.904 207.457 146.292C207.944 147.602 207.944 147.602 209 148.409C209.546 148.584 210.114 148.648 210.68 148.726C210.817 148.746 210.954 148.766 211.095 148.787C211.532 148.85 211.969 148.912 212.406 148.974C212.837 149.036 213.267 149.099 213.698 149.161C213.978 149.201 214.258 149.242 214.538 149.282C215.694 149.448 216.847 149.628 218 149.815C217.55 150.355 217.087 150.869 216.587 151.362C216.524 151.425 216.46 151.489 216.395 151.554C216.128 151.82 215.86 152.085 215.592 152.351C214.92 153.019 214.255 153.684 213.641 154.408C213.243 154.862 212.8 155.274 212.364 155.69C211.676 156.364 211.324 157.009 211.285 157.985C211.288 158.588 211.396 159.174 211.496 159.766C211.516 159.891 211.537 160.016 211.558 160.144C211.623 160.542 211.689 160.939 211.755 161.337C211.798 161.599 211.842 161.862 211.885 162.125C212.119 163.553 212.119 163.553 212.368 164.979C212.385 165.073 212.402 165.167 212.419 165.264C212.464 165.509 212.509 165.754 212.554 166C212.607 166.342 212.628 166.655 212.615 167C212.21 166.845 211.835 166.669 211.458 166.454C211.35 166.393 211.243 166.331 211.132 166.268C211.017 166.203 210.902 166.137 210.783 166.069C210.663 166 210.543 165.932 210.419 165.861C209.296 165.219 208.18 164.566 207.065 163.91C206.956 163.846 206.847 163.782 206.735 163.717C206.491 163.573 206.249 163.428 206.006 163.283C205.879 163.207 205.752 163.13 205.621 163.052C205.505 162.983 205.39 162.913 205.271 162.842C204.711 162.542 204.151 162.468 203.521 162.554C203.153 162.686 202.822 162.87 202.482 163.064C202.384 163.118 202.285 163.172 202.184 163.228C201.871 163.402 201.559 163.578 201.248 163.755C201.149 163.811 201.05 163.867 200.948 163.925C199.997 164.462 199.053 165.011 198.11 165.563C197.823 165.731 197.536 165.898 197.249 166.065C197.04 166.187 196.832 166.31 196.623 166.432C196.497 166.506 196.37 166.58 196.24 166.656C196.126 166.723 196.013 166.789 195.897 166.857C195.624 167 195.624 167 195.385 167C195.585 165.465 195.832 163.942 196.103 162.418C196.134 162.24 196.166 162.061 196.197 161.883C196.44 160.512 196.44 160.512 196.531 160.001C196.587 159.688 196.64 159.375 196.693 159.061C196.709 158.977 196.724 158.893 196.74 158.806C196.906 157.793 196.804 157.094 196.224 156.253C195.737 155.629 195.167 155.083 194.604 154.528C194.471 154.396 194.338 154.263 194.205 154.13C193.857 153.783 193.509 153.437 193.16 153.092C192.599 152.536 192.04 151.978 191.481 151.42C191.285 151.226 191.09 151.032 190.894 150.838C190.775 150.72 190.656 150.602 190.538 150.484C190.434 150.38 190.33 150.277 190.222 150.171C190 149.936 190 149.936 190 149.815C190.404 149.749 190.808 149.684 191.212 149.62C191.344 149.599 191.477 149.578 191.613 149.556C192.577 149.407 193.542 149.279 194.51 149.159C194.757 149.128 195.004 149.097 195.252 149.067C195.624 149.02 195.996 148.975 196.368 148.931C196.721 148.889 197.074 148.846 197.427 148.802C197.533 148.79 197.638 148.778 197.747 148.766C198.522 148.666 199.194 148.463 199.793 147.941C200.37 147.134 200.747 146.229 201.143 145.324C201.222 145.148 201.3 144.971 201.379 144.795C201.498 144.526 201.618 144.258 201.737 143.989C202.112 143.144 202.498 142.303 202.886 141.464C203.264 140.645 203.638 139.826 204 139Z" fill="#FFBB4D"/>
<path d="M109.273 90.3119C109.329 90.3351 109.385 90.3582 109.442 90.3821C110.804 90.9504 112.088 91.6542 113.346 92.4227C113.393 92.4511 113.44 92.4795 113.488 92.5088C114.034 92.8408 114.56 93.1886 115.068 93.5775C115.272 93.7367 115.272 93.7367 115.506 93.8427C115.513 93.8877 115.519 93.9326 115.526 93.9789C115.569 93.991 115.612 94.0032 115.656 94.0156C116.091 94.1739 116.454 94.5489 116.799 94.8486C116.922 94.9567 116.922 94.9567 117.057 95.0474C117.159 95.1291 117.159 95.1291 117.179 95.2653C117.236 95.2207 117.292 95.1762 117.351 95.1302C119.052 93.8159 121.2 93.2313 123.343 93.4897C123.978 93.5768 124.575 93.7085 125.172 93.9464C125.34 94.0029 125.34 94.0029 125.464 93.9186C125.621 93.786 125.732 93.6437 125.854 93.4783C125.902 93.4136 125.95 93.3488 125.999 93.2821C126.048 93.2144 126.098 93.1467 126.149 93.0769C126.198 93.01 126.248 92.9431 126.299 92.8742C126.523 92.5696 126.731 92.2677 126.92 91.9399C126.992 91.85 127.065 91.762 127.142 91.6764C127.31 91.4835 127.466 91.2877 127.615 91.0797C127.838 90.774 128.086 90.4977 128.343 90.2201C128.514 90.0353 128.679 89.8466 128.844 89.6571C131.858 86.2849 136.193 83.2102 140.818 82.8457C142.388 82.7706 143.963 83.3165 145.155 84.3342C147.574 86.5876 148.592 90.0293 149.376 93.1327C149.389 93.1829 149.403 93.2332 149.416 93.2849C149.555 93.8259 149.641 94.3723 149.723 94.9243C149.738 95.0258 149.754 95.1274 149.769 95.229C149.801 95.4415 149.833 95.654 149.864 95.8666C149.896 96.0807 149.928 96.2947 149.961 96.5086C150.16 97.8146 150.329 99.1105 150.39 100.432C150.392 100.484 150.395 100.537 150.397 100.591C150.411 100.885 150.418 101.178 150.422 101.471C150.423 101.557 150.424 101.643 150.425 101.732C150.431 102.609 150.368 103.476 150.274 104.348C150.269 104.405 150.263 104.463 150.257 104.522C150.083 106.151 149.601 107.74 148.684 109.109C148.646 109.165 148.609 109.221 148.571 109.279C147.733 110.471 146.37 111.321 144.948 111.613C144.359 111.715 143.768 111.797 143.176 111.876C143.33 112.034 143.484 112.193 143.639 112.351C143.687 112.401 143.734 112.45 143.784 112.501C144.079 112.803 144.375 113.103 144.674 113.401C147.522 116.245 147.522 116.245 147.54 117.355C147.495 117.892 147.347 118.356 146.983 118.761C145.889 119.634 144.185 119.477 142.865 119.515C142.696 119.521 142.527 119.526 142.358 119.532C141.816 119.55 141.275 119.567 140.733 119.579C140.034 119.574 140.034 119.574 139.405 119.823C139.294 119.967 139.214 120.112 139.131 120.274C139.067 120.386 139.003 120.499 138.939 120.611C138.868 120.738 138.798 120.865 138.728 120.993C138.328 121.727 137.907 122.451 137.472 123.166C137.446 123.209 137.42 123.252 137.393 123.296C136.343 125.027 136.343 125.027 135.431 125.31C134.832 125.436 134.321 125.304 133.79 125.007C133.512 124.795 133.323 124.502 133.124 124.217C133.093 124.173 133.062 124.128 133.031 124.082C132.684 123.581 132.359 123.067 132.037 122.549C132.004 122.497 131.972 122.445 131.938 122.391C130.494 120.069 129.127 117.705 127.815 115.306C127.633 114.975 127.45 114.644 127.267 114.313C126.65 113.197 126.052 112.073 125.467 110.94C125.418 110.846 125.418 110.846 125.368 110.749C125.275 110.571 125.184 110.393 125.092 110.214C125.05 110.134 125.05 110.134 125.008 110.052C124.905 109.849 124.819 109.68 124.785 109.453C124.718 109.475 124.651 109.496 124.581 109.518C124.333 109.588 124.095 109.633 123.84 109.67C123.753 109.683 123.665 109.695 123.575 109.709C123.484 109.722 123.392 109.735 123.301 109.747C123.208 109.761 123.115 109.774 123.022 109.788C122.796 109.821 122.569 109.853 122.343 109.885C122.336 109.925 122.329 109.964 122.322 110.005C121.422 115.116 120.369 120.232 118.934 125.223C118.875 125.43 118.818 125.636 118.761 125.843C118.522 126.692 118.289 127.401 117.493 127.871C117.015 128.114 116.451 128.141 115.94 127.994C115.15 127.669 114.512 127.014 113.887 126.448C113.839 126.404 113.79 126.36 113.74 126.315C113.251 125.871 112.771 125.418 112.295 124.961C112.214 124.884 112.134 124.807 112.053 124.73C111.978 124.658 111.903 124.586 111.828 124.514C111.727 124.418 111.625 124.325 111.522 124.232C111.438 124.144 111.438 124.144 111.352 124.055C110.793 123.768 109.917 124.157 109.343 124.314C109.252 124.338 109.16 124.363 109.068 124.387C108.683 124.49 108.299 124.594 107.915 124.698C106.043 125.206 106.043 125.206 105.237 125.328C105.159 125.34 105.159 125.34 105.078 125.353C104.492 125.43 103.981 125.315 103.489 124.989C102.979 124.554 102.786 124.044 102.726 123.385C102.68 122.344 103.454 121.242 103.914 120.348C103.946 120.286 103.977 120.225 104.01 120.161C104.457 119.287 104.918 118.421 105.379 117.555C105.329 117.561 105.279 117.568 105.227 117.574C102.894 117.868 101.117 117.729 99.1908 116.3C97.5826 115.03 96.5247 112.952 95.8779 111.045C95.8226 110.882 95.7648 110.72 95.707 110.558C93.8278 105.196 92.6743 97.6284 95.1611 92.317C95.9007 90.8944 96.9183 89.9018 98.3982 89.2802C98.4594 89.254 98.5207 89.2277 98.5838 89.2007C101.86 87.9793 106.165 89.0115 109.273 90.3119Z" fill="black"/>
<path d="M100.392 91.3375C100.438 91.3308 100.484 91.324 100.531 91.317C105.534 90.5899 110.341 93.0254 114.252 95.9362C114.565 96.1719 114.868 96.4166 115.161 96.6779C115.221 96.7315 115.221 96.7315 115.283 96.7862C115.376 96.8691 115.469 96.9525 115.562 97.0361C115.489 97.3067 115.356 97.5226 115.213 97.7624C114.686 98.6816 114.42 99.6799 114.228 100.715C113.913 100.673 113.599 100.628 113.288 100.567C112.214 100.356 111.122 100.244 110.033 100.389C109.974 100.396 109.915 100.403 109.854 100.411C109.572 100.456 109.383 100.507 109.184 100.718C108.943 101.066 108.922 101.276 108.994 101.684C109.075 101.992 109.215 102.16 109.482 102.328C109.827 102.483 110.193 102.443 110.563 102.434C111.234 102.428 111.899 102.445 112.569 102.493C112.645 102.498 112.721 102.503 112.8 102.509C113.313 102.548 113.812 102.623 114.317 102.721C114.327 102.783 114.337 102.845 114.348 102.909C114.635 104.449 115.368 106.209 116.576 107.264C116.68 107.383 116.68 107.383 116.705 107.513C116.622 107.753 116.454 107.915 116.281 108.095C116.241 108.137 116.202 108.179 116.161 108.222C115.348 109.066 114.455 109.844 113.532 110.565C113.483 110.604 113.434 110.642 113.384 110.681C110.741 112.737 107.705 114.704 104.338 115.223C104.238 115.238 104.139 115.254 104.04 115.271C102.867 115.47 101.896 115.321 100.898 114.629C97.4382 111.92 96.9642 106.135 96.471 102.097C96.3855 101.339 96.3437 100.582 96.3417 99.8189C96.3407 99.6915 96.3407 99.6915 96.3397 99.5616C96.3318 97.3955 96.4417 94.8422 97.6192 92.9456C97.6512 92.8806 97.6832 92.8155 97.7161 92.7485C98.3687 91.7885 99.3035 91.4971 100.392 91.3375Z" fill="#F4A99C"/>
<path d="M140.246 85.4186C140.331 85.4045 140.417 85.3904 140.504 85.3759C141.527 85.2198 142.346 85.3463 143.196 85.942C145.033 87.309 145.882 89.8175 146.534 91.9263C146.573 92.0545 146.573 92.0545 146.614 92.1852C147.042 93.6056 147.315 95.0372 147.526 96.5046C147.539 96.5916 147.552 96.6786 147.565 96.7683C148.065 100.214 148.713 104.773 146.69 107.873C145.96 108.799 145.084 109.183 143.941 109.347C143.894 109.354 143.847 109.36 143.798 109.367C140.6 109.826 137.319 109.035 134.311 107.969C134.245 107.946 134.178 107.922 134.109 107.898C130.496 106.6 130.496 106.6 129.48 105.703C129.428 105.561 129.428 105.561 129.504 105.338C129.547 105.251 129.591 105.164 129.635 105.078C129.681 104.983 129.726 104.889 129.77 104.794C129.793 104.747 129.815 104.7 129.838 104.651C130.423 103.372 130.491 101.929 130.356 100.55C130.724 100.306 131.095 100.089 131.495 99.9019C131.549 99.8765 131.604 99.851 131.659 99.8249C132.529 99.4275 133.439 99.1154 134.343 98.8056C134.402 98.7852 134.46 98.7648 134.521 98.7438C134.572 98.7265 134.623 98.7093 134.675 98.6914C134.877 98.6058 134.985 98.4927 135.106 98.313C135.227 98.0112 135.197 97.7159 135.111 97.4072C134.946 97.1028 134.781 96.9461 134.465 96.8069C134.252 96.797 134.052 96.8286 133.842 96.8644C133.783 96.8741 133.723 96.8838 133.661 96.8938C132.457 97.1089 131.324 97.6409 130.267 98.2433C130.032 98.3698 130.032 98.3698 129.828 98.4001C129.8 98.3497 129.8 98.3497 129.772 98.2983C129.221 97.3111 128.649 96.3771 127.783 95.6344C127.66 95.5193 127.66 95.5193 127.561 95.325C127.606 95.3183 127.651 95.3117 127.698 95.3048C127.71 95.2622 127.722 95.2196 127.734 95.1757C127.796 95.0057 127.871 94.8835 127.975 94.7363C128.011 94.6848 128.047 94.6332 128.085 94.5801C128.142 94.4991 128.142 94.4991 128.201 94.4164C128.28 94.3045 128.358 94.1926 128.437 94.0806C128.493 94.0001 128.493 94.0001 128.551 93.9181C128.673 93.7417 128.79 93.562 128.905 93.3808C129.068 93.1272 129.248 92.9001 129.448 92.6736C129.58 92.5208 129.707 92.3643 129.833 92.2065C132.118 89.3528 135.197 86.8027 138.739 85.7294C138.819 85.7043 138.899 85.6792 138.981 85.6534C139.396 85.5406 139.822 85.4833 140.246 85.4186Z" fill="#F4A99C"/>
<path d="M127.853 107.606C128.074 107.607 128.218 107.665 128.408 107.774C128.46 107.803 128.512 107.832 128.565 107.863C128.62 107.894 128.675 107.926 128.732 107.959C128.849 108.025 128.966 108.09 129.083 108.156C129.141 108.189 129.199 108.221 129.259 108.255C131.076 109.267 133.019 109.999 134.989 110.655C135.077 110.684 135.077 110.684 135.167 110.715C135.883 110.953 136.603 111.134 137.341 111.289C137.466 111.315 137.466 111.315 137.592 111.342C137.969 111.42 138.344 111.491 138.726 111.539C139.573 111.65 139.999 111.87 140.537 112.534C140.739 112.779 140.96 113.008 141.177 113.239C141.269 113.339 141.36 113.438 141.452 113.537C142.125 114.264 142.828 114.962 143.526 115.663C143.827 115.965 144.126 116.268 144.422 116.574C144.457 116.609 144.492 116.645 144.527 116.682C144.761 116.924 144.761 116.924 144.773 117C144.214 117.051 143.657 117.071 143.097 117.084C141.721 117.119 140.336 117.159 138.971 117.344C138.909 117.351 138.848 117.359 138.784 117.367C138.318 117.437 137.98 117.587 137.687 117.966C137.584 118.122 137.49 118.28 137.398 118.443C137.369 118.493 137.341 118.543 137.311 118.595C137.225 118.747 137.141 118.901 137.058 119.055C136.799 119.527 136.535 119.994 136.262 120.458C136.097 120.74 135.934 121.023 135.773 121.307C135.281 122.175 135.281 122.175 135.073 122.478C135.028 122.485 134.983 122.491 134.936 122.498C133.51 120.389 132.221 118.204 130.976 115.985C130.935 115.912 130.935 115.912 130.893 115.837C130.098 114.419 129.32 112.992 128.545 111.563C128.504 111.489 128.464 111.414 128.422 111.337C127.914 110.401 127.418 109.46 126.942 108.507C127.109 108.276 127.271 108.102 127.495 107.925C127.689 107.78 127.689 107.78 127.853 107.606Z" fill="#F4A99C"/>
<path d="M118.795 108.966C119.022 109.017 119.229 109.113 119.44 109.207C119.507 109.237 119.507 109.237 119.576 109.267C119.686 109.315 119.796 109.363 119.906 109.412C119.882 110.039 119.76 110.647 119.645 111.261C119.634 111.32 119.623 111.38 119.611 111.441C117.791 121.199 117.791 121.199 116.349 125.326C116.305 125.333 116.26 125.34 116.213 125.347C116.088 125.237 115.971 125.126 115.854 125.008C115.78 124.936 115.707 124.863 115.633 124.79C115.594 124.753 115.556 124.715 115.517 124.676C115.332 124.495 115.144 124.318 114.955 124.141C114.675 123.876 114.396 123.61 114.119 123.342C114.017 123.245 113.916 123.147 113.815 123.049C113.729 122.966 113.643 122.883 113.557 122.8C113.406 122.654 113.255 122.508 113.103 122.362C113.031 122.293 113.031 122.293 112.958 122.222C112.418 121.697 112.418 121.697 111.731 121.417C111.523 121.424 111.335 121.442 111.131 121.475C111.068 121.485 111.006 121.495 110.942 121.505C109.368 121.77 107.802 122.209 106.27 122.654C105.98 122.739 105.7 122.809 105.399 122.844C105.453 122.511 105.605 122.257 105.779 121.974C106.136 121.375 106.457 120.761 106.773 120.14C106.846 119.998 106.918 119.856 106.992 119.715C107.221 119.269 107.447 118.821 107.671 118.372C107.736 118.241 107.801 118.111 107.867 117.981C108.013 117.69 108.158 117.399 108.295 117.103C108.318 117.055 108.341 117.006 108.364 116.957C108.425 116.83 108.484 116.702 108.543 116.574C108.722 116.315 108.922 116.214 109.199 116.083C109.333 116.016 109.466 115.949 109.599 115.881C109.673 115.843 109.747 115.806 109.824 115.767C112.964 114.171 116.393 111.879 118.556 109.055C118.657 108.971 118.657 108.971 118.795 108.966Z" fill="#F4A99C"/>
<path d="M125.094 96.5273C126.375 97.262 127.195 98.4021 127.731 99.7562C127.752 99.8077 127.773 99.8593 127.795 99.9124C128.158 101.057 128.082 102.314 127.722 103.447C127.703 103.513 127.683 103.578 127.663 103.645C127.222 104.996 126.239 106.086 124.99 106.748C123.553 107.471 122.057 107.585 120.526 107.09C119.034 106.57 117.925 105.541 117.22 104.132C116.523 102.58 116.471 101.019 117.016 99.4187C117.176 99.0061 117.385 98.6344 117.623 98.2625C117.652 98.2163 117.68 98.1701 117.71 98.1224C119.303 95.751 122.679 95.1907 125.094 96.5273Z" fill="#F4A99C"/>
</svg>
