<svg width="350" height="350" viewBox="0 0 350 350" fill="none" xmlns="http://www.w3.org/2000/svg">
<path d="M195.958 96.5053C196.156 96.5392 196.354 96.5732 196.557 96.6082C204.293 97.973 211.906 100.402 219.205 103.276C219.353 103.14 219.353 103.14 219.504 103.002C220.331 102.265 221.07 101.713 222.111 101.301C222.431 101.17 222.431 101.17 222.758 101.037C224.581 100.433 226.272 100.261 228.191 100.272C228.563 100.273 228.563 100.273 228.942 100.275C242.992 100.481 256.076 108.264 265.665 118.094C266.466 118.933 267.206 119.813 267.924 120.723C268.44 121.374 268.98 122 269.521 122.629C276.977 131.574 282.174 143.922 281.271 155.637C280.843 159.562 278.948 163.483 275.946 166.073C272.448 168.742 268.435 169.905 264.062 169.884C263.885 169.885 263.709 169.886 263.527 169.887C262.135 169.885 260.763 169.774 259.379 169.63C259.434 169.789 259.49 169.947 259.547 170.111C260.762 173.6 261.864 177.054 262.538 180.689C262.575 180.876 262.612 181.062 262.649 181.254C263.865 187.665 263.706 194.865 262.313 201.227C262.249 201.528 262.249 201.528 262.185 201.834C261.273 206.068 259.842 210.051 257.799 213.866C257.693 214.078 257.588 214.289 257.479 214.506C254.96 219.425 251.073 223.802 246.74 227.182C246.555 227.327 246.555 227.327 246.367 227.474C242.204 230.708 237.469 233.263 232.521 235.082C232.664 235.181 232.806 235.279 232.953 235.381C236.856 238.148 240.449 241.428 243.354 245.238C243.451 245.364 243.548 245.49 243.648 245.619C245.651 248.237 247.333 250.987 248.898 253.885C248.976 254.029 249.055 254.174 249.135 254.323C249.674 255.339 249.674 255.339 249.674 255.846C249.823 255.846 249.972 255.846 250.125 255.846C250.164 255.579 250.164 255.579 250.204 255.308C250.317 254.678 250.449 254.07 250.604 253.449C250.652 253.256 250.7 253.063 250.75 252.864C250.849 252.472 250.948 252.08 251.05 251.688C251.941 248.081 251.98 244.595 251.87 240.908C251.854 240.318 251.845 239.728 251.836 239.137C251.826 238.872 251.826 238.872 251.815 238.601C251.802 237.251 252.207 236.353 253.059 235.307C254.247 234.381 255.683 234.472 257.122 234.63C260.15 235.359 262.41 237.229 264.57 239.37C264.768 239.566 264.967 239.761 265.172 239.963C268.12 243.03 269.743 246.761 270.847 250.824C270.894 250.994 270.94 251.165 270.989 251.341C272.102 255.682 272.138 261.249 270.889 265.55C270.809 265.859 270.728 266.167 270.648 266.476C269.144 272.106 266.153 277.364 261.861 281.349C261.675 281.535 261.489 281.721 261.297 281.913C261.111 282.099 260.925 282.286 260.733 282.477C260.621 282.594 260.508 282.711 260.393 282.831C259.467 283.782 258.5 284.61 257.432 285.397C257.275 285.514 257.117 285.631 256.955 285.751C251.052 290.075 244.254 292.692 237.035 293.762C236.681 293.826 236.681 293.826 236.32 293.891C235.058 294.032 233.804 294.011 232.535 294.002C232.273 294.001 232.011 294 231.741 293.999C231.098 293.996 230.456 293.992 229.813 293.988C229.828 294.182 229.844 294.377 229.86 294.577C230.036 296.945 230.083 299.301 230.092 301.675C230.093 301.874 230.094 302.073 230.095 302.278C230.1 303.33 230.103 304.382 230.105 305.434C230.108 306.508 230.115 307.583 230.124 308.657C230.13 309.495 230.132 310.333 230.133 311.171C230.134 311.567 230.137 311.963 230.141 312.358C230.185 316.766 229.438 320.633 226.292 323.942C223.461 326.63 219.995 327.575 216.271 328.293C216.102 328.333 215.934 328.373 215.76 328.414C214.972 328.548 214.195 328.56 213.398 328.565C213.146 328.567 213.146 328.567 212.889 328.57C206.604 328.616 200.415 328.37 195.53 323.839C192.432 320.505 191.589 315.771 191.67 311.366C191.405 311.432 191.14 311.497 190.866 311.564C187.437 312.323 183.901 312.527 180.398 312.541C180.128 312.542 179.857 312.544 179.579 312.545C178.71 312.549 177.841 312.551 176.972 312.551C176.675 312.552 176.379 312.552 176.073 312.552C171.379 312.555 166.766 312.375 162.104 311.818C161.751 311.776 161.398 311.735 161.045 311.694C160.119 311.586 159.193 311.477 158.267 311.366C158.27 311.609 158.272 311.851 158.275 312.1C158.238 316.314 156.756 320.65 153.845 323.716C149.571 327.768 143.698 328.571 138.068 328.576C137.896 328.576 137.725 328.576 137.548 328.576C132.233 328.569 126.911 327.69 122.899 323.888C119.788 320.517 119.376 316.396 119.388 312.021C119.387 311.646 119.387 311.27 119.386 310.895C119.385 309.898 119.387 308.902 119.39 307.906C119.391 307.288 119.393 306.669 119.393 306.051C119.403 300.14 119.462 294.243 119.899 288.346C119.912 288.166 119.925 287.986 119.939 287.8C120.218 283.984 120.562 280.182 121.028 276.384C120.781 276.468 120.534 276.553 120.28 276.639C120.133 276.69 119.986 276.74 119.834 276.792C119.53 276.896 119.226 277.001 118.921 277.106C118.72 277.174 118.72 277.174 118.515 277.243C118.38 277.289 118.246 277.335 118.107 277.383C114.619 278.353 109.929 278.222 106.583 276.835C106.383 276.767 106.182 276.7 105.976 276.63C102.971 275.57 100.329 273.325 98.9097 270.473C97.2688 267.022 97.1904 262.559 98.3719 258.92C98.4749 258.65 98.5779 258.38 98.684 258.102C98.7749 257.858 98.7749 257.858 98.8676 257.609C100.294 253.822 102.253 250.428 104.778 247.269C104.932 247.072 105.086 246.874 105.245 246.671C108.041 243.158 111.23 240.099 114.68 237.24C114.841 237.106 115.002 236.973 115.168 236.835C115.858 236.27 116.542 235.726 117.291 235.243C117.886 234.913 117.886 234.913 118.094 234.405C117.932 234.377 117.77 234.349 117.603 234.32C111.864 233.05 105.984 229.207 101.618 225.377C101.424 225.207 101.23 225.038 101.03 224.864C100.467 224.364 99.9122 223.858 99.3611 223.346C99.211 223.208 99.0608 223.07 98.9062 222.928C91.1599 215.528 86.9418 204.015 86.6568 193.449C86.6388 192.45 86.6353 191.45 86.6375 190.451C86.6377 190.239 86.6378 190.028 86.6379 189.81C86.656 182.974 87.4527 175.391 90.559 169.179C90.2779 169.252 89.9969 169.324 89.7073 169.399C85.1863 170.397 80.4984 169.531 76.5444 167.199C72.763 164.762 70.5674 160.794 69.5623 156.496C67.3839 146.153 71.8604 134.747 77.3956 126.188C77.9306 125.385 78.4828 124.596 79.0485 123.814C79.1441 123.682 79.2397 123.55 79.3382 123.413C82.2999 119.357 85.713 115.643 89.6562 112.53C90.0608 112.191 90.4651 111.853 90.8693 111.514C93.2404 109.579 95.8018 107.946 98.4583 106.436C98.6206 106.344 98.783 106.251 98.9502 106.156C103.141 103.802 107.564 102.172 112.226 101.019C112.386 100.979 112.546 100.938 112.712 100.897C115.122 100.316 117.545 100.279 120.012 100.272C120.168 100.271 120.325 100.27 120.486 100.269C124.082 100.259 127.917 100.795 130.733 103.276C130.733 103.425 130.733 103.574 130.733 103.727C130.951 103.629 131.168 103.53 131.393 103.428C139.182 99.982 147.408 97.7232 155.785 96.2796C155.999 96.2424 156.212 96.2052 156.433 96.1668C169.328 94.0063 183.099 94.2862 195.958 96.5053Z" fill="#F2D3A3"/>
<path d="M195.958 96.5053C196.156 96.5392 196.354 96.5732 196.557 96.6082C204.293 97.973 211.906 100.402 219.205 103.276C219.353 103.14 219.353 103.14 219.504 103.002C220.331 102.265 221.07 101.713 222.111 101.301C222.431 101.17 222.431 101.17 222.758 101.037C224.581 100.433 226.272 100.261 228.191 100.272C228.563 100.273 228.563 100.273 228.942 100.275C242.992 100.481 256.076 108.264 265.665 118.094C266.466 118.933 267.206 119.813 267.924 120.723C268.44 121.374 268.98 122 269.521 122.629C276.977 131.574 282.174 143.922 281.271 155.637C280.843 159.562 278.948 163.483 275.946 166.073C272.448 168.742 268.435 169.905 264.062 169.884C263.885 169.885 263.709 169.886 263.527 169.887C262.135 169.885 260.763 169.774 259.379 169.63C259.434 169.789 259.49 169.947 259.547 170.111C260.762 173.6 261.864 177.054 262.538 180.689C262.575 180.876 262.612 181.062 262.649 181.254C263.865 187.665 263.706 194.865 262.313 201.227C262.249 201.528 262.249 201.528 262.185 201.834C261.273 206.068 259.842 210.051 257.799 213.866C257.693 214.078 257.588 214.289 257.479 214.506C254.96 219.425 251.073 223.802 246.74 227.182C246.555 227.327 246.555 227.327 246.367 227.474C242.204 230.708 237.469 233.263 232.521 235.082C232.664 235.181 232.806 235.279 232.953 235.381C236.856 238.148 240.449 241.428 243.354 245.238C243.451 245.364 243.548 245.49 243.648 245.619C245.651 248.237 247.333 250.987 248.898 253.885C248.976 254.029 249.055 254.174 249.135 254.323C249.674 255.339 249.674 255.339 249.674 255.846C249.823 255.846 249.972 255.846 250.125 255.846C250.164 255.579 250.164 255.579 250.204 255.308C250.317 254.678 250.449 254.07 250.604 253.449C250.652 253.256 250.7 253.063 250.75 252.864C250.849 252.472 250.948 252.08 251.05 251.688C251.941 248.081 251.98 244.595 251.87 240.908C251.854 240.318 251.845 239.728 251.836 239.137C251.826 238.872 251.826 238.872 251.815 238.601C251.802 237.251 252.207 236.353 253.059 235.307C254.247 234.381 255.683 234.472 257.122 234.63C260.15 235.359 262.41 237.229 264.57 239.37C264.768 239.566 264.967 239.761 265.172 239.963C268.12 243.03 269.743 246.761 270.847 250.824C270.894 250.994 270.94 251.165 270.989 251.341C272.102 255.682 272.138 261.249 270.889 265.55C270.809 265.859 270.728 266.167 270.648 266.476C269.144 272.106 266.153 277.364 261.861 281.349C261.675 281.535 261.489 281.721 261.297 281.913C261.111 282.099 260.925 282.286 260.733 282.477C260.621 282.594 260.508 282.711 260.393 282.831C259.467 283.782 258.5 284.61 257.432 285.397C257.275 285.514 257.117 285.631 256.955 285.751C251.052 290.075 244.254 292.692 237.035 293.762C236.681 293.826 236.681 293.826 236.32 293.891C235.058 294.032 233.804 294.011 232.535 294.002C232.273 294.001 232.011 294 231.741 293.999C231.098 293.996 230.456 293.992 229.813 293.988C229.828 294.182 229.844 294.377 229.86 294.577C230.036 296.945 230.083 299.301 230.092 301.675C230.093 301.874 230.094 302.073 230.095 302.278C230.1 303.33 230.103 304.382 230.105 305.434C230.108 306.508 230.115 307.583 230.124 308.657C230.13 309.495 230.132 310.333 230.133 311.171C230.134 311.567 230.137 311.963 230.141 312.358C230.185 316.766 229.438 320.633 226.292 323.942C223.461 326.63 219.995 327.575 216.271 328.293C216.102 328.333 215.934 328.373 215.76 328.414C214.972 328.548 214.195 328.56 213.398 328.565C213.146 328.567 213.146 328.567 212.889 328.57C206.604 328.616 200.415 328.37 195.53 323.839C192.432 320.505 191.589 315.771 191.67 311.366C191.405 311.432 191.14 311.497 190.866 311.564C187.437 312.323 183.901 312.527 180.398 312.541C180.128 312.542 179.857 312.544 179.579 312.545C178.71 312.549 177.841 312.551 176.972 312.551C176.675 312.552 176.379 312.552 176.073 312.552C171.379 312.555 166.766 312.375 162.104 311.818C161.751 311.776 161.398 311.735 161.045 311.694C160.119 311.586 159.193 311.477 158.267 311.366C158.27 311.609 158.272 311.851 158.275 312.1C158.238 316.314 156.756 320.65 153.845 323.716C149.571 327.768 143.698 328.571 138.068 328.576C137.896 328.576 137.725 328.576 137.548 328.576C132.233 328.569 126.911 327.69 122.899 323.888C119.788 320.517 119.376 316.396 119.388 312.021C119.387 311.646 119.387 311.27 119.386 310.895C119.385 309.898 119.387 308.902 119.39 307.906C119.391 307.288 119.393 306.669 119.393 306.051C119.403 300.14 119.462 294.243 119.899 288.346C119.912 288.166 119.925 287.986 119.939 287.8C120.218 283.984 120.562 280.182 121.028 276.384C120.781 276.468 120.534 276.553 120.28 276.639C120.133 276.69 119.986 276.74 119.834 276.792C119.53 276.896 119.226 277.001 118.921 277.106C118.72 277.174 118.72 277.174 118.515 277.243C118.38 277.289 118.246 277.335 118.107 277.383C114.619 278.353 109.929 278.222 106.583 276.835C106.383 276.767 106.182 276.7 105.976 276.63C102.971 275.57 100.329 273.325 98.9097 270.473C97.2688 267.022 97.1904 262.559 98.3719 258.92C98.4749 258.65 98.5779 258.38 98.684 258.102C98.7749 257.858 98.7749 257.858 98.8676 257.609C100.294 253.822 102.253 250.428 104.778 247.269C104.932 247.072 105.086 246.874 105.245 246.671C108.041 243.158 111.23 240.099 114.68 237.24C114.841 237.106 115.002 236.973 115.168 236.835C115.858 236.27 116.542 235.726 117.291 235.243C117.886 234.913 117.886 234.913 118.094 234.405C117.932 234.377 117.77 234.349 117.603 234.32C111.864 233.05 105.984 229.207 101.618 225.377C101.424 225.207 101.23 225.038 101.03 224.864C100.467 224.364 99.9122 223.858 99.3611 223.346C99.211 223.208 99.0608 223.07 98.9062 222.928C91.1599 215.528 86.9418 204.015 86.6568 193.449C86.6388 192.45 86.6353 191.45 86.6375 190.451C86.6377 190.239 86.6378 190.028 86.6379 189.81C86.656 182.974 87.4527 175.391 90.559 169.179C90.2779 169.252 89.9969 169.324 89.7073 169.399C85.1863 170.397 80.4984 169.531 76.5444 167.199C72.763 164.762 70.5674 160.794 69.5623 156.496C67.3839 146.153 71.8604 134.747 77.3956 126.188C77.9306 125.385 78.4828 124.596 79.0485 123.814C79.1441 123.682 79.2397 123.55 79.3382 123.413C82.2999 119.357 85.713 115.643 89.6562 112.53C90.0608 112.191 90.4651 111.853 90.8693 111.514C93.2404 109.579 95.8018 107.946 98.4583 106.436C98.6206 106.344 98.783 106.251 98.9502 106.156C103.141 103.802 107.564 102.172 112.226 101.019C112.386 100.979 112.546 100.938 112.712 100.897C115.122 100.316 117.545 100.279 120.012 100.272C120.168 100.271 120.325 100.27 120.486 100.269C124.082 100.259 127.917 100.795 130.733 103.276C130.733 103.425 130.733 103.574 130.733 103.727C130.951 103.629 131.168 103.53 131.393 103.428C139.182 99.982 147.408 97.7232 155.785 96.2796C155.999 96.2424 156.212 96.2052 156.433 96.1668C169.328 94.0063 183.099 94.2862 195.958 96.5053ZM159.396 101.471C159.038 101.513 159.038 101.513 158.674 101.556C151.008 102.469 143.578 104.345 136.375 107.113C136.169 107.191 135.964 107.269 135.752 107.35C135.228 107.551 134.708 107.76 134.189 107.973C133.913 108.087 133.638 108.2 133.354 108.316C132.728 108.634 132.728 108.634 132.559 109.214C132.536 109.89 132.551 110.555 132.581 111.232C132.651 115.23 131.671 119.332 130.507 123.137C130.439 123.359 130.372 123.58 130.302 123.808C126.917 134.7 121.989 146.004 114.08 154.426C113.651 154.884 113.248 155.352 112.846 155.835C109.441 159.712 104.364 164.205 99.414 165.878C98.221 166.292 97.5313 166.59 96.8626 167.692C96.4837 168.553 96.2039 169.438 95.9393 170.34C95.7327 171.043 95.5099 171.741 95.2862 172.439C94.377 175.333 93.6061 178.232 93.1341 181.23C93.0683 181.648 92.9968 182.066 92.9213 182.482C92.5427 184.749 92.5138 186.988 92.519 189.282C92.5197 189.935 92.5144 190.588 92.5087 191.241C92.4955 195.069 92.7991 198.932 93.8739 202.624C93.9311 202.826 93.9883 203.028 94.0472 203.237C96.9668 213.17 103.571 221.043 112.604 225.999C117.526 228.63 122.682 230.599 128.187 231.58C128.388 231.616 128.589 231.653 128.796 231.69C128.977 231.721 129.159 231.752 129.346 231.784C130.094 231.997 130.485 232.455 130.958 233.05C131.033 233.125 131.107 233.199 131.184 233.276C131.281 234.107 131.205 234.583 130.86 235.35C130.077 236.208 129.355 236.385 128.25 236.662C118.952 239.042 111.418 246.973 106.564 254.984C104.403 258.637 102.658 262.442 103.278 266.79C103.751 268.575 105.049 269.976 106.586 270.943C109.943 272.674 114.099 272.993 117.727 271.856C119.391 271.194 121.189 270.311 122.382 268.936C122.569 268.477 122.569 268.477 122.682 267.957C122.731 267.759 122.781 267.561 122.831 267.358C122.882 267.143 122.933 266.929 122.985 266.708C123.068 266.372 123.068 266.372 123.153 266.03C123.331 265.311 123.506 264.592 123.68 263.872C124.338 261.151 125.002 258.445 125.912 255.795C125.974 255.611 126.037 255.426 126.101 255.236C126.496 254.128 126.912 253.016 128.024 252.46C128.946 252.344 129.879 252.252 130.723 252.688C131.318 253.171 131.618 253.536 131.861 254.266C131.919 255.377 131.79 256.279 131.472 257.342C131.388 257.631 131.303 257.92 131.219 258.208C131.174 258.359 131.129 258.509 131.083 258.664C129.986 262.357 129.077 266.076 128.25 269.839C128.183 270.14 128.183 270.14 128.114 270.447C126.742 276.615 126.054 282.912 125.58 289.204C125.55 289.586 125.519 289.969 125.488 290.351C125.343 292.131 125.25 293.908 125.193 295.693C125.183 295.982 125.174 296.272 125.164 296.57C125.062 299.885 125.04 303.2 125.036 306.516C125.035 307.395 125.029 308.273 125.023 309.152C125.019 309.843 125.018 310.534 125.017 311.226C125.017 311.55 125.015 311.874 125.012 312.198C124.987 315.031 125.179 317.732 127.122 319.943C129.908 322.57 133.715 322.996 137.377 322.953C137.857 322.947 138.336 322.948 138.815 322.95C142.829 322.941 147.164 322.47 150.142 319.491C152.174 316.823 152.526 313.688 152.639 310.449C152.656 309.983 152.675 309.517 152.697 309.051C152.716 308.633 152.732 308.216 152.747 307.798C152.86 307.013 153.054 306.581 153.528 305.95C155.499 304.636 159.511 305.701 161.78 305.936C166.497 306.422 171.169 306.669 175.912 306.669C176.616 306.669 177.32 306.673 178.024 306.677C182.392 306.69 186.686 306.317 191.007 305.696C191.579 305.614 192.15 305.534 192.722 305.454C192.966 305.419 193.209 305.384 193.46 305.348C195.272 305.15 195.272 305.15 196.241 305.653C196.918 306.223 197.061 306.474 197.313 307.304C197.37 308.041 197.37 308.041 197.374 308.875C197.379 309.185 197.384 309.495 197.388 309.805C197.394 310.286 197.397 310.766 197.399 311.247C197.414 314.608 197.78 317.868 200.247 320.394C203.036 322.709 206.882 322.922 210.346 322.931C210.832 322.933 211.318 322.94 211.803 322.947C215.6 322.976 219.469 322.554 222.32 319.829C223.909 318.026 224.448 315.801 224.462 313.444C224.463 313.278 224.465 313.111 224.466 312.939C224.47 312.39 224.471 311.841 224.472 311.292C224.474 310.902 224.476 310.511 224.478 310.121C224.483 308.862 224.482 307.603 224.481 306.345C224.481 306.13 224.481 305.916 224.48 305.696C224.478 298.594 224.272 291.574 223.493 284.509C223.443 284.04 223.393 283.572 223.343 283.104C222.362 274.039 220.997 264.746 218.077 256.071C217.939 255.282 217.902 254.581 218.298 253.865C218.807 253.223 219.316 252.693 220.108 252.46C220.928 252.386 221.52 252.398 222.294 252.686C223.486 253.716 223.888 255.346 224.261 256.829C224.307 257.004 224.353 257.179 224.4 257.359C224.496 257.731 224.592 258.102 224.687 258.474C224.835 259.054 224.986 259.632 225.137 260.211C225.614 262.041 226.061 263.87 226.444 265.723C226.912 268.007 226.912 268.007 228.409 269.742C228.574 269.849 228.74 269.955 228.91 270.064C229.08 270.187 229.25 270.309 229.425 270.435C232.41 272.427 236.043 272.85 239.527 272.164C241.992 271.525 244.173 270.424 245.611 268.259C246.748 266.124 246.48 263.677 245.837 261.431C242.933 252.025 235.436 243.487 226.912 238.722C225.011 237.721 223.084 237.278 220.965 237.006C220.098 236.843 219.634 236.566 218.979 235.984C218.615 235.256 218.622 234.515 218.754 233.727C219.673 232.446 220.831 232.258 222.324 231.997C222.473 231.974 222.622 231.951 222.775 231.927C224.941 231.592 226.968 231.01 229.037 230.3C229.199 230.245 229.361 230.19 229.528 230.134C231.91 229.326 234.172 228.434 236.358 227.182C236.664 227.018 236.97 226.854 237.277 226.691C246.116 221.944 252.77 213.768 255.664 204.171C255.945 203.195 256.204 202.215 256.445 201.227C256.482 201.087 256.52 200.947 256.559 200.802C257.388 197.489 257.44 194.016 257.432 190.62C257.432 190.318 257.432 190.318 257.432 190.011C257.424 186.603 257.167 183.352 256.445 180.012C256.406 179.824 256.367 179.635 256.328 179.441C255.565 175.788 254.298 172.242 253.059 168.727C253.006 168.556 252.953 168.384 252.898 168.208C252.619 167.395 252.372 167.141 251.637 166.67C251.337 166.533 251.035 166.401 250.732 166.273C250.403 166.121 250.075 165.968 249.747 165.813C249.5 165.697 249.5 165.697 249.248 165.578C246.635 164.286 244.284 162.392 242 160.602C241.875 160.504 241.75 160.406 241.621 160.305C238.199 157.59 235.081 154.438 232.521 150.898C232.411 150.748 232.301 150.598 232.188 150.444C224.143 139.446 216.278 123.102 217.174 109.144C204.888 102.417 189.878 100.647 176.073 100.705C175.153 100.709 174.233 100.707 173.313 100.703C168.631 100.686 164.046 100.912 159.396 101.471Z" fill="black"/>
<path d="M246.188 110.555C253.008 114.042 259.694 119.287 264.344 125.394C264.463 125.55 264.582 125.705 264.705 125.865C266.47 128.182 268.127 130.516 269.535 133.068C269.639 133.254 269.743 133.44 269.85 133.631C273.158 139.586 275.491 145.664 275.516 152.534C275.518 152.973 275.518 152.973 275.52 153.421C275.477 156.619 274.751 159.338 272.542 161.706C269.613 164.364 265.798 164.425 262.061 164.259C253.153 163.633 244.79 156.657 239.146 150.25C238.401 149.367 237.708 148.45 237.035 147.512C236.932 147.369 236.829 147.227 236.723 147.079C233.016 141.891 230.063 136.326 227.811 130.359C227.57 129.722 227.325 129.087 227.078 128.452C225.392 124.045 224.06 119.441 223.267 114.786C223.222 114.566 223.176 114.346 223.129 114.119C222.862 112.765 222.765 111.438 222.745 110.061C222.741 109.898 222.738 109.735 222.733 109.567C222.735 108.555 222.867 107.914 223.493 107.113C229.139 102.878 240.733 107.886 246.188 110.555Z" fill="#7D5232"/>
<path d="M119.815 105.928C120.241 105.926 120.241 105.926 120.675 105.923C124.842 105.932 124.842 105.932 126.445 107.339C126.909 108.406 126.975 109.421 126.967 110.569C126.965 110.836 126.965 110.836 126.963 111.109C126.807 119.121 123.28 127.677 119.92 134.799C119.674 135.324 119.436 135.852 119.199 136.381C115.447 144.657 109.843 152.228 102.521 157.669C102.3 157.837 102.079 158.006 101.851 158.18C98.3893 160.712 94.4639 162.623 90.3335 163.762C90.1298 163.822 89.9262 163.881 89.7164 163.942C87.1783 164.572 84.1949 164.483 81.7571 163.537C81.4734 163.429 81.4734 163.429 81.184 163.32C78.5147 162.155 76.7326 159.878 75.6633 157.217C75.0654 155.345 74.8764 153.59 74.9016 151.631C74.9045 151.246 74.9045 151.246 74.9076 150.853C74.9426 148.832 75.1758 146.99 75.6633 145.03C75.7235 144.748 75.7838 144.466 75.8458 144.175C77.4269 136.968 81.2155 130.193 85.8196 124.492C86.0378 124.204 86.0378 124.204 86.2604 123.911C88.9996 120.385 92.3333 117.35 95.9759 114.787C96.1129 114.688 96.2498 114.59 96.391 114.489C101.646 110.733 107.71 107.832 114.031 106.436C114.213 106.394 114.394 106.353 114.581 106.31C116.329 105.947 118.035 105.917 119.815 105.928Z" fill="#7D5232"/>
<path d="M180.837 246.818C181.042 246.897 181.247 246.976 181.458 247.057C186.572 249.298 189.646 254.758 191.67 259.682C192.669 262.254 193.224 264.873 193.701 267.582C193.741 267.793 193.781 268.004 193.822 268.221C194.431 272.353 194.202 276.968 192.799 280.898C192.709 281.157 192.62 281.417 192.528 281.684C190.904 285.936 187.824 289.232 183.717 291.15C178.291 293.525 171.32 293.27 165.879 291.159C161.67 289.434 158.732 286.627 156.766 282.538C153.731 275.184 155.026 266.638 157.999 259.485C159.234 256.631 160.677 253.87 162.781 251.557C162.878 251.449 162.976 251.341 163.076 251.23C167.764 246.085 174.322 244.187 180.837 246.818Z" fill="#FFBB4D"/>
<path d="M188.434 244.643C191.212 246.987 193.265 249.751 195.056 252.911C195.13 253.041 195.204 253.171 195.28 253.304C197.547 257.357 198.858 261.882 199.57 266.453C199.609 266.701 199.609 266.701 199.649 266.954C200.779 274.39 199.738 282.552 195.335 288.824C191.067 294.323 185.7 296.935 178.956 298.19C171.056 299.007 163.22 297.431 156.924 292.448C152.468 288.803 150.042 283.402 149.466 277.738C149.384 276.474 149.378 275.209 149.381 273.943C149.381 273.772 149.381 273.6 149.381 273.423C149.397 268.666 150.154 264.178 151.723 259.682C151.773 259.535 151.824 259.389 151.876 259.237C153.56 254.445 156.149 250.278 159.622 246.592C159.749 246.453 159.875 246.315 160.005 246.172C167.571 238.186 180.044 237.751 188.434 244.643ZM164.813 249.526C164.6 249.718 164.386 249.91 164.167 250.109C160.179 253.834 157.989 258.81 156.462 263.97C156.393 264.198 156.324 264.425 156.253 264.66C154.56 270.792 154.34 277.928 157.317 283.712C159.899 288.107 163.492 290.481 168.282 291.98C170.397 292.501 172.441 292.71 174.617 292.69C174.864 292.688 175.112 292.687 175.368 292.685C180.576 292.616 185.245 291.248 188.962 287.443C191.572 284.689 192.773 281.36 193.601 277.725C193.667 277.44 193.741 277.156 193.824 276.875C195.432 269.227 192.637 260.309 188.737 253.814C188.181 253.014 187.578 252.284 186.931 251.557C186.72 251.298 186.72 251.298 186.504 251.033C184.186 248.253 180.827 246.245 177.226 245.689C172.58 245.269 168.325 246.353 164.813 249.526Z" fill="black"/>
<path d="M140.43 170.052C142.74 171.14 143.919 172.8 144.782 175.131C145.243 177.362 144.888 179.229 143.75 181.207C142.981 182.325 142.081 182.994 140.889 183.623C141.249 184.408 141.718 185.077 142.215 185.781C143.8 188.135 144.315 190.368 144.316 193.159C144.319 193.363 144.322 193.567 144.325 193.777C144.332 197.128 143.032 200.163 140.663 202.581C140.514 202.581 140.365 202.581 140.212 202.581C140.137 202.805 140.063 203.028 139.986 203.259C138.997 204.278 137.668 204.918 136.417 205.558C136.201 205.67 136.201 205.67 135.98 205.785C133.696 206.919 131.503 207.216 128.969 207.194C128.55 207.192 128.55 207.192 128.123 207.189C126.134 207.154 124.454 206.97 122.607 206.193C122.293 206.078 122.293 206.078 121.973 205.961C118.465 204.561 115.983 201.91 114.33 198.575C113.608 196.803 113.227 195.19 113.241 193.272C113.242 193.065 113.244 192.859 113.245 192.647C113.343 188.885 115.193 185.87 117.86 183.302C118.98 182.351 120.192 181.624 121.479 180.915C121.641 180.82 121.804 180.725 121.971 180.627C124.309 179.337 127.079 179.068 129.703 179.095C129.889 179.096 130.076 179.097 130.268 179.098C130.724 179.101 131.18 179.105 131.635 179.109C131.625 178.84 131.614 178.57 131.603 178.292C131.527 175.519 131.736 173.718 133.68 171.615C135.595 169.846 137.905 169.311 140.43 170.052Z" fill="#F4A99C"/>
<path d="M213.648 170.321C215.526 171.411 216.6 172.813 217.4 174.821C217.812 176.376 217.683 177.994 217.4 179.561C217.63 179.557 217.63 179.557 217.865 179.554C218.57 179.544 219.276 179.538 219.981 179.533C220.222 179.529 220.464 179.525 220.712 179.521C225.025 179.495 229.102 181.252 232.238 184.212C234.773 186.9 236.031 190.069 236.002 193.763C235.868 197.47 234.182 200.456 231.619 203.033C231.485 203.174 231.351 203.316 231.214 203.462C228.354 206.252 224.038 207.468 220.138 207.429C218.314 207.362 216.647 206.98 214.917 206.418C214.563 206.308 214.563 206.308 214.202 206.195C210.347 204.799 207.766 201.756 205.99 198.179C205.317 196.553 205.13 195.111 205.142 193.371C205.143 193.171 205.144 192.972 205.146 192.766C205.209 189.351 206.64 186.598 208.598 183.849C208.434 183.762 208.434 183.762 208.266 183.674C206.621 182.734 204.974 181.317 204.4 179.445C203.999 176.963 204.145 174.669 205.529 172.526C207.46 170.014 210.722 168.992 213.648 170.321Z" fill="#F4A99C"/>
<path d="M258.25 241.175C261.061 243.541 262.96 246.332 264.344 249.752C264.408 249.904 264.472 250.057 264.539 250.215C266.673 255.851 266.264 263.218 263.892 268.71C260.092 276.966 253.072 283.173 244.601 286.406C239.749 288.16 234.742 288.984 229.587 288.797C229.245 287.595 229.181 286.343 229.055 285.104C229.009 284.653 228.961 284.202 228.914 283.75C228.884 283.464 228.855 283.177 228.824 282.881C228.784 282.489 228.784 282.489 228.743 282.089C228.687 281.387 228.673 280.699 228.684 279.995C228.867 279.929 229.05 279.863 229.239 279.795C230.488 279.333 231.596 278.896 232.69 278.133C234.22 277.246 235.887 277.399 237.603 277.374C239.724 277.328 241.396 276.981 243.354 276.158C243.627 276.046 243.899 275.934 244.18 275.819C247.495 274.319 249.743 272.016 251.084 268.625C251.385 267.764 251.53 266.978 251.62 266.072C251.829 264.617 252.502 263.622 253.294 262.42C257.441 256.117 258.008 248.519 258.25 241.175Z" fill="#7D5232"/>
<path d="M184.082 178.15C185.193 179.044 186.029 180.241 186.48 181.592C186.62 183.384 186.155 184.623 185.041 186.007C183.352 187.802 180.988 188.844 178.58 189.266C178.282 189.266 177.985 189.266 177.678 189.266C177.683 190.282 177.7 191.297 177.72 192.313C177.721 192.599 177.723 192.885 177.724 193.18C177.763 194.862 177.868 196.117 179.032 197.391C180.384 198.653 182.217 198.69 183.972 198.667C186.715 198.531 188.408 197.202 190.232 195.288C190.587 194.887 190.93 194.476 191.262 194.056C191.697 193.522 191.887 193.357 192.563 193.274C193.818 193.234 194.517 193.385 195.508 194.231C196.125 195.157 196.118 195.852 195.959 196.939C194.995 199.832 191.998 201.932 189.414 203.259C188.598 203.605 187.778 203.9 186.931 204.162C186.708 204.236 186.484 204.311 186.254 204.387C182.116 204.693 178.789 204.628 175.448 201.985C174.937 201.598 174.937 201.598 174.066 201.679C173.553 201.993 173.553 201.993 173.037 202.412C171.868 203.269 170.703 203.736 169.327 204.162C168.992 204.273 168.992 204.273 168.65 204.387C164.164 204.766 160.466 204.378 156.914 201.453C156.65 201.244 156.65 201.244 156.381 201.031C154.816 199.726 153.205 198.076 153.006 195.966C153.09 194.98 153.361 194.54 153.98 193.78C154.988 193.107 155.957 193.166 157.139 193.328C157.732 193.751 157.732 193.751 158.268 194.457C159.867 196.391 161.711 198.268 164.345 198.569C164.826 198.596 165.304 198.605 165.786 198.604C165.956 198.604 166.125 198.604 166.3 198.604C167.629 198.576 168.635 198.311 169.778 197.616C169.939 197.544 170.099 197.471 170.265 197.396C170.857 197.067 170.928 196.665 171.132 196.037C171.207 195.888 171.281 195.739 171.358 195.585C171.393 195.11 171.415 194.635 171.43 194.159C171.439 193.875 171.448 193.591 171.458 193.299C171.467 193.002 171.476 192.704 171.485 192.397C171.495 192.095 171.505 191.792 171.515 191.49C171.539 190.749 171.562 190.007 171.584 189.266C171.236 189.224 171.236 189.224 170.882 189.182C168.336 188.77 165.811 187.574 164.14 185.57C163.205 184.219 162.801 183.034 163.007 181.366C163.524 179.564 164.942 178.396 166.472 177.415C167.946 176.613 169.493 176.258 171.132 175.95C171.338 175.908 171.544 175.866 171.757 175.823C175.936 175.258 180.53 175.722 184.082 178.15Z" fill="black"/>
<path d="M213.648 170.322C215.526 171.411 216.6 172.813 217.4 174.821C217.583 175.512 217.583 175.512 217.625 176.175C217.642 176.317 217.659 176.459 217.676 176.606C217.806 178.449 217.096 180.433 216.003 181.917C214.195 183.564 212.52 184.174 210.098 184.151C208.318 183.986 206.968 183.088 205.769 181.796C204.256 179.836 204.096 177.663 204.309 175.273C204.722 173.367 205.797 171.893 207.393 170.798C209.424 169.651 211.48 169.336 213.648 170.322Z" fill="black"/>
<path d="M140.43 170.053C142.74 171.14 143.919 172.8 144.782 175.132C145.245 177.37 144.871 179.202 143.767 181.2C142.867 182.541 141.536 183.495 139.995 183.992C137.747 184.396 136.011 183.993 134.118 182.72C132.869 181.645 131.94 180.058 131.635 178.432C131.455 175.892 131.637 174.072 133.272 172.056C135.199 169.971 137.672 169.243 140.43 170.053Z" fill="black"/>
<path d="M135.944 145.584C136.052 145.599 136.161 145.613 136.273 145.628C139.974 146.127 145.097 146.851 147.616 149.975C148.089 150.676 148.329 151.131 148.196 151.996C148.03 152.537 147.68 152.95 147.251 153.312C146.576 153.616 145.964 153.507 145.268 153.313C144.675 153.036 144.121 152.7 143.561 152.362C141.439 151.103 139.425 150.463 136.985 150.108C136.715 150.069 136.715 150.069 136.44 150.029C134.831 149.812 133.233 149.739 131.626 150.002C131.523 150.017 131.421 150.033 131.315 150.049C130.53 150.176 129.765 150.355 129 150.574C128.275 150.764 127.533 150.819 126.847 150.456C126.442 150.172 126.224 149.932 125.987 149.493C125.856 148.7 125.916 147.956 126.307 147.245C127.104 146.567 128.037 146.286 129.036 146.048C129.162 146.018 129.288 145.987 129.418 145.956C131.556 145.468 133.768 145.289 135.944 145.584Z" fill="black"/>
<path d="M218.124 155.679C218.264 155.754 218.264 155.754 218.406 155.83C219.133 156.257 219.717 156.81 219.997 157.675C220.067 158.541 219.995 159.125 219.578 159.896C218.996 160.497 218.493 160.77 217.68 160.757C216.884 160.64 216.127 160.29 215.374 159.997C213.308 159.195 211.464 158.855 209.269 158.862C209.115 158.862 209.115 158.862 208.957 158.862C206.274 158.873 203.572 159.135 201.066 160.246C200.299 160.572 199.653 160.592 198.849 160.383C198.142 159.948 197.894 159.431 197.656 158.599C197.556 157.838 197.58 157.305 197.898 156.612C199.205 154.966 200.847 154.636 202.772 154.32C203.07 154.27 203.367 154.218 203.664 154.166C208.35 153.367 213.773 153.345 218.124 155.679Z" fill="black"/>
<path d="M278.437 144.099C283.509 144.59 288.316 146.335 291.977 149.882L292.327 150.231L292.343 150.248L292.359 150.265C295.707 153.848 297.029 158.259 296.602 162.743L296.601 162.756C296.006 168.58 292.383 172.557 287.899 175.749L287.896 175.751L287.465 176.056L287.242 176.215C286.867 176.48 286.489 176.746 286.111 177.01C284.656 178.032 283.78 178.943 283.192 179.906C282.602 180.874 282.22 182.028 281.95 183.668L281.948 183.678L281.947 183.689C281.929 183.792 281.91 183.894 281.891 184L281.892 184.001C281.876 184.098 281.86 184.196 281.844 184.297L281.819 184.443L281.775 184.584C281.544 185.305 281.196 185.779 280.708 186.228L280.444 186.47L280.112 186.607C279.139 187.006 278.365 187.037 277.493 186.951L277.494 186.952C277.366 186.94 277.366 186.941 277.235 186.928L277.232 186.928C276.944 186.9 276.657 186.87 276.379 186.841C276.186 186.822 275.992 186.803 275.798 186.783L275.796 186.783L274.559 186.656C274.042 186.603 273.523 186.551 273.001 186.5L271.78 186.377C271.59 186.358 271.4 186.339 271.21 186.321L271.208 186.321C270.928 186.293 270.651 186.264 270.379 186.235L270.379 186.234L269.824 186.178L269.725 186.158C268.627 185.932 268.003 185.401 267.519 184.957L267.254 184.712L267.09 184.39C266.471 183.172 266.737 181.966 266.783 181.594C266.797 181.475 266.81 181.356 266.824 181.233L266.826 181.213C267.182 178.37 268.012 175.956 269.437 173.803C270.851 171.666 272.783 169.891 275.193 168.224L275.206 168.215L275.219 168.206C275.603 167.949 275.993 167.711 276.341 167.498C277.521 166.761 278.611 165.939 279.573 165.035L279.585 165.023L279.597 165.012C279.688 164.93 279.778 164.847 279.871 164.762C281.238 163.477 281.782 162.253 281.81 160.585C281.714 159.806 281.294 158.983 280.568 158.341C279.633 157.689 278.615 157.293 277.385 157.108L277.376 157.107C277.278 157.092 277.18 157.076 277.08 157.061C275.377 156.845 273.982 157.019 272.857 157.673C271.749 158.442 270.9 159.429 269.978 160.662L269.972 160.669C269.91 160.75 269.849 160.832 269.786 160.916C269.73 160.993 269.723 161.003 269.654 161.098L269.576 161.204L269.486 161.299C268.786 162.035 268.009 162.283 267.335 162.412L267.134 162.452L266.928 162.448C265.747 162.43 264.615 161.912 263.843 161.513C263.424 161.296 263.019 161.063 262.677 160.866C262.315 160.658 262.04 160.499 261.806 160.381C261.474 160.213 261.142 160.045 260.808 159.876L260.806 159.875C260.592 159.766 260.378 159.657 260.163 159.549C260.065 159.499 259.966 159.449 259.865 159.398L259.861 159.397C259.142 159.032 258.612 158.766 258.245 158.523C257.712 158.171 257.447 157.822 257.236 157.553L256.983 157.232L256.877 156.838C256.462 155.296 256.984 154.106 257.597 153.201C257.652 153.116 257.657 153.109 257.723 153.009L257.728 153.001L257.732 152.995C259.056 151.017 260.633 149.401 262.566 147.94C262.671 147.86 262.775 147.779 262.882 147.695L262.896 147.686L262.909 147.676C265.659 145.624 268.853 144.496 272.277 144.03L272.277 144.029C272.378 144.015 272.481 144 272.585 143.986L272.607 143.982C274.552 143.726 276.438 143.906 278.108 144.069L278.108 144.068C278.215 144.078 278.322 144.089 278.432 144.099L278.437 144.099Z" fill="#FFF288" stroke="black" stroke-width="4"/>
<path d="M267.478 188.796C270.796 186.911 275.556 186.79 278.836 189.48L279.149 189.75L279.172 189.771L279.196 189.794C279.311 189.905 279.314 189.908 279.426 190.015L279.669 190.246L279.69 190.265L279.71 190.286C281.524 192.111 282.205 194.413 282.088 196.67L282.083 196.755L282.072 196.84C281.767 199.041 280.591 201.007 278.726 202.376L278.683 202.408L278.638 202.438C276.085 204.107 273.618 204.271 270.902 203.916L270.844 203.908C268.459 203.525 266.689 202.116 265.441 200.728L265.401 200.684L265.365 200.638C263.821 198.704 263.363 196.41 263.696 194.214L263.705 194.154L263.718 194.094C264.184 191.919 265.485 190.128 267.351 188.875L267.413 188.833L267.478 188.796Z" fill="#FFF288" stroke="black" stroke-width="4"/>
<path d="M110.617 102.133C110.683 102.16 110.749 102.187 110.817 102.215C112.423 102.886 113.939 103.716 115.422 104.623C115.477 104.657 115.533 104.69 115.59 104.725C116.234 105.116 116.855 105.527 117.454 105.986C117.695 106.173 117.695 106.173 117.971 106.298C117.979 106.351 117.987 106.405 117.995 106.459C118.045 106.473 118.096 106.488 118.148 106.502C118.661 106.689 119.089 107.132 119.496 107.485C119.642 107.613 119.642 107.613 119.8 107.72C119.921 107.816 119.921 107.816 119.945 107.977C120.012 107.924 120.079 107.872 120.147 107.818C122.155 106.267 124.689 105.577 127.217 105.882C127.967 105.985 128.671 106.14 129.375 106.421C129.574 106.487 129.574 106.487 129.72 106.388C129.905 106.232 130.036 106.064 130.18 105.869C130.236 105.792 130.293 105.716 130.351 105.637C130.409 105.557 130.468 105.477 130.528 105.395C130.586 105.316 130.645 105.237 130.705 105.156C130.97 104.796 131.215 104.44 131.438 104.053C131.522 103.947 131.609 103.844 131.7 103.742C131.898 103.515 132.081 103.284 132.257 103.039C132.521 102.678 132.813 102.352 133.117 102.024C133.318 101.806 133.513 101.584 133.708 101.36C137.264 97.3814 142.379 93.7537 147.835 93.3236C149.688 93.2351 151.546 93.8792 152.952 95.0798C155.806 97.7385 157.007 101.799 157.932 105.461C157.948 105.52 157.964 105.579 157.98 105.64C158.143 106.279 158.245 106.923 158.342 107.575C158.36 107.694 158.378 107.814 158.396 107.934C158.434 108.185 158.471 108.436 158.508 108.686C158.546 108.939 158.584 109.191 158.622 109.444C158.858 110.985 159.057 112.514 159.128 114.073C159.131 114.135 159.134 114.197 159.137 114.261C159.153 114.607 159.162 114.953 159.166 115.299C159.168 115.4 159.169 115.502 159.171 115.606C159.177 116.641 159.103 117.664 158.992 118.693C158.985 118.761 158.978 118.828 158.971 118.898C158.767 120.821 158.198 122.695 157.115 124.311C157.071 124.377 157.027 124.443 156.982 124.511C155.993 125.917 154.386 126.921 152.707 127.265C152.013 127.385 151.316 127.482 150.618 127.575C150.799 127.762 150.981 127.949 151.163 128.136C151.22 128.194 151.276 128.252 151.335 128.312C151.682 128.669 152.032 129.022 152.385 129.374C155.745 132.73 155.745 132.73 155.766 134.039C155.714 134.672 155.538 135.22 155.109 135.698C153.818 136.728 151.807 136.543 150.251 136.588C150.051 136.595 149.852 136.601 149.652 136.608C149.013 136.629 148.374 136.649 147.735 136.663C146.911 136.657 146.911 136.657 146.168 136.951C146.037 137.121 145.943 137.292 145.845 137.483C145.77 137.616 145.694 137.748 145.618 137.881C145.534 138.03 145.452 138.181 145.37 138.331C144.897 139.198 144.401 140.052 143.887 140.895C143.857 140.946 143.826 140.997 143.794 141.049C142.555 143.091 142.555 143.091 141.48 143.425C140.773 143.573 140.169 143.419 139.544 143.068C139.215 142.818 138.992 142.471 138.758 142.135C138.721 142.083 138.685 142.031 138.647 141.977C138.238 141.385 137.854 140.779 137.475 140.168C137.437 140.106 137.398 140.045 137.359 139.981C135.654 137.242 134.041 134.453 132.493 131.622C132.279 131.231 132.063 130.84 131.847 130.45C131.119 129.134 130.414 127.807 129.723 126.471C129.665 126.359 129.665 126.359 129.606 126.245C129.497 126.035 129.389 125.825 129.281 125.614C129.232 125.52 129.232 125.52 129.182 125.423C129.06 125.184 128.958 124.984 128.919 124.717C128.839 124.742 128.76 124.767 128.678 124.793C128.385 124.875 128.105 124.929 127.804 124.972C127.701 124.987 127.597 125.002 127.491 125.018C127.383 125.033 127.276 125.048 127.168 125.064C127.058 125.08 126.948 125.095 126.839 125.111C126.571 125.15 126.304 125.188 126.037 125.226C126.029 125.273 126.021 125.319 126.012 125.367C124.95 131.398 123.708 137.434 122.015 143.323C121.946 143.566 121.878 143.81 121.811 144.054C121.529 145.056 121.254 145.892 120.315 146.447C119.751 146.733 119.086 146.765 118.483 146.592C117.551 146.208 116.799 145.436 116.061 144.768C116.004 144.716 115.946 144.664 115.887 144.611C115.31 144.087 114.744 143.552 114.182 143.013C114.087 142.922 113.992 142.832 113.897 142.741C113.808 142.656 113.72 142.571 113.631 142.486C113.513 142.373 113.392 142.263 113.27 142.153C113.171 142.05 113.171 142.05 113.069 141.945C112.41 141.606 111.377 142.065 110.7 142.25C110.592 142.279 110.483 142.308 110.375 142.337C109.921 142.458 109.468 142.58 109.014 142.703C106.806 143.302 106.806 143.302 105.855 143.446C105.762 143.461 105.762 143.461 105.668 143.475C104.975 143.566 104.373 143.431 103.792 143.046C103.191 142.533 102.963 141.932 102.892 141.154C102.838 139.925 103.751 138.625 104.294 137.571C104.331 137.498 104.369 137.425 104.407 137.35C104.935 136.319 105.478 135.297 106.023 134.275C105.964 134.283 105.904 134.29 105.843 134.298C103.091 134.645 100.994 134.481 98.7214 132.795C96.8239 131.296 95.5758 128.845 94.8127 126.594C94.7474 126.402 94.6792 126.211 94.611 126.02C92.3938 119.693 91.0329 110.765 93.9669 104.498C94.8395 102.82 96.0402 101.649 97.7862 100.915C97.8585 100.884 97.9308 100.853 98.0052 100.822C101.871 99.3805 106.95 100.598 110.617 102.133Z" fill="black"/>
<path d="M100.139 103.343C100.193 103.335 100.247 103.327 100.303 103.319C106.206 102.461 111.877 105.334 116.492 108.769C116.861 109.047 117.219 109.335 117.564 109.644C117.635 109.707 117.635 109.707 117.708 109.771C117.818 109.869 117.928 109.968 118.037 110.066C117.951 110.386 117.794 110.64 117.625 110.923C117.004 112.008 116.69 113.186 116.464 114.407C116.092 114.357 115.722 114.304 115.354 114.232C114.087 113.984 112.799 113.851 111.514 114.022C111.444 114.031 111.375 114.039 111.303 114.048C110.97 114.102 110.747 114.161 110.512 114.41C110.228 114.821 110.203 115.068 110.288 115.55C110.383 115.913 110.549 116.112 110.863 116.31C111.27 116.492 111.702 116.446 112.139 116.435C112.931 116.427 113.715 116.448 114.506 116.505C114.596 116.511 114.686 116.517 114.779 116.523C115.383 116.569 115.973 116.658 116.568 116.774C116.58 116.847 116.592 116.92 116.605 116.995C116.943 118.812 117.808 120.89 119.234 122.134C119.356 122.274 119.356 122.274 119.385 122.427C119.288 122.711 119.089 122.902 118.885 123.114C118.839 123.163 118.792 123.213 118.744 123.264C117.785 124.26 116.731 125.177 115.642 126.029C115.584 126.074 115.527 126.119 115.467 126.166C112.349 128.591 108.767 130.912 104.794 131.524C104.677 131.542 104.56 131.561 104.443 131.581C103.059 131.815 101.913 131.64 100.736 130.823C96.6539 127.627 96.0947 120.802 95.5127 116.038C95.4119 115.143 95.3625 114.25 95.3602 113.35C95.359 113.199 95.359 113.199 95.3578 113.046C95.3485 110.49 95.4782 107.478 96.8674 105.24C96.9052 105.163 96.9429 105.087 96.9818 105.008C97.7517 103.875 98.8547 103.531 100.139 103.343Z" fill="#F4A99C"/>
<path d="M147.161 96.3603C147.261 96.3437 147.362 96.327 147.466 96.3099C148.672 96.1257 149.638 96.2749 150.641 96.9778C152.808 98.5907 153.811 101.55 154.579 104.038C154.626 104.19 154.626 104.19 154.674 104.344C155.178 106.02 155.501 107.709 155.75 109.44C155.765 109.543 155.78 109.645 155.796 109.751C156.386 113.816 157.151 119.195 154.763 122.853C153.902 123.946 152.869 124.399 151.52 124.592C151.464 124.6 151.409 124.608 151.352 124.616C147.578 125.157 143.707 124.224 140.158 122.966C140.08 122.939 140.001 122.911 139.92 122.882C135.657 121.351 135.657 121.351 134.459 120.292C134.397 120.125 134.397 120.125 134.487 119.863C134.537 119.759 134.589 119.657 134.641 119.555C134.695 119.443 134.748 119.332 134.801 119.22C134.827 119.165 134.854 119.109 134.881 119.052C135.571 117.542 135.651 115.84 135.491 114.213C135.926 113.926 136.364 113.669 136.836 113.448C136.9 113.418 136.964 113.388 137.03 113.357C138.056 112.889 139.129 112.52 140.195 112.155C140.265 112.131 140.335 112.107 140.406 112.082C140.466 112.062 140.526 112.041 140.588 112.02C140.826 111.919 140.953 111.786 141.096 111.574C141.239 111.218 141.204 110.869 141.102 110.505C140.907 110.146 140.713 109.961 140.34 109.797C140.089 109.785 139.852 109.822 139.605 109.865C139.535 109.876 139.464 109.887 139.392 109.899C137.971 110.153 136.634 110.781 135.387 111.491C135.11 111.641 135.11 111.641 134.869 111.676C134.836 111.617 134.836 111.617 134.802 111.556C134.153 110.392 133.478 109.29 132.457 108.413C132.311 108.278 132.311 108.278 132.195 108.048C132.248 108.04 132.301 108.033 132.355 108.024C132.37 107.974 132.384 107.924 132.398 107.872C132.471 107.672 132.559 107.527 132.682 107.354C132.725 107.293 132.768 107.232 132.812 107.169C132.88 107.074 132.88 107.074 132.949 106.976C133.042 106.844 133.135 106.712 133.228 106.58C133.294 106.485 133.294 106.485 133.362 106.388C133.507 106.18 133.644 105.968 133.779 105.754C133.973 105.455 134.185 105.187 134.42 104.92C134.576 104.74 134.726 104.555 134.875 104.369C137.57 101.002 141.204 97.9932 145.382 96.7269C145.477 96.6973 145.571 96.6677 145.668 96.6373C146.157 96.5042 146.66 96.4366 147.161 96.3603Z" fill="#F4A99C"/>
<path d="M132.538 122.536C132.799 122.537 132.969 122.606 133.193 122.734C133.254 122.769 133.315 122.803 133.378 122.839C133.443 122.876 133.508 122.914 133.575 122.952C133.713 123.03 133.851 123.108 133.989 123.185C134.057 123.224 134.126 123.262 134.196 123.302C136.341 124.496 138.634 125.36 140.957 126.133C141.061 126.168 141.061 126.168 141.167 126.204C142.012 126.485 142.862 126.698 143.733 126.882C143.879 126.913 143.879 126.913 144.029 126.944C144.473 127.036 144.915 127.12 145.366 127.176C146.365 127.308 146.869 127.567 147.503 128.351C147.742 128.64 148.002 128.909 148.259 129.183C148.367 129.3 148.475 129.417 148.583 129.534C149.377 130.391 150.206 131.215 151.03 132.043C151.385 132.399 151.737 132.756 152.087 133.117C152.128 133.159 152.169 133.201 152.211 133.244C152.487 133.53 152.487 133.53 152.501 133.62C151.842 133.68 151.185 133.703 150.523 133.719C148.901 133.76 147.266 133.807 145.656 134.025C145.583 134.034 145.51 134.043 145.435 134.052C144.886 134.136 144.486 134.312 144.141 134.759C144.019 134.943 143.908 135.13 143.8 135.322C143.766 135.381 143.732 135.441 143.697 135.501C143.596 135.681 143.497 135.863 143.399 136.044C143.094 136.601 142.781 137.153 142.46 137.7C142.265 138.033 142.072 138.366 141.882 138.701C141.302 139.725 141.302 139.725 141.056 140.083C141.003 140.091 140.95 140.099 140.895 140.107C139.213 137.619 137.692 135.041 136.223 132.422C136.175 132.336 136.175 132.336 136.125 132.248C135.187 130.575 134.268 128.891 133.354 127.205C133.306 127.117 133.258 127.029 133.209 126.938C132.609 125.834 132.025 124.724 131.463 123.599C131.66 123.326 131.852 123.121 132.116 122.912C132.345 122.742 132.345 122.742 132.538 122.536Z" fill="#F4A99C"/>
<path d="M121.851 124.142C122.118 124.202 122.363 124.315 122.612 124.426C122.691 124.461 122.691 124.461 122.772 124.496C122.902 124.553 123.032 124.61 123.161 124.668C123.133 125.407 122.99 126.124 122.854 126.849C122.841 126.919 122.828 126.989 122.814 127.061C120.667 138.574 120.667 138.574 118.966 143.444C118.913 143.452 118.86 143.46 118.805 143.468C118.657 143.339 118.519 143.208 118.381 143.069C118.294 142.983 118.207 142.897 118.12 142.812C118.075 142.767 118.03 142.723 117.983 142.677C117.765 142.463 117.543 142.254 117.321 142.045C116.99 141.733 116.661 141.42 116.334 141.104C116.214 140.988 116.094 140.872 115.975 140.757C115.874 140.659 115.773 140.561 115.671 140.463C115.493 140.291 115.314 140.119 115.135 139.947C115.051 139.865 115.051 139.865 114.965 139.781C114.328 139.162 114.328 139.162 113.517 138.831C113.271 138.841 113.05 138.862 112.808 138.901C112.735 138.912 112.661 138.923 112.586 138.935C110.729 139.249 108.881 139.766 107.074 140.292C106.731 140.391 106.401 140.474 106.045 140.515C106.11 140.123 106.289 139.823 106.494 139.489C106.915 138.783 107.294 138.058 107.667 137.326C107.752 137.158 107.838 136.99 107.925 136.823C108.196 136.297 108.462 135.768 108.727 135.239C108.803 135.085 108.88 134.932 108.957 134.778C109.13 134.435 109.3 134.091 109.462 133.742C109.489 133.685 109.517 133.628 109.545 133.569C109.616 133.42 109.685 133.269 109.755 133.118C109.966 132.812 110.202 132.693 110.529 132.539C110.687 132.46 110.844 132.38 111.001 132.3C111.089 132.256 111.176 132.212 111.266 132.166C114.971 130.282 119.017 127.578 121.569 124.246C121.688 124.147 121.688 124.147 121.851 124.142Z" fill="#F4A99C"/>
<path d="M129.284 109.465C130.796 110.332 131.763 111.677 132.396 113.275C132.421 113.336 132.445 113.397 132.471 113.459C132.899 114.81 132.809 116.293 132.385 117.63C132.362 117.707 132.339 117.784 132.316 117.864C131.794 119.457 130.635 120.743 129.162 121.524C127.466 122.377 125.701 122.512 123.895 121.928C122.134 121.314 120.826 120.1 119.993 118.437C119.171 116.607 119.11 114.765 119.753 112.877C119.942 112.39 120.189 111.951 120.47 111.513C120.504 111.458 120.537 111.404 120.572 111.347C122.452 108.55 126.435 107.888 129.284 109.465Z" fill="#F4A99C"/>
</svg>
