<svg width="180" height="201" viewBox="0 0 180 201" fill="none" xmlns="http://www.w3.org/2000/svg">
<path d="M107.59 3.81848C107.757 3.84726 107.925 3.87605 108.097 3.90571C114.653 5.06231 121.105 7.12102 127.29 9.55638C127.415 9.44127 127.415 9.44127 127.543 9.32384C128.244 8.69916 128.87 8.23198 129.753 7.88282C130.024 7.77188 130.024 7.77188 130.301 7.65869C131.846 7.14729 133.279 7.00136 134.905 7.01019C135.22 7.0118 135.22 7.0118 135.542 7.01345C147.448 7.18762 158.536 13.7829 166.662 22.114C167.341 22.8249 167.968 23.5702 168.577 24.3419C169.014 24.8933 169.471 25.4238 169.93 25.9572C176.248 33.5374 180.652 44.0019 179.887 53.9295C179.525 57.2552 177.919 60.5781 175.375 62.7732C172.41 65.0351 169.009 66.0209 165.304 66.003C165.154 66.0037 165.004 66.0044 164.85 66.0052C163.67 66.0033 162.508 65.9096 161.335 65.7878C161.382 65.9222 161.429 66.0566 161.478 66.1951C162.508 69.1516 163.441 72.0789 164.013 75.1597C164.044 75.3177 164.075 75.4758 164.107 75.6386C165.136 81.0713 165.002 87.1731 163.821 92.5647C163.768 92.8191 163.768 92.8191 163.713 93.0787C162.94 96.6668 161.727 100.042 159.996 103.275C159.907 103.454 159.817 103.633 159.725 103.818C157.591 107.986 154.297 111.695 150.624 114.56C150.468 114.682 150.468 114.682 150.308 114.807C146.78 117.548 142.768 119.713 138.575 121.254C138.695 121.338 138.816 121.422 138.941 121.508C142.248 123.853 145.293 126.632 147.755 129.861C147.837 129.968 147.919 130.074 148.004 130.184C149.702 132.403 151.127 134.733 152.453 137.189C152.52 137.311 152.586 137.434 152.654 137.56C153.111 138.421 153.111 138.421 153.111 138.85C153.237 138.85 153.363 138.85 153.493 138.85C153.526 138.625 153.526 138.625 153.56 138.395C153.656 137.861 153.768 137.345 153.899 136.82C153.94 136.656 153.98 136.492 154.022 136.324C154.106 135.991 154.191 135.659 154.277 135.327C155.032 132.27 155.065 129.316 154.972 126.191C154.958 125.691 154.95 125.191 154.943 124.691C154.934 124.466 154.934 124.466 154.925 124.237C154.914 123.092 155.257 122.331 155.98 121.445C156.986 120.66 158.203 120.737 159.422 120.872C161.988 121.49 163.904 123.074 165.734 124.888C165.902 125.054 166.071 125.22 166.244 125.391C168.743 127.99 170.118 131.152 171.054 134.595C171.093 134.739 171.133 134.884 171.174 135.033C172.118 138.711 172.147 143.429 171.089 147.075C171.021 147.336 170.953 147.598 170.885 147.859C169.61 152.63 167.076 157.086 163.439 160.463C163.281 160.621 163.123 160.779 162.961 160.941C162.803 161.099 162.645 161.257 162.483 161.419C162.387 161.518 162.292 161.617 162.194 161.719C161.41 162.525 160.59 163.227 159.685 163.894C159.552 163.993 159.418 164.092 159.281 164.194C154.278 167.858 148.518 170.076 142.4 170.983C142.1 171.037 142.1 171.037 141.794 171.092C140.724 171.212 139.662 171.194 138.587 171.186C138.365 171.185 138.143 171.184 137.914 171.183C137.369 171.181 136.824 171.178 136.279 171.174C136.293 171.339 136.306 171.503 136.32 171.673C136.469 173.679 136.508 175.677 136.516 177.688C136.517 177.857 136.518 178.025 136.519 178.199C136.523 179.091 136.525 179.982 136.527 180.874C136.529 181.784 136.536 182.695 136.543 183.606C136.548 184.316 136.55 185.026 136.551 185.736C136.552 186.071 136.554 186.406 136.557 186.742C136.595 190.477 135.962 193.754 133.296 196.558C130.897 198.836 127.959 199.637 124.804 200.246C124.661 200.28 124.518 200.313 124.371 200.348C123.703 200.462 123.044 200.472 122.369 200.476C122.155 200.478 122.155 200.478 121.938 200.48C116.611 200.519 111.367 200.311 107.227 196.471C104.602 193.645 103.887 189.633 103.956 185.901C103.731 185.956 103.506 186.012 103.275 186.068C100.368 186.712 97.3715 186.885 94.4032 186.896C94.1742 186.898 93.9452 186.899 93.7093 186.9C92.9728 186.904 92.2364 186.905 91.4999 186.905C91.2487 186.906 90.9974 186.906 90.7385 186.906C86.76 186.908 82.8512 186.756 78.9004 186.284C78.6012 186.249 78.3019 186.214 78.0026 186.179C77.2179 186.087 76.4334 185.995 75.649 185.901C75.651 186.106 75.653 186.312 75.6551 186.523C75.6244 190.094 74.3682 193.769 71.9014 196.367C68.2791 199.801 63.3024 200.481 58.5309 200.485C58.3856 200.485 58.2403 200.485 58.0905 200.485C53.5862 200.479 49.0761 199.735 45.6759 196.513C43.0397 193.656 42.6906 190.163 42.7009 186.456C42.7005 186.138 42.6999 185.82 42.6993 185.502C42.6982 184.657 42.6998 183.813 42.7024 182.968C42.7039 182.445 42.7047 181.921 42.7055 181.397C42.7136 176.387 42.7634 171.39 43.1342 166.392C43.1453 166.24 43.1564 166.087 43.1678 165.93C43.404 162.696 43.6962 159.474 44.0905 156.255C43.8815 156.327 43.6724 156.398 43.4571 156.472C43.3324 156.515 43.2077 156.557 43.0792 156.601C42.8212 156.69 42.5633 156.778 42.3056 156.868C42.1351 156.925 42.1351 156.925 41.9612 156.984C41.847 157.023 41.7329 157.062 41.6152 157.102C38.6595 157.924 34.6849 157.813 31.8497 156.638C31.6798 156.58 31.5099 156.523 31.3349 156.464C28.7887 155.566 26.5494 153.663 25.3467 151.247C23.9562 148.322 23.8897 144.54 24.891 141.456C24.9783 141.227 25.0655 140.998 25.1555 140.763C25.2325 140.556 25.2325 140.556 25.311 140.345C26.5202 137.136 28.1798 134.259 30.3196 131.582C30.4502 131.415 30.5809 131.248 30.7155 131.075C33.0847 128.098 35.7875 125.506 38.7112 123.083C38.8478 122.97 38.9843 122.857 39.125 122.74C39.7093 122.262 40.2893 121.801 40.9242 121.391C41.4282 121.111 41.4282 121.111 41.6041 120.68C41.4669 120.657 41.3296 120.633 41.1882 120.609C36.3248 119.533 31.3422 116.276 27.6419 113.03C27.4774 112.886 27.313 112.743 27.1436 112.595C26.6664 112.172 26.1963 111.743 25.7293 111.308C25.602 111.192 25.4748 111.075 25.3437 110.954C18.7792 104.683 15.2047 94.9273 14.9631 85.973C14.9479 85.1259 14.9449 84.2791 14.9468 83.4318C14.9469 83.2526 14.947 83.0734 14.9471 82.8888C14.9625 77.0957 15.6376 70.6701 18.27 65.4053C18.0318 65.4669 17.7936 65.5285 17.5483 65.592C13.7169 66.438 9.74421 65.704 6.39345 63.7274C3.18894 61.6623 1.32828 58.2991 0.476519 54.6572C-1.36958 45.8922 2.42404 36.2264 7.11475 28.9732C7.56818 28.2926 8.03616 27.6238 8.51555 26.9613C8.59655 26.8492 8.67754 26.737 8.76098 26.6215C11.2709 23.1838 14.1633 20.0363 17.5049 17.3982C17.8478 17.1115 18.1904 16.8246 18.533 16.5375C20.5423 14.8981 22.713 13.5137 24.9642 12.2341C25.1018 12.1558 25.2393 12.0776 25.3811 11.997C28.9322 10.0019 32.6806 8.62072 36.6313 7.64374C36.7672 7.60944 36.9031 7.57514 37.0431 7.5398C39.0857 7.04797 41.1394 7.01652 43.2298 7.01019C43.3623 7.00946 43.4948 7.00874 43.6313 7.008C46.6788 6.9996 49.9289 7.45402 52.3149 9.55638C52.3149 9.68261 52.3149 9.80885 52.3149 9.9389C52.4995 9.85508 52.6842 9.77125 52.8744 9.68488C59.4751 6.76478 66.4458 4.85058 73.5451 3.62722C73.7262 3.59569 73.9074 3.56416 74.094 3.53168C85.0218 1.70077 96.6919 1.93793 107.59 3.81848Z" fill="#F2D3A3"/>
<path d="M107.59 3.81848C107.757 3.84726 107.925 3.87605 108.097 3.90571C114.653 5.06231 121.105 7.12102 127.29 9.55638C127.415 9.44127 127.415 9.44127 127.543 9.32384C128.244 8.69916 128.87 8.23198 129.753 7.88282C130.024 7.77188 130.024 7.77188 130.301 7.65869C131.846 7.14729 133.279 7.00136 134.905 7.01019C135.22 7.0118 135.22 7.0118 135.542 7.01345C147.448 7.18762 158.536 13.7829 166.662 22.114C167.341 22.8249 167.968 23.5702 168.577 24.3419C169.014 24.8933 169.471 25.4238 169.93 25.9572C176.248 33.5374 180.652 44.0019 179.887 53.9295C179.525 57.2552 177.919 60.5781 175.375 62.7732C172.41 65.0351 169.009 66.0209 165.304 66.003C165.154 66.0037 165.004 66.0044 164.85 66.0052C163.67 66.0033 162.508 65.9096 161.335 65.7878C161.382 65.9222 161.429 66.0566 161.478 66.1951C162.508 69.1516 163.441 72.0789 164.013 75.1597C164.044 75.3177 164.075 75.4758 164.107 75.6386C165.136 81.0713 165.002 87.1731 163.821 92.5647C163.768 92.8191 163.768 92.8191 163.713 93.0787C162.94 96.6668 161.727 100.042 159.996 103.275C159.907 103.454 159.817 103.633 159.725 103.818C157.591 107.986 154.297 111.695 150.624 114.56C150.468 114.682 150.468 114.682 150.308 114.807C146.78 117.548 142.768 119.713 138.575 121.254C138.695 121.338 138.816 121.422 138.941 121.508C142.248 123.853 145.293 126.632 147.755 129.861C147.837 129.968 147.919 130.074 148.004 130.184C149.702 132.403 151.127 134.733 152.453 137.189C152.52 137.311 152.586 137.434 152.654 137.56C153.111 138.421 153.111 138.421 153.111 138.85C153.237 138.85 153.363 138.85 153.493 138.85C153.526 138.625 153.526 138.625 153.56 138.395C153.656 137.861 153.768 137.345 153.899 136.82C153.94 136.656 153.98 136.492 154.022 136.324C154.106 135.991 154.191 135.659 154.277 135.327C155.032 132.27 155.065 129.316 154.972 126.191C154.958 125.691 154.95 125.191 154.943 124.691C154.934 124.466 154.934 124.466 154.925 124.237C154.914 123.092 155.257 122.331 155.98 121.445C156.986 120.66 158.203 120.737 159.422 120.872C161.988 121.49 163.904 123.074 165.734 124.888C165.902 125.054 166.071 125.22 166.244 125.391C168.743 127.99 170.118 131.152 171.054 134.595C171.093 134.739 171.133 134.884 171.174 135.033C172.118 138.711 172.147 143.429 171.089 147.075C171.021 147.336 170.953 147.598 170.885 147.859C169.61 152.63 167.076 157.086 163.439 160.463C163.281 160.621 163.123 160.779 162.961 160.941C162.803 161.099 162.645 161.257 162.483 161.419C162.387 161.518 162.292 161.617 162.194 161.719C161.41 162.525 160.59 163.227 159.685 163.894C159.552 163.993 159.418 164.092 159.281 164.194C154.278 167.858 148.518 170.076 142.4 170.983C142.1 171.037 142.1 171.037 141.794 171.092C140.724 171.212 139.662 171.194 138.587 171.186C138.365 171.185 138.143 171.184 137.914 171.183C137.369 171.181 136.824 171.178 136.279 171.174C136.293 171.339 136.306 171.503 136.32 171.673C136.469 173.679 136.508 175.677 136.516 177.688C136.517 177.857 136.518 178.025 136.519 178.199C136.523 179.091 136.525 179.982 136.527 180.874C136.529 181.784 136.536 182.695 136.543 183.606C136.548 184.316 136.55 185.026 136.551 185.736C136.552 186.071 136.554 186.406 136.557 186.742C136.595 190.477 135.962 193.754 133.296 196.558C130.897 198.836 127.959 199.637 124.804 200.246C124.661 200.28 124.518 200.313 124.371 200.348C123.703 200.462 123.044 200.472 122.369 200.476C122.155 200.478 122.155 200.478 121.938 200.48C116.611 200.519 111.367 200.311 107.227 196.471C104.602 193.645 103.887 189.633 103.956 185.901C103.731 185.956 103.506 186.012 103.275 186.068C100.368 186.712 97.3715 186.885 94.4032 186.896C94.1742 186.898 93.9452 186.899 93.7093 186.9C92.9728 186.904 92.2364 186.905 91.4999 186.905C91.2487 186.906 90.9974 186.906 90.7385 186.906C86.76 186.908 82.8512 186.756 78.9004 186.284C78.6012 186.249 78.3019 186.214 78.0026 186.179C77.2179 186.087 76.4334 185.995 75.649 185.901C75.651 186.106 75.653 186.312 75.6551 186.523C75.6244 190.094 74.3682 193.769 71.9014 196.367C68.2791 199.801 63.3024 200.481 58.5309 200.485C58.3856 200.485 58.2403 200.485 58.0905 200.485C53.5862 200.479 49.0761 199.735 45.6759 196.513C43.0397 193.656 42.6906 190.163 42.7009 186.456C42.7005 186.138 42.6999 185.82 42.6993 185.502C42.6982 184.657 42.6998 183.813 42.7024 182.968C42.7039 182.445 42.7047 181.921 42.7055 181.397C42.7136 176.387 42.7634 171.39 43.1342 166.392C43.1453 166.24 43.1564 166.087 43.1678 165.93C43.404 162.696 43.6962 159.474 44.0905 156.255C43.8815 156.327 43.6724 156.398 43.4571 156.472C43.3324 156.515 43.2077 156.557 43.0792 156.601C42.8212 156.69 42.5633 156.778 42.3056 156.868C42.1351 156.925 42.1351 156.925 41.9612 156.984C41.847 157.023 41.7329 157.062 41.6152 157.102C38.6595 157.924 34.6849 157.813 31.8497 156.638C31.6798 156.58 31.5099 156.523 31.3349 156.464C28.7887 155.566 26.5494 153.663 25.3467 151.247C23.9562 148.322 23.8897 144.54 24.891 141.456C24.9783 141.227 25.0655 140.998 25.1555 140.763C25.2325 140.556 25.2325 140.556 25.311 140.345C26.5202 137.136 28.1798 134.259 30.3196 131.582C30.4502 131.415 30.5809 131.248 30.7155 131.075C33.0847 128.098 35.7875 125.506 38.7112 123.083C38.8478 122.97 38.9843 122.857 39.125 122.74C39.7093 122.262 40.2893 121.801 40.9242 121.391C41.4282 121.111 41.4282 121.111 41.6041 120.68C41.4669 120.657 41.3296 120.633 41.1882 120.609C36.3248 119.533 31.3422 116.276 27.6419 113.03C27.4774 112.886 27.313 112.743 27.1436 112.595C26.6664 112.172 26.1963 111.743 25.7293 111.308C25.602 111.192 25.4748 111.075 25.3437 110.954C18.7792 104.683 15.2047 94.9273 14.9631 85.973C14.9479 85.1259 14.9449 84.2791 14.9468 83.4318C14.9469 83.2526 14.947 83.0734 14.9471 82.8888C14.9625 77.0957 15.6376 70.6701 18.27 65.4053C18.0318 65.4669 17.7936 65.5285 17.5483 65.592C13.7169 66.438 9.74421 65.704 6.39345 63.7274C3.18894 61.6623 1.32828 58.2991 0.476519 54.6572C-1.36958 45.8922 2.42404 36.2264 7.11475 28.9732C7.56818 28.2926 8.03616 27.6238 8.51555 26.9613C8.59655 26.8492 8.67754 26.737 8.76098 26.6215C11.2709 23.1838 14.1633 20.0363 17.5049 17.3982C17.8478 17.1115 18.1904 16.8246 18.533 16.5375C20.5423 14.8981 22.713 13.5137 24.9642 12.2341C25.1018 12.1558 25.2393 12.0776 25.3811 11.997C28.9322 10.0019 32.6806 8.62072 36.6313 7.64374C36.7672 7.60944 36.9031 7.57514 37.0431 7.5398C39.0857 7.04797 41.1394 7.01652 43.2298 7.01019C43.3623 7.00946 43.4948 7.00874 43.6313 7.008C46.6788 6.9996 49.9289 7.45402 52.3149 9.55638C52.3149 9.68261 52.3149 9.80885 52.3149 9.9389C52.4995 9.85508 52.6842 9.77125 52.8744 9.68488C59.4751 6.76478 66.4458 4.85058 73.5451 3.62722C73.7262 3.59569 73.9074 3.56416 74.094 3.53168C85.0218 1.70077 96.6919 1.93793 107.59 3.81848ZM76.6053 8.02627C76.3024 8.06203 76.3024 8.06203 75.9933 8.0985C69.4967 8.87223 63.2009 10.4623 57.0964 12.8079C56.9221 12.8741 56.7478 12.9403 56.5682 13.0085C56.1243 13.1795 55.6835 13.3562 55.2436 13.537C55.0101 13.633 54.7766 13.7289 54.536 13.8277C54.0057 14.0972 54.0057 14.0972 53.8629 14.5882C53.8429 15.1617 53.8562 15.725 53.8808 16.2984C53.9409 19.6864 53.1104 23.1631 52.1236 26.3875C52.0662 26.5752 52.0088 26.7628 51.9497 26.9561C49.0815 36.1865 44.9052 45.766 38.2025 52.9029C37.8391 53.2913 37.4972 53.6882 37.1572 54.0968C34.271 57.383 29.969 61.1904 25.7741 62.608C24.7631 62.9589 24.1787 63.211 23.6119 64.1456C23.2908 64.875 23.0537 65.6251 22.8295 66.389C22.6544 66.9853 22.4656 67.5763 22.2761 68.1681C21.5055 70.6204 20.8522 73.0773 20.4523 75.6181C20.3965 75.9724 20.3359 76.326 20.2719 76.6789C19.9511 78.6002 19.9266 80.4977 19.931 82.4418C19.9316 82.9953 19.9271 83.5485 19.9222 84.102C19.9111 87.3459 20.1684 90.6197 21.0792 93.7481C21.1276 93.9195 21.1761 94.0908 21.2261 94.2674C23.7002 102.685 29.2972 109.357 36.9517 113.557C41.1228 115.787 45.4922 117.455 50.1579 118.287C50.328 118.317 50.4981 118.348 50.6734 118.38C50.8273 118.406 50.9812 118.432 51.1398 118.459C51.7736 118.64 52.1052 119.028 52.5061 119.533C52.5692 119.596 52.6323 119.659 52.6974 119.724C52.7792 120.428 52.7155 120.831 52.4224 121.481C51.7596 122.209 51.147 122.359 50.211 122.593C42.3317 124.61 35.9465 131.331 31.8331 138.121C30.0023 141.216 28.5231 144.44 29.0487 148.125C29.4497 149.638 30.5492 150.825 31.8519 151.645C34.6968 153.112 38.2184 153.382 41.2933 152.418C42.7032 151.857 44.2267 151.109 45.2381 149.944C45.3964 149.555 45.3964 149.555 45.4927 149.114C45.5343 148.946 45.5759 148.779 45.6187 148.606C45.6618 148.425 45.7048 148.243 45.7491 148.056C45.8196 147.771 45.8196 147.771 45.8914 147.481C46.0422 146.872 46.1903 146.262 46.3379 145.652C46.8961 143.347 47.4582 141.053 48.2296 138.808C48.2824 138.651 48.3352 138.495 48.3896 138.334C48.7244 137.395 49.0772 136.453 50.0197 135.981C50.8011 135.883 51.5916 135.805 52.3066 136.175C52.811 136.584 53.065 136.893 53.2712 137.512C53.3201 138.453 53.2107 139.218 52.9417 140.118C52.8701 140.363 52.7986 140.608 52.727 140.853C52.689 140.98 52.6511 141.108 52.6119 141.239C51.6824 144.368 50.912 147.52 50.211 150.709C50.1538 150.964 50.1538 150.964 50.0954 151.224C48.9326 156.451 48.3497 161.788 47.9482 167.12C47.9232 167.444 47.8969 167.768 47.87 168.092C47.7476 169.6 47.6689 171.106 47.6199 172.619C47.612 172.864 47.604 173.109 47.5958 173.362C47.5095 176.171 47.4908 178.981 47.4873 181.791C47.4863 182.536 47.4816 183.28 47.4762 184.024C47.4726 184.61 47.4717 185.196 47.4714 185.782C47.4708 186.057 47.4693 186.331 47.4668 186.606C47.446 189.007 47.6084 191.296 49.2546 193.169C51.6156 195.396 54.842 195.757 57.9459 195.72C58.352 195.715 58.7579 195.716 59.1641 195.717C62.5657 195.71 66.2392 195.311 68.7635 192.787C70.4855 190.525 70.7836 187.869 70.8793 185.124C70.8938 184.729 70.9093 184.334 70.9281 183.939C70.9448 183.585 70.9578 183.231 70.9705 182.877C71.0666 182.212 71.2312 181.846 71.6324 181.311C73.303 180.197 76.7028 181.1 78.6255 181.299C82.6233 181.711 86.5822 181.92 90.602 181.92C91.1986 181.92 91.7951 181.924 92.3916 181.928C96.0934 181.938 99.7322 181.622 103.394 181.096C103.878 181.027 104.363 180.958 104.847 180.891C105.054 180.861 105.26 180.832 105.473 180.801C107.008 180.633 107.008 180.633 107.829 181.06C108.403 181.542 108.525 181.755 108.738 182.458C108.786 183.083 108.786 183.083 108.79 183.79C108.794 184.053 108.798 184.315 108.802 184.578C108.806 184.985 108.809 185.393 108.81 185.8C108.824 188.648 109.134 191.411 111.224 193.552C113.588 195.513 116.847 195.694 119.783 195.702C120.194 195.703 120.606 195.709 121.018 195.715C124.235 195.74 127.514 195.382 129.93 193.073C131.276 191.545 131.733 189.659 131.745 187.662C131.746 187.521 131.747 187.38 131.749 187.234C131.752 186.769 131.753 186.304 131.753 185.838C131.755 185.508 131.757 185.177 131.758 184.846C131.763 183.779 131.762 182.712 131.761 181.646C131.761 181.464 131.761 181.282 131.761 181.095C131.759 175.077 131.584 169.128 130.924 163.141C130.882 162.744 130.839 162.347 130.797 161.95C129.965 154.268 128.809 146.393 126.334 139.042C126.217 138.373 126.186 137.779 126.521 137.172C126.953 136.628 127.384 136.179 128.055 135.981C128.75 135.918 129.252 135.929 129.908 136.173C130.918 137.046 131.258 138.427 131.575 139.683C131.614 139.832 131.652 139.98 131.692 140.133C131.774 140.448 131.855 140.763 131.936 141.078C132.061 141.569 132.189 142.059 132.317 142.549C132.721 144.1 133.1 145.651 133.425 147.221C133.821 149.156 133.821 149.156 135.09 150.627C135.23 150.717 135.37 150.807 135.514 150.9C135.658 151.004 135.802 151.108 135.951 151.214C138.481 152.902 141.559 153.261 144.512 152.68C146.601 152.137 148.449 151.204 149.668 149.37C150.631 147.561 150.404 145.487 149.859 143.584C147.398 135.613 141.045 128.377 133.821 124.339C132.21 123.491 130.577 123.115 128.781 122.885C128.047 122.747 127.653 122.512 127.099 122.019C126.79 121.402 126.796 120.774 126.908 120.107C127.687 119.02 128.668 118.861 129.933 118.64C130.059 118.62 130.185 118.601 130.315 118.581C132.151 118.297 133.868 117.804 135.622 117.202C135.759 117.155 135.897 117.109 136.038 117.061C138.057 116.376 139.974 115.621 141.826 114.56C142.085 114.421 142.345 114.282 142.605 114.144C150.095 110.12 155.735 103.192 158.187 95.0593C158.425 94.2318 158.644 93.4011 158.849 92.5647C158.88 92.4457 158.912 92.3267 158.945 92.2041C159.648 89.3963 159.692 86.453 159.685 83.5753C159.685 83.3198 159.685 83.3198 159.685 83.0591C159.678 80.1711 159.461 77.4161 158.849 74.5859C158.816 74.4262 158.783 74.2664 158.749 74.1019C158.103 71.0058 157.029 68.0013 155.98 65.0227C155.934 64.8774 155.889 64.7321 155.843 64.5823C155.606 63.8935 155.397 63.6784 154.774 63.279C154.52 63.1632 154.264 63.0513 154.007 62.9427C153.728 62.814 153.45 62.6839 153.173 62.5528C152.963 62.4543 152.963 62.4543 152.75 62.3538C150.536 61.2586 148.543 59.6542 146.608 58.1373C146.501 58.054 146.395 57.9708 146.286 57.8851C143.386 55.584 140.744 52.9128 138.575 49.9129C138.482 49.786 138.388 49.6591 138.293 49.5284C131.474 40.2083 124.809 26.3581 125.569 14.5292C115.157 8.82839 102.437 7.3282 90.7384 7.37768C89.9587 7.38094 89.1791 7.379 88.3994 7.3757C84.4316 7.36153 80.5463 7.55303 76.6053 8.02627Z" fill="black"/>
<path d="M150.157 15.7249C155.936 18.6802 161.602 23.1244 165.543 28.3001C165.644 28.4319 165.744 28.5636 165.848 28.6993C167.345 30.663 168.748 32.6409 169.942 34.8031C170.03 34.9607 170.118 35.1184 170.209 35.2808C173.013 40.3268 174.989 45.4778 175.01 51.2996C175.012 51.6716 175.012 51.6716 175.014 52.0512C174.977 54.7617 174.362 57.066 172.49 59.0726C170.008 61.3252 166.775 61.3767 163.608 61.2362C156.059 60.7058 148.972 54.7941 144.189 49.3642C143.558 48.6159 142.971 47.8388 142.4 47.0439C142.313 46.923 142.226 46.802 142.136 46.6773C138.994 42.2807 136.492 37.5641 134.583 32.5075C134.379 31.9676 134.171 31.4297 133.962 30.8919C132.533 27.1569 131.405 23.2553 130.733 19.3108C130.694 19.1241 130.655 18.9375 130.615 18.7452C130.39 17.5974 130.307 16.4732 130.29 15.3062C130.287 15.168 130.284 15.0299 130.28 14.8875C130.281 14.0296 130.394 13.487 130.924 12.8078C135.709 9.21911 145.534 13.4627 150.157 15.7249Z" fill="#7D5232"/>
<path d="M43.0625 11.8038C43.4235 11.8016 43.4235 11.8016 43.7917 11.7993C47.3228 11.8067 47.3228 11.8067 48.6809 12.9992C49.0743 13.9034 49.1305 14.7639 49.1232 15.7367C49.1218 15.963 49.1218 15.963 49.1203 16.194C48.9883 22.9842 45.9987 30.2347 43.1517 36.27C42.9434 36.715 42.7413 37.1625 42.5403 37.6109C39.3609 44.6242 34.6118 51.0402 28.407 55.6509C28.2196 55.7939 28.0322 55.9369 27.8392 56.0842C24.9056 58.2304 21.579 59.8499 18.0787 60.815C17.9062 60.8653 17.7336 60.9156 17.5558 60.9674C15.4049 61.5015 12.8767 61.4254 10.8107 60.6238C10.5704 60.5328 10.5704 60.5328 10.3251 60.44C8.06305 59.4525 6.55282 57.523 5.64663 55.2684C5.13994 53.682 4.97976 52.1943 5.00112 50.5346C5.00362 50.2083 5.00362 50.2083 5.00616 49.8754C5.03586 48.1625 5.23352 46.6016 5.64663 44.9402C5.69767 44.7013 5.74871 44.4624 5.80129 44.2162C7.14119 38.1085 10.3518 32.3665 14.2535 27.5352C14.4384 27.2919 14.4384 27.2919 14.627 27.0436C16.9484 24.0551 19.7735 21.4832 22.8603 19.3109C22.9764 19.2275 23.0925 19.1442 23.2121 19.0584C27.6651 15.8757 32.8046 13.4175 38.1614 12.2341C38.3152 12.1989 38.4689 12.1638 38.6273 12.1275C40.1081 11.8201 41.554 11.7945 43.0625 11.8038Z" fill="#7D5232"/>
<path d="M94.7753 131.2C94.9491 131.267 95.123 131.334 95.302 131.402C99.6359 133.302 102.241 137.929 103.956 142.102C104.803 144.281 105.273 146.5 105.677 148.796C105.711 148.975 105.745 149.154 105.779 149.338C106.296 152.839 106.102 156.75 104.912 160.081C104.837 160.301 104.761 160.521 104.683 160.747C103.307 164.35 100.697 167.143 97.2162 168.769C92.6177 170.782 86.7107 170.565 82.0998 168.777C78.5329 167.314 76.0429 164.936 74.3766 161.47C71.805 155.239 72.9023 147.997 75.4219 141.935C76.4687 139.516 77.6908 137.176 79.4743 135.216C79.5568 135.125 79.6393 135.033 79.7244 134.939C83.6973 130.579 89.2547 128.971 94.7753 131.2Z" fill="#FFBB4D"/>
<path d="M101.213 129.357C103.567 131.344 105.307 133.685 106.825 136.364C106.887 136.474 106.95 136.584 107.015 136.697C108.936 140.131 110.047 143.966 110.65 147.84C110.683 148.05 110.683 148.05 110.717 148.264C111.675 154.566 110.792 161.483 107.061 166.798C103.444 171.458 98.8959 173.671 93.181 174.735C86.486 175.428 79.8457 174.091 74.5098 169.869C70.734 166.78 68.6779 162.203 68.1897 157.403C68.1206 156.332 68.1151 155.26 68.118 154.187C68.1181 154.042 68.1182 153.896 68.1183 153.747C68.1315 149.715 68.7726 145.912 70.1024 142.102C70.1452 141.977 70.188 141.853 70.2321 141.725C71.6591 137.663 73.8534 134.132 76.7966 131.008C76.9038 130.891 77.0111 130.774 77.1216 130.653C83.5326 123.885 94.1033 123.516 101.213 129.357ZM81.1956 133.495C81.0149 133.658 80.8342 133.821 80.648 133.989C77.2682 137.146 75.4124 141.362 74.1189 145.736C74.0605 145.929 74.002 146.121 73.9418 146.32C72.5064 151.517 72.3207 157.564 74.8429 162.465C77.0316 166.19 80.0762 168.202 84.1356 169.473C85.9274 169.914 87.6603 170.091 89.5036 170.074C89.7137 170.073 89.9237 170.071 90.1402 170.07C94.5537 170.011 98.5103 168.852 101.661 165.627C103.872 163.293 104.891 160.473 105.592 157.392C105.648 157.15 105.71 156.91 105.781 156.672C107.144 150.19 104.775 142.633 101.47 137.129C100.999 136.451 100.488 135.832 99.9395 135.216C99.7605 134.997 99.7605 134.997 99.5778 134.772C97.613 132.416 94.7668 130.714 91.7151 130.243C87.7777 129.888 84.1718 130.806 81.1956 133.495Z" fill="black"/>
<path d="M60.5332 66.1455C62.4907 67.0669 63.4892 68.474 64.2209 70.4497C64.612 72.3399 64.3106 73.9222 63.3468 75.5989C62.6951 76.5461 61.9324 77.1124 60.9217 77.646C61.2266 78.311 61.6241 78.8781 62.0453 79.475C63.3886 81.4692 63.8248 83.3616 63.8265 85.7269C63.8288 85.8997 63.8312 86.0725 63.8336 86.2506C63.8397 89.0905 62.7377 91.6625 60.7304 93.7121C60.6042 93.7121 60.4779 93.7121 60.3479 93.7121C60.2847 93.9015 60.2216 94.0908 60.1566 94.2859C59.3185 95.1495 58.1919 95.6923 57.1323 96.2344C56.949 96.3299 56.949 96.3299 56.762 96.4273C54.8259 97.388 52.9678 97.6393 50.8206 97.6211C50.4656 97.6191 50.4656 97.6191 50.1034 97.6171C48.4182 97.5874 46.9944 97.431 45.4293 96.7723C45.1631 96.6751 45.1631 96.6751 44.8914 96.5758C41.9187 95.3893 39.8153 93.1427 38.4146 90.3172C37.8025 88.8149 37.4799 87.448 37.4919 85.8225C37.493 85.6479 37.4941 85.4732 37.4952 85.2933C37.5786 82.1055 39.1459 79.5503 41.4061 77.374C42.3554 76.5677 43.382 75.9519 44.473 75.3508C44.6106 75.2705 44.7482 75.1901 44.8899 75.1073C46.8714 74.0138 49.2187 73.7855 51.4422 73.8088C51.6003 73.8096 51.7585 73.8105 51.9214 73.8114C52.3076 73.8136 52.6937 73.8171 53.0799 73.8207C53.071 73.5922 53.0621 73.3636 53.053 73.1282C52.988 70.7783 53.165 69.2521 54.8124 67.4694C56.4351 65.9708 58.3928 65.5175 60.5332 66.1455Z" fill="#F4A99C"/>
<path d="M122.58 66.3733C124.172 67.2969 125.082 68.4843 125.76 70.1866C126.109 71.5038 126 72.8756 125.76 74.2032C125.955 74.2001 125.955 74.2001 126.154 74.1971C126.752 74.1891 127.35 74.1841 127.948 74.1792C128.152 74.176 128.357 74.1728 128.567 74.1695C132.222 74.1472 135.677 75.6366 138.335 78.145C140.483 80.423 141.549 83.1085 141.524 86.2383C141.411 89.3801 139.982 91.911 137.81 94.0945C137.696 94.2144 137.583 94.3342 137.467 94.4576C135.043 96.8225 131.385 97.853 128.081 97.8195C126.535 97.7627 125.122 97.4391 123.656 96.9635C123.356 96.8696 123.356 96.8696 123.05 96.7737C119.784 95.5914 117.596 93.012 116.091 89.9809C115.521 88.6034 115.362 87.3814 115.372 85.9061C115.373 85.7371 115.374 85.5681 115.375 85.3939C115.429 82.4999 116.642 80.1666 118.301 77.8372C118.162 77.7636 118.162 77.7636 118.02 77.6885C116.625 76.892 115.23 75.6915 114.744 74.1053C114.404 72.0021 114.527 70.0577 115.7 68.2411C117.336 66.1126 120.101 65.2463 122.58 66.3733Z" fill="#F4A99C"/>
<path d="M160.379 126.418C162.761 128.424 164.37 130.789 165.543 133.686C165.597 133.816 165.652 133.945 165.708 134.079C167.516 138.855 167.17 145.098 165.16 149.753C161.939 156.749 155.99 162.009 148.812 164.749C144.7 166.235 140.457 166.933 136.088 166.775C135.798 165.756 135.744 164.695 135.637 163.646C135.598 163.263 135.558 162.881 135.518 162.498C135.493 162.255 135.468 162.012 135.442 161.762C135.408 161.43 135.408 161.43 135.373 161.091C135.326 160.496 135.314 159.912 135.323 159.316C135.478 159.26 135.633 159.204 135.793 159.147C136.852 158.755 137.791 158.385 138.718 157.738C140.014 156.986 141.427 157.116 142.882 157.095C144.679 157.056 146.096 156.762 147.755 156.064C147.986 155.97 148.217 155.875 148.455 155.777C151.265 154.506 153.17 152.554 154.306 149.681C154.561 148.951 154.683 148.285 154.76 147.517C154.937 146.284 155.508 145.441 156.179 144.422C159.693 139.081 160.174 132.642 160.379 126.418Z" fill="#7D5232"/>
<path d="M97.5248 73.0078C98.4669 73.7651 99.1751 74.7793 99.5569 75.9246C99.676 77.4432 99.2814 78.4935 98.3376 79.6662C96.9064 81.1867 94.9031 82.0699 92.8627 82.4275C92.6102 82.4275 92.3578 82.4275 92.0977 82.4275C92.102 83.2884 92.1169 84.1489 92.1335 85.0096C92.1346 85.2522 92.1357 85.4948 92.1369 85.7448C92.1703 87.1698 92.2593 88.2332 93.2452 89.313C94.391 90.383 95.9445 90.4144 97.4318 90.3943C99.7561 90.2796 101.191 89.1529 102.737 87.5311C103.037 87.1914 103.329 86.8431 103.609 86.4867C103.978 86.0345 104.139 85.8946 104.712 85.8247C105.775 85.7904 106.368 85.9185 107.207 86.6353C107.731 87.4204 107.725 88.0091 107.59 88.9305C106.773 91.3819 104.233 93.1618 102.043 94.2859C101.352 94.5796 100.657 94.8296 99.9395 95.0509C99.7501 95.114 99.5608 95.1772 99.3657 95.2422C95.8586 95.5011 93.0398 95.4458 90.2082 93.2063C89.7753 92.8784 89.7753 92.8784 89.0374 92.947C88.6023 93.2134 88.6023 93.2134 88.1648 93.5686C87.1745 94.2944 86.1868 94.6901 85.0209 95.0509C84.7369 95.1456 84.7369 95.1456 84.4471 95.2422C80.6458 95.563 77.5119 95.2347 74.5014 92.7558C74.2781 92.5786 74.2781 92.5786 74.0502 92.3979C72.724 91.292 71.3589 89.8937 71.1902 88.1057C71.261 87.2701 71.4905 86.8972 72.015 86.2528C72.8699 85.6829 73.6909 85.7325 74.6927 85.8703C75.1948 86.2289 75.1948 86.2289 75.649 86.8266C77.0046 88.4658 78.5671 90.0566 80.7988 90.3114C81.2069 90.3344 81.6117 90.3419 82.0205 90.3411C82.1641 90.341 82.3078 90.341 82.4558 90.341C83.5821 90.3178 84.4348 90.0928 85.4034 89.5043C85.5395 89.4427 85.6756 89.381 85.8159 89.3175C86.3179 89.0389 86.3781 88.6976 86.551 88.1654C86.6141 88.0392 86.6773 87.913 86.7423 87.7829C86.7718 87.3806 86.7901 86.9773 86.8028 86.5741C86.8108 86.3337 86.8188 86.0933 86.8271 85.8456C86.8346 85.5934 86.8421 85.3412 86.8499 85.0813C86.8581 84.8251 86.8665 84.5688 86.8749 84.3125C86.8952 83.6842 86.9148 83.0559 86.9335 82.4275C86.6392 82.3924 86.6392 82.3924 86.3388 82.3566C84.1812 82.0078 82.0415 80.9936 80.6256 79.2956C79.833 78.151 79.4902 77.1463 79.6655 75.7333C80.1037 74.2057 81.3051 73.2161 82.6017 72.3847C83.8504 71.7055 85.1619 71.4039 86.551 71.143C86.7256 71.1075 86.9001 71.072 87.08 71.0354C90.6218 70.5563 94.5146 70.9497 97.5248 73.0078Z" fill="black"/>
<path d="M122.58 66.3733C124.172 67.2969 125.082 68.4843 125.76 70.1866C125.915 70.7724 125.915 70.7724 125.951 71.3342C125.965 71.4545 125.979 71.5748 125.994 71.6988C126.104 73.2612 125.503 74.9423 124.577 76.1995C123.044 77.596 121.624 78.1125 119.572 78.0934C118.064 77.9529 116.92 77.192 115.904 76.0971C114.622 74.4363 114.486 72.5946 114.667 70.5691C115.016 68.9543 115.927 67.7052 117.28 66.7768C119.001 65.805 120.743 65.5383 122.58 66.3733Z" fill="black"/>
<path d="M60.5332 66.1458C62.4907 67.0672 63.4892 68.4743 64.221 70.45C64.6134 72.3467 64.296 73.8993 63.3603 75.5924C62.5983 76.7288 61.4697 77.5372 60.1641 77.9586C58.2595 78.3015 56.7881 77.9595 55.1838 76.8812C54.1255 75.9695 53.3379 74.6251 53.0799 73.2472C52.927 71.0944 53.0816 69.5522 54.4665 67.844C56.0998 66.0767 58.1953 65.4598 60.5332 66.1458Z" fill="black"/>
<path d="M89.8981 125.259C90.0554 125.259 90.2127 125.26 90.3748 125.261C90.7578 125.263 91.1409 125.267 91.5239 125.271C91.5239 125.397 91.5239 125.523 91.5239 125.653C91.3511 125.665 91.1782 125.676 91.0002 125.688C90.7746 125.704 90.549 125.72 90.3165 125.737C90.0924 125.752 89.8683 125.768 89.6374 125.784C89.0325 125.823 89.0325 125.823 88.4637 126.036C87.9158 126.093 87.3679 126.133 86.8185 126.173C86.3694 126.178 86.3694 126.178 86.1685 126.418C85.6577 126.445 85.1502 126.426 84.6384 126.418C84.5753 126.292 84.5122 126.166 84.4471 126.036C84.7655 125.943 85.0844 125.851 85.4035 125.761C85.581 125.71 85.7585 125.659 85.9414 125.606C87.2657 125.293 88.5448 125.244 89.8981 125.259Z" fill="black"/>
<path d="M96.8912 95.2064C97.1487 95.2029 97.1487 95.2029 97.4115 95.1993C97.5773 95.1989 97.7431 95.1986 97.914 95.1982C98.0641 95.1974 98.2143 95.1966 98.369 95.1958C98.8386 95.2474 99.1499 95.3907 99.5569 95.6248C99.0378 95.8843 98.6296 95.8375 98.0492 95.8347C97.8261 95.8341 97.6029 95.8335 97.3731 95.8329C97.1391 95.8313 96.9051 95.8297 96.664 95.828C96.4286 95.8271 96.1931 95.8263 95.9505 95.8254C95.3675 95.8231 94.7845 95.82 94.2015 95.8161C94.1384 95.6898 94.0753 95.5636 94.0103 95.4335C94.9633 95.1848 95.9135 95.2071 96.8912 95.2064Z" fill="#F2D3A3"/>
<path d="M107.207 180.546C107.271 180.672 107.334 180.798 107.399 180.928C107.154 180.952 106.91 180.975 106.658 181C105.993 181.06 105.993 181.06 105.486 181.502C104.945 181.546 104.945 181.546 104.291 181.538C103.97 181.536 103.97 181.536 103.642 181.534C103.031 181.503 102.453 181.424 101.852 181.311C101.852 181.248 101.852 181.184 101.852 181.119C102.529 181.022 103.207 180.927 103.884 180.832C104.075 180.805 104.266 180.778 104.463 180.75C105.385 180.621 106.274 180.507 107.207 180.546Z" fill="black"/>
<path d="M158.849 77.8374C159.038 77.8374 159.227 77.8374 159.422 77.8374C159.602 79.1837 159.634 80.4965 159.614 81.8539C158.959 80.8714 158.802 80.3344 158.825 79.1284C158.828 78.8868 158.832 78.6452 158.835 78.3962C158.84 78.2118 158.844 78.0274 158.849 77.8374Z" fill="#F2D3A3"/>
<path d="M31.2759 139.233C31.3391 139.359 31.4022 139.485 31.4672 139.615C31.3252 139.996 31.3252 139.996 31.1086 140.44C30.8159 141.067 30.6362 141.613 30.5109 142.293C30.3349 142.748 30.1376 143.187 29.9371 143.632C29.707 143.346 29.707 143.346 29.5546 142.867C29.7371 142.321 29.9302 141.841 30.1762 141.325C30.2385 141.187 30.3009 141.049 30.3652 140.908C30.6383 140.312 30.911 139.78 31.2759 139.233Z" fill="#F2D3A3"/>
<path d="M125.377 69.8042C126.05 70.477 125.962 71.3589 125.963 72.2667C125.96 72.5297 125.956 72.7927 125.951 73.0557C125.825 73.1188 125.699 73.1819 125.569 73.2469C124.873 70.8127 124.873 70.8127 125.377 69.8042Z" fill="black"/>
<path d="M111.224 153.96C111.287 153.96 111.35 153.96 111.415 153.96C111.415 155.033 111.415 156.106 111.415 157.211C111.163 157.211 110.91 157.211 110.65 157.211C110.672 156.777 110.696 156.343 110.722 155.908C110.735 155.667 110.748 155.425 110.762 155.176C110.841 154.534 110.841 154.534 111.224 153.96Z" fill="#F2D3A3"/>
<path d="M29.5545 144.971C29.6176 144.971 29.6808 144.971 29.7458 144.971C29.7662 146.203 29.7385 147.386 29.5545 148.605C29.172 148.413 29.172 148.413 29.0532 148.076C28.9761 147.621 28.962 147.2 28.9688 146.74C28.9705 146.587 28.9722 146.434 28.974 146.277C28.9762 146.161 28.9785 146.046 28.9807 145.927C29.107 145.927 29.2332 145.927 29.3633 145.927C29.4264 145.611 29.4895 145.296 29.5545 144.971Z" fill="#F2D3A3"/>
<path d="M34.7186 134.069C34.7186 135.13 34.2664 135.739 33.5591 136.496C33.0234 137.055 33.0234 137.055 32.6147 137.703C32.4885 137.64 32.3622 137.577 32.2322 137.512C33.8124 135.088 33.8124 135.088 34.7186 134.069Z" fill="#F2D3A3"/>
<path d="M79.283 7.83512C79.283 8.02447 79.283 8.21382 79.283 8.40891C78.3171 8.60704 77.3944 8.61978 76.4141 8.60017C76.4772 8.41082 76.5403 8.22147 76.6053 8.02638C77.5088 7.90176 78.3687 7.81226 79.283 7.83512Z" fill="#F2D3A3"/>
<path d="M114.858 69.8042C115.377 70.5647 115.283 71.3609 115.264 72.2428C115.263 72.3944 115.261 72.5461 115.259 72.7023C115.255 73.0751 115.248 73.4479 115.24 73.8207C114.785 73.137 114.779 72.7336 114.726 71.92C114.71 71.6856 114.693 71.4511 114.676 71.2095C114.668 70.6805 114.693 70.3 114.858 69.8042Z" fill="black"/>
<path d="M60.5392 12.043C60.0329 12.3223 59.7943 12.4255 59.2004 12.4255C59.2004 12.5517 59.2004 12.678 59.2004 12.808C58.7084 13.1178 58.4972 13.199 57.9093 13.1188C57.7673 13.0794 57.6253 13.0399 57.479 12.9993C57.911 12.5079 58.2823 12.2954 58.9015 12.0908C59.0472 12.0405 59.1929 11.9902 59.3431 11.9384C59.8134 11.8438 60.0891 11.8912 60.5392 12.043Z" fill="#F2D3A3"/>
<path d="M70.2937 185.136C70.3568 185.136 70.4199 185.136 70.4849 185.136C70.5273 185.634 70.5668 186.132 70.6045 186.63C70.6168 186.772 70.6291 186.913 70.6418 187.058C70.7195 188.131 70.7195 188.131 70.2937 188.77C70.1595 189.15 70.0309 189.533 69.9111 189.918C69.6769 189.215 69.7721 188.794 69.8872 188.065C69.9237 187.827 69.9602 187.589 69.9978 187.344C70.0323 187.12 70.0668 186.897 70.1024 186.666C70.1703 186.157 70.2324 185.647 70.2937 185.136Z" fill="#F2D3A3"/>
<path d="M49.6371 154.151C49.7003 154.151 49.7634 154.151 49.8284 154.151C50.0333 155.032 49.9675 155.434 49.6371 156.255C49.555 156.688 49.4836 157.122 49.422 157.558C49.3899 157.78 49.3579 158.003 49.3248 158.231C49.3017 158.4 49.2785 158.568 49.2546 158.742C49.1915 158.742 49.1284 158.742 49.0633 158.742C49.014 157.286 48.9741 155.477 49.6371 154.151Z" fill="#F2D3A3"/>
<path d="M79.8568 75.3511C79.9831 75.4142 80.1093 75.4773 80.2393 75.5423C80.2497 75.885 80.2571 76.2277 80.2633 76.5704C80.2677 76.7612 80.2721 76.952 80.2767 77.1487C80.2393 77.6462 80.2393 77.6462 79.8568 78.0288C79.602 77.2643 79.6398 76.5306 79.6656 75.7336C79.7287 75.6074 79.7918 75.4811 79.8568 75.3511Z" fill="black"/>
<path d="M170.707 147.84C170.988 148.288 171.104 148.511 171.021 149.043C170.969 149.19 170.916 149.338 170.862 149.489C170.812 149.638 170.762 149.786 170.711 149.939C170.516 150.326 170.516 150.326 169.942 150.709C169.981 150.566 170.02 150.423 170.061 150.275C170.112 150.087 170.164 149.899 170.217 149.705C170.268 149.518 170.319 149.332 170.371 149.14C170.488 148.707 170.6 148.275 170.707 147.84Z" fill="#ECECEB"/>
<path d="M161.144 65.5967C161.692 65.7064 161.882 65.7614 162.291 66.1705C162.165 66.1705 162.039 66.1705 161.909 66.1705C161.972 66.3717 162.035 66.5728 162.1 66.7801C162.261 67.3924 162.329 67.8423 162.291 68.4656C161.9 67.8785 161.718 67.3772 161.502 66.7084C161.435 66.5006 161.367 66.2927 161.298 66.0786C161.247 65.9195 161.196 65.7605 161.144 65.5967Z" fill="#ECECEB"/>
<path d="M131.115 188.196C131.242 188.259 131.368 188.323 131.498 188.388C131.57 189.573 131.466 190.386 130.924 191.448C130.616 190.831 130.826 190.196 130.924 189.535C130.96 189.28 130.996 189.025 131.032 188.77C131.059 188.581 131.087 188.391 131.115 188.196Z" fill="#F2D3A3"/>
<path d="M111.224 148.796C111.287 148.796 111.35 148.796 111.415 148.796C111.415 149.932 111.415 151.068 111.415 152.239C111.352 152.239 111.289 152.239 111.224 152.239C111.161 151.86 111.098 151.481 111.033 151.091C110.97 151.091 110.907 151.091 110.841 151.091C110.801 150.236 110.92 149.595 111.224 148.796Z" fill="#F2D3A3"/>
<path d="M17.3137 65.4053C17.6293 65.4053 17.9449 65.4053 18.27 65.4053C18.1836 65.7124 18.0956 66.0192 18.0071 66.3257C17.9582 66.4966 17.9094 66.6674 17.8591 66.8435C17.6962 67.3179 17.6962 67.3179 17.3137 67.8917C17.3297 67.7443 17.3458 67.5968 17.3623 67.4449C17.3915 67.1572 17.3915 67.1572 17.4213 66.8637C17.4413 66.6728 17.4612 66.482 17.4818 66.2854C17.5454 65.7909 17.5454 65.7909 17.3137 65.4053Z" fill="#ECECEB"/>
<path d="M146.034 152.43C145.528 152.709 145.289 152.812 144.695 152.812C144.695 152.939 144.695 153.065 144.695 153.195C144.127 153.1 144.127 153.1 143.547 153.004C143.611 152.877 143.674 152.751 143.739 152.621C145.201 152.166 145.201 152.166 146.034 152.43Z" fill="black"/>
<path d="M42.3692 152.239C42.243 152.239 42.1167 152.239 41.9867 152.239C41.9867 152.365 41.9867 152.491 41.9867 152.621C41.2095 152.769 40.4825 152.831 39.6915 152.813C41.4288 151.877 41.4288 151.877 42.3692 152.239Z" fill="black"/>
<path d="M29.3632 60.6235C29.4894 60.6867 29.6157 60.7498 29.7457 60.8148C29.0781 61.5807 28.6652 61.891 27.6418 61.9624C28.1667 61.3987 28.6715 60.9694 29.3632 60.6235Z" fill="#F2D3A3"/>
<path d="M101.278 7.4524C101.589 7.44208 101.9 7.43465 102.211 7.42849C102.384 7.42405 102.557 7.41961 102.735 7.41504C103.191 7.4524 103.191 7.4524 103.573 7.83492C102.73 8.04575 101.951 8.04083 101.087 8.02619C101.15 7.83683 101.213 7.64748 101.278 7.4524Z" fill="black"/>
<path d="M76.7017 7.43359C76.9912 7.43692 76.9912 7.43692 77.2867 7.44032C77.4802 7.44204 77.6737 7.44377 77.8732 7.44555C78.0976 7.44888 78.0976 7.44888 78.3267 7.45227C78.2635 7.64162 78.2004 7.83097 78.1354 8.02606C76.7146 8.08071 76.7146 8.08071 76.0315 7.64354C76.2228 7.45227 76.2228 7.45227 76.7017 7.43359Z" fill="black"/>
<path d="M45.8119 146.883C46.1944 147.457 46.1944 147.457 46.1466 147.923C46.0133 148.379 45.8506 148.764 45.6206 149.178C45.3422 148.314 45.5689 147.741 45.8119 146.883Z" fill="black"/>
<path d="M69.146 145.162C69.5285 145.736 69.5285 145.736 69.4807 146.19C69.3369 146.694 69.1609 147.167 68.9547 147.649C68.7495 147.023 68.784 146.61 68.9428 145.975C68.98 145.822 69.0173 145.669 69.0556 145.512C69.0854 145.396 69.1153 145.281 69.146 145.162Z" fill="black"/>
<path d="M75.0752 7.83492C75.0752 8.02427 75.0752 8.21362 75.0752 8.40871C74.2232 8.50339 74.2232 8.50339 73.3539 8.59997C73.2907 8.41062 73.2276 8.22127 73.1626 8.02618C73.8269 7.80475 74.3792 7.82179 75.0752 7.83492Z" fill="black"/>
<path d="M72.6366 180.797C72.7471 180.84 72.8575 180.883 72.9713 180.928C72.3593 181.453 71.8228 181.814 71.0587 182.076C71.3636 181.339 71.7607 180.675 72.6366 180.797Z" fill="black"/>
<path d="M48.4896 157.594C48.9543 158.291 48.9031 158.687 48.8721 159.507C48.6828 159.507 48.4934 159.507 48.2983 159.507C48.2932 159.224 48.2895 158.941 48.2864 158.658C48.2842 158.501 48.2819 158.343 48.2797 158.181C48.2983 157.786 48.2983 157.786 48.4896 157.594Z" fill="black"/>
<path d="M87.198 124.851C87.3711 124.855 87.5442 124.859 87.7225 124.864C87.9836 124.869 87.9836 124.869 88.25 124.874C88.3836 124.879 88.5172 124.883 88.6549 124.888C88.424 125.179 88.424 125.179 88.0811 125.462C87.6485 125.476 87.6485 125.476 87.1846 125.402C86.9527 125.368 86.9527 125.368 86.7161 125.332C86.5985 125.312 86.4809 125.292 86.3597 125.27C86.7423 124.888 86.7423 124.888 87.198 124.851Z" fill="#F2D3A3"/>
<path d="M49.8285 153.195C50.211 153.578 50.211 153.578 50.2588 154.152C50.211 154.725 50.211 154.725 49.8285 155.108C49.7913 154.825 49.7558 154.542 49.7209 154.259C49.7009 154.102 49.6809 153.944 49.6604 153.782C49.6527 153.651 49.6451 153.521 49.6372 153.387C49.7003 153.323 49.7634 153.26 49.8285 153.195Z" fill="#F2D3A3"/>
<path d="M39.5002 152.047C40.1314 152.047 40.7626 152.047 41.4129 152.047C40.8379 152.622 40.299 152.544 39.5002 152.621C39.5002 152.432 39.5002 152.242 39.5002 152.047Z" fill="#F2D3A3"/>
<path d="M115.814 195.464C116.256 195.464 116.698 195.464 117.153 195.464C117.153 195.654 117.153 195.843 117.153 196.038C116.711 196.038 116.27 196.038 115.814 196.038C115.814 195.849 115.814 195.659 115.814 195.464Z" fill="black"/>
<path d="M130.924 118.003C130.861 118.192 130.798 118.381 130.733 118.576C130.102 118.513 129.47 118.45 128.82 118.385C129.627 117.982 130.044 117.969 130.924 118.003Z" fill="#F2D3A3"/>
<path d="M60.3479 6.87887C59.6427 7.34904 59.067 7.45503 58.244 7.64392C58.3071 7.45457 58.3703 7.26522 58.4353 7.07013C59.0867 6.92125 59.68 6.85978 60.3479 6.87887Z" fill="#ECECEB"/>
<path d="M110.076 157.403C110.266 157.466 110.455 157.529 110.65 157.594C110.587 157.973 110.524 158.351 110.459 158.742C110.27 158.742 110.08 158.742 109.885 158.742C109.948 158.3 110.011 157.858 110.076 157.403Z" fill="black"/>
<path d="M144.886 152.048C144.823 152.237 144.76 152.426 144.695 152.621C144.064 152.558 143.433 152.495 142.782 152.43C142.782 152.367 142.782 152.304 142.782 152.239C143.497 152.071 144.153 152.03 144.886 152.048Z" fill="#F2D3A3"/>
<path d="M46.7682 143.058C47.1132 143.586 47.1531 143.802 47.079 144.445C47.0395 144.618 47.0001 144.792 46.9594 144.971C46.8332 144.845 46.707 144.718 46.5769 144.588C46.5832 144.066 46.6848 143.575 46.7682 143.058Z" fill="black"/>
<path d="M124.11 76.7374C124.213 76.7847 124.316 76.8321 124.421 76.8808C123.431 77.4972 123.431 77.4972 123.082 77.6459C122.893 77.5828 122.704 77.5197 122.509 77.4546C123.544 76.6778 123.544 76.6778 124.11 76.7374Z" fill="#F4A99C"/>
<path d="M21.5214 71.1431C21.6477 71.2062 21.7739 71.2693 21.904 71.3343C21.7938 71.7906 21.6702 72.2269 21.5214 72.6732C21.3952 72.6732 21.269 72.6732 21.1389 72.6732C21.3063 71.3582 21.3063 71.3582 21.5214 71.1431Z" fill="#F2D3A3"/>
<path d="M159.422 163.906C159.422 164.095 159.422 164.284 159.422 164.48C159.076 164.814 159.076 164.814 158.657 165.053C158.468 164.99 158.279 164.927 158.083 164.862C158.525 164.546 158.967 164.231 159.422 163.906Z" fill="#ECECEB"/>
<path d="M47.1507 141.719C47.4605 142.211 47.5417 142.422 47.4615 143.01C47.4221 143.152 47.3826 143.294 47.342 143.441C47.2158 143.314 47.0895 143.188 46.9595 143.058C47.0312 142.365 47.0312 142.365 47.1507 141.719Z" fill="black"/>
<path d="M154.641 102.51C154.83 102.51 155.019 102.51 155.215 102.51C155.071 102.976 155.071 102.976 154.832 103.467C154.426 103.622 154.426 103.622 154.067 103.658C154.256 103.279 154.446 102.9 154.641 102.51Z" fill="black"/>
<path d="M77.5181 51.2514C79.939 53.3828 81.8196 56.7125 82.1759 59.9623C82.5657 66.3469 80.0814 71.741 75.9282 76.5086C75.5088 76.9708 75.0816 77.4241 74.6518 77.8766C74.4604 78.0996 74.27 78.3235 74.0808 78.5484C73.3381 79.4064 72.5223 80.1944 71.7126 80.9884C71.1687 81.5249 70.6433 82.0664 70.1474 82.6479C69.3895 83.5186 68.584 84.3383 67.7716 85.1579C67.6133 85.3176 67.4551 85.4773 67.292 85.6419C66.9592 85.9771 66.6262 86.3121 66.2929 86.6468C65.868 87.0737 65.4452 87.5027 65.0228 87.9321C64.6157 88.345 64.2061 88.7554 63.7969 89.1662C63.6466 89.3196 63.4964 89.473 63.3415 89.631C62.3709 90.5981 61.6369 91.197 60.2532 91.402C58.8971 91.2149 57.8429 90.3214 56.7529 89.5434C55.6173 88.7614 54.4386 88.0441 53.2709 87.3115C52.2986 86.6999 51.3303 86.082 50.3621 85.464C49.5267 84.931 48.6898 84.4008 47.8489 83.8766C44.8055 81.9733 41.8372 79.944 39.1814 77.5184C39.0782 77.4243 38.9751 77.3302 38.8688 77.2332C35.7046 74.3064 33.2126 70.5546 33.0066 66.1287C33.0005 65.7304 32.9987 65.3319 33.001 64.9335C33.002 64.723 33.003 64.5125 33.0041 64.2956C33.0748 60.8279 34.3652 57.9024 36.6734 55.3045C36.7745 55.1907 36.8757 55.0769 36.9799 54.9596C39.0947 52.7206 42.1005 51.2738 45.1757 51.1416C49.3453 51.0466 52.711 52.1563 55.8418 54.9463C56.139 55.1867 56.4373 55.4261 56.7375 55.6628C56.8523 55.4963 56.967 55.3298 57.0853 55.1583C59.4523 51.7577 62.661 49.1475 66.8444 48.3963C70.7187 47.9231 74.4216 48.8449 77.5181 51.2514Z" fill="#FF6060"/>
<path d="M118.363 51.0053C119.659 52.0094 120.714 53.1396 121.638 54.4972C121.958 54.9648 122.304 55.4034 122.662 55.8422C122.75 55.7445 122.837 55.6469 122.927 55.5462C125.213 53.1147 128.5 51.248 131.886 51.1306C135.643 51.0923 138.617 51.87 141.472 54.4091C141.65 54.5618 141.65 54.5618 141.831 54.7177C144.157 56.8608 145.78 60.1918 145.985 63.3458C145.999 63.8905 146 64.4336 145.996 64.9785C145.997 65.1605 145.999 65.3425 146 65.53C145.988 70.0732 143.685 73.7729 140.633 76.9812C137.929 79.5997 134.628 81.7162 131.462 83.7256C130.814 84.1384 130.17 84.5574 129.526 84.9755C129.27 85.1411 129.014 85.3067 128.757 85.4723C128.318 85.7565 127.878 86.0411 127.439 86.326C126.451 86.9646 125.459 87.595 124.461 88.2168C124.27 88.3357 124.079 88.4546 123.882 88.577C123.502 88.8136 123.121 89.0498 122.741 89.2856C121.984 89.7557 121.237 90.2225 120.522 90.7549C120.032 91.0943 119.762 91.2634 119.18 91.3239C119.059 91.3407 118.937 91.3576 118.811 91.3749C117.539 91.1983 116.601 90.3718 115.734 89.485C115.624 89.3754 115.514 89.2658 115.401 89.1528C115.041 88.7931 114.683 88.4308 114.326 88.0685C114.074 87.8157 113.822 87.5631 113.57 87.3107C113.043 86.7823 112.517 86.2528 111.992 85.7223C111.322 85.0454 110.65 84.3704 109.978 83.6961C109.333 83.0492 108.689 82.4015 108.045 81.7537C107.923 81.6316 107.802 81.5096 107.677 81.3838C106.485 80.1847 105.303 78.9898 104.211 77.6977C103.961 77.4285 103.711 77.1598 103.46 76.8916C101.621 74.8423 100.078 72.6307 98.8362 70.1737C98.7773 70.0583 98.7184 69.943 98.6578 69.8241C96.8009 66.115 96.2045 61.8294 97.4031 57.8128C98.0289 56.0074 98.8796 54.4616 100.09 52.9759C100.176 52.8609 100.262 52.7459 100.351 52.6274C104.689 47.0671 113.009 47.3296 118.363 51.0053Z" fill="#FF6060"/>
<path d="M118.363 51.0053C119.659 52.0094 120.714 53.1396 121.638 54.4972C121.958 54.9648 122.304 55.4034 122.662 55.8422C122.75 55.7445 122.837 55.6469 122.927 55.5462C125.213 53.1147 128.5 51.248 131.886 51.1306C135.643 51.0923 138.617 51.87 141.472 54.4091C141.65 54.5618 141.65 54.5618 141.831 54.7177C144.157 56.8608 145.78 60.1918 145.985 63.3458C145.999 63.8905 146 64.4336 145.996 64.9785C145.997 65.1605 145.999 65.3425 146 65.53C145.988 70.0732 143.685 73.7729 140.633 76.9812C137.929 79.5997 134.628 81.7162 131.462 83.7256C130.814 84.1384 130.17 84.5574 129.526 84.9755C129.27 85.1411 129.014 85.3067 128.757 85.4723C128.318 85.7565 127.878 86.0411 127.439 86.326C126.451 86.9646 125.459 87.595 124.461 88.2168C124.27 88.3357 124.079 88.4546 123.882 88.577C123.502 88.8136 123.121 89.0498 122.741 89.2856C121.984 89.7557 121.237 90.2225 120.522 90.7549C120.032 91.0943 119.762 91.2634 119.18 91.3239C119.059 91.3407 118.937 91.3576 118.811 91.3749C117.539 91.1983 116.601 90.3718 115.734 89.485C115.624 89.3754 115.514 89.2658 115.401 89.1528C115.041 88.7931 114.683 88.4308 114.326 88.0685C114.074 87.8157 113.822 87.5631 113.57 87.3107C113.043 86.7823 112.517 86.2528 111.992 85.7223C111.322 85.0454 110.65 84.3704 109.978 83.6961C109.333 83.0492 108.689 82.4015 108.045 81.7537C107.923 81.6316 107.802 81.5096 107.677 81.3838C106.485 80.1847 105.303 78.9898 104.211 77.6977C103.961 77.4285 103.711 77.1598 103.46 76.8916C101.621 74.8423 100.078 72.6307 98.8362 70.1737C98.7773 70.0583 98.7184 69.943 98.6578 69.8241C96.8009 66.115 96.2045 61.8294 97.4031 57.8128C98.0289 56.0074 98.8796 54.4616 100.09 52.9759C100.176 52.8609 100.262 52.7459 100.351 52.6274C104.689 47.0671 113.009 47.3296 118.363 51.0053ZM104.569 55.1256C104.454 55.2152 104.34 55.3048 104.222 55.3972C102.932 56.535 101.819 58.6785 101.664 60.3893C101.406 66.248 103.968 70.2778 107.793 74.4732C108.106 74.7981 108.422 75.1157 108.748 75.4277C109.044 75.7233 109.312 76.0303 109.582 76.3493C110.374 77.2595 111.223 78.1093 112.078 78.9599C112.35 79.2312 112.621 79.5034 112.892 79.7757C113.745 80.6294 114.609 81.4599 115.526 82.2451C116.1 82.7505 116.63 83.2984 117.165 83.8446C117.38 84.0645 117.596 84.284 117.812 84.5031C117.952 84.6459 117.952 84.6459 118.094 84.7916C118.519 85.1883 118.779 85.4018 119.371 85.3974C120.219 85.1509 120.861 84.6974 121.587 84.2029C121.908 83.9897 122.228 83.7768 122.548 83.564C122.714 83.4534 122.88 83.3427 123.05 83.2287C123.88 82.6797 124.721 82.1485 125.562 81.6165C125.894 81.4055 126.227 81.1944 126.559 80.9832C126.718 80.882 126.877 80.7809 127.041 80.6766C135.939 75.4738 135.939 75.4738 141.17 67.0275C141.668 64.3956 141.077 61.7044 139.58 59.5035C138.276 57.7915 136.606 56.4946 134.486 56.0214C132.65 55.9104 130.959 55.8646 129.291 56.7379C129.052 56.8623 129.052 56.8623 128.809 56.9892C126.755 58.1827 125.197 59.8238 124.132 61.9352C123.674 62.7986 123.228 63.0792 122.304 63.3663C121.486 63.4978 120.704 63.4153 119.975 63.008C119.592 62.4334 119.569 62.2083 119.505 61.5412C119.145 59.2386 117.881 57.2513 116.213 55.6631C116.095 55.5458 115.977 55.4285 115.856 55.3076C113.929 53.4934 111.731 53.0441 109.168 53.0998C107.337 53.1879 105.974 53.9973 104.569 55.1256Z" fill="black"/>
<path d="M77.5181 51.2514C79.939 53.3828 81.8196 56.7125 82.1759 59.9623C82.5657 66.3469 80.0814 71.741 75.9282 76.5086C75.5089 76.9708 75.0816 77.4241 74.6518 77.8766C74.4604 78.0996 74.27 78.3235 74.0808 78.5484C73.3381 79.4064 72.5223 80.1944 71.7126 80.9884C71.1687 81.5249 70.6433 82.0664 70.1474 82.6479C69.3895 83.5186 68.584 84.3383 67.7716 85.1579C67.6133 85.3176 67.4551 85.4773 67.292 85.6419C66.9592 85.9771 66.6262 86.3121 66.2929 86.6468C65.868 87.0737 65.4452 87.5027 65.0228 87.9321C64.6157 88.345 64.2061 88.7554 63.7969 89.1662C63.6466 89.3196 63.4964 89.473 63.3415 89.631C62.3709 90.5981 61.6369 91.197 60.2532 91.402C58.8971 91.2149 57.8429 90.3214 56.7529 89.5434C55.6173 88.7614 54.4386 88.0441 53.2709 87.3115C52.2986 86.6999 51.3303 86.082 50.3621 85.464C49.5267 84.931 48.6898 84.4008 47.8489 83.8766C44.8055 81.9733 41.8372 79.944 39.1814 77.5184C39.0782 77.4243 38.9751 77.3302 38.8688 77.2332C35.7046 74.3064 33.2126 70.5546 33.0066 66.1287C33.0005 65.7304 32.9987 65.3319 33.001 64.9335C33.002 64.723 33.003 64.5125 33.0041 64.2956C33.0748 60.8279 34.3652 57.9024 36.6734 55.3045C36.7745 55.1907 36.8757 55.0769 36.9799 54.9596C39.0947 52.7206 42.1005 51.2738 45.1757 51.1416C49.3453 51.0466 52.711 52.1563 55.8418 54.9463C56.139 55.1867 56.4373 55.4261 56.7375 55.6628C56.8523 55.4963 56.967 55.3298 57.0853 55.1583C59.4523 51.7577 62.661 49.1475 66.8444 48.3963C70.7187 47.9231 74.4216 48.8449 77.5181 51.2514ZM61.9319 56.5991C60.6622 58.1514 59.8064 59.8966 59.6654 61.9063C59.5965 62.3367 59.4709 62.6357 59.2455 63.0077C58.4623 63.4972 57.4528 63.496 56.5583 63.366C55.729 63.0021 55.4767 62.5725 55.1028 61.7649C53.6988 59.0242 51.3326 57.1411 48.4682 56.0533C46.3138 55.4251 44.1297 55.965 42.2045 57.0176C39.9939 58.459 38.4552 60.4433 37.849 63.0301C37.8071 63.3201 37.7737 63.6115 37.7483 63.9034C37.7337 64.0642 37.7192 64.2249 37.7042 64.3905C37.5712 67.3876 38.706 70.219 40.7041 72.424C44.2576 76.1496 49.0399 78.7706 53.3636 81.4968C54.2412 82.0518 55.1157 82.6115 55.9903 83.1713C56.2813 83.3576 56.5725 83.5437 56.8637 83.7298C57.0419 83.8438 57.2201 83.9578 57.4037 84.0753C57.5702 84.1813 57.7367 84.2874 57.9082 84.3967C58.2673 84.6304 58.6135 84.8735 58.96 85.125C59.4995 85.4451 59.7043 85.4884 60.3204 85.4007C60.7992 85.0721 60.7992 85.0721 61.2791 84.5861C61.3765 84.4929 61.474 84.3998 61.5745 84.3037C61.9357 83.9558 62.2926 83.6037 62.6492 83.251C62.7984 83.1041 62.9476 82.9573 63.1013 82.806C64.2586 81.6654 65.4083 80.5171 66.5561 79.3668C66.9317 78.9908 67.3079 78.6154 67.6842 78.24C68.0509 77.8739 68.4172 77.5074 68.7834 77.1407C69.0391 76.8849 69.2951 76.6294 69.5511 76.374C73.7079 72.2022 77.3909 67.5919 77.3954 61.4662C77.3608 58.99 76.4583 57.028 74.8198 55.1702C73.2019 53.6546 70.8686 52.874 68.6799 52.9316C65.898 53.1886 63.7715 54.5552 61.9319 56.5991Z" fill="black"/>
<path d="M27.273 8.58829C27.3289 8.61144 27.3848 8.63459 27.4424 8.65844C28.8037 9.2268 30.0884 9.93054 31.3458 10.6991C31.3927 10.7275 31.4395 10.7559 31.4878 10.7852C32.0339 11.1171 32.5601 11.465 33.0677 11.8538C33.272 12.0131 33.272 12.0131 33.506 12.1191C33.5127 12.164 33.5193 12.209 33.5262 12.2553C33.5692 12.2674 33.6122 12.2795 33.6565 12.292C34.0914 12.4503 34.4538 12.8253 34.7986 13.1249C34.9223 13.2331 34.9223 13.2331 35.0565 13.3238C35.1589 13.4054 35.1589 13.4054 35.1792 13.5417C35.2358 13.4971 35.2925 13.4525 35.3508 13.4066C37.052 12.0923 39.2 11.5077 41.3428 11.766C41.9784 11.8531 42.575 11.9848 43.1721 12.2228C43.3402 12.2792 43.3402 12.2792 43.4643 12.195C43.6211 12.0624 43.7319 11.9201 43.8538 11.7547C43.9017 11.6899 43.9496 11.6252 43.999 11.5584C44.0485 11.4907 44.0979 11.423 44.1489 11.3533C44.1984 11.2864 44.248 11.2195 44.2991 11.1506C44.5233 10.846 44.7311 10.5441 44.92 10.2163C44.9915 10.1264 45.0655 10.0384 45.142 9.95273C45.3102 9.75989 45.4657 9.56403 45.6148 9.35605C45.8383 9.05035 46.086 8.77404 46.3433 8.4965C46.5137 8.31165 46.6788 8.12297 46.844 7.9335C49.858 4.56126 54.1932 1.48655 58.8175 1.12203C60.3883 1.04698 61.963 1.59292 63.1548 2.61052C65.5739 4.86392 66.5919 8.30565 67.376 11.4091C67.3893 11.4593 67.4026 11.5095 67.4163 11.5613C67.5549 12.1023 67.6409 12.6487 67.7232 13.2006C67.7385 13.3022 67.7538 13.4038 67.7691 13.5053C67.801 13.7179 67.8327 13.9304 67.8642 14.143C67.896 14.3571 67.9282 14.571 67.9609 14.785C68.1605 16.0909 68.3288 17.3868 68.3896 18.7082C68.3921 18.7607 68.3946 18.8133 68.3972 18.8675C68.4107 19.1609 68.4184 19.454 68.422 19.7477C68.4231 19.8337 68.4243 19.9196 68.4254 20.0082C68.4306 20.8854 68.3683 21.7524 68.2745 22.6241C68.2686 22.6815 68.2627 22.739 68.2566 22.7981C68.0831 24.4276 67.6012 26.0166 66.6836 27.3856C66.6463 27.4415 66.609 27.4975 66.5706 27.5552C65.7326 28.7472 64.37 29.5977 62.9475 29.8894C62.3594 29.9915 61.768 30.0733 61.1764 30.1523C61.3303 30.3108 61.4844 30.4693 61.6385 30.6276C61.6865 30.6769 61.7345 30.7262 61.7839 30.777C62.0786 31.0792 62.3754 31.3792 62.6742 31.6774C65.5221 34.5215 65.5221 34.5215 65.5402 35.6314C65.4955 36.1679 65.3466 36.6321 64.983 37.0369C63.889 37.9102 62.1846 37.7532 60.8654 37.7915C60.6962 37.797 60.527 37.8026 60.3577 37.8083C59.8161 37.8261 59.2745 37.8436 58.7328 37.8554C58.0345 37.8499 58.0345 37.8499 57.4053 38.0992C57.2942 38.2431 57.2142 38.3881 57.1314 38.5502C57.0674 38.6626 57.0033 38.7749 56.9392 38.8872C56.8676 39.0139 56.7977 39.1413 56.7282 39.269C56.3279 40.0036 55.9073 40.7278 55.472 41.4421C55.4459 41.4851 55.4199 41.5281 55.3931 41.5725C54.3431 43.3033 54.3431 43.3033 53.4314 43.5861C52.832 43.7121 52.3208 43.5808 51.7904 43.2838C51.5116 43.0718 51.3226 42.778 51.1243 42.4933C51.0934 42.449 51.0624 42.4046 51.0305 42.3588C50.6837 41.8576 50.3587 41.3434 50.037 40.8258C50.0045 40.7735 49.9719 40.7212 49.9384 40.6673C48.4939 38.3454 47.1267 35.9817 45.8146 33.5828C45.6331 33.251 45.4502 32.92 45.267 32.5892C44.6502 31.4736 44.0522 30.3491 43.4668 29.2167C43.4177 29.122 43.4177 29.122 43.3676 29.0254C43.2754 28.8473 43.1836 28.6689 43.0919 28.4905C43.0504 28.4104 43.0504 28.4104 43.0081 28.3286C42.9045 28.1258 42.8185 27.9566 42.7849 27.7297C42.7177 27.751 42.6505 27.7723 42.5813 27.7943C42.3331 27.8644 42.0954 27.9096 41.8404 27.9463C41.7528 27.9591 41.6651 27.9718 41.5749 27.985C41.4836 27.998 41.3924 28.0109 41.3012 28.0239C41.2081 28.0373 41.1151 28.0508 41.022 28.0643C40.7956 28.0971 40.5691 28.1296 40.3426 28.1618C40.3357 28.2011 40.3288 28.2405 40.3216 28.2811C39.4216 33.3926 38.369 38.5084 36.9338 43.4997C36.8748 43.706 36.8176 43.9128 36.7606 44.1197C36.5221 44.9687 36.2886 45.6774 35.4927 46.1477C35.0146 46.39 34.4513 46.417 33.9404 46.2706C33.1501 45.9451 32.5125 45.2905 31.8874 44.7246C31.8387 44.6806 31.79 44.6365 31.7399 44.5911C31.2508 44.1475 30.7713 43.6942 30.2946 43.2374C30.2142 43.1604 30.1338 43.0835 30.0533 43.0067C29.9779 42.9348 29.9028 42.8628 29.8279 42.7905C29.7275 42.6948 29.6248 42.6015 29.5221 42.5083C29.4378 42.4208 29.4378 42.4208 29.3517 42.3316C28.7928 42.0448 27.917 42.4334 27.3433 42.5902C27.2516 42.6148 27.1599 42.6393 27.0682 42.6638C26.6835 42.7666 26.2991 42.8704 25.9148 42.9747C24.0434 43.4821 24.0434 43.4821 23.2374 43.6045C23.1586 43.6166 23.1586 43.6166 23.0782 43.629C22.4915 43.7062 21.9806 43.5913 21.4887 43.2654C20.9787 42.8303 20.7858 42.3206 20.7255 41.6615C20.6795 40.6199 21.4538 39.5183 21.914 38.6247C21.9456 38.5628 21.9773 38.501 22.0099 38.4372C22.4568 37.5636 22.9177 36.6973 23.3792 35.8312C23.329 35.8377 23.2789 35.8441 23.2272 35.8507C20.8942 36.1443 19.1174 36.0053 17.1908 34.5767C15.5826 33.3059 14.5247 31.2288 13.8779 29.3209C13.8226 29.1582 13.7648 28.9966 13.707 28.8348C11.8278 23.4721 10.6743 15.9047 13.1611 10.5934C13.9007 9.17078 14.9183 8.17817 16.3982 7.55656C16.4594 7.53033 16.5207 7.50409 16.5838 7.47707C19.8603 6.25567 24.1655 7.28783 27.273 8.58829Z" fill="black"/>
<path d="M18.3918 9.61439C18.4379 9.60761 18.4841 9.60083 18.5316 9.59384C23.5341 8.8668 28.3407 11.3022 32.2522 14.2131C32.5655 14.4487 32.8685 14.6934 33.1609 14.9548C33.2215 15.0084 33.2215 15.0084 33.2833 15.0631C33.3766 15.1459 33.4694 15.2294 33.5621 15.3129C33.4894 15.5836 33.3562 15.7995 33.213 16.0392C32.6863 16.9584 32.4202 17.9567 32.2283 18.992C31.9133 18.9494 31.5996 18.905 31.2876 18.8436C30.2139 18.6332 29.1224 18.5205 28.0331 18.666C27.9742 18.6731 27.9152 18.6803 27.8545 18.6876C27.5724 18.7331 27.3833 18.7836 27.1837 18.9949C26.9432 19.343 26.9218 19.5524 26.9941 19.9605C27.0749 20.2687 27.2156 20.4371 27.4819 20.605C27.8268 20.7595 28.1928 20.7198 28.5629 20.7108C29.2343 20.7045 29.8991 20.7218 30.5689 20.7699C30.6452 20.7751 30.7215 20.7803 30.8001 20.7856C31.3128 20.8244 31.8126 20.8998 32.3172 20.9978C32.3273 21.0597 32.3375 21.1217 32.348 21.1855C32.6348 22.7255 33.3678 24.4863 34.5761 25.5407C34.68 25.6599 34.68 25.6599 34.7046 25.7895C34.6223 26.0302 34.4537 26.1917 34.2809 26.3718C34.2413 26.4136 34.2018 26.4554 34.1611 26.4985C33.3485 27.3429 32.4547 28.1204 31.5319 28.8423C31.4831 28.8806 31.4342 28.9188 31.3838 28.9582C28.7413 31.0134 25.7053 32.981 22.3376 33.4996C22.2385 33.5151 22.1394 33.5312 22.0405 33.548C20.8668 33.7465 19.8961 33.598 18.8982 32.906C15.4383 30.1971 14.9644 24.4118 14.4711 20.3741C14.3856 19.6156 14.3438 18.8592 14.3418 18.0957C14.3408 17.9684 14.3408 17.9684 14.3398 17.8384C14.332 15.6724 14.4419 13.119 15.6193 11.2225C15.6513 11.1574 15.6833 11.0924 15.7162 11.0253C16.3688 10.0653 17.3037 9.77392 18.3918 9.61439Z" fill="#F4A99C"/>
<path d="M58.2465 3.69549C58.3318 3.68139 58.4171 3.6673 58.505 3.65278C59.5278 3.49662 60.3464 3.62314 61.1961 4.21886C63.0334 5.58589 63.883 8.09434 64.534 10.2032C64.5738 10.3313 64.5738 10.3313 64.6143 10.462C65.042 11.8825 65.3156 13.3141 65.5268 14.7814C65.5394 14.8684 65.5521 14.9555 65.5652 15.0451C66.0654 18.4905 66.7138 23.0497 64.6901 26.1495C63.9603 27.0763 63.0848 27.4603 61.9412 27.6235C61.8941 27.6304 61.8471 27.6372 61.7986 27.6442C58.6002 28.1026 55.3195 27.3121 52.3117 26.246C52.2451 26.2224 52.1784 26.1987 52.1097 26.1744C48.4964 24.8772 48.4964 24.8772 47.4807 23.9795C47.4289 23.8376 47.4289 23.8376 47.5047 23.6153C47.5474 23.5279 47.5911 23.4409 47.6357 23.3544C47.6811 23.26 47.7262 23.1655 47.7709 23.0708C47.7933 23.0238 47.8156 22.9768 47.8386 22.9283C48.4239 21.6488 48.4913 20.2055 48.3562 18.8265C48.7249 18.5832 49.0958 18.3662 49.4958 18.1787C49.5499 18.1533 49.604 18.1279 49.6598 18.1017C50.5295 17.7043 51.4392 17.3922 52.3431 17.0825C52.402 17.0621 52.4609 17.0417 52.5216 17.0207C52.5726 17.0034 52.6235 16.9861 52.6759 16.9683C52.8776 16.8827 52.9854 16.7696 53.1066 16.5898C53.2274 16.2881 53.1977 15.9928 53.1114 15.6841C52.9461 15.3797 52.7818 15.223 52.4654 15.0837C52.2528 15.0739 52.0522 15.1055 51.843 15.1413C51.7832 15.151 51.7234 15.1607 51.6619 15.1707C50.4574 15.3858 49.3246 15.9177 48.2674 16.5202C48.0327 16.6466 48.0327 16.6466 47.8283 16.677C47.8004 16.6266 47.8004 16.6266 47.772 16.5752C47.222 15.5879 46.6498 14.6539 45.7839 13.9113C45.6602 13.7961 45.6602 13.7961 45.5618 13.6019C45.6067 13.5952 45.6517 13.5885 45.698 13.5817C45.7101 13.539 45.7221 13.4964 45.7346 13.4525C45.7961 13.2826 45.8711 13.1603 45.9753 13.0132C46.0115 12.9616 46.0477 12.9101 46.085 12.857C46.1426 12.7759 46.1426 12.7759 46.2015 12.6932C46.2802 12.5814 46.3589 12.4694 46.4375 12.3574C46.494 12.277 46.494 12.277 46.5516 12.1949C46.6738 12.0186 46.7901 11.8389 46.905 11.6576C47.069 11.4041 47.2488 11.177 47.4481 10.9504C47.5804 10.7976 47.7073 10.6412 47.8335 10.4834C50.1181 7.62961 53.1978 5.07952 56.7392 4.00621C56.8192 3.98114 56.8993 3.95607 56.9817 3.93025C57.3962 3.81742 57.8225 3.76018 58.2465 3.69549Z" fill="#F4A99C"/>
<path d="M45.8525 25.882C46.0735 25.8824 46.218 25.9406 46.4077 26.0496C46.4595 26.0789 46.5114 26.1083 46.5648 26.1385C46.6198 26.1702 46.6749 26.2019 46.7316 26.2346C46.8484 26.3005 46.9653 26.3663 47.0823 26.4319C47.1404 26.4646 47.1984 26.4972 47.2582 26.5308C49.0756 27.5426 51.0191 28.2753 52.9886 28.9307C53.0766 28.9603 53.0766 28.9603 53.1664 28.9905C53.8822 29.2288 54.6029 29.4097 55.3411 29.565C55.4652 29.5912 55.4652 29.5912 55.5918 29.618C55.9687 29.6959 56.3431 29.7669 56.7252 29.8145C57.5722 29.9261 57.9989 30.1457 58.5368 30.81C58.7391 31.055 58.9597 31.2834 59.1769 31.5151C59.2684 31.6144 59.3599 31.7137 59.4514 31.813C60.1244 32.5394 60.8273 33.2376 61.526 33.9391C61.8263 34.241 62.1254 34.544 62.4218 34.8497C62.4565 34.8854 62.4913 34.921 62.5271 34.9578C62.761 35.2001 62.761 35.2001 62.7723 35.2763C62.2137 35.3266 61.6568 35.3468 61.0963 35.3597C59.7211 35.3947 58.3352 35.4348 56.9707 35.6195C56.909 35.6271 56.8473 35.6348 56.7837 35.6426C56.318 35.7133 55.9794 35.8628 55.6865 36.2417C55.5835 36.3977 55.4893 36.556 55.3976 36.7189C55.369 36.769 55.3403 36.8192 55.3107 36.8708C55.2249 37.0233 55.1411 37.1768 55.0576 37.3307C54.7991 37.8027 54.5344 38.2702 54.2621 38.7343C54.0968 39.016 53.9337 39.2988 53.7725 39.5829C53.2803 40.4507 53.2803 40.4507 53.0723 40.7539C53.0274 40.7606 52.9824 40.7673 52.9361 40.7741C51.5098 38.6652 50.2209 36.4803 48.9757 34.2605C48.9348 34.1876 48.9348 34.1876 48.8931 34.1132C48.0978 32.6953 47.3193 31.2683 46.5442 29.8392C46.5037 29.7646 46.4631 29.69 46.4214 29.6131C45.9132 28.677 45.4174 27.7361 44.9419 26.783C45.1084 26.5514 45.2708 26.3778 45.4951 26.2005C45.6887 26.0561 45.6887 26.0561 45.8525 25.882Z" fill="#F4A99C"/>
<path d="M36.7946 27.2425C37.0212 27.2936 37.2284 27.3894 37.4397 27.4835C37.5069 27.5129 37.5069 27.5129 37.5755 27.5429C37.6855 27.5911 37.7954 27.6398 37.9052 27.6886C37.8814 28.315 37.7598 28.923 37.6444 29.5375C37.6333 29.5967 37.6223 29.656 37.6109 29.7171C35.7911 39.475 35.7911 39.475 34.3491 43.6027C34.3042 43.6094 34.2592 43.616 34.2129 43.6229C34.0878 43.5133 33.9709 43.4023 33.8537 43.2846C33.78 43.2119 33.7062 43.1393 33.6324 43.0667C33.5941 43.0289 33.5559 42.9911 33.5164 42.9522C33.3317 42.7713 33.1432 42.5943 32.9548 42.4172C32.6743 42.1528 32.3954 41.8869 32.1184 41.6188C32.017 41.5209 31.9156 41.4229 31.8142 41.325C31.7284 41.2421 31.6427 41.1592 31.557 41.0762C31.4057 40.93 31.2542 40.7841 31.1026 40.6382C31.031 40.5689 31.031 40.5689 30.9579 40.4981C30.4181 39.9731 30.4181 39.9731 29.7309 39.6931C29.5223 39.7008 29.3351 39.7189 29.1304 39.7517C29.0681 39.7613 29.0058 39.771 28.9416 39.7809C27.3676 40.0467 25.8017 40.485 24.27 40.9307C23.9796 41.0149 23.6998 41.0855 23.3982 41.1202C23.453 40.7875 23.6049 40.5332 23.7782 40.2501C24.1356 39.6518 24.4566 39.0377 24.7728 38.4168C24.8452 38.2747 24.9181 38.1327 24.9912 37.991C25.221 37.5449 25.4469 37.097 25.6709 36.648C25.7358 36.5179 25.801 36.3878 25.8663 36.2578C26.0126 35.9665 26.1571 35.675 26.2944 35.3793C26.3174 35.3311 26.3404 35.2828 26.3641 35.2331C26.4245 35.1062 26.4835 34.9785 26.5423 34.8508C26.7215 34.591 26.9212 34.4901 27.1988 34.3599C27.3323 34.2926 27.4656 34.225 27.5987 34.1572C27.6728 34.1198 27.7469 34.0824 27.8232 34.0439C30.9634 32.4469 34.3923 30.1552 36.5555 27.3313C36.6562 27.2474 36.6562 27.2474 36.7946 27.2425Z" fill="#F4A99C"/>
<path d="M43.0943 14.8031C44.3754 15.5379 45.1951 16.678 45.7318 18.032C45.7527 18.0836 45.7736 18.1351 45.7952 18.1883C46.158 19.3329 46.0819 20.5904 45.7226 21.7234C45.7032 21.7887 45.6838 21.854 45.6639 21.9214C45.2219 23.2717 44.2397 24.362 42.9907 25.0235C41.5538 25.7464 40.0574 25.8613 38.5264 25.3661C37.0341 24.8455 35.9253 23.8169 35.2199 22.4074C34.5229 20.8561 34.471 19.2947 35.0165 17.6946C35.1761 17.282 35.3855 16.9102 35.6238 16.5384C35.6523 16.4922 35.6808 16.4459 35.7102 16.3983C37.3036 14.0269 40.6798 13.4666 43.0943 14.8031Z" fill="#F4A99C"/>
</svg>
