<svg width="350" height="350" viewBox="0 0 350 350" fill="none" xmlns="http://www.w3.org/2000/svg">
<path d="M196.148 96.5119C196.346 96.5459 196.544 96.5799 196.748 96.615C204.495 97.9818 212.119 100.415 219.429 103.293C219.578 103.157 219.578 103.157 219.729 103.018C220.557 102.28 221.297 101.728 222.339 101.315C222.66 101.184 222.66 101.184 222.988 101.05C224.814 100.446 226.507 100.273 228.428 100.284C228.801 100.286 228.801 100.286 229.181 100.288C243.252 100.493 256.356 108.288 265.958 118.133C266.76 118.973 267.502 119.854 268.221 120.766C268.738 121.418 269.278 122.045 269.82 122.675C277.287 131.633 282.492 144 281.588 155.732C281.159 159.663 279.261 163.589 276.255 166.184C272.751 168.857 268.733 170.022 264.353 170C264.176 170.001 263.999 170.002 263.817 170.003C262.423 170.001 261.049 169.89 259.663 169.746C259.719 169.905 259.774 170.064 259.832 170.228C261.049 173.721 262.152 177.181 262.827 180.822C262.864 181.009 262.901 181.195 262.939 181.388C264.156 187.808 263.996 195.019 262.601 201.391C262.538 201.691 262.538 201.691 262.473 201.998C261.56 206.238 260.127 210.227 258.081 214.048C257.975 214.26 257.869 214.471 257.76 214.689C255.238 219.615 251.345 223.999 247.005 227.384C246.82 227.529 246.82 227.529 246.632 227.677C242.463 230.915 237.721 233.474 232.765 235.295C232.908 235.394 233.051 235.494 233.198 235.596C237.106 238.366 240.705 241.651 243.615 245.467C243.712 245.593 243.809 245.719 243.908 245.849C245.915 248.471 247.599 251.224 249.167 254.127C249.245 254.272 249.323 254.416 249.404 254.566C249.944 255.583 249.944 255.583 249.944 256.09C250.093 256.09 250.242 256.09 250.396 256.09C250.435 255.824 250.435 255.824 250.474 255.552C250.588 254.921 250.72 254.312 250.875 253.691C250.923 253.497 250.972 253.304 251.021 253.104C251.12 252.711 251.22 252.319 251.321 251.926C252.214 248.314 252.253 244.823 252.143 241.13C252.127 240.539 252.118 239.948 252.109 239.357C252.099 239.091 252.099 239.091 252.087 238.82C252.075 237.468 252.48 236.568 253.334 235.521C254.523 234.593 255.962 234.684 257.403 234.843C260.435 235.574 262.699 237.446 264.862 239.59C265.061 239.786 265.26 239.982 265.465 240.184C268.417 243.256 270.043 246.992 271.148 251.061C271.195 251.232 271.242 251.403 271.29 251.579C272.406 255.926 272.441 261.501 271.191 265.81C271.11 266.119 271.03 266.428 270.95 266.737C269.442 272.375 266.447 277.641 262.149 281.632C261.963 281.818 261.776 282.005 261.584 282.197C261.398 282.383 261.211 282.57 261.019 282.762C260.907 282.879 260.794 282.996 260.678 283.116C259.751 284.069 258.783 284.898 257.713 285.686C257.556 285.803 257.398 285.92 257.235 286.041C251.324 290.371 244.516 292.992 237.286 294.064C236.931 294.128 236.931 294.128 236.57 294.193C235.306 294.334 234.05 294.313 232.779 294.304C232.517 294.303 232.255 294.302 231.984 294.301C231.34 294.298 230.697 294.294 230.053 294.29C230.068 294.484 230.084 294.679 230.1 294.88C230.276 297.251 230.323 299.611 230.333 301.988C230.334 302.187 230.335 302.387 230.335 302.592C230.34 303.646 230.343 304.699 230.346 305.753C230.348 306.829 230.356 307.905 230.365 308.981C230.371 309.82 230.373 310.659 230.373 311.499C230.374 311.895 230.377 312.291 230.381 312.688C230.426 317.102 229.678 320.975 226.527 324.288C223.692 326.981 220.22 327.927 216.491 328.647C216.322 328.686 216.153 328.726 215.979 328.767C215.19 328.902 214.412 328.914 213.613 328.919C213.361 328.921 213.361 328.921 213.104 328.923C206.809 328.969 200.612 328.723 195.719 324.185C192.616 320.846 191.772 316.105 191.853 311.694C191.588 311.759 191.322 311.825 191.048 311.892C187.614 312.652 184.072 312.856 180.564 312.87C180.294 312.872 180.023 312.873 179.744 312.875C178.874 312.879 178.003 312.88 177.133 312.881C176.836 312.881 176.539 312.882 176.233 312.882C171.532 312.884 166.912 312.704 162.243 312.146C161.89 312.105 161.536 312.064 161.182 312.022C160.255 311.914 159.328 311.805 158.401 311.694C158.403 311.937 158.406 312.179 158.408 312.429C158.372 316.649 156.887 320.992 153.972 324.062C149.691 328.121 143.81 328.925 138.171 328.929C137.999 328.929 137.827 328.929 137.65 328.93C132.327 328.922 126.997 328.042 122.979 324.235C119.864 320.859 119.451 316.731 119.463 312.35C119.463 311.974 119.462 311.598 119.461 311.222C119.46 310.224 119.462 309.226 119.465 308.228C119.467 307.609 119.468 306.99 119.469 306.371C119.478 300.451 119.537 294.545 119.975 288.639C119.988 288.459 120.002 288.279 120.015 288.093C120.294 284.271 120.639 280.463 121.105 276.659C120.858 276.744 120.611 276.828 120.357 276.915C120.209 276.966 120.062 277.016 119.91 277.068C119.605 277.172 119.301 277.277 118.996 277.383C118.795 277.451 118.795 277.451 118.589 277.52C118.454 277.566 118.319 277.612 118.18 277.66C114.687 278.632 109.99 278.501 106.639 277.111C106.439 277.043 106.238 276.976 106.031 276.906C103.022 275.844 100.376 273.596 98.9543 270.74C97.3111 267.284 97.2324 262.814 98.4157 259.169C98.5189 258.899 98.622 258.629 98.7283 258.351C98.8193 258.106 98.8193 258.106 98.9122 257.856C100.341 254.064 102.302 250.664 104.831 247.501C104.986 247.303 105.14 247.105 105.299 246.902C108.099 243.384 111.293 240.32 114.748 237.457C114.91 237.323 115.071 237.189 115.237 237.052C115.928 236.486 116.613 235.941 117.364 235.457C117.959 235.126 117.959 235.126 118.167 234.617C118.005 234.589 117.843 234.561 117.676 234.533C111.928 233.261 106.04 229.412 101.667 225.576C101.472 225.406 101.278 225.237 101.078 225.062C100.514 224.562 99.9584 224.055 99.4064 223.542C99.2561 223.404 99.1057 223.266 98.9508 223.123C91.193 215.712 86.9686 204.183 86.6832 193.601C86.6652 192.6 86.6617 191.599 86.6639 190.598C86.664 190.386 86.6641 190.174 86.6642 189.956C86.6824 183.11 87.4802 175.516 90.5912 169.294C90.3097 169.367 90.0282 169.44 89.7382 169.515C85.2104 170.515 80.5155 169.647 76.5557 167.311C72.7686 164.871 70.5697 160.896 69.5631 156.592C67.3815 146.234 71.8647 134.811 77.4081 126.239C77.9439 125.435 78.497 124.645 79.0635 123.862C79.1593 123.729 79.255 123.597 79.3536 123.46C82.3198 119.397 85.738 115.678 89.687 112.56C90.0922 112.221 90.4972 111.882 90.902 111.543C93.2766 109.606 95.8418 107.969 98.5023 106.457C98.6649 106.365 98.8274 106.272 98.995 106.177C103.192 103.819 107.621 102.187 112.29 101.033C112.451 100.992 112.611 100.951 112.777 100.91C115.191 100.328 117.618 100.291 120.088 100.284C120.245 100.283 120.401 100.282 120.563 100.281C124.164 100.271 128.005 100.808 130.825 103.293C130.825 103.442 130.825 103.591 130.825 103.745C131.043 103.646 131.261 103.547 131.486 103.445C139.287 99.9938 147.525 97.7316 155.914 96.2859C156.128 96.2486 156.343 96.2113 156.563 96.173C169.477 94.0092 183.269 94.2895 196.148 96.5119Z" fill="#F2D3A3"/>
<path d="M196.148 96.5119C196.346 96.5459 196.544 96.5799 196.748 96.615C204.495 97.9818 212.119 100.415 219.429 103.293C219.578 103.157 219.578 103.157 219.729 103.018C220.557 102.28 221.297 101.728 222.339 101.315C222.66 101.184 222.66 101.184 222.988 101.05C224.814 100.446 226.507 100.273 228.428 100.284C228.801 100.286 228.801 100.286 229.181 100.288C243.252 100.493 256.356 108.288 265.958 118.133C266.76 118.973 267.502 119.854 268.221 120.766C268.738 121.418 269.278 122.045 269.82 122.675C277.287 131.633 282.492 144 281.588 155.732C281.159 159.663 279.261 163.589 276.255 166.184C272.751 168.857 268.733 170.022 264.353 170C264.176 170.001 263.999 170.002 263.817 170.003C262.423 170.001 261.049 169.89 259.663 169.746C259.719 169.905 259.774 170.064 259.832 170.228C261.049 173.721 262.152 177.181 262.827 180.822C262.864 181.009 262.901 181.195 262.939 181.388C264.156 187.808 263.996 195.019 262.601 201.391C262.538 201.691 262.538 201.691 262.473 201.998C261.56 206.238 260.127 210.227 258.081 214.048C257.975 214.26 257.869 214.471 257.76 214.689C255.238 219.615 251.345 223.999 247.005 227.384C246.82 227.529 246.82 227.529 246.632 227.677C242.463 230.915 237.721 233.474 232.765 235.295C232.908 235.394 233.051 235.494 233.198 235.596C237.106 238.366 240.705 241.651 243.615 245.467C243.712 245.593 243.809 245.719 243.908 245.849C245.915 248.471 247.599 251.224 249.167 254.127C249.245 254.272 249.323 254.416 249.404 254.566C249.944 255.583 249.944 255.583 249.944 256.09C250.093 256.09 250.242 256.09 250.396 256.09C250.435 255.824 250.435 255.824 250.474 255.552C250.588 254.921 250.72 254.312 250.875 253.691C250.923 253.497 250.972 253.304 251.021 253.104C251.12 252.711 251.22 252.319 251.321 251.926C252.214 248.314 252.253 244.823 252.143 241.13C252.127 240.539 252.118 239.948 252.109 239.357C252.099 239.091 252.099 239.091 252.087 238.82C252.075 237.468 252.48 236.568 253.334 235.521C254.523 234.593 255.962 234.684 257.403 234.843C260.435 235.574 262.699 237.446 264.862 239.59C265.061 239.786 265.26 239.982 265.465 240.184C268.417 243.256 270.043 246.992 271.148 251.061C271.195 251.232 271.242 251.403 271.29 251.579C272.406 255.926 272.441 261.501 271.191 265.81C271.11 266.119 271.03 266.428 270.95 266.737C269.442 272.375 266.447 277.641 262.149 281.632C261.963 281.818 261.776 282.005 261.584 282.197C261.398 282.383 261.211 282.57 261.019 282.762C260.907 282.879 260.794 282.996 260.678 283.116C259.751 284.069 258.783 284.898 257.713 285.686C257.556 285.803 257.398 285.92 257.235 286.041C251.324 290.371 244.516 292.992 237.286 294.064C236.931 294.128 236.931 294.128 236.57 294.193C235.306 294.334 234.05 294.313 232.779 294.304C232.517 294.303 232.255 294.302 231.984 294.301C231.34 294.298 230.697 294.294 230.053 294.29C230.068 294.484 230.084 294.679 230.1 294.88C230.276 297.251 230.323 299.611 230.333 301.988C230.334 302.187 230.335 302.387 230.335 302.592C230.34 303.646 230.343 304.699 230.346 305.753C230.348 306.829 230.356 307.905 230.365 308.981C230.371 309.82 230.373 310.659 230.373 311.499C230.374 311.895 230.377 312.291 230.381 312.688C230.426 317.102 229.678 320.975 226.527 324.288C223.692 326.981 220.22 327.927 216.491 328.647C216.322 328.686 216.153 328.726 215.979 328.767C215.19 328.902 214.412 328.914 213.613 328.919C213.361 328.921 213.361 328.921 213.104 328.923C206.809 328.969 200.612 328.723 195.719 324.185C192.616 320.846 191.772 316.105 191.853 311.694C191.588 311.759 191.322 311.825 191.048 311.892C187.614 312.652 184.072 312.856 180.564 312.87C180.294 312.872 180.023 312.873 179.744 312.875C178.874 312.879 178.003 312.88 177.133 312.881C176.836 312.881 176.539 312.882 176.233 312.882C171.532 312.884 166.912 312.704 162.243 312.146C161.89 312.105 161.536 312.064 161.182 312.022C160.255 311.914 159.328 311.805 158.401 311.694C158.403 311.937 158.406 312.179 158.408 312.429C158.372 316.649 156.887 320.992 153.972 324.062C149.691 328.121 143.81 328.925 138.171 328.929C137.999 328.929 137.827 328.929 137.65 328.93C132.327 328.922 126.997 328.042 122.979 324.235C119.864 320.859 119.451 316.731 119.463 312.35C119.463 311.974 119.462 311.598 119.461 311.222C119.46 310.224 119.462 309.226 119.465 308.228C119.467 307.609 119.468 306.99 119.469 306.371C119.478 300.451 119.537 294.545 119.975 288.639C119.988 288.459 120.002 288.279 120.015 288.093C120.294 284.271 120.639 280.463 121.105 276.659C120.858 276.744 120.611 276.828 120.357 276.915C120.209 276.966 120.062 277.016 119.91 277.068C119.605 277.172 119.301 277.277 118.996 277.383C118.795 277.451 118.795 277.451 118.589 277.52C118.454 277.566 118.319 277.612 118.18 277.66C114.687 278.632 109.99 278.501 106.639 277.111C106.439 277.043 106.238 276.976 106.031 276.906C103.022 275.844 100.376 273.596 98.9543 270.74C97.3111 267.284 97.2324 262.814 98.4157 259.169C98.5189 258.899 98.622 258.629 98.7283 258.351C98.8193 258.106 98.8193 258.106 98.9122 257.856C100.341 254.064 102.302 250.664 104.831 247.501C104.986 247.303 105.14 247.105 105.299 246.902C108.099 243.384 111.293 240.32 114.748 237.457C114.91 237.323 115.071 237.189 115.237 237.052C115.928 236.486 116.613 235.941 117.364 235.457C117.959 235.126 117.959 235.126 118.167 234.617C118.005 234.589 117.843 234.561 117.676 234.533C111.928 233.261 106.04 229.412 101.667 225.576C101.472 225.406 101.278 225.237 101.078 225.062C100.514 224.562 99.9584 224.055 99.4064 223.542C99.2561 223.404 99.1057 223.266 98.9508 223.123C91.193 215.712 86.9686 204.183 86.6832 193.601C86.6652 192.6 86.6617 191.599 86.6639 190.598C86.664 190.386 86.6641 190.174 86.6642 189.956C86.6824 183.11 87.4802 175.516 90.5912 169.294C90.3097 169.367 90.0282 169.44 89.7382 169.515C85.2104 170.515 80.5155 169.647 76.5557 167.311C72.7686 164.871 70.5697 160.896 69.5631 156.592C67.3815 146.234 71.8647 134.811 77.4081 126.239C77.9439 125.435 78.497 124.645 79.0635 123.862C79.1593 123.729 79.255 123.597 79.3536 123.46C82.3198 119.397 85.738 115.678 89.687 112.56C90.0922 112.221 90.4972 111.882 90.902 111.543C93.2766 109.606 95.8418 107.969 98.5023 106.457C98.6649 106.365 98.8274 106.272 98.995 106.177C103.192 103.819 107.621 102.187 112.29 101.033C112.451 100.992 112.611 100.951 112.777 100.91C115.191 100.328 117.618 100.291 120.088 100.284C120.245 100.283 120.401 100.282 120.563 100.281C124.164 100.271 128.005 100.808 130.825 103.293C130.825 103.442 130.825 103.591 130.825 103.745C131.043 103.646 131.261 103.547 131.486 103.445C139.287 99.9938 147.525 97.7316 155.914 96.2859C156.128 96.2486 156.343 96.2113 156.563 96.173C169.477 94.0092 183.269 94.2895 196.148 96.5119ZM159.531 101.485C159.173 101.527 159.173 101.527 158.808 101.57C151.13 102.484 143.69 104.363 136.476 107.135C136.27 107.214 136.064 107.292 135.851 107.373C135.327 107.575 134.806 107.783 134.286 107.997C134.01 108.11 133.734 108.224 133.45 108.341C132.823 108.659 132.823 108.659 132.654 109.239C132.631 109.917 132.646 110.583 132.675 111.26C132.746 115.264 131.765 119.373 130.599 123.184C130.531 123.405 130.463 123.627 130.393 123.856C127.004 134.764 122.068 146.085 114.147 154.519C113.718 154.978 113.314 155.447 112.912 155.93C109.501 159.814 104.417 164.313 99.4594 165.988C98.2646 166.403 97.5739 166.701 96.9042 167.806C96.5247 168.667 96.2445 169.554 95.9795 170.457C95.7726 171.161 95.5495 171.86 95.3255 172.559C94.4149 175.457 93.6428 178.361 93.1702 181.364C93.1042 181.782 93.0326 182.2 92.957 182.617C92.5778 184.888 92.5489 187.13 92.5541 189.428C92.5548 190.082 92.5495 190.736 92.5438 191.39C92.5306 195.223 92.8347 199.092 93.911 202.789C93.9683 202.992 94.0256 203.194 94.0846 203.403C97.0085 213.351 103.623 221.236 112.669 226.199C117.598 228.834 122.762 230.806 128.276 231.789C128.477 231.825 128.678 231.861 128.885 231.899C129.067 231.93 129.249 231.961 129.436 231.992C130.185 232.207 130.577 232.665 131.051 233.261C131.125 233.336 131.2 233.41 131.277 233.487C131.374 234.319 131.298 234.796 130.952 235.564C130.169 236.424 129.445 236.601 128.338 236.878C119.027 239.261 111.481 247.204 106.62 255.228C104.456 258.886 102.708 262.697 103.329 267.051C103.803 268.839 105.103 270.242 106.642 271.211C110.004 272.944 114.166 273.263 117.8 272.124C119.466 271.461 121.266 270.578 122.462 269.2C122.649 268.74 122.649 268.74 122.763 268.22C122.812 268.022 122.861 267.824 122.911 267.62C122.962 267.405 123.013 267.19 123.066 266.969C123.149 266.633 123.149 266.633 123.234 266.29C123.412 265.57 123.587 264.849 123.761 264.129C124.421 261.404 125.085 258.694 125.997 256.04C126.059 255.855 126.122 255.671 126.186 255.48C126.582 254.371 126.999 253.257 128.112 252.7C129.036 252.584 129.97 252.492 130.815 252.929C131.411 253.411 131.711 253.777 131.955 254.508C132.013 255.621 131.884 256.524 131.566 257.589C131.481 257.878 131.396 258.167 131.312 258.457C131.267 258.607 131.222 258.758 131.176 258.913C130.077 262.611 129.167 266.336 128.338 270.104C128.271 270.406 128.271 270.406 128.202 270.714C126.828 276.89 126.139 283.197 125.664 289.499C125.635 289.882 125.604 290.265 125.572 290.647C125.427 292.43 125.334 294.21 125.276 295.997C125.267 296.287 125.258 296.577 125.248 296.875C125.146 300.195 125.124 303.516 125.12 306.837C125.118 307.717 125.113 308.597 125.107 309.476C125.102 310.169 125.101 310.861 125.101 311.553C125.1 311.878 125.098 312.202 125.095 312.527C125.071 315.364 125.263 318.069 127.208 320.283C129.998 322.915 133.811 323.341 137.479 323.298C137.959 323.292 138.439 323.293 138.919 323.295C142.939 323.286 147.28 322.815 150.264 319.831C152.299 317.159 152.651 314.02 152.764 310.776C152.781 310.309 152.799 309.842 152.822 309.375C152.841 308.957 152.857 308.539 152.872 308.121C152.985 307.334 153.18 306.902 153.654 306.269C155.628 304.953 159.646 306.02 161.918 306.255C166.643 306.742 171.321 306.99 176.072 306.989C176.777 306.99 177.482 306.994 178.187 306.998C182.562 307.011 186.862 306.637 191.189 306.015C191.762 305.934 192.334 305.853 192.907 305.773C193.151 305.738 193.395 305.703 193.646 305.667C195.46 305.469 195.46 305.469 196.431 305.973C197.109 306.543 197.253 306.795 197.504 307.626C197.562 308.364 197.562 308.364 197.566 309.199C197.571 309.509 197.575 309.82 197.58 310.13C197.585 310.612 197.589 311.093 197.59 311.575C197.606 314.94 197.973 318.205 200.443 320.735C203.236 323.054 207.088 323.267 210.557 323.276C211.044 323.278 211.53 323.285 212.017 323.292C215.819 323.321 219.694 322.899 222.549 320.169C224.14 318.364 224.68 316.135 224.694 313.775C224.695 313.608 224.697 313.441 224.698 313.27C224.702 312.72 224.703 312.17 224.704 311.62C224.706 311.229 224.708 310.838 224.71 310.447C224.715 309.186 224.714 307.926 224.713 306.665C224.713 306.45 224.713 306.236 224.713 306.015C224.71 298.902 224.504 291.872 223.724 284.796C223.674 284.327 223.624 283.858 223.573 283.389C222.591 274.311 221.224 265.004 218.299 256.316C218.161 255.526 218.125 254.824 218.521 254.107C219.031 253.464 219.541 252.933 220.333 252.7C221.155 252.625 221.748 252.637 222.523 252.926C223.716 253.958 224.119 255.59 224.493 257.075C224.539 257.25 224.585 257.426 224.632 257.606C224.729 257.978 224.824 258.351 224.919 258.723C225.068 259.303 225.219 259.883 225.37 260.462C225.848 262.295 226.296 264.127 226.679 265.982C227.147 268.27 227.147 268.27 228.647 270.008C228.813 270.114 228.978 270.221 229.149 270.33C229.319 270.453 229.489 270.576 229.664 270.702C232.654 272.697 236.292 273.12 239.782 272.434C242.251 271.793 244.435 270.69 245.875 268.522C247.013 266.384 246.745 263.933 246.101 261.685C243.193 252.265 235.685 243.713 227.148 238.941C225.244 237.939 223.314 237.495 221.192 237.223C220.324 237.059 219.859 236.782 219.203 236.2C218.838 235.47 218.845 234.728 218.977 233.939C219.898 232.655 221.057 232.468 222.553 232.206C222.702 232.183 222.851 232.16 223.005 232.136C225.174 231.8 227.204 231.218 229.276 230.506C229.438 230.451 229.601 230.396 229.768 230.34C232.154 229.531 234.419 228.638 236.608 227.384C236.914 227.22 237.221 227.056 237.529 226.893C246.38 222.138 253.045 213.95 255.942 204.339C256.224 203.361 256.483 202.379 256.725 201.391C256.762 201.25 256.8 201.109 256.839 200.965C257.669 197.646 257.721 194.168 257.713 190.767C257.713 190.465 257.713 190.465 257.713 190.157C257.705 186.744 257.448 183.488 256.725 180.144C256.686 179.955 256.647 179.766 256.607 179.572C255.843 175.913 254.575 172.362 253.334 168.842C253.281 168.67 253.227 168.499 253.173 168.322C252.893 167.508 252.646 167.253 251.91 166.781C251.61 166.644 251.307 166.512 251.003 166.384C250.674 166.232 250.345 166.078 250.017 165.923C249.77 165.807 249.77 165.807 249.517 165.688C246.9 164.394 244.546 162.498 242.259 160.705C242.133 160.607 242.008 160.508 241.878 160.407C238.452 157.687 235.329 154.531 232.765 150.986C232.655 150.836 232.545 150.686 232.432 150.531C224.374 139.517 216.497 123.149 217.395 109.17C205.091 102.433 190.058 100.66 176.233 100.718C175.312 100.722 174.39 100.72 173.469 100.716C168.78 100.699 164.188 100.925 159.531 101.485Z" fill="black"/>
<path d="M246.453 110.583C253.283 114.075 259.979 119.327 264.635 125.444C264.755 125.6 264.874 125.755 264.997 125.916C266.765 128.236 268.424 130.574 269.834 133.129C269.938 133.315 270.043 133.502 270.15 133.693C273.463 139.657 275.799 145.744 275.824 152.624C275.826 153.064 275.826 153.064 275.829 153.512C275.785 156.716 275.058 159.439 272.846 161.81C269.913 164.472 266.092 164.533 262.349 164.367C253.428 163.74 245.052 156.754 239.4 150.337C238.654 149.453 237.96 148.534 237.286 147.595C237.183 147.452 237.08 147.309 236.973 147.162C233.26 141.966 230.303 136.392 228.048 130.416C227.807 129.778 227.561 129.142 227.314 128.507C225.625 124.093 224.292 119.482 223.498 114.82C223.452 114.6 223.406 114.379 223.359 114.152C223.092 112.796 222.994 111.467 222.975 110.088C222.971 109.925 222.967 109.761 222.963 109.593C222.964 108.579 223.097 107.938 223.724 107.135C229.378 102.894 240.989 107.909 246.453 110.583Z" fill="#7D5232"/>
<path d="M119.89 105.949C120.317 105.946 120.317 105.946 120.752 105.943C124.925 105.952 124.925 105.952 126.53 107.361C126.995 108.43 127.061 109.447 127.053 110.596C127.051 110.864 127.051 110.864 127.049 111.137C126.893 119.161 123.36 127.73 119.996 134.862C119.75 135.388 119.511 135.917 119.273 136.447C115.516 144.735 109.904 152.318 102.571 157.766C102.349 157.935 102.128 158.104 101.9 158.279C98.4329 160.815 94.5017 162.729 90.3651 163.869C90.1611 163.929 89.9572 163.988 89.747 164.049C87.2052 164.681 84.2174 164.591 81.7759 163.643C81.4918 163.536 81.4918 163.536 81.202 163.426C78.5287 162.259 76.7439 159.979 75.673 157.314C75.0742 155.44 74.8849 153.681 74.9101 151.72C74.9131 151.334 74.9131 151.334 74.9161 150.941C74.9512 148.917 75.1848 147.072 75.673 145.109C75.7333 144.826 75.7936 144.544 75.8558 144.253C77.4392 137.035 81.2334 130.249 85.8444 124.54C86.063 124.252 86.063 124.252 86.2859 123.959C89.0292 120.427 92.3679 117.388 96.0159 114.82C96.1531 114.722 96.2903 114.623 96.4316 114.522C101.694 110.761 107.768 107.856 114.098 106.457C114.28 106.416 114.462 106.374 114.649 106.331C116.399 105.968 118.108 105.938 119.89 105.949Z" fill="#7D5232"/>
<path d="M181.004 247.049C181.209 247.128 181.415 247.207 181.626 247.288C186.748 249.532 189.826 255.001 191.853 259.932C192.854 262.508 193.41 265.13 193.888 267.844C193.927 268.055 193.967 268.266 194.008 268.484C194.619 272.621 194.389 277.244 192.984 281.179C192.894 281.439 192.805 281.699 192.712 281.967C191.086 286.225 188.002 289.526 183.888 291.447C178.454 293.826 171.473 293.57 166.024 291.456C161.809 289.728 158.866 286.918 156.897 282.822C153.858 275.457 155.155 266.899 158.132 259.735C159.369 256.876 160.814 254.111 162.921 251.795C163.019 251.687 163.116 251.579 163.217 251.467C167.912 246.315 174.48 244.414 181.004 247.049Z" fill="#FFBB4D"/>
<path d="M188.612 244.871C191.394 247.219 193.451 249.986 195.244 253.152C195.318 253.282 195.392 253.411 195.468 253.545C197.739 257.604 199.052 262.136 199.765 266.714C199.804 266.962 199.804 266.962 199.844 267.215C200.975 274.663 199.933 282.837 195.523 289.118C191.249 294.625 185.874 297.241 179.12 298.498C171.208 299.317 163.36 297.737 157.055 292.747C152.592 289.097 150.163 283.688 149.586 278.015C149.504 276.749 149.497 275.483 149.501 274.215C149.501 274.043 149.501 273.871 149.501 273.694C149.517 268.93 150.275 264.435 151.846 259.933C151.897 259.786 151.947 259.638 151.999 259.487C153.686 254.687 156.279 250.514 159.757 246.823C159.884 246.684 160.011 246.545 160.141 246.402C167.718 238.404 180.21 237.968 188.612 244.871ZM164.956 249.761C164.742 249.954 164.529 250.146 164.309 250.345C160.315 254.076 158.121 259.059 156.593 264.227C156.524 264.455 156.455 264.683 156.383 264.918C154.687 271.059 154.468 278.206 157.448 283.998C160.035 288.4 163.633 290.778 168.43 292.279C170.548 292.801 172.596 293.009 174.774 292.99C175.022 292.988 175.271 292.986 175.526 292.985C180.742 292.915 185.418 291.546 189.141 287.734C191.755 284.977 192.958 281.643 193.787 278.003C193.853 277.717 193.927 277.432 194.01 277.151C195.621 269.492 192.822 260.561 188.915 254.056C188.359 253.254 187.755 252.524 187.107 251.795C186.895 251.536 186.895 251.536 186.68 251.271C184.358 248.486 180.994 246.475 177.388 245.919C172.734 245.498 168.473 246.583 164.956 249.761Z" fill="black"/>
<path d="M140.537 170.169C142.85 171.258 144.03 172.921 144.895 175.256C145.357 177.489 145.001 179.359 143.862 181.341C143.092 182.46 142.191 183.13 140.996 183.76C141.357 184.546 141.826 185.216 142.324 185.922C143.912 188.278 144.427 190.515 144.429 193.31C144.432 193.514 144.435 193.718 144.437 193.929C144.445 197.285 143.142 200.325 140.77 202.747C140.621 202.747 140.472 202.747 140.318 202.747C140.243 202.971 140.169 203.194 140.092 203.425C139.102 204.445 137.77 205.087 136.518 205.728C136.301 205.84 136.301 205.84 136.08 205.956C133.792 207.091 131.596 207.388 129.059 207.366C128.639 207.364 128.639 207.364 128.211 207.362C126.22 207.327 124.537 207.142 122.688 206.363C122.373 206.248 122.373 206.248 122.052 206.131C118.539 204.729 116.053 202.074 114.398 198.735C113.674 196.959 113.293 195.344 113.307 193.423C113.309 193.217 113.31 193.01 113.311 192.798C113.41 189.03 115.262 186.011 117.933 183.439C119.055 182.486 120.268 181.758 121.557 181.048C121.72 180.953 121.883 180.858 122.05 180.76C124.392 179.468 127.166 179.198 129.793 179.225C129.98 179.226 130.167 179.227 130.36 179.228C130.816 179.231 131.273 179.235 131.729 179.239C131.718 178.969 131.708 178.699 131.697 178.421C131.62 175.644 131.829 173.84 133.776 171.734C135.694 169.963 138.008 169.427 140.537 170.169Z" fill="#F4A99C"/>
<path d="M213.864 170.439C215.745 171.53 216.82 172.933 217.621 174.945C218.034 176.502 217.905 178.123 217.621 179.692C217.852 179.688 217.852 179.688 218.087 179.685C218.794 179.675 219.5 179.669 220.207 179.663C220.448 179.66 220.69 179.656 220.939 179.652C225.258 179.626 229.341 181.386 232.482 184.35C235.02 187.042 236.28 190.216 236.251 193.915C236.118 197.628 234.428 200.619 231.861 203.199C231.728 203.341 231.594 203.482 231.456 203.628C228.592 206.423 224.269 207.641 220.364 207.601C218.537 207.534 216.868 207.152 215.135 206.59C214.781 206.478 214.781 206.478 214.419 206.365C210.559 204.968 207.973 201.92 206.194 198.338C205.521 196.71 205.333 195.266 205.345 193.522C205.346 193.322 205.348 193.123 205.349 192.917C205.412 189.497 206.846 186.739 208.806 183.986C208.642 183.899 208.642 183.899 208.474 183.811C206.826 182.869 205.177 181.451 204.602 179.576C204.201 177.091 204.346 174.793 205.733 172.646C207.666 170.13 210.933 169.107 213.864 170.439Z" fill="#F4A99C"/>
<path d="M258.532 241.398C261.347 243.768 263.25 246.563 264.635 249.988C264.7 250.141 264.764 250.294 264.83 250.451C266.968 256.096 266.559 263.474 264.183 268.974C260.377 277.243 253.346 283.459 244.863 286.697C240.004 288.453 234.989 289.278 229.826 289.091C229.484 287.887 229.42 286.634 229.294 285.393C229.247 284.941 229.2 284.489 229.152 284.037C229.123 283.75 229.093 283.463 229.063 283.167C229.022 282.774 229.022 282.774 228.981 282.373C228.925 281.67 228.912 280.981 228.922 280.276C229.106 280.21 229.289 280.144 229.478 280.076C230.728 279.613 231.839 279.176 232.934 278.411C234.466 277.523 236.136 277.677 237.855 277.651C239.979 277.605 241.653 277.258 243.614 276.433C243.887 276.321 244.16 276.21 244.442 276.094C247.762 274.592 250.013 272.285 251.356 268.89C251.658 268.027 251.802 267.24 251.893 266.333C252.102 264.875 252.776 263.879 253.569 262.675C257.722 256.363 258.29 248.753 258.532 241.398Z" fill="#7D5232"/>
<path d="M184.253 178.279C185.367 179.174 186.204 180.373 186.655 181.726C186.796 183.521 186.329 184.762 185.214 186.148C183.523 187.945 181.155 188.988 178.744 189.411C178.445 189.411 178.147 189.411 177.84 189.411C177.845 190.429 177.862 191.445 177.882 192.463C177.883 192.749 177.885 193.036 177.886 193.331C177.926 195.016 178.031 196.272 179.196 197.548C180.55 198.813 182.386 198.85 184.144 198.826C186.89 198.691 188.586 197.359 190.413 195.443C190.768 195.041 191.112 194.629 191.444 194.208C191.88 193.674 192.07 193.508 192.747 193.426C194.004 193.385 194.704 193.537 195.696 194.384C196.315 195.312 196.308 196.007 196.148 197.096C195.183 199.993 192.181 202.097 189.593 203.425C188.776 203.772 187.955 204.068 187.107 204.329C186.883 204.404 186.659 204.478 186.429 204.555C182.284 204.861 178.953 204.796 175.607 202.149C175.095 201.762 175.095 201.762 174.223 201.843C173.709 202.158 173.709 202.158 173.192 202.578C172.022 203.435 170.854 203.903 169.477 204.329C169.141 204.441 169.141 204.441 168.798 204.555C164.306 204.934 160.602 204.546 157.045 201.617C156.781 201.408 156.781 201.408 156.511 201.194C154.944 199.887 153.331 198.235 153.132 196.121C153.215 195.134 153.487 194.693 154.106 193.932C155.117 193.258 156.087 193.317 157.271 193.48C157.864 193.904 157.864 193.904 158.401 194.61C160.003 196.547 161.85 198.427 164.487 198.728C164.969 198.755 165.448 198.764 165.931 198.763C166.1 198.763 166.27 198.763 166.445 198.763C167.776 198.736 168.784 198.47 169.929 197.774C170.089 197.702 170.25 197.629 170.416 197.554C171.009 197.224 171.08 196.821 171.285 196.192C171.359 196.043 171.434 195.894 171.511 195.74C171.546 195.265 171.567 194.788 171.582 194.311C171.592 194.027 171.601 193.743 171.611 193.451C171.62 193.153 171.629 192.854 171.638 192.547C171.648 192.245 171.658 191.942 171.668 191.639C171.692 190.896 171.715 190.154 171.737 189.411C171.389 189.37 171.389 189.37 171.034 189.327C168.484 188.915 165.956 187.717 164.282 185.71C163.346 184.357 162.94 183.17 163.148 181.5C163.665 179.695 165.085 178.525 166.618 177.543C168.093 176.74 169.643 176.384 171.285 176.075C171.491 176.033 171.697 175.991 171.91 175.948C176.096 175.382 180.696 175.847 184.253 178.279Z" fill="black"/>
<path d="M213.864 170.438C215.745 171.53 216.82 172.933 217.621 174.945C217.805 175.637 217.805 175.637 217.847 176.301C217.864 176.443 217.881 176.585 217.898 176.732C218.028 178.578 217.317 180.565 216.223 182.05C214.411 183.701 212.734 184.311 210.309 184.289C208.526 184.123 207.174 183.223 205.974 181.93C204.458 179.967 204.298 177.79 204.511 175.397C204.924 173.488 206.001 172.012 207.6 170.915C209.634 169.767 211.693 169.451 213.864 170.438Z" fill="black"/>
<path d="M140.537 170.169C142.85 171.258 144.03 172.921 144.895 175.256C145.359 177.497 144.984 179.332 143.878 181.333C142.978 182.676 141.644 183.631 140.101 184.129C137.85 184.535 136.111 184.13 134.215 182.856C132.964 181.779 132.034 180.19 131.729 178.562C131.548 176.017 131.731 174.195 133.367 172.176C135.298 170.088 137.774 169.359 140.537 170.169Z" fill="black"/>
<path d="M143.641 144.7C144.425 145.266 144.796 145.97 145.193 146.825C145.269 146.986 145.269 146.986 145.347 147.15C145.511 147.499 145.675 147.849 145.838 148.199C145.952 148.443 146.067 148.686 146.181 148.93C146.994 150.664 147.786 152.407 148.56 154.159C148.674 154.389 148.674 154.389 148.79 154.625C149.002 155.087 149.095 155.536 149.191 156.035C149.442 157.063 149.745 157.9 150.577 158.591C152.411 159.449 154.721 159.464 156.705 159.643C157.628 159.73 158.548 159.838 159.469 159.944C160.185 160.026 160.901 160.104 161.619 160.172C161.817 160.192 161.817 160.192 162.019 160.212C162.263 160.237 162.508 160.259 162.752 160.28C163.724 160.38 164.59 160.661 165.245 161.419C165.669 162.019 165.869 162.409 165.88 163.151C165.884 163.277 165.888 163.403 165.892 163.533C165.69 164.871 164.744 165.687 163.821 166.589C163.678 166.73 163.536 166.871 163.394 167.013C163.02 167.384 162.645 167.753 162.27 168.122C161.671 168.711 161.074 169.304 160.477 169.896C160.27 170.1 160.062 170.304 159.855 170.508C159.207 171.147 158.578 171.791 157.99 172.485C157.618 172.916 157.218 173.317 156.817 173.72C156.736 173.802 156.655 173.885 156.572 173.97C156.368 174.175 156.156 174.372 155.943 174.568C155.85 174.568 155.756 174.568 155.66 174.568C155.976 176.866 156.341 179.154 156.719 181.443C156.908 182.587 157.096 183.73 157.283 184.874C157.351 185.287 157.42 185.7 157.489 186.114C157.528 186.352 157.567 186.59 157.606 186.828C157.624 186.932 157.642 187.035 157.66 187.142C157.851 188.318 157.899 189.376 157.214 190.403C156.442 191.133 155.785 191.484 154.719 191.465C153.718 191.312 152.861 190.751 151.989 190.262C151.706 190.106 151.423 189.95 151.14 189.794C150.496 189.438 149.853 189.08 149.211 188.72C148.503 188.322 147.792 187.928 147.08 187.536C146.989 187.486 146.898 187.436 146.805 187.384C146.451 187.189 146.096 186.994 145.742 186.799C145.497 186.665 145.253 186.53 145.009 186.396C144.854 186.311 144.7 186.227 144.541 186.14C144.228 185.962 143.919 185.776 143.616 185.583C143.468 185.49 143.32 185.396 143.168 185.3C143.038 185.215 142.907 185.129 142.773 185.041C142.389 184.849 142.389 184.849 141.969 184.977C141.528 185.177 141.104 185.39 140.681 185.625C140.6 185.669 140.52 185.714 140.437 185.759C140.175 185.905 139.913 186.051 139.652 186.197C139.467 186.299 139.283 186.402 139.099 186.504C137.826 187.213 136.564 187.942 135.308 188.681C134.249 189.303 133.184 189.915 132.115 190.518C131.964 190.604 131.814 190.689 131.659 190.778C131.519 190.856 131.379 190.935 131.234 191.016C131.111 191.085 130.988 191.155 130.861 191.227C130.169 191.571 129.452 191.645 128.691 191.534C127.894 191.204 127.351 190.671 126.855 189.979C126.369 188.518 126.825 186.786 127.075 185.302C127.112 185.073 127.149 184.844 127.186 184.614C127.284 184.014 127.383 183.415 127.483 182.815C127.642 181.858 127.798 180.901 127.954 179.944C128.008 179.614 128.063 179.284 128.118 178.955C128.203 178.444 128.282 177.933 128.36 177.421C128.393 177.209 128.428 176.998 128.465 176.786C128.521 176.462 128.572 176.138 128.622 175.812C128.64 175.715 128.658 175.618 128.677 175.517C128.734 175.118 128.747 174.806 128.541 174.451C128.226 174.063 127.878 173.747 127.487 173.437C127.372 173.344 127.256 173.25 127.137 173.154C127.137 173.061 127.137 172.968 127.137 172.871C127.044 172.871 126.951 172.871 126.855 172.871C126.654 172.667 126.654 172.667 126.418 172.382C125.864 171.729 125.27 171.127 124.662 170.525C124.494 170.358 124.494 170.358 124.322 170.186C123.966 169.832 123.61 169.478 123.254 169.125C122.785 168.658 122.316 168.191 121.847 167.724C121.741 167.619 121.635 167.514 121.525 167.406C120.871 166.754 120.254 166.08 119.654 165.378C119.551 165.263 119.551 165.263 119.447 165.145C118.84 164.45 118.602 163.918 118.63 162.981C118.735 162.118 119.195 161.455 119.795 160.854C120.494 160.503 121.148 160.338 121.924 160.237C122.035 160.222 122.145 160.206 122.26 160.19C122.5 160.157 122.741 160.124 122.982 160.092C123.367 160.04 123.752 159.984 124.137 159.928C125.48 159.734 126.821 159.565 128.172 159.442C128.827 159.381 129.481 159.311 130.134 159.24C130.453 159.208 130.771 159.181 131.09 159.158C132.748 159.101 132.748 159.101 134.149 158.349C134.545 157.738 134.75 157.073 134.945 156.376C135.094 155.884 135.314 155.436 135.541 154.976C135.623 154.803 135.704 154.63 135.785 154.457C135.825 154.37 135.866 154.284 135.908 154.195C136.271 153.416 136.628 152.634 136.985 151.852C137.081 151.64 137.178 151.429 137.275 151.217C137.781 150.115 138.283 149.012 138.755 147.895C138.824 147.733 138.892 147.571 138.963 147.404C139.089 147.107 139.212 146.809 139.334 146.51C139.766 145.487 140.184 145.03 141.152 144.47C142.015 144.211 142.837 144.277 143.641 144.7Z" fill="#010100"/>
<path d="M142.054 151.78C142.514 152.011 142.623 152.533 142.819 152.99C142.929 153.24 143.04 153.491 143.15 153.742C143.214 153.887 143.278 154.032 143.344 154.182C143.754 155.101 144.173 156.015 144.592 156.929C144.79 157.363 144.988 157.796 145.186 158.229C145.283 158.439 145.379 158.649 145.476 158.858C145.721 159.386 145.959 159.916 146.186 160.453C146.232 160.559 146.278 160.665 146.326 160.775C146.413 160.975 146.497 161.176 146.579 161.378C146.911 162.129 147.36 162.507 148.109 162.836C148.489 162.952 148.864 163.009 149.258 163.055C149.369 163.071 149.48 163.086 149.594 163.102C149.838 163.136 150.083 163.168 150.327 163.2C150.746 163.254 151.164 163.312 151.582 163.371C152.505 163.501 153.429 163.627 154.353 163.752C154.829 163.817 155.305 163.881 155.781 163.946C156.074 163.986 156.367 164.026 156.661 164.066C156.793 164.084 156.925 164.102 157.061 164.12C157.176 164.136 157.291 164.152 157.41 164.168C157.753 164.22 158.091 164.286 158.43 164.356C157.769 165.163 157.046 165.897 156.306 166.629C156.089 166.845 155.872 167.06 155.655 167.276C155.04 167.89 154.424 168.503 153.807 169.114C153.427 169.49 153.049 169.866 152.671 170.244C152.528 170.386 152.384 170.529 152.24 170.671C152.039 170.87 151.839 171.069 151.639 171.27C151.525 171.383 151.411 171.496 151.293 171.612C150.542 172.492 150.487 173.28 150.557 174.398C150.669 175.654 150.902 176.899 151.11 178.142C151.16 178.445 151.21 178.748 151.259 179.051C151.378 179.776 151.498 180.501 151.619 181.226C151.704 181.737 151.789 182.248 151.874 182.759C151.949 183.212 152.024 183.666 152.099 184.119C151.597 183.961 151.142 183.792 150.687 183.526C150.577 183.463 150.468 183.399 150.355 183.334C150.238 183.265 150.121 183.197 150.001 183.126C149.877 183.054 149.753 182.982 149.625 182.908C149.355 182.751 149.086 182.594 148.816 182.437C148.364 182.173 147.91 181.91 147.457 181.648C146.854 181.299 146.251 180.95 145.648 180.601C145.51 180.521 145.372 180.441 145.23 180.358C144.935 180.186 144.64 180.013 144.347 179.839C144.199 179.752 144.051 179.664 143.899 179.574C143.766 179.495 143.633 179.416 143.496 179.334C142.843 178.97 142.234 178.87 141.503 179.006C140.889 179.269 140.319 179.595 139.743 179.933C139.427 180.119 139.108 180.3 138.789 180.481C137.802 181.042 136.819 181.612 135.839 182.184C135.513 182.374 135.188 182.563 134.862 182.753C134.627 182.89 134.392 183.028 134.157 183.166C133.941 183.292 133.941 183.292 133.72 183.421C133.592 183.495 133.464 183.57 133.332 183.647C132.989 183.833 132.648 183.982 132.283 184.119C132.354 183.618 132.426 183.117 132.498 182.616C132.522 182.455 132.545 182.293 132.569 182.127C132.728 181.051 132.901 179.978 133.085 178.906C133.107 178.778 133.128 178.65 133.151 178.519C133.26 177.88 133.37 177.242 133.482 176.604C133.984 174.304 133.984 174.304 133.462 172.101C132.962 171.446 132.36 170.885 131.767 170.316C131.501 170.058 131.235 169.799 130.97 169.54C130.793 169.37 130.793 169.37 130.613 169.197C130.357 168.917 130.357 168.917 130.357 168.641C130.269 168.604 130.181 168.567 130.09 168.528C129.806 168.364 129.806 168.364 129.669 167.95C129.578 167.95 129.487 167.95 129.394 167.95C129.199 167.751 129.199 167.751 128.972 167.474C128.415 166.816 127.813 166.214 127.2 165.609C126.989 165.401 126.779 165.192 126.569 164.983C126.431 164.847 126.431 164.847 126.29 164.708C126.091 164.495 126.091 164.495 126.091 164.356C126.721 164.255 127.352 164.154 127.983 164.054C128.08 164.039 128.176 164.023 128.276 164.008C129.464 163.819 130.654 163.641 131.846 163.48C132.013 163.458 132.013 163.458 132.182 163.435C132.722 163.362 133.261 163.291 133.801 163.222C135.742 162.999 135.742 162.999 137.375 162.007C137.559 161.69 137.713 161.394 137.861 161.061C137.904 160.968 137.947 160.875 137.991 160.779C138.132 160.475 138.269 160.17 138.407 159.865C138.504 159.653 138.601 159.442 138.699 159.23C138.897 158.799 139.094 158.368 139.29 157.937C139.555 157.355 139.824 156.775 140.094 156.195C140.252 155.858 140.409 155.521 140.566 155.183C140.672 154.955 140.672 154.955 140.781 154.722C141.23 153.751 141.651 152.772 142.054 151.78Z" fill="#FFBB4D"/>
<path d="M209.225 144.919C210.034 145.699 210.404 146.745 210.845 147.76C210.932 147.957 211.019 148.154 211.106 148.351C211.285 148.755 211.464 149.16 211.641 149.565C212.03 150.452 212.423 151.336 212.817 152.22C212.89 152.385 212.964 152.55 213.039 152.72C213.447 153.636 213.862 154.548 214.286 155.456C214.355 155.604 214.355 155.604 214.425 155.754C214.648 156.232 214.872 156.709 215.097 157.186C215.177 157.357 215.257 157.529 215.338 157.7C215.444 157.925 215.444 157.925 215.553 158.155C215.705 158.512 215.705 158.512 215.705 158.796C215.839 158.802 215.972 158.809 216.11 158.816C217.565 158.895 219.001 159.05 220.445 159.241C220.675 159.271 220.906 159.301 221.137 159.331C221.615 159.394 222.094 159.458 222.572 159.522C223.182 159.603 223.793 159.682 224.403 159.76C224.878 159.821 225.352 159.884 225.826 159.948C226.051 159.978 226.276 160.007 226.501 160.035C229.495 160.416 229.495 160.416 230.495 161.627C230.966 162.355 231.155 162.875 231.058 163.751C230.75 165.115 229.579 166.019 228.619 166.946C228.362 167.198 228.104 167.451 227.847 167.704C227.688 167.86 227.529 168.015 227.369 168.17C226.963 168.566 226.581 168.971 226.214 169.403C225.697 170.004 225.134 170.543 224.557 171.086C224.341 171.293 224.125 171.501 223.91 171.709C223.575 172.033 223.238 172.355 222.898 172.673C221.617 173.784 221.617 173.784 220.784 175.214C220.813 175.671 220.927 176.056 221.057 176.495C221.122 176.854 221.176 177.215 221.231 177.576C221.294 177.993 221.364 178.408 221.435 178.824C221.589 179.727 221.74 180.631 221.891 181.535C221.917 181.685 221.942 181.836 221.968 181.991C222.171 183.209 222.372 184.427 222.561 185.648C222.605 185.927 222.65 186.206 222.695 186.486C223.146 189.437 223.146 189.437 222.598 190.451C222.096 191.111 221.605 191.435 220.797 191.572C219.455 191.659 218.517 191.166 217.395 190.513C217.155 190.377 216.914 190.242 216.674 190.107C216.124 189.797 215.576 189.486 215.03 189.172C214.002 188.583 212.97 188.003 211.935 187.426C211.211 187.02 210.493 186.608 209.784 186.177C209.582 186.056 209.582 186.056 209.377 185.933C209.124 185.781 208.873 185.626 208.623 185.469C208.51 185.402 208.398 185.334 208.282 185.265C208.185 185.205 208.088 185.145 207.987 185.083C207.305 184.881 206.631 185.36 206.041 185.68C205.892 185.761 205.743 185.841 205.59 185.924C205.433 186.01 205.276 186.097 205.114 186.185C204.952 186.274 204.789 186.362 204.622 186.453C203.419 187.11 202.232 187.791 201.051 188.486C200.499 188.811 199.941 189.122 199.378 189.426C199 189.632 198.624 189.841 198.248 190.05C198.122 190.12 197.996 190.19 197.867 190.263C197.614 190.403 197.362 190.544 197.11 190.685C196.993 190.75 196.877 190.815 196.756 190.882C196.652 190.941 196.547 190.999 196.44 191.059C195.535 191.525 194.693 191.702 193.696 191.411C192.979 191.093 192.552 190.635 192.182 189.946C191.666 188.392 192.217 186.476 192.472 184.902C192.516 184.622 192.561 184.343 192.605 184.063C192.833 182.619 193.072 181.177 193.317 179.735C193.34 179.598 193.363 179.462 193.387 179.321C193.498 178.666 193.61 178.011 193.725 177.357C193.765 177.122 193.805 176.886 193.846 176.65C193.865 176.544 193.884 176.437 193.904 176.328C193.998 175.77 194.033 175.338 193.872 174.796C193.647 174.47 193.647 174.47 193.346 174.161C193.23 174.037 193.115 173.913 192.997 173.786C192.338 173.104 191.672 172.43 191.001 171.761C190.738 171.5 190.476 171.238 190.213 170.975C189.469 170.231 188.724 169.487 187.979 168.743C187.52 168.286 187.062 167.828 186.604 167.37C186.431 167.196 186.257 167.023 186.083 166.85C185.84 166.609 185.598 166.366 185.356 166.124C185.285 166.054 185.214 165.983 185.141 165.911C184.399 165.163 183.863 164.455 183.818 163.38C183.829 162.577 184.059 161.959 184.575 161.344C185.223 160.782 185.773 160.534 186.632 160.405C186.734 160.389 186.837 160.373 186.943 160.357C187.28 160.305 187.618 160.258 187.956 160.212C188.072 160.195 188.188 160.179 188.308 160.162C189.062 160.055 189.817 159.956 190.572 159.858C190.986 159.803 191.399 159.745 191.812 159.686C193.112 159.503 194.396 159.344 195.708 159.289C197.725 159.239 197.725 159.239 199.428 158.31C199.999 157.463 200.328 156.529 200.63 155.559C200.947 154.544 201.39 153.599 201.842 152.639C202.07 152.151 202.291 151.659 202.512 151.167C202.555 151.071 202.598 150.975 202.643 150.876C202.937 150.223 203.226 149.567 203.512 148.911C203.551 148.823 203.589 148.735 203.629 148.645C203.808 148.235 203.986 147.826 204.162 147.415C205.193 145.05 205.193 145.05 206.408 144.495C207.38 144.128 208.381 144.359 209.225 144.919Z" fill="#010100"/>
<path d="M207.451 151.407C207.926 151.797 208.131 152.326 208.377 152.874C208.425 152.979 208.473 153.083 208.522 153.191C208.678 153.534 208.833 153.877 208.988 154.221C209.096 154.457 209.204 154.694 209.311 154.931C209.827 156.067 210.334 157.206 210.826 158.353C210.868 158.451 210.909 158.548 210.953 158.649C211.148 159.106 211.343 159.565 211.535 160.024C212.111 161.571 212.111 161.571 213.359 162.525C214.004 162.731 214.675 162.807 215.344 162.9C215.506 162.924 215.667 162.947 215.834 162.972C216.35 163.047 216.867 163.12 217.383 163.193C217.892 163.266 218.401 163.34 218.91 163.414C219.241 163.461 219.571 163.509 219.902 163.557C221.268 163.753 222.631 163.965 223.993 164.187C223.462 164.825 222.914 165.432 222.323 166.015C222.249 166.089 222.174 166.164 222.096 166.241C221.781 166.555 221.465 166.869 221.148 167.183C220.353 167.972 219.568 168.758 218.843 169.613C218.372 170.15 217.849 170.636 217.333 171.129C216.521 171.925 216.105 172.687 216.058 173.84C216.062 174.552 216.19 175.245 216.308 175.945C216.332 176.092 216.356 176.239 216.381 176.391C216.458 176.861 216.536 177.331 216.614 177.801C216.665 178.111 216.716 178.421 216.767 178.732C217.044 180.42 217.044 180.42 217.338 182.105C217.358 182.215 217.378 182.326 217.399 182.441C217.451 182.731 217.505 183.021 217.559 183.31C217.62 183.715 217.646 184.084 217.631 184.492C217.151 184.309 216.708 184.101 216.262 183.847C216.135 183.775 216.008 183.702 215.877 183.628C215.742 183.55 215.606 183.472 215.466 183.392C215.323 183.311 215.181 183.23 215.035 183.146C213.708 182.388 212.389 181.616 211.072 180.841C210.943 180.766 210.814 180.69 210.682 180.613C210.394 180.443 210.107 180.272 209.821 180.1C209.671 180.01 209.52 179.92 209.365 179.828C209.229 179.745 209.092 179.663 208.952 179.579C208.291 179.225 207.629 179.137 206.885 179.238C206.449 179.395 206.058 179.613 205.657 179.842C205.541 179.906 205.424 179.97 205.305 180.035C204.934 180.24 204.566 180.449 204.199 180.658C204.082 180.724 203.965 180.791 203.844 180.859C202.721 181.494 201.605 182.143 200.491 182.794C200.152 182.992 199.812 183.19 199.473 183.388C199.227 183.532 198.98 183.677 198.734 183.822C198.585 183.909 198.435 183.996 198.281 184.086C198.147 184.165 198.013 184.243 197.876 184.324C197.553 184.492 197.553 184.492 197.27 184.492C197.507 182.679 197.799 180.879 198.119 179.079C198.156 178.868 198.193 178.657 198.231 178.446C198.517 176.826 198.517 176.826 198.625 176.223C198.691 175.853 198.754 175.482 198.817 175.112C198.835 175.012 198.853 174.913 198.872 174.811C199.069 173.613 198.948 172.788 198.262 171.794C197.687 171.056 197.013 170.412 196.348 169.756C196.191 169.599 196.033 169.442 195.876 169.285C195.466 168.875 195.054 168.466 194.642 168.058C193.979 167.401 193.319 166.742 192.658 166.083C192.427 165.853 192.196 165.624 191.964 165.395C191.824 165.255 191.684 165.116 191.543 164.976C191.42 164.855 191.297 164.733 191.171 164.607C190.908 164.329 190.908 164.329 190.908 164.187C191.385 164.108 191.862 164.032 192.34 163.956C192.496 163.931 192.653 163.906 192.814 163.881C193.953 163.705 195.093 163.552 196.237 163.411C196.529 163.375 196.821 163.338 197.114 163.302C197.553 163.247 197.992 163.193 198.432 163.142C198.85 163.092 199.267 163.041 199.684 162.989C199.809 162.975 199.934 162.961 200.062 162.947C200.977 162.829 201.772 162.589 202.48 161.972C203.161 161.018 203.607 159.949 204.075 158.88C204.167 158.671 204.26 158.463 204.353 158.254C204.494 157.937 204.636 157.62 204.776 157.303C205.219 156.304 205.675 155.31 206.134 154.318C206.58 153.351 207.023 152.383 207.451 151.407Z" fill="#FFBB4D"/>
<path d="M113.042 102.148C113.108 102.175 113.174 102.203 113.242 102.231C114.851 102.902 116.369 103.734 117.855 104.642C117.91 104.676 117.965 104.709 118.023 104.744C118.668 105.136 119.29 105.547 119.889 106.006C120.131 106.195 120.131 106.195 120.407 106.32C120.415 106.373 120.423 106.426 120.431 106.481C120.482 106.495 120.533 106.509 120.585 106.524C121.099 106.711 121.527 107.154 121.935 107.508C122.081 107.636 122.081 107.636 122.239 107.743C122.36 107.84 122.36 107.84 122.384 108.001C122.451 107.948 122.518 107.896 122.587 107.841C124.597 106.288 127.135 105.597 129.667 105.903C130.418 106.006 131.123 106.161 131.829 106.442C132.028 106.509 132.028 106.509 132.174 106.41C132.359 106.253 132.49 106.085 132.634 105.889C132.691 105.813 132.748 105.736 132.806 105.657C132.864 105.577 132.923 105.497 132.983 105.415C133.042 105.336 133.1 105.257 133.161 105.175C133.425 104.816 133.671 104.459 133.894 104.072C133.979 103.965 134.066 103.861 134.156 103.76C134.355 103.532 134.539 103.301 134.715 103.055C134.979 102.694 135.272 102.367 135.576 102.039C135.777 101.821 135.972 101.598 136.168 101.374C139.729 97.3895 144.851 93.7564 150.316 93.3257C152.172 93.237 154.032 93.8821 155.441 95.0845C158.299 97.7471 159.502 101.814 160.428 105.481C160.444 105.54 160.46 105.6 160.476 105.661C160.64 106.3 160.742 106.946 160.839 107.598C160.857 107.718 160.875 107.838 160.893 107.958C160.931 108.209 160.968 108.46 161.005 108.711C161.043 108.964 161.081 109.217 161.12 109.47C161.355 111.013 161.554 112.544 161.626 114.106C161.629 114.168 161.632 114.23 161.635 114.294C161.651 114.641 161.66 114.987 161.664 115.334C161.666 115.436 161.667 115.537 161.668 115.642C161.675 116.678 161.601 117.703 161.49 118.733C161.483 118.801 161.476 118.868 161.469 118.938C161.264 120.864 160.695 122.741 159.61 124.359C159.566 124.425 159.522 124.491 159.477 124.559C158.487 125.968 156.877 126.973 155.196 127.318C154.501 127.438 153.802 127.535 153.103 127.628C153.285 127.815 153.467 128.003 153.649 128.19C153.706 128.248 153.762 128.306 153.821 128.366C154.169 128.723 154.52 129.078 154.873 129.43C158.238 132.791 158.238 132.791 158.259 134.102C158.206 134.736 158.03 135.285 157.601 135.763C156.308 136.795 154.294 136.609 152.735 136.655C152.536 136.661 152.336 136.668 152.136 136.675C151.496 136.696 150.856 136.716 150.216 136.73C149.39 136.724 149.39 136.724 148.647 137.018C148.516 137.188 148.421 137.36 148.323 137.551C148.248 137.684 148.172 137.817 148.096 137.949C148.012 138.099 147.929 138.25 147.847 138.401C147.374 139.269 146.877 140.124 146.363 140.968C146.332 141.019 146.301 141.07 146.269 141.122C145.029 143.167 145.029 143.167 143.951 143.502C143.243 143.651 142.639 143.495 142.012 143.144C141.683 142.894 141.46 142.547 141.225 142.21C141.189 142.158 141.152 142.106 141.114 142.052C140.705 141.459 140.321 140.852 139.941 140.24C139.902 140.178 139.864 140.116 139.824 140.053C138.117 137.309 136.502 134.516 134.951 131.682C134.737 131.29 134.521 130.899 134.304 130.508C133.575 129.189 132.869 127.861 132.177 126.523C132.119 126.411 132.119 126.411 132.06 126.297C131.951 126.086 131.842 125.875 131.734 125.665C131.685 125.57 131.685 125.57 131.635 125.473C131.513 125.234 131.411 125.034 131.371 124.766C131.292 124.791 131.213 124.816 131.131 124.842C130.837 124.925 130.557 124.978 130.255 125.021C130.152 125.037 130.048 125.052 129.942 125.067C129.834 125.083 129.726 125.098 129.618 125.113C129.508 125.129 129.398 125.145 129.288 125.161C129.021 125.2 128.753 125.238 128.485 125.276C128.477 125.323 128.469 125.369 128.461 125.417C127.397 131.457 126.153 137.502 124.458 143.4C124.388 143.643 124.32 143.888 124.253 144.132C123.971 145.135 123.695 145.973 122.755 146.528C122.19 146.815 121.524 146.847 120.921 146.674C119.987 146.289 119.233 145.516 118.495 144.847C118.437 144.795 118.38 144.743 118.32 144.689C117.743 144.165 117.176 143.629 116.613 143.09C116.518 142.999 116.423 142.908 116.327 142.817C116.238 142.732 116.15 142.647 116.061 142.562C115.943 142.449 115.821 142.338 115.7 142.228C115.6 142.125 115.6 142.125 115.499 142.019C114.838 141.68 113.803 142.14 113.125 142.325C113.017 142.354 112.909 142.383 112.8 142.412C112.346 142.533 111.892 142.656 111.437 142.779C109.226 143.379 109.226 143.379 108.274 143.523C108.181 143.538 108.181 143.538 108.086 143.552C107.392 143.644 106.789 143.508 106.208 143.123C105.605 142.609 105.377 142.006 105.306 141.228C105.251 139.997 106.166 138.695 106.71 137.639C106.747 137.566 106.785 137.493 106.823 137.418C107.351 136.385 107.896 135.362 108.441 134.338C108.382 134.346 108.323 134.354 108.262 134.361C105.505 134.708 103.406 134.544 101.129 132.856C99.2288 131.354 97.9788 128.9 97.2145 126.646C97.1492 126.454 97.0808 126.263 97.0125 126.071C94.7921 119.735 93.4291 110.793 96.3675 104.517C97.2414 102.836 98.4438 101.663 100.192 100.929C100.265 100.898 100.337 100.867 100.412 100.835C104.283 99.3916 109.37 100.611 113.042 102.148Z" fill="black"/>
<path d="M102.548 103.36C102.602 103.352 102.657 103.344 102.713 103.336C108.624 102.477 114.304 105.354 118.925 108.794C119.296 109.072 119.654 109.361 119.999 109.67C120.071 109.734 120.071 109.734 120.144 109.798C120.254 109.896 120.364 109.995 120.473 110.093C120.387 110.413 120.23 110.668 120.061 110.952C119.438 112.038 119.124 113.217 118.897 114.441C118.525 114.39 118.154 114.338 117.786 114.265C116.517 114.017 115.227 113.884 113.94 114.055C113.87 114.064 113.801 114.072 113.729 114.081C113.396 114.135 113.172 114.194 112.936 114.444C112.652 114.855 112.627 115.103 112.712 115.585C112.808 115.949 112.974 116.148 113.289 116.347C113.696 116.529 114.129 116.482 114.566 116.472C115.36 116.464 116.145 116.485 116.936 116.541C117.027 116.548 117.117 116.554 117.21 116.56C117.815 116.606 118.406 116.695 119.002 116.811C119.014 116.884 119.026 116.957 119.039 117.033C119.378 118.852 120.244 120.933 121.671 122.179C121.794 122.32 121.794 122.32 121.823 122.473C121.726 122.757 121.527 122.948 121.323 123.161C121.276 123.21 121.229 123.26 121.181 123.31C120.221 124.308 119.165 125.227 118.074 126.08C118.017 126.125 117.959 126.17 117.899 126.217C114.777 128.645 111.19 130.97 107.21 131.583C107.093 131.601 106.976 131.62 106.859 131.64C105.472 131.875 104.325 131.699 103.146 130.882C99.058 127.681 98.4979 120.845 97.9151 116.074C97.8141 115.178 97.7647 114.284 97.7623 113.382C97.7612 113.231 97.7612 113.231 97.76 113.078C97.7507 110.518 97.8805 107.501 99.2718 105.26C99.3096 105.183 99.3474 105.106 99.3864 105.027C100.157 103.893 101.262 103.549 102.548 103.36Z" fill="#F4A99C"/>
<path d="M149.641 96.3664C149.742 96.3498 149.842 96.3331 149.946 96.316C151.155 96.1315 152.122 96.281 153.126 96.9849C155.297 98.6002 156.301 101.564 157.07 104.056C157.117 104.207 157.117 104.207 157.165 104.362C157.67 106.04 157.994 107.732 158.243 109.466C158.258 109.569 158.273 109.671 158.289 109.777C158.88 113.848 159.646 119.236 157.255 122.898C156.392 123.993 155.358 124.447 154.007 124.64C153.951 124.648 153.895 124.656 153.838 124.665C150.059 125.206 146.182 124.272 142.628 123.012C142.549 122.984 142.471 122.957 142.389 122.928C138.12 121.395 138.12 121.395 136.92 120.334C136.859 120.167 136.859 120.167 136.948 119.904C136.999 119.801 137.05 119.698 137.103 119.596C137.157 119.484 137.21 119.372 137.263 119.261C137.289 119.205 137.316 119.149 137.343 119.092C138.034 117.58 138.114 115.875 137.954 114.245C138.39 113.958 138.828 113.701 139.301 113.48C139.365 113.45 139.429 113.42 139.495 113.389C140.522 112.919 141.597 112.551 142.665 112.185C142.735 112.161 142.805 112.136 142.876 112.112C142.936 112.091 142.997 112.071 143.059 112.05C143.297 111.949 143.424 111.815 143.567 111.603C143.71 111.246 143.675 110.897 143.573 110.532C143.378 110.173 143.184 109.987 142.81 109.823C142.559 109.811 142.322 109.849 142.074 109.891C142.004 109.902 141.933 109.914 141.86 109.926C140.437 110.18 139.099 110.808 137.849 111.52C137.572 111.67 137.572 111.67 137.331 111.706C137.298 111.646 137.298 111.646 137.264 111.585C136.614 110.419 135.938 109.315 134.915 108.438C134.769 108.301 134.769 108.301 134.652 108.072C134.706 108.064 134.759 108.056 134.813 108.048C134.828 107.998 134.842 107.947 134.857 107.895C134.929 107.695 135.018 107.55 135.141 107.376C135.184 107.315 135.227 107.254 135.271 107.192C135.339 107.096 135.339 107.096 135.408 106.998C135.501 106.866 135.594 106.734 135.687 106.601C135.754 106.506 135.754 106.506 135.822 106.409C135.966 106.201 136.104 105.989 136.24 105.775C136.433 105.475 136.646 105.207 136.881 104.939C137.038 104.758 137.188 104.574 137.337 104.387C140.036 101.015 143.675 98.0018 147.86 96.7336C147.954 96.704 148.049 96.6744 148.146 96.6438C148.636 96.5105 149.14 96.4429 149.641 96.3664Z" fill="#F4A99C"/>
<path d="M134.996 122.583C135.257 122.583 135.428 122.652 135.652 122.78C135.713 122.815 135.774 122.85 135.837 122.886C135.902 122.923 135.967 122.96 136.034 122.999C136.173 123.077 136.311 123.155 136.449 123.232C136.517 123.271 136.586 123.309 136.657 123.349C138.804 124.545 141.101 125.41 143.428 126.185C143.532 126.22 143.532 126.22 143.638 126.255C144.484 126.537 145.335 126.751 146.208 126.934C146.354 126.965 146.354 126.965 146.504 126.997C146.949 127.089 147.392 127.173 147.843 127.229C148.844 127.361 149.348 127.621 149.984 128.405C150.223 128.695 150.483 128.965 150.74 129.239C150.848 129.356 150.956 129.473 151.064 129.591C151.86 130.449 152.69 131.274 153.516 132.103C153.871 132.46 154.224 132.818 154.574 133.179C154.615 133.221 154.656 133.263 154.699 133.306C154.975 133.593 154.975 133.593 154.988 133.683C154.328 133.742 153.67 133.766 153.008 133.781C151.383 133.823 149.745 133.87 148.133 134.088C148.06 134.097 147.987 134.106 147.912 134.116C147.362 134.199 146.962 134.376 146.616 134.824C146.494 135.008 146.383 135.195 146.274 135.387C146.24 135.447 146.207 135.506 146.172 135.567C146.07 135.747 145.971 135.929 145.873 136.11C145.567 136.668 145.254 137.22 144.933 137.769C144.737 138.102 144.544 138.436 144.354 138.772C143.772 139.797 143.772 139.797 143.527 140.155C143.474 140.163 143.421 140.171 143.366 140.179C141.68 137.687 140.157 135.105 138.686 132.483C138.638 132.396 138.638 132.396 138.588 132.309C137.649 130.633 136.729 128.947 135.813 127.258C135.765 127.17 135.717 127.082 135.668 126.991C135.067 125.885 134.482 124.773 133.92 123.647C134.117 123.373 134.308 123.168 134.573 122.959C134.802 122.788 134.802 122.788 134.996 122.583Z" fill="#F4A99C"/>
<path d="M124.293 124.19C124.56 124.25 124.805 124.363 125.055 124.475C125.134 124.509 125.134 124.509 125.215 124.545C125.345 124.602 125.475 124.659 125.605 124.717C125.577 125.457 125.433 126.176 125.297 126.902C125.284 126.972 125.271 127.042 125.257 127.114C123.107 138.644 123.107 138.644 121.403 143.521C121.35 143.529 121.297 143.537 121.242 143.545C121.094 143.416 120.956 143.284 120.818 143.145C120.731 143.06 120.643 142.974 120.556 142.888C120.511 142.843 120.466 142.799 120.419 142.753C120.201 142.539 119.978 142.33 119.756 142.121C119.424 141.808 119.095 141.494 118.767 141.177C118.647 141.061 118.528 140.946 118.408 140.83C118.306 140.732 118.205 140.634 118.104 140.536C117.925 140.363 117.746 140.191 117.567 140.018C117.482 139.937 117.482 139.937 117.396 139.853C116.758 139.233 116.758 139.233 115.946 138.902C115.7 138.911 115.478 138.932 115.237 138.971C115.163 138.982 115.089 138.994 115.013 139.005C113.154 139.319 111.303 139.837 109.493 140.364C109.15 140.464 108.82 140.547 108.463 140.588C108.528 140.195 108.708 139.894 108.912 139.56C109.335 138.853 109.714 138.127 110.087 137.394C110.173 137.226 110.259 137.058 110.346 136.89C110.617 136.363 110.884 135.834 111.149 135.304C111.225 135.15 111.302 134.996 111.38 134.843C111.553 134.498 111.723 134.154 111.885 133.804C111.913 133.747 111.94 133.69 111.968 133.632C112.039 133.482 112.109 133.331 112.178 133.18C112.39 132.873 112.626 132.754 112.954 132.6C113.112 132.52 113.269 132.441 113.427 132.36C113.514 132.316 113.602 132.272 113.692 132.226C117.402 130.34 121.454 127.632 124.01 124.295C124.129 124.196 124.129 124.196 124.293 124.19Z" fill="#F4A99C"/>
<path d="M131.737 109.491C133.251 110.36 134.219 111.707 134.854 113.307C134.878 113.368 134.903 113.429 134.928 113.491C135.357 114.844 135.267 116.33 134.843 117.668C134.82 117.746 134.797 117.823 134.773 117.902C134.251 119.498 133.09 120.786 131.615 121.568C129.917 122.422 128.149 122.558 126.34 121.973C124.576 121.358 123.266 120.142 122.433 118.477C121.609 116.644 121.548 114.799 122.192 112.908C122.381 112.42 122.628 111.981 122.91 111.542C122.944 111.487 122.977 111.433 123.012 111.376C124.895 108.574 128.884 107.912 131.737 109.491Z" fill="#F4A99C"/>
</svg>
