<svg width="180" height="326" viewBox="0 0 180 326" fill="none" xmlns="http://www.w3.org/2000/svg">
<path d="M38.9834 8.30218C39.8787 9.08682 40.741 9.90174 41.5988 10.7271C41.7718 10.8841 41.9448 11.041 42.1231 11.2027C44.9755 13.8713 47.2404 17.3264 49.24 20.6607C49.3524 20.8468 49.4648 21.0329 49.5806 21.2247C58.8843 36.7414 65.1806 56.8966 65.0318 75.1679C65.3779 75.069 65.3779 75.069 65.731 74.968C68.0511 74.3242 70.3522 73.8511 72.7366 73.4964C72.9126 73.47 73.0885 73.4436 73.2697 73.4165C74.3483 73.2552 75.4275 73.0994 76.5073 72.9465C76.9634 72.8812 77.4191 72.8131 77.8748 72.7447C90.3229 70.9014 102.959 72.5315 115.209 74.9132C115.198 74.6249 115.187 74.3367 115.176 74.0396C115.179 72.0991 115.477 70.1788 115.734 68.259C115.762 68.0489 115.79 67.8389 115.819 67.6225C118.22 49.7156 122.7 29.9308 134.312 15.5665C134.427 15.4223 134.542 15.2781 134.661 15.1295C140.438 7.92823 148.187 1.88286 157.49 0.284148C163.063 -0.0541722 167.581 0.202945 172.024 3.83412C173.592 5.2954 174.583 7.0671 175.574 8.94418C175.706 9.19239 175.838 9.44061 175.973 9.69636C177.441 12.6927 177.899 15.9926 177.919 19.2986C177.92 19.5046 177.922 19.7106 177.924 19.9229C177.928 20.588 177.93 21.2531 177.931 21.9183C177.931 22.2603 177.931 22.2603 177.931 22.6092C177.927 26.3383 177.741 29.9699 177.103 33.6507C177.039 34.0263 177.039 34.0263 176.974 34.4094C173.349 55.2872 163.948 75.8097 150.613 92.2333C151.374 93.1423 152.132 94.0209 152.985 94.844C154.168 96.0085 155.18 97.3073 156.217 98.6009C156.385 98.8029 156.553 99.0048 156.726 99.2128C159.169 102.172 161.187 105.466 163.094 108.789C163.185 108.947 163.277 109.105 163.371 109.268C168.915 118.932 172.322 130.68 172.297 141.855C172.297 142.106 172.298 142.357 172.298 142.615C172.298 143.14 172.298 143.665 172.296 144.191C172.295 144.989 172.296 145.788 172.298 146.586C172.298 147.1 172.298 147.614 172.297 148.127C172.298 148.363 172.298 148.599 172.299 148.842C172.294 150.283 172.192 151.678 172.009 153.108C172.251 153.125 172.251 153.125 172.499 153.143C173.238 153.197 173.976 153.256 174.715 153.315C174.969 153.333 175.224 153.351 175.486 153.369C176.86 153.483 177.956 153.611 179.14 154.382C179.757 155.122 179.895 155.57 180 156.531C179.892 157.552 179.733 158.126 179.14 158.966C177.756 159.722 176.743 159.814 175.192 159.667C175.009 159.653 174.825 159.64 174.636 159.626C173.498 159.538 172.373 159.393 171.244 159.221C170.673 160.884 170.165 162.56 169.684 164.252C169.617 164.486 169.55 164.72 169.48 164.961C169.416 165.188 169.351 165.415 169.284 165.648C169.227 165.851 169.169 166.054 169.109 166.263C168.946 166.884 168.817 167.506 168.697 168.136C168.965 168.228 169.233 168.321 169.508 168.416C174.362 170.138 174.362 170.138 175.574 171.956C175.745 172.832 175.752 173.629 175.574 174.504C174.933 175.429 174.188 175.893 173.136 176.261C171.811 176.3 170.751 175.787 169.541 175.284C169.063 175.089 168.584 174.896 168.105 174.704C167.79 174.573 167.79 174.573 167.468 174.44C166.892 174.207 166.892 174.207 166.15 174.249C165.74 174.879 165.377 175.5 165.02 176.159C163.153 179.465 160.888 182.465 158.254 185.201C158.052 185.415 158.052 185.415 157.846 185.634C153.766 189.939 149.039 193.145 143.752 195.819C143.497 195.949 143.497 195.949 143.236 196.081C142.504 196.44 142.016 196.663 141.189 196.663C141.189 196.831 141.189 196.999 141.189 197.172C141.394 197.225 141.598 197.277 141.809 197.332C143.009 197.794 143.976 198.474 145.026 199.21C145.24 199.359 145.454 199.507 145.675 199.661C148.642 201.733 151.44 203.98 154.179 206.342C154.362 206.498 154.544 206.655 154.732 206.816C155.231 207.248 155.725 207.685 156.217 208.125C156.426 208.31 156.634 208.495 156.85 208.686C160.246 211.745 163.635 214.921 166.405 218.568C166.598 218.807 166.79 219.046 166.989 219.293C171.438 224.888 177.066 232.678 176.339 240.218C176.316 240.524 176.316 240.524 176.294 240.836C175.887 244.145 173.99 247.466 171.499 249.642C169.87 250.859 168.082 251.591 166.15 252.189C165.977 252.247 165.804 252.305 165.625 252.364C159.916 253.97 153.302 251.682 148.121 249.359C147.918 249.268 147.716 249.178 147.508 249.085C147.356 249.017 147.204 248.948 147.047 248.878C147.107 249.325 147.107 249.325 147.167 249.781C149.193 265.136 150.383 280.522 150.421 296.011C150.422 296.515 150.424 297.018 150.426 297.522C150.452 305.497 150.388 313.753 144.732 320.022C141.978 322.642 138.449 324.088 134.821 325.035C134.633 325.085 134.446 325.135 134.252 325.186C131.95 325.697 129.59 325.648 127.244 325.653C126.502 325.656 125.76 325.669 125.018 325.681C121.201 325.715 117.991 325.076 114.588 323.284C114.42 323.197 114.251 323.11 114.077 323.02C110.283 321.01 107.394 317.807 106.037 313.692C105.068 310.498 104.572 307.177 104.002 303.895C103.885 303.235 103.767 302.575 103.649 301.916C103.511 301.132 103.374 300.348 103.238 299.565C102.929 299.588 102.929 299.588 102.615 299.611C95.6982 300.118 88.8495 300.195 81.922 299.835C81.6012 299.819 81.6012 299.819 81.2738 299.802C80.6663 299.77 80.0589 299.736 79.4515 299.701C79.2702 299.691 79.0888 299.681 78.9019 299.671C78.0729 299.621 77.29 299.554 76.4936 299.31C76.476 299.524 76.476 299.524 76.458 299.743C75.7449 307.639 74.6308 316.236 68.328 321.682C67.4696 322.314 66.5988 322.829 65.6526 323.316C65.4305 323.432 65.4305 323.432 65.2039 323.551C61.5731 325.309 58.0677 325.747 54.0789 325.697C53.316 325.688 52.5539 325.691 51.791 325.696C47.9361 325.694 44.3043 325.248 40.771 323.602C40.4876 323.472 40.4876 323.472 40.1984 323.34C35.893 321.276 33.1556 318.022 31.4105 313.573C31.2657 313.207 31.2657 313.207 31.118 312.834C29.3534 307.786 29.4987 302.222 29.5291 296.948C29.5321 296.388 29.5337 295.827 29.5351 295.267C29.5766 280.627 30.5425 266.08 32.4164 251.56C32.4397 251.376 32.463 251.192 32.487 251.002C32.5847 250.26 32.701 249.591 32.9387 248.878C32.6639 248.989 32.3891 249.1 32.106 249.214C25.2479 251.952 18.3707 254.247 11.1812 251.325C7.59455 249.63 5.55407 246.969 4.15687 243.274C2.4554 238.196 4.5839 233.015 6.83229 228.495C10.7867 220.974 16.9871 213.866 23.432 208.376C23.9083 207.969 24.3784 207.557 24.8468 207.142C29.1113 203.374 33.6855 199.891 38.5423 196.918C38.3939 196.838 38.2455 196.759 38.0926 196.678C30.0687 192.38 22.6728 187.484 17.4016 179.852C17.2918 179.693 17.1819 179.534 17.0687 179.371C15.9203 177.7 14.8267 176.018 13.8357 174.249C12.6888 174.454 11.6263 174.712 10.5464 175.15C10.2817 175.257 10.2817 175.257 10.0116 175.366C9.65853 175.51 9.3072 175.66 8.95799 175.813C7.70921 176.324 6.97496 176.315 5.68511 175.777C4.90554 175.097 4.51022 174.697 4.2892 173.693C4.22525 172.668 4.35686 172.06 4.8414 171.145C6.4887 169.46 9.0505 168.831 11.2887 168.391C11.2116 168.125 11.2116 168.125 11.1331 167.855C10.8966 167.036 10.6628 166.217 10.429 165.398C10.3483 165.12 10.2675 164.842 10.1843 164.555C9.65872 162.705 9.26971 160.87 8.9963 158.966C8.70737 159.045 8.41843 159.124 8.12074 159.205C6.91687 159.47 5.71814 159.592 4.49117 159.683C4.30667 159.699 4.12217 159.716 3.93208 159.733C2.68604 159.812 1.89859 159.635 0.845685 158.966C0.0806242 158.074 -0.0427085 157.285 0.0109234 156.146C0.121412 155.379 0.33118 154.963 0.845685 154.382C2.33923 153.587 3.7427 153.44 5.41449 153.315C5.66156 153.294 5.90863 153.273 6.16318 153.252C6.76778 153.201 7.37246 153.153 7.97747 153.108C7.93651 152.829 7.89555 152.55 7.85335 152.263C7.6889 150.939 7.67681 149.624 7.67103 148.292C7.66885 147.893 7.66885 147.893 7.66663 147.486C7.66423 146.923 7.66256 146.36 7.66158 145.797C7.65913 144.957 7.65124 144.118 7.64317 143.278C7.6191 138.495 8.0772 133.82 9.13957 129.15C9.203 128.869 9.26643 128.589 9.33178 128.3C10.5916 122.972 12.4212 117.768 14.8546 112.865C14.9667 112.635 15.0789 112.405 15.1945 112.168C18.0032 106.447 21.4575 101.079 25.7821 96.3802C26.2891 95.8288 26.7818 95.2676 27.2715 94.7007C27.9429 93.9291 28.6386 93.1999 29.3728 92.488C29.0306 91.6842 28.5536 91.0728 27.9908 90.4099C23.9674 85.645 20.5995 80.1396 17.6563 74.6585C17.5318 74.4288 17.4074 74.199 17.2791 73.9623C9.82249 60.1488 4.34526 44.9368 2.37392 29.3207C2.3514 29.1441 2.32887 28.9674 2.30567 28.7855C2.14348 27.4392 2.07198 26.1104 2.05853 24.7549C2.056 24.5457 2.05347 24.3365 2.05086 24.1209C1.98235 16.9935 2.15746 9.81442 7.46806 4.35945C7.63978 4.17789 7.81149 3.99632 7.98842 3.80925C9.99557 1.85328 12.5974 0.680102 15.364 0.284148C15.6368 0.242286 15.6368 0.242286 15.9152 0.199577C24.444 -0.930566 32.6235 2.86931 38.9834 8.30218Z" fill="white"/>
<path d="M38.9834 8.30218C39.8787 9.08682 40.741 9.90174 41.5988 10.7271C41.7718 10.8841 41.9448 11.041 42.1231 11.2027C44.9755 13.8713 47.2404 17.3264 49.24 20.6607C49.3524 20.8468 49.4648 21.0329 49.5806 21.2247C58.8843 36.7414 65.1806 56.8966 65.0318 75.1679C65.3779 75.069 65.3779 75.069 65.731 74.968C68.0511 74.3242 70.3522 73.8511 72.7366 73.4964C72.9126 73.47 73.0885 73.4436 73.2697 73.4165C74.3483 73.2552 75.4275 73.0994 76.5073 72.9465C76.9634 72.8812 77.4191 72.8131 77.8748 72.7447C90.3229 70.9014 102.959 72.5315 115.209 74.9132C115.198 74.6249 115.187 74.3367 115.176 74.0396C115.179 72.0991 115.477 70.1788 115.734 68.259C115.762 68.0489 115.79 67.8389 115.819 67.6225C118.22 49.7156 122.7 29.9308 134.312 15.5665C134.427 15.4223 134.542 15.2781 134.661 15.1295C140.438 7.92823 148.187 1.88286 157.49 0.284148C163.063 -0.0541722 167.581 0.202945 172.024 3.83412C173.592 5.2954 174.583 7.0671 175.574 8.94418C175.706 9.19239 175.838 9.44061 175.973 9.69636C177.441 12.6927 177.899 15.9926 177.919 19.2986C177.92 19.5046 177.922 19.7106 177.924 19.9229C177.928 20.588 177.93 21.2531 177.931 21.9183C177.931 22.2603 177.931 22.2603 177.931 22.6092C177.927 26.3383 177.741 29.9699 177.103 33.6507C177.039 34.0263 177.039 34.0263 176.974 34.4094C173.349 55.2872 163.948 75.8097 150.613 92.2333C151.374 93.1423 152.132 94.0209 152.985 94.844C154.168 96.0085 155.18 97.3073 156.217 98.6009C156.385 98.8029 156.553 99.0048 156.726 99.2128C159.169 102.172 161.187 105.466 163.094 108.789C163.185 108.947 163.277 109.105 163.371 109.268C168.915 118.932 172.322 130.68 172.297 141.855C172.297 142.106 172.298 142.357 172.298 142.615C172.298 143.14 172.298 143.665 172.296 144.191C172.295 144.989 172.296 145.788 172.298 146.586C172.298 147.1 172.298 147.614 172.297 148.127C172.298 148.363 172.298 148.599 172.299 148.842C172.294 150.283 172.192 151.678 172.009 153.108C172.251 153.125 172.251 153.125 172.499 153.143C173.238 153.197 173.976 153.256 174.715 153.315C174.969 153.333 175.224 153.351 175.486 153.369C176.86 153.483 177.956 153.611 179.14 154.382C179.757 155.122 179.895 155.57 180 156.531C179.892 157.552 179.733 158.126 179.14 158.966C177.756 159.722 176.743 159.814 175.192 159.667C175.009 159.653 174.825 159.64 174.636 159.626C173.498 159.538 172.373 159.393 171.244 159.221C170.673 160.884 170.165 162.56 169.684 164.252C169.617 164.486 169.55 164.72 169.48 164.961C169.416 165.188 169.351 165.415 169.284 165.648C169.227 165.851 169.169 166.054 169.109 166.263C168.946 166.884 168.817 167.506 168.697 168.136C168.965 168.228 169.233 168.321 169.508 168.416C174.362 170.138 174.362 170.138 175.574 171.956C175.745 172.832 175.752 173.629 175.574 174.504C174.933 175.429 174.188 175.893 173.136 176.261C171.811 176.3 170.751 175.787 169.541 175.284C169.063 175.089 168.584 174.896 168.105 174.704C167.79 174.573 167.79 174.573 167.468 174.44C166.892 174.207 166.892 174.207 166.15 174.249C165.74 174.879 165.377 175.5 165.02 176.159C163.153 179.465 160.888 182.465 158.254 185.201C158.052 185.415 158.052 185.415 157.846 185.634C153.766 189.939 149.039 193.145 143.752 195.819C143.497 195.949 143.497 195.949 143.236 196.081C142.504 196.44 142.016 196.663 141.189 196.663C141.189 196.831 141.189 196.999 141.189 197.172C141.394 197.225 141.598 197.277 141.809 197.332C143.009 197.794 143.976 198.474 145.026 199.21C145.24 199.359 145.454 199.507 145.675 199.661C148.642 201.733 151.44 203.98 154.179 206.342C154.362 206.498 154.544 206.655 154.732 206.816C155.231 207.248 155.725 207.685 156.217 208.125C156.426 208.31 156.634 208.495 156.85 208.686C160.246 211.745 163.635 214.921 166.405 218.568C166.598 218.807 166.79 219.046 166.989 219.293C171.438 224.888 177.066 232.678 176.339 240.218C176.316 240.524 176.316 240.524 176.294 240.836C175.887 244.145 173.99 247.466 171.499 249.642C169.87 250.859 168.082 251.591 166.15 252.189C165.977 252.247 165.804 252.305 165.625 252.364C159.916 253.97 153.302 251.682 148.121 249.359C147.918 249.268 147.716 249.178 147.508 249.085C147.356 249.017 147.204 248.948 147.047 248.878C147.107 249.325 147.107 249.325 147.167 249.781C149.193 265.136 150.383 280.522 150.421 296.011C150.422 296.515 150.424 297.018 150.426 297.522C150.452 305.497 150.388 313.753 144.732 320.022C141.978 322.642 138.449 324.088 134.821 325.035C134.633 325.085 134.446 325.135 134.252 325.186C131.95 325.697 129.59 325.648 127.244 325.653C126.502 325.656 125.76 325.669 125.018 325.681C121.201 325.715 117.991 325.076 114.588 323.284C114.42 323.197 114.251 323.11 114.077 323.02C110.283 321.01 107.394 317.807 106.037 313.692C105.068 310.498 104.572 307.177 104.002 303.895C103.885 303.235 103.767 302.575 103.649 301.916C103.511 301.132 103.374 300.348 103.238 299.565C102.929 299.588 102.929 299.588 102.615 299.611C95.6982 300.118 88.8495 300.195 81.922 299.835C81.6012 299.819 81.6012 299.819 81.2738 299.802C80.6663 299.77 80.0589 299.736 79.4515 299.701C79.2702 299.691 79.0888 299.681 78.9019 299.671C78.0729 299.621 77.29 299.554 76.4936 299.31C76.476 299.524 76.476 299.524 76.458 299.743C75.7449 307.639 74.6308 316.236 68.328 321.682C67.4696 322.314 66.5988 322.829 65.6526 323.316C65.4305 323.432 65.4305 323.432 65.2039 323.551C61.5731 325.309 58.0677 325.747 54.0789 325.697C53.316 325.688 52.5539 325.691 51.791 325.696C47.9361 325.694 44.3043 325.248 40.771 323.602C40.4876 323.472 40.4876 323.472 40.1984 323.34C35.893 321.276 33.1556 318.022 31.4105 313.573C31.2657 313.207 31.2657 313.207 31.118 312.834C29.3534 307.786 29.4987 302.222 29.5291 296.948C29.5321 296.388 29.5337 295.827 29.5351 295.267C29.5766 280.627 30.5425 266.08 32.4164 251.56C32.4397 251.376 32.463 251.192 32.487 251.002C32.5847 250.26 32.701 249.591 32.9387 248.878C32.6639 248.989 32.3891 249.1 32.106 249.214C25.2479 251.952 18.3707 254.247 11.1812 251.325C7.59455 249.63 5.55407 246.969 4.15687 243.274C2.4554 238.196 4.5839 233.015 6.83229 228.495C10.7867 220.974 16.9871 213.866 23.432 208.376C23.9083 207.969 24.3784 207.557 24.8468 207.142C29.1113 203.374 33.6855 199.891 38.5423 196.918C38.3939 196.838 38.2455 196.759 38.0926 196.678C30.0687 192.38 22.6728 187.484 17.4016 179.852C17.2918 179.693 17.1819 179.534 17.0687 179.371C15.9203 177.7 14.8267 176.018 13.8357 174.249C12.6888 174.454 11.6263 174.712 10.5464 175.15C10.2817 175.257 10.2817 175.257 10.0116 175.366C9.65853 175.51 9.3072 175.66 8.95799 175.813C7.70921 176.324 6.97496 176.315 5.68511 175.777C4.90554 175.097 4.51022 174.697 4.2892 173.693C4.22525 172.668 4.35686 172.06 4.8414 171.145C6.4887 169.46 9.0505 168.831 11.2887 168.391C11.2116 168.125 11.2116 168.125 11.1331 167.855C10.8966 167.036 10.6628 166.217 10.429 165.398C10.3483 165.12 10.2675 164.842 10.1843 164.555C9.65872 162.705 9.26971 160.87 8.9963 158.966C8.70737 159.045 8.41843 159.124 8.12074 159.205C6.91687 159.47 5.71814 159.592 4.49117 159.683C4.30667 159.699 4.12217 159.716 3.93208 159.733C2.68604 159.812 1.89859 159.635 0.845685 158.966C0.0806242 158.074 -0.0427085 157.285 0.0109234 156.146C0.121412 155.379 0.33118 154.963 0.845685 154.382C2.33923 153.587 3.7427 153.44 5.41449 153.315C5.66156 153.294 5.90863 153.273 6.16318 153.252C6.76778 153.201 7.37246 153.153 7.97747 153.108C7.93651 152.829 7.89555 152.55 7.85335 152.263C7.6889 150.939 7.67681 149.624 7.67103 148.292C7.66885 147.893 7.66885 147.893 7.66663 147.486C7.66423 146.923 7.66256 146.36 7.66158 145.797C7.65913 144.957 7.65124 144.118 7.64317 143.278C7.6191 138.495 8.0772 133.82 9.13957 129.15C9.203 128.869 9.26643 128.589 9.33178 128.3C10.5916 122.972 12.4212 117.768 14.8546 112.865C14.9667 112.635 15.0789 112.405 15.1945 112.168C18.0032 106.447 21.4575 101.079 25.7821 96.3802C26.2891 95.8288 26.7818 95.2676 27.2715 94.7007C27.9429 93.9291 28.6386 93.1999 29.3728 92.488C29.0306 91.6842 28.5536 91.0728 27.9908 90.4099C23.9674 85.645 20.5995 80.1396 17.6563 74.6585C17.5318 74.4288 17.4074 74.199 17.2791 73.9623C9.82249 60.1488 4.34526 44.9368 2.37392 29.3207C2.3514 29.1441 2.32887 28.9674 2.30567 28.7855C2.14348 27.4392 2.07198 26.1104 2.05853 24.7549C2.056 24.5457 2.05347 24.3365 2.05086 24.1209C1.98235 16.9935 2.15746 9.81442 7.46806 4.35945C7.63978 4.17789 7.81149 3.99632 7.98842 3.80925C9.99557 1.85328 12.5974 0.680102 15.364 0.284148C15.6368 0.242286 15.6368 0.242286 15.9152 0.199577C24.444 -0.930566 32.6235 2.86931 38.9834 8.30218ZM11.622 10.546C9.20833 14.357 8.8877 18.5396 8.90078 22.953C8.90101 23.1394 8.90123 23.3258 8.90146 23.5178C8.92715 30.1085 10.1246 36.4578 11.7981 42.8202C11.8728 43.1052 11.9476 43.3902 12.0247 43.6839C13.9615 50.9164 16.7845 57.9473 19.9487 64.7249C20.0567 64.9568 20.1648 65.1887 20.2761 65.4276C23.099 71.4178 26.5639 77.1254 30.4394 82.4907C30.5783 82.6831 30.7172 82.8754 30.8603 83.0736C32.6894 85.5818 34.6541 87.9828 36.6983 90.3183C37.3923 91.1683 37.5312 91.7651 37.4916 92.8541C37.0425 94.6825 35.8005 95.779 34.451 96.9931C34.1068 97.3095 33.7629 97.6262 33.4193 97.9433C33.2506 98.0984 33.082 98.2535 32.9083 98.4133C22.3081 108.204 15.9149 122.857 14.3451 137.062C14.3213 137.263 14.2975 137.464 14.2729 137.672C14.0611 139.666 14.043 141.657 14.0432 143.66C14.0427 144.236 14.038 144.812 14.0332 145.388C14.0238 147.914 14.2254 150.356 14.5998 152.853C15.0465 152.868 15.0465 152.868 15.5023 152.882C15.8966 152.899 16.2909 152.916 16.6853 152.933C16.8811 152.939 17.077 152.945 17.2787 152.95C18.4487 153.006 19.2539 153.119 20.2034 153.872C20.8334 154.817 20.8519 155.578 20.7128 156.674C20.4007 157.392 20.1762 157.8 19.5189 158.226C18.7448 158.53 18.039 158.566 17.2106 158.616C16.9125 158.635 16.6143 158.654 16.3072 158.674C16.08 158.686 15.8528 158.699 15.6187 158.712C15.7022 160.438 16.032 162.031 16.4783 163.694C16.5316 163.901 16.5848 164.107 16.6397 164.32C16.7832 164.835 16.9625 165.341 17.1469 165.843C17.9274 166.104 18.3469 166.088 19.1527 166.035C20.1251 166.029 20.4045 166.064 21.2541 166.608C21.7829 167.454 21.9189 167.938 21.858 168.919C21.6437 169.751 21.1062 170.155 20.4581 170.683C20.201 170.935 19.9457 171.189 19.694 171.447C21.6538 175.057 23.9934 178.157 26.8258 181.126C27.0142 181.328 27.2027 181.53 27.3969 181.738C33.2094 187.795 41.3721 191.515 49.415 193.474C50.862 193.844 51.8969 194.118 52.8058 195.389C53.1851 196.454 53.1832 197.394 52.7422 198.43C51.8585 199.472 50.9611 199.589 49.6857 199.783C43.382 200.873 37.7685 204.88 32.9387 208.889C32.6113 209.154 32.2836 209.418 31.9557 209.682C29.4659 211.696 27.0857 213.791 24.7881 216.021C24.5763 216.226 24.3646 216.43 24.1464 216.641C20.1195 220.552 20.1195 220.552 16.6375 224.935C16.3997 225.276 16.3997 225.276 16.1571 225.623C11.1764 232.526 11.1764 232.526 10.0151 240.727C10.4898 242.472 11.1962 244.015 12.7761 244.998C13.0365 245.122 13.2968 245.247 13.5651 245.376C13.8248 245.503 14.0845 245.63 14.3521 245.762C17.9714 247.265 22.4761 246.202 25.9604 244.804C27.3166 244.235 28.6558 243.63 29.9937 243.02C30.2805 242.89 30.5673 242.76 30.8628 242.626C31.1378 242.498 31.4127 242.371 31.696 242.24C31.9414 242.126 32.1869 242.013 32.4397 241.896C32.8128 241.696 32.8128 241.696 33.1934 241.491C33.3428 241.417 33.4921 241.342 33.646 241.265C35.2362 240.335 35.5463 238.963 36.035 237.266C36.1244 236.976 36.2137 236.687 36.3058 236.389C36.5903 235.465 36.8664 234.538 37.1414 233.611C40.0621 223.895 40.0621 223.895 41.7306 222.689C42.5235 222.312 43.0215 222.28 43.8911 222.388C44.8543 222.826 45.2965 223.189 45.6741 224.171C45.8714 226.804 44.9291 229.262 44.0868 231.708C43.6983 232.838 43.3242 233.973 42.9489 235.108C42.8748 235.331 42.8007 235.554 42.7244 235.784C39.1819 246.507 37.663 257.69 36.8051 268.912C36.7568 269.542 36.7073 270.172 36.6578 270.802C36.0462 278.688 35.8157 286.562 35.7405 294.47C35.7383 294.679 35.7361 294.888 35.7339 295.104C35.2296 305.964 35.2296 305.964 39.7979 315.372C42.2265 317.721 45.2014 318.65 48.4758 319.177C48.6807 319.21 48.8856 319.244 49.0967 319.278C54.2729 319.943 60.2017 319.71 64.602 316.678C67.1493 314.63 68.0731 311.754 68.725 308.654C68.7782 308.407 68.8313 308.16 68.8861 307.906C69.3817 305.506 69.7155 303.087 70.016 300.657C70.7309 294.99 70.7309 294.99 71.7974 293.897C73.667 292.555 76.4648 293.154 78.6615 293.38C82.0738 293.727 85.4631 293.776 88.8907 293.759C89.8215 293.754 90.7522 293.753 91.6829 293.754C94.2986 293.75 96.9113 293.733 99.5236 293.592C99.7046 293.582 99.8855 293.572 100.072 293.562C100.978 293.505 101.841 293.383 102.728 293.197C103.45 293.14 104.17 293.138 104.893 293.133C105.083 293.128 105.274 293.123 105.469 293.117C106.624 293.109 107.433 293.16 108.332 293.961C109.2 295.469 109.355 297.097 109.59 298.8C109.677 299.395 109.764 299.989 109.852 300.583C109.896 300.882 109.94 301.18 109.985 301.488C110.844 309.805 110.844 309.805 115.19 316.536C120.098 319.771 126.396 320.17 132.07 319.08C132.306 319.028 132.541 318.976 132.784 318.922C133.038 318.873 133.291 318.823 133.553 318.772C137.08 318.007 139.838 316.402 141.914 313.403C143.57 310.585 144.03 307.399 144.028 304.173C144.029 303.887 144.029 303.887 144.03 303.595C144.033 302.968 144.033 302.34 144.034 301.713C144.034 301.265 144.035 300.818 144.036 300.371C144.038 299.429 144.038 298.488 144.038 297.547C144.038 296.603 144.04 295.659 144.043 294.716C144.076 285.811 143.769 276.922 142.964 268.051C142.946 267.848 142.927 267.645 142.909 267.437C141.829 255.757 140.067 244.448 136.345 233.306C136.248 233.014 136.248 233.014 136.149 232.717C135.837 231.777 135.52 230.84 135.192 229.906C134.438 227.709 133.672 225.335 134.678 223.105C135.624 222.436 136.475 222.294 137.623 222.388C139.336 223.206 139.978 225.395 140.587 227.079C141.056 228.414 141.505 229.755 141.953 231.096C142.108 231.555 142.263 232.015 142.419 232.474C142.495 232.699 142.571 232.923 142.649 233.155C142.8 233.602 142.952 234.05 143.104 234.496C143.445 235.501 143.772 236.503 144.051 237.526C144.616 239.615 144.616 239.615 146.075 241.141C146.478 241.355 146.887 241.557 147.302 241.746C147.609 241.907 147.609 241.907 147.922 242.071C148.563 242.404 149.211 242.714 149.865 243.02C150.213 243.183 150.213 243.183 150.568 243.35C152.584 244.286 154.618 245.119 156.726 245.821C156.927 245.889 157.127 245.957 157.334 246.026C160.283 246.846 163.905 246.609 166.66 245.312C168.458 244.174 169.312 242.703 169.971 240.727C170.559 234.117 165.838 227.835 161.824 222.977C160.975 222.003 160.104 221.048 159.223 220.102C158.533 219.361 157.861 218.606 157.188 217.851C156.312 216.886 155.41 216.01 154.413 215.172C153.898 214.724 153.428 214.25 152.953 213.76C151.979 212.773 150.933 211.908 149.85 211.043C149.191 210.504 148.559 209.945 147.928 209.374C143.03 205.003 136.613 200.545 129.95 199.719C128.928 199.583 128.499 199.495 127.626 198.908C127.076 198.023 126.925 197.451 126.925 196.408C127.239 195.409 127.561 194.979 128.39 194.339C129.442 193.803 130.569 193.547 131.708 193.256C138.806 191.435 145.33 188.245 150.868 183.418C151.116 183.204 151.365 182.989 151.621 182.769C155.186 179.636 158.041 175.876 160.292 171.702C160.292 171.534 160.292 171.366 160.292 171.192C160.008 171.045 159.725 170.898 159.432 170.747C158.884 170.428 158.539 170.212 158.143 169.712C157.837 168.523 157.81 167.703 158.43 166.624C159.745 165.805 161.075 165.999 162.584 166.098C162.836 165.25 163.085 164.401 163.333 163.551C163.403 163.313 163.474 163.075 163.547 162.83C163.947 161.452 164.234 160.14 164.367 158.712C164.035 158.706 164.035 158.706 163.697 158.701C161 158.589 161 158.589 160.101 157.836C159.306 156.931 159.173 156.373 159.182 155.156C159.335 154.285 159.876 153.89 160.547 153.363C161.387 152.943 162.328 153.011 163.253 152.965C163.457 152.954 163.661 152.943 163.872 152.932C164.377 152.905 164.881 152.879 165.386 152.853C168.246 137.326 163.343 120.233 154.731 107.292C151.773 103.033 148.472 99.0329 144.368 95.835C143.338 94.9457 142.546 94.0936 142.351 92.7268C142.558 90.8666 143.793 89.6245 145.026 88.2853C149.11 83.8393 152.477 78.6237 155.453 73.385C155.623 73.0856 155.623 73.0856 155.796 72.7802C161.425 62.804 165.853 52.1403 168.697 41.0372C168.757 40.8085 168.817 40.5798 168.879 40.3442C170.349 34.6798 171.084 28.9101 171.085 23.0645C171.086 22.8921 171.086 22.7198 171.087 22.5423C171.086 19.4805 170.878 16.44 169.875 13.5289C169.774 13.2242 169.672 12.9195 169.567 12.6056C168.634 10.3797 166.942 8.49636 164.721 7.5214C163.585 7.11095 162.544 7.02381 161.343 7.03388C161.133 7.03552 160.924 7.03716 160.709 7.03885C155.272 7.19687 150.599 9.94434 146.283 13.0195C146.072 13.1682 145.86 13.317 145.642 13.4702C130.731 24.4931 125.714 46.723 123.075 63.9869C122.372 68.683 121.858 73.3977 121.453 78.1289C121.433 78.3418 121.414 78.5547 121.393 78.7741C121.358 79.1542 121.326 79.5346 121.299 79.9153C121.188 81.0795 120.881 81.7329 120.048 82.5544C118.101 83.2036 116.377 82.5475 114.477 81.9972C108.915 80.4519 103.382 79.5043 97.6342 78.9885C97.2302 78.9517 97.2302 78.9517 96.8181 78.9141C86.6974 78.0569 76.3557 79.2131 66.56 81.7903C65.9595 81.9477 65.3591 82.1049 64.758 82.2599C64.28 82.3838 63.8032 82.5117 63.3264 82.64C62.1342 82.8795 61.1104 82.9907 59.9854 82.4907C59.1113 81.7915 58.9491 81.2344 58.7877 80.1248C58.7534 79.7598 58.7213 79.3946 58.691 79.0293C58.6529 78.6173 58.6148 78.2053 58.5767 77.7933C58.5574 77.5759 58.538 77.3585 58.5181 77.1345C56.799 58.023 53.136 37.688 41.8535 21.6795C41.7013 21.4631 41.7013 21.4631 41.5461 21.2424C40.2439 19.4094 38.8217 17.7012 37.2687 16.076C37.127 15.9238 36.9852 15.7716 36.8391 15.6149C35.5286 14.2476 34.1104 13.1664 32.5407 12.1121C32.2935 11.9455 32.0462 11.7789 31.7914 11.6073C29.86 10.3289 27.9773 9.25275 25.8069 8.43476C25.5598 8.3394 25.5598 8.3394 25.3077 8.24211C23.1527 7.43281 21.1073 7.04519 18.8025 7.01796C18.5956 7.0142 18.3887 7.01045 18.1755 7.00658C15.4606 7.05304 13.2235 8.37867 11.622 10.546Z" fill="black"/>
<path d="M105.042 219.084C112.192 225.259 115.824 234.923 116.695 244.25C117.106 249.602 117.31 255.32 115.791 260.501C115.721 260.752 115.721 260.752 115.65 261.008C114.643 264.564 112.737 267.501 110.186 270.104C110.011 270.285 109.836 270.466 109.656 270.653C103.741 276.4 95.2896 277.276 87.5295 277.137C85.8859 277.086 84.2885 276.897 82.67 276.594C82.4973 276.561 82.3246 276.529 82.1467 276.496C76.1706 275.345 70.7741 272.447 67.2153 267.263C62.0906 259.381 62.3876 248.139 64.1629 239.196C65.9267 231.013 70.0165 222.091 77.1048 217.349C77.3439 217.199 77.583 217.049 77.8293 216.894C77.9768 216.799 78.1243 216.705 78.2762 216.608C87.1555 210.982 97.1174 212.741 105.042 219.084Z" fill="#F4A99C"/>
<path d="M90.7571 208.889C91.2245 208.92 91.2245 208.92 91.7013 208.951C99.7649 209.622 106.752 213.347 111.987 219.48C116.255 224.636 119.143 230.805 120.876 237.241C120.966 237.566 120.966 237.566 121.057 237.898C122.109 242.005 122.47 246.17 122.44 250.398C122.436 251.093 122.44 251.788 122.445 252.484C122.45 256.184 122.15 259.896 120.908 263.412C120.844 263.598 120.779 263.784 120.713 263.975C118.202 270.926 113.249 276.516 106.603 279.769C97.2451 284.117 85.2388 284.342 75.5731 280.85C70.9929 279.116 66.7401 276.251 63.7582 272.311C63.5744 272.069 63.3905 271.827 63.2011 271.578C56.7592 262.699 56.573 251.904 58.1642 241.41C58.549 239 59.1697 236.674 59.9376 234.359C60.0292 234.08 60.0292 234.08 60.1227 233.796C60.9551 231.311 62.0485 228.978 63.267 226.661C63.4773 226.259 63.681 225.853 63.8836 225.447C67.4631 218.47 74.2176 212.57 81.6514 210.099C84.5752 209.269 87.7122 208.66 90.7571 208.889ZM73.1824 221.879C73.0005 222.061 72.8186 222.243 72.6312 222.431C68.1737 227.164 65.6387 233.486 64.204 239.74C64.1654 239.907 64.1269 240.074 64.0872 240.246C63.3795 243.557 63.1644 246.853 63.1824 250.228C63.1851 250.838 63.1824 251.448 63.1792 252.058C63.1726 258.917 64.8584 265.389 69.6642 270.464C75.6537 276.195 83.7771 277.312 91.7382 277.197C99.1922 277.015 106.097 274.572 111.326 269.151C112.257 268.075 112.986 266.927 113.681 265.688C113.817 265.45 113.953 265.212 114.094 264.966C115.147 263.007 115.777 260.985 116.228 258.811C116.296 258.493 116.296 258.493 116.366 258.169C116.811 255.867 116.817 253.601 116.801 251.266C116.8 251.062 116.799 250.858 116.798 250.649C116.785 247.74 116.737 244.872 116.228 242.001C116.196 241.822 116.165 241.644 116.132 241.46C114.959 235.044 112.601 228.674 108.332 223.662C108.02 223.284 108.02 223.284 107.701 222.898C105.955 220.847 103.935 219.305 101.71 217.804C101.487 217.649 101.264 217.494 101.034 217.334C91.9797 211.428 80.276 214.689 73.1824 221.879Z" fill="black"/>
<path d="M153.924 29.8299C154.701 30.3389 155.325 30.9408 155.962 31.6129C156.156 31.8073 156.351 32.0016 156.551 32.2019C158.837 35.8432 157.735 40.5922 156.867 44.5104C156.288 46.9666 155.515 49.3521 154.689 51.7347C154.62 51.9357 154.551 52.1367 154.48 52.3437C154.108 53.4301 153.727 54.5124 153.333 55.5911C153.171 56.0348 153.012 56.4795 152.854 56.9244C152.088 59.0079 151.127 60.961 150.114 62.9317C149.856 63.4374 149.604 63.9455 149.355 64.4551C146.331 70.623 142.911 76.8418 138.387 82.0448C138.192 82.2693 138.192 82.2693 137.993 82.4984C137.587 82.9609 137.177 83.4192 136.764 83.8755C136.639 84.0135 136.515 84.1515 136.387 84.2936C135.462 85.2884 134.683 86.0191 133.318 86.2395C132.065 86.2524 131.234 86.2514 130.125 85.6266C128.49 83.6728 128.04 82.2871 128.199 79.7524C128.334 78.4936 128.522 77.245 128.724 75.9955C128.766 75.7322 128.766 75.7322 128.809 75.4636C131.043 61.5289 135.289 40.9298 147.541 32.0268C149.459 30.6861 151.511 29.4018 153.924 29.8299Z" fill="#F4A99C"/>
<path d="M27.964 29.8968C28.1767 29.9589 28.3895 30.0209 28.6087 30.0849C28.8162 30.1443 29.0237 30.2037 29.2375 30.2649C35.6056 32.4716 39.225 39.2064 41.9898 44.8986C43.6309 48.364 44.9508 51.9275 46.1835 55.5555C46.2543 55.7603 46.3251 55.9651 46.398 56.1761C48.6434 62.7088 50.0111 69.4757 51.1256 76.2785C51.3069 77.3843 51.4963 78.4887 51.6867 79.593C52.0035 81.7049 51.9812 83.1022 50.7175 84.8786C49.9801 85.6464 49.3176 86.0612 48.2639 86.2487C46.6896 86.2796 45.6111 86.1989 44.4115 85.1353C36.7967 77.1857 31.275 66.6609 27.0805 56.5744C26.9406 56.2554 26.8003 55.9367 26.6596 55.6182C25.1767 52.2107 24.0644 48.6711 23.0052 45.1126C22.9472 44.9202 22.8892 44.7278 22.8294 44.5296C22.1888 42.3156 22.147 40.0645 22.0978 37.7738C22.0877 37.4819 22.0777 37.19 22.0674 36.8892C22.0604 34.4415 22.8334 33.041 24.3304 31.1644C25.531 30.0348 26.31 29.5624 27.964 29.8968Z" fill="#F4A99C"/>
<path d="M147.688 148.051C150.257 149.969 152.059 152.234 152.578 155.445C152.963 159.254 152.509 162.18 150.118 165.232C148.393 167.248 146.104 168.598 143.481 169.155C139.854 169.34 137.01 169.174 134.057 166.862C133.903 166.746 133.749 166.63 133.59 166.51C131.819 164.98 130.261 162.067 129.982 159.731C129.73 156.191 130.362 153.413 132.529 150.561C132.805 150.167 132.805 150.167 133.086 149.765C136.757 145.557 143.166 145.134 147.688 148.051Z" fill="#F4A99C"/>
<path d="M44.5916 148.062C47.1392 149.779 48.87 152.106 49.6111 155.091C50.192 158.531 49.7932 161.832 47.8231 164.777C46.0079 167.092 43.6915 168.521 40.8346 169.155C36.7745 169.4 33.9055 168.804 30.6712 166.221C28.9382 164.662 27.5276 162.05 27.2794 159.715C27.0824 155.908 27.5725 153.03 30.0126 149.975C33.9537 145.7 39.6897 145.158 44.5916 148.062Z" fill="#F4A99C"/>
<path d="M90.1204 144.894C90.3945 144.892 90.6687 144.89 90.9512 144.888C94.7109 144.897 94.7109 144.897 96.1547 145.826C97.0136 146.861 97.3253 147.628 97.2243 148.983C96.9189 150.7 95.9795 152.43 94.5787 153.494C93.822 153.977 93.1398 154.352 92.2854 154.636C92.1407 157.107 92.4402 159.55 94.0683 161.513C95.287 162.732 96.5787 162.967 98.2391 163.121C100.064 162.964 101.837 162.473 103.238 161.259C103.73 160.607 104.189 159.943 104.635 159.258C105.021 158.712 105.021 158.712 105.53 158.457C106.651 158.328 107.196 158.391 108.189 158.95C108.947 159.857 109.057 160.279 108.973 161.429C108.523 163.463 106.833 165.092 105.194 166.267C101.981 168.312 98.4559 168.63 94.7339 167.987C93.0842 167.473 91.971 166.495 90.7561 165.29C90.3 164.767 90.3 164.767 89.7383 164.825C89.5807 165.045 89.4231 165.266 89.2607 165.493C88.1382 166.912 86.1369 167.771 84.3895 168.136C80.4261 168.454 77.1353 168.13 73.9465 165.589C72.6207 164.428 71.3188 163.281 71.0661 161.455C71.012 160.449 71.0056 159.916 71.6223 159.094C72.5819 158.416 73.2051 158.347 74.3604 158.481C75.3881 158.873 75.7759 159.729 76.3354 160.635C77.1248 161.828 78.2231 162.318 79.55 162.787C81.5438 163.134 83.5866 163.284 85.4083 162.278C86.869 161.012 87.3812 159.29 87.7007 157.438C87.745 157.191 87.7893 156.944 87.835 156.69C87.9111 155.922 87.928 155.375 87.7007 154.636C87.1051 154.113 86.5104 153.794 85.8013 153.442C84.1817 152.606 83.4242 150.958 82.8612 149.287C82.6963 148.236 82.7934 147.879 83.3229 146.947C85.098 144.665 87.3778 144.874 90.1204 144.894Z" fill="black"/>
<path d="M128.239 134.873C130.332 136.528 131.163 138.711 131.488 141.311C131.539 143.284 131.027 145.229 129.727 146.74C128.042 148.51 126.444 149.298 123.996 149.383C121.736 149.301 120.165 148.666 118.525 147.084C116.896 145.19 116.537 143.252 116.632 140.794C116.899 138.436 117.755 136.606 119.539 135.024C122.068 133.204 125.631 133.172 128.239 134.873Z" fill="black"/>
<path d="M59.9376 134.769C61.7743 135.878 62.5863 137.876 63.2488 139.864C63.4589 142.78 63.1135 144.959 61.238 147.246C59.5429 148.869 57.4263 149.383 55.15 149.358C53.357 149.203 51.7004 148.463 50.3961 147.214C48.644 145.097 48.4503 142.737 48.6696 140.1C48.9248 138.042 49.9799 136.368 51.5323 135.024C54.1982 133.125 57.088 133.375 59.9376 134.769Z" fill="black"/>
<path d="M59.1684 117.324C59.8326 117.803 60.146 118.398 60.4824 119.123C60.5467 119.259 60.5467 119.259 60.6123 119.397C60.7518 119.693 60.89 119.989 61.0281 120.285C61.1249 120.492 61.2217 120.698 61.3185 120.904C62.0065 122.371 62.6765 123.846 63.3318 125.329C63.4283 125.524 63.4283 125.524 63.5267 125.723C63.7059 126.114 63.7845 126.494 63.8658 126.916C64.0782 127.787 64.3345 128.495 65.0389 129.08C66.591 129.806 68.5461 129.819 70.2252 129.97C71.006 130.044 71.7848 130.135 72.5639 130.225C73.17 130.294 73.776 130.36 74.3834 130.418C74.551 130.435 74.551 130.435 74.7221 130.452C74.9288 130.473 75.1357 130.492 75.3428 130.509C76.1652 130.594 76.898 130.832 77.452 131.473C77.8111 131.981 77.9808 132.311 77.9897 132.939C77.9931 133.046 77.9965 133.152 78 133.262C77.829 134.395 77.0285 135.085 76.2472 135.848C76.1265 135.968 76.0059 136.087 75.8855 136.207C75.5696 136.521 75.2523 136.834 74.9346 137.146C74.4273 137.645 73.9222 138.146 73.4169 138.647C73.2418 138.82 73.0662 138.993 72.8905 139.165C72.3425 139.706 71.8103 140.251 71.3122 140.838C70.9979 141.203 70.659 141.543 70.3193 141.883C70.251 141.953 70.1827 142.023 70.1123 142.095C69.9395 142.269 69.7602 142.436 69.5799 142.601C69.501 142.601 69.4221 142.601 69.3409 142.601C69.6079 144.546 69.9171 146.483 70.2371 148.419C70.3966 149.387 70.5555 150.355 70.7138 151.323C70.7713 151.673 70.8297 152.023 70.8883 152.372C70.9215 152.574 70.9546 152.775 70.9877 152.977C71.0028 153.064 71.0178 153.152 71.0333 153.243C71.1948 154.238 71.2356 155.133 70.6554 156.003C70.0021 156.621 69.4462 156.917 68.5445 156.901C67.697 156.772 66.9721 156.297 66.2339 155.883C65.9945 155.751 65.755 155.619 65.5155 155.487C64.9703 155.186 64.4263 154.883 63.8831 154.578C63.2831 154.242 62.6819 153.908 62.0794 153.576C62.0025 153.533 61.9256 153.491 61.8464 153.447C61.5466 153.282 61.2468 153.117 60.9467 152.952C60.7399 152.839 60.5332 152.725 60.3265 152.611C60.1958 152.54 60.065 152.468 59.9303 152.394C59.6654 152.244 59.4045 152.086 59.1473 151.923C59.0223 151.844 58.8972 151.765 58.7684 151.684C58.6582 151.611 58.5481 151.539 58.4346 151.464C58.1089 151.302 58.1089 151.302 57.7535 151.41C57.3808 151.58 57.0218 151.76 56.6636 151.959C56.5955 151.996 56.5274 152.034 56.4572 152.073C56.2353 152.195 56.0139 152.319 55.7925 152.443C55.6366 152.529 55.4808 152.616 55.3249 152.703C54.2472 153.303 53.1799 153.92 52.1166 154.545C51.2205 155.072 50.3194 155.589 49.4142 156.1C49.2867 156.172 49.1593 156.245 49.028 156.319C48.9096 156.386 48.7912 156.452 48.6692 156.521C48.5648 156.58 48.4604 156.639 48.3528 156.699C47.7675 156.991 47.1609 157.053 46.5163 156.96C45.8424 156.68 45.3824 156.229 44.9628 155.644C44.5512 154.407 44.9371 152.942 45.1486 151.686C45.1803 151.492 45.2118 151.297 45.2433 151.103C45.3258 150.596 45.4098 150.088 45.4941 149.581C45.6285 148.771 45.7608 147.961 45.893 147.151C45.9387 146.872 45.9851 146.593 46.0316 146.314C46.1033 145.882 46.1709 145.449 46.2364 145.016C46.2645 144.837 46.2942 144.657 46.3253 144.479C46.3729 144.204 46.4158 143.93 46.458 143.654C46.4735 143.572 46.489 143.489 46.5049 143.405C46.5528 143.066 46.5636 142.803 46.3897 142.502C46.1227 142.174 45.8288 141.907 45.4977 141.644C45.4001 141.565 45.3024 141.486 45.2018 141.405C45.2018 141.326 45.2018 141.247 45.2018 141.165C45.1229 141.165 45.044 141.165 44.9628 141.165C44.7923 140.992 44.7923 140.992 44.5933 140.751C44.124 140.199 43.6214 139.689 43.1068 139.18C42.9643 139.038 42.9643 139.038 42.819 138.893C42.5181 138.593 42.2169 138.294 41.9155 137.994C41.5181 137.6 41.121 137.205 40.7242 136.809C40.6345 136.72 40.5447 136.631 40.4522 136.54C39.8986 135.988 39.3762 135.418 38.8683 134.824C38.7815 134.726 38.7815 134.726 38.6931 134.627C38.1795 134.038 37.9781 133.588 38.0019 132.795C38.0909 132.065 38.4798 131.503 38.9878 130.995C39.5794 130.698 40.1332 130.558 40.7896 130.473C40.8833 130.46 40.9771 130.447 41.0737 130.433C41.2773 130.405 41.4809 130.377 41.6847 130.35C42.011 130.306 42.3368 130.259 42.6626 130.211C43.7991 130.047 44.9339 129.904 46.0775 129.8C46.6316 129.748 47.1848 129.689 47.7381 129.629C48.0074 129.602 48.2771 129.579 48.5471 129.56C49.9501 129.511 49.9501 129.511 51.1359 128.875C51.4709 128.358 51.6443 127.795 51.8094 127.206C51.9353 126.789 52.1214 126.41 52.3139 126.02C52.383 125.874 52.4517 125.728 52.52 125.581C52.5544 125.508 52.5887 125.435 52.6241 125.359C52.9317 124.7 53.2333 124.038 53.5355 123.377C53.6175 123.198 53.6995 123.018 53.7816 122.839C54.2095 121.906 54.6342 120.973 55.0335 120.027C55.0918 119.89 55.15 119.753 55.2101 119.612C55.3163 119.361 55.4209 119.109 55.5235 118.856C55.8897 117.99 56.2431 117.603 57.0622 117.13C57.7925 116.91 58.4882 116.966 59.1684 117.324Z" fill="#010100"/>
<path d="M57.8253 123.316C58.2147 123.511 58.3068 123.953 58.4731 124.339C58.5663 124.552 58.6598 124.764 58.7534 124.976C58.8076 125.099 58.8618 125.222 58.9176 125.348C59.264 126.126 59.619 126.9 59.9735 127.674C60.1414 128.04 60.3089 128.407 60.4765 128.774C60.5579 128.951 60.6397 129.129 60.7219 129.306C60.9292 129.753 61.1306 130.201 61.3223 130.655C61.3614 130.745 61.4006 130.835 61.4409 130.928C61.5144 131.097 61.5859 131.267 61.6548 131.438C61.9361 132.074 62.3164 132.394 62.9496 132.673C63.2717 132.771 63.5886 132.819 63.9222 132.858C64.0161 132.871 64.11 132.884 64.2068 132.898C64.4135 132.926 64.6204 132.954 64.8273 132.98C65.1815 133.026 65.5351 133.075 65.8888 133.125C66.6702 133.235 67.4521 133.341 68.234 133.447C68.6369 133.502 69.0397 133.557 69.4425 133.612C69.6907 133.646 69.9389 133.68 70.1871 133.713C70.2988 133.728 70.4106 133.744 70.5257 133.759C70.6232 133.773 70.7208 133.786 70.8213 133.799C71.1112 133.844 71.3972 133.899 71.6842 133.959C71.1252 134.642 70.5134 135.263 69.887 135.883C69.703 136.065 69.5195 136.248 69.3362 136.43C68.8154 136.949 68.2941 137.468 67.7716 137.985C67.4507 138.303 67.1306 138.622 66.811 138.941C66.6897 139.062 66.5681 139.183 66.4462 139.303C66.2756 139.471 66.1062 139.64 65.937 139.81C65.8406 139.906 65.7442 140.001 65.6448 140.1C65.0086 140.844 64.9626 141.512 65.0214 142.458C65.1167 143.521 65.3135 144.574 65.4899 145.626C65.532 145.882 65.5739 146.139 65.6157 146.395C65.7161 147.009 65.8179 147.623 65.9204 148.236C65.9925 148.669 66.0642 149.101 66.1359 149.533C66.1995 149.917 66.2632 150.301 66.327 150.684C65.9016 150.55 65.5169 150.407 65.1314 150.182C65.0389 150.129 64.9463 150.075 64.851 150.02C64.752 149.962 64.653 149.904 64.551 149.844C64.446 149.783 64.3411 149.722 64.233 149.659C64.0047 149.526 63.7766 149.394 63.5486 149.26C63.1655 149.037 62.7817 148.815 62.3978 148.593C61.8875 148.298 61.3773 148.003 60.8674 147.707C60.7504 147.639 60.6335 147.571 60.513 147.501C60.2633 147.356 60.0143 147.209 59.7656 147.062C59.6407 146.988 59.5158 146.914 59.3871 146.838C59.2745 146.771 59.1619 146.704 59.0459 146.635C58.4935 146.327 57.9781 146.242 57.3595 146.357C56.8397 146.58 56.3573 146.856 55.8696 147.142C55.6019 147.299 55.3325 147.452 55.0625 147.605C54.2271 148.081 53.3955 148.562 52.5653 149.047C52.29 149.207 52.0145 149.368 51.7391 149.528C51.54 149.644 51.3413 149.761 51.1425 149.877C50.9592 149.984 50.9592 149.984 50.7721 150.093C50.6639 150.156 50.5556 150.22 50.4441 150.285C50.1539 150.442 49.8651 150.568 49.5566 150.684C49.6162 150.26 49.6772 149.836 49.7385 149.412C49.7583 149.276 49.7781 149.139 49.7985 148.998C49.9328 148.088 50.0793 147.18 50.2349 146.272C50.2533 146.164 50.2717 146.056 50.2907 145.945C50.3828 145.404 50.4761 144.864 50.5713 144.325C50.9956 142.378 50.9956 142.378 50.554 140.514C50.131 139.959 49.6218 139.484 49.1198 139.003C48.894 138.785 48.6692 138.566 48.4447 138.346C48.2955 138.202 48.2955 138.202 48.1432 138.056C47.9261 137.819 47.9261 137.819 47.9261 137.585C47.8516 137.554 47.7772 137.522 47.7005 137.49C47.4603 137.351 47.4603 137.351 47.3438 137C47.2669 137 47.1901 137 47.1109 137C46.9464 136.832 46.9464 136.832 46.7538 136.598C46.2825 136.041 45.7733 135.531 45.2548 135.019C45.0763 134.843 44.8981 134.666 44.7202 134.49C44.6036 134.375 44.6036 134.375 44.4846 134.257C44.3158 134.076 44.3158 134.076 44.3158 133.959C44.8495 133.873 45.3833 133.788 45.9171 133.703C45.999 133.69 46.0808 133.677 46.1651 133.664C47.1709 133.504 48.1774 133.353 49.1867 133.218C49.3275 133.199 49.3275 133.199 49.4711 133.179C49.9275 133.118 50.3841 133.057 50.8409 132.999C52.4833 132.81 52.4833 132.81 53.8656 131.971C54.0216 131.703 54.1519 131.452 54.2769 131.17C54.3133 131.092 54.3498 131.013 54.3873 130.932C54.506 130.674 54.6226 130.416 54.7391 130.158C54.8212 129.979 54.9034 129.8 54.9858 129.621C55.1534 129.256 55.3202 128.891 55.4864 128.526C55.7107 128.033 55.9382 127.543 56.1671 127.052C56.3001 126.767 56.4331 126.481 56.5661 126.196C56.6562 126.003 56.6562 126.003 56.748 125.806C57.1283 124.984 57.4847 124.155 57.8253 123.316Z" fill="#FFBB4D"/>
<path d="M123.502 117.509C124.187 118.169 124.499 119.055 124.873 119.914C124.946 120.08 125.02 120.247 125.094 120.413C125.245 120.756 125.396 121.098 125.547 121.441C125.876 122.192 126.209 122.94 126.542 123.688C126.604 123.828 126.666 123.967 126.729 124.111C127.075 124.886 127.426 125.658 127.785 126.427C127.843 126.552 127.843 126.552 127.902 126.679C128.091 127.083 128.28 127.487 128.471 127.891C128.539 128.036 128.607 128.181 128.675 128.326C128.765 128.517 128.765 128.517 128.857 128.711C128.985 129.013 128.985 129.013 128.985 129.253C129.099 129.259 129.212 129.264 129.329 129.27C130.56 129.337 131.775 129.468 132.997 129.63C133.192 129.655 133.387 129.681 133.583 129.706C133.988 129.76 134.393 129.813 134.798 129.867C135.314 129.936 135.83 130.003 136.347 130.069C136.748 130.121 137.15 130.174 137.551 130.228C137.742 130.253 137.932 130.278 138.122 130.302C140.657 130.625 140.657 130.625 141.502 131.65C141.901 132.266 142.061 132.705 141.979 133.447C141.718 134.601 140.727 135.367 139.915 136.151C139.697 136.364 139.479 136.578 139.262 136.792C139.127 136.924 138.992 137.056 138.857 137.187C138.513 137.521 138.19 137.864 137.879 138.23C137.442 138.739 136.965 139.195 136.477 139.654C136.294 139.83 136.112 140.006 135.929 140.182C135.646 140.456 135.361 140.728 135.073 140.997C133.989 141.938 133.989 141.938 133.284 143.148C133.309 143.535 133.405 143.86 133.515 144.232C133.57 144.536 133.616 144.841 133.662 145.147C133.716 145.5 133.775 145.851 133.835 146.203C133.965 146.967 134.094 147.732 134.221 148.497C134.243 148.624 134.264 148.752 134.286 148.883C134.458 149.914 134.628 150.945 134.788 151.978C134.825 152.214 134.863 152.451 134.901 152.687C135.283 155.185 135.283 155.185 134.819 156.043C134.395 156.602 133.979 156.876 133.295 156.992C132.16 157.065 131.366 156.648 130.416 156.095C130.213 155.98 130.009 155.866 129.805 155.752C129.341 155.49 128.877 155.226 128.414 154.961C127.544 154.462 126.671 153.971 125.795 153.483C125.183 153.139 124.575 152.79 123.975 152.426C123.804 152.324 123.804 152.324 123.63 152.219C123.416 152.09 123.203 151.96 122.992 151.827C122.897 151.77 122.802 151.713 122.703 151.654C122.621 151.603 122.539 151.552 122.454 151.5C121.877 151.329 121.307 151.734 120.807 152.005C120.681 152.074 120.555 152.142 120.425 152.212C120.292 152.285 120.16 152.358 120.023 152.433C119.885 152.508 119.748 152.583 119.606 152.66C118.588 153.215 117.584 153.792 116.584 154.38C116.117 154.655 115.645 154.918 115.168 155.176C114.848 155.35 114.53 155.526 114.212 155.704C114.105 155.763 113.999 155.822 113.889 155.884C113.676 156.003 113.462 156.122 113.249 156.241C113.15 156.296 113.051 156.351 112.949 156.408C112.861 156.457 112.773 156.507 112.681 156.558C111.916 156.952 111.203 157.102 110.359 156.856C109.753 156.587 109.392 156.199 109.078 155.616C108.642 154.3 109.108 152.679 109.324 151.347C109.361 151.11 109.399 150.874 109.436 150.637C109.629 149.415 109.831 148.194 110.039 146.974C110.058 146.858 110.078 146.743 110.098 146.623C110.192 146.069 110.286 145.515 110.384 144.962C110.418 144.762 110.452 144.563 110.486 144.363C110.502 144.273 110.518 144.183 110.535 144.091C110.615 143.618 110.645 143.253 110.508 142.794C110.318 142.518 110.318 142.518 110.063 142.256C109.965 142.152 109.868 142.047 109.768 141.939C109.21 141.362 108.647 140.792 108.078 140.226C107.856 140.004 107.634 139.783 107.412 139.561C106.782 138.93 106.152 138.301 105.521 137.672C105.133 137.285 104.745 136.897 104.358 136.509C104.211 136.362 104.064 136.216 103.917 136.07C103.711 135.865 103.506 135.66 103.302 135.455C103.241 135.395 103.181 135.336 103.119 135.275C102.491 134.642 102.037 134.042 102 133.132C102.009 132.453 102.204 131.93 102.641 131.41C103.189 130.934 103.654 130.724 104.381 130.615C104.468 130.602 104.555 130.588 104.644 130.574C104.93 130.53 105.216 130.49 105.502 130.451C105.6 130.437 105.698 130.423 105.8 130.409C106.438 130.319 107.077 130.235 107.716 130.152C108.066 130.106 108.415 130.056 108.765 130.007C109.865 129.852 110.952 129.717 112.062 129.67C113.769 129.628 113.769 129.628 115.211 128.842C115.694 128.125 115.972 127.335 116.228 126.514C116.496 125.655 116.871 124.855 117.253 124.043C117.447 123.63 117.634 123.213 117.821 122.797C117.857 122.716 117.894 122.635 117.931 122.551C118.18 121.998 118.425 121.443 118.667 120.887C118.7 120.813 118.732 120.739 118.765 120.662C118.917 120.316 119.068 119.969 119.217 119.621C120.09 117.62 120.09 117.62 121.118 117.15C121.94 116.84 122.788 117.035 123.502 117.509Z" fill="#010100"/>
<path d="M122 123C122.403 123.33 122.576 123.778 122.784 124.242C122.825 124.33 122.865 124.419 122.907 124.51C123.039 124.8 123.17 125.09 123.301 125.381C123.392 125.581 123.484 125.782 123.575 125.982C124.011 126.944 124.44 127.908 124.856 128.878C124.892 128.961 124.927 129.043 124.964 129.129C125.13 129.516 125.294 129.904 125.457 130.292C125.944 131.602 125.944 131.602 127 132.409C127.546 132.584 128.114 132.648 128.68 132.726C128.817 132.746 128.954 132.766 129.095 132.787C129.532 132.85 129.969 132.912 130.406 132.974C130.837 133.036 131.267 133.099 131.698 133.161C131.978 133.201 132.258 133.242 132.538 133.282C133.694 133.448 134.847 133.628 136 133.815C135.55 134.355 135.087 134.869 134.587 135.362C134.524 135.425 134.46 135.489 134.395 135.554C134.128 135.82 133.86 136.085 133.592 136.351C132.92 137.019 132.255 137.684 131.641 138.408C131.243 138.862 130.8 139.274 130.364 139.69C129.676 140.364 129.324 141.009 129.285 141.985C129.288 142.588 129.396 143.174 129.496 143.766C129.516 143.891 129.537 144.016 129.558 144.144C129.623 144.542 129.689 144.939 129.755 145.337C129.798 145.599 129.842 145.862 129.885 146.125C130.119 147.553 130.119 147.553 130.368 148.979C130.385 149.073 130.402 149.167 130.419 149.264C130.464 149.509 130.509 149.754 130.554 150C130.607 150.342 130.628 150.655 130.615 151C130.21 150.845 129.835 150.669 129.458 150.454C129.35 150.393 129.243 150.331 129.132 150.268C129.017 150.203 128.902 150.137 128.783 150.069C128.663 150 128.543 149.932 128.419 149.861C127.296 149.219 126.18 148.566 125.065 147.91C124.956 147.846 124.847 147.782 124.735 147.717C124.491 147.573 124.249 147.428 124.006 147.283C123.879 147.207 123.752 147.13 123.621 147.052C123.505 146.983 123.39 146.913 123.271 146.842C122.711 146.542 122.151 146.468 121.521 146.554C121.153 146.686 120.822 146.87 120.482 147.064C120.384 147.118 120.285 147.172 120.184 147.228C119.871 147.402 119.559 147.578 119.248 147.755C119.149 147.811 119.05 147.867 118.948 147.925C117.997 148.462 117.053 149.011 116.11 149.563C115.823 149.731 115.536 149.898 115.249 150.065C115.04 150.187 114.832 150.31 114.623 150.432C114.497 150.506 114.37 150.58 114.24 150.656C114.126 150.723 114.013 150.789 113.897 150.857C113.624 151 113.624 151 113.385 151C113.585 149.465 113.832 147.942 114.103 146.418C114.134 146.24 114.166 146.061 114.197 145.883C114.44 144.512 114.44 144.512 114.531 144.001C114.587 143.688 114.64 143.375 114.693 143.061C114.709 142.977 114.724 142.893 114.74 142.806C114.906 141.793 114.804 141.094 114.224 140.253C113.737 139.629 113.167 139.083 112.604 138.528C112.471 138.396 112.338 138.263 112.205 138.13C111.857 137.783 111.509 137.437 111.16 137.092C110.599 136.536 110.04 135.978 109.481 135.42C109.285 135.226 109.09 135.032 108.894 134.838C108.775 134.72 108.656 134.602 108.538 134.484C108.434 134.38 108.33 134.277 108.222 134.171C108 133.936 108 133.936 108 133.815C108.404 133.749 108.808 133.684 109.212 133.62C109.344 133.599 109.477 133.578 109.613 133.556C110.577 133.407 111.542 133.279 112.51 133.159C112.757 133.128 113.004 133.097 113.252 133.067C113.624 133.02 113.996 132.975 114.368 132.931C114.721 132.889 115.074 132.846 115.427 132.802C115.533 132.79 115.638 132.778 115.747 132.766C116.522 132.666 117.194 132.463 117.793 131.941C118.37 131.134 118.747 130.229 119.143 129.324C119.222 129.148 119.3 128.971 119.379 128.795C119.498 128.526 119.618 128.258 119.737 127.989C120.112 127.144 120.498 126.303 120.886 125.464C121.264 124.645 121.638 123.826 122 123Z" fill="#FFBB4D"/>
<path d="M27.273 69.5883C27.3289 69.6114 27.3848 69.6346 27.4424 69.6584C28.8037 70.2268 30.0884 70.9305 31.3458 71.6991C31.3927 71.7275 31.4395 71.7559 31.4878 71.7852C32.0339 72.1171 32.5601 72.465 33.0677 72.8538C33.272 73.0131 33.272 73.0131 33.506 73.1191C33.5127 73.164 33.5193 73.209 33.5262 73.2553C33.5692 73.2674 33.6122 73.2795 33.6565 73.292C34.0914 73.4503 34.4538 73.8253 34.7986 74.1249C34.9223 74.2331 34.9223 74.2331 35.0565 74.3238C35.1589 74.4054 35.1589 74.4054 35.1792 74.5417C35.2358 74.4971 35.2925 74.4525 35.3508 74.4066C37.052 73.0923 39.2 72.5077 41.3428 72.766C41.9784 72.8531 42.575 72.9848 43.1721 73.2228C43.3402 73.2792 43.3402 73.2792 43.4643 73.195C43.6211 73.0624 43.7319 72.9201 43.8538 72.7547C43.9017 72.6899 43.9496 72.6252 43.999 72.5584C44.0485 72.4907 44.0979 72.423 44.1489 72.3533C44.1984 72.2864 44.248 72.2195 44.2991 72.1506C44.5233 71.846 44.7311 71.5441 44.92 71.2163C44.9915 71.1264 45.0655 71.0384 45.142 70.9527C45.3102 70.7599 45.4657 70.564 45.6148 70.356C45.8383 70.0503 46.086 69.774 46.3433 69.4965C46.5137 69.3116 46.6788 69.123 46.844 68.9335C49.858 65.5613 54.1932 62.4865 58.8175 62.122C60.3883 62.047 61.963 62.5929 63.1548 63.6105C65.5739 65.8639 66.5919 69.3057 67.376 72.4091C67.3893 72.4593 67.4026 72.5095 67.4163 72.5613C67.5549 73.1023 67.6409 73.6487 67.7232 74.2006C67.7385 74.3022 67.7538 74.4038 67.7691 74.5053C67.801 74.7179 67.8327 74.9304 67.8642 75.143C67.896 75.3571 67.9282 75.571 67.9609 75.785C68.1605 77.0909 68.3288 78.3868 68.3896 79.7082C68.3921 79.7607 68.3946 79.8133 68.3972 79.8675C68.4107 80.1609 68.4184 80.454 68.422 80.7477C68.4231 80.8337 68.4243 80.9196 68.4254 81.0082C68.4306 81.8854 68.3683 82.7524 68.2745 83.6241C68.2686 83.6815 68.2627 83.739 68.2566 83.7981C68.0831 85.4276 67.6012 87.0166 66.6836 88.3856C66.6463 88.4415 66.609 88.4975 66.5706 88.5552C65.7326 89.7472 64.37 90.5977 62.9475 90.8894C62.3594 90.9915 61.768 91.0733 61.1764 91.1523C61.3303 91.3108 61.4844 91.4693 61.6385 91.6276C61.6865 91.6769 61.7345 91.7262 61.7839 91.777C62.0786 92.0792 62.3754 92.3792 62.6742 92.6774C65.5221 95.5215 65.5221 95.5215 65.5402 96.6314C65.4955 97.1679 65.3466 97.6321 64.983 98.0369C63.889 98.9102 62.1846 98.7532 60.8654 98.7915C60.6962 98.797 60.527 98.8026 60.3577 98.8083C59.8161 98.8261 59.2745 98.8436 58.7328 98.8554C58.0345 98.8499 58.0345 98.8499 57.4053 99.0992C57.2942 99.2431 57.2142 99.3881 57.1314 99.5502C57.0674 99.6626 57.0033 99.7749 56.9392 99.8872C56.8676 100.014 56.7977 100.141 56.7282 100.269C56.3279 101.004 55.9073 101.728 55.472 102.442C55.4459 102.485 55.4199 102.528 55.3931 102.572C54.3431 104.303 54.3431 104.303 53.4314 104.586C52.832 104.712 52.3208 104.581 51.7904 104.284C51.5116 104.072 51.3226 103.778 51.1243 103.493C51.0934 103.449 51.0624 103.405 51.0305 103.359C50.6837 102.858 50.3587 102.343 50.037 101.826C50.0045 101.773 49.9719 101.721 49.9384 101.667C48.4939 99.3454 47.1267 96.9817 45.8146 94.5828C45.6331 94.251 45.4502 93.92 45.267 93.5892C44.6502 92.4736 44.0522 91.3491 43.4668 90.2167C43.4177 90.122 43.4177 90.122 43.3676 90.0254C43.2754 89.8473 43.1836 89.6689 43.0919 89.4905C43.0504 89.4104 43.0504 89.4104 43.0081 89.3286C42.9045 89.1258 42.8185 88.9566 42.7849 88.7297C42.7177 88.751 42.6505 88.7723 42.5813 88.7943C42.3331 88.8644 42.0954 88.9096 41.8404 88.9463C41.7528 88.9591 41.6651 88.9718 41.5749 88.985C41.4836 88.998 41.3924 89.0109 41.3012 89.0239C41.2081 89.0373 41.1151 89.0508 41.022 89.0643C40.7956 89.0971 40.5691 89.1296 40.3426 89.1618C40.3357 89.2011 40.3288 89.2405 40.3216 89.2811C39.4216 94.3926 38.369 99.5084 36.9338 104.5C36.8748 104.706 36.8176 104.913 36.7606 105.12C36.5221 105.969 36.2886 106.677 35.4927 107.148C35.0146 107.39 34.4513 107.417 33.9404 107.271C33.1501 106.945 32.5125 106.291 31.8874 105.725C31.8387 105.681 31.79 105.637 31.7399 105.591C31.2508 105.147 30.7713 104.694 30.2946 104.237C30.2142 104.16 30.1338 104.083 30.0533 104.007C29.9779 103.935 29.9028 103.863 29.8279 103.79C29.7275 103.695 29.6248 103.602 29.5221 103.508C29.4378 103.421 29.4378 103.421 29.3517 103.332C28.7928 103.045 27.917 103.433 27.3433 103.59C27.2516 103.615 27.1599 103.639 27.0682 103.664C26.6835 103.767 26.2991 103.87 25.9148 103.975C24.0434 104.482 24.0434 104.482 23.2374 104.604C23.1586 104.617 23.1586 104.617 23.0782 104.629C22.4915 104.706 21.9806 104.591 21.4887 104.265C20.9787 103.83 20.7858 103.321 20.7255 102.662C20.6795 101.62 21.4538 100.518 21.914 99.6247C21.9456 99.5628 21.9773 99.501 22.0099 99.4372C22.4568 98.5636 22.9177 97.6973 23.3792 96.8312C23.329 96.8377 23.2789 96.8441 23.2272 96.8507C20.8942 97.1443 19.1174 97.0053 17.1908 95.5767C15.5826 94.3059 14.5247 92.2288 13.8779 90.3209C13.8226 90.1582 13.7648 89.9966 13.707 89.8348C11.8278 84.4721 10.6743 76.9047 13.1611 71.5934C13.9007 70.1708 14.9183 69.1782 16.3982 68.5566C16.4594 68.5303 16.5207 68.5041 16.5838 68.4771C19.8603 67.2557 24.1655 68.2878 27.273 69.5883Z" fill="black"/>
<path d="M18.3918 70.6144C18.438 70.6076 18.4841 70.6008 18.5316 70.5938C23.5341 69.8668 28.3407 72.3022 32.2523 75.2131C32.5655 75.4487 32.8685 75.6934 33.1609 75.9548C33.2215 76.0084 33.2215 76.0084 33.2833 76.0631C33.3766 76.1459 33.4695 76.2294 33.5622 76.3129C33.4894 76.5836 33.3562 76.7995 33.2131 77.0392C32.6863 77.9584 32.4203 78.9567 32.2284 79.992C31.9134 79.9494 31.5997 79.905 31.2877 79.8436C30.2139 79.6332 29.1224 79.5205 28.0332 79.666C27.9742 79.6731 27.9153 79.6803 27.8545 79.6876C27.5725 79.7331 27.3833 79.7836 27.1837 79.9949C26.9432 80.343 26.9219 80.5524 26.9941 80.9605C27.0749 81.2687 27.2156 81.4371 27.4819 81.605C27.8268 81.7595 28.1929 81.7198 28.5629 81.7108C29.2344 81.7045 29.8991 81.7218 30.5689 81.7699C30.6452 81.7751 30.7216 81.7803 30.8002 81.7856C31.3128 81.8244 31.8126 81.8998 32.3172 81.9978C32.3274 82.0597 32.3376 82.1217 32.348 82.1855C32.6349 83.7255 33.3678 85.4863 34.5761 86.5407C34.68 86.6599 34.68 86.6599 34.7047 86.7895C34.6223 87.0302 34.4538 87.1917 34.2809 87.3718C34.2414 87.4136 34.2019 87.4554 34.1611 87.4985C33.3485 88.3429 32.4548 89.1204 31.532 89.8423C31.4831 89.8806 31.4342 89.9188 31.3839 89.9582C28.7413 92.0134 25.7053 93.981 22.3377 94.4996C22.2385 94.5151 22.1395 94.5312 22.0405 94.548C20.8669 94.7465 19.8962 94.598 18.8982 93.906C15.4384 91.1971 14.9644 85.4118 14.4711 81.3741C14.3857 80.6156 14.3439 79.8592 14.3419 79.0957C14.3409 78.9684 14.3409 78.9684 14.3399 78.8384C14.332 76.6724 14.4419 74.119 15.6193 72.2225C15.6513 72.1574 15.6833 72.0924 15.7163 72.0253C16.3688 71.0653 17.3037 70.7739 18.3918 70.6144Z" fill="#F4A99C"/>
<path d="M58.2465 64.6955C58.3318 64.6814 58.4171 64.6673 58.5049 64.6528C59.5278 64.4966 60.3464 64.6231 61.1961 65.2189C63.0334 66.5859 63.8829 69.0943 64.534 71.2032C64.5738 71.3313 64.5738 71.3313 64.6143 71.462C65.042 72.8825 65.3156 74.3141 65.5267 75.7814C65.5394 75.8684 65.5521 75.9555 65.5651 76.0451C66.0654 79.4905 66.7137 84.0497 64.69 87.1495C63.9603 88.0763 63.0848 88.4603 61.9412 88.6235C61.8941 88.6304 61.847 88.6372 61.7985 88.6442C58.6001 89.1026 55.3195 88.3121 52.3117 87.246C52.245 87.2224 52.1783 87.1987 52.1096 87.1744C48.4964 85.8772 48.4964 85.8772 47.4807 84.9795C47.4289 84.8376 47.4289 84.8376 47.5047 84.6153C47.5474 84.5279 47.5911 84.4409 47.6357 84.3544C47.6811 84.26 47.7261 84.1655 47.7709 84.0708C47.7932 84.0238 47.8155 83.9768 47.8385 83.9283C48.4238 82.6488 48.4913 81.2055 48.3561 79.8265C48.7248 79.5832 49.0957 79.3662 49.4958 79.1787C49.5499 79.1533 49.604 79.1279 49.6597 79.1017C50.5294 78.7043 51.4391 78.3922 52.3431 78.0825C52.402 78.0621 52.4609 78.0417 52.5216 78.0207C52.5725 78.0034 52.6234 77.9861 52.6759 77.9683C52.8775 77.8827 52.9854 77.7696 53.1066 77.5898C53.2274 77.2881 53.1976 76.9928 53.1114 76.6841C52.946 76.3797 52.7818 76.223 52.4653 76.0837C52.2528 76.0739 52.0521 76.1055 51.8429 76.1413C51.7832 76.151 51.7234 76.1607 51.6618 76.1707C50.4574 76.3858 49.3246 76.9177 48.2673 77.5202C48.0326 77.6466 48.0326 77.6466 47.8283 77.677C47.8004 77.6266 47.8004 77.6266 47.772 77.5752C47.2219 76.5879 46.6498 75.6539 45.7839 74.9113C45.6602 74.7961 45.6602 74.7961 45.5617 74.6019C45.6067 74.5952 45.6517 74.5885 45.698 74.5817C45.71 74.539 45.7221 74.4964 45.7345 74.4525C45.7961 74.2826 45.871 74.1603 45.9753 74.0132C46.0115 73.9616 46.0477 73.9101 46.085 73.857C46.1426 73.7759 46.1426 73.7759 46.2014 73.6932C46.2802 73.5814 46.3588 73.4694 46.4374 73.3574C46.4939 73.277 46.4939 73.277 46.5516 73.1949C46.6738 73.0186 46.7901 72.8389 46.905 72.6576C47.0689 72.4041 47.2487 72.177 47.4481 71.9504C47.5803 71.7976 47.7073 71.6412 47.8335 71.4834C50.1181 68.6296 53.1978 66.0795 56.7392 65.0062C56.8192 64.9811 56.8992 64.9561 56.9817 64.9302C57.3962 64.8174 57.8224 64.7602 58.2465 64.6955Z" fill="#F4A99C"/>
<path d="M45.8525 86.882C46.0735 86.8824 46.218 86.9406 46.4077 87.0496C46.4596 87.0789 46.5114 87.1083 46.5648 87.1385C46.6198 87.1702 46.6749 87.2019 46.7316 87.2346C46.8485 87.3005 46.9654 87.3663 47.0824 87.4319C47.1404 87.4646 47.1984 87.4972 47.2582 87.5308C49.0757 88.5426 51.0191 89.2753 52.9886 89.9307C53.0767 89.9603 53.0767 89.9603 53.1665 89.9905C53.8822 90.2288 54.6029 90.4097 55.3411 90.565C55.4652 90.5912 55.4652 90.5912 55.5918 90.618C55.9687 90.6959 56.3432 90.7669 56.7252 90.8145C57.5723 90.9261 57.9989 91.1457 58.5368 91.81C58.7392 92.055 58.9597 92.2834 59.1769 92.5151C59.2685 92.6144 59.36 92.7137 59.4515 92.813C60.1244 93.5394 60.8273 94.2376 61.526 94.9391C61.8264 95.241 62.1254 95.544 62.4218 95.8497C62.4566 95.8854 62.4913 95.921 62.5271 95.9578C62.761 96.2001 62.761 96.2001 62.7723 96.2763C62.2137 96.3266 61.6569 96.3468 61.0964 96.3597C59.7211 96.3947 58.3352 96.4348 56.9707 96.6195C56.909 96.6271 56.8473 96.6348 56.7837 96.6426C56.318 96.7133 55.9794 96.8628 55.6865 97.2417C55.5835 97.3977 55.4893 97.556 55.3977 97.7189C55.369 97.769 55.3403 97.8192 55.3108 97.8708C55.2249 98.0233 55.1411 98.1768 55.0577 98.3307C54.7992 98.8027 54.5344 99.2702 54.2621 99.7343C54.0968 100.016 53.9337 100.299 53.7725 100.583C53.2803 101.451 53.2803 101.451 53.0724 101.754C53.0274 101.761 52.9825 101.767 52.9361 101.774C51.5098 99.6652 50.2209 97.4803 48.9757 95.2605C48.9348 95.1876 48.9348 95.1876 48.8931 95.1132C48.0978 93.6953 47.3193 92.2683 46.5442 90.8392C46.5037 90.7646 46.4632 90.69 46.4214 90.6131C45.9132 89.677 45.4175 88.7361 44.9419 87.783C45.1085 87.5514 45.2709 87.3778 45.4951 87.2005C45.6888 87.0561 45.6888 87.0561 45.8525 86.882Z" fill="#F4A99C"/>
<path d="M36.7946 88.2425C37.0212 88.2936 37.2283 88.3894 37.4396 88.4835C37.5068 88.5129 37.5068 88.5129 37.5754 88.5429C37.6855 88.5911 37.7953 88.6398 37.9052 88.6886C37.8813 89.315 37.7598 89.923 37.6443 90.5375C37.6333 90.5967 37.6222 90.656 37.6109 90.7171C35.791 100.475 35.791 100.475 34.3491 104.603C34.3041 104.609 34.2592 104.616 34.2128 104.623C34.0878 104.513 33.9708 104.402 33.8537 104.285C33.7799 104.212 33.7062 104.139 33.6323 104.067C33.5941 104.029 33.5558 103.991 33.5164 103.952C33.3316 103.771 33.1432 103.594 32.9548 103.417C32.6743 103.153 32.3954 102.887 32.1183 102.619C32.0169 102.521 31.9156 102.423 31.8142 102.325C31.7284 102.242 31.6427 102.159 31.557 102.076C31.4057 101.93 31.2541 101.784 31.1025 101.638C31.0309 101.569 31.0309 101.569 30.9579 101.498C30.418 100.973 30.418 100.973 29.7308 100.693C29.5223 100.701 29.335 100.719 29.1303 100.752C29.068 100.761 29.0057 100.771 28.9415 100.781C27.3676 101.047 25.8016 101.485 24.27 101.931C23.9796 102.015 23.6997 102.085 23.3982 102.12C23.4529 101.787 23.6049 101.533 23.7782 101.25C24.1355 100.652 24.4566 100.038 24.7727 99.4168C24.8451 99.2747 24.918 99.1327 24.9912 98.991C25.221 98.5449 25.4469 98.097 25.6708 97.648C25.7358 97.5179 25.8009 97.3878 25.8663 97.2578C26.0125 96.9665 26.1571 96.675 26.2943 96.3793C26.3173 96.3311 26.3403 96.2828 26.364 96.2331C26.4244 96.1062 26.4834 95.9785 26.5423 95.8508C26.7215 95.591 26.9212 95.4901 27.1988 95.3599C27.3322 95.2926 27.4655 95.225 27.5987 95.1572C27.6727 95.1198 27.7468 95.0824 27.8231 95.0439C30.9633 93.4469 34.3922 91.1552 36.5554 88.3313C36.6561 88.2474 36.6561 88.2474 36.7946 88.2425Z" fill="#F4A99C"/>
<path d="M43.0943 75.8031C44.3754 76.5379 45.1952 77.678 45.7318 79.032C45.7527 79.0836 45.7737 79.1351 45.7952 79.1883C46.158 80.3329 46.0819 81.5904 45.7226 82.7234C45.7033 82.7887 45.6839 82.854 45.6639 82.9214C45.2219 84.2717 44.2397 85.362 42.9908 86.0235C41.5538 86.7464 40.0575 86.8613 38.5264 86.3661C37.0341 85.8455 35.9253 84.8169 35.2199 83.4074C34.5229 81.8561 34.4711 80.2947 35.0166 78.6946C35.1761 78.282 35.3855 77.9102 35.6239 77.5384C35.6524 77.4922 35.6809 77.4459 35.7102 77.3983C37.3037 75.0269 40.6799 74.4666 43.0943 75.8031Z" fill="#F4A99C"/>
</svg>
