<svg width="198" height="326" viewBox="0 0 198 326" fill="none" xmlns="http://www.w3.org/2000/svg">
<path d="M38.9834 8.30218C39.8787 9.08682 40.741 9.90174 41.5988 10.7271C41.7718 10.8841 41.9448 11.041 42.1231 11.2027C44.9755 13.8713 47.2404 17.3264 49.24 20.6607C49.3524 20.8468 49.4648 21.0329 49.5806 21.2247C58.8843 36.7414 65.1806 56.8966 65.0318 75.1679C65.3779 75.069 65.3779 75.069 65.731 74.968C68.0511 74.3242 70.3522 73.8511 72.7366 73.4964C72.9126 73.47 73.0885 73.4436 73.2697 73.4165C74.3483 73.2552 75.4275 73.0994 76.5073 72.9465C76.9634 72.8812 77.4191 72.8131 77.8748 72.7447C90.3229 70.9014 102.959 72.5315 115.209 74.9132C115.198 74.6249 115.187 74.3367 115.176 74.0396C115.179 72.0991 115.477 70.1788 115.734 68.259C115.762 68.0489 115.79 67.8389 115.819 67.6225C118.22 49.7156 122.7 29.9308 134.312 15.5665C134.427 15.4223 134.542 15.2781 134.661 15.1295C140.438 7.92823 148.187 1.88286 157.49 0.284148C163.063 -0.0541722 167.581 0.202945 172.024 3.83412C173.592 5.2954 174.583 7.0671 175.574 8.94418C175.706 9.19239 175.838 9.44061 175.973 9.69636C177.441 12.6927 177.899 15.9926 177.919 19.2986C177.92 19.5046 177.922 19.7106 177.924 19.9229C177.928 20.588 177.93 21.2531 177.931 21.9183C177.931 22.2603 177.931 22.2603 177.931 22.6092C177.927 26.3383 177.741 29.9699 177.103 33.6507C177.039 34.0263 177.039 34.0263 176.974 34.4094C173.349 55.2872 163.948 75.8097 150.613 92.2333C151.374 93.1423 152.132 94.0209 152.985 94.844C154.168 96.0085 155.18 97.3073 156.217 98.6009C156.385 98.8029 156.553 99.0048 156.726 99.2128C159.169 102.172 161.187 105.466 163.094 108.789C163.185 108.947 163.277 109.105 163.371 109.268C168.915 118.932 172.322 130.68 172.297 141.855C172.297 142.106 172.298 142.357 172.298 142.615C172.298 143.14 172.298 143.665 172.296 144.191C172.295 144.989 172.296 145.788 172.298 146.586C172.298 147.1 172.298 147.614 172.297 148.127C172.298 148.363 172.298 148.599 172.299 148.842C172.294 150.283 172.192 151.678 172.009 153.108C172.251 153.125 172.251 153.125 172.499 153.143C173.238 153.197 173.976 153.256 174.715 153.315C174.969 153.333 175.224 153.351 175.486 153.369C176.86 153.483 177.956 153.611 179.14 154.382C179.757 155.122 179.895 155.57 180 156.531C179.892 157.552 179.733 158.126 179.14 158.966C177.756 159.722 176.743 159.814 175.192 159.667C175.009 159.653 174.825 159.64 174.636 159.626C173.498 159.538 172.373 159.393 171.244 159.221C170.673 160.884 170.165 162.56 169.684 164.252C169.617 164.486 169.55 164.72 169.48 164.961C169.416 165.188 169.351 165.415 169.284 165.648C169.227 165.851 169.169 166.054 169.109 166.263C168.946 166.884 168.817 167.506 168.697 168.136C168.965 168.228 169.233 168.321 169.508 168.416C174.362 170.138 174.362 170.138 175.574 171.956C175.745 172.832 175.752 173.629 175.574 174.504C174.933 175.429 174.188 175.893 173.136 176.261C171.811 176.3 170.751 175.787 169.541 175.284C169.063 175.089 168.584 174.896 168.105 174.704C167.79 174.573 167.79 174.573 167.468 174.44C166.892 174.207 166.892 174.207 166.15 174.249C165.74 174.879 165.377 175.5 165.02 176.159C163.153 179.465 160.888 182.465 158.254 185.201C158.052 185.415 158.052 185.415 157.846 185.634C153.766 189.939 149.039 193.145 143.752 195.819C143.497 195.949 143.497 195.949 143.236 196.081C142.504 196.44 142.016 196.663 141.189 196.663C141.189 196.831 141.189 196.999 141.189 197.172C141.394 197.225 141.598 197.277 141.809 197.332C143.009 197.794 143.976 198.474 145.026 199.21C145.24 199.359 145.454 199.507 145.675 199.661C148.642 201.733 151.44 203.98 154.179 206.342C154.362 206.498 154.544 206.655 154.732 206.816C155.231 207.248 155.725 207.685 156.217 208.125C156.426 208.31 156.634 208.495 156.85 208.686C160.246 211.745 163.635 214.921 166.405 218.568C166.598 218.807 166.79 219.046 166.989 219.293C171.438 224.888 177.066 232.678 176.339 240.218C176.316 240.524 176.316 240.524 176.294 240.836C175.887 244.145 173.99 247.466 171.499 249.642C169.87 250.859 168.082 251.591 166.15 252.189C165.977 252.247 165.804 252.305 165.625 252.364C159.916 253.97 153.302 251.682 148.121 249.359C147.918 249.268 147.716 249.178 147.508 249.085C147.356 249.017 147.204 248.948 147.047 248.878C147.107 249.325 147.107 249.325 147.167 249.781C149.193 265.136 150.383 280.522 150.421 296.011C150.422 296.515 150.424 297.018 150.426 297.522C150.452 305.497 150.388 313.753 144.732 320.022C141.978 322.642 138.449 324.088 134.821 325.035C134.633 325.085 134.446 325.135 134.252 325.186C131.95 325.697 129.59 325.648 127.244 325.653C126.502 325.656 125.76 325.669 125.018 325.681C121.201 325.715 117.991 325.076 114.588 323.284C114.42 323.197 114.251 323.11 114.077 323.02C110.283 321.01 107.394 317.807 106.037 313.692C105.068 310.498 104.572 307.177 104.002 303.895C103.885 303.235 103.767 302.575 103.649 301.916C103.511 301.132 103.374 300.348 103.238 299.565C102.929 299.588 102.929 299.588 102.615 299.611C95.6982 300.118 88.8495 300.195 81.922 299.835C81.6012 299.819 81.6012 299.819 81.2738 299.802C80.6663 299.77 80.0589 299.736 79.4515 299.701C79.2702 299.691 79.0888 299.681 78.9019 299.671C78.0729 299.621 77.29 299.554 76.4936 299.31C76.476 299.524 76.476 299.524 76.458 299.743C75.7449 307.639 74.6308 316.236 68.328 321.682C67.4696 322.314 66.5988 322.829 65.6526 323.316C65.4305 323.432 65.4305 323.432 65.2039 323.551C61.5731 325.309 58.0677 325.747 54.0789 325.697C53.316 325.688 52.5539 325.691 51.791 325.696C47.9361 325.694 44.3043 325.248 40.771 323.602C40.4876 323.472 40.4876 323.472 40.1984 323.34C35.893 321.276 33.1556 318.022 31.4105 313.573C31.2657 313.207 31.2657 313.207 31.118 312.834C29.3534 307.786 29.4987 302.222 29.5291 296.948C29.5321 296.388 29.5337 295.827 29.5351 295.267C29.5766 280.627 30.5425 266.08 32.4164 251.56C32.4397 251.376 32.463 251.192 32.487 251.002C32.5847 250.26 32.701 249.591 32.9387 248.878C32.6639 248.989 32.3891 249.1 32.106 249.214C25.2479 251.952 18.3707 254.247 11.1812 251.325C7.59455 249.63 5.55407 246.969 4.15687 243.274C2.4554 238.196 4.5839 233.015 6.83229 228.495C10.7867 220.974 16.9871 213.866 23.432 208.376C23.9083 207.969 24.3784 207.557 24.8468 207.142C29.1113 203.374 33.6855 199.891 38.5423 196.918C38.3939 196.838 38.2455 196.759 38.0926 196.678C30.0687 192.38 22.6728 187.484 17.4016 179.852C17.2918 179.693 17.1819 179.534 17.0687 179.371C15.9203 177.7 14.8267 176.018 13.8357 174.249C12.6888 174.454 11.6263 174.712 10.5464 175.15C10.2817 175.257 10.2817 175.257 10.0116 175.366C9.65853 175.51 9.3072 175.66 8.95799 175.813C7.70921 176.324 6.97496 176.315 5.68511 175.777C4.90554 175.097 4.51022 174.697 4.2892 173.693C4.22525 172.668 4.35686 172.06 4.8414 171.145C6.4887 169.46 9.0505 168.831 11.2887 168.391C11.2116 168.125 11.2116 168.125 11.1331 167.855C10.8966 167.036 10.6628 166.217 10.429 165.398C10.3483 165.12 10.2675 164.842 10.1843 164.555C9.65872 162.705 9.26971 160.87 8.9963 158.966C8.70737 159.045 8.41843 159.124 8.12074 159.205C6.91687 159.47 5.71814 159.592 4.49117 159.683C4.30667 159.699 4.12217 159.716 3.93208 159.733C2.68604 159.812 1.89859 159.635 0.845685 158.966C0.0806242 158.074 -0.0427085 157.285 0.0109234 156.146C0.121412 155.379 0.33118 154.963 0.845685 154.382C2.33923 153.587 3.7427 153.44 5.41449 153.315C5.66156 153.294 5.90863 153.273 6.16318 153.252C6.76778 153.201 7.37246 153.153 7.97747 153.108C7.93651 152.829 7.89555 152.55 7.85335 152.263C7.6889 150.939 7.67681 149.624 7.67103 148.292C7.66885 147.893 7.66885 147.893 7.66663 147.486C7.66423 146.923 7.66256 146.36 7.66158 145.797C7.65913 144.957 7.65124 144.118 7.64317 143.278C7.6191 138.495 8.0772 133.82 9.13957 129.15C9.203 128.869 9.26643 128.589 9.33178 128.3C10.5916 122.972 12.4212 117.768 14.8546 112.865C14.9667 112.635 15.0789 112.405 15.1945 112.168C18.0032 106.447 21.4575 101.079 25.7821 96.3802C26.2891 95.8288 26.7818 95.2676 27.2715 94.7007C27.9429 93.9291 28.6386 93.1999 29.3728 92.488C29.0306 91.6842 28.5536 91.0728 27.9908 90.4099C23.9674 85.645 20.5995 80.1396 17.6563 74.6585C17.5318 74.4288 17.4074 74.199 17.2791 73.9623C9.82249 60.1488 4.34526 44.9368 2.37392 29.3207C2.3514 29.1441 2.32887 28.9674 2.30567 28.7855C2.14348 27.4392 2.07198 26.1104 2.05853 24.7549C2.056 24.5457 2.05347 24.3365 2.05086 24.1209C1.98235 16.9935 2.15746 9.81442 7.46806 4.35945C7.63978 4.17789 7.81149 3.99632 7.98842 3.80925C9.99557 1.85328 12.5974 0.680102 15.364 0.284148C15.6368 0.242286 15.6368 0.242286 15.9152 0.199577C24.444 -0.930566 32.6235 2.86931 38.9834 8.30218Z" fill="white"/>
<path d="M38.9834 8.30218C39.8787 9.08682 40.741 9.90174 41.5988 10.7271C41.7718 10.8841 41.9448 11.041 42.1231 11.2027C44.9755 13.8713 47.2404 17.3264 49.24 20.6607C49.3524 20.8468 49.4648 21.0329 49.5806 21.2247C58.8843 36.7414 65.1806 56.8966 65.0318 75.1679C65.3779 75.069 65.3779 75.069 65.731 74.968C68.0511 74.3242 70.3522 73.8511 72.7366 73.4964C72.9126 73.47 73.0885 73.4436 73.2697 73.4165C74.3483 73.2552 75.4275 73.0994 76.5073 72.9465C76.9634 72.8812 77.4191 72.8131 77.8748 72.7447C90.3229 70.9014 102.959 72.5315 115.209 74.9132C115.198 74.6249 115.187 74.3367 115.176 74.0396C115.179 72.0991 115.477 70.1788 115.734 68.259C115.762 68.0489 115.79 67.8389 115.819 67.6225C118.22 49.7156 122.7 29.9308 134.312 15.5665C134.427 15.4223 134.542 15.2781 134.661 15.1295C140.438 7.92823 148.187 1.88286 157.49 0.284148C163.063 -0.0541722 167.581 0.202945 172.024 3.83412C173.592 5.2954 174.583 7.0671 175.574 8.94418C175.706 9.19239 175.838 9.44061 175.973 9.69636C177.441 12.6927 177.899 15.9926 177.919 19.2986C177.92 19.5046 177.922 19.7106 177.924 19.9229C177.928 20.588 177.93 21.2531 177.931 21.9183C177.931 22.2603 177.931 22.2603 177.931 22.6092C177.927 26.3383 177.741 29.9699 177.103 33.6507C177.039 34.0263 177.039 34.0263 176.974 34.4094C173.349 55.2872 163.948 75.8097 150.613 92.2333C151.374 93.1423 152.132 94.0209 152.985 94.844C154.168 96.0085 155.18 97.3073 156.217 98.6009C156.385 98.8029 156.553 99.0048 156.726 99.2128C159.169 102.172 161.187 105.466 163.094 108.789C163.185 108.947 163.277 109.105 163.371 109.268C168.915 118.932 172.322 130.68 172.297 141.855C172.297 142.106 172.298 142.357 172.298 142.615C172.298 143.14 172.298 143.665 172.296 144.191C172.295 144.989 172.296 145.788 172.298 146.586C172.298 147.1 172.298 147.614 172.297 148.127C172.298 148.363 172.298 148.599 172.299 148.842C172.294 150.283 172.192 151.678 172.009 153.108C172.251 153.125 172.251 153.125 172.499 153.143C173.238 153.197 173.976 153.256 174.715 153.315C174.969 153.333 175.224 153.351 175.486 153.369C176.86 153.483 177.956 153.611 179.14 154.382C179.757 155.122 179.895 155.57 180 156.531C179.892 157.552 179.733 158.126 179.14 158.966C177.756 159.722 176.743 159.814 175.192 159.667C175.009 159.653 174.825 159.64 174.636 159.626C173.498 159.538 172.373 159.393 171.244 159.221C170.673 160.884 170.165 162.56 169.684 164.252C169.617 164.486 169.55 164.72 169.48 164.961C169.416 165.188 169.351 165.415 169.284 165.648C169.227 165.851 169.169 166.054 169.109 166.263C168.946 166.884 168.817 167.506 168.697 168.136C168.965 168.228 169.233 168.321 169.508 168.416C174.362 170.138 174.362 170.138 175.574 171.956C175.745 172.832 175.752 173.629 175.574 174.504C174.933 175.429 174.188 175.893 173.136 176.261C171.811 176.3 170.751 175.787 169.541 175.284C169.063 175.089 168.584 174.896 168.105 174.704C167.79 174.573 167.79 174.573 167.468 174.44C166.892 174.207 166.892 174.207 166.15 174.249C165.74 174.879 165.377 175.5 165.02 176.159C163.153 179.465 160.888 182.465 158.254 185.201C158.052 185.415 158.052 185.415 157.846 185.634C153.766 189.939 149.039 193.145 143.752 195.819C143.497 195.949 143.497 195.949 143.236 196.081C142.504 196.44 142.016 196.663 141.189 196.663C141.189 196.831 141.189 196.999 141.189 197.172C141.394 197.225 141.598 197.277 141.809 197.332C143.009 197.794 143.976 198.474 145.026 199.21C145.24 199.359 145.454 199.507 145.675 199.661C148.642 201.733 151.44 203.98 154.179 206.342C154.362 206.498 154.544 206.655 154.732 206.816C155.231 207.248 155.725 207.685 156.217 208.125C156.426 208.31 156.634 208.495 156.85 208.686C160.246 211.745 163.635 214.921 166.405 218.568C166.598 218.807 166.79 219.046 166.989 219.293C171.438 224.888 177.066 232.678 176.339 240.218C176.316 240.524 176.316 240.524 176.294 240.836C175.887 244.145 173.99 247.466 171.499 249.642C169.87 250.859 168.082 251.591 166.15 252.189C165.977 252.247 165.804 252.305 165.625 252.364C159.916 253.97 153.302 251.682 148.121 249.359C147.918 249.268 147.716 249.178 147.508 249.085C147.356 249.017 147.204 248.948 147.047 248.878C147.107 249.325 147.107 249.325 147.167 249.781C149.193 265.136 150.383 280.522 150.421 296.011C150.422 296.515 150.424 297.018 150.426 297.522C150.452 305.497 150.388 313.753 144.732 320.022C141.978 322.642 138.449 324.088 134.821 325.035C134.633 325.085 134.446 325.135 134.252 325.186C131.95 325.697 129.59 325.648 127.244 325.653C126.502 325.656 125.76 325.669 125.018 325.681C121.201 325.715 117.991 325.076 114.588 323.284C114.42 323.197 114.251 323.11 114.077 323.02C110.283 321.01 107.394 317.807 106.037 313.692C105.068 310.498 104.572 307.177 104.002 303.895C103.885 303.235 103.767 302.575 103.649 301.916C103.511 301.132 103.374 300.348 103.238 299.565C102.929 299.588 102.929 299.588 102.615 299.611C95.6982 300.118 88.8495 300.195 81.922 299.835C81.6012 299.819 81.6012 299.819 81.2738 299.802C80.6663 299.77 80.0589 299.736 79.4515 299.701C79.2702 299.691 79.0888 299.681 78.9019 299.671C78.0729 299.621 77.29 299.554 76.4936 299.31C76.476 299.524 76.476 299.524 76.458 299.743C75.7449 307.639 74.6308 316.236 68.328 321.682C67.4696 322.314 66.5988 322.829 65.6526 323.316C65.4305 323.432 65.4305 323.432 65.2039 323.551C61.5731 325.309 58.0677 325.747 54.0789 325.697C53.316 325.688 52.5539 325.691 51.791 325.696C47.9361 325.694 44.3043 325.248 40.771 323.602C40.4876 323.472 40.4876 323.472 40.1984 323.34C35.893 321.276 33.1556 318.022 31.4105 313.573C31.2657 313.207 31.2657 313.207 31.118 312.834C29.3534 307.786 29.4987 302.222 29.5291 296.948C29.5321 296.388 29.5337 295.827 29.5351 295.267C29.5766 280.627 30.5425 266.08 32.4164 251.56C32.4397 251.376 32.463 251.192 32.487 251.002C32.5847 250.26 32.701 249.591 32.9387 248.878C32.6639 248.989 32.3891 249.1 32.106 249.214C25.2479 251.952 18.3707 254.247 11.1812 251.325C7.59455 249.63 5.55407 246.969 4.15687 243.274C2.4554 238.196 4.5839 233.015 6.83229 228.495C10.7867 220.974 16.9871 213.866 23.432 208.376C23.9083 207.969 24.3784 207.557 24.8468 207.142C29.1113 203.374 33.6855 199.891 38.5423 196.918C38.3939 196.838 38.2455 196.759 38.0926 196.678C30.0687 192.38 22.6728 187.484 17.4016 179.852C17.2918 179.693 17.1819 179.534 17.0687 179.371C15.9203 177.7 14.8267 176.018 13.8357 174.249C12.6888 174.454 11.6263 174.712 10.5464 175.15C10.2817 175.257 10.2817 175.257 10.0116 175.366C9.65853 175.51 9.3072 175.66 8.95799 175.813C7.70921 176.324 6.97496 176.315 5.68511 175.777C4.90554 175.097 4.51022 174.697 4.2892 173.693C4.22525 172.668 4.35686 172.06 4.8414 171.145C6.4887 169.46 9.0505 168.831 11.2887 168.391C11.2116 168.125 11.2116 168.125 11.1331 167.855C10.8966 167.036 10.6628 166.217 10.429 165.398C10.3483 165.12 10.2675 164.842 10.1843 164.555C9.65872 162.705 9.26971 160.87 8.9963 158.966C8.70737 159.045 8.41843 159.124 8.12074 159.205C6.91687 159.47 5.71814 159.592 4.49117 159.683C4.30667 159.699 4.12217 159.716 3.93208 159.733C2.68604 159.812 1.89859 159.635 0.845685 158.966C0.0806242 158.074 -0.0427085 157.285 0.0109234 156.146C0.121412 155.379 0.33118 154.963 0.845685 154.382C2.33923 153.587 3.7427 153.44 5.41449 153.315C5.66156 153.294 5.90863 153.273 6.16318 153.252C6.76778 153.201 7.37246 153.153 7.97747 153.108C7.93651 152.829 7.89555 152.55 7.85335 152.263C7.6889 150.939 7.67681 149.624 7.67103 148.292C7.66885 147.893 7.66885 147.893 7.66663 147.486C7.66423 146.923 7.66256 146.36 7.66158 145.797C7.65913 144.957 7.65124 144.118 7.64317 143.278C7.6191 138.495 8.0772 133.82 9.13957 129.15C9.203 128.869 9.26643 128.589 9.33178 128.3C10.5916 122.972 12.4212 117.768 14.8546 112.865C14.9667 112.635 15.0789 112.405 15.1945 112.168C18.0032 106.447 21.4575 101.079 25.7821 96.3802C26.2891 95.8288 26.7818 95.2676 27.2715 94.7007C27.9429 93.9291 28.6386 93.1999 29.3728 92.488C29.0306 91.6842 28.5536 91.0728 27.9908 90.4099C23.9674 85.645 20.5995 80.1396 17.6563 74.6585C17.5318 74.4288 17.4074 74.199 17.2791 73.9623C9.82249 60.1488 4.34526 44.9368 2.37392 29.3207C2.3514 29.1441 2.32887 28.9674 2.30567 28.7855C2.14348 27.4392 2.07198 26.1104 2.05853 24.7549C2.056 24.5457 2.05347 24.3365 2.05086 24.1209C1.98235 16.9935 2.15746 9.81442 7.46806 4.35945C7.63978 4.17789 7.81149 3.99632 7.98842 3.80925C9.99557 1.85328 12.5974 0.680102 15.364 0.284148C15.6368 0.242286 15.6368 0.242286 15.9152 0.199577C24.444 -0.930566 32.6235 2.86931 38.9834 8.30218ZM11.622 10.546C9.20833 14.357 8.8877 18.5396 8.90078 22.953C8.90101 23.1394 8.90123 23.3258 8.90146 23.5178C8.92715 30.1085 10.1246 36.4578 11.7981 42.8202C11.8728 43.1052 11.9476 43.3902 12.0247 43.6839C13.9615 50.9164 16.7845 57.9473 19.9487 64.7249C20.0567 64.9568 20.1648 65.1887 20.2761 65.4276C23.099 71.4178 26.5639 77.1254 30.4394 82.4907C30.5783 82.6831 30.7172 82.8754 30.8603 83.0736C32.6894 85.5818 34.6541 87.9828 36.6983 90.3183C37.3923 91.1683 37.5312 91.7651 37.4916 92.8541C37.0425 94.6825 35.8005 95.779 34.451 96.9931C34.1068 97.3095 33.7629 97.6262 33.4193 97.9433C33.2506 98.0984 33.082 98.2535 32.9083 98.4133C22.3081 108.204 15.9149 122.857 14.3451 137.062C14.3213 137.263 14.2975 137.464 14.2729 137.672C14.0611 139.666 14.043 141.657 14.0432 143.66C14.0427 144.236 14.038 144.812 14.0332 145.388C14.0238 147.914 14.2254 150.356 14.5998 152.853C15.0465 152.868 15.0465 152.868 15.5023 152.882C15.8966 152.899 16.2909 152.916 16.6853 152.933C16.8811 152.939 17.077 152.945 17.2787 152.95C18.4487 153.006 19.2539 153.119 20.2034 153.872C20.8334 154.817 20.8519 155.578 20.7128 156.674C20.4007 157.392 20.1762 157.8 19.5189 158.226C18.7448 158.53 18.039 158.566 17.2106 158.616C16.9125 158.635 16.6143 158.654 16.3072 158.674C16.08 158.686 15.8528 158.699 15.6187 158.712C15.7022 160.438 16.032 162.031 16.4783 163.694C16.5316 163.901 16.5848 164.107 16.6397 164.32C16.7832 164.835 16.9625 165.341 17.1469 165.843C17.9274 166.104 18.3469 166.088 19.1527 166.035C20.1251 166.029 20.4045 166.064 21.2541 166.608C21.7829 167.454 21.9189 167.938 21.858 168.919C21.6437 169.751 21.1062 170.155 20.4581 170.683C20.201 170.935 19.9457 171.189 19.694 171.447C21.6538 175.057 23.9934 178.157 26.8258 181.126C27.0142 181.328 27.2027 181.53 27.3969 181.738C33.2094 187.795 41.3721 191.515 49.415 193.474C50.862 193.844 51.8969 194.118 52.8058 195.389C53.1851 196.454 53.1832 197.394 52.7422 198.43C51.8585 199.472 50.9611 199.589 49.6857 199.783C43.382 200.873 37.7685 204.88 32.9387 208.889C32.6113 209.154 32.2836 209.418 31.9557 209.682C29.4659 211.696 27.0857 213.791 24.7881 216.021C24.5763 216.226 24.3646 216.43 24.1464 216.641C20.1195 220.552 20.1195 220.552 16.6375 224.935C16.3997 225.276 16.3997 225.276 16.1571 225.623C11.1764 232.526 11.1764 232.526 10.0151 240.727C10.4898 242.472 11.1962 244.015 12.7761 244.998C13.0365 245.122 13.2968 245.247 13.5651 245.376C13.8248 245.503 14.0845 245.63 14.3521 245.762C17.9714 247.265 22.4761 246.202 25.9604 244.804C27.3166 244.235 28.6558 243.63 29.9937 243.02C30.2805 242.89 30.5673 242.76 30.8628 242.626C31.1378 242.498 31.4127 242.371 31.696 242.24C31.9414 242.126 32.1869 242.013 32.4397 241.896C32.8128 241.696 32.8128 241.696 33.1934 241.491C33.3428 241.417 33.4921 241.342 33.646 241.265C35.2362 240.335 35.5463 238.963 36.035 237.266C36.1244 236.976 36.2137 236.687 36.3058 236.389C36.5903 235.465 36.8664 234.538 37.1414 233.611C40.0621 223.895 40.0621 223.895 41.7306 222.689C42.5235 222.312 43.0215 222.28 43.8911 222.388C44.8543 222.826 45.2965 223.189 45.6741 224.171C45.8714 226.804 44.9291 229.262 44.0868 231.708C43.6983 232.838 43.3242 233.973 42.9489 235.108C42.8748 235.331 42.8007 235.554 42.7244 235.784C39.1819 246.507 37.663 257.69 36.8051 268.912C36.7568 269.542 36.7073 270.172 36.6578 270.802C36.0462 278.688 35.8157 286.562 35.7405 294.47C35.7383 294.679 35.7361 294.888 35.7339 295.104C35.2296 305.964 35.2296 305.964 39.7979 315.372C42.2265 317.721 45.2014 318.65 48.4758 319.177C48.6807 319.21 48.8856 319.244 49.0967 319.278C54.2729 319.943 60.2017 319.71 64.602 316.678C67.1493 314.63 68.0731 311.754 68.725 308.654C68.7782 308.407 68.8313 308.16 68.8861 307.906C69.3817 305.506 69.7155 303.087 70.016 300.657C70.7309 294.99 70.7309 294.99 71.7974 293.897C73.667 292.555 76.4648 293.154 78.6615 293.38C82.0738 293.727 85.4631 293.776 88.8907 293.759C89.8215 293.754 90.7522 293.753 91.6829 293.754C94.2986 293.75 96.9113 293.733 99.5236 293.592C99.7046 293.582 99.8855 293.572 100.072 293.562C100.978 293.505 101.841 293.383 102.728 293.197C103.45 293.14 104.17 293.138 104.893 293.133C105.083 293.128 105.274 293.123 105.469 293.117C106.624 293.109 107.433 293.16 108.332 293.961C109.2 295.469 109.355 297.097 109.59 298.8C109.677 299.395 109.764 299.989 109.852 300.583C109.896 300.882 109.94 301.18 109.985 301.488C110.844 309.805 110.844 309.805 115.19 316.536C120.098 319.771 126.396 320.17 132.07 319.08C132.306 319.028 132.541 318.976 132.784 318.922C133.038 318.873 133.291 318.823 133.553 318.772C137.08 318.007 139.838 316.402 141.914 313.403C143.57 310.585 144.03 307.399 144.028 304.173C144.029 303.887 144.029 303.887 144.03 303.595C144.033 302.968 144.033 302.34 144.034 301.713C144.034 301.265 144.035 300.818 144.036 300.371C144.038 299.429 144.038 298.488 144.038 297.547C144.038 296.603 144.04 295.659 144.043 294.716C144.076 285.811 143.769 276.922 142.964 268.051C142.946 267.848 142.927 267.645 142.909 267.437C141.829 255.757 140.067 244.448 136.345 233.306C136.248 233.014 136.248 233.014 136.149 232.717C135.837 231.777 135.52 230.84 135.192 229.906C134.438 227.709 133.672 225.335 134.678 223.105C135.624 222.436 136.475 222.294 137.623 222.388C139.336 223.206 139.978 225.395 140.587 227.079C141.056 228.414 141.505 229.755 141.953 231.096C142.108 231.555 142.263 232.015 142.419 232.474C142.495 232.699 142.571 232.923 142.649 233.155C142.8 233.602 142.952 234.05 143.104 234.496C143.445 235.501 143.772 236.503 144.051 237.526C144.616 239.615 144.616 239.615 146.075 241.141C146.478 241.355 146.887 241.557 147.302 241.746C147.609 241.907 147.609 241.907 147.922 242.071C148.563 242.404 149.211 242.714 149.865 243.02C150.213 243.183 150.213 243.183 150.568 243.35C152.584 244.286 154.618 245.119 156.726 245.821C156.927 245.889 157.127 245.957 157.334 246.026C160.283 246.846 163.905 246.609 166.66 245.312C168.458 244.174 169.312 242.703 169.971 240.727C170.559 234.117 165.838 227.835 161.824 222.977C160.975 222.003 160.104 221.048 159.223 220.102C158.533 219.361 157.861 218.606 157.188 217.851C156.312 216.886 155.41 216.01 154.413 215.172C153.898 214.724 153.428 214.25 152.953 213.76C151.979 212.773 150.933 211.908 149.85 211.043C149.191 210.504 148.559 209.945 147.928 209.374C143.03 205.003 136.613 200.545 129.95 199.719C128.928 199.583 128.499 199.495 127.626 198.908C127.076 198.023 126.925 197.451 126.925 196.408C127.239 195.409 127.561 194.979 128.39 194.339C129.442 193.803 130.569 193.547 131.708 193.256C138.806 191.435 145.33 188.245 150.868 183.418C151.116 183.204 151.365 182.989 151.621 182.769C155.186 179.636 158.041 175.876 160.292 171.702C160.292 171.534 160.292 171.366 160.292 171.192C160.008 171.045 159.725 170.898 159.432 170.747C158.884 170.428 158.539 170.212 158.143 169.712C157.837 168.523 157.81 167.703 158.43 166.624C159.745 165.805 161.075 165.999 162.584 166.098C162.836 165.25 163.085 164.401 163.333 163.551C163.403 163.313 163.474 163.075 163.547 162.83C163.947 161.452 164.234 160.14 164.367 158.712C164.035 158.706 164.035 158.706 163.697 158.701C161 158.589 161 158.589 160.101 157.836C159.306 156.931 159.173 156.373 159.182 155.156C159.335 154.285 159.876 153.89 160.547 153.363C161.387 152.943 162.328 153.011 163.253 152.965C163.457 152.954 163.661 152.943 163.872 152.932C164.377 152.905 164.881 152.879 165.386 152.853C168.246 137.326 163.343 120.233 154.731 107.292C151.773 103.033 148.472 99.0329 144.368 95.835C143.338 94.9457 142.546 94.0936 142.351 92.7268C142.558 90.8666 143.793 89.6245 145.026 88.2853C149.11 83.8393 152.477 78.6237 155.453 73.385C155.623 73.0856 155.623 73.0856 155.796 72.7802C161.425 62.804 165.853 52.1403 168.697 41.0372C168.757 40.8085 168.817 40.5798 168.879 40.3442C170.349 34.6798 171.084 28.9101 171.085 23.0645C171.086 22.8921 171.086 22.7198 171.087 22.5423C171.086 19.4805 170.878 16.44 169.875 13.5289C169.774 13.2242 169.672 12.9195 169.567 12.6056C168.634 10.3797 166.942 8.49636 164.721 7.5214C163.585 7.11095 162.544 7.02381 161.343 7.03388C161.133 7.03552 160.924 7.03716 160.709 7.03885C155.272 7.19687 150.599 9.94434 146.283 13.0195C146.072 13.1682 145.86 13.317 145.642 13.4702C130.731 24.4931 125.714 46.723 123.075 63.9869C122.372 68.683 121.858 73.3977 121.453 78.1289C121.433 78.3418 121.414 78.5547 121.393 78.7741C121.358 79.1542 121.326 79.5346 121.299 79.9153C121.188 81.0795 120.881 81.7329 120.048 82.5544C118.101 83.2036 116.377 82.5475 114.477 81.9972C108.915 80.4519 103.382 79.5043 97.6342 78.9885C97.2302 78.9517 97.2302 78.9517 96.8181 78.9141C86.6974 78.0569 76.3557 79.2131 66.56 81.7903C65.9595 81.9477 65.3591 82.1049 64.758 82.2599C64.28 82.3838 63.8032 82.5117 63.3264 82.64C62.1342 82.8795 61.1104 82.9907 59.9854 82.4907C59.1113 81.7915 58.9491 81.2344 58.7877 80.1248C58.7534 79.7598 58.7213 79.3946 58.691 79.0293C58.6529 78.6173 58.6148 78.2053 58.5767 77.7933C58.5574 77.5759 58.538 77.3585 58.5181 77.1345C56.799 58.023 53.136 37.688 41.8535 21.6795C41.7013 21.4631 41.7013 21.4631 41.5461 21.2424C40.2439 19.4094 38.8217 17.7012 37.2687 16.076C37.127 15.9238 36.9852 15.7716 36.8391 15.6149C35.5286 14.2476 34.1104 13.1664 32.5407 12.1121C32.2935 11.9455 32.0462 11.7789 31.7914 11.6073C29.86 10.3289 27.9773 9.25275 25.8069 8.43476C25.5598 8.3394 25.5598 8.3394 25.3077 8.24211C23.1527 7.43281 21.1073 7.04519 18.8025 7.01796C18.5956 7.0142 18.3887 7.01045 18.1755 7.00658C15.4606 7.05304 13.2235 8.37867 11.622 10.546Z" fill="black"/>
<path d="M105.042 219.084C112.192 225.259 115.824 234.923 116.695 244.25C117.106 249.602 117.31 255.32 115.791 260.501C115.721 260.752 115.721 260.752 115.65 261.008C114.643 264.564 112.737 267.501 110.186 270.104C110.011 270.285 109.836 270.466 109.656 270.653C103.741 276.4 95.2896 277.276 87.5295 277.137C85.8859 277.086 84.2885 276.897 82.67 276.594C82.4973 276.561 82.3246 276.529 82.1467 276.496C76.1706 275.345 70.7741 272.447 67.2153 267.263C62.0906 259.381 62.3876 248.139 64.1629 239.196C65.9267 231.013 70.0165 222.091 77.1048 217.349C77.3439 217.199 77.583 217.049 77.8293 216.894C77.9768 216.799 78.1243 216.705 78.2762 216.608C87.1555 210.982 97.1174 212.741 105.042 219.084Z" fill="#F4A99C"/>
<path d="M90.7571 208.889C91.2245 208.92 91.2245 208.92 91.7013 208.951C99.7649 209.622 106.752 213.347 111.987 219.48C116.255 224.636 119.143 230.805 120.876 237.241C120.966 237.566 120.966 237.566 121.057 237.898C122.109 242.005 122.47 246.17 122.44 250.398C122.436 251.093 122.44 251.788 122.445 252.484C122.45 256.184 122.15 259.896 120.908 263.412C120.844 263.598 120.78 263.784 120.713 263.975C118.202 270.926 113.249 276.516 106.603 279.769C97.2451 284.117 85.2388 284.342 75.5731 280.85C70.9929 279.116 66.7401 276.251 63.7582 272.311C63.5744 272.069 63.3905 271.827 63.2011 271.578C56.7592 262.699 56.573 251.904 58.1642 241.41C58.549 239 59.1697 236.674 59.9376 234.359C60.0292 234.08 60.0292 234.08 60.1227 233.796C60.9551 231.311 62.0485 228.978 63.267 226.661C63.4773 226.259 63.681 225.853 63.8836 225.447C67.4631 218.47 74.2176 212.57 81.6514 210.099C84.5752 209.269 87.7122 208.66 90.7571 208.889ZM73.1824 221.879C73.0005 222.061 72.8186 222.243 72.6312 222.431C68.1737 227.164 65.6387 233.486 64.204 239.74C64.1655 239.907 64.1269 240.074 64.0872 240.246C63.3795 243.557 63.1644 246.853 63.1824 250.228C63.1852 250.838 63.1824 251.448 63.1792 252.058C63.1726 258.917 64.8584 265.389 69.6642 270.464C75.6538 276.195 83.7771 277.312 91.7382 277.197C99.1922 277.015 106.097 274.572 111.326 269.151C112.257 268.075 112.986 266.927 113.681 265.688C113.817 265.45 113.953 265.212 114.094 264.966C115.147 263.007 115.777 260.985 116.228 258.811C116.296 258.493 116.296 258.493 116.366 258.169C116.811 255.867 116.817 253.601 116.801 251.266C116.8 251.062 116.799 250.858 116.799 250.649C116.785 247.74 116.737 244.872 116.228 242.001C116.196 241.822 116.165 241.644 116.132 241.46C114.959 235.044 112.601 228.674 108.332 223.662C108.02 223.284 108.02 223.284 107.701 222.898C105.955 220.847 103.935 219.305 101.71 217.804C101.487 217.649 101.264 217.494 101.034 217.334C91.9798 211.428 80.2761 214.689 73.1824 221.879Z" fill="black"/>
<path d="M153.924 29.8299C154.701 30.3389 155.325 30.9408 155.962 31.6129C156.156 31.8073 156.351 32.0016 156.551 32.2019C158.837 35.8432 157.735 40.5922 156.867 44.5104C156.288 46.9666 155.515 49.3521 154.689 51.7347C154.62 51.9357 154.551 52.1367 154.48 52.3437C154.108 53.4301 153.727 54.5124 153.333 55.5911C153.171 56.0348 153.012 56.4795 152.854 56.9244C152.088 59.0079 151.127 60.961 150.114 62.9317C149.856 63.4374 149.604 63.9455 149.355 64.4551C146.331 70.623 142.911 76.8418 138.387 82.0448C138.192 82.2693 138.192 82.2693 137.993 82.4984C137.587 82.9609 137.177 83.4192 136.764 83.8755C136.639 84.0135 136.515 84.1515 136.387 84.2936C135.462 85.2884 134.683 86.0191 133.318 86.2395C132.065 86.2524 131.234 86.2514 130.125 85.6266C128.49 83.6728 128.04 82.2871 128.199 79.7524C128.334 78.4936 128.522 77.245 128.724 75.9955C128.766 75.7322 128.766 75.7322 128.809 75.4636C131.043 61.5289 135.289 40.9298 147.541 32.0268C149.459 30.6861 151.511 29.4018 153.924 29.8299Z" fill="#F4A99C"/>
<path d="M27.964 29.8968C28.1767 29.9589 28.3895 30.0209 28.6087 30.0849C28.8162 30.1443 29.0237 30.2037 29.2375 30.2649C35.6056 32.4716 39.225 39.2064 41.9898 44.8986C43.6309 48.364 44.9508 51.9275 46.1835 55.5555C46.2543 55.7603 46.3251 55.9651 46.398 56.1761C48.6434 62.7088 50.0111 69.4757 51.1256 76.2785C51.3069 77.3843 51.4963 78.4887 51.6867 79.593C52.0035 81.7049 51.9812 83.1022 50.7175 84.8786C49.9801 85.6464 49.3176 86.0612 48.2639 86.2487C46.6896 86.2796 45.6111 86.1989 44.4115 85.1353C36.7967 77.1857 31.275 66.6609 27.0805 56.5744C26.9406 56.2554 26.8003 55.9367 26.6596 55.6182C25.1767 52.2107 24.0644 48.6711 23.0052 45.1126C22.9472 44.9202 22.8892 44.7278 22.8294 44.5296C22.1888 42.3156 22.147 40.0645 22.0978 37.7738C22.0877 37.4819 22.0777 37.19 22.0674 36.8892C22.0604 34.4415 22.8334 33.041 24.3304 31.1644C25.531 30.0348 26.31 29.5624 27.964 29.8968Z" fill="#F4A99C"/>
<path d="M147.688 148.051C150.257 149.969 152.059 152.234 152.578 155.445C152.963 159.254 152.509 162.18 150.118 165.232C148.393 167.248 146.104 168.598 143.481 169.155C139.854 169.34 137.01 169.174 134.057 166.862C133.903 166.746 133.749 166.63 133.59 166.51C131.819 164.98 130.261 162.067 129.982 159.731C129.73 156.191 130.362 153.413 132.529 150.561C132.805 150.167 132.805 150.167 133.086 149.765C136.757 145.557 143.166 145.134 147.688 148.051Z" fill="#F4A99C"/>
<path d="M44.5916 148.062C47.1392 149.779 48.87 152.106 49.6111 155.091C50.192 158.531 49.7932 161.832 47.8232 164.777C46.008 167.092 43.6915 168.521 40.8346 169.155C36.7745 169.4 33.9055 168.804 30.6712 166.221C28.9382 164.662 27.5276 162.05 27.2794 159.715C27.0824 155.908 27.5726 153.03 30.0126 149.975C33.9537 145.7 39.6897 145.158 44.5916 148.062Z" fill="#F4A99C"/>
<path d="M90.1204 144.894C90.3945 144.892 90.6687 144.89 90.9512 144.888C94.7109 144.897 94.7109 144.897 96.1547 145.826C97.0136 146.861 97.3253 147.628 97.2243 148.983C96.9189 150.7 95.9796 152.43 94.5787 153.494C93.822 153.977 93.1398 154.352 92.2854 154.636C92.1407 157.107 92.4402 159.55 94.0683 161.513C95.287 162.732 96.5787 162.967 98.2392 163.121C100.064 162.964 101.837 162.473 103.238 161.259C103.73 160.607 104.189 159.943 104.635 159.258C105.021 158.712 105.021 158.712 105.53 158.457C106.651 158.328 107.196 158.391 108.189 158.95C108.947 159.857 109.057 160.279 108.973 161.429C108.523 163.463 106.833 165.092 105.194 166.267C101.981 168.312 98.4559 168.63 94.734 167.987C93.0843 167.473 91.971 166.495 90.7562 165.29C90.3 164.767 90.3 164.767 89.7383 164.825C89.5807 165.045 89.4231 165.266 89.2607 165.493C88.1382 166.912 86.1369 167.771 84.3895 168.136C80.4261 168.454 77.1353 168.13 73.9465 165.589C72.6207 164.428 71.3188 163.281 71.0661 161.455C71.012 160.449 71.0056 159.916 71.6223 159.094C72.5819 158.416 73.2051 158.347 74.3604 158.481C75.3882 158.873 75.7759 159.729 76.3354 160.635C77.1248 161.828 78.2231 162.318 79.5501 162.787C81.5439 163.134 83.5866 163.284 85.4083 162.278C86.869 161.012 87.3812 159.29 87.7007 157.438C87.745 157.191 87.7893 156.944 87.835 156.69C87.9111 155.922 87.928 155.375 87.7007 154.636C87.1051 154.113 86.5104 153.794 85.8013 153.442C84.1817 152.606 83.4242 150.958 82.8612 149.287C82.6964 148.236 82.7934 147.879 83.3229 146.947C85.098 144.665 87.3778 144.874 90.1204 144.894Z" fill="black"/>
<path d="M128.239 134.873C130.332 136.528 131.163 138.711 131.488 141.311C131.539 143.284 131.027 145.229 129.727 146.74C128.042 148.51 126.444 149.298 123.996 149.383C121.736 149.301 120.165 148.666 118.525 147.084C116.896 145.19 116.537 143.252 116.632 140.794C116.899 138.436 117.755 136.606 119.539 135.024C122.068 133.204 125.631 133.172 128.239 134.873Z" fill="black"/>
<path d="M59.9376 134.769C61.7743 135.878 62.5863 137.876 63.2488 139.864C63.4589 142.78 63.1135 144.959 61.238 147.246C59.5429 148.869 57.4263 149.383 55.15 149.358C53.357 149.203 51.7004 148.463 50.3961 147.214C48.644 145.097 48.4503 142.737 48.6696 140.1C48.9248 138.042 49.9799 136.368 51.5323 135.024C54.1982 133.125 57.088 133.375 59.9376 134.769Z" fill="black"/>
<path d="M58.7395 110.14C58.8315 110.152 58.9235 110.165 59.0183 110.177C62.1552 110.6 66.4974 111.214 68.6323 113.861C69.033 114.455 69.2366 114.841 69.1242 115.575C68.9837 116.033 68.6866 116.383 68.3232 116.689C67.7509 116.947 67.2325 116.855 66.6421 116.691C66.1398 116.456 65.6706 116.171 65.1958 115.885C63.3971 114.818 61.6897 114.275 59.6217 113.974C59.3933 113.941 59.3933 113.941 59.1604 113.907C57.7967 113.723 56.4419 113.662 55.0795 113.884C54.9927 113.897 54.9059 113.911 54.8165 113.924C54.151 114.032 53.5029 114.184 52.8546 114.369C52.2396 114.53 51.611 114.577 51.0293 114.269C50.6862 114.028 50.5017 113.825 50.3007 113.453C50.1897 112.781 50.2406 112.15 50.5715 111.547C51.2473 110.973 52.0378 110.734 52.8844 110.533C52.9912 110.507 53.0981 110.481 53.2082 110.455C55.0203 110.042 56.8951 109.889 58.7395 110.14Z" fill="black"/>
<path d="M128.392 118.696C128.511 118.759 128.511 118.759 128.632 118.824C129.248 119.186 129.743 119.655 129.98 120.388C130.039 121.121 129.978 121.616 129.625 122.27C129.132 122.779 128.705 123.011 128.016 123C127.341 122.9 126.7 122.604 126.062 122.356C124.311 121.676 122.748 121.388 120.887 121.394C120.756 121.394 120.756 121.394 120.622 121.394C118.349 121.403 116.058 121.625 113.934 122.566C113.285 122.843 112.737 122.86 112.056 122.682C111.457 122.314 111.247 121.876 111.044 121.17C110.96 120.526 110.98 120.074 111.25 119.486C112.358 118.091 113.749 117.812 115.38 117.544C115.633 117.502 115.885 117.458 116.136 117.413C120.108 116.737 124.705 116.717 128.392 118.696Z" fill="black"/>
<path d="M179.541 108.578C183.889 108.999 188.035 110.497 191.199 113.563L191.503 113.866L191.535 113.898C194.434 117.003 195.581 120.829 195.211 124.712L195.21 124.725C194.693 129.788 191.54 133.227 187.709 135.955L187.706 135.957C187.584 136.043 187.461 136.129 187.339 136.215L187.34 136.216C187.278 136.26 187.215 136.304 187.151 136.349L187.151 136.35C186.832 136.576 186.512 136.801 186.19 137.026C184.981 137.875 184.272 138.618 183.802 139.388C183.329 140.163 183.015 141.101 182.791 142.468L182.789 142.479L182.787 142.488C182.77 142.582 182.754 142.675 182.738 142.771C182.725 142.847 182.712 142.923 182.7 143.001L182.676 143.147L182.631 143.288C182.417 143.957 182.089 144.402 181.643 144.812L181.379 145.055L181.047 145.191C180.164 145.553 179.456 145.58 178.683 145.504L178.684 145.505C178.576 145.495 178.575 145.496 178.464 145.485L178.461 145.485C178.216 145.461 177.972 145.436 177.737 145.411C177.573 145.395 177.409 145.378 177.245 145.362L177.244 145.362C176.893 145.327 176.542 145.292 176.193 145.255C175.756 145.21 175.317 145.166 174.875 145.123L173.355 144.97C173.117 144.947 172.88 144.922 172.649 144.897C172.523 144.884 172.396 144.872 172.265 144.858L172.165 144.847L172.066 144.828C171.054 144.62 170.475 144.125 170.051 143.735L169.787 143.491L169.623 143.169C169.047 142.036 169.297 140.906 169.332 140.623C169.343 140.523 169.354 140.423 169.366 140.32L169.367 140.31L169.369 140.3C169.675 137.851 170.391 135.759 171.629 133.889C172.856 132.035 174.526 130.504 176.588 129.078L176.602 129.069L176.615 129.06C176.946 128.839 177.282 128.634 177.575 128.455C178.56 127.839 179.467 127.154 180.266 126.404L180.278 126.391L180.291 126.38C180.367 126.311 180.442 126.241 180.52 126.17C181.612 125.143 182.037 124.19 182.066 122.882C181.992 122.306 181.678 121.683 181.123 121.189C180.378 120.674 179.566 120.358 178.575 120.209L178.565 120.208C178.486 120.195 178.407 120.182 178.325 120.17C176.93 119.993 175.829 120.138 174.957 120.636C174.059 121.26 173.363 122.064 172.587 123.101L172.581 123.11C172.529 123.179 172.476 123.247 172.422 123.318C172.378 123.38 172.371 123.389 172.313 123.468L172.237 123.574L172.147 123.669C171.493 124.357 170.764 124.587 170.16 124.703L169.959 124.742L169.753 124.738C168.675 124.722 167.66 124.252 167.003 123.912C166.64 123.724 166.292 123.523 166.002 123.356C165.693 123.178 165.467 123.049 165.278 122.953L165.278 122.952C164.997 122.809 164.715 122.668 164.432 122.525L164.431 122.524C164.249 122.432 164.068 122.34 163.887 122.248L163.887 122.249C163.803 122.207 163.719 122.164 163.633 122.12L163.629 122.119C163.03 121.815 162.559 121.579 162.229 121.361C161.734 121.033 161.483 120.704 161.302 120.473L161.05 120.151L160.944 119.757C160.564 118.345 161.042 117.252 161.582 116.447L161.581 116.447C161.64 116.357 161.64 116.357 161.701 116.265L161.71 116.25C162.853 114.543 164.213 113.149 165.876 111.893C165.964 111.826 166.052 111.758 166.142 111.689L166.156 111.678L166.168 111.669C168.552 109.89 171.315 108.918 174.262 108.518L174.261 108.519C174.342 108.507 174.425 108.495 174.508 108.483L174.519 108.481L174.53 108.48C176.218 108.258 177.849 108.415 179.261 108.553C179.351 108.561 179.443 108.569 179.536 108.578L179.541 108.578Z" fill="#FFF288" stroke="black" stroke-width="4"/>
<path d="M170.073 146.499C172.972 144.852 177.148 144.733 180.043 147.108L180.32 147.346L180.366 147.39C180.467 147.487 180.468 147.488 180.57 147.587L180.766 147.772L180.787 147.792L180.807 147.813C182.414 149.429 183.014 151.468 182.911 153.454L182.906 153.539L182.894 153.624C182.625 155.573 181.584 157.313 179.938 158.521L179.894 158.552L179.849 158.582C177.603 160.05 175.43 160.189 173.086 159.882L173.057 159.878L173.028 159.874C170.911 159.533 169.352 158.285 168.27 157.082L168.231 157.037L168.194 156.991C166.827 155.279 166.422 153.247 166.716 151.311L166.726 151.251L166.738 151.191C167.151 149.263 168.306 147.68 169.946 146.579L170.008 146.537L170.073 146.499Z" fill="#FFF288" stroke="black" stroke-width="4"/>
<path d="M28.273 69.5883C28.3289 69.6114 28.3848 69.6346 28.4424 69.6584C29.8037 70.2268 31.0884 70.9305 32.3458 71.6991C32.3927 71.7275 32.4395 71.7559 32.4878 71.7852C33.0339 72.1171 33.5601 72.465 34.0677 72.8538C34.272 73.0131 34.272 73.0131 34.506 73.1191C34.5127 73.164 34.5193 73.209 34.5262 73.2553C34.5692 73.2674 34.6122 73.2795 34.6565 73.292C35.0914 73.4503 35.4538 73.8253 35.7986 74.1249C35.9223 74.2331 35.9223 74.2331 36.0565 74.3238C36.1589 74.4054 36.1589 74.4054 36.1792 74.5417C36.2358 74.4971 36.2925 74.4525 36.3508 74.4066C38.052 73.0923 40.2 72.5077 42.3428 72.766C42.9784 72.8531 43.575 72.9848 44.1721 73.2228C44.3402 73.2792 44.3402 73.2792 44.4643 73.195C44.6211 73.0624 44.7319 72.9201 44.8538 72.7547C44.9017 72.6899 44.9496 72.6252 44.999 72.5584C45.0485 72.4907 45.0979 72.423 45.1489 72.3533C45.1984 72.2864 45.248 72.2195 45.2991 72.1506C45.5233 71.846 45.7311 71.5441 45.92 71.2163C45.9915 71.1264 46.0655 71.0384 46.142 70.9527C46.3102 70.7599 46.4657 70.564 46.6148 70.356C46.8383 70.0503 47.086 69.774 47.3433 69.4965C47.5137 69.3116 47.6788 69.123 47.844 68.9335C50.858 65.5613 55.1932 62.4865 59.8175 62.122C61.3883 62.047 62.963 62.5929 64.1548 63.6105C66.5739 65.8639 67.5919 69.3057 68.376 72.4091C68.3893 72.4593 68.4026 72.5095 68.4163 72.5613C68.5549 73.1023 68.6409 73.6487 68.7232 74.2006C68.7385 74.3022 68.7538 74.4038 68.7691 74.5053C68.801 74.7179 68.8327 74.9304 68.8642 75.143C68.896 75.3571 68.9282 75.571 68.9609 75.785C69.1605 77.0909 69.3288 78.3868 69.3896 79.7082C69.3921 79.7607 69.3946 79.8133 69.3972 79.8675C69.4107 80.1609 69.4184 80.454 69.422 80.7477C69.4231 80.8337 69.4243 80.9196 69.4254 81.0082C69.4306 81.8854 69.3683 82.7524 69.2745 83.6241C69.2686 83.6815 69.2627 83.739 69.2566 83.7981C69.0831 85.4276 68.6012 87.0166 67.6836 88.3856C67.6463 88.4415 67.609 88.4975 67.5706 88.5552C66.7326 89.7472 65.37 90.5977 63.9475 90.8894C63.3594 90.9915 62.768 91.0733 62.1764 91.1523C62.3303 91.3108 62.4844 91.4693 62.6385 91.6276C62.6865 91.6769 62.7345 91.7262 62.7839 91.777C63.0786 92.0792 63.3754 92.3792 63.6742 92.6774C66.5221 95.5215 66.5221 95.5215 66.5402 96.6314C66.4955 97.1679 66.3466 97.6321 65.983 98.0369C64.889 98.9102 63.1846 98.7532 61.8654 98.7915C61.6962 98.797 61.527 98.8026 61.3577 98.8083C60.8161 98.8261 60.2745 98.8436 59.7328 98.8554C59.0345 98.8499 59.0345 98.8499 58.4053 99.0992C58.2942 99.2431 58.2142 99.3881 58.1314 99.5502C58.0674 99.6626 58.0033 99.7749 57.9392 99.8872C57.8676 100.014 57.7977 100.141 57.7282 100.269C57.3279 101.004 56.9073 101.728 56.472 102.442C56.4459 102.485 56.4199 102.528 56.3931 102.572C55.3431 104.303 55.3431 104.303 54.4314 104.586C53.832 104.712 53.3208 104.581 52.7904 104.284C52.5116 104.072 52.3226 103.778 52.1243 103.493C52.0934 103.449 52.0624 103.405 52.0305 103.359C51.6837 102.858 51.3587 102.343 51.037 101.826C51.0045 101.773 50.9719 101.721 50.9384 101.667C49.4939 99.3454 48.1267 96.9817 46.8146 94.5828C46.6331 94.251 46.4502 93.92 46.267 93.5892C45.6502 92.4736 45.0522 91.3491 44.4668 90.2167C44.4177 90.122 44.4177 90.122 44.3676 90.0254C44.2754 89.8473 44.1836 89.6689 44.0919 89.4905C44.0504 89.4104 44.0504 89.4104 44.0081 89.3286C43.9045 89.1258 43.8185 88.9566 43.7849 88.7297C43.7177 88.751 43.6505 88.7723 43.5813 88.7943C43.3331 88.8644 43.0954 88.9096 42.8404 88.9463C42.7528 88.9591 42.6651 88.9718 42.5749 88.985C42.4836 88.998 42.3924 89.0109 42.3012 89.0239C42.2081 89.0373 42.1151 89.0508 42.022 89.0643C41.7956 89.0971 41.5691 89.1296 41.3426 89.1618C41.3357 89.2011 41.3288 89.2405 41.3216 89.2811C40.4216 94.3926 39.369 99.5084 37.9338 104.5C37.8748 104.706 37.8176 104.913 37.7606 105.12C37.5221 105.969 37.2886 106.677 36.4927 107.148C36.0146 107.39 35.4513 107.417 34.9404 107.271C34.1501 106.945 33.5125 106.291 32.8874 105.725C32.8387 105.681 32.79 105.637 32.7399 105.591C32.2508 105.147 31.7713 104.694 31.2946 104.237C31.2142 104.16 31.1338 104.083 31.0533 104.007C30.9779 103.935 30.9028 103.863 30.8279 103.79C30.7275 103.695 30.6248 103.602 30.5221 103.508C30.4378 103.421 30.4378 103.421 30.3517 103.332C29.7928 103.045 28.917 103.433 28.3433 103.59C28.2516 103.615 28.1599 103.639 28.0682 103.664C27.6835 103.767 27.2991 103.87 26.9148 103.975C25.0434 104.482 25.0434 104.482 24.2374 104.604C24.1586 104.617 24.1586 104.617 24.0782 104.629C23.4915 104.706 22.9806 104.591 22.4887 104.265C21.9787 103.83 21.7858 103.321 21.7255 102.662C21.6795 101.62 22.4538 100.518 22.914 99.6247C22.9456 99.5628 22.9773 99.501 23.0099 99.4372C23.4568 98.5636 23.9177 97.6973 24.3792 96.8312C24.329 96.8377 24.2789 96.8441 24.2272 96.8507C21.8942 97.1443 20.1174 97.0053 18.1908 95.5767C16.5826 94.3059 15.5247 92.2288 14.8779 90.3209C14.8226 90.1582 14.7648 89.9966 14.707 89.8348C12.8278 84.4721 11.6743 76.9047 14.1611 71.5934C14.9007 70.1708 15.9183 69.1782 17.3982 68.5566C17.4594 68.5303 17.5207 68.5041 17.5838 68.4771C20.8603 67.2557 25.1655 68.2878 28.273 69.5883Z" fill="black"/>
<path d="M19.3918 70.6144C19.438 70.6076 19.4841 70.6008 19.5316 70.5938C24.5341 69.8668 29.3407 72.3022 33.2523 75.2131C33.5656 75.4487 33.8686 75.6934 34.1609 75.9548C34.2215 76.0084 34.2215 76.0084 34.2833 76.0631C34.3766 76.1459 34.4695 76.2294 34.5622 76.3129C34.4894 76.5836 34.3562 76.7995 34.2131 77.0392C33.6863 77.9584 33.4203 78.9567 33.2284 79.992C32.9134 79.9494 32.5997 79.905 32.2877 79.8436C31.2139 79.6332 30.1224 79.5205 29.0332 79.666C28.9742 79.6731 28.9153 79.6803 28.8545 79.6876C28.5725 79.7331 28.3833 79.7836 28.1837 79.9949C27.9432 80.343 27.9219 80.5524 27.9941 80.9605C28.0749 81.2687 28.2156 81.4371 28.4819 81.605C28.8268 81.7595 29.1929 81.7198 29.5629 81.7108C30.2344 81.7045 30.8991 81.7218 31.5689 81.7699C31.6453 81.7751 31.7216 81.7803 31.8002 81.7856C32.3128 81.8244 32.8126 81.8998 33.3172 81.9978C33.3274 82.0597 33.3376 82.1217 33.3481 82.1855C33.6349 83.7255 34.3678 85.4863 35.5761 86.5407C35.68 86.6599 35.68 86.6599 35.7047 86.7895C35.6223 87.0302 35.4538 87.1917 35.2809 87.3718C35.2414 87.4136 35.2019 87.4554 35.1611 87.4985C34.3485 88.3429 33.4548 89.1204 32.532 89.8423C32.4831 89.8806 32.4342 89.9188 32.3839 89.9582C29.7413 92.0134 26.7053 93.981 23.3377 94.4996C23.2385 94.5151 23.1395 94.5312 23.0405 94.548C21.8669 94.7465 20.8962 94.598 19.8982 93.906C16.4384 91.1971 15.9644 85.4118 15.4711 81.3741C15.3857 80.6156 15.3439 79.8592 15.3419 79.0957C15.3409 78.9684 15.3409 78.9684 15.3399 78.8384C15.332 76.6724 15.4419 74.119 16.6194 72.2225C16.6513 72.1574 16.6833 72.0924 16.7163 72.0253C17.3688 71.0653 18.3037 70.7739 19.3918 70.6144Z" fill="#F4A99C"/>
<path d="M59.2465 64.6955C59.3318 64.6814 59.4171 64.6673 59.5049 64.6528C60.5278 64.4966 61.3464 64.6231 62.1961 65.2189C64.0334 66.5859 64.8829 69.0943 65.534 71.2032C65.5737 71.3313 65.5737 71.3313 65.6143 71.462C66.042 72.8825 66.3156 74.3141 66.5267 75.7814C66.5394 75.8684 66.5521 75.9555 66.5651 76.0451C67.0654 79.4905 67.7137 84.0497 65.69 87.1495C64.9603 88.0763 64.0848 88.4603 62.9412 88.6235C62.8941 88.6304 62.847 88.6372 62.7985 88.6442C59.6001 89.1026 56.3194 88.3121 53.3117 87.246C53.245 87.2224 53.1783 87.1987 53.1096 87.1744C49.4964 85.8772 49.4964 85.8772 48.4807 84.9795C48.4289 84.8376 48.4289 84.8376 48.5047 84.6153C48.5473 84.5279 48.5911 84.4409 48.6357 84.3544C48.6811 84.26 48.7261 84.1655 48.7709 84.0708C48.7932 84.0238 48.8155 83.9768 48.8385 83.9283C49.4238 82.6488 49.4913 81.2055 49.3561 79.8265C49.7248 79.5832 50.0957 79.3662 50.4958 79.1787C50.5499 79.1533 50.604 79.1279 50.6597 79.1017C51.5294 78.7043 52.4391 78.3922 53.3431 78.0825C53.402 78.0621 53.4609 78.0417 53.5216 78.0207C53.5725 78.0034 53.6234 77.9861 53.6759 77.9683C53.8775 77.8827 53.9854 77.7696 54.1066 77.5898C54.2274 77.2881 54.1976 76.9928 54.1114 76.6841C53.946 76.3797 53.7818 76.223 53.4653 76.0837C53.2528 76.0739 53.0521 76.1055 52.8429 76.1413C52.7832 76.151 52.7234 76.1607 52.6618 76.1707C51.4574 76.3858 50.3246 76.9177 49.2673 77.5202C49.0326 77.6466 49.0326 77.6466 48.8283 77.677C48.8004 77.6266 48.8004 77.6266 48.772 77.5752C48.2219 76.5879 47.6498 75.6539 46.7839 74.9113C46.6602 74.7961 46.6602 74.7961 46.5617 74.6019C46.6067 74.5952 46.6517 74.5885 46.698 74.5817C46.71 74.539 46.7221 74.4964 46.7345 74.4525C46.7961 74.2826 46.871 74.1603 46.9753 74.0132C47.0115 73.9616 47.0477 73.9101 47.085 73.857C47.1426 73.7759 47.1426 73.7759 47.2014 73.6932C47.2802 73.5814 47.3588 73.4694 47.4374 73.3574C47.4939 73.277 47.4939 73.277 47.5516 73.1949C47.6738 73.0186 47.7901 72.8389 47.905 72.6576C48.0689 72.4041 48.2487 72.177 48.4481 71.9504C48.5803 71.7976 48.7073 71.6412 48.8335 71.4834C51.1181 68.6296 54.1978 66.0795 57.7392 65.0062C57.8192 64.9811 57.8992 64.9561 57.9817 64.9302C58.3962 64.8174 58.8224 64.7602 59.2465 64.6955Z" fill="#F4A99C"/>
<path d="M46.8525 86.882C47.0735 86.8824 47.218 86.9406 47.4077 87.0496C47.4596 87.0789 47.5114 87.1083 47.5648 87.1385C47.6198 87.1702 47.6749 87.2019 47.7316 87.2346C47.8485 87.3005 47.9654 87.3663 48.0824 87.4319C48.1404 87.4646 48.1984 87.4972 48.2582 87.5308C50.0757 88.5426 52.0192 89.2753 53.9887 89.9307C54.0767 89.9603 54.0767 89.9603 54.1665 89.9905C54.8822 90.2288 55.6029 90.4097 56.3411 90.565C56.4652 90.5912 56.4652 90.5912 56.5918 90.618C56.9688 90.6959 57.3432 90.7669 57.7252 90.8145C58.5723 90.9261 58.9989 91.1457 59.5368 91.81C59.7392 92.055 59.9597 92.2834 60.1769 92.5151C60.2685 92.6144 60.36 92.7137 60.4515 92.813C61.1245 93.5394 61.8274 94.2376 62.526 94.9391C62.8264 95.241 63.1254 95.544 63.4218 95.8497C63.4566 95.8854 63.4913 95.921 63.5271 95.9578C63.761 96.2001 63.761 96.2001 63.7723 96.2763C63.2137 96.3266 62.6569 96.3468 62.0964 96.3597C60.7211 96.3947 59.3352 96.4348 57.9707 96.6195C57.909 96.6271 57.8473 96.6348 57.7837 96.6426C57.318 96.7133 56.9794 96.8628 56.6865 97.2417C56.5835 97.3977 56.4893 97.556 56.3977 97.7189C56.369 97.769 56.3403 97.8192 56.3108 97.8708C56.2249 98.0233 56.1411 98.1768 56.0577 98.3307C55.7992 98.8027 55.5344 99.2702 55.2621 99.7343C55.0969 100.016 54.9337 100.299 54.7725 100.583C54.2803 101.451 54.2803 101.451 54.0724 101.754C54.0274 101.761 53.9825 101.767 53.9361 101.774C52.5099 99.6652 51.2209 97.4803 49.9757 95.2605C49.9348 95.1876 49.9348 95.1876 49.8931 95.1132C49.0978 93.6953 48.3193 92.2683 47.5442 90.8392C47.5037 90.7646 47.4632 90.69 47.4214 90.6131C46.9132 89.677 46.4175 88.7361 45.9419 87.783C46.1085 87.5514 46.2709 87.3778 46.4951 87.2005C46.6888 87.0561 46.6888 87.0561 46.8525 86.882Z" fill="#F4A99C"/>
<path d="M37.7946 88.2425C38.0212 88.2936 38.2283 88.3894 38.4396 88.4835C38.5068 88.5129 38.5068 88.5129 38.5754 88.5429C38.6855 88.5911 38.7953 88.6398 38.9052 88.6886C38.8813 89.315 38.7598 89.923 38.6443 90.5375C38.6333 90.5967 38.6222 90.656 38.6109 90.7171C36.791 100.475 36.791 100.475 35.3491 104.603C35.3041 104.609 35.2591 104.616 35.2128 104.623C35.0878 104.513 34.9708 104.402 34.8537 104.285C34.7799 104.212 34.7062 104.139 34.6323 104.067C34.5941 104.029 34.5558 103.991 34.5164 103.952C34.3316 103.771 34.1432 103.594 33.9548 103.417C33.6743 103.153 33.3954 102.887 33.1183 102.619C33.0169 102.521 32.9155 102.423 32.8142 102.325C32.7284 102.242 32.6427 102.159 32.557 102.076C32.4057 101.93 32.2541 101.784 32.1025 101.638C32.0309 101.569 32.0309 101.569 31.9579 101.498C31.418 100.973 31.418 100.973 30.7308 100.693C30.5223 100.701 30.335 100.719 30.1303 100.752C30.068 100.761 30.0057 100.771 29.9415 100.781C28.3676 101.047 26.8016 101.485 25.27 101.931C24.9796 102.015 24.6997 102.085 24.3982 102.12C24.4529 101.787 24.6049 101.533 24.7781 101.25C25.1355 100.652 25.4566 100.038 25.7727 99.4168C25.8451 99.2747 25.918 99.1327 25.9911 98.991C26.221 98.5449 26.4469 98.097 26.6708 97.648C26.7358 97.5179 26.8009 97.3878 26.8663 97.2578C27.0125 96.9665 27.1571 96.675 27.2943 96.3793C27.3173 96.3311 27.3403 96.2828 27.364 96.2331C27.4244 96.1062 27.4834 95.9785 27.5422 95.8508C27.7215 95.591 27.9211 95.4901 28.1988 95.3599C28.3322 95.2926 28.4655 95.225 28.5987 95.1572C28.6727 95.1198 28.7468 95.0824 28.8231 95.0439C31.9633 93.4469 35.3922 91.1552 37.5554 88.3313C37.6561 88.2474 37.6561 88.2474 37.7946 88.2425Z" fill="#F4A99C"/>
<path d="M44.0943 75.8031C45.3754 76.5379 46.1952 77.678 46.7318 79.032C46.7527 79.0836 46.7737 79.1351 46.7952 79.1883C47.158 80.3329 47.0819 81.5904 46.7226 82.7234C46.7033 82.7887 46.6839 82.854 46.6639 82.9214C46.2219 84.2717 45.2397 85.362 43.9908 86.0235C42.5538 86.7464 41.0574 86.8613 39.5264 86.3661C38.0341 85.8455 36.9253 84.8169 36.2199 83.4074C35.5229 81.8561 35.4711 80.2947 36.0166 78.6946C36.1761 78.282 36.3855 77.9102 36.6239 77.5384C36.6524 77.4922 36.6809 77.4459 36.7102 77.3983C38.3037 75.0269 41.6799 74.4666 44.0943 75.8031Z" fill="#F4A99C"/>
</svg>
