<svg width="350" height="350" viewBox="0 0 350 350" fill="none" xmlns="http://www.w3.org/2000/svg">
<path d="M133.054 42.4396C133.861 43.1468 134.639 43.8814 135.412 44.6254C135.568 44.7669 135.724 44.9083 135.884 45.0541C138.456 47.4596 140.497 50.5739 142.3 53.5794C142.401 53.7472 142.502 53.915 142.607 54.0878C150.993 68.0745 156.668 86.2422 156.534 102.712C156.846 102.623 156.846 102.623 157.164 102.532C159.256 101.951 161.33 101.525 163.479 101.205C163.638 101.181 163.796 101.158 163.96 101.133C164.932 100.988 165.905 100.847 166.878 100.709C167.289 100.651 167.7 100.589 168.111 100.528C179.331 98.866 190.722 100.335 201.764 102.482C201.754 102.222 201.744 101.963 201.734 101.695C201.736 99.9456 202.005 98.2146 202.237 96.4842C202.262 96.2949 202.287 96.1055 202.313 95.9104C204.478 79.7693 208.516 61.9355 218.983 48.9876C219.087 48.8576 219.19 48.7276 219.297 48.5937C224.505 42.1025 231.489 36.6532 239.876 35.2122C244.899 34.9072 248.971 35.139 252.977 38.4121C254.389 39.7293 255.283 41.3263 256.177 43.0183C256.295 43.242 256.414 43.4658 256.536 43.6963C257.859 46.3972 258.272 49.3717 258.289 52.3517C258.291 52.5374 258.293 52.7231 258.294 52.9144C258.298 53.514 258.3 54.1135 258.3 54.713C258.3 55.0213 258.3 55.0213 258.301 55.3358C258.297 58.6972 258.129 61.9707 257.554 65.2886C257.497 65.6271 257.497 65.6271 257.438 65.9724C254.171 84.7915 245.697 103.29 233.677 118.094C234.362 118.914 235.046 119.706 235.815 120.448C236.881 121.497 237.793 122.668 238.728 123.834C238.879 124.016 239.031 124.198 239.187 124.386C241.388 127.053 243.208 130.023 244.927 133.018C245.009 133.16 245.092 133.302 245.176 133.449C250.174 142.161 253.244 152.75 253.222 162.823C253.223 163.049 253.223 163.275 253.223 163.508C253.223 163.981 253.223 164.455 253.222 164.928C253.221 165.648 253.222 166.368 253.223 167.088C253.223 167.551 253.223 168.014 253.222 168.477C253.223 168.689 253.223 168.902 253.224 169.121C253.219 170.42 253.127 171.677 252.962 172.967C253.181 172.982 253.181 172.982 253.404 172.998C254.07 173.047 254.736 173.1 255.402 173.153C255.631 173.169 255.86 173.185 256.097 173.202C257.335 173.305 258.324 173.42 259.391 174.115C259.947 174.782 260.071 175.185 260.166 176.052C260.069 176.972 259.925 177.489 259.391 178.247C258.143 178.929 257.23 179.011 255.832 178.879C255.667 178.866 255.501 178.854 255.331 178.842C254.305 178.762 253.291 178.632 252.273 178.477C251.759 179.976 251.3 181.486 250.867 183.011C250.807 183.222 250.746 183.433 250.683 183.651C250.625 183.855 250.567 184.06 250.507 184.27C250.455 184.453 250.402 184.636 250.349 184.824C250.202 185.384 250.086 185.944 249.978 186.512C250.219 186.596 250.46 186.679 250.709 186.765C255.084 188.317 255.084 188.317 256.177 189.956C256.33 190.746 256.337 191.464 256.177 192.252C255.598 193.086 254.926 193.505 253.978 193.836C252.784 193.871 251.829 193.409 250.738 192.955C250.307 192.78 249.876 192.606 249.444 192.432C249.16 192.315 249.16 192.315 248.869 192.195C248.35 191.985 248.35 191.985 247.682 192.023C247.311 192.59 246.985 193.15 246.663 193.745C244.98 196.724 242.938 199.429 240.564 201.895C240.382 202.088 240.382 202.088 240.196 202.285C236.518 206.166 232.258 209.055 227.492 211.466C227.262 211.583 227.262 211.583 227.027 211.702C226.367 212.026 225.927 212.227 225.182 212.227C225.182 212.378 225.182 212.53 225.182 212.686C225.366 212.733 225.551 212.78 225.741 212.829C226.822 213.246 227.694 213.859 228.64 214.522C228.833 214.657 229.026 214.791 229.225 214.929C231.899 216.797 234.422 218.822 236.891 220.951C237.055 221.092 237.22 221.233 237.39 221.379C237.839 221.768 238.284 222.162 238.728 222.558C238.916 222.725 239.104 222.892 239.298 223.064C242.36 225.821 245.415 228.684 247.911 231.971C248.085 232.187 248.259 232.403 248.438 232.625C252.448 237.668 257.521 244.69 256.865 251.487C256.845 251.762 256.845 251.762 256.825 252.044C256.458 255.026 254.749 258.02 252.503 259.981C251.035 261.078 249.423 261.738 247.682 262.277C247.525 262.329 247.369 262.382 247.208 262.435C242.062 263.883 236.1 261.82 231.43 259.726C231.247 259.645 231.065 259.563 230.877 259.479C230.74 259.418 230.603 259.356 230.462 259.293C230.516 259.696 230.516 259.696 230.571 260.107C232.396 273.948 233.469 287.816 233.503 301.778C233.504 302.232 233.506 302.686 233.508 303.14C233.531 310.329 233.473 317.771 228.375 323.421C225.893 325.783 222.712 327.086 219.442 327.94C219.273 327.985 219.103 328.03 218.929 328.076C216.853 328.536 214.727 328.493 212.612 328.497C211.943 328.5 211.274 328.511 210.605 328.523C207.164 328.553 204.271 327.977 201.204 326.362C201.052 326.283 200.9 326.205 200.743 326.124C197.323 324.312 194.719 321.425 193.496 317.716C192.623 314.837 192.175 311.843 191.662 308.884C191.556 308.29 191.45 307.695 191.344 307.101C191.219 306.394 191.096 305.688 190.973 304.981C190.695 305.002 190.695 305.002 190.411 305.023C184.177 305.48 178.003 305.55 171.759 305.225C171.47 305.21 171.47 305.21 171.175 305.195C170.627 305.166 170.08 305.135 169.532 305.104C169.369 305.095 169.205 305.086 169.037 305.077C168.289 305.032 167.584 304.971 166.866 304.752C166.85 304.945 166.85 304.945 166.834 305.142C166.191 312.26 165.187 320.009 159.505 324.918C158.732 325.487 157.947 325.951 157.094 326.391C156.894 326.496 156.894 326.496 156.689 326.603C153.417 328.187 150.257 328.582 146.661 328.536C145.974 328.529 145.287 328.532 144.599 328.536C141.124 328.534 137.851 328.132 134.666 326.649C134.41 326.532 134.41 326.532 134.15 326.412C130.269 324.552 127.801 321.618 126.228 317.609C126.098 317.279 126.098 317.279 125.965 316.942C124.374 312.392 124.505 307.377 124.532 302.623C124.535 302.118 124.537 301.612 124.538 301.107C124.575 287.911 125.446 274.799 127.135 261.711C127.156 261.545 127.177 261.379 127.199 261.208C127.287 260.538 127.392 259.935 127.606 259.293C127.358 259.393 127.11 259.493 126.855 259.596C120.673 262.064 114.474 264.133 107.994 261.499C104.761 259.971 102.921 257.572 101.662 254.242C100.128 249.665 102.047 244.994 104.074 240.92C107.638 234.141 113.227 227.733 119.036 222.784C119.466 222.418 119.89 222.047 120.312 221.672C124.156 218.276 128.279 215.136 132.657 212.456C132.523 212.385 132.389 212.313 132.251 212.24C125.019 208.366 118.352 203.953 113.601 197.074C113.502 196.93 113.403 196.787 113.301 196.639C112.265 195.133 111.28 193.617 110.386 192.023C109.353 192.207 108.395 192.44 107.422 192.835C107.183 192.931 107.183 192.931 106.939 193.029C106.621 193.16 106.304 193.294 105.99 193.433C104.864 193.893 104.202 193.885 103.04 193.4C102.337 192.787 101.981 192.427 101.781 191.521C101.724 190.597 101.842 190.049 102.279 189.224C103.764 187.706 106.073 187.139 108.091 186.742C108.021 186.503 108.021 186.503 107.95 186.259C107.737 185.521 107.526 184.783 107.316 184.044C107.243 183.794 107.17 183.543 107.095 183.285C106.621 181.617 106.271 179.963 106.024 178.247C105.764 178.318 105.503 178.389 105.235 178.462C104.15 178.701 103.069 178.811 101.963 178.893C101.797 178.908 101.631 178.923 101.459 178.938C100.336 179.009 99.6264 178.849 98.6773 178.247C97.9877 177.443 97.8765 176.731 97.9249 175.705C98.0245 175.013 98.2136 174.638 98.6773 174.115C100.024 173.398 101.289 173.265 102.796 173.153C103.018 173.134 103.241 173.116 103.47 173.096C104.015 173.051 104.561 173.007 105.106 172.967C105.069 172.715 105.032 172.464 104.994 172.205C104.846 171.012 104.835 169.826 104.83 168.625C104.828 168.265 104.828 168.265 104.826 167.899C104.824 167.391 104.822 166.884 104.821 166.377C104.819 165.62 104.812 164.863 104.805 164.105C104.783 159.794 105.196 155.58 106.153 151.371C106.211 151.118 106.268 150.865 106.327 150.604C107.462 145.802 109.111 141.111 111.305 136.691C111.406 136.484 111.507 136.277 111.611 136.063C114.143 130.907 117.257 126.067 121.155 121.832C121.612 121.335 122.056 120.83 122.497 120.319C123.103 119.623 123.73 118.966 124.391 118.324C124.083 117.6 123.653 117.048 123.146 116.451C119.519 112.156 116.483 107.193 113.83 102.253C113.718 102.046 113.606 101.838 113.49 101.625C106.769 89.1737 101.832 75.4617 100.055 61.3855C100.035 61.2263 100.014 61.0671 99.9933 60.903C99.8472 59.6895 99.7827 58.4918 99.7706 57.2699C99.7683 57.0813 99.766 56.8928 99.7637 56.6985C99.7019 50.2738 99.8598 43.8027 104.647 38.8856C104.801 38.722 104.956 38.5583 105.116 38.3897C106.925 36.6266 109.27 35.5691 111.764 35.2122C112.01 35.1744 112.01 35.1744 112.261 35.136C119.949 34.1172 127.322 37.5424 133.054 42.4396Z" fill="white"/>
<path d="M245.744 140.827C245.744 156.733 216.899 129.607 179.592 129.607C142.285 129.607 111.436 156.733 111.436 140.827C111.436 124.921 142.285 104.363 179.592 104.363C216.899 104.363 245.744 124.921 245.744 140.827Z" fill="#AADCE7"/>
<path d="M145.402 69.209C155.45 92.1075 154.801 117.215 145.402 121.339C136.004 125.463 120.239 110.243 110.192 87.3443C100.145 64.4458 99.6192 42.5397 109.018 38.4158C118.417 34.2919 135.355 46.3104 145.402 69.209Z" fill="#AADCE7"/>
<path d="M211.424 70.2113C202.115 93.4197 203.566 118.493 213.092 122.314C222.618 126.135 237.887 110.419 247.196 87.2101C256.505 64.0017 256.329 42.09 246.804 38.2691C237.278 34.4482 220.733 47.0028 211.424 70.2113Z" fill="#AADCE7"/>
<path d="M133.054 42.4396C133.861 43.1468 134.639 43.8814 135.412 44.6254C135.568 44.7669 135.724 44.9083 135.884 45.0541C138.456 47.4596 140.497 50.5739 142.3 53.5794C142.401 53.7472 142.502 53.915 142.607 54.0878C150.993 68.0745 156.668 86.2422 156.534 102.712C156.846 102.623 156.846 102.623 157.164 102.532C159.256 101.951 161.33 101.525 163.479 101.205C163.638 101.181 163.796 101.158 163.96 101.133C164.932 100.988 165.905 100.847 166.878 100.709C167.289 100.651 167.7 100.589 168.111 100.528C179.331 98.866 190.722 100.335 201.764 102.482C201.754 102.222 201.744 101.963 201.734 101.695C201.736 99.9456 202.005 98.2146 202.237 96.4842C202.262 96.2949 202.287 96.1055 202.313 95.9104C204.478 79.7693 208.516 61.9355 218.983 48.9876C219.087 48.8576 219.19 48.7276 219.297 48.5937C224.505 42.1025 231.489 36.6532 239.876 35.2122C244.899 34.9072 248.971 35.139 252.977 38.4121C254.389 39.7293 255.283 41.3263 256.177 43.0183C256.295 43.242 256.414 43.4658 256.536 43.6963C257.859 46.3972 258.272 49.3717 258.289 52.3517C258.291 52.5374 258.293 52.7231 258.294 52.9144C258.298 53.514 258.3 54.1135 258.3 54.713C258.3 55.0213 258.3 55.0213 258.301 55.3358C258.297 58.6972 258.129 61.9707 257.554 65.2886C257.497 65.6271 257.497 65.6271 257.438 65.9724C254.171 84.7915 245.697 103.29 233.677 118.094C234.362 118.914 235.046 119.706 235.815 120.448C236.881 121.497 237.793 122.668 238.728 123.834C238.879 124.016 239.031 124.198 239.187 124.386C241.388 127.053 243.208 130.023 244.927 133.018C245.009 133.16 245.092 133.302 245.176 133.449C250.174 142.161 253.244 152.75 253.222 162.823C253.223 163.049 253.223 163.275 253.223 163.508C253.223 163.981 253.223 164.455 253.222 164.928C253.221 165.648 253.222 166.368 253.223 167.088C253.223 167.551 253.223 168.014 253.222 168.477C253.223 168.689 253.223 168.902 253.224 169.121C253.219 170.42 253.127 171.677 252.962 172.967C253.181 172.982 253.181 172.982 253.404 172.998C254.07 173.047 254.736 173.1 255.402 173.153C255.631 173.169 255.86 173.185 256.097 173.202C257.335 173.305 258.324 173.42 259.391 174.115C259.947 174.782 260.071 175.185 260.166 176.052C260.069 176.972 259.925 177.489 259.391 178.247C258.143 178.929 257.23 179.011 255.832 178.879C255.667 178.866 255.501 178.854 255.331 178.842C254.305 178.762 253.291 178.632 252.273 178.477C251.759 179.976 251.3 181.486 250.867 183.011C250.807 183.222 250.746 183.433 250.683 183.651C250.625 183.855 250.567 184.06 250.507 184.27C250.455 184.453 250.402 184.636 250.349 184.824C250.202 185.384 250.086 185.944 249.978 186.512C250.219 186.596 250.46 186.679 250.709 186.765C255.084 188.317 255.084 188.317 256.177 189.956C256.33 190.746 256.337 191.464 256.177 192.252C255.598 193.086 254.926 193.505 253.978 193.836C252.784 193.871 251.829 193.409 250.738 192.955C250.307 192.78 249.876 192.606 249.444 192.432C249.16 192.315 249.16 192.315 248.869 192.195C248.35 191.985 248.35 191.985 247.682 192.023C247.311 192.59 246.985 193.15 246.663 193.745C244.98 196.724 242.938 199.429 240.564 201.895C240.382 202.088 240.382 202.088 240.196 202.285C236.518 206.166 232.258 209.055 227.492 211.466C227.262 211.583 227.262 211.583 227.027 211.702C226.367 212.026 225.927 212.227 225.182 212.227C225.182 212.378 225.182 212.53 225.182 212.686C225.366 212.733 225.551 212.78 225.741 212.829C226.822 213.246 227.694 213.859 228.64 214.522C228.833 214.657 229.026 214.791 229.225 214.929C231.899 216.797 234.422 218.822 236.891 220.951C237.055 221.092 237.22 221.233 237.39 221.379C237.839 221.768 238.284 222.162 238.728 222.558C238.916 222.725 239.104 222.892 239.298 223.064C242.36 225.821 245.415 228.684 247.911 231.971C248.085 232.187 248.259 232.403 248.438 232.625C252.448 237.668 257.521 244.69 256.865 251.487C256.845 251.762 256.845 251.762 256.825 252.044C256.458 255.026 254.749 258.02 252.503 259.981C251.035 261.078 249.423 261.738 247.682 262.277C247.525 262.329 247.369 262.382 247.208 262.435C242.062 263.883 236.1 261.82 231.43 259.726C231.247 259.645 231.065 259.563 230.877 259.479C230.74 259.418 230.603 259.356 230.462 259.293C230.516 259.696 230.516 259.696 230.571 260.107C232.396 273.948 233.469 287.816 233.503 301.778C233.504 302.232 233.506 302.686 233.508 303.14C233.531 310.329 233.473 317.771 228.375 323.421C225.893 325.783 222.712 327.086 219.442 327.94C219.273 327.985 219.103 328.03 218.929 328.076C216.853 328.536 214.727 328.493 212.612 328.497C211.943 328.5 211.274 328.511 210.605 328.523C207.164 328.553 204.271 327.977 201.204 326.362C201.052 326.283 200.9 326.205 200.743 326.124C197.323 324.312 194.719 321.425 193.496 317.716C192.623 314.837 192.175 311.843 191.662 308.884C191.556 308.29 191.45 307.695 191.344 307.101C191.219 306.394 191.096 305.688 190.973 304.981C190.695 305.002 190.695 305.002 190.411 305.023C184.177 305.48 178.003 305.55 171.759 305.225C171.47 305.21 171.47 305.21 171.175 305.195C170.627 305.166 170.08 305.135 169.532 305.104C169.369 305.095 169.205 305.086 169.037 305.077C168.289 305.032 167.584 304.971 166.866 304.752C166.85 304.945 166.85 304.945 166.834 305.142C166.191 312.26 165.187 320.009 159.505 324.918C158.732 325.487 157.947 325.951 157.094 326.391C156.894 326.496 156.894 326.496 156.689 326.603C153.417 328.187 150.257 328.582 146.661 328.536C145.974 328.529 145.287 328.532 144.599 328.536C141.124 328.534 137.851 328.132 134.666 326.649C134.41 326.532 134.41 326.532 134.15 326.412C130.269 324.552 127.801 321.618 126.228 317.609C126.098 317.279 126.098 317.279 125.965 316.942C124.374 312.392 124.505 307.377 124.532 302.623C124.535 302.118 124.537 301.612 124.538 301.107C124.575 287.911 125.446 274.799 127.135 261.711C127.156 261.545 127.177 261.379 127.199 261.208C127.287 260.538 127.392 259.935 127.606 259.293C127.358 259.393 127.11 259.493 126.855 259.596C120.673 262.064 114.474 264.133 107.994 261.499C104.761 259.971 102.921 257.572 101.662 254.242C100.128 249.665 102.047 244.994 104.074 240.92C107.638 234.141 113.227 227.733 119.036 222.784C119.466 222.418 119.89 222.047 120.312 221.672C124.156 218.276 128.279 215.136 132.657 212.456C132.523 212.385 132.389 212.313 132.251 212.24C125.019 208.366 118.352 203.953 113.601 197.074C113.502 196.93 113.403 196.787 113.301 196.639C112.265 195.133 111.28 193.617 110.386 192.023C109.353 192.207 108.395 192.44 107.422 192.835C107.183 192.931 107.183 192.931 106.939 193.029C106.621 193.16 106.304 193.294 105.99 193.433C104.864 193.893 104.202 193.885 103.04 193.4C102.337 192.787 101.981 192.427 101.781 191.521C101.724 190.597 101.842 190.049 102.279 189.224C103.764 187.706 106.073 187.139 108.091 186.742C108.021 186.503 108.021 186.503 107.95 186.259C107.737 185.521 107.526 184.783 107.316 184.044C107.243 183.794 107.17 183.543 107.095 183.285C106.621 181.617 106.271 179.963 106.024 178.247C105.764 178.318 105.503 178.389 105.235 178.462C104.15 178.701 103.069 178.811 101.963 178.893C101.797 178.908 101.631 178.923 101.459 178.938C100.336 179.009 99.6264 178.849 98.6773 178.247C97.9877 177.443 97.8765 176.731 97.9249 175.705C98.0245 175.013 98.2136 174.638 98.6773 174.115C100.024 173.398 101.289 173.265 102.796 173.153C103.018 173.134 103.241 173.116 103.47 173.096C104.015 173.051 104.561 173.007 105.106 172.967C105.069 172.715 105.032 172.464 104.994 172.205C104.846 171.012 104.835 169.826 104.83 168.625C104.828 168.265 104.828 168.265 104.826 167.899C104.824 167.391 104.822 166.884 104.821 166.377C104.819 165.62 104.812 164.863 104.805 164.105C104.783 159.794 105.196 155.58 106.153 151.371C106.211 151.118 106.268 150.865 106.327 150.604C107.462 145.802 109.111 141.111 111.305 136.691C111.406 136.484 111.507 136.277 111.611 136.063C114.143 130.907 117.257 126.067 121.155 121.832C121.612 121.335 122.056 120.83 122.497 120.319C123.103 119.623 123.73 118.966 124.391 118.324C124.083 117.6 123.653 117.048 123.146 116.451C119.519 112.156 116.483 107.193 113.83 102.253C113.718 102.046 113.606 101.838 113.49 101.625C106.769 89.1737 101.832 75.4617 100.055 61.3855C100.035 61.2263 100.014 61.0671 99.9933 60.903C99.8472 59.6895 99.7827 58.4918 99.7706 57.2699C99.7683 57.0813 99.766 56.8928 99.7637 56.6985C99.7019 50.2738 99.8598 43.8027 104.647 38.8856C104.801 38.722 104.956 38.5583 105.116 38.3897C106.925 36.6266 109.27 35.5691 111.764 35.2122C112.01 35.1744 112.01 35.1744 112.261 35.136C119.949 34.1172 127.322 37.5424 133.054 42.4396ZM108.391 44.4622C106.215 47.8974 105.926 51.6675 105.938 55.6458C105.938 55.8137 105.939 55.9817 105.939 56.1548C105.962 62.0956 107.041 67.8189 108.55 73.5538C108.617 73.8107 108.685 74.0677 108.754 74.3324C110.5 80.8517 113.044 87.1893 115.897 93.2986C115.994 93.5076 116.091 93.7167 116.192 93.932C118.736 99.3315 121.86 104.476 125.353 109.313C125.478 109.486 125.603 109.659 125.732 109.838C127.381 112.099 129.152 114.263 130.995 116.368C131.62 117.134 131.745 117.672 131.71 118.654C131.305 120.302 130.185 121.291 128.969 122.385C128.659 122.67 128.349 122.956 128.039 123.241C127.887 123.381 127.735 123.521 127.578 123.665C118.023 132.49 112.261 145.698 110.846 158.502C110.824 158.684 110.803 158.865 110.781 159.052C110.59 160.849 110.573 162.645 110.574 164.45C110.573 164.969 110.569 165.488 110.564 166.008C110.556 168.284 110.738 170.486 111.075 172.737C111.478 172.75 111.478 172.75 111.889 172.763C112.244 172.778 112.6 172.793 112.955 172.809C113.132 172.814 113.308 172.819 113.49 172.824C114.545 172.874 115.27 172.977 116.126 173.655C116.694 174.507 116.711 175.193 116.585 176.181C116.304 176.828 116.102 177.196 115.509 177.58C114.811 177.853 114.175 177.887 113.429 177.931C113.16 177.949 112.891 177.966 112.614 177.983C112.409 177.995 112.205 178.006 111.994 178.018C112.069 179.573 112.366 181.01 112.768 182.509C112.816 182.695 112.864 182.881 112.914 183.072C113.043 183.537 113.205 183.993 113.371 184.446C114.075 184.681 114.453 184.667 115.179 184.618C116.056 184.613 116.308 184.645 117.073 185.135C117.55 185.898 117.673 186.334 117.618 187.218C117.425 187.968 116.94 188.333 116.356 188.808C116.124 189.036 115.894 189.265 115.667 189.497C117.434 192.751 119.543 195.546 122.096 198.222C122.265 198.404 122.435 198.586 122.61 198.773C127.85 204.233 135.208 207.587 142.457 209.352C143.762 209.686 144.694 209.932 145.514 211.079C145.856 212.039 145.854 212.885 145.456 213.819C144.66 214.758 143.851 214.864 142.701 215.039C137.019 216.022 131.959 219.633 127.606 223.247C127.311 223.485 127.015 223.724 126.72 223.962C124.475 225.777 122.33 227.665 120.259 229.675C120.068 229.86 119.877 230.045 119.68 230.235C116.051 233.76 116.051 233.76 112.912 237.711C112.698 238.018 112.698 238.018 112.479 238.331C107.989 244.553 107.989 244.553 106.943 251.946C107.37 253.519 108.007 254.91 109.431 255.795C109.666 255.907 109.901 256.02 110.143 256.136C110.377 256.251 110.611 256.365 110.852 256.484C114.114 257.838 118.175 256.881 121.316 255.62C122.538 255.108 123.745 254.562 124.951 254.012C125.21 253.895 125.468 253.778 125.735 253.657C125.982 253.542 126.23 253.427 126.486 253.309C126.707 253.207 126.928 253.105 127.156 253C127.492 252.819 127.492 252.819 127.835 252.635C127.97 252.567 128.105 252.5 128.243 252.43C129.677 251.593 129.956 250.355 130.397 248.826C130.477 248.565 130.558 248.304 130.641 248.035C130.897 247.202 131.146 246.367 131.394 245.532C134.027 236.773 134.027 236.773 135.531 235.686C136.245 235.346 136.694 235.317 137.478 235.415C138.346 235.81 138.745 236.137 139.085 237.022C139.263 239.395 138.414 241.611 137.655 243.816C137.304 244.834 136.967 245.858 136.629 246.88C136.562 247.082 136.495 247.283 136.427 247.49C133.233 257.155 131.864 267.236 131.091 277.351C131.047 277.919 131.003 278.487 130.958 279.055C130.407 286.164 130.199 293.261 130.131 300.389C130.129 300.578 130.127 300.766 130.125 300.96C129.671 310.75 129.671 310.75 133.789 319.23C135.978 321.347 138.659 322.184 141.611 322.66C141.795 322.69 141.98 322.72 142.17 322.751C146.836 323.351 152.18 323.14 156.147 320.407C158.443 318.561 159.276 315.969 159.863 313.175C159.911 312.952 159.959 312.729 160.008 312.5C160.455 310.337 160.756 308.157 161.027 305.966C161.671 300.857 161.671 300.857 162.633 299.873C164.318 298.663 166.84 299.203 168.82 299.406C171.896 299.719 174.951 299.764 178.04 299.748C178.879 299.744 179.718 299.743 180.557 299.743C182.915 299.74 185.27 299.725 187.625 299.597C187.788 299.589 187.951 299.58 188.119 299.571C188.936 299.519 189.713 299.409 190.514 299.241C191.164 299.19 191.813 299.189 192.465 299.184C192.636 299.179 192.808 299.175 192.984 299.17C194.025 299.162 194.754 299.208 195.565 299.93C196.347 301.289 196.487 302.757 196.698 304.292C196.777 304.828 196.856 305.364 196.935 305.9C196.974 306.169 197.014 306.438 197.054 306.715C197.829 314.212 197.829 314.212 201.747 320.279C206.171 323.196 211.847 323.555 216.962 322.573C217.174 322.526 217.387 322.479 217.605 322.43C217.834 322.385 218.063 322.341 218.299 322.295C221.478 321.605 223.964 320.158 225.836 317.455C227.328 314.915 227.743 312.043 227.741 309.135C227.742 308.877 227.742 308.877 227.743 308.614C227.745 308.049 227.746 307.483 227.746 306.917C227.747 306.514 227.747 306.111 227.748 305.708C227.75 304.859 227.75 304.011 227.75 303.162C227.75 302.312 227.751 301.461 227.755 300.611C227.784 292.584 227.507 284.571 226.782 276.575C226.765 276.392 226.749 276.21 226.732 276.022C225.759 265.493 224.17 255.299 220.815 245.256C220.728 244.993 220.728 244.993 220.639 244.725C220.357 243.878 220.071 243.034 219.776 242.192C219.096 240.211 218.406 238.071 219.313 236.061C220.165 235.458 220.932 235.33 221.968 235.415C223.511 236.152 224.09 238.125 224.639 239.644C225.062 240.846 225.466 242.055 225.871 243.264C226.01 243.678 226.15 244.092 226.29 244.506C226.359 244.709 226.427 244.911 226.497 245.12C226.634 245.523 226.771 245.927 226.908 246.329C227.216 247.235 227.51 248.138 227.761 249.06C228.271 250.943 228.271 250.943 229.586 252.319C229.949 252.512 230.318 252.693 230.692 252.864C230.969 253.009 230.969 253.009 231.251 253.157C231.829 253.457 232.412 253.737 233.002 254.012C233.316 254.16 233.316 254.16 233.636 254.31C235.453 255.154 237.286 255.905 239.187 256.538C239.368 256.599 239.548 256.66 239.735 256.722C242.393 257.461 245.658 257.248 248.141 256.078C249.762 255.052 250.532 253.727 251.126 251.946C251.655 245.987 247.401 240.325 243.782 235.946C243.016 235.067 242.231 234.207 241.437 233.354C240.816 232.687 240.21 232.006 239.603 231.326C238.813 230.455 238.001 229.666 237.102 228.91C236.638 228.507 236.214 228.079 235.786 227.638C234.908 226.748 233.965 225.968 232.989 225.189C232.395 224.703 231.825 224.198 231.256 223.684C226.841 219.744 221.057 215.726 215.051 214.982C214.13 214.858 213.743 214.78 212.956 214.25C212.46 213.453 212.325 212.937 212.325 211.997C212.607 211.096 212.898 210.709 213.645 210.132C214.593 209.649 215.609 209.418 216.636 209.155C223.034 207.515 228.914 204.638 233.906 200.288C234.13 200.095 234.354 199.901 234.585 199.702C237.799 196.879 240.372 193.49 242.401 189.727C242.401 189.575 242.401 189.424 242.401 189.268C242.145 189.135 241.89 189.002 241.626 188.866C241.132 188.579 240.821 188.384 240.464 187.933C240.188 186.862 240.163 186.122 240.722 185.149C241.908 184.411 243.107 184.586 244.467 184.676C244.695 183.911 244.918 183.146 245.142 182.38C245.206 182.165 245.269 181.951 245.335 181.73C245.695 180.488 245.955 179.305 246.075 178.018C245.775 178.013 245.775 178.013 245.47 178.008C243.039 177.907 243.039 177.907 242.229 177.228C241.512 176.412 241.392 175.91 241.4 174.812C241.539 174.027 242.026 173.671 242.631 173.196C243.388 172.817 244.236 172.879 245.07 172.837C245.254 172.828 245.438 172.818 245.628 172.807C246.083 172.783 246.538 172.76 246.993 172.737C249.571 158.741 245.151 143.333 237.389 131.668C234.722 127.829 231.746 124.224 228.047 121.341C227.118 120.539 226.405 119.771 226.229 118.539C226.416 116.863 227.529 115.743 228.64 114.536C232.321 110.528 235.357 105.827 238.039 101.105C238.192 100.835 238.192 100.835 238.349 100.56C243.422 91.5671 247.413 81.955 249.978 71.9467C250.032 71.7406 250.086 71.5344 250.141 71.322C251.466 66.2161 252.128 61.0154 252.13 55.7462C252.13 55.5909 252.131 55.4355 252.131 55.2755C252.13 52.5156 251.943 49.7749 251.039 47.1509C250.948 46.8762 250.856 46.6016 250.761 46.3186C249.921 44.3123 248.395 42.6146 246.393 41.7358C245.369 41.3658 244.431 41.2873 243.348 41.2963C243.16 41.2978 242.971 41.2993 242.777 41.3008C237.876 41.4433 233.664 43.9198 229.774 46.6917C229.583 46.8258 229.392 46.9599 229.196 47.098C215.755 57.034 211.232 77.0718 208.854 92.6333C208.22 96.8664 207.757 101.116 207.392 105.381C207.374 105.573 207.356 105.765 207.338 105.962C207.306 106.305 207.277 106.648 207.253 106.991C207.153 108.04 206.876 108.629 206.126 109.37C204.37 109.955 202.816 109.364 201.103 108.868C196.09 107.475 191.103 106.621 185.922 106.156C185.558 106.122 185.558 106.122 185.186 106.089C176.063 105.316 166.742 106.358 157.912 108.681C157.37 108.823 156.829 108.965 156.287 109.105C155.857 109.216 155.427 109.331 154.997 109.447C153.922 109.663 152.999 109.763 151.985 109.313C151.198 108.682 151.051 108.18 150.906 107.18C150.875 106.851 150.846 106.522 150.819 106.192C150.784 105.821 150.75 105.45 150.716 105.078C150.698 104.882 150.681 104.686 150.663 104.484C149.113 87.2575 145.811 68.9277 135.641 54.4978C135.504 54.3027 135.504 54.3027 135.364 54.1037C134.191 52.4515 132.909 50.9118 131.509 49.4468C131.381 49.3096 131.253 49.1725 131.122 49.0312C129.94 47.7988 128.662 46.8241 127.247 45.8738C127.024 45.7236 126.801 45.5735 126.572 45.4188C124.831 44.2664 123.134 43.2964 121.177 42.5591C120.954 42.4731 120.954 42.4731 120.727 42.3854C118.785 41.6559 116.941 41.3065 114.863 41.282C114.677 41.2786 114.49 41.2752 114.298 41.2717C111.851 41.3136 109.835 42.5085 108.391 44.4622Z" fill="black"/>
<path d="M192.599 232.437C199.044 238.003 202.318 246.715 203.103 255.122C203.474 259.946 203.657 265.1 202.288 269.77C202.225 269.996 202.225 269.996 202.161 270.227C201.253 273.433 199.535 276.08 197.235 278.427C197.078 278.59 196.92 278.753 196.758 278.921C191.426 284.102 183.808 284.891 176.813 284.766C175.332 284.72 173.892 284.549 172.433 284.276C172.277 284.247 172.122 284.218 171.961 284.188C166.574 283.15 161.71 280.538 158.502 275.865C153.883 268.761 154.151 258.628 155.751 250.566C157.341 243.19 161.027 235.148 167.417 230.873C167.632 230.738 167.848 230.603 168.07 230.463C168.203 230.378 168.335 230.293 168.472 230.205C176.476 225.134 185.456 226.72 192.599 232.437Z" fill="#F4A99C"/>
<path d="M179.722 223.247C180.144 223.275 180.144 223.275 180.573 223.304C187.842 223.908 194.14 227.266 198.859 232.794C202.706 237.441 205.309 243.002 206.871 248.804C206.952 249.097 206.952 249.097 207.034 249.396C207.982 253.098 208.308 256.852 208.281 260.663C208.278 261.29 208.281 261.917 208.286 262.544C208.29 265.879 208.019 269.224 206.9 272.394C206.842 272.562 206.784 272.729 206.725 272.902C204.46 279.167 199.996 284.206 194.005 287.138C185.571 291.058 174.748 291.26 166.036 288.113C161.907 286.549 158.074 283.967 155.386 280.415C155.22 280.198 155.054 279.98 154.883 279.755C149.077 271.752 148.909 262.021 150.343 252.562C150.69 250.389 151.25 248.293 151.942 246.206C152.024 245.955 152.024 245.955 152.109 245.698C152.859 243.458 153.845 241.356 154.943 239.267C155.133 238.905 155.316 238.539 155.499 238.172C158.725 231.883 164.814 226.566 171.514 224.338C174.15 223.59 176.978 223.041 179.722 223.247ZM163.881 234.956C163.717 235.121 163.553 235.285 163.384 235.454C159.366 239.72 157.081 245.419 155.787 251.056C155.753 251.207 155.718 251.357 155.682 251.512C155.044 254.497 154.85 257.468 154.867 260.51C154.869 261.06 154.867 261.61 154.864 262.16C154.858 268.342 156.377 274.176 160.709 278.751C166.108 283.917 173.431 284.924 180.607 284.82C187.326 284.656 193.55 282.453 198.263 277.567C199.102 276.597 199.759 275.563 200.385 274.446C200.508 274.231 200.631 274.016 200.758 273.795C201.707 272.029 202.275 270.206 202.681 268.247C202.743 267.961 202.743 267.961 202.806 267.668C203.207 265.593 203.212 263.55 203.198 261.445C203.197 261.262 203.197 261.078 203.196 260.889C203.184 258.267 203.14 255.682 202.681 253.094C202.653 252.933 202.625 252.772 202.595 252.607C201.537 246.824 199.412 241.081 195.564 236.564C195.283 236.223 195.283 236.223 194.995 235.875C193.421 234.026 191.601 232.636 189.595 231.283C189.394 231.143 189.193 231.004 188.986 230.86C180.824 225.536 170.275 228.476 163.881 234.956Z" fill="black"/>
<path d="M236.661 61.8446C237.361 62.3034 237.924 62.8459 238.498 63.4518C238.673 63.627 238.848 63.8022 239.029 63.9827C241.09 67.2649 240.096 71.5456 239.314 75.0775C238.791 77.2915 238.095 79.4417 237.35 81.5894C237.288 81.7706 237.226 81.9517 237.162 82.1384C236.827 83.1176 236.483 84.0932 236.128 85.0656C235.982 85.4655 235.839 85.8664 235.696 86.2673C235.006 88.1454 234.139 89.9059 233.226 91.6823C232.994 92.1381 232.767 92.5961 232.542 93.0555C229.816 98.6152 226.733 104.221 222.656 108.911C222.48 109.113 222.48 109.113 222.301 109.32C221.934 109.736 221.565 110.15 221.192 110.561C221.08 110.685 220.968 110.81 220.853 110.938C220.019 111.834 219.317 112.493 218.087 112.692C216.957 112.703 216.208 112.703 215.209 112.139C213.735 110.378 213.329 109.129 213.472 106.844C213.594 105.71 213.763 104.584 213.946 103.458C213.984 103.221 213.984 103.221 214.022 102.978C216.036 90.4178 219.863 71.8499 230.907 63.8248C232.636 62.6163 234.486 61.4587 236.661 61.8446Z" fill="#F4A99C"/>
<path d="M123.122 61.905C123.314 61.9609 123.505 62.0169 123.703 62.0745C123.89 62.1281 124.077 62.1816 124.27 62.2368C130.01 64.2259 133.272 70.2966 135.765 75.4275C137.244 78.5512 138.434 81.7633 139.545 85.0336C139.609 85.2182 139.672 85.4028 139.738 85.593C141.762 91.4815 142.995 97.5811 144 103.713C144.163 104.71 144.334 105.705 144.505 106.701C144.791 108.604 144.771 109.864 143.632 111.465C142.967 112.157 142.37 112.531 141.42 112.7C140.001 112.728 139.029 112.655 137.947 111.697C131.084 104.531 126.106 95.0438 122.325 85.9519C122.199 85.6644 122.073 85.3772 121.946 85.0901C120.609 82.0185 119.607 78.828 118.652 75.6203C118.6 75.4469 118.547 75.2735 118.494 75.0949C117.916 73.0992 117.878 71.0701 117.834 69.0053C117.825 68.7421 117.816 68.479 117.807 68.2079C117.8 66.0015 118.497 64.7392 119.847 63.0476C120.929 62.0294 121.631 61.6036 123.122 61.905Z" fill="#F4A99C"/>
<path d="M231.039 168.408C233.355 170.137 234.979 172.179 235.447 175.073C235.794 178.506 235.384 181.143 233.229 183.895C231.675 185.712 229.612 186.929 227.248 187.431C223.977 187.598 221.415 187.448 218.753 185.364C218.614 185.26 218.474 185.155 218.331 185.047C216.735 183.668 215.331 181.042 215.079 178.936C214.852 175.746 215.422 173.241 217.375 170.671C217.624 170.316 217.624 170.316 217.877 169.953C221.186 166.16 226.963 165.779 231.039 168.408Z" fill="#F4A99C"/>
<path d="M138.109 168.418C140.406 169.966 141.966 172.064 142.634 174.754C143.157 177.855 142.798 180.83 141.022 183.485C139.386 185.572 137.298 186.86 134.723 187.431C131.063 187.652 128.477 187.115 125.561 184.786C123.999 183.381 122.728 181.027 122.504 178.922C122.327 175.49 122.768 172.896 124.968 170.143C128.52 166.289 133.691 165.801 138.109 168.418Z" fill="#F4A99C"/>
<path d="M179.149 165.562C179.396 165.561 179.643 165.559 179.898 165.557C183.287 165.565 183.287 165.565 184.588 166.403C185.362 167.336 185.644 168.027 185.552 169.248C185.277 170.796 184.43 172.356 183.168 173.315C182.486 173.75 181.871 174.088 181.101 174.344C180.97 176.571 181.24 178.773 182.708 180.543C183.806 181.642 184.971 181.854 186.467 181.992C188.112 181.851 189.71 181.408 190.973 180.314C191.417 179.726 191.831 179.128 192.232 178.51C192.58 178.018 192.58 178.018 193.039 177.788C194.049 177.672 194.541 177.729 195.436 178.233C196.12 179.05 196.218 179.431 196.142 180.467C195.737 182.3 194.214 183.769 192.736 184.828C189.84 186.671 186.663 186.958 183.308 186.378C181.821 185.916 180.817 185.034 179.722 183.948C179.311 183.476 179.311 183.476 178.805 183.528C178.663 183.727 178.521 183.926 178.374 184.131C177.362 185.41 175.558 186.184 173.983 186.513C170.411 186.799 167.444 186.508 164.57 184.217C163.375 183.17 162.201 182.136 161.974 180.49C161.925 179.584 161.919 179.103 162.475 178.362C163.34 177.751 163.902 177.689 164.943 177.81C165.87 178.163 166.219 178.935 166.723 179.751C167.435 180.826 168.425 181.268 169.621 181.691C171.418 182.004 173.259 182.139 174.902 181.232C176.218 180.091 176.68 178.539 176.968 176.87C177.008 176.647 177.048 176.425 177.089 176.195C177.158 175.503 177.173 175.01 176.968 174.344C176.431 173.872 175.895 173.585 175.256 173.268C173.796 172.514 173.113 171.029 172.606 169.523C172.457 168.575 172.545 168.253 173.022 167.413C174.622 165.356 176.677 165.545 179.149 165.562Z" fill="black"/>
<path d="M213.508 156.53C215.395 158.022 216.144 159.989 216.437 162.333C216.484 164.112 216.022 165.865 214.85 167.227C213.331 168.822 211.891 169.532 209.684 169.609C207.647 169.535 206.23 168.962 204.753 167.536C203.284 165.829 202.96 164.083 203.046 161.867C203.287 159.742 204.058 158.092 205.666 156.666C207.946 155.025 211.157 154.996 213.508 156.53Z" fill="black"/>
<path d="M151.942 156.436C153.598 157.436 154.33 159.236 154.927 161.028C155.116 163.656 154.805 165.621 153.115 167.682C151.587 169.145 149.679 169.609 147.627 169.586C146.011 169.446 144.517 168.779 143.342 167.654C141.762 165.746 141.588 163.618 141.785 161.241C142.015 159.386 142.967 157.877 144.366 156.666C146.769 154.954 149.374 155.179 151.942 156.436Z" fill="black"/>
<path d="M152.699 129.786C153.106 129.965 153.442 130.175 153.651 130.537C153.874 131.146 153.856 131.84 153.551 132.424C153.187 132.974 152.697 133.446 152.21 133.917C152.069 134.054 151.931 134.193 151.793 134.332C149.982 136.12 147.582 137.209 145.021 137.977C144.932 138.005 144.844 138.033 144.752 138.061C143.213 138.51 140.854 138.899 139.308 138.339C138.925 138.14 138.765 137.887 138.585 137.544C138.449 137.031 138.407 136.612 138.671 136.128C139.34 135.488 140.136 135.419 141.081 135.291C144.175 134.842 147.223 134.019 149.217 131.787C149.517 131.421 149.778 131.045 150.031 130.654C150.648 129.708 151.487 129.352 152.699 129.786Z" fill="black"/>
<path d="M206.354 129.714C206.981 130.076 207.358 130.579 207.762 131.162C209.238 133.27 211.549 134.611 214.09 135.084C214.58 135.164 215.071 135.239 215.563 135.305C216.276 135.406 217.025 135.526 217.55 136.043C217.806 136.472 217.833 136.869 217.774 137.354C217.632 137.774 217.445 138.14 217.037 138.353C215.898 138.823 214.317 138.582 213.168 138.263C213.093 138.242 213.017 138.221 212.939 138.199C211.743 137.859 210.603 137.437 209.484 136.9C209.389 136.856 209.295 136.811 209.198 136.765C207.258 135.787 205.086 133.849 204.325 131.815C204.239 131.309 204.258 130.86 204.526 130.413C204.965 129.815 205.59 129.39 206.354 129.714Z" fill="black"/>
<path d="M126.104 97.6825C126.154 97.7034 126.205 97.7243 126.257 97.7458C127.484 98.2581 128.642 98.8924 129.775 99.5852C129.817 99.6108 129.86 99.6364 129.903 99.6628C130.395 99.962 130.87 100.276 131.327 100.626C131.511 100.77 131.511 100.77 131.722 100.865C131.728 100.906 131.734 100.946 131.741 100.988C131.779 100.999 131.818 101.01 131.858 101.021C132.25 101.164 132.577 101.502 132.887 101.772C132.999 101.869 132.999 101.869 133.12 101.951C133.212 102.025 133.212 102.025 133.23 102.147C133.282 102.107 133.333 102.067 133.385 102.026C134.919 100.841 136.855 100.314 138.786 100.547C139.359 100.625 139.897 100.744 140.435 100.959C140.587 101.01 140.587 101.01 140.699 100.934C140.84 100.814 140.94 100.686 141.05 100.537C141.093 100.478 141.136 100.42 141.181 100.36C141.225 100.299 141.27 100.238 141.316 100.175C141.36 100.115 141.405 100.054 141.451 99.9921C141.653 99.7176 141.841 99.4455 142.011 99.15C142.075 99.069 142.142 98.9896 142.211 98.9124C142.363 98.7386 142.503 98.5621 142.637 98.3746C142.839 98.099 143.062 97.85 143.294 97.5998C143.447 97.4332 143.596 97.2631 143.745 97.0923C146.462 94.0526 150.37 91.2811 154.538 90.9525C155.954 90.8849 157.373 91.377 158.448 92.2942C160.628 94.3254 161.546 97.4278 162.252 100.225C162.264 100.27 162.276 100.316 162.289 100.362C162.414 100.85 162.491 101.343 162.565 101.84C162.579 101.932 162.593 102.023 162.607 102.115C162.636 102.306 162.664 102.498 162.693 102.69C162.721 102.882 162.75 103.075 162.78 103.268C162.96 104.445 163.111 105.613 163.166 106.805C163.168 106.852 163.171 106.899 163.173 106.948C163.185 107.213 163.192 107.477 163.195 107.742C163.196 107.819 163.197 107.897 163.198 107.976C163.203 108.767 163.147 109.549 163.062 110.334C163.057 110.386 163.052 110.438 163.046 110.491C162.89 111.96 162.455 113.392 161.628 114.626C161.595 114.677 161.561 114.727 161.527 114.779C160.771 115.854 159.543 116.62 158.261 116.883C157.731 116.975 157.197 117.049 156.664 117.12C156.803 117.263 156.942 117.406 157.081 117.549C157.124 117.593 157.167 117.637 157.212 117.683C157.477 117.956 157.745 118.226 158.014 118.495C160.581 121.059 160.581 121.059 160.598 122.059C160.557 122.543 160.423 122.961 160.095 123.326C159.109 124.113 157.573 123.972 156.384 124.006C156.231 124.011 156.079 124.016 155.926 124.021C155.438 124.037 154.95 124.053 154.462 124.064C153.832 124.059 153.832 124.059 153.265 124.283C153.165 124.413 153.093 124.544 153.018 124.69C152.96 124.791 152.903 124.893 152.845 124.994C152.78 125.108 152.717 125.223 152.655 125.338C152.294 126 151.915 126.653 151.522 127.297C151.499 127.335 151.475 127.374 151.451 127.414C150.505 128.974 150.505 128.974 149.683 129.229C149.143 129.343 148.682 129.225 148.204 128.957C147.952 128.766 147.782 128.501 147.603 128.244C147.575 128.204 147.548 128.164 147.519 128.123C147.206 127.671 146.913 127.208 146.623 126.741C146.594 126.694 146.565 126.647 146.534 126.598C145.232 124.505 144 122.375 142.817 120.212C142.654 119.913 142.489 119.615 142.324 119.317C141.768 118.311 141.229 117.298 140.701 116.277C140.657 116.191 140.657 116.191 140.611 116.104C140.528 115.944 140.446 115.783 140.363 115.622C140.326 115.55 140.326 115.55 140.287 115.476C140.194 115.294 140.117 115.141 140.086 114.936C140.026 114.956 139.965 114.975 139.903 114.995C139.679 115.058 139.465 115.099 139.235 115.132C139.156 115.143 139.077 115.155 138.996 115.167C138.913 115.178 138.831 115.19 138.749 115.202C138.665 115.214 138.581 115.226 138.497 115.238C138.293 115.268 138.089 115.297 137.885 115.326C137.879 115.361 137.872 115.397 137.866 115.433C137.055 120.041 136.106 124.652 134.812 129.151C134.759 129.337 134.707 129.524 134.656 129.71C134.441 130.476 134.231 131.114 133.513 131.538C133.082 131.757 132.574 131.781 132.114 131.649C131.401 131.356 130.827 130.766 130.263 130.256C130.219 130.216 130.176 130.176 130.13 130.135C129.69 129.735 129.257 129.327 128.828 128.915C128.755 128.846 128.683 128.776 128.61 128.707C128.542 128.642 128.474 128.577 128.407 128.512C128.316 128.426 128.224 128.342 128.131 128.258C128.055 128.179 128.055 128.179 127.978 128.098C127.474 127.84 126.684 128.19 126.167 128.332C126.085 128.354 126.002 128.376 125.919 128.398C125.573 128.491 125.226 128.584 124.88 128.678C123.193 129.136 123.193 129.136 122.466 129.246C122.395 129.257 122.395 129.257 122.323 129.268C121.794 129.338 121.333 129.234 120.89 128.94C120.43 128.548 120.256 128.089 120.202 127.494C120.161 126.556 120.859 125.563 121.273 124.757C121.302 124.701 121.33 124.646 121.36 124.588C121.763 123.801 122.178 123.02 122.594 122.239C122.549 122.245 122.504 122.251 122.457 122.257C120.354 122.521 118.753 122.396 117.016 121.108C115.566 119.963 114.613 118.09 114.03 116.371C113.98 116.224 113.928 116.078 113.876 115.933C112.182 111.099 111.142 104.278 113.384 99.4899C114.05 98.2076 114.968 97.3128 116.301 96.7525C116.357 96.7289 116.412 96.7052 116.469 96.6809C119.422 95.5799 123.303 96.5103 126.104 97.6825Z" fill="black"/>
<path d="M118.098 98.6075C118.14 98.6014 118.181 98.5953 118.224 98.589C122.734 97.9337 127.066 100.129 130.592 102.753C130.874 102.965 131.148 103.186 131.411 103.421C131.466 103.47 131.466 103.47 131.521 103.519C131.605 103.594 131.689 103.669 131.773 103.744C131.707 103.988 131.587 104.183 131.458 104.399C130.983 105.227 130.743 106.127 130.57 107.06C130.287 107.022 130.004 106.982 129.723 106.927C128.755 106.737 127.771 106.635 126.789 106.767C126.736 106.773 126.683 106.779 126.628 106.786C126.374 106.827 126.203 106.873 126.023 107.063C125.806 107.377 125.787 107.566 125.852 107.933C125.925 108.211 126.052 108.363 126.292 108.514C126.603 108.654 126.933 108.618 127.266 108.61C127.872 108.604 128.471 108.62 129.075 108.663C129.143 108.668 129.212 108.672 129.283 108.677C129.745 108.712 130.196 108.78 130.651 108.868C130.66 108.924 130.669 108.98 130.678 109.038C130.937 110.426 131.598 112.013 132.687 112.963C132.78 113.071 132.78 113.071 132.803 113.188C132.728 113.405 132.576 113.55 132.421 113.713C132.385 113.75 132.349 113.788 132.313 113.827C131.58 114.588 130.775 115.289 129.943 115.939C129.899 115.974 129.855 116.008 129.809 116.044C127.427 117.896 124.691 119.67 121.655 120.137C121.566 120.151 121.476 120.166 121.387 120.181C120.329 120.36 119.454 120.226 118.555 119.602C115.436 117.161 115.009 111.946 114.564 108.306C114.487 107.623 114.45 106.941 114.448 106.253C114.447 106.138 114.447 106.138 114.446 106.021C114.439 104.068 114.538 101.767 115.599 100.057C115.628 99.9984 115.657 99.9398 115.687 99.8793C116.275 99.014 117.117 98.7513 118.098 98.6075Z" fill="#F4A99C"/>
<path d="M154.023 93.2723C154.1 93.2595 154.177 93.2468 154.256 93.2338C155.178 93.093 155.916 93.207 156.682 93.744C158.338 94.9762 159.103 97.2373 159.69 99.1382C159.726 99.2537 159.726 99.2537 159.763 99.3716C160.148 100.652 160.395 101.942 160.585 103.265C160.597 103.343 160.608 103.422 160.62 103.503C161.071 106.608 161.655 110.718 159.831 113.512C159.173 114.347 158.384 114.694 157.353 114.841C157.311 114.847 157.268 114.853 157.225 114.859C154.342 115.273 151.384 114.56 148.673 113.599C148.613 113.578 148.553 113.557 148.491 113.535C145.234 112.365 145.234 112.365 144.319 111.556C144.272 111.428 144.272 111.428 144.34 111.228C144.379 111.149 144.418 111.071 144.458 110.993C144.499 110.908 144.54 110.822 144.58 110.737C144.6 110.695 144.62 110.652 144.641 110.609C145.169 109.455 145.23 108.154 145.108 106.911C145.44 106.692 145.774 106.496 146.135 106.327C146.184 106.304 146.233 106.282 146.283 106.258C147.067 105.9 147.887 105.618 148.702 105.339C148.755 105.321 148.808 105.302 148.862 105.283C148.908 105.268 148.954 105.252 149.002 105.236C149.183 105.159 149.281 105.057 149.39 104.895C149.499 104.623 149.472 104.357 149.394 104.079C149.245 103.804 149.097 103.663 148.812 103.538C148.62 103.529 148.439 103.557 148.251 103.589C148.197 103.598 148.143 103.607 148.087 103.616C147.002 103.81 145.981 104.289 145.028 104.832C144.816 104.946 144.816 104.946 144.632 104.974C144.607 104.928 144.607 104.928 144.581 104.882C144.085 103.992 143.57 103.15 142.789 102.481C142.678 102.377 142.678 102.377 142.589 102.202C142.629 102.196 142.67 102.19 142.712 102.184C142.723 102.145 142.733 102.107 142.745 102.067C142.8 101.914 142.868 101.804 142.962 101.671C142.994 101.625 143.027 101.578 143.061 101.53C143.113 101.457 143.113 101.457 143.166 101.383C143.236 101.282 143.307 101.181 143.378 101.08C143.429 101.008 143.429 101.008 143.481 100.934C143.591 100.775 143.696 100.613 143.8 100.449C143.947 100.221 144.11 100.016 144.289 99.8118C144.408 99.6741 144.523 99.5331 144.637 99.3908C146.696 96.8184 149.472 94.5198 152.664 93.5523C152.736 93.5297 152.808 93.5071 152.883 93.4839C153.256 93.3822 153.641 93.3306 154.023 93.2723Z" fill="#F4A99C"/>
<path d="M142.851 113.271C143.05 113.271 143.18 113.324 143.351 113.422C143.398 113.448 143.445 113.475 143.493 113.502C143.542 113.531 143.592 113.559 143.643 113.589C143.748 113.648 143.854 113.707 143.959 113.767C144.012 113.796 144.064 113.826 144.118 113.856C145.756 114.768 147.508 115.428 149.283 116.019C149.363 116.046 149.363 116.046 149.443 116.073C150.089 116.288 150.738 116.451 151.404 116.591C151.516 116.614 151.516 116.614 151.63 116.639C151.969 116.709 152.307 116.773 152.651 116.816C153.415 116.916 153.799 117.114 154.284 117.713C154.467 117.934 154.665 118.14 154.861 118.349C154.944 118.438 155.026 118.528 155.109 118.617C155.715 119.272 156.349 119.901 156.979 120.534C157.249 120.806 157.519 121.079 157.786 121.354C157.817 121.387 157.849 121.419 157.881 121.452C158.092 121.67 158.092 121.67 158.102 121.739C157.599 121.784 157.097 121.802 156.591 121.814C155.352 121.846 154.103 121.882 152.873 122.048C152.817 122.055 152.761 122.062 152.704 122.069C152.284 122.133 151.979 122.268 151.715 122.609C151.622 122.75 151.537 122.892 151.455 123.039C151.429 123.084 151.403 123.13 151.376 123.176C151.299 123.314 151.223 123.452 151.148 123.591C150.915 124.016 150.677 124.438 150.431 124.856C150.282 125.11 150.135 125.365 149.99 125.621C149.546 126.403 149.546 126.403 149.359 126.676C149.318 126.682 149.278 126.688 149.236 126.695C147.95 124.794 146.788 122.824 145.666 120.823C145.629 120.758 145.629 120.758 145.591 120.691C144.875 119.412 144.173 118.126 143.474 116.838C143.438 116.771 143.401 116.703 143.364 116.634C142.905 115.79 142.459 114.942 142.03 114.083C142.18 113.874 142.326 113.718 142.529 113.558C142.703 113.428 142.703 113.428 142.851 113.271Z" fill="#F4A99C"/>
<path d="M134.686 114.497C134.891 114.543 135.077 114.63 135.268 114.714C135.328 114.741 135.328 114.741 135.39 114.768C135.49 114.811 135.589 114.855 135.688 114.899C135.666 115.464 135.556 116.012 135.452 116.566C135.442 116.619 135.433 116.673 135.422 116.728C133.782 125.523 133.782 125.523 132.482 129.244C132.442 129.25 132.401 129.256 132.359 129.262C132.247 129.164 132.141 129.063 132.036 128.957C131.969 128.892 131.903 128.826 131.836 128.761C131.802 128.727 131.767 128.693 131.732 128.658C131.565 128.495 131.395 128.335 131.225 128.176C130.972 127.937 130.721 127.697 130.471 127.456C130.38 127.368 130.289 127.279 130.197 127.191C130.12 127.116 130.043 127.042 129.965 126.967C129.829 126.835 129.692 126.703 129.556 126.572C129.491 126.509 129.491 126.509 129.425 126.446C128.939 125.972 128.939 125.972 128.319 125.72C128.131 125.727 127.962 125.743 127.778 125.773C127.722 125.782 127.666 125.79 127.608 125.799C126.189 126.039 124.777 126.434 123.397 126.836C123.135 126.911 122.883 126.975 122.611 127.006C122.66 126.707 122.797 126.477 122.954 126.222C123.276 125.683 123.565 125.129 123.85 124.57C123.915 124.441 123.981 124.314 124.047 124.186C124.254 123.784 124.458 123.38 124.66 122.975C124.718 122.858 124.777 122.741 124.836 122.623C124.968 122.361 125.098 122.098 125.222 121.832C125.242 121.788 125.263 121.745 125.284 121.7C125.339 121.585 125.392 121.47 125.445 121.355C125.607 121.121 125.787 121.03 126.037 120.913C126.157 120.852 126.277 120.791 126.397 120.73C126.464 120.696 126.531 120.663 126.6 120.628C129.43 119.188 132.521 117.123 134.471 114.577C134.562 114.502 134.562 114.502 134.686 114.497Z" fill="#F4A99C"/>
<path d="M140.365 103.285C141.52 103.947 142.259 104.975 142.743 106.195C142.762 106.242 142.78 106.288 142.8 106.336C143.127 107.368 143.058 108.501 142.734 109.523C142.717 109.582 142.699 109.64 142.681 109.701C142.283 110.918 141.398 111.901 140.272 112.497C138.977 113.149 137.628 113.253 136.248 112.806C134.903 112.337 133.903 111.41 133.267 110.139C132.639 108.741 132.592 107.333 133.084 105.891C133.228 105.519 133.417 105.184 133.631 104.849C133.657 104.807 133.683 104.766 133.709 104.723C135.146 102.585 138.189 102.08 140.365 103.285Z" fill="#F4A99C"/>
</svg>
