<svg width="350" height="350" viewBox="0 0 350 350" fill="none" xmlns="http://www.w3.org/2000/svg">
<path d="M127.733 37.6099C128.553 38.3291 129.344 39.076 130.13 39.8326C130.288 39.9764 130.447 40.1203 130.61 40.2685C133.225 42.7146 135.301 45.8815 137.134 48.9378C137.237 49.1084 137.34 49.279 137.446 49.4547C145.974 63.6775 151.745 82.152 151.609 98.8996C151.926 98.8089 151.926 98.8089 152.25 98.7164C154.376 98.1262 156.485 97.6926 158.671 97.3675C158.832 97.3433 158.994 97.3191 159.16 97.2942C160.148 97.1464 161.138 97.0035 162.127 96.8634C162.545 96.8036 162.963 96.7412 163.381 96.6785C174.791 94.9889 186.373 96.483 197.602 98.6661C197.592 98.4019 197.582 98.1377 197.572 97.8654C197.574 96.0867 197.847 94.3265 198.083 92.5668C198.109 92.3743 198.134 92.1818 198.161 91.9834C200.362 75.5697 204.468 57.4349 215.112 44.2684C215.217 44.1362 215.323 44.0041 215.431 43.8679C220.727 37.2671 227.829 31.7258 236.357 30.2605C241.465 29.9503 245.606 30.186 249.679 33.5144C251.116 34.8538 252.025 36.4778 252.933 38.1983C253.054 38.4258 253.175 38.6534 253.299 38.8878C254.644 41.6343 255.064 44.659 255.082 47.6893C255.083 47.8781 255.085 48.0669 255.087 48.2615C255.091 48.8712 255.092 49.4808 255.093 50.0905C255.093 50.404 255.093 50.404 255.093 50.7238C255.089 54.1419 254.919 57.4707 254.334 60.8446C254.276 61.1888 254.276 61.1888 254.216 61.5399C250.894 80.6768 242.277 99.4878 230.053 114.542C230.751 115.375 231.446 116.18 232.228 116.935C233.312 118.002 234.24 119.193 235.19 120.379C235.344 120.564 235.498 120.749 235.657 120.939C237.895 123.652 239.745 126.671 241.493 129.717C241.577 129.862 241.661 130.007 241.747 130.156C246.829 139.014 249.952 149.782 249.929 160.026C249.929 160.256 249.93 160.485 249.93 160.722C249.93 161.204 249.93 161.685 249.929 162.166C249.927 162.898 249.929 163.63 249.93 164.362C249.93 164.833 249.93 165.304 249.929 165.775C249.93 165.991 249.93 166.207 249.931 166.43C249.926 167.751 249.832 169.029 249.665 170.34C249.887 170.356 249.887 170.356 250.114 170.372C250.791 170.422 251.468 170.476 252.145 170.53C252.378 170.546 252.612 170.563 252.852 170.58C254.111 170.684 255.116 170.801 256.202 171.508C256.767 172.186 256.894 172.596 256.99 173.478C256.891 174.414 256.745 174.939 256.202 175.71C254.933 176.403 254.004 176.487 252.583 176.352C252.415 176.34 252.247 176.327 252.073 176.315C251.03 176.234 249.999 176.101 248.964 175.944C248.441 177.468 247.974 179.004 247.534 180.555C247.473 180.769 247.411 180.984 247.347 181.205C247.288 181.413 247.229 181.621 247.168 181.835C247.115 182.021 247.062 182.207 247.007 182.398C246.858 182.967 246.739 183.537 246.63 184.115C246.875 184.2 247.12 184.285 247.373 184.372C251.822 185.95 251.822 185.95 252.933 187.617C253.089 188.419 253.096 189.15 252.933 189.952C252.345 190.799 251.662 191.226 250.698 191.562C249.483 191.598 248.512 191.128 247.403 190.667C246.965 190.488 246.526 190.311 246.087 190.135C245.798 190.015 245.798 190.015 245.503 189.893C244.974 189.68 244.974 189.68 244.295 189.718C243.918 190.295 243.586 190.865 243.259 191.469C241.548 194.499 239.471 197.25 237.057 199.757C236.872 199.953 236.872 199.953 236.683 200.154C232.943 204.1 228.61 207.038 223.764 209.49C223.53 209.609 223.53 209.609 223.292 209.73C222.621 210.059 222.173 210.263 221.415 210.263C221.415 210.417 221.415 210.571 221.415 210.73C221.603 210.778 221.79 210.826 221.983 210.876C223.084 211.3 223.97 211.923 224.932 212.598C225.128 212.734 225.325 212.87 225.527 213.011C228.246 214.91 230.811 216.97 233.322 219.135C233.489 219.278 233.657 219.422 233.829 219.57C234.286 219.966 234.739 220.366 235.19 220.769C235.381 220.939 235.573 221.109 235.77 221.283C238.883 224.087 241.99 226.999 244.528 230.341C244.705 230.561 244.882 230.78 245.064 231.006C249.141 236.134 254.301 243.275 253.634 250.186C253.613 250.466 253.613 250.466 253.593 250.752C253.22 253.785 251.481 256.83 249.198 258.824C247.704 259.939 246.066 260.611 244.295 261.159C244.136 261.212 243.977 261.265 243.813 261.319C238.58 262.791 232.518 260.694 227.769 258.565C227.583 258.482 227.398 258.399 227.207 258.313C227.068 258.251 226.928 258.188 226.785 258.124C226.839 258.534 226.839 258.534 226.895 258.952C228.751 273.026 229.843 287.129 229.877 301.326C229.878 301.788 229.88 302.25 229.882 302.712C229.905 310.021 229.847 317.589 224.663 323.335C222.138 325.737 218.903 327.062 215.579 327.93C215.406 327.976 215.234 328.021 215.056 328.068C212.946 328.536 210.784 328.492 208.633 328.497C207.953 328.499 207.273 328.511 206.592 328.523C203.094 328.553 200.151 327.968 197.033 326.325C196.878 326.245 196.723 326.166 196.564 326.083C193.086 324.241 190.439 321.305 189.195 317.533C188.307 314.606 187.851 311.561 187.329 308.553C187.222 307.948 187.114 307.343 187.006 306.739C186.879 306.021 186.754 305.302 186.629 304.584C186.346 304.605 186.346 304.605 186.058 304.626C179.718 305.091 173.44 305.162 167.09 304.832C166.796 304.816 166.796 304.816 166.496 304.801C165.939 304.771 165.383 304.74 164.826 304.709C164.66 304.7 164.494 304.691 164.322 304.681C163.562 304.635 162.845 304.574 162.115 304.35C162.099 304.547 162.099 304.547 162.082 304.747C161.428 311.985 160.407 319.865 154.63 324.857C153.843 325.436 153.045 325.908 152.178 326.354C151.974 326.461 151.974 326.461 151.766 326.57C148.438 328.181 145.225 328.583 141.569 328.537C140.87 328.528 140.171 328.532 139.472 328.536C135.939 328.534 132.61 328.125 129.371 326.617C129.111 326.498 129.111 326.498 128.846 326.376C124.9 324.485 122.391 321.502 120.791 317.424C120.658 317.089 120.658 317.089 120.523 316.747C118.906 312.119 119.039 307.02 119.067 302.185C119.069 301.672 119.071 301.158 119.072 300.644C119.11 287.225 119.996 273.892 121.713 260.582C121.735 260.414 121.756 260.245 121.778 260.071C121.867 259.39 121.974 258.777 122.192 258.124C121.94 258.225 121.688 258.327 121.429 258.432C115.142 260.942 108.839 263.045 102.249 260.367C98.9612 258.813 97.0909 256.374 95.8102 252.987C94.2506 248.333 96.2016 243.584 98.2625 239.441C101.887 232.547 107.571 226.032 113.478 220.999C113.915 220.626 114.345 220.249 114.775 219.868C118.684 216.414 122.876 213.222 127.328 210.497C127.192 210.424 127.056 210.351 126.916 210.276C119.561 206.337 112.782 201.85 107.95 194.854C107.85 194.709 107.749 194.563 107.645 194.413C106.593 192.881 105.59 191.34 104.682 189.718C103.631 189.906 102.657 190.143 101.667 190.544C101.424 190.642 101.424 190.642 101.177 190.742C100.853 190.874 100.531 191.011 100.211 191.152C99.0663 191.62 98.3933 191.612 97.211 191.119C96.4965 190.496 96.1341 190.129 95.9315 189.208C95.8729 188.269 95.9935 187.712 96.4377 186.873C97.9476 185.328 100.296 184.752 102.347 184.348C102.277 184.105 102.277 184.105 102.205 183.857C101.988 183.107 101.774 182.356 101.559 181.605C101.485 181.35 101.411 181.095 101.335 180.833C100.853 179.137 100.497 177.455 100.246 175.71C99.9813 175.782 99.7164 175.855 99.4435 175.929C98.3401 176.171 97.2413 176.284 96.1167 176.367C95.9475 176.382 95.7784 176.397 95.6042 176.413C94.462 176.485 93.7403 176.323 92.7752 175.71C92.0739 174.892 91.9609 174.169 92.01 173.125C92.1113 172.421 92.3036 172.04 92.7752 171.508C94.1442 170.779 95.4306 170.644 96.963 170.53C97.1894 170.511 97.4159 170.492 97.6492 170.472C98.2034 170.426 98.7577 170.382 99.3122 170.34C99.2747 170.085 99.2371 169.829 99.1985 169.566C99.0477 168.352 99.0366 167.147 99.0313 165.925C99.0293 165.56 99.0293 165.56 99.0273 165.187C99.0251 164.671 99.0236 164.155 99.0227 163.639C99.0204 162.869 99.0132 162.099 99.0058 161.33C98.9837 156.946 99.4036 152.66 100.377 148.38C100.436 148.123 100.494 147.866 100.554 147.601C101.708 142.718 103.385 137.947 105.616 133.453C105.719 133.242 105.821 133.031 105.927 132.814C108.502 127.57 111.668 122.65 115.632 118.343C116.097 117.838 116.548 117.323 116.997 116.804C117.613 116.096 118.25 115.428 118.923 114.775C118.61 114.039 118.172 113.478 117.657 112.871C113.969 108.503 110.882 103.457 108.184 98.4327C108.07 98.2221 107.956 98.0115 107.838 97.7945C101.003 85.1329 95.9829 71.1895 94.176 56.8756C94.1553 56.7137 94.1347 56.5518 94.1134 56.385C93.9647 55.151 93.8992 53.933 93.8869 52.6906C93.8845 52.4988 93.8822 52.307 93.8798 52.1095C93.817 45.5764 93.9775 38.996 98.8453 33.9959C99.0027 33.8295 99.1601 33.6631 99.3223 33.4916C101.162 31.6987 103.547 30.6234 106.083 30.2605C106.333 30.2221 106.333 30.2221 106.588 30.1829C114.406 29.147 121.903 32.63 127.733 37.6099Z" fill="white"/>
<path d="M127.733 37.6099C128.553 38.3291 129.344 39.076 130.13 39.8326C130.288 39.9764 130.447 40.1203 130.61 40.2685C133.225 42.7146 135.301 45.8815 137.134 48.9378C137.237 49.1084 137.34 49.279 137.446 49.4547C145.974 63.6775 151.745 82.152 151.609 98.8996C151.926 98.8089 151.926 98.8089 152.25 98.7164C154.376 98.1262 156.485 97.6926 158.671 97.3675C158.832 97.3433 158.994 97.3191 159.16 97.2942C160.148 97.1464 161.138 97.0035 162.127 96.8634C162.545 96.8036 162.963 96.7412 163.381 96.6785C174.791 94.9889 186.373 96.483 197.602 98.6661C197.592 98.4019 197.582 98.1377 197.572 97.8654C197.574 96.0867 197.847 94.3265 198.083 92.5668C198.109 92.3743 198.134 92.1818 198.161 91.9834C200.362 75.5697 204.468 57.4349 215.112 44.2684C215.217 44.1362 215.323 44.0041 215.431 43.8679C220.727 37.2671 227.829 31.7258 236.357 30.2605C241.465 29.9503 245.606 30.186 249.679 33.5144C251.116 34.8538 252.025 36.4778 252.933 38.1983C253.054 38.4258 253.175 38.6534 253.299 38.8878C254.644 41.6343 255.064 44.659 255.082 47.6893C255.083 47.8781 255.085 48.0669 255.087 48.2615C255.091 48.8712 255.092 49.4808 255.093 50.0905C255.093 50.404 255.093 50.404 255.093 50.7238C255.089 54.1419 254.919 57.4707 254.334 60.8446C254.276 61.1888 254.276 61.1888 254.216 61.5399C250.894 80.6768 242.277 99.4878 230.053 114.542C230.751 115.375 231.446 116.18 232.228 116.935C233.312 118.002 234.24 119.193 235.19 120.379C235.344 120.564 235.498 120.749 235.657 120.939C237.895 123.652 239.745 126.671 241.493 129.717C241.577 129.862 241.661 130.007 241.747 130.156C246.829 139.014 249.952 149.782 249.929 160.026C249.929 160.256 249.93 160.485 249.93 160.722C249.93 161.204 249.93 161.685 249.929 162.166C249.927 162.898 249.929 163.63 249.93 164.362C249.93 164.833 249.93 165.304 249.929 165.775C249.93 165.991 249.93 166.207 249.931 166.43C249.926 167.751 249.832 169.029 249.665 170.34C249.887 170.356 249.887 170.356 250.114 170.372C250.791 170.422 251.468 170.476 252.145 170.53C252.378 170.546 252.612 170.563 252.852 170.58C254.111 170.684 255.116 170.801 256.202 171.508C256.767 172.186 256.894 172.596 256.99 173.478C256.891 174.414 256.745 174.939 256.202 175.71C254.933 176.403 254.004 176.487 252.583 176.352C252.415 176.34 252.247 176.327 252.073 176.315C251.03 176.234 249.999 176.101 248.964 175.944C248.441 177.468 247.974 179.004 247.534 180.555C247.473 180.769 247.411 180.984 247.347 181.205C247.288 181.413 247.229 181.621 247.168 181.835C247.115 182.021 247.062 182.207 247.007 182.398C246.858 182.967 246.739 183.537 246.63 184.115C246.875 184.2 247.12 184.285 247.373 184.372C251.822 185.95 251.822 185.95 252.933 187.617C253.089 188.419 253.096 189.15 252.933 189.952C252.345 190.799 251.662 191.226 250.698 191.562C249.483 191.598 248.512 191.128 247.403 190.667C246.965 190.488 246.526 190.311 246.087 190.135C245.798 190.015 245.798 190.015 245.503 189.893C244.974 189.68 244.974 189.68 244.295 189.718C243.918 190.295 243.586 190.865 243.259 191.469C241.548 194.499 239.471 197.25 237.057 199.757C236.872 199.953 236.872 199.953 236.683 200.154C232.943 204.1 228.61 207.038 223.764 209.49C223.53 209.609 223.53 209.609 223.292 209.73C222.621 210.059 222.173 210.263 221.415 210.263C221.415 210.417 221.415 210.571 221.415 210.73C221.603 210.778 221.79 210.826 221.983 210.876C223.084 211.3 223.97 211.923 224.932 212.598C225.128 212.734 225.325 212.87 225.527 213.011C228.246 214.91 230.811 216.97 233.322 219.135C233.489 219.278 233.657 219.422 233.829 219.57C234.286 219.966 234.739 220.366 235.19 220.769C235.381 220.939 235.573 221.109 235.77 221.283C238.883 224.087 241.99 226.999 244.528 230.341C244.705 230.561 244.882 230.78 245.064 231.006C249.141 236.134 254.301 243.275 253.634 250.186C253.613 250.466 253.613 250.466 253.593 250.752C253.22 253.785 251.481 256.83 249.198 258.824C247.704 259.939 246.066 260.611 244.295 261.159C244.136 261.212 243.977 261.265 243.813 261.319C238.58 262.791 232.518 260.694 227.769 258.565C227.583 258.482 227.398 258.399 227.207 258.313C227.068 258.251 226.928 258.188 226.785 258.124C226.839 258.534 226.839 258.534 226.895 258.952C228.751 273.026 229.843 287.129 229.877 301.326C229.878 301.788 229.88 302.25 229.882 302.712C229.905 310.021 229.847 317.589 224.663 323.335C222.138 325.737 218.903 327.062 215.579 327.93C215.406 327.976 215.234 328.021 215.056 328.068C212.946 328.536 210.784 328.492 208.633 328.497C207.953 328.499 207.273 328.511 206.592 328.523C203.094 328.553 200.151 327.968 197.033 326.325C196.878 326.245 196.723 326.166 196.564 326.083C193.086 324.241 190.439 321.305 189.195 317.533C188.307 314.606 187.851 311.561 187.329 308.553C187.222 307.948 187.114 307.343 187.006 306.739C186.879 306.021 186.754 305.302 186.629 304.584C186.346 304.605 186.346 304.605 186.058 304.626C179.718 305.091 173.44 305.162 167.09 304.832C166.796 304.816 166.796 304.816 166.496 304.801C165.939 304.771 165.383 304.74 164.826 304.709C164.66 304.7 164.494 304.691 164.322 304.681C163.562 304.635 162.845 304.574 162.115 304.35C162.099 304.547 162.099 304.547 162.082 304.747C161.428 311.985 160.407 319.865 154.63 324.857C153.843 325.436 153.045 325.908 152.178 326.354C151.974 326.461 151.974 326.461 151.766 326.57C148.438 328.181 145.225 328.583 141.569 328.537C140.87 328.528 140.171 328.532 139.472 328.536C135.939 328.534 132.61 328.125 129.371 326.617C129.111 326.498 129.111 326.498 128.846 326.376C124.9 324.485 122.391 321.502 120.791 317.424C120.658 317.089 120.658 317.089 120.523 316.747C118.906 312.119 119.039 307.02 119.067 302.185C119.069 301.672 119.071 301.158 119.072 300.644C119.11 287.225 119.996 273.892 121.713 260.582C121.735 260.414 121.756 260.245 121.778 260.071C121.867 259.39 121.974 258.777 122.192 258.124C121.94 258.225 121.688 258.327 121.429 258.432C115.142 260.942 108.839 263.045 102.249 260.367C98.9612 258.813 97.0909 256.374 95.8102 252.987C94.2506 248.333 96.2016 243.584 98.2625 239.441C101.887 232.547 107.571 226.032 113.478 220.999C113.915 220.626 114.345 220.249 114.775 219.868C118.684 216.414 122.876 213.222 127.328 210.497C127.192 210.424 127.056 210.351 126.916 210.276C119.561 206.337 112.782 201.85 107.95 194.854C107.85 194.709 107.749 194.563 107.645 194.413C106.593 192.881 105.59 191.34 104.682 189.718C103.631 189.906 102.657 190.143 101.667 190.544C101.424 190.642 101.424 190.642 101.177 190.742C100.853 190.874 100.531 191.011 100.211 191.152C99.0663 191.62 98.3933 191.612 97.211 191.119C96.4965 190.496 96.1341 190.129 95.9315 189.208C95.8729 188.269 95.9935 187.712 96.4377 186.873C97.9476 185.328 100.296 184.752 102.347 184.348C102.277 184.105 102.277 184.105 102.205 183.857C101.988 183.107 101.774 182.356 101.559 181.605C101.485 181.35 101.411 181.095 101.335 180.833C100.853 179.137 100.497 177.455 100.246 175.71C99.9813 175.782 99.7164 175.855 99.4435 175.929C98.3401 176.171 97.2413 176.284 96.1167 176.367C95.9475 176.382 95.7784 176.397 95.6042 176.413C94.462 176.485 93.7403 176.323 92.7752 175.71C92.0739 174.892 91.9609 174.169 92.01 173.125C92.1113 172.421 92.3036 172.04 92.7752 171.508C94.1442 170.779 95.4306 170.644 96.963 170.53C97.1894 170.511 97.4159 170.492 97.6492 170.472C98.2034 170.426 98.7577 170.382 99.3122 170.34C99.2747 170.085 99.2371 169.829 99.1985 169.566C99.0477 168.352 99.0366 167.147 99.0313 165.925C99.0293 165.56 99.0293 165.56 99.0273 165.187C99.0251 164.671 99.0236 164.155 99.0227 163.639C99.0204 162.869 99.0132 162.099 99.0058 161.33C98.9837 156.946 99.4036 152.66 100.377 148.38C100.436 148.123 100.494 147.866 100.554 147.601C101.708 142.718 103.385 137.947 105.616 133.453C105.719 133.242 105.821 133.031 105.927 132.814C108.502 127.57 111.668 122.65 115.632 118.343C116.097 117.838 116.548 117.323 116.997 116.804C117.613 116.096 118.25 115.428 118.923 114.775C118.61 114.039 118.172 113.478 117.657 112.871C113.969 108.503 110.882 103.457 108.184 98.4327C108.07 98.2221 107.956 98.0115 107.838 97.7945C101.003 85.1329 95.9829 71.1895 94.176 56.8756C94.1553 56.7137 94.1347 56.5518 94.1134 56.385C93.9647 55.151 93.8992 53.933 93.8869 52.6906C93.8845 52.4988 93.8822 52.307 93.8798 52.1095C93.817 45.5764 93.9775 38.996 98.8453 33.9959C99.0027 33.8295 99.1601 33.6631 99.3223 33.4916C101.162 31.6987 103.547 30.6234 106.083 30.2605C106.333 30.2221 106.333 30.2221 106.588 30.1829C114.406 29.147 121.903 32.63 127.733 37.6099ZM102.653 39.6666C100.44 43.1598 100.147 46.9936 100.159 51.039C100.159 51.2098 100.159 51.3806 100.159 51.5566C100.183 57.5977 101.28 63.4176 102.814 69.2494C102.883 69.5106 102.951 69.7719 103.022 70.0411C104.797 76.6704 107.385 83.115 110.285 89.3275C110.384 89.54 110.483 89.7526 110.585 89.9716C113.173 95.4622 116.349 100.694 119.901 105.612C120.028 105.788 120.156 105.964 120.287 106.146C121.963 108.445 123.764 110.646 125.638 112.787C126.274 113.566 126.401 114.113 126.365 115.111C125.954 116.787 124.815 117.792 123.578 118.905C123.263 119.195 122.947 119.485 122.632 119.776C122.478 119.918 122.323 120.06 122.164 120.206C112.448 129.181 106.588 142.612 105.149 155.632C105.127 155.817 105.105 156.001 105.083 156.191C104.888 158.019 104.872 159.844 104.872 161.68C104.872 162.208 104.867 162.736 104.863 163.264C104.854 165.579 105.039 167.818 105.382 170.107C105.792 170.12 105.792 170.12 106.21 170.133C106.571 170.149 106.932 170.164 107.294 170.18C107.473 170.185 107.653 170.19 107.838 170.196C108.91 170.246 109.648 170.351 110.519 171.041C111.096 171.907 111.113 172.605 110.986 173.609C110.7 174.267 110.494 174.641 109.891 175.032C109.182 175.31 108.535 175.344 107.775 175.389C107.502 175.407 107.229 175.424 106.947 175.442C106.739 175.453 106.531 175.465 106.316 175.477C106.393 177.059 106.695 178.519 107.104 180.044C107.153 180.233 107.202 180.422 107.252 180.617C107.384 181.09 107.548 181.553 107.717 182.014C108.432 182.252 108.817 182.238 109.556 182.189C110.447 182.184 110.703 182.216 111.482 182.714C111.966 183.49 112.091 183.934 112.035 184.833C111.839 185.595 111.346 185.966 110.752 186.45C110.516 186.681 110.282 186.914 110.052 187.15C111.848 190.459 113.993 193.301 116.589 196.022C116.761 196.207 116.934 196.392 117.112 196.583C122.44 202.135 129.922 205.545 137.294 207.34C138.621 207.679 139.569 207.93 140.402 209.096C140.75 210.072 140.748 210.933 140.344 211.883C139.534 212.837 138.711 212.945 137.542 213.123C131.764 214.122 126.619 217.795 122.192 221.47C121.892 221.712 121.591 221.954 121.291 222.196C119.009 224.042 116.827 225.962 114.721 228.007C114.527 228.194 114.333 228.382 114.133 228.576C110.442 232.16 110.442 232.16 107.25 236.178C107.032 236.49 107.032 236.49 106.81 236.808C102.244 243.135 102.244 243.135 101.18 250.653C101.615 252.252 102.263 253.667 103.711 254.567C103.949 254.681 104.188 254.796 104.434 254.914C104.672 255.03 104.91 255.147 105.155 255.267C108.473 256.645 112.602 255.671 115.796 254.389C117.039 253.868 118.266 253.313 119.492 252.754C119.755 252.635 120.018 252.516 120.289 252.393C120.541 252.276 120.793 252.159 121.053 252.039C121.278 251.935 121.503 251.831 121.735 251.724C122.077 251.541 122.077 251.541 122.425 251.353C122.562 251.285 122.699 251.216 122.84 251.146C124.298 250.294 124.582 249.036 125.03 247.48C125.112 247.215 125.194 246.95 125.278 246.676C125.539 245.829 125.792 244.98 126.044 244.13C128.721 235.224 128.721 235.224 130.251 234.119C130.977 233.773 131.434 233.744 132.231 233.843C133.114 234.245 133.519 234.577 133.865 235.478C134.046 237.891 133.182 240.144 132.41 242.385C132.054 243.421 131.711 244.462 131.367 245.502C131.299 245.707 131.232 245.911 131.162 246.122C127.914 255.95 126.522 266.201 125.736 276.487C125.692 277.065 125.646 277.642 125.601 278.22C125.04 285.448 124.829 292.666 124.76 299.914C124.758 300.106 124.756 300.298 124.754 300.495C124.292 310.45 124.292 310.45 128.479 319.073C130.705 321.226 133.432 322.077 136.433 322.561C136.621 322.591 136.809 322.622 137.002 322.654C141.747 323.263 147.181 323.049 151.215 320.27C153.55 318.393 154.396 315.757 154.994 312.915C155.043 312.689 155.091 312.463 155.142 312.229C155.596 310.03 155.902 307.813 156.177 305.585C156.833 300.39 156.833 300.39 157.81 299.389C159.524 298.159 162.088 298.707 164.102 298.915C167.23 299.233 170.336 299.278 173.478 299.262C174.331 299.258 175.184 299.257 176.037 299.257C178.435 299.254 180.83 299.239 183.224 299.109C183.39 299.1 183.556 299.091 183.727 299.082C184.558 299.029 185.348 298.918 186.162 298.747C186.823 298.695 187.483 298.693 188.146 298.689C188.32 298.684 188.495 298.679 188.674 298.674C189.732 298.666 190.474 298.713 191.298 299.447C192.094 300.83 192.236 302.322 192.451 303.883C192.531 304.428 192.611 304.973 192.692 305.517C192.732 305.791 192.772 306.065 192.813 306.346C193.6 313.97 193.6 313.97 197.584 320.14C202.083 323.105 207.855 323.471 213.057 322.472C213.273 322.424 213.488 322.376 213.711 322.327C213.943 322.282 214.176 322.236 214.416 322.189C217.648 321.488 220.176 320.017 222.08 317.268C223.597 314.685 224.019 311.765 224.017 308.807C224.018 308.545 224.018 308.545 224.02 308.278C224.022 307.703 224.022 307.128 224.023 306.553C224.023 306.143 224.024 305.733 224.025 305.323C224.026 304.46 224.027 303.597 224.027 302.734C224.027 301.869 224.028 301.004 224.031 300.139C224.061 291.977 223.78 283.829 223.042 275.698C223.025 275.512 223.009 275.326 222.991 275.135C222.002 264.429 220.386 254.063 216.975 243.85C216.886 243.583 216.886 243.583 216.795 243.31C216.509 242.449 216.218 241.59 215.918 240.734C215.227 238.72 214.525 236.544 215.447 234.5C216.314 233.887 217.094 233.756 218.147 233.843C219.716 234.592 220.305 236.599 220.863 238.143C221.293 239.366 221.705 240.595 222.116 241.825C222.258 242.246 222.4 242.667 222.542 243.088C222.612 243.294 222.681 243.5 222.753 243.712C222.892 244.122 223.031 244.532 223.171 244.942C223.483 245.862 223.783 246.78 224.038 247.719C224.556 249.634 224.556 249.634 225.894 251.032C226.263 251.228 226.638 251.413 227.018 251.587C227.3 251.734 227.3 251.734 227.587 251.885C228.174 252.19 228.768 252.474 229.368 252.754C229.687 252.904 229.687 252.904 230.012 253.057C231.86 253.915 233.724 254.679 235.657 255.322C235.841 255.384 236.024 255.446 236.214 255.51C238.917 256.262 242.237 256.044 244.762 254.855C246.41 253.812 247.193 252.464 247.797 250.653C248.336 244.593 244.009 238.836 240.33 234.383C239.551 233.49 238.752 232.615 237.945 231.748C237.313 231.069 236.697 230.377 236.08 229.685C235.277 228.799 234.451 227.997 233.536 227.229C233.064 226.818 232.633 226.384 232.198 225.935C231.305 225.029 230.347 224.237 229.354 223.444C228.75 222.95 228.171 222.437 227.592 221.914C223.103 217.907 217.221 213.821 211.113 213.065C210.177 212.939 209.784 212.859 208.983 212.321C208.479 211.51 208.341 210.985 208.341 210.03C208.628 209.114 208.924 208.72 209.683 208.133C210.648 207.642 211.681 207.407 212.725 207.14C219.231 205.471 225.211 202.547 230.287 198.123C230.515 197.926 230.743 197.73 230.977 197.527C234.245 194.656 236.861 191.21 238.925 187.383C238.925 187.229 238.925 187.075 238.925 186.916C238.665 186.782 238.405 186.647 238.137 186.508C237.634 186.216 237.319 186.018 236.955 185.559C236.675 184.47 236.65 183.718 237.218 182.729C238.424 181.978 239.643 182.156 241.026 182.247C241.257 181.47 241.485 180.691 241.712 179.912C241.777 179.694 241.842 179.476 241.909 179.251C242.275 177.989 242.539 176.786 242.661 175.477C242.356 175.472 242.356 175.472 242.046 175.467C239.574 175.364 239.574 175.364 238.75 174.674C238.021 173.844 237.899 173.333 237.907 172.217C238.048 171.419 238.544 171.057 239.159 170.574C239.929 170.189 240.791 170.251 241.639 170.209C241.826 170.199 242.014 170.189 242.206 170.178C242.669 170.154 243.132 170.13 243.595 170.107C246.216 155.875 241.722 140.206 233.828 128.345C231.116 124.441 228.091 120.774 224.329 117.843C223.384 117.028 222.659 116.247 222.48 114.994C222.67 113.289 223.802 112.151 224.932 110.923C228.675 106.848 231.762 102.067 234.489 97.2653C234.645 96.9909 234.645 96.9909 234.804 96.711C239.964 87.5667 244.022 77.7923 246.63 67.6151C246.685 67.4055 246.74 67.1959 246.796 66.9799C248.143 61.7878 248.817 56.4993 248.818 51.1411C248.819 50.9832 248.819 50.8252 248.82 50.6625C248.819 47.856 248.628 45.069 247.709 42.4007C247.616 42.1214 247.523 41.8421 247.427 41.5544C246.572 39.5142 245.02 37.7878 242.984 36.8942C241.943 36.518 240.989 36.4381 239.888 36.4473C239.696 36.4488 239.505 36.4503 239.307 36.4519C234.324 36.5967 230.041 39.1151 226.085 41.9338C225.891 42.0701 225.697 42.2064 225.497 42.3469C211.829 52.4506 207.23 72.8267 204.812 88.651C204.168 92.9555 203.696 97.277 203.325 101.614C203.307 101.809 203.289 102.004 203.27 102.205C203.238 102.553 203.209 102.902 203.184 103.251C203.082 104.318 202.8 104.917 202.037 105.67C200.252 106.265 198.672 105.664 196.93 105.159C191.833 103.743 186.761 102.874 181.492 102.402C181.122 102.368 181.122 102.368 180.744 102.333C171.468 101.548 161.988 102.607 153.01 104.97C152.459 105.114 151.909 105.258 151.358 105.4C150.92 105.514 150.483 105.631 150.046 105.749C148.953 105.968 148.014 106.07 146.983 105.612C146.182 104.971 146.033 104.46 145.885 103.443C145.854 103.109 145.825 102.774 145.797 102.439C145.762 102.061 145.727 101.684 145.692 101.306C145.674 101.107 145.656 100.907 145.638 100.702C144.063 83.1844 140.705 64.5452 130.363 49.8716C130.224 49.6733 130.224 49.6733 130.082 49.4709C128.888 47.7908 127.584 46.2251 126.161 44.7354C126.031 44.5959 125.901 44.4564 125.767 44.3127C124.566 43.0595 123.266 42.0684 121.827 41.1021C121.6 40.9494 121.374 40.7967 121.14 40.6393C119.37 39.4675 117.644 38.4812 115.655 37.7314C115.428 37.644 115.428 37.644 115.197 37.5548C113.222 36.813 111.347 36.4577 109.235 36.4327C109.045 36.4293 108.855 36.4258 108.66 36.4223C106.171 36.4649 104.121 37.68 102.653 39.6666Z" fill="black"/>
<path d="M188.283 230.814C194.837 236.474 198.165 245.333 198.964 253.882C199.341 258.788 199.527 264.029 198.135 268.777C198.071 269.007 198.071 269.007 198.006 269.242C197.083 272.502 195.336 275.194 192.997 277.58C192.837 277.746 192.677 277.912 192.512 278.083C187.09 283.351 179.344 284.154 172.231 284.026C170.724 283.98 169.26 283.807 167.776 283.528C167.618 283.499 167.46 283.47 167.297 283.439C161.819 282.384 156.872 279.728 153.61 274.976C148.913 267.751 149.185 257.447 150.813 249.249C152.429 241.748 156.178 233.571 162.675 229.224C162.894 229.087 163.114 228.949 163.339 228.807C163.474 228.72 163.61 228.634 163.749 228.545C171.888 223.388 181.019 225 188.283 230.814Z" fill="#F4A99C"/>
<path d="M175.189 221.47C175.617 221.498 175.617 221.498 176.054 221.527C183.445 222.142 189.849 225.556 194.648 231.178C198.56 235.904 201.207 241.558 202.796 247.457C202.878 247.755 202.878 247.755 202.962 248.059C203.926 251.824 204.257 255.642 204.23 259.517C204.226 260.155 204.23 260.792 204.234 261.429C204.238 264.821 203.963 268.223 202.825 271.446C202.766 271.617 202.707 271.787 202.647 271.962C200.344 278.333 195.805 283.457 189.713 286.439C181.135 290.425 170.13 290.631 161.271 287.43C157.072 285.84 153.174 283.215 150.441 279.603C150.273 279.381 150.104 279.16 149.93 278.932C144.026 270.793 143.855 260.898 145.314 251.279C145.666 249.069 146.235 246.938 146.939 244.816C147.023 244.56 147.023 244.56 147.109 244.299C147.872 242.022 148.874 239.884 149.991 237.76C150.184 237.391 150.37 237.019 150.556 236.647C153.837 230.252 160.028 224.844 166.842 222.579C169.522 221.819 172.398 221.26 175.189 221.47ZM159.079 233.376C158.913 233.544 158.746 233.711 158.574 233.883C154.488 238.221 152.165 244.016 150.85 249.748C150.814 249.901 150.779 250.054 150.743 250.212C150.094 253.247 149.897 256.268 149.913 259.362C149.916 259.921 149.913 260.48 149.91 261.039C149.904 267.326 151.45 273.259 155.855 277.91C161.345 283.163 168.791 284.187 176.088 284.082C182.92 283.915 189.249 281.675 194.042 276.706C194.896 275.72 195.564 274.668 196.2 273.533C196.325 273.314 196.45 273.096 196.579 272.871C197.544 271.075 198.122 269.221 198.535 267.229C198.598 266.938 198.598 266.938 198.662 266.641C199.07 264.53 199.075 262.453 199.06 260.313C199.06 260.126 199.059 259.939 199.058 259.747C199.046 257.081 199.002 254.452 198.535 251.82C198.506 251.657 198.477 251.493 198.448 251.325C197.372 245.444 195.211 239.605 191.298 235.011C191.011 234.664 191.011 234.664 190.719 234.31C189.119 232.43 187.267 231.017 185.228 229.641C185.023 229.499 184.819 229.357 184.608 229.211C176.309 223.797 165.581 226.786 159.079 233.376Z" fill="black"/>
<path d="M233.088 57.343C233.8 57.8095 234.372 58.3612 234.956 58.9772C235.134 59.1554 235.312 59.3336 235.496 59.5171C237.591 62.8547 236.581 67.2077 235.786 70.7992C235.255 73.0506 234.546 75.2371 233.788 77.4211C233.725 77.6053 233.662 77.7895 233.598 77.9793C233.257 78.9751 232.907 79.9672 232.546 80.9559C232.398 81.3626 232.252 81.7702 232.107 82.178C231.405 84.0878 230.524 85.878 229.595 87.6844C229.359 88.1479 229.128 88.6136 228.899 89.0807C226.127 94.7343 222.993 100.434 218.847 105.204C218.668 105.409 218.668 105.409 218.485 105.619C218.113 106.043 217.737 106.463 217.358 106.882C217.244 107.008 217.13 107.135 217.013 107.265C216.165 108.177 215.451 108.846 214.2 109.049C213.051 109.06 212.29 109.059 211.274 108.487C209.775 106.696 209.362 105.426 209.508 103.102C209.632 101.949 209.804 100.804 209.989 99.6588C210.028 99.4174 210.028 99.4174 210.067 99.1712C212.115 86.3985 216.007 67.5172 227.237 59.3566C228.995 58.1277 230.876 56.9506 233.088 57.343Z" fill="#F4A99C"/>
<path d="M117.632 57.4037C117.827 57.4605 118.023 57.5174 118.223 57.576C118.414 57.6305 118.604 57.685 118.8 57.7411C124.637 59.7637 127.954 65.9369 130.489 71.1545C131.993 74.3309 133.203 77.5972 134.333 80.9227C134.398 81.1104 134.462 81.2981 134.529 81.4915C136.587 87.4794 137.841 93.682 138.863 99.9175C139.029 100.931 139.202 101.943 139.377 102.956C139.667 104.891 139.647 106.172 138.489 107.801C137.813 108.504 137.205 108.884 136.24 109.056C134.797 109.085 133.808 109.011 132.708 108.036C125.729 100.749 120.667 91.1019 116.823 81.8565C116.694 81.5642 116.566 81.2721 116.437 80.9801C115.078 77.8568 114.058 74.6124 113.087 71.3505C113.034 71.1742 112.981 70.9979 112.926 70.8162C112.339 68.7868 112.301 66.7235 112.255 64.6238C112.246 64.3562 112.237 64.0887 112.228 63.813C112.221 61.5694 112.93 60.2857 114.302 58.5655C115.402 57.5302 116.116 57.0972 117.632 57.4037Z" fill="#F4A99C"/>
<path d="M227.372 165.705C229.727 167.463 231.379 169.539 231.854 172.482C232.207 175.973 231.791 178.655 229.599 181.453C228.019 183.301 225.92 184.538 223.516 185.049C220.191 185.218 217.585 185.066 214.878 182.947C214.737 182.841 214.595 182.734 214.449 182.624C212.826 181.222 211.399 178.552 211.142 176.41C210.912 173.166 211.491 170.619 213.477 168.005C213.73 167.644 213.73 167.644 213.988 167.276C217.353 163.418 223.227 163.031 227.372 165.705Z" fill="#F4A99C"/>
<path d="M132.873 165.715C135.208 167.288 136.795 169.422 137.474 172.158C138.007 175.31 137.641 178.337 135.835 181.036C134.171 183.158 132.048 184.468 129.43 185.049C125.708 185.274 123.078 184.727 120.114 182.359C118.525 180.931 117.232 178.536 117.005 176.396C116.824 172.906 117.273 170.269 119.51 167.468C123.122 163.55 128.38 163.053 132.873 165.715Z" fill="#F4A99C"/>
<path d="M174.605 162.811C174.857 162.809 175.108 162.808 175.367 162.806C178.813 162.814 178.813 162.814 180.136 163.666C180.924 164.614 181.209 165.318 181.117 166.559C180.837 168.133 179.976 169.719 178.692 170.694C177.998 171.137 177.373 171.48 176.59 171.741C176.457 174.006 176.732 176.245 178.224 178.045C179.341 179.162 180.525 179.378 182.047 179.519C183.72 179.374 185.344 178.924 186.629 177.811C187.08 177.214 187.501 176.605 187.909 175.977C188.263 175.477 188.263 175.477 188.73 175.243C189.757 175.125 190.257 175.183 191.167 175.696C191.862 176.527 191.962 176.913 191.886 177.967C191.473 179.832 189.924 181.325 188.422 182.402C185.477 184.276 182.246 184.568 178.834 183.978C177.322 183.508 176.302 182.611 175.188 181.507C174.77 181.027 174.77 181.027 174.255 181.08C174.111 181.282 173.966 181.484 173.817 181.693C172.788 182.994 170.954 183.781 169.352 184.115C165.719 184.406 162.703 184.11 159.78 181.78C158.565 180.716 157.372 179.665 157.14 177.991C157.09 177.069 157.085 176.581 157.65 175.827C158.529 175.206 159.101 175.143 160.16 175.265C161.102 175.625 161.457 176.409 161.97 177.24C162.693 178.333 163.7 178.782 164.916 179.212C166.744 179.531 168.616 179.668 170.286 178.745C171.625 177.585 172.095 176.006 172.387 174.309C172.428 174.083 172.469 173.857 172.511 173.624C172.58 172.92 172.596 172.418 172.387 171.741C171.842 171.262 171.296 170.97 170.646 170.647C169.162 169.881 168.468 168.37 167.952 166.838C167.8 165.875 167.889 165.547 168.375 164.693C170.002 162.602 172.091 162.793 174.605 162.811Z" fill="black"/>
<path d="M209.545 153.626C211.463 155.143 212.225 157.144 212.523 159.527C212.57 161.336 212.101 163.119 210.909 164.504C209.364 166.126 207.9 166.848 205.656 166.926C203.584 166.851 202.144 166.268 200.641 164.818C199.148 163.082 198.819 161.307 198.905 159.053C199.15 156.892 199.935 155.215 201.57 153.764C203.888 152.096 207.154 152.066 209.545 153.626Z" fill="black"/>
<path d="M146.939 153.531C148.623 154.547 149.367 156.378 149.974 158.2C150.167 160.873 149.85 162.871 148.131 164.967C146.577 166.455 144.637 166.926 142.551 166.903C140.907 166.761 139.389 166.083 138.193 164.938C136.587 162.998 136.41 160.835 136.611 158.417C136.845 156.531 137.812 154.996 139.235 153.764C141.678 152.024 144.327 152.253 146.939 153.531Z" fill="black"/>
<path d="M145.841 130.955C145.925 130.966 146.009 130.978 146.096 130.989C148.972 131.377 152.952 131.94 154.909 134.366C155.276 134.911 155.463 135.264 155.36 135.936C155.231 136.357 154.958 136.677 154.625 136.958C154.101 137.195 153.626 137.11 153.084 136.959C152.624 136.744 152.194 136.483 151.759 136.221C150.11 135.243 148.545 134.745 146.649 134.47C146.44 134.439 146.44 134.439 146.227 134.408C144.977 134.24 143.735 134.183 142.486 134.387C142.406 134.399 142.327 134.411 142.245 134.424C141.635 134.522 141.041 134.662 140.447 134.831C139.883 134.979 139.307 135.022 138.774 134.74C138.459 134.519 138.29 134.333 138.106 133.991C138.004 133.376 138.051 132.797 138.354 132.245C138.973 131.718 139.698 131.5 140.474 131.315C140.572 131.292 140.67 131.268 140.771 131.244C142.432 130.865 144.15 130.725 145.841 130.955Z" fill="black"/>
<path d="M209.685 138.798C209.794 138.856 209.794 138.856 209.904 138.915C210.469 139.246 210.923 139.676 211.141 140.349C211.195 141.021 211.139 141.474 210.815 142.074C210.363 142.541 209.972 142.753 209.34 142.742C208.722 142.652 208.134 142.38 207.549 142.152C205.944 141.529 204.511 141.265 202.806 141.27C202.686 141.271 202.686 141.271 202.563 141.271C200.479 141.279 198.38 141.483 196.433 142.345C195.837 142.599 195.336 142.614 194.711 142.452C194.162 142.114 193.969 141.713 193.784 141.066C193.706 140.475 193.725 140.061 193.972 139.522C194.988 138.243 196.263 137.987 197.758 137.741C197.99 137.703 198.22 137.663 198.451 137.622C202.092 137.002 206.305 136.984 209.685 138.798Z" fill="black"/>
<path d="M256.584 129.357C260.726 129.758 264.683 131.22 267.651 134.253L267.668 134.27L267.684 134.286C270.376 137.168 271.441 140.724 271.098 144.328L271.096 144.341C270.616 149.052 267.68 152.241 264.152 154.753L264.149 154.755C264.037 154.834 263.925 154.913 263.813 154.992C263.756 155.032 263.699 155.074 263.64 155.116L263.639 155.116C263.349 155.321 263.056 155.527 262.762 155.732L262.763 155.733C261.665 156.504 261.032 157.17 260.616 157.852C260.198 158.537 259.916 159.374 259.712 160.615L259.71 160.624L259.708 160.635C259.693 160.72 259.678 160.806 259.663 160.894C259.652 160.963 259.64 161.032 259.628 161.103L259.605 161.249L259.56 161.389C259.354 162.034 259.035 162.466 258.608 162.859L258.344 163.101L258.012 163.238C257.172 163.582 256.494 163.608 255.767 163.537L255.768 163.538C255.668 163.528 255.668 163.528 255.567 163.518L254.902 163.451C254.751 163.436 254.6 163.421 254.448 163.407L254.446 163.406L253.483 163.307C253.083 163.266 252.681 163.226 252.276 163.187L251.325 163.091C251.178 163.076 251.031 163.062 250.884 163.047L250.882 163.047C250.663 163.026 250.445 163.003 250.233 162.98L250.234 162.979L249.783 162.933L249.684 162.914C248.711 162.714 248.154 162.235 247.758 161.871L247.492 161.627L247.329 161.305C246.773 160.211 247.015 159.117 247.045 158.876C247.055 158.785 247.066 158.693 247.077 158.599L247.079 158.58C247.362 156.314 248.026 154.37 249.177 152.631C250.317 150.909 251.867 149.492 253.768 148.177L253.781 148.168L253.793 148.159C254.099 147.954 254.41 147.765 254.678 147.601C255.573 147.041 256.396 146.42 257.119 145.741L257.131 145.729L257.144 145.718C257.217 145.651 257.291 145.583 257.367 145.514C258.323 144.61 258.688 143.781 258.715 142.641C258.65 142.162 258.386 141.635 257.913 141.211C257.256 140.759 256.539 140.482 255.658 140.349L255.648 140.348C255.576 140.337 255.505 140.325 255.431 140.314C254.18 140.155 253.215 140.288 252.461 140.715C251.661 141.271 251.035 141.99 250.327 142.936L250.321 142.943C250.28 142.997 250.239 143.051 250.197 143.106C250.138 143.187 250.138 143.188 250.078 143.27L250.002 143.376L249.912 143.471C249.279 144.137 248.573 144.358 248.001 144.467L247.799 144.506L247.594 144.503C246.564 144.487 245.604 144.039 244.999 143.726C244.663 143.552 244.34 143.366 244.075 143.214C243.791 143.05 243.588 142.934 243.419 142.848C243.162 142.718 242.904 142.587 242.645 142.456L242.643 142.455C242.477 142.371 242.31 142.287 242.143 142.202L242.144 142.202C242.067 142.163 241.991 142.125 241.912 142.085L241.908 142.084C241.364 141.807 240.921 141.586 240.609 141.379C240.131 141.063 239.887 140.742 239.72 140.529L239.468 140.208L239.361 139.814C238.995 138.456 239.459 137.403 239.968 136.644L239.967 136.644C240.021 136.562 240.021 136.561 240.076 136.477L240.081 136.471L240.086 136.463C241.145 134.882 242.405 133.591 243.943 132.429C244.023 132.368 244.102 132.305 244.185 132.242L244.198 132.232L244.211 132.222C246.419 130.574 248.975 129.676 251.693 129.306L251.693 129.305C251.771 129.294 251.851 129.283 251.932 129.271L251.943 129.269L251.954 129.269C253.523 129.062 255.036 129.209 256.328 129.334L256.328 129.333C256.411 129.341 256.494 129.349 256.58 129.357L256.584 129.357Z" fill="#FFF288" stroke="black" stroke-width="4"/>
<path d="M247.807 164.137C250.6 162.551 254.671 162.477 257.394 164.936L257.418 164.957L257.441 164.98C257.533 165.068 257.533 165.068 257.627 165.159L257.806 165.329L257.827 165.349L257.848 165.369C259.357 166.888 259.92 168.805 259.823 170.666L259.82 170.751L259.807 170.836C259.554 172.669 258.575 174.302 257.031 175.436L256.988 175.468L256.942 175.497C254.838 176.872 252.802 176.999 250.63 176.715L250.6 176.711L250.571 176.707C248.579 176.386 247.119 175.211 246.114 174.094L246.074 174.05L246.037 174.004C244.752 172.393 244.373 170.483 244.648 168.668L244.657 168.608L244.67 168.548C245.059 166.735 246.145 165.247 247.68 164.216L247.742 164.175L247.807 164.137Z" fill="#FFF288" stroke="black" stroke-width="4"/>
<path d="M117.916 93.7854C117.967 93.8066 118.018 93.8279 118.071 93.8497C119.319 94.3707 120.496 95.0157 121.649 95.7202C121.692 95.7462 121.735 95.7723 121.779 95.7991C122.28 96.1034 122.762 96.4222 123.227 96.7786C123.414 96.9246 123.414 96.9246 123.629 97.0218C123.635 97.063 123.641 97.1042 123.647 97.1466C123.687 97.1577 123.726 97.1688 123.767 97.1803C124.165 97.3253 124.498 97.6691 124.814 97.9438C124.927 98.0429 124.927 98.0429 125.05 98.126C125.144 98.2009 125.144 98.2009 125.162 98.3257C125.214 98.2849 125.266 98.244 125.32 98.2019C126.879 96.9972 128.848 96.4613 130.812 96.6982C131.395 96.778 131.942 96.8987 132.489 97.1168C132.643 97.1686 132.643 97.1686 132.757 97.0913C132.9 96.9698 133.002 96.8394 133.114 96.6878C133.158 96.6284 133.202 96.569 133.247 96.5079C133.292 96.4458 133.337 96.3838 133.384 96.3198C133.43 96.2585 133.475 96.1972 133.522 96.134C133.727 95.8549 133.918 95.5781 134.091 95.2777C134.157 95.1952 134.224 95.1146 134.294 95.0361C134.449 94.8593 134.591 94.6798 134.728 94.4892C134.933 94.2089 135.16 93.9557 135.396 93.7013C135.552 93.5318 135.703 93.3589 135.855 93.1852C138.617 90.0942 142.591 87.2759 146.83 86.9418C148.269 86.873 149.713 87.3734 150.805 88.3061C153.023 90.3716 153.956 93.5263 154.674 96.371C154.687 96.417 154.699 96.463 154.711 96.5105C154.838 97.0064 154.917 97.5072 154.993 98.0131C155.007 98.1062 155.021 98.1993 155.035 98.2924C155.064 98.4872 155.093 98.6821 155.122 98.8769C155.151 99.0731 155.181 99.2693 155.211 99.4653C155.393 100.662 155.548 101.85 155.603 103.061C155.606 103.11 155.608 103.158 155.61 103.207C155.623 103.476 155.63 103.745 155.633 104.014C155.634 104.093 155.635 104.172 155.636 104.253C155.641 105.057 155.584 105.852 155.498 106.651C155.493 106.703 155.487 106.756 155.482 106.81C155.323 108.304 154.881 109.76 154.04 111.015C154.006 111.066 153.971 111.118 153.936 111.171C153.168 112.263 151.919 113.043 150.615 113.31C150.076 113.404 149.534 113.479 148.992 113.551C149.133 113.696 149.274 113.842 149.415 113.987C149.459 114.032 149.503 114.077 149.549 114.124C149.819 114.401 150.091 114.676 150.365 114.949C152.975 117.556 152.975 117.556 152.992 118.573C152.951 119.065 152.814 119.491 152.481 119.862C151.478 120.662 149.916 120.518 148.707 120.553C148.552 120.558 148.396 120.564 148.241 120.569C147.745 120.585 147.248 120.601 146.752 120.612C146.112 120.607 146.112 120.607 145.535 120.835C145.433 120.967 145.36 121.1 145.284 121.249C145.225 121.352 145.167 121.455 145.108 121.558C145.042 121.674 144.978 121.791 144.914 121.908C144.548 122.581 144.162 123.245 143.763 123.9C143.739 123.939 143.715 123.978 143.691 124.019C142.728 125.606 142.728 125.606 141.893 125.865C141.343 125.98 140.875 125.86 140.389 125.588C140.133 125.393 139.96 125.124 139.778 124.863C139.75 124.822 139.721 124.782 139.692 124.74C139.374 124.28 139.076 123.809 138.781 123.335C138.751 123.287 138.722 123.239 138.691 123.189C137.367 121.061 136.114 118.894 134.911 116.696C134.745 116.391 134.577 116.088 134.409 115.785C133.844 114.762 133.296 113.732 132.759 112.694C132.714 112.607 132.714 112.607 132.668 112.518C132.583 112.355 132.499 112.192 132.415 112.028C132.377 111.955 132.377 111.955 132.339 111.88C132.244 111.694 132.165 111.539 132.134 111.331C132.072 111.35 132.011 111.37 131.947 111.39C131.72 111.454 131.502 111.495 131.268 111.529C131.188 111.541 131.108 111.553 131.025 111.565C130.941 111.577 130.858 111.588 130.774 111.6C130.689 111.613 130.603 111.625 130.518 111.637C130.311 111.667 130.103 111.697 129.895 111.727C129.889 111.763 129.883 111.799 129.876 111.836C129.051 116.521 128.086 121.21 126.771 125.786C126.717 125.975 126.664 126.164 126.612 126.354C126.393 127.132 126.179 127.782 125.45 128.213C125.012 128.435 124.495 128.46 124.027 128.325C123.303 128.027 122.718 127.427 122.145 126.908C122.101 126.868 122.056 126.828 122.01 126.786C121.562 126.379 121.122 125.964 120.685 125.545C120.612 125.475 120.538 125.404 120.464 125.334C120.395 125.268 120.326 125.202 120.257 125.135C120.165 125.048 120.071 124.962 119.977 124.877C119.9 124.797 119.9 124.797 119.821 124.715C119.309 124.452 118.506 124.808 117.98 124.952C117.896 124.974 117.812 124.997 117.728 125.019C117.375 125.114 117.023 125.209 116.671 125.304C114.955 125.769 114.955 125.769 114.217 125.882C114.144 125.893 114.144 125.893 114.071 125.904C113.533 125.975 113.065 125.87 112.614 125.571C112.146 125.172 111.969 124.705 111.914 124.101C111.872 123.146 112.582 122.136 113.003 121.317C113.032 121.26 113.061 121.204 113.091 121.145C113.501 120.344 113.924 119.55 114.346 118.757C114.301 118.762 114.255 118.768 114.207 118.774C112.069 119.044 110.44 118.916 108.674 117.607C107.2 116.442 106.23 114.538 105.638 112.789C105.587 112.64 105.534 112.492 105.481 112.344C103.758 107.428 102.701 100.492 104.98 95.6233C105.658 94.3193 106.591 93.4095 107.948 92.8397C108.004 92.8157 108.06 92.7916 108.118 92.7669C111.121 91.6473 115.067 92.5934 117.916 93.7854Z" fill="black"/>
<path d="M109.774 94.726C109.817 94.7198 109.859 94.7136 109.902 94.7072C114.488 94.0408 118.894 96.2731 122.479 98.9412C122.766 99.1572 123.044 99.3815 123.312 99.6211C123.367 99.6702 123.367 99.6702 123.424 99.7203C123.51 99.7963 123.595 99.8728 123.68 99.9494C123.613 100.197 123.491 100.395 123.36 100.615C122.877 101.458 122.633 102.373 122.457 103.322C122.168 103.283 121.881 103.242 121.595 103.186C120.611 102.993 119.61 102.889 118.612 103.023C118.558 103.029 118.504 103.036 118.448 103.043C118.189 103.084 118.016 103.131 117.833 103.324C117.613 103.643 117.593 103.835 117.659 104.209C117.733 104.492 117.862 104.646 118.106 104.8C118.422 104.942 118.758 104.905 119.097 104.897C119.713 104.891 120.322 104.907 120.936 104.951C121.006 104.956 121.076 104.961 121.148 104.966C121.618 105.001 122.076 105.07 122.538 105.16C122.548 105.217 122.557 105.274 122.567 105.332C122.83 106.744 123.501 108.358 124.609 109.324C124.704 109.434 124.704 109.434 124.727 109.552C124.651 109.773 124.497 109.921 124.338 110.086C124.302 110.124 124.266 110.163 124.229 110.202C123.484 110.976 122.665 111.689 121.819 112.351C121.774 112.386 121.729 112.421 121.683 112.457C119.261 114.341 116.478 116.144 113.391 116.619C113.3 116.634 113.209 116.648 113.119 116.664C112.043 116.846 111.153 116.71 110.238 116.075C107.067 113.592 106.633 108.29 106.181 104.588C106.102 103.893 106.064 103.2 106.062 102.5C106.061 102.383 106.061 102.383 106.06 102.264C106.053 100.279 106.154 97.9384 107.233 96.2C107.262 96.1404 107.292 96.0808 107.322 96.0193C107.92 95.1394 108.777 94.8723 109.774 94.726Z" fill="#F4A99C"/>
<path d="M146.307 89.3011C146.385 89.2882 146.463 89.2753 146.544 89.262C147.481 89.1188 148.232 89.2348 149.01 89.7808C150.695 91.0339 151.473 93.3331 152.07 95.2661C152.106 95.3836 152.106 95.3836 152.144 95.5034C152.536 96.8054 152.786 98.1176 152.98 99.4626C152.992 99.5423 153.003 99.6221 153.015 99.7043C153.474 102.862 154.068 107.041 152.213 109.883C151.544 110.732 150.742 111.084 149.693 111.234C149.65 111.24 149.607 111.246 149.563 111.253C146.631 111.673 143.624 110.948 140.867 109.971C140.806 109.949 140.745 109.928 140.682 109.905C137.37 108.716 137.37 108.716 136.439 107.894C136.391 107.764 136.391 107.764 136.461 107.56C136.5 107.48 136.54 107.4 136.581 107.321C136.622 107.234 136.664 107.147 136.705 107.061C136.725 107.018 136.746 106.974 136.767 106.93C137.303 105.757 137.365 104.434 137.241 103.17C137.579 102.947 137.919 102.748 138.286 102.577C138.335 102.553 138.385 102.53 138.436 102.506C139.233 102.142 140.067 101.856 140.896 101.572C140.95 101.553 141.004 101.534 141.059 101.515C141.106 101.499 141.153 101.483 141.201 101.467C141.386 101.389 141.484 101.285 141.596 101.12C141.706 100.844 141.679 100.573 141.6 100.29C141.448 100.011 141.298 99.8673 141.008 99.7397C140.813 99.7306 140.629 99.7596 140.437 99.7924C140.382 99.8013 140.328 99.8102 140.271 99.8194C139.167 100.017 138.129 100.504 137.16 101.056C136.945 101.172 136.945 101.172 136.757 101.2C136.732 101.154 136.732 101.154 136.706 101.107C136.202 100.202 135.677 99.3457 134.884 98.665C134.77 98.5594 134.77 98.5594 134.68 98.3814C134.721 98.3753 134.762 98.3692 134.805 98.3629C134.816 98.3238 134.827 98.2847 134.838 98.2445C134.895 98.0887 134.963 97.9767 135.059 97.8418C135.092 97.7945 135.125 97.7473 135.159 97.6986C135.212 97.6243 135.212 97.6243 135.266 97.5485C135.338 97.446 135.411 97.3434 135.483 97.2407C135.534 97.167 135.534 97.167 135.587 97.0918C135.699 96.9301 135.806 96.7654 135.911 96.5993C136.061 96.3669 136.226 96.1587 136.409 95.9511C136.53 95.811 136.647 95.6676 136.762 95.5229C138.856 92.9072 141.679 90.5697 144.925 89.5859C144.999 89.5629 145.072 89.54 145.147 89.5163C145.527 89.4129 145.918 89.3604 146.307 89.3011Z" fill="#F4A99C"/>
<path d="M134.945 109.637C135.148 109.637 135.28 109.691 135.454 109.79C135.502 109.817 135.549 109.844 135.598 109.872C135.649 109.901 135.699 109.93 135.751 109.96C135.858 110.02 135.965 110.081 136.073 110.141C136.126 110.171 136.179 110.201 136.234 110.232C137.9 111.159 139.681 111.831 141.486 112.431C141.567 112.458 141.567 112.458 141.649 112.486C142.305 112.705 142.966 112.87 143.643 113.013C143.756 113.037 143.756 113.037 143.872 113.061C144.218 113.133 144.561 113.198 144.911 113.241C145.688 113.344 146.079 113.545 146.572 114.154C146.757 114.378 146.96 114.588 147.159 114.8C147.243 114.891 147.326 114.982 147.41 115.073C148.027 115.739 148.671 116.379 149.312 117.022C149.587 117.299 149.861 117.577 150.133 117.857C150.165 117.889 150.197 117.922 150.229 117.956C150.444 118.178 150.444 118.178 150.454 118.248C149.942 118.294 149.432 118.312 148.918 118.324C147.657 118.356 146.387 118.393 145.136 118.562C145.08 118.569 145.023 118.576 144.965 118.583C144.538 118.648 144.228 118.785 143.959 119.133C143.865 119.276 143.779 119.421 143.695 119.57C143.668 119.616 143.642 119.662 143.615 119.709C143.536 119.849 143.459 119.99 143.383 120.131C143.146 120.563 142.903 120.992 142.654 121.417C142.502 121.676 142.353 121.935 142.205 122.195C141.754 122.991 141.754 122.991 141.563 123.269C141.522 123.275 141.481 123.281 141.438 123.287C140.131 121.354 138.949 119.351 137.808 117.317C137.771 117.25 137.771 117.25 137.732 117.182C137.003 115.882 136.29 114.574 135.579 113.264C135.542 113.196 135.505 113.127 135.467 113.057C135.001 112.199 134.547 111.336 134.111 110.463C134.263 110.25 134.412 110.091 134.618 109.929C134.795 109.796 134.795 109.796 134.945 109.637Z" fill="#F4A99C"/>
<path d="M126.644 110.884C126.852 110.931 127.042 111.019 127.235 111.105C127.297 111.132 127.297 111.132 127.36 111.159C127.461 111.204 127.561 111.248 127.662 111.293C127.64 111.867 127.529 112.424 127.423 112.988C127.413 113.042 127.403 113.096 127.392 113.152C125.724 122.096 125.724 122.096 124.403 125.88C124.361 125.886 124.32 125.892 124.278 125.898C124.163 125.798 124.056 125.696 123.948 125.588C123.881 125.522 123.813 125.455 123.746 125.389C123.711 125.354 123.675 125.319 123.639 125.284C123.47 125.118 123.297 124.956 123.125 124.793C122.867 124.551 122.612 124.307 122.358 124.062C122.265 123.972 122.172 123.882 122.079 123.792C122 123.716 121.922 123.64 121.843 123.564C121.705 123.43 121.566 123.296 121.427 123.163C121.361 123.099 121.361 123.099 121.294 123.034C120.799 122.553 120.799 122.553 120.169 122.296C119.978 122.303 119.807 122.32 119.619 122.35C119.562 122.359 119.505 122.368 119.446 122.377C118.003 122.62 116.568 123.022 115.164 123.431C114.898 123.508 114.641 123.573 114.365 123.604C114.415 123.3 114.554 123.066 114.713 122.807C115.041 122.258 115.335 121.696 115.625 121.127C115.691 120.996 115.758 120.866 115.825 120.736C116.036 120.327 116.243 119.917 116.448 119.505C116.508 119.386 116.567 119.267 116.627 119.148C116.761 118.881 116.894 118.613 117.02 118.342C117.041 118.298 117.062 118.254 117.083 118.208C117.139 118.092 117.193 117.975 117.247 117.858C117.411 117.62 117.594 117.527 117.849 117.408C117.971 117.346 118.093 117.284 118.215 117.222C118.283 117.188 118.351 117.154 118.421 117.118C121.299 115.654 124.442 113.554 126.425 110.965C126.517 110.888 126.517 110.888 126.644 110.884Z" fill="#F4A99C"/>
<path d="M132.418 99.4824C133.592 100.156 134.344 101.201 134.835 102.442C134.855 102.489 134.874 102.537 134.894 102.585C135.226 103.634 135.156 104.787 134.827 105.825C134.809 105.885 134.791 105.945 134.773 106.007C134.368 107.245 133.468 108.244 132.323 108.85C131.006 109.513 129.634 109.618 128.231 109.164C126.863 108.687 125.847 107.744 125.2 106.452C124.561 105.031 124.514 103.599 125.014 102.133C125.16 101.754 125.352 101.414 125.57 101.073C125.596 101.031 125.623 100.988 125.65 100.944C127.11 98.7709 130.205 98.2573 132.418 99.4824Z" fill="#F4A99C"/>
</svg>
