<svg width="198" height="223" viewBox="0 0 198 223" fill="none" xmlns="http://www.w3.org/2000/svg">
<path d="M38.1156 5.57187C38.3178 5.67183 38.52 5.77179 38.7283 5.87478C42.0061 7.5061 45.1168 9.4144 48.232 11.3322C49.1879 11.9207 50.1464 12.5047 51.1068 13.0859C51.3567 13.2372 51.6066 13.3886 51.8641 13.5445C52.3279 13.8251 52.7917 14.1056 53.2557 14.3858C53.4653 14.5131 53.6749 14.6404 53.8908 14.7715C54.091 14.8928 54.2911 15.0142 54.4972 15.1393C55.2674 15.6265 56.0039 16.1576 56.7353 16.7012C57.6351 17.1488 58.4203 17.0457 59.3718 16.7922C59.5921 16.7116 59.8124 16.631 60.0394 16.548C60.2925 16.4582 60.5457 16.3684 60.8065 16.2759C61.0784 16.1785 61.3502 16.0811 61.6303 15.9807C70.6063 12.8853 79.9911 11.5211 89.463 11.5717C89.7188 11.5726 89.9746 11.5734 90.2382 11.5743C100.35 11.6128 110.078 13.2386 119.724 16.3027C119.954 16.3743 120.184 16.4459 120.422 16.5197C121.023 16.7231 121.023 16.7231 121.797 17.1029C122.948 17.2807 123.661 16.5715 124.568 15.9201C125.002 15.6243 125.436 15.3295 125.87 15.0357C126.104 14.8767 126.338 14.7177 126.578 14.5539C127.91 13.6678 129.276 12.8387 130.644 12.0111C130.787 11.9244 130.93 11.8376 131.078 11.7483C135.144 9.28838 139.264 6.89994 143.552 4.84521C144.115 4.57177 144.674 4.28923 145.233 4.00657C149.209 2.02173 153.446 0.206073 157.946 0.178056C158.144 0.173056 158.342 0.168056 158.546 0.162905C160.492 0.150498 162.079 0.628375 163.529 1.97347C167.299 6.17007 167.744 12.8401 168.295 18.1777C168.321 18.4331 168.321 18.4331 168.349 18.6936C169.111 26.4532 168.381 34.3905 167.582 42.1165C167.552 42.414 167.552 42.414 167.522 42.7175C167.151 46.3604 167.151 46.3604 166.773 47.9971C166.005 51.327 167.011 53.4672 168.456 56.4997C172.01 64.2694 172.819 72.7899 172.658 81.2065C172.92 81.2058 172.92 81.2058 173.188 81.205C178.091 81.1963 178.091 81.1963 179.128 82.0399C179.967 82.9695 180.016 83.5486 179.997 84.7652C179.892 85.6586 179.567 86.1296 178.961 86.7822C176.906 88.0403 174.46 87.5086 172.173 87.267C172.148 87.4698 172.148 87.4698 172.122 87.6766C171.759 90.5171 171.307 93.2501 170.476 95.9941C170.774 96.0557 171.073 96.1172 171.38 96.1806C171.776 96.2648 172.171 96.3491 172.567 96.4335C172.763 96.4736 172.959 96.5138 173.161 96.5552C174.572 96.8591 175.772 97.2232 176.87 98.2062C177.421 99.1804 177.487 99.9909 177.264 101.085C176.848 101.89 176.271 102.399 175.506 102.888C173.783 103.24 171.99 102.645 170.34 102.161C170.142 102.104 169.943 102.047 169.739 101.989C169.257 101.851 168.776 101.71 168.295 101.57C168.253 101.704 168.212 101.839 168.17 101.977C167.75 103.301 167.239 104.514 166.582 105.736C166.488 105.913 166.393 106.09 166.295 106.273C164.763 109.068 162.879 111.508 160.661 113.797C160.409 114.058 160.158 114.321 159.908 114.585C155.139 119.634 148.58 124.276 141.871 126.296C142.166 126.521 142.166 126.521 142.467 126.75C145.098 128.759 147.644 130.824 150.062 133.087C150.561 133.553 151.063 134.014 151.573 134.468C152.713 135.484 153.791 136.498 154.771 137.668C155.082 138.033 155.405 138.387 155.735 138.735C158.527 141.678 160.822 145.019 162.719 148.599C162.832 148.804 162.946 149.008 163.063 149.219C165.113 153.061 166.116 157.444 164.91 161.709C163.777 164.892 161.817 166.932 158.84 168.477C153.462 170.676 148.112 170.714 142.736 168.473C142.366 168.315 141.997 168.154 141.628 167.992C141.673 168.164 141.717 168.336 141.763 168.513C142.365 170.97 142.725 173.443 143.068 175.947C143.115 176.286 143.115 176.286 143.162 176.631C147.799 210.313 147.799 210.313 142.848 216.865C139.797 220.173 135.107 221.732 130.72 222.052C129.356 222.099 127.993 222.111 126.629 222.112C126.345 222.113 126.345 222.113 126.056 222.113C120.827 222.109 114.847 221.714 110.812 217.948C108.728 215.652 107.85 212.93 107.16 209.976C107.119 209.807 107.078 209.638 107.037 209.464C106.782 208.304 106.666 207.163 106.586 205.978C106.566 205.673 106.545 205.369 106.524 205.056C106.509 204.825 106.493 204.593 106.478 204.355C106.322 204.37 106.167 204.384 106.006 204.399C101.127 204.834 96.2778 204.916 91.3819 204.903C90.3395 204.901 89.2972 204.902 88.2549 204.905C83.3171 204.916 78.4298 204.79 73.5088 204.355C73.4935 204.569 73.4783 204.782 73.4625 205.002C73.4314 205.425 73.4314 205.425 73.3996 205.856C73.3693 206.274 73.3693 206.274 73.3382 206.7C73.2442 207.755 73.0685 208.776 72.8421 209.81C72.7996 210.005 72.757 210.201 72.7132 210.402C71.8916 214.016 70.5085 216.927 67.4483 219.143C63.3606 221.626 58.7535 222.099 54.0847 222.11C53.5172 222.112 52.9499 222.12 52.3824 222.128C46.9925 222.166 41.7626 221.132 37.6914 217.37C34.5475 214.041 34.6063 210.226 34.646 205.916C34.6474 205.657 34.6487 205.398 34.6501 205.132C34.7 195.653 35.5657 186.265 36.7975 176.871C36.8217 176.686 36.8459 176.501 36.8708 176.31C37.2266 173.608 37.6538 170.921 38.1156 168.235C37.8141 168.334 37.5125 168.434 37.2018 168.536C31.5199 170.387 26.3357 170.99 20.7978 168.326C17.9419 166.856 16.0415 164.666 14.8908 161.666C13.5636 156.948 15.3129 151.945 17.5625 147.815C19.4486 144.486 21.7009 141.525 24.2892 138.713C24.733 138.229 25.1604 137.736 25.5856 137.236C27.3449 135.219 29.2864 133.358 31.3279 131.63C31.5822 131.409 31.8363 131.187 32.0902 130.966C33.9652 129.336 35.8865 127.788 37.8732 126.296C37.7341 126.234 37.5951 126.172 37.4518 126.108C36.9958 125.902 36.5408 125.695 36.0863 125.486C35.4538 125.197 34.8201 124.915 34.1829 124.637C29.8065 122.69 25.9118 120.044 22.3584 116.842C22.1553 116.668 21.9522 116.494 21.7429 116.315C20.5404 115.279 19.4845 114.19 18.4797 112.963C18.2831 112.73 18.0866 112.497 17.8841 112.257C15.2739 109.099 13.1706 105.526 11.4496 101.812C10.1678 101.915 9.04278 102.186 7.81327 102.57C6.45275 102.968 5.54338 103.179 4.17699 102.782C3.22195 102.2 2.76384 101.684 2.48006 100.6C2.35995 99.6592 2.43964 99.2248 2.87399 98.3728C4.03919 96.993 5.60416 96.7613 7.29813 96.4335C7.51125 96.3905 7.72437 96.3475 7.94395 96.3033C8.4657 96.1984 8.98774 96.0954 9.5102 95.9941C9.47603 95.8417 9.44185 95.6893 9.40663 95.5323C8.79332 92.7864 8.18781 90.0571 7.81327 87.267C7.54931 87.2765 7.54931 87.2765 7.28002 87.2863C6.47805 87.3115 5.67616 87.3272 4.87394 87.3428C4.59708 87.3529 4.32021 87.3631 4.03495 87.3736C1.73097 87.407 1.73097 87.407 0.845625 86.6865C0.122366 85.8519 0.0184303 85.4686 0.0104164 84.3883C0.0052603 84.0742 0.0052603 84.0742 0 83.7538C0.0821608 82.8598 0.335934 82.3546 1.01039 81.7671C2.56245 81.102 4.29847 81.196 5.96388 81.2018C6.34939 81.2028 6.34939 81.2028 6.74269 81.2039C6.93598 81.2048 7.12928 81.2056 7.32843 81.2065C7.32463 81.0068 7.32082 80.8071 7.31689 80.6013C7.17174 71.793 8.41206 63.1907 12.067 55.0774C12.1686 54.8517 12.2702 54.626 12.3749 54.3935C12.5689 53.9719 12.7687 53.5528 12.9754 53.1373C13.7042 51.578 13.6754 50.4016 13.3889 48.7224C13.3562 48.5158 13.3236 48.3093 13.2899 48.0964C13.2195 47.6648 13.1467 47.2335 13.0719 46.8026C11.3041 36.454 10.598 25.4658 11.9344 15.0262C11.9591 14.8235 11.9838 14.6207 12.0092 14.4119C12.564 9.99219 13.4889 4.52098 17.0252 1.45075C23.3646 -2.5611 32.3875 2.72003 38.1156 5.57187Z" fill="#FBE9CC"/>
<path d="M38.1156 5.57187C38.3178 5.67183 38.52 5.77179 38.7283 5.87478C42.0061 7.5061 45.1168 9.4144 48.232 11.3322C49.1879 11.9207 50.1464 12.5047 51.1068 13.0859C51.3567 13.2372 51.6066 13.3886 51.8641 13.5445C52.3279 13.8251 52.7917 14.1056 53.2557 14.3858C53.4653 14.5131 53.6749 14.6404 53.8908 14.7715C54.091 14.8928 54.2911 15.0142 54.4972 15.1393C55.2674 15.6265 56.0039 16.1576 56.7353 16.7012C57.6351 17.1488 58.4203 17.0457 59.3718 16.7922C59.5921 16.7116 59.8124 16.631 60.0394 16.548C60.2925 16.4582 60.5457 16.3684 60.8065 16.2759C61.0784 16.1785 61.3502 16.0811 61.6303 15.9807C70.6063 12.8853 79.9911 11.5211 89.463 11.5717C89.7188 11.5726 89.9746 11.5734 90.2382 11.5743C100.35 11.6128 110.078 13.2386 119.724 16.3027C119.954 16.3743 120.184 16.4459 120.422 16.5197C121.023 16.7231 121.023 16.7231 121.797 17.1029C122.948 17.2807 123.661 16.5715 124.568 15.9201C125.002 15.6243 125.436 15.3295 125.87 15.0357C126.104 14.8767 126.338 14.7177 126.578 14.5539C127.91 13.6678 129.276 12.8387 130.644 12.0111C130.787 11.9244 130.93 11.8376 131.078 11.7483C135.144 9.28838 139.264 6.89994 143.552 4.84521C144.115 4.57177 144.674 4.28923 145.233 4.00657C149.209 2.02173 153.446 0.206073 157.946 0.178056C158.144 0.173056 158.342 0.168056 158.546 0.162905C160.492 0.150498 162.079 0.628375 163.529 1.97347C167.299 6.17007 167.744 12.8401 168.295 18.1777C168.321 18.4331 168.321 18.4331 168.349 18.6936C169.111 26.4532 168.381 34.3905 167.582 42.1165C167.552 42.414 167.552 42.414 167.522 42.7175C167.151 46.3604 167.151 46.3604 166.773 47.9971C166.005 51.327 167.011 53.4672 168.456 56.4997C172.01 64.2694 172.819 72.7899 172.658 81.2065C172.92 81.2058 172.92 81.2058 173.188 81.205C178.091 81.1963 178.091 81.1963 179.128 82.0399C179.967 82.9695 180.016 83.5486 179.997 84.7652C179.892 85.6586 179.567 86.1296 178.961 86.7822C176.906 88.0403 174.46 87.5086 172.173 87.267C172.148 87.4698 172.148 87.4698 172.122 87.6766C171.759 90.5171 171.307 93.2501 170.476 95.9941C170.774 96.0557 171.073 96.1172 171.38 96.1806C171.776 96.2648 172.171 96.3491 172.567 96.4335C172.763 96.4736 172.959 96.5138 173.161 96.5552C174.572 96.8591 175.772 97.2232 176.87 98.2062C177.421 99.1804 177.487 99.9909 177.264 101.085C176.848 101.89 176.271 102.399 175.506 102.888C173.783 103.24 171.99 102.645 170.34 102.161C170.142 102.104 169.943 102.047 169.739 101.989C169.257 101.851 168.776 101.71 168.295 101.57C168.253 101.704 168.212 101.839 168.17 101.977C167.75 103.301 167.239 104.514 166.582 105.736C166.488 105.913 166.393 106.09 166.295 106.273C164.763 109.068 162.879 111.508 160.661 113.797C160.409 114.058 160.158 114.321 159.908 114.585C155.139 119.634 148.58 124.276 141.871 126.296C142.166 126.521 142.166 126.521 142.467 126.75C145.098 128.759 147.644 130.824 150.062 133.087C150.561 133.553 151.063 134.014 151.573 134.468C152.713 135.484 153.791 136.498 154.771 137.668C155.082 138.033 155.405 138.387 155.735 138.735C158.527 141.678 160.822 145.019 162.719 148.599C162.832 148.804 162.946 149.008 163.063 149.219C165.113 153.061 166.116 157.444 164.91 161.709C163.777 164.892 161.817 166.932 158.84 168.477C153.462 170.676 148.112 170.714 142.736 168.473C142.366 168.315 141.997 168.154 141.628 167.992C141.673 168.164 141.717 168.336 141.763 168.513C142.365 170.97 142.725 173.443 143.068 175.947C143.115 176.286 143.115 176.286 143.162 176.631C147.799 210.313 147.799 210.313 142.848 216.865C139.797 220.173 135.107 221.732 130.72 222.052C129.356 222.099 127.993 222.111 126.629 222.112C126.345 222.113 126.345 222.113 126.056 222.113C120.827 222.109 114.847 221.714 110.812 217.948C108.728 215.652 107.85 212.93 107.16 209.976C107.119 209.807 107.078 209.638 107.037 209.464C106.782 208.304 106.666 207.163 106.586 205.978C106.566 205.673 106.545 205.369 106.524 205.056C106.509 204.825 106.493 204.593 106.478 204.355C106.322 204.37 106.167 204.384 106.006 204.399C101.127 204.834 96.2778 204.916 91.3819 204.903C90.3395 204.901 89.2972 204.902 88.2549 204.905C83.3171 204.916 78.4298 204.79 73.5088 204.355C73.4935 204.569 73.4783 204.782 73.4625 205.002C73.4314 205.425 73.4314 205.425 73.3996 205.856C73.3693 206.274 73.3693 206.274 73.3382 206.7C73.2442 207.755 73.0685 208.776 72.8421 209.81C72.7996 210.005 72.757 210.201 72.7132 210.402C71.8916 214.016 70.5085 216.927 67.4483 219.143C63.3606 221.626 58.7535 222.099 54.0847 222.11C53.5172 222.112 52.9499 222.12 52.3824 222.128C46.9925 222.166 41.7626 221.132 37.6914 217.37C34.5475 214.041 34.6063 210.226 34.646 205.916C34.6474 205.657 34.6487 205.398 34.6501 205.132C34.7 195.653 35.5657 186.265 36.7975 176.871C36.8217 176.686 36.8459 176.501 36.8708 176.31C37.2266 173.608 37.6538 170.921 38.1156 168.235C37.8141 168.334 37.5125 168.434 37.2018 168.536C31.5199 170.387 26.3357 170.99 20.7978 168.326C17.9419 166.856 16.0415 164.666 14.8908 161.666C13.5636 156.948 15.3129 151.945 17.5625 147.815C19.4486 144.486 21.7009 141.525 24.2892 138.713C24.733 138.229 25.1604 137.736 25.5856 137.236C27.3449 135.219 29.2864 133.358 31.3279 131.63C31.5822 131.409 31.8363 131.187 32.0902 130.966C33.9652 129.336 35.8865 127.788 37.8732 126.296C37.7341 126.234 37.5951 126.172 37.4518 126.108C36.9958 125.902 36.5408 125.695 36.0863 125.486C35.4538 125.197 34.8201 124.915 34.1829 124.637C29.8065 122.69 25.9118 120.044 22.3584 116.842C22.1553 116.668 21.9522 116.494 21.7429 116.315C20.5404 115.279 19.4845 114.19 18.4797 112.963C18.2831 112.73 18.0866 112.497 17.8841 112.257C15.2739 109.099 13.1706 105.526 11.4496 101.812C10.1678 101.915 9.04278 102.186 7.81327 102.57C6.45275 102.968 5.54338 103.179 4.17699 102.782C3.22195 102.2 2.76384 101.684 2.48006 100.6C2.35995 99.6592 2.43964 99.2248 2.87399 98.3728C4.03919 96.993 5.60416 96.7613 7.29813 96.4335C7.51125 96.3905 7.72437 96.3475 7.94395 96.3033C8.4657 96.1984 8.98774 96.0954 9.5102 95.9941C9.47603 95.8417 9.44185 95.6893 9.40663 95.5323C8.79332 92.7864 8.18781 90.0571 7.81327 87.267C7.54931 87.2765 7.54931 87.2765 7.28002 87.2863C6.47805 87.3115 5.67616 87.3272 4.87394 87.3428C4.59708 87.3529 4.32021 87.3631 4.03495 87.3736C1.73097 87.407 1.73097 87.407 0.845625 86.6865C0.122366 85.8519 0.0184303 85.4686 0.0104164 84.3883C0.0052603 84.0742 0.0052603 84.0742 0 83.7538C0.0821608 82.8598 0.335934 82.3546 1.01039 81.7671C2.56245 81.102 4.29847 81.196 5.96388 81.2018C6.34939 81.2028 6.34939 81.2028 6.74269 81.2039C6.93598 81.2048 7.12928 81.2056 7.32843 81.2065C7.32463 81.0068 7.32082 80.8071 7.31689 80.6013C7.17174 71.793 8.41206 63.1907 12.067 55.0774C12.1686 54.8517 12.2702 54.626 12.3749 54.3935C12.5689 53.9719 12.7687 53.5528 12.9754 53.1373C13.7042 51.578 13.6754 50.4016 13.3889 48.7224C13.3562 48.5158 13.3236 48.3093 13.2899 48.0964C13.2195 47.6648 13.1467 47.2335 13.0719 46.8026C11.3041 36.454 10.598 25.4658 11.9344 15.0262C11.9591 14.8235 11.9838 14.6207 12.0092 14.4119C12.564 9.99219 13.4889 4.52098 17.0252 1.45075C23.3646 -2.5611 32.3875 2.72003 38.1156 5.57187ZM20.9039 7.13245C19.8133 8.5297 19.351 9.91284 18.9342 11.6172C18.8958 11.7715 18.8573 11.9257 18.8177 12.0847C17.8526 16.3148 17.9069 20.607 17.9191 24.9199C17.9196 25.2459 17.92 25.5718 17.9204 25.8977C17.9337 32.8596 18.3526 39.6478 19.54 46.5101C20.0323 49.4474 20.4308 52.132 18.9797 54.8283C15.1038 62.7367 12.955 72.3748 13.3889 81.2065C13.8937 81.7113 14.9909 81.5163 15.6919 81.5399C17.314 81.6119 18.9076 81.7431 20.51 82.0096C20.7624 82.0479 20.7624 82.0479 21.0199 82.0871C22.1059 82.2821 22.8018 82.5923 23.5705 83.3883C23.9236 84.2686 23.9422 85.1695 23.651 86.072C23.3036 86.7497 22.9758 87.1977 22.2969 87.553C19.8984 88.2695 16.8418 87.69 14.3586 87.5094C14.2794 88.9937 14.5717 90.2754 14.9495 91.7063C15.0053 91.9258 15.061 92.1454 15.1185 92.3715C15.3888 93.4834 15.3888 93.4834 15.8131 94.5396C16.2323 94.5051 16.6515 94.4695 17.0706 94.4335C17.3041 94.4138 17.5375 94.3942 17.778 94.3739C18.4631 94.3116 18.4631 94.3116 19.0592 94.1703C19.8868 94.0191 20.6843 94.0135 21.5251 94.0093C21.8404 94.0059 22.1557 94.0024 22.4806 93.9989C23.6787 94.0779 23.6787 94.0779 24.2978 94.5396C24.7419 95.2107 24.8651 95.7867 24.8886 96.585C24.9032 96.8545 24.9032 96.8545 24.918 97.1295C24.7115 97.9859 24.3027 98.4527 23.5705 98.9031C22.6318 99.2189 21.6794 99.4037 20.7069 99.5849C20.4465 99.6373 20.186 99.6896 19.9176 99.7435C19.2774 99.8716 18.6367 99.9953 17.9949 100.115C19.0146 103.44 20.868 106.201 23.0857 108.842C23.2487 109.037 23.2487 109.037 23.415 109.235C29.0728 115.881 37.0075 119.792 45.2245 122.309C48.968 123.463 48.968 123.463 49.7517 124.842C49.9053 126.07 49.7581 126.763 49.0245 127.751C48.4364 128.075 48.4364 128.075 47.7366 128.327C43.2939 130.064 39.5139 132.612 36.0598 135.901C35.5657 136.368 35.0642 136.813 34.5494 137.255C31.7188 139.721 28.9723 142.437 26.7219 145.448C26.5045 145.731 26.287 146.014 26.0695 146.297C23.3618 149.863 20.2163 154.318 20.6615 159.023C20.9364 160.579 21.7593 161.483 22.954 162.475C25.496 164.236 28.6197 164.479 31.6025 163.957C33.4183 163.588 35.1387 163.036 36.8429 162.311C37.0018 162.244 37.1607 162.177 37.3243 162.108C38.457 161.596 39.4904 160.982 40.0018 159.796C40.1598 159.277 40.289 158.757 40.4101 158.228C40.4824 157.936 40.4824 157.936 40.5561 157.638C40.6583 157.223 40.7585 156.808 40.857 156.393C41.0103 155.747 41.1687 155.102 41.3287 154.458C41.5384 153.613 41.7466 152.769 41.9537 151.924C42.2991 150.522 42.6653 149.126 43.0549 147.735C43.1327 147.445 43.1327 147.445 43.212 147.148C43.5941 145.8 44.1075 144.672 45.2367 143.781C46.0189 143.446 46.4832 143.388 47.3275 143.508C48.0633 143.904 48.6084 144.249 49.1154 144.917C49.6029 146.624 49.031 148.282 48.5927 149.939C48.4479 150.502 48.3032 151.065 48.1585 151.627C48.0822 151.922 48.0059 152.216 47.9272 152.519C44.5672 165.516 42.2986 178.601 41.2671 191.992C41.2526 192.176 41.2382 192.361 41.2233 192.551C40.8972 196.755 40.7326 200.958 40.6973 205.175C40.6934 205.613 40.688 206.051 40.6811 206.49C40.5634 209.991 40.5634 209.991 42.1207 213.024C44.8334 215.762 49.5199 216.007 53.1433 216.038C59.3413 216.102 59.3413 216.102 64.6264 213.328C67.0593 210.344 67.2991 205.898 67.6388 202.209C67.7828 200.833 67.9316 199.837 68.9028 198.78C70.1039 197.938 71.0975 197.989 72.4936 198.113C72.6769 198.126 72.8602 198.139 73.049 198.152C73.7676 198.205 74.4837 198.267 75.1994 198.351C79.8761 198.896 84.6068 198.837 89.3088 198.84C89.6662 198.84 90.0237 198.841 90.3811 198.841C95.9075 198.85 101.387 198.71 106.887 198.119C108.409 197.993 109.536 197.909 110.841 198.78C112.28 200.539 112.394 202.542 112.629 204.719C113.22 209.758 113.22 209.758 115.826 213.991C119.554 216.809 126.155 216.339 130.522 215.78C133.321 215.369 136.214 214.828 138.174 212.613C139.368 210.987 139.491 209.308 139.481 207.334C139.48 207.147 139.48 206.961 139.479 206.768C139.455 203.971 139.296 201.178 139.144 198.386C139.128 198.088 139.111 197.789 139.095 197.482C138.362 184.138 136.674 170.875 133.423 157.898C133.382 157.734 133.341 157.57 133.299 157.401C132.885 155.751 132.466 154.103 132.038 152.457C131.916 151.99 131.796 151.522 131.676 151.054C131.527 150.478 131.377 149.903 131.224 149.328C130.862 147.916 130.592 146.664 130.72 145.205C131.245 144.341 131.729 143.884 132.659 143.508C133.188 143.471 133.188 143.471 133.735 143.523C133.914 143.536 134.094 143.549 134.279 143.562C135.114 143.842 135.483 144.293 136.053 144.963C136.35 145.61 136.531 146.274 136.712 146.962C136.766 147.156 136.82 147.35 136.876 147.549C137.05 148.176 137.218 148.804 137.386 149.432C137.505 149.863 137.623 150.293 137.742 150.723C138.421 153.198 139.07 155.679 139.53 158.206C139.792 159.534 140.159 160.257 141.144 161.205C144.842 163.568 149.325 164.711 153.658 163.841C155.954 163.247 157.552 162.319 158.826 160.295C159.738 158.36 159.327 156.523 158.692 154.578C156.82 149.644 153.642 145.671 150.113 141.811C149.906 141.579 149.699 141.346 149.485 141.107C147.93 139.369 146.289 137.774 144.537 136.236C144.416 136.127 144.294 136.019 144.169 135.907C140.655 132.79 136.878 129.957 132.386 128.448C131.62 128.178 131.192 127.983 130.553 127.463C130.113 126.521 129.955 125.614 130.235 124.6C131.079 123.542 131.824 123.18 133.114 122.827C133.461 122.726 133.808 122.624 134.154 122.522C134.342 122.467 134.529 122.412 134.723 122.356C142.468 120.035 149.03 116.534 154.961 111.024C155.126 110.876 155.29 110.727 155.46 110.574C158.385 107.82 160.819 103.943 161.992 100.115C161.822 100.085 161.652 100.054 161.477 100.023C160.703 99.882 159.931 99.7335 159.158 99.5849C158.891 99.5373 158.624 99.4896 158.348 99.4405C155.809 98.9419 155.809 98.9419 154.961 97.691C154.755 96.9431 154.809 96.2675 154.961 95.5093C155.396 94.8134 155.685 94.4205 156.416 94.0547C158.974 93.8388 161.429 94.3102 163.931 94.782C164.435 93.4915 164.856 92.2172 165.189 90.873C165.232 90.7089 165.274 90.5449 165.319 90.3759C165.563 89.3996 165.673 88.5147 165.628 87.5094C165.387 87.5269 165.147 87.5444 164.899 87.5625C163.234 87.6787 161.569 87.7768 159.901 87.8125C159.638 87.8187 159.375 87.825 159.103 87.8314C158.22 87.7375 157.653 87.4911 156.901 87.0246C156.356 86.1115 156.174 85.5121 156.174 84.4489C156.47 83.4493 156.809 83.0559 157.628 82.4186C158.698 81.9885 159.668 81.849 160.816 81.7804C160.975 81.7703 161.134 81.7602 161.298 81.7499C161.802 81.7184 162.306 81.6897 162.81 81.6611C163.154 81.6401 163.497 81.619 163.841 81.5976C164.679 81.546 165.517 81.4968 166.355 81.449C166.443 77.3426 166.384 73.3721 165.628 69.328C165.589 69.1166 165.55 68.9051 165.51 68.6873C164.546 63.6499 162.955 58.6666 160.717 54.049C159.569 51.5735 160.124 49.2189 160.529 46.6055C161.63 39.3976 162.054 32.1773 162.067 24.8896C162.068 24.6503 162.069 24.411 162.07 24.1644C162.078 19.9542 161.981 15.6594 160.946 11.5566C160.901 11.353 160.855 11.1494 160.808 10.9397C160.407 9.28303 159.811 7.75465 158.355 6.78397C157.017 6.69669 155.868 6.84559 154.583 7.2385C154.408 7.2913 154.234 7.34409 154.054 7.39848C144.209 10.5227 134.684 16.5955 126.311 22.5278C124.69 23.6477 123.231 24.1693 121.265 23.9957C120.519 23.7457 120.519 23.7457 119.75 23.3897C115.094 21.3804 109.992 20.3074 105.023 19.3897C104.829 19.3526 104.635 19.3155 104.435 19.2773C89.9316 16.5408 74.1655 18.1796 60.3837 23.3434C58.7794 23.94 57.4783 24.3278 55.8274 23.6624C53.4789 22.5321 51.3133 20.9854 49.1305 19.5716C45.4776 17.2109 41.753 14.9566 37.9247 12.8916C37.5587 12.6939 37.1932 12.4952 36.8284 12.2954C29.1399 7.72612 29.1399 7.72612 20.9039 7.13245Z" fill="black"/>
<path d="M89.7811 138.296C90.0651 138.298 90.3491 138.299 90.6416 138.301C96.0981 138.415 100.508 140.355 104.296 144.236C104.49 144.427 104.684 144.619 104.884 144.817C110.66 150.822 112.432 159.927 112.398 167.968C112.302 172.551 111.009 176.361 107.69 179.629C107.535 179.783 107.38 179.937 107.221 180.096C101.636 185.322 93.6092 185.245 86.4527 185.013C81.6738 184.813 77.0949 183.523 73.2663 180.598C73.0848 180.461 72.9032 180.324 72.7162 180.183C69.5692 177.625 67.9313 173.667 67.4889 169.708C67.3583 168.091 67.417 166.461 67.4483 164.841C67.4523 164.581 67.4564 164.321 67.4606 164.053C67.7944 156.881 70.5662 149.904 75.2057 144.478C75.3497 144.309 75.4938 144.14 75.6422 143.966C79.2668 140.053 84.555 138.266 89.7811 138.296Z" fill="#F2D3A3"/>
<path d="M106.337 139.064C106.543 139.25 106.75 139.437 106.963 139.629C107.167 139.813 107.371 139.997 107.581 140.187C111.385 143.802 113.805 148.515 115.447 153.447C115.536 153.706 115.625 153.965 115.717 154.231C117.706 160.529 118.284 167.859 116.659 174.295C116.62 174.453 116.581 174.611 116.541 174.773C115.283 179.618 111.987 183.657 107.712 186.207C102.194 189.295 96.3695 190.109 90.1447 190.113C89.8378 190.113 89.8378 190.113 89.5247 190.113C86.4022 190.11 83.3541 190.02 80.2964 189.325C80.1174 189.285 79.9383 189.245 79.7538 189.203C74.0854 187.863 68.6619 184.719 65.5341 179.714C61.6471 173.246 61.6905 164.397 63.4151 157.214C63.4661 157.011 63.517 156.808 63.5695 156.599C63.6202 156.393 63.6709 156.187 63.7231 155.975C65.1613 150.316 67.6976 145.223 71.5694 140.841C71.7916 140.589 71.7916 140.589 72.0182 140.331C80.7669 131.005 96.8453 130.907 106.337 139.064ZM74.3354 145.446C69.9916 150.86 67.7022 157.945 67.4482 164.841C67.4416 165.006 67.435 165.17 67.4282 165.34C67.2622 170.027 67.9579 174.326 70.8421 178.174C70.993 178.389 70.993 178.389 71.147 178.609C74.2966 182.729 79.9488 184.177 84.8155 184.893C86.5234 185.098 88.2456 185.069 89.9629 185.052C90.2653 185.051 90.2653 185.051 90.5738 185.049C97.217 185.009 103.27 184.04 108.175 179.144C108.41 178.912 108.41 178.912 108.651 178.676C112.157 174.977 112.486 170.127 112.372 165.306C112.074 157.481 109.576 149.679 104.053 143.993C103.915 143.839 103.776 143.685 103.633 143.527C100.596 140.258 95.9631 138.525 91.5765 138.323C84.5443 138.144 79.0564 140.067 74.3354 145.446Z" fill="black"/>
<path d="M144.492 80.5247C147.086 82.2996 148.661 84.7042 149.386 87.7518C149.791 91.544 148.979 94.4266 146.602 97.4163C144.665 99.5734 141.927 100.701 139.092 100.902C135.65 101.017 132.844 100.026 130.236 97.7544C127.964 95.3915 127.008 92.4398 127.047 89.2271C127.197 86.1189 128.415 83.5544 130.72 81.4489C134.949 78.2739 139.88 77.797 144.492 80.5247Z" fill="#F4A99C"/>
<path d="M47.0851 79.9944C47.272 80.0875 47.4589 80.1806 47.6514 80.2766C50.0658 81.6364 51.8116 84.2368 52.6305 86.8427C53.3278 89.8075 53.0413 92.7794 51.5595 95.4581C49.9622 97.8778 47.6793 99.6997 44.9034 100.6C41.8062 101.204 38.7165 101.045 35.9405 99.4618C33.4117 97.7434 31.5031 95.3809 30.8431 92.3578C30.529 88.2035 31.0216 85.381 33.7066 82.1288C37.1674 78.3364 42.6482 77.7821 47.0851 79.9944Z" fill="#F4A99C"/>
<path d="M28.2967 15.154C29.9045 15.3708 31.3328 16.0285 32.7824 16.7231C32.9322 16.7944 33.082 16.8658 33.2363 16.9393C37.1455 18.8383 40.5854 21.485 43.9966 24.1508C44.3668 24.4401 44.7395 24.7261 45.1127 25.0117C45.798 25.5918 46.0918 25.9905 46.2054 26.8886C46.0927 27.82 45.8725 28.0212 45.161 28.6167C44.94 28.803 44.7191 28.9892 44.4915 29.1811C43.3953 30.0575 42.2752 30.9036 41.1548 31.7486C39.704 32.8472 38.3223 34.0094 36.9509 35.2047C36.2622 35.8044 35.5561 36.3792 34.843 36.9499C33.7849 37.807 32.7891 38.7148 31.7976 39.6468C29.7583 41.5513 29.7583 41.5513 28.7825 42.3892C28.605 42.5435 28.4275 42.6979 28.2447 42.857C27.6916 43.1467 27.6916 43.1467 26.9294 43.1211C26.2371 42.9043 26.2371 42.9043 25.7068 42.1316C23.8968 37.8806 23.9723 32.7031 23.9922 28.17C23.9948 27.4633 23.9922 26.7567 23.9891 26.05C23.9826 17.9863 23.9826 17.9863 25.8252 15.5848C26.5779 15.0069 27.3815 15.1286 28.2967 15.154Z" fill="#F4A99C"/>
<path d="M153.507 15.2688C155.305 16.6924 155.542 19.2293 155.794 21.386C156.414 27.9405 156.815 36.5965 153.992 42.6621C153.228 43.0442 152.625 43.1284 151.81 42.9045C151.057 42.3787 150.42 41.7456 149.768 41.0995C149.012 40.3547 148.235 39.6313 147.462 38.9046C147.294 38.7466 147.126 38.5886 146.954 38.4257C145.63 37.185 144.262 36.0318 142.841 34.9047C142.411 34.5517 141.982 34.1982 141.553 33.8441C140.537 33.0128 139.51 32.1985 138.477 31.3896C138.191 31.1639 137.904 30.9383 137.618 30.7126C137.077 30.2863 136.531 29.8673 135.98 29.4531C135.619 29.1742 135.619 29.1742 135.25 28.8897C135.036 28.7281 134.822 28.5666 134.601 28.4001C133.987 27.7378 133.894 27.3157 133.871 26.42C135.015 24.6701 136.809 23.5175 138.477 22.2989C138.633 22.1835 138.789 22.068 138.95 21.949C149.421 14.2294 149.421 14.2294 153.507 15.2688Z" fill="#F4A99C"/>
<path d="M90.0538 76.7675C90.2929 76.7604 90.5319 76.7534 90.7782 76.7462C92.4589 76.7318 93.8423 76.9961 95.3264 77.8129C96.1773 78.6638 96.4965 79.3236 96.6143 80.525C96.4657 82.337 95.5769 83.5004 94.2961 84.737C93.8719 85.0855 93.8719 85.0855 93.1598 85.4036C92.6143 85.7614 92.6143 85.7614 92.5604 86.3174C92.4883 88.3563 93.0329 90.2989 94.3567 91.8732C95.9395 93.1422 97.5229 93.6485 99.5384 93.555C102.03 93.2453 103.494 92.1039 105.069 90.2028C105.664 89.5097 105.874 89.4602 106.796 89.3732C107.829 89.4608 108.179 89.6962 108.902 90.4187C109.323 91.2607 109.256 92.1646 109.144 93.0853C107.891 95.4992 105.433 97.3012 102.929 98.2424C100.159 99.0954 96.9791 99.0042 94.335 97.8276C92.7905 96.9984 91.4531 96.0439 90.2356 94.7822C89.5344 95.1027 89.151 95.3745 88.569 95.9186C85.8507 98.3177 82.6626 98.8853 79.1594 98.7148C75.856 98.397 73.5435 96.4418 71.4557 94.0351C70.7765 93.1843 70.7481 92.5151 70.755 91.4518C70.8932 90.5823 71.376 90.2082 72.0542 89.6914C72.7579 89.3396 73.2112 89.3587 73.9936 89.449C74.8733 90.0538 75.4834 90.6949 76.145 91.5247C77.2266 92.7851 78.1287 93.2528 79.7974 93.4281C81.8314 93.5286 83.7548 93.4828 85.3872 92.1156C86.7717 90.5106 87.5009 88.8226 87.4667 86.6962C87.2961 85.9156 87.0917 85.7231 86.4478 85.2673C86.2716 85.1588 86.0953 85.0504 85.9137 84.9387C84.7741 84.2069 83.7575 83.0229 83.4479 81.6916C83.3167 80.4737 83.3123 79.5542 83.8418 78.4341C85.5018 76.643 87.783 76.7894 90.0538 76.7675Z" fill="black"/>
<path d="M125.407 66.4153C126.001 66.704 126.538 67.0183 127.083 67.3888C127.413 67.5913 127.413 67.5913 127.75 67.7979C129.432 69.5263 130.066 71.3455 130.069 73.7149C130.024 75.9383 129.274 77.5001 127.76 79.1007C126.023 80.736 124.24 81.1081 121.915 81.0713C120.114 80.8553 118.507 80.0354 117.265 78.7067C117.053 78.4157 116.851 78.1175 116.659 77.8128C116.56 77.6678 116.461 77.5228 116.358 77.3734C115.249 75.4155 115.329 72.6447 115.887 70.5147C116.692 68.7118 118.144 67.3852 119.884 66.4939C121.606 65.8846 123.659 65.8577 125.407 66.4153Z" fill="black"/>
<path d="M60.312 66.6766C62.0692 67.7279 63.3477 69.0872 64.0544 71.0249C64.6184 73.3416 64.4953 75.7093 63.3271 77.8127C62.1176 79.4188 60.7064 80.5433 58.7212 80.9641C56.4798 81.2324 54.7908 81.0035 52.9031 79.752C52.6431 79.587 52.3831 79.422 52.1153 79.252C50.6105 77.8505 49.9314 76.0055 49.8329 73.9908C49.811 71.7157 50.1295 70.0125 51.7128 68.293C54.0364 66.0885 57.3112 65.282 60.312 66.6766Z" fill="black"/>
<path d="M58.7395 48.1401C58.8315 48.1523 58.9235 48.1646 59.0183 48.1772C62.1552 48.6004 66.4974 49.214 68.6324 51.8612C69.033 52.4555 69.2367 52.8413 69.1243 53.5745C68.9837 54.0333 68.6866 54.3826 68.3233 54.6895C67.7509 54.9472 67.2326 54.8551 66.6422 54.6907C66.1398 54.4557 65.6706 54.1707 65.1959 53.8848C63.3972 52.8176 61.6898 52.2751 59.6217 51.9744C59.3934 51.9409 59.3934 51.9409 59.1604 51.9068C57.7967 51.7234 56.4419 51.6616 55.0796 51.8841C54.9928 51.8974 54.9059 51.9108 54.8165 51.9245C54.1511 52.0315 53.503 52.1839 52.8546 52.369C52.2397 52.5302 51.6111 52.5769 51.0294 52.2695C50.6862 52.0284 50.5017 51.8251 50.3008 51.4526C50.1898 50.7811 50.2406 50.1498 50.5716 49.5475C51.2474 48.9727 52.0378 48.7344 52.8844 48.533C52.9913 48.5072 53.0981 48.4815 53.2082 48.4549C55.0203 48.0417 56.8951 47.8894 58.7395 48.1401Z" fill="black"/>
<path d="M128.392 56.6959C128.511 56.7594 128.511 56.7594 128.632 56.8241C129.248 57.1856 129.743 57.6547 129.98 58.3879C130.04 59.1213 129.978 59.6162 129.625 60.27C129.132 60.7794 128.705 61.011 128.016 60.9996C127.342 60.9004 126.7 60.6041 126.062 60.3559C124.311 59.6761 122.748 59.3876 120.888 59.3937C120.756 59.3938 120.756 59.3938 120.623 59.3939C118.349 59.4027 116.058 59.6253 113.935 60.5665C113.285 60.8433 112.737 60.8599 112.056 60.6824C111.457 60.3143 111.247 59.8763 111.044 59.1703C110.96 58.5258 110.98 58.0739 111.25 57.4864C112.358 56.0911 113.749 55.812 115.38 55.5436C115.633 55.502 115.885 55.4579 116.137 55.4134C120.108 54.7365 124.705 54.7172 128.392 56.6959Z" fill="black"/>
<path d="M179.541 46.578C183.889 46.9986 188.035 48.4972 191.199 51.5633L191.503 51.8657L191.535 51.8984C194.434 55.0027 195.581 58.8294 195.211 62.7122L195.21 62.7248C194.693 67.7882 191.54 71.2275 187.709 73.955L187.706 73.9567C187.584 74.0431 187.461 74.1288 187.339 74.2151L187.34 74.2162C187.278 74.2603 187.215 74.3038 187.151 74.3493L187.151 74.3503C186.832 74.5757 186.512 74.8013 186.19 75.0259C184.981 75.8754 184.272 76.6181 183.802 77.3882C183.329 78.1632 183.015 79.101 182.791 80.4683L182.789 80.4789L182.787 80.4885C182.77 80.5816 182.754 80.6752 182.738 80.7711C182.725 80.8469 182.712 80.9228 182.7 81.0009L182.676 81.1467L182.632 81.2875C182.417 81.9571 182.089 82.4018 181.643 82.8122L181.379 83.0546L181.047 83.1909C180.164 83.5527 179.456 83.5802 178.683 83.5043L178.684 83.5054C178.576 83.4952 178.575 83.4956 178.464 83.4852L178.461 83.4849C178.216 83.4614 177.972 83.4355 177.737 83.4109C177.573 83.3946 177.409 83.3785 177.245 83.3623L177.244 83.3622C176.893 83.3273 176.542 83.2918 176.193 83.2553C175.756 83.2097 175.317 83.1664 174.875 83.1235L173.355 82.9703C173.117 82.947 172.88 82.922 172.649 82.8972C172.523 82.8842 172.396 82.8718 172.265 82.8585L172.166 82.8474L172.066 82.8276C171.054 82.6196 170.475 82.1248 170.052 81.7353L169.787 81.4907L169.623 81.1689C169.047 80.0358 169.297 78.9055 169.332 78.623C169.343 78.5232 169.354 78.4231 169.366 78.3202L169.367 78.3096L169.369 78.2999C169.675 75.8512 170.391 73.7588 171.629 71.8888C172.856 70.035 174.526 68.5042 176.589 67.0777L176.602 67.0692L176.615 67.0597C176.946 66.8386 177.282 66.6338 177.575 66.4547C178.56 65.8389 179.467 65.1544 180.266 64.4037L180.278 64.3911L180.291 64.3797C180.367 64.3107 180.442 64.241 180.52 64.1702C181.612 63.143 182.037 62.1898 182.066 60.8818C181.992 60.3064 181.678 59.6833 181.123 59.1889C180.378 58.6737 179.566 58.3578 178.575 58.2087L178.565 58.2077C178.486 58.1954 178.407 58.1824 178.326 58.1698C176.93 57.9927 175.829 58.1376 174.957 58.6362C174.059 59.2596 173.363 60.0637 172.587 61.1013L172.581 61.1096C172.529 61.1786 172.476 61.2473 172.422 61.3184C172.378 61.3798 172.371 61.3891 172.313 61.4683L172.237 61.5745L172.147 61.6694C171.493 62.3572 170.764 62.5871 170.16 62.703L169.959 62.7416L169.753 62.7385C168.675 62.7222 167.66 62.2519 167.003 61.9116C166.64 61.7242 166.292 61.523 166.002 61.3564C165.693 61.1784 165.467 61.0486 165.278 60.9526L165.278 60.9516C164.997 60.8091 164.715 60.6677 164.432 60.5249L164.431 60.5237C164.249 60.432 164.068 60.3398 163.887 60.2481L163.887 60.249C163.803 60.2067 163.719 60.164 163.633 60.1204L163.629 60.119C163.03 59.8146 162.559 59.5787 162.229 59.3606C161.734 59.0328 161.483 58.7039 161.302 58.4731L161.05 58.1512L160.944 57.7568C160.564 56.3446 161.042 55.2516 161.582 54.4467L161.581 54.4466C161.64 54.3568 161.641 54.3567 161.701 54.2653L161.71 54.2505C162.853 52.5435 164.213 51.1494 165.876 49.8934C165.964 49.8257 166.052 49.7583 166.142 49.6885L166.156 49.6782L166.168 49.6686C168.552 47.8901 171.315 46.9175 174.262 46.518L174.261 46.519C174.342 46.5074 174.425 46.4949 174.508 46.4831L174.519 46.4812L174.53 46.4803C176.218 46.2582 177.849 46.4152 179.261 46.5527C179.351 46.5613 179.443 46.5687 179.536 46.5775L179.541 46.578Z" fill="#FFF288" stroke="black" stroke-width="4"/>
<path d="M170.073 84.499C172.972 82.8518 177.148 82.733 180.043 85.1084L180.32 85.3463L180.366 85.3903C180.467 85.4872 180.468 85.4876 180.57 85.5865L180.766 85.7722L180.787 85.7919L180.807 85.8126C182.414 87.4285 183.014 89.4676 182.911 91.4543L182.906 91.5392L182.894 91.6244C182.625 93.5735 181.584 95.3126 179.938 96.5206L179.894 96.5525L179.849 96.5823C177.603 98.0503 175.43 98.1887 173.086 97.8823L173.057 97.8784L173.028 97.8735C170.911 97.5334 169.352 96.2846 168.27 95.0816L168.231 95.0374L168.194 94.9914C166.827 93.2786 166.422 91.2467 166.716 89.3107L166.726 89.2508L166.738 89.1912C167.151 87.2632 168.306 85.6802 169.946 84.5785L170.008 84.5367L170.073 84.499Z" fill="#FFF288" stroke="black" stroke-width="4"/>
<path d="M55.6427 7.00417C57.263 6.95162 58.7971 7.39354 60.0422 8.44964C60.0743 8.47685 60.0743 8.47685 60.107 8.5046C61.1079 9.36417 61.7296 10.5332 62.0377 11.8047C62.0494 11.8529 62.0494 11.8529 62.0614 11.902C62.1827 12.4339 62.217 12.9521 62.2105 13.4947C62.21 13.5537 62.2097 13.6127 62.2094 13.6718C62.2085 13.8139 62.2071 13.956 62.2054 14.0981C62.253 14.0797 62.3005 14.0613 62.3494 14.0424C63.1359 13.7424 63.8934 13.5606 64.7417 13.5673C64.7926 13.5676 64.8434 13.5679 64.8957 13.5682C65.8228 13.5788 66.6216 13.7719 67.4533 14.1782C67.4999 14.2009 67.5466 14.2237 67.5946 14.2471C68.7328 14.832 69.7242 15.7959 70.2976 16.9424C70.3109 16.9688 70.3243 16.9953 70.338 17.0225C70.9641 18.2844 71.1657 19.7709 70.8584 21.1487C70.8513 21.1805 70.8442 21.2122 70.8369 21.245C70.568 22.4128 70.0176 23.4594 69.1759 24.3134C69.1457 24.3441 69.1155 24.3749 69.0843 24.4065C68.3017 25.1543 67.0993 25.8216 66.0111 25.9158C66.0562 25.9727 66.0562 25.9727 66.1022 26.0307C66.8355 26.9711 67.332 28.0929 67.4934 29.2809C67.4978 29.3131 67.5023 29.3454 67.5068 29.3787C67.6356 30.5186 67.439 31.6813 66.9726 32.726C66.9526 32.7715 66.9325 32.817 66.9119 32.8639C66.6313 33.4624 66.2307 33.9777 65.7708 34.4486C65.7354 34.487 65.7354 34.487 65.6993 34.5262C64.9415 35.3306 63.8625 35.7977 62.8063 36.051C62.7626 36.0617 62.7626 36.0617 62.718 36.0726C62.312 36.1681 61.9119 36.1798 61.4964 36.1808C61.4055 36.1812 61.3147 36.1824 61.2238 36.1837C60.6708 36.1877 60.1387 36.1094 59.6091 35.9459C59.5596 35.9307 59.5596 35.9307 59.5092 35.9152C58.7203 35.6635 57.9843 35.273 57.3582 34.729C57.325 34.7002 57.2918 34.6714 57.2576 34.6417C57.1562 34.552 57.0566 34.4607 56.9576 34.3685C56.9279 34.3415 56.8983 34.3145 56.8678 34.2866C56.5226 33.9593 56.2569 33.5624 55.9961 33.1667C55.9743 33.2025 55.9525 33.2384 55.9299 33.2753C55.7367 33.5871 55.5325 33.8646 55.2751 34.1281C55.242 34.162 55.209 34.1959 55.1749 34.2308C55.1419 34.263 55.1088 34.2952 55.0748 34.3284C55.0504 34.3541 55.026 34.3799 55.0009 34.4064C53.9247 35.5254 52.3744 36.1562 50.8331 36.1868C50.2635 36.1943 49.7018 36.1872 49.1459 36.051C49.0966 36.0399 49.0472 36.0287 48.9964 36.0172C47.9273 35.7559 47.0834 35.2528 46.2615 34.5287C46.2332 34.5038 46.2048 34.4789 46.1756 34.4533C45.151 33.4912 44.482 31.951 44.4123 30.5535C44.3901 28.7971 44.7756 27.2693 45.9411 25.9158C45.8898 25.9142 45.8386 25.9125 45.7858 25.9108C44.7874 25.8069 43.8028 25.1927 43.0567 24.5538C43.0205 24.5229 42.9843 24.4921 42.947 24.4604C42.6866 24.2316 42.4648 23.9886 42.2555 23.7125C42.2393 23.6912 42.223 23.67 42.2063 23.648C41.4837 22.6965 41.0208 21.5067 41.0027 20.3027C41.0022 20.272 41.0017 20.2413 41.0012 20.2097C40.9884 19.2349 41.0738 18.3314 41.4543 17.4231C41.4656 17.3957 41.4769 17.3683 41.4886 17.34C41.776 16.6541 42.1954 16.0475 42.6962 15.5002C42.7297 15.4634 42.7632 15.4266 42.7978 15.3886C43.2769 14.8863 43.8413 14.4911 44.4588 14.1782C44.4841 14.1653 44.5094 14.1524 44.5355 14.1391C46.0575 13.3728 47.7093 13.4289 49.2989 13.9481C49.4361 13.995 49.5714 14.0462 49.7067 14.0981C49.7058 14.058 49.7058 14.058 49.7048 14.0171C49.6666 12.1328 50.1346 10.2953 51.4635 8.90056C51.5187 8.84357 51.5742 8.7868 51.6296 8.73006C51.6536 8.70357 51.6776 8.67708 51.7024 8.64978C52.0869 8.23439 52.6149 7.94743 53.1118 7.6885C53.1364 7.67564 53.1611 7.66278 53.1864 7.64953C53.9476 7.25852 54.7881 7.03657 55.6427 7.00417Z" fill="#F4A99C"/>
<path d="M55.6427 7.00417C57.263 6.95162 58.7971 7.39354 60.0422 8.44964C60.0743 8.47685 60.0743 8.47685 60.107 8.5046C61.1079 9.36417 61.7296 10.5332 62.0377 11.8047C62.0494 11.8529 62.0494 11.8529 62.0614 11.902C62.1827 12.4339 62.217 12.9521 62.2105 13.4947C62.21 13.5537 62.2097 13.6127 62.2094 13.6718C62.2085 13.8139 62.2071 13.956 62.2054 14.0981C62.253 14.0797 62.3005 14.0613 62.3494 14.0424C63.1359 13.7424 63.8934 13.5606 64.7417 13.5673C64.7926 13.5676 64.8434 13.5679 64.8957 13.5682C65.8228 13.5788 66.6216 13.7719 67.4533 14.1782C67.4999 14.2009 67.5466 14.2237 67.5946 14.2471C68.7328 14.832 69.7242 15.7959 70.2976 16.9424C70.3109 16.9688 70.3243 16.9953 70.338 17.0225C70.9641 18.2844 71.1657 19.7709 70.8584 21.1487C70.8513 21.1805 70.8442 21.2122 70.8369 21.245C70.568 22.4128 70.0176 23.4594 69.1759 24.3134C69.1457 24.3441 69.1155 24.3749 69.0843 24.4065C68.3017 25.1543 67.0993 25.8216 66.0111 25.9158C66.0562 25.9727 66.0562 25.9727 66.1022 26.0307C66.8355 26.9711 67.332 28.0929 67.4934 29.2809C67.4978 29.3131 67.5023 29.3454 67.5068 29.3787C67.6356 30.5186 67.439 31.6813 66.9726 32.726C66.9526 32.7715 66.9325 32.817 66.9119 32.8639C66.6313 33.4624 66.2307 33.9777 65.7708 34.4486C65.7354 34.487 65.7354 34.487 65.6993 34.5262C64.9415 35.3306 63.8625 35.7977 62.8063 36.051C62.7626 36.0617 62.7626 36.0617 62.718 36.0726C62.312 36.1681 61.9119 36.1798 61.4964 36.1808C61.4055 36.1812 61.3147 36.1824 61.2238 36.1837C60.6708 36.1877 60.1387 36.1094 59.6091 35.9459C59.5596 35.9307 59.5596 35.9307 59.5092 35.9152C58.7203 35.6635 57.9843 35.273 57.3582 34.729C57.325 34.7002 57.2918 34.6714 57.2576 34.6417C57.1562 34.552 57.0566 34.4607 56.9576 34.3685C56.9279 34.3415 56.8983 34.3145 56.8678 34.2866C56.5226 33.9593 56.2569 33.5624 55.9961 33.1667C55.9743 33.2025 55.9525 33.2384 55.9299 33.2753C55.7367 33.5871 55.5325 33.8646 55.2751 34.1281C55.242 34.162 55.209 34.1959 55.1749 34.2308C55.1419 34.263 55.1088 34.2952 55.0748 34.3284C55.0504 34.3541 55.026 34.3799 55.0009 34.4064C53.9247 35.5254 52.3744 36.1562 50.8331 36.1868C50.2635 36.1943 49.7018 36.1872 49.1459 36.051C49.0966 36.0399 49.0472 36.0287 48.9964 36.0172C47.9273 35.7559 47.0834 35.2528 46.2615 34.5287C46.2332 34.5038 46.2048 34.4789 46.1756 34.4533C45.151 33.4912 44.482 31.951 44.4123 30.5535C44.3901 28.7971 44.7756 27.2693 45.9411 25.9158C45.8898 25.9142 45.8386 25.9125 45.7858 25.9108C44.7874 25.8069 43.8028 25.1927 43.0567 24.5538C43.0205 24.5229 42.9843 24.4921 42.947 24.4604C42.6866 24.2316 42.4648 23.9886 42.2555 23.7125C42.2393 23.6912 42.223 23.67 42.2063 23.648C41.4837 22.6965 41.0208 21.5067 41.0027 20.3027C41.0022 20.272 41.0017 20.2413 41.0012 20.2097C40.9884 19.2349 41.0738 18.3314 41.4543 17.4231C41.4656 17.3957 41.4769 17.3683 41.4886 17.34C41.776 16.6541 42.1954 16.0475 42.6962 15.5002C42.7297 15.4634 42.7632 15.4266 42.7978 15.3886C43.2769 14.8863 43.8413 14.4911 44.4588 14.1782C44.4841 14.1653 44.5094 14.1524 44.5355 14.1391C46.0575 13.3728 47.7093 13.4289 49.2989 13.9481C49.4361 13.995 49.5714 14.0462 49.7067 14.0981C49.7058 14.058 49.7058 14.058 49.7048 14.0171C49.6666 12.1328 50.1346 10.2953 51.4635 8.90056C51.5187 8.84357 51.5742 8.7868 51.6296 8.73006C51.6536 8.70357 51.6776 8.67708 51.7024 8.64978C52.0869 8.23439 52.6149 7.94743 53.1118 7.6885C53.1364 7.67564 53.1611 7.66278 53.1864 7.64953C53.9476 7.25852 54.7881 7.03657 55.6427 7.00417ZM52.7112 9.65144C52.6615 9.69621 52.6615 9.69621 52.6108 9.74189C51.7251 10.5831 51.1548 11.8593 51.1045 13.0816C51.0833 14.0592 51.2235 14.9528 51.648 15.8415C51.7428 16.0481 51.7848 16.2338 51.7498 16.4616C51.655 16.5986 51.5484 16.6576 51.3892 16.702C51.1755 16.7302 51.0544 16.6911 50.8821 16.574C50.7663 16.4847 50.656 16.3895 50.5455 16.2939C49.3718 15.2811 47.9303 14.8478 46.3902 14.9494C45.2157 15.079 44.2135 15.7735 43.4706 16.6618C42.7621 17.5531 42.3553 18.6618 42.3657 19.8017C42.3662 19.8676 42.3662 19.8676 42.3666 19.9348C42.3846 21.2889 42.9159 22.4668 43.8504 23.4371C44.6724 24.2375 45.7174 24.6949 46.8655 24.6865C46.8951 24.6861 46.9247 24.6856 46.9552 24.6852C47.0453 24.684 47.1353 24.6836 47.2254 24.6833C47.5488 24.6816 47.8679 24.6684 48.1901 24.6379C48.3589 24.632 48.4447 24.6605 48.585 24.7541C48.7115 24.8928 48.7336 25.0387 48.7266 25.2215C48.6418 25.5914 48.1643 25.8484 47.8715 26.046C46.8984 26.721 46.2136 27.7748 45.9085 28.9103C45.9002 28.9411 45.8919 28.9718 45.8834 29.0035C45.5972 30.1309 45.7626 31.4715 46.3456 32.4818C46.5519 32.82 46.7864 33.1226 47.0627 33.407C47.0876 33.4344 47.1125 33.4618 47.1382 33.49C47.854 34.2537 49.0505 34.7596 50.0869 34.8169C50.7852 34.8322 51.4405 34.8359 52.1103 34.6088C52.1376 34.5998 52.1649 34.5909 52.193 34.5816C52.782 34.3819 53.3353 34.0687 53.7928 33.6474C53.8239 33.6189 53.8239 33.6189 53.8555 33.5898C54.741 32.7677 55.1833 31.757 55.4746 30.5992C55.5362 30.4235 55.6234 30.2847 55.7683 30.1672C55.9429 30.0941 56.0862 30.0976 56.264 30.1597C56.5126 30.3814 56.5693 30.7764 56.6496 31.0861C56.7593 31.4924 56.8904 31.8688 57.0778 32.2453C57.1067 32.3046 57.1067 32.3046 57.1361 32.3652C57.6782 33.4194 58.6396 34.2011 59.755 34.5818C61.0835 34.9959 62.4131 34.9341 63.6598 34.295C64.7521 33.7115 65.5646 32.7455 65.9459 31.5674C66.2362 30.608 66.2686 29.6419 65.9711 28.68C65.9621 28.6508 65.9531 28.6216 65.9438 28.5916C65.6371 27.6321 65.0163 26.7997 64.2485 26.1562C64.225 26.1346 64.2014 26.1131 64.1772 26.0909C64.0527 25.9773 63.9262 25.873 63.7873 25.7775C63.7623 25.7602 63.7373 25.7429 63.7115 25.7251C63.6616 25.6911 63.6114 25.6575 63.5609 25.6245C63.3993 25.5144 63.3139 25.4189 63.247 25.2348C63.2337 25.108 63.2496 24.996 63.2871 24.8743C63.3751 24.7659 63.4431 24.6961 63.5675 24.6339C63.6383 24.63 63.7093 24.6287 63.7803 24.6289C63.8182 24.6288 63.856 24.6287 63.895 24.6286C64.0081 24.6339 64.0081 24.6339 64.0992 24.6538C64.3227 24.6951 64.5526 24.6838 64.7793 24.684C64.8064 24.684 64.8334 24.684 64.8613 24.6841C66.2391 24.6819 67.3653 24.1597 68.3346 23.1917C69.1616 22.2929 69.6358 21.0791 69.6291 19.8592C69.6288 19.8156 69.6286 19.772 69.6284 19.727C69.6095 18.4619 69.0864 17.2905 68.2145 16.3815C68.1841 16.3486 68.1537 16.3157 68.1224 16.2818C67.3574 15.478 66.2839 14.9628 65.1696 14.9273C65.0879 14.9265 65.0062 14.9264 64.9245 14.9268C64.8592 14.9272 64.8592 14.9272 64.7926 14.9275C63.5356 14.9462 62.2625 15.4479 61.3642 16.341C61.341 16.3651 61.3179 16.3892 61.2941 16.4141C61.1301 16.5819 60.9807 16.6901 60.7408 16.7195C60.5855 16.6998 60.4921 16.6701 60.3627 16.5818C60.2453 16.419 60.2345 16.3068 60.2628 16.1108C60.2985 15.9482 60.3667 15.8 60.4328 15.6479C60.5947 15.259 60.7135 14.87 60.8033 14.4586C60.8132 14.4139 60.8231 14.3691 60.8332 14.323C60.9667 13.5749 60.922 12.7858 60.7232 12.055C60.7159 12.028 60.7086 12.0009 60.7011 11.973C60.3601 10.7519 59.532 9.65341 58.4398 9.01048C56.5878 7.98381 54.2835 8.23591 52.7112 9.65144Z" fill="black"/>
<path d="M59.5748 18.1129C59.6793 18.2014 59.7808 18.2924 59.8819 18.3847C59.9114 18.4114 59.9409 18.438 59.9713 18.4655C60.9523 19.3976 61.5337 20.8156 61.5757 22.1571C61.5986 23.4255 61.3502 24.591 60.603 25.6356C60.5867 25.6584 60.5704 25.6812 60.5536 25.7047C59.7072 26.8693 58.4856 27.7637 57.0451 27.9916C56.7499 28.0342 56.4545 28.0675 56.1563 28.0793C56.0796 28.0824 56.0796 28.0824 56.0012 28.0857C54.4537 28.1285 53.0704 27.47 51.95 26.4368C51.0034 25.5183 50.4084 24.1247 50.3809 22.8087C50.3774 22.3426 50.3849 21.8893 50.4678 21.4293C50.4725 21.4029 50.4773 21.3765 50.4821 21.3492C50.7382 19.98 51.5328 18.7638 52.6744 17.968C54.7589 16.5625 57.5779 16.4759 59.5748 18.1129Z" fill="#F8E482"/>
<path d="M59.5748 18.1129C59.6793 18.2014 59.7808 18.2924 59.8819 18.3847C59.9114 18.4114 59.9409 18.438 59.9713 18.4655C60.9523 19.3976 61.5337 20.8156 61.5757 22.1571C61.5986 23.4255 61.3502 24.591 60.603 25.6356C60.5867 25.6584 60.5704 25.6812 60.5536 25.7047C59.7072 26.8693 58.4856 27.7637 57.0451 27.9916C56.7499 28.0342 56.4545 28.0675 56.1563 28.0793C56.0796 28.0824 56.0796 28.0824 56.0012 28.0857C54.4537 28.1285 53.0704 27.47 51.95 26.4368C51.0034 25.5183 50.4084 24.1247 50.3809 22.8087C50.3774 22.3426 50.3849 21.8893 50.4678 21.4293C50.4725 21.4029 50.4773 21.3765 50.4821 21.3492C50.7382 19.98 51.5328 18.7638 52.6744 17.968C54.7589 16.5625 57.5779 16.4759 59.5748 18.1129ZM53.1919 19.3061C53.1724 19.3237 53.1528 19.3412 53.1327 19.3593C52.3274 20.0925 51.807 21.148 51.7447 22.2384C51.6946 23.4315 52.0808 24.5071 52.8839 25.4002C53.565 26.1347 54.4895 26.6486 55.4994 26.7287C55.6443 26.7332 55.7885 26.7339 55.9335 26.7322C55.9844 26.7318 56.0354 26.7314 56.0879 26.731C56.4452 26.7251 56.7746 26.7036 57.1178 26.597C57.1428 26.5893 57.1679 26.5815 57.1937 26.5736C57.8552 26.3629 58.4119 26.0245 58.9205 25.5555C58.947 25.5322 58.9735 25.5089 59.0009 25.4849C59.6708 24.8664 60.1558 23.8278 60.2087 22.9244C60.252 21.6453 59.9499 20.5253 59.0744 19.5663C58.3654 18.814 57.4058 18.3043 56.3601 18.2596C55.1502 18.2291 54.1059 18.4776 53.1919 19.3061Z" fill="black"/>
</svg>
