<svg width="350" height="350" viewBox="0 0 350 350" fill="none" xmlns="http://www.w3.org/2000/svg">
<path d="M119.517 97.5528C119.732 97.659 119.947 97.7653 120.168 97.8748C123.653 99.6089 126.959 101.637 130.271 103.676C131.287 104.302 132.306 104.922 133.327 105.54C133.592 105.701 133.858 105.862 134.132 106.028C134.625 106.326 135.118 106.624 135.611 106.922C135.834 107.057 136.056 107.193 136.286 107.332C136.499 107.461 136.711 107.59 136.931 107.723C137.749 108.241 138.532 108.805 139.31 109.383C140.266 109.859 141.101 109.75 142.112 109.48C142.346 109.394 142.581 109.309 142.822 109.22C143.091 109.125 143.36 109.029 143.637 108.931C143.926 108.828 144.215 108.724 144.513 108.617C154.054 105.327 164.031 103.877 174.099 103.931C174.371 103.932 174.643 103.932 174.923 103.933C185.672 103.974 196.013 105.703 206.266 108.96C206.511 109.036 206.756 109.112 207.008 109.19C207.647 109.407 207.647 109.407 208.471 109.81C209.693 109.999 210.451 109.245 211.416 108.553C211.877 108.239 212.338 107.925 212.8 107.613C213.049 107.444 213.297 107.275 213.553 107.101C214.968 106.159 216.42 105.277 217.874 104.398C218.027 104.305 218.179 104.213 218.336 104.118C222.658 101.503 227.038 98.9645 231.596 96.7803C232.195 96.4897 232.788 96.1893 233.382 95.8889C237.609 93.779 242.113 91.8489 246.897 91.8192C247.107 91.8138 247.318 91.8085 247.535 91.8031C249.603 91.7899 251.29 92.2978 252.832 93.7277C256.839 98.1887 257.311 105.279 257.897 110.953C257.925 111.224 257.925 111.224 257.954 111.501C258.765 119.75 257.989 128.187 257.14 136.4C257.108 136.716 257.108 136.716 257.076 137.039C256.682 140.911 256.682 140.911 256.279 142.651C255.464 146.19 256.533 148.466 258.068 151.689C261.847 159.948 262.706 169.006 262.536 177.952C262.814 177.952 262.814 177.952 263.098 177.951C268.31 177.942 268.31 177.942 269.413 178.838C270.304 179.826 270.358 180.442 270.337 181.735C270.225 182.685 269.88 183.186 269.235 183.879C267.051 185.217 264.451 184.652 262.02 184.395C261.993 184.61 261.993 184.61 261.966 184.83C261.58 187.85 261.099 190.755 260.216 193.672C260.533 193.737 260.85 193.802 261.177 193.87C261.597 193.959 262.018 194.049 262.439 194.139C262.647 194.181 262.855 194.224 263.07 194.268C264.57 194.591 265.845 194.978 267.013 196.023C267.598 197.059 267.669 197.92 267.432 199.083C266.989 199.939 266.376 200.481 265.563 201C263.732 201.374 261.825 200.742 260.071 200.227C259.861 200.166 259.65 200.106 259.433 200.044C258.92 199.897 258.409 199.748 257.897 199.599C257.853 199.741 257.81 199.884 257.765 200.032C257.318 201.438 256.775 202.728 256.077 204.028C255.976 204.216 255.875 204.404 255.772 204.598C254.143 207.569 252.14 210.163 249.783 212.596C249.514 212.873 249.248 213.153 248.983 213.433C243.913 218.801 236.941 223.735 229.809 225.883C230.122 226.122 230.122 226.122 230.442 226.365C233.239 228.501 235.945 230.696 238.516 233.101C239.046 233.597 239.58 234.086 240.122 234.569C241.333 235.649 242.479 236.727 243.522 237.971C243.853 238.359 244.196 238.735 244.546 239.105C247.514 242.234 249.954 245.785 251.97 249.591C252.091 249.808 252.211 250.026 252.336 250.25C254.515 254.333 255.581 258.993 254.299 263.527C253.095 266.91 251.011 269.079 247.847 270.721C242.13 273.059 236.443 273.099 230.729 270.717C230.335 270.549 229.943 270.378 229.551 270.206C229.598 270.388 229.645 270.571 229.694 270.759C230.334 273.371 230.717 276 231.081 278.661C231.131 279.021 231.131 279.021 231.182 279.389C236.111 315.193 236.111 315.193 230.848 322.158C227.604 325.673 222.619 327.331 217.955 327.671C216.505 327.721 215.057 327.734 213.606 327.735C213.305 327.736 213.305 327.736 212.998 327.736C207.439 327.731 201.082 327.311 196.793 323.308C194.578 320.868 193.645 317.975 192.911 314.835C192.868 314.655 192.824 314.475 192.78 314.29C192.509 313.057 192.386 311.844 192.301 310.584C192.279 310.261 192.257 309.937 192.235 309.604C192.219 309.358 192.202 309.113 192.186 308.86C192.02 308.875 191.855 308.89 191.685 308.906C186.498 309.368 181.343 309.456 176.139 309.442C175.031 309.439 173.923 309.441 172.815 309.444C167.566 309.456 162.371 309.321 157.14 308.86C157.124 309.087 157.107 309.314 157.091 309.547C157.058 309.996 157.058 309.996 157.024 310.455C156.992 310.899 156.992 310.899 156.959 311.352C156.859 312.474 156.672 313.558 156.431 314.658C156.386 314.866 156.341 315.073 156.294 315.288C155.421 319.129 153.951 322.223 150.698 324.579C146.352 327.218 141.455 327.721 136.492 327.733C135.889 327.735 135.286 327.743 134.682 327.752C128.953 327.792 123.394 326.693 119.066 322.694C115.724 319.155 115.786 315.1 115.829 310.518C115.83 310.243 115.832 309.968 115.833 309.685C115.886 299.609 116.806 289.63 118.116 279.644C118.141 279.447 118.167 279.25 118.194 279.047C118.572 276.175 119.026 273.319 119.517 270.464C119.196 270.569 118.876 270.675 118.546 270.784C112.506 272.751 106.995 273.392 101.108 270.56C98.0722 268.998 96.0521 266.669 94.8289 263.481C93.4181 258.466 95.2776 253.147 97.6689 248.758C99.6738 245.218 102.068 242.071 104.819 239.082C105.291 238.567 105.745 238.043 106.197 237.511C108.068 235.367 110.131 233.389 112.302 231.552C112.572 231.317 112.842 231.082 113.112 230.847C115.105 229.114 117.147 227.469 119.259 225.883C119.111 225.817 118.964 225.751 118.811 225.683C118.327 225.464 117.843 225.243 117.36 225.021C116.687 224.714 116.014 224.415 115.336 224.119C110.684 222.049 106.544 219.237 102.767 215.833C102.551 215.648 102.335 215.463 102.113 215.272C100.834 214.172 99.712 213.014 98.6439 211.71C98.435 211.462 98.226 211.214 98.0108 210.959C95.2362 207.602 93.0003 203.804 91.1709 199.856C89.8084 199.965 88.6125 200.254 87.3055 200.661C85.8593 201.085 84.8926 201.309 83.4401 200.887C82.4249 200.269 81.938 199.72 81.6363 198.568C81.5086 197.568 81.5933 197.106 82.0551 196.2C83.2937 194.733 84.9572 194.487 86.7579 194.139C86.9845 194.093 87.211 194.047 87.4444 194C87.999 193.889 88.554 193.779 89.1093 193.672C89.073 193.51 89.0367 193.348 88.9992 193.181C88.3473 190.262 87.7036 187.361 87.3055 184.395C87.0249 184.405 87.0249 184.405 86.7387 184.415C85.8862 184.442 85.0338 184.459 84.181 184.475C83.8867 184.486 83.5924 184.497 83.2891 184.508C80.84 184.544 80.84 184.544 79.8989 183.778C79.1301 182.89 79.0196 182.483 79.0111 181.335C79.0056 181.001 79.0056 181.001 79 180.66C79.0873 179.71 79.3571 179.173 80.074 178.548C81.7239 177.841 83.5693 177.941 85.3396 177.947C85.7494 177.948 85.7494 177.948 86.1675 177.95C86.373 177.951 86.5784 177.951 86.7901 177.952C86.7861 177.74 86.782 177.528 86.7779 177.309C86.6236 167.946 87.942 158.802 91.8272 150.177C91.9352 149.937 92.0432 149.697 92.1545 149.45C92.3608 149.002 92.5731 148.557 92.7928 148.115C93.5675 146.457 93.537 145.207 93.2324 143.422C93.1977 143.202 93.1629 142.983 93.1272 142.756C93.0523 142.298 92.975 141.839 92.8954 141.381C91.0163 130.38 90.2657 118.7 91.6863 107.603C91.7125 107.387 91.7387 107.172 91.7658 106.95C92.3555 102.252 93.3387 96.4357 97.0978 93.172C103.837 88.9074 113.428 94.5213 119.517 97.5528Z" fill="#FBE9CC"/>
<path d="M256.521 148.028C256.521 164.747 221.592 136.235 176.415 136.235C131.238 136.235 93.8818 164.747 93.8818 148.028C93.8818 131.309 131.238 109.701 176.415 109.701C221.592 109.701 256.521 131.309 256.521 148.028Z" fill="#AADCE7"/>
<path d="M100.886 95.7707L124.177 104.917L141.47 118.564L99.8805 142.307L94.4133 120.862L100.886 95.7707Z" fill="#AADCE7"/>
<path d="M249.271 92.8713L225.979 102.018L208.686 115.665L250.276 139.408L255.743 117.963L249.271 92.8713Z" fill="#AADCE7"/>
<path d="M119.517 97.5528C119.732 97.659 119.947 97.7653 120.168 97.8748C123.653 99.6089 126.959 101.637 130.271 103.676C131.287 104.302 132.306 104.922 133.327 105.54C133.592 105.701 133.858 105.862 134.132 106.028C134.625 106.326 135.118 106.624 135.611 106.922C135.834 107.057 136.056 107.193 136.286 107.332C136.499 107.461 136.711 107.59 136.931 107.723C137.749 108.241 138.532 108.805 139.31 109.383C140.266 109.859 141.101 109.75 142.112 109.48C142.346 109.394 142.581 109.309 142.822 109.22C143.091 109.125 143.36 109.029 143.637 108.931C143.926 108.828 144.215 108.724 144.513 108.617C154.054 105.327 164.031 103.877 174.099 103.931C174.371 103.932 174.643 103.932 174.923 103.933C185.672 103.974 196.013 105.703 206.266 108.96C206.511 109.036 206.756 109.112 207.008 109.19C207.647 109.407 207.647 109.407 208.471 109.81C209.693 109.999 210.451 109.245 211.416 108.553C211.877 108.239 212.338 107.925 212.8 107.613C213.049 107.444 213.297 107.275 213.553 107.101C214.968 106.159 216.42 105.277 217.874 104.398C218.027 104.305 218.179 104.213 218.336 104.118C222.658 101.503 227.038 98.9645 231.596 96.7803C232.195 96.4897 232.788 96.1893 233.382 95.8889C237.609 93.779 242.113 91.8489 246.897 91.8192C247.107 91.8138 247.318 91.8085 247.535 91.8031C249.603 91.7899 251.29 92.2978 252.832 93.7277C256.839 98.1887 257.311 105.279 257.897 110.953C257.925 111.224 257.925 111.224 257.954 111.501C258.765 119.75 257.989 128.187 257.14 136.4C257.108 136.716 257.108 136.716 257.076 137.039C256.682 140.911 256.682 140.911 256.279 142.651C255.464 146.19 256.533 148.466 258.068 151.689C261.847 159.948 262.706 169.006 262.536 177.952C262.814 177.952 262.814 177.952 263.098 177.951C268.31 177.942 268.31 177.942 269.413 178.838C270.304 179.826 270.358 180.442 270.337 181.735C270.225 182.685 269.88 183.186 269.235 183.879C267.051 185.217 264.451 184.652 262.02 184.395C261.993 184.61 261.993 184.61 261.966 184.83C261.58 187.85 261.099 190.755 260.216 193.672C260.533 193.737 260.85 193.802 261.177 193.87C261.597 193.959 262.018 194.049 262.439 194.139C262.647 194.181 262.855 194.224 263.07 194.268C264.57 194.591 265.845 194.978 267.013 196.023C267.598 197.059 267.669 197.92 267.432 199.083C266.989 199.939 266.376 200.481 265.563 201C263.732 201.374 261.825 200.742 260.071 200.227C259.861 200.166 259.65 200.106 259.433 200.044C258.92 199.897 258.409 199.748 257.897 199.599C257.853 199.741 257.81 199.884 257.765 200.032C257.318 201.438 256.775 202.728 256.077 204.028C255.976 204.216 255.875 204.404 255.772 204.598C254.143 207.569 252.14 210.163 249.783 212.596C249.514 212.873 249.248 213.153 248.983 213.433C243.913 218.801 236.941 223.735 229.809 225.883C230.122 226.122 230.122 226.122 230.442 226.365C233.239 228.501 235.945 230.696 238.516 233.101C239.046 233.597 239.58 234.086 240.122 234.569C241.333 235.649 242.479 236.727 243.522 237.971C243.853 238.359 244.196 238.735 244.546 239.105C247.514 242.234 249.954 245.785 251.97 249.591C252.091 249.808 252.211 250.026 252.336 250.25C254.515 254.333 255.581 258.993 254.299 263.527C253.095 266.91 251.011 269.079 247.847 270.721C242.13 273.059 236.443 273.099 230.729 270.717C230.335 270.549 229.943 270.378 229.551 270.206C229.598 270.388 229.645 270.571 229.694 270.759C230.334 273.371 230.717 276 231.081 278.661C231.131 279.021 231.131 279.021 231.182 279.389C236.111 315.193 236.111 315.193 230.848 322.158C227.604 325.673 222.619 327.331 217.955 327.671C216.505 327.721 215.057 327.734 213.606 327.735C213.305 327.736 213.305 327.736 212.998 327.736C207.439 327.731 201.082 327.311 196.793 323.308C194.578 320.868 193.645 317.975 192.911 314.835C192.868 314.655 192.824 314.475 192.78 314.29C192.509 313.057 192.386 311.844 192.301 310.584C192.279 310.261 192.257 309.937 192.235 309.604C192.219 309.358 192.202 309.113 192.186 308.86C192.02 308.875 191.855 308.89 191.685 308.906C186.498 309.368 181.343 309.456 176.139 309.442C175.031 309.439 173.923 309.441 172.815 309.444C167.566 309.456 162.371 309.321 157.14 308.86C157.124 309.087 157.107 309.314 157.091 309.547C157.058 309.996 157.058 309.996 157.024 310.455C156.992 310.899 156.992 310.899 156.959 311.352C156.859 312.474 156.672 313.558 156.431 314.658C156.386 314.866 156.341 315.073 156.294 315.288C155.421 319.129 153.951 322.223 150.698 324.579C146.352 327.218 141.455 327.721 136.492 327.733C135.889 327.735 135.286 327.743 134.682 327.752C128.953 327.792 123.394 326.693 119.066 322.694C115.724 319.155 115.786 315.1 115.829 310.518C115.83 310.243 115.832 309.968 115.833 309.685C115.886 299.609 116.806 289.63 118.116 279.644C118.141 279.447 118.167 279.25 118.194 279.047C118.572 276.175 119.026 273.319 119.517 270.464C119.196 270.569 118.876 270.675 118.546 270.784C112.506 272.751 106.995 273.392 101.108 270.56C98.0722 268.998 96.0521 266.669 94.8289 263.481C93.4181 258.466 95.2776 253.147 97.6689 248.758C99.6738 245.218 102.068 242.071 104.819 239.082C105.291 238.567 105.745 238.043 106.197 237.511C108.068 235.367 110.131 233.389 112.302 231.552C112.572 231.317 112.842 231.082 113.112 230.847C115.105 229.114 117.147 227.469 119.259 225.883C119.111 225.817 118.964 225.751 118.811 225.683C118.327 225.464 117.843 225.243 117.36 225.021C116.687 224.714 116.014 224.415 115.336 224.119C110.684 222.049 106.544 219.237 102.767 215.833C102.551 215.648 102.335 215.463 102.113 215.272C100.834 214.172 99.712 213.014 98.6439 211.71C98.435 211.462 98.226 211.214 98.0108 210.959C95.2362 207.602 93.0003 203.804 91.1709 199.856C89.8084 199.965 88.6125 200.254 87.3055 200.661C85.8593 201.085 84.8926 201.309 83.4401 200.887C82.4249 200.269 81.938 199.72 81.6363 198.568C81.5086 197.568 81.5933 197.106 82.0551 196.2C83.2937 194.733 84.9572 194.487 86.7579 194.139C86.9845 194.093 87.211 194.047 87.4444 194C87.999 193.889 88.554 193.779 89.1093 193.672C89.073 193.51 89.0367 193.348 88.9992 193.181C88.3473 190.262 87.7036 187.361 87.3055 184.395C87.0249 184.405 87.0249 184.405 86.7387 184.415C85.8862 184.442 85.0338 184.459 84.181 184.475C83.8867 184.486 83.5924 184.497 83.2891 184.508C80.84 184.544 80.84 184.544 79.8989 183.778C79.1301 182.89 79.0196 182.483 79.0111 181.335C79.0056 181.001 79.0056 181.001 79 180.66C79.0873 179.71 79.3571 179.173 80.074 178.548C81.7239 177.841 83.5693 177.941 85.3396 177.947C85.7494 177.948 85.7494 177.948 86.1675 177.95C86.373 177.951 86.5784 177.951 86.7901 177.952C86.7861 177.74 86.782 177.528 86.7779 177.309C86.6236 167.946 87.942 158.802 91.8272 150.177C91.9352 149.937 92.0432 149.697 92.1545 149.45C92.3608 149.002 92.5731 148.557 92.7928 148.115C93.5675 146.457 93.537 145.207 93.2324 143.422C93.1977 143.202 93.1629 142.983 93.1272 142.756C93.0523 142.298 92.975 141.839 92.8954 141.381C91.0163 130.38 90.2657 118.7 91.6863 107.603C91.7125 107.387 91.7387 107.172 91.7658 106.95C92.3555 102.252 93.3387 96.4357 97.0978 93.172C103.837 88.9074 113.428 94.5213 119.517 97.5528ZM101.221 99.2117C100.062 100.697 99.5701 102.167 99.1271 103.979C99.0862 104.143 99.0453 104.307 99.0032 104.476C97.9773 108.972 98.0351 113.535 98.048 118.12C98.0485 118.466 98.049 118.813 98.0494 119.159C98.0635 126.56 98.5088 133.775 99.771 141.07C100.294 144.192 100.718 147.046 99.1754 149.912C95.0553 158.319 92.7711 168.564 93.2324 177.952C93.769 178.489 94.9353 178.282 95.6805 178.307C97.4048 178.383 99.0987 178.523 100.802 178.806C101.07 178.847 101.07 178.847 101.344 178.888C102.499 179.096 103.238 179.426 104.055 180.272C104.431 181.207 104.451 182.165 104.141 183.124C103.772 183.845 103.423 184.321 102.702 184.699C100.152 185.46 96.9028 184.844 94.2632 184.652C94.179 186.23 94.4897 187.593 94.8913 189.114C94.9506 189.347 95.0099 189.58 95.071 189.821C95.3583 191.003 95.3583 191.003 95.8093 192.125C96.255 192.089 96.7006 192.051 97.1461 192.013C97.3942 191.992 97.6424 191.971 97.898 191.949C98.6262 191.883 98.6262 191.883 99.26 191.733C100.14 191.572 100.987 191.566 101.881 191.562C102.216 191.558 102.552 191.554 102.897 191.551C104.17 191.635 104.17 191.635 104.829 192.125C105.301 192.839 105.432 193.451 105.457 194.3C105.472 194.586 105.472 194.586 105.488 194.879C105.268 195.789 104.834 196.285 104.055 196.764C103.058 197.1 102.045 197.296 101.011 197.489C100.735 197.544 100.458 197.6 100.172 197.657C99.4919 197.793 98.8108 197.925 98.1285 198.052C99.2125 201.587 101.183 204.521 103.54 207.329C103.713 207.536 103.713 207.536 103.89 207.747C109.904 214.812 118.339 218.968 127.074 221.645C131.053 222.871 131.053 222.871 131.886 224.337C132.049 225.643 131.893 226.379 131.113 227.429C130.488 227.773 130.488 227.773 129.744 228.041C125.021 229.888 121.003 232.596 117.332 236.093C116.806 236.589 116.273 237.062 115.726 237.532C112.717 240.154 109.798 243.04 107.405 246.241C107.174 246.542 106.943 246.843 106.712 247.144C103.834 250.934 100.49 255.67 100.963 260.671C101.255 262.325 102.13 263.286 103.4 264.34C106.102 266.212 109.423 266.471 112.593 265.916C114.524 265.524 116.352 264.937 118.164 264.166C118.333 264.095 118.502 264.024 118.676 263.951C119.88 263.406 120.978 262.754 121.522 261.494C121.69 260.941 121.827 260.389 121.956 259.826C122.033 259.516 122.033 259.516 122.111 259.199C122.22 258.758 122.326 258.317 122.431 257.876C122.594 257.189 122.762 256.504 122.932 255.819C123.155 254.921 123.377 254.023 123.597 253.125C123.964 251.634 124.353 250.151 124.767 248.673C124.85 248.364 124.85 248.364 124.934 248.048C125.341 246.615 125.886 245.417 127.087 244.469C127.918 244.113 128.412 244.051 129.309 244.179C130.091 244.6 130.671 244.966 131.21 245.677C131.728 247.491 131.12 249.253 130.654 251.015C130.5 251.613 130.346 252.211 130.193 252.81C130.111 253.123 130.03 253.435 129.947 253.758C126.375 267.574 123.963 281.482 122.867 295.717C122.852 295.913 122.836 296.11 122.82 296.312C122.474 300.78 122.299 305.248 122.261 309.731C122.257 310.196 122.251 310.662 122.244 311.128C122.119 314.85 122.119 314.85 123.774 318.074C126.658 320.985 131.64 321.246 135.491 321.278C142.08 321.346 142.08 321.346 147.698 318.397C150.284 315.226 150.539 310.5 150.9 306.578C151.053 305.115 151.211 304.057 152.244 302.933C153.52 302.038 154.577 302.092 156.061 302.224C156.256 302.238 156.45 302.251 156.651 302.265C157.415 302.321 158.176 302.388 158.937 302.477C163.908 303.056 168.937 302.993 173.935 302.997C174.315 302.997 174.695 302.997 175.075 302.998C180.95 303.007 186.775 302.858 192.621 302.231C194.239 302.096 195.436 302.007 196.824 302.933C198.354 304.802 198.475 306.932 198.725 309.246C199.353 314.603 199.353 314.603 202.123 319.103C206.086 322.097 213.103 321.598 217.745 321.004C220.721 320.567 223.795 319.992 225.879 317.637C227.148 315.91 227.279 314.124 227.268 312.026C227.267 311.828 227.267 311.629 227.266 311.424C227.24 308.451 227.072 305.482 226.91 302.514C226.893 302.197 226.875 301.88 226.858 301.553C226.079 287.368 224.285 273.27 220.829 259.475C220.785 259.301 220.741 259.126 220.696 258.947C220.256 257.193 219.811 255.441 219.356 253.692C219.227 253.195 219.099 252.698 218.971 252.201C218.814 251.588 218.654 250.977 218.492 250.366C218.106 248.865 217.82 247.534 217.955 245.983C218.514 245.065 219.028 244.578 220.016 244.179C220.579 244.14 220.579 244.14 221.16 244.195C221.351 244.209 221.542 244.222 221.739 244.236C222.627 244.534 223.018 245.014 223.624 245.725C223.94 246.413 224.133 247.119 224.325 247.85C224.382 248.056 224.44 248.262 224.499 248.475C224.684 249.141 224.863 249.809 225.041 250.476C225.167 250.934 225.294 251.391 225.42 251.848C226.142 254.479 226.831 257.117 227.32 259.803C227.599 261.215 227.989 261.984 229.036 262.991C232.967 265.503 237.733 266.717 242.339 265.793C244.779 265.162 246.478 264.175 247.832 262.023C248.802 259.966 248.365 258.014 247.69 255.946C245.7 250.702 242.321 246.479 238.57 242.375C238.35 242.128 238.13 241.881 237.903 241.626C236.25 239.779 234.505 238.084 232.643 236.448C232.514 236.333 232.384 236.218 232.251 236.099C228.516 232.785 224.502 229.774 219.727 228.17C218.912 227.883 218.457 227.676 217.778 227.123C217.31 226.122 217.142 225.158 217.44 224.079C218.337 222.955 219.129 222.57 220.5 222.195C220.869 222.088 221.237 221.98 221.606 221.871C221.805 221.812 222.005 221.754 222.21 221.694C230.443 219.227 237.419 215.506 243.724 209.648C243.899 209.491 244.074 209.333 244.254 209.17C247.363 206.242 249.951 202.121 251.197 198.052C251.017 198.02 250.836 197.988 250.65 197.955C249.827 197.804 249.006 197.647 248.185 197.489C247.901 197.438 247.617 197.387 247.324 197.335C244.625 196.805 244.625 196.805 243.724 195.475C243.505 194.68 243.562 193.962 243.724 193.156C244.186 192.417 244.493 191.999 245.27 191.61C247.99 191.381 250.599 191.882 253.259 192.383C253.794 191.011 254.242 189.657 254.595 188.228C254.641 188.053 254.687 187.879 254.734 187.699C254.994 186.662 255.111 185.721 255.062 184.652C254.807 184.671 254.551 184.69 254.287 184.709C252.518 184.832 250.748 184.937 248.975 184.975C248.695 184.981 248.415 184.988 248.127 184.995C247.188 184.895 246.586 184.633 245.786 184.137C245.207 183.166 245.013 182.529 245.013 181.399C245.327 180.337 245.688 179.918 246.559 179.241C247.696 178.784 248.727 178.635 249.947 178.562C250.116 178.552 250.286 178.541 250.46 178.53C250.996 178.497 251.531 178.466 252.067 178.436C252.432 178.413 252.798 178.391 253.163 178.368C254.054 178.313 254.945 178.261 255.836 178.21C255.929 173.845 255.866 169.624 255.062 165.326C255.021 165.101 254.98 164.876 254.937 164.644C253.913 159.29 252.221 153.993 249.842 149.084C248.622 146.452 249.211 143.95 249.642 141.172C250.812 133.51 251.264 125.834 251.278 118.088C251.279 117.833 251.28 117.579 251.281 117.317C251.289 112.841 251.186 108.276 250.086 103.915C250.037 103.698 249.989 103.482 249.939 103.259C249.512 101.498 248.879 99.8731 247.332 98.8412C245.909 98.7485 244.687 98.9067 243.321 99.3244C243.136 99.3805 242.95 99.4366 242.759 99.4945C232.294 102.816 222.17 109.271 213.268 115.577C211.546 116.767 209.994 117.322 207.905 117.137C207.112 116.872 207.112 116.872 206.294 116.493C201.345 114.357 195.922 113.217 190.64 112.241C190.433 112.202 190.227 112.162 190.014 112.122C174.597 109.213 157.838 110.955 143.188 116.444C141.483 117.078 140.099 117.49 138.344 116.783C135.848 115.581 133.546 113.937 131.226 112.434C127.343 109.925 123.383 107.529 119.314 105.334C118.925 105.124 118.536 104.912 118.149 104.7C109.976 99.8428 109.976 99.8428 101.221 99.2117Z" fill="black"/>
<path d="M174.437 238.639C174.739 238.64 175.041 238.642 175.352 238.644C181.152 238.764 185.84 240.827 189.866 244.952C190.073 245.156 190.279 245.36 190.492 245.57C196.631 251.954 198.516 261.632 198.479 270.18C198.377 275.052 197.003 279.101 193.474 282.575C193.31 282.739 193.145 282.903 192.976 283.072C187.039 288.626 178.507 288.546 170.899 288.299C165.819 288.086 160.952 286.714 156.882 283.606C156.689 283.46 156.496 283.314 156.297 283.164C152.952 280.445 151.211 276.237 150.741 272.029C150.602 270.31 150.664 268.578 150.697 266.856C150.702 266.579 150.706 266.303 150.71 266.018C151.065 258.394 154.012 250.977 158.944 245.21C159.097 245.03 159.25 244.85 159.408 244.665C163.261 240.506 168.882 238.606 174.437 238.639Z" fill="#F2D3A3"/>
<path d="M192.035 239.455C192.255 239.654 192.475 239.852 192.701 240.056C192.918 240.252 193.135 240.448 193.358 240.649C197.402 244.492 199.975 249.502 201.72 254.745C201.815 255.02 201.909 255.295 202.007 255.578C204.121 262.273 204.735 270.064 203.008 276.906C202.967 277.074 202.925 277.241 202.883 277.414C201.546 282.564 198.042 286.858 193.497 289.569C187.632 292.851 181.44 293.716 174.823 293.72C174.497 293.721 174.497 293.721 174.164 293.721C170.845 293.717 167.605 293.621 164.355 292.883C164.164 292.84 163.974 292.797 163.778 292.753C157.752 291.328 151.987 287.986 148.662 282.666C144.53 275.791 144.577 266.384 146.41 258.748C146.464 258.533 146.518 258.317 146.574 258.095C146.628 257.876 146.682 257.657 146.737 257.432C148.266 251.416 150.962 246.003 155.078 241.345C155.314 241.076 155.314 241.076 155.555 240.802C164.855 230.889 181.946 230.784 192.035 239.455ZM158.018 246.24C153.401 251.995 150.967 259.526 150.697 266.856C150.69 267.031 150.683 267.206 150.676 267.387C150.499 272.369 151.239 276.939 154.305 281.029C154.465 281.258 154.465 281.258 154.629 281.491C157.977 285.872 163.985 287.41 169.159 288.171C170.974 288.39 172.805 288.359 174.63 288.341C174.952 288.339 174.952 288.339 175.28 288.338C182.341 288.295 188.776 287.265 193.989 282.06C194.24 281.814 194.24 281.814 194.496 281.563C198.223 277.631 198.572 272.476 198.452 267.35C198.134 259.033 195.479 250.739 189.609 244.695C189.461 244.531 189.314 244.368 189.162 244.199C185.933 240.725 181.008 238.882 176.345 238.668C168.87 238.478 163.037 240.521 158.018 246.24Z" fill="black"/>
<path d="M232.596 177.228C235.354 179.115 237.027 181.671 237.798 184.91C238.229 188.941 237.365 192.006 234.838 195.184C232.78 197.477 229.869 198.675 226.855 198.889C223.196 199.012 220.214 197.958 217.441 195.543C215.026 193.031 214.01 189.894 214.052 186.478C214.211 183.174 215.506 180.448 217.956 178.21C222.451 174.835 227.693 174.328 232.596 177.228Z" fill="#F4A99C"/>
<path d="M129.051 176.664C129.25 176.763 129.449 176.862 129.653 176.964C132.22 178.41 134.075 181.174 134.946 183.944C135.687 187.095 135.383 190.255 133.807 193.102C132.11 195.674 129.683 197.611 126.732 198.568C123.44 199.21 120.155 199.041 117.205 197.358C114.516 195.531 112.488 193.02 111.786 189.806C111.452 185.39 111.976 182.39 114.83 178.933C118.509 174.902 124.335 174.312 129.051 176.664Z" fill="#F4A99C"/>
<path d="M109.08 107.739C110.789 107.969 112.307 108.668 113.848 109.407C114.007 109.483 114.166 109.558 114.33 109.637C118.486 111.655 122.142 114.469 125.768 117.302C126.162 117.61 126.558 117.914 126.955 118.218C127.683 118.834 127.996 119.258 128.117 120.213C127.997 121.203 127.763 121.417 127.006 122.05C126.771 122.248 126.537 122.446 126.295 122.65C125.129 123.581 123.939 124.481 122.748 125.379C121.206 126.547 119.737 127.782 118.279 129.053C117.547 129.69 116.796 130.301 116.038 130.908C114.913 131.819 113.855 132.784 112.801 133.775C110.633 135.799 110.633 135.799 109.596 136.69C109.407 136.854 109.219 137.018 109.024 137.187C108.436 137.495 108.436 137.495 107.626 137.468C106.89 137.237 106.89 137.237 106.326 136.416C104.402 131.897 104.483 126.394 104.504 121.575C104.507 120.824 104.504 120.072 104.501 119.321C104.494 110.749 104.494 110.749 106.452 108.197C107.252 107.582 108.107 107.712 109.08 107.739Z" fill="#F4A99C"/>
<path d="M242.178 107.86C244.089 109.374 244.341 112.07 244.609 114.363C245.268 121.33 245.694 130.532 242.693 136.979C241.881 137.386 241.24 137.475 240.374 137.237C239.573 136.678 238.896 136.005 238.204 135.318C237.4 134.527 236.574 133.758 235.752 132.985C235.573 132.817 235.395 132.649 235.211 132.476C233.805 131.157 232.351 129.931 230.839 128.733C230.382 128.358 229.926 127.982 229.47 127.606C228.391 126.722 227.299 125.857 226.201 124.997C225.896 124.757 225.592 124.517 225.288 124.277C224.712 123.824 224.132 123.378 223.546 122.938C223.162 122.642 223.162 122.642 222.77 122.339C222.543 122.168 222.315 121.996 222.081 121.819C221.428 121.115 221.329 120.666 221.305 119.714C222.521 117.854 224.428 116.629 226.201 115.333C226.367 115.211 226.533 115.088 226.704 114.961C237.834 106.755 237.834 106.755 242.178 107.86Z" fill="#F4A99C"/>
<path d="M174.727 173.233C174.981 173.226 175.236 173.218 175.497 173.211C177.284 173.195 178.755 173.476 180.332 174.344C181.237 175.249 181.576 175.95 181.701 177.227C181.543 179.154 180.598 180.39 179.237 181.705C178.786 182.075 178.786 182.075 178.029 182.413C177.449 182.794 177.449 182.794 177.392 183.385C177.315 185.552 177.894 187.617 179.301 189.291C180.984 190.64 182.667 191.178 184.809 191.078C187.458 190.749 189.014 189.536 190.688 187.515C191.321 186.778 191.544 186.726 192.524 186.633C193.623 186.726 193.995 186.976 194.763 187.744C195.21 188.639 195.14 189.6 195.02 190.579C193.688 193.145 191.075 195.061 188.413 196.061C185.469 196.968 182.089 196.871 179.278 195.62C177.636 194.739 176.215 193.724 174.921 192.383C174.175 192.724 173.768 193.013 173.149 193.591C170.259 196.141 166.87 196.744 163.147 196.563C159.635 196.225 157.177 194.147 154.958 191.589C154.236 190.684 154.205 189.973 154.213 188.843C154.36 187.918 154.873 187.521 155.594 186.971C156.342 186.597 156.824 186.618 157.655 186.714C158.59 187.357 159.239 188.038 159.942 188.92C161.092 190.26 162.051 190.757 163.825 190.943C165.987 191.05 168.032 191.002 169.767 189.548C171.238 187.842 172.014 186.048 171.977 183.787C171.796 182.958 171.579 182.753 170.894 182.268C170.707 182.153 170.519 182.038 170.326 181.919C169.115 181.141 168.034 179.883 167.705 178.468C167.566 177.173 167.561 176.195 168.124 175.005C169.889 173.101 172.313 173.256 174.727 173.233Z" fill="black"/>
<path d="M213.539 160.141C214.274 160.488 214.94 160.865 215.616 161.309C216.025 161.553 216.025 161.553 216.442 161.8C218.527 163.875 219.313 166.058 219.316 168.902C219.26 171.57 218.331 173.444 216.455 175.365C214.301 177.328 212.092 177.774 209.21 177.73C206.978 177.471 204.986 176.487 203.447 174.892C203.184 174.543 202.934 174.185 202.696 173.82C202.573 173.646 202.45 173.472 202.323 173.292C200.948 170.943 201.047 167.617 201.738 165.061C202.736 162.897 204.537 161.305 206.692 160.236C208.827 159.504 211.372 159.472 213.539 160.141Z" fill="black"/>
<path d="M141.979 159.475C144.161 160.809 145.749 162.534 146.627 164.993C147.328 167.933 147.175 170.937 145.724 173.607C144.222 175.645 142.469 177.072 140.003 177.606C137.219 177.946 135.121 177.656 132.776 176.068C132.453 175.858 132.13 175.649 131.797 175.433C129.928 173.655 129.085 171.313 128.962 168.757C128.935 165.87 129.331 163.708 131.297 161.526C134.184 158.729 138.251 157.705 141.979 159.475Z" fill="black"/>
<path d="M146.948 134.366C147.372 134.578 147.722 134.825 147.939 135.252C148.171 135.97 148.152 136.789 147.835 137.477C147.456 138.126 146.946 138.683 146.44 139.238C146.293 139.399 146.149 139.563 146.005 139.727C144.122 141.836 141.624 143.12 138.959 144.026C138.867 144.058 138.774 144.091 138.679 144.125C137.078 144.654 134.623 145.114 133.015 144.452C132.616 144.218 132.45 143.92 132.263 143.516C132.12 142.91 132.077 142.416 132.351 141.845C133.048 141.091 133.876 141.009 134.859 140.859C138.079 140.329 141.25 139.359 143.325 136.726C143.637 136.294 143.909 135.851 144.173 135.39C144.814 134.275 145.688 133.854 146.948 134.366Z" fill="black"/>
<path d="M203.691 134.282C204.431 134.708 204.876 135.302 205.352 135.989C207.092 138.475 209.818 140.057 212.814 140.614C213.392 140.708 213.971 140.797 214.552 140.875C215.392 140.994 216.275 141.135 216.895 141.745C217.197 142.251 217.228 142.719 217.16 143.292C216.992 143.787 216.772 144.219 216.291 144.47C214.947 145.024 213.083 144.739 211.728 144.363C211.639 144.338 211.55 144.313 211.458 144.288C210.047 143.887 208.702 143.389 207.382 142.756C207.271 142.704 207.16 142.651 207.045 142.597C204.758 141.443 202.196 139.158 201.299 136.759C201.198 136.162 201.22 135.633 201.536 135.106C202.054 134.4 202.791 133.9 203.691 134.282Z" fill="black"/>
<path d="M134.959 99.0752C136.681 99.0194 138.312 99.4891 139.635 100.612C139.67 100.641 139.67 100.641 139.704 100.67C140.768 101.584 141.429 102.827 141.757 104.178C141.769 104.229 141.769 104.229 141.782 104.282C141.911 104.847 141.947 105.398 141.94 105.975C141.94 106.037 141.939 106.1 141.939 106.163C141.938 106.314 141.937 106.465 141.935 106.616C141.985 106.597 142.036 106.577 142.088 106.557C142.924 106.238 143.729 106.045 144.631 106.052C144.685 106.052 144.739 106.052 144.795 106.053C145.78 106.064 146.629 106.269 147.513 106.701C147.563 106.725 147.613 106.75 147.664 106.774C148.874 107.396 149.927 108.421 150.537 109.64C150.551 109.668 150.565 109.696 150.58 109.725C151.245 111.066 151.46 112.646 151.133 114.111C151.126 114.145 151.118 114.178 151.11 114.213C150.824 115.455 150.239 116.567 149.345 117.475C149.312 117.508 149.28 117.54 149.247 117.574C148.415 118.369 147.137 119.078 145.98 119.178C146.028 119.239 146.028 119.239 146.077 119.3C146.857 120.3 147.384 121.493 147.556 122.755C147.561 122.79 147.565 122.824 147.57 122.859C147.707 124.071 147.498 125.307 147.002 126.418C146.981 126.466 146.96 126.514 146.938 126.564C146.64 127.2 146.214 127.748 145.725 128.249C145.687 128.29 145.687 128.29 145.649 128.331C144.843 129.186 143.696 129.683 142.574 129.952C142.527 129.963 142.527 129.963 142.48 129.975C142.048 130.076 141.623 130.089 141.181 130.09C141.085 130.09 140.988 130.092 140.891 130.093C140.304 130.097 139.738 130.014 139.175 129.84C139.122 129.824 139.122 129.824 139.069 129.808C138.23 129.54 137.448 129.125 136.782 128.547C136.747 128.516 136.712 128.485 136.675 128.454C136.568 128.359 136.462 128.262 136.356 128.164C136.325 128.135 136.293 128.106 136.261 128.077C135.894 127.729 135.612 127.307 135.334 126.886C135.311 126.924 135.288 126.962 135.264 127.001C135.059 127.333 134.842 127.628 134.568 127.908C134.533 127.944 134.498 127.98 134.461 128.017C134.426 128.051 134.391 128.086 134.355 128.121C134.329 128.148 134.303 128.176 134.277 128.204C133.133 129.393 131.485 130.064 129.846 130.096C129.241 130.104 128.644 130.097 128.053 129.952C128 129.94 127.948 129.928 127.894 129.916C126.757 129.638 125.86 129.104 124.987 128.334C124.956 128.307 124.926 128.281 124.895 128.254C123.806 127.231 123.095 125.594 123.021 124.108C122.997 122.241 123.407 120.617 124.646 119.178C124.591 119.177 124.537 119.175 124.481 119.173C123.42 119.063 122.373 118.41 121.58 117.73C121.541 117.698 121.503 117.665 121.463 117.631C121.186 117.388 120.951 117.13 120.728 116.836C120.711 116.814 120.694 116.791 120.676 116.768C119.908 115.756 119.416 114.491 119.396 113.212C119.396 113.179 119.395 113.146 119.395 113.113C119.381 112.076 119.472 111.116 119.877 110.151C119.889 110.121 119.901 110.092 119.913 110.062C120.218 109.333 120.664 108.688 121.197 108.107C121.232 108.067 121.268 108.028 121.305 107.988C121.814 107.454 122.414 107.034 123.07 106.701C123.097 106.688 123.124 106.674 123.152 106.66C124.77 105.845 126.526 105.905 128.215 106.457C128.361 106.506 128.505 106.561 128.649 106.616C128.648 106.573 128.648 106.573 128.647 106.53C128.606 104.527 129.104 102.574 130.516 101.091C130.575 101.031 130.634 100.97 130.693 100.91C130.718 100.882 130.744 100.854 130.77 100.825C131.179 100.383 131.74 100.078 132.268 99.8027C132.295 99.789 132.321 99.7753 132.348 99.7613C133.157 99.3456 134.05 99.1097 134.959 99.0752Z" fill="#F4A99C"/>
<path d="M134.959 99.0752C136.681 99.0194 138.312 99.4891 139.635 100.612C139.67 100.641 139.67 100.641 139.704 100.67C140.768 101.584 141.429 102.827 141.757 104.178C141.769 104.229 141.769 104.229 141.782 104.282C141.911 104.847 141.947 105.398 141.94 105.975C141.94 106.037 141.939 106.1 141.939 106.163C141.938 106.314 141.937 106.465 141.935 106.616C141.985 106.597 142.036 106.577 142.088 106.557C142.924 106.238 143.729 106.045 144.631 106.052C144.685 106.052 144.739 106.052 144.795 106.053C145.78 106.064 146.629 106.269 147.513 106.701C147.563 106.725 147.613 106.75 147.664 106.774C148.874 107.396 149.927 108.421 150.537 109.64C150.551 109.668 150.565 109.696 150.58 109.725C151.245 111.066 151.46 112.646 151.133 114.111C151.126 114.145 151.118 114.178 151.11 114.213C150.824 115.455 150.239 116.567 149.345 117.475C149.312 117.508 149.28 117.54 149.247 117.574C148.415 118.369 147.137 119.078 145.98 119.178C146.028 119.239 146.028 119.239 146.077 119.3C146.857 120.3 147.384 121.493 147.556 122.755C147.561 122.79 147.565 122.824 147.57 122.859C147.707 124.071 147.498 125.307 147.002 126.418C146.981 126.466 146.96 126.514 146.938 126.564C146.64 127.2 146.214 127.748 145.725 128.249C145.687 128.29 145.687 128.29 145.649 128.331C144.843 129.186 143.696 129.683 142.574 129.952C142.527 129.963 142.527 129.963 142.48 129.975C142.048 130.076 141.623 130.089 141.181 130.09C141.085 130.09 140.988 130.092 140.891 130.093C140.304 130.097 139.738 130.014 139.175 129.84C139.122 129.824 139.122 129.824 139.069 129.808C138.23 129.54 137.448 129.125 136.782 128.547C136.747 128.516 136.712 128.485 136.675 128.454C136.568 128.359 136.462 128.262 136.356 128.164C136.325 128.135 136.293 128.106 136.261 128.077C135.894 127.729 135.612 127.307 135.334 126.886C135.311 126.924 135.288 126.962 135.264 127.001C135.059 127.333 134.842 127.628 134.568 127.908C134.533 127.944 134.498 127.98 134.461 128.017C134.426 128.051 134.391 128.086 134.355 128.121C134.329 128.148 134.303 128.176 134.277 128.204C133.133 129.393 131.485 130.064 129.846 130.096C129.241 130.104 128.644 130.097 128.053 129.952C128 129.94 127.948 129.928 127.894 129.916C126.757 129.638 125.86 129.104 124.987 128.334C124.956 128.307 124.926 128.281 124.895 128.254C123.806 127.231 123.095 125.594 123.021 124.108C122.997 122.241 123.407 120.617 124.646 119.178C124.591 119.177 124.537 119.175 124.481 119.173C123.42 119.063 122.373 118.41 121.58 117.73C121.541 117.698 121.503 117.665 121.463 117.631C121.186 117.388 120.951 117.13 120.728 116.836C120.711 116.814 120.694 116.791 120.676 116.768C119.908 115.756 119.416 114.491 119.396 113.212C119.396 113.179 119.395 113.146 119.395 113.113C119.381 112.076 119.472 111.116 119.877 110.151C119.889 110.121 119.901 110.092 119.913 110.062C120.218 109.333 120.664 108.688 121.197 108.107C121.232 108.067 121.268 108.028 121.305 107.988C121.814 107.454 122.414 107.034 123.07 106.701C123.097 106.688 123.124 106.674 123.152 106.66C124.77 105.845 126.526 105.905 128.215 106.457C128.361 106.506 128.505 106.561 128.649 106.616C128.648 106.573 128.648 106.573 128.647 106.53C128.606 104.527 129.104 102.574 130.516 101.091C130.575 101.031 130.634 100.97 130.693 100.91C130.718 100.882 130.744 100.854 130.77 100.825C131.179 100.383 131.74 100.078 132.268 99.8027C132.295 99.789 132.321 99.7753 132.348 99.7613C133.157 99.3456 134.05 99.1097 134.959 99.0752ZM131.843 101.889C131.79 101.937 131.79 101.937 131.736 101.985C130.794 102.88 130.188 104.236 130.135 105.536C130.112 106.575 130.261 107.525 130.712 108.469C130.813 108.689 130.858 108.886 130.821 109.129C130.72 109.274 130.606 109.337 130.437 109.384C130.21 109.414 130.081 109.372 129.898 109.248C129.775 109.153 129.658 109.052 129.54 108.95C128.293 107.874 126.76 107.413 125.123 107.521C123.875 107.659 122.81 108.397 122.02 109.341C121.267 110.289 120.834 111.467 120.845 112.679C120.846 112.749 120.846 112.749 120.846 112.821C120.865 114.26 121.43 115.512 122.424 116.543C123.297 117.394 124.408 117.88 125.629 117.872C125.66 117.871 125.692 117.871 125.724 117.87C125.82 117.869 125.915 117.868 126.011 117.868C126.355 117.866 126.694 117.852 127.037 117.82C127.216 117.814 127.307 117.844 127.456 117.943C127.591 118.091 127.614 118.246 127.607 118.44C127.517 118.833 127.009 119.107 126.698 119.317C125.664 120.034 124.936 121.154 124.611 122.361C124.602 122.394 124.594 122.427 124.585 122.461C124.28 123.659 124.456 125.084 125.076 126.158C125.295 126.517 125.545 126.839 125.838 127.141C125.865 127.171 125.891 127.2 125.918 127.23C126.679 128.041 127.951 128.579 129.053 128.64C129.795 128.656 130.492 128.66 131.204 128.419C131.233 128.409 131.262 128.4 131.292 128.39C131.918 128.178 132.506 127.845 132.992 127.397C133.025 127.367 133.025 127.367 133.059 127.336C134 126.462 134.47 125.388 134.78 124.157C134.845 123.97 134.938 123.822 135.092 123.698C135.278 123.62 135.43 123.624 135.619 123.69C135.883 123.925 135.944 124.345 136.029 124.674C136.146 125.106 136.285 125.506 136.484 125.907C136.515 125.97 136.515 125.97 136.546 126.034C137.122 127.155 138.144 127.986 139.33 128.39C140.742 128.83 142.156 128.765 143.481 128.085C144.642 127.465 145.506 126.438 145.911 125.186C146.22 124.166 146.254 123.139 145.938 122.117C145.928 122.086 145.919 122.055 145.909 122.023C145.583 121.003 144.923 120.118 144.107 119.434C144.082 119.411 144.057 119.388 144.031 119.364C143.899 119.244 143.764 119.133 143.617 119.031C143.59 119.013 143.563 118.995 143.536 118.976C143.483 118.939 143.43 118.904 143.376 118.869C143.204 118.752 143.113 118.65 143.042 118.454C143.028 118.32 143.045 118.201 143.085 118.071C143.178 117.956 143.251 117.882 143.383 117.816C143.458 117.812 143.534 117.81 143.609 117.81C143.649 117.81 143.689 117.81 143.731 117.81C143.851 117.816 143.851 117.816 143.948 117.837C144.186 117.881 144.43 117.869 144.671 117.869C144.7 117.869 144.728 117.869 144.758 117.869C146.223 117.867 147.42 117.312 148.45 116.283C149.329 115.327 149.833 114.037 149.826 112.74C149.826 112.694 149.826 112.647 149.826 112.6C149.805 111.255 149.249 110.01 148.323 109.043C148.29 109.008 148.258 108.973 148.225 108.937C147.411 108.083 146.27 107.535 145.086 107.498C144.999 107.497 144.912 107.497 144.825 107.497C144.756 107.497 144.756 107.497 144.685 107.498C143.349 107.518 141.996 108.051 141.041 109C141.016 109.026 140.991 109.052 140.966 109.078C140.792 109.256 140.633 109.371 140.378 109.403C140.213 109.382 140.114 109.35 139.976 109.256C139.851 109.083 139.84 108.964 139.87 108.756C139.908 108.583 139.98 108.425 140.051 108.264C140.223 107.85 140.349 107.437 140.445 106.999C140.455 106.952 140.465 106.904 140.476 106.855C140.618 106.06 140.571 105.221 140.359 104.444C140.352 104.416 140.344 104.387 140.336 104.357C139.973 103.059 139.093 101.891 137.932 101.208C135.963 100.117 133.514 100.385 131.843 101.889Z" fill="black"/>
<path d="M139.139 110.884C139.25 110.978 139.358 111.075 139.465 111.173C139.497 111.201 139.528 111.229 139.56 111.258C140.603 112.249 141.221 113.757 141.266 115.183C141.29 116.531 141.026 117.77 140.232 118.88C140.215 118.905 140.197 118.929 140.179 118.954C139.28 120.192 137.981 121.142 136.45 121.385C136.136 121.43 135.822 121.465 135.505 121.478C135.424 121.481 135.424 121.481 135.34 121.485C133.695 121.53 132.225 120.83 131.034 119.732C130.028 118.756 129.395 117.274 129.366 115.875C129.362 115.38 129.37 114.898 129.458 114.409C129.463 114.381 129.468 114.353 129.474 114.324C129.746 112.868 130.59 111.576 131.804 110.73C134.02 109.236 137.016 109.144 139.139 110.884Z" fill="#F8E482"/>
<path d="M139.139 110.884C139.25 110.978 139.358 111.075 139.465 111.173C139.497 111.201 139.528 111.229 139.56 111.258C140.603 112.249 141.221 113.757 141.266 115.183C141.29 116.531 141.026 117.77 140.232 118.88C140.215 118.905 140.197 118.929 140.179 118.954C139.28 120.192 137.981 121.142 136.45 121.385C136.136 121.43 135.822 121.465 135.505 121.478C135.424 121.481 135.424 121.481 135.34 121.485C133.695 121.53 132.225 120.83 131.034 119.732C130.028 118.756 129.395 117.274 129.366 115.875C129.362 115.38 129.37 114.898 129.458 114.409C129.463 114.381 129.468 114.353 129.474 114.324C129.746 112.868 130.59 111.576 131.804 110.73C134.02 109.236 137.016 109.144 139.139 110.884ZM132.354 112.152C132.333 112.171 132.313 112.189 132.291 112.209C131.435 112.988 130.882 114.11 130.816 115.269C130.762 116.537 131.173 117.681 132.027 118.63C132.751 119.411 133.733 119.957 134.807 120.042C134.961 120.047 135.114 120.048 135.268 120.046C135.322 120.046 135.377 120.045 135.432 120.045C135.812 120.038 136.162 120.016 136.527 119.902C136.554 119.894 136.58 119.886 136.608 119.877C137.311 119.653 137.903 119.294 138.443 118.795C138.472 118.77 138.5 118.746 138.529 118.72C139.241 118.063 139.757 116.959 139.813 115.998C139.859 114.639 139.538 113.448 138.607 112.429C137.853 111.629 136.833 111.087 135.722 111.04C134.436 111.007 133.326 111.271 132.354 112.152Z" fill="black"/>
</svg>
