<svg width="350" height="350" viewBox="0 0 350 350" fill="none" xmlns="http://www.w3.org/2000/svg">
<path d="M168.586 88.6906C171.624 91.1508 173.804 95.0471 174.344 98.9225C174.54 101.391 174.565 103.915 173.715 106.268C174.059 106.28 174.059 106.28 174.41 106.292C178.882 106.471 183.218 107.109 187.567 108.157C187.855 108.225 187.855 108.225 188.149 108.294C193.485 109.557 198.606 111.391 203.518 113.824C203.71 113.919 203.901 114.013 204.098 114.11C208.174 116.139 211.941 118.518 215.482 121.38C215.609 121.483 215.736 121.586 215.867 121.691C218.743 124.034 221.385 126.641 223.667 129.566C223.99 129.955 224.314 130.344 224.638 130.733C227.162 133.836 229.1 137.331 230.825 140.93C231.003 141.298 231.186 141.663 231.369 142.028C234.317 148.054 236.129 154.638 237.37 161.21C237.923 164.089 238.624 166.822 239.589 169.584C240.303 171.633 240.836 173.583 241.088 175.74C241.125 175.986 241.162 176.231 241.2 176.484C242.243 185.004 239.801 193.707 234.581 200.507C231.563 204.348 228.057 207.429 223.877 209.951C223.744 210.032 223.61 210.113 223.473 210.196C221.075 211.631 221.075 211.631 220.309 211.631C220.309 211.769 220.309 211.908 220.309 212.05C220.461 212.103 220.613 212.155 220.769 212.209C221.762 212.648 222.518 213.382 223.339 214.081C223.659 214.352 223.983 214.617 224.308 214.881C225.963 216.243 227.492 217.724 229.006 219.239C229.155 219.387 229.155 219.387 229.307 219.539C230.363 220.595 231.393 221.663 232.366 222.797C232.87 223.38 233.399 223.938 233.925 224.499C234.854 225.499 235.743 226.519 236.596 227.584C236.972 228.052 237.351 228.515 237.734 228.976C241.062 232.991 243.92 237.062 245.561 242.048C245.681 242.409 245.807 242.768 245.935 243.126C246.803 245.904 246.815 249.731 245.495 252.348C245.422 252.496 245.348 252.644 245.272 252.797C243.597 255.757 241.105 257.406 237.939 258.435C232.884 259.601 227.328 258.017 222.828 255.706C222.897 255.845 222.966 255.983 223.038 256.126C224.65 266.479 224.126 277.434 217.762 286.147C213.216 292.168 206.889 295.496 199.95 298.103C199.95 301.081 199.95 304.059 199.95 307.128C200.574 307.267 201.197 307.405 201.839 307.548C202.784 307.839 203.715 308.166 204.646 308.497C205.077 308.649 205.509 308.797 205.941 308.946C208.535 309.852 210.61 310.834 212.097 313.215C212.705 314.813 212.584 317.082 211.949 318.659C211.027 320.285 209.758 321.406 207.964 321.932C207.465 322.039 207.014 322.057 206.504 322.058C206.314 322.058 206.123 322.058 205.927 322.058C205.729 322.058 205.532 322.057 205.328 322.056C205.035 322.057 205.035 322.057 204.735 322.058C203.746 322.057 202.812 322.025 201.839 321.82C201.849 321.965 201.859 322.109 201.869 322.259C201.945 324.248 201.449 325.692 200.1 327.171C198.906 328.219 197.469 328.615 195.911 328.594C194.28 328.43 192.701 327.598 191.555 326.437C190.824 325.444 190.203 324.399 189.666 323.289C189.534 323.375 189.402 323.461 189.266 323.55C187.279 324.8 185.532 325.277 183.159 324.968C181.609 324.451 180.217 323.681 179.382 322.24C178.437 320.337 178.209 318.52 178.844 316.481C179.665 314.454 181.152 312.845 182.709 311.348C183.285 310.783 183.809 310.182 184.333 309.569C184.561 309.305 184.802 309.053 185.048 308.807C185.1 308.251 185.127 307.716 185.135 307.159C185.139 306.997 185.143 306.834 185.148 306.667C185.16 306.147 185.17 305.628 185.18 305.108C185.188 304.756 185.196 304.404 185.204 304.052C185.224 303.188 185.242 302.325 185.258 301.461C185.106 301.487 184.955 301.514 184.798 301.541C179.563 302.434 174.435 302.606 169.14 302.578C168.416 302.575 167.693 302.577 166.97 302.578C163.254 302.582 159.567 302.561 155.874 302.091C155.623 302.06 155.371 302.029 155.112 301.997C154.534 301.922 153.958 301.839 153.382 301.75C153.098 301.707 153.098 301.707 152.808 301.664C152.361 301.598 151.914 301.53 151.467 301.461C151.43 302.447 151.404 303.432 151.386 304.418C151.379 304.752 151.369 305.087 151.356 305.422C151.208 307.668 151.208 307.668 152.158 309.619C152.41 309.846 152.67 310.066 152.936 310.276C155.376 312.596 157.945 315.274 158.078 318.829C157.988 320.556 157.444 322.225 156.136 323.414C154.491 324.727 153.074 325.102 150.965 325.057C149.281 324.86 147.775 324.088 146.43 323.079C146.417 323.332 146.417 323.332 146.403 323.591C145.979 325.32 144.727 326.703 143.281 327.697C141.74 328.55 140.255 328.833 138.537 328.398C136.911 327.829 135.807 326.887 135.004 325.362C134.511 324.151 134.605 322.894 134.676 321.61C134.526 321.678 134.375 321.746 134.22 321.816C133.246 322.167 132.278 322.099 131.252 322.095C131.041 322.099 130.829 322.102 130.612 322.106C128.528 322.107 127.185 321.621 125.648 320.181C124.251 318.639 124.064 316.874 124.112 314.858C124.274 312.989 125.196 311.871 126.575 310.676C127.475 310.016 128.444 309.674 129.495 309.319C129.712 309.241 129.929 309.164 130.153 309.084C130.82 308.848 131.488 308.617 132.157 308.387C132.578 308.239 132.999 308.09 133.419 307.941C134.396 307.595 135.375 307.257 136.355 306.918C136.494 304.009 136.632 301.1 136.775 298.103C135.788 297.739 135.788 297.739 134.781 297.368C132.783 296.617 130.893 295.745 129.009 294.745C128.806 294.642 128.602 294.539 128.393 294.433C121.661 290.95 116.73 284.725 114.322 277.598C112.123 270.498 112.68 262.966 113.688 255.706C113.581 255.752 113.475 255.797 113.366 255.844C108.336 257.972 102.59 259.925 97.2084 257.905C94.4411 256.732 91.9214 254.775 90.7651 251.931C89.0898 247.143 90.3887 242.397 92.5114 237.973C93.509 235.98 94.7093 234.178 96.0573 232.409C96.1453 232.292 96.2333 232.175 96.324 232.055C97.5243 230.461 98.7657 228.903 100.045 227.372C100.18 227.209 100.18 227.209 100.318 227.044C102.743 224.141 105.353 221.419 108.021 218.74C108.184 218.576 108.347 218.412 108.515 218.243C109.506 217.255 110.525 216.317 111.589 215.408C111.823 215.205 112.057 215.001 112.291 214.797C113.475 213.775 114.631 212.827 115.996 212.05C115.383 211.554 114.731 211.175 114.038 210.8C111.475 209.413 109.19 207.814 107.066 205.816C106.621 205.399 106.166 205.004 105.699 204.612C99.671 199.333 95.8193 190.789 95.2686 182.862C95.0631 179.081 95.1569 175.319 96.0967 171.634C96.1507 171.42 96.1507 171.42 96.2059 171.201C96.4293 170.389 96.7004 169.61 97.022 168.833C97.9088 166.682 98.4924 164.603 98.9005 162.314C99.0652 161.395 99.2434 160.479 99.4212 159.562C99.4561 159.382 99.4909 159.201 99.5268 159.015C99.9896 156.649 100.607 154.331 101.304 152.023C101.361 151.834 101.418 151.645 101.477 151.45C104.393 141.927 109.08 133.189 115.996 125.998C116.095 125.894 116.193 125.791 116.295 125.685C117.474 124.457 118.696 123.328 120.028 122.269C120.42 121.955 120.806 121.633 121.186 121.305C122.981 119.752 124.908 118.451 126.91 117.182C127.053 117.092 127.196 117.001 127.344 116.907C135.509 111.776 145.014 108.676 154.51 107.239C154.742 107.204 154.973 107.169 155.212 107.132C156.562 106.941 157.87 106.854 159.233 106.898C159.233 106.76 159.233 106.621 159.233 106.478C159.094 106.435 158.956 106.392 158.813 106.347C158.253 106.09 157.906 105.85 157.435 105.468C155.65 104.106 153.74 103.636 151.54 103.446C150.797 103.323 150.38 103.16 149.788 102.7C149.223 101.856 149.18 100.953 149.368 99.9719C149.828 99.1304 150.333 98.6232 151.223 98.2584C153.744 97.5916 156.197 98.3153 158.444 99.4874C159.144 99.9054 159.822 100.348 160.492 100.811C160.633 100.909 160.775 101.006 160.92 101.106C161.975 101.837 163.019 102.58 164.06 103.33C164.241 103.46 164.241 103.46 164.427 103.593C166.18 104.853 166.18 104.853 166.929 105.475C167.371 105.891 167.371 105.891 167.838 105.849C167.987 105.479 167.987 105.479 168.14 105.101C168.196 104.962 168.252 104.823 168.309 104.68C169.025 102.371 168.989 99.4755 168.048 97.2434C167.979 97.0719 167.91 96.9003 167.839 96.7236C166.9 94.625 165.378 93.1215 163.465 91.8856C162.772 91.4143 162.439 91.1212 162.171 90.3172C162.093 89.2655 162.146 88.64 162.801 87.7986C164.663 86.1164 166.879 87.4218 168.586 88.6906Z" fill="#FFF1A6"/>
<path d="M168.586 88.6906C171.624 91.1508 173.804 95.0471 174.344 98.9225C174.54 101.391 174.565 103.915 173.715 106.268C174.059 106.28 174.059 106.28 174.41 106.292C178.882 106.471 183.218 107.109 187.567 108.157C187.855 108.225 187.855 108.225 188.149 108.294C193.485 109.557 198.606 111.391 203.518 113.824C203.71 113.919 203.901 114.013 204.098 114.11C208.174 116.139 211.941 118.518 215.482 121.38C215.609 121.483 215.736 121.586 215.867 121.691C218.743 124.034 221.385 126.641 223.667 129.566C223.99 129.955 224.314 130.344 224.638 130.733C227.162 133.836 229.1 137.331 230.825 140.93C231.003 141.298 231.186 141.663 231.369 142.028C234.317 148.054 236.129 154.638 237.37 161.21C237.923 164.089 238.624 166.822 239.589 169.584C240.303 171.633 240.836 173.583 241.088 175.74C241.125 175.986 241.162 176.231 241.2 176.484C242.243 185.004 239.801 193.707 234.581 200.507C231.563 204.348 228.057 207.429 223.877 209.951C223.744 210.032 223.61 210.113 223.473 210.196C221.075 211.631 221.075 211.631 220.309 211.631C220.309 211.769 220.309 211.908 220.309 212.05C220.461 212.103 220.613 212.155 220.769 212.209C221.762 212.648 222.518 213.382 223.339 214.081C223.659 214.352 223.983 214.617 224.308 214.881C225.963 216.243 227.492 217.724 229.006 219.239C229.155 219.387 229.155 219.387 229.307 219.539C230.363 220.595 231.393 221.663 232.366 222.797C232.87 223.38 233.399 223.938 233.925 224.499C234.854 225.499 235.743 226.519 236.596 227.584C236.972 228.052 237.351 228.515 237.734 228.976C241.062 232.991 243.92 237.062 245.561 242.048C245.681 242.409 245.807 242.768 245.935 243.126C246.803 245.904 246.815 249.731 245.495 252.348C245.422 252.496 245.348 252.644 245.272 252.797C243.597 255.757 241.105 257.406 237.939 258.435C232.884 259.601 227.328 258.017 222.828 255.706C222.897 255.845 222.966 255.983 223.038 256.126C224.65 266.479 224.126 277.434 217.762 286.147C213.216 292.168 206.889 295.496 199.95 298.103C199.95 301.081 199.95 304.059 199.95 307.128C200.574 307.267 201.197 307.405 201.839 307.548C202.784 307.839 203.715 308.166 204.646 308.497C205.077 308.649 205.509 308.797 205.941 308.946C208.535 309.852 210.61 310.834 212.097 313.215C212.705 314.813 212.584 317.082 211.949 318.659C211.027 320.285 209.758 321.406 207.964 321.932C207.465 322.039 207.014 322.057 206.504 322.058C206.314 322.058 206.123 322.058 205.927 322.058C205.729 322.058 205.532 322.057 205.328 322.056C205.035 322.057 205.035 322.057 204.735 322.058C203.746 322.057 202.812 322.025 201.839 321.82C201.849 321.965 201.859 322.109 201.869 322.259C201.945 324.248 201.449 325.692 200.1 327.171C198.906 328.219 197.469 328.615 195.911 328.594C194.28 328.43 192.701 327.598 191.555 326.437C190.824 325.444 190.203 324.399 189.666 323.289C189.534 323.375 189.402 323.461 189.266 323.55C187.279 324.8 185.532 325.277 183.159 324.968C181.609 324.451 180.217 323.681 179.382 322.24C178.437 320.337 178.209 318.52 178.844 316.481C179.665 314.454 181.152 312.845 182.709 311.348C183.285 310.783 183.809 310.182 184.333 309.569C184.561 309.305 184.802 309.053 185.048 308.807C185.1 308.251 185.127 307.716 185.135 307.159C185.139 306.997 185.143 306.834 185.148 306.667C185.16 306.147 185.17 305.628 185.18 305.108C185.188 304.756 185.196 304.404 185.204 304.052C185.224 303.188 185.242 302.325 185.258 301.461C185.106 301.487 184.955 301.514 184.798 301.541C179.563 302.434 174.435 302.606 169.14 302.578C168.416 302.575 167.693 302.577 166.97 302.578C163.254 302.582 159.567 302.561 155.874 302.091C155.623 302.06 155.371 302.029 155.112 301.997C154.534 301.922 153.958 301.839 153.382 301.75C153.098 301.707 153.098 301.707 152.808 301.664C152.361 301.598 151.914 301.53 151.467 301.461C151.43 302.447 151.404 303.432 151.386 304.418C151.379 304.752 151.369 305.087 151.356 305.422C151.208 307.668 151.208 307.668 152.158 309.619C152.41 309.846 152.67 310.066 152.936 310.276C155.376 312.596 157.945 315.274 158.078 318.829C157.988 320.556 157.444 322.225 156.136 323.414C154.491 324.727 153.074 325.102 150.965 325.057C149.281 324.86 147.775 324.088 146.43 323.079C146.417 323.332 146.417 323.332 146.403 323.591C145.979 325.32 144.727 326.703 143.281 327.697C141.74 328.55 140.255 328.833 138.537 328.398C136.911 327.829 135.807 326.887 135.004 325.362C134.511 324.151 134.605 322.894 134.676 321.61C134.526 321.678 134.375 321.746 134.22 321.816C133.246 322.167 132.278 322.099 131.252 322.095C131.041 322.099 130.829 322.102 130.612 322.106C128.528 322.107 127.185 321.621 125.648 320.181C124.251 318.639 124.064 316.874 124.112 314.858C124.274 312.989 125.196 311.871 126.575 310.676C127.475 310.016 128.444 309.674 129.495 309.319C129.712 309.241 129.929 309.164 130.153 309.084C130.82 308.848 131.488 308.617 132.157 308.387C132.578 308.239 132.999 308.09 133.419 307.941C134.396 307.595 135.375 307.257 136.355 306.918C136.494 304.009 136.632 301.1 136.775 298.103C135.788 297.739 135.788 297.739 134.781 297.368C132.783 296.617 130.893 295.745 129.009 294.745C128.806 294.642 128.602 294.539 128.393 294.433C121.661 290.95 116.73 284.725 114.322 277.598C112.123 270.498 112.68 262.966 113.688 255.706C113.581 255.752 113.475 255.797 113.366 255.844C108.336 257.972 102.59 259.925 97.2084 257.905C94.4411 256.732 91.9214 254.775 90.7651 251.931C89.0898 247.143 90.3887 242.397 92.5114 237.973C93.509 235.98 94.7093 234.178 96.0573 232.409C96.1453 232.292 96.2333 232.175 96.324 232.055C97.5243 230.461 98.7657 228.903 100.045 227.372C100.18 227.209 100.18 227.209 100.318 227.044C102.743 224.141 105.353 221.419 108.021 218.74C108.184 218.576 108.347 218.412 108.515 218.243C109.506 217.255 110.525 216.317 111.589 215.408C111.823 215.205 112.057 215.001 112.291 214.797C113.475 213.775 114.631 212.827 115.996 212.05C115.383 211.554 114.731 211.175 114.038 210.8C111.475 209.413 109.19 207.814 107.066 205.816C106.621 205.399 106.166 205.004 105.699 204.612C99.671 199.333 95.8193 190.789 95.2686 182.862C95.0631 179.081 95.1569 175.319 96.0967 171.634C96.1507 171.42 96.1507 171.42 96.2059 171.201C96.4293 170.389 96.7004 169.61 97.022 168.833C97.9088 166.682 98.4924 164.603 98.9005 162.314C99.0652 161.395 99.2434 160.479 99.4212 159.562C99.4561 159.382 99.4909 159.201 99.5268 159.015C99.9896 156.649 100.607 154.331 101.304 152.023C101.361 151.834 101.418 151.645 101.477 151.45C104.393 141.927 109.08 133.189 115.996 125.998C116.095 125.894 116.193 125.791 116.295 125.685C117.474 124.457 118.696 123.328 120.028 122.269C120.42 121.955 120.806 121.633 121.186 121.305C122.981 119.752 124.908 118.451 126.91 117.182C127.053 117.092 127.196 117.001 127.344 116.907C135.509 111.776 145.014 108.676 154.51 107.239C154.742 107.204 154.973 107.169 155.212 107.132C156.562 106.941 157.87 106.854 159.233 106.898C159.233 106.76 159.233 106.621 159.233 106.478C159.094 106.435 158.956 106.392 158.813 106.347C158.253 106.09 157.906 105.85 157.435 105.468C155.65 104.106 153.74 103.636 151.54 103.446C150.797 103.323 150.38 103.16 149.788 102.7C149.223 101.856 149.18 100.953 149.368 99.9719C149.828 99.1304 150.333 98.6232 151.223 98.2584C153.744 97.5916 156.197 98.3153 158.444 99.4874C159.144 99.9054 159.822 100.348 160.492 100.811C160.633 100.909 160.775 101.006 160.92 101.106C161.975 101.837 163.019 102.58 164.06 103.33C164.241 103.46 164.241 103.46 164.427 103.593C166.18 104.853 166.18 104.853 166.929 105.475C167.371 105.891 167.371 105.891 167.838 105.849C167.987 105.479 167.987 105.479 168.14 105.101C168.196 104.962 168.252 104.823 168.309 104.68C169.025 102.371 168.989 99.4755 168.048 97.2434C167.979 97.0719 167.91 96.9003 167.839 96.7236C166.9 94.625 165.378 93.1215 163.465 91.8856C162.772 91.4143 162.439 91.1212 162.171 90.3172C162.093 89.2655 162.146 88.64 162.801 87.7986C164.663 86.1164 166.879 87.4218 168.586 88.6906ZM121.243 128.306C121.02 128.52 121.02 128.52 120.792 128.738C118.472 130.962 116.374 133.231 114.527 135.862C114.434 135.994 114.34 136.126 114.243 136.262C108.81 143.958 105.057 153.457 104.119 162.847C103.868 165.306 103.355 167.401 102.442 169.701C101.1 173.084 100.502 176.107 100.653 179.749C100.676 180.381 100.683 181.012 100.689 181.644C100.751 185.786 101.824 189.039 103.613 192.741C103.68 192.881 103.747 193.021 103.816 193.166C107.186 200.154 113.975 205.599 121.23 208.148C122.442 208.565 123.657 208.973 124.879 209.363C125.022 209.409 125.166 209.456 125.313 209.505C125.707 209.633 126.101 209.759 126.496 209.884C127.162 210.18 127.404 210.369 127.75 211.001C128.001 212.041 128.089 212.431 127.592 213.388C127.071 213.997 126.751 214.336 125.937 214.407C125.726 214.404 125.515 214.401 125.297 214.398C125.088 214.397 124.88 214.396 124.665 214.394C123.972 214.359 123.972 214.359 123.164 214.182C122.039 214.035 121.345 214.624 120.47 215.264C120.305 215.379 120.141 215.495 119.971 215.613C119.481 215.959 118.997 216.312 118.515 216.668C118.382 216.765 118.25 216.863 118.113 216.963C117.324 217.548 116.553 218.153 115.786 218.767C115.479 219.01 115.479 219.01 115.165 219.258C114.114 220.1 113.133 220.97 112.195 221.937C111.802 222.331 111.395 222.694 110.972 223.056C109.59 224.249 108.338 225.55 107.153 226.936C106.71 227.429 106.241 227.883 105.764 228.343C100.965 233.106 95.5714 240.784 95.3227 247.731C95.3879 249.38 95.8695 250.35 97.0674 251.469C99.3334 253.318 102.297 253.228 105.082 252.978C107.611 252.547 109.998 251.519 112.221 250.266C112.661 250.027 113.109 249.817 113.563 249.606C115.117 248.849 115.117 248.849 116.196 247.552C116.511 246.583 116.606 245.577 116.735 244.57C116.932 243.365 117.284 242.199 117.623 241.027C117.695 240.777 117.768 240.527 117.843 240.269C118.3 238.723 118.792 237.195 119.368 235.689C119.429 235.522 119.49 235.355 119.553 235.183C120.005 234.061 120.612 233.249 121.663 232.619C122.321 232.444 122.641 232.494 123.342 232.619C123.907 233.076 124.277 233.44 124.602 234.088C124.719 235.33 124.545 236.408 124.116 237.577C124.062 237.733 124.008 237.889 123.952 238.05C123.577 239.125 123.181 240.194 122.789 241.263C121.056 246.004 119.791 250.738 119.027 255.738C118.967 256.129 118.904 256.52 118.839 256.911C118.33 259.996 118.24 263.054 118.226 266.174C118.224 266.459 118.224 266.459 118.221 266.75C118.199 270.044 118.38 273.418 119.499 276.55C119.552 276.704 119.605 276.857 119.66 277.015C120.532 279.417 121.879 281.485 123.552 283.411C123.765 283.665 123.765 283.665 123.982 283.925C130.346 291.323 140.333 293.983 149.578 295.584C149.799 295.623 150.019 295.661 150.247 295.701C151.839 295.973 153.435 296.206 155.035 296.424C155.257 296.456 155.479 296.488 155.708 296.521C167.946 298.226 181.919 297.682 193.864 294.325C194.069 294.268 194.275 294.211 194.487 294.153C200.504 292.474 206.076 290.057 210.654 285.72C210.804 285.582 210.804 285.582 210.957 285.441C215.634 281.125 217.923 275.306 218.25 268.996C218.266 268.221 218.268 267.448 218.263 266.673C218.262 266.534 218.261 266.395 218.261 266.252C218.235 261.558 217.803 256.964 216.951 252.348C216.918 252.158 216.885 251.968 216.851 251.772C216.083 247.425 214.63 243.154 213.027 239.045C212.97 238.896 212.912 238.746 212.852 238.593C212.743 238.313 212.632 238.034 212.518 237.756C212.003 236.442 211.834 235.061 212.124 233.668C212.519 233.188 212.828 232.896 213.383 232.619C214.451 232.538 215.04 232.611 215.901 233.249C218.514 236.939 219.449 242.259 220.386 246.59C220.647 247.591 220.845 248.194 221.75 248.745C221.917 248.847 222.083 248.948 222.255 249.053C222.435 249.158 222.616 249.263 222.801 249.37C222.988 249.48 223.175 249.59 223.367 249.703C227.462 252.047 232.199 253.767 236.969 252.84C238.588 252.318 239.913 251.352 240.773 249.869C241.448 248.258 241.083 246.505 240.655 244.871C240.584 244.598 240.584 244.598 240.511 244.319C238.254 236.011 231.812 229.423 225.897 223.489C225.703 223.293 225.508 223.098 225.307 222.896C224.349 221.94 223.379 221.011 222.351 220.129C221.853 219.699 221.378 219.245 220.899 218.793C219.665 217.67 218.344 216.742 216.951 215.828C216.713 215.662 216.475 215.496 216.238 215.33C214.874 214.346 214.874 214.346 213.265 214.149C213.045 214.199 213.045 214.199 212.821 214.25C211.586 214.526 210.248 214.614 209.146 213.965C208.611 213.338 208.523 212.99 208.516 212.181C208.513 212.02 208.51 211.858 208.507 211.691C208.562 211.143 208.685 210.839 208.975 210.371C209.342 210.137 209.342 210.137 209.79 209.955C209.96 209.885 210.129 209.816 210.304 209.744C211.316 209.36 212.335 208.997 213.357 208.64C217.734 207.078 221.587 205.466 225.136 202.396C225.24 202.306 225.343 202.217 225.45 202.125C230.829 197.434 234.96 191.129 235.84 183.926C235.864 183.344 235.88 182.768 235.883 182.187C235.884 182.023 235.885 181.86 235.887 181.692C235.889 181.347 235.89 181.003 235.891 180.658C235.893 180.141 235.899 179.624 235.906 179.107C235.925 176.383 235.523 173.942 234.621 171.359C234.54 171.119 234.54 171.119 234.458 170.875C234.202 170.124 233.933 169.385 233.619 168.656C232.691 166.44 232.38 164.253 232.06 161.88C230.455 150.14 225.563 139.417 217.371 130.825C217.106 130.525 216.844 130.223 216.584 129.92C212.863 125.642 208.066 122.358 203.098 119.701C202.97 119.631 202.841 119.562 202.708 119.49C196.46 116.134 189.63 114.273 182.74 112.775C182.572 112.737 182.404 112.7 182.231 112.661C181.286 112.451 180.339 112.285 179.382 112.145C179.196 112.117 179.01 112.089 178.819 112.06C159.797 109.296 137.985 113.991 121.243 128.306Z" fill="black"/>
<path d="M174.594 168.027C178.194 170.25 182.436 173.424 183.709 177.638C184.108 179.676 183.469 181.498 182.373 183.218C179.685 186.973 175.692 189.748 171.196 190.852C171.067 190.889 170.937 190.925 170.804 190.963C166.905 191.83 163.137 190.6 159.863 188.543C156.78 186.474 153.853 183.805 153.021 180.04C152.727 178.226 153.084 176.758 154.122 175.231C154.485 174.76 154.86 174.305 155.245 173.851C155.499 173.527 155.499 173.527 155.757 173.196C156.442 172.427 157.18 171.778 157.974 171.123C158.078 171.036 158.182 170.949 158.29 170.859C163.505 166.532 168.406 164.604 174.594 168.027Z" fill="black"/>
<path d="M219.732 172.618C221.777 174.555 222.809 176.987 222.901 179.774C222.937 182.834 222.179 185.699 220.042 187.995C217.63 190.249 214.788 191.246 211.529 191.182C208.547 191.038 205.761 189.697 203.729 187.494C203.231 186.827 202.84 186.138 202.469 185.395C202.367 185.192 202.264 184.988 202.158 184.779C201.084 182.368 201.081 179.686 201.817 177.162C202.242 176.097 202.839 175.189 203.519 174.271C203.629 174.12 203.739 173.968 203.852 173.813C205.521 171.72 207.894 170.553 210.445 169.916C213.97 169.622 216.984 170.333 219.732 172.618Z" fill="#F4A99C"/>
<path d="M128.17 170.703C128.466 170.837 128.466 170.837 128.769 170.973C131.448 172.299 133.046 174.434 134.046 177.21C134.682 180.433 134.362 183.773 132.512 186.549C132.261 186.87 132.003 187.185 131.738 187.494C131.618 187.642 131.497 187.79 131.374 187.942C129.761 189.752 127.147 190.993 124.731 191.14C122.592 191.195 120.871 191.014 118.935 190.013C118.743 189.916 118.551 189.82 118.354 189.721C116.117 188.498 114.529 186.373 113.714 183.965C112.962 180.77 113.241 177.3 114.912 174.456C117.862 170.163 123.364 168.471 128.17 170.703Z" fill="#F4A99C"/>
<path d="M141.812 299.572C143.994 299.988 143.994 299.988 146.22 300.412C146.212 300.886 146.205 301.359 146.197 301.847C145.845 307.94 145.845 307.94 148.308 313.242C148.768 313.704 149.236 314.156 149.709 314.605C152.015 316.795 152.015 316.795 152.162 318.291C152.096 318.882 152.096 318.882 151.677 319.511C150.72 319.481 150.204 319.386 149.519 318.699C149.29 318.452 149.065 318.203 148.843 317.95C147.966 316.959 147.371 316.393 146.01 316.153C145.137 316.168 144.7 316.237 144.013 316.782C143.355 317.577 143.12 318.323 142.835 319.301C142.172 321.509 142.172 321.509 141.602 322.24C140.828 322.41 140.828 322.41 140.133 322.45C139.76 321.805 139.661 321.335 139.656 320.594C139.651 320.401 139.647 320.209 139.643 320.011C139.637 319.608 139.633 319.205 139.631 318.802C139.612 317.665 139.612 317.665 139.153 316.65C137.857 315.89 136.012 316.332 134.597 316.573C133.559 316.749 132.553 316.835 131.501 316.848C131.241 316.852 130.981 316.855 130.713 316.859C130.059 316.783 130.059 316.783 129.64 316.529C129.429 316.153 129.429 316.153 129.453 315.644C129.639 315.104 129.639 315.104 130.102 314.763C131.779 313.979 133.48 313.355 135.24 312.782C138.23 311.916 138.23 311.916 140.655 310.086C141.62 308.112 141.455 305.503 141.531 303.338C141.537 303.152 141.544 302.967 141.551 302.775C141.556 302.613 141.561 302.451 141.566 302.283C141.62 301.377 141.722 300.475 141.812 299.572Z" fill="#FFBB4D"/>
<path d="M194.913 299.782C194.919 300.098 194.919 300.098 194.926 300.42C194.942 301.211 194.961 302.002 194.98 302.794C194.988 303.134 194.995 303.475 195.002 303.815C194.909 307.396 194.909 307.396 196.22 310.584C197.986 312.113 200.539 312.677 202.729 313.357C204.307 313.85 205.729 314.347 207.087 315.313C207.008 315.93 207.008 315.93 206.877 316.573C205.681 317.171 204.016 316.749 202.745 316.573C201.586 316.417 200.438 316.307 199.268 316.284C199.016 316.278 198.764 316.272 198.504 316.266C197.724 316.382 197.491 316.589 197.012 317.202C196.761 317.705 196.763 318.051 196.743 318.613C196.735 318.808 196.727 319.004 196.719 319.205C196.712 319.41 196.705 319.615 196.697 319.826C196.683 320.23 196.668 320.635 196.651 321.039C196.645 321.219 196.639 321.399 196.632 321.584C196.592 322.03 196.592 322.03 196.382 322.45C195.713 322.463 195.713 322.463 194.913 322.24C193.891 321.117 193.605 319.526 193.274 318.091C192.979 317.288 192.634 316.902 191.975 316.363C191.168 316.034 190.424 316.124 189.587 316.31C188.594 316.792 187.916 317.739 187.217 318.567C186.612 319.215 186.21 319.473 185.337 319.577C185.173 319.555 185.008 319.533 184.839 319.511C184.371 318.81 184.36 318.478 184.49 317.659C185.027 315.891 186.84 314.538 188.131 313.306C190.546 310.762 190.39 307.412 190.335 304.085C190.332 303.746 190.329 303.407 190.327 303.069C190.32 302.253 190.309 301.437 190.296 300.622C190.868 300.48 191.441 300.34 192.014 300.202C192.176 300.162 192.337 300.122 192.503 300.08C193.322 299.884 194.064 299.727 194.913 299.782Z" fill="#FFBB4D"/>
<path d="M200.137 159.54C201.749 160.447 202.973 162.001 203.518 163.777C203.583 164.386 203.588 164.989 203.584 165.6C203.582 165.853 203.582 165.853 203.58 166.111C203.538 168.193 203.09 169.797 201.629 171.333C200.056 172.796 198.343 173.386 196.198 173.32C194.339 173.041 192.843 172.029 191.686 170.576C190.414 168.701 190.292 166.819 190.506 164.616C190.89 162.776 191.816 161.139 193.354 160.029C195.485 158.722 197.818 158.448 200.137 159.54Z" fill="black"/>
<path d="M142.615 159.677C144.176 160.776 145.234 162.143 145.8 163.987C146.114 166.234 145.917 168.361 144.777 170.336C143.627 171.823 142.329 172.63 140.553 173.222C138.647 173.415 137.13 173.105 135.577 171.965C134.054 170.673 133.262 169.535 132.997 167.555C132.813 165.238 132.888 163.453 134.257 161.468C134.794 160.838 134.794 160.838 135.306 160.419C135.466 160.271 135.626 160.124 135.791 159.973C137.811 158.563 140.48 158.419 142.615 159.677Z" fill="black"/>
<path d="M172.163 172.029C174.548 173.394 176.799 175.119 178.333 177.419C178.333 177.627 178.333 177.835 178.333 178.049C176.195 178.622 174.184 178.712 171.975 178.714C171.684 178.715 171.392 178.715 171.1 178.716C170.49 178.717 169.88 178.718 169.27 178.718C168.497 178.718 167.724 178.72 166.95 178.724C166.348 178.726 165.745 178.727 165.143 178.727C164.722 178.727 164.301 178.729 163.88 178.732C159.527 178.721 159.527 178.721 158.184 178.049C159.291 174.84 163.257 172.572 166.159 171.123C168.405 170.292 170.098 170.985 172.163 172.029Z" fill="#FFBB4D"/>
<path d="M177.492 182.876C176.344 183.804 175.185 184.503 173.846 185.119C173.681 185.198 173.516 185.278 173.346 185.359C170.639 186.626 168.155 187.141 165.227 186.234C163.105 185.457 161.078 184.393 159.232 183.086C159.232 183.017 159.232 182.948 159.232 182.876C159.431 182.877 159.63 182.877 159.835 182.878C161.712 182.882 163.589 182.885 165.467 182.887C166.432 182.888 167.397 182.89 168.362 182.892C169.294 182.894 170.226 182.896 171.159 182.896C171.513 182.896 171.868 182.897 172.223 182.898C172.722 182.9 173.221 182.9 173.719 182.9C173.864 182.901 174.01 182.902 174.159 182.902C174.888 182.901 175.591 182.858 176.311 182.757C177.073 182.666 177.073 182.666 177.492 182.876Z" fill="#FFBB4D"/>
<path d="M141.955 137.564C142.035 137.574 142.115 137.585 142.197 137.596C144.925 137.964 148.702 138.498 150.559 140.8C150.907 141.317 151.084 141.652 150.986 142.29C150.864 142.689 150.606 142.993 150.29 143.26C149.792 143.484 149.341 143.404 148.828 143.261C148.391 143.056 147.983 142.809 147.57 142.56C146.006 141.632 144.521 141.16 142.722 140.898C142.523 140.869 142.523 140.869 142.321 140.84C141.135 140.68 139.957 140.626 138.772 140.82C138.696 140.832 138.621 140.843 138.543 140.855C137.964 140.948 137.401 141.081 136.837 141.242C136.302 141.382 135.755 141.422 135.249 141.155C134.951 140.945 134.791 140.769 134.616 140.445C134.519 139.861 134.563 139.312 134.851 138.788C135.439 138.288 136.126 138.081 136.863 137.905C136.956 137.883 137.049 137.861 137.144 137.838C138.72 137.478 140.351 137.346 141.955 137.564Z" fill="black"/>
<path d="M202.531 145.005C202.634 145.06 202.634 145.06 202.739 145.116C203.275 145.431 203.706 145.839 203.912 146.476C203.964 147.114 203.91 147.544 203.603 148.113C203.174 148.556 202.803 148.757 202.204 148.748C201.617 148.661 201.059 148.404 200.504 148.188C198.981 147.597 197.622 147.346 196.004 147.351C195.89 147.351 195.89 147.351 195.774 147.351C193.797 147.359 191.804 147.552 189.957 148.371C189.392 148.612 188.916 148.626 188.323 148.472C187.802 148.152 187.62 147.771 187.444 147.157C187.37 146.596 187.388 146.203 187.623 145.692C188.586 144.479 189.796 144.236 191.215 144.003C191.434 143.966 191.653 143.928 191.872 143.889C195.327 143.301 199.324 143.284 202.531 145.005Z" fill="black"/>
<path d="M247.039 135.946C250.863 136.316 254.53 137.636 257.335 140.354L257.603 140.621L257.62 140.638L257.636 140.655C260.211 143.412 261.231 146.814 260.902 150.262L260.901 150.274C260.44 154.786 257.627 157.836 254.269 160.227L254.267 160.229C254.161 160.304 254.054 160.378 253.948 160.454C253.893 160.492 253.839 160.531 253.784 160.57L253.783 160.571C253.508 160.767 253.229 160.961 252.95 161.156C251.916 161.882 251.329 162.505 250.944 163.137C250.556 163.772 250.29 164.551 250.098 165.721L250.094 165.742C250.08 165.823 250.066 165.905 250.052 165.988C250.041 166.053 250.03 166.118 250.019 166.184L249.996 166.33L249.95 166.471C249.748 167.103 249.434 167.527 249.019 167.91L248.756 168.152L248.424 168.288C247.607 168.623 246.945 168.648 246.244 168.579L246.245 168.58C246.151 168.572 246.151 168.571 246.055 168.562L244.991 168.455C244.685 168.425 244.38 168.394 244.075 168.362C243.697 168.322 243.316 168.285 242.932 168.248L241.61 168.114C241.401 168.094 241.194 168.073 240.993 168.051L240.993 168.05L240.56 168.007L240.462 167.987C239.512 167.792 238.966 167.322 238.586 166.972L238.321 166.729L238.157 166.407C237.612 165.335 237.85 164.261 237.877 164.043C237.887 163.956 237.897 163.87 237.907 163.781L237.909 163.761C238.179 161.598 238.814 159.739 239.916 158.074C241.007 156.425 242.488 155.072 244.298 153.82L244.312 153.81L244.325 153.802C244.616 153.607 244.912 153.426 245.165 153.271C246.01 152.743 246.785 152.157 247.466 151.517L247.479 151.506L247.491 151.494C247.561 151.431 247.631 151.367 247.703 151.302C248.587 150.465 248.921 149.707 248.949 148.661C248.89 148.236 248.655 147.761 248.227 147.376C247.618 146.959 246.955 146.702 246.135 146.579L246.127 146.577C246.059 146.566 245.992 146.556 245.923 146.545C244.747 146.396 243.856 146.522 243.166 146.913C242.425 147.43 241.842 148.101 241.175 148.993L241.169 149C241.131 149.051 241.091 149.101 241.052 149.153C240.996 149.23 240.997 149.231 240.94 149.309L240.863 149.415L240.772 149.51C240.152 150.162 239.459 150.379 238.906 150.485L238.703 150.523L238.499 150.52C237.495 150.505 236.566 150.069 235.991 149.772C235.67 149.606 235.361 149.428 235.11 149.284C234.975 149.206 234.859 149.14 234.759 149.083L234.492 148.94C234.248 148.816 234.004 148.692 233.757 148.567L233.755 148.567C233.597 148.487 233.439 148.407 233.281 148.327L233.281 148.326C233.209 148.289 233.136 148.253 233.062 148.215L233.059 148.214C232.546 147.954 232.118 147.74 231.815 147.54C231.347 147.23 231.108 146.914 230.948 146.711L230.696 146.39L230.589 145.995C230.232 144.668 230.687 143.639 231.179 142.905L231.177 142.905C231.229 142.827 231.229 142.827 231.282 142.748L231.291 142.733C232.303 141.222 233.506 139.989 234.973 138.881C235.049 138.822 235.125 138.764 235.203 138.703L235.216 138.694L235.229 138.683C237.34 137.108 239.782 136.251 242.374 135.898L242.374 135.897C242.448 135.886 242.525 135.876 242.601 135.865L242.612 135.863L242.623 135.862C244.125 135.664 245.572 135.805 246.796 135.924L246.796 135.923C246.875 135.931 246.953 135.938 247.034 135.945L247.039 135.946Z" fill="#FFF288" stroke="black" stroke-width="4"/>
<path d="M238.651 168.958C241.331 167.435 245.244 167.36 247.866 169.729L247.89 169.75L247.913 169.773C248.001 169.857 248.001 169.857 248.09 169.943L248.26 170.103L248.28 170.123L248.3 170.143C249.756 171.608 250.298 173.456 250.205 175.247L250.201 175.332L250.189 175.417C249.944 177.184 249 178.758 247.514 179.85L247.471 179.882L247.424 179.911C245.401 181.234 243.441 181.353 241.366 181.082L241.337 181.078L241.308 181.073C239.386 180.764 237.981 179.632 237.019 178.562L236.979 178.519L236.943 178.472C235.704 176.919 235.338 175.077 235.603 173.329L235.613 173.27L235.625 173.211C236 171.462 237.048 170.029 238.525 169.037L238.587 168.996L238.651 168.958Z" fill="#FFF288" stroke="black" stroke-width="4"/>
<path d="M125.347 107.876C126.756 107.83 128.09 108.215 129.173 109.133C129.201 109.157 129.201 109.157 129.229 109.181C130.1 109.929 130.641 110.945 130.909 112.051C130.919 112.093 130.919 112.093 130.929 112.136C131.035 112.598 131.064 113.049 131.059 113.521C131.058 113.572 131.058 113.624 131.058 113.675C131.057 113.799 131.056 113.922 131.054 114.046C131.096 114.03 131.137 114.014 131.18 113.997C131.864 113.736 132.522 113.578 133.26 113.584C133.304 113.584 133.349 113.585 133.394 113.585C134.2 113.594 134.895 113.762 135.618 114.115C135.659 114.135 135.7 114.155 135.741 114.175C136.731 114.684 137.593 115.522 138.092 116.519C138.104 116.542 138.115 116.565 138.127 116.589C138.672 117.686 138.847 118.979 138.58 120.177C138.574 120.205 138.567 120.233 138.561 120.261C138.327 121.277 137.849 122.187 137.116 122.93C137.09 122.957 137.064 122.983 137.037 123.011C136.356 123.661 135.31 124.241 134.364 124.323C134.403 124.373 134.403 124.373 134.443 124.423C135.081 125.241 135.513 126.217 135.653 127.25C135.657 127.278 135.661 127.306 135.665 127.335C135.777 128.326 135.606 129.338 135.2 130.246C135.183 130.286 135.165 130.325 135.148 130.366C134.904 130.887 134.555 131.335 134.155 131.744C134.124 131.778 134.124 131.778 134.093 131.812C133.434 132.511 132.495 132.918 131.577 133.138C131.539 133.147 131.539 133.147 131.5 133.157C131.147 133.24 130.799 133.25 130.438 133.251C130.359 133.251 130.28 133.252 130.201 133.253C129.72 133.257 129.257 133.189 128.796 133.046C128.753 133.033 128.753 133.033 128.709 133.02C128.023 132.801 127.383 132.461 126.839 131.988C126.81 131.963 126.781 131.938 126.751 131.912C126.663 131.834 126.577 131.755 126.49 131.675C126.465 131.651 126.439 131.628 126.412 131.603C126.112 131.319 125.881 130.973 125.654 130.629C125.635 130.661 125.616 130.692 125.597 130.724C125.429 130.995 125.251 131.236 125.027 131.466C124.998 131.495 124.97 131.524 124.94 131.555C124.911 131.583 124.883 131.611 124.853 131.64C124.832 131.662 124.811 131.684 124.789 131.707C123.853 132.681 122.504 133.229 121.164 133.256C120.669 133.262 120.18 133.256 119.697 133.138C119.654 133.128 119.611 133.118 119.567 133.108C118.637 132.881 117.903 132.444 117.188 131.814C117.164 131.792 117.139 131.771 117.113 131.748C116.222 130.912 115.641 129.572 115.58 128.357C115.561 126.829 115.896 125.5 116.909 124.323C116.865 124.322 116.82 124.321 116.774 124.319C115.906 124.229 115.05 123.695 114.401 123.139C114.37 123.112 114.338 123.085 114.306 123.058C114.079 122.859 113.886 122.647 113.704 122.407C113.69 122.389 113.676 122.37 113.661 122.351C113.033 121.524 112.63 120.489 112.615 119.442C112.614 119.415 112.614 119.388 112.613 119.361C112.602 118.513 112.676 117.727 113.007 116.937C113.017 116.914 113.027 116.89 113.037 116.865C113.287 116.269 113.652 115.741 114.087 115.265C114.117 115.233 114.146 115.201 114.176 115.168C114.593 114.731 115.083 114.387 115.62 114.115C115.642 114.104 115.664 114.093 115.687 114.081C117.011 113.415 118.447 113.464 119.83 113.915C119.949 113.956 120.067 114.001 120.184 114.046C120.184 114.011 120.184 114.011 120.183 113.975C120.15 112.336 120.557 110.738 121.712 109.525C121.76 109.476 121.809 109.427 121.857 109.377C121.878 109.354 121.898 109.331 121.92 109.307C122.254 108.946 122.714 108.697 123.146 108.471C123.167 108.46 123.189 108.449 123.211 108.437C123.873 108.097 124.604 107.904 125.347 107.876Z" fill="#F4A99C"/>
<path d="M125.347 107.876C126.756 107.83 128.09 108.215 129.173 109.133C129.201 109.157 129.201 109.157 129.229 109.181C130.1 109.929 130.641 110.945 130.909 112.051C130.919 112.093 130.919 112.093 130.929 112.136C131.035 112.598 131.064 113.049 131.059 113.521C131.058 113.572 131.058 113.624 131.058 113.675C131.057 113.799 131.056 113.922 131.054 114.046C131.096 114.03 131.137 114.014 131.18 113.997C131.864 113.736 132.522 113.578 133.26 113.584C133.304 113.584 133.349 113.585 133.394 113.585C134.2 113.594 134.895 113.762 135.618 114.115C135.659 114.135 135.7 114.155 135.741 114.175C136.731 114.684 137.593 115.522 138.092 116.519C138.104 116.542 138.115 116.565 138.127 116.589C138.672 117.686 138.847 118.979 138.58 120.177C138.574 120.205 138.567 120.233 138.561 120.261C138.327 121.277 137.849 122.187 137.116 122.93C137.09 122.957 137.064 122.983 137.037 123.011C136.356 123.661 135.31 124.241 134.364 124.323C134.403 124.373 134.403 124.373 134.443 124.423C135.081 125.241 135.513 126.217 135.653 127.25C135.657 127.278 135.661 127.306 135.665 127.335C135.777 128.326 135.606 129.338 135.2 130.246C135.183 130.286 135.165 130.325 135.148 130.366C134.904 130.887 134.555 131.335 134.155 131.744C134.124 131.778 134.124 131.778 134.093 131.812C133.434 132.511 132.495 132.918 131.577 133.138C131.539 133.147 131.539 133.147 131.5 133.157C131.147 133.24 130.799 133.25 130.438 133.251C130.359 133.251 130.28 133.252 130.201 133.253C129.72 133.257 129.257 133.189 128.796 133.046C128.753 133.033 128.753 133.033 128.709 133.02C128.023 132.801 127.383 132.461 126.839 131.988C126.81 131.963 126.781 131.938 126.751 131.912C126.663 131.834 126.577 131.755 126.49 131.675C126.465 131.651 126.439 131.628 126.412 131.603C126.112 131.319 125.881 130.973 125.654 130.629C125.635 130.661 125.616 130.692 125.597 130.724C125.429 130.995 125.251 131.236 125.027 131.466C124.998 131.495 124.97 131.524 124.94 131.555C124.911 131.583 124.883 131.611 124.853 131.64C124.832 131.662 124.811 131.684 124.789 131.707C123.853 132.681 122.504 133.229 121.164 133.256C120.669 133.262 120.18 133.256 119.697 133.138C119.654 133.128 119.611 133.118 119.567 133.108C118.637 132.881 117.903 132.444 117.188 131.814C117.164 131.792 117.139 131.771 117.113 131.748C116.222 130.912 115.641 129.572 115.58 128.357C115.561 126.829 115.896 125.5 116.909 124.323C116.865 124.322 116.82 124.321 116.774 124.319C115.906 124.229 115.05 123.695 114.401 123.139C114.37 123.112 114.338 123.085 114.306 123.058C114.079 122.859 113.886 122.647 113.704 122.407C113.69 122.389 113.676 122.37 113.661 122.351C113.033 121.524 112.63 120.489 112.615 119.442C112.614 119.415 112.614 119.388 112.613 119.361C112.602 118.513 112.676 117.727 113.007 116.937C113.017 116.914 113.027 116.89 113.037 116.865C113.287 116.269 113.652 115.741 114.087 115.265C114.117 115.233 114.146 115.201 114.176 115.168C114.593 114.731 115.083 114.387 115.62 114.115C115.642 114.104 115.664 114.093 115.687 114.081C117.011 113.415 118.447 113.464 119.83 113.915C119.949 113.956 120.067 114.001 120.184 114.046C120.184 114.011 120.184 114.011 120.183 113.975C120.15 112.336 120.557 110.738 121.712 109.525C121.76 109.476 121.809 109.427 121.857 109.377C121.878 109.354 121.898 109.331 121.92 109.307C122.254 108.946 122.714 108.697 123.146 108.471C123.167 108.46 123.189 108.449 123.211 108.437C123.873 108.097 124.604 107.904 125.347 107.876ZM122.797 110.178C122.754 110.217 122.754 110.217 122.71 110.257C121.94 110.989 121.444 112.099 121.4 113.162C121.382 114.012 121.504 114.789 121.873 115.562C121.955 115.742 121.992 115.903 121.961 116.101C121.879 116.22 121.786 116.272 121.648 116.31C121.462 116.335 121.357 116.301 121.207 116.199C121.106 116.121 121.01 116.039 120.914 115.955C119.893 115.074 118.639 114.698 117.3 114.786C116.279 114.899 115.407 115.503 114.761 116.275C114.145 117.05 113.791 118.015 113.8 119.006C113.8 119.063 113.8 119.063 113.801 119.122C113.816 120.299 114.279 121.324 115.091 122.168C115.806 122.864 116.715 123.262 117.713 123.254C117.739 123.254 117.765 123.254 117.791 123.253C117.87 123.252 117.948 123.252 118.026 123.252C118.308 123.25 118.585 123.239 118.865 123.212C119.012 123.207 119.087 123.232 119.209 123.313C119.319 123.434 119.338 123.561 119.332 123.72C119.258 124.041 118.843 124.265 118.588 124.437C117.742 125.024 117.146 125.94 116.881 126.928C116.874 126.954 116.867 126.981 116.859 127.009C116.61 127.989 116.754 129.155 117.261 130.034C117.441 130.328 117.645 130.591 117.885 130.838C117.907 130.862 117.928 130.886 117.951 130.911C118.573 131.575 119.614 132.015 120.515 132.065C121.122 132.078 121.692 132.081 122.275 131.884C122.299 131.876 122.322 131.868 122.347 131.86C122.859 131.686 123.34 131.414 123.738 131.047C123.765 131.023 123.765 131.023 123.793 130.997C124.563 130.282 124.947 129.403 125.201 128.397C125.254 128.244 125.33 128.123 125.456 128.021C125.608 127.957 125.733 127.96 125.887 128.014C126.103 128.207 126.153 128.551 126.223 128.82C126.318 129.173 126.432 129.501 126.595 129.828C126.62 129.88 126.62 129.88 126.646 129.932C127.117 130.849 127.953 131.529 128.923 131.86C130.079 132.22 131.235 132.166 132.319 131.611C133.269 131.103 133.976 130.263 134.307 129.239C134.56 128.404 134.588 127.564 134.329 126.727C134.321 126.702 134.314 126.677 134.306 126.65C134.039 125.816 133.499 125.092 132.831 124.532C132.811 124.514 132.79 124.495 132.769 124.476C132.661 124.377 132.551 124.286 132.43 124.203C132.408 124.188 132.387 124.173 132.364 124.158C132.321 124.128 132.277 124.099 132.233 124.07C132.093 123.974 132.018 123.891 131.96 123.731C131.949 123.621 131.962 123.523 131.995 123.418C132.072 123.323 132.131 123.263 132.239 123.209C132.301 123.205 132.362 123.204 132.424 123.204C132.457 123.204 132.49 123.204 132.524 123.204C132.622 123.209 132.622 123.209 132.701 123.226C132.896 123.262 133.096 123.252 133.293 123.252C133.316 123.252 133.34 123.252 133.364 123.252C134.562 123.25 135.542 122.796 136.385 121.954C137.104 121.173 137.516 120.117 137.511 119.056C137.51 119.018 137.51 118.98 137.51 118.941C137.494 117.841 137.039 116.822 136.28 116.032C136.254 116.003 136.228 115.974 136.2 115.945C135.535 115.246 134.601 114.798 133.632 114.767C133.561 114.766 133.49 114.766 133.419 114.766C133.362 114.767 133.362 114.767 133.304 114.767C132.211 114.783 131.104 115.22 130.323 115.996C130.303 116.017 130.283 116.038 130.262 116.06C130.119 116.206 129.989 116.3 129.781 116.326C129.646 116.308 129.564 116.282 129.452 116.206C129.35 116.064 129.34 115.967 129.365 115.796C129.396 115.655 129.455 115.526 129.513 115.394C129.654 115.055 129.757 114.717 129.835 114.359C129.844 114.32 129.852 114.281 129.861 114.241C129.977 113.591 129.938 112.904 129.765 112.269C129.759 112.245 129.753 112.222 129.746 112.198C129.45 111.136 128.729 110.18 127.779 109.621C126.169 108.728 124.165 108.947 122.797 110.178Z" fill="black"/>
<path d="M128.767 117.537C128.858 117.614 128.946 117.693 129.034 117.773C129.06 117.796 129.085 117.82 129.112 117.843C129.965 118.654 130.471 119.887 130.507 121.054C130.527 122.157 130.311 123.171 129.661 124.079C129.647 124.099 129.633 124.119 129.618 124.139C128.882 125.152 127.82 125.93 126.567 126.128C126.31 126.165 126.053 126.194 125.794 126.204C125.727 126.207 125.727 126.207 125.659 126.21C124.313 126.247 123.11 125.675 122.136 124.776C121.312 123.977 120.795 122.765 120.771 121.621C120.768 121.215 120.775 120.821 120.847 120.421C120.851 120.398 120.855 120.375 120.859 120.351C121.082 119.161 121.773 118.103 122.766 117.411C124.579 116.188 127.03 116.113 128.767 117.537Z" fill="#F8E482"/>
<path d="M128.767 117.537C128.858 117.614 128.946 117.693 129.034 117.773C129.06 117.796 129.085 117.82 129.112 117.843C129.965 118.654 130.471 119.887 130.507 121.054C130.527 122.157 130.311 123.171 129.661 124.079C129.647 124.099 129.633 124.119 129.618 124.139C128.882 125.152 127.82 125.93 126.567 126.128C126.31 126.165 126.053 126.194 125.794 126.204C125.727 126.207 125.727 126.207 125.659 126.21C124.313 126.247 123.11 125.675 122.136 124.776C121.312 123.977 120.795 122.765 120.771 121.621C120.768 121.215 120.775 120.821 120.847 120.421C120.851 120.398 120.855 120.375 120.859 120.351C121.082 119.161 121.773 118.103 122.766 117.411C124.579 116.188 127.03 116.113 128.767 117.537ZM123.216 118.575C123.199 118.59 123.182 118.605 123.164 118.621C122.464 119.258 122.011 120.176 121.957 121.125C121.914 122.162 122.249 123.098 122.948 123.875C123.54 124.513 124.344 124.96 125.223 125.03C125.349 125.034 125.474 125.034 125.6 125.033C125.644 125.033 125.689 125.032 125.734 125.032C126.045 125.027 126.332 125.008 126.63 124.915C126.652 124.909 126.674 124.902 126.696 124.895C127.271 124.712 127.755 124.417 128.198 124.01C128.221 123.989 128.244 123.969 128.268 123.948C128.85 123.41 129.272 122.507 129.318 121.721C129.356 120.609 129.093 119.635 128.332 118.801C127.715 118.147 126.881 117.703 125.971 117.664C124.919 117.638 124.011 117.854 123.216 118.575Z" fill="black"/>
</svg>
