<svg width="180" height="264" viewBox="0 0 180 264" fill="none" xmlns="http://www.w3.org/2000/svg">
<path d="M84.3709 1.06779C88.7506 3.12003 91.1857 7.70198 93.3145 11.8254C93.4119 12.0127 93.5093 12.2 93.6096 12.3929C95.6703 16.4108 97.7102 20.9345 98.5096 25.3903C98.7201 25.4119 98.9307 25.4335 99.1477 25.4557C101.87 25.7986 104.333 26.5927 106.908 27.5166C107.748 27.7984 107.748 27.7984 108.611 27.9878C109.257 27.6405 109.819 27.2885 110.415 26.8694C110.779 26.6261 111.143 26.3837 111.508 26.1423C111.792 25.9544 111.792 25.9544 112.08 25.7628C117.222 22.4108 124.535 18.4813 130.834 19.3294C132.299 19.9462 132.848 20.8018 133.501 22.1874C134.828 25.8427 134.082 30.5554 133.63 34.3193C133.594 34.6245 133.559 34.9298 133.522 35.2443C133.354 36.5618 133.165 37.8269 132.771 39.0972C132.447 40.1771 132.21 41.0034 132.277 42.1299C133.109 43.3501 134.126 44.2073 135.249 45.1508C136.054 45.8753 136.707 46.7022 137.364 47.5595C137.494 47.7281 137.624 47.8967 137.757 48.0704C144.535 57.0245 147.745 67.2212 149.793 78.1593C150.653 82.7234 151.577 86.8376 153.923 90.9057C154.17 91.3487 154.415 91.7922 154.66 92.236C155.028 92.902 155.398 93.5674 155.771 94.2312C159.371 100.647 161.268 107.244 161.229 114.626C161.228 114.837 161.228 115.048 161.227 115.265C161.212 118.384 161.103 121.359 160.273 124.385C160.219 124.587 160.164 124.789 160.109 124.997C156.763 137.092 147.444 146.095 136.831 152.165C135.054 153.165 133.255 154.106 131.412 154.978C133.091 156.244 134.771 157.505 136.48 158.73C139.388 160.842 142.087 163.18 144.688 165.657C144.861 165.821 145.034 165.986 145.212 166.156C149.717 170.477 153.613 175.241 156.232 180.953C160.591 176.574 162.683 171.552 163.773 165.535C164.168 163.436 164.606 161.55 166.226 160.047C167.401 159.274 168.085 159.192 169.509 159.307C172.383 160.119 174.197 162.821 175.624 165.278C180.084 173.295 181.155 182.483 178.744 191.343C178.692 191.538 178.639 191.733 178.585 191.934C176.796 198.343 173.087 203.802 168.643 208.66C168.427 208.897 168.21 209.134 167.988 209.378C160.709 216.982 148.625 223.827 137.953 224.274C137.408 224.264 136.863 224.255 136.318 224.245C136.338 224.509 136.358 224.773 136.379 225.045C136.565 227.623 136.656 230.186 136.665 232.772C136.666 232.961 136.667 233.151 136.668 233.346C136.672 234.348 136.675 235.35 136.676 236.353C136.677 237.166 136.681 237.978 136.688 238.791C136.749 246.563 136.749 246.563 136.241 250.055C136.21 250.273 136.179 250.492 136.147 250.717C135.591 253.957 133.841 257.142 131.292 259.237C125.279 263.333 117.612 264.164 110.541 262.866C105.956 261.76 101.852 259.527 99.3033 255.452C97.3734 252.007 96.7184 248.669 96.7779 244.737C96.4772 244.787 96.4772 244.787 96.1705 244.838C95.2428 244.992 94.3147 245.144 93.3867 245.296C93.0715 245.349 92.7564 245.402 92.4318 245.456C88.6375 246.073 84.9199 246.234 81.0834 246.234C80.3173 246.234 79.5513 246.239 78.7852 246.245C73.8202 246.261 69.0235 245.742 64.1645 244.737C64.1604 245.02 64.1563 245.303 64.1521 245.595C64.0136 250.333 62.6327 254.835 59.3482 258.392C54.2429 263.124 47.4649 263.479 40.88 263.266C38.8323 263.143 36.9535 262.704 35.0145 262.054C34.6997 261.949 34.385 261.845 34.0607 261.737C30.1774 260.28 26.9786 257.669 25.2196 253.885C23.7576 250.176 23.7133 246.284 23.7202 242.348C23.7199 241.988 23.7196 241.629 23.7193 241.258C23.7191 240.499 23.7197 239.739 23.7209 238.98C23.7224 237.848 23.7209 236.717 23.719 235.585C23.7179 231.841 23.7599 228.1 23.8848 224.357C23.8956 224.025 23.9065 223.692 23.9177 223.35C24.2188 215.218 25.5861 207.099 27.2219 199.136C27.0724 199.194 26.9229 199.252 26.7689 199.312C21.3039 201.424 16.444 202.776 10.7506 200.516C7.36508 198.957 4.6685 196.55 3.19474 193.095C1.5829 188.517 2.41322 184.327 4.37625 180.053C6.8726 174.918 10.5442 170.566 14.5228 166.523C14.8057 166.229 15.0883 165.935 15.3707 165.641C16.8508 164.123 18.3851 162.736 20.0437 161.417C20.6273 160.947 21.1983 160.474 21.7641 159.985C23.7208 158.292 25.7317 156.742 27.8566 155.266C28.6588 154.727 28.6588 154.727 29.2422 154.112C29.0592 154.019 28.8763 153.927 28.6878 153.831C21.8779 150.363 21.8779 150.363 19.1407 148.34C18.8378 148.119 18.535 147.897 18.223 147.669C15.9911 146.01 13.9371 144.196 11.9253 142.279C11.6824 142.055 11.4394 141.83 11.1891 141.599C4.24978 134.992 0.366446 126.074 0.0109655 116.547C-0.213834 106.353 3.03542 97.889 8.13063 89.1657C10.6829 84.6723 11.469 79.5558 12.4943 74.5554C13.7891 68.2749 15.4349 62.1933 18.5634 56.5606C18.7973 56.1209 18.7973 56.1209 19.0358 55.6722C20.896 52.3032 23.3295 49.2769 25.8149 46.3509C25.9562 46.1837 26.0975 46.0166 26.2431 45.8443C26.9184 45.0622 27.5973 44.3421 28.3899 43.6778C29.8763 42.4761 29.8763 42.4761 30.4767 40.7545C30.323 39.7472 30.0753 38.7871 29.8194 37.8007C28.7704 32.3997 27.4004 24.4253 30.3605 19.4196C31.3766 18.3139 32.0094 17.9398 33.5173 17.742C35.6305 17.816 37.6583 18.6256 39.6323 19.3294C39.9076 19.4269 40.1829 19.5244 40.4666 19.6248C42.4831 20.409 44.4011 21.4099 46.3245 22.3959C46.6153 22.5432 46.9062 22.6905 47.2058 22.8422C48.5662 23.5496 49.8188 24.2557 50.9998 25.2381C53.0011 26.9358 53.0011 26.9358 55.5051 27.3521C57.4138 26.9787 59.2019 26.3318 61.02 25.6547C62.2477 25.2662 63.4599 25.1521 64.7417 25.1017C64.7756 24.8936 64.8096 24.6854 64.8445 24.471C65.0358 23.6345 65.3147 22.9735 65.6944 22.2054C65.8318 21.9271 65.9693 21.6488 66.1109 21.3621C66.2603 21.0663 66.4097 20.7706 66.5636 20.4658C66.7185 20.1585 66.8735 19.8512 67.0331 19.5346C77.6959 -1.34297 77.6959 -1.34297 84.3709 1.06779Z" fill="#ECECEB"/>
<path d="M84.3709 1.06779C88.7506 3.12003 91.1857 7.70198 93.3145 11.8254C93.4119 12.0127 93.5093 12.2 93.6096 12.3929C95.6703 16.4108 97.7102 20.9345 98.5096 25.3903C98.7201 25.4119 98.9307 25.4335 99.1477 25.4557C101.87 25.7986 104.333 26.5927 106.908 27.5166C107.748 27.7984 107.748 27.7984 108.611 27.9878C109.257 27.6405 109.819 27.2885 110.415 26.8694C110.779 26.6261 111.143 26.3837 111.508 26.1423C111.792 25.9544 111.792 25.9544 112.08 25.7628C117.222 22.4108 124.535 18.4813 130.834 19.3294C132.299 19.9462 132.848 20.8018 133.501 22.1874C134.828 25.8427 134.082 30.5554 133.63 34.3193C133.594 34.6245 133.559 34.9298 133.522 35.2443C133.354 36.5618 133.165 37.8269 132.771 39.0972C132.447 40.1771 132.21 41.0034 132.277 42.1299C133.109 43.3501 134.126 44.2073 135.249 45.1508C136.054 45.8753 136.707 46.7022 137.364 47.5595C137.494 47.7281 137.624 47.8967 137.757 48.0704C144.535 57.0245 147.745 67.2212 149.793 78.1593C150.653 82.7234 151.577 86.8376 153.923 90.9057C154.17 91.3487 154.415 91.7922 154.66 92.236C155.028 92.902 155.398 93.5674 155.771 94.2312C159.371 100.647 161.268 107.244 161.229 114.626C161.228 114.837 161.228 115.048 161.227 115.265C161.212 118.384 161.103 121.359 160.273 124.385C160.219 124.587 160.164 124.789 160.109 124.997C156.763 137.092 147.444 146.095 136.831 152.165C135.054 153.165 133.255 154.106 131.412 154.978C133.091 156.244 134.771 157.505 136.48 158.73C139.388 160.842 142.087 163.18 144.688 165.657C144.861 165.821 145.034 165.986 145.212 166.156C149.717 170.477 153.613 175.241 156.232 180.953C160.591 176.574 162.683 171.552 163.773 165.535C164.168 163.436 164.606 161.55 166.226 160.047C167.401 159.274 168.085 159.192 169.509 159.307C172.383 160.119 174.197 162.821 175.624 165.278C180.084 173.295 181.155 182.483 178.744 191.343C178.692 191.538 178.639 191.733 178.585 191.934C176.796 198.343 173.087 203.802 168.643 208.66C168.427 208.897 168.21 209.134 167.988 209.378C160.709 216.982 148.625 223.827 137.953 224.274C137.408 224.264 136.863 224.255 136.318 224.245C136.338 224.509 136.358 224.773 136.379 225.045C136.565 227.623 136.656 230.186 136.665 232.772C136.666 232.961 136.667 233.151 136.668 233.346C136.672 234.348 136.675 235.35 136.676 236.353C136.677 237.166 136.681 237.978 136.688 238.791C136.749 246.563 136.749 246.563 136.241 250.055C136.21 250.273 136.179 250.492 136.147 250.717C135.591 253.957 133.841 257.142 131.292 259.237C125.279 263.333 117.612 264.164 110.541 262.866C105.956 261.76 101.852 259.527 99.3033 255.452C97.3734 252.007 96.7184 248.669 96.7779 244.737C96.4772 244.787 96.4772 244.787 96.1705 244.838C95.2428 244.992 94.3147 245.144 93.3867 245.296C93.0715 245.349 92.7564 245.402 92.4318 245.456C88.6375 246.073 84.9199 246.234 81.0834 246.234C80.3173 246.234 79.5513 246.239 78.7852 246.245C73.8202 246.261 69.0235 245.742 64.1645 244.737C64.1604 245.02 64.1563 245.303 64.1521 245.595C64.0136 250.333 62.6327 254.835 59.3482 258.392C54.2429 263.124 47.4649 263.479 40.88 263.266C38.8323 263.143 36.9535 262.704 35.0145 262.054C34.6997 261.949 34.385 261.845 34.0607 261.737C30.1774 260.28 26.9786 257.669 25.2196 253.885C23.7576 250.176 23.7133 246.284 23.7202 242.348C23.7199 241.988 23.7196 241.629 23.7193 241.258C23.7191 240.499 23.7197 239.739 23.7209 238.98C23.7224 237.848 23.7209 236.717 23.719 235.585C23.7179 231.841 23.7599 228.1 23.8848 224.357C23.8956 224.025 23.9065 223.692 23.9177 223.35C24.2188 215.218 25.5861 207.099 27.2219 199.136C27.0724 199.194 26.9229 199.252 26.7689 199.312C21.3039 201.424 16.444 202.776 10.7506 200.516C7.36508 198.957 4.6685 196.55 3.19474 193.095C1.5829 188.517 2.41322 184.327 4.37625 180.053C6.8726 174.918 10.5442 170.566 14.5228 166.523C14.8057 166.229 15.0883 165.935 15.3707 165.641C16.8508 164.123 18.3851 162.736 20.0437 161.417C20.6273 160.947 21.1983 160.474 21.7641 159.985C23.7208 158.292 25.7317 156.742 27.8566 155.266C28.6588 154.727 28.6588 154.727 29.2422 154.112C29.0592 154.019 28.8763 153.927 28.6878 153.831C21.8779 150.363 21.8779 150.363 19.1407 148.34C18.8378 148.119 18.535 147.897 18.223 147.669C15.9911 146.01 13.9371 144.196 11.9253 142.279C11.6824 142.055 11.4394 141.83 11.1891 141.599C4.24978 134.992 0.366446 126.074 0.0109655 116.547C-0.213834 106.353 3.03542 97.889 8.13063 89.1657C10.6829 84.6723 11.469 79.5558 12.4943 74.5554C13.7891 68.2749 15.4349 62.1933 18.5634 56.5606C18.7973 56.1209 18.7973 56.1209 19.0358 55.6722C20.896 52.3032 23.3295 49.2769 25.8149 46.3509C25.9562 46.1837 26.0975 46.0166 26.2431 45.8443C26.9184 45.0622 27.5973 44.3421 28.3899 43.6778C29.8763 42.4761 29.8763 42.4761 30.4767 40.7545C30.323 39.7472 30.0753 38.7871 29.8194 37.8007C28.7704 32.3997 27.4004 24.4253 30.3605 19.4196C31.3766 18.3139 32.0094 17.9398 33.5173 17.742C35.6305 17.816 37.6583 18.6256 39.6323 19.3294C39.9076 19.4269 40.1829 19.5244 40.4666 19.6248C42.4831 20.409 44.4011 21.4099 46.3245 22.3959C46.6153 22.5432 46.9062 22.6905 47.2058 22.8422C48.5662 23.5496 49.8188 24.2557 50.9998 25.2381C53.0011 26.9358 53.0011 26.9358 55.5051 27.3521C57.4138 26.9787 59.2019 26.3318 61.02 25.6547C62.2477 25.2662 63.4599 25.1521 64.7417 25.1017C64.7756 24.8936 64.8096 24.6854 64.8445 24.471C65.0358 23.6345 65.3147 22.9735 65.6944 22.2054C65.8318 21.9271 65.9693 21.6488 66.1109 21.3621C66.2603 21.0663 66.4097 20.7706 66.5636 20.4658C66.7185 20.1585 66.8735 19.8512 67.0331 19.5346C77.6959 -1.34297 77.6959 -1.34297 84.3709 1.06779ZM69.2021 30.5624C67.7691 31.1927 66.2248 31.5241 64.7139 31.9222C56.6666 34.0601 49.0996 37.3817 42.2298 42.1299C42.0654 42.2421 41.9009 42.3543 41.7315 42.4698C39.3228 44.1172 37.0587 45.8938 34.8644 47.8167C34.4658 48.1658 34.0644 48.5116 33.6627 48.8571C30.3778 51.732 27.835 54.9245 25.4902 58.5809C25.3822 58.7487 25.2743 58.9164 25.1631 59.0892C21.4962 64.8849 19.9704 71.3735 18.5713 78.0038C18.5215 78.2386 18.4717 78.4734 18.4204 78.7153C18.1726 79.884 17.9283 81.0532 17.6914 82.2241C16.9404 85.868 15.7968 89.1671 13.9997 92.439C13.7458 92.9131 13.4921 93.3873 13.2387 93.8617C13.0521 94.2093 13.0521 94.2093 12.8618 94.5638C8.235 103.207 4.62237 112.832 7.52283 122.709C7.6411 123.076 7.76172 123.442 7.88472 123.808C7.94504 123.991 8.00536 124.174 8.0675 124.362C11.6365 134.866 20.7507 142.28 30.4047 147.086C33.285 148.466 36.2672 149.575 39.267 150.665C42.6948 151.924 42.6948 151.924 43.3843 152.958C43.276 154.022 43.276 154.022 43.0956 154.978C42.8422 155.057 42.5888 155.136 42.3277 155.218C31.6978 158.938 21.4682 167.429 14.8115 176.335C14.6852 176.502 14.559 176.668 14.429 176.84C13.0175 178.707 11.7383 180.605 10.6266 182.667C10.5324 182.841 10.4382 183.015 10.3411 183.194C9.16126 185.463 8.58674 187.778 9.20716 190.293C9.98383 192.35 11.5008 193.866 13.4563 194.854C16.5114 195.985 19.4401 195.226 22.3452 193.966C23.629 193.368 24.8605 192.7 26.0756 191.972C26.5888 191.665 27.1112 191.374 27.6345 191.085C30.7822 188.991 31.4087 185.487 32.4498 182.04C32.8926 180.659 33.2192 179.745 34.4372 178.933C35.6963 178.77 36.2548 178.791 37.3053 179.528C38.0596 180.603 37.9872 181.098 37.9006 182.396C37.7291 183.182 37.5422 183.936 37.32 184.706C37.2598 184.923 37.1996 185.14 37.1377 185.363C37.0093 185.825 36.88 186.287 36.7496 186.748C36.4082 187.96 36.0777 189.175 35.7461 190.39C35.681 190.627 35.616 190.865 35.5489 191.11C32.958 200.59 31.5721 210.483 30.6492 220.259C30.6164 220.603 30.6164 220.603 30.5829 220.953C30.1418 225.959 30.0542 230.97 30.0545 235.992C30.0539 237.019 30.0486 238.046 30.0432 239.073C29.7227 246.939 29.7227 246.939 32.7833 253.875C36.1202 256.458 39.8509 256.674 43.9074 256.678C44.2759 256.686 44.6444 256.693 45.0241 256.7C48.5066 256.711 51.9712 256.078 54.6402 253.684C57.514 250.675 57.6793 245.824 58.0672 241.898C58.3551 239.19 58.3551 239.19 59.258 238.099C61.2265 237.115 64.1175 238.085 66.1487 238.496C76.4854 240.477 87.4206 240.565 97.6778 237.943C98.805 237.668 99.9596 237.671 101.107 237.81C102.076 238.472 102.327 239.004 102.55 240.119C102.601 240.62 102.641 241.123 102.674 241.625C103.025 248.484 103.025 248.484 106.681 254.063C109.754 256.496 113.464 256.671 117.233 256.66C117.577 256.665 117.92 256.67 118.274 256.675C122.076 256.677 125.255 256.032 128.038 253.323C130.578 249.185 130.346 244.436 130.311 239.758C130.308 239.183 130.306 238.608 130.303 238.033C130.294 236.419 130.277 234.806 130.257 233.192C130.253 232.829 130.249 232.465 130.245 232.09C130.013 216.545 127.521 200.597 123.457 185.61C122.955 183.716 122.571 182.049 122.753 180.087C123.488 179.202 123.933 178.977 125.062 178.789C126.164 178.972 126.574 179.308 127.371 180.087C127.762 181.021 127.762 181.021 128.064 182.119C128.182 182.522 128.301 182.925 128.421 183.327C128.482 183.535 128.543 183.743 128.605 183.958C129.834 188.404 129.834 188.404 133.024 191.505C133.536 191.758 134.061 191.984 134.586 192.209C134.94 192.397 135.291 192.589 135.64 192.784C138.86 194.554 142.161 195.803 145.851 194.876C147.923 194.171 149.285 193.428 150.406 191.506C151.526 189.08 151.333 186.728 150.442 184.254C148.365 179.42 145.124 175.481 141.513 171.718C141.344 171.539 141.175 171.361 141.001 171.177C135.22 165.099 128.48 160.823 121.07 156.995C120.735 156.82 120.4 156.645 120.055 156.465C119.604 156.233 119.604 156.233 119.144 155.996C118.424 155.555 118.424 155.555 117.847 154.689C117.738 153.824 117.738 153.824 117.847 152.958C118.854 151.907 120.26 151.685 121.617 151.316C133.892 147.789 145.23 140.11 151.539 128.829C152.588 126.856 153.314 124.798 153.923 122.653C154.021 122.311 154.119 121.969 154.22 121.616C156.655 111.472 152.691 101.954 147.665 93.3229C147.538 93.1017 147.411 92.8806 147.28 92.6528C147.044 92.2448 146.805 91.839 146.56 91.4365C144.087 87.1664 143.518 82.0121 142.674 77.2355C140.852 66.9935 137.272 58.0562 129.969 50.4997C129.737 50.2538 129.506 50.0079 129.268 49.7545C127.353 47.7638 125.252 46.0848 123.042 44.4388C122.763 44.23 122.763 44.23 122.479 44.017C114.225 37.8729 104.973 33.6404 94.9442 31.3308C93.3967 30.9612 93.3967 30.9612 92.9048 30.4389C91.9707 29.5568 90.4837 29.6544 89.2559 29.5211C88.7666 29.4666 88.7666 29.4666 88.2674 29.411C85.4517 29.1309 82.6497 29.0566 79.8218 29.0521C79.6176 29.0511 79.4133 29.0501 79.2029 29.049C74.0512 29.0275 74.0512 29.0275 69.2021 30.5624Z" fill="black"/>
<path d="M94.204 169.155C94.892 169.701 95.548 170.265 96.2007 170.852C96.483 171.077 96.7654 171.303 97.0564 171.535C99.7248 173.755 101.547 177.05 103.127 180.088C103.223 180.269 103.319 180.45 103.418 180.637C106.579 186.685 108.35 193.474 108.611 200.291C108.62 200.486 108.63 200.681 108.64 200.883C109.004 209.182 106.812 216.794 101.322 223.135C97.469 227.131 92.5813 229.3 87.2536 230.595C86.8351 230.702 86.8351 230.702 86.4081 230.81C78.995 232.368 70.5548 230.847 64.1645 226.843C63.1454 226.13 62.2052 225.363 61.2784 224.534C61.038 224.321 60.7977 224.108 60.5501 223.888C55.298 218.951 52.5316 211.557 52.2479 204.432C51.9955 193.063 55.6266 180.797 63.5196 172.373C71.7669 163.996 84.3921 162.403 94.204 169.155Z" fill="#F2D3A3"/>
<path d="M94.204 169.155C94.892 169.701 95.548 170.265 96.2007 170.852C96.483 171.077 96.7654 171.303 97.0564 171.535C99.7248 173.755 101.547 177.05 103.127 180.088C103.223 180.269 103.319 180.45 103.418 180.637C106.579 186.685 108.35 193.474 108.611 200.291C108.62 200.486 108.63 200.681 108.64 200.883C109.004 209.182 106.812 216.794 101.322 223.135C97.469 227.131 92.5813 229.3 87.2536 230.595C86.8351 230.702 86.8351 230.702 86.4081 230.81C78.995 232.368 70.5548 230.847 64.1645 226.843C63.1454 226.13 62.2052 225.363 61.2784 224.534C61.038 224.321 60.7977 224.108 60.5501 223.888C55.298 218.951 52.5316 211.557 52.2479 204.432C51.9955 193.063 55.6266 180.797 63.5196 172.373C71.7669 163.996 84.3921 162.403 94.204 169.155ZM67.1589 178.103C60.984 186.043 58.0847 196.467 59.0337 206.45C59.71 211.531 61.983 216.589 65.9864 219.889C71.6221 224.008 78.5541 225.418 85.4227 224.357C90.4219 223.396 95.1696 220.801 98.2559 216.704C102.45 210.296 102.907 202.244 101.514 194.857C101.388 194.26 101.251 193.668 101.107 193.075C101.059 192.875 101.011 192.674 100.962 192.467C99.483 186.494 96.8189 180.729 92.4487 176.336C92.2787 176.156 92.1086 175.976 91.9335 175.79C88.6833 172.618 84.3223 171.319 79.8991 171.321C74.7694 171.454 70.4217 174.284 67.1589 178.103Z" fill="black"/>
<path d="M169.797 168.543C169.988 168.543 170.178 168.543 170.374 168.543C170.703 169.444 171.026 170.346 171.349 171.249C171.44 171.5 171.532 171.751 171.626 172.01C174.188 179.216 173.608 187.505 170.41 194.422C169.955 195.343 169.456 196.233 168.931 197.116C168.75 197.423 168.569 197.73 168.382 198.046C162.261 207.748 151.462 214.241 140.461 216.82C140.142 216.89 139.822 216.959 139.493 217.03C139.143 217.116 139.143 217.116 138.786 217.204C137.763 217.364 136.776 217.336 135.741 217.319C135.112 213.984 134.616 210.638 134.151 207.276C133.843 205.086 133.476 202.931 132.975 200.778C132.857 200.015 132.889 199.567 133.143 198.847C133.35 198.942 133.556 199.036 133.769 199.133C136.995 200.547 139.927 201.228 143.443 201.265C143.693 201.269 143.944 201.273 144.201 201.277C148.157 201.248 151.339 199.54 154.201 196.885C156.049 194.892 157.121 192.422 157.549 189.756C158.103 188.407 158.971 187.766 160.067 186.831C165.386 182.2 168.762 175.463 169.797 168.543Z" fill="#3A9592"/>
<path d="M38.117 97.039C41.2618 99.1549 43.0896 102.236 43.9614 105.914C44.3457 110.217 43.4518 113.702 40.7867 117.17C38.8908 119.347 35.5852 121.288 32.6767 121.555C28.7012 121.697 25.5891 121.414 22.3154 118.901C22.0827 118.746 22.0827 118.746 21.8452 118.587C20.5857 117.66 19.8232 116.51 19.0504 115.168C18.953 114.999 18.8556 114.83 18.7552 114.656C17.0895 111.629 16.9329 108.031 17.5972 104.674C18.9221 100.739 21.3183 97.9835 24.9851 96.137C29.4032 93.9858 33.9739 94.589 38.117 97.039Z" fill="#F4A99C"/>
<path d="M138.519 97.3422C141.274 99.3134 143.121 102.219 144.025 105.494C144.531 109.679 143.818 113.478 141.225 116.881C138.817 119.53 135.722 121.255 132.121 121.596C128.427 121.636 125.701 120.834 122.753 118.613C122.378 118.363 122.378 118.363 121.996 118.108C119.517 115.76 118.082 112.575 117.778 109.188C117.676 105.268 118.993 101.656 121.671 98.7706C122.862 97.6582 124.194 96.8438 125.639 96.101C125.831 96.002 126.022 95.903 126.219 95.8011C130.136 94.1576 135.077 95.1214 138.519 97.3422Z" fill="#F4A99C"/>
<path d="M53.1971 117.458C54.1456 118.207 54.7645 119.237 55.4373 120.227C59.5281 126.135 66.2524 128.878 73.1115 130.157C82.4514 131.767 93.2283 130.912 101.223 125.463C102.078 124.842 102.896 124.198 103.705 123.519C103.896 123.36 104.088 123.201 104.285 123.038C105.686 121.763 106.564 120.186 107.487 118.553C108.03 117.753 108.286 117.463 109.188 117.17C110.172 117.065 110.781 117.111 111.696 117.494C112.557 118.192 112.872 118.715 113.229 119.767C113.279 122.778 111.295 125.028 109.322 127.126C101.983 134.582 91.9972 137.557 81.6798 137.715C70.5804 137.679 60.4226 134.789 52.2592 127.018C50.2979 125.02 48.4499 122.697 48.4767 119.787C48.6618 118.71 49.2419 118.202 50.0224 117.458C51.1465 117.083 52.0821 117.087 53.1971 117.458Z" fill="black"/>
<path d="M82.6358 9.5166C86.4969 11.3172 88.6513 18.8922 90.0111 22.6119C90.8925 25.0546 91.774 27.4991 92.4487 30.0082C90.9277 30.0351 89.5204 29.94 88.0113 29.7196C85.3476 29.3836 82.6824 29.3653 80.0022 29.3588C79.7962 29.3574 79.5903 29.3559 79.378 29.3545C76.3802 29.3373 73.4795 29.5708 70.514 30.0082C70.7419 28.7288 71.1858 27.6765 71.7767 26.5268C71.8786 26.3269 71.9805 26.127 72.0855 25.921C72.4244 25.2614 72.7674 24.6042 73.1116 23.9473C73.2286 23.7225 73.3456 23.4977 73.4661 23.2661C74.9651 20.4045 76.5787 17.6413 78.3607 14.9462C78.5217 14.7013 78.6826 14.4564 78.8485 14.2041C79.9847 12.5178 81.2515 11.0048 82.6358 9.5166Z" fill="#3A9592"/>
<path d="M127.371 26.5449C127.519 29.1832 127.308 31.6315 126.83 34.2293C126.78 34.5028 126.73 34.7763 126.678 35.0581C126.434 36.3162 126.186 37.4984 125.639 38.6667C123.633 37.407 121.652 36.115 119.692 34.7858C118.527 34.002 117.341 33.2895 116.115 32.6058C117.116 31.4776 118.269 30.7903 119.56 30.0444C119.885 29.8552 119.885 29.8552 120.216 29.6623C125.641 26.5449 125.641 26.5449 127.371 26.5449Z" fill="#3A9592"/>
<path d="M36.1689 25.9673C37.9338 26.5032 39.5445 27.1637 41.1655 28.0417C41.4802 28.2099 41.4802 28.2099 41.8013 28.3815C43.6581 29.3901 45.4104 30.5192 47.1362 31.7396C46.0048 32.7078 44.8311 33.4021 43.5285 34.1026C41.6029 35.1567 39.8139 36.3233 38.0381 37.6122C37.3233 38.0891 37.3233 38.0891 36.7461 38.0891C35.9921 34.0703 36.1112 30.0407 36.1689 25.9673Z" fill="#3A9592"/>
<path d="M67.9165 104.182C69.535 104.924 70.8027 105.898 71.4982 107.564C71.8302 108.848 71.8773 110.089 71.6684 111.397C71.1486 112.264 70.8305 112.682 69.9368 113.129C68.4723 113.369 67.3371 113.269 66.0946 112.426C64.7383 111.275 64.072 109.922 63.7676 108.181C63.6781 106.718 64.1109 105.863 65.0303 104.759C66.1399 104.02 66.5952 104.012 67.9165 104.182Z" fill="black"/>
<path d="M96.4893 104.182C97.3344 104.706 98.0582 105.299 98.5096 106.202C98.7376 108.137 98.6374 109.608 97.4803 111.208C96.3328 112.533 95.3885 113.078 93.6392 113.219C92.6993 113.209 92.4429 113.125 91.6009 112.606C90.6263 111.572 90.6161 110.561 90.6381 109.205C90.8596 107.257 91.9314 106.001 93.4059 104.796C94.4048 104.126 95.3205 104.044 96.4893 104.182Z" fill="black"/>
<path d="M41.1427 87.0136C41.2999 87.0083 41.2999 87.0083 41.4604 87.003C42.1142 87.0943 42.518 87.5504 42.9613 88.0506C43.0586 88.1592 43.1559 88.2677 43.2562 88.3795C43.4513 88.6007 43.6456 88.8227 43.8395 89.0452C46.0996 91.3903 49.1716 92.0348 52.1874 91.9565C54.983 91.8328 57.7714 90.641 59.6753 88.3843C59.8044 88.2275 59.9323 88.0695 60.0587 87.9101C60.472 87.3924 60.7442 87.0923 61.3716 87.0019C62.1272 86.9902 62.7188 87.0145 63.2928 87.5916C63.7287 88.1181 63.955 88.6306 64 89.3427C63.9223 90.7707 62.8419 91.9722 61.9249 92.8958C60.1365 94.5764 58.0822 95.5911 55.8317 96.2959C55.7005 96.3391 55.7005 96.3391 55.5666 96.3832C51.6254 97.6439 47.0573 96.8999 43.4738 94.8089C41.9266 93.866 39.609 92.106 39.0442 90.1757C38.937 89.2002 38.9964 88.5173 39.5416 87.7276C40.0562 87.206 40.4469 87.0275 41.1427 87.0136Z" fill="black"/>
<path d="M102.187 88.014C102.303 88.0094 102.418 88.0048 102.537 88C103.326 88.1147 103.796 88.6857 104.29 89.2635C106.037 91.2255 108.711 92.2713 111.309 92.4952C114.364 92.6538 117.592 92.1207 119.952 90.0348C120.345 89.6605 120.713 89.2749 121.065 88.8624C121.438 88.428 121.729 88.1043 122.321 88.0145C123.03 87.9745 123.608 88.1057 124.173 88.5462C124.628 89.0393 124.884 89.4799 125 90.1428C124.883 91.429 123.909 92.4946 122.969 93.2947C119.344 96.2515 114.808 97.3612 110.176 96.8989C109.468 96.7974 108.781 96.6381 108.093 96.4443C107.969 96.4106 107.969 96.4106 107.843 96.3763C104.994 95.5835 102.048 93.8628 100.377 91.3769C100.065 90.8187 99.9107 90.2914 100.054 89.6569C100.476 88.7117 101.122 88.0416 102.187 88.014Z" fill="black"/>
<path d="M120.467 43.0034C120.602 43.0021 120.602 43.0021 120.741 43.0008C120.84 43.0006 120.938 43.0004 121.04 43.0003C121.146 42.9996 121.251 42.9988 121.356 42.998C121.643 42.996 121.929 42.9951 122.215 42.9944C122.394 42.994 122.572 42.9933 122.751 42.9927C123.311 42.9906 123.872 42.9892 124.432 42.9886C125.077 42.9879 125.723 42.9853 126.369 42.981C126.869 42.9777 127.368 42.9762 127.868 42.976C128.166 42.9758 128.464 42.975 128.763 42.9723C129.043 42.9698 129.324 42.9695 129.605 42.9708C129.756 42.971 129.908 42.9689 130.059 42.9668C130.577 42.9715 130.909 43.0098 131.303 43.3597C131.901 43.9746 131.975 44.4981 131.979 45.3296C131.98 45.4217 131.981 45.5138 131.982 45.6087C131.984 45.8032 131.984 45.9977 131.985 46.1921C131.986 46.4879 131.991 46.7834 131.996 47.079C131.997 47.2686 131.998 47.4582 131.998 47.6477C132 47.7352 132.002 47.8228 132.004 47.9129C131.999 48.5635 131.811 48.9582 131.414 49.4683C131.362 49.5364 131.362 49.5364 131.308 49.606C131.216 49.7204 131.118 49.8309 131.021 49.9412C130.949 50.0237 130.878 50.1064 130.807 50.1892C130.771 50.2308 130.735 50.2724 130.698 50.3153C130.484 50.5673 130.283 50.8287 130.08 51.0892C129.867 51.3628 129.652 51.6342 129.434 51.9041C128.78 52.7156 128.155 53.5487 127.546 54.3948C127.515 54.4377 127.484 54.4806 127.452 54.5248C127.305 54.7312 127.179 54.9347 127.069 55.1628C127.135 55.1606 127.202 55.1583 127.271 55.156C127.867 55.136 128.463 55.1175 129.06 55.1014C129.384 55.0926 129.708 55.0818 130.032 55.0698C130.168 55.0663 130.304 55.063 130.44 55.0598C130.5 55.057 130.56 55.0541 130.621 55.0512C131.084 55.0444 131.412 55.1984 131.789 55.4625C132.11 55.7912 132.257 56.1232 132.259 56.5819C132.26 56.6534 132.261 56.725 132.261 56.7987C132.261 56.9134 132.261 56.9134 132.261 57.0305C132.262 57.11 132.262 57.1896 132.262 57.2715C132.263 57.4396 132.263 57.6077 132.262 57.7758C132.262 58.0318 132.264 58.2878 132.266 58.5438C132.266 58.7075 132.266 58.8712 132.266 59.0348C132.267 59.1109 132.267 59.1869 132.268 59.2653C132.265 59.7703 132.224 60.2303 131.888 60.6344C131.844 60.6678 131.801 60.7012 131.756 60.7356C131.713 60.7702 131.67 60.8048 131.625 60.8404C131.322 61.0451 131.112 61.1011 130.742 61.1022C130.605 61.1032 130.605 61.1032 130.465 61.1042C130.364 61.1041 130.262 61.104 130.161 61.104C130.054 61.1044 129.947 61.1049 129.84 61.1055C129.55 61.1068 129.26 61.1072 128.97 61.1073C128.789 61.1074 128.607 61.1077 128.426 61.1081C127.793 61.1095 127.159 61.1101 126.526 61.11C125.937 61.1099 125.347 61.1115 124.757 61.1138C124.251 61.1158 123.744 61.1166 123.237 61.1165C122.935 61.1165 122.633 61.1169 122.33 61.1185C122.046 61.1199 121.761 61.1199 121.476 61.1188C121.372 61.1187 121.268 61.119 121.164 61.1199C120.511 61.1253 119.991 61.1125 119.499 60.6353C119.449 60.5621 119.449 60.5621 119.398 60.4874C119.363 60.4389 119.329 60.3903 119.293 60.3402C119.12 60.0442 119.033 59.7864 119.027 59.4431C119.025 59.3372 119.025 59.3372 119.023 59.2292C119.022 59.1537 119.021 59.0781 119.021 59.0003C119.02 58.882 119.02 58.882 119.018 58.7614C119.017 58.5946 119.016 58.4277 119.015 58.2609C119.014 58.0081 119.009 57.7555 119.004 57.5027C118.989 55.9341 118.989 55.9341 119.501 55.2378C119.544 55.1754 119.587 55.113 119.631 55.0487C119.766 54.8588 119.908 54.6759 120.053 54.4932C120.16 54.3562 120.266 54.2192 120.373 54.0822C120.427 54.0131 120.481 53.944 120.537 53.8728C120.798 53.5383 121.056 53.201 121.313 52.8635C121.363 52.7984 121.413 52.7332 121.464 52.6662C121.826 52.1913 122.176 51.709 122.522 51.2232C122.832 50.7911 123.159 50.3742 123.495 49.9622C123.69 49.728 123.69 49.728 123.847 49.4683C123.805 49.4682 123.764 49.468 123.721 49.4679C123.286 49.4665 122.85 49.4624 122.415 49.4568C122.253 49.4551 122.091 49.454 121.929 49.4536C121.695 49.4529 121.461 49.4498 121.227 49.4463C121.156 49.4466 121.084 49.4469 121.01 49.4472C120.438 49.435 119.913 49.2905 119.505 48.8674C119.055 48.3108 119.027 47.7683 119.026 47.0755C119.026 46.9893 119.025 46.903 119.025 46.8141C119.024 46.632 119.023 46.45 119.023 46.2679C119.023 45.99 119.02 45.7122 119.018 45.4343C119.017 45.257 119.017 45.0798 119.017 44.9026C119.016 44.8198 119.015 44.7371 119.013 44.6518C119.016 44.1664 119.061 43.8682 119.351 43.474C119.709 43.1427 119.979 43.0061 120.467 43.0034Z" fill="black"/>
<path d="M129.916 45.1222C130.101 47.8477 130.101 47.8477 129.49 48.5502C129.358 48.692 129.222 48.8269 129.081 48.959C128.841 49.1909 128.642 49.455 128.436 49.7162C128.355 49.816 128.273 49.9156 128.192 50.0151C127.88 50.3983 127.587 50.7942 127.293 51.1914C126.666 52.0325 126.037 52.8722 125.384 53.693C124.354 54.8911 124.354 54.8911 123.997 56.3615C124.083 56.6977 124.237 56.842 124.521 57.0358C124.784 57.1235 124.996 57.1228 125.273 57.1261C125.327 57.1269 125.38 57.1276 125.435 57.1284C125.612 57.1308 125.788 57.1326 125.964 57.1345C126.087 57.136 126.209 57.1376 126.331 57.1392C126.653 57.1433 126.975 57.147 127.297 57.1506C127.625 57.1544 127.954 57.1586 128.282 57.1627C128.927 57.1708 129.571 57.1783 130.216 57.1857C130.216 57.7791 130.216 58.3726 130.216 58.984C127.174 58.984 124.133 58.984 120.999 58.984C120.999 56.251 120.999 56.251 121.76 55.4494C121.809 55.4018 121.858 55.3541 121.908 55.305C122.128 55.0816 122.306 54.8314 122.489 54.5772C122.562 54.4787 122.635 54.3804 122.709 54.2822C122.747 54.2313 122.785 54.1804 122.824 54.128C123.06 53.8142 123.299 53.5029 123.538 53.1911C123.971 52.6244 124.397 52.0537 124.819 51.4786C125.103 51.092 125.389 50.7079 125.678 50.325C126.505 49.371 126.505 49.371 126.844 48.2317C126.789 47.8719 126.656 47.6939 126.394 47.445C126.143 47.3611 125.948 47.3581 125.683 47.3547C125.634 47.3539 125.585 47.3532 125.535 47.3524C125.373 47.35 125.211 47.3482 125.049 47.3463C124.937 47.3448 124.825 47.3432 124.713 47.3416C124.417 47.3375 124.122 47.3338 123.827 47.3302C123.525 47.3264 123.224 47.3222 122.923 47.3181C122.332 47.31 121.74 47.3025 121.149 47.2951C121.149 46.6028 121.149 45.9104 121.149 45.1971C121.838 45.1842 122.526 45.1715 123.214 45.1596C123.266 45.1588 123.318 45.1579 123.371 45.1569C125.553 45.1196 127.734 45.1134 129.916 45.1222Z" fill="#AADCE7"/>
<path d="M136.496 37.1801C136.675 37.1784 136.675 37.1784 136.857 37.1766C136.987 37.1764 137.118 37.1762 137.252 37.176C137.391 37.1751 137.53 37.1741 137.669 37.173C138.047 37.1704 138.424 37.1691 138.802 37.1683C139.038 37.1677 139.274 37.1669 139.51 37.166C140.249 37.1633 140.988 37.1614 141.727 37.1606C142.579 37.1597 143.431 37.1562 144.283 37.1505C144.942 37.1462 145.601 37.1442 146.261 37.144C146.654 37.1438 147.048 37.1426 147.441 37.1391C147.811 37.1358 148.182 37.1354 148.552 37.1371C148.752 37.1373 148.952 37.1346 149.151 37.1318C149.834 37.1381 150.273 37.1886 150.793 37.6502C151.581 38.4615 151.679 39.1522 151.685 40.2493C151.686 40.3708 151.688 40.4923 151.689 40.6175C151.691 40.8741 151.692 41.1307 151.692 41.3873C151.694 41.7775 151.7 42.1673 151.707 42.5574C151.708 42.8075 151.709 43.0576 151.71 43.3078C151.712 43.4232 151.715 43.5387 151.718 43.6577C151.711 44.516 151.463 45.0368 150.94 45.7097C150.87 45.7997 150.87 45.7997 150.8 45.8914C150.677 46.0423 150.549 46.1882 150.421 46.3338C150.326 46.4426 150.232 46.5517 150.138 46.6609C150.09 46.7158 150.043 46.7707 149.994 46.8273C149.713 47.1598 149.447 47.5046 149.18 47.8483C148.898 48.2093 148.614 48.5674 148.327 48.9235C147.463 49.9942 146.64 51.0934 145.836 52.2097C145.795 52.2663 145.754 52.3229 145.712 52.3812C145.518 52.6535 145.351 52.9221 145.206 53.223C145.294 53.22 145.382 53.217 145.472 53.214C146.259 53.1876 147.046 53.1632 147.833 53.142C148.261 53.1304 148.688 53.1161 149.116 53.1002C149.295 53.0957 149.475 53.0913 149.655 53.0871C149.733 53.0833 149.812 53.0796 149.893 53.0757C150.504 53.0668 150.937 53.2699 151.434 53.6185C151.857 54.0521 152.051 54.49 152.054 55.0953C152.055 55.1897 152.056 55.2841 152.057 55.3813C152.057 55.5327 152.057 55.5327 152.057 55.6872C152.057 55.7921 152.058 55.8971 152.058 56.0052C152.059 56.227 152.059 56.4487 152.058 56.6705C152.058 57.0083 152.06 57.3461 152.063 57.6839C152.063 57.8998 152.063 58.1157 152.063 58.3317C152.064 58.432 152.065 58.5323 152.066 58.6357C152.062 59.3021 152.008 59.9089 151.564 60.4421C151.507 60.4862 151.45 60.5303 151.391 60.5757C151.334 60.6213 151.277 60.6669 151.218 60.7139C150.818 60.984 150.54 61.0578 150.053 61.0593C149.872 61.0606 149.872 61.0606 149.687 61.0619C149.553 61.0618 149.42 61.0617 149.286 61.0616C149.145 61.0622 149.004 61.0629 148.863 61.0636C148.48 61.0654 148.097 61.0659 147.715 61.066C147.475 61.0661 147.236 61.0665 146.997 61.0671C146.161 61.0689 145.326 61.0697 144.49 61.0695C143.712 61.0694 142.934 61.0715 142.157 61.0746C141.488 61.0772 140.82 61.0783 140.151 61.0782C139.752 61.0781 139.353 61.0787 138.954 61.0808C138.579 61.0827 138.203 61.0827 137.828 61.0813C137.69 61.081 137.553 61.0815 137.416 61.0827C136.554 61.0897 135.867 61.0729 135.219 60.4432C135.153 60.3467 135.153 60.3467 135.085 60.2482C135.04 60.1841 134.994 60.12 134.947 60.054C134.719 59.6634 134.604 59.3233 134.596 58.8703C134.593 58.7307 134.593 58.7307 134.59 58.5882C134.59 58.4885 134.589 58.3888 134.588 58.2861C134.586 58.1301 134.586 58.1301 134.584 57.9709C134.583 57.7508 134.581 57.5307 134.581 57.3106C134.579 56.977 134.572 56.6437 134.566 56.3103C134.545 54.2406 134.545 54.2406 135.221 53.3219C135.278 53.2396 135.334 53.1573 135.393 53.0724C135.572 52.8219 135.759 52.5806 135.95 52.3395C136.091 52.1588 136.231 51.978 136.372 51.7973C136.443 51.7061 136.514 51.6149 136.588 51.521C136.933 51.0796 137.273 50.6346 137.612 50.1893C137.678 50.1034 137.744 50.0175 137.811 49.929C138.288 49.3025 138.75 48.6662 139.207 48.0251C139.617 47.4551 140.047 46.905 140.491 46.3614C140.748 46.0524 140.748 46.0524 140.955 45.7097C140.9 45.7096 140.845 45.7094 140.789 45.7093C140.215 45.7073 139.641 45.702 139.066 45.6946C138.853 45.6924 138.639 45.6909 138.425 45.6904C138.116 45.6895 137.808 45.6854 137.499 45.6808C137.404 45.6812 137.31 45.6815 137.213 45.6819C136.457 45.6658 135.765 45.4752 135.226 44.917C134.633 44.1825 134.597 43.4668 134.595 42.5528C134.594 42.439 134.593 42.3252 134.593 42.2079C134.592 41.9677 134.591 41.7275 134.591 41.4872C134.591 41.1206 134.587 40.754 134.584 40.3874C134.583 40.1535 134.583 39.9197 134.582 39.6859C134.581 39.5767 134.58 39.4675 134.578 39.355C134.582 38.7146 134.641 38.3211 135.023 37.801C135.496 37.364 135.852 37.1837 136.496 37.1801Z" fill="black"/>
<path d="M148.963 39.9758C149.207 43.5718 149.207 43.5718 148.4 44.4987C148.226 44.6858 148.048 44.8638 147.861 45.0381C147.545 45.344 147.282 45.6924 147.01 46.0371C146.903 46.1687 146.795 46.3002 146.688 46.4314C146.277 46.937 145.889 47.4594 145.503 47.9834C144.675 49.0932 143.845 50.2011 142.983 51.284C141.625 52.8648 141.625 52.8648 141.153 54.8047C141.266 55.2483 141.47 55.4387 141.845 55.6945C142.192 55.8102 142.471 55.8092 142.837 55.8136C142.908 55.8146 142.978 55.8156 143.051 55.8166C143.284 55.8197 143.516 55.8222 143.749 55.8246C143.91 55.8266 144.072 55.8287 144.233 55.8308C144.658 55.8363 145.082 55.8412 145.507 55.8459C145.94 55.8509 146.374 55.8564 146.807 55.8619C147.657 55.8725 148.508 55.8825 149.358 55.8922C149.358 56.6751 149.358 57.4581 149.358 58.2648C145.345 58.2648 141.333 58.2648 137.198 58.2648C137.198 54.659 137.198 54.659 138.202 53.6014C138.266 53.5385 138.331 53.4756 138.397 53.4108C138.688 53.1161 138.922 52.7859 139.163 52.4506C139.26 52.3207 139.357 52.1909 139.454 52.0614C139.504 51.9942 139.554 51.9271 139.606 51.8579C139.917 51.444 140.233 51.0332 140.547 50.6217C141.118 49.8741 141.682 49.1211 142.238 48.3624C142.612 47.8523 142.99 47.3455 143.371 46.8404C144.462 45.5816 144.462 45.5816 144.909 44.0785C144.837 43.6037 144.661 43.369 144.316 43.0405C143.984 42.9299 143.728 42.9259 143.378 42.9213C143.313 42.9203 143.249 42.9194 143.182 42.9184C142.969 42.9152 142.755 42.9128 142.542 42.9103C142.394 42.9083 142.246 42.9062 142.098 42.9041C141.708 42.8987 141.318 42.8938 140.929 42.889C140.531 42.884 140.134 42.8785 139.736 42.8731C138.956 42.8624 138.176 42.8525 137.396 42.8428C137.396 41.9293 137.396 41.0158 137.396 40.0747C138.304 40.0576 139.213 40.0409 140.121 40.0253C140.189 40.0241 140.257 40.0229 140.327 40.0217C143.206 39.9725 146.084 39.9642 148.963 39.9758Z" fill="#AADCE7"/>
<path d="M157.24 30.0643C157.478 30.062 157.478 30.062 157.721 30.0597C157.895 30.0594 158.069 30.0592 158.249 30.0589C158.434 30.0576 158.619 30.0563 158.805 30.0549C159.308 30.0514 159.811 30.0497 160.315 30.0486C160.629 30.0478 160.944 30.0467 161.259 30.0455C162.244 30.0419 163.229 30.0394 164.215 30.0384C165.351 30.0372 166.487 30.0325 167.623 30.0249C168.502 30.0192 169.381 30.0165 170.26 30.0162C170.784 30.0159 171.309 30.0144 171.833 30.0097C172.327 30.0053 172.821 30.0047 173.315 30.0071C173.581 30.0074 173.848 30.0037 174.114 30C175.025 30.0083 175.609 30.0757 176.303 30.6911C177.354 31.7729 177.484 32.6938 177.492 34.1566C177.494 34.3186 177.495 34.4807 177.497 34.6476C177.5 34.9897 177.501 35.3318 177.502 35.6739C177.504 36.1942 177.512 36.714 177.522 37.2341C177.523 37.5676 177.524 37.9011 177.525 38.2346C177.529 38.3885 177.532 38.5425 177.536 38.7011C177.526 39.8455 177.196 40.5399 176.498 41.4372C176.406 41.5571 176.406 41.5571 176.311 41.6794C176.149 41.8807 175.978 42.0752 175.806 42.2693C175.68 42.4144 175.555 42.5598 175.429 42.7054C175.366 42.7786 175.303 42.8518 175.238 42.9272C174.862 43.3706 174.508 43.8304 174.151 44.2886C173.777 44.7699 173.398 45.2474 173.014 45.7222C171.863 47.1498 170.765 48.6154 169.694 50.1038C169.639 50.1793 169.585 50.2548 169.528 50.3325C169.269 50.6956 169.047 51.0537 168.853 51.4549C168.971 51.4509 169.088 51.4469 169.209 51.4428C170.258 51.4076 171.307 51.3752 172.356 51.3469C172.926 51.3315 173.496 51.3124 174.067 51.2912C174.306 51.2851 174.545 51.2792 174.785 51.2737C174.89 51.2687 174.995 51.2637 175.103 51.2585C175.918 51.2466 176.494 51.5174 177.158 51.9822C177.721 52.5604 177.98 53.1443 177.985 53.9513C177.986 54.0771 177.987 54.203 177.988 54.3327C177.988 54.5345 177.988 54.5345 177.988 54.7404C177.989 54.8804 177.989 55.0203 177.99 55.1645C177.991 55.4602 177.991 55.7559 177.99 56.0516C177.99 56.502 177.993 56.9523 177.996 57.4027C177.996 57.6906 177.996 57.9785 177.996 58.2664C177.997 58.4002 177.999 58.534 178 58.6718C177.994 59.5603 177.923 60.3695 177.331 61.0803C177.255 61.1391 177.178 61.1979 177.1 61.2585C177.024 61.3193 176.948 61.3801 176.87 61.4428C176.336 61.8029 175.966 61.9013 175.316 61.9033C175.074 61.905 175.074 61.905 174.828 61.9068C174.65 61.9067 174.471 61.9065 174.293 61.9064C174.105 61.9072 173.917 61.9081 173.729 61.9091C173.219 61.9114 172.709 61.912 172.198 61.9122C171.879 61.9124 171.56 61.9129 171.241 61.9136C170.127 61.9161 169.013 61.9172 167.899 61.9169C166.862 61.9168 165.825 61.9196 164.788 61.9237C163.896 61.9272 163.005 61.9286 162.114 61.9284C161.582 61.9284 161.05 61.9291 160.518 61.9319C160.017 61.9345 159.516 61.9345 159.016 61.9326C158.833 61.9323 158.649 61.9329 158.466 61.9345C157.317 61.9439 156.402 61.9214 155.537 61.0819C155.449 60.9531 155.449 60.9531 155.359 60.8218C155.298 60.7364 155.237 60.6509 155.175 60.5628C154.87 60.0421 154.717 59.5886 154.707 58.9847C154.703 58.7984 154.703 58.7984 154.699 58.6084C154.698 58.4755 154.697 58.3426 154.696 58.2057C154.694 57.9977 154.694 57.9977 154.691 57.7854C154.689 57.4919 154.687 57.1985 154.686 56.905C154.684 56.4602 154.675 56.0159 154.667 55.5712C154.639 52.8117 154.639 52.8117 155.54 51.5867C155.616 51.477 155.691 51.3672 155.769 51.2541C156.008 50.9201 156.257 50.5983 156.512 50.2768C156.7 50.0359 156.887 49.7949 157.074 49.5539C157.169 49.4324 157.265 49.3108 157.363 49.1855C157.822 48.5971 158.276 48.0037 158.729 47.4099C158.816 47.2954 158.904 47.1809 158.994 47.0629C159.63 46.2275 160.246 45.3791 160.855 44.5244C161.401 43.7643 161.975 43.0308 162.567 42.3061C162.909 41.8941 162.909 41.8941 163.185 41.4372C163.112 41.437 163.039 41.4368 162.964 41.4366C162.198 41.434 161.433 41.4268 160.667 41.4171C160.382 41.414 160.097 41.4121 159.812 41.4114C159.4 41.4102 158.989 41.4048 158.577 41.3986C158.451 41.3991 158.325 41.3996 158.196 41.4001C157.188 41.3786 156.266 41.1244 155.547 40.3802C154.755 39.4009 154.708 38.4467 154.705 37.2279C154.704 37.0762 154.703 36.9244 154.702 36.7681C154.701 36.4478 154.701 36.1275 154.701 35.8072C154.7 35.3183 154.695 34.8296 154.69 34.3407C154.689 34.0289 154.689 33.7172 154.689 33.4054C154.687 33.2598 154.685 33.1143 154.683 32.9643C154.688 32.1104 154.766 31.5857 155.277 30.8922C155.907 30.3095 156.382 30.0692 157.24 30.0643Z" fill="black"/>
<path d="M173.862 33.7918C174.188 38.5865 174.188 38.5865 173.112 39.8223C172.88 40.0717 172.642 40.3091 172.393 40.5415C171.972 40.9494 171.621 41.414 171.259 41.8736C171.116 42.049 170.973 42.2243 170.829 42.3993C170.281 43.0734 169.765 43.7699 169.249 44.4686C168.146 45.9484 167.039 47.4255 165.889 48.8694C164.079 50.9771 164.079 50.9771 163.449 53.5637C163.6 54.1551 163.872 54.4089 164.372 54.75C164.835 54.9043 165.207 54.903 165.695 54.9089C165.789 54.9102 165.883 54.9115 165.98 54.9128C166.29 54.917 166.6 54.9203 166.911 54.9235C167.126 54.9262 167.341 54.929 167.556 54.9318C168.122 54.9391 168.689 54.9456 169.255 54.952C169.833 54.9586 170.41 54.9659 170.988 54.9732C172.122 54.9874 173.256 55.0007 174.389 55.0136C174.389 56.0576 174.389 57.1015 174.389 58.1771C169.039 58.1771 163.689 58.1771 158.177 58.1771C158.177 53.3694 158.177 53.3694 159.514 51.9593C159.6 51.8754 159.686 51.7916 159.775 51.7052C160.162 51.3121 160.475 50.872 160.796 50.4249C160.925 50.2516 161.054 50.0786 161.183 49.9059C161.25 49.8164 161.317 49.7268 161.386 49.6345C161.801 49.0827 162.222 48.5349 162.642 47.9864C163.403 46.9895 164.154 45.9855 164.896 44.9739C165.395 44.2937 165.899 43.618 166.407 42.9446C167.861 41.2662 167.861 41.2662 168.458 39.2621C168.362 38.629 168.127 38.316 167.667 37.878C167.225 37.7306 166.882 37.7253 166.416 37.7191C166.33 37.7178 166.244 37.7165 166.155 37.7152C165.87 37.711 165.586 37.7078 165.301 37.7045C165.104 37.7018 164.906 37.699 164.709 37.6962C164.189 37.6889 163.67 37.6824 163.15 37.6761C162.62 37.6694 162.09 37.6621 161.56 37.6548C160.52 37.6406 159.48 37.6273 158.44 37.6144C158.44 36.3965 158.44 35.1785 158.44 33.9237C159.651 33.9009 160.862 33.8786 162.073 33.8578C162.164 33.8562 162.255 33.8546 162.349 33.853C166.187 33.7874 170.023 33.7764 173.862 33.7918Z" fill="#AADCE7"/>
<path d="M33.6427 30.0042C35.263 29.9516 36.7971 30.3935 38.0422 31.4496C38.0743 31.4768 38.0743 31.4768 38.107 31.5046C39.1079 32.3642 39.7296 33.5332 40.0377 34.8047C40.0494 34.8529 40.0494 34.8529 40.0614 34.902C40.1827 35.4339 40.217 35.9521 40.2105 36.4947C40.21 36.5537 40.2097 36.6127 40.2094 36.6718C40.2085 36.8139 40.2071 36.956 40.2054 37.0981C40.253 37.0797 40.3005 37.0613 40.3494 37.0424C41.1359 36.7424 41.8934 36.5606 42.7417 36.5673C42.7926 36.5676 42.8434 36.5679 42.8957 36.5682C43.8228 36.5788 44.6216 36.7719 45.4533 37.1782C45.4999 37.2009 45.5466 37.2237 45.5946 37.2471C46.7328 37.832 47.7242 38.7959 48.2976 39.9424C48.3109 39.9688 48.3243 39.9953 48.338 40.0225C48.9641 41.2844 49.1657 42.7709 48.8584 44.1487C48.8513 44.1805 48.8442 44.2122 48.8369 44.245C48.568 45.4128 48.0176 46.4594 47.1759 47.3134C47.1457 47.3441 47.1155 47.3749 47.0843 47.4065C46.3017 48.1543 45.0993 48.8216 44.0111 48.9158C44.0562 48.9727 44.0562 48.9727 44.1022 49.0307C44.8355 49.9711 45.332 51.0929 45.4934 52.2809C45.4978 52.3131 45.5023 52.3454 45.5068 52.3787C45.6356 53.5186 45.439 54.6813 44.9726 55.726C44.9526 55.7715 44.9325 55.817 44.9119 55.8639C44.6313 56.4624 44.2307 56.9777 43.7708 57.4486C43.7354 57.487 43.7354 57.487 43.6993 57.5262C42.9415 58.3306 41.8625 58.7977 40.8063 59.051C40.7626 59.0617 40.7626 59.0617 40.718 59.0726C40.312 59.1681 39.9119 59.1798 39.4964 59.1808C39.4055 59.1812 39.3147 59.1824 39.2238 59.1837C38.6708 59.1877 38.1387 59.1094 37.6091 58.9459C37.5596 58.9307 37.5596 58.9307 37.5092 58.9152C36.7203 58.6635 35.9843 58.273 35.3582 57.729C35.325 57.7002 35.2918 57.6714 35.2576 57.6417C35.1562 57.552 35.0566 57.4607 34.9576 57.3685C34.9279 57.3415 34.8983 57.3145 34.8678 57.2866C34.5226 56.9593 34.2569 56.5624 33.9961 56.1667C33.9743 56.2025 33.9525 56.2384 33.9299 56.2753C33.7367 56.5871 33.5325 56.8646 33.2751 57.1281C33.242 57.162 33.209 57.1959 33.1749 57.2308C33.1419 57.263 33.1088 57.2952 33.0748 57.3284C33.0504 57.3541 33.026 57.3799 33.0009 57.4064C31.9247 58.5254 30.3744 59.1562 28.8331 59.1868C28.2635 59.1943 27.7018 59.1872 27.1459 59.051C27.0966 59.0399 27.0472 59.0287 26.9964 59.0172C25.9273 58.7559 25.0834 58.2528 24.2615 57.5287C24.2332 57.5038 24.2048 57.4789 24.1756 57.4533C23.151 56.4912 22.482 54.951 22.4123 53.5535C22.3901 51.7971 22.7756 50.2693 23.9411 48.9158C23.8898 48.9142 23.8386 48.9125 23.7858 48.9108C22.7874 48.8069 21.8028 48.1927 21.0567 47.5538C21.0205 47.5229 20.9843 47.4921 20.947 47.4604C20.6866 47.2316 20.4648 46.9886 20.2555 46.7125C20.2393 46.6912 20.223 46.67 20.2063 46.648C19.4837 45.6965 19.0208 44.5067 19.0027 43.3027C19.0022 43.272 19.0017 43.2413 19.0012 43.2097C18.9884 42.2349 19.0738 41.3314 19.4543 40.4231C19.4656 40.3957 19.4769 40.3683 19.4886 40.34C19.776 39.6541 20.1954 39.0475 20.6962 38.5002C20.7297 38.4634 20.7632 38.4266 20.7978 38.3886C21.2769 37.8863 21.8413 37.4911 22.4588 37.1782C22.4841 37.1653 22.5094 37.1524 22.5355 37.1391C24.0575 36.3728 25.7093 36.4289 27.2989 36.9481C27.4361 36.995 27.5714 37.0462 27.7067 37.0981C27.7058 37.058 27.7058 37.058 27.7048 37.0171C27.6666 35.1328 28.1346 33.2953 29.4635 31.9006C29.5187 31.8436 29.5742 31.7868 29.6296 31.7301C29.6536 31.7036 29.6776 31.6771 29.7024 31.6498C30.0869 31.2344 30.6149 30.9474 31.1118 30.6885C31.1364 30.6756 31.1611 30.6628 31.1864 30.6495C31.9476 30.2585 32.7881 30.0366 33.6427 30.0042Z" fill="#F4A99C"/>
<path d="M33.6427 30.0042C35.263 29.9516 36.7971 30.3935 38.0422 31.4496C38.0743 31.4768 38.0743 31.4768 38.107 31.5046C39.1079 32.3642 39.7296 33.5332 40.0377 34.8047C40.0494 34.8529 40.0494 34.8529 40.0614 34.902C40.1827 35.4339 40.217 35.9521 40.2105 36.4947C40.21 36.5537 40.2097 36.6127 40.2094 36.6718C40.2085 36.8139 40.2071 36.956 40.2054 37.0981C40.253 37.0797 40.3005 37.0613 40.3494 37.0424C41.1359 36.7424 41.8934 36.5606 42.7417 36.5673C42.7926 36.5676 42.8434 36.5679 42.8957 36.5682C43.8228 36.5788 44.6216 36.7719 45.4533 37.1782C45.4999 37.2009 45.5466 37.2237 45.5946 37.2471C46.7328 37.832 47.7242 38.7959 48.2976 39.9424C48.3109 39.9688 48.3243 39.9953 48.338 40.0225C48.9641 41.2844 49.1657 42.7709 48.8584 44.1487C48.8513 44.1805 48.8442 44.2122 48.8369 44.245C48.568 45.4128 48.0176 46.4594 47.1759 47.3134C47.1457 47.3441 47.1155 47.3749 47.0843 47.4065C46.3017 48.1543 45.0993 48.8216 44.0111 48.9158C44.0562 48.9727 44.0562 48.9727 44.1022 49.0307C44.8355 49.9711 45.332 51.0929 45.4934 52.2809C45.4978 52.3131 45.5023 52.3454 45.5068 52.3787C45.6356 53.5186 45.439 54.6813 44.9726 55.726C44.9526 55.7715 44.9325 55.817 44.9119 55.8639C44.6313 56.4624 44.2307 56.9777 43.7708 57.4486C43.7354 57.487 43.7354 57.487 43.6993 57.5262C42.9415 58.3306 41.8625 58.7977 40.8063 59.051C40.7626 59.0617 40.7626 59.0617 40.718 59.0726C40.312 59.1681 39.9119 59.1798 39.4964 59.1808C39.4055 59.1812 39.3147 59.1824 39.2238 59.1837C38.6708 59.1877 38.1387 59.1094 37.6091 58.9459C37.5596 58.9307 37.5596 58.9307 37.5092 58.9152C36.7203 58.6635 35.9843 58.273 35.3582 57.729C35.325 57.7002 35.2918 57.6714 35.2576 57.6417C35.1562 57.552 35.0566 57.4607 34.9576 57.3685C34.9279 57.3415 34.8983 57.3145 34.8678 57.2866C34.5226 56.9593 34.2569 56.5624 33.9961 56.1667C33.9743 56.2025 33.9525 56.2384 33.9299 56.2753C33.7367 56.5871 33.5325 56.8646 33.2751 57.1281C33.242 57.162 33.209 57.1959 33.1749 57.2308C33.1419 57.263 33.1088 57.2952 33.0748 57.3284C33.0504 57.3541 33.026 57.3799 33.0009 57.4064C31.9247 58.5254 30.3744 59.1562 28.8331 59.1868C28.2635 59.1943 27.7018 59.1872 27.1459 59.051C27.0966 59.0399 27.0472 59.0287 26.9964 59.0172C25.9273 58.7559 25.0834 58.2528 24.2615 57.5287C24.2332 57.5038 24.2048 57.4789 24.1756 57.4533C23.151 56.4912 22.482 54.951 22.4123 53.5535C22.3901 51.7971 22.7756 50.2693 23.9411 48.9158C23.8898 48.9142 23.8386 48.9125 23.7858 48.9108C22.7874 48.8069 21.8028 48.1927 21.0567 47.5538C21.0205 47.5229 20.9843 47.4921 20.947 47.4604C20.6866 47.2316 20.4648 46.9886 20.2555 46.7125C20.2393 46.6912 20.223 46.67 20.2063 46.648C19.4837 45.6965 19.0208 44.5067 19.0027 43.3027C19.0022 43.272 19.0017 43.2413 19.0012 43.2097C18.9884 42.2349 19.0738 41.3314 19.4543 40.4231C19.4656 40.3957 19.4769 40.3683 19.4886 40.34C19.776 39.6541 20.1954 39.0475 20.6962 38.5002C20.7297 38.4634 20.7632 38.4266 20.7978 38.3886C21.2769 37.8863 21.8413 37.4911 22.4588 37.1782C22.4841 37.1653 22.5094 37.1524 22.5355 37.1391C24.0575 36.3728 25.7093 36.4289 27.2989 36.9481C27.4361 36.995 27.5714 37.0462 27.7067 37.0981C27.7058 37.058 27.7058 37.058 27.7048 37.0171C27.6666 35.1328 28.1346 33.2953 29.4635 31.9006C29.5187 31.8436 29.5742 31.7868 29.6296 31.7301C29.6536 31.7036 29.6776 31.6771 29.7024 31.6498C30.0869 31.2344 30.6149 30.9474 31.1118 30.6885C31.1364 30.6756 31.1611 30.6628 31.1864 30.6495C31.9476 30.2585 32.7881 30.0366 33.6427 30.0042ZM30.7112 32.6514C30.6615 32.6962 30.6615 32.6962 30.6108 32.7419C29.7251 33.5831 29.1548 34.8593 29.1045 36.0816C29.0833 37.0592 29.2235 37.9528 29.648 38.8415C29.7428 39.0481 29.7848 39.2338 29.7498 39.4616C29.655 39.5986 29.5484 39.6576 29.3892 39.702C29.1755 39.7302 29.0544 39.6911 28.8821 39.574C28.7663 39.4847 28.656 39.3895 28.5455 39.2939C27.3718 38.2811 25.9303 37.8478 24.3902 37.9494C23.2157 38.079 22.2135 38.7735 21.4706 39.6618C20.7621 40.5531 20.3553 41.6618 20.3657 42.8017C20.3662 42.8676 20.3662 42.8676 20.3666 42.9348C20.3846 44.2889 20.9159 45.4668 21.8504 46.4371C22.6724 47.2375 23.7174 47.6949 24.8655 47.6865C24.8951 47.6861 24.9247 47.6856 24.9552 47.6852C25.0453 47.684 25.1353 47.6836 25.2254 47.6833C25.5488 47.6816 25.8679 47.6684 26.1901 47.6379C26.3589 47.632 26.4447 47.6605 26.585 47.7541C26.7115 47.8928 26.7336 48.0387 26.7266 48.2215C26.6418 48.5914 26.1643 48.8484 25.8715 49.046C24.8984 49.721 24.2136 50.7748 23.9085 51.9103C23.9002 51.9411 23.8919 51.9718 23.8834 52.0035C23.5972 53.1309 23.7626 54.4715 24.3456 55.4818C24.5519 55.82 24.7864 56.1226 25.0627 56.407C25.0876 56.4344 25.1125 56.4618 25.1382 56.49C25.854 57.2537 27.0505 57.7596 28.0869 57.8169C28.7852 57.8322 29.4405 57.8359 30.1103 57.6088C30.1376 57.5998 30.1649 57.5909 30.193 57.5816C30.782 57.3819 31.3353 57.0687 31.7928 56.6474C31.8239 56.6189 31.8239 56.6189 31.8555 56.5898C32.741 55.7677 33.1833 54.757 33.4746 53.5992C33.5362 53.4235 33.6234 53.2847 33.7683 53.1672C33.9429 53.0941 34.0862 53.0976 34.264 53.1597C34.5126 53.3814 34.5693 53.7764 34.6496 54.0861C34.7593 54.4924 34.8904 54.8688 35.0778 55.2453C35.1067 55.3046 35.1067 55.3046 35.1361 55.3652C35.6782 56.4194 36.6396 57.2011 37.755 57.5818C39.0835 57.9959 40.4131 57.9341 41.6598 57.295C42.7521 56.7115 43.5646 55.7455 43.9459 54.5674C44.2362 53.608 44.2686 52.6419 43.9711 51.68C43.9621 51.6508 43.9531 51.6216 43.9438 51.5916C43.6371 50.6321 43.0163 49.7997 42.2485 49.1562C42.225 49.1346 42.2014 49.1131 42.1772 49.0909C42.0527 48.9773 41.9262 48.873 41.7873 48.7775C41.7623 48.7602 41.7373 48.7429 41.7115 48.7251C41.6616 48.6911 41.6114 48.6575 41.5609 48.6245C41.3993 48.5144 41.3139 48.4189 41.247 48.2348C41.2337 48.108 41.2496 47.996 41.2871 47.8743C41.3751 47.7659 41.4431 47.6961 41.5675 47.6339C41.6383 47.63 41.7093 47.6287 41.7803 47.6289C41.8182 47.6288 41.856 47.6287 41.895 47.6286C42.0081 47.6339 42.0081 47.6339 42.0992 47.6538C42.3227 47.6951 42.5526 47.6838 42.7793 47.684C42.8064 47.684 42.8334 47.684 42.8613 47.6841C44.2391 47.6819 45.3653 47.1597 46.3346 46.1917C47.1616 45.2929 47.6358 44.0791 47.6291 42.8592C47.6288 42.8156 47.6286 42.772 47.6284 42.727C47.6095 41.4619 47.0864 40.2905 46.2145 39.3815C46.1841 39.3486 46.1537 39.3157 46.1224 39.2818C45.3574 38.478 44.2839 37.9628 43.1696 37.9273C43.0879 37.9265 43.0062 37.9264 42.9245 37.9268C42.8592 37.9272 42.8592 37.9272 42.7926 37.9275C41.5356 37.9462 40.2625 38.4479 39.3642 39.341C39.341 39.3651 39.3179 39.3892 39.2941 39.4141C39.1301 39.5819 38.9807 39.6901 38.7408 39.7195C38.5855 39.6998 38.4921 39.6701 38.3627 39.5818C38.2453 39.419 38.2345 39.3068 38.2628 39.1108C38.2985 38.9482 38.3667 38.8 38.4328 38.6479C38.5947 38.259 38.7135 37.87 38.8033 37.4586C38.8132 37.4139 38.8231 37.3691 38.8332 37.323C38.9667 36.5749 38.922 35.7858 38.7232 35.055C38.7159 35.028 38.7086 35.0009 38.7011 34.973C38.3601 33.7519 37.532 32.6534 36.4398 32.0105C34.5878 30.9838 32.2835 31.2359 30.7112 32.6514Z" fill="black"/>
<path d="M37.5748 41.1129C37.6793 41.2014 37.7808 41.2924 37.8819 41.3847C37.9114 41.4114 37.9409 41.438 37.9713 41.4655C38.9523 42.3976 39.5337 43.8156 39.5757 45.1571C39.5986 46.4255 39.3502 47.591 38.603 48.6356C38.5867 48.6584 38.5704 48.6812 38.5536 48.7047C37.7072 49.8693 36.4856 50.7637 35.0451 50.9916C34.7499 51.0342 34.4545 51.0675 34.1563 51.0793C34.0796 51.0824 34.0796 51.0824 34.0012 51.0857C32.4537 51.1285 31.0704 50.47 29.95 49.4368C29.0034 48.5183 28.4084 47.1247 28.3809 45.8087C28.3774 45.3426 28.3849 44.8893 28.4678 44.4293C28.4725 44.4029 28.4773 44.3765 28.4821 44.3492C28.7382 42.98 29.5328 41.7638 30.6744 40.968C32.7589 39.5625 35.5779 39.4759 37.5748 41.1129Z" fill="#F8E482"/>
<path d="M37.5748 41.1129C37.6793 41.2014 37.7808 41.2924 37.8819 41.3847C37.9114 41.4114 37.9409 41.438 37.9713 41.4655C38.9523 42.3976 39.5337 43.8156 39.5757 45.1571C39.5986 46.4255 39.3502 47.591 38.603 48.6356C38.5867 48.6584 38.5704 48.6812 38.5536 48.7047C37.7072 49.8693 36.4856 50.7637 35.0451 50.9916C34.7499 51.0342 34.4545 51.0675 34.1563 51.0793C34.0796 51.0824 34.0796 51.0824 34.0012 51.0857C32.4537 51.1285 31.0704 50.47 29.95 49.4368C29.0034 48.5183 28.4084 47.1247 28.3809 45.8087C28.3774 45.3426 28.3849 44.8893 28.4678 44.4293C28.4725 44.4029 28.4773 44.3765 28.4821 44.3492C28.7382 42.98 29.5328 41.7638 30.6744 40.968C32.7589 39.5625 35.5779 39.4759 37.5748 41.1129ZM31.1919 42.3061C31.1724 42.3237 31.1528 42.3412 31.1327 42.3593C30.3274 43.0925 29.807 44.148 29.7447 45.2384C29.6946 46.4315 30.0808 47.5071 30.8839 48.4002C31.565 49.1347 32.4895 49.6486 33.4994 49.7287C33.6443 49.7332 33.7885 49.7339 33.9335 49.7322C33.9844 49.7318 34.0354 49.7314 34.0879 49.731C34.4452 49.7251 34.7746 49.7036 35.1178 49.597C35.1428 49.5893 35.1679 49.5815 35.1937 49.5736C35.8552 49.3629 36.4119 49.0245 36.9205 48.5555C36.947 48.5322 36.9735 48.5089 37.0009 48.4849C37.6708 47.8664 38.1558 46.8278 38.2087 45.9244C38.252 44.6453 37.9499 43.5253 37.0744 42.5663C36.3654 41.814 35.4058 41.3043 34.3601 41.2596C33.1502 41.2291 32.1059 41.4776 31.1919 42.3061Z" fill="black"/>
</svg>
