<svg width="350" height="350" viewBox="0 0 350 350" fill="none" xmlns="http://www.w3.org/2000/svg">
<path d="M169.371 67.0678C173.751 69.12 176.186 73.702 178.315 77.8254C178.412 78.0127 178.509 78.2 178.61 78.3929C180.67 82.4108 182.71 86.9345 183.51 91.3903C183.72 91.4119 183.931 91.4335 184.148 91.4557C186.87 91.7986 189.333 92.5927 191.908 93.5166C192.748 93.7984 192.748 93.7984 193.611 93.9878C194.257 93.6405 194.819 93.2885 195.415 92.8694C195.779 92.6261 196.143 92.3837 196.508 92.1423C196.792 91.9544 196.792 91.9544 197.08 91.7628C202.222 88.4108 209.535 84.4813 215.834 85.3294C217.299 85.9462 217.848 86.8018 218.501 88.1874C219.828 91.8427 219.082 96.5554 218.63 100.319C218.594 100.625 218.559 100.93 218.522 101.244C218.354 102.562 218.165 103.827 217.771 105.097C217.447 106.177 217.21 107.003 217.277 108.13C218.109 109.35 219.126 110.207 220.249 111.151C221.054 111.875 221.707 112.702 222.364 113.559C222.494 113.728 222.624 113.897 222.757 114.07C229.535 123.025 232.745 133.221 234.793 144.159C235.653 148.723 236.577 152.838 238.923 156.906C239.17 157.349 239.415 157.792 239.66 158.236C240.028 158.902 240.398 159.567 240.771 160.231C244.371 166.647 246.268 173.244 246.229 180.626C246.228 180.837 246.228 181.048 246.227 181.265C246.212 184.384 246.103 187.359 245.273 190.385C245.219 190.587 245.164 190.789 245.109 190.997C241.763 203.092 232.444 212.095 221.831 218.165C220.054 219.165 218.255 220.106 216.412 220.978C218.091 222.244 219.771 223.505 221.48 224.73C224.388 226.842 227.087 229.18 229.688 231.657C229.861 231.821 230.034 231.986 230.212 232.156C234.717 236.477 238.613 241.241 241.232 246.953C245.591 242.574 247.683 237.552 248.773 231.535C249.168 229.436 249.606 227.55 251.226 226.047C252.401 225.274 253.085 225.192 254.509 225.307C257.383 226.119 259.197 228.821 260.624 231.278C265.084 239.295 266.155 248.483 263.744 257.343C263.692 257.538 263.639 257.733 263.585 257.934C261.796 264.343 258.087 269.802 253.643 274.66C253.427 274.897 253.21 275.134 252.988 275.378C245.709 282.982 233.625 289.827 222.953 290.274C222.408 290.264 221.863 290.255 221.318 290.245C221.338 290.509 221.358 290.773 221.379 291.045C221.565 293.623 221.656 296.186 221.665 298.772C221.666 298.961 221.667 299.151 221.668 299.346C221.672 300.348 221.675 301.35 221.676 302.353C221.677 303.166 221.681 303.978 221.688 304.791C221.749 312.563 221.749 312.563 221.241 316.055C221.21 316.273 221.179 316.492 221.147 316.717C220.591 319.957 218.841 323.142 216.292 325.237C210.279 329.333 202.612 330.164 195.541 328.866C190.956 327.76 186.852 325.527 184.303 321.452C182.373 318.007 181.718 314.669 181.778 310.737C181.477 310.787 181.477 310.787 181.17 310.838C180.243 310.992 179.315 311.144 178.387 311.296C178.072 311.349 177.756 311.402 177.432 311.456C173.637 312.073 169.92 312.234 166.083 312.234C165.317 312.234 164.551 312.239 163.785 312.245C158.82 312.261 154.024 311.742 149.164 310.737C149.16 311.02 149.156 311.303 149.152 311.595C149.014 316.333 147.633 320.835 144.348 324.392C139.243 329.124 132.465 329.479 125.88 329.266C123.832 329.143 121.953 328.704 120.014 328.054C119.7 327.949 119.385 327.845 119.061 327.737C115.177 326.28 111.979 323.669 110.22 319.885C108.758 316.176 108.713 312.284 108.72 308.348C108.72 307.988 108.72 307.629 108.719 307.258C108.719 306.499 108.72 305.739 108.721 304.98C108.722 303.848 108.721 302.717 108.719 301.585C108.718 297.841 108.76 294.1 108.885 290.357C108.896 290.025 108.907 289.692 108.918 289.35C109.219 281.218 110.586 273.099 112.222 265.136C112.072 265.194 111.923 265.252 111.769 265.312C106.304 267.424 101.444 268.776 95.7506 266.516C92.3651 264.957 89.6685 262.55 88.1947 259.095C86.5829 254.517 87.4132 250.327 89.3763 246.053C91.8726 240.918 95.5442 236.566 99.5228 232.523C99.8057 232.229 100.088 231.935 100.371 231.641C101.851 230.123 103.385 228.736 105.044 227.417C105.627 226.947 106.198 226.474 106.764 225.985C108.721 224.292 110.732 222.742 112.857 221.266C113.659 220.727 113.659 220.727 114.242 220.112C114.059 220.019 113.876 219.927 113.688 219.831C106.878 216.363 106.878 216.363 104.141 214.34C103.838 214.119 103.535 213.897 103.223 213.669C100.991 212.01 98.9371 210.196 96.9253 208.279C96.6824 208.055 96.4394 207.83 96.1891 207.599C89.2498 200.992 85.3664 192.074 85.011 182.547C84.7862 172.353 88.0354 163.889 93.1306 155.166C95.6829 150.672 96.469 145.556 97.4943 140.555C98.7891 134.275 100.435 128.193 103.563 122.561C103.797 122.121 103.797 122.121 104.036 121.672C105.896 118.303 108.33 115.277 110.815 112.351C110.956 112.184 111.097 112.017 111.243 111.844C111.918 111.062 112.597 110.342 113.39 109.678C114.876 108.476 114.876 108.476 115.477 106.754C115.323 105.747 115.075 104.787 114.819 103.801C113.77 98.3997 112.4 90.4253 115.361 85.4196C116.377 84.3139 117.009 83.9398 118.517 83.742C120.631 83.816 122.658 84.6256 124.632 85.3294C124.908 85.4269 125.183 85.5244 125.467 85.6248C127.483 86.409 129.401 87.4099 131.325 88.3959C131.615 88.5432 131.906 88.6905 132.206 88.8422C133.566 89.5496 134.819 90.2557 136 91.2381C138.001 92.9358 138.001 92.9358 140.505 93.3521C142.414 92.9787 144.202 92.3318 146.02 91.6547C147.248 91.2662 148.46 91.1521 149.742 91.1017C149.776 90.8936 149.81 90.6854 149.845 90.471C150.036 89.6345 150.315 88.9735 150.694 88.2054C150.832 87.9271 150.969 87.6488 151.111 87.3621C151.26 87.0663 151.41 86.7706 151.564 86.4658C151.719 86.1585 151.873 85.8512 152.033 85.5346C162.696 64.657 162.696 64.657 169.371 67.0678Z" fill="#ECECEB"/>
<path d="M169.371 67.0678C173.751 69.12 176.186 73.702 178.315 77.8254C178.412 78.0127 178.509 78.2 178.61 78.3929C180.67 82.4108 182.71 86.9345 183.51 91.3903C183.72 91.4119 183.931 91.4335 184.148 91.4557C186.87 91.7986 189.333 92.5927 191.908 93.5166C192.748 93.7984 192.748 93.7984 193.611 93.9878C194.257 93.6405 194.819 93.2885 195.415 92.8694C195.779 92.6261 196.143 92.3837 196.508 92.1423C196.792 91.9544 196.792 91.9544 197.08 91.7628C202.222 88.4108 209.535 84.4813 215.834 85.3294C217.299 85.9462 217.848 86.8018 218.501 88.1874C219.828 91.8427 219.082 96.5554 218.63 100.319C218.594 100.625 218.559 100.93 218.522 101.244C218.354 102.562 218.165 103.827 217.771 105.097C217.447 106.177 217.21 107.003 217.277 108.13C218.109 109.35 219.126 110.207 220.249 111.151C221.054 111.875 221.707 112.702 222.364 113.559C222.494 113.728 222.624 113.897 222.757 114.07C229.535 123.025 232.745 133.221 234.793 144.159C235.653 148.723 236.577 152.838 238.923 156.906C239.17 157.349 239.415 157.792 239.66 158.236C240.028 158.902 240.398 159.567 240.771 160.231C244.371 166.647 246.268 173.244 246.229 180.626C246.228 180.837 246.228 181.048 246.227 181.265C246.212 184.384 246.103 187.359 245.273 190.385C245.219 190.587 245.164 190.789 245.109 190.997C241.763 203.092 232.444 212.095 221.831 218.165C220.054 219.165 218.255 220.106 216.412 220.978C218.091 222.244 219.771 223.505 221.48 224.73C224.388 226.842 227.087 229.18 229.688 231.657C229.861 231.821 230.034 231.986 230.212 232.156C234.717 236.477 238.613 241.241 241.232 246.953C245.591 242.574 247.683 237.552 248.773 231.535C249.168 229.436 249.606 227.55 251.226 226.047C252.401 225.274 253.085 225.192 254.509 225.307C257.383 226.119 259.197 228.821 260.624 231.278C265.084 239.295 266.155 248.483 263.744 257.343C263.692 257.538 263.639 257.733 263.585 257.934C261.796 264.343 258.087 269.802 253.643 274.66C253.427 274.897 253.21 275.134 252.988 275.378C245.709 282.982 233.625 289.827 222.953 290.274C222.408 290.264 221.863 290.255 221.318 290.245C221.338 290.509 221.358 290.773 221.379 291.045C221.565 293.623 221.656 296.186 221.665 298.772C221.666 298.961 221.667 299.151 221.668 299.346C221.672 300.348 221.675 301.35 221.676 302.353C221.677 303.166 221.681 303.978 221.688 304.791C221.749 312.563 221.749 312.563 221.241 316.055C221.21 316.273 221.179 316.492 221.147 316.717C220.591 319.957 218.841 323.142 216.292 325.237C210.279 329.333 202.612 330.164 195.541 328.866C190.956 327.76 186.852 325.527 184.303 321.452C182.373 318.007 181.718 314.669 181.778 310.737C181.477 310.787 181.477 310.787 181.17 310.838C180.243 310.992 179.315 311.144 178.387 311.296C178.072 311.349 177.756 311.402 177.432 311.456C173.637 312.073 169.92 312.234 166.083 312.234C165.317 312.234 164.551 312.239 163.785 312.245C158.82 312.261 154.024 311.742 149.164 310.737C149.16 311.02 149.156 311.303 149.152 311.595C149.014 316.333 147.633 320.835 144.348 324.392C139.243 329.124 132.465 329.479 125.88 329.266C123.832 329.143 121.953 328.704 120.014 328.054C119.7 327.949 119.385 327.845 119.061 327.737C115.177 326.28 111.979 323.669 110.22 319.885C108.758 316.176 108.713 312.284 108.72 308.348C108.72 307.988 108.72 307.629 108.719 307.258C108.719 306.499 108.72 305.739 108.721 304.98C108.722 303.848 108.721 302.717 108.719 301.585C108.718 297.841 108.76 294.1 108.885 290.357C108.896 290.025 108.907 289.692 108.918 289.35C109.219 281.218 110.586 273.099 112.222 265.136C112.072 265.194 111.923 265.252 111.769 265.312C106.304 267.424 101.444 268.776 95.7506 266.516C92.3651 264.957 89.6685 262.55 88.1947 259.095C86.5829 254.517 87.4132 250.327 89.3763 246.053C91.8726 240.918 95.5442 236.566 99.5228 232.523C99.8057 232.229 100.088 231.935 100.371 231.641C101.851 230.123 103.385 228.736 105.044 227.417C105.627 226.947 106.198 226.474 106.764 225.985C108.721 224.292 110.732 222.742 112.857 221.266C113.659 220.727 113.659 220.727 114.242 220.112C114.059 220.019 113.876 219.927 113.688 219.831C106.878 216.363 106.878 216.363 104.141 214.34C103.838 214.119 103.535 213.897 103.223 213.669C100.991 212.01 98.9371 210.196 96.9253 208.279C96.6824 208.055 96.4394 207.83 96.1891 207.599C89.2498 200.992 85.3664 192.074 85.011 182.547C84.7862 172.353 88.0354 163.889 93.1306 155.166C95.6829 150.672 96.469 145.556 97.4943 140.555C98.7891 134.275 100.435 128.193 103.563 122.561C103.797 122.121 103.797 122.121 104.036 121.672C105.896 118.303 108.33 115.277 110.815 112.351C110.956 112.184 111.097 112.017 111.243 111.844C111.918 111.062 112.597 110.342 113.39 109.678C114.876 108.476 114.876 108.476 115.477 106.754C115.323 105.747 115.075 104.787 114.819 103.801C113.77 98.3997 112.4 90.4253 115.361 85.4196C116.377 84.3139 117.009 83.9398 118.517 83.742C120.631 83.816 122.658 84.6256 124.632 85.3294C124.908 85.4269 125.183 85.5244 125.467 85.6248C127.483 86.409 129.401 87.4099 131.325 88.3959C131.615 88.5432 131.906 88.6905 132.206 88.8422C133.566 89.5496 134.819 90.2557 136 91.2381C138.001 92.9358 138.001 92.9358 140.505 93.3521C142.414 92.9787 144.202 92.3318 146.02 91.6547C147.248 91.2662 148.46 91.1521 149.742 91.1017C149.776 90.8936 149.81 90.6854 149.845 90.471C150.036 89.6345 150.315 88.9735 150.694 88.2054C150.832 87.9271 150.969 87.6488 151.111 87.3621C151.26 87.0663 151.41 86.7706 151.564 86.4658C151.719 86.1585 151.873 85.8512 152.033 85.5346C162.696 64.657 162.696 64.657 169.371 67.0678ZM154.202 96.5624C152.769 97.1927 151.225 97.5241 149.714 97.9222C141.667 100.06 134.1 103.382 127.23 108.13C127.065 108.242 126.901 108.354 126.731 108.47C124.323 110.117 122.059 111.894 119.864 113.817C119.466 114.166 119.064 114.512 118.663 114.857C115.378 117.732 112.835 120.924 110.49 124.581C110.382 124.749 110.274 124.916 110.163 125.089C106.496 130.885 104.97 137.374 103.571 144.004C103.522 144.239 103.472 144.473 103.42 144.715C103.173 145.884 102.928 147.053 102.691 148.224C101.94 151.868 100.797 155.167 98.9997 158.439C98.7458 158.913 98.4921 159.387 98.2387 159.862C98.0521 160.209 98.0521 160.209 97.8618 160.564C93.235 169.207 89.6224 178.832 92.5228 188.709C92.6411 189.076 92.7617 189.442 92.8847 189.808C92.945 189.991 93.0054 190.174 93.0675 190.362C96.6365 200.866 105.751 208.28 115.405 213.086C118.285 214.466 121.267 215.575 124.267 216.665C127.695 217.924 127.695 217.924 128.384 218.958C128.276 220.022 128.276 220.022 128.096 220.978C127.842 221.057 127.589 221.136 127.328 221.218C116.698 224.938 106.468 233.429 99.8115 242.335C99.6852 242.502 99.559 242.668 99.429 242.84C98.0175 244.707 96.7383 246.605 95.6266 248.667C95.5324 248.841 95.4382 249.015 95.3411 249.194C94.1613 251.463 93.5867 253.778 94.2072 256.293C94.9838 258.35 96.5008 259.866 98.4563 260.854C101.511 261.985 104.44 261.226 107.345 259.966C108.629 259.368 109.861 258.7 111.076 257.972C111.589 257.665 112.111 257.374 112.634 257.085C115.782 254.991 116.409 251.487 117.45 248.04C117.893 246.659 118.219 245.745 119.437 244.933C120.696 244.77 121.255 244.791 122.305 245.528C123.06 246.603 122.987 247.098 122.901 248.396C122.729 249.182 122.542 249.936 122.32 250.706C122.26 250.923 122.2 251.14 122.138 251.363C122.009 251.825 121.88 252.287 121.75 252.748C121.408 253.96 121.078 255.175 120.746 256.39C120.681 256.627 120.616 256.865 120.549 257.11C117.958 266.59 116.572 276.483 115.649 286.259C115.616 286.603 115.616 286.603 115.583 286.953C115.142 291.959 115.054 296.97 115.055 301.992C115.054 303.019 115.049 304.046 115.043 305.073C114.723 312.939 114.723 312.939 117.783 319.875C121.12 322.458 124.851 322.674 128.907 322.678C129.276 322.686 129.644 322.693 130.024 322.7C133.507 322.711 136.971 322.078 139.64 319.684C142.514 316.675 142.679 311.824 143.067 307.898C143.355 305.19 143.355 305.19 144.258 304.099C146.226 303.115 149.118 304.085 151.149 304.496C161.485 306.477 172.421 306.565 182.678 303.943C183.805 303.668 184.96 303.671 186.107 303.81C187.076 304.472 187.327 305.004 187.55 306.119C187.601 306.62 187.641 307.123 187.674 307.625C188.025 314.484 188.025 314.484 191.681 320.063C194.754 322.496 198.464 322.671 202.233 322.66C202.577 322.665 202.92 322.67 203.274 322.675C207.076 322.677 210.255 322.032 213.038 319.323C215.578 315.185 215.346 310.436 215.311 305.758C215.308 305.183 215.306 304.608 215.303 304.033C215.294 302.419 215.277 300.806 215.257 299.192C215.253 298.829 215.249 298.465 215.245 298.09C215.013 282.545 212.521 266.597 208.457 251.61C207.955 249.716 207.571 248.049 207.753 246.087C208.488 245.202 208.933 244.977 210.062 244.789C211.164 244.972 211.574 245.308 212.371 246.087C212.762 247.021 212.762 247.021 213.064 248.119C213.182 248.522 213.301 248.925 213.421 249.327C213.482 249.535 213.543 249.743 213.605 249.958C214.834 254.404 214.834 254.404 218.024 257.505C218.536 257.758 219.061 257.984 219.586 258.209C219.94 258.397 220.291 258.589 220.64 258.784C223.86 260.554 227.161 261.803 230.851 260.876C232.923 260.171 234.285 259.428 235.406 257.506C236.526 255.08 236.333 252.728 235.442 250.254C233.365 245.42 230.124 241.481 226.513 237.718C226.344 237.539 226.175 237.361 226.001 237.177C220.22 231.099 213.48 226.823 206.07 222.995C205.735 222.82 205.4 222.645 205.055 222.465C204.604 222.233 204.604 222.233 204.144 221.996C203.424 221.555 203.424 221.555 202.847 220.689C202.738 219.824 202.738 219.824 202.847 218.958C203.854 217.907 205.26 217.685 206.617 217.316C218.892 213.789 230.23 206.11 236.539 194.829C237.588 192.856 238.314 190.798 238.923 188.653C239.021 188.311 239.119 187.969 239.22 187.616C241.655 177.472 237.691 167.954 232.665 159.323C232.538 159.102 232.411 158.881 232.28 158.653C232.044 158.245 231.805 157.839 231.56 157.437C229.087 153.166 228.518 148.012 227.674 143.236C225.852 132.994 222.272 124.056 214.969 116.5C214.737 116.254 214.506 116.008 214.268 115.755C212.353 113.764 210.252 112.085 208.042 110.439C207.763 110.23 207.763 110.23 207.479 110.017C199.225 103.873 189.973 99.6404 179.944 97.3308C178.397 96.9612 178.397 96.9612 177.905 96.4389C176.971 95.5568 175.484 95.6544 174.256 95.5211C173.767 95.4666 173.767 95.4666 173.267 95.411C170.452 95.1309 167.65 95.0566 164.822 95.0521C164.618 95.0511 164.413 95.0501 164.203 95.049C159.051 95.0275 159.051 95.0275 154.202 96.5624Z" fill="black"/>
<path d="M179.204 235.155C179.892 235.701 180.548 236.265 181.2 236.852C181.483 237.077 181.765 237.303 182.056 237.535C184.725 239.755 186.547 243.05 188.127 246.088C188.223 246.269 188.319 246.45 188.418 246.637C191.579 252.685 193.35 259.474 193.611 266.291C193.62 266.486 193.63 266.681 193.639 266.883C194.004 275.182 191.811 282.794 186.322 289.135C182.469 293.131 177.581 295.3 172.253 296.595C171.835 296.702 171.835 296.702 171.408 296.81C163.995 298.368 155.555 296.847 149.164 292.843C148.145 292.13 147.205 291.363 146.278 290.534C146.038 290.321 145.797 290.108 145.55 289.888C140.298 284.951 137.531 277.557 137.248 270.432C136.995 259.063 140.626 246.797 148.519 238.373C156.767 229.996 169.392 228.403 179.204 235.155Z" fill="#F2D3A3"/>
<path d="M179.204 235.155C179.892 235.701 180.548 236.265 181.2 236.852C181.483 237.077 181.765 237.303 182.056 237.535C184.725 239.755 186.547 243.05 188.127 246.088C188.223 246.269 188.319 246.45 188.418 246.637C191.579 252.685 193.35 259.474 193.611 266.291C193.62 266.486 193.63 266.681 193.639 266.883C194.004 275.182 191.811 282.794 186.322 289.135C182.469 293.131 177.581 295.3 172.253 296.595C171.835 296.702 171.835 296.702 171.408 296.81C163.995 298.368 155.555 296.847 149.164 292.843C148.145 292.13 147.205 291.363 146.278 290.534C146.038 290.321 145.797 290.108 145.55 289.888C140.298 284.951 137.531 277.557 137.248 270.432C136.995 259.063 140.626 246.797 148.519 238.373C156.767 229.996 169.392 228.403 179.204 235.155ZM152.159 244.103C145.984 252.043 143.084 262.467 144.033 272.45C144.71 277.531 146.983 282.589 150.986 285.889C156.622 290.008 163.554 291.418 170.422 290.357C175.422 289.396 180.169 286.801 183.256 282.704C187.45 276.296 187.907 268.244 186.513 260.857C186.388 260.26 186.251 259.668 186.107 259.075C186.059 258.875 186.011 258.674 185.961 258.467C184.483 252.494 181.819 246.729 177.448 242.336C177.278 242.156 177.108 241.976 176.933 241.79C173.683 238.618 169.322 237.319 164.899 237.321C159.769 237.454 155.421 240.284 152.159 244.103Z" fill="black"/>
<path d="M254.797 234.543C254.988 234.543 255.178 234.543 255.374 234.543C255.703 235.444 256.026 236.346 256.349 237.249C256.44 237.5 256.532 237.751 256.626 238.01C259.188 245.216 258.608 253.505 255.41 260.422C254.955 261.343 254.456 262.233 253.931 263.116C253.75 263.423 253.569 263.73 253.382 264.046C247.261 273.748 236.462 280.241 225.461 282.82C225.142 282.89 224.822 282.959 224.493 283.03C224.143 283.116 224.143 283.116 223.786 283.204C222.763 283.364 221.776 283.336 220.741 283.319C220.112 279.984 219.616 276.638 219.151 273.276C218.843 271.086 218.476 268.931 217.975 266.778C217.857 266.015 217.889 265.567 218.143 264.847C218.35 264.942 218.556 265.036 218.769 265.133C221.995 266.547 224.927 267.228 228.443 267.265C228.693 267.269 228.944 267.273 229.201 267.277C233.157 267.248 236.339 265.54 239.201 262.885C241.049 260.892 242.121 258.422 242.549 255.756C243.103 254.407 243.971 253.766 245.067 252.831C250.386 248.2 253.762 241.463 254.797 234.543Z" fill="#3A9592"/>
<path d="M123.117 163.039C126.261 165.155 128.089 168.236 128.961 171.914C129.345 176.217 128.451 179.702 125.786 183.17C123.89 185.347 120.585 187.288 117.676 187.555C113.701 187.697 110.589 187.414 107.315 184.901C107.082 184.746 107.082 184.746 106.845 184.587C105.585 183.66 104.823 182.51 104.05 181.168C103.953 180.999 103.855 180.83 103.755 180.656C102.089 177.629 101.932 174.031 102.597 170.674C103.922 166.739 106.318 163.983 109.985 162.137C114.403 159.986 118.974 160.589 123.117 163.039Z" fill="#F4A99C"/>
<path d="M223.519 163.342C226.274 165.313 228.121 168.219 229.025 171.494C229.531 175.679 228.818 179.478 226.225 182.881C223.817 185.53 220.722 187.255 217.121 187.596C213.427 187.636 210.701 186.834 207.753 184.613C207.378 184.363 207.378 184.363 206.996 184.108C204.517 181.76 203.082 178.575 202.778 175.188C202.676 171.268 203.993 167.656 206.671 164.771C207.862 163.658 209.194 162.844 210.639 162.101C210.831 162.002 211.022 161.903 211.219 161.801C215.136 160.158 220.077 161.121 223.519 163.342Z" fill="#F4A99C"/>
<path d="M138.197 183.458C139.146 184.207 139.765 185.237 140.437 186.227C144.528 192.135 151.253 194.878 158.112 196.157C167.452 197.767 178.228 196.912 186.223 191.463C187.078 190.842 187.896 190.198 188.705 189.519C188.896 189.36 189.088 189.201 189.285 189.038C190.686 187.763 191.564 186.186 192.487 184.553C193.03 183.753 193.286 183.463 194.188 183.17C195.172 183.065 195.781 183.111 196.696 183.494C197.557 184.192 197.872 184.715 198.229 185.767C198.279 188.778 196.295 191.028 194.323 193.126C186.983 200.582 176.997 203.557 166.68 203.715C155.58 203.679 145.423 200.789 137.259 193.018C135.298 191.02 133.45 188.697 133.477 185.787C133.662 184.71 134.242 184.202 135.023 183.458C136.147 183.083 137.082 183.087 138.197 183.458Z" fill="black"/>
<path d="M167.635 75.5166C171.497 77.3172 173.651 84.8922 175.011 88.6119C175.892 91.0546 176.774 93.4991 177.448 96.0082C175.927 96.0351 174.52 95.94 173.011 95.7196C170.347 95.3836 167.682 95.3653 165.002 95.3588C164.796 95.3574 164.59 95.3559 164.378 95.3545C161.38 95.3373 158.479 95.5708 155.514 96.0082C155.742 94.7288 156.185 93.6765 156.776 92.5268C156.878 92.3269 156.98 92.127 157.085 91.921C157.424 91.2614 157.767 90.6042 158.111 89.9473C158.228 89.7225 158.345 89.4977 158.466 89.2661C159.965 86.4045 161.578 83.6413 163.36 80.9462C163.521 80.7013 163.682 80.4564 163.848 80.2041C164.984 78.5178 166.251 77.0048 167.635 75.5166Z" fill="#3A9592"/>
<path d="M204.921 145.523C206.798 146.594 207.974 148.233 208.707 150.247C209.297 152.851 209.314 155.891 208.136 158.325C207.029 160.062 205.712 161.216 203.712 161.812C201.885 162.015 200.602 161.731 199.095 160.658C197.174 158.922 196.136 156.846 195.851 154.263C195.765 151.554 196.424 149.162 198.193 147.075C200.139 145.096 202.3 144.361 204.921 145.523Z" fill="black"/>
<path d="M132.194 145.318C134.288 146.491 135.668 148.417 136.33 150.706C136.904 153.74 136.408 156.553 134.806 159.179C133.996 160.292 133.207 161.153 131.848 161.524C129.79 161.797 127.971 161.803 126.263 160.53C124.153 158.536 123.505 156.233 123.388 153.388C123.414 150.927 124.286 148.273 126.075 146.516C127.912 145.084 129.951 144.45 132.194 145.318Z" fill="black"/>
<path d="M212.371 92.5449C212.519 95.1832 212.308 97.6315 211.83 100.229C211.78 100.503 211.73 100.776 211.678 101.058C211.435 102.316 211.187 103.498 210.64 104.667C208.633 103.407 206.653 102.115 204.692 100.786C203.527 100.002 202.341 99.2895 201.115 98.6058C202.116 97.4776 203.27 96.7903 204.561 96.0444C204.885 95.8552 204.885 95.8552 205.216 95.6623C210.641 92.5449 210.641 92.5449 212.371 92.5449Z" fill="#3A9592"/>
<path d="M121.169 91.9673C122.934 92.5032 124.544 93.1637 126.165 94.0417C126.48 94.2099 126.48 94.2099 126.801 94.3815C128.658 95.3901 130.41 96.5192 132.136 97.7396C131.005 98.7078 129.831 99.4021 128.528 100.103C126.603 101.157 124.814 102.323 123.038 103.612C122.323 104.089 122.323 104.089 121.746 104.089C120.992 100.07 121.111 96.0407 121.169 91.9673Z" fill="#3A9592"/>
<path d="M152.916 170.182C154.535 170.924 155.802 171.898 156.498 173.564C156.83 174.848 156.877 176.089 156.668 177.397C156.148 178.264 155.83 178.682 154.937 179.129C153.472 179.369 152.337 179.269 151.094 178.426C149.738 177.275 149.072 175.922 148.767 174.181C148.678 172.718 149.111 171.863 150.03 170.759C151.14 170.02 151.595 170.012 152.916 170.182Z" fill="black"/>
<path d="M181.489 170.182C182.334 170.706 183.058 171.299 183.509 172.202C183.737 174.137 183.637 175.608 182.48 177.208C181.332 178.533 180.388 179.078 178.639 179.219C177.699 179.209 177.443 179.125 176.601 178.606C175.626 177.572 175.616 176.561 175.638 175.205C175.859 173.257 176.931 172.001 178.405 170.796C179.404 170.126 180.32 170.044 181.489 170.182Z" fill="black"/>
<path d="M130.739 125.14C130.831 125.152 130.923 125.165 131.018 125.177C134.155 125.6 138.497 126.214 140.632 128.861C141.033 129.455 141.236 129.841 141.124 130.575C140.983 131.033 140.686 131.383 140.323 131.689C139.751 131.947 139.232 131.855 138.642 131.691C138.14 131.456 137.67 131.171 137.196 130.885C135.397 129.818 133.69 129.275 131.621 128.974C131.393 128.941 131.393 128.941 131.16 128.907C129.796 128.723 128.442 128.662 127.079 128.884C126.993 128.897 126.906 128.911 126.816 128.924C126.151 129.032 125.503 129.184 124.854 129.369C124.239 129.53 123.611 129.577 123.029 129.269C122.686 129.028 122.501 128.825 122.301 128.453C122.19 127.781 122.24 127.15 122.571 126.547C123.247 125.973 124.038 125.734 124.884 125.533C124.991 125.507 125.098 125.481 125.208 125.455C127.02 125.042 128.895 124.889 130.739 125.14Z" fill="black"/>
<path d="M210.392 136.696C210.511 136.759 210.511 136.759 210.632 136.824C211.248 137.186 211.743 137.655 211.98 138.388C212.04 139.121 211.978 139.616 211.625 140.27C211.132 140.779 210.705 141.011 210.016 141C209.342 140.9 208.7 140.604 208.062 140.356C206.311 139.676 204.748 139.388 202.888 139.394C202.756 139.394 202.756 139.394 202.623 139.394C200.349 139.403 198.058 139.625 195.935 140.566C195.285 140.843 194.737 140.86 194.056 140.682C193.457 140.314 193.247 139.876 193.044 139.17C192.96 138.526 192.98 138.074 193.25 137.486C194.358 136.091 195.749 135.812 197.38 135.544C197.633 135.502 197.885 135.458 198.137 135.413C202.108 134.737 206.705 134.717 210.392 136.696Z" fill="black"/>
<path d="M254.541 119.578C258.889 119.999 263.035 121.497 266.199 124.563L266.502 124.866L266.534 124.898C269.434 128.003 270.581 131.829 270.211 135.712L270.209 135.725C269.693 140.788 266.539 144.227 262.709 146.955L262.705 146.957C262.584 147.043 262.461 147.129 262.339 147.215L262.34 147.216C262.277 147.26 262.215 147.304 262.151 147.349L262.151 147.35C261.832 147.576 261.512 147.801 261.19 148.026C259.981 148.875 259.272 149.618 258.802 150.388C258.329 151.163 258.015 152.101 257.79 153.468L257.788 153.479L257.786 153.488C257.77 153.582 257.754 153.675 257.737 153.771C257.725 153.847 257.712 153.923 257.699 154.001L257.676 154.147L257.631 154.288C257.417 154.957 257.088 155.402 256.642 155.812L256.378 156.055L256.047 156.191C255.164 156.553 254.456 156.58 253.683 156.504L253.684 156.505C253.575 156.495 253.575 156.496 253.464 156.485L253.461 156.485C253.215 156.461 252.972 156.436 252.736 156.411C252.573 156.395 252.408 156.378 252.245 156.362L252.244 156.362C251.893 156.327 251.542 156.292 251.193 156.255C250.756 156.21 250.317 156.166 249.875 156.123L248.355 155.97C248.116 155.947 247.88 155.922 247.649 155.897C247.522 155.884 247.396 155.872 247.265 155.858L247.165 155.847L247.066 155.828C246.054 155.62 245.475 155.125 245.051 154.735L244.786 154.491L244.623 154.169C244.046 153.036 244.296 151.906 244.331 151.623C244.343 151.523 244.354 151.423 244.366 151.32L244.367 151.31L244.369 151.3C244.675 148.851 245.391 146.759 246.629 144.889C247.856 143.035 249.526 141.504 251.588 140.078L251.602 140.069L251.615 140.06C251.945 139.839 252.281 139.634 252.575 139.455C253.56 138.839 254.467 138.154 255.266 137.404L255.278 137.391L255.291 137.38C255.367 137.311 255.442 137.241 255.52 137.17C256.612 136.143 257.037 135.19 257.065 133.882C256.992 133.306 256.678 132.683 256.123 132.189C255.378 131.674 254.566 131.358 253.575 131.209L253.565 131.208C253.486 131.195 253.406 131.182 253.325 131.17C251.93 130.993 250.829 131.138 249.957 131.636C249.059 132.26 248.362 133.064 247.586 134.101L247.581 134.11C247.528 134.179 247.476 134.247 247.422 134.318C247.377 134.38 247.37 134.389 247.313 134.468L247.236 134.574L247.146 134.669C246.492 135.357 245.763 135.587 245.16 135.703L244.958 135.742L244.753 135.738C243.674 135.722 242.66 135.252 242.002 134.912C241.64 134.724 241.292 134.523 241.002 134.356C240.693 134.178 240.467 134.049 240.277 133.953L240.277 133.952C239.997 133.809 239.715 133.668 239.432 133.525L239.43 133.524C239.249 133.432 239.068 133.34 238.887 133.248L238.887 133.249C238.803 133.207 238.719 133.164 238.633 133.12L238.629 133.119C238.03 132.815 237.559 132.579 237.229 132.361C236.734 132.033 236.483 131.704 236.302 131.473L236.05 131.151L235.944 130.757C235.564 129.345 236.042 128.252 236.582 127.447L236.581 127.447C236.64 127.357 236.64 127.357 236.7 127.265L236.71 127.25C237.853 125.543 239.213 124.149 240.876 122.893C240.963 122.826 241.051 122.758 241.142 122.689L241.156 122.678L241.168 122.669C243.552 120.89 246.315 119.918 249.261 119.518L249.261 119.519C249.342 119.507 249.425 119.495 249.508 119.483L249.519 119.481L249.53 119.48C251.218 119.258 252.849 119.415 254.261 119.553C254.351 119.561 254.442 119.569 254.536 119.578L254.541 119.578Z" fill="#FFF288" stroke="black" stroke-width="4"/>
<path d="M245.073 157.499C247.972 155.852 252.149 155.733 255.043 158.108L255.32 158.346L255.366 158.39C255.467 158.487 255.468 158.488 255.57 158.587L255.767 158.772L255.787 158.792L255.808 158.813C257.414 160.429 258.014 162.468 257.911 164.454L257.906 164.539L257.895 164.624C257.625 166.573 256.584 168.313 254.939 169.521L254.894 169.552L254.849 169.582C252.603 171.05 250.43 171.189 248.086 170.882L248.057 170.878L248.028 170.874C245.911 170.533 244.352 169.285 243.27 168.082L243.231 168.037L243.194 167.991C241.827 166.279 241.422 164.247 241.716 162.311L241.726 162.251L241.738 162.191C242.151 160.263 243.306 158.68 244.946 157.579L245.008 157.537L245.073 157.499Z" fill="#FFF288" stroke="black" stroke-width="4"/>
<path d="M121.643 96.0042C123.263 95.9516 124.797 96.3935 126.042 97.4496C126.074 97.4768 126.074 97.4768 126.107 97.5046C127.108 98.3642 127.73 99.5332 128.038 100.805C128.049 100.853 128.049 100.853 128.061 100.902C128.183 101.434 128.217 101.952 128.21 102.495C128.21 102.554 128.21 102.613 128.209 102.672C128.208 102.814 128.207 102.956 128.205 103.098C128.253 103.08 128.3 103.061 128.349 103.042C129.136 102.742 129.893 102.561 130.742 102.567C130.793 102.568 130.843 102.568 130.896 102.568C131.823 102.579 132.622 102.772 133.453 103.178C133.5 103.201 133.547 103.224 133.595 103.247C134.733 103.832 135.724 104.796 136.298 105.942C136.311 105.969 136.324 105.995 136.338 106.023C136.964 107.284 137.166 108.771 136.858 110.149C136.851 110.18 136.844 110.212 136.837 110.245C136.568 111.413 136.018 112.459 135.176 113.313C135.146 113.344 135.115 113.375 135.084 113.407C134.302 114.154 133.099 114.822 132.011 114.916C132.056 114.973 132.056 114.973 132.102 115.031C132.835 115.971 133.332 117.093 133.493 118.281C133.498 118.313 133.502 118.345 133.507 118.379C133.636 119.519 133.439 120.681 132.973 121.726C132.953 121.772 132.933 121.817 132.912 121.864C132.631 122.462 132.231 122.978 131.771 123.449C131.735 123.487 131.735 123.487 131.699 123.526C130.941 124.331 129.862 124.798 128.806 125.051C128.763 125.062 128.763 125.062 128.718 125.073C128.312 125.168 127.912 125.18 127.496 125.181C127.406 125.181 127.315 125.182 127.224 125.184C126.671 125.188 126.139 125.109 125.609 124.946C125.56 124.931 125.56 124.931 125.509 124.915C124.72 124.663 123.984 124.273 123.358 123.729C123.325 123.7 123.292 123.671 123.258 123.642C123.156 123.552 123.057 123.461 122.958 123.368C122.928 123.341 122.898 123.314 122.868 123.287C122.523 122.959 122.257 122.562 121.996 122.167C121.974 122.203 121.952 122.238 121.93 122.275C121.737 122.587 121.533 122.865 121.275 123.128C121.242 123.162 121.209 123.196 121.175 123.231C121.142 123.263 121.109 123.295 121.075 123.328C121.05 123.354 121.026 123.38 121.001 123.406C119.925 124.525 118.374 125.156 116.833 125.187C116.263 125.194 115.702 125.187 115.146 125.051C115.097 125.04 115.047 125.029 114.996 125.017C113.927 124.756 113.083 124.253 112.262 123.529C112.233 123.504 112.205 123.479 112.176 123.453C111.151 122.491 110.482 120.951 110.412 119.554C110.39 117.797 110.776 116.269 111.941 114.916C111.89 114.914 111.839 114.913 111.786 114.911C110.787 114.807 109.803 114.193 109.057 113.554C109.021 113.523 108.984 113.492 108.947 113.46C108.687 113.232 108.465 112.989 108.256 112.713C108.239 112.691 108.223 112.67 108.206 112.648C107.484 111.696 107.021 110.507 107.003 109.303C107.002 109.272 107.002 109.241 107.001 109.21C106.988 108.235 107.074 107.331 107.454 106.423C107.466 106.396 107.477 106.368 107.489 106.34C107.776 105.654 108.195 105.048 108.696 104.5C108.73 104.463 108.763 104.427 108.798 104.389C109.277 103.886 109.841 103.491 110.459 103.178C110.484 103.165 110.509 103.152 110.536 103.139C112.058 102.373 113.709 102.429 115.299 102.948C115.436 102.995 115.571 103.046 115.707 103.098C115.706 103.058 115.706 103.058 115.705 103.017C115.667 101.133 116.135 99.2953 117.464 97.9006C117.519 97.8436 117.574 97.7868 117.63 97.7301C117.654 97.7036 117.678 97.6771 117.702 97.6498C118.087 97.2344 118.615 96.9474 119.112 96.6885C119.136 96.6756 119.161 96.6628 119.186 96.6495C119.948 96.2585 120.788 96.0366 121.643 96.0042Z" fill="#F4A99C"/>
<path d="M121.643 96.0042C123.263 95.9516 124.797 96.3935 126.042 97.4496C126.074 97.4768 126.074 97.4768 126.107 97.5046C127.108 98.3642 127.73 99.5332 128.038 100.805C128.049 100.853 128.049 100.853 128.061 100.902C128.183 101.434 128.217 101.952 128.21 102.495C128.21 102.554 128.21 102.613 128.209 102.672C128.208 102.814 128.207 102.956 128.205 103.098C128.253 103.08 128.3 103.061 128.349 103.042C129.136 102.742 129.893 102.561 130.742 102.567C130.793 102.568 130.843 102.568 130.896 102.568C131.823 102.579 132.622 102.772 133.453 103.178C133.5 103.201 133.547 103.224 133.595 103.247C134.733 103.832 135.724 104.796 136.298 105.942C136.311 105.969 136.324 105.995 136.338 106.023C136.964 107.284 137.166 108.771 136.858 110.149C136.851 110.18 136.844 110.212 136.837 110.245C136.568 111.413 136.018 112.459 135.176 113.313C135.146 113.344 135.115 113.375 135.084 113.407C134.302 114.154 133.099 114.822 132.011 114.916C132.056 114.973 132.056 114.973 132.102 115.031C132.835 115.971 133.332 117.093 133.493 118.281C133.498 118.313 133.502 118.345 133.507 118.379C133.636 119.519 133.439 120.681 132.973 121.726C132.953 121.772 132.933 121.817 132.912 121.864C132.631 122.462 132.231 122.978 131.771 123.449C131.735 123.487 131.735 123.487 131.699 123.526C130.941 124.331 129.862 124.798 128.806 125.051C128.763 125.062 128.763 125.062 128.718 125.073C128.312 125.168 127.912 125.18 127.496 125.181C127.406 125.181 127.315 125.182 127.224 125.184C126.671 125.188 126.139 125.109 125.609 124.946C125.56 124.931 125.56 124.931 125.509 124.915C124.72 124.663 123.984 124.273 123.358 123.729C123.325 123.7 123.292 123.671 123.258 123.642C123.156 123.552 123.057 123.461 122.958 123.368C122.928 123.341 122.898 123.314 122.868 123.287C122.523 122.959 122.257 122.562 121.996 122.167C121.974 122.203 121.952 122.238 121.93 122.275C121.737 122.587 121.533 122.865 121.275 123.128C121.242 123.162 121.209 123.196 121.175 123.231C121.142 123.263 121.109 123.295 121.075 123.328C121.05 123.354 121.026 123.38 121.001 123.406C119.925 124.525 118.374 125.156 116.833 125.187C116.263 125.194 115.702 125.187 115.146 125.051C115.097 125.04 115.047 125.029 114.996 125.017C113.927 124.756 113.083 124.253 112.262 123.529C112.233 123.504 112.205 123.479 112.176 123.453C111.151 122.491 110.482 120.951 110.412 119.554C110.39 117.797 110.776 116.269 111.941 114.916C111.89 114.914 111.839 114.913 111.786 114.911C110.787 114.807 109.803 114.193 109.057 113.554C109.021 113.523 108.984 113.492 108.947 113.46C108.687 113.232 108.465 112.989 108.256 112.713C108.239 112.691 108.223 112.67 108.206 112.648C107.484 111.696 107.021 110.507 107.003 109.303C107.002 109.272 107.002 109.241 107.001 109.21C106.988 108.235 107.074 107.331 107.454 106.423C107.466 106.396 107.477 106.368 107.489 106.34C107.776 105.654 108.195 105.048 108.696 104.5C108.73 104.463 108.763 104.427 108.798 104.389C109.277 103.886 109.841 103.491 110.459 103.178C110.484 103.165 110.509 103.152 110.536 103.139C112.058 102.373 113.709 102.429 115.299 102.948C115.436 102.995 115.571 103.046 115.707 103.098C115.706 103.058 115.706 103.058 115.705 103.017C115.667 101.133 116.135 99.2953 117.464 97.9006C117.519 97.8436 117.574 97.7868 117.63 97.7301C117.654 97.7036 117.678 97.6771 117.702 97.6498C118.087 97.2344 118.615 96.9474 119.112 96.6885C119.136 96.6756 119.161 96.6628 119.186 96.6495C119.948 96.2585 120.788 96.0366 121.643 96.0042ZM118.711 98.6514C118.661 98.6962 118.661 98.6962 118.611 98.7419C117.725 99.5831 117.155 100.859 117.104 102.082C117.083 103.059 117.224 103.953 117.648 104.842C117.743 105.048 117.785 105.234 117.75 105.462C117.655 105.599 117.548 105.658 117.389 105.702C117.176 105.73 117.054 105.691 116.882 105.574C116.766 105.485 116.656 105.39 116.545 105.294C115.372 104.281 113.93 103.848 112.39 103.949C111.216 104.079 110.214 104.773 109.471 105.662C108.762 106.553 108.355 107.662 108.366 108.802C108.366 108.868 108.366 108.868 108.367 108.935C108.385 110.289 108.916 111.467 109.85 112.437C110.672 113.238 111.717 113.695 112.865 113.686C112.895 113.686 112.925 113.686 112.955 113.685C113.045 113.684 113.135 113.684 113.225 113.683C113.549 113.682 113.868 113.668 114.19 113.638C114.359 113.632 114.445 113.661 114.585 113.754C114.712 113.893 114.734 114.039 114.727 114.221C114.642 114.591 114.164 114.848 113.871 115.046C112.898 115.721 112.214 116.775 111.909 117.91C111.9 117.941 111.892 117.972 111.883 118.004C111.597 119.131 111.763 120.471 112.346 121.482C112.552 121.82 112.786 122.123 113.063 122.407C113.088 122.434 113.113 122.462 113.138 122.49C113.854 123.254 115.051 123.76 116.087 123.817C116.785 123.832 117.441 123.836 118.11 123.609C118.138 123.6 118.165 123.591 118.193 123.582C118.782 123.382 119.335 123.069 119.793 122.647C119.824 122.619 119.824 122.619 119.856 122.59C120.741 121.768 121.183 120.757 121.475 119.599C121.536 119.423 121.623 119.285 121.768 119.167C121.943 119.094 122.086 119.098 122.264 119.16C122.513 119.381 122.569 119.776 122.65 120.086C122.759 120.492 122.89 120.869 123.078 121.245C123.107 121.305 123.107 121.305 123.136 121.365C123.678 122.419 124.64 123.201 125.755 123.582C127.084 123.996 128.413 123.934 129.66 123.295C130.752 122.712 131.565 121.746 131.946 120.567C132.236 119.608 132.269 118.642 131.971 117.68C131.962 117.651 131.953 117.622 131.944 117.592C131.637 116.632 131.016 115.8 130.249 115.156C130.225 115.135 130.201 115.113 130.177 115.091C130.053 114.977 129.926 114.873 129.787 114.777C129.762 114.76 129.737 114.743 129.711 114.725C129.662 114.691 129.611 114.657 129.561 114.624C129.399 114.514 129.314 114.419 129.247 114.235C129.234 114.108 129.25 113.996 129.287 113.874C129.375 113.766 129.443 113.696 129.567 113.634C129.638 113.63 129.709 113.629 129.78 113.629C129.818 113.629 129.856 113.629 129.895 113.629C130.008 113.634 130.008 113.634 130.099 113.654C130.323 113.695 130.553 113.684 130.779 113.684C130.806 113.684 130.833 113.684 130.861 113.684C132.239 113.682 133.365 113.16 134.335 112.192C135.162 111.293 135.636 110.079 135.629 108.859C135.629 108.816 135.629 108.772 135.628 108.727C135.61 107.462 135.086 106.291 134.214 105.382C134.184 105.349 134.154 105.316 134.122 105.282C133.357 104.478 132.284 103.963 131.17 103.927C131.088 103.927 131.006 103.926 130.925 103.927C130.859 103.927 130.859 103.927 130.793 103.928C129.536 103.946 128.263 104.448 127.364 105.341C127.341 105.365 127.318 105.389 127.294 105.414C127.13 105.582 126.981 105.69 126.741 105.72C126.586 105.7 126.492 105.67 126.363 105.582C126.245 105.419 126.235 105.307 126.263 105.111C126.299 104.948 126.367 104.8 126.433 104.648C126.595 104.259 126.714 103.87 126.803 103.459C126.813 103.414 126.823 103.369 126.833 103.323C126.967 102.575 126.922 101.786 126.723 101.055C126.716 101.028 126.709 101.001 126.701 100.973C126.36 99.7519 125.532 98.6534 124.44 98.0105C122.588 96.9838 120.283 97.2359 118.711 98.6514Z" fill="black"/>
<path d="M125.574 107.113C125.679 107.201 125.78 107.292 125.882 107.385C125.911 107.411 125.941 107.438 125.971 107.465C126.952 108.398 127.533 109.816 127.575 111.157C127.598 112.426 127.35 113.591 126.603 114.636C126.586 114.658 126.57 114.681 126.553 114.705C125.707 115.869 124.485 116.764 123.045 116.992C122.75 117.034 122.454 117.068 122.156 117.079C122.079 117.082 122.079 117.082 122.001 117.086C120.453 117.128 119.07 116.47 117.95 115.437C117.003 114.518 116.408 113.125 116.381 111.809C116.377 111.343 116.384 110.889 116.467 110.429C116.472 110.403 116.477 110.376 116.482 110.349C116.738 108.98 117.532 107.764 118.674 106.968C120.759 105.563 123.578 105.476 125.574 107.113Z" fill="#F8E482"/>
<path d="M125.574 107.113C125.679 107.201 125.78 107.292 125.882 107.385C125.911 107.411 125.941 107.438 125.971 107.465C126.952 108.398 127.533 109.816 127.575 111.157C127.598 112.426 127.35 113.591 126.603 114.636C126.586 114.658 126.57 114.681 126.553 114.705C125.707 115.869 124.485 116.764 123.045 116.992C122.75 117.034 122.454 117.068 122.156 117.079C122.079 117.082 122.079 117.082 122.001 117.086C120.453 117.128 119.07 116.47 117.95 115.437C117.003 114.518 116.408 113.125 116.381 111.809C116.377 111.343 116.384 110.889 116.467 110.429C116.472 110.403 116.477 110.376 116.482 110.349C116.738 108.98 117.532 107.764 118.674 106.968C120.759 105.563 123.578 105.476 125.574 107.113ZM119.192 108.306C119.172 108.324 119.152 108.341 119.132 108.359C118.327 109.092 117.807 110.148 117.744 111.238C117.694 112.431 118.08 113.507 118.884 114.4C119.565 115.135 120.489 115.649 121.499 115.729C121.644 115.733 121.788 115.734 121.933 115.732C121.984 115.732 122.035 115.731 122.088 115.731C122.445 115.725 122.774 115.704 123.117 115.597C123.142 115.589 123.168 115.582 123.193 115.574C123.855 115.363 124.412 115.024 124.92 114.555C124.947 114.532 124.973 114.509 125.001 114.485C125.67 113.866 126.155 112.828 126.208 111.924C126.252 110.645 125.95 109.525 125.074 108.566C124.365 107.814 123.405 107.304 122.36 107.26C121.15 107.229 120.106 107.478 119.192 108.306Z" fill="black"/>
</svg>
