<svg width="350" height="350" viewBox="0 0 350 350" fill="none" xmlns="http://www.w3.org/2000/svg">
<path d="M169.371 67.0678C173.751 69.12 176.186 73.702 178.315 77.8254C178.412 78.0127 178.509 78.2 178.61 78.3929C180.67 82.4108 182.71 86.9345 183.51 91.3903C183.72 91.4119 183.931 91.4335 184.148 91.4557C186.87 91.7986 189.333 92.5927 191.908 93.5166C192.748 93.7984 192.748 93.7984 193.611 93.9878C194.257 93.6405 194.819 93.2885 195.415 92.8694C195.779 92.6261 196.143 92.3837 196.508 92.1423C196.792 91.9544 196.792 91.9544 197.08 91.7628C202.222 88.4108 209.535 84.4813 215.834 85.3294C217.299 85.9462 217.848 86.8018 218.501 88.1874C219.828 91.8427 219.082 96.5554 218.63 100.319C218.594 100.625 218.559 100.93 218.522 101.244C218.354 102.562 218.165 103.827 217.771 105.097C217.447 106.177 217.21 107.003 217.277 108.13C218.109 109.35 219.126 110.207 220.249 111.151C221.054 111.875 221.707 112.702 222.364 113.559C222.494 113.728 222.624 113.897 222.757 114.07C229.535 123.025 232.745 133.221 234.793 144.159C235.653 148.723 236.577 152.838 238.923 156.906C239.17 157.349 239.415 157.792 239.66 158.236C240.028 158.902 240.398 159.567 240.771 160.231C244.371 166.647 246.268 173.244 246.229 180.626C246.228 180.837 246.228 181.048 246.227 181.265C246.212 184.384 246.103 187.359 245.273 190.385C245.219 190.587 245.164 190.789 245.109 190.997C241.763 203.092 232.444 212.095 221.831 218.165C220.054 219.165 218.255 220.106 216.412 220.978C218.091 222.244 219.771 223.505 221.48 224.73C224.388 226.842 227.087 229.18 229.688 231.657C229.861 231.821 230.034 231.986 230.212 232.156C234.717 236.477 238.613 241.241 241.232 246.953C245.591 242.574 247.683 237.552 248.773 231.535C249.168 229.436 249.606 227.55 251.226 226.047C252.401 225.274 253.085 225.192 254.509 225.307C257.383 226.119 259.197 228.821 260.624 231.278C265.084 239.295 266.155 248.483 263.744 257.343C263.692 257.538 263.639 257.733 263.585 257.934C261.796 264.343 258.087 269.802 253.643 274.66C253.427 274.897 253.21 275.134 252.988 275.378C245.709 282.982 233.625 289.827 222.953 290.274C222.408 290.264 221.863 290.255 221.318 290.245C221.338 290.509 221.358 290.773 221.379 291.045C221.565 293.623 221.656 296.186 221.665 298.772C221.666 298.961 221.667 299.151 221.668 299.346C221.672 300.348 221.675 301.35 221.676 302.353C221.677 303.166 221.681 303.978 221.688 304.791C221.749 312.563 221.749 312.563 221.241 316.055C221.21 316.273 221.179 316.492 221.147 316.717C220.591 319.957 218.841 323.142 216.292 325.237C210.279 329.333 202.612 330.164 195.541 328.866C190.956 327.76 186.852 325.527 184.303 321.452C182.373 318.007 181.718 314.669 181.778 310.737C181.477 310.787 181.477 310.787 181.17 310.838C180.243 310.992 179.315 311.144 178.387 311.296C178.072 311.349 177.756 311.402 177.432 311.456C173.637 312.073 169.92 312.234 166.083 312.234C165.317 312.234 164.551 312.239 163.785 312.245C158.82 312.261 154.024 311.742 149.164 310.737C149.16 311.02 149.156 311.303 149.152 311.595C149.014 316.333 147.633 320.835 144.348 324.392C139.243 329.124 132.465 329.479 125.88 329.266C123.832 329.143 121.953 328.704 120.014 328.054C119.7 327.949 119.385 327.845 119.061 327.737C115.177 326.28 111.979 323.669 110.22 319.885C108.758 316.176 108.713 312.284 108.72 308.348C108.72 307.988 108.72 307.629 108.719 307.258C108.719 306.499 108.72 305.739 108.721 304.98C108.722 303.848 108.721 302.717 108.719 301.585C108.718 297.841 108.76 294.1 108.885 290.357C108.896 290.025 108.907 289.692 108.918 289.35C109.219 281.218 110.586 273.099 112.222 265.136C112.072 265.194 111.923 265.252 111.769 265.312C106.304 267.424 101.444 268.776 95.7506 266.516C92.3651 264.957 89.6685 262.55 88.1947 259.095C86.5829 254.517 87.4132 250.327 89.3763 246.053C91.8726 240.918 95.5442 236.566 99.5228 232.523C99.8057 232.229 100.088 231.935 100.371 231.641C101.851 230.123 103.385 228.736 105.044 227.417C105.627 226.947 106.198 226.474 106.764 225.985C108.721 224.292 110.732 222.742 112.857 221.266C113.659 220.727 113.659 220.727 114.242 220.112C114.059 220.019 113.876 219.927 113.688 219.831C106.878 216.363 106.878 216.363 104.141 214.34C103.838 214.119 103.535 213.897 103.223 213.669C100.991 212.01 98.9371 210.196 96.9253 208.279C96.6824 208.055 96.4394 207.83 96.1891 207.599C89.2498 200.992 85.3664 192.074 85.011 182.547C84.7862 172.353 88.0354 163.889 93.1306 155.166C95.6829 150.672 96.469 145.556 97.4943 140.555C98.7891 134.275 100.435 128.193 103.563 122.561C103.797 122.121 103.797 122.121 104.036 121.672C105.896 118.303 108.33 115.277 110.815 112.351C110.956 112.184 111.097 112.017 111.243 111.844C111.918 111.062 112.597 110.342 113.39 109.678C114.876 108.476 114.876 108.476 115.477 106.754C115.323 105.747 115.075 104.787 114.819 103.801C113.77 98.3997 112.4 90.4253 115.361 85.4196C116.377 84.3139 117.009 83.9398 118.517 83.742C120.631 83.816 122.658 84.6256 124.632 85.3294C124.908 85.4269 125.183 85.5244 125.467 85.6248C127.483 86.409 129.401 87.4099 131.325 88.3959C131.615 88.5432 131.906 88.6905 132.206 88.8422C133.566 89.5496 134.819 90.2557 136 91.2381C138.001 92.9358 138.001 92.9358 140.505 93.3521C142.414 92.9787 144.202 92.3318 146.02 91.6547C147.248 91.2662 148.46 91.1521 149.742 91.1017C149.776 90.8936 149.81 90.6854 149.845 90.471C150.036 89.6345 150.315 88.9735 150.694 88.2054C150.832 87.9271 150.969 87.6488 151.111 87.3621C151.26 87.0663 151.41 86.7706 151.564 86.4658C151.719 86.1585 151.873 85.8512 152.033 85.5346C162.696 64.657 162.696 64.657 169.371 67.0678Z" fill="#ECECEB"/>
<path d="M169.371 67.0678C173.751 69.12 176.186 73.702 178.315 77.8254C178.412 78.0127 178.509 78.2 178.61 78.3929C180.67 82.4108 182.71 86.9345 183.51 91.3903C183.72 91.4119 183.931 91.4335 184.148 91.4557C186.87 91.7986 189.333 92.5927 191.908 93.5166C192.748 93.7984 192.748 93.7984 193.611 93.9878C194.257 93.6405 194.819 93.2885 195.415 92.8694C195.779 92.6261 196.143 92.3837 196.508 92.1423C196.792 91.9544 196.792 91.9544 197.08 91.7628C202.222 88.4108 209.535 84.4813 215.834 85.3294C217.299 85.9462 217.848 86.8018 218.501 88.1874C219.828 91.8427 219.082 96.5554 218.63 100.319C218.594 100.625 218.559 100.93 218.522 101.244C218.354 102.562 218.165 103.827 217.771 105.097C217.447 106.177 217.21 107.003 217.277 108.13C218.109 109.35 219.126 110.207 220.249 111.151C221.054 111.875 221.707 112.702 222.364 113.559C222.494 113.728 222.624 113.897 222.757 114.07C229.535 123.025 232.745 133.221 234.793 144.159C235.653 148.723 236.577 152.838 238.923 156.906C239.17 157.349 239.415 157.792 239.66 158.236C240.028 158.902 240.398 159.567 240.771 160.231C244.371 166.647 246.268 173.244 246.229 180.626C246.228 180.837 246.228 181.048 246.227 181.265C246.212 184.384 246.103 187.359 245.273 190.385C245.219 190.587 245.164 190.789 245.109 190.997C241.763 203.092 232.444 212.095 221.831 218.165C220.054 219.165 218.255 220.106 216.412 220.978C218.091 222.244 219.771 223.505 221.48 224.73C224.388 226.842 227.087 229.18 229.688 231.657C229.861 231.821 230.034 231.986 230.212 232.156C234.717 236.477 238.613 241.241 241.232 246.953C245.591 242.574 247.683 237.552 248.773 231.535C249.168 229.436 249.606 227.55 251.226 226.047C252.401 225.274 253.085 225.192 254.509 225.307C257.383 226.119 259.197 228.821 260.624 231.278C265.084 239.295 266.155 248.483 263.744 257.343C263.692 257.538 263.639 257.733 263.585 257.934C261.796 264.343 258.087 269.802 253.643 274.66C253.427 274.897 253.21 275.134 252.988 275.378C245.709 282.982 233.625 289.827 222.953 290.274C222.408 290.264 221.863 290.255 221.318 290.245C221.338 290.509 221.358 290.773 221.379 291.045C221.565 293.623 221.656 296.186 221.665 298.772C221.666 298.961 221.667 299.151 221.668 299.346C221.672 300.348 221.675 301.35 221.676 302.353C221.677 303.166 221.681 303.978 221.688 304.791C221.749 312.563 221.749 312.563 221.241 316.055C221.21 316.273 221.179 316.492 221.147 316.717C220.591 319.957 218.841 323.142 216.292 325.237C210.279 329.333 202.612 330.164 195.541 328.866C190.956 327.76 186.852 325.527 184.303 321.452C182.373 318.007 181.718 314.669 181.778 310.737C181.477 310.787 181.477 310.787 181.17 310.838C180.243 310.992 179.315 311.144 178.387 311.296C178.072 311.349 177.756 311.402 177.432 311.456C173.637 312.073 169.92 312.234 166.083 312.234C165.317 312.234 164.551 312.239 163.785 312.245C158.82 312.261 154.024 311.742 149.164 310.737C149.16 311.02 149.156 311.303 149.152 311.595C149.014 316.333 147.633 320.835 144.348 324.392C139.243 329.124 132.465 329.479 125.88 329.266C123.832 329.143 121.953 328.704 120.014 328.054C119.7 327.949 119.385 327.845 119.061 327.737C115.177 326.28 111.979 323.669 110.22 319.885C108.758 316.176 108.713 312.284 108.72 308.348C108.72 307.988 108.72 307.629 108.719 307.258C108.719 306.499 108.72 305.739 108.721 304.98C108.722 303.848 108.721 302.717 108.719 301.585C108.718 297.841 108.76 294.1 108.885 290.357C108.896 290.025 108.907 289.692 108.918 289.35C109.219 281.218 110.586 273.099 112.222 265.136C112.072 265.194 111.923 265.252 111.769 265.312C106.304 267.424 101.444 268.776 95.7506 266.516C92.3651 264.957 89.6685 262.55 88.1947 259.095C86.5829 254.517 87.4132 250.327 89.3763 246.053C91.8726 240.918 95.5442 236.566 99.5228 232.523C99.8057 232.229 100.088 231.935 100.371 231.641C101.851 230.123 103.385 228.736 105.044 227.417C105.627 226.947 106.198 226.474 106.764 225.985C108.721 224.292 110.732 222.742 112.857 221.266C113.659 220.727 113.659 220.727 114.242 220.112C114.059 220.019 113.876 219.927 113.688 219.831C106.878 216.363 106.878 216.363 104.141 214.34C103.838 214.119 103.535 213.897 103.223 213.669C100.991 212.01 98.9371 210.196 96.9253 208.279C96.6824 208.055 96.4394 207.83 96.1891 207.599C89.2498 200.992 85.3664 192.074 85.011 182.547C84.7862 172.353 88.0354 163.889 93.1306 155.166C95.6829 150.672 96.469 145.556 97.4943 140.555C98.7891 134.275 100.435 128.193 103.563 122.561C103.797 122.121 103.797 122.121 104.036 121.672C105.896 118.303 108.33 115.277 110.815 112.351C110.956 112.184 111.097 112.017 111.243 111.844C111.918 111.062 112.597 110.342 113.39 109.678C114.876 108.476 114.876 108.476 115.477 106.754C115.323 105.747 115.075 104.787 114.819 103.801C113.77 98.3997 112.4 90.4253 115.361 85.4196C116.377 84.3139 117.009 83.9398 118.517 83.742C120.631 83.816 122.658 84.6256 124.632 85.3294C124.908 85.4269 125.183 85.5244 125.467 85.6248C127.483 86.409 129.401 87.4099 131.325 88.3959C131.615 88.5432 131.906 88.6905 132.206 88.8422C133.566 89.5496 134.819 90.2557 136 91.2381C138.001 92.9358 138.001 92.9358 140.505 93.3521C142.414 92.9787 144.202 92.3318 146.02 91.6547C147.248 91.2662 148.46 91.1521 149.742 91.1017C149.776 90.8936 149.81 90.6854 149.845 90.471C150.036 89.6345 150.315 88.9735 150.694 88.2054C150.832 87.9271 150.969 87.6488 151.111 87.3621C151.26 87.0663 151.41 86.7706 151.564 86.4658C151.719 86.1585 151.873 85.8512 152.033 85.5346C162.696 64.657 162.696 64.657 169.371 67.0678ZM154.202 96.5624C152.769 97.1927 151.225 97.5241 149.714 97.9222C141.667 100.06 134.1 103.382 127.23 108.13C127.065 108.242 126.901 108.354 126.731 108.47C124.323 110.117 122.059 111.894 119.864 113.817C119.466 114.166 119.064 114.512 118.663 114.857C115.378 117.732 112.835 120.924 110.49 124.581C110.382 124.749 110.274 124.916 110.163 125.089C106.496 130.885 104.97 137.374 103.571 144.004C103.522 144.239 103.472 144.473 103.42 144.715C103.173 145.884 102.928 147.053 102.691 148.224C101.94 151.868 100.797 155.167 98.9997 158.439C98.7458 158.913 98.4921 159.387 98.2387 159.862C98.0521 160.209 98.0521 160.209 97.8618 160.564C93.235 169.207 89.6224 178.832 92.5228 188.709C92.6411 189.076 92.7617 189.442 92.8847 189.808C92.945 189.991 93.0054 190.174 93.0675 190.362C96.6365 200.866 105.751 208.28 115.405 213.086C118.285 214.466 121.267 215.575 124.267 216.665C127.695 217.924 127.695 217.924 128.384 218.958C128.276 220.022 128.276 220.022 128.096 220.978C127.842 221.057 127.589 221.136 127.328 221.218C116.698 224.938 106.468 233.429 99.8115 242.335C99.6852 242.502 99.559 242.668 99.429 242.84C98.0175 244.707 96.7383 246.605 95.6266 248.667C95.5324 248.841 95.4382 249.015 95.3411 249.194C94.1613 251.463 93.5867 253.778 94.2072 256.293C94.9838 258.35 96.5008 259.866 98.4563 260.854C101.511 261.985 104.44 261.226 107.345 259.966C108.629 259.368 109.861 258.7 111.076 257.972C111.589 257.665 112.111 257.374 112.634 257.085C115.782 254.991 116.409 251.487 117.45 248.04C117.893 246.659 118.219 245.745 119.437 244.933C120.696 244.77 121.255 244.791 122.305 245.528C123.06 246.603 122.987 247.098 122.901 248.396C122.729 249.182 122.542 249.936 122.32 250.706C122.26 250.923 122.2 251.14 122.138 251.363C122.009 251.825 121.88 252.287 121.75 252.748C121.408 253.96 121.078 255.175 120.746 256.39C120.681 256.627 120.616 256.865 120.549 257.11C117.958 266.59 116.572 276.483 115.649 286.259C115.616 286.603 115.616 286.603 115.583 286.953C115.142 291.959 115.054 296.97 115.055 301.992C115.054 303.019 115.049 304.046 115.043 305.073C114.723 312.939 114.723 312.939 117.783 319.875C121.12 322.458 124.851 322.674 128.907 322.678C129.276 322.686 129.644 322.693 130.024 322.7C133.507 322.711 136.971 322.078 139.64 319.684C142.514 316.675 142.679 311.824 143.067 307.898C143.355 305.19 143.355 305.19 144.258 304.099C146.226 303.115 149.118 304.085 151.149 304.496C161.485 306.477 172.421 306.565 182.678 303.943C183.805 303.668 184.96 303.671 186.107 303.81C187.076 304.472 187.327 305.004 187.55 306.119C187.601 306.62 187.641 307.123 187.674 307.625C188.025 314.484 188.025 314.484 191.681 320.063C194.754 322.496 198.464 322.671 202.233 322.66C202.577 322.665 202.92 322.67 203.274 322.675C207.076 322.677 210.255 322.032 213.038 319.323C215.578 315.185 215.346 310.436 215.311 305.758C215.308 305.183 215.306 304.608 215.303 304.033C215.294 302.419 215.277 300.806 215.257 299.192C215.253 298.829 215.249 298.465 215.245 298.09C215.013 282.545 212.521 266.597 208.457 251.61C207.955 249.716 207.571 248.049 207.753 246.087C208.488 245.202 208.933 244.977 210.062 244.789C211.164 244.972 211.574 245.308 212.371 246.087C212.762 247.021 212.762 247.021 213.064 248.119C213.182 248.522 213.301 248.925 213.421 249.327C213.482 249.535 213.543 249.743 213.605 249.958C214.834 254.404 214.834 254.404 218.024 257.505C218.536 257.758 219.061 257.984 219.586 258.209C219.94 258.397 220.291 258.589 220.64 258.784C223.86 260.554 227.161 261.803 230.851 260.876C232.923 260.171 234.285 259.428 235.406 257.506C236.526 255.08 236.333 252.728 235.442 250.254C233.365 245.42 230.124 241.481 226.513 237.718C226.344 237.539 226.175 237.361 226.001 237.177C220.22 231.099 213.48 226.823 206.07 222.995C205.735 222.82 205.4 222.645 205.055 222.465C204.604 222.233 204.604 222.233 204.144 221.996C203.424 221.555 203.424 221.555 202.847 220.689C202.738 219.824 202.738 219.824 202.847 218.958C203.854 217.907 205.26 217.685 206.617 217.316C218.892 213.789 230.23 206.11 236.539 194.829C237.588 192.856 238.314 190.798 238.923 188.653C239.021 188.311 239.119 187.969 239.22 187.616C241.655 177.472 237.691 167.954 232.665 159.323C232.538 159.102 232.411 158.881 232.28 158.653C232.044 158.245 231.805 157.839 231.56 157.437C229.087 153.166 228.518 148.012 227.674 143.236C225.852 132.994 222.272 124.056 214.969 116.5C214.737 116.254 214.506 116.008 214.268 115.755C212.353 113.764 210.252 112.085 208.042 110.439C207.763 110.23 207.763 110.23 207.479 110.017C199.225 103.873 189.973 99.6404 179.944 97.3308C178.397 96.9612 178.397 96.9612 177.905 96.4389C176.971 95.5568 175.484 95.6544 174.256 95.5211C173.767 95.4666 173.767 95.4666 173.267 95.411C170.452 95.1309 167.65 95.0566 164.822 95.0521C164.618 95.0511 164.413 95.0501 164.203 95.049C159.051 95.0275 159.051 95.0275 154.202 96.5624Z" fill="black"/>
<path d="M179.204 235.155C179.892 235.701 180.548 236.265 181.2 236.852C181.483 237.077 181.765 237.303 182.056 237.535C184.725 239.755 186.547 243.05 188.127 246.088C188.223 246.269 188.319 246.45 188.418 246.637C191.579 252.685 193.35 259.474 193.611 266.291C193.62 266.486 193.63 266.681 193.639 266.883C194.004 275.182 191.811 282.794 186.322 289.135C182.469 293.131 177.581 295.3 172.253 296.595C171.835 296.702 171.835 296.702 171.408 296.81C163.995 298.368 155.555 296.847 149.164 292.843C148.145 292.13 147.205 291.363 146.278 290.534C146.038 290.321 145.797 290.108 145.55 289.888C140.298 284.951 137.531 277.557 137.248 270.432C136.995 259.063 140.626 246.797 148.519 238.373C156.767 229.996 169.392 228.403 179.204 235.155Z" fill="#F2D3A3"/>
<path d="M179.204 235.155C179.892 235.701 180.548 236.265 181.2 236.852C181.483 237.077 181.765 237.303 182.056 237.535C184.725 239.755 186.547 243.05 188.127 246.088C188.223 246.269 188.319 246.45 188.418 246.637C191.579 252.685 193.35 259.474 193.611 266.291C193.62 266.486 193.63 266.681 193.639 266.883C194.004 275.182 191.811 282.794 186.322 289.135C182.469 293.131 177.581 295.3 172.253 296.595C171.835 296.702 171.835 296.702 171.408 296.81C163.995 298.368 155.555 296.847 149.164 292.843C148.145 292.13 147.205 291.363 146.278 290.534C146.038 290.321 145.797 290.108 145.55 289.888C140.298 284.951 137.531 277.557 137.248 270.432C136.995 259.063 140.626 246.797 148.519 238.373C156.767 229.996 169.392 228.403 179.204 235.155ZM152.159 244.103C145.984 252.043 143.084 262.467 144.033 272.45C144.71 277.531 146.983 282.589 150.986 285.889C156.622 290.008 163.554 291.418 170.422 290.357C175.422 289.396 180.169 286.801 183.256 282.704C187.45 276.296 187.907 268.244 186.513 260.857C186.388 260.26 186.251 259.668 186.107 259.075C186.059 258.875 186.011 258.674 185.961 258.467C184.483 252.494 181.819 246.729 177.448 242.336C177.278 242.156 177.108 241.976 176.933 241.79C173.683 238.618 169.322 237.319 164.899 237.321C159.769 237.454 155.421 240.284 152.159 244.103Z" fill="black"/>
<path d="M254.797 234.543C254.988 234.543 255.178 234.543 255.374 234.543C255.703 235.444 256.026 236.346 256.349 237.249C256.44 237.5 256.532 237.751 256.626 238.01C259.188 245.216 258.608 253.505 255.41 260.422C254.955 261.343 254.456 262.233 253.931 263.116C253.75 263.423 253.569 263.73 253.382 264.046C247.261 273.748 236.462 280.241 225.461 282.82C225.142 282.89 224.822 282.959 224.493 283.03C224.143 283.116 224.143 283.116 223.786 283.204C222.763 283.364 221.776 283.336 220.741 283.319C220.112 279.984 219.616 276.638 219.151 273.276C218.843 271.086 218.476 268.931 217.975 266.778C217.857 266.015 217.889 265.567 218.143 264.847C218.35 264.942 218.556 265.036 218.769 265.133C221.995 266.547 224.927 267.228 228.443 267.265C228.693 267.269 228.944 267.273 229.201 267.277C233.157 267.248 236.339 265.54 239.201 262.885C241.049 260.892 242.121 258.422 242.549 255.756C243.103 254.407 243.971 253.766 245.067 252.831C250.386 248.2 253.762 241.463 254.797 234.543Z" fill="#3A9592"/>
<path d="M123.117 163.039C126.261 165.155 128.089 168.236 128.961 171.914C129.345 176.217 128.451 179.702 125.786 183.17C123.89 185.347 120.585 187.288 117.676 187.555C113.701 187.697 110.589 187.414 107.315 184.901C107.082 184.746 107.082 184.746 106.845 184.587C105.585 183.66 104.823 182.51 104.05 181.168C103.953 180.999 103.855 180.83 103.755 180.656C102.089 177.629 101.932 174.031 102.597 170.674C103.922 166.739 106.318 163.983 109.985 162.137C114.403 159.986 118.974 160.589 123.117 163.039Z" fill="#F4A99C"/>
<path d="M223.519 163.342C226.274 165.313 228.121 168.219 229.025 171.494C229.531 175.679 228.818 179.478 226.225 182.881C223.817 185.53 220.722 187.255 217.121 187.596C213.427 187.636 210.701 186.834 207.753 184.613C207.378 184.363 207.378 184.363 206.996 184.108C204.517 181.76 203.082 178.575 202.778 175.188C202.676 171.268 203.993 167.656 206.671 164.771C207.862 163.658 209.194 162.844 210.639 162.101C210.831 162.002 211.022 161.903 211.219 161.801C215.136 160.158 220.077 161.121 223.519 163.342Z" fill="#F4A99C"/>
<path d="M138.197 183.458C139.146 184.207 139.765 185.237 140.437 186.227C144.528 192.135 151.253 194.878 158.112 196.157C167.452 197.767 178.228 196.912 186.223 191.463C187.078 190.842 187.896 190.198 188.705 189.519C188.896 189.36 189.088 189.201 189.285 189.038C190.686 187.763 191.564 186.186 192.487 184.553C193.03 183.753 193.286 183.463 194.188 183.17C195.172 183.065 195.781 183.111 196.696 183.494C197.557 184.192 197.872 184.715 198.229 185.767C198.279 188.778 196.295 191.028 194.323 193.126C186.983 200.582 176.997 203.557 166.68 203.715C155.58 203.679 145.423 200.789 137.259 193.018C135.298 191.02 133.45 188.697 133.477 185.787C133.662 184.71 134.242 184.202 135.023 183.458C136.147 183.083 137.082 183.087 138.197 183.458Z" fill="black"/>
<path d="M167.635 75.5166C171.497 77.3172 173.651 84.8922 175.011 88.6119C175.892 91.0546 176.774 93.4991 177.448 96.0082C175.927 96.0351 174.52 95.94 173.011 95.7196C170.347 95.3836 167.682 95.3653 165.002 95.3588C164.796 95.3574 164.59 95.3559 164.378 95.3545C161.38 95.3373 158.479 95.5708 155.514 96.0082C155.742 94.7288 156.185 93.6765 156.776 92.5268C156.878 92.3269 156.98 92.127 157.085 91.921C157.424 91.2614 157.767 90.6042 158.111 89.9473C158.228 89.7225 158.345 89.4977 158.466 89.2661C159.965 86.4045 161.578 83.6413 163.36 80.9462C163.521 80.7013 163.682 80.4564 163.848 80.2041C164.984 78.5178 166.251 77.0048 167.635 75.5166Z" fill="#3A9592"/>
<path d="M204.921 145.523C206.798 146.594 207.974 148.233 208.707 150.247C209.297 152.851 209.314 155.891 208.136 158.325C207.029 160.062 205.712 161.216 203.712 161.812C201.885 162.015 200.602 161.731 199.095 160.658C197.174 158.922 196.136 156.846 195.851 154.263C195.765 151.554 196.424 149.162 198.193 147.075C200.139 145.096 202.3 144.361 204.921 145.523Z" fill="black"/>
<path d="M132.194 145.318C134.288 146.491 135.668 148.417 136.33 150.706C136.904 153.74 136.408 156.553 134.806 159.179C133.996 160.292 133.207 161.153 131.848 161.524C129.79 161.797 127.971 161.803 126.263 160.53C124.153 158.536 123.505 156.233 123.388 153.388C123.414 150.927 124.286 148.273 126.075 146.516C127.912 145.084 129.951 144.45 132.194 145.318Z" fill="black"/>
<path d="M212.371 92.5449C212.519 95.1832 212.308 97.6315 211.83 100.229C211.78 100.503 211.73 100.776 211.678 101.058C211.435 102.316 211.187 103.498 210.64 104.667C208.633 103.407 206.653 102.115 204.692 100.786C203.527 100.002 202.341 99.2895 201.115 98.6058C202.116 97.4776 203.27 96.7903 204.561 96.0444C204.885 95.8552 204.885 95.8552 205.216 95.6623C210.641 92.5449 210.641 92.5449 212.371 92.5449Z" fill="#3A9592"/>
<path d="M121.169 91.9673C122.934 92.5032 124.544 93.1637 126.165 94.0417C126.48 94.2099 126.48 94.2099 126.801 94.3815C128.658 95.3901 130.41 96.5192 132.136 97.7396C131.005 98.7078 129.831 99.4021 128.528 100.103C126.603 101.157 124.814 102.323 123.038 103.612C122.323 104.089 122.323 104.089 121.746 104.089C120.992 100.07 121.111 96.0407 121.169 91.9673Z" fill="#3A9592"/>
<path d="M152.916 170.182C154.535 170.924 155.802 171.898 156.498 173.564C156.83 174.848 156.877 176.089 156.668 177.397C156.148 178.264 155.83 178.682 154.937 179.129C153.472 179.369 152.337 179.269 151.094 178.426C149.738 177.275 149.072 175.922 148.767 174.181C148.678 172.718 149.111 171.863 150.03 170.759C151.14 170.02 151.595 170.012 152.916 170.182Z" fill="black"/>
<path d="M181.489 170.182C182.334 170.706 183.058 171.299 183.509 172.202C183.737 174.137 183.637 175.608 182.48 177.208C181.332 178.533 180.388 179.078 178.639 179.219C177.699 179.209 177.443 179.125 176.601 178.606C175.626 177.572 175.616 176.561 175.638 175.205C175.859 173.257 176.931 172.001 178.405 170.796C179.404 170.126 180.32 170.044 181.489 170.182Z" fill="black"/>
<path d="M153.518 137.975C155.939 140.106 157.82 143.436 158.176 146.686C158.566 153.071 156.081 158.465 151.928 163.232C151.509 163.694 151.082 164.148 150.652 164.6C150.46 164.823 150.27 165.047 150.081 165.272C149.338 166.13 148.522 166.918 147.713 167.712C147.169 168.249 146.643 168.79 146.147 169.372C145.39 170.242 144.584 171.062 143.772 171.881C143.613 172.041 143.455 172.201 143.292 172.366C142.959 172.701 142.626 173.036 142.293 173.37C141.868 173.797 141.445 174.226 141.023 174.656C140.616 175.069 140.206 175.479 139.797 175.89C139.647 176.043 139.496 176.197 139.342 176.355C138.371 177.322 137.637 177.921 136.253 178.126C134.897 177.939 133.843 177.045 132.753 176.267C131.617 175.485 130.439 174.768 129.271 174.035C128.299 173.423 127.33 172.806 126.362 172.188C125.527 171.655 124.69 171.124 123.849 170.6C120.806 168.697 117.837 166.668 115.181 164.242C115.078 164.148 114.975 164.054 114.869 163.957C111.705 161.03 109.213 157.278 109.007 152.852C109 152.454 108.999 152.056 109.001 151.657C109.002 151.447 109.003 151.236 109.004 151.019C109.075 147.552 110.365 144.626 112.673 142.028C112.775 141.914 112.876 141.8 112.98 141.683C115.095 139.444 118.101 137.997 121.176 137.865C125.345 137.77 128.711 138.88 131.842 141.67C132.139 141.91 132.437 142.15 132.737 142.386C132.852 142.22 132.967 142.053 133.085 141.882C135.452 138.481 138.661 135.871 142.844 135.12C146.719 134.647 150.422 135.569 153.518 137.975Z" fill="#FF6060"/>
<path d="M194.363 137.729C195.659 138.733 196.714 139.863 197.638 141.221C197.958 141.688 198.304 142.127 198.662 142.566C198.75 142.468 198.837 142.37 198.927 142.27C201.213 139.838 204.5 137.972 207.886 137.854C211.643 137.816 214.617 138.594 217.472 141.133C217.65 141.285 217.65 141.285 217.831 141.441C220.157 143.584 221.78 146.915 221.985 150.069C221.999 150.614 222 151.157 221.996 151.702C221.997 151.884 221.999 152.066 222 152.254C221.988 156.797 219.685 160.497 216.633 163.705C213.929 166.323 210.628 168.44 207.462 170.449C206.814 170.862 206.17 171.281 205.526 171.699C205.27 171.865 205.014 172.03 204.757 172.196C204.318 172.48 203.878 172.765 203.439 173.05C202.451 173.688 201.459 174.319 200.461 174.94C200.27 175.059 200.079 175.178 199.882 175.301C199.502 175.537 199.121 175.773 198.741 176.009C197.984 176.479 197.237 176.946 196.522 177.479C196.032 177.818 195.762 177.987 195.18 178.047C195.059 178.064 194.937 178.081 194.811 178.099C193.539 177.922 192.601 177.095 191.734 176.209C191.624 176.099 191.514 175.989 191.401 175.876C191.041 175.517 190.683 175.154 190.326 174.792C190.074 174.539 189.822 174.287 189.57 174.034C189.043 173.506 188.517 172.976 187.992 172.446C187.322 171.769 186.65 171.094 185.978 170.42C185.333 169.773 184.689 169.125 184.045 168.477C183.923 168.355 183.802 168.233 183.677 168.107C182.485 166.908 181.303 165.713 180.211 164.421C179.961 164.152 179.711 163.883 179.46 163.615C177.621 161.566 176.078 159.354 174.836 156.897C174.777 156.782 174.718 156.667 174.658 156.548C172.801 152.839 172.204 148.553 173.403 144.536C174.029 142.731 174.88 141.185 176.09 139.7C176.176 139.585 176.262 139.47 176.351 139.351C180.689 133.791 189.009 134.053 194.363 137.729Z" fill="#FF6060"/>
<path d="M194.363 137.729C195.659 138.733 196.714 139.863 197.638 141.221C197.958 141.688 198.304 142.127 198.662 142.566C198.75 142.468 198.837 142.37 198.927 142.27C201.213 139.838 204.5 137.972 207.886 137.854C211.643 137.816 214.617 138.594 217.472 141.133C217.65 141.285 217.65 141.285 217.831 141.441C220.157 143.584 221.78 146.915 221.985 150.069C221.999 150.614 222 151.157 221.996 151.702C221.997 151.884 221.999 152.066 222 152.254C221.988 156.797 219.685 160.497 216.633 163.705C213.929 166.323 210.628 168.44 207.462 170.449C206.814 170.862 206.17 171.281 205.526 171.699C205.27 171.865 205.014 172.03 204.757 172.196C204.318 172.48 203.878 172.765 203.439 173.05C202.451 173.688 201.459 174.319 200.461 174.94C200.27 175.059 200.079 175.178 199.882 175.301C199.502 175.537 199.121 175.773 198.741 176.009C197.984 176.479 197.237 176.946 196.522 177.479C196.032 177.818 195.762 177.987 195.18 178.047C195.059 178.064 194.937 178.081 194.811 178.099C193.539 177.922 192.601 177.095 191.734 176.209C191.624 176.099 191.514 175.989 191.401 175.876C191.041 175.517 190.683 175.154 190.326 174.792C190.074 174.539 189.822 174.287 189.57 174.034C189.043 173.506 188.517 172.976 187.992 172.446C187.322 171.769 186.65 171.094 185.978 170.42C185.333 169.773 184.689 169.125 184.045 168.477C183.923 168.355 183.802 168.233 183.677 168.107C182.485 166.908 181.303 165.713 180.211 164.421C179.961 164.152 179.711 163.883 179.46 163.615C177.621 161.566 176.078 159.354 174.836 156.897C174.777 156.782 174.718 156.667 174.658 156.548C172.801 152.839 172.204 148.553 173.403 144.536C174.029 142.731 174.88 141.185 176.09 139.7C176.176 139.585 176.262 139.47 176.351 139.351C180.689 133.791 189.009 134.053 194.363 137.729ZM180.569 141.849C180.454 141.939 180.34 142.028 180.222 142.121C178.932 143.259 177.819 145.402 177.664 147.113C177.406 152.972 179.968 157.001 183.793 161.197C184.106 161.522 184.422 161.839 184.748 162.151C185.044 162.447 185.312 162.754 185.582 163.073C186.374 163.983 187.223 164.833 188.078 165.684C188.35 165.955 188.621 166.227 188.892 166.499C189.745 167.353 190.609 168.184 191.526 168.969C192.1 169.474 192.63 170.022 193.165 170.568C193.38 170.788 193.596 171.008 193.812 171.227C193.952 171.37 193.952 171.37 194.094 171.515C194.519 171.912 194.779 172.125 195.371 172.121C196.219 171.875 196.861 171.421 197.587 170.927C197.908 170.713 198.228 170.5 198.548 170.288C198.714 170.177 198.88 170.066 199.05 169.952C199.88 169.403 200.721 168.872 201.562 168.34C201.894 168.129 202.227 167.918 202.559 167.707C202.718 167.606 202.877 167.504 203.041 167.4C211.939 162.197 211.939 162.197 217.17 153.751C217.668 151.119 217.077 148.428 215.58 146.227C214.276 144.515 212.606 143.218 210.486 142.745C208.65 142.634 206.959 142.588 205.291 143.462C205.052 143.586 205.052 143.586 204.809 143.713C202.755 144.906 201.197 146.547 200.132 148.659C199.674 149.522 199.228 149.803 198.304 150.09C197.486 150.221 196.704 150.139 195.975 149.732C195.592 149.157 195.569 148.932 195.505 148.265C195.145 145.962 193.881 143.975 192.213 142.387C192.095 142.269 191.977 142.152 191.856 142.031C189.929 140.217 187.731 139.768 185.168 139.823C183.337 139.912 181.974 140.721 180.569 141.849Z" fill="black"/>
<path d="M153.518 137.975C155.939 140.106 157.82 143.436 158.176 146.686C158.566 153.071 156.081 158.465 151.928 163.232C151.509 163.694 151.082 164.148 150.652 164.6C150.46 164.823 150.27 165.047 150.081 165.272C149.338 166.13 148.522 166.918 147.713 167.712C147.169 168.249 146.643 168.79 146.147 169.372C145.39 170.242 144.584 171.062 143.772 171.881C143.613 172.041 143.455 172.201 143.292 172.366C142.959 172.701 142.626 173.036 142.293 173.37C141.868 173.797 141.445 174.226 141.023 174.656C140.616 175.069 140.206 175.479 139.797 175.89C139.647 176.043 139.496 176.197 139.342 176.355C138.371 177.322 137.637 177.921 136.253 178.126C134.897 177.939 133.843 177.045 132.753 176.267C131.617 175.485 130.439 174.768 129.271 174.035C128.299 173.423 127.33 172.806 126.362 172.188C125.527 171.655 124.69 171.124 123.849 170.6C120.806 168.697 117.837 166.668 115.181 164.242C115.078 164.148 114.975 164.054 114.869 163.957C111.705 161.03 109.213 157.278 109.007 152.852C109 152.454 108.999 152.056 109.001 151.657C109.002 151.447 109.003 151.236 109.004 151.019C109.075 147.552 110.365 144.626 112.673 142.028C112.775 141.914 112.876 141.8 112.98 141.683C115.095 139.444 118.101 137.997 121.176 137.865C125.345 137.77 128.711 138.88 131.842 141.67C132.139 141.91 132.437 142.15 132.737 142.386C132.852 142.22 132.967 142.053 133.085 141.882C135.452 138.481 138.661 135.871 142.844 135.12C146.719 134.647 150.422 135.569 153.518 137.975ZM137.932 143.323C136.662 144.875 135.806 146.62 135.665 148.63C135.596 149.06 135.471 149.359 135.245 149.731C134.462 150.221 133.453 150.22 132.558 150.09C131.729 149.726 131.477 149.296 131.103 148.489C129.699 145.748 127.333 143.865 124.468 142.777C122.314 142.149 120.13 142.689 118.204 143.741C115.994 145.183 114.455 147.167 113.849 149.754C113.807 150.044 113.774 150.335 113.748 150.627C113.734 150.788 113.719 150.949 113.704 151.114C113.571 154.111 114.706 156.943 116.704 159.148C120.258 162.873 125.04 165.494 129.364 168.22C130.241 168.775 131.116 169.335 131.99 169.895C132.281 170.081 132.572 170.267 132.864 170.453C133.042 170.567 133.22 170.681 133.404 170.799C133.57 170.905 133.737 171.011 133.908 171.12C134.267 171.354 134.613 171.597 134.96 171.849C135.499 172.169 135.704 172.212 136.32 172.124C136.799 171.796 136.799 171.796 137.279 171.31C137.377 171.217 137.474 171.123 137.574 171.027C137.936 170.679 138.293 170.327 138.649 169.975C138.798 169.828 138.948 169.681 139.101 169.53C140.259 168.389 141.408 167.241 142.556 166.09C142.932 165.714 143.308 165.339 143.684 164.964C144.051 164.598 144.417 164.231 144.783 163.864C145.039 163.609 145.295 163.353 145.551 163.098C149.708 158.926 153.391 154.316 153.395 148.19C153.361 145.714 152.458 143.752 150.82 141.894C149.202 140.378 146.869 139.598 144.68 139.655C141.898 139.912 139.771 141.279 137.932 143.323Z" fill="black"/>
<path d="M120.643 96.0042C122.263 95.9516 123.797 96.3935 125.042 97.4496C125.074 97.4768 125.074 97.4768 125.107 97.5046C126.108 98.3642 126.73 99.5332 127.038 100.805C127.049 100.853 127.049 100.853 127.061 100.902C127.183 101.434 127.217 101.952 127.21 102.495C127.21 102.554 127.21 102.613 127.209 102.672C127.208 102.814 127.207 102.956 127.205 103.098C127.253 103.08 127.3 103.061 127.349 103.042C128.136 102.742 128.893 102.561 129.742 102.567C129.793 102.568 129.843 102.568 129.896 102.568C130.823 102.579 131.622 102.772 132.453 103.178C132.5 103.201 132.547 103.224 132.595 103.247C133.733 103.832 134.724 104.796 135.298 105.942C135.311 105.969 135.324 105.995 135.338 106.023C135.964 107.284 136.166 108.771 135.858 110.149C135.851 110.18 135.844 110.212 135.837 110.245C135.568 111.413 135.018 112.459 134.176 113.313C134.146 113.344 134.115 113.375 134.084 113.407C133.302 114.154 132.099 114.822 131.011 114.916C131.056 114.973 131.056 114.973 131.102 115.031C131.835 115.971 132.332 117.093 132.493 118.281C132.498 118.313 132.502 118.345 132.507 118.379C132.636 119.519 132.439 120.681 131.973 121.726C131.953 121.772 131.933 121.817 131.912 121.864C131.631 122.462 131.231 122.978 130.771 123.449C130.735 123.487 130.735 123.487 130.699 123.526C129.941 124.331 128.862 124.798 127.806 125.051C127.763 125.062 127.763 125.062 127.718 125.073C127.312 125.168 126.912 125.18 126.496 125.181C126.406 125.181 126.315 125.182 126.224 125.184C125.671 125.188 125.139 125.109 124.609 124.946C124.56 124.931 124.56 124.931 124.509 124.915C123.72 124.663 122.984 124.273 122.358 123.729C122.325 123.7 122.292 123.671 122.258 123.642C122.156 123.552 122.057 123.461 121.958 123.368C121.928 123.341 121.898 123.314 121.868 123.287C121.523 122.959 121.257 122.562 120.996 122.167C120.974 122.203 120.952 122.238 120.93 122.275C120.737 122.587 120.533 122.865 120.275 123.128C120.242 123.162 120.209 123.196 120.175 123.231C120.142 123.263 120.109 123.295 120.075 123.328C120.05 123.354 120.026 123.38 120.001 123.406C118.925 124.525 117.374 125.156 115.833 125.187C115.263 125.194 114.702 125.187 114.146 125.051C114.097 125.04 114.047 125.029 113.996 125.017C112.927 124.756 112.083 124.253 111.262 123.529C111.233 123.504 111.205 123.479 111.176 123.453C110.151 122.491 109.482 120.951 109.412 119.554C109.39 117.797 109.776 116.269 110.941 114.916C110.89 114.914 110.839 114.913 110.786 114.911C109.787 114.807 108.803 114.193 108.057 113.554C108.021 113.523 107.984 113.492 107.947 113.46C107.687 113.232 107.465 112.989 107.256 112.713C107.239 112.691 107.223 112.67 107.206 112.648C106.484 111.696 106.021 110.507 106.003 109.303C106.002 109.272 106.002 109.241 106.001 109.21C105.988 108.235 106.074 107.331 106.454 106.423C106.466 106.396 106.477 106.368 106.489 106.34C106.776 105.654 107.195 105.048 107.696 104.5C107.73 104.463 107.763 104.427 107.798 104.389C108.277 103.886 108.841 103.491 109.459 103.178C109.484 103.165 109.509 103.152 109.536 103.139C111.058 102.373 112.709 102.429 114.299 102.948C114.436 102.995 114.571 103.046 114.707 103.098C114.706 103.058 114.706 103.058 114.705 103.017C114.667 101.133 115.135 99.2953 116.464 97.9006C116.519 97.8436 116.574 97.7868 116.63 97.7301C116.654 97.7036 116.678 97.6771 116.702 97.6498C117.087 97.2344 117.615 96.9474 118.112 96.6885C118.136 96.6756 118.161 96.6628 118.186 96.6495C118.948 96.2585 119.788 96.0366 120.643 96.0042Z" fill="#F4A99C"/>
<path d="M120.643 96.0042C122.263 95.9516 123.797 96.3935 125.042 97.4496C125.074 97.4768 125.074 97.4768 125.107 97.5046C126.108 98.3642 126.73 99.5332 127.038 100.805C127.049 100.853 127.049 100.853 127.061 100.902C127.183 101.434 127.217 101.952 127.21 102.495C127.21 102.554 127.21 102.613 127.209 102.672C127.208 102.814 127.207 102.956 127.205 103.098C127.253 103.08 127.3 103.061 127.349 103.042C128.136 102.742 128.893 102.561 129.742 102.567C129.793 102.568 129.843 102.568 129.896 102.568C130.823 102.579 131.622 102.772 132.453 103.178C132.5 103.201 132.547 103.224 132.595 103.247C133.733 103.832 134.724 104.796 135.298 105.942C135.311 105.969 135.324 105.995 135.338 106.023C135.964 107.284 136.166 108.771 135.858 110.149C135.851 110.18 135.844 110.212 135.837 110.245C135.568 111.413 135.018 112.459 134.176 113.313C134.146 113.344 134.115 113.375 134.084 113.407C133.302 114.154 132.099 114.822 131.011 114.916C131.056 114.973 131.056 114.973 131.102 115.031C131.835 115.971 132.332 117.093 132.493 118.281C132.498 118.313 132.502 118.345 132.507 118.379C132.636 119.519 132.439 120.681 131.973 121.726C131.953 121.772 131.933 121.817 131.912 121.864C131.631 122.462 131.231 122.978 130.771 123.449C130.735 123.487 130.735 123.487 130.699 123.526C129.941 124.331 128.862 124.798 127.806 125.051C127.763 125.062 127.763 125.062 127.718 125.073C127.312 125.168 126.912 125.18 126.496 125.181C126.406 125.181 126.315 125.182 126.224 125.184C125.671 125.188 125.139 125.109 124.609 124.946C124.56 124.931 124.56 124.931 124.509 124.915C123.72 124.663 122.984 124.273 122.358 123.729C122.325 123.7 122.292 123.671 122.258 123.642C122.156 123.552 122.057 123.461 121.958 123.368C121.928 123.341 121.898 123.314 121.868 123.287C121.523 122.959 121.257 122.562 120.996 122.167C120.974 122.203 120.952 122.238 120.93 122.275C120.737 122.587 120.533 122.865 120.275 123.128C120.242 123.162 120.209 123.196 120.175 123.231C120.142 123.263 120.109 123.295 120.075 123.328C120.05 123.354 120.026 123.38 120.001 123.406C118.925 124.525 117.374 125.156 115.833 125.187C115.263 125.194 114.702 125.187 114.146 125.051C114.097 125.04 114.047 125.029 113.996 125.017C112.927 124.756 112.083 124.253 111.262 123.529C111.233 123.504 111.205 123.479 111.176 123.453C110.151 122.491 109.482 120.951 109.412 119.554C109.39 117.797 109.776 116.269 110.941 114.916C110.89 114.914 110.839 114.913 110.786 114.911C109.787 114.807 108.803 114.193 108.057 113.554C108.021 113.523 107.984 113.492 107.947 113.46C107.687 113.232 107.465 112.989 107.256 112.713C107.239 112.691 107.223 112.67 107.206 112.648C106.484 111.696 106.021 110.507 106.003 109.303C106.002 109.272 106.002 109.241 106.001 109.21C105.988 108.235 106.074 107.331 106.454 106.423C106.466 106.396 106.477 106.368 106.489 106.34C106.776 105.654 107.195 105.048 107.696 104.5C107.73 104.463 107.763 104.427 107.798 104.389C108.277 103.886 108.841 103.491 109.459 103.178C109.484 103.165 109.509 103.152 109.536 103.139C111.058 102.373 112.709 102.429 114.299 102.948C114.436 102.995 114.571 103.046 114.707 103.098C114.706 103.058 114.706 103.058 114.705 103.017C114.667 101.133 115.135 99.2953 116.464 97.9006C116.519 97.8436 116.574 97.7868 116.63 97.7301C116.654 97.7036 116.678 97.6771 116.702 97.6498C117.087 97.2344 117.615 96.9474 118.112 96.6885C118.136 96.6756 118.161 96.6628 118.186 96.6495C118.948 96.2585 119.788 96.0366 120.643 96.0042ZM117.711 98.6514C117.661 98.6962 117.661 98.6962 117.611 98.7419C116.725 99.5831 116.155 100.859 116.104 102.082C116.083 103.059 116.224 103.953 116.648 104.842C116.743 105.048 116.785 105.234 116.75 105.462C116.655 105.599 116.548 105.658 116.389 105.702C116.176 105.73 116.054 105.691 115.882 105.574C115.766 105.485 115.656 105.39 115.545 105.294C114.372 104.281 112.93 103.848 111.39 103.949C110.216 104.079 109.214 104.773 108.471 105.662C107.762 106.553 107.355 107.662 107.366 108.802C107.366 108.868 107.366 108.868 107.367 108.935C107.385 110.289 107.916 111.467 108.85 112.437C109.672 113.238 110.717 113.695 111.865 113.686C111.895 113.686 111.925 113.686 111.955 113.685C112.045 113.684 112.135 113.684 112.225 113.683C112.549 113.682 112.868 113.668 113.19 113.638C113.359 113.632 113.445 113.661 113.585 113.754C113.712 113.893 113.734 114.039 113.727 114.221C113.642 114.591 113.164 114.848 112.871 115.046C111.898 115.721 111.214 116.775 110.909 117.91C110.9 117.941 110.892 117.972 110.883 118.004C110.597 119.131 110.763 120.471 111.346 121.482C111.552 121.82 111.786 122.123 112.063 122.407C112.088 122.434 112.113 122.462 112.138 122.49C112.854 123.254 114.051 123.76 115.087 123.817C115.785 123.832 116.441 123.836 117.11 123.609C117.138 123.6 117.165 123.591 117.193 123.582C117.782 123.382 118.335 123.069 118.793 122.647C118.824 122.619 118.824 122.619 118.856 122.59C119.741 121.768 120.183 120.757 120.475 119.599C120.536 119.423 120.623 119.285 120.768 119.167C120.943 119.094 121.086 119.098 121.264 119.16C121.513 119.381 121.569 119.776 121.65 120.086C121.759 120.492 121.89 120.869 122.078 121.245C122.107 121.305 122.107 121.305 122.136 121.365C122.678 122.419 123.64 123.201 124.755 123.582C126.084 123.996 127.413 123.934 128.66 123.295C129.752 122.712 130.565 121.746 130.946 120.567C131.236 119.608 131.269 118.642 130.971 117.68C130.962 117.651 130.953 117.622 130.944 117.592C130.637 116.632 130.016 115.8 129.249 115.156C129.225 115.135 129.201 115.113 129.177 115.091C129.053 114.977 128.926 114.873 128.787 114.777C128.762 114.76 128.737 114.743 128.711 114.725C128.662 114.691 128.611 114.657 128.561 114.624C128.399 114.514 128.314 114.419 128.247 114.235C128.234 114.108 128.25 113.996 128.287 113.874C128.375 113.766 128.443 113.696 128.567 113.634C128.638 113.63 128.709 113.629 128.78 113.629C128.818 113.629 128.856 113.629 128.895 113.629C129.008 113.634 129.008 113.634 129.099 113.654C129.323 113.695 129.553 113.684 129.779 113.684C129.806 113.684 129.833 113.684 129.861 113.684C131.239 113.682 132.365 113.16 133.335 112.192C134.162 111.293 134.636 110.079 134.629 108.859C134.629 108.816 134.629 108.772 134.628 108.727C134.61 107.462 134.086 106.291 133.214 105.382C133.184 105.349 133.154 105.316 133.122 105.282C132.357 104.478 131.284 103.963 130.17 103.927C130.088 103.927 130.006 103.926 129.925 103.927C129.859 103.927 129.859 103.927 129.793 103.928C128.536 103.946 127.263 104.448 126.364 105.341C126.341 105.365 126.318 105.389 126.294 105.414C126.13 105.582 125.981 105.69 125.741 105.72C125.586 105.7 125.492 105.67 125.363 105.582C125.245 105.419 125.235 105.307 125.263 105.111C125.299 104.948 125.367 104.8 125.433 104.648C125.595 104.259 125.714 103.87 125.803 103.459C125.813 103.414 125.823 103.369 125.833 103.323C125.967 102.575 125.922 101.786 125.723 101.055C125.716 101.028 125.709 101.001 125.701 100.973C125.36 99.7519 124.532 98.6534 123.44 98.0105C121.588 96.9838 119.283 97.2359 117.711 98.6514Z" fill="black"/>
<path d="M124.574 107.113C124.679 107.201 124.78 107.292 124.882 107.385C124.911 107.411 124.941 107.438 124.971 107.465C125.952 108.398 126.533 109.816 126.575 111.157C126.598 112.426 126.35 113.591 125.603 114.636C125.586 114.658 125.57 114.681 125.553 114.705C124.707 115.869 123.485 116.764 122.045 116.992C121.75 117.034 121.454 117.068 121.156 117.079C121.079 117.082 121.079 117.082 121.001 117.086C119.453 117.128 118.07 116.47 116.95 115.437C116.003 114.518 115.408 113.125 115.381 111.809C115.377 111.343 115.384 110.889 115.467 110.429C115.472 110.403 115.477 110.376 115.482 110.349C115.738 108.98 116.532 107.764 117.674 106.968C119.759 105.563 122.578 105.476 124.574 107.113Z" fill="#F8E482"/>
<path d="M124.574 107.113C124.679 107.201 124.78 107.292 124.882 107.385C124.911 107.411 124.941 107.438 124.971 107.465C125.952 108.398 126.533 109.816 126.575 111.157C126.598 112.426 126.35 113.591 125.603 114.636C125.586 114.658 125.57 114.681 125.553 114.705C124.707 115.869 123.485 116.764 122.045 116.992C121.75 117.034 121.454 117.068 121.156 117.079C121.079 117.082 121.079 117.082 121.001 117.086C119.453 117.128 118.07 116.47 116.95 115.437C116.003 114.518 115.408 113.125 115.381 111.809C115.377 111.343 115.384 110.889 115.467 110.429C115.472 110.403 115.477 110.376 115.482 110.349C115.738 108.98 116.532 107.764 117.674 106.968C119.759 105.563 122.578 105.476 124.574 107.113ZM118.192 108.306C118.172 108.324 118.152 108.341 118.132 108.359C117.327 109.092 116.807 110.148 116.744 111.238C116.694 112.431 117.08 113.507 117.884 114.4C118.565 115.135 119.489 115.649 120.499 115.729C120.644 115.733 120.788 115.734 120.933 115.732C120.984 115.732 121.035 115.731 121.088 115.731C121.445 115.725 121.774 115.704 122.117 115.597C122.142 115.589 122.168 115.582 122.193 115.574C122.855 115.363 123.412 115.024 123.92 114.555C123.947 114.532 123.973 114.509 124.001 114.485C124.67 113.866 125.155 112.828 125.208 111.924C125.252 110.645 124.95 109.525 124.074 108.566C123.365 107.814 122.405 107.304 121.36 107.26C120.15 107.229 119.106 107.478 118.192 108.306Z" fill="black"/>
</svg>
