<svg width="350" height="350" viewBox="0 0 350 350" fill="none" xmlns="http://www.w3.org/2000/svg">
<path d="M169.371 67.0678C173.751 69.12 176.186 73.702 178.315 77.8254C178.412 78.0127 178.509 78.2 178.61 78.3929C180.67 82.4108 182.71 86.9345 183.51 91.3903C183.72 91.4119 183.931 91.4335 184.148 91.4557C186.87 91.7986 189.333 92.5927 191.908 93.5166C192.748 93.7984 192.748 93.7984 193.611 93.9878C194.257 93.6405 194.819 93.2885 195.415 92.8694C195.779 92.6261 196.143 92.3837 196.508 92.1423C196.792 91.9544 196.792 91.9544 197.08 91.7628C202.222 88.4108 209.535 84.4813 215.834 85.3294C217.299 85.9462 217.848 86.8018 218.501 88.1874C219.828 91.8427 219.082 96.5554 218.63 100.319C218.594 100.625 218.559 100.93 218.522 101.244C218.354 102.562 218.165 103.827 217.771 105.097C217.447 106.177 217.21 107.003 217.277 108.13C218.109 109.35 219.126 110.207 220.249 111.151C221.054 111.875 221.707 112.702 222.364 113.559C222.494 113.728 222.624 113.897 222.757 114.07C229.535 123.025 232.745 133.221 234.793 144.159C235.653 148.723 236.577 152.838 238.923 156.906C239.17 157.349 239.415 157.792 239.66 158.236C240.028 158.902 240.398 159.567 240.771 160.231C244.371 166.647 246.268 173.244 246.229 180.626C246.228 180.837 246.228 181.048 246.227 181.265C246.212 184.384 246.103 187.359 245.273 190.385C245.219 190.587 245.164 190.789 245.109 190.997C241.763 203.092 232.444 212.095 221.831 218.165C220.054 219.165 218.255 220.106 216.412 220.978C218.091 222.244 219.771 223.505 221.48 224.73C224.388 226.842 227.087 229.18 229.688 231.657C229.861 231.821 230.034 231.986 230.212 232.156C234.717 236.477 238.613 241.241 241.232 246.953C245.591 242.574 247.683 237.552 248.773 231.535C249.168 229.436 249.606 227.55 251.226 226.047C252.401 225.274 253.085 225.192 254.509 225.307C257.383 226.119 259.197 228.821 260.624 231.278C265.084 239.295 266.155 248.483 263.744 257.343C263.692 257.538 263.639 257.733 263.585 257.934C261.796 264.343 258.087 269.802 253.643 274.66C253.427 274.897 253.21 275.134 252.988 275.378C245.709 282.982 233.625 289.827 222.953 290.274C222.408 290.264 221.863 290.255 221.318 290.245C221.338 290.509 221.358 290.773 221.379 291.045C221.565 293.623 221.656 296.186 221.665 298.772C221.666 298.961 221.667 299.151 221.668 299.346C221.672 300.348 221.675 301.35 221.676 302.353C221.677 303.166 221.681 303.978 221.688 304.791C221.749 312.563 221.749 312.563 221.241 316.055C221.21 316.273 221.179 316.492 221.147 316.717C220.591 319.957 218.841 323.142 216.292 325.237C210.279 329.333 202.612 330.164 195.541 328.866C190.956 327.76 186.852 325.527 184.303 321.452C182.373 318.007 181.718 314.669 181.778 310.737C181.477 310.787 181.477 310.787 181.17 310.838C180.243 310.992 179.315 311.144 178.387 311.296C178.072 311.349 177.756 311.402 177.432 311.456C173.637 312.073 169.92 312.234 166.083 312.234C165.317 312.234 164.551 312.239 163.785 312.245C158.82 312.261 154.024 311.742 149.164 310.737C149.16 311.02 149.156 311.303 149.152 311.595C149.014 316.333 147.633 320.835 144.348 324.392C139.243 329.124 132.465 329.479 125.88 329.266C123.832 329.143 121.953 328.704 120.014 328.054C119.7 327.949 119.385 327.845 119.061 327.737C115.177 326.28 111.979 323.669 110.22 319.885C108.758 316.176 108.713 312.284 108.72 308.348C108.72 307.988 108.72 307.629 108.719 307.258C108.719 306.499 108.72 305.739 108.721 304.98C108.722 303.848 108.721 302.717 108.719 301.585C108.718 297.841 108.76 294.1 108.885 290.357C108.896 290.025 108.907 289.692 108.918 289.35C109.219 281.218 110.586 273.099 112.222 265.136C112.072 265.194 111.923 265.252 111.769 265.312C106.304 267.424 101.444 268.776 95.7506 266.516C92.3651 264.957 89.6685 262.55 88.1947 259.095C86.5829 254.517 87.4132 250.327 89.3763 246.053C91.8726 240.918 95.5442 236.566 99.5228 232.523C99.8057 232.229 100.088 231.935 100.371 231.641C101.851 230.123 103.385 228.736 105.044 227.417C105.627 226.947 106.198 226.474 106.764 225.985C108.721 224.292 110.732 222.742 112.857 221.266C113.659 220.727 113.659 220.727 114.242 220.112C114.059 220.019 113.876 219.927 113.688 219.831C106.878 216.363 106.878 216.363 104.141 214.34C103.838 214.119 103.535 213.897 103.223 213.669C100.991 212.01 98.9371 210.196 96.9253 208.279C96.6824 208.055 96.4394 207.83 96.1891 207.599C89.2498 200.992 85.3664 192.074 85.011 182.547C84.7862 172.353 88.0354 163.889 93.1306 155.166C95.6829 150.672 96.469 145.556 97.4943 140.555C98.7891 134.275 100.435 128.193 103.563 122.561C103.797 122.121 103.797 122.121 104.036 121.672C105.896 118.303 108.33 115.277 110.815 112.351C110.956 112.184 111.097 112.017 111.243 111.844C111.918 111.062 112.597 110.342 113.39 109.678C114.876 108.476 114.876 108.476 115.477 106.754C115.323 105.747 115.075 104.787 114.819 103.801C113.77 98.3997 112.4 90.4253 115.361 85.4196C116.377 84.3139 117.009 83.9398 118.517 83.742C120.631 83.816 122.658 84.6256 124.632 85.3294C124.908 85.4269 125.183 85.5244 125.467 85.6248C127.483 86.409 129.401 87.4099 131.325 88.3959C131.615 88.5432 131.906 88.6905 132.206 88.8422C133.566 89.5496 134.819 90.2557 136 91.2381C138.001 92.9358 138.001 92.9358 140.505 93.3521C142.414 92.9787 144.202 92.3318 146.02 91.6547C147.248 91.2662 148.46 91.1521 149.742 91.1017C149.776 90.8936 149.81 90.6854 149.845 90.471C150.036 89.6345 150.315 88.9735 150.694 88.2054C150.832 87.9271 150.969 87.6488 151.111 87.3621C151.26 87.0663 151.41 86.7706 151.564 86.4658C151.719 86.1585 151.873 85.8512 152.033 85.5346C162.696 64.657 162.696 64.657 169.371 67.0678Z" fill="#ECECEB"/>
<path d="M169.371 67.0678C173.751 69.12 176.186 73.702 178.315 77.8254C178.412 78.0127 178.509 78.2 178.61 78.3929C180.67 82.4108 182.71 86.9345 183.51 91.3903C183.72 91.4119 183.931 91.4335 184.148 91.4557C186.87 91.7986 189.333 92.5927 191.908 93.5166C192.748 93.7984 192.748 93.7984 193.611 93.9878C194.257 93.6405 194.819 93.2885 195.415 92.8694C195.779 92.6261 196.143 92.3837 196.508 92.1423C196.792 91.9544 196.792 91.9544 197.08 91.7628C202.222 88.4108 209.535 84.4813 215.834 85.3294C217.299 85.9462 217.848 86.8018 218.501 88.1874C219.828 91.8427 219.082 96.5554 218.63 100.319C218.594 100.625 218.559 100.93 218.522 101.244C218.354 102.562 218.165 103.827 217.771 105.097C217.447 106.177 217.21 107.003 217.277 108.13C218.109 109.35 219.126 110.207 220.249 111.151C221.054 111.875 221.707 112.702 222.364 113.559C222.494 113.728 222.624 113.897 222.757 114.07C229.535 123.025 232.745 133.221 234.793 144.159C235.653 148.723 236.577 152.838 238.923 156.906C239.17 157.349 239.415 157.792 239.66 158.236C240.028 158.902 240.398 159.567 240.771 160.231C244.371 166.647 246.268 173.244 246.229 180.626C246.228 180.837 246.228 181.048 246.227 181.265C246.212 184.384 246.103 187.359 245.273 190.385C245.219 190.587 245.164 190.789 245.109 190.997C241.763 203.092 232.444 212.095 221.831 218.165C220.054 219.165 218.255 220.106 216.412 220.978C218.091 222.244 219.771 223.505 221.48 224.73C224.388 226.842 227.087 229.18 229.688 231.657C229.861 231.821 230.034 231.986 230.212 232.156C234.717 236.477 238.613 241.241 241.232 246.953C245.591 242.574 247.683 237.552 248.773 231.535C249.168 229.436 249.606 227.55 251.226 226.047C252.401 225.274 253.085 225.192 254.509 225.307C257.383 226.119 259.197 228.821 260.624 231.278C265.084 239.295 266.155 248.483 263.744 257.343C263.692 257.538 263.639 257.733 263.585 257.934C261.796 264.343 258.087 269.802 253.643 274.66C253.427 274.897 253.21 275.134 252.988 275.378C245.709 282.982 233.625 289.827 222.953 290.274C222.408 290.264 221.863 290.255 221.318 290.245C221.338 290.509 221.358 290.773 221.379 291.045C221.565 293.623 221.656 296.186 221.665 298.772C221.666 298.961 221.667 299.151 221.668 299.346C221.672 300.348 221.675 301.35 221.676 302.353C221.677 303.166 221.681 303.978 221.688 304.791C221.749 312.563 221.749 312.563 221.241 316.055C221.21 316.273 221.179 316.492 221.147 316.717C220.591 319.957 218.841 323.142 216.292 325.237C210.279 329.333 202.612 330.164 195.541 328.866C190.956 327.76 186.852 325.527 184.303 321.452C182.373 318.007 181.718 314.669 181.778 310.737C181.477 310.787 181.477 310.787 181.17 310.838C180.243 310.992 179.315 311.144 178.387 311.296C178.072 311.349 177.756 311.402 177.432 311.456C173.637 312.073 169.92 312.234 166.083 312.234C165.317 312.234 164.551 312.239 163.785 312.245C158.82 312.261 154.024 311.742 149.164 310.737C149.16 311.02 149.156 311.303 149.152 311.595C149.014 316.333 147.633 320.835 144.348 324.392C139.243 329.124 132.465 329.479 125.88 329.266C123.832 329.143 121.953 328.704 120.014 328.054C119.7 327.949 119.385 327.845 119.061 327.737C115.177 326.28 111.979 323.669 110.22 319.885C108.758 316.176 108.713 312.284 108.72 308.348C108.72 307.988 108.72 307.629 108.719 307.258C108.719 306.499 108.72 305.739 108.721 304.98C108.722 303.848 108.721 302.717 108.719 301.585C108.718 297.841 108.76 294.1 108.885 290.357C108.896 290.025 108.907 289.692 108.918 289.35C109.219 281.218 110.586 273.099 112.222 265.136C112.072 265.194 111.923 265.252 111.769 265.312C106.304 267.424 101.444 268.776 95.7506 266.516C92.3651 264.957 89.6685 262.55 88.1947 259.095C86.5829 254.517 87.4132 250.327 89.3763 246.053C91.8726 240.918 95.5442 236.566 99.5228 232.523C99.8057 232.229 100.088 231.935 100.371 231.641C101.851 230.123 103.385 228.736 105.044 227.417C105.627 226.947 106.198 226.474 106.764 225.985C108.721 224.292 110.732 222.742 112.857 221.266C113.659 220.727 113.659 220.727 114.242 220.112C114.059 220.019 113.876 219.927 113.688 219.831C106.878 216.363 106.878 216.363 104.141 214.34C103.838 214.119 103.535 213.897 103.223 213.669C100.991 212.01 98.9371 210.196 96.9253 208.279C96.6824 208.055 96.4394 207.83 96.1891 207.599C89.2498 200.992 85.3664 192.074 85.011 182.547C84.7862 172.353 88.0354 163.889 93.1306 155.166C95.6829 150.672 96.469 145.556 97.4943 140.555C98.7891 134.275 100.435 128.193 103.563 122.561C103.797 122.121 103.797 122.121 104.036 121.672C105.896 118.303 108.33 115.277 110.815 112.351C110.956 112.184 111.097 112.017 111.243 111.844C111.918 111.062 112.597 110.342 113.39 109.678C114.876 108.476 114.876 108.476 115.477 106.754C115.323 105.747 115.075 104.787 114.819 103.801C113.77 98.3997 112.4 90.4253 115.361 85.4196C116.377 84.3139 117.009 83.9398 118.517 83.742C120.631 83.816 122.658 84.6256 124.632 85.3294C124.908 85.4269 125.183 85.5244 125.467 85.6248C127.483 86.409 129.401 87.4099 131.325 88.3959C131.615 88.5432 131.906 88.6905 132.206 88.8422C133.566 89.5496 134.819 90.2557 136 91.2381C138.001 92.9358 138.001 92.9358 140.505 93.3521C142.414 92.9787 144.202 92.3318 146.02 91.6547C147.248 91.2662 148.46 91.1521 149.742 91.1017C149.776 90.8936 149.81 90.6854 149.845 90.471C150.036 89.6345 150.315 88.9735 150.694 88.2054C150.832 87.9271 150.969 87.6488 151.111 87.3621C151.26 87.0663 151.41 86.7706 151.564 86.4658C151.719 86.1585 151.873 85.8512 152.033 85.5346C162.696 64.657 162.696 64.657 169.371 67.0678ZM154.202 96.5624C152.769 97.1927 151.225 97.5241 149.714 97.9222C141.667 100.06 134.1 103.382 127.23 108.13C127.065 108.242 126.901 108.354 126.731 108.47C124.323 110.117 122.059 111.894 119.864 113.817C119.466 114.166 119.064 114.512 118.663 114.857C115.378 117.732 112.835 120.924 110.49 124.581C110.382 124.749 110.274 124.916 110.163 125.089C106.496 130.885 104.97 137.374 103.571 144.004C103.522 144.239 103.472 144.473 103.42 144.715C103.173 145.884 102.928 147.053 102.691 148.224C101.94 151.868 100.797 155.167 98.9997 158.439C98.7458 158.913 98.4921 159.387 98.2387 159.862C98.0521 160.209 98.0521 160.209 97.8618 160.564C93.235 169.207 89.6224 178.832 92.5228 188.709C92.6411 189.076 92.7617 189.442 92.8847 189.808C92.945 189.991 93.0054 190.174 93.0675 190.362C96.6365 200.866 105.751 208.28 115.405 213.086C118.285 214.466 121.267 215.575 124.267 216.665C127.695 217.924 127.695 217.924 128.384 218.958C128.276 220.022 128.276 220.022 128.096 220.978C127.842 221.057 127.589 221.136 127.328 221.218C116.698 224.938 106.468 233.429 99.8115 242.335C99.6852 242.502 99.559 242.668 99.429 242.84C98.0175 244.707 96.7383 246.605 95.6266 248.667C95.5324 248.841 95.4382 249.015 95.3411 249.194C94.1613 251.463 93.5867 253.778 94.2072 256.293C94.9838 258.35 96.5008 259.866 98.4563 260.854C101.511 261.985 104.44 261.226 107.345 259.966C108.629 259.368 109.861 258.7 111.076 257.972C111.589 257.665 112.111 257.374 112.634 257.085C115.782 254.991 116.409 251.487 117.45 248.04C117.893 246.659 118.219 245.745 119.437 244.933C120.696 244.77 121.255 244.791 122.305 245.528C123.06 246.603 122.987 247.098 122.901 248.396C122.729 249.182 122.542 249.936 122.32 250.706C122.26 250.923 122.2 251.14 122.138 251.363C122.009 251.825 121.88 252.287 121.75 252.748C121.408 253.96 121.078 255.175 120.746 256.39C120.681 256.627 120.616 256.865 120.549 257.11C117.958 266.59 116.572 276.483 115.649 286.259C115.616 286.603 115.616 286.603 115.583 286.953C115.142 291.959 115.054 296.97 115.055 301.992C115.054 303.019 115.049 304.046 115.043 305.073C114.723 312.939 114.723 312.939 117.783 319.875C121.12 322.458 124.851 322.674 128.907 322.678C129.276 322.686 129.644 322.693 130.024 322.7C133.507 322.711 136.971 322.078 139.64 319.684C142.514 316.675 142.679 311.824 143.067 307.898C143.355 305.19 143.355 305.19 144.258 304.099C146.226 303.115 149.118 304.085 151.149 304.496C161.485 306.477 172.421 306.565 182.678 303.943C183.805 303.668 184.96 303.671 186.107 303.81C187.076 304.472 187.327 305.004 187.55 306.119C187.601 306.62 187.641 307.123 187.674 307.625C188.025 314.484 188.025 314.484 191.681 320.063C194.754 322.496 198.464 322.671 202.233 322.66C202.577 322.665 202.92 322.67 203.274 322.675C207.076 322.677 210.255 322.032 213.038 319.323C215.578 315.185 215.346 310.436 215.311 305.758C215.308 305.183 215.306 304.608 215.303 304.033C215.294 302.419 215.277 300.806 215.257 299.192C215.253 298.829 215.249 298.465 215.245 298.09C215.013 282.545 212.521 266.597 208.457 251.61C207.955 249.716 207.571 248.049 207.753 246.087C208.488 245.202 208.933 244.977 210.062 244.789C211.164 244.972 211.574 245.308 212.371 246.087C212.762 247.021 212.762 247.021 213.064 248.119C213.182 248.522 213.301 248.925 213.421 249.327C213.482 249.535 213.543 249.743 213.605 249.958C214.834 254.404 214.834 254.404 218.024 257.505C218.536 257.758 219.061 257.984 219.586 258.209C219.94 258.397 220.291 258.589 220.64 258.784C223.86 260.554 227.161 261.803 230.851 260.876C232.923 260.171 234.285 259.428 235.406 257.506C236.526 255.08 236.333 252.728 235.442 250.254C233.365 245.42 230.124 241.481 226.513 237.718C226.344 237.539 226.175 237.361 226.001 237.177C220.22 231.099 213.48 226.823 206.07 222.995C205.735 222.82 205.4 222.645 205.055 222.465C204.604 222.233 204.604 222.233 204.144 221.996C203.424 221.555 203.424 221.555 202.847 220.689C202.738 219.824 202.738 219.824 202.847 218.958C203.854 217.907 205.26 217.685 206.617 217.316C218.892 213.789 230.23 206.11 236.539 194.829C237.588 192.856 238.314 190.798 238.923 188.653C239.021 188.311 239.119 187.969 239.22 187.616C241.655 177.472 237.691 167.954 232.665 159.323C232.538 159.102 232.411 158.881 232.28 158.653C232.044 158.245 231.805 157.839 231.56 157.437C229.087 153.166 228.518 148.012 227.674 143.236C225.852 132.994 222.272 124.056 214.969 116.5C214.737 116.254 214.506 116.008 214.268 115.755C212.353 113.764 210.252 112.085 208.042 110.439C207.763 110.23 207.763 110.23 207.479 110.017C199.225 103.873 189.973 99.6404 179.944 97.3308C178.397 96.9612 178.397 96.9612 177.905 96.4389C176.971 95.5568 175.484 95.6544 174.256 95.5211C173.767 95.4666 173.767 95.4666 173.267 95.411C170.452 95.1309 167.65 95.0566 164.822 95.0521C164.618 95.0511 164.413 95.0501 164.203 95.049C159.051 95.0275 159.051 95.0275 154.202 96.5624Z" fill="black"/>
<path d="M179.204 235.155C179.892 235.701 180.548 236.265 181.2 236.852C181.483 237.077 181.765 237.303 182.056 237.535C184.725 239.755 186.547 243.05 188.127 246.088C188.223 246.269 188.319 246.45 188.418 246.637C191.579 252.685 193.35 259.474 193.611 266.291C193.62 266.486 193.63 266.681 193.639 266.883C194.004 275.182 191.811 282.794 186.322 289.135C182.469 293.131 177.581 295.3 172.253 296.595C171.835 296.702 171.835 296.702 171.408 296.81C163.995 298.368 155.555 296.847 149.164 292.843C148.145 292.13 147.205 291.363 146.278 290.534C146.038 290.321 145.797 290.108 145.55 289.888C140.298 284.951 137.531 277.557 137.248 270.432C136.995 259.063 140.626 246.797 148.519 238.373C156.767 229.996 169.392 228.403 179.204 235.155Z" fill="#F2D3A3"/>
<path d="M179.204 235.155C179.892 235.701 180.548 236.265 181.2 236.852C181.483 237.077 181.765 237.303 182.056 237.535C184.725 239.755 186.547 243.05 188.127 246.088C188.223 246.269 188.319 246.45 188.418 246.637C191.579 252.685 193.35 259.474 193.611 266.291C193.62 266.486 193.63 266.681 193.639 266.883C194.004 275.182 191.811 282.794 186.322 289.135C182.469 293.131 177.581 295.3 172.253 296.595C171.835 296.702 171.835 296.702 171.408 296.81C163.995 298.368 155.555 296.847 149.164 292.843C148.145 292.13 147.205 291.363 146.278 290.534C146.038 290.321 145.797 290.108 145.55 289.888C140.298 284.951 137.531 277.557 137.248 270.432C136.995 259.063 140.626 246.797 148.519 238.373C156.767 229.996 169.392 228.403 179.204 235.155ZM152.159 244.103C145.984 252.043 143.084 262.467 144.033 272.45C144.71 277.531 146.983 282.589 150.986 285.889C156.622 290.008 163.554 291.418 170.422 290.357C175.422 289.396 180.169 286.801 183.256 282.704C187.45 276.296 187.907 268.244 186.513 260.857C186.388 260.26 186.251 259.668 186.107 259.075C186.059 258.875 186.011 258.674 185.961 258.467C184.483 252.494 181.819 246.729 177.448 242.336C177.278 242.156 177.108 241.976 176.933 241.79C173.683 238.618 169.322 237.319 164.899 237.321C159.769 237.454 155.421 240.284 152.159 244.103Z" fill="black"/>
<path d="M254.797 234.543C254.988 234.543 255.178 234.543 255.374 234.543C255.703 235.444 256.026 236.346 256.349 237.249C256.44 237.5 256.532 237.751 256.626 238.01C259.188 245.216 258.608 253.505 255.41 260.422C254.955 261.343 254.456 262.233 253.931 263.116C253.75 263.423 253.569 263.73 253.382 264.046C247.261 273.748 236.462 280.241 225.461 282.82C225.142 282.89 224.822 282.959 224.493 283.03C224.143 283.116 224.143 283.116 223.786 283.204C222.763 283.364 221.776 283.336 220.741 283.319C220.112 279.984 219.616 276.638 219.151 273.276C218.843 271.086 218.476 268.931 217.975 266.778C217.857 266.015 217.889 265.567 218.143 264.847C218.35 264.942 218.556 265.036 218.769 265.133C221.995 266.547 224.927 267.228 228.443 267.265C228.693 267.269 228.944 267.273 229.201 267.277C233.157 267.248 236.339 265.54 239.201 262.885C241.049 260.892 242.121 258.422 242.549 255.756C243.103 254.407 243.971 253.766 245.067 252.831C250.386 248.2 253.762 241.463 254.797 234.543Z" fill="#3A9592"/>
<path d="M123.117 163.039C126.261 165.155 128.089 168.236 128.961 171.914C129.345 176.217 128.451 179.702 125.786 183.17C123.89 185.347 120.585 187.288 117.676 187.555C113.701 187.697 110.589 187.414 107.315 184.901C107.082 184.746 107.082 184.746 106.845 184.587C105.585 183.66 104.823 182.51 104.05 181.168C103.953 180.999 103.855 180.83 103.755 180.656C102.089 177.629 101.932 174.031 102.597 170.674C103.922 166.739 106.318 163.983 109.985 162.137C114.403 159.986 118.974 160.589 123.117 163.039Z" fill="#F4A99C"/>
<path d="M223.519 163.342C226.274 165.313 228.121 168.219 229.025 171.494C229.531 175.679 228.818 179.478 226.225 182.881C223.817 185.53 220.722 187.255 217.121 187.596C213.427 187.636 210.701 186.834 207.753 184.613C207.378 184.363 207.378 184.363 206.996 184.108C204.517 181.76 203.082 178.575 202.778 175.188C202.676 171.268 203.993 167.656 206.671 164.771C207.862 163.658 209.194 162.844 210.639 162.101C210.831 162.002 211.022 161.903 211.219 161.801C215.136 160.158 220.077 161.121 223.519 163.342Z" fill="#F4A99C"/>
<path d="M138.197 183.458C139.146 184.207 139.765 185.237 140.437 186.227C144.528 192.135 151.253 194.878 158.112 196.157C167.452 197.767 178.228 196.912 186.223 191.463C187.078 190.842 187.896 190.198 188.705 189.519C188.896 189.36 189.088 189.201 189.285 189.038C190.686 187.763 191.564 186.186 192.487 184.553C193.03 183.753 193.286 183.463 194.188 183.17C195.172 183.065 195.781 183.111 196.696 183.494C197.557 184.192 197.872 184.715 198.229 185.767C198.279 188.778 196.295 191.028 194.323 193.126C186.983 200.582 176.997 203.557 166.68 203.715C155.58 203.679 145.423 200.789 137.259 193.018C135.298 191.02 133.45 188.697 133.477 185.787C133.662 184.71 134.242 184.202 135.023 183.458C136.147 183.083 137.082 183.087 138.197 183.458Z" fill="black"/>
<path d="M167.635 75.5166C171.497 77.3172 173.651 84.8922 175.011 88.6119C175.892 91.0546 176.774 93.4991 177.448 96.0082C175.927 96.0351 174.52 95.94 173.011 95.7196C170.347 95.3836 167.682 95.3653 165.002 95.3588C164.796 95.3574 164.59 95.3559 164.378 95.3545C161.38 95.3373 158.479 95.5708 155.514 96.0082C155.742 94.7288 156.185 93.6765 156.776 92.5268C156.878 92.3269 156.98 92.127 157.085 91.921C157.424 91.2614 157.767 90.6042 158.111 89.9473C158.228 89.7225 158.345 89.4977 158.466 89.2661C159.965 86.4045 161.578 83.6413 163.36 80.9462C163.521 80.7013 163.682 80.4564 163.848 80.2041C164.984 78.5178 166.251 77.0048 167.635 75.5166Z" fill="#3A9592"/>
<path d="M212.371 92.5449C212.519 95.1832 212.308 97.6315 211.83 100.229C211.78 100.503 211.73 100.776 211.678 101.058C211.435 102.316 211.187 103.498 210.64 104.667C208.633 103.407 206.653 102.115 204.692 100.786C203.527 100.002 202.341 99.2895 201.115 98.6058C202.116 97.4776 203.27 96.7903 204.561 96.0444C204.885 95.8552 204.885 95.8552 205.216 95.6623C210.641 92.5449 210.641 92.5449 212.371 92.5449Z" fill="#3A9592"/>
<path d="M121.169 91.9673C122.934 92.5032 124.544 93.1637 126.165 94.0417C126.48 94.2099 126.48 94.2099 126.801 94.3815C128.658 95.3901 130.41 96.5192 132.136 97.7396C131.005 98.7078 129.831 99.4021 128.528 100.103C126.603 101.157 124.814 102.323 123.038 103.612C122.323 104.089 122.323 104.089 121.746 104.089C120.992 100.07 121.111 96.0407 121.169 91.9673Z" fill="#3A9592"/>
<path d="M152.916 170.182C154.535 170.924 155.802 171.898 156.498 173.564C156.83 174.848 156.877 176.089 156.668 177.397C156.148 178.264 155.83 178.682 154.937 179.129C153.472 179.369 152.337 179.269 151.094 178.426C149.738 177.275 149.072 175.922 148.767 174.181C148.678 172.718 149.111 171.863 150.03 170.759C151.14 170.02 151.595 170.012 152.916 170.182Z" fill="black"/>
<path d="M181.489 170.182C182.334 170.706 183.058 171.299 183.509 172.202C183.737 174.137 183.637 175.608 182.48 177.208C181.332 178.533 180.388 179.078 178.639 179.219C177.699 179.209 177.443 179.125 176.601 178.606C175.626 177.572 175.616 176.561 175.638 175.205C175.859 173.257 176.931 172.001 178.405 170.796C179.404 170.126 180.32 170.044 181.489 170.182Z" fill="black"/>
<path d="M126.143 153.014C126.3 153.008 126.3 153.008 126.46 153.003C127.114 153.094 127.518 153.55 127.961 154.051C128.059 154.159 128.156 154.268 128.256 154.379C128.451 154.601 128.646 154.823 128.84 155.045C131.1 157.39 134.172 158.035 137.187 157.956C139.983 157.833 142.771 156.641 144.675 154.384C144.804 154.228 144.932 154.069 145.059 153.91C145.472 153.392 145.744 153.092 146.372 153.002C147.127 152.99 147.719 153.014 148.293 153.592C148.729 154.118 148.955 154.631 149 155.343C148.922 156.771 147.842 157.972 146.925 158.896C145.137 160.576 143.082 161.591 140.832 162.296C140.7 162.339 140.7 162.339 140.567 162.383C136.625 163.644 132.057 162.9 128.474 160.809C126.927 159.866 124.609 158.106 124.044 156.176C123.937 155.2 123.996 154.517 124.542 153.728C125.056 153.206 125.447 153.027 126.143 153.014Z" fill="black"/>
<path d="M187.187 154.014C187.303 154.009 187.418 154.005 187.537 154C188.326 154.115 188.796 154.686 189.29 155.263C191.037 157.225 193.711 158.271 196.309 158.495C199.364 158.654 202.592 158.121 204.952 156.035C205.345 155.661 205.713 155.275 206.065 154.862C206.438 154.428 206.729 154.104 207.321 154.014C208.03 153.975 208.608 154.106 209.173 154.546C209.628 155.039 209.884 155.48 210 156.143C209.883 157.429 208.909 158.495 207.969 159.295C204.344 162.251 199.808 163.361 195.176 162.899C194.468 162.797 193.781 162.638 193.093 162.444C192.969 162.411 192.969 162.411 192.843 162.376C189.994 161.584 187.048 159.863 185.377 157.377C185.065 156.819 184.911 156.291 185.054 155.657C185.476 154.712 186.122 154.042 187.187 154.014Z" fill="black"/>
<path d="M205.467 109.003C205.602 109.002 205.602 109.002 205.741 109.001C205.84 109.001 205.938 109 206.04 109C206.146 109 206.251 108.999 206.356 108.998C206.643 108.996 206.929 108.995 207.215 108.994C207.394 108.994 207.572 108.993 207.751 108.993C208.311 108.991 208.872 108.989 209.432 108.989C210.077 108.988 210.723 108.985 211.369 108.981C211.869 108.978 212.368 108.976 212.868 108.976C213.166 108.976 213.464 108.975 213.763 108.972C214.043 108.97 214.324 108.969 214.605 108.971C214.756 108.971 214.908 108.969 215.059 108.967C215.577 108.972 215.909 109.01 216.303 109.36C216.901 109.975 216.975 110.498 216.979 111.33C216.98 111.422 216.981 111.514 216.982 111.609C216.984 111.803 216.984 111.998 216.985 112.192C216.986 112.488 216.991 112.783 216.996 113.079C216.997 113.269 216.998 113.458 216.998 113.648C217 113.735 217.002 113.823 217.004 113.913C216.999 114.563 216.811 114.958 216.414 115.468C216.362 115.536 216.362 115.536 216.308 115.606C216.216 115.72 216.118 115.831 216.021 115.941C215.949 116.024 215.878 116.106 215.807 116.189C215.771 116.231 215.735 116.272 215.698 116.315C215.484 116.567 215.283 116.829 215.08 117.089C214.867 117.363 214.652 117.634 214.434 117.904C213.78 118.716 213.155 119.549 212.546 120.395C212.515 120.438 212.484 120.481 212.452 120.525C212.305 120.731 212.179 120.935 212.069 121.163C212.135 121.161 212.202 121.158 212.271 121.156C212.867 121.136 213.463 121.118 214.06 121.101C214.384 121.093 214.708 121.082 215.032 121.07C215.168 121.066 215.304 121.063 215.44 121.06C215.5 121.057 215.56 121.054 215.621 121.051C216.084 121.044 216.412 121.198 216.789 121.463C217.11 121.791 217.257 122.123 217.259 122.582C217.26 122.653 217.261 122.725 217.261 122.799C217.261 122.913 217.261 122.913 217.261 123.03C217.262 123.11 217.262 123.19 217.262 123.272C217.263 123.44 217.263 123.608 217.262 123.776C217.262 124.032 217.264 124.288 217.266 124.544C217.266 124.708 217.266 124.871 217.266 125.035C217.267 125.111 217.267 125.187 217.268 125.265C217.265 125.77 217.224 126.23 216.888 126.634C216.844 126.668 216.801 126.701 216.756 126.736C216.713 126.77 216.67 126.805 216.625 126.84C216.322 127.045 216.112 127.101 215.742 127.102C215.605 127.103 215.605 127.103 215.465 127.104C215.364 127.104 215.262 127.104 215.161 127.104C215.054 127.104 214.947 127.105 214.84 127.105C214.55 127.107 214.26 127.107 213.97 127.107C213.789 127.107 213.607 127.108 213.426 127.108C212.793 127.109 212.159 127.11 211.526 127.11C210.937 127.11 210.347 127.111 209.757 127.114C209.251 127.116 208.744 127.117 208.237 127.116C207.935 127.116 207.633 127.117 207.33 127.118C207.046 127.12 206.761 127.12 206.476 127.119C206.372 127.119 206.268 127.119 206.164 127.12C205.511 127.125 204.991 127.112 204.499 126.635C204.449 126.562 204.449 126.562 204.398 126.487C204.363 126.439 204.329 126.39 204.293 126.34C204.12 126.044 204.033 125.786 204.027 125.443C204.025 125.337 204.025 125.337 204.023 125.229C204.022 125.154 204.021 125.078 204.021 125C204.02 124.882 204.02 124.882 204.018 124.761C204.017 124.595 204.016 124.428 204.015 124.261C204.014 124.008 204.009 123.755 204.004 123.503C203.989 121.934 203.989 121.934 204.501 121.238C204.544 121.175 204.587 121.113 204.631 121.049C204.766 120.859 204.908 120.676 205.053 120.493C205.16 120.356 205.266 120.219 205.373 120.082C205.427 120.013 205.481 119.944 205.537 119.873C205.798 119.538 206.056 119.201 206.313 118.863C206.363 118.798 206.413 118.733 206.464 118.666C206.826 118.191 207.176 117.709 207.522 117.223C207.832 116.791 208.159 116.374 208.495 115.962C208.69 115.728 208.69 115.728 208.847 115.468C208.805 115.468 208.764 115.468 208.721 115.468C208.286 115.466 207.85 115.462 207.415 115.457C207.253 115.455 207.091 115.454 206.929 115.454C206.695 115.453 206.461 115.45 206.227 115.446C206.156 115.447 206.084 115.447 206.01 115.447C205.438 115.435 204.913 115.29 204.505 114.867C204.055 114.311 204.027 113.768 204.026 113.076C204.026 112.989 204.025 112.903 204.025 112.814C204.024 112.632 204.023 112.45 204.023 112.268C204.023 111.99 204.02 111.712 204.018 111.434C204.017 111.257 204.017 111.08 204.017 110.903C204.016 110.82 204.015 110.737 204.013 110.652C204.016 110.166 204.061 109.868 204.351 109.474C204.709 109.143 204.979 109.006 205.467 109.003Z" fill="black"/>
<path d="M214.916 111.122C215.101 113.848 215.101 113.848 214.489 114.55C214.357 114.692 214.222 114.827 214.08 114.959C213.841 115.191 213.642 115.455 213.436 115.716C213.354 115.816 213.273 115.916 213.191 116.015C212.88 116.398 212.586 116.794 212.293 117.191C211.666 118.033 211.037 118.872 210.383 119.693C209.354 120.891 209.354 120.891 208.996 122.361C209.082 122.698 209.237 122.842 209.521 123.036C209.784 123.124 209.995 123.123 210.273 123.126C210.326 123.127 210.38 123.128 210.435 123.128C210.611 123.131 210.788 123.133 210.964 123.134C211.086 123.136 211.209 123.138 211.331 123.139C211.653 123.143 211.975 123.147 212.296 123.151C212.625 123.154 212.953 123.159 213.282 123.163C213.926 123.171 214.571 123.178 215.215 123.186C215.215 123.779 215.215 124.373 215.215 124.984C212.174 124.984 209.133 124.984 205.999 124.984C205.999 122.251 205.999 122.251 206.759 121.449C206.808 121.402 206.857 121.354 206.908 121.305C207.128 121.082 207.306 120.831 207.488 120.577C207.561 120.479 207.635 120.38 207.708 120.282C207.746 120.231 207.784 120.18 207.824 120.128C208.06 119.814 208.299 119.503 208.537 119.191C208.97 118.624 209.397 118.054 209.819 117.479C210.102 117.092 210.389 116.708 210.677 116.325C211.504 115.371 211.504 115.371 211.843 114.232C211.789 113.872 211.655 113.694 211.394 113.445C211.142 113.361 210.948 113.358 210.683 113.355C210.634 113.354 210.585 113.353 210.534 113.352C210.373 113.35 210.211 113.348 210.049 113.346C209.937 113.345 209.825 113.343 209.712 113.342C209.417 113.337 209.122 113.334 208.826 113.33C208.525 113.326 208.224 113.322 207.922 113.318C207.331 113.31 206.74 113.302 206.149 113.295C206.149 112.603 206.149 111.91 206.149 111.197C206.837 111.184 207.526 111.171 208.214 111.16C208.266 111.159 208.317 111.158 208.371 111.157C210.552 111.12 212.733 111.113 214.916 111.122Z" fill="#AADCE7"/>
<path d="M221.496 103.18C221.675 103.178 221.675 103.178 221.857 103.177C221.988 103.176 222.118 103.176 222.252 103.176C222.391 103.175 222.531 103.174 222.67 103.173C223.047 103.17 223.424 103.169 223.802 103.168C224.038 103.168 224.274 103.167 224.51 103.166C225.249 103.163 225.988 103.161 226.727 103.161C227.579 103.16 228.431 103.156 229.283 103.151C229.942 103.146 230.602 103.144 231.261 103.144C231.654 103.144 232.048 103.143 232.441 103.139C232.811 103.136 233.182 103.135 233.552 103.137C233.752 103.137 233.952 103.135 234.152 103.132C234.835 103.138 235.273 103.189 235.793 103.65C236.581 104.461 236.679 105.152 236.685 106.249C236.686 106.371 236.688 106.492 236.689 106.618C236.691 106.874 236.692 107.131 236.692 107.387C236.694 107.777 236.7 108.167 236.707 108.557C236.708 108.808 236.709 109.058 236.71 109.308C236.713 109.423 236.715 109.539 236.718 109.658C236.711 110.516 236.463 111.037 235.94 111.71C235.87 111.8 235.87 111.8 235.8 111.891C235.678 112.042 235.549 112.188 235.421 112.334C235.326 112.443 235.232 112.552 235.138 112.661C235.09 112.716 235.043 112.771 234.994 112.827C234.713 113.16 234.447 113.505 234.18 113.848C233.898 114.209 233.614 114.567 233.327 114.923C232.463 115.994 231.64 117.093 230.836 118.21C230.795 118.266 230.754 118.323 230.712 118.381C230.518 118.654 230.351 118.922 230.206 119.223C230.294 119.22 230.382 119.217 230.473 119.214C231.259 119.188 232.046 119.163 232.833 119.142C233.261 119.13 233.688 119.116 234.116 119.1C234.296 119.096 234.475 119.091 234.655 119.087C234.734 119.083 234.812 119.08 234.893 119.076C235.504 119.067 235.937 119.27 236.434 119.618C236.857 120.052 237.051 120.49 237.055 121.095C237.055 121.19 237.056 121.284 237.057 121.381C237.057 121.533 237.057 121.533 237.057 121.687C237.058 121.792 237.058 121.897 237.058 122.005C237.059 122.227 237.059 122.449 237.059 122.671C237.058 123.008 237.061 123.346 237.063 123.684C237.063 123.9 237.063 124.116 237.063 124.332C237.064 124.432 237.065 124.532 237.066 124.636C237.062 125.302 237.008 125.909 236.564 126.442C236.507 126.486 236.45 126.53 236.391 126.576C236.334 126.621 236.277 126.667 236.218 126.714C235.818 126.984 235.54 127.058 235.053 127.059C234.872 127.061 234.872 127.061 234.687 127.062C234.553 127.062 234.42 127.062 234.286 127.062C234.145 127.062 234.004 127.063 233.863 127.064C233.48 127.065 233.098 127.066 232.715 127.066C232.475 127.066 232.236 127.067 231.997 127.067C231.161 127.069 230.326 127.07 229.49 127.07C228.712 127.069 227.935 127.072 227.157 127.075C226.488 127.077 225.82 127.078 225.151 127.078C224.752 127.078 224.353 127.079 223.954 127.081C223.579 127.083 223.203 127.083 222.828 127.081C222.69 127.081 222.553 127.082 222.416 127.083C221.554 127.09 220.867 127.073 220.219 126.443C220.153 126.347 220.153 126.347 220.085 126.248C220.04 126.184 219.994 126.12 219.947 126.054C219.719 125.663 219.604 125.323 219.596 124.87C219.593 124.731 219.593 124.731 219.591 124.588C219.59 124.488 219.589 124.389 219.588 124.286C219.586 124.13 219.586 124.13 219.585 123.971C219.583 123.751 219.581 123.531 219.581 123.311C219.579 122.977 219.573 122.644 219.566 122.31C219.545 120.241 219.545 120.241 220.221 119.322C220.278 119.24 220.335 119.157 220.393 119.072C220.572 118.822 220.759 118.581 220.95 118.339C221.091 118.159 221.231 117.978 221.372 117.797C221.443 117.706 221.515 117.615 221.588 117.521C221.933 117.08 222.273 116.635 222.612 116.189C222.678 116.103 222.744 116.017 222.811 115.929C223.288 115.302 223.75 114.666 224.208 114.025C224.617 113.455 225.047 112.905 225.491 112.361C225.748 112.052 225.748 112.052 225.955 111.71C225.9 111.71 225.846 111.709 225.789 111.709C225.215 111.707 224.641 111.702 224.067 111.695C223.853 111.692 223.639 111.691 223.425 111.69C223.116 111.689 222.808 111.685 222.499 111.681C222.405 111.681 222.31 111.682 222.213 111.682C221.457 111.666 220.765 111.475 220.226 110.917C219.633 110.183 219.597 109.467 219.595 108.553C219.594 108.439 219.594 108.325 219.593 108.208C219.592 107.968 219.591 107.727 219.592 107.487C219.591 107.121 219.587 106.754 219.584 106.387C219.583 106.154 219.583 105.92 219.583 105.686C219.581 105.577 219.58 105.468 219.578 105.355C219.582 104.715 219.641 104.321 220.024 103.801C220.496 103.364 220.853 103.184 221.496 103.18Z" fill="black"/>
<path d="M233.962 105.976C234.207 109.572 234.207 109.572 233.4 110.499C233.226 110.686 233.048 110.864 232.86 111.038C232.545 111.344 232.282 111.692 232.01 112.037C231.903 112.169 231.795 112.3 231.688 112.431C231.277 112.937 230.889 113.459 230.502 113.983C229.675 115.093 228.845 116.201 227.983 117.284C226.625 118.865 226.625 118.865 226.153 120.805C226.266 121.248 226.47 121.439 226.845 121.694C227.192 121.81 227.471 121.809 227.837 121.814C227.908 121.815 227.978 121.816 228.051 121.817C228.283 121.82 228.516 121.822 228.749 121.825C228.91 121.827 229.072 121.829 229.233 121.831C229.658 121.836 230.082 121.841 230.507 121.846C230.94 121.851 231.374 121.856 231.807 121.862C232.657 121.872 233.508 121.882 234.358 121.892C234.358 122.675 234.358 123.458 234.358 124.265C230.345 124.265 226.333 124.265 222.198 124.265C222.198 120.659 222.198 120.659 223.202 119.601C223.266 119.539 223.331 119.476 223.397 119.411C223.688 119.116 223.922 118.786 224.163 118.451C224.26 118.321 224.356 118.191 224.453 118.061C224.504 117.994 224.554 117.927 224.606 117.858C224.917 117.444 225.232 117.033 225.547 116.622C226.118 115.874 226.681 115.121 227.238 114.362C227.612 113.852 227.99 113.345 228.371 112.84C229.462 111.582 229.462 111.582 229.909 110.078C229.837 109.604 229.661 109.369 229.316 109.04C228.984 108.93 228.728 108.926 228.378 108.921C228.313 108.92 228.249 108.919 228.182 108.918C227.969 108.915 227.755 108.913 227.542 108.91C227.394 108.908 227.246 108.906 227.097 108.904C226.708 108.899 226.318 108.894 225.929 108.889C225.531 108.884 225.134 108.879 224.736 108.873C223.956 108.862 223.176 108.852 222.396 108.843C222.396 107.929 222.396 107.016 222.396 106.075C223.304 106.058 224.212 106.041 225.121 106.025C225.189 106.024 225.257 106.023 225.327 106.022C228.206 105.972 231.083 105.964 233.962 105.976Z" fill="#AADCE7"/>
<path d="M242.24 96.0643C242.478 96.062 242.478 96.062 242.721 96.0597C242.895 96.0594 243.069 96.0592 243.248 96.0589C243.434 96.0576 243.619 96.0563 243.804 96.0549C244.308 96.0514 244.811 96.0497 245.314 96.0486C245.629 96.0478 245.944 96.0467 246.258 96.0455C247.244 96.0419 248.229 96.0394 249.214 96.0384C250.351 96.0372 251.487 96.0325 252.623 96.0249C253.502 96.0192 254.381 96.0165 255.26 96.0162C255.784 96.0159 256.309 96.0144 256.833 96.0097C257.327 96.0053 257.821 96.0047 258.315 96.0071C258.581 96.0074 258.848 96.0037 259.114 96C260.025 96.0083 260.609 96.0757 261.303 96.6911C262.354 97.7729 262.484 98.6938 262.492 100.157C262.494 100.319 262.495 100.481 262.497 100.648C262.5 100.99 262.501 101.332 262.502 101.674C262.503 102.194 262.512 102.714 262.521 103.234C262.523 103.568 262.524 103.901 262.525 104.235C262.529 104.389 262.532 104.542 262.536 104.701C262.526 105.846 262.196 106.54 261.498 107.437C261.406 107.557 261.406 107.557 261.311 107.679C261.149 107.881 260.978 108.075 260.806 108.269C260.68 108.414 260.554 108.56 260.429 108.705C260.366 108.779 260.303 108.852 260.238 108.927C259.862 109.371 259.508 109.83 259.151 110.289C258.776 110.77 258.397 111.247 258.014 111.722C256.863 113.15 255.765 114.615 254.694 116.104C254.639 116.179 254.584 116.255 254.528 116.332C254.269 116.696 254.047 117.054 253.853 117.455C253.971 117.451 254.088 117.447 254.209 117.443C255.258 117.408 256.307 117.375 257.356 117.347C257.926 117.331 258.496 117.312 259.067 117.291C259.306 117.285 259.545 117.279 259.785 117.274C259.89 117.269 259.995 117.264 260.103 117.258C260.918 117.247 261.494 117.517 262.157 117.982C262.721 118.56 262.98 119.144 262.984 119.951C262.986 120.077 262.987 120.203 262.988 120.333C262.988 120.535 262.988 120.535 262.988 120.74C262.988 120.88 262.989 121.02 262.99 121.164C262.99 121.46 262.99 121.756 262.99 122.052C262.989 122.502 262.993 122.952 262.996 123.403C262.996 123.691 262.996 123.979 262.996 124.266C262.997 124.4 262.999 124.534 263 124.672C262.994 125.56 262.922 126.369 262.331 127.08C262.255 127.139 262.178 127.198 262.1 127.258C262.024 127.319 261.948 127.38 261.87 127.443C261.336 127.803 260.966 127.901 260.316 127.903C260.074 127.905 260.074 127.905 259.828 127.907C259.65 127.907 259.471 127.907 259.293 127.906C259.105 127.907 258.917 127.908 258.729 127.909C258.219 127.911 257.709 127.912 257.198 127.912C256.879 127.912 256.56 127.913 256.241 127.914C255.127 127.916 254.013 127.917 252.899 127.917C251.862 127.917 250.825 127.92 249.787 127.924C248.896 127.927 248.005 127.929 247.114 127.928C246.582 127.928 246.05 127.929 245.518 127.932C245.017 127.934 244.516 127.934 244.016 127.933C243.832 127.932 243.649 127.933 243.466 127.934C242.317 127.944 241.402 127.921 240.537 127.082C240.449 126.953 240.449 126.953 240.359 126.822C240.298 126.736 240.237 126.651 240.175 126.563C239.87 126.042 239.717 125.589 239.707 124.985C239.703 124.798 239.703 124.798 239.699 124.608C239.698 124.476 239.697 124.343 239.696 124.206C239.694 123.998 239.694 123.998 239.691 123.785C239.689 123.492 239.687 123.198 239.686 122.905C239.683 122.46 239.675 122.016 239.667 121.571C239.639 118.812 239.639 118.812 240.54 117.587C240.616 117.477 240.691 117.367 240.769 117.254C241.007 116.92 241.257 116.598 241.512 116.277C241.7 116.036 241.887 115.795 242.074 115.554C242.169 115.432 242.264 115.311 242.363 115.186C242.822 114.597 243.276 114.004 243.728 113.41C243.816 113.295 243.903 113.181 243.994 113.063C244.63 112.228 245.245 111.379 245.855 110.524C246.401 109.764 246.975 109.031 247.567 108.306C247.909 107.894 247.909 107.894 248.185 107.437C248.112 107.437 248.039 107.437 247.964 107.437C247.198 107.434 246.433 107.427 245.667 107.417C245.382 107.414 245.097 107.412 244.812 107.411C244.4 107.41 243.989 107.405 243.577 107.399C243.451 107.399 243.325 107.4 243.196 107.4C242.188 107.379 241.265 107.124 240.547 106.38C239.755 105.401 239.707 104.447 239.705 103.228C239.704 103.076 239.703 102.924 239.702 102.768C239.701 102.448 239.7 102.127 239.7 101.807C239.7 101.318 239.695 100.83 239.69 100.341C239.689 100.029 239.689 99.7172 239.689 99.4054C239.687 99.2598 239.685 99.1143 239.683 98.9643C239.688 98.1104 239.766 97.5857 240.277 96.8922C240.906 96.3095 241.382 96.0692 242.24 96.0643Z" fill="black"/>
<path d="M258.862 99.7918C259.188 104.587 259.188 104.587 258.113 105.822C257.88 106.072 257.643 106.309 257.393 106.541C256.972 106.949 256.622 107.414 256.259 107.874C256.116 108.049 255.973 108.224 255.829 108.399C255.281 109.073 254.765 109.77 254.249 110.469C253.146 111.948 252.039 113.426 250.889 114.869C249.079 116.977 249.079 116.977 248.449 119.564C248.601 120.155 248.873 120.409 249.372 120.75C249.835 120.904 250.207 120.903 250.696 120.909C250.789 120.91 250.883 120.911 250.98 120.913C251.29 120.917 251.601 120.92 251.911 120.924C252.126 120.926 252.341 120.929 252.556 120.932C253.123 120.939 253.689 120.946 254.255 120.952C254.833 120.959 255.411 120.966 255.989 120.973C257.122 120.987 258.256 121.001 259.39 121.014C259.39 122.058 259.39 123.102 259.39 124.177C254.039 124.177 248.689 124.177 243.177 124.177C243.177 119.369 243.177 119.369 244.514 117.959C244.601 117.875 244.687 117.792 244.775 117.705C245.163 117.312 245.475 116.872 245.797 116.425C245.925 116.252 246.054 116.079 246.184 115.906C246.251 115.816 246.318 115.727 246.387 115.635C246.802 115.083 247.222 114.535 247.642 113.986C248.403 112.99 249.154 111.986 249.896 110.974C250.395 110.294 250.899 109.618 251.407 108.945C252.861 107.266 252.861 107.266 253.458 105.262C253.362 104.629 253.127 104.316 252.667 103.878C252.225 103.731 251.883 103.725 251.416 103.719C251.33 103.718 251.244 103.717 251.155 103.715C250.87 103.711 250.586 103.708 250.301 103.705C250.104 103.702 249.906 103.699 249.709 103.696C249.19 103.689 248.67 103.682 248.151 103.676C247.621 103.669 247.09 103.662 246.56 103.655C245.52 103.641 244.48 103.627 243.44 103.614C243.44 102.396 243.44 101.179 243.44 99.9237C244.651 99.9009 245.862 99.8786 247.073 99.8578C247.164 99.8562 247.255 99.8546 247.349 99.853C251.187 99.7874 255.024 99.7764 258.862 99.7918Z" fill="#AADCE7"/>
<path d="M118.643 96.0042C120.263 95.9516 121.797 96.3935 123.042 97.4496C123.074 97.4768 123.074 97.4768 123.107 97.5046C124.108 98.3642 124.73 99.5332 125.038 100.805C125.049 100.853 125.049 100.853 125.061 100.902C125.183 101.434 125.217 101.952 125.21 102.495C125.21 102.554 125.21 102.613 125.209 102.672C125.208 102.814 125.207 102.956 125.205 103.098C125.253 103.08 125.3 103.061 125.349 103.042C126.136 102.742 126.893 102.561 127.742 102.567C127.793 102.568 127.843 102.568 127.896 102.568C128.823 102.579 129.622 102.772 130.453 103.178C130.5 103.201 130.547 103.224 130.595 103.247C131.733 103.832 132.724 104.796 133.298 105.942C133.311 105.969 133.324 105.995 133.338 106.023C133.964 107.284 134.166 108.771 133.858 110.149C133.851 110.18 133.844 110.212 133.837 110.245C133.568 111.413 133.018 112.459 132.176 113.313C132.146 113.344 132.115 113.375 132.084 113.407C131.302 114.154 130.099 114.822 129.011 114.916C129.056 114.973 129.056 114.973 129.102 115.031C129.835 115.971 130.332 117.093 130.493 118.281C130.498 118.313 130.502 118.345 130.507 118.379C130.636 119.519 130.439 120.681 129.973 121.726C129.953 121.772 129.933 121.817 129.912 121.864C129.631 122.462 129.231 122.978 128.771 123.449C128.735 123.487 128.735 123.487 128.699 123.526C127.941 124.331 126.862 124.798 125.806 125.051C125.763 125.062 125.763 125.062 125.718 125.073C125.312 125.168 124.912 125.18 124.496 125.181C124.406 125.181 124.315 125.182 124.224 125.184C123.671 125.188 123.139 125.109 122.609 124.946C122.56 124.931 122.56 124.931 122.509 124.915C121.72 124.663 120.984 124.273 120.358 123.729C120.325 123.7 120.292 123.671 120.258 123.642C120.156 123.552 120.057 123.461 119.958 123.368C119.928 123.341 119.898 123.314 119.868 123.287C119.523 122.959 119.257 122.562 118.996 122.167C118.974 122.203 118.952 122.238 118.93 122.275C118.737 122.587 118.533 122.865 118.275 123.128C118.242 123.162 118.209 123.196 118.175 123.231C118.142 123.263 118.109 123.295 118.075 123.328C118.05 123.354 118.026 123.38 118.001 123.406C116.925 124.525 115.374 125.156 113.833 125.187C113.263 125.194 112.702 125.187 112.146 125.051C112.097 125.04 112.047 125.029 111.996 125.017C110.927 124.756 110.083 124.253 109.262 123.529C109.233 123.504 109.205 123.479 109.176 123.453C108.151 122.491 107.482 120.951 107.412 119.554C107.39 117.797 107.776 116.269 108.941 114.916C108.89 114.914 108.839 114.913 108.786 114.911C107.787 114.807 106.803 114.193 106.057 113.554C106.021 113.523 105.984 113.492 105.947 113.46C105.687 113.232 105.465 112.989 105.256 112.713C105.239 112.691 105.223 112.67 105.206 112.648C104.484 111.696 104.021 110.507 104.003 109.303C104.002 109.272 104.002 109.241 104.001 109.21C103.988 108.235 104.074 107.331 104.454 106.423C104.466 106.396 104.477 106.368 104.489 106.34C104.776 105.654 105.195 105.048 105.696 104.5C105.73 104.463 105.763 104.427 105.798 104.389C106.277 103.886 106.841 103.491 107.459 103.178C107.484 103.165 107.509 103.152 107.536 103.139C109.058 102.373 110.709 102.429 112.299 102.948C112.436 102.995 112.571 103.046 112.707 103.098C112.706 103.058 112.706 103.058 112.705 103.017C112.667 101.133 113.135 99.2953 114.464 97.9006C114.519 97.8436 114.574 97.7868 114.63 97.7301C114.654 97.7036 114.678 97.6771 114.702 97.6498C115.087 97.2344 115.615 96.9474 116.112 96.6885C116.136 96.6756 116.161 96.6628 116.186 96.6495C116.948 96.2585 117.788 96.0366 118.643 96.0042Z" fill="#F4A99C"/>
<path d="M118.643 96.0042C120.263 95.9516 121.797 96.3935 123.042 97.4496C123.074 97.4768 123.074 97.4768 123.107 97.5046C124.108 98.3642 124.73 99.5332 125.038 100.805C125.049 100.853 125.049 100.853 125.061 100.902C125.183 101.434 125.217 101.952 125.21 102.495C125.21 102.554 125.21 102.613 125.209 102.672C125.208 102.814 125.207 102.956 125.205 103.098C125.253 103.08 125.3 103.061 125.349 103.042C126.136 102.742 126.893 102.561 127.742 102.567C127.793 102.568 127.843 102.568 127.896 102.568C128.823 102.579 129.622 102.772 130.453 103.178C130.5 103.201 130.547 103.224 130.595 103.247C131.733 103.832 132.724 104.796 133.298 105.942C133.311 105.969 133.324 105.995 133.338 106.023C133.964 107.284 134.166 108.771 133.858 110.149C133.851 110.18 133.844 110.212 133.837 110.245C133.568 111.413 133.018 112.459 132.176 113.313C132.146 113.344 132.115 113.375 132.084 113.407C131.302 114.154 130.099 114.822 129.011 114.916C129.056 114.973 129.056 114.973 129.102 115.031C129.835 115.971 130.332 117.093 130.493 118.281C130.498 118.313 130.502 118.345 130.507 118.379C130.636 119.519 130.439 120.681 129.973 121.726C129.953 121.772 129.933 121.817 129.912 121.864C129.631 122.462 129.231 122.978 128.771 123.449C128.735 123.487 128.735 123.487 128.699 123.526C127.941 124.331 126.862 124.798 125.806 125.051C125.763 125.062 125.763 125.062 125.718 125.073C125.312 125.168 124.912 125.18 124.496 125.181C124.406 125.181 124.315 125.182 124.224 125.184C123.671 125.188 123.139 125.109 122.609 124.946C122.56 124.931 122.56 124.931 122.509 124.915C121.72 124.663 120.984 124.273 120.358 123.729C120.325 123.7 120.292 123.671 120.258 123.642C120.156 123.552 120.057 123.461 119.958 123.368C119.928 123.341 119.898 123.314 119.868 123.287C119.523 122.959 119.257 122.562 118.996 122.167C118.974 122.203 118.952 122.238 118.93 122.275C118.737 122.587 118.533 122.865 118.275 123.128C118.242 123.162 118.209 123.196 118.175 123.231C118.142 123.263 118.109 123.295 118.075 123.328C118.05 123.354 118.026 123.38 118.001 123.406C116.925 124.525 115.374 125.156 113.833 125.187C113.263 125.194 112.702 125.187 112.146 125.051C112.097 125.04 112.047 125.029 111.996 125.017C110.927 124.756 110.083 124.253 109.262 123.529C109.233 123.504 109.205 123.479 109.176 123.453C108.151 122.491 107.482 120.951 107.412 119.554C107.39 117.797 107.776 116.269 108.941 114.916C108.89 114.914 108.839 114.913 108.786 114.911C107.787 114.807 106.803 114.193 106.057 113.554C106.021 113.523 105.984 113.492 105.947 113.46C105.687 113.232 105.465 112.989 105.256 112.713C105.239 112.691 105.223 112.67 105.206 112.648C104.484 111.696 104.021 110.507 104.003 109.303C104.002 109.272 104.002 109.241 104.001 109.21C103.988 108.235 104.074 107.331 104.454 106.423C104.466 106.396 104.477 106.368 104.489 106.34C104.776 105.654 105.195 105.048 105.696 104.5C105.73 104.463 105.763 104.427 105.798 104.389C106.277 103.886 106.841 103.491 107.459 103.178C107.484 103.165 107.509 103.152 107.536 103.139C109.058 102.373 110.709 102.429 112.299 102.948C112.436 102.995 112.571 103.046 112.707 103.098C112.706 103.058 112.706 103.058 112.705 103.017C112.667 101.133 113.135 99.2953 114.464 97.9006C114.519 97.8436 114.574 97.7868 114.63 97.7301C114.654 97.7036 114.678 97.6771 114.702 97.6498C115.087 97.2344 115.615 96.9474 116.112 96.6885C116.136 96.6756 116.161 96.6628 116.186 96.6495C116.948 96.2585 117.788 96.0366 118.643 96.0042ZM115.711 98.6514C115.661 98.6962 115.661 98.6962 115.611 98.7419C114.725 99.5831 114.155 100.859 114.104 102.082C114.083 103.059 114.224 103.953 114.648 104.842C114.743 105.048 114.785 105.234 114.75 105.462C114.655 105.599 114.548 105.658 114.389 105.702C114.176 105.73 114.054 105.691 113.882 105.574C113.766 105.485 113.656 105.39 113.545 105.294C112.372 104.281 110.93 103.848 109.39 103.949C108.216 104.079 107.214 104.773 106.471 105.662C105.762 106.553 105.355 107.662 105.366 108.802C105.366 108.868 105.366 108.868 105.367 108.935C105.385 110.289 105.916 111.467 106.85 112.437C107.672 113.238 108.717 113.695 109.865 113.686C109.895 113.686 109.925 113.686 109.955 113.685C110.045 113.684 110.135 113.684 110.225 113.683C110.549 113.682 110.868 113.668 111.19 113.638C111.359 113.632 111.445 113.661 111.585 113.754C111.712 113.893 111.734 114.039 111.727 114.221C111.642 114.591 111.164 114.848 110.871 115.046C109.898 115.721 109.214 116.775 108.909 117.91C108.9 117.941 108.892 117.972 108.883 118.004C108.597 119.131 108.763 120.471 109.346 121.482C109.552 121.82 109.786 122.123 110.063 122.407C110.088 122.434 110.113 122.462 110.138 122.49C110.854 123.254 112.051 123.76 113.087 123.817C113.785 123.832 114.441 123.836 115.11 123.609C115.138 123.6 115.165 123.591 115.193 123.582C115.782 123.382 116.335 123.069 116.793 122.647C116.824 122.619 116.824 122.619 116.856 122.59C117.741 121.768 118.183 120.757 118.475 119.599C118.536 119.423 118.623 119.285 118.768 119.167C118.943 119.094 119.086 119.098 119.264 119.16C119.513 119.381 119.569 119.776 119.65 120.086C119.759 120.492 119.89 120.869 120.078 121.245C120.107 121.305 120.107 121.305 120.136 121.365C120.678 122.419 121.64 123.201 122.755 123.582C124.084 123.996 125.413 123.934 126.66 123.295C127.752 122.712 128.565 121.746 128.946 120.567C129.236 119.608 129.269 118.642 128.971 117.68C128.962 117.651 128.953 117.622 128.944 117.592C128.637 116.632 128.016 115.8 127.249 115.156C127.225 115.135 127.201 115.113 127.177 115.091C127.053 114.977 126.926 114.873 126.787 114.777C126.762 114.76 126.737 114.743 126.711 114.725C126.662 114.691 126.611 114.657 126.561 114.624C126.399 114.514 126.314 114.419 126.247 114.235C126.234 114.108 126.25 113.996 126.287 113.874C126.375 113.766 126.443 113.696 126.567 113.634C126.638 113.63 126.709 113.629 126.78 113.629C126.818 113.629 126.856 113.629 126.895 113.629C127.008 113.634 127.008 113.634 127.099 113.654C127.323 113.695 127.553 113.684 127.779 113.684C127.806 113.684 127.833 113.684 127.861 113.684C129.239 113.682 130.365 113.16 131.335 112.192C132.162 111.293 132.636 110.079 132.629 108.859C132.629 108.816 132.629 108.772 132.628 108.727C132.61 107.462 132.086 106.291 131.214 105.382C131.184 105.349 131.154 105.316 131.122 105.282C130.357 104.478 129.284 103.963 128.17 103.927C128.088 103.927 128.006 103.926 127.925 103.927C127.859 103.927 127.859 103.927 127.793 103.928C126.536 103.946 125.263 104.448 124.364 105.341C124.341 105.365 124.318 105.389 124.294 105.414C124.13 105.582 123.981 105.69 123.741 105.72C123.586 105.7 123.492 105.67 123.363 105.582C123.245 105.419 123.235 105.307 123.263 105.111C123.299 104.948 123.367 104.8 123.433 104.648C123.595 104.259 123.714 103.87 123.803 103.459C123.813 103.414 123.823 103.369 123.833 103.323C123.967 102.575 123.922 101.786 123.723 101.055C123.716 101.028 123.709 101.001 123.701 100.973C123.36 99.7519 122.532 98.6534 121.44 98.0105C119.588 96.9838 117.283 97.2359 115.711 98.6514Z" fill="black"/>
<path d="M122.574 107.113C122.679 107.201 122.78 107.292 122.882 107.385C122.911 107.411 122.941 107.438 122.971 107.465C123.952 108.398 124.533 109.816 124.575 111.157C124.598 112.426 124.35 113.591 123.603 114.636C123.586 114.658 123.57 114.681 123.553 114.705C122.707 115.869 121.485 116.764 120.045 116.992C119.75 117.034 119.454 117.068 119.156 117.079C119.079 117.082 119.079 117.082 119.001 117.086C117.453 117.128 116.07 116.47 114.95 115.437C114.003 114.518 113.408 113.125 113.381 111.809C113.377 111.343 113.384 110.889 113.467 110.429C113.472 110.403 113.477 110.376 113.482 110.349C113.738 108.98 114.532 107.764 115.674 106.968C117.759 105.563 120.578 105.476 122.574 107.113Z" fill="#F8E482"/>
<path d="M122.574 107.113C122.679 107.201 122.78 107.292 122.882 107.385C122.911 107.411 122.941 107.438 122.971 107.465C123.952 108.398 124.533 109.816 124.575 111.157C124.598 112.426 124.35 113.591 123.603 114.636C123.586 114.658 123.57 114.681 123.553 114.705C122.707 115.869 121.485 116.764 120.045 116.992C119.75 117.034 119.454 117.068 119.156 117.079C119.079 117.082 119.079 117.082 119.001 117.086C117.453 117.128 116.07 116.47 114.95 115.437C114.003 114.518 113.408 113.125 113.381 111.809C113.377 111.343 113.384 110.889 113.467 110.429C113.472 110.403 113.477 110.376 113.482 110.349C113.738 108.98 114.532 107.764 115.674 106.968C117.759 105.563 120.578 105.476 122.574 107.113ZM116.192 108.306C116.172 108.324 116.152 108.341 116.132 108.359C115.327 109.092 114.807 110.148 114.744 111.238C114.694 112.431 115.08 113.507 115.884 114.4C116.565 115.135 117.489 115.649 118.499 115.729C118.644 115.733 118.788 115.734 118.933 115.732C118.984 115.732 119.035 115.731 119.088 115.731C119.445 115.725 119.774 115.704 120.117 115.597C120.142 115.589 120.168 115.582 120.193 115.574C120.855 115.363 121.412 115.024 121.92 114.555C121.947 114.532 121.973 114.509 122.001 114.485C122.67 113.866 123.155 112.828 123.208 111.924C123.252 110.645 122.95 109.525 122.074 108.566C121.365 107.814 120.405 107.304 119.36 107.26C118.15 107.229 117.106 107.478 116.192 108.306Z" fill="black"/>
</svg>
