<svg width="180" height="201" viewBox="0 0 180 201" fill="none" xmlns="http://www.w3.org/2000/svg">
<path d="M107.59 3.54211C107.757 3.5709 107.925 3.59968 108.097 3.62934C114.653 4.78595 121.105 6.84465 127.29 9.28001C127.415 9.1649 127.415 9.1649 127.543 9.04747C128.244 8.42279 128.87 7.95561 129.753 7.60646C130.024 7.49551 130.024 7.49551 130.301 7.38232C131.846 6.87092 133.279 6.725 134.905 6.73382C135.22 6.73544 135.22 6.73544 135.542 6.73709C147.448 6.91125 158.536 13.5066 166.662 21.8376C167.341 22.5485 167.968 23.2938 168.577 24.0656C169.014 24.6169 169.471 25.1474 169.93 25.6808C176.248 33.261 180.652 43.7255 179.887 53.6531C179.525 56.9788 177.919 60.3017 175.375 62.4968C172.41 64.7587 169.009 65.7446 165.304 65.7266C165.154 65.7273 165.004 65.7281 164.85 65.7288C163.67 65.7269 162.508 65.6333 161.335 65.5114C161.382 65.6458 161.429 65.7802 161.478 65.9187C162.508 68.8752 163.441 71.8026 164.013 74.8833C164.044 75.0414 164.075 75.1994 164.107 75.3622C165.136 80.7949 165.002 86.8968 163.821 92.2883C163.768 92.5427 163.768 92.5427 163.713 92.8023C162.94 96.3904 161.727 99.7657 159.996 102.999C159.907 103.178 159.817 103.357 159.725 103.541C157.591 107.71 154.297 111.419 150.624 114.284C150.468 114.406 150.468 114.406 150.308 114.531C146.78 117.271 142.768 119.436 138.575 120.978C138.695 121.062 138.816 121.145 138.941 121.232C142.248 123.576 145.293 126.356 147.755 129.585C147.837 129.691 147.919 129.798 148.004 129.908C149.702 132.126 151.127 134.456 152.453 136.912C152.52 137.035 152.586 137.157 152.654 137.284C153.111 138.145 153.111 138.145 153.111 138.574C153.237 138.574 153.363 138.574 153.493 138.574C153.526 138.348 153.526 138.348 153.56 138.118C153.656 137.584 153.768 137.069 153.899 136.543C153.94 136.38 153.98 136.216 154.022 136.047C154.106 135.715 154.191 135.383 154.277 135.051C155.032 131.994 155.065 129.04 154.972 125.915C154.958 125.415 154.95 124.915 154.943 124.415C154.934 124.19 154.934 124.19 154.925 123.96C154.914 122.816 155.257 122.055 155.98 121.169C156.986 120.384 158.203 120.461 159.422 120.595C161.988 121.213 163.904 122.797 165.734 124.612C165.902 124.778 166.071 124.944 166.244 125.115C168.743 127.714 170.118 130.875 171.054 134.318C171.093 134.463 171.133 134.607 171.174 134.756C172.118 138.435 172.147 143.153 171.089 146.798C171.021 147.06 170.953 147.321 170.885 147.583C169.61 152.353 167.076 156.81 163.439 160.187C163.281 160.345 163.123 160.502 162.961 160.665C162.803 160.823 162.645 160.98 162.483 161.143C162.387 161.242 162.292 161.341 162.194 161.443C161.41 162.249 160.59 162.95 159.685 163.618C159.552 163.716 159.418 163.815 159.281 163.917C154.278 167.581 148.518 169.8 142.4 170.706C142.1 170.76 142.1 170.76 141.794 170.815C140.724 170.935 139.662 170.917 138.587 170.909C138.365 170.909 138.143 170.908 137.914 170.907C137.369 170.905 136.824 170.901 136.279 170.897C136.293 171.062 136.306 171.227 136.32 171.397C136.469 173.403 136.508 175.4 136.516 177.412C136.517 177.58 136.518 177.749 136.519 177.923C136.523 178.814 136.525 179.706 136.527 180.597C136.529 181.508 136.536 182.418 136.543 183.329C136.548 184.039 136.55 184.749 136.551 185.459C136.552 185.795 136.554 186.13 136.557 186.465C136.595 190.201 135.962 193.478 133.296 196.282C130.897 198.56 127.959 199.361 124.804 199.97C124.661 200.003 124.518 200.037 124.371 200.072C123.703 200.185 123.044 200.195 122.369 200.2C122.155 200.202 122.155 200.202 121.938 200.204C116.611 200.243 111.367 200.035 107.227 196.194C104.602 193.369 103.887 189.357 103.956 185.625C103.731 185.68 103.506 185.735 103.275 185.792C100.368 186.435 97.3715 186.608 94.4032 186.62C94.1742 186.621 93.9452 186.623 93.7093 186.624C92.9728 186.627 92.2364 186.628 91.4999 186.629C91.2487 186.629 90.9974 186.63 90.7385 186.63C86.76 186.632 82.8512 186.48 78.9004 186.007C78.6012 185.972 78.3019 185.937 78.0026 185.903C77.2179 185.811 76.4334 185.718 75.649 185.625C75.651 185.83 75.653 186.035 75.6551 186.247C75.6244 189.817 74.3682 193.492 71.9014 196.09C68.2791 199.525 63.3024 200.205 58.5309 200.209C58.3856 200.209 58.2403 200.209 58.0905 200.209C53.5862 200.203 49.0761 199.458 45.6759 196.236C43.0397 193.38 42.6906 189.887 42.7009 186.18C42.7005 185.862 42.6999 185.543 42.6993 185.225C42.6982 184.381 42.6998 183.536 42.7024 182.692C42.7039 182.168 42.7047 181.644 42.7055 181.12C42.7136 176.111 42.7634 171.114 43.1342 166.116C43.1453 165.963 43.1564 165.811 43.1678 165.654C43.404 162.42 43.6962 159.198 44.0905 155.979C43.8815 156.05 43.6724 156.122 43.4571 156.196C43.3324 156.238 43.2077 156.281 43.0792 156.325C42.8212 156.413 42.5633 156.502 42.3056 156.591C42.1351 156.649 42.1351 156.649 41.9612 156.707C41.847 156.746 41.7329 156.786 41.6152 156.826C38.6595 157.648 34.6849 157.537 31.8497 156.361C31.6798 156.304 31.5099 156.247 31.3349 156.187C28.7887 155.289 26.5494 153.387 25.3467 150.97C23.9562 148.045 23.8897 144.264 24.891 141.179C24.9783 140.951 25.0655 140.722 25.1555 140.487C25.2325 140.28 25.2325 140.28 25.311 140.068C26.5202 136.859 28.1798 133.983 30.3196 131.306C30.4502 131.139 30.5809 130.971 30.7155 130.799C33.0847 127.822 35.7875 125.23 38.7112 122.807C38.8478 122.694 38.9843 122.58 39.125 122.464C39.7093 121.985 40.2893 121.524 40.9242 121.114C41.4282 120.835 41.4282 120.835 41.6041 120.404C41.4669 120.38 41.3296 120.357 41.1882 120.332C36.3248 119.256 31.3422 115.999 27.6419 112.753C27.4774 112.61 27.313 112.466 27.1436 112.319C26.6664 111.896 26.1963 111.466 25.7293 111.032C25.602 110.915 25.4748 110.798 25.3437 110.678C18.7792 104.407 15.2047 94.6509 14.9631 85.6967C14.9479 84.8495 14.9449 84.0027 14.9468 83.1555C14.9469 82.9763 14.947 82.7971 14.9471 82.6125C14.9625 76.8193 15.6376 70.3937 18.27 65.1289C18.0318 65.1905 17.7936 65.2522 17.5483 65.3157C13.7169 66.1616 9.74421 65.4276 6.39345 63.451C3.18894 61.3859 1.32828 58.0228 0.476519 54.3808C-1.36958 45.6159 2.42404 35.9501 7.11475 28.6968C7.56818 28.0162 8.03616 27.3474 8.51555 26.685C8.59655 26.5728 8.67754 26.4607 8.76098 26.3451C11.2709 22.9074 14.1633 19.7599 17.5049 17.1218C17.8478 16.8351 18.1904 16.5482 18.533 16.2611C20.5423 14.6218 22.713 13.2373 24.9642 11.9577C25.1018 11.8795 25.2393 11.8013 25.3811 11.7207C28.9322 9.72549 32.6806 8.34436 36.6313 7.36738C36.7672 7.33308 36.9031 7.29877 37.0431 7.26343C39.0857 6.7716 41.1394 6.74016 43.2298 6.73382C43.3623 6.7331 43.4948 6.73238 43.6313 6.73163C46.6788 6.72323 49.9289 7.17766 52.3149 9.28001C52.3149 9.40624 52.3149 9.53248 52.3149 9.66254C52.4995 9.57871 52.6842 9.49488 52.8744 9.40852C59.4751 6.48842 66.4458 4.57421 73.5451 3.35085C73.7262 3.31932 73.9074 3.28779 74.094 3.25531C85.0218 1.4244 96.6919 1.66157 107.59 3.54211Z" fill="#F2D3A3"/>
<path d="M107.59 3.54211C107.757 3.5709 107.925 3.59968 108.097 3.62934C114.653 4.78595 121.105 6.84465 127.29 9.28001C127.415 9.1649 127.415 9.1649 127.543 9.04747C128.244 8.42279 128.87 7.95561 129.753 7.60646C130.024 7.49551 130.024 7.49551 130.301 7.38232C131.846 6.87092 133.279 6.725 134.905 6.73382C135.22 6.73544 135.22 6.73544 135.542 6.73709C147.448 6.91125 158.536 13.5066 166.662 21.8376C167.341 22.5485 167.968 23.2938 168.577 24.0656C169.014 24.6169 169.471 25.1474 169.93 25.6808C176.248 33.261 180.652 43.7255 179.887 53.6531C179.525 56.9788 177.919 60.3017 175.375 62.4968C172.41 64.7587 169.009 65.7446 165.304 65.7266C165.154 65.7273 165.004 65.7281 164.85 65.7288C163.67 65.7269 162.508 65.6333 161.335 65.5114C161.382 65.6458 161.429 65.7802 161.478 65.9187C162.508 68.8752 163.441 71.8026 164.013 74.8833C164.044 75.0414 164.075 75.1994 164.107 75.3622C165.136 80.7949 165.002 86.8968 163.821 92.2883C163.768 92.5427 163.768 92.5427 163.713 92.8023C162.94 96.3904 161.727 99.7657 159.996 102.999C159.907 103.178 159.817 103.357 159.725 103.541C157.591 107.71 154.297 111.419 150.624 114.284C150.468 114.406 150.468 114.406 150.308 114.531C146.78 117.271 142.768 119.436 138.575 120.978C138.695 121.062 138.816 121.145 138.941 121.232C142.248 123.576 145.293 126.356 147.755 129.585C147.837 129.691 147.919 129.798 148.004 129.908C149.702 132.126 151.127 134.456 152.453 136.912C152.52 137.035 152.586 137.157 152.654 137.284C153.111 138.145 153.111 138.145 153.111 138.574C153.237 138.574 153.363 138.574 153.493 138.574C153.526 138.348 153.526 138.348 153.56 138.118C153.656 137.584 153.768 137.069 153.899 136.543C153.94 136.38 153.98 136.216 154.022 136.047C154.106 135.715 154.191 135.383 154.277 135.051C155.032 131.994 155.065 129.04 154.972 125.915C154.958 125.415 154.95 124.915 154.943 124.415C154.934 124.19 154.934 124.19 154.925 123.96C154.914 122.816 155.257 122.055 155.98 121.169C156.986 120.384 158.203 120.461 159.422 120.595C161.988 121.213 163.904 122.797 165.734 124.612C165.902 124.778 166.071 124.944 166.244 125.115C168.743 127.714 170.118 130.875 171.054 134.318C171.093 134.463 171.133 134.607 171.174 134.756C172.118 138.435 172.147 143.153 171.089 146.798C171.021 147.06 170.953 147.321 170.885 147.583C169.61 152.353 167.076 156.81 163.439 160.187C163.281 160.345 163.123 160.502 162.961 160.665C162.803 160.823 162.645 160.98 162.483 161.143C162.387 161.242 162.292 161.341 162.194 161.443C161.41 162.249 160.59 162.95 159.685 163.618C159.552 163.716 159.418 163.815 159.281 163.917C154.278 167.581 148.518 169.8 142.4 170.706C142.1 170.76 142.1 170.76 141.794 170.815C140.724 170.935 139.662 170.917 138.587 170.909C138.365 170.909 138.143 170.908 137.914 170.907C137.369 170.905 136.824 170.901 136.279 170.897C136.293 171.062 136.306 171.227 136.32 171.397C136.469 173.403 136.508 175.4 136.516 177.412C136.517 177.58 136.518 177.749 136.519 177.923C136.523 178.814 136.525 179.706 136.527 180.597C136.529 181.508 136.536 182.418 136.543 183.329C136.548 184.039 136.55 184.749 136.551 185.459C136.552 185.795 136.554 186.13 136.557 186.465C136.595 190.201 135.962 193.478 133.296 196.282C130.897 198.56 127.959 199.361 124.804 199.97C124.661 200.003 124.518 200.037 124.371 200.072C123.703 200.185 123.044 200.195 122.369 200.2C122.155 200.202 122.155 200.202 121.938 200.204C116.611 200.243 111.367 200.035 107.227 196.194C104.602 193.369 103.887 189.357 103.956 185.625C103.731 185.68 103.506 185.735 103.275 185.792C100.368 186.435 97.3715 186.608 94.4032 186.62C94.1742 186.621 93.9452 186.623 93.7093 186.624C92.9728 186.627 92.2364 186.628 91.4999 186.629C91.2487 186.629 90.9974 186.63 90.7385 186.63C86.76 186.632 82.8512 186.48 78.9004 186.007C78.6012 185.972 78.3019 185.937 78.0026 185.903C77.2179 185.811 76.4334 185.718 75.649 185.625C75.651 185.83 75.653 186.035 75.6551 186.247C75.6244 189.817 74.3682 193.492 71.9014 196.09C68.2791 199.525 63.3024 200.205 58.5309 200.209C58.3856 200.209 58.2403 200.209 58.0905 200.209C53.5862 200.203 49.0761 199.458 45.6759 196.236C43.0397 193.38 42.6906 189.887 42.7009 186.18C42.7005 185.862 42.6999 185.543 42.6993 185.225C42.6982 184.381 42.6998 183.536 42.7024 182.692C42.7039 182.168 42.7047 181.644 42.7055 181.12C42.7136 176.111 42.7634 171.114 43.1342 166.116C43.1453 165.963 43.1564 165.811 43.1678 165.654C43.404 162.42 43.6962 159.198 44.0905 155.979C43.8815 156.05 43.6724 156.122 43.4571 156.196C43.3324 156.238 43.2077 156.281 43.0792 156.325C42.8212 156.413 42.5633 156.502 42.3056 156.591C42.1351 156.649 42.1351 156.649 41.9612 156.707C41.847 156.746 41.7329 156.786 41.6152 156.826C38.6595 157.648 34.6849 157.537 31.8497 156.361C31.6798 156.304 31.5099 156.247 31.3349 156.187C28.7887 155.289 26.5494 153.387 25.3467 150.97C23.9562 148.045 23.8897 144.264 24.891 141.179C24.9783 140.951 25.0655 140.722 25.1555 140.487C25.2325 140.28 25.2325 140.28 25.311 140.068C26.5202 136.859 28.1798 133.983 30.3196 131.306C30.4502 131.139 30.5809 130.971 30.7155 130.799C33.0847 127.822 35.7875 125.23 38.7112 122.807C38.8478 122.694 38.9843 122.58 39.125 122.464C39.7093 121.985 40.2893 121.524 40.9242 121.114C41.4282 120.835 41.4282 120.835 41.6041 120.404C41.4669 120.38 41.3296 120.357 41.1882 120.332C36.3248 119.256 31.3422 115.999 27.6419 112.753C27.4774 112.61 27.313 112.466 27.1436 112.319C26.6664 111.896 26.1963 111.466 25.7293 111.032C25.602 110.915 25.4748 110.798 25.3437 110.678C18.7792 104.407 15.2047 94.6509 14.9631 85.6967C14.9479 84.8495 14.9449 84.0027 14.9468 83.1555C14.9469 82.9763 14.947 82.7971 14.9471 82.6125C14.9625 76.8193 15.6376 70.3937 18.27 65.1289C18.0318 65.1905 17.7936 65.2522 17.5483 65.3157C13.7169 66.1616 9.74421 65.4276 6.39345 63.451C3.18894 61.3859 1.32828 58.0228 0.476519 54.3808C-1.36958 45.6159 2.42404 35.9501 7.11475 28.6968C7.56818 28.0162 8.03616 27.3474 8.51555 26.685C8.59655 26.5728 8.67754 26.4607 8.76098 26.3451C11.2709 22.9074 14.1633 19.7599 17.5049 17.1218C17.8478 16.8351 18.1904 16.5482 18.533 16.2611C20.5423 14.6218 22.713 13.2373 24.9642 11.9577C25.1018 11.8795 25.2393 11.8013 25.3811 11.7207C28.9322 9.72549 32.6806 8.34436 36.6313 7.36738C36.7672 7.33308 36.9031 7.29877 37.0431 7.26343C39.0857 6.7716 41.1394 6.74016 43.2298 6.73382C43.3623 6.7331 43.4948 6.73238 43.6313 6.73163C46.6788 6.72323 49.9289 7.17766 52.3149 9.28001C52.3149 9.40624 52.3149 9.53248 52.3149 9.66254C52.4995 9.57871 52.6842 9.49488 52.8744 9.40852C59.4751 6.48842 66.4458 4.57421 73.5451 3.35085C73.7262 3.31932 73.9074 3.28779 74.094 3.25531C85.0218 1.4244 96.6919 1.66157 107.59 3.54211ZM76.6053 7.7499C76.3024 7.78566 76.3024 7.78566 75.9933 7.82214C69.4967 8.59587 63.2009 10.1859 57.0964 12.5315C56.9221 12.5977 56.7478 12.6639 56.5682 12.7322C56.1243 12.9031 55.6835 13.0798 55.2436 13.2607C55.0101 13.3566 54.7766 13.4525 54.536 13.5513C54.0057 13.8209 54.0057 13.8209 53.8629 14.3119C53.8429 14.8853 53.8562 15.4487 53.8808 16.022C53.9409 19.41 53.1104 22.8867 52.1236 26.1112C52.0662 26.2988 52.0088 26.4864 51.9497 26.6797C49.0815 35.9102 44.9052 45.4896 38.2025 52.6266C37.8391 53.0149 37.4972 53.4118 37.1572 53.8205C34.271 57.1066 29.969 60.9141 25.7741 62.3317C24.7631 62.6825 24.1787 62.9346 23.6119 63.8692C23.2908 64.5986 23.0537 65.3487 22.8295 66.1127C22.6544 66.7089 22.4656 67.3 22.2761 67.8918C21.5055 70.344 20.8522 72.8009 20.4523 75.3418C20.3965 75.6961 20.3359 76.0496 20.2719 76.4025C19.9511 78.3238 19.9266 80.2214 19.931 82.1654C19.9316 82.7189 19.9271 83.2722 19.9222 83.8256C19.9111 87.0695 20.1684 90.3433 21.0792 93.4717C21.1276 93.6431 21.1761 93.8145 21.2261 93.991C23.7002 102.409 29.2972 109.081 36.9517 113.281C41.1228 115.51 45.4922 117.179 50.1579 118.01C50.328 118.041 50.4981 118.072 50.6734 118.104C50.8273 118.13 50.9812 118.156 51.1398 118.183C51.7736 118.364 52.1052 118.752 52.5061 119.256C52.5692 119.32 52.6323 119.383 52.6974 119.448C52.7792 120.151 52.7155 120.555 52.4224 121.205C51.7596 121.932 51.147 122.083 50.211 122.317C42.3317 124.334 35.9465 131.055 31.8331 137.844C30.0023 140.94 28.5231 144.164 29.0487 147.849C29.4497 149.361 30.5492 150.549 31.8519 151.368C34.6968 152.836 38.2184 153.105 41.2933 152.142C42.7032 151.581 44.2267 150.833 45.2381 149.667C45.3964 149.278 45.3964 149.278 45.4927 148.838C45.5343 148.67 45.5759 148.502 45.6187 148.33C45.6618 148.148 45.7048 147.966 45.7491 147.779C45.8196 147.495 45.8196 147.495 45.8914 147.205C46.0422 146.595 46.1903 145.986 46.3379 145.376C46.8961 143.07 47.4582 140.777 48.2296 138.531C48.2824 138.375 48.3352 138.219 48.3896 138.058C48.7244 137.119 49.0772 136.176 50.0197 135.705C50.8011 135.607 51.5916 135.529 52.3066 135.899C52.811 136.307 53.065 136.617 53.2712 137.235C53.3201 138.177 53.2107 138.941 52.9417 139.842C52.8701 140.087 52.7986 140.332 52.727 140.576C52.689 140.704 52.6511 140.831 52.6119 140.963C51.6824 144.092 50.912 147.244 50.211 150.432C50.1538 150.688 50.1538 150.688 50.0954 150.948C48.9326 156.175 48.3497 161.511 47.9482 166.844C47.9232 167.168 47.8969 167.491 47.87 167.815C47.7476 169.324 47.6689 170.83 47.6199 172.342C47.612 172.588 47.604 172.833 47.5958 173.085C47.5095 175.895 47.4908 178.704 47.4873 181.515C47.4863 182.259 47.4816 183.004 47.4762 183.748C47.4726 184.334 47.4717 184.92 47.4714 185.506C47.4708 185.78 47.4693 186.055 47.4668 186.329C47.446 188.73 47.6084 191.019 49.2546 192.893C51.6156 195.119 54.842 195.48 57.9459 195.443C58.352 195.439 58.7579 195.44 59.1641 195.441C62.5657 195.434 66.2392 195.035 68.7635 192.51C70.4855 190.249 70.7836 187.593 70.8793 184.848C70.8938 184.453 70.9093 184.058 70.9281 183.662C70.9448 183.309 70.9578 182.955 70.9705 182.601C71.0666 181.936 71.2312 181.57 71.6324 181.034C73.303 179.921 76.7028 180.823 78.6255 181.022C82.6233 181.434 86.5822 181.644 90.602 181.644C91.1986 181.644 91.7951 181.648 92.3916 181.651C96.0934 181.662 99.7322 181.345 103.394 180.819C103.878 180.75 104.363 180.682 104.847 180.615C105.054 180.585 105.26 180.555 105.473 180.525C107.008 180.357 107.008 180.357 107.829 180.783C108.403 181.266 108.525 181.479 108.738 182.182C108.786 182.807 108.786 182.807 108.79 183.513C108.794 183.776 108.798 184.039 108.802 184.302C108.806 184.709 108.809 185.116 108.81 185.524C108.824 188.372 109.134 191.134 111.224 193.275C113.588 195.237 116.847 195.417 119.783 195.425C120.194 195.427 120.606 195.433 121.018 195.439C124.235 195.463 127.514 195.106 129.93 192.796C131.276 191.268 131.733 189.383 131.745 187.386C131.746 187.244 131.747 187.103 131.749 186.958C131.752 186.493 131.753 186.027 131.753 185.562C131.755 185.231 131.757 184.9 131.758 184.569C131.763 183.503 131.762 182.436 131.761 181.369C131.761 181.188 131.761 181.006 131.761 180.819C131.759 174.801 131.584 168.851 130.924 162.864C130.882 162.468 130.839 162.071 130.797 161.674C129.965 153.992 128.809 146.117 126.334 138.765C126.217 138.096 126.186 137.502 126.521 136.896C126.953 136.351 127.384 135.902 128.055 135.705C128.75 135.642 129.252 135.652 129.908 135.896C130.918 136.769 131.258 138.151 131.575 139.407C131.614 139.555 131.652 139.704 131.692 139.857C131.774 140.172 131.855 140.487 131.936 140.802C132.061 141.293 132.189 141.783 132.317 142.273C132.721 143.824 133.1 145.374 133.425 146.944C133.821 148.88 133.821 148.88 135.09 150.351C135.23 150.441 135.37 150.531 135.514 150.624C135.658 150.727 135.802 150.831 135.951 150.938C138.481 152.626 141.559 152.984 144.512 152.403C146.601 151.861 148.449 150.928 149.668 149.093C150.631 147.284 150.404 145.21 149.859 143.308C147.398 135.337 141.045 128.101 133.821 124.063C132.21 123.215 130.577 122.839 128.781 122.609C128.047 122.47 127.653 122.236 127.099 121.743C126.79 121.125 126.796 120.498 126.908 119.83C127.687 118.744 128.668 118.585 129.933 118.363C130.059 118.344 130.185 118.324 130.315 118.304C132.151 118.02 133.868 117.528 135.622 116.925C135.759 116.879 135.897 116.832 136.038 116.785C138.057 116.1 139.974 115.344 141.826 114.284C142.085 114.144 142.345 114.006 142.605 113.867C150.095 109.844 155.735 102.916 158.187 94.7829C158.425 93.9554 158.644 93.1248 158.849 92.2883C158.88 92.1693 158.912 92.0503 158.945 91.9277C159.648 89.12 159.692 86.1766 159.685 83.2989C159.685 83.0434 159.685 83.0434 159.685 82.7828C159.678 79.8948 159.461 77.1397 158.849 74.3095C158.816 74.1498 158.783 73.9901 158.749 73.8255C158.103 70.7295 157.029 67.725 155.98 64.7464C155.934 64.601 155.889 64.4557 155.843 64.3059C155.606 63.6172 155.397 63.402 154.774 63.0026C154.52 62.8868 154.264 62.7749 154.007 62.6664C153.728 62.5376 153.45 62.4076 153.173 62.2764C152.963 62.1779 152.963 62.1779 152.75 62.0775C150.536 60.9823 148.543 59.3778 146.608 57.8609C146.501 57.7777 146.395 57.6945 146.286 57.6087C143.386 55.3076 140.744 52.6364 138.575 49.6366C138.482 49.5097 138.388 49.3827 138.293 49.252C131.474 39.932 124.809 26.0817 125.569 14.2529C115.157 8.55202 102.437 7.05183 90.7384 7.10131C89.9587 7.10458 89.1791 7.10263 88.3994 7.09933C84.4316 7.08516 80.5463 7.27666 76.6053 7.7499Z" fill="black"/>
<path d="M150.157 15.4485C155.936 18.4039 161.602 22.8481 165.543 28.0238C165.644 28.1555 165.744 28.2872 165.848 28.4229C167.345 30.3866 168.748 32.3645 169.942 34.5267C170.03 34.6844 170.118 34.842 170.209 35.0044C173.013 40.0504 174.989 45.2014 175.01 51.0232C175.012 51.3953 175.012 51.3953 175.014 51.7748C174.977 54.4854 174.362 56.7896 172.49 58.7962C170.008 61.0488 166.775 61.1003 163.608 60.9598C156.059 60.4294 148.972 54.5177 144.189 49.0879C143.558 48.3395 142.971 47.5624 142.4 46.7676C142.313 46.6466 142.226 46.5256 142.136 46.4009C138.994 42.0044 136.492 37.2877 134.583 32.2311C134.379 31.6912 134.171 31.1534 133.962 30.6155C132.533 26.8805 131.405 22.979 130.733 19.0344C130.694 18.8478 130.655 18.6611 130.615 18.4688C130.39 17.321 130.307 16.1968 130.29 15.0298C130.287 14.8917 130.284 14.7535 130.28 14.6112C130.281 13.7532 130.394 13.2106 130.924 12.5314C135.709 8.94275 145.534 13.1864 150.157 15.4485Z" fill="#7D5232"/>
<path d="M43.0625 11.5274C43.4235 11.5252 43.4235 11.5252 43.7917 11.5229C47.3228 11.5304 47.3228 11.5304 48.6809 12.7228C49.0743 13.627 49.1305 14.4875 49.1232 15.4603C49.1218 15.6867 49.1218 15.6867 49.1203 15.9176C48.9883 22.7078 45.9987 29.9584 43.1517 35.9936C42.9434 36.4387 42.7413 36.8861 42.5403 37.3345C39.3609 44.3478 34.6118 50.7638 28.407 55.3745C28.2196 55.5175 28.0322 55.6605 27.8392 55.8079C24.9056 57.954 21.579 59.5736 18.0787 60.5387C17.9062 60.5889 17.7336 60.6392 17.5558 60.6911C15.4049 61.2252 12.8767 61.149 10.8107 60.3474C10.5704 60.2564 10.5704 60.2564 10.3251 60.1636C8.06305 59.1761 6.55282 57.2467 5.64663 54.992C5.13994 53.4056 4.97976 51.9179 5.00112 50.2583C5.00362 49.9319 5.00362 49.9319 5.00616 49.599C5.03586 47.8861 5.23352 46.3252 5.64663 44.6638C5.69767 44.4249 5.74871 44.186 5.80129 43.9398C7.14119 37.8322 10.3518 32.0902 14.2535 27.2588C14.4384 27.0155 14.4384 27.0155 14.627 26.7672C16.9484 23.7787 19.7735 21.2068 22.8603 19.0345C22.9764 18.9512 23.0925 18.8678 23.2121 18.782C27.6651 15.5994 32.8046 13.1411 38.1614 11.9578C38.3152 11.9226 38.4689 11.8874 38.6273 11.8511C40.1081 11.5437 41.554 11.5181 43.0625 11.5274Z" fill="#7D5232"/>
<path d="M94.7753 130.924C94.9491 130.99 95.123 131.057 95.302 131.126C99.6359 133.025 102.241 137.652 103.956 141.826C104.803 144.005 105.273 146.224 105.677 148.52C105.711 148.699 105.745 148.877 105.779 149.062C106.296 152.563 106.102 156.474 104.912 159.804C104.837 160.024 104.761 160.244 104.683 160.471C103.307 164.074 100.697 166.867 97.2162 168.493C92.6177 170.505 86.7107 170.289 82.0998 168.5C78.5329 167.038 76.0429 164.66 74.3766 161.194C71.805 154.962 72.9023 147.72 75.4219 141.658C76.4687 139.239 77.6908 136.9 79.4743 134.94C79.5568 134.848 79.6393 134.757 79.7244 134.662C83.6973 130.302 89.2547 128.694 94.7753 130.924Z" fill="#FFBB4D"/>
<path d="M101.213 129.08C103.567 131.067 105.307 133.409 106.825 136.087C106.887 136.197 106.95 136.307 107.015 136.421C108.936 139.855 110.047 143.69 110.65 147.563C110.683 147.773 110.683 147.773 110.717 147.988C111.675 154.29 110.792 161.207 107.061 166.521C103.444 171.181 98.8959 173.395 93.181 174.459C86.486 175.151 79.8457 173.815 74.5098 169.593C70.734 166.504 68.6779 161.927 68.1897 157.126C68.1206 156.055 68.1151 154.984 68.118 153.911C68.1181 153.765 68.1182 153.62 68.1183 153.47C68.1315 149.438 68.7726 145.635 70.1024 141.825C70.1452 141.701 70.188 141.577 70.2321 141.448C71.6591 137.387 73.8534 133.855 76.7966 130.732C76.9038 130.615 77.0111 130.497 77.1216 130.376C83.5326 123.608 94.1033 123.24 101.213 129.08ZM81.1956 133.218C81.0149 133.381 80.8342 133.544 80.648 133.712C77.2682 136.87 75.4124 141.086 74.1189 145.459C74.0605 145.652 74.002 145.845 73.9418 146.044C72.5064 151.24 72.3207 157.288 74.8429 162.189C77.0316 165.914 80.0762 167.926 84.1356 169.196C85.9274 169.638 87.6603 169.814 89.5036 169.798C89.7137 169.796 89.9237 169.795 90.1402 169.793C94.5537 169.735 98.5103 168.576 101.661 165.351C103.872 163.017 104.891 160.196 105.592 157.116C105.648 156.874 105.71 156.633 105.781 156.395C107.144 149.914 104.775 142.357 101.47 136.852C100.999 136.174 100.488 135.556 99.9395 134.94C99.7605 134.72 99.7605 134.72 99.5778 134.496C97.613 132.14 94.7668 130.438 91.7151 129.967C87.7777 129.611 84.1718 130.529 81.1956 133.218Z" fill="black"/>
<path d="M60.5332 65.8692C62.4908 66.7906 63.4893 68.1977 64.221 70.1734C64.6121 72.0635 64.3107 73.6458 63.3469 75.3225C62.6952 76.2698 61.9324 76.8361 60.9217 77.3696C61.2267 78.0346 61.6242 78.6018 62.0454 79.1986C63.3887 81.1928 63.8249 83.0853 63.8265 85.4505C63.8289 85.6233 63.8312 85.7962 63.8336 85.9742C63.8398 88.8141 62.7377 91.3861 60.7305 93.4358C60.6042 93.4358 60.478 93.4358 60.3479 93.4358C60.2848 93.6251 60.2217 93.8145 60.1567 94.0095C59.3186 94.8731 58.1919 95.4159 57.1323 95.958C56.949 96.0535 56.949 96.0535 56.7621 96.1509C54.826 97.1116 52.9678 97.3629 50.8206 97.3447C50.4656 97.3427 50.4656 97.3427 50.1034 97.3407C48.4182 97.3111 46.9945 97.1546 45.4294 96.496C45.1631 96.3987 45.1631 96.3987 44.8915 96.2995C41.9188 95.1129 39.8154 92.8663 38.4147 90.0408C37.8026 88.5386 37.48 87.1716 37.492 85.5461C37.4931 85.3715 37.4941 85.1968 37.4953 85.0169C37.5787 81.8292 39.146 79.2739 41.4061 77.0977C42.3554 76.2913 43.3821 75.6755 44.4731 75.0745C44.6106 74.9941 44.7482 74.9137 44.89 74.8309C46.8714 73.7374 49.2188 73.5091 51.4422 73.5324C51.6004 73.5333 51.7586 73.5341 51.9215 73.535C52.3077 73.5373 52.6938 73.5407 53.0799 73.5444C53.071 73.3158 53.0622 73.0873 53.053 72.8518C52.9881 70.502 53.1651 68.9757 54.8125 67.1931C56.4352 65.6944 58.3929 65.2412 60.5332 65.8692Z" fill="#F4A99C"/>
<path d="M122.58 66.0969C124.172 67.0205 125.082 68.208 125.76 69.9103C126.109 71.2275 126 72.5993 125.76 73.9268C125.955 73.9238 125.955 73.9238 126.154 73.9207C126.752 73.9127 127.35 73.9078 127.948 73.9029C128.152 73.8997 128.357 73.8965 128.567 73.8932C132.222 73.8708 135.677 75.3602 138.335 77.8686C140.482 80.1466 141.549 82.8321 141.524 85.9619C141.411 89.1037 139.982 91.6347 137.81 93.8182C137.696 93.938 137.583 94.0578 137.467 94.1813C135.043 96.5461 131.385 97.5766 128.081 97.5431C126.535 97.4864 125.122 97.1627 123.656 96.6871C123.356 96.5932 123.356 96.5932 123.05 96.4973C119.784 95.315 117.596 92.7356 116.091 89.7045C115.521 88.3271 115.362 87.105 115.372 85.6297C115.373 85.4607 115.374 85.2917 115.375 85.1176C115.429 82.2235 116.642 79.8902 118.301 77.5608C118.162 77.4872 118.162 77.4872 118.02 77.4121C116.625 76.6156 115.23 75.4151 114.744 73.8289C114.404 71.7257 114.527 69.7813 115.7 67.9647C117.336 65.8362 120.101 64.9699 122.58 66.0969Z" fill="#F4A99C"/>
<path d="M160.379 126.142C162.761 128.147 164.37 130.512 165.543 133.41C165.597 133.54 165.652 133.669 165.708 133.802C167.516 138.579 167.17 144.822 165.16 149.476C161.939 156.473 155.99 161.733 148.812 164.472C144.7 165.959 140.457 166.657 136.088 166.499C135.798 165.48 135.744 164.419 135.637 163.369C135.598 162.987 135.558 162.604 135.518 162.222C135.493 161.979 135.468 161.736 135.442 161.485C135.408 161.153 135.408 161.153 135.373 160.814C135.326 160.219 135.314 159.636 135.323 159.039C135.478 158.984 135.633 158.928 135.793 158.871C136.852 158.479 137.791 158.109 138.718 157.461C140.014 156.71 141.427 156.84 142.882 156.818C144.679 156.779 146.096 156.486 147.755 155.788C147.986 155.693 148.217 155.599 148.455 155.501C151.265 154.229 153.17 152.278 154.306 149.404C154.561 148.674 154.683 148.008 154.76 147.241C154.937 146.008 155.508 145.164 156.179 144.146C159.693 138.805 160.174 132.365 160.379 126.142Z" fill="#7D5232"/>
<path d="M97.5248 72.7315C98.4669 73.4887 99.1751 74.5029 99.5569 75.6482C99.676 77.1668 99.2814 78.2171 98.3376 79.3898C96.9064 80.9104 94.9031 81.7935 92.8627 82.1512C92.6102 82.1512 92.3578 82.1512 92.0977 82.1512C92.102 83.0121 92.1169 83.8725 92.1335 84.7332C92.1346 84.9758 92.1357 85.2184 92.1369 85.4684C92.1703 86.8935 92.2593 87.9568 93.2452 89.0367C94.391 90.1066 95.9445 90.1381 97.4318 90.118C99.7561 90.0033 101.191 88.8765 102.737 87.2548C103.037 86.915 103.329 86.5667 103.609 86.2103C103.978 85.7581 104.139 85.6182 104.712 85.5483C105.775 85.514 106.368 85.6422 107.207 86.359C107.731 87.144 107.725 87.7328 107.59 88.6541C106.773 91.1055 104.233 92.8854 102.043 94.0095C101.352 94.3032 100.657 94.5532 99.9395 94.7746C99.7501 94.8377 99.5608 94.9008 99.3657 94.9658C95.8586 95.2247 93.0398 95.1694 90.2082 92.9299C89.7753 92.602 89.7753 92.602 89.0374 92.6707C88.6023 92.9371 88.6023 92.9371 88.1648 93.2923C87.1745 94.0181 86.1868 94.4137 85.0209 94.7746C84.7369 94.8692 84.7369 94.8692 84.4471 94.9658C80.6458 95.2866 77.5119 94.9583 74.5014 92.4794C74.2781 92.3023 74.2781 92.3023 74.0502 92.1215C72.724 91.0156 71.3589 89.6173 71.1902 87.8293C71.261 86.9937 71.4905 86.6208 72.015 85.9764C72.8699 85.4065 73.6909 85.4561 74.6927 85.5939C75.1948 85.9525 75.1948 85.9525 75.649 86.5502C77.0046 88.1894 78.5671 89.7803 80.7988 90.035C81.2069 90.058 81.6117 90.0655 82.0205 90.0647C82.1641 90.0647 82.3078 90.0646 82.4558 90.0646C83.5821 90.0414 84.4348 89.8164 85.4034 89.2279C85.5395 89.1663 85.6756 89.1046 85.8159 89.0411C86.3179 88.7625 86.3781 88.4212 86.551 87.8891C86.6141 87.7628 86.6773 87.6366 86.7423 87.5066C86.7718 87.1042 86.7901 86.701 86.8028 86.2977C86.8108 86.0573 86.8188 85.8169 86.8271 85.5693C86.8346 85.317 86.8421 85.0648 86.8499 84.805C86.8581 84.5487 86.8665 84.2924 86.8749 84.0362C86.8952 83.4079 86.9148 82.7795 86.9335 82.1512C86.6392 82.116 86.6392 82.116 86.3388 82.0802C84.1812 81.7314 82.0415 80.7172 80.6256 79.0192C79.833 77.8746 79.4902 76.8699 79.6655 75.457C80.1037 73.9293 81.3051 72.9397 82.6017 72.1084C83.8504 71.4291 85.1619 71.1276 86.551 70.8666C86.7256 70.8311 86.9001 70.7956 87.08 70.7591C90.6218 70.28 94.5146 70.6734 97.5248 72.7315Z" fill="black"/>
<path d="M122.58 66.0969C124.172 67.0205 125.082 68.208 125.76 69.9103C125.915 70.496 125.915 70.496 125.951 71.0578C125.965 71.1782 125.979 71.2985 125.994 71.4224C126.104 72.9848 125.503 74.6659 124.577 75.9231C123.044 77.3196 121.624 77.8361 119.572 77.8171C118.063 77.6765 116.92 76.9157 115.904 75.8207C114.622 74.1599 114.486 72.3182 114.667 70.2928C115.016 68.6779 115.927 67.4288 117.28 66.5004C119.001 65.5287 120.743 65.2619 122.58 66.0969Z" fill="black"/>
<path d="M60.5332 65.8694C62.4908 66.7908 63.4893 68.1979 64.221 70.1736C64.6134 72.0703 64.2961 73.6229 63.3603 75.3161C62.5984 76.4525 61.4698 77.2608 60.1641 77.6822C58.2595 78.0252 56.7881 77.6831 55.1838 76.6048C54.1255 75.6932 53.338 74.3487 53.0799 72.9708C52.9271 70.8181 53.0817 69.2758 54.4666 67.5676C56.0999 65.8003 58.1953 65.1835 60.5332 65.8694Z" fill="black"/>
<path d="M89.8981 124.982C90.0554 124.983 90.2127 124.984 90.3748 124.985C90.7578 124.987 91.1408 124.99 91.5238 124.994C91.5238 125.12 91.5238 125.247 91.5238 125.377C91.351 125.388 91.1782 125.4 91.0001 125.412C90.7745 125.428 90.5489 125.444 90.3165 125.46C90.0924 125.476 89.8682 125.491 89.6373 125.507C89.0324 125.546 89.0324 125.546 88.4636 125.759C87.9158 125.817 87.3678 125.856 86.8184 125.897C86.3694 125.901 86.3694 125.901 86.1685 126.142C85.6577 126.169 85.1501 126.15 84.6383 126.142C84.5752 126.015 84.5121 125.889 84.4471 125.759C84.7654 125.666 85.0843 125.575 85.4034 125.484C85.5809 125.433 85.7584 125.382 85.9413 125.33C87.2657 125.016 88.5447 124.968 89.8981 124.982Z" fill="black"/>
<path d="M96.8912 94.93C97.1487 94.9265 97.1487 94.9265 97.4115 94.9229C97.5773 94.9226 97.7431 94.9222 97.914 94.9218C98.0641 94.921 98.2143 94.9202 98.369 94.9194C98.8386 94.971 99.1499 95.1143 99.5569 95.3484C99.0378 95.608 98.6296 95.5612 98.0492 95.5584C97.8261 95.5577 97.6029 95.5571 97.3731 95.5565C97.1391 95.5549 96.9051 95.5533 96.664 95.5516C96.4286 95.5508 96.1931 95.5499 95.9505 95.549C95.3675 95.5468 94.7845 95.5436 94.2015 95.5397C94.1384 95.4135 94.0753 95.2872 94.0103 95.1572C94.9633 94.9085 95.9135 94.9307 96.8912 94.93Z" fill="#F2D3A3"/>
<path d="M107.207 180.269C107.271 180.395 107.334 180.522 107.399 180.652C107.154 180.675 106.91 180.699 106.658 180.723C105.993 180.784 105.993 180.784 105.486 181.226C104.945 181.27 104.945 181.27 104.291 181.261C103.97 181.26 103.97 181.26 103.642 181.258C103.031 181.227 102.453 181.148 101.852 181.034C101.852 180.971 101.852 180.908 101.852 180.843C102.529 180.746 103.207 180.651 103.884 180.556C104.075 180.529 104.266 180.501 104.463 180.473C105.385 180.345 106.274 180.231 107.207 180.269Z" fill="black"/>
<path d="M158.849 77.561C159.038 77.561 159.227 77.561 159.422 77.561C159.602 78.9073 159.634 80.2201 159.614 81.5776C158.959 80.595 158.802 80.058 158.825 78.8521C158.828 78.6104 158.832 78.3688 158.835 78.1199C158.84 77.9355 158.844 77.751 158.849 77.561Z" fill="#F2D3A3"/>
<path d="M31.2759 138.957C31.339 139.083 31.4021 139.209 31.4671 139.339C31.3252 139.719 31.3252 139.719 31.1085 140.164C30.8159 140.79 30.6361 141.336 30.5108 142.017C30.3348 142.471 30.1375 142.911 29.937 143.356C29.7069 143.069 29.7069 143.069 29.5545 142.591C29.737 142.045 29.9301 141.564 30.1761 141.048C30.2385 140.911 30.3009 140.773 30.3651 140.631C30.6383 140.036 30.911 139.504 31.2759 138.957Z" fill="#F2D3A3"/>
<path d="M125.377 69.5278C126.05 70.2006 125.962 71.0825 125.963 71.9903C125.96 72.2533 125.956 72.5163 125.951 72.7793C125.825 72.8424 125.699 72.9055 125.569 72.9706C124.873 70.5363 124.873 70.5363 125.377 69.5278Z" fill="black"/>
<path d="M111.224 153.684C111.287 153.684 111.35 153.684 111.415 153.684C111.415 154.757 111.415 155.83 111.415 156.935C111.163 156.935 110.91 156.935 110.65 156.935C110.672 156.501 110.696 156.066 110.722 155.632C110.735 155.39 110.748 155.148 110.762 154.899C110.841 154.257 110.841 154.257 111.224 153.684Z" fill="#F2D3A3"/>
<path d="M29.5545 144.694C29.6176 144.694 29.6808 144.694 29.7458 144.694C29.7662 145.926 29.7385 147.109 29.5545 148.328C29.172 148.137 29.172 148.137 29.0532 147.799C28.9761 147.345 28.962 146.924 28.9688 146.464C28.9705 146.311 28.9722 146.158 28.974 146C28.9762 145.885 28.9785 145.77 28.9807 145.651C29.107 145.651 29.2332 145.651 29.3633 145.651C29.4264 145.335 29.4895 145.019 29.5545 144.694Z" fill="#F2D3A3"/>
<path d="M34.7187 133.792C34.7187 134.853 34.2665 135.463 33.5591 136.219C33.0235 136.779 33.0235 136.779 32.6148 137.426C32.4885 137.363 32.3623 137.3 32.2322 137.235C33.8124 134.812 33.8124 134.812 34.7187 133.792Z" fill="#F2D3A3"/>
<path d="M79.283 7.55875C79.283 7.7481 79.283 7.93745 79.283 8.13254C78.3171 8.33067 77.3944 8.34341 76.4141 8.3238C76.4772 8.13445 76.5403 7.9451 76.6053 7.75001C77.5088 7.62539 78.3687 7.53589 79.283 7.55875Z" fill="#F2D3A3"/>
<path d="M114.858 69.5278C115.377 70.2883 115.283 71.0845 115.264 71.9664C115.263 72.1181 115.261 72.2697 115.259 72.4259C115.255 72.7988 115.248 73.1716 115.24 73.5444C114.785 72.8606 114.779 72.4573 114.726 71.6437C114.71 71.4092 114.693 71.1747 114.676 70.9332C114.668 70.4042 114.693 70.0236 114.858 69.5278Z" fill="black"/>
<path d="M60.5392 11.7666C60.0328 12.046 59.7943 12.1491 59.2003 12.1491C59.2003 12.2754 59.2003 12.4016 59.2003 12.5317C58.7084 12.8414 58.4971 12.9226 57.9093 12.8425C57.7673 12.803 57.6253 12.7636 57.4789 12.7229C57.911 12.2315 58.2823 12.0191 58.9015 11.8144C59.0472 11.7641 59.1929 11.7138 59.343 11.662C59.8133 11.5675 60.0891 11.6149 60.5392 11.7666Z" fill="#F2D3A3"/>
<path d="M70.2936 184.86C70.3567 184.86 70.4198 184.86 70.4849 184.86C70.5273 185.358 70.5667 185.856 70.6044 186.354C70.6167 186.495 70.6291 186.636 70.6418 186.782C70.7195 187.855 70.7195 187.855 70.2936 188.494C70.1594 188.874 70.0309 189.256 69.9111 189.641C69.6768 188.939 69.772 188.518 69.8872 187.789C69.9237 187.551 69.9601 187.313 69.9977 187.068C70.0323 186.844 70.0668 186.62 70.1023 186.39C70.1702 185.88 70.2323 185.37 70.2936 184.86Z" fill="#F2D3A3"/>
<path d="M49.6371 153.875C49.7003 153.875 49.7634 153.875 49.8284 153.875C50.0333 154.756 49.9675 155.158 49.6371 155.979C49.555 156.411 49.4836 156.846 49.422 157.282C49.3899 157.504 49.3579 157.726 49.3248 157.955C49.3017 158.123 49.2785 158.292 49.2546 158.465C49.1915 158.465 49.1284 158.465 49.0633 158.465C49.014 157.01 48.9741 155.201 49.6371 153.875Z" fill="#F2D3A3"/>
<path d="M79.8568 75.0747C79.983 75.1378 80.1092 75.2009 80.2393 75.266C80.2496 75.6086 80.257 75.9513 80.2632 76.294C80.2676 76.4848 80.2721 76.6757 80.2766 76.8723C80.2393 77.3699 80.2393 77.3699 79.8568 77.7524C79.602 76.988 79.6398 76.2542 79.6655 75.4572C79.7286 75.331 79.7917 75.2048 79.8568 75.0747Z" fill="black"/>
<path d="M170.707 147.563C170.988 148.012 171.104 148.234 171.021 148.766C170.969 148.914 170.916 149.061 170.862 149.213C170.812 149.362 170.762 149.51 170.711 149.663C170.516 150.05 170.516 150.05 169.942 150.432C169.981 150.289 170.02 150.146 170.061 149.999C170.112 149.811 170.164 149.622 170.217 149.428C170.268 149.242 170.319 149.056 170.371 148.863C170.488 148.431 170.6 147.998 170.707 147.563Z" fill="#ECECEB"/>
<path d="M161.144 65.3203C161.692 65.43 161.882 65.4851 162.291 65.8941C162.165 65.8941 162.039 65.8941 161.909 65.8941C161.972 66.0953 162.035 66.2965 162.1 66.5038C162.261 67.116 162.329 67.566 162.291 68.1893C161.9 67.6021 161.718 67.1008 161.502 66.432C161.435 66.2242 161.367 66.0163 161.298 65.8022C161.247 65.6432 161.196 65.4842 161.144 65.3203Z" fill="#ECECEB"/>
<path d="M131.115 187.92C131.242 187.983 131.368 188.046 131.498 188.111C131.57 189.297 131.466 190.109 130.924 191.171C130.616 190.555 130.826 189.919 130.924 189.259C130.96 189.004 130.996 188.749 131.032 188.494C131.059 188.304 131.087 188.115 131.115 187.92Z" fill="#F2D3A3"/>
<path d="M111.224 148.52C111.287 148.52 111.35 148.52 111.415 148.52C111.415 149.656 111.415 150.792 111.415 151.962C111.352 151.962 111.289 151.962 111.224 151.962C111.161 151.584 111.098 151.205 111.033 150.815C110.97 150.815 110.906 150.815 110.841 150.815C110.801 149.96 110.92 149.319 111.224 148.52Z" fill="#F2D3A3"/>
<path d="M17.3137 65.1289C17.6292 65.1289 17.9448 65.1289 18.27 65.1289C18.1835 65.4361 18.0956 65.7428 18.007 66.0494C17.9582 66.2202 17.9094 66.3911 17.8591 66.5671C17.6962 67.0415 17.6962 67.0415 17.3137 67.6153C17.3297 67.4679 17.3457 67.3205 17.3622 67.1686C17.3914 66.8808 17.3914 66.8808 17.4212 66.5873C17.4412 66.3965 17.4612 66.2056 17.4818 66.009C17.5454 65.5145 17.5454 65.5145 17.3137 65.1289Z" fill="#ECECEB"/>
<path d="M146.034 152.154C145.528 152.433 145.289 152.536 144.695 152.536C144.695 152.662 144.695 152.789 144.695 152.919C144.127 152.824 144.127 152.824 143.547 152.727C143.611 152.601 143.674 152.475 143.739 152.345C145.201 151.89 145.201 151.89 146.034 152.154Z" fill="black"/>
<path d="M42.3692 151.962C42.2429 151.962 42.1167 151.962 41.9866 151.962C41.9866 152.089 41.9866 152.215 41.9866 152.345C41.2094 152.493 40.4825 152.555 39.6915 152.536C41.4288 151.601 41.4288 151.601 42.3692 151.962Z" fill="black"/>
<path d="M29.3633 60.3472C29.4895 60.4103 29.6157 60.4734 29.7458 60.5384C29.0781 61.3043 28.6653 61.6146 27.6419 61.686C28.1667 61.1223 28.6715 60.693 29.3633 60.3472Z" fill="#F2D3A3"/>
<path d="M101.278 7.17603C101.589 7.16571 101.9 7.15828 102.211 7.15212C102.384 7.14768 102.557 7.14324 102.735 7.13867C103.191 7.17603 103.191 7.17603 103.573 7.55855C102.73 7.76938 101.951 7.76446 101.087 7.74982C101.15 7.56047 101.213 7.37112 101.278 7.17603Z" fill="black"/>
<path d="M76.7017 7.15723C76.9912 7.16055 76.9912 7.16055 77.2867 7.16395C77.4802 7.16568 77.6737 7.1674 77.8732 7.16918C78.0976 7.17251 78.0976 7.17251 78.3267 7.1759C78.2635 7.36526 78.2004 7.55461 78.1354 7.74969C76.7146 7.80434 76.7146 7.80434 76.0315 7.36717C76.2228 7.1759 76.2228 7.1759 76.7017 7.15723Z" fill="black"/>
<path d="M45.8119 146.607C46.1944 147.181 46.1944 147.181 46.1466 147.647C46.0133 148.103 45.8506 148.488 45.6206 148.902C45.3422 148.037 45.5689 147.464 45.8119 146.607Z" fill="black"/>
<path d="M69.146 144.886C69.5285 145.46 69.5285 145.46 69.4807 145.914C69.3369 146.417 69.1609 146.891 68.9547 147.372C68.7495 146.746 68.784 146.334 68.9428 145.699C68.98 145.546 69.0173 145.393 69.0556 145.235C69.0854 145.12 69.1153 145.005 69.146 144.886Z" fill="black"/>
<path d="M75.0752 7.55855C75.0752 7.7479 75.0752 7.93725 75.0752 8.13234C74.2231 8.22702 74.2231 8.22702 73.3538 8.32361C73.2907 8.13426 73.2276 7.9449 73.1625 7.74982C73.8268 7.52838 74.3791 7.54542 75.0752 7.55855Z" fill="black"/>
<path d="M72.6366 180.52C72.747 180.564 72.8575 180.607 72.9713 180.652C72.3593 181.176 71.8228 181.537 71.0587 181.799C71.3635 181.063 71.7607 180.399 72.6366 180.52Z" fill="black"/>
<path d="M48.4896 157.318C48.9543 158.015 48.9031 158.41 48.8721 159.231C48.6828 159.231 48.4934 159.231 48.2983 159.231C48.2932 158.948 48.2895 158.665 48.2864 158.382C48.2842 158.224 48.2819 158.067 48.2797 157.904C48.2983 157.509 48.2983 157.509 48.4896 157.318Z" fill="black"/>
<path d="M87.198 124.574C87.3711 124.579 87.5442 124.583 87.7225 124.588C87.9836 124.593 87.9836 124.593 88.25 124.598C88.3836 124.603 88.5172 124.607 88.6549 124.612C88.424 124.902 88.424 124.902 88.0811 125.185C87.6485 125.2 87.6485 125.2 87.1846 125.126C86.9527 125.091 86.9527 125.091 86.7161 125.056C86.5985 125.036 86.4809 125.015 86.3597 124.994C86.7423 124.612 86.7423 124.612 87.198 124.574Z" fill="#F2D3A3"/>
<path d="M49.8284 152.919C50.2109 153.301 50.2109 153.301 50.2588 153.875C50.2109 154.449 50.2109 154.449 49.8284 154.832C49.7913 154.549 49.7557 154.266 49.7208 153.983C49.7009 153.825 49.6809 153.668 49.6603 153.505C49.6527 153.375 49.645 153.245 49.6371 153.11C49.7003 153.047 49.7634 152.984 49.8284 152.919Z" fill="#F2D3A3"/>
<path d="M39.5002 151.771C40.1314 151.771 40.7626 151.771 41.4129 151.771C40.8379 152.346 40.299 152.267 39.5002 152.345C39.5002 152.155 39.5002 151.966 39.5002 151.771Z" fill="#F2D3A3"/>
<path d="M115.814 195.188C116.256 195.188 116.698 195.188 117.153 195.188C117.153 195.377 117.153 195.567 117.153 195.762C116.711 195.762 116.269 195.762 115.814 195.762C115.814 195.572 115.814 195.383 115.814 195.188Z" fill="black"/>
<path d="M130.924 117.726C130.861 117.916 130.798 118.105 130.733 118.3C130.102 118.237 129.47 118.174 128.82 118.109C129.627 117.706 130.044 117.692 130.924 117.726Z" fill="#F2D3A3"/>
<path d="M60.3479 6.6025C59.6427 7.07267 59.067 7.17867 58.244 7.36755C58.3071 7.1782 58.3703 6.98885 58.4353 6.79376C59.0867 6.64488 59.68 6.58342 60.3479 6.6025Z" fill="#ECECEB"/>
<path d="M110.076 157.126C110.266 157.19 110.455 157.253 110.65 157.318C110.587 157.696 110.524 158.075 110.459 158.465C110.27 158.465 110.08 158.465 109.885 158.465C109.948 158.023 110.011 157.582 110.076 157.126Z" fill="black"/>
<path d="M144.886 151.771C144.823 151.961 144.76 152.15 144.695 152.345C144.064 152.282 143.433 152.219 142.782 152.154C142.782 152.091 142.782 152.027 142.782 151.962C143.497 151.794 144.153 151.754 144.886 151.771Z" fill="#F2D3A3"/>
<path d="M46.7682 142.782C47.1133 143.309 47.1532 143.526 47.079 144.168C47.0396 144.342 47.0001 144.516 46.9595 144.694C46.8333 144.568 46.707 144.442 46.577 144.312C46.5833 143.79 46.6848 143.299 46.7682 142.782Z" fill="black"/>
<path d="M124.11 76.461C124.213 76.5084 124.315 76.5557 124.421 76.6045C123.431 77.2209 123.431 77.2209 123.082 77.3695C122.893 77.3064 122.704 77.2433 122.508 77.1783C123.544 76.4014 123.544 76.4014 124.11 76.461Z" fill="#F4A99C"/>
<path d="M21.5214 70.8667C21.6477 70.9298 21.7739 70.9929 21.904 71.058C21.7938 71.5142 21.6702 71.9506 21.5214 72.3968C21.3952 72.3968 21.269 72.3968 21.1389 72.3968C21.3063 71.0819 21.3063 71.0819 21.5214 70.8667Z" fill="#F2D3A3"/>
<path d="M159.422 163.629C159.422 163.819 159.422 164.008 159.422 164.203C159.076 164.538 159.076 164.538 158.657 164.777C158.468 164.714 158.279 164.651 158.083 164.586C158.525 164.27 158.967 163.955 159.422 163.629Z" fill="#ECECEB"/>
<path d="M47.1507 141.443C47.4605 141.935 47.5417 142.146 47.4615 142.734C47.4221 142.876 47.3826 143.018 47.342 143.164C47.2158 143.038 47.0895 142.912 46.9595 142.782C47.0312 142.088 47.0312 142.088 47.1507 141.443Z" fill="black"/>
<path d="M154.641 102.234C154.83 102.234 155.019 102.234 155.215 102.234C155.071 102.7 155.071 102.7 154.832 103.19C154.426 103.346 154.426 103.346 154.067 103.381C154.256 103.003 154.446 102.624 154.641 102.234Z" fill="black"/>
<path d="M77.5181 50.9751C79.939 53.1064 81.8196 56.4361 82.1759 59.6859C82.5657 66.0705 80.0814 71.4646 75.9282 76.2322C75.5088 76.6944 75.0816 77.1478 74.6518 77.6003C74.4604 77.8232 74.27 78.0471 74.0808 78.2721C73.3381 79.13 72.5223 79.918 71.7126 80.712C71.1687 81.2486 70.6433 81.7901 70.1474 82.3715C69.3895 83.2422 68.584 84.0619 67.7716 84.8815C67.6133 85.0412 67.4551 85.2009 67.292 85.3655C66.9592 85.7007 66.6262 86.0357 66.2929 86.3704C65.868 86.7973 65.4452 87.2263 65.0228 87.6558C64.6157 88.0687 64.2061 88.4791 63.7969 88.8898C63.6466 89.0432 63.4964 89.1966 63.3415 89.3546C62.3709 90.3217 61.6369 90.9206 60.2532 91.1256C58.8971 90.9386 57.8429 90.0451 56.7529 89.267C55.6173 88.485 54.4386 87.7678 53.2709 87.0351C52.2986 86.4235 51.3303 85.8056 50.3621 85.1876C49.5267 84.6546 48.6898 84.1244 47.8489 83.6002C44.8055 81.6969 41.8372 79.6676 39.1814 77.242C39.0782 77.1479 38.9751 77.0538 38.8688 76.9568C35.7046 74.03 33.2126 70.2783 33.0066 65.8524C33.0005 65.454 32.9987 65.0556 33.001 64.6572C33.002 64.4466 33.003 64.2361 33.0041 64.0192C33.0748 60.5515 34.3652 57.626 36.6734 55.0282C36.7745 54.9143 36.8757 54.8005 36.9799 54.6832C39.0947 52.4442 42.1005 50.9974 45.1757 50.8652C49.3453 50.7702 52.711 51.88 55.8418 54.6699C56.139 54.9104 56.4373 55.1497 56.7375 55.3865C56.8523 55.22 56.967 55.0535 57.0853 54.8819C59.4523 51.4813 62.661 48.8712 66.8444 48.12C70.7187 47.6468 74.4216 48.5685 77.5181 50.9751Z" fill="#FF6060"/>
<path d="M118.363 50.729C119.659 51.7331 120.714 52.8632 121.638 54.2209C121.958 54.6885 122.304 55.127 122.662 55.5659C122.75 55.4682 122.837 55.3705 122.927 55.2698C125.213 52.8383 128.5 50.9717 131.886 50.8542C135.643 50.8159 138.617 51.5936 141.472 54.1327C141.65 54.2855 141.65 54.2855 141.831 54.4413C144.157 56.5844 145.78 59.9154 145.985 63.0694C145.999 63.6142 146 64.1573 145.996 64.7022C145.997 64.8841 145.999 65.0661 146 65.2536C145.988 69.7968 143.685 73.4965 140.633 76.7048C137.929 79.3233 134.628 81.4398 131.462 83.4493C130.814 83.862 130.17 84.281 129.526 84.6991C129.27 84.8647 129.014 85.0304 128.757 85.1959C128.318 85.4801 127.878 85.7647 127.439 86.0497C126.451 86.6883 125.459 87.3187 124.461 87.9405C124.27 88.0593 124.079 88.1782 123.882 88.3007C123.502 88.5373 123.122 88.7735 122.741 89.0092C121.984 89.4793 121.237 89.9461 120.522 90.4786C120.032 90.818 119.762 90.987 119.18 91.0475C119.059 91.0643 118.937 91.0812 118.811 91.0986C117.539 90.922 116.601 90.0954 115.735 89.2086C115.624 89.099 115.514 88.9894 115.401 88.8764C115.041 88.5167 114.683 88.1545 114.326 87.7921C114.074 87.5394 113.822 87.2868 113.57 87.0343C113.043 86.5059 112.517 85.9764 111.992 85.4459C111.322 84.769 110.65 84.094 109.978 83.4197C109.333 82.7729 108.689 82.1252 108.045 81.4773C107.923 81.3553 107.802 81.2332 107.677 81.1075C106.485 79.9084 105.303 78.7134 104.211 77.4214C103.961 77.1522 103.711 76.8834 103.46 76.6152C101.621 74.5659 100.078 72.3543 98.8363 69.8973C98.7774 69.782 98.7185 69.6666 98.6578 69.5477C96.8009 65.8386 96.2045 61.553 97.4031 57.5364C98.0289 55.731 98.8797 54.1853 100.09 52.6996C100.176 52.5846 100.262 52.4696 100.351 52.3511C104.689 46.7907 113.009 47.0533 118.363 50.729Z" fill="#FF6060"/>
<path d="M118.363 50.729C119.659 51.7331 120.714 52.8632 121.638 54.2209C121.958 54.6885 122.304 55.127 122.662 55.5659C122.75 55.4682 122.837 55.3705 122.927 55.2698C125.213 52.8383 128.5 50.9717 131.886 50.8542C135.643 50.8159 138.617 51.5936 141.472 54.1327C141.65 54.2855 141.65 54.2855 141.831 54.4413C144.157 56.5844 145.78 59.9154 145.985 63.0694C145.999 63.6142 146 64.1573 145.996 64.7022C145.997 64.8841 145.999 65.0661 146 65.2536C145.988 69.7968 143.685 73.4965 140.633 76.7048C137.929 79.3233 134.628 81.4398 131.462 83.4493C130.814 83.862 130.17 84.281 129.526 84.6991C129.27 84.8647 129.014 85.0304 128.757 85.1959C128.318 85.4801 127.878 85.7647 127.439 86.0497C126.451 86.6883 125.459 87.3187 124.461 87.9405C124.27 88.0593 124.079 88.1782 123.882 88.3007C123.502 88.5373 123.122 88.7735 122.741 89.0092C121.984 89.4793 121.237 89.9461 120.522 90.4786C120.032 90.818 119.762 90.987 119.18 91.0475C119.059 91.0643 118.937 91.0812 118.811 91.0986C117.539 90.922 116.601 90.0954 115.735 89.2086C115.624 89.099 115.514 88.9894 115.401 88.8764C115.041 88.5167 114.683 88.1545 114.326 87.7921C114.074 87.5394 113.822 87.2868 113.57 87.0343C113.043 86.5059 112.517 85.9764 111.992 85.4459C111.322 84.769 110.65 84.094 109.978 83.4197C109.333 82.7729 108.689 82.1252 108.045 81.4773C107.923 81.3553 107.802 81.2332 107.677 81.1075C106.485 79.9084 105.303 78.7134 104.211 77.4214C103.961 77.1522 103.711 76.8834 103.46 76.6152C101.621 74.5659 100.078 72.3543 98.8363 69.8973C98.7774 69.782 98.7185 69.6666 98.6578 69.5477C96.8009 65.8386 96.2045 61.553 97.4031 57.5364C98.0289 55.731 98.8797 54.1853 100.09 52.6996C100.176 52.5846 100.262 52.4696 100.351 52.3511C104.689 46.7907 113.009 47.0533 118.363 50.729ZM104.569 54.8493C104.455 54.9389 104.34 55.0285 104.222 55.1208C102.932 56.2586 101.82 58.4021 101.664 60.113C101.406 65.9716 103.968 70.0015 107.793 74.1968C108.106 74.5218 108.423 74.8393 108.748 75.1513C109.044 75.4469 109.312 75.7539 109.582 76.0729C110.374 76.9831 111.224 77.833 112.078 78.6836C112.35 78.9548 112.621 79.2271 112.892 79.4994C113.746 80.3531 114.609 81.1836 115.526 81.9688C116.1 82.4742 116.63 83.0221 117.165 83.5682C117.38 83.7882 117.596 84.0077 117.812 84.2267C117.952 84.3696 117.952 84.3696 118.094 84.5153C118.519 84.9119 118.779 85.1255 119.371 85.1211C120.219 84.8745 120.861 84.421 121.588 83.9265C121.908 83.7134 122.228 83.5004 122.548 83.2876C122.714 83.177 122.88 83.0663 123.05 82.9523C123.88 82.4033 124.721 81.8721 125.562 81.3401C125.894 81.1291 126.227 80.918 126.559 80.7068C126.718 80.6057 126.877 80.5045 127.041 80.4003C135.94 75.1975 135.94 75.1975 141.17 66.7511C141.668 64.1192 141.077 61.4281 139.58 59.2271C138.276 57.5152 136.606 56.2182 134.486 55.745C132.65 55.634 130.959 55.5883 129.291 56.4616C129.052 56.5859 129.052 56.5859 128.809 56.7128C126.755 57.9064 125.197 59.5475 124.132 61.6588C123.674 62.5223 123.228 62.8028 122.304 63.0899C121.487 63.2214 120.704 63.1389 119.975 62.7316C119.592 62.157 119.569 61.932 119.505 61.2649C119.145 58.9622 117.881 56.975 116.213 55.3867C116.095 55.2694 115.977 55.1521 115.856 55.0312C113.929 53.2171 111.731 52.7678 109.169 52.8234C107.337 52.9115 105.974 53.7209 104.569 54.8493Z" fill="black"/>
<path d="M77.5181 50.9751C79.939 53.1064 81.8196 56.4361 82.1759 59.6859C82.5657 66.0705 80.0814 71.4646 75.9282 76.2322C75.5089 76.6944 75.0816 77.1478 74.6518 77.6003C74.4604 77.8232 74.27 78.0471 74.0808 78.2721C73.3381 79.13 72.5223 79.918 71.7126 80.712C71.1687 81.2486 70.6433 81.7901 70.1474 82.3715C69.3895 83.2422 68.584 84.0619 67.7716 84.8815C67.6133 85.0412 67.4551 85.2009 67.292 85.3655C66.9592 85.7007 66.6262 86.0357 66.2929 86.3704C65.868 86.7973 65.4452 87.2263 65.0228 87.6558C64.6157 88.0687 64.2061 88.4791 63.7969 88.8898C63.6466 89.0432 63.4964 89.1966 63.3415 89.3546C62.3709 90.3217 61.6369 90.9206 60.2532 91.1256C58.8971 90.9386 57.8429 90.0451 56.7529 89.267C55.6173 88.485 54.4386 87.7678 53.2709 87.0351C52.2986 86.4235 51.3303 85.8056 50.3621 85.1876C49.5267 84.6546 48.6898 84.1244 47.8489 83.6002C44.8055 81.6969 41.8372 79.6676 39.1814 77.242C39.0782 77.1479 38.9751 77.0538 38.8688 76.9568C35.7046 74.03 33.2126 70.2783 33.0066 65.8524C33.0005 65.454 32.9987 65.0556 33.001 64.6572C33.002 64.4466 33.003 64.2361 33.0041 64.0192C33.0748 60.5515 34.3652 57.626 36.6734 55.0282C36.7745 54.9143 36.8757 54.8005 36.9799 54.6832C39.0947 52.4442 42.1005 50.9974 45.1757 50.8652C49.3453 50.7702 52.711 51.88 55.8418 54.6699C56.139 54.9104 56.4373 55.1497 56.7375 55.3865C56.8523 55.22 56.967 55.0535 57.0853 54.8819C59.4523 51.4813 62.661 48.8712 66.8444 48.12C70.7187 47.6468 74.4216 48.5685 77.5181 50.9751ZM61.9319 56.3228C60.6622 57.875 59.8064 59.6203 59.6654 61.6299C59.5965 62.0604 59.4709 62.3594 59.2455 62.7314C58.4623 63.2208 57.4528 63.2196 56.5583 63.0896C55.729 62.7257 55.4767 62.2961 55.1028 61.4885C53.6988 58.7479 51.3326 56.8647 48.4682 55.7769C46.3138 55.1488 44.1297 55.6886 42.2045 56.7412C39.9939 58.1826 38.4552 60.167 37.849 62.7537C37.8071 63.0438 37.7737 63.3351 37.7483 63.6271C37.7337 63.7878 37.7192 63.9485 37.7042 64.1141C37.5712 67.1112 38.706 69.9427 40.7041 72.1476C44.2576 75.8732 49.0399 78.4943 53.3636 81.2204C54.2412 81.7754 55.1157 82.3352 55.9903 82.895C56.2813 83.0812 56.5725 83.2673 56.8637 83.4534C57.0419 83.5674 57.2201 83.6815 57.4037 83.7989C57.5702 83.905 57.7367 84.011 57.9082 84.1203C58.2673 84.354 58.6135 84.5971 58.96 84.8486C59.4995 85.1687 59.7043 85.212 60.3204 85.1243C60.7992 84.7957 60.7992 84.7957 61.2791 84.3098C61.3765 84.2166 61.474 84.1234 61.5745 84.0274C61.9357 83.6794 62.2926 83.3273 62.6492 82.9746C62.7984 82.8278 62.9476 82.6809 63.1013 82.5297C64.2586 81.389 65.4083 80.2408 66.5561 79.0905C66.9317 78.7144 67.3079 78.339 67.6842 77.9636C68.0509 77.5975 68.4172 77.231 68.7834 76.8644C69.0391 76.6086 69.2951 76.3531 69.5511 76.0976C73.7079 71.9259 77.3909 67.3156 77.3954 61.1899C77.3608 58.7136 76.4583 56.7517 74.8198 54.8938C73.2019 53.3782 70.8686 52.5976 68.6799 52.6552C65.898 52.9122 63.7715 54.2789 61.9319 56.3228Z" fill="black"/>
<path d="M50.6427 0.00417154C52.263 -0.0483837 53.7971 0.39354 55.0422 1.44964C55.0743 1.47685 55.0743 1.47685 55.107 1.5046C56.1079 2.36417 56.7296 3.53322 57.0377 4.80467C57.0494 4.85286 57.0494 4.85286 57.0614 4.90203C57.1827 5.43391 57.217 5.9521 57.2105 6.4947C57.21 6.55372 57.2097 6.61274 57.2094 6.67176C57.2085 6.81388 57.2071 6.95599 57.2054 7.0981C57.253 7.07972 57.3005 7.06134 57.3494 7.0424C58.1359 6.74245 58.8934 6.56064 59.7417 6.56731C59.7926 6.56761 59.8434 6.56791 59.8957 6.56822C60.8228 6.57882 61.6216 6.77186 62.4533 7.17822C62.4999 7.20095 62.5466 7.22367 62.5946 7.24708C63.7328 7.83204 64.7242 8.79594 65.2976 9.94237C65.3109 9.96881 65.3243 9.99526 65.338 10.0225C65.9641 11.2844 66.1657 12.7709 65.8584 14.1487C65.8513 14.1805 65.8442 14.2122 65.8369 14.245C65.568 15.4128 65.0176 16.4594 64.1759 17.3134C64.1457 17.3441 64.1155 17.3749 64.0843 17.4065C63.3017 18.1543 62.0993 18.8216 61.0111 18.9158C61.0562 18.9727 61.0562 18.9727 61.1022 19.0307C61.8355 19.9711 62.332 21.0929 62.4934 22.2809C62.4978 22.3131 62.5023 22.3454 62.5068 22.3787C62.6356 23.5186 62.439 24.6813 61.9726 25.726C61.9526 25.7715 61.9325 25.817 61.9119 25.8639C61.6313 26.4624 61.2307 26.9777 60.7708 27.4486C60.7354 27.487 60.7354 27.487 60.6993 27.5262C59.9415 28.3306 58.8625 28.7977 57.8063 29.051C57.7626 29.0617 57.7626 29.0617 57.718 29.0726C57.312 29.1681 56.9119 29.1798 56.4964 29.1808C56.4055 29.1812 56.3147 29.1824 56.2238 29.1837C55.6708 29.1877 55.1387 29.1094 54.6091 28.9459C54.5596 28.9307 54.5596 28.9307 54.5092 28.9152C53.7203 28.6635 52.9843 28.273 52.3582 27.729C52.325 27.7002 52.2918 27.6714 52.2576 27.6417C52.1562 27.552 52.0566 27.4607 51.9576 27.3685C51.9279 27.3415 51.8983 27.3145 51.8678 27.2866C51.5226 26.9593 51.2569 26.5624 50.9961 26.1667C50.9743 26.2025 50.9525 26.2384 50.9299 26.2753C50.7367 26.5871 50.5325 26.8646 50.2751 27.1281C50.242 27.162 50.209 27.1959 50.1749 27.2308C50.1419 27.263 50.1088 27.2952 50.0748 27.3284C50.0504 27.3541 50.026 27.3799 50.0009 27.4064C48.9247 28.5254 47.3744 29.1562 45.8331 29.1868C45.2635 29.1943 44.7018 29.1872 44.1459 29.051C44.0966 29.0399 44.0472 29.0287 43.9964 29.0172C42.9273 28.7559 42.0834 28.2528 41.2615 27.5287C41.2332 27.5038 41.2048 27.4789 41.1756 27.4533C40.151 26.4912 39.482 24.951 39.4123 23.5535C39.3901 21.7971 39.7756 20.2693 40.9411 18.9158C40.8898 18.9142 40.8386 18.9125 40.7858 18.9108C39.7874 18.8069 38.8028 18.1927 38.0567 17.5538C38.0205 17.5229 37.9843 17.4921 37.947 17.4604C37.6866 17.2316 37.4648 16.9886 37.2555 16.7125C37.2393 16.6912 37.223 16.67 37.2063 16.648C36.4837 15.6965 36.0208 14.5067 36.0027 13.3027C36.0022 13.272 36.0017 13.2413 36.0012 13.2097C35.9884 12.2349 36.0738 11.3314 36.4543 10.4231C36.4656 10.3957 36.4769 10.3683 36.4886 10.34C36.776 9.65411 37.1954 9.04751 37.6962 8.50021C37.7297 8.46339 37.7632 8.42657 37.7978 8.38863C38.2769 7.88632 38.8413 7.49114 39.4588 7.17822C39.4841 7.16533 39.5094 7.15243 39.5355 7.13914C41.0575 6.37285 42.7093 6.42888 44.2989 6.94806C44.4361 6.99496 44.5714 7.04615 44.7067 7.0981C44.7058 7.05801 44.7058 7.05801 44.7048 7.01711C44.6666 5.13278 45.1346 3.29533 46.4635 1.90056C46.5187 1.84357 46.5742 1.7868 46.6296 1.73006C46.6536 1.70357 46.6776 1.67708 46.7024 1.64978C47.0869 1.23439 47.6149 0.947426 48.1118 0.688498C48.1364 0.67564 48.1611 0.662781 48.1864 0.649533C48.9476 0.258523 49.7881 0.03657 50.6427 0.00417154Z" fill="#F4A99C"/>
<path d="M50.6427 0.00417154C52.263 -0.0483837 53.7971 0.39354 55.0422 1.44964C55.0743 1.47685 55.0743 1.47685 55.107 1.5046C56.1079 2.36417 56.7296 3.53322 57.0377 4.80467C57.0494 4.85286 57.0494 4.85286 57.0614 4.90203C57.1827 5.43391 57.217 5.9521 57.2105 6.4947C57.21 6.55372 57.2097 6.61274 57.2094 6.67176C57.2085 6.81388 57.2071 6.95599 57.2054 7.0981C57.253 7.07972 57.3005 7.06134 57.3494 7.0424C58.1359 6.74245 58.8934 6.56064 59.7417 6.56731C59.7926 6.56761 59.8434 6.56791 59.8957 6.56822C60.8228 6.57882 61.6216 6.77186 62.4533 7.17822C62.4999 7.20095 62.5466 7.22367 62.5946 7.24708C63.7328 7.83204 64.7242 8.79594 65.2976 9.94237C65.3109 9.96881 65.3243 9.99526 65.338 10.0225C65.9641 11.2844 66.1657 12.7709 65.8584 14.1487C65.8513 14.1805 65.8442 14.2122 65.8369 14.245C65.568 15.4128 65.0176 16.4594 64.1759 17.3134C64.1457 17.3441 64.1155 17.3749 64.0843 17.4065C63.3017 18.1543 62.0993 18.8216 61.0111 18.9158C61.0562 18.9727 61.0562 18.9727 61.1022 19.0307C61.8355 19.9711 62.332 21.0929 62.4934 22.2809C62.4978 22.3131 62.5023 22.3454 62.5068 22.3787C62.6356 23.5186 62.439 24.6813 61.9726 25.726C61.9526 25.7715 61.9325 25.817 61.9119 25.8639C61.6313 26.4624 61.2307 26.9777 60.7708 27.4486C60.7354 27.487 60.7354 27.487 60.6993 27.5262C59.9415 28.3306 58.8625 28.7977 57.8063 29.051C57.7626 29.0617 57.7626 29.0617 57.718 29.0726C57.312 29.1681 56.9119 29.1798 56.4964 29.1808C56.4055 29.1812 56.3147 29.1824 56.2238 29.1837C55.6708 29.1877 55.1387 29.1094 54.6091 28.9459C54.5596 28.9307 54.5596 28.9307 54.5092 28.9152C53.7203 28.6635 52.9843 28.273 52.3582 27.729C52.325 27.7002 52.2918 27.6714 52.2576 27.6417C52.1562 27.552 52.0566 27.4607 51.9576 27.3685C51.9279 27.3415 51.8983 27.3145 51.8678 27.2866C51.5226 26.9593 51.2569 26.5624 50.9961 26.1667C50.9743 26.2025 50.9525 26.2384 50.9299 26.2753C50.7367 26.5871 50.5325 26.8646 50.2751 27.1281C50.242 27.162 50.209 27.1959 50.1749 27.2308C50.1419 27.263 50.1088 27.2952 50.0748 27.3284C50.0504 27.3541 50.026 27.3799 50.0009 27.4064C48.9247 28.5254 47.3744 29.1562 45.8331 29.1868C45.2635 29.1943 44.7018 29.1872 44.1459 29.051C44.0966 29.0399 44.0472 29.0287 43.9964 29.0172C42.9273 28.7559 42.0834 28.2528 41.2615 27.5287C41.2332 27.5038 41.2048 27.4789 41.1756 27.4533C40.151 26.4912 39.482 24.951 39.4123 23.5535C39.3901 21.7971 39.7756 20.2693 40.9411 18.9158C40.8898 18.9142 40.8386 18.9125 40.7858 18.9108C39.7874 18.8069 38.8028 18.1927 38.0567 17.5538C38.0205 17.5229 37.9843 17.4921 37.947 17.4604C37.6866 17.2316 37.4648 16.9886 37.2555 16.7125C37.2393 16.6912 37.223 16.67 37.2063 16.648C36.4837 15.6965 36.0208 14.5067 36.0027 13.3027C36.0022 13.272 36.0017 13.2413 36.0012 13.2097C35.9884 12.2349 36.0738 11.3314 36.4543 10.4231C36.4656 10.3957 36.4769 10.3683 36.4886 10.34C36.776 9.65411 37.1954 9.04751 37.6962 8.50021C37.7297 8.46339 37.7632 8.42657 37.7978 8.38863C38.2769 7.88632 38.8413 7.49114 39.4588 7.17822C39.4841 7.16533 39.5094 7.15243 39.5355 7.13914C41.0575 6.37285 42.7093 6.42888 44.2989 6.94806C44.4361 6.99496 44.5714 7.04615 44.7067 7.0981C44.7058 7.05801 44.7058 7.05801 44.7048 7.01711C44.6666 5.13278 45.1346 3.29533 46.4635 1.90056C46.5187 1.84357 46.5742 1.7868 46.6296 1.73006C46.6536 1.70357 46.6776 1.67708 46.7024 1.64978C47.0869 1.23439 47.6149 0.947426 48.1118 0.688498C48.1364 0.67564 48.1611 0.662781 48.1864 0.649533C48.9476 0.258523 49.7881 0.03657 50.6427 0.00417154ZM47.7112 2.65144C47.6615 2.69621 47.6615 2.69621 47.6108 2.74189C46.7251 3.58313 46.1548 4.85932 46.1045 6.08161C46.0833 7.05917 46.2235 7.95278 46.648 8.84154C46.7428 9.04813 46.7848 9.23379 46.7498 9.46165C46.655 9.59861 46.5484 9.6576 46.3892 9.70201C46.1755 9.73023 46.0544 9.69113 45.8821 9.574C45.7663 9.4847 45.656 9.38953 45.5455 9.2939C44.3718 8.28105 42.9303 7.84776 41.3902 7.94938C40.2157 8.07898 39.2135 8.77349 38.4706 9.66181C37.7621 10.5531 37.3553 11.6618 37.3657 12.8017C37.3662 12.8676 37.3662 12.8676 37.3666 12.9348C37.3846 14.2889 37.9159 15.4668 38.8504 16.4371C39.6724 17.2375 40.7174 17.6949 41.8655 17.6865C41.8951 17.6861 41.9247 17.6856 41.9552 17.6852C42.0453 17.684 42.1353 17.6836 42.2254 17.6833C42.5488 17.6816 42.8679 17.6684 43.1901 17.6379C43.3589 17.632 43.4447 17.6605 43.585 17.7541C43.7115 17.8928 43.7336 18.0387 43.7266 18.2215C43.6418 18.5914 43.1643 18.8484 42.8715 19.046C41.8984 19.721 41.2136 20.7748 40.9085 21.9103C40.9002 21.9411 40.8919 21.9718 40.8834 22.0035C40.5972 23.1309 40.7626 24.4715 41.3456 25.4818C41.5519 25.82 41.7864 26.1226 42.0627 26.407C42.0876 26.4344 42.1125 26.4618 42.1382 26.49C42.854 27.2537 44.0505 27.7596 45.0869 27.8169C45.7852 27.8322 46.4405 27.8359 47.1103 27.6088C47.1376 27.5998 47.1649 27.5909 47.193 27.5816C47.782 27.3819 48.3353 27.0687 48.7928 26.6474C48.8239 26.6189 48.8239 26.6189 48.8555 26.5898C49.741 25.7677 50.1833 24.757 50.4746 23.5992C50.5362 23.4235 50.6234 23.2847 50.7683 23.1672C50.9429 23.0941 51.0862 23.0976 51.264 23.1597C51.5126 23.3814 51.5693 23.7764 51.6496 24.0861C51.7593 24.4924 51.8904 24.8688 52.0778 25.2453C52.1067 25.3046 52.1067 25.3046 52.1361 25.3652C52.6782 26.4194 53.6396 27.2011 54.755 27.5818C56.0835 27.9959 57.4131 27.9341 58.6598 27.295C59.7521 26.7115 60.5646 25.7455 60.9459 24.5674C61.2362 23.608 61.2686 22.6419 60.9711 21.68C60.9621 21.6508 60.9531 21.6216 60.9438 21.5916C60.6371 20.6321 60.0163 19.7997 59.2485 19.1562C59.225 19.1346 59.2014 19.1131 59.1772 19.0909C59.0527 18.9773 58.9262 18.873 58.7873 18.7775C58.7623 18.7602 58.7373 18.7429 58.7115 18.7251C58.6616 18.6911 58.6114 18.6575 58.5609 18.6245C58.3993 18.5144 58.3139 18.4189 58.247 18.2348C58.2337 18.108 58.2496 17.996 58.2871 17.8743C58.3751 17.7659 58.4431 17.6961 58.5675 17.6339C58.6383 17.63 58.7093 17.6287 58.7803 17.6289C58.8182 17.6288 58.856 17.6287 58.895 17.6286C59.0081 17.6339 59.0081 17.6339 59.0992 17.6538C59.3227 17.6951 59.5526 17.6838 59.7793 17.684C59.8064 17.684 59.8334 17.684 59.8613 17.6841C61.2391 17.6819 62.3653 17.1597 63.3346 16.1917C64.1616 15.2929 64.6358 14.0791 64.6291 12.8592C64.6288 12.8156 64.6286 12.772 64.6284 12.727C64.6095 11.4619 64.0864 10.2905 63.2145 9.38153C63.1841 9.34863 63.1537 9.31574 63.1224 9.28185C62.3574 8.47804 61.2839 7.96282 60.1696 7.92732C60.0879 7.92654 60.0062 7.9264 59.9245 7.92685C59.8592 7.92719 59.8592 7.92719 59.7926 7.92753C58.5356 7.94625 57.2625 8.44794 56.3642 9.341C56.341 9.36511 56.3179 9.38923 56.2941 9.41408C56.1301 9.58194 55.9807 9.69006 55.7408 9.71953C55.5855 9.69978 55.4921 9.67007 55.3627 9.58183C55.2453 9.41902 55.2345 9.3068 55.2628 9.11078C55.2985 8.94824 55.3667 8.80005 55.4328 8.64793C55.5947 8.259 55.7135 7.87 55.8033 7.45865C55.8132 7.41387 55.8231 7.3691 55.8332 7.32297C55.9667 6.57487 55.922 5.78579 55.7232 5.05504C55.7159 5.02798 55.7086 5.00091 55.7011 4.97303C55.3601 3.75192 54.532 2.65341 53.4398 2.01048C51.5878 0.983814 49.2835 1.23591 47.7112 2.65144Z" fill="black"/>
<path d="M54.5749 11.1129C54.6794 11.2014 54.7809 11.2924 54.882 11.3847C54.9114 11.4114 54.9409 11.438 54.9713 11.4655C55.9524 12.3976 56.5338 13.8156 56.5757 15.1571C56.5987 16.4255 56.3503 17.591 55.603 18.6356C55.5867 18.6584 55.5704 18.6812 55.5536 18.7047C54.7072 19.8693 53.4857 20.7637 52.0452 20.9916C51.7499 21.0342 51.4546 21.0675 51.1564 21.0793C51.0796 21.0824 51.0796 21.0824 51.0013 21.0857C49.4538 21.1285 48.0705 20.47 46.9501 19.4368C46.0035 18.5183 45.4085 17.1247 45.381 15.8087C45.3774 15.3426 45.3849 14.8893 45.4679 14.4293C45.4726 14.4029 45.4773 14.3765 45.4822 14.3492C45.7383 12.98 46.5329 11.7638 47.6744 10.968C49.7589 9.56253 52.578 9.47587 54.5749 11.1129Z" fill="#F8E482"/>
<path d="M54.5749 11.1129C54.6794 11.2014 54.7809 11.2924 54.882 11.3847C54.9114 11.4114 54.9409 11.438 54.9713 11.4655C55.9524 12.3976 56.5338 13.8156 56.5757 15.1571C56.5987 16.4255 56.3503 17.591 55.603 18.6356C55.5867 18.6584 55.5704 18.6812 55.5536 18.7047C54.7072 19.8693 53.4857 20.7637 52.0452 20.9916C51.7499 21.0342 51.4546 21.0675 51.1564 21.0793C51.0796 21.0824 51.0796 21.0824 51.0013 21.0857C49.4538 21.1285 48.0705 20.47 46.9501 19.4368C46.0035 18.5183 45.4085 17.1247 45.381 15.8087C45.3774 15.3426 45.3849 14.8893 45.4679 14.4293C45.4726 14.4029 45.4773 14.3765 45.4822 14.3492C45.7383 12.98 46.5329 11.7638 47.6744 10.968C49.7589 9.56253 52.578 9.47587 54.5749 11.1129ZM48.1919 12.3061C48.1724 12.3237 48.1529 12.3412 48.1328 12.3593C47.3274 13.0925 46.807 14.148 46.7447 15.2384C46.6947 16.4315 47.0809 17.5071 47.884 18.4002C48.565 19.1347 49.4896 19.6486 50.4994 19.7287C50.6444 19.7332 50.7886 19.7339 50.9335 19.7322C50.9845 19.7318 51.0354 19.7314 51.0879 19.731C51.4452 19.7251 51.7747 19.7036 52.1178 19.597C52.1429 19.5893 52.1679 19.5815 52.1938 19.5736C52.8553 19.3629 53.4119 19.0245 53.9205 18.5555C53.9471 18.5322 53.9736 18.5089 54.001 18.4849C54.6709 17.8664 55.1558 16.8278 55.2087 15.9244C55.252 14.6453 54.95 13.5253 54.0745 12.5663C53.3654 11.814 52.4059 11.3043 51.3602 11.2596C50.1503 11.2291 49.106 11.4776 48.1919 12.3061Z" fill="black"/>
</svg>
