<svg width="196" height="201" viewBox="0 0 196 201" fill="none" xmlns="http://www.w3.org/2000/svg">
<path d="M107.606 3.54234C107.773 3.57113 107.941 3.59991 108.113 3.62958C114.669 4.78635 121.122 6.84536 127.309 9.28107C127.434 9.16595 127.434 9.16595 127.562 9.0485C128.263 8.42373 128.889 7.95648 129.772 7.60727C130.043 7.49631 130.043 7.49631 130.32 7.3831C131.866 6.87163 133.298 6.72569 134.924 6.73451C135.24 6.73613 135.24 6.73613 135.562 6.73778C147.47 6.91197 158.56 13.5083 166.686 21.8405C167.365 22.5515 167.993 23.2969 168.601 24.0688C169.039 24.6202 169.496 25.1508 169.955 25.6843C176.274 33.2656 180.679 43.7316 179.914 53.6606C179.551 56.9869 177.945 60.3102 175.4 62.5056C172.435 64.7679 169.034 65.7539 165.328 65.7359C165.178 65.7366 165.028 65.7374 164.874 65.7381C163.694 65.7362 162.532 65.6426 161.358 65.5207C161.406 65.6551 161.453 65.7895 161.501 65.928C162.531 68.8849 163.465 71.8127 164.037 74.894C164.068 75.052 164.099 75.2101 164.131 75.3729C165.161 80.8064 165.026 86.9092 163.845 92.3015C163.792 92.5559 163.792 92.5559 163.737 92.8155C162.964 96.4042 161.751 99.78 160.019 103.014C159.93 103.193 159.84 103.372 159.748 103.556C157.614 107.725 154.319 111.435 150.646 114.3C150.49 114.422 150.49 114.422 150.33 114.547C146.802 117.288 142.789 119.453 138.595 120.995C138.716 121.079 138.836 121.163 138.961 121.249C142.269 123.594 145.315 126.374 147.777 129.603C147.859 129.71 147.941 129.817 148.025 129.927C149.724 132.145 151.149 134.476 152.475 136.932C152.542 137.055 152.608 137.177 152.677 137.303C153.133 138.165 153.133 138.165 153.133 138.594C153.259 138.594 153.385 138.594 153.516 138.594C153.548 138.368 153.548 138.368 153.582 138.138C153.678 137.604 153.79 137.089 153.921 136.563C153.962 136.399 154.003 136.235 154.045 136.067C154.129 135.734 154.213 135.402 154.299 135.07C155.054 132.013 155.088 129.059 154.995 125.933C154.981 125.433 154.973 124.933 154.966 124.432C154.957 124.208 154.957 124.208 154.947 123.978C154.937 122.834 155.28 122.073 156.002 121.186C157.009 120.401 158.226 120.478 159.446 120.613C162.012 121.231 163.927 122.815 165.758 124.63C165.927 124.796 166.095 124.962 166.269 125.133C168.767 127.732 170.143 130.894 171.078 134.338C171.118 134.482 171.158 134.627 171.199 134.776C172.143 138.455 172.172 143.173 171.114 146.819C171.046 147.081 170.978 147.342 170.91 147.604C169.635 152.375 167.1 156.832 163.463 160.21C163.305 160.368 163.147 160.525 162.984 160.688C162.827 160.846 162.669 161.004 162.506 161.166C162.411 161.265 162.316 161.364 162.218 161.466C161.433 162.272 160.613 162.974 159.709 163.641C159.575 163.74 159.442 163.839 159.304 163.941C154.301 167.605 148.539 169.824 142.421 170.731C142.121 170.785 142.121 170.785 141.815 170.84C140.745 170.96 139.682 170.942 138.607 170.934C138.385 170.933 138.163 170.932 137.934 170.931C137.389 170.929 136.844 170.926 136.299 170.922C136.313 171.087 136.326 171.252 136.34 171.422C136.489 173.428 136.528 175.426 136.536 177.437C136.537 177.606 136.538 177.775 136.539 177.948C136.543 178.84 136.545 179.732 136.547 180.623C136.549 181.534 136.556 182.445 136.563 183.356C136.568 184.066 136.57 184.776 136.571 185.486C136.572 185.822 136.574 186.157 136.577 186.492C136.615 190.228 135.982 193.506 133.316 196.31C130.916 198.589 127.978 199.389 124.822 199.998C124.679 200.032 124.536 200.066 124.389 200.101C123.721 200.214 123.062 200.224 122.387 200.229C122.173 200.231 122.173 200.231 121.956 200.233C116.628 200.272 111.383 200.063 107.242 196.223C104.617 193.397 103.902 189.384 103.971 185.652C103.746 185.707 103.521 185.762 103.29 185.819C100.383 186.462 97.3857 186.635 94.417 186.647C94.188 186.648 93.9589 186.65 93.7229 186.651C92.9864 186.654 92.2498 186.655 91.5133 186.656C91.262 186.656 91.0107 186.656 90.7518 186.657C86.7727 186.659 82.8633 186.506 78.912 186.034C78.6126 185.999 78.3133 185.964 78.014 185.929C77.2292 185.838 76.4446 185.745 75.66 185.652C75.662 185.857 75.6641 186.062 75.6662 186.273C75.6355 189.845 74.379 193.52 71.9119 196.119C68.2891 199.553 63.3116 200.234 58.5394 200.238C58.3941 200.238 58.2488 200.238 58.099 200.238C53.5941 200.232 49.0832 199.487 45.6826 196.264C43.046 193.407 42.6968 189.914 42.7071 186.207C42.7067 185.888 42.7062 185.57 42.7055 185.252C42.7044 184.407 42.7061 183.563 42.7086 182.718C42.7101 182.195 42.711 181.671 42.7117 181.147C42.7198 176.137 42.7696 171.138 43.1405 166.14C43.1516 165.987 43.1627 165.835 43.1741 165.678C43.4103 162.443 43.7026 159.221 44.097 156.001C43.8879 156.073 43.6788 156.144 43.4634 156.218C43.3387 156.261 43.214 156.303 43.0855 156.347C42.8274 156.436 42.5695 156.525 42.3117 156.614C42.1413 156.671 42.1413 156.671 41.9673 156.73C41.8531 156.769 41.7389 156.808 41.6213 156.848C38.6651 157.671 34.69 157.56 31.8543 156.384C31.6844 156.327 31.5145 156.269 31.3395 156.21C28.7929 155.312 26.5532 153.409 25.3504 150.992C23.9597 148.067 23.8932 144.284 24.8946 141.2C24.9819 140.971 25.0692 140.742 25.1591 140.507C25.2362 140.3 25.2362 140.3 25.3147 140.088C26.524 136.879 28.1839 134.002 30.324 131.325C30.4547 131.157 30.5854 130.99 30.72 130.817C33.0896 127.84 35.7927 125.248 38.7169 122.824C38.8535 122.711 38.99 122.598 39.1307 122.481C39.7151 122.003 40.2952 121.542 40.9302 121.132C41.4342 120.852 41.4342 120.852 41.6102 120.421C41.4729 120.398 41.3357 120.374 41.1942 120.35C36.3301 119.273 31.3468 116.016 27.6459 112.77C27.4814 112.626 27.317 112.483 27.1475 112.335C26.6703 111.912 26.2001 111.482 25.733 111.048C25.6058 110.931 25.4785 110.814 25.3474 110.694C18.7819 104.422 15.2069 94.6644 14.9653 85.7089C14.9501 84.8616 14.9471 84.0147 14.949 83.1673C14.9491 82.9881 14.9492 82.8089 14.9493 82.6242C14.9647 76.8302 15.6399 70.4037 18.2726 65.1381C18.0344 65.1998 17.7962 65.2614 17.5508 65.3249C13.7189 66.171 9.74563 65.4368 6.39438 63.46C3.1894 61.3946 1.32848 58.0309 0.476588 54.3884C-1.36978 45.6222 2.42439 35.955 7.11578 28.7007C7.56928 28.02 8.03733 27.3511 8.5168 26.6886C8.5978 26.5764 8.6788 26.4642 8.76226 26.3487C11.2726 22.9104 14.1654 19.7625 17.5075 17.124C17.8504 16.8373 18.1931 16.5503 18.5357 16.2632C20.5453 14.6236 22.7163 13.2389 24.9678 11.9591C25.1054 11.8809 25.243 11.8027 25.3848 11.7221C28.9364 9.72662 32.6853 8.34528 36.6366 7.36816C36.7725 7.33385 36.9085 7.29955 37.0485 7.2642C39.0914 6.7723 41.1454 6.74085 43.2361 6.73451C43.3687 6.73379 43.5012 6.73307 43.6377 6.73232C46.6856 6.72392 49.9362 7.17841 52.3225 9.28107C52.3225 9.40732 52.3225 9.53358 52.3225 9.66365C52.5072 9.57982 52.6919 9.49598 52.8822 9.4096C59.4838 6.48907 66.4555 4.57458 73.5558 3.35105C73.737 3.31951 73.9182 3.28798 74.1048 3.25549C85.0342 1.42432 96.706 1.66152 107.606 3.54234Z" fill="#F2D3A3"/>
<path d="M107.606 3.54234C107.773 3.57113 107.941 3.59991 108.113 3.62958C114.669 4.78635 121.122 6.84536 127.309 9.28107C127.434 9.16595 127.434 9.16595 127.562 9.0485C128.263 8.42373 128.889 7.95648 129.772 7.60727C130.043 7.49631 130.043 7.49631 130.32 7.3831C131.866 6.87163 133.298 6.72569 134.924 6.73451C135.24 6.73613 135.24 6.73613 135.562 6.73778C147.47 6.91197 158.56 13.5083 166.686 21.8405C167.365 22.5515 167.993 23.2969 168.601 24.0688C169.039 24.6202 169.496 25.1508 169.955 25.6843C176.274 33.2656 180.679 43.7316 179.914 53.6606C179.551 56.9869 177.945 60.3102 175.4 62.5056C172.435 64.7679 169.034 65.7539 165.328 65.7359C165.178 65.7366 165.028 65.7374 164.874 65.7381C163.694 65.7362 162.532 65.6426 161.358 65.5207C161.406 65.6551 161.453 65.7895 161.501 65.928C162.531 68.8849 163.465 71.8127 164.037 74.894C164.068 75.052 164.099 75.2101 164.131 75.3729C165.161 80.8064 165.026 86.9092 163.845 92.3015C163.792 92.5559 163.792 92.5559 163.737 92.8155C162.964 96.4042 161.751 99.78 160.019 103.014C159.93 103.193 159.84 103.372 159.748 103.556C157.614 107.725 154.319 111.435 150.646 114.3C150.49 114.422 150.49 114.422 150.33 114.547C146.802 117.288 142.789 119.453 138.595 120.995C138.716 121.079 138.836 121.163 138.961 121.249C142.269 123.594 145.315 126.374 147.777 129.603C147.859 129.71 147.941 129.817 148.025 129.927C149.724 132.145 151.149 134.476 152.475 136.932C152.542 137.055 152.608 137.177 152.677 137.303C153.133 138.165 153.133 138.165 153.133 138.594C153.259 138.594 153.385 138.594 153.516 138.594C153.548 138.368 153.548 138.368 153.582 138.138C153.678 137.604 153.79 137.089 153.921 136.563C153.962 136.399 154.003 136.235 154.045 136.067C154.129 135.734 154.213 135.402 154.299 135.07C155.054 132.013 155.088 129.059 154.995 125.933C154.981 125.433 154.973 124.933 154.966 124.432C154.957 124.208 154.957 124.208 154.947 123.978C154.937 122.834 155.28 122.073 156.002 121.186C157.009 120.401 158.226 120.478 159.446 120.613C162.012 121.231 163.927 122.815 165.758 124.63C165.927 124.796 166.095 124.962 166.269 125.133C168.767 127.732 170.143 130.894 171.078 134.338C171.118 134.482 171.158 134.627 171.199 134.776C172.143 138.455 172.172 143.173 171.114 146.819C171.046 147.081 170.978 147.342 170.91 147.604C169.635 152.375 167.1 156.832 163.463 160.21C163.305 160.368 163.147 160.525 162.984 160.688C162.827 160.846 162.669 161.004 162.506 161.166C162.411 161.265 162.316 161.364 162.218 161.466C161.433 162.272 160.613 162.974 159.709 163.641C159.575 163.74 159.442 163.839 159.304 163.941C154.301 167.605 148.539 169.824 142.421 170.731C142.121 170.785 142.121 170.785 141.815 170.84C140.745 170.96 139.682 170.942 138.607 170.934C138.385 170.933 138.163 170.932 137.934 170.931C137.389 170.929 136.844 170.926 136.299 170.922C136.313 171.087 136.326 171.252 136.34 171.422C136.489 173.428 136.528 175.426 136.536 177.437C136.537 177.606 136.538 177.775 136.539 177.948C136.543 178.84 136.545 179.732 136.547 180.623C136.549 181.534 136.556 182.445 136.563 183.356C136.568 184.066 136.57 184.776 136.571 185.486C136.572 185.822 136.574 186.157 136.577 186.492C136.615 190.228 135.982 193.506 133.316 196.31C130.916 198.589 127.978 199.389 124.822 199.998C124.679 200.032 124.536 200.066 124.389 200.101C123.721 200.214 123.062 200.224 122.387 200.229C122.173 200.231 122.173 200.231 121.956 200.233C116.628 200.272 111.383 200.063 107.242 196.223C104.617 193.397 103.902 189.384 103.971 185.652C103.746 185.707 103.521 185.762 103.29 185.819C100.383 186.462 97.3857 186.635 94.417 186.647C94.188 186.648 93.9589 186.65 93.7229 186.651C92.9864 186.654 92.2498 186.655 91.5133 186.656C91.262 186.656 91.0107 186.656 90.7518 186.657C86.7727 186.659 82.8633 186.506 78.912 186.034C78.6126 185.999 78.3133 185.964 78.014 185.929C77.2292 185.838 76.4446 185.745 75.66 185.652C75.662 185.857 75.6641 186.062 75.6662 186.273C75.6355 189.845 74.379 193.52 71.9119 196.119C68.2891 199.553 63.3116 200.234 58.5394 200.238C58.3941 200.238 58.2488 200.238 58.099 200.238C53.5941 200.232 49.0832 199.487 45.6826 196.264C43.046 193.407 42.6968 189.914 42.7071 186.207C42.7067 185.888 42.7062 185.57 42.7055 185.252C42.7044 184.407 42.7061 183.563 42.7086 182.718C42.7101 182.195 42.711 181.671 42.7117 181.147C42.7198 176.137 42.7696 171.138 43.1405 166.14C43.1516 165.987 43.1627 165.835 43.1741 165.678C43.4103 162.443 43.7026 159.221 44.097 156.001C43.8879 156.073 43.6788 156.144 43.4634 156.218C43.3387 156.261 43.214 156.303 43.0855 156.347C42.8274 156.436 42.5695 156.525 42.3117 156.614C42.1413 156.671 42.1413 156.671 41.9673 156.73C41.8531 156.769 41.7389 156.808 41.6213 156.848C38.6651 157.671 34.69 157.56 31.8543 156.384C31.6844 156.327 31.5145 156.269 31.3395 156.21C28.7929 155.312 26.5532 153.409 25.3504 150.992C23.9597 148.067 23.8932 144.284 24.8946 141.2C24.9819 140.971 25.0692 140.742 25.1591 140.507C25.2362 140.3 25.2362 140.3 25.3147 140.088C26.524 136.879 28.1839 134.002 30.324 131.325C30.4547 131.157 30.5854 130.99 30.72 130.817C33.0896 127.84 35.7927 125.248 38.7169 122.824C38.8535 122.711 38.99 122.598 39.1307 122.481C39.7151 122.003 40.2952 121.542 40.9302 121.132C41.4342 120.852 41.4342 120.852 41.6102 120.421C41.4729 120.398 41.3357 120.374 41.1942 120.35C36.3301 119.273 31.3468 116.016 27.6459 112.77C27.4814 112.626 27.317 112.483 27.1475 112.335C26.6703 111.912 26.2001 111.482 25.733 111.048C25.6058 110.931 25.4785 110.814 25.3474 110.694C18.7819 104.422 15.2069 94.6644 14.9653 85.7089C14.9501 84.8616 14.9471 84.0147 14.949 83.1673C14.9491 82.9881 14.9492 82.8089 14.9493 82.6242C14.9647 76.8302 15.6399 70.4037 18.2726 65.1381C18.0344 65.1998 17.7962 65.2614 17.5508 65.3249C13.7189 66.171 9.74563 65.4368 6.39438 63.46C3.1894 61.3946 1.32848 58.0309 0.476588 54.3884C-1.36978 45.6222 2.42439 35.955 7.11578 28.7007C7.56928 28.02 8.03733 27.3511 8.5168 26.6886C8.5978 26.5764 8.6788 26.4642 8.76226 26.3487C11.2726 22.9104 14.1654 19.7625 17.5075 17.124C17.8504 16.8373 18.1931 16.5503 18.5357 16.2632C20.5453 14.6236 22.7163 13.2389 24.9678 11.9591C25.1054 11.8809 25.243 11.8027 25.3848 11.7221C28.9364 9.72662 32.6853 8.34528 36.6366 7.36816C36.7725 7.33385 36.9085 7.29955 37.0485 7.2642C39.0914 6.7723 41.1454 6.74085 43.2361 6.73451C43.3687 6.73379 43.5012 6.73307 43.6377 6.73232C46.6856 6.72392 49.9362 7.17841 52.3225 9.28107C52.3225 9.40732 52.3225 9.53358 52.3225 9.66365C52.5072 9.57982 52.6919 9.49598 52.8822 9.4096C59.4838 6.48907 66.4555 4.57458 73.5558 3.35105C73.737 3.31951 73.9182 3.28798 74.1048 3.25549C85.0342 1.42432 96.706 1.66152 107.606 3.54234ZM76.6165 7.75074C76.3135 7.7865 76.3135 7.7865 76.0044 7.82298C69.5068 8.59683 63.2101 10.1871 57.1048 12.533C56.9304 12.5993 56.7561 12.6655 56.5765 12.7337C56.1325 12.9047 55.6916 13.0814 55.2516 13.2623C55.0181 13.3582 54.7846 13.4542 54.544 13.553C54.0136 13.8226 54.0136 13.8226 53.8707 14.3137C53.8508 14.8872 53.864 15.4506 53.8887 16.0241C53.9488 19.4126 53.1182 22.8898 52.1312 26.1147C52.0738 26.3023 52.0164 26.49 51.9573 26.6833C49.0886 35.9151 44.9118 45.496 38.208 52.6339C37.8446 53.0224 37.5027 53.4193 37.1627 53.828C34.276 57.1146 29.9733 60.9226 25.7778 62.3405C24.7667 62.6914 24.1822 62.9435 23.6154 63.8783C23.2942 64.6077 23.0571 65.358 22.8328 66.122C22.6577 66.7184 22.4689 67.3095 22.2793 67.9014C21.5087 70.354 20.8553 72.8112 20.4553 75.3525C20.3995 75.7068 20.3388 76.0604 20.2749 76.4134C19.954 78.335 19.9295 80.2328 19.9339 82.1771C19.9345 82.7307 19.93 83.284 19.9251 83.8376C19.914 87.0819 20.1713 90.3562 21.0822 93.4851C21.1307 93.6565 21.1792 93.8279 21.2292 94.0044C23.7037 102.423 29.3015 109.097 36.9571 113.297C41.1288 115.527 45.4988 117.196 50.1652 118.027C50.3353 118.058 50.5055 118.089 50.6808 118.121C50.8347 118.147 50.9886 118.173 51.1472 118.2C51.7811 118.381 52.1128 118.769 52.5138 119.274C52.5769 119.337 52.64 119.4 52.7051 119.465C52.7869 120.169 52.7232 120.572 52.4301 121.222C51.7671 121.95 51.1544 122.1 50.2183 122.334C42.3379 124.351 35.9518 131.074 31.8377 137.864C30.0067 140.96 28.5273 144.185 29.053 147.87C29.454 149.383 30.5537 150.571 31.8566 151.39C34.7019 152.858 38.224 153.127 41.2993 152.164C42.7094 151.602 44.2332 150.855 45.2447 149.689C45.403 149.3 45.403 149.3 45.4993 148.859C45.5409 148.691 45.5825 148.524 45.6254 148.351C45.6684 148.169 45.7115 147.988 45.7558 147.801C45.8263 147.516 45.8263 147.516 45.8981 147.226C46.0489 146.617 46.197 146.007 46.3446 145.397C46.903 143.091 47.4652 140.797 48.2366 138.551C48.2894 138.395 48.3422 138.239 48.3967 138.078C48.7315 137.139 49.0843 136.196 50.027 135.725C50.8085 135.626 51.5991 135.548 52.3143 135.918C52.8187 136.327 53.0727 136.636 53.2789 137.255C53.3279 138.196 53.2185 138.961 52.9494 139.862C52.8778 140.107 52.8063 140.352 52.7347 140.597C52.6967 140.724 52.6588 140.852 52.6196 140.983C51.69 144.113 50.9194 147.265 50.2183 150.454C50.1611 150.709 50.1611 150.709 50.1027 150.97C48.9398 156.197 48.3567 161.535 47.9552 166.868C47.9302 167.192 47.9039 167.516 47.877 167.839C47.7546 169.348 47.6758 170.854 47.6269 172.367C47.6189 172.612 47.611 172.858 47.6027 173.11C47.5164 175.92 47.4977 178.73 47.4942 181.541C47.4932 182.286 47.4885 183.03 47.4832 183.775C47.4796 184.361 47.4786 184.946 47.4783 185.532C47.4777 185.807 47.4762 186.082 47.4737 186.356C47.4529 188.757 47.6153 191.047 49.2618 192.921C51.6231 195.147 54.85 195.509 57.9543 195.472C58.3605 195.467 58.7665 195.468 59.1727 195.469C62.5749 195.462 66.2488 195.063 68.7735 192.538C70.4957 190.276 70.7939 187.62 70.8897 184.874C70.9042 184.479 70.9197 184.084 70.9384 183.689C70.9552 183.335 70.9681 182.981 70.9809 182.627C71.077 181.962 71.2416 181.596 71.6429 181.061C73.3137 179.947 76.714 180.849 78.637 181.049C82.6354 181.461 86.5948 181.67 90.6152 181.67C91.2119 181.67 91.8085 181.674 92.4051 181.677C96.1074 181.688 99.7468 181.372 103.409 180.845C103.894 180.776 104.378 180.708 104.863 180.641C105.069 180.611 105.275 180.581 105.488 180.551C107.024 180.383 107.024 180.383 107.845 180.809C108.419 181.292 108.54 181.505 108.753 182.208C108.802 182.833 108.802 182.833 108.806 183.54C108.81 183.803 108.814 184.065 108.818 184.328C108.822 184.736 108.825 185.143 108.826 185.55C108.84 188.399 109.15 191.162 111.24 193.303C113.604 195.265 116.864 195.445 119.8 195.453C120.212 195.455 120.624 195.461 121.035 195.467C124.253 195.492 127.533 195.134 129.949 192.824C131.295 191.296 131.752 189.41 131.764 187.413C131.765 187.271 131.766 187.13 131.768 186.985C131.771 186.519 131.772 186.054 131.773 185.589C131.774 185.258 131.776 184.927 131.777 184.596C131.782 183.529 131.781 182.462 131.78 181.395C131.78 181.214 131.78 181.032 131.78 180.845C131.778 174.826 131.603 168.876 130.943 162.888C130.901 162.491 130.858 162.094 130.816 161.697C129.984 154.014 128.827 146.138 126.352 138.785C126.235 138.116 126.204 137.522 126.54 136.916C126.972 136.371 127.403 135.922 128.074 135.725C128.769 135.661 129.271 135.672 129.927 135.916C130.937 136.789 131.278 138.171 131.594 139.427C131.633 139.576 131.672 139.724 131.712 139.877C131.793 140.192 131.875 140.507 131.955 140.822C132.08 141.313 132.208 141.803 132.337 142.294C132.741 143.845 133.12 145.395 133.444 146.965C133.841 148.901 133.841 148.901 135.11 150.373C135.25 150.463 135.39 150.553 135.534 150.645C135.678 150.749 135.822 150.853 135.971 150.96C138.501 152.648 141.58 153.006 144.533 152.425C146.622 151.883 148.471 150.95 149.69 149.115C150.653 147.306 150.426 145.231 149.881 143.328C147.42 135.356 141.066 128.119 133.841 124.081C132.23 123.233 130.596 122.856 128.8 122.626C128.066 122.488 127.672 122.253 127.117 121.76C126.809 121.143 126.815 120.515 126.926 119.847C127.706 118.761 128.686 118.602 129.952 118.38C130.078 118.361 130.204 118.341 130.334 118.321C132.17 118.037 133.888 117.545 135.642 116.942C135.779 116.896 135.917 116.849 136.058 116.801C138.077 116.116 139.994 115.361 141.847 114.3C142.106 114.161 142.366 114.022 142.626 113.884C150.117 109.86 155.757 102.931 158.21 94.7965C158.448 93.9689 158.668 93.1381 158.872 92.3015C158.904 92.1824 158.935 92.0634 158.968 91.9408C159.671 89.1327 159.715 86.1889 159.709 83.3108C159.709 83.0552 159.709 83.0552 159.708 82.7946C159.702 79.9061 159.484 77.1507 158.872 74.3201C158.839 74.1603 158.806 74.0006 158.772 73.836C158.126 70.7395 157.052 67.7345 156.002 64.7555C155.957 64.6102 155.912 64.4648 155.866 64.315C155.629 63.6261 155.42 63.411 154.797 63.0115C154.543 62.8957 154.287 62.7838 154.03 62.6752C153.751 62.5464 153.473 62.4164 153.195 62.2852C152.986 62.1867 152.986 62.1867 152.772 62.0862C150.558 60.9909 148.565 59.3862 146.629 57.869C146.523 57.7858 146.417 57.7026 146.307 57.6168C143.407 55.3154 140.764 52.6438 138.595 49.6435C138.502 49.5166 138.409 49.3897 138.313 49.2589C131.493 39.9375 124.827 26.0852 125.587 14.2546C115.174 8.55298 102.452 7.05257 90.7516 7.10205C89.9718 7.10532 89.1921 7.10338 88.4122 7.10008C84.4439 7.0859 80.558 7.27743 76.6165 7.75074Z" fill="black"/>
<path d="M150.179 15.4506C155.959 18.4064 161.626 22.8513 165.567 28.0277C165.668 28.1594 165.769 28.2912 165.873 28.4269C167.369 30.3909 168.773 32.3691 169.967 34.5316C170.055 34.6893 170.143 34.8469 170.234 35.0094C173.038 40.0561 175.015 45.2078 175.036 51.0305C175.038 51.4026 175.038 51.4026 175.04 51.7822C175.003 54.4931 174.387 56.7977 172.515 58.8047C170.033 61.0575 166.799 61.1091 163.632 60.9686C156.082 60.4381 148.994 54.5255 144.21 49.0949C143.579 48.3464 142.992 47.5692 142.421 46.7742C142.333 46.6532 142.246 46.5322 142.157 46.4075C139.014 42.0103 136.511 37.293 134.603 32.2356C134.399 31.6957 134.191 31.1577 133.981 30.6198C132.553 26.8843 131.424 22.9822 130.752 19.037C130.713 18.8504 130.674 18.6637 130.635 18.4714C130.409 17.3234 130.326 16.199 130.31 15.0319C130.306 14.8937 130.303 14.7555 130.299 14.6131C130.3 13.7551 130.413 13.2124 130.943 12.5331C135.729 8.94389 145.555 13.1881 150.179 15.4506Z" fill="#7D5232"/>
<path d="M43.0688 11.5289C43.4298 11.5267 43.4298 11.5267 43.7981 11.5244C47.3297 11.5318 47.3297 11.5318 48.688 12.7245C49.0815 13.6288 49.1376 14.4894 49.1303 15.4623C49.1289 15.6887 49.1289 15.6887 49.1275 15.9197C48.9955 22.7109 46.0054 29.9625 43.158 35.9987C42.9496 36.4438 42.7475 36.8913 42.5465 37.3398C39.3666 44.354 34.6169 50.771 28.4111 55.3824C28.2237 55.5254 28.0363 55.6684 27.8432 55.8158C24.9092 57.9622 21.5822 59.582 18.0814 60.5473C17.9088 60.5976 17.7362 60.6479 17.5583 60.6997C15.4071 61.2339 12.8786 61.1577 10.8123 60.356C10.5719 60.265 10.5719 60.265 10.3266 60.1722C8.06423 59.1846 6.55378 57.2548 5.64746 54.9998C5.14069 53.4132 4.98049 51.9253 5.00185 50.2654C5.00435 49.939 5.00435 49.939 5.0069 49.606C5.0366 47.8929 5.23429 46.3317 5.64746 44.6701C5.6985 44.4312 5.74955 44.1922 5.80214 43.946C7.14223 37.8375 10.3533 32.0946 14.2556 27.2626C14.4405 27.0192 14.4405 27.0192 14.6292 26.7709C16.9509 23.782 19.7764 21.2097 22.8637 19.0371C22.9798 18.9537 23.0959 18.8704 23.2155 18.7845C27.6692 15.6014 32.8094 13.1428 38.167 11.9593C38.3207 11.9241 38.4745 11.8889 38.633 11.8526C40.114 11.5452 41.5601 11.5196 43.0688 11.5289Z" fill="#7D5232"/>
<path d="M94.7891 130.942C94.963 131.009 95.1368 131.076 95.3159 131.145C99.6505 133.044 102.255 137.672 103.971 141.846C104.818 144.025 105.288 146.245 105.693 148.541C105.726 148.72 105.76 148.899 105.795 149.083C106.311 152.585 106.117 156.497 104.928 159.827C104.852 160.047 104.776 160.267 104.698 160.494C103.322 164.097 100.712 166.891 97.2303 168.517C92.6312 170.53 86.7233 170.314 82.1118 168.524C78.5443 167.062 76.0539 164.683 74.3875 161.217C71.8154 154.985 72.9129 147.741 75.4328 141.678C76.4798 139.259 77.7022 136.92 79.4858 134.959C79.5684 134.868 79.6509 134.776 79.736 134.682C83.7095 130.321 89.2677 128.713 94.7891 130.942Z" fill="#FFBB4D"/>
<path d="M101.228 129.099C103.582 131.086 105.323 133.428 106.84 136.107C106.903 136.217 106.966 136.327 107.03 136.44C108.952 139.875 110.063 143.711 110.666 147.585C110.699 147.795 110.699 147.795 110.733 148.009C111.691 154.312 110.808 161.23 107.077 166.546C103.459 171.206 98.9103 173.42 93.1945 174.484C86.4986 175.177 79.8573 173.84 74.5207 169.617C70.7442 166.528 68.6879 161.95 68.1996 157.149C68.1305 156.078 68.125 155.006 68.1279 153.933C68.128 153.788 68.1281 153.642 68.1282 153.492C68.1414 149.46 68.7826 145.656 70.1126 141.846C70.1554 141.721 70.1982 141.597 70.2423 141.469C71.6695 137.407 73.8641 133.875 76.8077 130.751C76.915 130.634 77.0223 130.516 77.1328 130.395C83.5447 123.626 94.117 123.257 101.228 129.099ZM81.2074 133.238C81.0267 133.401 80.8459 133.564 80.6597 133.732C77.2794 136.889 75.4233 141.106 74.1297 145.48C74.0712 145.673 74.0128 145.866 73.9526 146.065C72.517 151.262 72.3312 157.311 74.8537 162.212C77.0428 165.938 80.0878 167.95 84.1478 169.221C85.9399 169.662 87.6731 169.839 89.5167 169.822C89.7267 169.821 89.9368 169.819 90.1532 169.818C94.5674 169.759 98.5246 168.6 101.676 165.375C103.887 163.041 104.906 160.219 105.607 157.139C105.663 156.897 105.726 156.656 105.796 156.418C107.159 149.936 104.79 142.377 101.484 136.872C101.013 136.194 100.502 135.576 99.954 134.959C99.775 134.74 99.775 134.74 99.5923 134.516C97.6272 132.159 94.7805 130.457 91.7285 129.986C87.7905 129.63 84.184 130.548 81.2074 133.238Z" fill="black"/>
<path d="M60.542 65.8785C62.4999 66.8 63.4985 68.2073 64.2303 70.1833C64.6215 72.0737 64.32 73.6563 63.3561 75.3332C62.7043 76.2806 61.9414 76.847 60.9306 77.3806C61.2356 78.0457 61.6331 78.6129 62.0544 79.2099C63.3979 81.2044 63.8341 83.0971 63.8358 85.4627C63.8381 85.6355 63.8405 85.8084 63.8429 85.9865C63.849 88.8267 62.7468 91.3992 60.7393 93.4491C60.613 93.4491 60.4868 93.4491 60.3567 93.4491C60.2936 93.6385 60.2304 93.8278 60.1654 94.023C59.3272 94.8866 58.2004 95.4295 57.1406 95.9717C56.9573 96.0672 56.9573 96.0672 56.7703 96.1647C54.8339 97.1255 52.9755 97.3768 50.828 97.3586C50.4729 97.3566 50.4729 97.3566 50.1107 97.3546C48.4253 97.325 47.0013 97.1685 45.436 96.5097C45.1697 96.4125 45.1697 96.4125 44.898 96.3132C41.9249 95.1265 39.8211 92.8796 38.4202 90.0537C37.808 88.5512 37.4854 87.184 37.4974 85.5583C37.4985 85.3837 37.4996 85.209 37.5007 85.029C37.5841 81.8408 39.1516 79.2852 41.4121 77.1086C42.3616 76.3022 43.3884 75.6863 44.4795 75.0851C44.6171 75.0047 44.7547 74.9244 44.8965 74.8415C46.8782 73.7479 49.2259 73.5196 51.4497 73.5428C51.6079 73.5437 51.7661 73.5446 51.929 73.5455C52.3152 73.5477 52.7014 73.5511 53.0876 73.5548C53.0787 73.3262 53.0699 73.0976 53.0607 72.8621C52.9958 70.5119 53.1728 68.9855 54.8205 67.2026C56.4434 65.7037 58.4013 65.2504 60.542 65.8785Z" fill="#F4A99C"/>
<path d="M122.598 66.1063C124.19 67.03 125.1 68.2176 125.778 69.9202C126.128 71.2376 126.019 72.6096 125.778 73.9373C125.973 73.9343 125.973 73.9343 126.172 73.9312C126.77 73.9232 127.368 73.9183 127.966 73.9134C128.171 73.9102 128.375 73.907 128.586 73.9037C132.241 73.8813 135.697 75.3709 138.355 77.8797C140.503 80.158 141.569 82.8439 141.545 85.9742C141.432 89.1164 140.002 91.6477 137.83 93.8316C137.717 93.9514 137.603 94.0712 137.487 94.1947C135.063 96.5599 131.405 97.5906 128.099 97.557C126.554 97.5003 125.141 97.1766 123.674 96.7009C123.374 96.607 123.374 96.607 123.068 96.5111C119.801 95.3286 117.613 92.7488 116.108 89.7173C115.538 88.3397 115.379 87.1175 115.389 85.6419C115.39 85.4729 115.391 85.3038 115.392 85.1297C115.446 82.2352 116.659 79.9016 118.318 77.5718C118.179 77.4982 118.179 77.4982 118.037 77.4231C116.642 76.6265 115.247 75.4258 114.76 73.8394C114.42 71.7359 114.544 69.7912 115.717 67.9744C117.354 65.8455 120.118 64.9791 122.598 66.1063Z" fill="#F4A99C"/>
<path d="M160.402 126.16C162.784 128.166 164.394 130.531 165.567 133.429C165.621 133.559 165.676 133.688 165.732 133.822C167.541 138.599 167.195 144.843 165.184 149.498C161.963 156.495 156.013 161.756 148.833 164.496C144.721 165.983 140.477 166.681 136.108 166.523C135.818 165.504 135.764 164.443 135.657 163.393C135.618 163.01 135.578 162.628 135.538 162.245C135.513 162.002 135.487 161.759 135.462 161.509C135.427 161.176 135.427 161.176 135.393 160.837C135.345 160.242 135.334 159.659 135.343 159.062C135.498 159.007 135.653 158.951 135.813 158.893C136.872 158.501 137.811 158.131 138.738 157.484C140.035 156.732 141.448 156.863 142.903 156.841C144.7 156.802 146.117 156.508 147.777 155.81C148.008 155.716 148.239 155.621 148.477 155.523C151.287 154.252 153.192 152.3 154.329 149.426C154.584 148.696 154.706 148.03 154.783 147.262C154.96 146.029 155.53 145.185 156.202 144.167C159.716 138.824 160.197 132.384 160.402 126.16Z" fill="#7D5232"/>
<path d="M97.539 72.742C98.4812 73.4994 99.1896 74.5137 99.5714 75.6592C99.6906 77.178 99.2958 78.2285 98.352 79.4014C96.9205 80.9221 94.9169 81.8054 92.8762 82.1631C92.6237 82.1631 92.3712 82.1631 92.1111 82.1631C92.1155 83.0241 92.1303 83.8847 92.1469 84.7456C92.1481 84.9882 92.1492 85.2308 92.1503 85.4808C92.1837 86.9061 92.2728 87.9696 93.2588 89.0496C94.4047 90.1197 95.9585 90.1512 97.446 90.1311C99.7707 90.0163 101.206 88.8895 102.752 87.2675C103.052 86.9277 103.344 86.5793 103.624 86.2228C103.993 85.7706 104.154 85.6307 104.727 85.5608C105.791 85.5264 106.383 85.6546 107.223 86.3715C107.747 87.1567 107.741 87.7455 107.606 88.667C106.788 91.1188 104.248 92.8989 102.058 94.0232C101.367 94.3169 100.672 94.567 99.954 94.7883C99.7646 94.8515 99.5753 94.9146 99.3801 94.9796C95.8726 95.2386 93.0533 95.1832 90.2213 92.9434C89.7884 92.6155 89.7884 92.6155 89.0504 92.6841C88.6152 92.9506 88.6152 92.9506 88.1777 93.3058C87.1872 94.0318 86.1993 94.4275 85.0333 94.7883C84.7492 94.883 84.7492 94.883 84.4594 94.9796C80.6576 95.3005 77.5232 94.9721 74.5123 92.4928C74.2889 92.3157 74.2889 92.3157 74.061 92.1349C72.7346 91.0289 71.3693 89.6303 71.2006 87.8421C71.2714 87.0064 71.5009 86.6334 72.0255 85.9889C72.8805 85.4189 73.7016 85.4685 74.7036 85.6064C75.2057 85.965 75.2057 85.965 75.66 86.5628C77.0158 88.2023 78.5786 89.7933 80.8106 90.0481C81.2188 90.0711 81.6236 90.0786 82.0324 90.0778C82.1761 90.0778 82.3198 90.0777 82.4678 90.0777C83.5942 90.0545 84.4471 89.8295 85.4159 89.2409C85.552 89.1793 85.6881 89.1176 85.8284 89.0541C86.3304 88.7754 86.3907 88.4341 86.5636 87.9019C86.6268 87.7756 86.6899 87.6494 86.7549 87.5193C86.7845 87.1168 86.8027 86.7136 86.8155 86.3103C86.8235 86.0698 86.8315 85.8294 86.8397 85.5817C86.8473 85.3294 86.8548 85.0772 86.8625 84.8173C86.8708 84.561 86.8791 84.3047 86.8876 84.0484C86.9079 83.42 86.9274 82.7916 86.9462 82.1631C86.6518 82.128 86.6518 82.128 86.3514 82.0921C84.1935 81.7433 82.0535 80.729 80.6373 79.0307C79.8446 77.8859 79.5018 76.8811 79.6772 75.4679C80.1154 73.94 81.317 72.9503 82.6138 72.1188C83.8627 71.4395 85.1743 71.1379 86.5636 70.8769C86.7382 70.8414 86.9128 70.8059 87.0927 70.7693C90.635 70.2902 94.5283 70.6836 97.539 72.742Z" fill="black"/>
<path d="M122.598 66.1063C124.19 67.03 125.1 68.2176 125.778 69.9202C125.934 70.506 125.934 70.506 125.97 71.0679C125.984 71.1882 125.998 71.3086 126.012 71.4326C126.123 72.9952 125.521 74.6765 124.595 75.9339C123.062 77.3306 121.642 77.8472 119.59 77.8281C118.081 77.6875 116.937 76.9266 115.921 75.8315C114.638 74.1705 114.503 72.3285 114.683 70.3027C115.033 68.6876 115.944 67.4383 117.297 66.5098C119.019 65.5379 120.761 65.2712 122.598 66.1063Z" fill="black"/>
<path d="M60.5421 65.8788C62.4999 66.8003 63.4986 68.2076 64.2304 70.1836C64.6229 72.0805 64.3055 73.6334 63.3696 75.3267C62.6075 76.4633 61.4788 77.2718 60.1729 77.6932C58.2681 78.0363 56.7964 77.6942 55.1919 76.6157C54.1334 75.7039 53.3458 74.3593 53.0877 72.9812C52.9348 70.8281 53.0894 69.2856 54.4745 67.5772C56.1081 65.8096 58.2038 65.1927 60.5421 65.8788Z" fill="black"/>
<path d="M56.7395 45.1401C56.8315 45.1523 56.9235 45.1646 57.0183 45.1772C60.1552 45.6004 64.4974 46.214 66.6324 48.8612C67.033 49.4555 67.2367 49.8413 67.1243 50.5745C66.9837 51.0333 66.6866 51.3826 66.3233 51.6895C65.7509 51.9472 65.2326 51.8551 64.6422 51.6907C64.1398 51.4557 63.6706 51.1707 63.1959 50.8848C61.3972 49.8176 59.6898 49.2751 57.6217 48.9744C57.3934 48.9409 57.3934 48.9409 57.1604 48.9068C55.7967 48.7234 54.4419 48.6616 53.0796 48.8841C52.9928 48.8974 52.9059 48.9108 52.8165 48.9245C52.1511 49.0315 51.503 49.1839 50.8546 49.369C50.2397 49.5302 49.6111 49.5769 49.0294 49.2695C48.6862 49.0284 48.5017 48.8251 48.3008 48.4526C48.1898 47.7811 48.2406 47.1498 48.5716 46.5475C49.2474 45.9727 50.0378 45.7344 50.8844 45.533C50.9913 45.5072 51.0981 45.4815 51.2082 45.4549C53.0203 45.0417 54.8951 44.8894 56.7395 45.1401Z" fill="black"/>
<path d="M126.392 53.6959C126.511 53.7594 126.511 53.7594 126.632 53.8241C127.248 54.1856 127.743 54.6547 127.98 55.3879C128.04 56.1213 127.978 56.6162 127.625 57.27C127.132 57.7794 126.705 58.011 126.016 57.9996C125.342 57.9004 124.7 57.6041 124.062 57.3559C122.311 56.6761 120.748 56.3876 118.888 56.3937C118.756 56.3938 118.756 56.3938 118.623 56.3939C116.349 56.4027 114.058 56.6253 111.935 57.5665C111.285 57.8433 110.737 57.8599 110.056 57.6824C109.457 57.3143 109.247 56.8763 109.044 56.1703C108.96 55.5258 108.98 55.0739 109.25 54.4864C110.358 53.0911 111.749 52.812 113.38 52.5436C113.633 52.502 113.885 52.4579 114.137 52.4134C118.108 51.7365 122.705 51.7172 126.392 53.6959Z" fill="black"/>
<path d="M177.541 43.578C181.889 43.9986 186.035 45.4972 189.199 48.5633L189.503 48.8657L189.535 48.8984C192.434 52.0027 193.581 55.8294 193.211 59.7122L193.21 59.7248C192.693 64.7882 189.54 68.2275 185.709 70.955L185.706 70.9567C185.584 71.0431 185.461 71.1288 185.339 71.2151L185.34 71.2162C185.278 71.2603 185.215 71.3038 185.151 71.3493L185.151 71.3503C184.832 71.5757 184.512 71.8013 184.19 72.0259C182.981 72.8754 182.272 73.6181 181.802 74.3882C181.329 75.1632 181.015 76.101 180.791 77.4683L180.789 77.4789L180.787 77.4885C180.77 77.5816 180.754 77.6752 180.738 77.7711C180.725 77.8469 180.712 77.9228 180.7 78.0009L180.676 78.1467L180.632 78.2875C180.417 78.9571 180.089 79.4018 179.643 79.8122L179.379 80.0546L179.047 80.1909C178.164 80.5527 177.456 80.5802 176.683 80.5043L176.684 80.5054C176.576 80.4952 176.575 80.4956 176.464 80.4852L176.461 80.4849C176.216 80.4614 175.972 80.4355 175.737 80.4109C175.573 80.3946 175.409 80.3785 175.245 80.3623L175.244 80.3622C174.893 80.3273 174.542 80.2918 174.193 80.2553C173.756 80.2097 173.317 80.1664 172.875 80.1235L171.355 79.9703C171.117 79.947 170.88 79.922 170.649 79.8972C170.523 79.8842 170.396 79.8718 170.265 79.8585L170.166 79.8474L170.066 79.8276C169.054 79.6196 168.475 79.1248 168.052 78.7353L167.787 78.4907L167.623 78.1689C167.047 77.0358 167.297 75.9055 167.332 75.623C167.343 75.5232 167.354 75.4231 167.366 75.3202L167.367 75.3096L167.369 75.2999C167.675 72.8512 168.391 70.7588 169.629 68.8888C170.856 67.035 172.526 65.5042 174.589 64.0777L174.602 64.0692L174.615 64.0597C174.946 63.8386 175.282 63.6338 175.575 63.4547C176.56 62.8389 177.467 62.1544 178.266 61.4037L178.278 61.3911L178.291 61.3797C178.367 61.3107 178.442 61.241 178.52 61.1702C179.612 60.143 180.037 59.1898 180.066 57.8818C179.992 57.3064 179.678 56.6833 179.123 56.1889C178.378 55.6737 177.566 55.3578 176.575 55.2087L176.565 55.2077C176.486 55.1954 176.407 55.1824 176.326 55.1698C174.93 54.9927 173.829 55.1376 172.957 55.6362C172.059 56.2596 171.363 57.0637 170.587 58.1013L170.581 58.1096C170.529 58.1786 170.476 58.2473 170.422 58.3184C170.378 58.3798 170.371 58.3891 170.313 58.4683L170.237 58.5745L170.147 58.6694C169.493 59.3572 168.764 59.5871 168.16 59.703L167.959 59.7416L167.753 59.7385C166.675 59.7222 165.66 59.2519 165.003 58.9116C164.64 58.7242 164.292 58.523 164.002 58.3564C163.693 58.1784 163.467 58.0486 163.278 57.9526L163.278 57.9516C162.997 57.8091 162.715 57.6677 162.432 57.5249L162.431 57.5237C162.249 57.432 162.068 57.3398 161.887 57.2481L161.887 57.249C161.803 57.2067 161.719 57.164 161.633 57.1204L161.629 57.119C161.03 56.8146 160.559 56.5787 160.229 56.3606C159.734 56.0328 159.483 55.7039 159.302 55.4731L159.05 55.1512L158.944 54.7568C158.564 53.3446 159.042 52.2516 159.582 51.4467L159.581 51.4466C159.64 51.3568 159.641 51.3567 159.701 51.2653L159.71 51.2505C160.853 49.5435 162.213 48.1494 163.876 46.8934C163.964 46.8257 164.052 46.7583 164.142 46.6885L164.156 46.6782L164.168 46.6686C166.552 44.8901 169.315 43.9175 172.262 43.518L172.261 43.519C172.342 43.5074 172.425 43.4949 172.508 43.4831L172.519 43.4812L172.53 43.4803C174.218 43.2582 175.849 43.4152 177.261 43.5527C177.351 43.5613 177.443 43.5687 177.536 43.5775L177.541 43.578Z" fill="#FFF288" stroke="black" stroke-width="4"/>
<path d="M168.073 81.499C170.972 79.8518 175.148 79.733 178.043 82.1084L178.32 82.3463L178.366 82.3903C178.467 82.4872 178.468 82.4876 178.57 82.5865L178.766 82.7722L178.787 82.7919L178.807 82.8126C180.414 84.4285 181.014 86.4676 180.911 88.4543L180.906 88.5392L180.894 88.6244C180.625 90.5735 179.584 92.3126 177.938 93.5206L177.894 93.5525L177.849 93.5823C175.603 95.0503 173.43 95.1887 171.086 94.8823L171.057 94.8784L171.028 94.8735C168.911 94.5334 167.352 93.2846 166.27 92.0816L166.231 92.0374L166.194 91.9914C164.827 90.2786 164.422 88.2467 164.716 86.3107L164.726 86.2508L164.738 86.1912C165.151 84.2632 166.306 82.6802 167.946 81.5785L168.008 81.5367L168.073 81.499Z" fill="#FFF288" stroke="black" stroke-width="4"/>
<path d="M52.6427 0.00417154C54.263 -0.0483837 55.7971 0.39354 57.0422 1.44964C57.0743 1.47685 57.0743 1.47685 57.107 1.5046C58.1079 2.36417 58.7296 3.53322 59.0377 4.80467C59.0494 4.85286 59.0494 4.85286 59.0614 4.90203C59.1827 5.43391 59.217 5.9521 59.2105 6.4947C59.21 6.55372 59.2097 6.61274 59.2094 6.67176C59.2085 6.81388 59.2071 6.95599 59.2054 7.0981C59.253 7.07972 59.3005 7.06134 59.3494 7.0424C60.1359 6.74245 60.8934 6.56064 61.7417 6.56731C61.7926 6.56761 61.8434 6.56791 61.8957 6.56822C62.8228 6.57882 63.6216 6.77186 64.4533 7.17822C64.4999 7.20095 64.5466 7.22367 64.5946 7.24708C65.7328 7.83204 66.7242 8.79594 67.2976 9.94237C67.3109 9.96881 67.3243 9.99526 67.338 10.0225C67.9641 11.2844 68.1657 12.7709 67.8584 14.1487C67.8513 14.1805 67.8442 14.2122 67.8369 14.245C67.568 15.4128 67.0176 16.4594 66.1759 17.3134C66.1457 17.3441 66.1155 17.3749 66.0843 17.4065C65.3017 18.1543 64.0993 18.8216 63.0111 18.9158C63.0562 18.9727 63.0562 18.9727 63.1022 19.0307C63.8355 19.9711 64.332 21.0929 64.4934 22.2809C64.4978 22.3131 64.5023 22.3454 64.5068 22.3787C64.6356 23.5186 64.439 24.6813 63.9726 25.726C63.9526 25.7715 63.9325 25.817 63.9119 25.8639C63.6313 26.4624 63.2307 26.9777 62.7708 27.4486C62.7354 27.487 62.7354 27.487 62.6993 27.5262C61.9415 28.3306 60.8625 28.7977 59.8063 29.051C59.7626 29.0617 59.7626 29.0617 59.718 29.0726C59.312 29.1681 58.9119 29.1798 58.4964 29.1808C58.4055 29.1812 58.3147 29.1824 58.2238 29.1837C57.6708 29.1877 57.1387 29.1094 56.6091 28.9459C56.5596 28.9307 56.5596 28.9307 56.5092 28.9152C55.7203 28.6635 54.9843 28.273 54.3582 27.729C54.325 27.7002 54.2918 27.6714 54.2576 27.6417C54.1562 27.552 54.0566 27.4607 53.9576 27.3685C53.9279 27.3415 53.8983 27.3145 53.8678 27.2866C53.5226 26.9593 53.2569 26.5624 52.9961 26.1667C52.9743 26.2025 52.9525 26.2384 52.9299 26.2753C52.7367 26.5871 52.5325 26.8646 52.2751 27.1281C52.242 27.162 52.209 27.1959 52.1749 27.2308C52.1419 27.263 52.1088 27.2952 52.0748 27.3284C52.0504 27.3541 52.026 27.3799 52.0009 27.4064C50.9247 28.5254 49.3744 29.1562 47.8331 29.1868C47.2635 29.1943 46.7018 29.1872 46.1459 29.051C46.0966 29.0399 46.0472 29.0287 45.9964 29.0172C44.9273 28.7559 44.0834 28.2528 43.2615 27.5287C43.2332 27.5038 43.2048 27.4789 43.1756 27.4533C42.151 26.4912 41.482 24.951 41.4123 23.5535C41.3901 21.7971 41.7756 20.2693 42.9411 18.9158C42.8898 18.9142 42.8386 18.9125 42.7858 18.9108C41.7874 18.8069 40.8028 18.1927 40.0567 17.5538C40.0205 17.5229 39.9843 17.4921 39.947 17.4604C39.6866 17.2316 39.4648 16.9886 39.2555 16.7125C39.2393 16.6912 39.223 16.67 39.2063 16.648C38.4837 15.6965 38.0208 14.5067 38.0027 13.3027C38.0022 13.272 38.0017 13.2413 38.0012 13.2097C37.9884 12.2349 38.0738 11.3314 38.4543 10.4231C38.4656 10.3957 38.4769 10.3683 38.4886 10.34C38.776 9.65411 39.1954 9.04751 39.6962 8.50021C39.7297 8.46339 39.7632 8.42657 39.7978 8.38863C40.2769 7.88632 40.8413 7.49114 41.4588 7.17822C41.4841 7.16533 41.5094 7.15243 41.5355 7.13914C43.0575 6.37285 44.7093 6.42888 46.2989 6.94806C46.4361 6.99496 46.5714 7.04615 46.7067 7.0981C46.7058 7.05801 46.7058 7.05801 46.7048 7.01711C46.6666 5.13278 47.1346 3.29533 48.4635 1.90056C48.5187 1.84357 48.5742 1.7868 48.6296 1.73006C48.6536 1.70357 48.6776 1.67708 48.7024 1.64978C49.0869 1.23439 49.6149 0.947426 50.1118 0.688498C50.1364 0.67564 50.1611 0.662781 50.1864 0.649533C50.9476 0.258523 51.7881 0.03657 52.6427 0.00417154Z" fill="#F4A99C"/>
<path d="M52.6427 0.00417154C54.263 -0.0483837 55.7971 0.39354 57.0422 1.44964C57.0743 1.47685 57.0743 1.47685 57.107 1.5046C58.1079 2.36417 58.7296 3.53322 59.0377 4.80467C59.0494 4.85286 59.0494 4.85286 59.0614 4.90203C59.1827 5.43391 59.217 5.9521 59.2105 6.4947C59.21 6.55372 59.2097 6.61274 59.2094 6.67176C59.2085 6.81388 59.2071 6.95599 59.2054 7.0981C59.253 7.07972 59.3005 7.06134 59.3494 7.0424C60.1359 6.74245 60.8934 6.56064 61.7417 6.56731C61.7926 6.56761 61.8434 6.56791 61.8957 6.56822C62.8228 6.57882 63.6216 6.77186 64.4533 7.17822C64.4999 7.20095 64.5466 7.22367 64.5946 7.24708C65.7328 7.83204 66.7242 8.79594 67.2976 9.94237C67.3109 9.96881 67.3243 9.99526 67.338 10.0225C67.9641 11.2844 68.1657 12.7709 67.8584 14.1487C67.8513 14.1805 67.8442 14.2122 67.8369 14.245C67.568 15.4128 67.0176 16.4594 66.1759 17.3134C66.1457 17.3441 66.1155 17.3749 66.0843 17.4065C65.3017 18.1543 64.0993 18.8216 63.0111 18.9158C63.0562 18.9727 63.0562 18.9727 63.1022 19.0307C63.8355 19.9711 64.332 21.0929 64.4934 22.2809C64.4978 22.3131 64.5023 22.3454 64.5068 22.3787C64.6356 23.5186 64.439 24.6813 63.9726 25.726C63.9526 25.7715 63.9325 25.817 63.9119 25.8639C63.6313 26.4624 63.2307 26.9777 62.7708 27.4486C62.7354 27.487 62.7354 27.487 62.6993 27.5262C61.9415 28.3306 60.8625 28.7977 59.8063 29.051C59.7626 29.0617 59.7626 29.0617 59.718 29.0726C59.312 29.1681 58.9119 29.1798 58.4964 29.1808C58.4055 29.1812 58.3147 29.1824 58.2238 29.1837C57.6708 29.1877 57.1387 29.1094 56.6091 28.9459C56.5596 28.9307 56.5596 28.9307 56.5092 28.9152C55.7203 28.6635 54.9843 28.273 54.3582 27.729C54.325 27.7002 54.2918 27.6714 54.2576 27.6417C54.1562 27.552 54.0566 27.4607 53.9576 27.3685C53.9279 27.3415 53.8983 27.3145 53.8678 27.2866C53.5226 26.9593 53.2569 26.5624 52.9961 26.1667C52.9743 26.2025 52.9525 26.2384 52.9299 26.2753C52.7367 26.5871 52.5325 26.8646 52.2751 27.1281C52.242 27.162 52.209 27.1959 52.1749 27.2308C52.1419 27.263 52.1088 27.2952 52.0748 27.3284C52.0504 27.3541 52.026 27.3799 52.0009 27.4064C50.9247 28.5254 49.3744 29.1562 47.8331 29.1868C47.2635 29.1943 46.7018 29.1872 46.1459 29.051C46.0966 29.0399 46.0472 29.0287 45.9964 29.0172C44.9273 28.7559 44.0834 28.2528 43.2615 27.5287C43.2332 27.5038 43.2048 27.4789 43.1756 27.4533C42.151 26.4912 41.482 24.951 41.4123 23.5535C41.3901 21.7971 41.7756 20.2693 42.9411 18.9158C42.8898 18.9142 42.8386 18.9125 42.7858 18.9108C41.7874 18.8069 40.8028 18.1927 40.0567 17.5538C40.0205 17.5229 39.9843 17.4921 39.947 17.4604C39.6866 17.2316 39.4648 16.9886 39.2555 16.7125C39.2393 16.6912 39.223 16.67 39.2063 16.648C38.4837 15.6965 38.0208 14.5067 38.0027 13.3027C38.0022 13.272 38.0017 13.2413 38.0012 13.2097C37.9884 12.2349 38.0738 11.3314 38.4543 10.4231C38.4656 10.3957 38.4769 10.3683 38.4886 10.34C38.776 9.65411 39.1954 9.04751 39.6962 8.50021C39.7297 8.46339 39.7632 8.42657 39.7978 8.38863C40.2769 7.88632 40.8413 7.49114 41.4588 7.17822C41.4841 7.16533 41.5094 7.15243 41.5355 7.13914C43.0575 6.37285 44.7093 6.42888 46.2989 6.94806C46.4361 6.99496 46.5714 7.04615 46.7067 7.0981C46.7058 7.05801 46.7058 7.05801 46.7048 7.01711C46.6666 5.13278 47.1346 3.29533 48.4635 1.90056C48.5187 1.84357 48.5742 1.7868 48.6296 1.73006C48.6536 1.70357 48.6776 1.67708 48.7024 1.64978C49.0869 1.23439 49.6149 0.947426 50.1118 0.688498C50.1364 0.67564 50.1611 0.662781 50.1864 0.649533C50.9476 0.258523 51.7881 0.03657 52.6427 0.00417154ZM49.7112 2.65144C49.6615 2.69621 49.6615 2.69621 49.6108 2.74189C48.7251 3.58313 48.1548 4.85932 48.1045 6.08161C48.0833 7.05917 48.2235 7.95278 48.648 8.84154C48.7428 9.04813 48.7848 9.23379 48.7498 9.46165C48.655 9.59861 48.5484 9.6576 48.3892 9.70201C48.1755 9.73023 48.0544 9.69113 47.8821 9.574C47.7663 9.4847 47.656 9.38953 47.5455 9.2939C46.3718 8.28105 44.9303 7.84776 43.3902 7.94938C42.2157 8.07898 41.2135 8.77349 40.4706 9.66181C39.7621 10.5531 39.3553 11.6618 39.3657 12.8017C39.3662 12.8676 39.3662 12.8676 39.3666 12.9348C39.3846 14.2889 39.9159 15.4668 40.8504 16.4371C41.6724 17.2375 42.7174 17.6949 43.8655 17.6865C43.8951 17.6861 43.9247 17.6856 43.9552 17.6852C44.0453 17.684 44.1353 17.6836 44.2254 17.6833C44.5488 17.6816 44.8679 17.6684 45.1901 17.6379C45.3589 17.632 45.4447 17.6605 45.585 17.7541C45.7115 17.8928 45.7336 18.0387 45.7266 18.2215C45.6418 18.5914 45.1643 18.8484 44.8715 19.046C43.8984 19.721 43.2136 20.7748 42.9085 21.9103C42.9002 21.9411 42.8919 21.9718 42.8834 22.0035C42.5972 23.1309 42.7626 24.4715 43.3456 25.4818C43.5519 25.82 43.7864 26.1226 44.0627 26.407C44.0876 26.4344 44.1125 26.4618 44.1382 26.49C44.854 27.2537 46.0505 27.7596 47.0869 27.8169C47.7852 27.8322 48.4405 27.8359 49.1103 27.6088C49.1376 27.5998 49.1649 27.5909 49.193 27.5816C49.782 27.3819 50.3353 27.0687 50.7928 26.6474C50.8239 26.6189 50.8239 26.6189 50.8555 26.5898C51.741 25.7677 52.1833 24.757 52.4746 23.5992C52.5362 23.4235 52.6234 23.2847 52.7683 23.1672C52.9429 23.0941 53.0862 23.0976 53.264 23.1597C53.5126 23.3814 53.5693 23.7764 53.6496 24.0861C53.7593 24.4924 53.8904 24.8688 54.0778 25.2453C54.1067 25.3046 54.1067 25.3046 54.1361 25.3652C54.6782 26.4194 55.6396 27.2011 56.755 27.5818C58.0835 27.9959 59.4131 27.9341 60.6598 27.295C61.7521 26.7115 62.5646 25.7455 62.9459 24.5674C63.2362 23.608 63.2686 22.6419 62.9711 21.68C62.9621 21.6508 62.9531 21.6216 62.9438 21.5916C62.6371 20.6321 62.0163 19.7997 61.2485 19.1562C61.225 19.1346 61.2014 19.1131 61.1772 19.0909C61.0527 18.9773 60.9262 18.873 60.7873 18.7775C60.7623 18.7602 60.7373 18.7429 60.7115 18.7251C60.6616 18.6911 60.6114 18.6575 60.5609 18.6245C60.3993 18.5144 60.3139 18.4189 60.247 18.2348C60.2337 18.108 60.2496 17.996 60.2871 17.8743C60.3751 17.7659 60.4431 17.6961 60.5675 17.6339C60.6383 17.63 60.7093 17.6287 60.7803 17.6289C60.8182 17.6288 60.856 17.6287 60.895 17.6286C61.0081 17.6339 61.0081 17.6339 61.0992 17.6538C61.3227 17.6951 61.5526 17.6838 61.7793 17.684C61.8064 17.684 61.8334 17.684 61.8613 17.6841C63.2391 17.6819 64.3653 17.1597 65.3346 16.1917C66.1616 15.2929 66.6358 14.0791 66.6291 12.8592C66.6288 12.8156 66.6286 12.772 66.6284 12.727C66.6095 11.4619 66.0864 10.2905 65.2145 9.38153C65.1841 9.34863 65.1537 9.31574 65.1224 9.28185C64.3574 8.47804 63.2839 7.96282 62.1696 7.92732C62.0879 7.92654 62.0062 7.9264 61.9245 7.92685C61.8592 7.92719 61.8592 7.92719 61.7926 7.92753C60.5356 7.94625 59.2625 8.44794 58.3642 9.341C58.341 9.36511 58.3179 9.38923 58.2941 9.41408C58.1301 9.58194 57.9807 9.69006 57.7408 9.71953C57.5855 9.69978 57.4921 9.67007 57.3627 9.58183C57.2453 9.41902 57.2345 9.3068 57.2628 9.11078C57.2985 8.94824 57.3667 8.80005 57.4328 8.64793C57.5947 8.259 57.7135 7.87 57.8033 7.45865C57.8132 7.41387 57.8231 7.3691 57.8332 7.32297C57.9667 6.57487 57.922 5.78579 57.7232 5.05504C57.7159 5.02798 57.7086 5.00091 57.7011 4.97303C57.3601 3.75192 56.532 2.65341 55.4398 2.01048C53.5878 0.983814 51.2835 1.23591 49.7112 2.65144Z" fill="black"/>
<path d="M56.5748 11.1129C56.6793 11.2014 56.7808 11.2924 56.8819 11.3847C56.9114 11.4114 56.9409 11.438 56.9713 11.4655C57.9523 12.3976 58.5337 13.8156 58.5757 15.1571C58.5986 16.4255 58.3502 17.591 57.603 18.6356C57.5867 18.6584 57.5704 18.6812 57.5536 18.7047C56.7072 19.8693 55.4856 20.7637 54.0451 20.9916C53.7499 21.0342 53.4545 21.0675 53.1563 21.0793C53.0796 21.0824 53.0796 21.0824 53.0012 21.0857C51.4537 21.1285 50.0704 20.47 48.95 19.4368C48.0034 18.5183 47.4084 17.1247 47.3809 15.8087C47.3774 15.3426 47.3849 14.8893 47.4678 14.4293C47.4725 14.4029 47.4773 14.3765 47.4821 14.3492C47.7382 12.98 48.5328 11.7638 49.6744 10.968C51.7589 9.56253 54.5779 9.47587 56.5748 11.1129Z" fill="#F8E482"/>
<path d="M56.5748 11.1129C56.6793 11.2014 56.7808 11.2924 56.8819 11.3847C56.9114 11.4114 56.9409 11.438 56.9713 11.4655C57.9523 12.3976 58.5337 13.8156 58.5757 15.1571C58.5986 16.4255 58.3502 17.591 57.603 18.6356C57.5867 18.6584 57.5704 18.6812 57.5536 18.7047C56.7072 19.8693 55.4856 20.7637 54.0451 20.9916C53.7499 21.0342 53.4545 21.0675 53.1563 21.0793C53.0796 21.0824 53.0796 21.0824 53.0012 21.0857C51.4537 21.1285 50.0704 20.47 48.95 19.4368C48.0034 18.5183 47.4084 17.1247 47.3809 15.8087C47.3774 15.3426 47.3849 14.8893 47.4678 14.4293C47.4725 14.4029 47.4773 14.3765 47.4821 14.3492C47.7382 12.98 48.5328 11.7638 49.6744 10.968C51.7589 9.56253 54.5779 9.47587 56.5748 11.1129ZM50.1919 12.3061C50.1724 12.3237 50.1528 12.3412 50.1327 12.3593C49.3274 13.0925 48.807 14.148 48.7447 15.2384C48.6946 16.4315 49.0808 17.5071 49.8839 18.4002C50.565 19.1347 51.4895 19.6486 52.4994 19.7287C52.6443 19.7332 52.7885 19.7339 52.9335 19.7322C52.9844 19.7318 53.0354 19.7314 53.0879 19.731C53.4452 19.7251 53.7746 19.7036 54.1178 19.597C54.1428 19.5893 54.1679 19.5815 54.1937 19.5736C54.8552 19.3629 55.4119 19.0245 55.9205 18.5555C55.947 18.5322 55.9735 18.5089 56.0009 18.4849C56.6708 17.8664 57.1558 16.8278 57.2087 15.9244C57.252 14.6453 56.9499 13.5253 56.0744 12.5663C55.3654 11.814 54.4058 11.3043 53.3601 11.2596C52.1502 11.2291 51.1059 11.4776 50.1919 12.3061Z" fill="black"/>
</svg>
