<svg width="350" height="350" viewBox="0 0 350 350" fill="none" xmlns="http://www.w3.org/2000/svg">
<path d="M196.148 96.1857C196.346 96.2197 196.544 96.2538 196.748 96.2888C204.495 97.6557 212.119 100.089 219.429 102.967C219.578 102.831 219.578 102.831 219.729 102.692C220.557 101.954 221.297 101.402 222.339 100.989C222.66 100.858 222.66 100.858 222.988 100.724C224.814 100.12 226.507 99.9472 228.428 99.9576C228.801 99.9595 228.801 99.9595 229.181 99.9615C243.252 100.167 256.356 107.962 265.958 117.807C266.76 118.647 267.502 119.528 268.221 120.44C268.738 121.092 269.278 121.719 269.82 122.349C277.287 131.307 282.492 143.674 281.588 155.406C281.159 159.336 279.261 163.263 276.255 165.857C272.751 168.531 268.733 169.696 264.353 169.674C264.176 169.675 263.999 169.676 263.817 169.677C262.423 169.675 261.049 169.564 259.663 169.42C259.719 169.579 259.774 169.738 259.832 169.901C261.049 173.395 262.152 176.855 262.827 180.496C262.864 180.682 262.901 180.869 262.939 181.062C264.156 187.482 263.996 194.693 262.601 201.064C262.538 201.365 262.538 201.365 262.473 201.672C261.56 205.912 260.127 209.901 258.081 213.722C257.975 213.934 257.869 214.145 257.76 214.363C255.238 219.289 251.345 223.673 247.005 227.058C246.82 227.203 246.82 227.203 246.632 227.35C242.463 230.589 237.721 233.148 232.765 234.969C232.908 235.068 233.051 235.167 233.198 235.269C237.106 238.04 240.705 241.325 243.615 245.141C243.712 245.267 243.809 245.393 243.908 245.523C245.915 248.145 247.599 250.898 249.167 253.801C249.245 253.945 249.323 254.09 249.404 254.239C249.944 255.257 249.944 255.257 249.944 255.764C250.093 255.764 250.242 255.764 250.396 255.764C250.435 255.498 250.435 255.498 250.474 255.226C250.588 254.594 250.72 253.986 250.875 253.364C250.923 253.171 250.972 252.977 251.021 252.778C251.12 252.385 251.22 251.993 251.321 251.6C252.214 247.988 252.253 244.497 252.143 240.804C252.127 240.213 252.118 239.622 252.109 239.031C252.099 238.765 252.099 238.765 252.087 238.494C252.075 237.142 252.48 236.242 253.334 235.195C254.523 234.267 255.962 234.358 257.403 234.517C260.435 235.247 262.699 237.12 264.862 239.264C265.061 239.46 265.26 239.656 265.465 239.858C268.417 242.93 270.043 246.666 271.148 250.735C271.195 250.906 271.242 251.077 271.29 251.253C272.406 255.6 272.441 261.175 271.191 265.484C271.11 265.792 271.03 266.101 270.95 266.411C269.442 272.048 266.447 277.315 262.149 281.306C261.963 281.492 261.776 281.679 261.584 281.871C261.398 282.057 261.211 282.244 261.019 282.436C260.907 282.553 260.794 282.67 260.678 282.79C259.751 283.743 258.783 284.572 257.713 285.36C257.556 285.477 257.398 285.594 257.235 285.714C251.324 290.045 244.516 292.666 237.286 293.738C236.931 293.801 236.931 293.801 236.57 293.866C235.306 294.008 234.05 293.987 232.779 293.978C232.517 293.977 232.255 293.976 231.984 293.975C231.34 293.972 230.697 293.968 230.053 293.964C230.068 294.158 230.084 294.353 230.1 294.554C230.276 296.925 230.323 299.285 230.333 301.662C230.334 301.861 230.335 302.061 230.335 302.266C230.34 303.32 230.343 304.373 230.346 305.427C230.348 306.503 230.356 307.579 230.365 308.655C230.371 309.494 230.373 310.333 230.373 311.172C230.374 311.569 230.377 311.965 230.381 312.362C230.426 316.776 229.678 320.649 226.527 323.962C223.692 326.655 220.22 327.601 216.491 328.32C216.322 328.36 216.153 328.4 215.979 328.441C215.19 328.575 214.412 328.587 213.613 328.592C213.361 328.595 213.361 328.595 213.104 328.597C206.809 328.643 200.612 328.397 195.719 323.859C192.616 320.52 191.772 315.779 191.853 311.368C191.588 311.433 191.322 311.499 191.048 311.566C187.614 312.326 184.072 312.53 180.564 312.544C180.294 312.546 180.023 312.547 179.744 312.549C178.874 312.553 178.003 312.554 177.133 312.555C176.836 312.555 176.539 312.555 176.233 312.556C171.532 312.558 166.912 312.378 162.243 311.82C161.89 311.779 161.536 311.737 161.182 311.696C160.255 311.588 159.328 311.478 158.401 311.368C158.403 311.611 158.406 311.853 158.408 312.103C158.372 316.323 156.887 320.666 153.972 323.736C149.691 327.795 143.81 328.598 138.171 328.603C137.999 328.603 137.827 328.603 137.65 328.603C132.327 328.596 126.997 327.716 122.979 323.908C119.864 320.532 119.451 316.405 119.463 312.024C119.463 311.648 119.462 311.272 119.461 310.896C119.46 309.898 119.462 308.9 119.465 307.902C119.467 307.283 119.468 306.664 119.469 306.045C119.478 300.125 119.537 294.219 119.975 288.313C119.988 288.133 120.002 287.952 120.015 287.767C120.294 283.945 120.639 280.137 121.105 276.333C120.858 276.418 120.611 276.502 120.357 276.589C120.209 276.64 120.062 276.69 119.91 276.742C119.605 276.846 119.301 276.951 118.996 277.057C118.795 277.125 118.795 277.125 118.589 277.194C118.454 277.24 118.319 277.286 118.18 277.334C114.687 278.305 109.99 278.174 106.639 276.785C106.439 276.717 106.238 276.649 106.031 276.579C103.022 275.518 100.376 273.27 98.9543 270.414C97.3111 266.957 97.2324 262.488 98.4157 258.843C98.5189 258.573 98.622 258.303 98.7283 258.024C98.8193 257.78 98.8193 257.78 98.9122 257.53C100.341 253.738 102.302 250.338 104.831 247.175C104.986 246.977 105.14 246.779 105.299 246.575C108.099 243.058 111.293 239.994 114.748 237.131C114.91 236.997 115.071 236.863 115.237 236.725C115.928 236.16 116.613 235.615 117.364 235.131C117.959 234.8 117.959 234.8 118.167 234.291C118.005 234.263 117.843 234.235 117.676 234.206C111.928 232.935 106.04 229.086 101.667 225.25C101.472 225.08 101.278 224.911 101.078 224.736C100.514 224.236 99.9584 223.729 99.4064 223.216C99.2561 223.077 99.1057 222.939 98.9508 222.797C91.193 215.386 86.9686 203.857 86.6832 193.275C86.6652 192.274 86.6617 191.273 86.6639 190.271C86.664 190.06 86.6641 189.848 86.6642 189.63C86.6824 182.783 87.4802 175.19 90.5912 168.968C90.3097 169.041 90.0282 169.114 89.7382 169.189C85.2104 170.188 80.5155 169.321 76.5557 166.985C72.7686 164.545 70.5697 160.57 69.5631 156.266C67.3815 145.908 71.8647 134.485 77.4081 125.913C77.9439 125.109 78.497 124.318 79.0635 123.536C79.1593 123.403 79.255 123.27 79.3536 123.134C82.3198 119.071 85.738 115.352 89.687 112.234C90.0922 111.895 90.4972 111.556 90.902 111.217C93.2766 109.279 95.8418 107.643 98.5023 106.131C98.6649 106.039 98.8274 105.946 98.995 105.851C103.192 103.493 107.621 101.861 112.29 100.706C112.451 100.666 112.611 100.625 112.777 100.584C115.191 100.002 117.618 99.9651 120.088 99.9576C120.245 99.9568 120.401 99.9559 120.563 99.955C124.164 99.9451 128.005 100.482 130.825 102.967C130.825 103.116 130.825 103.265 130.825 103.419C131.043 103.32 131.261 103.221 131.486 103.119C139.287 99.6676 147.525 97.4054 155.914 95.9597C156.128 95.9224 156.343 95.8852 156.563 95.8468C169.477 93.6831 183.269 93.9633 196.148 96.1857Z" fill="#F2D3A3"/>
<path d="M196.148 96.1857C196.346 96.2197 196.544 96.2538 196.748 96.2888C204.495 97.6557 212.119 100.089 219.429 102.967C219.578 102.831 219.578 102.831 219.729 102.692C220.557 101.954 221.297 101.402 222.339 100.989C222.66 100.858 222.66 100.858 222.988 100.724C224.814 100.12 226.507 99.9472 228.428 99.9576C228.801 99.9595 228.801 99.9595 229.181 99.9615C243.252 100.167 256.356 107.962 265.958 117.807C266.76 118.647 267.502 119.528 268.221 120.44C268.738 121.092 269.278 121.719 269.82 122.349C277.287 131.307 282.492 143.674 281.588 155.406C281.159 159.336 279.261 163.263 276.255 165.857C272.751 168.531 268.733 169.696 264.353 169.674C264.176 169.675 263.999 169.676 263.817 169.677C262.423 169.675 261.049 169.564 259.663 169.42C259.719 169.579 259.774 169.738 259.832 169.901C261.049 173.395 262.152 176.855 262.827 180.496C262.864 180.682 262.901 180.869 262.939 181.062C264.156 187.482 263.996 194.693 262.601 201.064C262.538 201.365 262.538 201.365 262.473 201.672C261.56 205.912 260.127 209.901 258.081 213.722C257.975 213.934 257.869 214.145 257.76 214.363C255.238 219.289 251.345 223.673 247.005 227.058C246.82 227.203 246.82 227.203 246.632 227.35C242.463 230.589 237.721 233.148 232.765 234.969C232.908 235.068 233.051 235.167 233.198 235.269C237.106 238.04 240.705 241.325 243.615 245.141C243.712 245.267 243.809 245.393 243.908 245.523C245.915 248.145 247.599 250.898 249.167 253.801C249.245 253.945 249.323 254.09 249.404 254.239C249.944 255.257 249.944 255.257 249.944 255.764C250.093 255.764 250.242 255.764 250.396 255.764C250.435 255.498 250.435 255.498 250.474 255.226C250.588 254.594 250.72 253.986 250.875 253.364C250.923 253.171 250.972 252.977 251.021 252.778C251.12 252.385 251.22 251.993 251.321 251.6C252.214 247.988 252.253 244.497 252.143 240.804C252.127 240.213 252.118 239.622 252.109 239.031C252.099 238.765 252.099 238.765 252.087 238.494C252.075 237.142 252.48 236.242 253.334 235.195C254.523 234.267 255.962 234.358 257.403 234.517C260.435 235.247 262.699 237.12 264.862 239.264C265.061 239.46 265.26 239.656 265.465 239.858C268.417 242.93 270.043 246.666 271.148 250.735C271.195 250.906 271.242 251.077 271.29 251.253C272.406 255.6 272.441 261.175 271.191 265.484C271.11 265.792 271.03 266.101 270.95 266.411C269.442 272.048 266.447 277.315 262.149 281.306C261.963 281.492 261.776 281.679 261.584 281.871C261.398 282.057 261.211 282.244 261.019 282.436C260.907 282.553 260.794 282.67 260.678 282.79C259.751 283.743 258.783 284.572 257.713 285.36C257.556 285.477 257.398 285.594 257.235 285.714C251.324 290.045 244.516 292.666 237.286 293.738C236.931 293.801 236.931 293.801 236.57 293.866C235.306 294.008 234.05 293.987 232.779 293.978C232.517 293.977 232.255 293.976 231.984 293.975C231.34 293.972 230.697 293.968 230.053 293.964C230.068 294.158 230.084 294.353 230.1 294.554C230.276 296.925 230.323 299.285 230.333 301.662C230.334 301.861 230.335 302.061 230.335 302.266C230.34 303.32 230.343 304.373 230.346 305.427C230.348 306.503 230.356 307.579 230.365 308.655C230.371 309.494 230.373 310.333 230.373 311.172C230.374 311.569 230.377 311.965 230.381 312.362C230.426 316.776 229.678 320.649 226.527 323.962C223.692 326.655 220.22 327.601 216.491 328.32C216.322 328.36 216.153 328.4 215.979 328.441C215.19 328.575 214.412 328.587 213.613 328.592C213.361 328.595 213.361 328.595 213.104 328.597C206.809 328.643 200.612 328.397 195.719 323.859C192.616 320.52 191.772 315.779 191.853 311.368C191.588 311.433 191.322 311.499 191.048 311.566C187.614 312.326 184.072 312.53 180.564 312.544C180.294 312.546 180.023 312.547 179.744 312.549C178.874 312.553 178.003 312.554 177.133 312.555C176.836 312.555 176.539 312.555 176.233 312.556C171.532 312.558 166.912 312.378 162.243 311.82C161.89 311.779 161.536 311.737 161.182 311.696C160.255 311.588 159.328 311.478 158.401 311.368C158.403 311.611 158.406 311.853 158.408 312.103C158.372 316.323 156.887 320.666 153.972 323.736C149.691 327.795 143.81 328.598 138.171 328.603C137.999 328.603 137.827 328.603 137.65 328.603C132.327 328.596 126.997 327.716 122.979 323.908C119.864 320.532 119.451 316.405 119.463 312.024C119.463 311.648 119.462 311.272 119.461 310.896C119.46 309.898 119.462 308.9 119.465 307.902C119.467 307.283 119.468 306.664 119.469 306.045C119.478 300.125 119.537 294.219 119.975 288.313C119.988 288.133 120.002 287.952 120.015 287.767C120.294 283.945 120.639 280.137 121.105 276.333C120.858 276.418 120.611 276.502 120.357 276.589C120.209 276.64 120.062 276.69 119.91 276.742C119.605 276.846 119.301 276.951 118.996 277.057C118.795 277.125 118.795 277.125 118.589 277.194C118.454 277.24 118.319 277.286 118.18 277.334C114.687 278.305 109.99 278.174 106.639 276.785C106.439 276.717 106.238 276.649 106.031 276.579C103.022 275.518 100.376 273.27 98.9543 270.414C97.3111 266.957 97.2324 262.488 98.4157 258.843C98.5189 258.573 98.622 258.303 98.7283 258.024C98.8193 257.78 98.8193 257.78 98.9122 257.53C100.341 253.738 102.302 250.338 104.831 247.175C104.986 246.977 105.14 246.779 105.299 246.575C108.099 243.058 111.293 239.994 114.748 237.131C114.91 236.997 115.071 236.863 115.237 236.725C115.928 236.16 116.613 235.615 117.364 235.131C117.959 234.8 117.959 234.8 118.167 234.291C118.005 234.263 117.843 234.235 117.676 234.206C111.928 232.935 106.04 229.086 101.667 225.25C101.472 225.08 101.278 224.911 101.078 224.736C100.514 224.236 99.9584 223.729 99.4064 223.216C99.2561 223.077 99.1057 222.939 98.9508 222.797C91.193 215.386 86.9686 203.857 86.6832 193.275C86.6652 192.274 86.6617 191.273 86.6639 190.271C86.664 190.06 86.6641 189.848 86.6642 189.63C86.6824 182.783 87.4802 175.19 90.5912 168.968C90.3097 169.041 90.0282 169.114 89.7382 169.189C85.2104 170.188 80.5155 169.321 76.5557 166.985C72.7686 164.545 70.5697 160.57 69.5631 156.266C67.3815 145.908 71.8647 134.485 77.4081 125.913C77.9439 125.109 78.497 124.318 79.0635 123.536C79.1593 123.403 79.255 123.27 79.3536 123.134C82.3198 119.071 85.738 115.352 89.687 112.234C90.0922 111.895 90.4972 111.556 90.902 111.217C93.2766 109.279 95.8418 107.643 98.5023 106.131C98.6649 106.039 98.8274 105.946 98.995 105.851C103.192 103.493 107.621 101.861 112.29 100.706C112.451 100.666 112.611 100.625 112.777 100.584C115.191 100.002 117.618 99.9651 120.088 99.9576C120.245 99.9568 120.401 99.9559 120.563 99.955C124.164 99.9451 128.005 100.482 130.825 102.967C130.825 103.116 130.825 103.265 130.825 103.419C131.043 103.32 131.261 103.221 131.486 103.119C139.287 99.6676 147.525 97.4054 155.914 95.9597C156.128 95.9224 156.343 95.8852 156.563 95.8468C169.477 93.6831 183.269 93.9633 196.148 96.1857ZM159.531 101.158C159.173 101.201 159.173 101.201 158.808 101.244C151.13 102.158 143.69 104.037 136.476 106.809C136.27 106.887 136.064 106.966 135.851 107.046C135.327 107.248 134.806 107.457 134.286 107.671C134.01 107.784 133.734 107.898 133.45 108.014C132.823 108.333 132.823 108.333 132.654 108.913C132.631 109.591 132.646 110.257 132.675 110.934C132.746 114.938 131.765 119.047 130.599 122.857C130.531 123.079 130.463 123.301 130.393 123.529C127.004 134.438 122.068 145.759 114.147 154.193C113.718 154.652 113.314 155.121 112.912 155.604C109.501 159.487 104.417 163.987 99.4594 165.662C98.2646 166.077 97.5739 166.375 96.9042 167.479C96.5247 168.341 96.2445 169.228 95.9795 170.131C95.7726 170.835 95.5495 171.534 95.3255 172.233C94.4149 175.131 93.6428 178.035 93.1702 181.037C93.1042 181.456 93.0326 181.874 92.957 182.291C92.5778 184.562 92.5489 186.804 92.5541 189.101C92.5548 189.756 92.5495 190.409 92.5438 191.063C92.5306 194.897 92.8347 198.766 93.911 202.463C93.9683 202.666 94.0256 202.868 94.0846 203.077C97.0085 213.025 103.623 220.91 112.669 225.873C117.598 228.508 122.762 230.48 128.276 231.462C128.477 231.499 128.678 231.535 128.885 231.573C129.067 231.603 129.249 231.634 129.436 231.666C130.185 231.88 130.577 232.339 131.051 232.935C131.125 233.01 131.2 233.084 131.277 233.161C131.374 233.993 131.298 234.47 130.952 235.238C130.169 236.097 129.445 236.275 128.338 236.551C119.027 238.935 111.481 246.878 106.62 254.902C104.456 258.56 102.708 262.37 103.329 266.725C103.803 268.512 105.103 269.916 106.642 270.884C110.004 272.618 114.166 272.937 117.8 271.798C119.466 271.135 121.266 270.251 122.462 268.874C122.649 268.414 122.649 268.414 122.763 267.894C122.812 267.696 122.861 267.497 122.911 267.293C122.962 267.079 123.013 266.864 123.066 266.643C123.149 266.307 123.149 266.307 123.234 265.964C123.412 265.244 123.587 264.523 123.761 263.802C124.421 261.078 125.085 258.367 125.997 255.714C126.059 255.529 126.122 255.344 126.186 255.154C126.582 254.045 126.999 252.931 128.112 252.374C129.036 252.257 129.97 252.166 130.815 252.602C131.411 253.085 131.711 253.451 131.955 254.182C132.013 255.294 131.884 256.198 131.566 257.263C131.481 257.552 131.396 257.841 131.312 258.131C131.267 258.281 131.222 258.432 131.176 258.587C130.077 262.285 129.167 266.01 128.338 269.778C128.271 270.08 128.271 270.08 128.202 270.387C126.828 276.564 126.139 282.871 125.664 289.173C125.635 289.556 125.604 289.938 125.572 290.321C125.427 292.104 125.334 293.884 125.276 295.671C125.267 295.961 125.258 296.251 125.248 296.549C125.146 299.869 125.124 303.189 125.12 306.511C125.118 307.391 125.113 308.27 125.107 309.15C125.102 309.843 125.101 310.535 125.101 311.227C125.1 311.552 125.098 311.876 125.095 312.201C125.071 315.038 125.263 317.743 127.208 319.957C129.998 322.588 133.811 323.015 137.479 322.972C137.959 322.966 138.439 322.967 138.919 322.968C142.939 322.96 147.28 322.488 150.264 319.505C152.299 316.833 152.651 313.694 152.764 310.45C152.781 309.983 152.799 309.516 152.822 309.049C152.841 308.631 152.857 308.213 152.872 307.795C152.985 307.008 153.18 306.576 153.654 305.943C155.628 304.627 159.646 305.694 161.918 305.929C166.643 306.416 171.321 306.664 176.072 306.663C176.777 306.664 177.482 306.668 178.187 306.672C182.562 306.685 186.862 306.311 191.189 305.689C191.762 305.607 192.334 305.527 192.907 305.447C193.151 305.412 193.395 305.377 193.646 305.341C195.46 305.143 195.46 305.143 196.431 305.647C197.109 306.217 197.253 306.469 197.504 307.299C197.562 308.038 197.562 308.038 197.566 308.873C197.571 309.183 197.575 309.494 197.58 309.804C197.585 310.286 197.589 310.767 197.59 311.248C197.606 314.614 197.973 317.879 200.443 320.409C203.236 322.728 207.088 322.941 210.557 322.95C211.044 322.952 211.53 322.959 212.017 322.966C215.819 322.995 219.694 322.573 222.549 319.843C224.14 318.037 224.68 315.809 224.694 313.449C224.695 313.282 224.697 313.115 224.698 312.943C224.702 312.394 224.703 311.844 224.704 311.294C224.706 310.903 224.708 310.512 224.71 310.121C224.715 308.86 224.714 307.599 224.713 306.339C224.713 306.124 224.713 305.91 224.713 305.689C224.71 298.576 224.504 291.546 223.724 284.47C223.674 284.001 223.624 283.532 223.573 283.063C222.591 273.985 221.224 264.678 218.299 255.99C218.161 255.2 218.125 254.498 218.521 253.781C219.031 253.137 219.541 252.607 220.333 252.374C221.155 252.299 221.748 252.311 222.523 252.6C223.716 253.632 224.119 255.264 224.493 256.749C224.539 256.924 224.585 257.099 224.632 257.28C224.729 257.652 224.824 258.024 224.919 258.397C225.068 258.977 225.219 259.556 225.37 260.136C225.848 261.969 226.296 263.801 226.679 265.656C227.147 267.943 227.147 267.943 228.647 269.682C228.813 269.788 228.978 269.895 229.149 270.004C229.319 270.127 229.489 270.25 229.664 270.376C232.654 272.371 236.292 272.794 239.782 272.107C242.251 271.467 244.435 270.364 245.875 268.196C247.013 266.058 246.745 263.607 246.101 261.358C243.193 251.938 235.685 243.387 227.148 238.615C225.244 237.613 223.314 237.168 221.192 236.897C220.324 236.733 219.859 236.456 219.203 235.873C218.838 235.144 218.845 234.402 218.977 233.613C219.898 232.329 221.057 232.142 222.553 231.88C222.702 231.857 222.851 231.833 223.005 231.81C225.174 231.474 227.204 230.892 229.276 230.18C229.438 230.125 229.601 230.07 229.768 230.014C232.154 229.205 234.419 228.312 236.608 227.058C236.914 226.893 237.221 226.73 237.529 226.566C246.38 221.812 253.045 213.624 255.942 204.013C256.224 203.035 256.483 202.053 256.725 201.064C256.762 200.924 256.8 200.783 256.839 200.638C257.669 197.32 257.721 193.842 257.713 190.441C257.713 190.139 257.713 190.139 257.713 189.831C257.705 186.418 257.448 183.162 256.725 179.817C256.686 179.629 256.647 179.44 256.607 179.245C255.843 175.587 254.575 172.036 253.334 168.516C253.281 168.344 253.227 168.172 253.173 167.995C252.893 167.181 252.646 166.927 251.91 166.455C251.61 166.318 251.307 166.186 251.003 166.058C250.674 165.906 250.345 165.752 250.017 165.597C249.77 165.481 249.77 165.481 249.517 165.362C246.9 164.068 244.546 162.171 242.259 160.379C242.133 160.28 242.008 160.182 241.878 160.081C238.452 157.361 235.329 154.205 232.765 150.659C232.655 150.509 232.545 150.359 232.432 150.205C224.374 139.191 216.497 122.823 217.395 108.844C205.091 102.106 190.058 100.333 176.233 100.392C175.312 100.396 174.39 100.393 173.469 100.39C168.78 100.373 164.188 100.599 159.531 101.158Z" fill="black"/>
<path d="M246.453 110.256C253.283 113.749 259.979 119.001 264.635 125.118C264.755 125.273 264.874 125.429 264.997 125.589C266.765 127.91 268.424 130.248 269.834 132.803C269.938 132.989 270.043 133.175 270.15 133.367C273.463 139.331 275.799 145.418 275.824 152.298C275.826 152.738 275.826 152.738 275.829 153.186C275.785 156.39 275.058 159.113 272.846 161.484C269.913 164.146 266.092 164.207 262.349 164.041C253.428 163.414 245.052 156.428 239.4 150.011C238.654 149.127 237.96 148.208 237.286 147.269C237.183 147.126 237.08 146.983 236.973 146.836C233.26 141.64 230.303 136.066 228.048 130.09C227.807 129.452 227.561 128.816 227.314 128.181C225.625 123.767 224.292 119.156 223.498 114.494C223.452 114.274 223.406 114.053 223.359 113.826C223.092 112.469 222.994 111.141 222.975 109.762C222.971 109.598 222.967 109.435 222.963 109.267C222.964 108.253 223.097 107.612 223.724 106.809C229.378 102.568 240.989 107.583 246.453 110.256Z" fill="#7D5232"/>
<path d="M119.891 105.622C120.317 105.62 120.317 105.62 120.752 105.617C124.925 105.626 124.925 105.626 126.53 107.035C126.995 108.104 127.062 109.121 127.053 110.27C127.051 110.538 127.051 110.538 127.05 110.811C126.894 118.835 123.361 127.404 119.996 134.536C119.75 135.062 119.511 135.591 119.274 136.121C115.516 144.409 109.904 151.991 102.571 157.44C102.35 157.609 102.128 157.778 101.9 157.952C98.4332 160.489 94.5019 162.403 90.3653 163.543C90.1614 163.603 89.9574 163.662 89.7473 163.723C87.2054 164.354 84.2176 164.264 81.7761 163.317C81.492 163.21 81.492 163.21 81.2022 163.1C78.5289 161.933 76.7442 159.653 75.6732 156.988C75.0744 155.113 74.8852 153.355 74.9104 151.394C74.9133 151.008 74.9133 151.008 74.9164 150.615C74.9514 148.591 75.185 146.746 75.6732 144.782C75.7336 144.5 75.7939 144.218 75.856 143.927C77.4395 136.709 81.2337 129.923 85.8447 124.214C86.0632 123.926 86.0632 123.926 86.2862 123.633C89.0295 120.101 92.3681 117.061 96.0161 114.494C96.1533 114.396 96.2905 114.297 96.4319 114.196C101.694 110.435 107.768 107.529 114.099 106.131C114.28 106.089 114.462 106.048 114.649 106.005C116.399 105.642 118.108 105.611 119.891 105.622Z" fill="#7D5232"/>
<path d="M181.004 246.723C181.209 246.802 181.414 246.881 181.626 246.962C186.748 249.207 189.826 254.675 191.853 259.607C192.854 262.182 193.41 264.805 193.887 267.518C193.927 267.729 193.967 267.941 194.008 268.158C194.618 272.296 194.389 276.918 192.983 280.854C192.894 281.114 192.804 281.374 192.712 281.641C191.086 285.899 188.002 289.2 183.888 291.121C178.454 293.5 171.473 293.244 166.024 291.13C161.809 289.402 158.866 286.592 156.897 282.496C153.858 275.132 155.154 266.573 158.132 259.409C159.369 256.55 160.813 253.786 162.921 251.47C163.019 251.361 163.116 251.253 163.217 251.141C167.912 245.989 174.479 244.088 181.004 246.723Z" fill="#FFBB4D"/>
<path d="M188.612 244.545C191.394 246.893 193.451 249.66 195.244 252.826C195.318 252.956 195.392 253.086 195.468 253.22C197.738 257.278 199.052 261.81 199.765 266.388C199.804 266.636 199.804 266.636 199.844 266.89C200.975 274.337 199.932 282.511 195.523 288.792C191.249 294.299 185.873 296.915 179.12 298.173C171.208 298.991 163.36 297.412 157.054 292.422C152.592 288.771 150.162 283.362 149.585 277.689C149.504 276.424 149.497 275.157 149.501 273.889C149.501 273.717 149.501 273.546 149.501 273.369C149.517 268.604 150.274 264.109 151.846 259.607C151.896 259.46 151.947 259.313 151.999 259.161C153.685 254.362 156.279 250.188 159.757 246.497C159.884 246.358 160.01 246.22 160.141 246.077C167.717 238.078 180.21 237.643 188.612 244.545ZM164.956 249.435C164.742 249.628 164.528 249.821 164.308 250.019C160.314 253.75 158.121 258.733 156.592 263.901C156.523 264.129 156.454 264.357 156.383 264.592C154.687 270.733 154.467 277.88 157.448 283.672C160.035 288.074 163.633 290.452 168.43 291.953C170.548 292.475 172.595 292.684 174.774 292.664C175.022 292.662 175.27 292.661 175.526 292.659C180.742 292.59 185.418 291.22 189.141 287.409C191.754 284.651 192.958 281.317 193.787 277.677C193.853 277.391 193.927 277.107 194.01 276.826C195.621 269.166 192.821 260.235 188.915 253.73C188.359 252.929 187.755 252.198 187.107 251.47C186.895 251.21 186.895 251.21 186.679 250.945C184.357 248.161 180.994 246.149 177.387 245.593C172.734 245.172 168.473 246.257 164.956 249.435Z" fill="black"/>
<path d="M140.537 169.843C142.85 170.932 144.03 172.595 144.895 174.929C145.357 177.163 145.001 179.033 143.862 181.015C143.092 182.134 142.19 182.803 140.996 183.434C141.356 184.22 141.826 184.89 142.324 185.595C143.911 187.952 144.427 190.189 144.429 192.984C144.432 193.188 144.434 193.392 144.437 193.603C144.444 196.959 143.142 199.998 140.77 202.421C140.621 202.421 140.472 202.421 140.318 202.421C140.243 202.644 140.169 202.868 140.092 203.099C139.101 204.119 137.77 204.761 136.518 205.401C136.301 205.514 136.301 205.514 136.08 205.629C133.792 206.765 131.596 207.062 129.059 207.04C128.639 207.038 128.639 207.038 128.211 207.035C126.22 207 124.537 206.815 122.687 206.037C122.373 205.922 122.373 205.922 122.052 205.805C118.539 204.403 116.053 201.748 114.397 198.409C113.674 196.633 113.293 195.018 113.307 193.097C113.308 192.89 113.31 192.684 113.311 192.471C113.409 188.704 115.262 185.684 117.933 183.113C119.055 182.16 120.268 181.432 121.557 180.722C121.72 180.627 121.882 180.532 122.05 180.434C124.392 179.141 127.166 178.872 129.793 178.899C129.98 178.9 130.167 178.901 130.36 178.902C130.816 178.905 131.272 178.909 131.729 178.913C131.718 178.643 131.708 178.373 131.697 178.095C131.62 175.318 131.829 173.514 133.776 171.407C135.694 169.636 138.007 169.101 140.537 169.843Z" fill="#F4A99C"/>
<path d="M213.864 170.112C215.745 171.204 216.82 172.607 217.621 174.619C218.034 176.176 217.905 177.797 217.621 179.366C217.852 179.362 217.852 179.362 218.087 179.358C218.794 179.349 219.5 179.343 220.207 179.337C220.448 179.334 220.69 179.33 220.939 179.326C225.258 179.299 229.341 181.06 232.482 184.024C235.02 186.716 236.28 189.89 236.251 193.589C236.118 197.301 234.428 200.292 231.861 202.873C231.728 203.014 231.594 203.156 231.456 203.302C228.592 206.097 224.269 207.315 220.364 207.275C218.537 207.208 216.868 206.825 215.135 206.263C214.781 206.152 214.781 206.152 214.419 206.039C210.559 204.642 207.973 201.593 206.194 198.011C205.521 196.384 205.333 194.939 205.345 193.196C205.346 192.996 205.348 192.796 205.349 192.591C205.412 189.171 206.846 186.413 208.806 183.66C208.642 183.573 208.642 183.573 208.474 183.484C206.826 182.543 205.177 181.124 204.602 179.25C204.201 176.764 204.346 174.467 205.733 172.32C207.666 169.804 210.933 168.78 213.864 170.112Z" fill="#F4A99C"/>
<path d="M258.532 241.072C261.347 243.442 263.25 246.237 264.635 249.661C264.7 249.814 264.764 249.967 264.83 250.125C266.968 255.77 266.559 263.148 264.183 268.648C260.377 276.917 253.346 283.133 244.863 286.37C240.004 288.127 234.989 288.952 229.826 288.765C229.484 287.561 229.42 286.307 229.294 285.067C229.247 284.615 229.2 284.163 229.152 283.711C229.123 283.424 229.093 283.136 229.063 282.84C229.022 282.448 229.022 282.448 228.981 282.047C228.925 281.344 228.912 280.655 228.922 279.95C229.106 279.884 229.289 279.818 229.478 279.75C230.728 279.287 231.839 278.85 232.934 278.085C234.466 277.196 236.136 277.351 237.855 277.325C239.979 277.279 241.653 276.932 243.614 276.107C243.887 275.995 244.16 275.883 244.442 275.768C247.762 274.265 250.013 271.959 251.356 268.563C251.658 267.701 251.802 266.914 251.893 266.006C252.102 264.549 252.776 263.553 253.569 262.349C257.722 256.037 258.29 248.427 258.532 241.072Z" fill="#7D5232"/>
<path d="M184.254 177.952C185.367 178.847 186.204 180.046 186.655 181.399C186.796 183.194 186.33 184.435 185.214 185.821C183.523 187.618 181.155 188.662 178.744 189.085C178.446 189.085 178.147 189.085 177.84 189.085C177.845 190.102 177.863 191.119 177.882 192.136C177.884 192.423 177.885 192.709 177.886 193.005C177.926 194.689 178.031 195.946 179.196 197.222C180.55 198.486 182.386 198.523 184.144 198.5C186.891 198.364 188.586 197.032 190.413 195.116C190.768 194.714 191.112 194.303 191.444 193.882C191.88 193.347 192.07 193.182 192.747 193.099C194.004 193.059 194.704 193.21 195.696 194.057C196.315 194.985 196.308 195.681 196.149 196.77C195.183 199.667 192.182 201.77 189.594 203.098C188.776 203.446 187.955 203.741 187.107 204.003C186.883 204.077 186.66 204.152 186.429 204.229C182.285 204.535 178.953 204.469 175.607 201.823C175.095 201.435 175.095 201.435 174.223 201.516C173.709 201.831 173.709 201.831 173.192 202.251C172.022 203.109 170.855 203.576 169.477 204.003C169.141 204.115 169.141 204.115 168.799 204.229C164.306 204.608 160.603 204.22 157.045 201.29C156.781 201.081 156.781 201.081 156.512 200.867C154.944 199.56 153.331 197.908 153.132 195.795C153.216 194.807 153.487 194.367 154.107 193.605C155.117 192.932 156.087 192.99 157.271 193.153C157.864 193.577 157.864 193.577 158.401 194.283C160.003 196.22 161.85 198.1 164.487 198.401C164.969 198.429 165.448 198.438 165.931 198.437C166.101 198.437 166.27 198.437 166.445 198.436C167.776 198.409 168.784 198.143 169.929 197.448C170.09 197.375 170.25 197.302 170.416 197.227C171.009 196.898 171.081 196.494 171.285 195.865C171.36 195.716 171.434 195.567 171.511 195.413C171.546 194.938 171.568 194.461 171.583 193.985C171.592 193.701 171.602 193.417 171.611 193.124C171.62 192.826 171.629 192.528 171.638 192.221C171.648 191.918 171.658 191.615 171.668 191.312C171.692 190.57 171.715 189.827 171.737 189.085C171.389 189.043 171.389 189.043 171.034 189.001C168.484 188.588 165.956 187.39 164.282 185.383C163.346 184.031 162.941 182.843 163.148 181.173C163.666 179.368 165.086 178.199 166.618 177.216C168.094 176.413 169.643 176.057 171.285 175.749C171.491 175.707 171.698 175.665 171.91 175.621C176.096 175.055 180.696 175.52 184.254 177.952Z" fill="black"/>
<path d="M213.864 170.112C215.745 171.204 216.82 172.607 217.622 174.619C217.805 175.311 217.805 175.311 217.848 175.975C217.864 176.117 217.881 176.259 217.898 176.406C218.028 178.252 217.318 180.239 216.223 181.725C214.412 183.375 212.734 183.986 210.309 183.963C208.526 183.797 207.174 182.898 205.974 181.604C204.458 179.641 204.298 177.465 204.512 175.071C204.925 173.163 206.001 171.686 207.6 170.589C209.634 169.441 211.693 169.126 213.864 170.112Z" fill="black"/>
<path d="M140.537 169.843C142.851 170.932 144.031 172.595 144.895 174.93C145.359 177.171 144.984 179.006 143.878 181.007C142.978 182.35 141.644 183.305 140.101 183.803C137.85 184.208 136.111 183.804 134.215 182.53C132.965 181.453 132.034 179.864 131.729 178.235C131.548 175.691 131.731 173.869 133.368 171.85C135.298 169.761 137.774 169.032 140.537 169.843Z" fill="black"/>
<mask id="mask0_635_3296" style="mask-type:alpha" maskUnits="userSpaceOnUse" x="201" y="166" width="20" height="31">
<path d="M209.625 166.445C207.434 166.383 205.467 167.126 203.869 168.626C202.948 169.516 202.355 170.47 201.851 171.636C201.805 171.741 201.759 171.846 201.712 171.954C201.055 173.802 201.319 175.984 202.128 177.726C202.46 178.411 202.827 179.033 203.344 179.597C203.423 179.686 203.503 179.775 203.585 179.866C204.923 181.284 206.854 182.318 208.833 182.392C209.058 182.394 209.283 182.393 209.508 182.39C209.585 182.39 209.663 182.389 209.743 182.389C209.932 182.388 210.121 182.386 210.31 182.384C210.285 182.488 210.26 182.592 210.234 182.699C208.254 190.952 208.254 190.952 210.004 193.956C210.786 195.213 212.225 196.11 213.649 196.466C215.533 196.741 217.214 196.438 218.794 195.346C219.999 194.378 220.761 192.859 220.958 191.341C221.367 186.993 217.872 183.025 215.286 179.896C215.489 179.552 215.702 179.217 215.92 178.882C217.037 177.116 217.627 174.992 217.159 172.907C216.597 170.671 215.362 168.792 213.395 167.556C212.201 166.89 210.988 166.521 209.625 166.445Z" fill="black"/>
</mask>
<g mask="url(#mask0_635_3296)">
<rect width="13.5533" height="16.7803" transform="matrix(-1 0 0 1 220.991 179.666)" fill="black"/>
<path d="M213.295 181.886C210.85 189.498 210.85 189.498 211.902 192.037C212.342 192.883 212.978 193.483 213.866 193.838C214.888 194.15 215.822 194.135 216.778 193.63C217.593 193.06 218.177 192.331 218.371 191.341C218.678 188.134 216.06 184.963 214.172 182.633C213.555 181.886 213.555 181.886 213.295 181.886Z" fill="#AADCE7"/>
</g>
<mask id="mask1_635_3296" style="mask-type:alpha" maskUnits="userSpaceOnUse" x="126" y="166" width="21" height="31">
<path d="M138.266 166.445C140.456 166.383 142.423 167.126 144.022 168.626C144.942 169.516 145.535 170.47 146.04 171.636C146.086 171.741 146.131 171.846 146.178 171.954C146.835 173.802 146.572 175.984 145.763 177.726C145.431 178.411 145.063 179.033 144.547 179.597C144.467 179.686 144.388 179.775 144.306 179.866C142.968 181.284 141.037 182.318 139.058 182.392C138.833 182.394 138.608 182.393 138.383 182.39C138.306 182.39 138.228 182.389 138.148 182.389C137.959 182.388 137.77 182.386 137.581 182.384C137.606 182.488 137.631 182.592 137.657 182.699C139.636 190.952 139.636 190.952 137.886 193.956C137.105 195.213 135.666 196.11 134.242 196.466C132.358 196.741 130.677 196.438 129.097 195.346C127.891 194.378 127.13 192.859 126.932 191.341C126.524 186.993 130.019 183.025 132.605 179.896C132.401 179.552 132.189 179.217 131.97 178.882C130.853 177.116 130.264 174.992 130.732 172.907C131.294 170.671 132.529 168.792 134.496 167.556C135.69 166.89 136.903 166.521 138.266 166.445Z" fill="black"/>
</mask>
<g mask="url(#mask1_635_3296)">
<rect x="126.899" y="179.666" width="13.5533" height="16.7803" fill="black"/>
<path d="M134.595 181.886C137.04 189.498 137.04 189.498 135.989 192.037C135.549 192.883 134.913 193.483 134.025 193.838C133.002 194.15 132.069 194.135 131.112 193.63C130.298 193.06 129.713 192.331 129.52 191.341C129.213 188.134 131.83 184.963 133.718 182.633C134.336 181.886 134.336 181.886 134.595 181.886Z" fill="#AADCE7"/>
</g>
<path d="M209.527 148.764C210.465 149.126 211.014 149.947 211.616 150.668C214.321 153.911 218.792 156.199 223.238 156.754C223.616 156.782 223.991 156.802 224.369 156.818C224.488 156.824 224.607 156.829 224.73 156.834C224.963 156.843 225.197 156.85 225.431 156.854C226.315 156.881 227.037 157.017 227.724 157.566C227.828 157.686 227.828 157.686 227.935 157.808C228.043 157.928 228.043 157.928 228.153 158.05C228.546 158.58 228.561 159.163 228.476 159.78C228.2 160.574 227.802 161.015 226.984 161.412C224.384 162.202 220.813 161.292 218.33 160.46C218.176 160.409 218.176 160.409 218.019 160.356C213.838 158.928 209.707 156.403 207.065 153.082C207.002 153.004 206.939 152.925 206.874 152.844C206.278 152.068 205.969 151.347 206.095 150.396C206.782 148.964 207.868 148.568 209.527 148.764Z" fill="black"/>
<path d="M142.369 149.033C142.996 149.512 143.298 149.92 143.435 150.668C143.538 152.238 142.498 153.272 141.488 154.39C137.717 158.458 131.975 161.291 126.3 161.669C125.958 161.685 125.618 161.693 125.276 161.699C125.162 161.704 125.048 161.709 124.93 161.715C124.054 161.727 123.465 161.511 122.792 160.966C122.279 160.38 122.137 159.835 122.18 159.073C122.305 158.254 122.768 157.815 123.4 157.308C123.836 157.015 124.246 156.985 124.761 156.959C129.704 156.662 134.115 154.974 137.614 151.541C138.003 151.112 138.327 150.667 138.652 150.193C139.532 148.933 140.814 148.29 142.369 149.033Z" fill="black"/>
<path d="M131.203 92.0049C133.118 91.9428 134.931 92.465 136.402 93.7129C136.44 93.7451 136.44 93.7451 136.478 93.7779C137.661 94.7935 138.396 96.1749 138.76 97.6772C138.774 97.7342 138.774 97.7342 138.788 97.7923C138.931 98.4208 138.972 99.0331 138.964 99.6742C138.963 99.7439 138.963 99.8137 138.963 99.8834C138.962 100.051 138.96 100.219 138.958 100.387C139.014 100.365 139.07 100.344 139.128 100.321C140.057 99.967 140.952 99.7521 141.955 99.76C142.015 99.7604 142.075 99.7607 142.137 99.7611C143.232 99.7736 144.176 100.002 145.159 100.482C145.214 100.509 145.269 100.536 145.326 100.563C146.671 101.254 147.842 102.393 148.52 103.748C148.535 103.779 148.551 103.811 148.568 103.843C149.307 105.334 149.545 107.09 149.182 108.718C149.174 108.756 149.166 108.793 149.157 108.832C148.839 110.212 148.189 111.449 147.194 112.458C147.159 112.494 147.123 112.53 147.086 112.568C146.161 113.451 144.741 114.24 143.455 114.351C143.508 114.418 143.508 114.418 143.562 114.487C144.429 115.598 145.016 116.924 145.206 118.327C145.211 118.365 145.217 118.404 145.222 118.443C145.374 119.79 145.142 121.164 144.591 122.398C144.567 122.452 144.544 122.506 144.519 122.561C144.188 123.268 143.714 123.877 143.171 124.434C143.129 124.479 143.129 124.479 143.086 124.525C142.191 125.476 140.916 126.028 139.668 126.327C139.616 126.34 139.616 126.34 139.564 126.353C139.084 126.465 138.611 126.479 138.12 126.48C138.013 126.481 137.905 126.482 137.798 126.484C137.145 126.489 136.516 126.396 135.89 126.203C135.832 126.185 135.832 126.185 135.772 126.167C134.84 125.869 133.97 125.408 133.23 124.765C133.191 124.731 133.152 124.697 133.111 124.662C132.992 124.556 132.874 124.448 132.757 124.339C132.722 124.307 132.687 124.275 132.651 124.242C132.243 123.855 131.929 123.386 131.621 122.919C131.595 122.961 131.569 123.004 131.543 123.047C131.314 123.416 131.073 123.744 130.769 124.055C130.73 124.095 130.691 124.135 130.651 124.176C130.612 124.214 130.572 124.252 130.532 124.292C130.503 124.322 130.475 124.352 130.445 124.384C129.173 125.706 127.341 126.451 125.52 126.487C124.847 126.496 124.184 126.488 123.527 126.327C123.468 126.314 123.41 126.301 123.35 126.287C122.087 125.978 121.09 125.384 120.118 124.528C120.085 124.499 120.051 124.469 120.017 124.439C118.806 123.302 118.016 121.482 117.933 119.831C117.907 117.756 118.363 115.95 119.74 114.351C119.679 114.349 119.619 114.347 119.556 114.345C118.377 114.222 117.213 113.497 116.332 112.742C116.289 112.705 116.246 112.669 116.202 112.631C115.894 112.361 115.632 112.074 115.385 111.748C115.366 111.723 115.346 111.697 115.327 111.672C114.473 110.547 113.926 109.141 113.905 107.719C113.904 107.682 113.903 107.646 113.903 107.609C113.888 106.457 113.989 105.389 114.438 104.316C114.452 104.284 114.465 104.251 114.479 104.218C114.818 103.407 115.314 102.691 115.906 102.044C115.945 102 115.985 101.957 116.026 101.912C116.592 101.319 117.259 100.852 117.988 100.482C118.018 100.467 118.048 100.451 118.079 100.436C119.877 99.5302 121.829 99.5964 123.707 100.21C123.87 100.265 124.029 100.326 124.189 100.387C124.188 100.34 124.188 100.34 124.187 100.292C124.142 98.0649 124.695 95.8938 126.265 94.2457C126.33 94.1784 126.396 94.1113 126.461 94.0443C126.49 94.013 126.518 93.9817 126.547 93.9494C127.002 93.4586 127.626 93.1195 128.213 92.8135C128.242 92.7983 128.271 92.7831 128.301 92.7675C129.2 92.3055 130.193 92.0432 131.203 92.0049Z" fill="#F4A99C"/>
<path d="M131.203 92.0049C133.118 91.9428 134.931 92.465 136.402 93.7129C136.44 93.7451 136.44 93.7451 136.478 93.7779C137.661 94.7935 138.396 96.1749 138.76 97.6772C138.774 97.7342 138.774 97.7342 138.788 97.7923C138.931 98.4208 138.972 99.0331 138.964 99.6742C138.963 99.7439 138.963 99.8137 138.963 99.8834C138.962 100.051 138.96 100.219 138.958 100.387C139.014 100.365 139.07 100.344 139.128 100.321C140.057 99.967 140.952 99.7521 141.955 99.76C142.015 99.7604 142.075 99.7607 142.137 99.7611C143.232 99.7736 144.176 100.002 145.159 100.482C145.214 100.509 145.269 100.536 145.326 100.563C146.671 101.254 147.842 102.393 148.52 103.748C148.535 103.779 148.551 103.811 148.568 103.843C149.307 105.334 149.545 107.09 149.182 108.718C149.174 108.756 149.166 108.793 149.157 108.832C148.839 110.212 148.189 111.449 147.194 112.458C147.159 112.494 147.123 112.53 147.086 112.568C146.161 113.451 144.741 114.24 143.455 114.351C143.508 114.418 143.508 114.418 143.562 114.487C144.429 115.598 145.016 116.924 145.206 118.327C145.211 118.365 145.217 118.404 145.222 118.443C145.374 119.79 145.142 121.164 144.591 122.398C144.567 122.452 144.544 122.506 144.519 122.561C144.188 123.268 143.714 123.877 143.171 124.434C143.129 124.479 143.129 124.479 143.086 124.525C142.191 125.476 140.916 126.028 139.668 126.327C139.616 126.34 139.616 126.34 139.564 126.353C139.084 126.465 138.611 126.479 138.12 126.48C138.013 126.481 137.905 126.482 137.798 126.484C137.145 126.489 136.516 126.396 135.89 126.203C135.832 126.185 135.832 126.185 135.772 126.167C134.84 125.869 133.97 125.408 133.23 124.765C133.191 124.731 133.152 124.697 133.111 124.662C132.992 124.556 132.874 124.448 132.757 124.339C132.722 124.307 132.687 124.275 132.651 124.242C132.243 123.855 131.929 123.386 131.621 122.919C131.595 122.961 131.569 123.004 131.543 123.047C131.314 123.416 131.073 123.744 130.769 124.055C130.73 124.095 130.691 124.135 130.651 124.176C130.612 124.214 130.572 124.252 130.532 124.292C130.503 124.322 130.475 124.352 130.445 124.384C129.173 125.706 127.341 126.451 125.52 126.487C124.847 126.496 124.184 126.488 123.527 126.327C123.468 126.314 123.41 126.301 123.35 126.287C122.087 125.978 121.09 125.384 120.118 124.528C120.085 124.499 120.051 124.469 120.017 124.439C118.806 123.302 118.016 121.482 117.933 119.831C117.907 117.756 118.363 115.95 119.74 114.351C119.679 114.349 119.619 114.347 119.556 114.345C118.377 114.222 117.213 113.497 116.332 112.742C116.289 112.705 116.246 112.669 116.202 112.631C115.894 112.361 115.632 112.074 115.385 111.748C115.366 111.723 115.346 111.697 115.327 111.672C114.473 110.547 113.926 109.141 113.905 107.719C113.904 107.682 113.903 107.646 113.903 107.609C113.888 106.457 113.989 105.389 114.438 104.316C114.452 104.284 114.465 104.251 114.479 104.218C114.818 103.407 115.314 102.691 115.906 102.044C115.945 102 115.985 101.957 116.026 101.912C116.592 101.319 117.259 100.852 117.988 100.482C118.018 100.467 118.048 100.451 118.079 100.436C119.877 99.5302 121.829 99.5964 123.707 100.21C123.87 100.265 124.029 100.326 124.189 100.387C124.188 100.34 124.188 100.34 124.187 100.292C124.142 98.0649 124.695 95.8938 126.265 94.2457C126.33 94.1784 126.396 94.1113 126.461 94.0443C126.49 94.013 126.518 93.9817 126.547 93.9494C127.002 93.4586 127.626 93.1195 128.213 92.8135C128.242 92.7983 128.271 92.7831 128.301 92.7675C129.2 92.3055 130.193 92.0432 131.203 92.0049ZM127.739 95.133C127.681 95.1859 127.681 95.1859 127.621 95.2398C126.574 96.2339 125.9 97.7418 125.841 99.1861C125.816 100.341 125.982 101.397 126.483 102.447C126.595 102.691 126.645 102.911 126.603 103.18C126.491 103.342 126.365 103.412 126.177 103.464C125.925 103.497 125.782 103.451 125.578 103.313C125.441 103.207 125.311 103.095 125.18 102.982C123.794 101.785 122.09 101.273 120.27 101.393C118.883 101.546 117.699 102.367 116.821 103.417C115.983 104.47 115.503 105.78 115.515 107.127C115.516 107.204 115.516 107.204 115.516 107.284C115.537 108.884 116.165 110.276 117.269 111.422C118.241 112.368 119.475 112.909 120.832 112.899C120.867 112.898 120.902 112.898 120.938 112.897C121.045 112.896 121.151 112.895 121.257 112.895C121.64 112.893 122.017 112.877 122.397 112.841C122.597 112.834 122.698 112.868 122.864 112.978C123.013 113.142 123.039 113.315 123.031 113.531C122.931 113.968 122.367 114.272 122.021 114.505C120.871 115.303 120.062 116.548 119.701 117.889C119.692 117.926 119.682 117.962 119.672 118C119.333 119.332 119.529 120.916 120.218 122.11C120.462 122.509 120.739 122.867 121.065 123.203C121.095 123.235 121.124 123.268 121.154 123.301C122 124.203 123.414 124.801 124.639 124.869C125.464 124.887 126.238 124.891 127.029 124.623C127.062 124.612 127.094 124.602 127.127 124.591C127.823 124.355 128.477 123.985 129.018 123.487C129.054 123.453 129.054 123.453 129.092 123.419C130.138 122.447 130.661 121.253 131.005 119.885C131.077 119.677 131.18 119.513 131.352 119.375C131.558 119.288 131.727 119.292 131.938 119.366C132.231 119.628 132.298 120.094 132.393 120.46C132.523 120.941 132.678 121.385 132.899 121.83C132.933 121.9 132.933 121.9 132.968 121.972C133.608 123.217 134.745 124.141 136.062 124.591C137.632 125.08 139.203 125.007 140.676 124.252C141.967 123.563 142.927 122.421 143.378 121.029C143.721 119.895 143.759 118.754 143.407 117.617C143.397 117.583 143.386 117.548 143.375 117.513C143.013 116.379 142.279 115.396 141.372 114.635C141.344 114.61 141.316 114.584 141.288 114.558C141.141 114.424 140.991 114.301 140.827 114.188C140.798 114.167 140.768 114.147 140.737 114.126C140.679 114.086 140.619 114.046 140.56 114.007C140.369 113.877 140.268 113.764 140.189 113.546C140.173 113.397 140.192 113.264 140.236 113.12C140.34 112.992 140.42 112.91 140.567 112.836C140.651 112.832 140.735 112.83 140.819 112.83C140.864 112.83 140.908 112.83 140.954 112.83C141.088 112.836 141.088 112.836 141.196 112.86C141.46 112.909 141.731 112.895 141.999 112.896C142.031 112.896 142.063 112.896 142.096 112.896C143.724 112.893 145.055 112.276 146.2 111.132C147.177 110.07 147.738 108.636 147.73 107.195C147.73 107.143 147.729 107.091 147.729 107.038C147.707 105.544 147.089 104.159 146.058 103.085C146.022 103.046 145.987 103.008 145.95 102.968C145.046 102.018 143.777 101.409 142.46 101.367C142.364 101.366 142.267 101.366 142.171 101.366C142.094 101.367 142.094 101.367 142.015 101.367C140.53 101.389 139.025 101.982 137.964 103.037C137.937 103.066 137.909 103.094 137.881 103.124C137.687 103.322 137.511 103.45 137.227 103.485C137.044 103.461 136.933 103.426 136.781 103.322C136.642 103.13 136.629 102.997 136.663 102.765C136.705 102.573 136.785 102.398 136.863 102.218C137.055 101.759 137.195 101.299 137.301 100.813C137.313 100.76 137.325 100.707 137.337 100.653C137.494 99.7689 137.441 98.8366 137.207 97.9731C137.198 97.9411 137.189 97.9091 137.18 97.8762C136.778 96.4333 135.799 95.1353 134.508 94.3756C132.32 93.1625 129.597 93.4604 127.739 95.133Z" fill="black"/>
<path d="M135.85 105.131C135.973 105.235 136.093 105.343 136.213 105.452C136.247 105.483 136.282 105.515 136.318 105.547C137.477 106.649 138.164 108.324 138.214 109.909C138.241 111.408 137.948 112.785 137.065 114.02C137.045 114.046 137.026 114.073 137.006 114.101C136.006 115.477 134.563 116.534 132.861 116.803C132.512 116.854 132.163 116.893 131.81 116.907C131.72 116.911 131.72 116.911 131.627 116.915C129.799 116.965 128.164 116.187 126.84 114.966C125.722 113.881 125.019 112.234 124.986 110.679C124.982 110.128 124.991 109.593 125.089 109.049C125.094 109.018 125.1 108.987 125.106 108.955C125.408 107.337 126.347 105.9 127.696 104.959C130.159 103.299 133.49 103.196 135.85 105.131Z" fill="#F8E482"/>
<path d="M135.85 105.131C135.973 105.235 136.093 105.343 136.213 105.452C136.247 105.483 136.282 105.515 136.318 105.547C137.477 106.649 138.164 108.324 138.214 109.909C138.241 111.408 137.948 112.785 137.065 114.02C137.045 114.046 137.026 114.073 137.006 114.101C136.006 115.477 134.563 116.534 132.861 116.803C132.512 116.854 132.163 116.893 131.81 116.907C131.72 116.911 131.72 116.911 131.627 116.915C129.799 116.965 128.164 116.187 126.84 114.966C125.722 113.881 125.019 112.234 124.986 110.679C124.982 110.128 124.991 109.593 125.089 109.049C125.094 109.018 125.1 108.987 125.106 108.955C125.408 107.337 126.347 105.9 127.696 104.959C130.159 103.299 133.49 103.196 135.85 105.131ZM128.308 106.541C128.285 106.561 128.261 106.582 128.238 106.603C127.286 107.47 126.671 108.717 126.598 110.005C126.538 111.415 126.995 112.686 127.944 113.741C128.748 114.609 129.841 115.216 131.034 115.311C131.205 115.317 131.376 115.317 131.547 115.315C131.607 115.315 131.668 115.314 131.73 115.314C132.152 115.307 132.541 115.282 132.946 115.156C132.976 115.146 133.006 115.137 133.036 115.128C133.818 114.879 134.476 114.479 135.077 113.925C135.108 113.897 135.139 113.87 135.172 113.841C135.963 113.111 136.536 111.883 136.599 110.816C136.65 109.305 136.293 107.981 135.259 106.848C134.421 105.959 133.287 105.357 132.051 105.304C130.622 105.268 129.388 105.562 128.308 106.541Z" fill="black"/>
</svg>
