<svg width="350" height="350" viewBox="0 0 350 350" fill="none" xmlns="http://www.w3.org/2000/svg">
<path d="M196.148 96.1857C196.346 96.2197 196.544 96.2538 196.748 96.2888C204.495 97.6557 212.119 100.089 219.429 102.967C219.578 102.831 219.578 102.831 219.729 102.692C220.557 101.954 221.297 101.402 222.339 100.989C222.66 100.858 222.66 100.858 222.988 100.724C224.814 100.12 226.507 99.9472 228.428 99.9576C228.801 99.9595 228.801 99.9595 229.181 99.9615C243.252 100.167 256.356 107.962 265.958 117.807C266.76 118.647 267.502 119.528 268.221 120.44C268.738 121.092 269.278 121.719 269.82 122.349C277.287 131.307 282.492 143.674 281.588 155.406C281.159 159.336 279.261 163.263 276.255 165.857C272.751 168.531 268.733 169.696 264.353 169.674C264.176 169.675 263.999 169.676 263.817 169.677C262.423 169.675 261.049 169.564 259.663 169.42C259.719 169.579 259.774 169.738 259.832 169.901C261.049 173.395 262.152 176.855 262.827 180.496C262.864 180.682 262.901 180.869 262.939 181.062C264.156 187.482 263.996 194.693 262.601 201.064C262.538 201.365 262.538 201.365 262.473 201.672C261.56 205.912 260.127 209.901 258.081 213.722C257.975 213.934 257.869 214.145 257.76 214.363C255.238 219.289 251.345 223.673 247.005 227.058C246.82 227.203 246.82 227.203 246.632 227.35C242.463 230.589 237.721 233.148 232.765 234.969C232.908 235.068 233.051 235.167 233.198 235.269C237.106 238.04 240.705 241.325 243.615 245.141C243.712 245.267 243.809 245.393 243.908 245.523C245.915 248.145 247.599 250.898 249.167 253.801C249.245 253.945 249.323 254.09 249.404 254.239C249.944 255.257 249.944 255.257 249.944 255.764C250.093 255.764 250.242 255.764 250.396 255.764C250.435 255.498 250.435 255.498 250.474 255.226C250.588 254.594 250.72 253.986 250.875 253.364C250.923 253.171 250.972 252.977 251.021 252.778C251.12 252.385 251.22 251.993 251.321 251.6C252.214 247.988 252.253 244.497 252.143 240.804C252.127 240.213 252.118 239.622 252.109 239.031C252.099 238.765 252.099 238.765 252.087 238.494C252.075 237.142 252.48 236.242 253.334 235.195C254.523 234.267 255.962 234.358 257.403 234.517C260.435 235.247 262.699 237.12 264.862 239.264C265.061 239.46 265.26 239.656 265.465 239.858C268.417 242.93 270.043 246.666 271.148 250.735C271.195 250.906 271.242 251.077 271.29 251.253C272.406 255.6 272.441 261.175 271.191 265.484C271.11 265.792 271.03 266.101 270.95 266.411C269.442 272.048 266.447 277.315 262.149 281.306C261.963 281.492 261.776 281.679 261.584 281.871C261.398 282.057 261.211 282.244 261.019 282.436C260.907 282.553 260.794 282.67 260.678 282.79C259.751 283.743 258.783 284.572 257.713 285.36C257.556 285.477 257.398 285.594 257.235 285.714C251.324 290.045 244.516 292.666 237.286 293.738C236.931 293.801 236.931 293.801 236.57 293.866C235.306 294.008 234.05 293.987 232.779 293.978C232.517 293.977 232.255 293.976 231.984 293.975C231.34 293.972 230.697 293.968 230.053 293.964C230.068 294.158 230.084 294.353 230.1 294.554C230.276 296.925 230.323 299.285 230.333 301.662C230.334 301.861 230.335 302.061 230.335 302.266C230.34 303.32 230.343 304.373 230.346 305.427C230.348 306.503 230.356 307.579 230.365 308.655C230.371 309.494 230.373 310.333 230.373 311.172C230.374 311.569 230.377 311.965 230.381 312.362C230.426 316.776 229.678 320.649 226.527 323.962C223.692 326.655 220.22 327.601 216.491 328.32C216.322 328.36 216.153 328.4 215.979 328.441C215.19 328.575 214.412 328.587 213.613 328.592C213.361 328.595 213.361 328.595 213.104 328.597C206.809 328.643 200.612 328.397 195.719 323.859C192.616 320.52 191.772 315.779 191.853 311.368C191.588 311.433 191.322 311.499 191.048 311.566C187.614 312.326 184.072 312.53 180.564 312.544C180.294 312.546 180.023 312.547 179.744 312.549C178.874 312.553 178.003 312.554 177.133 312.555C176.836 312.555 176.539 312.555 176.233 312.556C171.532 312.558 166.912 312.378 162.243 311.82C161.89 311.779 161.536 311.737 161.182 311.696C160.255 311.588 159.328 311.478 158.401 311.368C158.403 311.611 158.406 311.853 158.408 312.103C158.372 316.323 156.887 320.666 153.972 323.736C149.691 327.795 143.81 328.598 138.171 328.603C137.999 328.603 137.827 328.603 137.65 328.603C132.327 328.596 126.997 327.716 122.979 323.908C119.864 320.532 119.451 316.405 119.463 312.024C119.463 311.648 119.462 311.272 119.461 310.896C119.46 309.898 119.462 308.9 119.465 307.902C119.467 307.283 119.468 306.664 119.469 306.045C119.478 300.125 119.537 294.219 119.975 288.313C119.988 288.133 120.002 287.952 120.015 287.767C120.294 283.945 120.639 280.137 121.105 276.333C120.858 276.418 120.611 276.502 120.357 276.589C120.209 276.64 120.062 276.69 119.91 276.742C119.605 276.846 119.301 276.951 118.996 277.057C118.795 277.125 118.795 277.125 118.589 277.194C118.454 277.24 118.319 277.286 118.18 277.334C114.687 278.305 109.99 278.174 106.639 276.785C106.439 276.717 106.238 276.649 106.031 276.579C103.022 275.518 100.376 273.27 98.9543 270.414C97.3111 266.957 97.2324 262.488 98.4157 258.843C98.5189 258.573 98.622 258.303 98.7283 258.024C98.8193 257.78 98.8193 257.78 98.9122 257.53C100.341 253.738 102.302 250.338 104.831 247.175C104.986 246.977 105.14 246.779 105.299 246.575C108.099 243.058 111.293 239.994 114.748 237.131C114.91 236.997 115.071 236.863 115.237 236.725C115.928 236.16 116.613 235.615 117.364 235.131C117.959 234.8 117.959 234.8 118.167 234.291C118.005 234.263 117.843 234.235 117.676 234.206C111.928 232.935 106.04 229.086 101.667 225.25C101.472 225.08 101.278 224.911 101.078 224.736C100.514 224.236 99.9584 223.729 99.4064 223.216C99.2561 223.077 99.1057 222.939 98.9508 222.797C91.193 215.386 86.9686 203.857 86.6832 193.275C86.6652 192.274 86.6617 191.273 86.6639 190.271C86.664 190.06 86.6641 189.848 86.6642 189.63C86.6824 182.783 87.4802 175.19 90.5912 168.968C90.3097 169.041 90.0282 169.114 89.7382 169.189C85.2104 170.188 80.5155 169.321 76.5557 166.985C72.7686 164.545 70.5697 160.57 69.5631 156.266C67.3815 145.908 71.8647 134.485 77.4081 125.913C77.9439 125.109 78.497 124.318 79.0635 123.536C79.1593 123.403 79.255 123.27 79.3536 123.134C82.3198 119.071 85.738 115.352 89.687 112.234C90.0922 111.895 90.4972 111.556 90.902 111.217C93.2766 109.279 95.8418 107.643 98.5023 106.131C98.6649 106.039 98.8274 105.946 98.995 105.851C103.192 103.493 107.621 101.861 112.29 100.706C112.451 100.666 112.611 100.625 112.777 100.584C115.191 100.002 117.618 99.9651 120.088 99.9576C120.245 99.9568 120.401 99.9559 120.563 99.955C124.164 99.9451 128.005 100.482 130.825 102.967C130.825 103.116 130.825 103.265 130.825 103.419C131.043 103.32 131.261 103.221 131.486 103.119C139.287 99.6676 147.525 97.4054 155.914 95.9597C156.128 95.9224 156.343 95.8852 156.563 95.8468C169.477 93.6831 183.269 93.9633 196.148 96.1857Z" fill="#F2D3A3"/>
<path d="M196.148 96.1857C196.346 96.2197 196.544 96.2538 196.748 96.2888C204.495 97.6557 212.119 100.089 219.429 102.967C219.578 102.831 219.578 102.831 219.729 102.692C220.557 101.954 221.297 101.402 222.339 100.989C222.66 100.858 222.66 100.858 222.988 100.724C224.814 100.12 226.507 99.9472 228.428 99.9576C228.801 99.9595 228.801 99.9595 229.181 99.9615C243.252 100.167 256.356 107.962 265.958 117.807C266.76 118.647 267.502 119.528 268.221 120.44C268.738 121.092 269.278 121.719 269.82 122.349C277.287 131.307 282.492 143.674 281.588 155.406C281.159 159.336 279.261 163.263 276.255 165.857C272.751 168.531 268.733 169.696 264.353 169.674C264.176 169.675 263.999 169.676 263.817 169.677C262.423 169.675 261.049 169.564 259.663 169.42C259.719 169.579 259.774 169.738 259.832 169.901C261.049 173.395 262.152 176.855 262.827 180.496C262.864 180.682 262.901 180.869 262.939 181.062C264.156 187.482 263.996 194.693 262.601 201.064C262.538 201.365 262.538 201.365 262.473 201.672C261.56 205.912 260.127 209.901 258.081 213.722C257.975 213.934 257.869 214.145 257.76 214.363C255.238 219.289 251.345 223.673 247.005 227.058C246.82 227.203 246.82 227.203 246.632 227.35C242.463 230.589 237.721 233.148 232.765 234.969C232.908 235.068 233.051 235.167 233.198 235.269C237.106 238.04 240.705 241.325 243.615 245.141C243.712 245.267 243.809 245.393 243.908 245.523C245.915 248.145 247.599 250.898 249.167 253.801C249.245 253.945 249.323 254.09 249.404 254.239C249.944 255.257 249.944 255.257 249.944 255.764C250.093 255.764 250.242 255.764 250.396 255.764C250.435 255.498 250.435 255.498 250.474 255.226C250.588 254.594 250.72 253.986 250.875 253.364C250.923 253.171 250.972 252.977 251.021 252.778C251.12 252.385 251.22 251.993 251.321 251.6C252.214 247.988 252.253 244.497 252.143 240.804C252.127 240.213 252.118 239.622 252.109 239.031C252.099 238.765 252.099 238.765 252.087 238.494C252.075 237.142 252.48 236.242 253.334 235.195C254.523 234.267 255.962 234.358 257.403 234.517C260.435 235.247 262.699 237.12 264.862 239.264C265.061 239.46 265.26 239.656 265.465 239.858C268.417 242.93 270.043 246.666 271.148 250.735C271.195 250.906 271.242 251.077 271.29 251.253C272.406 255.6 272.441 261.175 271.191 265.484C271.11 265.792 271.03 266.101 270.95 266.411C269.442 272.048 266.447 277.315 262.149 281.306C261.963 281.492 261.776 281.679 261.584 281.871C261.398 282.057 261.211 282.244 261.019 282.436C260.907 282.553 260.794 282.67 260.678 282.79C259.751 283.743 258.783 284.572 257.713 285.36C257.556 285.477 257.398 285.594 257.235 285.714C251.324 290.045 244.516 292.666 237.286 293.738C236.931 293.801 236.931 293.801 236.57 293.866C235.306 294.008 234.05 293.987 232.779 293.978C232.517 293.977 232.255 293.976 231.984 293.975C231.34 293.972 230.697 293.968 230.053 293.964C230.068 294.158 230.084 294.353 230.1 294.554C230.276 296.925 230.323 299.285 230.333 301.662C230.334 301.861 230.335 302.061 230.335 302.266C230.34 303.32 230.343 304.373 230.346 305.427C230.348 306.503 230.356 307.579 230.365 308.655C230.371 309.494 230.373 310.333 230.373 311.172C230.374 311.569 230.377 311.965 230.381 312.362C230.426 316.776 229.678 320.649 226.527 323.962C223.692 326.655 220.22 327.601 216.491 328.32C216.322 328.36 216.153 328.4 215.979 328.441C215.19 328.575 214.412 328.587 213.613 328.592C213.361 328.595 213.361 328.595 213.104 328.597C206.809 328.643 200.612 328.397 195.719 323.859C192.616 320.52 191.772 315.779 191.853 311.368C191.588 311.433 191.322 311.499 191.048 311.566C187.614 312.326 184.072 312.53 180.564 312.544C180.294 312.546 180.023 312.547 179.744 312.549C178.874 312.553 178.003 312.554 177.133 312.555C176.836 312.555 176.539 312.555 176.233 312.556C171.532 312.558 166.912 312.378 162.243 311.82C161.89 311.779 161.536 311.737 161.182 311.696C160.255 311.588 159.328 311.478 158.401 311.368C158.403 311.611 158.406 311.853 158.408 312.103C158.372 316.323 156.887 320.666 153.972 323.736C149.691 327.795 143.81 328.598 138.171 328.603C137.999 328.603 137.827 328.603 137.65 328.603C132.327 328.596 126.997 327.716 122.979 323.908C119.864 320.532 119.451 316.405 119.463 312.024C119.463 311.648 119.462 311.272 119.461 310.896C119.46 309.898 119.462 308.9 119.465 307.902C119.467 307.283 119.468 306.664 119.469 306.045C119.478 300.125 119.537 294.219 119.975 288.313C119.988 288.133 120.002 287.952 120.015 287.767C120.294 283.945 120.639 280.137 121.105 276.333C120.858 276.418 120.611 276.502 120.357 276.589C120.209 276.64 120.062 276.69 119.91 276.742C119.605 276.846 119.301 276.951 118.996 277.057C118.795 277.125 118.795 277.125 118.589 277.194C118.454 277.24 118.319 277.286 118.18 277.334C114.687 278.305 109.99 278.174 106.639 276.785C106.439 276.717 106.238 276.649 106.031 276.579C103.022 275.518 100.376 273.27 98.9543 270.414C97.3111 266.957 97.2324 262.488 98.4157 258.843C98.5189 258.573 98.622 258.303 98.7283 258.024C98.8193 257.78 98.8193 257.78 98.9122 257.53C100.341 253.738 102.302 250.338 104.831 247.175C104.986 246.977 105.14 246.779 105.299 246.575C108.099 243.058 111.293 239.994 114.748 237.131C114.91 236.997 115.071 236.863 115.237 236.725C115.928 236.16 116.613 235.615 117.364 235.131C117.959 234.8 117.959 234.8 118.167 234.291C118.005 234.263 117.843 234.235 117.676 234.206C111.928 232.935 106.04 229.086 101.667 225.25C101.472 225.08 101.278 224.911 101.078 224.736C100.514 224.236 99.9584 223.729 99.4064 223.216C99.2561 223.077 99.1057 222.939 98.9508 222.797C91.193 215.386 86.9686 203.857 86.6832 193.275C86.6652 192.274 86.6617 191.273 86.6639 190.271C86.664 190.06 86.6641 189.848 86.6642 189.63C86.6824 182.783 87.4802 175.19 90.5912 168.968C90.3097 169.041 90.0282 169.114 89.7382 169.189C85.2104 170.188 80.5155 169.321 76.5557 166.985C72.7686 164.545 70.5697 160.57 69.5631 156.266C67.3815 145.908 71.8647 134.485 77.4081 125.913C77.9439 125.109 78.497 124.318 79.0635 123.536C79.1593 123.403 79.255 123.27 79.3536 123.134C82.3198 119.071 85.738 115.352 89.687 112.234C90.0922 111.895 90.4972 111.556 90.902 111.217C93.2766 109.279 95.8418 107.643 98.5023 106.131C98.6649 106.039 98.8274 105.946 98.995 105.851C103.192 103.493 107.621 101.861 112.29 100.706C112.451 100.666 112.611 100.625 112.777 100.584C115.191 100.002 117.618 99.9651 120.088 99.9576C120.245 99.9568 120.401 99.9559 120.563 99.955C124.164 99.9451 128.005 100.482 130.825 102.967C130.825 103.116 130.825 103.265 130.825 103.419C131.043 103.32 131.261 103.221 131.486 103.119C139.287 99.6676 147.525 97.4054 155.914 95.9597C156.128 95.9224 156.343 95.8852 156.563 95.8468C169.477 93.6831 183.269 93.9633 196.148 96.1857ZM159.531 101.158C159.173 101.201 159.173 101.201 158.808 101.244C151.13 102.158 143.69 104.037 136.476 106.809C136.27 106.887 136.064 106.966 135.851 107.046C135.327 107.248 134.806 107.457 134.286 107.671C134.01 107.784 133.734 107.898 133.45 108.014C132.823 108.333 132.823 108.333 132.654 108.913C132.631 109.591 132.646 110.257 132.675 110.934C132.746 114.938 131.765 119.047 130.599 122.857C130.531 123.079 130.463 123.301 130.393 123.529C127.004 134.438 122.068 145.759 114.147 154.193C113.718 154.652 113.314 155.121 112.912 155.604C109.501 159.487 104.417 163.987 99.4594 165.662C98.2646 166.077 97.5739 166.375 96.9042 167.479C96.5247 168.341 96.2445 169.228 95.9795 170.131C95.7726 170.835 95.5495 171.534 95.3255 172.233C94.4149 175.131 93.6428 178.035 93.1702 181.037C93.1042 181.456 93.0326 181.874 92.957 182.291C92.5778 184.562 92.5489 186.804 92.5541 189.101C92.5548 189.756 92.5495 190.409 92.5438 191.063C92.5306 194.897 92.8347 198.766 93.911 202.463C93.9683 202.666 94.0256 202.868 94.0846 203.077C97.0085 213.025 103.623 220.91 112.669 225.873C117.598 228.508 122.762 230.48 128.276 231.462C128.477 231.499 128.678 231.535 128.885 231.573C129.067 231.603 129.249 231.634 129.436 231.666C130.185 231.88 130.577 232.339 131.051 232.935C131.125 233.01 131.2 233.084 131.277 233.161C131.374 233.993 131.298 234.47 130.952 235.238C130.169 236.097 129.445 236.275 128.338 236.551C119.027 238.935 111.481 246.878 106.62 254.902C104.456 258.56 102.708 262.37 103.329 266.725C103.803 268.512 105.103 269.916 106.642 270.884C110.004 272.618 114.166 272.937 117.8 271.798C119.466 271.135 121.266 270.251 122.462 268.874C122.649 268.414 122.649 268.414 122.763 267.894C122.812 267.696 122.861 267.497 122.911 267.293C122.962 267.079 123.013 266.864 123.066 266.643C123.149 266.307 123.149 266.307 123.234 265.964C123.412 265.244 123.587 264.523 123.761 263.802C124.421 261.078 125.085 258.367 125.997 255.714C126.059 255.529 126.122 255.344 126.186 255.154C126.582 254.045 126.999 252.931 128.112 252.374C129.036 252.257 129.97 252.166 130.815 252.602C131.411 253.085 131.711 253.451 131.955 254.182C132.013 255.294 131.884 256.198 131.566 257.263C131.481 257.552 131.396 257.841 131.312 258.131C131.267 258.281 131.222 258.432 131.176 258.587C130.077 262.285 129.167 266.01 128.338 269.778C128.271 270.08 128.271 270.08 128.202 270.387C126.828 276.564 126.139 282.871 125.664 289.173C125.635 289.556 125.604 289.938 125.572 290.321C125.427 292.104 125.334 293.884 125.276 295.671C125.267 295.961 125.258 296.251 125.248 296.549C125.146 299.869 125.124 303.189 125.12 306.511C125.118 307.391 125.113 308.27 125.107 309.15C125.102 309.843 125.101 310.535 125.101 311.227C125.1 311.552 125.098 311.876 125.095 312.201C125.071 315.038 125.263 317.743 127.208 319.957C129.998 322.588 133.811 323.015 137.479 322.972C137.959 322.966 138.439 322.967 138.919 322.968C142.939 322.96 147.28 322.488 150.264 319.505C152.299 316.833 152.651 313.694 152.764 310.45C152.781 309.983 152.799 309.516 152.822 309.049C152.841 308.631 152.857 308.213 152.872 307.795C152.985 307.008 153.18 306.576 153.654 305.943C155.628 304.627 159.646 305.694 161.918 305.929C166.643 306.416 171.321 306.664 176.072 306.663C176.777 306.664 177.482 306.668 178.187 306.672C182.562 306.685 186.862 306.311 191.189 305.689C191.762 305.607 192.334 305.527 192.907 305.447C193.151 305.412 193.395 305.377 193.646 305.341C195.46 305.143 195.46 305.143 196.431 305.647C197.109 306.217 197.253 306.469 197.504 307.299C197.562 308.038 197.562 308.038 197.566 308.873C197.571 309.183 197.575 309.494 197.58 309.804C197.585 310.286 197.589 310.767 197.59 311.248C197.606 314.614 197.973 317.879 200.443 320.409C203.236 322.728 207.088 322.941 210.557 322.95C211.044 322.952 211.53 322.959 212.017 322.966C215.819 322.995 219.694 322.573 222.549 319.843C224.14 318.037 224.68 315.809 224.694 313.449C224.695 313.282 224.697 313.115 224.698 312.943C224.702 312.394 224.703 311.844 224.704 311.294C224.706 310.903 224.708 310.512 224.71 310.121C224.715 308.86 224.714 307.599 224.713 306.339C224.713 306.124 224.713 305.91 224.713 305.689C224.71 298.576 224.504 291.546 223.724 284.47C223.674 284.001 223.624 283.532 223.573 283.063C222.591 273.985 221.224 264.678 218.299 255.99C218.161 255.2 218.125 254.498 218.521 253.781C219.031 253.137 219.541 252.607 220.333 252.374C221.155 252.299 221.748 252.311 222.523 252.6C223.716 253.632 224.119 255.264 224.493 256.749C224.539 256.924 224.585 257.099 224.632 257.28C224.729 257.652 224.824 258.024 224.919 258.397C225.068 258.977 225.219 259.556 225.37 260.136C225.848 261.969 226.296 263.801 226.679 265.656C227.147 267.943 227.147 267.943 228.647 269.682C228.813 269.788 228.978 269.895 229.149 270.004C229.319 270.127 229.489 270.25 229.664 270.376C232.654 272.371 236.292 272.794 239.782 272.107C242.251 271.467 244.435 270.364 245.875 268.196C247.013 266.058 246.745 263.607 246.101 261.358C243.193 251.938 235.685 243.387 227.148 238.615C225.244 237.613 223.314 237.168 221.192 236.897C220.324 236.733 219.859 236.456 219.203 235.873C218.838 235.144 218.845 234.402 218.977 233.613C219.898 232.329 221.057 232.142 222.553 231.88C222.702 231.857 222.851 231.833 223.005 231.81C225.174 231.474 227.204 230.892 229.276 230.18C229.438 230.125 229.601 230.07 229.768 230.014C232.154 229.205 234.419 228.312 236.608 227.058C236.914 226.893 237.221 226.73 237.529 226.566C246.38 221.812 253.045 213.624 255.942 204.013C256.224 203.035 256.483 202.053 256.725 201.064C256.762 200.924 256.8 200.783 256.839 200.638C257.669 197.32 257.721 193.842 257.713 190.441C257.713 190.139 257.713 190.139 257.713 189.831C257.705 186.418 257.448 183.162 256.725 179.817C256.686 179.629 256.647 179.44 256.607 179.245C255.843 175.587 254.575 172.036 253.334 168.516C253.281 168.344 253.227 168.172 253.173 167.995C252.893 167.181 252.646 166.927 251.91 166.455C251.61 166.318 251.307 166.186 251.003 166.058C250.674 165.906 250.345 165.752 250.017 165.597C249.77 165.481 249.77 165.481 249.517 165.362C246.9 164.068 244.546 162.171 242.259 160.379C242.133 160.28 242.008 160.182 241.878 160.081C238.452 157.361 235.329 154.205 232.765 150.659C232.655 150.509 232.545 150.359 232.432 150.205C224.374 139.191 216.497 122.823 217.395 108.844C205.091 102.106 190.058 100.333 176.233 100.392C175.312 100.396 174.39 100.393 173.469 100.39C168.78 100.373 164.188 100.599 159.531 101.158Z" fill="black"/>
<path d="M246.453 110.256C253.283 113.749 259.979 119.001 264.635 125.118C264.755 125.273 264.874 125.429 264.997 125.589C266.765 127.91 268.424 130.248 269.834 132.803C269.938 132.989 270.043 133.175 270.15 133.367C273.463 139.331 275.799 145.418 275.824 152.298C275.826 152.738 275.826 152.738 275.829 153.186C275.785 156.39 275.058 159.113 272.846 161.484C269.913 164.146 266.092 164.207 262.349 164.041C253.428 163.414 245.052 156.428 239.4 150.011C238.654 149.127 237.96 148.208 237.286 147.269C237.183 147.126 237.08 146.983 236.973 146.836C233.26 141.64 230.303 136.066 228.048 130.09C227.807 129.452 227.561 128.816 227.314 128.181C225.625 123.767 224.292 119.156 223.498 114.494C223.452 114.274 223.406 114.053 223.359 113.826C223.092 112.469 222.994 111.141 222.975 109.762C222.971 109.598 222.967 109.435 222.963 109.267C222.964 108.253 223.097 107.612 223.724 106.809C229.378 102.568 240.989 107.583 246.453 110.256Z" fill="#7D5232"/>
<path d="M119.891 105.622C120.317 105.62 120.317 105.62 120.752 105.617C124.925 105.626 124.925 105.626 126.53 107.035C126.995 108.104 127.062 109.121 127.053 110.27C127.051 110.538 127.051 110.538 127.05 110.811C126.894 118.835 123.361 127.404 119.996 134.536C119.75 135.062 119.511 135.591 119.274 136.121C115.516 144.409 109.904 151.991 102.571 157.44C102.35 157.609 102.128 157.778 101.9 157.952C98.4332 160.489 94.5019 162.403 90.3653 163.543C90.1614 163.603 89.9574 163.662 89.7473 163.723C87.2054 164.354 84.2176 164.264 81.7761 163.317C81.492 163.21 81.492 163.21 81.2022 163.1C78.5289 161.933 76.7442 159.653 75.6732 156.988C75.0744 155.113 74.8852 153.355 74.9104 151.394C74.9133 151.008 74.9133 151.008 74.9164 150.615C74.9514 148.591 75.185 146.746 75.6732 144.782C75.7336 144.5 75.7939 144.218 75.856 143.927C77.4395 136.709 81.2337 129.923 85.8447 124.214C86.0632 123.926 86.0632 123.926 86.2862 123.633C89.0295 120.101 92.3681 117.061 96.0161 114.494C96.1533 114.396 96.2905 114.297 96.4319 114.196C101.694 110.435 107.768 107.529 114.099 106.131C114.28 106.089 114.462 106.048 114.649 106.005C116.399 105.642 118.108 105.611 119.891 105.622Z" fill="#7D5232"/>
<path d="M181.005 246.723C181.21 246.802 181.415 246.881 181.627 246.963C186.749 249.207 189.827 254.675 191.854 259.607C192.855 262.183 193.411 264.805 193.888 267.518C193.928 267.73 193.968 267.941 194.009 268.159C194.619 272.296 194.39 276.919 192.984 280.854C192.895 281.114 192.805 281.374 192.713 281.642C191.087 285.9 188.003 289.2 183.889 291.122C178.455 293.501 171.474 293.245 166.025 291.131C161.81 289.403 158.867 286.592 156.898 282.497C153.859 275.132 155.155 266.573 158.133 259.409C159.37 256.551 160.814 253.786 162.922 251.47C163.02 251.362 163.117 251.253 163.218 251.142C167.913 245.989 174.48 244.089 181.005 246.723Z" fill="#FFBB4D"/>
<path d="M188.612 244.545C191.394 246.894 193.451 249.661 195.244 252.826C195.318 252.956 195.392 253.086 195.468 253.22C197.738 257.278 199.052 261.811 199.765 266.388C199.804 266.637 199.804 266.637 199.844 266.89C200.975 274.337 199.932 282.512 195.523 288.793C191.249 294.3 185.873 296.916 179.12 298.173C171.208 298.991 163.36 297.412 157.054 292.422C152.592 288.772 150.162 283.363 149.585 277.69C149.504 276.424 149.497 275.158 149.501 273.89C149.501 273.718 149.501 273.546 149.501 273.369C149.517 268.604 150.274 264.11 151.846 259.607C151.896 259.46 151.947 259.313 151.999 259.162C153.685 254.362 156.279 250.189 159.757 246.498C159.884 246.359 160.01 246.22 160.141 246.077C167.717 238.079 180.21 237.643 188.612 244.545ZM164.956 249.436C164.742 249.629 164.528 249.821 164.308 250.02C160.314 253.751 158.121 258.734 156.592 263.902C156.523 264.13 156.454 264.358 156.383 264.592C154.687 270.734 154.467 277.881 157.448 283.673C160.035 288.074 163.633 290.453 168.43 291.954C170.548 292.476 172.595 292.684 174.774 292.665C175.022 292.663 175.27 292.661 175.526 292.659C180.742 292.59 185.418 291.221 189.141 287.409C191.754 284.651 192.958 281.318 193.787 277.677C193.853 277.391 193.927 277.107 194.01 276.826C195.621 269.167 192.821 260.235 188.915 253.731C188.359 252.929 187.755 252.198 187.107 251.47C186.895 251.211 186.895 251.211 186.679 250.946C184.357 248.161 180.994 246.15 177.387 245.593C172.734 245.173 168.473 246.258 164.956 249.436Z" fill="black"/>
<path d="M140.537 169.843C142.85 170.932 144.03 172.595 144.895 174.929C145.357 177.163 145.001 179.033 143.862 181.015C143.092 182.134 142.19 182.803 140.996 183.434C141.356 184.22 141.826 184.89 142.324 185.595C143.911 187.952 144.427 190.189 144.429 192.984C144.432 193.188 144.434 193.392 144.437 193.603C144.444 196.959 143.142 199.998 140.77 202.421C140.621 202.421 140.472 202.421 140.318 202.421C140.243 202.644 140.169 202.868 140.092 203.099C139.101 204.119 137.77 204.761 136.518 205.401C136.301 205.514 136.301 205.514 136.08 205.629C133.792 206.765 131.596 207.062 129.059 207.04C128.639 207.038 128.639 207.038 128.211 207.035C126.22 207 124.537 206.815 122.687 206.037C122.373 205.922 122.373 205.922 122.052 205.805C118.539 204.403 116.053 201.748 114.397 198.409C113.674 196.633 113.293 195.018 113.307 193.097C113.308 192.89 113.31 192.684 113.311 192.471C113.409 188.704 115.262 185.684 117.933 183.113C119.055 182.16 120.268 181.432 121.557 180.722C121.72 180.627 121.882 180.532 122.05 180.434C124.392 179.141 127.166 178.872 129.793 178.899C129.98 178.9 130.167 178.901 130.36 178.902C130.816 178.905 131.272 178.909 131.729 178.913C131.718 178.643 131.708 178.373 131.697 178.095C131.62 175.318 131.829 173.514 133.776 171.407C135.694 169.636 138.007 169.101 140.537 169.843Z" fill="#F4A99C"/>
<path d="M213.863 170.112C215.744 171.204 216.819 172.607 217.62 174.619C218.033 176.176 217.904 177.797 217.62 179.366C217.851 179.362 217.851 179.362 218.086 179.358C218.793 179.349 219.499 179.343 220.206 179.337C220.447 179.334 220.689 179.33 220.938 179.326C225.257 179.299 229.34 181.06 232.481 184.024C235.019 186.716 236.279 189.89 236.25 193.589C236.117 197.301 234.428 200.292 231.86 202.873C231.727 203.014 231.593 203.156 231.455 203.302C228.591 206.097 224.268 207.315 220.363 207.275C218.536 207.208 216.867 206.825 215.134 206.263C214.78 206.152 214.78 206.152 214.418 206.039C210.558 204.642 207.972 201.593 206.193 198.011C205.52 196.384 205.332 194.939 205.344 193.196C205.345 192.996 205.347 192.796 205.348 192.591C205.411 189.171 206.845 186.413 208.805 183.66C208.641 183.573 208.641 183.573 208.473 183.484C206.825 182.543 205.176 181.124 204.601 179.25C204.2 176.764 204.345 174.467 205.732 172.32C207.666 169.804 210.932 168.78 213.863 170.112Z" fill="#F4A99C"/>
<path d="M258.532 241.072C261.347 243.442 263.25 246.237 264.635 249.661C264.7 249.814 264.764 249.967 264.83 250.125C266.968 255.77 266.559 263.148 264.183 268.648C260.377 276.917 253.346 283.133 244.863 286.37C240.004 288.127 234.989 288.952 229.826 288.765C229.484 287.561 229.42 286.307 229.294 285.067C229.247 284.615 229.2 284.163 229.152 283.711C229.123 283.424 229.093 283.136 229.063 282.84C229.022 282.448 229.022 282.448 228.981 282.047C228.925 281.344 228.912 280.655 228.922 279.95C229.106 279.884 229.289 279.818 229.478 279.75C230.728 279.287 231.839 278.85 232.934 278.085C234.466 277.196 236.136 277.351 237.855 277.325C239.979 277.279 241.653 276.932 243.614 276.107C243.887 275.995 244.16 275.883 244.442 275.768C247.762 274.265 250.013 271.959 251.356 268.563C251.658 267.701 251.802 266.914 251.893 266.006C252.102 264.549 252.776 263.553 253.569 262.349C257.722 256.037 258.29 248.427 258.532 241.072Z" fill="#7D5232"/>
<path d="M184.253 177.953C185.366 178.848 186.203 180.046 186.654 181.4C186.795 183.195 186.329 184.436 185.213 185.822C183.522 187.619 181.154 188.662 178.743 189.085C178.445 189.085 178.146 189.085 177.839 189.085C177.844 190.102 177.862 191.119 177.881 192.136C177.883 192.423 177.884 192.71 177.885 193.005C177.925 194.689 178.03 195.946 179.195 197.222C180.549 198.487 182.385 198.524 184.143 198.5C186.89 198.364 188.585 197.033 190.412 195.116C190.767 194.715 191.112 194.303 191.443 193.882C191.879 193.348 192.069 193.182 192.746 193.1C194.003 193.059 194.703 193.211 195.695 194.058C196.314 194.985 196.307 195.681 196.148 196.77C195.182 199.667 192.181 201.771 189.593 203.099C188.775 203.446 187.954 203.742 187.106 204.003C186.882 204.078 186.659 204.152 186.428 204.229C182.284 204.535 178.952 204.47 175.606 201.823C175.094 201.436 175.094 201.436 174.222 201.517C173.708 201.832 173.708 201.832 173.191 202.251C172.021 203.109 170.854 203.577 169.476 204.003C169.14 204.115 169.14 204.115 168.798 204.229C164.305 204.608 160.602 204.22 157.044 201.291C156.78 201.081 156.78 201.081 156.511 200.868C154.943 199.561 153.33 197.908 153.131 195.795C153.215 194.808 153.486 194.367 154.106 193.606C155.116 192.932 156.086 192.991 157.27 193.154C157.863 193.577 157.863 193.577 158.4 194.284C160.002 196.221 161.849 198.101 164.486 198.402C164.969 198.429 165.447 198.438 165.93 198.437C166.1 198.437 166.269 198.437 166.444 198.437C167.775 198.41 168.783 198.144 169.928 197.448C170.089 197.375 170.25 197.302 170.415 197.227C171.008 196.898 171.08 196.495 171.284 195.866C171.359 195.717 171.433 195.568 171.51 195.414C171.545 194.938 171.567 194.462 171.582 193.985C171.591 193.701 171.601 193.417 171.61 193.124C171.619 192.826 171.628 192.528 171.637 192.221C171.647 191.918 171.657 191.615 171.667 191.313C171.691 190.57 171.714 189.828 171.736 189.085C171.388 189.043 171.388 189.043 171.033 189.001C168.483 188.589 165.955 187.39 164.281 185.384C163.345 184.031 162.94 182.844 163.147 181.174C163.665 179.369 165.085 178.199 166.617 177.217C168.093 176.414 169.642 176.057 171.284 175.749C171.49 175.707 171.697 175.665 171.909 175.622C176.095 175.056 180.695 175.521 184.253 177.953Z" fill="black"/>
<path d="M213.864 170.113C215.745 171.204 216.82 172.608 217.622 174.619C217.805 175.312 217.805 175.312 217.848 175.976C217.864 176.118 217.881 176.26 217.898 176.406C218.028 178.253 217.318 180.24 216.223 181.725C214.412 183.376 212.734 183.986 210.309 183.964C208.526 183.797 207.174 182.898 205.974 181.604C204.458 179.642 204.298 177.465 204.512 175.071C204.925 173.163 206.001 171.687 207.6 170.59C209.634 169.441 211.693 169.126 213.864 170.113Z" fill="black"/>
<path d="M140.537 169.843C142.851 170.932 144.031 172.595 144.895 174.93C145.359 177.171 144.984 179.006 143.878 181.007C142.978 182.35 141.644 183.305 140.101 183.803C137.85 184.208 136.111 183.804 134.215 182.53C132.965 181.453 132.034 179.864 131.729 178.235C131.548 175.691 131.731 173.869 133.368 171.85C135.298 169.761 137.774 169.032 140.537 169.843Z" fill="black"/>
<path d="M143.641 144.374C144.426 144.94 144.796 145.643 145.193 146.499C145.269 146.66 145.269 146.66 145.347 146.824C145.512 147.173 145.675 147.523 145.838 147.873C145.953 148.117 146.067 148.36 146.181 148.604C146.994 150.338 147.786 152.081 148.56 153.833C148.674 154.063 148.674 154.063 148.791 154.298C149.002 154.761 149.095 155.21 149.191 155.708C149.442 156.737 149.745 157.574 150.577 158.265C152.411 159.123 154.722 159.138 156.706 159.317C157.628 159.404 158.548 159.512 159.469 159.618C160.185 159.699 160.901 159.778 161.619 159.846C161.817 159.866 161.817 159.866 162.019 159.886C162.263 159.91 162.508 159.933 162.753 159.954C163.724 160.054 164.59 160.335 165.245 161.093C165.669 161.693 165.87 162.083 165.88 162.825C165.884 162.951 165.888 163.077 165.892 163.207C165.69 164.545 164.744 165.361 163.821 166.262C163.679 166.404 163.536 166.545 163.394 166.687C163.021 167.058 162.646 167.427 162.27 167.796C161.671 168.385 161.074 168.977 160.477 169.569C160.27 169.774 160.063 169.978 159.855 170.182C159.207 170.821 158.579 171.465 157.99 172.159C157.619 172.59 157.218 172.991 156.817 173.394C156.736 173.476 156.655 173.559 156.572 173.644C156.368 173.849 156.156 174.046 155.943 174.242C155.85 174.242 155.757 174.242 155.661 174.242C155.976 176.54 156.342 178.828 156.72 181.117C156.908 182.26 157.096 183.404 157.283 184.548C157.351 184.961 157.42 185.374 157.489 185.787C157.528 186.025 157.568 186.263 157.607 186.502C157.624 186.605 157.642 186.709 157.66 186.816C157.851 187.992 157.899 189.049 157.214 190.077C156.442 190.807 155.785 191.158 154.72 191.139C153.718 190.986 152.862 190.425 151.989 189.936C151.706 189.78 151.424 189.624 151.141 189.468C150.496 189.112 149.854 188.754 149.212 188.394C148.503 187.996 147.792 187.602 147.08 187.21C146.99 187.16 146.899 187.11 146.805 187.058C146.451 186.863 146.097 186.668 145.742 186.473C145.498 186.339 145.253 186.204 145.009 186.07C144.855 185.985 144.7 185.901 144.541 185.813C144.228 185.636 143.92 185.45 143.616 185.257C143.468 185.163 143.32 185.07 143.168 184.974C143.038 184.888 142.908 184.803 142.774 184.715C142.389 184.523 142.389 184.523 141.969 184.65C141.529 184.851 141.104 185.064 140.681 185.299C140.601 185.343 140.52 185.388 140.437 185.433C140.175 185.578 139.913 185.725 139.652 185.871C139.468 185.973 139.283 186.076 139.099 186.178C137.826 186.887 136.565 187.616 135.308 188.355C134.249 188.977 133.185 189.588 132.115 190.192C131.964 190.278 131.814 190.363 131.659 190.451C131.519 190.53 131.379 190.609 131.235 190.69C131.111 190.759 130.988 190.829 130.861 190.9C130.169 191.245 129.453 191.319 128.691 191.208C127.895 190.878 127.351 190.345 126.855 189.653C126.369 188.192 126.825 186.46 127.075 184.976C127.112 184.747 127.15 184.517 127.187 184.288C127.284 183.688 127.383 183.089 127.483 182.489C127.642 181.532 127.798 180.575 127.954 179.617C128.008 179.288 128.063 178.958 128.118 178.629C128.203 178.118 128.283 177.607 128.36 177.095C128.393 176.883 128.428 176.672 128.465 176.46C128.521 176.136 128.572 175.811 128.622 175.486C128.64 175.389 128.659 175.291 128.677 175.191C128.734 174.792 128.747 174.48 128.541 174.125C128.226 173.737 127.879 173.421 127.487 173.111C127.372 173.018 127.257 172.924 127.138 172.828C127.138 172.735 127.138 172.641 127.138 172.545C127.044 172.545 126.951 172.545 126.855 172.545C126.654 172.341 126.654 172.341 126.419 172.056C125.864 171.403 125.27 170.801 124.662 170.199C124.494 170.031 124.494 170.031 124.322 169.86C123.967 169.506 123.611 169.152 123.255 168.798C122.785 168.332 122.316 167.865 121.847 167.398C121.741 167.293 121.635 167.188 121.525 167.08C120.871 166.428 120.254 165.754 119.654 165.052C119.551 164.936 119.551 164.936 119.447 164.819C118.84 164.124 118.602 163.591 118.63 162.655C118.735 161.792 119.195 161.128 119.795 160.527C120.494 160.177 121.149 160.012 121.924 159.911C122.035 159.896 122.146 159.88 122.26 159.864C122.5 159.831 122.741 159.798 122.982 159.766C123.367 159.713 123.752 159.658 124.137 159.602C125.48 159.408 126.821 159.239 128.172 159.115C128.827 159.055 129.481 158.985 130.135 158.914C130.453 158.882 130.772 158.855 131.091 158.832C132.748 158.775 132.748 158.775 134.15 158.023C134.545 157.412 134.75 156.747 134.945 156.05C135.094 155.558 135.314 155.11 135.541 154.65C135.623 154.477 135.704 154.304 135.785 154.131C135.826 154.044 135.866 153.958 135.908 153.868C136.271 153.09 136.628 152.308 136.985 151.526C137.082 151.314 137.179 151.103 137.276 150.891C137.781 149.789 138.283 148.686 138.755 147.568C138.824 147.407 138.893 147.245 138.964 147.078C139.089 146.781 139.213 146.483 139.334 146.184C139.767 145.161 140.184 144.703 141.152 144.144C142.015 143.885 142.837 143.951 143.641 144.374Z" fill="#010100"/>
<path d="M142.053 151.454C142.513 151.685 142.622 152.207 142.818 152.663C142.928 152.914 143.039 153.165 143.149 153.415C143.213 153.561 143.278 153.706 143.343 153.855C143.753 154.774 144.172 155.689 144.591 156.603C144.79 157.036 144.988 157.47 145.185 157.903C145.282 158.113 145.378 158.322 145.475 158.532C145.72 159.06 145.958 159.59 146.185 160.126C146.231 160.233 146.277 160.339 146.325 160.449C146.412 160.648 146.496 160.85 146.578 161.052C146.91 161.803 147.36 162.181 148.108 162.51C148.488 162.626 148.863 162.682 149.257 162.729C149.368 162.745 149.479 162.76 149.593 162.776C149.838 162.81 150.082 162.842 150.327 162.873C150.745 162.928 151.163 162.986 151.581 163.045C152.504 163.174 153.428 163.3 154.352 163.426C154.828 163.49 155.304 163.555 155.78 163.62C156.073 163.66 156.366 163.7 156.66 163.74C156.792 163.758 156.924 163.776 157.06 163.794C157.175 163.81 157.29 163.825 157.409 163.842C157.752 163.894 158.09 163.959 158.429 164.03C157.768 164.837 157.045 165.571 156.305 166.303C156.088 166.518 155.871 166.734 155.654 166.95C155.039 167.564 154.423 168.176 153.806 168.788C153.426 169.163 153.048 169.54 152.67 169.917C152.527 170.06 152.383 170.203 152.239 170.345C152.038 170.543 151.838 170.743 151.638 170.944C151.524 171.057 151.41 171.17 151.292 171.286C150.541 172.166 150.486 172.954 150.556 174.072C150.668 175.328 150.901 176.573 151.109 177.816C151.159 178.119 151.209 178.422 151.258 178.725C151.377 179.45 151.497 180.175 151.618 180.9C151.703 181.411 151.788 181.922 151.873 182.433C151.948 182.886 152.023 183.34 152.099 183.793C151.596 183.635 151.141 183.465 150.686 183.2C150.576 183.136 150.467 183.073 150.354 183.008C150.237 182.939 150.12 182.87 150 182.8C149.876 182.728 149.752 182.656 149.624 182.581C149.354 182.425 149.085 182.268 148.816 182.11C148.363 181.846 147.909 181.584 147.456 181.322C146.853 180.973 146.25 180.624 145.647 180.275C145.509 180.195 145.371 180.115 145.229 180.032C144.934 179.86 144.639 179.687 144.346 179.513C144.198 179.425 144.05 179.338 143.898 179.248C143.765 179.169 143.632 179.09 143.495 179.008C142.842 178.644 142.233 178.544 141.502 178.68C140.888 178.943 140.318 179.269 139.742 179.607C139.426 179.793 139.107 179.974 138.788 180.155C137.801 180.716 136.818 181.286 135.838 181.858C135.512 182.048 135.187 182.237 134.861 182.427C134.626 182.564 134.391 182.702 134.156 182.839C133.94 182.966 133.94 182.966 133.719 183.094C133.591 183.169 133.463 183.244 133.331 183.321C132.988 183.507 132.647 183.656 132.282 183.793C132.353 183.292 132.425 182.791 132.497 182.29C132.521 182.129 132.544 181.967 132.568 181.801C132.727 180.725 132.9 179.652 133.084 178.58C133.106 178.452 133.127 178.324 133.15 178.193C133.259 177.554 133.369 176.916 133.481 176.278C133.983 173.978 133.983 173.978 133.461 171.775C132.961 171.12 132.359 170.559 131.766 169.99C131.5 169.732 131.234 169.473 130.969 169.214C130.792 169.044 130.792 169.044 130.612 168.871C130.356 168.591 130.356 168.591 130.356 168.315C130.268 168.277 130.18 168.24 130.089 168.202C129.805 168.038 129.805 168.038 129.668 167.624C129.577 167.624 129.486 167.624 129.393 167.624C129.198 167.425 129.198 167.425 128.971 167.148C128.414 166.49 127.812 165.888 127.199 165.283C126.988 165.075 126.778 164.866 126.568 164.657C126.43 164.521 126.43 164.521 126.289 164.382C126.09 164.169 126.09 164.169 126.09 164.03C126.72 163.929 127.351 163.828 127.982 163.728C128.079 163.713 128.175 163.697 128.275 163.681C129.464 163.493 130.653 163.314 131.845 163.154C132.012 163.132 132.012 163.132 132.181 163.109C132.721 163.036 133.26 162.965 133.8 162.895C135.741 162.673 135.741 162.673 137.374 161.681C137.558 161.364 137.712 161.068 137.86 160.735C137.903 160.642 137.946 160.549 137.991 160.453C138.131 160.149 138.268 159.844 138.406 159.539C138.503 159.327 138.6 159.116 138.698 158.904C138.896 158.473 139.093 158.042 139.289 157.61C139.554 157.028 139.823 156.448 140.093 155.869C140.251 155.532 140.408 155.195 140.565 154.857C140.671 154.629 140.671 154.629 140.78 154.396C141.229 153.425 141.65 152.445 142.053 151.454Z" fill="#FFBB4D"/>
<path d="M209.225 144.593C210.034 145.373 210.404 146.419 210.845 147.434C210.932 147.631 211.019 147.828 211.106 148.024C211.285 148.429 211.464 148.834 211.641 149.239C212.03 150.126 212.423 151.01 212.817 151.894C212.89 152.059 212.964 152.224 213.039 152.394C213.447 153.31 213.862 154.221 214.286 155.13C214.355 155.277 214.355 155.277 214.425 155.428C214.648 155.906 214.872 156.383 215.097 156.86C215.177 157.031 215.257 157.202 215.338 157.374C215.444 157.599 215.444 157.599 215.553 157.829C215.705 158.186 215.705 158.186 215.705 158.469C215.839 158.476 215.972 158.483 216.11 158.49C217.565 158.568 219.001 158.723 220.445 158.915C220.675 158.945 220.906 158.975 221.137 159.005C221.615 159.068 222.094 159.132 222.572 159.196C223.182 159.277 223.793 159.356 224.403 159.434C224.878 159.495 225.352 159.558 225.826 159.622C226.051 159.651 226.276 159.681 226.501 159.709C229.495 160.09 229.495 160.09 230.495 161.301C230.966 162.029 231.155 162.549 231.058 163.425C230.75 164.789 229.579 165.693 228.619 166.62C228.362 166.872 228.104 167.124 227.847 167.377C227.688 167.534 227.529 167.689 227.369 167.844C226.963 168.239 226.581 168.645 226.214 169.076C225.697 169.678 225.134 170.217 224.557 170.759C224.341 170.967 224.125 171.175 223.91 171.383C223.575 171.707 223.238 172.029 222.898 172.347C221.617 173.458 221.617 173.458 220.784 174.888C220.813 175.345 220.927 175.729 221.057 176.169C221.122 176.528 221.176 176.889 221.231 177.25C221.294 177.667 221.364 178.082 221.435 178.498C221.589 179.401 221.74 180.305 221.891 181.209C221.917 181.359 221.942 181.509 221.968 181.664C222.171 182.883 222.372 184.101 222.561 185.321C222.605 185.601 222.65 185.88 222.695 186.159C223.146 189.111 223.146 189.111 222.598 190.125C222.096 190.785 221.605 191.109 220.797 191.246C219.455 191.333 218.517 190.84 217.395 190.187C217.155 190.051 216.914 189.916 216.674 189.781C216.124 189.471 215.576 189.159 215.03 188.846C214.002 188.257 212.97 187.676 211.935 187.099C211.211 186.694 210.493 186.282 209.784 185.851C209.582 185.73 209.582 185.73 209.377 185.607C209.124 185.454 208.873 185.3 208.623 185.143C208.51 185.075 208.398 185.008 208.282 184.939C208.185 184.879 208.088 184.819 207.987 184.757C207.305 184.554 206.631 185.034 206.041 185.354C205.892 185.435 205.743 185.515 205.59 185.598C205.433 185.684 205.276 185.77 205.114 185.859C204.952 185.947 204.789 186.036 204.622 186.127C203.419 186.784 202.232 187.465 201.051 188.16C200.499 188.485 199.941 188.796 199.378 189.1C199 189.306 198.624 189.514 198.248 189.724C198.122 189.794 197.996 189.864 197.867 189.937C197.614 190.077 197.362 190.218 197.11 190.359C196.993 190.424 196.877 190.489 196.756 190.556C196.652 190.614 196.547 190.673 196.44 190.733C195.535 191.199 194.693 191.376 193.696 191.085C192.979 190.767 192.552 190.309 192.182 189.62C191.666 188.065 192.217 186.15 192.472 184.576C192.516 184.296 192.561 184.017 192.605 183.737C192.833 182.293 193.072 180.85 193.317 179.409C193.34 179.272 193.363 179.135 193.387 178.995C193.498 178.34 193.61 177.685 193.725 177.031C193.765 176.795 193.805 176.559 193.846 176.324C193.865 176.217 193.884 176.111 193.904 176.002C193.998 175.444 194.033 175.012 193.872 174.47C193.647 174.144 193.647 174.144 193.346 173.834C193.23 173.711 193.115 173.587 192.997 173.46C192.338 172.778 191.672 172.104 191.001 171.435C190.738 171.174 190.476 170.911 190.213 170.649C189.469 169.904 188.724 169.161 187.979 168.417C187.52 167.96 187.062 167.502 186.604 167.044C186.431 166.87 186.257 166.697 186.083 166.524C185.84 166.283 185.598 166.04 185.356 165.798C185.285 165.727 185.214 165.657 185.141 165.585C184.399 164.837 183.863 164.129 183.818 163.054C183.829 162.251 184.059 161.633 184.575 161.018C185.223 160.456 185.773 160.208 186.632 160.079C186.734 160.063 186.837 160.047 186.943 160.03C187.28 159.979 187.618 159.932 187.956 159.885C188.072 159.869 188.188 159.852 188.308 159.836C189.062 159.729 189.817 159.629 190.572 159.532C190.986 159.477 191.399 159.419 191.812 159.36C193.112 159.177 194.396 159.018 195.708 158.963C197.725 158.913 197.725 158.913 199.428 157.984C199.999 157.137 200.328 156.203 200.63 155.233C200.947 154.218 201.39 153.273 201.842 152.313C202.07 151.825 202.291 151.333 202.512 150.841C202.555 150.745 202.598 150.649 202.643 150.55C202.937 149.897 203.226 149.241 203.512 148.584C203.551 148.497 203.589 148.409 203.629 148.319C203.808 147.909 203.986 147.499 204.162 147.089C205.193 144.723 205.193 144.723 206.408 144.168C207.38 143.802 208.381 144.033 209.225 144.593Z" fill="#010100"/>
<path d="M207.451 151.081C207.927 151.471 208.131 152 208.378 152.548C208.425 152.653 208.473 152.757 208.522 152.865C208.679 153.208 208.834 153.551 208.988 153.894C209.096 154.131 209.204 154.368 209.312 154.605C209.827 155.741 210.334 156.88 210.826 158.027C210.868 158.124 210.91 158.222 210.953 158.323C211.149 158.78 211.343 159.238 211.535 159.698C212.111 161.245 212.111 161.245 213.359 162.199C214.004 162.405 214.675 162.481 215.344 162.574C215.506 162.597 215.668 162.621 215.834 162.645C216.35 162.72 216.867 162.794 217.383 162.867C217.892 162.94 218.401 163.014 218.91 163.087C219.241 163.135 219.572 163.183 219.902 163.23C221.268 163.427 222.631 163.639 223.993 163.861C223.462 164.498 222.914 165.105 222.324 165.688C222.249 165.763 222.174 165.838 222.097 165.915C221.781 166.229 221.465 166.543 221.149 166.857C220.354 167.646 219.568 168.431 218.843 169.287C218.373 169.823 217.849 170.31 217.334 170.802C216.521 171.599 216.105 172.361 216.058 173.514C216.062 174.226 216.19 174.918 216.308 175.619C216.332 175.766 216.356 175.913 216.381 176.065C216.458 176.535 216.536 177.005 216.615 177.475C216.666 177.785 216.716 178.095 216.767 178.405C217.044 180.093 217.044 180.093 217.338 181.778C217.358 181.889 217.378 182 217.399 182.114C217.451 182.404 217.505 182.694 217.559 182.984C217.621 183.389 217.646 183.758 217.631 184.166C217.151 183.983 216.709 183.775 216.263 183.521C216.136 183.448 216.009 183.376 215.878 183.302C215.742 183.224 215.606 183.146 215.466 183.066C215.324 182.985 215.182 182.904 215.035 182.82C213.709 182.061 212.389 181.29 211.072 180.515C210.943 180.44 210.815 180.364 210.682 180.286C210.394 180.117 210.108 179.946 209.821 179.774C209.671 179.684 209.521 179.594 209.366 179.501C209.229 179.419 209.093 179.337 208.952 179.253C208.291 178.899 207.629 178.811 206.885 178.912C206.45 179.069 206.058 179.287 205.657 179.516C205.541 179.58 205.425 179.643 205.305 179.709C204.935 179.914 204.567 180.123 204.199 180.332C204.082 180.398 203.965 180.464 203.844 180.532C202.721 181.168 201.605 181.816 200.491 182.468C200.152 182.666 199.813 182.864 199.473 183.062C199.227 183.206 198.981 183.351 198.735 183.495C198.585 183.583 198.435 183.67 198.281 183.76C198.147 183.839 198.014 183.917 197.876 183.998C197.554 184.166 197.554 184.166 197.271 184.166C197.507 182.353 197.799 180.553 198.119 178.753C198.156 178.542 198.194 178.331 198.231 178.12C198.518 176.5 198.518 176.5 198.625 175.897C198.691 175.527 198.755 175.156 198.817 174.786C198.835 174.686 198.853 174.587 198.872 174.485C199.069 173.287 198.948 172.462 198.262 171.468C197.687 170.73 197.013 170.085 196.348 169.43C196.191 169.273 196.034 169.116 195.877 168.959C195.466 168.549 195.054 168.14 194.642 167.732C193.98 167.075 193.319 166.416 192.658 165.757C192.427 165.527 192.196 165.298 191.964 165.068C191.824 164.929 191.684 164.79 191.544 164.65C191.421 164.528 191.298 164.406 191.171 164.281C190.908 164.003 190.908 164.003 190.908 163.861C191.385 163.782 191.862 163.706 192.34 163.63C192.496 163.605 192.653 163.58 192.815 163.555C193.953 163.378 195.093 163.226 196.237 163.085C196.529 163.049 196.821 163.012 197.114 162.976C197.553 162.921 197.993 162.867 198.432 162.815C198.85 162.766 199.267 162.715 199.684 162.663C199.809 162.649 199.934 162.635 200.062 162.62C200.978 162.503 201.772 162.262 202.48 161.646C203.161 160.692 203.607 159.623 204.075 158.554C204.168 158.345 204.26 158.137 204.353 157.928C204.495 157.611 204.636 157.294 204.777 156.977C205.22 155.977 205.675 154.984 206.134 153.992C206.581 153.025 207.023 152.057 207.451 151.081Z" fill="#FFBB4D"/>
<path d="M134.748 92.0049C136.663 91.9428 138.476 92.465 139.947 93.7129C139.985 93.7451 139.985 93.7451 140.023 93.7779C141.206 94.7935 141.941 96.1749 142.305 97.6772C142.319 97.7342 142.319 97.7342 142.333 97.7923C142.476 98.4208 142.517 99.0331 142.509 99.6742C142.508 99.7439 142.508 99.8137 142.508 99.8834C142.506 100.051 142.505 100.219 142.503 100.387C142.559 100.365 142.615 100.344 142.673 100.321C143.602 99.967 144.497 99.7521 145.5 99.76C145.56 99.7604 145.62 99.7607 145.682 99.7611C146.777 99.7736 147.721 100.002 148.704 100.482C148.759 100.509 148.814 100.536 148.871 100.563C150.216 101.254 151.387 102.393 152.065 103.748C152.08 103.779 152.096 103.811 152.112 103.843C152.852 105.334 153.09 107.09 152.727 108.718C152.719 108.756 152.711 108.793 152.702 108.832C152.384 110.212 151.734 111.449 150.739 112.458C150.704 112.494 150.668 112.53 150.631 112.568C149.706 113.451 148.285 114.24 147 114.351C147.053 114.418 147.053 114.418 147.107 114.487C147.974 115.598 148.56 116.924 148.751 118.327C148.756 118.365 148.762 118.404 148.767 118.443C148.919 119.79 148.687 121.164 148.136 122.398C148.112 122.452 148.088 122.506 148.064 122.561C147.733 123.268 147.259 123.877 146.716 124.434C146.674 124.479 146.674 124.479 146.631 124.525C145.736 125.476 144.461 126.028 143.213 126.327C143.161 126.34 143.161 126.34 143.108 126.353C142.629 126.465 142.156 126.479 141.665 126.48C141.558 126.481 141.45 126.482 141.343 126.484C140.689 126.489 140.061 126.396 139.435 126.203C139.377 126.185 139.377 126.185 139.317 126.167C138.385 125.869 137.515 125.408 136.775 124.765C136.736 124.731 136.697 124.697 136.656 124.662C136.537 124.556 136.419 124.448 136.302 124.339C136.267 124.307 136.232 124.275 136.196 124.242C135.788 123.855 135.474 123.386 135.166 122.919C135.14 122.961 135.114 123.004 135.088 123.047C134.859 123.416 134.618 123.744 134.314 124.055C134.275 124.095 134.236 124.135 134.196 124.176C134.156 124.214 134.117 124.252 134.077 124.292C134.048 124.322 134.02 124.352 133.99 124.384C132.718 125.706 130.886 126.451 129.065 126.487C128.392 126.496 127.728 126.488 127.072 126.327C127.013 126.314 126.955 126.301 126.895 126.287C125.632 125.978 124.635 125.384 123.663 124.528C123.63 124.499 123.596 124.469 123.562 124.439C122.351 123.302 121.561 121.482 121.478 119.831C121.452 117.756 121.908 115.95 123.285 114.351C123.224 114.349 123.164 114.347 123.101 114.345C121.922 114.222 120.758 113.497 119.877 112.742C119.834 112.705 119.791 112.669 119.747 112.631C119.439 112.361 119.177 112.074 118.93 111.748C118.911 111.723 118.891 111.697 118.872 111.672C118.018 110.547 117.471 109.141 117.45 107.719C117.449 107.682 117.448 107.646 117.448 107.609C117.433 106.457 117.533 105.389 117.983 104.316C117.996 104.284 118.01 104.251 118.024 104.218C118.363 103.407 118.859 102.691 119.451 102.044C119.49 102 119.53 101.957 119.571 101.912C120.137 101.319 120.804 100.852 121.533 100.482C121.563 100.467 121.593 100.451 121.624 100.436C123.422 99.5302 125.374 99.5964 127.252 100.21C127.414 100.265 127.574 100.326 127.734 100.387C127.733 100.34 127.733 100.34 127.732 100.292C127.687 98.0649 128.24 95.8938 129.81 94.2457C129.875 94.1784 129.941 94.1113 130.006 94.0443C130.035 94.013 130.063 93.9817 130.092 93.9494C130.547 93.4586 131.171 93.1195 131.758 92.8135C131.787 92.7983 131.816 92.7831 131.846 92.7675C132.745 92.3055 133.738 92.0432 134.748 92.0049Z" fill="#F4A99C"/>
<path d="M134.748 92.0049C136.663 91.9428 138.476 92.465 139.947 93.7129C139.985 93.7451 139.985 93.7451 140.023 93.7779C141.206 94.7935 141.941 96.1749 142.305 97.6772C142.319 97.7342 142.319 97.7342 142.333 97.7923C142.476 98.4208 142.517 99.0331 142.509 99.6742C142.508 99.7439 142.508 99.8137 142.508 99.8834C142.506 100.051 142.505 100.219 142.503 100.387C142.559 100.365 142.615 100.344 142.673 100.321C143.602 99.967 144.497 99.7521 145.5 99.76C145.56 99.7604 145.62 99.7607 145.682 99.7611C146.777 99.7736 147.721 100.002 148.704 100.482C148.759 100.509 148.814 100.536 148.871 100.563C150.216 101.254 151.387 102.393 152.065 103.748C152.08 103.779 152.096 103.811 152.112 103.843C152.852 105.334 153.09 107.09 152.727 108.718C152.719 108.756 152.711 108.793 152.702 108.832C152.384 110.212 151.734 111.449 150.739 112.458C150.704 112.494 150.668 112.53 150.631 112.568C149.706 113.451 148.285 114.24 147 114.351C147.053 114.418 147.053 114.418 147.107 114.487C147.974 115.598 148.56 116.924 148.751 118.327C148.756 118.365 148.762 118.404 148.767 118.443C148.919 119.79 148.687 121.164 148.136 122.398C148.112 122.452 148.088 122.506 148.064 122.561C147.733 123.268 147.259 123.877 146.716 124.434C146.674 124.479 146.674 124.479 146.631 124.525C145.736 125.476 144.461 126.028 143.213 126.327C143.161 126.34 143.161 126.34 143.108 126.353C142.629 126.465 142.156 126.479 141.665 126.48C141.558 126.481 141.45 126.482 141.343 126.484C140.689 126.489 140.061 126.396 139.435 126.203C139.377 126.185 139.377 126.185 139.317 126.167C138.385 125.869 137.515 125.408 136.775 124.765C136.736 124.731 136.697 124.697 136.656 124.662C136.537 124.556 136.419 124.448 136.302 124.339C136.267 124.307 136.232 124.275 136.196 124.242C135.788 123.855 135.474 123.386 135.166 122.919C135.14 122.961 135.114 123.004 135.088 123.047C134.859 123.416 134.618 123.744 134.314 124.055C134.275 124.095 134.236 124.135 134.196 124.176C134.156 124.214 134.117 124.252 134.077 124.292C134.048 124.322 134.02 124.352 133.99 124.384C132.718 125.706 130.886 126.451 129.065 126.487C128.392 126.496 127.728 126.488 127.072 126.327C127.013 126.314 126.955 126.301 126.895 126.287C125.632 125.978 124.635 125.384 123.663 124.528C123.63 124.499 123.596 124.469 123.562 124.439C122.351 123.302 121.561 121.482 121.478 119.831C121.452 117.756 121.908 115.95 123.285 114.351C123.224 114.349 123.164 114.347 123.101 114.345C121.922 114.222 120.758 113.497 119.877 112.742C119.834 112.705 119.791 112.669 119.747 112.631C119.439 112.361 119.177 112.074 118.93 111.748C118.911 111.723 118.891 111.697 118.872 111.672C118.018 110.547 117.471 109.141 117.45 107.719C117.449 107.682 117.448 107.646 117.448 107.609C117.433 106.457 117.533 105.389 117.983 104.316C117.996 104.284 118.01 104.251 118.024 104.218C118.363 103.407 118.859 102.691 119.451 102.044C119.49 102 119.53 101.957 119.571 101.912C120.137 101.319 120.804 100.852 121.533 100.482C121.563 100.467 121.593 100.451 121.624 100.436C123.422 99.5302 125.374 99.5964 127.252 100.21C127.414 100.265 127.574 100.326 127.734 100.387C127.733 100.34 127.733 100.34 127.732 100.292C127.687 98.0649 128.24 95.8938 129.81 94.2457C129.875 94.1784 129.941 94.1113 130.006 94.0443C130.035 94.013 130.063 93.9817 130.092 93.9494C130.547 93.4586 131.171 93.1195 131.758 92.8135C131.787 92.7983 131.816 92.7831 131.846 92.7675C132.745 92.3055 133.738 92.0432 134.748 92.0049ZM131.284 95.133C131.226 95.1859 131.226 95.1859 131.166 95.2398C130.119 96.2339 129.445 97.7418 129.386 99.1861C129.361 100.341 129.526 101.397 130.028 102.447C130.14 102.691 130.19 102.911 130.148 103.18C130.036 103.342 129.91 103.412 129.722 103.464C129.47 103.497 129.327 103.451 129.123 103.313C128.986 103.207 128.856 103.095 128.725 102.982C127.339 101.785 125.635 101.273 123.815 101.393C122.428 101.546 121.243 102.367 120.366 103.417C119.528 104.47 119.048 105.78 119.06 107.127C119.061 107.204 119.061 107.204 119.061 107.284C119.082 108.884 119.71 110.276 120.814 111.422C121.786 112.368 123.02 112.909 124.377 112.899C124.412 112.898 124.447 112.898 124.483 112.897C124.589 112.896 124.696 112.895 124.802 112.895C125.184 112.893 125.562 112.877 125.942 112.841C126.142 112.834 126.243 112.868 126.409 112.978C126.558 113.142 126.584 113.315 126.576 113.531C126.476 113.968 125.912 114.272 125.566 114.505C124.416 115.303 123.607 116.548 123.246 117.889C123.236 117.926 123.227 117.962 123.217 118C122.878 119.332 123.074 120.916 123.763 122.11C124.006 122.509 124.284 122.867 124.61 123.203C124.64 123.235 124.669 123.268 124.699 123.301C125.545 124.203 126.959 124.801 128.183 124.869C129.009 124.887 129.783 124.891 130.574 124.623C130.607 124.612 130.639 124.602 130.672 124.591C131.368 124.355 132.022 123.985 132.562 123.487C132.599 123.453 132.599 123.453 132.637 123.419C133.683 122.447 134.205 121.253 134.55 119.885C134.622 119.677 134.725 119.513 134.897 119.375C135.103 119.288 135.272 119.292 135.482 119.366C135.776 119.628 135.843 120.094 135.938 120.46C136.068 120.941 136.223 121.385 136.444 121.83C136.478 121.9 136.478 121.9 136.513 121.972C137.153 123.217 138.289 124.141 139.607 124.591C141.177 125.08 142.748 125.007 144.221 124.252C145.512 123.563 146.472 122.421 146.923 121.029C147.266 119.895 147.304 118.754 146.952 117.617C146.942 117.583 146.931 117.548 146.92 117.513C146.558 116.379 145.824 115.396 144.917 114.635C144.889 114.61 144.861 114.584 144.833 114.558C144.686 114.424 144.536 114.301 144.372 114.188C144.342 114.167 144.313 114.147 144.282 114.126C144.224 114.086 144.164 114.046 144.104 114.007C143.914 113.877 143.813 113.764 143.734 113.546C143.718 113.397 143.737 113.264 143.781 113.12C143.885 112.992 143.965 112.91 144.112 112.836C144.196 112.832 144.28 112.83 144.364 112.83C144.408 112.83 144.453 112.83 144.499 112.83C144.633 112.836 144.633 112.836 144.741 112.86C145.005 112.909 145.276 112.895 145.544 112.896C145.576 112.896 145.608 112.896 145.641 112.896C147.269 112.893 148.6 112.276 149.745 111.132C150.722 110.07 151.283 108.636 151.275 107.195C151.274 107.143 151.274 107.091 151.274 107.038C151.252 105.544 150.633 104.159 149.603 103.085C149.567 103.046 149.531 103.008 149.494 102.968C148.59 102.018 147.322 101.409 146.005 101.367C145.909 101.366 145.812 101.366 145.716 101.366C145.639 101.367 145.639 101.367 145.56 101.367C144.075 101.389 142.57 101.982 141.509 103.037C141.482 103.066 141.454 103.094 141.426 103.124C141.232 103.322 141.056 103.45 140.772 103.485C140.589 103.461 140.478 103.426 140.325 103.322C140.187 103.13 140.174 102.997 140.207 102.765C140.25 102.573 140.33 102.398 140.408 102.218C140.6 101.759 140.74 101.299 140.846 100.813C140.858 100.76 140.869 100.707 140.881 100.653C141.039 99.7689 140.986 98.8366 140.751 97.9731C140.743 97.9411 140.734 97.9091 140.725 97.8762C140.322 96.4333 139.344 95.1353 138.053 94.3756C135.865 93.1625 133.142 93.4604 131.284 95.133Z" fill="black"/>
<path d="M139.394 105.131C139.517 105.236 139.637 105.343 139.757 105.452C139.791 105.484 139.826 105.515 139.862 105.548C141.021 106.649 141.708 108.325 141.758 109.91C141.785 111.409 141.492 112.786 140.609 114.02C140.589 114.047 140.57 114.074 140.55 114.102C139.55 115.478 138.107 116.535 136.405 116.804C136.056 116.854 135.707 116.894 135.354 116.907C135.264 116.911 135.264 116.911 135.171 116.915C133.343 116.966 131.708 116.188 130.384 114.967C129.266 113.881 128.563 112.235 128.53 110.68C128.526 110.129 128.535 109.593 128.633 109.05C128.638 109.019 128.644 108.987 128.65 108.955C128.952 107.337 129.891 105.9 131.24 104.96C133.703 103.299 137.034 103.197 139.394 105.131Z" fill="#F8E482"/>
<path d="M139.394 105.131C139.517 105.236 139.637 105.343 139.757 105.452C139.791 105.484 139.826 105.515 139.862 105.548C141.021 106.649 141.708 108.325 141.758 109.91C141.785 111.409 141.492 112.786 140.609 114.02C140.589 114.047 140.57 114.074 140.55 114.102C139.55 115.478 138.107 116.535 136.405 116.804C136.056 116.854 135.707 116.894 135.354 116.907C135.264 116.911 135.264 116.911 135.171 116.915C133.343 116.966 131.708 116.188 130.384 114.967C129.266 113.881 128.563 112.235 128.53 110.68C128.526 110.129 128.535 109.593 128.633 109.05C128.638 109.019 128.644 108.987 128.65 108.955C128.952 107.337 129.891 105.9 131.24 104.96C133.703 103.299 137.034 103.197 139.394 105.131ZM131.852 106.541C131.828 106.562 131.805 106.583 131.782 106.604C130.83 107.47 130.215 108.717 130.142 110.006C130.082 111.416 130.539 112.687 131.488 113.742C132.292 114.61 133.385 115.217 134.578 115.312C134.749 115.317 134.92 115.318 135.091 115.316C135.151 115.315 135.211 115.315 135.274 115.314C135.696 115.307 136.085 115.282 136.49 115.156C136.52 115.147 136.55 115.138 136.58 115.128C137.362 114.879 138.02 114.48 138.621 113.925C138.652 113.898 138.683 113.87 138.716 113.842C139.507 113.111 140.08 111.884 140.143 110.816C140.194 109.305 139.837 107.982 138.802 106.849C137.965 105.96 136.831 105.357 135.595 105.304C134.166 105.268 132.932 105.562 131.852 106.541Z" fill="black"/>
</svg>
