<svg width="350" height="350" viewBox="0 0 350 350" fill="none" xmlns="http://www.w3.org/2000/svg">
<path d="M127.735 37.6103C128.556 38.3296 129.346 39.0766 130.132 39.8332C130.291 39.9771 130.449 40.1209 130.613 40.2691C133.228 42.7154 135.304 45.8825 137.137 48.939C137.24 49.1096 137.343 49.2802 137.449 49.456C145.977 63.6796 151.749 82.1552 151.612 98.9039C151.93 98.8132 151.93 98.8132 152.253 98.7207C154.38 98.1305 156.49 97.6969 158.675 97.3717C158.837 97.3475 158.998 97.3233 159.164 97.2984C160.153 97.1506 161.142 97.0077 162.132 96.8676C162.55 96.8078 162.968 96.7453 163.385 96.6827C174.796 94.993 186.379 96.4872 197.608 98.6704C197.598 98.4062 197.588 98.1419 197.578 97.8697C197.581 96.0908 197.854 94.3305 198.09 92.5707C198.115 92.3782 198.141 92.1856 198.167 91.9873C200.369 75.5726 204.475 57.4366 215.119 44.2693C215.225 44.1371 215.33 44.0049 215.439 43.8687C220.735 37.2675 227.838 31.726 236.366 30.2605C241.475 29.9503 245.616 30.186 249.689 33.5146C251.126 34.8541 252.035 36.4782 252.943 38.1988C253.064 38.4264 253.185 38.6539 253.309 38.8883C254.654 41.635 255.074 44.6599 255.092 47.6904C255.094 47.8792 255.095 48.0681 255.097 48.2627C255.101 48.8724 255.103 49.482 255.103 50.0918C255.103 50.4053 255.103 50.4053 255.103 50.7251C255.099 54.1434 254.929 57.4724 254.344 60.8465C254.286 61.1907 254.286 61.1907 254.227 61.5419C250.903 80.68 242.286 99.4922 230.062 114.547C230.759 115.38 231.454 116.186 232.236 116.94C233.321 118.008 234.249 119.198 235.199 120.384C235.353 120.569 235.507 120.754 235.666 120.945C237.905 123.658 239.755 126.678 241.503 129.723C241.587 129.868 241.67 130.013 241.757 130.162C246.839 139.021 249.962 149.79 249.939 160.034C249.939 160.264 249.939 160.494 249.94 160.73C249.94 161.212 249.939 161.693 249.938 162.175C249.937 162.907 249.938 163.639 249.94 164.371C249.94 164.842 249.939 165.313 249.939 165.783C249.939 166 249.94 166.216 249.94 166.438C249.936 167.76 249.842 169.038 249.675 170.349C249.897 170.365 249.897 170.365 250.124 170.381C250.801 170.431 251.478 170.485 252.155 170.539C252.389 170.555 252.622 170.572 252.862 170.589C254.121 170.693 255.127 170.81 256.212 171.517C256.777 172.195 256.904 172.605 257 173.487C256.901 174.423 256.755 174.949 256.212 175.719C254.943 176.412 254.014 176.496 252.593 176.361C252.425 176.349 252.257 176.337 252.083 176.324C251.04 176.243 250.009 176.111 248.974 175.953C248.45 177.477 247.984 179.013 247.544 180.564C247.482 180.779 247.421 180.993 247.357 181.214C247.298 181.422 247.238 181.63 247.177 181.844C247.124 182.03 247.071 182.216 247.017 182.408C246.868 182.977 246.749 183.547 246.639 184.125C246.885 184.209 247.13 184.294 247.383 184.382C251.832 185.96 251.832 185.96 252.943 187.627C253.099 188.429 253.106 189.16 252.943 189.962C252.355 190.809 251.672 191.236 250.708 191.572C249.493 191.608 248.522 191.138 247.413 190.677C246.974 190.498 246.536 190.321 246.097 190.145C245.807 190.025 245.807 190.025 245.512 189.903C244.984 189.69 244.984 189.69 244.304 189.728C243.928 190.305 243.596 190.875 243.268 191.479C241.557 194.509 239.481 197.26 237.067 199.768C236.881 199.964 236.881 199.964 236.692 200.164C232.952 204.111 228.619 207.049 223.773 209.501C223.539 209.62 223.539 209.62 223.3 209.741C222.629 210.07 222.181 210.274 221.423 210.274C221.423 210.429 221.423 210.583 221.423 210.741C221.611 210.79 221.798 210.838 221.992 210.887C223.092 211.311 223.978 211.935 224.94 212.609C225.137 212.746 225.333 212.882 225.535 213.022C228.255 214.922 230.82 216.981 233.331 219.147C233.498 219.29 233.666 219.434 233.838 219.582C234.295 219.978 234.748 220.378 235.199 220.781C235.39 220.951 235.582 221.121 235.779 221.295C238.892 224.099 241.999 227.011 244.538 230.354C244.715 230.573 244.891 230.793 245.073 231.019C249.151 236.147 254.311 243.288 253.644 250.2C253.623 250.48 253.623 250.48 253.603 250.766C253.23 253.799 251.491 256.844 249.208 258.838C247.714 259.954 246.076 260.625 244.304 261.173C244.146 261.226 243.987 261.279 243.823 261.334C238.589 262.806 232.527 260.708 227.777 258.579C227.592 258.496 227.406 258.413 227.215 258.328C227.076 258.265 226.937 258.203 226.793 258.138C226.848 258.548 226.848 258.548 226.903 258.966C228.76 273.042 229.851 287.145 229.886 301.343C229.887 301.805 229.889 302.267 229.891 302.729C229.914 310.039 229.855 317.607 224.671 323.353C222.146 325.756 218.911 327.08 215.586 327.949C215.414 327.994 215.242 328.04 215.064 328.087C212.954 328.555 210.791 328.511 208.64 328.515C207.96 328.518 207.28 328.529 206.6 328.541C203.101 328.572 200.158 327.987 197.039 326.344C196.885 326.264 196.73 326.184 196.571 326.102C193.093 324.259 190.445 321.323 189.201 317.551C188.313 314.623 187.857 311.579 187.335 308.57C187.228 307.965 187.12 307.361 187.012 306.756C186.885 306.038 186.76 305.319 186.635 304.601C186.352 304.622 186.352 304.622 186.064 304.644C179.723 305.108 173.445 305.179 167.095 304.849C166.801 304.834 166.801 304.834 166.501 304.818C165.944 304.789 165.387 304.758 164.831 304.726C164.664 304.717 164.498 304.708 164.327 304.698C163.567 304.653 162.849 304.591 162.119 304.367C162.103 304.564 162.103 304.564 162.086 304.764C161.433 312.003 160.412 319.883 154.634 324.875C153.847 325.454 153.049 325.926 152.182 326.373C151.978 326.48 151.978 326.48 151.77 326.589C148.442 328.2 145.229 328.602 141.572 328.555C140.873 328.547 140.174 328.55 139.475 328.555C135.941 328.553 132.612 328.144 129.373 326.636C129.114 326.516 129.114 326.516 128.849 326.395C124.902 324.503 122.393 321.52 120.793 317.442C120.66 317.107 120.66 317.107 120.525 316.765C118.907 312.137 119.041 307.037 119.068 302.202C119.071 301.689 119.073 301.175 119.074 300.661C119.112 287.241 119.997 273.907 121.715 260.597C121.736 260.428 121.758 260.259 121.78 260.086C121.869 259.405 121.976 258.792 122.194 258.138C121.942 258.24 121.69 258.342 121.43 258.446C115.144 260.956 108.84 263.06 102.249 260.382C98.9617 258.828 97.0912 256.388 95.8105 253.001C94.2508 248.347 96.2019 243.598 98.2629 239.454C101.888 232.56 107.572 226.044 113.479 221.011C113.916 220.638 114.347 220.261 114.776 219.88C118.685 216.426 122.878 213.233 127.33 210.508C127.194 210.435 127.058 210.363 126.918 210.288C119.563 206.349 112.783 201.86 107.951 194.865C107.851 194.719 107.75 194.573 107.646 194.423C106.594 192.892 105.591 191.35 104.683 189.728C103.631 189.916 102.657 190.153 101.668 190.554C101.425 190.652 101.425 190.652 101.177 190.752C100.854 190.884 100.532 191.021 100.211 191.162C99.0668 191.63 98.3937 191.622 97.2114 191.129C96.4967 190.506 96.1344 190.139 95.9318 189.218C95.8731 188.279 95.9938 187.721 96.4379 186.883C97.948 185.338 100.296 184.762 102.348 184.358C102.277 184.115 102.277 184.115 102.205 183.867C101.989 183.116 101.774 182.366 101.56 181.615C101.486 181.36 101.412 181.105 101.336 180.842C100.854 179.146 100.497 177.465 100.247 175.719C99.9818 175.791 99.7169 175.864 99.444 175.938C98.3405 176.181 97.2416 176.293 96.1169 176.376C95.9478 176.391 95.7787 176.406 95.6044 176.422C94.4622 176.494 93.7404 176.332 92.7752 175.719C92.0739 174.901 91.9609 174.178 92.01 173.134C92.1113 172.43 92.3036 172.049 92.7752 171.517C94.1443 170.788 95.4308 170.653 96.9633 170.539C97.1898 170.52 97.4162 170.501 97.6496 170.481C98.2038 170.435 98.7581 170.391 99.3127 170.349C99.2751 170.093 99.2376 169.838 99.1989 169.574C99.0482 168.361 99.0371 167.155 99.0318 165.934C99.0298 165.568 99.0298 165.568 99.0277 165.195C99.0255 164.679 99.024 164.164 99.0231 163.648C99.0209 162.878 99.0136 162.108 99.0062 161.338C98.9842 156.953 99.4041 152.668 100.378 148.387C100.436 148.13 100.494 147.873 100.554 147.608C101.709 142.725 103.386 137.954 105.617 133.459C105.719 133.248 105.822 133.038 105.928 132.821C108.503 127.576 111.669 122.655 115.634 118.349C116.098 117.843 116.55 117.329 116.999 116.809C117.614 116.102 118.252 115.433 118.925 114.781C118.611 114.044 118.174 113.483 117.658 112.876C113.97 108.508 110.883 103.461 108.185 98.437C108.071 98.2264 107.957 98.0157 107.839 97.7988C101.004 85.1364 95.9832 71.1921 94.1761 56.8773C94.1554 56.7154 94.1348 56.5535 94.1135 56.3867C93.9649 55.1526 93.8993 53.9345 93.887 52.692C93.8847 52.5002 93.8823 52.3084 93.88 52.1108C93.8172 45.5773 93.9777 38.9966 98.8457 33.9962C99.0031 33.8297 99.1605 33.6633 99.3227 33.4918C101.163 31.6988 103.548 30.6234 106.084 30.2605C106.334 30.2221 106.334 30.2221 106.589 30.1829C114.407 29.147 121.905 32.6302 127.735 37.6103Z" fill="white"/>
<path d="M127.735 37.6103C128.556 38.3296 129.346 39.0766 130.132 39.8332C130.291 39.9771 130.449 40.1209 130.613 40.2691C133.228 42.7154 135.304 45.8825 137.137 48.939C137.24 49.1096 137.343 49.2802 137.449 49.456C145.977 63.6796 151.749 82.1552 151.612 98.9039C151.93 98.8132 151.93 98.8132 152.253 98.7207C154.38 98.1305 156.49 97.6969 158.675 97.3717C158.837 97.3475 158.998 97.3233 159.164 97.2984C160.153 97.1506 161.142 97.0077 162.132 96.8676C162.55 96.8078 162.968 96.7453 163.385 96.6827C174.796 94.993 186.379 96.4872 197.608 98.6704C197.598 98.4062 197.588 98.1419 197.578 97.8697C197.581 96.0908 197.854 94.3305 198.09 92.5707C198.115 92.3782 198.141 92.1856 198.167 91.9873C200.369 75.5726 204.475 57.4366 215.119 44.2693C215.225 44.1371 215.33 44.0049 215.439 43.8687C220.735 37.2675 227.838 31.726 236.366 30.2605C241.475 29.9503 245.616 30.186 249.689 33.5146C251.126 34.8541 252.035 36.4782 252.943 38.1988C253.064 38.4264 253.185 38.6539 253.309 38.8883C254.654 41.635 255.074 44.6599 255.092 47.6904C255.094 47.8792 255.095 48.0681 255.097 48.2627C255.101 48.8724 255.103 49.482 255.103 50.0918C255.103 50.4053 255.103 50.4053 255.103 50.7251C255.099 54.1434 254.929 57.4724 254.344 60.8465C254.286 61.1907 254.286 61.1907 254.227 61.5419C250.903 80.68 242.286 99.4922 230.062 114.547C230.759 115.38 231.454 116.186 232.236 116.94C233.321 118.008 234.249 119.198 235.199 120.384C235.353 120.569 235.507 120.754 235.666 120.945C237.905 123.658 239.755 126.678 241.503 129.723C241.587 129.868 241.67 130.013 241.757 130.162C246.839 139.021 249.962 149.79 249.939 160.034C249.939 160.264 249.939 160.494 249.94 160.73C249.94 161.212 249.939 161.693 249.938 162.175C249.937 162.907 249.938 163.639 249.94 164.371C249.94 164.842 249.939 165.313 249.939 165.783C249.939 166 249.94 166.216 249.94 166.438C249.936 167.76 249.842 169.038 249.675 170.349C249.897 170.365 249.897 170.365 250.124 170.381C250.801 170.431 251.478 170.485 252.155 170.539C252.389 170.555 252.622 170.572 252.862 170.589C254.121 170.693 255.127 170.81 256.212 171.517C256.777 172.195 256.904 172.605 257 173.487C256.901 174.423 256.755 174.949 256.212 175.719C254.943 176.412 254.014 176.496 252.593 176.361C252.425 176.349 252.257 176.337 252.083 176.324C251.04 176.243 250.009 176.111 248.974 175.953C248.45 177.477 247.984 179.013 247.544 180.564C247.482 180.779 247.421 180.993 247.357 181.214C247.298 181.422 247.238 181.63 247.177 181.844C247.124 182.03 247.071 182.216 247.017 182.408C246.868 182.977 246.749 183.547 246.639 184.125C246.885 184.209 247.13 184.294 247.383 184.382C251.832 185.96 251.832 185.96 252.943 187.627C253.099 188.429 253.106 189.16 252.943 189.962C252.355 190.809 251.672 191.236 250.708 191.572C249.493 191.608 248.522 191.138 247.413 190.677C246.974 190.498 246.536 190.321 246.097 190.145C245.807 190.025 245.807 190.025 245.512 189.903C244.984 189.69 244.984 189.69 244.304 189.728C243.928 190.305 243.596 190.875 243.268 191.479C241.557 194.509 239.481 197.26 237.067 199.768C236.881 199.964 236.881 199.964 236.692 200.164C232.952 204.111 228.619 207.049 223.773 209.501C223.539 209.62 223.539 209.62 223.3 209.741C222.629 210.07 222.181 210.274 221.423 210.274C221.423 210.429 221.423 210.583 221.423 210.741C221.611 210.79 221.798 210.838 221.992 210.887C223.092 211.311 223.978 211.935 224.94 212.609C225.137 212.746 225.333 212.882 225.535 213.022C228.255 214.922 230.82 216.981 233.331 219.147C233.498 219.29 233.666 219.434 233.838 219.582C234.295 219.978 234.748 220.378 235.199 220.781C235.39 220.951 235.582 221.121 235.779 221.295C238.892 224.099 241.999 227.011 244.538 230.354C244.715 230.573 244.891 230.793 245.073 231.019C249.151 236.147 254.311 243.288 253.644 250.2C253.623 250.48 253.623 250.48 253.603 250.766C253.23 253.799 251.491 256.844 249.208 258.838C247.714 259.954 246.076 260.625 244.304 261.173C244.146 261.226 243.987 261.279 243.823 261.334C238.589 262.806 232.527 260.708 227.777 258.579C227.592 258.496 227.406 258.413 227.215 258.328C227.076 258.265 226.937 258.203 226.793 258.138C226.848 258.548 226.848 258.548 226.903 258.966C228.76 273.042 229.851 287.145 229.886 301.343C229.887 301.805 229.889 302.267 229.891 302.729C229.914 310.039 229.855 317.607 224.671 323.353C222.146 325.756 218.911 327.08 215.586 327.949C215.414 327.994 215.242 328.04 215.064 328.087C212.954 328.555 210.791 328.511 208.64 328.515C207.96 328.518 207.28 328.529 206.6 328.541C203.101 328.572 200.158 327.987 197.039 326.344C196.885 326.264 196.73 326.184 196.571 326.102C193.093 324.259 190.445 321.323 189.201 317.551C188.313 314.623 187.857 311.579 187.335 308.57C187.228 307.965 187.12 307.361 187.012 306.756C186.885 306.038 186.76 305.319 186.635 304.601C186.352 304.622 186.352 304.622 186.064 304.644C179.723 305.108 173.445 305.179 167.095 304.849C166.801 304.834 166.801 304.834 166.501 304.818C165.944 304.789 165.387 304.758 164.831 304.726C164.664 304.717 164.498 304.708 164.327 304.698C163.567 304.653 162.849 304.591 162.119 304.367C162.103 304.564 162.103 304.564 162.086 304.764C161.433 312.003 160.412 319.883 154.634 324.875C153.847 325.454 153.049 325.926 152.182 326.373C151.978 326.48 151.978 326.48 151.77 326.589C148.442 328.2 145.229 328.602 141.572 328.555C140.873 328.547 140.174 328.55 139.475 328.555C135.941 328.553 132.612 328.144 129.373 326.636C129.114 326.516 129.114 326.516 128.849 326.395C124.902 324.503 122.393 321.52 120.793 317.442C120.66 317.107 120.66 317.107 120.525 316.765C118.907 312.137 119.041 307.037 119.068 302.202C119.071 301.689 119.073 301.175 119.074 300.661C119.112 287.241 119.997 273.907 121.715 260.597C121.736 260.428 121.758 260.259 121.78 260.086C121.869 259.405 121.976 258.792 122.194 258.138C121.942 258.24 121.69 258.342 121.43 258.446C115.144 260.956 108.84 263.06 102.249 260.382C98.9617 258.828 97.0912 256.388 95.8105 253.001C94.2508 248.347 96.2019 243.598 98.2629 239.454C101.888 232.56 107.572 226.044 113.479 221.011C113.916 220.638 114.347 220.261 114.776 219.88C118.685 216.426 122.878 213.233 127.33 210.508C127.194 210.435 127.058 210.363 126.918 210.288C119.563 206.349 112.783 201.86 107.951 194.865C107.851 194.719 107.75 194.573 107.646 194.423C106.594 192.892 105.591 191.35 104.683 189.728C103.631 189.916 102.657 190.153 101.668 190.554C101.425 190.652 101.425 190.652 101.177 190.752C100.854 190.884 100.532 191.021 100.211 191.162C99.0668 191.63 98.3937 191.622 97.2114 191.129C96.4967 190.506 96.1344 190.139 95.9318 189.218C95.8731 188.279 95.9938 187.721 96.4379 186.883C97.948 185.338 100.296 184.762 102.348 184.358C102.277 184.115 102.277 184.115 102.205 183.867C101.989 183.116 101.774 182.366 101.56 181.615C101.486 181.36 101.412 181.105 101.336 180.842C100.854 179.146 100.497 177.465 100.247 175.719C99.9818 175.791 99.7169 175.864 99.444 175.938C98.3405 176.181 97.2416 176.293 96.1169 176.376C95.9478 176.391 95.7787 176.406 95.6044 176.422C94.4622 176.494 93.7404 176.332 92.7752 175.719C92.0739 174.901 91.9609 174.178 92.01 173.134C92.1113 172.43 92.3036 172.049 92.7752 171.517C94.1443 170.788 95.4308 170.653 96.9633 170.539C97.1898 170.52 97.4162 170.501 97.6496 170.481C98.2038 170.435 98.7581 170.391 99.3127 170.349C99.2751 170.093 99.2376 169.838 99.1989 169.574C99.0482 168.361 99.0371 167.155 99.0318 165.934C99.0298 165.568 99.0298 165.568 99.0277 165.195C99.0255 164.679 99.024 164.164 99.0231 163.648C99.0209 162.878 99.0136 162.108 99.0062 161.338C98.9842 156.953 99.4041 152.668 100.378 148.387C100.436 148.13 100.494 147.873 100.554 147.608C101.709 142.725 103.386 137.954 105.617 133.459C105.719 133.248 105.822 133.038 105.928 132.821C108.503 127.576 111.669 122.655 115.634 118.349C116.098 117.843 116.55 117.329 116.999 116.809C117.614 116.102 118.252 115.433 118.925 114.781C118.611 114.044 118.174 113.483 117.658 112.876C113.97 108.508 110.883 103.461 108.185 98.437C108.071 98.2264 107.957 98.0157 107.839 97.7988C101.004 85.1364 95.9832 71.1921 94.1761 56.8773C94.1554 56.7154 94.1348 56.5535 94.1135 56.3867C93.9649 55.1526 93.8993 53.9345 93.887 52.692C93.8847 52.5002 93.8823 52.3084 93.88 52.1108C93.8172 45.5773 93.9777 38.9966 98.8457 33.9962C99.0031 33.8297 99.1605 33.6633 99.3227 33.4918C101.163 31.6988 103.548 30.6234 106.084 30.2605C106.334 30.2221 106.334 30.2221 106.589 30.1829C114.407 29.147 121.905 32.6302 127.735 37.6103ZM102.653 39.6672C100.441 43.1606 100.147 46.9947 100.159 51.0403C100.159 51.2111 100.159 51.3819 100.16 51.558C100.183 57.5994 101.281 63.4197 102.815 69.2518C102.883 69.5131 102.952 69.7744 103.023 70.0436C104.798 76.6734 107.386 83.1184 110.286 89.3312C110.385 89.5438 110.484 89.7563 110.586 89.9753C113.174 95.4663 116.35 100.698 119.903 105.617C120.03 105.793 120.157 105.969 120.289 106.151C121.965 108.45 123.766 110.651 125.64 112.792C126.276 113.571 126.404 114.118 126.367 115.116C125.956 116.792 124.817 117.797 123.58 118.91C123.265 119.2 122.949 119.491 122.634 119.781C122.48 119.924 122.325 120.066 122.166 120.212C112.449 129.187 106.589 142.619 105.15 155.64C105.128 155.824 105.106 156.009 105.084 156.199C104.889 158.027 104.873 159.852 104.873 161.688C104.872 162.216 104.868 162.744 104.864 163.272C104.855 165.588 105.04 167.826 105.383 170.116C105.793 170.129 105.793 170.129 106.21 170.142C106.572 170.157 106.933 170.173 107.295 170.189C107.474 170.194 107.654 170.199 107.839 170.205C108.911 170.255 109.649 170.36 110.52 171.05C111.097 171.916 111.114 172.614 110.987 173.618C110.701 174.276 110.495 174.65 109.892 175.041C109.183 175.319 108.536 175.353 107.776 175.398C107.503 175.416 107.23 175.433 106.948 175.451C106.74 175.463 106.532 175.474 106.317 175.486C106.394 177.068 106.696 178.529 107.105 180.053C107.154 180.242 107.203 180.431 107.253 180.626C107.385 181.099 107.549 181.562 107.718 182.023C108.433 182.262 108.818 182.248 109.557 182.198C110.448 182.193 110.704 182.225 111.483 182.724C111.968 183.499 112.092 183.943 112.036 184.842C111.84 185.605 111.347 185.976 110.753 186.459C110.518 186.691 110.284 186.924 110.053 187.16C111.849 190.469 113.994 193.311 116.59 196.032C116.763 196.217 116.936 196.402 117.114 196.593C122.442 202.146 129.924 205.556 137.297 207.351C138.623 207.69 139.572 207.941 140.405 209.107C140.753 210.083 140.751 210.944 140.347 211.894C139.537 212.849 138.714 212.956 137.545 213.135C131.767 214.134 126.621 217.807 122.194 221.482C121.894 221.724 121.593 221.966 121.293 222.208C119.01 224.054 116.829 225.975 114.722 228.019C114.528 228.207 114.334 228.395 114.134 228.588C110.443 232.172 110.443 232.172 107.251 236.191C107.033 236.503 107.033 236.503 106.811 236.821C102.245 243.149 102.245 243.149 101.181 250.667C101.616 252.266 102.263 253.681 103.711 254.581C103.95 254.695 104.189 254.81 104.435 254.928C104.673 255.044 104.911 255.161 105.156 255.282C108.474 256.659 112.603 255.685 115.797 254.403C117.04 253.882 118.268 253.327 119.494 252.768C119.757 252.649 120.02 252.53 120.291 252.407C120.543 252.29 120.795 252.173 121.055 252.053C121.28 251.949 121.505 251.845 121.736 251.738C122.078 251.555 122.078 251.555 122.427 251.367C122.564 251.299 122.701 251.23 122.842 251.16C124.3 250.307 124.584 249.049 125.032 247.494C125.114 247.228 125.196 246.963 125.28 246.69C125.541 245.843 125.794 244.994 126.046 244.144C128.724 235.237 128.724 235.237 130.253 234.132C130.98 233.786 131.436 233.756 132.234 233.856C133.116 234.257 133.522 234.59 133.868 235.49C134.049 237.904 133.185 240.157 132.413 242.399C132.057 243.435 131.714 244.475 131.37 245.515C131.302 245.72 131.234 245.925 131.164 246.136C127.917 255.965 126.524 266.216 125.738 276.503C125.694 277.08 125.648 277.658 125.603 278.235C125.042 285.464 124.831 292.682 124.762 299.931C124.76 300.123 124.758 300.314 124.756 300.512C124.294 310.467 124.294 310.467 128.481 319.091C130.708 321.244 133.435 322.095 136.436 322.579C136.624 322.61 136.812 322.64 137.005 322.672C141.75 323.281 147.185 323.067 151.218 320.288C153.554 318.411 154.4 315.774 154.998 312.933C155.047 312.707 155.095 312.48 155.146 312.247C155.6 310.047 155.906 307.83 156.181 305.602C156.837 300.407 156.837 300.407 157.814 299.406C159.528 298.175 162.093 298.724 164.106 298.931C167.234 299.249 170.341 299.295 173.483 299.279C174.336 299.274 175.189 299.274 176.043 299.274C178.44 299.271 180.835 299.256 183.23 299.126C183.396 299.117 183.562 299.108 183.733 299.099C184.564 299.046 185.354 298.935 186.168 298.764C186.829 298.712 187.489 298.71 188.152 298.705C188.327 298.701 188.501 298.696 188.68 298.691C189.738 298.683 190.48 298.73 191.304 299.464C192.1 300.847 192.242 302.339 192.457 303.9C192.537 304.445 192.617 304.99 192.698 305.535C192.738 305.808 192.778 306.082 192.819 306.364C193.607 313.988 193.607 313.988 197.591 320.158C202.09 323.124 207.863 323.489 213.065 322.49C213.28 322.443 213.496 322.395 213.718 322.345C213.951 322.3 214.184 322.254 214.423 322.208C217.656 321.506 220.185 320.035 222.088 317.286C223.605 314.703 224.027 311.782 224.026 308.825C224.027 308.563 224.027 308.563 224.028 308.296C224.03 307.72 224.031 307.145 224.031 306.57C224.032 306.16 224.032 305.75 224.033 305.34C224.035 304.477 224.035 303.614 224.035 302.751C224.035 301.886 224.036 301.021 224.04 300.156C224.07 291.994 223.788 283.845 223.05 275.713C223.034 275.527 223.017 275.342 223 275.15C222.01 264.444 220.394 254.077 216.983 243.864C216.894 243.596 216.894 243.596 216.803 243.324C216.517 242.463 216.226 241.604 215.926 240.747C215.235 238.733 214.533 236.557 215.455 234.513C216.322 233.9 217.102 233.769 218.155 233.856C219.724 234.605 220.313 236.612 220.871 238.156C221.301 239.379 221.713 240.609 222.124 241.838C222.266 242.259 222.408 242.68 222.551 243.101C222.62 243.307 222.69 243.513 222.761 243.725C222.9 244.136 223.039 244.545 223.179 244.955C223.492 245.876 223.791 246.794 224.046 247.732C224.565 249.647 224.565 249.647 225.902 251.046C226.271 251.242 226.647 251.427 227.027 251.601C227.308 251.748 227.308 251.748 227.595 251.899C228.183 252.204 228.776 252.488 229.376 252.768C229.695 252.918 229.695 252.918 230.021 253.071C231.869 253.929 233.733 254.693 235.666 255.336C235.85 255.398 236.033 255.46 236.223 255.524C238.926 256.276 242.246 256.058 244.771 254.869C246.42 253.826 247.203 252.478 247.807 250.667C248.346 244.607 244.019 238.849 240.339 234.396C239.56 233.502 238.762 232.628 237.954 231.76C237.322 231.081 236.706 230.389 236.089 229.697C235.286 228.812 234.459 228.009 233.545 227.241C233.073 226.831 232.642 226.396 232.207 225.947C231.314 225.042 230.356 224.249 229.363 223.456C228.759 222.962 228.179 222.449 227.6 221.926C223.111 217.919 217.228 213.833 211.121 213.076C210.184 212.951 209.791 212.871 208.99 212.332C208.486 211.521 208.348 210.997 208.348 210.041C208.636 209.125 208.931 208.731 209.691 208.144C210.655 207.653 211.689 207.418 212.732 207.151C219.239 205.482 225.219 202.558 230.296 198.133C230.523 197.937 230.751 197.74 230.986 197.538C234.254 194.666 236.871 191.22 238.934 187.393C238.934 187.239 238.934 187.085 238.934 186.926C238.674 186.791 238.414 186.657 238.146 186.518C237.643 186.226 237.328 186.027 236.964 185.569C236.684 184.48 236.659 183.728 237.227 182.738C238.433 181.988 239.652 182.165 241.036 182.257C241.267 181.479 241.494 180.701 241.722 179.922C241.786 179.704 241.851 179.485 241.918 179.261C242.285 177.998 242.548 176.795 242.67 175.486C242.366 175.481 242.366 175.481 242.055 175.476C239.584 175.373 239.584 175.373 238.759 174.683C238.03 173.853 237.908 173.342 237.917 172.226C238.057 171.428 238.553 171.065 239.168 170.583C239.938 170.197 240.8 170.26 241.649 170.218C241.836 170.208 242.023 170.198 242.216 170.187C242.679 170.162 243.141 170.139 243.604 170.116C246.226 155.882 241.731 140.213 233.837 128.351C231.125 124.447 228.099 120.78 224.337 117.849C223.393 117.034 222.668 116.252 222.489 115C222.678 113.294 223.811 112.156 224.94 110.928C228.684 106.853 231.771 102.072 234.498 97.2696C234.654 96.9951 234.654 96.9951 234.813 96.7152C239.973 87.5704 244.032 77.7953 246.639 67.6174C246.694 67.4078 246.749 67.1982 246.806 66.9822C248.153 61.7898 248.827 56.501 248.828 51.1424C248.829 50.9845 248.829 50.8265 248.83 50.6638C248.829 47.8571 248.638 45.07 247.719 42.4015C247.626 42.1222 247.533 41.8429 247.436 41.5551C246.582 39.5148 245.03 37.7883 242.994 36.8946C241.953 36.5184 240.999 36.4385 239.898 36.4477C239.706 36.4492 239.514 36.4507 239.316 36.4523C234.333 36.5971 230.049 39.1156 226.093 41.9345C225.899 42.0709 225.705 42.2072 225.506 42.3477C211.836 52.452 207.237 72.8294 204.819 88.6546C204.175 92.9594 203.703 97.2812 203.332 101.618C203.314 101.813 203.296 102.009 203.277 102.21C203.245 102.558 203.216 102.907 203.191 103.256C203.089 104.323 202.807 104.922 202.044 105.675C200.259 106.27 198.679 105.669 196.937 105.164C191.839 103.748 186.767 102.879 181.498 102.406C181.128 102.372 181.128 102.372 180.75 102.338C171.473 101.552 161.993 102.612 153.013 104.974C152.463 105.119 151.912 105.263 151.361 105.405C150.923 105.518 150.486 105.636 150.049 105.753C148.956 105.973 148.018 106.075 146.987 105.617C146.185 104.976 146.037 104.465 145.889 103.448C145.857 103.113 145.828 102.778 145.8 102.444C145.765 102.066 145.73 101.688 145.695 101.31C145.678 101.111 145.66 100.912 145.642 100.707C144.066 83.1877 140.708 64.5473 130.366 49.8729C130.226 49.6745 130.226 49.6745 130.084 49.4722C128.89 47.7919 127.587 46.2261 126.163 44.7363C126.033 44.5968 125.903 44.4573 125.769 44.3136C124.568 43.0603 123.268 42.0692 121.829 41.1027C121.602 40.95 121.376 40.7973 121.142 40.64C119.372 39.4681 117.646 38.4817 115.656 37.7319C115.43 37.6445 115.43 37.6445 115.199 37.5553C113.223 36.8134 111.348 36.4581 109.236 36.4331C109.046 36.4297 108.856 36.4262 108.661 36.4227C106.172 36.4653 104.121 37.6805 102.653 39.6672Z" fill="black"/>
<path d="M188.288 230.827C194.843 236.487 198.171 245.347 198.97 253.896C199.347 258.802 199.533 264.044 198.141 268.792C198.077 269.022 198.077 269.022 198.012 269.257C197.089 272.517 195.342 275.209 193.003 277.596C192.843 277.762 192.683 277.928 192.518 278.099C187.095 283.367 179.348 284.17 172.235 284.042C170.728 283.996 169.264 283.822 167.78 283.544C167.622 283.515 167.464 283.485 167.301 283.455C161.823 282.399 156.876 279.743 153.614 274.991C148.916 267.766 149.188 257.461 150.816 249.263C152.432 241.762 156.181 233.584 162.679 229.237C162.898 229.099 163.117 228.961 163.343 228.819C163.478 228.733 163.613 228.646 163.753 228.557C171.892 223.4 181.024 225.013 188.288 230.827Z" fill="#F4A99C"/>
<path d="M175.194 221.481C175.622 221.51 175.622 221.51 176.059 221.539C183.451 222.153 189.855 225.568 194.655 231.19C198.567 235.916 201.214 241.571 202.803 247.471C202.885 247.769 202.885 247.769 202.969 248.073C203.933 251.838 204.264 255.656 204.237 259.531C204.233 260.169 204.237 260.806 204.241 261.444C204.245 264.835 203.97 268.238 202.832 271.461C202.773 271.631 202.714 271.802 202.654 271.977C200.351 278.349 195.811 283.473 189.719 286.455C181.141 290.441 170.135 290.647 161.275 287.446C157.077 285.856 153.178 283.23 150.445 279.618C150.276 279.397 150.108 279.175 149.934 278.947C144.029 270.808 143.858 260.912 145.317 251.293C145.67 249.083 146.239 246.951 146.943 244.83C147.027 244.574 147.027 244.574 147.112 244.313C147.875 242.035 148.878 239.897 149.995 237.773C150.187 237.404 150.374 237.032 150.56 236.66C153.841 230.264 160.033 224.856 166.847 222.59C169.527 221.83 172.403 221.272 175.194 221.481ZM159.084 233.389C158.917 233.556 158.75 233.723 158.578 233.895C154.492 238.234 152.169 244.029 150.853 249.762C150.818 249.915 150.783 250.068 150.746 250.225C150.098 253.261 149.9 256.282 149.917 259.376C149.92 259.935 149.917 260.494 149.914 261.053C149.908 267.34 151.453 273.274 155.859 277.925C161.349 283.179 168.795 284.203 176.093 284.097C182.926 283.931 189.256 281.691 194.048 276.722C194.902 275.736 195.571 274.683 196.207 273.548C196.332 273.329 196.457 273.111 196.586 272.886C197.551 271.09 198.129 269.236 198.542 267.244C198.605 266.952 198.605 266.952 198.669 266.655C199.077 264.544 199.082 262.467 199.067 260.327C199.067 260.14 199.066 259.954 199.065 259.761C199.053 257.095 199.009 254.466 198.542 251.834C198.513 251.67 198.484 251.507 198.455 251.338C197.378 245.457 195.217 239.618 191.304 235.023C191.018 234.677 191.018 234.677 190.726 234.323C189.125 232.443 187.274 231.029 185.234 229.653C185.029 229.511 184.825 229.369 184.614 229.223C176.315 223.809 165.586 226.799 159.084 233.389Z" fill="black"/>
<path d="M233.097 57.3444C233.809 57.811 234.382 58.3627 234.965 58.9788C235.143 59.157 235.322 59.3352 235.505 59.5187C237.601 62.8566 236.59 67.2098 235.795 70.8015C235.264 73.0531 234.555 75.2397 233.798 77.4238C233.735 77.608 233.672 77.7923 233.607 77.9821C233.266 78.9779 232.916 79.9701 232.555 80.9589C232.407 81.3656 232.261 81.7732 232.116 82.181C231.414 84.0909 230.533 85.8812 229.604 87.6877C229.368 88.1513 229.137 88.617 228.908 89.0842C226.136 94.7381 223.001 100.439 218.855 105.208C218.676 105.414 218.676 105.414 218.494 105.624C218.121 106.048 217.745 106.468 217.367 106.886C217.253 107.013 217.139 107.139 217.021 107.269C216.173 108.181 215.459 108.851 214.208 109.053C213.059 109.065 212.298 109.064 211.281 108.491C209.783 106.7 209.37 105.43 209.516 103.107C209.64 101.953 209.812 100.808 209.997 99.6629C210.036 99.4215 210.036 99.4215 210.075 99.1753C212.123 86.4018 216.015 67.5193 227.246 59.3582C229.004 58.1292 230.885 56.952 233.097 57.3444Z" fill="#F4A99C"/>
<path d="M117.634 57.4056C117.829 57.4625 118.024 57.5194 118.225 57.578C118.415 57.6325 118.605 57.6869 118.801 57.7431C124.639 59.7658 127.956 65.9394 130.491 71.1573C131.995 74.3339 133.205 77.6004 134.335 80.9261C134.4 81.1138 134.465 81.3016 134.532 81.495C136.59 87.4833 137.844 93.6863 138.865 99.9222C139.031 100.936 139.205 101.948 139.38 102.96C139.67 104.896 139.65 106.177 138.491 107.806C137.815 108.509 137.208 108.89 136.242 109.061C134.799 109.09 133.81 109.016 132.711 108.041C125.73 100.754 120.669 91.106 116.824 81.86C116.696 81.5677 116.567 81.2755 116.438 80.9836C115.079 77.86 114.059 74.6154 113.088 71.3534C113.035 71.177 112.982 71.0007 112.927 70.819C112.34 68.7895 112.302 66.726 112.256 64.6262C112.247 64.3586 112.238 64.091 112.229 63.8153C112.222 61.5716 112.931 60.2878 114.303 58.5675C115.404 57.5321 116.118 57.0991 117.634 57.4056Z" fill="#F4A99C"/>
<path d="M227.381 165.713C229.736 167.472 231.388 169.548 231.864 172.492C232.216 175.983 231.8 178.665 229.608 181.462C228.027 183.311 225.929 184.548 223.525 185.059C220.199 185.228 217.593 185.076 214.886 182.957C214.745 182.851 214.603 182.744 214.457 182.634C212.834 181.232 211.407 178.562 211.15 176.42C210.919 173.175 211.499 170.628 213.485 168.014C213.738 167.653 213.738 167.653 213.996 167.285C217.361 163.427 223.235 163.04 227.381 165.713Z" fill="#F4A99C"/>
<path d="M132.876 165.723C135.212 167.297 136.798 169.431 137.477 172.167C138.01 175.319 137.644 178.346 135.838 181.045C134.174 183.168 132.051 184.478 129.432 185.058C125.71 185.283 123.081 184.737 120.116 182.369C118.527 180.94 117.234 178.545 117.007 176.405C116.826 172.915 117.275 170.277 119.512 167.477C123.125 163.558 128.383 163.062 132.876 165.723Z" fill="#F4A99C"/>
<path d="M174.61 162.819C174.862 162.818 175.113 162.816 175.372 162.814C178.818 162.822 178.818 162.822 180.142 163.674C180.929 164.623 181.215 165.326 181.122 166.568C180.842 168.141 179.981 169.728 178.697 170.703C178.003 171.146 177.378 171.489 176.595 171.75C176.462 174.015 176.737 176.254 178.229 178.054C179.346 179.171 180.53 179.387 182.053 179.528C183.725 179.384 185.35 178.934 186.635 177.821C187.086 177.223 187.507 176.615 187.915 175.986C188.269 175.486 188.269 175.486 188.736 175.252C189.763 175.134 190.263 175.192 191.173 175.705C191.869 176.536 191.968 176.923 191.892 177.977C191.479 179.841 189.93 181.334 188.428 182.412C185.483 184.286 182.251 184.578 178.839 183.988C177.327 183.517 176.307 182.621 175.193 181.516C174.775 181.037 174.775 181.037 174.26 181.089C174.116 181.292 173.971 181.494 173.822 181.702C172.793 183.003 170.959 183.791 169.357 184.125C165.724 184.416 162.707 184.12 159.784 181.79C158.569 180.726 157.376 179.674 157.144 178C157.094 177.078 157.088 176.59 157.654 175.836C158.533 175.215 159.105 175.152 160.164 175.274C161.106 175.634 161.461 176.418 161.974 177.249C162.698 178.342 163.705 178.791 164.921 179.221C166.749 179.54 168.621 179.677 170.291 178.755C171.63 177.594 172.099 176.016 172.392 174.318C172.433 174.092 172.474 173.866 172.515 173.633C172.585 172.929 172.601 172.427 172.392 171.75C171.846 171.27 171.301 170.978 170.651 170.656C169.167 169.889 168.472 168.378 167.956 166.847C167.805 165.883 167.894 165.555 168.379 164.702C170.006 162.61 172.096 162.801 174.61 162.819Z" fill="black"/>
<path d="M209.552 153.634C211.471 155.151 212.233 157.152 212.531 159.535C212.578 161.344 212.108 163.127 210.917 164.512C209.372 166.134 207.907 166.856 205.663 166.935C203.591 166.86 202.151 166.277 200.648 164.827C199.154 163.091 198.825 161.315 198.912 159.061C199.157 156.9 199.942 155.223 201.577 153.772C203.895 152.104 207.161 152.074 209.552 153.634Z" fill="black"/>
<path d="M146.943 153.538C148.626 154.555 149.371 156.386 149.978 158.208C150.171 160.881 149.854 162.879 148.135 164.975C146.581 166.463 144.641 166.934 142.554 166.912C140.911 166.769 139.392 166.091 138.196 164.946C136.59 163.006 136.413 160.842 136.614 158.425C136.848 156.539 137.815 155.004 139.238 153.772C141.682 152.031 144.331 152.26 146.943 153.538Z" fill="black"/>
<path d="M163.058 141.811C165.277 143.764 167.001 146.817 167.328 149.796C167.685 155.648 165.408 160.593 161.601 164.963C161.216 165.387 160.825 165.802 160.431 166.217C160.255 166.421 160.081 166.627 159.907 166.833C159.227 167.619 158.479 168.342 157.737 169.07C157.238 169.561 156.756 170.058 156.302 170.591C155.607 171.389 154.869 172.14 154.124 172.892C153.979 173.038 153.834 173.184 153.684 173.335C153.379 173.642 153.074 173.95 152.768 174.256C152.379 174.648 151.991 175.041 151.604 175.435C151.231 175.813 150.856 176.189 150.48 176.566C150.343 176.706 150.205 176.847 150.063 176.992C149.173 177.878 148.5 178.427 147.232 178.615C145.989 178.444 145.023 177.625 144.023 176.912C142.983 176.195 141.902 175.537 140.832 174.866C139.94 174.305 139.053 173.739 138.165 173.172C137.399 172.684 136.632 172.198 135.861 171.717C133.072 169.972 130.351 168.112 127.916 165.889C127.822 165.802 127.727 165.716 127.63 165.627C124.729 162.944 122.445 159.505 122.256 155.448C122.25 155.083 122.249 154.718 122.251 154.353C122.252 154.16 122.253 153.967 122.254 153.768C122.319 150.589 123.501 147.907 125.617 145.526C125.71 145.422 125.803 145.317 125.898 145.21C127.837 143.157 130.592 141.831 133.411 141.71C137.233 141.623 140.318 142.64 143.188 145.198C143.461 145.418 143.734 145.637 144.009 145.854C144.115 145.702 144.22 145.549 144.328 145.392C146.498 142.275 149.439 139.882 153.274 139.193C156.825 138.76 160.22 139.605 163.058 141.811Z" fill="#FF6060"/>
<path d="M200.499 141.585C201.687 142.505 202.654 143.541 203.501 144.786C203.795 145.215 204.111 145.617 204.44 146.019C204.52 145.929 204.6 145.84 204.683 145.747C206.778 143.519 209.792 141.807 212.895 141.7C216.339 141.665 219.065 142.378 221.683 144.705C221.846 144.845 221.846 144.845 222.012 144.988C224.143 146.952 225.631 150.006 225.819 152.897C225.832 153.396 225.833 153.894 225.829 154.394C225.83 154.561 225.832 154.727 225.833 154.899C225.822 159.064 223.711 162.455 220.913 165.396C218.435 167.796 215.408 169.737 212.507 171.579C211.913 171.957 211.322 172.341 210.732 172.724C210.497 172.876 210.262 173.028 210.027 173.18C209.624 173.44 209.221 173.701 208.819 173.962C207.913 174.548 207.004 175.126 206.089 175.696C205.914 175.804 205.739 175.913 205.559 176.026C205.21 176.243 204.861 176.459 204.512 176.675C203.819 177.106 203.133 177.534 202.479 178.022C202.029 178.333 201.781 178.488 201.248 178.544C201.137 178.559 201.025 178.575 200.91 178.59C199.744 178.429 198.884 177.671 198.09 176.858C197.989 176.758 197.888 176.657 197.784 176.553C197.454 176.224 197.126 175.892 196.798 175.56C196.567 175.328 196.336 175.096 196.105 174.865C195.622 174.381 195.14 173.895 194.659 173.409C194.045 172.788 193.429 172.17 192.813 171.552C192.221 170.959 191.631 170.365 191.041 169.771C190.929 169.659 190.818 169.547 190.703 169.432C189.611 168.333 188.527 167.237 187.526 166.053C187.297 165.806 187.068 165.56 186.838 165.314C185.152 163.436 183.738 161.408 182.6 159.156C182.546 159.05 182.492 158.944 182.436 158.835C180.734 155.435 180.187 151.507 181.286 147.825C181.859 146.17 182.639 144.753 183.749 143.391C183.828 143.286 183.907 143.181 183.988 143.072C187.965 137.975 195.591 138.216 200.499 141.585Z" fill="#FF6060"/>
<path d="M200.499 141.585C201.687 142.505 202.654 143.541 203.501 144.786C203.795 145.215 204.111 145.617 204.44 146.019C204.52 145.929 204.6 145.84 204.683 145.747C206.778 143.519 209.792 141.807 212.895 141.7C216.339 141.665 219.065 142.378 221.683 144.705C221.846 144.845 221.846 144.845 222.012 144.988C224.143 146.952 225.631 150.006 225.819 152.897C225.832 153.396 225.833 153.894 225.829 154.394C225.83 154.561 225.832 154.727 225.833 154.899C225.822 159.064 223.711 162.455 220.913 165.396C218.435 167.796 215.408 169.737 212.507 171.579C211.913 171.957 211.322 172.341 210.732 172.724C210.497 172.876 210.262 173.028 210.027 173.18C209.624 173.44 209.221 173.701 208.819 173.962C207.913 174.548 207.004 175.126 206.089 175.696C205.914 175.804 205.739 175.913 205.559 176.026C205.21 176.243 204.861 176.459 204.512 176.675C203.819 177.106 203.133 177.534 202.479 178.022C202.029 178.333 201.781 178.488 201.248 178.544C201.137 178.559 201.025 178.575 200.91 178.59C199.744 178.429 198.884 177.671 198.09 176.858C197.989 176.758 197.888 176.657 197.784 176.553C197.454 176.224 197.126 175.892 196.798 175.56C196.567 175.328 196.336 175.096 196.105 174.865C195.622 174.381 195.14 173.895 194.659 173.409C194.045 172.788 193.429 172.17 192.813 171.552C192.221 170.959 191.631 170.365 191.041 169.771C190.929 169.659 190.818 169.547 190.703 169.432C189.611 168.333 188.527 167.237 187.526 166.053C187.297 165.806 187.068 165.56 186.838 165.314C185.152 163.436 183.738 161.408 182.6 159.156C182.546 159.05 182.492 158.944 182.436 158.835C180.734 155.435 180.187 151.507 181.286 147.825C181.859 146.17 182.639 144.753 183.749 143.391C183.828 143.286 183.907 143.181 183.988 143.072C187.965 137.975 195.591 138.216 200.499 141.585ZM187.854 145.362C187.75 145.444 187.645 145.526 187.537 145.611C186.354 146.654 185.334 148.619 185.191 150.187C184.955 155.557 187.304 159.251 190.81 163.097C191.097 163.395 191.387 163.686 191.685 163.972C191.956 164.243 192.202 164.524 192.45 164.817C193.175 165.651 193.955 166.43 194.738 167.21C194.987 167.459 195.236 167.708 195.484 167.958C196.266 168.74 197.058 169.502 197.899 170.221C198.425 170.685 198.911 171.187 199.401 171.688C199.598 171.889 199.796 172.09 199.994 172.291C200.122 172.422 200.122 172.422 200.253 172.556C200.642 172.919 200.881 173.115 201.423 173.111C202.201 172.885 202.789 172.469 203.455 172.016C203.748 171.821 204.042 171.625 204.336 171.43C204.487 171.329 204.639 171.228 204.796 171.123C205.557 170.62 206.328 170.133 207.098 169.645C207.403 169.452 207.707 169.258 208.012 169.065C208.158 168.972 208.303 168.879 208.454 168.784C216.611 164.014 216.611 164.014 221.406 156.272C221.862 153.859 221.32 151.392 219.948 149.375C218.752 147.806 217.222 146.617 215.278 146.183C213.595 146.081 212.045 146.039 210.516 146.84C210.298 146.954 210.298 146.954 210.075 147.07C208.192 148.164 206.763 149.669 205.787 151.604C205.367 152.395 204.959 152.653 204.112 152.916C203.362 153.036 202.645 152.961 201.977 152.587C201.626 152.061 201.605 151.854 201.546 151.243C201.216 149.132 200.057 147.31 198.528 145.855C198.42 145.747 198.312 145.639 198.201 145.529C196.435 143.866 194.42 143.454 192.071 143.505C190.392 143.586 189.143 144.328 187.854 145.362Z" fill="black"/>
<path d="M163.058 141.811C165.277 143.764 167.001 146.817 167.328 149.796C167.685 155.648 165.408 160.593 161.601 164.963C161.216 165.387 160.825 165.802 160.431 166.217C160.255 166.421 160.081 166.627 159.907 166.833C159.227 167.619 158.479 168.342 157.737 169.07C157.238 169.561 156.756 170.058 156.302 170.591C155.607 171.389 154.869 172.14 154.124 172.892C153.979 173.038 153.834 173.184 153.684 173.335C153.379 173.642 153.074 173.95 152.768 174.256C152.379 174.648 151.991 175.041 151.604 175.435C151.231 175.813 150.856 176.189 150.48 176.566C150.343 176.706 150.205 176.847 150.063 176.992C149.173 177.878 148.5 178.427 147.232 178.615C145.989 178.444 145.023 177.625 144.023 176.912C142.983 176.195 141.902 175.537 140.832 174.866C139.94 174.305 139.053 173.739 138.165 173.172C137.399 172.684 136.632 172.198 135.861 171.717C133.072 169.972 130.351 168.112 127.916 165.889C127.822 165.802 127.727 165.716 127.63 165.627C124.729 162.944 122.445 159.505 122.256 155.448C122.25 155.083 122.249 154.718 122.251 154.353C122.252 154.16 122.253 153.967 122.254 153.768C122.319 150.589 123.501 147.907 125.617 145.526C125.71 145.422 125.803 145.317 125.898 145.21C127.837 143.157 130.592 141.831 133.411 141.71C137.233 141.623 140.318 142.64 143.188 145.198C143.461 145.418 143.734 145.637 144.009 145.854C144.115 145.702 144.22 145.549 144.328 145.392C146.498 142.275 149.439 139.882 153.274 139.193C156.825 138.76 160.22 139.605 163.058 141.811ZM148.771 146.713C147.607 148.136 146.823 149.735 146.693 151.578C146.63 151.972 146.515 152.246 146.308 152.587C145.59 153.036 144.665 153.035 143.845 152.916C143.085 152.582 142.854 152.188 142.511 151.448C141.224 148.936 139.055 147.209 136.429 146.212C134.454 145.637 132.452 146.131 130.687 147.096C128.661 148.418 127.251 150.237 126.695 152.608C126.657 152.874 126.626 153.141 126.603 153.408C126.589 153.556 126.576 153.703 126.562 153.855C126.44 156.602 127.481 159.198 129.312 161.219C132.569 164.634 136.953 167.037 140.917 169.536C141.721 170.044 142.523 170.557 143.324 171.071C143.591 171.241 143.858 171.412 144.125 171.582C144.288 171.687 144.452 171.791 144.62 171.899C144.773 171.996 144.925 172.094 145.083 172.194C145.412 172.408 145.729 172.631 146.047 172.861C146.541 173.155 146.729 173.194 147.294 173.114C147.733 172.813 147.733 172.813 148.172 172.367C148.262 172.282 148.351 172.197 148.443 172.109C148.774 171.79 149.102 171.467 149.428 171.144C149.565 171.009 149.702 170.874 149.843 170.736C150.904 169.69 151.958 168.638 153.01 167.583C153.354 167.238 153.699 166.894 154.044 166.55C154.38 166.215 154.716 165.879 155.051 165.543C155.286 165.308 155.52 165.074 155.755 164.84C159.566 161.016 162.942 156.789 162.946 151.174C162.914 148.904 162.087 147.106 160.585 145.403C159.102 144.014 156.963 143.298 154.957 143.351C152.407 143.586 150.457 144.839 148.771 146.713Z" fill="black"/>
<path d="M124.672 99.6703C126.158 99.6222 127.564 100.027 128.705 100.995C128.735 101.02 128.735 101.02 128.765 101.046C129.682 101.834 130.252 102.905 130.535 104.071C130.545 104.115 130.545 104.115 130.556 104.16C130.667 104.648 130.699 105.123 130.693 105.62C130.693 105.674 130.692 105.728 130.692 105.782C130.691 105.913 130.69 106.043 130.688 106.173C130.732 106.156 130.775 106.139 130.82 106.122C131.541 105.847 132.236 105.68 133.013 105.687C133.06 105.687 133.106 105.687 133.154 105.687C134.004 105.697 134.736 105.874 135.499 106.247C135.542 106.267 135.584 106.288 135.628 106.31C136.672 106.846 137.581 107.729 138.106 108.78C138.118 108.805 138.131 108.829 138.143 108.854C138.717 110.01 138.902 111.373 138.62 112.636C138.614 112.665 138.607 112.694 138.601 112.724C138.354 113.795 137.85 114.754 137.078 115.537C137.05 115.565 137.023 115.593 136.994 115.622C136.277 116.308 135.174 116.92 134.177 117.006C134.218 117.058 134.218 117.058 134.26 117.111C134.933 117.973 135.388 119.002 135.536 120.091C135.54 120.12 135.544 120.15 135.548 120.18C135.666 121.225 135.486 122.291 135.058 123.249C135.04 123.29 135.021 123.332 135.003 123.375C134.745 123.924 134.378 124.396 133.957 124.828C133.924 124.863 133.924 124.863 133.891 124.899C133.196 125.636 132.207 126.064 131.239 126.297C131.199 126.306 131.199 126.306 131.158 126.316C130.786 126.404 130.419 126.415 130.038 126.416C129.955 126.416 129.872 126.417 129.788 126.418C129.282 126.422 128.794 126.35 128.308 126.2C128.263 126.186 128.263 126.186 128.217 126.172C127.494 125.941 126.819 125.583 126.245 125.085C126.215 125.058 126.184 125.032 126.153 125.005C126.06 124.923 125.969 124.839 125.878 124.754C125.851 124.73 125.823 124.705 125.795 124.679C125.479 124.379 125.235 124.015 124.996 123.653C124.976 123.685 124.956 123.718 124.936 123.752C124.759 124.038 124.571 124.292 124.335 124.534C124.305 124.565 124.275 124.596 124.244 124.628C124.213 124.658 124.183 124.687 124.152 124.718C124.13 124.741 124.107 124.765 124.084 124.789C123.098 125.815 121.677 126.393 120.264 126.421C119.742 126.428 119.227 126.421 118.717 126.297C118.672 126.286 118.627 126.276 118.58 126.266C117.6 126.026 116.826 125.565 116.073 124.901C116.047 124.878 116.021 124.856 115.994 124.832C115.055 123.95 114.442 122.538 114.378 121.257C114.358 119.647 114.711 118.247 115.779 117.006C115.732 117.004 115.685 117.003 115.637 117.001C114.722 116.906 113.819 116.343 113.135 115.757C113.102 115.729 113.069 115.701 113.035 115.672C112.796 115.462 112.593 115.239 112.401 114.986C112.386 114.967 112.371 114.947 112.356 114.927C111.693 114.055 111.269 112.964 111.253 111.861C111.252 111.833 111.252 111.804 111.251 111.775C111.239 110.882 111.318 110.054 111.666 109.221C111.677 109.196 111.687 109.171 111.698 109.145C111.961 108.516 112.346 107.96 112.805 107.458C112.836 107.425 112.866 107.391 112.898 107.356C113.337 106.896 113.854 106.533 114.421 106.247C114.444 106.235 114.467 106.223 114.491 106.211C115.886 105.508 117.4 105.56 118.857 106.036C118.983 106.079 119.107 106.125 119.231 106.173C119.23 106.136 119.23 106.136 119.229 106.099C119.194 104.372 119.623 102.687 120.842 101.409C120.892 101.356 120.943 101.304 120.994 101.252C121.016 101.228 121.038 101.204 121.06 101.179C121.413 100.798 121.897 100.535 122.352 100.298C122.375 100.286 122.398 100.274 122.421 100.262C123.119 99.9035 123.889 99.7 124.672 99.6703Z" fill="#F4A99C"/>
<path d="M124.672 99.6703C126.158 99.6222 127.564 100.027 128.705 100.995C128.735 101.02 128.735 101.02 128.765 101.046C129.682 101.834 130.252 102.905 130.535 104.071C130.545 104.115 130.545 104.115 130.556 104.16C130.667 104.648 130.699 105.123 130.693 105.62C130.693 105.674 130.692 105.728 130.692 105.782C130.691 105.913 130.69 106.043 130.688 106.173C130.732 106.156 130.775 106.139 130.82 106.122C131.541 105.847 132.236 105.68 133.013 105.687C133.06 105.687 133.106 105.687 133.154 105.687C134.004 105.697 134.736 105.874 135.499 106.247C135.542 106.267 135.584 106.288 135.628 106.31C136.672 106.846 137.581 107.729 138.106 108.78C138.118 108.805 138.131 108.829 138.143 108.854C138.717 110.01 138.902 111.373 138.62 112.636C138.614 112.665 138.607 112.694 138.601 112.724C138.354 113.795 137.85 114.754 137.078 115.537C137.05 115.565 137.023 115.593 136.994 115.622C136.277 116.308 135.174 116.92 134.177 117.006C134.218 117.058 134.218 117.058 134.26 117.111C134.933 117.973 135.388 119.002 135.536 120.091C135.54 120.12 135.544 120.15 135.548 120.18C135.666 121.225 135.486 122.291 135.058 123.249C135.04 123.29 135.021 123.332 135.003 123.375C134.745 123.924 134.378 124.396 133.957 124.828C133.924 124.863 133.924 124.863 133.891 124.899C133.196 125.636 132.207 126.064 131.239 126.297C131.199 126.306 131.199 126.306 131.158 126.316C130.786 126.404 130.419 126.415 130.038 126.416C129.955 126.416 129.872 126.417 129.788 126.418C129.282 126.422 128.794 126.35 128.308 126.2C128.263 126.186 128.263 126.186 128.217 126.172C127.494 125.941 126.819 125.583 126.245 125.085C126.215 125.058 126.184 125.032 126.153 125.005C126.06 124.923 125.969 124.839 125.878 124.754C125.851 124.73 125.823 124.705 125.795 124.679C125.479 124.379 125.235 124.015 124.996 123.653C124.976 123.685 124.956 123.718 124.936 123.752C124.759 124.038 124.571 124.292 124.335 124.534C124.305 124.565 124.275 124.596 124.244 124.628C124.213 124.658 124.183 124.687 124.152 124.718C124.13 124.741 124.107 124.765 124.084 124.789C123.098 125.815 121.677 126.393 120.264 126.421C119.742 126.428 119.227 126.421 118.717 126.297C118.672 126.286 118.627 126.276 118.58 126.266C117.6 126.026 116.826 125.565 116.073 124.901C116.047 124.878 116.021 124.856 115.994 124.832C115.055 123.95 114.442 122.538 114.378 121.257C114.358 119.647 114.711 118.247 115.779 117.006C115.732 117.004 115.685 117.003 115.637 117.001C114.722 116.906 113.819 116.343 113.135 115.757C113.102 115.729 113.069 115.701 113.035 115.672C112.796 115.462 112.593 115.239 112.401 114.986C112.386 114.967 112.371 114.947 112.356 114.927C111.693 114.055 111.269 112.964 111.253 111.861C111.252 111.833 111.252 111.804 111.251 111.775C111.239 110.882 111.318 110.054 111.666 109.221C111.677 109.196 111.687 109.171 111.698 109.145C111.961 108.516 112.346 107.96 112.805 107.458C112.836 107.425 112.866 107.391 112.898 107.356C113.337 106.896 113.854 106.533 114.421 106.247C114.444 106.235 114.467 106.223 114.491 106.211C115.886 105.508 117.4 105.56 118.857 106.036C118.983 106.079 119.107 106.125 119.231 106.173C119.23 106.136 119.23 106.136 119.229 106.099C119.194 104.372 119.623 102.687 120.842 101.409C120.892 101.356 120.943 101.304 120.994 101.252C121.016 101.228 121.038 101.204 121.06 101.179C121.413 100.798 121.897 100.535 122.352 100.298C122.375 100.286 122.398 100.274 122.421 100.262C123.119 99.9035 123.889 99.7 124.672 99.6703ZM121.985 102.097C121.94 102.138 121.94 102.138 121.893 102.18C121.081 102.951 120.559 104.121 120.512 105.241C120.493 106.137 120.622 106.957 121.011 107.771C121.098 107.961 121.136 108.131 121.104 108.34C121.017 108.465 120.919 108.519 120.773 108.56C120.578 108.586 120.467 108.55 120.309 108.443C120.202 108.361 120.101 108.274 120 108.186C118.924 107.257 117.603 106.86 116.191 106.953C115.114 107.072 114.196 107.709 113.515 108.523C112.865 109.34 112.492 110.356 112.502 111.401C112.502 111.462 112.502 111.462 112.503 111.523C112.519 112.765 113.006 113.844 113.863 114.734C114.616 115.468 115.574 115.887 116.627 115.879C116.654 115.879 116.681 115.878 116.709 115.878C116.792 115.877 116.874 115.876 116.957 115.876C117.253 115.875 117.546 115.863 117.841 115.835C117.996 115.829 118.074 115.855 118.203 115.941C118.319 116.068 118.339 116.202 118.333 116.37C118.255 116.709 117.817 116.944 117.549 117.125C116.657 117.744 116.029 118.71 115.749 119.751C115.742 119.779 115.734 119.807 115.726 119.836C115.464 120.87 115.616 122.099 116.15 123.025C116.339 123.335 116.554 123.612 116.808 123.873C116.83 123.898 116.853 123.923 116.877 123.949C117.533 124.649 118.63 125.113 119.58 125.165C120.22 125.179 120.82 125.183 121.434 124.975C121.459 124.966 121.484 124.958 121.51 124.95C122.05 124.767 122.557 124.479 122.977 124.093C123.005 124.067 123.005 124.067 123.034 124.041C123.846 123.287 124.251 122.36 124.518 121.299C124.575 121.138 124.655 121.011 124.788 120.903C124.948 120.836 125.079 120.839 125.242 120.896C125.47 121.099 125.522 121.462 125.595 121.745C125.696 122.118 125.816 122.463 125.988 122.808C126.014 122.862 126.014 122.862 126.041 122.918C126.538 123.884 127.42 124.601 128.442 124.95C129.66 125.329 130.879 125.273 132.021 124.687C133.023 124.152 133.768 123.267 134.117 122.187C134.383 121.307 134.413 120.422 134.14 119.54C134.132 119.513 134.124 119.486 134.115 119.459C133.834 118.579 133.265 117.816 132.561 117.226C132.54 117.207 132.518 117.187 132.496 117.167C132.382 117.062 132.266 116.967 132.138 116.879C132.115 116.863 132.092 116.848 132.069 116.831C132.023 116.8 131.977 116.769 131.931 116.739C131.783 116.638 131.704 116.551 131.643 116.382C131.631 116.266 131.645 116.163 131.68 116.051C131.761 115.952 131.823 115.888 131.937 115.831C132.002 115.827 132.067 115.826 132.132 115.826C132.167 115.826 132.201 115.826 132.237 115.826C132.341 115.831 132.341 115.831 132.424 115.849C132.629 115.887 132.84 115.877 133.048 115.877C133.072 115.877 133.097 115.877 133.123 115.877C134.386 115.875 135.418 115.396 136.307 114.509C137.065 113.685 137.499 112.572 137.493 111.454C137.493 111.414 137.493 111.374 137.493 111.333C137.475 110.173 136.996 109.1 136.197 108.266C136.169 108.236 136.141 108.206 136.112 108.175C135.411 107.438 134.427 106.966 133.405 106.933C133.331 106.932 133.256 106.932 133.181 106.933C133.121 106.933 133.121 106.933 133.06 106.933C131.908 106.951 130.741 107.41 129.917 108.229C129.896 108.251 129.875 108.273 129.853 108.296C129.703 108.45 129.566 108.549 129.346 108.576C129.203 108.558 129.118 108.531 128.999 108.45C128.892 108.301 128.882 108.198 128.908 108.018C128.94 107.869 129.003 107.733 129.063 107.594C129.212 107.237 129.321 106.881 129.403 106.504C129.412 106.463 129.421 106.422 129.43 106.379C129.553 105.693 129.512 104.97 129.33 104.3C129.323 104.275 129.316 104.251 129.309 104.225C128.997 103.106 128.238 102.099 127.236 101.509C125.539 100.568 123.427 100.799 121.985 102.097Z" fill="black"/>
<path d="M128.277 109.853C128.373 109.934 128.466 110.018 128.558 110.102C128.586 110.127 128.613 110.151 128.64 110.176C129.54 111.031 130.073 112.331 130.111 113.56C130.132 114.723 129.904 115.791 129.219 116.749C129.205 116.77 129.19 116.791 129.174 116.812C128.398 117.88 127.279 118.7 125.958 118.909C125.687 118.948 125.417 118.978 125.143 118.989C125.073 118.992 125.073 118.992 125.001 118.995C123.583 119.034 122.315 118.43 121.288 117.483C120.42 116.641 119.874 115.364 119.849 114.158C119.846 113.73 119.853 113.315 119.929 112.893C119.933 112.869 119.938 112.845 119.942 112.82C120.177 111.565 120.905 110.45 121.952 109.72C123.862 108.432 126.446 108.352 128.277 109.853Z" fill="#F8E482"/>
<path d="M128.277 109.853C128.373 109.934 128.466 110.018 128.558 110.102C128.586 110.127 128.613 110.151 128.64 110.176C129.54 111.031 130.073 112.331 130.111 113.56C130.132 114.723 129.904 115.791 129.219 116.749C129.205 116.77 129.19 116.791 129.174 116.812C128.398 117.88 127.279 118.7 125.958 118.909C125.687 118.948 125.417 118.978 125.143 118.989C125.073 118.992 125.073 118.992 125.001 118.995C123.583 119.034 122.315 118.43 121.288 117.483C120.42 116.641 119.874 115.364 119.849 114.158C119.846 113.73 119.853 113.315 119.929 112.893C119.933 112.869 119.938 112.845 119.942 112.82C120.177 111.565 120.905 110.45 121.952 109.72C123.862 108.432 126.446 108.352 128.277 109.853ZM122.426 110.947C122.408 110.963 122.39 110.979 122.372 110.996C121.633 111.668 121.156 112.635 121.099 113.635C121.053 114.728 121.408 115.714 122.144 116.533C122.768 117.206 123.615 117.677 124.541 117.751C124.674 117.755 124.806 117.756 124.939 117.754C124.986 117.754 125.033 117.753 125.081 117.753C125.408 117.748 125.71 117.728 126.025 117.63C126.048 117.623 126.071 117.616 126.094 117.609C126.701 117.416 127.211 117.105 127.677 116.675C127.701 116.654 127.726 116.633 127.751 116.611C128.365 116.044 128.81 115.092 128.858 114.264C128.898 113.091 128.621 112.064 127.818 111.185C127.168 110.496 126.289 110.029 125.33 109.988C124.221 109.96 123.264 110.187 122.426 110.947Z" fill="black"/>
</svg>
