<svg width="180" height="326" viewBox="0 0 180 326" fill="none" xmlns="http://www.w3.org/2000/svg">
<path d="M38.9834 8.30218C39.8787 9.08682 40.741 9.90174 41.5988 10.7271C41.7718 10.8841 41.9448 11.041 42.1231 11.2027C44.9755 13.8713 47.2404 17.3264 49.24 20.6607C49.3524 20.8468 49.4648 21.0329 49.5806 21.2247C58.8843 36.7414 65.1806 56.8966 65.0318 75.1679C65.3779 75.069 65.3779 75.069 65.731 74.968C68.0511 74.3242 70.3522 73.8511 72.7366 73.4964C72.9126 73.47 73.0885 73.4436 73.2697 73.4165C74.3483 73.2552 75.4275 73.0994 76.5073 72.9465C76.9634 72.8812 77.4191 72.8131 77.8748 72.7447C90.3229 70.9014 102.959 72.5315 115.209 74.9132C115.198 74.6249 115.187 74.3367 115.176 74.0396C115.179 72.0991 115.477 70.1788 115.734 68.259C115.762 68.0489 115.79 67.8389 115.819 67.6225C118.22 49.7156 122.7 29.9308 134.312 15.5665C134.427 15.4223 134.542 15.2781 134.661 15.1295C140.438 7.92823 148.187 1.88286 157.49 0.284148C163.063 -0.0541722 167.581 0.202945 172.024 3.83412C173.592 5.2954 174.583 7.0671 175.574 8.94418C175.706 9.19239 175.838 9.44061 175.973 9.69636C177.441 12.6927 177.899 15.9926 177.919 19.2986C177.92 19.5046 177.922 19.7106 177.924 19.9229C177.928 20.588 177.93 21.2531 177.931 21.9183C177.931 22.2603 177.931 22.2603 177.931 22.6092C177.927 26.3383 177.741 29.9699 177.103 33.6507C177.039 34.0263 177.039 34.0263 176.974 34.4094C173.349 55.2872 163.948 75.8097 150.613 92.2333C151.374 93.1423 152.132 94.0209 152.985 94.844C154.168 96.0085 155.18 97.3073 156.217 98.6009C156.385 98.8029 156.553 99.0048 156.726 99.2128C159.169 102.172 161.187 105.466 163.094 108.789C163.185 108.947 163.277 109.105 163.371 109.268C168.915 118.932 172.322 130.68 172.297 141.855C172.297 142.106 172.298 142.357 172.298 142.615C172.298 143.14 172.298 143.665 172.296 144.191C172.295 144.989 172.296 145.788 172.298 146.586C172.298 147.1 172.298 147.614 172.297 148.127C172.298 148.363 172.298 148.599 172.299 148.842C172.294 150.283 172.192 151.678 172.009 153.108C172.251 153.125 172.251 153.125 172.499 153.143C173.238 153.197 173.976 153.256 174.715 153.315C174.969 153.333 175.224 153.351 175.486 153.369C176.86 153.483 177.956 153.611 179.14 154.382C179.757 155.122 179.895 155.57 180 156.531C179.892 157.552 179.733 158.126 179.14 158.966C177.756 159.722 176.743 159.814 175.192 159.667C175.009 159.653 174.825 159.64 174.636 159.626C173.498 159.538 172.373 159.393 171.244 159.221C170.673 160.884 170.165 162.56 169.684 164.252C169.617 164.486 169.55 164.72 169.48 164.961C169.416 165.188 169.351 165.415 169.284 165.648C169.227 165.851 169.169 166.054 169.109 166.263C168.946 166.884 168.817 167.506 168.697 168.136C168.965 168.228 169.233 168.321 169.508 168.416C174.362 170.138 174.362 170.138 175.574 171.956C175.745 172.832 175.752 173.629 175.574 174.504C174.933 175.429 174.188 175.893 173.136 176.261C171.811 176.3 170.751 175.787 169.541 175.284C169.063 175.089 168.584 174.896 168.105 174.704C167.79 174.573 167.79 174.573 167.468 174.44C166.892 174.207 166.892 174.207 166.15 174.249C165.74 174.879 165.377 175.5 165.02 176.159C163.153 179.465 160.888 182.465 158.254 185.201C158.052 185.415 158.052 185.415 157.846 185.634C153.766 189.939 149.039 193.145 143.752 195.819C143.497 195.949 143.497 195.949 143.236 196.081C142.504 196.44 142.016 196.663 141.189 196.663C141.189 196.831 141.189 196.999 141.189 197.172C141.394 197.225 141.598 197.277 141.809 197.332C143.009 197.794 143.976 198.474 145.026 199.21C145.24 199.359 145.454 199.507 145.675 199.661C148.642 201.733 151.44 203.98 154.179 206.342C154.362 206.498 154.544 206.655 154.732 206.816C155.231 207.248 155.725 207.685 156.217 208.125C156.426 208.31 156.634 208.495 156.85 208.686C160.246 211.745 163.635 214.921 166.405 218.568C166.598 218.807 166.79 219.046 166.989 219.293C171.438 224.888 177.066 232.678 176.339 240.218C176.316 240.524 176.316 240.524 176.294 240.836C175.887 244.145 173.99 247.466 171.499 249.642C169.87 250.859 168.082 251.591 166.15 252.189C165.977 252.247 165.804 252.305 165.625 252.364C159.916 253.97 153.302 251.682 148.121 249.359C147.918 249.268 147.716 249.178 147.508 249.085C147.356 249.017 147.204 248.948 147.047 248.878C147.107 249.325 147.107 249.325 147.167 249.781C149.193 265.136 150.383 280.522 150.421 296.011C150.422 296.515 150.424 297.018 150.426 297.522C150.452 305.497 150.388 313.753 144.732 320.022C141.978 322.642 138.449 324.088 134.821 325.035C134.633 325.085 134.446 325.135 134.252 325.186C131.95 325.697 129.59 325.648 127.244 325.653C126.502 325.656 125.76 325.669 125.018 325.681C121.201 325.715 117.991 325.076 114.588 323.284C114.42 323.197 114.251 323.11 114.077 323.02C110.283 321.01 107.394 317.807 106.037 313.692C105.068 310.498 104.572 307.177 104.002 303.895C103.885 303.235 103.767 302.575 103.649 301.916C103.511 301.132 103.374 300.348 103.238 299.565C102.929 299.588 102.929 299.588 102.615 299.611C95.6982 300.118 88.8495 300.195 81.922 299.835C81.6012 299.819 81.6012 299.819 81.2738 299.802C80.6663 299.77 80.0589 299.736 79.4515 299.701C79.2702 299.691 79.0888 299.681 78.9019 299.671C78.0729 299.621 77.29 299.554 76.4936 299.31C76.476 299.524 76.476 299.524 76.458 299.743C75.7449 307.639 74.6308 316.236 68.328 321.682C67.4696 322.314 66.5988 322.829 65.6526 323.316C65.4305 323.432 65.4305 323.432 65.2039 323.551C61.5731 325.309 58.0677 325.747 54.0789 325.697C53.316 325.688 52.5539 325.691 51.791 325.696C47.9361 325.694 44.3043 325.248 40.771 323.602C40.4876 323.472 40.4876 323.472 40.1984 323.34C35.893 321.276 33.1556 318.022 31.4105 313.573C31.2657 313.207 31.2657 313.207 31.118 312.834C29.3534 307.786 29.4987 302.222 29.5291 296.948C29.5321 296.388 29.5337 295.827 29.5351 295.267C29.5766 280.627 30.5425 266.08 32.4164 251.56C32.4397 251.376 32.463 251.192 32.487 251.002C32.5847 250.26 32.701 249.591 32.9387 248.878C32.6639 248.989 32.3891 249.1 32.106 249.214C25.2479 251.952 18.3707 254.247 11.1812 251.325C7.59455 249.63 5.55407 246.969 4.15687 243.274C2.4554 238.196 4.5839 233.015 6.83229 228.495C10.7867 220.974 16.9871 213.866 23.432 208.376C23.9083 207.969 24.3784 207.557 24.8468 207.142C29.1113 203.374 33.6855 199.891 38.5423 196.918C38.3939 196.838 38.2455 196.759 38.0926 196.678C30.0687 192.38 22.6728 187.484 17.4016 179.852C17.2918 179.693 17.1819 179.534 17.0687 179.371C15.9203 177.7 14.8267 176.018 13.8357 174.249C12.6888 174.454 11.6263 174.712 10.5464 175.15C10.2817 175.257 10.2817 175.257 10.0116 175.366C9.65853 175.51 9.3072 175.66 8.95799 175.813C7.70921 176.324 6.97496 176.315 5.68511 175.777C4.90554 175.097 4.51022 174.697 4.2892 173.693C4.22525 172.668 4.35686 172.06 4.8414 171.145C6.4887 169.46 9.0505 168.831 11.2887 168.391C11.2116 168.125 11.2116 168.125 11.1331 167.855C10.8966 167.036 10.6628 166.217 10.429 165.398C10.3483 165.12 10.2675 164.842 10.1843 164.555C9.65872 162.705 9.26971 160.87 8.9963 158.966C8.70737 159.045 8.41843 159.124 8.12074 159.205C6.91687 159.47 5.71814 159.592 4.49117 159.683C4.30667 159.699 4.12217 159.716 3.93208 159.733C2.68604 159.812 1.89859 159.635 0.845685 158.966C0.0806242 158.074 -0.0427085 157.285 0.0109234 156.146C0.121412 155.379 0.33118 154.963 0.845685 154.382C2.33923 153.587 3.7427 153.44 5.41449 153.315C5.66156 153.294 5.90863 153.273 6.16318 153.252C6.76778 153.201 7.37246 153.153 7.97747 153.108C7.93651 152.829 7.89555 152.55 7.85335 152.263C7.6889 150.939 7.67681 149.624 7.67103 148.292C7.66885 147.893 7.66885 147.893 7.66663 147.486C7.66423 146.923 7.66256 146.36 7.66158 145.797C7.65913 144.957 7.65124 144.118 7.64317 143.278C7.6191 138.495 8.0772 133.82 9.13957 129.15C9.203 128.869 9.26643 128.589 9.33178 128.3C10.5916 122.972 12.4212 117.768 14.8546 112.865C14.9667 112.635 15.0789 112.405 15.1945 112.168C18.0032 106.447 21.4575 101.079 25.7821 96.3802C26.2891 95.8288 26.7818 95.2676 27.2715 94.7007C27.9429 93.9291 28.6386 93.1999 29.3728 92.488C29.0306 91.6842 28.5536 91.0728 27.9908 90.4099C23.9674 85.645 20.5995 80.1396 17.6563 74.6585C17.5318 74.4288 17.4074 74.199 17.2791 73.9623C9.82249 60.1488 4.34526 44.9368 2.37392 29.3207C2.3514 29.1441 2.32887 28.9674 2.30567 28.7855C2.14348 27.4392 2.07198 26.1104 2.05853 24.7549C2.056 24.5457 2.05347 24.3365 2.05086 24.1209C1.98235 16.9935 2.15746 9.81442 7.46806 4.35945C7.63978 4.17789 7.81149 3.99632 7.98842 3.80925C9.99557 1.85328 12.5974 0.680102 15.364 0.284148C15.6368 0.242286 15.6368 0.242286 15.9152 0.199577C24.444 -0.930566 32.6235 2.86931 38.9834 8.30218Z" fill="white"/>
<path d="M38.9834 8.30218C39.8787 9.08682 40.741 9.90174 41.5988 10.7271C41.7718 10.8841 41.9448 11.041 42.1231 11.2027C44.9755 13.8713 47.2404 17.3264 49.24 20.6607C49.3524 20.8468 49.4648 21.0329 49.5806 21.2247C58.8843 36.7414 65.1806 56.8966 65.0318 75.1679C65.3779 75.069 65.3779 75.069 65.731 74.968C68.0511 74.3242 70.3522 73.8511 72.7366 73.4964C72.9126 73.47 73.0885 73.4436 73.2697 73.4165C74.3483 73.2552 75.4275 73.0994 76.5073 72.9465C76.9634 72.8812 77.4191 72.8131 77.8748 72.7447C90.3229 70.9014 102.959 72.5315 115.209 74.9132C115.198 74.6249 115.187 74.3367 115.176 74.0396C115.179 72.0991 115.477 70.1788 115.734 68.259C115.762 68.0489 115.79 67.8389 115.819 67.6225C118.22 49.7156 122.7 29.9308 134.312 15.5665C134.427 15.4223 134.542 15.2781 134.661 15.1295C140.438 7.92823 148.187 1.88286 157.49 0.284148C163.063 -0.0541722 167.581 0.202945 172.024 3.83412C173.592 5.2954 174.583 7.0671 175.574 8.94418C175.706 9.19239 175.838 9.44061 175.973 9.69636C177.441 12.6927 177.899 15.9926 177.919 19.2986C177.92 19.5046 177.922 19.7106 177.924 19.9229C177.928 20.588 177.93 21.2531 177.931 21.9183C177.931 22.2603 177.931 22.2603 177.931 22.6092C177.927 26.3383 177.741 29.9699 177.103 33.6507C177.039 34.0263 177.039 34.0263 176.974 34.4094C173.349 55.2872 163.948 75.8097 150.613 92.2333C151.374 93.1423 152.132 94.0209 152.985 94.844C154.168 96.0085 155.18 97.3073 156.217 98.6009C156.385 98.8029 156.553 99.0048 156.726 99.2128C159.169 102.172 161.187 105.466 163.094 108.789C163.185 108.947 163.277 109.105 163.371 109.268C168.915 118.932 172.322 130.68 172.297 141.855C172.297 142.106 172.298 142.357 172.298 142.615C172.298 143.14 172.298 143.665 172.296 144.191C172.295 144.989 172.296 145.788 172.298 146.586C172.298 147.1 172.298 147.614 172.297 148.127C172.298 148.363 172.298 148.599 172.299 148.842C172.294 150.283 172.192 151.678 172.009 153.108C172.251 153.125 172.251 153.125 172.499 153.143C173.238 153.197 173.976 153.256 174.715 153.315C174.969 153.333 175.224 153.351 175.486 153.369C176.86 153.483 177.956 153.611 179.14 154.382C179.757 155.122 179.895 155.57 180 156.531C179.892 157.552 179.733 158.126 179.14 158.966C177.756 159.722 176.743 159.814 175.192 159.667C175.009 159.653 174.825 159.64 174.636 159.626C173.498 159.538 172.373 159.393 171.244 159.221C170.673 160.884 170.165 162.56 169.684 164.252C169.617 164.486 169.55 164.72 169.48 164.961C169.416 165.188 169.351 165.415 169.284 165.648C169.227 165.851 169.169 166.054 169.109 166.263C168.946 166.884 168.817 167.506 168.697 168.136C168.965 168.228 169.233 168.321 169.508 168.416C174.362 170.138 174.362 170.138 175.574 171.956C175.745 172.832 175.752 173.629 175.574 174.504C174.933 175.429 174.188 175.893 173.136 176.261C171.811 176.3 170.751 175.787 169.541 175.284C169.063 175.089 168.584 174.896 168.105 174.704C167.79 174.573 167.79 174.573 167.468 174.44C166.892 174.207 166.892 174.207 166.15 174.249C165.74 174.879 165.377 175.5 165.02 176.159C163.153 179.465 160.888 182.465 158.254 185.201C158.052 185.415 158.052 185.415 157.846 185.634C153.766 189.939 149.039 193.145 143.752 195.819C143.497 195.949 143.497 195.949 143.236 196.081C142.504 196.44 142.016 196.663 141.189 196.663C141.189 196.831 141.189 196.999 141.189 197.172C141.394 197.225 141.598 197.277 141.809 197.332C143.009 197.794 143.976 198.474 145.026 199.21C145.24 199.359 145.454 199.507 145.675 199.661C148.642 201.733 151.44 203.98 154.179 206.342C154.362 206.498 154.544 206.655 154.732 206.816C155.231 207.248 155.725 207.685 156.217 208.125C156.426 208.31 156.634 208.495 156.85 208.686C160.246 211.745 163.635 214.921 166.405 218.568C166.598 218.807 166.79 219.046 166.989 219.293C171.438 224.888 177.066 232.678 176.339 240.218C176.316 240.524 176.316 240.524 176.294 240.836C175.887 244.145 173.99 247.466 171.499 249.642C169.87 250.859 168.082 251.591 166.15 252.189C165.977 252.247 165.804 252.305 165.625 252.364C159.916 253.97 153.302 251.682 148.121 249.359C147.918 249.268 147.716 249.178 147.508 249.085C147.356 249.017 147.204 248.948 147.047 248.878C147.107 249.325 147.107 249.325 147.167 249.781C149.193 265.136 150.383 280.522 150.421 296.011C150.422 296.515 150.424 297.018 150.426 297.522C150.452 305.497 150.388 313.753 144.732 320.022C141.978 322.642 138.449 324.088 134.821 325.035C134.633 325.085 134.446 325.135 134.252 325.186C131.95 325.697 129.59 325.648 127.244 325.653C126.502 325.656 125.76 325.669 125.018 325.681C121.201 325.715 117.991 325.076 114.588 323.284C114.42 323.197 114.251 323.11 114.077 323.02C110.283 321.01 107.394 317.807 106.037 313.692C105.068 310.498 104.572 307.177 104.002 303.895C103.885 303.235 103.767 302.575 103.649 301.916C103.511 301.132 103.374 300.348 103.238 299.565C102.929 299.588 102.929 299.588 102.615 299.611C95.6982 300.118 88.8495 300.195 81.922 299.835C81.6012 299.819 81.6012 299.819 81.2738 299.802C80.6663 299.77 80.0589 299.736 79.4515 299.701C79.2702 299.691 79.0888 299.681 78.9019 299.671C78.0729 299.621 77.29 299.554 76.4936 299.31C76.476 299.524 76.476 299.524 76.458 299.743C75.7449 307.639 74.6308 316.236 68.328 321.682C67.4696 322.314 66.5988 322.829 65.6526 323.316C65.4305 323.432 65.4305 323.432 65.2039 323.551C61.5731 325.309 58.0677 325.747 54.0789 325.697C53.316 325.688 52.5539 325.691 51.791 325.696C47.9361 325.694 44.3043 325.248 40.771 323.602C40.4876 323.472 40.4876 323.472 40.1984 323.34C35.893 321.276 33.1556 318.022 31.4105 313.573C31.2657 313.207 31.2657 313.207 31.118 312.834C29.3534 307.786 29.4987 302.222 29.5291 296.948C29.5321 296.388 29.5337 295.827 29.5351 295.267C29.5766 280.627 30.5425 266.08 32.4164 251.56C32.4397 251.376 32.463 251.192 32.487 251.002C32.5847 250.26 32.701 249.591 32.9387 248.878C32.6639 248.989 32.3891 249.1 32.106 249.214C25.2479 251.952 18.3707 254.247 11.1812 251.325C7.59455 249.63 5.55407 246.969 4.15687 243.274C2.4554 238.196 4.5839 233.015 6.83229 228.495C10.7867 220.974 16.9871 213.866 23.432 208.376C23.9083 207.969 24.3784 207.557 24.8468 207.142C29.1113 203.374 33.6855 199.891 38.5423 196.918C38.3939 196.838 38.2455 196.759 38.0926 196.678C30.0687 192.38 22.6728 187.484 17.4016 179.852C17.2918 179.693 17.1819 179.534 17.0687 179.371C15.9203 177.7 14.8267 176.018 13.8357 174.249C12.6888 174.454 11.6263 174.712 10.5464 175.15C10.2817 175.257 10.2817 175.257 10.0116 175.366C9.65853 175.51 9.3072 175.66 8.95799 175.813C7.70921 176.324 6.97496 176.315 5.68511 175.777C4.90554 175.097 4.51022 174.697 4.2892 173.693C4.22525 172.668 4.35686 172.06 4.8414 171.145C6.4887 169.46 9.0505 168.831 11.2887 168.391C11.2116 168.125 11.2116 168.125 11.1331 167.855C10.8966 167.036 10.6628 166.217 10.429 165.398C10.3483 165.12 10.2675 164.842 10.1843 164.555C9.65872 162.705 9.26971 160.87 8.9963 158.966C8.70737 159.045 8.41843 159.124 8.12074 159.205C6.91687 159.47 5.71814 159.592 4.49117 159.683C4.30667 159.699 4.12217 159.716 3.93208 159.733C2.68604 159.812 1.89859 159.635 0.845685 158.966C0.0806242 158.074 -0.0427085 157.285 0.0109234 156.146C0.121412 155.379 0.33118 154.963 0.845685 154.382C2.33923 153.587 3.7427 153.44 5.41449 153.315C5.66156 153.294 5.90863 153.273 6.16318 153.252C6.76778 153.201 7.37246 153.153 7.97747 153.108C7.93651 152.829 7.89555 152.55 7.85335 152.263C7.6889 150.939 7.67681 149.624 7.67103 148.292C7.66885 147.893 7.66885 147.893 7.66663 147.486C7.66423 146.923 7.66256 146.36 7.66158 145.797C7.65913 144.957 7.65124 144.118 7.64317 143.278C7.6191 138.495 8.0772 133.82 9.13957 129.15C9.203 128.869 9.26643 128.589 9.33178 128.3C10.5916 122.972 12.4212 117.768 14.8546 112.865C14.9667 112.635 15.0789 112.405 15.1945 112.168C18.0032 106.447 21.4575 101.079 25.7821 96.3802C26.2891 95.8288 26.7818 95.2676 27.2715 94.7007C27.9429 93.9291 28.6386 93.1999 29.3728 92.488C29.0306 91.6842 28.5536 91.0728 27.9908 90.4099C23.9674 85.645 20.5995 80.1396 17.6563 74.6585C17.5318 74.4288 17.4074 74.199 17.2791 73.9623C9.82249 60.1488 4.34526 44.9368 2.37392 29.3207C2.3514 29.1441 2.32887 28.9674 2.30567 28.7855C2.14348 27.4392 2.07198 26.1104 2.05853 24.7549C2.056 24.5457 2.05347 24.3365 2.05086 24.1209C1.98235 16.9935 2.15746 9.81442 7.46806 4.35945C7.63978 4.17789 7.81149 3.99632 7.98842 3.80925C9.99557 1.85328 12.5974 0.680102 15.364 0.284148C15.6368 0.242286 15.6368 0.242286 15.9152 0.199577C24.444 -0.930566 32.6235 2.86931 38.9834 8.30218ZM11.622 10.546C9.20833 14.357 8.8877 18.5396 8.90078 22.953C8.90101 23.1394 8.90123 23.3258 8.90146 23.5178C8.92715 30.1085 10.1246 36.4578 11.7981 42.8202C11.8728 43.1052 11.9476 43.3902 12.0247 43.6839C13.9615 50.9164 16.7845 57.9473 19.9487 64.7249C20.0567 64.9568 20.1648 65.1887 20.2761 65.4276C23.099 71.4178 26.5639 77.1254 30.4394 82.4907C30.5783 82.6831 30.7172 82.8754 30.8603 83.0736C32.6894 85.5818 34.6541 87.9828 36.6983 90.3183C37.3923 91.1683 37.5312 91.7651 37.4916 92.8541C37.0425 94.6825 35.8005 95.779 34.451 96.9931C34.1068 97.3095 33.7629 97.6262 33.4193 97.9433C33.2506 98.0984 33.082 98.2535 32.9083 98.4133C22.3081 108.204 15.9149 122.857 14.3451 137.062C14.3213 137.263 14.2975 137.464 14.2729 137.672C14.0611 139.666 14.043 141.657 14.0432 143.66C14.0427 144.236 14.038 144.812 14.0332 145.388C14.0238 147.914 14.2254 150.356 14.5998 152.853C15.0465 152.868 15.0465 152.868 15.5023 152.882C15.8966 152.899 16.2909 152.916 16.6853 152.933C16.8811 152.939 17.077 152.945 17.2787 152.95C18.4487 153.006 19.2539 153.119 20.2034 153.872C20.8334 154.817 20.8519 155.578 20.7128 156.674C20.4007 157.392 20.1762 157.8 19.5189 158.226C18.7448 158.53 18.039 158.566 17.2106 158.616C16.9125 158.635 16.6143 158.654 16.3072 158.674C16.08 158.686 15.8528 158.699 15.6187 158.712C15.7022 160.438 16.032 162.031 16.4783 163.694C16.5316 163.901 16.5848 164.107 16.6397 164.32C16.7832 164.835 16.9625 165.341 17.1469 165.843C17.9274 166.104 18.3469 166.088 19.1527 166.035C20.1251 166.029 20.4045 166.064 21.2541 166.608C21.7829 167.454 21.9189 167.938 21.858 168.919C21.6437 169.751 21.1062 170.155 20.4581 170.683C20.201 170.935 19.9457 171.189 19.694 171.447C21.6538 175.057 23.9934 178.157 26.8258 181.126C27.0142 181.328 27.2027 181.53 27.3969 181.738C33.2094 187.795 41.3721 191.515 49.415 193.474C50.862 193.844 51.8969 194.118 52.8058 195.389C53.1851 196.454 53.1832 197.394 52.7422 198.43C51.8585 199.472 50.9611 199.589 49.6857 199.783C43.382 200.873 37.7685 204.88 32.9387 208.889C32.6113 209.154 32.2836 209.418 31.9557 209.682C29.4659 211.696 27.0857 213.791 24.7881 216.021C24.5763 216.226 24.3646 216.43 24.1464 216.641C20.1195 220.552 20.1195 220.552 16.6375 224.935C16.3997 225.276 16.3997 225.276 16.1571 225.623C11.1764 232.526 11.1764 232.526 10.0151 240.727C10.4898 242.472 11.1962 244.015 12.7761 244.998C13.0365 245.122 13.2968 245.247 13.5651 245.376C13.8248 245.503 14.0845 245.63 14.3521 245.762C17.9714 247.265 22.4761 246.202 25.9604 244.804C27.3166 244.235 28.6558 243.63 29.9937 243.02C30.2805 242.89 30.5673 242.76 30.8628 242.626C31.1378 242.498 31.4127 242.371 31.696 242.24C31.9414 242.126 32.1869 242.013 32.4397 241.896C32.8128 241.696 32.8128 241.696 33.1934 241.491C33.3428 241.417 33.4921 241.342 33.646 241.265C35.2362 240.335 35.5463 238.963 36.035 237.266C36.1244 236.976 36.2137 236.687 36.3058 236.389C36.5903 235.465 36.8664 234.538 37.1414 233.611C40.0621 223.895 40.0621 223.895 41.7306 222.689C42.5235 222.312 43.0215 222.28 43.8911 222.388C44.8543 222.826 45.2965 223.189 45.6741 224.171C45.8714 226.804 44.9291 229.262 44.0868 231.708C43.6983 232.838 43.3242 233.973 42.9489 235.108C42.8748 235.331 42.8007 235.554 42.7244 235.784C39.1819 246.507 37.663 257.69 36.8051 268.912C36.7568 269.542 36.7073 270.172 36.6578 270.802C36.0462 278.688 35.8157 286.562 35.7405 294.47C35.7383 294.679 35.7361 294.888 35.7339 295.104C35.2296 305.964 35.2296 305.964 39.7979 315.372C42.2265 317.721 45.2014 318.65 48.4758 319.177C48.6807 319.21 48.8856 319.244 49.0967 319.278C54.2729 319.943 60.2017 319.71 64.602 316.678C67.1493 314.63 68.0731 311.754 68.725 308.654C68.7782 308.407 68.8313 308.16 68.8861 307.906C69.3817 305.506 69.7155 303.087 70.016 300.657C70.7309 294.99 70.7309 294.99 71.7974 293.897C73.667 292.555 76.4648 293.154 78.6615 293.38C82.0738 293.727 85.4631 293.776 88.8907 293.759C89.8215 293.754 90.7522 293.753 91.6829 293.754C94.2986 293.75 96.9113 293.733 99.5236 293.592C99.7046 293.582 99.8855 293.572 100.072 293.562C100.978 293.505 101.841 293.383 102.728 293.197C103.45 293.14 104.17 293.138 104.893 293.133C105.083 293.128 105.274 293.123 105.469 293.117C106.624 293.109 107.433 293.16 108.332 293.961C109.2 295.469 109.355 297.097 109.59 298.8C109.677 299.395 109.764 299.989 109.852 300.583C109.896 300.882 109.94 301.18 109.985 301.488C110.844 309.805 110.844 309.805 115.19 316.536C120.098 319.771 126.396 320.17 132.07 319.08C132.306 319.028 132.541 318.976 132.784 318.922C133.038 318.873 133.291 318.823 133.553 318.772C137.08 318.007 139.838 316.402 141.914 313.403C143.57 310.585 144.03 307.399 144.028 304.173C144.029 303.887 144.029 303.887 144.03 303.595C144.033 302.968 144.033 302.34 144.034 301.713C144.034 301.265 144.035 300.818 144.036 300.371C144.038 299.429 144.038 298.488 144.038 297.547C144.038 296.603 144.04 295.659 144.043 294.716C144.076 285.811 143.769 276.922 142.964 268.051C142.946 267.848 142.927 267.645 142.909 267.437C141.829 255.757 140.067 244.448 136.345 233.306C136.248 233.014 136.248 233.014 136.149 232.717C135.837 231.777 135.52 230.84 135.192 229.906C134.438 227.709 133.672 225.335 134.678 223.105C135.624 222.436 136.475 222.294 137.623 222.388C139.336 223.206 139.978 225.395 140.587 227.079C141.056 228.414 141.505 229.755 141.953 231.096C142.108 231.555 142.263 232.015 142.419 232.474C142.495 232.699 142.571 232.923 142.649 233.155C142.8 233.602 142.952 234.05 143.104 234.496C143.445 235.501 143.772 236.503 144.051 237.526C144.616 239.615 144.616 239.615 146.075 241.141C146.478 241.355 146.887 241.557 147.302 241.746C147.609 241.907 147.609 241.907 147.922 242.071C148.563 242.404 149.211 242.714 149.865 243.02C150.213 243.183 150.213 243.183 150.568 243.35C152.584 244.286 154.618 245.119 156.726 245.821C156.927 245.889 157.127 245.957 157.334 246.026C160.283 246.846 163.905 246.609 166.66 245.312C168.458 244.174 169.312 242.703 169.971 240.727C170.559 234.117 165.838 227.835 161.824 222.977C160.975 222.003 160.104 221.048 159.223 220.102C158.533 219.361 157.861 218.606 157.188 217.851C156.312 216.886 155.41 216.01 154.413 215.172C153.898 214.724 153.428 214.25 152.953 213.76C151.979 212.773 150.933 211.908 149.85 211.043C149.191 210.504 148.559 209.945 147.928 209.374C143.03 205.003 136.613 200.545 129.95 199.719C128.928 199.583 128.499 199.495 127.626 198.908C127.076 198.023 126.925 197.451 126.925 196.408C127.239 195.409 127.561 194.979 128.39 194.339C129.442 193.803 130.569 193.547 131.708 193.256C138.806 191.435 145.33 188.245 150.868 183.418C151.116 183.204 151.365 182.989 151.621 182.769C155.186 179.636 158.041 175.876 160.292 171.702C160.292 171.534 160.292 171.366 160.292 171.192C160.008 171.045 159.725 170.898 159.432 170.747C158.884 170.428 158.539 170.212 158.143 169.712C157.837 168.523 157.81 167.703 158.43 166.624C159.745 165.805 161.075 165.999 162.584 166.098C162.836 165.25 163.085 164.401 163.333 163.551C163.403 163.313 163.474 163.075 163.547 162.83C163.947 161.452 164.234 160.14 164.367 158.712C164.035 158.706 164.035 158.706 163.697 158.701C161 158.589 161 158.589 160.101 157.836C159.306 156.931 159.173 156.373 159.182 155.156C159.335 154.285 159.876 153.89 160.547 153.363C161.387 152.943 162.328 153.011 163.253 152.965C163.457 152.954 163.661 152.943 163.872 152.932C164.377 152.905 164.881 152.879 165.386 152.853C168.246 137.326 163.343 120.233 154.731 107.292C151.773 103.033 148.472 99.0329 144.368 95.835C143.338 94.9457 142.546 94.0936 142.351 92.7268C142.558 90.8666 143.793 89.6245 145.026 88.2853C149.11 83.8393 152.477 78.6237 155.453 73.385C155.623 73.0856 155.623 73.0856 155.796 72.7802C161.425 62.804 165.853 52.1403 168.697 41.0372C168.757 40.8085 168.817 40.5798 168.879 40.3442C170.349 34.6798 171.084 28.9101 171.085 23.0645C171.086 22.8921 171.086 22.7198 171.087 22.5423C171.086 19.4805 170.878 16.44 169.875 13.5289C169.774 13.2242 169.672 12.9195 169.567 12.6056C168.634 10.3797 166.942 8.49636 164.721 7.5214C163.585 7.11095 162.544 7.02381 161.343 7.03388C161.133 7.03552 160.924 7.03716 160.709 7.03885C155.272 7.19687 150.599 9.94434 146.283 13.0195C146.072 13.1682 145.86 13.317 145.642 13.4702C130.731 24.4931 125.714 46.723 123.075 63.9869C122.372 68.683 121.858 73.3977 121.453 78.1289C121.433 78.3418 121.414 78.5547 121.393 78.7741C121.358 79.1542 121.326 79.5346 121.299 79.9153C121.188 81.0795 120.881 81.7329 120.048 82.5544C118.101 83.2036 116.377 82.5475 114.477 81.9972C108.915 80.4519 103.382 79.5043 97.6342 78.9885C97.2302 78.9517 97.2302 78.9517 96.8181 78.9141C86.6974 78.0569 76.3557 79.2131 66.56 81.7903C65.9595 81.9477 65.3591 82.1049 64.758 82.2599C64.28 82.3838 63.8032 82.5117 63.3264 82.64C62.1342 82.8795 61.1104 82.9907 59.9854 82.4907C59.1113 81.7915 58.9491 81.2344 58.7877 80.1248C58.7534 79.7598 58.7213 79.3946 58.691 79.0293C58.6529 78.6173 58.6148 78.2053 58.5767 77.7933C58.5574 77.5759 58.538 77.3585 58.5181 77.1345C56.799 58.023 53.136 37.688 41.8535 21.6795C41.7013 21.4631 41.7013 21.4631 41.5461 21.2424C40.2439 19.4094 38.8217 17.7012 37.2687 16.076C37.127 15.9238 36.9852 15.7716 36.8391 15.6149C35.5286 14.2476 34.1104 13.1664 32.5407 12.1121C32.2935 11.9455 32.0462 11.7789 31.7914 11.6073C29.86 10.3289 27.9773 9.25275 25.8069 8.43476C25.5598 8.3394 25.5598 8.3394 25.3077 8.24211C23.1527 7.43281 21.1073 7.04519 18.8025 7.01796C18.5956 7.0142 18.3887 7.01045 18.1755 7.00658C15.4606 7.05304 13.2235 8.37867 11.622 10.546Z" fill="black"/>
<path d="M105.042 219.084C112.192 225.259 115.824 234.923 116.695 244.25C117.106 249.602 117.31 255.32 115.791 260.501C115.721 260.752 115.721 260.752 115.65 261.008C114.643 264.564 112.737 267.501 110.186 270.104C110.011 270.285 109.836 270.466 109.656 270.653C103.741 276.4 95.2896 277.276 87.5295 277.137C85.8859 277.086 84.2885 276.897 82.67 276.594C82.4973 276.561 82.3246 276.529 82.1467 276.496C76.1706 275.345 70.7741 272.447 67.2153 267.263C62.0906 259.381 62.3876 248.139 64.1629 239.196C65.9267 231.013 70.0165 222.091 77.1048 217.349C77.3439 217.199 77.583 217.049 77.8294 216.894C77.9768 216.799 78.1243 216.705 78.2762 216.608C87.1555 210.982 97.1174 212.741 105.042 219.084Z" fill="#F4A99C"/>
<path d="M90.7571 208.889C91.2245 208.92 91.2245 208.92 91.7013 208.951C99.7649 209.622 106.752 213.347 111.987 219.48C116.255 224.636 119.143 230.805 120.876 237.241C120.966 237.566 120.966 237.566 121.057 237.898C122.109 242.005 122.47 246.17 122.44 250.398C122.436 251.093 122.44 251.788 122.445 252.484C122.45 256.184 122.15 259.896 120.908 263.412C120.844 263.598 120.779 263.784 120.713 263.975C118.202 270.926 113.249 276.516 106.603 279.769C97.2451 284.117 85.2388 284.342 75.5731 280.85C70.9929 279.116 66.7401 276.251 63.7582 272.311C63.5744 272.069 63.3905 271.827 63.2011 271.578C56.7592 262.699 56.573 251.904 58.1642 241.41C58.549 239 59.1697 236.674 59.9376 234.359C60.0292 234.08 60.0292 234.08 60.1227 233.796C60.9551 231.311 62.0485 228.978 63.267 226.661C63.4773 226.259 63.681 225.853 63.8836 225.447C67.4631 218.47 74.2176 212.57 81.6514 210.099C84.5752 209.269 87.7122 208.66 90.7571 208.889ZM73.1824 221.879C73.0005 222.061 72.8186 222.243 72.6312 222.431C68.1737 227.164 65.6387 233.486 64.204 239.74C64.1654 239.907 64.1269 240.074 64.0872 240.246C63.3795 243.557 63.1644 246.853 63.1824 250.228C63.1851 250.838 63.1824 251.448 63.1792 252.058C63.1726 258.917 64.8584 265.389 69.6642 270.464C75.6537 276.195 83.7771 277.312 91.7382 277.197C99.1922 277.015 106.097 274.572 111.326 269.151C112.257 268.075 112.986 266.927 113.681 265.688C113.817 265.45 113.953 265.212 114.094 264.966C115.147 263.007 115.777 260.985 116.228 258.811C116.296 258.493 116.296 258.493 116.366 258.169C116.811 255.867 116.817 253.601 116.801 251.266C116.8 251.062 116.799 250.858 116.798 250.649C116.785 247.74 116.737 244.872 116.228 242.001C116.196 241.822 116.165 241.644 116.132 241.46C114.959 235.044 112.601 228.674 108.332 223.662C108.02 223.284 108.02 223.284 107.701 222.898C105.955 220.847 103.935 219.305 101.71 217.804C101.487 217.649 101.264 217.494 101.034 217.334C91.9797 211.428 80.276 214.689 73.1824 221.879Z" fill="black"/>
<path d="M153.924 29.8299C154.701 30.3389 155.325 30.9408 155.962 31.6129C156.156 31.8073 156.351 32.0016 156.551 32.2019C158.837 35.8432 157.735 40.5922 156.867 44.5104C156.288 46.9666 155.515 49.3521 154.689 51.7347C154.62 51.9357 154.551 52.1367 154.48 52.3437C154.108 53.4301 153.727 54.5124 153.333 55.5911C153.171 56.0348 153.012 56.4795 152.854 56.9244C152.088 59.0079 151.127 60.961 150.114 62.9317C149.856 63.4374 149.604 63.9455 149.355 64.4551C146.331 70.623 142.911 76.8418 138.387 82.0448C138.192 82.2693 138.192 82.2693 137.993 82.4984C137.587 82.9609 137.177 83.4192 136.764 83.8755C136.639 84.0135 136.515 84.1515 136.387 84.2936C135.462 85.2884 134.683 86.0191 133.318 86.2395C132.065 86.2524 131.234 86.2514 130.125 85.6266C128.49 83.6728 128.04 82.2871 128.199 79.7524C128.334 78.4936 128.522 77.245 128.724 75.9955C128.766 75.7322 128.766 75.7322 128.809 75.4636C131.043 61.5289 135.289 40.9298 147.541 32.0268C149.459 30.6861 151.511 29.4018 153.924 29.8299Z" fill="#F4A99C"/>
<path d="M27.964 29.8968C28.1767 29.9589 28.3895 30.0209 28.6087 30.0849C28.8162 30.1443 29.0237 30.2037 29.2375 30.2649C35.6056 32.4716 39.225 39.2064 41.9898 44.8986C43.6309 48.364 44.9508 51.9275 46.1835 55.5555C46.2543 55.7603 46.3251 55.9651 46.398 56.1761C48.6434 62.7088 50.0111 69.4757 51.1256 76.2785C51.3069 77.3843 51.4963 78.4887 51.6867 79.593C52.0035 81.7049 51.9812 83.1022 50.7175 84.8786C49.9801 85.6464 49.3176 86.0612 48.2639 86.2487C46.6896 86.2796 45.6111 86.1989 44.4115 85.1353C36.7967 77.1857 31.275 66.6609 27.0805 56.5744C26.9406 56.2554 26.8003 55.9367 26.6596 55.6182C25.1767 52.2107 24.0644 48.6711 23.0052 45.1126C22.9472 44.9202 22.8892 44.7278 22.8294 44.5296C22.1888 42.3156 22.147 40.0645 22.0978 37.7738C22.0877 37.4819 22.0777 37.19 22.0674 36.8892C22.0604 34.4415 22.8334 33.041 24.3304 31.1644C25.531 30.0348 26.31 29.5624 27.964 29.8968Z" fill="#F4A99C"/>
<path d="M147.688 148.051C150.257 149.969 152.059 152.234 152.578 155.445C152.963 159.254 152.509 162.18 150.118 165.232C148.393 167.248 146.104 168.598 143.481 169.155C139.854 169.34 137.01 169.174 134.057 166.862C133.903 166.746 133.749 166.63 133.59 166.51C131.819 164.98 130.261 162.067 129.982 159.731C129.73 156.191 130.362 153.413 132.529 150.561C132.805 150.167 132.805 150.167 133.086 149.765C136.757 145.557 143.166 145.134 147.688 148.051Z" fill="#F4A99C"/>
<path d="M44.5916 148.062C47.1392 149.779 48.87 152.106 49.6111 155.091C50.192 158.531 49.7932 161.832 47.8231 164.777C46.0079 167.092 43.6915 168.521 40.8346 169.155C36.7745 169.4 33.9055 168.804 30.6712 166.221C28.9382 164.662 27.5276 162.05 27.2794 159.715C27.0824 155.908 27.5725 153.03 30.0126 149.975C33.9537 145.7 39.6897 145.158 44.5916 148.062Z" fill="#F4A99C"/>
<path d="M90.1204 144.894C90.3945 144.892 90.6687 144.89 90.9512 144.888C94.7109 144.897 94.7109 144.897 96.1547 145.826C97.0136 146.861 97.3253 147.628 97.2243 148.983C96.9189 150.7 95.9795 152.43 94.5787 153.494C93.822 153.977 93.1398 154.352 92.2854 154.636C92.1407 157.107 92.4402 159.55 94.0683 161.513C95.287 162.732 96.5787 162.967 98.2391 163.121C100.064 162.964 101.837 162.473 103.238 161.259C103.73 160.607 104.189 159.943 104.635 159.258C105.021 158.712 105.021 158.712 105.53 158.457C106.651 158.328 107.196 158.391 108.189 158.95C108.947 159.857 109.057 160.279 108.973 161.429C108.523 163.463 106.833 165.092 105.194 166.267C101.981 168.312 98.4559 168.63 94.7339 167.987C93.0842 167.473 91.971 166.495 90.7561 165.29C90.3 164.767 90.3 164.767 89.7383 164.825C89.5807 165.045 89.4231 165.266 89.2607 165.493C88.1382 166.912 86.1369 167.771 84.3895 168.136C80.4261 168.454 77.1353 168.13 73.9465 165.589C72.6207 164.428 71.3188 163.281 71.0661 161.455C71.012 160.449 71.0056 159.916 71.6223 159.094C72.5819 158.416 73.2051 158.347 74.3604 158.481C75.3881 158.873 75.7759 159.729 76.3354 160.635C77.1248 161.828 78.2231 162.318 79.55 162.787C81.5438 163.134 83.5866 163.284 85.4083 162.278C86.869 161.012 87.3812 159.29 87.7007 157.438C87.745 157.191 87.7893 156.944 87.835 156.69C87.9111 155.922 87.928 155.375 87.7007 154.636C87.1051 154.113 86.5104 153.794 85.8013 153.442C84.1817 152.606 83.4242 150.958 82.8612 149.287C82.6963 148.236 82.7934 147.879 83.3229 146.947C85.098 144.665 87.3778 144.874 90.1204 144.894Z" fill="black"/>
<path d="M128.239 134.873C130.332 136.528 131.163 138.711 131.488 141.311C131.539 143.284 131.027 145.229 129.727 146.74C128.042 148.51 126.445 149.298 123.996 149.383C121.736 149.301 120.165 148.666 118.525 147.084C116.896 145.19 116.537 143.252 116.632 140.794C116.899 138.436 117.755 136.606 119.539 135.024C122.068 133.204 125.631 133.172 128.239 134.873Z" fill="black"/>
<path d="M59.9377 134.769C61.7743 135.878 62.5863 137.876 63.2489 139.864C63.4589 142.78 63.1135 144.959 61.2381 147.246C59.5429 148.869 57.4264 149.383 55.15 149.358C53.357 149.203 51.7005 148.463 50.3961 147.214C48.644 145.097 48.4503 142.737 48.6696 140.1C48.9248 138.042 49.98 136.368 51.5324 135.024C54.1982 133.125 57.088 133.375 59.9377 134.769Z" fill="black"/>
<path d="M77.5181 121.975C79.939 124.106 81.8196 127.436 82.1759 130.686C82.5657 137.071 80.0814 142.465 75.9282 147.232C75.5088 147.694 75.0816 148.148 74.6518 148.6C74.4604 148.823 74.27 149.047 74.0808 149.272C73.3381 150.13 72.5223 150.918 71.7126 151.712C71.1687 152.249 70.6433 152.79 70.1474 153.372C69.3895 154.242 68.584 155.062 67.7716 155.881C67.6133 156.041 67.4551 156.201 67.292 156.366C66.9592 156.701 66.6262 157.036 66.2929 157.37C65.868 157.797 65.4452 158.226 65.0228 158.656C64.6157 159.069 64.2061 159.479 63.7969 159.89C63.6466 160.043 63.4964 160.197 63.3415 160.355C62.3709 161.322 61.6369 161.921 60.2532 162.126C58.8971 161.939 57.8429 161.045 56.7529 160.267C55.6173 159.485 54.4386 158.768 53.2709 158.035C52.2986 157.423 51.3303 156.806 50.3621 156.188C49.5267 155.655 48.6898 155.124 47.8489 154.6C44.8055 152.697 41.8372 150.668 39.1814 148.242C39.0782 148.148 38.9751 148.054 38.8688 147.957C35.7046 145.03 33.2126 141.278 33.0066 136.852C33.0005 136.454 32.9987 136.056 33.001 135.657C33.002 135.447 33.003 135.236 33.0041 135.019C33.0748 131.552 34.3652 128.626 36.6734 126.028C36.7745 125.914 36.8757 125.8 36.9799 125.683C39.0947 123.444 42.1005 121.997 45.1757 121.865C49.3453 121.77 52.711 122.88 55.8418 125.67C56.139 125.91 56.4373 126.15 56.7375 126.386C56.8523 126.22 56.967 126.053 57.0853 125.882C59.4523 122.481 62.661 119.871 66.8444 119.12C70.7187 118.647 74.4216 119.569 77.5181 121.975Z" fill="#FF6060"/>
<path d="M118.363 121.729C119.659 122.733 120.714 123.863 121.638 125.221C121.958 125.688 122.304 126.127 122.662 126.566C122.75 126.468 122.837 126.37 122.927 126.27C125.213 123.838 128.5 121.972 131.886 121.854C135.643 121.816 138.617 122.594 141.472 125.133C141.65 125.285 141.65 125.285 141.831 125.441C144.157 127.584 145.78 130.915 145.985 134.069C145.999 134.614 146 135.157 145.996 135.702C145.997 135.884 145.999 136.066 146 136.254C145.988 140.797 143.685 144.497 140.633 147.705C137.929 150.323 134.628 152.44 131.462 154.449C130.814 154.862 130.17 155.281 129.526 155.699C129.27 155.865 129.014 156.03 128.757 156.196C128.318 156.48 127.878 156.765 127.439 157.05C126.451 157.688 125.459 158.319 124.461 158.94C124.27 159.059 124.079 159.178 123.882 159.301C123.502 159.537 123.122 159.773 122.741 160.009C121.984 160.479 121.237 160.946 120.522 161.479C120.032 161.818 119.762 161.987 119.18 162.047C119.059 162.064 118.937 162.081 118.811 162.099C117.539 161.922 116.601 161.095 115.735 160.209C115.624 160.099 115.514 159.989 115.401 159.876C115.041 159.517 114.683 159.154 114.326 158.792C114.074 158.539 113.822 158.287 113.57 158.034C113.043 157.506 112.517 156.976 111.992 156.446C111.322 155.769 110.65 155.094 109.978 154.42C109.333 153.773 108.689 153.125 108.045 152.477C107.923 152.355 107.802 152.233 107.677 152.107C106.485 150.908 105.303 149.713 104.211 148.421C103.961 148.152 103.711 147.883 103.46 147.615C101.621 145.566 100.078 143.354 98.8363 140.897C98.7774 140.782 98.7185 140.667 98.6578 140.548C96.8009 136.839 96.2045 132.553 97.4031 128.536C98.0289 126.731 98.8797 125.185 100.09 123.7C100.176 123.585 100.262 123.47 100.351 123.351C104.689 117.791 113.009 118.053 118.363 121.729Z" fill="#FF6060"/>
<path d="M118.363 121.729C119.659 122.733 120.714 123.863 121.638 125.221C121.958 125.688 122.304 126.127 122.662 126.566C122.75 126.468 122.837 126.37 122.927 126.27C125.213 123.838 128.5 121.972 131.886 121.854C135.643 121.816 138.617 122.594 141.472 125.133C141.65 125.285 141.65 125.285 141.831 125.441C144.157 127.584 145.78 130.915 145.985 134.069C145.999 134.614 146 135.157 145.996 135.702C145.997 135.884 145.999 136.066 146 136.254C145.988 140.797 143.685 144.497 140.633 147.705C137.929 150.323 134.628 152.44 131.462 154.449C130.814 154.862 130.17 155.281 129.526 155.699C129.27 155.865 129.014 156.03 128.757 156.196C128.318 156.48 127.878 156.765 127.439 157.05C126.451 157.688 125.459 158.319 124.461 158.94C124.27 159.059 124.079 159.178 123.882 159.301C123.502 159.537 123.122 159.773 122.741 160.009C121.984 160.479 121.237 160.946 120.522 161.479C120.032 161.818 119.762 161.987 119.18 162.047C119.059 162.064 118.937 162.081 118.811 162.099C117.539 161.922 116.601 161.095 115.735 160.209C115.624 160.099 115.514 159.989 115.401 159.876C115.041 159.517 114.683 159.154 114.326 158.792C114.074 158.539 113.822 158.287 113.57 158.034C113.043 157.506 112.517 156.976 111.992 156.446C111.322 155.769 110.65 155.094 109.978 154.42C109.333 153.773 108.689 153.125 108.045 152.477C107.923 152.355 107.802 152.233 107.677 152.107C106.485 150.908 105.303 149.713 104.211 148.421C103.961 148.152 103.711 147.883 103.46 147.615C101.621 145.566 100.078 143.354 98.8363 140.897C98.7774 140.782 98.7185 140.667 98.6578 140.548C96.8009 136.839 96.2045 132.553 97.4031 128.536C98.0289 126.731 98.8797 125.185 100.09 123.7C100.176 123.585 100.262 123.47 100.351 123.351C104.689 117.791 113.009 118.053 118.363 121.729ZM104.569 125.849C104.455 125.939 104.34 126.028 104.222 126.121C102.932 127.259 101.82 129.402 101.664 131.113C101.406 136.972 103.968 141.001 107.793 145.197C108.106 145.522 108.423 145.839 108.748 146.151C109.044 146.447 109.312 146.754 109.582 147.073C110.374 147.983 111.224 148.833 112.078 149.684C112.35 149.955 112.621 150.227 112.892 150.499C113.746 151.353 114.609 152.184 115.526 152.969C116.1 153.474 116.63 154.022 117.165 154.568C117.38 154.788 117.596 155.008 117.812 155.227C117.952 155.37 117.952 155.37 118.094 155.515C118.519 155.912 118.779 156.125 119.371 156.121C120.219 155.875 120.861 155.421 121.588 154.927C121.908 154.713 122.228 154.5 122.548 154.288C122.714 154.177 122.88 154.066 123.05 153.952C123.88 153.403 124.721 152.872 125.562 152.34C125.894 152.129 126.227 151.918 126.559 151.707C126.718 151.606 126.877 151.504 127.041 151.4C135.94 146.197 135.94 146.197 141.17 137.751C141.668 135.119 141.077 132.428 139.58 130.227C138.276 128.515 136.606 127.218 134.486 126.745C132.65 126.634 130.959 126.588 129.291 127.462C129.052 127.586 129.052 127.586 128.809 127.713C126.755 128.906 125.197 130.547 124.132 132.659C123.674 133.522 123.228 133.803 122.304 134.09C121.487 134.221 120.704 134.139 119.975 133.732C119.592 133.157 119.569 132.932 119.505 132.265C119.145 129.962 117.881 127.975 116.213 126.387C116.095 126.269 115.977 126.152 115.856 126.031C113.929 124.217 111.731 123.768 109.169 123.823C107.337 123.912 105.974 124.721 104.569 125.849Z" fill="black"/>
<path d="M77.5181 121.975C79.939 124.106 81.8196 127.436 82.1759 130.686C82.5657 137.071 80.0814 142.465 75.9282 147.232C75.5089 147.694 75.0816 148.148 74.6518 148.6C74.4604 148.823 74.27 149.047 74.0808 149.272C73.3381 150.13 72.5223 150.918 71.7126 151.712C71.1687 152.249 70.6433 152.79 70.1474 153.372C69.3895 154.242 68.584 155.062 67.7716 155.881C67.6133 156.041 67.4551 156.201 67.292 156.366C66.9592 156.701 66.6262 157.036 66.2929 157.37C65.868 157.797 65.4452 158.226 65.0228 158.656C64.6157 159.069 64.2061 159.479 63.7969 159.89C63.6466 160.043 63.4964 160.197 63.3415 160.355C62.3709 161.322 61.6369 161.921 60.2532 162.126C58.8971 161.939 57.8429 161.045 56.7529 160.267C55.6173 159.485 54.4386 158.768 53.2709 158.035C52.2986 157.423 51.3303 156.806 50.3621 156.188C49.5267 155.655 48.6898 155.124 47.8489 154.6C44.8055 152.697 41.8372 150.668 39.1814 148.242C39.0782 148.148 38.9751 148.054 38.8688 147.957C35.7046 145.03 33.2126 141.278 33.0066 136.852C33.0005 136.454 32.9987 136.056 33.001 135.657C33.002 135.447 33.003 135.236 33.0041 135.019C33.0748 131.552 34.3652 128.626 36.6734 126.028C36.7745 125.914 36.8757 125.8 36.9799 125.683C39.0947 123.444 42.1005 121.997 45.1757 121.865C49.3453 121.77 52.711 122.88 55.8418 125.67C56.139 125.91 56.4373 126.15 56.7375 126.386C56.8523 126.22 56.967 126.053 57.0853 125.882C59.4523 122.481 62.661 119.871 66.8444 119.12C70.7187 118.647 74.4216 119.569 77.5181 121.975ZM61.9319 127.323C60.6622 128.875 59.8064 130.62 59.6654 132.63C59.5965 133.06 59.4709 133.359 59.2455 133.731C58.4623 134.221 57.4528 134.22 56.5583 134.09C55.729 133.726 55.4767 133.296 55.1028 132.489C53.6988 129.748 51.3326 127.865 48.4682 126.777C46.3138 126.149 44.1297 126.689 42.2045 127.741C39.9939 129.183 38.4552 131.167 37.849 133.754C37.8071 134.044 37.7737 134.335 37.7483 134.627C37.7337 134.788 37.7192 134.949 37.7042 135.114C37.5712 138.111 38.706 140.943 40.7041 143.148C44.2576 146.873 49.0399 149.494 53.3636 152.22C54.2412 152.775 55.1157 153.335 55.9903 153.895C56.2813 154.081 56.5725 154.267 56.8637 154.453C57.0419 154.567 57.2201 154.681 57.4037 154.799C57.5702 154.905 57.7367 155.011 57.9082 155.12C58.2673 155.354 58.6135 155.597 58.96 155.849C59.4995 156.169 59.7043 156.212 60.3204 156.124C60.7992 155.796 60.7992 155.796 61.2791 155.31C61.3765 155.217 61.474 155.123 61.5745 155.027C61.9357 154.679 62.2926 154.327 62.6492 153.975C62.7984 153.828 62.9476 153.681 63.1013 153.53C64.2586 152.389 65.4083 151.241 66.5561 150.09C66.9317 149.714 67.3079 149.339 67.6842 148.964C68.0509 148.598 68.4172 148.231 68.7834 147.864C69.0391 147.609 69.2951 147.353 69.5511 147.098C73.7079 142.926 77.3909 138.316 77.3954 132.19C77.3608 129.714 76.4583 127.752 74.8198 125.894C73.2019 124.378 70.8686 123.598 68.6799 123.655C65.898 123.912 63.7715 125.279 61.9319 127.323Z" fill="black"/>
<path d="M35.6427 76.0042C37.263 75.9516 38.7971 76.3935 40.0422 77.4496C40.0743 77.4768 40.0743 77.4768 40.107 77.5046C41.1079 78.3642 41.7296 79.5332 42.0377 80.8047C42.0494 80.8529 42.0494 80.8529 42.0614 80.902C42.1827 81.4339 42.217 81.9521 42.2105 82.4947C42.21 82.5537 42.2097 82.6127 42.2094 82.6718C42.2085 82.8139 42.2071 82.956 42.2054 83.0981C42.253 83.0797 42.3005 83.0613 42.3494 83.0424C43.1359 82.7424 43.8934 82.5606 44.7417 82.5673C44.7926 82.5676 44.8434 82.5679 44.8957 82.5682C45.8228 82.5788 46.6216 82.7719 47.4533 83.1782C47.4999 83.2009 47.5466 83.2237 47.5946 83.2471C48.7328 83.832 49.7242 84.7959 50.2976 85.9424C50.3109 85.9688 50.3243 85.9953 50.338 86.0225C50.9641 87.2844 51.1657 88.7709 50.8584 90.1487C50.8513 90.1805 50.8442 90.2122 50.8369 90.245C50.568 91.4128 50.0176 92.4594 49.1759 93.3134C49.1457 93.3441 49.1155 93.3749 49.0843 93.4065C48.3017 94.1543 47.0993 94.8216 46.0111 94.9158C46.0562 94.9727 46.0562 94.9727 46.1022 95.0307C46.8355 95.9711 47.332 97.0929 47.4934 98.2809C47.4978 98.3131 47.5023 98.3454 47.5068 98.3787C47.6356 99.5186 47.439 100.681 46.9726 101.726C46.9526 101.772 46.9325 101.817 46.9119 101.864C46.6313 102.462 46.2307 102.978 45.7708 103.449C45.7354 103.487 45.7354 103.487 45.6993 103.526C44.9415 104.331 43.8625 104.798 42.8063 105.051C42.7626 105.062 42.7626 105.062 42.718 105.073C42.312 105.168 41.9119 105.18 41.4964 105.181C41.4055 105.181 41.3147 105.182 41.2238 105.184C40.6708 105.188 40.1387 105.109 39.6091 104.946C39.5596 104.931 39.5596 104.931 39.5092 104.915C38.7203 104.663 37.9843 104.273 37.3582 103.729C37.325 103.7 37.2918 103.671 37.2576 103.642C37.1562 103.552 37.0566 103.461 36.9576 103.368C36.9279 103.341 36.8983 103.314 36.8678 103.287C36.5226 102.959 36.2569 102.562 35.9961 102.167C35.9743 102.203 35.9525 102.238 35.9299 102.275C35.7367 102.587 35.5325 102.865 35.2751 103.128C35.242 103.162 35.209 103.196 35.1749 103.231C35.1419 103.263 35.1088 103.295 35.0748 103.328C35.0504 103.354 35.026 103.38 35.0009 103.406C33.9247 104.525 32.3744 105.156 30.8331 105.187C30.2635 105.194 29.7018 105.187 29.1459 105.051C29.0966 105.04 29.0472 105.029 28.9964 105.017C27.9273 104.756 27.0834 104.253 26.2615 103.529C26.2332 103.504 26.2048 103.479 26.1756 103.453C25.151 102.491 24.482 100.951 24.4123 99.5535C24.3901 97.7971 24.7756 96.2693 25.9411 94.9158C25.8898 94.9142 25.8386 94.9125 25.7858 94.9108C24.7874 94.8069 23.8028 94.1927 23.0567 93.5538C23.0205 93.5229 22.9843 93.4921 22.947 93.4604C22.6866 93.2316 22.4648 92.9886 22.2555 92.7125C22.2393 92.6912 22.223 92.67 22.2063 92.648C21.4837 91.6965 21.0208 90.5067 21.0027 89.3027C21.0022 89.272 21.0017 89.2413 21.0012 89.2097C20.9884 88.2349 21.0738 87.3314 21.4543 86.4231C21.4656 86.3957 21.4769 86.3683 21.4886 86.34C21.776 85.6541 22.1954 85.0475 22.6962 84.5002C22.7297 84.4634 22.7632 84.4266 22.7978 84.3886C23.2769 83.8863 23.8413 83.4911 24.4588 83.1782C24.4841 83.1653 24.5094 83.1524 24.5355 83.1391C26.0575 82.3728 27.7093 82.4289 29.2989 82.9481C29.4361 82.995 29.5714 83.0462 29.7067 83.0981C29.7058 83.058 29.7058 83.058 29.7048 83.0171C29.6666 81.1328 30.1346 79.2953 31.4635 77.9006C31.5187 77.8436 31.5742 77.7868 31.6296 77.7301C31.6536 77.7036 31.6776 77.6771 31.7024 77.6498C32.0869 77.2344 32.6149 76.9474 33.1118 76.6885C33.1364 76.6756 33.1611 76.6628 33.1864 76.6495C33.9476 76.2585 34.7881 76.0366 35.6427 76.0042Z" fill="#F4A99C"/>
<path d="M35.6427 76.0042C37.263 75.9516 38.7971 76.3935 40.0422 77.4496C40.0743 77.4768 40.0743 77.4768 40.107 77.5046C41.1079 78.3642 41.7296 79.5332 42.0377 80.8047C42.0494 80.8529 42.0494 80.8529 42.0614 80.902C42.1827 81.4339 42.217 81.9521 42.2105 82.4947C42.21 82.5537 42.2097 82.6127 42.2094 82.6718C42.2085 82.8139 42.2071 82.956 42.2054 83.0981C42.253 83.0797 42.3005 83.0613 42.3494 83.0424C43.1359 82.7424 43.8934 82.5606 44.7417 82.5673C44.7926 82.5676 44.8434 82.5679 44.8957 82.5682C45.8228 82.5788 46.6216 82.7719 47.4533 83.1782C47.4999 83.2009 47.5466 83.2237 47.5946 83.2471C48.7328 83.832 49.7242 84.7959 50.2976 85.9424C50.3109 85.9688 50.3243 85.9953 50.338 86.0225C50.9641 87.2844 51.1657 88.7709 50.8584 90.1487C50.8513 90.1805 50.8442 90.2122 50.8369 90.245C50.568 91.4128 50.0176 92.4594 49.1759 93.3134C49.1457 93.3441 49.1155 93.3749 49.0843 93.4065C48.3017 94.1543 47.0993 94.8216 46.0111 94.9158C46.0562 94.9727 46.0562 94.9727 46.1022 95.0307C46.8355 95.9711 47.332 97.0929 47.4934 98.2809C47.4978 98.3131 47.5023 98.3454 47.5068 98.3787C47.6356 99.5186 47.439 100.681 46.9726 101.726C46.9526 101.772 46.9325 101.817 46.9119 101.864C46.6313 102.462 46.2307 102.978 45.7708 103.449C45.7354 103.487 45.7354 103.487 45.6993 103.526C44.9415 104.331 43.8625 104.798 42.8063 105.051C42.7626 105.062 42.7626 105.062 42.718 105.073C42.312 105.168 41.9119 105.18 41.4964 105.181C41.4055 105.181 41.3147 105.182 41.2238 105.184C40.6708 105.188 40.1387 105.109 39.6091 104.946C39.5596 104.931 39.5596 104.931 39.5092 104.915C38.7203 104.663 37.9843 104.273 37.3582 103.729C37.325 103.7 37.2918 103.671 37.2576 103.642C37.1562 103.552 37.0566 103.461 36.9576 103.368C36.9279 103.341 36.8983 103.314 36.8678 103.287C36.5226 102.959 36.2569 102.562 35.9961 102.167C35.9743 102.203 35.9525 102.238 35.9299 102.275C35.7367 102.587 35.5325 102.865 35.2751 103.128C35.242 103.162 35.209 103.196 35.1749 103.231C35.1419 103.263 35.1088 103.295 35.0748 103.328C35.0504 103.354 35.026 103.38 35.0009 103.406C33.9247 104.525 32.3744 105.156 30.8331 105.187C30.2635 105.194 29.7018 105.187 29.1459 105.051C29.0966 105.04 29.0472 105.029 28.9964 105.017C27.9273 104.756 27.0834 104.253 26.2615 103.529C26.2332 103.504 26.2048 103.479 26.1756 103.453C25.151 102.491 24.482 100.951 24.4123 99.5535C24.3901 97.7971 24.7756 96.2693 25.9411 94.9158C25.8898 94.9142 25.8386 94.9125 25.7858 94.9108C24.7874 94.8069 23.8028 94.1927 23.0567 93.5538C23.0205 93.5229 22.9843 93.4921 22.947 93.4604C22.6866 93.2316 22.4648 92.9886 22.2555 92.7125C22.2393 92.6912 22.223 92.67 22.2063 92.648C21.4837 91.6965 21.0208 90.5067 21.0027 89.3027C21.0022 89.272 21.0017 89.2413 21.0012 89.2097C20.9884 88.2349 21.0738 87.3314 21.4543 86.4231C21.4656 86.3957 21.4769 86.3683 21.4886 86.34C21.776 85.6541 22.1954 85.0475 22.6962 84.5002C22.7297 84.4634 22.7632 84.4266 22.7978 84.3886C23.2769 83.8863 23.8413 83.4911 24.4588 83.1782C24.4841 83.1653 24.5094 83.1524 24.5355 83.1391C26.0575 82.3728 27.7093 82.4289 29.2989 82.9481C29.4361 82.995 29.5714 83.0462 29.7067 83.0981C29.7058 83.058 29.7058 83.058 29.7048 83.0171C29.6666 81.1328 30.1346 79.2953 31.4635 77.9006C31.5187 77.8436 31.5742 77.7868 31.6296 77.7301C31.6536 77.7036 31.6776 77.6771 31.7024 77.6498C32.0869 77.2344 32.6149 76.9474 33.1118 76.6885C33.1364 76.6756 33.1611 76.6628 33.1864 76.6495C33.9476 76.2585 34.7881 76.0366 35.6427 76.0042ZM32.7112 78.6514C32.6615 78.6962 32.6615 78.6962 32.6108 78.7419C31.7251 79.5831 31.1548 80.8593 31.1045 82.0816C31.0833 83.0592 31.2235 83.9528 31.648 84.8415C31.7428 85.0481 31.7848 85.2338 31.7498 85.4616C31.655 85.5986 31.5484 85.6576 31.3892 85.702C31.1755 85.7302 31.0544 85.6911 30.8821 85.574C30.7663 85.4847 30.656 85.3895 30.5455 85.2939C29.3718 84.2811 27.9303 83.8478 26.3902 83.9494C25.2157 84.079 24.2135 84.7735 23.4706 85.6618C22.7621 86.5531 22.3553 87.6618 22.3657 88.8017C22.3662 88.8676 22.3662 88.8676 22.3666 88.9348C22.3846 90.2889 22.9159 91.4668 23.8504 92.4371C24.6724 93.2375 25.7174 93.6949 26.8655 93.6865C26.8951 93.6861 26.9247 93.6856 26.9552 93.6852C27.0453 93.684 27.1353 93.6836 27.2254 93.6833C27.5488 93.6816 27.8679 93.6684 28.1901 93.6379C28.3589 93.632 28.4447 93.6605 28.585 93.7541C28.7115 93.8928 28.7336 94.0387 28.7266 94.2215C28.6418 94.5914 28.1643 94.8484 27.8715 95.046C26.8984 95.721 26.2136 96.7748 25.9085 97.9103C25.9002 97.9411 25.8919 97.9718 25.8834 98.0035C25.5972 99.1309 25.7626 100.471 26.3456 101.482C26.5519 101.82 26.7864 102.123 27.0627 102.407C27.0876 102.434 27.1125 102.462 27.1382 102.49C27.854 103.254 29.0505 103.76 30.0869 103.817C30.7852 103.832 31.4405 103.836 32.1103 103.609C32.1376 103.6 32.1649 103.591 32.193 103.582C32.782 103.382 33.3353 103.069 33.7928 102.647C33.8239 102.619 33.8239 102.619 33.8555 102.59C34.741 101.768 35.1833 100.757 35.4746 99.5992C35.5362 99.4235 35.6234 99.2847 35.7683 99.1672C35.9429 99.0941 36.0862 99.0976 36.264 99.1597C36.5126 99.3814 36.5693 99.7764 36.6496 100.086C36.7593 100.492 36.8904 100.869 37.0778 101.245C37.1067 101.305 37.1067 101.305 37.1361 101.365C37.6782 102.419 38.6396 103.201 39.755 103.582C41.0835 103.996 42.4131 103.934 43.6598 103.295C44.7521 102.712 45.5646 101.746 45.9459 100.567C46.2362 99.608 46.2686 98.6419 45.9711 97.68C45.9621 97.6508 45.9531 97.6216 45.9438 97.5916C45.6371 96.6321 45.0163 95.7997 44.2485 95.1562C44.225 95.1346 44.2014 95.1131 44.1772 95.0909C44.0527 94.9773 43.9262 94.873 43.7873 94.7775C43.7623 94.7602 43.7373 94.7429 43.7115 94.7251C43.6616 94.6911 43.6114 94.6575 43.5609 94.6245C43.3993 94.5144 43.3139 94.4189 43.247 94.2348C43.2337 94.108 43.2496 93.996 43.2871 93.8743C43.3751 93.7659 43.4431 93.6961 43.5675 93.6339C43.6383 93.63 43.7093 93.6287 43.7803 93.6289C43.8182 93.6288 43.856 93.6287 43.895 93.6286C44.0081 93.6339 44.0081 93.6339 44.0992 93.6538C44.3227 93.6951 44.5526 93.6838 44.7793 93.684C44.8064 93.684 44.8334 93.684 44.8613 93.6841C46.2391 93.6819 47.3653 93.1597 48.3346 92.1917C49.1616 91.2929 49.6358 90.0791 49.6291 88.8592C49.6288 88.8156 49.6286 88.772 49.6284 88.727C49.6095 87.4619 49.0864 86.2905 48.2145 85.3815C48.1841 85.3486 48.1537 85.3157 48.1224 85.2818C47.3574 84.478 46.2839 83.9628 45.1696 83.9273C45.0879 83.9265 45.0062 83.9264 44.9245 83.9268C44.8592 83.9272 44.8592 83.9272 44.7926 83.9275C43.5356 83.9462 42.2625 84.4479 41.3642 85.341C41.341 85.3651 41.3179 85.3892 41.2941 85.4141C41.1301 85.5819 40.9807 85.6901 40.7408 85.7195C40.5855 85.6998 40.4921 85.6701 40.3627 85.5818C40.2453 85.419 40.2345 85.3068 40.2628 85.1108C40.2985 84.9482 40.3667 84.8 40.4328 84.6479C40.5947 84.259 40.7135 83.87 40.8033 83.4586C40.8132 83.4139 40.8231 83.3691 40.8332 83.323C40.9667 82.5749 40.922 81.7858 40.7232 81.055C40.7159 81.028 40.7086 81.0009 40.7011 80.973C40.3601 79.7519 39.532 78.6534 38.4398 78.0105C36.5878 76.9838 34.2835 77.2359 32.7112 78.6514Z" fill="black"/>
<path d="M39.5749 87.1129C39.6794 87.2014 39.7809 87.2924 39.882 87.3847C39.9114 87.4114 39.9409 87.438 39.9713 87.4655C40.9524 88.3976 41.5338 89.8156 41.5757 91.1571C41.5987 92.4255 41.3503 93.591 40.603 94.6356C40.5867 94.6584 40.5704 94.6812 40.5536 94.7047C39.7072 95.8693 38.4857 96.7637 37.0452 96.9916C36.7499 97.0342 36.4546 97.0675 36.1564 97.0793C36.0796 97.0824 36.0796 97.0824 36.0013 97.0857C34.4538 97.1285 33.0705 96.47 31.9501 95.4368C31.0035 94.5183 30.4085 93.1247 30.381 91.8087C30.3774 91.3426 30.3849 90.8893 30.4679 90.4293C30.4726 90.4029 30.4773 90.3765 30.4822 90.3492C30.7383 88.98 31.5329 87.7638 32.6744 86.968C34.7589 85.5625 37.578 85.4759 39.5749 87.1129Z" fill="#F8E482"/>
<path d="M39.5749 87.1129C39.6794 87.2014 39.7809 87.2924 39.882 87.3847C39.9114 87.4114 39.9409 87.438 39.9713 87.4655C40.9524 88.3976 41.5338 89.8156 41.5757 91.1571C41.5987 92.4255 41.3503 93.591 40.603 94.6356C40.5867 94.6584 40.5704 94.6812 40.5536 94.7047C39.7072 95.8693 38.4857 96.7637 37.0452 96.9916C36.7499 97.0342 36.4546 97.0675 36.1564 97.0793C36.0796 97.0824 36.0796 97.0824 36.0013 97.0857C34.4538 97.1285 33.0705 96.47 31.9501 95.4368C31.0035 94.5183 30.4085 93.1247 30.381 91.8087C30.3774 91.3426 30.3849 90.8893 30.4679 90.4293C30.4726 90.4029 30.4773 90.3765 30.4822 90.3492C30.7383 88.98 31.5329 87.7638 32.6744 86.968C34.7589 85.5625 37.578 85.4759 39.5749 87.1129ZM33.1919 88.3061C33.1724 88.3237 33.1529 88.3412 33.1328 88.3593C32.3274 89.0925 31.807 90.148 31.7447 91.2384C31.6947 92.4315 32.0809 93.5071 32.884 94.4002C33.565 95.1347 34.4896 95.6486 35.4994 95.7287C35.6444 95.7332 35.7886 95.7339 35.9335 95.7322C35.9845 95.7318 36.0354 95.7314 36.0879 95.731C36.4452 95.7251 36.7747 95.7036 37.1178 95.597C37.1429 95.5893 37.1679 95.5815 37.1938 95.5736C37.8553 95.3629 38.4119 95.0245 38.9205 94.5555C38.9471 94.5322 38.9736 94.5089 39.001 94.4849C39.6709 93.8664 40.1558 92.8278 40.2087 91.9244C40.252 90.6453 39.95 89.5253 39.0745 88.5663C38.3654 87.814 37.4059 87.3043 36.3602 87.2596C35.1503 87.2291 34.106 87.4776 33.1919 88.3061Z" fill="black"/>
</svg>
