<svg width="350" height="350" viewBox="0 0 350 350" fill="none" xmlns="http://www.w3.org/2000/svg">
<path d="M127.735 37.6103C128.556 38.3296 129.346 39.0766 130.132 39.8332C130.291 39.9771 130.449 40.1209 130.613 40.2691C133.228 42.7154 135.304 45.8825 137.137 48.939C137.24 49.1096 137.343 49.2802 137.449 49.456C145.977 63.6796 151.749 82.1552 151.612 98.9039C151.93 98.8132 151.93 98.8132 152.253 98.7207C154.38 98.1305 156.49 97.6969 158.675 97.3717C158.837 97.3475 158.998 97.3233 159.164 97.2984C160.153 97.1506 161.142 97.0077 162.132 96.8676C162.55 96.8078 162.968 96.7453 163.385 96.6827C174.796 94.993 186.379 96.4872 197.608 98.6704C197.598 98.4062 197.588 98.1419 197.578 97.8697C197.581 96.0908 197.854 94.3305 198.09 92.5707C198.115 92.3782 198.141 92.1856 198.167 91.9873C200.369 75.5726 204.475 57.4366 215.119 44.2693C215.225 44.1371 215.33 44.0049 215.439 43.8687C220.735 37.2675 227.838 31.726 236.366 30.2605C241.475 29.9503 245.616 30.186 249.689 33.5146C251.126 34.8541 252.035 36.4782 252.943 38.1988C253.064 38.4264 253.185 38.6539 253.309 38.8883C254.654 41.635 255.074 44.6599 255.092 47.6904C255.094 47.8792 255.095 48.0681 255.097 48.2627C255.101 48.8724 255.103 49.482 255.103 50.0918C255.103 50.4053 255.103 50.4053 255.103 50.7251C255.099 54.1434 254.929 57.4724 254.344 60.8465C254.286 61.1907 254.286 61.1907 254.227 61.5419C250.903 80.68 242.286 99.4922 230.062 114.547C230.759 115.38 231.454 116.186 232.236 116.94C233.321 118.008 234.249 119.198 235.199 120.384C235.353 120.569 235.507 120.754 235.666 120.945C237.905 123.658 239.755 126.678 241.503 129.723C241.587 129.868 241.67 130.013 241.757 130.162C246.839 139.021 249.962 149.79 249.939 160.034C249.939 160.264 249.939 160.494 249.94 160.73C249.94 161.212 249.939 161.693 249.938 162.175C249.937 162.907 249.938 163.639 249.94 164.371C249.94 164.842 249.939 165.313 249.939 165.783C249.939 166 249.94 166.216 249.94 166.438C249.936 167.76 249.842 169.038 249.675 170.349C249.897 170.365 249.897 170.365 250.124 170.381C250.801 170.431 251.478 170.485 252.155 170.539C252.389 170.555 252.622 170.572 252.862 170.589C254.121 170.693 255.127 170.81 256.212 171.517C256.777 172.195 256.904 172.605 257 173.487C256.901 174.423 256.755 174.949 256.212 175.719C254.943 176.412 254.014 176.496 252.593 176.361C252.425 176.349 252.257 176.337 252.083 176.324C251.04 176.243 250.009 176.111 248.974 175.953C248.45 177.477 247.984 179.013 247.544 180.564C247.482 180.779 247.421 180.993 247.357 181.214C247.298 181.422 247.238 181.63 247.177 181.844C247.124 182.03 247.071 182.216 247.017 182.408C246.868 182.977 246.749 183.547 246.639 184.125C246.885 184.209 247.13 184.294 247.383 184.382C251.832 185.96 251.832 185.96 252.943 187.627C253.099 188.429 253.106 189.16 252.943 189.962C252.355 190.809 251.672 191.236 250.708 191.572C249.493 191.608 248.522 191.138 247.413 190.677C246.974 190.498 246.536 190.321 246.097 190.145C245.807 190.025 245.807 190.025 245.512 189.903C244.984 189.69 244.984 189.69 244.304 189.728C243.928 190.305 243.596 190.875 243.268 191.479C241.557 194.509 239.481 197.26 237.067 199.768C236.881 199.964 236.881 199.964 236.692 200.164C232.952 204.111 228.619 207.049 223.773 209.501C223.539 209.62 223.539 209.62 223.3 209.741C222.629 210.07 222.181 210.274 221.423 210.274C221.423 210.429 221.423 210.583 221.423 210.741C221.611 210.79 221.798 210.838 221.992 210.887C223.092 211.311 223.978 211.935 224.94 212.609C225.137 212.746 225.333 212.882 225.535 213.022C228.255 214.922 230.82 216.981 233.331 219.147C233.498 219.29 233.666 219.434 233.838 219.582C234.295 219.978 234.748 220.378 235.199 220.781C235.39 220.951 235.582 221.121 235.779 221.295C238.892 224.099 241.999 227.011 244.538 230.354C244.715 230.573 244.891 230.793 245.073 231.019C249.151 236.147 254.311 243.288 253.644 250.2C253.623 250.48 253.623 250.48 253.603 250.766C253.23 253.799 251.491 256.844 249.208 258.838C247.714 259.954 246.076 260.625 244.304 261.173C244.146 261.226 243.987 261.279 243.823 261.334C238.589 262.806 232.527 260.708 227.777 258.579C227.592 258.496 227.406 258.413 227.215 258.328C227.076 258.265 226.937 258.203 226.793 258.138C226.848 258.548 226.848 258.548 226.903 258.966C228.76 273.042 229.851 287.145 229.886 301.343C229.887 301.805 229.889 302.267 229.891 302.729C229.914 310.039 229.855 317.607 224.671 323.353C222.146 325.756 218.911 327.08 215.586 327.949C215.414 327.994 215.242 328.04 215.064 328.087C212.954 328.555 210.791 328.511 208.64 328.515C207.96 328.518 207.28 328.529 206.6 328.541C203.101 328.572 200.158 327.987 197.039 326.344C196.885 326.264 196.73 326.184 196.571 326.102C193.093 324.259 190.445 321.323 189.201 317.551C188.313 314.623 187.857 311.579 187.335 308.57C187.228 307.965 187.12 307.361 187.012 306.756C186.885 306.038 186.76 305.319 186.635 304.601C186.352 304.622 186.352 304.622 186.064 304.644C179.723 305.108 173.445 305.179 167.095 304.849C166.801 304.834 166.801 304.834 166.501 304.818C165.944 304.789 165.387 304.758 164.831 304.726C164.664 304.717 164.498 304.708 164.327 304.698C163.567 304.653 162.849 304.591 162.119 304.367C162.103 304.564 162.103 304.564 162.086 304.764C161.433 312.003 160.412 319.883 154.634 324.875C153.847 325.454 153.049 325.926 152.182 326.373C151.978 326.48 151.978 326.48 151.77 326.589C148.442 328.2 145.229 328.602 141.572 328.555C140.873 328.547 140.174 328.55 139.475 328.555C135.941 328.553 132.612 328.144 129.373 326.636C129.114 326.516 129.114 326.516 128.849 326.395C124.902 324.503 122.393 321.52 120.793 317.442C120.66 317.107 120.66 317.107 120.525 316.765C118.907 312.137 119.041 307.037 119.068 302.202C119.071 301.689 119.073 301.175 119.074 300.661C119.112 287.241 119.997 273.907 121.715 260.597C121.736 260.428 121.758 260.259 121.78 260.086C121.869 259.405 121.976 258.792 122.194 258.138C121.942 258.24 121.69 258.342 121.43 258.446C115.144 260.956 108.84 263.06 102.249 260.382C98.9617 258.828 97.0912 256.388 95.8105 253.001C94.2508 248.347 96.2019 243.598 98.2629 239.454C101.888 232.56 107.572 226.044 113.479 221.011C113.916 220.638 114.347 220.261 114.776 219.88C118.685 216.426 122.878 213.233 127.33 210.508C127.194 210.435 127.058 210.363 126.918 210.288C119.563 206.349 112.783 201.86 107.951 194.865C107.851 194.719 107.75 194.573 107.646 194.423C106.594 192.892 105.591 191.35 104.683 189.728C103.631 189.916 102.657 190.153 101.668 190.554C101.425 190.652 101.425 190.652 101.177 190.752C100.854 190.884 100.532 191.021 100.211 191.162C99.0668 191.63 98.3937 191.622 97.2114 191.129C96.4967 190.506 96.1344 190.139 95.9318 189.218C95.8731 188.279 95.9938 187.721 96.4379 186.883C97.948 185.338 100.296 184.762 102.348 184.358C102.277 184.115 102.277 184.115 102.205 183.867C101.989 183.116 101.774 182.366 101.56 181.615C101.486 181.36 101.412 181.105 101.336 180.842C100.854 179.146 100.497 177.465 100.247 175.719C99.9818 175.791 99.7169 175.864 99.444 175.938C98.3405 176.181 97.2416 176.293 96.1169 176.376C95.9478 176.391 95.7787 176.406 95.6044 176.422C94.4622 176.494 93.7404 176.332 92.7752 175.719C92.0739 174.901 91.9609 174.178 92.01 173.134C92.1113 172.43 92.3036 172.049 92.7752 171.517C94.1443 170.788 95.4308 170.653 96.9633 170.539C97.1898 170.52 97.4162 170.501 97.6496 170.481C98.2038 170.435 98.7581 170.391 99.3127 170.349C99.2751 170.093 99.2376 169.838 99.1989 169.574C99.0482 168.361 99.0371 167.155 99.0318 165.934C99.0298 165.568 99.0298 165.568 99.0277 165.195C99.0255 164.679 99.024 164.164 99.0231 163.648C99.0209 162.878 99.0136 162.108 99.0062 161.338C98.9842 156.953 99.4041 152.668 100.378 148.387C100.436 148.13 100.494 147.873 100.554 147.608C101.709 142.725 103.386 137.954 105.617 133.459C105.719 133.248 105.822 133.038 105.928 132.821C108.503 127.576 111.669 122.655 115.634 118.349C116.098 117.843 116.55 117.329 116.999 116.809C117.614 116.102 118.252 115.433 118.925 114.781C118.611 114.044 118.174 113.483 117.658 112.876C113.97 108.508 110.883 103.461 108.185 98.437C108.071 98.2264 107.957 98.0157 107.839 97.7988C101.004 85.1364 95.9832 71.1921 94.1761 56.8773C94.1554 56.7154 94.1348 56.5535 94.1135 56.3867C93.9649 55.1526 93.8993 53.9345 93.887 52.692C93.8847 52.5002 93.8823 52.3084 93.88 52.1108C93.8172 45.5773 93.9777 38.9966 98.8457 33.9962C99.0031 33.8297 99.1605 33.6633 99.3227 33.4918C101.163 31.6988 103.548 30.6234 106.084 30.2605C106.334 30.2221 106.334 30.2221 106.589 30.1829C114.407 29.147 121.905 32.6302 127.735 37.6103Z" fill="white"/>
<path d="M127.735 37.6103C128.556 38.3296 129.346 39.0766 130.132 39.8332C130.291 39.9771 130.449 40.1209 130.613 40.2691C133.228 42.7154 135.304 45.8825 137.137 48.939C137.24 49.1096 137.343 49.2802 137.449 49.456C145.977 63.6796 151.749 82.1552 151.612 98.9039C151.93 98.8132 151.93 98.8132 152.253 98.7207C154.38 98.1305 156.49 97.6969 158.675 97.3717C158.837 97.3475 158.998 97.3233 159.164 97.2984C160.153 97.1506 161.142 97.0077 162.132 96.8676C162.55 96.8078 162.968 96.7453 163.385 96.6827C174.796 94.993 186.379 96.4872 197.608 98.6704C197.598 98.4062 197.588 98.1419 197.578 97.8697C197.581 96.0908 197.854 94.3305 198.09 92.5707C198.115 92.3782 198.141 92.1856 198.167 91.9873C200.369 75.5726 204.475 57.4366 215.119 44.2693C215.225 44.1371 215.33 44.0049 215.439 43.8687C220.735 37.2675 227.838 31.726 236.366 30.2605C241.475 29.9503 245.616 30.186 249.689 33.5146C251.126 34.8541 252.035 36.4782 252.943 38.1988C253.064 38.4264 253.185 38.6539 253.309 38.8883C254.654 41.635 255.074 44.6599 255.092 47.6904C255.094 47.8792 255.095 48.0681 255.097 48.2627C255.101 48.8724 255.103 49.482 255.103 50.0918C255.103 50.4053 255.103 50.4053 255.103 50.7251C255.099 54.1434 254.929 57.4724 254.344 60.8465C254.286 61.1907 254.286 61.1907 254.227 61.5419C250.903 80.68 242.286 99.4922 230.062 114.547C230.759 115.38 231.454 116.186 232.236 116.94C233.321 118.008 234.249 119.198 235.199 120.384C235.353 120.569 235.507 120.754 235.666 120.945C237.905 123.658 239.755 126.678 241.503 129.723C241.587 129.868 241.67 130.013 241.757 130.162C246.839 139.021 249.962 149.79 249.939 160.034C249.939 160.264 249.939 160.494 249.94 160.73C249.94 161.212 249.939 161.693 249.938 162.175C249.937 162.907 249.938 163.639 249.94 164.371C249.94 164.842 249.939 165.313 249.939 165.783C249.939 166 249.94 166.216 249.94 166.438C249.936 167.76 249.842 169.038 249.675 170.349C249.897 170.365 249.897 170.365 250.124 170.381C250.801 170.431 251.478 170.485 252.155 170.539C252.389 170.555 252.622 170.572 252.862 170.589C254.121 170.693 255.127 170.81 256.212 171.517C256.777 172.195 256.904 172.605 257 173.487C256.901 174.423 256.755 174.949 256.212 175.719C254.943 176.412 254.014 176.496 252.593 176.361C252.425 176.349 252.257 176.337 252.083 176.324C251.04 176.243 250.009 176.111 248.974 175.953C248.45 177.477 247.984 179.013 247.544 180.564C247.482 180.779 247.421 180.993 247.357 181.214C247.298 181.422 247.238 181.63 247.177 181.844C247.124 182.03 247.071 182.216 247.017 182.408C246.868 182.977 246.749 183.547 246.639 184.125C246.885 184.209 247.13 184.294 247.383 184.382C251.832 185.96 251.832 185.96 252.943 187.627C253.099 188.429 253.106 189.16 252.943 189.962C252.355 190.809 251.672 191.236 250.708 191.572C249.493 191.608 248.522 191.138 247.413 190.677C246.974 190.498 246.536 190.321 246.097 190.145C245.807 190.025 245.807 190.025 245.512 189.903C244.984 189.69 244.984 189.69 244.304 189.728C243.928 190.305 243.596 190.875 243.268 191.479C241.557 194.509 239.481 197.26 237.067 199.768C236.881 199.964 236.881 199.964 236.692 200.164C232.952 204.111 228.619 207.049 223.773 209.501C223.539 209.62 223.539 209.62 223.3 209.741C222.629 210.07 222.181 210.274 221.423 210.274C221.423 210.429 221.423 210.583 221.423 210.741C221.611 210.79 221.798 210.838 221.992 210.887C223.092 211.311 223.978 211.935 224.94 212.609C225.137 212.746 225.333 212.882 225.535 213.022C228.255 214.922 230.82 216.981 233.331 219.147C233.498 219.29 233.666 219.434 233.838 219.582C234.295 219.978 234.748 220.378 235.199 220.781C235.39 220.951 235.582 221.121 235.779 221.295C238.892 224.099 241.999 227.011 244.538 230.354C244.715 230.573 244.891 230.793 245.073 231.019C249.151 236.147 254.311 243.288 253.644 250.2C253.623 250.48 253.623 250.48 253.603 250.766C253.23 253.799 251.491 256.844 249.208 258.838C247.714 259.954 246.076 260.625 244.304 261.173C244.146 261.226 243.987 261.279 243.823 261.334C238.589 262.806 232.527 260.708 227.777 258.579C227.592 258.496 227.406 258.413 227.215 258.328C227.076 258.265 226.937 258.203 226.793 258.138C226.848 258.548 226.848 258.548 226.903 258.966C228.76 273.042 229.851 287.145 229.886 301.343C229.887 301.805 229.889 302.267 229.891 302.729C229.914 310.039 229.855 317.607 224.671 323.353C222.146 325.756 218.911 327.08 215.586 327.949C215.414 327.994 215.242 328.04 215.064 328.087C212.954 328.555 210.791 328.511 208.64 328.515C207.96 328.518 207.28 328.529 206.6 328.541C203.101 328.572 200.158 327.987 197.039 326.344C196.885 326.264 196.73 326.184 196.571 326.102C193.093 324.259 190.445 321.323 189.201 317.551C188.313 314.623 187.857 311.579 187.335 308.57C187.228 307.965 187.12 307.361 187.012 306.756C186.885 306.038 186.76 305.319 186.635 304.601C186.352 304.622 186.352 304.622 186.064 304.644C179.723 305.108 173.445 305.179 167.095 304.849C166.801 304.834 166.801 304.834 166.501 304.818C165.944 304.789 165.387 304.758 164.831 304.726C164.664 304.717 164.498 304.708 164.327 304.698C163.567 304.653 162.849 304.591 162.119 304.367C162.103 304.564 162.103 304.564 162.086 304.764C161.433 312.003 160.412 319.883 154.634 324.875C153.847 325.454 153.049 325.926 152.182 326.373C151.978 326.48 151.978 326.48 151.77 326.589C148.442 328.2 145.229 328.602 141.572 328.555C140.873 328.547 140.174 328.55 139.475 328.555C135.941 328.553 132.612 328.144 129.373 326.636C129.114 326.516 129.114 326.516 128.849 326.395C124.902 324.503 122.393 321.52 120.793 317.442C120.66 317.107 120.66 317.107 120.525 316.765C118.907 312.137 119.041 307.037 119.068 302.202C119.071 301.689 119.073 301.175 119.074 300.661C119.112 287.241 119.997 273.907 121.715 260.597C121.736 260.428 121.758 260.259 121.78 260.086C121.869 259.405 121.976 258.792 122.194 258.138C121.942 258.24 121.69 258.342 121.43 258.446C115.144 260.956 108.84 263.06 102.249 260.382C98.9617 258.828 97.0912 256.388 95.8105 253.001C94.2508 248.347 96.2019 243.598 98.2629 239.454C101.888 232.56 107.572 226.044 113.479 221.011C113.916 220.638 114.347 220.261 114.776 219.88C118.685 216.426 122.878 213.233 127.33 210.508C127.194 210.435 127.058 210.363 126.918 210.288C119.563 206.349 112.783 201.86 107.951 194.865C107.851 194.719 107.75 194.573 107.646 194.423C106.594 192.892 105.591 191.35 104.683 189.728C103.631 189.916 102.657 190.153 101.668 190.554C101.425 190.652 101.425 190.652 101.177 190.752C100.854 190.884 100.532 191.021 100.211 191.162C99.0668 191.63 98.3937 191.622 97.2114 191.129C96.4967 190.506 96.1344 190.139 95.9318 189.218C95.8731 188.279 95.9938 187.721 96.4379 186.883C97.948 185.338 100.296 184.762 102.348 184.358C102.277 184.115 102.277 184.115 102.205 183.867C101.989 183.116 101.774 182.366 101.56 181.615C101.486 181.36 101.412 181.105 101.336 180.842C100.854 179.146 100.497 177.465 100.247 175.719C99.9818 175.791 99.7169 175.864 99.444 175.938C98.3405 176.181 97.2416 176.293 96.1169 176.376C95.9478 176.391 95.7787 176.406 95.6044 176.422C94.4622 176.494 93.7404 176.332 92.7752 175.719C92.0739 174.901 91.9609 174.178 92.01 173.134C92.1113 172.43 92.3036 172.049 92.7752 171.517C94.1443 170.788 95.4308 170.653 96.9633 170.539C97.1898 170.52 97.4162 170.501 97.6496 170.481C98.2038 170.435 98.7581 170.391 99.3127 170.349C99.2751 170.093 99.2376 169.838 99.1989 169.574C99.0482 168.361 99.0371 167.155 99.0318 165.934C99.0298 165.568 99.0298 165.568 99.0277 165.195C99.0255 164.679 99.024 164.164 99.0231 163.648C99.0209 162.878 99.0136 162.108 99.0062 161.338C98.9842 156.953 99.4041 152.668 100.378 148.387C100.436 148.13 100.494 147.873 100.554 147.608C101.709 142.725 103.386 137.954 105.617 133.459C105.719 133.248 105.822 133.038 105.928 132.821C108.503 127.576 111.669 122.655 115.634 118.349C116.098 117.843 116.55 117.329 116.999 116.809C117.614 116.102 118.252 115.433 118.925 114.781C118.611 114.044 118.174 113.483 117.658 112.876C113.97 108.508 110.883 103.461 108.185 98.437C108.071 98.2264 107.957 98.0157 107.839 97.7988C101.004 85.1364 95.9832 71.1921 94.1761 56.8773C94.1554 56.7154 94.1348 56.5535 94.1135 56.3867C93.9649 55.1526 93.8993 53.9345 93.887 52.692C93.8847 52.5002 93.8823 52.3084 93.88 52.1108C93.8172 45.5773 93.9777 38.9966 98.8457 33.9962C99.0031 33.8297 99.1605 33.6633 99.3227 33.4918C101.163 31.6988 103.548 30.6234 106.084 30.2605C106.334 30.2221 106.334 30.2221 106.589 30.1829C114.407 29.147 121.905 32.6302 127.735 37.6103ZM102.653 39.6672C100.441 43.1606 100.147 46.9947 100.159 51.0403C100.159 51.2111 100.159 51.3819 100.16 51.558C100.183 57.5994 101.281 63.4197 102.815 69.2518C102.883 69.5131 102.952 69.7744 103.023 70.0436C104.798 76.6734 107.386 83.1184 110.286 89.3312C110.385 89.5438 110.484 89.7563 110.586 89.9753C113.174 95.4663 116.35 100.698 119.903 105.617C120.03 105.793 120.157 105.969 120.289 106.151C121.965 108.45 123.766 110.651 125.64 112.792C126.276 113.571 126.404 114.118 126.367 115.116C125.956 116.792 124.817 117.797 123.58 118.91C123.265 119.2 122.949 119.491 122.634 119.781C122.48 119.924 122.325 120.066 122.166 120.212C112.449 129.187 106.589 142.619 105.15 155.64C105.128 155.824 105.106 156.009 105.084 156.199C104.889 158.027 104.873 159.852 104.873 161.688C104.872 162.216 104.868 162.744 104.864 163.272C104.855 165.588 105.04 167.826 105.383 170.116C105.793 170.129 105.793 170.129 106.21 170.142C106.572 170.157 106.933 170.173 107.295 170.189C107.474 170.194 107.654 170.199 107.839 170.205C108.911 170.255 109.649 170.36 110.52 171.05C111.097 171.916 111.114 172.614 110.987 173.618C110.701 174.276 110.495 174.65 109.892 175.041C109.183 175.319 108.536 175.353 107.776 175.398C107.503 175.416 107.23 175.433 106.948 175.451C106.74 175.463 106.532 175.474 106.317 175.486C106.394 177.068 106.696 178.529 107.105 180.053C107.154 180.242 107.203 180.431 107.253 180.626C107.385 181.099 107.549 181.562 107.718 182.023C108.433 182.262 108.818 182.248 109.557 182.198C110.448 182.193 110.704 182.225 111.483 182.724C111.968 183.499 112.092 183.943 112.036 184.842C111.84 185.605 111.347 185.976 110.753 186.459C110.518 186.691 110.284 186.924 110.053 187.16C111.849 190.469 113.994 193.311 116.59 196.032C116.763 196.217 116.936 196.402 117.114 196.593C122.442 202.146 129.924 205.556 137.297 207.351C138.623 207.69 139.572 207.941 140.405 209.107C140.753 210.083 140.751 210.944 140.347 211.894C139.537 212.849 138.714 212.956 137.545 213.135C131.767 214.134 126.621 217.807 122.194 221.482C121.894 221.724 121.593 221.966 121.293 222.208C119.01 224.054 116.829 225.975 114.722 228.019C114.528 228.207 114.334 228.395 114.134 228.588C110.443 232.172 110.443 232.172 107.251 236.191C107.033 236.503 107.033 236.503 106.811 236.821C102.245 243.149 102.245 243.149 101.181 250.667C101.616 252.266 102.263 253.681 103.711 254.581C103.95 254.695 104.189 254.81 104.435 254.928C104.673 255.044 104.911 255.161 105.156 255.282C108.474 256.659 112.603 255.685 115.797 254.403C117.04 253.882 118.268 253.327 119.494 252.768C119.757 252.649 120.02 252.53 120.291 252.407C120.543 252.29 120.795 252.173 121.055 252.053C121.28 251.949 121.505 251.845 121.736 251.738C122.078 251.555 122.078 251.555 122.427 251.367C122.564 251.299 122.701 251.23 122.842 251.16C124.3 250.307 124.584 249.049 125.032 247.494C125.114 247.228 125.196 246.963 125.28 246.69C125.541 245.843 125.794 244.994 126.046 244.144C128.724 235.237 128.724 235.237 130.253 234.132C130.98 233.786 131.436 233.756 132.234 233.856C133.116 234.257 133.522 234.59 133.868 235.49C134.049 237.904 133.185 240.157 132.413 242.399C132.057 243.435 131.714 244.475 131.37 245.515C131.302 245.72 131.234 245.925 131.164 246.136C127.917 255.965 126.524 266.216 125.738 276.503C125.694 277.08 125.648 277.658 125.603 278.235C125.042 285.464 124.831 292.682 124.762 299.931C124.76 300.123 124.758 300.314 124.756 300.512C124.294 310.467 124.294 310.467 128.481 319.091C130.708 321.244 133.435 322.095 136.436 322.579C136.624 322.61 136.812 322.64 137.005 322.672C141.75 323.281 147.185 323.067 151.218 320.288C153.554 318.411 154.4 315.774 154.998 312.933C155.047 312.707 155.095 312.48 155.146 312.247C155.6 310.047 155.906 307.83 156.181 305.602C156.837 300.407 156.837 300.407 157.814 299.406C159.528 298.175 162.093 298.724 164.106 298.931C167.234 299.249 170.341 299.295 173.483 299.279C174.336 299.274 175.189 299.274 176.043 299.274C178.44 299.271 180.835 299.256 183.23 299.126C183.396 299.117 183.562 299.108 183.733 299.099C184.564 299.046 185.354 298.935 186.168 298.764C186.829 298.712 187.489 298.71 188.152 298.705C188.327 298.701 188.501 298.696 188.68 298.691C189.738 298.683 190.48 298.73 191.304 299.464C192.1 300.847 192.242 302.339 192.457 303.9C192.537 304.445 192.617 304.99 192.698 305.535C192.738 305.808 192.778 306.082 192.819 306.364C193.607 313.988 193.607 313.988 197.591 320.158C202.09 323.124 207.863 323.489 213.065 322.49C213.28 322.443 213.496 322.395 213.718 322.345C213.951 322.3 214.184 322.254 214.423 322.208C217.656 321.506 220.185 320.035 222.088 317.286C223.605 314.703 224.027 311.782 224.026 308.825C224.027 308.563 224.027 308.563 224.028 308.296C224.03 307.72 224.031 307.145 224.031 306.57C224.032 306.16 224.032 305.75 224.033 305.34C224.035 304.477 224.035 303.614 224.035 302.751C224.035 301.886 224.036 301.021 224.04 300.156C224.07 291.994 223.788 283.845 223.05 275.713C223.034 275.527 223.017 275.342 223 275.15C222.01 264.444 220.394 254.077 216.983 243.864C216.894 243.596 216.894 243.596 216.803 243.324C216.517 242.463 216.226 241.604 215.926 240.747C215.235 238.733 214.533 236.557 215.455 234.513C216.322 233.9 217.102 233.769 218.155 233.856C219.724 234.605 220.313 236.612 220.871 238.156C221.301 239.379 221.713 240.609 222.124 241.838C222.266 242.259 222.408 242.68 222.551 243.101C222.62 243.307 222.69 243.513 222.761 243.725C222.9 244.136 223.039 244.545 223.179 244.955C223.492 245.876 223.791 246.794 224.046 247.732C224.565 249.647 224.565 249.647 225.902 251.046C226.271 251.242 226.647 251.427 227.027 251.601C227.308 251.748 227.308 251.748 227.595 251.899C228.183 252.204 228.776 252.488 229.376 252.768C229.695 252.918 229.695 252.918 230.021 253.071C231.869 253.929 233.733 254.693 235.666 255.336C235.85 255.398 236.033 255.46 236.223 255.524C238.926 256.276 242.246 256.058 244.771 254.869C246.42 253.826 247.203 252.478 247.807 250.667C248.346 244.607 244.019 238.849 240.339 234.396C239.56 233.502 238.762 232.628 237.954 231.76C237.322 231.081 236.706 230.389 236.089 229.697C235.286 228.812 234.459 228.009 233.545 227.241C233.073 226.831 232.642 226.396 232.207 225.947C231.314 225.042 230.356 224.249 229.363 223.456C228.759 222.962 228.179 222.449 227.6 221.926C223.111 217.919 217.228 213.833 211.121 213.076C210.184 212.951 209.791 212.871 208.99 212.332C208.486 211.521 208.348 210.997 208.348 210.041C208.636 209.125 208.931 208.731 209.691 208.144C210.655 207.653 211.689 207.418 212.732 207.151C219.239 205.482 225.219 202.558 230.296 198.133C230.523 197.937 230.751 197.74 230.986 197.538C234.254 194.666 236.871 191.22 238.934 187.393C238.934 187.239 238.934 187.085 238.934 186.926C238.674 186.791 238.414 186.657 238.146 186.518C237.643 186.226 237.328 186.027 236.964 185.569C236.684 184.48 236.659 183.728 237.227 182.738C238.433 181.988 239.652 182.165 241.036 182.257C241.267 181.479 241.494 180.701 241.722 179.922C241.786 179.704 241.851 179.485 241.918 179.261C242.285 177.998 242.548 176.795 242.67 175.486C242.366 175.481 242.366 175.481 242.055 175.476C239.584 175.373 239.584 175.373 238.759 174.683C238.03 173.853 237.908 173.342 237.917 172.226C238.057 171.428 238.553 171.065 239.168 170.583C239.938 170.197 240.8 170.26 241.649 170.218C241.836 170.208 242.023 170.198 242.216 170.187C242.679 170.162 243.141 170.139 243.604 170.116C246.226 155.882 241.731 140.213 233.837 128.351C231.125 124.447 228.099 120.78 224.337 117.849C223.393 117.034 222.668 116.252 222.489 115C222.678 113.294 223.811 112.156 224.94 110.928C228.684 106.853 231.771 102.072 234.498 97.2696C234.654 96.9951 234.654 96.9951 234.813 96.7152C239.973 87.5704 244.032 77.7953 246.639 67.6174C246.694 67.4078 246.749 67.1982 246.806 66.9822C248.153 61.7898 248.827 56.501 248.828 51.1424C248.829 50.9845 248.829 50.8265 248.83 50.6638C248.829 47.8571 248.638 45.07 247.719 42.4015C247.626 42.1222 247.533 41.8429 247.436 41.5551C246.582 39.5148 245.03 37.7883 242.994 36.8946C241.953 36.5184 240.999 36.4385 239.898 36.4477C239.706 36.4492 239.514 36.4507 239.316 36.4523C234.333 36.5971 230.049 39.1156 226.093 41.9345C225.899 42.0709 225.705 42.2072 225.506 42.3477C211.836 52.452 207.237 72.8294 204.819 88.6546C204.175 92.9594 203.703 97.2812 203.332 101.618C203.314 101.813 203.296 102.009 203.277 102.21C203.245 102.558 203.216 102.907 203.191 103.256C203.089 104.323 202.807 104.922 202.044 105.675C200.259 106.27 198.679 105.669 196.937 105.164C191.839 103.748 186.767 102.879 181.498 102.406C181.128 102.372 181.128 102.372 180.75 102.338C171.473 101.552 161.993 102.612 153.013 104.974C152.463 105.119 151.912 105.263 151.361 105.405C150.923 105.518 150.486 105.636 150.049 105.753C148.956 105.973 148.018 106.075 146.987 105.617C146.185 104.976 146.037 104.465 145.889 103.448C145.857 103.113 145.828 102.778 145.8 102.444C145.765 102.066 145.73 101.688 145.695 101.31C145.678 101.111 145.66 100.912 145.642 100.707C144.066 83.1877 140.708 64.5473 130.366 49.8729C130.226 49.6745 130.226 49.6745 130.084 49.4722C128.89 47.7919 127.587 46.2261 126.163 44.7363C126.033 44.5968 125.903 44.4573 125.769 44.3136C124.568 43.0603 123.268 42.0692 121.829 41.1027C121.602 40.95 121.376 40.7973 121.142 40.64C119.372 39.4681 117.646 38.4817 115.656 37.7319C115.43 37.6445 115.43 37.6445 115.199 37.5553C113.223 36.8134 111.348 36.4581 109.236 36.4331C109.046 36.4297 108.856 36.4262 108.661 36.4227C106.172 36.4653 104.121 37.6805 102.653 39.6672Z" fill="black"/>
<path d="M188.288 230.827C194.843 236.488 198.171 245.347 198.97 253.897C199.347 258.803 199.533 264.044 198.141 268.793C198.077 269.023 198.077 269.023 198.012 269.258C197.089 272.518 195.342 275.21 193.003 277.596C192.843 277.762 192.683 277.928 192.518 278.099C187.095 283.368 179.348 284.17 172.235 284.043C170.728 283.996 169.264 283.823 167.78 283.545C167.622 283.515 167.464 283.486 167.301 283.456C161.823 282.4 156.876 279.744 153.614 274.991C148.916 267.767 149.188 257.462 150.816 249.264C152.432 241.762 156.181 233.584 162.679 229.237C162.898 229.1 163.117 228.962 163.343 228.82C163.478 228.733 163.613 228.647 163.753 228.558C171.892 223.4 181.024 225.013 188.288 230.827Z" fill="#F4A99C"/>
<path d="M175.194 221.482C175.622 221.51 175.622 221.51 176.059 221.539C183.451 222.154 189.855 225.569 194.655 231.191C198.567 235.917 201.214 241.572 202.803 247.471C202.885 247.769 202.885 247.769 202.969 248.073C203.933 251.838 204.264 255.656 204.237 259.532C204.233 260.169 204.237 260.807 204.241 261.444C204.245 264.836 203.97 268.238 202.832 271.461C202.773 271.632 202.714 271.802 202.654 271.978C200.351 278.349 195.811 283.473 189.719 286.455C181.141 290.441 170.135 290.647 161.275 287.446C157.077 285.857 153.178 283.231 150.445 279.619C150.276 279.397 150.108 279.176 149.934 278.947C144.029 270.808 143.858 260.913 145.317 251.293C145.67 249.083 146.239 246.952 146.943 244.83C147.027 244.574 147.027 244.574 147.112 244.313C147.875 242.036 148.878 239.897 149.995 237.773C150.187 237.405 150.374 237.032 150.56 236.66C153.841 230.264 160.033 224.857 166.847 222.591C169.527 221.831 172.403 221.272 175.194 221.482ZM159.084 233.389C158.917 233.556 158.75 233.724 158.578 233.896C154.492 238.234 152.169 244.03 150.853 249.762C150.818 249.915 150.783 250.068 150.746 250.226C150.098 253.261 149.9 256.282 149.917 259.376C149.92 259.935 149.917 260.495 149.914 261.054C149.908 267.341 151.453 273.274 155.859 277.926C161.349 283.179 168.795 284.203 176.093 284.098C182.926 283.931 189.256 281.691 194.048 276.722C194.902 275.736 195.571 274.684 196.207 273.548C196.332 273.33 196.457 273.111 196.586 272.886C197.551 271.09 198.129 269.236 198.542 267.244C198.605 266.953 198.605 266.953 198.669 266.656C199.077 264.545 199.082 262.468 199.067 260.327C199.067 260.141 199.066 259.954 199.065 259.762C199.053 257.095 199.009 254.466 198.542 251.834C198.513 251.671 198.484 251.507 198.455 251.339C197.378 245.458 195.217 239.618 191.304 235.024C191.018 234.677 191.018 234.677 190.726 234.323C189.125 232.443 187.274 231.03 185.234 229.654C185.029 229.512 184.825 229.37 184.614 229.223C176.315 223.81 165.586 226.799 159.084 233.389Z" fill="black"/>
<path d="M233.097 57.3444C233.809 57.811 234.382 58.3627 234.965 58.9788C235.143 59.157 235.322 59.3352 235.505 59.5187C237.601 62.8566 236.59 67.2098 235.795 70.8015C235.264 73.0531 234.555 75.2397 233.798 77.4238C233.735 77.608 233.672 77.7923 233.607 77.9821C233.266 78.9779 232.916 79.9701 232.555 80.9589C232.407 81.3656 232.261 81.7732 232.116 82.181C231.414 84.0909 230.533 85.8812 229.604 87.6877C229.368 88.1513 229.137 88.617 228.908 89.0842C226.136 94.7381 223.001 100.439 218.855 105.208C218.676 105.414 218.676 105.414 218.494 105.624C218.121 106.048 217.745 106.468 217.367 106.886C217.253 107.013 217.139 107.139 217.021 107.269C216.173 108.181 215.459 108.851 214.208 109.053C213.059 109.065 212.298 109.064 211.281 108.491C209.783 106.7 209.37 105.43 209.516 103.107C209.64 101.953 209.812 100.808 209.997 99.6629C210.036 99.4215 210.036 99.4215 210.075 99.1753C212.123 86.4018 216.015 67.5193 227.246 59.3582C229.004 58.1292 230.885 56.952 233.097 57.3444Z" fill="#F4A99C"/>
<path d="M117.634 57.4051C117.829 57.462 118.024 57.5189 118.225 57.5775C118.415 57.632 118.605 57.6865 118.801 57.7426C124.639 59.7654 127.956 65.9389 130.491 71.1568C131.995 74.3334 133.205 77.5999 134.335 80.9256C134.4 81.1133 134.465 81.3011 134.532 81.4945C136.59 87.4828 137.844 93.6858 138.865 99.9217C139.031 100.935 139.205 101.948 139.38 102.96C139.67 104.896 139.65 106.177 138.491 107.805C137.815 108.509 137.208 108.889 136.242 109.061C134.799 109.089 133.81 109.015 132.711 108.04C125.73 100.753 120.669 91.1055 116.824 81.8595C116.696 81.5672 116.567 81.275 116.438 80.9831C115.079 77.8595 114.059 74.6149 113.088 71.3529C113.035 71.1766 112.982 71.0002 112.927 70.8185C112.34 68.789 112.302 66.7255 112.256 64.6257C112.247 64.3581 112.238 64.0905 112.229 63.8149C112.222 61.5711 112.931 60.2873 114.303 58.5671C115.404 57.5316 116.118 57.0986 117.634 57.4051Z" fill="#F4A99C"/>
<path d="M227.381 165.713C229.736 167.472 231.388 169.548 231.864 172.491C232.216 175.982 231.8 178.664 229.608 181.462C228.027 183.31 225.929 184.548 223.525 185.058C220.199 185.228 217.593 185.076 214.886 182.957C214.745 182.85 214.603 182.744 214.457 182.634C212.834 181.231 211.407 178.561 211.15 176.419C210.919 173.175 211.499 170.628 213.485 168.014C213.738 167.653 213.738 167.653 213.996 167.284C217.361 163.427 223.235 163.039 227.381 165.713Z" fill="#F4A99C"/>
<path d="M132.876 165.724C135.212 167.297 136.798 169.431 137.477 172.167C138.01 175.32 137.644 178.346 135.838 181.046C134.174 183.168 132.051 184.478 129.432 185.059C125.71 185.284 123.081 184.737 120.116 182.369C118.527 180.94 117.234 178.546 117.007 176.406C116.826 172.916 117.275 170.278 119.512 167.477C123.125 163.558 128.383 163.062 132.876 165.724Z" fill="#F4A99C"/>
<path d="M174.61 162.819C174.862 162.817 175.113 162.815 175.372 162.813C178.818 162.822 178.818 162.822 180.142 163.674C180.929 164.622 181.215 165.326 181.122 166.567C180.842 168.141 179.981 169.728 178.697 170.703C178.003 171.146 177.378 171.489 176.595 171.75C176.462 174.014 176.737 176.254 178.229 178.054C179.346 179.171 180.53 179.386 182.053 179.527C183.725 179.383 185.35 178.933 186.635 177.82C187.086 177.222 187.507 176.614 187.915 175.986C188.269 175.485 188.269 175.485 188.736 175.252C189.763 175.133 190.263 175.192 191.173 175.704C191.869 176.536 191.968 176.922 191.892 177.976C191.479 179.84 189.93 181.334 188.428 182.411C185.483 184.285 182.251 184.578 178.839 183.987C177.327 183.517 176.307 182.62 175.193 181.516C174.775 181.036 174.775 181.036 174.26 181.089C174.116 181.291 173.971 181.493 173.822 181.702C172.793 183.003 170.959 183.79 169.357 184.124C165.724 184.415 162.707 184.119 159.784 181.789C158.569 180.725 157.376 179.674 157.144 178C157.094 177.078 157.088 176.589 157.654 175.836C158.533 175.215 159.105 175.151 160.164 175.274C161.106 175.633 161.461 176.418 161.974 177.248C162.698 178.342 163.705 178.791 164.921 179.221C166.749 179.54 168.621 179.677 170.291 178.754C171.63 177.594 172.099 176.015 172.392 174.318C172.433 174.092 172.474 173.865 172.515 173.632C172.585 172.928 172.601 172.427 172.392 171.75C171.846 171.27 171.301 170.978 170.651 170.655C169.167 169.889 168.472 168.378 167.956 166.846C167.805 165.883 167.894 165.555 168.379 164.701C170.006 162.609 172.096 162.801 174.61 162.819Z" fill="black"/>
<path d="M209.553 153.634C211.472 155.152 212.234 157.153 212.532 159.536C212.579 161.345 212.109 163.128 210.917 164.513C209.373 166.135 207.908 166.857 205.664 166.935C203.592 166.86 202.152 166.278 200.649 164.827C199.155 163.091 198.826 161.316 198.913 159.062C199.158 156.901 199.943 155.223 201.578 153.773C203.896 152.104 207.162 152.075 209.553 153.634Z" fill="black"/>
<path d="M146.943 153.539C148.626 154.555 149.371 156.386 149.978 158.208C150.171 160.882 149.854 162.879 148.135 164.976C146.581 166.463 144.641 166.935 142.554 166.912C140.911 166.77 139.392 166.091 138.196 164.947C136.59 163.006 136.413 160.843 136.614 158.426C136.848 156.539 137.815 155.004 139.238 153.772C141.682 152.032 144.331 152.26 146.943 153.539Z" fill="black"/>
<path d="M146.237 137.547C146.846 137.986 147.134 138.532 147.442 139.196C147.501 139.32 147.501 139.32 147.561 139.448C147.689 139.719 147.815 139.99 147.942 140.262C148.031 140.451 148.12 140.639 148.208 140.828C148.839 142.174 149.453 143.526 150.054 144.885C150.142 145.064 150.142 145.064 150.232 145.246C150.397 145.605 150.469 145.953 150.543 146.34C150.738 147.138 150.973 147.787 151.619 148.323C153.041 148.989 154.834 149 156.373 149.14C157.088 149.207 157.802 149.291 158.517 149.373C159.072 149.436 159.628 149.497 160.184 149.55C160.338 149.565 160.338 149.565 160.495 149.581C160.684 149.6 160.874 149.617 161.064 149.633C161.818 149.711 162.489 149.929 162.997 150.517C163.327 150.983 163.482 151.285 163.49 151.861C163.493 151.959 163.496 152.056 163.5 152.157C163.343 153.195 162.609 153.828 161.893 154.527C161.782 154.637 161.672 154.747 161.561 154.857C161.272 155.144 160.981 155.431 160.69 155.717C160.225 156.174 159.762 156.634 159.298 157.093C159.138 157.252 158.977 157.41 158.816 157.568C158.314 158.064 157.826 158.563 157.369 159.102C157.081 159.436 156.77 159.747 156.459 160.06C156.396 160.124 156.334 160.188 156.269 160.254C156.111 160.413 155.947 160.566 155.781 160.718C155.709 160.718 155.637 160.718 155.562 160.718C155.807 162.501 156.09 164.276 156.384 166.051C156.53 166.938 156.676 167.826 156.821 168.713C156.873 169.034 156.927 169.354 156.981 169.674C157.011 169.859 157.041 170.044 157.072 170.229C157.086 170.309 157.099 170.39 157.114 170.473C157.262 171.385 157.299 172.205 156.767 173.002C156.168 173.569 155.659 173.841 154.832 173.826C154.055 173.707 153.391 173.272 152.714 172.893C152.495 172.772 152.275 172.651 152.056 172.53C151.556 172.254 151.057 171.976 150.559 171.696C150.009 171.388 149.458 171.082 148.906 170.778C148.835 170.739 148.765 170.7 148.692 170.66C148.417 170.509 148.143 170.358 147.868 170.206C147.678 170.102 147.488 169.998 147.299 169.894C147.179 169.828 147.059 169.762 146.936 169.695C146.693 169.557 146.454 169.413 146.218 169.263C146.103 169.19 145.989 169.118 145.871 169.043C145.77 168.977 145.669 168.911 145.565 168.842C145.266 168.694 145.266 168.694 144.94 168.792C144.599 168.948 144.27 169.113 143.941 169.295C143.879 169.33 143.816 169.364 143.752 169.4C143.549 169.512 143.346 169.626 143.143 169.739C143 169.819 142.857 169.898 142.714 169.977C141.726 170.528 140.748 171.093 139.773 171.666C138.952 172.149 138.126 172.623 137.296 173.091C137.179 173.158 137.062 173.224 136.942 173.293C136.833 173.354 136.725 173.415 136.613 173.478C136.517 173.532 136.422 173.586 136.323 173.641C135.787 173.908 135.23 173.965 134.64 173.88C134.022 173.624 133.6 173.21 133.216 172.673C132.838 171.54 133.192 170.196 133.386 169.045C133.415 168.867 133.444 168.689 133.473 168.511C133.548 168.046 133.625 167.581 133.703 167.116C133.826 166.373 133.947 165.631 134.068 164.888C134.11 164.632 134.153 164.377 134.195 164.121C134.261 163.725 134.323 163.328 134.383 162.931C134.409 162.767 134.436 162.603 134.465 162.439C134.508 162.187 134.548 161.935 134.586 161.683C134.6 161.608 134.615 161.532 134.629 161.454C134.673 161.144 134.683 160.902 134.524 160.627C134.279 160.326 134.009 160.081 133.706 159.841C133.616 159.768 133.527 159.696 133.435 159.621C133.435 159.549 133.435 159.476 133.435 159.402C133.362 159.402 133.29 159.402 133.216 159.402C133.059 159.243 133.059 159.243 132.877 159.022C132.447 158.516 131.986 158.049 131.514 157.581C131.384 157.451 131.384 157.451 131.25 157.319C130.975 157.044 130.698 156.769 130.422 156.495C130.058 156.133 129.694 155.771 129.33 155.408C129.248 155.327 129.166 155.245 129.081 155.161C128.573 154.656 128.095 154.133 127.629 153.588C127.549 153.499 127.549 153.499 127.468 153.408C126.998 152.868 126.813 152.455 126.835 151.729C126.916 151.06 127.273 150.545 127.738 150.078C128.281 149.806 128.788 149.678 129.39 149.6C129.476 149.588 129.562 149.576 129.651 149.564C129.837 149.538 130.024 149.513 130.211 149.488C130.51 149.447 130.808 149.404 131.107 149.36C132.149 149.21 133.189 149.079 134.237 148.983C134.745 148.936 135.252 148.882 135.76 148.827C136.006 148.802 136.254 148.781 136.501 148.763C137.787 148.719 137.787 148.719 138.874 148.135C139.181 147.661 139.34 147.146 139.492 146.605C139.607 146.223 139.778 145.876 139.954 145.519C140.017 145.385 140.08 145.25 140.143 145.116C140.175 145.049 140.206 144.982 140.238 144.912C140.52 144.308 140.797 143.702 141.074 143.095C141.149 142.931 141.224 142.767 141.299 142.603C141.692 141.748 142.081 140.892 142.447 140.025C142.5 139.9 142.554 139.774 142.609 139.645C142.706 139.414 142.802 139.183 142.896 138.951C143.232 138.157 143.556 137.802 144.307 137.369C144.976 137.168 145.614 137.219 146.237 137.547Z" fill="#010100"/>
<path d="M145.006 143.039C145.363 143.218 145.447 143.623 145.6 143.977C145.685 144.172 145.771 144.366 145.857 144.561C145.906 144.673 145.956 144.786 146.007 144.902C146.325 145.615 146.65 146.324 146.975 147.034C147.129 147.37 147.282 147.706 147.436 148.042C147.511 148.205 147.586 148.367 147.661 148.53C147.851 148.94 148.036 149.351 148.211 149.767C148.247 149.849 148.283 149.932 148.32 150.017C148.387 150.172 148.453 150.328 148.516 150.485C148.774 151.068 149.123 151.361 149.703 151.616C149.998 151.706 150.289 151.75 150.595 151.786C150.681 151.798 150.767 151.81 150.855 151.822C151.045 151.848 151.235 151.874 151.424 151.898C151.749 151.94 152.073 151.985 152.397 152.031C153.114 152.131 153.83 152.229 154.547 152.326C154.916 152.376 155.286 152.427 155.655 152.477C155.882 152.508 156.11 152.539 156.337 152.57C156.44 152.584 156.542 152.598 156.648 152.612C156.737 152.624 156.827 152.636 156.919 152.649C157.184 152.689 157.447 152.74 157.71 152.795C157.197 153.421 156.637 153.99 156.062 154.559C155.894 154.726 155.725 154.893 155.557 155.061C155.08 155.536 154.602 156.012 154.123 156.486C153.829 156.778 153.536 157.07 153.243 157.362C153.131 157.473 153.02 157.584 152.908 157.694C152.752 157.848 152.597 158.003 152.442 158.159C152.353 158.246 152.265 158.334 152.174 158.424C151.59 159.107 151.548 159.718 151.602 160.586C151.69 161.56 151.87 162.526 152.032 163.49C152.07 163.725 152.109 163.96 152.147 164.195C152.239 164.758 152.332 165.32 152.426 165.883C152.492 166.279 152.558 166.675 152.624 167.072C152.682 167.423 152.741 167.775 152.799 168.127C152.409 168.004 152.056 167.873 151.703 167.667C151.618 167.617 151.533 167.568 151.446 167.518C151.355 167.464 151.264 167.411 151.171 167.356C151.075 167.3 150.979 167.244 150.879 167.187C150.67 167.065 150.461 166.944 150.252 166.821C149.901 166.617 149.549 166.413 149.197 166.21C148.729 165.939 148.262 165.668 147.794 165.397C147.687 165.335 147.58 165.273 147.469 165.209C147.241 165.076 147.012 164.941 146.784 164.806C146.67 164.739 146.555 164.671 146.437 164.601C146.334 164.539 146.231 164.478 146.125 164.415C145.618 164.133 145.146 164.055 144.579 164.16C144.102 164.365 143.66 164.617 143.213 164.88C142.968 165.023 142.721 165.164 142.473 165.304C141.707 165.74 140.945 166.182 140.184 166.626C139.932 166.773 139.679 166.92 139.427 167.067C139.244 167.173 139.062 167.28 138.88 167.387C138.712 167.485 138.712 167.485 138.54 167.585C138.441 167.643 138.342 167.701 138.24 167.761C137.974 167.905 137.709 168.02 137.426 168.127C137.481 167.738 137.537 167.349 137.593 166.961C137.611 166.836 137.629 166.71 137.648 166.581C137.771 165.746 137.905 164.914 138.048 164.082C138.065 163.983 138.082 163.884 138.099 163.782C138.183 163.287 138.269 162.792 138.356 162.297C138.745 160.513 138.745 160.513 138.34 158.804C137.953 158.295 137.486 157.86 137.026 157.419C136.819 157.219 136.613 157.018 136.407 156.817C136.27 156.685 136.27 156.685 136.131 156.551C135.932 156.333 135.932 156.333 135.932 156.119C135.863 156.09 135.795 156.061 135.725 156.032C135.504 155.905 135.504 155.905 135.398 155.583C135.327 155.583 135.257 155.583 135.184 155.583C135.033 155.429 135.033 155.429 134.857 155.214C134.425 154.704 133.958 154.236 133.483 153.767C133.319 153.605 133.156 153.444 132.993 153.282C132.886 153.176 132.886 153.176 132.777 153.068C132.622 152.903 132.622 152.903 132.622 152.795C133.111 152.717 133.601 152.639 134.09 152.561C134.165 152.549 134.24 152.537 134.317 152.525C135.239 152.378 136.162 152.24 137.087 152.116C137.216 152.098 137.216 152.098 137.348 152.08C137.766 152.024 138.185 151.969 138.603 151.915C140.109 151.742 140.109 151.742 141.376 150.973C141.519 150.727 141.638 150.497 141.753 150.239C141.786 150.167 141.82 150.095 141.854 150.02C141.963 149.784 142.07 149.548 142.177 149.311C142.252 149.147 142.327 148.983 142.403 148.819C142.557 148.484 142.709 148.15 142.862 147.815C143.067 147.363 143.276 146.913 143.486 146.464C143.608 146.202 143.73 145.941 143.851 145.679C143.934 145.502 143.934 145.502 144.018 145.321C144.367 144.568 144.694 143.808 145.006 143.039Z" fill="#FFBB4D"/>
<path d="M205.21 137.717C205.838 138.322 206.124 139.133 206.467 139.921C206.534 140.074 206.602 140.226 206.669 140.379C206.808 140.693 206.947 141.007 207.084 141.321C207.386 142.009 207.691 142.695 207.997 143.381C208.053 143.509 208.11 143.637 208.169 143.769C208.485 144.479 208.807 145.186 209.136 145.891C209.189 146.006 209.189 146.006 209.244 146.122C209.417 146.493 209.59 146.863 209.765 147.233C209.827 147.366 209.89 147.499 209.952 147.632C210.035 147.807 210.035 147.807 210.119 147.985C210.237 148.262 210.237 148.262 210.237 148.482C210.341 148.487 210.444 148.492 210.551 148.498C211.68 148.559 212.794 148.679 213.914 148.827C214.093 148.851 214.272 148.874 214.451 148.898C214.822 148.946 215.193 148.996 215.564 149.045C216.038 149.108 216.511 149.169 216.985 149.23C217.353 149.278 217.721 149.326 218.089 149.376C218.263 149.399 218.438 149.422 218.612 149.444C220.935 149.739 220.935 149.739 221.71 150.679C222.076 151.243 222.223 151.647 222.147 152.326C221.908 153.385 221 154.086 220.256 154.805C220.056 155 219.856 155.196 219.657 155.392C219.533 155.514 219.41 155.634 219.285 155.755C218.97 156.061 218.675 156.376 218.389 156.71C217.988 157.177 217.551 157.595 217.104 158.016C216.936 158.177 216.769 158.339 216.602 158.5C216.342 158.751 216.081 159.001 215.817 159.248C214.823 160.11 214.823 160.11 214.177 161.219C214.2 161.573 214.288 161.872 214.389 162.213C214.439 162.491 214.481 162.771 214.524 163.051C214.573 163.375 214.627 163.697 214.682 164.02C214.802 164.72 214.919 165.421 215.036 166.122C215.056 166.239 215.075 166.356 215.095 166.476C215.253 167.421 215.409 168.366 215.556 169.313C215.59 169.53 215.625 169.747 215.66 169.963C216.01 172.253 216.01 172.253 215.584 173.039C215.195 173.552 214.814 173.803 214.187 173.909C213.146 173.976 212.419 173.594 211.548 173.087C211.362 172.982 211.175 172.877 210.988 172.772C210.562 172.532 210.137 172.29 209.713 172.047C208.916 171.59 208.115 171.14 207.313 170.692C206.751 170.378 206.194 170.058 205.643 169.724C205.487 169.63 205.487 169.63 205.328 169.534C205.131 169.416 204.936 169.296 204.743 169.174C204.655 169.122 204.568 169.07 204.478 169.016C204.403 168.97 204.327 168.923 204.25 168.875C203.721 168.718 203.198 169.09 202.74 169.338C202.624 169.401 202.509 169.463 202.39 169.528C202.268 169.595 202.146 169.661 202.021 169.73C201.895 169.799 201.769 169.867 201.639 169.938C200.706 170.447 199.785 170.976 198.869 171.515C198.441 171.767 198.008 172.009 197.571 172.245C197.278 172.404 196.986 172.566 196.694 172.729C196.596 172.783 196.499 172.837 196.398 172.893C196.203 173.002 196.007 173.112 195.812 173.221C195.721 173.272 195.63 173.322 195.537 173.374C195.456 173.419 195.375 173.464 195.291 173.511C194.589 173.873 193.936 174.01 193.163 173.785C192.607 173.538 192.276 173.182 191.988 172.648C191.588 171.442 192.016 169.956 192.213 168.735C192.248 168.518 192.282 168.301 192.316 168.084C192.493 166.963 192.679 165.844 192.869 164.726C192.887 164.62 192.905 164.514 192.923 164.405C193.009 163.897 193.096 163.389 193.185 162.882C193.216 162.699 193.248 162.516 193.279 162.333C193.294 162.25 193.309 162.168 193.324 162.083C193.397 161.65 193.424 161.315 193.299 160.894C193.125 160.642 193.125 160.642 192.891 160.402C192.802 160.306 192.712 160.21 192.62 160.111C192.109 159.582 191.593 159.059 191.072 158.54C190.868 158.337 190.664 158.134 190.461 157.931C189.884 157.353 189.306 156.776 188.727 156.199C188.372 155.844 188.016 155.489 187.661 155.133C187.527 154.999 187.392 154.865 187.257 154.73C187.069 154.543 186.881 154.355 186.693 154.167C186.638 154.112 186.583 154.058 186.526 154.002C185.951 153.422 185.534 152.872 185.5 152.038C185.508 151.415 185.687 150.936 186.087 150.459C186.59 150.023 187.017 149.83 187.682 149.731C187.762 149.718 187.842 149.706 187.924 149.693C188.186 149.653 188.448 149.616 188.71 149.58C188.8 149.568 188.89 149.555 188.983 149.542C189.568 149.459 190.154 149.382 190.74 149.306C191.06 149.263 191.381 149.218 191.701 149.173C192.71 149.031 193.706 148.907 194.724 148.865C196.288 148.826 196.288 148.826 197.61 148.105C198.053 147.448 198.308 146.724 198.542 145.971C198.788 145.184 199.132 144.451 199.482 143.706C199.66 143.327 199.831 142.946 200.002 142.564C200.036 142.489 200.069 142.415 200.104 142.338C200.332 141.831 200.556 141.323 200.778 140.813C200.808 140.745 200.838 140.677 200.868 140.607C201.007 140.29 201.146 139.972 201.283 139.653C202.082 137.818 202.082 137.818 203.025 137.387C203.778 137.103 204.555 137.282 205.21 137.717Z" fill="#010100"/>
<path d="M203.833 142.75C204.203 143.052 204.361 143.463 204.552 143.888C204.589 143.969 204.626 144.05 204.665 144.134C204.786 144.4 204.906 144.666 205.026 144.932C205.11 145.116 205.193 145.3 205.277 145.484C205.677 146.365 206.07 147.249 206.452 148.138C206.484 148.214 206.517 148.29 206.55 148.368C206.702 148.723 206.853 149.078 207.002 149.434C207.449 150.635 207.449 150.635 208.417 151.375C208.917 151.535 209.438 151.594 209.957 151.666C210.082 151.684 210.208 151.702 210.337 151.721C210.738 151.78 211.138 151.836 211.539 151.893C211.934 151.95 212.328 152.007 212.723 152.064C212.98 152.101 213.236 152.138 213.493 152.175C214.553 152.328 215.61 152.492 216.667 152.664C216.255 153.159 215.829 153.63 215.371 154.082C215.313 154.14 215.255 154.198 215.195 154.258C214.951 154.502 214.705 154.745 214.46 154.988C213.843 155.601 213.234 156.21 212.671 156.874C212.306 157.29 211.9 157.667 211.5 158.049C210.87 158.667 210.547 159.258 210.511 160.153C210.514 160.705 210.613 161.242 210.705 161.786C210.723 161.9 210.742 162.014 210.761 162.132C210.821 162.497 210.882 162.861 210.942 163.225C210.982 163.466 211.021 163.707 211.061 163.948C211.276 165.257 211.276 165.257 211.504 166.564C211.519 166.65 211.535 166.736 211.551 166.825C211.592 167.05 211.633 167.275 211.675 167.5C211.723 167.814 211.743 168.1 211.731 168.417C211.359 168.274 211.015 168.113 210.669 167.916C210.571 167.86 210.472 167.804 210.371 167.746C210.265 167.686 210.16 167.625 210.051 167.563C209.941 167.5 209.831 167.437 209.717 167.372C208.688 166.784 207.665 166.186 206.643 165.584C206.543 165.526 206.443 165.467 206.34 165.407C206.117 165.275 205.895 165.142 205.672 165.009C205.556 164.939 205.439 164.87 205.319 164.798C205.213 164.734 205.107 164.67 204.998 164.605C204.485 164.33 203.972 164.262 203.395 164.341C203.057 164.462 202.753 164.631 202.442 164.809C202.352 164.859 202.262 164.908 202.169 164.959C201.881 165.118 201.596 165.28 201.311 165.442C201.22 165.494 201.129 165.545 201.036 165.598C200.164 166.09 199.298 166.594 198.434 167.099C198.171 167.253 197.908 167.406 197.645 167.56C197.453 167.672 197.262 167.784 197.072 167.896C196.955 167.964 196.839 168.032 196.72 168.102C196.616 168.162 196.512 168.223 196.405 168.286C196.155 168.417 196.155 168.417 195.936 168.417C196.119 167.01 196.346 165.613 196.594 164.217C196.623 164.053 196.652 163.89 196.681 163.726C196.903 162.469 196.903 162.469 196.987 162.001C197.038 161.714 197.087 161.427 197.136 161.139C197.15 161.062 197.164 160.985 197.178 160.906C197.331 159.977 197.237 159.337 196.705 158.566C196.259 157.993 195.736 157.493 195.22 156.984C195.098 156.863 194.976 156.741 194.854 156.619C194.536 156.301 194.216 155.984 193.897 155.667C193.383 155.158 192.87 154.646 192.357 154.135C192.178 153.957 191.999 153.779 191.819 153.601C191.711 153.493 191.602 153.385 191.493 153.277C191.398 153.182 191.302 153.087 191.204 152.99C191 152.774 191 152.774 191 152.664C191.37 152.603 191.74 152.544 192.111 152.485C192.232 152.466 192.354 152.447 192.479 152.427C193.362 152.29 194.247 152.172 195.134 152.063C195.361 152.034 195.587 152.006 195.814 151.978C196.155 151.935 196.496 151.893 196.837 151.853C197.161 151.815 197.485 151.775 197.808 151.735C197.905 151.724 198.002 151.713 198.102 151.702C198.812 151.611 199.428 151.424 199.977 150.946C200.506 150.206 200.851 149.376 201.215 148.547C201.286 148.385 201.358 148.224 201.43 148.062C201.54 147.816 201.65 147.57 201.759 147.324C202.102 146.548 202.456 145.778 202.812 145.008C203.158 144.258 203.502 143.507 203.833 142.75Z" fill="#FFBB4D"/>
<path d="M126.505 99.6698C127.991 99.6217 129.397 100.027 130.538 100.995C130.568 101.02 130.568 101.02 130.598 101.045C131.515 101.833 132.085 102.905 132.368 104.07C132.378 104.114 132.378 104.114 132.389 104.16C132.5 104.647 132.532 105.122 132.526 105.619C132.526 105.674 132.525 105.728 132.525 105.782C132.524 105.912 132.523 106.042 132.521 106.173C132.565 106.156 132.608 106.139 132.653 106.122C133.374 105.847 134.069 105.68 134.846 105.686C134.893 105.686 134.939 105.687 134.987 105.687C135.837 105.697 136.569 105.874 137.332 106.246C137.375 106.267 137.417 106.288 137.461 106.309C138.505 106.845 139.414 107.729 139.939 108.78C139.951 108.804 139.964 108.828 139.976 108.853C140.55 110.01 140.735 111.373 140.453 112.636C140.447 112.665 140.44 112.694 140.434 112.724C140.187 113.794 139.683 114.754 138.911 115.537C138.883 115.565 138.856 115.593 138.827 115.622C138.11 116.307 137.007 116.919 136.01 117.006C136.051 117.058 136.051 117.058 136.093 117.111C136.766 117.973 137.221 119.001 137.369 120.09C137.373 120.12 137.377 120.149 137.381 120.18C137.499 121.225 137.319 122.291 136.891 123.248C136.873 123.29 136.854 123.332 136.836 123.375C136.578 123.923 136.211 124.396 135.79 124.827C135.757 124.862 135.757 124.862 135.724 124.898C135.029 125.636 134.04 126.064 133.072 126.296C133.032 126.306 133.032 126.306 132.991 126.316C132.619 126.403 132.252 126.414 131.871 126.415C131.788 126.415 131.705 126.417 131.622 126.418C131.115 126.421 130.627 126.35 130.141 126.2C130.096 126.186 130.096 126.186 130.05 126.172C129.327 125.941 128.652 125.583 128.078 125.084C128.048 125.058 128.017 125.031 127.986 125.004C127.893 124.922 127.802 124.838 127.711 124.754C127.684 124.729 127.656 124.704 127.628 124.679C127.312 124.379 127.068 124.015 126.829 123.652C126.809 123.685 126.789 123.718 126.769 123.752C126.592 124.038 126.404 124.292 126.168 124.533C126.138 124.565 126.108 124.596 126.077 124.628C126.046 124.657 126.016 124.687 125.985 124.717C125.963 124.741 125.94 124.764 125.917 124.789C124.931 125.814 123.51 126.393 122.097 126.421C121.575 126.427 121.06 126.421 120.55 126.296C120.505 126.286 120.46 126.276 120.413 126.265C119.433 126.026 118.659 125.564 117.906 124.901C117.88 124.878 117.854 124.855 117.827 124.832C116.888 123.95 116.275 122.538 116.211 121.257C116.191 119.647 116.544 118.246 117.612 117.006C117.565 117.004 117.518 117.002 117.47 117.001C116.555 116.906 115.652 116.343 114.968 115.757C114.935 115.729 114.902 115.7 114.868 115.671C114.629 115.462 114.426 115.239 114.234 114.986C114.219 114.966 114.204 114.947 114.189 114.927C113.526 114.054 113.102 112.964 113.086 111.86C113.085 111.832 113.085 111.804 113.084 111.775C113.072 110.881 113.151 110.053 113.499 109.221C113.51 109.195 113.52 109.17 113.531 109.144C113.794 108.516 114.179 107.96 114.638 107.458C114.669 107.424 114.699 107.39 114.731 107.356C115.17 106.895 115.687 106.533 116.254 106.246C116.277 106.234 116.3 106.222 116.324 106.21C117.719 105.508 119.233 105.559 120.69 106.035C120.816 106.078 120.94 106.125 121.064 106.173C121.063 106.136 121.063 106.136 121.062 106.098C121.027 104.371 121.456 102.687 122.675 101.408C122.725 101.356 122.776 101.304 122.827 101.252C122.849 101.228 122.871 101.203 122.894 101.178C123.246 100.798 123.73 100.534 124.186 100.297C124.208 100.285 124.231 100.274 124.254 100.261C124.952 99.903 125.722 99.6995 126.505 99.6698Z" fill="#F4A99C"/>
<path d="M126.505 99.6698C127.991 99.6217 129.397 100.027 130.538 100.995C130.568 101.02 130.568 101.02 130.598 101.045C131.515 101.833 132.085 102.905 132.368 104.07C132.378 104.114 132.378 104.114 132.389 104.16C132.5 104.647 132.532 105.122 132.526 105.619C132.526 105.674 132.525 105.728 132.525 105.782C132.524 105.912 132.523 106.042 132.521 106.173C132.565 106.156 132.608 106.139 132.653 106.122C133.374 105.847 134.069 105.68 134.846 105.686C134.893 105.686 134.939 105.687 134.987 105.687C135.837 105.697 136.569 105.874 137.332 106.246C137.375 106.267 137.417 106.288 137.461 106.309C138.505 106.845 139.414 107.729 139.939 108.78C139.951 108.804 139.964 108.828 139.976 108.853C140.55 110.01 140.735 111.373 140.453 112.636C140.447 112.665 140.44 112.694 140.434 112.724C140.187 113.794 139.683 114.754 138.911 115.537C138.883 115.565 138.856 115.593 138.827 115.622C138.11 116.307 137.007 116.919 136.01 117.006C136.051 117.058 136.051 117.058 136.093 117.111C136.766 117.973 137.221 119.001 137.369 120.09C137.373 120.12 137.377 120.149 137.381 120.18C137.499 121.225 137.319 122.291 136.891 123.248C136.873 123.29 136.854 123.332 136.836 123.375C136.578 123.923 136.211 124.396 135.79 124.827C135.757 124.862 135.757 124.862 135.724 124.898C135.029 125.636 134.04 126.064 133.072 126.296C133.032 126.306 133.032 126.306 132.991 126.316C132.619 126.403 132.252 126.414 131.871 126.415C131.788 126.415 131.705 126.417 131.622 126.418C131.115 126.421 130.627 126.35 130.141 126.2C130.096 126.186 130.096 126.186 130.05 126.172C129.327 125.941 128.652 125.583 128.078 125.084C128.048 125.058 128.017 125.031 127.986 125.004C127.893 124.922 127.802 124.838 127.711 124.754C127.684 124.729 127.656 124.704 127.628 124.679C127.312 124.379 127.068 124.015 126.829 123.652C126.809 123.685 126.789 123.718 126.769 123.752C126.592 124.038 126.404 124.292 126.168 124.533C126.138 124.565 126.108 124.596 126.077 124.628C126.046 124.657 126.016 124.687 125.985 124.717C125.963 124.741 125.94 124.764 125.917 124.789C124.931 125.814 123.51 126.393 122.097 126.421C121.575 126.427 121.06 126.421 120.55 126.296C120.505 126.286 120.46 126.276 120.413 126.265C119.433 126.026 118.659 125.564 117.906 124.901C117.88 124.878 117.854 124.855 117.827 124.832C116.888 123.95 116.275 122.538 116.211 121.257C116.191 119.647 116.544 118.246 117.612 117.006C117.565 117.004 117.518 117.002 117.47 117.001C116.555 116.906 115.652 116.343 114.968 115.757C114.935 115.729 114.902 115.7 114.868 115.671C114.629 115.462 114.426 115.239 114.234 114.986C114.219 114.966 114.204 114.947 114.189 114.927C113.526 114.054 113.102 112.964 113.086 111.86C113.085 111.832 113.085 111.804 113.084 111.775C113.072 110.881 113.151 110.053 113.499 109.221C113.51 109.195 113.52 109.17 113.531 109.144C113.794 108.516 114.179 107.96 114.638 107.458C114.669 107.424 114.699 107.39 114.731 107.356C115.17 106.895 115.687 106.533 116.254 106.246C116.277 106.234 116.3 106.222 116.324 106.21C117.719 105.508 119.233 105.559 120.69 106.035C120.816 106.078 120.94 106.125 121.064 106.173C121.063 106.136 121.063 106.136 121.062 106.098C121.027 104.371 121.456 102.687 122.675 101.408C122.725 101.356 122.776 101.304 122.827 101.252C122.849 101.228 122.871 101.203 122.894 101.178C123.246 100.798 123.73 100.534 124.186 100.297C124.208 100.285 124.231 100.274 124.254 100.261C124.952 99.903 125.722 99.6995 126.505 99.6698ZM123.818 102.097C123.773 102.138 123.773 102.138 123.726 102.179C122.914 102.951 122.392 104.12 122.345 105.241C122.326 106.137 122.455 106.956 122.844 107.771C122.931 107.96 122.969 108.13 122.937 108.339C122.85 108.465 122.752 108.519 122.606 108.56C122.411 108.585 122.3 108.55 122.142 108.442C122.035 108.36 121.934 108.273 121.833 108.185C120.757 107.257 119.436 106.86 118.024 106.953C116.947 107.072 116.029 107.708 115.348 108.523C114.698 109.34 114.325 110.356 114.335 111.401C114.335 111.461 114.335 111.461 114.336 111.523C114.352 112.764 114.839 113.844 115.696 114.733C116.449 115.467 117.407 115.886 118.46 115.879C118.487 115.878 118.514 115.878 118.542 115.877C118.625 115.876 118.707 115.876 118.79 115.876C119.086 115.874 119.379 115.862 119.674 115.834C119.829 115.829 119.907 115.855 120.036 115.941C120.152 116.068 120.172 116.202 120.166 116.369C120.088 116.708 119.65 116.944 119.382 117.125C118.49 117.744 117.862 118.71 117.582 119.75C117.575 119.779 117.567 119.807 117.559 119.836C117.297 120.869 117.449 122.098 117.983 123.024C118.172 123.334 118.387 123.612 118.641 123.872C118.663 123.898 118.686 123.923 118.71 123.948C119.366 124.649 120.463 125.112 121.413 125.165C122.053 125.179 122.654 125.182 123.267 124.974C123.292 124.966 123.317 124.958 123.343 124.949C123.883 124.766 124.39 124.479 124.81 124.093C124.838 124.067 124.838 124.067 124.867 124.04C125.679 123.286 126.084 122.36 126.351 121.299C126.408 121.138 126.488 121.01 126.621 120.903C126.781 120.836 126.912 120.839 127.075 120.896C127.303 121.099 127.355 121.461 127.428 121.745C127.529 122.117 127.649 122.462 127.821 122.808C127.847 122.862 127.847 122.862 127.874 122.917C128.371 123.884 129.253 124.6 130.275 124.949C131.493 125.329 132.712 125.272 133.854 124.686C134.856 124.152 135.601 123.266 135.95 122.186C136.216 121.307 136.246 120.421 135.973 119.539C135.965 119.513 135.957 119.486 135.948 119.458C135.667 118.579 135.098 117.816 134.394 117.226C134.373 117.206 134.351 117.186 134.329 117.166C134.215 117.062 134.099 116.966 133.971 116.879C133.948 116.863 133.926 116.847 133.902 116.831C133.856 116.799 133.81 116.769 133.764 116.738C133.616 116.638 133.537 116.55 133.476 116.381C133.464 116.265 133.478 116.162 133.513 116.051C133.594 115.951 133.656 115.887 133.77 115.83C133.835 115.827 133.9 115.826 133.965 115.826C134 115.826 134.034 115.826 134.07 115.826C134.174 115.83 134.174 115.83 134.257 115.849C134.462 115.887 134.673 115.876 134.881 115.876C134.906 115.876 134.93 115.876 134.956 115.876C136.219 115.874 137.251 115.396 138.14 114.508C138.898 113.685 139.332 112.572 139.326 111.454C139.326 111.414 139.326 111.374 139.326 111.332C139.308 110.173 138.829 109.099 138.03 108.266C138.002 108.236 137.974 108.205 137.945 108.174C137.244 107.438 136.26 106.965 135.238 106.933C135.164 106.932 135.089 106.932 135.014 106.932C134.954 106.933 134.954 106.933 134.893 106.933C133.741 106.95 132.574 107.41 131.75 108.229C131.729 108.251 131.708 108.273 131.686 108.296C131.536 108.449 131.399 108.549 131.179 108.576C131.036 108.557 130.951 108.53 130.832 108.449C130.725 108.3 130.715 108.197 130.741 108.018C130.773 107.869 130.836 107.733 130.896 107.593C131.045 107.237 131.154 106.88 131.236 106.503C131.245 106.462 131.254 106.421 131.263 106.379C131.386 105.693 131.345 104.97 131.163 104.3C131.156 104.275 131.149 104.25 131.142 104.225C130.83 103.105 130.071 102.098 129.069 101.509C127.372 100.568 125.26 100.799 123.818 102.097Z" fill="black"/>
<path d="M130.11 109.853C130.206 109.934 130.299 110.017 130.391 110.102C130.419 110.126 130.446 110.151 130.473 110.176C131.373 111.03 131.906 112.33 131.944 113.56C131.965 114.722 131.737 115.791 131.052 116.748C131.038 116.769 131.023 116.79 131.007 116.812C130.231 117.879 129.112 118.699 127.791 118.908C127.52 118.947 127.25 118.978 126.976 118.988C126.906 118.991 126.906 118.991 126.834 118.994C125.416 119.034 124.148 118.43 123.121 117.483C122.253 116.641 121.707 115.363 121.682 114.157C121.679 113.73 121.686 113.314 121.762 112.893C121.766 112.868 121.771 112.844 121.775 112.819C122.01 111.564 122.738 110.449 123.785 109.72C125.695 108.431 128.279 108.352 130.11 109.853Z" fill="#F8E482"/>
<path d="M130.11 109.853C130.206 109.934 130.299 110.017 130.391 110.102C130.419 110.126 130.446 110.151 130.473 110.176C131.373 111.03 131.906 112.33 131.944 113.56C131.965 114.722 131.737 115.791 131.052 116.748C131.038 116.769 131.023 116.79 131.007 116.812C130.231 117.879 129.112 118.699 127.791 118.908C127.52 118.947 127.25 118.978 126.976 118.988C126.906 118.991 126.906 118.991 126.834 118.994C125.416 119.034 124.148 118.43 123.121 117.483C122.253 116.641 121.707 115.363 121.682 114.157C121.679 113.73 121.686 113.314 121.762 112.893C121.766 112.868 121.771 112.844 121.775 112.819C122.01 111.564 122.738 110.449 123.785 109.72C125.695 108.431 128.279 108.352 130.11 109.853ZM124.259 110.946C124.241 110.962 124.223 110.979 124.205 110.995C123.466 111.667 122.989 112.635 122.932 113.634C122.886 114.728 123.241 115.714 123.977 116.533C124.601 117.206 125.448 117.677 126.374 117.75C126.507 117.755 126.639 117.755 126.772 117.754C126.819 117.753 126.866 117.753 126.914 117.753C127.241 117.747 127.543 117.727 127.858 117.63C127.881 117.623 127.904 117.616 127.927 117.608C128.534 117.415 129.044 117.105 129.51 116.675C129.534 116.654 129.559 116.632 129.584 116.61C130.198 116.043 130.643 115.091 130.691 114.263C130.731 113.091 130.454 112.064 129.651 111.185C129.001 110.495 128.122 110.028 127.163 109.987C126.054 109.959 125.097 110.187 124.259 110.946Z" fill="black"/>
</svg>
