<svg width="334" height="143" viewBox="0 0 334 143" fill="none" xmlns="http://www.w3.org/2000/svg">
<path d="M266.686 2.78007C275.307 8.66129 280.877 17.4329 286.127 26.2638C286.327 26.5955 286.327 26.5955 286.532 26.934C287.317 28.2576 287.999 29.5701 288.588 30.9929C289.936 34.2192 289.936 34.2192 292.385 36.5899C294.48 37.3925 296.684 37.5589 298.901 37.7691C299.593 37.8588 300.285 37.9522 300.977 38.0491C302.022 38.1956 303.067 38.3401 304.114 38.4734C307.275 38.8782 310.331 39.5451 313.417 40.3283C313.852 40.4348 314.287 40.5414 314.735 40.6512C316.985 41.2152 319.209 41.847 321.424 42.5339C321.651 42.6044 321.879 42.6749 322.113 42.7475C326.59 44.1627 330.223 46.534 332.515 50.7489C334.469 54.9206 334.378 58.9795 332.922 63.3174C331.184 67.8765 327.523 71.5527 324.352 75.1668C323.448 76.2006 322.578 77.2568 321.718 78.3281C320.409 79.9468 319.015 81.4653 317.593 82.9838C316.224 84.4543 314.944 85.9814 313.691 87.5525C312.762 88.6833 311.761 89.7385 310.74 90.7863C309.652 92.3256 309.849 94.0174 310.1 95.8078C310.158 96.2393 310.216 96.6709 310.276 97.1154C310.323 97.4582 310.323 97.4582 310.372 97.808C310.543 99.0442 310.7 100.282 310.858 101.52C310.891 101.776 310.923 102.032 310.957 102.296C311.798 108.932 312.368 115.55 312.428 122.242C312.432 122.483 312.436 122.725 312.44 122.974C312.509 127.61 311.695 131.509 308.836 135.231C308.638 135.529 308.439 135.827 308.234 136.134C304.791 139.769 300.065 141.358 295.159 141.554C289.508 141.397 284.518 138.409 279.589 135.919C279.27 135.758 278.95 135.597 278.621 135.43C274.753 133.463 270.96 131.372 267.198 129.21C266.285 128.688 265.369 128.172 264.45 127.661C264.141 127.488 263.832 127.314 263.513 127.135C263.213 126.974 262.913 126.813 262.604 126.648C262.338 126.503 262.072 126.358 261.799 126.209C260.448 125.75 259.57 126.148 258.322 126.754C257.975 126.951 257.627 127.148 257.269 127.351C256.882 127.568 256.495 127.786 256.096 128.011C255.894 128.126 255.691 128.241 255.483 128.359C254.642 128.838 253.798 129.311 252.955 129.785C252.538 130.019 252.121 130.253 251.705 130.487C228.901 143.329 228.901 143.329 219.973 140.929C215.478 139.568 212.077 137.353 209.808 133.192C206.806 127.415 207.483 121.065 208.256 114.801C208.317 114.286 208.378 113.771 208.439 113.256C208.959 108.904 209.574 104.565 210.23 100.232C210.266 99.9893 210.303 99.7466 210.34 99.4965C210.437 98.8432 210.537 98.1903 210.636 97.5373C210.993 95.1511 210.993 95.1511 210.104 93.0498C209.658 92.6499 209.658 92.6499 209.202 92.242C208.885 91.9466 208.568 91.6512 208.241 91.3468C207.941 91.0674 207.641 90.788 207.332 90.5001C206.937 90.0699 206.549 89.6332 206.17 89.1882C204.908 87.7122 203.587 86.2941 202.26 84.876C202.006 84.6028 202.006 84.6028 201.747 84.324C201.58 84.1469 201.413 83.9697 201.241 83.7872C200.794 83.2743 200.794 83.2743 200.217 82.3428C199.148 81.2876 198.155 81.1642 196.716 80.8232C194.704 80.263 192.864 79.2967 190.988 78.3926C190.131 77.9876 189.273 77.5854 188.415 77.1829C188.205 77.0842 187.995 76.9855 187.779 76.8838C176.74 71.6917 166.272 69.0793 154.357 73.1838C150.711 74.5288 147.238 76.2799 143.759 78.0011C141.684 79.0133 139.677 79.806 137.461 80.4356C133.603 81.5951 131.142 84.8404 128.592 87.7912C127.721 88.7978 126.871 89.7608 125.891 90.664C124.244 92.192 124.244 92.192 123.631 94.2799C123.692 94.8386 123.692 94.8386 123.754 95.4086C123.798 95.8336 123.842 96.2586 123.887 96.6964C123.945 97.1544 124.003 97.6123 124.063 98.0699C124.107 98.4133 124.107 98.4133 124.151 98.7636C124.341 100.237 124.55 101.707 124.766 103.177C128.419 128.204 128.419 128.204 123.683 135.083C121.179 138.295 117.307 140.374 113.397 141.425C105.01 142.17 98.0501 138.311 90.8698 134.511C89.3307 133.697 87.7787 132.918 86.2139 132.156C83.4748 130.816 80.8389 129.294 78.2018 127.765C77.8776 127.579 77.5534 127.392 77.2193 127.2C76.7853 126.948 76.7853 126.948 76.3426 126.691C75.3028 126.15 75.3028 126.15 74.1709 125.941C73.1918 126.316 73.1918 126.316 72.1588 126.915C71.7623 127.131 71.3657 127.348 70.9571 127.571C70.5301 127.809 70.1032 128.047 69.6763 128.285C69.2362 128.526 68.7959 128.767 68.3553 129.007C67.4793 129.485 66.6044 129.965 65.7303 130.447C63.1733 131.851 60.59 133.203 57.999 134.543C57.6484 134.725 57.2979 134.907 56.9368 135.094C48.1805 139.624 48.1805 139.624 43.8915 140.736C43.585 140.819 43.2785 140.901 42.9627 140.986C38.2723 142.091 33.6347 141.362 29.5018 138.849C25.7014 136.207 22.8317 132.631 21.8701 128.005C21.0867 118.126 22.9067 108.132 24.4248 98.4057C24.4609 98.1702 24.4971 97.9346 24.5344 97.692C24.6319 97.058 24.7312 96.4244 24.8308 95.7908C25.1686 93.4463 25.1686 93.4463 24.3741 91.3294C24.1084 91.0628 23.8428 90.7962 23.569 90.5216C23.1406 90.0778 23.1406 90.0778 22.7034 89.6251C22.4284 89.3461 22.1534 89.0671 21.8701 88.7796C21.4861 88.3532 21.1058 87.9233 20.7303 87.4893C20.5392 87.2702 20.348 87.0511 20.151 86.8253C19.5998 86.1871 19.0509 85.5472 18.5032 84.906C18.1488 84.4911 17.7944 84.0763 17.44 83.6614C17.2612 83.452 17.0824 83.2426 16.8982 83.0269C15.8559 81.8098 14.7987 80.6097 13.7196 79.4249C12.2856 77.842 10.9326 76.204 9.59279 74.5411C9.08289 73.9151 8.56492 73.2963 8.04626 72.6776C3.7248 67.4955 0.271747 62.8213 0.880969 55.7476C1.53498 51.3657 3.59933 47.8405 7.07449 45.0809C14.8227 40.0192 25.9068 39.1145 34.8916 37.7127C35.251 37.6559 35.251 37.6559 35.6176 37.5981C36.7473 37.4203 37.8768 37.2492 39.0091 37.089C39.4068 37.0282 39.8044 36.9675 40.2141 36.9049C40.5605 36.8554 40.9069 36.8058 41.2638 36.7548C42.6949 36.3195 43.3045 35.499 44.0694 34.2506C44.2334 33.9334 44.3973 33.6162 44.5662 33.2893C44.7543 32.9307 44.9424 32.5722 45.1362 32.2027C45.3358 31.8184 45.5353 31.434 45.741 31.038C59.3919 5.25251 59.3919 5.25251 72.1064 1.03815C76.8764 -0.297894 81.6466 0.863237 85.8913 3.12416C91.58 6.62664 94.2908 12.2068 97.1302 17.9955C97.8036 19.3681 98.4843 20.7371 99.1641 22.1066C99.2957 22.3723 99.4274 22.6379 99.5631 22.9117C100.805 25.4133 102.084 27.8927 103.411 30.3498C103.88 31.2197 104.314 32.0965 104.726 32.995C104.919 33.3995 105.112 33.804 105.311 34.2208C105.463 34.561 105.616 34.9012 105.773 35.2517C108.022 37.9291 112.548 38.0631 115.803 38.634C120.644 39.4882 125.443 40.4295 130.192 41.7046C130.591 41.8107 130.989 41.9168 131.399 42.0262C137.087 43.6024 142.081 45.4338 145.396 50.5863C146.704 53.229 147.179 55.5405 147.181 58.4572C147.186 58.7291 147.19 59.001 147.194 59.2811C147.198 60.8804 147.041 62.1568 146.429 63.6615C146.608 63.5957 146.788 63.53 146.973 63.4622C152.104 61.5954 157.126 60.081 162.536 59.2744C162.828 59.2304 163.119 59.1864 163.42 59.141C166.858 58.6669 170.113 58.7716 173.525 59.3819C173.861 59.4409 174.196 59.4998 174.541 59.5605C178.702 60.3389 183.259 61.3326 187.031 63.3174C186.976 63.1462 186.922 62.975 186.867 62.7986C185.956 58.4644 186.711 54.1899 188.924 50.3847C192.612 45.1777 198.718 43.6911 204.536 42.0917C204.958 41.9747 205.379 41.8576 205.814 41.737C208.402 41.0414 210.988 40.4927 213.632 40.05C215.177 39.789 216.718 39.5041 218.259 39.2194C219.023 39.0855 219.789 38.9635 220.557 38.8543C224.832 38.3202 224.832 38.3202 228.346 36.0607C229.632 34.2245 230.53 32.2356 231.378 30.1676C231.889 28.949 232.504 27.826 233.149 26.6724C233.547 25.927 233.945 25.1815 234.342 24.4359C244.781 4.91562 244.781 4.91562 250.686 1.72631C251.076 1.5021 251.076 1.5021 251.474 1.27336C256.179 -1.04693 262.385 0.205716 266.686 2.78007Z" fill="black"/>
<path d="M78.644 12.737C81.8582 14.2156 83.9048 17.7126 85.4826 20.7369C85.6666 21.0833 85.8505 21.4296 86.0401 21.7864C89.7312 28.8164 93.3696 35.9754 96.3176 43.352C97.1242 45.3422 97.7542 46.7815 99.8304 47.674C101.36 48.2207 102.88 48.4896 104.484 48.7207C105.094 48.8145 105.705 48.9084 106.315 49.0024C106.632 49.0502 106.949 49.098 107.276 49.1472C132.248 52.9336 132.248 52.9336 135.203 56.6938C135.719 58.5516 135.637 60.0012 134.773 61.7045C133.774 63.3493 132.503 64.7214 131.184 66.1144C130.472 66.8727 129.784 67.6384 129.103 68.4235C127.653 70.0908 126.135 71.6916 124.615 73.2958C123.318 74.6716 122.054 76.0701 120.814 77.4984C120.162 78.2464 119.489 78.9752 118.816 79.7044C113.439 85.2152 113.439 85.2152 110.919 91.9965C111.057 93.8235 111.437 95.6187 111.772 97.4179C112.709 102.488 113.435 107.574 114.042 112.693C114.098 113.151 114.098 113.151 114.155 113.617C114.548 116.835 114.847 120.042 114.905 123.285C114.913 123.546 114.922 123.808 114.931 124.077C114.936 126.282 114.252 128.06 112.794 129.726C111.245 130.414 109.635 130.169 108.048 129.739C98.7312 126.124 90.1194 121.124 81.4759 116.157C77.4088 113.506 77.4088 113.506 72.7945 112.866C71.8712 113.203 71.0693 113.682 70.2354 114.199C69.9986 114.338 69.7617 114.478 69.5177 114.622C68.7713 115.063 68.0301 115.512 67.2892 115.962C66.3661 116.517 65.4412 117.069 64.515 117.618C64.2779 117.759 64.0409 117.9 63.7967 118.045C60.7494 119.838 57.5971 121.432 54.4551 123.049C53.6199 123.483 52.7901 123.925 51.9626 124.374C49.3347 125.797 46.6808 127.119 43.956 128.349C43.6618 128.482 43.3676 128.615 43.0646 128.752C40.9956 129.672 38.9801 130.522 36.6657 130.07C35.3384 129.322 34.4627 128.513 33.8868 127.091C32.8538 123.352 33.655 118.891 34.1227 115.109C34.1813 114.617 34.2397 114.125 34.2979 113.634C34.4197 112.611 34.5437 111.589 34.6694 110.567C34.8275 109.281 34.9805 107.994 35.132 106.707C36.2687 97.0753 36.2687 97.0753 37.2829 92.3444C37.9248 89.4563 37.9248 89.4563 37.1258 86.684C36.29 85.6435 35.4177 84.7068 34.4654 83.7716C34.2898 83.5977 34.1141 83.4239 33.9332 83.2448C33.3761 82.6938 32.8168 82.1452 32.2571 81.5969C27.9461 77.3603 27.9461 77.3603 26.1591 75.2629C25.4008 74.3743 24.6017 73.527 23.8055 72.6722C22.3331 71.0808 20.9552 69.4342 19.5972 67.7434C18.4842 66.4125 17.3043 65.1491 16.106 63.8948C14.1513 61.8242 12.5327 60.0887 12.5798 57.1239C13.5515 55.1026 15.0434 54.0832 17.0905 53.2449C23.6267 51.2672 30.4856 50.2521 37.2544 49.433C37.7164 49.377 37.7164 49.377 38.1879 49.3199C39.6908 49.1397 41.1943 48.9673 42.6993 48.8054C47.5917 48.465 47.5917 48.465 51.7118 46.1892C52.2748 45.3881 52.7279 44.5724 53.1817 43.7046C53.3796 43.3536 53.5775 43.0026 53.7813 42.6409C54.3409 41.6447 54.8901 40.6441 55.4342 39.6394C70.4931 11.879 70.4931 11.879 78.644 12.737Z" fill="#F8E482"/>
<path d="M259.783 13.1026C269.128 17.6191 275.255 32.9894 279.857 41.7328C280.155 42.2897 280.452 42.8466 280.75 43.4035C280.881 43.658 281.012 43.9125 281.147 44.1748C282.157 46.0474 283.166 47.0783 285.252 47.7699C287.978 48.5117 290.767 48.8956 293.56 49.2756C294.361 49.3846 295.161 49.4966 295.962 49.6092C298.209 49.9241 300.457 50.2311 302.709 50.5097C306.262 50.9526 309.759 51.5553 313.266 52.2852C313.674 52.3681 314.081 52.451 314.501 52.5364C317.082 53.0934 319.366 53.6926 321.395 55.468C322.144 56.8713 322.232 57.9777 321.912 59.5325C320.893 61.9127 318.834 63.7706 317.078 65.6255C315.676 67.1064 314.371 68.6378 313.094 70.2286C310.623 73.261 308.011 76.1842 305.385 79.0821C304.764 79.7706 304.153 80.4664 303.546 81.1668C302.344 82.5486 301.104 83.8942 299.858 85.2358C297.746 87.2416 297.746 87.2416 296.799 89.8159C297.201 94.4049 297.815 98.9812 298.541 103.529C299.078 106.912 299.483 110.307 299.86 113.711C299.922 114.272 299.985 114.833 300.049 115.395C301.18 125.377 301.18 125.377 299.202 128.005C298.325 129.032 297.683 129.594 296.357 129.914C289.493 130.449 281.085 123.559 275.483 120.277C273.206 118.945 270.916 117.636 268.622 116.335C268.349 116.18 268.077 116.025 267.796 115.866C267.531 115.715 267.265 115.564 266.992 115.408C265.823 114.728 264.676 114.012 263.531 113.293C262.132 112.548 260.856 112.307 259.288 112.521C257.913 113.037 256.734 113.791 255.503 114.586C254.673 115.111 253.841 115.633 253.009 116.156C252.78 116.301 252.55 116.445 252.314 116.595C229.41 130.975 229.41 130.975 222.815 130.07C221.222 129.255 220.554 127.997 219.992 126.356C218.784 121.476 220.063 115.808 220.691 110.923C220.858 109.622 221.019 108.322 221.18 107.021C221.663 103.158 222.16 99.3019 222.844 95.4686C223.312 92.8357 223.648 90.5069 222.283 88.1089C221.455 86.9404 220.493 85.9086 219.516 84.8643C218.71 83.9885 217.966 83.0861 217.224 82.156C215.62 80.1718 213.89 78.3218 212.145 76.4625C211.39 75.6576 210.652 74.8427 209.934 74.0055C208.99 72.9101 208.008 71.857 207.017 70.8051C205.229 68.9064 203.459 66.9964 201.762 65.0163C201.608 64.8404 201.455 64.6644 201.298 64.4831C200.009 62.9597 198.931 61.4087 198.901 59.3604C198.891 59.1156 198.88 58.8707 198.869 58.6185C199.191 57.3484 199.786 56.5457 200.794 55.7475C202.141 55.0895 203.536 54.6441 204.966 54.1992C205.381 54.0666 205.796 53.934 206.223 53.7974C211.728 52.0834 217.308 50.9207 222.987 49.9734C223.303 49.9206 223.618 49.8679 223.942 49.8135C225.516 49.5513 227.09 49.2954 228.666 49.0498C233.25 48.5849 233.25 48.5849 236.992 46.2881C238.23 44.251 239.297 42.1325 240.351 39.9961C240.688 39.3142 241.026 38.6332 241.365 37.9524C242.207 36.2591 243.046 34.5643 243.885 32.8695C254.484 11.4648 254.484 11.4648 259.783 13.1026Z" fill="#F8E482"/>
</svg>
