<svg width="209" height="202" viewBox="0 0 209 202" fill="none" xmlns="http://www.w3.org/2000/svg">
<path d="M114.48 3.75476C118.041 6.48439 120.121 10.5358 120.738 14.9642C121.097 19.7745 119.547 24.1924 116.492 27.8882C115.164 29.295 113.614 30.4213 111.895 31.31C111.63 31.31 111.364 31.31 111.091 31.31C112.47 33.4912 113.886 35.6433 115.334 37.7788C115.498 38.0198 115.661 38.2607 115.829 38.509C116.507 39.5076 117.185 40.5058 117.864 41.5032C119.969 44.5971 122.003 47.7161 123.929 50.9245C124.523 51.9061 125.143 52.8701 125.762 53.8357C131.826 63.3827 137.438 73.2647 142.946 83.139C143.927 84.8955 144.922 86.6431 145.926 88.3862C146.798 88.0064 147.35 87.5488 148.003 86.8622C149.051 85.7892 150.145 84.8038 151.286 83.8309C151.9 83.3063 152.514 82.7815 153.128 82.2566C153.291 82.1173 153.454 81.9781 153.622 81.8347C154.57 81.023 155.504 80.1996 156.427 79.3592C157.657 78.2449 158.931 77.1957 160.221 76.1522C160.91 75.5926 161.593 75.0274 162.277 74.4627C163.257 73.6541 164.238 72.8473 165.22 72.0405C165.401 71.891 165.583 71.7416 165.77 71.5876C167.933 69.8094 170.122 68.0749 172.354 66.3838C173.886 65.2191 175.384 64.0164 176.869 62.7926C178.052 61.8202 179.262 60.8918 180.494 59.9821C180.337 59.7933 180.337 59.7933 180.178 59.6007C176.933 55.6125 175.446 50.6066 175.938 45.5121C176.675 41.1972 179.213 37.4363 182.604 34.7098C186.343 32.0751 190.523 31.6842 194.964 32.1139C199.217 32.9392 203.448 35.833 205.9 39.3657C208.172 43.2634 208.888 47.8862 207.856 52.3054C206.696 56.4086 203.999 59.9829 200.323 62.1258C198.73 62.9033 197.252 63.4598 195.5 63.7336C195.506 63.95 195.513 64.1664 195.52 64.3894C195.58 68.1004 195.257 71.7843 194.959 75.4807C194.913 76.0487 194.868 76.6168 194.823 77.1849C194.3 83.7922 193.672 90.3858 192.962 96.9759C192.806 98.4248 192.657 99.8744 192.509 101.324C192.256 103.809 191.993 106.292 191.726 108.776C191.616 109.8 191.506 110.825 191.396 111.85C191.368 112.112 191.34 112.373 191.311 112.643C190.803 117.39 190.326 122.139 189.856 126.889C189.414 131.347 188.967 135.803 188.465 140.254C188.433 140.543 188.433 140.543 188.4 140.838C188.235 142.304 188.068 143.768 187.9 145.233C187.74 146.649 187.59 148.064 187.461 149.482C187.432 149.75 187.403 150.018 187.373 150.294C187.266 151.898 187.71 152.704 188.658 153.982C190.85 157.141 190.188 161.909 190.195 165.559C190.195 165.827 190.196 166.095 190.197 166.371C190.201 167.789 190.203 169.207 190.205 170.625C190.206 172.082 190.213 173.538 190.22 174.994C190.225 176.122 190.227 177.25 190.227 178.378C190.228 178.915 190.23 179.451 190.233 179.988C190.277 187.059 190.277 187.059 188.599 189.074C174.368 201.289 143.527 200.23 125.801 200.95C125.372 200.967 125.372 200.967 124.935 200.985C118.832 201.228 112.734 201.282 106.627 201.269C105.196 201.266 103.766 201.268 102.336 201.271C45.4648 201.374 45.4648 201.374 20.7507 189.385C17.992 186.552 18.5634 181.775 18.5724 178.114C18.5721 177.593 18.5715 177.072 18.5709 176.551C18.5701 175.463 18.5712 174.375 18.5737 173.288C18.5768 171.903 18.575 170.519 18.5718 169.135C18.5699 168.06 18.5705 166.985 18.5719 165.91C18.5722 165.4 18.5718 164.89 18.5706 164.38C18.5534 155.494 18.5534 155.494 20.9428 152.746C21.4141 152.022 21.3972 151.673 21.3316 150.819C21.3118 150.54 21.2921 150.261 21.2717 149.974C21.2309 149.507 21.2309 149.507 21.1893 149.03C21.1495 148.521 21.1495 148.521 21.1089 148.003C20.808 144.256 20.4036 140.518 20.0119 136.781C19.6604 133.416 19.3299 130.051 19.0215 126.682C19.0036 126.487 18.9858 126.292 18.9674 126.091C18.79 124.154 18.6142 122.216 18.4405 120.279C18.3911 119.729 18.3414 119.18 18.2915 118.631C18.2307 117.96 18.1706 117.289 18.1113 116.618C17.9354 114.684 17.6998 112.764 17.4363 110.84C17.2145 109.138 17.0511 107.432 16.8882 105.724C16.8506 105.335 16.8129 104.945 16.7753 104.555C16.6749 103.513 16.5759 102.471 16.4775 101.428C16.4157 100.775 16.3537 100.121 16.2916 99.4674C15.4584 90.6666 14.7787 81.8577 14.159 73.0395C14.0849 71.9931 14.0091 70.9469 13.9329 69.9007C13.9079 69.5552 13.8828 69.2096 13.857 68.8536C13.8093 68.1962 13.7613 67.5388 13.713 66.8815C13.6918 66.5889 13.6707 66.2963 13.6489 65.9949C13.6302 65.7384 13.6115 65.4819 13.5922 65.2177C13.558 64.6345 13.5523 64.0498 13.5523 63.4656C13.2207 63.4546 12.8891 63.4435 12.5474 63.4321C9.22316 63.0558 6.16103 60.6745 4.07308 58.166C2.25776 55.683 0.830676 52.6372 0.690041 49.5315C0.669315 49.2072 0.669315 49.2072 0.648171 48.8763C0.482267 44.1342 2.31298 39.8565 5.51338 36.4013C8.19607 33.5257 11.9982 32.0981 15.853 31.7622C20.2907 31.6133 24.2441 32.8545 27.6539 35.7314C30.8735 38.8038 32.8972 42.9069 33.1806 47.3711C33.1161 51.6308 31.6172 56.0213 28.6357 59.1185C28.5217 59.2267 28.4077 59.3348 28.2903 59.4462C28.5844 60.3286 28.7413 60.4618 29.4584 60.9964C29.6452 61.1372 29.832 61.278 30.0245 61.4231C30.2259 61.5721 30.4274 61.7211 30.635 61.8746C31.0537 62.1893 31.4724 62.504 31.891 62.8187C32.099 62.9741 32.3069 63.1294 32.5212 63.2895C33.3272 63.8937 34.1254 64.5077 34.9224 65.1236C35.7587 65.7682 36.5955 66.412 37.4356 67.0517C39.6195 68.7164 41.7545 70.437 43.8791 72.1764C44.3097 72.5286 44.7413 72.8797 45.173 73.2306C47.7923 75.3618 50.3753 77.53 52.8749 79.8009C53.4169 80.2913 53.9649 80.7731 54.5172 81.2517C55.6857 82.2703 56.8269 83.3179 57.9662 84.3689C58.5803 84.9352 59.1985 85.4968 59.8189 86.0562C60.1396 86.3472 60.4602 86.6382 60.7809 86.9292C60.9345 87.0666 61.0881 87.2039 61.2463 87.3455C61.615 87.6815 61.9698 88.0327 62.3217 88.3862C62.3217 88.5631 62.3217 88.7399 62.3217 88.9222C63.0471 88.2749 63.4509 87.5897 63.9022 86.7324C64.051 86.4524 64.1997 86.1723 64.3529 85.8838C64.5116 85.5822 64.6703 85.2805 64.8338 84.9697C65.1728 84.3327 65.5122 83.6958 65.8523 83.0594C65.9813 82.8178 65.9813 82.8178 66.1128 82.5714C67.3436 80.2716 68.6401 78.009 69.9318 75.7431C70.3613 74.9868 70.787 74.2284 71.2116 73.4692C73.0415 70.2014 74.9356 66.978 76.8723 63.7723C77.6648 62.4598 78.4455 61.1409 79.2211 59.8183C80.8098 57.1101 82.451 54.442 84.1432 51.7973C84.5837 51.1062 85.0204 50.4128 85.4565 49.7189C88.6951 44.5766 92.1475 39.588 95.6433 34.6182C96.4175 33.5166 97.1891 32.4132 97.9608 31.31C97.7528 31.2718 97.5448 31.2337 97.3304 31.1943C94.8766 30.6675 92.6164 28.6044 91.2298 26.5861C88.6618 22.5655 87.5996 18.1092 88.4879 13.3606C89.5099 9.15025 91.6828 5.29184 95.4518 2.9875C101.627 -0.421373 108.595 -0.420799 114.48 3.75476Z" fill="black"/>
<path d="M104.392 35.3295C105.412 36.2613 106.138 37.3224 106.904 38.4613C107.123 38.7847 107.123 38.7847 107.347 39.1146C107.882 39.9061 108.415 40.6993 108.947 41.4926C109.175 41.8305 109.402 42.1684 109.63 42.5062C112.615 46.9396 115.57 51.3823 118.326 55.9626C118.475 56.2091 118.624 56.4557 118.778 56.7096C121.376 61.0093 123.936 65.3318 126.498 69.6533C127.188 70.8181 127.88 71.9821 128.573 73.1458C131.791 78.5583 134.979 83.9823 137.961 89.5297C138.955 91.3762 139.968 93.211 141.002 95.0351C141.136 95.272 141.269 95.5089 141.406 95.7529C141.531 95.971 141.655 96.189 141.783 96.4136C141.946 96.6995 141.946 96.6995 142.112 96.9912C142.449 97.5072 142.776 97.9026 143.247 98.3009C143.967 98.4592 143.967 98.4592 144.771 98.4516C145.037 98.463 145.303 98.4744 145.578 98.4862C148.183 97.9404 150.099 95.2416 151.878 93.4102C153.437 91.809 155.027 90.3189 156.775 88.9243C157.681 88.201 158.553 87.442 159.425 86.678C161.112 85.2078 162.814 83.7566 164.526 82.3149C164.956 81.9517 165.384 81.5863 165.811 81.2203C167.422 79.8434 169.056 78.5052 170.728 77.2035C171.948 76.2526 173.15 75.2804 174.347 74.3014C186.652 64.2695 186.652 64.2695 187.997 64.2695C188.105 68.104 187.773 71.8907 187.444 75.7082C187.399 76.2347 187.355 76.7612 187.31 77.2877C186.593 85.7286 185.721 94.1543 184.838 102.579C184.782 103.114 184.726 103.649 184.67 104.184C184.363 107.118 184.054 110.052 183.744 112.986C183.323 116.961 182.909 120.937 182.503 124.913C182.477 125.172 182.45 125.432 182.423 125.699C182.098 128.886 181.779 132.073 181.466 135.261C181.358 136.366 181.249 137.47 181.14 138.574C181.017 139.815 180.897 141.057 180.776 142.299C180.712 142.953 180.647 143.608 180.583 144.263C180.554 144.558 180.526 144.852 180.497 145.156C180.316 146.976 180.046 148.76 179.69 150.554C167.048 153.539 154.119 155.069 141.191 156.13C140.637 156.175 140.082 156.222 139.528 156.27C137.484 156.443 135.44 156.578 133.392 156.686C132.978 156.707 132.563 156.73 132.149 156.753C123.21 157.242 114.274 157.303 105.324 157.303C104.741 157.303 104.157 157.303 103.574 157.303C96.5179 157.306 89.47 157.264 82.419 156.985C82.1177 156.973 81.8165 156.961 81.5062 156.949C79.5598 156.87 77.6146 156.774 75.6696 156.667C75.3731 156.65 75.0765 156.634 74.771 156.617C62.8774 155.944 50.9991 154.858 39.2768 152.697C38.9283 152.633 38.9283 152.633 38.5728 152.568C30.2587 151.031 30.2587 151.031 28.8262 150.554C28.8051 150.324 28.784 150.094 28.7622 149.858C28.5583 147.64 28.3536 145.423 28.1481 143.206C28.0426 142.068 27.9373 140.929 27.8328 139.791C27.3665 134.716 26.874 129.647 26.317 124.581C25.9472 121.217 25.616 117.851 25.326 114.479C25.0656 111.462 24.7773 108.452 24.431 105.444C23.9032 100.816 23.5193 96.1763 23.125 91.5359C23.0456 90.6038 22.9654 89.6718 22.8851 88.7397C22.4915 84.168 22.1052 79.5956 21.7308 75.0222C21.6963 74.6021 21.6617 74.182 21.627 73.762C21.366 70.6006 21.1644 67.4401 21.0553 64.2695C22.4523 65.0312 23.7113 65.883 24.9743 66.8487C25.1609 66.9901 25.3476 67.1315 25.5399 67.2772C26.1004 67.7026 26.6596 68.1295 27.2185 68.5569C27.3756 68.6768 27.5328 68.7966 27.6947 68.92C29.8068 70.5308 31.8965 72.1696 33.9826 73.8138C34.4455 74.1779 34.9094 74.5408 35.3736 74.9033C40.1217 78.6136 44.7295 82.4596 49.1915 86.5105C51.0394 88.181 51.0394 88.181 52.9095 89.8265C55.4038 92.0079 57.7869 94.2715 60.1094 96.6344C60.3724 96.9008 60.3724 96.9008 60.6406 97.1725C60.8752 97.4117 60.8752 97.4117 61.1144 97.6557C61.9253 98.414 62.6642 98.3777 63.7452 98.4181C64.0482 98.4344 64.3511 98.4506 64.6632 98.4673C65.6315 98.2829 65.9625 98.0207 66.5363 97.2316C67.2663 96.0781 67.9302 94.8925 68.5853 93.6953C68.7477 93.402 68.91 93.1088 69.0772 92.8067C69.4212 92.1852 69.7645 91.5635 70.1069 90.9412C70.9518 89.406 71.8039 87.8748 72.655 86.343C72.9073 85.8888 72.9073 85.8888 73.1647 85.4254C75.7256 80.8169 78.326 76.2392 81.0237 71.7092C82.1728 69.7796 83.3088 67.8426 84.4412 65.9031C86.3545 62.6273 88.2997 59.3726 90.2872 56.1411C90.7146 55.445 91.1391 54.7473 91.5632 54.0492C95.4931 47.6068 99.6593 41.2151 104.392 35.3295Z" fill="#F8E482"/>
<path d="M26.4145 157.789C28.6906 157.967 30.9134 158.363 33.1565 158.771C42.8226 160.523 52.5373 161.985 62.3217 162.88C62.5229 162.899 62.7242 162.917 62.9315 162.936C76.3345 164.168 89.7591 164.31 103.208 164.289C104.653 164.287 106.099 164.288 107.544 164.29C116.324 164.303 125.088 164.298 133.855 163.751C135.271 163.662 136.687 163.59 138.104 163.517C150.162 162.85 162.143 160.987 174.037 158.966C174.214 158.936 174.391 158.906 174.574 158.875C175.529 158.712 176.484 158.543 177.437 158.367C177.641 158.33 177.846 158.292 178.056 158.254C178.446 158.183 178.836 158.11 179.226 158.036C180.286 157.843 181.291 157.728 182.369 157.789C182.884 158.304 182.67 159.072 182.671 159.757C182.67 160.001 182.669 160.246 182.668 160.498C182.668 160.754 182.668 161.01 182.668 161.274C182.668 162.125 182.666 162.976 182.663 163.827C182.663 164.416 182.663 165.004 182.662 165.593C182.661 167.145 182.659 168.696 182.656 170.248C182.653 171.831 182.652 173.413 182.65 174.995C182.647 178.103 182.643 181.21 182.637 184.317C182.293 184.491 181.949 184.664 181.604 184.837C181.412 184.933 181.221 185.03 181.023 185.129C166.922 192.05 147.956 192.184 132.629 193.093C132.363 193.109 132.097 193.125 131.822 193.141C123.184 193.646 114.55 193.751 105.899 193.746C105.643 193.746 105.387 193.746 105.123 193.746C96.0263 193.745 86.9508 193.608 77.8635 193.16C77.58 193.146 77.2964 193.133 77.0042 193.119C39.9902 191.326 39.9902 191.326 26.1466 184.317C26.1404 180.937 26.1356 177.558 26.1327 174.178C26.1313 172.609 26.1294 171.04 26.1264 169.47C26.1235 167.957 26.1219 166.444 26.1212 164.93C26.1207 164.352 26.1197 163.774 26.1182 163.195C26.1163 162.387 26.116 161.579 26.1162 160.772C26.1152 160.53 26.1142 160.289 26.1132 160.041C26.116 158.386 26.116 158.386 26.4145 157.789Z" fill="#F8E482"/>
<path d="M111.147 96.7318C117.071 100.668 119.647 106.179 121.223 112.894C122.536 119.984 121.203 128.005 117.522 134.208C116.852 135.145 116.133 136.018 115.378 136.888C115.211 137.108 115.043 137.329 114.871 137.556C112.893 139.908 109.835 141.683 106.804 142.247C102.168 142.569 98.7004 141.474 95.1054 138.428C89.9656 133.606 87.7078 126.438 87.4412 119.541C87.2717 112.762 88.4631 105.314 93.2631 100.162C98.193 95.1145 104.724 92.9781 111.147 96.7318Z" fill="black"/>
<path d="M106.028 102.191C108.842 103.374 111.017 106.292 112.163 109.019C114.164 114.271 114.958 121.373 112.699 126.705C112.625 126.88 112.552 127.056 112.477 127.236C111.1 130.448 109.293 133.136 106.268 135.012C104.815 135.496 103.338 135.546 101.947 134.878C101.565 134.546 101.565 134.546 101.176 134.208C101.012 134.074 100.848 133.939 100.678 133.801C97.7887 131.231 96.4848 127.405 95.5492 123.757C95.4635 123.426 95.3778 123.095 95.2896 122.754C94.0635 117.39 94.678 111.616 97.5149 106.805C99.6629 103.79 102.106 101.23 106.028 102.191Z" fill="#7D5232"/>
<path d="M108.411 8.80107C110.792 10.0828 112.046 12.1314 112.856 14.6481C113.385 17.4327 113.079 19.8829 111.519 22.2286C110.129 24.0372 107.974 25.2485 105.732 25.6828C103.194 25.9094 100.667 25.1041 98.6977 23.4752C96.7125 21.4767 96.0857 19.3911 95.9679 16.639C96.003 14.3002 96.7741 12.5457 97.9776 10.5763C100.989 7.88558 104.715 7.28852 108.411 8.80107Z" fill="#F8E482"/>
<path d="M195.735 40.0921C198.269 41.5574 199.682 43.5889 200.591 46.3159C200.795 48.6413 200.643 50.9914 199.272 52.9449C197.677 54.8016 195.681 56.546 193.161 56.8565C190.022 56.8989 187.6 55.9978 185.317 53.8189C183.443 51.5129 183.431 48.6137 183.709 45.78C184.212 43.6024 185.748 41.9291 187.477 40.5882C189.844 39.2788 193.193 39.0636 195.735 40.0921Z" fill="#F8E482"/>
<path d="M21.5912 40.6887C23.5547 42.0631 24.8709 43.6716 25.3427 46.048C25.5793 48.8752 25.2384 51.3479 23.467 53.6347C21.9057 55.2806 19.5839 56.378 17.3258 56.5624C14.4647 56.6274 12.6517 56.0204 10.5493 54.0691C8.65402 52.0252 8.30909 50.1156 8.36996 47.3784C8.56707 45.0788 9.54607 43.0786 11.1323 41.4089C14.2888 38.7865 18.0925 38.7201 21.5912 40.6887Z" fill="#F8E482"/>
</svg>
