<svg width="160" height="159" viewBox="0 0 160 159" fill="none" xmlns="http://www.w3.org/2000/svg">
<path d="M90.5869 4.32443C92.0952 5.79917 92.9641 7.43647 93.4654 9.48231C93.4654 9.68863 93.4654 9.89494 93.4654 10.1075C93.6528 10.1156 93.6528 10.1156 93.844 10.1238C110.726 11.1804 127.771 19.2932 138.985 31.9341C139.454 32.4998 139.906 33.075 140.355 33.6566C140.57 33.9299 140.784 34.2032 140.998 34.4764C152.894 49.7303 157.011 69.4741 158.33 100.826C158.331 101.051 158.332 101.276 158.333 101.508C158.336 102.148 158.335 102.789 158.333 103.429C158.334 103.711 158.334 103.711 158.336 103.998C158.328 105.049 158.199 105.98 157.949 106.999C157.819 107.632 157.853 108.212 157.908 108.853C157.931 109.123 157.954 109.393 157.977 109.672C158.108 110.97 158.265 112.265 158.426 113.56C159.315 120.685 159.792 127.751 159.801 134.931C159.802 135.363 159.803 135.794 159.804 136.226C159.819 143.817 159.819 143.817 158.877 147.469C158.833 147.641 158.789 147.813 158.744 147.99C157.661 151.952 155.369 155.499 151.773 157.581C147.441 159.68 142.887 158.998 138.454 157.693C138.295 157.647 138.136 157.6 137.972 157.552C135.279 156.722 132.717 155.549 130.167 154.361C129.327 153.97 128.485 153.582 127.643 153.194C127.47 153.115 127.298 153.035 127.12 152.953C122.354 150.759 117.584 148.579 112.638 146.818C112.388 146.728 112.388 146.728 112.133 146.638C109.891 145.854 107.594 145.273 105.292 144.694C105.083 144.642 105.083 144.642 104.869 144.588C101.802 143.819 98.7137 143.222 95.5885 142.741C95.4434 142.718 95.2984 142.696 95.1489 142.673C92.9273 142.329 90.7055 141.998 88.4639 141.816C88.1538 141.789 88.1538 141.789 87.8374 141.762C78.6591 141.058 69.3455 141.642 60.3299 143.483C60.0674 143.537 59.805 143.59 59.5345 143.645C52.0813 145.182 44.9956 147.654 38.0312 150.699C37.5657 150.901 37.1002 151.103 36.6347 151.305C34.139 152.389 31.6545 153.496 29.1823 154.633C23.0118 157.47 15.8547 160.466 9.06369 158.071C8.17182 157.656 7.36721 157.177 6.56289 156.612C6.41407 156.508 6.26524 156.404 6.1119 156.296C2.54183 153.48 1.0368 148.724 0.443481 144.388C0.382595 143.831 0.331053 143.274 0.28486 142.716C0.267571 142.511 0.250281 142.305 0.232468 142.093C0.0519572 139.765 0.0385568 137.442 0.0504109 135.108C0.0509881 134.883 0.0515652 134.658 0.0521599 134.426C0.0643327 130.348 0.203806 126.292 0.51931 122.226C0.530412 122.081 0.541514 121.937 0.552953 121.787C0.831842 118.171 1.21272 114.575 1.71343 110.982C2.07791 108.774 2.07791 108.774 1.76971 106.596C1.74781 106.13 1.73872 105.662 1.73613 105.195C1.73511 105.052 1.73409 104.91 1.73304 104.763C1.73003 104.289 1.72862 103.815 1.72738 103.34C1.72592 103.006 1.72444 102.671 1.72295 102.337C1.71884 101.256 1.71785 100.175 1.71761 99.0941C1.71751 98.9108 1.71742 98.7274 1.71733 98.5386C1.71587 93.0382 1.76675 87.5666 2.34213 82.0908C2.39724 81.5663 2.45029 81.0416 2.50328 80.5169C4.27111 63.2771 9.06485 45.6683 20.7341 32.4062C20.8929 32.2207 20.8929 32.2207 21.0549 32.0314C23.5243 29.1623 26.232 26.5246 29.2784 24.2787C29.4979 24.1065 29.7166 23.9334 29.9346 23.7593C39.4589 16.1755 54.2051 9.90339 66.5819 10.1075C66.5905 9.84962 66.5991 9.59172 66.608 9.32601C66.871 7.0651 68.1894 5.26111 69.9163 3.85553C75.753 -0.366158 84.8903 0.303274 90.5869 4.32443Z" fill="black"/>
<path d="M79.4766 96.5412C79.6143 96.541 79.7521 96.5409 79.894 96.5407C88.0343 96.5334 96.1982 96.8517 104.288 97.794C104.769 97.8494 105.25 97.9028 105.731 97.956C110.419 98.4754 115.087 99.0472 119.724 99.9277C119.891 99.9594 120.059 99.9911 120.231 100.024C125.478 101.021 130.647 102.17 135.771 103.679C136.125 103.781 136.125 103.781 136.487 103.886C140.202 104.964 143.83 106.256 147.441 107.638C147.657 107.72 147.873 107.802 148.095 107.887C148.661 108.103 149.223 108.325 149.785 108.55C150.027 108.643 150.027 108.643 150.274 108.738C151.336 109.178 151.336 109.178 151.642 109.787C151.81 110.323 151.908 110.81 151.973 111.367C152.008 111.665 152.008 111.665 152.044 111.969C152.08 112.289 152.08 112.289 152.117 112.616C152.143 112.841 152.169 113.065 152.196 113.296C152.28 114.028 152.362 114.76 152.442 115.492C152.484 115.87 152.484 115.87 152.527 116.256C153.213 122.499 153.52 128.652 153.535 134.929C153.537 135.376 153.538 135.823 153.54 136.27C153.577 147.271 153.577 147.271 150.345 150.933C149.023 152.157 147.414 152.708 145.63 152.77C143.879 152.697 142.239 152.309 140.564 151.819C140.416 151.777 140.269 151.734 140.117 151.69C136.805 150.701 133.703 149.158 130.576 147.707C119.07 142.373 107.545 138.239 94.9503 136.358C94.7391 136.326 94.528 136.294 94.3104 136.261C89.7501 135.616 85.1439 135.478 80.5447 135.486C80.2845 135.486 80.0243 135.486 79.7562 135.486C65.8774 135.514 52.5871 138.119 39.6984 143.275C39.567 143.327 39.4356 143.38 39.3002 143.434C35.905 144.796 32.5832 146.272 29.2981 147.881C17.2979 153.75 17.2979 153.75 12.1229 152.483C10.1875 151.785 9.04331 150.539 8.07375 148.758C6.19031 144.636 6.28511 140.182 6.30012 135.747C6.30293 134.911 6.30015 134.075 6.29747 133.239C6.29543 129.48 6.47101 125.764 6.77126 122.018C6.78518 121.839 6.7991 121.66 6.81344 121.476C6.91908 120.124 7.04597 118.776 7.19211 117.428C7.31299 116.311 7.40889 115.207 7.42465 114.084C7.49083 110.024 7.49083 110.024 8.6844 108.864C9.95754 108.048 11.368 107.651 12.8156 107.253C13.6993 107.007 14.5547 106.698 15.4141 106.379C17.1775 105.727 18.9516 105.111 20.734 104.512C20.9511 104.439 21.1683 104.366 21.392 104.291C27.5949 102.236 34.0474 100.929 40.4743 99.8028C40.9416 99.7205 41.4087 99.6367 41.8757 99.5525C48.8484 98.3006 55.8901 97.6268 62.9479 97.0622C63.0977 97.0498 63.2475 97.0375 63.4018 97.0248C68.7427 96.5916 74.1209 96.5444 79.4766 96.5412Z" fill="#AADCE7"/>
<path d="M94.7809 16.3465C95.0105 16.38 95.0105 16.38 95.2448 16.4142C107.925 18.3005 120.591 22.9964 130.023 31.9007C130.491 32.341 130.969 32.7601 131.459 33.1747C132.139 33.7646 132.725 34.4005 133.306 35.087C133.711 35.5607 134.134 36.0138 134.559 36.47C142.534 45.3629 146.929 57.1238 149.316 68.6677C149.395 69.0308 149.474 69.3939 149.553 69.757C151.824 80.5869 152.401 92.015 152.234 103.054C151.02 102.662 149.834 102.23 148.649 101.76C132.53 95.3929 115.517 92.7142 96.1706 91.0719C95.842 91.0463 95.5134 91.0201 95.1848 90.9932C91.1432 90.6659 87.1028 90.6511 83.0454 90.5497C83.0454 66.2732 83.0454 41.9968 83.0454 16.9847C84.0082 16.9159 84.9711 16.8472 85.963 16.7763C86.6222 16.6478 87.2567 16.5149 87.9038 16.3465C90.2597 15.7369 92.3941 15.9968 94.7809 16.3465Z" fill="#AADCE7"/>
<path d="M71.8049 16.2162C73.4348 16.6795 75.1221 16.9145 76.7935 17.1931C76.7935 41.4008 76.7935 65.6085 76.7935 90.5497C73.63 90.6185 70.4665 90.6872 67.2071 90.7581C65.4133 90.8549 63.6294 90.9586 61.8408 91.1098C61.513 91.1362 61.513 91.1362 61.1786 91.1632C43.6446 92.5799 25.3076 95.1201 9.11447 102.361C8.4385 102.637 8.4385 102.637 7.8133 102.637C7.66681 93.5905 7.85014 84.5126 9.371 75.5711C9.4873 74.8793 9.59329 74.1863 9.69866 73.4927C11.6589 60.9664 15.8772 48.1094 24.0685 38.2414C24.2544 38.0128 24.4403 37.784 24.6261 37.5552C26.4717 35.3059 28.5097 33.2369 30.7372 31.3643C30.9355 31.1915 31.1337 31.0188 31.338 30.8408C40.3122 23.0543 59.4966 12.6161 71.8049 16.2162Z" fill="#AADCE7"/>
<path d="M85.7026 8.92225C86.271 9.60123 86.3456 10.0669 86.3799 10.9411C83.8623 12.8311 80.4089 12.6696 77.3927 12.3535C75.8533 12.1254 74.5479 11.5807 73.2507 10.7327C73.3876 9.69687 73.7152 9.35443 74.5076 8.72281C77.3606 6.75854 82.8943 6.94535 85.7026 8.92225Z" fill="#AADCE7"/>
</svg>
