<svg width="155" height="114" viewBox="0 0 155 114" fill="none" xmlns="http://www.w3.org/2000/svg">
<path d="M46.7588 8.33276C46.9003 8.4176 47.0419 8.50244 47.1877 8.58985C50.633 10.6684 53.8173 13.0815 56.9024 15.6587C57.0174 15.7541 57.1324 15.8495 57.2508 15.9477C58.5915 17.0622 59.8718 18.2114 61.0858 19.4637C61.5731 19.9752 61.5731 19.9752 62.1621 20.3548C62.1621 20.4788 62.1621 20.6028 62.1621 20.7305C62.2732 20.7804 62.3843 20.8303 62.4989 20.8817C63.6088 21.4828 64.4365 22.6398 65.2468 23.5864C65.5373 23.9276 65.5373 23.9276 65.8632 24.2262C66.1068 24.4874 66.1068 24.4874 66.1068 24.8631C66.2775 24.7655 66.4482 24.668 66.6241 24.5674C71.7403 21.7025 77.7697 20.9852 83.4479 22.5403C85.1279 23.0298 86.6848 23.6241 88.2006 24.505C88.6316 24.7248 88.6316 24.7248 89.0002 24.5471C89.4763 24.2521 89.8321 23.9125 90.2273 23.5152C90.3825 23.3596 90.5377 23.204 90.6976 23.0437C90.8582 22.8809 91.0187 22.7181 91.1841 22.5503C91.3447 22.3896 91.5052 22.229 91.6706 22.0634C92.3975 21.3315 93.079 20.6001 93.72 19.7913C93.9489 19.5774 94.1837 19.3695 94.4245 19.1691C94.9556 18.7162 95.4535 18.2499 95.939 17.7485C96.6644 17.0132 97.4436 16.3669 98.2489 15.7211C98.7825 15.2906 99.3035 14.8476 99.825 14.4025C109.307 6.51076 122.235 -0.0492186 134.858 0.81895C139.126 1.2454 143.156 3.34893 145.964 6.57171C151.589 13.6202 152.958 23.3139 153.83 32.0012C153.846 32.1421 153.862 32.2829 153.878 32.4279C154.036 33.9432 154.049 35.4518 154.05 36.974C154.05 37.2542 154.051 37.5343 154.052 37.8145C154.053 38.4007 154.053 38.9869 154.053 39.5731C154.053 40.1633 154.054 40.7536 154.057 41.3438C154.073 44.9474 154.008 48.5112 153.643 52.1007C153.628 52.2435 153.614 52.3863 153.6 52.5335C153.518 53.3305 153.422 54.1245 153.314 54.9184C153.283 55.1507 153.251 55.3831 153.219 55.6225C152.882 57.9913 152.366 60.3058 151.764 62.62C151.725 62.7726 151.686 62.9252 151.646 63.0825C150.526 67.4094 148.589 71.5037 145.565 74.8299C145.442 74.966 145.319 75.1021 145.193 75.2423C142.454 78.123 138.437 79.872 134.482 80.0896C132.855 80.1294 131.226 80.1135 129.598 80.0896C129.95 80.579 130.303 81.0681 130.655 81.5571C130.765 81.7093 130.874 81.8615 130.987 82.0184C131.662 82.9518 132.342 83.88 133.029 84.8041C139.574 93.6182 139.574 93.6182 139.179 96.62C138.843 98.0498 138.255 99.2424 137.112 100.189C133.811 102.107 129.275 101.001 125.701 100.576C125.242 100.524 124.783 100.471 124.324 100.418C122.856 100.25 121.387 100.08 119.921 99.8947C118.039 99.6004 118.039 99.6004 116.242 100.021C115.884 100.365 115.61 100.724 115.322 101.128C115.104 101.406 114.887 101.683 114.669 101.961C114.425 102.274 114.185 102.589 113.946 102.906C112.572 104.728 111.147 106.513 109.687 108.266C109.599 108.372 109.512 108.478 109.422 108.587C105.896 112.836 105.896 112.836 103.323 113.234C101.655 113.334 100.328 112.775 99.0164 111.761C98.3489 111.078 97.9566 110.209 97.5356 109.362C97.4699 109.23 97.4041 109.098 97.3364 108.961C96.6014 107.47 95.9303 105.953 95.2698 104.427C95.2028 104.273 95.1359 104.119 95.067 103.96C92.0994 97.1172 89.3571 90.1922 86.7776 83.1943C86.4207 82.2265 86.0596 81.2603 85.6977 80.2943C84.4803 77.0374 83.3172 73.7639 82.191 70.4743C82.0965 70.1991 82.0965 70.1991 82 69.9184C81.8225 69.4008 81.6462 68.8829 81.4705 68.3647C81.3906 68.1319 81.3906 68.1319 81.3091 67.8944C81.1109 67.3057 80.9466 66.8147 80.9466 66.1891C80.7568 66.2197 80.5671 66.2503 80.3716 66.2818C79.6738 66.3715 79.0145 66.3984 78.3116 66.3952C78.0701 66.3946 77.8285 66.394 77.5797 66.3934C77.3284 66.3918 77.077 66.3903 76.8257 66.3886C76.5693 66.3877 76.3128 66.3868 76.0564 66.3861C75.4323 66.3839 74.8082 66.3808 74.1842 66.3769C74.1497 66.4804 74.1153 66.5838 74.0798 66.6904C69.6047 80.1214 64.7162 93.5027 58.8453 106.395C58.6036 106.928 58.3665 107.463 58.13 107.999C57.1465 110.194 56.2327 112.012 53.8969 112.962C52.5098 113.425 50.9794 113.272 49.6593 112.673C47.6574 111.478 46.1993 109.457 44.7394 107.679C44.6257 107.541 44.5119 107.403 44.3947 107.26C43.2529 105.867 42.1405 104.452 41.0373 103.029C40.8513 102.789 40.665 102.549 40.4786 102.31C40.3041 102.086 40.1302 101.861 39.9569 101.636C39.7244 101.338 39.4848 101.045 39.2449 100.753C39.0524 100.483 39.0524 100.483 38.8561 100.207C37.463 99.2099 34.9444 99.9076 33.3337 100.101C33.0764 100.131 32.8191 100.16 32.5617 100.189C31.4827 100.313 30.404 100.439 29.3255 100.566C24.0729 101.186 24.0729 101.186 21.8495 101.194C21.6319 101.195 21.6319 101.195 21.41 101.196C19.7962 101.169 18.4638 100.655 17.2671 99.5785C16.0652 98.2004 15.7489 96.748 15.8502 94.9455C16.143 92.1167 18.6732 89.4544 20.2726 87.2277C20.3828 87.0735 20.4929 86.9192 20.6065 86.7603C22.1622 84.5822 23.7527 82.4293 25.3444 80.2774C25.2065 80.2747 25.0686 80.272 24.9265 80.2691C18.5145 80.1271 13.7761 79.0406 9.1501 74.4146C5.31969 70.342 3.29715 64.3141 2.31604 58.9075C2.232 58.4465 2.1406 57.9873 2.04941 57.5276C-0.873485 42.3061 -0.955576 21.4268 7.88068 8.09208C10.4457 4.54991 13.5889 2.27922 17.8306 1.19464C18.0064 1.14839 18.1822 1.10214 18.3633 1.05449C27.6926 -0.929002 38.8951 3.57971 46.7588 8.33276Z" fill="black"/>
<path d="M22.3858 7.54613C22.513 7.54631 22.6402 7.54648 22.7712 7.54666C36.5595 7.58811 48.5529 16.0836 57.941 25.5037C58.692 26.2649 59.4115 27.0465 60.0957 27.8686C60.2377 28.0375 60.2377 28.0375 60.3826 28.2098C60.6012 28.4708 60.8183 28.7331 61.0349 28.9957C60.7302 29.6968 60.2845 30.226 59.8022 30.8154C58.0129 33.0847 56.8954 35.6717 55.9631 38.388C55.1302 38.1469 54.3016 37.9016 53.4844 37.6109C50.6716 36.6135 47.7717 35.8723 44.7746 35.8286C44.6127 35.8243 44.4508 35.8199 44.284 35.8155C43.5047 35.8252 42.9741 35.8858 42.3509 36.376C41.5628 37.2188 41.4213 37.7752 41.4528 38.9053C41.5474 39.7691 41.8596 40.2799 42.5109 40.8395C43.3795 41.3944 44.3831 41.434 45.3851 41.5578C47.1993 41.8096 48.9858 42.1224 50.7739 42.5205C50.9777 42.5651 51.1815 42.6096 51.3915 42.6555C52.7591 42.9655 54.0774 43.369 55.3996 43.8355C55.4022 44.0067 55.4049 44.1779 55.4076 44.3542C55.5648 48.6241 56.8374 53.6685 59.6753 56.9971C59.9079 57.3603 59.9079 57.3603 59.9225 57.7199C59.6039 58.3363 59.0845 58.7045 58.546 59.1214C58.4226 59.2183 58.2992 59.3152 58.1721 59.4151C55.6415 61.3681 52.9188 63.108 50.1399 64.6863C49.9927 64.7699 49.8455 64.8535 49.6939 64.9397C41.7411 69.4267 32.7619 73.5197 23.4681 73.5704C23.1943 73.5726 22.9206 73.5764 22.647 73.582C19.4009 73.6477 16.8413 72.8583 14.4258 70.5917C6.17555 61.8975 7.21319 46.0985 7.49906 35.0067C7.57223 32.9261 7.7623 30.8686 8.0626 28.8079C8.11095 28.4638 8.11095 28.4638 8.16028 28.1128C9.00629 22.2656 10.3252 15.4203 14.2615 10.7747C14.3738 10.612 14.4862 10.4493 14.602 10.2816C16.747 7.95275 19.386 7.54084 22.3858 7.54613Z" fill="#F4A99C"/>
<path d="M132.287 7.53441C132.523 7.53054 132.758 7.52667 133.001 7.52267C135.824 7.51091 137.982 8.18003 140.036 10.1276C144.446 14.5516 145.733 21.6598 146.645 27.6104C146.701 27.972 146.701 27.972 146.758 28.3409C147.344 32.3446 147.508 36.3168 147.491 40.3604C147.49 40.6002 147.489 40.84 147.489 41.0871C147.459 50.5834 147.383 63.1441 140.681 70.6973C138.341 72.9056 135.825 73.5913 132.674 73.5737C132.545 73.5733 132.415 73.5729 132.281 73.5725C123.468 73.5284 114.933 70.0821 107.245 66.0012C107.074 65.9108 106.904 65.8204 106.728 65.7272C97.4989 60.7804 97.4989 60.7804 95.1178 57.9518C95.0349 57.5482 95.0349 57.5482 95.3284 56.9788C95.4786 56.7599 95.6314 56.5428 95.7863 56.3272C95.9466 56.0907 96.1061 55.8537 96.2647 55.6162C96.3438 55.4982 96.4228 55.3803 96.5043 55.2587C98.5958 52.0409 99.3558 48.1738 99.5432 44.399C100.635 43.8902 101.723 43.4531 102.877 43.1076C103.034 43.0607 103.19 43.0138 103.351 42.9654C105.856 42.2415 108.436 41.7637 110.999 41.2899C111.166 41.2585 111.333 41.227 111.505 41.1946C111.649 41.1684 111.794 41.1421 111.942 41.1151C112.521 40.9648 112.857 40.7028 113.256 40.2664C113.703 39.5006 113.741 38.6919 113.632 37.8244C113.307 36.937 112.927 36.4484 112.129 35.946C111.559 35.8344 111.005 35.8392 110.426 35.8521C110.261 35.8543 110.096 35.8566 109.926 35.8589C106.59 35.9569 103.321 36.9386 100.227 38.1407C99.5432 38.388 99.5432 38.388 98.9797 38.388C98.9247 38.2409 98.9247 38.2409 98.8686 38.0908C97.7798 35.2069 96.6101 32.4578 94.5712 30.1074C94.2835 29.7471 94.2835 29.7471 94.0957 29.1836C94.2197 29.1836 94.3437 29.1836 94.4714 29.1836C94.521 29.0734 94.5706 28.9633 94.6217 28.8498C94.8559 28.4159 95.1071 28.1161 95.4473 27.7608C95.5656 27.6362 95.6839 27.5116 95.8057 27.3832C95.9937 27.1876 95.9937 27.1876 96.1855 26.9881C96.4427 26.7178 96.6998 26.4473 96.9567 26.1766C97.1413 25.9822 97.1413 25.9822 97.3297 25.7838C97.7302 25.357 98.1159 24.9187 98.4983 24.4757C99.0423 23.8572 99.6183 23.3165 100.247 22.7851C100.665 22.4258 101.07 22.0545 101.474 21.6793C108.78 14.8943 118.111 9.24709 128.096 7.76922C128.322 7.73363 128.548 7.69803 128.78 7.66136C129.944 7.52293 131.117 7.53918 132.287 7.53441Z" fill="#F4A99C"/>
<path d="M89.9631 62.4321C90.5591 62.5216 90.9258 62.7366 91.3939 63.1065C91.522 63.2064 91.6501 63.3063 91.7821 63.4092C91.918 63.5168 92.0538 63.6244 92.1938 63.7353C92.4826 63.9599 92.7717 64.1842 93.0611 64.4082C93.2046 64.5195 93.3481 64.6308 93.496 64.7454C97.9945 68.2029 102.945 70.9582 107.996 73.515C108.222 73.6301 108.222 73.6301 108.452 73.7475C110.288 74.6771 112.16 75.4538 114.089 76.1683C114.414 76.2889 114.414 76.2889 114.745 76.4119C115.73 76.7729 116.712 77.1142 117.724 77.3959C119.965 78.0361 121.028 78.7994 122.213 80.8071C122.661 81.5491 123.165 82.2537 123.658 82.966C123.865 83.2704 124.072 83.5749 124.279 83.8795C125.804 86.1089 127.421 88.2741 129.025 90.4466C129.715 91.3813 130.4 92.3187 131.078 93.2622C131.157 93.3723 131.237 93.4824 131.319 93.5959C131.853 94.3434 131.853 94.3434 131.853 94.5536C130.325 94.4656 128.815 94.297 127.297 94.1075C123.573 93.6512 119.817 93.2045 116.062 93.1565C115.892 93.1524 115.723 93.1482 115.548 93.1439C114.263 93.1482 113.29 93.4159 112.348 94.321C112.008 94.7006 111.69 95.0901 111.377 95.4929C111.28 95.6166 111.183 95.7404 111.082 95.8679C110.789 96.2451 110.502 96.6256 110.215 97.0074C109.329 98.1773 108.427 99.3327 107.507 100.476C106.948 101.17 106.394 101.868 105.846 102.569C104.17 104.714 104.17 104.714 103.488 105.449C103.364 105.449 103.24 105.449 103.112 105.449C100.108 99.1875 97.5057 92.7762 95.0349 86.2885C94.9537 86.0754 94.9537 86.0754 94.8709 85.858C93.2929 81.7139 91.7638 77.5519 90.2449 73.3858C90.1654 73.1683 90.0859 72.9507 90.004 72.7266C89.0076 69.9975 88.0468 67.2604 87.1454 64.4984C87.6875 63.9402 88.1952 63.5367 88.8712 63.1483C89.4515 62.8362 89.4515 62.8362 89.9631 62.4321Z" fill="#F4A99C"/>
<path d="M64.9796 62.4746C65.5705 62.7032 66.091 63.0444 66.6234 63.3831C66.793 63.4894 66.793 63.4894 66.966 63.5978C67.2437 63.7719 67.5206 63.9472 67.7974 64.1228C67.4823 65.8034 66.9109 67.395 66.3533 69.0067C66.2998 69.1622 66.2463 69.3177 66.1912 69.4779C57.3739 95.0769 57.3739 95.0769 51.8306 105.637C51.7066 105.637 51.5826 105.637 51.4549 105.637C51.1613 105.291 50.8902 104.944 50.6213 104.58C50.4515 104.354 50.2815 104.129 50.1113 103.903C50.0232 103.786 49.9351 103.669 49.8443 103.548C49.4183 102.986 48.9807 102.433 48.5433 101.88C47.8924 101.054 47.2464 100.225 46.6061 99.3907C46.3718 99.0858 46.1375 98.7809 45.9032 98.4761C45.705 98.2181 45.5068 97.96 45.3088 97.7019C44.9593 97.2468 44.6087 96.7925 44.2581 96.3382C44.0927 96.1224 44.0927 96.1224 43.924 95.9022C42.6776 94.2694 42.6776 94.2694 40.9356 93.2388C40.3698 93.1762 39.8573 93.1499 39.2919 93.1566C39.12 93.1576 38.948 93.1586 38.7708 93.1597C34.4178 93.2466 30.0171 93.8021 25.7062 94.3914C24.8889 94.5023 24.1057 94.5807 23.2781 94.5537C23.5591 93.6779 24.0709 93.0526 24.6517 92.3582C25.8556 90.8869 26.9677 89.3588 28.0692 87.8101C28.3215 87.4555 28.5749 87.1018 28.8291 86.7486C29.6277 85.6372 30.4166 84.5192 31.2006 83.3973C31.428 83.0721 31.6559 82.7473 31.8842 82.4228C32.3955 81.6954 32.9023 80.9667 33.3909 80.2239C33.4723 80.1029 33.5536 79.982 33.6375 79.8574C33.8513 79.539 34.0615 79.2182 34.2715 78.8972C34.8591 78.2679 35.4382 78.0758 36.2394 77.8355C36.6264 77.7074 37.0131 77.5784 37.3995 77.4488C37.6143 77.3775 37.8291 77.3063 38.0504 77.2329C47.1625 74.1816 57.3316 69.3714 64.2987 62.6183C64.604 62.4322 64.604 62.4322 64.9796 62.4746Z" fill="#F4A99C"/>
<path d="M86.9576 31.4377C90.1199 33.933 91.8751 37.3374 92.7808 41.2056C92.8166 41.3531 92.8525 41.5005 92.8894 41.6525C93.4098 44.886 92.7011 48.2483 91.278 51.1614C91.1996 51.3299 91.1211 51.4985 91.0403 51.6721C89.3071 55.1385 86.2204 57.6869 82.5858 58.9717C78.4193 60.3467 74.336 60.0575 70.4035 58.1084C66.5855 56.1064 64.0057 52.8871 62.6669 48.8016C61.4075 44.3371 61.8928 40.1033 64.0053 36.0046C64.601 34.9553 65.3148 34.0361 66.1068 33.1283C66.2022 33.0149 66.2976 32.9016 66.3959 32.7849C71.6447 27.0247 80.9783 26.8648 86.9576 31.4377Z" fill="#F4A99C"/>
</svg>
