<svg width="180" height="230" viewBox="0 0 180 230" fill="none" xmlns="http://www.w3.org/2000/svg">
<path d="M38.1156 12.5719C38.3178 12.6718 38.52 12.7718 38.7283 12.8748C42.0061 14.5061 45.1168 16.4144 48.232 18.3322C49.1879 18.9207 50.1464 19.5047 51.1068 20.0859C51.3567 20.2372 51.6066 20.3886 51.8641 20.5445C52.3279 20.8251 52.7917 21.1056 53.2557 21.3858C53.4653 21.5131 53.6749 21.6404 53.8908 21.7715C54.091 21.8928 54.2911 22.0142 54.4972 22.1393C55.2674 22.6265 56.0039 23.1576 56.7353 23.7012C57.6351 24.1488 58.4203 24.0457 59.3718 23.7922C59.5921 23.7116 59.8124 23.631 60.0394 23.548C60.2925 23.4582 60.5457 23.3684 60.8065 23.2759C61.0784 23.1785 61.3502 23.0811 61.6303 22.9807C70.6063 19.8853 79.9911 18.5211 89.463 18.5717C89.7188 18.5726 89.9746 18.5734 90.2382 18.5743C100.35 18.6128 110.078 20.2386 119.724 23.3027C119.954 23.3743 120.184 23.4459 120.422 23.5197C121.023 23.7231 121.023 23.7231 121.797 24.1029C122.948 24.2807 123.661 23.5715 124.568 22.9201C125.002 22.6243 125.436 22.3295 125.87 22.0357C126.104 21.8767 126.338 21.7177 126.578 21.5539C127.91 20.6678 129.276 19.8387 130.644 19.0111C130.787 18.9244 130.93 18.8376 131.078 18.7483C135.144 16.2884 139.264 13.8999 143.552 11.8452C144.115 11.5718 144.674 11.2892 145.233 11.0066C149.209 9.02173 153.446 7.20607 157.946 7.17806C158.144 7.17306 158.342 7.16806 158.546 7.1629C160.492 7.1505 162.079 7.62837 163.529 8.97347C167.299 13.1701 167.744 19.8401 168.295 25.1777C168.321 25.4331 168.321 25.4331 168.349 25.6936C169.111 33.4532 168.381 41.3905 167.582 49.1165C167.552 49.414 167.552 49.414 167.522 49.7175C167.151 53.3604 167.151 53.3604 166.773 54.9971C166.005 58.327 167.011 60.4672 168.456 63.4997C172.01 71.2694 172.819 79.7899 172.658 88.2065C172.92 88.2058 172.92 88.2058 173.188 88.205C178.091 88.1963 178.091 88.1963 179.128 89.0399C179.967 89.9695 180.016 90.5486 179.997 91.7652C179.892 92.6586 179.567 93.1296 178.961 93.7822C176.906 95.0403 174.46 94.5086 172.173 94.267C172.148 94.4698 172.148 94.4698 172.122 94.6766C171.759 97.5171 171.307 100.25 170.476 102.994C170.774 103.056 171.073 103.117 171.38 103.181C171.776 103.265 172.171 103.349 172.567 103.433C172.763 103.474 172.959 103.514 173.161 103.555C174.572 103.859 175.772 104.223 176.87 105.206C177.421 106.18 177.487 106.991 177.264 108.085C176.848 108.89 176.271 109.399 175.506 109.888C173.783 110.24 171.99 109.645 170.34 109.161C170.142 109.104 169.943 109.047 169.739 108.989C169.257 108.851 168.776 108.71 168.295 108.57C168.253 108.704 168.212 108.839 168.17 108.977C167.75 110.301 167.239 111.514 166.582 112.736C166.488 112.913 166.393 113.09 166.295 113.273C164.763 116.068 162.879 118.508 160.661 120.797C160.409 121.058 160.158 121.321 159.908 121.585C155.139 126.634 148.58 131.276 141.871 133.296C142.166 133.521 142.166 133.521 142.467 133.75C145.098 135.759 147.644 137.824 150.062 140.087C150.561 140.553 151.063 141.014 151.573 141.468C152.713 142.484 153.791 143.498 154.771 144.668C155.082 145.033 155.405 145.387 155.735 145.735C158.527 148.678 160.822 152.019 162.719 155.599C162.832 155.804 162.946 156.008 163.063 156.219C165.113 160.061 166.116 164.444 164.91 168.709C163.777 171.892 161.817 173.932 158.84 175.477C153.462 177.676 148.112 177.714 142.736 175.473C142.366 175.315 141.997 175.154 141.628 174.992C141.673 175.164 141.717 175.336 141.763 175.513C142.365 177.97 142.725 180.443 143.068 182.947C143.115 183.286 143.115 183.286 143.162 183.631C147.799 217.313 147.799 217.313 142.848 223.865C139.797 227.173 135.107 228.732 130.72 229.052C129.356 229.099 127.993 229.111 126.629 229.112C126.345 229.113 126.345 229.113 126.056 229.113C120.827 229.109 114.847 228.714 110.812 224.948C108.728 222.652 107.85 219.93 107.16 216.976C107.119 216.807 107.078 216.638 107.037 216.464C106.782 215.304 106.666 214.163 106.586 212.978C106.566 212.673 106.545 212.369 106.524 212.056C106.509 211.825 106.493 211.593 106.478 211.355C106.322 211.37 106.167 211.384 106.006 211.399C101.127 211.834 96.2778 211.916 91.3819 211.903C90.3395 211.901 89.2972 211.902 88.2549 211.905C83.3171 211.916 78.4298 211.79 73.5088 211.355C73.4935 211.569 73.4783 211.782 73.4625 212.002C73.4314 212.425 73.4314 212.425 73.3996 212.856C73.3693 213.274 73.3693 213.274 73.3382 213.7C73.2442 214.755 73.0685 215.776 72.8421 216.81C72.7996 217.005 72.757 217.201 72.7132 217.402C71.8916 221.016 70.5085 223.927 67.4483 226.143C63.3606 228.626 58.7535 229.099 54.0847 229.11C53.5172 229.112 52.9499 229.12 52.3824 229.128C46.9925 229.166 41.7626 228.132 37.6914 224.37C34.5475 221.041 34.6063 217.226 34.646 212.916C34.6474 212.657 34.6487 212.398 34.6501 212.132C34.7 202.653 35.5657 193.265 36.7975 183.871C36.8217 183.686 36.8459 183.501 36.8708 183.31C37.2266 180.608 37.6538 177.921 38.1156 175.235C37.8141 175.334 37.5125 175.434 37.2018 175.536C31.5199 177.387 26.3357 177.99 20.7978 175.326C17.9419 173.856 16.0415 171.666 14.8908 168.666C13.5636 163.948 15.3129 158.945 17.5625 154.815C19.4486 151.486 21.7009 148.525 24.2892 145.713C24.733 145.229 25.1604 144.736 25.5856 144.236C27.3449 142.219 29.2864 140.358 31.3279 138.63C31.5822 138.409 31.8363 138.187 32.0902 137.966C33.9652 136.336 35.8865 134.788 37.8732 133.296C37.7341 133.234 37.5951 133.172 37.4518 133.108C36.9958 132.902 36.5408 132.695 36.0863 132.486C35.4538 132.197 34.8201 131.915 34.1829 131.637C29.8065 129.69 25.9118 127.044 22.3584 123.842C22.1553 123.668 21.9522 123.494 21.7429 123.315C20.5404 122.279 19.4845 121.19 18.4797 119.963C18.2831 119.73 18.0866 119.497 17.8841 119.257C15.2739 116.099 13.1706 112.526 11.4496 108.812C10.1678 108.915 9.04278 109.186 7.81327 109.57C6.45275 109.968 5.54338 110.179 4.17699 109.782C3.22195 109.2 2.76384 108.684 2.48006 107.6C2.35995 106.659 2.43964 106.225 2.87399 105.373C4.03919 103.993 5.60416 103.761 7.29813 103.433C7.51125 103.391 7.72437 103.348 7.94395 103.303C8.4657 103.198 8.98774 103.095 9.5102 102.994C9.47603 102.842 9.44185 102.689 9.40663 102.532C8.79332 99.7864 8.18781 97.0571 7.81327 94.267C7.54931 94.2765 7.54931 94.2765 7.28002 94.2863C6.47805 94.3115 5.67616 94.3272 4.87394 94.3428C4.59708 94.3529 4.32021 94.3631 4.03495 94.3736C1.73097 94.407 1.73097 94.407 0.845625 93.6865C0.122366 92.8519 0.0184303 92.4686 0.0104164 91.3883C0.0052603 91.0742 0.0052603 91.0742 0 90.7538C0.0821608 89.8598 0.335934 89.3546 1.01039 88.7671C2.56245 88.102 4.29847 88.196 5.96388 88.2018C6.34939 88.2028 6.34939 88.2028 6.74269 88.2039C6.93598 88.2048 7.12928 88.2056 7.32843 88.2065C7.32463 88.0068 7.32082 87.8071 7.31689 87.6013C7.17174 78.793 8.41206 70.1907 12.067 62.0774C12.1686 61.8517 12.2702 61.626 12.3749 61.3935C12.5689 60.9719 12.7687 60.5528 12.9754 60.1373C13.7042 58.578 13.6754 57.4016 13.3889 55.7224C13.3562 55.5158 13.3236 55.3093 13.2899 55.0964C13.2195 54.6648 13.1467 54.2335 13.0719 53.8026C11.3041 43.454 10.598 32.4658 11.9344 22.0262C11.9591 21.8235 11.9838 21.6207 12.0092 21.4119C12.564 16.9922 13.4889 11.521 17.0252 8.45075C23.3646 4.4389 32.3875 9.72003 38.1156 12.5719Z" fill="#FBE9CC"/>
<path d="M38.1156 12.5719C38.3178 12.6718 38.52 12.7718 38.7283 12.8748C42.0061 14.5061 45.1168 16.4144 48.232 18.3322C49.1879 18.9207 50.1464 19.5047 51.1068 20.0859C51.3567 20.2372 51.6066 20.3886 51.8641 20.5445C52.3279 20.8251 52.7917 21.1056 53.2557 21.3858C53.4653 21.5131 53.6749 21.6404 53.8908 21.7715C54.091 21.8928 54.2911 22.0142 54.4972 22.1393C55.2674 22.6265 56.0039 23.1576 56.7353 23.7012C57.6351 24.1488 58.4203 24.0457 59.3718 23.7922C59.5921 23.7116 59.8124 23.631 60.0394 23.548C60.2925 23.4582 60.5457 23.3684 60.8065 23.2759C61.0784 23.1785 61.3502 23.0811 61.6303 22.9807C70.6063 19.8853 79.9911 18.5211 89.463 18.5717C89.7188 18.5726 89.9746 18.5734 90.2382 18.5743C100.35 18.6128 110.078 20.2386 119.724 23.3027C119.954 23.3743 120.184 23.4459 120.422 23.5197C121.023 23.7231 121.023 23.7231 121.797 24.1029C122.948 24.2807 123.661 23.5715 124.568 22.9201C125.002 22.6243 125.436 22.3295 125.87 22.0357C126.104 21.8767 126.338 21.7177 126.578 21.5539C127.91 20.6678 129.276 19.8387 130.644 19.0111C130.787 18.9244 130.93 18.8376 131.078 18.7483C135.144 16.2884 139.264 13.8999 143.552 11.8452C144.115 11.5718 144.674 11.2892 145.233 11.0066C149.209 9.02173 153.446 7.20607 157.946 7.17806C158.144 7.17306 158.342 7.16806 158.546 7.1629C160.492 7.1505 162.079 7.62837 163.529 8.97347C167.299 13.1701 167.744 19.8401 168.295 25.1777C168.321 25.4331 168.321 25.4331 168.349 25.6936C169.111 33.4532 168.381 41.3905 167.582 49.1165C167.552 49.414 167.552 49.414 167.522 49.7175C167.151 53.3604 167.151 53.3604 166.773 54.9971C166.005 58.327 167.011 60.4672 168.456 63.4997C172.01 71.2694 172.819 79.7899 172.658 88.2065C172.92 88.2058 172.92 88.2058 173.188 88.205C178.091 88.1963 178.091 88.1963 179.128 89.0399C179.967 89.9695 180.016 90.5486 179.997 91.7652C179.892 92.6586 179.567 93.1296 178.961 93.7822C176.906 95.0403 174.46 94.5086 172.173 94.267C172.148 94.4698 172.148 94.4698 172.122 94.6766C171.759 97.5171 171.307 100.25 170.476 102.994C170.774 103.056 171.073 103.117 171.38 103.181C171.776 103.265 172.171 103.349 172.567 103.433C172.763 103.474 172.959 103.514 173.161 103.555C174.572 103.859 175.772 104.223 176.87 105.206C177.421 106.18 177.487 106.991 177.264 108.085C176.848 108.89 176.271 109.399 175.506 109.888C173.783 110.24 171.99 109.645 170.34 109.161C170.142 109.104 169.943 109.047 169.739 108.989C169.257 108.851 168.776 108.71 168.295 108.57C168.253 108.704 168.212 108.839 168.17 108.977C167.75 110.301 167.239 111.514 166.582 112.736C166.488 112.913 166.393 113.09 166.295 113.273C164.763 116.068 162.879 118.508 160.661 120.797C160.409 121.058 160.158 121.321 159.908 121.585C155.139 126.634 148.58 131.276 141.871 133.296C142.166 133.521 142.166 133.521 142.467 133.75C145.098 135.759 147.644 137.824 150.062 140.087C150.561 140.553 151.063 141.014 151.573 141.468C152.713 142.484 153.791 143.498 154.771 144.668C155.082 145.033 155.405 145.387 155.735 145.735C158.527 148.678 160.822 152.019 162.719 155.599C162.832 155.804 162.946 156.008 163.063 156.219C165.113 160.061 166.116 164.444 164.91 168.709C163.777 171.892 161.817 173.932 158.84 175.477C153.462 177.676 148.112 177.714 142.736 175.473C142.366 175.315 141.997 175.154 141.628 174.992C141.673 175.164 141.717 175.336 141.763 175.513C142.365 177.97 142.725 180.443 143.068 182.947C143.115 183.286 143.115 183.286 143.162 183.631C147.799 217.313 147.799 217.313 142.848 223.865C139.797 227.173 135.107 228.732 130.72 229.052C129.356 229.099 127.993 229.111 126.629 229.112C126.345 229.113 126.345 229.113 126.056 229.113C120.827 229.109 114.847 228.714 110.812 224.948C108.728 222.652 107.85 219.93 107.16 216.976C107.119 216.807 107.078 216.638 107.037 216.464C106.782 215.304 106.666 214.163 106.586 212.978C106.566 212.673 106.545 212.369 106.524 212.056C106.509 211.825 106.493 211.593 106.478 211.355C106.322 211.37 106.167 211.384 106.006 211.399C101.127 211.834 96.2778 211.916 91.3819 211.903C90.3395 211.901 89.2972 211.902 88.2549 211.905C83.3171 211.916 78.4298 211.79 73.5088 211.355C73.4935 211.569 73.4783 211.782 73.4625 212.002C73.4314 212.425 73.4314 212.425 73.3996 212.856C73.3693 213.274 73.3693 213.274 73.3382 213.7C73.2442 214.755 73.0685 215.776 72.8421 216.81C72.7996 217.005 72.757 217.201 72.7132 217.402C71.8916 221.016 70.5085 223.927 67.4483 226.143C63.3606 228.626 58.7535 229.099 54.0847 229.11C53.5172 229.112 52.9499 229.12 52.3824 229.128C46.9925 229.166 41.7626 228.132 37.6914 224.37C34.5475 221.041 34.6063 217.226 34.646 212.916C34.6474 212.657 34.6487 212.398 34.6501 212.132C34.7 202.653 35.5657 193.265 36.7975 183.871C36.8217 183.686 36.8459 183.501 36.8708 183.31C37.2266 180.608 37.6538 177.921 38.1156 175.235C37.8141 175.334 37.5125 175.434 37.2018 175.536C31.5199 177.387 26.3357 177.99 20.7978 175.326C17.9419 173.856 16.0415 171.666 14.8908 168.666C13.5636 163.948 15.3129 158.945 17.5625 154.815C19.4486 151.486 21.7009 148.525 24.2892 145.713C24.733 145.229 25.1604 144.736 25.5856 144.236C27.3449 142.219 29.2864 140.358 31.3279 138.63C31.5822 138.409 31.8363 138.187 32.0902 137.966C33.9652 136.336 35.8865 134.788 37.8732 133.296C37.7341 133.234 37.5951 133.172 37.4518 133.108C36.9958 132.902 36.5408 132.695 36.0863 132.486C35.4538 132.197 34.8201 131.915 34.1829 131.637C29.8065 129.69 25.9118 127.044 22.3584 123.842C22.1553 123.668 21.9522 123.494 21.7429 123.315C20.5404 122.279 19.4845 121.19 18.4797 119.963C18.2831 119.73 18.0866 119.497 17.8841 119.257C15.2739 116.099 13.1706 112.526 11.4496 108.812C10.1678 108.915 9.04278 109.186 7.81327 109.57C6.45275 109.968 5.54338 110.179 4.17699 109.782C3.22195 109.2 2.76384 108.684 2.48006 107.6C2.35995 106.659 2.43964 106.225 2.87399 105.373C4.03919 103.993 5.60416 103.761 7.29813 103.433C7.51125 103.391 7.72437 103.348 7.94395 103.303C8.4657 103.198 8.98774 103.095 9.5102 102.994C9.47603 102.842 9.44185 102.689 9.40663 102.532C8.79332 99.7864 8.18781 97.0571 7.81327 94.267C7.54931 94.2765 7.54931 94.2765 7.28002 94.2863C6.47805 94.3115 5.67616 94.3272 4.87394 94.3428C4.59708 94.3529 4.32021 94.3631 4.03495 94.3736C1.73097 94.407 1.73097 94.407 0.845625 93.6865C0.122366 92.8519 0.0184303 92.4686 0.0104164 91.3883C0.0052603 91.0742 0.0052603 91.0742 0 90.7538C0.0821608 89.8598 0.335934 89.3546 1.01039 88.7671C2.56245 88.102 4.29847 88.196 5.96388 88.2018C6.34939 88.2028 6.34939 88.2028 6.74269 88.2039C6.93598 88.2048 7.12928 88.2056 7.32843 88.2065C7.32463 88.0068 7.32082 87.8071 7.31689 87.6013C7.17174 78.793 8.41206 70.1907 12.067 62.0774C12.1686 61.8517 12.2702 61.626 12.3749 61.3935C12.5689 60.9719 12.7687 60.5528 12.9754 60.1373C13.7042 58.578 13.6754 57.4016 13.3889 55.7224C13.3562 55.5158 13.3236 55.3093 13.2899 55.0964C13.2195 54.6648 13.1467 54.2335 13.0719 53.8026C11.3041 43.454 10.598 32.4658 11.9344 22.0262C11.9591 21.8235 11.9838 21.6207 12.0092 21.4119C12.564 16.9922 13.4889 11.521 17.0252 8.45075C23.3646 4.4389 32.3875 9.72003 38.1156 12.5719ZM20.9039 14.1324C19.8133 15.5297 19.351 16.9128 18.9342 18.6172C18.8958 18.7715 18.8573 18.9257 18.8177 19.0847C17.8526 23.3148 17.9069 27.607 17.9191 31.9199C17.9196 32.2459 17.92 32.5718 17.9204 32.8977C17.9337 39.8596 18.3526 46.6478 19.54 53.5101C20.0323 56.4474 20.4308 59.132 18.9797 61.8283C15.1038 69.7367 12.955 79.3748 13.3889 88.2065C13.8937 88.7113 14.9909 88.5163 15.6919 88.5399C17.314 88.6119 18.9076 88.7431 20.51 89.0096C20.7624 89.0479 20.7624 89.0479 21.0199 89.0871C22.1059 89.2821 22.8018 89.5923 23.5705 90.3883C23.9236 91.2686 23.9422 92.1695 23.651 93.072C23.3036 93.7497 22.9758 94.1977 22.2969 94.553C19.8984 95.2695 16.8418 94.69 14.3586 94.5094C14.2794 95.9937 14.5717 97.2754 14.9495 98.7063C15.0053 98.9258 15.061 99.1454 15.1185 99.3715C15.3888 100.483 15.3888 100.483 15.8131 101.54C16.2323 101.505 16.6515 101.47 17.0706 101.434C17.3041 101.414 17.5375 101.394 17.778 101.374C18.4631 101.312 18.4631 101.312 19.0592 101.17C19.8868 101.019 20.6843 101.013 21.5251 101.009C21.8404 101.006 22.1557 101.002 22.4806 100.999C23.6787 101.078 23.6787 101.078 24.2978 101.54C24.7419 102.211 24.8651 102.787 24.8886 103.585C24.9032 103.855 24.9032 103.855 24.918 104.129C24.7115 104.986 24.3027 105.453 23.5705 105.903C22.6318 106.219 21.6794 106.404 20.7069 106.585C20.4465 106.637 20.186 106.69 19.9176 106.744C19.2774 106.872 18.6367 106.995 17.9949 107.115C19.0146 110.44 20.868 113.201 23.0857 115.842C23.2487 116.037 23.2487 116.037 23.415 116.235C29.0728 122.881 37.0075 126.792 45.2245 129.309C48.968 130.463 48.968 130.463 49.7517 131.842C49.9053 133.07 49.7581 133.763 49.0245 134.751C48.4364 135.075 48.4364 135.075 47.7366 135.327C43.2939 137.064 39.5139 139.612 36.0598 142.901C35.5657 143.368 35.0642 143.813 34.5494 144.255C31.7188 146.721 28.9723 149.437 26.7219 152.448C26.5045 152.731 26.287 153.014 26.0695 153.297C23.3618 156.863 20.2163 161.318 20.6615 166.023C20.9364 167.579 21.7593 168.483 22.954 169.475C25.496 171.236 28.6197 171.479 31.6025 170.957C33.4183 170.588 35.1387 170.036 36.8429 169.311C37.0018 169.244 37.1607 169.177 37.3243 169.108C38.457 168.596 39.4904 167.982 40.0018 166.796C40.1598 166.277 40.289 165.757 40.4101 165.228C40.4824 164.936 40.4824 164.936 40.5561 164.638C40.6583 164.223 40.7585 163.808 40.857 163.393C41.0103 162.747 41.1687 162.102 41.3287 161.458C41.5384 160.613 41.7466 159.769 41.9537 158.924C42.2991 157.522 42.6653 156.126 43.0549 154.735C43.1327 154.445 43.1327 154.445 43.212 154.148C43.5941 152.8 44.1075 151.672 45.2367 150.781C46.0189 150.446 46.4832 150.388 47.3275 150.508C48.0633 150.904 48.6084 151.249 49.1154 151.917C49.6029 153.624 49.031 155.282 48.5927 156.939C48.4479 157.502 48.3032 158.065 48.1585 158.627C48.0822 158.922 48.0059 159.216 47.9272 159.519C44.5672 172.516 42.2986 185.601 41.2671 198.992C41.2526 199.176 41.2382 199.361 41.2233 199.551C40.8972 203.755 40.7326 207.958 40.6973 212.175C40.6934 212.613 40.688 213.051 40.6811 213.49C40.5634 216.991 40.5634 216.991 42.1207 220.024C44.8334 222.762 49.5199 223.007 53.1433 223.038C59.3413 223.102 59.3413 223.102 64.6264 220.328C67.0593 217.344 67.2991 212.898 67.6388 209.209C67.7828 207.833 67.9316 206.837 68.9028 205.78C70.1039 204.938 71.0975 204.989 72.4936 205.113C72.6769 205.126 72.8602 205.139 73.049 205.152C73.7676 205.205 74.4837 205.267 75.1994 205.351C79.8761 205.896 84.6068 205.837 89.3088 205.84C89.6662 205.84 90.0237 205.841 90.3811 205.841C95.9075 205.85 101.387 205.71 106.887 205.119C108.409 204.993 109.536 204.909 110.841 205.78C112.28 207.539 112.394 209.542 112.629 211.719C113.22 216.758 113.22 216.758 115.826 220.991C119.554 223.809 126.155 223.339 130.522 222.78C133.321 222.369 136.214 221.828 138.174 219.613C139.368 217.987 139.491 216.308 139.481 214.334C139.48 214.147 139.48 213.961 139.479 213.768C139.455 210.971 139.296 208.178 139.144 205.386C139.128 205.088 139.111 204.789 139.095 204.482C138.362 191.138 136.674 177.875 133.423 164.898C133.382 164.734 133.341 164.57 133.299 164.401C132.885 162.751 132.466 161.103 132.038 159.457C131.916 158.99 131.796 158.522 131.676 158.054C131.527 157.478 131.377 156.903 131.224 156.328C130.862 154.916 130.592 153.664 130.72 152.205C131.245 151.341 131.729 150.884 132.659 150.508C133.188 150.471 133.188 150.471 133.735 150.523C133.914 150.536 134.094 150.549 134.279 150.562C135.114 150.842 135.483 151.293 136.053 151.963C136.35 152.61 136.531 153.274 136.712 153.962C136.766 154.156 136.82 154.35 136.876 154.549C137.05 155.176 137.218 155.804 137.386 156.432C137.505 156.863 137.623 157.293 137.742 157.723C138.421 160.198 139.07 162.679 139.53 165.206C139.792 166.534 140.159 167.257 141.144 168.205C144.842 170.568 149.325 171.711 153.658 170.841C155.954 170.247 157.552 169.319 158.826 167.295C159.738 165.36 159.327 163.523 158.692 161.578C156.82 156.644 153.642 152.671 150.113 148.811C149.906 148.579 149.699 148.346 149.485 148.107C147.93 146.369 146.289 144.774 144.537 143.236C144.416 143.127 144.294 143.019 144.169 142.907C140.655 139.79 136.878 136.957 132.386 135.448C131.62 135.178 131.192 134.983 130.553 134.463C130.113 133.521 129.955 132.614 130.235 131.6C131.079 130.542 131.824 130.18 133.114 129.827C133.461 129.726 133.808 129.624 134.154 129.522C134.342 129.467 134.529 129.412 134.723 129.356C142.468 127.035 149.03 123.534 154.961 118.024C155.126 117.876 155.29 117.727 155.46 117.574C158.385 114.82 160.819 110.943 161.992 107.115C161.822 107.085 161.652 107.054 161.477 107.023C160.703 106.882 159.931 106.734 159.158 106.585C158.891 106.537 158.624 106.49 158.348 106.441C155.809 105.942 155.809 105.942 154.961 104.691C154.755 103.943 154.809 103.267 154.961 102.509C155.396 101.813 155.685 101.42 156.416 101.055C158.974 100.839 161.429 101.31 163.931 101.782C164.435 100.491 164.856 99.2172 165.189 97.873C165.232 97.7089 165.274 97.5449 165.319 97.3759C165.563 96.3996 165.673 95.5147 165.628 94.5094C165.387 94.5269 165.147 94.5444 164.899 94.5625C163.234 94.6787 161.569 94.7768 159.901 94.8125C159.638 94.8187 159.375 94.825 159.103 94.8314C158.22 94.7375 157.653 94.4911 156.901 94.0246C156.356 93.1115 156.174 92.5121 156.174 91.4489C156.47 90.4493 156.809 90.0559 157.628 89.4186C158.698 88.9885 159.668 88.849 160.816 88.7804C160.975 88.7703 161.134 88.7602 161.298 88.7499C161.802 88.7184 162.306 88.6897 162.81 88.6611C163.154 88.6401 163.497 88.619 163.841 88.5976C164.679 88.546 165.517 88.4968 166.355 88.449C166.443 84.3426 166.384 80.3721 165.628 76.328C165.589 76.1166 165.55 75.9051 165.51 75.6873C164.546 70.6499 162.955 65.6666 160.717 61.049C159.569 58.5735 160.124 56.2189 160.529 53.6055C161.63 46.3976 162.054 39.1773 162.067 31.8896C162.068 31.6503 162.069 31.411 162.07 31.1644C162.078 26.9542 161.981 22.6594 160.946 18.5566C160.901 18.353 160.855 18.1494 160.808 17.9397C160.407 16.283 159.811 14.7547 158.355 13.784C157.017 13.6967 155.868 13.8456 154.583 14.2385C154.408 14.2913 154.234 14.3441 154.054 14.3985C144.209 17.5227 134.684 23.5955 126.311 29.5278C124.69 30.6477 123.231 31.1693 121.265 30.9957C120.519 30.7457 120.519 30.7457 119.75 30.3897C115.094 28.3804 109.992 27.3074 105.023 26.3897C104.829 26.3526 104.635 26.3155 104.435 26.2773C89.9316 23.5408 74.1655 25.1796 60.3837 30.3434C58.7794 30.94 57.4783 31.3278 55.8274 30.6624C53.4789 29.5321 51.3133 27.9854 49.1305 26.5716C45.4776 24.2109 41.753 21.9566 37.9247 19.8916C37.5587 19.6939 37.1932 19.4952 36.8284 19.2954C29.1399 14.7261 29.1399 14.7261 20.9039 14.1324Z" fill="black"/>
<path d="M89.7811 145.296C90.0651 145.298 90.3491 145.299 90.6416 145.301C96.0981 145.415 100.508 147.355 104.296 151.236C104.49 151.427 104.684 151.619 104.884 151.817C110.66 157.822 112.432 166.927 112.398 174.968C112.302 179.551 111.009 183.361 107.69 186.629C107.535 186.783 107.38 186.937 107.221 187.096C101.636 192.322 93.6092 192.245 86.4527 192.013C81.6738 191.813 77.0949 190.523 73.2663 187.598C73.0848 187.461 72.9032 187.324 72.7162 187.183C69.5692 184.625 67.9313 180.667 67.4889 176.708C67.3583 175.091 67.417 173.461 67.4483 171.841C67.4523 171.581 67.4564 171.321 67.4606 171.053C67.7944 163.881 70.5662 156.904 75.2057 151.478C75.3497 151.309 75.4938 151.14 75.6422 150.966C79.2668 147.053 84.555 145.266 89.7811 145.296Z" fill="#F2D3A3"/>
<path d="M106.337 146.064C106.543 146.251 106.75 146.437 106.963 146.63C107.167 146.814 107.371 146.998 107.581 147.187C111.385 150.803 113.805 155.516 115.447 160.447C115.536 160.706 115.625 160.965 115.717 161.231C117.706 167.53 118.284 174.859 116.659 181.295C116.62 181.453 116.581 181.611 116.541 181.773C115.283 186.618 111.987 190.658 107.712 193.208C102.194 196.295 96.3695 197.109 90.1447 197.113C89.8378 197.113 89.8378 197.113 89.5247 197.114C86.4022 197.11 83.3541 197.02 80.2964 196.325C80.1174 196.285 79.9383 196.245 79.7538 196.203C74.0854 194.863 68.6619 191.719 65.5341 186.714C61.6471 180.247 61.6905 171.397 63.4151 164.214C63.4661 164.011 63.517 163.808 63.5695 163.599C63.6202 163.393 63.6709 163.187 63.7231 162.975C65.1613 157.316 67.6976 152.224 71.5694 147.842C71.7916 147.589 71.7916 147.589 72.0182 147.331C80.7669 138.005 96.8453 137.907 106.337 146.064ZM74.3354 152.447C69.9916 157.861 67.7022 164.946 67.4482 171.841C67.4416 172.006 67.435 172.17 67.4282 172.34C67.2622 177.027 67.9579 181.326 70.8421 185.174C70.993 185.389 70.993 185.389 71.147 185.609C74.2966 189.73 79.9488 191.177 84.8155 191.893C86.5234 192.098 88.2456 192.07 89.9629 192.053C90.2653 192.051 90.2653 192.051 90.5738 192.05C97.217 192.009 103.27 191.04 108.175 186.144C108.41 185.912 108.41 185.912 108.651 185.676C112.157 181.978 112.486 177.128 112.372 172.306C112.074 164.482 109.576 156.679 104.053 150.993C103.915 150.839 103.776 150.686 103.633 150.527C100.596 147.259 95.9631 145.525 91.5765 145.324C84.5443 145.145 79.0564 147.067 74.3354 152.447Z" fill="black"/>
<path d="M144.492 87.5247C147.086 89.2996 148.661 91.7042 149.386 94.7518C149.791 98.544 148.979 101.427 146.602 104.416C144.665 106.573 141.927 107.701 139.092 107.902C135.65 108.017 132.844 107.026 130.236 104.754C127.964 102.392 127.008 99.4398 127.047 96.2271C127.197 93.1189 128.415 90.5544 130.72 88.4489C134.949 85.2739 139.88 84.797 144.492 87.5247Z" fill="#F4A99C"/>
<path d="M47.0851 86.9944C47.272 87.0875 47.4589 87.1806 47.6514 87.2766C50.0658 88.6364 51.8116 91.2368 52.6305 93.8427C53.3278 96.8075 53.0413 99.7794 51.5595 102.458C49.9622 104.878 47.6793 106.7 44.9034 107.6C41.8062 108.204 38.7165 108.045 35.9405 106.462C33.4117 104.743 31.5031 102.381 30.8431 99.3578C30.529 95.2035 31.0216 92.381 33.7066 89.1288C37.1674 85.3364 42.6482 84.7821 47.0851 86.9944Z" fill="#F4A99C"/>
<path d="M28.2967 22.154C29.9045 22.3708 31.3328 23.0285 32.7824 23.7231C32.9322 23.7944 33.082 23.8658 33.2363 23.9393C37.1455 25.8383 40.5854 28.485 43.9966 31.1508C44.3668 31.4401 44.7395 31.7261 45.1127 32.0117C45.798 32.5918 46.0918 32.9905 46.2054 33.8886C46.0927 34.82 45.8725 35.0212 45.161 35.6167C44.94 35.803 44.7191 35.9892 44.4915 36.1811C43.3953 37.0575 42.2752 37.9036 41.1548 38.7486C39.704 39.8472 38.3223 41.0094 36.9509 42.2047C36.2622 42.8044 35.5561 43.3792 34.843 43.9499C33.7849 44.807 32.7891 45.7148 31.7976 46.6468C29.7583 48.5513 29.7583 48.5513 28.7825 49.3892C28.605 49.5435 28.4275 49.6979 28.2447 49.857C27.6916 50.1467 27.6916 50.1467 26.9294 50.1211C26.2371 49.9043 26.2371 49.9043 25.7068 49.1316C23.8968 44.8806 23.9723 39.7031 23.9922 35.17C23.9948 34.4633 23.9922 33.7567 23.9891 33.05C23.9826 24.9863 23.9826 24.9863 25.8252 22.5848C26.5779 22.0069 27.3815 22.1286 28.2967 22.154Z" fill="#F4A99C"/>
<path d="M153.507 22.2685C155.305 23.6921 155.542 26.229 155.794 28.3858C156.414 34.9403 156.815 43.5963 153.992 49.6619C153.228 50.0439 152.625 50.1282 151.81 49.9043C151.057 49.3784 150.42 48.7454 149.768 48.0993C149.012 47.3544 148.235 46.631 147.462 45.9044C147.294 45.7463 147.126 45.5883 146.954 45.4255C145.63 44.1847 144.262 43.0316 142.841 41.9045C142.411 41.5515 141.982 41.1979 141.553 40.8439C140.537 40.0125 139.51 39.1983 138.477 38.3894C138.191 38.1637 137.904 37.938 137.618 37.7123C137.077 37.2861 136.531 36.8671 135.98 36.4529C135.619 36.174 135.619 36.174 135.25 35.8894C135.036 35.7279 134.822 35.5663 134.601 35.3999C133.987 34.7376 133.894 34.3155 133.871 33.4198C135.015 31.6698 136.809 30.5173 138.477 29.2987C138.633 29.1832 138.789 29.0677 138.95 28.9488C149.421 21.2291 149.421 21.2291 153.507 22.2685Z" fill="#F4A99C"/>
<path d="M90.0538 83.7672C90.2929 83.7602 90.5319 83.7532 90.7782 83.7459C92.4589 83.7315 93.8423 83.9959 95.3264 84.8127C96.1773 85.6636 96.4965 86.3233 96.6143 87.5247C96.4657 89.3367 95.5769 90.5001 94.2961 91.7367C93.8719 92.0852 93.8719 92.0852 93.1598 92.4034C92.6143 92.7611 92.6143 92.7611 92.5604 93.3172C92.4883 95.3561 93.0329 97.2987 94.3567 98.8729C95.9395 100.142 97.5229 100.648 99.5384 100.555C102.03 100.245 103.494 99.1037 105.069 97.2025C105.664 96.5095 105.874 96.46 106.796 96.373C107.829 96.4606 108.179 96.696 108.902 97.4184C109.323 98.2604 109.256 99.1644 109.144 100.085C107.891 102.499 105.433 104.301 102.929 105.242C100.159 106.095 96.9791 106.004 94.335 104.827C92.7905 103.998 91.4531 103.044 90.2356 101.782C89.5344 102.102 89.151 102.374 88.569 102.918C85.8507 105.317 82.6626 105.885 79.1594 105.715C75.856 105.397 73.5435 103.442 71.4557 101.035C70.7765 100.184 70.7481 99.5148 70.755 98.4516C70.8932 97.582 71.376 97.2079 72.0542 96.6912C72.7579 96.3393 73.2112 96.3585 73.9936 96.4488C74.8733 97.0536 75.4834 97.6947 76.145 98.5245C77.2266 99.7849 78.1287 100.253 79.7974 100.428C81.8314 100.528 83.7548 100.483 85.3872 99.1154C86.7717 97.5103 87.5009 95.8223 87.4667 93.696C87.2961 92.9154 87.0917 92.7229 86.4478 92.267C86.2716 92.1586 86.0953 92.0502 85.9137 91.9384C84.7741 91.2067 83.7575 90.0227 83.4479 88.6914C83.3167 87.4735 83.3123 86.554 83.8418 85.4338C85.5018 83.6428 87.783 83.7891 90.0538 83.7672Z" fill="black"/>
<path d="M125.407 73.4153C126.001 73.704 126.538 74.0183 127.083 74.3888C127.413 74.5913 127.413 74.5913 127.75 74.7979C129.432 76.5263 130.066 78.3455 130.069 80.7149C130.024 82.9383 129.274 84.5001 127.76 86.1007C126.023 87.736 124.24 88.1081 121.915 88.0713C120.114 87.8553 118.507 87.0354 117.265 85.7067C117.053 85.4157 116.851 85.1175 116.659 84.8128C116.56 84.6678 116.461 84.5228 116.358 84.3734C115.249 82.4155 115.329 79.6447 115.887 77.5147C116.692 75.7118 118.144 74.3852 119.884 73.4939C121.606 72.8846 123.659 72.8577 125.407 73.4153Z" fill="black"/>
<path d="M60.312 73.6766C62.0692 74.7279 63.3477 76.0872 64.0544 78.0249C64.6184 80.3416 64.4953 82.7093 63.3271 84.8127C62.1176 86.4188 60.7064 87.5433 58.7212 87.9641C56.4798 88.2324 54.7908 88.0035 52.9031 86.752C52.6431 86.587 52.3831 86.422 52.1153 86.252C50.6105 84.8505 49.9314 83.0055 49.8329 80.9908C49.811 78.7157 50.1295 77.0125 51.7128 75.293C54.0364 73.0885 57.3112 72.282 60.312 73.6766Z" fill="black"/>
<path d="M77.5181 64.9751C79.939 67.1064 81.8196 70.4361 82.1759 73.6859C82.5657 80.0705 80.0814 85.4646 75.9282 90.2322C75.5088 90.6944 75.0816 91.1478 74.6518 91.6003C74.4604 91.8232 74.27 92.0471 74.0808 92.2721C73.3381 93.13 72.5223 93.918 71.7126 94.712C71.1687 95.2486 70.6433 95.7901 70.1474 96.3715C69.3895 97.2422 68.584 98.0619 67.7716 98.8815C67.6133 99.0412 67.4551 99.2009 67.292 99.3655C66.9592 99.7007 66.6262 100.036 66.2929 100.37C65.868 100.797 65.4452 101.226 65.0228 101.656C64.6157 102.069 64.2061 102.479 63.7969 102.89C63.6466 103.043 63.4964 103.197 63.3415 103.355C62.3709 104.322 61.6369 104.921 60.2532 105.126C58.8971 104.939 57.8429 104.045 56.7529 103.267C55.6173 102.485 54.4386 101.768 53.2709 101.035C52.2986 100.423 51.3303 99.8056 50.3621 99.1876C49.5267 98.6546 48.6898 98.1244 47.8489 97.6002C44.8055 95.6969 41.8372 93.6676 39.1814 91.242C39.0782 91.1479 38.9751 91.0538 38.8688 90.9568C35.7046 88.03 33.2126 84.2783 33.0066 79.8524C33.0005 79.454 32.9987 79.0556 33.001 78.6572C33.002 78.4466 33.003 78.2361 33.0041 78.0192C33.0748 74.5515 34.3652 71.626 36.6734 69.0282C36.7745 68.9143 36.8757 68.8005 36.9799 68.6832C39.0947 66.4442 42.1005 64.9974 45.1757 64.8652C49.3453 64.7702 52.711 65.88 55.8418 68.6699C56.139 68.9104 56.4373 69.1497 56.7375 69.3865C56.8523 69.22 56.967 69.0535 57.0853 68.8819C59.4523 65.4813 62.661 62.8712 66.8444 62.12C70.7187 61.6468 74.4216 62.5685 77.5181 64.9751Z" fill="#FF6060"/>
<path d="M118.363 64.7287C119.659 65.7328 120.714 66.8629 121.638 68.2206C121.958 68.6882 122.304 69.1268 122.662 69.5656C122.75 69.4679 122.837 69.3702 122.927 69.2696C125.213 66.8381 128.5 64.9714 131.886 64.854C135.643 64.8157 138.617 65.5934 141.472 68.1325C141.65 68.2852 141.65 68.2852 141.831 68.4411C144.157 70.5842 145.78 73.9152 145.985 77.0692C145.999 77.6139 146 78.157 145.996 78.7019C145.997 78.8839 145.999 79.0659 146 79.2534C145.988 83.7966 143.685 87.4963 140.633 90.7046C137.929 93.3231 134.628 95.4395 131.462 97.449C130.814 97.8618 130.17 98.2807 129.526 98.6988C129.27 98.8645 129.014 99.0301 128.757 99.1957C128.318 99.4799 127.878 99.7645 127.439 100.049C126.451 100.688 125.459 101.318 124.461 101.94C124.27 102.059 124.079 102.178 123.882 102.3C123.502 102.537 123.121 102.773 122.741 103.009C121.984 103.479 121.237 103.946 120.522 104.478C120.032 104.818 119.762 104.987 119.18 105.047C119.059 105.064 118.937 105.081 118.811 105.098C117.539 104.922 116.601 104.095 115.734 103.208C115.624 103.099 115.514 102.989 115.401 102.876C115.041 102.516 114.683 102.154 114.326 101.792C114.074 101.539 113.822 101.287 113.57 101.034C113.043 100.506 112.517 99.9762 111.992 99.4457C111.322 98.7688 110.65 98.0938 109.978 97.4195C109.333 96.7726 108.689 96.1249 108.045 95.4771C107.923 95.355 107.802 95.233 107.677 95.1072C106.485 93.9081 105.303 92.7132 104.211 91.4211C103.961 91.1519 103.711 90.8831 103.46 90.615C101.621 88.5657 100.078 86.3541 98.8362 83.8971C98.7773 83.7817 98.7184 83.6663 98.6578 83.5475C96.8009 79.8384 96.2045 75.5528 97.4031 71.5362C98.0289 69.7308 98.8796 68.185 100.09 66.6993C100.176 66.5843 100.262 66.4693 100.351 66.3508C104.689 60.7905 113.009 61.053 118.363 64.7287Z" fill="#FF6060"/>
<path d="M118.363 64.7287C119.659 65.7328 120.714 66.8629 121.638 68.2206C121.958 68.6882 122.304 69.1268 122.662 69.5656C122.75 69.4679 122.837 69.3702 122.927 69.2696C125.213 66.8381 128.5 64.9714 131.886 64.854C135.643 64.8157 138.617 65.5934 141.472 68.1325C141.65 68.2852 141.65 68.2852 141.831 68.4411C144.157 70.5842 145.78 73.9152 145.985 77.0692C145.999 77.6139 146 78.157 145.996 78.7019C145.997 78.8839 145.999 79.0659 146 79.2534C145.988 83.7966 143.685 87.4963 140.633 90.7046C137.929 93.3231 134.628 95.4395 131.462 97.449C130.814 97.8618 130.17 98.2807 129.526 98.6988C129.27 98.8645 129.014 99.0301 128.757 99.1957C128.318 99.4799 127.878 99.7645 127.439 100.049C126.451 100.688 125.459 101.318 124.461 101.94C124.27 102.059 124.079 102.178 123.882 102.3C123.502 102.537 123.121 102.773 122.741 103.009C121.984 103.479 121.237 103.946 120.522 104.478C120.032 104.818 119.762 104.987 119.18 105.047C119.059 105.064 118.937 105.081 118.811 105.098C117.539 104.922 116.601 104.095 115.734 103.208C115.624 103.099 115.514 102.989 115.401 102.876C115.041 102.516 114.683 102.154 114.326 101.792C114.074 101.539 113.822 101.287 113.57 101.034C113.043 100.506 112.517 99.9762 111.992 99.4457C111.322 98.7688 110.65 98.0938 109.978 97.4195C109.333 96.7726 108.689 96.1249 108.045 95.4771C107.923 95.355 107.802 95.233 107.677 95.1072C106.485 93.9081 105.303 92.7132 104.211 91.4211C103.961 91.1519 103.711 90.8831 103.46 90.615C101.621 88.5657 100.078 86.3541 98.8362 83.8971C98.7773 83.7817 98.7184 83.6663 98.6578 83.5475C96.8009 79.8384 96.2045 75.5528 97.4031 71.5362C98.0289 69.7308 98.8796 68.185 100.09 66.6993C100.176 66.5843 100.262 66.4693 100.351 66.3508C104.689 60.7905 113.009 61.053 118.363 64.7287ZM104.569 68.849C104.454 68.9386 104.34 69.0282 104.222 69.1206C102.932 70.2583 101.819 72.4019 101.664 74.1127C101.406 79.9714 103.968 84.0012 107.793 88.1965C108.106 88.5215 108.422 88.8391 108.748 89.151C109.044 89.4467 109.312 89.7537 109.582 90.0727C110.374 90.9828 111.223 91.8327 112.078 92.6833C112.35 92.9546 112.621 93.2268 112.892 93.4991C113.745 94.3528 114.609 95.1833 115.526 95.9685C116.1 96.4739 116.63 97.0218 117.165 97.568C117.38 97.7879 117.596 98.0074 117.812 98.2265C117.952 98.3693 117.952 98.3693 118.094 98.515C118.519 98.9117 118.779 99.1252 119.371 99.1208C120.219 98.8743 120.861 98.4208 121.587 97.9263C121.908 97.7131 122.228 97.5001 122.548 97.2874C122.714 97.1767 122.88 97.0661 123.05 96.9521C123.88 96.4031 124.721 95.8719 125.562 95.3399C125.894 95.1289 126.227 94.9178 126.559 94.7066C126.718 94.6054 126.877 94.5042 127.041 94.4C135.939 89.1972 135.939 89.1972 141.17 80.7509C141.668 78.1189 141.077 75.4278 139.58 73.2269C138.276 71.5149 136.606 70.218 134.486 69.7448C132.65 69.6337 130.959 69.588 129.291 70.4613C129.052 70.5857 129.052 70.5857 128.809 70.7125C126.755 71.9061 125.197 73.5472 124.132 75.6586C123.674 76.522 123.228 76.8026 122.304 77.0896C121.486 77.2212 120.704 77.1387 119.975 76.7314C119.592 76.1568 119.569 75.9317 119.505 75.2646C119.145 72.962 117.881 70.9747 116.213 69.3865C116.095 69.2692 115.977 69.1518 115.856 69.031C113.929 67.2168 111.731 66.7675 109.168 66.8232C107.337 66.9113 105.974 67.7207 104.569 68.849Z" fill="black"/>
<path d="M77.5181 64.9751C79.939 67.1064 81.8196 70.4361 82.1759 73.6859C82.5657 80.0705 80.0814 85.4646 75.9282 90.2322C75.5089 90.6944 75.0816 91.1478 74.6518 91.6003C74.4604 91.8232 74.27 92.0471 74.0808 92.2721C73.3381 93.13 72.5223 93.918 71.7126 94.712C71.1687 95.2486 70.6433 95.7901 70.1474 96.3715C69.3895 97.2422 68.584 98.0619 67.7716 98.8815C67.6133 99.0412 67.4551 99.2009 67.292 99.3655C66.9592 99.7007 66.6262 100.036 66.2929 100.37C65.868 100.797 65.4452 101.226 65.0228 101.656C64.6157 102.069 64.2061 102.479 63.7969 102.89C63.6466 103.043 63.4964 103.197 63.3415 103.355C62.3709 104.322 61.6369 104.921 60.2532 105.126C58.8971 104.939 57.8429 104.045 56.7529 103.267C55.6173 102.485 54.4386 101.768 53.2709 101.035C52.2986 100.423 51.3303 99.8056 50.3621 99.1876C49.5267 98.6546 48.6898 98.1244 47.8489 97.6002C44.8055 95.6969 41.8372 93.6676 39.1814 91.242C39.0782 91.1479 38.9751 91.0538 38.8688 90.9568C35.7046 88.03 33.2126 84.2783 33.0066 79.8524C33.0005 79.454 32.9987 79.0556 33.001 78.6572C33.002 78.4466 33.003 78.2361 33.0041 78.0192C33.0748 74.5515 34.3652 71.626 36.6734 69.0282C36.7745 68.9143 36.8757 68.8005 36.9799 68.6832C39.0947 66.4442 42.1005 64.9974 45.1757 64.8652C49.3453 64.7702 52.711 65.88 55.8418 68.6699C56.139 68.9104 56.4373 69.1497 56.7375 69.3865C56.8523 69.22 56.967 69.0535 57.0853 68.8819C59.4523 65.4813 62.661 62.8712 66.8444 62.12C70.7187 61.6468 74.4216 62.5685 77.5181 64.9751ZM61.9319 70.3228C60.6622 71.875 59.8064 73.6203 59.6654 75.6299C59.5965 76.0604 59.4709 76.3594 59.2455 76.7314C58.4623 77.2208 57.4528 77.2196 56.5583 77.0896C55.729 76.7257 55.4767 76.2961 55.1028 75.4885C53.6988 72.7479 51.3326 70.8647 48.4682 69.7769C46.3138 69.1488 44.1297 69.6886 42.2045 70.7412C39.9939 72.1826 38.4552 74.167 37.849 76.7537C37.8071 77.0438 37.7737 77.3351 37.7483 77.6271C37.7337 77.7878 37.7192 77.9485 37.7042 78.1141C37.5712 81.1112 38.706 83.9427 40.7041 86.1476C44.2576 89.8732 49.0399 92.4943 53.3636 95.2204C54.2412 95.7754 55.1157 96.3352 55.9903 96.895C56.2813 97.0812 56.5725 97.2673 56.8637 97.4534C57.0419 97.5674 57.2201 97.6815 57.4037 97.7989C57.5702 97.905 57.7367 98.011 57.9082 98.1203C58.2673 98.354 58.6135 98.5971 58.96 98.8486C59.4995 99.1687 59.7043 99.212 60.3204 99.1243C60.7992 98.7957 60.7992 98.7957 61.2791 98.3098C61.3765 98.2166 61.474 98.1234 61.5745 98.0274C61.9357 97.6794 62.2926 97.3273 62.6492 96.9746C62.7984 96.8278 62.9476 96.6809 63.1013 96.5297C64.2586 95.389 65.4083 94.2408 66.5561 93.0905C66.9317 92.7144 67.3079 92.339 67.6842 91.9636C68.0509 91.5975 68.4172 91.231 68.7834 90.8644C69.0391 90.6086 69.2951 90.3531 69.5511 90.0976C73.7079 85.9259 77.3909 81.3156 77.3954 75.1899C77.3608 72.7136 76.4583 70.7517 74.8198 68.8938C73.2019 67.3782 70.8686 66.5976 68.6799 66.6552C65.898 66.9122 63.7715 68.2789 61.9319 70.3228Z" fill="black"/>
<path d="M93.9029 0.97271C94.3844 1.40218 94.6618 1.87898 94.8218 2.47476C94.8218 2.53484 94.8218 2.59492 94.8218 2.65682C94.8816 2.65917 94.8816 2.65917 94.9427 2.66157C100.332 2.96926 105.773 5.33181 109.353 9.01303C109.503 9.17776 109.647 9.34527 109.79 9.51466C109.859 9.59424 109.927 9.67382 109.996 9.75339C113.793 14.1955 115.108 19.9452 115.528 29.0754C115.529 29.1409 115.529 29.2065 115.529 29.274C115.53 29.4604 115.53 29.6469 115.529 29.8333C115.53 29.9154 115.53 29.9154 115.53 29.999C115.528 30.3052 115.487 30.5762 115.407 30.8731C115.366 31.0573 115.376 31.2262 115.394 31.4129C115.401 31.4916 115.408 31.5702 115.416 31.6513C115.458 32.0294 115.508 32.4066 115.559 32.7837C115.843 34.8585 115.995 36.9163 115.998 39.0072C115.998 39.1329 115.999 39.2586 115.999 39.3843C116.004 41.5948 116.004 41.5948 115.703 42.6583C115.689 42.7084 115.675 42.7585 115.66 42.8101C115.315 43.9639 114.583 44.997 113.435 45.6032C112.052 46.2146 110.599 46.0158 109.183 45.6359C109.133 45.6223 109.082 45.6087 109.03 45.5947C108.17 45.3529 107.352 45.0114 106.538 44.6654C106.27 44.5515 106.001 44.4386 105.732 44.3256C105.677 44.3025 105.622 44.2793 105.565 44.2554C104.044 43.6165 102.521 42.9817 100.942 42.4687C100.863 42.4428 100.863 42.4428 100.781 42.4163C100.065 42.1881 99.332 42.019 98.5972 41.8504C98.5304 41.8351 98.5304 41.8351 98.4622 41.8194C97.4829 41.5955 96.4972 41.4217 95.4996 41.2815C95.4532 41.2749 95.4069 41.2684 95.3592 41.2616C94.65 41.1615 93.9408 41.0652 93.2252 41.0122C93.1262 41.0045 93.1262 41.0045 93.0252 40.9966C90.0952 40.7915 87.122 40.9616 84.244 41.4977C84.1602 41.5132 84.0764 41.5288 83.9901 41.5448C81.6108 41.9923 79.3488 42.7123 77.1256 43.599C76.977 43.6578 76.8284 43.7166 76.6798 43.7754C75.8831 44.0912 75.0899 44.4134 74.3008 44.7445C72.331 45.5708 70.0462 46.4434 67.8783 45.7459C67.5936 45.625 67.3367 45.4857 67.08 45.3211C67.0325 45.2907 66.985 45.2604 66.936 45.2291C65.7963 44.409 65.3159 43.0238 65.1265 41.7611C65.1071 41.599 65.0906 41.4369 65.0759 41.2744C65.0703 41.2145 65.0648 41.1546 65.0591 41.0929C65.0015 40.415 64.9972 39.7383 65.001 39.0587C65.0012 38.9932 65.0014 38.9277 65.0016 38.8602C65.0055 37.6726 65.05 36.4914 65.1507 35.3074C65.1542 35.2652 65.1578 35.223 65.1614 35.1795C65.2505 34.1264 65.3721 33.0791 65.5319 32.033C65.6483 31.3899 65.6483 31.3899 65.5499 30.7557C65.5429 30.6198 65.54 30.4836 65.5391 30.3475C65.5388 30.3061 65.5385 30.2646 65.5382 30.2219C65.5372 30.0837 65.5367 29.9456 65.5363 29.8075C65.5359 29.7101 65.5354 29.6127 65.5349 29.5153C65.5336 29.2005 65.5333 28.8857 65.5332 28.571C65.5332 28.5176 65.5332 28.4642 65.5331 28.4092C65.5327 26.8074 65.5489 25.214 65.7326 23.6194C65.7502 23.4666 65.7671 23.3138 65.784 23.161C66.3484 18.1406 67.8787 13.0126 71.6038 9.15053C71.6545 9.0965 71.6545 9.0965 71.7063 9.04137C72.4946 8.20585 73.3589 7.43771 74.3314 6.78366C74.4015 6.73353 74.4713 6.68311 74.5409 6.63242C77.5814 4.42392 82.2888 2.59738 86.2398 2.65682C86.2426 2.58172 86.2453 2.50662 86.2481 2.42924C86.3321 1.77083 86.753 1.24549 87.3042 0.83616C89.1675 -0.393254 92.0844 -0.198306 93.9029 0.97271Z" fill="black"/>
<path d="M90.3562 27.8276C90.4001 27.8275 90.4441 27.8275 90.4894 27.8274C93.088 27.8253 95.6942 27.918 98.2766 28.1924C98.4301 28.2085 98.5837 28.2241 98.7374 28.2396C100.234 28.3908 101.724 28.5574 103.204 28.8138C103.258 28.823 103.311 28.8322 103.366 28.8417C105.041 29.1322 106.691 29.4667 108.327 29.9062C108.44 29.936 108.44 29.936 108.556 29.9665C109.742 30.2805 110.9 30.6567 112.052 31.0592C112.121 31.0831 112.19 31.1069 112.261 31.1315C112.442 31.1945 112.621 31.2592 112.801 31.3248C112.878 31.3518 112.878 31.3518 112.957 31.3794C113.296 31.5075 113.296 31.5075 113.393 31.6849C113.447 31.8411 113.478 31.9829 113.499 32.1452C113.51 32.2319 113.51 32.2319 113.522 32.3203C113.533 32.4137 113.533 32.4137 113.545 32.5089C113.553 32.5742 113.562 32.6395 113.57 32.7068C113.597 32.9199 113.623 33.1332 113.649 33.3465C113.662 33.4565 113.662 33.4565 113.676 33.5688C113.895 35.3868 113.993 37.1786 113.998 39.0067C113.998 39.1368 113.999 39.267 113.999 39.3972C114.011 42.6009 114.011 42.6009 112.98 43.6673C112.557 44.0235 112.044 44.1843 111.474 44.2022C110.915 44.1809 110.392 44.0679 109.857 43.9253C109.81 43.9129 109.763 43.9005 109.714 43.8877C108.657 43.5998 107.667 43.1505 106.669 42.7277C102.995 41.1745 99.3165 39.9707 95.2958 39.4229C95.2284 39.4135 95.161 39.4041 95.0916 39.3944C93.6358 39.2068 92.1653 39.1666 90.6971 39.1688C90.6141 39.1688 90.531 39.1689 90.4454 39.1689C86.0149 39.1769 81.7723 39.9357 77.6578 41.437C77.6159 41.4523 77.5739 41.4676 77.5307 41.4834C76.4468 41.8801 75.3864 42.3098 74.3377 42.7784C70.5069 44.4875 70.5069 44.4875 68.8549 44.1187C68.2371 43.9153 67.8718 43.5525 67.5623 43.0339C66.961 41.8335 66.9913 40.5365 66.9961 39.2447C66.997 39.0013 66.9961 38.758 66.9953 38.5146C66.9946 37.4199 67.0507 36.3378 67.1465 35.2468C67.1509 35.1947 67.1554 35.1426 67.16 35.0889C67.1937 34.6953 67.2342 34.3027 67.2809 33.9102C67.3194 33.5847 67.3501 33.2633 67.3551 32.9361C67.3762 31.754 67.3762 31.754 67.7572 31.4161C68.1637 31.1786 68.6139 31.0628 69.076 30.947C69.3581 30.8754 69.6312 30.7855 69.9056 30.6925C70.4685 30.5025 71.0348 30.3232 71.6038 30.1489C71.6731 30.1276 71.7425 30.1064 71.8139 30.0845C73.794 29.486 75.8538 29.1055 77.9055 28.7774C78.0547 28.7534 78.2038 28.729 78.3529 28.7045C80.5787 28.3399 82.8267 28.1437 85.0797 27.9793C85.1276 27.9757 85.1754 27.9721 85.2246 27.9684C86.9296 27.8422 88.6465 27.8285 90.3562 27.8276Z" fill="#AADCE7"/>
<path d="M95.2417 4.47355C95.315 4.48331 95.315 4.48331 95.3897 4.49327C99.4377 5.0426 103.481 6.4101 106.492 9.00317C106.641 9.13138 106.794 9.25342 106.95 9.37417C107.167 9.54595 107.355 9.73114 107.54 9.93104C107.669 10.069 107.804 10.201 107.94 10.3338C110.486 12.9235 111.889 16.3485 112.651 19.7102C112.676 19.816 112.701 19.9217 112.726 20.0274C113.451 23.1813 113.636 26.5093 113.582 29.7239C113.195 29.61 112.816 29.4839 112.438 29.3471C107.292 27.493 101.861 26.7129 95.6853 26.2346C95.5804 26.2272 95.4755 26.2196 95.3706 26.2117C94.0804 26.1164 92.7906 26.1121 91.4954 26.0826C91.4954 19.0129 91.4954 11.9433 91.4954 4.65941C91.8027 4.63938 92.1101 4.61936 92.4267 4.59872C92.6372 4.56129 92.8397 4.52261 93.0463 4.47355C93.7984 4.29604 94.4797 4.37173 95.2417 4.47355Z" fill="#AADCE7"/>
<path d="M87.9072 4.4357C88.4275 4.5706 88.9662 4.63906 89.4997 4.72018C89.4997 11.7698 89.4997 18.8194 89.4997 26.0826C88.4898 26.1027 87.4799 26.1227 86.4395 26.1433C85.8668 26.1715 85.2973 26.2017 84.7264 26.2457C84.6217 26.2534 84.6217 26.2534 84.515 26.2613C78.9176 26.6739 73.0639 27.4136 67.8946 29.5223C67.6788 29.6026 67.6788 29.6026 67.4792 29.6026C67.4325 26.9682 67.491 24.3246 67.9765 21.7207C68.0136 21.5192 68.0474 21.3174 68.0811 21.1154C68.7068 17.4676 70.0535 13.7234 72.6683 10.8497C72.7277 10.7832 72.787 10.7165 72.8463 10.6499C73.4355 9.99487 74.0861 9.39234 74.7972 8.84702C74.8605 8.79671 74.9238 8.74641 74.989 8.69458C77.8538 6.42703 83.978 3.38729 87.9072 4.4357Z" fill="#AADCE7"/>
<path d="M92.3437 2.31154C92.5251 2.50927 92.5489 2.64489 92.5599 2.89946C91.7562 3.44986 90.6538 3.40283 89.6909 3.31077C89.1995 3.24434 88.7827 3.08573 88.3687 2.83878C88.4124 2.53712 88.5169 2.4374 88.7699 2.25346C89.6807 1.68144 91.4472 1.73584 92.3437 2.31154Z" fill="#AADCE7"/>
</svg>
