<svg width="350" height="350" viewBox="0 0 350 350" fill="none" xmlns="http://www.w3.org/2000/svg">
<path d="M175.341 67.8359C178.641 70.5076 181.008 74.7388 181.594 78.9473C181.807 81.6282 181.834 84.3685 180.911 86.9248C181.284 86.9375 181.284 86.9375 181.666 86.9506C186.522 87.1448 191.231 87.838 195.954 88.9761C196.267 89.0496 196.267 89.0496 196.586 89.1246C202.38 90.4955 207.942 92.4876 213.276 95.1301C213.484 95.2326 213.692 95.3352 213.906 95.4408C218.333 97.6433 222.423 100.227 226.268 103.335C226.406 103.447 226.544 103.559 226.687 103.673C229.81 106.217 232.679 109.049 235.157 112.225C235.508 112.648 235.859 113.07 236.211 113.492C238.952 116.862 241.057 120.657 242.93 124.565C243.123 124.965 243.322 125.362 243.521 125.759C246.722 132.302 248.691 139.453 250.038 146.589C250.638 149.715 251.4 152.683 252.447 155.683C253.223 157.909 253.801 160.026 254.075 162.368C254.115 162.635 254.156 162.901 254.197 163.176C255.33 172.429 252.678 181.879 247.009 189.264C243.732 193.435 239.925 196.781 235.385 199.52C235.24 199.608 235.095 199.695 234.946 199.785C232.342 201.344 232.342 201.344 231.51 201.344C231.51 201.494 231.51 201.645 231.51 201.8C231.675 201.857 231.84 201.914 232.01 201.972C233.088 202.449 233.909 203.246 234.8 204.005C235.148 204.299 235.501 204.586 235.853 204.874C237.651 206.353 239.311 207.961 240.955 209.606C241.117 209.767 241.117 209.767 241.281 209.932C242.428 211.079 243.547 212.239 244.604 213.47C245.151 214.103 245.725 214.709 246.297 215.318C247.306 216.404 248.271 217.512 249.198 218.669C249.605 219.177 250.017 219.68 250.434 220.181C254.047 224.54 257.151 228.961 258.933 234.376C259.063 234.768 259.2 235.158 259.34 235.547C260.282 238.563 260.294 242.719 258.861 245.561C258.782 245.722 258.702 245.883 258.619 246.048C256.8 249.263 254.094 251.054 250.656 252.171C245.166 253.437 239.132 251.717 234.245 249.208C234.321 249.359 234.396 249.509 234.473 249.664C236.224 260.907 235.655 272.804 228.744 282.266C223.808 288.804 216.937 292.418 209.401 295.249C209.401 298.484 209.401 301.718 209.401 305.05C210.078 305.201 210.755 305.351 211.453 305.506C212.479 305.822 213.49 306.178 214.501 306.536C214.969 306.702 215.438 306.863 215.907 307.024C218.724 308.008 220.977 309.075 222.593 311.66C223.252 313.395 223.121 315.859 222.432 317.573C221.43 319.338 220.052 320.556 218.104 321.126C217.562 321.242 217.073 321.262 216.519 321.263C216.312 321.263 216.105 321.264 215.892 321.264C215.678 321.263 215.463 321.262 215.242 321.261C214.923 321.263 214.923 321.263 214.597 321.264C213.524 321.263 212.509 321.227 211.453 321.005C211.463 321.162 211.474 321.319 211.485 321.481C211.568 323.642 211.029 325.21 209.564 326.816C208.267 327.954 206.707 328.384 205.015 328.362C203.244 328.183 201.529 327.28 200.284 326.019C199.491 324.941 198.816 323.806 198.233 322.6C198.09 322.694 197.946 322.787 197.799 322.884C195.641 324.242 193.744 324.76 191.167 324.424C189.483 323.863 187.972 323.026 187.065 321.461C186.04 319.394 185.791 317.421 186.481 315.207C187.372 313.006 188.988 311.258 190.679 309.633C191.304 309.019 191.873 308.366 192.441 307.701C192.689 307.415 192.951 307.141 193.219 306.874C193.275 306.27 193.304 305.689 193.313 305.084C193.318 304.908 193.322 304.731 193.326 304.549C193.34 303.985 193.351 303.421 193.361 302.856C193.37 302.474 193.379 302.092 193.388 301.71C193.41 300.772 193.429 299.834 193.447 298.896C193.282 298.925 193.117 298.953 192.947 298.983C187.261 299.953 181.693 300.14 175.942 300.109C175.157 300.106 174.371 300.107 173.586 300.109C169.551 300.113 165.547 300.09 161.537 299.58C161.264 299.546 160.99 299.513 160.709 299.478C160.081 299.396 159.456 299.306 158.83 299.209C158.522 299.164 158.522 299.164 158.207 299.117C157.721 299.045 157.236 298.971 156.751 298.896C156.711 299.966 156.682 301.036 156.663 302.107C156.655 302.47 156.644 302.834 156.63 303.197C156.469 305.637 156.469 305.637 157.501 307.755C157.775 308.002 158.057 308.24 158.346 308.469C160.996 310.988 163.785 313.896 163.93 317.757C163.832 319.632 163.241 321.445 161.821 322.736C160.035 324.162 158.496 324.569 156.206 324.52C154.377 324.306 152.742 323.468 151.28 322.372C151.266 322.647 151.266 322.647 151.252 322.928C150.791 324.805 149.432 326.308 147.861 327.387C146.188 328.314 144.575 328.621 142.709 328.148C140.943 327.531 139.745 326.508 138.873 324.851C138.337 323.537 138.439 322.171 138.516 320.777C138.353 320.851 138.19 320.925 138.021 321.001C136.963 321.382 135.912 321.308 134.798 321.304C134.569 321.308 134.339 321.311 134.103 321.315C131.84 321.317 130.382 320.789 128.712 319.225C127.195 317.55 126.992 315.634 127.044 313.445C127.22 311.415 128.221 310.2 129.719 308.904C130.697 308.186 131.748 307.815 132.89 307.429C133.125 307.345 133.361 307.261 133.604 307.175C134.329 306.918 135.055 306.668 135.781 306.418C136.238 306.257 136.695 306.095 137.152 305.933C138.212 305.557 139.276 305.19 140.34 304.822C140.49 301.663 140.641 298.504 140.796 295.249C139.724 294.854 139.724 294.854 138.63 294.452C136.461 293.635 134.408 292.689 132.362 291.602C132.141 291.491 131.921 291.379 131.693 291.264C124.383 287.481 119.028 280.721 116.413 272.982C114.025 265.272 114.63 257.092 115.724 249.208C115.608 249.257 115.493 249.307 115.374 249.357C109.913 251.668 103.672 253.789 97.8281 251.596C94.8228 250.323 92.0866 248.197 90.8309 245.108C89.0115 239.909 90.4221 234.755 92.7273 229.95C93.8107 227.787 95.1141 225.83 96.578 223.908C96.6736 223.781 96.7691 223.655 96.8676 223.524C98.1711 221.793 99.5192 220.101 100.909 218.438C101.056 218.262 101.056 218.262 101.205 218.082C103.838 214.93 106.673 211.974 109.57 209.065C109.747 208.887 109.924 208.708 110.106 208.525C111.182 207.452 112.29 206.433 113.445 205.446C113.699 205.225 113.953 205.004 114.207 204.782C115.493 203.673 116.748 202.643 118.231 201.8C117.565 201.26 116.857 200.849 116.105 200.442C113.321 198.935 110.84 197.199 108.533 195.029C108.049 194.576 107.556 194.148 107.048 193.722C100.502 187.99 96.3196 178.711 95.7215 170.103C95.4983 165.997 95.6002 161.911 96.6208 157.91C96.6795 157.676 96.6795 157.676 96.7393 157.438C96.982 156.557 97.2764 155.711 97.6256 154.867C98.5886 152.531 99.2224 150.274 99.6656 147.788C99.8444 146.79 100.038 145.795 100.231 144.799C100.269 144.603 100.307 144.408 100.346 144.206C100.848 141.636 101.518 139.119 102.276 136.613C102.338 136.407 102.4 136.202 102.464 135.99C105.63 125.649 110.72 116.16 118.231 108.35C118.338 108.238 118.445 108.126 118.555 108.01C119.835 106.677 121.162 105.45 122.61 104.301C123.035 103.96 123.454 103.61 123.867 103.254C125.816 101.567 127.909 100.155 130.083 98.7769C130.239 98.6782 130.394 98.5795 130.554 98.4778C139.421 92.9062 149.743 89.5397 160.055 87.9789C160.307 87.9407 160.558 87.9024 160.817 87.863C162.283 87.655 163.704 87.5602 165.184 87.6085C165.184 87.4581 165.184 87.3077 165.184 87.1527C165.033 87.1057 164.883 87.0587 164.728 87.0102C164.12 86.7315 163.743 86.4708 163.232 86.0558C161.293 84.5759 159.219 84.0662 156.83 83.8602C156.023 83.7265 155.57 83.5493 154.927 83.05C154.314 82.1325 154.267 81.1526 154.471 80.087C154.971 79.1731 155.52 78.6223 156.486 78.2262C159.223 77.5021 161.887 78.2879 164.327 79.5608C165.087 80.0148 165.823 80.4955 166.551 80.9987C166.705 81.1044 166.858 81.2101 167.017 81.3191C168.162 82.1118 169.296 82.9198 170.426 83.7338C170.623 83.8753 170.623 83.8753 170.824 84.0196C172.729 85.3874 172.729 85.3874 173.542 86.0629C174.022 86.5151 174.022 86.5151 174.529 86.4689C174.691 86.067 174.691 86.067 174.856 85.6569C174.917 85.5062 174.978 85.3555 175.041 85.2002C175.818 82.6923 175.778 79.5479 174.757 77.1239C174.682 76.9376 174.607 76.7514 174.53 76.5595C173.51 74.2804 171.857 72.6477 169.78 71.3056C169.028 70.7937 168.666 70.4755 168.375 69.6024C168.29 68.4602 168.348 67.7809 169.059 66.8672C171.081 65.0405 173.488 66.458 175.341 67.8359Z" fill="#FFF1A6"/>
<path d="M242.056 130.222C248.667 143.917 213.254 119.833 176.001 119.833C138.748 119.833 99.4447 145.806 108.889 126.917C108.889 109.164 138.748 90.5555 176.001 90.5555C213.254 90.5555 242.056 112.47 242.056 130.222Z" fill="#AADCE7"/>
<path d="M175.341 67.8359C178.641 70.5076 181.008 74.7388 181.594 78.9473C181.807 81.6282 181.834 84.3685 180.911 86.9248C181.284 86.9375 181.284 86.9375 181.666 86.9506C186.522 87.1448 191.231 87.838 195.954 88.9761C196.267 89.0496 196.267 89.0496 196.586 89.1246C202.38 90.4955 207.942 92.4876 213.276 95.1301C213.484 95.2326 213.692 95.3352 213.906 95.4408C218.333 97.6433 222.423 100.227 226.268 103.335C226.406 103.447 226.544 103.559 226.687 103.673C229.81 106.217 232.679 109.049 235.157 112.225C235.508 112.648 235.859 113.07 236.211 113.492C238.952 116.862 241.057 120.657 242.93 124.565C243.123 124.965 243.322 125.362 243.521 125.759C246.722 132.302 248.691 139.453 250.038 146.589C250.638 149.715 251.4 152.683 252.447 155.683C253.223 157.909 253.801 160.026 254.075 162.368C254.115 162.635 254.156 162.901 254.197 163.176C255.33 172.429 252.678 181.879 247.009 189.264C243.732 193.435 239.925 196.781 235.385 199.52C235.24 199.608 235.095 199.695 234.946 199.785C232.342 201.344 232.342 201.344 231.51 201.344C231.51 201.494 231.51 201.645 231.51 201.8C231.675 201.857 231.84 201.914 232.01 201.972C233.088 202.449 233.909 203.246 234.8 204.005C235.148 204.299 235.501 204.586 235.853 204.874C237.651 206.353 239.311 207.961 240.955 209.606C241.117 209.767 241.117 209.767 241.281 209.932C242.428 211.079 243.547 212.239 244.604 213.47C245.151 214.103 245.725 214.709 246.297 215.318C247.306 216.404 248.271 217.512 249.198 218.669C249.605 219.177 250.017 219.68 250.434 220.181C254.047 224.54 257.151 228.961 258.933 234.376C259.063 234.768 259.2 235.158 259.34 235.547C260.282 238.563 260.294 242.719 258.861 245.561C258.782 245.722 258.702 245.883 258.619 246.048C256.8 249.263 254.094 251.054 250.656 252.171C245.166 253.437 239.132 251.717 234.245 249.208C234.321 249.359 234.396 249.509 234.473 249.664C236.224 260.907 235.655 272.804 228.744 282.266C223.808 288.804 216.937 292.418 209.401 295.249C209.401 298.484 209.401 301.718 209.401 305.05C210.078 305.201 210.755 305.351 211.453 305.506C212.479 305.822 213.49 306.178 214.501 306.536C214.969 306.702 215.438 306.863 215.907 307.024C218.724 308.008 220.977 309.075 222.593 311.66C223.252 313.395 223.121 315.859 222.432 317.573C221.43 319.338 220.052 320.556 218.104 321.126C217.562 321.242 217.073 321.262 216.519 321.263C216.312 321.263 216.105 321.264 215.892 321.264C215.678 321.263 215.463 321.262 215.242 321.261C214.923 321.263 214.923 321.263 214.597 321.264C213.524 321.263 212.509 321.227 211.453 321.005C211.463 321.162 211.474 321.319 211.485 321.481C211.568 323.642 211.029 325.21 209.564 326.816C208.267 327.954 206.707 328.384 205.015 328.362C203.244 328.183 201.529 327.28 200.284 326.019C199.491 324.941 198.816 323.806 198.233 322.6C198.09 322.694 197.946 322.787 197.799 322.884C195.641 324.242 193.744 324.76 191.167 324.424C189.483 323.863 187.972 323.026 187.065 321.461C186.04 319.394 185.791 317.421 186.481 315.207C187.372 313.006 188.988 311.258 190.679 309.633C191.304 309.019 191.873 308.366 192.441 307.701C192.689 307.415 192.951 307.141 193.219 306.874C193.275 306.27 193.304 305.689 193.313 305.084C193.318 304.908 193.322 304.731 193.326 304.549C193.34 303.985 193.351 303.421 193.361 302.856C193.37 302.474 193.379 302.092 193.388 301.71C193.41 300.772 193.429 299.834 193.447 298.896C193.282 298.925 193.117 298.953 192.947 298.983C187.261 299.953 181.693 300.14 175.942 300.109C175.157 300.106 174.371 300.107 173.586 300.109C169.551 300.113 165.547 300.09 161.537 299.58C161.264 299.546 160.99 299.513 160.709 299.478C160.081 299.396 159.456 299.306 158.83 299.209C158.522 299.164 158.522 299.164 158.207 299.117C157.721 299.045 157.236 298.971 156.751 298.896C156.711 299.966 156.682 301.036 156.663 302.107C156.655 302.47 156.644 302.834 156.63 303.197C156.469 305.637 156.469 305.637 157.501 307.755C157.775 308.002 158.057 308.24 158.346 308.469C160.996 310.988 163.785 313.896 163.93 317.757C163.832 319.632 163.241 321.445 161.821 322.736C160.035 324.162 158.496 324.569 156.206 324.52C154.377 324.306 152.742 323.468 151.28 322.372C151.266 322.647 151.266 322.647 151.252 322.928C150.791 324.805 149.432 326.308 147.861 327.387C146.188 328.314 144.575 328.621 142.709 328.148C140.943 327.531 139.745 326.508 138.873 324.851C138.337 323.537 138.439 322.171 138.516 320.777C138.353 320.851 138.19 320.925 138.021 321.001C136.963 321.382 135.912 321.308 134.798 321.304C134.569 321.308 134.339 321.311 134.103 321.315C131.84 321.317 130.382 320.789 128.712 319.225C127.195 317.55 126.992 315.634 127.044 313.445C127.22 311.415 128.221 310.2 129.719 308.904C130.697 308.186 131.748 307.815 132.89 307.429C133.125 307.345 133.361 307.261 133.604 307.175C134.329 306.918 135.055 306.668 135.781 306.418C136.238 306.257 136.695 306.095 137.152 305.933C138.212 305.557 139.276 305.19 140.34 304.822C140.49 301.663 140.641 298.504 140.796 295.249C139.724 294.854 139.724 294.854 138.63 294.452C136.461 293.635 134.408 292.689 132.362 291.602C132.141 291.491 131.921 291.379 131.693 291.264C124.383 287.481 119.028 280.721 116.413 272.982C114.025 265.272 114.63 257.092 115.724 249.208C115.608 249.257 115.493 249.307 115.374 249.357C109.913 251.668 103.672 253.789 97.8281 251.596C94.8228 250.323 92.0866 248.197 90.8309 245.108C89.0115 239.909 90.4221 234.755 92.7273 229.95C93.8107 227.787 95.1141 225.83 96.578 223.908C96.6736 223.781 96.7691 223.655 96.8676 223.524C98.1711 221.793 99.5192 220.101 100.909 218.438C101.056 218.262 101.056 218.262 101.205 218.082C103.838 214.93 106.673 211.974 109.57 209.065C109.747 208.887 109.924 208.708 110.106 208.525C111.182 207.452 112.29 206.433 113.445 205.446C113.699 205.225 113.953 205.004 114.207 204.782C115.493 203.673 116.748 202.643 118.231 201.8C117.565 201.26 116.857 200.849 116.105 200.442C113.321 198.935 110.84 197.199 108.533 195.029C108.049 194.576 107.556 194.148 107.048 193.722C100.502 187.99 96.3196 178.711 95.7215 170.103C95.4983 165.997 95.6002 161.911 96.6208 157.91C96.6795 157.676 96.6795 157.676 96.7393 157.438C96.982 156.557 97.2764 155.711 97.6256 154.867C98.5886 152.531 99.2224 150.274 99.6656 147.788C99.8444 146.79 100.038 145.795 100.231 144.799C100.269 144.603 100.307 144.408 100.346 144.206C100.848 141.636 101.518 139.119 102.276 136.613C102.338 136.407 102.4 136.202 102.464 135.99C105.63 125.649 110.72 116.16 118.231 108.35C118.338 108.238 118.445 108.126 118.555 108.01C119.835 106.677 121.162 105.45 122.61 104.301C123.035 103.96 123.454 103.61 123.867 103.254C125.816 101.567 127.909 100.155 130.083 98.7769C130.239 98.6782 130.394 98.5795 130.554 98.4778C139.421 92.9062 149.743 89.5397 160.055 87.9789C160.307 87.9407 160.558 87.9024 160.817 87.863C162.283 87.655 163.704 87.5602 165.184 87.6085C165.184 87.4581 165.184 87.3077 165.184 87.1527C165.033 87.1057 164.883 87.0587 164.728 87.0102C164.12 86.7315 163.743 86.4708 163.232 86.0558C161.293 84.5759 159.219 84.0662 156.83 83.8602C156.023 83.7265 155.57 83.5493 154.927 83.05C154.314 82.1325 154.267 81.1526 154.471 80.087C154.971 79.1731 155.52 78.6223 156.486 78.2262C159.223 77.5021 161.887 78.2879 164.327 79.5608C165.087 80.0148 165.823 80.4955 166.551 80.9987C166.705 81.1044 166.858 81.2101 167.017 81.3191C168.162 82.1118 169.296 82.9198 170.426 83.7338C170.623 83.8753 170.623 83.8753 170.824 84.0196C172.729 85.3874 172.729 85.3874 173.542 86.0629C174.022 86.5151 174.022 86.5151 174.529 86.4689C174.691 86.067 174.691 86.067 174.856 85.6569C174.917 85.5062 174.978 85.3555 175.041 85.2002C175.818 82.6923 175.778 79.5479 174.757 77.1239C174.682 76.9376 174.607 76.7514 174.53 76.5595C173.51 74.2804 171.857 72.6477 169.78 71.3056C169.028 70.7937 168.666 70.4755 168.375 69.6024C168.29 68.4602 168.348 67.7809 169.059 66.8672C171.081 65.0405 173.488 66.458 175.341 67.8359ZM123.929 110.857C123.686 111.089 123.686 111.089 123.438 111.326C120.92 113.741 118.641 116.205 116.636 119.062C116.534 119.206 116.432 119.349 116.327 119.496C110.427 127.854 106.352 138.169 105.333 148.367C105.06 151.037 104.503 153.312 103.511 155.81C102.054 159.484 101.405 162.767 101.568 166.722C101.593 167.408 101.602 168.093 101.608 168.78C101.675 173.278 102.84 176.81 104.783 180.83C104.856 180.983 104.929 181.135 105.003 181.292C108.663 188.88 116.036 194.793 123.914 197.562C125.231 198.015 126.551 198.458 127.877 198.881C128.033 198.932 128.188 198.983 128.349 199.035C128.776 199.175 129.204 199.311 129.633 199.447C130.356 199.768 130.619 199.974 130.995 200.66C131.268 201.789 131.363 202.213 130.824 203.253C130.258 203.913 129.91 204.282 129.026 204.359C128.797 204.356 128.567 204.353 128.331 204.349C128.104 204.348 127.878 204.347 127.645 204.345C126.892 204.307 126.892 204.307 126.014 204.114C124.793 203.955 124.039 204.595 123.089 205.29C122.91 205.415 122.731 205.54 122.547 205.669C122.015 206.044 121.49 206.427 120.966 206.814C120.822 206.92 120.678 207.026 120.529 207.135C119.673 207.77 118.835 208.427 118.003 209.093C117.669 209.357 117.669 209.357 117.328 209.626C116.187 210.541 115.122 211.487 114.103 212.536C113.676 212.964 113.234 213.358 112.775 213.751C111.274 215.047 109.914 216.459 108.627 217.965C108.147 218.5 107.637 218.993 107.12 219.492C101.907 224.665 96.0503 233.003 95.7803 240.547C95.851 242.338 96.374 243.392 97.6749 244.607C100.136 246.615 103.354 246.517 106.379 246.245C109.124 245.777 111.717 244.661 114.131 243.3C114.609 243.041 115.096 242.813 115.588 242.583C117.276 241.761 117.276 241.761 118.448 240.353C118.789 239.301 118.893 238.208 119.034 237.115C119.247 235.806 119.629 234.54 119.997 233.268C120.076 232.996 120.155 232.724 120.236 232.444C120.733 230.765 121.267 229.105 121.892 227.47C121.959 227.288 122.025 227.107 122.094 226.92C122.584 225.702 123.244 224.821 124.385 224.136C125.1 223.946 125.446 224.001 126.208 224.136C126.822 224.632 127.224 225.028 127.576 225.732C127.703 227.081 127.515 228.252 127.049 229.521C126.99 229.69 126.931 229.86 126.871 230.034C126.463 231.202 126.034 232.362 125.607 233.523C123.726 238.672 122.352 243.812 121.522 249.242C121.456 249.668 121.389 250.092 121.318 250.517C120.765 253.867 120.667 257.187 120.653 260.576C120.65 260.885 120.65 260.885 120.647 261.201C120.623 264.779 120.819 268.443 122.035 271.844C122.092 272.011 122.15 272.177 122.21 272.349C123.157 274.957 124.619 277.203 126.436 279.294C126.667 279.571 126.667 279.571 126.903 279.853C133.814 287.886 144.66 290.775 154.699 292.514C154.939 292.556 155.179 292.598 155.426 292.641C157.155 292.936 158.887 293.19 160.625 293.426C160.867 293.461 161.108 293.495 161.357 293.531C174.647 295.383 189.821 294.792 202.792 291.147C203.015 291.085 203.239 291.023 203.469 290.96C210.003 289.137 216.054 286.511 221.026 281.802C221.188 281.652 221.188 281.652 221.354 281.499C226.433 276.812 228.919 270.493 229.275 263.641C229.292 262.799 229.294 261.959 229.288 261.117C229.287 260.967 229.287 260.816 229.286 260.661C229.258 255.563 228.789 250.574 227.864 245.561C227.828 245.355 227.792 245.149 227.755 244.936C226.921 240.215 225.343 235.577 223.603 231.114C223.54 230.952 223.477 230.79 223.412 230.623C223.294 230.32 223.173 230.017 223.05 229.715C222.491 228.288 222.307 226.788 222.621 225.276C223.05 224.754 223.387 224.437 223.989 224.136C225.148 224.049 225.788 224.128 226.724 224.82C229.561 228.828 230.577 234.605 231.594 239.308C231.877 240.396 232.092 241.05 233.076 241.648C233.256 241.759 233.437 241.869 233.623 241.983C233.819 242.097 234.015 242.211 234.217 242.328C234.42 242.447 234.622 242.566 234.831 242.689C239.279 245.234 244.423 247.103 249.602 246.096C251.36 245.529 252.799 244.48 253.733 242.869C254.466 241.119 254.07 239.216 253.605 237.441C253.528 237.145 253.528 237.145 253.449 236.842C250.997 227.82 244.002 220.665 237.579 214.222C237.368 214.009 237.156 213.797 236.938 213.578C235.897 212.539 234.845 211.531 233.728 210.573C233.187 210.106 232.671 209.613 232.151 209.122C230.811 207.902 229.377 206.894 227.864 205.902C227.605 205.722 227.347 205.542 227.089 205.361C225.608 204.292 225.608 204.292 223.861 204.079C223.622 204.133 223.622 204.133 223.379 204.188C222.038 204.488 220.584 204.583 219.387 203.879C218.806 203.198 218.711 202.82 218.704 201.942C218.7 201.766 218.697 201.591 218.694 201.41C218.754 200.814 218.888 200.484 219.202 199.976C219.6 199.722 219.6 199.722 220.087 199.524C220.271 199.448 220.455 199.373 220.645 199.295C221.744 198.878 222.851 198.484 223.96 198.096C228.714 196.4 232.898 194.65 236.753 191.315C236.865 191.218 236.977 191.121 237.093 191.021C242.935 185.927 247.42 179.08 248.377 171.257C248.402 170.626 248.419 170 248.423 169.369C248.424 169.192 248.426 169.014 248.427 168.832C248.429 168.457 248.431 168.083 248.432 167.709C248.434 167.148 248.441 166.586 248.448 166.024C248.468 163.066 248.032 160.415 247.052 157.61C246.965 157.35 246.965 157.35 246.875 157.085C246.598 156.269 246.306 155.467 245.965 154.675C244.957 152.269 244.619 149.894 244.272 147.316C242.528 134.568 237.216 122.922 228.319 113.592C228.032 113.266 227.747 112.939 227.465 112.609C223.424 107.964 218.215 104.397 212.82 101.512C212.681 101.436 212.541 101.361 212.397 101.283C205.611 97.6382 198.194 95.6171 190.712 93.9905C190.529 93.9497 190.347 93.9089 190.159 93.8668C189.133 93.639 188.104 93.458 187.065 93.3067C186.863 93.2762 186.661 93.2456 186.454 93.2142C165.796 90.212 142.11 95.311 123.929 110.857Z" fill="black"/>
<path d="M181.865 153.992C185.774 156.406 190.381 159.853 191.764 164.429C192.197 166.642 191.503 168.621 190.313 170.488C187.394 174.566 183.057 177.58 178.176 178.779C178.035 178.819 177.894 178.858 177.749 178.899C173.515 179.841 169.424 178.505 165.868 176.272C162.52 174.025 159.342 171.126 158.438 167.037C158.119 165.067 158.507 163.474 159.633 161.815C160.027 161.304 160.435 160.809 160.853 160.317C161.128 159.964 161.128 159.964 161.409 159.605C162.153 158.77 162.955 158.065 163.816 157.354C163.929 157.259 164.043 157.165 164.159 157.068C169.823 152.368 175.145 150.274 181.865 153.992Z" fill="black"/>
<path d="M230.884 158.978C233.104 161.082 234.225 163.723 234.325 166.749C234.364 170.072 233.54 173.184 231.22 175.676C228.6 178.124 225.515 179.207 221.975 179.138C218.737 178.982 215.711 177.525 213.504 175.132C212.964 174.409 212.54 173.66 212.137 172.853C212.026 172.632 211.914 172.412 211.799 172.184C210.633 169.567 210.629 166.653 211.429 163.912C211.89 162.757 212.539 161.769 213.276 160.773C213.396 160.609 213.516 160.444 213.639 160.275C215.451 158.003 218.028 156.736 220.798 156.043C224.626 155.724 227.899 156.497 230.884 158.978Z" fill="#F4A99C"/>
<path d="M131.45 156.898C131.772 157.043 131.772 157.043 132.101 157.191C135.01 158.631 136.746 160.95 137.832 163.964C138.522 167.464 138.175 171.092 136.165 174.106C135.893 174.454 135.613 174.797 135.325 175.132C135.195 175.293 135.064 175.454 134.93 175.619C133.178 177.584 130.339 178.932 127.716 179.091C125.393 179.151 123.524 178.954 121.421 177.867C121.213 177.763 121.005 177.659 120.79 177.551C118.362 176.222 116.637 173.915 115.752 171.3C114.935 167.831 115.238 164.062 117.053 160.974C120.256 156.311 126.231 154.474 131.45 156.898Z" fill="#F4A99C"/>
<path d="M146.266 296.845C148.635 297.296 148.635 297.296 151.052 297.756C151.044 298.271 151.037 298.785 151.028 299.315C150.646 305.932 150.646 305.932 153.32 311.69C153.82 312.191 154.328 312.683 154.842 313.17C157.346 315.548 157.346 315.548 157.506 317.173C157.434 317.814 157.434 317.814 156.978 318.498C155.939 318.465 155.38 318.362 154.635 317.615C154.387 317.348 154.142 317.077 153.901 316.803C152.949 315.726 152.303 315.112 150.824 314.851C149.877 314.867 149.402 314.942 148.656 315.534C147.942 316.397 147.686 317.207 147.377 318.27C146.657 320.667 146.657 320.667 146.038 321.461C145.198 321.646 145.198 321.646 144.443 321.689C144.037 320.989 143.93 320.478 143.924 319.673C143.92 319.464 143.915 319.255 143.91 319.04C143.904 318.602 143.9 318.165 143.898 317.728C143.877 316.493 143.877 316.493 143.379 315.39C141.971 314.565 139.967 315.045 138.431 315.307C137.303 315.498 136.211 315.592 135.069 315.606C134.786 315.61 134.504 315.614 134.213 315.617C133.502 315.535 133.502 315.535 133.048 315.26C132.818 314.851 132.818 314.851 132.845 314.298C133.046 313.711 133.046 313.711 133.549 313.341C135.371 312.49 137.217 311.812 139.129 311.19C142.376 310.249 142.376 310.249 145.01 308.262C146.058 306.118 145.878 303.286 145.96 300.934C145.967 300.732 145.975 300.531 145.982 300.323C145.987 300.147 145.993 299.971 145.998 299.789C146.057 298.805 146.168 297.825 146.266 296.845Z" fill="#FFBB4D"/>
<path d="M203.932 297.073C203.938 297.416 203.938 297.416 203.945 297.765C203.963 298.625 203.983 299.484 204.004 300.343C204.013 300.713 204.02 301.083 204.028 301.453C203.927 305.341 203.927 305.341 205.351 308.803C207.268 310.463 210.041 311.076 212.419 311.815C214.133 312.35 215.677 312.889 217.151 313.939C217.066 314.609 217.066 314.609 216.923 315.307C215.625 315.956 213.817 315.498 212.436 315.307C211.178 315.138 209.931 315.018 208.661 314.993C208.387 314.987 208.113 314.98 207.831 314.974C206.983 315.099 206.73 315.325 206.211 315.991C205.938 316.537 205.94 316.913 205.919 317.522C205.91 317.734 205.902 317.947 205.893 318.166C205.885 318.388 205.877 318.611 205.869 318.84C205.853 319.279 205.837 319.718 205.819 320.157C205.812 320.353 205.805 320.548 205.798 320.749C205.755 321.233 205.755 321.233 205.527 321.689C204.801 321.703 204.801 321.703 203.932 321.461C202.821 320.242 202.511 318.514 202.151 316.956C201.831 316.083 201.456 315.664 200.741 315.079C199.864 314.721 199.057 314.82 198.148 315.022C197.069 315.545 196.332 316.574 195.574 317.473C194.917 318.176 194.48 318.456 193.532 318.569C193.354 318.545 193.175 318.522 192.991 318.498C192.483 317.736 192.471 317.375 192.613 316.487C193.195 314.567 195.164 313.097 196.567 311.76C199.188 308.996 199.02 305.359 198.96 301.745C198.956 301.377 198.953 301.01 198.951 300.642C198.943 299.756 198.931 298.87 198.917 297.984C199.539 297.831 200.161 297.679 200.783 297.529C200.959 297.485 201.134 297.442 201.314 297.397C202.204 297.183 203.009 297.014 203.932 297.073Z" fill="#FFBB4D"/>
<path d="M209.604 144.775C211.354 145.76 212.684 147.448 213.276 149.377C213.346 150.038 213.352 150.692 213.347 151.357C213.345 151.631 213.345 151.631 213.343 151.911C213.297 154.172 212.81 155.914 211.225 157.582C209.516 159.171 207.655 159.811 205.326 159.74C203.308 159.437 201.683 158.338 200.427 156.76C199.045 154.724 198.913 152.68 199.145 150.288C199.563 148.29 200.568 146.512 202.238 145.307C204.552 143.887 207.085 143.59 209.604 144.775Z" fill="black"/>
<path d="M147.138 144.925C148.832 146.117 149.982 147.602 150.597 149.604C150.938 152.045 150.723 154.354 149.485 156.499C148.237 158.115 146.827 158.99 144.898 159.633C142.828 159.843 141.181 159.506 139.495 158.268C137.84 156.865 136.981 155.63 136.693 153.479C136.493 150.963 136.574 149.025 138.061 146.869C138.645 146.185 138.645 146.185 139.2 145.73C139.374 145.57 139.548 145.41 139.727 145.245C141.921 143.715 144.818 143.558 147.138 144.925Z" fill="black"/>
<path d="M179.225 158.338C181.815 159.82 184.26 161.694 185.925 164.192C185.925 164.417 185.925 164.643 185.925 164.875C183.603 165.497 181.42 165.596 179.021 165.598C178.704 165.598 178.388 165.599 178.071 165.6C177.408 165.601 176.746 165.602 176.083 165.601C175.244 165.601 174.404 165.605 173.564 165.609C172.91 165.611 172.256 165.612 171.601 165.611C171.144 165.612 170.687 165.614 170.23 165.617C165.503 165.605 165.503 165.605 164.044 164.875C165.247 161.39 169.553 158.928 172.705 157.354C175.144 156.451 176.982 157.205 179.225 158.338Z" fill="#FFBB4D"/>
<path d="M185.013 170.118C183.766 171.126 182.508 171.884 181.053 172.554C180.874 172.64 180.695 172.726 180.51 172.814C177.571 174.19 174.873 174.749 171.694 173.765C169.389 172.92 167.188 171.765 165.184 170.346C165.184 170.271 165.184 170.195 165.184 170.118C165.399 170.118 165.615 170.119 165.838 170.119C167.876 170.124 169.915 170.127 171.954 170.13C173.002 170.131 174.05 170.132 175.098 170.135C176.11 170.137 177.123 170.139 178.135 170.139C178.52 170.14 178.906 170.141 179.291 170.142C179.833 170.144 180.374 170.144 180.916 170.144C181.073 170.145 181.231 170.145 181.393 170.146C182.184 170.145 182.949 170.098 183.731 169.988C184.557 169.89 184.557 169.89 185.013 170.118Z" fill="#FFBB4D"/>
<path d="M150.233 117.192C150.66 117.38 151.012 117.6 151.231 117.98C151.464 118.617 151.446 119.344 151.127 119.956C150.745 120.533 150.231 121.027 149.722 121.521C149.574 121.664 149.429 121.809 149.284 121.955C147.387 123.829 144.872 124.97 142.189 125.774C142.096 125.803 142.003 125.833 141.907 125.863C140.295 126.333 137.823 126.741 136.203 126.153C135.802 125.945 135.635 125.681 135.446 125.321C135.303 124.783 135.259 124.344 135.535 123.837C136.237 123.167 137.07 123.094 138.061 122.96C141.302 122.49 144.496 121.628 146.586 119.288C146.899 118.905 147.173 118.511 147.439 118.102C148.084 117.111 148.964 116.737 150.233 117.192Z" fill="black"/>
<path d="M206.451 117.117C207.108 117.496 207.503 118.023 207.926 118.634C209.472 120.843 211.895 122.248 214.556 122.743C215.07 122.827 215.584 122.906 216.1 122.975C216.847 123.081 217.631 123.206 218.182 123.748C218.45 124.198 218.478 124.613 218.417 125.122C218.268 125.562 218.072 125.946 217.645 126.169C216.451 126.661 214.795 126.408 213.591 126.074C213.512 126.052 213.432 126.03 213.351 126.007C212.098 125.651 210.903 125.209 209.73 124.646C209.631 124.6 209.533 124.553 209.431 124.505C207.398 123.48 205.122 121.449 204.325 119.318C204.235 118.788 204.255 118.318 204.536 117.849C204.996 117.223 205.651 116.778 206.451 117.117Z" fill="black"/>
<path d="M177.742 66.9187C178.196 67.3243 178.458 67.7746 178.609 68.3373C178.609 68.394 178.609 68.4508 178.609 68.5092C178.666 68.5114 178.666 68.5114 178.724 68.5137C183.813 68.8043 188.952 71.0356 192.333 74.5123C192.475 74.6679 192.611 74.8261 192.746 74.9861C192.811 75.0612 192.876 75.1364 192.94 75.2115C196.527 79.4069 197.768 84.8371 198.166 93.4601C198.166 93.522 198.166 93.5839 198.167 93.6476C198.167 93.8237 198.167 93.9998 198.167 94.1759C198.167 94.2534 198.167 94.2534 198.167 94.3324C198.165 94.6216 198.126 94.8775 198.051 95.1579C198.012 95.3318 198.022 95.4914 198.038 95.6677C198.045 95.742 198.052 95.8163 198.059 95.8929C198.099 96.25 198.146 96.6062 198.195 96.9624C198.463 98.9219 198.606 100.865 198.609 102.84C198.609 102.959 198.61 103.078 198.61 103.196C198.615 105.284 198.615 105.284 198.331 106.288C198.317 106.336 198.304 106.383 198.29 106.432C197.964 107.521 197.273 108.497 196.189 109.07C194.883 109.647 193.51 109.459 192.173 109.101C192.125 109.088 192.077 109.075 192.028 109.062C191.216 108.833 190.444 108.511 189.675 108.184C189.421 108.076 189.168 107.97 188.914 107.863C188.862 107.841 188.81 107.819 188.756 107.797C187.319 107.193 185.881 106.594 184.39 106.109C184.315 106.085 184.315 106.085 184.238 106.06C183.562 105.844 182.869 105.685 182.175 105.525C182.112 105.511 182.112 105.511 182.047 105.496C181.123 105.285 180.192 105.12 179.249 104.988C179.206 104.982 179.162 104.976 179.117 104.969C178.447 104.875 177.777 104.784 177.101 104.734C177.008 104.726 177.008 104.726 176.913 104.719C174.145 104.525 171.337 104.686 168.619 105.192C168.54 105.207 168.461 105.222 168.379 105.237C166.132 105.659 163.996 106.339 161.896 107.177C161.756 107.232 161.616 107.288 161.475 107.343C160.723 107.642 159.974 107.946 159.228 108.259C157.368 109.039 155.21 109.863 153.163 109.204C152.894 109.09 152.651 108.959 152.409 108.803C152.364 108.775 152.319 108.746 152.273 108.716C151.196 107.942 150.743 106.634 150.564 105.441C150.545 105.288 150.53 105.135 150.516 104.981C150.511 104.925 150.506 104.868 150.5 104.81C150.446 104.17 150.442 103.531 150.445 102.889C150.445 102.827 150.446 102.765 150.446 102.701C150.449 101.58 150.492 100.464 150.587 99.3459C150.59 99.306 150.593 99.2662 150.597 99.2251C150.681 98.2305 150.796 97.2414 150.947 96.2534C151.057 95.646 151.057 95.646 150.964 95.0471C150.957 94.9187 150.954 94.7901 150.954 94.6615C150.953 94.6224 150.953 94.5832 150.953 94.5429C150.952 94.4124 150.951 94.282 150.951 94.1515C150.95 94.0595 150.95 93.9675 150.95 93.8755C150.948 93.5782 150.948 93.281 150.948 92.9837C150.948 92.9333 150.948 92.8828 150.948 92.8309C150.947 91.3181 150.963 89.8132 151.136 88.3072C151.153 88.1629 151.169 88.0186 151.185 87.8743C151.718 83.1328 153.163 78.2897 156.681 74.6422C156.729 74.5911 156.729 74.5911 156.778 74.5391C157.523 73.75 158.339 73.0245 159.257 72.4068C159.324 72.3594 159.389 72.3118 159.455 72.2639C162.327 70.1781 166.773 68.4531 170.504 68.5092C170.507 68.4383 170.509 68.3674 170.512 68.2943C170.591 67.6725 170.989 67.1763 171.509 66.7897C173.269 65.6286 176.024 65.8127 177.742 66.9187Z" fill="black"/>
<path d="M174.392 92.2815C174.434 92.2815 174.475 92.2814 174.518 92.2814C176.972 92.2794 179.433 92.3669 181.872 92.6261C182.017 92.6413 182.163 92.656 182.308 92.6707C183.721 92.8135 185.128 92.9708 186.526 93.2129C186.577 93.2217 186.627 93.2304 186.679 93.2394C188.261 93.5137 189.82 93.8296 191.364 94.2446C191.471 94.2729 191.471 94.2729 191.58 94.3017C192.701 94.5982 193.794 94.9535 194.883 95.3337C194.948 95.3562 195.013 95.3787 195.08 95.4019C195.251 95.4614 195.42 95.5225 195.59 95.5844C195.663 95.61 195.663 95.61 195.737 95.636C196.057 95.7571 196.057 95.7571 196.15 95.9246C196.2 96.0721 196.23 96.2061 196.249 96.3593C196.26 96.4412 196.26 96.4412 196.271 96.5247C196.282 96.6129 196.282 96.6129 196.293 96.7028C196.301 96.7645 196.308 96.8261 196.316 96.8897C196.342 97.091 196.366 97.2924 196.391 97.4938C196.403 97.5978 196.403 97.5978 196.416 97.7038C196.623 99.4208 196.716 101.113 196.72 102.84C196.721 102.963 196.721 103.085 196.722 103.208C196.733 106.234 196.733 106.234 195.759 107.241C195.36 107.578 194.875 107.73 194.337 107.746C193.809 107.726 193.315 107.62 192.809 107.485C192.765 107.473 192.721 107.462 192.675 107.449C191.676 107.178 190.741 106.753 189.798 106.354C186.329 104.887 182.855 103.75 179.057 103.233C178.994 103.224 178.93 103.215 178.864 103.206C177.489 103.029 176.101 102.991 174.714 102.993C174.636 102.993 174.557 102.993 174.476 102.993C170.292 103 166.285 103.717 162.399 105.135C162.36 105.149 162.32 105.164 162.279 105.179C161.255 105.553 160.254 105.959 159.264 106.402C155.646 108.016 155.646 108.016 154.085 107.668C153.502 107.476 153.157 107.133 152.864 106.643C152.297 105.509 152.325 104.284 152.33 103.064C152.331 102.835 152.33 102.605 152.329 102.375C152.328 101.341 152.381 100.319 152.472 99.2886C152.476 99.2394 152.48 99.1902 152.485 99.1395C152.516 98.7678 152.555 98.3969 152.599 98.0262C152.635 97.7188 152.664 97.4153 152.669 97.1063C152.689 95.9898 152.689 95.9898 153.049 95.6708C153.432 95.4464 153.858 95.337 154.294 95.2276C154.561 95.1601 154.818 95.0752 155.078 94.9873C155.609 94.8078 156.144 94.6385 156.681 94.4739C156.747 94.4538 156.812 94.4337 156.88 94.413C158.75 93.8478 160.695 93.4885 162.633 93.1786C162.774 93.156 162.915 93.1329 163.056 93.1098C165.158 92.7654 167.281 92.5801 169.409 92.4248C169.454 92.4214 169.499 92.418 169.546 92.4146C171.156 92.2954 172.777 92.2824 174.392 92.2815Z" fill="#AADCE7"/>
<path d="M179.006 70.2252C179.075 70.2344 179.075 70.2344 179.146 70.2438C182.969 70.7626 186.787 72.0542 189.631 74.5032C189.772 74.6243 189.916 74.7395 190.064 74.8536C190.269 75.0158 190.446 75.1907 190.621 75.3795C190.743 75.5098 190.871 75.6344 190.999 75.7599C193.403 78.2057 194.728 81.4404 195.448 84.6154C195.472 84.7153 195.496 84.8151 195.519 84.915C196.204 87.8936 196.378 91.0367 196.328 94.0727C195.962 93.9651 195.604 93.8461 195.247 93.7169C190.387 91.9658 185.258 91.229 179.425 90.7773C179.326 90.7703 179.227 90.7631 179.128 90.7557C177.909 90.6657 176.691 90.6616 175.468 90.6337C175.468 83.9568 175.468 77.2799 175.468 70.4007C175.758 70.3818 176.048 70.3629 176.347 70.3434C176.546 70.3081 176.737 70.2715 176.933 70.2252C177.643 70.0575 178.286 70.129 179.006 70.2252Z" fill="#AADCE7"/>
<path d="M172.079 70.1892C172.57 70.3166 173.079 70.3813 173.583 70.4579C173.583 77.1159 173.583 83.7738 173.583 90.6336C172.629 90.6525 171.675 90.6714 170.693 90.6909C170.152 90.7175 169.614 90.746 169.075 90.7876C168.976 90.7949 168.976 90.7949 168.875 90.8023C163.589 91.1919 158.06 91.8906 153.178 93.8821C152.974 93.958 152.974 93.958 152.786 93.958C152.742 91.4699 152.797 88.9732 153.255 86.5139C153.291 86.3236 153.323 86.133 153.354 85.9423C153.945 82.4971 155.217 78.961 157.687 76.2469C157.743 76.184 157.799 76.1211 157.855 76.0582C158.411 75.4396 159.026 74.8705 159.697 74.3555C159.757 74.308 159.817 74.2605 159.878 74.2115C162.584 72.0699 168.368 69.1991 172.079 70.1892Z" fill="#AADCE7"/>
<path d="M176.269 68.1832C176.44 68.3699 176.463 68.498 176.473 68.7384C175.714 69.2583 174.673 69.2138 173.763 69.1269C173.299 69.0642 172.906 68.9144 172.515 68.6811C172.556 68.3962 172.655 68.302 172.894 68.1283C173.754 67.5881 175.422 67.6395 176.269 68.1832Z" fill="#AADCE7"/>
</svg>
