<svg width="350" height="350" viewBox="0 0 350 350" fill="none" xmlns="http://www.w3.org/2000/svg">
<path d="M172.588 76.7767C175.781 79.3622 178.072 83.4569 178.64 87.5297C178.845 90.1241 178.872 92.7759 177.978 95.2498C178.34 95.2621 178.34 95.2621 178.709 95.2747C183.408 95.4627 187.966 96.1336 192.536 97.2349C192.839 97.306 192.839 97.306 193.148 97.3786C198.755 98.7053 204.137 100.633 209.3 103.19C209.501 103.29 209.702 103.389 209.909 103.491C214.193 105.623 218.151 108.123 221.872 111.131C222.006 111.239 222.14 111.347 222.278 111.458C225.3 113.92 228.076 116.66 230.475 119.733C230.814 120.143 231.154 120.552 231.495 120.96C234.147 124.221 236.184 127.894 237.997 131.676C238.184 132.063 238.376 132.447 238.569 132.831C241.666 139.163 243.572 146.083 244.876 152.989C245.456 156.015 246.193 158.887 247.207 161.79C247.958 163.944 248.518 165.993 248.782 168.26C248.821 168.518 248.86 168.775 248.9 169.041C249.996 177.995 247.43 187.141 241.944 194.287C238.773 198.324 235.089 201.563 230.695 204.213C230.555 204.298 230.415 204.382 230.27 204.47C227.751 205.978 227.751 205.978 226.945 205.978C226.945 206.123 226.945 206.269 226.945 206.419C227.105 206.474 227.264 206.529 227.429 206.586C228.472 207.047 229.267 207.818 230.129 208.553C230.466 208.838 230.807 209.116 231.148 209.394C232.888 210.825 234.494 212.382 236.085 213.974C236.242 214.13 236.242 214.13 236.401 214.289C237.511 215.399 238.594 216.522 239.617 217.713C240.146 218.325 240.702 218.912 241.255 219.502C242.231 220.552 243.165 221.625 244.062 222.744C244.457 223.236 244.855 223.722 245.258 224.207C248.755 228.426 251.759 232.704 253.484 237.945C253.609 238.324 253.742 238.701 253.877 239.078C254.789 241.997 254.801 246.018 253.414 248.769C253.337 248.925 253.26 249.08 253.18 249.24C251.42 252.351 248.8 254.084 245.474 255.166C240.161 256.391 234.322 254.726 229.592 252.298C229.665 252.444 229.738 252.589 229.813 252.739C231.507 263.619 230.957 275.132 224.269 284.29C219.492 290.617 212.842 294.114 205.55 296.854C205.55 299.984 205.55 303.114 205.55 306.339C206.205 306.484 206.86 306.63 207.535 306.78C208.528 307.086 209.506 307.43 210.485 307.777C210.938 307.937 211.391 308.093 211.845 308.249C214.572 309.202 216.752 310.234 218.316 312.735C218.954 314.415 218.827 316.799 218.16 318.457C217.19 320.165 215.857 321.344 213.972 321.896C213.447 322.009 212.974 322.028 212.438 322.029C212.237 322.029 212.037 322.029 211.831 322.03C211.623 322.029 211.416 322.028 211.202 322.027C210.893 322.028 210.893 322.028 210.578 322.03C209.539 322.028 208.557 321.994 207.535 321.779C207.545 321.931 207.555 322.083 207.566 322.24C207.646 324.331 207.125 325.849 205.707 327.403C204.452 328.504 202.943 328.92 201.305 328.899C199.591 328.726 197.932 327.851 196.727 326.632C195.959 325.588 195.306 324.489 194.742 323.323C194.603 323.413 194.464 323.504 194.321 323.597C192.233 324.911 190.398 325.413 187.904 325.088C186.274 324.544 184.811 323.735 183.934 322.22C182.941 320.22 182.701 318.311 183.368 316.168C184.231 314.038 185.795 312.347 187.431 310.774C188.036 310.18 188.587 309.548 189.137 308.904C189.377 308.627 189.63 308.362 189.889 308.103C189.943 307.519 189.971 306.957 189.98 306.372C189.985 306.201 189.989 306.03 189.993 305.854C190.007 305.308 190.017 304.762 190.027 304.216C190.035 303.846 190.044 303.476 190.053 303.106C190.074 302.198 190.093 301.291 190.11 300.383C189.95 300.411 189.79 300.439 189.626 300.467C184.124 301.406 178.735 301.587 173.17 301.557C172.41 301.554 171.65 301.556 170.89 301.557C166.985 301.561 163.11 301.539 159.229 301.045C158.965 301.013 158.7 300.98 158.428 300.947C157.821 300.867 157.215 300.78 156.61 300.687C156.311 300.642 156.311 300.642 156.007 300.597C155.537 300.527 155.067 300.455 154.597 300.383C154.559 301.419 154.531 302.454 154.512 303.491C154.505 303.842 154.494 304.194 154.481 304.546C154.325 306.907 154.325 306.907 155.324 308.956C155.589 309.195 155.861 309.426 156.141 309.647C158.706 312.085 161.405 314.9 161.545 318.636C161.45 320.451 160.879 322.205 159.504 323.454C157.776 324.834 156.287 325.228 154.07 325.181C152.3 324.974 150.718 324.163 149.304 323.102C149.29 323.369 149.29 323.369 149.276 323.64C148.83 325.457 147.515 326.911 145.995 327.955C144.376 328.852 142.814 329.149 141.009 328.692C139.3 328.095 138.14 327.104 137.296 325.501C136.778 324.229 136.876 322.908 136.951 321.558C136.793 321.63 136.635 321.701 136.472 321.775C135.448 322.144 134.431 322.072 133.353 322.068C133.131 322.072 132.909 322.076 132.68 322.079C130.49 322.081 129.079 321.57 127.463 320.057C125.996 318.436 125.799 316.581 125.849 314.463C126.02 312.498 126.988 311.323 128.438 310.068C129.384 309.374 130.402 309.014 131.506 308.641C131.734 308.56 131.963 308.478 132.198 308.395C132.899 308.146 133.601 307.904 134.305 307.662C134.747 307.506 135.189 307.35 135.631 307.194C136.657 306.829 137.686 306.474 138.716 306.118C138.862 303.061 139.007 300.004 139.157 296.854C138.12 296.472 138.12 296.472 137.062 296.082C134.962 295.292 132.975 294.377 130.996 293.325C130.782 293.217 130.568 293.109 130.348 292.998C123.273 289.337 118.091 282.794 115.561 275.305C113.25 267.843 113.835 259.927 114.894 252.298C114.782 252.346 114.671 252.394 114.556 252.443C109.27 254.679 103.231 256.732 97.5755 254.609C94.6673 253.377 92.0193 251.32 90.8041 248.331C89.0434 243.299 90.4085 238.311 92.6393 233.661C93.6878 231.568 94.9491 229.674 96.3658 227.815C96.4583 227.692 96.5508 227.569 96.6461 227.442C97.9075 225.768 99.2121 224.13 100.557 222.521C100.699 222.35 100.699 222.35 100.844 222.176C103.392 219.125 106.135 216.265 108.939 213.45C109.11 213.277 109.281 213.105 109.458 212.927C110.499 211.889 111.571 210.903 112.688 209.948C112.934 209.734 113.18 209.52 113.426 209.305C114.671 208.232 115.885 207.235 117.32 206.419C116.676 205.897 115.991 205.5 115.263 205.105C112.569 203.647 110.168 201.966 107.935 199.867C107.467 199.429 106.989 199.014 106.498 198.602C100.164 193.054 96.1157 184.075 95.537 175.745C95.321 171.771 95.4196 167.817 96.4072 163.945C96.464 163.719 96.464 163.719 96.5219 163.489C96.7568 162.636 97.0416 161.817 97.3796 161C98.3116 158.74 98.9249 156.556 99.3538 154.15C99.5268 153.184 99.7141 152.221 99.901 151.257C99.9376 151.068 99.9743 150.878 100.012 150.683C100.498 148.196 101.147 145.76 101.88 143.335C101.94 143.136 102 142.937 102.062 142.733C105.126 132.725 110.052 123.542 117.32 115.984C117.424 115.875 117.527 115.767 117.634 115.655C118.873 114.364 120.157 113.178 121.558 112.065C121.97 111.735 122.375 111.397 122.774 111.052C124.661 109.42 126.686 108.053 128.79 106.72C128.941 106.624 129.091 106.529 129.246 106.43C137.826 101.038 147.816 97.7803 157.796 96.2699C158.039 96.2329 158.282 96.1959 158.533 96.1577C159.951 95.9565 161.326 95.8647 162.759 95.9115C162.759 95.7659 162.759 95.6203 162.759 95.4703C162.613 95.4248 162.467 95.3793 162.317 95.3325C161.729 95.0627 161.364 94.8105 160.87 94.4088C158.993 92.9767 156.986 92.4834 154.674 92.2841C153.893 92.1547 153.455 91.9832 152.833 91.5C152.24 90.6121 152.194 89.6638 152.392 88.6325C152.875 87.7481 153.406 87.2152 154.341 86.8318C156.99 86.131 159.568 86.8915 161.93 88.1233C162.665 88.5627 163.377 89.0279 164.082 89.5148C164.231 89.6172 164.379 89.7195 164.532 89.8249C165.641 90.5921 166.738 91.374 167.832 92.1617C168.022 92.2986 168.022 92.2986 168.217 92.4383C170.06 93.762 170.06 93.762 170.847 94.4157C171.312 94.8533 171.312 94.8533 171.802 94.8086C171.959 94.4196 171.959 94.4196 172.119 94.0228C172.178 93.877 172.237 93.7311 172.297 93.5808C173.049 91.1538 173.011 88.1109 172.023 85.7651C171.95 85.5848 171.878 85.4046 171.803 85.2188C170.816 83.0133 169.217 81.4333 167.206 80.1344C166.478 79.6391 166.128 79.3311 165.847 78.4862C165.765 77.3809 165.821 76.7235 166.508 75.8393C168.466 74.0714 170.795 75.4433 172.588 76.7767Z" fill="#FFF1A6"/>
<path d="M172.588 76.7767C175.781 79.3622 178.072 83.4569 178.64 87.5297C178.845 90.1241 178.872 92.7759 177.978 95.2498C178.34 95.2621 178.34 95.2621 178.709 95.2747C183.408 95.4627 187.966 96.1336 192.536 97.2349C192.839 97.306 192.839 97.306 193.148 97.3786C198.755 98.7053 204.137 100.633 209.3 103.19C209.501 103.29 209.702 103.389 209.909 103.491C214.193 105.623 218.151 108.123 221.872 111.131C222.006 111.239 222.14 111.347 222.278 111.458C225.3 113.92 228.076 116.66 230.475 119.733C230.814 120.143 231.154 120.552 231.495 120.96C234.147 124.221 236.184 127.894 237.997 131.676C238.184 132.063 238.376 132.447 238.569 132.831C241.666 139.163 243.572 146.083 244.876 152.989C245.456 156.015 246.193 158.887 247.207 161.79C247.958 163.944 248.518 165.993 248.782 168.26C248.821 168.518 248.86 168.775 248.9 169.041C249.996 177.995 247.43 187.141 241.944 194.287C238.773 198.324 235.089 201.563 230.695 204.213C230.555 204.298 230.415 204.382 230.27 204.47C227.751 205.978 227.751 205.978 226.945 205.978C226.945 206.123 226.945 206.269 226.945 206.419C227.105 206.474 227.264 206.529 227.429 206.586C228.472 207.047 229.267 207.818 230.129 208.553C230.466 208.838 230.807 209.116 231.148 209.394C232.888 210.825 234.494 212.382 236.085 213.974C236.242 214.13 236.242 214.13 236.401 214.289C237.511 215.399 238.594 216.522 239.617 217.713C240.146 218.325 240.702 218.912 241.255 219.502C242.231 220.552 243.165 221.625 244.062 222.744C244.457 223.236 244.855 223.722 245.258 224.207C248.755 228.426 251.759 232.704 253.484 237.945C253.609 238.324 253.742 238.701 253.877 239.078C254.789 241.997 254.801 246.018 253.414 248.769C253.337 248.925 253.26 249.08 253.18 249.24C251.42 252.351 248.8 254.084 245.474 255.166C240.161 256.391 234.322 254.726 229.592 252.298C229.665 252.444 229.738 252.589 229.813 252.739C231.507 263.619 230.957 275.132 224.269 284.29C219.492 290.617 212.842 294.114 205.55 296.854C205.55 299.984 205.55 303.114 205.55 306.339C206.205 306.484 206.86 306.63 207.535 306.78C208.528 307.086 209.506 307.43 210.485 307.777C210.938 307.937 211.391 308.093 211.845 308.249C214.572 309.202 216.752 310.234 218.316 312.735C218.954 314.415 218.827 316.799 218.16 318.457C217.19 320.165 215.857 321.344 213.972 321.896C213.447 322.009 212.974 322.028 212.438 322.029C212.237 322.029 212.037 322.029 211.831 322.03C211.623 322.029 211.416 322.028 211.202 322.027C210.893 322.028 210.893 322.028 210.578 322.03C209.539 322.028 208.557 321.994 207.535 321.779C207.545 321.931 207.555 322.083 207.566 322.24C207.646 324.331 207.125 325.849 205.707 327.403C204.452 328.504 202.943 328.92 201.305 328.899C199.591 328.726 197.932 327.851 196.727 326.632C195.959 325.588 195.306 324.489 194.742 323.323C194.603 323.413 194.464 323.504 194.321 323.597C192.233 324.911 190.398 325.413 187.904 325.088C186.274 324.544 184.811 323.735 183.934 322.22C182.941 320.22 182.701 318.311 183.368 316.168C184.231 314.038 185.795 312.347 187.431 310.774C188.036 310.18 188.587 309.548 189.137 308.904C189.377 308.627 189.63 308.362 189.889 308.103C189.943 307.519 189.971 306.957 189.98 306.372C189.985 306.201 189.989 306.03 189.993 305.854C190.007 305.308 190.017 304.762 190.027 304.216C190.035 303.846 190.044 303.476 190.053 303.106C190.074 302.198 190.093 301.291 190.11 300.383C189.95 300.411 189.79 300.439 189.626 300.467C184.124 301.406 178.735 301.587 173.17 301.557C172.41 301.554 171.65 301.556 170.89 301.557C166.985 301.561 163.11 301.539 159.229 301.045C158.965 301.013 158.7 300.98 158.428 300.947C157.821 300.867 157.215 300.78 156.61 300.687C156.311 300.642 156.311 300.642 156.007 300.597C155.537 300.527 155.067 300.455 154.597 300.383C154.559 301.419 154.531 302.454 154.512 303.491C154.505 303.842 154.494 304.194 154.481 304.546C154.325 306.907 154.325 306.907 155.324 308.956C155.589 309.195 155.861 309.426 156.141 309.647C158.706 312.085 161.405 314.9 161.545 318.636C161.45 320.451 160.879 322.205 159.504 323.454C157.776 324.834 156.287 325.228 154.07 325.181C152.3 324.974 150.718 324.163 149.304 323.102C149.29 323.369 149.29 323.369 149.276 323.64C148.83 325.457 147.515 326.911 145.995 327.955C144.376 328.852 142.814 329.149 141.009 328.692C139.3 328.095 138.14 327.104 137.296 325.501C136.778 324.229 136.876 322.908 136.951 321.558C136.793 321.63 136.635 321.701 136.472 321.775C135.448 322.144 134.431 322.072 133.353 322.068C133.131 322.072 132.909 322.076 132.68 322.079C130.49 322.081 129.079 321.57 127.463 320.057C125.996 318.436 125.799 316.581 125.849 314.463C126.02 312.498 126.988 311.323 128.438 310.068C129.384 309.374 130.402 309.014 131.506 308.641C131.734 308.56 131.963 308.478 132.198 308.395C132.899 308.146 133.601 307.904 134.305 307.662C134.747 307.506 135.189 307.35 135.631 307.194C136.657 306.829 137.686 306.474 138.716 306.118C138.862 303.061 139.007 300.004 139.157 296.854C138.12 296.472 138.12 296.472 137.062 296.082C134.962 295.292 132.975 294.377 130.996 293.325C130.782 293.217 130.568 293.109 130.348 292.998C123.273 289.337 118.091 282.794 115.561 275.305C113.25 267.843 113.835 259.927 114.894 252.298C114.782 252.346 114.671 252.394 114.556 252.443C109.27 254.679 103.231 256.732 97.5755 254.609C94.6673 253.377 92.0193 251.32 90.8041 248.331C89.0434 243.299 90.4085 238.311 92.6393 233.661C93.6878 231.568 94.9491 229.674 96.3658 227.815C96.4583 227.692 96.5508 227.569 96.6461 227.442C97.9075 225.768 99.2121 224.13 100.557 222.521C100.699 222.35 100.699 222.35 100.844 222.176C103.392 219.125 106.135 216.265 108.939 213.45C109.11 213.277 109.281 213.105 109.458 212.927C110.499 211.889 111.571 210.903 112.688 209.948C112.934 209.734 113.18 209.52 113.426 209.305C114.671 208.232 115.885 207.235 117.32 206.419C116.676 205.897 115.991 205.5 115.263 205.105C112.569 203.647 110.168 201.966 107.935 199.867C107.467 199.429 106.989 199.014 106.498 198.602C100.164 193.054 96.1157 184.075 95.537 175.745C95.321 171.771 95.4196 167.817 96.4072 163.945C96.464 163.719 96.464 163.719 96.5219 163.489C96.7568 162.636 97.0416 161.817 97.3796 161C98.3116 158.74 98.9249 156.556 99.3538 154.15C99.5268 153.184 99.7141 152.221 99.901 151.257C99.9376 151.068 99.9743 150.878 100.012 150.683C100.498 148.196 101.147 145.76 101.88 143.335C101.94 143.136 102 142.937 102.062 142.733C105.126 132.725 110.052 123.542 117.32 115.984C117.424 115.875 117.527 115.767 117.634 115.655C118.873 114.364 120.157 113.178 121.558 112.065C121.97 111.735 122.375 111.397 122.774 111.052C124.661 109.42 126.686 108.053 128.79 106.72C128.941 106.624 129.091 106.529 129.246 106.43C137.826 101.038 147.816 97.7803 157.796 96.2699C158.039 96.2329 158.282 96.1959 158.533 96.1577C159.951 95.9565 161.326 95.8647 162.759 95.9115C162.759 95.7659 162.759 95.6203 162.759 95.4703C162.613 95.4248 162.467 95.3793 162.317 95.3325C161.729 95.0627 161.364 94.8105 160.87 94.4088C158.993 92.9767 156.986 92.4834 154.674 92.2841C153.893 92.1547 153.455 91.9832 152.833 91.5C152.24 90.6121 152.194 89.6638 152.392 88.6325C152.875 87.7481 153.406 87.2152 154.341 86.8318C156.99 86.131 159.568 86.8915 161.93 88.1233C162.665 88.5627 163.377 89.0279 164.082 89.5148C164.231 89.6172 164.379 89.7195 164.532 89.8249C165.641 90.5921 166.738 91.374 167.832 92.1617C168.022 92.2986 168.022 92.2986 168.217 92.4383C170.06 93.762 170.06 93.762 170.847 94.4157C171.312 94.8533 171.312 94.8533 171.802 94.8086C171.959 94.4196 171.959 94.4196 172.119 94.0228C172.178 93.877 172.237 93.7311 172.297 93.5808C173.049 91.1538 173.011 88.1109 172.023 85.7651C171.95 85.5848 171.878 85.4046 171.803 85.2188C170.816 83.0133 169.217 81.4333 167.206 80.1344C166.478 79.6391 166.128 79.3311 165.847 78.4862C165.765 77.3809 165.821 76.7235 166.508 75.8393C168.466 74.0714 170.795 75.4433 172.588 76.7767ZM122.835 118.41C122.6 118.635 122.6 118.635 122.36 118.864C119.922 121.201 117.717 123.586 115.776 126.351C115.678 126.489 115.579 126.628 115.478 126.771C109.768 134.859 105.824 144.841 104.838 154.71C104.574 157.294 104.035 159.495 103.076 161.913C101.665 165.469 101.037 168.646 101.195 172.473C101.219 173.137 101.227 173.8 101.233 174.464C101.299 178.817 102.426 182.236 104.306 186.126C104.377 186.273 104.447 186.421 104.519 186.573C108.061 193.917 115.196 199.639 122.82 202.318C124.094 202.756 125.372 203.185 126.655 203.594C126.806 203.644 126.957 203.693 127.112 203.744C127.525 203.879 127.94 204.011 128.354 204.142C129.054 204.453 129.308 204.652 129.672 205.316C129.937 206.409 130.029 206.819 129.507 207.825C128.959 208.464 128.623 208.821 127.767 208.896C127.545 208.893 127.323 208.89 127.095 208.887C126.875 208.885 126.656 208.884 126.43 208.882C125.702 208.845 125.702 208.845 124.853 208.659C123.67 208.505 122.941 209.124 122.021 209.796C121.848 209.918 121.676 210.039 121.497 210.163C120.983 210.527 120.474 210.897 119.967 211.272C119.828 211.374 119.688 211.477 119.545 211.582C118.716 212.197 117.905 212.832 117.1 213.477C116.776 213.733 116.776 213.733 116.447 213.993C115.342 214.879 114.312 215.793 113.326 216.809C112.913 217.223 112.485 217.605 112.04 217.985C110.588 219.239 109.272 220.606 108.026 222.063C107.561 222.581 107.068 223.058 106.567 223.541C101.523 228.547 95.8551 236.616 95.5938 243.916C95.6623 245.649 96.1684 246.67 97.4273 247.845C99.8088 249.789 102.923 249.693 105.85 249.431C108.508 248.978 111.016 247.898 113.353 246.581C113.815 246.33 114.286 246.109 114.763 245.887C116.396 245.091 116.396 245.091 117.53 243.729C117.861 242.71 117.961 241.653 118.097 240.595C118.303 239.328 118.673 238.103 119.03 236.872C119.106 236.609 119.182 236.346 119.261 236.074C119.742 234.45 120.258 232.844 120.863 231.261C120.928 231.086 120.992 230.91 121.058 230.729C121.533 229.55 122.171 228.697 123.276 228.035C123.967 227.851 124.303 227.904 125.04 228.035C125.634 228.515 126.023 228.898 126.364 229.579C126.487 230.885 126.305 232.018 125.854 233.246C125.797 233.41 125.74 233.574 125.681 233.743C125.287 234.873 124.871 235.995 124.459 237.119C122.638 242.102 121.308 247.077 120.505 252.331C120.442 252.743 120.376 253.154 120.307 253.564C119.773 256.807 119.678 260.02 119.664 263.299C119.661 263.599 119.661 263.599 119.659 263.904C119.635 267.367 119.825 270.912 121.001 274.204C121.057 274.365 121.113 274.526 121.171 274.693C122.087 277.217 123.502 279.39 125.261 281.414C125.484 281.681 125.484 281.681 125.712 281.954C132.401 289.729 142.896 292.524 152.612 294.207C152.844 294.248 153.076 294.288 153.315 294.33C154.988 294.616 156.665 294.861 158.347 295.09C158.581 295.123 158.814 295.157 159.055 295.191C171.916 296.984 186.601 296.412 199.153 292.884C199.37 292.824 199.586 292.764 199.809 292.703C206.132 290.939 211.988 288.398 216.799 283.84C216.957 283.695 216.957 283.695 217.117 283.548C222.032 279.012 224.438 272.896 224.782 266.265C224.799 265.451 224.801 264.638 224.795 263.823C224.794 263.677 224.794 263.531 224.793 263.381C224.766 258.448 224.312 253.62 223.416 248.769C223.382 248.569 223.347 248.37 223.311 248.164C222.504 243.595 220.978 239.107 219.293 234.788C219.232 234.631 219.171 234.475 219.109 234.313C218.994 234.019 218.877 233.726 218.758 233.434C218.217 232.053 218.039 230.601 218.343 229.138C218.758 228.633 219.084 228.326 219.667 228.035C220.789 227.95 221.408 228.027 222.313 228.697C225.059 232.576 226.042 238.166 227.026 242.718C227.3 243.77 227.508 244.404 228.46 244.982C228.635 245.089 228.81 245.196 228.99 245.306C229.18 245.416 229.37 245.526 229.565 245.64C229.761 245.755 229.957 245.87 230.159 245.989C234.463 248.452 239.441 250.261 244.454 249.286C246.155 248.738 247.548 247.722 248.451 246.164C249.161 244.47 248.778 242.628 248.327 240.911C248.253 240.624 248.253 240.624 248.177 240.331C245.804 231.6 239.034 224.676 232.818 218.44C232.614 218.235 232.409 218.029 232.198 217.817C231.191 216.812 230.172 215.836 229.092 214.909C228.568 214.457 228.069 213.98 227.566 213.505C226.269 212.324 224.881 211.349 223.416 210.389C223.166 210.215 222.916 210.04 222.667 209.865C221.233 208.831 221.233 208.831 219.542 208.625C219.312 208.677 219.312 208.677 219.076 208.731C217.779 209.021 216.372 209.113 215.214 208.432C214.651 207.772 214.559 207.406 214.552 206.557C214.549 206.387 214.546 206.217 214.543 206.042C214.601 205.465 214.73 205.146 215.034 204.654C215.42 204.408 215.42 204.408 215.891 204.217C216.069 204.144 216.247 204.071 216.431 203.996C217.494 203.592 218.565 203.21 219.639 202.835C224.239 201.194 228.289 199.5 232.019 196.273C232.127 196.179 232.236 196.085 232.348 195.988C238.001 191.058 242.342 184.432 243.268 176.862C243.293 176.251 243.309 175.646 243.313 175.035C243.314 174.863 243.315 174.691 243.317 174.514C243.319 174.152 243.32 173.79 243.321 173.428C243.323 172.885 243.33 172.341 243.337 171.798C243.356 168.935 242.935 166.37 241.986 163.655C241.901 163.404 241.901 163.404 241.815 163.147C241.546 162.357 241.264 161.581 240.934 160.814C239.958 158.486 239.631 156.188 239.295 153.693C237.608 141.356 232.467 130.086 223.857 121.057C223.58 120.741 223.304 120.425 223.03 120.106C219.12 115.61 214.079 112.159 208.858 109.366C208.723 109.293 208.588 109.22 208.448 109.145C201.882 105.618 194.704 103.662 187.463 102.088C187.286 102.048 187.11 102.009 186.928 101.968C185.935 101.747 184.94 101.572 183.934 101.426C183.738 101.396 183.543 101.367 183.342 101.336C163.351 98.431 140.429 103.366 122.835 118.41Z" fill="black"/>
<path d="M178.902 160.154C182.685 162.49 187.143 165.825 188.481 170.254C188.9 172.396 188.229 174.311 187.077 176.118C184.252 180.064 180.055 182.981 175.331 184.141C175.195 184.179 175.059 184.218 174.919 184.257C170.822 185.169 166.862 183.876 163.42 181.715C160.181 179.54 157.105 176.735 156.23 172.778C155.921 170.872 156.297 169.329 157.387 167.725C157.768 167.229 158.163 166.751 158.568 166.274C158.834 165.933 158.834 165.933 159.105 165.585C159.825 164.778 160.601 164.095 161.435 163.407C161.545 163.316 161.654 163.224 161.767 163.13C167.248 158.582 172.398 156.556 178.902 160.154Z" fill="black"/>
<path d="M226.339 164.979C228.487 167.014 229.572 169.571 229.669 172.499C229.706 175.715 228.91 178.726 226.664 181.138C224.129 183.507 221.143 184.555 217.718 184.488C214.584 184.337 211.656 182.928 209.52 180.612C208.997 179.912 208.587 179.188 208.197 178.406C208.089 178.193 207.981 177.979 207.87 177.759C206.741 175.226 206.738 172.406 207.512 169.754C207.957 168.635 208.585 167.68 209.299 166.716C209.415 166.557 209.531 166.398 209.65 166.234C211.404 164.035 213.898 162.809 216.578 162.139C220.283 161.83 223.45 162.577 226.339 164.979Z" fill="#F4A99C"/>
<path d="M130.114 162.966C130.425 163.106 130.425 163.106 130.743 163.249C133.559 164.643 135.238 166.887 136.29 169.804C136.957 173.191 136.622 176.702 134.677 179.619C134.413 179.956 134.142 180.287 133.863 180.612C133.737 180.767 133.611 180.923 133.481 181.083C131.786 182.985 129.039 184.289 126.5 184.443C124.252 184.501 122.443 184.311 120.408 183.259C120.207 183.158 120.005 183.057 119.797 182.953C117.447 181.667 115.778 179.434 114.922 176.903C114.131 173.546 114.424 169.899 116.18 166.91C119.281 162.398 125.063 160.62 130.114 162.966Z" fill="#F4A99C"/>
<path d="M144.451 298.398C146.744 298.835 146.744 298.835 149.083 299.28C149.075 299.778 149.068 300.276 149.06 300.789C148.689 307.192 148.689 307.192 151.278 312.764C151.761 313.25 152.253 313.725 152.75 314.197C155.174 316.498 155.174 316.498 155.328 318.071C155.259 318.691 155.259 318.691 154.818 319.353C153.812 319.321 153.271 319.221 152.55 318.499C152.31 318.24 152.073 317.977 151.84 317.712C150.918 316.67 150.293 316.076 148.862 315.824C147.945 315.839 147.485 315.912 146.763 316.484C146.073 317.32 145.825 318.104 145.526 319.132C144.829 321.452 144.829 321.452 144.23 322.22C143.417 322.399 143.417 322.399 142.686 322.441C142.294 321.763 142.19 321.269 142.185 320.49C142.18 320.288 142.176 320.086 142.171 319.877C142.165 319.454 142.161 319.031 142.159 318.607C142.139 317.413 142.139 317.413 141.657 316.346C140.295 315.547 138.355 316.011 136.869 316.265C135.777 316.45 134.72 316.54 133.615 316.554C133.342 316.558 133.068 316.562 132.786 316.565C132.099 316.485 132.099 316.485 131.659 316.219C131.437 315.824 131.437 315.824 131.462 315.289C131.658 314.721 131.658 314.721 132.144 314.363C133.907 313.539 135.694 312.882 137.544 312.281C140.686 311.37 140.686 311.37 143.235 309.448C144.249 307.372 144.075 304.631 144.155 302.356C144.162 302.161 144.169 301.965 144.176 301.765C144.181 301.594 144.187 301.423 144.192 301.247C144.249 300.295 144.356 299.347 144.451 298.398Z" fill="#FFBB4D"/>
<path d="M200.256 298.619C200.263 298.95 200.263 298.95 200.27 299.289C200.287 300.121 200.306 300.952 200.326 301.784C200.335 302.142 200.342 302.5 200.349 302.857C200.252 306.62 200.252 306.62 201.63 309.97C203.485 311.577 206.169 312.171 208.47 312.885C210.128 313.404 211.623 313.925 213.05 314.941C212.967 315.589 212.967 315.589 212.829 316.265C211.573 316.893 209.822 316.45 208.486 316.265C207.269 316.101 206.062 315.986 204.833 315.961C204.568 315.955 204.303 315.949 204.03 315.942C203.21 316.064 202.965 316.282 202.462 316.926C202.198 317.455 202.2 317.819 202.179 318.408C202.171 318.614 202.163 318.819 202.154 319.031C202.147 319.247 202.139 319.462 202.131 319.684C202.116 320.109 202.1 320.534 202.083 320.959C202.076 321.148 202.07 321.337 202.063 321.531C202.021 322 202.021 322 201.8 322.441C201.097 322.454 201.097 322.454 200.256 322.22C199.182 321.041 198.882 319.368 198.533 317.86C198.223 317.016 197.861 316.61 197.168 316.044C196.32 315.698 195.539 315.793 194.659 315.989C193.615 316.495 192.902 317.49 192.168 318.361C191.533 319.041 191.11 319.312 190.193 319.422C190.02 319.399 189.847 319.376 189.669 319.353C189.177 318.616 189.166 318.266 189.303 317.406C189.866 315.549 191.772 314.126 193.129 312.832C195.666 310.158 195.503 306.637 195.445 303.14C195.442 302.785 195.439 302.429 195.436 302.073C195.429 301.216 195.417 300.358 195.404 299.501C196.005 299.352 196.607 299.206 197.21 299.06C197.379 299.018 197.549 298.976 197.724 298.932C198.585 298.725 199.363 298.561 200.256 298.619Z" fill="#FFBB4D"/>
<path d="M176.348 164.359C178.854 165.794 181.22 167.607 182.831 170.024C182.831 170.243 182.831 170.461 182.831 170.686C180.585 171.288 178.471 171.383 176.15 171.385C175.844 171.385 175.537 171.386 175.231 171.387C174.59 171.388 173.948 171.389 173.307 171.389C172.495 171.389 171.682 171.392 170.869 171.395C170.236 171.398 169.603 171.398 168.97 171.398C168.527 171.399 168.085 171.401 167.642 171.403C163.069 171.392 163.069 171.392 161.656 170.686C162.82 167.313 166.988 164.93 170.038 163.407C172.398 162.534 174.177 163.263 176.348 164.359Z" fill="#FFBB4D"/>
<path d="M181.949 175.759C180.742 176.735 179.524 177.469 178.116 178.117C177.943 178.2 177.769 178.283 177.591 178.369C174.746 179.7 172.135 180.241 169.059 179.288C166.828 178.471 164.699 177.353 162.759 175.98C162.759 175.907 162.759 175.834 162.759 175.759C162.968 175.76 163.177 175.76 163.392 175.761C165.365 175.765 167.338 175.768 169.311 175.771C170.325 175.772 171.339 175.773 172.353 175.776C173.333 175.778 174.313 175.78 175.292 175.78C175.665 175.781 176.038 175.781 176.411 175.783C176.935 175.784 177.459 175.784 177.984 175.784C178.136 175.785 178.288 175.786 178.446 175.787C179.211 175.785 179.951 175.74 180.708 175.634C181.508 175.539 181.508 175.539 181.949 175.759Z" fill="#FFBB4D"/>
<path d="M134.915 153.615C135.059 153.61 135.059 153.61 135.206 153.605C135.803 153.688 136.172 154.105 136.578 154.562C136.667 154.662 136.755 154.761 136.847 154.863C137.025 155.065 137.203 155.268 137.38 155.471C139.446 157.615 142.254 158.204 145.01 158.132C147.565 158.019 150.114 156.93 151.854 154.867C151.972 154.724 152.089 154.58 152.204 154.434C152.582 153.961 152.831 153.687 153.404 153.604C154.095 153.593 154.636 153.615 155.16 154.143C155.559 154.624 155.765 155.093 155.806 155.743C155.735 157.049 154.748 158.147 153.91 158.991C152.275 160.527 150.398 161.454 148.341 162.098C148.221 162.138 148.221 162.138 148.099 162.178C144.496 163.33 140.321 162.65 137.046 160.739C135.632 159.878 133.514 158.269 132.997 156.505C132.899 155.613 132.954 154.989 133.452 154.267C133.922 153.79 134.279 153.627 134.915 153.615Z" fill="black"/>
<path d="M190.709 154.529C190.815 154.525 190.92 154.52 191.029 154.516C191.75 154.621 192.18 155.143 192.631 155.671C194.228 157.464 196.672 158.42 199.046 158.625C201.839 158.77 204.789 158.282 206.946 156.376C207.305 156.034 207.641 155.681 207.963 155.304C208.304 154.907 208.57 154.611 209.111 154.529C209.759 154.493 210.287 154.613 210.803 155.015C211.22 155.466 211.453 155.869 211.559 156.475C211.452 157.65 210.562 158.624 209.703 159.355C206.39 162.058 202.244 163.072 198.011 162.65C197.364 162.557 196.736 162.411 196.107 162.234C195.994 162.203 195.994 162.203 195.878 162.172C193.275 161.447 190.582 159.875 189.055 157.602C188.769 157.092 188.628 156.61 188.759 156.03C189.145 155.167 189.735 154.554 190.709 154.529Z" fill="black"/>
<path d="M207.416 113.39C207.54 113.389 207.54 113.389 207.666 113.388C207.756 113.388 207.847 113.388 207.94 113.388C208.036 113.387 208.133 113.386 208.229 113.386C208.49 113.384 208.752 113.383 209.013 113.382C209.177 113.382 209.34 113.381 209.504 113.381C210.016 113.379 210.528 113.377 211.04 113.377C211.63 113.376 212.22 113.374 212.81 113.37C213.267 113.367 213.724 113.366 214.18 113.365C214.453 113.365 214.725 113.364 214.998 113.362C215.255 113.36 215.511 113.359 215.768 113.361C215.906 113.361 216.045 113.359 216.183 113.357C216.656 113.361 216.96 113.396 217.32 113.716C217.866 114.278 217.934 114.757 217.938 115.517C217.939 115.601 217.94 115.685 217.941 115.772C217.942 115.949 217.943 116.127 217.943 116.305C217.944 116.575 217.949 116.845 217.953 117.115C217.954 117.289 217.955 117.462 217.955 117.635C217.957 117.715 217.959 117.795 217.961 117.878C217.956 118.472 217.784 118.833 217.422 119.299C217.374 119.361 217.374 119.361 217.325 119.425C217.24 119.53 217.151 119.631 217.062 119.731C216.997 119.807 216.931 119.882 216.866 119.958C216.833 119.996 216.801 120.034 216.767 120.073C216.572 120.304 216.388 120.543 216.202 120.781C216.008 121.031 215.811 121.279 215.612 121.525C215.013 122.267 214.443 123.029 213.886 123.802C213.858 123.841 213.83 123.88 213.8 123.921C213.666 124.109 213.55 124.295 213.45 124.504C213.511 124.502 213.572 124.5 213.634 124.498C214.179 124.479 214.724 124.462 215.269 124.448C215.566 124.44 215.862 124.43 216.158 124.419C216.283 124.416 216.407 124.413 216.531 124.41C216.586 124.407 216.641 124.405 216.697 124.402C217.12 124.396 217.42 124.536 217.764 124.778C218.057 125.078 218.192 125.382 218.194 125.801C218.195 125.866 218.195 125.932 218.196 125.999C218.196 126.104 218.196 126.104 218.196 126.211C218.196 126.284 218.196 126.356 218.197 126.431C218.197 126.585 218.197 126.738 218.197 126.892C218.196 127.126 218.198 127.36 218.2 127.594C218.2 127.744 218.2 127.893 218.2 128.043C218.201 128.112 218.201 128.182 218.202 128.253C218.199 128.715 218.162 129.135 217.854 129.505C217.815 129.535 217.775 129.566 217.734 129.597C217.695 129.629 217.655 129.661 217.615 129.693C217.338 129.88 217.145 129.931 216.807 129.932C216.682 129.933 216.682 129.933 216.554 129.934C216.461 129.934 216.369 129.934 216.276 129.934C216.178 129.934 216.081 129.935 215.983 129.935C215.718 129.937 215.453 129.937 215.188 129.937C215.022 129.937 214.856 129.937 214.69 129.938C214.111 129.939 213.533 129.94 212.954 129.939C212.415 129.939 211.876 129.941 211.337 129.943C210.874 129.945 210.411 129.946 209.948 129.945C209.672 129.945 209.395 129.946 209.119 129.947C208.859 129.949 208.599 129.949 208.339 129.948C208.243 129.947 208.148 129.948 208.053 129.949C207.456 129.953 206.98 129.942 206.531 129.506C206.486 129.439 206.486 129.439 206.439 129.37C206.407 129.326 206.376 129.282 206.343 129.236C206.185 128.965 206.105 128.73 206.1 128.416C206.098 128.319 206.098 128.319 206.096 128.221C206.095 128.151 206.095 128.082 206.094 128.011C206.093 127.903 206.093 127.903 206.092 127.793C206.091 127.64 206.09 127.488 206.089 127.335C206.088 127.104 206.084 126.874 206.079 126.643C206.065 125.209 206.065 125.209 206.533 124.572C206.572 124.515 206.611 124.458 206.652 124.4C206.776 124.226 206.905 124.059 207.038 123.892C207.135 123.767 207.233 123.641 207.33 123.516C207.379 123.453 207.429 123.39 207.48 123.325C207.719 123.019 207.954 122.711 208.189 122.402C208.235 122.343 208.28 122.283 208.327 122.222C208.658 121.788 208.978 121.347 209.294 120.903C209.578 120.508 209.876 120.127 210.184 119.751C210.362 119.537 210.362 119.537 210.505 119.299C210.467 119.299 210.429 119.299 210.39 119.299C209.992 119.298 209.594 119.294 209.197 119.289C209.049 119.287 208.9 119.286 208.752 119.286C208.538 119.285 208.325 119.282 208.111 119.279C208.045 119.279 207.98 119.28 207.913 119.28C207.389 119.269 206.91 119.137 206.536 118.75C206.125 118.241 206.1 117.745 206.099 117.112C206.099 117.033 206.098 116.955 206.098 116.873C206.097 116.707 206.097 116.541 206.097 116.374C206.096 116.12 206.094 115.866 206.091 115.612C206.091 115.45 206.091 115.288 206.09 115.126C206.089 115.051 206.088 114.975 206.087 114.897C206.09 114.453 206.131 114.181 206.396 113.821C206.723 113.518 206.97 113.393 207.416 113.39Z" fill="black"/>
<path d="M216.052 115.327C216.221 117.818 216.221 117.818 215.662 118.46C215.542 118.59 215.418 118.713 215.288 118.834C215.07 119.046 214.888 119.287 214.699 119.526C214.625 119.617 214.551 119.708 214.476 119.799C214.191 120.149 213.923 120.511 213.655 120.874C213.082 121.643 212.507 122.411 211.909 123.161C210.969 124.256 210.969 124.256 210.642 125.6C210.72 125.907 210.862 126.039 211.121 126.216C211.362 126.296 211.555 126.296 211.809 126.299C211.858 126.299 211.906 126.3 211.957 126.301C212.118 126.303 212.279 126.305 212.44 126.306C212.552 126.308 212.664 126.309 212.776 126.311C213.07 126.314 213.364 126.318 213.658 126.321C213.958 126.324 214.259 126.328 214.559 126.332C215.148 126.339 215.737 126.346 216.326 126.353C216.326 126.895 216.326 127.438 216.326 127.997C213.546 127.997 210.766 127.997 207.902 127.997C207.902 125.499 207.902 125.499 208.597 124.766C208.642 124.723 208.687 124.679 208.733 124.634C208.934 124.43 209.096 124.201 209.263 123.969C209.33 123.879 209.397 123.789 209.465 123.699C209.499 123.653 209.534 123.606 209.57 123.558C209.786 123.272 210.004 122.987 210.222 122.702C210.618 122.184 211.008 121.663 211.393 121.137C211.653 120.784 211.914 120.432 212.178 120.083C212.934 119.211 212.934 119.211 213.244 118.169C213.194 117.84 213.072 117.678 212.833 117.45C212.603 117.374 212.425 117.371 212.183 117.368C212.138 117.367 212.094 117.366 212.047 117.366C211.9 117.363 211.752 117.362 211.604 117.36C211.501 117.359 211.399 117.357 211.296 117.356C211.026 117.352 210.756 117.349 210.487 117.345C210.211 117.342 209.936 117.338 209.66 117.334C209.12 117.327 208.58 117.32 208.039 117.313C208.039 116.68 208.039 116.048 208.039 115.396C208.668 115.384 209.298 115.372 209.927 115.361C209.974 115.361 210.021 115.36 210.07 115.359C212.064 115.325 214.057 115.319 216.052 115.327Z" fill="#AADCE7"/>
<path d="M222.066 108.068C222.229 108.066 222.229 108.066 222.396 108.065C222.515 108.064 222.634 108.064 222.757 108.064C222.884 108.063 223.011 108.062 223.138 108.061C223.483 108.059 223.828 108.058 224.173 108.057C224.389 108.056 224.605 108.056 224.821 108.055C225.496 108.052 226.171 108.051 226.847 108.05C227.626 108.049 228.404 108.046 229.183 108.041C229.786 108.037 230.388 108.035 230.991 108.035C231.35 108.035 231.71 108.034 232.069 108.03C232.408 108.027 232.746 108.027 233.085 108.029C233.268 108.029 233.45 108.026 233.633 108.024C234.257 108.029 234.658 108.076 235.133 108.497C235.854 109.239 235.943 109.87 235.948 110.873C235.95 110.984 235.951 111.095 235.952 111.21C235.954 111.444 235.955 111.679 235.955 111.913C235.956 112.27 235.962 112.626 235.969 112.983C235.97 113.211 235.971 113.44 235.971 113.668C235.973 113.774 235.976 113.879 235.978 113.988C235.972 114.773 235.745 115.249 235.267 115.864C235.204 115.946 235.204 115.946 235.139 116.03C235.028 116.168 234.91 116.301 234.793 116.434C234.706 116.534 234.62 116.633 234.534 116.733C234.491 116.783 234.448 116.833 234.403 116.885C234.146 117.189 233.903 117.504 233.658 117.818C233.401 118.148 233.142 118.476 232.879 118.801C232.09 119.78 231.337 120.784 230.603 121.805C230.565 121.856 230.528 121.908 230.489 121.961C230.312 122.21 230.159 122.456 230.027 122.731C230.107 122.728 230.187 122.725 230.27 122.722C230.989 122.698 231.708 122.676 232.428 122.657C232.819 122.646 233.209 122.633 233.6 122.618C233.764 122.614 233.929 122.61 234.093 122.606C234.165 122.603 234.237 122.6 234.311 122.596C234.869 122.588 235.264 122.774 235.719 123.092C236.106 123.488 236.283 123.889 236.286 124.442C236.287 124.528 236.288 124.614 236.289 124.703C236.288 124.842 236.288 124.842 236.288 124.983C236.289 125.079 236.289 125.175 236.29 125.274C236.29 125.476 236.29 125.679 236.29 125.882C236.289 126.19 236.292 126.499 236.294 126.808C236.294 127.005 236.294 127.203 236.294 127.4C236.295 127.492 236.296 127.583 236.297 127.678C236.293 128.287 236.243 128.841 235.838 129.329C235.786 129.369 235.733 129.409 235.68 129.451C235.627 129.493 235.575 129.534 235.522 129.577C235.156 129.824 234.902 129.892 234.457 129.893C234.291 129.894 234.291 129.894 234.122 129.895C234 129.895 233.878 129.895 233.756 129.895C233.627 129.896 233.498 129.896 233.369 129.897C233.019 129.898 232.669 129.899 232.32 129.899C232.101 129.899 231.882 129.899 231.663 129.9C230.9 129.902 230.136 129.902 229.372 129.902C228.662 129.902 227.951 129.904 227.24 129.907C226.629 129.909 226.018 129.91 225.407 129.91C225.042 129.91 224.677 129.911 224.313 129.912C223.97 129.914 223.626 129.914 223.283 129.913C223.158 129.913 223.032 129.913 222.906 129.914C222.119 129.921 221.491 129.905 220.899 129.33C220.838 129.242 220.838 129.242 220.777 129.152C220.735 129.093 220.693 129.034 220.65 128.974C220.441 128.617 220.336 128.306 220.33 127.892C220.327 127.765 220.327 127.765 220.324 127.634C220.324 127.543 220.323 127.452 220.322 127.358C220.32 127.216 220.32 127.216 220.319 127.07C220.317 126.869 220.316 126.668 220.315 126.467C220.313 126.162 220.308 125.857 220.302 125.552C220.283 123.661 220.283 123.661 220.901 122.821C220.953 122.746 221.004 122.671 221.058 122.593C221.221 122.364 221.392 122.144 221.567 121.923C221.696 121.758 221.824 121.593 221.952 121.428C222.017 121.344 222.083 121.261 222.15 121.175C222.465 120.772 222.776 120.365 223.086 119.958C223.146 119.879 223.206 119.801 223.268 119.72C223.704 119.147 224.126 118.566 224.544 117.98C224.918 117.459 225.312 116.956 225.717 116.459C225.952 116.177 225.952 116.177 226.141 115.864C226.091 115.864 226.041 115.863 225.99 115.863C225.465 115.862 224.94 115.857 224.415 115.85C224.22 115.848 224.024 115.847 223.829 115.846C223.547 115.845 223.265 115.841 222.982 115.837C222.896 115.838 222.81 115.838 222.721 115.838C222.03 115.824 221.398 115.649 220.905 115.139C220.363 114.468 220.33 113.814 220.328 112.978C220.328 112.874 220.327 112.77 220.326 112.663C220.326 112.444 220.325 112.224 220.325 112.004C220.325 111.669 220.321 111.334 220.318 110.999C220.318 110.785 220.317 110.572 220.317 110.358C220.316 110.258 220.314 110.158 220.313 110.056C220.317 109.47 220.37 109.111 220.72 108.635C221.152 108.236 221.478 108.071 222.066 108.068Z" fill="black"/>
<path d="M233.46 110.623C233.684 113.91 233.684 113.91 232.946 114.757C232.787 114.928 232.624 115.091 232.453 115.25C232.164 115.53 231.924 115.848 231.676 116.163C231.578 116.283 231.479 116.403 231.381 116.523C231.005 116.985 230.652 117.463 230.298 117.942C229.542 118.956 228.783 119.969 227.995 120.959C226.754 122.403 226.754 122.403 226.322 124.176C226.426 124.582 226.612 124.756 226.955 124.99C227.272 125.095 227.527 125.094 227.862 125.099C227.926 125.099 227.991 125.1 228.057 125.101C228.27 125.104 228.482 125.106 228.695 125.109C228.843 125.11 228.99 125.112 229.138 125.114C229.526 125.119 229.914 125.124 230.302 125.128C230.698 125.133 231.094 125.138 231.49 125.143C232.267 125.152 233.045 125.161 233.822 125.17C233.822 125.886 233.822 126.602 233.822 127.339C230.154 127.339 226.487 127.339 222.708 127.339C222.708 124.043 222.708 124.043 223.625 123.077C223.684 123.019 223.743 122.962 223.804 122.902C224.069 122.633 224.284 122.331 224.504 122.025C224.592 121.906 224.681 121.787 224.769 121.669C224.815 121.608 224.861 121.546 224.908 121.483C225.193 121.105 225.481 120.729 225.769 120.353C226.291 119.67 226.806 118.982 227.314 118.288C227.656 117.822 228.002 117.359 228.35 116.897C229.347 115.747 229.347 115.747 229.756 114.373C229.69 113.939 229.529 113.724 229.214 113.424C228.91 113.323 228.676 113.319 228.356 113.315C228.297 113.314 228.238 113.313 228.177 113.313C227.982 113.31 227.787 113.307 227.592 113.305C227.456 113.303 227.321 113.301 227.186 113.3C226.83 113.295 226.474 113.29 226.118 113.286C225.754 113.281 225.391 113.276 225.027 113.271C224.315 113.261 223.602 113.252 222.889 113.243C222.889 112.409 222.889 111.574 222.889 110.714C223.719 110.698 224.549 110.683 225.379 110.668C225.441 110.667 225.504 110.666 225.568 110.665C228.199 110.62 230.829 110.613 233.46 110.623Z" fill="#AADCE7"/>
<path d="M241.026 101.564C241.243 101.562 241.243 101.562 241.466 101.56C241.625 101.56 241.784 101.559 241.947 101.559C242.117 101.558 242.286 101.557 242.456 101.556C242.916 101.552 243.376 101.551 243.836 101.55C244.123 101.549 244.411 101.548 244.699 101.547C245.599 101.544 246.5 101.541 247.4 101.54C248.439 101.539 249.477 101.535 250.515 101.528C251.319 101.523 252.122 101.52 252.925 101.52C253.405 101.52 253.884 101.519 254.364 101.514C254.815 101.51 255.266 101.51 255.718 101.512C255.961 101.512 256.205 101.509 256.448 101.505C257.281 101.513 257.815 101.575 258.449 102.137C259.409 103.126 259.528 103.967 259.536 105.304C259.537 105.453 259.539 105.601 259.54 105.753C259.543 106.066 259.544 106.379 259.544 106.691C259.546 107.167 259.554 107.642 259.563 108.117C259.564 108.422 259.565 108.727 259.566 109.032C259.569 109.172 259.572 109.313 259.576 109.458C259.567 110.504 259.265 111.139 258.628 111.959C258.543 112.068 258.543 112.068 258.457 112.18C258.308 112.364 258.152 112.542 257.995 112.719C257.88 112.852 257.765 112.985 257.65 113.118C257.592 113.185 257.535 113.252 257.475 113.321C257.132 113.726 256.808 114.146 256.482 114.565C256.14 115.005 255.793 115.441 255.443 115.875C254.391 117.18 253.387 118.519 252.408 119.88C252.358 119.949 252.308 120.018 252.257 120.089C252.02 120.421 251.817 120.748 251.64 121.115C251.747 121.111 251.854 121.107 251.965 121.104C252.924 121.071 253.882 121.042 254.841 121.016C255.363 121.002 255.884 120.984 256.405 120.965C256.624 120.959 256.843 120.954 257.061 120.949C257.157 120.944 257.253 120.94 257.352 120.935C258.097 120.924 258.624 121.172 259.23 121.597C259.745 122.125 259.982 122.659 259.986 123.396C259.987 123.511 259.988 123.626 259.989 123.745C259.989 123.929 259.989 123.929 259.989 124.118C259.989 124.245 259.99 124.373 259.991 124.505C259.991 124.775 259.991 125.046 259.991 125.316C259.99 125.728 259.993 126.139 259.996 126.551C259.997 126.814 259.997 127.077 259.996 127.34C259.998 127.463 259.999 127.585 260 127.711C259.995 128.523 259.929 129.262 259.388 129.912C259.319 129.966 259.249 130.02 259.177 130.075C259.108 130.131 259.038 130.186 258.967 130.243C258.479 130.573 258.141 130.662 257.547 130.664C257.326 130.666 257.326 130.666 257.101 130.667C256.938 130.667 256.775 130.667 256.612 130.667C256.44 130.668 256.268 130.669 256.097 130.67C255.63 130.672 255.164 130.672 254.697 130.672C254.406 130.673 254.114 130.673 253.822 130.674C252.804 130.676 251.786 130.677 250.768 130.677C249.82 130.677 248.872 130.679 247.924 130.683C247.109 130.686 246.295 130.687 245.48 130.687C244.994 130.687 244.508 130.688 244.022 130.69C243.564 130.693 243.106 130.693 242.649 130.691C242.481 130.691 242.314 130.691 242.146 130.693C241.097 130.701 240.26 130.681 239.469 129.914C239.389 129.796 239.389 129.796 239.307 129.676C239.251 129.598 239.195 129.52 239.138 129.439C238.86 128.963 238.72 128.549 238.711 127.997C238.707 127.827 238.707 127.827 238.704 127.653C238.703 127.531 238.701 127.41 238.7 127.285C238.698 127.095 238.698 127.095 238.696 126.901C238.694 126.632 238.692 126.364 238.691 126.096C238.689 125.689 238.682 125.283 238.674 124.877C238.649 122.355 238.649 122.355 239.472 121.235C239.541 121.135 239.61 121.035 239.681 120.931C239.899 120.626 240.127 120.332 240.361 120.038C240.532 119.818 240.703 119.598 240.874 119.377C240.961 119.266 241.048 119.155 241.138 119.041C241.558 118.503 241.972 117.96 242.386 117.418C242.466 117.313 242.546 117.208 242.629 117.1C243.21 116.337 243.773 115.562 244.33 114.78C244.829 114.086 245.354 113.415 245.894 112.753C246.207 112.376 246.207 112.376 246.46 111.959C246.393 111.959 246.326 111.958 246.257 111.958C245.558 111.956 244.858 111.949 244.158 111.94C243.898 111.938 243.637 111.936 243.376 111.935C243 111.934 242.624 111.929 242.248 111.923C242.133 111.924 242.018 111.924 241.899 111.925C240.978 111.905 240.135 111.673 239.478 110.993C238.755 110.098 238.711 109.225 238.709 108.112C238.708 107.973 238.707 107.834 238.706 107.691C238.705 107.399 238.705 107.106 238.705 106.813C238.704 106.366 238.7 105.919 238.695 105.473C238.695 105.188 238.694 104.903 238.694 104.618C238.692 104.485 238.69 104.352 238.689 104.215C238.693 103.434 238.765 102.955 239.231 102.321C239.807 101.788 240.241 101.569 241.026 101.564Z" fill="black"/>
<path d="M256.218 104.971C256.516 109.353 256.516 109.353 255.533 110.483C255.321 110.711 255.103 110.928 254.875 111.14C254.49 111.513 254.17 111.938 253.839 112.358C253.708 112.518 253.577 112.678 253.446 112.838C252.945 113.454 252.473 114.091 252.002 114.73C250.993 116.082 249.982 117.432 248.931 118.752C247.276 120.678 247.276 120.678 246.701 123.042C246.839 123.583 247.088 123.815 247.544 124.127C247.967 124.268 248.307 124.266 248.754 124.272C248.84 124.273 248.926 124.274 249.014 124.275C249.298 124.279 249.581 124.282 249.865 124.285C250.061 124.288 250.258 124.29 250.455 124.293C250.972 124.299 251.49 124.305 252.007 124.311C252.535 124.317 253.063 124.324 253.592 124.331C254.628 124.344 255.664 124.356 256.7 124.367C256.7 125.322 256.7 126.276 256.7 127.259C251.81 127.259 246.92 127.259 241.882 127.259C241.882 122.865 241.882 122.865 243.104 121.576C243.183 121.499 243.262 121.423 243.343 121.344C243.697 120.984 243.983 120.582 244.276 120.174C244.394 120.015 244.512 119.857 244.63 119.699C244.691 119.617 244.753 119.535 244.816 119.451C245.195 118.947 245.579 118.446 245.963 117.945C246.659 117.034 247.345 116.116 248.023 115.191C248.479 114.57 248.94 113.952 249.404 113.337C250.733 111.803 250.733 111.803 251.279 109.971C251.191 109.392 250.976 109.106 250.556 108.706C250.152 108.571 249.839 108.566 249.413 108.561C249.334 108.56 249.255 108.558 249.174 108.557C248.914 108.553 248.654 108.55 248.394 108.547C248.213 108.545 248.033 108.542 247.852 108.54C247.377 108.533 246.903 108.527 246.428 108.521C245.943 108.515 245.459 108.509 244.974 108.502C244.024 108.489 243.073 108.477 242.123 108.465C242.123 107.352 242.123 106.239 242.123 105.092C243.23 105.071 244.336 105.051 245.443 105.031C245.526 105.03 245.609 105.029 245.695 105.027C249.203 104.967 252.71 104.957 256.218 104.971Z" fill="#AADCE7"/>
<path d="M174.911 75.889C175.351 76.2816 175.604 76.7173 175.751 77.2619C175.751 77.3168 175.751 77.3717 175.751 77.4283C175.805 77.4304 175.805 77.4304 175.861 77.4326C180.787 77.7138 185.76 79.8732 189.032 83.2377C189.169 83.3883 189.301 83.5414 189.432 83.6962C189.494 83.7689 189.557 83.8417 189.619 83.9144C193.09 87.9744 194.291 93.2295 194.676 101.574C194.676 101.634 194.677 101.694 194.677 101.756C194.678 101.926 194.678 102.097 194.677 102.267C194.677 102.342 194.677 102.342 194.678 102.418C194.675 102.698 194.638 102.946 194.565 103.217C194.527 103.386 194.537 103.54 194.553 103.711C194.56 103.783 194.566 103.855 194.573 103.929C194.611 104.274 194.657 104.619 194.704 104.964C194.964 106.86 195.103 108.741 195.105 110.652C195.105 110.767 195.106 110.882 195.106 110.996C195.11 113.017 195.11 113.017 194.836 113.989C194.823 114.035 194.81 114.08 194.797 114.127C194.481 115.182 193.812 116.126 192.763 116.68C191.499 117.239 190.17 117.057 188.877 116.71C188.83 116.698 188.784 116.685 188.736 116.673C187.95 116.452 187.203 116.139 186.459 115.823C186.214 115.719 185.968 115.616 185.723 115.513C185.672 115.492 185.622 115.47 185.57 115.449C184.179 114.865 182.788 114.284 181.345 113.815C181.272 113.792 181.272 113.792 181.197 113.768C180.543 113.559 179.873 113.404 179.201 113.25C179.14 113.236 179.14 113.236 179.078 113.222C178.183 113.017 177.282 112.859 176.37 112.73C176.328 112.724 176.285 112.718 176.242 112.712C175.594 112.621 174.945 112.533 174.291 112.484C174.201 112.477 174.201 112.477 174.109 112.47C171.431 112.283 168.713 112.438 166.083 112.928C166.006 112.942 165.93 112.956 165.851 112.971C163.676 113.38 161.609 114.038 159.577 114.849C159.441 114.902 159.305 114.956 159.169 115.01C158.441 115.298 157.716 115.593 156.995 115.896C155.194 116.651 153.106 117.448 151.125 116.811C150.865 116.7 150.63 116.573 150.395 116.422C150.352 116.395 150.308 116.367 150.264 116.338C149.222 115.589 148.783 114.323 148.61 113.169C148.592 113.021 148.577 112.872 148.563 112.724C148.558 112.669 148.553 112.614 148.548 112.558C148.496 111.938 148.492 111.32 148.495 110.699C148.495 110.639 148.495 110.579 148.496 110.517C148.499 109.432 148.54 108.352 148.632 107.27C148.635 107.232 148.638 107.193 148.642 107.153C148.723 106.191 148.834 105.234 148.98 104.277C149.087 103.69 149.087 103.69 148.997 103.11C148.99 102.986 148.988 102.861 148.987 102.737C148.987 102.699 148.986 102.661 148.986 102.622C148.985 102.496 148.985 102.37 148.984 102.243C148.984 102.154 148.983 102.065 148.983 101.976C148.982 101.689 148.982 101.401 148.982 101.113C148.981 101.064 148.981 101.016 148.981 100.965C148.981 99.5014 148.996 98.0451 149.164 96.5876C149.18 96.448 149.195 96.3083 149.211 96.1687C149.727 91.5801 151.125 86.8933 154.53 83.3634C154.576 83.314 154.576 83.314 154.624 83.2636C155.344 82.5 156.134 81.7979 157.023 81.2001C157.087 81.1543 157.151 81.1082 157.214 81.0619C159.993 79.0434 164.296 77.374 167.907 77.4283C167.909 77.3596 167.912 77.291 167.914 77.2203C167.991 76.6185 168.376 76.1383 168.88 75.7642C170.583 74.6406 173.249 74.8188 174.911 75.889Z" fill="black"/>
<path d="M171.669 100.434C171.709 100.434 171.749 100.434 171.79 100.434C174.165 100.432 176.547 100.516 178.908 100.767C179.048 100.782 179.188 100.796 179.329 100.81C180.697 100.949 182.059 101.101 183.411 101.335C183.46 101.344 183.509 101.352 183.559 101.361C185.09 101.626 186.598 101.932 188.093 102.334C188.197 102.361 188.197 102.361 188.302 102.389C189.386 102.676 190.445 103.02 191.498 103.387C191.561 103.409 191.624 103.431 191.689 103.453C191.854 103.511 192.018 103.57 192.182 103.63C192.253 103.655 192.253 103.655 192.325 103.68C192.635 103.797 192.635 103.797 192.724 103.959C192.773 104.102 192.802 104.232 192.821 104.38C192.831 104.459 192.831 104.459 192.842 104.54C192.852 104.625 192.852 104.625 192.863 104.712C192.87 104.772 192.878 104.832 192.886 104.893C192.91 105.088 192.934 105.283 192.958 105.478C192.97 105.578 192.97 105.578 192.982 105.681C193.183 107.343 193.272 108.98 193.277 110.651C193.277 110.77 193.277 110.889 193.278 111.008C193.289 113.936 193.289 113.936 192.346 114.911C191.96 115.237 191.491 115.383 190.97 115.4C190.459 115.38 189.981 115.277 189.492 115.147C189.449 115.135 189.406 115.124 189.362 115.112C188.395 114.849 187.49 114.439 186.578 114.052C183.221 112.633 179.858 111.532 176.183 111.032C176.122 111.023 176.06 111.014 175.997 111.006C174.666 110.834 173.322 110.797 171.98 110.799C171.904 110.799 171.828 110.799 171.75 110.799C167.701 110.807 163.823 111.5 160.063 112.873C160.024 112.887 159.986 112.9 159.946 112.915C158.956 113.277 157.987 113.67 157.028 114.099C153.527 115.661 153.527 115.661 152.017 115.324C151.452 115.138 151.118 114.806 150.835 114.332C150.286 113.235 150.314 112.049 150.318 110.869C150.319 110.646 150.318 110.424 150.317 110.201C150.317 109.201 150.368 108.212 150.455 107.215C150.46 107.167 150.464 107.12 150.468 107.07C150.499 106.711 150.536 106.352 150.578 105.993C150.614 105.696 150.641 105.402 150.646 105.103C150.665 104.022 150.665 104.022 151.014 103.714C151.385 103.497 151.797 103.391 152.219 103.285C152.477 103.219 152.726 103.137 152.977 103.052C153.492 102.879 154.009 102.715 154.529 102.555C154.593 102.536 154.656 102.517 154.721 102.497C156.531 101.95 158.414 101.602 160.289 101.302C160.425 101.28 160.562 101.258 160.698 101.235C162.732 100.902 164.787 100.723 166.846 100.572C166.89 100.569 166.933 100.566 166.978 100.562C168.537 100.447 170.106 100.435 171.669 100.434Z" fill="#AADCE7"/>
<path d="M176.135 79.0889C176.202 79.0978 176.202 79.0978 176.27 79.1069C179.97 79.609 183.665 80.8589 186.418 83.2289C186.554 83.346 186.693 83.4576 186.837 83.568C187.035 83.725 187.206 83.8942 187.375 84.0769C187.494 84.203 187.617 84.3236 187.741 84.445C190.068 86.812 191.35 89.9423 192.047 93.0149C192.07 93.1115 192.093 93.2082 192.116 93.3048C192.778 96.1873 192.947 99.2291 192.898 102.167C192.544 102.063 192.198 101.948 191.852 101.823C187.149 100.128 182.185 99.4152 176.54 98.9781C176.445 98.9712 176.349 98.9643 176.253 98.9571C175.074 98.87 173.895 98.8661 172.711 98.8391C172.711 92.3776 172.711 85.9161 172.711 79.2588C172.992 79.2405 173.273 79.2222 173.562 79.2033C173.755 79.1691 173.94 79.1337 174.128 79.0889C174.816 78.9266 175.439 78.9958 176.135 79.0889Z" fill="#AADCE7"/>
<path d="M169.431 79.0541C169.906 79.1774 170.399 79.24 170.886 79.3141C170.886 85.7573 170.886 92.2005 170.886 98.839C169.963 98.8573 169.04 98.8756 168.089 98.8944C167.566 98.9202 167.045 98.9478 166.524 98.988C166.428 98.9951 166.428 98.9951 166.33 99.0023C161.215 99.3793 155.864 100.055 151.14 101.983C150.942 102.056 150.942 102.056 150.76 102.056C150.717 99.6483 150.771 97.2321 151.215 94.8522C151.248 94.6681 151.279 94.4836 151.31 94.299C151.882 90.965 153.113 87.5429 155.503 84.9164C155.557 84.8556 155.611 84.7947 155.666 84.7338C156.204 84.1351 156.799 83.5844 157.449 83.086C157.506 83.04 157.564 82.994 157.624 82.9467C160.242 80.8742 165.84 78.0959 169.431 79.0541Z" fill="#AADCE7"/>
<path d="M173.486 77.1128C173.651 77.2935 173.673 77.4175 173.683 77.6502C172.949 78.1532 171.941 78.1102 171.061 78.0261C170.612 77.9654 170.231 77.8204 169.853 77.5947C169.892 77.319 169.988 77.2278 170.219 77.0597C171.052 76.5369 172.666 76.5866 173.486 77.1128Z" fill="#AADCE7"/>
</svg>
