<svg width="180" height="278" viewBox="0 0 180 278" fill="none" xmlns="http://www.w3.org/2000/svg">
<path d="M90.3608 1.94393C93.8548 4.77271 96.3609 9.25284 96.9824 13.7089C97.2071 16.5476 97.2363 19.449 96.2584 22.1556C96.6541 22.1692 96.6541 22.1692 97.0578 22.183C102.2 22.3886 107.186 23.1226 112.186 24.3276C112.518 24.4054 112.518 24.4054 112.856 24.4848C118.991 25.9364 124.88 28.0457 130.528 30.8436C130.748 30.9522 130.968 31.0608 131.195 31.1726C135.882 33.5047 140.213 36.2402 144.284 39.5316C144.43 39.6497 144.577 39.7678 144.727 39.8895C148.034 42.5827 151.072 45.5808 153.696 48.9437C154.067 49.3916 154.439 49.8391 154.812 50.2861C157.714 53.8537 159.943 57.8722 161.926 62.0104C162.131 62.4336 162.341 62.8538 162.552 63.2738C165.941 70.2022 168.025 77.7734 169.452 85.3294C170.087 88.6399 170.894 91.7823 172.003 94.9586C172.825 97.3149 173.437 99.5571 173.726 102.037C173.769 102.319 173.812 102.601 173.856 102.892C175.055 112.689 172.247 122.695 166.245 130.514C162.775 134.931 158.744 138.474 153.937 141.374C153.784 141.467 153.63 141.56 153.472 141.655C150.715 143.305 150.715 143.305 149.834 143.305C149.834 143.464 149.834 143.624 149.834 143.788C150.009 143.848 150.184 143.908 150.363 143.971C151.505 144.475 152.374 145.319 153.318 146.123C153.686 146.434 154.059 146.739 154.433 147.043C156.336 148.609 158.094 150.312 159.835 152.053C160.006 152.224 160.006 152.224 160.18 152.398C161.395 153.613 162.579 154.841 163.698 156.145C164.277 156.815 164.885 157.456 165.491 158.102C166.559 159.251 167.581 160.425 168.562 161.649C168.994 162.187 169.43 162.72 169.871 163.25C173.697 167.866 176.983 172.547 178.871 178.281C179.008 178.696 179.153 179.108 179.301 179.52C180.299 182.714 180.312 187.114 178.794 190.124C178.71 190.294 178.625 190.464 178.538 190.639C176.612 194.043 173.746 195.939 170.106 197.122C164.293 198.463 157.905 196.642 152.73 193.985C152.81 194.144 152.89 194.304 152.972 194.468C154.825 206.372 154.223 218.968 146.906 228.988C141.679 235.91 134.404 239.737 126.425 242.735C126.425 246.159 126.425 249.584 126.425 253.112C127.142 253.271 127.859 253.43 128.597 253.595C129.683 253.929 130.754 254.306 131.825 254.686C132.32 254.861 132.816 255.031 133.313 255.202C136.296 256.244 138.682 257.374 140.392 260.111C141.091 261.948 140.952 264.557 140.222 266.371C139.161 268.24 137.702 269.529 135.64 270.134C135.066 270.257 134.548 270.278 133.961 270.279C133.742 270.279 133.523 270.279 133.297 270.28C133.07 270.279 132.843 270.278 132.609 270.277C132.271 270.278 132.271 270.278 131.927 270.28C130.79 270.278 129.715 270.241 128.597 270.005C128.608 270.172 128.62 270.338 128.631 270.51C128.719 272.798 128.148 274.458 126.598 276.158C125.224 277.363 123.572 277.818 121.78 277.795C119.906 277.606 118.09 276.649 116.772 275.315C115.931 274.172 115.217 272.971 114.6 271.695C114.448 271.794 114.296 271.892 114.14 271.994C111.855 273.432 109.847 273.981 107.118 273.625C105.335 273.031 103.735 272.145 102.774 270.488C101.689 268.3 101.426 266.21 102.156 263.866C103.1 261.536 104.81 259.685 106.601 257.964C107.263 257.314 107.865 256.623 108.467 255.918C108.73 255.615 109.007 255.326 109.29 255.043C109.35 254.404 109.381 253.788 109.39 253.148C109.395 252.961 109.4 252.774 109.405 252.582C109.419 251.984 109.43 251.387 109.441 250.789C109.45 250.384 109.46 249.98 109.47 249.575C109.493 248.582 109.513 247.589 109.532 246.596C109.357 246.626 109.182 246.657 109.003 246.688C102.983 247.715 97.0868 247.913 90.9978 247.88C90.1661 247.877 89.3345 247.878 88.5028 247.88C84.2302 247.884 79.9906 247.86 75.745 247.32C75.4557 247.284 75.1663 247.249 74.8682 247.212C74.2036 247.126 73.5416 247.03 72.8792 246.928C72.5526 246.879 72.5526 246.879 72.2193 246.83C71.705 246.753 71.191 246.675 70.677 246.596C70.635 247.729 70.6045 248.862 70.5842 249.996C70.5758 250.38 70.5643 250.765 70.5496 251.15C70.3793 253.733 70.3793 253.733 71.4717 255.976C71.7618 256.237 72.0602 256.49 72.3664 256.732C75.1724 259.399 78.1255 262.479 78.2791 266.566C78.175 268.552 77.5496 270.471 76.0458 271.838C74.1545 273.348 72.5255 273.779 70.1001 273.727C68.1634 273.501 66.4323 272.614 64.885 271.453C64.8701 271.744 64.8701 271.744 64.8549 272.041C64.3666 274.029 62.9278 275.621 61.265 276.763C59.4933 277.744 57.7852 278.069 55.8096 277.569C53.9402 276.915 52.6711 275.832 51.7474 274.078C51.1805 272.686 51.2882 271.24 51.3704 269.764C51.1973 269.842 51.0243 269.92 50.846 270.001C49.726 270.404 48.6131 270.326 47.4336 270.322C47.1905 270.326 46.9474 270.33 46.6969 270.334C44.3012 270.335 42.7574 269.776 40.9892 268.121C39.3834 266.347 39.1679 264.318 39.2235 262.001C39.4098 259.851 40.4695 258.565 42.0554 257.192C43.0904 256.432 44.2041 256.039 45.4124 255.631C45.6622 255.542 45.912 255.453 46.1694 255.361C46.9362 255.089 47.7051 254.824 48.4743 254.56C48.9581 254.389 49.4418 254.219 49.9252 254.047C51.0485 253.649 52.1744 253.26 53.301 252.871C53.4603 249.526 53.6196 246.181 53.7837 242.735C52.6488 242.316 52.6488 242.316 51.491 241.89C49.1935 241.026 47.0202 240.024 44.8543 238.873C44.6204 238.755 44.3865 238.637 44.1454 238.515C36.4051 234.51 30.7352 227.352 27.9666 219.157C25.4383 210.993 26.0785 202.332 27.237 193.985C27.1148 194.037 26.9926 194.089 26.8667 194.143C21.0839 196.59 14.4762 198.836 8.28853 196.513C5.10654 195.165 2.20932 192.914 0.879775 189.644C-1.04661 184.139 0.446938 178.682 2.88775 173.594C4.03483 171.304 5.41489 169.232 6.96496 167.197C7.06615 167.063 7.16733 166.928 7.27158 166.79C8.65176 164.958 10.0791 163.165 11.5503 161.405C11.7059 161.218 11.7059 161.218 11.8646 161.028C14.652 157.69 17.6535 154.56 20.721 151.48C20.9084 151.292 21.0959 151.103 21.289 150.909C22.4283 149.773 23.6008 148.694 24.8237 147.649C25.0927 147.415 25.3617 147.18 25.6306 146.946C26.993 145.771 28.3214 144.681 29.8917 143.788C29.1864 143.217 28.4371 142.782 27.6402 142.351C24.693 140.755 22.0657 138.916 19.6227 136.619C19.1111 136.14 18.5884 135.686 18.0512 135.236C11.1201 129.165 6.69129 119.341 6.05808 110.226C5.82177 105.879 5.92963 101.553 7.01021 97.316C7.07237 97.0691 7.07237 97.0691 7.13577 96.8172C7.39272 95.8843 7.70437 94.9881 8.07418 94.0944C9.09386 91.6212 9.76485 89.2315 10.2342 86.5995C10.4235 85.5426 10.6284 84.4887 10.8329 83.4346C10.873 83.2272 10.913 83.0198 10.9543 82.8062C11.4864 80.0854 12.1959 77.4197 12.9983 74.7664C13.0638 74.5489 13.1293 74.3315 13.1967 74.1075C16.5499 63.1576 21.9388 53.1102 29.8917 44.841C30.0049 44.7224 30.1182 44.6038 30.2349 44.4817C31.5904 43.0693 32.9953 41.771 34.5279 40.5535C34.9786 40.1925 35.4224 39.8228 35.859 39.4449C37.9229 37.6596 40.1385 36.164 42.441 34.705C42.6055 34.6004 42.77 34.4959 42.9395 34.3882C52.3276 28.4889 63.2572 24.9244 74.1764 23.2718C74.4426 23.2313 74.7088 23.1908 74.9831 23.1491C76.5351 22.9289 78.0393 22.8284 79.6064 22.8796C79.6064 22.7203 79.6064 22.5611 79.6064 22.397C79.4471 22.3472 79.2878 22.2974 79.1237 22.2461C78.4798 21.951 78.0811 21.675 77.54 21.2355C75.4865 19.6686 73.2906 19.1289 70.7609 18.9108C69.9068 18.7693 69.4273 18.5816 68.7464 18.053C68.0974 17.0815 68.0472 16.0439 68.2637 14.9156C68.7932 13.948 69.3737 13.3648 70.3971 12.9453C73.2954 12.1787 76.1161 13.0107 78.6995 14.3585C79.5044 14.8392 80.2835 15.3482 81.0544 15.8809C81.2169 15.9929 81.3795 16.1049 81.547 16.2202C82.7596 17.0596 83.9603 17.9151 85.1571 18.777C85.3658 18.9267 85.3658 18.9267 85.5787 19.0796C87.5952 20.5279 87.5952 20.5279 88.4565 21.2431C88.9644 21.7218 88.9644 21.7218 89.5011 21.673C89.6728 21.2474 89.6728 21.2474 89.848 20.8132C89.9124 20.6536 89.9768 20.494 90.0431 20.3296C90.8657 17.6742 90.8242 14.3448 89.7424 11.7783C89.6631 11.581 89.5837 11.3838 89.502 11.1806C88.4225 8.76752 86.6724 7.03876 84.4727 5.61767C83.6763 5.07572 83.2932 4.73876 82.9851 3.81427C82.8955 2.60494 82.9566 1.8857 83.7091 0.918263C85.8505 -1.01598 88.3989 0.484994 90.3608 1.94393Z" fill="#FFF1A6"/>
<path d="M90.3608 1.94393C93.8548 4.77271 96.3609 9.25284 96.9824 13.7089C97.2071 16.5476 97.2363 19.449 96.2584 22.1556C96.6541 22.1692 96.6541 22.1692 97.0578 22.183C102.2 22.3886 107.186 23.1226 112.186 24.3276C112.518 24.4054 112.518 24.4054 112.856 24.4848C118.991 25.9364 124.88 28.0457 130.528 30.8436C130.748 30.9522 130.968 31.0608 131.195 31.1726C135.882 33.5047 140.213 36.2402 144.284 39.5316C144.43 39.6497 144.577 39.7678 144.727 39.8895C148.034 42.5827 151.072 45.5808 153.696 48.9437C154.067 49.3916 154.439 49.8391 154.812 50.2861C157.714 53.8537 159.943 57.8722 161.926 62.0104C162.131 62.4336 162.341 62.8538 162.552 63.2738C165.941 70.2022 168.025 77.7734 169.452 85.3294C170.087 88.6399 170.894 91.7823 172.003 94.9586C172.825 97.3149 173.437 99.5571 173.726 102.037C173.769 102.319 173.812 102.601 173.856 102.892C175.055 112.689 172.247 122.695 166.245 130.514C162.775 134.931 158.744 138.474 153.937 141.374C153.784 141.467 153.63 141.56 153.472 141.655C150.715 143.305 150.715 143.305 149.834 143.305C149.834 143.464 149.834 143.624 149.834 143.788C150.009 143.848 150.184 143.908 150.363 143.971C151.505 144.475 152.374 145.319 153.318 146.123C153.686 146.434 154.059 146.739 154.433 147.043C156.336 148.609 158.094 150.312 159.835 152.053C160.006 152.224 160.006 152.224 160.18 152.398C161.395 153.613 162.579 154.841 163.698 156.145C164.277 156.815 164.885 157.456 165.491 158.102C166.559 159.251 167.581 160.425 168.562 161.649C168.994 162.187 169.43 162.72 169.871 163.25C173.697 167.866 176.983 172.547 178.871 178.281C179.008 178.696 179.153 179.108 179.301 179.52C180.299 182.714 180.312 187.114 178.794 190.124C178.71 190.294 178.625 190.464 178.538 190.639C176.612 194.043 173.746 195.939 170.106 197.122C164.293 198.463 157.905 196.642 152.73 193.985C152.81 194.144 152.89 194.304 152.972 194.468C154.825 206.372 154.223 218.968 146.906 228.988C141.679 235.91 134.404 239.737 126.425 242.735C126.425 246.159 126.425 249.584 126.425 253.112C127.142 253.271 127.859 253.43 128.597 253.595C129.683 253.929 130.754 254.306 131.825 254.686C132.32 254.861 132.816 255.031 133.313 255.202C136.296 256.244 138.682 257.374 140.392 260.111C141.091 261.948 140.952 264.557 140.222 266.371C139.161 268.24 137.702 269.529 135.64 270.134C135.066 270.257 134.548 270.278 133.961 270.279C133.742 270.279 133.523 270.279 133.297 270.28C133.07 270.279 132.843 270.278 132.609 270.277C132.271 270.278 132.271 270.278 131.927 270.28C130.79 270.278 129.715 270.241 128.597 270.005C128.608 270.172 128.62 270.338 128.631 270.51C128.719 272.798 128.148 274.458 126.598 276.158C125.224 277.363 123.572 277.818 121.78 277.795C119.906 277.606 118.09 276.649 116.772 275.315C115.931 274.172 115.217 272.971 114.6 271.695C114.448 271.794 114.296 271.892 114.14 271.994C111.855 273.432 109.847 273.981 107.118 273.625C105.335 273.031 103.735 272.145 102.774 270.488C101.689 268.3 101.426 266.21 102.156 263.866C103.1 261.536 104.81 259.685 106.601 257.964C107.263 257.314 107.865 256.623 108.467 255.918C108.73 255.615 109.007 255.326 109.29 255.043C109.35 254.404 109.381 253.788 109.39 253.148C109.395 252.961 109.4 252.774 109.405 252.582C109.419 251.984 109.43 251.387 109.441 250.789C109.45 250.384 109.46 249.98 109.47 249.575C109.493 248.582 109.513 247.589 109.532 246.596C109.357 246.626 109.182 246.657 109.003 246.688C102.983 247.715 97.0868 247.913 90.9978 247.88C90.1661 247.877 89.3345 247.878 88.5028 247.88C84.2302 247.884 79.9906 247.86 75.745 247.32C75.4557 247.284 75.1663 247.249 74.8682 247.212C74.2036 247.126 73.5416 247.03 72.8792 246.928C72.5526 246.879 72.5526 246.879 72.2193 246.83C71.705 246.753 71.191 246.675 70.677 246.596C70.635 247.729 70.6045 248.862 70.5842 249.996C70.5758 250.38 70.5643 250.765 70.5496 251.15C70.3793 253.733 70.3793 253.733 71.4717 255.976C71.7618 256.237 72.0602 256.49 72.3664 256.732C75.1724 259.399 78.1255 262.479 78.2791 266.566C78.175 268.552 77.5496 270.471 76.0458 271.838C74.1545 273.348 72.5255 273.779 70.1001 273.727C68.1634 273.501 66.4323 272.614 64.885 271.453C64.8701 271.744 64.8701 271.744 64.8549 272.041C64.3666 274.029 62.9278 275.621 61.265 276.763C59.4933 277.744 57.7852 278.069 55.8096 277.569C53.9402 276.915 52.6711 275.832 51.7474 274.078C51.1805 272.686 51.2882 271.24 51.3704 269.764C51.1973 269.842 51.0243 269.92 50.846 270.001C49.726 270.404 48.6131 270.326 47.4336 270.322C47.1905 270.326 46.9474 270.33 46.6969 270.334C44.3012 270.335 42.7574 269.776 40.9892 268.121C39.3834 266.347 39.1679 264.318 39.2235 262.001C39.4098 259.851 40.4695 258.565 42.0554 257.192C43.0904 256.432 44.2041 256.039 45.4124 255.631C45.6622 255.542 45.912 255.453 46.1694 255.361C46.9362 255.089 47.7051 254.824 48.4743 254.56C48.9581 254.389 49.4418 254.219 49.9252 254.047C51.0485 253.649 52.1744 253.26 53.301 252.871C53.4603 249.526 53.6196 246.181 53.7837 242.735C52.6488 242.316 52.6488 242.316 51.491 241.89C49.1935 241.026 47.0202 240.024 44.8543 238.873C44.6204 238.755 44.3865 238.637 44.1454 238.515C36.4051 234.51 30.7352 227.352 27.9666 219.157C25.4383 210.993 26.0785 202.332 27.237 193.985C27.1148 194.037 26.9926 194.089 26.8667 194.143C21.0839 196.59 14.4762 198.836 8.28853 196.513C5.10654 195.165 2.20932 192.914 0.879775 189.644C-1.04661 184.139 0.446938 178.682 2.88775 173.594C4.03483 171.304 5.41489 169.232 6.96496 167.197C7.06615 167.063 7.16733 166.928 7.27158 166.79C8.65176 164.958 10.0791 163.165 11.5503 161.405C11.7059 161.218 11.7059 161.218 11.8646 161.028C14.652 157.69 17.6535 154.56 20.721 151.48C20.9084 151.292 21.0959 151.103 21.289 150.909C22.4283 149.773 23.6008 148.694 24.8237 147.649C25.0927 147.415 25.3617 147.18 25.6306 146.946C26.993 145.771 28.3214 144.681 29.8917 143.788C29.1864 143.217 28.4371 142.782 27.6402 142.351C24.693 140.755 22.0657 138.916 19.6227 136.619C19.1111 136.14 18.5884 135.686 18.0512 135.236C11.1201 129.165 6.69129 119.341 6.05808 110.226C5.82177 105.879 5.92963 101.553 7.01021 97.316C7.07237 97.0691 7.07237 97.0691 7.13577 96.8172C7.39272 95.8843 7.70437 94.9881 8.07418 94.0944C9.09386 91.6212 9.76485 89.2315 10.2342 86.5995C10.4235 85.5426 10.6284 84.4887 10.8329 83.4346C10.873 83.2272 10.913 83.0198 10.9543 82.8062C11.4864 80.0854 12.1959 77.4197 12.9983 74.7664C13.0638 74.5489 13.1293 74.3315 13.1967 74.1075C16.5499 63.1576 21.9388 53.1102 29.8917 44.841C30.0049 44.7224 30.1182 44.6038 30.2349 44.4817C31.5904 43.0693 32.9953 41.771 34.5279 40.5535C34.9786 40.1925 35.4224 39.8228 35.859 39.4449C37.9229 37.6596 40.1385 36.164 42.441 34.705C42.6055 34.6004 42.77 34.4959 42.9395 34.3882C52.3276 28.4889 63.2572 24.9244 74.1764 23.2718C74.4426 23.2313 74.7088 23.1908 74.9831 23.1491C76.5351 22.9289 78.0393 22.8284 79.6064 22.8796C79.6064 22.7203 79.6064 22.5611 79.6064 22.397C79.4471 22.3472 79.2878 22.2974 79.1237 22.2461C78.4798 21.951 78.0811 21.675 77.54 21.2355C75.4865 19.6686 73.2906 19.1289 70.7609 18.9108C69.9068 18.7693 69.4273 18.5816 68.7464 18.053C68.0974 17.0815 68.0472 16.0439 68.2637 14.9156C68.7932 13.948 69.3737 13.3648 70.3971 12.9453C73.2954 12.1787 76.1161 13.0107 78.6995 14.3585C79.5044 14.8392 80.2835 15.3482 81.0544 15.8809C81.2169 15.9929 81.3795 16.1049 81.547 16.2202C82.7596 17.0596 83.9603 17.9151 85.1571 18.777C85.3658 18.9267 85.3658 18.9267 85.5787 19.0796C87.5952 20.5279 87.5952 20.5279 88.4565 21.2431C88.9644 21.7218 88.9644 21.7218 89.5011 21.673C89.6728 21.2474 89.6728 21.2474 89.848 20.8132C89.9124 20.6536 89.9768 20.494 90.0431 20.3296C90.8657 17.6742 90.8242 14.3448 89.7424 11.7783C89.6631 11.581 89.5837 11.3838 89.502 11.1806C88.4225 8.76752 86.6724 7.03876 84.4727 5.61767C83.6763 5.07572 83.2932 4.73876 82.9851 3.81427C82.8955 2.60494 82.9566 1.8857 83.7091 0.918263C85.8505 -1.01598 88.3989 0.484994 90.3608 1.94393ZM35.925 47.4957C35.6678 47.7416 35.6678 47.7416 35.4053 47.9926C32.7385 50.5494 30.326 53.1583 28.2023 56.1837C28.0946 56.3353 27.9869 56.4869 27.8759 56.6431C21.6287 65.493 17.3136 76.4144 16.2346 87.212C15.9462 90.0396 15.3558 92.4479 14.3062 95.0928C12.7629 98.9832 12.0757 102.459 12.2487 106.647C12.2753 107.373 12.284 108.099 12.2903 108.826C12.3621 113.588 13.5954 117.328 15.653 121.585C15.7298 121.746 15.8067 121.908 15.8858 122.074C19.7607 130.109 27.5677 136.37 35.9093 139.3C37.3034 139.78 38.7007 140.249 40.1053 140.697C40.27 140.751 40.4348 140.805 40.6045 140.861C41.0569 141.008 41.5104 141.153 41.964 141.297C42.7301 141.637 43.0081 141.855 43.4063 142.581C43.6956 143.777 43.7962 144.225 43.2253 145.326C42.6258 146.026 42.2578 146.416 41.322 146.498C41.079 146.495 40.8361 146.491 40.5858 146.488C40.3459 146.486 40.106 146.485 39.8589 146.483C39.0623 146.442 39.0623 146.442 38.1328 146.239C36.8394 146.07 36.0412 146.747 35.0351 147.483C34.8459 147.616 34.6568 147.748 34.4619 147.885C33.8988 148.282 33.3423 148.688 32.7877 149.097C32.6351 149.209 32.4825 149.322 32.3253 149.437C31.4183 150.11 30.5316 150.805 29.6503 151.51C29.2966 151.79 29.2966 151.79 28.9358 152.075C27.7271 153.044 26.5997 154.045 25.5213 155.156C25.0692 155.609 24.6007 156.027 24.1147 156.443C22.5253 157.814 21.0853 159.31 19.7227 160.905C19.2142 161.471 18.6741 161.993 18.1266 162.521C12.6078 167.998 6.40621 176.827 6.1203 184.814C6.19521 186.711 6.74896 187.827 8.12638 189.113C10.7319 191.239 14.1394 191.135 17.3423 190.848C20.2495 190.352 22.9945 189.171 25.5505 187.729C26.0564 187.455 26.572 187.213 27.0937 186.97C28.8802 186.1 28.8802 186.1 30.1212 184.609C30.483 183.495 30.5926 182.338 30.7415 181.18C30.9669 179.794 31.3717 178.454 31.762 177.107C31.8453 176.819 31.9287 176.531 32.0146 176.234C32.5409 174.457 33.106 172.7 33.7681 170.968C33.8385 170.776 33.9089 170.584 33.9814 170.386C34.5009 169.096 35.199 168.163 36.4077 167.438C37.1643 167.237 37.5315 167.295 38.3383 167.438C38.9878 167.964 39.4136 168.382 39.7863 169.128C39.9211 170.556 39.7216 171.796 39.2283 173.14C39.166 173.319 39.1038 173.499 39.0397 173.683C38.6077 174.92 38.1533 176.148 37.702 177.377C35.7094 182.829 34.2548 188.272 33.376 194.021C33.3068 194.472 33.2349 194.921 33.1599 195.37C32.5747 198.918 32.4711 202.434 32.4558 206.022C32.453 206.349 32.453 206.349 32.4501 206.684C32.4245 210.472 32.6323 214.351 33.9189 217.953C33.9801 218.129 34.0413 218.305 34.1043 218.487C35.1069 221.249 36.6553 223.627 38.5797 225.841C38.8242 226.134 38.8242 226.134 39.0736 226.432C46.3914 234.938 57.8749 237.997 68.505 239.839C68.7589 239.883 69.0127 239.927 69.2742 239.972C71.1048 240.285 72.9395 240.554 74.7797 240.804C75.0353 240.841 75.2908 240.877 75.5541 240.915C89.6259 242.877 105.692 242.25 119.426 238.391C119.663 238.325 119.9 238.26 120.144 238.193C127.062 236.262 133.469 233.483 138.733 228.496C138.905 228.337 138.905 228.337 139.081 228.176C144.459 223.213 147.091 216.522 147.467 209.267C147.486 208.376 147.488 207.486 147.481 206.595C147.481 206.435 147.48 206.276 147.479 206.111C147.45 200.714 146.953 195.431 145.973 190.124C145.935 189.905 145.897 189.687 145.858 189.462C144.975 184.463 143.305 179.552 141.462 174.827C141.395 174.655 141.329 174.484 141.26 174.307C141.134 173.986 141.007 173.665 140.876 173.345C140.284 171.835 140.089 170.246 140.422 168.645C140.877 168.093 141.233 167.757 141.87 167.438C143.098 167.346 143.776 167.43 144.766 168.162C147.77 172.406 148.846 178.523 149.923 183.503C150.223 184.654 150.45 185.348 151.492 185.981C151.683 186.098 151.875 186.215 152.072 186.335C152.279 186.455 152.487 186.576 152.7 186.7C152.915 186.826 153.129 186.952 153.35 187.082C158.06 189.777 163.507 191.756 168.99 190.689C170.852 190.09 172.376 188.978 173.364 187.273C174.141 185.42 173.722 183.405 173.229 181.526C173.147 181.212 173.147 181.212 173.064 180.892C170.468 171.339 163.061 163.763 156.26 156.94C156.036 156.716 155.812 156.491 155.582 156.259C154.479 155.159 153.365 154.091 152.183 153.077C151.609 152.583 151.064 152.06 150.513 151.541C149.094 150.249 147.575 149.182 145.973 148.132C145.699 147.941 145.426 147.75 145.153 147.559C143.585 146.427 143.585 146.427 141.735 146.201C141.482 146.258 141.482 146.258 141.225 146.317C139.805 146.634 138.265 146.735 136.999 145.99C136.383 145.268 136.282 144.868 136.275 143.939C136.271 143.753 136.268 143.567 136.264 143.375C136.328 142.745 136.469 142.395 136.802 141.857C137.224 141.588 137.224 141.588 137.739 141.378C137.934 141.298 138.129 141.219 138.33 141.136C139.494 140.695 140.665 140.277 141.84 139.866C146.873 138.071 151.304 136.217 155.385 132.686C155.504 132.584 155.623 132.481 155.746 132.375C161.931 126.981 166.68 119.732 167.693 111.449C167.72 110.781 167.738 110.118 167.742 109.45C167.744 109.262 167.745 109.074 167.746 108.881C167.749 108.484 167.75 108.088 167.751 107.692C167.753 107.097 167.761 106.503 167.769 105.908C167.79 102.776 167.328 99.9693 166.29 96.9992C166.198 96.7239 166.198 96.7239 166.103 96.443C165.809 95.5792 165.5 94.7294 165.139 93.8911C164.072 91.3433 163.714 88.829 163.346 86.0996C161.5 72.601 155.876 60.2707 146.456 50.3917C146.152 50.0466 145.85 49.6998 145.551 49.3509C141.273 44.4324 135.757 40.656 130.045 37.601C129.897 37.5208 129.749 37.4407 129.596 37.3581C122.412 33.4992 114.558 31.3593 106.636 29.637C106.443 29.5938 106.249 29.5506 106.05 29.506C104.964 29.2649 103.875 29.0732 102.774 28.913C102.561 28.8806 102.347 28.8483 102.127 28.815C80.2549 25.6363 55.1755 31.0352 35.925 47.4957Z" fill="black"/>
<path d="M97.269 93.168C101.408 95.7242 106.286 99.3734 107.75 104.219C108.208 106.562 107.474 108.658 106.213 110.635C103.123 114.953 98.531 118.144 93.3624 119.413C93.2135 119.455 93.0645 119.497 92.911 119.54C88.4282 120.538 84.0957 119.123 80.3304 116.758C76.786 114.379 73.4207 111.31 72.4635 106.981C72.1257 104.895 72.5363 103.207 73.7296 101.452C74.1466 100.91 74.5785 100.386 75.0211 99.865C75.3123 99.4917 75.3123 99.4917 75.6093 99.1109C76.3969 98.2272 77.2463 97.4804 78.1584 96.7277C78.2783 96.6277 78.3982 96.5277 78.5217 96.4246C84.5188 91.4489 90.1536 89.2316 97.269 93.168Z" fill="black"/>
<path d="M149.171 98.4474C151.522 100.675 152.709 103.471 152.815 106.676C152.855 110.194 151.984 113.489 149.527 116.128C146.753 118.72 143.486 119.866 139.738 119.793C136.31 119.628 133.106 118.086 130.769 115.552C130.197 114.786 129.748 113.994 129.321 113.139C129.203 112.905 129.085 112.671 128.964 112.431C127.728 109.659 127.725 106.574 128.572 103.672C129.059 102.448 129.747 101.403 130.528 100.348C130.654 100.174 130.781 100 130.911 99.8209C132.83 97.4146 135.559 96.0735 138.492 95.3402C142.545 95.0024 146.01 95.8201 149.171 98.4474Z" fill="#F4A99C"/>
<path d="M43.889 96.2448C44.2301 96.3983 44.2301 96.3983 44.5781 96.555C47.6583 98.0802 49.4962 100.535 50.6464 103.726C51.3769 107.432 51.0097 111.273 48.8816 114.466C48.5929 114.834 48.2964 115.196 47.9917 115.552C47.8536 115.722 47.7154 115.892 47.5731 116.067C45.7185 118.148 42.7129 119.575 39.9353 119.744C37.4756 119.807 35.4968 119.599 33.2703 118.448C33.0498 118.337 32.8292 118.227 32.602 118.113C30.0304 116.706 28.2047 114.263 27.2672 111.494C26.4022 107.82 26.723 103.83 28.6445 100.561C32.0364 95.6232 38.3632 93.6778 43.889 96.2448Z" fill="#F4A99C"/>
<path d="M59.5757 244.424C62.0844 244.902 62.0844 244.902 64.6437 245.389C64.6353 245.934 64.6269 246.479 64.6183 247.04C64.2129 254.046 64.2129 254.046 67.0452 260.142C67.5744 260.673 68.112 261.193 68.6559 261.709C71.3077 264.227 71.3077 264.227 71.4765 265.948C71.401 266.627 71.401 266.627 70.9184 267.351C69.818 267.316 69.2255 267.207 68.4372 266.416C68.1744 266.133 67.9155 265.846 67.6604 265.556C66.6515 264.415 65.9677 263.765 64.4024 263.489C63.3989 263.506 62.8958 263.585 62.1059 264.212C61.3501 265.126 61.0792 265.984 60.7522 267.109C59.9899 269.647 59.9899 269.647 59.3344 270.488C58.4444 270.684 58.4444 270.684 57.645 270.729C57.2159 269.988 57.1025 269.448 57.0964 268.595C57.0914 268.374 57.0864 268.153 57.0813 267.925C57.075 267.461 57.0706 266.998 57.0681 266.535C57.0462 265.228 57.0462 265.228 56.5185 264.06C55.0284 263.187 52.9063 263.694 51.2799 263.972C50.0856 264.174 48.9288 264.273 47.7202 264.289C47.4209 264.293 47.1216 264.297 46.8133 264.301C46.061 264.213 46.061 264.213 45.5802 263.922C45.337 263.489 45.337 263.489 45.3649 262.904C45.5783 262.283 45.5783 262.283 46.1108 261.891C48.0398 260.989 49.9949 260.271 52.0189 259.613C55.457 258.617 55.457 258.617 58.2455 256.513C59.355 254.243 59.1646 251.244 59.2521 248.754C59.2596 248.54 59.2672 248.327 59.275 248.107C59.2807 247.92 59.2865 247.733 59.2925 247.541C59.3545 246.5 59.4719 245.462 59.5757 244.424Z" fill="#FFBB4D"/>
<path d="M120.633 244.665C120.64 245.028 120.64 245.028 120.648 245.399C120.666 246.309 120.688 247.219 120.71 248.128C120.719 248.52 120.727 248.911 120.735 249.303C120.628 253.42 120.628 253.42 122.136 257.086C124.166 258.844 127.102 259.493 129.62 260.275C131.434 260.842 133.069 261.413 134.63 262.524C134.54 263.233 134.54 263.233 134.389 263.972C133.014 264.66 131.1 264.175 129.638 263.972C128.305 263.793 126.986 263.667 125.641 263.64C125.351 263.633 125.061 263.627 124.762 263.62C123.865 263.753 123.597 263.991 123.046 264.696C122.757 265.274 122.76 265.672 122.737 266.318C122.728 266.543 122.719 266.767 122.71 266.999C122.702 267.235 122.693 267.47 122.684 267.713C122.668 268.178 122.65 268.643 122.632 269.108C122.624 269.315 122.617 269.521 122.61 269.734C122.564 270.247 122.564 270.247 122.322 270.729C121.553 270.745 121.553 270.745 120.633 270.488C119.458 269.198 119.129 267.368 118.748 265.718C118.409 264.794 118.012 264.351 117.254 263.731C116.326 263.352 115.472 263.457 114.509 263.67C113.367 264.225 112.587 265.313 111.784 266.266C111.089 267.01 110.626 267.307 109.622 267.426C109.433 267.401 109.244 267.376 109.049 267.351C108.512 266.545 108.499 266.162 108.648 265.221C109.265 263.189 111.35 261.633 112.835 260.216C115.611 257.29 115.433 253.439 115.369 249.613C115.365 249.223 115.362 248.834 115.359 248.445C115.351 247.507 115.339 246.569 115.324 245.631C115.982 245.468 116.641 245.308 117.3 245.148C117.485 245.102 117.671 245.056 117.862 245.009C118.804 244.782 119.656 244.603 120.633 244.665Z" fill="#FFBB4D"/>
<path d="M126.64 83.409C128.493 84.4522 129.901 86.2388 130.528 88.2809C130.602 88.9809 130.608 89.6741 130.603 90.3775C130.601 90.6682 130.601 90.6682 130.599 90.9647C130.55 93.3582 130.035 95.2027 128.356 96.9689C126.547 98.6519 124.576 99.3295 122.11 99.2541C119.973 98.9331 118.253 97.7696 116.923 96.0988C115.459 93.9427 115.319 91.779 115.565 89.2463C116.008 87.1302 117.072 85.2483 118.84 83.9718C121.29 82.4682 123.973 82.1538 126.64 83.409Z" fill="black"/>
<path d="M60.4986 83.5675C62.293 84.8303 63.5098 86.4025 64.161 88.5223C64.5222 91.1065 64.2947 93.5518 62.9845 95.8227C61.6626 97.5334 60.1698 98.4603 58.1277 99.141C55.9358 99.3635 54.1914 99.0069 52.4064 97.6958C50.6543 96.2105 49.7444 94.9019 49.4397 92.625C49.228 89.9611 49.3141 87.9085 50.8877 85.6263C51.5061 84.9023 51.5061 84.9023 52.0944 84.4197C52.2785 84.2504 52.4627 84.0812 52.6524 83.9068C54.9751 82.2864 58.043 82.1206 60.4986 83.5675Z" fill="black"/>
<path d="M94.4739 97.7695C97.2157 99.3394 99.8046 101.323 101.568 103.968C101.568 104.207 101.568 104.446 101.568 104.692C99.1097 105.35 96.7976 105.454 94.258 105.456C93.9225 105.457 93.5871 105.458 93.2517 105.459C92.5502 105.46 91.8488 105.461 91.1474 105.461C90.2582 105.46 89.3691 105.464 88.48 105.468C87.7872 105.471 87.0943 105.471 86.4015 105.471C85.9174 105.471 85.4333 105.474 84.9492 105.477C79.9449 105.464 79.9449 105.464 78.3997 104.692C79.6733 101.002 84.2332 98.3944 87.5704 96.7278C90.1524 95.7721 92.0991 96.5697 94.4739 97.7695Z" fill="#FFBB4D"/>
<path d="M100.602 110.243C99.2816 111.31 97.9497 112.113 96.4092 112.822C96.2195 112.913 96.0297 113.004 95.8342 113.098C92.7223 114.554 89.8654 115.146 86.4995 114.104C84.0588 113.21 81.7289 111.986 79.6064 110.484C79.6064 110.404 79.6064 110.325 79.6064 110.243C79.8349 110.243 80.0634 110.244 80.2989 110.244C82.4576 110.249 84.6163 110.253 86.775 110.255C87.8847 110.256 88.9944 110.258 90.104 110.261C91.1759 110.263 92.2478 110.265 93.3197 110.265C93.7276 110.266 94.1356 110.267 94.5435 110.268C95.117 110.27 95.6905 110.27 96.2641 110.27C96.4309 110.271 96.5977 110.272 96.7696 110.273C97.6073 110.271 98.4164 110.221 99.2446 110.105C100.12 110.001 100.12 110.001 100.602 110.243Z" fill="#FFBB4D"/>
<path d="M64.0917 58.2668C64.6224 58.6729 64.8779 59.0182 64.9939 59.651C65.0818 60.9798 64.2011 61.8547 63.3462 62.8011C60.1551 66.2434 55.2952 68.6413 50.4925 68.9615C50.2036 68.975 49.9152 68.9816 49.626 68.9865C49.5296 68.9908 49.4331 68.9951 49.3337 68.9996C48.5917 69.01 48.0938 68.827 47.5241 68.3657C47.0895 67.8703 46.9697 67.409 47.0061 66.7641C47.1118 66.0708 47.504 65.6996 48.0383 65.2702C48.4075 65.0225 48.7543 64.9973 49.1906 64.9747C53.3735 64.7237 57.1068 63.2955 60.068 60.39C60.3968 60.0266 60.6717 59.6501 60.9463 59.2485C61.6913 58.1828 62.7759 57.6382 64.0917 58.2668Z" fill="black"/>
<path d="M116.908 58.2668C116.378 58.6729 116.122 59.0182 116.006 59.651C115.918 60.9798 116.799 61.8547 117.654 62.8011C120.845 66.2434 125.705 68.6413 130.507 68.9615C130.796 68.975 131.085 68.9816 131.374 68.9865C131.47 68.9908 131.567 68.9951 131.666 68.9996C132.408 69.01 132.906 68.827 133.476 68.3657C133.911 67.8703 134.03 67.409 133.994 66.7641C133.888 66.0708 133.496 65.6996 132.962 65.2702C132.593 65.0225 132.246 64.9973 131.809 64.9747C127.627 64.7237 123.893 63.2955 120.932 60.39C120.603 60.0266 120.328 59.6501 120.054 59.2485C119.309 58.1828 118.224 57.6382 116.908 58.2668Z" fill="black"/>
<mask id="mask0_496_17960" style="mask-type:alpha" maskUnits="userSpaceOnUse" x="47" y="84" width="16" height="24">
<path d="M55.9127 84.0028C57.63 83.9542 59.1723 84.537 60.4258 85.7127C61.1475 86.4105 61.6125 87.159 62.0082 88.0731C62.044 88.1552 62.0798 88.2374 62.1167 88.3221C62.632 89.7718 62.4251 91.4826 61.7907 92.8481C61.5306 93.3856 61.2423 93.8732 60.8377 94.3157C60.7752 94.3854 60.7127 94.455 60.6484 94.5267C59.5992 95.6381 58.0853 96.4493 56.5333 96.507C56.3569 96.5083 56.1808 96.5075 56.0044 96.5056C55.9436 96.5052 55.8828 96.5049 55.8202 96.5045C55.6719 96.5036 55.5236 96.5022 55.3753 96.5007C55.3949 96.5823 55.4146 96.6638 55.4348 96.7479C56.9871 103.219 56.9871 103.219 55.615 105.574C55.0023 106.56 53.8736 107.263 52.7572 107.542C51.2798 107.758 49.9618 107.52 48.7229 106.665C47.7776 105.905 47.1807 104.714 47.0257 103.524C46.7057 100.115 49.4461 97.0029 51.4736 94.5499C51.314 94.2804 51.1473 94.0171 50.9762 93.7549C50.1003 92.3701 49.6382 90.7047 50.0049 89.07C50.4457 87.3165 51.4141 85.8429 52.9563 84.8737C53.8926 84.3515 54.8438 84.0621 55.9127 84.0028Z" fill="black"/>
</mask>
<g mask="url(#mask0_496_17960)">
<rect x="47" y="94.3691" width="10.6272" height="13.1575" fill="black"/>
<path d="M53.0343 96.1104C54.9514 102.079 54.9514 102.079 54.1268 104.07C53.7819 104.733 53.2832 105.203 52.5868 105.482C51.7851 105.726 51.0534 105.715 50.3031 105.318C49.6647 104.872 49.2063 104.3 49.0546 103.524C48.8138 101.009 50.8662 98.5227 52.3466 96.6956C52.8309 96.1104 52.8309 96.1104 53.0343 96.1104Z" fill="#AADCE7"/>
</g>
<mask id="mask1_496_17960" style="mask-type:alpha" maskUnits="userSpaceOnUse" x="119" y="84" width="16" height="24">
<path d="M125.495 84.0028C123.778 83.9542 122.235 84.537 120.982 85.7127C120.26 86.4105 119.795 87.159 119.399 88.0731C119.364 88.1552 119.328 88.2374 119.291 88.3221C118.776 89.7718 118.982 91.4826 119.617 92.8481C119.877 93.3856 120.165 93.8732 120.57 94.3157C120.632 94.3854 120.695 94.455 120.759 94.5267C121.808 95.6381 123.322 96.4493 124.874 96.507C125.051 96.5083 125.227 96.5075 125.403 96.5056C125.464 96.5052 125.525 96.5049 125.587 96.5045C125.736 96.5036 125.884 96.5022 126.032 96.5007C126.013 96.5823 125.993 96.6638 125.973 96.7479C124.42 103.219 124.42 103.219 125.793 105.574C126.405 106.56 127.534 107.263 128.65 107.542C130.128 107.758 131.446 107.52 132.685 106.665C133.63 105.905 134.227 104.714 134.382 103.524C134.702 100.115 131.961 97.0029 129.934 94.5499C130.094 94.2804 130.26 94.0171 130.431 93.7549C131.307 92.3701 131.769 90.7047 131.403 89.07C130.962 87.3165 129.993 85.8429 128.451 84.8737C127.515 84.3515 126.564 84.0621 125.495 84.0028Z" fill="black"/>
</mask>
<g mask="url(#mask1_496_17960)">
<rect width="10.6272" height="13.1575" transform="matrix(-1 0 0 1 134.408 94.3691)" fill="black"/>
<path d="M128.373 96.1104C126.456 102.079 126.456 102.079 127.281 104.07C127.626 104.733 128.124 105.203 128.821 105.482C129.622 105.726 130.354 105.715 131.104 105.318C131.743 104.872 132.201 104.3 132.353 103.524C132.594 101.009 130.541 98.5227 129.061 96.6956C128.577 96.1104 128.577 96.1104 128.373 96.1104Z" fill="#AADCE7"/>
</g>
<path d="M92.9029 0.97271C93.3844 1.40218 93.6618 1.87898 93.8218 2.47476C93.8218 2.53484 93.8218 2.59492 93.8218 2.65682C93.8816 2.65917 93.8816 2.65917 93.9427 2.66157C99.3317 2.96926 104.773 5.33181 108.353 9.01303C108.503 9.17776 108.647 9.34527 108.79 9.51466C108.859 9.59424 108.927 9.67382 108.996 9.75339C112.793 14.1955 114.108 19.9452 114.528 29.0754C114.529 29.1409 114.529 29.2065 114.529 29.274C114.53 29.4604 114.53 29.6469 114.529 29.8333C114.53 29.9154 114.53 29.9154 114.53 29.999C114.528 30.3052 114.487 30.5762 114.407 30.8731C114.366 31.0573 114.376 31.2262 114.394 31.4129C114.401 31.4916 114.408 31.5702 114.416 31.6513C114.458 32.0294 114.508 32.4066 114.559 32.7837C114.843 34.8585 114.995 36.9163 114.998 39.0072C114.998 39.1329 114.999 39.2586 114.999 39.3843C115.004 41.5948 115.004 41.5948 114.703 42.6583C114.689 42.7084 114.675 42.7585 114.66 42.8101C114.315 43.9639 113.583 44.997 112.435 45.6032C111.052 46.2146 109.599 46.0158 108.183 45.6359C108.133 45.6223 108.082 45.6087 108.03 45.5947C107.17 45.3529 106.352 45.0114 105.538 44.6654C105.27 44.5515 105.001 44.4386 104.732 44.3256C104.677 44.3025 104.622 44.2793 104.565 44.2554C103.044 43.6165 101.521 42.9817 99.9423 42.4687C99.8625 42.4428 99.8625 42.4428 99.7812 42.4163C99.0654 42.1881 98.332 42.019 97.5972 41.8504C97.5304 41.8351 97.5304 41.8351 97.4622 41.8194C96.4829 41.5955 95.4972 41.4217 94.4996 41.2815C94.4532 41.2749 94.4069 41.2684 94.3592 41.2616C93.65 41.1615 92.9408 41.0652 92.2252 41.0122C92.1262 41.0045 92.1262 41.0045 92.0252 40.9966C89.0952 40.7915 86.122 40.9616 83.244 41.4977C83.1602 41.5132 83.0764 41.5288 82.9901 41.5448C80.6108 41.9923 78.3488 42.7123 76.1256 43.599C75.977 43.6578 75.8284 43.7166 75.6798 43.7754C74.8831 44.0912 74.0899 44.4134 73.3008 44.7445C71.331 45.5708 69.0462 46.4434 66.8783 45.7459C66.5936 45.625 66.3367 45.4857 66.08 45.3211C66.0325 45.2907 65.985 45.2604 65.936 45.2291C64.7963 44.409 64.3159 43.0238 64.1265 41.7611C64.1071 41.599 64.0906 41.4369 64.0759 41.2744C64.0703 41.2145 64.0648 41.1546 64.0591 41.0929C64.0015 40.415 63.9972 39.7383 64.001 39.0587C64.0012 38.9932 64.0014 38.9277 64.0016 38.8602C64.0055 37.6726 64.05 36.4914 64.1507 35.3074C64.1542 35.2652 64.1578 35.223 64.1614 35.1795C64.2505 34.1264 64.3721 33.0791 64.5319 32.033C64.6483 31.3899 64.6483 31.3899 64.5499 30.7557C64.5429 30.6198 64.54 30.4836 64.5391 30.3475C64.5388 30.3061 64.5385 30.2646 64.5382 30.2219C64.5372 30.0837 64.5367 29.9456 64.5363 29.8075C64.5359 29.7101 64.5354 29.6127 64.5349 29.5153C64.5336 29.2005 64.5333 28.8857 64.5332 28.571C64.5332 28.5176 64.5332 28.4642 64.5331 28.4092C64.5327 26.8074 64.5489 25.214 64.7326 23.6194C64.7502 23.4666 64.7671 23.3138 64.784 23.161C65.3484 18.1406 66.8787 13.0126 70.6038 9.15053C70.6545 9.0965 70.6545 9.0965 70.7063 9.04137C71.4946 8.20585 72.3589 7.43771 73.3314 6.78366C73.4015 6.73353 73.4713 6.68311 73.5409 6.63242C76.5814 4.42392 81.2888 2.59738 85.2398 2.65682C85.2426 2.58172 85.2453 2.50662 85.2481 2.42924C85.3321 1.77083 85.753 1.24549 86.3042 0.83616C88.1675 -0.393254 91.0844 -0.198306 92.9029 0.97271Z" fill="black"/>
<path d="M89.3562 27.8273C89.4001 27.8273 89.4441 27.8272 89.4894 27.8272C92.088 27.8251 94.6942 27.9178 97.2766 28.1922C97.4301 28.2083 97.5837 28.2238 97.7374 28.2393C99.234 28.3906 100.724 28.5571 102.204 28.8135C102.258 28.8227 102.311 28.832 102.366 28.8415C104.041 29.132 105.691 29.4665 107.327 29.9059C107.44 29.9358 107.44 29.9358 107.556 29.9663C108.742 30.2803 109.9 30.6565 111.052 31.059C111.121 31.0828 111.19 31.1067 111.261 31.1312C111.442 31.1943 111.621 31.2589 111.801 31.3245C111.878 31.3516 111.878 31.3516 111.957 31.3792C112.296 31.5073 112.296 31.5073 112.393 31.6847C112.447 31.8408 112.478 31.9827 112.499 32.1449C112.51 32.2316 112.51 32.2316 112.522 32.3201C112.533 32.4134 112.533 32.4134 112.545 32.5087C112.553 32.5739 112.562 32.6392 112.57 32.7065C112.597 32.9197 112.623 33.1329 112.649 33.3462C112.662 33.4563 112.662 33.4563 112.676 33.5685C112.895 35.3865 112.993 37.1783 112.998 39.0064C112.998 39.1366 112.999 39.2668 112.999 39.397C113.011 42.6007 113.011 42.6007 111.98 43.6671C111.557 44.0233 111.044 44.184 110.474 44.2019C109.915 44.1807 109.392 44.0677 108.857 43.925C108.81 43.9126 108.763 43.9002 108.714 43.8875C107.657 43.5995 106.667 43.1502 105.669 42.7275C101.995 41.1742 98.3165 39.9704 94.2958 39.4227C94.2284 39.4133 94.161 39.4039 94.0916 39.3942C92.6358 39.2066 91.1653 39.1663 89.6971 39.1685C89.6141 39.1686 89.531 39.1686 89.4454 39.1686C85.0149 39.1767 80.7723 39.9354 76.6578 41.4368C76.6159 41.4521 76.5739 41.4674 76.5307 41.4832C75.4468 41.8799 74.3864 42.3096 73.3377 42.7782C69.5069 44.4873 69.5069 44.4873 67.8549 44.1185C67.2371 43.9151 66.8718 43.5523 66.5623 43.0337C65.961 41.8333 65.9913 40.5362 65.9961 39.2445C65.997 39.0011 65.9961 38.7577 65.9953 38.5144C65.9946 37.4196 66.0507 36.3375 66.1465 35.2465C66.1509 35.1944 66.1554 35.1424 66.16 35.0887C66.1937 34.6951 66.2342 34.3024 66.2809 33.9099C66.3194 33.5845 66.3501 33.2631 66.3551 32.9359C66.3762 31.7538 66.3762 31.7538 66.7572 31.4159C67.1637 31.1784 67.6139 31.0625 68.076 30.9467C68.3581 30.8752 68.6312 30.7853 68.9056 30.6923C69.4685 30.5022 70.0348 30.323 70.6038 30.1487C70.6731 30.1274 70.7425 30.1061 70.8139 30.0842C72.794 29.4857 74.8538 29.1052 76.9055 28.7772C77.0547 28.7532 77.2038 28.7288 77.3529 28.7043C79.5787 28.3397 81.8267 28.1435 84.0797 27.979C84.1276 27.9755 84.1754 27.9719 84.2246 27.9682C85.9296 27.842 87.6465 27.8283 89.3562 27.8273Z" fill="#AADCE7"/>
<path d="M94.2417 4.47379C94.315 4.48355 94.315 4.48355 94.3898 4.49351C98.4378 5.04284 102.481 6.41035 105.492 9.00341C105.641 9.13162 105.794 9.25366 105.951 9.37442C106.167 9.54619 106.355 9.73139 106.54 9.93128C106.669 10.0692 106.804 10.2012 106.94 10.3341C109.486 12.9238 110.889 16.3487 111.651 19.7105C111.676 19.8162 111.701 19.9219 111.726 20.0277C112.451 23.1815 112.636 26.5095 112.582 29.7241C112.195 29.6102 111.816 29.4842 111.438 29.3473C106.292 27.4932 100.861 26.7131 94.6854 26.2349C94.5804 26.2274 94.4755 26.2198 94.3707 26.212C93.0805 26.1166 91.7906 26.1123 90.4954 26.0828C90.4954 19.0132 90.4954 11.9435 90.4954 4.65965C90.8028 4.63963 91.1101 4.6196 91.4268 4.59897C91.6372 4.56153 91.8398 4.52285 92.0463 4.47379C92.7984 4.29628 93.4798 4.37198 94.2417 4.47379Z" fill="#AADCE7"/>
<path d="M86.9072 4.43594C87.4275 4.57084 87.9661 4.6393 88.4996 4.72042C88.4996 11.77 88.4996 18.8196 88.4996 26.0829C87.4898 26.1029 86.4799 26.1229 85.4394 26.1436C84.8668 26.1718 84.2973 26.202 83.7263 26.246C83.6217 26.2537 83.6217 26.2537 83.5149 26.2615C77.9175 26.6741 72.0638 27.4138 66.8945 29.5225C66.6787 29.6028 66.6787 29.6028 66.4792 29.6028C66.4324 26.9684 66.4909 24.3248 66.9764 21.7209C67.0135 21.5194 67.0474 21.3176 67.081 21.1156C67.7068 17.4678 69.0534 13.7237 71.6683 10.85C71.7276 10.7834 71.787 10.7168 71.8463 10.6501C72.4355 9.99511 73.0861 9.39259 73.7971 8.84726C73.8604 8.79696 73.9237 8.74666 73.9889 8.69483C76.8538 6.42727 82.978 3.38753 86.9072 4.43594Z" fill="#AADCE7"/>
<path d="M91.3437 2.31154C91.5252 2.50927 91.549 2.64489 91.5599 2.89946C90.7562 3.44986 89.6538 3.40283 88.691 3.31077C88.1995 3.24434 87.7828 3.08573 87.3687 2.83878C87.4124 2.53712 87.517 2.4374 87.77 2.25346C88.6807 1.68144 90.4472 1.73584 91.3437 2.31154Z" fill="#AADCE7"/>
</svg>
