<svg width="188" height="265" viewBox="0 0 188 265" fill="none" xmlns="http://www.w3.org/2000/svg">
<path d="M84.3709 2.06779C88.7506 4.12003 91.1857 8.70198 93.3145 12.8254C93.4119 13.0127 93.5093 13.2 93.6096 13.3929C95.6703 17.4108 97.7102 21.9345 98.5096 26.3903C98.7201 26.4119 98.9307 26.4335 99.1477 26.4557C101.87 26.7986 104.333 27.5927 106.908 28.5166C107.748 28.7984 107.748 28.7984 108.611 28.9878C109.257 28.6405 109.819 28.2885 110.415 27.8694C110.779 27.6261 111.143 27.3837 111.508 27.1423C111.792 26.9544 111.792 26.9544 112.08 26.7628C117.222 23.4108 124.535 19.4813 130.834 20.3294C132.299 20.9462 132.848 21.8018 133.501 23.1874C134.828 26.8427 134.082 31.5554 133.63 35.3193C133.594 35.6245 133.559 35.9298 133.522 36.2443C133.354 37.5618 133.165 38.8269 132.771 40.0972C132.447 41.1771 132.21 42.0034 132.277 43.1299C133.109 44.3501 134.126 45.2073 135.249 46.1508C136.054 46.8753 136.707 47.7022 137.364 48.5595C137.494 48.7281 137.624 48.8967 137.757 49.0704C144.535 58.0245 147.745 68.2212 149.793 79.1593C150.653 83.7234 151.577 87.8376 153.923 91.9057C154.17 92.3487 154.415 92.7922 154.66 93.236C155.028 93.902 155.398 94.5674 155.771 95.2312C159.371 101.647 161.268 108.244 161.229 115.626C161.228 115.837 161.228 116.048 161.227 116.265C161.212 119.384 161.103 122.359 160.273 125.385C160.219 125.587 160.164 125.789 160.109 125.997C156.763 138.092 147.444 147.095 136.831 153.165C135.054 154.165 133.255 155.106 131.412 155.978C133.091 157.244 134.771 158.505 136.48 159.73C139.388 161.842 142.087 164.18 144.688 166.657C144.861 166.821 145.034 166.986 145.212 167.156C149.717 171.477 153.613 176.241 156.232 181.953C160.591 177.574 162.683 172.552 163.773 166.535C164.168 164.436 164.606 162.55 166.226 161.047C167.401 160.274 168.085 160.192 169.509 160.307C172.383 161.119 174.197 163.821 175.624 166.278C180.084 174.295 181.155 183.483 178.744 192.343C178.692 192.538 178.639 192.733 178.585 192.934C176.796 199.343 173.087 204.802 168.643 209.66C168.427 209.897 168.21 210.134 167.988 210.378C160.709 217.982 148.625 224.827 137.953 225.274C137.408 225.264 136.863 225.255 136.318 225.245C136.338 225.509 136.358 225.773 136.379 226.045C136.565 228.623 136.656 231.186 136.665 233.772C136.666 233.961 136.667 234.151 136.668 234.346C136.672 235.348 136.675 236.35 136.676 237.353C136.677 238.166 136.681 238.978 136.688 239.791C136.749 247.563 136.749 247.563 136.241 251.055C136.21 251.273 136.179 251.492 136.147 251.717C135.591 254.957 133.841 258.142 131.292 260.237C125.279 264.333 117.612 265.164 110.541 263.866C105.956 262.76 101.852 260.527 99.3033 256.452C97.3734 253.007 96.7184 249.669 96.7779 245.737C96.4772 245.787 96.4772 245.787 96.1705 245.838C95.2428 245.992 94.3147 246.144 93.3867 246.296C93.0715 246.349 92.7564 246.402 92.4318 246.456C88.6375 247.073 84.9199 247.234 81.0834 247.234C80.3173 247.234 79.5513 247.239 78.7852 247.245C73.8202 247.261 69.0235 246.742 64.1645 245.737C64.1604 246.02 64.1563 246.303 64.1521 246.595C64.0136 251.333 62.6327 255.835 59.3482 259.392C54.2429 264.124 47.4649 264.479 40.88 264.266C38.8323 264.143 36.9535 263.704 35.0145 263.054C34.6997 262.949 34.385 262.845 34.0607 262.737C30.1774 261.28 26.9786 258.669 25.2196 254.885C23.7576 251.176 23.7133 247.284 23.7202 243.348C23.7199 242.988 23.7196 242.629 23.7193 242.258C23.7191 241.499 23.7197 240.739 23.7209 239.98C23.7224 238.848 23.7209 237.717 23.719 236.585C23.7179 232.841 23.7599 229.1 23.8848 225.357C23.8956 225.025 23.9065 224.692 23.9177 224.35C24.2188 216.218 25.5861 208.099 27.2219 200.136C27.0724 200.194 26.9229 200.252 26.7689 200.312C21.3039 202.424 16.444 203.776 10.7506 201.516C7.36508 199.957 4.6685 197.55 3.19474 194.095C1.5829 189.517 2.41322 185.327 4.37625 181.053C6.8726 175.918 10.5442 171.566 14.5228 167.523C14.8057 167.229 15.0883 166.935 15.3707 166.641C16.8508 165.123 18.3851 163.736 20.0437 162.417C20.6273 161.947 21.1983 161.474 21.7641 160.985C23.7208 159.292 25.7317 157.742 27.8566 156.266C28.6588 155.727 28.6588 155.727 29.2422 155.112C29.0592 155.019 28.8763 154.927 28.6878 154.831C21.8779 151.363 21.8779 151.363 19.1407 149.34C18.8378 149.119 18.535 148.897 18.223 148.669C15.9911 147.01 13.9371 145.196 11.9253 143.279C11.6824 143.055 11.4394 142.83 11.1891 142.599C4.24978 135.992 0.366446 127.074 0.0109655 117.547C-0.213834 107.353 3.03542 98.889 8.13063 90.1657C10.6829 85.6723 11.469 80.5558 12.4943 75.5554C13.7891 69.2749 15.4349 63.1933 18.5634 57.5606C18.7973 57.1209 18.7973 57.1209 19.0358 56.6722C20.896 53.3032 23.3295 50.2769 25.8149 47.3509C25.9562 47.1837 26.0975 47.0166 26.2431 46.8443C26.9184 46.0622 27.5973 45.3421 28.3899 44.6778C29.8763 43.4761 29.8763 43.4761 30.4767 41.7545C30.323 40.7472 30.0753 39.7871 29.8194 38.8007C28.7704 33.3997 27.4004 25.4253 30.3605 20.4196C31.3766 19.3139 32.0094 18.9398 33.5173 18.742C35.6305 18.816 37.6583 19.6256 39.6323 20.3294C39.9076 20.4269 40.1829 20.5244 40.4666 20.6248C42.4831 21.409 44.4011 22.4099 46.3245 23.3959C46.6153 23.5432 46.9062 23.6905 47.2058 23.8422C48.5662 24.5496 49.8188 25.2557 50.9998 26.2381C53.0011 27.9358 53.0011 27.9358 55.5051 28.3521C57.4138 27.9787 59.2019 27.3318 61.02 26.6547C62.2477 26.2662 63.4599 26.1521 64.7417 26.1017C64.7756 25.8936 64.8096 25.6854 64.8445 25.471C65.0358 24.6345 65.3147 23.9735 65.6944 23.2054C65.8318 22.9271 65.9693 22.6488 66.1109 22.3621C66.2603 22.0663 66.4097 21.7706 66.5636 21.4658C66.7185 21.1585 66.8735 20.8512 67.0331 20.5346C77.6959 -0.342974 77.6959 -0.342975 84.3709 2.06779Z" fill="#ECECEB"/>
<path d="M84.3709 2.06779C88.7506 4.12003 91.1857 8.70198 93.3145 12.8254C93.4119 13.0127 93.5093 13.2 93.6096 13.3929C95.6703 17.4108 97.7102 21.9345 98.5096 26.3903C98.7201 26.4119 98.9307 26.4335 99.1477 26.4557C101.87 26.7986 104.333 27.5927 106.908 28.5166C107.748 28.7984 107.748 28.7984 108.611 28.9878C109.257 28.6405 109.819 28.2885 110.415 27.8694C110.779 27.6261 111.143 27.3837 111.508 27.1423C111.792 26.9544 111.792 26.9544 112.08 26.7628C117.222 23.4108 124.535 19.4813 130.834 20.3294C132.299 20.9462 132.848 21.8018 133.501 23.1874C134.828 26.8427 134.082 31.5554 133.63 35.3193C133.594 35.6245 133.559 35.9298 133.522 36.2443C133.354 37.5618 133.165 38.8269 132.771 40.0972C132.447 41.1771 132.21 42.0034 132.277 43.1299C133.109 44.3501 134.126 45.2073 135.249 46.1508C136.054 46.8753 136.707 47.7022 137.364 48.5595C137.494 48.7281 137.624 48.8967 137.757 49.0704C144.535 58.0245 147.745 68.2212 149.793 79.1593C150.653 83.7234 151.577 87.8376 153.923 91.9057C154.17 92.3487 154.415 92.7922 154.66 93.236C155.028 93.902 155.398 94.5674 155.771 95.2312C159.371 101.647 161.268 108.244 161.229 115.626C161.228 115.837 161.228 116.048 161.227 116.265C161.212 119.384 161.103 122.359 160.273 125.385C160.219 125.587 160.164 125.789 160.109 125.997C156.763 138.092 147.444 147.095 136.831 153.165C135.054 154.165 133.255 155.106 131.412 155.978C133.091 157.244 134.771 158.505 136.48 159.73C139.388 161.842 142.087 164.18 144.688 166.657C144.861 166.821 145.034 166.986 145.212 167.156C149.717 171.477 153.613 176.241 156.232 181.953C160.591 177.574 162.683 172.552 163.773 166.535C164.168 164.436 164.606 162.55 166.226 161.047C167.401 160.274 168.085 160.192 169.509 160.307C172.383 161.119 174.197 163.821 175.624 166.278C180.084 174.295 181.155 183.483 178.744 192.343C178.692 192.538 178.639 192.733 178.585 192.934C176.796 199.343 173.087 204.802 168.643 209.66C168.427 209.897 168.21 210.134 167.988 210.378C160.709 217.982 148.625 224.827 137.953 225.274C137.408 225.264 136.863 225.255 136.318 225.245C136.338 225.509 136.358 225.773 136.379 226.045C136.565 228.623 136.656 231.186 136.665 233.772C136.666 233.961 136.667 234.151 136.668 234.346C136.672 235.348 136.675 236.35 136.676 237.353C136.677 238.166 136.681 238.978 136.688 239.791C136.749 247.563 136.749 247.563 136.241 251.055C136.21 251.273 136.179 251.492 136.147 251.717C135.591 254.957 133.841 258.142 131.292 260.237C125.279 264.333 117.612 265.164 110.541 263.866C105.956 262.76 101.852 260.527 99.3033 256.452C97.3734 253.007 96.7184 249.669 96.7779 245.737C96.4772 245.787 96.4772 245.787 96.1705 245.838C95.2428 245.992 94.3147 246.144 93.3867 246.296C93.0715 246.349 92.7564 246.402 92.4318 246.456C88.6375 247.073 84.9199 247.234 81.0834 247.234C80.3173 247.234 79.5513 247.239 78.7852 247.245C73.8202 247.261 69.0235 246.742 64.1645 245.737C64.1604 246.02 64.1563 246.303 64.1521 246.595C64.0136 251.333 62.6327 255.835 59.3482 259.392C54.2429 264.124 47.4649 264.479 40.88 264.266C38.8323 264.143 36.9535 263.704 35.0145 263.054C34.6997 262.949 34.385 262.845 34.0607 262.737C30.1774 261.28 26.9786 258.669 25.2196 254.885C23.7576 251.176 23.7133 247.284 23.7202 243.348C23.7199 242.988 23.7196 242.629 23.7193 242.258C23.7191 241.499 23.7197 240.739 23.7209 239.98C23.7224 238.848 23.7209 237.717 23.719 236.585C23.7179 232.841 23.7599 229.1 23.8848 225.357C23.8956 225.025 23.9065 224.692 23.9177 224.35C24.2188 216.218 25.5861 208.099 27.2219 200.136C27.0724 200.194 26.9229 200.252 26.7689 200.312C21.3039 202.424 16.444 203.776 10.7506 201.516C7.36508 199.957 4.6685 197.55 3.19474 194.095C1.5829 189.517 2.41322 185.327 4.37625 181.053C6.8726 175.918 10.5442 171.566 14.5228 167.523C14.8057 167.229 15.0883 166.935 15.3707 166.641C16.8508 165.123 18.3851 163.736 20.0437 162.417C20.6273 161.947 21.1983 161.474 21.7641 160.985C23.7208 159.292 25.7317 157.742 27.8566 156.266C28.6588 155.727 28.6588 155.727 29.2422 155.112C29.0592 155.019 28.8763 154.927 28.6878 154.831C21.8779 151.363 21.8779 151.363 19.1407 149.34C18.8378 149.119 18.535 148.897 18.223 148.669C15.9911 147.01 13.9371 145.196 11.9253 143.279C11.6824 143.055 11.4394 142.83 11.1891 142.599C4.24978 135.992 0.366446 127.074 0.0109655 117.547C-0.213834 107.353 3.03542 98.889 8.13063 90.1657C10.6829 85.6723 11.469 80.5558 12.4943 75.5554C13.7891 69.2749 15.4349 63.1933 18.5634 57.5606C18.7973 57.1209 18.7973 57.1209 19.0358 56.6722C20.896 53.3032 23.3295 50.2769 25.8149 47.3509C25.9562 47.1837 26.0975 47.0166 26.2431 46.8443C26.9184 46.0622 27.5973 45.3421 28.3899 44.6778C29.8763 43.4761 29.8763 43.4761 30.4767 41.7545C30.323 40.7472 30.0753 39.7871 29.8194 38.8007C28.7704 33.3997 27.4004 25.4253 30.3605 20.4196C31.3766 19.3139 32.0094 18.9398 33.5173 18.742C35.6305 18.816 37.6583 19.6256 39.6323 20.3294C39.9076 20.4269 40.1829 20.5244 40.4666 20.6248C42.4831 21.409 44.4011 22.4099 46.3245 23.3959C46.6153 23.5432 46.9062 23.6905 47.2058 23.8422C48.5662 24.5496 49.8188 25.2557 50.9998 26.2381C53.0011 27.9358 53.0011 27.9358 55.5051 28.3521C57.4138 27.9787 59.2019 27.3318 61.02 26.6547C62.2477 26.2662 63.4599 26.1521 64.7417 26.1017C64.7756 25.8936 64.8096 25.6854 64.8445 25.471C65.0358 24.6345 65.3147 23.9735 65.6944 23.2054C65.8318 22.9271 65.9693 22.6488 66.1109 22.3621C66.2603 22.0663 66.4097 21.7706 66.5636 21.4658C66.7185 21.1585 66.8735 20.8512 67.0331 20.5346C77.6959 -0.342974 77.6959 -0.342975 84.3709 2.06779ZM69.2021 31.5624C67.7691 32.1927 66.2248 32.5241 64.7139 32.9222C56.6666 35.0601 49.0996 38.3817 42.2298 43.1299C42.0654 43.2421 41.9009 43.3543 41.7315 43.4698C39.3228 45.1172 37.0587 46.8938 34.8644 48.8167C34.4658 49.1658 34.0644 49.5116 33.6627 49.8571C30.3778 52.732 27.835 55.9245 25.4902 59.5809C25.3822 59.7487 25.2743 59.9164 25.1631 60.0892C21.4962 65.8849 19.9704 72.3735 18.5713 79.0038C18.5215 79.2386 18.4717 79.4734 18.4204 79.7153C18.1726 80.884 17.9283 82.0532 17.6914 83.2241C16.9404 86.868 15.7968 90.1671 13.9997 93.439C13.7458 93.9131 13.4921 94.3873 13.2387 94.8617C13.0521 95.2093 13.0521 95.2093 12.8618 95.5638C8.235 104.207 4.62237 113.832 7.52283 123.709C7.6411 124.076 7.76172 124.442 7.88472 124.808C7.94504 124.991 8.00536 125.174 8.0675 125.362C11.6365 135.866 20.7507 143.28 30.4047 148.086C33.285 149.466 36.2672 150.575 39.267 151.665C42.6948 152.924 42.6948 152.924 43.3843 153.958C43.276 155.022 43.276 155.022 43.0956 155.978C42.8422 156.057 42.5888 156.136 42.3277 156.218C31.6978 159.938 21.4682 168.429 14.8115 177.335C14.6852 177.502 14.559 177.668 14.429 177.84C13.0175 179.707 11.7383 181.605 10.6266 183.667C10.5324 183.841 10.4382 184.015 10.3411 184.194C9.16126 186.463 8.58674 188.778 9.20716 191.293C9.98383 193.35 11.5008 194.866 13.4563 195.854C16.5114 196.985 19.4401 196.226 22.3452 194.966C23.629 194.368 24.8605 193.7 26.0756 192.972C26.5888 192.665 27.1112 192.374 27.6345 192.085C30.7822 189.991 31.4087 186.487 32.4498 183.04C32.8926 181.659 33.2192 180.745 34.4372 179.933C35.6963 179.77 36.2548 179.791 37.3053 180.528C38.0596 181.603 37.9872 182.098 37.9006 183.396C37.7291 184.182 37.5422 184.936 37.32 185.706C37.2598 185.923 37.1996 186.14 37.1377 186.363C37.0093 186.825 36.88 187.287 36.7496 187.748C36.4082 188.96 36.0777 190.175 35.7461 191.39C35.681 191.627 35.616 191.865 35.5489 192.11C32.958 201.59 31.5721 211.483 30.6492 221.259C30.6164 221.603 30.6164 221.603 30.5829 221.953C30.1418 226.959 30.0542 231.97 30.0545 236.992C30.0539 238.019 30.0486 239.046 30.0432 240.073C29.7227 247.939 29.7227 247.939 32.7833 254.875C36.1202 257.458 39.8509 257.674 43.9074 257.678C44.2759 257.686 44.6444 257.693 45.0241 257.7C48.5066 257.711 51.9712 257.078 54.6402 254.684C57.514 251.675 57.6793 246.824 58.0672 242.898C58.3551 240.19 58.3551 240.19 59.258 239.099C61.2265 238.115 64.1175 239.085 66.1487 239.496C76.4854 241.477 87.4206 241.565 97.6778 238.943C98.805 238.668 99.9596 238.671 101.107 238.81C102.076 239.472 102.327 240.004 102.55 241.119C102.601 241.62 102.641 242.123 102.674 242.625C103.025 249.484 103.025 249.484 106.681 255.063C109.754 257.496 113.464 257.671 117.233 257.66C117.577 257.665 117.92 257.67 118.274 257.675C122.076 257.677 125.255 257.032 128.038 254.323C130.578 250.185 130.346 245.436 130.311 240.758C130.308 240.183 130.306 239.608 130.303 239.033C130.294 237.419 130.277 235.806 130.257 234.192C130.253 233.829 130.249 233.465 130.245 233.09C130.013 217.545 127.521 201.597 123.457 186.61C122.955 184.716 122.571 183.049 122.753 181.087C123.488 180.202 123.933 179.977 125.062 179.789C126.164 179.972 126.574 180.308 127.371 181.087C127.762 182.021 127.762 182.021 128.064 183.119C128.182 183.522 128.301 183.925 128.421 184.327C128.482 184.535 128.543 184.743 128.605 184.958C129.834 189.404 129.834 189.404 133.024 192.505C133.536 192.758 134.061 192.984 134.586 193.209C134.94 193.397 135.291 193.589 135.64 193.784C138.86 195.554 142.161 196.803 145.851 195.876C147.923 195.171 149.285 194.428 150.406 192.506C151.526 190.08 151.333 187.728 150.442 185.254C148.365 180.42 145.124 176.481 141.513 172.718C141.344 172.539 141.175 172.361 141.001 172.177C135.22 166.099 128.48 161.823 121.07 157.995C120.735 157.82 120.4 157.645 120.055 157.465C119.604 157.233 119.604 157.233 119.144 156.996C118.424 156.555 118.424 156.555 117.847 155.689C117.738 154.824 117.738 154.824 117.847 153.958C118.854 152.907 120.26 152.685 121.617 152.316C133.892 148.789 145.23 141.11 151.539 129.829C152.588 127.856 153.314 125.798 153.923 123.653C154.021 123.311 154.119 122.969 154.22 122.616C156.655 112.472 152.691 102.954 147.665 94.3229C147.538 94.1017 147.411 93.8806 147.28 93.6528C147.044 93.2448 146.805 92.839 146.56 92.4365C144.087 88.1664 143.518 83.0121 142.674 78.2355C140.852 67.9935 137.272 59.0562 129.969 51.4997C129.737 51.2538 129.506 51.0079 129.268 50.7545C127.353 48.7638 125.252 47.0848 123.042 45.4388C122.763 45.23 122.763 45.23 122.479 45.017C114.225 38.8729 104.973 34.6404 94.9442 32.3308C93.3967 31.9612 93.3967 31.9612 92.9048 31.4389C91.9707 30.5568 90.4837 30.6544 89.2559 30.5211C88.7666 30.4666 88.7666 30.4666 88.2674 30.411C85.4517 30.1309 82.6497 30.0566 79.8218 30.0521C79.6176 30.0511 79.4133 30.0501 79.2029 30.049C74.0512 30.0275 74.0512 30.0275 69.2021 31.5624Z" fill="black"/>
<path d="M94.204 170.155C94.892 170.701 95.548 171.265 96.2006 171.852C96.483 172.077 96.7654 172.303 97.0563 172.535C99.7248 174.755 101.547 178.05 103.127 181.088C103.223 181.269 103.319 181.45 103.418 181.637C106.579 187.685 108.35 194.474 108.611 201.291C108.62 201.486 108.63 201.681 108.64 201.883C109.004 210.182 106.812 217.794 101.322 224.135C97.469 228.131 92.5813 230.3 87.2536 231.595C86.8351 231.702 86.8351 231.702 86.4081 231.81C78.995 233.368 70.5547 231.847 64.1645 227.843C63.1454 227.13 62.2052 226.363 61.2783 225.534C61.038 225.321 60.7977 225.108 60.55 224.888C55.298 219.951 52.5316 212.557 52.2479 205.432C51.9955 194.063 55.6265 181.797 63.5196 173.373C71.7669 164.996 84.392 163.403 94.204 170.155Z" fill="#F2D3A3"/>
<path d="M94.204 170.155C94.892 170.701 95.548 171.265 96.2006 171.852C96.483 172.077 96.7654 172.303 97.0563 172.535C99.7248 174.755 101.547 178.05 103.127 181.088C103.223 181.269 103.319 181.45 103.418 181.637C106.579 187.685 108.35 194.474 108.611 201.291C108.62 201.486 108.63 201.681 108.64 201.883C109.004 210.182 106.812 217.794 101.322 224.135C97.469 228.131 92.5813 230.3 87.2536 231.595C86.8351 231.702 86.8351 231.702 86.4081 231.81C78.995 233.368 70.5547 231.847 64.1645 227.843C63.1454 227.13 62.2052 226.363 61.2783 225.534C61.038 225.321 60.7977 225.108 60.55 224.888C55.298 219.951 52.5316 212.557 52.2479 205.432C51.9955 194.063 55.6265 181.797 63.5196 173.373C71.7669 164.996 84.392 163.403 94.204 170.155ZM67.1588 179.103C60.984 187.043 58.0847 197.467 59.0337 207.45C59.71 212.531 61.9829 217.589 65.9864 220.889C71.6221 225.008 78.5541 226.418 85.4227 225.357C90.4219 224.396 95.1696 221.801 98.2559 217.704C102.45 211.296 102.907 203.244 101.514 195.857C101.388 195.26 101.251 194.668 101.107 194.075C101.059 193.875 101.011 193.674 100.962 193.467C99.483 187.494 96.8189 181.729 92.4487 177.336C92.2786 177.156 92.1086 176.976 91.9334 176.79C88.6833 173.618 84.3223 172.319 79.8991 172.321C74.7693 172.454 70.4217 175.284 67.1588 179.103Z" fill="black"/>
<path d="M169.797 169.543C169.988 169.543 170.178 169.543 170.374 169.543C170.703 170.444 171.026 171.346 171.349 172.249C171.44 172.5 171.532 172.751 171.626 173.01C174.188 180.216 173.608 188.505 170.41 195.422C169.955 196.343 169.456 197.233 168.931 198.116C168.75 198.423 168.569 198.73 168.382 199.046C162.261 208.748 151.462 215.241 140.461 217.82C140.142 217.89 139.822 217.959 139.493 218.03C139.143 218.116 139.143 218.116 138.786 218.204C137.763 218.364 136.776 218.336 135.741 218.319C135.112 214.984 134.616 211.638 134.151 208.276C133.843 206.086 133.476 203.931 132.975 201.778C132.857 201.015 132.889 200.567 133.143 199.847C133.35 199.942 133.556 200.036 133.769 200.133C136.995 201.547 139.927 202.228 143.443 202.265C143.693 202.269 143.944 202.273 144.201 202.277C148.157 202.248 151.339 200.54 154.201 197.885C156.049 195.892 157.121 193.422 157.549 190.756C158.103 189.407 158.971 188.766 160.067 187.831C165.386 183.2 168.762 176.463 169.797 169.543Z" fill="#3A9592"/>
<path d="M38.1171 98.0387C41.2619 100.155 43.0897 103.235 43.9615 106.914C44.3458 111.217 43.4519 114.702 40.7867 118.17C38.8908 120.347 35.5853 122.287 32.6768 122.554C28.7013 122.697 25.5892 122.414 22.3154 119.901C22.0827 119.746 22.0827 119.746 21.8453 119.587C20.5857 118.66 19.8233 117.51 19.0505 116.167C18.9531 115.998 18.8556 115.83 18.7552 115.656C17.0896 112.628 16.9329 109.031 17.5973 105.673C18.9222 101.738 21.3183 98.9832 24.9851 97.1368C29.4033 94.9856 33.974 95.5888 38.1171 98.0387Z" fill="#F4A99C"/>
<path d="M138.519 98.342C141.274 100.313 143.121 103.219 144.025 106.494C144.531 110.679 143.818 114.478 141.224 117.881C138.817 120.529 135.721 122.254 132.121 122.596C128.427 122.635 125.701 121.834 122.753 119.613C122.378 119.363 122.378 119.363 121.996 119.108C119.517 116.76 118.082 113.575 117.778 110.188C117.676 106.268 118.993 102.656 121.671 99.7704C122.862 98.658 124.194 97.8436 125.639 97.1007C125.831 97.0018 126.022 96.9028 126.219 96.8008C130.136 95.1573 135.077 96.1211 138.519 98.342Z" fill="#F4A99C"/>
<path d="M53.1971 118.458C54.1456 119.207 54.7645 120.237 55.4373 121.227C59.5281 127.135 66.2524 129.878 73.1115 131.157C82.4514 132.767 93.2283 131.912 101.223 126.463C102.078 125.842 102.896 125.198 103.705 124.519C103.896 124.36 104.088 124.201 104.285 124.038C105.686 122.763 106.564 121.186 107.487 119.553C108.03 118.753 108.286 118.463 109.188 118.17C110.172 118.065 110.781 118.111 111.696 118.494C112.557 119.192 112.872 119.715 113.229 120.767C113.279 123.778 111.295 126.028 109.322 128.126C101.983 135.582 91.9972 138.557 81.6797 138.715C70.5803 138.679 60.4226 135.789 52.2591 128.018C50.2979 126.02 48.4499 123.697 48.4767 120.787C48.6617 119.71 49.2419 119.202 50.0224 118.458C51.1465 118.083 52.0821 118.087 53.1971 118.458Z" fill="black"/>
<path d="M82.6358 10.5166C86.4969 12.3172 88.6513 19.8922 90.0111 23.6119C90.8924 26.0546 91.774 28.4991 92.4487 31.0082C90.9276 31.0351 89.5204 30.94 88.0112 30.7196C85.3476 30.3836 82.6824 30.3653 80.0022 30.3588C79.7962 30.3574 79.5902 30.3559 79.378 30.3545C76.3802 30.3373 73.4795 30.5708 70.514 31.0082C70.7419 29.7288 71.1858 28.6765 71.7767 27.5268C71.8786 27.3269 71.9805 27.127 72.0854 26.921C72.4243 26.2614 72.7674 25.6042 73.1115 24.9473C73.2285 24.7225 73.3455 24.4977 73.4661 24.2661C74.9651 21.4045 76.5786 18.6413 78.3607 15.9462C78.5216 15.7013 78.6826 15.4564 78.8484 15.2041C79.9847 13.5178 81.2514 12.0048 82.6358 10.5166Z" fill="#3A9592"/>
<path d="M119.921 80.5235C121.798 81.5943 122.974 83.2333 123.707 85.2473C124.297 87.8513 124.314 90.891 123.136 93.3251C122.029 95.0618 120.712 96.2159 118.713 96.8121C116.885 97.0152 115.602 96.7309 114.095 95.6577C112.175 93.9218 111.137 91.8456 110.851 89.2631C110.765 86.5542 111.424 84.1623 113.193 82.0748C115.139 80.0961 117.3 79.3606 119.921 80.5235Z" fill="black"/>
<path d="M47.1937 80.3183C49.2881 81.4912 50.6684 83.4175 51.3302 85.7062C51.9035 88.7402 51.4076 91.5533 49.8059 94.1786C48.9956 95.2925 48.2067 96.1534 46.8476 96.5236C44.7904 96.7972 42.9714 96.803 41.2625 95.5303C39.1532 93.536 38.505 91.2328 38.3876 88.3882C38.4144 85.9271 39.286 83.273 41.0753 81.5156C42.9118 80.0836 44.9514 79.4501 47.1937 80.3183Z" fill="black"/>
<path d="M127.371 27.5447C127.519 30.1829 127.308 32.6313 126.83 35.229C126.78 35.5025 126.73 35.776 126.678 36.0578C126.434 37.316 126.186 38.4981 125.639 39.6665C123.633 38.4068 121.652 37.1148 119.692 35.7855C118.527 35.0018 117.341 34.2893 116.115 33.6056C117.116 32.4774 118.269 31.7901 119.56 31.0441C119.885 30.855 119.885 30.855 120.216 30.662C125.641 27.5447 125.641 27.5447 127.371 27.5447Z" fill="#3A9592"/>
<path d="M36.1689 26.9675C37.9338 27.5034 39.5445 28.1639 41.1655 29.0419C41.4802 29.2102 41.4802 29.2102 41.8013 29.3818C43.6581 30.3904 45.4104 31.5194 47.1362 32.7398C46.0048 33.708 44.8311 34.4024 43.5286 35.1028C41.6029 36.1569 39.814 37.3235 38.0381 38.6124C37.3234 39.0893 37.3234 39.0893 36.7461 39.0893C35.9922 35.0705 36.1112 31.0409 36.1689 26.9675Z" fill="#3A9592"/>
<path d="M67.9165 105.182C69.535 105.924 70.8027 106.898 71.4982 108.564C71.8302 109.848 71.8773 111.089 71.6684 112.397C71.1486 113.264 70.8305 113.682 69.9368 114.129C68.4723 114.369 67.3371 114.269 66.0946 113.426C64.7383 112.275 64.072 110.922 63.7676 109.181C63.6781 107.718 64.1109 106.863 65.0303 105.759C66.1399 105.02 66.5952 105.012 67.9165 105.182Z" fill="black"/>
<path d="M96.4893 105.182C97.3344 105.706 98.0582 106.299 98.5096 107.202C98.7376 109.137 98.6374 110.608 97.4803 112.208C96.3328 113.534 95.3885 114.078 93.6392 114.219C92.6992 114.209 92.4429 114.125 91.6009 113.606C90.6262 112.572 90.6161 111.561 90.6381 110.206C90.8595 108.257 91.9314 107.002 93.4058 105.796C94.4048 105.127 95.3204 105.044 96.4893 105.182Z" fill="black"/>
<path d="M45.7395 56.1401C45.8315 56.1523 45.9235 56.1646 46.0183 56.1772C49.1552 56.6004 53.4974 57.214 55.6323 59.8612C56.033 60.4555 56.2366 60.8413 56.1242 61.5745C55.9837 62.0333 55.6866 62.3826 55.3232 62.6895C54.7509 62.9472 54.2325 62.8551 53.6421 62.6907C53.1398 62.4557 52.6706 62.1707 52.1958 61.8848C50.3971 60.8176 48.6897 60.2751 46.6217 59.9744C46.3933 59.9409 46.3933 59.9409 46.1604 59.9068C44.7967 59.7234 43.4419 59.6616 42.0795 59.8841C41.9927 59.8974 41.9059 59.9108 41.8165 59.9245C41.151 60.0315 40.5029 60.1839 39.8546 60.369C39.2396 60.5302 38.611 60.5769 38.0293 60.2695C37.6862 60.0284 37.5017 59.8251 37.3007 59.4526C37.1897 58.7811 37.2406 58.1498 37.5715 57.5475C38.2473 56.9727 39.0378 56.7344 39.8844 56.533C39.9912 56.5072 40.0981 56.4815 40.2082 56.4549C42.0203 56.0417 43.8951 55.8894 45.7395 56.1401Z" fill="black"/>
<path d="M125.392 68.6959C125.511 68.7594 125.511 68.7594 125.632 68.8241C126.248 69.1856 126.743 69.6547 126.98 70.3879C127.04 71.1213 126.978 71.6162 126.625 72.27C126.132 72.7794 125.705 73.011 125.016 72.9996C124.342 72.9004 123.7 72.6041 123.062 72.3559C121.311 71.6761 119.748 71.3876 117.888 71.3937C117.756 71.3938 117.756 71.3938 117.623 71.3939C115.349 71.4027 113.058 71.6253 110.935 72.5665C110.285 72.8433 109.737 72.8599 109.056 72.6824C108.457 72.3143 108.247 71.8763 108.044 71.1703C107.96 70.5258 107.98 70.0739 108.25 69.4864C109.358 68.0911 110.749 67.812 112.38 67.5436C112.633 67.502 112.885 67.4579 113.137 67.4134C117.108 66.7365 121.705 66.7172 125.392 68.6959Z" fill="black"/>
<path d="M169.541 54.578C173.889 54.9986 178.035 56.4972 181.199 59.5633L181.503 59.8657L181.535 59.8984C184.434 63.0027 185.581 66.8294 185.211 70.7122L185.21 70.7248C184.693 75.7882 181.54 79.2275 177.709 81.955L177.706 81.9567C177.584 82.0431 177.461 82.1288 177.339 82.2151L177.34 82.2162C177.278 82.2603 177.215 82.3038 177.151 82.3493L177.151 82.3503C176.832 82.5757 176.512 82.8013 176.19 83.0259C174.981 83.8754 174.272 84.6181 173.802 85.3882C173.329 86.1632 173.015 87.101 172.791 88.4683L172.789 88.4789L172.787 88.4885C172.77 88.5816 172.754 88.6752 172.738 88.7711C172.725 88.8469 172.712 88.9228 172.7 89.0009L172.676 89.1467L172.631 89.2875C172.417 89.9571 172.089 90.4018 171.643 90.8122L171.379 91.0546L171.047 91.1909C170.164 91.5527 169.456 91.5802 168.683 91.5043L168.684 91.5054C168.576 91.4952 168.575 91.4956 168.464 91.4852L168.461 91.4849C168.216 91.4614 167.972 91.4355 167.737 91.4109C167.573 91.3946 167.409 91.3785 167.245 91.3623L167.244 91.3622C166.893 91.3273 166.542 91.2918 166.193 91.2553C165.756 91.2097 165.317 91.1664 164.875 91.1235L163.355 90.9703C163.117 90.947 162.88 90.922 162.649 90.8972C162.523 90.8842 162.396 90.8718 162.265 90.8585L162.165 90.8474L162.066 90.8276C161.054 90.6196 160.475 90.1248 160.051 89.7353L159.787 89.4907L159.623 89.1689C159.047 88.0358 159.297 86.9055 159.332 86.623C159.343 86.5232 159.354 86.4231 159.366 86.3202L159.367 86.3096L159.369 86.2999C159.675 83.8512 160.391 81.7588 161.629 79.8888C162.856 78.035 164.526 76.5042 166.588 75.0777L166.602 75.0692L166.615 75.0597C166.946 74.8386 167.282 74.6338 167.575 74.4547C168.56 73.8389 169.467 73.1544 170.266 72.4037L170.278 72.3911L170.291 72.3797C170.367 72.3107 170.442 72.241 170.52 72.1702C171.612 71.143 172.037 70.1898 172.066 68.8818C171.992 68.3064 171.678 67.6833 171.123 67.1889C170.378 66.6737 169.566 66.3578 168.575 66.2087L168.565 66.2077C168.486 66.1954 168.407 66.1824 168.325 66.1698C166.93 65.9927 165.829 66.1376 164.957 66.6362C164.059 67.2596 163.363 68.0637 162.587 69.1013L162.581 69.1096C162.529 69.1786 162.476 69.2473 162.422 69.3184C162.378 69.3798 162.371 69.3891 162.313 69.4683L162.237 69.5745L162.147 69.6694C161.493 70.3572 160.764 70.5871 160.16 70.703L159.959 70.7416L159.753 70.7385C158.675 70.7222 157.66 70.2519 157.003 69.9116C156.64 69.7242 156.292 69.523 156.002 69.3564C155.693 69.1784 155.467 69.0486 155.278 68.9526L155.278 68.9516C154.997 68.8091 154.715 68.6677 154.432 68.5249L154.431 68.5237C154.249 68.432 154.068 68.3398 153.887 68.2481L153.887 68.249C153.803 68.2067 153.719 68.164 153.633 68.1204L153.629 68.119C153.03 67.8146 152.559 67.5787 152.229 67.3606C151.734 67.0328 151.483 66.7039 151.302 66.4731L151.05 66.1512L150.944 65.7568C150.564 64.3446 151.042 63.2516 151.582 62.4467L151.581 62.4466C151.64 62.3568 151.64 62.3567 151.701 62.2653L151.71 62.2505C152.853 60.5435 154.213 59.1494 155.876 57.8934C155.964 57.8257 156.052 57.7583 156.142 57.6885L156.156 57.6782L156.168 57.6686C158.552 55.8901 161.315 54.9175 164.262 54.518L164.261 54.519C164.342 54.5074 164.425 54.4949 164.508 54.4831L164.519 54.4812L164.53 54.4803C166.218 54.2582 167.849 54.4152 169.261 54.5527C169.351 54.5613 169.443 54.5687 169.536 54.5775L169.541 54.578Z" fill="#FFF288" stroke="black" stroke-width="4"/>
<path d="M160.073 92.499C162.972 90.8518 167.148 90.733 170.043 93.1084L170.32 93.3463L170.366 93.3903C170.467 93.4872 170.468 93.4876 170.57 93.5865L170.766 93.7722L170.787 93.7919L170.807 93.8126C172.414 95.4285 173.014 97.4676 172.911 99.4543L172.906 99.5392L172.894 99.6244C172.625 101.573 171.584 103.313 169.938 104.521L169.894 104.552L169.849 104.582C167.603 106.05 165.43 106.189 163.086 105.882L163.057 105.878L163.028 105.874C160.911 105.533 159.352 104.285 158.27 103.082L158.231 103.037L158.194 102.991C156.827 101.279 156.422 99.2467 156.716 97.3107L156.726 97.2508L156.738 97.1912C157.151 95.2632 158.306 93.6802 159.946 92.5785L160.008 92.5367L160.073 92.499Z" fill="#FFF288" stroke="black" stroke-width="4"/>
<path d="M84.9029 0.97271C85.3844 1.40218 85.6618 1.87898 85.8218 2.47476C85.8218 2.53484 85.8218 2.59492 85.8218 2.65682C85.8816 2.65917 85.8816 2.65917 85.9427 2.66157C91.3317 2.96926 96.7731 5.33181 100.353 9.01303C100.503 9.17776 100.647 9.34527 100.79 9.51466C100.859 9.59424 100.927 9.67382 100.996 9.75339C104.793 14.1955 106.108 19.9452 106.528 29.0754C106.529 29.1409 106.529 29.2065 106.529 29.274C106.53 29.4604 106.53 29.6469 106.529 29.8333C106.53 29.9154 106.53 29.9154 106.53 29.999C106.528 30.3052 106.487 30.5762 106.407 30.8731C106.366 31.0573 106.376 31.2262 106.394 31.4129C106.401 31.4916 106.408 31.5702 106.416 31.6513C106.458 32.0294 106.508 32.4066 106.559 32.7837C106.843 34.8585 106.995 36.9163 106.998 39.0072C106.998 39.1329 106.999 39.2586 106.999 39.3843C107.004 41.5948 107.004 41.5948 106.703 42.6583C106.689 42.7084 106.675 42.7585 106.66 42.8101C106.315 43.9639 105.583 44.997 104.435 45.6032C103.052 46.2146 101.599 46.0158 100.183 45.6359C100.133 45.6223 100.082 45.6087 100.03 45.5947C99.1699 45.3529 98.3522 45.0114 97.5382 44.6654C97.2699 44.5515 97.0011 44.4386 96.7323 44.3256C96.6772 44.3025 96.6221 44.2793 96.5653 44.2554C95.0439 43.6165 93.5213 42.9817 91.9423 42.4687C91.8625 42.4428 91.8625 42.4428 91.7812 42.4163C91.0654 42.1881 90.332 42.019 89.5972 41.8504C89.5304 41.8351 89.5304 41.8351 89.4622 41.8194C88.4829 41.5955 87.4972 41.4217 86.4996 41.2815C86.4532 41.2749 86.4069 41.2684 86.3592 41.2616C85.65 41.1615 84.9408 41.0652 84.2252 41.0122C84.1262 41.0045 84.1262 41.0045 84.0252 40.9966C81.0952 40.7915 78.122 40.9616 75.244 41.4977C75.1602 41.5132 75.0764 41.5288 74.9901 41.5448C72.6108 41.9923 70.3488 42.7123 68.1256 43.599C67.977 43.6578 67.8284 43.7166 67.6798 43.7754C66.8831 44.0912 66.0899 44.4134 65.3008 44.7445C63.331 45.5708 61.0462 46.4434 58.8783 45.7459C58.5936 45.625 58.3367 45.4857 58.08 45.3211C58.0325 45.2907 57.985 45.2604 57.936 45.2291C56.7963 44.409 56.3159 43.0238 56.1265 41.7611C56.1071 41.599 56.0906 41.4369 56.0759 41.2744C56.0703 41.2145 56.0648 41.1546 56.0591 41.0929C56.0015 40.415 55.9972 39.7383 56.001 39.0587C56.0012 38.9932 56.0014 38.9277 56.0016 38.8602C56.0055 37.6726 56.05 36.4914 56.1507 35.3074C56.1542 35.2652 56.1578 35.223 56.1614 35.1795C56.2505 34.1264 56.3721 33.0791 56.5319 32.033C56.6483 31.3899 56.6483 31.3899 56.5499 30.7557C56.5429 30.6198 56.54 30.4836 56.5391 30.3475C56.5388 30.3061 56.5385 30.2646 56.5382 30.2219C56.5372 30.0837 56.5367 29.9456 56.5363 29.8075C56.5359 29.7101 56.5354 29.6127 56.5349 29.5153C56.5336 29.2005 56.5333 28.8857 56.5332 28.571C56.5332 28.5176 56.5332 28.4642 56.5331 28.4092C56.5327 26.8074 56.5489 25.214 56.7326 23.6194C56.7502 23.4666 56.7671 23.3138 56.784 23.161C57.3484 18.1406 58.8787 13.0126 62.6038 9.15053C62.6545 9.0965 62.6545 9.0965 62.7063 9.04137C63.4946 8.20585 64.3589 7.43771 65.3314 6.78366C65.4015 6.73353 65.4713 6.68311 65.5409 6.63242C68.5814 4.42392 73.2888 2.59738 77.2398 2.65682C77.2426 2.58172 77.2453 2.50662 77.2481 2.42924C77.3321 1.77083 77.753 1.24549 78.3042 0.83616C80.1675 -0.393254 83.0844 -0.198306 84.9029 0.97271Z" fill="black"/>
<path d="M81.3562 27.8276C81.4001 27.8275 81.4441 27.8275 81.4894 27.8274C84.088 27.8253 86.6942 27.918 89.2766 28.1924C89.4301 28.2085 89.5837 28.2241 89.7374 28.2396C91.234 28.3908 92.7242 28.5574 94.2042 28.8138C94.2577 28.823 94.3111 28.8322 94.3662 28.8417C96.0411 29.1322 97.6912 29.4667 99.3268 29.9062C99.44 29.936 99.44 29.936 99.5555 29.9665C100.742 30.2805 101.9 30.6567 103.052 31.0592C103.121 31.0831 103.19 31.1069 103.261 31.1315C103.442 31.1945 103.621 31.2592 103.801 31.3248C103.878 31.3518 103.878 31.3518 103.957 31.3794C104.296 31.5075 104.296 31.5075 104.393 31.6849C104.447 31.8411 104.478 31.9829 104.499 32.1452C104.51 32.2319 104.51 32.2319 104.522 32.3203C104.533 32.4137 104.533 32.4137 104.545 32.5089C104.553 32.5742 104.562 32.6395 104.57 32.7068C104.597 32.9199 104.623 33.1332 104.649 33.3465C104.662 33.4565 104.662 33.4565 104.676 33.5688C104.895 35.3868 104.993 37.1786 104.998 39.0067C104.998 39.1368 104.999 39.267 104.999 39.3972C105.011 42.6009 105.011 42.6009 103.98 43.6673C103.557 44.0235 103.044 44.1843 102.474 44.2022C101.915 44.1809 101.392 44.0679 100.857 43.9253C100.81 43.9129 100.763 43.9005 100.714 43.8877C99.657 43.5998 98.6668 43.1505 97.6686 42.7277C93.9954 41.1745 90.3165 39.9707 86.2958 39.4229C86.2284 39.4135 86.161 39.4041 86.0916 39.3944C84.6358 39.2068 83.1653 39.1666 81.6971 39.1688C81.6141 39.1688 81.531 39.1689 81.4454 39.1689C77.0149 39.1769 72.7723 39.9357 68.6578 41.437C68.6159 41.4523 68.5739 41.4676 68.5307 41.4834C67.4468 41.8801 66.3864 42.3098 65.3377 42.7784C61.5069 44.4875 61.5069 44.4875 59.8549 44.1187C59.2371 43.9153 58.8718 43.5525 58.5623 43.0339C57.961 41.8335 57.9913 40.5365 57.9961 39.2447C57.997 39.0013 57.9961 38.758 57.9953 38.5146C57.9946 37.4199 58.0507 36.3378 58.1465 35.2468C58.1509 35.1947 58.1554 35.1426 58.16 35.0889C58.1937 34.6953 58.2342 34.3027 58.2809 33.9102C58.3194 33.5847 58.3501 33.2633 58.3551 32.9361C58.3762 31.754 58.3762 31.754 58.7572 31.4161C59.1637 31.1786 59.6139 31.0628 60.076 30.947C60.3581 30.8754 60.6312 30.7855 60.9056 30.6925C61.4685 30.5025 62.0348 30.3232 62.6038 30.1489C62.6731 30.1276 62.7425 30.1064 62.8139 30.0845C64.794 29.486 66.8538 29.1055 68.9055 28.7774C69.0547 28.7534 69.2038 28.729 69.3529 28.7045C71.5787 28.3399 73.8267 28.1437 76.0797 27.9793C76.1276 27.9757 76.1754 27.9721 76.2246 27.9684C77.9296 27.8422 79.6465 27.8285 81.3562 27.8276Z" fill="#AADCE7"/>
<path d="M86.2417 4.47355C86.315 4.48331 86.315 4.48331 86.3898 4.49327C90.4378 5.0426 94.4809 6.4101 97.4921 9.00317C97.6415 9.13138 97.7939 9.25342 97.9505 9.37417C98.1674 9.54595 98.3546 9.73114 98.5399 9.93104C98.6693 10.069 98.8045 10.201 98.9401 10.3338C101.486 12.9235 102.889 16.3485 103.651 19.7102C103.676 19.816 103.701 19.9217 103.726 20.0274C104.451 23.1813 104.636 26.5093 104.582 29.7239C104.195 29.61 103.816 29.4839 103.438 29.3471C98.2923 27.493 92.8613 26.7129 86.6854 26.2346C86.5804 26.2272 86.4755 26.2196 86.3707 26.2117C85.0805 26.1164 83.7906 26.1121 82.4954 26.0826C82.4954 19.0129 82.4954 11.9433 82.4954 4.65941C82.8028 4.63938 83.1101 4.61936 83.4268 4.59872C83.6372 4.56129 83.8398 4.52261 84.0463 4.47355C84.7984 4.29604 85.4798 4.37173 86.2417 4.47355Z" fill="#AADCE7"/>
<path d="M78.9072 4.4357C79.4275 4.5706 79.9661 4.63906 80.4996 4.72018C80.4996 11.7698 80.4996 18.8194 80.4996 26.0826C79.4898 26.1027 78.4799 26.1227 77.4394 26.1433C76.8668 26.1715 76.2973 26.2017 75.7263 26.2457C75.6217 26.2534 75.6217 26.2534 75.5149 26.2613C69.9175 26.6739 64.0638 27.4136 58.8945 29.5223C58.6787 29.6026 58.6787 29.6026 58.4792 29.6026C58.4324 26.9682 58.4909 24.3246 58.9764 21.7207C59.0135 21.5192 59.0474 21.3174 59.081 21.1154C59.7068 17.4676 61.0534 13.7234 63.6683 10.8497C63.7276 10.7832 63.787 10.7165 63.8463 10.6499C64.4355 9.99487 65.0861 9.39234 65.7971 8.84702C65.8604 8.79671 65.9237 8.74641 65.9889 8.69458C68.8538 6.42703 74.978 3.38729 78.9072 4.4357Z" fill="#AADCE7"/>
<path d="M83.3437 2.31154C83.5252 2.50927 83.549 2.64489 83.5599 2.89946C82.7562 3.44986 81.6538 3.40283 80.691 3.31077C80.1995 3.24434 79.7828 3.08573 79.3687 2.83878C79.4124 2.53712 79.517 2.4374 79.77 2.25346C80.6807 1.68144 82.4472 1.73584 83.3437 2.31154Z" fill="#AADCE7"/>
</svg>
