<svg width="180" height="265" viewBox="0 0 180 265" fill="none" xmlns="http://www.w3.org/2000/svg">
<path d="M84.3709 2.06779C88.7506 4.12003 91.1857 8.70198 93.3145 12.8254C93.4119 13.0127 93.5093 13.2 93.6096 13.3929C95.6703 17.4108 97.7102 21.9345 98.5096 26.3903C98.7201 26.4119 98.9307 26.4335 99.1477 26.4557C101.87 26.7986 104.333 27.5927 106.908 28.5166C107.748 28.7984 107.748 28.7984 108.611 28.9878C109.257 28.6405 109.819 28.2885 110.415 27.8694C110.779 27.6261 111.143 27.3837 111.508 27.1423C111.792 26.9544 111.792 26.9544 112.08 26.7628C117.222 23.4108 124.535 19.4813 130.834 20.3294C132.299 20.9462 132.848 21.8018 133.501 23.1874C134.828 26.8427 134.082 31.5554 133.63 35.3193C133.594 35.6245 133.559 35.9298 133.522 36.2443C133.354 37.5618 133.165 38.8269 132.771 40.0972C132.447 41.1771 132.21 42.0034 132.277 43.1299C133.109 44.3501 134.126 45.2073 135.249 46.1508C136.054 46.8753 136.707 47.7022 137.364 48.5595C137.494 48.7281 137.624 48.8967 137.757 49.0704C144.535 58.0245 147.745 68.2212 149.793 79.1593C150.653 83.7234 151.577 87.8376 153.923 91.9057C154.17 92.3487 154.415 92.7922 154.66 93.236C155.028 93.902 155.398 94.5674 155.771 95.2312C159.371 101.647 161.268 108.244 161.229 115.626C161.228 115.837 161.228 116.048 161.227 116.265C161.212 119.384 161.103 122.359 160.273 125.385C160.219 125.587 160.164 125.789 160.109 125.997C156.763 138.092 147.444 147.095 136.831 153.165C135.054 154.165 133.255 155.106 131.412 155.978C133.091 157.244 134.771 158.505 136.48 159.73C139.388 161.842 142.087 164.18 144.688 166.657C144.861 166.821 145.034 166.986 145.212 167.156C149.717 171.477 153.613 176.241 156.232 181.953C160.591 177.574 162.683 172.552 163.773 166.535C164.168 164.436 164.606 162.55 166.226 161.047C167.401 160.274 168.085 160.192 169.509 160.307C172.383 161.119 174.197 163.821 175.624 166.278C180.084 174.295 181.155 183.483 178.744 192.343C178.692 192.538 178.639 192.733 178.585 192.934C176.796 199.343 173.087 204.802 168.643 209.66C168.427 209.897 168.21 210.134 167.988 210.378C160.709 217.982 148.625 224.827 137.953 225.274C137.408 225.264 136.863 225.255 136.318 225.245C136.338 225.509 136.358 225.773 136.379 226.045C136.565 228.623 136.656 231.186 136.665 233.772C136.666 233.961 136.667 234.151 136.668 234.346C136.672 235.348 136.675 236.35 136.676 237.353C136.677 238.166 136.681 238.978 136.688 239.791C136.749 247.563 136.749 247.563 136.241 251.055C136.21 251.273 136.179 251.492 136.147 251.717C135.591 254.957 133.841 258.142 131.292 260.237C125.279 264.333 117.612 265.164 110.541 263.866C105.956 262.76 101.852 260.527 99.3033 256.452C97.3734 253.007 96.7184 249.669 96.7779 245.737C96.4772 245.787 96.4772 245.787 96.1705 245.838C95.2428 245.992 94.3147 246.144 93.3867 246.296C93.0715 246.349 92.7564 246.402 92.4318 246.456C88.6375 247.073 84.9199 247.234 81.0834 247.234C80.3173 247.234 79.5513 247.239 78.7852 247.245C73.8202 247.261 69.0235 246.742 64.1645 245.737C64.1604 246.02 64.1563 246.303 64.1521 246.595C64.0136 251.333 62.6327 255.835 59.3482 259.392C54.2429 264.124 47.4649 264.479 40.88 264.266C38.8323 264.143 36.9535 263.704 35.0145 263.054C34.6997 262.949 34.385 262.845 34.0607 262.737C30.1774 261.28 26.9786 258.669 25.2196 254.885C23.7576 251.176 23.7133 247.284 23.7202 243.348C23.7199 242.988 23.7196 242.629 23.7193 242.258C23.7191 241.499 23.7197 240.739 23.7209 239.98C23.7224 238.848 23.7209 237.717 23.719 236.585C23.7179 232.841 23.7599 229.1 23.8848 225.357C23.8956 225.025 23.9065 224.692 23.9177 224.35C24.2188 216.218 25.5861 208.099 27.2219 200.136C27.0724 200.194 26.9229 200.252 26.7689 200.312C21.3039 202.424 16.444 203.776 10.7506 201.516C7.36508 199.957 4.6685 197.55 3.19474 194.095C1.5829 189.517 2.41322 185.327 4.37625 181.053C6.8726 175.918 10.5442 171.566 14.5228 167.523C14.8057 167.229 15.0883 166.935 15.3707 166.641C16.8508 165.123 18.3851 163.736 20.0437 162.417C20.6273 161.947 21.1983 161.474 21.7641 160.985C23.7208 159.292 25.7317 157.742 27.8566 156.266C28.6588 155.727 28.6588 155.727 29.2422 155.112C29.0592 155.019 28.8763 154.927 28.6878 154.831C21.8779 151.363 21.8779 151.363 19.1407 149.34C18.8378 149.119 18.535 148.897 18.223 148.669C15.9911 147.01 13.9371 145.196 11.9253 143.279C11.6824 143.055 11.4394 142.83 11.1891 142.599C4.24978 135.992 0.366446 127.074 0.0109655 117.547C-0.213834 107.353 3.03542 98.889 8.13063 90.1657C10.6829 85.6723 11.469 80.5558 12.4943 75.5554C13.7891 69.2749 15.4349 63.1933 18.5634 57.5606C18.7973 57.1209 18.7973 57.1209 19.0358 56.6722C20.896 53.3032 23.3295 50.2769 25.8149 47.3509C25.9562 47.1837 26.0975 47.0166 26.2431 46.8443C26.9184 46.0622 27.5973 45.3421 28.3899 44.6778C29.8763 43.4761 29.8763 43.4761 30.4767 41.7545C30.323 40.7472 30.0753 39.7871 29.8194 38.8007C28.7704 33.3997 27.4004 25.4253 30.3605 20.4196C31.3766 19.3139 32.0094 18.9398 33.5173 18.742C35.6305 18.816 37.6583 19.6256 39.6323 20.3294C39.9076 20.4269 40.1829 20.5244 40.4666 20.6248C42.4831 21.409 44.4011 22.4099 46.3245 23.3959C46.6153 23.5432 46.9062 23.6905 47.2058 23.8422C48.5662 24.5496 49.8188 25.2557 50.9998 26.2381C53.0011 27.9358 53.0011 27.9358 55.5051 28.3521C57.4138 27.9787 59.2019 27.3318 61.02 26.6547C62.2477 26.2662 63.4599 26.1521 64.7417 26.1017C64.7756 25.8936 64.8096 25.6854 64.8445 25.471C65.0358 24.6345 65.3147 23.9735 65.6944 23.2054C65.8318 22.9271 65.9693 22.6488 66.1109 22.3621C66.2603 22.0663 66.4097 21.7706 66.5636 21.4658C66.7185 21.1585 66.8735 20.8512 67.0331 20.5346C77.6959 -0.342974 77.6959 -0.342975 84.3709 2.06779Z" fill="#ECECEB"/>
<path d="M84.3709 2.06779C88.7506 4.12003 91.1857 8.70198 93.3145 12.8254C93.4119 13.0127 93.5093 13.2 93.6096 13.3929C95.6703 17.4108 97.7102 21.9345 98.5096 26.3903C98.7201 26.4119 98.9307 26.4335 99.1477 26.4557C101.87 26.7986 104.333 27.5927 106.908 28.5166C107.748 28.7984 107.748 28.7984 108.611 28.9878C109.257 28.6405 109.819 28.2885 110.415 27.8694C110.779 27.6261 111.143 27.3837 111.508 27.1423C111.792 26.9544 111.792 26.9544 112.08 26.7628C117.222 23.4108 124.535 19.4813 130.834 20.3294C132.299 20.9462 132.848 21.8018 133.501 23.1874C134.828 26.8427 134.082 31.5554 133.63 35.3193C133.594 35.6245 133.559 35.9298 133.522 36.2443C133.354 37.5618 133.165 38.8269 132.771 40.0972C132.447 41.1771 132.21 42.0034 132.277 43.1299C133.109 44.3501 134.126 45.2073 135.249 46.1508C136.054 46.8753 136.707 47.7022 137.364 48.5595C137.494 48.7281 137.624 48.8967 137.757 49.0704C144.535 58.0245 147.745 68.2212 149.793 79.1593C150.653 83.7234 151.577 87.8376 153.923 91.9057C154.17 92.3487 154.415 92.7922 154.66 93.236C155.028 93.902 155.398 94.5674 155.771 95.2312C159.371 101.647 161.268 108.244 161.229 115.626C161.228 115.837 161.228 116.048 161.227 116.265C161.212 119.384 161.103 122.359 160.273 125.385C160.219 125.587 160.164 125.789 160.109 125.997C156.763 138.092 147.444 147.095 136.831 153.165C135.054 154.165 133.255 155.106 131.412 155.978C133.091 157.244 134.771 158.505 136.48 159.73C139.388 161.842 142.087 164.18 144.688 166.657C144.861 166.821 145.034 166.986 145.212 167.156C149.717 171.477 153.613 176.241 156.232 181.953C160.591 177.574 162.683 172.552 163.773 166.535C164.168 164.436 164.606 162.55 166.226 161.047C167.401 160.274 168.085 160.192 169.509 160.307C172.383 161.119 174.197 163.821 175.624 166.278C180.084 174.295 181.155 183.483 178.744 192.343C178.692 192.538 178.639 192.733 178.585 192.934C176.796 199.343 173.087 204.802 168.643 209.66C168.427 209.897 168.21 210.134 167.988 210.378C160.709 217.982 148.625 224.827 137.953 225.274C137.408 225.264 136.863 225.255 136.318 225.245C136.338 225.509 136.358 225.773 136.379 226.045C136.565 228.623 136.656 231.186 136.665 233.772C136.666 233.961 136.667 234.151 136.668 234.346C136.672 235.348 136.675 236.35 136.676 237.353C136.677 238.166 136.681 238.978 136.688 239.791C136.749 247.563 136.749 247.563 136.241 251.055C136.21 251.273 136.179 251.492 136.147 251.717C135.591 254.957 133.841 258.142 131.292 260.237C125.279 264.333 117.612 265.164 110.541 263.866C105.956 262.76 101.852 260.527 99.3033 256.452C97.3734 253.007 96.7184 249.669 96.7779 245.737C96.4772 245.787 96.4772 245.787 96.1705 245.838C95.2428 245.992 94.3147 246.144 93.3867 246.296C93.0715 246.349 92.7564 246.402 92.4318 246.456C88.6375 247.073 84.9199 247.234 81.0834 247.234C80.3173 247.234 79.5513 247.239 78.7852 247.245C73.8202 247.261 69.0235 246.742 64.1645 245.737C64.1604 246.02 64.1563 246.303 64.1521 246.595C64.0136 251.333 62.6327 255.835 59.3482 259.392C54.2429 264.124 47.4649 264.479 40.88 264.266C38.8323 264.143 36.9535 263.704 35.0145 263.054C34.6997 262.949 34.385 262.845 34.0607 262.737C30.1774 261.28 26.9786 258.669 25.2196 254.885C23.7576 251.176 23.7133 247.284 23.7202 243.348C23.7199 242.988 23.7196 242.629 23.7193 242.258C23.7191 241.499 23.7197 240.739 23.7209 239.98C23.7224 238.848 23.7209 237.717 23.719 236.585C23.7179 232.841 23.7599 229.1 23.8848 225.357C23.8956 225.025 23.9065 224.692 23.9177 224.35C24.2188 216.218 25.5861 208.099 27.2219 200.136C27.0724 200.194 26.9229 200.252 26.7689 200.312C21.3039 202.424 16.444 203.776 10.7506 201.516C7.36508 199.957 4.6685 197.55 3.19474 194.095C1.5829 189.517 2.41322 185.327 4.37625 181.053C6.8726 175.918 10.5442 171.566 14.5228 167.523C14.8057 167.229 15.0883 166.935 15.3707 166.641C16.8508 165.123 18.3851 163.736 20.0437 162.417C20.6273 161.947 21.1983 161.474 21.7641 160.985C23.7208 159.292 25.7317 157.742 27.8566 156.266C28.6588 155.727 28.6588 155.727 29.2422 155.112C29.0592 155.019 28.8763 154.927 28.6878 154.831C21.8779 151.363 21.8779 151.363 19.1407 149.34C18.8378 149.119 18.535 148.897 18.223 148.669C15.9911 147.01 13.9371 145.196 11.9253 143.279C11.6824 143.055 11.4394 142.83 11.1891 142.599C4.24978 135.992 0.366446 127.074 0.0109655 117.547C-0.213834 107.353 3.03542 98.889 8.13063 90.1657C10.6829 85.6723 11.469 80.5558 12.4943 75.5554C13.7891 69.2749 15.4349 63.1933 18.5634 57.5606C18.7973 57.1209 18.7973 57.1209 19.0358 56.6722C20.896 53.3032 23.3295 50.2769 25.8149 47.3509C25.9562 47.1837 26.0975 47.0166 26.2431 46.8443C26.9184 46.0622 27.5973 45.3421 28.3899 44.6778C29.8763 43.4761 29.8763 43.4761 30.4767 41.7545C30.323 40.7472 30.0753 39.7871 29.8194 38.8007C28.7704 33.3997 27.4004 25.4253 30.3605 20.4196C31.3766 19.3139 32.0094 18.9398 33.5173 18.742C35.6305 18.816 37.6583 19.6256 39.6323 20.3294C39.9076 20.4269 40.1829 20.5244 40.4666 20.6248C42.4831 21.409 44.4011 22.4099 46.3245 23.3959C46.6153 23.5432 46.9062 23.6905 47.2058 23.8422C48.5662 24.5496 49.8188 25.2557 50.9998 26.2381C53.0011 27.9358 53.0011 27.9358 55.5051 28.3521C57.4138 27.9787 59.2019 27.3318 61.02 26.6547C62.2477 26.2662 63.4599 26.1521 64.7417 26.1017C64.7756 25.8936 64.8096 25.6854 64.8445 25.471C65.0358 24.6345 65.3147 23.9735 65.6944 23.2054C65.8318 22.9271 65.9693 22.6488 66.1109 22.3621C66.2603 22.0663 66.4097 21.7706 66.5636 21.4658C66.7185 21.1585 66.8735 20.8512 67.0331 20.5346C77.6959 -0.342974 77.6959 -0.342975 84.3709 2.06779ZM69.2021 31.5624C67.7691 32.1927 66.2248 32.5241 64.7139 32.9222C56.6666 35.0601 49.0996 38.3817 42.2298 43.1299C42.0654 43.2421 41.9009 43.3543 41.7315 43.4698C39.3228 45.1172 37.0587 46.8938 34.8644 48.8167C34.4658 49.1658 34.0644 49.5116 33.6627 49.8571C30.3778 52.732 27.835 55.9245 25.4902 59.5809C25.3822 59.7487 25.2743 59.9164 25.1631 60.0892C21.4962 65.8849 19.9704 72.3735 18.5713 79.0038C18.5215 79.2386 18.4717 79.4734 18.4204 79.7153C18.1726 80.884 17.9283 82.0532 17.6914 83.2241C16.9404 86.868 15.7968 90.1671 13.9997 93.439C13.7458 93.9131 13.4921 94.3873 13.2387 94.8617C13.0521 95.2093 13.0521 95.2093 12.8618 95.5638C8.235 104.207 4.62237 113.832 7.52283 123.709C7.6411 124.076 7.76172 124.442 7.88472 124.808C7.94504 124.991 8.00536 125.174 8.0675 125.362C11.6365 135.866 20.7507 143.28 30.4047 148.086C33.285 149.466 36.2672 150.575 39.267 151.665C42.6948 152.924 42.6948 152.924 43.3843 153.958C43.276 155.022 43.276 155.022 43.0956 155.978C42.8422 156.057 42.5888 156.136 42.3277 156.218C31.6978 159.938 21.4682 168.429 14.8115 177.335C14.6852 177.502 14.559 177.668 14.429 177.84C13.0175 179.707 11.7383 181.605 10.6266 183.667C10.5324 183.841 10.4382 184.015 10.3411 184.194C9.16126 186.463 8.58674 188.778 9.20716 191.293C9.98383 193.35 11.5008 194.866 13.4563 195.854C16.5114 196.985 19.4401 196.226 22.3452 194.966C23.629 194.368 24.8605 193.7 26.0756 192.972C26.5888 192.665 27.1112 192.374 27.6345 192.085C30.7822 189.991 31.4087 186.487 32.4498 183.04C32.8926 181.659 33.2192 180.745 34.4372 179.933C35.6963 179.77 36.2548 179.791 37.3053 180.528C38.0596 181.603 37.9872 182.098 37.9006 183.396C37.7291 184.182 37.5422 184.936 37.32 185.706C37.2598 185.923 37.1996 186.14 37.1377 186.363C37.0093 186.825 36.88 187.287 36.7496 187.748C36.4082 188.96 36.0777 190.175 35.7461 191.39C35.681 191.627 35.616 191.865 35.5489 192.11C32.958 201.59 31.5721 211.483 30.6492 221.259C30.6164 221.603 30.6164 221.603 30.5829 221.953C30.1418 226.959 30.0542 231.97 30.0545 236.992C30.0539 238.019 30.0486 239.046 30.0432 240.073C29.7227 247.939 29.7227 247.939 32.7833 254.875C36.1202 257.458 39.8509 257.674 43.9074 257.678C44.2759 257.686 44.6444 257.693 45.0241 257.7C48.5066 257.711 51.9712 257.078 54.6402 254.684C57.514 251.675 57.6793 246.824 58.0672 242.898C58.3551 240.19 58.3551 240.19 59.258 239.099C61.2265 238.115 64.1175 239.085 66.1487 239.496C76.4854 241.477 87.4206 241.565 97.6778 238.943C98.805 238.668 99.9596 238.671 101.107 238.81C102.076 239.472 102.327 240.004 102.55 241.119C102.601 241.62 102.641 242.123 102.674 242.625C103.025 249.484 103.025 249.484 106.681 255.063C109.754 257.496 113.464 257.671 117.233 257.66C117.577 257.665 117.92 257.67 118.274 257.675C122.076 257.677 125.255 257.032 128.038 254.323C130.578 250.185 130.346 245.436 130.311 240.758C130.308 240.183 130.306 239.608 130.303 239.033C130.294 237.419 130.277 235.806 130.257 234.192C130.253 233.829 130.249 233.465 130.245 233.09C130.013 217.545 127.521 201.597 123.457 186.61C122.955 184.716 122.571 183.049 122.753 181.087C123.488 180.202 123.933 179.977 125.062 179.789C126.164 179.972 126.574 180.308 127.371 181.087C127.762 182.021 127.762 182.021 128.064 183.119C128.182 183.522 128.301 183.925 128.421 184.327C128.482 184.535 128.543 184.743 128.605 184.958C129.834 189.404 129.834 189.404 133.024 192.505C133.536 192.758 134.061 192.984 134.586 193.209C134.94 193.397 135.291 193.589 135.64 193.784C138.86 195.554 142.161 196.803 145.851 195.876C147.923 195.171 149.285 194.428 150.406 192.506C151.526 190.08 151.333 187.728 150.442 185.254C148.365 180.42 145.124 176.481 141.513 172.718C141.344 172.539 141.175 172.361 141.001 172.177C135.22 166.099 128.48 161.823 121.07 157.995C120.735 157.82 120.4 157.645 120.055 157.465C119.604 157.233 119.604 157.233 119.144 156.996C118.424 156.555 118.424 156.555 117.847 155.689C117.738 154.824 117.738 154.824 117.847 153.958C118.854 152.907 120.26 152.685 121.617 152.316C133.892 148.789 145.23 141.11 151.539 129.829C152.588 127.856 153.314 125.798 153.923 123.653C154.021 123.311 154.119 122.969 154.22 122.616C156.655 112.472 152.691 102.954 147.665 94.3229C147.538 94.1017 147.411 93.8806 147.28 93.6528C147.044 93.2448 146.805 92.839 146.56 92.4365C144.087 88.1664 143.518 83.0121 142.674 78.2355C140.852 67.9935 137.272 59.0562 129.969 51.4997C129.737 51.2538 129.506 51.0079 129.268 50.7545C127.353 48.7638 125.252 47.0848 123.042 45.4388C122.763 45.23 122.763 45.23 122.479 45.017C114.225 38.8729 104.973 34.6404 94.9442 32.3308C93.3967 31.9612 93.3967 31.9612 92.9048 31.4389C91.9707 30.5568 90.4837 30.6544 89.2559 30.5211C88.7666 30.4666 88.7666 30.4666 88.2674 30.411C85.4517 30.1309 82.6497 30.0566 79.8218 30.0521C79.6176 30.0511 79.4133 30.0501 79.2029 30.049C74.0512 30.0275 74.0512 30.0275 69.2021 31.5624Z" fill="black"/>
<path d="M94.204 170.155C94.892 170.701 95.548 171.265 96.2007 171.852C96.483 172.077 96.7654 172.303 97.0564 172.535C99.7248 174.755 101.547 178.05 103.127 181.088C103.223 181.269 103.319 181.45 103.418 181.637C106.579 187.685 108.35 194.474 108.611 201.291C108.62 201.486 108.63 201.681 108.64 201.883C109.004 210.182 106.812 217.794 101.322 224.135C97.469 228.131 92.5813 230.3 87.2536 231.595C86.8351 231.702 86.8351 231.702 86.4081 231.81C78.995 233.368 70.5548 231.847 64.1645 227.843C63.1454 227.13 62.2052 226.363 61.2784 225.534C61.038 225.321 60.7977 225.108 60.5501 224.888C55.298 219.951 52.5316 212.557 52.2479 205.432C51.9955 194.063 55.6266 181.797 63.5196 173.373C71.7669 164.996 84.3921 163.403 94.204 170.155Z" fill="#F2D3A3"/>
<path d="M94.204 170.155C94.892 170.701 95.548 171.265 96.2007 171.852C96.483 172.077 96.7654 172.303 97.0564 172.535C99.7248 174.755 101.547 178.05 103.127 181.088C103.223 181.269 103.319 181.45 103.418 181.637C106.579 187.685 108.35 194.474 108.611 201.291C108.62 201.486 108.63 201.681 108.64 201.883C109.004 210.182 106.812 217.794 101.322 224.135C97.469 228.131 92.5813 230.3 87.2536 231.595C86.8351 231.702 86.8351 231.702 86.4081 231.81C78.995 233.368 70.5548 231.847 64.1645 227.843C63.1454 227.13 62.2052 226.363 61.2784 225.534C61.038 225.321 60.7977 225.108 60.5501 224.888C55.298 219.951 52.5316 212.557 52.2479 205.432C51.9955 194.063 55.6266 181.797 63.5196 173.373C71.7669 164.996 84.3921 163.403 94.204 170.155ZM67.1589 179.103C60.984 187.043 58.0847 197.467 59.0337 207.45C59.71 212.531 61.983 217.589 65.9864 220.889C71.6221 225.008 78.5541 226.418 85.4227 225.357C90.4219 224.396 95.1696 221.801 98.2559 217.704C102.45 211.296 102.907 203.244 101.514 195.857C101.388 195.26 101.251 194.668 101.107 194.075C101.059 193.875 101.011 193.674 100.962 193.467C99.483 187.494 96.8189 181.729 92.4487 177.336C92.2787 177.156 92.1086 176.976 91.9335 176.79C88.6833 173.618 84.3223 172.319 79.8991 172.321C74.7694 172.454 70.4217 175.284 67.1589 179.103Z" fill="black"/>
<path d="M169.797 169.543C169.988 169.543 170.178 169.543 170.374 169.543C170.703 170.444 171.026 171.346 171.349 172.249C171.44 172.5 171.532 172.751 171.626 173.01C174.188 180.216 173.608 188.505 170.41 195.422C169.955 196.343 169.456 197.233 168.931 198.116C168.75 198.423 168.569 198.73 168.382 199.046C162.261 208.748 151.462 215.241 140.461 217.82C140.142 217.89 139.822 217.959 139.493 218.03C139.143 218.116 139.143 218.116 138.786 218.204C137.763 218.364 136.776 218.336 135.741 218.319C135.112 214.984 134.616 211.638 134.151 208.276C133.843 206.086 133.476 203.931 132.975 201.778C132.857 201.015 132.889 200.567 133.143 199.847C133.35 199.942 133.556 200.036 133.769 200.133C136.995 201.547 139.927 202.228 143.443 202.265C143.693 202.269 143.944 202.273 144.201 202.277C148.157 202.248 151.339 200.54 154.201 197.885C156.049 195.892 157.121 193.422 157.549 190.756C158.103 189.407 158.971 188.766 160.067 187.831C165.386 183.2 168.762 176.463 169.797 169.543Z" fill="#3A9592"/>
<path d="M38.1171 98.0387C41.2619 100.155 43.0897 103.235 43.9615 106.914C44.3458 111.217 43.4519 114.702 40.7867 118.17C38.8908 120.347 35.5853 122.287 32.6768 122.554C28.7013 122.697 25.5892 122.414 22.3154 119.901C22.0827 119.746 22.0827 119.746 21.8453 119.587C20.5857 118.66 19.8233 117.51 19.0505 116.167C18.9531 115.998 18.8556 115.83 18.7552 115.656C17.0896 112.628 16.9329 109.031 17.5973 105.673C18.9222 101.738 21.3183 98.9832 24.9851 97.1368C29.4033 94.9856 33.974 95.5888 38.1171 98.0387Z" fill="#F4A99C"/>
<path d="M138.519 98.342C141.274 100.313 143.121 103.219 144.025 106.494C144.531 110.679 143.818 114.478 141.224 117.881C138.817 120.529 135.721 122.254 132.121 122.596C128.427 122.635 125.701 121.834 122.753 119.613C122.378 119.363 122.378 119.363 121.996 119.108C119.517 116.76 118.082 113.575 117.778 110.188C117.676 106.268 118.993 102.656 121.671 99.7704C122.862 98.658 124.194 97.8436 125.639 97.1007C125.831 97.0018 126.022 96.9028 126.219 96.8008C130.136 95.1573 135.077 96.1211 138.519 98.342Z" fill="#F4A99C"/>
<path d="M53.1971 118.458C54.1456 119.207 54.7645 120.237 55.4373 121.227C59.5281 127.135 66.2524 129.878 73.1115 131.157C82.4514 132.767 93.2283 131.912 101.223 126.463C102.078 125.842 102.896 125.198 103.705 124.519C103.896 124.36 104.088 124.201 104.285 124.038C105.686 122.763 106.564 121.186 107.487 119.553C108.03 118.753 108.286 118.463 109.188 118.17C110.172 118.065 110.781 118.111 111.696 118.494C112.557 119.192 112.872 119.715 113.229 120.767C113.279 123.778 111.295 126.028 109.322 128.126C101.983 135.582 91.9972 138.557 81.6798 138.715C70.5804 138.679 60.4226 135.789 52.2592 128.018C50.2979 126.02 48.4499 123.697 48.4767 120.787C48.6618 119.71 49.2419 119.202 50.0224 118.458C51.1465 118.083 52.0821 118.087 53.1971 118.458Z" fill="black"/>
<path d="M82.6358 10.5166C86.4969 12.3172 88.6513 19.8922 90.0111 23.6119C90.8924 26.0546 91.774 28.4991 92.4487 31.0082C90.9276 31.0351 89.5204 30.94 88.0112 30.7196C85.3475 30.3836 82.6824 30.3653 80.0022 30.3588C79.7962 30.3574 79.5902 30.3559 79.378 30.3545C76.3801 30.3373 73.4794 30.5708 70.514 31.0082C70.7418 29.7288 71.1858 28.6765 71.7767 27.5268C71.8786 27.3269 71.9804 27.127 72.0854 26.921C72.4243 26.2614 72.7673 25.6042 73.1115 24.9473C73.2285 24.7225 73.3455 24.4977 73.4661 24.2661C74.965 21.4045 76.5786 18.6413 78.3607 15.9462C78.5216 15.7013 78.6826 15.4564 78.8484 15.2041C79.9846 13.5178 81.2514 12.0048 82.6358 10.5166Z" fill="#3A9592"/>
<path d="M127.371 27.5447C127.519 30.1829 127.308 32.6313 126.83 35.229C126.78 35.5025 126.73 35.776 126.678 36.0578C126.434 37.316 126.186 38.4981 125.639 39.6665C123.633 38.4068 121.652 37.1148 119.692 35.7855C118.527 35.0018 117.341 34.2893 116.115 33.6056C117.116 32.4774 118.269 31.7901 119.56 31.0441C119.885 30.855 119.885 30.855 120.216 30.662C125.641 27.5447 125.641 27.5447 127.371 27.5447Z" fill="#3A9592"/>
<path d="M36.1689 26.9675C37.9339 27.5034 39.5446 28.1639 41.1656 29.0419C41.4803 29.2102 41.4803 29.2102 41.8013 29.3818C43.6582 30.3904 45.4104 31.5194 47.1363 32.7398C46.0049 33.708 44.8312 34.4024 43.5286 35.1028C41.6029 36.1569 39.814 37.3235 38.0382 38.6124C37.3234 39.0893 37.3234 39.0893 36.7462 39.0893C35.9922 35.0705 36.1112 31.0409 36.1689 26.9675Z" fill="#3A9592"/>
<path d="M67.9165 105.182C69.535 105.924 70.8027 106.898 71.4982 108.564C71.8302 109.848 71.8773 111.089 71.6684 112.397C71.1486 113.264 70.8305 113.682 69.9368 114.129C68.4723 114.369 67.3371 114.269 66.0946 113.426C64.7383 112.275 64.072 110.922 63.7676 109.181C63.6781 107.718 64.1109 106.863 65.0303 105.759C66.1399 105.02 66.5952 105.012 67.9165 105.182Z" fill="black"/>
<path d="M96.4893 105.182C97.3344 105.706 98.0582 106.299 98.5096 107.202C98.7376 109.137 98.6374 110.608 97.4803 112.208C96.3328 113.534 95.3885 114.078 93.6392 114.219C92.6993 114.209 92.4429 114.125 91.6009 113.606C90.6263 112.572 90.6161 111.561 90.6381 110.206C90.8596 108.257 91.9314 107.002 93.4059 105.796C94.4048 105.127 95.3205 105.044 96.4893 105.182Z" fill="black"/>
<path d="M41.1427 88.0136C41.2999 88.0083 41.2999 88.0083 41.4604 88.003C42.1142 88.0943 42.518 88.5504 42.9613 89.0506C43.0586 89.1592 43.1559 89.2677 43.2562 89.3795C43.4513 89.6007 43.6456 89.8227 43.8395 90.0452C46.0996 92.3903 49.1716 93.0348 52.1874 92.9565C54.983 92.8328 57.7714 91.641 59.6753 89.3843C59.8044 89.2275 59.9323 89.0695 60.0587 88.9101C60.472 88.3924 60.7442 88.0923 61.3716 88.0019C62.1272 87.9902 62.7188 88.0145 63.2928 88.5916C63.7287 89.1181 63.955 89.6306 64 90.3427C63.9223 91.7707 62.8419 92.9722 61.9249 93.8958C60.1365 95.5764 58.0822 96.5911 55.8317 97.2959C55.7005 97.3391 55.7005 97.3391 55.5666 97.3832C51.6254 98.6439 47.0573 97.8999 43.4738 95.8089C41.9266 94.866 39.609 93.106 39.0442 91.1757C38.937 90.2002 38.9964 89.5173 39.5416 88.7276C40.0562 88.206 40.4469 88.0275 41.1427 88.0136Z" fill="black"/>
<path d="M102.187 89.014C102.303 89.0094 102.418 89.0048 102.537 89C103.326 89.1147 103.796 89.6857 104.29 90.2635C106.037 92.2255 108.711 93.2713 111.309 93.4952C114.364 93.6538 117.592 93.1207 119.952 91.0348C120.345 90.6605 120.713 90.2749 121.065 89.8624C121.438 89.428 121.729 89.1043 122.321 89.0145C123.03 88.9745 123.608 89.1057 124.173 89.5462C124.628 90.0393 124.884 90.4799 125 91.1428C124.883 92.429 123.909 93.4946 122.969 94.2947C119.344 97.2515 114.808 98.3612 110.176 97.8989C109.468 97.7974 108.781 97.6381 108.093 97.4443C107.969 97.4106 107.969 97.4106 107.843 97.3763C104.994 96.5835 102.048 94.8628 100.377 92.3769C100.065 91.8187 99.9107 91.2914 100.054 90.6569C100.476 89.7117 101.122 89.0416 102.187 89.014Z" fill="black"/>
<path d="M120.467 44.0036C120.602 44.0023 120.602 44.0023 120.741 44.001C120.84 44.0008 120.938 44.0007 121.04 44.0005C121.146 43.9998 121.251 43.999 121.356 43.9982C121.643 43.9963 121.929 43.9953 122.215 43.9946C122.394 43.9942 122.572 43.9936 122.751 43.9929C123.311 43.9909 123.872 43.9894 124.432 43.9888C125.077 43.9882 125.723 43.9855 126.369 43.9812C126.869 43.978 127.368 43.9764 127.868 43.9762C128.166 43.9761 128.464 43.9752 128.763 43.9725C129.043 43.9701 129.324 43.9697 129.605 43.9711C129.756 43.9712 129.908 43.9692 130.059 43.967C130.577 43.9718 130.909 44.0101 131.303 44.3599C131.901 44.9748 131.975 45.4983 131.979 46.3299C131.98 46.422 131.981 46.5141 131.982 46.609C131.984 46.8034 131.984 46.9979 131.985 47.1924C131.986 47.4881 131.991 47.7836 131.996 48.0793C131.997 48.2688 131.998 48.4584 131.998 48.648C132 48.7355 132.002 48.823 132.004 48.9132C131.999 49.5637 131.811 49.9584 131.414 50.4685C131.362 50.5367 131.362 50.5367 131.308 50.6062C131.216 50.7206 131.118 50.8312 131.021 50.9415C130.949 51.024 130.878 51.1066 130.807 51.1894C130.771 51.231 130.735 51.2726 130.698 51.3155C130.484 51.5676 130.283 51.8289 130.08 52.0894C129.867 52.363 129.652 52.6344 129.434 52.9043C128.78 53.7158 128.155 54.549 127.546 55.3951C127.515 55.438 127.484 55.4808 127.452 55.525C127.305 55.7314 127.179 55.935 127.069 56.1631C127.135 56.1608 127.202 56.1585 127.271 56.1562C127.867 56.1362 128.463 56.1178 129.06 56.1017C129.384 56.0929 129.708 56.0821 130.032 56.07C130.168 56.0665 130.304 56.0632 130.44 56.0601C130.5 56.0572 130.56 56.0544 130.621 56.0514C131.084 56.0447 131.412 56.1986 131.789 56.4628C132.11 56.7915 132.257 57.1234 132.259 57.5821C132.26 57.6537 132.261 57.7252 132.261 57.7989C132.261 57.9137 132.261 57.9137 132.261 58.0307C132.262 58.1103 132.262 58.1898 132.262 58.2718C132.263 58.4399 132.263 58.608 132.262 58.776C132.262 59.0321 132.264 59.2881 132.266 59.5441C132.266 59.7077 132.266 59.8714 132.266 60.0351C132.267 60.1111 132.267 60.1872 132.268 60.2655C132.265 60.7706 132.224 61.2305 131.888 61.6346C131.844 61.668 131.801 61.7015 131.756 61.7359C131.713 61.7705 131.67 61.8051 131.625 61.8407C131.322 62.0454 131.112 62.1013 130.742 62.1025C130.605 62.1034 130.605 62.1034 130.465 62.1044C130.364 62.1044 130.262 62.1043 130.161 62.1042C130.054 62.1047 129.947 62.1052 129.84 62.1057C129.55 62.1071 129.26 62.1074 128.97 62.1075C128.789 62.1076 128.607 62.1079 128.426 62.1083C127.793 62.1097 127.159 62.1103 126.526 62.1102C125.937 62.1101 125.347 62.1117 124.757 62.1141C124.251 62.116 123.744 62.1168 123.237 62.1167C122.935 62.1167 122.633 62.1171 122.33 62.1187C122.046 62.1202 121.761 62.1202 121.476 62.1191C121.372 62.1189 121.268 62.1193 121.164 62.1202C120.511 62.1255 119.991 62.1127 119.499 61.6355C119.449 61.5623 119.449 61.5623 119.398 61.4877C119.363 61.4391 119.329 61.3905 119.293 61.3405C119.12 61.0444 119.033 60.7867 119.027 60.4434C119.025 60.3375 119.025 60.3375 119.023 60.2295C119.022 60.1539 119.021 60.0784 119.021 60.0005C119.02 59.8823 119.02 59.8823 119.018 59.7617C119.017 59.5948 119.016 59.428 119.015 59.2611C119.014 59.0083 119.009 58.7557 119.004 58.503C118.989 56.9343 118.989 56.9343 119.501 56.238C119.544 56.1756 119.587 56.1132 119.631 56.0489C119.766 55.859 119.908 55.6761 120.053 55.4934C120.16 55.3564 120.266 55.2195 120.373 55.0825C120.427 55.0134 120.481 54.9442 120.537 54.873C120.798 54.5385 121.056 54.2013 121.313 53.8637C121.363 53.7986 121.413 53.7335 121.464 53.6664C121.826 53.1916 122.176 52.7093 122.522 52.2234C122.832 51.7913 123.159 51.3744 123.495 50.9625C123.69 50.7282 123.69 50.7282 123.847 50.4685C123.805 50.4684 123.764 50.4683 123.721 50.4682C123.286 50.4667 122.85 50.4626 122.415 50.4571C122.253 50.4553 122.091 50.4543 121.929 50.4538C121.695 50.4531 121.461 50.4501 121.227 50.4466C121.156 50.4468 121.084 50.4471 121.01 50.4474C120.438 50.4352 119.913 50.2907 119.505 49.8677C119.055 49.311 119.027 48.7685 119.026 48.0758C119.026 47.9895 119.025 47.9032 119.025 47.8144C119.024 47.6323 119.023 47.4502 119.023 47.2681C119.023 46.9902 119.02 46.7124 119.018 46.4345C119.017 46.2573 119.017 46.0801 119.017 45.9028C119.016 45.8201 119.015 45.7373 119.013 45.6521C119.016 45.1667 119.061 44.8684 119.351 44.4742C119.709 44.143 119.979 44.0064 120.467 44.0036Z" fill="black"/>
<path d="M129.916 46.1227C130.101 48.8482 130.101 48.8482 129.49 49.5506C129.358 49.6925 129.222 49.8274 129.081 49.9595C128.841 50.1914 128.642 50.4555 128.436 50.7167C128.355 50.8165 128.273 50.9161 128.192 51.0156C127.88 51.3987 127.587 51.7947 127.293 52.1919C126.666 53.033 126.037 53.8727 125.384 54.6935C124.354 55.8916 124.354 55.8916 123.997 57.362C124.083 57.6982 124.237 57.8424 124.521 58.0363C124.784 58.124 124.996 58.1233 125.273 58.1266C125.327 58.1274 125.38 58.1281 125.435 58.1289C125.612 58.1312 125.788 58.1331 125.964 58.135C126.087 58.1365 126.209 58.1381 126.331 58.1397C126.653 58.1438 126.975 58.1475 127.297 58.1511C127.625 58.1549 127.954 58.1591 128.282 58.1632C128.927 58.1713 129.571 58.1788 130.216 58.1862C130.216 58.7796 130.216 59.373 130.216 59.9845C127.174 59.9845 124.133 59.9845 120.999 59.9845C120.999 57.2515 120.999 57.2515 121.76 56.4499C121.809 56.4023 121.858 56.3546 121.908 56.3055C122.128 56.0821 122.306 55.8319 122.489 55.5777C122.562 55.4792 122.635 55.3809 122.709 55.2827C122.747 55.2318 122.785 55.1809 122.824 55.1284C123.06 54.8147 123.299 54.5034 123.538 54.1915C123.971 53.6249 124.397 53.0542 124.819 52.4791C125.103 52.0925 125.389 51.7084 125.678 51.3255C126.505 50.3714 126.505 50.3714 126.844 49.2322C126.789 48.8724 126.656 48.6944 126.394 48.4455C126.143 48.3616 125.948 48.3586 125.683 48.3551C125.634 48.3544 125.585 48.3537 125.535 48.3529C125.373 48.3505 125.211 48.3487 125.049 48.3468C124.937 48.3453 124.825 48.3437 124.713 48.3421C124.417 48.338 124.122 48.3343 123.827 48.3306C123.525 48.3269 123.224 48.3227 122.923 48.3186C122.332 48.3105 121.74 48.303 121.149 48.2956C121.149 47.6033 121.149 46.9109 121.149 46.1976C121.838 46.1846 122.526 46.172 123.214 46.1601C123.266 46.1592 123.318 46.1583 123.371 46.1574C125.553 46.1201 127.734 46.1139 129.916 46.1227Z" fill="#AADCE7"/>
<path d="M136.496 38.1801C136.675 38.1784 136.675 38.1784 136.857 38.1766C136.987 38.1764 137.118 38.1762 137.252 38.176C137.391 38.1751 137.53 38.1741 137.669 38.173C138.047 38.1704 138.424 38.1691 138.802 38.1683C139.038 38.1677 139.274 38.1669 139.51 38.166C140.249 38.1633 140.988 38.1614 141.727 38.1606C142.579 38.1597 143.431 38.1562 144.283 38.1505C144.942 38.1462 145.601 38.1442 146.261 38.144C146.654 38.1438 147.048 38.1426 147.441 38.1391C147.811 38.1358 148.182 38.1354 148.552 38.1371C148.752 38.1373 148.952 38.1346 149.151 38.1318C149.834 38.1381 150.273 38.1886 150.793 38.6502C151.581 39.4615 151.679 40.1522 151.685 41.2493C151.686 41.3708 151.688 41.4923 151.689 41.6175C151.691 41.8741 151.692 42.1307 151.692 42.3873C151.694 42.7775 151.7 43.1673 151.707 43.5574C151.708 43.8075 151.709 44.0576 151.71 44.3078C151.712 44.4232 151.715 44.5387 151.718 44.6577C151.711 45.516 151.463 46.0368 150.94 46.7097C150.87 46.7997 150.87 46.7997 150.8 46.8914C150.677 47.0423 150.549 47.1882 150.421 47.3338C150.326 47.4426 150.232 47.5517 150.138 47.6609C150.09 47.7158 150.043 47.7707 149.994 47.8273C149.713 48.1598 149.447 48.5046 149.18 48.8483C148.898 49.2093 148.614 49.5674 148.327 49.9235C147.463 50.9942 146.64 52.0934 145.836 53.2097C145.795 53.2663 145.754 53.3229 145.712 53.3812C145.518 53.6535 145.351 53.9221 145.206 54.223C145.294 54.22 145.382 54.217 145.472 54.214C146.259 54.1876 147.046 54.1632 147.833 54.142C148.261 54.1304 148.688 54.1161 149.116 54.1002C149.295 54.0957 149.475 54.0913 149.655 54.0871C149.733 54.0833 149.812 54.0796 149.893 54.0757C150.504 54.0668 150.937 54.2699 151.434 54.6185C151.857 55.0521 152.051 55.49 152.054 56.0953C152.055 56.1897 152.056 56.2841 152.057 56.3813C152.057 56.5327 152.057 56.5327 152.057 56.6872C152.057 56.7921 152.058 56.8971 152.058 57.0052C152.059 57.227 152.059 57.4487 152.058 57.6705C152.058 58.0083 152.06 58.3461 152.063 58.6839C152.063 58.8998 152.063 59.1157 152.063 59.3317C152.064 59.432 152.065 59.5323 152.066 59.6357C152.062 60.3021 152.008 60.9089 151.564 61.4421C151.507 61.4862 151.45 61.5303 151.391 61.5757C151.334 61.6213 151.277 61.6669 151.218 61.7139C150.818 61.984 150.54 62.0578 150.053 62.0593C149.872 62.0606 149.872 62.0606 149.687 62.0619C149.553 62.0618 149.42 62.0617 149.286 62.0616C149.145 62.0622 149.004 62.0629 148.863 62.0636C148.48 62.0654 148.097 62.0659 147.715 62.066C147.475 62.0661 147.236 62.0665 146.997 62.0671C146.161 62.0689 145.326 62.0697 144.49 62.0695C143.712 62.0694 142.934 62.0715 142.157 62.0746C141.488 62.0772 140.82 62.0783 140.151 62.0782C139.752 62.0781 139.353 62.0787 138.954 62.0808C138.579 62.0827 138.203 62.0827 137.828 62.0813C137.69 62.081 137.553 62.0815 137.416 62.0827C136.554 62.0897 135.867 62.0729 135.219 61.4432C135.153 61.3467 135.153 61.3467 135.085 61.2482C135.04 61.1841 134.994 61.12 134.947 61.054C134.719 60.6634 134.604 60.3233 134.596 59.8703C134.593 59.7307 134.593 59.7307 134.59 59.5882C134.59 59.4885 134.589 59.3888 134.588 59.2861C134.586 59.1301 134.586 59.1301 134.584 58.9709C134.583 58.7508 134.581 58.5307 134.581 58.3106C134.579 57.977 134.572 57.6437 134.566 57.3103C134.545 55.2406 134.545 55.2406 135.221 54.3219C135.278 54.2396 135.334 54.1573 135.393 54.0724C135.572 53.8219 135.759 53.5806 135.95 53.3395C136.091 53.1588 136.231 52.978 136.372 52.7973C136.443 52.7061 136.514 52.6149 136.588 52.521C136.933 52.0796 137.273 51.6346 137.612 51.1893C137.678 51.1034 137.744 51.0175 137.811 50.929C138.288 50.3025 138.75 49.6662 139.207 49.0251C139.617 48.4551 140.047 47.905 140.491 47.3614C140.748 47.0524 140.748 47.0524 140.955 46.7097C140.9 46.7096 140.845 46.7094 140.789 46.7093C140.215 46.7073 139.641 46.702 139.066 46.6946C138.853 46.6924 138.639 46.6909 138.425 46.6904C138.116 46.6895 137.808 46.6854 137.499 46.6808C137.404 46.6812 137.31 46.6815 137.213 46.6819C136.457 46.6658 135.765 46.4752 135.226 45.917C134.633 45.1825 134.597 44.4668 134.595 43.5528C134.594 43.439 134.593 43.3252 134.593 43.2079C134.592 42.9677 134.591 42.7275 134.591 42.4872C134.591 42.1206 134.587 41.754 134.584 41.3874C134.583 41.1535 134.583 40.9197 134.582 40.6859C134.581 40.5767 134.58 40.4675 134.578 40.355C134.582 39.7146 134.641 39.3211 135.023 38.801C135.496 38.364 135.852 38.1837 136.496 38.1801Z" fill="black"/>
<path d="M148.963 40.9758C149.207 44.5718 149.207 44.5718 148.4 45.4987C148.226 45.6858 148.048 45.8638 147.86 46.0381C147.545 46.344 147.282 46.6924 147.01 47.0371C146.903 47.1687 146.795 47.3002 146.688 47.4314C146.277 47.937 145.889 48.4594 145.502 48.9834C144.675 50.0932 143.845 51.2011 142.983 52.284C141.625 53.8648 141.625 53.8648 141.153 55.8047C141.266 56.2483 141.47 56.4387 141.845 56.6945C142.192 56.8102 142.471 56.8092 142.837 56.8136C142.908 56.8146 142.978 56.8156 143.051 56.8166C143.284 56.8197 143.516 56.8222 143.749 56.8246C143.91 56.8266 144.072 56.8287 144.233 56.8308C144.658 56.8363 145.082 56.8412 145.507 56.8459C145.94 56.8509 146.374 56.8564 146.807 56.8619C147.657 56.8725 148.508 56.8825 149.358 56.8922C149.358 57.6751 149.358 58.4581 149.358 59.2648C145.345 59.2648 141.333 59.2648 137.198 59.2648C137.198 55.659 137.198 55.659 138.202 54.6014C138.266 54.5385 138.331 54.4756 138.397 54.4108C138.688 54.1161 138.922 53.7859 139.163 53.4506C139.26 53.3207 139.356 53.1909 139.454 53.0614C139.504 52.9942 139.554 52.9271 139.606 52.8579C139.917 52.444 140.233 52.0332 140.547 51.6217C141.118 50.8741 141.681 50.1211 142.238 49.3624C142.612 48.8523 142.99 48.3455 143.371 47.8404C144.462 46.5816 144.462 46.5816 144.909 45.0785C144.837 44.6037 144.661 44.369 144.316 44.0405C143.984 43.9299 143.728 43.9259 143.378 43.9213C143.313 43.9203 143.249 43.9194 143.182 43.9184C142.969 43.9152 142.755 43.9128 142.542 43.9103C142.394 43.9083 142.246 43.9062 142.097 43.9041C141.708 43.8987 141.318 43.8938 140.929 43.889C140.531 43.884 140.134 43.8785 139.736 43.8731C138.956 43.8624 138.176 43.8525 137.396 43.8428C137.396 42.9293 137.396 42.0158 137.396 41.0747C138.304 41.0576 139.213 41.0409 140.121 41.0253C140.189 41.0241 140.257 41.0229 140.327 41.0217C143.206 40.9725 146.084 40.9642 148.963 40.9758Z" fill="#AADCE7"/>
<path d="M157.24 31.0643C157.478 31.062 157.478 31.062 157.721 31.0597C157.895 31.0594 158.069 31.0592 158.249 31.0589C158.434 31.0576 158.619 31.0563 158.805 31.0549C159.308 31.0514 159.811 31.0497 160.315 31.0486C160.629 31.0478 160.944 31.0467 161.259 31.0455C162.244 31.0419 163.229 31.0394 164.215 31.0384C165.351 31.0372 166.487 31.0325 167.623 31.0249C168.502 31.0192 169.381 31.0165 170.26 31.0162C170.784 31.0159 171.309 31.0144 171.833 31.0097C172.327 31.0053 172.821 31.0047 173.315 31.0071C173.581 31.0074 173.848 31.0037 174.114 31C175.025 31.0083 175.609 31.0757 176.303 31.6911C177.354 32.7729 177.484 33.6938 177.492 35.1566C177.494 35.3186 177.495 35.4807 177.497 35.6476C177.5 35.9897 177.501 36.3318 177.502 36.6739C177.504 37.1942 177.512 37.714 177.522 38.2341C177.523 38.5676 177.524 38.9011 177.525 39.2346C177.529 39.3885 177.532 39.5425 177.536 39.7011C177.526 40.8455 177.196 41.5399 176.498 42.4372C176.406 42.5571 176.406 42.5571 176.312 42.6794C176.149 42.8807 175.978 43.0752 175.806 43.2693C175.68 43.4144 175.555 43.5598 175.429 43.7054C175.366 43.7786 175.303 43.8518 175.238 43.9272C174.863 44.3706 174.508 44.8304 174.151 45.2886C173.777 45.7699 173.398 46.2474 173.014 46.7222C171.863 48.1498 170.765 49.6154 169.694 51.1038C169.639 51.1793 169.585 51.2548 169.528 51.3325C169.269 51.6956 169.047 52.0537 168.853 52.4549C168.971 52.4509 169.088 52.4469 169.209 52.4428C170.258 52.4076 171.307 52.3752 172.356 52.3469C172.926 52.3315 173.496 52.3124 174.067 52.2912C174.306 52.2851 174.546 52.2792 174.785 52.2737C174.89 52.2687 174.995 52.2637 175.103 52.2585C175.918 52.2466 176.494 52.5174 177.158 52.9822C177.721 53.5604 177.98 54.1443 177.985 54.9513C177.986 55.0771 177.987 55.203 177.988 55.3327C177.988 55.5345 177.988 55.5345 177.988 55.7404C177.989 55.8804 177.989 56.0203 177.99 56.1645C177.991 56.4602 177.991 56.7559 177.99 57.0516C177.99 57.502 177.993 57.9523 177.996 58.4027C177.996 58.6906 177.996 58.9785 177.996 59.2664C177.998 59.4002 177.999 59.534 178 59.6718C177.994 60.5603 177.923 61.3695 177.331 62.0803C177.255 62.1391 177.178 62.1979 177.1 62.2585C177.024 62.3193 176.948 62.3801 176.87 62.4428C176.336 62.8029 175.966 62.9013 175.316 62.9033C175.074 62.905 175.074 62.905 174.828 62.9068C174.65 62.9067 174.472 62.9065 174.293 62.9064C174.105 62.9072 173.917 62.9081 173.729 62.9091C173.219 62.9114 172.709 62.912 172.198 62.9122C171.879 62.9124 171.56 62.9129 171.241 62.9136C170.127 62.9161 169.013 62.9172 167.899 62.9169C166.862 62.9168 165.825 62.9196 164.788 62.9237C163.896 62.9272 163.005 62.9286 162.114 62.9284C161.582 62.9284 161.05 62.9291 160.518 62.9319C160.017 62.9345 159.516 62.9345 159.016 62.9326C158.833 62.9323 158.649 62.9329 158.466 62.9345C157.318 62.9439 156.402 62.9214 155.537 62.0819C155.449 61.9531 155.449 61.9531 155.359 61.8218C155.298 61.7364 155.237 61.6509 155.175 61.5628C154.87 61.0421 154.717 60.5886 154.707 59.9847C154.703 59.7984 154.703 59.7984 154.699 59.6084C154.698 59.4755 154.697 59.3426 154.696 59.2057C154.694 58.9977 154.694 58.9977 154.691 58.7854C154.689 58.4919 154.687 58.1985 154.686 57.905C154.684 57.4602 154.675 57.0159 154.667 56.5712C154.639 53.8117 154.639 53.8117 155.54 52.5867C155.616 52.477 155.691 52.3672 155.769 52.2541C156.008 51.9201 156.257 51.5983 156.512 51.2768C156.7 51.0359 156.887 50.7949 157.074 50.5539C157.169 50.4324 157.265 50.3108 157.363 50.1855C157.822 49.5971 158.276 49.0037 158.729 48.4099C158.816 48.2954 158.904 48.1809 158.994 48.0629C159.63 47.2275 160.246 46.3791 160.855 45.5244C161.401 44.7643 161.975 44.0308 162.567 43.3061C162.91 42.8941 162.91 42.8941 163.185 42.4372C163.112 42.437 163.039 42.4368 162.964 42.4366C162.198 42.434 161.433 42.4268 160.667 42.4171C160.382 42.414 160.097 42.4121 159.812 42.4114C159.4 42.4102 158.989 42.4048 158.577 42.3986C158.451 42.3991 158.326 42.3996 158.196 42.4001C157.188 42.3786 156.266 42.1244 155.547 41.3802C154.755 40.4009 154.708 39.4467 154.705 38.2279C154.704 38.0762 154.703 37.9244 154.703 37.7681C154.701 37.4478 154.701 37.1275 154.701 36.8072C154.7 36.3183 154.695 35.8296 154.69 35.3407C154.689 35.0289 154.689 34.7172 154.689 34.4054C154.687 34.2598 154.685 34.1143 154.683 33.9643C154.688 33.1104 154.766 32.5857 155.277 31.8922C155.907 31.3095 156.382 31.0692 157.24 31.0643Z" fill="black"/>
<path d="M173.862 34.7921C174.188 39.5867 174.188 39.5867 173.112 40.8225C172.88 41.072 172.642 41.3094 172.393 41.5417C171.972 41.9496 171.621 42.4142 171.259 42.8738C171.116 43.0493 170.973 43.2245 170.829 43.3995C170.281 44.0736 169.765 44.7702 169.249 45.4689C168.146 46.9486 167.039 48.4258 165.889 49.8697C164.079 51.9774 164.079 51.9774 163.449 54.5639C163.6 55.1554 163.872 55.4092 164.372 55.7502C164.835 55.9045 165.207 55.9032 165.695 55.9091C165.789 55.9104 165.883 55.9117 165.98 55.9131C166.29 55.9172 166.6 55.9205 166.911 55.9238C167.126 55.9265 167.341 55.9292 167.556 55.9321C168.122 55.9393 168.689 55.9459 169.255 55.9522C169.833 55.9588 170.41 55.9662 170.988 55.9734C172.122 55.9876 173.256 56.0009 174.389 56.0139C174.389 57.0578 174.389 58.1018 174.389 59.1774C169.039 59.1774 163.689 59.1774 158.177 59.1774C158.177 54.3696 158.177 54.3696 159.514 52.9595C159.6 52.8757 159.686 52.7918 159.775 52.7054C160.162 52.3124 160.475 51.8722 160.796 51.4252C160.925 51.2519 161.054 51.0789 161.183 50.9061C161.25 50.8166 161.317 50.7271 161.386 50.6348C161.801 50.0829 162.222 49.5352 162.642 48.9866C163.403 47.9898 164.154 46.9858 164.896 45.9741C165.395 45.294 165.899 44.6183 166.407 43.9448C167.861 42.2664 167.861 42.2664 168.458 40.2623C168.362 39.6293 168.127 39.3163 167.667 38.8783C167.225 38.7308 166.882 38.7255 166.416 38.7194C166.33 38.7181 166.244 38.7168 166.155 38.7154C165.87 38.7113 165.586 38.708 165.301 38.7048C165.104 38.702 164.906 38.6993 164.709 38.6965C164.189 38.6892 163.67 38.6827 163.15 38.6763C162.62 38.6697 162.09 38.6623 161.56 38.6551C160.52 38.6409 159.48 38.6276 158.44 38.6146C158.44 37.3967 158.44 36.1788 158.44 34.9239C159.651 34.9011 160.862 34.8789 162.073 34.858C162.164 34.8564 162.255 34.8549 162.349 34.8533C166.187 34.7876 170.023 34.7766 173.862 34.7921Z" fill="#AADCE7"/>
<path d="M84.9029 0.97271C85.3844 1.40218 85.6618 1.87898 85.8218 2.47476C85.8218 2.53484 85.8218 2.59492 85.8218 2.65682C85.8816 2.65917 85.8816 2.65917 85.9427 2.66157C91.3317 2.96926 96.7731 5.33181 100.353 9.01303C100.503 9.17776 100.647 9.34527 100.79 9.51466C100.859 9.59424 100.927 9.67382 100.996 9.75339C104.793 14.1955 106.108 19.9452 106.528 29.0754C106.529 29.1409 106.529 29.2065 106.529 29.274C106.53 29.4604 106.53 29.6469 106.529 29.8333C106.53 29.9154 106.53 29.9154 106.53 29.999C106.528 30.3052 106.487 30.5762 106.407 30.8731C106.366 31.0573 106.376 31.2262 106.394 31.4129C106.401 31.4916 106.408 31.5702 106.416 31.6513C106.458 32.0294 106.508 32.4066 106.559 32.7837C106.843 34.8585 106.995 36.9163 106.998 39.0072C106.998 39.1329 106.999 39.2586 106.999 39.3843C107.004 41.5948 107.004 41.5948 106.703 42.6583C106.689 42.7084 106.675 42.7585 106.66 42.8101C106.315 43.9639 105.583 44.997 104.435 45.6032C103.052 46.2146 101.599 46.0158 100.183 45.6359C100.133 45.6223 100.082 45.6087 100.03 45.5947C99.1699 45.3529 98.3522 45.0114 97.5382 44.6654C97.2699 44.5515 97.0011 44.4386 96.7323 44.3256C96.6772 44.3025 96.6221 44.2793 96.5653 44.2554C95.0439 43.6165 93.5213 42.9817 91.9423 42.4687C91.8625 42.4428 91.8625 42.4428 91.7812 42.4163C91.0654 42.1881 90.332 42.019 89.5972 41.8504C89.5304 41.8351 89.5304 41.8351 89.4622 41.8194C88.4829 41.5955 87.4972 41.4217 86.4996 41.2815C86.4532 41.2749 86.4069 41.2684 86.3592 41.2616C85.65 41.1615 84.9408 41.0652 84.2252 41.0122C84.1262 41.0045 84.1262 41.0045 84.0252 40.9966C81.0952 40.7915 78.122 40.9616 75.244 41.4977C75.1602 41.5132 75.0764 41.5288 74.9901 41.5448C72.6108 41.9923 70.3488 42.7123 68.1256 43.599C67.977 43.6578 67.8284 43.7166 67.6798 43.7754C66.8831 44.0912 66.0899 44.4134 65.3008 44.7445C63.331 45.5708 61.0462 46.4434 58.8783 45.7459C58.5936 45.625 58.3367 45.4857 58.08 45.3211C58.0325 45.2907 57.985 45.2604 57.936 45.2291C56.7963 44.409 56.3159 43.0238 56.1265 41.7611C56.1071 41.599 56.0906 41.4369 56.0759 41.2744C56.0703 41.2145 56.0648 41.1546 56.0591 41.0929C56.0015 40.415 55.9972 39.7383 56.001 39.0587C56.0012 38.9932 56.0014 38.9277 56.0016 38.8602C56.0055 37.6726 56.05 36.4914 56.1507 35.3074C56.1542 35.2652 56.1578 35.223 56.1614 35.1795C56.2505 34.1264 56.3721 33.0791 56.5319 32.033C56.6483 31.3899 56.6483 31.3899 56.5499 30.7557C56.5429 30.6198 56.54 30.4836 56.5391 30.3475C56.5388 30.3061 56.5385 30.2646 56.5382 30.2219C56.5372 30.0837 56.5367 29.9456 56.5363 29.8075C56.5359 29.7101 56.5354 29.6127 56.5349 29.5153C56.5336 29.2005 56.5333 28.8857 56.5332 28.571C56.5332 28.5176 56.5332 28.4642 56.5331 28.4092C56.5327 26.8074 56.5489 25.214 56.7326 23.6194C56.7502 23.4666 56.7671 23.3138 56.784 23.161C57.3484 18.1406 58.8787 13.0126 62.6038 9.15053C62.6545 9.0965 62.6545 9.0965 62.7063 9.04137C63.4946 8.20585 64.3589 7.43771 65.3314 6.78366C65.4015 6.73353 65.4713 6.68311 65.5409 6.63242C68.5814 4.42392 73.2888 2.59738 77.2398 2.65682C77.2426 2.58172 77.2453 2.50662 77.2481 2.42924C77.3321 1.77083 77.753 1.24549 78.3042 0.83616C80.1675 -0.393254 83.0844 -0.198306 84.9029 0.97271Z" fill="black"/>
<path d="M81.3562 27.8276C81.4001 27.8275 81.4441 27.8275 81.4894 27.8274C84.088 27.8253 86.6942 27.918 89.2766 28.1924C89.4301 28.2085 89.5837 28.2241 89.7374 28.2396C91.234 28.3908 92.7242 28.5574 94.2042 28.8138C94.2577 28.823 94.3111 28.8322 94.3662 28.8417C96.0411 29.1322 97.6912 29.4667 99.3268 29.9062C99.44 29.936 99.44 29.936 99.5555 29.9665C100.742 30.2805 101.9 30.6567 103.052 31.0592C103.121 31.0831 103.19 31.1069 103.261 31.1315C103.442 31.1945 103.621 31.2592 103.801 31.3248C103.878 31.3518 103.878 31.3518 103.957 31.3794C104.296 31.5075 104.296 31.5075 104.393 31.6849C104.447 31.8411 104.478 31.9829 104.499 32.1452C104.51 32.2319 104.51 32.2319 104.522 32.3203C104.533 32.4137 104.533 32.4137 104.545 32.5089C104.553 32.5742 104.562 32.6395 104.57 32.7068C104.597 32.9199 104.623 33.1332 104.649 33.3465C104.662 33.4565 104.662 33.4565 104.676 33.5688C104.895 35.3868 104.993 37.1786 104.998 39.0067C104.998 39.1368 104.999 39.267 104.999 39.3972C105.011 42.6009 105.011 42.6009 103.98 43.6673C103.557 44.0235 103.044 44.1843 102.474 44.2022C101.915 44.1809 101.392 44.0679 100.857 43.9253C100.81 43.9129 100.763 43.9005 100.714 43.8877C99.657 43.5998 98.6668 43.1505 97.6686 42.7277C93.9954 41.1745 90.3165 39.9707 86.2958 39.4229C86.2284 39.4135 86.161 39.4041 86.0916 39.3944C84.6358 39.2068 83.1653 39.1666 81.6971 39.1688C81.6141 39.1688 81.531 39.1689 81.4454 39.1689C77.0149 39.1769 72.7723 39.9357 68.6578 41.437C68.6159 41.4523 68.5739 41.4676 68.5307 41.4834C67.4468 41.8801 66.3864 42.3098 65.3377 42.7784C61.5069 44.4875 61.5069 44.4875 59.8549 44.1187C59.2371 43.9153 58.8718 43.5525 58.5623 43.0339C57.961 41.8335 57.9913 40.5365 57.9961 39.2447C57.997 39.0013 57.9961 38.758 57.9953 38.5146C57.9946 37.4199 58.0507 36.3378 58.1465 35.2468C58.1509 35.1947 58.1554 35.1426 58.16 35.0889C58.1937 34.6953 58.2342 34.3027 58.2809 33.9102C58.3194 33.5847 58.3501 33.2633 58.3551 32.9361C58.3762 31.754 58.3762 31.754 58.7572 31.4161C59.1637 31.1786 59.6139 31.0628 60.076 30.947C60.3581 30.8754 60.6312 30.7855 60.9056 30.6925C61.4685 30.5025 62.0348 30.3232 62.6038 30.1489C62.6731 30.1276 62.7425 30.1064 62.8139 30.0845C64.794 29.486 66.8538 29.1055 68.9055 28.7774C69.0547 28.7534 69.2038 28.729 69.3529 28.7045C71.5787 28.3399 73.8267 28.1437 76.0797 27.9793C76.1276 27.9757 76.1754 27.9721 76.2246 27.9684C77.9296 27.8422 79.6465 27.8285 81.3562 27.8276Z" fill="#AADCE7"/>
<path d="M86.2417 4.47355C86.315 4.48331 86.315 4.48331 86.3898 4.49327C90.4378 5.0426 94.4809 6.4101 97.4921 9.00317C97.6415 9.13138 97.7939 9.25342 97.9505 9.37417C98.1674 9.54595 98.3546 9.73114 98.5399 9.93104C98.6693 10.069 98.8045 10.201 98.9401 10.3338C101.486 12.9235 102.889 16.3485 103.651 19.7102C103.676 19.816 103.701 19.9217 103.726 20.0274C104.451 23.1813 104.636 26.5093 104.582 29.7239C104.195 29.61 103.816 29.4839 103.438 29.3471C98.2923 27.493 92.8613 26.7129 86.6854 26.2346C86.5804 26.2272 86.4755 26.2196 86.3707 26.2117C85.0805 26.1164 83.7906 26.1121 82.4954 26.0826C82.4954 19.0129 82.4954 11.9433 82.4954 4.65941C82.8028 4.63938 83.1101 4.61936 83.4268 4.59872C83.6372 4.56129 83.8398 4.52261 84.0463 4.47355C84.7984 4.29604 85.4798 4.37173 86.2417 4.47355Z" fill="#AADCE7"/>
<path d="M78.9072 4.4357C79.4275 4.5706 79.9661 4.63906 80.4996 4.72018C80.4996 11.7698 80.4996 18.8194 80.4996 26.0826C79.4898 26.1027 78.4799 26.1227 77.4394 26.1433C76.8668 26.1715 76.2973 26.2017 75.7263 26.2457C75.6217 26.2534 75.6217 26.2534 75.5149 26.2613C69.9175 26.6739 64.0638 27.4136 58.8945 29.5223C58.6787 29.6026 58.6787 29.6026 58.4792 29.6026C58.4324 26.9682 58.4909 24.3246 58.9764 21.7207C59.0135 21.5192 59.0474 21.3174 59.081 21.1154C59.7068 17.4676 61.0534 13.7234 63.6683 10.8497C63.7276 10.7832 63.787 10.7165 63.8463 10.6499C64.4355 9.99487 65.0861 9.39234 65.7971 8.84702C65.8604 8.79671 65.9237 8.74641 65.9889 8.69458C68.8538 6.42703 74.978 3.38729 78.9072 4.4357Z" fill="#AADCE7"/>
<path d="M83.3437 2.31154C83.5252 2.50927 83.549 2.64489 83.5599 2.89946C82.7562 3.44986 81.6538 3.40283 80.691 3.31077C80.1995 3.24434 79.7828 3.08573 79.3687 2.83878C79.4124 2.53712 79.517 2.4374 79.77 2.25346C80.6807 1.68144 82.4472 1.73584 83.3437 2.31154Z" fill="#AADCE7"/>
</svg>
