<svg width="350" height="350" viewBox="0 0 350 350" fill="none" xmlns="http://www.w3.org/2000/svg">
<path d="M196.148 95.7309C196.346 95.7649 196.544 95.7989 196.748 95.834C204.495 97.2008 212.119 99.6338 219.429 102.512C219.578 102.376 219.578 102.376 219.729 102.237C220.557 101.499 221.297 100.947 222.339 100.534C222.66 100.403 222.66 100.403 222.988 100.269C224.814 99.6648 226.507 99.4924 228.428 99.5028C228.801 99.5047 228.801 99.5047 229.181 99.5067C243.252 99.7125 256.356 107.507 265.958 117.352C266.76 118.192 267.502 119.073 268.221 119.985C268.738 120.637 269.278 121.264 269.82 121.894C277.287 130.852 282.492 143.219 281.588 154.951C281.159 158.882 279.261 162.808 276.255 165.403C272.751 168.076 268.733 169.241 264.353 169.219C264.176 169.22 263.999 169.221 263.817 169.222C262.423 169.22 261.049 169.109 259.663 168.965C259.719 169.124 259.774 169.283 259.832 169.447C261.049 172.94 262.152 176.4 262.827 180.041C262.864 180.228 262.901 180.414 262.939 180.607C264.156 187.027 263.996 194.238 262.601 200.61C262.538 200.91 262.538 200.91 262.473 201.217C261.56 205.457 260.127 209.446 258.081 213.267C257.975 213.479 257.869 213.69 257.76 213.908C255.238 218.834 251.345 223.218 247.005 226.603C246.82 226.748 246.82 226.748 246.632 226.896C242.463 230.134 237.721 232.693 232.765 234.514C232.908 234.613 233.051 234.713 233.198 234.815C237.106 237.585 240.705 240.87 243.615 244.686C243.712 244.812 243.809 244.938 243.908 245.068C245.915 247.69 247.599 250.443 249.167 253.346C249.245 253.491 249.323 253.635 249.404 253.785C249.944 254.802 249.944 254.802 249.944 255.309C250.093 255.309 250.242 255.309 250.396 255.309C250.435 255.043 250.435 255.043 250.474 254.771C250.588 254.14 250.72 253.531 250.875 252.91C250.923 252.716 250.972 252.523 251.021 252.323C251.12 251.93 251.22 251.538 251.321 251.145C252.214 247.533 252.253 244.042 252.143 240.349C252.127 239.758 252.118 239.167 252.109 238.576C252.099 238.31 252.099 238.31 252.087 238.039C252.075 236.687 252.48 235.787 253.334 234.74C254.523 233.812 255.962 233.903 257.403 234.062C260.435 234.793 262.699 236.665 264.862 238.809C265.061 239.005 265.26 239.201 265.465 239.403C268.417 242.475 270.043 246.211 271.148 250.28C271.195 250.451 271.242 250.622 271.29 250.798C272.406 255.145 272.441 260.72 271.191 265.029C271.11 265.338 271.03 265.647 270.95 265.956C269.442 271.594 266.447 276.86 262.149 280.851C261.963 281.037 261.776 281.224 261.584 281.416C261.398 281.602 261.211 281.789 261.019 281.981C260.907 282.098 260.794 282.215 260.678 282.335C259.751 283.288 258.783 284.117 257.713 284.905C257.556 285.022 257.398 285.139 257.235 285.26C251.324 289.59 244.516 292.211 237.286 293.283C236.931 293.346 236.931 293.346 236.57 293.412C235.306 293.553 234.05 293.532 232.779 293.523C232.517 293.522 232.255 293.521 231.984 293.52C231.34 293.517 230.697 293.513 230.053 293.509C230.068 293.703 230.084 293.898 230.1 294.099C230.276 296.47 230.323 298.83 230.333 301.207C230.334 301.406 230.335 301.606 230.335 301.811C230.34 302.865 230.343 303.918 230.346 304.972C230.348 306.048 230.356 307.124 230.365 308.2C230.371 309.039 230.373 309.878 230.373 310.718C230.374 311.114 230.377 311.51 230.381 311.907C230.426 316.321 229.678 320.194 226.527 323.507C223.692 326.2 220.22 327.146 216.491 327.866C216.322 327.905 216.153 327.945 215.979 327.986C215.19 328.121 214.412 328.133 213.613 328.137C213.361 328.14 213.361 328.14 213.104 328.142C206.809 328.188 200.612 327.942 195.719 323.404C192.616 320.065 191.772 315.324 191.853 310.913C191.588 310.978 191.322 311.044 191.048 311.111C187.614 311.871 184.072 312.075 180.564 312.089C180.294 312.091 180.023 312.092 179.744 312.094C178.874 312.098 178.003 312.099 177.133 312.1C176.836 312.1 176.539 312.101 176.233 312.101C171.532 312.103 166.912 311.923 162.243 311.365C161.89 311.324 161.536 311.283 161.182 311.241C160.255 311.133 159.328 311.024 158.401 310.913C158.403 311.156 158.406 311.398 158.408 311.648C158.372 315.868 156.887 320.211 153.972 323.281C149.691 327.34 143.81 328.144 138.171 328.148C137.999 328.148 137.827 328.148 137.65 328.149C132.327 328.141 126.997 327.261 122.979 323.454C119.864 320.078 119.451 315.95 119.463 311.569C119.463 311.193 119.462 310.817 119.461 310.441C119.46 309.443 119.462 308.445 119.465 307.447C119.467 306.828 119.468 306.209 119.469 305.59C119.478 299.67 119.537 293.764 119.975 287.858C119.988 287.678 120.002 287.498 120.015 287.312C120.294 283.49 120.639 279.682 121.105 275.878C120.858 275.963 120.611 276.047 120.357 276.134C120.209 276.185 120.062 276.235 119.91 276.287C119.605 276.391 119.301 276.496 118.996 276.602C118.795 276.67 118.795 276.67 118.589 276.739C118.454 276.785 118.319 276.831 118.18 276.879C114.687 277.851 109.99 277.72 106.639 276.33C106.439 276.262 106.238 276.195 106.031 276.125C103.022 275.063 100.376 272.815 98.9543 269.959C97.3111 266.503 97.2324 262.033 98.4157 258.388C98.5189 258.118 98.622 257.848 98.7283 257.57C98.8193 257.325 98.8193 257.325 98.9122 257.075C100.341 253.283 102.302 249.883 104.831 246.72C104.986 246.522 105.14 246.324 105.299 246.121C108.099 242.603 111.293 239.539 114.748 236.676C114.91 236.542 115.071 236.408 115.237 236.271C115.928 235.705 116.613 235.16 117.364 234.676C117.959 234.345 117.959 234.345 118.167 233.836C118.005 233.808 117.843 233.78 117.676 233.752C111.928 232.48 106.04 228.631 101.667 224.795C101.472 224.625 101.278 224.456 101.078 224.281C100.514 223.781 99.9584 223.274 99.4064 222.761C99.2561 222.623 99.1057 222.485 98.9508 222.342C91.193 214.931 86.9686 203.402 86.6832 192.82C86.6652 191.819 86.6617 190.818 86.6639 189.817C86.664 189.605 86.6641 189.393 86.6642 189.175C86.6824 182.329 87.4802 174.735 90.5912 168.513C90.3097 168.586 90.0282 168.659 89.7382 168.734C85.2104 169.734 80.5155 168.866 76.5557 166.53C72.7686 164.09 70.5697 160.115 69.5631 155.811C67.3815 145.453 71.8647 134.03 77.4081 125.458C77.9439 124.654 78.497 123.864 79.0635 123.081C79.1593 122.948 79.255 122.816 79.3536 122.679C82.3198 118.616 85.738 114.897 89.687 111.779C90.0922 111.44 90.4972 111.101 90.902 110.762C93.2766 108.825 95.8418 107.188 98.5023 105.676C98.6649 105.584 98.8274 105.491 98.995 105.396C103.192 103.038 107.621 101.406 112.29 100.252C112.451 100.211 112.611 100.17 112.777 100.129C115.191 99.5474 117.618 99.5103 120.088 99.5028C120.245 99.5019 120.401 99.5011 120.563 99.5002C124.164 99.4903 128.005 100.027 130.825 102.512C130.825 102.661 130.825 102.81 130.825 102.964C131.043 102.865 131.261 102.766 131.486 102.664C139.287 99.2128 147.525 96.9506 155.914 95.5049C156.128 95.4676 156.343 95.4303 156.563 95.392C169.477 93.2282 183.269 93.5085 196.148 95.7309Z" fill="#F2D3A3"/>
<path d="M196.148 95.7309C196.346 95.7649 196.544 95.7989 196.748 95.834C204.495 97.2008 212.119 99.6338 219.429 102.512C219.578 102.376 219.578 102.376 219.729 102.237C220.557 101.499 221.297 100.947 222.339 100.534C222.66 100.403 222.66 100.403 222.988 100.269C224.814 99.6648 226.507 99.4924 228.428 99.5028C228.801 99.5047 228.801 99.5047 229.181 99.5067C243.252 99.7125 256.356 107.507 265.958 117.352C266.76 118.192 267.502 119.073 268.221 119.985C268.738 120.637 269.278 121.264 269.82 121.894C277.287 130.852 282.492 143.219 281.588 154.951C281.159 158.882 279.261 162.808 276.255 165.403C272.751 168.076 268.733 169.241 264.353 169.219C264.176 169.22 263.999 169.221 263.817 169.222C262.423 169.22 261.049 169.109 259.663 168.965C259.719 169.124 259.774 169.283 259.832 169.447C261.049 172.94 262.152 176.4 262.827 180.041C262.864 180.228 262.901 180.414 262.939 180.607C264.156 187.027 263.996 194.238 262.601 200.61C262.538 200.91 262.538 200.91 262.473 201.217C261.56 205.457 260.127 209.446 258.081 213.267C257.975 213.479 257.869 213.69 257.76 213.908C255.238 218.834 251.345 223.218 247.005 226.603C246.82 226.748 246.82 226.748 246.632 226.896C242.463 230.134 237.721 232.693 232.765 234.514C232.908 234.613 233.051 234.713 233.198 234.815C237.106 237.585 240.705 240.87 243.615 244.686C243.712 244.812 243.809 244.938 243.908 245.068C245.915 247.69 247.599 250.443 249.167 253.346C249.245 253.491 249.323 253.635 249.404 253.785C249.944 254.802 249.944 254.802 249.944 255.309C250.093 255.309 250.242 255.309 250.396 255.309C250.435 255.043 250.435 255.043 250.474 254.771C250.588 254.14 250.72 253.531 250.875 252.91C250.923 252.716 250.972 252.523 251.021 252.323C251.12 251.93 251.22 251.538 251.321 251.145C252.214 247.533 252.253 244.042 252.143 240.349C252.127 239.758 252.118 239.167 252.109 238.576C252.099 238.31 252.099 238.31 252.087 238.039C252.075 236.687 252.48 235.787 253.334 234.74C254.523 233.812 255.962 233.903 257.403 234.062C260.435 234.793 262.699 236.665 264.862 238.809C265.061 239.005 265.26 239.201 265.465 239.403C268.417 242.475 270.043 246.211 271.148 250.28C271.195 250.451 271.242 250.622 271.29 250.798C272.406 255.145 272.441 260.72 271.191 265.029C271.11 265.338 271.03 265.647 270.95 265.956C269.442 271.594 266.447 276.86 262.149 280.851C261.963 281.037 261.776 281.224 261.584 281.416C261.398 281.602 261.211 281.789 261.019 281.981C260.907 282.098 260.794 282.215 260.678 282.335C259.751 283.288 258.783 284.117 257.713 284.905C257.556 285.022 257.398 285.139 257.235 285.26C251.324 289.59 244.516 292.211 237.286 293.283C236.931 293.346 236.931 293.346 236.57 293.412C235.306 293.553 234.05 293.532 232.779 293.523C232.517 293.522 232.255 293.521 231.984 293.52C231.34 293.517 230.697 293.513 230.053 293.509C230.068 293.703 230.084 293.898 230.1 294.099C230.276 296.47 230.323 298.83 230.333 301.207C230.334 301.406 230.335 301.606 230.335 301.811C230.34 302.865 230.343 303.918 230.346 304.972C230.348 306.048 230.356 307.124 230.365 308.2C230.371 309.039 230.373 309.878 230.373 310.718C230.374 311.114 230.377 311.51 230.381 311.907C230.426 316.321 229.678 320.194 226.527 323.507C223.692 326.2 220.22 327.146 216.491 327.866C216.322 327.905 216.153 327.945 215.979 327.986C215.19 328.121 214.412 328.133 213.613 328.137C213.361 328.14 213.361 328.14 213.104 328.142C206.809 328.188 200.612 327.942 195.719 323.404C192.616 320.065 191.772 315.324 191.853 310.913C191.588 310.978 191.322 311.044 191.048 311.111C187.614 311.871 184.072 312.075 180.564 312.089C180.294 312.091 180.023 312.092 179.744 312.094C178.874 312.098 178.003 312.099 177.133 312.1C176.836 312.1 176.539 312.101 176.233 312.101C171.532 312.103 166.912 311.923 162.243 311.365C161.89 311.324 161.536 311.283 161.182 311.241C160.255 311.133 159.328 311.024 158.401 310.913C158.403 311.156 158.406 311.398 158.408 311.648C158.372 315.868 156.887 320.211 153.972 323.281C149.691 327.34 143.81 328.144 138.171 328.148C137.999 328.148 137.827 328.148 137.65 328.149C132.327 328.141 126.997 327.261 122.979 323.454C119.864 320.078 119.451 315.95 119.463 311.569C119.463 311.193 119.462 310.817 119.461 310.441C119.46 309.443 119.462 308.445 119.465 307.447C119.467 306.828 119.468 306.209 119.469 305.59C119.478 299.67 119.537 293.764 119.975 287.858C119.988 287.678 120.002 287.498 120.015 287.312C120.294 283.49 120.639 279.682 121.105 275.878C120.858 275.963 120.611 276.047 120.357 276.134C120.209 276.185 120.062 276.235 119.91 276.287C119.605 276.391 119.301 276.496 118.996 276.602C118.795 276.67 118.795 276.67 118.589 276.739C118.454 276.785 118.319 276.831 118.18 276.879C114.687 277.851 109.99 277.72 106.639 276.33C106.439 276.262 106.238 276.195 106.031 276.125C103.022 275.063 100.376 272.815 98.9543 269.959C97.3111 266.503 97.2324 262.033 98.4157 258.388C98.5189 258.118 98.622 257.848 98.7283 257.57C98.8193 257.325 98.8193 257.325 98.9122 257.075C100.341 253.283 102.302 249.883 104.831 246.72C104.986 246.522 105.14 246.324 105.299 246.121C108.099 242.603 111.293 239.539 114.748 236.676C114.91 236.542 115.071 236.408 115.237 236.271C115.928 235.705 116.613 235.16 117.364 234.676C117.959 234.345 117.959 234.345 118.167 233.836C118.005 233.808 117.843 233.78 117.676 233.752C111.928 232.48 106.04 228.631 101.667 224.795C101.472 224.625 101.278 224.456 101.078 224.281C100.514 223.781 99.9584 223.274 99.4064 222.761C99.2561 222.623 99.1057 222.485 98.9508 222.342C91.193 214.931 86.9686 203.402 86.6832 192.82C86.6652 191.819 86.6617 190.818 86.6639 189.817C86.664 189.605 86.6641 189.393 86.6642 189.175C86.6824 182.329 87.4802 174.735 90.5912 168.513C90.3097 168.586 90.0282 168.659 89.7382 168.734C85.2104 169.734 80.5155 168.866 76.5557 166.53C72.7686 164.09 70.5697 160.115 69.5631 155.811C67.3815 145.453 71.8647 134.03 77.4081 125.458C77.9439 124.654 78.497 123.864 79.0635 123.081C79.1593 122.948 79.255 122.816 79.3536 122.679C82.3198 118.616 85.738 114.897 89.687 111.779C90.0922 111.44 90.4972 111.101 90.902 110.762C93.2766 108.825 95.8418 107.188 98.5023 105.676C98.6649 105.584 98.8274 105.491 98.995 105.396C103.192 103.038 107.621 101.406 112.29 100.252C112.451 100.211 112.611 100.17 112.777 100.129C115.191 99.5474 117.618 99.5103 120.088 99.5028C120.245 99.5019 120.401 99.5011 120.563 99.5002C124.164 99.4903 128.005 100.027 130.825 102.512C130.825 102.661 130.825 102.81 130.825 102.964C131.043 102.865 131.261 102.766 131.486 102.664C139.287 99.2128 147.525 96.9506 155.914 95.5049C156.128 95.4676 156.343 95.4303 156.563 95.392C169.477 93.2282 183.269 93.5085 196.148 95.7309ZM159.531 100.704C159.173 100.746 159.173 100.746 158.808 100.789C151.13 101.703 143.69 103.582 136.476 106.354C136.27 106.433 136.064 106.511 135.851 106.592C135.327 106.794 134.806 107.002 134.286 107.216C134.01 107.329 133.734 107.443 133.45 107.56C132.823 107.878 132.823 107.878 132.654 108.458C132.631 109.136 132.646 109.802 132.675 110.479C132.746 114.483 131.765 118.592 130.599 122.403C130.531 122.624 130.463 122.846 130.393 123.075C127.004 133.983 122.068 145.304 114.147 153.738C113.718 154.197 113.314 154.666 112.912 155.149C109.501 159.033 104.417 163.532 99.4594 165.207C98.2646 165.622 97.5739 165.92 96.9042 167.025C96.5247 167.886 96.2445 168.773 95.9795 169.676C95.7726 170.38 95.5495 171.079 95.3255 171.778C94.4149 174.676 93.6428 177.58 93.1702 180.583C93.1042 181.001 93.0326 181.419 92.957 181.836C92.5778 184.107 92.5489 186.349 92.5541 188.647C92.5548 189.301 92.5495 189.955 92.5438 190.609C92.5306 194.442 92.8347 198.311 93.911 202.008C93.9683 202.211 94.0256 202.413 94.0846 202.622C97.0085 212.57 103.623 220.455 112.669 225.418C117.598 228.053 122.762 230.025 128.276 231.008C128.477 231.044 128.678 231.08 128.885 231.118C129.067 231.149 129.249 231.18 129.436 231.211C130.185 231.426 130.577 231.884 131.051 232.48C131.125 232.555 131.2 232.629 131.277 232.706C131.374 233.538 131.298 234.015 130.952 234.783C130.169 235.643 129.445 235.82 128.338 236.097C119.027 238.48 111.481 246.423 106.62 254.447C104.456 258.105 102.708 261.916 103.329 266.27C103.803 268.058 105.103 269.461 106.642 270.43C110.004 272.163 114.166 272.482 117.8 271.343C119.466 270.68 121.266 269.797 122.462 268.419C122.649 267.959 122.649 267.959 122.763 267.439C122.812 267.241 122.861 267.043 122.911 266.839C122.962 266.624 123.013 266.409 123.066 266.188C123.149 265.852 123.149 265.852 123.234 265.509C123.412 264.789 123.587 264.068 123.761 263.348C124.421 260.623 125.085 257.913 125.997 255.259C126.059 255.074 126.122 254.89 126.186 254.699C126.582 253.59 126.999 252.476 128.112 251.919C129.036 251.803 129.97 251.711 130.815 252.148C131.411 252.63 131.711 252.996 131.955 253.727C132.013 254.84 131.884 255.743 131.566 256.808C131.481 257.097 131.396 257.386 131.312 257.676C131.267 257.826 131.222 257.977 131.176 258.132C130.077 261.83 129.167 265.555 128.338 269.323C128.271 269.625 128.271 269.625 128.202 269.933C126.828 276.109 126.139 282.416 125.664 288.718C125.635 289.101 125.604 289.483 125.572 289.866C125.427 291.649 125.334 293.429 125.276 295.216C125.267 295.506 125.258 295.796 125.248 296.094C125.146 299.414 125.124 302.735 125.12 306.056C125.118 306.936 125.113 307.816 125.107 308.695C125.102 309.388 125.101 310.08 125.101 310.772C125.1 311.097 125.098 311.421 125.095 311.746C125.071 314.583 125.263 317.288 127.208 319.502C129.998 322.134 133.811 322.56 137.479 322.517C137.959 322.511 138.439 322.512 138.919 322.514C142.939 322.505 147.28 322.034 150.264 319.05C152.299 316.378 152.651 313.239 152.764 309.995C152.781 309.528 152.799 309.061 152.822 308.594C152.841 308.176 152.857 307.758 152.872 307.34C152.985 306.553 153.18 306.121 153.654 305.488C155.628 304.172 159.646 305.239 161.918 305.474C166.643 305.961 171.321 306.209 176.072 306.208C176.777 306.209 177.482 306.213 178.187 306.217C182.562 306.23 186.862 305.856 191.189 305.234C191.762 305.153 192.334 305.072 192.907 304.992C193.151 304.957 193.395 304.922 193.646 304.886C195.46 304.688 195.46 304.688 196.431 305.192C197.109 305.762 197.253 306.014 197.504 306.845C197.562 307.583 197.562 307.583 197.566 308.418C197.571 308.728 197.575 309.039 197.58 309.349C197.585 309.831 197.589 310.312 197.59 310.794C197.606 314.159 197.973 317.424 200.443 319.954C203.236 322.273 207.088 322.486 210.557 322.495C211.044 322.497 211.53 322.504 212.017 322.511C215.819 322.54 219.694 322.118 222.549 319.388C224.14 317.583 224.68 315.354 224.694 312.994C224.695 312.827 224.697 312.66 224.698 312.489C224.702 311.939 224.703 311.389 224.704 310.839C224.706 310.448 224.708 310.057 224.71 309.666C224.715 308.405 224.714 307.145 224.713 305.884C224.713 305.669 224.713 305.455 224.713 305.234C224.71 298.121 224.504 291.091 223.724 284.015C223.674 283.546 223.624 283.077 223.573 282.608C222.591 273.53 221.224 264.223 218.299 255.535C218.161 254.745 218.125 254.043 218.521 253.326C219.031 252.683 219.541 252.152 220.333 251.919C221.155 251.844 221.748 251.856 222.523 252.145C223.716 253.177 224.119 254.809 224.493 256.294C224.539 256.469 224.585 256.645 224.632 256.825C224.729 257.197 224.824 257.57 224.919 257.942C225.068 258.522 225.219 259.102 225.37 259.681C225.848 261.514 226.296 263.346 226.679 265.201C227.147 267.489 227.147 267.489 228.647 269.227C228.813 269.333 228.978 269.44 229.149 269.549C229.319 269.672 229.489 269.795 229.664 269.921C232.654 271.916 236.292 272.339 239.782 271.653C242.251 271.012 244.435 269.909 245.875 267.741C247.013 265.603 246.745 263.152 246.101 260.904C243.193 251.484 235.685 242.932 227.148 238.16C225.244 237.158 223.314 236.714 221.192 236.442C220.324 236.278 219.859 236.001 219.203 235.419C218.838 234.689 218.845 233.947 218.977 233.158C219.898 231.874 221.057 231.687 222.553 231.425C222.702 231.402 222.851 231.379 223.005 231.355C225.174 231.019 227.204 230.437 229.276 229.725C229.438 229.67 229.601 229.615 229.768 229.559C232.154 228.75 234.419 227.857 236.608 226.603C236.914 226.439 237.221 226.275 237.529 226.112C246.38 221.357 253.045 213.169 255.942 203.558C256.224 202.58 256.483 201.598 256.725 200.61C256.762 200.469 256.8 200.328 256.839 200.184C257.669 196.865 257.721 193.387 257.713 189.986C257.713 189.684 257.713 189.684 257.713 189.376C257.705 185.963 257.448 182.707 256.725 179.363C256.686 179.174 256.647 178.985 256.607 178.791C255.843 175.132 254.575 171.581 253.334 168.061C253.281 167.889 253.227 167.718 253.173 167.541C252.893 166.727 252.646 166.472 251.91 166C251.61 165.863 251.307 165.731 251.003 165.603C250.674 165.451 250.345 165.297 250.017 165.142C249.77 165.026 249.77 165.026 249.517 164.907C246.9 163.613 244.546 161.717 242.259 159.924C242.133 159.826 242.008 159.727 241.878 159.626C238.452 156.906 235.329 153.75 232.765 150.205C232.655 150.055 232.545 149.905 232.432 149.75C224.374 138.736 216.497 122.368 217.395 108.389C205.091 101.652 190.058 99.8786 176.233 99.9371C175.312 99.941 174.39 99.9387 173.469 99.9348C168.78 99.918 164.188 100.144 159.531 100.704Z" fill="black"/>
<path d="M246.453 109.802C253.283 113.294 259.979 118.547 264.635 124.663C264.755 124.819 264.874 124.974 264.997 125.135C266.765 127.455 268.424 129.793 269.834 132.348C269.938 132.534 270.043 132.721 270.15 132.913C273.463 138.876 275.799 144.963 275.824 151.843C275.826 152.283 275.826 152.283 275.829 152.732C275.785 155.935 275.058 158.658 272.846 161.03C269.913 163.692 266.092 163.752 262.349 163.586C253.428 162.96 245.052 155.973 239.4 149.556C238.654 148.672 237.96 147.754 237.286 146.814C237.183 146.671 237.08 146.528 236.973 146.381C233.26 141.185 230.303 135.611 228.048 129.635C227.807 128.997 227.561 128.362 227.314 127.726C225.625 123.312 224.292 118.701 223.498 114.04C223.452 113.819 223.406 113.598 223.359 113.371C223.092 112.015 222.994 110.686 222.975 109.307C222.971 109.144 222.967 108.981 222.963 108.812C222.964 107.798 223.097 107.157 223.724 106.355C229.378 102.113 240.989 107.129 246.453 109.802Z" fill="#7D5232"/>
<path d="M119.89 105.168C120.317 105.165 120.317 105.165 120.752 105.163C124.925 105.171 124.925 105.171 126.53 106.581C126.995 107.649 127.061 108.666 127.053 109.816C127.051 110.083 127.051 110.083 127.049 110.356C126.893 118.381 123.36 126.949 119.996 134.082C119.75 134.608 119.511 135.136 119.273 135.666C115.516 143.954 109.904 151.537 102.571 156.986C102.349 157.155 102.128 157.324 101.9 157.498C98.4329 160.034 94.5017 161.948 90.3651 163.089C90.1611 163.148 89.9572 163.207 89.747 163.269C87.2052 163.9 84.2174 163.81 81.7759 162.863C81.4918 162.755 81.4918 162.755 81.202 162.645C78.5287 161.478 76.7439 159.198 75.673 156.534C75.0742 154.659 74.8849 152.901 74.9101 150.939C74.9131 150.554 74.9131 150.554 74.9161 150.16C74.9512 148.136 75.1848 146.291 75.673 144.328C75.7333 144.046 75.7936 143.763 75.8558 143.472C77.4392 136.254 81.2334 129.469 85.8444 123.759C86.063 123.471 86.063 123.471 86.2859 123.178C89.0292 119.646 92.3679 116.607 96.0159 114.04C96.1531 113.941 96.2903 113.843 96.4316 113.741C101.694 109.98 107.768 107.075 114.098 105.676C114.28 105.635 114.462 105.593 114.649 105.55C116.399 105.187 118.108 105.157 119.89 105.168Z" fill="#7D5232"/>
<path d="M181.004 246.268C181.209 246.347 181.415 246.426 181.626 246.508C186.748 248.752 189.826 254.22 191.853 259.152C192.854 261.728 193.41 264.35 193.888 267.063C193.927 267.275 193.967 267.486 194.008 267.704C194.619 271.841 194.389 276.463 192.984 280.399C192.894 280.659 192.805 280.919 192.712 281.187C191.086 285.445 188.002 288.745 183.888 290.667C178.454 293.045 171.473 292.79 166.024 290.676C161.809 288.948 158.866 286.137 156.897 282.041C153.858 274.677 155.155 266.118 158.132 258.954C159.369 256.096 160.814 253.331 162.921 251.015C163.019 250.907 163.116 250.798 163.217 250.687C167.912 245.534 174.48 243.634 181.004 246.268Z" fill="#FFBB4D"/>
<path d="M188.612 244.09C191.394 246.438 193.451 249.206 195.244 252.371C195.318 252.501 195.392 252.631 195.468 252.765C197.738 256.823 199.052 261.356 199.765 265.933C199.804 266.181 199.804 266.181 199.844 266.435C200.975 273.882 199.932 282.057 195.523 288.338C191.249 293.844 185.873 296.46 179.12 297.718C171.208 298.536 163.36 296.957 157.054 291.967C152.592 288.317 150.162 282.907 149.585 277.235C149.504 275.969 149.497 274.702 149.501 273.434C149.501 273.263 149.501 273.091 149.501 272.914C149.517 268.149 150.274 263.655 151.846 259.152C151.896 259.005 151.947 258.858 151.999 258.706C153.685 253.907 156.279 249.733 159.757 246.042C159.884 245.903 160.01 245.765 160.141 245.622C167.717 237.624 180.21 237.188 188.612 244.09ZM164.956 248.981C164.742 249.173 164.528 249.366 164.308 249.564C160.314 253.295 158.121 258.278 156.592 263.447C156.523 263.674 156.454 263.902 156.383 264.137C154.687 270.279 154.467 277.426 157.448 283.217C160.035 287.619 163.633 289.997 168.43 291.498C170.548 292.02 172.595 292.229 174.774 292.209C175.022 292.207 175.27 292.206 175.526 292.204C180.742 292.135 185.418 290.766 189.141 286.954C191.754 284.196 192.958 280.862 193.787 277.222C193.853 276.936 193.927 276.652 194.01 276.371C195.621 268.711 192.821 259.78 188.915 253.275C188.359 252.474 187.755 251.743 187.107 251.015C186.895 250.755 186.895 250.755 186.679 250.49C184.357 247.706 180.994 245.695 177.387 245.138C172.734 244.718 168.473 245.802 164.956 248.981Z" fill="black"/>
<path d="M140.537 169.388C142.851 170.477 144.031 172.14 144.895 174.475C145.358 176.708 145.001 178.578 143.862 180.56C143.092 181.679 142.191 182.349 140.996 182.979C141.357 183.765 141.827 184.435 142.324 185.141C143.912 187.497 144.427 189.734 144.429 192.529C144.432 192.733 144.435 192.937 144.438 193.148C144.445 196.504 143.143 199.544 140.77 201.966C140.621 201.966 140.472 201.966 140.318 201.966C140.244 202.19 140.169 202.413 140.092 202.644C139.102 203.664 137.77 204.306 136.518 204.947C136.302 205.059 136.302 205.059 136.081 205.175C133.793 206.31 131.597 206.607 129.059 206.585C128.64 206.583 128.64 206.583 128.212 206.581C126.22 206.546 124.537 206.361 122.688 205.582C122.373 205.467 122.373 205.467 122.052 205.35C118.539 203.948 116.053 201.293 114.398 197.954C113.675 196.178 113.293 194.563 113.308 192.642C113.309 192.436 113.31 192.229 113.311 192.017C113.41 188.249 115.262 185.23 117.933 182.658C119.055 181.705 120.268 180.977 121.558 180.267C121.72 180.172 121.883 180.077 122.05 179.979C124.392 178.687 127.166 178.417 129.794 178.444C129.981 178.445 130.168 178.446 130.36 178.447C130.816 178.45 131.273 178.454 131.729 178.458C131.719 178.188 131.708 177.918 131.697 177.64C131.621 174.863 131.83 173.059 133.777 170.953C135.694 169.182 138.008 168.646 140.537 169.388Z" fill="#F4A99C"/>
<path d="M213.863 169.658C215.744 170.749 216.82 172.152 217.621 174.164C218.034 175.721 217.905 177.342 217.621 178.911C217.851 178.907 217.851 178.907 218.087 178.904C218.793 178.894 219.5 178.888 220.206 178.882C220.448 178.879 220.689 178.875 220.939 178.871C225.258 178.845 229.341 180.605 232.482 183.569C235.02 186.261 236.28 189.435 236.251 193.134C236.117 196.847 234.428 199.838 231.861 202.418C231.727 202.56 231.593 202.701 231.456 202.847C228.591 205.642 224.269 206.86 220.363 206.82C218.537 206.753 216.867 206.371 215.135 205.809C214.78 205.697 214.78 205.697 214.418 205.584C210.558 204.187 207.973 201.139 206.194 197.557C205.52 195.929 205.333 194.485 205.345 192.741C205.346 192.541 205.347 192.342 205.348 192.136C205.412 188.716 206.845 185.958 208.806 183.205C208.641 183.118 208.641 183.118 208.474 183.03C206.826 182.088 205.177 180.67 204.602 178.795C204.2 176.31 204.346 174.012 205.732 171.865C207.666 169.349 210.933 168.326 213.863 169.658Z" fill="#F4A99C"/>
<path d="M258.533 240.617C261.348 242.987 263.25 245.782 264.636 249.207C264.7 249.359 264.765 249.512 264.831 249.67C266.968 255.315 266.559 262.693 264.184 268.193C260.377 276.462 253.347 282.678 244.863 285.915C240.005 287.672 234.989 288.497 229.827 288.31C229.484 287.106 229.42 285.852 229.294 284.612C229.248 284.16 229.2 283.708 229.153 283.256C229.123 282.969 229.094 282.682 229.063 282.386C229.023 281.993 229.023 281.993 228.981 281.592C228.926 280.889 228.912 280.2 228.923 279.495C229.106 279.429 229.289 279.363 229.478 279.295C230.729 278.832 231.839 278.395 232.935 277.63C234.467 276.741 236.136 276.896 237.855 276.87C239.979 276.824 241.654 276.477 243.615 275.652C243.888 275.54 244.161 275.428 244.442 275.313C247.762 273.81 250.014 271.504 251.356 268.108C251.658 267.246 251.802 266.459 251.893 265.551C252.102 264.094 252.777 263.098 253.57 261.894C257.723 255.582 258.291 247.972 258.533 240.617Z" fill="#7D5232"/>
<path d="M184.253 177.498C185.367 178.393 186.204 179.592 186.655 180.945C186.795 182.74 186.329 183.981 185.214 185.367C183.522 187.164 181.155 188.207 178.744 188.63C178.445 188.63 178.147 188.63 177.839 188.63C177.845 189.648 177.862 190.664 177.882 191.682C177.883 191.968 177.884 192.255 177.886 192.55C177.925 194.235 178.03 195.491 179.196 196.767C180.55 198.032 182.386 198.069 184.143 198.045C186.89 197.91 188.586 196.578 190.412 194.662C190.768 194.26 191.112 193.848 191.444 193.427C191.88 192.893 192.07 192.727 192.747 192.645C194.004 192.604 194.704 192.756 195.696 193.603C196.314 194.531 196.308 195.226 196.148 196.315C195.182 199.212 192.181 201.316 189.593 202.644C188.776 202.991 187.955 203.287 187.107 203.548C186.883 203.623 186.659 203.697 186.429 203.774C182.284 204.08 178.953 204.015 175.607 201.368C175.095 200.981 175.095 200.981 174.223 201.062C173.709 201.377 173.709 201.377 173.192 201.797C172.021 202.654 170.854 203.122 169.476 203.548C169.141 203.66 169.141 203.66 168.798 203.774C164.306 204.153 160.602 203.765 157.045 200.836C156.781 200.627 156.781 200.627 156.511 200.413C154.944 199.106 153.331 197.454 153.131 195.34C153.215 194.353 153.486 193.912 154.106 193.151C155.116 192.477 156.087 192.536 157.271 192.699C157.864 193.123 157.864 193.123 158.401 193.829C160.003 195.766 161.849 197.646 164.487 197.947C164.969 197.974 165.447 197.983 165.93 197.982C166.1 197.982 166.27 197.982 166.445 197.982C167.776 197.955 168.784 197.689 169.928 196.993C170.089 196.921 170.25 196.848 170.416 196.773C171.009 196.443 171.08 196.04 171.285 195.411C171.359 195.262 171.434 195.113 171.511 194.959C171.545 194.484 171.567 194.007 171.582 193.53C171.592 193.246 171.601 192.962 171.611 192.67C171.62 192.372 171.629 192.073 171.638 191.766C171.647 191.464 171.657 191.161 171.667 190.858C171.691 190.115 171.714 189.373 171.737 188.63C171.389 188.589 171.389 188.589 171.034 188.546C168.484 188.134 165.955 186.936 164.282 184.929C163.345 183.576 162.94 182.389 163.147 180.719C163.665 178.914 165.085 177.744 166.617 176.762C168.093 175.959 169.643 175.603 171.285 175.294C171.491 175.252 171.697 175.21 171.91 175.167C176.095 174.601 180.696 175.066 184.253 177.498Z" fill="black"/>
<path d="M213.863 169.658C215.744 170.749 216.82 172.152 217.621 174.164C217.805 174.856 217.805 174.856 217.847 175.52C217.864 175.662 217.88 175.805 217.897 175.951C218.028 177.798 217.317 179.784 216.222 181.27C214.411 182.92 212.734 183.531 210.309 183.508C208.525 183.342 207.174 182.443 205.973 181.149C204.458 179.186 204.298 177.01 204.511 174.616C204.924 172.708 206.001 171.232 207.6 170.134C209.634 168.986 211.692 168.671 213.863 169.658Z" fill="black"/>
<path d="M140.537 169.388C142.851 170.477 144.031 172.14 144.895 174.475C145.359 176.716 144.984 178.551 143.878 180.552C142.978 181.895 141.644 182.85 140.101 183.348C137.85 183.754 136.111 183.349 134.215 182.075C132.965 180.998 132.034 179.409 131.729 177.78C131.548 175.236 131.731 173.414 133.368 171.395C135.298 169.306 137.774 168.577 140.537 169.388Z" fill="black"/>
<path d="M175.24 239.247C175.426 239.248 175.612 239.249 175.803 239.25C176.256 239.253 176.709 239.257 177.161 239.261C177.161 239.41 177.161 239.56 177.161 239.713C176.957 239.727 176.753 239.741 176.542 239.755C176.276 239.774 176.009 239.793 175.734 239.812C175.47 239.831 175.205 239.849 174.932 239.868C174.217 239.914 174.217 239.914 173.545 240.165C172.897 240.234 172.25 240.28 171.601 240.328C171.07 240.333 171.07 240.333 170.832 240.617C170.229 240.649 169.629 240.627 169.024 240.617C168.95 240.468 168.875 240.319 168.798 240.165C169.174 240.055 169.551 239.948 169.928 239.84C170.138 239.78 170.348 239.72 170.564 239.658C172.129 239.288 173.641 239.23 175.24 239.247Z" fill="black"/>
<path d="M183.504 203.732C183.809 203.728 183.809 203.728 184.119 203.723C184.315 203.723 184.511 203.723 184.713 203.722C184.891 203.721 185.068 203.72 185.251 203.719C185.806 203.78 186.174 203.95 186.655 204.226C186.041 204.533 185.559 204.478 184.873 204.474C184.609 204.474 184.346 204.473 184.074 204.472C183.797 204.47 183.521 204.468 183.236 204.466C182.958 204.465 182.68 204.464 182.393 204.463C181.704 204.461 181.015 204.457 180.326 204.452C180.251 204.303 180.177 204.154 180.1 204C181.226 203.706 182.349 203.733 183.504 203.732Z" fill="#F2D3A3"/>
<path d="M195.696 304.584C195.771 304.734 195.845 304.883 195.922 305.036C195.633 305.064 195.344 305.092 195.046 305.121C194.261 305.193 194.261 305.193 193.662 305.715C193.023 305.767 193.023 305.767 192.249 305.757C191.87 305.755 191.87 305.755 191.483 305.753C190.76 305.716 190.077 305.623 189.367 305.489C189.367 305.414 189.367 305.339 189.367 305.263C190.168 305.148 190.968 305.036 191.769 304.923C191.995 304.891 192.22 304.859 192.453 304.825C193.542 304.674 194.593 304.539 195.696 304.584Z" fill="black"/>
<path d="M256.724 183.205C256.948 183.205 257.172 183.205 257.403 183.205C257.615 184.796 257.653 186.348 257.629 187.952C256.855 186.791 256.67 186.156 256.696 184.731C256.7 184.445 256.704 184.16 256.709 183.866C256.714 183.648 256.719 183.43 256.724 183.205Z" fill="#F2D3A3"/>
<path d="M105.961 255.761C106.036 255.911 106.11 256.06 106.187 256.214C106.02 256.663 106.02 256.663 105.764 257.188C105.418 257.928 105.205 258.574 105.057 259.378C104.849 259.915 104.616 260.435 104.379 260.96C104.107 260.622 104.107 260.622 103.927 260.056C104.143 259.411 104.371 258.843 104.662 258.234C104.735 258.071 104.809 257.908 104.885 257.741C105.208 257.037 105.53 256.408 105.961 255.761Z" fill="#F2D3A3"/>
<path d="M217.169 173.712C217.964 174.507 217.859 175.549 217.861 176.622C217.858 176.933 217.853 177.244 217.847 177.554C217.698 177.629 217.549 177.704 217.395 177.78C216.573 174.904 216.573 174.904 217.169 173.712Z" fill="black"/>
<path d="M200.442 273.166C200.517 273.166 200.592 273.166 200.669 273.166C200.669 274.434 200.669 275.702 200.669 277.009C200.37 277.009 200.072 277.009 199.764 277.009C199.79 276.495 199.819 275.982 199.849 275.469C199.865 275.183 199.881 274.897 199.897 274.603C199.99 273.844 199.99 273.844 200.442 273.166Z" fill="#F2D3A3"/>
<path d="M103.927 262.542C104.002 262.542 104.076 262.542 104.153 262.542C104.177 263.998 104.145 265.396 103.927 266.837C103.475 266.611 103.475 266.611 103.335 266.212C103.244 265.675 103.227 265.177 103.235 264.633C103.237 264.453 103.239 264.272 103.241 264.086C103.244 263.949 103.246 263.813 103.249 263.673C103.398 263.673 103.547 263.673 103.701 263.673C103.776 263.3 103.85 262.927 103.927 262.542Z" fill="#F2D3A3"/>
<path d="M110.03 249.659C110.03 250.913 109.496 251.633 108.66 252.526C108.027 253.188 108.027 253.188 107.544 253.953C107.394 253.879 107.245 253.804 107.092 253.727C108.959 250.864 108.959 250.864 110.03 249.659Z" fill="#F2D3A3"/>
<path d="M162.695 100.477C162.695 100.701 162.695 100.925 162.695 101.155C161.554 101.39 160.464 101.405 159.305 101.381C159.38 101.158 159.454 100.934 159.531 100.703C160.599 100.556 161.615 100.45 162.695 100.477Z" fill="#F2D3A3"/>
<path d="M204.737 173.712C205.351 174.611 205.24 175.551 205.217 176.594C205.215 176.773 205.213 176.952 205.211 177.137C205.206 177.577 205.198 178.018 205.189 178.458C204.65 177.65 204.643 177.174 204.582 176.212C204.562 175.935 204.543 175.658 204.523 175.373C204.513 174.747 204.542 174.298 204.737 173.712Z" fill="black"/>
<path d="M140.544 105.45C139.946 105.78 139.664 105.902 138.962 105.902C138.962 106.051 138.962 106.201 138.962 106.354C138.381 106.72 138.131 106.816 137.436 106.722C137.268 106.675 137.101 106.628 136.928 106.58C137.438 106 137.877 105.749 138.609 105.507C138.781 105.447 138.953 105.388 139.131 105.327C139.686 105.215 140.012 105.271 140.544 105.45Z" fill="#F2D3A3"/>
<path d="M152.072 310.009C152.146 310.009 152.221 310.009 152.298 310.009C152.348 310.598 152.395 311.186 152.439 311.775C152.454 311.942 152.468 312.109 152.483 312.28C152.575 313.549 152.575 313.549 152.072 314.304C151.913 314.753 151.761 315.205 151.62 315.66C151.343 314.829 151.455 314.332 151.591 313.47C151.635 313.189 151.678 312.908 151.722 312.618C151.763 312.354 151.804 312.09 151.846 311.817C151.926 311.215 151.999 310.612 152.072 310.009Z" fill="#F2D3A3"/>
<path d="M127.661 273.392C127.735 273.392 127.81 273.392 127.887 273.392C128.129 274.433 128.051 274.908 127.661 275.878C127.563 276.389 127.479 276.903 127.406 277.418C127.368 277.681 127.331 277.943 127.291 278.214C127.264 278.413 127.237 278.612 127.208 278.817C127.134 278.817 127.059 278.817 126.982 278.817C126.924 277.096 126.877 274.959 127.661 273.392Z" fill="#F2D3A3"/>
<path d="M163.373 180.267C163.523 180.341 163.672 180.416 163.825 180.493C163.838 180.898 163.846 181.303 163.854 181.708C163.859 181.933 163.864 182.159 163.87 182.391C163.825 182.979 163.825 182.979 163.373 183.431C163.072 182.528 163.117 181.661 163.147 180.719C163.222 180.57 163.296 180.42 163.373 180.267Z" fill="black"/>
<path d="M270.739 265.933C271.071 266.463 271.208 266.726 271.11 267.355C271.048 267.529 270.986 267.703 270.922 267.883C270.863 268.058 270.804 268.233 270.743 268.414C270.513 268.872 270.513 268.872 269.834 269.324C269.881 269.155 269.927 268.986 269.975 268.811C270.036 268.589 270.097 268.366 270.159 268.137C270.22 267.917 270.28 267.696 270.342 267.469C270.48 266.958 270.613 266.447 270.739 265.933Z" fill="#ECECEB"/>
<path d="M259.437 168.739C260.085 168.869 260.31 168.934 260.793 169.417C260.644 169.417 260.495 169.417 260.341 169.417C260.416 169.655 260.49 169.893 260.567 170.138C260.757 170.861 260.838 171.393 260.793 172.13C260.331 171.436 260.116 170.843 259.861 170.053C259.781 169.807 259.701 169.562 259.619 169.309C259.559 169.121 259.499 168.933 259.437 168.739Z" fill="#ECECEB"/>
<path d="M223.95 313.626C224.099 313.7 224.248 313.775 224.402 313.852C224.488 315.253 224.365 316.213 223.724 317.468C223.359 316.739 223.607 315.988 223.724 315.208C223.766 314.906 223.809 314.605 223.851 314.304C223.884 314.08 223.916 313.856 223.95 313.626Z" fill="#F2D3A3"/>
<path d="M200.443 267.063C200.517 267.063 200.592 267.063 200.669 267.063C200.669 268.406 200.669 269.748 200.669 271.132C200.594 271.132 200.519 271.132 200.443 271.132C200.368 270.684 200.293 270.237 200.217 269.776C200.142 269.776 200.067 269.776 199.991 269.776C199.942 268.766 200.083 268.007 200.443 267.063Z" fill="#F2D3A3"/>
<path d="M89.4612 168.513C89.8341 168.513 90.2071 168.513 90.5913 168.513C90.4892 168.876 90.3852 169.239 90.2805 169.601C90.2229 169.803 90.1652 170.005 90.1057 170.213C89.9132 170.774 89.9132 170.774 89.4612 171.452C89.4801 171.277 89.4991 171.103 89.5186 170.924C89.5531 170.584 89.5531 170.584 89.5883 170.237C89.6119 170.011 89.6355 169.786 89.6598 169.553C89.735 168.969 89.735 168.969 89.4612 168.513Z" fill="#ECECEB"/>
<path d="M241.581 271.357C240.982 271.688 240.7 271.81 239.998 271.81C239.998 271.959 239.998 272.108 239.998 272.262C239.327 272.15 239.327 272.15 238.642 272.036C238.717 271.886 238.791 271.737 238.868 271.584C240.596 271.045 240.596 271.045 241.581 271.357Z" fill="black"/>
<path d="M119.071 271.132C118.922 271.132 118.773 271.132 118.619 271.132C118.619 271.281 118.619 271.43 118.619 271.584C117.701 271.759 116.842 271.832 115.907 271.81C117.96 270.704 117.96 270.704 119.071 271.132Z" fill="black"/>
<path d="M103.701 162.863C103.85 162.937 103.999 163.012 104.153 163.089C103.364 163.994 102.876 164.36 101.667 164.445C102.287 163.779 102.884 163.271 103.701 162.863Z" fill="#F2D3A3"/>
<path d="M188.689 100.026C189.056 100.013 189.423 100.005 189.791 99.9973C189.995 99.9921 190.2 99.9868 190.411 99.9814C190.949 100.026 190.949 100.026 191.401 100.478C190.405 100.727 189.484 100.721 188.463 100.704C188.537 100.48 188.612 100.256 188.689 100.026Z" fill="black"/>
<path d="M159.645 100.004C159.987 100.008 159.987 100.008 160.336 100.012C160.565 100.014 160.794 100.016 161.029 100.018C161.295 100.022 161.295 100.022 161.565 100.026C161.491 100.25 161.416 100.473 161.339 100.704C159.66 100.768 159.66 100.768 158.853 100.252C159.079 100.026 159.079 100.026 159.645 100.004Z" fill="black"/>
<path d="M123.14 264.803C123.592 265.481 123.592 265.481 123.535 266.032C123.378 266.57 123.186 267.026 122.914 267.515C122.585 266.493 122.853 265.816 123.14 264.803Z" fill="black"/>
<path d="M150.716 262.769C151.168 263.447 151.168 263.447 151.111 263.983C150.941 264.578 150.733 265.138 150.49 265.707C150.247 264.967 150.288 264.48 150.476 263.729C150.52 263.549 150.564 263.368 150.609 263.182C150.644 263.045 150.68 262.909 150.716 262.769Z" fill="black"/>
<path d="M157.723 100.478C157.723 100.701 157.723 100.925 157.723 101.156C156.716 101.267 156.716 101.267 155.688 101.382C155.614 101.158 155.539 100.934 155.462 100.704C156.247 100.442 156.9 100.462 157.723 100.478Z" fill="black"/>
<path d="M154.841 304.881C154.971 304.932 155.102 304.983 155.236 305.036C154.513 305.656 153.879 306.083 152.976 306.392C153.336 305.522 153.805 304.737 154.841 304.881Z" fill="black"/>
<path d="M126.304 277.461C126.853 278.284 126.793 278.752 126.756 279.721C126.532 279.721 126.309 279.721 126.078 279.721C126.072 279.387 126.068 279.052 126.064 278.718C126.061 278.532 126.059 278.346 126.056 278.154C126.078 277.687 126.078 277.687 126.304 277.461Z" fill="black"/>
<path d="M172.049 238.765C172.254 238.77 172.458 238.776 172.669 238.781C172.977 238.787 172.977 238.787 173.292 238.793C173.45 238.799 173.608 238.804 173.771 238.809C173.498 239.153 173.498 239.153 173.093 239.487C172.581 239.504 172.581 239.504 172.033 239.417C171.759 239.376 171.759 239.376 171.48 239.335C171.341 239.31 171.202 239.286 171.058 239.261C171.51 238.809 171.51 238.809 172.049 238.765Z" fill="#F2D3A3"/>
<path d="M127.886 272.262C128.338 272.714 128.338 272.714 128.395 273.392C128.338 274.07 128.338 274.07 127.886 274.522C127.843 274.188 127.801 273.854 127.759 273.519C127.736 273.333 127.712 273.147 127.688 272.955C127.679 272.801 127.67 272.647 127.66 272.488C127.735 272.413 127.81 272.339 127.886 272.262Z" fill="#F2D3A3"/>
<path d="M115.681 270.906C116.427 270.906 117.172 270.906 117.941 270.906C117.261 271.585 116.625 271.493 115.681 271.584C115.681 271.36 115.681 271.136 115.681 270.906Z" fill="#F2D3A3"/>
<path d="M205.867 322.215C206.389 322.215 206.911 322.215 207.449 322.215C207.449 322.439 207.449 322.662 207.449 322.893C206.927 322.893 206.405 322.893 205.867 322.893C205.867 322.669 205.867 322.445 205.867 322.215Z" fill="black"/>
<path d="M223.724 230.672C223.649 230.896 223.574 231.119 223.498 231.35C222.752 231.275 222.006 231.201 221.237 231.124C222.19 230.647 222.683 230.632 223.724 230.672Z" fill="#F2D3A3"/>
<path d="M140.318 99.3475C139.485 99.9031 138.805 100.028 137.832 100.252C137.907 100.028 137.981 99.8041 138.058 99.5735C138.828 99.3976 139.529 99.3249 140.318 99.3475Z" fill="#ECECEB"/>
<path d="M199.086 277.234C199.31 277.309 199.534 277.384 199.764 277.46C199.69 277.908 199.615 278.355 199.538 278.817C199.315 278.817 199.091 278.817 198.86 278.817C198.935 278.294 199.01 277.772 199.086 277.234Z" fill="black"/>
<path d="M240.224 270.906C240.15 271.129 240.075 271.353 239.998 271.584C239.252 271.509 238.506 271.435 237.738 271.358C237.738 271.283 237.738 271.209 237.738 271.132C238.582 270.933 239.358 270.885 240.224 270.906Z" fill="#F2D3A3"/>
<path d="M124.27 260.282C124.678 260.906 124.725 261.161 124.637 261.921C124.59 262.126 124.544 262.331 124.496 262.542C124.347 262.393 124.197 262.244 124.044 262.09C124.051 261.474 124.171 260.893 124.27 260.282Z" fill="black"/>
<path d="M215.672 181.906C215.793 181.962 215.914 182.018 216.039 182.075C214.869 182.804 214.869 182.804 214.457 182.979C214.233 182.905 214.009 182.83 213.779 182.753C215.003 181.835 215.003 181.835 215.672 181.906Z" fill="#F4A99C"/>
<path d="M94.4338 175.294C94.5829 175.369 94.7321 175.443 94.8858 175.52C94.7557 176.059 94.6095 176.575 94.4338 177.102C94.2846 177.102 94.1354 177.102 93.9817 177.102C94.1795 175.548 94.1795 175.548 94.4338 175.294Z" fill="#F2D3A3"/>
<path d="M257.403 284.919C257.403 285.143 257.403 285.367 257.403 285.598C256.993 285.993 256.993 285.993 256.498 286.276C256.275 286.201 256.051 286.126 255.82 286.05C256.342 285.677 256.865 285.304 257.403 284.919Z" fill="#ECECEB"/>
<path d="M124.722 258.7C125.088 259.281 125.184 259.531 125.089 260.226C125.043 260.393 124.996 260.561 124.948 260.734C124.799 260.585 124.65 260.436 124.496 260.282C124.581 259.463 124.581 259.463 124.722 258.7Z" fill="black"/>
<path d="M251.752 212.363C251.976 212.363 252.199 212.363 252.43 212.363C252.26 212.914 252.26 212.914 251.978 213.493C251.498 213.677 251.498 213.677 251.074 213.719C251.298 213.272 251.521 212.824 251.752 212.363Z" fill="black"/>
<path d="M160.61 151.786C163.471 154.305 165.693 158.24 166.114 162.081C166.575 169.626 163.639 176.001 158.731 181.635C158.235 182.181 157.73 182.717 157.222 183.252C156.996 183.515 156.771 183.78 156.547 184.046C155.67 185.059 154.706 185.991 153.749 186.929C153.106 187.563 152.485 188.203 151.899 188.89C151.003 189.919 150.051 190.888 149.091 191.856C148.904 192.045 148.717 192.234 148.524 192.428C148.131 192.825 147.738 193.22 147.344 193.616C146.842 194.121 146.342 194.628 145.843 195.135C145.362 195.623 144.878 196.108 144.394 196.593C144.216 196.775 144.039 196.956 143.856 197.143C142.709 198.286 141.841 198.993 140.206 199.236C138.604 199.015 137.358 197.959 136.07 197.039C134.728 196.115 133.335 195.267 131.955 194.402C130.806 193.679 129.661 192.949 128.517 192.218C127.53 191.588 126.541 190.962 125.547 190.342C121.95 188.093 118.442 185.695 115.304 182.828C115.182 182.717 115.06 182.606 114.934 182.491C111.195 179.032 108.25 174.599 108.007 169.368C107.999 168.897 107.997 168.426 108 167.956C108.001 167.707 108.002 167.458 108.004 167.202C108.087 163.104 109.612 159.646 112.34 156.576C112.459 156.442 112.579 156.307 112.702 156.169C115.201 153.523 118.754 151.813 122.388 151.657C127.315 151.544 131.293 152.856 134.993 156.153C135.344 156.437 135.697 156.72 136.051 157C136.187 156.803 136.323 156.606 136.462 156.403C139.26 152.385 143.052 149.3 147.996 148.412C152.574 147.853 156.95 148.942 160.61 151.786Z" fill="#FF6060"/>
<path d="M208.879 151.495C210.411 152.682 211.658 154.018 212.75 155.622C213.128 156.175 213.537 156.693 213.96 157.211C214.063 157.096 214.167 156.981 214.273 156.862C216.975 153.988 220.86 151.782 224.861 151.643C229.3 151.598 232.815 152.517 236.19 155.518C236.4 155.698 236.4 155.698 236.614 155.883C239.362 158.415 241.28 162.352 241.522 166.079C241.539 166.723 241.54 167.365 241.535 168.009C241.537 168.224 241.539 168.439 241.54 168.66C241.527 174.029 238.805 178.402 235.197 182.193C232.002 185.288 228.101 187.789 224.36 190.164C223.594 190.651 222.833 191.147 222.071 191.641C221.769 191.836 221.466 192.032 221.163 192.228C220.644 192.564 220.124 192.9 219.605 193.237C218.438 193.991 217.266 194.736 216.086 195.471C215.86 195.612 215.635 195.752 215.402 195.897C214.953 196.177 214.503 196.456 214.053 196.734C213.159 197.29 212.275 197.841 211.431 198.471C210.852 198.872 210.532 199.072 209.845 199.143C209.701 199.163 209.558 199.183 209.409 199.203C207.906 198.995 206.798 198.018 205.773 196.97C205.643 196.84 205.513 196.711 205.379 196.577C204.953 196.152 204.531 195.724 204.108 195.296C203.811 194.997 203.513 194.699 203.215 194.4C202.592 193.776 201.971 193.15 201.35 192.523C200.559 191.723 199.765 190.926 198.97 190.129C198.208 189.364 197.446 188.599 196.685 187.833C196.542 187.689 196.398 187.545 196.25 187.396C194.842 185.979 193.445 184.567 192.154 183.04C191.859 182.722 191.564 182.404 191.268 182.087C189.094 179.665 187.27 177.052 185.803 174.148C185.733 174.012 185.664 173.876 185.592 173.735C183.398 169.352 182.693 164.287 184.109 159.54C184.849 157.407 185.854 155.58 187.285 153.824C187.387 153.688 187.488 153.552 187.593 153.412C192.72 146.841 202.552 147.151 208.879 151.495Z" fill="#FF6060"/>
<path d="M208.879 151.495C210.411 152.682 211.658 154.018 212.75 155.622C213.128 156.175 213.537 156.693 213.96 157.211C214.063 157.096 214.167 156.981 214.273 156.862C216.975 153.988 220.86 151.782 224.861 151.643C229.3 151.598 232.815 152.517 236.19 155.518C236.4 155.698 236.4 155.698 236.614 155.883C239.362 158.415 241.28 162.352 241.522 166.079C241.539 166.723 241.54 167.365 241.535 168.009C241.537 168.224 241.539 168.439 241.54 168.66C241.527 174.029 238.805 178.402 235.197 182.193C232.002 185.288 228.101 187.789 224.36 190.164C223.594 190.651 222.833 191.147 222.071 191.641C221.769 191.836 221.466 192.032 221.163 192.228C220.644 192.564 220.124 192.9 219.605 193.237C218.438 193.991 217.266 194.736 216.086 195.471C215.86 195.612 215.635 195.752 215.402 195.897C214.953 196.177 214.503 196.456 214.053 196.734C213.159 197.29 212.275 197.841 211.431 198.471C210.852 198.872 210.532 199.072 209.845 199.143C209.701 199.163 209.558 199.183 209.409 199.203C207.906 198.995 206.798 198.018 205.773 196.97C205.643 196.84 205.513 196.711 205.379 196.577C204.953 196.152 204.531 195.724 204.108 195.296C203.811 194.997 203.513 194.699 203.215 194.4C202.592 193.776 201.971 193.15 201.35 192.523C200.559 191.723 199.765 190.926 198.97 190.129C198.208 189.364 197.446 188.599 196.685 187.833C196.542 187.689 196.398 187.545 196.25 187.396C194.842 185.979 193.445 184.567 192.154 183.04C191.859 182.722 191.564 182.404 191.268 182.087C189.094 179.665 187.27 177.052 185.803 174.148C185.733 174.012 185.664 173.876 185.592 173.735C183.398 169.352 182.693 164.287 184.109 159.54C184.849 157.407 185.854 155.58 187.285 153.824C187.387 153.688 187.488 153.552 187.593 153.412C192.72 146.841 202.552 147.151 208.879 151.495ZM192.578 156.365C192.443 156.471 192.308 156.576 192.168 156.686C190.644 158.03 189.329 160.563 189.144 162.585C188.84 169.509 191.868 174.271 196.388 179.229C196.758 179.613 197.132 179.989 197.517 180.357C197.866 180.707 198.183 181.069 198.502 181.446C199.438 182.522 200.442 183.526 201.452 184.532C201.773 184.852 202.094 185.174 202.414 185.496C203.423 186.505 204.443 187.486 205.527 188.414C206.205 189.011 206.832 189.659 207.463 190.304C207.718 190.564 207.973 190.824 208.228 191.082C208.394 191.251 208.394 191.251 208.562 191.423C209.063 191.892 209.371 192.145 210.07 192.139C211.073 191.848 211.832 191.312 212.69 190.728C213.068 190.476 213.447 190.224 213.826 189.973C214.021 189.842 214.217 189.711 214.419 189.576C215.4 188.928 216.394 188.3 217.387 187.671C217.78 187.422 218.173 187.172 218.565 186.923C218.753 186.803 218.941 186.684 219.135 186.56C229.651 180.412 229.651 180.412 235.832 170.43C236.421 167.32 235.723 164.139 233.954 161.538C232.412 159.515 230.439 157.982 227.933 157.423C225.763 157.292 223.765 157.238 221.794 158.27C221.512 158.417 221.512 158.417 221.225 158.567C218.797 159.977 216.956 161.917 215.697 164.412C215.156 165.432 214.629 165.764 213.537 166.103C212.571 166.259 211.646 166.161 210.785 165.68C210.332 165.001 210.305 164.735 210.229 163.946C209.803 161.225 208.31 158.877 206.339 157C206.199 156.861 206.06 156.723 205.916 156.58C203.639 154.436 201.042 153.905 198.014 153.971C195.849 154.075 194.239 155.031 192.578 156.365Z" fill="black"/>
<path d="M160.61 151.786C163.471 154.305 165.693 158.24 166.114 162.081C166.575 169.626 163.639 176.001 158.731 181.635C158.235 182.181 157.73 182.717 157.222 183.252C156.996 183.515 156.771 183.78 156.547 184.046C155.67 185.059 154.706 185.991 153.749 186.929C153.106 187.563 152.485 188.203 151.899 188.89C151.003 189.919 150.051 190.888 149.091 191.856C148.904 192.045 148.717 192.234 148.524 192.428C148.131 192.825 147.738 193.22 147.344 193.616C146.842 194.121 146.342 194.628 145.843 195.135C145.362 195.623 144.878 196.108 144.394 196.593C144.216 196.775 144.039 196.956 143.856 197.143C142.709 198.286 141.841 198.993 140.206 199.236C138.604 199.015 137.358 197.959 136.07 197.039C134.728 196.115 133.335 195.267 131.955 194.402C130.806 193.679 129.661 192.949 128.517 192.218C127.53 191.588 126.541 190.962 125.547 190.342C121.95 188.093 118.442 185.695 115.304 182.828C115.182 182.717 115.06 182.606 114.934 182.491C111.195 179.032 108.25 174.599 108.007 169.368C107.999 168.897 107.997 168.426 108 167.956C108.001 167.707 108.002 167.458 108.004 167.202C108.087 163.104 109.612 159.646 112.34 156.576C112.459 156.442 112.579 156.307 112.702 156.169C115.201 153.523 118.754 151.813 122.388 151.657C127.315 151.544 131.293 152.856 134.993 156.153C135.344 156.437 135.697 156.72 136.051 157C136.187 156.803 136.323 156.606 136.462 156.403C139.26 152.385 143.052 149.3 147.996 148.412C152.574 147.853 156.95 148.942 160.61 151.786ZM142.19 158.106C140.69 159.941 139.678 162.003 139.511 164.378C139.43 164.887 139.282 165.24 139.015 165.68C138.09 166.258 136.897 166.257 135.84 166.103C134.86 165.673 134.561 165.165 134.119 164.211C132.46 160.972 129.664 158.747 126.279 157.461C123.733 156.719 121.152 157.357 118.876 158.601C116.264 160.304 114.446 162.649 113.729 165.706C113.68 166.049 113.64 166.393 113.61 166.738C113.593 166.928 113.576 167.118 113.558 167.314C113.401 170.856 114.742 174.202 117.103 176.808C121.303 181.211 126.954 184.308 132.064 187.53C133.101 188.186 134.135 188.847 135.168 189.509C135.512 189.729 135.856 189.949 136.2 190.169C136.411 190.304 136.622 190.438 136.839 190.577C137.035 190.702 137.232 190.828 137.435 190.957C137.859 191.233 138.268 191.52 138.678 191.818C139.315 192.196 139.557 192.247 140.286 192.143C140.851 191.755 140.851 191.755 141.418 191.181C141.534 191.071 141.649 190.961 141.768 190.847C142.195 190.436 142.616 190.02 143.038 189.603C143.214 189.429 143.39 189.256 143.572 189.077C144.94 187.729 146.298 186.372 147.655 185.013C148.099 184.568 148.543 184.125 148.988 183.681C149.421 183.248 149.854 182.815 150.287 182.382C150.589 182.08 150.892 181.778 151.194 181.476C156.107 176.546 160.459 171.097 160.464 163.858C160.424 160.932 159.357 158.613 157.421 156.418C155.509 154.626 152.751 153.704 150.165 153.772C146.877 154.076 144.364 155.691 142.19 158.106Z" fill="black"/>
<path d="M177.609 76.1495C178.178 76.6571 178.506 77.2205 178.695 77.9246C178.695 77.9956 178.695 78.0666 178.695 78.1398C178.766 78.1426 178.766 78.1426 178.838 78.1454C185.207 78.509 191.637 81.301 195.868 85.6514C196.045 85.8461 196.216 86.0441 196.385 86.2443C196.466 86.3383 196.547 86.4324 196.628 86.5264C201.115 91.7761 202.669 98.5709 203.166 109.361C203.166 109.438 203.167 109.516 203.167 109.595C203.168 109.816 203.168 110.036 203.167 110.257C203.168 110.353 203.168 110.353 203.168 110.452C203.165 110.814 203.117 111.134 203.022 111.485C202.974 111.703 202.986 111.903 203.007 112.123C203.016 112.216 203.024 112.309 203.033 112.405C203.082 112.852 203.142 113.298 203.203 113.743C203.538 116.195 203.718 118.627 203.721 121.098C203.721 121.247 203.722 121.395 203.722 121.544C203.728 124.156 203.728 124.156 203.372 125.413C203.356 125.472 203.339 125.531 203.322 125.592C202.914 126.956 202.049 128.177 200.693 128.893C199.058 129.616 197.34 129.381 195.668 128.932C195.608 128.916 195.548 128.9 195.486 128.883C194.47 128.597 193.503 128.194 192.542 127.785C192.224 127.65 191.907 127.517 191.589 127.383C191.524 127.356 191.459 127.329 191.392 127.3C189.594 126.545 187.794 125.795 185.928 125.189C185.834 125.158 185.834 125.158 185.738 125.127C184.892 124.857 184.025 124.657 183.157 124.458C183.078 124.44 183.078 124.44 182.997 124.421C181.84 124.157 180.675 123.951 179.496 123.786C179.442 123.778 179.387 123.77 179.33 123.762C178.492 123.644 177.654 123.53 176.808 123.467C176.691 123.458 176.691 123.458 176.572 123.449C173.109 123.207 169.596 123.408 166.195 124.041C166.096 124.06 165.997 124.078 165.895 124.097C163.083 124.626 160.41 125.477 157.782 126.525C157.607 126.594 157.431 126.664 157.255 126.733C156.314 127.106 155.377 127.487 154.444 127.878C152.116 128.855 149.416 129.886 146.854 129.062C146.517 128.919 146.214 128.754 145.91 128.56C145.854 128.524 145.798 128.488 145.74 128.451C144.394 127.482 143.826 125.845 143.602 124.353C143.579 124.161 143.559 123.969 143.542 123.777C143.536 123.707 143.529 123.636 143.522 123.563C143.454 122.762 143.449 121.962 143.454 121.159C143.454 121.082 143.454 121.004 143.454 120.924C143.459 119.521 143.511 118.125 143.63 116.726C143.635 116.676 143.639 116.626 143.643 116.575C143.748 115.33 143.892 114.092 144.081 112.856C144.218 112.096 144.218 112.096 144.102 111.347C144.094 111.186 144.091 111.025 144.09 110.864C144.089 110.815 144.089 110.766 144.088 110.716C144.087 110.552 144.087 110.389 144.086 110.226C144.086 110.111 144.085 109.996 144.085 109.881C144.083 109.509 144.083 109.137 144.083 108.765C144.083 108.702 144.082 108.639 144.082 108.574C144.082 106.681 144.101 104.797 144.318 102.913C144.339 102.732 144.359 102.552 144.379 102.371C145.046 96.4382 146.854 90.3781 151.257 85.8139C151.317 85.7501 151.317 85.7501 151.378 85.6849C152.309 84.6975 153.331 83.7898 154.48 83.0168C154.563 82.9576 154.645 82.898 154.728 82.8381C158.321 80.2281 163.884 78.0695 168.553 78.1398C168.556 78.051 168.56 77.9623 168.563 77.8708C168.662 77.0927 169.16 76.4719 169.811 75.9882C172.013 74.5353 175.46 74.7656 177.609 76.1495Z" fill="black"/>
<path d="M173.418 107.886C173.47 107.886 173.522 107.886 173.575 107.886C176.646 107.884 179.726 107.993 182.778 108.317C182.96 108.336 183.141 108.355 183.323 108.373C185.091 108.552 186.852 108.749 188.602 109.052C188.665 109.063 188.728 109.073 188.793 109.085C190.772 109.428 192.722 109.823 194.655 110.343C194.789 110.378 194.789 110.378 194.926 110.414C196.327 110.785 197.696 111.23 199.058 111.705C199.14 111.734 199.221 111.762 199.305 111.791C199.518 111.865 199.731 111.942 199.943 112.019C200.034 112.051 200.034 112.051 200.127 112.084C200.528 112.235 200.528 112.235 200.643 112.445C200.706 112.629 200.743 112.797 200.768 112.989C200.781 113.091 200.781 113.091 200.795 113.196C200.808 113.306 200.808 113.306 200.822 113.419C200.832 113.496 200.842 113.573 200.852 113.652C200.884 113.904 200.915 114.156 200.945 114.408C200.961 114.538 200.961 114.538 200.977 114.671C201.236 116.82 201.351 118.937 201.357 121.097C201.358 121.251 201.358 121.405 201.359 121.559C201.373 125.345 201.373 125.345 200.154 126.605C199.655 127.026 199.048 127.216 198.375 127.237C197.714 127.212 197.096 127.079 196.464 126.91C196.408 126.896 196.352 126.881 196.295 126.866C195.046 126.526 193.875 125.995 192.696 125.495C188.355 123.659 184.007 122.237 179.255 121.589C179.176 121.578 179.096 121.567 179.014 121.556C177.294 121.334 175.556 121.286 173.821 121.289C173.723 121.289 173.625 121.289 173.523 121.289C168.287 121.299 163.274 122.195 158.411 123.97C158.362 123.988 158.312 124.006 158.261 124.024C156.98 124.493 155.727 125.001 154.488 125.555C149.96 127.575 149.96 127.575 148.008 127.139C147.278 126.898 146.846 126.47 146.48 125.857C145.77 124.438 145.806 122.905 145.811 121.379C145.812 121.091 145.811 120.804 145.81 120.516C145.81 119.222 145.876 117.943 145.989 116.654C145.994 116.593 146 116.531 146.005 116.468C146.045 116.002 146.093 115.538 146.148 115.075C146.193 114.69 146.23 114.31 146.236 113.923C146.261 112.526 146.261 112.526 146.711 112.127C147.191 111.846 147.723 111.709 148.269 111.573C148.603 111.488 148.925 111.382 149.25 111.272C149.915 111.047 150.584 110.835 151.257 110.63C151.339 110.604 151.421 110.579 151.505 110.553C153.845 109.846 156.279 109.396 158.704 109.009C158.88 108.98 159.056 108.952 159.233 108.923C161.863 108.492 164.52 108.26 167.182 108.065C167.239 108.061 167.295 108.057 167.354 108.053C169.368 107.904 171.397 107.887 173.418 107.886Z" fill="#AADCE7"/>
<path d="M179.191 80.2869C179.278 80.2984 179.278 80.2984 179.366 80.3102C184.15 80.9594 188.928 82.5755 192.487 85.6399C192.664 85.7914 192.844 85.9356 193.029 86.0783C193.285 86.2814 193.506 86.5002 193.725 86.7364C193.878 86.8995 194.038 87.0554 194.198 87.2124C197.207 90.2729 198.865 94.3205 199.766 98.2933C199.795 98.4183 199.825 98.5432 199.855 98.6682C200.711 102.395 200.929 106.328 200.866 110.127C200.408 109.993 199.961 109.844 199.514 109.682C193.433 107.491 187.014 106.569 179.716 106.004C179.592 105.995 179.468 105.986 179.344 105.977C177.819 105.864 176.295 105.859 174.764 105.824C174.764 97.4693 174.764 89.1145 174.764 80.5065C175.127 80.4829 175.491 80.4592 175.865 80.4348C176.114 80.3906 176.353 80.3449 176.597 80.2869C177.486 80.0771 178.291 80.1665 179.191 80.2869Z" fill="#AADCE7"/>
<path d="M170.524 80.242C171.139 80.4015 171.775 80.4824 172.406 80.5782C172.406 88.9094 172.406 97.2405 172.406 105.824C171.212 105.848 170.019 105.871 168.789 105.896C168.112 105.929 167.439 105.965 166.765 106.017C166.641 106.026 166.641 106.026 166.515 106.035C159.9 106.523 152.982 107.397 146.873 109.889C146.618 109.984 146.618 109.984 146.382 109.984C146.327 106.871 146.396 103.746 146.97 100.669C147.014 100.431 147.054 100.193 147.094 99.9538C147.833 95.6429 149.424 91.2181 152.515 87.8221C152.585 87.7434 152.655 87.6646 152.725 87.5859C153.421 86.8118 154.19 86.0997 155.031 85.4553C155.105 85.3958 155.18 85.3364 155.257 85.2751C158.643 82.5954 165.88 79.0031 170.524 80.242Z" fill="#AADCE7"/>
<path d="M175.767 77.7317C175.981 77.9653 176.009 78.1256 176.022 78.4265C175.072 79.0769 173.77 79.0213 172.632 78.9125C172.051 78.834 171.558 78.6466 171.069 78.3547C171.121 77.9983 171.244 77.8804 171.543 77.663C172.62 76.987 174.707 77.0513 175.767 77.7317Z" fill="#AADCE7"/>
</svg>
