<svg width="180" height="215" viewBox="0 0 180 215" fill="none" xmlns="http://www.w3.org/2000/svg">
<path d="M107.59 17.5421C107.757 17.5709 107.925 17.5997 108.097 17.6293C114.653 18.7859 121.105 20.8447 127.29 23.28C127.415 23.1649 127.415 23.1649 127.543 23.0475C128.244 22.4228 128.87 21.9556 129.753 21.6065C130.024 21.4955 130.024 21.4955 130.301 21.3823C131.846 20.8709 133.279 20.725 134.905 20.7338C135.22 20.7354 135.22 20.7354 135.542 20.7371C147.448 20.9112 158.536 27.5066 166.662 35.8376C167.341 36.5485 167.968 37.2938 168.577 38.0656C169.014 38.6169 169.471 39.1474 169.93 39.6808C176.248 47.261 180.652 57.7255 179.887 67.6531C179.525 70.9788 177.919 74.3017 175.375 76.4968C172.41 78.7587 169.009 79.7446 165.304 79.7266C165.154 79.7273 165.004 79.7281 164.85 79.7288C163.67 79.7269 162.508 79.6333 161.335 79.5114C161.382 79.6458 161.429 79.7802 161.478 79.9187C162.508 82.8752 163.441 85.8026 164.013 88.8833C164.044 89.0414 164.075 89.1994 164.107 89.3622C165.136 94.7949 165.002 100.897 163.821 106.288C163.768 106.543 163.768 106.543 163.713 106.802C162.94 110.39 161.727 113.766 159.996 116.999C159.907 117.178 159.817 117.357 159.725 117.541C157.591 121.71 154.297 125.419 150.624 128.284C150.468 128.406 150.468 128.406 150.308 128.531C146.78 131.271 142.768 133.436 138.575 134.978C138.695 135.062 138.816 135.145 138.941 135.232C142.248 137.576 145.293 140.356 147.755 143.585C147.837 143.691 147.919 143.798 148.004 143.908C149.702 146.126 151.127 148.456 152.453 150.912C152.52 151.035 152.586 151.157 152.654 151.284C153.111 152.145 153.111 152.145 153.111 152.574C153.237 152.574 153.363 152.574 153.493 152.574C153.526 152.348 153.526 152.348 153.56 152.118C153.656 151.584 153.768 151.069 153.899 150.543C153.94 150.38 153.98 150.216 154.022 150.047C154.106 149.715 154.191 149.383 154.277 149.051C155.032 145.994 155.065 143.04 154.972 139.915C154.958 139.415 154.95 138.915 154.943 138.415C154.934 138.19 154.934 138.19 154.925 137.96C154.914 136.816 155.257 136.055 155.98 135.169C156.986 134.384 158.203 134.461 159.422 134.595C161.988 135.213 163.904 136.797 165.734 138.612C165.902 138.778 166.071 138.944 166.244 139.115C168.743 141.714 170.118 144.875 171.054 148.318C171.093 148.463 171.133 148.607 171.174 148.756C172.118 152.435 172.147 157.153 171.089 160.798C171.021 161.06 170.953 161.321 170.885 161.583C169.61 166.353 167.076 170.81 163.439 174.187C163.281 174.345 163.123 174.502 162.961 174.665C162.803 174.823 162.645 174.98 162.483 175.143C162.387 175.242 162.292 175.341 162.194 175.443C161.41 176.249 160.59 176.95 159.685 177.618C159.552 177.716 159.418 177.815 159.281 177.917C154.278 181.581 148.518 183.8 142.4 184.706C142.1 184.76 142.1 184.76 141.794 184.815C140.724 184.935 139.662 184.917 138.587 184.909C138.365 184.909 138.143 184.908 137.914 184.907C137.369 184.905 136.824 184.901 136.279 184.897C136.293 185.062 136.306 185.227 136.32 185.397C136.469 187.403 136.508 189.4 136.516 191.412C136.517 191.58 136.518 191.749 136.519 191.923C136.523 192.814 136.525 193.706 136.527 194.597C136.529 195.508 136.536 196.418 136.543 197.329C136.548 198.039 136.55 198.749 136.551 199.459C136.552 199.795 136.554 200.13 136.557 200.465C136.595 204.201 135.962 207.478 133.296 210.282C130.897 212.56 127.959 213.361 124.804 213.97C124.661 214.003 124.518 214.037 124.371 214.072C123.703 214.185 123.044 214.195 122.369 214.2C122.155 214.202 122.155 214.202 121.938 214.204C116.611 214.243 111.367 214.035 107.227 210.194C104.602 207.369 103.887 203.357 103.956 199.625C103.731 199.68 103.506 199.735 103.275 199.792C100.368 200.435 97.3715 200.608 94.4032 200.62C94.1742 200.621 93.9452 200.623 93.7093 200.624C92.9728 200.627 92.2364 200.628 91.4999 200.629C91.2487 200.629 90.9974 200.63 90.7385 200.63C86.76 200.632 82.8512 200.48 78.9004 200.007C78.6012 199.972 78.3019 199.937 78.0026 199.903C77.2179 199.811 76.4334 199.718 75.649 199.625C75.651 199.83 75.653 200.035 75.6551 200.247C75.6244 203.817 74.3682 207.492 71.9014 210.09C68.2791 213.525 63.3024 214.205 58.5309 214.209C58.3856 214.209 58.2403 214.209 58.0905 214.209C53.5862 214.203 49.0761 213.458 45.6759 210.236C43.0397 207.38 42.6906 203.887 42.7009 200.18C42.7005 199.862 42.6999 199.543 42.6993 199.225C42.6982 198.381 42.6998 197.536 42.7024 196.692C42.7039 196.168 42.7047 195.644 42.7055 195.12C42.7136 190.111 42.7634 185.114 43.1342 180.116C43.1453 179.963 43.1564 179.811 43.1678 179.654C43.404 176.42 43.6962 173.198 44.0905 169.979C43.8815 170.05 43.6724 170.122 43.4571 170.196C43.3324 170.238 43.2077 170.281 43.0792 170.325C42.8212 170.413 42.5633 170.502 42.3056 170.591C42.1351 170.649 42.1351 170.649 41.9612 170.707C41.847 170.746 41.7329 170.786 41.6152 170.826C38.6595 171.648 34.6849 171.537 31.8497 170.361C31.6798 170.304 31.5099 170.247 31.3349 170.187C28.7887 169.289 26.5494 167.387 25.3467 164.97C23.9562 162.045 23.8897 158.264 24.891 155.179C24.9783 154.951 25.0655 154.722 25.1555 154.487C25.2325 154.28 25.2325 154.28 25.311 154.068C26.5202 150.859 28.1798 147.983 30.3196 145.306C30.4502 145.139 30.5809 144.971 30.7155 144.799C33.0847 141.822 35.7875 139.23 38.7112 136.807C38.8478 136.694 38.9843 136.58 39.125 136.464C39.7093 135.985 40.2893 135.524 40.9242 135.114C41.4282 134.835 41.4282 134.835 41.6041 134.404C41.4669 134.38 41.3296 134.357 41.1882 134.332C36.3248 133.256 31.3422 129.999 27.6419 126.753C27.4774 126.61 27.313 126.466 27.1436 126.319C26.6664 125.896 26.1963 125.466 25.7293 125.032C25.602 124.915 25.4748 124.798 25.3437 124.678C18.7792 118.407 15.2047 108.651 14.9631 99.6967C14.9479 98.8495 14.9449 98.0027 14.9468 97.1555C14.9469 96.9763 14.947 96.7971 14.9471 96.6125C14.9625 90.8193 15.6376 84.3937 18.27 79.1289C18.0318 79.1905 17.7936 79.2522 17.5483 79.3157C13.7169 80.1616 9.74421 79.4276 6.39345 77.451C3.18894 75.3859 1.32828 72.0228 0.476519 68.3808C-1.36958 59.6159 2.42404 49.9501 7.11475 42.6968C7.56818 42.0162 8.03616 41.3474 8.51555 40.685C8.59655 40.5728 8.67754 40.4607 8.76098 40.3451C11.2709 36.9074 14.1633 33.7599 17.5049 31.1218C17.8478 30.8351 18.1904 30.5482 18.533 30.2611C20.5423 28.6218 22.713 27.2373 24.9642 25.9577C25.1018 25.8795 25.2393 25.8013 25.3811 25.7207C28.9322 23.7255 32.6806 22.3444 36.6313 21.3674C36.7672 21.3331 36.9031 21.2988 37.0431 21.2634C39.0857 20.7716 41.1394 20.7402 43.2298 20.7338C43.3623 20.7331 43.4948 20.7324 43.6313 20.7316C46.6788 20.7232 49.9289 21.1777 52.3149 23.28C52.3149 23.4062 52.3149 23.5325 52.3149 23.6625C52.4995 23.5787 52.6842 23.4949 52.8744 23.4085C59.4751 20.4884 66.4458 18.5742 73.5451 17.3508C73.7262 17.3193 73.9074 17.2878 74.094 17.2553C85.0218 15.4244 96.6919 15.6616 107.59 17.5421Z" fill="#F2D3A3"/>
<path d="M107.59 17.5421C107.757 17.5709 107.925 17.5997 108.097 17.6293C114.653 18.7859 121.105 20.8447 127.29 23.28C127.415 23.1649 127.415 23.1649 127.543 23.0475C128.244 22.4228 128.87 21.9556 129.753 21.6065C130.024 21.4955 130.024 21.4955 130.301 21.3823C131.846 20.8709 133.279 20.725 134.905 20.7338C135.22 20.7354 135.22 20.7354 135.542 20.7371C147.448 20.9112 158.536 27.5066 166.662 35.8376C167.341 36.5485 167.968 37.2938 168.577 38.0656C169.014 38.6169 169.471 39.1474 169.93 39.6808C176.248 47.261 180.652 57.7255 179.887 67.6531C179.525 70.9788 177.919 74.3017 175.375 76.4968C172.41 78.7587 169.009 79.7446 165.304 79.7266C165.154 79.7273 165.004 79.7281 164.85 79.7288C163.67 79.7269 162.508 79.6333 161.335 79.5114C161.382 79.6458 161.429 79.7802 161.478 79.9187C162.508 82.8752 163.441 85.8026 164.013 88.8833C164.044 89.0414 164.075 89.1994 164.107 89.3622C165.136 94.7949 165.002 100.897 163.821 106.288C163.768 106.543 163.768 106.543 163.713 106.802C162.94 110.39 161.727 113.766 159.996 116.999C159.907 117.178 159.817 117.357 159.725 117.541C157.591 121.71 154.297 125.419 150.624 128.284C150.468 128.406 150.468 128.406 150.308 128.531C146.78 131.271 142.768 133.436 138.575 134.978C138.695 135.062 138.816 135.145 138.941 135.232C142.248 137.576 145.293 140.356 147.755 143.585C147.837 143.691 147.919 143.798 148.004 143.908C149.702 146.126 151.127 148.456 152.453 150.912C152.52 151.035 152.586 151.157 152.654 151.284C153.111 152.145 153.111 152.145 153.111 152.574C153.237 152.574 153.363 152.574 153.493 152.574C153.526 152.348 153.526 152.348 153.56 152.118C153.656 151.584 153.768 151.069 153.899 150.543C153.94 150.38 153.98 150.216 154.022 150.047C154.106 149.715 154.191 149.383 154.277 149.051C155.032 145.994 155.065 143.04 154.972 139.915C154.958 139.415 154.95 138.915 154.943 138.415C154.934 138.19 154.934 138.19 154.925 137.96C154.914 136.816 155.257 136.055 155.98 135.169C156.986 134.384 158.203 134.461 159.422 134.595C161.988 135.213 163.904 136.797 165.734 138.612C165.902 138.778 166.071 138.944 166.244 139.115C168.743 141.714 170.118 144.875 171.054 148.318C171.093 148.463 171.133 148.607 171.174 148.756C172.118 152.435 172.147 157.153 171.089 160.798C171.021 161.06 170.953 161.321 170.885 161.583C169.61 166.353 167.076 170.81 163.439 174.187C163.281 174.345 163.123 174.502 162.961 174.665C162.803 174.823 162.645 174.98 162.483 175.143C162.387 175.242 162.292 175.341 162.194 175.443C161.41 176.249 160.59 176.95 159.685 177.618C159.552 177.716 159.418 177.815 159.281 177.917C154.278 181.581 148.518 183.8 142.4 184.706C142.1 184.76 142.1 184.76 141.794 184.815C140.724 184.935 139.662 184.917 138.587 184.909C138.365 184.909 138.143 184.908 137.914 184.907C137.369 184.905 136.824 184.901 136.279 184.897C136.293 185.062 136.306 185.227 136.32 185.397C136.469 187.403 136.508 189.4 136.516 191.412C136.517 191.58 136.518 191.749 136.519 191.923C136.523 192.814 136.525 193.706 136.527 194.597C136.529 195.508 136.536 196.418 136.543 197.329C136.548 198.039 136.55 198.749 136.551 199.459C136.552 199.795 136.554 200.13 136.557 200.465C136.595 204.201 135.962 207.478 133.296 210.282C130.897 212.56 127.959 213.361 124.804 213.97C124.661 214.003 124.518 214.037 124.371 214.072C123.703 214.185 123.044 214.195 122.369 214.2C122.155 214.202 122.155 214.202 121.938 214.204C116.611 214.243 111.367 214.035 107.227 210.194C104.602 207.369 103.887 203.357 103.956 199.625C103.731 199.68 103.506 199.735 103.275 199.792C100.368 200.435 97.3715 200.608 94.4032 200.62C94.1742 200.621 93.9452 200.623 93.7093 200.624C92.9728 200.627 92.2364 200.628 91.4999 200.629C91.2487 200.629 90.9974 200.63 90.7385 200.63C86.76 200.632 82.8512 200.48 78.9004 200.007C78.6012 199.972 78.3019 199.937 78.0026 199.903C77.2179 199.811 76.4334 199.718 75.649 199.625C75.651 199.83 75.653 200.035 75.6551 200.247C75.6244 203.817 74.3682 207.492 71.9014 210.09C68.2791 213.525 63.3024 214.205 58.5309 214.209C58.3856 214.209 58.2403 214.209 58.0905 214.209C53.5862 214.203 49.0761 213.458 45.6759 210.236C43.0397 207.38 42.6906 203.887 42.7009 200.18C42.7005 199.862 42.6999 199.543 42.6993 199.225C42.6982 198.381 42.6998 197.536 42.7024 196.692C42.7039 196.168 42.7047 195.644 42.7055 195.12C42.7136 190.111 42.7634 185.114 43.1342 180.116C43.1453 179.963 43.1564 179.811 43.1678 179.654C43.404 176.42 43.6962 173.198 44.0905 169.979C43.8815 170.05 43.6724 170.122 43.4571 170.196C43.3324 170.238 43.2077 170.281 43.0792 170.325C42.8212 170.413 42.5633 170.502 42.3056 170.591C42.1351 170.649 42.1351 170.649 41.9612 170.707C41.847 170.746 41.7329 170.786 41.6152 170.826C38.6595 171.648 34.6849 171.537 31.8497 170.361C31.6798 170.304 31.5099 170.247 31.3349 170.187C28.7887 169.289 26.5494 167.387 25.3467 164.97C23.9562 162.045 23.8897 158.264 24.891 155.179C24.9783 154.951 25.0655 154.722 25.1555 154.487C25.2325 154.28 25.2325 154.28 25.311 154.068C26.5202 150.859 28.1798 147.983 30.3196 145.306C30.4502 145.139 30.5809 144.971 30.7155 144.799C33.0847 141.822 35.7875 139.23 38.7112 136.807C38.8478 136.694 38.9843 136.58 39.125 136.464C39.7093 135.985 40.2893 135.524 40.9242 135.114C41.4282 134.835 41.4282 134.835 41.6041 134.404C41.4669 134.38 41.3296 134.357 41.1882 134.332C36.3248 133.256 31.3422 129.999 27.6419 126.753C27.4774 126.61 27.313 126.466 27.1436 126.319C26.6664 125.896 26.1963 125.466 25.7293 125.032C25.602 124.915 25.4748 124.798 25.3437 124.678C18.7792 118.407 15.2047 108.651 14.9631 99.6967C14.9479 98.8495 14.9449 98.0027 14.9468 97.1555C14.9469 96.9763 14.947 96.7971 14.9471 96.6125C14.9625 90.8193 15.6376 84.3937 18.27 79.1289C18.0318 79.1905 17.7936 79.2522 17.5483 79.3157C13.7169 80.1616 9.74421 79.4276 6.39345 77.451C3.18894 75.3859 1.32828 72.0228 0.476519 68.3808C-1.36958 59.6159 2.42404 49.9501 7.11475 42.6968C7.56818 42.0162 8.03616 41.3474 8.51555 40.685C8.59655 40.5728 8.67754 40.4607 8.76098 40.3451C11.2709 36.9074 14.1633 33.7599 17.5049 31.1218C17.8478 30.8351 18.1904 30.5482 18.533 30.2611C20.5423 28.6218 22.713 27.2373 24.9642 25.9577C25.1018 25.8795 25.2393 25.8013 25.3811 25.7207C28.9322 23.7255 32.6806 22.3444 36.6313 21.3674C36.7672 21.3331 36.9031 21.2988 37.0431 21.2634C39.0857 20.7716 41.1394 20.7402 43.2298 20.7338C43.3623 20.7331 43.4948 20.7324 43.6313 20.7316C46.6788 20.7232 49.9289 21.1777 52.3149 23.28C52.3149 23.4062 52.3149 23.5325 52.3149 23.6625C52.4995 23.5787 52.6842 23.4949 52.8744 23.4085C59.4751 20.4884 66.4458 18.5742 73.5451 17.3508C73.7262 17.3193 73.9074 17.2878 74.094 17.2553C85.0218 15.4244 96.6919 15.6616 107.59 17.5421ZM76.6053 21.7499C76.3024 21.7857 76.3024 21.7857 75.9933 21.8221C69.4967 22.5959 63.2009 24.1859 57.0964 26.5315C56.9221 26.5977 56.7478 26.6639 56.5682 26.7322C56.1243 26.9031 55.6835 27.0798 55.2436 27.2607C55.0101 27.3566 54.7766 27.4525 54.536 27.5513C54.0057 27.8209 54.0057 27.8209 53.8629 28.3119C53.8429 28.8853 53.8562 29.4487 53.8808 30.022C53.9409 33.41 53.1104 36.8867 52.1236 40.1112C52.0662 40.2988 52.0088 40.4864 51.9497 40.6797C49.0815 49.9102 44.9052 59.4896 38.2025 66.6266C37.8391 67.0149 37.4972 67.4118 37.1572 67.8205C34.271 71.1066 29.969 74.9141 25.7741 76.3317C24.7631 76.6825 24.1787 76.9346 23.6119 77.8692C23.2908 78.5986 23.0537 79.3487 22.8295 80.1127C22.6544 80.7089 22.4656 81.3 22.2761 81.8918C21.5055 84.344 20.8522 86.8009 20.4523 89.3418C20.3965 89.6961 20.3359 90.0496 20.2719 90.4025C19.9511 92.3238 19.9266 94.2214 19.931 96.1654C19.9316 96.7189 19.9271 97.2722 19.9222 97.8256C19.9111 101.07 20.1684 104.343 21.0792 107.472C21.1276 107.643 21.1761 107.814 21.2261 107.991C23.7002 116.409 29.2972 123.081 36.9517 127.281C41.1228 129.51 45.4922 131.179 50.1579 132.01C50.328 132.041 50.4981 132.072 50.6734 132.104C50.8273 132.13 50.9812 132.156 51.1398 132.183C51.7736 132.364 52.1052 132.752 52.5061 133.256C52.5692 133.32 52.6323 133.383 52.6974 133.448C52.7792 134.151 52.7155 134.555 52.4224 135.205C51.7596 135.932 51.147 136.083 50.211 136.317C42.3317 138.334 35.9465 145.055 31.8331 151.844C30.0023 154.94 28.5231 158.164 29.0487 161.849C29.4497 163.361 30.5492 164.549 31.8519 165.368C34.6968 166.836 38.2184 167.105 41.2933 166.142C42.7032 165.581 44.2267 164.833 45.2381 163.667C45.3964 163.278 45.3964 163.278 45.4927 162.838C45.5343 162.67 45.5759 162.502 45.6187 162.33C45.6618 162.148 45.7048 161.966 45.7491 161.779C45.8196 161.495 45.8196 161.495 45.8914 161.205C46.0422 160.595 46.1903 159.986 46.3379 159.376C46.8961 157.07 47.4582 154.777 48.2296 152.531C48.2824 152.375 48.3352 152.219 48.3896 152.058C48.7244 151.119 49.0772 150.176 50.0197 149.705C50.8011 149.607 51.5916 149.529 52.3066 149.899C52.811 150.307 53.065 150.617 53.2712 151.235C53.3201 152.177 53.2107 152.941 52.9417 153.842C52.8701 154.087 52.7986 154.332 52.727 154.576C52.689 154.704 52.6511 154.831 52.6119 154.963C51.6824 158.092 50.912 161.244 50.211 164.432C50.1538 164.688 50.1538 164.688 50.0954 164.948C48.9326 170.175 48.3497 175.511 47.9482 180.844C47.9232 181.168 47.8969 181.491 47.87 181.815C47.7476 183.324 47.6689 184.83 47.6199 186.342C47.612 186.588 47.604 186.833 47.5958 187.085C47.5095 189.895 47.4908 192.704 47.4873 195.515C47.4863 196.259 47.4816 197.004 47.4762 197.748C47.4726 198.334 47.4717 198.92 47.4714 199.506C47.4708 199.78 47.4693 200.055 47.4668 200.329C47.446 202.73 47.6084 205.019 49.2546 206.893C51.6156 209.119 54.842 209.48 57.9459 209.443C58.352 209.439 58.7579 209.44 59.1641 209.441C62.5657 209.434 66.2392 209.035 68.7635 206.51C70.4855 204.249 70.7836 201.593 70.8793 198.848C70.8938 198.453 70.9093 198.058 70.9281 197.662C70.9448 197.309 70.9578 196.955 70.9705 196.601C71.0666 195.936 71.2312 195.57 71.6324 195.034C73.303 193.921 76.7028 194.823 78.6255 195.022C82.6233 195.434 86.5822 195.644 90.602 195.644C91.1986 195.644 91.7951 195.648 92.3916 195.651C96.0934 195.662 99.7322 195.345 103.394 194.819C103.878 194.75 104.363 194.682 104.847 194.615C105.054 194.585 105.26 194.555 105.473 194.525C107.008 194.357 107.008 194.357 107.829 194.783C108.403 195.266 108.525 195.479 108.738 196.182C108.786 196.807 108.786 196.807 108.79 197.513C108.794 197.776 108.798 198.039 108.802 198.302C108.806 198.709 108.809 199.116 108.81 199.524C108.824 202.372 109.134 205.134 111.224 207.275C113.588 209.237 116.847 209.417 119.783 209.425C120.194 209.427 120.606 209.433 121.018 209.439C124.235 209.463 127.514 209.106 129.93 206.796C131.276 205.268 131.733 203.383 131.745 201.386C131.746 201.244 131.747 201.103 131.749 200.958C131.752 200.493 131.753 200.027 131.753 199.562C131.755 199.231 131.757 198.9 131.758 198.569C131.763 197.503 131.762 196.436 131.761 195.369C131.761 195.188 131.761 195.006 131.761 194.819C131.759 188.801 131.584 182.851 130.924 176.864C130.882 176.468 130.839 176.071 130.797 175.674C129.965 167.992 128.809 160.117 126.334 152.765C126.217 152.096 126.186 151.502 126.521 150.896C126.953 150.351 127.384 149.902 128.055 149.705C128.75 149.642 129.252 149.652 129.908 149.896C130.918 150.769 131.258 152.151 131.575 153.407C131.614 153.555 131.652 153.704 131.692 153.857C131.774 154.172 131.855 154.487 131.936 154.802C132.061 155.293 132.189 155.783 132.317 156.273C132.721 157.824 133.1 159.374 133.425 160.944C133.821 162.88 133.821 162.88 135.09 164.351C135.23 164.441 135.37 164.531 135.514 164.624C135.658 164.727 135.802 164.831 135.951 164.938C138.481 166.626 141.559 166.984 144.512 166.403C146.601 165.861 148.449 164.928 149.668 163.093C150.631 161.284 150.404 159.21 149.859 157.308C147.398 149.337 141.045 142.101 133.821 138.063C132.21 137.215 130.577 136.839 128.781 136.609C128.047 136.47 127.653 136.236 127.099 135.743C126.79 135.125 126.796 134.498 126.908 133.83C127.687 132.744 128.668 132.585 129.933 132.363C130.059 132.344 130.185 132.324 130.315 132.304C132.151 132.02 133.868 131.528 135.622 130.925C135.759 130.879 135.897 130.832 136.038 130.785C138.057 130.1 139.974 129.344 141.826 128.284C142.085 128.144 142.345 128.006 142.605 127.867C150.095 123.844 155.735 116.916 158.187 108.783C158.425 107.955 158.644 107.125 158.849 106.288C158.88 106.169 158.912 106.05 158.945 105.928C159.648 103.12 159.692 100.177 159.685 97.2989C159.685 97.0434 159.685 97.0434 159.685 96.7828C159.678 93.8948 159.461 91.1397 158.849 88.3095C158.816 88.1498 158.783 87.9901 158.749 87.8255C158.103 84.7295 157.029 81.725 155.98 78.7464C155.934 78.601 155.889 78.4557 155.843 78.3059C155.606 77.6172 155.397 77.402 154.774 77.0026C154.52 76.8868 154.264 76.7749 154.007 76.6664C153.728 76.5376 153.45 76.4076 153.173 76.2764C152.963 76.1779 152.963 76.1779 152.75 76.0775C150.536 74.9823 148.543 73.3778 146.608 71.8609C146.501 71.7777 146.395 71.6945 146.286 71.6087C143.386 69.3076 140.744 66.6364 138.575 63.6366C138.482 63.5097 138.388 63.3827 138.293 63.252C131.474 53.932 124.809 40.0817 125.569 28.2529C115.157 22.552 102.437 21.0518 90.7384 21.1013C89.9587 21.1046 89.1791 21.1026 88.3994 21.0993C84.4316 21.0852 80.5463 21.2767 76.6053 21.7499Z" fill="black"/>
<path d="M150.157 29.4485C155.936 32.4039 161.602 36.8481 165.543 42.0238C165.644 42.1555 165.744 42.2872 165.848 42.4229C167.345 44.3866 168.748 46.3645 169.942 48.5267C170.03 48.6844 170.118 48.842 170.209 49.0044C173.013 54.0504 174.989 59.2014 175.01 65.0232C175.012 65.3953 175.012 65.3953 175.014 65.7748C174.977 68.4854 174.362 70.7896 172.49 72.7962C170.008 75.0488 166.775 75.1003 163.608 74.9598C156.059 74.4294 148.972 68.5177 144.189 63.0879C143.558 62.3395 142.971 61.5624 142.4 60.7676C142.313 60.6466 142.226 60.5256 142.136 60.4009C138.994 56.0044 136.492 51.2877 134.583 46.2311C134.379 45.6912 134.171 45.1534 133.962 44.6155C132.533 40.8805 131.405 36.979 130.733 33.0344C130.694 32.8478 130.655 32.6611 130.615 32.4688C130.39 31.321 130.307 30.1968 130.29 29.0298C130.287 28.8917 130.284 28.7535 130.28 28.6112C130.281 27.7532 130.394 27.2106 130.924 26.5314C135.709 22.9427 145.534 27.1864 150.157 29.4485Z" fill="#7D5232"/>
<path d="M43.0625 25.5274C43.4235 25.5252 43.4235 25.5252 43.7917 25.5229C47.3228 25.5304 47.3228 25.5304 48.6809 26.7228C49.0743 27.627 49.1305 28.4875 49.1232 29.4603C49.1218 29.6867 49.1218 29.6867 49.1203 29.9176C48.9883 36.7078 45.9987 43.9584 43.1517 49.9936C42.9434 50.4387 42.7413 50.8861 42.5403 51.3345C39.3609 58.3478 34.6118 64.7638 28.407 69.3745C28.2196 69.5175 28.0322 69.6605 27.8392 69.8079C24.9056 71.954 21.579 73.5736 18.0787 74.5387C17.9062 74.5889 17.7336 74.6392 17.5558 74.6911C15.4049 75.2252 12.8767 75.149 10.8107 74.3474C10.5704 74.2564 10.5704 74.2564 10.3251 74.1636C8.06305 73.1761 6.55282 71.2467 5.64663 68.992C5.13994 67.4056 4.97976 65.9179 5.00112 64.2583C5.00362 63.9319 5.00362 63.9319 5.00616 63.599C5.03586 61.8861 5.23352 60.3252 5.64663 58.6638C5.69767 58.4249 5.74871 58.186 5.80129 57.9398C7.14119 51.8322 10.3518 46.0902 14.2535 41.2588C14.4384 41.0155 14.4384 41.0155 14.627 40.7672C16.9484 37.7787 19.7735 35.2068 22.8603 33.0345C22.9764 32.9512 23.0925 32.8678 23.2121 32.782C27.6651 29.5994 32.8046 27.1411 38.1614 25.9578C38.3152 25.9226 38.4689 25.8874 38.6273 25.8511C40.1081 25.5437 41.554 25.5181 43.0625 25.5274Z" fill="#7D5232"/>
<path d="M94.7753 144.924C94.9491 144.99 95.123 145.057 95.302 145.126C99.6359 147.025 102.241 151.652 103.956 155.826C104.803 158.005 105.273 160.224 105.677 162.52C105.711 162.699 105.745 162.877 105.779 163.062C106.296 166.563 106.102 170.474 104.912 173.804C104.837 174.024 104.761 174.244 104.683 174.471C103.307 178.074 100.697 180.867 97.2162 182.493C92.6177 184.505 86.7107 184.289 82.0998 182.5C78.5329 181.038 76.0429 178.66 74.3766 175.194C71.805 168.962 72.9023 161.72 75.4219 155.658C76.4687 153.239 77.6908 150.9 79.4743 148.94C79.5568 148.848 79.6393 148.757 79.7244 148.662C83.6973 144.302 89.2547 142.694 94.7753 144.924Z" fill="#FFBB4D"/>
<path d="M101.213 143.081C103.567 145.068 105.307 147.409 106.825 150.088C106.887 150.198 106.95 150.308 107.015 150.421C108.936 153.855 110.047 157.69 110.65 161.563C110.683 161.774 110.683 161.774 110.717 161.988C111.675 168.29 110.792 175.207 107.061 180.522C103.444 185.182 98.8959 187.395 93.181 188.459C86.486 189.151 79.8457 187.815 74.5098 183.593C70.734 180.504 68.6779 175.927 68.1897 171.127C68.1206 170.056 68.1151 168.984 68.118 167.911C68.1181 167.766 68.1182 167.62 68.1183 167.47C68.1315 163.439 68.7726 159.635 70.1024 155.826C70.1452 155.701 70.188 155.577 70.2321 155.449C71.6591 151.387 73.8534 147.856 76.7966 144.732C76.9038 144.615 77.0111 144.498 77.1216 144.377C83.5326 137.609 94.1033 137.24 101.213 143.081ZM81.1956 147.219C81.0149 147.382 80.8342 147.545 80.648 147.713C77.2682 150.87 75.4124 155.086 74.1189 159.46C74.0605 159.652 74.002 159.845 73.9418 160.044C72.5064 165.241 72.3207 171.288 74.8429 176.189C77.0316 179.914 80.0762 181.926 84.1356 183.196C85.9274 183.638 87.6603 183.815 89.5036 183.798C89.7137 183.796 89.9237 183.795 90.1402 183.793C94.5537 183.735 98.5103 182.576 101.661 179.351C103.872 177.017 104.891 174.196 105.592 171.116C105.648 170.874 105.71 170.634 105.781 170.396C107.144 163.914 104.775 156.357 101.47 150.853C100.999 150.175 100.488 149.556 99.9395 148.94C99.7605 148.72 99.7605 148.72 99.5778 148.496C97.613 146.14 94.7668 144.438 91.7151 143.967C87.7777 143.611 84.1718 144.529 81.1956 147.219Z" fill="black"/>
<path d="M60.5332 79.8692C62.4907 80.7906 63.4892 82.1977 64.2209 84.1734C64.612 86.0635 64.3106 87.6458 63.3468 89.3225C62.6951 90.2698 61.9324 90.8361 60.9217 91.3696C61.2266 92.0346 61.6241 92.6018 62.0453 93.1986C63.3886 95.1928 63.8248 97.0853 63.8265 99.4505C63.8288 99.6233 63.8312 99.7962 63.8336 99.9742C63.8397 102.814 62.7377 105.386 60.7304 107.436C60.6042 107.436 60.4779 107.436 60.3479 107.436C60.2847 107.625 60.2216 107.814 60.1566 108.01C59.3185 108.873 58.1919 109.416 57.1323 109.958C56.949 110.054 56.949 110.054 56.762 110.151C54.8259 111.112 52.9678 111.363 50.8206 111.345C50.4656 111.343 50.4656 111.343 50.1034 111.341C48.4182 111.311 46.9944 111.155 45.4293 110.496C45.1631 110.399 45.1631 110.399 44.8914 110.299C41.9187 109.113 39.8153 106.866 38.4146 104.041C37.8025 102.539 37.4799 101.172 37.4919 99.5461C37.493 99.3715 37.4941 99.1968 37.4952 99.0169C37.5786 95.8292 39.1459 93.2739 41.4061 91.0977C42.3554 90.2913 43.382 89.6755 44.473 89.0745C44.6106 88.9941 44.7482 88.9137 44.8899 88.8309C46.8714 87.7374 49.2187 87.5091 51.4422 87.5324C51.6003 87.5333 51.7585 87.5341 51.9214 87.535C52.3076 87.5373 52.6937 87.5407 53.0799 87.5444C53.071 87.3158 53.0621 87.0873 53.053 86.8518C52.988 84.502 53.165 82.9757 54.8124 81.1931C56.4351 79.6944 58.3928 79.2412 60.5332 79.8692Z" fill="#F4A99C"/>
<path d="M122.58 80.0972C124.172 81.0208 125.082 82.2082 125.76 83.9105C126.109 85.2277 126 86.5995 125.76 87.927C125.955 87.924 125.955 87.924 126.154 87.921C126.752 87.9129 127.35 87.908 127.948 87.9031C128.152 87.8999 128.357 87.8967 128.567 87.8934C132.222 87.8711 135.677 89.3605 138.335 91.8688C140.483 94.1468 141.549 96.8324 141.524 99.9622C141.411 103.104 139.982 105.635 137.81 107.818C137.696 107.938 137.583 108.058 137.467 108.182C135.043 110.546 131.385 111.577 128.081 111.543C126.535 111.487 125.122 111.163 123.656 110.687C123.356 110.593 123.356 110.593 123.05 110.498C119.784 109.315 117.596 106.736 116.091 103.705C115.521 102.327 115.362 101.105 115.372 99.63C115.373 99.4609 115.374 99.2919 115.375 99.1178C115.429 96.2238 116.642 93.8904 118.301 91.561C118.162 91.4874 118.162 91.4874 118.02 91.4124C116.625 90.6159 115.23 89.4153 114.744 87.8292C114.404 85.7259 114.527 83.7816 115.7 81.965C117.336 79.8365 120.101 78.9702 122.58 80.0972Z" fill="#F4A99C"/>
<path d="M160.379 140.142C162.761 142.147 164.37 144.512 165.543 147.41C165.597 147.539 165.652 147.669 165.708 147.802C167.516 152.578 167.17 158.822 165.16 163.476C161.939 170.472 155.99 175.733 148.812 178.472C144.7 179.959 140.457 180.657 136.088 180.498C135.798 179.48 135.744 178.419 135.637 177.369C135.598 176.986 135.558 176.604 135.518 176.222C135.493 175.979 135.468 175.736 135.442 175.485C135.408 175.153 135.408 175.153 135.373 174.814C135.326 174.219 135.314 173.636 135.323 173.039C135.478 172.983 135.633 172.928 135.793 172.87C136.852 172.478 137.791 172.108 138.718 171.461C140.014 170.709 141.427 170.84 142.882 170.818C144.679 170.779 146.096 170.486 147.755 169.788C147.986 169.693 148.217 169.598 148.455 169.501C151.265 168.229 153.17 166.278 154.306 163.404C154.561 162.674 154.683 162.008 154.76 161.241C154.937 160.007 155.508 159.164 156.179 158.146C159.693 152.804 160.174 146.365 160.379 140.142Z" fill="#7D5232"/>
<path d="M97.5248 86.7317C98.4669 87.489 99.1751 88.5031 99.5569 89.6485C99.676 91.167 99.2814 92.2174 98.3376 93.3901C96.9064 94.9106 94.9031 95.7938 92.8627 96.1514C92.6102 96.1514 92.3578 96.1514 92.0977 96.1514C92.102 97.0123 92.1169 97.8727 92.1335 98.7335C92.1346 98.9761 92.1357 99.2187 92.1369 99.4686C92.1703 100.894 92.2593 101.957 93.2452 103.037C94.391 104.107 95.9445 104.138 97.4318 104.118C99.7561 104.003 101.191 102.877 102.737 101.255C103.037 100.915 103.329 100.567 103.609 100.211C103.978 99.7583 104.139 99.6185 104.712 99.5486C105.775 99.5142 106.368 99.6424 107.207 100.359C107.731 101.144 107.725 101.733 107.59 102.654C106.773 105.106 104.233 106.886 102.043 108.01C101.352 108.303 100.657 108.553 99.9395 108.775C99.7501 108.838 99.5608 108.901 99.3657 108.966C95.8586 109.225 93.0398 109.17 90.2082 106.93C89.7753 106.602 89.7753 106.602 89.0374 106.671C88.6023 106.937 88.6023 106.937 88.1648 107.293C87.1745 108.018 86.1868 108.414 85.0209 108.775C84.7369 108.869 84.7369 108.869 84.4471 108.966C80.6458 109.287 77.5119 108.959 74.5014 106.48C74.2781 106.302 74.2781 106.302 74.0502 106.122C72.724 105.016 71.3589 103.618 71.1902 101.83C71.261 100.994 71.4905 100.621 72.015 99.9767C72.8699 99.4068 73.6909 99.4563 74.6927 99.5942C75.1948 99.9528 75.1948 99.9528 75.649 100.55C77.0046 102.19 78.5671 103.781 80.7988 104.035C81.2069 104.058 81.6117 104.066 82.0205 104.065C82.1641 104.065 82.3078 104.065 82.4558 104.065C83.5821 104.042 84.4348 103.817 85.4034 103.228C85.5395 103.167 85.6756 103.105 85.8159 103.041C86.3179 102.763 86.3781 102.421 86.551 101.889C86.6141 101.763 86.6773 101.637 86.7423 101.507C86.7718 101.104 86.7901 100.701 86.8028 100.298C86.8108 100.058 86.8188 99.8172 86.8271 99.5695C86.8346 99.3173 86.8421 99.0651 86.8499 98.8052C86.8581 98.5489 86.8665 98.2927 86.8749 98.0364C86.8952 97.4081 86.9148 96.7798 86.9335 96.1514C86.6392 96.1163 86.6392 96.1163 86.3388 96.0804C84.1812 95.7317 82.0415 94.7175 80.6256 93.0195C79.833 91.8749 79.4902 90.8702 79.6655 89.4572C80.1037 87.9295 81.3051 86.94 82.6017 86.1086C83.8504 85.4293 85.1619 85.1278 86.551 84.8669C86.7256 84.8314 86.9001 84.7959 87.08 84.7593C90.6218 84.2802 94.5146 84.6736 97.5248 86.7317Z" fill="black"/>
<path d="M122.58 80.0972C124.172 81.0208 125.082 82.2082 125.76 83.9105C125.915 84.4962 125.915 84.4962 125.951 85.0581C125.965 85.1784 125.979 85.2987 125.994 85.4227C126.104 86.985 125.503 88.6661 124.577 89.9233C123.044 91.3198 121.624 91.8363 119.572 91.8173C118.064 91.6768 116.92 90.9159 115.904 89.821C114.622 88.1602 114.486 86.3185 114.667 84.293C115.016 82.6782 115.927 81.429 117.28 80.5006C119.001 79.5289 120.743 79.2622 122.58 80.0972Z" fill="black"/>
<path d="M60.5332 79.8692C62.4907 80.7906 63.4892 82.1977 64.221 84.1734C64.6134 86.07 64.296 87.6227 63.3603 89.3158C62.5983 90.4522 61.4697 91.2606 60.1641 91.6819C58.2595 92.0249 56.7881 91.6829 55.1838 90.6046C54.1255 89.6929 53.3379 88.3485 53.0799 86.9706C52.927 84.8178 53.0816 83.2755 54.4665 81.5674C56.0998 79.8001 58.1953 79.1832 60.5332 79.8692Z" fill="black"/>
<path d="M89.8981 138.982C90.0554 138.983 90.2127 138.984 90.3748 138.985C90.7578 138.987 91.1409 138.991 91.5239 138.994C91.5239 139.121 91.5239 139.247 91.5239 139.377C91.3511 139.389 91.1782 139.4 91.0002 139.412C90.7746 139.428 90.549 139.444 90.3165 139.461C90.0924 139.476 89.8683 139.492 89.6374 139.508C89.0325 139.547 89.0325 139.547 88.4637 139.759C87.9158 139.817 87.3679 139.857 86.8185 139.897C86.3694 139.902 86.3694 139.902 86.1685 140.142C85.6577 140.169 85.1502 140.15 84.6384 140.142C84.5753 140.016 84.5122 139.89 84.4471 139.759C84.7655 139.666 85.0844 139.575 85.4035 139.485C85.581 139.433 85.7585 139.382 85.9414 139.33C87.2657 139.017 88.5448 138.968 89.8981 138.982Z" fill="black"/>
<path d="M96.8912 108.93C97.1487 108.927 97.1487 108.927 97.4115 108.923C97.5773 108.923 97.7431 108.922 97.914 108.922C98.0641 108.921 98.2143 108.92 98.369 108.919C98.8386 108.971 99.1499 109.114 99.5569 109.348C99.0378 109.608 98.6296 109.561 98.0492 109.558C97.8261 109.558 97.6029 109.557 97.3731 109.556C97.1391 109.555 96.9051 109.553 96.664 109.552C96.4286 109.551 96.1931 109.55 95.9505 109.549C95.3675 109.547 94.7845 109.544 94.2015 109.54C94.1384 109.413 94.0753 109.287 94.0103 109.157C94.9633 108.908 95.9135 108.931 96.8912 108.93Z" fill="#F2D3A3"/>
<path d="M107.207 194.269C107.271 194.396 107.334 194.522 107.399 194.652C107.154 194.676 106.91 194.699 106.658 194.724C105.993 194.784 105.993 194.784 105.486 195.226C104.945 195.27 104.945 195.27 104.291 195.262C103.97 195.26 103.97 195.26 103.642 195.258C103.031 195.227 102.453 195.148 101.852 195.035C101.852 194.971 101.852 194.908 101.852 194.843C102.529 194.746 103.207 194.651 103.884 194.556C104.075 194.529 104.266 194.502 104.463 194.473C105.385 194.345 106.274 194.231 107.207 194.269Z" fill="black"/>
<path d="M158.849 91.561C159.038 91.561 159.227 91.561 159.422 91.561C159.602 92.9073 159.634 94.2201 159.614 95.5776C158.959 94.595 158.802 94.058 158.825 92.8521C158.828 92.6104 158.832 92.3688 158.835 92.1199C158.84 91.9355 158.844 91.751 158.849 91.561Z" fill="#F2D3A3"/>
<path d="M31.2759 152.957C31.3391 153.083 31.4022 153.209 31.4672 153.339C31.3252 153.719 31.3252 153.719 31.1086 154.164C30.8159 154.79 30.6362 155.336 30.5109 156.017C30.3349 156.471 30.1376 156.911 29.9371 157.356C29.707 157.069 29.707 157.069 29.5546 156.591C29.7371 156.045 29.9302 155.564 30.1762 155.048C30.2385 154.911 30.3009 154.773 30.3652 154.631C30.6383 154.036 30.911 153.504 31.2759 152.957Z" fill="#F2D3A3"/>
<path d="M125.377 83.5278C126.05 84.2006 125.962 85.0825 125.963 85.9903C125.96 86.2533 125.956 86.5163 125.951 86.7793C125.825 86.8424 125.699 86.9055 125.569 86.9706C124.873 84.5363 124.873 84.5363 125.377 83.5278Z" fill="black"/>
<path d="M111.224 167.684C111.287 167.684 111.35 167.684 111.415 167.684C111.415 168.757 111.415 169.83 111.415 170.935C111.163 170.935 110.91 170.935 110.65 170.935C110.672 170.501 110.696 170.067 110.722 169.632C110.735 169.39 110.748 169.149 110.762 168.899C110.841 168.258 110.841 168.258 111.224 167.684Z" fill="#F2D3A3"/>
<path d="M29.5545 158.694C29.6176 158.694 29.6808 158.694 29.7458 158.694C29.7662 159.926 29.7385 161.109 29.5545 162.328C29.172 162.137 29.172 162.137 29.0532 161.799C28.9761 161.345 28.962 160.924 28.9688 160.464C28.9705 160.311 28.9722 160.158 28.974 160C28.9762 159.885 28.9785 159.77 28.9807 159.651C29.107 159.651 29.2332 159.651 29.3633 159.651C29.4264 159.335 29.4895 159.019 29.5545 158.694Z" fill="#F2D3A3"/>
<path d="M34.7186 147.792C34.7186 148.853 34.2664 149.463 33.5591 150.219C33.0234 150.779 33.0234 150.779 32.6147 151.426C32.4885 151.363 32.3622 151.3 32.2322 151.235C33.8124 148.812 33.8124 148.812 34.7186 147.792Z" fill="#F2D3A3"/>
<path d="M79.283 21.5585C79.283 21.7479 79.283 21.9372 79.283 22.1323C78.3171 22.3304 77.3944 22.3432 76.4141 22.3236C76.4772 22.1342 76.5403 21.9449 76.6053 21.7498C77.5088 21.6251 78.3687 21.5356 79.283 21.5585Z" fill="#F2D3A3"/>
<path d="M114.858 83.5278C115.377 84.2883 115.283 85.0845 115.264 85.9664C115.263 86.1181 115.261 86.2697 115.259 86.4259C115.255 86.7988 115.248 87.1716 115.24 87.5444C114.785 86.8606 114.779 86.4573 114.726 85.6437C114.71 85.4092 114.693 85.1747 114.676 84.9332C114.668 84.4042 114.693 84.0236 114.858 83.5278Z" fill="black"/>
<path d="M60.5392 25.7664C60.0329 26.0457 59.7943 26.1489 59.2004 26.1489C59.2004 26.2751 59.2004 26.4014 59.2004 26.5314C58.7084 26.8412 58.4972 26.9224 57.9093 26.8422C57.7673 26.8028 57.6253 26.7633 57.479 26.7227C57.911 26.2313 58.2823 26.0188 58.9015 25.8142C59.0472 25.7639 59.1929 25.7136 59.3431 25.6618C59.8134 25.5672 60.0891 25.6146 60.5392 25.7664Z" fill="#F2D3A3"/>
<path d="M70.2937 198.86C70.3568 198.86 70.4199 198.86 70.4849 198.86C70.5273 199.358 70.5668 199.856 70.6045 200.354C70.6168 200.495 70.6291 200.636 70.6418 200.782C70.7195 201.855 70.7195 201.855 70.2937 202.494C70.1595 202.874 70.0309 203.256 69.9111 203.641C69.6769 202.939 69.7721 202.518 69.8872 201.788C69.9237 201.55 69.9602 201.312 69.9978 201.067C70.0323 200.844 70.0668 200.62 70.1024 200.39C70.1703 199.88 70.2324 199.37 70.2937 198.86Z" fill="#F2D3A3"/>
<path d="M49.6371 167.875C49.7003 167.875 49.7634 167.875 49.8284 167.875C50.0333 168.756 49.9675 169.158 49.6371 169.979C49.555 170.411 49.4836 170.846 49.422 171.282C49.3899 171.504 49.3579 171.726 49.3248 171.955C49.3017 172.123 49.2785 172.292 49.2546 172.465C49.1915 172.465 49.1284 172.465 49.0633 172.465C49.014 171.01 48.9741 169.201 49.6371 167.875Z" fill="#F2D3A3"/>
<path d="M79.8568 89.0745C79.9831 89.1376 80.1093 89.2007 80.2393 89.2657C80.2497 89.6083 80.2571 89.951 80.2633 90.2938C80.2677 90.4846 80.2721 90.6754 80.2767 90.872C80.2393 91.3696 80.2393 91.3696 79.8568 91.7521C79.602 90.9877 79.6398 90.254 79.6656 89.457C79.7287 89.3308 79.7918 89.2045 79.8568 89.0745Z" fill="black"/>
<path d="M170.707 161.563C170.988 162.012 171.104 162.234 171.021 162.766C170.969 162.914 170.916 163.061 170.862 163.213C170.812 163.362 170.762 163.51 170.711 163.663C170.516 164.05 170.516 164.05 169.942 164.432C169.981 164.289 170.02 164.146 170.061 163.999C170.112 163.811 170.164 163.622 170.217 163.428C170.268 163.242 170.319 163.056 170.371 162.863C170.488 162.431 170.6 161.998 170.707 161.563Z" fill="#ECECEB"/>
<path d="M161.144 79.3201C161.692 79.4297 161.882 79.4848 162.291 79.8939C162.165 79.8939 162.039 79.8939 161.909 79.8939C161.972 80.095 162.035 80.2962 162.1 80.5035C162.261 81.1158 162.329 81.5657 162.291 82.189C161.9 81.6019 161.718 81.1006 161.502 80.4318C161.435 80.2239 161.367 80.0161 161.298 79.802C161.247 79.6429 161.196 79.4839 161.144 79.3201Z" fill="#ECECEB"/>
<path d="M131.115 201.92C131.242 201.983 131.368 202.046 131.498 202.111C131.57 203.297 131.466 204.109 130.924 205.171C130.616 204.555 130.826 203.919 130.924 203.259C130.96 203.004 130.996 202.749 131.032 202.494C131.059 202.304 131.087 202.115 131.115 201.92Z" fill="#F2D3A3"/>
<path d="M111.224 162.52C111.287 162.52 111.35 162.52 111.415 162.52C111.415 163.656 111.415 164.792 111.415 165.963C111.352 165.963 111.289 165.963 111.224 165.963C111.161 165.584 111.098 165.205 111.033 164.815C110.97 164.815 110.907 164.815 110.841 164.815C110.801 163.96 110.92 163.319 111.224 162.52Z" fill="#F2D3A3"/>
<path d="M17.3137 79.1289C17.6293 79.1289 17.9449 79.1289 18.27 79.1289C18.1836 79.4361 18.0956 79.7428 18.0071 80.0494C17.9582 80.2202 17.9094 80.3911 17.8591 80.5671C17.6962 81.0415 17.6962 81.0415 17.3137 81.6153C17.3297 81.4679 17.3458 81.3205 17.3623 81.1686C17.3915 80.8808 17.3915 80.8808 17.4213 80.5873C17.4413 80.3965 17.4612 80.2056 17.4818 80.009C17.5454 79.5145 17.5454 79.5145 17.3137 79.1289Z" fill="#ECECEB"/>
<path d="M146.034 166.154C145.528 166.433 145.289 166.536 144.695 166.536C144.695 166.662 144.695 166.789 144.695 166.919C144.127 166.824 144.127 166.824 143.547 166.727C143.611 166.601 143.674 166.475 143.739 166.345C145.201 165.89 145.201 165.89 146.034 166.154Z" fill="black"/>
<path d="M42.3692 165.962C42.243 165.962 42.1167 165.962 41.9867 165.962C41.9867 166.089 41.9867 166.215 41.9867 166.345C41.2095 166.493 40.4825 166.555 39.6915 166.536C41.4288 165.601 41.4288 165.601 42.3692 165.962Z" fill="black"/>
<path d="M29.3632 74.3474C29.4894 74.4105 29.6157 74.4736 29.7457 74.5387C29.0781 75.3045 28.6652 75.6149 27.6418 75.6863C28.1667 75.1226 28.6715 74.6933 29.3632 74.3474Z" fill="#F2D3A3"/>
<path d="M101.278 21.176C101.589 21.1657 101.9 21.1583 102.211 21.1521C102.384 21.1477 102.557 21.1432 102.735 21.1387C103.191 21.176 103.191 21.176 103.573 21.5586C102.73 21.7694 101.951 21.7645 101.087 21.7498C101.15 21.5605 101.213 21.3711 101.278 21.176Z" fill="black"/>
<path d="M76.7017 21.1575C76.9912 21.1608 76.9912 21.1608 77.2867 21.1642C77.4802 21.1659 77.6737 21.1676 77.8732 21.1694C78.0976 21.1728 78.0976 21.1728 78.3267 21.1761C78.2635 21.3655 78.2004 21.5549 78.1354 21.7499C76.7146 21.8046 76.7146 21.8046 76.0315 21.3674C76.2228 21.1761 76.2228 21.1761 76.7017 21.1575Z" fill="black"/>
<path d="M45.8119 160.607C46.1944 161.181 46.1944 161.181 46.1466 161.647C46.0133 162.103 45.8506 162.488 45.6206 162.902C45.3422 162.037 45.5689 161.464 45.8119 160.607Z" fill="black"/>
<path d="M69.146 158.886C69.5285 159.46 69.5285 159.46 69.4807 159.914C69.3369 160.417 69.1609 160.891 68.9547 161.372C68.7495 160.746 68.784 160.334 68.9428 159.699C68.98 159.546 69.0173 159.393 69.0556 159.235C69.0854 159.12 69.1153 159.005 69.146 158.886Z" fill="black"/>
<path d="M75.0752 21.5586C75.0752 21.7479 75.0752 21.9373 75.0752 22.1323C74.2232 22.227 74.2232 22.227 73.3539 22.3236C73.2907 22.1343 73.2276 21.9449 73.1626 21.7498C73.8269 21.5284 74.3792 21.5454 75.0752 21.5586Z" fill="black"/>
<path d="M72.6366 194.52C72.7471 194.564 72.8575 194.607 72.9713 194.652C72.3593 195.176 71.8228 195.537 71.0587 195.799C71.3636 195.063 71.7607 194.399 72.6366 194.52Z" fill="black"/>
<path d="M48.4896 171.318C48.9543 172.015 48.9031 172.41 48.8721 173.231C48.6828 173.231 48.4934 173.231 48.2983 173.231C48.2932 172.948 48.2895 172.665 48.2864 172.382C48.2842 172.224 48.2819 172.067 48.2797 171.904C48.2983 171.509 48.2983 171.509 48.4896 171.318Z" fill="black"/>
<path d="M87.198 138.574C87.3711 138.579 87.5442 138.583 87.7225 138.588C87.9836 138.593 87.9836 138.593 88.25 138.598C88.3836 138.603 88.5172 138.607 88.6549 138.612C88.424 138.902 88.424 138.902 88.0811 139.186C87.6485 139.2 87.6485 139.2 87.1846 139.126C86.9527 139.091 86.9527 139.091 86.7161 139.056C86.5985 139.036 86.4809 139.015 86.3597 138.994C86.7423 138.612 86.7423 138.612 87.198 138.574Z" fill="#F2D3A3"/>
<path d="M49.8285 166.919C50.211 167.301 50.211 167.301 50.2588 167.875C50.211 168.449 50.211 168.449 49.8285 168.831C49.7913 168.549 49.7558 168.266 49.7209 167.983C49.7009 167.825 49.6809 167.668 49.6604 167.505C49.6527 167.375 49.6451 167.244 49.6372 167.11C49.7003 167.047 49.7634 166.984 49.8285 166.919Z" fill="#F2D3A3"/>
<path d="M39.5002 165.771C40.1314 165.771 40.7626 165.771 41.4129 165.771C40.8379 166.346 40.299 166.268 39.5002 166.345C39.5002 166.156 39.5002 165.966 39.5002 165.771Z" fill="#F2D3A3"/>
<path d="M115.814 209.188C116.256 209.188 116.698 209.188 117.153 209.188C117.153 209.377 117.153 209.567 117.153 209.762C116.711 209.762 116.27 209.762 115.814 209.762C115.814 209.572 115.814 209.383 115.814 209.188Z" fill="black"/>
<path d="M130.924 131.726C130.861 131.916 130.798 132.105 130.733 132.3C130.102 132.237 129.47 132.174 128.82 132.109C129.627 131.706 130.044 131.692 130.924 131.726Z" fill="#F2D3A3"/>
<path d="M60.3479 20.6023C59.6427 21.0724 59.067 21.1784 58.244 21.3673C58.3071 21.178 58.3703 20.9886 58.4353 20.7935C59.0867 20.6446 59.68 20.5832 60.3479 20.6023Z" fill="#ECECEB"/>
<path d="M110.076 171.126C110.266 171.19 110.455 171.253 110.65 171.318C110.587 171.696 110.524 172.075 110.459 172.465C110.27 172.465 110.08 172.465 109.885 172.465C109.948 172.023 110.011 171.582 110.076 171.126Z" fill="black"/>
<path d="M144.886 165.771C144.823 165.961 144.76 166.15 144.695 166.345C144.064 166.282 143.433 166.219 142.782 166.154C142.782 166.091 142.782 166.027 142.782 165.962C143.497 165.794 144.153 165.754 144.886 165.771Z" fill="#F2D3A3"/>
<path d="M46.7682 156.782C47.1132 157.309 47.1531 157.526 47.079 158.168C47.0395 158.342 47.0001 158.516 46.9594 158.694C46.8332 158.568 46.707 158.442 46.5769 158.312C46.5832 157.79 46.6848 157.299 46.7682 156.782Z" fill="black"/>
<path d="M124.11 90.4613C124.213 90.5086 124.316 90.556 124.421 90.6047C123.431 91.2211 123.431 91.2211 123.082 91.3698C122.893 91.3067 122.704 91.2435 122.509 91.1785C123.544 90.4017 123.544 90.4017 124.11 90.4613Z" fill="#F4A99C"/>
<path d="M21.5214 84.8667C21.6477 84.9298 21.7739 84.9929 21.904 85.058C21.7938 85.5142 21.6702 85.9506 21.5214 86.3968C21.3952 86.3968 21.269 86.3968 21.1389 86.3968C21.3063 85.0819 21.3063 85.0819 21.5214 84.8667Z" fill="#F2D3A3"/>
<path d="M159.422 177.629C159.422 177.819 159.422 178.008 159.422 178.203C159.076 178.538 159.076 178.538 158.657 178.777C158.468 178.714 158.279 178.651 158.083 178.586C158.525 178.27 158.967 177.955 159.422 177.629Z" fill="#ECECEB"/>
<path d="M47.1507 155.443C47.4605 155.935 47.5417 156.146 47.4615 156.734C47.4221 156.876 47.3826 157.018 47.342 157.164C47.2158 157.038 47.0895 156.912 46.9595 156.782C47.0312 156.088 47.0312 156.088 47.1507 155.443Z" fill="black"/>
<path d="M154.641 116.234C154.83 116.234 155.019 116.234 155.215 116.234C155.071 116.7 155.071 116.7 154.832 117.19C154.426 117.346 154.426 117.346 154.067 117.381C154.256 117.003 154.446 116.624 154.641 116.234Z" fill="black"/>
<path d="M77.5181 64.9751C79.939 67.1064 81.8196 70.4361 82.1759 73.6859C82.5657 80.0705 80.0814 85.4646 75.9282 90.2322C75.5088 90.6944 75.0816 91.1478 74.6518 91.6003C74.4604 91.8232 74.27 92.0471 74.0808 92.2721C73.3381 93.13 72.5223 93.918 71.7126 94.712C71.1687 95.2486 70.6433 95.7901 70.1474 96.3715C69.3895 97.2422 68.584 98.0619 67.7716 98.8815C67.6133 99.0412 67.4551 99.2009 67.292 99.3655C66.9592 99.7007 66.6262 100.036 66.2929 100.37C65.868 100.797 65.4452 101.226 65.0228 101.656C64.6157 102.069 64.2061 102.479 63.7969 102.89C63.6466 103.043 63.4964 103.197 63.3415 103.355C62.3709 104.322 61.6369 104.921 60.2532 105.126C58.8971 104.939 57.8429 104.045 56.7529 103.267C55.6173 102.485 54.4386 101.768 53.2709 101.035C52.2986 100.423 51.3303 99.8056 50.3621 99.1876C49.5267 98.6546 48.6898 98.1244 47.8489 97.6002C44.8055 95.6969 41.8372 93.6676 39.1814 91.242C39.0782 91.1479 38.9751 91.0538 38.8688 90.9568C35.7046 88.03 33.2126 84.2783 33.0066 79.8524C33.0005 79.454 32.9987 79.0556 33.001 78.6572C33.002 78.4466 33.003 78.2361 33.0041 78.0192C33.0748 74.5515 34.3652 71.626 36.6734 69.0282C36.7745 68.9143 36.8757 68.8005 36.9799 68.6832C39.0947 66.4442 42.1005 64.9974 45.1757 64.8652C49.3453 64.7702 52.711 65.88 55.8418 68.6699C56.139 68.9104 56.4373 69.1497 56.7375 69.3865C56.8523 69.22 56.967 69.0535 57.0853 68.8819C59.4523 65.4813 62.661 62.8712 66.8444 62.12C70.7187 61.6468 74.4216 62.5685 77.5181 64.9751Z" fill="#FF6060"/>
<path d="M118.363 64.7287C119.659 65.7328 120.714 66.8629 121.638 68.2206C121.958 68.6882 122.304 69.1268 122.662 69.5656C122.75 69.4679 122.837 69.3702 122.927 69.2696C125.213 66.8381 128.5 64.9714 131.886 64.854C135.643 64.8157 138.617 65.5934 141.472 68.1325C141.65 68.2852 141.65 68.2852 141.831 68.4411C144.157 70.5842 145.78 73.9152 145.985 77.0692C145.999 77.6139 146 78.157 145.996 78.7019C145.997 78.8839 145.999 79.0659 146 79.2534C145.988 83.7966 143.685 87.4963 140.633 90.7046C137.929 93.3231 134.628 95.4395 131.462 97.449C130.814 97.8618 130.17 98.2807 129.526 98.6988C129.27 98.8645 129.014 99.0301 128.757 99.1957C128.318 99.4799 127.878 99.7645 127.439 100.049C126.451 100.688 125.459 101.318 124.461 101.94C124.27 102.059 124.079 102.178 123.882 102.3C123.502 102.537 123.121 102.773 122.741 103.009C121.984 103.479 121.237 103.946 120.522 104.478C120.032 104.818 119.762 104.987 119.18 105.047C119.059 105.064 118.937 105.081 118.811 105.098C117.539 104.922 116.601 104.095 115.734 103.208C115.624 103.099 115.514 102.989 115.401 102.876C115.041 102.516 114.683 102.154 114.326 101.792C114.074 101.539 113.822 101.287 113.57 101.034C113.043 100.506 112.517 99.9762 111.992 99.4457C111.322 98.7688 110.65 98.0938 109.978 97.4195C109.333 96.7726 108.689 96.1249 108.045 95.4771C107.923 95.355 107.802 95.233 107.677 95.1072C106.485 93.9081 105.303 92.7132 104.211 91.4211C103.961 91.1519 103.711 90.8831 103.46 90.615C101.621 88.5657 100.078 86.3541 98.8362 83.8971C98.7773 83.7817 98.7184 83.6663 98.6578 83.5475C96.8009 79.8384 96.2045 75.5528 97.4031 71.5362C98.0289 69.7308 98.8796 68.185 100.09 66.6993C100.176 66.5843 100.262 66.4693 100.351 66.3508C104.689 60.7905 113.009 61.053 118.363 64.7287Z" fill="#FF6060"/>
<path d="M118.363 64.7287C119.659 65.7328 120.714 66.8629 121.638 68.2206C121.958 68.6882 122.304 69.1268 122.662 69.5656C122.75 69.4679 122.837 69.3702 122.927 69.2696C125.213 66.8381 128.5 64.9714 131.886 64.854C135.643 64.8157 138.617 65.5934 141.472 68.1325C141.65 68.2852 141.65 68.2852 141.831 68.4411C144.157 70.5842 145.78 73.9152 145.985 77.0692C145.999 77.6139 146 78.157 145.996 78.7019C145.997 78.8839 145.999 79.0659 146 79.2534C145.988 83.7966 143.685 87.4963 140.633 90.7046C137.929 93.3231 134.628 95.4395 131.462 97.449C130.814 97.8618 130.17 98.2807 129.526 98.6988C129.27 98.8645 129.014 99.0301 128.757 99.1957C128.318 99.4799 127.878 99.7645 127.439 100.049C126.451 100.688 125.459 101.318 124.461 101.94C124.27 102.059 124.079 102.178 123.882 102.3C123.502 102.537 123.121 102.773 122.741 103.009C121.984 103.479 121.237 103.946 120.522 104.478C120.032 104.818 119.762 104.987 119.18 105.047C119.059 105.064 118.937 105.081 118.811 105.098C117.539 104.922 116.601 104.095 115.734 103.208C115.624 103.099 115.514 102.989 115.401 102.876C115.041 102.516 114.683 102.154 114.326 101.792C114.074 101.539 113.822 101.287 113.57 101.034C113.043 100.506 112.517 99.9762 111.992 99.4457C111.322 98.7688 110.65 98.0938 109.978 97.4195C109.333 96.7726 108.689 96.1249 108.045 95.4771C107.923 95.355 107.802 95.233 107.677 95.1072C106.485 93.9081 105.303 92.7132 104.211 91.4211C103.961 91.1519 103.711 90.8831 103.46 90.615C101.621 88.5657 100.078 86.3541 98.8362 83.8971C98.7773 83.7817 98.7184 83.6663 98.6578 83.5475C96.8009 79.8384 96.2045 75.5528 97.4031 71.5362C98.0289 69.7308 98.8796 68.185 100.09 66.6993C100.176 66.5843 100.262 66.4693 100.351 66.3508C104.689 60.7905 113.009 61.053 118.363 64.7287ZM104.569 68.849C104.454 68.9386 104.34 69.0282 104.222 69.1206C102.932 70.2583 101.819 72.4019 101.664 74.1127C101.406 79.9714 103.968 84.0012 107.793 88.1965C108.106 88.5215 108.422 88.8391 108.748 89.151C109.044 89.4467 109.312 89.7537 109.582 90.0727C110.374 90.9828 111.223 91.8327 112.078 92.6833C112.35 92.9546 112.621 93.2268 112.892 93.4991C113.745 94.3528 114.609 95.1833 115.526 95.9685C116.1 96.4739 116.63 97.0218 117.165 97.568C117.38 97.7879 117.596 98.0074 117.812 98.2265C117.952 98.3693 117.952 98.3693 118.094 98.515C118.519 98.9117 118.779 99.1252 119.371 99.1208C120.219 98.8743 120.861 98.4208 121.587 97.9263C121.908 97.7131 122.228 97.5001 122.548 97.2874C122.714 97.1767 122.88 97.0661 123.05 96.9521C123.88 96.4031 124.721 95.8719 125.562 95.3399C125.894 95.1289 126.227 94.9178 126.559 94.7066C126.718 94.6054 126.877 94.5042 127.041 94.4C135.939 89.1972 135.939 89.1972 141.17 80.7509C141.668 78.1189 141.077 75.4278 139.58 73.2269C138.276 71.5149 136.606 70.218 134.486 69.7448C132.65 69.6337 130.959 69.588 129.291 70.4613C129.052 70.5857 129.052 70.5857 128.809 70.7125C126.755 71.9061 125.197 73.5472 124.132 75.6586C123.674 76.522 123.228 76.8026 122.304 77.0896C121.486 77.2212 120.704 77.1387 119.975 76.7314C119.592 76.1568 119.569 75.9317 119.505 75.2646C119.145 72.962 117.881 70.9747 116.213 69.3865C116.095 69.2692 115.977 69.1518 115.856 69.031C113.929 67.2168 111.731 66.7675 109.168 66.8232C107.337 66.9113 105.974 67.7207 104.569 68.849Z" fill="black"/>
<path d="M77.5181 64.9751C79.939 67.1064 81.8196 70.4361 82.1759 73.6859C82.5657 80.0705 80.0814 85.4646 75.9282 90.2322C75.5089 90.6944 75.0816 91.1478 74.6518 91.6003C74.4604 91.8232 74.27 92.0471 74.0808 92.2721C73.3381 93.13 72.5223 93.918 71.7126 94.712C71.1687 95.2486 70.6433 95.7901 70.1474 96.3715C69.3895 97.2422 68.584 98.0619 67.7716 98.8815C67.6133 99.0412 67.4551 99.2009 67.292 99.3655C66.9592 99.7007 66.6262 100.036 66.2929 100.37C65.868 100.797 65.4452 101.226 65.0228 101.656C64.6157 102.069 64.2061 102.479 63.7969 102.89C63.6466 103.043 63.4964 103.197 63.3415 103.355C62.3709 104.322 61.6369 104.921 60.2532 105.126C58.8971 104.939 57.8429 104.045 56.7529 103.267C55.6173 102.485 54.4386 101.768 53.2709 101.035C52.2986 100.423 51.3303 99.8056 50.3621 99.1876C49.5267 98.6546 48.6898 98.1244 47.8489 97.6002C44.8055 95.6969 41.8372 93.6676 39.1814 91.242C39.0782 91.1479 38.9751 91.0538 38.8688 90.9568C35.7046 88.03 33.2126 84.2783 33.0066 79.8524C33.0005 79.454 32.9987 79.0556 33.001 78.6572C33.002 78.4466 33.003 78.2361 33.0041 78.0192C33.0748 74.5515 34.3652 71.626 36.6734 69.0282C36.7745 68.9143 36.8757 68.8005 36.9799 68.6832C39.0947 66.4442 42.1005 64.9974 45.1757 64.8652C49.3453 64.7702 52.711 65.88 55.8418 68.6699C56.139 68.9104 56.4373 69.1497 56.7375 69.3865C56.8523 69.22 56.967 69.0535 57.0853 68.8819C59.4523 65.4813 62.661 62.8712 66.8444 62.12C70.7187 61.6468 74.4216 62.5685 77.5181 64.9751ZM61.9319 70.3228C60.6622 71.875 59.8064 73.6203 59.6654 75.6299C59.5965 76.0604 59.4709 76.3594 59.2455 76.7314C58.4623 77.2208 57.4528 77.2196 56.5583 77.0896C55.729 76.7257 55.4767 76.2961 55.1028 75.4885C53.6988 72.7479 51.3326 70.8647 48.4682 69.7769C46.3138 69.1488 44.1297 69.6886 42.2045 70.7412C39.9939 72.1826 38.4552 74.167 37.849 76.7537C37.8071 77.0438 37.7737 77.3351 37.7483 77.6271C37.7337 77.7878 37.7192 77.9485 37.7042 78.1141C37.5712 81.1112 38.706 83.9427 40.7041 86.1476C44.2576 89.8732 49.0399 92.4943 53.3636 95.2204C54.2412 95.7754 55.1157 96.3352 55.9903 96.895C56.2813 97.0812 56.5725 97.2673 56.8637 97.4534C57.0419 97.5674 57.2201 97.6815 57.4037 97.7989C57.5702 97.905 57.7367 98.011 57.9082 98.1203C58.2673 98.354 58.6135 98.5971 58.96 98.8486C59.4995 99.1687 59.7043 99.212 60.3204 99.1243C60.7992 98.7957 60.7992 98.7957 61.2791 98.3098C61.3765 98.2166 61.474 98.1234 61.5745 98.0274C61.9357 97.6794 62.2926 97.3273 62.6492 96.9746C62.7984 96.8278 62.9476 96.6809 63.1013 96.5297C64.2586 95.389 65.4083 94.2408 66.5561 93.0905C66.9317 92.7144 67.3079 92.339 67.6842 91.9636C68.0509 91.5975 68.4172 91.231 68.7834 90.8644C69.0391 90.6086 69.2951 90.3531 69.5511 90.0976C73.7079 85.9259 77.3909 81.3156 77.3954 75.1899C77.3608 72.7136 76.4583 70.7517 74.8198 68.8938C73.2019 67.3782 70.8686 66.5976 68.6799 66.6552C65.898 66.9122 63.7715 68.2789 61.9319 70.3228Z" fill="black"/>
<path d="M91.9029 0.97271C92.3844 1.40218 92.6618 1.87898 92.8218 2.47476C92.8218 2.53484 92.8218 2.59492 92.8218 2.65682C92.8816 2.65917 92.8816 2.65917 92.9427 2.66157C98.3317 2.96926 103.773 5.33181 107.353 9.01303C107.503 9.17776 107.647 9.34527 107.79 9.51466C107.859 9.59424 107.927 9.67382 107.996 9.75339C111.793 14.1955 113.108 19.9452 113.528 29.0754C113.529 29.1409 113.529 29.2065 113.529 29.274C113.53 29.4604 113.53 29.6469 113.529 29.8333C113.53 29.9154 113.53 29.9154 113.53 29.999C113.528 30.3052 113.487 30.5762 113.407 30.8731C113.366 31.0573 113.376 31.2262 113.394 31.4129C113.401 31.4916 113.408 31.5702 113.416 31.6513C113.458 32.0294 113.508 32.4066 113.559 32.7837C113.843 34.8585 113.995 36.9163 113.998 39.0072C113.998 39.1329 113.999 39.2586 113.999 39.3843C114.004 41.5948 114.004 41.5948 113.703 42.6583C113.689 42.7084 113.675 42.7585 113.66 42.8101C113.315 43.9639 112.583 44.997 111.435 45.6032C110.052 46.2146 108.599 46.0158 107.183 45.6359C107.133 45.6223 107.082 45.6087 107.03 45.5947C106.17 45.3529 105.352 45.0114 104.538 44.6654C104.27 44.5515 104.001 44.4386 103.732 44.3256C103.677 44.3025 103.622 44.2793 103.565 44.2554C102.044 43.6165 100.521 42.9817 98.9423 42.4687C98.8625 42.4428 98.8625 42.4428 98.7812 42.4163C98.0654 42.1881 97.332 42.019 96.5972 41.8504C96.5304 41.8351 96.5304 41.8351 96.4622 41.8194C95.4829 41.5955 94.4972 41.4217 93.4996 41.2815C93.4532 41.2749 93.4069 41.2684 93.3592 41.2616C92.65 41.1615 91.9408 41.0652 91.2252 41.0122C91.1262 41.0045 91.1262 41.0045 91.0252 40.9966C88.0952 40.7915 85.122 40.9616 82.244 41.4977C82.1602 41.5132 82.0764 41.5288 81.9901 41.5448C79.6108 41.9923 77.3488 42.7123 75.1256 43.599C74.977 43.6578 74.8284 43.7166 74.6798 43.7754C73.8831 44.0912 73.0899 44.4134 72.3008 44.7445C70.331 45.5708 68.0462 46.4434 65.8783 45.7459C65.5936 45.625 65.3367 45.4857 65.08 45.3211C65.0325 45.2907 64.985 45.2604 64.936 45.2291C63.7963 44.409 63.3159 43.0238 63.1265 41.7611C63.1071 41.599 63.0906 41.4369 63.0759 41.2744C63.0703 41.2145 63.0648 41.1546 63.0591 41.0929C63.0015 40.415 62.9972 39.7383 63.001 39.0587C63.0012 38.9932 63.0014 38.9277 63.0016 38.8602C63.0055 37.6726 63.05 36.4914 63.1507 35.3074C63.1542 35.2652 63.1578 35.223 63.1614 35.1795C63.2505 34.1264 63.3721 33.0791 63.5319 32.033C63.6483 31.3899 63.6483 31.3899 63.5499 30.7557C63.5429 30.6198 63.54 30.4836 63.5391 30.3475C63.5388 30.3061 63.5385 30.2646 63.5382 30.2219C63.5372 30.0837 63.5367 29.9456 63.5363 29.8075C63.5359 29.7101 63.5354 29.6127 63.5349 29.5153C63.5336 29.2005 63.5333 28.8857 63.5332 28.571C63.5332 28.5176 63.5332 28.4642 63.5331 28.4092C63.5327 26.8074 63.5489 25.214 63.7326 23.6194C63.7502 23.4666 63.7671 23.3138 63.784 23.161C64.3484 18.1406 65.8787 13.0126 69.6038 9.15053C69.6545 9.0965 69.6545 9.0965 69.7063 9.04137C70.4946 8.20585 71.3589 7.43771 72.3314 6.78366C72.4015 6.73353 72.4713 6.68311 72.5409 6.63242C75.5814 4.42392 80.2888 2.59738 84.2398 2.65682C84.2426 2.58172 84.2453 2.50662 84.2481 2.42924C84.3321 1.77083 84.753 1.24549 85.3042 0.83616C87.1675 -0.393254 90.0844 -0.198306 91.9029 0.97271Z" fill="black"/>
<path d="M88.3562 27.8276C88.4001 27.8275 88.4441 27.8275 88.4894 27.8274C91.088 27.8253 93.6942 27.918 96.2766 28.1924C96.4301 28.2085 96.5837 28.2241 96.7374 28.2396C98.234 28.3908 99.7242 28.5574 101.204 28.8138C101.258 28.823 101.311 28.8322 101.366 28.8417C103.041 29.1322 104.691 29.4667 106.327 29.9062C106.44 29.936 106.44 29.936 106.556 29.9665C107.742 30.2805 108.9 30.6567 110.052 31.0592C110.121 31.0831 110.19 31.1069 110.261 31.1315C110.442 31.1945 110.621 31.2592 110.801 31.3248C110.878 31.3518 110.878 31.3518 110.957 31.3794C111.296 31.5075 111.296 31.5075 111.393 31.6849C111.447 31.8411 111.478 31.9829 111.499 32.1452C111.51 32.2319 111.51 32.2319 111.522 32.3203C111.533 32.4137 111.533 32.4137 111.545 32.5089C111.553 32.5742 111.562 32.6395 111.57 32.7068C111.597 32.9199 111.623 33.1332 111.649 33.3465C111.662 33.4565 111.662 33.4565 111.676 33.5688C111.895 35.3868 111.993 37.1786 111.998 39.0067C111.998 39.1368 111.999 39.267 111.999 39.3972C112.011 42.6009 112.011 42.6009 110.98 43.6673C110.557 44.0235 110.044 44.1843 109.474 44.2022C108.915 44.1809 108.392 44.0679 107.857 43.9253C107.81 43.9129 107.763 43.9005 107.714 43.8877C106.657 43.5998 105.667 43.1505 104.669 42.7277C100.995 41.1745 97.3165 39.9707 93.2958 39.4229C93.2284 39.4135 93.161 39.4041 93.0916 39.3944C91.6358 39.2068 90.1653 39.1666 88.6971 39.1688C88.6141 39.1688 88.531 39.1689 88.4454 39.1689C84.0149 39.1769 79.7723 39.9357 75.6578 41.437C75.6159 41.4523 75.5739 41.4676 75.5307 41.4834C74.4468 41.8801 73.3864 42.3098 72.3377 42.7784C68.5069 44.4875 68.5069 44.4875 66.8549 44.1187C66.2371 43.9153 65.8718 43.5525 65.5623 43.0339C64.961 41.8335 64.9913 40.5365 64.9961 39.2447C64.997 39.0013 64.9961 38.758 64.9953 38.5146C64.9946 37.4199 65.0507 36.3378 65.1465 35.2468C65.1509 35.1947 65.1554 35.1426 65.16 35.0889C65.1937 34.6953 65.2342 34.3027 65.2809 33.9102C65.3194 33.5847 65.3501 33.2633 65.3551 32.9361C65.3762 31.754 65.3762 31.754 65.7572 31.4161C66.1637 31.1786 66.6139 31.0628 67.076 30.947C67.3581 30.8754 67.6312 30.7855 67.9056 30.6925C68.4685 30.5025 69.0348 30.3232 69.6038 30.1489C69.6731 30.1276 69.7425 30.1064 69.8139 30.0845C71.794 29.486 73.8538 29.1055 75.9055 28.7774C76.0547 28.7534 76.2038 28.729 76.3529 28.7045C78.5787 28.3399 80.8267 28.1437 83.0797 27.9793C83.1276 27.9757 83.1754 27.9721 83.2246 27.9684C84.9296 27.8422 86.6465 27.8285 88.3562 27.8276Z" fill="#AADCE7"/>
<path d="M93.2417 4.47355C93.315 4.48331 93.315 4.48331 93.3897 4.49327C97.4377 5.0426 101.481 6.4101 104.492 9.00317C104.641 9.13138 104.794 9.25342 104.95 9.37417C105.167 9.54595 105.355 9.73114 105.54 9.93104C105.669 10.069 105.804 10.201 105.94 10.3338C108.486 12.9235 109.889 16.3485 110.651 19.7102C110.676 19.816 110.701 19.9217 110.726 20.0274C111.451 23.1813 111.636 26.5093 111.582 29.7239C111.195 29.61 110.816 29.4839 110.438 29.3471C105.292 27.493 99.8612 26.7129 93.6853 26.2346C93.5804 26.2272 93.4755 26.2196 93.3706 26.2117C92.0804 26.1164 90.7906 26.1121 89.4954 26.0826C89.4954 19.0129 89.4954 11.9433 89.4954 4.65941C89.8027 4.63938 90.1101 4.61936 90.4267 4.59872C90.6372 4.56129 90.8397 4.52261 91.0463 4.47355C91.7984 4.29604 92.4797 4.37173 93.2417 4.47355Z" fill="#AADCE7"/>
<path d="M85.9072 4.4357C86.4275 4.5706 86.9662 4.63906 87.4997 4.72018C87.4997 11.7698 87.4997 18.8194 87.4997 26.0826C86.4898 26.1027 85.4799 26.1227 84.4395 26.1433C83.8668 26.1715 83.2973 26.2017 82.7264 26.2457C82.6217 26.2534 82.6217 26.2534 82.515 26.2613C76.9176 26.6739 71.0639 27.4136 65.8946 29.5223C65.6788 29.6026 65.6788 29.6026 65.4792 29.6026C65.4325 26.9682 65.491 24.3246 65.9765 21.7207C66.0136 21.5192 66.0474 21.3174 66.0811 21.1154C66.7068 17.4676 68.0535 13.7234 70.6683 10.8497C70.7277 10.7832 70.787 10.7165 70.8463 10.6499C71.4355 9.99487 72.0861 9.39234 72.7972 8.84702C72.8605 8.79671 72.9238 8.74641 72.989 8.69458C75.8538 6.42703 81.978 3.38729 85.9072 4.4357Z" fill="#AADCE7"/>
<path d="M90.3437 2.31154C90.5251 2.50927 90.5489 2.64489 90.5599 2.89946C89.7562 3.44986 88.6538 3.40283 87.6909 3.31077C87.1995 3.24434 86.7827 3.08573 86.3687 2.83878C86.4124 2.53712 86.5169 2.4374 86.7699 2.25346C87.6807 1.68144 89.4472 1.73584 90.3437 2.31154Z" fill="#AADCE7"/>
</svg>
