<svg width="350" height="350" viewBox="0 0 350 350" fill="none" xmlns="http://www.w3.org/2000/svg">
<path d="M191.311 104.94C191.501 104.972 191.691 105.005 191.888 105.039C199.34 106.354 206.675 108.694 213.706 111.463C213.849 111.332 213.849 111.332 213.994 111.198C214.791 110.488 215.503 109.957 216.506 109.56C216.814 109.434 216.814 109.434 217.129 109.305C218.886 108.724 220.514 108.558 222.363 108.568C222.721 108.57 222.721 108.57 223.087 108.572C236.622 108.77 249.228 116.267 258.465 125.738C259.237 126.547 259.95 127.394 260.642 128.271C261.139 128.898 261.659 129.501 262.18 130.107C269.363 138.725 274.37 150.621 273.5 161.907C273.088 165.688 271.262 169.465 268.37 171.961C265 174.532 261.134 175.653 256.921 175.632C256.751 175.633 256.581 175.634 256.406 175.635C255.064 175.633 253.743 175.526 252.409 175.388C252.463 175.541 252.517 175.693 252.572 175.851C253.742 179.212 254.804 182.54 255.453 186.042C255.489 186.222 255.524 186.401 255.56 186.586C256.731 192.762 256.578 199.699 255.236 205.828C255.175 206.118 255.175 206.118 255.113 206.413C254.234 210.492 252.856 214.329 250.887 218.005C250.786 218.208 250.684 218.412 250.579 218.621C248.153 223.36 244.408 227.577 240.233 230.833C240.055 230.972 240.055 230.972 239.874 231.114C235.863 234.23 231.302 236.691 226.535 238.443C226.672 238.539 226.81 238.634 226.951 238.732C230.711 241.397 234.173 244.557 236.972 248.228C237.065 248.349 237.158 248.47 237.254 248.595C239.185 251.117 240.805 253.766 242.312 256.558C242.388 256.697 242.463 256.837 242.541 256.98C243.06 257.959 243.06 257.959 243.06 258.447C243.203 258.447 243.347 258.447 243.495 258.447C243.532 258.191 243.532 258.191 243.57 257.929C243.68 257.322 243.807 256.736 243.956 256.139C244.002 255.952 244.049 255.766 244.096 255.575C244.191 255.197 244.288 254.819 244.385 254.442C245.244 250.967 245.282 247.609 245.176 244.056C245.16 243.488 245.151 242.919 245.143 242.35C245.133 242.095 245.133 242.095 245.122 241.834C245.11 240.533 245.5 239.668 246.321 238.661C247.465 237.768 248.849 237.856 250.235 238.008C253.152 238.711 255.329 240.512 257.41 242.574C257.602 242.763 257.793 242.952 257.99 243.146C260.831 246.101 262.394 249.695 263.458 253.609C263.503 253.774 263.548 253.938 263.594 254.107C264.667 258.289 264.701 263.652 263.498 267.797C263.421 268.094 263.343 268.391 263.267 268.688C261.817 274.112 258.936 279.178 254.801 283.017C254.622 283.196 254.442 283.376 254.258 283.561C254.078 283.74 253.899 283.919 253.714 284.104C253.606 284.217 253.498 284.329 253.386 284.445C252.494 285.361 251.562 286.159 250.534 286.917C250.382 287.03 250.23 287.142 250.074 287.258C244.387 291.423 237.838 293.945 230.884 294.976C230.543 295.037 230.543 295.037 230.195 295.1C228.979 295.236 227.771 295.216 226.548 295.207C226.296 295.206 226.044 295.205 225.784 295.204C225.164 295.201 224.545 295.198 223.926 295.193C223.941 295.381 223.956 295.568 223.971 295.761C224.141 298.042 224.186 300.312 224.195 302.599C224.196 302.79 224.197 302.982 224.198 303.18C224.202 304.193 224.205 305.207 224.207 306.22C224.21 307.255 224.217 308.291 224.226 309.326C224.232 310.133 224.233 310.94 224.234 311.747C224.235 312.129 224.238 312.51 224.242 312.891C224.284 317.138 223.565 320.863 220.534 324.051C217.807 326.641 214.467 327.551 210.88 328.243C210.717 328.281 210.555 328.32 210.388 328.359C209.628 328.488 208.88 328.5 208.112 328.505C207.869 328.507 207.869 328.507 207.622 328.509C201.566 328.554 195.605 328.317 190.898 323.951C187.914 320.739 187.101 316.178 187.18 311.936C186.924 311.998 186.668 312.061 186.405 312.126C183.101 312.857 179.694 313.054 176.32 313.067C176.059 313.068 175.799 313.07 175.531 313.071C174.694 313.075 173.856 313.076 173.019 313.077C172.734 313.077 172.448 313.078 172.154 313.078C167.631 313.08 163.187 312.907 158.696 312.37C158.356 312.331 158.015 312.291 157.675 312.251C156.783 312.147 155.891 312.042 155 311.936C155.002 312.169 155.004 312.402 155.007 312.642C154.972 316.702 153.543 320.879 150.739 323.833C146.621 327.737 140.964 328.51 135.539 328.515C135.374 328.515 135.209 328.515 135.039 328.515C129.918 328.508 124.791 327.662 120.925 323.999C117.929 320.751 117.532 316.781 117.543 312.567C117.543 312.205 117.542 311.843 117.542 311.481C117.54 310.521 117.542 309.561 117.545 308.602C117.547 308.006 117.548 307.41 117.549 306.815C117.558 301.12 117.614 295.439 118.036 289.757C118.049 289.584 118.061 289.411 118.074 289.232C118.343 285.556 118.675 281.893 119.123 278.233C118.886 278.315 118.648 278.396 118.403 278.48C118.261 278.528 118.12 278.577 117.973 278.627C117.68 278.727 117.387 278.828 117.094 278.929C116.9 278.995 116.9 278.995 116.703 279.062C116.573 279.106 116.443 279.15 116.309 279.196C112.949 280.131 108.431 280.005 105.207 278.668C105.014 278.603 104.821 278.538 104.622 278.47C101.728 277.45 99.1819 275.287 97.8148 272.539C96.234 269.214 96.1584 264.915 97.2967 261.409C97.3959 261.149 97.4951 260.889 97.5973 260.621C97.6849 260.386 97.6849 260.386 97.7742 260.146C99.1487 256.498 101.035 253.228 103.468 250.185C103.617 249.994 103.765 249.804 103.918 249.608C106.612 246.224 109.684 243.277 113.008 240.522C113.163 240.394 113.318 240.265 113.478 240.133C114.142 239.589 114.802 239.065 115.524 238.599C116.097 238.28 116.097 238.28 116.297 237.791C116.141 237.764 115.985 237.737 115.824 237.709C110.295 236.486 104.631 232.784 100.424 229.094C100.237 228.931 100.05 228.767 99.8574 228.599C99.315 228.118 98.7806 227.63 98.2496 227.137C98.105 227.004 97.9604 226.871 97.8114 226.734C90.3486 219.605 86.285 208.514 86.0104 198.335C85.9931 197.372 85.9897 196.409 85.9919 195.446C85.992 195.242 85.9921 195.039 85.9922 194.829C86.0097 188.243 86.7772 180.938 89.7697 174.953C89.499 175.023 89.2282 175.093 88.9493 175.165C84.5937 176.127 80.0774 175.293 76.2682 173.046C72.6253 170.698 70.51 166.875 69.5417 162.734C67.443 152.77 71.7557 141.782 77.0882 133.536C77.6037 132.762 78.1357 132.002 78.6807 131.249C78.7728 131.121 78.8648 130.994 78.9597 130.863C81.813 126.955 85.1012 123.376 88.9 120.377C89.2898 120.051 89.6793 119.725 90.0687 119.399C92.353 117.535 94.8206 115.961 97.3799 114.507C97.5363 114.418 97.6927 114.329 97.8538 114.237C101.891 111.969 106.152 110.399 110.643 109.288C110.798 109.249 110.952 109.21 111.111 109.17C113.434 108.611 115.768 108.575 118.145 108.568C118.295 108.567 118.446 108.566 118.601 108.566C122.066 108.556 125.76 109.073 128.473 111.463C128.473 111.606 128.473 111.75 128.473 111.897C128.683 111.802 128.893 111.707 129.109 111.609C136.613 108.289 144.537 106.113 152.608 104.722C152.814 104.686 153.02 104.651 153.232 104.614C165.655 102.532 178.922 102.802 191.311 104.94Z" fill="#F2D3A3"/>
<path d="M191.311 104.94C191.501 104.972 191.691 105.005 191.888 105.039C199.34 106.354 206.675 108.694 213.706 111.463C213.849 111.332 213.849 111.332 213.994 111.198C214.791 110.488 215.503 109.957 216.506 109.56C216.814 109.434 216.814 109.434 217.129 109.305C218.886 108.724 220.514 108.558 222.363 108.568C222.721 108.57 222.721 108.57 223.087 108.572C236.622 108.77 249.228 116.267 258.465 125.738C259.237 126.547 259.95 127.394 260.642 128.271C261.139 128.898 261.659 129.501 262.18 130.107C269.363 138.725 274.37 150.621 273.5 161.907C273.088 165.688 271.262 169.465 268.37 171.961C265 174.532 261.134 175.653 256.921 175.632C256.751 175.633 256.581 175.634 256.406 175.635C255.064 175.633 253.743 175.526 252.409 175.388C252.463 175.541 252.517 175.693 252.572 175.851C253.742 179.212 254.804 182.54 255.453 186.042C255.489 186.222 255.524 186.401 255.56 186.586C256.731 192.762 256.578 199.699 255.236 205.828C255.175 206.118 255.175 206.118 255.113 206.413C254.234 210.492 252.856 214.329 250.887 218.005C250.786 218.208 250.684 218.412 250.579 218.621C248.153 223.36 244.408 227.577 240.233 230.833C240.055 230.972 240.055 230.972 239.874 231.114C235.863 234.23 231.302 236.691 226.535 238.443C226.672 238.539 226.81 238.634 226.951 238.732C230.711 241.397 234.173 244.557 236.972 248.228C237.065 248.349 237.158 248.47 237.254 248.595C239.185 251.117 240.805 253.766 242.312 256.558C242.388 256.697 242.463 256.837 242.541 256.98C243.06 257.959 243.06 257.959 243.06 258.447C243.203 258.447 243.347 258.447 243.495 258.447C243.532 258.191 243.532 258.191 243.57 257.929C243.68 257.322 243.807 256.736 243.956 256.139C244.002 255.952 244.049 255.766 244.096 255.575C244.191 255.197 244.288 254.819 244.385 254.442C245.244 250.967 245.282 247.609 245.176 244.056C245.16 243.488 245.151 242.919 245.143 242.35C245.133 242.095 245.133 242.095 245.122 241.834C245.11 240.533 245.5 239.668 246.321 238.661C247.465 237.768 248.849 237.856 250.235 238.008C253.152 238.711 255.329 240.512 257.41 242.574C257.602 242.763 257.793 242.952 257.99 243.146C260.831 246.101 262.394 249.695 263.458 253.609C263.503 253.774 263.548 253.938 263.594 254.107C264.667 258.289 264.701 263.652 263.498 267.797C263.421 268.094 263.343 268.391 263.267 268.688C261.817 274.112 258.936 279.178 254.801 283.017C254.622 283.196 254.442 283.376 254.258 283.561C254.078 283.74 253.899 283.919 253.714 284.104C253.606 284.217 253.498 284.329 253.386 284.445C252.494 285.361 251.562 286.159 250.534 286.917C250.382 287.03 250.23 287.142 250.074 287.258C244.387 291.423 237.838 293.945 230.884 294.976C230.543 295.037 230.543 295.037 230.195 295.1C228.979 295.236 227.771 295.216 226.548 295.207C226.296 295.206 226.044 295.205 225.784 295.204C225.164 295.201 224.545 295.198 223.926 295.193C223.941 295.381 223.956 295.568 223.971 295.761C224.141 298.042 224.186 300.312 224.195 302.599C224.196 302.79 224.197 302.982 224.198 303.18C224.202 304.193 224.205 305.207 224.207 306.22C224.21 307.255 224.217 308.291 224.226 309.326C224.232 310.133 224.233 310.94 224.234 311.747C224.235 312.129 224.238 312.51 224.242 312.891C224.284 317.138 223.565 320.863 220.534 324.051C217.807 326.641 214.467 327.551 210.88 328.243C210.717 328.281 210.555 328.32 210.388 328.359C209.628 328.488 208.88 328.5 208.112 328.505C207.869 328.507 207.869 328.507 207.622 328.509C201.566 328.554 195.605 328.317 190.898 323.951C187.914 320.739 187.101 316.178 187.18 311.936C186.924 311.998 186.668 312.061 186.405 312.126C183.101 312.857 179.694 313.054 176.32 313.067C176.059 313.068 175.799 313.07 175.531 313.071C174.694 313.075 173.856 313.076 173.019 313.077C172.734 313.077 172.448 313.078 172.154 313.078C167.631 313.08 163.187 312.907 158.696 312.37C158.356 312.331 158.015 312.291 157.675 312.251C156.783 312.147 155.891 312.042 155 311.936C155.002 312.169 155.004 312.402 155.007 312.642C154.972 316.702 153.543 320.879 150.739 323.833C146.621 327.737 140.964 328.51 135.539 328.515C135.374 328.515 135.209 328.515 135.039 328.515C129.918 328.508 124.791 327.662 120.925 323.999C117.929 320.751 117.532 316.781 117.543 312.567C117.543 312.205 117.542 311.843 117.542 311.481C117.54 310.521 117.542 309.561 117.545 308.602C117.547 308.006 117.548 307.41 117.549 306.815C117.558 301.12 117.614 295.439 118.036 289.757C118.049 289.584 118.061 289.411 118.074 289.232C118.343 285.556 118.675 281.893 119.123 278.233C118.886 278.315 118.648 278.396 118.403 278.48C118.261 278.528 118.12 278.577 117.973 278.627C117.68 278.727 117.387 278.828 117.094 278.929C116.9 278.995 116.9 278.995 116.703 279.062C116.573 279.106 116.443 279.15 116.309 279.196C112.949 280.131 108.431 280.005 105.207 278.668C105.014 278.603 104.821 278.538 104.622 278.47C101.728 277.45 99.1819 275.287 97.8148 272.539C96.234 269.214 96.1584 264.915 97.2967 261.409C97.3959 261.149 97.4951 260.889 97.5973 260.621C97.6849 260.386 97.6849 260.386 97.7742 260.146C99.1487 256.498 101.035 253.228 103.468 250.185C103.617 249.994 103.765 249.804 103.918 249.608C106.612 246.224 109.684 243.277 113.008 240.522C113.163 240.394 113.318 240.265 113.478 240.133C114.142 239.589 114.802 239.065 115.524 238.599C116.097 238.28 116.097 238.28 116.297 237.791C116.141 237.764 115.985 237.737 115.824 237.709C110.295 236.486 104.631 232.784 100.424 229.094C100.237 228.931 100.05 228.767 99.8574 228.599C99.315 228.118 98.7806 227.63 98.2496 227.137C98.105 227.004 97.9604 226.871 97.8114 226.734C90.3486 219.605 86.285 208.514 86.0104 198.335C85.9931 197.372 85.9897 196.409 85.9919 195.446C85.992 195.242 85.9921 195.039 85.9922 194.829C86.0097 188.243 86.7772 180.938 89.7697 174.953C89.499 175.023 89.2282 175.093 88.9493 175.165C84.5937 176.127 80.0774 175.293 76.2682 173.046C72.6253 170.698 70.51 166.875 69.5417 162.734C67.443 152.77 71.7557 141.782 77.0882 133.536C77.6037 132.762 78.1357 132.002 78.6807 131.249C78.7728 131.121 78.8648 130.994 78.9597 130.863C81.813 126.955 85.1012 123.376 88.9 120.377C89.2898 120.051 89.6793 119.725 90.0687 119.399C92.353 117.535 94.8206 115.961 97.3799 114.507C97.5363 114.418 97.6927 114.329 97.8538 114.237C101.891 111.969 106.152 110.399 110.643 109.288C110.798 109.249 110.952 109.21 111.111 109.17C113.434 108.611 115.768 108.575 118.145 108.568C118.295 108.567 118.446 108.566 118.601 108.566C122.066 108.556 125.76 109.073 128.473 111.463C128.473 111.606 128.473 111.75 128.473 111.897C128.683 111.802 128.893 111.707 129.109 111.609C136.613 108.289 144.537 106.113 152.608 104.722C152.814 104.686 153.02 104.651 153.232 104.614C165.655 102.532 178.922 102.802 191.311 104.94ZM156.087 109.723C155.742 109.764 155.742 109.764 155.391 109.805C148.005 110.685 140.848 112.492 133.909 115.159C133.71 115.234 133.512 115.31 133.308 115.387C132.803 115.581 132.302 115.782 131.802 115.988C131.537 116.097 131.271 116.206 130.998 116.318C130.395 116.625 130.395 116.625 130.233 117.183C130.21 117.835 130.225 118.475 130.253 119.127C130.321 122.979 129.377 126.931 128.255 130.597C128.19 130.81 128.125 131.023 128.058 131.243C124.797 141.736 120.049 152.627 112.429 160.74C112.016 161.182 111.628 161.633 111.241 162.097C107.96 165.833 103.069 170.161 98.3006 171.773C97.1513 172.172 96.4869 172.458 95.8426 173.521C95.4776 174.35 95.208 175.203 94.9531 176.071C94.754 176.749 94.5395 177.421 94.3239 178.094C93.448 180.882 92.7053 183.675 92.2506 186.563C92.1872 186.966 92.1183 187.368 92.0456 187.769C91.6808 189.953 91.653 192.11 91.658 194.32C91.6587 194.95 91.6536 195.579 91.6481 196.208C91.6354 199.896 91.9279 203.617 92.9633 207.174C93.0184 207.369 93.0735 207.563 93.1303 207.764C95.943 217.333 102.306 224.919 111.008 229.693C115.749 232.228 120.717 234.125 126.021 235.07C126.214 235.105 126.407 235.14 126.607 235.176C126.782 235.206 126.957 235.235 127.137 235.266C127.857 235.472 128.234 235.913 128.69 236.486C128.762 236.558 128.834 236.63 128.908 236.704C129.001 237.504 128.928 237.963 128.595 238.701C127.842 239.529 127.145 239.699 126.081 239.965C117.124 242.258 109.865 249.899 105.189 257.618C103.107 261.137 101.426 264.802 102.023 268.991C102.479 270.71 103.729 272.061 105.21 272.992C108.444 274.66 112.448 274.967 115.943 273.871C117.546 273.233 119.278 272.383 120.428 271.058C120.608 270.616 120.608 270.616 120.717 270.115C120.764 269.925 120.812 269.734 120.86 269.538C120.909 269.331 120.958 269.125 121.009 268.912C121.089 268.588 121.089 268.588 121.17 268.259C121.342 267.566 121.51 266.873 121.678 266.18C122.313 263.558 122.952 260.951 123.829 258.399C123.889 258.221 123.949 258.043 124.01 257.86C124.391 256.793 124.792 255.721 125.864 255.186C126.752 255.074 127.651 254.985 128.463 255.406C129.037 255.87 129.326 256.222 129.56 256.925C129.616 257.995 129.491 258.865 129.185 259.888C129.104 260.167 129.023 260.445 128.941 260.724C128.898 260.868 128.855 261.013 128.811 261.163C127.754 264.72 126.878 268.303 126.081 271.928C126.016 272.218 126.016 272.218 125.95 272.514C124.628 278.456 123.965 284.523 123.509 290.585C123.48 290.953 123.45 291.321 123.42 291.689C123.281 293.404 123.191 295.116 123.135 296.836C123.126 297.115 123.117 297.393 123.108 297.68C123.01 300.874 122.989 304.068 122.985 307.263C122.983 308.109 122.978 308.956 122.972 309.802C122.968 310.468 122.967 311.134 122.967 311.8C122.966 312.112 122.964 312.424 122.961 312.737C122.938 315.466 123.122 318.068 124.994 320.198C127.678 322.729 131.346 323.14 134.874 323.098C135.336 323.093 135.797 323.093 136.259 323.095C140.126 323.087 144.302 322.633 147.172 319.763C149.13 317.192 149.468 314.173 149.577 311.052C149.594 310.603 149.611 310.154 149.633 309.705C149.652 309.303 149.667 308.9 149.681 308.498C149.79 307.742 149.977 307.326 150.433 306.717C152.333 305.451 156.198 306.477 158.383 306.704C162.928 307.172 167.429 307.41 171.999 307.41C172.677 307.41 173.355 307.414 174.033 307.418C178.241 307.43 182.378 307.071 186.541 306.473C187.091 306.394 187.642 306.317 188.193 306.24C188.427 306.206 188.662 306.172 188.904 306.138C190.649 305.947 190.649 305.947 191.583 306.432C192.235 306.98 192.373 307.223 192.615 308.022C192.671 308.732 192.671 308.732 192.675 309.535C192.679 309.834 192.684 310.133 192.688 310.431C192.693 310.894 192.697 311.357 192.698 311.821C192.713 315.058 193.066 318.199 195.442 320.633C198.129 322.863 201.835 323.068 205.172 323.077C205.64 323.079 206.108 323.086 206.576 323.093C210.233 323.12 213.961 322.714 216.707 320.088C218.238 318.351 218.757 316.208 218.77 313.937C218.772 313.777 218.773 313.616 218.775 313.451C218.779 312.922 218.78 312.393 218.78 311.864C218.782 311.488 218.784 311.112 218.786 310.736C218.791 309.523 218.79 308.31 218.789 307.098C218.789 306.891 218.789 306.685 218.789 306.472C218.787 299.63 218.588 292.867 217.838 286.061C217.789 285.61 217.741 285.159 217.693 284.708C216.748 275.975 215.433 267.022 212.619 258.665C212.486 257.904 212.451 257.229 212.832 256.539C213.323 255.92 213.814 255.41 214.576 255.186C215.366 255.114 215.937 255.126 216.682 255.403C217.83 256.396 218.218 257.966 218.577 259.394C218.621 259.563 218.666 259.732 218.711 259.905C218.804 260.263 218.896 260.621 218.988 260.98C219.13 261.538 219.276 262.095 219.422 262.652C219.881 264.416 220.312 266.178 220.681 267.963C221.131 270.163 221.131 270.163 222.574 271.835C222.733 271.938 222.892 272.04 223.056 272.145C223.22 272.263 223.383 272.381 223.552 272.503C226.428 274.422 229.928 274.829 233.285 274.168C235.659 273.552 237.761 272.492 239.146 270.406C240.241 268.349 239.983 265.992 239.363 263.829C236.566 254.767 229.343 246.541 221.131 241.951C219.3 240.986 217.443 240.559 215.402 240.297C214.567 240.14 214.119 239.873 213.489 239.313C213.138 238.611 213.145 237.898 213.271 237.139C214.157 235.904 215.272 235.723 216.711 235.471C216.855 235.449 216.998 235.427 217.146 235.404C219.232 235.081 221.185 234.521 223.178 233.836C223.334 233.784 223.491 233.731 223.652 233.676C225.947 232.898 228.125 232.039 230.231 230.833C230.526 230.675 230.821 230.517 231.117 230.36C239.632 225.786 246.043 217.91 248.83 208.664C249.101 207.724 249.351 206.779 249.583 205.828C249.619 205.693 249.655 205.558 249.693 205.418C250.491 202.227 250.541 198.88 250.534 195.609C250.534 195.319 250.534 195.319 250.534 195.022C250.526 191.739 250.279 188.607 249.583 185.39C249.546 185.208 249.508 185.027 249.47 184.839C248.735 181.32 247.515 177.904 246.321 174.518C246.27 174.353 246.219 174.188 246.166 174.017C245.897 173.234 245.659 172.99 244.951 172.536C244.662 172.404 244.371 172.277 244.079 172.154C243.762 172.007 243.446 171.859 243.13 171.71C242.892 171.598 242.892 171.598 242.65 171.484C240.132 170.239 237.867 168.415 235.667 166.691C235.546 166.596 235.426 166.501 235.301 166.404C232.005 163.788 229.001 160.751 226.535 157.341C226.429 157.197 226.323 157.052 226.214 156.904C218.463 146.308 210.886 130.563 211.749 117.116C199.913 110.635 185.453 108.93 172.154 108.986C171.267 108.99 170.381 108.987 169.494 108.984C164.984 108.967 160.567 109.185 156.087 109.723Z" fill="black"/>
<path d="M239.702 118.475C246.272 121.835 252.713 126.887 257.193 132.771C257.308 132.921 257.422 133.071 257.54 133.225C259.241 135.457 260.837 137.706 262.194 140.164C262.294 140.343 262.394 140.522 262.498 140.707C265.685 146.443 267.932 152.299 267.956 158.917C267.958 159.34 267.958 159.34 267.96 159.772C267.918 162.853 267.219 165.473 265.091 167.754C262.269 170.315 258.594 170.373 254.993 170.214C246.412 169.611 238.355 162.89 232.917 156.717C232.2 155.867 231.533 154.983 230.884 154.08C230.784 153.942 230.685 153.804 230.583 153.663C227.011 148.665 224.167 143.303 221.997 137.554C221.766 136.94 221.529 136.329 221.291 135.718C219.667 131.471 218.384 127.036 217.62 122.552C217.576 122.34 217.532 122.127 217.487 121.909C217.23 120.604 217.136 119.326 217.117 117.999C217.114 117.842 217.11 117.685 217.106 117.523C217.107 116.548 217.235 115.931 217.838 115.159C223.277 111.079 234.446 115.904 239.702 118.475Z" fill="#7D5232"/>
<path d="M117.955 114.017C118.365 114.015 118.365 114.015 118.784 114.012C122.798 114.021 122.798 114.021 124.342 115.376C124.789 116.404 124.853 117.382 124.844 118.488C124.843 118.746 124.843 118.746 124.841 119.008C124.691 126.728 121.292 134.97 118.056 141.831C117.819 142.337 117.589 142.846 117.361 143.355C113.746 151.328 108.348 158.622 101.294 163.864C101.081 164.026 100.868 164.189 100.648 164.356C97.3133 166.796 93.5316 168.637 89.5524 169.734C89.3562 169.792 89.16 169.849 88.9579 169.908C86.5127 170.515 83.6386 170.428 81.29 169.517C81.0167 169.414 81.0167 169.414 80.7379 169.308C78.1663 168.186 76.4495 165.992 75.4193 163.429C74.8433 161.625 74.6612 159.934 74.6855 158.047C74.6883 157.677 74.6883 157.677 74.6912 157.298C74.7249 155.351 74.9497 153.576 75.4193 151.688C75.4773 151.416 75.5353 151.144 75.5951 150.865C77.1183 143.921 80.7682 137.394 85.2038 131.901C85.414 131.625 85.414 131.625 85.6284 131.342C88.2674 127.945 91.479 125.021 94.9882 122.552C95.1202 122.457 95.2522 122.362 95.3882 122.265C100.45 118.646 106.293 115.852 112.383 114.507C112.558 114.467 112.732 114.427 112.913 114.385C114.596 114.036 116.24 114.007 117.955 114.017Z" fill="#7D5232"/>
<path d="M176.743 249.75C176.94 249.826 177.138 249.902 177.342 249.98C182.269 252.139 185.229 257.399 187.18 262.143C188.142 264.621 188.677 267.144 189.137 269.754C189.175 269.957 189.213 270.16 189.252 270.37C189.84 274.35 189.619 278.796 188.267 282.582C188.181 282.832 188.095 283.082 188.006 283.34C186.441 287.436 183.475 290.611 179.518 292.459C174.29 294.747 167.575 294.501 162.333 292.468C158.278 290.805 155.447 288.102 153.553 284.162C150.63 277.078 151.877 268.845 154.741 261.953C155.931 259.203 157.321 256.544 159.348 254.316C159.442 254.212 159.536 254.107 159.633 254C164.149 249.044 170.467 247.215 176.743 249.75Z" fill="#FFBB4D"/>
<path d="M184.062 247.655C186.737 249.913 188.716 252.575 190.441 255.62C190.512 255.745 190.583 255.87 190.657 255.999C192.841 259.903 194.104 264.263 194.79 268.666C194.827 268.905 194.827 268.905 194.866 269.149C195.954 276.313 194.951 284.177 190.709 290.219C186.598 295.516 181.427 298.032 174.93 299.242C167.319 300.029 159.77 298.51 153.705 293.71C149.412 290.198 147.075 284.995 146.52 279.538C146.441 278.32 146.435 277.102 146.438 275.882C146.438 275.717 146.438 275.552 146.439 275.382C146.453 270.798 147.182 266.475 148.694 262.143C148.743 262.002 148.791 261.861 148.842 261.715C150.464 257.098 152.958 253.083 156.304 249.532C156.426 249.399 156.548 249.266 156.674 249.128C163.962 241.434 175.979 241.015 184.062 247.655ZM161.305 252.359C161.1 252.544 160.894 252.729 160.683 252.92C156.84 256.51 154.731 261.303 153.26 266.275C153.194 266.494 153.127 266.713 153.059 266.939C151.427 272.847 151.216 279.722 154.083 285.293C156.571 289.528 160.032 291.815 164.647 293.259C166.684 293.761 168.654 293.962 170.75 293.943C170.989 293.941 171.227 293.94 171.473 293.938C176.491 293.871 180.989 292.554 184.57 288.888C187.084 286.235 188.242 283.028 189.04 279.526C189.103 279.251 189.174 278.978 189.254 278.707C190.804 271.339 188.111 262.748 184.353 256.49C183.818 255.719 183.237 255.016 182.614 254.316C182.41 254.066 182.41 254.066 182.202 253.811C179.969 251.133 176.733 249.198 173.264 248.663C168.788 248.258 164.688 249.302 161.305 252.359Z" fill="black"/>
<path d="M251.322 244.314C254.03 246.593 255.86 249.282 257.193 252.576C257.255 252.723 257.317 252.871 257.381 253.022C259.437 258.452 259.043 265.55 256.758 270.841C253.097 278.794 246.334 284.774 238.173 287.889C233.499 289.579 228.674 290.372 223.708 290.192C223.379 289.034 223.317 287.828 223.196 286.634C223.151 286.2 223.106 285.765 223.06 285.33C223.031 285.054 223.003 284.778 222.974 284.493C222.935 284.115 222.935 284.115 222.895 283.73C222.842 283.054 222.828 282.39 222.839 281.712C223.015 281.649 223.191 281.586 223.373 281.52C224.576 281.075 225.644 280.654 226.698 279.918C228.172 279.064 229.778 279.212 231.432 279.187C233.474 279.143 235.085 278.809 236.972 278.016C237.234 277.908 237.497 277.801 237.768 277.69C240.961 276.244 243.127 274.026 244.419 270.759C244.709 269.929 244.848 269.172 244.935 268.299C245.136 266.898 245.785 265.939 246.548 264.781C250.543 258.709 251.09 251.389 251.322 244.314Z" fill="#7D5232"/>
<path d="M179.868 183.596C180.939 184.457 181.745 185.61 182.179 186.912C182.314 188.638 181.865 189.832 180.793 191.165C179.165 192.894 176.888 193.898 174.569 194.304C174.281 194.304 173.994 194.304 173.699 194.304C173.704 195.283 173.721 196.261 173.74 197.24C173.741 197.515 173.742 197.791 173.743 198.075C173.781 199.695 173.883 200.904 175.003 202.132C176.306 203.348 178.072 203.384 179.763 203.361C182.405 203.231 184.036 201.95 185.793 200.106C186.135 199.72 186.466 199.324 186.786 198.919C187.205 198.405 187.388 198.246 188.039 198.166C189.248 198.127 189.921 198.273 190.876 199.088C191.471 199.98 191.464 200.65 191.311 201.697C190.382 204.484 187.495 206.507 185.005 207.785C184.219 208.119 183.429 208.403 182.614 208.655C182.398 208.727 182.183 208.798 181.961 208.872C177.974 209.167 174.77 209.104 171.551 206.558C171.059 206.185 171.059 206.185 170.22 206.263C169.725 206.566 169.725 206.566 169.228 206.97C168.102 207.795 166.979 208.245 165.654 208.655C165.331 208.763 165.331 208.763 165.001 208.872C160.68 209.237 157.117 208.864 153.695 206.046C153.441 205.844 153.441 205.844 153.182 205.639C151.674 204.382 150.122 202.792 149.931 200.759C150.011 199.809 150.272 199.385 150.868 198.653C151.84 198.005 152.774 198.061 153.912 198.218C154.483 198.626 154.483 198.626 155 199.305C156.541 201.169 158.317 202.977 160.854 203.267C161.318 203.293 161.778 203.302 162.243 203.301C162.406 203.301 162.569 203.301 162.738 203.3C164.018 203.274 164.987 203.018 166.089 202.349C166.243 202.279 166.398 202.209 166.557 202.137C167.128 201.82 167.197 201.432 167.393 200.827C167.465 200.684 167.537 200.54 167.611 200.392C167.644 199.935 167.665 199.477 167.679 199.018C167.689 198.745 167.698 198.472 167.707 198.19C167.716 197.903 167.724 197.617 167.733 197.321C167.742 197.03 167.752 196.739 167.761 196.447C167.785 195.733 167.807 195.019 167.828 194.304C167.493 194.264 167.493 194.264 167.152 194.224C164.699 193.827 162.267 192.674 160.657 190.744C159.756 189.443 159.366 188.3 159.566 186.694C160.064 184.957 161.43 183.833 162.904 182.887C164.323 182.115 165.814 181.772 167.393 181.476C167.592 181.435 167.79 181.395 167.995 181.353C172.021 180.809 176.446 181.256 179.868 183.596Z" fill="black"/>
<path d="M129.113 175.959C129.27 175.954 129.27 175.954 129.43 175.949C130.084 176.032 130.488 176.447 130.932 176.902C131.029 177 131.126 177.099 131.227 177.201C131.422 177.402 131.616 177.604 131.81 177.806C134.071 179.938 137.144 180.524 140.16 180.453C142.957 180.341 145.746 179.257 147.65 177.205C147.779 177.062 147.907 176.919 148.034 176.774C148.447 176.303 148.719 176.03 149.347 175.948C150.103 175.937 150.694 175.959 151.269 176.484C151.705 176.963 151.931 177.429 151.976 178.076C151.898 179.375 150.818 180.468 149.9 181.307C148.111 182.836 146.057 183.758 143.806 184.399C143.674 184.438 143.674 184.438 143.54 184.479C139.598 185.625 135.029 184.948 131.444 183.047C129.897 182.19 127.579 180.589 127.014 178.834C126.906 177.947 126.966 177.326 127.511 176.608C128.026 176.134 128.417 175.971 129.113 175.959Z" fill="black"/>
<path d="M190.476 175.948C190.591 175.943 190.707 175.938 190.826 175.933C191.615 176.063 192.085 176.712 192.579 177.369C194.326 179.599 197.001 180.788 199.6 181.042C202.656 181.222 205.885 180.616 208.245 178.245C208.639 177.82 209.006 177.382 209.358 176.913C209.732 176.419 210.023 176.051 210.615 175.949C211.324 175.904 211.902 176.053 212.467 176.553C212.922 177.114 213.178 177.615 213.294 178.368C213.177 179.83 212.203 181.041 211.263 181.951C207.637 185.312 203.099 186.573 198.466 186.048C197.759 185.932 197.071 185.751 196.383 185.531C196.259 185.493 196.259 185.493 196.133 185.454C193.283 184.552 190.336 182.597 188.665 179.771C188.353 179.136 188.199 178.537 188.342 177.816C188.763 176.742 189.41 175.98 190.476 175.948Z" fill="black"/>
<path d="M216.163 132.773C216.317 132.772 216.317 132.772 216.475 132.77C216.587 132.77 216.7 132.77 216.816 132.77C216.936 132.769 217.056 132.768 217.176 132.767C217.502 132.765 217.828 132.764 218.154 132.763C218.357 132.763 218.561 132.762 218.765 132.761C219.403 132.759 220.041 132.757 220.679 132.757C221.414 132.756 222.15 132.753 222.885 132.748C223.454 132.744 224.023 132.742 224.592 132.742C224.932 132.742 225.272 132.741 225.611 132.738C225.931 132.735 226.251 132.735 226.57 132.736C226.743 132.737 226.915 132.734 227.088 132.732C227.677 132.737 228.056 132.781 228.505 133.179C229.185 133.88 229.27 134.476 229.275 135.423C229.276 135.528 229.277 135.633 229.278 135.741C229.28 135.962 229.281 136.184 229.281 136.405C229.282 136.742 229.288 137.079 229.294 137.415C229.295 137.631 229.296 137.847 229.296 138.063C229.299 138.163 229.301 138.262 229.303 138.365C229.297 139.106 229.083 139.556 228.632 140.137C228.572 140.214 228.572 140.214 228.511 140.293C228.405 140.424 228.294 140.55 228.184 140.675C228.102 140.769 228.02 140.863 227.939 140.958C227.898 141.005 227.857 141.052 227.815 141.101C227.572 141.388 227.343 141.686 227.112 141.983C226.869 142.294 226.624 142.603 226.376 142.911C225.631 143.835 224.919 144.784 224.226 145.748C224.191 145.796 224.155 145.845 224.119 145.896C223.951 146.131 223.807 146.363 223.682 146.622C223.758 146.62 223.834 146.617 223.912 146.615C224.591 146.592 225.27 146.571 225.95 146.552C226.319 146.542 226.688 146.53 227.057 146.516C227.212 146.512 227.367 146.509 227.522 146.505C227.59 146.502 227.658 146.499 227.728 146.495C228.256 146.487 228.629 146.663 229.058 146.964C229.423 147.338 229.591 147.716 229.594 148.239C229.595 148.32 229.595 148.402 229.596 148.486C229.596 148.616 229.596 148.616 229.596 148.75C229.596 148.84 229.597 148.931 229.597 149.024C229.598 149.215 229.598 149.407 229.597 149.598C229.597 149.89 229.599 150.182 229.601 150.473C229.601 150.66 229.601 150.846 229.601 151.032C229.602 151.119 229.603 151.206 229.604 151.295C229.6 151.87 229.554 152.394 229.171 152.854C229.121 152.892 229.072 152.93 229.021 152.97C228.972 153.009 228.923 153.048 228.872 153.089C228.527 153.322 228.287 153.386 227.866 153.387C227.71 153.388 227.71 153.388 227.55 153.389C227.435 153.389 227.319 153.389 227.204 153.389C227.082 153.389 226.96 153.39 226.839 153.391C226.508 153.392 226.178 153.393 225.847 153.393C225.641 153.393 225.434 153.393 225.228 153.394C224.506 153.395 223.785 153.396 223.064 153.396C222.393 153.396 221.721 153.398 221.05 153.4C220.472 153.402 219.895 153.403 219.318 153.403C218.974 153.403 218.63 153.404 218.285 153.406C217.961 153.407 217.637 153.407 217.313 153.406C217.194 153.406 217.075 153.406 216.957 153.407C216.213 153.413 215.62 153.399 215.061 152.855C215.003 152.772 215.003 152.772 214.945 152.687C214.906 152.631 214.866 152.576 214.826 152.519C214.629 152.182 214.53 151.888 214.523 151.497C214.521 151.377 214.521 151.377 214.518 151.254C214.517 151.168 214.517 151.082 214.516 150.993C214.514 150.858 214.514 150.858 214.513 150.721C214.511 150.531 214.51 150.341 214.51 150.151C214.508 149.863 214.503 149.575 214.497 149.287C214.479 147.501 214.479 147.501 215.063 146.708C215.111 146.637 215.16 146.566 215.211 146.492C215.365 146.276 215.527 146.068 215.692 145.86C215.813 145.704 215.934 145.548 216.056 145.392C216.117 145.313 216.179 145.234 216.242 145.153C216.54 144.772 216.834 144.388 217.127 144.004C217.183 143.929 217.24 143.855 217.298 143.779C217.71 143.238 218.109 142.689 218.504 142.135C218.857 141.643 219.229 141.168 219.612 140.699C219.834 140.432 219.834 140.432 220.012 140.137C219.965 140.136 219.918 140.136 219.869 140.136C219.373 140.135 218.878 140.13 218.382 140.124C218.197 140.122 218.013 140.12 217.828 140.12C217.562 140.119 217.295 140.116 217.029 140.112C216.947 140.112 216.866 140.112 216.782 140.113C216.129 140.099 215.532 139.934 215.067 139.452C214.554 138.818 214.523 138.2 214.522 137.411C214.521 137.313 214.521 137.215 214.52 137.114C214.519 136.906 214.519 136.699 214.519 136.492C214.519 136.175 214.515 135.859 214.512 135.542C214.512 135.34 214.511 135.138 214.511 134.937C214.51 134.842 214.509 134.748 214.507 134.651C214.511 134.098 214.561 133.758 214.892 133.309C215.3 132.932 215.607 132.777 216.163 132.773Z" fill="black"/>
<path d="M226.925 135.187C227.136 138.291 227.136 138.291 226.44 139.091C226.289 139.253 226.135 139.406 225.974 139.557C225.701 139.821 225.474 140.122 225.239 140.419C225.147 140.533 225.054 140.646 224.961 140.76C224.606 141.196 224.272 141.647 223.938 142.099C223.224 143.057 222.507 144.014 221.763 144.949C220.591 146.313 220.591 146.313 220.183 147.988C220.281 148.371 220.457 148.535 220.78 148.756C221.08 148.856 221.321 148.855 221.637 148.859C221.698 148.86 221.759 148.86 221.822 148.861C222.023 148.864 222.223 148.866 222.424 148.868C222.564 148.87 222.703 148.872 222.842 148.874C223.209 148.878 223.575 148.883 223.942 148.887C224.316 148.891 224.69 148.896 225.064 148.9C225.798 148.91 226.532 148.918 227.266 148.927C227.266 149.602 227.266 150.278 227.266 150.975C223.802 150.975 220.338 150.975 216.77 150.975C216.77 147.862 216.77 147.862 217.636 146.949C217.691 146.895 217.747 146.84 217.805 146.785C218.055 146.53 218.258 146.245 218.466 145.956C218.549 145.843 218.633 145.731 218.716 145.62C218.76 145.562 218.803 145.504 218.848 145.444C219.116 145.087 219.389 144.732 219.66 144.377C220.153 143.731 220.64 143.081 221.12 142.426C221.443 141.986 221.769 141.549 222.098 141.113C223.04 140.026 223.04 140.026 223.426 138.728C223.364 138.319 223.212 138.116 222.914 137.832C222.628 137.737 222.406 137.734 222.104 137.73C222.048 137.729 221.992 137.728 221.935 137.727C221.751 137.724 221.566 137.722 221.382 137.72C221.254 137.718 221.127 137.717 220.999 137.715C220.662 137.71 220.326 137.706 219.99 137.702C219.647 137.697 219.303 137.693 218.96 137.688C218.287 137.679 217.614 137.67 216.94 137.662C216.94 136.873 216.94 136.085 216.94 135.272C217.724 135.257 218.508 135.243 219.292 135.23C219.351 135.229 219.41 135.228 219.471 135.226C221.956 135.184 224.44 135.177 226.925 135.187Z" fill="#AADCE7"/>
<path d="M234.419 126.141C234.623 126.139 234.623 126.139 234.831 126.137C234.979 126.137 235.128 126.136 235.281 126.136C235.439 126.135 235.597 126.134 235.756 126.133C236.186 126.13 236.616 126.128 237.046 126.127C237.314 126.127 237.583 126.126 237.852 126.125C238.694 126.122 239.535 126.119 240.377 126.119C241.347 126.118 242.318 126.114 243.288 126.107C244.039 126.102 244.79 126.1 245.541 126.1C245.989 126.099 246.437 126.098 246.885 126.094C247.307 126.09 247.729 126.09 248.15 126.092C248.378 126.092 248.606 126.089 248.833 126.086C249.611 126.093 250.11 126.15 250.703 126.676C251.601 127.6 251.712 128.387 251.719 129.636C251.72 129.775 251.722 129.913 251.723 130.056C251.725 130.348 251.727 130.64 251.727 130.933C251.729 131.377 251.736 131.821 251.744 132.265C251.745 132.55 251.746 132.835 251.747 133.12C251.75 133.251 251.753 133.383 251.756 133.518C251.748 134.496 251.466 135.089 250.87 135.856C250.791 135.958 250.791 135.958 250.71 136.062C250.571 136.234 250.425 136.401 250.279 136.566C250.171 136.69 250.064 136.814 249.957 136.939C249.903 137.001 249.849 137.064 249.793 137.128C249.473 137.507 249.17 137.9 248.865 138.291C248.545 138.702 248.221 139.11 247.894 139.516C246.911 140.735 245.972 141.987 245.057 143.259C245.011 143.323 244.964 143.388 244.916 143.454C244.695 143.764 244.505 144.07 244.34 144.413C244.44 144.409 244.54 144.406 244.643 144.402C245.539 144.372 246.435 144.345 247.331 144.321C247.819 144.307 248.306 144.291 248.793 144.273C248.997 144.268 249.202 144.263 249.406 144.258C249.496 144.254 249.586 144.249 249.678 144.245C250.374 144.235 250.867 144.466 251.433 144.863C251.915 145.357 252.136 145.856 252.14 146.545C252.141 146.653 252.142 146.76 252.143 146.871C252.143 147.043 252.143 147.043 252.142 147.219C252.143 147.339 252.143 147.458 252.144 147.582C252.145 147.834 252.145 148.087 252.144 148.339C252.144 148.724 252.146 149.109 252.149 149.493C252.15 149.739 252.15 149.985 252.15 150.231C252.151 150.346 252.152 150.46 252.153 150.578C252.148 151.337 252.086 152.028 251.581 152.635C251.516 152.685 251.451 152.735 251.384 152.787C251.319 152.839 251.254 152.891 251.187 152.945C250.732 153.252 250.415 153.336 249.86 153.338C249.654 153.339 249.654 153.339 249.443 153.341C249.291 153.341 249.139 153.341 248.986 153.341C248.826 153.341 248.665 153.342 248.505 153.343C248.069 153.345 247.633 153.345 247.197 153.345C246.924 153.346 246.652 153.346 246.379 153.347C245.427 153.349 244.476 153.35 243.524 153.35C242.638 153.349 241.752 153.352 240.866 153.355C240.105 153.358 239.344 153.36 238.582 153.359C238.128 153.359 237.674 153.36 237.219 153.362C236.792 153.365 236.364 153.365 235.936 153.363C235.78 153.363 235.623 153.363 235.467 153.365C234.485 153.373 233.703 153.353 232.965 152.636C232.889 152.526 232.889 152.526 232.813 152.414C232.761 152.341 232.709 152.268 232.655 152.193C232.395 151.748 232.264 151.361 232.256 150.845C232.252 150.686 232.252 150.686 232.249 150.523C232.248 150.41 232.247 150.296 232.246 150.179C232.244 150.002 232.244 150.002 232.242 149.82C232.24 149.57 232.239 149.319 232.238 149.068C232.236 148.688 232.229 148.309 232.221 147.929C232.198 145.572 232.198 145.572 232.967 144.525C233.032 144.432 233.096 144.338 233.163 144.241C233.367 143.956 233.58 143.681 233.798 143.406C233.958 143.201 234.118 142.995 234.278 142.789C234.359 142.685 234.44 142.581 234.524 142.474C234.917 141.972 235.304 141.465 235.691 140.958C235.766 140.86 235.84 140.762 235.917 140.661C236.461 139.948 236.987 139.223 237.507 138.493C237.974 137.843 238.464 137.217 238.97 136.598C239.262 136.246 239.262 136.246 239.498 135.856C239.436 135.855 239.373 135.855 239.309 135.855C238.655 135.853 238.001 135.847 237.347 135.838C237.103 135.836 236.86 135.834 236.616 135.834C236.265 135.832 235.913 135.828 235.561 135.823C235.454 135.823 235.347 135.823 235.236 135.824C234.375 135.806 233.587 135.588 232.973 134.953C232.297 134.116 232.256 133.301 232.254 132.26C232.253 132.13 232.253 132.001 232.252 131.867C232.251 131.594 232.25 131.32 232.25 131.046C232.25 130.629 232.246 130.211 232.241 129.794C232.241 129.527 232.24 129.261 232.24 128.995C232.238 128.87 232.237 128.746 232.235 128.618C232.239 127.889 232.306 127.44 232.742 126.848C233.28 126.35 233.686 126.145 234.419 126.141Z" fill="black"/>
<path d="M248.618 129.325C248.896 133.42 248.896 133.42 247.978 134.476C247.779 134.689 247.576 134.892 247.363 135.09C247.003 135.439 246.704 135.836 246.394 136.228C246.272 136.378 246.15 136.528 246.027 136.677C245.559 137.253 245.118 137.848 244.677 138.445C243.735 139.709 242.79 140.971 241.807 142.204C240.261 144.005 240.261 144.005 239.723 146.214C239.852 146.719 240.085 146.936 240.511 147.227C240.907 147.359 241.225 147.358 241.642 147.363C241.722 147.364 241.802 147.365 241.885 147.367C242.15 147.37 242.415 147.373 242.68 147.376C242.864 147.378 243.048 147.38 243.231 147.383C243.715 147.389 244.199 147.395 244.682 147.4C245.176 147.406 245.67 147.412 246.163 147.418C247.132 147.43 248.1 147.442 249.068 147.453C249.068 148.344 249.068 149.236 249.068 150.155C244.498 150.155 239.928 150.155 235.219 150.155C235.219 146.048 235.219 146.048 236.362 144.844C236.435 144.772 236.509 144.7 236.585 144.627C236.916 144.291 237.183 143.915 237.457 143.533C237.567 143.385 237.677 143.237 237.788 143.09C237.845 143.013 237.902 142.937 237.961 142.858C238.316 142.386 238.675 141.919 239.033 141.45C239.684 140.598 240.325 139.741 240.959 138.877C241.385 138.296 241.816 137.718 242.249 137.143C243.492 135.709 243.492 135.709 244.002 133.998C243.919 133.457 243.719 133.189 243.326 132.815C242.948 132.689 242.656 132.685 242.257 132.68C242.184 132.678 242.11 132.677 242.034 132.676C241.791 132.673 241.548 132.67 241.305 132.667C241.136 132.665 240.968 132.662 240.799 132.66C240.355 132.654 239.912 132.648 239.468 132.643C239.015 132.637 238.562 132.631 238.11 132.625C237.221 132.612 236.333 132.601 235.444 132.59C235.444 131.55 235.444 130.509 235.444 129.437C236.479 129.418 237.513 129.399 238.548 129.381C238.625 129.38 238.703 129.378 238.783 129.377C242.062 129.321 245.339 129.312 248.618 129.325Z" fill="#AADCE7"/>
<path d="M258.046 118.036C258.317 118.034 258.317 118.034 258.594 118.031C258.792 118.031 258.99 118.03 259.194 118.03C259.405 118.029 259.617 118.027 259.828 118.025C260.401 118.022 260.974 118.02 261.547 118.018C261.906 118.017 262.264 118.016 262.623 118.015C263.745 118.011 264.867 118.008 265.989 118.007C267.283 118.005 268.577 118 269.871 117.991C270.872 117.985 271.873 117.982 272.874 117.981C273.472 117.981 274.069 117.979 274.667 117.974C275.229 117.969 275.792 117.968 276.354 117.971C276.657 117.971 276.961 117.967 277.264 117.963C278.301 117.972 278.967 118.049 279.758 118.75C280.954 119.982 281.103 121.031 281.112 122.697C281.114 122.882 281.116 123.066 281.117 123.256C281.12 123.646 281.122 124.036 281.123 124.425C281.125 125.018 281.135 125.61 281.145 126.202C281.147 126.582 281.149 126.962 281.149 127.342C281.153 127.517 281.157 127.692 281.162 127.873C281.151 129.176 280.775 129.967 279.98 130.989C279.875 131.126 279.875 131.126 279.767 131.265C279.582 131.494 279.387 131.716 279.192 131.937C279.048 132.102 278.905 132.268 278.762 132.434C278.69 132.517 278.618 132.6 278.544 132.686C278.117 133.191 277.713 133.715 277.307 134.237C276.88 134.785 276.448 135.329 276.012 135.87C274.701 137.496 273.45 139.165 272.23 140.86C272.168 140.946 272.105 141.032 272.041 141.121C271.746 141.534 271.493 141.942 271.273 142.399C271.406 142.394 271.54 142.39 271.677 142.385C272.872 142.345 274.067 142.308 275.262 142.276C275.912 142.258 276.561 142.237 277.21 142.212C277.483 142.206 277.756 142.199 278.028 142.193C278.148 142.187 278.268 142.181 278.391 142.175C279.319 142.162 279.975 142.47 280.731 142.999C281.373 143.658 281.668 144.323 281.673 145.242C281.674 145.385 281.676 145.529 281.677 145.677C281.677 145.906 281.677 145.906 281.677 146.141C281.677 146.3 281.678 146.46 281.679 146.624C281.679 146.961 281.679 147.297 281.679 147.634C281.678 148.147 281.682 148.66 281.686 149.173C281.686 149.501 281.686 149.829 281.686 150.157C281.687 150.309 281.689 150.462 281.69 150.619C281.684 151.631 281.602 152.552 280.928 153.362C280.841 153.429 280.755 153.496 280.665 153.565C280.579 153.634 280.492 153.703 280.403 153.775C279.796 154.185 279.373 154.297 278.633 154.299C278.358 154.301 278.358 154.301 278.077 154.303C277.874 154.303 277.671 154.303 277.469 154.303C277.254 154.303 277.04 154.305 276.826 154.306C276.245 154.308 275.664 154.309 275.082 154.309C274.719 154.309 274.355 154.31 273.992 154.311C272.723 154.314 271.454 154.315 270.186 154.315C269.004 154.314 267.823 154.318 266.642 154.322C265.627 154.326 264.612 154.328 263.597 154.328C262.991 154.328 262.385 154.328 261.779 154.332C261.209 154.335 260.638 154.335 260.068 154.332C259.859 154.332 259.651 154.333 259.442 154.335C258.134 154.345 257.091 154.32 256.106 153.363C256.006 153.217 256.006 153.217 255.903 153.067C255.834 152.97 255.765 152.873 255.693 152.772C255.347 152.179 255.172 151.663 255.161 150.975C255.156 150.763 255.156 150.763 255.152 150.546C255.151 150.395 255.149 150.244 255.148 150.088C255.146 149.851 255.146 149.851 255.143 149.609C255.14 149.275 255.138 148.941 255.137 148.606C255.134 148.1 255.125 147.594 255.115 147.087C255.083 143.944 255.083 143.944 256.11 142.549C256.196 142.424 256.282 142.299 256.37 142.17C256.642 141.79 256.926 141.423 257.217 141.057C257.43 140.783 257.644 140.508 257.857 140.234C257.965 140.095 258.074 139.957 258.185 139.814C258.709 139.144 259.225 138.468 259.741 137.792C259.841 137.661 259.94 137.531 260.043 137.397C260.768 136.445 261.469 135.479 262.163 134.505C262.785 133.64 263.439 132.804 264.113 131.979C264.503 131.51 264.503 131.51 264.817 130.989C264.734 130.989 264.651 130.989 264.565 130.989C263.693 130.986 262.821 130.977 261.949 130.966C261.625 130.963 261.3 130.961 260.975 130.96C260.506 130.959 260.038 130.952 259.569 130.945C259.425 130.946 259.282 130.946 259.134 130.947C257.987 130.923 256.936 130.633 256.118 129.785C255.216 128.67 255.161 127.583 255.159 126.195C255.158 126.022 255.157 125.85 255.156 125.671C255.154 125.307 255.153 124.942 255.153 124.577C255.153 124.02 255.147 123.464 255.142 122.907C255.141 122.552 255.14 122.197 255.14 121.842C255.138 121.676 255.136 121.51 255.133 121.339C255.139 120.367 255.228 119.769 255.81 118.979C256.527 118.315 257.068 118.042 258.046 118.036Z" fill="black"/>
<path d="M276.977 122.282C277.349 127.743 277.349 127.743 276.124 129.15C275.859 129.434 275.588 129.705 275.304 129.969C274.824 130.434 274.425 130.963 274.012 131.487C273.849 131.686 273.686 131.886 273.523 132.085C272.899 132.853 272.311 133.646 271.723 134.442C270.467 136.127 269.206 137.81 267.896 139.454C265.834 141.855 265.834 141.855 265.117 144.801C265.29 145.475 265.599 145.764 266.168 146.152C266.695 146.328 267.119 146.326 267.676 146.333C267.783 146.334 267.89 146.336 268 146.337C268.353 146.342 268.707 146.346 269.06 146.35C269.305 146.353 269.55 146.356 269.795 146.359C270.44 146.367 271.085 146.375 271.73 146.382C272.388 146.39 273.046 146.398 273.704 146.406C274.995 146.422 276.287 146.438 277.578 146.452C277.578 147.641 277.578 148.83 277.578 150.055C271.484 150.055 265.391 150.055 259.112 150.055C259.112 144.58 259.112 144.58 260.636 142.974C260.734 142.878 260.832 142.783 260.933 142.684C261.374 142.237 261.73 141.735 262.096 141.226C262.243 141.029 262.39 140.832 262.537 140.635C262.613 140.533 262.69 140.431 262.768 140.326C263.241 139.697 263.72 139.073 264.198 138.449C265.065 137.313 265.92 136.17 266.765 135.018C267.333 134.243 267.908 133.473 268.486 132.706C270.142 130.795 270.142 130.795 270.822 128.512C270.713 127.791 270.445 127.435 269.921 126.936C269.418 126.768 269.028 126.762 268.497 126.755C268.398 126.753 268.3 126.752 268.199 126.75C267.875 126.746 267.551 126.742 267.227 126.738C267.002 126.735 266.777 126.732 266.552 126.729C265.961 126.72 265.369 126.713 264.777 126.706C264.174 126.698 263.57 126.69 262.966 126.682C261.782 126.665 260.597 126.65 259.413 126.636C259.413 125.248 259.413 123.861 259.413 122.432C260.792 122.406 262.171 122.381 263.55 122.357C263.654 122.355 263.757 122.353 263.864 122.352C268.235 122.277 272.605 122.264 276.977 122.282Z" fill="#AADCE7"/>
<ellipse cx="126.97" cy="198.097" rx="14.7766" ry="13.0716" fill="#F4A99C"/>
<ellipse cx="213.356" cy="198.097" rx="14.7766" ry="13.0716" fill="#F4A99C"/>
<path d="M175.736 86.1056C176.283 86.5938 176.598 87.1358 176.78 87.813C176.78 87.8812 176.78 87.9495 176.78 88.0199C176.848 88.0226 176.848 88.0226 176.917 88.0253C183.043 88.375 189.228 91.0604 193.297 95.2447C193.467 95.432 193.631 95.6224 193.794 95.8149C193.872 95.9054 193.95 95.9958 194.028 96.0863C198.344 101.135 199.838 107.671 200.316 118.049C200.317 118.123 200.317 118.198 200.318 118.274C200.318 118.486 200.318 118.698 200.318 118.91C200.318 119.004 200.318 119.004 200.318 119.099C200.316 119.447 200.269 119.755 200.178 120.092C200.131 120.301 200.143 120.494 200.163 120.706C200.172 120.795 200.18 120.885 200.188 120.977C200.236 121.406 200.293 121.835 200.351 122.264C200.674 124.622 200.847 126.961 200.85 129.338C200.85 129.481 200.851 129.624 200.851 129.766C200.857 132.279 200.857 132.279 200.515 133.488C200.499 133.545 200.483 133.602 200.466 133.66C200.074 134.972 199.242 136.146 197.937 136.835C196.365 137.53 194.713 137.304 193.104 136.872C193.047 136.857 192.989 136.842 192.93 136.826C191.952 136.551 191.023 136.163 190.098 135.769C189.793 135.64 189.487 135.511 189.181 135.383C189.119 135.357 189.056 135.33 188.992 135.303C187.262 134.577 185.532 133.855 183.737 133.272C183.646 133.243 183.646 133.243 183.554 133.213C182.74 132.953 181.907 132.761 181.071 132.57C180.995 132.552 180.995 132.552 180.918 132.534C179.805 132.28 178.684 132.082 177.55 131.923C177.498 131.915 177.445 131.908 177.391 131.9C176.585 131.787 175.779 131.677 174.965 131.617C174.853 131.608 174.853 131.608 174.738 131.599C171.407 131.366 168.028 131.559 164.757 132.169C164.661 132.186 164.566 132.204 164.468 132.222C161.764 132.731 159.193 133.549 156.665 134.557C156.497 134.624 156.328 134.691 156.159 134.758C155.253 135.117 154.352 135.483 153.455 135.859C151.216 136.798 148.619 137.79 146.154 136.997C145.831 136.86 145.539 136.702 145.247 136.515C145.193 136.48 145.139 136.446 145.083 136.41C143.788 135.478 143.242 133.903 143.027 132.468C143.004 132.284 142.986 132.1 142.969 131.915C142.963 131.847 142.956 131.779 142.95 131.709C142.885 130.938 142.88 130.169 142.884 129.396C142.884 129.322 142.884 129.248 142.885 129.171C142.889 127.821 142.94 126.478 143.054 125.132C143.058 125.084 143.062 125.036 143.066 124.987C143.168 123.79 143.306 122.6 143.487 121.411C143.62 120.68 143.62 120.68 143.508 119.959C143.5 119.804 143.497 119.649 143.496 119.495C143.495 119.448 143.495 119.4 143.495 119.352C143.493 119.195 143.493 119.038 143.492 118.881C143.492 118.77 143.491 118.659 143.491 118.549C143.489 118.191 143.489 117.833 143.489 117.475C143.489 117.415 143.489 117.354 143.489 117.292C143.488 115.471 143.507 113.66 143.716 111.847C143.736 111.674 143.755 111.5 143.774 111.326C144.415 105.62 146.155 99.7909 150.389 95.401C150.447 95.3396 150.447 95.3396 150.506 95.277C151.402 94.3272 152.384 93.4541 153.489 92.7107C153.569 92.6537 153.648 92.5964 153.728 92.5388C157.184 90.0285 162.534 87.9523 167.025 88.0199C167.028 87.9345 167.031 87.8492 167.035 87.7612C167.13 87.0128 167.608 86.4157 168.235 85.9504C170.353 84.553 173.668 84.7746 175.736 86.1056Z" fill="black"/>
<path d="M171.704 116.63C171.754 116.63 171.804 116.63 171.855 116.63C174.809 116.628 177.772 116.733 180.707 117.045C180.881 117.063 181.056 117.081 181.231 117.099C182.932 117.271 184.626 117.46 186.308 117.751C186.369 117.762 186.429 117.772 186.492 117.783C188.396 118.113 190.271 118.494 192.131 118.993C192.259 119.027 192.259 119.027 192.39 119.062C193.739 119.419 195.055 119.846 196.365 120.304C196.443 120.331 196.522 120.358 196.603 120.386C196.808 120.458 197.012 120.531 197.216 120.606C197.304 120.636 197.304 120.636 197.393 120.668C197.779 120.813 197.779 120.813 197.89 121.015C197.95 121.192 197.986 121.354 198.01 121.538C198.022 121.637 198.022 121.637 198.036 121.737C198.049 121.843 198.049 121.843 198.062 121.952C198.071 122.026 198.081 122.1 198.091 122.176C198.121 122.419 198.151 122.661 198.18 122.904C198.195 123.029 198.195 123.029 198.211 123.156C198.46 125.223 198.571 127.259 198.577 129.337C198.577 129.485 198.578 129.633 198.578 129.781C198.592 133.423 198.592 133.423 197.419 134.635C196.939 135.04 196.355 135.222 195.708 135.243C195.073 135.219 194.478 135.09 193.87 134.928C193.816 134.914 193.763 134.9 193.708 134.885C192.506 134.558 191.38 134.047 190.246 133.567C186.071 131.801 181.889 130.433 177.319 129.81C177.242 129.8 177.165 129.789 177.087 129.778C175.432 129.565 173.76 129.519 172.092 129.522C171.997 129.522 171.903 129.522 171.805 129.522C166.769 129.531 161.947 130.393 157.27 132.1C157.223 132.117 157.175 132.135 157.126 132.152C155.894 132.603 154.689 133.092 153.497 133.624C149.142 135.567 149.142 135.567 147.264 135.148C146.562 134.917 146.147 134.504 145.795 133.915C145.112 132.55 145.146 131.076 145.152 129.608C145.153 129.331 145.152 129.055 145.151 128.778C145.15 127.534 145.214 126.304 145.323 125.064C145.328 125.004 145.333 124.945 145.338 124.884C145.376 124.437 145.422 123.99 145.475 123.544C145.519 123.174 145.554 122.809 145.56 122.437C145.584 121.093 145.584 121.093 146.017 120.709C146.479 120.439 146.99 120.308 147.516 120.176C147.836 120.095 148.147 119.993 148.459 119.887C149.099 119.671 149.742 119.467 150.389 119.269C150.468 119.245 150.547 119.221 150.628 119.196C152.879 118.515 155.22 118.083 157.552 117.71C157.721 117.683 157.891 117.655 158.06 117.627C160.59 117.213 163.146 116.99 165.707 116.803C165.761 116.799 165.815 116.795 165.871 116.791C167.809 116.647 169.761 116.632 171.704 116.63Z" fill="#AADCE7"/>
<path d="M177.257 90.0849C177.341 90.096 177.341 90.096 177.426 90.1073C182.027 90.7317 186.622 92.2861 190.045 95.2335C190.215 95.3793 190.388 95.518 190.566 95.6553C190.813 95.8505 191.025 96.061 191.236 96.2882C191.383 96.445 191.537 96.595 191.691 96.746C194.585 99.6897 196.179 103.583 197.046 107.404C197.074 107.524 197.103 107.644 197.131 107.764C197.955 111.349 198.165 115.132 198.104 118.786C197.664 118.656 197.234 118.513 196.804 118.358C190.955 116.25 184.781 115.363 177.762 114.82C177.642 114.811 177.523 114.803 177.404 114.794C175.937 114.685 174.471 114.681 172.999 114.647C172.999 106.611 172.999 98.5754 172.999 90.2962C173.348 90.2734 173.698 90.2507 174.058 90.2272C174.297 90.1846 174.527 90.1407 174.762 90.0849C175.617 89.8831 176.391 89.9692 177.257 90.0849Z" fill="#AADCE7"/>
<path d="M168.92 90.0419C169.512 90.1952 170.124 90.273 170.731 90.3652C170.731 98.3782 170.731 106.391 170.731 114.647C169.583 114.67 168.435 114.693 167.252 114.716C166.601 114.748 165.954 114.782 165.305 114.832C165.186 114.841 165.186 114.841 165.065 114.85C158.702 115.319 152.049 116.16 146.173 118.557C145.928 118.648 145.928 118.648 145.701 118.648C145.648 115.654 145.714 112.649 146.266 109.689C146.308 109.46 146.347 109.231 146.385 109.001C147.096 104.855 148.627 100.599 151.599 97.3325C151.666 97.2568 151.734 97.181 151.801 97.1053C152.471 96.3607 153.211 95.6759 154.019 95.056C154.091 94.9989 154.163 94.9417 154.237 94.8828C157.493 92.3053 164.454 88.8502 168.92 90.0419Z" fill="#AADCE7"/>
<path d="M173.963 87.6275C174.169 87.8522 174.196 88.0064 174.209 88.2957C173.295 88.9213 172.042 88.8679 170.948 88.7632C170.389 88.6877 169.916 88.5074 169.445 88.2267C169.495 87.8839 169.613 87.7705 169.901 87.5614C170.936 86.9112 172.944 86.9731 173.963 87.6275Z" fill="#AADCE7"/>
</svg>
