<svg width="186" height="326" viewBox="0 0 186 326" fill="none" xmlns="http://www.w3.org/2000/svg">
<path d="M38.9834 8.30218C39.8787 9.08682 40.741 9.90174 41.5988 10.7271C41.7718 10.8841 41.9448 11.041 42.1231 11.2027C44.9755 13.8713 47.2404 17.3264 49.24 20.6607C49.3524 20.8468 49.4648 21.0329 49.5806 21.2247C58.8843 36.7414 65.1806 56.8966 65.0318 75.1679C65.3779 75.069 65.3779 75.069 65.731 74.968C68.0511 74.3242 70.3522 73.8511 72.7366 73.4964C72.9126 73.47 73.0885 73.4436 73.2697 73.4165C74.3483 73.2552 75.4275 73.0994 76.5073 72.9465C76.9634 72.8812 77.4191 72.8131 77.8748 72.7447C90.3229 70.9014 102.959 72.5315 115.209 74.9132C115.198 74.6249 115.187 74.3367 115.176 74.0396C115.179 72.0991 115.477 70.1788 115.734 68.259C115.762 68.0489 115.79 67.8389 115.819 67.6225C118.22 49.7156 122.7 29.9308 134.312 15.5665C134.427 15.4223 134.542 15.2781 134.661 15.1295C140.438 7.92823 148.187 1.88286 157.49 0.284148C163.063 -0.0541722 167.581 0.202945 172.024 3.83412C173.592 5.2954 174.583 7.0671 175.574 8.94418C175.706 9.19239 175.838 9.44061 175.973 9.69636C177.441 12.6927 177.899 15.9926 177.919 19.2986C177.92 19.5046 177.922 19.7106 177.924 19.9229C177.928 20.588 177.93 21.2531 177.931 21.9183C177.931 22.2603 177.931 22.2603 177.931 22.6092C177.927 26.3383 177.741 29.9699 177.103 33.6507C177.039 34.0263 177.039 34.0263 176.974 34.4094C173.349 55.2872 163.948 75.8097 150.613 92.2333C151.374 93.1423 152.132 94.0209 152.985 94.844C154.168 96.0085 155.18 97.3073 156.217 98.6009C156.385 98.8029 156.553 99.0048 156.726 99.2128C159.169 102.172 161.187 105.466 163.094 108.789C163.185 108.947 163.277 109.105 163.371 109.268C168.915 118.932 172.322 130.68 172.297 141.855C172.297 142.106 172.298 142.357 172.298 142.615C172.298 143.14 172.298 143.665 172.296 144.191C172.295 144.989 172.296 145.788 172.298 146.586C172.298 147.1 172.298 147.614 172.297 148.127C172.298 148.363 172.298 148.599 172.299 148.842C172.294 150.283 172.192 151.678 172.009 153.108C172.251 153.125 172.251 153.125 172.499 153.143C173.238 153.197 173.976 153.256 174.715 153.315C174.969 153.333 175.224 153.351 175.486 153.369C176.86 153.483 177.956 153.611 179.14 154.382C179.757 155.122 179.895 155.57 180 156.531C179.892 157.552 179.733 158.126 179.14 158.966C177.756 159.722 176.743 159.814 175.192 159.667C175.009 159.653 174.825 159.64 174.636 159.626C173.498 159.538 172.373 159.393 171.244 159.221C170.673 160.884 170.165 162.56 169.684 164.252C169.617 164.486 169.55 164.72 169.48 164.961C169.416 165.188 169.351 165.415 169.284 165.648C169.227 165.851 169.169 166.054 169.109 166.263C168.946 166.884 168.817 167.506 168.697 168.136C168.965 168.228 169.233 168.321 169.508 168.416C174.362 170.138 174.362 170.138 175.574 171.956C175.745 172.832 175.752 173.629 175.574 174.504C174.933 175.429 174.188 175.893 173.136 176.261C171.811 176.3 170.751 175.787 169.541 175.284C169.063 175.089 168.584 174.896 168.105 174.704C167.79 174.573 167.79 174.573 167.468 174.44C166.892 174.207 166.892 174.207 166.15 174.249C165.74 174.879 165.377 175.5 165.02 176.159C163.153 179.465 160.888 182.465 158.254 185.201C158.052 185.415 158.052 185.415 157.846 185.634C153.766 189.939 149.039 193.145 143.752 195.819C143.497 195.949 143.497 195.949 143.236 196.081C142.504 196.44 142.016 196.663 141.189 196.663C141.189 196.831 141.189 196.999 141.189 197.172C141.394 197.225 141.598 197.277 141.809 197.332C143.009 197.794 143.976 198.474 145.026 199.21C145.24 199.359 145.454 199.507 145.675 199.661C148.642 201.733 151.44 203.98 154.179 206.342C154.362 206.498 154.544 206.655 154.732 206.816C155.231 207.248 155.725 207.685 156.217 208.125C156.426 208.31 156.634 208.495 156.85 208.686C160.246 211.745 163.635 214.921 166.405 218.568C166.598 218.807 166.79 219.046 166.989 219.293C171.438 224.888 177.066 232.678 176.339 240.218C176.316 240.524 176.316 240.524 176.294 240.836C175.887 244.145 173.99 247.466 171.499 249.642C169.87 250.859 168.082 251.591 166.15 252.189C165.977 252.247 165.804 252.305 165.625 252.364C159.916 253.97 153.302 251.682 148.121 249.359C147.918 249.268 147.716 249.178 147.508 249.085C147.356 249.017 147.204 248.948 147.047 248.878C147.107 249.325 147.107 249.325 147.167 249.781C149.193 265.136 150.383 280.522 150.421 296.011C150.422 296.515 150.424 297.018 150.426 297.522C150.452 305.497 150.388 313.753 144.732 320.022C141.978 322.642 138.449 324.088 134.821 325.035C134.633 325.085 134.446 325.135 134.252 325.186C131.95 325.697 129.59 325.648 127.244 325.653C126.502 325.656 125.76 325.669 125.018 325.681C121.201 325.715 117.991 325.076 114.588 323.284C114.42 323.197 114.251 323.11 114.077 323.02C110.283 321.01 107.394 317.807 106.037 313.692C105.068 310.498 104.572 307.177 104.002 303.895C103.885 303.235 103.767 302.575 103.649 301.916C103.511 301.132 103.374 300.348 103.238 299.565C102.929 299.588 102.929 299.588 102.615 299.611C95.6982 300.118 88.8495 300.195 81.922 299.835C81.6012 299.819 81.6012 299.819 81.2738 299.802C80.6663 299.77 80.0589 299.736 79.4515 299.701C79.2702 299.691 79.0888 299.681 78.9019 299.671C78.0729 299.621 77.29 299.554 76.4936 299.31C76.476 299.524 76.476 299.524 76.458 299.743C75.7449 307.639 74.6308 316.236 68.328 321.682C67.4696 322.314 66.5988 322.829 65.6526 323.316C65.4305 323.432 65.4305 323.432 65.2039 323.551C61.5731 325.309 58.0677 325.747 54.0789 325.697C53.316 325.688 52.5539 325.691 51.791 325.696C47.9361 325.694 44.3043 325.248 40.771 323.602C40.4876 323.472 40.4876 323.472 40.1984 323.34C35.893 321.276 33.1556 318.022 31.4105 313.573C31.2657 313.207 31.2657 313.207 31.118 312.834C29.3534 307.786 29.4987 302.222 29.5291 296.948C29.5321 296.388 29.5337 295.827 29.5351 295.267C29.5766 280.627 30.5425 266.08 32.4164 251.56C32.4397 251.376 32.463 251.192 32.487 251.002C32.5847 250.26 32.701 249.591 32.9387 248.878C32.6639 248.989 32.3891 249.1 32.106 249.214C25.2479 251.952 18.3707 254.247 11.1812 251.325C7.59455 249.63 5.55407 246.969 4.15687 243.274C2.4554 238.196 4.5839 233.015 6.83229 228.495C10.7867 220.974 16.9871 213.866 23.432 208.376C23.9083 207.969 24.3784 207.557 24.8468 207.142C29.1113 203.374 33.6855 199.891 38.5423 196.918C38.3939 196.838 38.2455 196.759 38.0926 196.678C30.0687 192.38 22.6728 187.484 17.4016 179.852C17.2918 179.693 17.1819 179.534 17.0687 179.371C15.9203 177.7 14.8267 176.018 13.8357 174.249C12.6888 174.454 11.6263 174.712 10.5464 175.15C10.2817 175.257 10.2817 175.257 10.0116 175.366C9.65853 175.51 9.3072 175.66 8.95799 175.813C7.70921 176.324 6.97496 176.315 5.68511 175.777C4.90554 175.097 4.51022 174.697 4.2892 173.693C4.22525 172.668 4.35686 172.06 4.8414 171.145C6.4887 169.46 9.0505 168.831 11.2887 168.391C11.2116 168.125 11.2116 168.125 11.1331 167.855C10.8966 167.036 10.6628 166.217 10.429 165.398C10.3483 165.12 10.2675 164.842 10.1843 164.555C9.65872 162.705 9.26971 160.87 8.9963 158.966C8.70737 159.045 8.41843 159.124 8.12074 159.205C6.91687 159.47 5.71814 159.592 4.49117 159.683C4.30667 159.699 4.12217 159.716 3.93208 159.733C2.68604 159.812 1.89859 159.635 0.845685 158.966C0.0806242 158.074 -0.0427085 157.285 0.0109234 156.146C0.121412 155.379 0.33118 154.963 0.845685 154.382C2.33923 153.587 3.7427 153.44 5.41449 153.315C5.66156 153.294 5.90863 153.273 6.16318 153.252C6.76778 153.201 7.37246 153.153 7.97747 153.108C7.93651 152.829 7.89555 152.55 7.85335 152.263C7.6889 150.939 7.67681 149.624 7.67103 148.292C7.66885 147.893 7.66885 147.893 7.66663 147.486C7.66423 146.923 7.66256 146.36 7.66158 145.797C7.65913 144.957 7.65124 144.118 7.64317 143.278C7.6191 138.495 8.0772 133.82 9.13957 129.15C9.203 128.869 9.26643 128.589 9.33178 128.3C10.5916 122.972 12.4212 117.768 14.8546 112.865C14.9667 112.635 15.0789 112.405 15.1945 112.168C18.0032 106.447 21.4575 101.079 25.7821 96.3802C26.2891 95.8288 26.7818 95.2676 27.2715 94.7007C27.9429 93.9291 28.6386 93.1999 29.3728 92.488C29.0306 91.6842 28.5536 91.0728 27.9908 90.4099C23.9674 85.645 20.5995 80.1396 17.6563 74.6585C17.5318 74.4288 17.4074 74.199 17.2791 73.9623C9.82249 60.1488 4.34526 44.9368 2.37392 29.3207C2.3514 29.1441 2.32887 28.9674 2.30567 28.7855C2.14348 27.4392 2.07198 26.1104 2.05853 24.7549C2.056 24.5457 2.05347 24.3365 2.05086 24.1209C1.98235 16.9935 2.15746 9.81442 7.46806 4.35945C7.63978 4.17789 7.81149 3.99632 7.98842 3.80925C9.99557 1.85328 12.5974 0.680102 15.364 0.284148C15.6368 0.242286 15.6368 0.242286 15.9152 0.199577C24.444 -0.930566 32.6235 2.86931 38.9834 8.30218Z" fill="white"/>
<path d="M38.9834 8.30218C39.8787 9.08682 40.741 9.90174 41.5988 10.7271C41.7718 10.8841 41.9448 11.041 42.1231 11.2027C44.9755 13.8713 47.2404 17.3264 49.24 20.6607C49.3524 20.8468 49.4648 21.0329 49.5806 21.2247C58.8843 36.7414 65.1806 56.8966 65.0318 75.1679C65.3779 75.069 65.3779 75.069 65.731 74.968C68.0511 74.3242 70.3522 73.8511 72.7366 73.4964C72.9126 73.47 73.0885 73.4436 73.2697 73.4165C74.3483 73.2552 75.4275 73.0994 76.5073 72.9465C76.9634 72.8812 77.4191 72.8131 77.8748 72.7447C90.3229 70.9014 102.959 72.5315 115.209 74.9132C115.198 74.6249 115.187 74.3367 115.176 74.0396C115.179 72.0991 115.477 70.1788 115.734 68.259C115.762 68.0489 115.79 67.8389 115.819 67.6225C118.22 49.7156 122.7 29.9308 134.312 15.5665C134.427 15.4223 134.542 15.2781 134.661 15.1295C140.438 7.92823 148.187 1.88286 157.49 0.284148C163.063 -0.0541722 167.581 0.202945 172.024 3.83412C173.592 5.2954 174.583 7.0671 175.574 8.94418C175.706 9.19239 175.838 9.44061 175.973 9.69636C177.441 12.6927 177.899 15.9926 177.919 19.2986C177.92 19.5046 177.922 19.7106 177.924 19.9229C177.928 20.588 177.93 21.2531 177.931 21.9183C177.931 22.2603 177.931 22.2603 177.931 22.6092C177.927 26.3383 177.741 29.9699 177.103 33.6507C177.039 34.0263 177.039 34.0263 176.974 34.4094C173.349 55.2872 163.948 75.8097 150.613 92.2333C151.374 93.1423 152.132 94.0209 152.985 94.844C154.168 96.0085 155.18 97.3073 156.217 98.6009C156.385 98.8029 156.553 99.0048 156.726 99.2128C159.169 102.172 161.187 105.466 163.094 108.789C163.185 108.947 163.277 109.105 163.371 109.268C168.915 118.932 172.322 130.68 172.297 141.855C172.297 142.106 172.298 142.357 172.298 142.615C172.298 143.14 172.298 143.665 172.296 144.191C172.295 144.989 172.296 145.788 172.298 146.586C172.298 147.1 172.298 147.614 172.297 148.127C172.298 148.363 172.298 148.599 172.299 148.842C172.294 150.283 172.192 151.678 172.009 153.108C172.251 153.125 172.251 153.125 172.499 153.143C173.238 153.197 173.976 153.256 174.715 153.315C174.969 153.333 175.224 153.351 175.486 153.369C176.86 153.483 177.956 153.611 179.14 154.382C179.757 155.122 179.895 155.57 180 156.531C179.892 157.552 179.733 158.126 179.14 158.966C177.756 159.722 176.743 159.814 175.192 159.667C175.009 159.653 174.825 159.64 174.636 159.626C173.498 159.538 172.373 159.393 171.244 159.221C170.673 160.884 170.165 162.56 169.684 164.252C169.617 164.486 169.55 164.72 169.48 164.961C169.416 165.188 169.351 165.415 169.284 165.648C169.227 165.851 169.169 166.054 169.109 166.263C168.946 166.884 168.817 167.506 168.697 168.136C168.965 168.228 169.233 168.321 169.508 168.416C174.362 170.138 174.362 170.138 175.574 171.956C175.745 172.832 175.752 173.629 175.574 174.504C174.933 175.429 174.188 175.893 173.136 176.261C171.811 176.3 170.751 175.787 169.541 175.284C169.063 175.089 168.584 174.896 168.105 174.704C167.79 174.573 167.79 174.573 167.468 174.44C166.892 174.207 166.892 174.207 166.15 174.249C165.74 174.879 165.377 175.5 165.02 176.159C163.153 179.465 160.888 182.465 158.254 185.201C158.052 185.415 158.052 185.415 157.846 185.634C153.766 189.939 149.039 193.145 143.752 195.819C143.497 195.949 143.497 195.949 143.236 196.081C142.504 196.44 142.016 196.663 141.189 196.663C141.189 196.831 141.189 196.999 141.189 197.172C141.394 197.225 141.598 197.277 141.809 197.332C143.009 197.794 143.976 198.474 145.026 199.21C145.24 199.359 145.454 199.507 145.675 199.661C148.642 201.733 151.44 203.98 154.179 206.342C154.362 206.498 154.544 206.655 154.732 206.816C155.231 207.248 155.725 207.685 156.217 208.125C156.426 208.31 156.634 208.495 156.85 208.686C160.246 211.745 163.635 214.921 166.405 218.568C166.598 218.807 166.79 219.046 166.989 219.293C171.438 224.888 177.066 232.678 176.339 240.218C176.316 240.524 176.316 240.524 176.294 240.836C175.887 244.145 173.99 247.466 171.499 249.642C169.87 250.859 168.082 251.591 166.15 252.189C165.977 252.247 165.804 252.305 165.625 252.364C159.916 253.97 153.302 251.682 148.121 249.359C147.918 249.268 147.716 249.178 147.508 249.085C147.356 249.017 147.204 248.948 147.047 248.878C147.107 249.325 147.107 249.325 147.167 249.781C149.193 265.136 150.383 280.522 150.421 296.011C150.422 296.515 150.424 297.018 150.426 297.522C150.452 305.497 150.388 313.753 144.732 320.022C141.978 322.642 138.449 324.088 134.821 325.035C134.633 325.085 134.446 325.135 134.252 325.186C131.95 325.697 129.59 325.648 127.244 325.653C126.502 325.656 125.76 325.669 125.018 325.681C121.201 325.715 117.991 325.076 114.588 323.284C114.42 323.197 114.251 323.11 114.077 323.02C110.283 321.01 107.394 317.807 106.037 313.692C105.068 310.498 104.572 307.177 104.002 303.895C103.885 303.235 103.767 302.575 103.649 301.916C103.511 301.132 103.374 300.348 103.238 299.565C102.929 299.588 102.929 299.588 102.615 299.611C95.6982 300.118 88.8495 300.195 81.922 299.835C81.6012 299.819 81.6012 299.819 81.2738 299.802C80.6663 299.77 80.0589 299.736 79.4515 299.701C79.2702 299.691 79.0888 299.681 78.9019 299.671C78.0729 299.621 77.29 299.554 76.4936 299.31C76.476 299.524 76.476 299.524 76.458 299.743C75.7449 307.639 74.6308 316.236 68.328 321.682C67.4696 322.314 66.5988 322.829 65.6526 323.316C65.4305 323.432 65.4305 323.432 65.2039 323.551C61.5731 325.309 58.0677 325.747 54.0789 325.697C53.316 325.688 52.5539 325.691 51.791 325.696C47.9361 325.694 44.3043 325.248 40.771 323.602C40.4876 323.472 40.4876 323.472 40.1984 323.34C35.893 321.276 33.1556 318.022 31.4105 313.573C31.2657 313.207 31.2657 313.207 31.118 312.834C29.3534 307.786 29.4987 302.222 29.5291 296.948C29.5321 296.388 29.5337 295.827 29.5351 295.267C29.5766 280.627 30.5425 266.08 32.4164 251.56C32.4397 251.376 32.463 251.192 32.487 251.002C32.5847 250.26 32.701 249.591 32.9387 248.878C32.6639 248.989 32.3891 249.1 32.106 249.214C25.2479 251.952 18.3707 254.247 11.1812 251.325C7.59455 249.63 5.55407 246.969 4.15687 243.274C2.4554 238.196 4.5839 233.015 6.83229 228.495C10.7867 220.974 16.9871 213.866 23.432 208.376C23.9083 207.969 24.3784 207.557 24.8468 207.142C29.1113 203.374 33.6855 199.891 38.5423 196.918C38.3939 196.838 38.2455 196.759 38.0926 196.678C30.0687 192.38 22.6728 187.484 17.4016 179.852C17.2918 179.693 17.1819 179.534 17.0687 179.371C15.9203 177.7 14.8267 176.018 13.8357 174.249C12.6888 174.454 11.6263 174.712 10.5464 175.15C10.2817 175.257 10.2817 175.257 10.0116 175.366C9.65853 175.51 9.3072 175.66 8.95799 175.813C7.70921 176.324 6.97496 176.315 5.68511 175.777C4.90554 175.097 4.51022 174.697 4.2892 173.693C4.22525 172.668 4.35686 172.06 4.8414 171.145C6.4887 169.46 9.0505 168.831 11.2887 168.391C11.2116 168.125 11.2116 168.125 11.1331 167.855C10.8966 167.036 10.6628 166.217 10.429 165.398C10.3483 165.12 10.2675 164.842 10.1843 164.555C9.65872 162.705 9.26971 160.87 8.9963 158.966C8.70737 159.045 8.41843 159.124 8.12074 159.205C6.91687 159.47 5.71814 159.592 4.49117 159.683C4.30667 159.699 4.12217 159.716 3.93208 159.733C2.68604 159.812 1.89859 159.635 0.845685 158.966C0.0806242 158.074 -0.0427085 157.285 0.0109234 156.146C0.121412 155.379 0.33118 154.963 0.845685 154.382C2.33923 153.587 3.7427 153.44 5.41449 153.315C5.66156 153.294 5.90863 153.273 6.16318 153.252C6.76778 153.201 7.37246 153.153 7.97747 153.108C7.93651 152.829 7.89555 152.55 7.85335 152.263C7.6889 150.939 7.67681 149.624 7.67103 148.292C7.66885 147.893 7.66885 147.893 7.66663 147.486C7.66423 146.923 7.66256 146.36 7.66158 145.797C7.65913 144.957 7.65124 144.118 7.64317 143.278C7.6191 138.495 8.0772 133.82 9.13957 129.15C9.203 128.869 9.26643 128.589 9.33178 128.3C10.5916 122.972 12.4212 117.768 14.8546 112.865C14.9667 112.635 15.0789 112.405 15.1945 112.168C18.0032 106.447 21.4575 101.079 25.7821 96.3802C26.2891 95.8288 26.7818 95.2676 27.2715 94.7007C27.9429 93.9291 28.6386 93.1999 29.3728 92.488C29.0306 91.6842 28.5536 91.0728 27.9908 90.4099C23.9674 85.645 20.5995 80.1396 17.6563 74.6585C17.5318 74.4288 17.4074 74.199 17.2791 73.9623C9.82249 60.1488 4.34526 44.9368 2.37392 29.3207C2.3514 29.1441 2.32887 28.9674 2.30567 28.7855C2.14348 27.4392 2.07198 26.1104 2.05853 24.7549C2.056 24.5457 2.05347 24.3365 2.05086 24.1209C1.98235 16.9935 2.15746 9.81442 7.46806 4.35945C7.63978 4.17789 7.81149 3.99632 7.98842 3.80925C9.99557 1.85328 12.5974 0.680102 15.364 0.284148C15.6368 0.242286 15.6368 0.242286 15.9152 0.199577C24.444 -0.930566 32.6235 2.86931 38.9834 8.30218ZM11.622 10.546C9.20833 14.357 8.8877 18.5396 8.90078 22.953C8.90101 23.1394 8.90123 23.3258 8.90146 23.5178C8.92715 30.1085 10.1246 36.4578 11.7981 42.8202C11.8728 43.1052 11.9476 43.3902 12.0247 43.6839C13.9615 50.9164 16.7845 57.9473 19.9487 64.7249C20.0567 64.9568 20.1648 65.1887 20.2761 65.4276C23.099 71.4178 26.5639 77.1254 30.4394 82.4907C30.5783 82.6831 30.7172 82.8754 30.8603 83.0736C32.6894 85.5818 34.6541 87.9828 36.6983 90.3183C37.3923 91.1683 37.5312 91.7651 37.4916 92.8541C37.0425 94.6825 35.8005 95.779 34.451 96.9931C34.1068 97.3095 33.7629 97.6262 33.4193 97.9433C33.2506 98.0984 33.082 98.2535 32.9083 98.4133C22.3081 108.204 15.9149 122.857 14.3451 137.062C14.3213 137.263 14.2975 137.464 14.2729 137.672C14.0611 139.666 14.043 141.657 14.0432 143.66C14.0427 144.236 14.038 144.812 14.0332 145.388C14.0238 147.914 14.2254 150.356 14.5998 152.853C15.0465 152.868 15.0465 152.868 15.5023 152.882C15.8966 152.899 16.2909 152.916 16.6853 152.933C16.8811 152.939 17.077 152.945 17.2787 152.95C18.4487 153.006 19.2539 153.119 20.2034 153.872C20.8334 154.817 20.8519 155.578 20.7128 156.674C20.4007 157.392 20.1762 157.8 19.5189 158.226C18.7448 158.53 18.039 158.566 17.2106 158.616C16.9125 158.635 16.6143 158.654 16.3072 158.674C16.08 158.686 15.8528 158.699 15.6187 158.712C15.7022 160.438 16.032 162.031 16.4783 163.694C16.5316 163.901 16.5848 164.107 16.6397 164.32C16.7832 164.835 16.9625 165.341 17.1469 165.843C17.9274 166.104 18.3469 166.088 19.1527 166.035C20.1251 166.029 20.4045 166.064 21.2541 166.608C21.7829 167.454 21.9189 167.938 21.858 168.919C21.6437 169.751 21.1062 170.155 20.4581 170.683C20.201 170.935 19.9457 171.189 19.694 171.447C21.6538 175.057 23.9934 178.157 26.8258 181.126C27.0142 181.328 27.2027 181.53 27.3969 181.738C33.2094 187.795 41.3721 191.515 49.415 193.474C50.862 193.844 51.8969 194.118 52.8058 195.389C53.1851 196.454 53.1832 197.394 52.7422 198.43C51.8585 199.472 50.9611 199.589 49.6857 199.783C43.382 200.873 37.7685 204.88 32.9387 208.889C32.6113 209.154 32.2836 209.418 31.9557 209.682C29.4659 211.696 27.0857 213.791 24.7881 216.021C24.5763 216.226 24.3646 216.43 24.1464 216.641C20.1195 220.552 20.1195 220.552 16.6375 224.935C16.3997 225.276 16.3997 225.276 16.1571 225.623C11.1764 232.526 11.1764 232.526 10.0151 240.727C10.4898 242.472 11.1962 244.015 12.7761 244.998C13.0365 245.122 13.2968 245.247 13.5651 245.376C13.8248 245.503 14.0845 245.63 14.3521 245.762C17.9714 247.265 22.4761 246.202 25.9604 244.804C27.3166 244.235 28.6558 243.63 29.9937 243.02C30.2805 242.89 30.5673 242.76 30.8628 242.626C31.1378 242.498 31.4127 242.371 31.696 242.24C31.9414 242.126 32.1869 242.013 32.4397 241.896C32.8128 241.696 32.8128 241.696 33.1934 241.491C33.3428 241.417 33.4921 241.342 33.646 241.265C35.2362 240.335 35.5463 238.963 36.035 237.266C36.1244 236.976 36.2137 236.687 36.3058 236.389C36.5903 235.465 36.8664 234.538 37.1414 233.611C40.0621 223.895 40.0621 223.895 41.7306 222.689C42.5235 222.312 43.0215 222.28 43.8911 222.388C44.8543 222.826 45.2965 223.189 45.6741 224.171C45.8714 226.804 44.9291 229.262 44.0868 231.708C43.6983 232.838 43.3242 233.973 42.9489 235.108C42.8748 235.331 42.8007 235.554 42.7244 235.784C39.1819 246.507 37.663 257.69 36.8051 268.912C36.7568 269.542 36.7073 270.172 36.6578 270.802C36.0462 278.688 35.8157 286.562 35.7405 294.47C35.7383 294.679 35.7361 294.888 35.7339 295.104C35.2296 305.964 35.2296 305.964 39.7979 315.372C42.2265 317.721 45.2014 318.65 48.4758 319.177C48.6807 319.21 48.8856 319.244 49.0967 319.278C54.2729 319.943 60.2017 319.71 64.602 316.678C67.1493 314.63 68.0731 311.754 68.725 308.654C68.7782 308.407 68.8313 308.16 68.8861 307.906C69.3817 305.506 69.7155 303.087 70.016 300.657C70.7309 294.99 70.7309 294.99 71.7974 293.897C73.667 292.555 76.4648 293.154 78.6615 293.38C82.0738 293.727 85.4631 293.776 88.8907 293.759C89.8215 293.754 90.7522 293.753 91.6829 293.754C94.2986 293.75 96.9113 293.733 99.5236 293.592C99.7046 293.582 99.8855 293.572 100.072 293.562C100.978 293.505 101.841 293.383 102.728 293.197C103.45 293.14 104.17 293.138 104.893 293.133C105.083 293.128 105.274 293.123 105.469 293.117C106.624 293.109 107.433 293.16 108.332 293.961C109.2 295.469 109.355 297.097 109.59 298.8C109.677 299.395 109.764 299.989 109.852 300.583C109.896 300.882 109.94 301.18 109.985 301.488C110.844 309.805 110.844 309.805 115.19 316.536C120.098 319.771 126.396 320.17 132.07 319.08C132.306 319.028 132.541 318.976 132.784 318.922C133.038 318.873 133.291 318.823 133.553 318.772C137.08 318.007 139.838 316.402 141.914 313.403C143.57 310.585 144.03 307.399 144.028 304.173C144.029 303.887 144.029 303.887 144.03 303.595C144.033 302.968 144.033 302.34 144.034 301.713C144.034 301.265 144.035 300.818 144.036 300.371C144.038 299.429 144.038 298.488 144.038 297.547C144.038 296.603 144.04 295.659 144.043 294.716C144.076 285.811 143.769 276.922 142.964 268.051C142.946 267.848 142.927 267.645 142.909 267.437C141.829 255.757 140.067 244.448 136.345 233.306C136.248 233.014 136.248 233.014 136.149 232.717C135.837 231.777 135.52 230.84 135.192 229.906C134.438 227.709 133.672 225.335 134.678 223.105C135.624 222.436 136.475 222.294 137.623 222.388C139.336 223.206 139.978 225.395 140.587 227.079C141.056 228.414 141.505 229.755 141.953 231.096C142.108 231.555 142.263 232.015 142.419 232.474C142.495 232.699 142.571 232.923 142.649 233.155C142.8 233.602 142.952 234.05 143.104 234.496C143.445 235.501 143.772 236.503 144.051 237.526C144.616 239.615 144.616 239.615 146.075 241.141C146.478 241.355 146.887 241.557 147.302 241.746C147.609 241.907 147.609 241.907 147.922 242.071C148.563 242.404 149.211 242.714 149.865 243.02C150.213 243.183 150.213 243.183 150.568 243.35C152.584 244.286 154.618 245.119 156.726 245.821C156.927 245.889 157.127 245.957 157.334 246.026C160.283 246.846 163.905 246.609 166.66 245.312C168.458 244.174 169.312 242.703 169.971 240.727C170.559 234.117 165.838 227.835 161.824 222.977C160.975 222.003 160.104 221.048 159.223 220.102C158.533 219.361 157.861 218.606 157.188 217.851C156.312 216.886 155.41 216.01 154.413 215.172C153.898 214.724 153.428 214.25 152.953 213.76C151.979 212.773 150.933 211.908 149.85 211.043C149.191 210.504 148.559 209.945 147.928 209.374C143.03 205.003 136.613 200.545 129.95 199.719C128.928 199.583 128.499 199.495 127.626 198.908C127.076 198.023 126.925 197.451 126.925 196.408C127.239 195.409 127.561 194.979 128.39 194.339C129.442 193.803 130.569 193.547 131.708 193.256C138.806 191.435 145.33 188.245 150.868 183.418C151.116 183.204 151.365 182.989 151.621 182.769C155.186 179.636 158.041 175.876 160.292 171.702C160.292 171.534 160.292 171.366 160.292 171.192C160.008 171.045 159.725 170.898 159.432 170.747C158.884 170.428 158.539 170.212 158.143 169.712C157.837 168.523 157.81 167.703 158.43 166.624C159.745 165.805 161.075 165.999 162.584 166.098C162.836 165.25 163.085 164.401 163.333 163.551C163.403 163.313 163.474 163.075 163.547 162.83C163.947 161.452 164.234 160.14 164.367 158.712C164.035 158.706 164.035 158.706 163.697 158.701C161 158.589 161 158.589 160.101 157.836C159.306 156.931 159.173 156.373 159.182 155.156C159.335 154.285 159.876 153.89 160.547 153.363C161.387 152.943 162.328 153.011 163.253 152.965C163.457 152.954 163.661 152.943 163.872 152.932C164.377 152.905 164.881 152.879 165.386 152.853C168.246 137.326 163.343 120.233 154.731 107.292C151.773 103.033 148.472 99.0329 144.368 95.835C143.338 94.9457 142.546 94.0936 142.351 92.7268C142.558 90.8666 143.793 89.6245 145.026 88.2853C149.11 83.8393 152.477 78.6237 155.453 73.385C155.623 73.0856 155.623 73.0856 155.796 72.7802C161.425 62.804 165.853 52.1403 168.697 41.0372C168.757 40.8085 168.817 40.5798 168.879 40.3442C170.349 34.6798 171.084 28.9101 171.085 23.0645C171.086 22.8921 171.086 22.7198 171.087 22.5423C171.086 19.4805 170.878 16.44 169.875 13.5289C169.774 13.2242 169.672 12.9195 169.567 12.6056C168.634 10.3797 166.942 8.49636 164.721 7.5214C163.585 7.11095 162.544 7.02381 161.343 7.03388C161.133 7.03552 160.924 7.03716 160.709 7.03885C155.272 7.19687 150.599 9.94434 146.283 13.0195C146.072 13.1682 145.86 13.317 145.642 13.4702C130.731 24.4931 125.714 46.723 123.075 63.9869C122.372 68.683 121.858 73.3977 121.453 78.1289C121.433 78.3418 121.414 78.5547 121.393 78.7741C121.358 79.1542 121.326 79.5346 121.299 79.9153C121.188 81.0795 120.881 81.7329 120.048 82.5544C118.101 83.2036 116.377 82.5475 114.477 81.9972C108.915 80.4519 103.382 79.5043 97.6342 78.9885C97.2302 78.9517 97.2302 78.9517 96.8181 78.9141C86.6974 78.0569 76.3557 79.2131 66.56 81.7903C65.9595 81.9477 65.3591 82.1049 64.758 82.2599C64.28 82.3838 63.8032 82.5117 63.3264 82.64C62.1342 82.8795 61.1104 82.9907 59.9854 82.4907C59.1113 81.7915 58.9491 81.2344 58.7877 80.1248C58.7534 79.7598 58.7213 79.3946 58.691 79.0293C58.6529 78.6173 58.6148 78.2053 58.5767 77.7933C58.5574 77.5759 58.538 77.3585 58.5181 77.1345C56.799 58.023 53.136 37.688 41.8535 21.6795C41.7013 21.4631 41.7013 21.4631 41.5461 21.2424C40.2439 19.4094 38.8217 17.7012 37.2687 16.076C37.127 15.9238 36.9852 15.7716 36.8391 15.6149C35.5286 14.2476 34.1104 13.1664 32.5407 12.1121C32.2935 11.9455 32.0462 11.7789 31.7914 11.6073C29.86 10.3289 27.9773 9.25275 25.8069 8.43476C25.5598 8.3394 25.5598 8.3394 25.3077 8.24211C23.1527 7.43281 21.1073 7.04519 18.8025 7.01796C18.5956 7.0142 18.3887 7.01045 18.1755 7.00658C15.4606 7.05304 13.2235 8.37867 11.622 10.546Z" fill="black"/>
<path d="M105.042 219.084C112.192 225.259 115.824 234.923 116.695 244.25C117.106 249.602 117.31 255.32 115.791 260.501C115.721 260.752 115.721 260.752 115.65 261.008C114.643 264.564 112.737 267.501 110.186 270.104C110.011 270.285 109.836 270.466 109.656 270.653C103.741 276.4 95.2896 277.276 87.5295 277.137C85.8859 277.086 84.2885 276.897 82.67 276.594C82.4973 276.561 82.3246 276.529 82.1467 276.496C76.1706 275.345 70.7741 272.447 67.2153 267.263C62.0906 259.381 62.3876 248.139 64.1629 239.196C65.9267 231.013 70.0165 222.091 77.1048 217.349C77.3439 217.199 77.583 217.049 77.8294 216.894C77.9768 216.799 78.1243 216.705 78.2762 216.608C87.1555 210.982 97.1174 212.741 105.042 219.084Z" fill="#F4A99C"/>
<path d="M90.7571 208.889C91.2245 208.92 91.2245 208.92 91.7013 208.951C99.7649 209.622 106.752 213.347 111.987 219.48C116.255 224.636 119.143 230.805 120.876 237.241C120.966 237.566 120.966 237.566 121.057 237.898C122.109 242.005 122.47 246.17 122.44 250.398C122.436 251.093 122.44 251.788 122.445 252.484C122.45 256.184 122.15 259.896 120.908 263.412C120.844 263.598 120.779 263.784 120.713 263.975C118.202 270.926 113.249 276.516 106.603 279.769C97.2451 284.117 85.2388 284.342 75.5731 280.85C70.9929 279.116 66.7401 276.251 63.7582 272.311C63.5744 272.069 63.3905 271.827 63.2011 271.578C56.7592 262.699 56.573 251.904 58.1642 241.41C58.549 239 59.1697 236.674 59.9376 234.359C60.0292 234.08 60.0292 234.08 60.1227 233.796C60.9551 231.311 62.0485 228.978 63.267 226.661C63.4773 226.259 63.681 225.853 63.8836 225.447C67.4631 218.47 74.2176 212.57 81.6514 210.099C84.5752 209.269 87.7122 208.66 90.7571 208.889ZM73.1824 221.879C73.0005 222.061 72.8186 222.243 72.6312 222.431C68.1737 227.164 65.6387 233.486 64.204 239.74C64.1654 239.907 64.1269 240.074 64.0872 240.246C63.3795 243.557 63.1644 246.853 63.1824 250.228C63.1851 250.838 63.1824 251.448 63.1792 252.058C63.1726 258.917 64.8584 265.389 69.6642 270.464C75.6537 276.195 83.7771 277.312 91.7382 277.197C99.1922 277.015 106.097 274.572 111.326 269.151C112.257 268.075 112.986 266.927 113.681 265.688C113.817 265.45 113.953 265.212 114.094 264.966C115.147 263.007 115.777 260.985 116.228 258.811C116.296 258.493 116.296 258.493 116.366 258.169C116.811 255.867 116.817 253.601 116.801 251.266C116.8 251.062 116.799 250.858 116.798 250.649C116.785 247.74 116.737 244.872 116.228 242.001C116.196 241.822 116.165 241.644 116.132 241.46C114.959 235.044 112.601 228.674 108.332 223.662C108.02 223.284 108.02 223.284 107.701 222.898C105.955 220.847 103.935 219.305 101.71 217.804C101.487 217.649 101.264 217.494 101.034 217.334C91.9797 211.428 80.276 214.689 73.1824 221.879Z" fill="black"/>
<path d="M153.924 29.8299C154.701 30.3389 155.325 30.9408 155.962 31.6129C156.156 31.8073 156.351 32.0016 156.551 32.2019C158.837 35.8432 157.735 40.5922 156.867 44.5104C156.288 46.9666 155.515 49.3521 154.689 51.7347C154.62 51.9357 154.551 52.1367 154.48 52.3437C154.108 53.4301 153.727 54.5124 153.333 55.5911C153.171 56.0348 153.012 56.4795 152.854 56.9244C152.088 59.0079 151.127 60.961 150.114 62.9317C149.856 63.4374 149.604 63.9455 149.355 64.4551C146.331 70.623 142.911 76.8418 138.387 82.0448C138.192 82.2693 138.192 82.2693 137.993 82.4984C137.587 82.9609 137.177 83.4192 136.764 83.8755C136.639 84.0135 136.515 84.1515 136.387 84.2936C135.462 85.2884 134.683 86.0191 133.318 86.2395C132.065 86.2524 131.234 86.2514 130.125 85.6266C128.49 83.6728 128.04 82.2871 128.199 79.7524C128.334 78.4936 128.522 77.245 128.724 75.9955C128.766 75.7322 128.766 75.7322 128.809 75.4636C131.043 61.5289 135.289 40.9298 147.541 32.0268C149.459 30.6861 151.511 29.4018 153.924 29.8299Z" fill="#F4A99C"/>
<path d="M27.964 29.8968C28.1767 29.9589 28.3895 30.0209 28.6087 30.0849C28.8162 30.1443 29.0237 30.2037 29.2375 30.2649C35.6056 32.4716 39.225 39.2064 41.9898 44.8986C43.6309 48.364 44.9508 51.9275 46.1835 55.5555C46.2543 55.7603 46.3251 55.9651 46.398 56.1761C48.6434 62.7088 50.0111 69.4757 51.1256 76.2785C51.3069 77.3843 51.4963 78.4887 51.6867 79.593C52.0035 81.7049 51.9812 83.1022 50.7175 84.8786C49.9801 85.6464 49.3176 86.0612 48.2639 86.2487C46.6896 86.2796 45.6111 86.1989 44.4115 85.1353C36.7967 77.1857 31.275 66.6609 27.0805 56.5744C26.9406 56.2554 26.8003 55.9367 26.6596 55.6182C25.1767 52.2107 24.0644 48.6711 23.0052 45.1126C22.9472 44.9202 22.8892 44.7278 22.8294 44.5296C22.1888 42.3156 22.147 40.0645 22.0978 37.7738C22.0877 37.4819 22.0777 37.19 22.0674 36.8892C22.0604 34.4415 22.8334 33.041 24.3304 31.1644C25.531 30.0348 26.31 29.5624 27.964 29.8968Z" fill="#F4A99C"/>
<path d="M147.688 148.051C150.257 149.969 152.059 152.234 152.578 155.445C152.963 159.254 152.509 162.18 150.118 165.232C148.393 167.248 146.104 168.598 143.481 169.155C139.854 169.34 137.01 169.174 134.057 166.862C133.903 166.746 133.749 166.63 133.59 166.51C131.819 164.98 130.261 162.067 129.982 159.731C129.73 156.191 130.362 153.413 132.529 150.561C132.805 150.167 132.805 150.167 133.086 149.765C136.757 145.557 143.166 145.134 147.688 148.051Z" fill="#F4A99C"/>
<path d="M44.5916 148.062C47.1392 149.779 48.87 152.106 49.6111 155.091C50.192 158.531 49.7932 161.832 47.8231 164.777C46.0079 167.092 43.6915 168.521 40.8346 169.155C36.7745 169.4 33.9055 168.804 30.6712 166.221C28.9382 164.662 27.5276 162.05 27.2794 159.715C27.0824 155.908 27.5725 153.03 30.0126 149.975C33.9537 145.7 39.6897 145.158 44.5916 148.062Z" fill="#F4A99C"/>
<path d="M90.1204 144.894C90.3945 144.892 90.6687 144.89 90.9512 144.888C94.7109 144.897 94.7109 144.897 96.1547 145.826C97.0136 146.861 97.3253 147.628 97.2243 148.983C96.9189 150.7 95.9795 152.43 94.5787 153.494C93.822 153.977 93.1398 154.352 92.2854 154.636C92.1407 157.107 92.4402 159.55 94.0683 161.513C95.287 162.732 96.5787 162.967 98.2391 163.121C100.064 162.964 101.837 162.473 103.238 161.259C103.73 160.607 104.189 159.943 104.635 159.258C105.021 158.712 105.021 158.712 105.53 158.457C106.651 158.328 107.196 158.391 108.189 158.95C108.947 159.857 109.057 160.279 108.973 161.429C108.523 163.463 106.833 165.092 105.194 166.267C101.981 168.312 98.4559 168.63 94.7339 167.987C93.0842 167.473 91.971 166.495 90.7561 165.29C90.3 164.767 90.3 164.767 89.7383 164.825C89.5807 165.045 89.4231 165.266 89.2607 165.493C88.1382 166.912 86.1369 167.771 84.3895 168.136C80.4261 168.454 77.1353 168.13 73.9465 165.589C72.6207 164.428 71.3188 163.281 71.0661 161.455C71.012 160.449 71.0056 159.916 71.6223 159.094C72.5819 158.416 73.2051 158.347 74.3604 158.481C75.3881 158.873 75.7759 159.729 76.3354 160.635C77.1248 161.828 78.2231 162.318 79.55 162.787C81.5438 163.134 83.5866 163.284 85.4083 162.278C86.869 161.012 87.3812 159.29 87.7007 157.438C87.745 157.191 87.7893 156.944 87.835 156.69C87.9111 155.922 87.928 155.375 87.7007 154.636C87.1051 154.113 86.5104 153.794 85.8013 153.442C84.1817 152.606 83.4242 150.958 82.8612 149.287C82.6963 148.236 82.7934 147.879 83.3229 146.947C85.098 144.665 87.3778 144.874 90.1204 144.894Z" fill="black"/>
<path d="M49.1427 136.014C49.2999 136.008 49.2999 136.008 49.4604 136.003C50.1142 136.094 50.518 136.55 50.9613 137.051C51.0586 137.159 51.1559 137.268 51.2562 137.379C51.4513 137.601 51.6456 137.823 51.8395 138.045C54.0996 140.39 57.1716 141.035 60.1874 140.956C62.983 140.833 65.7714 139.641 67.6753 137.384C67.8044 137.228 67.9323 137.069 68.0587 136.91C68.472 136.392 68.7442 136.092 69.3716 136.002C70.1272 135.99 70.7188 136.014 71.2928 136.592C71.7287 137.118 71.955 137.631 72 138.343C71.9223 139.771 70.8419 140.972 69.9249 141.896C68.1365 143.576 66.0822 144.591 63.8317 145.296C63.7005 145.339 63.7005 145.339 63.5666 145.383C59.6254 146.644 55.0573 145.9 51.4738 143.809C49.9266 142.866 47.609 141.106 47.0442 139.176C46.937 138.2 46.9964 137.517 47.5416 136.728C48.0562 136.206 48.4469 136.027 49.1427 136.014Z" fill="black"/>
<path d="M110.187 137.014C110.303 137.009 110.418 137.005 110.537 137C111.326 137.115 111.796 137.686 112.29 138.263C114.037 140.225 116.711 141.271 119.309 141.495C122.364 141.654 125.592 141.121 127.952 139.035C128.345 138.661 128.713 138.275 129.065 137.862C129.438 137.428 129.729 137.104 130.321 137.014C131.03 136.975 131.608 137.106 132.173 137.546C132.628 138.039 132.884 138.48 133 139.143C132.883 140.429 131.909 141.495 130.969 142.295C127.344 145.251 122.808 146.361 118.176 145.899C117.468 145.797 116.781 145.638 116.093 145.444C115.969 145.411 115.969 145.411 115.843 145.376C112.994 144.584 110.048 142.863 108.377 140.377C108.065 139.819 107.911 139.291 108.054 138.657C108.476 137.712 109.122 137.042 110.187 137.014Z" fill="black"/>
<path d="M128.467 92.0034C128.602 92.0021 128.602 92.0021 128.741 92.0008C128.84 92.0006 128.938 92.0004 129.04 92.0003C129.146 91.9996 129.251 91.9988 129.356 91.998C129.643 91.996 129.929 91.9951 130.215 91.9944C130.394 91.994 130.572 91.9933 130.751 91.9927C131.311 91.9906 131.872 91.9892 132.432 91.9886C133.077 91.9879 133.723 91.9853 134.369 91.981C134.869 91.9777 135.368 91.9762 135.868 91.976C136.166 91.9758 136.464 91.975 136.763 91.9723C137.043 91.9698 137.324 91.9695 137.605 91.9708C137.756 91.971 137.908 91.9689 138.059 91.9668C138.577 91.9715 138.909 92.0098 139.303 92.3597C139.901 92.9746 139.975 93.4981 139.979 94.3296C139.98 94.4217 139.981 94.5138 139.982 94.6087C139.984 94.8032 139.984 94.9977 139.985 95.1921C139.986 95.4879 139.991 95.7834 139.996 96.079C139.997 96.2686 139.998 96.4582 139.998 96.6477C140 96.7352 140.002 96.8228 140.004 96.9129C139.999 97.5635 139.811 97.9582 139.414 98.4683C139.362 98.5364 139.362 98.5364 139.308 98.606C139.216 98.7204 139.118 98.8309 139.021 98.9412C138.949 99.0237 138.878 99.1064 138.807 99.1892C138.771 99.2308 138.735 99.2724 138.698 99.3153C138.484 99.5673 138.283 99.8287 138.08 100.089C137.867 100.363 137.652 100.634 137.434 100.904C136.78 101.716 136.155 102.549 135.546 103.395C135.515 103.438 135.484 103.481 135.452 103.525C135.305 103.731 135.179 103.935 135.069 104.163C135.135 104.161 135.202 104.158 135.271 104.156C135.867 104.136 136.463 104.118 137.06 104.101C137.384 104.093 137.708 104.082 138.032 104.07C138.168 104.066 138.304 104.063 138.44 104.06C138.5 104.057 138.56 104.054 138.621 104.051C139.084 104.044 139.412 104.198 139.789 104.463C140.11 104.791 140.257 105.123 140.259 105.582C140.26 105.653 140.261 105.725 140.261 105.799C140.261 105.913 140.261 105.913 140.261 106.03C140.262 106.11 140.262 106.19 140.262 106.272C140.263 106.44 140.263 106.608 140.262 106.776C140.262 107.032 140.264 107.288 140.266 107.544C140.266 107.708 140.266 107.871 140.266 108.035C140.267 108.111 140.267 108.187 140.268 108.265C140.265 108.77 140.224 109.23 139.888 109.634C139.844 109.668 139.801 109.701 139.756 109.736C139.713 109.77 139.67 109.805 139.625 109.84C139.322 110.045 139.112 110.101 138.742 110.102C138.605 110.103 138.605 110.103 138.465 110.104C138.364 110.104 138.262 110.104 138.161 110.104C138.054 110.104 137.947 110.105 137.84 110.105C137.55 110.107 137.26 110.107 136.97 110.107C136.789 110.107 136.607 110.108 136.426 110.108C135.793 110.109 135.159 110.11 134.526 110.11C133.937 110.11 133.347 110.111 132.757 110.114C132.251 110.116 131.744 110.117 131.237 110.116C130.935 110.116 130.633 110.117 130.33 110.118C130.046 110.12 129.761 110.12 129.476 110.119C129.372 110.119 129.268 110.119 129.164 110.12C128.511 110.125 127.991 110.112 127.499 109.635C127.449 109.562 127.449 109.562 127.398 109.487C127.363 109.439 127.329 109.39 127.293 109.34C127.12 109.044 127.033 108.786 127.027 108.443C127.025 108.337 127.025 108.337 127.023 108.229C127.022 108.154 127.021 108.078 127.021 108C127.02 107.882 127.02 107.882 127.018 107.761C127.017 107.595 127.016 107.428 127.015 107.261C127.014 107.008 127.009 106.755 127.004 106.503C126.989 104.934 126.989 104.934 127.501 104.238C127.544 104.175 127.587 104.113 127.631 104.049C127.766 103.859 127.908 103.676 128.053 103.493C128.16 103.356 128.266 103.219 128.373 103.082C128.427 103.013 128.481 102.944 128.537 102.873C128.798 102.538 129.056 102.201 129.313 101.863C129.363 101.798 129.413 101.733 129.464 101.666C129.826 101.191 130.176 100.709 130.522 100.223C130.832 99.7911 131.159 99.3742 131.495 98.9622C131.69 98.728 131.69 98.728 131.847 98.4683C131.805 98.4682 131.764 98.468 131.721 98.4679C131.286 98.4665 130.85 98.4624 130.415 98.4568C130.253 98.4551 130.091 98.454 129.929 98.4536C129.695 98.4529 129.461 98.4498 129.227 98.4463C129.156 98.4466 129.084 98.4469 129.01 98.4472C128.438 98.435 127.913 98.2905 127.505 97.8674C127.055 97.3108 127.027 96.7683 127.026 96.0755C127.026 95.9893 127.025 95.903 127.025 95.8141C127.024 95.632 127.023 95.45 127.023 95.2679C127.023 94.99 127.02 94.7122 127.018 94.4343C127.017 94.257 127.017 94.0798 127.017 93.9026C127.016 93.8198 127.015 93.7371 127.013 93.6518C127.016 93.1664 127.061 92.8682 127.351 92.474C127.709 92.1427 127.979 92.0061 128.467 92.0034Z" fill="black"/>
<path d="M137.916 94.1222C138.101 96.8477 138.101 96.8477 137.49 97.5502C137.358 97.692 137.222 97.8269 137.081 97.959C136.841 98.1909 136.642 98.455 136.436 98.7162C136.355 98.816 136.273 98.9156 136.192 99.0151C135.88 99.3983 135.587 99.7942 135.293 100.191C134.666 101.033 134.037 101.872 133.384 102.693C132.354 103.891 132.354 103.891 131.997 105.361C132.083 105.698 132.237 105.842 132.521 106.036C132.784 106.124 132.996 106.123 133.273 106.126C133.327 106.127 133.38 106.128 133.435 106.128C133.612 106.131 133.788 106.133 133.964 106.134C134.087 106.136 134.209 106.138 134.331 106.139C134.653 106.143 134.975 106.147 135.297 106.151C135.625 106.154 135.954 106.159 136.282 106.163C136.927 106.171 137.571 106.178 138.216 106.186C138.216 106.779 138.216 107.373 138.216 107.984C135.174 107.984 132.133 107.984 128.999 107.984C128.999 105.251 128.999 105.251 129.76 104.449C129.809 104.402 129.858 104.354 129.908 104.305C130.128 104.082 130.306 103.831 130.489 103.577C130.562 103.479 130.635 103.38 130.709 103.282C130.747 103.231 130.785 103.18 130.824 103.128C131.06 102.814 131.299 102.503 131.538 102.191C131.971 101.624 132.397 101.054 132.819 100.479C133.103 100.092 133.389 99.7079 133.678 99.325C134.505 98.371 134.505 98.371 134.844 97.2317C134.789 96.8719 134.656 96.6939 134.394 96.445C134.143 96.3611 133.948 96.3581 133.683 96.3547C133.634 96.3539 133.585 96.3532 133.535 96.3524C133.373 96.35 133.211 96.3482 133.049 96.3463C132.937 96.3448 132.825 96.3432 132.713 96.3416C132.417 96.3375 132.122 96.3338 131.827 96.3302C131.525 96.3264 131.224 96.3222 130.923 96.3181C130.332 96.31 129.74 96.3025 129.149 96.2951C129.149 95.6028 129.149 94.9104 129.149 94.1971C129.838 94.1842 130.526 94.1715 131.214 94.1596C131.266 94.1588 131.318 94.1579 131.371 94.1569C133.553 94.1196 135.734 94.1134 137.916 94.1222Z" fill="#AADCE7"/>
<path d="M144.496 86.1801C144.675 86.1784 144.675 86.1784 144.857 86.1766C144.987 86.1764 145.118 86.1762 145.252 86.176C145.391 86.1751 145.53 86.1741 145.669 86.173C146.047 86.1704 146.424 86.1691 146.802 86.1683C147.038 86.1677 147.274 86.1669 147.51 86.166C148.249 86.1633 148.988 86.1614 149.727 86.1606C150.579 86.1597 151.431 86.1562 152.283 86.1505C152.942 86.1462 153.601 86.1442 154.261 86.144C154.654 86.1438 155.048 86.1426 155.441 86.1391C155.811 86.1358 156.182 86.1354 156.552 86.1371C156.752 86.1373 156.952 86.1346 157.151 86.1318C157.834 86.1381 158.273 86.1886 158.793 86.6502C159.581 87.4615 159.679 88.1522 159.685 89.2493C159.686 89.3708 159.688 89.4923 159.689 89.6175C159.691 89.8741 159.692 90.1307 159.692 90.3873C159.694 90.7775 159.7 91.1673 159.707 91.5574C159.708 91.8075 159.709 92.0576 159.71 92.3078C159.712 92.4232 159.715 92.5387 159.718 92.6577C159.711 93.516 159.463 94.0368 158.94 94.7097C158.87 94.7997 158.87 94.7997 158.8 94.8914C158.677 95.0423 158.549 95.1882 158.421 95.3338C158.326 95.4426 158.232 95.5517 158.138 95.6609C158.09 95.7158 158.043 95.7707 157.994 95.8273C157.713 96.1598 157.447 96.5046 157.18 96.8483C156.898 97.2093 156.614 97.5674 156.327 97.9235C155.463 98.9942 154.64 100.093 153.836 101.21C153.795 101.266 153.754 101.323 153.712 101.381C153.518 101.654 153.351 101.922 153.206 102.223C153.294 102.22 153.382 102.217 153.472 102.214C154.259 102.188 155.046 102.163 155.833 102.142C156.261 102.13 156.688 102.116 157.116 102.1C157.295 102.096 157.475 102.091 157.655 102.087C157.733 102.083 157.812 102.08 157.893 102.076C158.504 102.067 158.937 102.27 159.434 102.618C159.857 103.052 160.051 103.49 160.054 104.095C160.055 104.19 160.056 104.284 160.057 104.381C160.057 104.533 160.057 104.533 160.057 104.687C160.057 104.792 160.058 104.897 160.058 105.005C160.059 105.227 160.059 105.449 160.058 105.671C160.058 106.008 160.06 106.346 160.063 106.684C160.063 106.9 160.063 107.116 160.063 107.332C160.064 107.432 160.065 107.532 160.066 107.636C160.062 108.302 160.008 108.909 159.564 109.442C159.507 109.486 159.45 109.53 159.391 109.576C159.334 109.621 159.277 109.667 159.218 109.714C158.818 109.984 158.54 110.058 158.053 110.059C157.872 110.061 157.872 110.061 157.687 110.062C157.553 110.062 157.42 110.062 157.286 110.062C157.145 110.062 157.004 110.063 156.863 110.064C156.48 110.065 156.097 110.066 155.715 110.066C155.475 110.066 155.236 110.067 154.997 110.067C154.161 110.069 153.326 110.07 152.49 110.07C151.712 110.069 150.934 110.072 150.157 110.075C149.488 110.077 148.82 110.078 148.151 110.078C147.752 110.078 147.353 110.079 146.954 110.081C146.579 110.083 146.203 110.083 145.828 110.081C145.69 110.081 145.553 110.082 145.416 110.083C144.554 110.09 143.867 110.073 143.219 109.443C143.153 109.347 143.153 109.347 143.085 109.248C143.04 109.184 142.994 109.12 142.947 109.054C142.719 108.663 142.604 108.323 142.596 107.87C142.593 107.731 142.593 107.731 142.59 107.588C142.59 107.488 142.589 107.389 142.588 107.286C142.586 107.13 142.586 107.13 142.584 106.971C142.583 106.751 142.581 106.531 142.581 106.311C142.579 105.977 142.572 105.644 142.566 105.31C142.545 103.241 142.545 103.241 143.221 102.322C143.278 102.24 143.334 102.157 143.393 102.072C143.572 101.822 143.759 101.581 143.95 101.339C144.091 101.159 144.231 100.978 144.372 100.797C144.443 100.706 144.514 100.615 144.588 100.521C144.933 100.08 145.273 99.6346 145.612 99.1893C145.678 99.1034 145.744 99.0175 145.811 98.929C146.288 98.3025 146.75 97.6662 147.207 97.0251C147.617 96.4551 148.047 95.905 148.491 95.3614C148.748 95.0524 148.748 95.0524 148.955 94.7097C148.9 94.7096 148.845 94.7094 148.789 94.7093C148.215 94.7073 147.641 94.702 147.066 94.6946C146.853 94.6924 146.639 94.6909 146.425 94.6904C146.116 94.6895 145.808 94.6854 145.499 94.6808C145.404 94.6812 145.31 94.6815 145.213 94.6819C144.457 94.6658 143.765 94.4752 143.226 93.917C142.633 93.1825 142.597 92.4668 142.595 91.5528C142.594 91.439 142.593 91.3252 142.593 91.2079C142.592 90.9677 142.591 90.7275 142.591 90.4872C142.591 90.1206 142.587 89.754 142.584 89.3874C142.583 89.1535 142.583 88.9197 142.582 88.6859C142.581 88.5767 142.58 88.4675 142.578 88.355C142.582 87.7146 142.641 87.3211 143.023 86.801C143.496 86.364 143.852 86.1837 144.496 86.1801Z" fill="black"/>
<path d="M156.963 88.9758C157.207 92.5718 157.207 92.5718 156.4 93.4987C156.226 93.6858 156.048 93.8638 155.861 94.0381C155.545 94.344 155.282 94.6924 155.01 95.0371C154.903 95.1687 154.795 95.3002 154.688 95.4314C154.277 95.937 153.889 96.4594 153.503 96.9834C152.675 98.0932 151.845 99.2011 150.983 100.284C149.625 101.865 149.625 101.865 149.153 103.805C149.266 104.248 149.47 104.439 149.845 104.694C150.192 104.81 150.471 104.809 150.837 104.814C150.908 104.815 150.978 104.816 151.051 104.817C151.284 104.82 151.516 104.822 151.749 104.825C151.91 104.827 152.072 104.829 152.233 104.831C152.658 104.836 153.082 104.841 153.507 104.846C153.94 104.851 154.374 104.856 154.807 104.862C155.657 104.872 156.508 104.882 157.358 104.892C157.358 105.675 157.358 106.458 157.358 107.265C153.345 107.265 149.333 107.265 145.198 107.265C145.198 103.659 145.198 103.659 146.202 102.601C146.266 102.539 146.331 102.476 146.397 102.411C146.688 102.116 146.922 101.786 147.163 101.451C147.26 101.321 147.356 101.191 147.454 101.061C147.504 100.994 147.554 100.927 147.606 100.858C147.917 100.444 148.233 100.033 148.547 99.6217C149.118 98.8741 149.681 98.1211 150.238 97.3624C150.612 96.8523 150.99 96.3455 151.371 95.8404C152.462 94.5816 152.462 94.5816 152.909 93.0785C152.837 92.6037 152.661 92.369 152.316 92.0405C151.984 91.9299 151.728 91.9259 151.378 91.9213C151.313 91.9203 151.249 91.9194 151.182 91.9184C150.969 91.9152 150.755 91.9128 150.542 91.9103C150.394 91.9083 150.246 91.9062 150.098 91.9041C149.708 91.8987 149.318 91.8938 148.929 91.889C148.531 91.884 148.134 91.8785 147.736 91.8731C146.956 91.8624 146.176 91.8525 145.396 91.8428C145.396 90.9293 145.396 90.0158 145.396 89.0747C146.304 89.0576 147.213 89.0409 148.121 89.0253C148.189 89.0241 148.257 89.0229 148.327 89.0217C151.206 88.9725 154.084 88.9642 156.963 88.9758Z" fill="#AADCE7"/>
<path d="M165.24 79.0643C165.478 79.062 165.478 79.062 165.721 79.0597C165.895 79.0594 166.069 79.0592 166.249 79.0589C166.434 79.0576 166.619 79.0563 166.805 79.0549C167.308 79.0514 167.811 79.0497 168.315 79.0486C168.629 79.0478 168.944 79.0467 169.259 79.0455C170.244 79.0419 171.229 79.0394 172.215 79.0384C173.351 79.0372 174.487 79.0325 175.623 79.0249C176.502 79.0192 177.381 79.0165 178.26 79.0162C178.784 79.0159 179.309 79.0144 179.833 79.0097C180.327 79.0053 180.821 79.0047 181.315 79.0071C181.581 79.0074 181.848 79.0037 182.114 79C183.025 79.0083 183.609 79.0757 184.303 79.6911C185.354 80.7729 185.484 81.6938 185.492 83.1566C185.494 83.3186 185.495 83.4807 185.497 83.6476C185.5 83.9897 185.501 84.3318 185.502 84.6739C185.504 85.1942 185.512 85.714 185.522 86.2341C185.523 86.5676 185.524 86.9011 185.525 87.2346C185.529 87.3885 185.532 87.5425 185.536 87.7011C185.526 88.8455 185.196 89.5399 184.498 90.4372C184.406 90.5571 184.406 90.5571 184.312 90.6794C184.149 90.8807 183.978 91.0752 183.806 91.2693C183.68 91.4144 183.555 91.5598 183.429 91.7054C183.366 91.7786 183.303 91.8518 183.238 91.9272C182.863 92.3706 182.508 92.8304 182.151 93.2886C181.777 93.7699 181.398 94.2474 181.014 94.7222C179.863 96.1498 178.765 97.6154 177.694 99.1038C177.639 99.1793 177.585 99.2548 177.528 99.3325C177.269 99.6956 177.047 100.054 176.853 100.455C176.971 100.451 177.088 100.447 177.209 100.443C178.258 100.408 179.307 100.375 180.356 100.347C180.926 100.331 181.496 100.312 182.067 100.291C182.306 100.285 182.546 100.279 182.785 100.274C182.89 100.269 182.995 100.264 183.103 100.258C183.918 100.247 184.494 100.517 185.158 100.982C185.721 101.56 185.98 102.144 185.985 102.951C185.986 103.077 185.987 103.203 185.988 103.333C185.988 103.535 185.988 103.535 185.988 103.74C185.989 103.88 185.989 104.02 185.99 104.164C185.991 104.46 185.991 104.756 185.99 105.052C185.99 105.502 185.993 105.952 185.996 106.403C185.996 106.691 185.996 106.979 185.996 107.266C185.998 107.4 185.999 107.534 186 107.672C185.994 108.56 185.923 109.369 185.331 110.08C185.255 110.139 185.178 110.198 185.1 110.258C185.024 110.319 184.948 110.38 184.87 110.443C184.336 110.803 183.966 110.901 183.316 110.903C183.074 110.905 183.074 110.905 182.828 110.907C182.65 110.907 182.472 110.907 182.293 110.906C182.105 110.907 181.917 110.908 181.729 110.909C181.219 110.911 180.709 110.912 180.198 110.912C179.879 110.912 179.56 110.913 179.241 110.914C178.127 110.916 177.013 110.917 175.899 110.917C174.862 110.917 173.825 110.92 172.788 110.924C171.896 110.927 171.005 110.929 170.114 110.928C169.582 110.928 169.05 110.929 168.518 110.932C168.017 110.934 167.516 110.934 167.016 110.933C166.833 110.932 166.649 110.933 166.466 110.934C165.318 110.944 164.402 110.921 163.537 110.082C163.449 109.953 163.449 109.953 163.359 109.822C163.298 109.736 163.237 109.651 163.175 109.563C162.87 109.042 162.717 108.589 162.707 107.985C162.703 107.798 162.703 107.798 162.699 107.608C162.698 107.476 162.697 107.343 162.696 107.206C162.694 106.998 162.694 106.998 162.691 106.785C162.689 106.492 162.687 106.198 162.686 105.905C162.684 105.46 162.675 105.016 162.667 104.571C162.639 101.812 162.639 101.812 163.54 100.587C163.616 100.477 163.691 100.367 163.769 100.254C164.008 99.9201 164.257 99.5983 164.512 99.2768C164.7 99.0359 164.887 98.7949 165.074 98.5539C165.169 98.4324 165.265 98.3108 165.363 98.1855C165.822 97.5971 166.276 97.0037 166.729 96.4099C166.816 96.2954 166.904 96.1809 166.994 96.0629C167.63 95.2275 168.246 94.3791 168.855 93.5244C169.401 92.7643 169.975 92.0308 170.567 91.3061C170.91 90.8941 170.91 90.8941 171.185 90.4372C171.112 90.437 171.039 90.4368 170.964 90.4366C170.198 90.434 169.433 90.4268 168.667 90.4171C168.382 90.414 168.097 90.4121 167.812 90.4114C167.4 90.4102 166.989 90.4048 166.577 90.3986C166.451 90.3991 166.326 90.3996 166.196 90.4001C165.188 90.3786 164.266 90.1244 163.547 89.3802C162.755 88.4009 162.708 87.4467 162.705 86.2279C162.704 86.0762 162.703 85.9244 162.703 85.7681C162.701 85.4478 162.701 85.1275 162.701 84.8072C162.7 84.3183 162.695 83.8296 162.69 83.3407C162.689 83.0289 162.689 82.7172 162.689 82.4054C162.687 82.2598 162.685 82.1143 162.683 81.9643C162.688 81.1104 162.766 80.5857 163.277 79.8922C163.907 79.3095 164.382 79.0692 165.24 79.0643Z" fill="black"/>
<path d="M181.862 82.7918C182.188 87.5865 182.188 87.5865 181.112 88.8223C180.88 89.0717 180.642 89.3091 180.393 89.5415C179.972 89.9494 179.621 90.414 179.259 90.8736C179.116 91.049 178.973 91.2243 178.829 91.3993C178.281 92.0734 177.765 92.7699 177.249 93.4686C176.146 94.9484 175.039 96.4255 173.889 97.8694C172.079 99.9771 172.079 99.9771 171.449 102.564C171.6 103.155 171.872 103.409 172.372 103.75C172.835 103.904 173.207 103.903 173.695 103.909C173.789 103.91 173.883 103.911 173.98 103.913C174.29 103.917 174.6 103.92 174.911 103.924C175.126 103.926 175.341 103.929 175.556 103.932C176.122 103.939 176.689 103.946 177.255 103.952C177.833 103.959 178.41 103.966 178.988 103.973C180.122 103.987 181.256 104.001 182.389 104.014C182.389 105.058 182.389 106.102 182.389 107.177C177.039 107.177 171.689 107.177 166.177 107.177C166.177 102.369 166.177 102.369 167.514 100.959C167.6 100.875 167.686 100.792 167.775 100.705C168.162 100.312 168.475 99.872 168.796 99.4249C168.925 99.2516 169.054 99.0786 169.183 98.9059C169.25 98.8164 169.317 98.7268 169.386 98.6345C169.801 98.0827 170.222 97.5349 170.642 96.9864C171.403 95.9895 172.154 94.9855 172.896 93.9739C173.395 93.2937 173.899 92.618 174.407 91.9446C175.861 90.2662 175.861 90.2662 176.458 88.2621C176.362 87.629 176.127 87.316 175.667 86.878C175.225 86.7306 174.882 86.7253 174.416 86.7191C174.33 86.7178 174.244 86.7165 174.155 86.7152C173.87 86.711 173.586 86.7078 173.301 86.7045C173.104 86.7018 172.906 86.699 172.709 86.6962C172.189 86.6889 171.67 86.6824 171.15 86.6761C170.62 86.6694 170.09 86.6621 169.56 86.6548C168.52 86.6406 167.48 86.6273 166.44 86.6144C166.44 85.3965 166.44 84.1785 166.44 82.9237C167.651 82.9009 168.862 82.8786 170.073 82.8578C170.164 82.8562 170.255 82.8546 170.349 82.853C174.187 82.7874 178.023 82.7764 181.862 82.7918Z" fill="#AADCE7"/>
<path d="M92.9029 53.9727C93.3844 54.4022 93.6618 54.879 93.8218 55.4748C93.8218 55.5348 93.8218 55.5949 93.8218 55.6568C93.8816 55.6592 93.8816 55.6592 93.9427 55.6616C99.3317 55.9693 104.773 58.3318 108.353 62.013C108.503 62.1778 108.647 62.3453 108.79 62.5147C108.859 62.5942 108.927 62.6738 108.996 62.7534C112.793 67.1955 114.108 72.9452 114.528 82.0754C114.529 82.1409 114.529 82.2065 114.529 82.274C114.53 82.4604 114.53 82.6469 114.529 82.8333C114.53 82.9154 114.53 82.9154 114.53 82.999C114.528 83.3052 114.487 83.5762 114.407 83.8731C114.366 84.0573 114.376 84.2262 114.394 84.4129C114.401 84.4916 114.408 84.5702 114.416 84.6513C114.458 85.0294 114.508 85.4066 114.559 85.7837C114.843 87.8585 114.995 89.9163 114.998 92.0072C114.998 92.1329 114.999 92.2586 114.999 92.3843C115.004 94.5948 115.004 94.5948 114.703 95.6583C114.689 95.7084 114.675 95.7585 114.66 95.8101C114.315 96.9639 113.583 97.997 112.435 98.6032C111.052 99.2146 109.599 99.0158 108.183 98.6359C108.133 98.6223 108.082 98.6087 108.03 98.5947C107.17 98.3529 106.352 98.0114 105.538 97.6654C105.27 97.5515 105.001 97.4386 104.732 97.3256C104.677 97.3025 104.622 97.2793 104.565 97.2554C103.044 96.6165 101.521 95.9817 99.9423 95.4687C99.8625 95.4428 99.8625 95.4428 99.7812 95.4163C99.0654 95.1881 98.332 95.019 97.5972 94.8504C97.5304 94.8351 97.5304 94.8351 97.4622 94.8194C96.4829 94.5955 95.4972 94.4217 94.4996 94.2815C94.4532 94.2749 94.4069 94.2684 94.3592 94.2616C93.65 94.1615 92.9408 94.0652 92.2252 94.0122C92.1262 94.0045 92.1262 94.0045 92.0252 93.9966C89.0952 93.7915 86.122 93.9616 83.244 94.4977C83.1602 94.5132 83.0764 94.5288 82.9901 94.5448C80.6108 94.9923 78.3488 95.7123 76.1256 96.599C75.977 96.6578 75.8284 96.7166 75.6798 96.7754C74.8831 97.0912 74.0899 97.4134 73.3008 97.7445C71.331 98.5708 69.0462 99.4434 66.8783 98.7459C66.5936 98.625 66.3367 98.4857 66.08 98.3211C66.0325 98.2907 65.985 98.2604 65.936 98.2291C64.7963 97.409 64.3159 96.0238 64.1265 94.7611C64.1071 94.599 64.0906 94.4369 64.0759 94.2744C64.0703 94.2145 64.0648 94.1546 64.0591 94.0929C64.0015 93.415 63.9972 92.7383 64.001 92.0587C64.0012 91.9932 64.0014 91.9277 64.0016 91.8602C64.0055 90.6726 64.05 89.4914 64.1507 88.3074C64.1542 88.2652 64.1578 88.223 64.1614 88.1795C64.2505 87.1264 64.3721 86.0791 64.5319 85.033C64.6483 84.3899 64.6483 84.3899 64.5499 83.7557C64.5429 83.6198 64.54 83.4836 64.5391 83.3475C64.5388 83.3061 64.5385 83.2646 64.5382 83.2219C64.5372 83.0837 64.5367 82.9456 64.5363 82.8075C64.5359 82.7101 64.5354 82.6127 64.5349 82.5153C64.5336 82.2005 64.5333 81.8857 64.5332 81.571C64.5332 81.5176 64.5332 81.4642 64.5331 81.4092C64.5327 79.8074 64.5489 78.214 64.7326 76.6194C64.7502 76.4666 64.7671 76.3138 64.784 76.161C65.3484 71.1406 66.8787 66.0126 70.6038 62.1505C70.6545 62.0965 70.6545 62.0965 70.7063 62.0414C71.4946 61.2058 72.3589 60.4377 73.3314 59.7837C73.4015 59.7335 73.4713 59.6831 73.5409 59.6324C76.5814 57.4239 81.2888 55.5974 85.2398 55.6568C85.2426 55.5817 85.2453 55.5066 85.2481 55.4292C85.3321 54.7708 85.753 54.2455 86.3042 53.8362C88.1675 52.6067 91.0844 52.8017 92.9029 53.9727Z" fill="black"/>
<path d="M89.3562 80.8273C89.4001 80.8273 89.4441 80.8272 89.4894 80.8272C92.088 80.8251 94.6942 80.9178 97.2766 81.1922C97.4301 81.2083 97.5837 81.2238 97.7374 81.2393C99.234 81.3906 100.724 81.5571 102.204 81.8135C102.258 81.8227 102.311 81.832 102.366 81.8415C104.041 82.132 105.691 82.4665 107.327 82.9059C107.44 82.9358 107.44 82.9358 107.556 82.9663C108.742 83.2803 109.9 83.6565 111.052 84.059C111.121 84.0828 111.19 84.1067 111.261 84.1312C111.442 84.1943 111.621 84.2589 111.801 84.3245C111.878 84.3516 111.878 84.3516 111.957 84.3792C112.296 84.5073 112.296 84.5073 112.393 84.6847C112.447 84.8408 112.478 84.9827 112.499 85.1449C112.51 85.2316 112.51 85.2316 112.522 85.3201C112.533 85.4134 112.533 85.4134 112.545 85.5087C112.553 85.5739 112.562 85.6392 112.57 85.7065C112.597 85.9197 112.623 86.1329 112.649 86.3462C112.662 86.4563 112.662 86.4563 112.676 86.5685C112.895 88.3865 112.993 90.1783 112.998 92.0064C112.998 92.1366 112.999 92.2668 112.999 92.397C113.011 95.6007 113.011 95.6007 111.98 96.6671C111.557 97.0233 111.044 97.184 110.474 97.2019C109.915 97.1807 109.392 97.0677 108.857 96.925C108.81 96.9126 108.763 96.9002 108.714 96.8875C107.657 96.5995 106.667 96.1502 105.669 95.7275C101.995 94.1742 98.3165 92.9704 94.2958 92.4227C94.2284 92.4133 94.161 92.4039 94.0916 92.3942C92.6358 92.2066 91.1653 92.1663 89.6971 92.1685C89.6141 92.1686 89.531 92.1686 89.4454 92.1686C85.0149 92.1767 80.7723 92.9354 76.6578 94.4368C76.6159 94.4521 76.5739 94.4674 76.5307 94.4832C75.4468 94.8799 74.3864 95.3096 73.3377 95.7782C69.5069 97.4873 69.5069 97.4873 67.8549 97.1185C67.2371 96.9151 66.8718 96.5523 66.5623 96.0337C65.961 94.8333 65.9913 93.5362 65.9961 92.2445C65.997 92.0011 65.9961 91.7577 65.9953 91.5144C65.9946 90.4196 66.0507 89.3375 66.1465 88.2465C66.1509 88.1944 66.1554 88.1424 66.16 88.0887C66.1937 87.6951 66.2342 87.3024 66.2809 86.9099C66.3194 86.5845 66.3501 86.2631 66.3551 85.9359C66.3762 84.7538 66.3762 84.7538 66.7572 84.4159C67.1637 84.1784 67.6139 84.0625 68.076 83.9467C68.3581 83.8752 68.6312 83.7853 68.9056 83.6923C69.4685 83.5022 70.0348 83.323 70.6038 83.1487C70.6731 83.1274 70.7425 83.1061 70.8139 83.0842C72.794 82.4857 74.8538 82.1052 76.9055 81.7772C77.0547 81.7532 77.2038 81.7288 77.3529 81.7043C79.5787 81.3397 81.8267 81.1435 84.0797 80.979C84.1276 80.9755 84.1754 80.9719 84.2246 80.9682C85.9296 80.842 87.6465 80.8283 89.3562 80.8273Z" fill="#AADCE7"/>
<path d="M94.2417 57.4738C94.315 57.4836 94.315 57.4836 94.3898 57.4935C98.4378 58.0428 102.481 59.4103 105.492 62.0034C105.641 62.1316 105.794 62.2537 105.951 62.3744C106.167 62.5462 106.355 62.7314 106.54 62.9313C106.669 63.0692 106.804 63.2012 106.94 63.3341C109.486 65.9238 110.889 69.3487 111.651 72.7105C111.676 72.8162 111.701 72.9219 111.726 73.0277C112.451 76.1815 112.636 79.5095 112.582 82.7241C112.195 82.6102 111.816 82.4842 111.438 82.3473C106.292 80.4932 100.861 79.7131 94.6854 79.2349C94.5804 79.2274 94.4755 79.2198 94.3707 79.212C93.0805 79.1166 91.7906 79.1123 90.4954 79.0828C90.4954 72.0132 90.4954 64.9435 90.4954 57.6597C90.8028 57.6396 91.1101 57.6196 91.4268 57.599C91.6372 57.5615 91.8398 57.5229 92.0463 57.4738C92.7984 57.2963 93.4798 57.372 94.2417 57.4738Z" fill="#AADCE7"/>
<path d="M86.9072 57.4359C87.4275 57.5708 87.9661 57.6393 88.4996 57.7204C88.4996 64.77 88.4996 71.8196 88.4996 79.0829C87.4898 79.1029 86.4799 79.1229 85.4394 79.1436C84.8668 79.1718 84.2973 79.202 83.7263 79.246C83.6217 79.2537 83.6217 79.2537 83.5149 79.2615C77.9175 79.6741 72.0638 80.4138 66.8945 82.5225C66.6787 82.6028 66.6787 82.6028 66.4792 82.6028C66.4324 79.9684 66.4909 77.3248 66.9764 74.7209C67.0135 74.5194 67.0474 74.3176 67.081 74.1156C67.7068 70.4678 69.0534 66.7237 71.6683 63.85C71.7276 63.7834 71.787 63.7168 71.8463 63.6501C72.4355 62.9951 73.0861 62.3926 73.7971 61.8473C73.8604 61.797 73.9237 61.7467 73.9889 61.6948C76.8538 59.4273 82.978 56.3875 86.9072 57.4359Z" fill="#AADCE7"/>
<path d="M91.3437 55.3115C91.5252 55.5093 91.549 55.6449 91.5599 55.8995C90.7562 56.4499 89.6538 56.4028 88.691 56.3108C88.1995 56.2443 87.7828 56.0857 87.3687 55.8388C87.4124 55.5371 87.517 55.4374 87.77 55.2535C88.6807 54.6814 90.4472 54.7358 91.3437 55.3115Z" fill="#AADCE7"/>
</svg>
