<svg width="350" height="350" viewBox="0 0 350 350" fill="none" xmlns="http://www.w3.org/2000/svg">
<path d="M127.735 36.6103C128.556 37.3296 129.346 38.0766 130.132 38.8332C130.291 38.9771 130.449 39.1209 130.613 39.2691C133.228 41.7154 135.304 44.8825 137.137 47.939C137.24 48.1096 137.343 48.2802 137.449 48.456C145.977 62.6796 151.749 81.1552 151.612 97.9039C151.93 97.8132 151.93 97.8132 152.253 97.7207C154.38 97.1305 156.49 96.6969 158.675 96.3717C158.837 96.3475 158.998 96.3233 159.164 96.2984C160.153 96.1506 161.142 96.0077 162.132 95.8676C162.55 95.8078 162.968 95.7453 163.385 95.6827C174.796 93.993 186.379 95.4872 197.608 97.6704C197.598 97.4062 197.588 97.1419 197.578 96.8697C197.581 95.0908 197.854 93.3305 198.09 91.5707C198.115 91.3782 198.141 91.1856 198.167 90.9873C200.369 74.5726 204.475 56.4366 215.119 43.2693C215.225 43.1371 215.33 43.0049 215.439 42.8687C220.735 36.2675 227.838 30.726 236.366 29.2605C241.475 28.9503 245.616 29.186 249.689 32.5146C251.126 33.8541 252.035 35.4782 252.943 37.1988C253.064 37.4264 253.185 37.6539 253.309 37.8883C254.654 40.635 255.074 43.6599 255.092 46.6904C255.094 46.8792 255.095 47.0681 255.097 47.2627C255.101 47.8724 255.103 48.482 255.103 49.0918C255.103 49.4053 255.103 49.4053 255.103 49.7251C255.099 53.1434 254.929 56.4724 254.344 59.8465C254.286 60.1907 254.286 60.1907 254.227 60.5419C250.903 79.68 242.286 98.4922 230.062 113.547C230.759 114.38 231.454 115.186 232.236 115.94C233.321 117.008 234.249 118.198 235.199 119.384C235.353 119.569 235.507 119.754 235.666 119.945C237.905 122.658 239.755 125.678 241.503 128.723C241.587 128.868 241.67 129.013 241.757 129.162C246.839 138.021 249.962 148.79 249.939 159.034C249.939 159.264 249.939 159.494 249.94 159.73C249.94 160.212 249.939 160.693 249.938 161.175C249.937 161.907 249.938 162.639 249.94 163.371C249.94 163.842 249.939 164.313 249.939 164.783C249.939 165 249.94 165.216 249.94 165.438C249.936 166.76 249.842 168.038 249.675 169.349C249.897 169.365 249.897 169.365 250.124 169.381C250.801 169.431 251.478 169.485 252.155 169.539C252.389 169.555 252.622 169.572 252.862 169.589C254.121 169.693 255.127 169.81 256.212 170.517C256.777 171.195 256.904 171.605 257 172.487C256.901 173.423 256.755 173.949 256.212 174.719C254.943 175.412 254.014 175.496 252.593 175.361C252.425 175.349 252.257 175.337 252.083 175.324C251.04 175.243 250.009 175.111 248.974 174.953C248.45 176.477 247.984 178.013 247.544 179.564C247.482 179.779 247.421 179.993 247.357 180.214C247.298 180.422 247.238 180.63 247.177 180.844C247.124 181.03 247.071 181.216 247.017 181.408C246.868 181.977 246.749 182.547 246.639 183.125C246.885 183.209 247.13 183.294 247.383 183.382C251.832 184.96 251.832 184.96 252.943 186.627C253.099 187.429 253.106 188.16 252.943 188.962C252.355 189.809 251.672 190.236 250.708 190.572C249.493 190.608 248.522 190.138 247.413 189.677C246.974 189.498 246.536 189.321 246.097 189.145C245.807 189.025 245.807 189.025 245.512 188.903C244.984 188.69 244.984 188.69 244.304 188.728C243.928 189.305 243.596 189.875 243.268 190.479C241.557 193.509 239.481 196.26 237.067 198.768C236.881 198.964 236.881 198.964 236.692 199.164C232.952 203.111 228.619 206.049 223.773 208.501C223.539 208.62 223.539 208.62 223.3 208.741C222.629 209.07 222.181 209.274 221.423 209.274C221.423 209.429 221.423 209.583 221.423 209.741C221.611 209.79 221.798 209.838 221.992 209.887C223.092 210.311 223.978 210.935 224.94 211.609C225.137 211.746 225.333 211.882 225.535 212.022C228.255 213.922 230.82 215.981 233.331 218.147C233.498 218.29 233.666 218.434 233.838 218.582C234.295 218.978 234.748 219.378 235.199 219.781C235.39 219.951 235.582 220.121 235.779 220.295C238.892 223.099 241.999 226.011 244.538 229.354C244.715 229.573 244.891 229.793 245.073 230.019C249.151 235.147 254.311 242.288 253.644 249.2C253.623 249.48 253.623 249.48 253.603 249.766C253.23 252.799 251.491 255.844 249.208 257.838C247.714 258.954 246.076 259.625 244.304 260.173C244.146 260.226 243.987 260.279 243.823 260.334C238.589 261.806 232.527 259.708 227.777 257.579C227.592 257.496 227.406 257.413 227.215 257.328C227.076 257.265 226.937 257.203 226.793 257.138C226.848 257.548 226.848 257.548 226.903 257.966C228.76 272.042 229.851 286.145 229.886 300.343C229.887 300.805 229.889 301.267 229.891 301.729C229.914 309.039 229.855 316.607 224.671 322.353C222.146 324.756 218.911 326.08 215.586 326.949C215.414 326.994 215.242 327.04 215.064 327.087C212.954 327.555 210.791 327.511 208.64 327.515C207.96 327.518 207.28 327.529 206.6 327.541C203.101 327.572 200.158 326.987 197.039 325.344C196.885 325.264 196.73 325.184 196.571 325.102C193.093 323.259 190.445 320.323 189.201 316.551C188.313 313.623 187.857 310.579 187.335 307.57C187.228 306.965 187.12 306.361 187.012 305.756C186.885 305.038 186.76 304.319 186.635 303.601C186.352 303.622 186.352 303.622 186.064 303.644C179.723 304.108 173.445 304.179 167.095 303.849C166.801 303.834 166.801 303.834 166.501 303.818C165.944 303.789 165.387 303.758 164.831 303.726C164.664 303.717 164.498 303.708 164.327 303.698C163.567 303.653 162.849 303.591 162.119 303.367C162.103 303.564 162.103 303.564 162.086 303.764C161.433 311.003 160.412 318.883 154.634 323.875C153.847 324.454 153.049 324.926 152.182 325.373C151.978 325.48 151.978 325.48 151.77 325.589C148.442 327.2 145.229 327.602 141.572 327.555C140.873 327.547 140.174 327.55 139.475 327.555C135.941 327.553 132.612 327.144 129.373 325.636C129.114 325.516 129.114 325.516 128.849 325.395C124.902 323.503 122.393 320.52 120.793 316.442C120.66 316.107 120.66 316.107 120.525 315.765C118.907 311.137 119.041 306.037 119.068 301.202C119.071 300.689 119.073 300.175 119.074 299.661C119.112 286.241 119.997 272.907 121.715 259.597C121.736 259.428 121.758 259.259 121.78 259.086C121.869 258.405 121.976 257.792 122.194 257.138C121.942 257.24 121.69 257.342 121.43 257.446C115.144 259.956 108.84 262.06 102.249 259.382C98.9617 257.828 97.0912 255.388 95.8105 252.001C94.2508 247.347 96.2019 242.598 98.2629 238.454C101.888 231.56 107.572 225.044 113.479 220.011C113.916 219.638 114.347 219.261 114.776 218.88C118.685 215.426 122.878 212.233 127.33 209.508C127.194 209.435 127.058 209.363 126.918 209.288C119.563 205.349 112.783 200.86 107.951 193.865C107.851 193.719 107.75 193.573 107.646 193.423C106.594 191.892 105.591 190.35 104.683 188.728C103.631 188.916 102.657 189.153 101.668 189.554C101.425 189.652 101.425 189.652 101.177 189.752C100.854 189.884 100.532 190.021 100.211 190.162C99.0668 190.63 98.3937 190.622 97.2114 190.129C96.4967 189.506 96.1344 189.139 95.9318 188.218C95.8731 187.279 95.9938 186.721 96.4379 185.883C97.948 184.338 100.296 183.762 102.348 183.358C102.277 183.115 102.277 183.115 102.205 182.867C101.989 182.116 101.774 181.366 101.56 180.615C101.486 180.36 101.412 180.105 101.336 179.842C100.854 178.146 100.497 176.465 100.247 174.719C99.9818 174.791 99.7169 174.864 99.444 174.938C98.3405 175.181 97.2416 175.293 96.1169 175.376C95.9478 175.391 95.7787 175.406 95.6044 175.422C94.4622 175.494 93.7404 175.332 92.7752 174.719C92.0739 173.901 91.9609 173.178 92.01 172.134C92.1113 171.43 92.3036 171.049 92.7752 170.517C94.1443 169.788 95.4308 169.653 96.9633 169.539C97.1898 169.52 97.4162 169.501 97.6496 169.481C98.2038 169.435 98.7581 169.391 99.3127 169.349C99.2751 169.093 99.2376 168.838 99.1989 168.574C99.0482 167.361 99.0371 166.155 99.0318 164.934C99.0298 164.568 99.0298 164.568 99.0277 164.195C99.0255 163.679 99.024 163.164 99.0231 162.648C99.0209 161.878 99.0136 161.108 99.0062 160.338C98.9842 155.953 99.4041 151.668 100.378 147.387C100.436 147.13 100.494 146.873 100.554 146.608C101.709 141.725 103.386 136.954 105.617 132.459C105.719 132.248 105.822 132.038 105.928 131.821C108.503 126.576 111.669 121.655 115.634 117.349C116.098 116.843 116.55 116.329 116.999 115.809C117.614 115.102 118.252 114.433 118.925 113.781C118.611 113.044 118.174 112.483 117.658 111.876C113.97 107.508 110.883 102.461 108.185 97.437C108.071 97.2264 107.957 97.0157 107.839 96.7988C101.004 84.1364 95.9832 70.1921 94.1761 55.8773C94.1554 55.7154 94.1348 55.5535 94.1135 55.3867C93.9649 54.1526 93.8993 52.9345 93.887 51.692C93.8847 51.5002 93.8823 51.3084 93.88 51.1108C93.8172 44.5773 93.9777 37.9966 98.8457 32.9962C99.0031 32.8297 99.1605 32.6633 99.3227 32.4918C101.163 30.6988 103.548 29.6234 106.084 29.2605C106.334 29.2221 106.334 29.2221 106.589 29.1829C114.407 28.147 121.905 31.6302 127.735 36.6103Z" fill="white"/>
<path d="M127.735 36.6103C128.556 37.3296 129.346 38.0766 130.132 38.8332C130.291 38.9771 130.449 39.1209 130.613 39.2691C133.228 41.7154 135.304 44.8825 137.137 47.939C137.24 48.1096 137.343 48.2802 137.449 48.456C145.977 62.6796 151.749 81.1552 151.612 97.9039C151.93 97.8132 151.93 97.8132 152.253 97.7207C154.38 97.1305 156.49 96.6969 158.675 96.3717C158.837 96.3475 158.998 96.3233 159.164 96.2984C160.153 96.1506 161.142 96.0077 162.132 95.8676C162.55 95.8078 162.968 95.7453 163.385 95.6827C174.796 93.993 186.379 95.4872 197.608 97.6704C197.598 97.4062 197.588 97.1419 197.578 96.8697C197.581 95.0908 197.854 93.3305 198.09 91.5707C198.115 91.3782 198.141 91.1856 198.167 90.9873C200.369 74.5726 204.475 56.4366 215.119 43.2693C215.225 43.1371 215.33 43.0049 215.439 42.8687C220.735 36.2675 227.838 30.726 236.366 29.2605C241.475 28.9503 245.616 29.186 249.689 32.5146C251.126 33.8541 252.035 35.4782 252.943 37.1988C253.064 37.4264 253.185 37.6539 253.309 37.8883C254.654 40.635 255.074 43.6599 255.092 46.6904C255.094 46.8792 255.095 47.0681 255.097 47.2627C255.101 47.8724 255.103 48.482 255.103 49.0918C255.103 49.4053 255.103 49.4053 255.103 49.7251C255.099 53.1434 254.929 56.4724 254.344 59.8465C254.286 60.1907 254.286 60.1907 254.227 60.5419C250.903 79.68 242.286 98.4922 230.062 113.547C230.759 114.38 231.454 115.186 232.236 115.94C233.321 117.008 234.249 118.198 235.199 119.384C235.353 119.569 235.507 119.754 235.666 119.945C237.905 122.658 239.755 125.678 241.503 128.723C241.587 128.868 241.67 129.013 241.757 129.162C246.839 138.021 249.962 148.79 249.939 159.034C249.939 159.264 249.939 159.494 249.94 159.73C249.94 160.212 249.939 160.693 249.938 161.175C249.937 161.907 249.938 162.639 249.94 163.371C249.94 163.842 249.939 164.313 249.939 164.783C249.939 165 249.94 165.216 249.94 165.438C249.936 166.76 249.842 168.038 249.675 169.349C249.897 169.365 249.897 169.365 250.124 169.381C250.801 169.431 251.478 169.485 252.155 169.539C252.389 169.555 252.622 169.572 252.862 169.589C254.121 169.693 255.127 169.81 256.212 170.517C256.777 171.195 256.904 171.605 257 172.487C256.901 173.423 256.755 173.949 256.212 174.719C254.943 175.412 254.014 175.496 252.593 175.361C252.425 175.349 252.257 175.337 252.083 175.324C251.04 175.243 250.009 175.111 248.974 174.953C248.45 176.477 247.984 178.013 247.544 179.564C247.482 179.779 247.421 179.993 247.357 180.214C247.298 180.422 247.238 180.63 247.177 180.844C247.124 181.03 247.071 181.216 247.017 181.408C246.868 181.977 246.749 182.547 246.639 183.125C246.885 183.209 247.13 183.294 247.383 183.382C251.832 184.96 251.832 184.96 252.943 186.627C253.099 187.429 253.106 188.16 252.943 188.962C252.355 189.809 251.672 190.236 250.708 190.572C249.493 190.608 248.522 190.138 247.413 189.677C246.974 189.498 246.536 189.321 246.097 189.145C245.807 189.025 245.807 189.025 245.512 188.903C244.984 188.69 244.984 188.69 244.304 188.728C243.928 189.305 243.596 189.875 243.268 190.479C241.557 193.509 239.481 196.26 237.067 198.768C236.881 198.964 236.881 198.964 236.692 199.164C232.952 203.111 228.619 206.049 223.773 208.501C223.539 208.62 223.539 208.62 223.3 208.741C222.629 209.07 222.181 209.274 221.423 209.274C221.423 209.429 221.423 209.583 221.423 209.741C221.611 209.79 221.798 209.838 221.992 209.887C223.092 210.311 223.978 210.935 224.94 211.609C225.137 211.746 225.333 211.882 225.535 212.022C228.255 213.922 230.82 215.981 233.331 218.147C233.498 218.29 233.666 218.434 233.838 218.582C234.295 218.978 234.748 219.378 235.199 219.781C235.39 219.951 235.582 220.121 235.779 220.295C238.892 223.099 241.999 226.011 244.538 229.354C244.715 229.573 244.891 229.793 245.073 230.019C249.151 235.147 254.311 242.288 253.644 249.2C253.623 249.48 253.623 249.48 253.603 249.766C253.23 252.799 251.491 255.844 249.208 257.838C247.714 258.954 246.076 259.625 244.304 260.173C244.146 260.226 243.987 260.279 243.823 260.334C238.589 261.806 232.527 259.708 227.777 257.579C227.592 257.496 227.406 257.413 227.215 257.328C227.076 257.265 226.937 257.203 226.793 257.138C226.848 257.548 226.848 257.548 226.903 257.966C228.76 272.042 229.851 286.145 229.886 300.343C229.887 300.805 229.889 301.267 229.891 301.729C229.914 309.039 229.855 316.607 224.671 322.353C222.146 324.756 218.911 326.08 215.586 326.949C215.414 326.994 215.242 327.04 215.064 327.087C212.954 327.555 210.791 327.511 208.64 327.515C207.96 327.518 207.28 327.529 206.6 327.541C203.101 327.572 200.158 326.987 197.039 325.344C196.885 325.264 196.73 325.184 196.571 325.102C193.093 323.259 190.445 320.323 189.201 316.551C188.313 313.623 187.857 310.579 187.335 307.57C187.228 306.965 187.12 306.361 187.012 305.756C186.885 305.038 186.76 304.319 186.635 303.601C186.352 303.622 186.352 303.622 186.064 303.644C179.723 304.108 173.445 304.179 167.095 303.849C166.801 303.834 166.801 303.834 166.501 303.818C165.944 303.789 165.387 303.758 164.831 303.726C164.664 303.717 164.498 303.708 164.327 303.698C163.567 303.653 162.849 303.591 162.119 303.367C162.103 303.564 162.103 303.564 162.086 303.764C161.433 311.003 160.412 318.883 154.634 323.875C153.847 324.454 153.049 324.926 152.182 325.373C151.978 325.48 151.978 325.48 151.77 325.589C148.442 327.2 145.229 327.602 141.572 327.555C140.873 327.547 140.174 327.55 139.475 327.555C135.941 327.553 132.612 327.144 129.373 325.636C129.114 325.516 129.114 325.516 128.849 325.395C124.902 323.503 122.393 320.52 120.793 316.442C120.66 316.107 120.66 316.107 120.525 315.765C118.907 311.137 119.041 306.037 119.068 301.202C119.071 300.689 119.073 300.175 119.074 299.661C119.112 286.241 119.997 272.907 121.715 259.597C121.736 259.428 121.758 259.259 121.78 259.086C121.869 258.405 121.976 257.792 122.194 257.138C121.942 257.24 121.69 257.342 121.43 257.446C115.144 259.956 108.84 262.06 102.249 259.382C98.9617 257.828 97.0912 255.388 95.8105 252.001C94.2508 247.347 96.2019 242.598 98.2629 238.454C101.888 231.56 107.572 225.044 113.479 220.011C113.916 219.638 114.347 219.261 114.776 218.88C118.685 215.426 122.878 212.233 127.33 209.508C127.194 209.435 127.058 209.363 126.918 209.288C119.563 205.349 112.783 200.86 107.951 193.865C107.851 193.719 107.75 193.573 107.646 193.423C106.594 191.892 105.591 190.35 104.683 188.728C103.631 188.916 102.657 189.153 101.668 189.554C101.425 189.652 101.425 189.652 101.177 189.752C100.854 189.884 100.532 190.021 100.211 190.162C99.0668 190.63 98.3937 190.622 97.2114 190.129C96.4967 189.506 96.1344 189.139 95.9318 188.218C95.8731 187.279 95.9938 186.721 96.4379 185.883C97.948 184.338 100.296 183.762 102.348 183.358C102.277 183.115 102.277 183.115 102.205 182.867C101.989 182.116 101.774 181.366 101.56 180.615C101.486 180.36 101.412 180.105 101.336 179.842C100.854 178.146 100.497 176.465 100.247 174.719C99.9818 174.791 99.7169 174.864 99.444 174.938C98.3405 175.181 97.2416 175.293 96.1169 175.376C95.9478 175.391 95.7787 175.406 95.6044 175.422C94.4622 175.494 93.7404 175.332 92.7752 174.719C92.0739 173.901 91.9609 173.178 92.01 172.134C92.1113 171.43 92.3036 171.049 92.7752 170.517C94.1443 169.788 95.4308 169.653 96.9633 169.539C97.1898 169.52 97.4162 169.501 97.6496 169.481C98.2038 169.435 98.7581 169.391 99.3127 169.349C99.2751 169.093 99.2376 168.838 99.1989 168.574C99.0482 167.361 99.0371 166.155 99.0318 164.934C99.0298 164.568 99.0298 164.568 99.0277 164.195C99.0255 163.679 99.024 163.164 99.0231 162.648C99.0209 161.878 99.0136 161.108 99.0062 160.338C98.9842 155.953 99.4041 151.668 100.378 147.387C100.436 147.13 100.494 146.873 100.554 146.608C101.709 141.725 103.386 136.954 105.617 132.459C105.719 132.248 105.822 132.038 105.928 131.821C108.503 126.576 111.669 121.655 115.634 117.349C116.098 116.843 116.55 116.329 116.999 115.809C117.614 115.102 118.252 114.433 118.925 113.781C118.611 113.044 118.174 112.483 117.658 111.876C113.97 107.508 110.883 102.461 108.185 97.437C108.071 97.2264 107.957 97.0157 107.839 96.7988C101.004 84.1364 95.9832 70.1921 94.1761 55.8773C94.1554 55.7154 94.1348 55.5535 94.1135 55.3867C93.9649 54.1526 93.8993 52.9345 93.887 51.692C93.8847 51.5002 93.8823 51.3084 93.88 51.1108C93.8172 44.5773 93.9777 37.9966 98.8457 32.9962C99.0031 32.8297 99.1605 32.6633 99.3227 32.4918C101.163 30.6988 103.548 29.6234 106.084 29.2605C106.334 29.2221 106.334 29.2221 106.589 29.1829C114.407 28.147 121.905 31.6302 127.735 36.6103ZM102.653 38.6672C100.441 42.1606 100.147 45.9947 100.159 50.0403C100.159 50.2111 100.159 50.3819 100.16 50.558C100.183 56.5994 101.281 62.4197 102.815 68.2518C102.883 68.5131 102.952 68.7744 103.023 69.0436C104.798 75.6734 107.386 82.1184 110.286 88.3312C110.385 88.5438 110.484 88.7563 110.586 88.9753C113.174 94.4663 116.35 99.6983 119.903 104.617C120.03 104.793 120.157 104.969 120.289 105.151C121.965 107.45 123.766 109.651 125.64 111.792C126.276 112.571 126.404 113.118 126.367 114.116C125.956 115.792 124.817 116.797 123.58 117.91C123.265 118.2 122.949 118.491 122.634 118.781C122.48 118.924 122.325 119.066 122.166 119.212C112.449 128.187 106.589 141.619 105.15 154.64C105.128 154.824 105.106 155.009 105.084 155.199C104.889 157.027 104.873 158.852 104.873 160.688C104.872 161.216 104.868 161.744 104.864 162.272C104.855 164.588 105.04 166.826 105.383 169.116C105.793 169.129 105.793 169.129 106.21 169.142C106.572 169.157 106.933 169.173 107.295 169.189C107.474 169.194 107.654 169.199 107.839 169.205C108.911 169.255 109.649 169.36 110.52 170.05C111.097 170.916 111.114 171.614 110.987 172.618C110.701 173.276 110.495 173.65 109.892 174.041C109.183 174.319 108.536 174.353 107.776 174.398C107.503 174.416 107.23 174.433 106.948 174.451C106.74 174.463 106.532 174.474 106.317 174.486C106.394 176.068 106.696 177.529 107.105 179.053C107.154 179.242 107.203 179.431 107.253 179.626C107.385 180.099 107.549 180.562 107.718 181.023C108.433 181.262 108.818 181.248 109.557 181.198C110.448 181.193 110.704 181.225 111.483 181.724C111.968 182.499 112.092 182.943 112.036 183.842C111.84 184.605 111.347 184.976 110.753 185.459C110.518 185.691 110.284 185.924 110.053 186.16C111.849 189.469 113.994 192.311 116.59 195.032C116.763 195.217 116.936 195.402 117.114 195.593C122.442 201.146 129.924 204.556 137.297 206.351C138.623 206.69 139.572 206.941 140.405 208.107C140.753 209.083 140.751 209.944 140.347 210.894C139.537 211.849 138.714 211.956 137.545 212.135C131.767 213.134 126.621 216.807 122.194 220.482C121.894 220.724 121.593 220.966 121.293 221.208C119.01 223.054 116.829 224.975 114.722 227.019C114.528 227.207 114.334 227.395 114.134 227.588C110.443 231.172 110.443 231.172 107.251 235.191C107.033 235.503 107.033 235.503 106.811 235.821C102.245 242.149 102.245 242.149 101.181 249.667C101.616 251.266 102.263 252.681 103.711 253.581C103.95 253.695 104.189 253.81 104.435 253.928C104.673 254.044 104.911 254.161 105.156 254.282C108.474 255.659 112.603 254.685 115.797 253.403C117.04 252.882 118.268 252.327 119.494 251.768C119.757 251.649 120.02 251.53 120.291 251.407C120.543 251.29 120.795 251.173 121.055 251.053C121.28 250.949 121.505 250.845 121.736 250.738C122.078 250.555 122.078 250.555 122.427 250.367C122.564 250.299 122.701 250.23 122.842 250.16C124.3 249.307 124.584 248.049 125.032 246.494C125.114 246.228 125.196 245.963 125.28 245.69C125.541 244.843 125.794 243.994 126.046 243.144C128.724 234.237 128.724 234.237 130.253 233.132C130.98 232.786 131.436 232.756 132.234 232.856C133.116 233.257 133.522 233.59 133.868 234.49C134.049 236.904 133.185 239.157 132.413 241.399C132.057 242.435 131.714 243.475 131.37 244.515C131.302 244.72 131.234 244.925 131.164 245.136C127.917 254.965 126.524 265.216 125.738 275.503C125.694 276.08 125.648 276.658 125.603 277.235C125.042 284.464 124.831 291.682 124.762 298.931C124.76 299.123 124.758 299.314 124.756 299.512C124.294 309.467 124.294 309.467 128.481 318.091C130.708 320.244 133.435 321.095 136.436 321.579C136.624 321.61 136.812 321.64 137.005 321.672C141.75 322.281 147.185 322.067 151.218 319.288C153.554 317.411 154.4 314.774 154.998 311.933C155.047 311.707 155.095 311.48 155.146 311.247C155.6 309.047 155.906 306.83 156.181 304.602C156.837 299.407 156.837 299.407 157.814 298.406C159.528 297.175 162.093 297.724 164.106 297.931C167.234 298.249 170.341 298.295 173.483 298.279C174.336 298.274 175.189 298.274 176.043 298.274C178.44 298.271 180.835 298.256 183.23 298.126C183.396 298.117 183.562 298.108 183.733 298.099C184.564 298.046 185.354 297.935 186.168 297.764C186.829 297.712 187.489 297.71 188.152 297.705C188.327 297.701 188.501 297.696 188.68 297.691C189.738 297.683 190.48 297.73 191.304 298.464C192.1 299.847 192.242 301.339 192.457 302.9C192.537 303.445 192.617 303.99 192.698 304.535C192.738 304.808 192.778 305.082 192.819 305.364C193.607 312.988 193.607 312.988 197.591 319.158C202.09 322.124 207.863 322.489 213.065 321.49C213.28 321.443 213.496 321.395 213.718 321.345C213.951 321.3 214.184 321.254 214.423 321.208C217.656 320.506 220.185 319.035 222.088 316.286C223.605 313.703 224.027 310.782 224.026 307.825C224.027 307.563 224.027 307.563 224.028 307.296C224.03 306.72 224.031 306.145 224.031 305.57C224.032 305.16 224.032 304.75 224.033 304.34C224.035 303.477 224.035 302.614 224.035 301.751C224.035 300.886 224.036 300.021 224.04 299.156C224.07 290.994 223.788 282.845 223.05 274.713C223.034 274.527 223.017 274.342 223 274.15C222.01 263.444 220.394 253.077 216.983 242.864C216.894 242.596 216.894 242.596 216.803 242.324C216.517 241.463 216.226 240.604 215.926 239.747C215.235 237.733 214.533 235.557 215.455 233.513C216.322 232.9 217.102 232.769 218.155 232.856C219.724 233.605 220.313 235.612 220.871 237.156C221.301 238.379 221.713 239.609 222.124 240.838C222.266 241.259 222.408 241.68 222.551 242.101C222.62 242.307 222.69 242.513 222.761 242.725C222.9 243.136 223.039 243.545 223.179 243.955C223.492 244.876 223.791 245.794 224.046 246.732C224.565 248.647 224.565 248.647 225.902 250.046C226.271 250.242 226.647 250.427 227.027 250.601C227.308 250.748 227.308 250.748 227.595 250.899C228.183 251.204 228.776 251.488 229.376 251.768C229.695 251.918 229.695 251.918 230.021 252.071C231.869 252.929 233.733 253.693 235.666 254.336C235.85 254.398 236.033 254.46 236.223 254.524C238.926 255.276 242.246 255.058 244.771 253.869C246.42 252.826 247.203 251.478 247.807 249.667C248.346 243.607 244.019 237.849 240.339 233.396C239.56 232.502 238.762 231.628 237.954 230.76C237.322 230.081 236.706 229.389 236.089 228.697C235.286 227.812 234.459 227.009 233.545 226.241C233.073 225.831 232.642 225.396 232.207 224.947C231.314 224.042 230.356 223.249 229.363 222.456C228.759 221.962 228.179 221.449 227.6 220.926C223.111 216.919 217.228 212.833 211.121 212.076C210.184 211.951 209.791 211.871 208.99 211.332C208.486 210.521 208.348 209.997 208.348 209.041C208.636 208.125 208.931 207.731 209.691 207.144C210.655 206.653 211.689 206.418 212.732 206.151C219.239 204.482 225.219 201.558 230.296 197.133C230.523 196.937 230.751 196.74 230.986 196.538C234.254 193.666 236.871 190.22 238.934 186.393C238.934 186.239 238.934 186.085 238.934 185.926C238.674 185.791 238.414 185.657 238.146 185.518C237.643 185.226 237.328 185.027 236.964 184.569C236.684 183.48 236.659 182.728 237.227 181.738C238.433 180.988 239.652 181.165 241.036 181.257C241.267 180.479 241.494 179.701 241.722 178.922C241.786 178.704 241.851 178.485 241.918 178.261C242.285 176.998 242.548 175.795 242.67 174.486C242.366 174.481 242.366 174.481 242.055 174.476C239.584 174.373 239.584 174.373 238.759 173.683C238.03 172.853 237.908 172.342 237.917 171.226C238.057 170.428 238.553 170.065 239.168 169.583C239.938 169.197 240.8 169.26 241.649 169.218C241.836 169.208 242.023 169.198 242.216 169.187C242.679 169.162 243.141 169.139 243.604 169.116C246.226 154.882 241.731 139.213 233.837 127.351C231.125 123.447 228.099 119.78 224.337 116.849C223.393 116.034 222.668 115.252 222.489 114C222.678 112.294 223.811 111.156 224.94 109.928C228.684 105.853 231.771 101.072 234.498 96.2696C234.654 95.9951 234.654 95.9951 234.813 95.7152C239.973 86.5704 244.032 76.7953 246.639 66.6174C246.694 66.4078 246.749 66.1982 246.806 65.9822C248.153 60.7898 248.827 55.501 248.828 50.1424C248.829 49.9845 248.829 49.8265 248.83 49.6638C248.829 46.8571 248.638 44.07 247.719 41.4015C247.626 41.1222 247.533 40.8429 247.436 40.5551C246.582 38.5148 245.03 36.7883 242.994 35.8946C241.953 35.5184 240.999 35.4385 239.898 35.4477C239.706 35.4492 239.514 35.4507 239.316 35.4523C234.333 35.5971 230.049 38.1156 226.093 40.9345C225.899 41.0709 225.705 41.2072 225.506 41.3477C211.836 51.452 207.237 71.8294 204.819 87.6546C204.175 91.9594 203.703 96.2812 203.332 100.618C203.314 100.813 203.296 101.009 203.277 101.21C203.245 101.558 203.216 101.907 203.191 102.256C203.089 103.323 202.807 103.922 202.044 104.675C200.259 105.27 198.679 104.669 196.937 104.164C191.839 102.748 186.767 101.879 181.498 101.406C181.128 101.372 181.128 101.372 180.75 101.338C171.473 100.552 161.993 101.612 153.013 103.974C152.463 104.119 151.912 104.263 151.361 104.405C150.923 104.518 150.486 104.636 150.049 104.753C148.956 104.973 148.018 105.075 146.987 104.617C146.185 103.976 146.037 103.465 145.889 102.448C145.857 102.113 145.828 101.778 145.8 101.444C145.765 101.066 145.73 100.688 145.695 100.31C145.678 100.111 145.66 99.9119 145.642 99.7066C144.066 82.1877 140.708 63.5473 130.366 48.8729C130.226 48.6745 130.226 48.6745 130.084 48.4722C128.89 46.7919 127.587 45.2261 126.163 43.7363C126.033 43.5968 125.903 43.4573 125.769 43.3136C124.568 42.0603 123.268 41.0692 121.829 40.1027C121.602 39.95 121.376 39.7973 121.142 39.64C119.372 38.4681 117.646 37.4817 115.656 36.7319C115.43 36.6445 115.43 36.6445 115.199 36.5553C113.223 35.8134 111.348 35.4581 109.236 35.4331C109.046 35.4297 108.856 35.4262 108.661 35.4227C106.172 35.4653 104.121 36.6805 102.653 38.6672Z" fill="black"/>
<path d="M188.289 229.827C194.843 235.487 198.172 244.347 198.971 252.896C199.348 257.802 199.534 263.044 198.141 267.792C198.078 268.022 198.078 268.022 198.013 268.257C197.089 271.517 195.342 274.209 193.003 276.596C192.843 276.762 192.683 276.928 192.518 277.099C187.096 282.367 179.349 283.17 172.235 283.042C170.729 282.996 169.264 282.822 167.781 282.544C167.623 282.515 167.464 282.485 167.301 282.455C161.823 281.399 156.876 278.743 153.614 273.991C148.916 266.766 149.189 256.461 150.816 248.263C152.433 240.762 156.182 232.584 162.679 228.237C162.899 228.099 163.118 227.961 163.344 227.819C163.479 227.733 163.614 227.646 163.753 227.557C171.893 222.4 181.024 224.013 188.289 229.827Z" fill="#F4A99C"/>
<path d="M175.194 220.482C175.622 220.51 175.622 220.51 176.059 220.539C183.451 221.153 189.855 224.569 194.655 230.19C198.567 234.916 201.214 240.571 202.803 246.471C202.885 246.769 202.885 246.769 202.969 247.073C203.933 250.838 204.264 254.656 204.237 258.531C204.233 259.169 204.237 259.806 204.241 260.444C204.245 263.836 203.97 267.238 202.832 270.461C202.773 270.632 202.714 270.802 202.654 270.977C200.351 277.349 195.811 282.473 189.719 285.455C181.141 289.441 170.135 289.647 161.275 286.446C157.077 284.856 153.178 282.23 150.445 278.618C150.276 278.397 150.108 278.175 149.934 277.947C144.029 269.808 143.858 259.913 145.317 250.293C145.67 248.083 146.239 245.951 146.943 243.83C147.027 243.574 147.027 243.574 147.112 243.313C147.875 241.035 148.878 238.897 149.995 236.773C150.187 236.404 150.374 236.032 150.56 235.66C153.841 229.264 160.033 223.856 166.847 221.591C169.527 220.83 172.403 220.272 175.194 220.482ZM159.084 232.389C158.917 232.556 158.75 232.723 158.578 232.895C154.492 237.234 152.169 243.029 150.853 248.762C150.818 248.915 150.783 249.068 150.746 249.225C150.098 252.261 149.9 255.282 149.917 258.376C149.92 258.935 149.917 259.494 149.914 260.053C149.908 266.34 151.453 272.274 155.859 276.926C161.349 282.179 168.795 283.203 176.093 283.097C182.926 282.931 189.256 280.691 194.048 275.722C194.902 274.736 195.571 273.683 196.207 272.548C196.332 272.329 196.457 272.111 196.586 271.886C197.551 270.09 198.129 268.236 198.542 266.244C198.605 265.952 198.605 265.952 198.669 265.655C199.077 263.545 199.082 261.467 199.067 259.327C199.067 259.14 199.066 258.954 199.065 258.761C199.053 256.095 199.009 253.466 198.542 250.834C198.513 250.671 198.484 250.507 198.455 250.339C197.378 244.457 195.217 238.618 191.304 234.023C191.018 233.677 191.018 233.677 190.726 233.323C189.125 231.443 187.274 230.029 185.234 228.653C185.029 228.511 184.825 228.369 184.614 228.223C176.315 222.809 165.586 225.799 159.084 232.389Z" fill="black"/>
<path d="M233.097 56.3442C233.809 56.8107 234.382 57.3625 234.965 57.9786C235.143 58.1567 235.322 58.3349 235.505 58.5185C237.601 61.8563 236.59 66.2096 235.795 69.8013C235.264 72.0528 234.555 74.2395 233.798 76.4236C233.735 76.6078 233.672 76.792 233.607 76.9818C233.266 77.9777 232.916 78.9698 232.555 79.9586C232.407 80.3653 232.261 80.773 232.116 81.1807C231.414 83.0907 230.533 84.881 229.604 86.6875C229.368 87.151 229.137 87.6168 228.908 88.0839C226.136 93.7378 223.001 99.4384 218.855 104.208C218.676 104.414 218.676 104.414 218.494 104.624C218.121 105.048 217.745 105.468 217.367 105.886C217.253 106.012 217.139 106.139 217.021 106.269C216.173 107.181 215.459 107.851 214.208 108.053C213.059 108.065 212.298 108.064 211.281 107.491C209.783 105.7 209.37 104.43 209.516 102.106C209.64 100.953 209.812 99.808 209.997 98.6626C210.036 98.4213 210.036 98.4213 210.075 98.175C212.123 85.4015 216.015 66.519 227.246 58.358C229.004 57.129 230.885 55.9518 233.097 56.3442Z" fill="#F4A99C"/>
<path d="M117.634 56.4054C117.829 56.4623 118.024 56.5191 118.225 56.5777C118.415 56.6322 118.605 56.6867 118.801 56.7428C124.639 58.7656 127.956 64.9392 130.491 70.157C131.995 73.3337 133.205 76.6002 134.335 79.9259C134.4 80.1136 134.465 80.3013 134.532 80.4947C136.59 86.483 137.844 92.686 138.865 98.9219C139.031 99.9356 139.205 100.948 139.38 101.96C139.67 103.896 139.65 105.177 138.491 106.805C137.815 107.509 137.208 107.889 136.242 108.061C134.799 108.09 133.81 108.016 132.711 107.041C125.73 99.7535 120.669 90.1057 116.824 80.8598C116.696 80.5674 116.567 80.2753 116.438 79.9833C115.079 76.8598 114.059 73.6152 113.088 70.3531C113.035 70.1768 112.982 70.0005 112.927 69.8188C112.34 67.7892 112.302 65.7258 112.256 63.626C112.247 63.3584 112.238 63.0908 112.229 62.8151C112.222 60.5713 112.931 59.2876 114.303 57.5673C115.404 56.5319 116.118 56.0989 117.634 56.4054Z" fill="#F4A99C"/>
<path d="M227.381 164.713C229.736 166.472 231.388 168.548 231.864 171.492C232.216 174.983 231.8 177.665 229.608 180.462C228.027 182.31 225.929 183.548 223.525 184.058C220.199 184.228 217.593 184.076 214.886 181.957C214.745 181.851 214.603 181.744 214.457 181.634C212.834 180.232 211.407 177.562 211.15 175.42C210.919 172.175 211.499 169.628 213.485 167.014C213.738 166.653 213.738 166.653 213.996 166.285C217.361 162.427 223.235 162.04 227.381 164.713Z" fill="#F4A99C"/>
<path d="M132.876 164.723C135.211 166.297 136.798 168.431 137.477 171.167C138.009 174.32 137.644 177.346 135.838 180.045C134.174 182.168 132.051 183.478 129.432 184.058C125.71 184.283 123.08 183.737 120.115 181.369C118.527 179.94 117.234 177.545 117.006 175.406C116.826 171.915 117.275 169.278 119.512 166.477C123.124 162.558 128.382 162.062 132.876 164.723Z" fill="#F4A99C"/>
<path d="M174.61 161.819C174.862 161.818 175.113 161.816 175.372 161.814C178.818 161.822 178.818 161.822 180.142 162.674C180.929 163.623 181.215 164.326 181.122 165.568C180.842 167.141 179.981 168.728 178.697 169.703C178.003 170.146 177.378 170.489 176.595 170.75C176.462 173.015 176.737 175.254 178.229 177.054C179.346 178.171 180.53 178.387 182.053 178.528C183.725 178.384 185.35 177.934 186.635 176.821C187.086 176.223 187.507 175.615 187.915 174.986C188.269 174.486 188.269 174.486 188.736 174.252C189.763 174.134 190.263 174.192 191.173 174.705C191.869 175.536 191.968 175.923 191.892 176.977C191.479 178.841 189.93 180.334 188.428 181.412C185.483 183.286 182.251 183.578 178.839 182.988C177.327 182.517 176.307 181.621 175.193 180.516C174.775 180.037 174.775 180.037 174.26 180.089C174.116 180.292 173.971 180.494 173.822 180.702C172.793 182.003 170.959 182.791 169.357 183.125C165.724 183.416 162.707 183.12 159.784 180.79C158.569 179.726 157.376 178.674 157.144 177C157.094 176.078 157.088 175.59 157.654 174.836C158.533 174.215 159.105 174.152 160.164 174.274C161.106 174.634 161.461 175.418 161.974 176.249C162.698 177.342 163.705 177.791 164.921 178.221C166.749 178.54 168.621 178.677 170.291 177.755C171.63 176.594 172.099 175.016 172.392 173.318C172.433 173.092 172.474 172.866 172.515 172.633C172.585 171.929 172.601 171.427 172.392 170.75C171.846 170.27 171.301 169.978 170.651 169.656C169.167 168.889 168.472 167.378 167.956 165.847C167.805 164.883 167.894 164.555 168.379 163.702C170.006 161.61 172.096 161.801 174.61 161.819Z" fill="black"/>
<path d="M209.552 152.634C211.471 154.151 212.233 156.152 212.531 158.535C212.578 160.344 212.108 162.127 210.917 163.512C209.372 165.134 207.907 165.856 205.663 165.935C203.591 165.86 202.151 165.277 200.648 163.827C199.154 162.091 198.825 160.315 198.912 158.061C199.157 155.9 199.942 154.223 201.577 152.772C203.895 151.104 207.161 151.074 209.552 152.634Z" fill="black"/>
<path d="M146.943 152.538C148.626 153.555 149.371 155.386 149.978 157.208C150.171 159.881 149.854 161.879 148.135 163.975C146.581 165.463 144.641 165.934 142.554 165.912C140.911 165.769 139.392 165.091 138.196 163.946C136.59 162.006 136.413 159.842 136.614 157.425C136.848 155.539 137.815 154.004 139.238 152.772C141.682 151.031 144.331 151.26 146.943 152.538Z" fill="black"/>
<path d="M163.058 140.81C165.277 142.764 167.001 145.816 167.328 148.795C167.685 154.648 165.408 159.592 161.601 163.963C161.216 164.386 160.825 164.802 160.431 165.217C160.255 165.421 160.081 165.626 159.907 165.833C159.227 166.619 158.479 167.341 157.737 168.069C157.238 168.561 156.756 169.057 156.302 169.59C155.607 170.389 154.869 171.14 154.124 171.891C153.979 172.038 153.834 172.184 153.684 172.335C153.379 172.642 153.074 172.949 152.768 173.256C152.379 173.647 151.991 174.041 151.604 174.434C151.231 174.813 150.856 175.189 150.48 175.566C150.343 175.706 150.205 175.847 150.063 175.992C149.173 176.878 148.5 177.427 147.232 177.615C145.989 177.444 145.023 176.625 144.023 175.911C142.983 175.195 141.902 174.537 140.832 173.865C139.94 173.305 139.053 172.738 138.165 172.172C137.399 171.683 136.632 171.197 135.861 170.717C133.072 168.972 130.351 167.112 127.916 164.888C127.822 164.802 127.727 164.716 127.63 164.627C124.729 161.944 122.445 158.505 122.256 154.448C122.25 154.083 122.249 153.718 122.251 153.352C122.252 153.159 122.253 152.966 122.254 152.768C122.319 149.589 123.501 146.907 125.617 144.526C125.71 144.421 125.803 144.317 125.898 144.21C127.837 142.157 130.592 140.831 133.411 140.71C137.233 140.623 140.318 141.64 143.188 144.197C143.461 144.418 143.734 144.637 144.009 144.854C144.115 144.702 144.22 144.549 144.328 144.392C146.498 141.274 149.439 138.882 153.274 138.193C156.825 137.759 160.22 138.604 163.058 140.81Z" fill="#FF6060"/>
<path d="M200.499 140.584C201.688 141.505 202.654 142.541 203.502 143.785C203.795 144.214 204.112 144.616 204.441 145.018C204.521 144.929 204.601 144.839 204.683 144.747C206.779 142.518 209.792 140.807 212.896 140.699C216.339 140.664 219.065 141.377 221.683 143.705C221.846 143.845 221.846 143.845 222.012 143.987C224.144 145.952 225.632 149.005 225.819 151.897C225.832 152.396 225.833 152.894 225.83 153.393C225.831 153.56 225.832 153.727 225.833 153.899C225.823 158.063 223.711 161.455 220.913 164.396C218.435 166.796 215.409 168.736 212.507 170.578C211.913 170.956 211.323 171.34 210.732 171.724C210.497 171.876 210.263 172.027 210.028 172.179C209.625 172.44 209.222 172.701 208.819 172.962C207.914 173.547 207.004 174.125 206.089 174.695C205.914 174.804 205.739 174.913 205.559 175.025C205.21 175.242 204.862 175.459 204.512 175.675C203.819 176.106 203.134 176.534 202.479 177.022C202.029 177.333 201.782 177.488 201.249 177.543C201.137 177.559 201.026 177.574 200.911 177.59C199.745 177.428 198.885 176.67 198.09 175.858C197.989 175.757 197.888 175.657 197.784 175.553C197.454 175.223 197.127 174.891 196.799 174.559C196.568 174.327 196.337 174.096 196.106 173.864C195.623 173.38 195.141 172.895 194.66 172.408C194.045 171.788 193.43 171.169 192.813 170.551C192.222 169.958 191.631 169.364 191.041 168.77C190.93 168.659 190.818 168.547 190.704 168.431C189.611 167.332 188.528 166.237 187.526 165.053C187.298 164.806 187.069 164.559 186.839 164.314C185.153 162.435 183.738 160.408 182.6 158.155C182.546 158.05 182.492 157.944 182.436 157.835C180.734 154.435 180.188 150.507 181.286 146.825C181.86 145.17 182.64 143.753 183.75 142.391C183.828 142.285 183.907 142.18 183.988 142.071C187.965 136.974 195.592 137.215 200.499 140.584Z" fill="#FF6060"/>
<path d="M200.499 140.584C201.688 141.505 202.654 142.541 203.502 143.785C203.795 144.214 204.112 144.616 204.441 145.018C204.521 144.929 204.601 144.839 204.683 144.747C206.779 142.518 209.792 140.807 212.896 140.699C216.339 140.664 219.065 141.377 221.683 143.705C221.846 143.845 221.846 143.845 222.012 143.987C224.144 145.952 225.632 149.005 225.819 151.897C225.832 152.396 225.833 152.894 225.83 153.393C225.831 153.56 225.832 153.727 225.833 153.899C225.823 158.063 223.711 161.455 220.913 164.396C218.435 166.796 215.409 168.736 212.507 170.578C211.913 170.956 211.323 171.34 210.732 171.724C210.497 171.876 210.263 172.027 210.028 172.179C209.625 172.44 209.222 172.701 208.819 172.962C207.914 173.547 207.004 174.125 206.089 174.695C205.914 174.804 205.739 174.913 205.559 175.025C205.21 175.242 204.862 175.459 204.512 175.675C203.819 176.106 203.134 176.534 202.479 177.022C202.029 177.333 201.782 177.488 201.249 177.543C201.137 177.559 201.026 177.574 200.911 177.59C199.745 177.428 198.885 176.67 198.09 175.858C197.989 175.757 197.888 175.657 197.784 175.553C197.454 175.223 197.127 174.891 196.799 174.559C196.568 174.327 196.337 174.096 196.106 173.864C195.623 173.38 195.141 172.895 194.66 172.408C194.045 171.788 193.43 171.169 192.813 170.551C192.222 169.958 191.631 169.364 191.041 168.77C190.93 168.659 190.818 168.547 190.704 168.431C189.611 167.332 188.528 166.237 187.526 165.053C187.298 164.806 187.069 164.559 186.839 164.314C185.153 162.435 183.738 160.408 182.6 158.155C182.546 158.05 182.492 157.944 182.436 157.835C180.734 154.435 180.188 150.507 181.286 146.825C181.86 145.17 182.64 143.753 183.75 142.391C183.828 142.285 183.907 142.18 183.988 142.071C187.965 136.974 195.592 137.215 200.499 140.584ZM187.855 144.361C187.75 144.444 187.645 144.526 187.537 144.61C186.355 145.653 185.335 147.618 185.192 149.186C184.956 154.557 187.304 158.251 190.811 162.097C191.097 162.395 191.387 162.686 191.686 162.972C191.957 163.243 192.203 163.524 192.45 163.816C193.176 164.651 193.955 165.43 194.738 166.21C194.988 166.458 195.236 166.708 195.485 166.957C196.267 167.74 197.058 168.501 197.899 169.221C198.425 169.684 198.911 170.186 199.401 170.687C199.599 170.889 199.796 171.09 199.995 171.291C200.123 171.422 200.123 171.422 200.253 171.555C200.642 171.919 200.881 172.115 201.423 172.111C202.201 171.885 202.79 171.469 203.455 171.016C203.749 170.82 204.042 170.625 204.336 170.43C204.488 170.328 204.64 170.227 204.796 170.123C205.557 169.619 206.328 169.132 207.099 168.645C207.403 168.451 207.708 168.258 208.012 168.064C208.158 167.971 208.304 167.879 208.454 167.783C216.611 163.014 216.611 163.014 221.406 155.271C221.863 152.859 221.321 150.392 219.949 148.374C218.753 146.805 217.222 145.616 215.279 145.183C213.596 145.081 212.046 145.039 210.517 145.839C210.298 145.953 210.298 145.953 210.075 146.07C208.192 147.164 206.764 148.668 205.788 150.604C205.368 151.395 204.959 151.652 204.112 151.915C203.363 152.036 202.646 151.96 201.977 151.587C201.626 151.06 201.605 150.854 201.546 150.242C201.216 148.132 200.058 146.31 198.529 144.854C198.421 144.747 198.313 144.639 198.201 144.528C196.435 142.865 194.42 142.453 192.071 142.504C190.392 142.585 189.143 143.327 187.855 144.361Z" fill="black"/>
<path d="M163.058 140.81C165.277 142.764 167.001 145.816 167.328 148.795C167.685 154.648 165.408 159.592 161.601 163.963C161.216 164.386 160.825 164.802 160.431 165.217C160.255 165.421 160.081 165.626 159.907 165.833C159.227 166.619 158.479 167.341 157.737 168.069C157.238 168.561 156.756 169.057 156.302 169.59C155.607 170.389 154.869 171.14 154.124 171.891C153.979 172.038 153.834 172.184 153.684 172.335C153.379 172.642 153.074 172.949 152.768 173.256C152.379 173.647 151.991 174.041 151.604 174.434C151.231 174.813 150.856 175.189 150.48 175.566C150.343 175.706 150.205 175.847 150.063 175.992C149.173 176.878 148.5 177.427 147.232 177.615C145.989 177.444 145.023 176.625 144.023 175.911C142.983 175.195 141.902 174.537 140.832 173.865C139.94 173.305 139.053 172.738 138.165 172.172C137.399 171.683 136.632 171.197 135.861 170.717C133.072 168.972 130.351 167.112 127.916 164.888C127.822 164.802 127.727 164.716 127.63 164.627C124.729 161.944 122.445 158.505 122.256 154.448C122.25 154.083 122.249 153.718 122.251 153.352C122.252 153.159 122.253 152.966 122.254 152.768C122.319 149.589 123.501 146.907 125.617 144.526C125.71 144.421 125.803 144.317 125.898 144.21C127.837 142.157 130.592 140.831 133.411 140.71C137.233 140.623 140.318 141.64 143.188 144.197C143.461 144.418 143.734 144.637 144.009 144.854C144.115 144.702 144.22 144.549 144.328 144.392C146.498 141.274 149.439 138.882 153.274 138.193C156.825 137.759 160.22 138.604 163.058 140.81ZM148.771 145.712C147.607 147.135 146.823 148.735 146.693 150.577C146.63 150.972 146.515 151.246 146.308 151.587C145.59 152.036 144.665 152.035 143.845 151.915C143.085 151.582 142.854 151.188 142.511 150.448C141.224 147.935 139.055 146.209 136.429 145.212C134.454 144.636 132.452 145.131 130.687 146.096C128.661 147.417 127.251 149.236 126.695 151.608C126.657 151.873 126.626 152.14 126.603 152.408C126.589 152.555 126.576 152.703 126.562 152.855C126.44 155.602 127.481 158.197 129.312 160.219C132.569 163.634 136.953 166.036 140.917 168.535C141.721 169.044 142.523 169.557 143.324 170.07C143.591 170.241 143.858 170.412 144.125 170.582C144.288 170.687 144.452 170.791 144.62 170.899C144.773 170.996 144.925 171.093 145.083 171.194C145.412 171.408 145.729 171.631 146.047 171.861C146.541 172.155 146.729 172.194 147.294 172.114C147.733 171.813 147.733 171.813 148.172 171.367C148.262 171.282 148.351 171.196 148.443 171.108C148.774 170.789 149.102 170.467 149.428 170.143C149.565 170.009 149.702 169.874 149.843 169.735C150.904 168.69 151.958 167.637 153.01 166.583C153.354 166.238 153.699 165.894 154.044 165.55C154.38 165.214 154.716 164.878 155.051 164.542C155.286 164.308 155.52 164.074 155.755 163.839C159.566 160.015 162.942 155.789 162.946 150.174C162.914 147.904 162.087 146.106 160.585 144.403C159.102 143.013 156.963 142.298 154.957 142.351C152.407 142.586 150.457 143.839 148.771 145.712Z" fill="black"/>
<path d="M176.244 78.4749C176.686 78.8686 176.94 79.3057 177.087 79.8518C177.087 79.9069 177.087 79.9619 177.087 80.0187C177.141 80.0208 177.141 80.0208 177.197 80.023C182.137 80.3051 187.125 82.4707 190.407 85.8452C190.544 85.9962 190.677 86.1498 190.808 86.305C190.871 86.378 190.933 86.4509 190.996 86.5239C194.477 90.5958 195.682 95.8664 196.068 104.236C196.068 104.296 196.068 104.356 196.069 104.418C196.069 104.589 196.069 104.76 196.069 104.93C196.069 105.006 196.069 105.006 196.069 105.082C196.067 105.363 196.03 105.611 195.956 105.884C195.918 106.052 195.928 106.207 195.944 106.378C195.951 106.451 195.958 106.523 195.965 106.597C196.003 106.944 196.049 107.289 196.096 107.635C196.356 109.537 196.496 111.423 196.498 113.34C196.498 113.455 196.499 113.57 196.499 113.686C196.503 115.712 196.503 115.712 196.228 116.687C196.215 116.733 196.202 116.779 196.189 116.826C195.872 117.884 195.201 118.831 194.149 119.386C192.881 119.947 191.549 119.764 190.251 119.416C190.205 119.404 190.158 119.391 190.111 119.378C189.322 119.157 188.573 118.844 187.827 118.527C187.581 118.422 187.334 118.319 187.088 118.215C187.037 118.194 186.987 118.173 186.935 118.151C185.54 117.565 184.145 116.983 182.697 116.513C182.624 116.489 182.624 116.489 182.549 116.465C181.893 116.256 181.221 116.101 180.547 115.946C180.486 115.932 180.486 115.932 180.424 115.918C179.526 115.712 178.622 115.553 177.708 115.425C177.665 115.419 177.623 115.413 177.579 115.406C176.929 115.315 176.279 115.226 175.623 115.178C175.532 115.171 175.532 115.171 175.44 115.163C172.754 114.975 170.029 115.131 167.39 115.623C167.314 115.637 167.237 115.651 167.158 115.666C164.977 116.076 162.903 116.736 160.865 117.549C160.729 117.603 160.593 117.657 160.456 117.711C159.726 118 158.999 118.296 158.276 118.599C156.47 119.357 154.376 120.156 152.388 119.517C152.127 119.406 151.892 119.278 151.657 119.128C151.613 119.1 151.57 119.072 151.525 119.043C150.48 118.291 150.04 117.022 149.866 115.864C149.848 115.716 149.833 115.567 149.82 115.418C149.814 115.363 149.809 115.308 149.804 115.252C149.751 114.63 149.747 114.01 149.751 113.387C149.751 113.327 149.751 113.267 149.751 113.205C149.755 112.117 149.796 111.034 149.888 109.948C149.891 109.91 149.895 109.871 149.898 109.831C149.98 108.866 150.091 107.906 150.238 106.947C150.344 106.357 150.344 106.357 150.254 105.776C150.248 105.651 150.245 105.527 150.244 105.402C150.244 105.364 150.244 105.326 150.243 105.287C150.242 105.16 150.242 105.033 150.242 104.907C150.241 104.817 150.241 104.728 150.24 104.639C150.239 104.35 150.239 104.062 150.239 103.773C150.239 103.724 150.239 103.675 150.239 103.625C150.238 102.157 150.253 100.696 150.422 99.2343C150.438 99.0943 150.453 98.9543 150.469 98.8142C150.986 94.2121 152.389 89.5115 155.804 85.9712C155.85 85.9217 155.85 85.9217 155.897 85.8712C156.62 85.1053 157.412 84.4012 158.304 83.8016C158.368 83.7557 158.432 83.7094 158.496 83.663C161.283 81.6385 165.598 79.9642 169.22 80.0187C169.222 79.9498 169.225 79.881 169.227 79.8101C169.304 79.2065 169.69 78.7249 170.196 78.3497C171.904 77.2228 174.577 77.4015 176.244 78.4749Z" fill="black"/>
<path d="M172.993 103.092C173.033 103.092 173.074 103.092 173.115 103.092C175.497 103.09 177.886 103.175 180.253 103.426C180.394 103.441 180.535 103.455 180.676 103.469C182.048 103.608 183.414 103.761 184.77 103.996C184.819 104.004 184.868 104.013 184.919 104.021C186.454 104.288 187.967 104.594 189.466 104.997C189.57 105.024 189.57 105.024 189.676 105.052C190.763 105.34 191.824 105.685 192.881 106.054C192.944 106.076 193.008 106.098 193.073 106.12C193.238 106.178 193.403 106.237 193.567 106.297C193.638 106.322 193.638 106.322 193.71 106.348C194.021 106.465 194.021 106.465 194.111 106.628C194.16 106.771 194.188 106.901 194.207 107.05C194.218 107.129 194.218 107.129 194.228 107.21C194.239 107.296 194.239 107.296 194.25 107.383C194.257 107.443 194.265 107.503 194.273 107.564C194.297 107.76 194.321 107.955 194.345 108.151C194.357 108.252 194.357 108.252 194.37 108.354C194.57 110.021 194.66 111.663 194.665 113.339C194.665 113.459 194.666 113.578 194.666 113.697C194.677 116.634 194.677 116.634 193.731 117.612C193.344 117.938 192.873 118.085 192.351 118.102C191.839 118.082 191.359 117.979 190.869 117.848C190.826 117.837 190.783 117.825 190.738 117.814C189.769 117.55 188.861 117.138 187.946 116.75C184.579 115.326 181.207 114.223 177.521 113.721C177.459 113.712 177.398 113.704 177.334 113.695C175.999 113.523 174.651 113.486 173.306 113.488C173.23 113.488 173.153 113.488 173.075 113.488C169.014 113.495 165.125 114.191 161.353 115.567C161.314 115.581 161.276 115.595 161.236 115.61C160.243 115.973 159.271 116.367 158.31 116.797C154.798 118.363 154.798 118.363 153.284 118.025C152.717 117.839 152.382 117.506 152.099 117.031C151.548 115.931 151.575 114.742 151.58 113.557C151.581 113.334 151.58 113.111 151.579 112.888C151.578 111.885 151.63 110.893 151.718 109.893C151.722 109.845 151.726 109.797 151.73 109.748C151.761 109.387 151.798 109.027 151.841 108.667C151.876 108.369 151.904 108.074 151.909 107.775C151.928 106.691 151.928 106.691 152.277 106.381C152.65 106.164 153.063 106.057 153.486 105.951C153.745 105.886 153.995 105.803 154.247 105.718C154.763 105.544 155.282 105.379 155.803 105.22C155.867 105.2 155.931 105.181 155.996 105.161C157.811 104.612 159.699 104.263 161.58 103.962C161.717 103.94 161.853 103.918 161.99 103.896C164.03 103.561 166.091 103.382 168.156 103.231C168.2 103.227 168.244 103.224 168.289 103.221C169.852 103.105 171.426 103.093 172.993 103.092Z" fill="#AADCE7"/>
<path d="M177.472 81.6841C177.539 81.6931 177.539 81.6931 177.607 81.7022C181.318 82.2058 185.024 83.4593 187.785 85.8363C187.921 85.9538 188.061 86.0657 188.205 86.1764C188.404 86.3338 188.575 86.5036 188.745 86.6868C188.864 86.8133 188.988 86.9343 189.112 87.0561C191.446 89.43 192.732 92.5695 193.43 95.6511C193.453 95.748 193.476 95.845 193.499 95.9419C194.164 98.8329 194.333 101.884 194.284 104.83C193.929 104.726 193.582 104.61 193.235 104.485C188.518 102.785 183.54 102.07 177.878 101.632C177.782 101.625 177.686 101.618 177.59 101.611C176.407 101.523 175.225 101.519 174.038 101.492C174.038 95.0119 174.038 88.5314 174.038 81.8545C174.319 81.8362 174.601 81.8178 174.891 81.7989C175.084 81.7646 175.27 81.7291 175.459 81.6841C176.149 81.5214 176.773 81.5908 177.472 81.6841Z" fill="#AADCE7"/>
<path d="M170.748 81.6494C171.225 81.773 171.719 81.8358 172.208 81.9101C172.208 88.3723 172.208 94.8344 172.208 101.492C171.283 101.511 170.357 101.529 169.403 101.548C168.878 101.574 168.356 101.602 167.833 101.642C167.737 101.649 167.737 101.649 167.639 101.656C162.508 102.034 157.142 102.712 152.404 104.645C152.206 104.719 152.206 104.719 152.023 104.719C151.98 102.304 152.034 99.8808 152.479 97.4939C152.513 97.3092 152.544 97.1242 152.575 96.9391C153.148 93.5953 154.383 90.1631 156.779 87.5289C156.834 87.4679 156.888 87.4068 156.943 87.3457C157.483 86.7453 158.079 86.193 158.731 85.6931C158.789 85.647 158.847 85.6009 158.907 85.5533C161.533 83.4748 167.147 80.6883 170.748 81.6494Z" fill="#AADCE7"/>
<path d="M174.815 79.7021C174.981 79.8834 175.003 80.0077 175.013 80.2411C174.277 80.7456 173.266 80.7025 172.383 80.6181C171.933 80.5572 171.551 80.4118 171.171 80.1854C171.211 79.9089 171.307 79.8175 171.539 79.6489C172.374 79.1245 173.993 79.1744 174.815 79.7021Z" fill="#AADCE7"/>
</svg>
