<svg width="357" height="382" viewBox="0 0 357 382" fill="none" xmlns="http://www.w3.org/2000/svg">
<g filter="url(#filter0_d_472_958)">
<path d="M12.7547 210.013C7.20021 207.08 7.03773 199.183 12.4669 196.024L174.167 101.937C176.651 100.492 179.719 100.49 182.205 101.932L343.638 195.596C349.07 198.748 348.918 206.644 343.369 209.585L181.677 295.255C179.338 296.495 176.537 296.497 174.196 295.261L12.7547 210.013Z" fill="#759E6E"/>
</g>
<g filter="url(#filter1_d_472_958)">
<path d="M12.7547 201.013C7.20021 198.08 7.03773 190.183 12.4669 187.024L174.167 92.9371C176.651 91.4918 179.719 91.4899 182.205 92.9322L343.638 186.596C349.07 189.748 348.918 197.644 343.369 200.585L181.677 286.255C179.338 287.495 176.537 287.497 174.196 286.261L12.7547 201.013Z" fill="#90C488"/>
</g>
<g filter="url(#filter2_d_472_958)">
<path d="M12.7547 193.013C7.20021 190.08 7.03773 182.183 12.4669 179.024L174.167 84.9371C176.651 83.4918 179.719 83.4899 182.205 84.9322L343.638 178.596C349.07 181.748 348.918 189.644 343.369 192.585L181.677 278.255C179.338 279.495 176.537 279.497 174.196 278.261L12.7547 193.013Z" fill="#B0D171"/>
</g>
<g filter="url(#filter3_d_472_958)">
<path d="M12.7547 185.013C7.20021 182.08 7.03773 174.183 12.4669 171.024L174.167 76.9371C176.651 75.4918 179.719 75.4899 182.205 76.9322L343.638 170.596C349.07 173.748 348.918 181.644 343.369 184.585L181.677 270.255C179.338 271.495 176.537 271.497 174.196 270.261L12.7547 185.013Z" fill="#DAE787"/>
</g>
<path d="M124.058 155.863C124.821 156.583 125.381 157.183 125.669 158.207C125.765 158.186 125.86 158.165 125.959 158.144C127.354 157.875 128.722 157.861 130.138 157.868C130.323 157.868 130.323 157.868 130.513 157.869C132.347 157.876 134.133 157.925 135.925 158.353C136.05 158.382 136.175 158.411 136.303 158.441C139.28 159.158 141.927 160.251 143.764 162.805C143.983 163.188 144.072 163.486 144.129 163.92C144.31 163.951 144.492 163.981 144.679 164.012C146.069 164.323 147.574 165.046 148.418 166.234C148.938 167.099 149.076 167.908 148.964 168.902C148.644 170.057 147.979 170.853 146.972 171.484C143.937 173.116 140.533 173.136 137.243 172.418C137.151 172.389 137.058 172.36 136.963 172.33C136.124 172.076 135.441 172.168 134.588 172.326C133.041 172.597 133.041 172.597 132.262 172.564C132.227 172.649 132.192 172.734 132.155 172.822C131.217 174.479 128.847 175.188 127.123 175.686C122.863 176.824 117.476 176.916 113.431 174.95C112.506 174.607 111.734 174.946 110.836 175.256C107.254 176.406 103.104 176.503 99.4448 175.641C99.3389 175.617 99.233 175.592 99.1239 175.567C96.9126 175.039 94.4553 174.09 93.1451 172.125C92.7906 172.016 92.4638 171.934 92.1012 171.868C91.951 171.84 91.951 171.84 91.7977 171.812C90.5915 171.603 89.644 171.848 88.4752 172.166C85.1159 172.939 81.0485 172.524 78.0641 170.77C77.1442 170.145 76.503 169.413 76.0863 168.38C75.8659 167.033 76.0541 166.07 76.8096 164.937C78.3459 163.016 81.0032 162.508 83.3126 162.196C83.757 162.148 84.2011 162.138 84.6477 162.126C85.5024 162.074 85.934 161.791 86.5952 161.27C89.294 159.369 93.054 159.175 96.2217 159.232C96.2379 159.078 96.2542 158.924 96.2709 158.765C96.5232 157.317 97.569 156.231 98.7169 155.391C105.313 150.843 117.762 150.742 124.058 155.863Z" fill="#759E6E"/>
<path d="M99.7378 178.425C99.9729 178.456 99.9729 178.456 100.213 178.489C101.618 178.665 103.01 178.749 104.426 178.754C104.589 178.756 104.752 178.758 104.92 178.76C105.67 178.76 106.353 178.735 107.079 178.538C108.424 178.19 108.424 178.19 109.114 178.425C110.361 179.299 111.365 180.487 112.337 181.648C112.861 181.429 113.161 181.132 113.538 180.712C113.655 180.587 113.772 180.461 113.893 180.332C114.137 180.068 114.379 179.802 114.617 179.533C115.498 178.604 115.498 178.604 116.074 178.513C116.453 178.55 116.803 178.626 117.172 178.718C117.405 178.747 117.639 178.773 117.874 178.796C117.989 178.809 118.105 178.822 118.223 178.835C120.427 179.071 122.584 179.028 124.79 178.864C124.583 179.336 124.335 179.645 123.967 180.004C123.858 180.111 123.75 180.218 123.638 180.328C123.52 180.442 123.403 180.556 123.282 180.674C123.033 180.919 122.784 181.164 122.536 181.409C122.144 181.793 121.752 182.177 121.359 182.56C120.979 182.931 120.601 183.304 120.223 183.677C120.049 183.846 120.049 183.846 119.871 184.018C117.902 185.969 117.569 187.908 117.554 190.583C117.554 191.101 117.556 191.619 117.558 192.138C117.558 192.502 117.558 192.867 117.558 193.232C117.558 193.993 117.56 194.754 117.562 195.515C117.566 196.488 117.566 197.46 117.565 198.433C117.564 199.185 117.565 199.937 117.567 200.688C117.567 201.047 117.567 201.406 117.567 201.764C117.567 202.266 117.569 202.768 117.571 203.27C117.571 203.416 117.571 203.562 117.57 203.712C117.585 205.741 118.034 207.651 119.449 209.181C120.053 209.689 120.725 210.1 121.402 210.505C122.147 210.959 122.885 211.426 123.124 212.318C123.1 213.097 122.97 213.559 122.446 214.172C121.958 214.497 121.805 214.502 121.236 214.504C120.996 214.506 120.996 214.506 120.752 214.508C120.576 214.508 120.401 214.508 120.22 214.508C119.943 214.509 119.943 214.509 119.661 214.511C119.154 214.513 118.647 214.514 118.14 214.514C117.717 214.514 117.294 214.515 116.871 214.516C115.873 214.519 114.875 214.52 113.877 214.519C112.847 214.519 111.818 214.522 110.788 214.527C109.904 214.531 109.02 214.532 108.136 214.532C107.608 214.532 107.08 214.533 106.552 214.536C105.963 214.539 105.374 214.538 104.785 214.536C104.611 214.538 104.436 214.54 104.256 214.541C103.074 214.532 103.074 214.532 102.492 214.186C101.975 213.585 101.847 213.095 101.874 212.311C101.989 211.68 102.325 211.343 102.814 210.949C103.289 210.637 103.774 210.344 104.262 210.054C105.708 209.178 106.63 207.922 107.135 206.3C107.357 205.309 107.379 204.348 107.38 203.336C107.38 203.178 107.381 203.019 107.382 202.856C107.384 202.333 107.385 201.81 107.386 201.288C107.387 200.922 107.388 200.557 107.388 200.192C107.39 199.427 107.391 198.662 107.391 197.896C107.392 196.919 107.396 195.943 107.4 194.966C107.403 194.211 107.403 193.457 107.404 192.703C107.404 192.343 107.405 191.983 107.407 191.623C107.428 187.612 107.428 187.612 105.359 184.277C105.099 184.019 104.837 183.762 104.574 183.506C104.434 183.368 104.294 183.23 104.154 183.091C103.789 182.731 103.423 182.372 103.057 182.013C102.467 181.436 101.879 180.857 101.292 180.277C101.087 180.075 100.882 179.874 100.676 179.674C100.552 179.552 100.429 179.431 100.302 179.306C100.193 179.199 100.084 179.092 99.971 178.982C99.7378 178.718 99.7378 178.718 99.7378 178.425Z" fill="#7D5232"/>
<path d="M197.655 178.564C197.761 178.589 197.867 178.613 197.976 178.639C206.591 180.646 215.18 184.641 221.683 190.741C222.036 191.072 222.036 191.072 222.626 191.499C222.678 188.636 222.73 185.773 222.784 182.823C225.907 182.823 229.03 182.823 232.248 182.823C232.3 185.686 232.352 188.549 232.406 191.499C233.187 190.796 233.187 190.796 233.983 190.079C234.414 189.734 234.844 189.395 235.285 189.064C235.4 188.976 235.516 188.889 235.635 188.799C235.977 188.541 236.321 188.285 236.665 188.028C236.805 187.923 236.805 187.923 236.948 187.816C243.07 183.241 253.598 177.209 261.587 178.091C262.524 178.364 263.096 178.872 263.638 179.668C264.014 180.492 264.116 181.334 263.855 182.204C263.432 183.229 262.818 183.9 262.021 184.657C261.906 184.769 261.792 184.881 261.674 184.997C260.932 185.719 260.165 186.409 259.379 187.082C259.248 187.194 259.117 187.307 258.981 187.423C252.103 193.129 241.487 199.543 232.248 199.543C232.249 199.641 232.249 199.739 232.25 199.839C232.264 202.222 232.274 204.606 232.281 206.989C232.284 208.141 232.289 209.294 232.296 210.446C232.302 211.451 232.306 212.456 232.308 213.461C232.308 213.993 232.31 214.525 232.315 215.056C232.319 215.651 232.32 216.246 232.32 216.841C232.322 217.016 232.324 217.19 232.327 217.37C232.318 218.929 231.918 220.197 230.839 221.349C229.774 222.255 228.543 222.636 227.167 222.616C225.766 222.478 224.674 221.861 223.73 220.838C222.789 219.623 222.739 218.54 222.748 217.056C222.748 216.867 222.748 216.678 222.748 216.483C222.748 215.965 222.75 215.448 222.752 214.931C222.754 214.39 222.754 213.849 222.754 213.307C222.755 212.283 222.758 211.259 222.761 210.236C222.765 209.069 222.766 207.903 222.768 206.737C222.771 204.339 222.777 201.941 222.784 199.543C222.59 199.511 222.396 199.479 222.196 199.447C221.938 199.404 221.681 199.362 221.423 199.319C221.295 199.298 221.168 199.277 221.036 199.256C210.551 197.519 200.824 192.108 193.218 184.793C193.003 184.589 192.785 184.388 192.566 184.189C191.687 183.37 191.078 182.477 191 181.246C191.057 180.347 191.362 179.529 192.016 178.901C193.735 177.578 195.675 178.096 197.655 178.564Z" fill="#759E6E"/>
<path d="M217.263 144.493C218.265 145.278 219.006 146.346 219.778 147.347C220.293 148.011 220.828 148.658 221.364 149.304C222.117 150.212 222.853 151.129 223.576 152.059C224.134 152.773 224.717 153.463 225.307 154.15C225.935 154.886 226.511 155.655 227.078 156.439C227.327 156.809 227.327 156.809 227.674 156.954C227.716 156.862 227.759 156.771 227.802 156.676C227.992 156.319 228.2 156.04 228.459 155.731C228.551 155.62 228.643 155.509 228.738 155.395C228.836 155.278 228.934 155.162 229.034 155.042C229.237 154.798 229.439 154.555 229.641 154.312C229.738 154.195 229.835 154.079 229.935 153.958C230.339 153.471 230.733 152.976 231.127 152.48C231.478 152.041 231.833 151.605 232.189 151.169C232.926 150.264 233.659 149.356 234.378 148.437C234.59 148.166 234.803 147.896 235.016 147.625C235.178 147.418 235.34 147.21 235.502 147.001C235.769 146.657 236.04 146.314 236.31 145.972C236.392 145.865 236.474 145.759 236.558 145.649C237.198 144.846 237.965 144.153 239.031 144.02C240.063 143.941 240.914 144.081 241.711 144.761C242.931 146.049 242.863 147.475 242.857 149.167C242.858 149.382 242.858 149.598 242.859 149.814C242.861 150.397 242.86 150.98 242.859 151.563C242.858 152.176 242.859 152.789 242.859 153.402C242.86 154.433 242.859 155.463 242.858 156.493C242.856 157.679 242.857 158.865 242.858 160.051C242.86 161.073 242.86 162.095 242.859 163.118C242.859 163.727 242.859 164.335 242.86 164.944C242.861 165.518 242.86 166.091 242.858 166.665C242.857 166.972 242.858 167.279 242.859 167.586C242.843 171.122 241.994 174.319 239.464 176.884C236.935 179.327 233.926 180.248 230.474 180.225C230.235 180.226 229.997 180.226 229.758 180.227C229.262 180.228 228.767 180.227 228.271 180.224C227.643 180.22 227.014 180.222 226.386 180.226C225.895 180.228 225.404 180.228 224.912 180.226C224.681 180.226 224.449 180.226 224.218 180.228C222.155 180.238 220.19 179.907 218.338 178.949C218.234 178.896 218.131 178.843 218.024 178.789C216.926 178.2 216.07 177.407 215.213 176.514C215.07 176.37 215.07 176.37 214.925 176.224C212.66 173.787 212.166 170.616 212.172 167.422C212.172 167.197 212.171 166.972 212.17 166.747C212.168 166.141 212.168 165.536 212.168 164.93C212.168 164.423 212.168 163.916 212.167 163.409C212.165 162.212 212.165 161.015 212.166 159.818C212.167 158.586 212.165 157.355 212.162 156.123C212.159 155.061 212.158 154 212.158 152.939C212.159 152.307 212.158 151.674 212.156 151.042C212.154 150.448 212.154 149.854 212.156 149.26C212.157 148.94 212.155 148.619 212.153 148.299C212.16 147.096 212.186 146.055 212.978 145.086C214.296 143.999 215.701 143.61 217.263 144.493Z" fill="#FF6060"/>
<path d="M232.564 146.544C232.086 147.288 231.558 147.971 230.996 148.653C230.815 148.875 230.633 149.097 230.452 149.319C230.262 149.551 230.072 149.782 229.882 150.014C229.5 150.48 229.119 150.947 228.739 151.414C228.65 151.522 228.562 151.629 228.471 151.741C228.03 152.268 228.03 152.268 227.674 152.853C227.57 152.853 227.466 152.853 227.358 152.853C227.087 152.533 226.832 152.212 226.58 151.877C225.983 151.101 225.375 150.341 224.736 149.6C223.934 148.666 223.194 147.696 222.469 146.701C224.638 144.188 230.068 145.088 232.564 146.544Z" fill="#FF6060"/>
<path d="M166.004 42C168.272 42.0538 170.539 42.9046 172.18 44.4887C172.238 44.5491 172.295 44.6095 172.354 44.6717C172.803 44.4678 173.142 44.2222 173.516 43.9031C175.447 42.3912 177.816 41.8477 180.228 42.0904C182.635 42.4082 184.754 43.6452 186.262 45.5501C186.857 46.4169 187.355 47.3471 187.726 48.3316C187.9 48.2708 187.9 48.2708 188.079 48.2087C188.234 48.1556 188.389 48.1026 188.549 48.048C188.778 47.969 188.778 47.969 189.012 47.8884C191.229 47.2169 193.725 47.5341 195.768 48.597C197.908 49.8813 199.545 51.7056 200.184 54.1783C200.462 55.4458 200.462 55.4458 200.462 55.9442C200.611 55.9393 200.759 55.9344 200.913 55.9293C203.088 55.9857 204.989 57.1035 206.504 58.5908C208.233 60.4418 209.044 62.8404 208.998 65.3461C208.785 67.9565 207.649 70.1326 205.732 71.9014C204.225 73.0919 202.388 73.8423 200.462 73.8045C200.443 73.98 200.443 73.98 200.424 74.1591C200.187 76.0121 199.563 77.4605 198.412 78.9284C198.299 79.0735 198.186 79.2186 198.07 79.3681C196.765 80.9178 194.546 81.9419 192.557 82.1491C190.956 82.2688 189.191 82.1498 187.726 81.4171C187.656 81.5692 187.587 81.7213 187.516 81.878C186.91 83.1711 186.282 84.2263 185.237 85.2234C185.097 85.3646 185.097 85.3646 184.955 85.5087C183.296 87.0922 181.054 87.7137 178.81 87.7205C176.527 87.6583 174.232 86.7456 172.647 85.077C172.198 85.2809 171.859 85.5266 171.485 85.8456C169.557 87.353 167.144 87.9191 164.735 87.6584C162.343 87.3196 160.24 86.0952 158.739 84.1986C158.144 83.3319 157.646 82.4016 157.275 81.4171C157.159 81.4577 157.042 81.4982 156.922 81.54C156.767 81.5931 156.612 81.6461 156.452 81.7007C156.299 81.7534 156.146 81.806 155.989 81.8603C153.772 82.5319 151.276 82.2146 149.233 81.1517C147.093 79.8674 145.456 78.0432 144.817 75.5704C144.539 74.3029 144.539 74.3029 144.539 73.8045C144.39 73.8094 144.241 73.8143 144.088 73.8194C141.913 73.763 140.012 72.6452 138.497 71.1579C136.766 69.3056 135.961 66.9107 136.001 64.4043C136.226 61.7131 137.4 59.4901 139.434 57.7215C140.876 56.6454 142.713 55.8225 144.539 55.9442C144.551 55.8272 144.564 55.7102 144.577 55.5897C144.814 53.7366 145.437 52.2882 146.588 50.8204C146.701 50.6752 146.814 50.5301 146.931 50.3806C148.236 48.8309 150.455 47.8068 152.444 47.5996C154.045 47.4799 155.81 47.5989 157.275 48.3316C157.379 48.1035 157.379 48.1035 157.485 47.8707C158.091 46.5776 158.719 45.5224 159.764 44.5253C159.857 44.4312 159.95 44.337 160.046 44.24C161.687 42.674 163.813 42.1511 166.004 42ZM171.936 53.5859C171.1 54.6339 170.799 55.6272 170.84 56.9655C170.98 58.2025 171.554 59.2369 172.5 60.0433C173.624 60.7492 174.733 61.1003 176.066 60.8593C177.28 60.5525 178.241 59.9183 178.933 58.863C179.591 57.6738 179.738 56.4552 179.39 55.1299C178.961 54.0138 178.072 53.1262 177.029 52.568C175.24 51.7903 173.32 52.1753 171.936 53.5859ZM153.615 63.264C152.61 64.5311 152.294 65.5992 152.444 67.2167C152.728 68.3827 153.29 69.3204 154.314 69.9582C155.568 70.6243 156.541 70.879 157.942 70.5512C159.182 70.1572 160.212 69.2097 160.813 68.0613C161.238 66.9339 161.231 65.7401 160.803 64.6153C160.128 63.244 159.177 62.5568 157.769 62.0471C156.219 61.7312 154.742 62.1446 153.615 63.264ZM186.697 63.1022C185.638 64.2303 185.328 65.3249 185.343 66.8393C185.437 68.0683 186.072 69.0503 186.994 69.8518C188.084 70.5382 189.229 70.9432 190.527 70.6627C191.837 70.2746 192.846 69.6094 193.559 68.4307C194.098 67.3586 194.188 66.2174 193.838 65.0756C193.362 63.7969 192.511 62.9066 191.321 62.2575C189.658 61.7322 188.055 61.9444 186.697 63.1022ZM170.812 70.4094C170.179 71.297 169.975 72.3463 170.029 73.4265C170.227 74.5747 170.844 75.639 171.759 76.3573C171.955 76.4867 172.153 76.6122 172.354 76.7324C172.505 76.823 172.656 76.9136 172.811 77.0069C173.791 77.3751 174.933 77.3303 175.916 77.0155C177.076 76.4803 177.946 75.7559 178.484 74.5822C178.922 73.2926 178.897 72.1328 178.356 70.8766C177.687 69.7599 176.868 69.1024 175.666 68.6349C173.662 68.2548 172.128 68.8586 170.812 70.4094Z" fill="#F4A99C"/>
<path d="M172.808 88.5276C173.217 88.7294 173.62 88.9369 174.019 89.1578C175.337 89.8316 176.757 90.1101 178.21 90.3472C178.2 90.5739 178.2 90.5739 178.19 90.8051C178.129 92.2472 178.09 93.6887 178.07 95.1319C178.059 95.8737 178.041 96.6139 178.006 97.3549C177.752 101.251 177.752 101.251 179.46 104.59C180.17 105.314 180.949 105.95 181.768 106.546C182.323 107.03 182.559 107.502 182.675 108.224C182.694 109.222 182.619 109.926 181.99 110.724C181.202 111.507 180.427 111.64 179.339 111.638C178.196 111.455 177.533 110.658 176.764 109.864C176.649 109.747 176.535 109.63 176.416 109.51C176.135 109.223 175.854 108.935 175.575 108.647C175.572 108.747 175.57 108.847 175.568 108.951C175.557 109.411 175.543 109.87 175.529 110.33C175.526 110.488 175.522 110.646 175.519 110.808C175.481 111.933 175.392 112.854 174.641 113.743C173.811 114.435 173.146 114.675 172.061 114.649C171.066 114.456 170.47 113.935 169.902 113.103C169.6 112.515 169.551 111.991 169.526 111.334C169.52 111.178 169.514 111.021 169.507 110.86C169.502 110.697 169.496 110.534 169.49 110.367C169.484 110.202 169.477 110.037 169.471 109.867C169.455 109.46 169.44 109.054 169.426 108.647C169.355 108.72 169.284 108.793 169.211 108.868C168.888 109.201 168.562 109.532 168.237 109.864C168.125 109.979 168.014 110.094 167.899 110.212C166.647 111.481 166.647 111.481 165.662 111.638C164.574 111.64 163.799 111.507 163.01 110.724C162.392 109.939 162.3 109.234 162.297 108.253C162.521 107.19 163.104 106.588 163.961 105.946C165.341 104.885 166.608 103.79 166.901 101.996C167.092 100.317 167.025 98.6229 166.954 96.9383C166.926 96.1934 166.919 95.4484 166.91 94.7031C166.89 93.2503 166.848 91.799 166.791 90.3472C166.952 90.318 167.113 90.2888 167.28 90.2587C167.493 90.2195 167.707 90.1803 167.92 90.141C168.026 90.1219 168.132 90.1027 168.241 90.083C168.972 89.9481 169.628 89.7695 170.314 89.478C170.484 89.4072 170.655 89.3365 170.831 89.2636C171.205 89.0881 171.509 88.9133 171.85 88.6906C172.354 88.4441 172.354 88.4441 172.808 88.5276Z" fill="#7D5232"/>
<path d="M190.507 64.8744C190.925 65.2317 191.177 65.4966 191.309 66.0404C191.351 66.6194 191.257 66.9734 190.891 67.4271C190.447 67.8612 190.35 67.9356 189.738 67.9944C189.086 67.9401 188.804 67.7872 188.311 67.3631C188.031 66.9126 188.018 66.6519 188.027 66.1187C188.191 65.5068 188.409 65.2692 188.897 64.8744C189.463 64.6854 189.942 64.6986 190.507 64.8744Z" fill="#FF6060"/>
<path d="M157.275 64.728C157.684 64.9094 157.926 65.0624 158.199 65.4142C158.352 65.9274 158.396 66.3997 158.3 66.9239C158.024 67.3992 157.819 67.7104 157.29 67.9041C156.769 67.9981 156.423 67.9565 155.912 67.8023C155.386 67.4105 155.245 67.1181 155.079 66.4847C155.092 66.0487 155.173 65.7022 155.372 65.3135C155.982 64.7465 156.454 64.6235 157.275 64.728Z" fill="#FF6060"/>
<path d="M174.989 71.3158C175.43 71.5749 175.782 71.8757 176.014 72.3405C176.071 72.9379 176.043 73.3002 175.794 73.8502C175.387 74.2882 175.141 74.4234 174.564 74.5279C174.022 74.5431 173.685 74.3813 173.232 74.0973C172.869 73.6095 172.756 73.2217 172.784 72.6242C172.873 72.133 172.968 72.0142 173.315 71.6086C173.91 71.2625 174.318 71.1449 174.989 71.3158Z" fill="#FF6060"/>
<path d="M176.014 55.0658C176.483 55.4566 176.689 55.6785 176.816 56.2696C176.857 56.9146 176.809 57.1821 176.398 57.701C175.797 58.1591 175.457 58.2035 174.696 58.1401C173.886 57.6897 173.886 57.6897 173.672 57.2618C173.578 56.5048 173.54 55.9721 174.01 55.3495C174.665 54.8774 175.25 54.8295 176.014 55.0658Z" fill="#FF6060"/>
<defs>
<filter id="filter0_d_472_958" x="4.49023" y="100.852" width="347.133" height="203.334" filterUnits="userSpaceOnUse" color-interpolation-filters="sRGB">
<feFlood flood-opacity="0" result="BackgroundImageFix"/>
<feColorMatrix in="SourceAlpha" type="matrix" values="0 0 0 0 0 0 0 0 0 0 0 0 0 0 0 0 0 0 127 0" result="hardAlpha"/>
<feOffset dy="4"/>
<feGaussianBlur stdDeviation="2"/>
<feComposite in2="hardAlpha" operator="out"/>
<feColorMatrix type="matrix" values="0 0 0 0 0 0 0 0 0 0 0 0 0 0 0 0 0 0 0.25 0"/>
<feBlend mode="normal" in2="BackgroundImageFix" result="effect1_dropShadow_472_958"/>
<feBlend mode="normal" in="SourceGraphic" in2="effect1_dropShadow_472_958" result="shape"/>
</filter>
<filter id="filter1_d_472_958" x="4.49023" y="91.8518" width="347.133" height="203.334" filterUnits="userSpaceOnUse" color-interpolation-filters="sRGB">
<feFlood flood-opacity="0" result="BackgroundImageFix"/>
<feColorMatrix in="SourceAlpha" type="matrix" values="0 0 0 0 0 0 0 0 0 0 0 0 0 0 0 0 0 0 127 0" result="hardAlpha"/>
<feOffset dy="4"/>
<feGaussianBlur stdDeviation="2"/>
<feComposite in2="hardAlpha" operator="out"/>
<feColorMatrix type="matrix" values="0 0 0 0 0 0 0 0 0 0 0 0 0 0 0 0 0 0 0.25 0"/>
<feBlend mode="normal" in2="BackgroundImageFix" result="effect1_dropShadow_472_958"/>
<feBlend mode="normal" in="SourceGraphic" in2="effect1_dropShadow_472_958" result="shape"/>
</filter>
<filter id="filter2_d_472_958" x="4.49023" y="83.8518" width="347.133" height="203.334" filterUnits="userSpaceOnUse" color-interpolation-filters="sRGB">
<feFlood flood-opacity="0" result="BackgroundImageFix"/>
<feColorMatrix in="SourceAlpha" type="matrix" values="0 0 0 0 0 0 0 0 0 0 0 0 0 0 0 0 0 0 127 0" result="hardAlpha"/>
<feOffset dy="4"/>
<feGaussianBlur stdDeviation="2"/>
<feComposite in2="hardAlpha" operator="out"/>
<feColorMatrix type="matrix" values="0 0 0 0 0 0 0 0 0 0 0 0 0 0 0 0 0 0 0.25 0"/>
<feBlend mode="normal" in2="BackgroundImageFix" result="effect1_dropShadow_472_958"/>
<feBlend mode="normal" in="SourceGraphic" in2="effect1_dropShadow_472_958" result="shape"/>
</filter>
<filter id="filter3_d_472_958" x="4.49023" y="75.8518" width="347.133" height="203.334" filterUnits="userSpaceOnUse" color-interpolation-filters="sRGB">
<feFlood flood-opacity="0" result="BackgroundImageFix"/>
<feColorMatrix in="SourceAlpha" type="matrix" values="0 0 0 0 0 0 0 0 0 0 0 0 0 0 0 0 0 0 127 0" result="hardAlpha"/>
<feOffset dy="4"/>
<feGaussianBlur stdDeviation="2"/>
<feComposite in2="hardAlpha" operator="out"/>
<feColorMatrix type="matrix" values="0 0 0 0 0 0 0 0 0 0 0 0 0 0 0 0 0 0 0.25 0"/>
<feBlend mode="normal" in2="BackgroundImageFix" result="effect1_dropShadow_472_958"/>
<feBlend mode="normal" in="SourceGraphic" in2="effect1_dropShadow_472_958" result="shape"/>
</filter>
</defs>
</svg>
