<svg width="18" height="15" viewBox="0 0 18 15" fill="none" xmlns="http://www.w3.org/2000/svg">
<path d="M3.48667 4.23007C4.44823 4.23007 5.23001 3.4483 5.23001 2.48674C5.23001 1.52518 4.44823 0.743408 3.48667 0.743408C2.52512 0.743408 1.74334 1.52518 1.74334 2.48674C1.74334 3.4483 2.52512 4.23007 3.48667 4.23007ZM13.9467 4.23007C14.9082 4.23007 15.69 3.4483 15.69 2.48674C15.69 1.52518 14.9082 0.743408 13.9467 0.743408C12.9851 0.743408 12.2033 1.52518 12.2033 2.48674C12.2033 3.4483 12.9851 4.23007 13.9467 4.23007ZM17.4143 10.3998L16.1721 5.33872C16.0823 4.97099 15.7499 4.71221 15.3604 4.67953C14.9518 4.94375 14.4669 5.10174 13.9439 5.10174C13.4209 5.10174 12.9361 4.94375 12.5275 4.67953C12.138 4.71221 11.8056 4.97099 11.7157 5.33872L10.4736 10.3998C10.3783 10.8112 10.7052 11.2034 11.1464 11.2034H12.6392V14.0363C12.6392 14.3986 12.9306 14.6901 13.2929 14.6901H14.6004C14.9627 14.6901 15.2542 14.3986 15.2542 14.0363V11.2034H16.7469C17.1882 11.2034 17.5151 10.8112 17.4143 10.3998ZM9.1525 0.743408H8.28084C8.04113 0.743408 7.845 0.939533 7.845 1.17924V14.2542C7.845 14.4939 8.04113 14.6901 8.28084 14.6901H9.1525C9.39221 14.6901 9.58834 14.4939 9.58834 14.2542V1.17924C9.58834 0.939533 9.39221 0.743408 9.1525 0.743408ZM4.90585 4.6768C4.49726 4.94375 4.00967 5.10174 3.48667 5.10174C2.96367 5.10174 2.47608 4.94375 2.06749 4.6768C1.3974 4.734 0.871674 5.28969 0.871674 5.9734V9.67799C0.871674 10.0403 1.16314 10.3317 1.52542 10.3317H1.74334V14.0363C1.74334 14.3986 2.0348 14.6901 2.39709 14.6901H4.57626C4.93854 14.6901 5.23001 14.3986 5.23001 14.0363V10.3317H5.44792C5.81021 10.3317 6.10167 10.0403 6.10167 9.67799V5.9734C6.10167 5.28969 5.57595 4.734 4.90585 4.6768Z" fill="#FFF5A6"/>
</svg>
