<svg width="185" height="125" viewBox="0 0 185 125" fill="none" xmlns="http://www.w3.org/2000/svg">
<path d="M166.25 71.359C166.25 104.772 132.658 121 92.4921 121C52.3265 121 19.25 104.772 19.25 71.359C19.25 37.9457 52.3265 0 92.4921 0C132.658 0 166.25 37.9457 166.25 71.359Z" fill="#F2D3A3"/>
<path d="M64.0416 58.2745C65.9991 59.1958 66.9976 60.603 67.7294 62.5786C68.1204 64.4688 67.819 66.0511 66.8552 67.7278C66.2036 68.675 65.4408 69.2413 64.4301 69.7749C64.7351 70.4399 65.1326 71.007 65.5538 71.6039C66.897 73.5981 67.3332 75.4905 67.3349 77.8558C67.3372 78.0286 67.3396 78.2014 67.342 78.3795C67.3481 81.2194 66.2461 83.7914 64.2388 85.841C64.1126 85.841 63.9863 85.841 63.8563 85.841C63.7932 86.0304 63.7301 86.2197 63.665 86.4148C62.8269 87.2784 61.7003 87.8212 60.6407 88.3633C60.4574 88.4588 60.4574 88.4588 60.2704 88.5562C58.3343 89.5169 56.4762 89.7682 54.329 89.75C53.974 89.748 53.974 89.748 53.6118 89.746C51.9266 89.7163 50.5028 89.5599 48.9377 88.9012C48.6715 88.804 48.6715 88.804 48.3998 88.7047C45.4272 87.5182 43.3237 85.2716 41.923 82.4461C41.3109 80.9439 40.9883 79.5769 41.0003 77.9514C41.0014 77.7768 41.0025 77.6021 41.0036 77.4222C41.087 74.2344 42.6543 71.6792 44.9145 69.503C45.8638 68.6966 46.8905 68.0808 47.9814 67.4797C48.119 67.3994 48.2566 67.319 48.3983 67.2362C50.3798 66.1427 52.7271 65.9144 54.9506 65.9377C55.1088 65.9385 55.2669 65.9394 55.4299 65.9403C55.816 65.9425 56.2021 65.946 56.5883 65.9496C56.5794 65.7211 56.5705 65.4925 56.5614 65.2571C56.4964 62.9072 56.6734 61.381 58.3209 59.5984C59.9436 58.0997 61.9012 57.6464 64.0416 58.2745Z" fill="#F4A99C"/>
<path d="M126.089 58.5023C127.68 59.4259 128.59 60.6133 129.268 62.3156C129.618 63.6328 129.509 65.0047 129.268 66.3322C129.463 66.3292 129.463 66.3292 129.662 66.3261C130.26 66.3181 130.858 66.3131 131.456 66.3083C131.66 66.3051 131.865 66.3018 132.076 66.2985C135.73 66.2762 139.185 67.7656 141.843 70.274C143.991 72.552 145.057 75.2375 145.032 78.3673C144.919 81.5091 143.49 84.0401 141.318 86.2235C141.205 86.3434 141.092 86.4632 140.975 86.5867C138.551 88.9515 134.894 89.982 131.589 89.9485C130.043 89.8917 128.631 89.5681 127.164 89.0925C126.864 88.9986 126.864 88.9986 126.558 88.9027C123.292 87.7204 121.104 85.141 119.599 82.1099C119.029 80.7325 118.87 79.5104 118.88 78.0351C118.881 77.8661 118.882 77.6971 118.884 77.5229C118.937 74.6289 120.15 72.2956 121.809 69.9662C121.67 69.8926 121.67 69.8926 121.528 69.8175C120.134 69.021 118.738 67.8205 118.252 66.2343C117.912 64.1311 118.035 62.1867 119.208 60.3701C120.845 58.2416 123.609 57.3753 126.089 58.5023Z" fill="#F4A99C"/>
<path d="M101.033 65.1368C101.975 65.894 102.684 66.9082 103.065 68.0535C103.184 69.5721 102.79 70.6224 101.846 71.7951C100.415 73.3157 98.4115 74.1988 96.3711 74.5565C96.1186 74.5565 95.8661 74.5565 95.606 74.5565C95.6104 75.4174 95.6252 76.2778 95.6419 77.1385C95.643 77.3811 95.6441 77.6238 95.6452 77.8737C95.6786 79.2988 95.7677 80.3621 96.7536 81.442C97.8993 82.5119 99.4529 82.5434 100.94 82.5233C103.264 82.4086 104.699 81.2818 106.245 79.6601C106.546 79.3203 106.837 78.972 107.118 78.6156C107.486 78.1634 107.648 78.0235 108.22 77.9537C109.284 77.9193 109.876 78.0475 110.716 78.7643C111.239 79.5494 111.233 80.1381 111.098 81.0594C110.281 83.5108 107.742 85.2907 105.552 86.4148C104.86 86.7085 104.166 86.9586 103.448 87.1799C103.258 87.243 103.069 87.3061 102.874 87.3711C99.367 87.63 96.5481 87.5747 93.7165 85.3352C93.2837 85.0073 93.2837 85.0073 92.5458 85.076C92.1107 85.3424 92.1107 85.3424 91.6732 85.6976C90.6829 86.4234 89.6951 86.8191 88.5293 87.1799C88.2452 87.2745 88.2452 87.2745 87.9555 87.3711C84.1542 87.6919 81.0202 87.3636 78.0098 84.8847C77.7864 84.7076 77.7864 84.7076 77.5585 84.5268C76.2324 83.4209 74.8672 82.0226 74.6985 80.2346C74.7694 79.399 74.9989 79.0261 75.5234 78.3818C76.3783 77.8118 77.1992 77.8614 78.2011 77.9992C78.7031 78.3578 78.7031 78.3578 79.1574 78.9555C80.5129 80.5947 82.0755 82.1856 84.3071 82.4403C84.7153 82.4633 85.12 82.4708 85.5288 82.47C85.6725 82.47 85.8162 82.4699 85.9642 82.4699C87.0904 82.4467 87.9431 82.2217 88.9118 81.6332C89.0479 81.5716 89.184 81.51 89.3242 81.4464C89.8262 81.1678 89.8864 80.8266 90.0594 80.2944C90.1225 80.1682 90.1856 80.0419 90.2506 79.9119C90.2802 79.5095 90.2984 79.1063 90.3112 78.703C90.3192 78.4626 90.3272 78.2222 90.3354 77.9746C90.343 77.7223 90.3505 77.4701 90.3582 77.2103C90.3665 76.954 90.3748 76.6977 90.3833 76.4415C90.4036 75.8132 90.4231 75.1848 90.4419 74.5565C90.1475 74.5214 90.1475 74.5214 89.8472 74.4855C87.6896 74.1367 85.5499 73.1225 84.134 71.4245C83.3414 70.2799 82.9986 69.2752 83.1739 67.8623C83.6121 66.3346 84.8135 65.345 86.1101 64.5137C87.3588 63.8344 88.6702 63.5329 90.0594 63.272C90.2339 63.2364 90.4085 63.2009 90.5883 63.1644C94.1301 62.6853 98.0229 63.0787 101.033 65.1368Z" fill="black"/>
<path d="M126.089 58.5023C127.68 59.4259 128.59 60.6133 129.268 62.3156C129.424 62.9014 129.424 62.9014 129.46 63.4632C129.474 63.5835 129.488 63.7038 129.502 63.8278C129.613 65.3902 129.011 67.0713 128.085 68.3285C126.552 69.725 125.133 70.2415 123.081 70.2224C121.572 70.0819 120.428 69.321 119.412 68.2261C118.13 66.5653 117.994 64.7236 118.175 62.6982C118.525 61.0833 119.436 59.8342 120.788 58.9058C122.509 57.934 124.252 57.6673 126.089 58.5023Z" fill="black"/>
<path d="M64.0416 58.2744C65.9992 59.1958 66.9976 60.6029 67.7294 62.5786C68.1218 64.4753 67.8044 66.0279 66.8687 67.7211C66.1068 68.8575 64.9782 69.6658 63.6725 70.0872C61.7679 70.4302 60.2965 70.0881 58.6922 69.0098C57.6339 68.0982 56.8463 66.7537 56.5883 65.3758C56.4354 63.2231 56.5901 61.6808 57.9749 59.9726C59.6082 58.2053 61.7037 57.5885 64.0416 58.2744Z" fill="black"/>
<path d="M102.293 0.544781C102.444 0.563031 102.596 0.581282 102.752 0.600086C110.784 1.57941 118.413 3.29363 126.018 6.07754C126.13 5.95445 126.243 5.83137 126.359 5.70455C129.435 2.4717 133.862 0.493148 138.339 0.300073C141.065 0.249244 143.554 0.500159 146.175 1.25868C146.324 1.30171 146.473 1.34473 146.626 1.38906C150.456 2.53671 154.085 4.41316 157.413 6.61297C157.554 6.7062 157.695 6.79944 157.84 6.89549C160.508 8.66935 163.014 10.589 165.44 12.6812C165.566 12.7888 165.691 12.8965 165.821 13.0074C168.742 15.5318 171.625 18.1988 174.002 21.248C174.28 21.5757 174.559 21.9029 174.838 22.2296C177.418 25.3313 179.654 28.6642 181.55 32.2243C181.633 32.3785 181.717 32.5327 181.803 32.6916C182.073 33.213 182.318 33.7432 182.564 34.2767C182.618 34.3783 182.672 34.4798 182.728 34.5843C184.297 37.5661 183.988 40.9592 183.951 44.2291C183.946 44.8673 183.948 45.5053 183.951 46.1435C183.953 46.7647 183.95 47.3859 183.946 48.0071C183.945 48.3007 183.945 48.5944 183.946 48.888C183.948 50.6727 183.761 52.1178 182.921 53.7306C182.777 54.045 182.777 54.045 182.63 54.3658C180.673 58.1431 177.288 61.0309 173.289 62.476C172.651 62.6732 172.008 62.8421 171.36 63.0002C171.207 63.038 171.053 63.0758 170.896 63.1147C169.838 63.3535 168.841 63.4113 167.759 63.3683C167.793 63.494 167.828 63.6196 167.863 63.749C168.496 66.1506 168.758 68.565 168.829 71.0428C168.835 71.2537 168.841 71.4646 168.847 71.6819C169.032 79.3136 167.903 86.7904 164.548 93.7093C164.481 93.8477 164.414 93.9862 164.345 94.1289C162.084 98.7513 158.694 103.332 154.717 106.634C154.324 106.964 153.953 107.314 153.578 107.664C143.435 116.791 129.711 120.837 116.563 123.158C116.304 123.205 116.304 123.205 116.039 123.252C113.671 123.675 111.294 123.984 108.904 124.251C108.78 124.265 108.655 124.28 108.527 124.295C103.657 124.851 98.7579 125.012 93.8605 124.999C93.4654 124.998 93.0703 124.998 92.6752 124.998C85.6833 124.987 78.7219 124.635 71.7898 123.693C71.6298 123.672 71.4697 123.651 71.3049 123.629C70.3314 123.499 69.3666 123.334 68.4005 123.158C68.1809 123.119 67.9612 123.079 67.7349 123.039C54.3094 120.628 40.8874 116.101 30.6444 106.76C30.2648 106.415 29.8796 106.079 29.4912 105.745C28.2655 104.671 27.193 103.52 26.1744 102.248C25.9109 101.919 25.6435 101.594 25.3717 101.273C23.5534 99.1173 22.0821 96.7373 20.7728 94.2447C20.7068 94.1198 20.6408 93.9948 20.5729 93.8661C18.5965 90.0648 17.385 85.9644 16.67 81.7514C16.6411 81.5925 16.6121 81.4337 16.5823 81.2701C15.5687 75.5713 15.8462 69.3721 17.0268 63.7253C16.9012 63.6994 16.7757 63.6735 16.6463 63.6468C11.2568 62.5174 6.49166 60.596 3.33533 55.8103C2.20947 54.0287 1.11871 52.0713 1.09054 49.9326C1.08848 49.8071 1.08642 49.6815 1.0843 49.5522C1.07821 49.1388 1.07488 48.7256 1.07212 48.3122C1.07088 48.1695 1.06965 48.0268 1.06838 47.8798C1.062 47.1228 1.0578 46.3657 1.05535 45.6087C1.053 44.9886 1.04683 44.3688 1.03706 43.7488C0.937267 37.2842 0.937267 37.2842 2.39952 34.6337C2.54569 34.3009 2.68958 33.9671 2.83014 33.6319C4.36177 30.3176 6.27239 27.3041 8.54513 24.4515C8.81538 24.111 9.08158 23.7677 9.34663 23.4232C10.1882 22.3324 11.0495 21.2753 11.9847 20.2622C12.2044 20.0219 12.4229 19.7803 12.634 19.5324C13.5721 18.4329 14.5843 17.4119 15.6055 16.3903C15.9097 16.0855 16.2125 15.7793 16.5153 15.473C17.5719 14.4106 18.6417 13.4111 19.8185 12.4816C20.2231 12.1574 20.6047 11.8179 20.9846 11.4653C23.871 8.87949 27.233 6.7556 30.5837 4.82821C30.7831 4.71156 30.9825 4.59492 31.1879 4.47474C34.2709 2.74414 37.6483 1.45161 41.1082 0.723257C41.259 0.690674 41.4098 0.65809 41.5652 0.62452C46.4761 -0.36197 51.9431 0.608146 56.1501 3.36458C57.1749 4.09924 58.0576 5.00985 58.9463 5.89906C59.939 5.83887 60.7912 5.52982 61.7112 5.18516C69.0475 2.54481 76.6999 1.05704 84.4548 0.366305C84.7389 0.340099 84.7389 0.340099 85.0287 0.313363C90.6752 -0.13829 96.6668 -0.135568 102.293 0.544781ZM81.4223 7.14839C81.2551 7.16841 81.0878 7.18843 80.9154 7.20905C79.8305 7.33902 78.7539 7.50299 77.6763 7.68382C77.4603 7.71945 77.2443 7.75509 77.0218 7.7918C67.2275 9.41899 57.8745 12.4719 50.5624 19.4632C50.2473 19.743 49.9315 20.0219 49.6148 20.2998C48.8525 20.9876 48.1802 21.7039 47.5299 22.4973C47.4551 22.586 47.3802 22.6747 47.303 22.766C45.7644 24.5893 44.4735 26.5201 43.2488 28.5655C43.1778 28.6824 43.1069 28.7994 43.0337 28.9199C39.9814 33.9793 38.0243 39.5803 36.4646 45.2508C35.6437 48.2316 34.8246 51.1369 33.4378 53.9091C33.3353 54.1189 33.2327 54.3288 33.1271 54.5449C32.4171 55.933 31.5618 57.1593 30.5837 58.371C30.4102 58.5891 30.4102 58.5891 30.2332 58.8116C28.53 60.8469 26.1454 62.2261 23.6269 63.0114C23.2484 65.0006 23.2484 65.0006 22.8911 66.9936C22.8648 67.1439 22.8386 67.2941 22.8116 67.4489C21.4169 77.6357 23.5055 88.2307 29.7072 96.5272C30.4268 97.4464 31.1984 98.3158 31.9857 99.1772C32.3191 99.5455 32.6393 99.9212 32.9584 100.302C38.4185 106.561 46.7813 110.549 54.4868 113.163C54.6885 113.232 54.8902 113.301 55.098 113.372C63.0525 116.058 71.3165 117.16 79.6385 117.982C79.7623 117.994 79.8862 118.007 80.0137 118.019C84.3802 118.449 88.7541 118.555 93.1398 118.551C93.3518 118.551 93.5639 118.551 93.7824 118.551C101.071 118.543 108.29 118.058 115.493 116.911C115.694 116.879 115.894 116.848 116.101 116.815C121.117 116.008 126.031 114.822 130.834 113.163C130.999 113.107 131.165 113.051 131.335 112.993C140.177 109.987 148.927 104.927 154.737 97.4573C154.869 97.2905 155.001 97.1237 155.137 96.9518C156.198 95.5802 157.093 94.143 157.948 92.6384C158.01 92.5301 158.073 92.4217 158.137 92.3101C161.389 86.619 162.446 80.2637 162.452 73.7869C162.452 73.6174 162.453 73.4478 162.453 73.2732C162.453 70.6994 162.364 68.1706 161.948 65.6246C161.894 65.2884 161.848 64.9507 161.807 64.6125C161.708 63.6028 161.708 63.6028 161.1 62.8594C160.928 62.8139 160.756 62.7683 160.579 62.7214C156.235 61.2728 153.384 57.4669 151.399 53.52C149.945 50.5436 149.018 47.4286 148.159 44.2379C147.028 40.0461 145.604 36.028 143.677 32.135C143.563 31.9025 143.563 31.9025 143.446 31.6652C142.027 28.8111 140.32 26.2282 138.326 23.7467C138.18 23.564 138.034 23.3813 137.884 23.1931C135.824 20.6609 133.493 18.3274 130.834 16.4291C130.73 16.3545 130.625 16.2799 130.518 16.2031C117.089 6.70402 97.3022 5.09261 81.4223 7.14839Z" fill="black"/>
<path d="M145.068 7.8574C145.183 7.89511 145.299 7.93281 145.419 7.97166C147.295 8.58905 149.051 9.40914 150.796 10.3205C150.91 10.3791 151.025 10.4378 151.142 10.4982C155.047 12.5115 158.765 15.2021 161.974 18.1708C162.339 18.5042 162.708 18.824 163.085 19.1426C164.006 19.9316 164.868 20.7759 165.732 21.6242C165.891 21.7787 166.051 21.9331 166.215 22.0922C167.169 23.028 168.05 23.994 168.89 25.0306C169.191 25.3989 169.502 25.7511 169.827 26.0995C171.637 28.1212 173.169 30.3757 174.604 32.6641C174.669 32.7669 174.733 32.8697 174.8 32.9756C176.515 35.7414 177.944 38.658 178.721 41.8126C178.757 41.9514 178.793 42.0902 178.829 42.2332C179.372 45.7284 178.617 49.1996 176.616 52.1261C176.318 52.5161 176.008 52.8837 175.678 53.2483C175.587 53.354 175.496 53.4597 175.403 53.5686C173.46 55.6664 170.43 56.8411 167.584 56.9911C164.85 57.0727 162.616 56.6144 160.462 54.8317C160.353 54.744 160.244 54.6562 160.132 54.5658C156.335 51.1909 155.182 45.1596 153.817 40.5811C151.112 31.5469 146.875 23.1759 140.234 16.3022C140.144 16.2083 140.053 16.1143 139.96 16.0175C137.579 13.5615 134.865 11.6655 132 9.79268C135.028 6.4447 141.106 6.52801 145.068 7.8574Z" fill="#7D5232"/>
<path d="M52.6405 9.15004C52.7591 9.32465 52.8778 9.49925 53 9.67915C52.9069 9.74029 52.8138 9.80144 52.7178 9.86443C50.0412 11.6273 47.6095 13.4999 45.2703 15.6757C45.1347 15.8012 44.9992 15.9267 44.8595 16.056C44.0608 16.8163 43.3519 17.6313 42.6574 18.4839C42.3493 18.8614 42.0385 19.2333 41.7207 19.6027C35.5041 26.9055 32.2994 35.9805 29.6963 44.9972C29.2505 46.5403 28.7875 48.0464 28.1256 49.5168C28.0556 49.6736 27.9856 49.8304 27.9135 49.992C27.3864 51.1487 26.8232 52.2327 26.0358 53.2426C25.9116 53.4065 25.7874 53.5704 25.6595 53.7393C24.3034 55.3691 22.2298 56.6256 20.0672 56.914C19.9013 56.9246 19.7354 56.9353 19.5644 56.9463C19.451 56.9545 19.3376 56.9627 19.2207 56.9711C15.7774 57.1882 12.7744 56.1824 10.1108 53.9915C7.68834 51.7765 6.18651 48.7751 6.01424 45.525C5.95184 43.4584 6.07363 41.6161 6.8014 39.6621C6.87346 39.4581 6.94553 39.2542 7.01978 39.0441C8.12004 36.1435 9.69034 33.3893 11.4752 30.8436C11.5804 30.6935 11.5804 30.6935 11.6877 30.5403C13.1539 28.4599 14.7104 26.4376 16.4607 24.5783C16.6832 24.3398 16.9042 24.0999 17.1182 23.854C18.0395 22.7965 19.0306 21.8105 20.0327 20.8275C20.3263 20.539 20.6184 20.2492 20.9105 19.9593C22.0837 18.8021 23.2925 17.7481 24.5977 16.734C24.7825 16.5817 24.9665 16.4286 25.149 16.2737C32.333 10.229 43.4129 3.44623 52.6405 9.15004Z" fill="#7D5232"/>
<ellipse cx="2" cy="44.5" rx="2" ry="7.5" fill="black"/>
<ellipse cx="183" cy="44" rx="2" ry="8" fill="black"/>
</svg>
