<svg width="186" height="284" viewBox="0 0 186 284" fill="none" xmlns="http://www.w3.org/2000/svg">
<path d="M38.1156 66.5719C38.3178 66.6718 38.52 66.7718 38.7283 66.8748C42.0061 68.5061 45.1168 70.4144 48.232 72.3322C49.1879 72.9207 50.1464 73.5047 51.1068 74.0859C51.3567 74.2372 51.6066 74.3886 51.8641 74.5445C52.3279 74.8251 52.7917 75.1056 53.2557 75.3858C53.4653 75.5131 53.6749 75.6404 53.8908 75.7715C54.091 75.8928 54.2911 76.0142 54.4972 76.1393C55.2674 76.6265 56.0039 77.1576 56.7353 77.7012C57.6351 78.1488 58.4203 78.0457 59.3718 77.7922C59.5921 77.7116 59.8124 77.631 60.0394 77.548C60.2925 77.4582 60.5457 77.3684 60.8065 77.2759C61.0784 77.1785 61.3502 77.0811 61.6303 76.9807C70.6063 73.8853 79.9911 72.5211 89.463 72.5717C89.7188 72.5726 89.9746 72.5734 90.2382 72.5743C100.35 72.6128 110.078 74.2386 119.724 77.3027C119.954 77.3743 120.184 77.4459 120.422 77.5197C121.023 77.7231 121.023 77.7231 121.797 78.1029C122.948 78.2807 123.661 77.5715 124.568 76.9201C125.002 76.6243 125.436 76.3295 125.87 76.0357C126.104 75.8767 126.338 75.7177 126.578 75.5539C127.91 74.6678 129.276 73.8387 130.644 73.0111C130.787 72.9244 130.93 72.8376 131.078 72.7483C135.144 70.2884 139.264 67.8999 143.552 65.8452C144.115 65.5718 144.674 65.2892 145.233 65.0066C149.209 63.0217 153.446 61.2061 157.946 61.1781C158.144 61.1731 158.342 61.1681 158.546 61.1629C160.492 61.1505 162.079 61.6284 163.529 62.9735C167.299 67.1701 167.744 73.8401 168.295 79.1777C168.321 79.4331 168.321 79.4331 168.349 79.6936C169.111 87.4532 168.381 95.3905 167.582 103.117C167.552 103.414 167.552 103.414 167.522 103.717C167.151 107.36 167.151 107.36 166.773 108.997C166.005 112.327 167.011 114.467 168.456 117.5C172.01 125.269 172.819 133.79 172.658 142.207C172.92 142.206 172.92 142.206 173.188 142.205C178.091 142.196 178.091 142.196 179.128 143.04C179.967 143.969 180.016 144.549 179.997 145.765C179.892 146.659 179.567 147.13 178.961 147.782C176.906 149.04 174.46 148.509 172.173 148.267C172.148 148.47 172.148 148.47 172.122 148.677C171.759 151.517 171.307 154.25 170.476 156.994C170.774 157.056 171.073 157.117 171.38 157.181C171.776 157.265 172.171 157.349 172.567 157.433C172.763 157.474 172.959 157.514 173.161 157.555C174.572 157.859 175.772 158.223 176.87 159.206C177.421 160.18 177.487 160.991 177.264 162.085C176.848 162.89 176.271 163.399 175.506 163.888C173.783 164.24 171.99 163.645 170.34 163.161C170.142 163.104 169.943 163.047 169.739 162.989C169.257 162.851 168.776 162.71 168.295 162.57C168.253 162.704 168.212 162.839 168.17 162.977C167.75 164.301 167.239 165.514 166.582 166.736C166.488 166.913 166.393 167.09 166.295 167.273C164.763 170.068 162.879 172.508 160.661 174.797C160.409 175.058 160.158 175.321 159.908 175.585C155.139 180.634 148.58 185.276 141.871 187.296C142.166 187.521 142.166 187.521 142.467 187.75C145.098 189.759 147.644 191.824 150.062 194.087C150.561 194.553 151.063 195.014 151.573 195.468C152.713 196.484 153.791 197.498 154.771 198.668C155.082 199.033 155.405 199.387 155.735 199.735C158.527 202.678 160.822 206.019 162.719 209.599C162.832 209.804 162.946 210.008 163.063 210.219C165.113 214.061 166.116 218.444 164.91 222.709C163.777 225.892 161.817 227.932 158.84 229.477C153.462 231.676 148.112 231.714 142.736 229.473C142.366 229.315 141.997 229.154 141.628 228.992C141.673 229.164 141.717 229.336 141.763 229.513C142.365 231.97 142.725 234.443 143.068 236.947C143.115 237.286 143.115 237.286 143.162 237.631C147.799 271.313 147.799 271.313 142.848 277.865C139.797 281.173 135.107 282.732 130.72 283.052C129.356 283.099 127.993 283.111 126.629 283.112C126.345 283.113 126.345 283.113 126.056 283.113C120.827 283.109 114.847 282.714 110.812 278.948C108.728 276.652 107.85 273.93 107.16 270.976C107.119 270.807 107.078 270.638 107.037 270.464C106.782 269.304 106.666 268.163 106.586 266.978C106.566 266.673 106.545 266.369 106.524 266.056C106.509 265.825 106.493 265.593 106.478 265.355C106.322 265.37 106.167 265.384 106.006 265.399C101.127 265.834 96.2778 265.916 91.3819 265.903C90.3395 265.901 89.2972 265.902 88.2549 265.905C83.3171 265.916 78.4298 265.79 73.5088 265.355C73.4935 265.569 73.4783 265.782 73.4625 266.002C73.4314 266.425 73.4314 266.425 73.3996 266.856C73.3693 267.274 73.3693 267.274 73.3382 267.7C73.2442 268.755 73.0685 269.776 72.8421 270.81C72.7996 271.005 72.757 271.201 72.7132 271.402C71.8916 275.016 70.5085 277.927 67.4483 280.143C63.3606 282.626 58.7535 283.099 54.0847 283.11C53.5172 283.112 52.9499 283.12 52.3824 283.128C46.9925 283.166 41.7626 282.132 37.6914 278.37C34.5475 275.041 34.6063 271.226 34.646 266.916C34.6474 266.657 34.6487 266.398 34.6501 266.132C34.7 256.653 35.5657 247.265 36.7975 237.871C36.8217 237.686 36.8459 237.501 36.8708 237.31C37.2266 234.608 37.6538 231.921 38.1156 229.235C37.8141 229.334 37.5125 229.434 37.2018 229.536C31.5199 231.387 26.3357 231.99 20.7978 229.326C17.9419 227.856 16.0415 225.666 14.8908 222.666C13.5636 217.948 15.3129 212.945 17.5625 208.815C19.4486 205.486 21.7009 202.525 24.2892 199.713C24.733 199.229 25.1604 198.736 25.5856 198.236C27.3449 196.219 29.2864 194.358 31.3279 192.63C31.5822 192.409 31.8363 192.187 32.0902 191.966C33.9652 190.336 35.8865 188.788 37.8732 187.296C37.7341 187.234 37.5951 187.172 37.4518 187.108C36.9958 186.902 36.5408 186.695 36.0863 186.486C35.4538 186.197 34.8201 185.915 34.1829 185.637C29.8065 183.69 25.9118 181.044 22.3584 177.842C22.1553 177.668 21.9522 177.494 21.7429 177.315C20.5404 176.279 19.4845 175.19 18.4797 173.963C18.2831 173.73 18.0866 173.497 17.8841 173.257C15.2739 170.099 13.1706 166.526 11.4496 162.812C10.1678 162.915 9.04278 163.186 7.81327 163.57C6.45275 163.968 5.54338 164.179 4.17699 163.782C3.22195 163.2 2.76384 162.684 2.48006 161.6C2.35995 160.659 2.43964 160.225 2.87399 159.373C4.03919 157.993 5.60416 157.761 7.29813 157.433C7.51125 157.391 7.72437 157.348 7.94395 157.303C8.4657 157.198 8.98774 157.095 9.5102 156.994C9.47603 156.842 9.44185 156.689 9.40663 156.532C8.79332 153.786 8.18781 151.057 7.81327 148.267C7.54931 148.277 7.54931 148.277 7.28002 148.286C6.47805 148.312 5.67616 148.327 4.87394 148.343C4.59708 148.353 4.32021 148.363 4.03495 148.374C1.73097 148.407 1.73097 148.407 0.845625 147.687C0.122366 146.852 0.0184303 146.469 0.0104164 145.388C0.0052603 145.074 0.0052603 145.074 0 144.754C0.0821608 143.86 0.335934 143.355 1.01039 142.767C2.56245 142.102 4.29847 142.196 5.96388 142.202C6.34939 142.203 6.34939 142.203 6.74269 142.204C6.93598 142.205 7.12928 142.206 7.32843 142.207C7.32463 142.007 7.32082 141.807 7.31689 141.601C7.17174 132.793 8.41206 124.191 12.067 116.077C12.1686 115.852 12.2702 115.626 12.3749 115.393C12.5689 114.972 12.7687 114.553 12.9754 114.137C13.7042 112.578 13.6754 111.402 13.3889 109.722C13.3562 109.516 13.3236 109.309 13.2899 109.096C13.2195 108.665 13.1467 108.234 13.0719 107.803C11.3041 97.454 10.598 86.4658 11.9344 76.0262C11.9591 75.8235 11.9838 75.6207 12.0092 75.4119C12.564 70.9922 13.4889 65.521 17.0252 62.4508C23.3646 58.4389 32.3875 63.72 38.1156 66.5719Z" fill="#FBE9CC"/>
<path d="M38.1156 66.5719C38.3178 66.6718 38.52 66.7718 38.7283 66.8748C42.0061 68.5061 45.1168 70.4144 48.232 72.3322C49.1879 72.9207 50.1464 73.5047 51.1068 74.0859C51.3567 74.2372 51.6066 74.3886 51.8641 74.5445C52.3279 74.8251 52.7917 75.1056 53.2557 75.3858C53.4653 75.5131 53.6749 75.6404 53.8908 75.7715C54.091 75.8928 54.2911 76.0142 54.4972 76.1393C55.2674 76.6265 56.0039 77.1576 56.7353 77.7012C57.6351 78.1488 58.4203 78.0457 59.3718 77.7922C59.5921 77.7116 59.8124 77.631 60.0394 77.548C60.2925 77.4582 60.5457 77.3684 60.8065 77.2759C61.0784 77.1785 61.3502 77.0811 61.6303 76.9807C70.6063 73.8853 79.9911 72.5211 89.463 72.5717C89.7188 72.5726 89.9746 72.5734 90.2382 72.5743C100.35 72.6128 110.078 74.2386 119.724 77.3027C119.954 77.3743 120.184 77.4459 120.422 77.5197C121.023 77.7231 121.023 77.7231 121.797 78.1029C122.948 78.2807 123.661 77.5715 124.568 76.9201C125.002 76.6243 125.436 76.3295 125.87 76.0357C126.104 75.8767 126.338 75.7177 126.578 75.5539C127.91 74.6678 129.276 73.8387 130.644 73.0111C130.787 72.9244 130.93 72.8376 131.078 72.7483C135.144 70.2884 139.264 67.8999 143.552 65.8452C144.115 65.5718 144.674 65.2892 145.233 65.0066C149.209 63.0217 153.446 61.2061 157.946 61.1781C158.144 61.1731 158.342 61.1681 158.546 61.1629C160.492 61.1505 162.079 61.6284 163.529 62.9735C167.299 67.1701 167.744 73.8401 168.295 79.1777C168.321 79.4331 168.321 79.4331 168.349 79.6936C169.111 87.4532 168.381 95.3905 167.582 103.117C167.552 103.414 167.552 103.414 167.522 103.717C167.151 107.36 167.151 107.36 166.773 108.997C166.005 112.327 167.011 114.467 168.456 117.5C172.01 125.269 172.819 133.79 172.658 142.207C172.92 142.206 172.92 142.206 173.188 142.205C178.091 142.196 178.091 142.196 179.128 143.04C179.967 143.969 180.016 144.549 179.997 145.765C179.892 146.659 179.567 147.13 178.961 147.782C176.906 149.04 174.46 148.509 172.173 148.267C172.148 148.47 172.148 148.47 172.122 148.677C171.759 151.517 171.307 154.25 170.476 156.994C170.774 157.056 171.073 157.117 171.38 157.181C171.776 157.265 172.171 157.349 172.567 157.433C172.763 157.474 172.959 157.514 173.161 157.555C174.572 157.859 175.772 158.223 176.87 159.206C177.421 160.18 177.487 160.991 177.264 162.085C176.848 162.89 176.271 163.399 175.506 163.888C173.783 164.24 171.99 163.645 170.34 163.161C170.142 163.104 169.943 163.047 169.739 162.989C169.257 162.851 168.776 162.71 168.295 162.57C168.253 162.704 168.212 162.839 168.17 162.977C167.75 164.301 167.239 165.514 166.582 166.736C166.488 166.913 166.393 167.09 166.295 167.273C164.763 170.068 162.879 172.508 160.661 174.797C160.409 175.058 160.158 175.321 159.908 175.585C155.139 180.634 148.58 185.276 141.871 187.296C142.166 187.521 142.166 187.521 142.467 187.75C145.098 189.759 147.644 191.824 150.062 194.087C150.561 194.553 151.063 195.014 151.573 195.468C152.713 196.484 153.791 197.498 154.771 198.668C155.082 199.033 155.405 199.387 155.735 199.735C158.527 202.678 160.822 206.019 162.719 209.599C162.832 209.804 162.946 210.008 163.063 210.219C165.113 214.061 166.116 218.444 164.91 222.709C163.777 225.892 161.817 227.932 158.84 229.477C153.462 231.676 148.112 231.714 142.736 229.473C142.366 229.315 141.997 229.154 141.628 228.992C141.673 229.164 141.717 229.336 141.763 229.513C142.365 231.97 142.725 234.443 143.068 236.947C143.115 237.286 143.115 237.286 143.162 237.631C147.799 271.313 147.799 271.313 142.848 277.865C139.797 281.173 135.107 282.732 130.72 283.052C129.356 283.099 127.993 283.111 126.629 283.112C126.345 283.113 126.345 283.113 126.056 283.113C120.827 283.109 114.847 282.714 110.812 278.948C108.728 276.652 107.85 273.93 107.16 270.976C107.119 270.807 107.078 270.638 107.037 270.464C106.782 269.304 106.666 268.163 106.586 266.978C106.566 266.673 106.545 266.369 106.524 266.056C106.509 265.825 106.493 265.593 106.478 265.355C106.322 265.37 106.167 265.384 106.006 265.399C101.127 265.834 96.2778 265.916 91.3819 265.903C90.3395 265.901 89.2972 265.902 88.2549 265.905C83.3171 265.916 78.4298 265.79 73.5088 265.355C73.4935 265.569 73.4783 265.782 73.4625 266.002C73.4314 266.425 73.4314 266.425 73.3996 266.856C73.3693 267.274 73.3693 267.274 73.3382 267.7C73.2442 268.755 73.0685 269.776 72.8421 270.81C72.7996 271.005 72.757 271.201 72.7132 271.402C71.8916 275.016 70.5085 277.927 67.4483 280.143C63.3606 282.626 58.7535 283.099 54.0847 283.11C53.5172 283.112 52.9499 283.12 52.3824 283.128C46.9925 283.166 41.7626 282.132 37.6914 278.37C34.5475 275.041 34.6063 271.226 34.646 266.916C34.6474 266.657 34.6487 266.398 34.6501 266.132C34.7 256.653 35.5657 247.265 36.7975 237.871C36.8217 237.686 36.8459 237.501 36.8708 237.31C37.2266 234.608 37.6538 231.921 38.1156 229.235C37.8141 229.334 37.5125 229.434 37.2018 229.536C31.5199 231.387 26.3357 231.99 20.7978 229.326C17.9419 227.856 16.0415 225.666 14.8908 222.666C13.5636 217.948 15.3129 212.945 17.5625 208.815C19.4486 205.486 21.7009 202.525 24.2892 199.713C24.733 199.229 25.1604 198.736 25.5856 198.236C27.3449 196.219 29.2864 194.358 31.3279 192.63C31.5822 192.409 31.8363 192.187 32.0902 191.966C33.9652 190.336 35.8865 188.788 37.8732 187.296C37.7341 187.234 37.5951 187.172 37.4518 187.108C36.9958 186.902 36.5408 186.695 36.0863 186.486C35.4538 186.197 34.8201 185.915 34.1829 185.637C29.8065 183.69 25.9118 181.044 22.3584 177.842C22.1553 177.668 21.9522 177.494 21.7429 177.315C20.5404 176.279 19.4845 175.19 18.4797 173.963C18.2831 173.73 18.0866 173.497 17.8841 173.257C15.2739 170.099 13.1706 166.526 11.4496 162.812C10.1678 162.915 9.04278 163.186 7.81327 163.57C6.45275 163.968 5.54338 164.179 4.17699 163.782C3.22195 163.2 2.76384 162.684 2.48006 161.6C2.35995 160.659 2.43964 160.225 2.87399 159.373C4.03919 157.993 5.60416 157.761 7.29813 157.433C7.51125 157.391 7.72437 157.348 7.94395 157.303C8.4657 157.198 8.98774 157.095 9.5102 156.994C9.47603 156.842 9.44185 156.689 9.40663 156.532C8.79332 153.786 8.18781 151.057 7.81327 148.267C7.54931 148.277 7.54931 148.277 7.28002 148.286C6.47805 148.312 5.67616 148.327 4.87394 148.343C4.59708 148.353 4.32021 148.363 4.03495 148.374C1.73097 148.407 1.73097 148.407 0.845625 147.687C0.122366 146.852 0.0184303 146.469 0.0104164 145.388C0.0052603 145.074 0.0052603 145.074 0 144.754C0.0821608 143.86 0.335934 143.355 1.01039 142.767C2.56245 142.102 4.29847 142.196 5.96388 142.202C6.34939 142.203 6.34939 142.203 6.74269 142.204C6.93598 142.205 7.12928 142.206 7.32843 142.207C7.32463 142.007 7.32082 141.807 7.31689 141.601C7.17174 132.793 8.41206 124.191 12.067 116.077C12.1686 115.852 12.2702 115.626 12.3749 115.393C12.5689 114.972 12.7687 114.553 12.9754 114.137C13.7042 112.578 13.6754 111.402 13.3889 109.722C13.3562 109.516 13.3236 109.309 13.2899 109.096C13.2195 108.665 13.1467 108.234 13.0719 107.803C11.3041 97.454 10.598 86.4658 11.9344 76.0262C11.9591 75.8235 11.9838 75.6207 12.0092 75.4119C12.564 70.9922 13.4889 65.521 17.0252 62.4508C23.3646 58.4389 32.3875 63.72 38.1156 66.5719ZM20.9039 68.1324C19.8133 69.5297 19.351 70.9128 18.9342 72.6172C18.8958 72.7715 18.8573 72.9257 18.8177 73.0847C17.8526 77.3148 17.9069 81.607 17.9191 85.9199C17.9196 86.2459 17.92 86.5718 17.9204 86.8977C17.9337 93.8596 18.3526 100.648 19.54 107.51C20.0323 110.447 20.4308 113.132 18.9797 115.828C15.1038 123.737 12.955 133.375 13.3889 142.207C13.8937 142.711 14.9909 142.516 15.6919 142.54C17.314 142.612 18.9076 142.743 20.51 143.01C20.7624 143.048 20.7624 143.048 21.0199 143.087C22.1059 143.282 22.8018 143.592 23.5705 144.388C23.9236 145.269 23.9422 146.169 23.651 147.072C23.3036 147.75 22.9758 148.198 22.2969 148.553C19.8984 149.269 16.8418 148.69 14.3586 148.509C14.2794 149.994 14.5717 151.275 14.9495 152.706C15.0053 152.926 15.061 153.145 15.1185 153.372C15.3888 154.483 15.3888 154.483 15.8131 155.54C16.2323 155.505 16.6515 155.47 17.0706 155.434C17.3041 155.414 17.5375 155.394 17.778 155.374C18.4631 155.312 18.4631 155.312 19.0592 155.17C19.8868 155.019 20.6843 155.013 21.5251 155.009C21.8404 155.006 22.1557 155.002 22.4806 154.999C23.6787 155.078 23.6787 155.078 24.2978 155.54C24.7419 156.211 24.8651 156.787 24.8886 157.585C24.9032 157.855 24.9032 157.855 24.918 158.129C24.7115 158.986 24.3027 159.453 23.5705 159.903C22.6318 160.219 21.6794 160.404 20.7069 160.585C20.4465 160.637 20.186 160.69 19.9176 160.744C19.2774 160.872 18.6367 160.995 17.9949 161.115C19.0146 164.44 20.868 167.201 23.0857 169.842C23.2487 170.037 23.2487 170.037 23.415 170.235C29.0728 176.881 37.0075 180.792 45.2245 183.309C48.968 184.463 48.968 184.463 49.7517 185.842C49.9053 187.07 49.7581 187.763 49.0245 188.751C48.4364 189.075 48.4364 189.075 47.7366 189.327C43.2939 191.064 39.5139 193.612 36.0598 196.901C35.5657 197.368 35.0642 197.813 34.5494 198.255C31.7188 200.721 28.9723 203.437 26.7219 206.448C26.5045 206.731 26.287 207.014 26.0695 207.297C23.3618 210.863 20.2163 215.318 20.6615 220.023C20.9364 221.579 21.7593 222.483 22.954 223.475C25.496 225.236 28.6197 225.479 31.6025 224.957C33.4183 224.588 35.1387 224.036 36.8429 223.311C37.0018 223.244 37.1607 223.177 37.3243 223.108C38.457 222.596 39.4904 221.982 40.0018 220.796C40.1598 220.277 40.289 219.757 40.4101 219.228C40.4824 218.936 40.4824 218.936 40.5561 218.638C40.6583 218.223 40.7585 217.808 40.857 217.393C41.0103 216.747 41.1687 216.102 41.3287 215.458C41.5384 214.613 41.7466 213.769 41.9537 212.924C42.2991 211.522 42.6653 210.126 43.0549 208.735C43.1327 208.445 43.1327 208.445 43.212 208.148C43.5941 206.8 44.1075 205.672 45.2367 204.781C46.0189 204.446 46.4832 204.388 47.3275 204.508C48.0633 204.904 48.6084 205.249 49.1154 205.917C49.6029 207.624 49.031 209.282 48.5927 210.939C48.4479 211.502 48.3032 212.065 48.1585 212.627C48.0822 212.922 48.0059 213.216 47.9272 213.519C44.5672 226.516 42.2986 239.601 41.2671 252.992C41.2526 253.176 41.2382 253.361 41.2233 253.551C40.8972 257.755 40.7326 261.958 40.6973 266.175C40.6934 266.613 40.688 267.051 40.6811 267.49C40.5634 270.991 40.5634 270.991 42.1207 274.024C44.8334 276.762 49.5199 277.007 53.1433 277.038C59.3413 277.102 59.3413 277.102 64.6264 274.328C67.0593 271.344 67.2991 266.898 67.6388 263.209C67.7828 261.833 67.9316 260.837 68.9028 259.78C70.1039 258.938 71.0975 258.989 72.4936 259.113C72.6769 259.126 72.8602 259.139 73.049 259.152C73.7676 259.205 74.4837 259.267 75.1994 259.351C79.8761 259.896 84.6068 259.837 89.3088 259.84C89.6662 259.84 90.0237 259.841 90.3811 259.841C95.9075 259.85 101.387 259.71 106.887 259.119C108.409 258.993 109.536 258.909 110.841 259.78C112.28 261.539 112.394 263.542 112.629 265.719C113.22 270.758 113.22 270.758 115.826 274.991C119.554 277.809 126.155 277.339 130.522 276.78C133.321 276.369 136.214 275.828 138.174 273.613C139.368 271.987 139.491 270.308 139.481 268.334C139.48 268.147 139.48 267.961 139.479 267.768C139.455 264.971 139.296 262.178 139.144 259.386C139.128 259.088 139.111 258.789 139.095 258.482C138.362 245.138 136.674 231.875 133.423 218.898C133.382 218.734 133.341 218.57 133.299 218.401C132.885 216.751 132.466 215.103 132.038 213.457C131.916 212.99 131.796 212.522 131.676 212.054C131.527 211.478 131.377 210.903 131.224 210.328C130.862 208.916 130.592 207.664 130.72 206.205C131.245 205.341 131.729 204.884 132.659 204.508C133.188 204.471 133.188 204.471 133.735 204.523C133.914 204.536 134.094 204.549 134.279 204.562C135.114 204.842 135.483 205.293 136.053 205.963C136.35 206.61 136.531 207.274 136.712 207.962C136.766 208.156 136.82 208.35 136.876 208.549C137.05 209.176 137.218 209.804 137.386 210.432C137.505 210.863 137.623 211.293 137.742 211.723C138.421 214.198 139.07 216.679 139.53 219.206C139.792 220.534 140.159 221.257 141.144 222.205C144.842 224.568 149.325 225.711 153.658 224.841C155.954 224.247 157.552 223.319 158.826 221.295C159.738 219.36 159.327 217.523 158.692 215.578C156.82 210.644 153.642 206.671 150.113 202.811C149.906 202.579 149.699 202.346 149.485 202.107C147.93 200.369 146.289 198.774 144.537 197.236C144.416 197.127 144.294 197.019 144.169 196.907C140.655 193.79 136.878 190.957 132.386 189.448C131.62 189.178 131.192 188.983 130.553 188.463C130.113 187.521 129.955 186.614 130.235 185.6C131.079 184.542 131.824 184.18 133.114 183.827C133.461 183.726 133.808 183.624 134.154 183.522C134.342 183.467 134.529 183.412 134.723 183.356C142.468 181.035 149.03 177.534 154.961 172.024C155.126 171.876 155.29 171.727 155.46 171.574C158.385 168.82 160.819 164.943 161.992 161.115C161.822 161.085 161.652 161.054 161.477 161.023C160.703 160.882 159.931 160.734 159.158 160.585C158.891 160.537 158.624 160.49 158.348 160.441C155.809 159.942 155.809 159.942 154.961 158.691C154.755 157.943 154.809 157.267 154.961 156.509C155.396 155.813 155.685 155.42 156.416 155.055C158.974 154.839 161.429 155.31 163.931 155.782C164.435 154.491 164.856 153.217 165.189 151.873C165.232 151.709 165.274 151.545 165.319 151.376C165.563 150.4 165.673 149.515 165.628 148.509C165.387 148.527 165.147 148.544 164.899 148.562C163.234 148.679 161.569 148.777 159.901 148.812C159.638 148.819 159.375 148.825 159.103 148.831C158.22 148.738 157.653 148.491 156.901 148.025C156.356 147.111 156.174 146.512 156.174 145.449C156.47 144.449 156.809 144.056 157.628 143.419C158.698 142.989 159.668 142.849 160.816 142.78C160.975 142.77 161.134 142.76 161.298 142.75C161.802 142.718 162.306 142.69 162.81 142.661C163.154 142.64 163.497 142.619 163.841 142.598C164.679 142.546 165.517 142.497 166.355 142.449C166.443 138.343 166.384 134.372 165.628 130.328C165.589 130.117 165.55 129.905 165.51 129.687C164.546 124.65 162.955 119.667 160.717 115.049C159.569 112.573 160.124 110.219 160.529 107.605C161.63 100.398 162.054 93.1773 162.067 85.8896C162.068 85.6503 162.069 85.411 162.07 85.1644C162.078 80.9542 161.981 76.6594 160.946 72.5566C160.901 72.353 160.855 72.1494 160.808 71.9397C160.407 70.283 159.811 68.7547 158.355 67.784C157.017 67.6967 155.868 67.8456 154.583 68.2385C154.408 68.2913 154.234 68.3441 154.054 68.3985C144.209 71.5227 134.684 77.5955 126.311 83.5278C124.69 84.6477 123.231 85.1693 121.265 84.9957C120.519 84.7457 120.519 84.7457 119.75 84.3897C115.094 82.3804 109.992 81.3074 105.023 80.3897C104.829 80.3526 104.635 80.3155 104.435 80.2773C89.9316 77.5408 74.1655 79.1796 60.3837 84.3434C58.7794 84.94 57.4783 85.3278 55.8274 84.6624C53.4789 83.5321 51.3133 81.9854 49.1305 80.5716C45.4776 78.2109 41.753 75.9566 37.9247 73.8916C37.5587 73.6939 37.1932 73.4952 36.8284 73.2954C29.1399 68.7261 29.1399 68.7261 20.9039 68.1324Z" fill="black"/>
<path d="M89.7811 199.296C90.0651 199.298 90.3491 199.299 90.6416 199.301C96.0981 199.415 100.508 201.355 104.296 205.236C104.49 205.427 104.684 205.619 104.884 205.817C110.66 211.822 112.432 220.927 112.398 228.968C112.302 233.551 111.009 237.361 107.69 240.629C107.535 240.783 107.38 240.937 107.221 241.096C101.636 246.322 93.6092 246.245 86.4527 246.013C81.6738 245.813 77.0949 244.523 73.2663 241.598C73.0848 241.461 72.9032 241.324 72.7162 241.183C69.5692 238.625 67.9313 234.667 67.4889 230.708C67.3583 229.091 67.417 227.461 67.4483 225.841C67.4523 225.581 67.4564 225.321 67.4606 225.053C67.7944 217.881 70.5662 210.904 75.2057 205.478C75.3497 205.309 75.4938 205.14 75.6422 204.966C79.2668 201.053 84.555 199.266 89.7811 199.296Z" fill="#F2D3A3"/>
<path d="M106.337 200.064C106.543 200.251 106.75 200.437 106.963 200.63C107.167 200.814 107.371 200.998 107.581 201.187C111.385 204.803 113.805 209.516 115.447 214.447C115.536 214.706 115.625 214.965 115.717 215.231C117.706 221.53 118.284 228.859 116.659 235.295C116.62 235.453 116.581 235.611 116.541 235.773C115.283 240.618 111.987 244.658 107.712 247.208C102.194 250.295 96.3695 251.109 90.1447 251.113C89.8378 251.113 89.8378 251.113 89.5247 251.114C86.4022 251.11 83.3541 251.02 80.2964 250.325C80.1174 250.285 79.9383 250.245 79.7538 250.203C74.0854 248.863 68.6619 245.719 65.5341 240.714C61.6471 234.247 61.6905 225.397 63.4151 218.214C63.4661 218.011 63.517 217.808 63.5695 217.599C63.6202 217.393 63.6709 217.187 63.7231 216.975C65.1613 211.316 67.6976 206.224 71.5694 201.842C71.7916 201.589 71.7916 201.589 72.0182 201.331C80.7669 192.005 96.8453 191.907 106.337 200.064ZM74.3354 206.447C69.9916 211.861 67.7022 218.946 67.4482 225.841C67.4416 226.006 67.435 226.17 67.4282 226.34C67.2622 231.027 67.9579 235.326 70.8421 239.174C70.993 239.389 70.993 239.389 71.147 239.609C74.2966 243.73 79.9488 245.177 84.8155 245.893C86.5234 246.098 88.2456 246.07 89.9629 246.053C90.2653 246.051 90.2653 246.051 90.5738 246.05C97.217 246.009 103.27 245.04 108.175 240.144C108.41 239.912 108.41 239.912 108.651 239.676C112.157 235.978 112.486 231.128 112.372 226.306C112.074 218.482 109.576 210.679 104.053 204.993C103.915 204.839 103.776 204.686 103.633 204.527C100.596 201.259 95.9631 199.525 91.5765 199.324C84.5443 199.145 79.0564 201.067 74.3354 206.447Z" fill="black"/>
<path d="M144.492 141.525C147.086 143.3 148.661 145.704 149.386 148.752C149.791 152.544 148.979 155.427 146.602 158.416C144.665 160.573 141.927 161.701 139.092 161.902C135.65 162.017 132.844 161.026 130.236 158.754C127.964 156.392 127.008 153.44 127.047 150.227C127.197 147.119 128.415 144.554 130.72 142.449C134.949 139.274 139.88 138.797 144.492 141.525Z" fill="#F4A99C"/>
<path d="M47.0851 140.994C47.272 141.088 47.4589 141.181 47.6514 141.277C50.0658 142.636 51.8116 145.237 52.6305 147.843C53.3278 150.807 53.0413 153.779 51.5595 156.458C49.9622 158.878 47.6793 160.7 44.9034 161.6C41.8062 162.204 38.7165 162.045 35.9405 160.462C33.4117 158.743 31.5031 156.381 30.8431 153.358C30.529 149.204 31.0216 146.381 33.7066 143.129C37.1674 139.336 42.6482 138.782 47.0851 140.994Z" fill="#F4A99C"/>
<path d="M28.2967 76.154C29.9045 76.3708 31.3328 77.0285 32.7824 77.7231C32.9322 77.7944 33.082 77.8658 33.2363 77.9393C37.1455 79.8383 40.5854 82.485 43.9966 85.1508C44.3668 85.4401 44.7395 85.7261 45.1127 86.0117C45.798 86.5918 46.0918 86.9905 46.2054 87.8886C46.0927 88.82 45.8725 89.0212 45.161 89.6167C44.94 89.803 44.7191 89.9892 44.4915 90.1811C43.3953 91.0575 42.2752 91.9036 41.1548 92.7486C39.704 93.8472 38.3223 95.0094 36.9509 96.2047C36.2622 96.8044 35.5561 97.3792 34.843 97.9499C33.7849 98.807 32.7891 99.7148 31.7976 100.647C29.7583 102.551 29.7583 102.551 28.7825 103.389C28.605 103.544 28.4275 103.698 28.2447 103.857C27.6916 104.147 27.6916 104.147 26.9294 104.121C26.2371 103.904 26.2371 103.904 25.7068 103.132C23.8968 98.8806 23.9723 93.7031 23.9922 89.17C23.9948 88.4633 23.9922 87.7567 23.9891 87.05C23.9826 78.9863 23.9826 78.9863 25.8252 76.5848C26.5779 76.0069 27.3815 76.1286 28.2967 76.154Z" fill="#F4A99C"/>
<path d="M153.507 76.2685C155.305 77.6921 155.542 80.229 155.794 82.3858C156.414 88.9403 156.815 97.5963 153.992 103.662C153.228 104.044 152.625 104.128 151.81 103.904C151.057 103.378 150.42 102.745 149.768 102.099C149.012 101.354 148.235 100.631 147.462 99.9044C147.294 99.7463 147.126 99.5883 146.954 99.4255C145.63 98.1847 144.262 97.0316 142.841 95.9045C142.411 95.5515 141.982 95.1979 141.553 94.8439C140.537 94.0125 139.51 93.1983 138.477 92.3894C138.191 92.1637 137.904 91.938 137.618 91.7123C137.077 91.2861 136.531 90.8671 135.98 90.4529C135.619 90.174 135.619 90.174 135.25 89.8894C135.036 89.7279 134.822 89.5663 134.601 89.3999C133.987 88.7376 133.894 88.3155 133.871 87.4198C135.015 85.6698 136.809 84.5173 138.477 83.2987C138.633 83.1832 138.789 83.0677 138.95 82.9488C149.421 75.2291 149.421 75.2291 153.507 76.2685Z" fill="#F4A99C"/>
<path d="M90.0538 137.767C90.2929 137.76 90.5319 137.753 90.7782 137.746C92.4589 137.732 93.8423 137.996 95.3264 138.813C96.1773 139.664 96.4965 140.323 96.6143 141.525C96.4657 143.337 95.5769 144.5 94.2961 145.737C93.8719 146.085 93.8719 146.085 93.1598 146.403C92.6143 146.761 92.6143 146.761 92.5604 147.317C92.4883 149.356 93.0329 151.299 94.3567 152.873C95.9395 154.142 97.5229 154.648 99.5384 154.555C102.03 154.245 103.494 153.104 105.069 151.203C105.664 150.509 105.874 150.46 106.796 150.373C107.829 150.461 108.179 150.696 108.902 151.418C109.323 152.26 109.256 153.164 109.144 154.085C107.891 156.499 105.433 158.301 102.929 159.242C100.159 160.095 96.9791 160.004 94.335 158.827C92.7905 157.998 91.4531 157.044 90.2356 155.782C89.5344 156.102 89.151 156.374 88.569 156.918C85.8507 159.317 82.6626 159.885 79.1594 159.715C75.856 159.397 73.5435 157.442 71.4557 155.035C70.7765 154.184 70.7481 153.515 70.755 152.452C70.8932 151.582 71.376 151.208 72.0542 150.691C72.7579 150.339 73.2112 150.358 73.9936 150.449C74.8733 151.054 75.4834 151.695 76.145 152.524C77.2266 153.785 78.1287 154.253 79.7974 154.428C81.8314 154.528 83.7548 154.483 85.3872 153.115C86.7717 151.51 87.5009 149.822 87.4667 147.696C87.2961 146.915 87.0917 146.723 86.4478 146.267C86.2716 146.159 86.0953 146.05 85.9137 145.938C84.7741 145.207 83.7575 144.023 83.4479 142.691C83.3167 141.474 83.3123 140.554 83.8418 139.434C85.5018 137.643 87.783 137.789 90.0538 137.767Z" fill="black"/>
<path d="M49.1427 129.014C49.2999 129.008 49.2999 129.008 49.4604 129.003C50.1142 129.094 50.518 129.55 50.9613 130.051C51.0586 130.159 51.1559 130.268 51.2562 130.379C51.4513 130.601 51.6456 130.823 51.8395 131.045C54.0996 133.39 57.1716 134.035 60.1874 133.956C62.983 133.833 65.7714 132.641 67.6753 130.384C67.8044 130.228 67.9323 130.069 68.0587 129.91C68.472 129.392 68.7442 129.092 69.3716 129.002C70.1272 128.99 70.7188 129.014 71.2928 129.592C71.7287 130.118 71.955 130.631 72 131.343C71.9223 132.771 70.8419 133.972 69.9249 134.896C68.1365 136.576 66.0822 137.591 63.8317 138.296C63.7005 138.339 63.7005 138.339 63.5666 138.383C59.6254 139.644 55.0573 138.9 51.4738 136.809C49.9266 135.866 47.609 134.106 47.0442 132.176C46.937 131.2 46.9964 130.517 47.5416 129.728C48.0562 129.206 48.4469 129.027 49.1427 129.014Z" fill="black"/>
<path d="M110.187 130.014C110.303 130.009 110.418 130.005 110.537 130C111.326 130.115 111.796 130.686 112.29 131.263C114.037 133.225 116.711 134.271 119.309 134.495C122.364 134.654 125.592 134.121 127.952 132.035C128.345 131.661 128.713 131.275 129.065 130.862C129.438 130.428 129.729 130.104 130.321 130.014C131.03 129.975 131.608 130.106 132.173 130.546C132.628 131.039 132.884 131.48 133 132.143C132.883 133.429 131.909 134.495 130.969 135.295C127.344 138.251 122.808 139.361 118.176 138.899C117.468 138.797 116.781 138.638 116.093 138.444C115.969 138.411 115.969 138.411 115.843 138.376C112.994 137.584 110.048 135.863 108.377 133.377C108.065 132.819 107.911 132.291 108.054 131.657C108.476 130.712 109.122 130.042 110.187 130.014Z" fill="black"/>
<path d="M128.467 85.0036C128.602 85.0023 128.602 85.0023 128.741 85.001C128.84 85.0008 128.938 85.0007 129.04 85.0005C129.146 84.9998 129.251 84.999 129.356 84.9982C129.643 84.9963 129.929 84.9953 130.215 84.9946C130.394 84.9942 130.572 84.9936 130.751 84.9929C131.311 84.9909 131.872 84.9894 132.432 84.9888C133.077 84.9882 133.723 84.9855 134.369 84.9812C134.869 84.978 135.368 84.9764 135.868 84.9762C136.166 84.9761 136.464 84.9752 136.763 84.9725C137.043 84.9701 137.324 84.9697 137.605 84.9711C137.756 84.9712 137.908 84.9692 138.059 84.967C138.577 84.9718 138.909 85.0101 139.303 85.3599C139.901 85.9748 139.975 86.4983 139.979 87.3299C139.98 87.422 139.981 87.5141 139.982 87.609C139.984 87.8034 139.984 87.9979 139.985 88.1924C139.986 88.4881 139.991 88.7836 139.996 89.0793C139.997 89.2688 139.998 89.4584 139.998 89.648C140 89.7355 140.002 89.823 140.004 89.9132C139.999 90.5637 139.811 90.9584 139.414 91.4685C139.362 91.5367 139.362 91.5367 139.308 91.6062C139.216 91.7206 139.118 91.8312 139.021 91.9415C138.949 92.024 138.878 92.1066 138.807 92.1894C138.771 92.231 138.735 92.2726 138.698 92.3155C138.484 92.5676 138.283 92.8289 138.08 93.0894C137.867 93.363 137.652 93.6344 137.434 93.9043C136.78 94.7158 136.155 95.549 135.546 96.3951C135.515 96.438 135.484 96.4808 135.452 96.525C135.305 96.7314 135.179 96.935 135.069 97.1631C135.135 97.1608 135.202 97.1585 135.271 97.1562C135.867 97.1362 136.463 97.1178 137.06 97.1017C137.384 97.0929 137.708 97.0821 138.032 97.07C138.168 97.0665 138.304 97.0632 138.44 97.0601C138.5 97.0572 138.56 97.0544 138.621 97.0514C139.084 97.0447 139.412 97.1986 139.789 97.4628C140.11 97.7915 140.257 98.1234 140.259 98.5821C140.26 98.6537 140.261 98.7252 140.261 98.7989C140.261 98.9137 140.261 98.9137 140.261 99.0307C140.262 99.1103 140.262 99.1898 140.262 99.2718C140.263 99.4399 140.263 99.608 140.262 99.776C140.262 100.032 140.264 100.288 140.266 100.544C140.266 100.708 140.266 100.871 140.266 101.035C140.267 101.111 140.267 101.187 140.268 101.265C140.265 101.771 140.224 102.231 139.888 102.635C139.844 102.668 139.801 102.701 139.756 102.736C139.713 102.77 139.67 102.805 139.625 102.841C139.322 103.045 139.112 103.101 138.742 103.102C138.605 103.103 138.605 103.103 138.465 103.104C138.364 103.104 138.262 103.104 138.161 103.104C138.054 103.105 137.947 103.105 137.84 103.106C137.55 103.107 137.26 103.107 136.97 103.108C136.789 103.108 136.607 103.108 136.426 103.108C135.793 103.11 135.159 103.11 134.526 103.11C133.937 103.11 133.347 103.112 132.757 103.114C132.251 103.116 131.744 103.117 131.237 103.117C130.935 103.117 130.633 103.117 130.33 103.119C130.046 103.12 129.761 103.12 129.476 103.119C129.372 103.119 129.268 103.119 129.164 103.12C128.511 103.126 127.991 103.113 127.499 102.636C127.449 102.562 127.449 102.562 127.398 102.488C127.363 102.439 127.329 102.391 127.293 102.34C127.12 102.044 127.033 101.787 127.027 101.443C127.025 101.337 127.025 101.337 127.023 101.229C127.022 101.154 127.021 101.078 127.021 101.001C127.02 100.882 127.02 100.882 127.018 100.762C127.017 100.595 127.016 100.428 127.015 100.261C127.014 100.008 127.009 99.7557 127.004 99.503C126.989 97.9343 126.989 97.9343 127.501 97.238C127.544 97.1756 127.587 97.1132 127.631 97.0489C127.766 96.859 127.908 96.6761 128.053 96.4934C128.16 96.3564 128.266 96.2195 128.373 96.0825C128.427 96.0134 128.481 95.9442 128.537 95.873C128.798 95.5385 129.056 95.2013 129.313 94.8637C129.363 94.7986 129.413 94.7335 129.464 94.6664C129.826 94.1916 130.176 93.7093 130.522 93.2234C130.832 92.7913 131.159 92.3744 131.495 91.9625C131.69 91.7282 131.69 91.7282 131.847 91.4685C131.805 91.4684 131.764 91.4683 131.721 91.4682C131.286 91.4667 130.85 91.4626 130.415 91.4571C130.253 91.4553 130.091 91.4543 129.929 91.4538C129.695 91.4531 129.461 91.4501 129.227 91.4466C129.156 91.4468 129.084 91.4471 129.01 91.4474C128.438 91.4352 127.913 91.2907 127.505 90.8677C127.055 90.311 127.027 89.7685 127.026 89.0758C127.026 88.9895 127.025 88.9032 127.025 88.8144C127.024 88.6323 127.023 88.4502 127.023 88.2681C127.023 87.9902 127.02 87.7124 127.018 87.4345C127.017 87.2573 127.017 87.0801 127.017 86.9028C127.016 86.8201 127.015 86.7373 127.013 86.6521C127.016 86.1667 127.061 85.8684 127.351 85.4742C127.709 85.143 127.979 85.0064 128.467 85.0036Z" fill="black"/>
<path d="M137.916 87.1227C138.101 89.8482 138.101 89.8482 137.49 90.5506C137.358 90.6925 137.222 90.8274 137.081 90.9595C136.841 91.1914 136.642 91.4555 136.436 91.7167C136.355 91.8165 136.273 91.9161 136.192 92.0156C135.88 92.3987 135.587 92.7947 135.293 93.1919C134.666 94.033 134.037 94.8727 133.384 95.6935C132.354 96.8916 132.354 96.8916 131.997 98.362C132.083 98.6982 132.237 98.8424 132.521 99.0363C132.784 99.124 132.996 99.1233 133.273 99.1266C133.327 99.1274 133.38 99.1281 133.435 99.1289C133.612 99.1312 133.788 99.1331 133.964 99.135C134.087 99.1365 134.209 99.1381 134.331 99.1397C134.653 99.1438 134.975 99.1475 135.297 99.1511C135.625 99.1549 135.954 99.1591 136.282 99.1632C136.927 99.1713 137.571 99.1788 138.216 99.1862C138.216 99.7796 138.216 100.373 138.216 100.984C135.174 100.984 132.133 100.984 128.999 100.984C128.999 98.2515 128.999 98.2515 129.76 97.4499C129.809 97.4023 129.858 97.3546 129.908 97.3055C130.128 97.0821 130.306 96.8319 130.489 96.5777C130.562 96.4792 130.635 96.3809 130.709 96.2827C130.747 96.2318 130.785 96.1809 130.824 96.1284C131.06 95.8147 131.299 95.5034 131.538 95.1915C131.971 94.6249 132.397 94.0542 132.819 93.4791C133.103 93.0925 133.389 92.7084 133.678 92.3255C134.505 91.3714 134.505 91.3714 134.844 90.2322C134.789 89.8724 134.656 89.6944 134.394 89.4455C134.143 89.3616 133.948 89.3586 133.683 89.3551C133.634 89.3544 133.585 89.3537 133.535 89.3529C133.373 89.3505 133.211 89.3487 133.049 89.3468C132.937 89.3453 132.825 89.3437 132.713 89.3421C132.417 89.338 132.122 89.3343 131.827 89.3306C131.525 89.3269 131.224 89.3227 130.923 89.3186C130.332 89.3105 129.74 89.303 129.149 89.2956C129.149 88.6033 129.149 87.9109 129.149 87.1976C129.838 87.1846 130.526 87.172 131.214 87.1601C131.266 87.1592 131.318 87.1583 131.371 87.1574C133.553 87.1201 135.734 87.1139 137.916 87.1227Z" fill="#AADCE7"/>
<path d="M144.496 79.1801C144.675 79.1784 144.675 79.1784 144.857 79.1766C144.987 79.1764 145.118 79.1762 145.252 79.176C145.391 79.1751 145.53 79.1741 145.669 79.173C146.047 79.1704 146.424 79.1691 146.802 79.1683C147.038 79.1677 147.274 79.1669 147.51 79.166C148.249 79.1633 148.988 79.1614 149.727 79.1606C150.579 79.1597 151.431 79.1562 152.283 79.1505C152.942 79.1462 153.601 79.1442 154.261 79.144C154.654 79.1438 155.048 79.1426 155.441 79.1391C155.811 79.1358 156.182 79.1354 156.552 79.1371C156.752 79.1373 156.952 79.1346 157.151 79.1318C157.834 79.1381 158.273 79.1886 158.793 79.6502C159.581 80.4615 159.679 81.1522 159.685 82.2493C159.686 82.3708 159.688 82.4923 159.689 82.6175C159.691 82.8741 159.692 83.1307 159.692 83.3873C159.694 83.7775 159.7 84.1673 159.707 84.5574C159.708 84.8075 159.709 85.0576 159.71 85.3078C159.712 85.4232 159.715 85.5387 159.718 85.6577C159.711 86.516 159.463 87.0368 158.94 87.7097C158.87 87.7997 158.87 87.7997 158.8 87.8914C158.677 88.0423 158.549 88.1882 158.421 88.3338C158.326 88.4426 158.232 88.5517 158.138 88.6609C158.09 88.7158 158.043 88.7707 157.994 88.8273C157.713 89.1598 157.447 89.5046 157.18 89.8483C156.898 90.2093 156.614 90.5674 156.327 90.9235C155.463 91.9942 154.64 93.0934 153.836 94.2097C153.795 94.2663 153.754 94.3229 153.712 94.3812C153.518 94.6535 153.351 94.9221 153.206 95.223C153.294 95.22 153.382 95.217 153.472 95.214C154.259 95.1876 155.046 95.1632 155.833 95.142C156.261 95.1304 156.688 95.1161 157.116 95.1002C157.295 95.0957 157.475 95.0913 157.655 95.0871C157.733 95.0833 157.812 95.0796 157.893 95.0757C158.504 95.0668 158.937 95.2699 159.434 95.6185C159.857 96.0521 160.051 96.49 160.054 97.0953C160.055 97.1897 160.056 97.2841 160.057 97.3813C160.057 97.5327 160.057 97.5327 160.057 97.6872C160.057 97.7921 160.058 97.8971 160.058 98.0052C160.059 98.227 160.059 98.4487 160.058 98.6705C160.058 99.0083 160.06 99.3461 160.063 99.6839C160.063 99.8998 160.063 100.116 160.063 100.332C160.064 100.432 160.065 100.532 160.066 100.636C160.062 101.302 160.008 101.909 159.564 102.442C159.507 102.486 159.45 102.53 159.391 102.576C159.334 102.621 159.277 102.667 159.218 102.714C158.818 102.984 158.54 103.058 158.053 103.059C157.872 103.061 157.872 103.061 157.687 103.062C157.553 103.062 157.42 103.062 157.286 103.062C157.145 103.062 157.004 103.063 156.863 103.064C156.48 103.065 156.097 103.066 155.715 103.066C155.475 103.066 155.236 103.067 154.997 103.067C154.161 103.069 153.326 103.07 152.49 103.07C151.712 103.069 150.934 103.072 150.157 103.075C149.488 103.077 148.82 103.078 148.151 103.078C147.752 103.078 147.353 103.079 146.954 103.081C146.579 103.083 146.203 103.083 145.828 103.081C145.69 103.081 145.553 103.082 145.416 103.083C144.554 103.09 143.867 103.073 143.219 102.443C143.153 102.347 143.153 102.347 143.085 102.248C143.04 102.184 142.994 102.12 142.947 102.054C142.719 101.663 142.604 101.323 142.596 100.87C142.593 100.731 142.593 100.731 142.59 100.588C142.59 100.488 142.589 100.389 142.588 100.286C142.586 100.13 142.586 100.13 142.584 99.9709C142.583 99.7508 142.581 99.5307 142.581 99.3106C142.579 98.977 142.572 98.6437 142.566 98.3103C142.545 96.2406 142.545 96.2406 143.221 95.3219C143.278 95.2396 143.334 95.1573 143.393 95.0724C143.572 94.8219 143.759 94.5806 143.95 94.3395C144.091 94.1588 144.231 93.978 144.372 93.7973C144.443 93.7061 144.514 93.6149 144.588 93.521C144.933 93.0796 145.273 92.6346 145.612 92.1893C145.678 92.1034 145.744 92.0175 145.811 91.929C146.288 91.3025 146.75 90.6662 147.207 90.0251C147.617 89.4551 148.047 88.905 148.491 88.3614C148.748 88.0524 148.748 88.0524 148.955 87.7097C148.9 87.7096 148.845 87.7094 148.789 87.7093C148.215 87.7073 147.641 87.702 147.066 87.6946C146.853 87.6924 146.639 87.6909 146.425 87.6904C146.116 87.6895 145.808 87.6854 145.499 87.6808C145.404 87.6812 145.31 87.6815 145.213 87.6819C144.457 87.6658 143.765 87.4752 143.226 86.917C142.633 86.1825 142.597 85.4668 142.595 84.5528C142.594 84.439 142.593 84.3252 142.593 84.2079C142.592 83.9677 142.591 83.7275 142.591 83.4872C142.591 83.1206 142.587 82.754 142.584 82.3874C142.583 82.1535 142.583 81.9197 142.582 81.6859C142.581 81.5767 142.58 81.4675 142.578 81.355C142.582 80.7146 142.641 80.3211 143.023 79.801C143.496 79.364 143.852 79.1837 144.496 79.1801Z" fill="black"/>
<path d="M156.963 81.9758C157.207 85.5718 157.207 85.5718 156.4 86.4987C156.226 86.6858 156.048 86.8638 155.861 87.0381C155.545 87.344 155.282 87.6924 155.01 88.0371C154.903 88.1687 154.795 88.3002 154.688 88.4314C154.277 88.937 153.889 89.4594 153.503 89.9834C152.675 91.0932 151.845 92.2011 150.983 93.284C149.625 94.8648 149.625 94.8648 149.153 96.8047C149.266 97.2483 149.47 97.4387 149.845 97.6945C150.192 97.8102 150.471 97.8092 150.837 97.8136C150.908 97.8146 150.978 97.8156 151.051 97.8166C151.284 97.8197 151.516 97.8222 151.749 97.8246C151.91 97.8266 152.072 97.8287 152.233 97.8308C152.658 97.8363 153.082 97.8412 153.507 97.8459C153.94 97.8509 154.374 97.8564 154.807 97.8619C155.657 97.8725 156.508 97.8825 157.358 97.8922C157.358 98.6751 157.358 99.4581 157.358 100.265C153.345 100.265 149.333 100.265 145.198 100.265C145.198 96.659 145.198 96.659 146.202 95.6014C146.266 95.5385 146.331 95.4756 146.397 95.4108C146.688 95.1161 146.922 94.7859 147.163 94.4506C147.26 94.3207 147.357 94.1909 147.454 94.0614C147.504 93.9942 147.554 93.9271 147.606 93.8579C147.917 93.444 148.233 93.0332 148.547 92.6217C149.118 91.8741 149.682 91.1211 150.238 90.3624C150.612 89.8523 150.99 89.3455 151.371 88.8404C152.462 87.5816 152.462 87.5816 152.909 86.0785C152.837 85.6037 152.661 85.369 152.316 85.0405C151.984 84.9299 151.728 84.9259 151.378 84.9213C151.313 84.9203 151.249 84.9194 151.182 84.9184C150.969 84.9152 150.755 84.9128 150.542 84.9103C150.394 84.9083 150.246 84.9062 150.098 84.9041C149.708 84.8987 149.318 84.8938 148.929 84.889C148.531 84.884 148.134 84.8785 147.736 84.8731C146.956 84.8624 146.176 84.8525 145.396 84.8428C145.396 83.9293 145.396 83.0158 145.396 82.0747C146.304 82.0576 147.213 82.0409 148.121 82.0253C148.189 82.0241 148.257 82.0229 148.327 82.0217C151.206 81.9725 154.084 81.9642 156.963 81.9758Z" fill="#AADCE7"/>
<path d="M165.24 72.0643C165.478 72.062 165.478 72.062 165.721 72.0597C165.895 72.0594 166.069 72.0592 166.249 72.0589C166.434 72.0576 166.619 72.0563 166.805 72.0549C167.308 72.0514 167.811 72.0497 168.315 72.0486C168.629 72.0478 168.944 72.0467 169.259 72.0455C170.244 72.0419 171.229 72.0394 172.215 72.0384C173.351 72.0372 174.487 72.0325 175.623 72.0249C176.502 72.0192 177.381 72.0165 178.26 72.0162C178.784 72.0159 179.309 72.0144 179.833 72.0097C180.327 72.0053 180.821 72.0047 181.315 72.0071C181.581 72.0074 181.848 72.0037 182.114 72C183.025 72.0083 183.609 72.0757 184.303 72.6911C185.354 73.7729 185.484 74.6938 185.492 76.1566C185.494 76.3186 185.495 76.4807 185.497 76.6476C185.5 76.9897 185.501 77.3318 185.502 77.6739C185.504 78.1942 185.512 78.714 185.522 79.2341C185.523 79.5676 185.524 79.9011 185.525 80.2346C185.529 80.3885 185.532 80.5425 185.536 80.7011C185.526 81.8455 185.196 82.5399 184.498 83.4372C184.406 83.5571 184.406 83.5571 184.311 83.6794C184.149 83.8807 183.978 84.0752 183.806 84.2693C183.68 84.4144 183.555 84.5598 183.429 84.7054C183.366 84.7786 183.303 84.8518 183.238 84.9272C182.862 85.3706 182.508 85.8304 182.151 86.2886C181.777 86.7699 181.398 87.2474 181.014 87.7222C179.863 89.1498 178.765 90.6154 177.694 92.1038C177.639 92.1793 177.585 92.2548 177.528 92.3325C177.269 92.6956 177.047 93.0537 176.853 93.4549C176.971 93.4509 177.088 93.4469 177.209 93.4428C178.258 93.4076 179.307 93.3752 180.356 93.3469C180.926 93.3315 181.496 93.3124 182.067 93.2912C182.306 93.2851 182.545 93.2792 182.785 93.2737C182.89 93.2687 182.995 93.2637 183.103 93.2585C183.918 93.2466 184.494 93.5174 185.158 93.9822C185.721 94.5604 185.98 95.1443 185.985 95.9513C185.986 96.0771 185.987 96.203 185.988 96.3327C185.988 96.5345 185.988 96.5345 185.988 96.7404C185.989 96.8804 185.989 97.0203 185.99 97.1645C185.991 97.4602 185.991 97.7559 185.99 98.0516C185.99 98.502 185.993 98.9523 185.996 99.4027C185.996 99.6906 185.996 99.9785 185.996 100.266C185.997 100.4 185.999 100.534 186 100.672C185.994 101.56 185.923 102.369 185.331 103.08C185.255 103.139 185.178 103.198 185.1 103.258C185.024 103.319 184.948 103.38 184.87 103.443C184.336 103.803 183.966 103.901 183.316 103.903C183.074 103.905 183.074 103.905 182.828 103.907C182.65 103.907 182.471 103.907 182.293 103.906C182.105 103.907 181.917 103.908 181.729 103.909C181.219 103.911 180.709 103.912 180.198 103.912C179.879 103.912 179.56 103.913 179.241 103.914C178.127 103.916 177.013 103.917 175.899 103.917C174.862 103.917 173.825 103.92 172.788 103.924C171.896 103.927 171.005 103.929 170.114 103.928C169.582 103.928 169.05 103.929 168.518 103.932C168.017 103.934 167.516 103.934 167.016 103.933C166.833 103.932 166.649 103.933 166.466 103.934C165.317 103.944 164.402 103.921 163.537 103.082C163.449 102.953 163.449 102.953 163.359 102.822C163.298 102.736 163.237 102.651 163.175 102.563C162.87 102.042 162.717 101.589 162.707 100.985C162.703 100.798 162.703 100.798 162.699 100.608C162.698 100.476 162.697 100.343 162.696 100.206C162.694 99.9977 162.694 99.9977 162.691 99.7854C162.689 99.4919 162.687 99.1985 162.686 98.905C162.684 98.4602 162.675 98.0159 162.667 97.5712C162.639 94.8117 162.639 94.8117 163.54 93.5867C163.616 93.477 163.691 93.3672 163.769 93.2541C164.008 92.9201 164.257 92.5983 164.512 92.2768C164.7 92.0359 164.887 91.7949 165.074 91.5539C165.169 91.4324 165.265 91.3108 165.363 91.1855C165.822 90.5971 166.276 90.0037 166.729 89.4099C166.816 89.2954 166.904 89.1809 166.994 89.0629C167.63 88.2275 168.246 87.3791 168.855 86.5244C169.401 85.7643 169.975 85.0308 170.567 84.3061C170.909 83.8941 170.909 83.8941 171.185 83.4372C171.112 83.437 171.039 83.4368 170.964 83.4366C170.198 83.434 169.433 83.4268 168.667 83.4171C168.382 83.414 168.097 83.4121 167.812 83.4114C167.4 83.4102 166.989 83.4048 166.577 83.3986C166.451 83.3991 166.325 83.3996 166.196 83.4001C165.188 83.3786 164.266 83.1244 163.547 82.3802C162.755 81.4009 162.708 80.4467 162.705 79.2279C162.704 79.0762 162.703 78.9244 162.702 78.7681C162.701 78.4478 162.701 78.1275 162.701 77.8072C162.7 77.3183 162.695 76.8296 162.69 76.3407C162.689 76.0289 162.689 75.7172 162.689 75.4054C162.687 75.2598 162.685 75.1143 162.683 74.9643C162.688 74.1104 162.766 73.5857 163.277 72.8922C163.907 72.3095 164.382 72.0692 165.24 72.0643Z" fill="black"/>
<path d="M181.862 75.7921C182.188 80.5867 182.188 80.5867 181.112 81.8225C180.88 82.072 180.642 82.3094 180.393 82.5417C179.972 82.9496 179.621 83.4142 179.259 83.8738C179.116 84.0493 178.973 84.2245 178.829 84.3995C178.281 85.0736 177.765 85.7702 177.249 86.4689C176.146 87.9486 175.039 89.4258 173.889 90.8697C172.079 92.9774 172.079 92.9774 171.449 95.5639C171.6 96.1554 171.872 96.4092 172.372 96.7502C172.835 96.9045 173.207 96.9032 173.695 96.9091C173.789 96.9104 173.883 96.9117 173.98 96.9131C174.29 96.9172 174.6 96.9205 174.911 96.9238C175.126 96.9265 175.341 96.9292 175.556 96.9321C176.122 96.9393 176.689 96.9459 177.255 96.9522C177.833 96.9588 178.41 96.9662 178.988 96.9734C180.122 96.9876 181.256 97.0009 182.389 97.0139C182.389 98.0578 182.389 99.1018 182.389 100.177C177.039 100.177 171.689 100.177 166.177 100.177C166.177 95.3696 166.177 95.3696 167.514 93.9595C167.6 93.8757 167.686 93.7918 167.775 93.7054C168.162 93.3124 168.475 92.8722 168.796 92.4252C168.925 92.2519 169.054 92.0789 169.183 91.9061C169.25 91.8166 169.317 91.7271 169.386 91.6348C169.801 91.0829 170.222 90.5352 170.642 89.9866C171.403 88.9898 172.154 87.9858 172.896 86.9741C173.395 86.294 173.899 85.6183 174.407 84.9448C175.861 83.2664 175.861 83.2664 176.458 81.2623C176.362 80.6293 176.127 80.3163 175.667 79.8783C175.225 79.7308 174.882 79.7255 174.416 79.7194C174.33 79.7181 174.244 79.7168 174.155 79.7154C173.87 79.7113 173.586 79.708 173.301 79.7048C173.104 79.702 172.906 79.6993 172.709 79.6965C172.189 79.6892 171.67 79.6827 171.15 79.6763C170.62 79.6697 170.09 79.6623 169.56 79.6551C168.52 79.6409 167.48 79.6276 166.44 79.6146C166.44 78.3967 166.44 77.1788 166.44 75.9239C167.651 75.9011 168.862 75.8789 170.073 75.858C170.164 75.8564 170.255 75.8549 170.349 75.8533C174.187 75.7876 178.023 75.7766 181.862 75.7921Z" fill="#AADCE7"/>
<path d="M99.0219 0.00991954C99.1397 0.00672285 99.2574 0.00352616 99.3788 0.000232596C100.505 -0.0086633 101.5 0.235897 102.332 1.03028C103.016 1.84834 103.318 2.87458 103.326 3.92775C103.327 4.03867 103.327 4.03867 103.328 4.15182C103.329 4.39001 103.328 4.62812 103.327 4.86631C103.327 4.94811 103.327 5.02991 103.326 5.11419C103.32 6.39298 103.239 7.61147 102.962 8.86164C102.926 9.03245 102.926 9.03245 102.889 9.20671C102.662 10.2699 102.434 11.3338 102.16 12.386C101.672 14.2708 101.843 15.9933 102.397 17.8442C102.431 17.956 102.464 18.0677 102.498 18.1828C102.614 18.5666 102.732 18.9495 102.852 19.3322C102.884 19.4365 102.884 19.4365 102.918 19.543C103.755 22.2189 104.75 24.8238 105.786 27.4285C106.383 28.9327 106.961 30.4445 107.538 31.9563C107.727 32.448 107.917 32.9387 108.11 33.4286C109.616 37.2828 110.896 41.235 112.105 45.1915C112.219 45.5604 112.338 45.9274 112.46 46.2942C113.462 49.3291 114.314 52.4159 115.069 55.5213C115.172 55.9436 115.287 56.361 115.41 56.778C115.631 57.53 115.815 58.2901 116.002 59.0512C116.306 60.2841 116.642 61.5034 117.006 62.7198C117.185 63.3173 117.349 63.9183 117.511 64.5207C117.666 64.555 117.666 64.555 117.824 64.59C123.019 65.763 129.487 67.6741 132.583 72.4011C132.704 72.6019 132.824 72.8039 132.941 73.0073C132.992 73.0956 133.043 73.1838 133.095 73.2747C133.94 74.8436 134.235 76.712 133.802 78.4583C133.254 80.1716 132.429 81.5127 131.177 82.8165C131.081 82.9208 130.985 83.0251 130.886 83.1326C126.91 87.3676 120.229 89.2895 114.755 90.6419C114.632 90.6728 114.509 90.7038 114.382 90.7357C112.208 91.2772 110.02 91.7085 107.812 92.0747C107.729 92.0885 107.647 92.1022 107.562 92.1164C105.076 92.5319 102.586 92.8225 100.076 93.046C99.9462 93.0576 99.8166 93.0692 99.6831 93.0811C99.305 93.1145 98.9269 93.147 98.5487 93.179C98.3865 93.1931 98.3865 93.1931 98.221 93.2074C96.1341 93.3782 94.0471 93.4151 91.9543 93.4158C91.696 93.4161 91.4376 93.4165 91.1793 93.4169C90.6406 93.4175 90.1019 93.4178 89.5632 93.4177C89.0204 93.4177 88.4776 93.4184 87.9347 93.42C84.7436 93.4287 81.5681 93.3976 78.3839 93.1768C78.2531 93.168 78.1223 93.1592 77.9876 93.1501C76.2941 93.0346 74.6212 92.8173 72.9418 92.5728C72.5604 92.5181 72.1788 92.4665 71.7968 92.4161C64.2269 91.4036 54.9458 89.7455 48.6256 85.2413C48.5178 85.1646 48.41 85.0879 48.2989 85.0088C46.2495 83.5099 44.3355 81.6106 43.4455 79.1794C43.4105 79.0885 43.3756 78.9976 43.3396 78.9039C42.8632 77.4005 42.8468 75.311 43.5557 73.889C43.6105 73.7723 43.6654 73.6555 43.7219 73.5352C44.1517 72.6776 44.677 71.9539 45.3191 71.2439C45.4017 71.1522 45.4842 71.0606 45.5693 70.9662C46.794 69.6764 48.2755 68.7603 49.838 67.9374C49.9056 67.9009 49.9733 67.8645 50.0429 67.827C52.8284 66.33 55.924 65.2775 59.0109 64.6145C59.3451 64.5119 59.4347 64.4594 59.6472 64.19C59.7839 63.8529 59.7839 63.8529 59.8974 63.4599C59.9198 63.387 59.9422 63.3142 59.9653 63.2391C60.0371 63.0053 60.1074 62.7711 60.1776 62.5368C60.2235 62.3861 60.2695 62.2354 60.3156 62.0847C60.3865 61.8531 60.4572 61.6214 60.5276 61.3895C60.698 60.8283 60.8729 60.2686 61.0503 59.7095C61.3156 58.8731 61.577 58.0356 61.837 57.1975C63.3187 52.4228 64.8644 47.6768 66.5252 42.961C66.7014 42.4606 66.8763 41.9599 67.0492 41.4583C68.7754 36.452 70.8105 31.4942 73.0936 26.7166C73.2055 26.4807 73.3174 26.2448 73.4294 26.0088C73.755 25.3247 74.0848 24.6426 74.4162 23.9612C74.463 23.8644 74.5098 23.7676 74.5581 23.6678C75.2371 22.2673 75.9809 20.9104 76.7578 19.5619C76.8976 19.316 77.0351 19.0695 77.1708 18.8213C77.8026 17.67 78.5045 16.5771 79.2381 15.4884C79.3563 15.3122 79.4744 15.136 79.5925 14.9598C81.9647 11.4298 84.5706 7.85398 87.8625 5.1143C87.9229 5.06345 87.9832 5.01261 88.0454 4.96022C91.1443 2.35559 94.8645 0.0469952 99.0219 0.00991954Z" fill="#AADCE7"/>
<path d="M99.0219 0.00991954C99.1397 0.00672285 99.2574 0.00352616 99.3788 0.000232596C100.505 -0.0086633 101.5 0.235897 102.332 1.03028C103.016 1.84834 103.318 2.87458 103.326 3.92775C103.327 4.03867 103.327 4.03867 103.328 4.15182C103.329 4.39001 103.328 4.62812 103.327 4.86631C103.327 4.94811 103.327 5.02991 103.326 5.11419C103.32 6.39298 103.239 7.61147 102.962 8.86164C102.926 9.03245 102.926 9.03245 102.889 9.20671C102.662 10.2699 102.434 11.3338 102.16 12.386C101.672 14.2708 101.843 15.9933 102.397 17.8442C102.431 17.956 102.464 18.0677 102.498 18.1828C102.614 18.5666 102.732 18.9495 102.852 19.3322C102.884 19.4365 102.884 19.4365 102.918 19.543C103.755 22.2189 104.75 24.8238 105.786 27.4285C106.383 28.9327 106.961 30.4445 107.538 31.9563C107.727 32.448 107.917 32.9387 108.11 33.4286C109.616 37.2828 110.896 41.235 112.105 45.1915C112.219 45.5604 112.338 45.9274 112.46 46.2942C113.462 49.3291 114.314 52.4159 115.069 55.5213C115.172 55.9436 115.287 56.361 115.41 56.778C115.631 57.53 115.815 58.2901 116.002 59.0512C116.306 60.2841 116.642 61.5034 117.006 62.7198C117.185 63.3173 117.349 63.9183 117.511 64.5207C117.666 64.555 117.666 64.555 117.824 64.59C123.019 65.763 129.487 67.6741 132.583 72.4011C132.704 72.6019 132.824 72.8039 132.941 73.0073C132.992 73.0956 133.043 73.1838 133.095 73.2747C133.94 74.8436 134.235 76.712 133.802 78.4583C133.254 80.1716 132.429 81.5127 131.177 82.8165C131.081 82.9208 130.985 83.0251 130.886 83.1326C126.91 87.3676 120.229 89.2895 114.755 90.6419C114.632 90.6728 114.509 90.7038 114.382 90.7357C112.208 91.2772 110.02 91.7085 107.812 92.0747C107.729 92.0885 107.647 92.1022 107.562 92.1164C105.076 92.5319 102.586 92.8225 100.076 93.046C99.9462 93.0576 99.8166 93.0692 99.6831 93.0811C99.305 93.1145 98.9269 93.147 98.5487 93.179C98.3865 93.1931 98.3865 93.1931 98.221 93.2074C96.1341 93.3782 94.0471 93.4151 91.9543 93.4158C91.696 93.4161 91.4376 93.4165 91.1793 93.4169C90.6406 93.4175 90.1019 93.4178 89.5632 93.4177C89.0204 93.4177 88.4776 93.4184 87.9347 93.42C84.7436 93.4287 81.5681 93.3976 78.3839 93.1768C78.2531 93.168 78.1223 93.1592 77.9876 93.1501C76.2941 93.0346 74.6212 92.8173 72.9418 92.5728C72.5604 92.5181 72.1788 92.4665 71.7968 92.4161C64.2269 91.4036 54.9458 89.7455 48.6256 85.2413C48.5178 85.1646 48.41 85.0879 48.2989 85.0088C46.2495 83.5099 44.3355 81.6106 43.4455 79.1794C43.4105 79.0885 43.3756 78.9976 43.3396 78.9039C42.8632 77.4005 42.8468 75.311 43.5557 73.889C43.6105 73.7723 43.6654 73.6555 43.7219 73.5352C44.1517 72.6776 44.677 71.9539 45.3191 71.2439C45.4017 71.1522 45.4842 71.0606 45.5693 70.9662C46.794 69.6764 48.2755 68.7603 49.838 67.9374C49.9056 67.9009 49.9733 67.8645 50.0429 67.827C52.8284 66.33 55.924 65.2775 59.0109 64.6145C59.3451 64.5119 59.4347 64.4594 59.6472 64.19C59.7839 63.8529 59.7839 63.8529 59.8974 63.4599C59.9198 63.387 59.9422 63.3142 59.9653 63.2391C60.0371 63.0053 60.1074 62.7711 60.1776 62.5368C60.2235 62.3861 60.2695 62.2354 60.3156 62.0847C60.3865 61.8531 60.4572 61.6214 60.5276 61.3895C60.698 60.8283 60.8729 60.2686 61.0503 59.7095C61.3156 58.8731 61.577 58.0356 61.837 57.1975C63.3187 52.4228 64.8644 47.6768 66.5252 42.961C66.7014 42.4606 66.8763 41.9599 67.0492 41.4583C68.7754 36.452 70.8105 31.4942 73.0936 26.7166C73.2055 26.4807 73.3174 26.2448 73.4294 26.0088C73.755 25.3247 74.0848 24.6426 74.4162 23.9612C74.463 23.8644 74.5098 23.7676 74.5581 23.6678C75.2371 22.2673 75.9809 20.9104 76.7578 19.5619C76.8976 19.316 77.0351 19.0695 77.1708 18.8213C77.8026 17.67 78.5045 16.5771 79.2381 15.4884C79.3563 15.3122 79.4744 15.136 79.5925 14.9598C81.9647 11.4298 84.5706 7.85398 87.8625 5.1143C87.9229 5.06345 87.9832 5.01261 88.0454 4.96022C91.1443 2.35559 94.8645 0.0469952 99.0219 0.00991954ZM98.5741 2.9371C95.6597 3.29048 93.0815 4.97641 90.8383 6.76753C90.7365 6.84795 90.6346 6.92836 90.5296 7.01122C88.3446 8.76306 86.4677 10.8212 84.8117 13.0751C84.6511 13.2906 84.4869 13.5031 84.3223 13.7154C78.5099 21.2595 74.8936 30.0929 71.3094 38.8404C71.263 38.9533 71.2166 39.0662 71.1687 39.1825C70.6123 40.55 70.1419 41.9486 69.6651 43.3453C69.5204 43.7694 69.3752 44.1933 69.23 44.6172C69.2017 44.6999 69.1734 44.7825 69.1442 44.8676C68.9197 45.5228 68.6933 46.1773 68.4645 46.831C68.4341 46.9178 68.4038 47.0046 68.3725 47.0941C68.2195 47.5295 68.0618 47.9626 67.8996 48.3947C67.7565 48.7844 67.634 49.1766 67.5206 49.5759C67.1377 50.9216 66.6748 52.2389 66.2146 53.5598C65.7916 54.7761 65.3914 55.9928 65.0485 57.2344C64.8851 57.8263 64.7032 58.4086 64.5036 58.9892C64.2378 59.7686 64.0009 60.5537 63.7734 61.3451C63.5274 62.2013 63.2712 63.0496 62.98 63.8917C62.5698 65.1195 62.212 66.365 61.8435 67.6058C61.5983 68.4313 61.3453 69.2527 61.0683 70.0681C60.6512 71.1918 60.6512 71.1918 60.7494 72.346C61.8121 74.2126 64.9898 74.9938 66.9193 75.5272C67.3319 75.6414 67.7351 75.7773 68.1407 75.9143C69.0409 76.2068 69.9654 76.402 70.8893 76.6031C70.9631 76.6192 71.037 76.6353 71.1131 76.6519C72.8111 77.0206 74.5138 77.3398 76.2347 77.5813C76.3179 77.593 76.4011 77.6047 76.4869 77.6168C77.8849 77.8113 79.284 77.9469 80.6916 78.0497C80.7803 78.0562 80.869 78.0627 80.9603 78.0694C81.484 78.107 82.0078 78.141 82.5319 78.172C82.7024 78.1821 82.8728 78.1926 83.0432 78.2035C84.9099 78.3217 86.7789 78.3221 88.6486 78.3242C89.0127 78.3246 89.3768 78.3262 89.7409 78.3287C92.1593 78.3451 94.5374 78.2472 96.9439 78.0053C97.4143 77.96 97.8849 77.9237 98.3562 77.8907C99.8897 77.7804 101.4 77.5154 102.914 77.2583C103.229 77.2061 103.544 77.1577 103.86 77.1133C105.374 76.8998 106.854 76.5413 108.338 76.1793C108.612 76.1131 108.886 76.0492 109.16 75.9879C111.331 75.47 114.898 74.5017 116.188 72.5665C116.327 71.665 116.078 70.8232 115.825 69.9658C115.735 69.6607 115.65 69.3545 115.565 69.0482C115.281 68.0209 114.993 66.9951 114.686 65.9742C114.46 65.2194 114.268 64.4583 114.079 63.6933C113.784 62.495 113.446 61.3094 113.103 60.1237C113.064 59.9889 113.026 59.854 112.986 59.7151C112.909 59.4499 112.832 59.1849 112.755 58.9199C112.544 58.1871 112.358 57.4534 112.191 56.7093C112.065 56.1734 111.913 55.646 111.759 55.1179C111.729 55.014 111.699 54.91 111.668 54.803C111.595 54.5519 111.522 54.301 111.449 54.0502C111.082 54.1725 111.006 54.2624 110.767 54.553C110.415 54.9686 110.043 55.3512 109.652 55.7297C109.348 56.0445 109.248 56.22 109.203 56.6609C109.231 57.7369 109.612 58.8026 109.953 59.8138C110.314 60.8945 110.645 61.8998 110.112 62.9846C109.846 63.3966 109.616 63.6075 109.134 63.7492C108.499 63.7876 108.037 63.7131 107.453 63.453C107.377 63.4205 107.3 63.388 107.221 63.3546C106.672 63.1179 106.133 62.8617 105.594 62.6035C105.455 62.5375 105.316 62.4715 105.177 62.4056C104.902 62.2744 104.627 62.1408 104.353 62.0057C104.226 61.9445 104.098 61.8834 103.967 61.8204C103.853 61.7647 103.739 61.709 103.621 61.6516C103.239 61.5273 103.017 61.5525 102.631 61.6551C102.393 61.7849 102.393 61.7849 102.17 61.9651C98.7946 64.4352 98.7946 64.4352 97.4517 64.3463C96.9518 64.2421 96.6666 63.9855 96.3629 63.5907C95.995 62.4257 96.3151 61.1111 96.5145 59.933C96.9263 58.266 96.9263 58.266 96.6499 56.6941C96.4539 56.4848 96.2498 56.3088 96.0254 56.1305C95.8726 55.9993 95.7199 55.868 95.5673 55.7366C95.493 55.6744 95.4187 55.6123 95.3421 55.5483C95.0775 55.3221 94.8346 55.0787 94.5926 54.8286C93.8535 54.0281 93.8535 54.0281 92.9324 53.4991C92.8153 53.3131 92.8153 53.3131 92.712 53.0582C92.6711 52.9628 92.6302 52.8673 92.588 52.7689C92.4204 52.1225 92.3856 51.5437 92.65 50.9228C93.0372 50.5262 93.4039 50.3693 93.9244 50.1926C94.0312 50.1553 94.1381 50.1179 94.2481 50.0794C95.6791 49.6405 97.1798 49.5559 98.6637 49.4211C98.8259 49.0339 98.9527 48.6494 99.0628 48.2445C99.0954 48.1259 99.128 48.0073 99.1616 47.8852C99.2288 47.6384 99.296 47.3915 99.3631 47.1447C100.209 44.0721 100.209 44.0721 101.123 43.3179C101.601 43.0485 102.102 43.0241 102.631 43.1388C103.908 43.7382 104.597 45.8124 105.185 46.9939C105.815 48.3251 105.815 48.3251 106.93 49.2007C107.247 49.2312 107.556 49.2517 107.874 49.2627C108.051 49.2705 108.229 49.2786 108.407 49.2868C108.537 49.2925 108.537 49.2925 108.669 49.2984C109.156 49.3232 109.641 49.3723 110.126 49.4211C109.917 48.5456 109.677 47.6873 109.4 46.831C109.362 46.7139 109.325 46.5968 109.286 46.4761C109.165 46.0983 109.043 45.7207 108.921 45.3431C108.836 45.081 108.752 44.8188 108.667 44.5566C108.18 43.044 107.687 41.533 107.185 40.0252C107.159 39.9485 107.134 39.8719 107.107 39.7929C106.364 37.5636 105.608 35.3261 104.688 33.1625C104.445 32.5872 104.226 32.0036 104.008 31.4187C103.678 30.5335 103.34 29.6513 103.002 28.7694C102.929 28.5798 102.856 28.3901 102.784 28.2004C102.677 27.9206 102.569 27.6408 102.462 27.3611C102.43 27.2778 102.398 27.1944 102.365 27.1085C102.172 26.6055 101.963 26.1121 101.739 25.6216C101.571 25.2368 101.437 24.8409 101.302 24.4434C101.065 23.7518 100.823 23.0623 100.572 22.3756C99.9556 20.6839 99.3915 18.9972 98.9943 17.238C98.9733 17.1513 98.9523 17.0646 98.9306 16.9752C98.4857 15.0072 98.6923 12.9316 99.2462 11.0132C99.8402 8.91711 100.231 6.85463 100.255 4.67343C100.257 4.53717 100.26 4.40091 100.262 4.26053C100.262 4.06938 100.262 4.06938 100.261 3.87437C100.262 3.76014 100.262 3.64591 100.262 3.52822C100.232 3.22873 100.232 3.22873 100.007 3.03784C99.5503 2.79545 99.0706 2.89366 98.5741 2.9371Z" fill="black"/>
<path d="M118.282 67.9375C118.926 68.009 119.517 68.1725 120.135 68.3646C120.228 68.3929 120.32 68.4211 120.415 68.4503C120.602 68.5074 120.788 68.5647 120.975 68.6224C121.264 68.7109 121.554 68.7965 121.843 68.8821C122.479 69.0726 123.079 69.3185 123.683 69.5907C123.775 69.6323 123.867 69.6738 123.963 69.7166C125.341 70.342 126.662 70.9885 127.871 71.9053C127.934 71.953 127.997 72.0007 128.063 72.0498C129.299 72.9975 130.599 74.2676 130.847 75.873C130.915 76.9104 130.923 77.8078 130.406 78.7387C130.359 78.8304 130.312 78.9222 130.263 79.0168C129.335 80.6486 127.794 81.8513 126.218 82.8167C126.149 82.8589 126.08 82.9011 126.009 82.9446C124.375 83.9325 122.615 84.7984 120.819 85.4502C120.506 85.5649 120.198 85.6892 119.89 85.8166C117.016 86.998 113.919 87.648 110.898 88.3274C110.742 88.3626 110.742 88.3626 110.584 88.3985C110.49 88.4195 110.397 88.4406 110.301 88.4622C110.223 88.4797 110.145 88.4972 110.065 88.5152C109.307 88.6764 108.549 88.8129 107.782 88.9246C107.687 88.9386 107.592 88.9526 107.495 88.9671C107.295 88.9965 107.096 89.0258 106.897 89.0551C106.609 89.0975 106.321 89.1406 106.033 89.1839C103.835 89.5145 101.65 89.8282 99.4291 89.9598C98.9909 89.988 98.5538 90.026 98.1165 90.065C97.078 90.1524 96.0408 90.2223 94.9993 90.2613C94.8138 90.2683 94.8138 90.2683 94.6246 90.2754C93.3427 90.3207 92.0615 90.3314 90.7789 90.3337C90.657 90.334 90.535 90.3343 90.4093 90.3347C89.7632 90.3363 89.1171 90.3373 88.471 90.3378C87.9487 90.3383 87.4264 90.3398 86.9042 90.3423C83.7573 90.3572 80.6438 90.2982 77.5098 90.002C77.1243 89.966 76.7385 89.9328 76.3528 89.8992C74.5383 89.7411 72.7532 89.4694 70.959 89.1647C70.5885 89.1039 70.2179 89.0486 69.8461 88.9965C63.8864 88.1582 57.4781 86.5719 52.1526 83.6984C52.0454 83.6435 51.9383 83.5887 51.8279 83.5322C50.5579 82.87 49.4384 82.0433 48.4052 81.0532C48.319 80.9739 48.2327 80.8946 48.1439 80.813C47.0061 79.7346 46.218 78.4576 46.1378 76.8719C46.1099 75.5375 46.4602 74.6585 47.3375 73.6412C47.5073 73.4643 47.6795 73.2897 47.8541 73.1176C47.9287 73.0432 48.0033 72.9688 48.0802 72.8921C50.4354 70.6743 53.7274 69.2935 56.7816 68.3784C56.8971 68.3434 57.0126 68.3085 57.1316 68.2725C57.6198 68.1315 58.034 68.0304 58.5451 68.0477C58.4401 68.549 58.3273 69.045 58.1826 69.5365C57.7549 70.9977 57.4528 72.3714 58.1499 73.8117C59.1993 75.6004 61.4674 76.7047 63.3477 77.3876C63.6987 77.5166 64.0461 77.6525 64.3938 77.7902C65.132 78.0747 65.8792 78.3061 66.6391 78.5251C66.8229 78.5789 66.8229 78.5789 67.0104 78.6338C67.2593 78.7065 67.5084 78.7787 67.7577 78.8504C68.008 78.9227 68.2579 78.9963 68.5075 79.0712C69.4894 79.3622 70.4763 79.5827 71.4817 79.7719C71.5675 79.7882 71.6534 79.8044 71.7419 79.8212C74.0551 80.2542 76.3863 80.5368 78.7244 80.7964C79.0264 80.8306 79.3281 80.8668 79.6299 80.904C85.4368 81.6129 91.5905 81.6136 97.3988 80.91C97.8729 80.8539 98.3426 80.8188 98.8197 80.8007C100.179 80.7485 101.501 80.5138 102.838 80.2748C102.963 80.2527 103.089 80.2306 103.218 80.2079C111.904 78.9178 111.904 78.9178 118.768 74.067C119.47 72.9159 119.24 71.5655 118.938 70.3152C118.799 69.7778 118.655 69.2427 118.503 68.709C118.479 68.6266 118.456 68.5443 118.432 68.4594C118.382 68.2853 118.332 68.1114 118.282 67.9375Z" fill="#AADCE7"/>
<path d="M85.7685 22.7485C86.8038 23.1977 87.3747 24.4468 87.8695 25.4005C88.472 26.574 88.472 26.574 89.2955 27.598C89.6163 27.613 89.9349 27.6212 90.256 27.6251C90.4565 27.6287 90.6571 27.6324 90.8576 27.6361C91.1739 27.6413 91.4902 27.6462 91.8066 27.6505C92.1117 27.6549 92.4169 27.6606 92.7221 27.6664C92.8149 27.6674 92.9077 27.6683 93.0033 27.6692C93.8251 27.686 94.8091 27.717 95.4676 28.2593C95.8074 28.6542 96.0038 29.0005 95.9696 29.5345C95.6151 31.0872 94.3595 32.6626 93.2667 33.7744C93.0061 34.0661 93.0061 34.0661 92.8983 34.4313C92.9223 34.6652 92.9715 34.8687 93.0428 35.0927C93.0637 35.1635 93.0847 35.2344 93.1063 35.3074C93.1774 35.5303 93.2569 35.7485 93.339 35.9675C93.3679 36.0478 93.3967 36.1281 93.4265 36.2109C93.5762 36.6267 93.7322 37.0393 93.8948 37.4502C94.2792 38.441 94.5337 39.3052 94.3654 40.383C94.1222 40.9256 93.7987 41.2274 93.2632 41.4852C91.5242 41.7297 89.5629 40.9563 88.0103 40.2496C87.9139 40.2072 87.8174 40.1649 87.718 40.1213C87.632 40.0818 87.5461 40.0423 87.4575 40.0016C87.0992 39.9185 86.9754 39.9864 86.6503 40.1626C86.326 40.3801 86.0129 40.6114 85.6997 40.8446C84.9675 41.3814 84.2313 41.8966 83.454 42.3669C83.3516 42.4293 83.2491 42.4917 83.1436 42.5559C82.3885 43.0124 81.9296 43.238 81.0293 43.1384C80.5305 42.8936 80.2643 42.6504 80.0373 42.1465C79.9836 41.7466 79.9853 41.3508 79.9891 40.9479C79.9895 40.8298 79.9898 40.7116 79.9902 40.5899C80.0158 39.0389 80.2485 37.5061 80.4782 35.9744C80.4115 35.9422 80.3448 35.91 80.2761 35.8769C79.3864 35.4188 78.5914 34.6726 77.8618 33.9982C77.581 33.7411 77.2898 33.4995 76.9926 33.2616C76.6837 32.95 76.5885 32.6382 76.5862 32.2064C76.6071 31.57 76.6755 30.9675 77.136 30.4942C77.7511 30.0412 78.4587 29.8305 79.1788 29.6055C79.7747 29.4145 80.3566 29.1953 80.919 28.9206C80.9904 28.8924 81.0617 28.8642 81.1351 28.8351C81.5478 28.6376 81.755 28.4651 81.9553 28.0467C82.0918 27.6412 82.2088 27.2332 82.3174 26.8196C83.5166 22.5179 83.5166 22.5179 85.7685 22.7485Z" fill="black"/>
<path d="M77.6267 50.3995C78.3897 50.8988 78.6583 51.6962 78.8731 52.5413C78.9196 52.7159 78.9661 52.8904 79.0126 53.0649C79.0477 53.1987 79.0477 53.1987 79.0834 53.3352C79.2027 53.788 79.3271 54.2393 79.4518 54.6906C79.4741 54.7728 79.4964 54.855 79.5193 54.9397C79.5793 55.1582 79.6428 55.3756 79.7066 55.5929C79.7259 55.6867 79.7452 55.7805 79.7651 55.8772C79.9519 56.1849 80.0094 56.2009 80.3411 56.3008C80.5195 56.344 80.6986 56.3847 80.8781 56.4234C80.9733 56.4461 81.0685 56.4687 81.1666 56.492C81.4716 56.5643 81.7773 56.6333 82.0832 56.702C82.3862 56.7716 82.6889 56.8418 82.9915 56.9131C83.1797 56.9573 83.3681 57.0005 83.5568 57.0423C84.2942 57.2131 85.0406 57.4218 85.6053 57.9436C85.9268 58.5239 85.8719 59.1415 85.7685 59.7812C85.5774 60.1872 85.3201 60.4651 84.997 60.7731C84.917 60.8517 84.837 60.9302 84.7546 61.0112C84.1714 61.5578 83.5449 62.0509 82.9123 62.5387C82.7882 62.6345 82.6648 62.7313 82.5422 62.8291C82.4098 62.9323 82.2737 63.0308 82.1352 63.1255C81.7276 63.4234 81.7276 63.4234 81.5178 63.8678C81.5001 64.1332 81.5073 64.3859 81.5252 64.6513C81.5284 64.7453 81.5316 64.8393 81.5349 64.9362C81.5564 65.4899 81.6059 66.0395 81.6643 66.5904C81.7038 67.1241 81.7166 67.657 81.725 68.192C81.7282 68.2974 81.7315 68.4028 81.7349 68.5114C81.7402 69.1475 81.6915 69.5356 81.2497 70.0312C80.7174 70.3383 80.2057 70.4672 79.5964 70.3619C78.9146 70.1023 78.3321 69.6699 77.7503 69.2391C77.6213 69.1446 77.6213 69.1446 77.4896 69.0482C77.2361 68.8622 76.9834 68.6753 76.7308 68.4882C76.5938 68.3873 76.4567 68.2864 76.3197 68.1856C75.3847 67.4921 75.3847 67.4921 75.0776 67.1656C74.6658 67.3267 74.263 67.5024 73.8605 67.6853C73.7329 67.7427 73.6054 67.8002 73.4741 67.8594C73.2086 67.9792 72.9434 68.0995 72.6784 68.2202C70.724 69.0983 70.724 69.0983 69.8285 69.06C69.7362 69.057 69.6438 69.054 69.5487 69.0509C69.4819 69.0471 69.4151 69.0432 69.3463 69.0393C69.3463 68.9666 69.3463 68.8938 69.3463 68.8189C69.2827 68.812 69.219 68.8052 69.1535 68.7982C68.7901 68.667 68.6747 68.4797 68.4646 68.1576C68.3964 67.8457 68.3651 67.6035 68.3613 67.2896C68.3602 67.2019 68.3592 67.1142 68.3581 67.0238C68.4032 65.83 68.8927 64.718 69.3197 63.6171C69.6762 62.7162 69.6762 62.7162 69.7872 61.765C69.6718 61.5388 69.6718 61.5388 69.4634 61.3931C68.9496 60.9423 68.5507 60.4316 68.134 59.8914C68.0466 59.78 67.9592 59.6686 67.8692 59.5538C67.1927 58.6767 66.7219 58.0284 66.7502 56.8854C66.8565 56.3632 67.1773 56.0321 67.5829 55.7032C67.9063 55.5137 68.1455 55.454 68.519 55.4476C68.616 55.4454 68.7131 55.4432 68.8131 55.441C68.9688 55.439 68.9688 55.439 69.1276 55.4371C69.2346 55.435 69.3417 55.4328 69.4519 55.4306C69.7933 55.424 70.1347 55.4189 70.4761 55.4138C70.7077 55.4096 70.9393 55.4053 71.1709 55.4009C71.7384 55.3904 72.3058 55.3811 72.8733 55.3725C72.9073 55.3043 72.9414 55.236 72.9765 55.1657C73.5153 54.0899 74.0811 53.025 74.6711 51.9765C74.7366 51.8598 74.8021 51.7432 74.8696 51.623C75.5144 50.6045 76.3637 49.878 77.6267 50.3995Z" fill="black"/>
<path d="M102.08 46.7756C102.492 46.9129 102.546 47.0888 102.737 47.4612C102.797 47.5822 102.797 47.5822 102.859 47.7056C102.946 47.8757 103.034 48.0458 103.122 48.2158C103.168 48.3046 103.213 48.3934 103.26 48.4849C103.498 48.943 103.746 49.3958 103.995 49.8479C104.041 49.9324 104.087 50.0168 104.135 50.1038C104.178 50.1828 104.222 50.2617 104.267 50.343C104.305 50.4125 104.343 50.4819 104.382 50.5535C104.501 50.7523 104.501 50.7523 104.685 50.92C104.836 51.0741 104.836 51.0741 104.836 51.2945C104.904 51.3104 104.972 51.3263 105.042 51.3427C105.277 51.4047 105.277 51.4047 105.497 51.5149C105.669 51.5367 105.842 51.5529 106.015 51.5662C106.12 51.5746 106.226 51.5831 106.334 51.5918C106.447 51.6005 106.559 51.6093 106.675 51.6182C107.684 51.7006 108.684 51.8071 109.685 51.9558C109.507 52.3882 109.21 52.6957 108.893 53.0304C108.783 53.1486 108.673 53.2668 108.563 53.3851C108.51 53.4424 108.457 53.4997 108.402 53.5587C107.175 54.7804 107.175 54.7804 106.689 56.3438C106.687 56.4581 106.686 56.5725 106.684 56.6903C106.71 57.038 106.794 57.2582 106.93 57.5768C107.005 57.8612 107.076 58.145 107.143 58.431C107.264 58.9311 107.389 59.4205 107.564 59.9051C107.696 60.2778 107.732 60.5947 107.701 60.9935C107.24 60.8168 106.797 60.6089 106.353 60.3938C106.241 60.3396 106.241 60.3396 106.126 60.2843C105.969 60.2083 105.812 60.1323 105.655 60.0561C105.414 59.9393 105.172 59.8228 104.931 59.7064C104.778 59.6325 104.625 59.5585 104.472 59.4845C104.364 59.4321 104.364 59.4321 104.253 59.3787C103.746 59.1325 103.746 59.1325 103.623 59.0096C102.822 58.885 102.319 59.1212 101.667 59.5607C101.582 59.6154 101.497 59.67 101.409 59.7264C101.236 59.8371 101.064 59.9487 100.893 60.0612C100.541 60.292 100.185 60.516 99.8279 60.7386C99.7166 60.8095 99.6054 60.8804 99.4908 60.9535C99.2148 61.1037 99.2148 61.1037 98.8842 61.1037C98.8996 60.734 98.9159 60.3643 98.9324 59.9947C98.9367 59.8907 98.941 59.7868 98.9455 59.6797C98.9709 59.1185 99.0183 58.5734 99.1046 58.0177C99.2697 56.8351 99.2697 56.8351 98.8755 55.7449C98.5454 55.3296 98.1652 54.9666 97.782 54.601C97.5268 54.349 97.2727 54.096 97.0189 53.8426C96.8498 53.675 96.6795 53.5088 96.5077 53.344C96.3909 53.2308 96.3909 53.2308 96.2717 53.1152C96.2016 53.0483 96.1315 52.9813 96.0593 52.9123C95.9083 52.7273 95.9083 52.7273 95.9083 52.3966C96.214 52.2947 96.4446 52.2615 96.7629 52.2391C96.8663 52.231 96.9696 52.2229 97.0761 52.2145C97.2911 52.1984 97.5061 52.1829 97.7211 52.168C98.7132 52.0883 99.6094 51.9433 100.375 51.2717C100.733 50.8359 100.908 50.3284 101.061 49.7928C101.364 48.7745 101.725 47.7764 102.08 46.7756Z" fill="#F8E482"/>
<path d="M85.2173 26.386C85.5697 26.5339 85.7278 26.661 85.9114 26.9952C85.9552 27.0729 85.999 27.1506 86.0441 27.2306C86.0895 27.3133 86.1349 27.396 86.1817 27.4813C86.9871 28.9815 86.9871 28.9815 88.1932 30.1333C88.5494 30.1934 88.8993 30.1847 89.2596 30.1764C89.3616 30.1758 89.4635 30.1751 89.5686 30.1745C89.8932 30.172 90.2176 30.1665 90.5421 30.1609C90.7626 30.1587 90.9831 30.1567 91.2037 30.1549C91.7432 30.15 92.2827 30.1424 92.8222 30.1333C92.663 30.459 92.4891 30.7474 92.278 31.0426C91.9155 31.5555 91.5545 32.0695 91.1966 32.5856C91.1446 32.6598 91.0926 32.734 91.039 32.8105C90.5541 33.5111 90.1654 34.101 90.2873 34.9828C90.4903 35.9786 90.8029 36.8365 91.2504 37.7494C91.4298 38.1616 91.4821 38.5041 91.4996 38.9506C90.9717 38.8817 90.4996 38.7305 90.0053 38.5403C89.8452 38.4804 89.6851 38.4204 89.525 38.3606C89.2755 38.2665 89.0261 38.172 88.777 38.0768C88.5347 37.9845 88.2919 37.8938 88.0489 37.8032C87.9754 37.7747 87.9019 37.7461 87.8262 37.7166C87.2444 37.5014 86.715 37.3973 86.1309 37.6439C86.034 37.7046 85.9371 37.7653 85.8373 37.8278C85.7251 37.897 85.6128 37.9662 85.4972 38.0374C85.2039 38.2255 84.9123 38.4161 84.6206 38.6066C84.4952 38.6884 84.4952 38.6884 84.3672 38.7718C84.2014 38.8804 84.0361 38.9897 83.8713 39.0999C83.795 39.1504 83.7186 39.2008 83.6399 39.2528C83.5721 39.2981 83.5043 39.3434 83.4345 39.3901C83.222 39.508 83.0299 39.5638 82.7926 39.6119C82.7805 38.9539 82.795 38.3049 82.8477 37.6487C83.0539 36.0656 83.0539 36.0656 82.5429 34.6281C82.2383 34.3152 81.9027 34.0512 81.5565 33.786C81.2194 33.5268 80.8904 33.2619 80.5676 32.9852C80.4637 32.8985 80.3599 32.8118 80.2529 32.7225C80.0372 32.4479 80.0372 32.4479 80.0591 32.0836C80.0883 31.9856 80.1174 31.8876 80.1474 31.7866C80.254 31.7586 80.3605 31.7306 80.4703 31.7018C80.8436 31.6034 81.2164 31.5034 81.5891 31.4027C81.7701 31.3539 81.9513 31.306 82.1326 31.2583C82.9472 31.0325 83.5013 30.7214 84.005 30.0231C84.1366 29.7216 84.1366 29.7216 84.2293 29.3976C84.2661 29.279 84.303 29.1604 84.341 29.0383C84.3963 28.854 84.3963 28.854 84.4527 28.6661C84.5273 28.4231 84.602 28.1801 84.677 27.9372C84.7299 27.7653 84.7299 27.7653 84.7838 27.5899C84.914 27.1822 85.0615 26.7845 85.2173 26.386Z" fill="#F8E482"/>
<path d="M76.5103 53.8298C76.583 53.8298 76.6558 53.8298 76.7307 53.8298C76.8554 54.2315 76.9791 54.6334 77.1027 55.0353C77.1377 55.1479 77.1726 55.2605 77.2086 55.3765C77.3638 55.8824 77.5095 56.3786 77.606 56.8991C77.7099 57.3927 77.91 57.6801 78.2255 58.0731C78.3143 58.1857 78.4031 58.2982 78.4946 58.4141C78.8331 58.8222 78.9398 58.8129 79.4758 58.8649C79.6102 58.8785 79.7446 58.892 79.8831 58.906C80.1661 58.9337 80.4491 58.9612 80.7321 58.9887C81.4715 59.0635 82.1817 59.1596 82.9028 59.3406C82.7569 59.7784 82.4779 59.9145 82.1106 60.1604C81.433 60.6263 80.8092 61.1335 80.1964 61.6816C79.7284 62.096 79.7284 62.096 79.4861 62.096C79.0456 63.0847 79.1184 64.0739 79.1348 65.1339C79.1365 65.3205 79.138 65.5071 79.1393 65.6938C79.143 66.1478 79.1486 66.6018 79.1555 67.0557C78.6348 66.972 78.3296 66.7657 77.9293 66.4358C76.4816 65.2717 76.4816 65.2717 74.7098 64.9156C73.6687 65.0343 72.6594 65.4856 71.7438 65.98C71.5506 66.0638 71.5506 66.0638 71.2199 66.0638C71.2814 65.8088 71.3434 65.5539 71.4059 65.2992C71.4348 65.1809 71.4348 65.1809 71.4644 65.0602C71.5898 64.5567 71.7322 64.0621 71.8894 63.5677C72.2974 62.4026 72.2974 62.4026 72.2119 61.2143C71.8892 60.6866 71.4741 60.2279 71.0661 59.7655C70.7999 59.4577 70.5543 59.136 70.3106 58.8102C70.2305 58.7049 70.1504 58.5997 70.0678 58.4912C69.8973 58.2385 69.8973 58.2385 69.8973 58.018C69.9711 58.0153 70.0449 58.0125 70.1209 58.0097C70.462 57.9967 70.8031 57.9833 71.1442 57.9698C71.2602 57.9655 71.3762 57.9612 71.4957 57.9567C73.0268 57.9747 73.0268 57.9747 74.4162 57.467C74.5319 57.2867 74.6414 57.1024 74.7468 56.9159C74.8048 56.8174 74.8628 56.7189 74.9225 56.6175C75.1236 56.2739 75.3245 55.9302 75.5252 55.5864C75.5955 55.4664 75.6658 55.3464 75.7381 55.2228C75.8056 55.1074 75.873 54.9919 75.9424 54.873C76.0038 54.768 76.0652 54.663 76.1284 54.5548C76.264 54.3162 76.3907 54.0767 76.5103 53.8298Z" fill="#F8E482"/>
</svg>
