<svg width="180" height="329" viewBox="0 0 180 329" fill="none" xmlns="http://www.w3.org/2000/svg">
<path d="M90.3608 52.9439C93.8548 55.7727 96.3609 60.2528 96.9824 64.7089C97.2071 67.5476 97.2363 70.449 96.2584 73.1556C96.6541 73.1692 96.6541 73.1692 97.0578 73.183C102.2 73.3886 107.186 74.1226 112.186 75.3276C112.518 75.4054 112.518 75.4054 112.856 75.4848C118.991 76.9364 124.88 79.0457 130.528 81.8436C130.748 81.9522 130.968 82.0608 131.195 82.1726C135.882 84.5047 140.213 87.2402 144.284 90.5316C144.43 90.6497 144.577 90.7678 144.727 90.8895C148.034 93.5827 151.072 96.5808 153.696 99.9437C154.067 100.392 154.439 100.839 154.812 101.286C157.714 104.854 159.943 108.872 161.926 113.01C162.131 113.434 162.341 113.854 162.552 114.274C165.941 121.202 168.025 128.773 169.452 136.329C170.087 139.64 170.894 142.782 172.003 145.959C172.825 148.315 173.437 150.557 173.726 153.037C173.769 153.319 173.812 153.601 173.856 153.892C175.055 163.689 172.247 173.695 166.245 181.514C162.775 185.931 158.744 189.474 153.937 192.374C153.784 192.467 153.63 192.56 153.472 192.655C150.715 194.305 150.715 194.305 149.834 194.305C149.834 194.464 149.834 194.624 149.834 194.788C150.009 194.848 150.184 194.908 150.363 194.971C151.505 195.475 152.374 196.319 153.318 197.123C153.686 197.434 154.059 197.739 154.433 198.043C156.336 199.609 158.094 201.312 159.835 203.053C160.006 203.224 160.006 203.224 160.18 203.398C161.395 204.613 162.579 205.841 163.698 207.145C164.277 207.815 164.885 208.456 165.491 209.102C166.559 210.251 167.581 211.425 168.562 212.649C168.994 213.187 169.43 213.72 169.871 214.25C173.697 218.866 176.983 223.547 178.871 229.281C179.008 229.696 179.153 230.108 179.301 230.52C180.299 233.714 180.312 238.114 178.794 241.124C178.71 241.294 178.625 241.464 178.538 241.639C176.612 245.043 173.746 246.939 170.106 248.122C164.293 249.463 157.905 247.642 152.73 244.985C152.81 245.144 152.89 245.304 152.972 245.468C154.825 257.372 154.223 269.968 146.906 279.988C141.679 286.91 134.404 290.737 126.425 293.735C126.425 297.159 126.425 300.584 126.425 304.112C127.142 304.271 127.859 304.43 128.597 304.595C129.683 304.929 130.754 305.306 131.825 305.686C132.32 305.861 132.816 306.031 133.313 306.202C136.296 307.244 138.682 308.374 140.392 311.111C141.091 312.948 140.952 315.557 140.222 317.371C139.161 319.24 137.702 320.529 135.64 321.134C135.066 321.257 134.548 321.278 133.961 321.279C133.742 321.279 133.523 321.279 133.297 321.28C133.07 321.279 132.843 321.278 132.609 321.277C132.271 321.278 132.271 321.278 131.927 321.28C130.79 321.278 129.715 321.241 128.597 321.005C128.608 321.172 128.62 321.338 128.631 321.51C128.719 323.798 128.148 325.458 126.598 327.158C125.224 328.363 123.572 328.818 121.78 328.795C119.906 328.606 118.09 327.649 116.772 326.315C115.931 325.172 115.217 323.971 114.6 322.695C114.448 322.794 114.296 322.892 114.14 322.994C111.855 324.432 109.847 324.981 107.118 324.625C105.335 324.031 103.735 323.145 102.774 321.488C101.689 319.3 101.426 317.21 102.156 314.866C103.1 312.536 104.81 310.685 106.601 308.964C107.263 308.314 107.865 307.623 108.467 306.918C108.73 306.615 109.007 306.326 109.29 306.043C109.35 305.404 109.381 304.788 109.39 304.148C109.395 303.961 109.4 303.774 109.405 303.582C109.419 302.984 109.43 302.387 109.441 301.789C109.45 301.384 109.46 300.98 109.47 300.575C109.493 299.582 109.513 298.589 109.532 297.596C109.357 297.626 109.182 297.657 109.003 297.688C102.983 298.715 97.0868 298.913 90.9978 298.88C90.1661 298.877 89.3345 298.878 88.5028 298.88C84.2302 298.884 79.9906 298.86 75.745 298.32C75.4557 298.284 75.1663 298.249 74.8682 298.212C74.2036 298.126 73.5416 298.03 72.8792 297.928C72.5526 297.879 72.5526 297.879 72.2193 297.83C71.705 297.753 71.191 297.675 70.677 297.596C70.635 298.729 70.6045 299.862 70.5842 300.996C70.5758 301.38 70.5643 301.765 70.5496 302.15C70.3793 304.733 70.3793 304.733 71.4717 306.976C71.7618 307.237 72.0602 307.49 72.3664 307.732C75.1724 310.399 78.1255 313.479 78.2791 317.566C78.175 319.552 77.5496 321.471 76.0458 322.838C74.1545 324.348 72.5255 324.779 70.1001 324.727C68.1634 324.501 66.4323 323.614 64.885 322.453C64.8701 322.744 64.8701 322.744 64.8549 323.041C64.3666 325.029 62.9278 326.621 61.265 327.763C59.4933 328.744 57.7852 329.069 55.8096 328.569C53.9402 327.915 52.6711 326.832 51.7474 325.078C51.1805 323.686 51.2882 322.24 51.3704 320.764C51.1973 320.842 51.0243 320.92 50.846 321.001C49.726 321.404 48.6131 321.326 47.4336 321.322C47.1905 321.326 46.9474 321.33 46.6969 321.334C44.3012 321.335 42.7574 320.776 40.9892 319.121C39.3834 317.347 39.1679 315.318 39.2235 313.001C39.4098 310.851 40.4695 309.565 42.0554 308.192C43.0904 307.432 44.2041 307.039 45.4124 306.631C45.6622 306.542 45.912 306.453 46.1694 306.361C46.9362 306.089 47.7051 305.824 48.4743 305.56C48.9581 305.389 49.4418 305.219 49.9252 305.047C51.0485 304.649 52.1744 304.26 53.301 303.871C53.4603 300.526 53.6196 297.181 53.7837 293.735C52.6488 293.316 52.6488 293.316 51.491 292.89C49.1935 292.026 47.0202 291.024 44.8543 289.873C44.6204 289.755 44.3865 289.637 44.1454 289.515C36.4051 285.51 30.7352 278.352 27.9666 270.157C25.4383 261.993 26.0785 253.332 27.237 244.985C27.1148 245.037 26.9926 245.089 26.8667 245.143C21.0839 247.59 14.4762 249.836 8.28853 247.513C5.10654 246.165 2.20932 243.914 0.879775 240.644C-1.04661 235.139 0.446938 229.682 2.88775 224.594C4.03483 222.304 5.41489 220.232 6.96496 218.197C7.06615 218.063 7.16733 217.928 7.27158 217.79C8.65176 215.958 10.0791 214.165 11.5503 212.405C11.7059 212.218 11.7059 212.218 11.8646 212.028C14.652 208.69 17.6535 205.56 20.721 202.48C20.9084 202.292 21.0959 202.103 21.289 201.909C22.4283 200.773 23.6008 199.694 24.8237 198.649C25.0927 198.415 25.3617 198.18 25.6306 197.946C26.993 196.771 28.3214 195.681 29.8917 194.788C29.1864 194.217 28.4371 193.782 27.6402 193.351C24.693 191.755 22.0657 189.916 19.6227 187.619C19.1111 187.14 18.5884 186.686 18.0512 186.236C11.1201 180.165 6.69129 170.341 6.05808 161.226C5.82177 156.879 5.92963 152.553 7.01021 148.316C7.07237 148.069 7.07237 148.069 7.13577 147.817C7.39272 146.884 7.70437 145.988 8.07418 145.094C9.09386 142.621 9.76485 140.232 10.2342 137.6C10.4235 136.543 10.6284 135.489 10.8329 134.435C10.873 134.227 10.913 134.02 10.9543 133.806C11.4864 131.085 12.1959 128.42 12.9983 125.766C13.0638 125.549 13.1293 125.332 13.1967 125.108C16.5499 114.158 21.9388 104.11 29.8917 95.841C30.0049 95.7224 30.1182 95.6038 30.2349 95.4817C31.5904 94.0693 32.9953 92.771 34.5279 91.5535C34.9786 91.1925 35.4224 90.8228 35.859 90.4449C37.9229 88.6596 40.1385 87.164 42.441 85.705C42.6055 85.6004 42.77 85.4959 42.9395 85.3882C52.3276 79.4889 63.2572 75.9244 74.1764 74.2718C74.4426 74.2313 74.7088 74.1908 74.9831 74.1491C76.5351 73.9289 78.0393 73.8284 79.6064 73.8796C79.6064 73.7203 79.6064 73.5611 79.6064 73.397C79.4471 73.3472 79.2878 73.2974 79.1237 73.2461C78.4798 72.951 78.0811 72.675 77.54 72.2355C75.4865 70.6686 73.2906 70.1289 70.7609 69.9108C69.9068 69.7693 69.4273 69.5816 68.7464 69.053C68.0974 68.0815 68.0472 67.0439 68.2637 65.9156C68.7932 64.948 69.3737 64.3648 70.3971 63.9453C73.2954 63.1787 76.1161 64.0107 78.6995 65.3585C79.5044 65.8392 80.2835 66.3482 81.0544 66.8809C81.2169 66.9929 81.3795 67.1049 81.547 67.2202C82.7596 68.0596 83.9603 68.9151 85.1571 69.777C85.3658 69.9267 85.3658 69.9267 85.5787 70.0796C87.5952 71.5279 87.5952 71.5279 88.4565 72.2431C88.9644 72.7218 88.9644 72.7218 89.5011 72.673C89.6728 72.2474 89.6728 72.2474 89.848 71.8132C89.9124 71.6536 89.9768 71.494 90.0431 71.3296C90.8657 68.6742 90.8242 65.3448 89.7424 62.7783C89.6631 62.581 89.5837 62.3838 89.502 62.1806C88.4225 59.7675 86.6724 58.0388 84.4727 56.6177C83.6763 56.0757 83.2932 55.7388 82.9851 54.8143C82.8955 53.6049 82.9566 52.8857 83.7091 51.9183C85.8505 49.984 88.3989 51.485 90.3608 52.9439Z" fill="#FFF1A6"/>
<path d="M90.3608 52.9439C93.8548 55.7727 96.3609 60.2528 96.9824 64.7089C97.2071 67.5476 97.2363 70.449 96.2584 73.1556C96.6541 73.1692 96.6541 73.1692 97.0578 73.183C102.2 73.3886 107.186 74.1226 112.186 75.3276C112.518 75.4054 112.518 75.4054 112.856 75.4848C118.991 76.9364 124.88 79.0457 130.528 81.8436C130.748 81.9522 130.968 82.0608 131.195 82.1726C135.882 84.5047 140.213 87.2402 144.284 90.5316C144.43 90.6497 144.577 90.7678 144.727 90.8895C148.034 93.5827 151.072 96.5808 153.696 99.9437C154.067 100.392 154.439 100.839 154.812 101.286C157.714 104.854 159.943 108.872 161.926 113.01C162.131 113.434 162.341 113.854 162.552 114.274C165.941 121.202 168.025 128.773 169.452 136.329C170.087 139.64 170.894 142.782 172.003 145.959C172.825 148.315 173.437 150.557 173.726 153.037C173.769 153.319 173.812 153.601 173.856 153.892C175.055 163.689 172.247 173.695 166.245 181.514C162.775 185.931 158.744 189.474 153.937 192.374C153.784 192.467 153.63 192.56 153.472 192.655C150.715 194.305 150.715 194.305 149.834 194.305C149.834 194.464 149.834 194.624 149.834 194.788C150.009 194.848 150.184 194.908 150.363 194.971C151.505 195.475 152.374 196.319 153.318 197.123C153.686 197.434 154.059 197.739 154.433 198.043C156.336 199.609 158.094 201.312 159.835 203.053C160.006 203.224 160.006 203.224 160.18 203.398C161.395 204.613 162.579 205.841 163.698 207.145C164.277 207.815 164.885 208.456 165.491 209.102C166.559 210.251 167.581 211.425 168.562 212.649C168.994 213.187 169.43 213.72 169.871 214.25C173.697 218.866 176.983 223.547 178.871 229.281C179.008 229.696 179.153 230.108 179.301 230.52C180.299 233.714 180.312 238.114 178.794 241.124C178.71 241.294 178.625 241.464 178.538 241.639C176.612 245.043 173.746 246.939 170.106 248.122C164.293 249.463 157.905 247.642 152.73 244.985C152.81 245.144 152.89 245.304 152.972 245.468C154.825 257.372 154.223 269.968 146.906 279.988C141.679 286.91 134.404 290.737 126.425 293.735C126.425 297.159 126.425 300.584 126.425 304.112C127.142 304.271 127.859 304.43 128.597 304.595C129.683 304.929 130.754 305.306 131.825 305.686C132.32 305.861 132.816 306.031 133.313 306.202C136.296 307.244 138.682 308.374 140.392 311.111C141.091 312.948 140.952 315.557 140.222 317.371C139.161 319.24 137.702 320.529 135.64 321.134C135.066 321.257 134.548 321.278 133.961 321.279C133.742 321.279 133.523 321.279 133.297 321.28C133.07 321.279 132.843 321.278 132.609 321.277C132.271 321.278 132.271 321.278 131.927 321.28C130.79 321.278 129.715 321.241 128.597 321.005C128.608 321.172 128.62 321.338 128.631 321.51C128.719 323.798 128.148 325.458 126.598 327.158C125.224 328.363 123.572 328.818 121.78 328.795C119.906 328.606 118.09 327.649 116.772 326.315C115.931 325.172 115.217 323.971 114.6 322.695C114.448 322.794 114.296 322.892 114.14 322.994C111.855 324.432 109.847 324.981 107.118 324.625C105.335 324.031 103.735 323.145 102.774 321.488C101.689 319.3 101.426 317.21 102.156 314.866C103.1 312.536 104.81 310.685 106.601 308.964C107.263 308.314 107.865 307.623 108.467 306.918C108.73 306.615 109.007 306.326 109.29 306.043C109.35 305.404 109.381 304.788 109.39 304.148C109.395 303.961 109.4 303.774 109.405 303.582C109.419 302.984 109.43 302.387 109.441 301.789C109.45 301.384 109.46 300.98 109.47 300.575C109.493 299.582 109.513 298.589 109.532 297.596C109.357 297.626 109.182 297.657 109.003 297.688C102.983 298.715 97.0868 298.913 90.9978 298.88C90.1661 298.877 89.3345 298.878 88.5028 298.88C84.2302 298.884 79.9906 298.86 75.745 298.32C75.4557 298.284 75.1663 298.249 74.8682 298.212C74.2036 298.126 73.5416 298.03 72.8792 297.928C72.5526 297.879 72.5526 297.879 72.2193 297.83C71.705 297.753 71.191 297.675 70.677 297.596C70.635 298.729 70.6045 299.862 70.5842 300.996C70.5758 301.38 70.5643 301.765 70.5496 302.15C70.3793 304.733 70.3793 304.733 71.4717 306.976C71.7618 307.237 72.0602 307.49 72.3664 307.732C75.1724 310.399 78.1255 313.479 78.2791 317.566C78.175 319.552 77.5496 321.471 76.0458 322.838C74.1545 324.348 72.5255 324.779 70.1001 324.727C68.1634 324.501 66.4323 323.614 64.885 322.453C64.8701 322.744 64.8701 322.744 64.8549 323.041C64.3666 325.029 62.9278 326.621 61.265 327.763C59.4933 328.744 57.7852 329.069 55.8096 328.569C53.9402 327.915 52.6711 326.832 51.7474 325.078C51.1805 323.686 51.2882 322.24 51.3704 320.764C51.1973 320.842 51.0243 320.92 50.846 321.001C49.726 321.404 48.6131 321.326 47.4336 321.322C47.1905 321.326 46.9474 321.33 46.6969 321.334C44.3012 321.335 42.7574 320.776 40.9892 319.121C39.3834 317.347 39.1679 315.318 39.2235 313.001C39.4098 310.851 40.4695 309.565 42.0554 308.192C43.0904 307.432 44.2041 307.039 45.4124 306.631C45.6622 306.542 45.912 306.453 46.1694 306.361C46.9362 306.089 47.7051 305.824 48.4743 305.56C48.9581 305.389 49.4418 305.219 49.9252 305.047C51.0485 304.649 52.1744 304.26 53.301 303.871C53.4603 300.526 53.6196 297.181 53.7837 293.735C52.6488 293.316 52.6488 293.316 51.491 292.89C49.1935 292.026 47.0202 291.024 44.8543 289.873C44.6204 289.755 44.3865 289.637 44.1454 289.515C36.4051 285.51 30.7352 278.352 27.9666 270.157C25.4383 261.993 26.0785 253.332 27.237 244.985C27.1148 245.037 26.9926 245.089 26.8667 245.143C21.0839 247.59 14.4762 249.836 8.28853 247.513C5.10654 246.165 2.20932 243.914 0.879775 240.644C-1.04661 235.139 0.446938 229.682 2.88775 224.594C4.03483 222.304 5.41489 220.232 6.96496 218.197C7.06615 218.063 7.16733 217.928 7.27158 217.79C8.65176 215.958 10.0791 214.165 11.5503 212.405C11.7059 212.218 11.7059 212.218 11.8646 212.028C14.652 208.69 17.6535 205.56 20.721 202.48C20.9084 202.292 21.0959 202.103 21.289 201.909C22.4283 200.773 23.6008 199.694 24.8237 198.649C25.0927 198.415 25.3617 198.18 25.6306 197.946C26.993 196.771 28.3214 195.681 29.8917 194.788C29.1864 194.217 28.4371 193.782 27.6402 193.351C24.693 191.755 22.0657 189.916 19.6227 187.619C19.1111 187.14 18.5884 186.686 18.0512 186.236C11.1201 180.165 6.69129 170.341 6.05808 161.226C5.82177 156.879 5.92963 152.553 7.01021 148.316C7.07237 148.069 7.07237 148.069 7.13577 147.817C7.39272 146.884 7.70437 145.988 8.07418 145.094C9.09386 142.621 9.76485 140.232 10.2342 137.6C10.4235 136.543 10.6284 135.489 10.8329 134.435C10.873 134.227 10.913 134.02 10.9543 133.806C11.4864 131.085 12.1959 128.42 12.9983 125.766C13.0638 125.549 13.1293 125.332 13.1967 125.108C16.5499 114.158 21.9388 104.11 29.8917 95.841C30.0049 95.7224 30.1182 95.6038 30.2349 95.4817C31.5904 94.0693 32.9953 92.771 34.5279 91.5535C34.9786 91.1925 35.4224 90.8228 35.859 90.4449C37.9229 88.6596 40.1385 87.164 42.441 85.705C42.6055 85.6004 42.77 85.4959 42.9395 85.3882C52.3276 79.4889 63.2572 75.9244 74.1764 74.2718C74.4426 74.2313 74.7088 74.1908 74.9831 74.1491C76.5351 73.9289 78.0393 73.8284 79.6064 73.8796C79.6064 73.7203 79.6064 73.5611 79.6064 73.397C79.4471 73.3472 79.2878 73.2974 79.1237 73.2461C78.4798 72.951 78.0811 72.675 77.54 72.2355C75.4865 70.6686 73.2906 70.1289 70.7609 69.9108C69.9068 69.7693 69.4273 69.5816 68.7464 69.053C68.0974 68.0815 68.0472 67.0439 68.2637 65.9156C68.7932 64.948 69.3737 64.3648 70.3971 63.9453C73.2954 63.1787 76.1161 64.0107 78.6995 65.3585C79.5044 65.8392 80.2835 66.3482 81.0544 66.8809C81.2169 66.9929 81.3795 67.1049 81.547 67.2202C82.7596 68.0596 83.9603 68.9151 85.1571 69.777C85.3658 69.9267 85.3658 69.9267 85.5787 70.0796C87.5952 71.5279 87.5952 71.5279 88.4565 72.2431C88.9644 72.7218 88.9644 72.7218 89.5011 72.673C89.6728 72.2474 89.6728 72.2474 89.848 71.8132C89.9124 71.6536 89.9768 71.494 90.0431 71.3296C90.8657 68.6742 90.8242 65.3448 89.7424 62.7783C89.6631 62.581 89.5837 62.3838 89.502 62.1806C88.4225 59.7675 86.6724 58.0388 84.4727 56.6177C83.6763 56.0757 83.2932 55.7388 82.9851 54.8143C82.8955 53.6049 82.9566 52.8857 83.7091 51.9183C85.8505 49.984 88.3989 51.485 90.3608 52.9439ZM35.925 98.4957C35.6678 98.7416 35.6678 98.7416 35.4053 98.9926C32.7385 101.549 30.326 104.158 28.2023 107.184C28.0946 107.335 27.9869 107.487 27.8759 107.643C21.6287 116.493 17.3136 127.414 16.2346 138.212C15.9462 141.04 15.3558 143.448 14.3062 146.093C12.7629 149.983 12.0757 153.459 12.2487 157.647C12.2753 158.373 12.284 159.099 12.2903 159.826C12.3621 164.588 13.5954 168.328 15.653 172.585C15.7298 172.746 15.8067 172.908 15.8858 173.074C19.7607 181.109 27.5677 187.37 35.9093 190.3C37.3034 190.78 38.7007 191.249 40.1053 191.697C40.27 191.751 40.4348 191.805 40.6045 191.861C41.0569 192.008 41.5104 192.153 41.964 192.297C42.7301 192.637 43.0081 192.855 43.4063 193.581C43.6956 194.777 43.7962 195.225 43.2253 196.326C42.6258 197.026 42.2578 197.416 41.322 197.498C41.079 197.495 40.8361 197.491 40.5858 197.488C40.3459 197.486 40.106 197.485 39.8589 197.483C39.0623 197.442 39.0623 197.442 38.1328 197.239C36.8394 197.07 36.0412 197.747 35.0351 198.483C34.8459 198.616 34.6568 198.748 34.4619 198.885C33.8988 199.282 33.3423 199.688 32.7877 200.097C32.6351 200.209 32.4825 200.322 32.3253 200.437C31.4183 201.11 30.5316 201.805 29.6503 202.51C29.2966 202.79 29.2966 202.79 28.9358 203.075C27.7271 204.044 26.5997 205.045 25.5213 206.156C25.0692 206.609 24.6007 207.027 24.1147 207.443C22.5253 208.814 21.0853 210.31 19.7227 211.905C19.2142 212.471 18.6741 212.993 18.1266 213.521C12.6078 218.998 6.40621 227.827 6.1203 235.814C6.19521 237.711 6.74896 238.827 8.12638 240.113C10.7319 242.239 14.1394 242.135 17.3423 241.848C20.2495 241.352 22.9945 240.171 25.5505 238.729C26.0564 238.455 26.572 238.213 27.0937 237.97C28.8802 237.1 28.8802 237.1 30.1212 235.609C30.483 234.495 30.5926 233.338 30.7415 232.18C30.9669 230.794 31.3717 229.454 31.762 228.107C31.8453 227.819 31.9287 227.531 32.0146 227.234C32.5409 225.457 33.106 223.7 33.7681 221.968C33.8385 221.776 33.9089 221.584 33.9814 221.386C34.5009 220.096 35.199 219.163 36.4077 218.438C37.1643 218.237 37.5315 218.295 38.3383 218.438C38.9878 218.964 39.4136 219.382 39.7863 220.128C39.9211 221.556 39.7216 222.796 39.2283 224.14C39.166 224.319 39.1038 224.499 39.0397 224.683C38.6077 225.92 38.1533 227.148 37.702 228.377C35.7094 233.829 34.2548 239.272 33.376 245.021C33.3068 245.472 33.2349 245.921 33.1599 246.37C32.5747 249.918 32.4711 253.434 32.4558 257.022C32.453 257.349 32.453 257.349 32.4501 257.684C32.4245 261.472 32.6323 265.351 33.9189 268.953C33.9801 269.129 34.0413 269.305 34.1043 269.487C35.1069 272.249 36.6553 274.627 38.5797 276.841C38.8242 277.134 38.8242 277.134 39.0736 277.432C46.3914 285.938 57.8749 288.997 68.505 290.839C68.7589 290.883 69.0127 290.927 69.2742 290.972C71.1048 291.285 72.9395 291.554 74.7797 291.804C75.0353 291.841 75.2908 291.877 75.5541 291.915C89.6259 293.877 105.692 293.25 119.426 289.391C119.663 289.325 119.9 289.26 120.144 289.193C127.062 287.262 133.469 284.483 138.733 279.496C138.905 279.337 138.905 279.337 139.081 279.176C144.459 274.213 147.091 267.522 147.467 260.267C147.486 259.376 147.488 258.486 147.481 257.595C147.481 257.435 147.48 257.276 147.479 257.111C147.45 251.714 146.953 246.431 145.973 241.124C145.935 240.905 145.897 240.687 145.858 240.462C144.975 235.463 143.305 230.552 141.462 225.827C141.395 225.655 141.329 225.484 141.26 225.307C141.134 224.986 141.007 224.665 140.876 224.345C140.284 222.835 140.089 221.246 140.422 219.645C140.877 219.093 141.233 218.757 141.87 218.438C143.098 218.346 143.776 218.43 144.766 219.162C147.77 223.406 148.846 229.523 149.923 234.503C150.223 235.654 150.45 236.348 151.492 236.981C151.683 237.098 151.875 237.215 152.072 237.335C152.279 237.455 152.487 237.576 152.7 237.7C152.915 237.826 153.129 237.952 153.35 238.082C158.06 240.777 163.507 242.756 168.99 241.689C170.852 241.09 172.376 239.978 173.364 238.273C174.141 236.42 173.722 234.405 173.229 232.526C173.147 232.212 173.147 232.212 173.064 231.892C170.468 222.339 163.061 214.763 156.26 207.94C156.036 207.716 155.812 207.491 155.582 207.259C154.479 206.159 153.365 205.091 152.183 204.077C151.609 203.583 151.064 203.06 150.513 202.541C149.094 201.249 147.575 200.182 145.973 199.132C145.699 198.941 145.426 198.75 145.153 198.559C143.585 197.427 143.585 197.427 141.735 197.201C141.482 197.258 141.482 197.258 141.225 197.317C139.805 197.634 138.265 197.735 136.999 196.99C136.383 196.268 136.282 195.868 136.275 194.939C136.271 194.753 136.268 194.567 136.264 194.375C136.328 193.745 136.469 193.395 136.802 192.857C137.224 192.588 137.224 192.588 137.739 192.378C137.934 192.298 138.129 192.219 138.33 192.136C139.494 191.695 140.665 191.277 141.84 190.866C146.873 189.071 151.304 187.217 155.385 183.686C155.504 183.584 155.623 183.481 155.746 183.375C161.931 177.981 166.68 170.732 167.693 162.449C167.72 161.781 167.738 161.118 167.742 160.45C167.744 160.262 167.745 160.074 167.746 159.881C167.749 159.484 167.75 159.088 167.751 158.692C167.753 158.097 167.761 157.503 167.769 156.908C167.79 153.776 167.328 150.969 166.29 147.999C166.198 147.724 166.198 147.724 166.103 147.443C165.809 146.579 165.5 145.729 165.139 144.891C164.072 142.343 163.714 139.829 163.346 137.1C161.5 123.601 155.876 111.271 146.456 101.392C146.152 101.047 145.85 100.7 145.551 100.351C141.273 95.4324 135.757 91.656 130.045 88.601C129.897 88.5208 129.749 88.4407 129.596 88.3581C122.412 84.4992 114.558 82.3593 106.636 80.637C106.443 80.5938 106.249 80.5506 106.05 80.506C104.964 80.2649 103.875 80.0732 102.774 79.913C102.561 79.8806 102.347 79.8483 102.127 79.815C80.2549 76.6363 55.1755 82.0352 35.925 98.4957Z" fill="black"/>
<path d="M97.269 144.168C101.408 146.724 106.286 150.373 107.75 155.219C108.208 157.562 107.474 159.658 106.213 161.635C103.123 165.953 98.5309 169.144 93.3624 170.413C93.2134 170.455 93.0645 170.497 92.911 170.54C88.4281 171.538 84.0957 170.123 80.3304 167.758C76.786 165.379 73.4206 162.31 72.4634 157.981C72.1256 155.895 72.5363 154.207 73.7295 152.452C74.1465 151.91 74.5785 151.386 75.021 150.865C75.3122 150.492 75.3122 150.492 75.6093 150.111C76.3969 149.227 77.2462 148.48 78.1583 147.728C78.2782 147.628 78.3981 147.528 78.5216 147.425C84.5187 142.449 90.1535 140.232 97.269 144.168Z" fill="black"/>
<path d="M149.171 149.447C151.522 151.675 152.709 154.471 152.815 157.676C152.855 161.194 151.984 164.489 149.527 167.128C146.753 169.72 143.486 170.866 139.738 170.793C136.31 170.628 133.106 169.086 130.769 166.552C130.197 165.786 129.748 164.994 129.321 164.139C129.203 163.905 129.085 163.671 128.964 163.431C127.728 160.659 127.725 157.574 128.572 154.672C129.059 153.448 129.747 152.403 130.528 151.348C130.654 151.174 130.781 151 130.911 150.821C132.83 148.415 135.559 147.073 138.492 146.34C142.545 146.002 146.01 146.82 149.171 149.447Z" fill="#F4A99C"/>
<path d="M43.8891 147.245C44.2302 147.398 44.2302 147.398 44.5782 147.555C47.6584 149.08 49.4962 151.535 50.6464 154.726C51.377 158.432 51.0097 162.273 48.8816 165.466C48.5929 165.834 48.2964 166.196 47.9917 166.552C47.8536 166.722 47.7155 166.892 47.5732 167.067C45.7185 169.148 42.7129 170.575 39.9353 170.744C37.4756 170.807 35.4968 170.599 33.2704 169.448C33.0498 169.337 32.8292 169.227 32.602 169.113C30.0304 167.706 28.2048 165.263 27.2672 162.494C26.4022 158.82 26.723 154.83 28.6445 151.561C32.0364 146.623 38.3633 144.678 43.8891 147.245Z" fill="#F4A99C"/>
<path d="M59.5757 295.424C62.0843 295.902 62.0843 295.902 64.6437 296.389C64.6353 296.934 64.6269 297.479 64.6182 298.04C64.2129 305.046 64.2129 305.046 67.0452 311.142C67.5743 311.673 68.1119 312.193 68.6558 312.709C71.3077 315.227 71.3077 315.227 71.4764 316.948C71.401 317.627 71.401 317.627 70.9183 318.351C69.8179 318.316 69.2255 318.207 68.4371 317.416C68.1744 317.133 67.9155 316.846 67.6603 316.556C66.6515 315.415 65.9676 314.765 64.4023 314.489C63.3989 314.506 62.8958 314.585 62.1059 315.212C61.3501 316.126 61.0792 316.984 60.7522 318.109C59.9899 320.647 59.9899 320.647 59.3343 321.488C58.4444 321.684 58.4444 321.684 57.645 321.729C57.2158 320.988 57.1024 320.448 57.0963 319.595C57.0914 319.374 57.0864 319.153 57.0813 318.925C57.075 318.461 57.0706 317.998 57.0681 317.535C57.0462 316.228 57.0462 316.228 56.5185 315.06C55.0284 314.187 52.9063 314.694 51.2798 314.972C50.0856 315.174 48.9288 315.273 47.7202 315.289C47.4209 315.293 47.1216 315.297 46.8133 315.301C46.061 315.213 46.061 315.213 45.5802 314.922C45.337 314.489 45.337 314.489 45.3649 313.904C45.5783 313.283 45.5783 313.283 46.1108 312.891C48.0398 311.989 49.9949 311.271 52.0189 310.613C55.457 309.617 55.457 309.617 58.2455 307.513C59.355 305.243 59.1646 302.244 59.252 299.754C59.2596 299.54 59.2672 299.327 59.2749 299.107C59.2807 298.92 59.2865 298.733 59.2924 298.541C59.3544 297.5 59.4718 296.462 59.5757 295.424Z" fill="#FFBB4D"/>
<path d="M120.633 295.665C120.64 296.028 120.64 296.028 120.648 296.399C120.666 297.309 120.687 298.219 120.71 299.128C120.719 299.52 120.727 299.911 120.735 300.303C120.628 304.42 120.628 304.42 122.136 308.086C124.166 309.844 127.102 310.493 129.62 311.275C131.434 311.842 133.069 312.413 134.63 313.524C134.54 314.233 134.54 314.233 134.389 314.972C133.014 315.66 131.1 315.175 129.638 314.972C128.305 314.793 126.986 314.667 125.641 314.64C125.351 314.633 125.061 314.627 124.762 314.62C123.864 314.753 123.597 314.991 123.046 315.696C122.757 316.274 122.76 316.672 122.737 317.318C122.728 317.543 122.719 317.767 122.71 317.999C122.701 318.235 122.693 318.47 122.684 318.713C122.668 319.178 122.65 319.643 122.632 320.108C122.624 320.315 122.617 320.521 122.609 320.734C122.564 321.247 122.564 321.247 122.322 321.729C121.553 321.745 121.553 321.745 120.633 321.488C119.458 320.198 119.129 318.368 118.748 316.718C118.408 315.794 118.012 315.351 117.254 314.731C116.326 314.352 115.471 314.457 114.509 314.67C113.367 315.225 112.587 316.313 111.784 317.266C111.088 318.01 110.626 318.307 109.622 318.426C109.433 318.401 109.244 318.376 109.049 318.351C108.512 317.545 108.499 317.162 108.648 316.221C109.265 314.189 111.35 312.633 112.835 311.216C115.611 308.29 115.432 304.439 115.369 300.613C115.365 300.223 115.362 299.834 115.359 299.445C115.351 298.507 115.339 297.569 115.324 296.631C115.982 296.468 116.641 296.308 117.3 296.148C117.485 296.102 117.671 296.056 117.862 296.009C118.804 295.782 119.656 295.603 120.633 295.665Z" fill="#FFBB4D"/>
<path d="M126.64 134.409C128.493 135.452 129.901 137.239 130.528 139.281C130.602 139.981 130.608 140.674 130.603 141.378C130.601 141.668 130.601 141.668 130.599 141.965C130.55 144.358 130.035 146.203 128.356 147.969C126.547 149.652 124.576 150.329 122.11 150.254C119.973 149.933 118.253 148.77 116.923 147.099C115.459 144.943 115.319 142.779 115.565 140.246C116.008 138.13 117.072 136.248 118.84 134.972C121.29 133.468 123.973 133.154 126.64 134.409Z" fill="black"/>
<path d="M60.4986 134.567C62.293 135.83 63.5098 137.402 64.161 139.522C64.5221 142.106 64.2946 144.552 62.9845 146.823C61.6626 148.533 60.1698 149.46 58.1276 150.141C55.9357 150.363 54.1914 150.007 52.4063 148.696C50.6543 147.211 49.7443 145.902 49.4396 143.625C49.2279 140.961 49.314 138.908 50.8876 136.626C51.5061 135.902 51.5061 135.902 52.0943 135.42C52.2785 135.25 52.4626 135.081 52.6524 134.907C54.9751 133.286 58.0429 133.121 60.4986 134.567Z" fill="black"/>
<path d="M94.4739 148.769C97.2158 150.339 99.8046 152.323 101.568 154.968C101.568 155.207 101.568 155.446 101.568 155.692C99.1097 156.35 96.7976 156.454 94.258 156.456C93.9226 156.457 93.5872 156.458 93.2517 156.459C92.5503 156.46 91.8489 156.461 91.1475 156.461C90.2583 156.46 89.3692 156.464 88.4801 156.468C87.7872 156.471 87.0944 156.471 86.4015 156.471C85.9174 156.471 85.4334 156.474 84.9493 156.477C79.945 156.464 79.945 156.464 78.3998 155.692C79.6734 152.002 84.2332 149.394 87.5705 147.728C90.1525 146.772 92.0992 147.57 94.4739 148.769Z" fill="#FFBB4D"/>
<path d="M100.602 161.243C99.2817 162.31 97.9497 163.113 96.4093 163.822C96.2195 163.913 96.0298 164.004 95.8342 164.098C92.7224 165.554 89.8655 166.146 86.4995 165.104C84.0589 164.21 81.729 162.986 79.6064 161.484C79.6064 161.404 79.6064 161.325 79.6064 161.243C79.835 161.243 80.0635 161.244 80.2989 161.244C82.4576 161.249 84.6163 161.253 86.7751 161.255C87.8847 161.256 88.9944 161.258 90.1041 161.261C91.176 161.263 92.2479 161.265 93.3197 161.265C93.7277 161.266 94.1356 161.267 94.5436 161.268C95.1171 161.27 95.6906 161.27 96.2641 161.27C96.4309 161.271 96.5978 161.272 96.7696 161.273C97.6073 161.271 98.4165 161.221 99.2446 161.105C100.12 161.001 100.12 161.001 100.602 161.243Z" fill="#FFBB4D"/>
<path d="M64.0917 109.267C64.6224 109.673 64.8779 110.018 64.9939 110.651C65.0818 111.98 64.2011 112.855 63.3462 113.801C60.1551 117.243 55.2952 119.641 50.4925 119.961C50.2036 119.975 49.9152 119.982 49.626 119.986C49.5296 119.991 49.4331 119.995 49.3337 120C48.5917 120.01 48.0938 119.827 47.5241 119.366C47.0895 118.87 46.9697 118.409 47.0061 117.764C47.1118 117.071 47.504 116.7 48.0383 116.27C48.4075 116.023 48.7543 115.997 49.1906 115.975C53.3735 115.724 57.1068 114.295 60.068 111.39C60.3968 111.027 60.6717 110.65 60.9463 110.249C61.6913 109.183 62.7759 108.638 64.0917 109.267Z" fill="black"/>
<path d="M116.908 109.267C116.378 109.673 116.122 110.018 116.006 110.651C115.918 111.98 116.799 112.855 117.654 113.801C120.845 117.243 125.705 119.641 130.507 119.961C130.796 119.975 131.085 119.982 131.374 119.986C131.47 119.991 131.567 119.995 131.666 120C132.408 120.01 132.906 119.827 133.476 119.366C133.911 118.87 134.03 118.409 133.994 117.764C133.888 117.071 133.496 116.7 132.962 116.27C132.593 116.023 132.246 115.997 131.809 115.975C127.627 115.724 123.893 114.295 120.932 111.39C120.603 111.027 120.328 110.65 120.054 110.249C119.309 109.183 118.224 108.638 116.908 109.267Z" fill="black"/>
<mask id="mask0_493_17504" style="mask-type:alpha" maskUnits="userSpaceOnUse" x="47" y="135" width="16" height="24">
<path d="M55.9127 135.003C57.6299 134.954 59.1723 135.537 60.4258 136.713C61.1475 137.411 61.6125 138.159 62.0081 139.073C62.0439 139.155 62.0798 139.237 62.1166 139.322C62.632 140.772 62.425 142.483 61.7907 143.848C61.5306 144.386 61.2423 144.873 60.8376 145.316C60.7752 145.385 60.7127 145.455 60.6483 145.527C59.5991 146.638 58.0852 147.449 56.5332 147.507C56.3569 147.508 56.1807 147.508 56.0044 147.506C55.9436 147.505 55.8828 147.505 55.8202 147.505C55.6719 147.504 55.5236 147.502 55.3753 147.501C55.3949 147.582 55.4146 147.664 55.4348 147.748C56.9871 154.219 56.9871 154.219 55.615 156.574C55.0023 157.56 53.8736 158.263 52.7572 158.542C51.2798 158.758 49.9618 158.52 48.7229 157.665C47.7776 156.905 47.1807 155.714 47.0257 154.524C46.7056 151.115 49.4461 148.003 51.4736 145.55C51.314 145.28 51.1473 145.017 50.9761 144.755C50.1003 143.37 49.6382 141.705 50.0049 140.07C50.4457 138.317 51.4141 136.843 52.9562 135.874C53.8925 135.351 54.8438 135.062 55.9127 135.003Z" fill="black"/>
</mask>
<g mask="url(#mask0_493_17504)">
<rect x="47" y="145.369" width="10.6272" height="13.1575" fill="black"/>
<path d="M53.0343 147.11C54.9513 153.079 54.9513 153.079 54.1267 155.07C53.7819 155.733 53.2832 156.203 52.5868 156.482C51.7851 156.726 51.0533 156.715 50.3031 156.318C49.6646 155.872 49.2063 155.3 49.0546 154.524C48.8138 152.009 50.8662 149.523 52.3466 147.696C52.8309 147.11 52.8309 147.11 53.0343 147.11Z" fill="#AADCE7"/>
</g>
<mask id="mask1_493_17504" style="mask-type:alpha" maskUnits="userSpaceOnUse" x="119" y="135" width="16" height="24">
<path d="M125.495 135.003C123.778 134.954 122.235 135.537 120.982 136.713C120.26 137.411 119.795 138.159 119.399 139.073C119.364 139.155 119.328 139.237 119.291 139.322C118.776 140.772 118.982 142.483 119.617 143.848C119.877 144.386 120.165 144.873 120.57 145.316C120.632 145.385 120.695 145.455 120.759 145.527C121.808 146.638 123.322 147.449 124.874 147.507C125.051 147.508 125.227 147.508 125.403 147.506C125.464 147.505 125.525 147.505 125.587 147.505C125.736 147.504 125.884 147.502 126.032 147.501C126.013 147.582 125.993 147.664 125.973 147.748C124.42 154.219 124.42 154.219 125.792 156.574C126.405 157.56 127.534 158.263 128.65 158.542C130.128 158.758 131.446 158.52 132.685 157.665C133.63 156.905 134.227 155.714 134.382 154.524C134.702 151.115 131.961 148.003 129.934 145.55C130.093 145.28 130.26 145.017 130.431 144.755C131.307 143.37 131.769 141.705 131.403 140.07C130.962 138.317 129.993 136.843 128.451 135.874C127.515 135.351 126.564 135.062 125.495 135.003Z" fill="black"/>
</mask>
<g mask="url(#mask1_493_17504)">
<rect width="10.6272" height="13.1575" transform="matrix(-1 0 0 1 134.407 145.369)" fill="black"/>
<path d="M128.373 147.11C126.456 153.079 126.456 153.079 127.281 155.07C127.626 155.733 128.124 156.203 128.821 156.482C129.622 156.726 130.354 156.715 131.104 156.318C131.743 155.872 132.201 155.3 132.353 154.524C132.594 152.009 130.541 149.523 129.061 147.696C128.577 147.11 128.577 147.11 128.373 147.11Z" fill="#AADCE7"/>
</g>
<path d="M102.562 0.0109006C102.692 0.00738775 102.821 0.0038749 102.955 0.0002556C104.192 -0.00952011 105.286 0.259227 106.2 1.13217C106.952 2.03114 107.284 3.15888 107.292 4.31621C107.293 4.43809 107.293 4.43809 107.294 4.56244C107.296 4.82419 107.295 5.08585 107.294 5.34759C107.293 5.43749 107.293 5.52738 107.293 5.61999C107.286 7.02525 107.196 8.36425 106.892 9.73806C106.852 9.92577 106.852 9.92577 106.812 10.1173C106.563 11.2857 106.312 12.4548 106.011 13.611C105.474 15.6822 105.662 17.5751 106.272 19.6091C106.308 19.7318 106.345 19.8546 106.382 19.9811C106.51 20.4028 106.64 20.8236 106.771 21.2441C106.807 21.3588 106.807 21.3588 106.844 21.4758C107.763 24.4164 108.858 27.2789 109.995 30.1412C110.652 31.7942 111.286 33.4555 111.921 35.1168C112.128 35.6572 112.338 36.1963 112.549 36.7347C114.204 40.9701 115.611 45.3132 116.939 49.661C117.065 50.0664 117.196 50.4697 117.329 50.8727C118.431 54.2078 119.367 57.5999 120.197 61.0124C120.31 61.4765 120.436 61.9352 120.571 62.3934C120.814 63.2197 121.016 64.0551 121.222 64.8915C121.556 66.2462 121.926 67.5862 122.325 68.9228C122.522 69.5795 122.702 70.2399 122.88 70.9019C123.05 70.9396 123.05 70.9396 123.224 70.978C128.933 72.267 136.04 74.3671 139.442 79.5617C139.576 79.7823 139.707 80.0043 139.836 80.2278C139.892 80.3248 139.948 80.4217 140.006 80.5216C140.934 82.2458 141.258 84.299 140.782 86.2179C140.181 88.1007 139.274 89.5744 137.898 91.0072C137.793 91.1218 137.687 91.2364 137.578 91.3545C133.208 96.0084 125.867 98.1203 119.852 99.6065C119.716 99.6405 119.581 99.6745 119.441 99.7096C117.053 100.305 114.649 100.779 112.222 101.181C112.131 101.196 112.041 101.211 111.948 101.227C109.216 101.683 106.48 102.003 103.721 102.248C103.578 102.261 103.436 102.274 103.289 102.287C102.874 102.324 102.458 102.359 102.043 102.395C101.864 102.41 101.864 102.41 101.682 102.426C99.3892 102.613 97.0957 102.654 94.7959 102.655C94.512 102.655 94.2282 102.656 93.9443 102.656C93.3523 102.657 92.7603 102.657 92.1684 102.657C91.5718 102.657 90.9753 102.658 90.3788 102.659C86.8721 102.669 83.3825 102.635 79.8834 102.392C79.7397 102.382 79.596 102.373 79.4479 102.363C77.5869 102.236 75.7486 101.997 73.9031 101.728C73.484 101.668 73.0646 101.612 72.6448 101.556C64.3263 100.444 54.1272 98.6215 47.182 93.6718C47.0635 93.5875 46.945 93.5031 46.8229 93.4163C44.5709 91.7692 42.4675 89.682 41.4895 87.0104C41.4511 86.9104 41.4127 86.8105 41.3732 86.7076C40.8497 85.0555 40.8317 82.7593 41.6107 81.1968C41.6709 81.0684 41.7312 80.9401 41.7933 80.8079C42.2656 79.8655 42.8429 79.0703 43.5485 78.29C43.6392 78.1893 43.7299 78.0886 43.8234 77.9848C45.1693 76.5675 46.7973 75.5608 48.5143 74.6565C48.5886 74.6164 48.6629 74.5764 48.7395 74.5351C51.8005 72.8902 55.2021 71.7335 58.5944 71.005C58.9616 70.8923 59.0601 70.8345 59.2937 70.5385C59.4438 70.1681 59.4438 70.1681 59.5685 69.7361C59.5932 69.6561 59.6178 69.576 59.6432 69.4935C59.7221 69.2366 59.7993 68.9792 59.8765 68.7218C59.927 68.5562 59.9775 68.3906 60.0282 68.225C60.106 67.9704 60.1837 67.7158 60.2611 67.461C60.4484 66.8443 60.6406 66.2292 60.8355 65.6149C61.127 64.6957 61.4143 63.7754 61.7 62.8544C63.3282 57.6075 65.0268 52.3921 66.8519 47.2099C67.0455 46.66 67.2377 46.1097 67.4277 45.5586C69.3246 40.0571 71.561 34.6091 74.0699 29.3589C74.1929 29.0997 74.3159 28.8404 74.4389 28.5811C74.7967 27.8293 75.1591 27.0798 75.5233 26.331C75.5747 26.2246 75.6262 26.1182 75.6792 26.0086C76.4253 24.4696 77.2427 22.9784 78.0964 21.4966C78.2501 21.2264 78.4013 20.9555 78.5503 20.6827C79.2446 19.4175 80.0159 18.2166 80.8221 17.0202C80.9519 16.8266 81.0817 16.633 81.2116 16.4394C83.8183 12.5602 86.682 8.63075 90.2995 5.62011C90.3658 5.56423 90.4321 5.50836 90.5004 5.45079C93.9058 2.58856 97.9939 0.051643 102.562 0.0109006Z" fill="#AADCE7"/>
<path d="M102.562 0.0109006C102.692 0.00738775 102.821 0.0038749 102.955 0.0002556C104.192 -0.00952011 105.286 0.259227 106.2 1.13217C106.952 2.03114 107.284 3.15888 107.292 4.31621C107.293 4.43809 107.293 4.43809 107.294 4.56244C107.296 4.82419 107.295 5.08585 107.294 5.34759C107.293 5.43749 107.293 5.52738 107.293 5.61999C107.286 7.02525 107.196 8.36425 106.892 9.73806C106.852 9.92577 106.852 9.92577 106.812 10.1173C106.563 11.2857 106.312 12.4548 106.011 13.611C105.474 15.6822 105.662 17.5751 106.272 19.6091C106.308 19.7318 106.345 19.8546 106.382 19.9811C106.51 20.4028 106.64 20.8236 106.771 21.2441C106.807 21.3588 106.807 21.3588 106.844 21.4758C107.763 24.4164 108.858 27.2789 109.995 30.1412C110.652 31.7942 111.286 33.4555 111.921 35.1168C112.128 35.6572 112.338 36.1963 112.549 36.7347C114.204 40.9701 115.611 45.3132 116.939 49.661C117.065 50.0664 117.196 50.4697 117.329 50.8727C118.431 54.2078 119.367 57.5999 120.197 61.0124C120.31 61.4765 120.436 61.9352 120.571 62.3934C120.814 63.2197 121.016 64.0551 121.222 64.8915C121.556 66.2462 121.926 67.5862 122.325 68.9228C122.522 69.5795 122.702 70.2399 122.88 70.9019C123.05 70.9396 123.05 70.9396 123.224 70.978C128.933 72.267 136.04 74.3671 139.442 79.5617C139.576 79.7823 139.707 80.0043 139.836 80.2278C139.892 80.3248 139.948 80.4217 140.006 80.5216C140.934 82.2458 141.258 84.299 140.782 86.2179C140.181 88.1007 139.274 89.5744 137.898 91.0072C137.793 91.1218 137.687 91.2364 137.578 91.3545C133.208 96.0084 125.867 98.1203 119.852 99.6065C119.716 99.6405 119.581 99.6745 119.441 99.7096C117.053 100.305 114.649 100.779 112.222 101.181C112.131 101.196 112.041 101.211 111.948 101.227C109.216 101.683 106.48 102.003 103.721 102.248C103.578 102.261 103.436 102.274 103.289 102.287C102.874 102.324 102.458 102.359 102.043 102.395C101.864 102.41 101.864 102.41 101.682 102.426C99.3892 102.613 97.0957 102.654 94.7959 102.655C94.512 102.655 94.2282 102.656 93.9443 102.656C93.3523 102.657 92.7603 102.657 92.1684 102.657C91.5718 102.657 90.9753 102.658 90.3788 102.659C86.8721 102.669 83.3825 102.635 79.8834 102.392C79.7397 102.382 79.596 102.373 79.4479 102.363C77.5869 102.236 75.7486 101.997 73.9031 101.728C73.484 101.668 73.0646 101.612 72.6448 101.556C64.3263 100.444 54.1272 98.6215 47.182 93.6718C47.0635 93.5875 46.945 93.5031 46.8229 93.4163C44.5709 91.7692 42.4675 89.682 41.4895 87.0104C41.4511 86.9104 41.4127 86.8105 41.3732 86.7076C40.8497 85.0555 40.8317 82.7593 41.6107 81.1968C41.6709 81.0684 41.7312 80.9401 41.7933 80.8079C42.2656 79.8655 42.8429 79.0703 43.5485 78.29C43.6392 78.1893 43.7299 78.0886 43.8234 77.9848C45.1693 76.5675 46.7973 75.5608 48.5143 74.6565C48.5886 74.6164 48.6629 74.5764 48.7395 74.5351C51.8005 72.8902 55.2021 71.7335 58.5944 71.005C58.9616 70.8923 59.0601 70.8345 59.2937 70.5385C59.4438 70.1681 59.4438 70.1681 59.5685 69.7361C59.5932 69.6561 59.6178 69.576 59.6432 69.4935C59.7221 69.2366 59.7993 68.9792 59.8765 68.7218C59.927 68.5562 59.9775 68.3906 60.0282 68.225C60.106 67.9704 60.1837 67.7158 60.2611 67.461C60.4484 66.8443 60.6406 66.2292 60.8355 65.6149C61.127 64.6957 61.4143 63.7754 61.7 62.8544C63.3282 57.6075 65.0268 52.3921 66.8519 47.2099C67.0455 46.66 67.2377 46.1097 67.4277 45.5586C69.3246 40.0571 71.561 34.6091 74.0699 29.3589C74.1929 29.0997 74.3159 28.8404 74.4389 28.5811C74.7967 27.8293 75.1591 27.0798 75.5233 26.331C75.5747 26.2246 75.6262 26.1182 75.6792 26.0086C76.4253 24.4696 77.2427 22.9784 78.0964 21.4966C78.2501 21.2264 78.4013 20.9555 78.5503 20.6827C79.2446 19.4175 80.0159 18.2166 80.8221 17.0202C80.9519 16.8266 81.0817 16.633 81.2116 16.4394C83.8183 12.5602 86.682 8.63075 90.2995 5.62011C90.3658 5.56423 90.4321 5.50836 90.5004 5.45079C93.9058 2.58856 97.9939 0.051643 102.562 0.0109006ZM102.07 3.22758C98.8678 3.61591 96.0346 5.46858 93.5696 7.43685C93.4577 7.52522 93.3457 7.61359 93.2304 7.70463C90.8292 9.62974 88.7667 11.8914 86.9469 14.3683C86.7704 14.6051 86.59 14.8385 86.4091 15.0719C80.0218 23.3621 76.0479 33.0691 72.1093 42.6817C72.0583 42.8058 72.0072 42.9299 71.9546 43.0577C71.3432 44.5604 70.8262 46.0974 70.3024 47.6322C70.1433 48.0982 69.9837 48.5641 69.8242 49.0299C69.7931 49.1207 69.762 49.2115 69.7299 49.305C69.4831 50.025 69.2344 50.7443 68.983 51.4627C68.9496 51.5581 68.9162 51.6534 68.8818 51.7517C68.7138 52.2302 68.5404 52.7062 68.3622 53.181C68.2049 53.6092 68.0704 54.0402 67.9457 54.479C67.525 55.9578 67.0163 57.4054 66.5106 58.8569C66.0457 60.1935 65.6059 61.5306 65.2292 62.8949C65.0495 63.5454 64.8497 64.1852 64.6303 64.8233C64.3383 65.6798 64.0779 66.5425 63.8279 67.4122C63.5575 68.3531 63.2761 69.2853 62.956 70.2107C62.5053 71.5599 62.112 72.9285 61.7072 74.2921C61.4377 75.1993 61.1597 76.1019 60.8553 76.998C60.3969 78.2327 60.3969 78.2327 60.5048 79.5011C61.6727 81.5523 65.1646 82.4108 67.285 82.997C67.7383 83.1224 68.1815 83.2718 68.6272 83.4223C69.6164 83.7437 70.6323 83.9583 71.6475 84.1793C71.7287 84.197 71.8099 84.2147 71.8935 84.2329C73.7595 84.638 75.6306 84.9888 77.5217 85.2542C77.6131 85.2671 77.7045 85.2799 77.7987 85.2932C79.3351 85.5069 80.8725 85.656 82.4193 85.7689C82.5168 85.776 82.6142 85.7832 82.7147 85.7905C83.2901 85.8319 83.8657 85.8692 84.4417 85.9033C84.629 85.9144 84.8162 85.926 85.0035 85.9379C87.0548 86.0678 89.1087 86.0682 91.1633 86.0705C91.5634 86.071 91.9635 86.0727 92.3636 86.0755C95.0212 86.0935 97.6345 85.986 100.279 85.7202C100.796 85.6703 101.313 85.6304 101.831 85.5942C103.516 85.473 105.175 85.1818 106.839 84.8993C107.185 84.8419 107.531 84.7887 107.879 84.7399C109.543 84.5053 111.169 84.1114 112.8 83.7135C113.101 83.6407 113.402 83.5706 113.704 83.5032C116.089 82.9341 120.009 81.87 121.426 79.7434C121.58 78.7528 121.306 77.8277 121.027 76.8855C120.929 76.5502 120.835 76.2138 120.742 75.8771C120.43 74.7482 120.113 73.621 119.776 72.4991C119.528 71.6696 119.316 70.8333 119.109 69.9926C118.784 68.6758 118.413 67.373 118.037 66.07C117.994 65.9218 117.951 65.7737 117.907 65.621C117.823 65.3296 117.739 65.0383 117.654 64.7472C117.422 63.9419 117.218 63.1356 117.034 62.3179C116.896 61.7291 116.729 61.1495 116.559 60.5691C116.526 60.4549 116.493 60.3407 116.459 60.223C116.379 59.9472 116.299 59.6714 116.218 59.3958C115.815 59.5302 115.732 59.629 115.469 59.9484C115.083 60.4051 114.673 60.8255 114.244 61.2414C113.91 61.5873 113.8 61.7802 113.751 62.2648C113.781 63.4472 114.2 64.6182 114.575 65.7295C114.971 66.917 115.335 68.0218 114.75 69.2138C114.457 69.6666 114.204 69.8983 113.675 70.0541C112.977 70.0962 112.469 70.0144 111.828 69.7286C111.744 69.6929 111.66 69.6572 111.573 69.6204C110.97 69.3603 110.377 69.0787 109.785 68.7951C109.632 68.7226 109.479 68.6501 109.327 68.5776C109.024 68.4334 108.722 68.2866 108.421 68.1381C108.281 68.0709 108.141 68.0037 107.996 67.9345C107.871 67.8733 107.746 67.8121 107.617 67.7491C107.196 67.6125 106.953 67.6401 106.529 67.7528C106.267 67.8955 106.267 67.8955 106.022 68.0935C102.313 70.8079 102.313 70.8079 100.837 70.7103C100.288 70.5957 99.9742 70.3137 99.6406 69.8799C99.2363 68.5997 99.588 67.155 99.8071 65.8604C100.26 64.0285 100.26 64.0285 99.956 62.3012C99.7406 62.0712 99.5163 61.8778 99.2696 61.6819C99.1017 61.5377 98.9339 61.3934 98.7663 61.249C98.6846 61.1807 98.6029 61.1124 98.5188 61.0421C98.228 60.7935 97.9611 60.526 97.6951 60.2512C96.8829 59.3716 96.8829 59.3716 95.8708 58.7902C95.7421 58.5858 95.7421 58.5858 95.6286 58.3058C95.5836 58.2008 95.5387 58.0959 95.4923 57.9878C95.3082 57.2775 95.2698 56.6414 95.5605 55.9591C95.9859 55.5233 96.3889 55.3509 96.9609 55.1567C97.0783 55.1157 97.1957 55.0746 97.3166 55.0323C98.8891 54.55 100.538 54.4571 102.169 54.3089C102.347 53.8835 102.487 53.4609 102.607 53.0159C102.643 52.8856 102.679 52.7553 102.716 52.6211C102.79 52.3499 102.864 52.0786 102.937 51.8073C103.867 48.4309 103.867 48.4309 104.871 47.6021C105.396 47.306 105.948 47.2792 106.529 47.4053C107.932 48.0639 108.689 50.3433 109.335 51.6417C110.027 53.1045 110.027 53.1045 111.253 54.0667C111.601 54.1002 111.941 54.1227 112.29 54.1348C112.485 54.1435 112.68 54.1523 112.876 54.1613C113.018 54.1676 113.018 54.1676 113.163 54.1741C113.699 54.2014 114.232 54.2553 114.765 54.3089C114.535 53.3468 114.271 52.4036 113.967 51.4627C113.926 51.334 113.884 51.2053 113.842 51.0727C113.708 50.6575 113.574 50.2425 113.44 49.8276C113.347 49.5395 113.255 49.2514 113.162 48.9633C112.626 47.3011 112.085 45.6407 111.533 43.9837C111.505 43.8995 111.477 43.8152 111.448 43.7284C110.631 41.2787 109.8 38.8198 108.789 36.4423C108.522 35.8102 108.282 35.1688 108.042 34.526C107.679 33.5533 107.308 32.5838 106.936 31.6147C106.856 31.4063 106.776 31.1979 106.696 30.9895C106.579 30.6819 106.461 30.3745 106.343 30.0672C106.308 29.9756 106.273 29.8839 106.237 29.7895C106.024 29.2368 105.794 28.6946 105.548 28.1556C105.363 27.7327 105.216 27.2977 105.068 26.8609C104.807 26.1009 104.541 25.3432 104.266 24.5885C103.589 22.7296 102.969 20.876 102.532 18.9429C102.509 18.8476 102.486 18.7523 102.462 18.654C101.973 16.4915 102.2 14.2105 102.809 12.1024C103.462 9.79902 103.891 7.53256 103.917 5.13564C103.92 4.9859 103.923 4.83617 103.926 4.6819C103.925 4.47184 103.925 4.47184 103.925 4.25755C103.925 4.13202 103.925 4.00649 103.925 3.87716C103.892 3.54805 103.892 3.54805 103.645 3.33829C103.143 3.07193 102.616 3.17985 102.07 3.22758Z" fill="black"/>
<path d="M123.728 74.6562C124.435 74.7348 125.085 74.9145 125.764 75.1256C125.865 75.1566 125.967 75.1877 126.072 75.2197C126.277 75.2825 126.482 75.3455 126.687 75.4089C127.004 75.5061 127.323 75.6002 127.641 75.6943C128.339 75.9037 128.998 76.1738 129.662 76.473C129.764 76.5186 129.865 76.5643 129.97 76.6113C131.484 77.2986 132.936 78.009 134.265 79.0164C134.334 79.0689 134.404 79.1213 134.476 79.1753C135.834 80.2167 137.263 81.6124 137.535 83.3766C137.61 84.5166 137.618 85.5027 137.05 86.5257C136.999 86.6265 136.947 86.7274 136.893 86.8313C135.873 88.6245 134.18 89.9462 132.448 91.007C132.372 91.0534 132.297 91.0998 132.219 91.1476C130.423 92.2332 128.489 93.1848 126.516 93.901C126.171 94.027 125.833 94.1636 125.494 94.3037C122.336 95.6019 118.933 96.3162 115.613 97.0628C115.442 97.1015 115.442 97.1015 115.268 97.1409C115.165 97.164 115.062 97.1871 114.957 97.2109C114.871 97.2301 114.786 97.2493 114.698 97.2691C113.865 97.4463 113.032 97.5962 112.189 97.719C112.085 97.7344 111.981 97.7498 111.873 97.7657C111.654 97.798 111.435 97.8302 111.217 97.8624C110.9 97.909 110.584 97.9564 110.267 98.004C107.852 98.3672 105.45 98.712 103.01 98.8565C102.529 98.8876 102.048 98.9293 101.568 98.9722C100.426 99.0682 99.2866 99.145 98.1421 99.1879C97.9382 99.1956 97.9382 99.1956 97.7303 99.2034C96.3217 99.2532 94.9137 99.265 93.5043 99.2675C93.3703 99.2678 93.2362 99.2682 93.0981 99.2685C92.3881 99.2703 91.6781 99.2714 90.9681 99.272C90.3942 99.2725 89.8203 99.2742 89.2463 99.2769C85.7882 99.2932 82.3668 99.2285 78.9229 98.9029C78.4992 98.8634 78.0753 98.8269 77.6514 98.79C75.6575 98.6162 73.6958 98.3177 71.7241 97.9829C71.317 97.916 70.9098 97.8553 70.5012 97.798C63.9521 96.8768 56.91 95.1336 51.0578 91.9759C50.94 91.9156 50.8223 91.8554 50.701 91.7933C49.3054 91.0656 48.0752 90.1571 46.9398 89.0691C46.845 88.982 46.7503 88.8949 46.6526 88.8051C45.4023 87.6201 44.5363 86.2168 44.4481 84.4742C44.4175 83.0079 44.8024 82.042 45.7665 80.924C45.9531 80.7297 46.1423 80.5378 46.3342 80.3487C46.4162 80.2669 46.4981 80.1851 46.5826 80.1008C49.1708 77.6637 52.7884 76.1464 56.1446 75.1407C56.2716 75.1023 56.3985 75.0639 56.5293 75.0243C57.0658 74.8694 57.5209 74.7584 58.0825 74.7774C57.9671 75.3282 57.8432 75.8733 57.6841 76.4134C57.2142 78.0191 56.8822 79.5287 57.6482 81.1114C58.8015 83.077 61.2939 84.2905 63.3601 85.041C63.7459 85.1827 64.1276 85.3321 64.5097 85.4834C65.3209 85.796 66.142 86.0503 66.977 86.291C67.179 86.3501 67.179 86.3501 67.3851 86.4105C67.6586 86.4904 67.9324 86.5697 68.2063 86.6484C68.4813 86.7279 68.756 86.8088 69.0302 86.8911C70.1092 87.2108 71.1938 87.4532 72.2985 87.6611C72.3929 87.679 72.4873 87.6968 72.5845 87.7152C75.1265 88.1911 77.6882 88.5016 80.2576 88.7869C80.5895 88.8245 80.921 88.8643 81.2526 88.9051C87.6338 89.6842 94.3961 89.6849 100.779 88.9118C101.3 88.8501 101.816 88.8115 102.34 88.7916C103.834 88.7343 105.286 88.4764 106.756 88.2137C106.894 88.1895 107.032 88.1652 107.173 88.1402C116.719 86.7225 116.719 86.7225 124.261 81.3919C125.033 80.1271 124.78 78.6431 124.448 77.2692C124.296 76.6786 124.137 76.0905 123.97 75.5041C123.944 75.4136 123.919 75.323 123.892 75.2298C123.838 75.0385 123.783 74.8473 123.728 74.6562Z" fill="#AADCE7"/>
<path d="M87.9984 24.9984C89.136 25.4921 89.7633 26.8647 90.3071 27.9128C90.9692 29.2023 90.9692 29.2023 91.8741 30.3276C92.2267 30.344 92.5768 30.3531 92.9296 30.3574C93.15 30.3614 93.3704 30.3654 93.5908 30.3694C93.9383 30.3751 94.2859 30.3805 94.6335 30.3853C94.9689 30.3902 95.3042 30.3964 95.6396 30.4028C95.7416 30.4038 95.8435 30.4048 95.9486 30.4059C96.8517 30.4243 97.933 30.4583 98.6566 31.0542C99.03 31.4882 99.2459 31.8688 99.2082 32.4556C98.8187 34.1618 97.439 35.893 96.2381 37.1148C95.9517 37.4354 95.9517 37.4354 95.8332 37.8367C95.8596 38.0937 95.9137 38.3174 95.992 38.5635C96.015 38.6414 96.0381 38.7192 96.0618 38.7995C96.1399 39.0444 96.2273 39.2841 96.3175 39.5248C96.3492 39.6131 96.381 39.7014 96.4136 39.7923C96.5782 40.2492 96.7496 40.7027 96.9283 41.1542C97.3507 42.243 97.6303 43.1927 97.4454 44.3771C97.1781 44.9733 96.8227 45.3049 96.2343 45.5882C94.3232 45.8569 92.168 45.0071 90.4618 44.2304C90.3558 44.1839 90.2498 44.1373 90.1406 44.0894C90.0461 44.046 89.9517 44.0026 89.8544 43.9579C89.4606 43.8666 89.3246 43.9412 88.9673 44.1348C88.6109 44.3738 88.2668 44.6281 87.9227 44.8842C87.1181 45.4742 86.309 46.0404 85.4549 46.5572C85.3423 46.6257 85.2298 46.6942 85.1138 46.7649C84.284 47.2665 83.7797 47.5144 82.7903 47.405C82.2423 47.1359 81.9497 46.8686 81.7003 46.3149C81.6413 45.8755 81.6431 45.4406 81.6473 44.9978C81.6477 44.868 81.6481 44.7382 81.6485 44.6044C81.6767 42.9 81.9324 41.2156 82.1848 39.5324C82.1115 39.497 82.0382 39.4617 81.9627 39.4253C80.985 38.9219 80.1114 38.1018 79.3097 37.3608C79.001 37.0783 78.6811 36.8128 78.3545 36.5513C78.015 36.2089 77.9104 35.8663 77.9078 35.3917C77.9308 34.6924 78.006 34.0303 78.512 33.5102C79.188 33.0124 79.9655 32.7808 80.7569 32.5337C81.4117 32.3237 82.0511 32.0829 82.6692 31.7809C82.7476 31.75 82.826 31.719 82.9067 31.6871C83.3601 31.4701 83.5879 31.2805 83.8079 30.8207C83.958 30.3751 84.0865 29.9267 84.2059 29.4722C85.5237 24.745 85.5237 24.745 87.9984 24.9984Z" fill="black"/>
<path d="M79.0513 55.3844C79.8898 55.9331 80.1849 56.8093 80.421 57.7381C80.472 57.9299 80.5231 58.1216 80.5743 58.3134C80.6128 58.4605 80.6128 58.4605 80.6521 58.6105C80.7831 59.108 80.9199 59.6039 81.0568 60.0999C81.0813 60.1902 81.1058 60.2806 81.1311 60.3737C81.197 60.6137 81.2668 60.8527 81.3369 61.0915C81.3581 61.1946 81.3793 61.2976 81.4011 61.4038C81.6064 61.742 81.6696 61.7596 82.0341 61.8693C82.2302 61.9168 82.427 61.9616 82.6243 62.0041C82.7289 62.029 82.8335 62.0539 82.9412 62.0795C83.2765 62.1589 83.6124 62.2347 83.9485 62.3102C84.2814 62.3867 84.6142 62.4639 84.9467 62.5423C85.1534 62.5908 85.3605 62.6382 85.5679 62.6842C86.3782 62.8719 87.1984 63.1012 87.819 63.6747C88.1723 64.3123 88.112 64.991 87.9983 65.6939C87.7883 66.1402 87.5056 66.4455 87.1505 66.784C87.0626 66.8703 86.9747 66.9567 86.8841 67.0456C86.2432 67.6463 85.5548 68.1882 84.8597 68.7242C84.7232 68.8295 84.5876 68.9359 84.4529 69.0434C84.3074 69.1567 84.1579 69.265 84.0057 69.369C83.5578 69.6964 83.5578 69.6964 83.3272 70.1847C83.3078 70.4764 83.3157 70.7541 83.3353 71.0458C83.3389 71.1491 83.3424 71.2524 83.346 71.3588C83.3696 71.9673 83.424 72.5713 83.4882 73.1767C83.5316 73.7632 83.5457 74.3487 83.5549 74.9366C83.5585 75.0524 83.562 75.1683 83.5657 75.2876C83.5716 75.9866 83.5181 76.4131 83.0325 76.9578C82.4477 77.2952 81.8854 77.4369 81.2158 77.3211C80.4666 77.0359 79.8264 76.5607 79.1871 76.0872C79.0453 75.9834 79.0453 75.9834 78.9006 75.8775C78.6221 75.6731 78.3443 75.4678 78.0668 75.2621C77.9162 75.1513 77.7656 75.0404 77.615 74.9295C76.5876 74.1674 76.5876 74.1674 76.25 73.8087C75.7976 73.9858 75.3548 74.1788 74.9125 74.3798C74.7724 74.4429 74.6323 74.5061 74.4879 74.5712C74.1963 74.7028 73.9048 74.835 73.6136 74.9676C71.4659 75.9326 71.4659 75.9326 70.4819 75.8904C70.3804 75.8871 70.2789 75.8839 70.1743 75.8805C70.101 75.8763 70.0276 75.8721 69.952 75.8677C69.952 75.7878 69.952 75.7078 69.952 75.6255C69.882 75.618 69.8121 75.6105 69.74 75.6028C69.3407 75.4586 69.2139 75.2528 68.983 74.8988C68.9081 74.5561 68.8736 74.2899 68.8695 73.945C68.8683 73.8486 68.8672 73.7522 68.866 73.6529C68.9155 72.341 69.4534 71.119 69.9227 69.9093C70.3145 68.9192 70.3145 68.9192 70.4364 67.874C70.3096 67.6254 70.3096 67.6254 70.0807 67.4653C69.516 66.9699 69.0776 66.4087 68.6197 65.8151C68.5237 65.6926 68.4277 65.5702 68.3287 65.4441C67.5853 64.4802 67.068 63.7679 67.0991 62.5118C67.2158 61.938 67.5684 61.574 68.0141 61.2126C68.3696 61.0044 68.6323 60.9389 69.0428 60.9318C69.1494 60.9294 69.2561 60.927 69.366 60.9245C69.5371 60.9224 69.5371 60.9224 69.7116 60.9202C69.8292 60.9179 69.9468 60.9156 70.068 60.9131C70.4431 60.9059 70.8183 60.9003 71.1934 60.8947C71.448 60.8901 71.7025 60.8853 71.957 60.8805C72.5806 60.8689 73.2041 60.8587 73.8277 60.8493C73.8651 60.7743 73.9025 60.6993 73.9411 60.622C74.5332 59.4398 75.155 58.2696 75.8034 57.1174C75.8754 56.9892 75.9474 56.861 76.0215 56.729C76.73 55.6097 77.6634 54.8114 79.0513 55.3844Z" fill="black"/>
<path d="M105.924 51.4019C106.376 51.5526 106.435 51.746 106.645 52.1552C106.711 52.2882 106.711 52.2882 106.779 52.4238C106.875 52.6108 106.971 52.7976 107.068 52.9844C107.118 53.082 107.168 53.1796 107.22 53.2802C107.482 53.7836 107.754 54.2812 108.028 54.778C108.078 54.8708 108.129 54.9636 108.181 55.0592C108.229 55.1459 108.277 55.2327 108.326 55.3221C108.368 55.3984 108.41 55.4747 108.453 55.5533C108.584 55.7718 108.584 55.7718 108.786 55.9561C108.951 56.1254 108.951 56.1254 108.951 56.3676C109.026 56.3851 109.101 56.4026 109.179 56.4206C109.436 56.4887 109.436 56.4887 109.678 56.6099C109.867 56.6338 110.057 56.6516 110.247 56.6662C110.363 56.6755 110.479 56.6848 110.598 56.6944C110.722 56.704 110.845 56.7135 110.973 56.7234C112.081 56.8139 113.18 56.9309 114.281 57.0943C114.085 57.5695 113.758 57.9075 113.41 58.2752C113.289 58.4051 113.168 58.535 113.048 58.6651C112.989 58.728 112.93 58.7909 112.87 58.8557C111.522 60.1983 111.522 60.1983 110.988 61.9163C110.986 62.042 110.984 62.1676 110.982 62.2971C111.011 62.6792 111.103 62.9212 111.253 63.2713C111.335 63.5838 111.413 63.8956 111.487 64.2099C111.62 64.7595 111.757 65.2973 111.949 65.8299C112.094 66.2394 112.134 66.5877 112.1 67.0259C111.594 66.8317 111.107 66.6033 110.619 66.3668C110.495 66.3073 110.495 66.3073 110.37 66.2465C110.197 66.1631 110.024 66.0795 109.852 65.9958C109.587 65.8674 109.321 65.7394 109.056 65.6115C108.888 65.5302 108.72 65.4489 108.552 65.3676C108.433 65.3101 108.433 65.3101 108.311 65.2514C107.754 64.9808 107.754 64.9808 107.619 64.8458C106.739 64.7089 106.186 64.9685 105.469 65.4514C105.376 65.5114 105.282 65.5715 105.185 65.6334C104.996 65.7551 104.807 65.8778 104.618 66.0014C104.232 66.255 103.841 66.5011 103.448 66.7458C103.326 66.8237 103.204 66.9016 103.078 66.9819C102.774 67.147 102.774 67.147 102.411 67.147C102.428 66.7407 102.446 66.3345 102.464 65.9283C102.469 65.8141 102.474 65.6998 102.479 65.5822C102.506 64.9655 102.559 64.3664 102.653 63.7557C102.835 62.4562 102.835 62.4562 102.402 61.2582C102.039 60.8018 101.621 60.4029 101.2 60.0011C100.92 59.7242 100.64 59.4462 100.361 59.1677C100.176 58.9836 99.9884 58.8009 99.7996 58.6199C99.6712 58.4954 99.6712 58.4954 99.5403 58.3684C99.4633 58.2949 99.3863 58.2213 99.3069 58.1455C99.141 57.9421 99.141 57.9421 99.141 57.5788C99.4769 57.4668 99.7303 57.4303 100.08 57.4056C100.194 57.3967 100.307 57.3878 100.424 57.3787C100.66 57.3609 100.897 57.3439 101.133 57.3276C102.223 57.24 103.208 57.0806 104.05 56.3426C104.443 55.8637 104.635 55.306 104.803 54.7174C105.136 53.5984 105.533 52.5016 105.924 51.4019Z" fill="#F8E482"/>
<path d="M87.3927 28.9956C87.7799 29.1582 87.9536 29.2979 88.1554 29.6651C88.2035 29.7504 88.2516 29.8358 88.3012 29.9238C88.3511 30.0147 88.4011 30.1056 88.4525 30.1992C89.3375 31.8478 89.3375 31.8478 90.6629 33.1136C91.0543 33.1796 91.4388 33.17 91.8348 33.1609C91.9468 33.1602 92.0589 33.1595 92.1743 33.1588C92.531 33.1561 92.8875 33.15 93.2442 33.1438C93.4865 33.1414 93.7288 33.1392 93.9711 33.1372C94.564 33.1319 95.1569 33.1235 95.7497 33.1136C95.5748 33.4715 95.3837 33.7884 95.1517 34.1128C94.7533 34.6764 94.3566 35.2412 93.9633 35.8084C93.9061 35.8899 93.849 35.9715 93.7902 36.0555C93.2572 36.8254 92.8302 37.4737 92.9641 38.4427C93.1872 39.5369 93.5307 40.4796 94.0224 41.4829C94.2196 41.9358 94.2771 42.3122 94.2964 42.8029C93.7162 42.7272 93.1974 42.561 92.6542 42.352C92.4783 42.2861 92.3024 42.2203 92.1264 42.1545C91.8522 42.0511 91.5782 41.9473 91.3045 41.8427C91.0382 41.7412 90.7714 41.6415 90.5044 41.542C90.4236 41.5106 90.3428 41.4792 90.2596 41.4469C89.6203 41.2104 89.0385 41.096 88.3967 41.367C88.2902 41.4337 88.1837 41.5003 88.074 41.569C87.9507 41.645 87.8273 41.7211 87.7002 41.7994C87.378 42.0061 87.0575 42.2155 86.737 42.4249C86.5991 42.5147 86.5991 42.5147 86.4585 42.6064C86.2763 42.7257 86.0946 42.8459 85.9136 42.967C85.8297 43.0224 85.7457 43.0779 85.6592 43.135C85.5848 43.1848 85.5103 43.2346 85.4336 43.2859C85.2 43.4155 84.989 43.4767 84.7282 43.5296C84.7149 42.8065 84.7309 42.0933 84.7887 41.3722C85.0153 39.6326 85.0153 39.6326 84.4537 38.0528C84.119 37.7091 83.7503 37.4189 83.3699 37.1274C82.9993 36.8427 82.6378 36.5516 82.2831 36.2475C82.169 36.1522 82.0549 36.057 81.9373 35.9589C81.7002 35.657 81.7002 35.657 81.7244 35.2568C81.7564 35.149 81.7884 35.0413 81.8214 34.9303C81.9385 34.8996 82.0555 34.8688 82.1762 34.8371C82.5864 34.729 82.9961 34.6192 83.4056 34.5085C83.6045 34.4549 83.8037 34.4023 84.0029 34.3498C84.8981 34.1017 85.507 33.7598 86.0604 32.9924C86.2051 32.6611 86.2051 32.6611 86.3069 32.305C86.3474 32.1747 86.388 32.0444 86.4297 31.9102C86.4905 31.7077 86.4905 31.7077 86.5525 31.5012C86.6344 31.2341 86.7166 30.9671 86.799 30.7002C86.8571 30.5113 86.8571 30.5113 86.9164 30.3186C87.0594 29.8706 87.2215 29.4335 87.3927 28.9956Z" fill="#F8E482"/>
<path d="M77.8245 59.1538C77.9044 59.1538 77.9844 59.1538 78.0667 59.1538C78.2037 59.5952 78.3397 60.0368 78.4755 60.4785C78.5139 60.6023 78.5523 60.726 78.5919 60.8535C78.7624 61.4094 78.9225 61.9546 79.0285 62.5266C79.1427 63.069 79.3626 63.3848 79.7094 63.8168C79.8069 63.9404 79.9045 64.0641 80.0051 64.1915C80.377 64.6399 80.4943 64.6297 81.0833 64.6868C81.231 64.7018 81.3787 64.7167 81.5308 64.732C81.8418 64.7624 82.1528 64.7927 82.4638 64.8229C83.2763 64.9051 84.0568 65.0107 84.8492 65.2096C84.6889 65.6907 84.3823 65.8402 83.9787 66.1104C83.2341 66.6224 82.5485 67.1798 81.8752 67.7821C81.3608 68.2375 81.3608 68.2375 81.0946 68.2375C80.6105 69.324 80.6905 70.411 80.7086 71.5758C80.7104 71.7809 80.712 71.986 80.7135 72.1911C80.7175 72.69 80.7238 73.1889 80.7313 73.6878C80.1592 73.5957 79.8237 73.369 79.3839 73.0065C77.7929 71.7273 77.7929 71.7273 75.8459 71.3359C74.7018 71.4665 73.5927 71.9623 72.5866 72.5056C72.3742 72.5977 72.3742 72.5977 72.0109 72.5977C72.0784 72.3175 72.1465 72.0374 72.2153 71.7575C72.2471 71.6275 72.2471 71.6275 72.2795 71.4948C72.4174 70.9416 72.5738 70.3981 72.7465 69.8548C73.195 68.5744 73.195 68.5744 73.1009 67.2686C72.7464 66.6887 72.2902 66.1846 71.8418 65.6765C71.5493 65.3382 71.2794 64.9848 71.0117 64.6268C70.9236 64.5111 70.8356 64.3954 70.7448 64.2762C70.5575 63.9985 70.5575 63.9985 70.5575 63.7562C70.6386 63.7532 70.7197 63.7502 70.8032 63.747C71.178 63.7328 71.5528 63.718 71.9276 63.7032C72.0551 63.6985 72.1826 63.6937 72.3139 63.6888C73.9965 63.7086 73.9965 63.7086 75.5233 63.1507C75.6505 62.9526 75.7708 62.75 75.8866 62.5451C75.9503 62.4369 76.014 62.3287 76.0797 62.2172C76.3006 61.8396 76.5214 61.4619 76.742 61.0841C76.8192 60.9523 76.8964 60.8204 76.976 60.6846C77.05 60.5577 77.1241 60.4309 77.2004 60.3002C77.2679 60.1848 77.3354 60.0694 77.4049 59.9505C77.5538 59.6883 77.6931 59.4251 77.8245 59.1538Z" fill="#F8E482"/>
</svg>
