<svg width="350" height="350" viewBox="0 0 350 350" fill="none" xmlns="http://www.w3.org/2000/svg">
<path d="M172.96 64.8385C176.323 67.5609 178.734 71.8724 179.333 76.1608C179.549 78.8926 179.577 81.6848 178.636 84.2896C179.017 84.3026 179.017 84.3026 179.405 84.3159C184.353 84.5138 189.152 85.2202 193.964 86.3798C194.283 86.4547 194.283 86.4547 194.609 86.5311C200.513 87.928 206.18 89.958 211.615 92.6506C211.827 92.7551 212.039 92.8596 212.257 92.9672C216.768 95.2115 220.936 97.8441 224.854 101.012C224.995 101.125 225.135 101.239 225.281 101.356C228.463 103.948 231.386 106.833 233.912 110.069C234.269 110.501 234.627 110.931 234.986 111.361C237.779 114.795 239.923 118.662 241.832 122.644C242.029 123.052 242.231 123.456 242.434 123.86C245.696 130.528 247.702 137.814 249.075 145.086C249.686 148.272 250.462 151.296 251.53 154.353C252.32 156.62 252.91 158.778 253.188 161.165C253.229 161.436 253.27 161.708 253.313 161.988C254.467 171.416 251.765 181.046 245.989 188.57C242.649 192.821 238.77 196.231 234.144 199.022C233.996 199.111 233.848 199.2 233.696 199.292C231.043 200.88 231.043 200.88 230.196 200.88C230.196 201.033 230.196 201.186 230.196 201.344C230.363 201.402 230.531 201.46 230.704 201.52C231.803 202.006 232.639 202.818 233.548 203.592C233.902 203.891 234.262 204.184 234.621 204.477C236.453 205.984 238.144 207.623 239.819 209.299C239.984 209.463 239.984 209.463 240.152 209.631C241.321 210.8 242.461 211.982 243.538 213.236C244.095 213.881 244.68 214.498 245.263 215.12C246.291 216.226 247.274 217.355 248.219 218.533C248.634 219.051 249.053 219.564 249.478 220.074C253.16 224.516 256.323 229.021 258.139 234.539C258.271 234.939 258.411 235.336 258.553 235.732C259.513 238.806 259.526 243.04 258.066 245.936C257.984 246.1 257.903 246.264 257.819 246.433C255.966 249.708 253.207 251.533 249.705 252.672C244.11 253.962 237.962 252.209 232.983 249.652C233.059 249.806 233.136 249.959 233.215 250.117C234.999 261.573 234.419 273.695 227.377 283.337C222.347 290 215.345 293.682 207.667 296.567C207.667 299.863 207.667 303.158 207.667 306.554C208.357 306.707 209.047 306.86 209.757 307.018C210.803 307.34 211.833 307.703 212.864 308.068C213.34 308.237 213.818 308.401 214.296 308.565C217.167 309.568 219.462 310.655 221.109 313.289C221.781 315.058 221.647 317.568 220.944 319.314C219.924 321.113 218.52 322.354 216.535 322.935C215.983 323.054 215.484 323.074 214.92 323.075C214.709 323.075 214.498 323.075 214.281 323.076C214.062 323.075 213.844 323.074 213.619 323.073C213.293 323.074 213.293 323.074 212.962 323.076C211.867 323.074 210.833 323.038 209.757 322.812C209.768 322.972 209.779 323.132 209.79 323.297C209.875 325.499 209.325 327.097 207.833 328.733C206.511 329.892 204.922 330.331 203.197 330.308C201.393 330.126 199.646 329.205 198.377 327.921C197.568 326.822 196.881 325.665 196.287 324.437C196.141 324.532 195.995 324.628 195.844 324.726C193.646 326.11 191.713 326.637 189.087 326.295C187.371 325.723 185.831 324.871 184.907 323.276C183.862 321.17 183.609 319.16 184.311 316.904C185.22 314.661 186.866 312.88 188.589 311.223C189.226 310.598 189.806 309.933 190.385 309.255C190.638 308.963 190.905 308.685 191.177 308.412C191.234 307.797 191.264 307.204 191.274 306.588C191.278 306.409 191.283 306.229 191.287 306.044C191.301 305.469 191.312 304.894 191.322 304.319C191.331 303.929 191.34 303.539 191.35 303.15C191.372 302.194 191.392 301.239 191.41 300.283C191.242 300.312 191.073 300.342 190.9 300.372C185.107 301.36 179.433 301.55 173.573 301.519C172.773 301.516 171.972 301.517 171.172 301.519C167.06 301.523 162.98 301.5 158.894 300.98C158.616 300.946 158.337 300.912 158.051 300.877C157.411 300.793 156.774 300.701 156.136 300.602C155.822 300.556 155.822 300.556 155.501 300.508C155.006 300.434 154.512 300.359 154.017 300.283C153.977 301.374 153.947 302.464 153.928 303.555C153.92 303.925 153.909 304.296 153.895 304.666C153.731 307.152 153.731 307.152 154.782 309.31C155.061 309.562 155.348 309.805 155.643 310.038C158.343 312.605 161.185 315.568 161.333 319.502C161.233 321.413 160.631 323.26 159.184 324.575C157.364 326.028 155.796 326.443 153.462 326.393C151.598 326.175 149.932 325.322 148.443 324.205C148.429 324.485 148.429 324.485 148.414 324.771C147.944 326.684 146.56 328.215 144.959 329.315C143.254 330.259 141.61 330.572 139.709 330.09C137.91 329.462 136.689 328.419 135.8 326.731C135.254 325.391 135.358 324 135.437 322.579C135.271 322.654 135.104 322.73 134.932 322.807C133.855 323.196 132.784 323.12 131.648 323.116C131.414 323.12 131.181 323.124 130.939 323.128C128.634 323.129 127.148 322.591 125.447 320.998C123.901 319.291 123.694 317.338 123.747 315.108C123.927 313.04 124.946 311.802 126.473 310.48C127.469 309.749 128.541 309.371 129.703 308.978C129.944 308.892 130.184 308.807 130.432 308.719C131.17 308.457 131.91 308.202 132.65 307.947C133.116 307.783 133.581 307.619 134.046 307.454C135.127 307.071 136.211 306.696 137.295 306.322C137.448 303.103 137.602 299.884 137.76 296.567C136.667 296.165 136.667 296.165 135.553 295.754C133.342 294.923 131.251 293.958 129.166 292.851C128.941 292.737 128.716 292.624 128.484 292.506C121.035 288.652 115.579 281.763 112.914 273.877C110.481 266.021 111.097 257.685 112.212 249.652C112.094 249.703 111.977 249.753 111.856 249.805C106.29 252.159 99.9314 254.32 93.9766 252.086C90.9144 250.788 88.1262 248.622 86.8467 245.475C84.9928 240.177 86.4301 234.925 88.7791 230.029C89.883 227.824 91.2111 225.83 92.7028 223.873C92.8002 223.743 92.8976 223.614 92.9979 223.481C94.3262 221.717 95.6998 219.992 97.1156 218.298C97.2653 218.119 97.2653 218.119 97.4181 217.935C100.101 214.723 102.989 211.711 105.941 208.747C106.122 208.566 106.302 208.384 106.488 208.197C107.584 207.104 108.713 206.066 109.889 205.06C110.148 204.835 110.407 204.609 110.666 204.383C111.977 203.253 113.256 202.203 114.767 201.344C114.088 200.795 113.367 200.376 112.6 199.961C109.764 198.425 107.235 196.656 104.884 194.446C104.392 193.984 103.889 193.547 103.372 193.114C96.7016 187.272 92.4395 177.818 91.8301 169.046C91.6027 164.862 91.7065 160.699 92.7464 156.621C92.8062 156.384 92.8062 156.384 92.8672 156.141C93.1145 155.244 93.4144 154.381 93.7703 153.521C94.7516 151.141 95.3974 148.841 95.849 146.308C96.0312 145.291 96.2284 144.277 96.4252 143.262C96.4638 143.063 96.5023 142.863 96.542 142.658C97.0541 140.039 97.7369 137.474 98.5091 134.92C98.5721 134.711 98.6352 134.502 98.7001 134.286C101.927 123.749 107.113 114.079 114.767 106.121C114.876 106.007 114.985 105.893 115.097 105.775C116.401 104.416 117.753 103.167 119.228 101.995C119.662 101.648 120.089 101.292 120.509 100.928C122.496 99.2101 124.628 97.7707 126.844 96.3666C127.002 96.266 127.16 96.1655 127.323 96.0618C136.358 90.3845 146.877 86.9541 157.385 85.3637C157.641 85.3248 157.897 85.2858 158.161 85.2456C159.655 85.0337 161.102 84.937 162.61 84.9863C162.61 84.833 162.61 84.6798 162.61 84.5218C162.457 84.4739 162.304 84.426 162.146 84.3767C161.526 84.0926 161.143 83.8271 160.622 83.4041C158.646 81.8961 156.532 81.3768 154.098 81.1669C153.276 81.0307 152.814 80.8501 152.159 80.3413C151.535 79.4064 151.486 78.4079 151.695 77.322C152.204 76.3908 152.763 75.8296 153.748 75.4259C156.537 74.6881 159.251 75.4889 161.738 76.7859C162.512 77.2485 163.262 77.7384 164.004 78.251C164.16 78.3588 164.317 78.4665 164.478 78.5775C165.645 79.3853 166.801 80.2086 167.952 81.0381C168.153 81.1822 168.153 81.1822 168.358 81.3293C170.299 82.7231 170.299 82.7231 171.128 83.4114C171.616 83.8721 171.616 83.8721 172.133 83.8251C172.298 83.4155 172.298 83.4155 172.467 82.9977C172.529 82.8441 172.591 82.6905 172.654 82.5323C173.446 79.9768 173.406 76.7728 172.365 74.3028C172.289 74.113 172.212 73.9232 172.134 73.7276C171.095 71.4053 169.411 69.7416 167.294 68.374C166.527 67.8525 166.159 67.5282 165.862 66.6385C165.776 65.4747 165.835 64.7825 166.559 63.8515C168.62 61.99 171.072 63.4345 172.96 64.8385Z" fill="#FFF1A6"/>
<path d="M172.96 64.8385C176.323 67.5609 178.734 71.8724 179.333 76.1608C179.549 78.8926 179.577 81.6848 178.636 84.2896C179.017 84.3026 179.017 84.3026 179.405 84.3159C184.353 84.5138 189.152 85.2202 193.964 86.3798C194.283 86.4547 194.283 86.4547 194.609 86.5311C200.513 87.928 206.18 89.958 211.615 92.6506C211.827 92.7551 212.039 92.8596 212.257 92.9672C216.768 95.2115 220.936 97.8441 224.854 101.012C224.995 101.125 225.135 101.239 225.281 101.356C228.463 103.948 231.386 106.833 233.912 110.069C234.269 110.501 234.627 110.931 234.986 111.361C237.779 114.795 239.923 118.662 241.832 122.644C242.029 123.052 242.231 123.456 242.434 123.86C245.696 130.528 247.702 137.814 249.075 145.086C249.686 148.272 250.462 151.296 251.53 154.353C252.32 156.62 252.91 158.778 253.188 161.165C253.229 161.436 253.27 161.708 253.313 161.988C254.467 171.416 251.765 181.046 245.989 188.57C242.649 192.821 238.77 196.231 234.144 199.022C233.996 199.111 233.848 199.2 233.696 199.292C231.043 200.88 231.043 200.88 230.196 200.88C230.196 201.033 230.196 201.186 230.196 201.344C230.363 201.402 230.531 201.46 230.704 201.52C231.803 202.006 232.639 202.818 233.548 203.592C233.902 203.891 234.262 204.184 234.621 204.477C236.453 205.984 238.144 207.623 239.819 209.299C239.984 209.463 239.984 209.463 240.152 209.631C241.321 210.8 242.461 211.982 243.538 213.236C244.095 213.881 244.68 214.498 245.263 215.12C246.291 216.226 247.274 217.355 248.219 218.533C248.634 219.051 249.053 219.564 249.478 220.074C253.16 224.516 256.323 229.021 258.139 234.539C258.271 234.939 258.411 235.336 258.553 235.732C259.513 238.806 259.526 243.04 258.066 245.936C257.984 246.1 257.903 246.264 257.819 246.433C255.966 249.708 253.207 251.533 249.705 252.672C244.11 253.962 237.962 252.209 232.983 249.652C233.059 249.806 233.136 249.959 233.215 250.117C234.999 261.573 234.419 273.695 227.377 283.337C222.347 290 215.345 293.682 207.667 296.567C207.667 299.863 207.667 303.158 207.667 306.554C208.357 306.707 209.047 306.86 209.757 307.018C210.803 307.34 211.833 307.703 212.864 308.068C213.34 308.237 213.818 308.401 214.296 308.565C217.167 309.568 219.462 310.655 221.109 313.289C221.781 315.058 221.647 317.568 220.944 319.314C219.924 321.113 218.52 322.354 216.535 322.935C215.983 323.054 215.484 323.074 214.92 323.075C214.709 323.075 214.498 323.075 214.281 323.076C214.062 323.075 213.844 323.074 213.619 323.073C213.293 323.074 213.293 323.074 212.962 323.076C211.867 323.074 210.833 323.038 209.757 322.812C209.768 322.972 209.779 323.132 209.79 323.297C209.875 325.499 209.325 327.097 207.833 328.733C206.511 329.892 204.922 330.331 203.197 330.308C201.393 330.126 199.646 329.205 198.377 327.921C197.568 326.822 196.881 325.665 196.287 324.437C196.141 324.532 195.995 324.628 195.844 324.726C193.646 326.11 191.713 326.637 189.087 326.295C187.371 325.723 185.831 324.871 184.907 323.276C183.862 321.17 183.609 319.16 184.311 316.904C185.22 314.661 186.866 312.88 188.589 311.223C189.226 310.598 189.806 309.933 190.385 309.255C190.638 308.963 190.905 308.685 191.177 308.412C191.234 307.797 191.264 307.204 191.274 306.588C191.278 306.409 191.283 306.229 191.287 306.044C191.301 305.469 191.312 304.894 191.322 304.319C191.331 303.929 191.34 303.539 191.35 303.15C191.372 302.194 191.392 301.239 191.41 300.283C191.242 300.312 191.073 300.342 190.9 300.372C185.107 301.36 179.433 301.55 173.573 301.519C172.773 301.516 171.972 301.517 171.172 301.519C167.06 301.523 162.98 301.5 158.894 300.98C158.616 300.946 158.337 300.912 158.051 300.877C157.411 300.793 156.774 300.701 156.136 300.602C155.822 300.556 155.822 300.556 155.501 300.508C155.006 300.434 154.512 300.359 154.017 300.283C153.977 301.374 153.947 302.464 153.928 303.555C153.92 303.925 153.909 304.296 153.895 304.666C153.731 307.152 153.731 307.152 154.782 309.31C155.061 309.562 155.348 309.805 155.643 310.038C158.343 312.605 161.185 315.568 161.333 319.502C161.233 321.413 160.631 323.26 159.184 324.575C157.364 326.028 155.796 326.443 153.462 326.393C151.598 326.175 149.932 325.322 148.443 324.205C148.429 324.485 148.429 324.485 148.414 324.771C147.944 326.684 146.56 328.215 144.959 329.315C143.254 330.259 141.61 330.572 139.709 330.09C137.91 329.462 136.689 328.419 135.8 326.731C135.254 325.391 135.358 324 135.437 322.579C135.271 322.654 135.104 322.73 134.932 322.807C133.855 323.196 132.784 323.12 131.648 323.116C131.414 323.12 131.181 323.124 130.939 323.128C128.634 323.129 127.148 322.591 125.447 320.998C123.901 319.291 123.694 317.338 123.747 315.108C123.927 313.04 124.946 311.802 126.473 310.48C127.469 309.749 128.541 309.371 129.703 308.978C129.944 308.892 130.184 308.807 130.432 308.719C131.17 308.457 131.91 308.202 132.65 307.947C133.116 307.783 133.581 307.619 134.046 307.454C135.127 307.071 136.211 306.696 137.295 306.322C137.448 303.103 137.602 299.884 137.76 296.567C136.667 296.165 136.667 296.165 135.553 295.754C133.342 294.923 131.251 293.958 129.166 292.851C128.941 292.737 128.716 292.624 128.484 292.506C121.035 288.652 115.579 281.763 112.914 273.877C110.481 266.021 111.097 257.685 112.212 249.652C112.094 249.703 111.977 249.753 111.856 249.805C106.29 252.159 99.9314 254.32 93.9766 252.086C90.9144 250.788 88.1262 248.622 86.8467 245.475C84.9928 240.177 86.4301 234.925 88.7791 230.029C89.883 227.824 91.2111 225.83 92.7028 223.873C92.8002 223.743 92.8976 223.614 92.9979 223.481C94.3262 221.717 95.6998 219.992 97.1156 218.298C97.2653 218.119 97.2653 218.119 97.4181 217.935C100.101 214.723 102.989 211.711 105.941 208.747C106.122 208.566 106.302 208.384 106.488 208.197C107.584 207.104 108.713 206.066 109.889 205.06C110.148 204.835 110.407 204.609 110.666 204.383C111.977 203.253 113.256 202.203 114.767 201.344C114.088 200.795 113.367 200.376 112.6 199.961C109.764 198.425 107.235 196.656 104.884 194.446C104.392 193.984 103.889 193.547 103.372 193.114C96.7016 187.272 92.4395 177.818 91.8301 169.046C91.6027 164.862 91.7065 160.699 92.7464 156.621C92.8062 156.384 92.8062 156.384 92.8672 156.141C93.1145 155.244 93.4144 154.381 93.7703 153.521C94.7516 151.141 95.3974 148.841 95.849 146.308C96.0312 145.291 96.2284 144.277 96.4252 143.262C96.4638 143.063 96.5023 142.863 96.542 142.658C97.0541 140.039 97.7369 137.474 98.5091 134.92C98.5721 134.711 98.6352 134.502 98.7001 134.286C101.927 123.749 107.113 114.079 114.767 106.121C114.876 106.007 114.985 105.893 115.097 105.775C116.401 104.416 117.753 103.167 119.228 101.995C119.662 101.648 120.089 101.292 120.509 100.928C122.496 99.2101 124.628 97.7707 126.844 96.3666C127.002 96.266 127.16 96.1655 127.323 96.0618C136.358 90.3845 146.877 86.9541 157.385 85.3637C157.641 85.3248 157.897 85.2858 158.161 85.2456C159.655 85.0337 161.102 84.937 162.61 84.9863C162.61 84.833 162.61 84.6798 162.61 84.5218C162.457 84.4739 162.304 84.426 162.146 84.3767C161.526 84.0926 161.143 83.8271 160.622 83.4041C158.646 81.8961 156.532 81.3768 154.098 81.1669C153.276 81.0307 152.814 80.8501 152.159 80.3413C151.535 79.4064 151.486 78.4079 151.695 77.322C152.204 76.3908 152.763 75.8296 153.748 75.4259C156.537 74.6881 159.251 75.4889 161.738 76.7859C162.512 77.2485 163.262 77.7384 164.004 78.251C164.16 78.3588 164.317 78.4665 164.478 78.5775C165.645 79.3853 166.801 80.2086 167.952 81.0381C168.153 81.1822 168.153 81.1822 168.358 81.3293C170.299 82.7231 170.299 82.7231 171.128 83.4114C171.616 83.8721 171.616 83.8721 172.133 83.8251C172.298 83.4155 172.298 83.4155 172.467 82.9977C172.529 82.8441 172.591 82.6905 172.654 82.5323C173.446 79.9768 173.406 76.7728 172.365 74.3028C172.289 74.113 172.212 73.9232 172.134 73.7276C171.095 71.4053 169.411 69.7416 167.294 68.374C166.527 67.8525 166.159 67.5282 165.862 66.6385C165.776 65.4747 165.835 64.7825 166.559 63.8515C168.62 61.99 171.072 63.4345 172.96 64.8385ZM120.573 108.676C120.325 108.913 120.325 108.913 120.073 109.154C117.506 111.615 115.185 114.125 113.141 117.037C113.037 117.183 112.934 117.329 112.827 117.479C106.815 125.996 102.662 136.506 101.624 146.898C101.346 149.619 100.778 151.936 99.7678 154.482C98.2826 158.226 97.6212 161.571 97.7878 165.601C97.8133 166.3 97.8217 166.998 97.8278 167.698C97.8968 172.281 99.0838 175.88 101.064 179.977C101.138 180.132 101.212 180.287 101.288 180.447C105.017 188.18 112.53 194.205 120.558 197.026C121.899 197.488 123.244 197.939 124.596 198.37C124.754 198.422 124.913 198.474 125.076 198.527C125.512 198.669 125.948 198.808 126.385 198.947C127.122 199.274 127.39 199.484 127.773 200.183C128.051 201.333 128.148 201.765 127.599 202.825C127.022 203.498 126.667 203.874 125.767 203.952C125.533 203.949 125.299 203.946 125.058 203.942C124.828 203.941 124.597 203.939 124.359 203.938C123.592 203.899 123.592 203.899 122.698 203.703C121.453 203.541 120.685 204.192 119.717 204.901C119.535 205.028 119.352 205.155 119.165 205.287C118.623 205.67 118.087 206.06 117.554 206.454C117.407 206.562 117.26 206.67 117.109 206.781C116.236 207.428 115.383 208.097 114.534 208.776C114.194 209.045 114.194 209.045 113.847 209.32C112.684 210.252 111.599 211.215 110.561 212.284C110.126 212.72 109.675 213.122 109.207 213.523C107.678 214.842 106.292 216.282 104.98 217.817C104.491 218.361 103.971 218.864 103.444 219.373C98.1333 224.644 92.1651 233.14 91.89 240.827C91.9621 242.652 92.495 243.726 93.8206 244.964C96.328 247.01 99.6072 246.91 102.69 246.633C105.487 246.156 108.129 245.019 110.589 243.632C111.076 243.368 111.572 243.135 112.074 242.902C113.793 242.064 113.793 242.064 114.988 240.629C115.336 239.557 115.441 238.443 115.585 237.33C115.802 235.996 116.191 234.706 116.567 233.409C116.647 233.132 116.727 232.855 116.81 232.57C117.316 230.859 117.86 229.168 118.497 227.501C118.565 227.317 118.633 227.132 118.702 226.942C119.202 225.7 119.874 224.802 121.037 224.105C121.766 223.911 122.119 223.967 122.895 224.105C123.52 224.61 123.93 225.013 124.289 225.731C124.419 227.105 124.227 228.298 123.752 229.592C123.692 229.764 123.632 229.937 123.57 230.115C123.155 231.305 122.717 232.487 122.283 233.67C120.365 238.916 118.966 244.154 118.12 249.687C118.053 250.121 117.984 250.553 117.912 250.986C117.349 254.4 117.249 257.783 117.234 261.236C117.232 261.551 117.232 261.551 117.229 261.873C117.204 265.518 117.404 269.252 118.642 272.718C118.701 272.888 118.76 273.057 118.821 273.232C119.786 275.89 121.276 278.178 123.128 280.31C123.363 280.591 123.363 280.591 123.603 280.878C130.645 289.064 141.697 292.008 151.927 293.78C152.171 293.823 152.415 293.865 152.667 293.909C154.429 294.21 156.194 294.468 157.965 294.709C158.211 294.745 158.457 294.78 158.711 294.816C172.253 296.704 187.715 296.101 200.932 292.387C201.16 292.324 201.388 292.261 201.622 292.196C208.28 290.339 214.446 287.663 219.512 282.864C219.678 282.712 219.678 282.712 219.847 282.556C225.022 277.78 227.555 271.341 227.917 264.359C227.935 263.501 227.938 262.645 227.931 261.788C227.93 261.634 227.93 261.48 227.929 261.322C227.901 256.128 227.422 251.044 226.48 245.936C226.443 245.726 226.406 245.516 226.368 245.299C225.519 240.488 223.912 235.762 222.138 231.215C222.074 231.05 222.01 230.885 221.944 230.715C221.823 230.406 221.7 230.097 221.574 229.789C221.005 228.335 220.817 226.807 221.138 225.266C221.575 224.734 221.918 224.412 222.531 224.105C223.713 224.016 224.365 224.096 225.318 224.802C228.209 228.886 229.244 234.772 230.28 239.565C230.569 240.673 230.788 241.34 231.79 241.949C231.975 242.062 232.159 242.174 232.349 242.29C232.548 242.406 232.748 242.522 232.954 242.641C233.16 242.763 233.366 242.884 233.579 243.009C238.111 245.603 243.353 247.507 248.63 246.481C250.422 245.903 251.888 244.834 252.84 243.193C253.587 241.41 253.184 239.471 252.709 237.662C252.631 237.36 252.631 237.36 252.551 237.052C250.052 227.858 242.924 220.568 236.379 214.002C236.164 213.785 235.949 213.569 235.727 213.346C234.666 212.287 233.593 211.26 232.455 210.284C231.904 209.808 231.378 209.305 230.849 208.805C229.483 207.562 228.021 206.536 226.48 205.525C226.216 205.341 225.953 205.157 225.69 204.973C224.181 203.884 224.181 203.884 222.401 203.667C222.158 203.722 222.158 203.722 221.91 203.778C220.543 204.084 219.062 204.181 217.843 203.463C217.25 202.769 217.153 202.384 217.146 201.489C217.143 201.31 217.139 201.131 217.136 200.947C217.197 200.34 217.333 200.003 217.654 199.486C218.06 199.227 218.06 199.227 218.556 199.025C218.743 198.948 218.931 198.872 219.124 198.793C220.244 198.367 221.371 197.966 222.502 197.57C227.346 195.842 231.61 194.059 235.537 190.661C235.652 190.562 235.766 190.463 235.884 190.361C241.837 185.17 246.407 178.194 247.382 170.223C247.408 169.579 247.426 168.942 247.429 168.298C247.431 168.118 247.432 167.937 247.433 167.751C247.435 167.369 247.437 166.988 247.438 166.607C247.44 166.035 247.447 165.463 247.455 164.89C247.475 161.876 247.031 159.175 246.032 156.316C245.943 156.051 245.943 156.051 245.852 155.781C245.569 154.95 245.272 154.132 244.924 153.325C243.897 150.873 243.553 148.454 243.199 145.827C241.423 132.836 236.009 120.97 226.944 111.463C226.652 111.131 226.361 110.797 226.073 110.461C221.956 105.728 216.648 102.094 211.151 99.1537C211.008 99.0765 210.866 98.9994 210.719 98.9199C203.805 95.2063 196.247 93.1469 188.623 91.4894C188.437 91.4478 188.251 91.4062 188.059 91.3634C187.014 91.1313 185.966 90.9468 184.907 90.7926C184.701 90.7615 184.496 90.7304 184.284 90.6984C163.235 87.6392 139.099 92.835 120.573 108.676Z" fill="black"/>
<path d="M179.608 152.629C183.592 155.089 188.286 158.601 189.695 163.265C190.136 165.52 189.429 167.536 188.216 169.439C185.242 173.594 180.823 176.665 175.849 177.887C175.705 177.927 175.562 177.967 175.414 178.009C171.1 178.969 166.931 177.608 163.307 175.332C159.896 173.042 156.658 170.088 155.736 165.922C155.411 163.915 155.806 162.291 156.955 160.601C157.356 160.08 157.772 159.576 158.198 159.074C158.478 158.715 158.478 158.715 158.764 158.349C159.522 157.498 160.339 156.78 161.217 156.055C161.332 155.959 161.448 155.863 161.567 155.763C167.338 150.975 172.761 148.841 179.608 152.629Z" fill="black"/>
<path d="M229.557 157.71C231.819 159.854 232.962 162.545 233.064 165.629C233.103 169.015 232.264 172.185 229.9 174.725C227.23 177.22 224.086 178.323 220.479 178.253C217.18 178.093 214.097 176.609 211.848 174.171C211.297 173.434 210.865 172.671 210.454 171.848C210.341 171.623 210.227 171.399 210.11 171.167C208.921 168.499 208.918 165.531 209.733 162.738C210.202 161.56 210.864 160.554 211.615 159.539C211.737 159.372 211.859 159.204 211.985 159.032C213.831 156.716 216.457 155.425 219.28 154.72C223.181 154.395 226.516 155.182 229.557 157.71Z" fill="#F4A99C"/>
<path d="M128.237 155.59C128.566 155.738 128.566 155.738 128.901 155.889C131.865 157.357 133.633 159.719 134.74 162.79C135.443 166.357 135.09 170.053 133.042 173.125C132.764 173.48 132.479 173.829 132.186 174.17C132.053 174.334 131.92 174.498 131.783 174.667C129.998 176.669 127.105 178.042 124.432 178.205C122.065 178.266 120.161 178.065 118.018 176.957C117.806 176.851 117.594 176.745 117.375 176.635C114.9 175.281 113.143 172.93 112.241 170.266C111.409 166.73 111.717 162.89 113.567 159.744C116.831 154.992 122.92 153.12 128.237 155.59Z" fill="#F4A99C"/>
<path d="M143.334 298.193C145.748 298.653 145.748 298.653 148.211 299.122C148.203 299.646 148.195 300.17 148.186 300.71C147.796 307.453 147.796 307.453 150.522 313.319C151.031 313.831 151.549 314.331 152.072 314.828C154.624 317.251 154.624 317.251 154.786 318.907C154.714 319.56 154.714 319.56 154.249 320.257C153.19 320.223 152.62 320.118 151.862 319.358C151.609 319.085 151.36 318.809 151.114 318.529C150.143 317.432 149.485 316.807 147.979 316.541C147.013 316.557 146.529 316.633 145.769 317.237C145.041 318.116 144.781 318.942 144.466 320.024C143.732 322.467 143.732 322.467 143.101 323.276C142.245 323.465 142.245 323.465 141.476 323.508C141.063 322.795 140.953 322.275 140.948 321.454C140.943 321.241 140.938 321.029 140.933 320.809C140.927 320.364 140.923 319.918 140.92 319.472C140.899 318.214 140.899 318.214 140.391 317.09C138.957 316.25 136.915 316.738 135.35 317.005C134.201 317.2 133.087 317.295 131.924 317.31C131.636 317.314 131.348 317.318 131.052 317.322C130.328 317.237 130.328 317.237 129.865 316.957C129.631 316.541 129.631 316.541 129.658 315.978C129.863 315.379 129.863 315.379 130.375 315.003C132.232 314.135 134.113 313.444 136.061 312.81C139.37 311.852 139.37 311.852 142.053 309.827C143.121 307.642 142.938 304.756 143.022 302.36C143.029 302.154 143.037 301.949 143.044 301.737C143.05 301.558 143.055 301.378 143.061 301.193C143.121 300.19 143.234 299.192 143.334 298.193Z" fill="#FFBB4D"/>
<path d="M202.093 298.425C202.1 298.775 202.1 298.775 202.107 299.131C202.125 300.007 202.145 300.882 202.167 301.758C202.176 302.135 202.184 302.511 202.191 302.888C202.088 306.851 202.088 306.851 203.539 310.378C205.493 312.07 208.318 312.695 210.742 313.447C212.488 313.993 214.061 314.542 215.564 315.612C215.477 316.294 215.477 316.294 215.331 317.005C214.008 317.667 212.166 317.201 210.759 317.005C209.477 316.833 208.207 316.712 206.912 316.686C206.633 316.679 206.354 316.673 206.067 316.666C205.203 316.794 204.945 317.024 204.416 317.702C204.137 318.258 204.14 318.642 204.118 319.263C204.109 319.479 204.101 319.695 204.092 319.918C204.084 320.145 204.076 320.372 204.067 320.605C204.051 321.053 204.034 321.5 204.016 321.948C204.009 322.147 204.002 322.346 203.995 322.551C203.951 323.044 203.951 323.044 203.719 323.508C202.979 323.523 202.979 323.523 202.093 323.276C200.962 322.034 200.646 320.273 200.279 318.686C199.952 317.797 199.571 317.369 198.842 316.773C197.949 316.409 197.126 316.509 196.2 316.715C195.1 317.248 194.35 318.296 193.577 319.213C192.908 319.929 192.462 320.214 191.497 320.329C191.315 320.305 191.133 320.282 190.945 320.257C190.428 319.481 190.415 319.113 190.559 318.207C191.153 316.251 193.159 314.754 194.588 313.391C197.26 310.575 197.088 306.868 197.027 303.186C197.024 302.812 197.02 302.437 197.018 302.062C197.01 301.16 196.998 300.257 196.984 299.354C197.617 299.198 198.251 299.043 198.885 298.89C199.064 298.845 199.242 298.801 199.426 298.755C200.333 298.538 201.153 298.365 202.093 298.425Z" fill="#FFBB4D"/>
<path d="M176.918 157.058C179.557 158.569 182.049 160.478 183.745 163.023C183.745 163.253 183.745 163.483 183.745 163.72C181.38 164.353 179.155 164.453 176.711 164.455C176.388 164.456 176.065 164.457 175.742 164.458C175.067 164.459 174.392 164.46 173.717 164.459C172.861 164.459 172.006 164.463 171.15 164.467C170.483 164.469 169.817 164.47 169.15 164.47C168.684 164.47 168.218 164.472 167.752 164.475C162.936 164.463 162.936 164.463 161.449 163.72C162.675 160.168 167.063 157.659 170.275 156.055C172.76 155.136 174.633 155.903 176.918 157.058Z" fill="#FFBB4D"/>
<path d="M182.816 169.061C181.545 170.088 180.263 170.861 178.781 171.543C178.598 171.631 178.416 171.719 178.228 171.809C175.233 173.211 172.483 173.78 169.244 172.777C166.895 171.917 164.653 170.739 162.61 169.294C162.61 169.217 162.61 169.14 162.61 169.061C162.83 169.062 163.05 169.062 163.277 169.063C165.354 169.068 167.432 169.071 169.509 169.073C170.577 169.075 171.645 169.076 172.713 169.079C173.745 169.081 174.776 169.083 175.808 169.083C176.2 169.084 176.593 169.085 176.985 169.086C177.537 169.088 178.089 169.088 178.641 169.088C178.802 169.088 178.962 169.089 179.128 169.09C179.934 169.088 180.713 169.041 181.51 168.929C182.352 168.829 182.352 168.829 182.816 169.061Z" fill="#FFBB4D"/>
<path d="M133.293 145.744C133.445 145.739 133.445 145.739 133.599 145.734C134.228 145.822 134.617 146.261 135.043 146.742C135.137 146.847 135.231 146.951 135.327 147.059C135.515 147.272 135.702 147.485 135.889 147.699C138.064 149.956 141.02 150.577 143.922 150.501C146.613 150.382 149.296 149.235 151.128 147.063C151.253 146.913 151.376 146.76 151.497 146.607C151.895 146.109 152.157 145.82 152.761 145.733C153.488 145.722 154.057 145.745 154.61 146.301C155.029 146.807 155.247 147.3 155.29 147.986C155.216 149.36 154.176 150.516 153.293 151.405C151.572 153.022 149.595 153.999 147.429 154.677C147.303 154.719 147.303 154.719 147.174 154.761C143.381 155.974 138.985 155.258 135.537 153.246C134.048 152.339 131.817 150.645 131.274 148.787C131.171 147.849 131.228 147.191 131.752 146.431C132.248 145.929 132.624 145.758 133.293 145.744Z" fill="black"/>
<path d="M192.04 146.707C192.152 146.703 192.263 146.698 192.377 146.694C193.136 146.804 193.589 147.353 194.064 147.91C195.745 149.798 198.319 150.804 200.819 151.02C203.759 151.172 206.866 150.659 209.137 148.652C209.515 148.292 209.868 147.921 210.208 147.524C210.567 147.105 210.847 146.794 211.416 146.708C212.099 146.669 212.655 146.795 213.199 147.219C213.637 147.694 213.883 148.118 213.995 148.756C213.882 149.994 212.945 151.019 212.04 151.789C208.551 154.635 204.186 155.702 199.728 155.258C199.047 155.16 198.386 155.007 197.724 154.82C197.605 154.788 197.605 154.788 197.483 154.755C194.742 153.992 191.906 152.336 190.299 149.943C189.998 149.406 189.85 148.899 189.987 148.288C190.393 147.379 191.015 146.734 192.04 146.707Z" fill="black"/>
<path d="M209.632 103.39C209.763 103.389 209.763 103.389 209.896 103.388C209.991 103.388 210.086 103.388 210.184 103.387C210.285 103.387 210.387 103.386 210.488 103.385C210.764 103.383 211.039 103.382 211.314 103.382C211.486 103.381 211.658 103.381 211.831 103.38C212.37 103.378 212.909 103.377 213.448 103.376C214.069 103.376 214.691 103.373 215.312 103.369C215.793 103.366 216.274 103.364 216.755 103.364C217.042 103.364 217.329 103.363 217.616 103.361C217.886 103.358 218.156 103.358 218.426 103.359C218.572 103.359 218.718 103.357 218.863 103.355C219.361 103.36 219.681 103.397 220.061 103.733C220.636 104.325 220.707 104.829 220.711 105.629C220.712 105.718 220.713 105.806 220.714 105.898C220.715 106.085 220.716 106.272 220.717 106.459C220.718 106.744 220.722 107.028 220.727 107.313C220.728 107.495 220.729 107.678 220.729 107.86C220.731 107.944 220.733 108.028 220.735 108.115C220.73 108.741 220.549 109.121 220.168 109.612C220.117 109.678 220.117 109.678 220.065 109.745C219.976 109.855 219.883 109.961 219.789 110.067C219.72 110.147 219.651 110.226 219.583 110.306C219.548 110.346 219.514 110.386 219.478 110.427C219.273 110.67 219.079 110.921 218.884 111.172C218.679 111.435 218.471 111.696 218.262 111.956C217.632 112.737 217.031 113.539 216.445 114.353C216.415 114.394 216.385 114.436 216.355 114.478C216.213 114.677 216.091 114.873 215.985 115.092C216.05 115.09 216.114 115.088 216.18 115.086C216.754 115.066 217.328 115.049 217.901 115.033C218.214 115.025 218.525 115.014 218.837 115.003C218.968 114.999 219.099 114.996 219.23 114.993C219.288 114.99 219.345 114.988 219.404 114.985C219.85 114.978 220.165 115.126 220.528 115.381C220.837 115.697 220.978 116.016 220.981 116.458C220.981 116.527 220.982 116.596 220.983 116.667C220.983 116.777 220.983 116.777 220.983 116.89C220.983 116.966 220.983 117.043 220.984 117.122C220.984 117.283 220.984 117.445 220.984 117.607C220.983 117.853 220.985 118.1 220.987 118.346C220.987 118.504 220.987 118.661 220.987 118.819C220.988 118.892 220.988 118.965 220.989 119.04C220.986 119.526 220.947 119.969 220.623 120.358C220.581 120.39 220.54 120.422 220.497 120.455C220.455 120.489 220.414 120.522 220.371 120.556C220.079 120.753 219.876 120.807 219.521 120.808C219.389 120.809 219.389 120.809 219.254 120.81C219.156 120.81 219.059 120.81 218.961 120.81C218.859 120.81 218.756 120.811 218.653 120.811C218.374 120.813 218.094 120.813 217.815 120.813C217.641 120.813 217.466 120.813 217.292 120.814C216.682 120.815 216.073 120.816 215.463 120.816C214.896 120.815 214.329 120.817 213.761 120.819C213.274 120.821 212.786 120.822 212.298 120.822C212.007 120.822 211.716 120.822 211.425 120.824C211.151 120.825 210.878 120.825 210.604 120.824C210.503 120.824 210.403 120.824 210.303 120.825C209.675 120.83 209.174 120.818 208.701 120.359C208.652 120.288 208.652 120.288 208.603 120.216C208.57 120.17 208.537 120.123 208.502 120.075C208.336 119.79 208.252 119.542 208.247 119.211C208.244 119.11 208.244 119.11 208.242 119.006C208.242 118.933 208.241 118.86 208.24 118.785C208.239 118.672 208.239 118.672 208.238 118.555C208.237 118.395 208.236 118.234 208.235 118.074C208.234 117.83 208.229 117.587 208.225 117.344C208.209 115.835 208.209 115.835 208.702 115.164C208.744 115.104 208.785 115.044 208.828 114.982C208.958 114.8 209.095 114.624 209.234 114.448C209.337 114.316 209.439 114.184 209.542 114.052C209.594 113.986 209.646 113.919 209.699 113.851C209.951 113.529 210.199 113.204 210.447 112.879C210.494 112.817 210.542 112.754 210.592 112.69C210.94 112.233 211.276 111.768 211.61 111.301C211.908 110.885 212.223 110.484 212.546 110.087C212.734 109.862 212.734 109.862 212.885 109.612C212.845 109.612 212.805 109.612 212.764 109.612C212.345 109.61 211.926 109.606 211.507 109.601C211.351 109.599 211.195 109.598 211.039 109.598C210.814 109.597 210.589 109.594 210.364 109.591C210.295 109.591 210.226 109.591 210.155 109.592C209.604 109.58 209.099 109.441 208.706 109.034C208.273 108.498 208.247 107.976 208.246 107.309C208.245 107.226 208.245 107.143 208.244 107.058C208.243 106.883 208.243 106.707 208.243 106.532C208.243 106.265 208.24 105.997 208.237 105.73C208.237 105.559 208.237 105.389 208.237 105.218C208.235 105.139 208.234 105.059 208.233 104.977C208.236 104.51 208.279 104.223 208.558 103.843C208.903 103.525 209.163 103.393 209.632 103.39Z" fill="black"/>
<path d="M218.725 105.43C218.904 108.053 218.904 108.053 218.315 108.729C218.188 108.865 218.058 108.995 217.922 109.122C217.691 109.345 217.5 109.599 217.301 109.851C217.223 109.947 217.145 110.043 217.066 110.138C216.766 110.507 216.484 110.888 216.202 111.27C215.598 112.08 214.993 112.888 214.364 113.678C213.373 114.831 213.373 114.831 213.029 116.246C213.112 116.57 213.26 116.708 213.534 116.895C213.787 116.979 213.99 116.979 214.258 116.982C214.309 116.983 214.36 116.983 214.413 116.984C214.583 116.986 214.753 116.988 214.923 116.99C215.04 116.991 215.158 116.993 215.276 116.994C215.585 116.998 215.895 117.002 216.205 117.005C216.521 117.009 216.837 117.013 217.153 117.017C217.773 117.025 218.394 117.032 219.014 117.039C219.014 117.61 219.014 118.181 219.014 118.77C216.087 118.77 213.16 118.77 210.145 118.77C210.145 116.14 210.145 116.14 210.876 115.368C210.923 115.322 210.971 115.277 211.019 115.229C211.231 115.014 211.402 114.773 211.578 114.529C211.648 114.434 211.719 114.339 211.79 114.245C211.826 114.196 211.863 114.147 211.9 114.097C212.128 113.795 212.358 113.495 212.587 113.195C213.004 112.65 213.415 112.1 213.82 111.547C214.093 111.175 214.369 110.805 214.647 110.437C215.442 109.519 215.442 109.519 215.769 108.422C215.716 108.076 215.588 107.905 215.336 107.665C215.094 107.584 214.907 107.581 214.652 107.578C214.605 107.577 214.558 107.577 214.509 107.576C214.353 107.574 214.198 107.572 214.042 107.57C213.934 107.569 213.826 107.567 213.718 107.566C213.434 107.562 213.15 107.558 212.866 107.555C212.576 107.551 212.286 107.547 211.996 107.543C211.427 107.535 210.858 107.528 210.289 107.521C210.289 106.855 210.289 106.188 210.289 105.502C210.951 105.489 211.614 105.477 212.276 105.466C212.326 105.465 212.376 105.464 212.427 105.463C214.527 105.427 216.625 105.421 218.725 105.43Z" fill="#AADCE7"/>
<path d="M225.058 97.7862C225.23 97.7845 225.23 97.7845 225.405 97.7829C225.531 97.7827 225.656 97.7824 225.786 97.7822C225.92 97.7813 226.053 97.7804 226.187 97.7794C226.55 97.7769 226.914 97.7756 227.277 97.7748C227.504 97.7742 227.731 97.7735 227.958 97.7726C228.67 97.77 229.381 97.7682 230.092 97.7674C230.912 97.7666 231.732 97.7632 232.552 97.7577C233.186 97.7536 233.821 97.7517 234.455 97.7514C234.834 97.7512 235.212 97.7501 235.591 97.7467C235.947 97.7436 236.304 97.7432 236.66 97.7448C236.853 97.7451 237.045 97.7424 237.237 97.7397C237.894 97.7458 238.316 97.7944 238.817 98.2386C239.575 99.0194 239.67 99.684 239.675 100.74C239.677 100.857 239.678 100.974 239.679 101.094C239.681 101.341 239.682 101.588 239.682 101.835C239.684 102.211 239.69 102.586 239.697 102.961C239.698 103.202 239.699 103.443 239.699 103.683C239.702 103.794 239.704 103.905 239.707 104.02C239.7 104.846 239.462 105.347 238.958 105.995C238.891 106.081 238.891 106.081 238.823 106.17C238.706 106.315 238.582 106.455 238.459 106.595C238.368 106.7 238.277 106.805 238.186 106.91C238.141 106.963 238.095 107.016 238.048 107.07C237.777 107.39 237.522 107.722 237.264 108.053C236.994 108.4 236.72 108.745 236.443 109.088C235.612 110.118 234.82 111.176 234.047 112.25C234.007 112.305 233.968 112.359 233.927 112.415C233.74 112.677 233.58 112.936 233.44 113.225C233.525 113.222 233.609 113.22 233.697 113.217C234.454 113.191 235.211 113.168 235.968 113.147C236.38 113.136 236.791 113.122 237.203 113.107C237.376 113.103 237.549 113.099 237.721 113.095C237.797 113.091 237.873 113.087 237.951 113.084C238.539 113.075 238.955 113.27 239.434 113.606C239.841 114.023 240.028 114.445 240.031 115.027C240.032 115.118 240.033 115.209 240.034 115.302C240.033 115.448 240.033 115.448 240.033 115.597C240.034 115.698 240.034 115.799 240.035 115.903C240.035 116.116 240.035 116.33 240.035 116.543C240.034 116.868 240.037 117.193 240.039 117.518C240.039 117.726 240.039 117.934 240.039 118.142C240.04 118.238 240.041 118.335 240.042 118.434C240.038 119.076 239.986 119.66 239.559 120.173C239.504 120.215 239.449 120.258 239.392 120.301C239.337 120.345 239.283 120.389 239.226 120.434C238.841 120.694 238.574 120.765 238.105 120.767C237.93 120.768 237.93 120.768 237.752 120.769C237.624 120.769 237.495 120.769 237.367 120.769C237.231 120.77 237.095 120.77 236.96 120.771C236.591 120.773 236.223 120.773 235.854 120.773C235.624 120.773 235.394 120.774 235.163 120.774C234.359 120.776 233.555 120.777 232.751 120.777C232.003 120.776 231.254 120.778 230.505 120.781C229.862 120.784 229.219 120.785 228.576 120.785C228.192 120.785 227.808 120.785 227.424 120.787C227.062 120.789 226.701 120.789 226.34 120.788C226.207 120.788 226.075 120.788 225.943 120.789C225.114 120.796 224.453 120.78 223.829 120.174C223.765 120.081 223.765 120.081 223.7 119.986C223.656 119.924 223.612 119.863 223.567 119.799C223.347 119.423 223.237 119.096 223.23 118.66C223.227 118.526 223.227 118.526 223.224 118.389C223.223 118.293 223.222 118.197 223.222 118.098C223.22 117.948 223.22 117.948 223.218 117.795C223.217 117.583 223.215 117.371 223.215 117.159C223.213 116.838 223.207 116.517 223.201 116.196C223.181 114.205 223.181 114.205 223.831 113.32C223.886 113.241 223.94 113.162 223.996 113.08C224.168 112.839 224.349 112.607 224.533 112.375C224.668 112.201 224.803 112.027 224.938 111.853C225.007 111.766 225.076 111.678 225.146 111.587C225.478 111.163 225.805 110.734 226.132 110.306C226.195 110.223 226.259 110.14 226.324 110.055C226.783 109.452 227.227 108.84 227.667 108.223C228.061 107.674 228.476 107.145 228.903 106.622C229.15 106.325 229.15 106.325 229.349 105.995C229.296 105.995 229.244 105.995 229.189 105.994C228.637 105.993 228.084 105.987 227.532 105.98C227.326 105.978 227.12 105.977 226.914 105.976C226.617 105.975 226.32 105.971 226.023 105.967C225.932 105.967 225.841 105.968 225.748 105.968C225.021 105.953 224.355 105.769 223.836 105.232C223.265 104.525 223.23 103.836 223.228 102.957C223.228 102.847 223.227 102.738 223.226 102.625C223.225 102.394 223.225 102.162 223.225 101.931C223.225 101.578 223.221 101.226 223.218 100.873C223.217 100.648 223.217 100.423 223.216 100.198C223.215 100.093 223.214 99.9875 223.212 99.8793C223.216 99.263 223.272 98.8842 223.641 98.3837C224.095 97.9632 224.439 97.7897 225.058 97.7862Z" fill="black"/>
<path d="M237.055 100.477C237.291 103.937 237.291 103.937 236.514 104.829C236.347 105.009 236.175 105.181 235.995 105.348C235.691 105.643 235.438 105.978 235.176 106.31C235.073 106.436 234.97 106.563 234.866 106.689C234.471 107.176 234.098 107.679 233.726 108.183C232.929 109.251 232.131 110.317 231.301 111.359C229.994 112.881 229.994 112.881 229.539 114.747C229.649 115.174 229.845 115.358 230.205 115.604C230.539 115.715 230.808 115.714 231.161 115.718C231.229 115.719 231.296 115.72 231.366 115.721C231.59 115.724 231.814 115.727 232.038 115.729C232.193 115.731 232.349 115.733 232.504 115.735C232.913 115.74 233.321 115.745 233.73 115.749C234.147 115.754 234.564 115.76 234.981 115.765C235.799 115.775 236.618 115.785 237.436 115.794C237.436 116.547 237.436 117.301 237.436 118.077C233.574 118.077 229.713 118.077 225.734 118.077C225.734 114.607 225.734 114.607 226.699 113.589C226.762 113.529 226.824 113.468 226.888 113.406C227.167 113.122 227.393 112.805 227.625 112.482C227.718 112.357 227.811 112.232 227.904 112.107C227.953 112.043 228.001 111.978 228.051 111.911C228.35 111.513 228.654 111.118 228.957 110.722C229.506 110.002 230.048 109.278 230.584 108.548C230.944 108.057 231.308 107.569 231.674 107.083C232.724 105.871 232.724 105.871 233.155 104.425C233.085 103.968 232.916 103.742 232.584 103.426C232.265 103.32 232.018 103.316 231.681 103.311C231.619 103.31 231.556 103.309 231.492 103.308C231.287 103.305 231.082 103.303 230.876 103.301C230.734 103.299 230.591 103.297 230.449 103.295C230.074 103.289 229.699 103.285 229.324 103.28C228.941 103.275 228.559 103.27 228.176 103.265C227.425 103.255 226.675 103.245 225.924 103.236C225.924 102.357 225.924 101.478 225.924 100.572C226.798 100.555 227.672 100.539 228.546 100.524C228.612 100.523 228.678 100.522 228.745 100.521C231.515 100.473 234.285 100.465 237.055 100.477Z" fill="#AADCE7"/>
<path d="M245.021 90.9383C245.251 90.9362 245.251 90.9362 245.485 90.934C245.652 90.9337 245.819 90.9334 245.992 90.9331C246.17 90.9319 246.349 90.9307 246.527 90.9293C247.011 90.926 247.496 90.9243 247.98 90.9232C248.283 90.9224 248.586 90.9214 248.889 90.9203C249.837 90.9168 250.785 90.9144 251.733 90.9134C252.827 90.9122 253.92 90.9078 255.013 90.9004C255.859 90.8949 256.705 90.8924 257.551 90.8921C258.056 90.8918 258.561 90.8903 259.065 90.8858C259.541 90.8816 260.016 90.881 260.491 90.8833C260.747 90.8835 261.004 90.8801 261.26 90.8765C262.137 90.8845 262.699 90.9493 263.367 91.5416C264.378 92.5826 264.504 93.4689 264.511 94.8766C264.513 95.0326 264.514 95.1885 264.516 95.3491C264.519 95.6784 264.52 96.0076 264.52 96.3369C264.522 96.8375 264.531 97.3378 264.54 97.8383C264.541 98.1593 264.542 98.4802 264.543 98.8011C264.546 98.9493 264.55 99.0975 264.553 99.2501C264.544 100.351 264.226 101.02 263.555 101.883C263.466 101.999 263.466 101.999 263.375 102.116C263.218 102.31 263.054 102.497 262.889 102.684C262.768 102.824 262.647 102.964 262.526 103.104C262.465 103.174 262.404 103.245 262.342 103.317C261.981 103.744 261.64 104.186 261.296 104.627C260.935 105.091 260.571 105.55 260.202 106.007C259.094 107.381 258.037 108.791 257.006 110.224C256.954 110.296 256.901 110.369 256.847 110.444C256.598 110.793 256.384 111.138 256.198 111.524C256.31 111.52 256.423 111.516 256.54 111.512C257.549 111.478 258.559 111.447 259.568 111.42C260.117 111.405 260.666 111.387 261.215 111.366C261.445 111.361 261.675 111.355 261.906 111.35C262.007 111.345 262.108 111.34 262.212 111.335C262.996 111.323 263.551 111.584 264.189 112.031C264.732 112.588 264.981 113.15 264.985 113.926C264.986 114.047 264.988 114.169 264.989 114.293C264.989 114.488 264.989 114.488 264.988 114.686C264.989 114.82 264.99 114.955 264.99 115.094C264.991 115.378 264.991 115.663 264.99 115.948C264.99 116.381 264.993 116.814 264.996 117.248C264.996 117.525 264.997 117.802 264.996 118.079C264.998 118.208 264.999 118.337 265 118.469C264.994 119.324 264.925 120.103 264.356 120.787C264.283 120.844 264.209 120.9 264.134 120.959C264.061 121.017 263.988 121.076 263.912 121.136C263.399 121.482 263.042 121.577 262.417 121.579C262.185 121.581 262.185 121.581 261.947 121.582C261.776 121.582 261.604 121.582 261.433 121.582C261.252 121.583 261.071 121.584 260.89 121.585C260.399 121.587 259.908 121.587 259.417 121.588C259.109 121.588 258.802 121.588 258.495 121.589C257.423 121.591 256.351 121.592 255.279 121.592C254.281 121.592 253.283 121.595 252.285 121.599C251.427 121.602 250.569 121.603 249.712 121.603C249.2 121.603 248.688 121.604 248.176 121.607C247.694 121.609 247.212 121.609 246.73 121.607C246.554 121.607 246.378 121.608 246.201 121.609C245.096 121.618 244.215 121.596 243.383 120.789C243.298 120.665 243.298 120.665 243.211 120.538C243.153 120.456 243.094 120.374 243.034 120.289C242.741 119.788 242.593 119.352 242.584 118.77C242.58 118.591 242.58 118.591 242.576 118.408C242.575 118.28 242.574 118.152 242.573 118.021C242.571 117.82 242.571 117.82 242.569 117.616C242.566 117.334 242.564 117.051 242.564 116.769C242.561 116.341 242.553 115.913 242.545 115.485C242.518 112.83 242.518 112.83 243.386 111.651C243.458 111.545 243.531 111.44 243.606 111.331C243.835 111.009 244.075 110.7 244.321 110.39C244.501 110.158 244.682 109.926 244.862 109.695C244.953 109.578 245.045 109.461 245.139 109.34C245.582 108.774 246.018 108.203 246.454 107.631C246.538 107.521 246.622 107.411 246.709 107.297C247.321 106.493 247.914 105.677 248.5 104.854C249.026 104.123 249.578 103.417 250.148 102.719C250.477 102.323 250.477 102.323 250.743 101.883C250.673 101.883 250.602 101.883 250.53 101.883C249.793 101.88 249.056 101.873 248.32 101.864C248.045 101.861 247.771 101.859 247.497 101.858C247.1 101.857 246.704 101.852 246.308 101.846C246.187 101.847 246.066 101.847 245.941 101.848C244.971 101.827 244.084 101.582 243.392 100.866C242.63 99.9236 242.584 99.0053 242.582 97.8324C242.581 97.6863 242.58 97.5403 242.579 97.3898C242.578 97.0816 242.577 96.7734 242.577 96.4651C242.577 95.9946 242.572 95.5243 242.567 95.0538C242.567 94.7538 242.566 94.4537 242.566 94.1537C242.564 94.0136 242.562 93.8735 242.56 93.7292C242.565 92.9074 242.641 92.4025 243.132 91.7351C243.738 91.1743 244.195 90.943 245.021 90.9383Z" fill="black"/>
<path d="M261.018 94.5255C261.332 99.1397 261.332 99.1397 260.296 100.329C260.073 100.569 259.844 100.798 259.604 101.021C259.198 101.414 258.862 101.861 258.513 102.303C258.375 102.472 258.237 102.641 258.099 102.809C257.572 103.458 257.075 104.128 256.578 104.8C255.517 106.225 254.451 107.646 253.345 109.036C251.603 111.064 251.603 111.064 250.997 113.553C251.142 114.122 251.404 114.367 251.885 114.695C252.33 114.843 252.688 114.842 253.158 114.848C253.249 114.849 253.339 114.85 253.432 114.852C253.731 114.856 254.029 114.859 254.328 114.862C254.535 114.865 254.742 114.867 254.949 114.87C255.494 114.877 256.039 114.883 256.584 114.889C257.14 114.896 257.696 114.903 258.252 114.91C259.343 114.923 260.434 114.936 261.525 114.949C261.525 115.953 261.525 116.958 261.525 117.993C256.376 117.993 251.228 117.993 245.923 117.993C245.923 113.366 245.923 113.366 247.21 112.009C247.293 111.929 247.376 111.848 247.461 111.765C247.834 111.386 248.135 110.963 248.444 110.533C248.568 110.366 248.692 110.199 248.816 110.033C248.881 109.947 248.945 109.861 249.012 109.772C249.411 109.241 249.816 108.714 250.22 108.186C250.953 107.226 251.675 106.26 252.389 105.287C252.869 104.632 253.354 103.982 253.843 103.334C255.243 101.719 255.243 101.719 255.817 99.7898C255.724 99.1807 255.499 98.8794 255.056 98.4579C254.63 98.316 254.301 98.3109 253.852 98.305C253.769 98.3037 253.686 98.3025 253.601 98.3012C253.327 98.2972 253.053 98.294 252.779 98.2909C252.589 98.2883 252.399 98.2856 252.209 98.2829C251.709 98.2759 251.209 98.2697 250.709 98.2635C250.199 98.2572 249.689 98.2501 249.179 98.2431C248.178 98.2295 247.177 98.2166 246.176 98.2042C246.176 97.0321 246.176 95.86 246.176 94.6523C247.342 94.6304 248.507 94.609 249.673 94.5889C249.76 94.5874 249.848 94.5859 249.938 94.5844C253.631 94.5212 257.324 94.5106 261.018 94.5255Z" fill="#AADCE7"/>
<path d="M183.74 11.0105C183.865 11.0071 183.989 11.0037 184.118 11.0002C185.309 10.9908 186.361 11.2495 187.241 12.0896C187.964 12.9547 188.284 14.04 188.292 15.1538C188.293 15.2711 188.293 15.2711 188.294 15.3907C188.295 15.6426 188.295 15.8944 188.293 16.1463C188.293 16.2328 188.293 16.3194 188.293 16.4085C188.286 17.7609 188.2 19.0495 187.907 20.3716C187.869 20.5522 187.869 20.5522 187.83 20.7365C187.59 21.8609 187.349 22.986 187.059 24.0987C186.542 26.092 186.724 27.9136 187.31 29.8711C187.345 29.9892 187.38 30.1074 187.416 30.2291C187.539 30.635 187.664 31.0399 187.791 31.4446C187.825 31.555 187.825 31.555 187.86 31.6676C188.745 34.4975 189.798 37.2523 190.893 40.0069C191.525 41.5976 192.136 43.1965 192.747 44.7952C192.946 45.3152 193.147 45.8341 193.351 46.3522C194.944 50.4282 196.298 54.6079 197.576 58.792C197.697 59.1821 197.823 59.5703 197.951 59.9581C199.011 63.1677 199.912 66.4322 200.711 69.7163C200.82 70.1628 200.941 70.6043 201.071 71.0453C201.305 71.8405 201.5 72.6444 201.698 73.4493C202.019 74.7531 202.375 76.0426 202.759 77.329C202.948 77.9609 203.122 78.5965 203.293 79.2335C203.457 79.2698 203.457 79.2698 203.624 79.3068C209.118 80.5473 215.958 82.5684 219.232 87.5674C219.361 87.7797 219.487 87.9934 219.611 88.2085C219.665 88.3018 219.719 88.3951 219.775 88.4912C220.668 90.1505 220.979 92.1264 220.522 93.9731C219.943 95.7851 219.07 97.2033 217.746 98.5822C217.645 98.6925 217.543 98.8028 217.438 98.9164C213.233 103.395 206.167 105.428 200.379 106.858C200.249 106.891 200.118 106.923 199.984 106.957C197.685 107.53 195.372 107.986 193.036 108.373C192.949 108.388 192.862 108.402 192.772 108.417C190.143 108.857 187.51 109.164 184.855 109.4C184.718 109.413 184.581 109.425 184.44 109.437C184.04 109.473 183.64 109.507 183.24 109.541C183.068 109.556 183.068 109.556 182.893 109.571C180.686 109.752 178.479 109.791 176.266 109.791C175.993 109.792 175.72 109.792 175.446 109.793C174.877 109.793 174.307 109.793 173.737 109.793C173.163 109.793 172.589 109.794 172.015 109.796C168.64 109.805 165.282 109.772 161.915 109.539C161.776 109.529 161.638 109.52 161.496 109.51C159.705 109.388 157.935 109.158 156.159 108.9C155.756 108.842 155.352 108.787 154.949 108.734C146.943 107.663 137.128 105.91 130.444 101.146C130.33 101.065 130.216 100.984 130.098 100.901C127.931 99.3155 125.907 97.3068 124.966 94.7358C124.929 94.6396 124.892 94.5434 124.854 94.4444C124.35 92.8545 124.333 90.6447 125.082 89.141C125.14 89.0175 125.198 88.894 125.258 88.7667C125.713 87.8598 126.268 87.0945 126.947 86.3436C127.035 86.2467 127.122 86.1497 127.212 86.0499C128.507 84.6859 130.074 83.7171 131.726 82.8468C131.798 82.8083 131.869 82.7697 131.943 82.73C134.889 81.147 138.162 80.0338 141.427 79.3328C141.78 79.2243 141.875 79.1687 142.1 78.8838C142.244 78.5273 142.244 78.5273 142.364 78.1116C142.388 78.0346 142.412 77.9576 142.436 77.8782C142.512 77.6309 142.586 77.3832 142.661 77.1355C142.709 76.9761 142.758 76.8167 142.807 76.6574C142.882 76.4124 142.956 76.1673 143.031 75.9222C143.211 75.3287 143.396 74.7367 143.584 74.1455C143.864 73.261 144.141 72.3752 144.416 71.489C145.983 66.4395 147.617 61.4204 149.374 56.4332C149.56 55.904 149.745 55.3744 149.928 54.844C151.753 49.5496 153.906 44.3066 156.32 39.254C156.438 39.0045 156.557 38.755 156.675 38.5055C157.019 37.782 157.368 37.0607 157.719 36.3401C157.768 36.2377 157.818 36.1353 157.869 36.0298C158.587 34.5487 159.373 33.1136 160.195 31.6876C160.343 31.4275 160.488 31.1668 160.632 30.9043C161.3 29.6868 162.042 28.531 162.818 27.3796C162.943 27.1933 163.068 27.007 163.193 26.8207C165.702 23.0875 168.457 19.3059 171.939 16.4086C172.003 16.3548 172.066 16.3011 172.132 16.2457C175.409 13.4911 179.344 11.0497 183.74 11.0105Z" fill="#AADCE7"/>
<path d="M183.74 11.0105C183.865 11.0071 183.989 11.0037 184.118 11.0002C185.309 10.9908 186.361 11.2495 187.241 12.0896C187.964 12.9547 188.284 14.04 188.292 15.1538C188.293 15.2711 188.293 15.2711 188.294 15.3907C188.295 15.6426 188.295 15.8944 188.293 16.1463C188.293 16.2328 188.293 16.3194 188.293 16.4085C188.286 17.7609 188.2 19.0495 187.907 20.3716C187.869 20.5522 187.869 20.5522 187.83 20.7365C187.59 21.8609 187.349 22.986 187.059 24.0987C186.542 26.092 186.724 27.9136 187.31 29.8711C187.345 29.9892 187.38 30.1074 187.416 30.2291C187.539 30.635 187.664 31.0399 187.791 31.4446C187.825 31.555 187.825 31.555 187.86 31.6676C188.745 34.4975 189.798 37.2523 190.893 40.0069C191.525 41.5976 192.136 43.1965 192.747 44.7952C192.946 45.3152 193.147 45.8341 193.351 46.3522C194.944 50.4282 196.298 54.6079 197.576 58.792C197.697 59.1821 197.823 59.5703 197.951 59.9581C199.011 63.1677 199.912 66.4322 200.711 69.7163C200.82 70.1628 200.941 70.6043 201.071 71.0453C201.305 71.8405 201.5 72.6444 201.698 73.4493C202.019 74.7531 202.375 76.0426 202.759 77.329C202.948 77.9609 203.122 78.5965 203.293 79.2335C203.457 79.2698 203.457 79.2698 203.624 79.3068C209.118 80.5473 215.958 82.5684 219.232 87.5674C219.361 87.7797 219.487 87.9934 219.611 88.2085C219.665 88.3018 219.719 88.3951 219.775 88.4912C220.668 90.1505 220.979 92.1264 220.522 93.9731C219.943 95.7851 219.07 97.2033 217.746 98.5822C217.645 98.6925 217.543 98.8028 217.438 98.9164C213.233 103.395 206.167 105.428 200.379 106.858C200.249 106.891 200.118 106.923 199.984 106.957C197.685 107.53 195.372 107.986 193.036 108.373C192.949 108.388 192.862 108.402 192.772 108.417C190.143 108.857 187.51 109.164 184.855 109.4C184.718 109.413 184.581 109.425 184.44 109.437C184.04 109.473 183.64 109.507 183.24 109.541C183.068 109.556 183.068 109.556 182.893 109.571C180.686 109.752 178.479 109.791 176.266 109.791C175.993 109.792 175.72 109.792 175.446 109.793C174.877 109.793 174.307 109.793 173.737 109.793C173.163 109.793 172.589 109.794 172.015 109.796C168.64 109.805 165.282 109.772 161.915 109.539C161.776 109.529 161.638 109.52 161.496 109.51C159.705 109.388 157.935 109.158 156.159 108.9C155.756 108.842 155.352 108.787 154.949 108.734C146.943 107.663 137.128 105.91 130.444 101.146C130.33 101.065 130.216 100.984 130.098 100.901C127.931 99.3155 125.907 97.3068 124.966 94.7358C124.929 94.6396 124.892 94.5434 124.854 94.4444C124.35 92.8545 124.333 90.6447 125.082 89.141C125.14 89.0175 125.198 88.894 125.258 88.7667C125.713 87.8598 126.268 87.0945 126.947 86.3436C127.035 86.2467 127.122 86.1497 127.212 86.0499C128.507 84.6859 130.074 83.7171 131.726 82.8468C131.798 82.8083 131.869 82.7697 131.943 82.73C134.889 81.147 138.162 80.0338 141.427 79.3328C141.78 79.2243 141.875 79.1687 142.1 78.8838C142.244 78.5273 142.244 78.5273 142.364 78.1116C142.388 78.0346 142.412 77.9576 142.436 77.8782C142.512 77.6309 142.586 77.3832 142.661 77.1355C142.709 76.9761 142.758 76.8167 142.807 76.6574C142.882 76.4124 142.956 76.1673 143.031 75.9222C143.211 75.3287 143.396 74.7367 143.584 74.1455C143.864 73.261 144.141 72.3752 144.416 71.489C145.983 66.4395 147.617 61.4204 149.374 56.4332C149.56 55.904 149.745 55.3744 149.928 54.844C151.753 49.5496 153.906 44.3066 156.32 39.254C156.438 39.0045 156.557 38.755 156.675 38.5055C157.019 37.782 157.368 37.0607 157.719 36.3401C157.768 36.2377 157.818 36.1353 157.869 36.0298C158.587 34.5487 159.373 33.1136 160.195 31.6876C160.343 31.4275 160.488 31.1668 160.632 30.9043C161.3 29.6868 162.042 28.531 162.818 27.3796C162.943 27.1933 163.068 27.007 163.193 26.8207C165.702 23.0875 168.457 19.3059 171.939 16.4086C172.003 16.3548 172.066 16.3011 172.132 16.2457C175.409 13.4911 179.344 11.0497 183.74 11.0105ZM183.267 14.1061C180.185 14.4798 177.458 16.2628 175.086 18.157C174.978 18.242 174.87 18.3271 174.759 18.4147C172.449 20.2673 170.464 22.4439 168.712 24.8275C168.543 25.0554 168.369 25.2801 168.195 25.5047C162.048 33.4829 158.224 42.8246 154.433 52.0754C154.384 52.1948 154.335 52.3143 154.284 52.4373C153.696 53.8834 153.198 55.3625 152.694 56.8396C152.541 57.2881 152.388 57.7364 152.234 58.1847C152.204 58.2721 152.174 58.3595 152.143 58.4495C151.906 59.1424 151.666 59.8346 151.424 60.5259C151.392 60.6177 151.36 60.7095 151.327 60.8041C151.165 61.2645 150.999 61.7226 150.827 62.1796C150.676 62.5916 150.546 63.0064 150.426 63.4287C150.021 64.8519 149.532 66.245 149.045 67.6419C148.598 68.9281 148.174 70.2149 147.812 71.5279C147.639 72.1539 147.447 72.7697 147.236 73.3837C146.955 74.2079 146.704 75.0382 146.463 75.8752C146.203 76.7806 145.932 77.6778 145.624 78.5683C145.191 79.8668 144.812 81.1839 144.422 82.4961C144.163 83.3692 143.896 84.2378 143.603 85.1002C143.162 86.2885 143.162 86.2885 143.265 87.5092C144.389 89.4832 147.75 90.3093 149.79 90.8734C150.227 90.9941 150.653 91.1379 151.082 91.2827C152.034 91.592 153.012 91.7985 153.989 92.0112C154.067 92.0283 154.145 92.0453 154.225 92.0629C156.021 92.4527 157.822 92.7903 159.642 93.0457C159.73 93.0581 159.818 93.0705 159.908 93.0832C161.387 93.2889 162.867 93.4324 164.355 93.541C164.449 93.5479 164.543 93.5548 164.639 93.5618C165.193 93.6016 165.747 93.6376 166.301 93.6703C166.482 93.6811 166.662 93.6922 166.842 93.7037C168.816 93.8287 170.793 93.8291 172.77 93.8313C173.155 93.8318 173.54 93.8334 173.925 93.8361C176.483 93.8534 178.998 93.7499 181.543 93.4941C182.04 93.4462 182.538 93.4078 183.036 93.3729C184.658 93.2563 186.255 92.976 187.856 92.7041C188.189 92.6489 188.522 92.5977 188.857 92.5508C190.458 92.325 192.023 91.9459 193.593 91.563C193.882 91.493 194.172 91.4255 194.462 91.3606C196.758 90.8129 200.53 89.7889 201.894 87.7423C202.042 86.789 201.778 85.8987 201.51 84.992C201.416 84.6693 201.326 84.3455 201.236 84.0215C200.935 82.9351 200.63 81.8503 200.306 80.7706C200.067 79.9724 199.863 79.1675 199.664 78.3585C199.351 77.0912 198.994 75.8375 198.632 74.5835C198.591 74.4409 198.55 74.2983 198.508 74.1514C198.427 73.871 198.346 73.5906 198.264 73.3104C198.04 72.5354 197.844 71.7596 197.667 70.9726C197.534 70.4059 197.373 69.8482 197.21 69.2896C197.178 69.1797 197.146 69.0698 197.114 68.9566C197.037 68.6911 196.96 68.4257 196.882 68.1605C196.494 68.2898 196.414 68.3849 196.161 68.6923C195.789 69.1318 195.395 69.5364 194.982 69.9366C194.661 70.2695 194.555 70.4552 194.507 70.9215C194.537 72.0594 194.94 73.1863 195.3 74.2558C195.682 75.3987 196.032 76.4618 195.469 77.609C195.187 78.0447 194.944 78.2677 194.434 78.4176C193.763 78.4582 193.274 78.3795 192.657 78.1044C192.576 78.07 192.495 78.0357 192.412 78.0003C191.831 77.75 191.261 77.479 190.69 77.206C190.544 77.1362 190.397 77.0665 190.25 76.9967C189.958 76.858 189.668 76.7166 189.378 76.5738C189.243 76.5091 189.108 76.4444 188.969 76.3778C188.849 76.3189 188.729 76.26 188.604 76.1994C188.2 76.0679 187.965 76.0945 187.558 76.203C187.305 76.3403 187.305 76.3403 187.069 76.5308C183.5 79.1431 183.5 79.1431 182.08 79.0491C181.551 78.9388 181.249 78.6675 180.928 78.2501C180.539 77.018 180.878 75.6277 181.089 74.3818C181.524 72.6189 181.524 72.6189 181.232 70.9566C181.025 70.7352 180.809 70.5491 180.571 70.3605C180.41 70.2218 180.248 70.0829 180.087 69.9439C180.008 69.8782 179.93 69.8125 179.849 69.7448C179.569 69.5056 179.312 69.2481 179.056 68.9837C178.274 68.1371 178.274 68.1371 177.3 67.5777C177.177 67.381 177.177 67.381 177.067 67.1114C177.024 67.0105 176.981 66.9095 176.936 66.8055C176.759 66.1218 176.722 65.5097 177.002 64.8531C177.411 64.4337 177.799 64.2678 178.349 64.0809C178.462 64.0414 178.575 64.0019 178.692 63.9612C180.205 63.497 181.792 63.4076 183.361 63.265C183.533 62.8556 183.667 62.4489 183.784 62.0207C183.818 61.8953 183.852 61.7699 183.888 61.6407C183.959 61.3797 184.03 61.1187 184.101 60.8576C184.995 57.6082 184.995 57.6082 185.962 56.8106C186.467 56.5257 186.998 56.4999 187.558 56.6212C188.908 57.2551 189.636 59.4487 190.258 60.6982C190.924 62.106 190.924 62.106 192.103 63.0319C192.439 63.0641 192.765 63.0859 193.101 63.0975C193.289 63.1058 193.477 63.1143 193.665 63.123C193.802 63.1291 193.802 63.1291 193.942 63.1353C194.458 63.1615 194.97 63.2134 195.484 63.265C195.263 62.3391 195.009 61.4314 194.715 60.5259C194.676 60.402 194.636 60.2782 194.595 60.1506C194.467 59.751 194.338 59.3517 194.209 58.9524C194.119 58.6751 194.03 58.3979 193.941 58.1206C193.425 56.521 192.904 54.923 192.373 53.3284C192.346 53.2474 192.319 53.1663 192.291 53.0827C191.505 50.7252 190.705 48.3589 189.733 46.0709C189.476 45.4625 189.244 44.8452 189.014 44.2267C188.664 43.2906 188.307 42.3576 187.949 41.4249C187.872 41.2244 187.795 41.0238 187.718 40.8232C187.605 40.5272 187.492 40.2314 187.378 39.9356C187.345 39.8474 187.311 39.7593 187.276 39.6684C187.071 39.1365 186.85 38.6147 186.614 38.0959C186.436 37.689 186.294 37.2703 186.152 36.85C185.901 36.1186 185.645 35.3894 185.379 34.6632C184.728 32.8742 184.131 31.0904 183.711 29.23C183.689 29.1383 183.667 29.0465 183.644 28.952C183.173 26.8708 183.392 24.6757 183.978 22.6469C184.606 20.4302 185.019 18.2491 185.044 15.9424C185.047 15.7983 185.049 15.6542 185.052 15.5057C185.052 15.3035 185.052 15.3035 185.051 15.0973C185.051 14.9765 185.052 14.8557 185.052 14.7312C185.02 14.4145 185.02 14.4145 184.782 14.2127C184.299 13.9563 183.792 14.0602 183.267 14.1061Z" fill="black"/>
<path d="M204.109 82.8467C204.79 82.9223 205.415 83.0952 206.068 83.2983C206.166 83.3282 206.264 83.3581 206.365 83.3889C206.562 83.4493 206.759 83.51 206.957 83.571C207.262 83.6645 207.569 83.7551 207.875 83.8456C208.547 84.0471 209.181 84.3071 209.82 84.5951C209.918 84.639 210.016 84.6829 210.116 84.7282C211.574 85.3896 212.971 86.0732 214.249 87.0428C214.316 87.0932 214.383 87.1437 214.452 87.1956C215.76 88.1978 217.134 89.541 217.396 91.2389C217.468 92.336 217.477 93.2849 216.93 94.2694C216.88 94.3665 216.83 94.4635 216.779 94.5635C215.797 96.2893 214.168 97.5612 212.501 98.582C212.428 98.6267 212.355 98.6714 212.28 98.7174C210.552 99.7621 208.691 100.678 206.792 101.367C206.461 101.488 206.135 101.62 205.809 101.755C202.77 103.004 199.495 103.691 196.299 104.41C196.135 104.447 196.135 104.447 195.967 104.485C195.868 104.507 195.77 104.53 195.668 104.552C195.586 104.571 195.503 104.589 195.419 104.609C194.617 104.779 193.816 104.923 193.005 105.041C192.904 105.056 192.804 105.071 192.7 105.086C192.49 105.118 192.279 105.149 192.069 105.179C191.764 105.224 191.46 105.27 191.155 105.316C188.83 105.665 186.519 105.997 184.171 106.136C183.707 106.166 183.245 106.206 182.783 106.247C181.684 106.34 180.588 106.414 179.486 106.455C179.29 106.462 179.29 106.462 179.09 106.47C177.734 106.518 176.379 106.529 175.023 106.532C174.894 106.532 174.765 106.532 174.632 106.533C173.949 106.534 173.265 106.535 172.582 106.536C172.03 106.537 171.478 106.538 170.925 106.541C167.597 106.556 164.305 106.494 160.99 106.181C160.583 106.143 160.175 106.108 159.767 106.072C157.848 105.905 155.96 105.618 154.062 105.295C153.671 105.231 153.279 105.173 152.886 105.118C146.583 104.231 139.806 102.553 134.174 99.5145C134.061 99.4565 133.947 99.3985 133.831 99.3388C132.487 98.6385 131.303 97.7642 130.211 96.7171C130.12 96.6333 130.028 96.5494 129.934 96.4631C128.731 95.3227 127.898 93.9722 127.813 92.2952C127.783 90.884 128.154 89.9544 129.082 88.8786C129.261 88.6915 129.443 88.5069 129.628 88.3249C129.707 88.2462 129.786 88.1675 129.867 88.0863C132.358 85.741 135.839 84.2807 139.069 83.3129C139.191 83.276 139.314 83.239 139.439 83.2009C139.956 83.0518 140.394 82.945 140.934 82.9632C140.823 83.4934 140.704 84.0179 140.551 84.5377C140.099 86.0829 139.779 87.5357 140.516 89.0589C141.626 90.9506 144.025 92.1184 146.013 92.8406C146.384 92.977 146.752 93.1208 147.12 93.2664C147.9 93.5672 148.69 93.8119 149.494 94.0436C149.688 94.1005 149.688 94.1005 149.887 94.1585C150.15 94.2354 150.413 94.3118 150.677 94.3875C150.942 94.464 151.206 94.5419 151.47 94.6211C152.508 94.9288 153.552 95.162 154.615 95.3621C154.706 95.3793 154.797 95.3965 154.89 95.4142C157.337 95.8722 159.802 96.171 162.275 96.4455C162.594 96.4817 162.913 96.52 163.232 96.5593C169.373 97.309 175.881 97.3098 182.024 96.5657C182.525 96.5063 183.022 96.4692 183.526 96.4501C184.964 96.3949 186.362 96.1467 187.776 95.8939C187.909 95.8706 188.041 95.8472 188.178 95.8232C197.364 94.4588 197.364 94.4588 204.622 89.3289C205.365 88.1116 205.122 86.6835 204.802 85.3612C204.656 84.7929 204.503 84.227 204.342 83.6626C204.317 83.5755 204.293 83.4884 204.267 83.3986C204.215 83.2145 204.162 83.0306 204.109 82.8467Z" fill="#AADCE7"/>
<path d="M169.724 35.0577C170.819 35.5328 171.423 36.8538 171.946 37.8624C172.583 39.1033 172.583 39.1033 173.454 40.1862C173.793 40.2021 174.13 40.2108 174.47 40.2149C174.682 40.2188 174.894 40.2226 175.106 40.2265C175.441 40.232 175.775 40.2372 176.11 40.2418C176.432 40.2465 176.755 40.2525 177.078 40.2586C177.176 40.2596 177.274 40.2606 177.375 40.2616C178.244 40.2793 179.285 40.3121 179.981 40.8856C180.341 41.3032 180.548 41.6695 180.512 42.2342C180.137 43.8762 178.81 45.5423 177.654 46.7181C177.378 47.0266 177.378 47.0266 177.264 47.4128C177.29 47.6602 177.342 47.8754 177.417 48.1122C177.439 48.1872 177.461 48.2621 177.484 48.3393C177.559 48.575 177.643 48.8058 177.73 49.0374C177.761 49.1223 177.791 49.2073 177.823 49.2948C177.981 49.7345 178.146 50.1709 178.318 50.6055C178.725 51.6532 178.994 52.5672 178.816 53.707C178.559 54.2808 178.216 54.5999 177.65 54.8726C175.811 55.1312 173.737 54.3133 172.095 53.5659C171.993 53.5211 171.891 53.4763 171.786 53.4302C171.695 53.3884 171.604 53.3466 171.51 53.3036C171.131 53.2157 171.001 53.2875 170.657 53.4739C170.314 53.7039 169.983 53.9486 169.651 54.1951C168.877 54.7628 168.098 55.3077 167.276 55.8051C167.168 55.871 167.06 55.937 166.948 56.0049C166.15 56.4877 165.664 56.7263 164.712 56.621C164.185 56.362 163.903 56.1048 163.663 55.5719C163.606 55.1491 163.608 54.7305 163.612 54.3044C163.613 54.1794 163.613 54.0545 163.613 53.9258C163.64 52.2855 163.887 50.6645 164.129 49.0447C164.059 49.0107 163.988 48.9766 163.916 48.9416C162.975 48.4571 162.134 47.668 161.362 46.9548C161.065 46.6829 160.758 46.4274 160.443 46.1758C160.117 45.8463 160.016 45.5165 160.013 45.0598C160.036 44.3869 160.108 43.7497 160.595 43.2491C161.245 42.77 161.994 42.5472 162.755 42.3093C163.385 42.1073 164.001 41.8755 164.596 41.5849C164.671 41.5551 164.746 41.5253 164.824 41.4946C165.261 41.2857 165.48 41.1033 165.691 40.6608C165.836 40.232 165.96 39.8004 166.074 39.3631C167.343 34.8138 167.343 34.8138 169.724 35.0577Z" fill="black"/>
<path d="M161.114 64.3001C161.921 64.8281 162.205 65.6714 162.432 66.5652C162.481 66.7498 162.53 66.9343 162.58 67.1189C162.617 67.2604 162.617 67.2604 162.654 67.4048C162.781 67.8836 162.912 68.3608 163.044 68.8381C163.068 68.9251 163.091 69.012 163.115 69.1016C163.179 69.3326 163.246 69.5626 163.313 69.7924C163.334 69.8916 163.354 69.9908 163.375 70.093C163.573 70.4185 163.634 70.4354 163.984 70.541C164.173 70.5867 164.363 70.6297 164.552 70.6707C164.653 70.6946 164.754 70.7186 164.857 70.7432C165.18 70.8196 165.503 70.8926 165.827 70.9653C166.147 71.0388 166.467 71.1131 166.787 71.1886C166.986 71.2353 167.186 71.2809 167.385 71.3252C168.165 71.5057 168.954 71.7265 169.552 72.2784C169.892 72.892 169.834 73.5452 169.724 74.2216C169.522 74.6511 169.25 74.9449 168.908 75.2706C168.824 75.3537 168.739 75.4368 168.652 75.5224C168.035 76.1005 167.373 76.622 166.704 77.1378C166.572 77.2391 166.442 77.3415 166.312 77.445C166.172 77.5541 166.028 77.6583 165.882 77.7584C165.451 78.0734 165.451 78.0734 165.229 78.5434C165.21 78.8241 165.218 79.0914 165.237 79.372C165.24 79.4715 165.243 79.5709 165.247 79.6733C165.27 80.2589 165.322 80.8402 165.384 81.4227C165.426 81.9872 165.439 82.5507 165.448 83.1165C165.451 83.2279 165.455 83.3394 165.458 83.4542C165.464 84.127 165.413 84.5374 164.945 85.0615C164.382 85.3863 163.841 85.5226 163.197 85.4112C162.476 85.1367 161.86 84.6794 161.245 84.2238C161.108 84.1239 161.108 84.1239 160.969 84.0219C160.701 83.8253 160.434 83.6276 160.166 83.4297C160.021 83.323 159.877 83.2163 159.732 83.1096C158.743 82.3762 158.743 82.3762 158.418 82.031C157.983 82.2014 157.557 82.3872 157.131 82.5806C156.996 82.6414 156.861 82.7021 156.722 82.7648C156.442 82.8915 156.161 83.0186 155.881 83.1463C153.814 84.075 153.814 84.075 152.867 84.0344C152.769 84.0312 152.672 84.0281 152.571 84.0248C152.5 84.0208 152.43 84.0167 152.357 84.0125C152.357 83.9356 152.357 83.8587 152.357 83.7794C152.29 83.7722 152.222 83.765 152.153 83.7575C151.769 83.6188 151.647 83.4207 151.425 83.0801C151.352 82.7503 151.319 82.4941 151.315 82.1622C151.314 82.0694 151.313 81.9767 151.312 81.8811C151.36 80.6185 151.877 79.4425 152.329 78.2783C152.706 77.3255 152.706 77.3255 152.823 76.3197C152.701 76.0804 152.701 76.0804 152.481 75.9263C151.937 75.4496 151.516 74.9095 151.075 74.3382C150.982 74.2204 150.89 74.1026 150.795 73.9812C150.079 73.0536 149.582 72.368 149.612 71.1592C149.724 70.607 150.063 70.2568 150.492 69.909C150.834 69.7086 151.087 69.6455 151.482 69.6387C151.585 69.6364 151.687 69.6341 151.793 69.6317C151.958 69.6296 151.958 69.6296 152.126 69.6276C152.239 69.6253 152.352 69.6231 152.469 69.6207C152.83 69.6138 153.191 69.6084 153.552 69.603C153.797 69.5985 154.042 69.594 154.287 69.5893C154.887 69.5782 155.487 69.5684 156.087 69.5593C156.123 69.4871 156.159 69.4149 156.196 69.3406C156.766 68.2029 157.364 67.0767 157.988 65.9678C158.057 65.8445 158.127 65.7211 158.198 65.594C158.88 64.5169 159.778 63.7486 161.114 64.3001Z" fill="black"/>
<path d="M186.975 60.4673C187.41 60.6124 187.467 60.7985 187.669 61.1923C187.733 61.3202 187.733 61.3202 187.798 61.4507C187.891 61.6307 187.983 61.8105 188.076 61.9903C188.124 62.0842 188.173 62.1781 188.222 62.2749C188.474 62.7594 188.736 63.2382 189 63.7163C189.049 63.8057 189.097 63.895 189.147 63.987C189.193 64.0705 189.239 64.1539 189.287 64.2399C189.327 64.3134 189.367 64.3869 189.409 64.4625C189.535 64.6728 189.535 64.6728 189.73 64.8501C189.889 65.0131 189.889 65.0131 189.889 65.2462C189.961 65.263 190.033 65.2798 190.107 65.2972C190.355 65.3627 190.355 65.3627 190.588 65.4793C190.77 65.5023 190.953 65.5194 191.136 65.5335C191.247 65.5424 191.359 65.5514 191.473 65.5606C191.592 65.5698 191.711 65.5791 191.834 65.5886C192.901 65.6757 193.958 65.7882 195.017 65.9455C194.829 66.4029 194.515 66.7281 194.18 67.082C194.063 67.207 193.947 67.332 193.831 67.4571C193.774 67.5177 193.718 67.5782 193.66 67.6406C192.363 68.9327 192.363 68.9327 191.848 70.586C191.847 70.707 191.845 70.8279 191.843 70.9525C191.871 71.3202 191.959 71.5531 192.103 71.89C192.182 72.1907 192.258 72.4908 192.329 72.7933C192.457 73.3222 192.589 73.8398 192.774 74.3523C192.914 74.7465 192.952 75.0816 192.919 75.5033C192.432 75.3164 191.963 75.0966 191.493 74.8691C191.375 74.8118 191.375 74.8118 191.254 74.7533C191.087 74.673 190.921 74.5925 190.755 74.512C190.5 74.3884 190.245 74.2653 189.989 74.1422C189.828 74.064 189.666 73.9857 189.504 73.9075C189.39 73.8521 189.39 73.8521 189.272 73.7956C188.737 73.5352 188.737 73.5352 188.607 73.4053C187.759 73.2735 187.228 73.5233 186.538 73.988C186.448 74.0459 186.357 74.1037 186.264 74.1633C186.082 74.2804 185.9 74.3984 185.719 74.5174C185.347 74.7614 184.97 74.9983 184.593 75.2338C184.475 75.3087 184.357 75.3837 184.236 75.461C183.944 75.6199 183.944 75.6199 183.595 75.6199C183.611 75.2289 183.628 74.8379 183.646 74.447C183.65 74.3371 183.655 74.2272 183.659 74.1139C183.686 73.5205 183.736 72.9439 183.828 72.3562C184.002 71.1056 184.002 71.1056 183.585 69.9527C183.236 69.5134 182.834 69.1296 182.429 68.7429C182.159 68.4764 181.89 68.2089 181.622 67.9409C181.443 67.7637 181.263 67.5879 181.081 67.4137C180.958 67.2939 180.958 67.2939 180.832 67.1717C180.758 67.1009 180.684 67.0301 180.607 66.9571C180.448 66.7614 180.448 66.7614 180.448 66.4118C180.771 66.304 181.015 66.2689 181.351 66.2451C181.461 66.2366 181.57 66.228 181.683 66.2192C181.91 66.2021 182.137 66.1857 182.365 66.17C183.414 66.0857 184.362 65.9323 185.171 65.222C185.55 64.7612 185.735 64.2245 185.897 63.6581C186.217 62.5812 186.599 61.5257 186.975 60.4673Z" fill="#F8E482"/>
<path d="M169.141 38.9043C169.514 39.0608 169.681 39.1952 169.875 39.5486C169.922 39.6307 169.968 39.7129 170.016 39.7975C170.064 39.885 170.112 39.9725 170.161 40.0626C171.013 41.6492 171.013 41.6492 172.288 42.8673C172.665 42.9308 173.035 42.9216 173.416 42.9128C173.524 42.9122 173.632 42.9115 173.743 42.9108C174.086 42.9082 174.429 42.9024 174.773 42.8964C175.006 42.8941 175.239 42.892 175.472 42.89C176.043 42.8849 176.613 42.8769 177.184 42.8673C177.016 43.2117 176.832 43.5167 176.608 43.8289C176.225 44.3713 175.843 44.9148 175.465 45.4607C175.41 45.5392 175.355 45.6176 175.298 45.6985C174.785 46.4394 174.374 47.0633 174.503 47.9958C174.718 49.0489 175.048 49.9561 175.522 50.9216C175.711 51.3575 175.767 51.7197 175.785 52.1919C175.227 52.1191 174.728 51.9592 174.205 51.758C174.036 51.6946 173.866 51.6313 173.697 51.5679C173.433 51.4684 173.169 51.3685 172.906 51.2679C172.65 51.1703 172.393 51.0743 172.136 50.9786C172.058 50.9483 171.98 50.9181 171.9 50.8869C171.285 50.6594 170.725 50.5493 170.108 50.8101C170.005 50.8742 169.903 50.9384 169.797 51.0045C169.678 51.0777 169.56 51.1509 169.437 51.2262C169.127 51.4251 168.819 51.6267 168.51 51.8282C168.378 51.9146 168.378 51.9146 168.242 52.0028C168.067 52.1177 167.892 52.2333 167.718 52.3498C167.637 52.4032 167.556 52.4566 167.473 52.5116C167.401 52.5595 167.33 52.6074 167.256 52.6568C167.031 52.7815 166.828 52.8404 166.577 52.8913C166.564 52.1954 166.58 51.5091 166.635 50.8151C166.853 49.1409 166.853 49.1409 166.313 47.6207C165.991 47.2898 165.636 47.0106 165.27 46.7301C164.913 46.456 164.565 46.1759 164.224 45.8832C164.114 45.7916 164.004 45.6999 163.891 45.6055C163.663 45.315 163.663 45.315 163.686 44.9298C163.717 44.8261 163.748 44.7225 163.78 44.6157C163.892 44.5861 164.005 44.5565 164.121 44.526C164.516 44.4219 164.91 44.3162 165.304 44.2097C165.496 44.1581 165.687 44.1075 165.879 44.057C166.741 43.8182 167.327 43.4892 167.859 42.7507C167.998 42.4319 167.998 42.4319 168.096 42.0892C168.135 41.9638 168.174 41.8384 168.215 41.7092C168.273 41.5144 168.273 41.5144 168.333 41.3156C168.412 41.0586 168.491 40.8016 168.57 40.5448C168.626 40.363 168.626 40.363 168.683 40.1775C168.821 39.7463 168.977 39.3258 169.141 38.9043Z" fill="#F8E482"/>
<path d="M159.933 67.9275C160.01 67.9275 160.087 67.9275 160.166 67.9275C160.298 68.3522 160.429 68.7773 160.56 69.2023C160.597 69.3214 160.634 69.4405 160.672 69.5632C160.836 70.0981 160.99 70.6229 161.092 71.1734C161.202 71.6954 161.413 71.9993 161.747 72.415C161.841 72.534 161.935 72.653 162.032 72.7756C162.39 73.2071 162.503 73.1973 163.069 73.2523C163.211 73.2666 163.354 73.281 163.5 73.2958C163.799 73.325 164.099 73.3542 164.398 73.3832C165.18 73.4623 165.931 73.5639 166.694 73.7554C166.539 74.2184 166.244 74.3623 165.856 74.6223C165.139 75.115 164.479 75.6515 163.831 76.2311C163.336 76.6694 163.336 76.6694 163.08 76.6694C162.614 77.7149 162.691 78.761 162.709 79.882C162.71 80.0794 162.712 80.2768 162.714 80.4741C162.717 80.9543 162.723 81.4344 162.731 81.9145C162.18 81.8259 161.857 81.6077 161.434 81.2588C159.903 80.0278 159.903 80.0278 158.029 79.6512C156.928 79.7768 155.861 80.254 154.892 80.7768C154.688 80.8655 154.688 80.8655 154.338 80.8655C154.403 80.5958 154.469 80.3262 154.535 80.0568C154.566 79.9317 154.566 79.9317 154.597 79.8041C154.73 79.2716 154.88 78.7486 155.046 78.2257C155.478 76.9936 155.478 76.9936 155.387 75.7369C155.046 75.1788 154.607 74.6937 154.176 74.2047C153.894 73.8792 153.634 73.539 153.377 73.1945C153.292 73.0831 153.207 72.9718 153.12 72.8571C152.94 72.5898 152.94 72.5898 152.94 72.3567C153.018 72.3538 153.096 72.3509 153.176 72.3479C153.537 72.3342 153.898 72.3199 154.258 72.3057C154.381 72.3011 154.504 72.2965 154.63 72.2918C156.249 72.3109 156.249 72.3109 157.719 71.7739C157.841 71.5833 157.957 71.3883 158.068 71.1911C158.13 71.087 158.191 70.9829 158.254 70.8756C158.467 70.5122 158.679 70.1487 158.891 69.7851C158.966 69.6583 159.04 69.5314 159.117 69.4006C159.188 69.2786 159.259 69.1565 159.333 69.0307C159.398 68.9197 159.462 68.8086 159.529 68.6942C159.673 68.4419 159.807 68.1886 159.933 67.9275Z" fill="#F8E482"/>
</svg>
