<svg width="350" height="350" viewBox="0 0 350 350" fill="none" xmlns="http://www.w3.org/2000/svg">
<path d="M175.341 68.0026C178.641 70.6742 181.008 74.9055 181.594 79.114C181.807 81.7949 181.834 84.5351 180.911 87.0914C181.284 87.1042 181.284 87.1042 181.666 87.1172C186.522 87.3115 191.231 88.0047 195.954 89.1427C196.267 89.2162 196.267 89.2162 196.586 89.2912C202.38 90.6621 207.942 92.6543 213.276 95.2968C213.484 95.3993 213.692 95.5018 213.906 95.6075C218.333 97.8099 222.423 100.394 226.268 103.502C226.406 103.614 226.544 103.725 226.687 103.84C229.81 106.384 232.679 109.215 235.157 112.391C235.508 112.814 235.859 113.237 236.211 113.659C238.952 117.028 241.057 120.824 242.93 124.732C243.123 125.132 243.322 125.529 243.521 125.925C246.722 132.469 248.691 139.619 250.038 146.756C250.638 149.882 251.4 152.85 252.447 155.85C253.223 158.075 253.801 160.193 254.075 162.535C254.115 162.801 254.156 163.068 254.197 163.343C255.33 172.595 252.678 182.046 247.009 189.43C243.732 193.602 239.925 196.948 235.385 199.687C235.24 199.774 235.095 199.862 234.946 199.952C232.342 201.51 232.342 201.51 231.51 201.51C231.51 201.661 231.51 201.811 231.51 201.966C231.675 202.023 231.84 202.08 232.01 202.139C233.088 202.616 233.909 203.412 234.8 204.172C235.148 204.466 235.501 204.753 235.853 205.041C237.651 206.519 239.311 208.128 240.955 209.773C241.117 209.934 241.117 209.934 241.281 210.098C242.428 211.246 243.547 212.406 244.604 213.637C245.151 214.269 245.725 214.875 246.297 215.485C247.306 216.571 248.271 217.679 249.198 218.835C249.605 219.343 250.017 219.846 250.434 220.347C254.047 224.707 257.151 229.128 258.933 234.543C259.063 234.935 259.2 235.325 259.34 235.714C260.282 238.73 260.294 242.886 258.861 245.728C258.782 245.889 258.702 246.049 258.619 246.215C256.8 249.43 254.094 251.22 250.656 252.338C245.166 253.604 239.132 251.884 234.245 249.375C234.321 249.525 234.396 249.676 234.473 249.831C236.224 261.073 235.655 272.97 228.744 282.433C223.808 288.971 216.937 292.584 209.401 295.416C209.401 298.65 209.401 301.884 209.401 305.217C210.078 305.367 210.755 305.518 211.453 305.673C212.479 305.988 213.49 306.344 214.501 306.703C214.969 306.868 215.438 307.03 215.907 307.191C218.724 308.175 220.977 309.242 222.593 311.827C223.252 313.562 223.121 316.026 222.432 317.739C221.43 319.504 220.052 320.722 218.104 321.293C217.562 321.409 217.073 321.429 216.519 321.43C216.312 321.43 216.105 321.43 215.892 321.431C215.678 321.43 215.463 321.429 215.242 321.428C214.923 321.429 214.923 321.429 214.597 321.431C213.524 321.429 212.509 321.394 211.453 321.172C211.463 321.329 211.474 321.486 211.485 321.648C211.568 323.809 211.029 325.377 209.564 326.983C208.267 328.121 206.707 328.551 205.015 328.528C203.244 328.35 201.529 327.446 200.284 326.186C199.491 325.107 198.816 323.972 198.233 322.767C198.09 322.861 197.946 322.954 197.799 323.05C195.641 324.408 193.744 324.926 191.167 324.59C189.483 324.029 187.972 323.192 187.065 321.627C186.04 319.561 185.791 317.588 186.481 315.374C187.372 313.173 188.988 311.425 190.679 309.799C191.304 309.186 191.873 308.533 192.441 307.867C192.689 307.581 192.951 307.308 193.219 307.04C193.275 306.437 193.304 305.855 193.313 305.251C193.318 305.074 193.322 304.898 193.326 304.716C193.34 304.152 193.351 303.587 193.361 303.023C193.37 302.641 193.379 302.258 193.388 301.876C193.41 300.938 193.429 300.001 193.447 299.063C193.282 299.091 193.117 299.12 192.947 299.15C187.261 300.12 181.693 300.306 175.942 300.276C175.157 300.273 174.371 300.274 173.586 300.275C169.551 300.28 165.547 300.257 161.537 299.747C161.264 299.713 160.99 299.68 160.709 299.645C160.081 299.563 159.456 299.473 158.83 299.376C158.522 299.33 158.522 299.33 158.207 299.284C157.721 299.211 157.236 299.137 156.751 299.063C156.711 300.133 156.682 301.203 156.663 302.274C156.655 302.637 156.644 303 156.63 303.364C156.469 305.804 156.469 305.804 157.501 307.922C157.775 308.168 158.057 308.407 158.346 308.636C160.996 311.155 163.785 314.063 163.93 317.924C163.832 319.799 163.241 321.612 161.821 322.902C160.035 324.329 158.496 324.736 156.206 324.687C154.377 324.473 152.742 323.635 151.28 322.539C151.266 322.814 151.266 322.814 151.252 323.095C150.791 324.972 149.432 326.475 147.861 327.554C146.188 328.481 144.575 328.788 142.709 328.315C140.943 327.698 139.745 326.674 138.873 325.018C138.337 323.703 138.439 322.338 138.516 320.944C138.353 321.017 138.19 321.091 138.021 321.167C136.963 321.548 135.912 321.474 134.798 321.471C134.569 321.474 134.339 321.478 134.103 321.482C131.84 321.483 130.382 320.955 128.712 319.392C127.195 317.717 126.992 315.8 127.044 313.612C127.22 311.582 128.221 310.367 129.719 309.07C130.697 308.353 131.748 307.981 132.89 307.596C133.125 307.512 133.361 307.428 133.604 307.341C134.329 307.084 135.055 306.834 135.781 306.584C136.238 306.423 136.695 306.262 137.152 306.1C138.212 305.724 139.276 305.357 140.34 304.989C140.49 301.83 140.641 298.671 140.796 295.416C139.724 295.021 139.724 295.021 138.63 294.618C136.461 293.802 134.408 292.856 132.362 291.769C132.141 291.657 131.921 291.546 131.693 291.431C124.383 287.648 119.028 280.888 116.413 273.149C114.025 265.438 114.63 257.258 115.724 249.375C115.608 249.424 115.493 249.473 115.374 249.524C109.913 251.835 103.672 253.956 97.8281 251.763C94.8228 250.489 92.0866 248.364 90.8309 245.275C89.0115 240.076 90.4221 234.922 92.7273 230.117C93.8107 227.953 95.1141 225.996 96.578 224.075C96.6736 223.948 96.7691 223.821 96.8676 223.691C98.1711 221.96 99.5192 220.267 100.909 218.605C101.056 218.428 101.056 218.428 101.205 218.248C103.838 215.096 106.673 212.14 109.57 209.231C109.747 209.053 109.924 208.875 110.106 208.692C111.182 207.619 112.29 206.6 113.445 205.613C113.699 205.392 113.953 205.17 114.207 204.949C115.493 203.839 116.748 202.809 118.231 201.966C117.565 201.427 116.857 201.016 116.105 200.609C113.321 199.102 110.84 197.365 108.533 195.196C108.049 194.743 107.556 194.314 107.048 193.889C100.502 188.156 96.3196 178.878 95.7215 170.269C95.4983 166.163 95.6002 162.077 96.6208 158.076C96.6795 157.843 96.6795 157.843 96.7393 157.605C96.982 156.724 97.2764 155.878 97.6256 155.034C98.5886 152.698 99.2224 150.441 99.6656 147.955C99.8444 146.957 100.038 145.961 100.231 144.966C100.269 144.77 100.307 144.574 100.346 144.372C100.848 141.803 101.518 139.285 102.276 136.779C102.338 136.574 102.4 136.369 102.464 136.157C105.63 125.816 110.72 116.326 118.231 108.516C118.338 108.404 118.445 108.293 118.555 108.177C119.835 106.843 121.162 105.617 122.61 104.467C123.035 104.126 123.454 103.777 123.867 103.42C125.816 101.734 127.909 100.322 130.083 98.9436C130.239 98.8448 130.394 98.7461 130.554 98.6444C139.421 93.0729 149.743 89.7063 160.055 88.1456C160.307 88.1073 160.558 88.0691 160.817 88.0297C162.283 87.8217 163.704 87.7268 165.184 87.7752C165.184 87.6248 165.184 87.4743 165.184 87.3193C165.033 87.2723 164.883 87.2253 164.728 87.1769C164.12 86.8981 163.743 86.6375 163.232 86.2224C161.293 84.7425 159.219 84.2329 156.83 84.0269C156.023 83.8932 155.57 83.716 154.927 83.2167C154.314 82.2992 154.267 81.3193 154.471 80.2536C154.971 79.3397 155.52 78.789 156.486 78.3928C159.223 77.6687 161.887 78.4546 164.327 79.7274C165.087 80.1814 165.823 80.6622 166.551 81.1653C166.705 81.2711 166.858 81.3768 167.017 81.4857C168.162 82.2785 169.296 83.0864 170.426 83.9004C170.623 84.0419 170.623 84.0419 170.824 84.1862C172.729 85.5541 172.729 85.5541 173.542 86.2296C174.022 86.6817 174.022 86.6817 174.529 86.6356C174.691 86.2336 174.691 86.2336 174.856 85.8236C174.917 85.6728 174.978 85.5221 175.041 85.3668C175.818 82.859 175.778 79.7146 174.757 77.2906C174.682 77.1043 174.607 76.918 174.53 76.7261C173.51 74.4471 171.857 72.8144 169.78 71.4722C169.028 70.9604 168.666 70.6422 168.375 69.769C168.29 68.6269 168.348 67.9476 169.059 67.0339C171.081 65.2071 173.488 66.6247 175.341 68.0026Z" fill="#FFF1A6"/>
<path d="M175.341 68.0026C178.641 70.6742 181.008 74.9055 181.594 79.114C181.807 81.7949 181.834 84.5351 180.911 87.0914C181.284 87.1042 181.284 87.1042 181.666 87.1172C186.522 87.3115 191.231 88.0047 195.954 89.1427C196.267 89.2162 196.267 89.2162 196.586 89.2912C202.38 90.6621 207.942 92.6543 213.276 95.2968C213.484 95.3993 213.692 95.5018 213.906 95.6075C218.333 97.8099 222.423 100.394 226.268 103.502C226.406 103.614 226.544 103.725 226.687 103.84C229.81 106.384 232.679 109.215 235.157 112.391C235.508 112.814 235.859 113.237 236.211 113.659C238.952 117.028 241.057 120.824 242.93 124.732C243.123 125.132 243.322 125.529 243.521 125.925C246.722 132.469 248.691 139.619 250.038 146.756C250.638 149.882 251.4 152.85 252.447 155.85C253.223 158.075 253.801 160.193 254.075 162.535C254.115 162.801 254.156 163.068 254.197 163.343C255.33 172.595 252.678 182.046 247.009 189.43C243.732 193.602 239.925 196.948 235.385 199.687C235.24 199.774 235.095 199.862 234.946 199.952C232.342 201.51 232.342 201.51 231.51 201.51C231.51 201.661 231.51 201.811 231.51 201.966C231.675 202.023 231.84 202.08 232.01 202.139C233.088 202.616 233.909 203.412 234.8 204.172C235.148 204.466 235.501 204.753 235.853 205.041C237.651 206.519 239.311 208.128 240.955 209.773C241.117 209.934 241.117 209.934 241.281 210.098C242.428 211.246 243.547 212.406 244.604 213.637C245.151 214.269 245.725 214.875 246.297 215.485C247.306 216.571 248.271 217.679 249.198 218.835C249.605 219.343 250.017 219.846 250.434 220.347C254.047 224.707 257.151 229.128 258.933 234.543C259.063 234.935 259.2 235.325 259.34 235.714C260.282 238.73 260.294 242.886 258.861 245.728C258.782 245.889 258.702 246.049 258.619 246.215C256.8 249.43 254.094 251.22 250.656 252.338C245.166 253.604 239.132 251.884 234.245 249.375C234.321 249.525 234.396 249.676 234.473 249.831C236.224 261.073 235.655 272.97 228.744 282.433C223.808 288.971 216.937 292.584 209.401 295.416C209.401 298.65 209.401 301.884 209.401 305.217C210.078 305.367 210.755 305.518 211.453 305.673C212.479 305.988 213.49 306.344 214.501 306.703C214.969 306.868 215.438 307.03 215.907 307.191C218.724 308.175 220.977 309.242 222.593 311.827C223.252 313.562 223.121 316.026 222.432 317.739C221.43 319.504 220.052 320.722 218.104 321.293C217.562 321.409 217.073 321.429 216.519 321.43C216.312 321.43 216.105 321.43 215.892 321.431C215.678 321.43 215.463 321.429 215.242 321.428C214.923 321.429 214.923 321.429 214.597 321.431C213.524 321.429 212.509 321.394 211.453 321.172C211.463 321.329 211.474 321.486 211.485 321.648C211.568 323.809 211.029 325.377 209.564 326.983C208.267 328.121 206.707 328.551 205.015 328.528C203.244 328.35 201.529 327.446 200.284 326.186C199.491 325.107 198.816 323.972 198.233 322.767C198.09 322.861 197.946 322.954 197.799 323.05C195.641 324.408 193.744 324.926 191.167 324.59C189.483 324.029 187.972 323.192 187.065 321.627C186.04 319.561 185.791 317.588 186.481 315.374C187.372 313.173 188.988 311.425 190.679 309.799C191.304 309.186 191.873 308.533 192.441 307.867C192.689 307.581 192.951 307.308 193.219 307.04C193.275 306.437 193.304 305.855 193.313 305.251C193.318 305.074 193.322 304.898 193.326 304.716C193.34 304.152 193.351 303.587 193.361 303.023C193.37 302.641 193.379 302.258 193.388 301.876C193.41 300.938 193.429 300.001 193.447 299.063C193.282 299.091 193.117 299.12 192.947 299.15C187.261 300.12 181.693 300.306 175.942 300.276C175.157 300.273 174.371 300.274 173.586 300.275C169.551 300.28 165.547 300.257 161.537 299.747C161.264 299.713 160.99 299.68 160.709 299.645C160.081 299.563 159.456 299.473 158.83 299.376C158.522 299.33 158.522 299.33 158.207 299.284C157.721 299.211 157.236 299.137 156.751 299.063C156.711 300.133 156.682 301.203 156.663 302.274C156.655 302.637 156.644 303 156.63 303.364C156.469 305.804 156.469 305.804 157.501 307.922C157.775 308.168 158.057 308.407 158.346 308.636C160.996 311.155 163.785 314.063 163.93 317.924C163.832 319.799 163.241 321.612 161.821 322.902C160.035 324.329 158.496 324.736 156.206 324.687C154.377 324.473 152.742 323.635 151.28 322.539C151.266 322.814 151.266 322.814 151.252 323.095C150.791 324.972 149.432 326.475 147.861 327.554C146.188 328.481 144.575 328.788 142.709 328.315C140.943 327.698 139.745 326.674 138.873 325.018C138.337 323.703 138.439 322.338 138.516 320.944C138.353 321.017 138.19 321.091 138.021 321.167C136.963 321.548 135.912 321.474 134.798 321.471C134.569 321.474 134.339 321.478 134.103 321.482C131.84 321.483 130.382 320.955 128.712 319.392C127.195 317.717 126.992 315.8 127.044 313.612C127.22 311.582 128.221 310.367 129.719 309.07C130.697 308.353 131.748 307.981 132.89 307.596C133.125 307.512 133.361 307.428 133.604 307.341C134.329 307.084 135.055 306.834 135.781 306.584C136.238 306.423 136.695 306.262 137.152 306.1C138.212 305.724 139.276 305.357 140.34 304.989C140.49 301.83 140.641 298.671 140.796 295.416C139.724 295.021 139.724 295.021 138.63 294.618C136.461 293.802 134.408 292.856 132.362 291.769C132.141 291.657 131.921 291.546 131.693 291.431C124.383 287.648 119.028 280.888 116.413 273.149C114.025 265.438 114.63 257.258 115.724 249.375C115.608 249.424 115.493 249.473 115.374 249.524C109.913 251.835 103.672 253.956 97.8281 251.763C94.8228 250.489 92.0866 248.364 90.8309 245.275C89.0115 240.076 90.4221 234.922 92.7273 230.117C93.8107 227.953 95.1141 225.996 96.578 224.075C96.6736 223.948 96.7691 223.821 96.8676 223.691C98.1711 221.96 99.5192 220.267 100.909 218.605C101.056 218.428 101.056 218.428 101.205 218.248C103.838 215.096 106.673 212.14 109.57 209.231C109.747 209.053 109.924 208.875 110.106 208.692C111.182 207.619 112.29 206.6 113.445 205.613C113.699 205.392 113.953 205.17 114.207 204.949C115.493 203.839 116.748 202.809 118.231 201.966C117.565 201.427 116.857 201.016 116.105 200.609C113.321 199.102 110.84 197.365 108.533 195.196C108.049 194.743 107.556 194.314 107.048 193.889C100.502 188.156 96.3196 178.878 95.7215 170.269C95.4983 166.163 95.6002 162.077 96.6208 158.076C96.6795 157.843 96.6795 157.843 96.7393 157.605C96.982 156.724 97.2764 155.878 97.6256 155.034C98.5886 152.698 99.2224 150.441 99.6656 147.955C99.8444 146.957 100.038 145.961 100.231 144.966C100.269 144.77 100.307 144.574 100.346 144.372C100.848 141.803 101.518 139.285 102.276 136.779C102.338 136.574 102.4 136.369 102.464 136.157C105.63 125.816 110.72 116.326 118.231 108.516C118.338 108.404 118.445 108.293 118.555 108.177C119.835 106.843 121.162 105.617 122.61 104.467C123.035 104.126 123.454 103.777 123.867 103.42C125.816 101.734 127.909 100.322 130.083 98.9436C130.239 98.8448 130.394 98.7461 130.554 98.6444C139.421 93.0729 149.743 89.7063 160.055 88.1456C160.307 88.1073 160.558 88.0691 160.817 88.0297C162.283 87.8217 163.704 87.7268 165.184 87.7752C165.184 87.6248 165.184 87.4743 165.184 87.3193C165.033 87.2723 164.883 87.2253 164.728 87.1769C164.12 86.8981 163.743 86.6375 163.232 86.2224C161.293 84.7425 159.219 84.2329 156.83 84.0269C156.023 83.8932 155.57 83.716 154.927 83.2167C154.314 82.2992 154.267 81.3193 154.471 80.2536C154.971 79.3397 155.52 78.789 156.486 78.3928C159.223 77.6687 161.887 78.4546 164.327 79.7274C165.087 80.1814 165.823 80.6622 166.551 81.1653C166.705 81.2711 166.858 81.3768 167.017 81.4857C168.162 82.2785 169.296 83.0864 170.426 83.9004C170.623 84.0419 170.623 84.0419 170.824 84.1862C172.729 85.5541 172.729 85.5541 173.542 86.2296C174.022 86.6817 174.022 86.6817 174.529 86.6356C174.691 86.2336 174.691 86.2336 174.856 85.8236C174.917 85.6728 174.978 85.5221 175.041 85.3668C175.818 82.859 175.778 79.7146 174.757 77.2906C174.682 77.1043 174.607 76.918 174.53 76.7261C173.51 74.4471 171.857 72.8144 169.78 71.4722C169.028 70.9604 168.666 70.6422 168.375 69.769C168.29 68.6269 168.348 67.9476 169.059 67.0339C171.081 65.2071 173.488 66.6247 175.341 68.0026ZM123.929 111.024C123.686 111.256 123.686 111.256 123.438 111.493C120.92 113.908 118.641 116.372 116.636 119.229C116.534 119.372 116.432 119.515 116.327 119.663C110.427 128.021 106.352 138.336 105.333 148.534C105.06 151.204 104.503 153.479 103.511 155.976C102.054 159.651 101.405 162.934 101.568 166.889C101.593 167.575 101.602 168.26 101.608 168.946C101.675 173.445 102.84 176.977 104.783 180.997C104.856 181.149 104.929 181.302 105.003 181.458C108.663 189.047 116.036 194.96 123.914 197.728C125.231 198.181 126.551 198.624 127.877 199.048C128.033 199.098 128.188 199.149 128.349 199.202C128.776 199.341 129.204 199.478 129.633 199.614C130.356 199.935 130.619 200.141 130.995 200.827C131.268 201.956 131.363 202.379 130.824 203.419C130.258 204.08 129.91 204.449 129.026 204.526C128.797 204.523 128.567 204.519 128.331 204.516C128.104 204.515 127.878 204.513 127.645 204.512C126.892 204.473 126.892 204.473 126.014 204.281C124.793 204.122 124.039 204.761 123.089 205.456C122.91 205.581 122.731 205.707 122.547 205.835C122.015 206.211 121.49 206.594 120.966 206.981C120.822 207.087 120.678 207.193 120.529 207.302C119.673 207.937 118.835 208.593 118.003 209.26C117.669 209.524 117.669 209.524 117.328 209.793C116.187 210.708 115.122 211.653 114.103 212.703C113.676 213.131 113.234 213.525 112.775 213.918C111.274 215.213 109.914 216.626 108.627 218.132C108.147 218.667 107.637 219.16 107.12 219.659C101.907 224.832 96.0503 233.17 95.7803 240.714C95.851 242.504 96.374 243.559 97.6749 244.774C100.136 246.782 103.354 246.683 106.379 246.412C109.124 245.944 111.717 244.828 114.131 243.467C114.609 243.207 115.096 242.979 115.588 242.75C117.276 241.928 117.276 241.928 118.448 240.519C118.789 239.467 118.893 238.375 119.034 237.282C119.247 235.973 119.629 234.706 119.997 233.434C120.076 233.162 120.155 232.89 120.236 232.61C120.733 230.931 121.267 229.272 121.892 227.636C121.959 227.455 122.025 227.274 122.094 227.087C122.584 225.869 123.244 224.987 124.385 224.303C125.1 224.113 125.446 224.168 126.208 224.303C126.822 224.799 127.224 225.194 127.576 225.898C127.703 227.247 127.515 228.418 127.049 229.688C126.99 229.857 126.931 230.026 126.871 230.201C126.463 231.369 126.034 232.529 125.607 233.69C123.726 238.839 122.352 243.979 121.522 249.409C121.456 249.834 121.389 250.259 121.318 250.683C120.765 254.034 120.667 257.354 120.653 260.743C120.65 261.052 120.65 261.052 120.647 261.368C120.623 264.945 120.819 268.61 122.035 272.011C122.092 272.177 122.15 272.344 122.21 272.516C123.157 275.124 124.619 277.37 126.436 279.461C126.667 279.737 126.667 279.737 126.903 280.019C133.814 288.053 144.66 290.942 154.699 292.681C154.939 292.723 155.179 292.764 155.426 292.807C157.155 293.103 158.887 293.356 160.625 293.593C160.867 293.627 161.108 293.662 161.357 293.698C174.647 295.55 189.821 294.959 202.792 291.313C203.015 291.252 203.239 291.19 203.469 291.126C210.003 289.303 216.054 286.678 221.026 281.968C221.188 281.819 221.188 281.819 221.354 281.666C226.433 276.979 228.919 270.66 229.275 263.807C229.292 262.966 229.294 262.126 229.288 261.284C229.287 261.133 229.287 260.983 229.286 260.827C229.258 255.729 228.789 250.74 227.864 245.728C227.828 245.522 227.792 245.315 227.755 245.103C226.921 240.382 225.343 235.743 223.603 231.281C223.54 231.119 223.477 230.957 223.412 230.79C223.294 230.486 223.173 230.184 223.05 229.882C222.491 228.455 222.307 226.955 222.621 225.443C223.05 224.921 223.387 224.604 223.989 224.303C225.148 224.215 225.788 224.295 226.724 224.987C229.561 228.995 230.577 234.772 231.594 239.475C231.877 240.562 232.092 241.217 233.076 241.815C233.256 241.925 233.437 242.036 233.623 242.15C233.819 242.264 234.015 242.377 234.217 242.494C234.42 242.613 234.622 242.733 234.831 242.855C239.279 245.401 244.423 247.269 249.602 246.262C251.36 245.696 252.799 244.646 253.733 243.036C254.466 241.286 254.07 239.383 253.605 237.608C253.528 237.312 253.528 237.312 253.449 237.009C250.997 227.987 244.002 220.832 237.579 214.388C237.368 214.176 237.156 213.963 236.938 213.745C235.897 212.706 234.845 211.697 233.728 210.74C233.187 210.273 232.671 209.779 232.151 209.288C230.811 208.069 229.377 207.061 227.864 206.069C227.605 205.889 227.347 205.708 227.089 205.528C225.608 204.459 225.608 204.459 223.861 204.245C223.622 204.3 223.622 204.3 223.379 204.355C222.038 204.655 220.584 204.75 219.387 204.046C218.806 203.365 218.711 202.987 218.704 202.109C218.7 201.933 218.697 201.757 218.694 201.576C218.754 200.981 218.888 200.65 219.202 200.143C219.6 199.888 219.6 199.888 220.087 199.69C220.271 199.615 220.455 199.54 220.645 199.462C221.744 199.045 222.851 198.651 223.96 198.262C228.714 196.567 232.898 194.816 236.753 191.482C236.865 191.384 236.977 191.287 237.093 191.187C242.935 186.093 247.42 179.247 248.377 171.424C248.402 170.793 248.419 170.167 248.423 169.536C248.424 169.358 248.426 169.181 248.427 168.998C248.429 168.624 248.431 168.25 248.432 167.876C248.434 167.314 248.441 166.753 248.448 166.191C248.468 163.233 248.032 160.582 247.052 157.777C246.965 157.517 246.965 157.517 246.875 157.252C246.598 156.436 246.306 155.633 245.965 154.842C244.957 152.435 244.619 150.061 244.272 147.483C242.528 134.734 237.216 123.089 228.319 113.759C228.032 113.433 227.747 113.105 227.465 112.776C223.424 108.131 218.215 104.564 212.82 101.679C212.681 101.603 212.541 101.527 212.397 101.449C205.611 97.8048 198.194 95.7838 190.712 94.1571C190.529 94.1163 190.347 94.0755 190.159 94.0335C189.133 93.8057 188.104 93.6246 187.065 93.4733C186.863 93.4428 186.661 93.4123 186.454 93.3809C165.796 90.3787 142.11 95.4777 123.929 111.024Z" fill="black"/>
<path d="M181.865 154.159C185.774 156.573 190.381 160.019 191.764 164.596C192.197 166.809 191.503 168.788 190.313 170.655C187.394 174.733 183.057 177.747 178.176 178.946C178.035 178.985 177.894 179.025 177.749 179.066C173.515 180.008 169.424 178.672 165.868 176.438C162.52 174.191 159.342 171.293 158.438 167.204C158.119 165.234 158.507 163.64 159.633 161.982C160.027 161.47 160.435 160.976 160.853 160.484C161.128 160.131 161.128 160.131 161.409 159.771C162.153 158.937 162.955 158.231 163.816 157.521C163.929 157.426 164.043 157.332 164.159 157.234C169.823 152.535 175.145 150.441 181.865 154.159Z" fill="black"/>
<path d="M230.884 159.145C233.104 161.248 234.225 163.89 234.325 166.916C234.364 170.239 233.54 173.35 231.22 175.843C228.6 178.291 225.515 179.374 221.975 179.305C218.737 179.148 215.711 177.692 213.504 175.299C212.964 174.575 212.54 173.827 212.137 173.02C212.026 172.799 211.914 172.578 211.799 172.351C210.633 169.733 210.629 166.82 211.429 164.079C211.89 162.923 212.539 161.936 213.276 160.94C213.396 160.775 213.516 160.611 213.639 160.442C215.451 158.169 218.028 156.903 220.798 156.21C224.626 155.891 227.899 156.663 230.884 159.145Z" fill="#F4A99C"/>
<path d="M131.451 157.065C131.773 157.21 131.773 157.21 132.102 157.358C135.011 158.798 136.747 161.116 137.833 164.13C138.523 167.631 138.176 171.258 136.166 174.273C135.894 174.621 135.614 174.963 135.326 175.299C135.196 175.46 135.065 175.62 134.931 175.786C133.179 177.751 130.34 179.098 127.717 179.258C125.394 179.318 123.525 179.121 121.422 178.034C121.214 177.93 121.006 177.825 120.791 177.718C118.362 176.389 116.638 174.082 115.753 171.467C114.936 167.997 115.239 164.228 117.054 161.141C120.257 156.478 126.232 154.64 131.451 157.065Z" fill="#F4A99C"/>
<path d="M146.266 297.011C148.635 297.463 148.635 297.463 151.052 297.923C151.044 298.438 151.037 298.952 151.028 299.482C150.646 306.099 150.646 306.099 153.32 311.856C153.82 312.358 154.328 312.849 154.842 313.337C157.346 315.714 157.346 315.714 157.506 317.34C157.434 317.981 157.434 317.981 156.978 318.664C155.939 318.632 155.38 318.529 154.635 317.782C154.387 317.514 154.142 317.243 153.901 316.969C152.949 315.892 152.303 315.279 150.824 315.018C149.877 315.034 149.402 315.109 148.656 315.701C147.942 316.564 147.686 317.374 147.377 318.437C146.657 320.834 146.657 320.834 146.038 321.628C145.198 321.813 145.198 321.813 144.443 321.855C144.037 321.156 143.93 320.645 143.924 319.84C143.92 319.631 143.915 319.422 143.91 319.207C143.904 318.769 143.9 318.332 143.898 317.894C143.877 316.66 143.877 316.66 143.379 315.557C141.971 314.732 139.967 315.211 138.431 315.473C137.303 315.665 136.211 315.758 135.069 315.773C134.786 315.776 134.504 315.78 134.213 315.784C133.502 315.701 133.502 315.701 133.048 315.426C132.818 315.018 132.818 315.018 132.845 314.465C133.046 313.878 133.046 313.878 133.549 313.508C135.371 312.657 137.217 311.979 139.129 311.357C142.376 310.416 142.376 310.416 145.01 308.429C146.058 306.285 145.878 303.452 145.96 301.101C145.967 300.899 145.975 300.698 145.982 300.49C145.987 300.314 145.993 300.137 145.998 299.956C146.057 298.972 146.168 297.992 146.266 297.011Z" fill="#FFBB4D"/>
<path d="M203.932 297.239C203.938 297.582 203.938 297.582 203.945 297.932C203.963 298.791 203.983 299.651 204.004 300.51C204.013 300.88 204.02 301.25 204.028 301.619C203.927 305.508 203.927 305.508 205.351 308.969C207.268 310.63 210.041 311.243 212.419 311.982C214.133 312.517 215.677 313.056 217.151 314.106C217.066 314.775 217.066 314.775 216.923 315.473C215.625 316.123 213.817 315.665 212.436 315.473C211.178 315.304 209.931 315.185 208.661 315.16C208.387 315.154 208.113 315.147 207.831 315.141C206.983 315.266 206.73 315.492 206.211 316.157C205.938 316.703 205.94 317.079 205.919 317.689C205.91 317.901 205.902 318.114 205.893 318.332C205.885 318.555 205.877 318.777 205.869 319.006C205.853 319.446 205.837 319.885 205.819 320.324C205.812 320.519 205.805 320.715 205.798 320.916C205.755 321.4 205.755 321.4 205.527 321.855C204.801 321.87 204.801 321.87 203.932 321.627C202.821 320.409 202.511 318.68 202.151 317.122C201.831 316.25 201.456 315.831 200.741 315.246C199.864 314.888 199.057 314.987 198.148 315.189C197.069 315.712 196.332 316.74 195.574 317.64C194.917 318.343 194.48 318.623 193.532 318.736C193.354 318.712 193.175 318.689 192.991 318.664C192.483 317.903 192.471 317.542 192.613 316.653C193.195 314.734 195.164 313.264 196.567 311.926C199.188 309.163 199.02 305.525 198.96 301.912C198.956 301.544 198.953 301.176 198.951 300.809C198.943 299.923 198.931 299.037 198.917 298.151C199.539 297.998 200.161 297.846 200.783 297.695C200.959 297.652 201.134 297.608 201.314 297.563C202.204 297.35 203.009 297.18 203.932 297.239Z" fill="#FFBB4D"/>
<path d="M209.604 144.942C211.354 145.927 212.684 147.615 213.276 149.543C213.346 150.204 213.352 150.859 213.347 151.523C213.345 151.798 213.345 151.798 213.343 152.078C213.297 154.338 212.81 156.08 211.225 157.749C209.516 159.338 207.655 159.978 205.326 159.907C203.308 159.604 201.683 158.505 200.427 156.927C199.045 154.891 198.913 152.847 199.145 150.455C199.563 148.456 200.568 146.679 202.238 145.474C204.552 144.053 207.085 143.757 209.604 144.942Z" fill="black"/>
<path d="M147.138 145.092C148.832 146.284 149.982 147.769 150.597 149.771C150.938 152.212 150.723 154.521 149.485 156.666C148.237 158.282 146.827 159.157 144.898 159.8C142.828 160.01 141.181 159.673 139.495 158.435C137.84 157.032 136.981 155.796 136.693 153.646C136.493 151.13 136.574 149.191 138.061 147.036C138.645 146.352 138.645 146.352 139.2 145.896C139.374 145.737 139.548 145.577 139.727 145.412C141.921 143.882 144.818 143.725 147.138 145.092Z" fill="black"/>
<path d="M179.225 158.504C181.815 159.987 184.26 161.861 185.925 164.358C185.925 164.584 185.925 164.81 185.925 165.042C183.603 165.664 181.42 165.762 179.021 165.764C178.704 165.765 178.388 165.766 178.071 165.767C177.408 165.768 176.746 165.768 176.083 165.768C175.244 165.768 174.404 165.771 173.564 165.775C172.91 165.778 172.256 165.778 171.601 165.778C171.144 165.778 170.687 165.781 170.23 165.783C165.503 165.772 165.503 165.772 164.044 165.042C165.247 161.557 169.553 159.095 172.705 157.521C175.144 156.618 176.982 157.371 179.225 158.504Z" fill="#FFBB4D"/>
<path d="M185.013 170.285C183.766 171.292 182.508 172.051 181.053 172.72C180.874 172.806 180.695 172.892 180.51 172.981C177.571 174.357 174.873 174.916 171.694 173.931C169.389 173.087 167.188 171.931 165.184 170.512C165.184 170.437 165.184 170.362 165.184 170.285C165.399 170.285 165.615 170.286 165.838 170.286C167.876 170.291 169.915 170.294 171.954 170.296C173.002 170.298 174.05 170.299 175.098 170.302C176.11 170.304 177.123 170.306 178.135 170.306C178.52 170.307 178.906 170.307 179.291 170.309C179.833 170.31 180.374 170.311 180.916 170.31C181.073 170.311 181.231 170.312 181.393 170.313C182.184 170.311 182.949 170.264 183.731 170.155C184.557 170.057 184.557 170.057 185.013 170.285Z" fill="#FFBB4D"/>
<path d="M150.531 121.196C151.032 121.58 151.273 121.906 151.383 122.504C151.466 123.759 150.634 124.585 149.827 125.479C146.813 128.73 142.223 130.995 137.687 131.297C137.414 131.31 137.142 131.316 136.869 131.321C136.778 131.325 136.687 131.329 136.593 131.333C135.892 131.343 135.422 131.17 134.884 130.734C134.473 130.266 134.36 129.831 134.394 129.222C134.494 128.567 134.865 128.216 135.369 127.811C135.718 127.577 136.045 127.553 136.458 127.532C140.408 127.295 143.934 125.946 146.731 123.202C147.041 122.858 147.301 122.503 147.56 122.124C148.264 121.117 149.288 120.603 150.531 121.196Z" fill="black"/>
<path d="M200.414 121.196C199.912 121.58 199.671 121.906 199.561 122.504C199.478 123.759 200.31 124.585 201.118 125.479C204.131 128.73 208.721 130.995 213.257 131.297C213.53 131.31 213.802 131.316 214.076 131.321C214.167 131.325 214.258 131.329 214.352 131.333C215.052 131.343 215.523 131.17 216.061 130.734C216.471 130.266 216.584 129.831 216.55 129.222C216.45 128.567 216.08 128.216 215.575 127.811C215.226 127.577 214.899 127.553 214.487 127.532C210.536 127.295 207.01 125.946 204.214 123.202C203.903 122.858 203.644 122.503 203.384 122.124C202.681 121.117 201.656 120.603 200.414 121.196Z" fill="black"/>
<mask id="mask0_635_3223" style="mask-type:alpha" maskUnits="userSpaceOnUse" x="134" y="145" width="15" height="23">
<path d="M142.806 145.503C144.428 145.457 145.885 146.007 147.069 147.118C147.75 147.777 148.189 148.484 148.563 149.347C148.597 149.424 148.631 149.502 148.666 149.582C149.152 150.951 148.957 152.567 148.358 153.857C148.112 154.364 147.84 154.825 147.458 155.243C147.399 155.308 147.34 155.374 147.279 155.442C146.288 156.492 144.858 157.258 143.392 157.312C143.226 157.313 143.059 157.313 142.893 157.311C142.835 157.31 142.778 157.31 142.719 157.31C142.579 157.309 142.439 157.308 142.299 157.306C142.317 157.383 142.336 157.46 142.355 157.54C143.821 163.652 143.821 163.652 142.525 165.876C141.946 166.806 140.88 167.471 139.826 167.734C138.431 167.938 137.186 167.714 136.016 166.905C135.123 166.188 134.559 165.064 134.413 163.939C134.111 160.72 136.699 157.781 138.614 155.464C138.463 155.209 138.306 154.961 138.144 154.713C137.317 153.405 136.88 151.832 137.227 150.288C137.643 148.632 138.558 147.24 140.014 146.325C140.898 145.832 141.797 145.559 142.806 145.503Z" fill="black"/>
</mask>
<g mask="url(#mask0_635_3223)">
<rect x="134.389" y="155.293" width="10.0368" height="12.4265" fill="black"/>
<path d="M140.087 156.938C141.898 162.575 141.898 162.575 141.119 164.455C140.794 165.081 140.323 165.525 139.665 165.789C138.908 166.02 138.217 166.009 137.508 165.634C136.905 165.212 136.472 164.673 136.329 163.939C136.101 161.564 138.04 159.216 139.438 157.491C139.895 156.938 139.895 156.938 140.087 156.938Z" fill="#AADCE7"/>
</g>
<mask id="mask1_635_3223" style="mask-type:alpha" maskUnits="userSpaceOnUse" x="202" y="145" width="15" height="23">
<path d="M208.523 145.503C206.901 145.457 205.444 146.007 204.261 147.118C203.579 147.777 203.14 148.484 202.766 149.347C202.732 149.424 202.698 149.502 202.664 149.582C202.177 150.951 202.372 152.567 202.971 153.857C203.217 154.364 203.489 154.825 203.872 155.243C203.931 155.308 203.99 155.374 204.05 155.442C205.041 156.492 206.471 157.258 207.937 157.312C208.103 157.313 208.27 157.313 208.436 157.311C208.494 157.31 208.551 157.31 208.61 157.31C208.75 157.309 208.89 157.308 209.03 157.306C209.012 157.383 208.993 157.46 208.974 157.54C207.508 163.652 207.508 163.652 208.804 165.876C209.383 166.806 210.449 167.471 211.503 167.734C212.898 167.938 214.143 167.714 215.313 166.905C216.206 166.188 216.77 165.064 216.916 163.939C217.218 160.72 214.63 157.781 212.715 155.464C212.866 155.209 213.024 154.961 213.185 154.713C214.012 153.405 214.449 151.832 214.103 150.288C213.686 148.632 212.772 147.24 211.315 146.325C210.431 145.832 209.532 145.559 208.523 145.503Z" fill="black"/>
</mask>
<g mask="url(#mask1_635_3223)">
<rect width="10.0368" height="12.4265" transform="matrix(-1 0 0 1 216.94 155.293)" fill="black"/>
<path d="M211.242 156.938C209.431 162.575 209.431 162.575 210.21 164.455C210.536 165.081 211.007 165.525 211.664 165.789C212.421 166.019 213.112 166.009 213.821 165.634C214.424 165.212 214.857 164.673 215 163.939C215.228 161.564 213.289 159.216 211.891 157.491C211.434 156.938 211.434 156.938 211.242 156.938Z" fill="#AADCE7"/>
</g>
<path d="M186.865 18.0103C186.987 18.007 187.109 18.0037 187.235 18.0002C188.404 17.991 189.437 18.2448 190.3 19.0693C191.01 19.9183 191.324 20.9834 191.332 22.0764C191.333 22.1915 191.333 22.1915 191.334 22.309C191.335 22.5562 191.335 22.8033 191.333 23.0505C191.333 23.1354 191.333 23.2203 191.333 23.3078C191.326 24.635 191.241 25.8996 190.954 27.1971C190.917 27.3743 190.917 27.3743 190.878 27.5552C190.643 28.6587 190.407 29.7628 190.122 30.8548C189.615 32.811 189.793 34.5987 190.368 36.5197C190.403 36.6356 190.437 36.7516 190.473 36.871C190.593 37.2693 190.716 37.6667 190.84 38.0639C190.874 38.1722 190.874 38.1722 190.908 38.2827C191.777 41.0599 192.81 43.7634 193.885 46.4667C194.505 48.0278 195.104 49.5969 195.704 51.1659C195.899 51.6762 196.097 52.1854 196.297 52.6939C197.86 56.694 199.189 60.7958 200.443 64.9021C200.562 65.2849 200.686 65.6658 200.811 66.0464C201.852 69.1963 202.736 72.3999 203.52 75.6228C203.627 76.0611 203.745 76.4944 203.873 76.9271C204.103 77.7075 204.294 78.4965 204.488 79.2864C204.803 80.5659 205.152 81.8314 205.53 83.0938C205.715 83.7139 205.886 84.3377 206.054 84.9629C206.214 84.9985 206.214 84.9985 206.378 85.0348C211.771 86.2522 218.483 88.2356 221.696 93.1416C221.822 93.35 221.946 93.5596 222.068 93.7707C222.121 93.8623 222.174 93.9539 222.228 94.0482C223.105 95.6766 223.411 97.6157 222.961 99.428C222.393 101.206 221.537 102.598 220.238 103.951C220.138 104.059 220.038 104.168 219.936 104.279C215.808 108.675 208.875 110.669 203.194 112.073C203.066 112.105 202.938 112.137 202.806 112.17C200.551 112.732 198.28 113.18 195.987 113.56C195.902 113.574 195.817 113.588 195.729 113.603C193.148 114.034 190.564 114.336 187.959 114.568C187.824 114.58 187.69 114.592 187.551 114.604C187.159 114.639 186.766 114.673 186.374 114.706C186.206 114.721 186.206 114.721 186.034 114.735C183.868 114.913 181.702 114.951 179.53 114.952C179.262 114.952 178.994 114.952 178.726 114.953C178.167 114.954 177.607 114.954 177.048 114.954C176.485 114.954 175.922 114.954 175.358 114.956C172.046 114.965 168.751 114.933 165.446 114.704C165.31 114.695 165.174 114.685 165.035 114.676C163.277 114.556 161.541 114.331 159.798 114.077C159.402 114.02 159.006 113.967 158.609 113.914C150.753 112.863 141.121 111.142 134.561 106.468C134.449 106.388 134.337 106.309 134.222 106.226C132.095 104.671 130.109 102.7 129.185 100.176C129.149 100.082 129.112 99.9877 129.075 99.8905C128.581 98.3302 128.564 96.1616 129.299 94.6858C129.356 94.5646 129.413 94.4434 129.472 94.3185C129.918 93.4285 130.463 92.6775 131.13 91.9405C131.215 91.8454 131.301 91.7503 131.389 91.6523C132.66 90.3138 134.198 89.363 135.819 88.5089C135.89 88.4711 135.96 88.4333 136.032 88.3943C138.923 86.8407 142.136 85.7483 145.34 85.0603C145.686 84.9538 145.779 84.8992 146 84.6197C146.142 84.2698 146.142 84.2698 146.26 83.8619C146.283 83.7863 146.306 83.7107 146.33 83.6328C146.405 83.3901 146.478 83.147 146.55 82.9039C146.598 82.7475 146.646 82.5911 146.694 82.4347C146.767 82.1943 146.841 81.9538 146.914 81.7132C147.091 81.1307 147.272 80.5498 147.456 79.9696C147.732 79.1015 148.003 78.2323 148.273 77.3625C149.81 72.4071 151.415 67.4814 153.138 62.5871C153.321 62.0678 153.503 61.5481 153.682 61.0276C155.474 55.8317 157.586 50.6863 159.955 45.7279C160.071 45.483 160.188 45.2382 160.304 44.9933C160.642 44.2832 160.984 43.5754 161.328 42.8682C161.377 42.7677 161.425 42.6672 161.475 42.5637C162.18 41.1101 162.952 39.7018 163.758 38.3023C163.903 38.0471 164.046 37.7913 164.187 37.5337C164.843 36.3388 165.571 35.2045 166.332 34.0746C166.455 33.8918 166.578 33.7089 166.7 33.5261C169.162 29.8625 171.867 26.1513 175.283 23.3079C175.346 23.2551 175.409 23.2023 175.473 23.148C178.689 20.4448 182.55 18.0488 186.865 18.0103Z" fill="#AADCE7"/>
<path d="M186.865 18.0103C186.987 18.007 187.109 18.0037 187.235 18.0002C188.404 17.991 189.437 18.2448 190.3 19.0693C191.01 19.9183 191.324 20.9834 191.332 22.0764C191.333 22.1915 191.333 22.1915 191.334 22.309C191.335 22.5562 191.335 22.8033 191.333 23.0505C191.333 23.1354 191.333 23.2203 191.333 23.3078C191.326 24.635 191.241 25.8996 190.954 27.1971C190.917 27.3743 190.917 27.3743 190.878 27.5552C190.643 28.6587 190.407 29.7628 190.122 30.8548C189.615 32.811 189.793 34.5987 190.368 36.5197C190.403 36.6356 190.437 36.7516 190.473 36.871C190.593 37.2693 190.716 37.6667 190.84 38.0639C190.874 38.1722 190.874 38.1722 190.908 38.2827C191.777 41.0599 192.81 43.7634 193.885 46.4667C194.505 48.0278 195.104 49.5969 195.704 51.1659C195.899 51.6762 196.097 52.1854 196.297 52.6939C197.86 56.694 199.189 60.7958 200.443 64.9021C200.562 65.2849 200.686 65.6658 200.811 66.0464C201.852 69.1963 202.736 72.3999 203.52 75.6228C203.627 76.0611 203.745 76.4944 203.873 76.9271C204.103 77.7075 204.294 78.4965 204.488 79.2864C204.803 80.5659 205.152 81.8314 205.53 83.0938C205.715 83.7139 205.886 84.3377 206.054 84.9629C206.214 84.9985 206.214 84.9985 206.378 85.0348C211.771 86.2522 218.483 88.2356 221.696 93.1416C221.822 93.35 221.946 93.5596 222.068 93.7707C222.121 93.8623 222.174 93.9539 222.228 94.0482C223.105 95.6766 223.411 97.6157 222.961 99.428C222.393 101.206 221.537 102.598 220.238 103.951C220.138 104.059 220.038 104.168 219.936 104.279C215.808 108.675 208.875 110.669 203.194 112.073C203.066 112.105 202.938 112.137 202.806 112.17C200.551 112.732 198.28 113.18 195.987 113.56C195.902 113.574 195.817 113.588 195.729 113.603C193.148 114.034 190.564 114.336 187.959 114.568C187.824 114.58 187.69 114.592 187.551 114.604C187.159 114.639 186.766 114.673 186.374 114.706C186.206 114.721 186.206 114.721 186.034 114.735C183.868 114.913 181.702 114.951 179.53 114.952C179.262 114.952 178.994 114.952 178.726 114.953C178.167 114.954 177.607 114.954 177.048 114.954C176.485 114.954 175.922 114.954 175.358 114.956C172.046 114.965 168.751 114.933 165.446 114.704C165.31 114.695 165.174 114.685 165.035 114.676C163.277 114.556 161.541 114.331 159.798 114.077C159.402 114.02 159.006 113.967 158.609 113.914C150.753 112.863 141.121 111.142 134.561 106.468C134.449 106.388 134.337 106.309 134.222 106.226C132.095 104.671 130.109 102.7 129.185 100.176C129.149 100.082 129.112 99.9877 129.075 99.8905C128.581 98.3302 128.564 96.1616 129.299 94.6858C129.356 94.5646 129.413 94.4434 129.472 94.3185C129.918 93.4285 130.463 92.6775 131.13 91.9405C131.215 91.8454 131.301 91.7503 131.389 91.6523C132.66 90.3138 134.198 89.363 135.819 88.5089C135.89 88.4711 135.96 88.4333 136.032 88.3943C138.923 86.8407 142.136 85.7483 145.34 85.0603C145.686 84.9538 145.779 84.8992 146 84.6197C146.142 84.2698 146.142 84.2698 146.26 83.8619C146.283 83.7863 146.306 83.7107 146.33 83.6328C146.405 83.3901 146.478 83.147 146.55 82.9039C146.598 82.7475 146.646 82.5911 146.694 82.4347C146.767 82.1943 146.841 81.9538 146.914 81.7132C147.091 81.1307 147.272 80.5498 147.456 79.9696C147.732 79.1015 148.003 78.2323 148.273 77.3625C149.81 72.4071 151.415 67.4814 153.138 62.5871C153.321 62.0678 153.503 61.5481 153.682 61.0276C155.474 55.8317 157.586 50.6863 159.955 45.7279C160.071 45.483 160.188 45.2382 160.304 44.9933C160.642 44.2832 160.984 43.5754 161.328 42.8682C161.377 42.7677 161.425 42.6672 161.475 42.5637C162.18 41.1101 162.952 39.7018 163.758 38.3023C163.903 38.0471 164.046 37.7913 164.187 37.5337C164.843 36.3388 165.571 35.2045 166.332 34.0746C166.455 33.8918 166.578 33.7089 166.7 33.5261C169.162 29.8625 171.867 26.1513 175.283 23.3079C175.346 23.2551 175.409 23.2023 175.473 23.148C178.689 20.4448 182.55 18.0488 186.865 18.0103ZM186.4 21.0483C183.376 21.415 180.7 23.1648 178.372 25.0237C178.266 25.1072 178.16 25.1906 178.051 25.2766C175.784 27.0948 173.836 29.2308 172.117 31.57C171.95 31.7937 171.78 32.0142 171.609 32.2346C165.577 40.0642 161.823 49.2319 158.104 58.3105C158.055 58.4277 158.007 58.5449 157.958 58.6656C157.38 60.0849 156.892 61.5364 156.397 62.986C156.247 63.4261 156.096 63.8661 155.945 64.3061C155.916 64.3918 155.887 64.4775 155.856 64.5659C155.623 65.2459 155.389 65.9252 155.151 66.6036C155.119 66.6937 155.088 66.7838 155.056 66.8766C154.897 67.3285 154.733 67.7781 154.565 68.2265C154.416 68.6309 154.289 69.038 154.171 69.4524C153.774 70.8491 153.294 72.2162 152.816 73.5871C152.377 74.8494 151.962 76.1122 151.606 77.4008C151.436 78.0151 151.247 78.6194 151.04 79.222C150.764 80.0309 150.518 80.8457 150.282 81.6671C150.027 82.5557 149.761 83.4361 149.459 84.3101C149.033 85.5844 148.662 86.8769 148.279 88.1648C148.025 89.0215 147.762 89.874 147.475 90.7203C147.042 91.8864 147.042 91.8864 147.144 93.0844C148.247 95.0216 151.545 95.8324 153.547 96.386C153.976 96.5045 154.394 96.6456 154.815 96.7877C155.749 97.0913 156.709 97.2939 157.668 97.5026C157.744 97.5194 157.821 97.5361 157.9 97.5533C159.662 97.9359 161.429 98.2672 163.215 98.5178C163.302 98.53 163.388 98.5422 163.477 98.5547C164.928 98.7565 166.38 98.8973 167.841 99.004C167.933 99.0107 168.025 99.0174 168.12 99.0244C168.663 99.0634 169.207 99.0987 169.751 99.1309C169.928 99.1414 170.105 99.1523 170.282 99.1636C172.219 99.2863 174.159 99.2866 176.099 99.2888C176.477 99.2893 176.855 99.2909 177.233 99.2935C179.743 99.3105 182.211 99.209 184.708 98.9579C185.197 98.9108 185.685 98.8732 186.174 98.839C187.766 98.7245 189.333 98.4495 190.904 98.1826C191.231 98.1285 191.558 98.0782 191.886 98.0321C193.457 97.8105 194.994 97.4385 196.534 97.0628C196.818 96.994 197.102 96.9278 197.387 96.8641C199.64 96.3267 203.342 95.3217 204.681 93.3132C204.826 92.3776 204.567 91.504 204.304 90.6141C204.211 90.2974 204.123 89.9797 204.035 89.6617C203.739 88.5956 203.44 87.531 203.122 86.4714C202.888 85.688 202.688 84.8981 202.492 84.1042C202.186 82.8605 201.835 81.6301 201.479 80.3994C201.439 80.2595 201.399 80.1196 201.357 79.9754C201.278 79.7002 201.198 79.4251 201.118 79.1501C200.899 78.3895 200.706 77.6281 200.532 76.8558C200.402 76.2997 200.244 75.7523 200.084 75.2042C200.053 75.0963 200.022 74.9884 199.989 74.8773C199.914 74.6168 199.838 74.3564 199.762 74.096C199.381 74.223 199.303 74.3163 199.054 74.6179C198.69 75.0493 198.303 75.4463 197.898 75.8391C197.582 76.1658 197.478 76.348 197.432 76.8056C197.46 77.9223 197.856 79.0283 198.21 80.0778C198.584 81.1994 198.928 82.2428 198.375 83.3686C198.099 83.7962 197.86 84.0151 197.36 84.1622C196.701 84.202 196.221 84.1248 195.616 83.8547C195.536 83.821 195.457 83.7874 195.375 83.7526C194.805 83.507 194.245 83.241 193.686 82.9732C193.542 82.9047 193.398 82.8362 193.254 82.7677C192.967 82.6316 192.682 82.4929 192.398 82.3526C192.266 82.2892 192.133 82.2257 191.997 82.1604C191.879 82.1026 191.76 82.0448 191.639 81.9852C191.242 81.8562 191.011 81.8823 190.611 81.9888C190.364 82.1235 190.364 82.1235 190.132 82.3105C186.629 84.8742 186.629 84.8742 185.235 84.7819C184.717 84.6737 184.421 84.4074 184.105 83.9977C183.724 82.7886 184.056 81.4242 184.263 80.2015C184.69 78.4714 184.69 78.4714 184.403 76.8401C184.2 76.6228 183.988 76.4402 183.755 76.2551C183.596 76.119 183.438 75.9827 183.28 75.8463C183.203 75.7818 183.125 75.7173 183.046 75.6508C182.771 75.4161 182.519 75.1635 182.268 74.9039C181.501 74.0731 181.501 74.0731 180.545 73.5241C180.424 73.3311 180.424 73.3311 180.316 73.0665C180.274 72.9675 180.231 72.8684 180.188 72.7663C180.014 72.0954 179.978 71.4947 180.252 70.8503C180.654 70.4387 181.034 70.2758 181.575 70.0925C181.685 70.0537 181.796 70.0149 181.911 69.9749C183.396 69.5195 184.953 69.4317 186.493 69.2917C186.662 68.8899 186.793 68.4909 186.907 68.0706C186.941 67.9475 186.975 67.8245 187.01 67.6977C187.08 67.4415 187.149 67.1854 187.219 66.9292C188.097 63.7403 188.097 63.7403 189.046 62.9575C189.541 62.6779 190.062 62.6526 190.611 62.7716C191.936 63.3937 192.651 65.5465 193.261 66.7727C193.915 68.1543 193.915 68.1543 195.072 69.063C195.401 69.0946 195.722 69.1159 196.052 69.1273C196.236 69.1355 196.421 69.1438 196.605 69.1523C196.74 69.1583 196.74 69.1583 196.877 69.1644C197.383 69.1902 197.886 69.2411 198.39 69.2917C198.173 68.3831 197.923 67.4923 197.636 66.6036C197.597 66.4821 197.558 66.3605 197.518 66.2353C197.392 65.8432 197.265 65.4513 197.138 65.0594C197.051 64.7873 196.963 64.5152 196.876 64.2432C196.369 62.6733 195.858 61.1051 195.337 59.5402C195.31 59.4606 195.284 59.3811 195.257 59.2991C194.485 56.9854 193.7 54.6632 192.746 52.4178C192.494 51.8207 192.267 51.215 192.04 50.6079C191.697 49.6893 191.347 48.7736 190.995 47.8583C190.92 47.6615 190.844 47.4647 190.769 47.2678C190.658 46.9774 190.547 46.6871 190.435 46.3968C190.402 46.3102 190.369 46.2237 190.335 46.1346C190.134 45.6125 189.917 45.1005 189.685 44.5914C189.51 44.192 189.372 43.7811 189.231 43.3686C188.985 42.6509 188.734 41.9353 188.474 41.2225C187.834 39.4668 187.249 37.7163 186.836 35.8905C186.815 35.8005 186.793 35.7105 186.77 35.6177C186.308 33.5753 186.523 31.421 187.098 29.43C187.714 27.2546 188.12 25.1141 188.145 22.8503C188.147 22.7089 188.15 22.5675 188.152 22.4218C188.152 22.2234 188.152 22.2234 188.151 22.021C188.152 21.9025 188.152 21.7839 188.152 21.6618C188.121 21.3509 188.121 21.3509 187.887 21.1528C187.413 20.9013 186.916 21.0032 186.4 21.0483Z" fill="black"/>
<path d="M206.854 88.5089C207.523 88.5831 208.136 88.7528 208.777 88.9522C208.873 88.9815 208.969 89.0108 209.068 89.0411C209.262 89.1004 209.455 89.1599 209.649 89.2197C209.949 89.3115 210.25 89.4005 210.55 89.4892C211.21 89.687 211.832 89.9422 212.459 90.2247C212.555 90.2678 212.651 90.311 212.75 90.3554C214.18 91.0045 215.551 91.6754 216.806 92.6269C216.872 92.6764 216.937 92.7259 217.005 92.7769C218.288 93.7604 219.637 95.0786 219.894 96.7448C219.965 97.8215 219.973 98.7528 219.437 99.7189C219.388 99.8142 219.339 99.9094 219.289 100.008C218.325 101.701 216.726 102.949 215.09 103.951C215.019 103.995 214.947 104.039 214.874 104.084C213.177 105.109 211.351 106.008 209.487 106.684C209.162 106.804 208.843 106.933 208.523 107.065C205.54 108.291 202.326 108.966 199.19 109.671C199.029 109.707 199.029 109.707 198.864 109.744C198.767 109.766 198.67 109.788 198.571 109.81C198.49 109.829 198.409 109.847 198.326 109.865C197.539 110.033 196.753 110.174 195.957 110.29C195.858 110.305 195.76 110.32 195.658 110.334C195.452 110.365 195.245 110.395 195.038 110.426C194.739 110.47 194.441 110.515 194.142 110.56C191.86 110.903 189.592 111.228 187.288 111.365C186.833 111.394 186.379 111.433 185.925 111.474C184.848 111.565 183.771 111.637 182.69 111.678C182.498 111.685 182.498 111.685 182.301 111.692C180.971 111.739 179.641 111.75 178.31 111.753C178.183 111.753 178.057 111.754 177.926 111.754C177.256 111.756 176.585 111.757 175.915 111.757C175.373 111.758 174.831 111.759 174.289 111.762C171.023 111.777 167.791 111.716 164.539 111.409C164.139 111.371 163.738 111.337 163.338 111.302C161.455 111.138 159.602 110.856 157.74 110.54C157.355 110.476 156.971 110.419 156.585 110.365C150.4 109.495 143.749 107.849 138.222 104.866C138.11 104.809 137.999 104.753 137.885 104.694C136.567 104.007 135.405 103.149 134.332 102.121C134.243 102.039 134.153 101.956 134.061 101.872C132.88 100.753 132.062 99.4272 131.979 97.7814C131.95 96.3966 132.314 95.4843 133.224 94.4285C133.401 94.2449 133.579 94.0637 133.76 93.8851C133.838 93.8079 133.915 93.7306 133.995 93.651C136.439 91.3493 139.856 89.9162 143.026 88.9665C143.146 88.9302 143.266 88.8939 143.389 88.8565C143.896 88.7102 144.326 88.6054 144.856 88.6233C144.747 89.1436 144.63 89.6584 144.48 90.1684C144.036 91.6849 143.722 93.1106 144.446 94.6054C145.535 96.4619 147.889 97.6079 149.84 98.3167C150.205 98.4505 150.565 98.5917 150.926 98.7345C151.692 99.0298 152.468 99.27 153.256 99.4973C153.447 99.5531 153.447 99.5531 153.642 99.6101C153.9 99.6856 154.159 99.7605 154.417 99.8349C154.677 99.9099 154.937 99.9863 155.196 100.064C156.215 100.366 157.239 100.595 158.282 100.791C158.371 100.808 158.461 100.825 158.552 100.842C160.953 101.292 163.373 101.585 165.799 101.855C166.113 101.89 166.426 101.928 166.739 101.966C172.766 102.702 179.152 102.703 185.18 101.972C185.672 101.914 186.16 101.878 186.655 101.859C188.066 101.805 189.438 101.561 190.826 101.313C190.956 101.29 191.086 101.267 191.22 101.244C200.235 99.9048 200.235 99.9048 207.358 94.8704C208.087 93.6758 207.849 92.2743 207.535 90.9767C207.391 90.4189 207.241 89.8635 207.083 89.3096C207.059 89.2241 207.035 89.1387 207.01 89.0506C206.958 88.8699 206.906 88.6894 206.854 88.5089Z" fill="#AADCE7"/>
<path d="M173.11 41.6098C174.184 42.076 174.777 43.3724 175.291 44.3622C175.916 45.58 175.916 45.58 176.77 46.6428C177.103 46.6584 177.434 46.6669 177.767 46.671C177.975 46.6747 178.184 46.6785 178.392 46.6824C178.72 46.6877 179.048 46.6928 179.377 46.6974C179.693 46.7019 180.01 46.7078 180.327 46.7139C180.423 46.7148 180.519 46.7158 180.619 46.7168C181.472 46.7342 182.493 46.7663 183.176 47.3291C183.529 47.739 183.733 48.0984 183.697 48.6526C183.329 50.2641 182.026 51.8991 180.892 53.053C180.621 53.3558 180.621 53.3558 180.51 53.7348C180.535 53.9775 180.586 54.1888 180.66 54.4212C180.681 54.4947 180.703 54.5683 180.725 54.6441C180.799 54.8754 180.882 55.1018 180.967 55.3291C180.997 55.4125 181.027 55.4958 181.058 55.5817C181.213 56.0132 181.375 56.4415 181.544 56.868C181.943 57.8963 182.207 58.7932 182.032 59.9118C181.78 60.4749 181.444 60.7881 180.888 61.0557C179.083 61.3094 177.048 60.5068 175.437 59.7733C175.337 59.7293 175.236 59.6854 175.133 59.6401C175.044 59.5991 174.955 59.5581 174.863 59.5159C174.491 59.4296 174.363 59.5001 174.025 59.683C173.689 59.9088 173.364 60.1489 173.039 60.3908C172.279 60.9479 171.515 61.4827 170.708 61.9708C170.602 62.0355 170.495 62.1002 170.386 62.1669C169.602 62.6407 169.126 62.8748 168.191 62.7715C167.674 62.5174 167.397 62.265 167.162 61.742C167.106 61.327 167.108 60.9162 167.112 60.498C167.112 60.3754 167.113 60.2528 167.113 60.1265C167.14 58.5167 167.381 56.926 167.619 55.3363C167.55 55.3029 167.481 55.2695 167.41 55.2351C166.486 54.7597 165.661 53.9852 164.904 53.2853C164.613 53.0185 164.31 52.7677 164.002 52.5208C163.681 52.1975 163.583 51.8738 163.58 51.4257C163.602 50.7652 163.673 50.1399 164.151 49.6486C164.789 49.1785 165.523 48.9598 166.271 48.7264C166.889 48.5281 167.493 48.3006 168.077 48.0155C168.151 47.9862 168.225 47.9569 168.301 47.9268C168.729 47.7218 168.945 47.5428 169.152 47.1086C169.294 46.6877 169.415 46.2642 169.528 45.8349C170.773 41.3704 170.773 41.3704 173.11 41.6098Z" fill="black"/>
<path d="M164.66 70.3073C165.451 70.8255 165.73 71.6531 165.953 72.5302C166.001 72.7113 166.05 72.8925 166.098 73.0736C166.134 73.2125 166.134 73.2125 166.171 73.3542C166.295 73.8241 166.424 74.2924 166.554 74.7608C166.577 74.8461 166.6 74.9315 166.624 75.0194C166.686 75.2461 166.752 75.4718 166.818 75.6973C166.838 75.7947 166.858 75.892 166.879 75.9923C167.073 76.3117 167.132 76.3283 167.477 76.4319C167.662 76.4768 167.848 76.5191 168.034 76.5593C168.133 76.5828 168.232 76.6063 168.333 76.6305C168.65 76.7054 168.967 76.7771 169.285 76.8484C169.599 76.9206 169.913 76.9935 170.227 77.0675C170.423 77.1134 170.618 77.1581 170.814 77.2016C171.579 77.3788 172.354 77.5954 172.94 78.137C173.274 78.7392 173.217 79.3802 173.11 80.0441C172.911 80.4655 172.644 80.7539 172.309 81.0736C172.226 81.1551 172.143 81.2366 172.057 81.3207C171.452 81.8879 170.802 82.3997 170.145 82.9059C170.016 83.0054 169.888 83.1059 169.761 83.2074C169.624 83.3144 169.482 83.4167 169.339 83.515C168.916 83.8241 168.916 83.8241 168.698 84.2854C168.68 84.5608 168.687 84.8232 168.706 85.0986C168.709 85.1961 168.712 85.2937 168.716 85.3942C168.738 85.9689 168.789 86.5394 168.85 87.1111C168.891 87.665 168.904 88.218 168.913 88.7733C168.916 88.8827 168.92 88.992 168.923 89.1047C168.929 89.7649 168.878 90.1678 168.42 90.6821C167.867 91.0008 167.336 91.1346 166.704 91.0253C165.996 90.7559 165.392 90.3071 164.788 89.86C164.654 89.7619 164.654 89.7619 164.517 89.6619C164.254 89.4689 163.992 89.2749 163.73 89.0807C163.587 88.976 163.445 88.8713 163.303 88.7666C162.333 88.0468 162.333 88.0468 162.014 87.708C161.587 87.8752 161.168 88.0576 160.751 88.2474C160.618 88.307 160.486 88.3667 160.35 88.4281C160.074 88.5525 159.799 88.6773 159.524 88.8026C157.496 89.7139 157.496 89.7139 156.566 89.6741C156.47 89.671 156.375 89.6679 156.276 89.6647C156.206 89.6607 156.137 89.6567 156.066 89.6526C156.066 89.5771 156.066 89.5016 156.066 89.4239C156 89.4168 155.934 89.4097 155.866 89.4024C155.488 89.2662 155.369 89.0719 155.151 88.7375C155.08 88.4139 155.047 88.1625 155.043 87.8367C155.042 87.7457 155.041 87.6547 155.04 87.5609C155.087 86.3218 155.595 85.1678 156.038 84.0253C156.408 83.0902 156.408 83.0902 156.523 82.103C156.403 81.8682 156.403 81.8682 156.187 81.717C155.654 81.2492 155.24 80.7191 154.807 80.1585C154.717 80.0429 154.626 79.9272 154.533 79.8081C153.831 78.8978 153.342 78.225 153.371 77.0387C153.482 76.4968 153.815 76.1531 154.236 75.8117C154.571 75.6151 154.819 75.5532 155.207 75.5465C155.308 75.5442 155.409 75.5419 155.512 75.5396C155.674 75.5376 155.674 75.5376 155.839 75.5356C155.95 75.5334 156.061 75.5312 156.175 75.5289C156.53 75.522 156.884 75.5167 157.238 75.5115C157.479 75.5071 157.719 75.5026 157.959 75.498C158.548 75.4871 159.137 75.4775 159.726 75.4686C159.761 75.3977 159.797 75.3269 159.833 75.2539C160.392 74.1374 160.98 73.0322 161.592 71.944C161.66 71.8229 161.728 71.7019 161.798 71.5771C162.467 70.5201 163.349 69.7661 164.66 70.3073Z" fill="black"/>
<path d="M190.04 66.5462C190.467 66.6886 190.522 66.8712 190.721 67.2577C190.783 67.3833 190.783 67.3833 190.847 67.5114C190.938 67.6879 191.029 67.8644 191.12 68.0408C191.168 68.133 191.215 68.2252 191.264 68.3202C191.511 68.7956 191.768 69.2655 192.027 69.7348C192.075 69.8224 192.122 69.9101 192.171 70.0004C192.217 70.0823 192.262 70.1642 192.308 70.2486C192.348 70.3207 192.388 70.3928 192.428 70.4671C192.552 70.6734 192.552 70.6734 192.743 70.8474C192.899 71.0073 192.899 71.0073 192.899 71.2361C192.97 71.2526 193.041 71.2691 193.114 71.2861C193.357 71.3505 193.357 71.3505 193.586 71.4649C193.764 71.4874 193.944 71.5043 194.123 71.518C194.232 71.5268 194.342 71.5356 194.454 71.5447C194.571 71.5537 194.688 71.5628 194.808 71.5721C195.855 71.6576 196.893 71.7681 197.932 71.9224C197.747 72.3712 197.439 72.6904 197.11 73.0377C196.996 73.1604 196.882 73.2831 196.768 73.4059C196.712 73.4653 196.657 73.5247 196.6 73.586C195.327 74.854 195.327 74.854 194.822 76.4765C194.821 76.5952 194.819 76.7139 194.817 76.8362C194.845 77.1971 194.931 77.4256 195.073 77.7562C195.15 78.0513 195.224 78.3459 195.294 78.6427C195.419 79.1617 195.549 79.6697 195.73 80.1726C195.868 80.5595 195.905 80.8884 195.873 81.3022C195.395 81.1188 194.935 80.9031 194.474 80.6798C194.357 80.6236 194.357 80.6236 194.239 80.5662C194.075 80.4874 193.912 80.4084 193.749 80.3294C193.499 80.2081 193.249 80.0872 192.998 79.9664C192.839 79.8897 192.681 79.8129 192.522 79.7361C192.409 79.6818 192.409 79.6818 192.294 79.6263C191.768 79.3708 191.768 79.3708 191.641 79.2432C190.809 79.114 190.288 79.3591 189.611 79.8152C189.522 79.8719 189.434 79.9287 189.342 79.9871C189.163 80.1021 188.985 80.2179 188.807 80.3347C188.442 80.5742 188.072 80.8066 187.702 81.0377C187.586 81.1113 187.471 81.1849 187.352 81.2607C187.065 81.4166 187.065 81.4166 186.722 81.4166C186.738 81.0329 186.755 80.6492 186.772 80.2656C186.777 80.1577 186.781 80.0499 186.786 79.9387C186.812 79.3563 186.861 78.7905 186.951 78.2138C187.122 76.9864 187.122 76.9864 186.713 75.855C186.371 75.4239 185.976 75.0472 185.578 74.6677C185.314 74.4062 185.05 74.1436 184.786 73.8806C184.611 73.7067 184.434 73.5342 184.256 73.3632C184.135 73.2457 184.135 73.2457 184.011 73.1257C183.938 73.0563 183.865 72.9868 183.791 72.9152C183.634 72.7231 183.634 72.7231 183.634 72.38C183.951 72.2742 184.19 72.2398 184.521 72.2164C184.628 72.208 184.735 72.1996 184.846 72.191C185.069 72.1742 185.292 72.1581 185.515 72.1427C186.545 72.06 187.475 71.9095 188.27 71.2124C188.641 70.7601 188.823 70.2335 188.981 69.6776C189.296 68.6207 189.67 67.5849 190.04 66.5462Z" fill="#F8E482"/>
<path d="M172.538 45.3849C172.904 45.5384 173.068 45.6703 173.258 46.0171C173.304 46.0977 173.349 46.1784 173.396 46.2614C173.443 46.3473 173.49 46.4331 173.539 46.5216C174.375 48.0786 174.375 48.0786 175.626 49.274C175.996 49.3364 176.359 49.3274 176.733 49.3187C176.839 49.3181 176.945 49.3174 177.054 49.3168C177.391 49.3142 177.727 49.3085 178.064 49.3026C178.293 49.3003 178.522 49.2983 178.751 49.2964C179.311 49.2913 179.871 49.2835 180.431 49.274C180.265 49.6121 180.085 49.9114 179.866 50.2177C179.49 50.7501 179.115 51.2835 178.743 51.8192C178.69 51.8962 178.636 51.9732 178.58 52.0525C178.077 52.7797 177.673 53.3919 177.8 54.3071C178.011 55.3406 178.335 56.2309 178.799 57.1784C178.986 57.6062 179.04 57.9616 179.058 58.4251C178.51 58.3536 178.02 58.1966 177.507 57.9992C177.341 57.937 177.175 57.8748 177.009 57.8127C176.75 57.715 176.491 57.617 176.232 57.5182C175.981 57.4224 175.729 57.3282 175.477 57.2343C175.4 57.2046 175.324 57.1749 175.246 57.1444C174.642 56.921 174.092 56.813 173.486 57.0689C173.386 57.1319 173.285 57.1949 173.181 57.2597C173.065 57.3315 172.948 57.4034 172.828 57.4773C172.524 57.6725 172.221 57.8704 171.919 58.068C171.788 58.1529 171.788 58.1529 171.656 58.2395C171.484 58.3522 171.312 58.4657 171.141 58.58C171.062 58.6324 170.982 58.6848 170.901 58.7387C170.83 58.7858 170.76 58.8328 170.688 58.8812C170.467 59.0036 170.268 59.0614 170.021 59.1114C170.009 58.4284 170.024 57.7549 170.079 57.0739C170.293 55.4309 170.293 55.4309 169.762 53.9389C169.446 53.6142 169.098 53.3402 168.739 53.0649C168.389 52.796 168.047 52.521 167.712 52.2338C167.604 52.1439 167.497 52.0539 167.386 51.9613C167.162 51.6762 167.162 51.6762 167.184 51.2982C167.215 51.1964 167.245 51.0947 167.276 50.9899C167.387 50.9608 167.497 50.9318 167.611 50.9018C167.999 50.7997 168.386 50.696 168.772 50.5915C168.96 50.5408 169.148 50.4911 169.336 50.4416C170.182 50.2072 170.757 49.8844 171.28 49.1597C171.416 48.8467 171.416 48.8467 171.512 48.5104C171.551 48.3874 171.589 48.2643 171.628 48.1375C171.686 47.9463 171.686 47.9463 171.744 47.7513C171.822 47.499 171.899 47.2469 171.977 46.9948C172.032 46.8164 172.032 46.8164 172.088 46.6344C172.223 46.2112 172.376 45.7985 172.538 45.3849Z" fill="#F8E482"/>
<path d="M163.502 73.8674C163.577 73.8674 163.653 73.8674 163.731 73.8674C163.86 74.2842 163.988 74.7013 164.117 75.1185C164.153 75.2353 164.189 75.3522 164.227 75.4726C164.388 75.9976 164.539 76.5126 164.639 77.0528C164.747 77.5651 164.955 77.8633 165.282 78.2713C165.374 78.3881 165.466 78.5049 165.561 78.6252C165.913 79.0487 166.023 79.0391 166.58 79.093C166.719 79.1071 166.859 79.1212 167.002 79.1357C167.296 79.1644 167.59 79.193 167.884 79.2215C168.651 79.2991 169.388 79.3989 170.136 79.5868C169.985 80.0411 169.695 80.1823 169.314 80.4375C168.611 80.9211 167.964 81.4475 167.328 82.0164C166.842 82.4465 166.842 82.4465 166.59 82.4465C166.133 83.4725 166.209 84.4991 166.226 85.5993C166.228 85.793 166.229 85.9867 166.23 86.1804C166.234 86.6516 166.24 87.1227 166.247 87.5939C165.707 87.507 165.39 87.2929 164.975 86.9505C163.472 85.7423 163.472 85.7423 161.633 85.3727C160.553 85.496 159.505 85.9643 158.555 86.4774C158.354 86.5644 158.354 86.5644 158.011 86.5644C158.075 86.2997 158.139 86.0352 158.204 85.7708C158.234 85.6481 158.234 85.6481 158.265 85.5228C158.395 85.0003 158.543 84.487 158.706 83.9738C159.13 82.7646 159.13 82.7646 159.041 81.5314C158.706 80.9836 158.275 80.5076 157.852 80.0277C157.575 79.7082 157.32 79.3744 157.068 79.0363C156.984 78.927 156.901 78.8177 156.816 78.7052C156.639 78.4429 156.639 78.4429 156.639 78.2141C156.715 78.2112 156.792 78.2084 156.871 78.2054C157.225 78.192 157.579 78.178 157.933 78.1641C158.053 78.1596 158.173 78.1551 158.298 78.1504C159.887 78.1691 159.887 78.1691 161.329 77.6422C161.449 77.4551 161.562 77.2638 161.672 77.0702C161.732 76.968 161.792 76.8658 161.854 76.7605C162.063 76.4039 162.271 76.0472 162.48 75.6904C162.553 75.5659 162.625 75.4414 162.701 75.3131C162.771 75.1933 162.84 75.0735 162.913 74.95C162.976 74.8411 163.04 74.7321 163.106 74.6198C163.246 74.3722 163.378 74.1236 163.502 73.8674Z" fill="#F8E482"/>
</svg>
