<svg width="180" height="329" viewBox="0 0 180 329" fill="none" xmlns="http://www.w3.org/2000/svg">
<path d="M90.3608 52.9439C93.8548 55.7727 96.3609 60.2528 96.9824 64.7089C97.2071 67.5476 97.2363 70.449 96.2584 73.1556C96.6541 73.1692 96.6541 73.1692 97.0578 73.183C102.2 73.3886 107.186 74.1226 112.186 75.3276C112.518 75.4054 112.518 75.4054 112.856 75.4848C118.991 76.9364 124.88 79.0457 130.528 81.8436C130.748 81.9522 130.968 82.0608 131.195 82.1726C135.882 84.5047 140.213 87.2402 144.284 90.5316C144.43 90.6497 144.577 90.7678 144.727 90.8895C148.034 93.5827 151.072 96.5808 153.696 99.9437C154.067 100.392 154.439 100.839 154.812 101.286C157.714 104.854 159.943 108.872 161.926 113.01C162.131 113.434 162.341 113.854 162.552 114.274C165.941 121.202 168.025 128.773 169.452 136.329C170.087 139.64 170.894 142.782 172.003 145.959C172.825 148.315 173.437 150.557 173.726 153.037C173.769 153.319 173.812 153.601 173.856 153.892C175.055 163.689 172.247 173.695 166.245 181.514C162.775 185.931 158.744 189.474 153.937 192.374C153.784 192.467 153.63 192.56 153.472 192.655C150.715 194.305 150.715 194.305 149.834 194.305C149.834 194.464 149.834 194.624 149.834 194.788C150.009 194.848 150.184 194.908 150.363 194.971C151.505 195.475 152.374 196.319 153.318 197.123C153.686 197.434 154.059 197.739 154.433 198.043C156.336 199.609 158.094 201.312 159.835 203.053C160.006 203.224 160.006 203.224 160.18 203.398C161.395 204.613 162.579 205.841 163.698 207.145C164.277 207.815 164.885 208.456 165.491 209.102C166.559 210.251 167.581 211.425 168.562 212.649C168.994 213.187 169.43 213.72 169.871 214.25C173.697 218.866 176.983 223.547 178.871 229.281C179.008 229.696 179.153 230.108 179.301 230.52C180.299 233.714 180.312 238.114 178.794 241.124C178.71 241.294 178.625 241.464 178.538 241.639C176.612 245.043 173.746 246.939 170.106 248.122C164.293 249.463 157.905 247.642 152.73 244.985C152.81 245.144 152.89 245.304 152.972 245.468C154.825 257.372 154.223 269.968 146.906 279.988C141.679 286.91 134.404 290.737 126.425 293.735C126.425 297.159 126.425 300.584 126.425 304.112C127.142 304.271 127.859 304.43 128.597 304.595C129.683 304.929 130.754 305.306 131.825 305.686C132.32 305.861 132.816 306.031 133.313 306.202C136.296 307.244 138.682 308.374 140.392 311.111C141.091 312.948 140.952 315.557 140.222 317.371C139.161 319.24 137.702 320.529 135.64 321.134C135.066 321.257 134.548 321.278 133.961 321.279C133.742 321.279 133.523 321.279 133.297 321.28C133.07 321.279 132.843 321.278 132.609 321.277C132.271 321.278 132.271 321.278 131.927 321.28C130.79 321.278 129.715 321.241 128.597 321.005C128.608 321.172 128.62 321.338 128.631 321.51C128.719 323.798 128.148 325.458 126.598 327.158C125.224 328.363 123.572 328.818 121.78 328.795C119.906 328.606 118.09 327.649 116.772 326.315C115.931 325.172 115.217 323.971 114.6 322.695C114.448 322.794 114.296 322.892 114.14 322.994C111.855 324.432 109.847 324.981 107.118 324.625C105.335 324.031 103.735 323.145 102.774 321.488C101.689 319.3 101.426 317.21 102.156 314.866C103.1 312.536 104.81 310.685 106.601 308.964C107.263 308.314 107.865 307.623 108.467 306.918C108.73 306.615 109.007 306.326 109.29 306.043C109.35 305.404 109.381 304.788 109.39 304.148C109.395 303.961 109.4 303.774 109.405 303.582C109.419 302.984 109.43 302.387 109.441 301.789C109.45 301.384 109.46 300.98 109.47 300.575C109.493 299.582 109.513 298.589 109.532 297.596C109.357 297.626 109.182 297.657 109.003 297.688C102.983 298.715 97.0868 298.913 90.9978 298.88C90.1661 298.877 89.3345 298.878 88.5028 298.88C84.2302 298.884 79.9906 298.86 75.745 298.32C75.4557 298.284 75.1663 298.249 74.8682 298.212C74.2036 298.126 73.5416 298.03 72.8792 297.928C72.5526 297.879 72.5526 297.879 72.2193 297.83C71.705 297.753 71.191 297.675 70.677 297.596C70.635 298.729 70.6045 299.862 70.5842 300.996C70.5758 301.38 70.5643 301.765 70.5496 302.15C70.3793 304.733 70.3793 304.733 71.4717 306.976C71.7618 307.237 72.0602 307.49 72.3664 307.732C75.1724 310.399 78.1255 313.479 78.2791 317.566C78.175 319.552 77.5496 321.471 76.0458 322.838C74.1545 324.348 72.5255 324.779 70.1001 324.727C68.1634 324.501 66.4323 323.614 64.885 322.453C64.8701 322.744 64.8701 322.744 64.8549 323.041C64.3666 325.029 62.9278 326.621 61.265 327.763C59.4933 328.744 57.7852 329.069 55.8096 328.569C53.9402 327.915 52.6711 326.832 51.7474 325.078C51.1805 323.686 51.2882 322.24 51.3704 320.764C51.1973 320.842 51.0243 320.92 50.846 321.001C49.726 321.404 48.6131 321.326 47.4336 321.322C47.1905 321.326 46.9474 321.33 46.6969 321.334C44.3012 321.335 42.7574 320.776 40.9892 319.121C39.3834 317.347 39.1679 315.318 39.2235 313.001C39.4098 310.851 40.4695 309.565 42.0554 308.192C43.0904 307.432 44.2041 307.039 45.4124 306.631C45.6622 306.542 45.912 306.453 46.1694 306.361C46.9362 306.089 47.7051 305.824 48.4743 305.56C48.9581 305.389 49.4418 305.219 49.9252 305.047C51.0485 304.649 52.1744 304.26 53.301 303.871C53.4603 300.526 53.6196 297.181 53.7837 293.735C52.6488 293.316 52.6488 293.316 51.491 292.89C49.1935 292.026 47.0202 291.024 44.8543 289.873C44.6204 289.755 44.3865 289.637 44.1454 289.515C36.4051 285.51 30.7352 278.352 27.9666 270.157C25.4383 261.993 26.0785 253.332 27.237 244.985C27.1148 245.037 26.9926 245.089 26.8667 245.143C21.0839 247.59 14.4762 249.836 8.28853 247.513C5.10654 246.165 2.20932 243.914 0.879775 240.644C-1.04661 235.139 0.446938 229.682 2.88775 224.594C4.03483 222.304 5.41489 220.232 6.96496 218.197C7.06615 218.063 7.16733 217.928 7.27158 217.79C8.65176 215.958 10.0791 214.165 11.5503 212.405C11.7059 212.218 11.7059 212.218 11.8646 212.028C14.652 208.69 17.6535 205.56 20.721 202.48C20.9084 202.292 21.0959 202.103 21.289 201.909C22.4283 200.773 23.6008 199.694 24.8237 198.649C25.0927 198.415 25.3617 198.18 25.6306 197.946C26.993 196.771 28.3214 195.681 29.8917 194.788C29.1864 194.217 28.4371 193.782 27.6402 193.351C24.693 191.755 22.0657 189.916 19.6227 187.619C19.1111 187.14 18.5884 186.686 18.0512 186.236C11.1201 180.165 6.69129 170.341 6.05808 161.226C5.82177 156.879 5.92963 152.553 7.01021 148.316C7.07237 148.069 7.07237 148.069 7.13577 147.817C7.39272 146.884 7.70437 145.988 8.07418 145.094C9.09386 142.621 9.76485 140.232 10.2342 137.6C10.4235 136.543 10.6284 135.489 10.8329 134.435C10.873 134.227 10.913 134.02 10.9543 133.806C11.4864 131.085 12.1959 128.42 12.9983 125.766C13.0638 125.549 13.1293 125.332 13.1967 125.108C16.5499 114.158 21.9388 104.11 29.8917 95.841C30.0049 95.7224 30.1182 95.6038 30.2349 95.4817C31.5904 94.0693 32.9953 92.771 34.5279 91.5535C34.9786 91.1925 35.4224 90.8228 35.859 90.4449C37.9229 88.6596 40.1385 87.164 42.441 85.705C42.6055 85.6004 42.77 85.4959 42.9395 85.3882C52.3276 79.4889 63.2572 75.9244 74.1764 74.2718C74.4426 74.2313 74.7088 74.1908 74.9831 74.1491C76.5351 73.9289 78.0393 73.8284 79.6064 73.8796C79.6064 73.7203 79.6064 73.5611 79.6064 73.397C79.4471 73.3472 79.2878 73.2974 79.1237 73.2461C78.4798 72.951 78.0811 72.675 77.54 72.2355C75.4865 70.6686 73.2906 70.1289 70.7609 69.9108C69.9068 69.7693 69.4273 69.5816 68.7464 69.053C68.0974 68.0815 68.0472 67.0439 68.2637 65.9156C68.7932 64.948 69.3737 64.3648 70.3971 63.9453C73.2954 63.1787 76.1161 64.0107 78.6995 65.3585C79.5044 65.8392 80.2835 66.3482 81.0544 66.8809C81.2169 66.9929 81.3795 67.1049 81.547 67.2202C82.7596 68.0596 83.9603 68.9151 85.1571 69.777C85.3658 69.9267 85.3658 69.9267 85.5787 70.0796C87.5952 71.5279 87.5952 71.5279 88.4565 72.2431C88.9644 72.7218 88.9644 72.7218 89.5011 72.673C89.6728 72.2474 89.6728 72.2474 89.848 71.8132C89.9124 71.6536 89.9768 71.494 90.0431 71.3296C90.8657 68.6742 90.8242 65.3448 89.7424 62.7783C89.6631 62.581 89.5837 62.3838 89.502 62.1806C88.4225 59.7675 86.6724 58.0388 84.4727 56.6177C83.6763 56.0757 83.2932 55.7388 82.9851 54.8143C82.8955 53.6049 82.9566 52.8857 83.7091 51.9183C85.8505 49.984 88.3989 51.485 90.3608 52.9439Z" fill="#FFF1A6"/>
<path d="M90.3608 52.9439C93.8548 55.7727 96.3609 60.2528 96.9824 64.7089C97.2071 67.5476 97.2363 70.449 96.2584 73.1556C96.6541 73.1692 96.6541 73.1692 97.0578 73.183C102.2 73.3886 107.186 74.1226 112.186 75.3276C112.518 75.4054 112.518 75.4054 112.856 75.4848C118.991 76.9364 124.88 79.0457 130.528 81.8436C130.748 81.9522 130.968 82.0608 131.195 82.1726C135.882 84.5047 140.213 87.2402 144.284 90.5316C144.43 90.6497 144.577 90.7678 144.727 90.8895C148.034 93.5827 151.072 96.5808 153.696 99.9437C154.067 100.392 154.439 100.839 154.812 101.286C157.714 104.854 159.943 108.872 161.926 113.01C162.131 113.434 162.341 113.854 162.552 114.274C165.941 121.202 168.025 128.773 169.452 136.329C170.087 139.64 170.894 142.782 172.003 145.959C172.825 148.315 173.437 150.557 173.726 153.037C173.769 153.319 173.812 153.601 173.856 153.892C175.055 163.689 172.247 173.695 166.245 181.514C162.775 185.931 158.744 189.474 153.937 192.374C153.784 192.467 153.63 192.56 153.472 192.655C150.715 194.305 150.715 194.305 149.834 194.305C149.834 194.464 149.834 194.624 149.834 194.788C150.009 194.848 150.184 194.908 150.363 194.971C151.505 195.475 152.374 196.319 153.318 197.123C153.686 197.434 154.059 197.739 154.433 198.043C156.336 199.609 158.094 201.312 159.835 203.053C160.006 203.224 160.006 203.224 160.18 203.398C161.395 204.613 162.579 205.841 163.698 207.145C164.277 207.815 164.885 208.456 165.491 209.102C166.559 210.251 167.581 211.425 168.562 212.649C168.994 213.187 169.43 213.72 169.871 214.25C173.697 218.866 176.983 223.547 178.871 229.281C179.008 229.696 179.153 230.108 179.301 230.52C180.299 233.714 180.312 238.114 178.794 241.124C178.71 241.294 178.625 241.464 178.538 241.639C176.612 245.043 173.746 246.939 170.106 248.122C164.293 249.463 157.905 247.642 152.73 244.985C152.81 245.144 152.89 245.304 152.972 245.468C154.825 257.372 154.223 269.968 146.906 279.988C141.679 286.91 134.404 290.737 126.425 293.735C126.425 297.159 126.425 300.584 126.425 304.112C127.142 304.271 127.859 304.43 128.597 304.595C129.683 304.929 130.754 305.306 131.825 305.686C132.32 305.861 132.816 306.031 133.313 306.202C136.296 307.244 138.682 308.374 140.392 311.111C141.091 312.948 140.952 315.557 140.222 317.371C139.161 319.24 137.702 320.529 135.64 321.134C135.066 321.257 134.548 321.278 133.961 321.279C133.742 321.279 133.523 321.279 133.297 321.28C133.07 321.279 132.843 321.278 132.609 321.277C132.271 321.278 132.271 321.278 131.927 321.28C130.79 321.278 129.715 321.241 128.597 321.005C128.608 321.172 128.62 321.338 128.631 321.51C128.719 323.798 128.148 325.458 126.598 327.158C125.224 328.363 123.572 328.818 121.78 328.795C119.906 328.606 118.09 327.649 116.772 326.315C115.931 325.172 115.217 323.971 114.6 322.695C114.448 322.794 114.296 322.892 114.14 322.994C111.855 324.432 109.847 324.981 107.118 324.625C105.335 324.031 103.735 323.145 102.774 321.488C101.689 319.3 101.426 317.21 102.156 314.866C103.1 312.536 104.81 310.685 106.601 308.964C107.263 308.314 107.865 307.623 108.467 306.918C108.73 306.615 109.007 306.326 109.29 306.043C109.35 305.404 109.381 304.788 109.39 304.148C109.395 303.961 109.4 303.774 109.405 303.582C109.419 302.984 109.43 302.387 109.441 301.789C109.45 301.384 109.46 300.98 109.47 300.575C109.493 299.582 109.513 298.589 109.532 297.596C109.357 297.626 109.182 297.657 109.003 297.688C102.983 298.715 97.0868 298.913 90.9978 298.88C90.1661 298.877 89.3345 298.878 88.5028 298.88C84.2302 298.884 79.9906 298.86 75.745 298.32C75.4557 298.284 75.1663 298.249 74.8682 298.212C74.2036 298.126 73.5416 298.03 72.8792 297.928C72.5526 297.879 72.5526 297.879 72.2193 297.83C71.705 297.753 71.191 297.675 70.677 297.596C70.635 298.729 70.6045 299.862 70.5842 300.996C70.5758 301.38 70.5643 301.765 70.5496 302.15C70.3793 304.733 70.3793 304.733 71.4717 306.976C71.7618 307.237 72.0602 307.49 72.3664 307.732C75.1724 310.399 78.1255 313.479 78.2791 317.566C78.175 319.552 77.5496 321.471 76.0458 322.838C74.1545 324.348 72.5255 324.779 70.1001 324.727C68.1634 324.501 66.4323 323.614 64.885 322.453C64.8701 322.744 64.8701 322.744 64.8549 323.041C64.3666 325.029 62.9278 326.621 61.265 327.763C59.4933 328.744 57.7852 329.069 55.8096 328.569C53.9402 327.915 52.6711 326.832 51.7474 325.078C51.1805 323.686 51.2882 322.24 51.3704 320.764C51.1973 320.842 51.0243 320.92 50.846 321.001C49.726 321.404 48.6131 321.326 47.4336 321.322C47.1905 321.326 46.9474 321.33 46.6969 321.334C44.3012 321.335 42.7574 320.776 40.9892 319.121C39.3834 317.347 39.1679 315.318 39.2235 313.001C39.4098 310.851 40.4695 309.565 42.0554 308.192C43.0904 307.432 44.2041 307.039 45.4124 306.631C45.6622 306.542 45.912 306.453 46.1694 306.361C46.9362 306.089 47.7051 305.824 48.4743 305.56C48.9581 305.389 49.4418 305.219 49.9252 305.047C51.0485 304.649 52.1744 304.26 53.301 303.871C53.4603 300.526 53.6196 297.181 53.7837 293.735C52.6488 293.316 52.6488 293.316 51.491 292.89C49.1935 292.026 47.0202 291.024 44.8543 289.873C44.6204 289.755 44.3865 289.637 44.1454 289.515C36.4051 285.51 30.7352 278.352 27.9666 270.157C25.4383 261.993 26.0785 253.332 27.237 244.985C27.1148 245.037 26.9926 245.089 26.8667 245.143C21.0839 247.59 14.4762 249.836 8.28853 247.513C5.10654 246.165 2.20932 243.914 0.879775 240.644C-1.04661 235.139 0.446938 229.682 2.88775 224.594C4.03483 222.304 5.41489 220.232 6.96496 218.197C7.06615 218.063 7.16733 217.928 7.27158 217.79C8.65176 215.958 10.0791 214.165 11.5503 212.405C11.7059 212.218 11.7059 212.218 11.8646 212.028C14.652 208.69 17.6535 205.56 20.721 202.48C20.9084 202.292 21.0959 202.103 21.289 201.909C22.4283 200.773 23.6008 199.694 24.8237 198.649C25.0927 198.415 25.3617 198.18 25.6306 197.946C26.993 196.771 28.3214 195.681 29.8917 194.788C29.1864 194.217 28.4371 193.782 27.6402 193.351C24.693 191.755 22.0657 189.916 19.6227 187.619C19.1111 187.14 18.5884 186.686 18.0512 186.236C11.1201 180.165 6.69129 170.341 6.05808 161.226C5.82177 156.879 5.92963 152.553 7.01021 148.316C7.07237 148.069 7.07237 148.069 7.13577 147.817C7.39272 146.884 7.70437 145.988 8.07418 145.094C9.09386 142.621 9.76485 140.232 10.2342 137.6C10.4235 136.543 10.6284 135.489 10.8329 134.435C10.873 134.227 10.913 134.02 10.9543 133.806C11.4864 131.085 12.1959 128.42 12.9983 125.766C13.0638 125.549 13.1293 125.332 13.1967 125.108C16.5499 114.158 21.9388 104.11 29.8917 95.841C30.0049 95.7224 30.1182 95.6038 30.2349 95.4817C31.5904 94.0693 32.9953 92.771 34.5279 91.5535C34.9786 91.1925 35.4224 90.8228 35.859 90.4449C37.9229 88.6596 40.1385 87.164 42.441 85.705C42.6055 85.6004 42.77 85.4959 42.9395 85.3882C52.3276 79.4889 63.2572 75.9244 74.1764 74.2718C74.4426 74.2313 74.7088 74.1908 74.9831 74.1491C76.5351 73.9289 78.0393 73.8284 79.6064 73.8796C79.6064 73.7203 79.6064 73.5611 79.6064 73.397C79.4471 73.3472 79.2878 73.2974 79.1237 73.2461C78.4798 72.951 78.0811 72.675 77.54 72.2355C75.4865 70.6686 73.2906 70.1289 70.7609 69.9108C69.9068 69.7693 69.4273 69.5816 68.7464 69.053C68.0974 68.0815 68.0472 67.0439 68.2637 65.9156C68.7932 64.948 69.3737 64.3648 70.3971 63.9453C73.2954 63.1787 76.1161 64.0107 78.6995 65.3585C79.5044 65.8392 80.2835 66.3482 81.0544 66.8809C81.2169 66.9929 81.3795 67.1049 81.547 67.2202C82.7596 68.0596 83.9603 68.9151 85.1571 69.777C85.3658 69.9267 85.3658 69.9267 85.5787 70.0796C87.5952 71.5279 87.5952 71.5279 88.4565 72.2431C88.9644 72.7218 88.9644 72.7218 89.5011 72.673C89.6728 72.2474 89.6728 72.2474 89.848 71.8132C89.9124 71.6536 89.9768 71.494 90.0431 71.3296C90.8657 68.6742 90.8242 65.3448 89.7424 62.7783C89.6631 62.581 89.5837 62.3838 89.502 62.1806C88.4225 59.7675 86.6724 58.0388 84.4727 56.6177C83.6763 56.0757 83.2932 55.7388 82.9851 54.8143C82.8955 53.6049 82.9566 52.8857 83.7091 51.9183C85.8505 49.984 88.3989 51.485 90.3608 52.9439ZM35.925 98.4957C35.6678 98.7416 35.6678 98.7416 35.4053 98.9926C32.7385 101.549 30.326 104.158 28.2023 107.184C28.0946 107.335 27.9869 107.487 27.8759 107.643C21.6287 116.493 17.3136 127.414 16.2346 138.212C15.9462 141.04 15.3558 143.448 14.3062 146.093C12.7629 149.983 12.0757 153.459 12.2487 157.647C12.2753 158.373 12.284 159.099 12.2903 159.826C12.3621 164.588 13.5954 168.328 15.653 172.585C15.7298 172.746 15.8067 172.908 15.8858 173.074C19.7607 181.109 27.5677 187.37 35.9093 190.3C37.3034 190.78 38.7007 191.249 40.1053 191.697C40.27 191.751 40.4348 191.805 40.6045 191.861C41.0569 192.008 41.5104 192.153 41.964 192.297C42.7301 192.637 43.0081 192.855 43.4063 193.581C43.6956 194.777 43.7962 195.225 43.2253 196.326C42.6258 197.026 42.2578 197.416 41.322 197.498C41.079 197.495 40.8361 197.491 40.5858 197.488C40.3459 197.486 40.106 197.485 39.8589 197.483C39.0623 197.442 39.0623 197.442 38.1328 197.239C36.8394 197.07 36.0412 197.747 35.0351 198.483C34.8459 198.616 34.6568 198.748 34.4619 198.885C33.8988 199.282 33.3423 199.688 32.7877 200.097C32.6351 200.209 32.4825 200.322 32.3253 200.437C31.4183 201.11 30.5316 201.805 29.6503 202.51C29.2966 202.79 29.2966 202.79 28.9358 203.075C27.7271 204.044 26.5997 205.045 25.5213 206.156C25.0692 206.609 24.6007 207.027 24.1147 207.443C22.5253 208.814 21.0853 210.31 19.7227 211.905C19.2142 212.471 18.6741 212.993 18.1266 213.521C12.6078 218.998 6.40621 227.827 6.1203 235.814C6.19521 237.711 6.74896 238.827 8.12638 240.113C10.7319 242.239 14.1394 242.135 17.3423 241.848C20.2495 241.352 22.9945 240.171 25.5505 238.729C26.0564 238.455 26.572 238.213 27.0937 237.97C28.8802 237.1 28.8802 237.1 30.1212 235.609C30.483 234.495 30.5926 233.338 30.7415 232.18C30.9669 230.794 31.3717 229.454 31.762 228.107C31.8453 227.819 31.9287 227.531 32.0146 227.234C32.5409 225.457 33.106 223.7 33.7681 221.968C33.8385 221.776 33.9089 221.584 33.9814 221.386C34.5009 220.096 35.199 219.163 36.4077 218.438C37.1643 218.237 37.5315 218.295 38.3383 218.438C38.9878 218.964 39.4136 219.382 39.7863 220.128C39.9211 221.556 39.7216 222.796 39.2283 224.14C39.166 224.319 39.1038 224.499 39.0397 224.683C38.6077 225.92 38.1533 227.148 37.702 228.377C35.7094 233.829 34.2548 239.272 33.376 245.021C33.3068 245.472 33.2349 245.921 33.1599 246.37C32.5747 249.918 32.4711 253.434 32.4558 257.022C32.453 257.349 32.453 257.349 32.4501 257.684C32.4245 261.472 32.6323 265.351 33.9189 268.953C33.9801 269.129 34.0413 269.305 34.1043 269.487C35.1069 272.249 36.6553 274.627 38.5797 276.841C38.8242 277.134 38.8242 277.134 39.0736 277.432C46.3914 285.938 57.8749 288.997 68.505 290.839C68.7589 290.883 69.0127 290.927 69.2742 290.972C71.1048 291.285 72.9395 291.554 74.7797 291.804C75.0353 291.841 75.2908 291.877 75.5541 291.915C89.6259 293.877 105.692 293.25 119.426 289.391C119.663 289.325 119.9 289.26 120.144 289.193C127.062 287.262 133.469 284.483 138.733 279.496C138.905 279.337 138.905 279.337 139.081 279.176C144.459 274.213 147.091 267.522 147.467 260.267C147.486 259.376 147.488 258.486 147.481 257.595C147.481 257.435 147.48 257.276 147.479 257.111C147.45 251.714 146.953 246.431 145.973 241.124C145.935 240.905 145.897 240.687 145.858 240.462C144.975 235.463 143.305 230.552 141.462 225.827C141.395 225.655 141.329 225.484 141.26 225.307C141.134 224.986 141.007 224.665 140.876 224.345C140.284 222.835 140.089 221.246 140.422 219.645C140.877 219.093 141.233 218.757 141.87 218.438C143.098 218.346 143.776 218.43 144.766 219.162C147.77 223.406 148.846 229.523 149.923 234.503C150.223 235.654 150.45 236.348 151.492 236.981C151.683 237.098 151.875 237.215 152.072 237.335C152.279 237.455 152.487 237.576 152.7 237.7C152.915 237.826 153.129 237.952 153.35 238.082C158.06 240.777 163.507 242.756 168.99 241.689C170.852 241.09 172.376 239.978 173.364 238.273C174.141 236.42 173.722 234.405 173.229 232.526C173.147 232.212 173.147 232.212 173.064 231.892C170.468 222.339 163.061 214.763 156.26 207.94C156.036 207.716 155.812 207.491 155.582 207.259C154.479 206.159 153.365 205.091 152.183 204.077C151.609 203.583 151.064 203.06 150.513 202.541C149.094 201.249 147.575 200.182 145.973 199.132C145.699 198.941 145.426 198.75 145.153 198.559C143.585 197.427 143.585 197.427 141.735 197.201C141.482 197.258 141.482 197.258 141.225 197.317C139.805 197.634 138.265 197.735 136.999 196.99C136.383 196.268 136.282 195.868 136.275 194.939C136.271 194.753 136.268 194.567 136.264 194.375C136.328 193.745 136.469 193.395 136.802 192.857C137.224 192.588 137.224 192.588 137.739 192.378C137.934 192.298 138.129 192.219 138.33 192.136C139.494 191.695 140.665 191.277 141.84 190.866C146.873 189.071 151.304 187.217 155.385 183.686C155.504 183.584 155.623 183.481 155.746 183.375C161.931 177.981 166.68 170.732 167.693 162.449C167.72 161.781 167.738 161.118 167.742 160.45C167.744 160.262 167.745 160.074 167.746 159.881C167.749 159.484 167.75 159.088 167.751 158.692C167.753 158.097 167.761 157.503 167.769 156.908C167.79 153.776 167.328 150.969 166.29 147.999C166.198 147.724 166.198 147.724 166.103 147.443C165.809 146.579 165.5 145.729 165.139 144.891C164.072 142.343 163.714 139.829 163.346 137.1C161.5 123.601 155.876 111.271 146.456 101.392C146.152 101.047 145.85 100.7 145.551 100.351C141.273 95.4324 135.757 91.656 130.045 88.601C129.897 88.5208 129.749 88.4407 129.596 88.3581C122.412 84.4992 114.558 82.3593 106.636 80.637C106.443 80.5938 106.249 80.5506 106.05 80.506C104.964 80.2649 103.875 80.0732 102.774 79.913C102.561 79.8806 102.347 79.8483 102.127 79.815C80.2549 76.6363 55.1755 82.0352 35.925 98.4957Z" fill="black"/>
<path d="M97.269 144.168C101.408 146.724 106.286 150.373 107.75 155.219C108.208 157.562 107.474 159.658 106.213 161.635C103.123 165.953 98.5309 169.144 93.3624 170.413C93.2134 170.455 93.0645 170.497 92.911 170.54C88.4281 171.538 84.0957 170.123 80.3304 167.758C76.786 165.379 73.4206 162.31 72.4634 157.981C72.1256 155.895 72.5363 154.207 73.7295 152.452C74.1465 151.91 74.5785 151.386 75.021 150.865C75.3122 150.492 75.3122 150.492 75.6093 150.111C76.3969 149.227 77.2462 148.48 78.1583 147.728C78.2782 147.628 78.3981 147.528 78.5216 147.425C84.5187 142.449 90.1535 140.232 97.269 144.168Z" fill="black"/>
<path d="M149.171 149.447C151.522 151.675 152.709 154.471 152.815 157.676C152.855 161.194 151.984 164.489 149.527 167.128C146.753 169.72 143.486 170.866 139.738 170.793C136.31 170.628 133.106 169.086 130.769 166.552C130.197 165.786 129.748 164.994 129.321 164.139C129.203 163.905 129.085 163.671 128.964 163.431C127.728 160.659 127.725 157.574 128.572 154.672C129.059 153.448 129.747 152.403 130.528 151.348C130.654 151.174 130.781 151 130.911 150.821C132.83 148.415 135.559 147.073 138.492 146.34C142.545 146.002 146.01 146.82 149.171 149.447Z" fill="#F4A99C"/>
<path d="M43.8891 147.245C44.2302 147.398 44.2302 147.398 44.5782 147.555C47.6584 149.08 49.4962 151.535 50.6464 154.726C51.377 158.432 51.0097 162.273 48.8816 165.466C48.5929 165.834 48.2964 166.196 47.9917 166.552C47.8536 166.722 47.7155 166.892 47.5732 167.067C45.7185 169.148 42.7129 170.575 39.9353 170.744C37.4756 170.807 35.4968 170.599 33.2704 169.448C33.0498 169.337 32.8292 169.227 32.602 169.113C30.0304 167.706 28.2048 165.263 27.2672 162.494C26.4022 158.82 26.723 154.83 28.6445 151.561C32.0364 146.623 38.3633 144.678 43.8891 147.245Z" fill="#F4A99C"/>
<path d="M59.5757 295.424C62.0843 295.902 62.0843 295.902 64.6437 296.389C64.6353 296.934 64.6269 297.479 64.6182 298.04C64.2129 305.046 64.2129 305.046 67.0452 311.142C67.5743 311.673 68.1119 312.193 68.6558 312.709C71.3077 315.227 71.3077 315.227 71.4764 316.948C71.401 317.627 71.401 317.627 70.9183 318.351C69.8179 318.316 69.2255 318.207 68.4371 317.416C68.1744 317.133 67.9155 316.846 67.6603 316.556C66.6515 315.415 65.9676 314.765 64.4023 314.489C63.3989 314.506 62.8958 314.585 62.1059 315.212C61.3501 316.126 61.0792 316.984 60.7522 318.109C59.9899 320.647 59.9899 320.647 59.3343 321.488C58.4444 321.684 58.4444 321.684 57.645 321.729C57.2158 320.988 57.1024 320.448 57.0963 319.595C57.0914 319.374 57.0864 319.153 57.0813 318.925C57.075 318.461 57.0706 317.998 57.0681 317.535C57.0462 316.228 57.0462 316.228 56.5185 315.06C55.0284 314.187 52.9063 314.694 51.2798 314.972C50.0856 315.174 48.9288 315.273 47.7202 315.289C47.4209 315.293 47.1216 315.297 46.8133 315.301C46.061 315.213 46.061 315.213 45.5802 314.922C45.337 314.489 45.337 314.489 45.3649 313.904C45.5783 313.283 45.5783 313.283 46.1108 312.891C48.0398 311.989 49.9949 311.271 52.0189 310.613C55.457 309.617 55.457 309.617 58.2455 307.513C59.355 305.243 59.1646 302.244 59.252 299.754C59.2596 299.54 59.2672 299.327 59.2749 299.107C59.2807 298.92 59.2865 298.733 59.2924 298.541C59.3544 297.5 59.4718 296.462 59.5757 295.424Z" fill="#FFBB4D"/>
<path d="M120.633 295.665C120.64 296.028 120.64 296.028 120.648 296.399C120.666 297.309 120.687 298.219 120.71 299.128C120.719 299.52 120.727 299.911 120.735 300.303C120.628 304.42 120.628 304.42 122.136 308.086C124.166 309.844 127.102 310.493 129.62 311.275C131.434 311.842 133.069 312.413 134.63 313.524C134.54 314.233 134.54 314.233 134.389 314.972C133.014 315.66 131.1 315.175 129.638 314.972C128.305 314.793 126.986 314.667 125.641 314.64C125.351 314.633 125.061 314.627 124.762 314.62C123.864 314.753 123.597 314.991 123.046 315.696C122.757 316.274 122.76 316.672 122.737 317.318C122.728 317.543 122.719 317.767 122.71 317.999C122.701 318.235 122.693 318.47 122.684 318.713C122.668 319.178 122.65 319.643 122.632 320.108C122.624 320.315 122.617 320.521 122.609 320.734C122.564 321.247 122.564 321.247 122.322 321.729C121.553 321.745 121.553 321.745 120.633 321.488C119.458 320.198 119.129 318.368 118.748 316.718C118.408 315.794 118.012 315.351 117.254 314.731C116.326 314.352 115.471 314.457 114.509 314.67C113.367 315.225 112.587 316.313 111.784 317.266C111.088 318.01 110.626 318.307 109.622 318.426C109.433 318.401 109.244 318.376 109.049 318.351C108.512 317.545 108.499 317.162 108.648 316.221C109.265 314.189 111.35 312.633 112.835 311.216C115.611 308.29 115.432 304.439 115.369 300.613C115.365 300.223 115.362 299.834 115.359 299.445C115.351 298.507 115.339 297.569 115.324 296.631C115.982 296.468 116.641 296.308 117.3 296.148C117.485 296.102 117.671 296.056 117.862 296.009C118.804 295.782 119.656 295.603 120.633 295.665Z" fill="#FFBB4D"/>
<path d="M126.64 134.409C128.493 135.452 129.901 137.239 130.528 139.281C130.602 139.981 130.608 140.674 130.603 141.378C130.601 141.668 130.601 141.668 130.599 141.965C130.55 144.358 130.035 146.203 128.356 147.969C126.547 149.652 124.576 150.329 122.11 150.254C119.973 149.933 118.253 148.77 116.923 147.099C115.459 144.943 115.319 142.779 115.565 140.246C116.008 138.13 117.072 136.248 118.84 134.972C121.29 133.468 123.973 133.154 126.64 134.409Z" fill="black"/>
<path d="M60.4986 134.567C62.293 135.83 63.5098 137.402 64.161 139.522C64.5221 142.106 64.2946 144.552 62.9845 146.823C61.6626 148.533 60.1698 149.46 58.1276 150.141C55.9357 150.363 54.1914 150.007 52.4063 148.696C50.6543 147.211 49.7443 145.902 49.4396 143.625C49.2279 140.961 49.314 138.908 50.8876 136.626C51.5061 135.902 51.5061 135.902 52.0943 135.42C52.2785 135.25 52.4626 135.081 52.6524 134.907C54.9751 133.286 58.0429 133.121 60.4986 134.567Z" fill="black"/>
<path d="M94.4739 148.769C97.2158 150.339 99.8046 152.323 101.568 154.968C101.568 155.207 101.568 155.446 101.568 155.692C99.1097 156.35 96.7976 156.454 94.258 156.456C93.9226 156.457 93.5872 156.458 93.2517 156.459C92.5503 156.46 91.8489 156.461 91.1475 156.461C90.2583 156.46 89.3692 156.464 88.4801 156.468C87.7872 156.471 87.0944 156.471 86.4015 156.471C85.9174 156.471 85.4334 156.474 84.9493 156.477C79.945 156.464 79.945 156.464 78.3998 155.692C79.6734 152.002 84.2332 149.394 87.5705 147.728C90.1525 146.772 92.0992 147.57 94.4739 148.769Z" fill="#FFBB4D"/>
<path d="M100.602 161.243C99.2817 162.31 97.9497 163.113 96.4093 163.822C96.2195 163.913 96.0298 164.004 95.8342 164.098C92.7224 165.554 89.8655 166.146 86.4995 165.104C84.0589 164.21 81.729 162.986 79.6064 161.484C79.6064 161.404 79.6064 161.325 79.6064 161.243C79.835 161.243 80.0635 161.244 80.2989 161.244C82.4576 161.249 84.6163 161.253 86.7751 161.255C87.8847 161.256 88.9944 161.258 90.1041 161.261C91.176 161.263 92.2479 161.265 93.3197 161.265C93.7277 161.266 94.1356 161.267 94.5436 161.268C95.1171 161.27 95.6906 161.27 96.2641 161.27C96.4309 161.271 96.5978 161.272 96.7696 161.273C97.6073 161.271 98.4165 161.221 99.2446 161.105C100.12 161.001 100.12 161.001 100.602 161.243Z" fill="#FFBB4D"/>
<path d="M59.1684 123.324C59.8326 123.803 60.146 124.398 60.4824 125.123C60.5467 125.259 60.5467 125.259 60.6123 125.397C60.7518 125.693 60.89 125.989 61.0281 126.285C61.1249 126.492 61.2217 126.698 61.3185 126.904C62.0065 128.371 62.6765 129.846 63.3318 131.329C63.4283 131.524 63.4283 131.524 63.5267 131.723C63.7059 132.114 63.7845 132.494 63.8658 132.916C64.0782 133.787 64.3345 134.495 65.0389 135.08C66.591 135.806 68.5461 135.819 70.2252 135.97C71.006 136.044 71.7848 136.135 72.5639 136.225C73.17 136.294 73.776 136.36 74.3834 136.418C74.551 136.435 74.551 136.435 74.7221 136.452C74.9288 136.473 75.1357 136.492 75.3428 136.509C76.1652 136.594 76.898 136.832 77.452 137.473C77.8111 137.981 77.9808 138.311 77.9897 138.939C77.9931 139.046 77.9965 139.152 78 139.262C77.829 140.395 77.0285 141.085 76.2472 141.848C76.1265 141.968 76.0059 142.087 75.8855 142.207C75.5696 142.521 75.2523 142.834 74.9346 143.146C74.4273 143.645 73.9222 144.146 73.4169 144.647C73.2418 144.82 73.0662 144.993 72.8905 145.165C72.3425 145.706 71.8103 146.251 71.3122 146.838C70.9979 147.203 70.659 147.543 70.3193 147.883C70.251 147.953 70.1827 148.023 70.1123 148.095C69.9395 148.269 69.7602 148.436 69.5799 148.601C69.501 148.601 69.4221 148.601 69.3409 148.601C69.6079 150.546 69.9171 152.483 70.2371 154.419C70.3966 155.387 70.5555 156.355 70.7138 157.323C70.7713 157.673 70.8297 158.023 70.8883 158.372C70.9215 158.574 70.9546 158.775 70.9877 158.977C71.0028 159.064 71.0178 159.152 71.0333 159.243C71.1948 160.238 71.2356 161.133 70.6554 162.003C70.0021 162.621 69.4462 162.917 68.5445 162.901C67.697 162.772 66.9721 162.297 66.2339 161.883C65.9945 161.751 65.755 161.619 65.5155 161.487C64.9703 161.186 64.4263 160.883 63.8831 160.578C63.2831 160.242 62.6819 159.908 62.0794 159.576C62.0025 159.533 61.9256 159.491 61.8464 159.447C61.5466 159.282 61.2468 159.117 60.9467 158.952C60.7399 158.839 60.5332 158.725 60.3265 158.611C60.1958 158.54 60.065 158.468 59.9303 158.394C59.6654 158.244 59.4045 158.086 59.1473 157.923C59.0223 157.844 58.8972 157.765 58.7684 157.684C58.6582 157.611 58.5481 157.539 58.4346 157.464C58.1089 157.302 58.1089 157.302 57.7535 157.41C57.3808 157.58 57.0218 157.76 56.6636 157.959C56.5955 157.996 56.5274 158.034 56.4572 158.073C56.2353 158.195 56.0139 158.319 55.7925 158.443C55.6366 158.529 55.4808 158.616 55.3249 158.703C54.2472 159.303 53.1799 159.92 52.1166 160.545C51.2205 161.072 50.3194 161.589 49.4142 162.1C49.2867 162.172 49.1593 162.245 49.028 162.319C48.9096 162.386 48.7912 162.452 48.6692 162.521C48.5648 162.58 48.4604 162.639 48.3528 162.699C47.7675 162.991 47.1609 163.053 46.5163 162.96C45.8424 162.68 45.3824 162.229 44.9628 161.644C44.5512 160.407 44.9371 158.942 45.1486 157.686C45.1803 157.492 45.2118 157.297 45.2433 157.103C45.3258 156.596 45.4098 156.088 45.4941 155.581C45.6285 154.771 45.7608 153.961 45.893 153.151C45.9387 152.872 45.9851 152.593 46.0316 152.314C46.1033 151.882 46.1709 151.449 46.2364 151.016C46.2645 150.837 46.2942 150.657 46.3253 150.479C46.3729 150.204 46.4158 149.93 46.458 149.654C46.4735 149.572 46.489 149.489 46.5049 149.405C46.5528 149.066 46.5636 148.803 46.3897 148.502C46.1227 148.174 45.8288 147.907 45.4977 147.644C45.4001 147.565 45.3024 147.486 45.2018 147.405C45.2018 147.326 45.2018 147.247 45.2018 147.165C45.1229 147.165 45.044 147.165 44.9628 147.165C44.7923 146.992 44.7923 146.992 44.5933 146.751C44.124 146.199 43.6214 145.689 43.1068 145.18C42.9643 145.038 42.9643 145.038 42.819 144.893C42.5181 144.593 42.2169 144.294 41.9155 143.994C41.5181 143.6 41.121 143.205 40.7242 142.809C40.6345 142.72 40.5447 142.631 40.4522 142.54C39.8986 141.988 39.3762 141.418 38.8683 140.824C38.7815 140.726 38.7815 140.726 38.6931 140.627C38.1795 140.038 37.9781 139.588 38.0019 138.795C38.0909 138.065 38.4798 137.503 38.9878 136.995C39.5794 136.698 40.1332 136.558 40.7896 136.473C40.8833 136.46 40.9771 136.447 41.0737 136.433C41.2773 136.405 41.4809 136.377 41.6847 136.35C42.011 136.306 42.3368 136.259 42.6626 136.211C43.7991 136.047 44.9339 135.904 46.0775 135.8C46.6316 135.748 47.1848 135.689 47.7381 135.629C48.0074 135.602 48.2771 135.579 48.5471 135.56C49.9501 135.511 49.9501 135.511 51.1359 134.875C51.4709 134.358 51.6443 133.795 51.8094 133.206C51.9353 132.789 52.1214 132.41 52.3139 132.02C52.383 131.874 52.4517 131.728 52.52 131.581C52.5544 131.508 52.5887 131.435 52.6241 131.359C52.9317 130.7 53.2333 130.038 53.5355 129.377C53.6175 129.198 53.6995 129.018 53.7816 128.839C54.2095 127.906 54.6342 126.973 55.0335 126.027C55.0918 125.89 55.15 125.753 55.2101 125.612C55.3163 125.361 55.4209 125.109 55.5235 124.856C55.8897 123.99 56.2431 123.603 57.0622 123.13C57.7925 122.91 58.4882 122.966 59.1684 123.324Z" fill="#010100"/>
<path d="M57.8253 129.316C58.2147 129.511 58.3068 129.953 58.4731 130.339C58.5663 130.552 58.6598 130.764 58.7534 130.976C58.8076 131.099 58.8618 131.222 58.9176 131.348C59.264 132.126 59.619 132.9 59.9735 133.674C60.1414 134.04 60.3089 134.407 60.4765 134.774C60.5579 134.951 60.6397 135.129 60.7219 135.306C60.9292 135.753 61.1306 136.201 61.3223 136.655C61.3614 136.745 61.4006 136.835 61.4409 136.928C61.5144 137.097 61.5859 137.267 61.6548 137.438C61.9361 138.074 62.3164 138.394 62.9496 138.673C63.2717 138.771 63.5886 138.819 63.9222 138.858C64.0161 138.871 64.11 138.884 64.2068 138.898C64.4135 138.926 64.6204 138.954 64.8273 138.98C65.1815 139.026 65.5351 139.075 65.8888 139.125C66.6702 139.235 67.4521 139.341 68.234 139.447C68.6369 139.502 69.0397 139.557 69.4425 139.612C69.6907 139.646 69.9389 139.68 70.1871 139.713C70.2988 139.728 70.4106 139.744 70.5257 139.759C70.6232 139.773 70.7208 139.786 70.8213 139.799C71.1112 139.844 71.3972 139.899 71.6842 139.959C71.1252 140.642 70.5134 141.263 69.887 141.883C69.703 142.065 69.5195 142.248 69.3362 142.43C68.8154 142.949 68.2941 143.468 67.7716 143.985C67.4507 144.303 67.1306 144.622 66.811 144.941C66.6897 145.062 66.5681 145.183 66.4462 145.303C66.2756 145.471 66.1062 145.64 65.937 145.81C65.8406 145.906 65.7442 146.001 65.6448 146.1C65.0086 146.844 64.9626 147.512 65.0214 148.458C65.1167 149.521 65.3135 150.574 65.4899 151.626C65.532 151.882 65.5739 152.139 65.6157 152.395C65.7161 153.009 65.8179 153.623 65.9204 154.236C65.9925 154.669 66.0642 155.101 66.1359 155.533C66.1995 155.917 66.2632 156.301 66.327 156.684C65.9016 156.55 65.5169 156.407 65.1314 156.182C65.0389 156.129 64.9463 156.075 64.851 156.02C64.752 155.962 64.653 155.904 64.551 155.844C64.446 155.783 64.3411 155.722 64.233 155.659C64.0047 155.526 63.7766 155.394 63.5486 155.26C63.1655 155.037 62.7817 154.815 62.3978 154.593C61.8875 154.298 61.3773 154.003 60.8674 153.707C60.7504 153.639 60.6335 153.571 60.513 153.501C60.2633 153.356 60.0143 153.209 59.7656 153.062C59.6407 152.988 59.5158 152.914 59.3871 152.838C59.2745 152.771 59.1619 152.704 59.0459 152.635C58.4935 152.327 57.9781 152.242 57.3595 152.357C56.8397 152.58 56.3573 152.856 55.8696 153.142C55.6019 153.299 55.3325 153.452 55.0625 153.605C54.2271 154.081 53.3955 154.562 52.5653 155.047C52.29 155.207 52.0145 155.368 51.7391 155.528C51.54 155.644 51.3413 155.761 51.1425 155.877C50.9592 155.984 50.9592 155.984 50.7721 156.093C50.6639 156.156 50.5556 156.22 50.4441 156.285C50.1539 156.442 49.8651 156.568 49.5566 156.684C49.6162 156.26 49.6772 155.836 49.7385 155.412C49.7583 155.276 49.7781 155.139 49.7985 154.998C49.9328 154.088 50.0793 153.18 50.2349 152.272C50.2533 152.164 50.2717 152.056 50.2907 151.945C50.3828 151.404 50.4761 150.864 50.5713 150.325C50.9956 148.378 50.9956 148.378 50.554 146.514C50.131 145.959 49.6218 145.484 49.1198 145.003C48.894 144.785 48.6692 144.566 48.4447 144.346C48.2955 144.202 48.2955 144.202 48.1432 144.056C47.9261 143.819 47.9261 143.819 47.9261 143.585C47.8516 143.554 47.7772 143.522 47.7005 143.49C47.4603 143.351 47.4603 143.351 47.3438 143C47.2669 143 47.1901 143 47.1109 143C46.9464 142.832 46.9464 142.832 46.7538 142.598C46.2825 142.041 45.7733 141.531 45.2548 141.019C45.0763 140.843 44.8981 140.666 44.7202 140.49C44.6036 140.375 44.6036 140.375 44.4846 140.257C44.3158 140.076 44.3158 140.076 44.3158 139.959C44.8495 139.873 45.3833 139.788 45.9171 139.703C45.999 139.69 46.0808 139.677 46.1651 139.664C47.1709 139.504 48.1774 139.353 49.1867 139.218C49.3275 139.199 49.3275 139.199 49.4711 139.179C49.9275 139.118 50.3841 139.057 50.8409 138.999C52.4833 138.81 52.4833 138.81 53.8656 137.971C54.0216 137.703 54.1519 137.452 54.2769 137.17C54.3133 137.092 54.3498 137.013 54.3873 136.932C54.506 136.674 54.6226 136.416 54.7391 136.158C54.8212 135.979 54.9034 135.8 54.9858 135.621C55.1534 135.256 55.3202 134.891 55.4864 134.526C55.7107 134.033 55.9382 133.543 56.1671 133.052C56.3001 132.767 56.4331 132.481 56.5661 132.196C56.6562 132.003 56.6562 132.003 56.748 131.806C57.1283 130.984 57.4847 130.155 57.8253 129.316Z" fill="#FFBB4D"/>
<path d="M123.502 123.509C124.187 124.169 124.499 125.055 124.873 125.914C124.946 126.08 125.02 126.247 125.094 126.413C125.245 126.756 125.396 127.098 125.547 127.441C125.876 128.192 126.209 128.94 126.542 129.688C126.604 129.828 126.666 129.967 126.729 130.111C127.075 130.886 127.426 131.658 127.785 132.427C127.843 132.552 127.843 132.552 127.902 132.679C128.091 133.083 128.28 133.487 128.471 133.891C128.539 134.036 128.607 134.181 128.675 134.326C128.765 134.517 128.765 134.517 128.857 134.711C128.985 135.013 128.985 135.013 128.985 135.253C129.099 135.259 129.212 135.264 129.329 135.27C130.56 135.337 131.775 135.468 132.997 135.63C133.192 135.655 133.387 135.681 133.583 135.706C133.988 135.76 134.393 135.813 134.798 135.867C135.314 135.936 135.83 136.003 136.347 136.069C136.748 136.121 137.15 136.174 137.551 136.228C137.742 136.253 137.932 136.278 138.122 136.302C140.657 136.625 140.657 136.625 141.502 137.65C141.901 138.266 142.061 138.705 141.979 139.447C141.718 140.601 140.727 141.367 139.915 142.151C139.697 142.364 139.479 142.578 139.262 142.792C139.127 142.924 138.992 143.056 138.857 143.187C138.513 143.521 138.19 143.864 137.879 144.23C137.442 144.739 136.965 145.195 136.477 145.654C136.294 145.83 136.112 146.006 135.929 146.182C135.646 146.456 135.361 146.728 135.073 146.997C133.989 147.938 133.989 147.938 133.284 149.148C133.309 149.535 133.405 149.86 133.515 150.232C133.57 150.536 133.616 150.841 133.662 151.147C133.716 151.5 133.775 151.851 133.835 152.203C133.965 152.967 134.094 153.732 134.221 154.497C134.243 154.624 134.264 154.752 134.286 154.883C134.458 155.914 134.628 156.945 134.788 157.978C134.825 158.214 134.863 158.451 134.901 158.687C135.283 161.185 135.283 161.185 134.819 162.043C134.395 162.602 133.979 162.876 133.295 162.992C132.16 163.065 131.366 162.648 130.416 162.095C130.213 161.98 130.009 161.866 129.805 161.752C129.341 161.49 128.877 161.226 128.414 160.961C127.544 160.462 126.671 159.971 125.795 159.483C125.183 159.139 124.575 158.79 123.975 158.426C123.804 158.324 123.804 158.324 123.63 158.219C123.416 158.09 123.203 157.96 122.992 157.827C122.897 157.77 122.802 157.713 122.703 157.654C122.621 157.603 122.539 157.552 122.454 157.5C121.877 157.329 121.307 157.734 120.807 158.005C120.681 158.074 120.555 158.142 120.425 158.212C120.292 158.285 120.16 158.358 120.023 158.433C119.885 158.508 119.748 158.583 119.606 158.66C118.588 159.215 117.584 159.792 116.584 160.38C116.117 160.655 115.645 160.918 115.168 161.176C114.848 161.35 114.53 161.526 114.212 161.704C114.105 161.763 113.999 161.822 113.889 161.884C113.676 162.003 113.462 162.122 113.249 162.241C113.15 162.296 113.051 162.351 112.949 162.408C112.861 162.457 112.773 162.507 112.681 162.558C111.916 162.952 111.203 163.102 110.359 162.856C109.753 162.587 109.392 162.199 109.078 161.616C108.642 160.3 109.108 158.679 109.324 157.347C109.361 157.11 109.399 156.874 109.436 156.637C109.629 155.415 109.831 154.194 110.039 152.974C110.058 152.858 110.078 152.743 110.098 152.623C110.192 152.069 110.286 151.515 110.384 150.962C110.418 150.762 110.452 150.563 110.486 150.363C110.502 150.273 110.518 150.183 110.535 150.091C110.615 149.618 110.645 149.253 110.508 148.794C110.318 148.518 110.318 148.518 110.063 148.256C109.965 148.152 109.868 148.047 109.768 147.939C109.21 147.362 108.647 146.792 108.078 146.226C107.856 146.004 107.634 145.783 107.412 145.561C106.782 144.93 106.152 144.301 105.521 143.672C105.133 143.285 104.745 142.897 104.358 142.509C104.211 142.362 104.064 142.216 103.917 142.07C103.711 141.865 103.506 141.66 103.302 141.455C103.241 141.395 103.181 141.336 103.119 141.275C102.491 140.642 102.037 140.042 102 139.132C102.009 138.453 102.204 137.93 102.641 137.41C103.189 136.934 103.654 136.724 104.381 136.615C104.468 136.602 104.555 136.588 104.644 136.574C104.93 136.53 105.216 136.49 105.502 136.451C105.6 136.437 105.698 136.423 105.8 136.409C106.438 136.319 107.077 136.235 107.716 136.152C108.066 136.106 108.415 136.056 108.765 136.007C109.865 135.852 110.952 135.717 112.062 135.67C113.769 135.628 113.769 135.628 115.211 134.842C115.694 134.125 115.972 133.335 116.228 132.514C116.496 131.655 116.871 130.855 117.253 130.043C117.447 129.63 117.634 129.213 117.821 128.797C117.857 128.716 117.894 128.635 117.931 128.551C118.18 127.998 118.425 127.443 118.667 126.887C118.7 126.813 118.732 126.739 118.765 126.662C118.917 126.316 119.068 125.969 119.217 125.621C120.09 123.62 120.09 123.62 121.118 123.15C121.94 122.84 122.788 123.035 123.502 123.509Z" fill="#010100"/>
<path d="M122 129C122.403 129.33 122.576 129.778 122.784 130.242C122.825 130.33 122.865 130.419 122.907 130.51C123.039 130.8 123.17 131.09 123.301 131.381C123.392 131.581 123.484 131.782 123.575 131.982C124.011 132.944 124.44 133.908 124.856 134.878C124.892 134.961 124.927 135.043 124.964 135.129C125.13 135.516 125.294 135.904 125.457 136.292C125.944 137.602 125.944 137.602 127 138.409C127.546 138.584 128.114 138.648 128.68 138.726C128.817 138.746 128.954 138.766 129.095 138.787C129.532 138.85 129.969 138.912 130.406 138.974C130.837 139.036 131.267 139.099 131.698 139.161C131.978 139.201 132.258 139.242 132.538 139.282C133.694 139.448 134.847 139.628 136 139.815C135.55 140.355 135.087 140.869 134.587 141.362C134.524 141.425 134.46 141.489 134.395 141.554C134.128 141.82 133.86 142.085 133.592 142.351C132.92 143.019 132.255 143.684 131.641 144.408C131.243 144.862 130.8 145.274 130.364 145.69C129.676 146.364 129.324 147.009 129.285 147.985C129.288 148.588 129.396 149.174 129.496 149.766C129.516 149.891 129.537 150.016 129.558 150.144C129.623 150.542 129.689 150.939 129.755 151.337C129.798 151.599 129.842 151.862 129.885 152.125C130.119 153.553 130.119 153.553 130.368 154.979C130.385 155.073 130.402 155.167 130.419 155.264C130.464 155.509 130.509 155.754 130.554 156C130.607 156.342 130.628 156.655 130.615 157C130.21 156.845 129.835 156.669 129.458 156.454C129.35 156.393 129.243 156.331 129.132 156.268C129.017 156.203 128.902 156.137 128.783 156.069C128.663 156 128.543 155.932 128.419 155.861C127.296 155.219 126.18 154.566 125.065 153.91C124.956 153.846 124.847 153.782 124.735 153.717C124.491 153.573 124.249 153.428 124.006 153.283C123.879 153.207 123.752 153.13 123.621 153.052C123.505 152.983 123.39 152.913 123.271 152.842C122.711 152.542 122.151 152.468 121.521 152.554C121.153 152.686 120.822 152.87 120.482 153.064C120.384 153.118 120.285 153.172 120.184 153.228C119.871 153.402 119.559 153.578 119.248 153.755C119.149 153.811 119.05 153.867 118.948 153.925C117.997 154.462 117.053 155.011 116.11 155.563C115.823 155.731 115.536 155.898 115.249 156.065C115.04 156.187 114.832 156.31 114.623 156.432C114.497 156.506 114.37 156.58 114.24 156.656C114.126 156.723 114.013 156.789 113.897 156.857C113.624 157 113.624 157 113.385 157C113.585 155.465 113.832 153.942 114.103 152.418C114.134 152.24 114.166 152.061 114.197 151.883C114.44 150.512 114.44 150.512 114.531 150.001C114.587 149.688 114.64 149.375 114.693 149.061C114.709 148.977 114.724 148.893 114.74 148.806C114.906 147.793 114.804 147.094 114.224 146.253C113.737 145.629 113.167 145.083 112.604 144.528C112.471 144.396 112.338 144.263 112.205 144.13C111.857 143.783 111.509 143.437 111.16 143.092C110.599 142.536 110.04 141.978 109.481 141.42C109.285 141.226 109.09 141.032 108.894 140.838C108.775 140.72 108.656 140.602 108.538 140.484C108.434 140.38 108.33 140.277 108.222 140.171C108 139.936 108 139.936 108 139.815C108.404 139.749 108.808 139.684 109.212 139.62C109.344 139.599 109.477 139.578 109.613 139.556C110.577 139.407 111.542 139.279 112.51 139.159C112.757 139.128 113.004 139.097 113.252 139.067C113.624 139.02 113.996 138.975 114.368 138.931C114.721 138.889 115.074 138.846 115.427 138.802C115.533 138.79 115.638 138.778 115.747 138.766C116.522 138.666 117.194 138.463 117.793 137.941C118.37 137.134 118.747 136.229 119.143 135.324C119.222 135.148 119.3 134.971 119.379 134.795C119.498 134.526 119.618 134.258 119.737 133.989C120.112 133.144 120.498 132.303 120.886 131.464C121.264 130.645 121.638 129.826 122 129Z" fill="#FFBB4D"/>
<path d="M104.562 0.0109006C104.692 0.00738775 104.821 0.0038749 104.955 0.0002556C106.192 -0.00952011 107.286 0.259227 108.2 1.13217C108.952 2.03114 109.284 3.15888 109.292 4.31621C109.293 4.43809 109.293 4.43809 109.294 4.56244C109.296 4.82419 109.295 5.08585 109.294 5.34759C109.293 5.43749 109.293 5.52738 109.293 5.61999C109.286 7.02525 109.196 8.36425 108.892 9.73806C108.852 9.92577 108.852 9.92577 108.812 10.1173C108.563 11.2857 108.312 12.4548 108.011 13.611C107.474 15.6822 107.662 17.5751 108.272 19.6091C108.308 19.7318 108.345 19.8546 108.382 19.9811C108.51 20.4028 108.64 20.8236 108.771 21.2441C108.807 21.3588 108.807 21.3588 108.844 21.4758C109.763 24.4164 110.858 27.2789 111.995 30.1412C112.652 31.7942 113.286 33.4555 113.921 35.1168C114.128 35.6572 114.338 36.1963 114.549 36.7347C116.204 40.9701 117.611 45.3132 118.939 49.661C119.065 50.0664 119.196 50.4697 119.329 50.8727C120.431 54.2078 121.367 57.5999 122.197 61.0124C122.31 61.4765 122.436 61.9352 122.571 62.3934C122.814 63.2197 123.016 64.0551 123.222 64.8915C123.556 66.2462 123.926 67.5862 124.325 68.9228C124.522 69.5795 124.702 70.2399 124.88 70.9019C125.05 70.9396 125.05 70.9396 125.224 70.978C130.933 72.267 138.04 74.3671 141.442 79.5617C141.576 79.7823 141.707 80.0043 141.836 80.2278C141.892 80.3248 141.948 80.4217 142.006 80.5216C142.934 82.2458 143.258 84.299 142.782 86.2179C142.181 88.1007 141.274 89.5744 139.898 91.0072C139.793 91.1218 139.687 91.2364 139.578 91.3545C135.208 96.0084 127.867 98.1203 121.852 99.6065C121.716 99.6405 121.581 99.6745 121.441 99.7096C119.053 100.305 116.649 100.779 114.222 101.181C114.131 101.196 114.041 101.211 113.948 101.227C111.216 101.683 108.48 102.003 105.721 102.248C105.578 102.261 105.436 102.274 105.289 102.287C104.874 102.324 104.458 102.359 104.043 102.395C103.864 102.41 103.864 102.41 103.682 102.426C101.389 102.613 99.0957 102.654 96.7959 102.655C96.512 102.655 96.2282 102.656 95.9443 102.656C95.3523 102.657 94.7603 102.657 94.1684 102.657C93.5718 102.657 92.9753 102.658 92.3788 102.659C88.8721 102.669 85.3825 102.635 81.8834 102.392C81.7397 102.382 81.596 102.373 81.4479 102.363C79.5869 102.236 77.7486 101.997 75.9031 101.728C75.484 101.668 75.0646 101.612 74.6448 101.556C66.3263 100.444 56.1272 98.6215 49.182 93.6718C49.0635 93.5875 48.945 93.5031 48.8229 93.4163C46.5709 91.7692 44.4675 89.682 43.4895 87.0104C43.4511 86.9104 43.4127 86.8105 43.3732 86.7076C42.8497 85.0555 42.8317 82.7593 43.6107 81.1968C43.6709 81.0684 43.7312 80.9401 43.7933 80.8079C44.2656 79.8655 44.8429 79.0703 45.5485 78.29C45.6392 78.1893 45.7299 78.0886 45.8234 77.9848C47.1693 76.5675 48.7973 75.5608 50.5143 74.6565C50.5886 74.6164 50.6629 74.5764 50.7395 74.5351C53.8005 72.8902 57.2021 71.7335 60.5944 71.005C60.9616 70.8923 61.0601 70.8345 61.2937 70.5385C61.4438 70.1681 61.4438 70.1681 61.5685 69.7361C61.5932 69.6561 61.6178 69.576 61.6432 69.4935C61.7221 69.2366 61.7993 68.9792 61.8765 68.7218C61.927 68.5562 61.9775 68.3906 62.0282 68.225C62.106 67.9704 62.1837 67.7158 62.2611 67.461C62.4484 66.8443 62.6406 66.2292 62.8355 65.6149C63.127 64.6957 63.4143 63.7754 63.7 62.8544C65.3282 57.6075 67.0268 52.3921 68.8519 47.2099C69.0455 46.66 69.2377 46.1097 69.4277 45.5586C71.3246 40.0571 73.561 34.6091 76.0699 29.3589C76.1929 29.0997 76.3159 28.8404 76.4389 28.5811C76.7967 27.8293 77.1591 27.0798 77.5233 26.331C77.5747 26.2246 77.6262 26.1182 77.6792 26.0086C78.4253 24.4696 79.2427 22.9784 80.0964 21.4966C80.2501 21.2264 80.4013 20.9555 80.5503 20.6827C81.2446 19.4175 82.0159 18.2166 82.8221 17.0202C82.9519 16.8266 83.0817 16.633 83.2116 16.4394C85.8183 12.5602 88.682 8.63075 92.2995 5.62011C92.3658 5.56423 92.4321 5.50836 92.5004 5.45079C95.9058 2.58856 99.9939 0.051643 104.562 0.0109006Z" fill="#AADCE7"/>
<path d="M104.562 0.0109006C104.692 0.00738775 104.821 0.0038749 104.955 0.0002556C106.192 -0.00952011 107.286 0.259227 108.2 1.13217C108.952 2.03114 109.284 3.15888 109.292 4.31621C109.293 4.43809 109.293 4.43809 109.294 4.56244C109.296 4.82419 109.295 5.08585 109.294 5.34759C109.293 5.43749 109.293 5.52738 109.293 5.61999C109.286 7.02525 109.196 8.36425 108.892 9.73806C108.852 9.92577 108.852 9.92577 108.812 10.1173C108.563 11.2857 108.312 12.4548 108.011 13.611C107.474 15.6822 107.662 17.5751 108.272 19.6091C108.308 19.7318 108.345 19.8546 108.382 19.9811C108.51 20.4028 108.64 20.8236 108.771 21.2441C108.807 21.3588 108.807 21.3588 108.844 21.4758C109.763 24.4164 110.858 27.2789 111.995 30.1412C112.652 31.7942 113.286 33.4555 113.921 35.1168C114.128 35.6572 114.338 36.1963 114.549 36.7347C116.204 40.9701 117.611 45.3132 118.939 49.661C119.065 50.0664 119.196 50.4697 119.329 50.8727C120.431 54.2078 121.367 57.5999 122.197 61.0124C122.31 61.4765 122.436 61.9352 122.571 62.3934C122.814 63.2197 123.016 64.0551 123.222 64.8915C123.556 66.2462 123.926 67.5862 124.325 68.9228C124.522 69.5795 124.702 70.2399 124.88 70.9019C125.05 70.9396 125.05 70.9396 125.224 70.978C130.933 72.267 138.04 74.3671 141.442 79.5617C141.576 79.7823 141.707 80.0043 141.836 80.2278C141.892 80.3248 141.948 80.4217 142.006 80.5216C142.934 82.2458 143.258 84.299 142.782 86.2179C142.181 88.1007 141.274 89.5744 139.898 91.0072C139.793 91.1218 139.687 91.2364 139.578 91.3545C135.208 96.0084 127.867 98.1203 121.852 99.6065C121.716 99.6405 121.581 99.6745 121.441 99.7096C119.053 100.305 116.649 100.779 114.222 101.181C114.131 101.196 114.041 101.211 113.948 101.227C111.216 101.683 108.48 102.003 105.721 102.248C105.578 102.261 105.436 102.274 105.289 102.287C104.874 102.324 104.458 102.359 104.043 102.395C103.864 102.41 103.864 102.41 103.682 102.426C101.389 102.613 99.0957 102.654 96.7959 102.655C96.512 102.655 96.2282 102.656 95.9443 102.656C95.3523 102.657 94.7603 102.657 94.1684 102.657C93.5718 102.657 92.9753 102.658 92.3788 102.659C88.8721 102.669 85.3825 102.635 81.8834 102.392C81.7397 102.382 81.596 102.373 81.4479 102.363C79.5869 102.236 77.7486 101.997 75.9031 101.728C75.484 101.668 75.0646 101.612 74.6448 101.556C66.3263 100.444 56.1272 98.6215 49.182 93.6718C49.0635 93.5875 48.945 93.5031 48.8229 93.4163C46.5709 91.7692 44.4675 89.682 43.4895 87.0104C43.4511 86.9104 43.4127 86.8105 43.3732 86.7076C42.8497 85.0555 42.8317 82.7593 43.6107 81.1968C43.6709 81.0684 43.7312 80.9401 43.7933 80.8079C44.2656 79.8655 44.8429 79.0703 45.5485 78.29C45.6392 78.1893 45.7299 78.0886 45.8234 77.9848C47.1693 76.5675 48.7973 75.5608 50.5143 74.6565C50.5886 74.6164 50.6629 74.5764 50.7395 74.5351C53.8005 72.8902 57.2021 71.7335 60.5944 71.005C60.9616 70.8923 61.0601 70.8345 61.2937 70.5385C61.4438 70.1681 61.4438 70.1681 61.5685 69.7361C61.5932 69.6561 61.6178 69.576 61.6432 69.4935C61.7221 69.2366 61.7993 68.9792 61.8765 68.7218C61.927 68.5562 61.9775 68.3906 62.0282 68.225C62.106 67.9704 62.1837 67.7158 62.2611 67.461C62.4484 66.8443 62.6406 66.2292 62.8355 65.6149C63.127 64.6957 63.4143 63.7754 63.7 62.8544C65.3282 57.6075 67.0268 52.3921 68.8519 47.2099C69.0455 46.66 69.2377 46.1097 69.4277 45.5586C71.3246 40.0571 73.561 34.6091 76.0699 29.3589C76.1929 29.0997 76.3159 28.8404 76.4389 28.5811C76.7967 27.8293 77.1591 27.0798 77.5233 26.331C77.5747 26.2246 77.6262 26.1182 77.6792 26.0086C78.4253 24.4696 79.2427 22.9784 80.0964 21.4966C80.2501 21.2264 80.4013 20.9555 80.5503 20.6827C81.2446 19.4175 82.0159 18.2166 82.8221 17.0202C82.9519 16.8266 83.0817 16.633 83.2116 16.4394C85.8183 12.5602 88.682 8.63075 92.2995 5.62011C92.3658 5.56423 92.4321 5.50836 92.5004 5.45079C95.9058 2.58856 99.9939 0.051643 104.562 0.0109006ZM104.07 3.22758C100.868 3.61591 98.0346 5.46858 95.5696 7.43685C95.4577 7.52522 95.3457 7.61359 95.2304 7.70463C92.8292 9.62974 90.7667 11.8914 88.9469 14.3683C88.7704 14.6051 88.59 14.8385 88.4091 15.0719C82.0218 23.3621 78.0479 33.0691 74.1093 42.6817C74.0583 42.8058 74.0072 42.9299 73.9546 43.0577C73.3432 44.5604 72.8262 46.0974 72.3024 47.6322C72.1433 48.0982 71.9837 48.5641 71.8242 49.0299C71.7931 49.1207 71.762 49.2115 71.7299 49.305C71.4831 50.025 71.2344 50.7443 70.983 51.4627C70.9496 51.5581 70.9162 51.6534 70.8818 51.7517C70.7138 52.2302 70.5404 52.7062 70.3622 53.181C70.2049 53.6092 70.0704 54.0402 69.9457 54.479C69.525 55.9578 69.0163 57.4054 68.5106 58.8569C68.0457 60.1935 67.6059 61.5306 67.2292 62.8949C67.0495 63.5454 66.8497 64.1852 66.6303 64.8233C66.3383 65.6798 66.0779 66.5425 65.8279 67.4122C65.5575 68.3531 65.2761 69.2853 64.956 70.2107C64.5053 71.5599 64.112 72.9285 63.7072 74.2921C63.4377 75.1993 63.1597 76.1019 62.8553 76.998C62.3969 78.2327 62.3969 78.2327 62.5048 79.5011C63.6727 81.5523 67.1646 82.4108 69.285 82.997C69.7383 83.1224 70.1815 83.2718 70.6272 83.4223C71.6164 83.7437 72.6323 83.9583 73.6475 84.1793C73.7287 84.197 73.8099 84.2147 73.8935 84.2329C75.7595 84.638 77.6306 84.9888 79.5217 85.2542C79.6131 85.2671 79.7045 85.2799 79.7987 85.2932C81.3351 85.5069 82.8725 85.656 84.4193 85.7689C84.5168 85.776 84.6142 85.7832 84.7147 85.7905C85.2901 85.8319 85.8657 85.8692 86.4417 85.9033C86.629 85.9144 86.8162 85.926 87.0035 85.9379C89.0548 86.0678 91.1087 86.0682 93.1633 86.0705C93.5634 86.071 93.9635 86.0727 94.3636 86.0755C97.0212 86.0935 99.6345 85.986 102.279 85.7202C102.796 85.6703 103.313 85.6304 103.831 85.5942C105.516 85.473 107.175 85.1818 108.839 84.8993C109.185 84.8419 109.531 84.7887 109.879 84.7399C111.543 84.5053 113.169 84.1114 114.8 83.7135C115.101 83.6407 115.402 83.5706 115.704 83.5032C118.089 82.9341 122.009 81.87 123.426 79.7434C123.58 78.7528 123.306 77.8277 123.027 76.8855C122.929 76.5502 122.835 76.2138 122.742 75.8771C122.43 74.7482 122.113 73.621 121.776 72.4991C121.528 71.6696 121.316 70.8333 121.109 69.9926C120.784 68.6758 120.413 67.373 120.037 66.07C119.994 65.9218 119.951 65.7737 119.907 65.621C119.823 65.3296 119.739 65.0383 119.654 64.7472C119.422 63.9419 119.218 63.1356 119.034 62.3179C118.896 61.7291 118.729 61.1495 118.559 60.5691C118.526 60.4549 118.493 60.3407 118.459 60.223C118.379 59.9472 118.299 59.6714 118.218 59.3958C117.815 59.5302 117.732 59.629 117.469 59.9484C117.083 60.4051 116.673 60.8255 116.244 61.2414C115.91 61.5873 115.8 61.7802 115.751 62.2648C115.781 63.4472 116.2 64.6182 116.575 65.7295C116.971 66.917 117.335 68.0218 116.75 69.2138C116.457 69.6666 116.204 69.8983 115.675 70.0541C114.977 70.0962 114.469 70.0144 113.828 69.7286C113.744 69.6929 113.66 69.6572 113.573 69.6204C112.97 69.3603 112.377 69.0787 111.785 68.7951C111.632 68.7226 111.479 68.6501 111.327 68.5776C111.024 68.4334 110.722 68.2866 110.421 68.1381C110.281 68.0709 110.141 68.0037 109.996 67.9345C109.871 67.8733 109.746 67.8121 109.617 67.7491C109.196 67.6125 108.953 67.6401 108.529 67.7528C108.267 67.8955 108.267 67.8955 108.022 68.0935C104.313 70.8079 104.313 70.8079 102.837 70.7103C102.288 70.5957 101.974 70.3137 101.641 69.8799C101.236 68.5997 101.588 67.155 101.807 65.8604C102.26 64.0285 102.26 64.0285 101.956 62.3012C101.741 62.0712 101.516 61.8778 101.27 61.6819C101.102 61.5377 100.934 61.3934 100.766 61.249C100.685 61.1807 100.603 61.1124 100.519 61.0421C100.228 60.7935 99.9611 60.526 99.6951 60.2512C98.8829 59.3716 98.8829 59.3716 97.8708 58.7902C97.7421 58.5858 97.7421 58.5858 97.6286 58.3058C97.5836 58.2008 97.5387 58.0959 97.4923 57.9878C97.3082 57.2775 97.2698 56.6414 97.5605 55.9591C97.9859 55.5233 98.3889 55.3509 98.9609 55.1567C99.0783 55.1157 99.1957 55.0746 99.3166 55.0323C100.889 54.55 102.538 54.4571 104.169 54.3089C104.347 53.8835 104.487 53.4609 104.607 53.0159C104.643 52.8856 104.679 52.7553 104.716 52.6211C104.79 52.3499 104.864 52.0786 104.937 51.8073C105.867 48.4309 105.867 48.4309 106.871 47.6021C107.396 47.306 107.948 47.2792 108.529 47.4053C109.932 48.0639 110.689 50.3433 111.335 51.6417C112.027 53.1045 112.027 53.1045 113.253 54.0667C113.601 54.1002 113.941 54.1227 114.29 54.1348C114.485 54.1435 114.68 54.1523 114.876 54.1613C115.018 54.1676 115.018 54.1676 115.163 54.1741C115.699 54.2014 116.232 54.2553 116.765 54.3089C116.535 53.3468 116.271 52.4036 115.967 51.4627C115.926 51.334 115.884 51.2053 115.842 51.0727C115.708 50.6575 115.574 50.2425 115.44 49.8276C115.347 49.5395 115.255 49.2514 115.162 48.9633C114.626 47.3011 114.085 45.6407 113.533 43.9837C113.505 43.8995 113.477 43.8152 113.448 43.7284C112.631 41.2787 111.8 38.8198 110.789 36.4423C110.522 35.8102 110.282 35.1688 110.042 34.526C109.679 33.5533 109.308 32.5838 108.936 31.6147C108.856 31.4063 108.776 31.1979 108.696 30.9895C108.579 30.6819 108.461 30.3745 108.343 30.0672C108.308 29.9756 108.273 29.8839 108.237 29.7895C108.024 29.2368 107.794 28.6946 107.548 28.1556C107.363 27.7327 107.216 27.2977 107.068 26.8609C106.807 26.1009 106.541 25.3432 106.266 24.5885C105.589 22.7296 104.969 20.876 104.532 18.9429C104.509 18.8476 104.486 18.7523 104.462 18.654C103.973 16.4915 104.2 14.2105 104.809 12.1024C105.462 9.79902 105.891 7.53256 105.917 5.13564C105.92 4.9859 105.923 4.83617 105.926 4.6819C105.925 4.47184 105.925 4.47184 105.925 4.25755C105.925 4.13202 105.925 4.00649 105.925 3.87716C105.892 3.54805 105.892 3.54805 105.645 3.33829C105.143 3.07193 104.616 3.17985 104.07 3.22758Z" fill="black"/>
<path d="M125.728 74.6562C126.435 74.7348 127.085 74.9145 127.764 75.1256C127.865 75.1566 127.967 75.1877 128.072 75.2197C128.277 75.2825 128.482 75.3455 128.687 75.4089C129.004 75.5061 129.323 75.6002 129.641 75.6943C130.339 75.9037 130.998 76.1738 131.662 76.473C131.764 76.5186 131.865 76.5643 131.97 76.6113C133.484 77.2986 134.936 78.009 136.265 79.0164C136.334 79.0689 136.404 79.1213 136.476 79.1753C137.834 80.2167 139.263 81.6124 139.535 83.3766C139.61 84.5166 139.618 85.5027 139.05 86.5257C138.999 86.6265 138.947 86.7274 138.893 86.8313C137.873 88.6245 136.18 89.9462 134.448 91.007C134.372 91.0534 134.297 91.0998 134.219 91.1476C132.423 92.2332 130.489 93.1848 128.516 93.901C128.171 94.027 127.833 94.1636 127.494 94.3037C124.336 95.6019 120.933 96.3162 117.613 97.0628C117.442 97.1015 117.442 97.1015 117.268 97.1409C117.165 97.164 117.062 97.1871 116.957 97.2109C116.871 97.2301 116.786 97.2493 116.698 97.2691C115.865 97.4463 115.032 97.5962 114.189 97.719C114.085 97.7344 113.981 97.7498 113.873 97.7657C113.654 97.798 113.435 97.8302 113.217 97.8624C112.9 97.909 112.584 97.9564 112.267 98.004C109.852 98.3672 107.45 98.712 105.01 98.8565C104.529 98.8876 104.048 98.9293 103.568 98.9722C102.426 99.0682 101.287 99.145 100.142 99.1879C99.9382 99.1956 99.9382 99.1956 99.7303 99.2034C98.3217 99.2532 96.9137 99.265 95.5043 99.2675C95.3703 99.2678 95.2362 99.2682 95.0981 99.2685C94.3881 99.2703 93.6781 99.2714 92.9681 99.272C92.3942 99.2725 91.8203 99.2742 91.2463 99.2769C87.7882 99.2932 84.3668 99.2285 80.9229 98.9029C80.4992 98.8634 80.0753 98.8269 79.6514 98.79C77.6575 98.6162 75.6958 98.3177 73.7241 97.9829C73.317 97.916 72.9098 97.8553 72.5012 97.798C65.9521 96.8768 58.91 95.1336 53.0578 91.9759C52.94 91.9156 52.8223 91.8554 52.701 91.7933C51.3054 91.0656 50.0752 90.1571 48.9398 89.0691C48.845 88.982 48.7503 88.8949 48.6526 88.8051C47.4023 87.6201 46.5363 86.2168 46.4481 84.4742C46.4175 83.0079 46.8024 82.042 47.7665 80.924C47.9531 80.7297 48.1423 80.5378 48.3342 80.3487C48.4162 80.2669 48.4981 80.1851 48.5826 80.1008C51.1708 77.6637 54.7884 76.1464 58.1446 75.1407C58.2716 75.1023 58.3985 75.0639 58.5293 75.0243C59.0658 74.8694 59.5209 74.7584 60.0825 74.7774C59.9671 75.3282 59.8432 75.8733 59.6841 76.4134C59.2142 78.0191 58.8822 79.5287 59.6482 81.1114C60.8015 83.077 63.2939 84.2905 65.3601 85.041C65.7459 85.1827 66.1276 85.3321 66.5097 85.4834C67.3209 85.796 68.142 86.0503 68.977 86.291C69.179 86.3501 69.179 86.3501 69.3851 86.4105C69.6586 86.4904 69.9324 86.5697 70.2063 86.6484C70.4813 86.7279 70.756 86.8088 71.0302 86.8911C72.1092 87.2108 73.1938 87.4532 74.2985 87.6611C74.3929 87.679 74.4873 87.6968 74.5845 87.7152C77.1265 88.1911 79.6882 88.5016 82.2576 88.7869C82.5895 88.8245 82.921 88.8643 83.2526 88.9051C89.6338 89.6842 96.3961 89.6849 102.779 88.9118C103.3 88.8501 103.816 88.8115 104.34 88.7916C105.834 88.7343 107.286 88.4764 108.756 88.2137C108.894 88.1895 109.032 88.1652 109.173 88.1402C118.719 86.7225 118.719 86.7225 126.261 81.3919C127.033 80.1271 126.78 78.6431 126.448 77.2692C126.296 76.6786 126.137 76.0905 125.97 75.5041C125.944 75.4136 125.919 75.323 125.892 75.2298C125.838 75.0385 125.783 74.8473 125.728 74.6562Z" fill="#AADCE7"/>
<path d="M89.9984 24.9984C91.136 25.4921 91.7633 26.8647 92.3071 27.9128C92.9692 29.2023 92.9692 29.2023 93.8741 30.3276C94.2267 30.344 94.5768 30.3531 94.9296 30.3574C95.15 30.3614 95.3704 30.3654 95.5908 30.3694C95.9383 30.3751 96.2859 30.3805 96.6335 30.3853C96.9689 30.3902 97.3042 30.3964 97.6396 30.4028C97.7416 30.4038 97.8435 30.4048 97.9486 30.4059C98.8517 30.4243 99.933 30.4583 100.657 31.0542C101.03 31.4882 101.246 31.8688 101.208 32.4556C100.819 34.1618 99.439 35.893 98.2381 37.1148C97.9517 37.4354 97.9517 37.4354 97.8332 37.8367C97.8596 38.0937 97.9137 38.3174 97.992 38.5635C98.015 38.6414 98.0381 38.7192 98.0618 38.7995C98.1399 39.0444 98.2273 39.2841 98.3175 39.5248C98.3492 39.6131 98.381 39.7014 98.4136 39.7923C98.5782 40.2492 98.7496 40.7027 98.9283 41.1542C99.3507 42.243 99.6303 43.1927 99.4454 44.3771C99.1781 44.9733 98.8227 45.3049 98.2343 45.5882C96.3232 45.8569 94.168 45.0071 92.4618 44.2304C92.3558 44.1839 92.2498 44.1373 92.1406 44.0894C92.0461 44.046 91.9517 44.0026 91.8544 43.9579C91.4606 43.8666 91.3246 43.9412 90.9673 44.1348C90.6109 44.3738 90.2668 44.6281 89.9227 44.8842C89.1181 45.4742 88.309 46.0404 87.4549 46.5572C87.3423 46.6257 87.2298 46.6942 87.1138 46.7649C86.284 47.2665 85.7797 47.5144 84.7903 47.405C84.2423 47.1359 83.9497 46.8686 83.7003 46.3149C83.6413 45.8755 83.6431 45.4406 83.6473 44.9978C83.6477 44.868 83.6481 44.7382 83.6485 44.6044C83.6767 42.9 83.9324 41.2156 84.1848 39.5324C84.1115 39.497 84.0382 39.4617 83.9627 39.4253C82.985 38.9219 82.1114 38.1018 81.3097 37.3608C81.001 37.0783 80.6811 36.8128 80.3545 36.5513C80.015 36.2089 79.9104 35.8663 79.9078 35.3917C79.9308 34.6924 80.006 34.0303 80.512 33.5102C81.188 33.0124 81.9655 32.7808 82.7569 32.5337C83.4117 32.3237 84.0511 32.0829 84.6692 31.7809C84.7476 31.75 84.826 31.719 84.9067 31.6871C85.3601 31.4701 85.5879 31.2805 85.8079 30.8207C85.958 30.3751 86.0865 29.9267 86.2059 29.4722C87.5237 24.745 87.5237 24.745 89.9984 24.9984Z" fill="black"/>
<path d="M81.0513 55.3844C81.8898 55.9331 82.1849 56.8093 82.421 57.7381C82.472 57.9299 82.5231 58.1216 82.5743 58.3134C82.6128 58.4605 82.6128 58.4605 82.6521 58.6105C82.7831 59.108 82.9199 59.6039 83.0568 60.0999C83.0813 60.1902 83.1058 60.2806 83.1311 60.3737C83.197 60.6137 83.2668 60.8527 83.3369 61.0915C83.3581 61.1946 83.3793 61.2976 83.4011 61.4038C83.6064 61.742 83.6696 61.7596 84.0341 61.8693C84.2302 61.9168 84.427 61.9616 84.6243 62.0041C84.7289 62.029 84.8335 62.0539 84.9412 62.0795C85.2765 62.1589 85.6124 62.2347 85.9485 62.3102C86.2814 62.3867 86.6142 62.4639 86.9467 62.5423C87.1534 62.5908 87.3605 62.6382 87.5679 62.6842C88.3782 62.8719 89.1984 63.1012 89.819 63.6747C90.1723 64.3123 90.112 64.991 89.9983 65.6939C89.7883 66.1402 89.5056 66.4455 89.1505 66.784C89.0626 66.8703 88.9747 66.9567 88.8841 67.0456C88.2432 67.6463 87.5548 68.1882 86.8597 68.7242C86.7232 68.8295 86.5876 68.9359 86.4529 69.0434C86.3074 69.1567 86.1579 69.265 86.0057 69.369C85.5578 69.6964 85.5578 69.6964 85.3272 70.1847C85.3078 70.4764 85.3157 70.7541 85.3353 71.0458C85.3389 71.1491 85.3424 71.2524 85.346 71.3588C85.3696 71.9673 85.424 72.5713 85.4882 73.1767C85.5316 73.7632 85.5457 74.3487 85.5549 74.9366C85.5585 75.0524 85.562 75.1683 85.5657 75.2876C85.5716 75.9866 85.5181 76.4131 85.0325 76.9578C84.4477 77.2952 83.8854 77.4369 83.2158 77.3211C82.4666 77.0359 81.8264 76.5607 81.1871 76.0872C81.0453 75.9834 81.0453 75.9834 80.9006 75.8775C80.6221 75.6731 80.3443 75.4678 80.0668 75.2621C79.9162 75.1513 79.7656 75.0404 79.615 74.9295C78.5876 74.1674 78.5876 74.1674 78.25 73.8087C77.7976 73.9858 77.3548 74.1788 76.9125 74.3798C76.7724 74.4429 76.6323 74.5061 76.4879 74.5712C76.1963 74.7028 75.9048 74.835 75.6136 74.9676C73.4659 75.9326 73.4659 75.9326 72.4819 75.8904C72.3804 75.8871 72.2789 75.8839 72.1743 75.8805C72.101 75.8763 72.0276 75.8721 71.952 75.8677C71.952 75.7878 71.952 75.7078 71.952 75.6255C71.882 75.618 71.8121 75.6105 71.74 75.6028C71.3407 75.4586 71.2139 75.2528 70.983 74.8988C70.9081 74.5561 70.8736 74.2899 70.8695 73.945C70.8683 73.8486 70.8672 73.7522 70.866 73.6529C70.9155 72.341 71.4534 71.119 71.9227 69.9093C72.3145 68.9192 72.3145 68.9192 72.4364 67.874C72.3096 67.6254 72.3096 67.6254 72.0807 67.4653C71.516 66.9699 71.0776 66.4087 70.6197 65.8151C70.5237 65.6926 70.4277 65.5702 70.3287 65.4441C69.5853 64.4802 69.068 63.7679 69.0991 62.5118C69.2158 61.938 69.5684 61.574 70.0141 61.2126C70.3696 61.0044 70.6323 60.9389 71.0428 60.9318C71.1494 60.9294 71.2561 60.927 71.366 60.9245C71.5371 60.9224 71.5371 60.9224 71.7116 60.9202C71.8292 60.9179 71.9468 60.9156 72.068 60.9131C72.4431 60.9059 72.8183 60.9003 73.1934 60.8947C73.448 60.8901 73.7025 60.8853 73.957 60.8805C74.5806 60.8689 75.2041 60.8587 75.8277 60.8493C75.8651 60.7743 75.9025 60.6993 75.9411 60.622C76.5332 59.4398 77.155 58.2696 77.8034 57.1174C77.8754 56.9892 77.9474 56.861 78.0215 56.729C78.73 55.6097 79.6634 54.8114 81.0513 55.3844Z" fill="black"/>
<path d="M107.924 51.4019C108.376 51.5526 108.435 51.746 108.645 52.1552C108.711 52.2882 108.711 52.2882 108.779 52.4238C108.875 52.6108 108.971 52.7976 109.068 52.9844C109.118 53.082 109.168 53.1796 109.22 53.2802C109.482 53.7836 109.754 54.2812 110.028 54.778C110.078 54.8708 110.129 54.9636 110.181 55.0592C110.229 55.1459 110.277 55.2327 110.326 55.3221C110.368 55.3984 110.41 55.4747 110.453 55.5533C110.584 55.7718 110.584 55.7718 110.786 55.9561C110.951 56.1254 110.951 56.1254 110.951 56.3676C111.026 56.3851 111.101 56.4026 111.179 56.4206C111.436 56.4887 111.436 56.4887 111.678 56.6099C111.867 56.6338 112.057 56.6516 112.247 56.6662C112.363 56.6755 112.479 56.6848 112.598 56.6944C112.722 56.704 112.845 56.7135 112.973 56.7234C114.081 56.8139 115.18 56.9309 116.281 57.0943C116.085 57.5695 115.758 57.9075 115.41 58.2752C115.289 58.4051 115.168 58.535 115.048 58.6651C114.989 58.728 114.93 58.7909 114.87 58.8557C113.522 60.1983 113.522 60.1983 112.988 61.9163C112.986 62.042 112.984 62.1676 112.982 62.2971C113.011 62.6792 113.103 62.9212 113.253 63.2713C113.335 63.5838 113.413 63.8956 113.487 64.2099C113.62 64.7595 113.757 65.2973 113.949 65.8299C114.094 66.2394 114.134 66.5877 114.1 67.0259C113.594 66.8317 113.107 66.6033 112.619 66.3668C112.495 66.3073 112.495 66.3073 112.37 66.2465C112.197 66.1631 112.024 66.0795 111.852 65.9958C111.587 65.8674 111.321 65.7394 111.056 65.6115C110.888 65.5302 110.72 65.4489 110.552 65.3676C110.433 65.3101 110.433 65.3101 110.311 65.2514C109.754 64.9808 109.754 64.9808 109.619 64.8458C108.739 64.7089 108.186 64.9685 107.469 65.4514C107.376 65.5114 107.282 65.5715 107.185 65.6334C106.996 65.7551 106.807 65.8778 106.618 66.0014C106.232 66.255 105.841 66.5011 105.448 66.7458C105.326 66.8237 105.204 66.9016 105.078 66.9819C104.774 67.147 104.774 67.147 104.411 67.147C104.428 66.7407 104.446 66.3345 104.464 65.9283C104.469 65.8141 104.474 65.6998 104.479 65.5822C104.506 64.9655 104.559 64.3664 104.653 63.7557C104.835 62.4562 104.835 62.4562 104.402 61.2582C104.039 60.8018 103.621 60.4029 103.2 60.0011C102.92 59.7242 102.64 59.4462 102.361 59.1677C102.176 58.9836 101.988 58.8009 101.8 58.6199C101.671 58.4954 101.671 58.4954 101.54 58.3684C101.463 58.2949 101.386 58.2213 101.307 58.1455C101.141 57.9421 101.141 57.9421 101.141 57.5788C101.477 57.4668 101.73 57.4303 102.08 57.4056C102.194 57.3967 102.307 57.3878 102.424 57.3787C102.66 57.3609 102.897 57.3439 103.133 57.3276C104.223 57.24 105.208 57.0806 106.05 56.3426C106.443 55.8637 106.635 55.306 106.803 54.7174C107.136 53.5984 107.533 52.5016 107.924 51.4019Z" fill="#F8E482"/>
<path d="M89.3927 28.9956C89.7799 29.1582 89.9536 29.2979 90.1554 29.6651C90.2035 29.7504 90.2516 29.8358 90.3012 29.9238C90.3511 30.0147 90.4011 30.1056 90.4525 30.1992C91.3375 31.8478 91.3375 31.8478 92.6629 33.1136C93.0543 33.1796 93.4388 33.17 93.8348 33.1609C93.9468 33.1602 94.0589 33.1595 94.1743 33.1588C94.531 33.1561 94.8875 33.15 95.2442 33.1438C95.4865 33.1414 95.7288 33.1392 95.9711 33.1372C96.564 33.1319 97.1569 33.1235 97.7497 33.1136C97.5748 33.4715 97.3837 33.7884 97.1517 34.1128C96.7533 34.6764 96.3566 35.2412 95.9633 35.8084C95.9061 35.8899 95.849 35.9715 95.7902 36.0555C95.2572 36.8254 94.8302 37.4737 94.9641 38.4427C95.1872 39.5369 95.5307 40.4796 96.0224 41.4829C96.2196 41.9358 96.2771 42.3122 96.2964 42.8029C95.7162 42.7272 95.1974 42.561 94.6542 42.352C94.4783 42.2861 94.3024 42.2203 94.1264 42.1545C93.8522 42.0511 93.5782 41.9473 93.3045 41.8427C93.0382 41.7412 92.7714 41.6415 92.5044 41.542C92.4236 41.5106 92.3428 41.4792 92.2596 41.4469C91.6203 41.2104 91.0385 41.096 90.3967 41.367C90.2902 41.4337 90.1837 41.5003 90.074 41.569C89.9507 41.645 89.8273 41.7211 89.7002 41.7994C89.378 42.0061 89.0575 42.2155 88.737 42.4249C88.5991 42.5147 88.5991 42.5147 88.4585 42.6064C88.2763 42.7257 88.0946 42.8459 87.9136 42.967C87.8297 43.0224 87.7457 43.0779 87.6592 43.135C87.5848 43.1848 87.5103 43.2346 87.4336 43.2859C87.2 43.4155 86.989 43.4767 86.7282 43.5296C86.7149 42.8065 86.7309 42.0933 86.7887 41.3722C87.0153 39.6326 87.0153 39.6326 86.4537 38.0528C86.119 37.7091 85.7503 37.4189 85.3699 37.1274C84.9993 36.8427 84.6378 36.5516 84.2831 36.2475C84.169 36.1522 84.0549 36.057 83.9373 35.9589C83.7002 35.657 83.7002 35.657 83.7244 35.2568C83.7564 35.149 83.7884 35.0413 83.8214 34.9303C83.9385 34.8996 84.0555 34.8688 84.1762 34.8371C84.5864 34.729 84.9961 34.6192 85.4056 34.5085C85.6045 34.4549 85.8037 34.4023 86.0029 34.3498C86.8981 34.1017 87.507 33.7598 88.0604 32.9924C88.2051 32.6611 88.2051 32.6611 88.3069 32.305C88.3474 32.1747 88.388 32.0444 88.4297 31.9102C88.4905 31.7077 88.4905 31.7077 88.5525 31.5012C88.6344 31.2341 88.7166 30.9671 88.799 30.7002C88.8571 30.5113 88.8571 30.5113 88.9164 30.3186C89.0594 29.8706 89.2215 29.4335 89.3927 28.9956Z" fill="#F8E482"/>
<path d="M79.8245 59.1538C79.9044 59.1538 79.9844 59.1538 80.0667 59.1538C80.2037 59.5952 80.3397 60.0368 80.4755 60.4785C80.5139 60.6023 80.5523 60.726 80.5919 60.8535C80.7624 61.4094 80.9225 61.9546 81.0285 62.5266C81.1427 63.069 81.3626 63.3848 81.7094 63.8168C81.8069 63.9404 81.9045 64.0641 82.0051 64.1915C82.377 64.6399 82.4943 64.6297 83.0833 64.6868C83.231 64.7018 83.3787 64.7167 83.5308 64.732C83.8418 64.7624 84.1528 64.7927 84.4638 64.8229C85.2763 64.9051 86.0568 65.0107 86.8492 65.2096C86.6889 65.6907 86.3823 65.8402 85.9787 66.1104C85.2341 66.6224 84.5485 67.1798 83.8752 67.7821C83.3608 68.2375 83.3608 68.2375 83.0946 68.2375C82.6105 69.324 82.6905 70.411 82.7086 71.5758C82.7104 71.7809 82.712 71.986 82.7135 72.1911C82.7175 72.69 82.7238 73.1889 82.7313 73.6878C82.1592 73.5957 81.8237 73.369 81.3839 73.0065C79.7929 71.7273 79.7929 71.7273 77.8459 71.3359C76.7018 71.4665 75.5927 71.9623 74.5866 72.5056C74.3742 72.5977 74.3742 72.5977 74.0109 72.5977C74.0784 72.3175 74.1465 72.0374 74.2153 71.7575C74.2471 71.6275 74.2471 71.6275 74.2795 71.4948C74.4174 70.9416 74.5738 70.3981 74.7465 69.8548C75.195 68.5744 75.195 68.5744 75.1009 67.2686C74.7464 66.6887 74.2902 66.1846 73.8418 65.6765C73.5493 65.3382 73.2794 64.9848 73.0117 64.6268C72.9236 64.5111 72.8356 64.3954 72.7448 64.2762C72.5575 63.9985 72.5575 63.9985 72.5575 63.7562C72.6386 63.7532 72.7197 63.7502 72.8032 63.747C73.178 63.7328 73.5528 63.718 73.9276 63.7032C74.0551 63.6985 74.1826 63.6937 74.3139 63.6888C75.9965 63.7086 75.9965 63.7086 77.5233 63.1507C77.6505 62.9526 77.7708 62.75 77.8866 62.5451C77.9503 62.4369 78.014 62.3287 78.0797 62.2172C78.3006 61.8396 78.5214 61.4619 78.742 61.0841C78.8192 60.9523 78.8964 60.8204 78.976 60.6846C79.05 60.5577 79.1241 60.4309 79.2004 60.3002C79.2679 60.1848 79.3354 60.0694 79.4049 59.9505C79.5538 59.6883 79.6931 59.4251 79.8245 59.1538Z" fill="#F8E482"/>
</svg>
