<svg width="350" height="350" viewBox="0 0 350 350" fill="none" xmlns="http://www.w3.org/2000/svg">
<path d="M169.371 68.0678C173.751 70.12 176.186 74.702 178.315 78.8254C178.412 79.0127 178.509 79.2 178.61 79.3929C180.67 83.4108 182.71 87.9345 183.51 92.3903C183.72 92.4119 183.931 92.4335 184.148 92.4557C186.87 92.7986 189.333 93.5927 191.908 94.5166C192.748 94.7984 192.748 94.7984 193.611 94.9878C194.257 94.6405 194.819 94.2885 195.415 93.8694C195.779 93.6261 196.143 93.3837 196.508 93.1423C196.792 92.9544 196.792 92.9544 197.08 92.7628C202.222 89.4108 209.535 85.4813 215.834 86.3294C217.299 86.9462 217.848 87.8018 218.501 89.1874C219.828 92.8427 219.082 97.5554 218.63 101.319C218.594 101.625 218.559 101.93 218.522 102.244C218.354 103.562 218.165 104.827 217.771 106.097C217.447 107.177 217.21 108.003 217.277 109.13C218.109 110.35 219.126 111.207 220.249 112.151C221.054 112.875 221.707 113.702 222.364 114.559C222.494 114.728 222.624 114.897 222.757 115.07C229.535 124.025 232.745 134.221 234.793 145.159C235.653 149.723 236.577 153.838 238.923 157.906C239.17 158.349 239.415 158.792 239.66 159.236C240.028 159.902 240.398 160.567 240.771 161.231C244.371 167.647 246.268 174.244 246.229 181.626C246.228 181.837 246.228 182.048 246.227 182.265C246.212 185.384 246.103 188.359 245.273 191.385C245.219 191.587 245.164 191.789 245.109 191.997C241.763 204.092 232.444 213.095 221.831 219.165C220.054 220.165 218.255 221.106 216.412 221.978C218.091 223.244 219.771 224.505 221.48 225.73C224.388 227.842 227.087 230.18 229.688 232.657C229.861 232.821 230.034 232.986 230.212 233.156C234.717 237.477 238.613 242.241 241.232 247.953C245.591 243.574 247.683 238.552 248.773 232.535C249.168 230.436 249.606 228.55 251.226 227.047C252.401 226.274 253.085 226.192 254.509 226.307C257.383 227.119 259.197 229.821 260.624 232.278C265.084 240.295 266.155 249.483 263.744 258.343C263.692 258.538 263.639 258.733 263.585 258.934C261.796 265.343 258.087 270.802 253.643 275.66C253.427 275.897 253.21 276.134 252.988 276.378C245.709 283.982 233.625 290.827 222.953 291.274C222.408 291.264 221.863 291.255 221.318 291.245C221.338 291.509 221.358 291.773 221.379 292.045C221.565 294.623 221.656 297.186 221.665 299.772C221.666 299.961 221.667 300.151 221.668 300.346C221.672 301.348 221.675 302.35 221.676 303.353C221.677 304.166 221.681 304.978 221.688 305.791C221.749 313.562 221.749 313.562 221.241 317.055C221.21 317.273 221.179 317.492 221.147 317.717C220.591 320.957 218.841 324.142 216.292 326.237C210.279 330.333 202.612 331.164 195.541 329.866C190.956 328.759 186.852 326.527 184.303 322.452C182.373 319.007 181.718 315.669 181.778 311.737C181.477 311.787 181.477 311.787 181.17 311.838C180.243 311.992 179.315 312.144 178.387 312.296C178.072 312.349 177.756 312.402 177.432 312.456C173.637 313.073 169.92 313.234 166.083 313.234C165.317 313.234 164.551 313.239 163.785 313.245C158.82 313.261 154.024 312.742 149.164 311.737C149.16 312.02 149.156 312.303 149.152 312.595C149.014 317.333 147.633 321.835 144.348 325.392C139.243 330.124 132.465 330.479 125.88 330.266C123.832 330.143 121.953 329.704 120.014 329.054C119.7 328.949 119.385 328.845 119.061 328.737C115.177 327.28 111.979 324.669 110.22 320.885C108.758 317.176 108.713 313.284 108.72 309.348C108.72 308.988 108.72 308.629 108.719 308.258C108.719 307.499 108.72 306.739 108.721 305.98C108.722 304.848 108.721 303.717 108.719 302.585C108.718 298.84 108.76 295.1 108.885 291.357C108.896 291.025 108.907 290.692 108.918 290.35C109.219 282.218 110.586 274.099 112.222 266.136C112.072 266.194 111.923 266.252 111.769 266.312C106.304 268.424 101.444 269.776 95.7506 267.516C92.3651 265.957 89.6685 263.55 88.1947 260.095C86.5829 255.517 87.4132 251.327 89.3763 247.053C91.8726 241.918 95.5442 237.566 99.5228 233.523C99.8057 233.229 100.088 232.935 100.371 232.641C101.851 231.123 103.385 229.736 105.044 228.417C105.627 227.947 106.198 227.474 106.764 226.985C108.721 225.292 110.732 223.742 112.857 222.266C113.659 221.727 113.659 221.727 114.242 221.112C114.059 221.019 113.876 220.927 113.688 220.831C106.878 217.363 106.878 217.363 104.141 215.34C103.838 215.119 103.535 214.897 103.223 214.669C100.991 213.01 98.9371 211.196 96.9253 209.279C96.6824 209.055 96.4394 208.83 96.1891 208.599C89.2498 201.992 85.3664 193.074 85.011 183.547C84.7862 173.353 88.0354 164.889 93.1306 156.166C95.6829 151.672 96.469 146.556 97.4943 141.555C98.7891 135.275 100.435 129.193 103.563 123.561C103.797 123.121 103.797 123.121 104.036 122.672C105.896 119.303 108.33 116.277 110.815 113.351C110.956 113.184 111.097 113.017 111.243 112.844C111.918 112.062 112.597 111.342 113.39 110.678C114.876 109.476 114.876 109.476 115.477 107.754C115.323 106.747 115.075 105.787 114.819 104.801C113.77 99.3997 112.4 91.4253 115.361 86.4196C116.377 85.3139 117.009 84.9398 118.517 84.742C120.631 84.816 122.658 85.6256 124.632 86.3294C124.908 86.4269 125.183 86.5244 125.467 86.6248C127.483 87.409 129.401 88.4099 131.325 89.3959C131.615 89.5432 131.906 89.6905 132.206 89.8422C133.566 90.5496 134.819 91.2557 136 92.2381C138.001 93.9358 138.001 93.9358 140.505 94.3521C142.414 93.9787 144.202 93.3318 146.02 92.6547C147.248 92.2662 148.46 92.1521 149.742 92.1017C149.776 91.8936 149.81 91.6854 149.845 91.471C150.036 90.6345 150.315 89.9735 150.694 89.2054C150.832 88.9271 150.969 88.6488 151.111 88.3621C151.26 88.0663 151.41 87.7706 151.564 87.4658C151.719 87.1585 151.873 86.8512 152.033 86.5346C162.696 65.657 162.696 65.657 169.371 68.0678Z" fill="#ECECEB"/>
<path d="M169.371 68.0678C173.751 70.12 176.186 74.702 178.315 78.8254C178.412 79.0127 178.509 79.2 178.61 79.3929C180.67 83.4108 182.71 87.9345 183.51 92.3903C183.72 92.4119 183.931 92.4335 184.148 92.4557C186.87 92.7986 189.333 93.5927 191.908 94.5166C192.748 94.7984 192.748 94.7984 193.611 94.9878C194.257 94.6405 194.819 94.2885 195.415 93.8694C195.779 93.6261 196.143 93.3837 196.508 93.1423C196.792 92.9544 196.792 92.9544 197.08 92.7628C202.222 89.4108 209.535 85.4813 215.834 86.3294C217.299 86.9462 217.848 87.8018 218.501 89.1874C219.828 92.8427 219.082 97.5554 218.63 101.319C218.594 101.625 218.559 101.93 218.522 102.244C218.354 103.562 218.165 104.827 217.771 106.097C217.447 107.177 217.21 108.003 217.277 109.13C218.109 110.35 219.126 111.207 220.249 112.151C221.054 112.875 221.707 113.702 222.364 114.559C222.494 114.728 222.624 114.897 222.757 115.07C229.535 124.025 232.745 134.221 234.793 145.159C235.653 149.723 236.577 153.838 238.923 157.906C239.17 158.349 239.415 158.792 239.66 159.236C240.028 159.902 240.398 160.567 240.771 161.231C244.371 167.647 246.268 174.244 246.229 181.626C246.228 181.837 246.228 182.048 246.227 182.265C246.212 185.384 246.103 188.359 245.273 191.385C245.219 191.587 245.164 191.789 245.109 191.997C241.763 204.092 232.444 213.095 221.831 219.165C220.054 220.165 218.255 221.106 216.412 221.978C218.091 223.244 219.771 224.505 221.48 225.73C224.388 227.842 227.087 230.18 229.688 232.657C229.861 232.821 230.034 232.986 230.212 233.156C234.717 237.477 238.613 242.241 241.232 247.953C245.591 243.574 247.683 238.552 248.773 232.535C249.168 230.436 249.606 228.55 251.226 227.047C252.401 226.274 253.085 226.192 254.509 226.307C257.383 227.119 259.197 229.821 260.624 232.278C265.084 240.295 266.155 249.483 263.744 258.343C263.692 258.538 263.639 258.733 263.585 258.934C261.796 265.343 258.087 270.802 253.643 275.66C253.427 275.897 253.21 276.134 252.988 276.378C245.709 283.982 233.625 290.827 222.953 291.274C222.408 291.264 221.863 291.255 221.318 291.245C221.338 291.509 221.358 291.773 221.379 292.045C221.565 294.623 221.656 297.186 221.665 299.772C221.666 299.961 221.667 300.151 221.668 300.346C221.672 301.348 221.675 302.35 221.676 303.353C221.677 304.166 221.681 304.978 221.688 305.791C221.749 313.562 221.749 313.562 221.241 317.055C221.21 317.273 221.179 317.492 221.147 317.717C220.591 320.957 218.841 324.142 216.292 326.237C210.279 330.333 202.612 331.164 195.541 329.866C190.956 328.759 186.852 326.527 184.303 322.452C182.373 319.007 181.718 315.669 181.778 311.737C181.477 311.787 181.477 311.787 181.17 311.838C180.243 311.992 179.315 312.144 178.387 312.296C178.072 312.349 177.756 312.402 177.432 312.456C173.637 313.073 169.92 313.234 166.083 313.234C165.317 313.234 164.551 313.239 163.785 313.245C158.82 313.261 154.024 312.742 149.164 311.737C149.16 312.02 149.156 312.303 149.152 312.595C149.014 317.333 147.633 321.835 144.348 325.392C139.243 330.124 132.465 330.479 125.88 330.266C123.832 330.143 121.953 329.704 120.014 329.054C119.7 328.949 119.385 328.845 119.061 328.737C115.177 327.28 111.979 324.669 110.22 320.885C108.758 317.176 108.713 313.284 108.72 309.348C108.72 308.988 108.72 308.629 108.719 308.258C108.719 307.499 108.72 306.739 108.721 305.98C108.722 304.848 108.721 303.717 108.719 302.585C108.718 298.84 108.76 295.1 108.885 291.357C108.896 291.025 108.907 290.692 108.918 290.35C109.219 282.218 110.586 274.099 112.222 266.136C112.072 266.194 111.923 266.252 111.769 266.312C106.304 268.424 101.444 269.776 95.7506 267.516C92.3651 265.957 89.6685 263.55 88.1947 260.095C86.5829 255.517 87.4132 251.327 89.3763 247.053C91.8726 241.918 95.5442 237.566 99.5228 233.523C99.8057 233.229 100.088 232.935 100.371 232.641C101.851 231.123 103.385 229.736 105.044 228.417C105.627 227.947 106.198 227.474 106.764 226.985C108.721 225.292 110.732 223.742 112.857 222.266C113.659 221.727 113.659 221.727 114.242 221.112C114.059 221.019 113.876 220.927 113.688 220.831C106.878 217.363 106.878 217.363 104.141 215.34C103.838 215.119 103.535 214.897 103.223 214.669C100.991 213.01 98.9371 211.196 96.9253 209.279C96.6824 209.055 96.4394 208.83 96.1891 208.599C89.2498 201.992 85.3664 193.074 85.011 183.547C84.7862 173.353 88.0354 164.889 93.1306 156.166C95.6829 151.672 96.469 146.556 97.4943 141.555C98.7891 135.275 100.435 129.193 103.563 123.561C103.797 123.121 103.797 123.121 104.036 122.672C105.896 119.303 108.33 116.277 110.815 113.351C110.956 113.184 111.097 113.017 111.243 112.844C111.918 112.062 112.597 111.342 113.39 110.678C114.876 109.476 114.876 109.476 115.477 107.754C115.323 106.747 115.075 105.787 114.819 104.801C113.77 99.3997 112.4 91.4253 115.361 86.4196C116.377 85.3139 117.009 84.9398 118.517 84.742C120.631 84.816 122.658 85.6256 124.632 86.3294C124.908 86.4269 125.183 86.5244 125.467 86.6248C127.483 87.409 129.401 88.4099 131.325 89.3959C131.615 89.5432 131.906 89.6905 132.206 89.8422C133.566 90.5496 134.819 91.2557 136 92.2381C138.001 93.9358 138.001 93.9358 140.505 94.3521C142.414 93.9787 144.202 93.3318 146.02 92.6547C147.248 92.2662 148.46 92.1521 149.742 92.1017C149.776 91.8936 149.81 91.6854 149.845 91.471C150.036 90.6345 150.315 89.9735 150.694 89.2054C150.832 88.9271 150.969 88.6488 151.111 88.3621C151.26 88.0663 151.41 87.7706 151.564 87.4658C151.719 87.1585 151.873 86.8512 152.033 86.5346C162.696 65.657 162.696 65.657 169.371 68.0678ZM154.202 97.5624C152.769 98.1927 151.225 98.5241 149.714 98.9222C141.667 101.06 134.1 104.382 127.23 109.13C127.065 109.242 126.901 109.354 126.731 109.47C124.323 111.117 122.059 112.894 119.864 114.817C119.466 115.166 119.064 115.512 118.663 115.857C115.378 118.732 112.835 121.924 110.49 125.581C110.382 125.749 110.274 125.916 110.163 126.089C106.496 131.885 104.97 138.374 103.571 145.004C103.522 145.239 103.472 145.473 103.42 145.715C103.173 146.884 102.928 148.053 102.691 149.224C101.94 152.868 100.797 156.167 98.9997 159.439C98.7458 159.913 98.4921 160.387 98.2387 160.862C98.0521 161.209 98.0521 161.209 97.8618 161.564C93.235 170.207 89.6224 179.832 92.5228 189.709C92.6411 190.076 92.7617 190.442 92.8847 190.808C92.945 190.991 93.0054 191.174 93.0675 191.362C96.6365 201.866 105.751 209.28 115.405 214.086C118.285 215.466 121.267 216.575 124.267 217.665C127.695 218.924 127.695 218.924 128.384 219.958C128.276 221.022 128.276 221.022 128.096 221.978C127.842 222.057 127.589 222.136 127.328 222.218C116.698 225.938 106.468 234.429 99.8115 243.335C99.6852 243.502 99.559 243.668 99.429 243.84C98.0175 245.707 96.7383 247.605 95.6266 249.667C95.5324 249.841 95.4382 250.015 95.3411 250.194C94.1613 252.463 93.5867 254.778 94.2072 257.293C94.9838 259.35 96.5008 260.866 98.4563 261.854C101.511 262.985 104.44 262.226 107.345 260.966C108.629 260.368 109.861 259.7 111.076 258.972C111.589 258.665 112.111 258.374 112.634 258.085C115.782 255.991 116.409 252.487 117.45 249.04C117.893 247.659 118.219 246.745 119.437 245.933C120.696 245.77 121.255 245.791 122.305 246.528C123.06 247.603 122.987 248.098 122.901 249.396C122.729 250.182 122.542 250.936 122.32 251.706C122.26 251.923 122.2 252.14 122.138 252.363C122.009 252.825 121.88 253.287 121.75 253.748C121.408 254.96 121.078 256.175 120.746 257.39C120.681 257.627 120.616 257.865 120.549 258.11C117.958 267.59 116.572 277.483 115.649 287.259C115.616 287.603 115.616 287.603 115.583 287.953C115.142 292.959 115.054 297.97 115.055 302.992C115.054 304.019 115.049 305.046 115.043 306.073C114.723 313.939 114.723 313.939 117.783 320.875C121.12 323.458 124.851 323.674 128.907 323.678C129.276 323.686 129.644 323.693 130.024 323.7C133.507 323.711 136.971 323.078 139.64 320.684C142.514 317.675 142.679 312.824 143.067 308.898C143.355 306.19 143.355 306.19 144.258 305.099C146.226 304.115 149.118 305.085 151.149 305.496C161.485 307.477 172.421 307.565 182.678 304.943C183.805 304.668 184.96 304.671 186.107 304.81C187.076 305.472 187.327 306.004 187.55 307.119C187.601 307.62 187.641 308.123 187.674 308.625C188.025 315.484 188.025 315.484 191.681 321.063C194.754 323.496 198.464 323.671 202.233 323.66C202.577 323.665 202.92 323.67 203.274 323.675C207.076 323.677 210.255 323.032 213.038 320.323C215.578 316.185 215.346 311.436 215.311 306.758C215.308 306.183 215.306 305.608 215.303 305.033C215.294 303.419 215.277 301.806 215.257 300.192C215.253 299.829 215.249 299.465 215.245 299.09C215.013 283.545 212.521 267.597 208.457 252.61C207.955 250.716 207.571 249.049 207.753 247.087C208.488 246.202 208.933 245.977 210.062 245.789C211.164 245.972 211.574 246.308 212.371 247.087C212.762 248.021 212.762 248.021 213.064 249.119C213.182 249.522 213.301 249.925 213.421 250.327C213.482 250.535 213.543 250.743 213.605 250.958C214.834 255.404 214.834 255.404 218.024 258.505C218.536 258.758 219.061 258.984 219.586 259.209C219.94 259.397 220.291 259.589 220.64 259.784C223.86 261.554 227.161 262.803 230.851 261.876C232.923 261.171 234.285 260.428 235.406 258.506C236.526 256.08 236.333 253.728 235.442 251.254C233.365 246.42 230.124 242.481 226.513 238.718C226.344 238.539 226.175 238.361 226.001 238.177C220.22 232.099 213.48 227.823 206.07 223.995C205.735 223.82 205.4 223.645 205.055 223.465C204.604 223.233 204.604 223.233 204.144 222.996C203.424 222.555 203.424 222.555 202.847 221.689C202.738 220.824 202.738 220.824 202.847 219.958C203.854 218.907 205.26 218.685 206.617 218.316C218.892 214.789 230.23 207.11 236.539 195.829C237.589 193.856 238.314 191.798 238.923 189.653C239.021 189.311 239.119 188.969 239.22 188.616C241.655 178.472 237.691 168.954 232.665 160.323C232.538 160.102 232.411 159.881 232.28 159.653C232.044 159.245 231.805 158.839 231.56 158.437C229.087 154.166 228.518 149.012 227.674 144.236C225.852 133.994 222.272 125.056 214.969 117.5C214.737 117.254 214.506 117.008 214.268 116.755C212.353 114.764 210.252 113.085 208.042 111.439C207.763 111.23 207.763 111.23 207.479 111.017C199.225 104.873 189.973 100.64 179.944 98.3308C178.397 97.9612 178.397 97.9612 177.905 97.4389C176.971 96.5568 175.484 96.6544 174.256 96.5211C173.767 96.4666 173.767 96.4666 173.267 96.411C170.452 96.1309 167.65 96.0566 164.822 96.0521C164.618 96.0511 164.413 96.0501 164.203 96.049C159.051 96.0275 159.051 96.0275 154.202 97.5624Z" fill="black"/>
<path d="M179.204 236.155C179.892 236.701 180.548 237.265 181.2 237.852C181.483 238.077 181.765 238.303 182.056 238.535C184.725 240.755 186.547 244.05 188.127 247.087C188.223 247.269 188.319 247.45 188.418 247.637C191.579 253.685 193.35 260.474 193.611 267.29C193.62 267.486 193.63 267.681 193.639 267.882C194.004 276.182 191.811 283.794 186.322 290.135C182.469 294.131 177.581 296.3 172.253 297.595C171.835 297.702 171.835 297.702 171.408 297.81C163.995 299.368 155.555 297.847 149.164 293.843C148.145 293.13 147.205 292.363 146.278 291.534C146.038 291.321 145.797 291.108 145.55 290.888C140.298 285.951 137.531 278.557 137.248 271.431C136.995 260.063 140.626 247.796 148.519 239.373C156.767 230.996 169.392 229.402 179.204 236.155Z" fill="#F2D3A3"/>
<path d="M179.204 236.155C179.892 236.701 180.548 237.265 181.2 237.852C181.483 238.077 181.765 238.303 182.056 238.535C184.725 240.755 186.547 244.05 188.127 247.087C188.223 247.269 188.319 247.45 188.418 247.637C191.579 253.685 193.35 260.474 193.611 267.29C193.62 267.486 193.63 267.681 193.639 267.882C194.004 276.182 191.811 283.794 186.322 290.135C182.469 294.131 177.581 296.3 172.253 297.595C171.835 297.702 171.835 297.702 171.408 297.81C163.995 299.368 155.555 297.847 149.164 293.843C148.145 293.13 147.205 292.363 146.278 291.534C146.038 291.321 145.797 291.108 145.55 290.888C140.298 285.951 137.531 278.557 137.248 271.431C136.995 260.063 140.626 247.796 148.519 239.373C156.767 230.996 169.392 229.402 179.204 236.155ZM152.159 245.103C145.984 253.042 143.084 263.467 144.033 273.45C144.71 278.531 146.983 283.589 150.986 286.889C156.622 291.008 163.554 292.418 170.422 291.357C175.422 290.396 180.169 287.801 183.256 283.704C187.45 277.295 187.907 269.244 186.513 261.856C186.388 261.26 186.251 260.668 186.107 260.075C186.059 259.874 186.011 259.674 185.961 259.467C184.483 253.493 181.819 247.729 177.448 243.335C177.278 243.155 177.108 242.975 176.933 242.79C173.683 239.618 169.322 238.319 164.899 238.321C159.769 238.454 155.421 241.283 152.159 245.103Z" fill="black"/>
<path d="M254.797 235.543C254.988 235.543 255.178 235.543 255.375 235.543C255.703 236.444 256.026 237.346 256.349 238.249C256.44 238.5 256.532 238.751 256.626 239.01C259.188 246.216 258.608 254.505 255.41 261.422C254.955 262.343 254.456 263.233 253.931 264.116C253.75 264.423 253.569 264.73 253.382 265.046C247.261 274.747 236.462 281.241 225.461 283.82C225.142 283.89 224.822 283.959 224.493 284.03C224.143 284.116 224.143 284.116 223.786 284.204C222.763 284.364 221.776 284.336 220.741 284.319C220.112 280.984 219.616 277.638 219.151 274.276C218.843 272.086 218.476 269.931 217.975 267.778C217.857 267.015 217.889 266.567 218.143 265.847C218.35 265.942 218.556 266.036 218.769 266.133C221.995 267.547 224.927 268.228 228.443 268.265C228.693 268.269 228.944 268.273 229.201 268.277C233.157 268.248 236.339 266.539 239.201 263.885C241.049 261.892 242.121 259.422 242.549 256.756C243.103 255.407 243.971 254.766 245.067 253.83C250.386 249.2 253.762 242.462 254.797 235.543Z" fill="#3A9592"/>
<path d="M123.117 164.039C126.261 166.155 128.089 169.235 128.961 172.914C129.345 177.217 128.451 180.702 125.786 184.17C123.89 186.347 120.585 188.287 117.676 188.554C113.701 188.697 110.589 188.414 107.315 185.901C107.082 185.746 107.082 185.746 106.845 185.587C105.585 184.66 104.823 183.51 104.05 182.167C103.953 181.998 103.855 181.83 103.755 181.656C102.089 178.628 101.932 175.031 102.597 171.673C103.922 167.738 106.318 164.983 109.985 163.137C114.403 160.986 118.974 161.589 123.117 164.039Z" fill="#F4A99C"/>
<path d="M223.519 164.342C226.274 166.313 228.121 169.219 229.025 172.494C229.531 176.679 228.818 180.478 226.225 183.881C223.817 186.529 220.722 188.254 217.121 188.596C213.427 188.635 210.701 187.834 207.753 185.613C207.378 185.363 207.378 185.363 206.996 185.108C204.517 182.76 203.082 179.575 202.778 176.188C202.676 172.268 203.993 168.656 206.671 165.77C207.862 164.658 209.194 163.844 210.639 163.101C210.831 163.002 211.022 162.903 211.219 162.801C215.136 161.157 220.077 162.121 223.519 164.342Z" fill="#F4A99C"/>
<path d="M138.197 184.458C139.146 185.207 139.765 186.237 140.437 187.227C144.528 193.135 151.253 195.878 158.112 197.157C167.452 198.767 178.228 197.912 186.223 192.463C187.078 191.842 187.896 191.198 188.705 190.519C188.896 190.36 189.088 190.201 189.285 190.038C190.686 188.763 191.564 187.186 192.487 185.553C193.03 184.753 193.286 184.463 194.188 184.17C195.172 184.065 195.781 184.111 196.696 184.494C197.557 185.193 197.872 185.715 198.229 186.767C198.279 189.778 196.295 192.028 194.323 194.126C186.983 201.582 176.997 204.557 166.68 204.715C155.58 204.679 145.423 201.789 137.259 194.019C135.298 192.02 133.45 189.697 133.477 186.787C133.662 185.71 134.242 185.202 135.023 184.458C136.147 184.083 137.082 184.087 138.197 184.458Z" fill="black"/>
<path d="M167.635 76.5165C171.497 78.3171 173.651 85.8921 175.011 89.6118C175.892 92.0545 176.774 94.499 177.448 97.0081C175.927 97.0349 174.52 96.9399 173.011 96.7195C170.347 96.3835 167.682 96.3651 165.002 96.3587C164.796 96.3573 164.59 96.3558 164.378 96.3543C161.38 96.3371 158.479 96.5707 155.514 97.0081C155.742 95.7287 156.185 94.6764 156.776 93.5267C156.878 93.3268 156.98 93.1269 157.085 92.9209C157.424 92.2613 157.767 91.604 158.111 90.9472C158.228 90.7224 158.345 90.4976 158.466 90.266C159.965 87.4044 161.578 84.6412 163.36 81.946C163.521 81.7012 163.682 81.4563 163.848 81.204C164.984 79.5176 166.251 78.0047 167.635 76.5165Z" fill="#3A9592"/>
<path d="M204.921 146.523C206.798 147.594 207.974 149.233 208.707 151.247C209.297 153.851 209.314 156.891 208.136 159.325C207.029 161.062 205.712 162.216 203.712 162.812C201.885 163.015 200.602 162.731 199.095 161.658C197.174 159.922 196.136 157.846 195.851 155.263C195.765 152.554 196.424 150.162 198.193 148.075C200.139 146.096 202.3 145.361 204.921 146.523Z" fill="black"/>
<path d="M132.194 146.318C134.288 147.491 135.668 149.417 136.33 151.706C136.904 154.74 136.408 157.553 134.806 160.179C133.996 161.292 133.207 162.153 131.848 162.524C129.79 162.797 127.971 162.803 126.263 161.53C124.153 159.536 123.505 157.233 123.388 154.388C123.414 151.927 124.286 149.273 126.075 147.516C127.912 146.084 129.951 145.45 132.194 146.318Z" fill="black"/>
<path d="M212.371 93.5447C212.519 96.183 212.308 98.6313 211.83 101.229C211.78 101.503 211.73 101.776 211.678 102.058C211.435 103.316 211.187 104.498 210.64 105.667C208.633 104.407 206.653 103.115 204.692 101.786C203.527 101.002 202.341 100.289 201.115 99.6056C202.116 98.4774 203.27 97.7901 204.561 97.0442C204.885 96.855 204.885 96.855 205.216 96.6621C210.641 93.5447 210.641 93.5447 212.371 93.5447Z" fill="#3A9592"/>
<path d="M121.169 92.9675C122.934 93.5034 124.544 94.1639 126.165 95.0419C126.48 95.2102 126.48 95.2102 126.801 95.3818C128.658 96.3904 130.41 97.5194 132.136 98.7398C131.005 99.708 129.831 100.402 128.528 101.103C126.603 102.157 124.814 103.324 123.038 104.612C122.323 105.089 122.323 105.089 121.746 105.089C120.992 101.071 121.111 97.0409 121.169 92.9675Z" fill="#3A9592"/>
<path d="M152.916 171.182C154.535 171.924 155.802 172.897 156.498 174.564C156.83 175.848 156.877 177.089 156.668 178.397C156.148 179.264 155.83 179.682 154.937 180.129C153.472 180.369 152.337 180.269 151.094 179.425C149.738 178.275 149.072 176.921 148.767 175.181C148.678 173.718 149.111 172.862 150.03 171.759C151.14 171.019 151.595 171.011 152.916 171.182Z" fill="black"/>
<path d="M181.489 171.182C182.334 171.706 183.058 172.299 183.509 173.202C183.737 175.137 183.637 176.608 182.48 178.208C181.332 179.534 180.388 180.078 178.639 180.219C177.699 180.209 177.443 180.125 176.601 179.606C175.626 178.572 175.616 177.561 175.638 176.206C175.859 174.257 176.931 173.002 178.405 171.796C179.404 171.127 180.32 171.044 181.489 171.182Z" fill="black"/>
<path d="M133.168 134.324C133.833 134.803 134.146 135.398 134.482 136.123C134.547 136.259 134.547 136.259 134.612 136.397C134.752 136.693 134.89 136.989 135.028 137.285C135.125 137.492 135.222 137.698 135.319 137.904C136.006 139.371 136.676 140.846 137.332 142.329C137.428 142.524 137.428 142.524 137.527 142.723C137.706 143.114 137.784 143.494 137.866 143.916C138.078 144.787 138.334 145.495 139.039 146.08C140.591 146.806 142.546 146.819 144.225 146.97C145.006 147.044 145.785 147.135 146.564 147.225C147.17 147.294 147.776 147.36 148.383 147.418C148.551 147.435 148.551 147.435 148.722 147.452C148.929 147.473 149.136 147.492 149.343 147.509C150.165 147.594 150.898 147.832 151.452 148.473C151.811 148.981 151.981 149.311 151.99 149.939C151.993 150.046 151.997 150.152 152 150.262C151.829 151.395 151.028 152.085 150.247 152.848C150.126 152.968 150.006 153.087 149.885 153.207C149.57 153.521 149.252 153.834 148.935 154.146C148.427 154.645 147.922 155.146 147.417 155.647C147.242 155.82 147.066 155.993 146.891 156.165C146.343 156.706 145.81 157.251 145.312 157.838C144.998 158.203 144.659 158.543 144.319 158.883C144.251 158.953 144.183 159.023 144.112 159.095C143.94 159.269 143.76 159.436 143.58 159.601C143.501 159.601 143.422 159.601 143.341 159.601C143.608 161.546 143.917 163.483 144.237 165.419C144.397 166.387 144.556 167.355 144.714 168.323C144.771 168.673 144.83 169.023 144.888 169.372C144.921 169.574 144.955 169.775 144.988 169.977C145.003 170.064 145.018 170.152 145.033 170.243C145.195 171.238 145.236 172.133 144.655 173.003C144.002 173.621 143.446 173.917 142.545 173.901C141.697 173.772 140.972 173.297 140.234 172.883C139.994 172.751 139.755 172.619 139.515 172.487C138.97 172.186 138.426 171.883 137.883 171.578C137.283 171.242 136.682 170.908 136.079 170.576C136.002 170.533 135.926 170.491 135.846 170.447C135.547 170.282 135.247 170.117 134.947 169.952C134.74 169.839 134.533 169.725 134.327 169.611C134.196 169.54 134.065 169.468 133.93 169.394C133.665 169.244 133.404 169.086 133.147 168.923C133.022 168.844 132.897 168.765 132.768 168.684C132.658 168.611 132.548 168.539 132.435 168.464C132.109 168.302 132.109 168.302 131.754 168.41C131.381 168.58 131.022 168.76 130.664 168.959C130.595 168.996 130.527 169.034 130.457 169.073C130.235 169.195 130.014 169.319 129.793 169.443C129.637 169.529 129.481 169.616 129.325 169.703C128.247 170.303 127.18 170.92 126.117 171.545C125.22 172.072 124.319 172.589 123.414 173.1C123.287 173.172 123.159 173.245 123.028 173.319C122.91 173.386 122.791 173.452 122.669 173.521C122.565 173.58 122.46 173.639 122.353 173.699C121.767 173.991 121.161 174.053 120.516 173.96C119.842 173.68 119.382 173.229 118.963 172.644C118.551 171.407 118.937 169.942 119.149 168.686C119.18 168.492 119.212 168.297 119.243 168.103C119.326 167.596 119.41 167.088 119.494 166.581C119.628 165.771 119.761 164.961 119.893 164.151C119.939 163.872 119.985 163.593 120.032 163.314C120.103 162.882 120.171 162.449 120.236 162.016C120.265 161.837 120.294 161.657 120.325 161.479C120.373 161.204 120.416 160.93 120.458 160.654C120.473 160.572 120.489 160.489 120.505 160.405C120.553 160.066 120.564 159.803 120.39 159.502C120.123 159.174 119.829 158.907 119.498 158.644C119.4 158.565 119.302 158.486 119.202 158.405C119.202 158.326 119.202 158.247 119.202 158.165C119.123 158.165 119.044 158.165 118.963 158.165C118.792 157.992 118.792 157.992 118.593 157.751C118.124 157.199 117.621 156.689 117.107 156.18C116.964 156.038 116.964 156.038 116.819 155.893C116.518 155.593 116.217 155.294 115.916 154.994C115.518 154.6 115.121 154.205 114.724 153.809C114.634 153.72 114.545 153.631 114.452 153.54C113.899 152.988 113.376 152.418 112.868 151.824C112.782 151.726 112.782 151.726 112.693 151.627C112.18 151.038 111.978 150.588 112.002 149.795C112.091 149.065 112.48 148.503 112.988 147.995C113.579 147.698 114.133 147.558 114.79 147.473C114.883 147.46 114.977 147.447 115.074 147.433C115.277 147.405 115.481 147.377 115.685 147.35C116.011 147.306 116.337 147.259 116.663 147.211C117.799 147.047 118.934 146.904 120.077 146.8C120.632 146.748 121.185 146.689 121.738 146.629C122.007 146.602 122.277 146.579 122.547 146.56C123.95 146.511 123.95 146.511 125.136 145.875C125.471 145.358 125.644 144.795 125.809 144.206C125.935 143.789 126.121 143.41 126.314 143.02C126.383 142.874 126.452 142.728 126.52 142.581C126.554 142.508 126.589 142.435 126.624 142.359C126.932 141.7 127.233 141.038 127.536 140.377C127.617 140.198 127.699 140.018 127.782 139.839C128.209 138.906 128.634 137.973 129.033 137.027C129.092 136.89 129.15 136.753 129.21 136.612C129.316 136.361 129.421 136.109 129.524 135.856C129.89 134.99 130.243 134.603 131.062 134.13C131.793 133.91 132.488 133.966 133.168 134.324Z" fill="#010100"/>
<path d="M131.825 140.316C132.214 140.511 132.306 140.953 132.473 141.339C132.566 141.551 132.659 141.764 132.753 141.976C132.807 142.099 132.861 142.221 132.917 142.348C133.264 143.126 133.619 143.899 133.973 144.673C134.141 145.04 134.309 145.407 134.476 145.774C134.558 145.951 134.639 146.128 134.722 146.306C134.929 146.753 135.13 147.201 135.322 147.655C135.361 147.745 135.4 147.835 135.441 147.928C135.514 148.097 135.586 148.267 135.654 148.438C135.936 149.074 136.316 149.394 136.949 149.673C137.271 149.77 137.588 149.818 137.922 149.858C138.016 149.871 138.11 149.884 138.206 149.898C138.413 149.926 138.62 149.953 138.827 149.98C139.181 150.026 139.535 150.075 139.888 150.125C140.67 150.235 141.452 150.341 142.234 150.447C142.637 150.502 143.039 150.557 143.442 150.612C143.69 150.646 143.939 150.68 144.187 150.713C144.298 150.728 144.41 150.744 144.525 150.759C144.623 150.772 144.72 150.786 144.821 150.799C145.111 150.844 145.397 150.899 145.684 150.959C145.125 151.642 144.513 152.263 143.887 152.883C143.703 153.065 143.519 153.247 143.336 153.43C142.815 153.949 142.294 154.468 141.771 154.985C141.45 155.303 141.13 155.622 140.811 155.941C140.689 156.062 140.568 156.183 140.446 156.303C140.275 156.471 140.106 156.64 139.937 156.81C139.84 156.905 139.744 157.001 139.644 157.1C139.008 157.844 138.962 158.511 139.021 159.457C139.116 160.521 139.313 161.574 139.49 162.626C139.532 162.882 139.574 163.139 139.615 163.395C139.716 164.009 139.817 164.623 139.92 165.236C139.992 165.668 140.064 166.101 140.136 166.533C140.199 166.917 140.263 167.301 140.327 167.684C139.901 167.55 139.517 167.407 139.131 167.182C139.039 167.129 138.946 167.075 138.851 167.02C138.752 166.962 138.653 166.903 138.551 166.844C138.446 166.783 138.341 166.722 138.233 166.659C138.004 166.526 137.776 166.393 137.548 166.26C137.165 166.037 136.781 165.815 136.397 165.593C135.887 165.298 135.377 165.002 134.867 164.707C134.75 164.639 134.633 164.571 134.513 164.501C134.263 164.356 134.014 164.209 133.765 164.062C133.64 163.988 133.515 163.914 133.387 163.838C133.274 163.771 133.162 163.704 133.046 163.635C132.493 163.327 131.978 163.242 131.359 163.357C130.839 163.58 130.357 163.856 129.869 164.142C129.602 164.299 129.332 164.452 129.062 164.605C128.227 165.08 127.395 165.562 126.565 166.047C126.29 166.207 126.014 166.368 125.739 166.528C125.54 166.644 125.341 166.761 125.142 166.877C124.959 166.984 124.959 166.984 124.772 167.093C124.664 167.156 124.555 167.22 124.444 167.285C124.154 167.442 123.865 167.568 123.556 167.684C123.616 167.26 123.677 166.836 123.738 166.412C123.758 166.276 123.778 166.139 123.798 165.998C123.932 165.087 124.079 164.18 124.234 163.272C124.253 163.164 124.271 163.056 124.29 162.945C124.382 162.404 124.476 161.864 124.571 161.324C124.995 159.378 124.995 159.378 124.554 157.514C124.131 156.959 123.621 156.484 123.119 156.003C122.894 155.785 122.669 155.566 122.444 155.346C122.295 155.202 122.295 155.202 122.143 155.056C121.926 154.819 121.926 154.819 121.926 154.585C121.851 154.553 121.777 154.522 121.7 154.49C121.46 154.351 121.46 154.351 121.343 154C121.267 154 121.19 154 121.111 154C120.946 153.832 120.946 153.832 120.753 153.598C120.282 153.041 119.773 152.531 119.254 152.019C119.076 151.843 118.898 151.666 118.72 151.489C118.603 151.374 118.603 151.374 118.484 151.257C118.315 151.076 118.315 151.076 118.315 150.959C118.849 150.873 119.383 150.788 119.917 150.703C119.999 150.69 120.08 150.677 120.165 150.664C121.171 150.504 122.177 150.353 123.186 150.218C123.327 150.199 123.327 150.199 123.471 150.179C123.927 150.118 124.384 150.057 124.841 149.999C126.483 149.81 126.483 149.81 127.865 148.971C128.021 148.703 128.152 148.452 128.277 148.17C128.313 148.092 128.349 148.013 128.387 147.932C128.506 147.674 128.622 147.416 128.739 147.158C128.821 146.979 128.903 146.8 128.985 146.621C129.153 146.256 129.32 145.891 129.486 145.526C129.71 145.033 129.938 144.542 130.167 144.052C130.3 143.767 130.433 143.481 130.566 143.196C130.656 143.003 130.656 143.003 130.748 142.806C131.128 141.984 131.484 141.155 131.825 140.316Z" fill="#FFBB4D"/>
<path d="M205.502 134.509C206.187 135.169 206.499 136.055 206.873 136.914C206.946 137.08 207.02 137.247 207.094 137.413C207.245 137.756 207.396 138.098 207.547 138.441C207.876 139.192 208.209 139.94 208.542 140.688C208.604 140.828 208.666 140.967 208.729 141.111C209.075 141.886 209.426 142.658 209.785 143.427C209.843 143.552 209.843 143.552 209.902 143.679C210.091 144.083 210.28 144.487 210.471 144.891C210.539 145.036 210.607 145.181 210.675 145.326C210.765 145.517 210.765 145.517 210.857 145.711C210.985 146.013 210.985 146.013 210.985 146.253C211.099 146.259 211.212 146.264 211.329 146.27C212.56 146.337 213.775 146.468 214.997 146.63C215.192 146.655 215.387 146.681 215.583 146.706C215.988 146.76 216.393 146.813 216.798 146.867C217.314 146.936 217.83 147.003 218.347 147.069C218.748 147.121 219.15 147.174 219.551 147.228C219.742 147.253 219.932 147.278 220.122 147.302C222.657 147.625 222.657 147.625 223.502 148.65C223.901 149.266 224.061 149.705 223.979 150.447C223.718 151.601 222.727 152.367 221.915 153.151C221.697 153.364 221.479 153.578 221.262 153.792C221.127 153.924 220.992 154.056 220.857 154.187C220.513 154.521 220.19 154.864 219.879 155.23C219.442 155.739 218.965 156.195 218.477 156.654C218.294 156.83 218.112 157.006 217.929 157.182C217.646 157.456 217.361 157.728 217.073 157.997C215.989 158.938 215.989 158.938 215.284 160.148C215.309 160.535 215.405 160.86 215.515 161.232C215.57 161.536 215.616 161.841 215.662 162.147C215.716 162.5 215.775 162.851 215.835 163.203C215.965 163.967 216.094 164.732 216.221 165.497C216.243 165.624 216.264 165.752 216.286 165.883C216.458 166.914 216.628 167.945 216.788 168.978C216.825 169.214 216.863 169.451 216.901 169.687C217.283 172.185 217.283 172.185 216.819 173.043C216.395 173.602 215.979 173.876 215.295 173.992C214.16 174.065 213.366 173.648 212.416 173.095C212.213 172.98 212.009 172.866 211.805 172.752C211.341 172.49 210.877 172.226 210.414 171.961C209.544 171.462 208.671 170.971 207.795 170.483C207.183 170.139 206.575 169.79 205.975 169.426C205.804 169.324 205.804 169.324 205.63 169.219C205.416 169.09 205.203 168.96 204.992 168.827C204.897 168.77 204.802 168.713 204.703 168.654C204.621 168.603 204.539 168.552 204.454 168.5C203.877 168.329 203.307 168.734 202.807 169.005C202.681 169.074 202.555 169.142 202.425 169.212C202.292 169.285 202.16 169.358 202.023 169.433C201.885 169.508 201.748 169.583 201.606 169.66C200.588 170.215 199.584 170.792 198.584 171.38C198.117 171.655 197.645 171.918 197.168 172.176C196.848 172.35 196.53 172.526 196.212 172.704C196.105 172.763 195.999 172.822 195.889 172.884C195.676 173.003 195.462 173.122 195.249 173.241C195.15 173.296 195.051 173.351 194.949 173.408C194.861 173.457 194.773 173.507 194.681 173.558C193.916 173.952 193.203 174.102 192.359 173.856C191.753 173.587 191.392 173.199 191.078 172.616C190.642 171.3 191.108 169.679 191.324 168.347C191.361 168.11 191.399 167.874 191.436 167.637C191.629 166.415 191.831 165.194 192.039 163.974C192.058 163.858 192.078 163.743 192.098 163.623C192.192 163.069 192.286 162.515 192.384 161.962C192.418 161.762 192.452 161.563 192.486 161.363C192.502 161.273 192.518 161.183 192.535 161.091C192.615 160.618 192.645 160.253 192.508 159.794C192.318 159.518 192.318 159.518 192.063 159.256C191.965 159.152 191.868 159.047 191.768 158.939C191.21 158.362 190.647 157.792 190.078 157.226C189.856 157.004 189.634 156.783 189.412 156.561C188.782 155.93 188.152 155.301 187.521 154.672C187.133 154.285 186.745 153.897 186.358 153.509C186.211 153.362 186.064 153.216 185.917 153.07C185.711 152.865 185.506 152.66 185.302 152.455C185.241 152.395 185.181 152.336 185.119 152.275C184.491 151.642 184.037 151.042 184 150.132C184.009 149.453 184.204 148.93 184.641 148.41C185.189 147.934 185.654 147.724 186.381 147.615C186.468 147.602 186.555 147.588 186.644 147.574C186.93 147.53 187.216 147.49 187.502 147.451C187.6 147.437 187.698 147.423 187.8 147.409C188.438 147.319 189.077 147.235 189.716 147.152C190.066 147.106 190.415 147.056 190.765 147.007C191.865 146.852 192.952 146.717 194.062 146.67C195.769 146.628 195.769 146.628 197.211 145.842C197.694 145.125 197.972 144.335 198.228 143.514C198.496 142.655 198.871 141.855 199.253 141.043C199.447 140.63 199.634 140.213 199.821 139.797C199.857 139.716 199.894 139.635 199.931 139.551C200.18 138.998 200.425 138.443 200.667 137.887C200.7 137.813 200.732 137.739 200.765 137.662C200.917 137.316 201.068 136.969 201.217 136.621C202.09 134.62 202.09 134.62 203.118 134.15C203.94 133.84 204.788 134.035 205.502 134.509Z" fill="#010100"/>
<path d="M204 140C204.403 140.33 204.576 140.778 204.784 141.242C204.825 141.33 204.865 141.419 204.907 141.51C205.039 141.8 205.17 142.09 205.301 142.381C205.392 142.581 205.484 142.782 205.575 142.982C206.011 143.944 206.44 144.908 206.856 145.878C206.892 145.961 206.927 146.043 206.964 146.129C207.13 146.516 207.294 146.904 207.457 147.292C207.944 148.602 207.944 148.602 209 149.409C209.546 149.584 210.114 149.648 210.68 149.726C210.817 149.746 210.954 149.766 211.095 149.787C211.532 149.85 211.969 149.912 212.406 149.974C212.837 150.036 213.267 150.099 213.698 150.161C213.978 150.201 214.258 150.242 214.538 150.282C215.694 150.448 216.847 150.628 218 150.815C217.55 151.355 217.087 151.869 216.587 152.362C216.524 152.425 216.46 152.489 216.395 152.554C216.128 152.82 215.86 153.085 215.592 153.351C214.92 154.019 214.255 154.684 213.641 155.408C213.243 155.862 212.8 156.274 212.364 156.69C211.676 157.364 211.324 158.009 211.285 158.985C211.288 159.588 211.396 160.174 211.496 160.766C211.516 160.891 211.537 161.016 211.558 161.144C211.623 161.542 211.689 161.939 211.755 162.337C211.798 162.599 211.842 162.862 211.885 163.125C212.119 164.553 212.119 164.553 212.368 165.979C212.385 166.073 212.402 166.167 212.419 166.264C212.464 166.509 212.509 166.754 212.554 167C212.607 167.342 212.628 167.655 212.615 168C212.21 167.845 211.835 167.669 211.458 167.454C211.35 167.393 211.243 167.331 211.132 167.268C211.017 167.203 210.902 167.137 210.783 167.069C210.663 167 210.543 166.932 210.419 166.861C209.296 166.219 208.18 165.566 207.065 164.91C206.956 164.846 206.847 164.782 206.735 164.717C206.491 164.573 206.249 164.428 206.006 164.283C205.879 164.207 205.752 164.13 205.621 164.052C205.505 163.983 205.39 163.913 205.271 163.842C204.711 163.542 204.151 163.468 203.521 163.554C203.153 163.686 202.822 163.87 202.482 164.064C202.384 164.118 202.285 164.172 202.184 164.228C201.871 164.402 201.559 164.578 201.248 164.755C201.149 164.811 201.05 164.867 200.948 164.925C199.997 165.462 199.053 166.011 198.11 166.563C197.823 166.731 197.536 166.898 197.249 167.065C197.04 167.187 196.832 167.31 196.623 167.432C196.497 167.506 196.37 167.58 196.24 167.656C196.126 167.723 196.013 167.789 195.897 167.857C195.624 168 195.624 168 195.385 168C195.585 166.465 195.832 164.942 196.103 163.418C196.134 163.24 196.166 163.061 196.197 162.883C196.44 161.512 196.44 161.512 196.531 161.001C196.587 160.688 196.64 160.375 196.693 160.061C196.709 159.977 196.724 159.893 196.74 159.806C196.906 158.793 196.804 158.094 196.224 157.253C195.737 156.629 195.167 156.083 194.604 155.528C194.471 155.396 194.338 155.263 194.205 155.13C193.857 154.783 193.509 154.437 193.16 154.092C192.599 153.536 192.04 152.978 191.481 152.42C191.285 152.226 191.09 152.032 190.894 151.838C190.775 151.72 190.656 151.602 190.538 151.484C190.434 151.38 190.33 151.277 190.222 151.171C190 150.936 190 150.936 190 150.815C190.404 150.749 190.808 150.684 191.212 150.62C191.344 150.599 191.477 150.578 191.613 150.556C192.577 150.407 193.542 150.279 194.51 150.159C194.757 150.128 195.004 150.097 195.252 150.067C195.624 150.02 195.996 149.975 196.368 149.931C196.721 149.889 197.074 149.846 197.427 149.802C197.533 149.79 197.638 149.778 197.747 149.766C198.522 149.666 199.194 149.463 199.793 148.941C200.37 148.134 200.747 147.229 201.143 146.324C201.222 146.148 201.3 145.971 201.379 145.795C201.498 145.526 201.618 145.258 201.737 144.989C202.112 144.144 202.498 143.303 202.886 142.464C203.264 141.645 203.638 140.826 204 140Z" fill="#FFBB4D"/>
<path d="M172.4 44.007C172.483 44.0048 172.566 44.0025 172.651 44.0002C173.443 43.994 174.143 44.166 174.728 44.7247C175.209 45.3 175.422 46.0217 175.427 46.7624C175.428 46.8404 175.428 46.8404 175.428 46.92C175.429 47.0875 175.429 47.255 175.428 47.4225C175.428 47.4801 175.428 47.5376 175.427 47.5969C175.423 48.4962 175.366 49.3532 175.171 50.2324C175.146 50.3526 175.146 50.3526 175.119 50.4751C174.96 51.2229 174.8 51.9711 174.607 52.7111C174.264 54.0367 174.384 55.2481 174.774 56.5499C174.797 56.6284 174.821 56.707 174.845 56.788C174.926 57.0579 175.01 57.3272 175.094 57.5963C175.117 57.6697 175.117 57.6697 175.14 57.7446C175.729 59.6265 176.429 61.4585 177.157 63.2904C177.577 64.3483 177.983 65.4116 178.39 66.4748C178.522 66.8207 178.656 67.1657 178.792 67.5103C179.851 70.2209 180.751 73.0005 181.601 75.7831C181.682 76.0425 181.765 76.3007 181.851 76.5586C182.556 78.6931 183.155 80.864 183.686 83.048C183.758 83.345 183.839 83.6386 183.925 83.9319C184.081 84.4607 184.211 84.9953 184.342 85.5306C184.556 86.3976 184.792 87.2552 185.048 88.1107C185.174 88.5309 185.289 88.9536 185.403 89.3773C185.512 89.4014 185.512 89.4014 185.623 89.426C189.277 90.2509 193.826 91.595 196.003 94.9195C196.089 95.0607 196.173 95.2028 196.255 95.3459C196.291 95.4079 196.327 95.47 196.364 95.5339C196.958 96.6374 197.165 97.9514 196.861 99.1795C196.476 100.385 195.895 101.328 195.015 102.245C194.947 102.318 194.88 102.391 194.81 102.467C192.013 105.445 187.315 106.797 183.465 107.748C183.378 107.77 183.292 107.792 183.202 107.814C181.674 108.195 180.135 108.498 178.582 108.756C178.524 108.766 178.466 108.775 178.406 108.785C176.658 109.077 174.907 109.282 173.141 109.439C173.05 109.447 172.959 109.455 172.865 109.464C172.599 109.487 172.333 109.51 172.067 109.533C171.953 109.542 171.953 109.542 171.837 109.553C170.369 109.673 168.901 109.699 167.429 109.699C167.248 109.699 167.066 109.7 166.884 109.7C166.505 109.7 166.127 109.7 165.748 109.7C165.366 109.7 164.984 109.701 164.602 109.702C162.358 109.708 160.125 109.686 157.885 109.531C157.793 109.525 157.701 109.519 157.607 109.512C156.416 109.431 155.239 109.278 154.058 109.106C153.79 109.068 153.521 109.031 153.253 108.996C147.929 108.284 141.401 107.118 136.956 103.95C136.881 103.896 136.805 103.842 136.727 103.786C135.285 102.732 133.939 101.397 133.313 99.6867C133.289 99.6227 133.264 99.5588 133.239 99.4929C132.904 98.4356 132.892 96.966 133.391 95.966C133.429 95.8839 133.468 95.8017 133.508 95.7171C133.81 95.114 134.179 94.605 134.631 94.1056C134.689 94.0412 134.747 93.9767 134.807 93.9103C135.668 93.0033 136.71 92.359 137.809 91.7802C137.857 91.7546 137.904 91.7289 137.953 91.7025C139.912 90.6498 142.089 89.9095 144.26 89.4433C144.495 89.3711 144.558 89.3341 144.708 89.1447C144.804 88.9076 144.804 88.9076 144.884 88.6312C144.9 88.5799 144.915 88.5287 144.932 88.4759C144.982 88.3115 145.032 88.1468 145.081 87.982C145.113 87.876 145.146 87.77 145.178 87.6641C145.228 87.5011 145.278 87.3382 145.327 87.1751C145.447 86.7804 145.57 86.3868 145.695 85.9936C145.881 85.4053 146.065 84.8163 146.248 84.2269C147.29 80.8689 148.377 77.531 149.545 74.2144C149.669 73.8625 149.792 73.5103 149.914 73.1576C151.128 69.6366 152.559 66.1499 154.165 62.7898C154.243 62.6238 154.322 62.4579 154.401 62.292C154.63 61.8108 154.862 61.3311 155.095 60.8519C155.128 60.7838 155.161 60.7157 155.195 60.6456C155.672 59.6606 156.195 58.7063 156.742 57.7579C156.84 57.5849 156.937 57.4116 157.032 57.237C157.477 56.4273 157.97 55.6587 158.486 54.893C158.569 54.7691 158.652 54.6452 158.735 54.5213C160.404 52.0386 162.236 49.5237 164.552 47.5969C164.594 47.5612 164.637 47.5254 164.68 47.4886C166.86 45.6567 169.476 44.0331 172.4 44.007Z" fill="#AADCE7"/>
<path d="M172.4 44.007C172.483 44.0048 172.566 44.0025 172.651 44.0002C173.443 43.994 174.143 44.166 174.728 44.7247C175.209 45.3 175.422 46.0217 175.427 46.7624C175.428 46.8404 175.428 46.8404 175.428 46.92C175.429 47.0875 175.429 47.255 175.428 47.4225C175.428 47.4801 175.428 47.5376 175.427 47.5969C175.423 48.4962 175.366 49.3532 175.171 50.2324C175.146 50.3526 175.146 50.3526 175.119 50.4751C174.96 51.2229 174.8 51.9711 174.607 52.7111C174.264 54.0367 174.384 55.2481 174.774 56.5499C174.797 56.6284 174.821 56.707 174.845 56.788C174.926 57.0579 175.01 57.3272 175.094 57.5963C175.117 57.6697 175.117 57.6697 175.14 57.7446C175.729 59.6265 176.429 61.4585 177.157 63.2904C177.577 64.3483 177.983 65.4116 178.39 66.4748C178.522 66.8207 178.656 67.1657 178.792 67.5103C179.851 70.2209 180.751 73.0005 181.601 75.7831C181.682 76.0425 181.765 76.3007 181.851 76.5586C182.556 78.6931 183.155 80.864 183.686 83.048C183.758 83.345 183.839 83.6386 183.925 83.9319C184.081 84.4607 184.211 84.9953 184.342 85.5306C184.556 86.3976 184.792 87.2552 185.048 88.1107C185.174 88.5309 185.289 88.9536 185.403 89.3773C185.512 89.4014 185.512 89.4014 185.623 89.426C189.277 90.2509 193.826 91.595 196.003 94.9195C196.089 95.0607 196.173 95.2028 196.255 95.3459C196.291 95.4079 196.327 95.47 196.364 95.5339C196.958 96.6374 197.165 97.9514 196.861 99.1795C196.476 100.385 195.895 101.328 195.015 102.245C194.947 102.318 194.88 102.391 194.81 102.467C192.013 105.445 187.315 106.797 183.465 107.748C183.378 107.77 183.292 107.792 183.202 107.814C181.674 108.195 180.135 108.498 178.582 108.756C178.524 108.766 178.466 108.775 178.406 108.785C176.658 109.077 174.907 109.282 173.141 109.439C173.05 109.447 172.959 109.455 172.865 109.464C172.599 109.487 172.333 109.51 172.067 109.533C171.953 109.542 171.953 109.542 171.837 109.553C170.369 109.673 168.901 109.699 167.429 109.699C167.248 109.699 167.066 109.7 166.884 109.7C166.505 109.7 166.127 109.7 165.748 109.7C165.366 109.7 164.984 109.701 164.602 109.702C162.358 109.708 160.125 109.686 157.885 109.531C157.793 109.525 157.701 109.519 157.607 109.512C156.416 109.431 155.239 109.278 154.058 109.106C153.79 109.068 153.521 109.031 153.253 108.996C147.929 108.284 141.401 107.118 136.956 103.95C136.881 103.896 136.805 103.842 136.727 103.786C135.285 102.732 133.939 101.397 133.313 99.6867C133.289 99.6227 133.264 99.5588 133.239 99.4929C132.904 98.4356 132.892 96.966 133.391 95.966C133.429 95.8839 133.468 95.8017 133.508 95.7171C133.81 95.114 134.179 94.605 134.631 94.1056C134.689 94.0412 134.747 93.9767 134.807 93.9103C135.668 93.0033 136.71 92.359 137.809 91.7802C137.857 91.7546 137.904 91.7289 137.953 91.7025C139.912 90.6498 142.089 89.9095 144.26 89.4433C144.495 89.3711 144.558 89.3341 144.708 89.1447C144.804 88.9076 144.804 88.9076 144.884 88.6312C144.9 88.5799 144.915 88.5287 144.932 88.4759C144.982 88.3115 145.032 88.1468 145.081 87.982C145.113 87.876 145.146 87.77 145.178 87.6641C145.228 87.5011 145.278 87.3382 145.327 87.1751C145.447 86.7804 145.57 86.3868 145.695 85.9936C145.881 85.4053 146.065 84.8163 146.248 84.2269C147.29 80.8689 148.377 77.531 149.545 74.2144C149.669 73.8625 149.792 73.5103 149.914 73.1576C151.128 69.6366 152.559 66.1499 154.165 62.7898C154.243 62.6238 154.322 62.4579 154.401 62.292C154.63 61.8108 154.862 61.3311 155.095 60.8519C155.128 60.7838 155.161 60.7157 155.195 60.6456C155.672 59.6606 156.195 58.7063 156.742 57.7579C156.84 57.5849 156.937 57.4116 157.032 57.237C157.477 56.4273 157.97 55.6587 158.486 54.893C158.569 54.7691 158.652 54.6452 158.735 54.5213C160.404 52.0386 162.236 49.5237 164.552 47.5969C164.594 47.5612 164.637 47.5254 164.68 47.4886C166.86 45.6567 169.476 44.0331 172.4 44.007ZM172.085 46.0657C170.035 46.3142 168.222 47.5 166.645 48.7596C166.573 48.8162 166.501 48.8728 166.427 48.931C164.891 50.1631 163.571 51.6105 162.406 53.1958C162.293 53.3473 162.178 53.4967 162.062 53.6461C157.974 58.9518 155.431 65.1643 152.91 71.3164C152.877 71.3958 152.845 71.4752 152.811 71.557C152.42 72.5187 152.089 73.5024 151.754 74.4847C151.652 74.7829 151.55 75.0811 151.447 75.3792C151.428 75.4373 151.408 75.4954 151.387 75.5553C151.229 76.0161 151.07 76.4764 150.909 76.9362C150.888 76.9972 150.866 77.0583 150.844 77.1212C150.737 77.4274 150.626 77.732 150.512 78.0359C150.411 78.3099 150.325 78.5858 150.245 78.8666C149.976 79.8131 149.65 80.7395 149.327 81.6685C149.029 82.5239 148.748 83.3796 148.507 84.2528C148.392 84.6691 148.264 85.0786 148.123 85.487C147.936 86.0351 147.77 86.5873 147.61 87.1439C147.437 87.746 147.257 88.3427 147.052 88.9349C146.763 89.7984 146.512 90.6743 146.253 91.547C146.08 92.1276 145.902 92.7052 145.707 93.2788C145.414 94.069 145.414 94.069 145.483 94.8808C146.231 96.1936 148.465 96.743 149.822 97.1181C150.113 97.1984 150.396 97.294 150.681 97.3903C151.315 97.596 151.965 97.7333 152.614 97.8748C152.666 97.8861 152.718 97.8974 152.772 97.9091C153.966 98.1684 155.164 98.3929 156.374 98.5627C156.432 98.571 156.491 98.5792 156.551 98.5877C157.534 98.7245 158.518 98.8199 159.508 98.8922C159.571 98.8967 159.633 98.9013 159.697 98.906C160.066 98.9325 160.434 98.9563 160.803 98.9781C160.923 98.9853 161.042 98.9927 161.162 99.0003C162.475 99.0835 163.79 99.0837 165.105 99.0852C165.361 99.0855 165.617 99.0866 165.873 99.0884C167.574 99.0999 169.246 99.0311 170.939 98.861C171.269 98.8291 171.6 98.8035 171.932 98.7804C173.01 98.7028 174.072 98.5164 175.137 98.3356C175.359 98.2989 175.58 98.2648 175.802 98.2336C176.867 98.0834 177.908 97.8313 178.952 97.5767C179.145 97.5301 179.337 97.4852 179.53 97.4421C181.057 97.0779 183.566 96.3969 184.473 95.0358C184.571 94.4018 184.396 93.8098 184.217 93.2068C184.155 92.9922 184.095 92.7769 184.035 92.5614C183.835 91.8389 183.632 91.1175 183.417 90.3995C183.258 89.8686 183.122 89.3334 182.99 88.7953C182.782 87.9526 182.544 87.1188 182.303 86.2848C182.276 86.19 182.249 86.0952 182.221 85.9975C182.167 85.811 182.113 85.6246 182.059 85.4382C181.91 84.9228 181.779 84.4069 181.662 83.8835C181.573 83.5067 181.466 83.1357 181.358 82.7643C181.337 82.6912 181.316 82.6181 181.294 82.5428C181.243 82.3663 181.191 82.1898 181.14 82.0134C180.882 82.0994 180.829 82.1626 180.66 82.367C180.413 82.6593 180.151 82.9284 179.876 83.1946C179.663 83.416 179.592 83.5394 179.56 83.8495C179.58 84.6063 179.848 85.3557 180.088 86.0669C180.342 86.827 180.575 87.534 180.2 88.2969C180.012 88.5867 179.851 88.735 179.512 88.8347C179.066 88.8617 178.74 88.8093 178.33 88.6263C178.276 88.6035 178.222 88.5807 178.167 88.5571C177.781 88.3907 177.401 88.2105 177.022 88.0289C176.924 87.9825 176.827 87.9361 176.729 87.8897C176.535 87.7974 176.342 87.7035 176.15 87.6084C176.06 87.5654 175.97 87.5224 175.878 87.4781C175.797 87.439 175.717 87.3998 175.635 87.3595C175.366 87.272 175.21 87.2897 174.939 87.3619C174.771 87.4532 174.771 87.4532 174.614 87.5799C172.24 89.3171 172.24 89.3171 171.296 89.2546C170.944 89.1813 170.744 89.0008 170.53 88.7232C170.271 87.9038 170.496 86.9793 170.637 86.1507C170.926 84.9783 170.926 84.9783 170.732 83.8729C170.594 83.7256 170.45 83.6019 170.293 83.4765C170.185 83.3842 170.078 83.2919 169.97 83.1994C169.918 83.1557 169.866 83.112 169.812 83.067C169.626 82.9079 169.455 82.7367 169.285 82.5608C168.765 81.9979 168.765 81.9979 168.117 81.6258C168.035 81.495 168.035 81.495 167.962 81.3157C167.934 81.2486 167.905 81.1814 167.875 81.1123C167.757 80.6576 167.733 80.2506 167.919 79.8139C168.191 79.535 168.449 79.4246 168.815 79.3004C168.89 79.2741 168.965 79.2478 169.043 79.2207C170.049 78.9121 171.104 78.8526 172.148 78.7578C172.262 78.4855 172.351 78.215 172.429 77.9302C172.452 77.8469 172.475 77.7635 172.498 77.6776C172.546 77.504 172.593 77.3304 172.64 77.1568C173.235 74.9958 173.235 74.9958 173.878 74.4654C174.214 74.2759 174.566 74.2587 174.939 74.3394C175.837 74.761 176.321 76.2198 176.734 77.0507C177.177 77.9869 177.177 77.9869 177.962 78.6027C178.185 78.6242 178.402 78.6386 178.625 78.6463C178.75 78.6519 178.875 78.6575 179.001 78.6633C179.092 78.6673 179.092 78.6673 179.185 78.6715C179.527 78.6889 179.868 78.7234 180.21 78.7578C180.063 78.142 179.894 77.5384 179.699 76.9362C179.672 76.8538 179.646 76.7714 179.619 76.6866C179.533 76.4209 179.448 76.1553 179.362 75.8897C179.302 75.7054 179.243 75.521 179.184 75.3366C178.841 74.2728 178.494 73.2101 178.141 72.1497C178.123 72.0957 178.105 72.0418 178.087 71.9863C177.564 70.4184 177.032 68.8448 176.385 67.3232C176.214 66.9186 176.06 66.5081 175.907 66.0967C175.675 65.4742 175.437 64.8537 175.199 64.2335C175.148 64.1001 175.097 63.9667 175.046 63.8333C174.97 63.6365 174.895 63.4398 174.819 63.2431C174.797 63.1844 174.775 63.1258 174.751 63.0654C174.615 62.7116 174.468 62.3646 174.311 62.0196C174.193 61.749 174.099 61.4706 174.004 61.191C173.837 60.7047 173.667 60.2197 173.49 59.7367C173.057 58.547 172.66 57.3607 172.381 56.1235C172.366 56.0625 172.351 56.0015 172.336 55.9387C172.023 54.5546 172.168 53.0948 172.558 51.7456C172.976 50.2714 173.25 48.8209 173.267 47.2869C173.269 47.191 173.271 47.0952 173.272 46.9965C173.272 46.862 173.272 46.862 173.272 46.7249C173.272 46.6446 173.272 46.5642 173.272 46.4814C173.251 46.2708 173.251 46.2708 173.092 46.1366C172.772 45.9661 172.434 46.0352 172.085 46.0657Z" fill="black"/>
<path d="M185.946 91.78C186.399 91.8303 186.815 91.9453 187.249 92.0804C187.314 92.1003 187.379 92.1202 187.446 92.1407C187.577 92.1808 187.709 92.2212 187.84 92.2617C188.043 92.3239 188.247 92.3842 188.451 92.4444C188.897 92.5784 189.319 92.7513 189.744 92.9427C189.809 92.972 189.874 93.0012 189.941 93.0313C190.91 93.4711 191.84 93.9258 192.69 94.5706C192.734 94.6041 192.779 94.6376 192.825 94.6722C193.694 95.3387 194.608 96.232 194.783 97.3611C194.83 98.0907 194.836 98.7218 194.473 99.3765C194.439 99.441 194.406 99.5055 194.372 99.5721C193.719 100.72 192.636 101.566 191.527 102.244C191.479 102.274 191.43 102.304 191.38 102.334C190.231 103.029 188.993 103.638 187.73 104.097C187.51 104.177 187.293 104.265 187.077 104.354C185.056 105.185 182.877 105.642 180.753 106.12C180.643 106.145 180.643 106.145 180.532 106.17C180.466 106.185 180.4 106.2 180.333 106.215C180.278 106.227 180.223 106.24 180.167 106.252C179.634 106.366 179.101 106.462 178.562 106.54C178.495 106.55 178.428 106.56 178.359 106.57C178.219 106.591 178.079 106.611 177.939 106.632C177.736 106.662 177.534 106.692 177.331 106.723C175.785 106.955 174.249 107.176 172.687 107.268C172.379 107.288 172.071 107.315 171.764 107.342C171.033 107.404 170.304 107.453 169.571 107.48C169.441 107.485 169.441 107.485 169.308 107.49C168.406 107.522 167.505 107.53 166.603 107.531C166.517 107.531 166.432 107.532 166.343 107.532C165.889 107.533 165.434 107.534 164.98 107.534C164.613 107.534 164.245 107.536 163.878 107.537C161.665 107.548 159.475 107.506 157.271 107.298C157 107.273 156.729 107.249 156.457 107.226C155.181 107.114 153.926 106.923 152.664 106.709C152.403 106.666 152.143 106.627 151.881 106.591C147.69 106.001 143.183 104.886 139.437 102.865C139.362 102.826 139.287 102.787 139.209 102.748C138.316 102.282 137.528 101.701 136.802 101.004C136.741 100.948 136.681 100.893 136.618 100.835C135.818 100.077 135.264 99.1788 135.207 98.0635C135.188 97.1251 135.434 96.5069 136.051 95.7914C136.17 95.667 136.291 95.5442 136.414 95.4232C136.467 95.3709 136.519 95.3185 136.573 95.2645C138.23 93.7048 140.545 92.7337 142.693 92.0901C142.774 92.0655 142.855 92.0409 142.939 92.0156C143.282 91.9165 143.574 91.8454 143.933 91.8575C143.859 92.2101 143.78 92.5589 143.678 92.9046C143.377 93.9322 143.165 94.8984 143.655 95.9113C144.393 97.1693 145.988 97.9459 147.311 98.4263C147.558 98.5169 147.802 98.6126 148.047 98.7094C148.566 98.9095 149.091 99.0722 149.626 99.2263C149.755 99.2641 149.755 99.2641 149.887 99.3027C150.062 99.3539 150.237 99.4046 150.412 99.455C150.588 99.5059 150.764 99.5577 150.94 99.6104C151.63 99.815 152.324 99.9701 153.031 100.103C153.092 100.115 153.152 100.126 153.214 100.138C154.841 100.442 156.481 100.641 158.125 100.824C158.338 100.848 158.55 100.873 158.762 100.899C162.846 101.398 167.174 101.398 171.259 100.904C171.592 100.864 171.923 100.839 172.258 100.827C173.214 100.79 174.144 100.625 175.084 100.457C175.172 100.441 175.261 100.426 175.351 100.41C181.46 99.5024 181.46 99.5024 186.288 96.0909C186.781 95.2814 186.62 94.3316 186.407 93.4523C186.31 93.0743 186.208 92.698 186.101 92.3226C186.085 92.2647 186.068 92.2068 186.051 92.1471C186.016 92.0247 185.981 91.9023 185.946 91.78Z" fill="#AADCE7"/>
<path d="M163.079 59.9989C163.807 60.3149 164.209 61.1934 164.557 61.8641C164.98 62.6894 164.98 62.6894 165.559 63.4095C165.785 63.4201 166.009 63.4259 166.235 63.4286C166.376 63.4312 166.517 63.4338 166.658 63.4363C166.881 63.44 167.103 63.4434 167.326 63.4465C167.54 63.4496 167.755 63.4536 167.969 63.4577C168.035 63.4583 168.1 63.459 168.167 63.4597C168.745 63.4714 169.437 63.4932 169.9 63.8746C170.139 64.1524 170.277 64.396 170.253 64.7715C170.004 65.8635 169.121 66.9714 168.352 67.7534C168.169 67.9586 168.169 67.9586 168.093 68.2154C168.11 68.3799 168.145 68.5231 168.195 68.6805C168.21 68.7304 168.224 68.7802 168.24 68.8316C168.29 68.9883 168.346 69.1418 168.403 69.2958C168.424 69.3523 168.444 69.4088 168.465 69.467C168.57 69.7594 168.68 70.0496 168.794 70.3386C169.065 71.0354 169.243 71.6432 169.125 72.4012C168.954 72.7828 168.727 72.995 168.35 73.1764C167.127 73.3483 165.748 72.8044 164.656 72.3074C164.588 72.2776 164.52 72.2478 164.45 72.2171C164.39 72.1894 164.329 72.1616 164.267 72.133C164.015 72.0745 163.928 72.1223 163.699 72.2462C163.471 72.3992 163.251 72.5619 163.031 72.7258C162.516 73.1034 161.998 73.4657 161.451 73.7965C161.379 73.8404 161.307 73.8842 161.233 73.9294C160.702 74.2505 160.379 74.4091 159.746 74.3391C159.395 74.1669 159.208 73.9958 159.048 73.6415C159.01 73.3603 159.012 73.0819 159.014 72.7985C159.015 72.7154 159.015 72.6323 159.015 72.5467C159.033 71.4559 159.197 70.3779 159.358 69.3007C159.311 69.278 159.265 69.2554 159.216 69.2321C158.59 68.9099 158.031 68.3851 157.518 67.9108C157.321 67.73 157.116 67.5601 156.907 67.3928C156.69 67.1736 156.623 66.9543 156.621 66.6506C156.636 66.2031 156.684 65.7793 157.008 65.4464C157.44 65.1278 157.938 64.9796 158.445 64.8215C158.864 64.6871 159.273 64.5329 159.668 64.3397C159.719 64.3199 159.769 64.3001 159.82 64.2796C160.111 64.1407 160.256 64.0194 160.397 63.7252C160.493 63.44 160.575 63.153 160.652 62.8621C161.495 59.8367 161.495 59.8367 163.079 59.9989Z" fill="black"/>
<path d="M157.352 79.446C157.889 79.7972 158.078 80.358 158.229 80.9524C158.262 81.0752 158.294 81.1979 158.327 81.3206C158.352 81.4147 158.352 81.4147 158.377 81.5108C158.461 81.8292 158.548 82.1466 158.636 82.4639C158.652 82.5218 158.667 82.5796 158.683 82.6392C158.726 82.7928 158.77 82.9457 158.815 83.0986C158.829 83.1646 158.842 83.2305 158.856 83.2985C158.988 83.5149 159.028 83.5262 159.261 83.5964C159.387 83.6268 159.513 83.6555 159.639 83.6827C159.706 83.6986 159.773 83.7145 159.842 83.7309C160.057 83.7817 160.271 83.8303 160.487 83.8786C160.7 83.9275 160.913 83.9769 161.125 84.0271C161.258 84.0582 161.39 84.0885 161.523 84.1179C162.042 84.238 162.567 84.3848 162.964 84.7518C163.19 85.1599 163.151 85.5943 163.078 86.0442C162.944 86.3297 162.763 86.5252 162.536 86.7418C162.48 86.797 162.423 86.8523 162.365 86.9092C161.955 87.2936 161.515 87.6405 161.07 87.9835C160.982 88.0509 160.896 88.119 160.809 88.1878C160.716 88.2603 160.621 88.3296 160.523 88.3962C160.237 88.6057 160.237 88.6057 160.089 88.9183C160.077 89.1049 160.082 89.2827 160.094 89.4693C160.096 89.5354 160.099 89.6016 160.101 89.6697C160.116 90.0591 160.151 90.4457 160.192 90.8331C160.22 91.2085 160.229 91.5832 160.235 91.9595C160.237 92.0336 160.239 92.1077 160.242 92.1841C160.245 92.6315 160.211 92.9044 159.9 93.253C159.526 93.4689 159.166 93.5596 158.738 93.4855C158.258 93.303 157.848 92.9989 157.439 92.6959C157.349 92.6294 157.349 92.6294 157.256 92.5616C157.078 92.4308 156.9 92.2994 156.722 92.1678C156.626 92.0968 156.53 92.0259 156.433 91.9549C155.776 91.4672 155.776 91.4672 155.56 91.2376C155.27 91.3509 154.987 91.4745 154.704 91.6031C154.614 91.6435 154.524 91.6839 154.432 91.7256C154.245 91.8098 154.059 91.8944 153.872 91.9793C152.498 92.5969 152.498 92.5969 151.868 92.5699C151.803 92.5678 151.738 92.5657 151.671 92.5635C151.624 92.5608 151.577 92.5582 151.529 92.5554C151.529 92.5042 151.529 92.4531 151.529 92.4003C151.484 92.3955 151.439 92.3907 151.393 92.3858C151.138 92.2935 151.056 92.1618 150.909 91.9353C150.861 91.7159 150.839 91.5456 150.836 91.3248C150.835 91.2631 150.835 91.2015 150.834 91.1379C150.865 90.2983 151.21 89.5162 151.51 88.742C151.761 88.1083 151.761 88.1083 151.839 87.4394C151.758 87.2803 151.758 87.2803 151.611 87.1778C151.25 86.8608 150.969 86.5016 150.676 86.1217C150.615 86.0433 150.553 85.965 150.49 85.8843C150.014 85.2674 149.683 84.8115 149.703 84.0076C149.778 83.6403 150.003 83.4074 150.289 83.1761C150.516 83.0428 150.684 83.0009 150.947 82.9964C151.015 82.9948 151.083 82.9933 151.154 82.9917C151.263 82.9904 151.263 82.9904 151.375 82.989C151.45 82.9875 151.526 82.986 151.603 82.9844C151.843 82.9798 152.083 82.9762 152.323 82.9726C152.486 82.9697 152.649 82.9667 152.812 82.9636C153.211 82.9561 153.61 82.9496 154.009 82.9436C154.033 82.8956 154.057 82.8476 154.082 82.7981C154.461 82.0415 154.859 81.2926 155.274 80.5552C155.32 80.4731 155.366 80.3911 155.413 80.3066C155.867 79.5902 156.464 79.0793 157.352 79.446Z" fill="black"/>
<path d="M174.551 76.8973C174.84 76.9938 174.878 77.1176 175.012 77.3795C175.055 77.4646 175.055 77.4646 175.098 77.5514C175.16 77.671 175.221 77.7906 175.283 77.9102C175.315 77.9726 175.347 78.0351 175.381 78.0995C175.548 78.4217 175.722 78.7401 175.898 79.0581C175.93 79.1175 175.962 79.1768 175.995 79.238C176.026 79.2936 176.057 79.3491 176.088 79.4063C176.115 79.4551 176.142 79.504 176.17 79.5543C176.253 79.6941 176.253 79.6941 176.383 79.812C176.489 79.9204 176.489 79.9204 176.489 80.0754C176.537 80.0866 176.585 80.0978 176.634 80.1093C176.799 80.1529 176.799 80.1529 176.954 80.2305C177.075 80.2458 177.196 80.2572 177.318 80.2665C177.392 80.2725 177.466 80.2784 177.542 80.2845C177.622 80.2907 177.701 80.2968 177.782 80.3031C178.492 80.3611 179.195 80.4359 179.899 80.5405C179.774 80.8447 179.565 81.0609 179.342 81.2963C179.265 81.3794 179.187 81.4626 179.11 81.5458C179.073 81.5861 179.035 81.6263 178.996 81.6678C178.134 82.5271 178.134 82.5271 177.792 83.6266C177.791 83.707 177.79 83.7874 177.789 83.8703C177.807 84.1149 177.866 84.2697 177.961 84.4938C178.014 84.6938 178.064 84.8933 178.112 85.0945C178.196 85.4462 178.284 85.7904 178.407 86.1313C178.5 86.3934 178.526 86.6163 178.504 86.8967C178.18 86.7724 177.868 86.6263 177.556 86.4749C177.477 86.4368 177.477 86.4368 177.396 86.3979C177.286 86.3445 177.175 86.291 177.065 86.2375C176.895 86.1553 176.725 86.0734 176.556 85.9915C176.448 85.9395 176.341 85.8875 176.233 85.8354C176.157 85.7986 176.157 85.7986 176.079 85.761C175.722 85.5879 175.722 85.5879 175.636 85.5015C175.072 85.4138 174.719 85.58 174.26 85.889C174.2 85.9275 174.14 85.9659 174.078 86.0055C173.957 86.0834 173.836 86.1619 173.715 86.2411C173.468 86.4034 173.218 86.5609 172.967 86.7175C172.888 86.7673 172.81 86.8172 172.729 86.8686C172.535 86.9742 172.535 86.9742 172.303 86.9742C172.314 86.7142 172.325 86.4542 172.337 86.1942C172.34 86.1211 172.343 86.0481 172.346 85.9727C172.364 85.5781 172.397 85.1947 172.458 84.8038C172.574 83.9721 172.574 83.9721 172.297 83.2054C172.065 82.9133 171.797 82.658 171.528 82.4009C171.348 82.2237 171.17 82.0457 170.991 81.8675C170.872 81.7496 170.752 81.6327 170.631 81.5169C170.549 81.4372 170.549 81.4372 170.466 81.3559C170.416 81.3089 170.367 81.2618 170.316 81.2133C170.21 81.0831 170.21 81.0831 170.21 80.8506C170.425 80.7789 170.587 80.7556 170.811 80.7398C170.884 80.7341 170.956 80.7284 171.031 80.7225C171.182 80.7112 171.334 80.7002 171.485 80.6898C172.183 80.6337 172.813 80.5317 173.351 80.0594C173.603 79.7529 173.726 79.396 173.834 79.0193C174.047 78.3031 174.301 77.6012 174.551 76.8973Z" fill="#F8E482"/>
<path d="M162.691 62.5571C162.939 62.6612 163.05 62.7506 163.179 62.9856C163.21 63.0402 163.241 63.0949 163.272 63.1511C163.304 63.2093 163.336 63.2675 163.369 63.3274C163.936 64.3825 163.936 64.3825 164.784 65.1926C165.034 65.2349 165.28 65.2288 165.534 65.2229C165.606 65.2225 165.677 65.222 165.751 65.2216C165.979 65.2198 166.208 65.216 166.436 65.212C166.591 65.2104 166.746 65.209 166.901 65.2078C167.281 65.2043 167.66 65.199 168.039 65.1926C167.927 65.4217 167.805 65.6245 167.657 65.8321C167.402 66.1929 167.148 66.5543 166.896 66.9173C166.86 66.9695 166.823 67.0217 166.785 67.0755C166.444 67.5682 166.171 67.9831 166.257 68.6033C166.399 69.3036 166.619 69.9069 166.934 70.549C167.06 70.8389 167.097 71.0797 167.109 71.3938C166.738 71.3453 166.406 71.239 166.058 71.1052C165.946 71.0631 165.833 71.0209 165.721 70.9788C165.545 70.9126 165.37 70.8462 165.194 70.7793C165.024 70.7143 164.853 70.6505 164.682 70.5868C164.631 70.5667 164.579 70.5466 164.526 70.5259C164.117 70.3746 163.744 70.3014 163.333 70.4748C163.265 70.5175 163.197 70.5601 163.127 70.6041C163.048 70.6528 162.969 70.7014 162.888 70.7516C162.682 70.8838 162.476 71.0179 162.271 71.1519C162.183 71.2094 162.183 71.2094 162.093 71.268C161.976 71.3444 161.86 71.4213 161.744 71.4988C161.691 71.5343 161.637 71.5698 161.582 71.6063C161.534 71.6382 161.486 71.6701 161.437 71.7029C161.288 71.7858 161.153 71.825 160.986 71.8589C160.977 71.3961 160.987 70.9397 161.024 70.4781C161.169 69.3648 161.169 69.3648 160.81 68.3538C160.596 68.1337 160.36 67.9481 160.116 67.7615C159.879 67.5792 159.648 67.3929 159.421 67.1983C159.348 67.1374 159.275 67.0764 159.199 67.0136C159.048 66.8204 159.048 66.8204 159.063 66.5643C159.084 66.4953 159.104 66.4264 159.125 66.3553C159.2 66.3357 159.275 66.316 159.352 66.2957C159.615 66.2265 159.877 66.1562 160.139 66.0854C160.267 66.0511 160.394 66.0174 160.521 65.9838C161.094 65.825 161.484 65.6062 161.838 65.1151C161.931 64.9031 161.931 64.9031 161.996 64.6752C162.022 64.5918 162.048 64.5084 162.075 64.4225C162.114 64.2929 162.114 64.2929 162.153 64.1607C162.206 63.9898 162.258 63.8189 162.311 63.6481C162.348 63.5272 162.348 63.5272 162.386 63.4038C162.478 63.1171 162.581 62.8374 162.691 62.5571Z" fill="#F8E482"/>
<path d="M156.568 81.8583C156.619 81.8583 156.67 81.8583 156.723 81.8583C156.811 82.1407 156.898 82.4234 156.985 82.7061C157.009 82.7853 157.034 82.8645 157.059 82.9461C157.168 83.3018 157.271 83.6508 157.338 84.0169C157.412 84.364 157.552 84.5661 157.774 84.8426C157.837 84.9217 157.899 85.0009 157.963 85.0824C158.201 85.3694 158.277 85.3629 158.653 85.3994C158.748 85.409 158.843 85.4185 158.94 85.4283C159.139 85.4478 159.338 85.4672 159.537 85.4865C160.057 85.5391 160.557 85.6067 161.064 85.734C160.961 86.0419 160.765 86.1376 160.507 86.3105C160.03 86.6382 159.591 86.9949 159.16 87.3804C158.831 87.6719 158.831 87.6719 158.661 87.6719C158.351 88.3672 158.402 89.0629 158.414 89.8084C158.415 89.9396 158.416 90.0709 158.417 90.2021C158.419 90.5215 158.423 90.8407 158.428 91.16C158.062 91.1011 157.847 90.956 157.566 90.724C156.548 89.9053 156.548 89.9053 155.302 89.6548C154.569 89.7384 153.86 90.0557 153.216 90.4034C153.08 90.4624 153.08 90.4624 152.847 90.4624C152.89 90.283 152.934 90.1038 152.978 89.9246C152.998 89.8414 152.998 89.8414 153.019 89.7565C153.107 89.4024 153.207 89.0546 153.318 88.7069C153.605 87.8875 153.605 87.8875 153.545 87.0517C153.318 86.6806 153.026 86.358 152.739 86.0328C152.552 85.8163 152.379 85.5901 152.208 85.361C152.151 85.2869 152.095 85.2129 152.037 85.1366C151.917 84.9589 151.917 84.9589 151.917 84.8038C151.969 84.8019 152.021 84.7999 152.074 84.7979C152.314 84.7888 152.554 84.7794 152.794 84.7699C152.875 84.7669 152.957 84.7638 153.041 84.7607C154.118 84.7733 154.118 84.7733 155.095 84.4163C155.176 84.2895 155.253 84.1598 155.328 84.0287C155.368 83.9594 155.409 83.8902 155.451 83.8188C155.593 83.5772 155.734 83.3354 155.875 83.0937C155.924 83.0093 155.974 82.9249 156.025 82.838C156.072 82.7568 156.12 82.6756 156.168 82.5919C156.212 82.5181 156.255 82.4442 156.299 82.3682C156.395 82.2003 156.484 82.0319 156.568 81.8583Z" fill="#F8E482"/>
</svg>
