<svg width="350" height="350" viewBox="0 0 350 350" fill="none" xmlns="http://www.w3.org/2000/svg">
<path d="M169.371 67.0678C173.751 69.12 176.186 73.702 178.315 77.8254C178.412 78.0127 178.509 78.2 178.61 78.3929C180.67 82.4108 182.71 86.9345 183.51 91.3903C183.72 91.4119 183.931 91.4335 184.148 91.4557C186.87 91.7986 189.333 92.5927 191.908 93.5166C192.748 93.7984 192.748 93.7984 193.611 93.9878C194.257 93.6405 194.819 93.2885 195.415 92.8694C195.779 92.6261 196.143 92.3837 196.508 92.1423C196.792 91.9544 196.792 91.9544 197.08 91.7628C202.222 88.4108 209.535 84.4813 215.834 85.3294C217.299 85.9462 217.848 86.8018 218.501 88.1874C219.828 91.8427 219.082 96.5554 218.63 100.319C218.594 100.625 218.559 100.93 218.522 101.244C218.354 102.562 218.165 103.827 217.771 105.097C217.447 106.177 217.21 107.003 217.277 108.13C218.109 109.35 219.126 110.207 220.249 111.151C221.054 111.875 221.707 112.702 222.364 113.559C222.494 113.728 222.624 113.897 222.757 114.07C229.535 123.025 232.745 133.221 234.793 144.159C235.653 148.723 236.577 152.838 238.923 156.906C239.17 157.349 239.415 157.792 239.66 158.236C240.028 158.902 240.398 159.567 240.771 160.231C244.371 166.647 246.268 173.244 246.229 180.626C246.228 180.837 246.228 181.048 246.227 181.265C246.212 184.384 246.103 187.359 245.273 190.385C245.219 190.587 245.164 190.789 245.109 190.997C241.763 203.092 232.444 212.095 221.831 218.165C220.054 219.165 218.255 220.106 216.412 220.978C218.091 222.244 219.771 223.505 221.48 224.73C224.388 226.842 227.087 229.18 229.688 231.657C229.861 231.821 230.034 231.986 230.212 232.156C234.717 236.477 238.613 241.241 241.232 246.953C245.591 242.574 247.683 237.552 248.773 231.535C249.168 229.436 249.606 227.55 251.226 226.047C252.401 225.274 253.085 225.192 254.509 225.307C257.383 226.119 259.197 228.821 260.624 231.278C265.084 239.295 266.155 248.483 263.744 257.343C263.692 257.538 263.639 257.733 263.585 257.934C261.796 264.343 258.087 269.802 253.643 274.66C253.427 274.897 253.21 275.134 252.988 275.378C245.709 282.982 233.625 289.827 222.953 290.274C222.408 290.264 221.863 290.255 221.318 290.245C221.338 290.509 221.358 290.773 221.379 291.045C221.565 293.623 221.656 296.186 221.665 298.772C221.666 298.961 221.667 299.151 221.668 299.346C221.672 300.348 221.675 301.35 221.676 302.353C221.677 303.166 221.681 303.978 221.688 304.791C221.749 312.563 221.749 312.563 221.241 316.055C221.21 316.273 221.179 316.492 221.147 316.717C220.591 319.957 218.841 323.142 216.292 325.237C210.279 329.333 202.612 330.164 195.541 328.866C190.956 327.76 186.852 325.527 184.303 321.452C182.373 318.007 181.718 314.669 181.778 310.737C181.477 310.787 181.477 310.787 181.17 310.838C180.243 310.992 179.315 311.144 178.387 311.296C178.072 311.349 177.756 311.402 177.432 311.456C173.637 312.073 169.92 312.234 166.083 312.234C165.317 312.234 164.551 312.239 163.785 312.245C158.82 312.261 154.024 311.742 149.164 310.737C149.16 311.02 149.156 311.303 149.152 311.595C149.014 316.333 147.633 320.835 144.348 324.392C139.243 329.124 132.465 329.479 125.88 329.266C123.832 329.143 121.953 328.704 120.014 328.054C119.7 327.949 119.385 327.845 119.061 327.737C115.177 326.28 111.979 323.669 110.22 319.885C108.758 316.176 108.713 312.284 108.72 308.348C108.72 307.988 108.72 307.629 108.719 307.258C108.719 306.499 108.72 305.739 108.721 304.98C108.722 303.848 108.721 302.717 108.719 301.585C108.718 297.841 108.76 294.1 108.885 290.357C108.896 290.025 108.907 289.692 108.918 289.35C109.219 281.218 110.586 273.099 112.222 265.136C112.072 265.194 111.923 265.252 111.769 265.312C106.304 267.424 101.444 268.776 95.7506 266.516C92.3651 264.957 89.6685 262.55 88.1947 259.095C86.5829 254.517 87.4132 250.327 89.3763 246.053C91.8726 240.918 95.5442 236.566 99.5228 232.523C99.8057 232.229 100.088 231.935 100.371 231.641C101.851 230.123 103.385 228.736 105.044 227.417C105.627 226.947 106.198 226.474 106.764 225.985C108.721 224.292 110.732 222.742 112.857 221.266C113.659 220.727 113.659 220.727 114.242 220.112C114.059 220.019 113.876 219.927 113.688 219.831C106.878 216.363 106.878 216.363 104.141 214.34C103.838 214.119 103.535 213.897 103.223 213.669C100.991 212.01 98.9371 210.196 96.9253 208.279C96.6824 208.055 96.4394 207.83 96.1891 207.599C89.2498 200.992 85.3664 192.074 85.011 182.547C84.7862 172.353 88.0354 163.889 93.1306 155.166C95.6829 150.672 96.469 145.556 97.4943 140.555C98.7891 134.275 100.435 128.193 103.563 122.561C103.797 122.121 103.797 122.121 104.036 121.672C105.896 118.303 108.33 115.277 110.815 112.351C110.956 112.184 111.097 112.017 111.243 111.844C111.918 111.062 112.597 110.342 113.39 109.678C114.876 108.476 114.876 108.476 115.477 106.754C115.323 105.747 115.075 104.787 114.819 103.801C113.77 98.3997 112.4 90.4253 115.361 85.4196C116.377 84.3139 117.009 83.9398 118.517 83.742C120.631 83.816 122.658 84.6256 124.632 85.3294C124.908 85.4269 125.183 85.5244 125.467 85.6248C127.483 86.409 129.401 87.4099 131.325 88.3959C131.615 88.5432 131.906 88.6905 132.206 88.8422C133.566 89.5496 134.819 90.2557 136 91.2381C138.001 92.9358 138.001 92.9358 140.505 93.3521C142.414 92.9787 144.202 92.3318 146.02 91.6547C147.248 91.2662 148.46 91.1521 149.742 91.1017C149.776 90.8936 149.81 90.6854 149.845 90.471C150.036 89.6345 150.315 88.9735 150.694 88.2054C150.832 87.9271 150.969 87.6488 151.111 87.3621C151.26 87.0663 151.41 86.7706 151.564 86.4658C151.719 86.1585 151.873 85.8512 152.033 85.5346C162.696 64.657 162.696 64.657 169.371 67.0678Z" fill="#ECECEB"/>
<path d="M169.371 67.0678C173.751 69.12 176.186 73.702 178.315 77.8254C178.412 78.0127 178.509 78.2 178.61 78.3929C180.67 82.4108 182.71 86.9345 183.51 91.3903C183.72 91.4119 183.931 91.4335 184.148 91.4557C186.87 91.7986 189.333 92.5927 191.908 93.5166C192.748 93.7984 192.748 93.7984 193.611 93.9878C194.257 93.6405 194.819 93.2885 195.415 92.8694C195.779 92.6261 196.143 92.3837 196.508 92.1423C196.792 91.9544 196.792 91.9544 197.08 91.7628C202.222 88.4108 209.535 84.4813 215.834 85.3294C217.299 85.9462 217.848 86.8018 218.501 88.1874C219.828 91.8427 219.082 96.5554 218.63 100.319C218.594 100.625 218.559 100.93 218.522 101.244C218.354 102.562 218.165 103.827 217.771 105.097C217.447 106.177 217.21 107.003 217.277 108.13C218.109 109.35 219.126 110.207 220.249 111.151C221.054 111.875 221.707 112.702 222.364 113.559C222.494 113.728 222.624 113.897 222.757 114.07C229.535 123.025 232.745 133.221 234.793 144.159C235.653 148.723 236.577 152.838 238.923 156.906C239.17 157.349 239.415 157.792 239.66 158.236C240.028 158.902 240.398 159.567 240.771 160.231C244.371 166.647 246.268 173.244 246.229 180.626C246.228 180.837 246.228 181.048 246.227 181.265C246.212 184.384 246.103 187.359 245.273 190.385C245.219 190.587 245.164 190.789 245.109 190.997C241.763 203.092 232.444 212.095 221.831 218.165C220.054 219.165 218.255 220.106 216.412 220.978C218.091 222.244 219.771 223.505 221.48 224.73C224.388 226.842 227.087 229.18 229.688 231.657C229.861 231.821 230.034 231.986 230.212 232.156C234.717 236.477 238.613 241.241 241.232 246.953C245.591 242.574 247.683 237.552 248.773 231.535C249.168 229.436 249.606 227.55 251.226 226.047C252.401 225.274 253.085 225.192 254.509 225.307C257.383 226.119 259.197 228.821 260.624 231.278C265.084 239.295 266.155 248.483 263.744 257.343C263.692 257.538 263.639 257.733 263.585 257.934C261.796 264.343 258.087 269.802 253.643 274.66C253.427 274.897 253.21 275.134 252.988 275.378C245.709 282.982 233.625 289.827 222.953 290.274C222.408 290.264 221.863 290.255 221.318 290.245C221.338 290.509 221.358 290.773 221.379 291.045C221.565 293.623 221.656 296.186 221.665 298.772C221.666 298.961 221.667 299.151 221.668 299.346C221.672 300.348 221.675 301.35 221.676 302.353C221.677 303.166 221.681 303.978 221.688 304.791C221.749 312.563 221.749 312.563 221.241 316.055C221.21 316.273 221.179 316.492 221.147 316.717C220.591 319.957 218.841 323.142 216.292 325.237C210.279 329.333 202.612 330.164 195.541 328.866C190.956 327.76 186.852 325.527 184.303 321.452C182.373 318.007 181.718 314.669 181.778 310.737C181.477 310.787 181.477 310.787 181.17 310.838C180.243 310.992 179.315 311.144 178.387 311.296C178.072 311.349 177.756 311.402 177.432 311.456C173.637 312.073 169.92 312.234 166.083 312.234C165.317 312.234 164.551 312.239 163.785 312.245C158.82 312.261 154.024 311.742 149.164 310.737C149.16 311.02 149.156 311.303 149.152 311.595C149.014 316.333 147.633 320.835 144.348 324.392C139.243 329.124 132.465 329.479 125.88 329.266C123.832 329.143 121.953 328.704 120.014 328.054C119.7 327.949 119.385 327.845 119.061 327.737C115.177 326.28 111.979 323.669 110.22 319.885C108.758 316.176 108.713 312.284 108.72 308.348C108.72 307.988 108.72 307.629 108.719 307.258C108.719 306.499 108.72 305.739 108.721 304.98C108.722 303.848 108.721 302.717 108.719 301.585C108.718 297.841 108.76 294.1 108.885 290.357C108.896 290.025 108.907 289.692 108.918 289.35C109.219 281.218 110.586 273.099 112.222 265.136C112.072 265.194 111.923 265.252 111.769 265.312C106.304 267.424 101.444 268.776 95.7506 266.516C92.3651 264.957 89.6685 262.55 88.1947 259.095C86.5829 254.517 87.4132 250.327 89.3763 246.053C91.8726 240.918 95.5442 236.566 99.5228 232.523C99.8057 232.229 100.088 231.935 100.371 231.641C101.851 230.123 103.385 228.736 105.044 227.417C105.627 226.947 106.198 226.474 106.764 225.985C108.721 224.292 110.732 222.742 112.857 221.266C113.659 220.727 113.659 220.727 114.242 220.112C114.059 220.019 113.876 219.927 113.688 219.831C106.878 216.363 106.878 216.363 104.141 214.34C103.838 214.119 103.535 213.897 103.223 213.669C100.991 212.01 98.9371 210.196 96.9253 208.279C96.6824 208.055 96.4394 207.83 96.1891 207.599C89.2498 200.992 85.3664 192.074 85.011 182.547C84.7862 172.353 88.0354 163.889 93.1306 155.166C95.6829 150.672 96.469 145.556 97.4943 140.555C98.7891 134.275 100.435 128.193 103.563 122.561C103.797 122.121 103.797 122.121 104.036 121.672C105.896 118.303 108.33 115.277 110.815 112.351C110.956 112.184 111.097 112.017 111.243 111.844C111.918 111.062 112.597 110.342 113.39 109.678C114.876 108.476 114.876 108.476 115.477 106.754C115.323 105.747 115.075 104.787 114.819 103.801C113.77 98.3997 112.4 90.4253 115.361 85.4196C116.377 84.3139 117.009 83.9398 118.517 83.742C120.631 83.816 122.658 84.6256 124.632 85.3294C124.908 85.4269 125.183 85.5244 125.467 85.6248C127.483 86.409 129.401 87.4099 131.325 88.3959C131.615 88.5432 131.906 88.6905 132.206 88.8422C133.566 89.5496 134.819 90.2557 136 91.2381C138.001 92.9358 138.001 92.9358 140.505 93.3521C142.414 92.9787 144.202 92.3318 146.02 91.6547C147.248 91.2662 148.46 91.1521 149.742 91.1017C149.776 90.8936 149.81 90.6854 149.845 90.471C150.036 89.6345 150.315 88.9735 150.694 88.2054C150.832 87.9271 150.969 87.6488 151.111 87.3621C151.26 87.0663 151.41 86.7706 151.564 86.4658C151.719 86.1585 151.873 85.8512 152.033 85.5346C162.696 64.657 162.696 64.657 169.371 67.0678ZM154.202 96.5624C152.769 97.1927 151.225 97.5241 149.714 97.9222C141.667 100.06 134.1 103.382 127.23 108.13C127.065 108.242 126.901 108.354 126.731 108.47C124.323 110.117 122.059 111.894 119.864 113.817C119.466 114.166 119.064 114.512 118.663 114.857C115.378 117.732 112.835 120.924 110.49 124.581C110.382 124.749 110.274 124.916 110.163 125.089C106.496 130.885 104.97 137.374 103.571 144.004C103.522 144.239 103.472 144.473 103.42 144.715C103.173 145.884 102.928 147.053 102.691 148.224C101.94 151.868 100.797 155.167 98.9997 158.439C98.7458 158.913 98.4921 159.387 98.2387 159.862C98.0521 160.209 98.0521 160.209 97.8618 160.564C93.235 169.207 89.6224 178.832 92.5228 188.709C92.6411 189.076 92.7617 189.442 92.8847 189.808C92.945 189.991 93.0054 190.174 93.0675 190.362C96.6365 200.866 105.751 208.28 115.405 213.086C118.285 214.466 121.267 215.575 124.267 216.665C127.695 217.924 127.695 217.924 128.384 218.958C128.276 220.022 128.276 220.022 128.096 220.978C127.842 221.057 127.589 221.136 127.328 221.218C116.698 224.938 106.468 233.429 99.8115 242.335C99.6852 242.502 99.559 242.668 99.429 242.84C98.0175 244.707 96.7383 246.605 95.6266 248.667C95.5324 248.841 95.4382 249.015 95.3411 249.194C94.1613 251.463 93.5867 253.778 94.2072 256.293C94.9838 258.35 96.5008 259.866 98.4563 260.854C101.511 261.985 104.44 261.226 107.345 259.966C108.629 259.368 109.861 258.7 111.076 257.972C111.589 257.665 112.111 257.374 112.634 257.085C115.782 254.991 116.409 251.487 117.45 248.04C117.893 246.659 118.219 245.745 119.437 244.933C120.696 244.77 121.255 244.791 122.305 245.528C123.06 246.603 122.987 247.098 122.901 248.396C122.729 249.182 122.542 249.936 122.32 250.706C122.26 250.923 122.2 251.14 122.138 251.363C122.009 251.825 121.88 252.287 121.75 252.748C121.408 253.96 121.078 255.175 120.746 256.39C120.681 256.627 120.616 256.865 120.549 257.11C117.958 266.59 116.572 276.483 115.649 286.259C115.616 286.603 115.616 286.603 115.583 286.953C115.142 291.959 115.054 296.97 115.055 301.992C115.054 303.019 115.049 304.046 115.043 305.073C114.723 312.939 114.723 312.939 117.783 319.875C121.12 322.458 124.851 322.674 128.907 322.678C129.276 322.686 129.644 322.693 130.024 322.7C133.507 322.711 136.971 322.078 139.64 319.684C142.514 316.675 142.679 311.824 143.067 307.898C143.355 305.19 143.355 305.19 144.258 304.099C146.226 303.115 149.118 304.085 151.149 304.496C161.485 306.477 172.421 306.565 182.678 303.943C183.805 303.668 184.96 303.671 186.107 303.81C187.076 304.472 187.327 305.004 187.55 306.119C187.601 306.62 187.641 307.123 187.674 307.625C188.025 314.484 188.025 314.484 191.681 320.063C194.754 322.496 198.464 322.671 202.233 322.66C202.577 322.665 202.92 322.67 203.274 322.675C207.076 322.677 210.255 322.032 213.038 319.323C215.578 315.185 215.346 310.436 215.311 305.758C215.308 305.183 215.306 304.608 215.303 304.033C215.294 302.419 215.277 300.806 215.257 299.192C215.253 298.829 215.249 298.465 215.245 298.09C215.013 282.545 212.521 266.597 208.457 251.61C207.955 249.716 207.571 248.049 207.753 246.087C208.488 245.202 208.933 244.977 210.062 244.789C211.164 244.972 211.574 245.308 212.371 246.087C212.762 247.021 212.762 247.021 213.064 248.119C213.182 248.522 213.301 248.925 213.421 249.327C213.482 249.535 213.543 249.743 213.605 249.958C214.834 254.404 214.834 254.404 218.024 257.505C218.536 257.758 219.061 257.984 219.586 258.209C219.94 258.397 220.291 258.589 220.64 258.784C223.86 260.554 227.161 261.803 230.851 260.876C232.923 260.171 234.285 259.428 235.406 257.506C236.526 255.08 236.333 252.728 235.442 250.254C233.365 245.42 230.124 241.481 226.513 237.718C226.344 237.539 226.175 237.361 226.001 237.177C220.22 231.099 213.48 226.823 206.07 222.995C205.735 222.82 205.4 222.645 205.055 222.465C204.604 222.233 204.604 222.233 204.144 221.996C203.424 221.555 203.424 221.555 202.847 220.689C202.738 219.824 202.738 219.824 202.847 218.958C203.854 217.907 205.26 217.685 206.617 217.316C218.892 213.789 230.23 206.11 236.539 194.829C237.588 192.856 238.314 190.798 238.923 188.653C239.021 188.311 239.119 187.969 239.22 187.616C241.655 177.472 237.691 167.954 232.665 159.323C232.538 159.102 232.411 158.881 232.28 158.653C232.044 158.245 231.805 157.839 231.56 157.437C229.087 153.166 228.518 148.012 227.674 143.236C225.852 132.994 222.272 124.056 214.969 116.5C214.737 116.254 214.506 116.008 214.268 115.755C212.353 113.764 210.252 112.085 208.042 110.439C207.763 110.23 207.763 110.23 207.479 110.017C199.225 103.873 189.973 99.6404 179.944 97.3308C178.397 96.9612 178.397 96.9612 177.905 96.4389C176.971 95.5568 175.484 95.6544 174.256 95.5211C173.767 95.4666 173.767 95.4666 173.267 95.411C170.452 95.1309 167.65 95.0566 164.822 95.0521C164.618 95.0511 164.413 95.0501 164.203 95.049C159.051 95.0275 159.051 95.0275 154.202 96.5624Z" fill="black"/>
<path d="M179.204 235.155C179.892 235.701 180.548 236.265 181.201 236.852C181.483 237.077 181.765 237.303 182.056 237.535C184.725 239.755 186.547 243.05 188.127 246.087C188.223 246.269 188.319 246.45 188.418 246.637C191.579 252.685 193.35 259.474 193.611 266.29C193.62 266.486 193.63 266.681 193.64 266.882C194.004 275.182 191.812 282.794 186.322 289.135C182.469 293.131 177.581 295.3 172.254 296.595C171.835 296.701 171.835 296.701 171.408 296.81C163.995 298.368 155.555 296.847 149.164 292.843C148.145 292.13 147.205 291.363 146.278 290.534C146.038 290.321 145.798 290.108 145.55 289.888C140.298 284.951 137.532 277.557 137.248 270.431C136.996 259.063 140.627 246.796 148.52 238.373C156.767 229.996 169.392 228.402 179.204 235.155Z" fill="#F2D3A3"/>
<path d="M179.204 235.155C179.892 235.701 180.548 236.265 181.201 236.852C181.483 237.077 181.765 237.303 182.056 237.535C184.725 239.755 186.547 243.05 188.127 246.087C188.223 246.269 188.319 246.45 188.418 246.637C191.579 252.685 193.35 259.474 193.611 266.29C193.62 266.486 193.63 266.681 193.64 266.882C194.004 275.182 191.812 282.794 186.322 289.135C182.469 293.131 177.581 295.3 172.254 296.595C171.835 296.701 171.835 296.701 171.408 296.81C163.995 298.368 155.555 296.847 149.164 292.843C148.145 292.13 147.205 291.363 146.278 290.534C146.038 290.321 145.798 290.108 145.55 289.888C140.298 284.951 137.532 277.557 137.248 270.431C136.996 259.063 140.627 246.796 148.52 238.373C156.767 229.996 169.392 228.402 179.204 235.155ZM152.159 244.103C145.984 252.042 143.085 262.467 144.034 272.45C144.71 277.531 146.983 282.589 150.986 285.889C156.622 290.008 163.554 291.418 170.423 290.357C175.422 289.396 180.17 286.801 183.256 282.704C187.45 276.295 187.907 268.244 186.514 260.856C186.388 260.26 186.251 259.667 186.107 259.075C186.059 258.874 186.011 258.674 185.962 258.467C184.483 252.493 181.819 246.729 177.449 242.335C177.279 242.155 177.109 241.975 176.933 241.79C173.683 238.618 169.322 237.319 164.899 237.321C159.769 237.454 155.422 240.283 152.159 244.103Z" fill="black"/>
<path d="M254.797 234.543C254.988 234.543 255.178 234.543 255.374 234.543C255.703 235.444 256.026 236.346 256.349 237.249C256.44 237.5 256.532 237.751 256.626 238.01C259.188 245.216 258.608 253.505 255.41 260.422C254.955 261.343 254.456 262.233 253.931 263.116C253.75 263.423 253.569 263.73 253.382 264.046C247.261 273.748 236.462 280.241 225.461 282.82C225.142 282.89 224.822 282.959 224.493 283.03C224.143 283.116 224.143 283.116 223.786 283.204C222.763 283.364 221.776 283.336 220.741 283.319C220.112 279.984 219.616 276.638 219.151 273.276C218.843 271.086 218.476 268.931 217.975 266.778C217.857 266.015 217.889 265.567 218.143 264.847C218.35 264.942 218.556 265.036 218.769 265.133C221.995 266.547 224.927 267.228 228.443 267.265C228.693 267.269 228.944 267.273 229.201 267.277C233.157 267.248 236.339 265.54 239.201 262.885C241.049 260.892 242.121 258.422 242.549 255.756C243.103 254.407 243.971 253.766 245.067 252.831C250.386 248.2 253.762 241.463 254.797 234.543Z" fill="#3A9592"/>
<path d="M123.117 163.039C126.262 165.155 128.09 168.235 128.961 171.914C129.346 176.217 128.452 179.702 125.787 183.17C123.891 185.347 120.585 187.287 117.677 187.554C113.701 187.697 110.589 187.414 107.315 184.901C107.083 184.746 107.083 184.746 106.845 184.587C105.586 183.66 104.823 182.51 104.05 181.167C103.953 180.998 103.856 180.83 103.755 180.656C102.09 177.628 101.933 174.031 102.597 170.673C103.922 166.738 106.318 163.983 109.985 162.137C114.403 159.986 118.974 160.589 123.117 163.039Z" fill="#F4A99C"/>
<path d="M223.519 163.342C226.274 165.313 228.121 168.219 229.025 171.494C229.531 175.679 228.818 179.478 226.224 182.881C223.817 185.529 220.721 187.254 217.121 187.596C213.427 187.635 210.701 186.834 207.753 184.613C207.378 184.363 207.378 184.363 206.996 184.108C204.517 181.76 203.082 178.575 202.778 175.188C202.676 171.268 203.993 167.656 206.671 164.77C207.862 163.658 209.194 162.844 210.639 162.101C210.831 162.002 211.022 161.903 211.219 161.801C215.136 160.157 220.077 161.121 223.519 163.342Z" fill="#F4A99C"/>
<path d="M138.197 183.458C139.146 184.207 139.765 185.237 140.437 186.227C144.528 192.135 151.252 194.878 158.112 196.157C167.451 197.767 178.228 196.912 186.223 191.463C187.078 190.842 187.896 190.198 188.705 189.519C188.896 189.36 189.088 189.201 189.285 189.038C190.686 187.763 191.564 186.186 192.487 184.553C193.03 183.753 193.286 183.463 194.188 183.17C195.172 183.065 195.781 183.111 196.696 183.494C197.557 184.192 197.872 184.715 198.229 185.767C198.279 188.778 196.295 191.028 194.322 193.126C186.983 200.582 176.997 203.557 166.68 203.715C155.58 203.679 145.423 200.789 137.259 193.018C135.298 191.02 133.45 188.697 133.477 185.787C133.662 184.71 134.242 184.202 135.022 183.458C136.146 183.083 137.082 183.087 138.197 183.458Z" fill="black"/>
<path d="M167.636 75.5166C171.497 77.3172 173.651 84.8922 175.011 88.6119C175.892 91.0546 176.774 93.4991 177.449 96.0082C175.928 96.0351 174.52 95.94 173.011 95.7196C170.348 95.3836 167.682 95.3653 165.002 95.3588C164.796 95.3574 164.59 95.3559 164.378 95.3545C161.38 95.3373 158.479 95.5708 155.514 96.0082C155.742 94.7288 156.186 93.6765 156.777 92.5268C156.879 92.3269 156.98 92.127 157.085 91.921C157.424 91.2614 157.767 90.6042 158.112 89.9473C158.229 89.7225 158.346 89.4977 158.466 89.2661C159.965 86.4045 161.579 83.6413 163.361 80.9462C163.522 80.7013 163.683 80.4564 163.848 80.2041C164.985 78.5178 166.251 77.0048 167.636 75.5166Z" fill="#3A9592"/>
<path d="M212.371 92.5447C212.519 95.1829 212.308 97.6313 211.83 100.229C211.78 100.503 211.73 100.776 211.678 101.058C211.434 102.316 211.186 103.498 210.639 104.666C208.633 103.407 206.652 102.115 204.692 100.786C203.527 100.002 202.341 99.2893 201.115 98.6056C202.116 97.4774 203.269 96.7901 204.56 96.0441C204.885 95.855 204.885 95.855 205.216 95.662C210.641 92.5447 210.641 92.5447 212.371 92.5447Z" fill="#3A9592"/>
<path d="M121.169 91.9675C122.934 92.5034 124.545 93.1639 126.166 94.0419C126.48 94.2102 126.48 94.2102 126.801 94.3818C128.658 95.3904 130.41 96.5194 132.136 97.7398C131.005 98.708 129.831 99.4024 128.529 100.103C126.603 101.157 124.814 102.324 123.038 103.612C122.323 104.089 122.323 104.089 121.746 104.089C120.992 100.071 121.111 96.0409 121.169 91.9675Z" fill="#3A9592"/>
<path d="M152.916 170.182C154.535 170.924 155.803 171.898 156.498 173.564C156.83 174.848 156.877 176.089 156.668 177.397C156.149 178.264 155.831 178.682 154.937 179.129C153.472 179.369 152.337 179.269 151.095 178.426C149.738 177.275 149.072 175.922 148.768 174.181C148.678 172.718 149.111 171.863 150.03 170.759C151.14 170.02 151.595 170.012 152.916 170.182Z" fill="black"/>
<path d="M181.489 170.182C182.334 170.706 183.058 171.299 183.51 172.202C183.738 174.137 183.637 175.608 182.48 177.208C181.333 178.534 180.388 179.078 178.639 179.219C177.699 179.209 177.443 179.125 176.601 178.606C175.626 177.572 175.616 176.561 175.638 175.206C175.86 173.257 176.931 172.002 178.406 170.796C179.405 170.127 180.32 170.044 181.489 170.182Z" fill="black"/>
<path d="M126.143 153.014C126.3 153.008 126.3 153.008 126.46 153.003C127.114 153.094 127.518 153.55 127.961 154.051C128.059 154.159 128.156 154.268 128.256 154.379C128.451 154.601 128.646 154.823 128.84 155.045C131.1 157.39 134.172 158.035 137.187 157.956C139.983 157.833 142.771 156.641 144.675 154.384C144.804 154.228 144.932 154.069 145.059 153.91C145.472 153.392 145.744 153.092 146.372 153.002C147.127 152.99 147.719 153.014 148.293 153.592C148.729 154.118 148.955 154.631 149 155.343C148.922 156.771 147.842 157.972 146.925 158.896C145.137 160.576 143.082 161.591 140.832 162.296C140.7 162.339 140.7 162.339 140.567 162.383C136.625 163.644 132.057 162.9 128.474 160.809C126.927 159.866 124.609 158.106 124.044 156.176C123.937 155.2 123.996 154.517 124.542 153.728C125.056 153.206 125.447 153.027 126.143 153.014Z" fill="black"/>
<path d="M187.187 154.014C187.303 154.009 187.418 154.005 187.537 154C188.326 154.115 188.796 154.686 189.29 155.263C191.037 157.225 193.711 158.271 196.309 158.495C199.364 158.654 202.592 158.121 204.952 156.035C205.345 155.661 205.713 155.275 206.065 154.862C206.438 154.428 206.729 154.104 207.321 154.014C208.03 153.975 208.608 154.106 209.173 154.546C209.628 155.039 209.884 155.48 210 156.143C209.883 157.429 208.909 158.495 207.969 159.295C204.344 162.251 199.808 163.361 195.176 162.899C194.468 162.797 193.781 162.638 193.093 162.444C192.969 162.411 192.969 162.411 192.843 162.376C189.994 161.584 187.048 159.863 185.377 157.377C185.065 156.819 184.911 156.291 185.054 155.657C185.476 154.712 186.122 154.042 187.187 154.014Z" fill="black"/>
<path d="M205.467 109.004C205.602 109.002 205.602 109.002 205.741 109.001C205.84 109.001 205.938 109.001 206.04 109C206.146 109 206.251 108.999 206.356 108.998C206.643 108.996 206.929 108.995 207.215 108.995C207.394 108.994 207.572 108.994 207.751 108.993C208.311 108.991 208.872 108.989 209.432 108.989C210.077 108.988 210.723 108.986 211.369 108.981C211.869 108.978 212.368 108.976 212.868 108.976C213.166 108.976 213.464 108.975 213.763 108.973C214.043 108.97 214.324 108.97 214.605 108.971C214.756 108.971 214.908 108.969 215.059 108.967C215.577 108.972 215.909 109.01 216.303 109.36C216.901 109.975 216.975 110.498 216.979 111.33C216.98 111.422 216.981 111.514 216.982 111.609C216.984 111.803 216.984 111.998 216.985 112.192C216.986 112.488 216.991 112.784 216.996 113.079C216.997 113.269 216.998 113.458 216.998 113.648C217 113.735 217.002 113.823 217.004 113.913C216.999 114.564 216.811 114.958 216.414 115.469C216.362 115.537 216.362 115.537 216.308 115.606C216.216 115.721 216.118 115.831 216.021 115.941C215.949 116.024 215.878 116.107 215.807 116.189C215.771 116.231 215.735 116.273 215.698 116.316C215.484 116.568 215.283 116.829 215.08 117.089C214.867 117.363 214.652 117.634 214.434 117.904C213.78 118.716 213.155 119.549 212.546 120.395C212.515 120.438 212.484 120.481 212.452 120.525C212.305 120.731 212.179 120.935 212.069 121.163C212.135 121.161 212.202 121.159 212.271 121.156C212.867 121.136 213.463 121.118 214.06 121.102C214.384 121.093 214.708 121.082 215.032 121.07C215.168 121.067 215.304 121.063 215.44 121.06C215.5 121.057 215.56 121.054 215.621 121.051C216.084 121.045 216.412 121.199 216.789 121.463C217.11 121.791 217.257 122.123 217.259 122.582C217.26 122.654 217.261 122.725 217.261 122.799C217.261 122.914 217.261 122.914 217.261 123.031C217.262 123.11 217.262 123.19 217.262 123.272C217.263 123.44 217.263 123.608 217.262 123.776C217.262 124.032 217.264 124.288 217.266 124.544C217.266 124.708 217.266 124.871 217.266 125.035C217.267 125.111 217.267 125.187 217.268 125.265C217.265 125.771 217.224 126.231 216.888 126.635C216.844 126.668 216.801 126.701 216.756 126.736C216.713 126.77 216.67 126.805 216.625 126.841C216.322 127.045 216.112 127.101 215.742 127.102C215.605 127.103 215.605 127.103 215.465 127.104C215.364 127.104 215.262 127.104 215.161 127.104C215.054 127.105 214.947 127.105 214.84 127.106C214.55 127.107 214.26 127.107 213.97 127.108C213.789 127.108 213.607 127.108 213.426 127.108C212.793 127.11 212.159 127.11 211.526 127.11C210.937 127.11 210.347 127.112 209.757 127.114C209.251 127.116 208.744 127.117 208.237 127.117C207.935 127.117 207.633 127.117 207.33 127.119C207.046 127.12 206.761 127.12 206.476 127.119C206.372 127.119 206.268 127.119 206.164 127.12C205.511 127.126 204.991 127.113 204.499 126.636C204.449 126.562 204.449 126.562 204.398 126.488C204.363 126.439 204.329 126.391 204.293 126.34C204.12 126.044 204.033 125.787 204.027 125.443C204.025 125.337 204.025 125.337 204.023 125.229C204.022 125.154 204.021 125.078 204.021 125.001C204.02 124.882 204.02 124.882 204.018 124.762C204.017 124.595 204.016 124.428 204.015 124.261C204.014 124.008 204.009 123.756 204.004 123.503C203.989 121.934 203.989 121.934 204.501 121.238C204.544 121.176 204.587 121.113 204.631 121.049C204.766 120.859 204.908 120.676 205.053 120.493C205.16 120.356 205.266 120.219 205.373 120.082C205.427 120.013 205.481 119.944 205.537 119.873C205.798 119.539 206.056 119.201 206.313 118.864C206.363 118.799 206.413 118.733 206.464 118.666C206.826 118.192 207.176 117.709 207.522 117.223C207.832 116.791 208.159 116.374 208.495 115.962C208.69 115.728 208.69 115.728 208.847 115.469C208.805 115.468 208.764 115.468 208.721 115.468C208.286 115.467 207.85 115.463 207.415 115.457C207.253 115.455 207.091 115.454 206.929 115.454C206.695 115.453 206.461 115.45 206.227 115.447C206.156 115.447 206.084 115.447 206.01 115.447C205.438 115.435 204.913 115.291 204.505 114.868C204.055 114.311 204.027 113.769 204.026 113.076C204.026 112.989 204.025 112.903 204.025 112.814C204.024 112.632 204.023 112.45 204.023 112.268C204.023 111.99 204.02 111.712 204.018 111.435C204.017 111.257 204.017 111.08 204.017 110.903C204.016 110.82 204.015 110.737 204.013 110.652C204.016 110.167 204.061 109.868 204.351 109.474C204.709 109.143 204.979 109.006 205.467 109.004Z" fill="black"/>
<path d="M214.916 111.123C215.101 113.848 215.101 113.848 214.49 114.551C214.358 114.692 214.222 114.827 214.081 114.96C213.841 115.191 213.642 115.455 213.436 115.717C213.355 115.816 213.273 115.916 213.192 116.016C212.88 116.399 212.587 116.795 212.293 117.192C211.666 118.033 211.037 118.873 210.384 119.694C209.354 120.892 209.354 120.892 208.997 122.362C209.083 122.698 209.237 122.842 209.521 123.036C209.784 123.124 209.996 123.123 210.273 123.127C210.327 123.127 210.38 123.128 210.435 123.129C210.612 123.131 210.788 123.133 210.964 123.135C211.087 123.136 211.209 123.138 211.331 123.14C211.653 123.144 211.975 123.148 212.297 123.151C212.625 123.155 212.954 123.159 213.282 123.163C213.927 123.171 214.571 123.179 215.216 123.186C215.216 123.78 215.216 124.373 215.216 124.984C212.174 124.984 209.133 124.984 205.999 124.984C205.999 122.251 205.999 122.251 206.76 121.45C206.809 121.402 206.858 121.355 206.908 121.305C207.128 121.082 207.306 120.832 207.489 120.578C207.562 120.479 207.635 120.381 207.709 120.283C207.747 120.232 207.785 120.181 207.824 120.128C208.06 119.815 208.299 119.503 208.538 119.192C208.971 118.625 209.397 118.054 209.819 117.479C210.103 117.092 210.389 116.708 210.678 116.326C211.505 115.371 211.505 115.371 211.844 114.232C211.789 113.872 211.656 113.694 211.394 113.445C211.143 113.362 210.948 113.359 210.683 113.355C210.634 113.354 210.585 113.354 210.535 113.353C210.373 113.351 210.211 113.349 210.049 113.347C209.937 113.345 209.825 113.344 209.713 113.342C209.417 113.338 209.122 113.334 208.827 113.331C208.525 113.327 208.224 113.323 207.923 113.319C207.332 113.311 206.74 113.303 206.149 113.296C206.149 112.603 206.149 111.911 206.149 111.198C206.838 111.185 207.526 111.172 208.214 111.16C208.266 111.159 208.318 111.158 208.371 111.157C210.553 111.12 212.734 111.114 214.916 111.123Z" fill="#AADCE7"/>
<path d="M221.496 103.18C221.675 103.178 221.675 103.178 221.857 103.177C221.987 103.176 222.118 103.176 222.252 103.176C222.391 103.175 222.53 103.174 222.669 103.173C223.047 103.17 223.424 103.169 223.802 103.168C224.038 103.168 224.274 103.167 224.51 103.166C225.249 103.163 225.988 103.161 226.727 103.161C227.579 103.16 228.431 103.156 229.283 103.151C229.942 103.146 230.601 103.144 231.261 103.144C231.654 103.144 232.048 103.143 232.441 103.139C232.811 103.136 233.182 103.135 233.552 103.137C233.752 103.137 233.952 103.135 234.151 103.132C234.834 103.138 235.273 103.189 235.793 103.65C236.581 104.461 236.679 105.152 236.685 106.249C236.686 106.371 236.688 106.492 236.689 106.618C236.691 106.874 236.692 107.131 236.692 107.387C236.694 107.777 236.7 108.167 236.707 108.557C236.708 108.808 236.709 109.058 236.71 109.308C236.712 109.423 236.715 109.539 236.718 109.658C236.711 110.516 236.463 111.037 235.94 111.71C235.87 111.8 235.87 111.8 235.8 111.891C235.677 112.042 235.549 112.188 235.421 112.334C235.326 112.443 235.232 112.552 235.138 112.661C235.09 112.716 235.043 112.771 234.994 112.827C234.713 113.16 234.447 113.505 234.18 113.848C233.898 114.209 233.614 114.567 233.327 114.923C232.463 115.994 231.64 117.093 230.836 118.21C230.795 118.266 230.754 118.323 230.712 118.381C230.518 118.654 230.351 118.922 230.206 119.223C230.294 119.22 230.382 119.217 230.472 119.214C231.259 119.188 232.046 119.163 232.833 119.142C233.261 119.13 233.688 119.116 234.116 119.1C234.295 119.096 234.475 119.091 234.655 119.087C234.733 119.083 234.812 119.08 234.893 119.076C235.504 119.067 235.937 119.27 236.434 119.618C236.857 120.052 237.051 120.49 237.054 121.095C237.055 121.19 237.056 121.284 237.057 121.381C237.057 121.533 237.057 121.533 237.057 121.687C237.057 121.792 237.058 121.897 237.058 122.005C237.059 122.227 237.059 122.449 237.058 122.671C237.058 123.008 237.06 123.346 237.063 123.684C237.063 123.9 237.063 124.116 237.063 124.332C237.064 124.432 237.065 124.532 237.066 124.636C237.062 125.302 237.008 125.909 236.564 126.442C236.507 126.486 236.45 126.53 236.391 126.576C236.334 126.621 236.277 126.667 236.218 126.714C235.818 126.984 235.54 127.058 235.053 127.059C234.872 127.061 234.872 127.061 234.687 127.062C234.553 127.062 234.42 127.062 234.286 127.062C234.145 127.062 234.004 127.063 233.863 127.064C233.48 127.065 233.097 127.066 232.715 127.066C232.475 127.066 232.236 127.067 231.997 127.067C231.161 127.069 230.326 127.07 229.49 127.07C228.712 127.069 227.934 127.072 227.157 127.075C226.488 127.077 225.82 127.078 225.151 127.078C224.752 127.078 224.353 127.079 223.954 127.081C223.579 127.083 223.203 127.083 222.828 127.081C222.69 127.081 222.553 127.082 222.416 127.083C221.554 127.09 220.867 127.073 220.219 126.443C220.153 126.347 220.153 126.347 220.085 126.248C220.04 126.184 219.994 126.12 219.947 126.054C219.719 125.663 219.604 125.323 219.596 124.87C219.593 124.731 219.593 124.731 219.59 124.588C219.59 124.488 219.589 124.389 219.588 124.286C219.586 124.13 219.586 124.13 219.584 123.971C219.583 123.751 219.581 123.531 219.581 123.311C219.579 122.977 219.572 122.644 219.566 122.31C219.545 120.241 219.545 120.241 220.221 119.322C220.278 119.24 220.334 119.157 220.393 119.072C220.572 118.822 220.759 118.581 220.95 118.339C221.091 118.159 221.231 117.978 221.372 117.797C221.443 117.706 221.514 117.615 221.588 117.521C221.933 117.08 222.273 116.635 222.612 116.189C222.678 116.103 222.744 116.017 222.811 115.929C223.288 115.302 223.75 114.666 224.207 114.025C224.617 113.455 225.047 112.905 225.491 112.361C225.748 112.052 225.748 112.052 225.955 111.71C225.9 111.71 225.845 111.709 225.789 111.709C225.215 111.707 224.641 111.702 224.066 111.695C223.853 111.692 223.639 111.691 223.425 111.69C223.116 111.689 222.808 111.685 222.499 111.681C222.404 111.681 222.31 111.682 222.213 111.682C221.457 111.666 220.765 111.475 220.226 110.917C219.633 110.183 219.597 109.467 219.595 108.553C219.594 108.439 219.593 108.325 219.593 108.208C219.592 107.968 219.591 107.727 219.591 107.487C219.591 107.121 219.587 106.754 219.584 106.387C219.583 106.154 219.583 105.92 219.582 105.686C219.581 105.577 219.58 105.468 219.578 105.355C219.582 104.715 219.641 104.321 220.023 103.801C220.496 103.364 220.852 103.184 221.496 103.18Z" fill="black"/>
<path d="M233.963 105.976C234.207 109.572 234.207 109.572 233.4 110.499C233.226 110.686 233.048 110.864 232.86 111.038C232.545 111.344 232.282 111.692 232.01 112.037C231.903 112.169 231.795 112.3 231.688 112.431C231.277 112.937 230.889 113.459 230.502 113.983C229.675 115.093 228.845 116.201 227.983 117.284C226.625 118.865 226.625 118.865 226.153 120.805C226.266 121.248 226.47 121.439 226.845 121.694C227.192 121.81 227.471 121.809 227.837 121.814C227.908 121.815 227.978 121.816 228.051 121.817C228.284 121.82 228.516 121.822 228.749 121.825C228.91 121.827 229.072 121.829 229.233 121.831C229.658 121.836 230.082 121.841 230.507 121.846C230.94 121.851 231.374 121.856 231.807 121.862C232.657 121.872 233.508 121.882 234.358 121.892C234.358 122.675 234.358 123.458 234.358 124.265C230.345 124.265 226.333 124.265 222.198 124.265C222.198 120.659 222.198 120.659 223.202 119.601C223.266 119.539 223.331 119.476 223.397 119.411C223.688 119.116 223.922 118.786 224.163 118.451C224.26 118.321 224.356 118.191 224.454 118.061C224.504 117.994 224.554 117.927 224.606 117.858C224.917 117.444 225.233 117.033 225.547 116.622C226.118 115.874 226.681 115.121 227.238 114.362C227.612 113.852 227.99 113.345 228.371 112.84C229.462 111.582 229.462 111.582 229.909 110.078C229.837 109.604 229.661 109.369 229.316 109.04C228.984 108.93 228.728 108.926 228.378 108.921C228.313 108.92 228.249 108.919 228.182 108.918C227.969 108.915 227.755 108.913 227.542 108.91C227.394 108.908 227.246 108.906 227.097 108.904C226.708 108.899 226.318 108.894 225.929 108.889C225.531 108.884 225.134 108.879 224.736 108.873C223.956 108.862 223.176 108.852 222.396 108.843C222.396 107.929 222.396 107.016 222.396 106.075C223.304 106.058 224.213 106.041 225.121 106.025C225.189 106.024 225.257 106.023 225.327 106.022C228.206 105.972 231.084 105.964 233.963 105.976Z" fill="#AADCE7"/>
<path d="M242.24 96.0643C242.478 96.062 242.478 96.062 242.721 96.0597C242.895 96.0594 243.069 96.0592 243.249 96.0589C243.434 96.0576 243.619 96.0563 243.805 96.0549C244.308 96.0514 244.811 96.0497 245.315 96.0486C245.629 96.0478 245.944 96.0467 246.259 96.0455C247.244 96.0419 248.229 96.0394 249.215 96.0384C250.351 96.0372 251.487 96.0325 252.623 96.0249C253.502 96.0192 254.381 96.0165 255.26 96.0162C255.784 96.0159 256.309 96.0144 256.833 96.0097C257.327 96.0053 257.821 96.0047 258.315 96.0071C258.581 96.0074 258.848 96.0037 259.114 96C260.025 96.0083 260.609 96.0757 261.303 96.6911C262.354 97.7729 262.484 98.6938 262.492 100.157C262.494 100.319 262.496 100.481 262.497 100.648C262.5 100.99 262.501 101.332 262.502 101.674C262.504 102.194 262.512 102.714 262.522 103.234C262.523 103.568 262.524 103.901 262.525 104.235C262.529 104.389 262.532 104.542 262.536 104.701C262.527 105.846 262.196 106.54 261.499 107.437C261.406 107.557 261.406 107.557 261.312 107.679C261.149 107.881 260.978 108.075 260.807 108.269C260.68 108.414 260.555 108.56 260.429 108.705C260.366 108.779 260.303 108.852 260.238 108.927C259.863 109.371 259.508 109.83 259.151 110.289C258.777 110.77 258.398 111.247 258.014 111.722C256.863 113.15 255.765 114.615 254.694 116.104C254.639 116.179 254.585 116.255 254.528 116.332C254.269 116.696 254.047 117.054 253.853 117.455C253.971 117.451 254.088 117.447 254.209 117.443C255.258 117.408 256.307 117.375 257.356 117.347C257.926 117.331 258.496 117.312 259.067 117.291C259.306 117.285 259.546 117.279 259.785 117.274C259.89 117.269 259.995 117.264 260.103 117.258C260.918 117.247 261.494 117.517 262.158 117.982C262.721 118.56 262.98 119.144 262.985 119.951C262.986 120.077 262.987 120.203 262.988 120.333C262.988 120.535 262.988 120.535 262.988 120.74C262.989 120.88 262.989 121.02 262.99 121.164C262.991 121.46 262.991 121.756 262.99 122.052C262.99 122.502 262.993 122.952 262.996 123.403C262.996 123.691 262.996 123.979 262.996 124.266C262.998 124.4 262.999 124.534 263 124.672C262.994 125.56 262.923 126.369 262.331 127.08C262.255 127.139 262.179 127.198 262.1 127.258C262.024 127.319 261.948 127.38 261.87 127.443C261.337 127.803 260.966 127.901 260.316 127.903C260.074 127.905 260.074 127.905 259.828 127.907C259.65 127.907 259.472 127.907 259.293 127.906C259.105 127.907 258.917 127.908 258.729 127.909C258.219 127.911 257.709 127.912 257.198 127.912C256.879 127.912 256.56 127.913 256.241 127.914C255.127 127.916 254.013 127.917 252.899 127.917C251.862 127.917 250.825 127.92 249.788 127.924C248.896 127.927 248.005 127.929 247.114 127.928C246.582 127.928 246.05 127.929 245.518 127.932C245.017 127.934 244.516 127.934 244.016 127.933C243.833 127.932 243.649 127.933 243.466 127.934C242.318 127.944 241.402 127.921 240.537 127.082C240.449 126.953 240.449 126.953 240.359 126.822C240.298 126.736 240.237 126.651 240.175 126.563C239.87 126.042 239.717 125.589 239.707 124.985C239.703 124.798 239.703 124.798 239.699 124.608C239.698 124.476 239.697 124.343 239.696 124.206C239.694 123.998 239.694 123.998 239.691 123.785C239.689 123.492 239.687 123.198 239.686 122.905C239.684 122.46 239.675 122.016 239.667 121.571C239.639 118.812 239.639 118.812 240.54 117.587C240.616 117.477 240.691 117.367 240.769 117.254C241.008 116.92 241.257 116.598 241.512 116.277C241.7 116.036 241.887 115.795 242.074 115.554C242.169 115.432 242.265 115.311 242.363 115.186C242.822 114.597 243.276 114.004 243.729 113.41C243.816 113.295 243.904 113.181 243.994 113.063C244.63 112.228 245.246 111.379 245.855 110.524C246.401 109.764 246.975 109.031 247.567 108.306C247.91 107.894 247.91 107.894 248.185 107.437C248.112 107.437 248.039 107.437 247.964 107.437C247.198 107.434 246.433 107.427 245.667 107.417C245.382 107.414 245.097 107.412 244.812 107.411C244.4 107.41 243.989 107.405 243.577 107.399C243.451 107.399 243.326 107.4 243.196 107.4C242.188 107.379 241.266 107.124 240.547 106.38C239.756 105.401 239.708 104.447 239.705 103.228C239.704 103.076 239.703 102.924 239.703 102.768C239.701 102.448 239.701 102.127 239.701 101.807C239.7 101.318 239.695 100.83 239.69 100.341C239.69 100.029 239.689 99.7172 239.689 99.4054C239.687 99.2598 239.685 99.1143 239.683 98.9643C239.688 98.1104 239.766 97.5857 240.277 96.8922C240.907 96.3095 241.382 96.0692 242.24 96.0643Z" fill="black"/>
<path d="M258.862 99.7921C259.188 104.587 259.188 104.587 258.113 105.823C257.88 106.072 257.642 106.309 257.393 106.542C256.972 106.95 256.621 107.414 256.259 107.874C256.116 108.049 255.973 108.225 255.829 108.4C255.281 109.074 254.765 109.77 254.249 110.469C253.146 111.949 252.039 113.426 250.889 114.87C249.079 116.977 249.079 116.977 248.449 119.564C248.6 120.155 248.872 120.409 249.372 120.75C249.835 120.905 250.207 120.903 250.695 120.909C250.789 120.91 250.883 120.912 250.98 120.913C251.29 120.917 251.6 120.921 251.911 120.924C252.126 120.926 252.341 120.929 252.556 120.932C253.122 120.939 253.689 120.946 254.255 120.952C254.833 120.959 255.411 120.966 255.988 120.973C257.122 120.988 258.256 121.001 259.389 121.014C259.389 122.058 259.389 123.102 259.389 124.177C254.039 124.177 248.689 124.177 243.177 124.177C243.177 119.37 243.177 119.37 244.514 117.96C244.6 117.876 244.686 117.792 244.775 117.705C245.162 117.312 245.475 116.872 245.796 116.425C245.925 116.252 246.054 116.079 246.184 115.906C246.25 115.817 246.317 115.727 246.386 115.635C246.802 115.083 247.222 114.535 247.642 113.987C248.403 112.99 249.154 111.986 249.896 110.974C250.395 110.294 250.899 109.618 251.407 108.945C252.861 107.266 252.861 107.266 253.458 105.262C253.362 104.629 253.127 104.316 252.667 103.878C252.225 103.731 251.882 103.726 251.416 103.719C251.33 103.718 251.244 103.717 251.155 103.715C250.87 103.711 250.586 103.708 250.301 103.705C250.104 103.702 249.906 103.699 249.709 103.696C249.189 103.689 248.67 103.683 248.151 103.676C247.62 103.67 247.09 103.662 246.56 103.655C245.52 103.641 244.48 103.628 243.44 103.615C243.44 102.397 243.44 101.179 243.44 99.9239C244.651 99.9011 245.862 99.8789 247.073 99.858C247.164 99.8564 247.255 99.8549 247.349 99.8533C251.187 99.7876 255.024 99.7766 258.862 99.7921Z" fill="#AADCE7"/>
<path d="M175.4 41.007C175.483 41.0047 175.566 41.0025 175.651 41.0002C176.443 40.9939 177.143 41.1659 177.728 41.7246C178.209 42.2999 178.422 43.0217 178.427 43.7624C178.428 43.8404 178.428 43.8404 178.428 43.92C178.429 44.0875 178.429 44.2549 178.428 44.4225C178.428 44.48 178.428 44.5375 178.427 44.5968C178.423 45.4962 178.366 46.3531 178.171 47.2324C178.146 47.3525 178.146 47.3525 178.119 47.475C177.96 48.2228 177.8 48.9711 177.607 49.711C177.264 51.0366 177.384 52.248 177.774 53.5498C177.797 53.6284 177.821 53.7069 177.845 53.7879C177.926 54.0578 178.01 54.3271 178.094 54.5962C178.117 54.6696 178.117 54.6696 178.14 54.7445C178.729 56.6265 179.429 58.4585 180.157 60.2904C180.577 61.3483 180.983 62.4115 181.39 63.4748C181.522 63.8206 181.656 64.1657 181.792 64.5102C182.851 67.2209 183.751 70.0005 184.601 72.783C184.682 73.0425 184.765 73.3006 184.851 73.5585C185.556 75.693 186.155 77.8639 186.686 80.0479C186.758 80.3449 186.839 80.6385 186.925 80.9318C187.081 81.4606 187.211 81.9952 187.342 82.5305C187.556 83.3976 187.792 84.2552 188.048 85.1106C188.174 85.5309 188.289 85.9536 188.403 86.3772C188.512 86.4013 188.512 86.4013 188.623 86.4259C192.277 87.2509 196.826 88.595 199.003 91.9195C199.089 92.0607 199.173 92.2028 199.255 92.3458C199.291 92.4079 199.327 92.4699 199.364 92.5338C199.958 93.6373 200.165 94.9513 199.861 96.1794C199.476 97.3844 198.895 98.3276 198.015 99.2446C197.947 99.3179 197.88 99.3913 197.81 99.4669C195.013 102.445 190.315 103.797 186.465 104.748C186.378 104.77 186.292 104.792 186.202 104.814C184.674 105.195 183.135 105.498 181.582 105.756C181.524 105.766 181.466 105.775 181.406 105.785C179.658 106.077 177.907 106.282 176.141 106.439C176.05 106.447 175.959 106.455 175.865 106.464C175.599 106.487 175.333 106.51 175.067 106.532C174.953 106.542 174.953 106.542 174.837 106.552C173.369 106.673 171.901 106.699 170.429 106.699C170.248 106.699 170.066 106.7 169.884 106.7C169.505 106.7 169.127 106.7 168.748 106.7C168.366 106.7 167.984 106.701 167.602 106.702C165.358 106.708 163.125 106.686 160.885 106.531C160.793 106.525 160.701 106.519 160.607 106.512C159.416 106.431 158.239 106.278 157.058 106.106C156.79 106.068 156.521 106.031 156.253 105.996C150.929 105.284 144.401 104.118 139.956 100.95C139.881 100.896 139.805 100.842 139.727 100.786C138.285 99.7323 136.939 98.3965 136.313 96.6866C136.289 96.6227 136.264 96.5587 136.239 96.4928C135.904 95.4355 135.892 93.966 136.391 92.9659C136.429 92.8838 136.468 92.8017 136.508 92.717C136.81 92.1139 137.179 91.605 137.631 91.1056C137.689 91.0411 137.747 90.9767 137.807 90.9103C138.668 90.0032 139.71 89.3589 140.809 88.7801C140.857 88.7545 140.904 88.7289 140.953 88.7025C142.912 87.6497 145.089 86.9094 147.26 86.4432C147.495 86.371 147.558 86.3341 147.708 86.1446C147.804 85.9076 147.804 85.9076 147.884 85.6311C147.9 85.5799 147.915 85.5286 147.932 85.4759C147.982 85.3114 148.032 85.1467 148.081 84.9819C148.113 84.8759 148.146 84.77 148.178 84.664C148.228 84.5011 148.278 84.3381 148.327 84.1751C148.447 83.7803 148.57 83.3867 148.695 82.9935C148.881 82.4053 149.065 81.8162 149.248 81.2268C150.29 77.8688 151.377 74.5309 152.545 71.2143C152.669 70.8624 152.792 70.5102 152.914 70.1575C154.128 66.6365 155.559 63.1498 157.165 59.7897C157.243 59.6238 157.322 59.4579 157.401 59.2919C157.63 58.8108 157.862 58.3311 158.095 57.8518C158.128 57.7838 158.161 57.7157 158.195 57.6455C158.672 56.6605 159.195 55.7062 159.742 54.7578C159.84 54.5849 159.937 54.4115 160.032 54.2369C160.477 53.4272 160.97 52.6586 161.486 51.8929C161.569 51.769 161.652 51.6451 161.735 51.5212C163.404 49.0386 165.236 46.5237 167.552 44.5969C167.594 44.5611 167.637 44.5253 167.68 44.4885C169.86 42.6567 172.476 41.0331 175.4 41.007Z" fill="#AADCE7"/>
<path d="M175.4 41.007C175.483 41.0047 175.566 41.0025 175.651 41.0002C176.443 40.9939 177.143 41.1659 177.728 41.7246C178.209 42.2999 178.422 43.0217 178.427 43.7624C178.428 43.8404 178.428 43.8404 178.428 43.92C178.429 44.0875 178.429 44.2549 178.428 44.4225C178.428 44.48 178.428 44.5375 178.427 44.5968C178.423 45.4962 178.366 46.3531 178.171 47.2324C178.146 47.3525 178.146 47.3525 178.119 47.475C177.96 48.2228 177.8 48.9711 177.607 49.711C177.264 51.0366 177.384 52.248 177.774 53.5498C177.797 53.6284 177.821 53.7069 177.845 53.7879C177.926 54.0578 178.01 54.3271 178.094 54.5962C178.117 54.6696 178.117 54.6696 178.14 54.7445C178.729 56.6265 179.429 58.4585 180.157 60.2904C180.577 61.3483 180.983 62.4115 181.39 63.4748C181.522 63.8206 181.656 64.1657 181.792 64.5102C182.851 67.2209 183.751 70.0005 184.601 72.783C184.682 73.0425 184.765 73.3006 184.851 73.5585C185.556 75.693 186.155 77.8639 186.686 80.0479C186.758 80.3449 186.839 80.6385 186.925 80.9318C187.081 81.4606 187.211 81.9952 187.342 82.5305C187.556 83.3976 187.792 84.2552 188.048 85.1106C188.174 85.5309 188.289 85.9536 188.403 86.3772C188.512 86.4013 188.512 86.4013 188.623 86.4259C192.277 87.2509 196.826 88.595 199.003 91.9195C199.089 92.0607 199.173 92.2028 199.255 92.3458C199.291 92.4079 199.327 92.4699 199.364 92.5338C199.958 93.6373 200.165 94.9513 199.861 96.1794C199.476 97.3844 198.895 98.3276 198.015 99.2446C197.947 99.3179 197.88 99.3913 197.81 99.4669C195.013 102.445 190.315 103.797 186.465 104.748C186.378 104.77 186.292 104.792 186.202 104.814C184.674 105.195 183.135 105.498 181.582 105.756C181.524 105.766 181.466 105.775 181.406 105.785C179.658 106.077 177.907 106.282 176.141 106.439C176.05 106.447 175.959 106.455 175.865 106.464C175.599 106.487 175.333 106.51 175.067 106.532C174.953 106.542 174.953 106.542 174.837 106.552C173.369 106.673 171.901 106.699 170.429 106.699C170.248 106.699 170.066 106.7 169.884 106.7C169.505 106.7 169.127 106.7 168.748 106.7C168.366 106.7 167.984 106.701 167.602 106.702C165.358 106.708 163.125 106.686 160.885 106.531C160.793 106.525 160.701 106.519 160.607 106.512C159.416 106.431 158.239 106.278 157.058 106.106C156.79 106.068 156.521 106.031 156.253 105.996C150.929 105.284 144.401 104.118 139.956 100.95C139.881 100.896 139.805 100.842 139.727 100.786C138.285 99.7323 136.939 98.3965 136.313 96.6866C136.289 96.6227 136.264 96.5587 136.239 96.4928C135.904 95.4355 135.892 93.966 136.391 92.9659C136.429 92.8838 136.468 92.8017 136.508 92.717C136.81 92.1139 137.179 91.605 137.631 91.1056C137.689 91.0411 137.747 90.9767 137.807 90.9103C138.668 90.0032 139.71 89.3589 140.809 88.7801C140.857 88.7545 140.904 88.7289 140.953 88.7025C142.912 87.6497 145.089 86.9094 147.26 86.4432C147.495 86.371 147.558 86.3341 147.708 86.1446C147.804 85.9076 147.804 85.9076 147.884 85.6311C147.9 85.5799 147.915 85.5286 147.932 85.4759C147.982 85.3114 148.032 85.1467 148.081 84.9819C148.113 84.8759 148.146 84.77 148.178 84.664C148.228 84.5011 148.278 84.3381 148.327 84.1751C148.447 83.7803 148.57 83.3867 148.695 82.9935C148.881 82.4053 149.065 81.8162 149.248 81.2268C150.29 77.8688 151.377 74.5309 152.545 71.2143C152.669 70.8624 152.792 70.5102 152.914 70.1575C154.128 66.6365 155.559 63.1498 157.165 59.7897C157.243 59.6238 157.322 59.4579 157.401 59.2919C157.63 58.8108 157.862 58.3311 158.095 57.8518C158.128 57.7838 158.161 57.7157 158.195 57.6455C158.672 56.6605 159.195 55.7062 159.742 54.7578C159.84 54.5849 159.937 54.4115 160.032 54.2369C160.477 53.4272 160.97 52.6586 161.486 51.8929C161.569 51.769 161.652 51.6451 161.735 51.5212C163.404 49.0386 165.236 46.5237 167.552 44.5969C167.594 44.5611 167.637 44.5253 167.68 44.4885C169.86 42.6567 172.476 41.0331 175.4 41.007ZM175.085 43.0657C173.035 43.3142 171.222 44.4999 169.645 45.7596C169.573 45.8161 169.501 45.8727 169.427 45.931C167.891 47.163 166.571 48.6105 165.406 50.1957C165.293 50.3472 165.178 50.4967 165.062 50.646C160.974 55.9517 158.431 62.1642 155.91 68.3163C155.877 68.3957 155.845 68.4751 155.811 68.557C155.42 69.5187 155.089 70.5023 154.754 71.4846C154.652 71.7829 154.55 72.081 154.447 72.3792C154.428 72.4373 154.408 72.4954 154.387 72.5552C154.229 73.016 154.07 73.4764 153.909 73.9361C153.888 73.9972 153.866 74.0582 153.844 74.1211C153.737 74.4273 153.626 74.732 153.512 75.0358C153.411 75.3099 153.325 75.5857 153.245 75.8665C152.976 76.813 152.65 77.7395 152.327 78.6684C152.029 79.5238 151.748 80.3796 151.507 81.2528C151.392 81.669 151.264 82.0785 151.123 82.4869C150.936 83.035 150.77 83.5872 150.61 84.1438C150.437 84.746 150.257 85.3426 150.052 85.9348C149.763 86.7983 149.512 87.6743 149.253 88.5469C149.08 89.1275 148.902 89.7052 148.707 90.2787C148.414 91.0689 148.414 91.0689 148.483 91.8807C149.231 93.1935 151.465 93.7429 152.822 94.118C153.113 94.1983 153.396 94.2939 153.681 94.3903C154.315 94.596 154.965 94.7333 155.614 94.8747C155.666 94.8861 155.718 94.8974 155.772 94.9091C156.966 95.1683 158.164 95.3928 159.374 95.5627C159.432 95.5709 159.491 95.5792 159.551 95.5877C160.534 95.7244 161.518 95.8198 162.508 95.8921C162.571 95.8967 162.633 95.9012 162.697 95.9059C163.066 95.9324 163.434 95.9563 163.803 95.9781C163.923 95.9852 164.042 95.9926 164.162 96.0003C165.475 96.0834 166.79 96.0837 168.105 96.0851C168.361 96.0855 168.617 96.0865 168.873 96.0883C170.574 96.0998 172.246 96.031 173.939 95.8609C174.269 95.829 174.6 95.8035 174.932 95.7803C176.01 95.7027 177.072 95.5164 178.137 95.3355C178.359 95.2988 178.58 95.2648 178.802 95.2335C179.867 95.0834 180.908 94.8313 181.952 94.5767C182.145 94.5301 182.337 94.4852 182.53 94.442C184.057 94.0778 186.566 93.3968 187.473 92.0358C187.571 91.4018 187.396 90.8097 187.217 90.2067C187.155 89.9921 187.095 89.7768 187.035 89.5613C186.835 88.8389 186.632 88.1175 186.417 87.3994C186.258 86.8686 186.122 86.3333 185.99 85.7953C185.782 84.9525 185.544 84.1187 185.303 83.2848C185.276 83.19 185.249 83.0951 185.221 82.9974C185.167 82.8109 185.113 82.6245 185.059 82.4382C184.91 81.9228 184.779 81.4068 184.662 80.8835C184.573 80.5066 184.466 80.1357 184.358 79.7642C184.337 79.6911 184.316 79.618 184.294 79.5427C184.243 79.3662 184.191 79.1897 184.14 79.0133C183.882 79.0993 183.829 79.1626 183.66 79.367C183.413 79.6593 183.151 79.9283 182.876 80.1945C182.663 80.4159 182.592 80.5394 182.56 80.8494C182.58 81.6062 182.848 82.3556 183.088 83.0669C183.342 83.8269 183.575 84.534 183.2 85.2968C183.012 85.5866 182.851 85.7349 182.512 85.8346C182.066 85.8616 181.74 85.8092 181.33 85.6263C181.276 85.6034 181.222 85.5806 181.167 85.5571C180.781 85.3906 180.401 85.2104 180.022 85.0289C179.924 84.9824 179.827 84.936 179.729 84.8896C179.535 84.7974 179.342 84.7034 179.15 84.6084C179.06 84.5654 178.97 84.5224 178.878 84.4781C178.797 84.4389 178.717 84.3997 178.635 84.3594C178.366 84.272 178.21 84.2897 177.939 84.3618C177.771 84.4531 177.771 84.4531 177.614 84.5798C175.24 86.3171 175.24 86.3171 174.296 86.2546C173.944 86.1812 173.744 86.0008 173.53 85.7232C173.271 84.9038 173.496 83.9792 173.637 83.1507C173.926 81.9783 173.926 81.9783 173.732 80.8728C173.594 80.7256 173.45 80.6018 173.293 80.4764C173.185 80.3841 173.078 80.2918 172.97 80.1993C172.918 80.1556 172.866 80.1119 172.812 80.0669C172.626 79.9078 172.455 79.7366 172.285 79.5608C171.765 78.9978 171.765 78.9978 171.117 78.6257C171.035 78.4949 171.035 78.4949 170.962 78.3157C170.934 78.2485 170.905 78.1814 170.875 78.1122C170.757 77.6576 170.733 77.2505 170.919 76.8138C171.191 76.5349 171.449 76.4246 171.815 76.3003C171.89 76.274 171.965 76.2477 172.043 76.2207C173.049 75.912 174.104 75.8525 175.148 75.7577C175.262 75.4854 175.351 75.215 175.429 74.9302C175.452 74.8468 175.475 74.7634 175.498 74.6775C175.546 74.5039 175.593 74.3303 175.64 74.1567C176.235 71.9958 176.235 71.9958 176.878 71.4653C177.214 71.2759 177.566 71.2587 177.939 71.3394C178.837 71.7609 179.321 73.2197 179.734 74.0507C180.177 74.9869 180.177 74.9869 180.962 75.6027C181.185 75.6241 181.402 75.6386 181.625 75.6463C181.75 75.6518 181.875 75.6575 182.001 75.6632C182.092 75.6673 182.092 75.6673 182.185 75.6714C182.527 75.6889 182.868 75.7234 183.21 75.7577C183.063 75.142 182.894 74.5383 182.699 73.9361C182.672 73.8537 182.646 73.7714 182.619 73.6865C182.533 73.4208 182.448 73.1552 182.362 72.8897C182.302 72.7053 182.243 72.5209 182.184 72.3365C181.841 71.2727 181.494 70.21 181.141 69.1496C181.123 69.0957 181.105 69.0417 181.087 68.9862C180.564 67.4184 180.032 65.8447 179.385 64.3231C179.214 63.9185 179.06 63.508 178.907 63.0967C178.675 62.4741 178.437 61.8537 178.199 61.2334C178.148 61.1001 178.097 60.9667 178.046 60.8333C177.97 60.6364 177.895 60.4397 177.819 60.243C177.797 60.1844 177.775 60.1257 177.751 60.0653C177.615 59.7115 177.468 59.3646 177.311 59.0196C177.193 58.7489 177.099 58.4705 177.004 58.191C176.837 57.7046 176.667 57.2197 176.49 56.7367C176.057 55.5469 175.66 54.3607 175.381 53.1235C175.366 53.0625 175.351 53.0014 175.336 52.9386C175.023 51.5545 175.168 50.0947 175.558 48.7455C175.976 47.2714 176.25 45.8208 176.267 44.2868C176.269 44.191 176.271 44.0951 176.272 43.9964C176.272 43.862 176.272 43.862 176.272 43.7248C176.272 43.6445 176.272 43.5642 176.272 43.4814C176.251 43.2708 176.251 43.2708 176.092 43.1365C175.772 42.966 175.434 43.0351 175.085 43.0657Z" fill="black"/>
<path d="M188.946 88.78C189.399 88.8303 189.814 88.9453 190.249 89.0804C190.314 89.1003 190.379 89.1202 190.446 89.1407C190.577 89.1808 190.708 89.2212 190.84 89.2617C191.043 89.3239 191.247 89.3842 191.45 89.4444C191.897 89.5784 192.319 89.7513 192.744 89.9427C192.809 89.972 192.874 90.0012 192.941 90.0313C193.91 90.4711 194.839 90.9258 195.689 91.5706C195.734 91.6041 195.778 91.6376 195.824 91.6722C196.694 92.3387 197.608 93.232 197.782 94.3611C197.83 95.0907 197.836 95.7218 197.472 96.3765C197.439 96.441 197.406 96.5055 197.372 96.5721C196.719 97.7197 195.635 98.5656 194.527 99.2445C194.478 99.2742 194.43 99.3039 194.38 99.3345C193.231 100.029 191.993 100.638 190.73 101.097C190.51 101.177 190.293 101.265 190.076 101.354C188.055 102.185 185.877 102.642 183.752 103.12C183.643 103.145 183.643 103.145 183.531 103.17C183.466 103.185 183.4 103.2 183.332 103.215C183.278 103.227 183.223 103.24 183.167 103.252C182.634 103.366 182.1 103.462 181.561 103.54C181.494 103.55 181.428 103.56 181.359 103.57C181.219 103.591 181.079 103.611 180.939 103.632C180.736 103.662 180.534 103.692 180.331 103.723C178.785 103.955 177.248 104.176 175.686 104.268C175.378 104.288 175.071 104.315 174.763 104.342C174.033 104.404 173.303 104.453 172.571 104.48C172.44 104.485 172.44 104.485 172.307 104.49C171.406 104.522 170.505 104.53 169.603 104.531C169.517 104.531 169.431 104.532 169.343 104.532C168.888 104.533 168.434 104.534 167.98 104.534C167.612 104.534 167.245 104.536 166.878 104.537C164.664 104.548 162.475 104.506 160.271 104.298C159.999 104.273 159.728 104.249 159.457 104.226C158.181 104.114 156.925 103.923 155.663 103.709C155.403 103.666 155.142 103.627 154.881 103.591C150.689 103.001 146.182 101.886 142.437 99.8646C142.362 99.826 142.286 99.7875 142.209 99.7477C141.315 99.282 140.528 98.7006 139.801 98.0043C139.741 97.9485 139.68 97.8927 139.618 97.8353C138.817 97.0769 138.263 96.1788 138.207 95.0635C138.187 94.1251 138.434 93.5069 139.051 92.7914C139.17 92.667 139.291 92.5442 139.414 92.4232C139.466 92.3709 139.519 92.3185 139.573 92.2645C141.229 90.7048 143.545 89.7337 145.693 89.0901C145.774 89.0655 145.855 89.0409 145.939 89.0156C146.282 88.9165 146.573 88.8454 146.933 88.8575C146.859 89.2101 146.78 89.5589 146.678 89.9046C146.377 90.9322 146.165 91.8984 146.655 92.9113C147.393 94.1693 148.988 94.9459 150.31 95.4263C150.557 95.5169 150.802 95.6126 151.046 95.7094C151.565 95.9095 152.091 96.0722 152.625 96.2263C152.755 96.2641 152.755 96.2641 152.886 96.3027C153.062 96.3539 153.237 96.4046 153.412 96.455C153.588 96.5059 153.764 96.5577 153.939 96.6104C154.63 96.815 155.324 96.9701 156.031 97.1031C156.091 97.1146 156.152 97.126 156.214 97.1378C157.841 97.4423 159.48 97.6411 161.125 97.8236C161.337 97.8477 161.549 97.8732 161.762 97.8993C165.846 98.3979 170.174 98.3984 174.258 97.9036C174.592 97.8641 174.922 97.8394 175.258 97.8267C176.214 97.79 177.143 97.6249 178.084 97.4568C178.172 97.4413 178.26 97.4257 178.351 97.4097C184.46 96.5024 184.46 96.5024 189.287 93.0909C189.781 92.2814 189.619 91.3316 189.407 90.4523C189.309 90.0743 189.208 89.698 189.101 89.3226C189.084 89.2647 189.068 89.2068 189.051 89.1471C189.016 89.0247 188.981 88.9023 188.946 88.78Z" fill="#AADCE7"/>
<path d="M166.079 56.9988C166.807 57.3148 167.209 58.1933 167.557 58.864C167.98 59.6893 167.98 59.6893 168.559 60.4095C168.785 60.42 169.009 60.4258 169.235 60.4286C169.376 60.4311 169.517 60.4337 169.658 60.4363C169.881 60.4399 170.103 60.4434 170.325 60.4464C170.54 60.4496 170.755 60.4535 170.969 60.4576C171.035 60.4583 171.1 60.4589 171.167 60.4596C171.745 60.4714 172.437 60.4932 172.9 60.8746C173.139 61.1523 173.277 61.3959 173.253 61.7714C173.004 62.8634 172.121 63.9714 171.352 64.7533C171.169 64.9585 171.169 64.9585 171.093 65.2154C171.11 65.3798 171.145 65.523 171.195 65.6805C171.21 65.7303 171.224 65.7802 171.24 65.8315C171.29 65.9883 171.345 66.1417 171.403 66.2957C171.424 66.3522 171.444 66.4087 171.465 66.4669C171.57 66.7593 171.68 67.0496 171.794 67.3386C172.064 68.0354 172.243 68.6432 172.125 69.4012C171.954 69.7828 171.727 69.995 171.35 70.1763C170.127 70.3483 168.748 69.8044 167.656 69.3073C167.588 69.2775 167.52 69.2478 167.45 69.2171C167.39 69.1893 167.329 69.1615 167.267 69.1329C167.015 69.0744 166.928 69.1222 166.699 69.2461C166.471 69.3991 166.251 69.5618 166.031 69.7258C165.516 70.1033 164.998 70.4657 164.451 70.7964C164.379 70.8403 164.307 70.8842 164.233 70.9294C163.702 71.2504 163.379 71.4091 162.746 71.339C162.395 71.1668 162.208 70.9958 162.048 70.6414C162.01 70.3602 162.012 70.0818 162.014 69.7984C162.015 69.7154 162.015 69.6323 162.015 69.5467C162.033 68.4558 162.197 67.3778 162.358 66.3006C162.311 66.278 162.264 66.2553 162.216 66.232C161.59 65.9099 161.031 65.385 160.518 64.9108C160.321 64.73 160.116 64.56 159.907 64.3927C159.69 64.1736 159.623 63.9543 159.621 63.6506C159.636 63.203 159.684 62.7793 160.008 62.4464C160.44 62.1278 160.938 61.9796 161.444 61.8214C161.863 61.687 162.273 61.5329 162.668 61.3397C162.718 61.3198 162.769 61.3 162.82 61.2796C163.11 61.1407 163.256 61.0194 163.397 60.7251C163.493 60.4399 163.575 60.1529 163.652 59.862C164.495 56.8367 164.495 56.8367 166.079 56.9988Z" fill="black"/>
<path d="M160.353 76.4462C160.889 76.7973 161.078 77.3581 161.229 77.9525C161.262 78.0753 161.295 78.198 161.328 78.3207C161.352 78.4149 161.352 78.4149 161.377 78.5109C161.461 78.8293 161.549 79.1467 161.636 79.4641C161.652 79.5219 161.668 79.5797 161.684 79.6393C161.726 79.7929 161.771 79.9459 161.816 80.0987C161.829 80.1647 161.843 80.2306 161.857 80.2986C161.988 80.5151 162.029 80.5263 162.262 80.5965C162.387 80.6269 162.513 80.6556 162.64 80.6828C162.706 80.6987 162.773 80.7146 162.842 80.7311C163.057 80.7818 163.272 80.8304 163.487 80.8787C163.7 80.9276 163.913 80.977 164.126 81.0272C164.258 81.0583 164.391 81.0886 164.523 81.1181C165.042 81.2381 165.567 81.3849 165.964 81.752C166.19 82.16 166.152 82.5944 166.079 83.0443C165.945 83.3299 165.764 83.5253 165.536 83.7419C165.48 83.7972 165.424 83.8524 165.366 83.9093C164.956 84.2938 164.515 84.6406 164.07 84.9836C163.983 85.051 163.896 85.1191 163.81 85.1879C163.717 85.2604 163.621 85.3297 163.524 85.3963C163.237 85.6058 163.237 85.6058 163.089 85.9184C163.077 86.1051 163.082 86.2828 163.095 86.4694C163.097 86.5356 163.099 86.6017 163.101 86.6698C163.117 87.0592 163.151 87.4458 163.192 87.8332C163.22 88.2086 163.229 88.5833 163.235 88.9596C163.237 89.0337 163.24 89.1078 163.242 89.1842C163.246 89.6316 163.212 89.9046 162.901 90.2531C162.527 90.4691 162.167 90.5597 161.738 90.4857C161.259 90.3031 160.849 89.999 160.44 89.696C160.349 89.6295 160.349 89.6295 160.256 89.5617C160.078 89.431 159.9 89.2995 159.723 89.1679C159.626 89.097 159.53 89.026 159.434 88.9551C158.776 88.4673 158.776 88.4673 158.56 88.2377C158.27 88.351 157.987 88.4746 157.704 88.6032C157.614 88.6436 157.525 88.6841 157.432 88.7257C157.246 88.81 157.059 88.8945 156.873 88.9794C155.498 89.597 155.498 89.597 154.868 89.57C154.803 89.5679 154.738 89.5658 154.672 89.5637C154.625 89.561 154.578 89.5583 154.529 89.5555C154.529 89.5043 154.529 89.4532 154.529 89.4005C154.484 89.3957 154.44 89.3909 154.394 89.3859C154.138 89.2936 154.057 89.1619 153.909 88.9354C153.861 88.7161 153.839 88.5457 153.836 88.325C153.836 88.2633 153.835 88.2016 153.834 88.138C153.866 87.2984 154.21 86.5163 154.511 85.7421C154.761 85.1085 154.761 85.1085 154.839 84.4395C154.758 84.2804 154.758 84.2804 154.612 84.1779C154.25 83.8609 153.97 83.5017 153.677 83.1218C153.615 83.0435 153.554 82.9651 153.49 82.8844C153.015 82.2675 152.683 81.8116 152.703 81.0077C152.778 80.6405 153.004 80.4075 153.289 80.1762C153.517 80.043 153.685 80.001 153.947 79.9965C154.016 79.995 154.084 79.9934 154.154 79.9918C154.264 79.9905 154.264 79.9905 154.375 79.9891C154.451 79.9876 154.526 79.9861 154.604 79.9846C154.844 79.9799 155.084 79.9763 155.324 79.9728C155.487 79.9698 155.65 79.9668 155.812 79.9637C156.212 79.9562 156.611 79.9497 157.01 79.9437C157.034 79.8957 157.058 79.8477 157.082 79.7982C157.461 79.0417 157.859 78.2927 158.274 77.5553C158.32 77.4732 158.366 77.3912 158.414 77.3067C158.867 76.5904 159.465 76.0794 160.353 76.4462Z" fill="black"/>
<path d="M177.551 73.8972C177.841 73.9937 177.878 74.1175 178.013 74.3794C178.055 74.4645 178.055 74.4645 178.098 74.5512C178.16 74.6709 178.222 74.7905 178.283 74.9101C178.316 74.9725 178.348 75.035 178.381 75.0993C178.548 75.4215 178.722 75.74 178.898 76.0579C178.93 76.1173 178.962 76.1767 178.996 76.2379C179.026 76.2934 179.057 76.3489 179.089 76.4061C179.115 76.455 179.142 76.5038 179.17 76.5542C179.253 76.694 179.253 76.694 179.383 76.8119C179.489 76.9203 179.489 76.9203 179.489 77.0753C179.537 77.0865 179.585 77.0977 179.634 77.1092C179.799 77.1528 179.799 77.1528 179.954 77.2303C180.075 77.2456 180.197 77.257 180.318 77.2664C180.392 77.2723 180.466 77.2783 180.543 77.2844C180.622 77.2906 180.701 77.2967 180.782 77.303C181.492 77.3609 182.195 77.4358 182.9 77.5404C182.774 77.8445 182.565 78.0608 182.342 78.2962C182.265 78.3793 182.188 78.4625 182.11 78.5457C182.073 78.5859 182.035 78.6262 181.997 78.6677C181.134 79.527 181.134 79.527 180.792 80.6264C180.791 80.7069 180.79 80.7873 180.789 80.8702C180.807 81.1147 180.866 81.2696 180.962 81.4936C181.014 81.6936 181.064 81.8932 181.112 82.0944C181.197 82.4461 181.285 82.7903 181.407 83.1311C181.5 83.3933 181.526 83.6161 181.504 83.8966C181.18 83.7723 180.868 83.6261 180.556 83.4748C180.477 83.4367 180.477 83.4367 180.397 83.3978C180.286 83.3444 180.176 83.2909 180.065 83.2374C179.895 83.1552 179.726 83.0733 179.556 82.9914C179.448 82.9394 179.341 82.8874 179.233 82.8353C179.157 82.7985 179.157 82.7985 179.079 82.7609C178.723 82.5877 178.723 82.5877 178.636 82.5013C178.073 82.4137 177.719 82.5798 177.26 82.8889C177.2 82.9274 177.14 82.9658 177.079 83.0054C176.957 83.0833 176.836 83.1618 176.716 83.2409C176.468 83.4032 176.218 83.5608 175.967 83.7173C175.889 83.7672 175.81 83.8171 175.73 83.8684C175.536 83.9741 175.536 83.9741 175.303 83.9741C175.314 83.7141 175.325 83.4541 175.337 83.1941C175.34 83.121 175.343 83.0479 175.346 82.9726C175.364 82.5779 175.397 82.1945 175.458 81.8037C175.574 80.972 175.574 80.972 175.297 80.2053C175.065 79.9132 174.797 79.6579 174.528 79.4007C174.348 79.2235 174.17 79.0456 173.991 78.8674C173.872 78.7495 173.753 78.6326 173.632 78.5167C173.55 78.4371 173.55 78.4371 173.466 78.3558C173.416 78.3087 173.367 78.2617 173.316 78.2131C173.21 78.083 173.21 78.083 173.21 77.8505C173.425 77.7788 173.587 77.7554 173.811 77.7396C173.884 77.7339 173.957 77.7282 174.032 77.7224C174.183 77.711 174.334 77.7001 174.485 77.6897C175.183 77.6336 175.813 77.5316 176.352 77.0593C176.603 76.7528 176.726 76.3959 176.834 76.0192C177.047 75.303 177.301 74.6011 177.551 73.8972Z" fill="#F8E482"/>
<path d="M165.691 59.5571C165.939 59.6612 166.05 59.7506 166.179 59.9856C166.21 60.0402 166.241 60.0949 166.273 60.1511C166.305 60.2093 166.337 60.2675 166.37 60.3274C166.936 61.3825 166.936 61.3825 167.784 62.1926C168.035 62.2349 168.281 62.2288 168.534 62.2229C168.606 62.2225 168.678 62.222 168.752 62.2216C168.98 62.2198 169.208 62.216 169.436 62.212C169.591 62.2104 169.746 62.209 169.901 62.2078C170.281 62.2043 170.66 62.199 171.04 62.1926C170.928 62.4217 170.806 62.6245 170.657 62.8321C170.402 63.1929 170.148 63.5543 169.896 63.9173C169.86 63.9695 169.823 64.0217 169.786 64.0755C169.445 64.5682 169.171 64.9831 169.257 65.6033C169.4 66.3036 169.62 66.9069 169.934 67.549C170.061 67.8389 170.097 68.0797 170.11 68.3938C169.738 68.3453 169.406 68.239 169.059 68.1052C168.946 68.0631 168.833 68.0209 168.721 67.9788C168.545 67.9126 168.37 67.8462 168.195 67.7793C168.024 67.7143 167.854 67.6505 167.683 67.5868C167.631 67.5667 167.579 67.5466 167.526 67.5259C167.117 67.3746 166.745 67.3014 166.334 67.4748C166.266 67.5175 166.198 67.5601 166.127 67.6041C166.048 67.6528 165.969 67.7014 165.888 67.7516C165.682 67.8838 165.477 68.0179 165.272 68.1519C165.183 68.2094 165.183 68.2094 165.093 68.268C164.977 68.3444 164.861 68.4213 164.745 68.4988C164.691 68.5343 164.637 68.5698 164.582 68.6063C164.534 68.6382 164.487 68.6701 164.437 68.7029C164.288 68.7858 164.153 68.825 163.986 68.8589C163.977 68.3961 163.988 67.9397 164.025 67.4781C164.17 66.3648 164.17 66.3648 163.81 65.3538C163.596 65.1337 163.36 64.9481 163.117 64.7615C162.88 64.5792 162.648 64.3929 162.421 64.1983C162.348 64.1374 162.275 64.0764 162.2 64.0136C162.048 63.8204 162.048 63.8204 162.064 63.5643C162.084 63.4953 162.105 63.4264 162.126 63.3553C162.201 63.3357 162.276 63.316 162.353 63.2957C162.615 63.2265 162.877 63.1562 163.14 63.0854C163.267 63.0511 163.394 63.0174 163.522 62.9838C164.095 62.825 164.484 62.6062 164.839 62.1151C164.931 61.9031 164.931 61.9031 164.996 61.6752C165.022 61.5918 165.048 61.5084 165.075 61.4225C165.114 61.2929 165.114 61.2929 165.154 61.1607C165.206 60.9898 165.259 60.8189 165.311 60.6481C165.349 60.5272 165.349 60.5272 165.386 60.4038C165.478 60.1171 165.582 59.8374 165.691 59.5571Z" fill="#F8E482"/>
<path d="M159.568 78.8584C159.619 78.8584 159.67 78.8584 159.723 78.8584C159.81 79.1409 159.897 79.4235 159.984 79.7062C160.009 79.7854 160.033 79.8646 160.059 79.9462C160.168 80.3019 160.27 80.6509 160.338 81.017C160.411 81.3641 160.552 81.5663 160.774 81.8427C160.836 81.9218 160.899 82.001 160.963 82.0825C161.201 82.3695 161.276 82.363 161.653 82.3995C161.748 82.4091 161.842 82.4186 161.94 82.4285C162.139 82.4479 162.338 82.4673 162.537 82.4866C163.057 82.5392 163.556 82.6068 164.064 82.7341C163.961 83.042 163.765 83.1377 163.506 83.3106C163.03 83.6383 162.591 83.995 162.16 84.3805C161.831 84.672 161.831 84.672 161.661 84.672C161.351 85.3673 161.402 86.063 161.413 86.8085C161.415 86.9397 161.416 87.071 161.417 87.2023C161.419 87.5216 161.423 87.8408 161.428 88.1601C161.062 88.1012 160.847 87.9561 160.566 87.7241C159.547 86.9054 159.547 86.9054 158.301 86.655C157.569 86.7385 156.859 87.0558 156.215 87.4035C156.08 87.4625 156.08 87.4625 155.847 87.4625C155.89 87.2832 155.934 87.1039 155.978 86.9248C155.998 86.8415 155.998 86.8415 156.019 86.7566C156.107 86.4026 156.207 86.0547 156.318 85.707C156.605 84.8876 156.605 84.8876 156.545 84.0519C156.318 83.6807 156.026 83.3581 155.739 83.0329C155.552 82.8164 155.379 82.5902 155.207 82.3611C155.151 82.287 155.095 82.213 155.037 82.1367C154.917 81.959 154.917 81.959 154.917 81.804C154.969 81.802 155.021 81.8001 155.074 81.7981C155.314 81.789 155.554 81.7795 155.794 81.77C155.875 81.767 155.957 81.7639 156.041 81.7608C157.118 81.7735 157.118 81.7735 158.095 81.4164C158.176 81.2896 158.253 81.16 158.327 81.0288C158.368 80.9596 158.409 80.8903 158.451 80.819C158.592 80.5773 158.734 80.3356 158.875 80.0938C158.924 80.0094 158.974 79.925 159.025 79.8381C159.072 79.7569 159.119 79.6757 159.168 79.5921C159.211 79.5182 159.255 79.4444 159.299 79.3683C159.394 79.2005 159.484 79.0321 159.568 78.8584Z" fill="#F8E482"/>
</svg>
