<svg width="188" height="289" viewBox="0 0 188 289" fill="none" xmlns="http://www.w3.org/2000/svg">
<path d="M84.3709 26.0678C88.7506 28.12 91.1857 32.702 93.3145 36.8254C93.4119 37.0127 93.5093 37.2 93.6096 37.3929C95.6703 41.4108 97.7102 45.9345 98.5096 50.3903C98.7201 50.4119 98.9307 50.4335 99.1477 50.4557C101.87 50.7986 104.333 51.5927 106.908 52.5166C107.748 52.7984 107.748 52.7984 108.611 52.9878C109.257 52.6405 109.819 52.2885 110.415 51.8694C110.779 51.6261 111.143 51.3837 111.508 51.1423C111.792 50.9544 111.792 50.9544 112.08 50.7628C117.222 47.4108 124.535 43.4813 130.834 44.3294C132.299 44.9462 132.848 45.8018 133.501 47.1874C134.828 50.8427 134.082 55.5554 133.63 59.3193C133.594 59.6245 133.559 59.9298 133.522 60.2443C133.354 61.5618 133.165 62.8269 132.771 64.0972C132.447 65.1771 132.21 66.0034 132.277 67.1299C133.109 68.3501 134.126 69.2073 135.249 70.1508C136.054 70.8753 136.707 71.7022 137.364 72.5595C137.494 72.7281 137.624 72.8967 137.757 73.0704C144.535 82.0245 147.745 92.2212 149.793 103.159C150.653 107.723 151.577 111.838 153.923 115.906C154.17 116.349 154.415 116.792 154.66 117.236C155.028 117.902 155.398 118.567 155.771 119.231C159.371 125.647 161.268 132.244 161.229 139.626C161.228 139.837 161.228 140.048 161.227 140.265C161.212 143.384 161.103 146.359 160.273 149.385C160.219 149.587 160.164 149.789 160.109 149.997C156.763 162.092 147.444 171.095 136.831 177.165C135.054 178.165 133.255 179.106 131.412 179.978C133.091 181.244 134.771 182.505 136.48 183.73C139.388 185.842 142.087 188.18 144.688 190.657C144.861 190.821 145.034 190.986 145.212 191.156C149.717 195.477 153.613 200.241 156.232 205.953C160.591 201.574 162.683 196.552 163.773 190.535C164.168 188.436 164.606 186.55 166.226 185.047C167.401 184.274 168.085 184.192 169.509 184.307C172.383 185.119 174.197 187.821 175.624 190.278C180.084 198.295 181.155 207.483 178.744 216.343C178.692 216.538 178.639 216.733 178.585 216.934C176.796 223.343 173.087 228.802 168.643 233.66C168.427 233.897 168.21 234.134 167.988 234.378C160.709 241.982 148.625 248.827 137.953 249.274C137.408 249.264 136.863 249.255 136.318 249.245C136.338 249.509 136.358 249.773 136.379 250.045C136.565 252.623 136.656 255.186 136.665 257.772C136.666 257.961 136.667 258.151 136.668 258.346C136.672 259.348 136.675 260.35 136.676 261.353C136.677 262.166 136.681 262.978 136.688 263.791C136.749 271.563 136.749 271.563 136.241 275.055C136.21 275.273 136.179 275.492 136.147 275.717C135.591 278.957 133.841 282.142 131.292 284.237C125.279 288.333 117.612 289.164 110.541 287.866C105.956 286.76 101.852 284.527 99.3033 280.452C97.3734 277.007 96.7184 273.669 96.7779 269.737C96.4772 269.787 96.4772 269.787 96.1705 269.838C95.2428 269.992 94.3147 270.144 93.3867 270.296C93.0715 270.349 92.7564 270.402 92.4318 270.456C88.6375 271.073 84.9199 271.234 81.0834 271.234C80.3173 271.234 79.5513 271.239 78.7852 271.245C73.8202 271.261 69.0235 270.742 64.1645 269.737C64.1604 270.02 64.1563 270.303 64.1521 270.595C64.0136 275.333 62.6327 279.835 59.3482 283.392C54.2429 288.124 47.4649 288.479 40.88 288.266C38.8323 288.143 36.9535 287.704 35.0145 287.054C34.6997 286.949 34.385 286.845 34.0607 286.737C30.1774 285.28 26.9786 282.669 25.2196 278.885C23.7576 275.176 23.7133 271.284 23.7202 267.348C23.7199 266.988 23.7196 266.629 23.7193 266.258C23.7191 265.499 23.7197 264.739 23.7209 263.98C23.7224 262.848 23.7209 261.717 23.719 260.585C23.7179 256.841 23.7599 253.1 23.8848 249.357C23.8956 249.025 23.9065 248.692 23.9177 248.35C24.2188 240.218 25.5861 232.099 27.2219 224.136C27.0724 224.194 26.9229 224.252 26.7689 224.312C21.3039 226.424 16.444 227.776 10.7506 225.516C7.36508 223.957 4.6685 221.55 3.19474 218.095C1.5829 213.517 2.41322 209.327 4.37625 205.053C6.8726 199.918 10.5442 195.566 14.5228 191.523C14.8057 191.229 15.0883 190.935 15.3707 190.641C16.8508 189.123 18.3851 187.736 20.0437 186.417C20.6273 185.947 21.1983 185.474 21.7641 184.985C23.7208 183.292 25.7317 181.742 27.8566 180.266C28.6588 179.727 28.6588 179.727 29.2422 179.112C29.0592 179.019 28.8763 178.927 28.6878 178.831C21.8779 175.363 21.8779 175.363 19.1407 173.34C18.8378 173.119 18.535 172.897 18.223 172.669C15.9911 171.01 13.9371 169.196 11.9253 167.279C11.6824 167.055 11.4394 166.83 11.1891 166.599C4.24978 159.992 0.366446 151.074 0.0109655 141.547C-0.213834 131.353 3.03542 122.889 8.13063 114.166C10.6829 109.672 11.469 104.556 12.4943 99.5554C13.7891 93.2749 15.4349 87.1933 18.5634 81.5606C18.7973 81.1209 18.7973 81.1209 19.0358 80.6722C20.896 77.3032 23.3295 74.2769 25.8149 71.3509C25.9562 71.1837 26.0975 71.0166 26.2431 70.8443C26.9184 70.0622 27.5973 69.3421 28.3899 68.6778C29.8763 67.4761 29.8763 67.4761 30.4767 65.7545C30.323 64.7472 30.0753 63.7871 29.8194 62.8007C28.7704 57.3997 27.4004 49.4253 30.3605 44.4196C31.3766 43.3139 32.0094 42.9398 33.5173 42.742C35.6305 42.816 37.6583 43.6256 39.6323 44.3294C39.9076 44.4269 40.1829 44.5244 40.4666 44.6248C42.4831 45.409 44.4011 46.4099 46.3245 47.3959C46.6153 47.5432 46.9062 47.6905 47.2058 47.8422C48.5662 48.5496 49.8188 49.2557 50.9998 50.2381C53.0011 51.9358 53.0011 51.9358 55.5051 52.3521C57.4138 51.9787 59.2019 51.3318 61.02 50.6547C62.2477 50.2662 63.4599 50.1521 64.7417 50.1017C64.7756 49.8936 64.8096 49.6854 64.8445 49.471C65.0358 48.6345 65.3147 47.9735 65.6944 47.2054C65.8318 46.9271 65.9693 46.6488 66.1109 46.3621C66.2603 46.0663 66.4097 45.7706 66.5636 45.4658C66.7185 45.1585 66.8735 44.8512 67.0331 44.5346C77.6959 23.657 77.6959 23.657 84.3709 26.0678Z" fill="#ECECEB"/>
<path d="M84.3709 26.0678C88.7506 28.12 91.1857 32.702 93.3145 36.8254C93.4119 37.0127 93.5093 37.2 93.6096 37.3929C95.6703 41.4108 97.7102 45.9345 98.5096 50.3903C98.7201 50.4119 98.9307 50.4335 99.1477 50.4557C101.87 50.7986 104.333 51.5927 106.908 52.5166C107.748 52.7984 107.748 52.7984 108.611 52.9878C109.257 52.6405 109.819 52.2885 110.415 51.8694C110.779 51.6261 111.143 51.3837 111.508 51.1423C111.792 50.9544 111.792 50.9544 112.08 50.7628C117.222 47.4108 124.535 43.4813 130.834 44.3294C132.299 44.9462 132.848 45.8018 133.501 47.1874C134.828 50.8427 134.082 55.5554 133.63 59.3193C133.594 59.6245 133.559 59.9298 133.522 60.2443C133.354 61.5618 133.165 62.8269 132.771 64.0972C132.447 65.1771 132.21 66.0034 132.277 67.1299C133.109 68.3501 134.126 69.2073 135.249 70.1508C136.054 70.8753 136.707 71.7022 137.364 72.5595C137.494 72.7281 137.624 72.8967 137.757 73.0704C144.535 82.0245 147.745 92.2212 149.793 103.159C150.653 107.723 151.577 111.838 153.923 115.906C154.17 116.349 154.415 116.792 154.66 117.236C155.028 117.902 155.398 118.567 155.771 119.231C159.371 125.647 161.268 132.244 161.229 139.626C161.228 139.837 161.228 140.048 161.227 140.265C161.212 143.384 161.103 146.359 160.273 149.385C160.219 149.587 160.164 149.789 160.109 149.997C156.763 162.092 147.444 171.095 136.831 177.165C135.054 178.165 133.255 179.106 131.412 179.978C133.091 181.244 134.771 182.505 136.48 183.73C139.388 185.842 142.087 188.18 144.688 190.657C144.861 190.821 145.034 190.986 145.212 191.156C149.717 195.477 153.613 200.241 156.232 205.953C160.591 201.574 162.683 196.552 163.773 190.535C164.168 188.436 164.606 186.55 166.226 185.047C167.401 184.274 168.085 184.192 169.509 184.307C172.383 185.119 174.197 187.821 175.624 190.278C180.084 198.295 181.155 207.483 178.744 216.343C178.692 216.538 178.639 216.733 178.585 216.934C176.796 223.343 173.087 228.802 168.643 233.66C168.427 233.897 168.21 234.134 167.988 234.378C160.709 241.982 148.625 248.827 137.953 249.274C137.408 249.264 136.863 249.255 136.318 249.245C136.338 249.509 136.358 249.773 136.379 250.045C136.565 252.623 136.656 255.186 136.665 257.772C136.666 257.961 136.667 258.151 136.668 258.346C136.672 259.348 136.675 260.35 136.676 261.353C136.677 262.166 136.681 262.978 136.688 263.791C136.749 271.563 136.749 271.563 136.241 275.055C136.21 275.273 136.179 275.492 136.147 275.717C135.591 278.957 133.841 282.142 131.292 284.237C125.279 288.333 117.612 289.164 110.541 287.866C105.956 286.76 101.852 284.527 99.3033 280.452C97.3734 277.007 96.7184 273.669 96.7779 269.737C96.4772 269.787 96.4772 269.787 96.1705 269.838C95.2428 269.992 94.3147 270.144 93.3867 270.296C93.0715 270.349 92.7564 270.402 92.4318 270.456C88.6375 271.073 84.9199 271.234 81.0834 271.234C80.3173 271.234 79.5513 271.239 78.7852 271.245C73.8202 271.261 69.0235 270.742 64.1645 269.737C64.1604 270.02 64.1563 270.303 64.1521 270.595C64.0136 275.333 62.6327 279.835 59.3482 283.392C54.2429 288.124 47.4649 288.479 40.88 288.266C38.8323 288.143 36.9535 287.704 35.0145 287.054C34.6997 286.949 34.385 286.845 34.0607 286.737C30.1774 285.28 26.9786 282.669 25.2196 278.885C23.7576 275.176 23.7133 271.284 23.7202 267.348C23.7199 266.988 23.7196 266.629 23.7193 266.258C23.7191 265.499 23.7197 264.739 23.7209 263.98C23.7224 262.848 23.7209 261.717 23.719 260.585C23.7179 256.841 23.7599 253.1 23.8848 249.357C23.8956 249.025 23.9065 248.692 23.9177 248.35C24.2188 240.218 25.5861 232.099 27.2219 224.136C27.0724 224.194 26.9229 224.252 26.7689 224.312C21.3039 226.424 16.444 227.776 10.7506 225.516C7.36508 223.957 4.6685 221.55 3.19474 218.095C1.5829 213.517 2.41322 209.327 4.37625 205.053C6.8726 199.918 10.5442 195.566 14.5228 191.523C14.8057 191.229 15.0883 190.935 15.3707 190.641C16.8508 189.123 18.3851 187.736 20.0437 186.417C20.6273 185.947 21.1983 185.474 21.7641 184.985C23.7208 183.292 25.7317 181.742 27.8566 180.266C28.6588 179.727 28.6588 179.727 29.2422 179.112C29.0592 179.019 28.8763 178.927 28.6878 178.831C21.8779 175.363 21.8779 175.363 19.1407 173.34C18.8378 173.119 18.535 172.897 18.223 172.669C15.9911 171.01 13.9371 169.196 11.9253 167.279C11.6824 167.055 11.4394 166.83 11.1891 166.599C4.24978 159.992 0.366446 151.074 0.0109655 141.547C-0.213834 131.353 3.03542 122.889 8.13063 114.166C10.6829 109.672 11.469 104.556 12.4943 99.5554C13.7891 93.2749 15.4349 87.1933 18.5634 81.5606C18.7973 81.1209 18.7973 81.1209 19.0358 80.6722C20.896 77.3032 23.3295 74.2769 25.8149 71.3509C25.9562 71.1837 26.0975 71.0166 26.2431 70.8443C26.9184 70.0622 27.5973 69.3421 28.3899 68.6778C29.8763 67.4761 29.8763 67.4761 30.4767 65.7545C30.323 64.7472 30.0753 63.7871 29.8194 62.8007C28.7704 57.3997 27.4004 49.4253 30.3605 44.4196C31.3766 43.3139 32.0094 42.9398 33.5173 42.742C35.6305 42.816 37.6583 43.6256 39.6323 44.3294C39.9076 44.4269 40.1829 44.5244 40.4666 44.6248C42.4831 45.409 44.4011 46.4099 46.3245 47.3959C46.6153 47.5432 46.9062 47.6905 47.2058 47.8422C48.5662 48.5496 49.8188 49.2557 50.9998 50.2381C53.0011 51.9358 53.0011 51.9358 55.5051 52.3521C57.4138 51.9787 59.2019 51.3318 61.02 50.6547C62.2477 50.2662 63.4599 50.1521 64.7417 50.1017C64.7756 49.8936 64.8096 49.6854 64.8445 49.471C65.0358 48.6345 65.3147 47.9735 65.6944 47.2054C65.8318 46.9271 65.9693 46.6488 66.1109 46.3621C66.2603 46.0663 66.4097 45.7706 66.5636 45.4658C66.7185 45.1585 66.8735 44.8512 67.0331 44.5346C77.6959 23.657 77.6959 23.657 84.3709 26.0678ZM69.2021 55.5624C67.7691 56.1927 66.2248 56.5241 64.7139 56.9222C56.6666 59.0601 49.0996 62.3817 42.2298 67.1299C42.0654 67.2421 41.9009 67.3543 41.7315 67.4698C39.3228 69.1172 37.0587 70.8938 34.8644 72.8167C34.4658 73.1658 34.0644 73.5116 33.6627 73.8571C30.3778 76.732 27.835 79.9245 25.4902 83.5809C25.3822 83.7487 25.2743 83.9164 25.1631 84.0892C21.4962 89.8849 19.9704 96.3735 18.5713 103.004C18.5215 103.239 18.4717 103.473 18.4204 103.715C18.1726 104.884 17.9283 106.053 17.6914 107.224C16.9404 110.868 15.7968 114.167 13.9997 117.439C13.7458 117.913 13.4921 118.387 13.2387 118.862C13.0521 119.209 13.0521 119.209 12.8618 119.564C8.235 128.207 4.62237 137.832 7.52283 147.709C7.6411 148.076 7.76172 148.442 7.88472 148.808C7.94504 148.991 8.00536 149.174 8.0675 149.362C11.6365 159.866 20.7507 167.28 30.4047 172.086C33.285 173.466 36.2672 174.575 39.267 175.665C42.6948 176.924 42.6948 176.924 43.3843 177.958C43.276 179.022 43.276 179.022 43.0956 179.978C42.8422 180.057 42.5888 180.136 42.3277 180.218C31.6978 183.938 21.4682 192.429 14.8115 201.335C14.6852 201.502 14.559 201.668 14.429 201.84C13.0175 203.707 11.7383 205.605 10.6266 207.667C10.5324 207.841 10.4382 208.015 10.3411 208.194C9.16126 210.463 8.58674 212.778 9.20716 215.293C9.98383 217.35 11.5008 218.866 13.4563 219.854C16.5114 220.985 19.4401 220.226 22.3452 218.966C23.629 218.368 24.8605 217.7 26.0756 216.972C26.5888 216.665 27.1112 216.374 27.6345 216.085C30.7822 213.991 31.4087 210.487 32.4498 207.04C32.8926 205.659 33.2192 204.745 34.4372 203.933C35.6963 203.77 36.2548 203.791 37.3053 204.528C38.0596 205.603 37.9872 206.098 37.9006 207.396C37.7291 208.182 37.5422 208.936 37.32 209.706C37.2598 209.923 37.1996 210.14 37.1377 210.363C37.0093 210.825 36.88 211.287 36.7496 211.748C36.4082 212.96 36.0777 214.175 35.7461 215.39C35.681 215.627 35.616 215.865 35.5489 216.11C32.958 225.59 31.5721 235.483 30.6492 245.259C30.6164 245.603 30.6164 245.603 30.5829 245.953C30.1418 250.959 30.0542 255.97 30.0545 260.992C30.0539 262.019 30.0486 263.046 30.0432 264.073C29.7227 271.939 29.7227 271.939 32.7833 278.875C36.1202 281.458 39.8509 281.674 43.9074 281.678C44.2759 281.686 44.6444 281.693 45.0241 281.7C48.5066 281.711 51.9712 281.078 54.6402 278.684C57.514 275.675 57.6793 270.824 58.0672 266.898C58.3551 264.19 58.3551 264.19 59.258 263.099C61.2265 262.115 64.1175 263.085 66.1487 263.496C76.4854 265.477 87.4206 265.565 97.6778 262.943C98.805 262.668 99.9596 262.671 101.107 262.81C102.076 263.472 102.327 264.004 102.55 265.119C102.601 265.62 102.641 266.123 102.674 266.625C103.025 273.484 103.025 273.484 106.681 279.063C109.754 281.496 113.464 281.671 117.233 281.66C117.577 281.665 117.92 281.67 118.274 281.675C122.076 281.677 125.255 281.032 128.038 278.323C130.578 274.185 130.346 269.436 130.311 264.758C130.308 264.183 130.306 263.608 130.303 263.033C130.294 261.419 130.277 259.806 130.257 258.192C130.253 257.829 130.249 257.465 130.245 257.09C130.013 241.545 127.521 225.597 123.457 210.61C122.955 208.716 122.571 207.049 122.753 205.087C123.488 204.202 123.933 203.977 125.062 203.789C126.164 203.972 126.574 204.308 127.371 205.087C127.762 206.021 127.762 206.021 128.064 207.119C128.182 207.522 128.301 207.925 128.421 208.327C128.482 208.535 128.543 208.743 128.605 208.958C129.834 213.404 129.834 213.404 133.024 216.505C133.536 216.758 134.061 216.984 134.586 217.209C134.94 217.397 135.291 217.589 135.64 217.784C138.86 219.554 142.161 220.803 145.851 219.876C147.923 219.171 149.285 218.428 150.406 216.506C151.526 214.08 151.333 211.728 150.442 209.254C148.365 204.42 145.124 200.481 141.513 196.718C141.344 196.539 141.175 196.361 141.001 196.177C135.22 190.099 128.48 185.823 121.07 181.995C120.735 181.82 120.4 181.645 120.055 181.465C119.604 181.233 119.604 181.233 119.144 180.996C118.424 180.555 118.424 180.555 117.847 179.689C117.738 178.824 117.738 178.824 117.847 177.958C118.854 176.907 120.26 176.685 121.617 176.316C133.892 172.789 145.23 165.11 151.539 153.829C152.588 151.856 153.314 149.798 153.923 147.653C154.021 147.311 154.119 146.969 154.22 146.616C156.655 136.472 152.691 126.954 147.665 118.323C147.538 118.102 147.411 117.881 147.28 117.653C147.044 117.245 146.805 116.839 146.56 116.437C144.087 112.166 143.518 107.012 142.674 102.236C140.852 91.9935 137.272 83.0562 129.969 75.4997C129.737 75.2538 129.506 75.0079 129.268 74.7545C127.353 72.7638 125.252 71.0848 123.042 69.4388C122.763 69.23 122.763 69.23 122.479 69.017C114.225 62.8729 104.973 58.6404 94.9442 56.3308C93.3967 55.9612 93.3967 55.9612 92.9048 55.4389C91.9707 54.5568 90.4837 54.6544 89.2559 54.5211C88.7666 54.4666 88.7666 54.4666 88.2674 54.411C85.4517 54.1309 82.6497 54.0566 79.8218 54.0521C79.6176 54.0511 79.4133 54.0501 79.2029 54.049C74.0512 54.0275 74.0512 54.0275 69.2021 55.5624Z" fill="black"/>
<path d="M94.204 194.155C94.892 194.701 95.548 195.265 96.2007 195.852C96.483 196.077 96.7654 196.303 97.0564 196.535C99.7248 198.755 101.547 202.05 103.127 205.088C103.223 205.269 103.319 205.45 103.418 205.637C106.579 211.685 108.35 218.474 108.611 225.291C108.62 225.486 108.63 225.681 108.64 225.883C109.004 234.182 106.812 241.794 101.322 248.135C97.469 252.131 92.5813 254.3 87.2536 255.595C86.8351 255.702 86.8351 255.702 86.4081 255.81C78.995 257.368 70.5548 255.847 64.1645 251.843C63.1454 251.13 62.2052 250.363 61.2784 249.534C61.038 249.321 60.7977 249.108 60.5501 248.888C55.298 243.951 52.5316 236.557 52.2479 229.432C51.9955 218.063 55.6266 205.797 63.5196 197.373C71.7669 188.996 84.3921 187.403 94.204 194.155Z" fill="#F2D3A3"/>
<path d="M94.204 194.155C94.892 194.701 95.548 195.265 96.2007 195.852C96.483 196.077 96.7654 196.303 97.0564 196.535C99.7248 198.755 101.547 202.05 103.127 205.088C103.223 205.269 103.319 205.45 103.418 205.637C106.579 211.685 108.35 218.474 108.611 225.291C108.62 225.486 108.63 225.681 108.64 225.883C109.004 234.182 106.812 241.794 101.322 248.135C97.469 252.131 92.5813 254.3 87.2536 255.595C86.8351 255.702 86.8351 255.702 86.4081 255.81C78.995 257.368 70.5548 255.847 64.1645 251.843C63.1454 251.13 62.2052 250.363 61.2784 249.534C61.038 249.321 60.7977 249.108 60.5501 248.888C55.298 243.951 52.5316 236.557 52.2479 229.432C51.9955 218.063 55.6266 205.797 63.5196 197.373C71.7669 188.996 84.3921 187.403 94.204 194.155ZM67.1589 203.103C60.984 211.043 58.0847 221.467 59.0337 231.45C59.71 236.531 61.983 241.589 65.9864 244.889C71.6221 249.008 78.5541 250.418 85.4227 249.357C90.4219 248.396 95.1696 245.801 98.2559 241.704C102.45 235.296 102.907 227.244 101.514 219.857C101.388 219.26 101.251 218.668 101.107 218.075C101.059 217.875 101.011 217.674 100.962 217.467C99.483 211.494 96.8189 205.729 92.4487 201.336C92.2787 201.156 92.1086 200.976 91.9335 200.79C88.6833 197.618 84.3223 196.319 79.8991 196.321C74.7694 196.454 70.4217 199.284 67.1589 203.103Z" fill="black"/>
<path d="M169.797 193.543C169.988 193.543 170.178 193.543 170.374 193.543C170.703 194.444 171.026 195.346 171.349 196.249C171.44 196.5 171.532 196.751 171.626 197.01C174.188 204.216 173.608 212.505 170.41 219.422C169.955 220.343 169.456 221.233 168.931 222.116C168.75 222.423 168.569 222.73 168.382 223.046C162.261 232.748 151.462 239.241 140.461 241.82C140.142 241.89 139.822 241.959 139.493 242.03C139.143 242.116 139.143 242.116 138.786 242.204C137.763 242.364 136.776 242.336 135.741 242.319C135.112 238.984 134.616 235.638 134.151 232.276C133.843 230.086 133.476 227.931 132.975 225.778C132.857 225.015 132.889 224.567 133.143 223.847C133.35 223.942 133.556 224.036 133.769 224.133C136.995 225.547 139.927 226.228 143.443 226.265C143.693 226.269 143.944 226.273 144.201 226.277C148.157 226.248 151.339 224.54 154.201 221.885C156.049 219.892 157.121 217.422 157.549 214.756C158.103 213.407 158.971 212.766 160.067 211.831C165.386 207.2 168.762 200.463 169.797 193.543Z" fill="#3A9592"/>
<path d="M38.117 122.039C41.2618 124.155 43.0896 127.236 43.9614 130.914C44.3457 135.217 43.4518 138.702 40.7867 142.17C38.8908 144.347 35.5852 146.288 32.6767 146.555C28.7012 146.697 25.5891 146.414 22.3154 143.901C22.0827 143.746 22.0827 143.746 21.8452 143.587C20.5857 142.66 19.8232 141.51 19.0504 140.168C18.953 139.999 18.8556 139.83 18.7552 139.656C17.0895 136.629 16.9329 133.031 17.5972 129.674C18.9221 125.739 21.3183 122.983 24.9851 121.137C29.4032 118.986 33.9739 119.589 38.117 122.039Z" fill="#F4A99C"/>
<path d="M138.519 122.342C141.274 124.313 143.121 127.219 144.025 130.494C144.531 134.679 143.818 138.478 141.225 141.881C138.817 144.53 135.722 146.255 132.121 146.596C128.427 146.636 125.701 145.834 122.753 143.613C122.378 143.363 122.378 143.363 121.996 143.108C119.517 140.76 118.082 137.575 117.778 134.188C117.676 130.268 118.993 126.656 121.671 123.771C122.862 122.658 124.194 121.844 125.639 121.101C125.831 121.002 126.022 120.903 126.219 120.801C130.136 119.158 135.077 120.121 138.519 122.342Z" fill="#F4A99C"/>
<path d="M53.1971 142.458C54.1456 143.207 54.7645 144.237 55.4373 145.227C59.5281 151.135 66.2524 153.878 73.1115 155.157C82.4514 156.767 93.2283 155.912 101.223 150.463C102.078 149.842 102.896 149.198 103.705 148.519C103.896 148.36 104.088 148.201 104.285 148.038C105.686 146.763 106.564 145.186 107.487 143.553C108.03 142.753 108.286 142.463 109.188 142.17C110.172 142.065 110.781 142.111 111.696 142.494C112.557 143.192 112.872 143.715 113.229 144.767C113.279 147.778 111.295 150.028 109.322 152.126C101.983 159.582 91.9972 162.557 81.6798 162.715C70.5804 162.679 60.4226 159.789 52.2592 152.018C50.2979 150.02 48.4499 147.697 48.4767 144.787C48.6618 143.71 49.2419 143.202 50.0224 142.458C51.1465 142.083 52.0821 142.087 53.1971 142.458Z" fill="black"/>
<path d="M82.6358 34.5166C86.4969 36.3172 88.6513 43.8922 90.0111 47.6119C90.8925 50.0546 91.774 52.4991 92.4487 55.0082C90.9277 55.0351 89.5204 54.94 88.0113 54.7196C85.3476 54.3836 82.6824 54.3653 80.0022 54.3588C79.7962 54.3574 79.5903 54.3559 79.378 54.3545C76.3802 54.3373 73.4795 54.5708 70.514 55.0082C70.7419 53.7288 71.1858 52.6765 71.7767 51.5268C71.8786 51.3269 71.9805 51.127 72.0855 50.921C72.4244 50.2614 72.7674 49.6042 73.1116 48.9473C73.2286 48.7225 73.3456 48.4977 73.4661 48.2661C74.9651 45.4045 76.5787 42.6413 78.3607 39.9462C78.5217 39.7013 78.6826 39.4564 78.8485 39.2041C79.9847 37.5178 81.2515 36.0048 82.6358 34.5166Z" fill="#3A9592"/>
<path d="M119.921 104.523C121.798 105.594 122.974 107.233 123.707 109.247C124.297 111.851 124.314 114.891 123.136 117.325C122.029 119.062 120.712 120.216 118.713 120.812C116.885 121.015 115.602 120.731 114.095 119.658C112.175 117.922 111.137 115.846 110.851 113.263C110.765 110.554 111.424 108.162 113.193 106.075C115.139 104.096 117.3 103.361 119.921 104.523Z" fill="black"/>
<path d="M47.1937 104.318C49.2881 105.491 50.6683 107.417 51.3301 109.706C51.9035 112.74 51.4076 115.553 49.8059 118.179C48.9956 119.292 48.2066 120.153 46.8476 120.524C44.7903 120.797 42.9713 120.803 41.2624 119.53C39.1531 117.536 38.5049 115.233 38.3876 112.388C38.4144 109.927 39.286 107.273 41.0753 105.516C42.9117 104.084 44.9513 103.45 47.1937 104.318Z" fill="black"/>
<path d="M127.371 51.5447C127.519 54.1829 127.308 56.6313 126.83 59.229C126.78 59.5025 126.73 59.776 126.678 60.0578C126.434 61.316 126.186 62.4981 125.639 63.6665C123.633 62.4068 121.652 61.1148 119.692 59.7855C118.527 59.0018 117.341 58.2893 116.115 57.6056C117.116 56.4774 118.269 55.7901 119.56 55.0441C119.885 54.855 119.885 54.855 120.216 54.662C125.641 51.5447 125.641 51.5447 127.371 51.5447Z" fill="#3A9592"/>
<path d="M36.1689 50.9675C37.9338 51.5034 39.5445 52.1639 41.1655 53.0419C41.4802 53.2102 41.4802 53.2102 41.8013 53.3818C43.6581 54.3904 45.4104 55.5194 47.1362 56.7398C46.0048 57.708 44.8311 58.4024 43.5285 59.1028C41.6029 60.1569 39.8139 61.3235 38.0381 62.6124C37.3233 63.0893 37.3233 63.0893 36.7461 63.0893C35.9921 59.0705 36.1112 55.0409 36.1689 50.9675Z" fill="#3A9592"/>
<path d="M67.9165 129.182C69.535 129.924 70.8027 130.898 71.4982 132.564C71.8302 133.848 71.8773 135.089 71.6684 136.397C71.1486 137.264 70.8305 137.682 69.9368 138.129C68.4723 138.369 67.3371 138.269 66.0946 137.426C64.7383 136.275 64.072 134.922 63.7676 133.181C63.6781 131.718 64.1109 130.863 65.0303 129.759C66.1399 129.02 66.5952 129.012 67.9165 129.182Z" fill="black"/>
<path d="M96.4893 129.182C97.3344 129.706 98.0582 130.299 98.5096 131.202C98.7376 133.137 98.6374 134.608 97.4803 136.208C96.3328 137.533 95.3885 138.078 93.6392 138.219C92.6993 138.209 92.4429 138.125 91.6009 137.606C90.6263 136.572 90.6161 135.561 90.6381 134.205C90.8596 132.257 91.9314 131.001 93.4059 129.796C94.4048 129.126 95.3205 129.044 96.4893 129.182Z" fill="black"/>
<path d="M45.7395 80.1401C45.8315 80.1523 45.9235 80.1646 46.0183 80.1772C49.1552 80.6004 53.4974 81.214 55.6324 83.8612C56.033 84.4555 56.2367 84.8413 56.1243 85.5745C55.9837 86.0333 55.6866 86.3826 55.3233 86.6895C54.7509 86.9472 54.2326 86.8551 53.6422 86.6907C53.1398 86.4557 52.6706 86.1707 52.1959 85.8848C50.3972 84.8176 48.6898 84.2751 46.6217 83.9744C46.3934 83.9409 46.3934 83.9409 46.1604 83.9068C44.7967 83.7234 43.4419 83.6616 42.0796 83.8841C41.9928 83.8974 41.9059 83.9108 41.8165 83.9245C41.1511 84.0315 40.503 84.1839 39.8546 84.369C39.2397 84.5302 38.6111 84.5769 38.0294 84.2695C37.6862 84.0284 37.5017 83.8251 37.3008 83.4526C37.1898 82.7811 37.2406 82.1498 37.5716 81.5475C38.2474 80.9727 39.0378 80.7344 39.8844 80.533C39.9913 80.5072 40.0981 80.4815 40.2082 80.4549C42.0203 80.0417 43.8951 79.8894 45.7395 80.1401Z" fill="black"/>
<path d="M125.392 92.6959C125.511 92.7594 125.511 92.7594 125.632 92.8241C126.248 93.1856 126.743 93.6547 126.98 94.3879C127.04 95.1213 126.978 95.6162 126.625 96.27C126.132 96.7794 125.705 97.011 125.016 96.9996C124.342 96.9004 123.7 96.6041 123.062 96.3559C121.311 95.6761 119.748 95.3876 117.888 95.3937C117.756 95.3938 117.756 95.3938 117.623 95.3939C115.349 95.4027 113.058 95.6253 110.935 96.5665C110.285 96.8433 109.737 96.8599 109.056 96.6824C108.457 96.3143 108.247 95.8763 108.044 95.1703C107.96 94.5258 107.98 94.0739 108.25 93.4864C109.358 92.0911 110.749 91.812 112.38 91.5436C112.633 91.502 112.885 91.4579 113.137 91.4134C117.108 90.7365 121.705 90.7172 125.392 92.6959Z" fill="black"/>
<path d="M169.541 78.578C173.889 78.9986 178.035 80.4972 181.199 83.5633L181.503 83.8657L181.535 83.8984C184.434 87.0027 185.581 90.8294 185.211 94.7122L185.21 94.7248C184.693 99.7882 181.54 103.227 177.709 105.955L177.706 105.957C177.584 106.043 177.461 106.129 177.339 106.215L177.34 106.216C177.278 106.26 177.215 106.304 177.151 106.349L177.151 106.35C176.832 106.576 176.512 106.801 176.19 107.026C174.981 107.875 174.272 108.618 173.802 109.388C173.329 110.163 173.015 111.101 172.791 112.468L172.789 112.479L172.787 112.488C172.77 112.582 172.754 112.675 172.738 112.771C172.725 112.847 172.712 112.923 172.7 113.001L172.676 113.147L172.632 113.288C172.417 113.957 172.089 114.402 171.643 114.812L171.379 115.055L171.047 115.191C170.164 115.553 169.456 115.58 168.683 115.504L168.684 115.505C168.576 115.495 168.575 115.496 168.464 115.485L168.461 115.485C168.216 115.461 167.972 115.436 167.737 115.411C167.573 115.395 167.409 115.378 167.245 115.362L167.244 115.362C166.893 115.327 166.542 115.292 166.193 115.255C165.756 115.21 165.317 115.166 164.875 115.123L163.355 114.97C163.117 114.947 162.88 114.922 162.649 114.897C162.523 114.884 162.396 114.872 162.265 114.858L162.166 114.847L162.066 114.828C161.054 114.62 160.475 114.125 160.052 113.735L159.787 113.491L159.623 113.169C159.047 112.036 159.297 110.906 159.332 110.623C159.343 110.523 159.354 110.423 159.366 110.32L159.367 110.31L159.369 110.3C159.675 107.851 160.391 105.759 161.629 103.889C162.856 102.035 164.526 100.504 166.589 99.0777L166.602 99.0692L166.615 99.0597C166.946 98.8386 167.282 98.6338 167.575 98.4547C168.56 97.8389 169.467 97.1544 170.266 96.4037L170.278 96.3911L170.291 96.3797C170.367 96.3107 170.442 96.241 170.52 96.1702C171.612 95.143 172.037 94.1898 172.066 92.8818C171.992 92.3064 171.678 91.6833 171.123 91.1889C170.378 90.6737 169.566 90.3578 168.575 90.2087L168.565 90.2077C168.486 90.1954 168.407 90.1824 168.326 90.1698C166.93 89.9927 165.829 90.1376 164.957 90.6362C164.059 91.2596 163.363 92.0637 162.587 93.1013L162.581 93.1096C162.529 93.1786 162.476 93.2473 162.422 93.3184C162.378 93.3798 162.371 93.3891 162.313 93.4683L162.237 93.5745L162.147 93.6694C161.493 94.3572 160.764 94.5871 160.16 94.703L159.959 94.7416L159.753 94.7385C158.675 94.7222 157.66 94.2519 157.003 93.9116C156.64 93.7242 156.292 93.523 156.002 93.3564C155.693 93.1784 155.467 93.0486 155.278 92.9526L155.278 92.9516C154.997 92.8091 154.715 92.6677 154.432 92.5249L154.431 92.5237C154.249 92.432 154.068 92.3398 153.887 92.2481L153.887 92.249C153.803 92.2067 153.719 92.164 153.633 92.1204L153.629 92.119C153.03 91.8146 152.559 91.5787 152.229 91.3606C151.734 91.0328 151.483 90.7039 151.302 90.4731L151.05 90.1512L150.944 89.7568C150.564 88.3446 151.042 87.2516 151.582 86.4467L151.581 86.4466C151.64 86.3568 151.641 86.3567 151.701 86.2653L151.71 86.2505C152.853 84.5435 154.213 83.1494 155.876 81.8934C155.964 81.8257 156.052 81.7583 156.142 81.6885L156.156 81.6782L156.168 81.6686C158.552 79.8901 161.315 78.9175 164.262 78.518L164.261 78.519C164.342 78.5074 164.425 78.4949 164.508 78.4831L164.519 78.4812L164.53 78.4803C166.218 78.2582 167.849 78.4152 169.261 78.5527C169.351 78.5613 169.443 78.5687 169.536 78.5775L169.541 78.578Z" fill="#FFF288" stroke="black" stroke-width="4"/>
<path d="M160.073 116.499C162.972 114.852 167.148 114.733 170.043 117.108L170.32 117.346L170.366 117.39C170.467 117.487 170.468 117.488 170.57 117.587L170.766 117.772L170.787 117.792L170.807 117.813C172.414 119.429 173.014 121.468 172.911 123.454L172.906 123.539L172.894 123.624C172.625 125.573 171.584 127.313 169.938 128.521L169.894 128.552L169.849 128.582C167.603 130.05 165.43 130.189 163.086 129.882L163.057 129.878L163.028 129.874C160.911 129.533 159.352 128.285 158.27 127.082L158.231 127.037L158.194 126.991C156.827 125.279 156.422 123.247 156.716 121.311L156.726 121.251L156.738 121.191C157.151 119.263 158.306 117.68 159.946 116.579L160.008 116.537L160.073 116.499Z" fill="#FFF288" stroke="black" stroke-width="4"/>
<path d="M87.4 0.00697638C87.4828 0.00472816 87.5657 0.00247994 87.651 0.000163584C88.4432 -0.00609287 89.1428 0.165905 89.7279 0.724591C90.2091 1.29993 90.4218 2.02168 90.427 2.76238C90.4277 2.84038 90.4277 2.84038 90.4283 2.91996C90.4293 3.08748 90.4288 3.25494 90.4279 3.42246C90.4277 3.47999 90.4276 3.53752 90.4274 3.5968C90.4232 4.49616 90.3656 5.35312 90.1711 6.23236C90.1456 6.35249 90.1456 6.35249 90.1195 6.47505C89.9601 7.22282 89.7999 7.97105 89.607 8.71101C89.2635 10.0366 89.384 11.248 89.7739 12.5498C89.7973 12.6284 89.8207 12.7069 89.8448 12.7879C89.9263 13.0578 90.0096 13.3271 90.0936 13.5962C90.1165 13.6696 90.1165 13.6696 90.1399 13.7445C90.7285 15.6265 91.4289 17.4585 92.1569 19.2904C92.577 20.3483 92.9832 21.4115 93.3896 22.4748C93.5219 22.8206 93.656 23.1657 93.7916 23.5102C94.8507 26.2209 95.7511 29.0005 96.6011 31.783C96.6817 32.0425 96.7655 32.3006 96.8507 32.5585C97.5557 34.693 98.1547 36.8639 98.6859 39.0479C98.7584 39.3449 98.8389 39.6385 98.9254 39.9318C99.0811 40.4606 99.2105 40.9952 99.3421 41.5305C99.5557 42.3976 99.7923 43.2552 100.048 44.1106C100.174 44.5309 100.289 44.9536 100.403 45.3772C100.512 45.4013 100.512 45.4013 100.623 45.4259C104.277 46.2509 108.826 47.595 111.003 50.9195C111.089 51.0607 111.173 51.2028 111.255 51.3458C111.291 51.4079 111.327 51.4699 111.364 51.5338C111.958 52.6373 112.165 53.9513 111.861 55.1794C111.476 56.3844 110.895 57.3276 110.015 58.2446C109.947 58.3179 109.88 58.3913 109.81 58.4669C107.013 61.4454 102.315 62.797 98.4652 63.7481C98.3785 63.7699 98.2918 63.7917 98.2024 63.8141C96.674 64.195 95.1352 64.4983 93.5818 64.7558C93.5239 64.7655 93.4661 64.7752 93.4064 64.7852C91.658 65.0774 89.9069 65.2818 88.1412 65.4389C88.0501 65.4471 87.9589 65.4552 87.865 65.4636C87.5991 65.4871 87.3332 65.51 87.0672 65.5325C86.9531 65.5424 86.9531 65.5424 86.8367 65.5525C85.3691 65.6726 83.9013 65.6985 82.4294 65.699C82.2477 65.6993 82.066 65.6995 81.8844 65.6998C81.5055 65.7003 81.1266 65.7004 80.7478 65.7004C80.366 65.7004 79.9842 65.7009 79.6024 65.7019C77.3582 65.7081 75.1248 65.6862 72.8854 65.531C72.7934 65.5248 72.7014 65.5185 72.6066 65.5122C71.4156 65.4309 70.2391 65.2781 69.058 65.1061C68.7897 65.0677 68.5213 65.0314 68.2527 64.9959C62.9288 64.2839 56.4014 63.1177 51.9565 59.9499C51.8806 59.896 51.8048 59.842 51.7267 59.7864C50.2854 58.7323 48.9392 57.3965 48.3133 55.6866C48.2887 55.6227 48.2641 55.5587 48.2388 55.4928C47.9038 54.4355 47.8923 52.966 48.3908 51.9659C48.4294 51.8838 48.468 51.8017 48.5077 51.717C48.81 51.1139 49.1794 50.605 49.6311 50.1056C49.6891 50.0411 49.7472 49.9767 49.807 49.9103C50.6683 49.0032 51.7103 48.3589 52.8091 47.7801C52.8567 47.7545 52.9043 47.7289 52.9533 47.7025C54.9123 46.6497 57.0894 45.9094 59.2604 45.4432C59.4954 45.371 59.5584 45.3341 59.7079 45.1446C59.8041 44.9076 59.8041 44.9076 59.8839 44.6311C59.8996 44.5799 59.9154 44.5286 59.9317 44.4759C59.9821 44.3114 60.0316 44.1467 60.081 43.9819C60.1133 43.8759 60.1456 43.77 60.178 43.664C60.2278 43.5011 60.2776 43.3381 60.3271 43.1751C60.447 42.7803 60.57 42.3867 60.6947 41.9935C60.8813 41.4053 61.0651 40.8162 61.248 40.2268C62.29 36.8688 63.3771 33.5309 64.5452 30.2143C64.6691 29.8624 64.7922 29.5102 64.9137 29.1575C66.1277 25.6365 67.5591 22.1498 69.1647 18.7897C69.2434 18.6238 69.3222 18.4579 69.4009 18.2919C69.6299 17.8108 69.8618 17.3311 70.0949 16.8518C70.1278 16.7838 70.1608 16.7157 70.1947 16.6455C70.6722 15.6605 71.1953 14.7062 71.7417 13.7578C71.8401 13.5849 71.9368 13.4115 72.0322 13.2369C72.4765 12.4272 72.9702 11.6586 73.4861 10.8929C73.5692 10.769 73.6523 10.6451 73.7354 10.5212C75.4037 8.03855 77.2365 5.52368 79.5517 3.59687C79.5941 3.56111 79.6365 3.52535 79.6803 3.48851C81.8597 1.65668 84.4761 0.0330515 87.4 0.00697638Z" fill="#AADCE7"/>
<path d="M87.4 0.00697638C87.4828 0.00472816 87.5657 0.00247994 87.651 0.000163584C88.4432 -0.00609287 89.1428 0.165905 89.7279 0.724591C90.2091 1.29993 90.4218 2.02168 90.427 2.76238C90.4277 2.84038 90.4277 2.84038 90.4283 2.91996C90.4293 3.08748 90.4288 3.25494 90.4279 3.42246C90.4277 3.47999 90.4276 3.53752 90.4274 3.5968C90.4232 4.49616 90.3656 5.35312 90.1711 6.23236C90.1456 6.35249 90.1456 6.35249 90.1195 6.47505C89.9601 7.22282 89.7999 7.97105 89.607 8.71101C89.2635 10.0366 89.384 11.248 89.7739 12.5498C89.7973 12.6284 89.8207 12.7069 89.8448 12.7879C89.9263 13.0578 90.0096 13.3271 90.0936 13.5962C90.1165 13.6696 90.1165 13.6696 90.1399 13.7445C90.7285 15.6265 91.4289 17.4585 92.1569 19.2904C92.577 20.3483 92.9832 21.4115 93.3896 22.4748C93.5219 22.8206 93.656 23.1657 93.7916 23.5102C94.8507 26.2209 95.7511 29.0005 96.6011 31.783C96.6817 32.0425 96.7655 32.3006 96.8507 32.5585C97.5557 34.693 98.1547 36.8639 98.6859 39.0479C98.7584 39.3449 98.8389 39.6385 98.9254 39.9318C99.0811 40.4606 99.2105 40.9952 99.3421 41.5305C99.5557 42.3976 99.7923 43.2552 100.048 44.1106C100.174 44.5309 100.289 44.9536 100.403 45.3772C100.512 45.4013 100.512 45.4013 100.623 45.4259C104.277 46.2509 108.826 47.595 111.003 50.9195C111.089 51.0607 111.173 51.2028 111.255 51.3458C111.291 51.4079 111.327 51.4699 111.364 51.5338C111.958 52.6373 112.165 53.9513 111.861 55.1794C111.476 56.3844 110.895 57.3276 110.015 58.2446C109.947 58.3179 109.88 58.3913 109.81 58.4669C107.013 61.4454 102.315 62.797 98.4652 63.7481C98.3785 63.7699 98.2918 63.7917 98.2024 63.8141C96.674 64.195 95.1352 64.4983 93.5818 64.7558C93.5239 64.7655 93.4661 64.7752 93.4064 64.7852C91.658 65.0774 89.9069 65.2818 88.1412 65.4389C88.0501 65.4471 87.9589 65.4552 87.865 65.4636C87.5991 65.4871 87.3332 65.51 87.0672 65.5325C86.9531 65.5424 86.9531 65.5424 86.8367 65.5525C85.3691 65.6726 83.9013 65.6985 82.4294 65.699C82.2477 65.6993 82.066 65.6995 81.8844 65.6998C81.5055 65.7003 81.1266 65.7004 80.7478 65.7004C80.366 65.7004 79.9842 65.7009 79.6024 65.7019C77.3582 65.7081 75.1248 65.6862 72.8854 65.531C72.7934 65.5248 72.7014 65.5185 72.6066 65.5122C71.4156 65.4309 70.2391 65.2781 69.058 65.1061C68.7897 65.0677 68.5213 65.0314 68.2527 64.9959C62.9288 64.2839 56.4014 63.1177 51.9565 59.9499C51.8806 59.896 51.8048 59.842 51.7267 59.7864C50.2854 58.7323 48.9392 57.3965 48.3133 55.6866C48.2887 55.6227 48.2641 55.5587 48.2388 55.4928C47.9038 54.4355 47.8923 52.966 48.3908 51.9659C48.4294 51.8838 48.468 51.8017 48.5077 51.717C48.81 51.1139 49.1794 50.605 49.6311 50.1056C49.6891 50.0411 49.7472 49.9767 49.807 49.9103C50.6683 49.0032 51.7103 48.3589 52.8091 47.7801C52.8567 47.7545 52.9043 47.7289 52.9533 47.7025C54.9123 46.6497 57.0894 45.9094 59.2604 45.4432C59.4954 45.371 59.5584 45.3341 59.7079 45.1446C59.8041 44.9076 59.8041 44.9076 59.8839 44.6311C59.8996 44.5799 59.9154 44.5286 59.9317 44.4759C59.9821 44.3114 60.0316 44.1467 60.081 43.9819C60.1133 43.8759 60.1456 43.77 60.178 43.664C60.2278 43.5011 60.2776 43.3381 60.3271 43.1751C60.447 42.7803 60.57 42.3867 60.6947 41.9935C60.8813 41.4053 61.0651 40.8162 61.248 40.2268C62.29 36.8688 63.3771 33.5309 64.5452 30.2143C64.6691 29.8624 64.7922 29.5102 64.9137 29.1575C66.1277 25.6365 67.5591 22.1498 69.1647 18.7897C69.2434 18.6238 69.3222 18.4579 69.4009 18.2919C69.6299 17.8108 69.8618 17.3311 70.0949 16.8518C70.1278 16.7838 70.1608 16.7157 70.1947 16.6455C70.6722 15.6605 71.1953 14.7062 71.7417 13.7578C71.8401 13.5849 71.9368 13.4115 72.0322 13.2369C72.4765 12.4272 72.9702 11.6586 73.4861 10.8929C73.5692 10.769 73.6523 10.6451 73.7354 10.5212C75.4037 8.03855 77.2365 5.52368 79.5517 3.59687C79.5941 3.56111 79.6365 3.52535 79.6803 3.48851C81.8597 1.65668 84.4761 0.0330515 87.4 0.00697638ZM87.0851 2.06565C85.0354 2.31418 83.2222 3.49989 81.6445 4.75958C81.5729 4.81614 81.5013 4.8727 81.4274 4.93096C79.8907 6.16303 78.5707 7.61049 77.406 9.1957C77.2931 9.34724 77.1776 9.49665 77.0618 9.64603C72.974 14.9517 70.4307 21.1642 67.9099 27.3163C67.8773 27.3957 67.8446 27.4751 67.811 27.557C67.4196 28.5187 67.0888 29.5023 66.7535 30.4846C66.6517 30.7829 66.5496 31.081 66.4475 31.3792C66.4276 31.4373 66.4077 31.4954 66.3872 31.5552C66.2292 32.016 66.07 32.4764 65.9091 32.9361C65.8877 32.9972 65.8664 33.0582 65.8444 33.1211C65.7368 33.4273 65.6259 33.732 65.5118 34.0358C65.4112 34.3099 65.325 34.5857 65.2453 34.8665C64.976 35.813 64.6504 36.7395 64.3268 37.6684C64.0292 38.5238 63.7478 39.3796 63.5067 40.2528C63.3917 40.669 63.2638 41.0785 63.1234 41.4869C62.9365 42.035 62.7698 42.5872 62.6099 43.1438C62.4368 43.746 62.2567 44.3426 62.0518 44.9348C61.7634 45.7983 61.5117 46.6743 61.2526 47.5469C61.0801 48.1275 60.9022 48.7052 60.7074 49.2787C60.414 50.0689 60.414 50.0689 60.4831 50.8807C61.2305 52.1935 63.4654 52.7429 64.8224 53.118C65.1125 53.1983 65.3961 53.2939 65.6814 53.3903C66.3145 53.596 66.9647 53.7333 67.6144 53.8747C67.6664 53.8861 67.7183 53.8974 67.7719 53.9091C68.9661 54.1683 70.1636 54.3928 71.3739 54.5627C71.4324 54.5709 71.4909 54.5792 71.5512 54.5877C72.5344 54.7244 73.5184 54.8198 74.5084 54.8921C74.5707 54.8967 74.6331 54.9012 74.6974 54.9059C75.0657 54.9324 75.4341 54.9563 75.8027 54.9781C75.9225 54.9852 76.0424 54.9926 76.1622 55.0003C77.4751 55.0834 78.7896 55.0837 80.1045 55.0851C80.3606 55.0855 80.6166 55.0865 80.8727 55.0883C82.5736 55.0998 84.2461 55.031 85.9386 54.8609C86.2694 54.829 86.6003 54.8035 86.9318 54.7803C88.0103 54.7027 89.0722 54.5164 90.137 54.3355C90.3586 54.2988 90.5801 54.2648 90.8025 54.2335C91.8674 54.0834 92.9083 53.8313 93.9522 53.5767C94.1447 53.5301 94.3372 53.4852 94.5304 53.442C96.0572 53.0778 98.5655 52.3968 99.4729 51.0358C99.5709 50.4018 99.3956 49.8097 99.2173 49.2067C99.1546 48.9921 99.0947 48.7768 99.035 48.5613C98.8349 47.8389 98.6322 47.1175 98.4167 46.3994C98.2579 45.8686 98.1222 45.3333 97.9899 44.7953C97.7819 43.9525 97.5441 43.1187 97.3034 42.2848C97.2761 42.19 97.2488 42.0951 97.2207 41.9974C97.1669 41.8109 97.1129 41.6245 97.0586 41.4382C96.91 40.9228 96.7792 40.4068 96.6616 39.8835C96.5733 39.5066 96.4664 39.1357 96.3578 38.7642C96.3366 38.6911 96.3155 38.618 96.2937 38.5427C96.2426 38.3662 96.1913 38.1897 96.1398 38.0133C95.8817 38.0993 95.8285 38.1626 95.6601 38.367C95.4131 38.6593 95.151 38.9283 94.8762 39.1945C94.6627 39.4159 94.5919 39.5394 94.5604 39.8494C94.5799 40.6062 94.8482 41.3556 95.0879 42.0669C95.3417 42.8269 95.5746 43.534 95.1999 44.2968C95.0125 44.5866 94.8508 44.7349 94.512 44.8346C94.0655 44.8616 93.7402 44.8092 93.3299 44.6263C93.276 44.6034 93.2222 44.5806 93.1667 44.5571C92.7806 44.3906 92.4013 44.2104 92.0221 44.0289C91.9245 43.9824 91.8269 43.936 91.7292 43.8896C91.5352 43.7974 91.3422 43.7034 91.1495 43.6084C91.0598 43.5654 90.97 43.5224 90.8776 43.4781C90.7974 43.4389 90.7173 43.3997 90.6348 43.3594C90.3657 43.272 90.2097 43.2897 89.9386 43.3618C89.7708 43.4531 89.7708 43.4531 89.614 43.5798C87.2401 45.3171 87.2401 45.3171 86.2957 45.2546C85.9441 45.1812 85.7435 45.0008 85.53 44.7232C85.2712 43.9038 85.4963 42.9792 85.6365 42.1507C85.9262 40.9783 85.9262 40.9783 85.7318 39.8728C85.594 39.7256 85.4504 39.6018 85.2926 39.4764C85.1851 39.3841 85.0777 39.2918 84.9704 39.1993C84.9181 39.1556 84.8659 39.1119 84.812 39.0669C84.6259 38.9078 84.4551 38.7366 84.2849 38.5608C83.7651 37.9978 83.7651 37.9978 83.1173 37.6257C83.035 37.4949 83.035 37.4949 82.9623 37.3157C82.9335 37.2485 82.9047 37.1814 82.8751 37.1122C82.7572 36.6576 82.7327 36.2505 82.9187 35.8138C83.191 35.5349 83.4489 35.4246 83.815 35.3003C83.8901 35.274 83.9652 35.2477 84.0427 35.2207C85.049 34.912 86.1045 34.8525 87.1481 34.7577C87.2621 34.4854 87.3514 34.215 87.4288 33.9302C87.4517 33.8468 87.4746 33.7634 87.4983 33.6775C87.5455 33.5039 87.5928 33.3303 87.64 33.1567C88.2347 30.9958 88.2347 30.9958 88.8776 30.4653C89.2135 30.2759 89.5665 30.2587 89.9386 30.3394C90.8367 30.7609 91.3211 32.2197 91.7345 33.0507C92.1775 33.9869 92.1775 33.9869 92.9617 34.6027C93.1846 34.6241 93.402 34.6386 93.6254 34.6463C93.7504 34.6518 93.8755 34.6575 94.0005 34.6632C94.0916 34.6673 94.0916 34.6673 94.1846 34.6714C94.5273 34.6889 94.8683 34.7234 95.2096 34.7577C95.0626 34.142 94.8937 33.5383 94.6988 32.9361C94.6724 32.8537 94.6459 32.7714 94.6187 32.6865C94.5334 32.4208 94.4476 32.1552 94.3618 31.8897C94.3024 31.7053 94.243 31.5209 94.1836 31.3365C93.8406 30.2727 93.4943 29.21 93.1409 28.1496C93.123 28.0957 93.105 28.0417 93.0865 27.9862C92.5638 26.4184 92.0319 24.8447 91.385 23.3231C91.2144 22.9185 91.0603 22.508 90.9069 22.0967C90.6747 21.4741 90.4371 20.8537 90.1989 20.2334C90.1477 20.1001 90.0966 19.9667 90.0456 19.8333C89.9704 19.6364 89.8949 19.4397 89.8193 19.243C89.7969 19.1844 89.7745 19.1257 89.7515 19.0653C89.6152 18.7115 89.4682 18.3646 89.311 18.0196C89.1926 17.7489 89.0985 17.4705 89.0036 17.191C88.8367 16.7046 88.6665 16.2197 88.49 15.7367C88.0567 14.5469 87.6599 13.3607 87.3806 12.1235C87.3658 12.0625 87.3511 12.0014 87.3358 11.9386C87.0229 10.5545 87.1682 9.09473 87.5578 7.74552C87.9755 6.27137 88.2503 4.82084 88.2672 3.28681C88.2689 3.19098 88.2707 3.09515 88.2724 2.99641C88.2721 2.86198 88.2721 2.86198 88.2717 2.72483C88.2719 2.64449 88.272 2.56416 88.2722 2.48138C88.2511 2.27075 88.2511 2.27075 88.0925 2.13651C87.7716 1.96603 87.4342 2.0351 87.0851 2.06565Z" fill="black"/>
<path d="M100.946 47.78C101.399 47.8303 101.814 47.9453 102.249 48.0804C102.314 48.1003 102.379 48.1202 102.446 48.1407C102.577 48.1808 102.708 48.2212 102.84 48.2617C103.043 48.3239 103.247 48.3842 103.45 48.4444C103.897 48.5784 104.319 48.7513 104.744 48.9427C104.809 48.972 104.874 49.0012 104.941 49.0313C105.91 49.4711 106.839 49.9258 107.689 50.5706C107.734 50.6041 107.778 50.6376 107.824 50.6722C108.694 51.3387 109.608 52.232 109.782 53.3611C109.83 54.0907 109.836 54.7218 109.472 55.3765C109.439 55.441 109.406 55.5055 109.372 55.5721C108.719 56.7197 107.635 57.5656 106.527 58.2445C106.478 58.2742 106.43 58.3039 106.38 58.3345C105.231 59.0293 103.993 59.6383 102.73 60.0967C102.51 60.1773 102.293 60.2648 102.076 60.3544C100.055 61.1852 97.8771 61.6424 95.7522 62.1202C95.6429 62.145 95.6429 62.145 95.5313 62.1702C95.4656 62.185 95.3999 62.1998 95.3322 62.215C95.2775 62.2273 95.2229 62.2396 95.1665 62.2522C94.6335 62.3656 94.1004 62.4616 93.5612 62.5402C93.4944 62.55 93.4276 62.5599 93.3588 62.5701C93.2187 62.5908 93.0787 62.6114 92.9386 62.6319C92.7361 62.6618 92.5336 62.6921 92.3311 62.7226C90.7851 62.955 89.2482 63.1757 87.6864 63.2682C87.3782 63.2881 87.0708 63.3148 86.7632 63.3422C86.0329 63.4037 85.3034 63.4528 84.5709 63.4803C84.4405 63.4852 84.4405 63.4852 84.3074 63.4902C83.4058 63.5221 82.5048 63.5296 81.6028 63.5312C81.517 63.5314 81.4312 63.5317 81.3428 63.5319C80.8884 63.533 80.434 63.5338 79.9796 63.5341C79.6123 63.5344 79.2449 63.5355 78.8776 63.5373C76.6644 63.5477 74.4747 63.5063 72.2706 63.2979C71.9995 63.2726 71.7282 63.2492 71.4569 63.2256C70.1808 63.1144 68.9253 62.9234 67.6634 62.7091C67.4029 62.6663 67.1422 62.6274 66.8808 62.5908C62.6893 62.0012 58.1824 60.8855 54.4369 58.8646C54.3616 58.826 54.2863 58.7875 54.2086 58.7477C53.3154 58.282 52.5281 57.7006 51.8015 57.0043C51.7408 56.9485 51.6802 56.8927 51.6177 56.8353C50.8174 56.0769 50.2632 55.1788 50.2068 54.0635C50.1872 53.1251 50.4336 52.5069 51.0505 51.7914C51.17 51.667 51.291 51.5442 51.4139 51.4232C51.4663 51.3709 51.5188 51.3185 51.5728 51.2645C53.2293 49.7048 55.5446 48.7337 57.6926 48.0901C57.7738 48.0655 57.855 48.0409 57.9387 48.0156C58.2821 47.9165 58.5733 47.8454 58.9328 47.8575C58.8589 48.2101 58.7796 48.5589 58.6778 48.9046C58.3771 49.9322 58.1646 50.8984 58.6548 51.9113C59.3929 53.1693 60.9881 53.9459 62.3104 54.4263C62.5573 54.5169 62.8017 54.6126 63.0462 54.7094C63.5654 54.9095 64.0909 55.0722 64.6253 55.2263C64.7545 55.2641 64.7545 55.2641 64.8864 55.3027C65.0615 55.3539 65.2367 55.4046 65.412 55.455C65.588 55.5059 65.7638 55.5577 65.9393 55.6104C66.6299 55.815 67.324 55.9701 68.0311 56.1031C68.0914 56.1146 68.1518 56.126 68.214 56.1378C69.8409 56.4423 71.4804 56.6411 73.1248 56.8236C73.3372 56.8477 73.5494 56.8732 73.7616 56.8993C77.8456 57.3979 82.1735 57.3984 86.2585 56.9036C86.5919 56.8641 86.9223 56.8394 87.2578 56.8267C88.2139 56.79 89.1433 56.6249 90.0839 56.4568C90.1721 56.4413 90.2602 56.4257 90.351 56.4097C96.46 55.5024 96.46 55.5024 101.287 52.0909C101.781 51.2814 101.619 50.3316 101.407 49.4523C101.309 49.0743 101.208 48.698 101.101 48.3226C101.084 48.2647 101.068 48.2068 101.051 48.1471C101.016 48.0247 100.981 47.9023 100.946 47.78Z" fill="#AADCE7"/>
<path d="M78.079 15.9988C78.8071 16.3148 79.2086 17.1933 79.5566 17.864C79.9803 18.6893 79.9803 18.6893 80.5595 19.4095C80.7851 19.42 81.0092 19.4258 81.235 19.4286C81.3761 19.4311 81.5171 19.4337 81.6582 19.4363C81.8806 19.4399 82.1031 19.4434 82.3255 19.4464C82.5402 19.4496 82.7548 19.4535 82.9694 19.4576C83.0347 19.4583 83.0999 19.4589 83.1672 19.4596C83.7452 19.4714 84.4372 19.4932 84.9003 19.8746C85.1393 20.1523 85.2774 20.3959 85.2534 20.7714C85.0041 21.8634 84.121 22.9714 83.3524 23.7533C83.1691 23.9585 83.1691 23.9585 83.0933 24.2154C83.1102 24.3798 83.1448 24.523 83.195 24.6805C83.2097 24.7303 83.2244 24.7802 83.2396 24.8315C83.2896 24.9883 83.3455 25.1417 83.4033 25.2957C83.4236 25.3522 83.4439 25.4087 83.4648 25.4669C83.5701 25.7593 83.6798 26.0496 83.7942 26.3386C84.0645 27.0354 84.2435 27.6432 84.1252 28.4012C83.9541 28.7828 83.7266 28.995 83.35 29.1763C82.1269 29.3483 80.7476 28.8044 79.6557 28.3073C79.5878 28.2775 79.52 28.2478 79.4501 28.2171C79.3896 28.1893 79.3292 28.1615 79.2669 28.1329C79.0149 28.0744 78.9278 28.1222 78.6991 28.2461C78.4711 28.3991 78.2509 28.5618 78.0306 28.7258C77.5156 29.1033 76.9979 29.4657 76.4512 29.7964C76.3792 29.8403 76.3071 29.8842 76.2329 29.9294C75.7019 30.2504 75.3791 30.4091 74.7459 30.339C74.3951 30.1668 74.2079 29.9958 74.0483 29.6414C74.0105 29.3602 74.0117 29.0818 74.0144 28.7984C74.0146 28.7154 74.0149 28.6323 74.0151 28.5467C74.0331 27.4558 74.1968 26.3778 74.3583 25.3006C74.3114 25.278 74.2645 25.2553 74.2162 25.232C73.5905 24.9099 73.0314 24.385 72.5183 23.9108C72.3207 23.73 72.116 23.56 71.9069 23.3927C71.6896 23.1736 71.6228 22.9543 71.6211 22.6506C71.6358 22.203 71.6839 21.7793 72.0078 21.4464C72.4404 21.1278 72.938 20.9796 73.4445 20.8214C73.8636 20.687 74.2728 20.5329 74.6684 20.3397C74.7185 20.3198 74.7687 20.3 74.8204 20.2796C75.1106 20.1407 75.2563 20.0194 75.3971 19.7251C75.4932 19.4399 75.5754 19.1529 75.6518 18.862C76.4952 15.8367 76.4952 15.8367 78.079 15.9988Z" fill="black"/>
<path d="M72.3528 35.4462C72.8894 35.7973 73.0782 36.3581 73.2294 36.9525C73.262 37.0753 73.2947 37.198 73.3275 37.3207C73.3521 37.4149 73.3521 37.4149 73.3773 37.5109C73.4611 37.8293 73.5487 38.1467 73.6363 38.4641C73.652 38.5219 73.6677 38.5797 73.6838 38.6393C73.726 38.7929 73.7707 38.9459 73.8156 39.0987C73.8291 39.1647 73.8427 39.2306 73.8567 39.2986C73.9881 39.5151 74.0285 39.5263 74.2617 39.5965C74.3873 39.6269 74.5132 39.6556 74.6395 39.6828C74.7064 39.6987 74.7734 39.7146 74.8423 39.7311C75.0569 39.7818 75.2719 39.8304 75.487 39.8787C75.7001 39.9276 75.913 39.977 76.1258 40.0272C76.2581 40.0583 76.3907 40.0886 76.5234 40.1181C77.042 40.2381 77.5669 40.3849 77.9641 40.752C78.1902 41.16 78.1516 41.5944 78.0789 42.0443C77.9444 42.3299 77.7635 42.5253 77.5363 42.7419C77.48 42.7972 77.4237 42.8524 77.3658 42.9093C76.9556 43.2938 76.515 43.6406 76.0701 43.9836C75.9828 44.051 75.896 44.1191 75.8098 44.1879C75.7167 44.2604 75.621 44.3297 75.5236 44.3963C75.2369 44.6058 75.2369 44.6058 75.0893 44.9184C75.0769 45.1051 75.082 45.2828 75.0946 45.4694C75.0968 45.5356 75.0991 45.6017 75.1014 45.6698C75.1165 46.0592 75.1513 46.4458 75.1924 46.8332C75.2201 47.2086 75.2292 47.5833 75.235 47.9596C75.2373 48.0337 75.2396 48.1078 75.242 48.1842C75.2458 48.6316 75.2115 48.9046 74.9008 49.2531C74.5265 49.4691 74.1666 49.5597 73.738 49.4857C73.2586 49.3031 72.8488 48.999 72.4397 48.696C72.3489 48.6295 72.3489 48.6295 72.2563 48.5617C72.0781 48.431 71.9003 48.2995 71.7227 48.1679C71.6263 48.097 71.5299 48.026 71.4335 47.9551C70.776 47.4673 70.776 47.4673 70.56 47.2377C70.2704 47.351 69.987 47.4746 69.704 47.6032C69.6143 47.6436 69.5246 47.6841 69.4322 47.7257C69.2455 47.81 69.059 47.8945 68.8727 47.9794C67.4981 48.597 67.4981 48.597 66.8683 48.57C66.8034 48.5679 66.7384 48.5658 66.6715 48.5637C66.6245 48.561 66.5776 48.5583 66.5292 48.5555C66.5292 48.5043 66.5292 48.4532 66.5292 48.4005C66.4844 48.3957 66.4397 48.3909 66.3935 48.3859C66.138 48.2936 66.0568 48.1619 65.9091 47.9354C65.8611 47.7161 65.8391 47.5457 65.8364 47.325C65.8357 47.2633 65.8349 47.2016 65.8342 47.138C65.8659 46.2984 66.2101 45.5163 66.5105 44.7421C66.7612 44.1085 66.7612 44.1085 66.8393 43.4395C66.7581 43.2804 66.7581 43.2804 66.6116 43.1779C66.2502 42.8609 65.9696 42.5017 65.6765 42.1218C65.6151 42.0435 65.5536 41.9651 65.4903 41.8844C65.0145 41.2675 64.6834 40.8116 64.7034 40.0077C64.7781 39.6405 65.0037 39.4075 65.289 39.1762C65.5165 39.043 65.6846 39.001 65.9473 38.9965C66.0156 38.995 66.0838 38.9934 66.1542 38.9918C66.2637 38.9905 66.2637 38.9905 66.3754 38.9891C66.4506 38.9876 66.5259 38.9861 66.6035 38.9846C66.8435 38.9799 67.0836 38.9763 67.3237 38.9728C67.4866 38.9698 67.6495 38.9668 67.8124 38.9637C68.2115 38.9562 68.6106 38.9497 69.0097 38.9437C69.0336 38.8957 69.0576 38.8477 69.0822 38.7982C69.4612 38.0417 69.8591 37.2927 70.2741 36.5553C70.3202 36.4732 70.3662 36.3912 70.4137 36.3067C70.8672 35.5904 71.4645 35.0794 72.3528 35.4462Z" fill="black"/>
<path d="M89.551 32.8972C89.8405 32.9937 89.8782 33.1175 90.0127 33.3794C90.0552 33.4645 90.0552 33.4645 90.0985 33.5512C90.16 33.6709 90.2217 33.7905 90.2835 33.9101C90.3156 33.9725 90.3477 34.035 90.3808 34.0993C90.5483 34.4215 90.7224 34.74 90.8978 35.0579C90.9301 35.1173 90.9624 35.1767 90.9957 35.2379C91.0263 35.2934 91.057 35.3489 91.0886 35.4061C91.1154 35.455 91.1422 35.5038 91.1699 35.5542C91.2535 35.694 91.2535 35.694 91.3831 35.8119C91.4889 35.9203 91.4889 35.9203 91.4889 36.0753C91.5368 36.0865 91.5848 36.0977 91.6342 36.1092C91.7989 36.1528 91.7989 36.1528 91.954 36.2303C92.075 36.2456 92.1966 36.257 92.3182 36.2664C92.3923 36.2723 92.4664 36.2783 92.5427 36.2844C92.6218 36.2906 92.7009 36.2967 92.7824 36.303C93.4921 36.3609 94.1952 36.4358 94.8995 36.5404C94.7742 36.8445 94.5652 37.0608 94.3424 37.2962C94.265 37.3793 94.1877 37.4625 94.1104 37.5457C94.0729 37.5859 94.0354 37.6262 93.9967 37.6677C93.1343 38.527 93.1343 38.527 92.7921 39.6264C92.791 39.7069 92.7899 39.7873 92.7888 39.8702C92.8073 40.1147 92.866 40.2696 92.9617 40.4936C93.0142 40.6936 93.0643 40.8932 93.1118 41.0944C93.1966 41.4461 93.2846 41.7903 93.4074 42.1311C93.5004 42.3933 93.5258 42.6161 93.5043 42.8966C93.18 42.7723 92.8681 42.6261 92.5559 42.4748C92.477 42.4367 92.477 42.4367 92.3965 42.3978C92.286 42.3444 92.1755 42.2909 92.0651 42.2374C91.8954 42.1552 91.7256 42.0733 91.5558 41.9914C91.4483 41.9394 91.3408 41.8874 91.2333 41.8353C91.1569 41.7985 91.1569 41.7985 91.0789 41.7609C90.7226 41.5877 90.7226 41.5877 90.6362 41.5013C90.0727 41.4137 89.7191 41.5798 89.2603 41.8889C89.2004 41.9274 89.1404 41.9658 89.0786 42.0054C88.9573 42.0833 88.8363 42.1618 88.7157 42.2409C88.4682 42.4032 88.218 42.5608 87.9668 42.7173C87.8886 42.7672 87.8103 42.8171 87.7297 42.8684C87.5356 42.9741 87.5356 42.9741 87.3031 42.9741C87.314 42.7141 87.3254 42.4541 87.337 42.1941C87.3401 42.121 87.3431 42.0479 87.3462 41.9726C87.3641 41.5779 87.3974 41.1945 87.4581 40.8037C87.5742 39.972 87.5742 39.972 87.297 39.2053C87.0649 38.9132 86.7974 38.6579 86.528 38.4007C86.3485 38.2235 86.1697 38.0456 85.9912 37.8674C85.8724 37.7495 85.7525 37.6326 85.6317 37.5167C85.5496 37.4371 85.5496 37.4371 85.4658 37.3558C85.4165 37.3087 85.3672 37.2617 85.3164 37.2131C85.2102 37.083 85.2102 37.083 85.2102 36.8505C85.4252 36.7788 85.5873 36.7554 85.8112 36.7396C85.8839 36.7339 85.9566 36.7282 86.0315 36.7224C86.1827 36.711 86.3339 36.7001 86.4851 36.6897C87.1828 36.6336 87.8132 36.5316 88.3517 36.0593C88.6034 35.7528 88.7264 35.3959 88.834 35.0192C89.0469 34.303 89.3009 33.6011 89.551 32.8972Z" fill="#F8E482"/>
<path d="M77.6913 18.5571C77.9391 18.6612 78.0503 18.7506 78.1794 18.9856C78.2102 19.0402 78.241 19.0949 78.2728 19.1511C78.3047 19.2093 78.3367 19.2675 78.3696 19.3274C78.936 20.3825 78.936 20.3825 79.7842 21.1926C80.0347 21.2349 80.2808 21.2288 80.5342 21.2229C80.6059 21.2225 80.6776 21.222 80.7515 21.2216C80.9798 21.2198 81.208 21.216 81.4362 21.212C81.5913 21.2104 81.7464 21.209 81.9015 21.2078C82.281 21.2043 82.6604 21.199 83.0398 21.1926C82.9278 21.4217 82.8055 21.6245 82.6571 21.8321C82.4021 22.1929 82.1482 22.5543 81.8965 22.9173C81.8599 22.9695 81.8233 23.0217 81.7857 23.0755C81.4446 23.5682 81.1713 23.9831 81.257 24.6033C81.3998 25.3036 81.6196 25.9069 81.9343 26.549C82.0605 26.8389 82.0973 27.0797 82.1096 27.3938C81.7383 27.3453 81.4063 27.239 81.0587 27.1052C80.9461 27.0631 80.8335 27.0209 80.7209 26.9788C80.5454 26.9126 80.37 26.8462 80.1948 26.7793C80.0244 26.7143 79.8536 26.6505 79.6828 26.5868C79.6311 26.5667 79.5794 26.5466 79.5261 26.5259C79.1169 26.3746 78.7446 26.3014 78.3338 26.4748C78.2657 26.5175 78.1975 26.5601 78.1273 26.6041C78.0484 26.6528 77.9695 26.7014 77.8881 26.7516C77.6819 26.8838 77.4768 27.0179 77.2716 27.1519C77.1834 27.2094 77.1834 27.2094 77.0934 27.268C76.9768 27.3444 76.8605 27.4213 76.7447 27.4988C76.691 27.5343 76.6372 27.5698 76.5819 27.6063C76.5342 27.6382 76.4866 27.6701 76.4375 27.7029C76.288 27.7858 76.1529 27.825 75.986 27.8589C75.9775 27.3961 75.9877 26.9397 76.0248 26.4781C76.1698 25.3648 76.1698 25.3648 75.8104 24.3538C75.5962 24.1337 75.3602 23.9481 75.1167 23.7615C74.8796 23.5792 74.6482 23.3929 74.4212 23.1983C74.3481 23.1374 74.2751 23.0764 74.1998 23.0136C74.0481 22.8204 74.0481 22.8204 74.0636 22.5643C74.0841 22.4953 74.1045 22.4264 74.1256 22.3553C74.2006 22.3357 74.2755 22.316 74.3527 22.2957C74.6153 22.2265 74.8775 22.1562 75.1396 22.0854C75.2669 22.0511 75.3943 22.0174 75.5218 21.9838C76.0948 21.825 76.4845 21.6062 76.8387 21.1151C76.9312 20.9031 76.9312 20.9031 76.9964 20.6752C77.0223 20.5918 77.0483 20.5084 77.075 20.4225C77.1139 20.2929 77.1139 20.2929 77.1536 20.1607C77.206 19.9898 77.2586 19.8189 77.3113 19.6481C77.3485 19.5272 77.3485 19.5272 77.3864 19.4038C77.478 19.1171 77.5817 18.8374 77.6913 18.5571Z" fill="#F8E482"/>
<path d="M71.5676 37.8584C71.6188 37.8584 71.6699 37.8584 71.7226 37.8584C71.8103 38.1409 71.8973 38.4235 71.9843 38.7062C72.0088 38.7854 72.0334 38.8646 72.0587 38.9462C72.1679 39.3019 72.2704 39.6509 72.3382 40.017C72.4113 40.3641 72.552 40.5663 72.7739 40.8427C72.8364 40.9218 72.8988 41.001 72.9632 41.0825C73.2012 41.3695 73.2763 41.363 73.6532 41.3995C73.7478 41.4091 73.8423 41.4186 73.9397 41.4285C74.1387 41.4479 74.3377 41.4673 74.5368 41.4866C75.0568 41.5392 75.5563 41.6068 76.0635 41.7341C75.9608 42.042 75.7646 42.1377 75.5063 42.3106C75.0298 42.6383 74.591 42.995 74.1601 43.3805C73.8309 43.672 73.8309 43.672 73.6605 43.672C73.3507 44.3673 73.4019 45.063 73.4134 45.8085C73.4146 45.9397 73.4157 46.071 73.4166 46.2023C73.4192 46.5216 73.4232 46.8408 73.428 47.1601C73.0618 47.1012 72.8471 46.9561 72.5656 46.7241C71.5474 45.9054 71.5474 45.9054 70.3013 45.655C69.5691 45.7385 68.8593 46.0558 68.2153 46.4035C68.0795 46.4625 68.0795 46.4625 67.8469 46.4625C67.8901 46.2832 67.9337 46.1039 67.9777 45.9248C67.9981 45.8415 67.9981 45.8415 68.0188 45.7566C68.1071 45.4026 68.2072 45.0547 68.3177 44.707C68.6047 43.8876 68.6047 43.8876 68.5446 43.0519C68.3176 42.6807 68.0256 42.3581 67.7387 42.0329C67.5515 41.8164 67.3788 41.5902 67.2074 41.3611C67.1511 41.287 67.0947 41.213 67.0367 41.1367C66.9167 40.959 66.9167 40.959 66.9167 40.804C66.9686 40.802 67.0205 40.8001 67.074 40.7981C67.3139 40.789 67.5538 40.7795 67.7936 40.77C67.8752 40.767 67.9568 40.7639 68.0409 40.7608C69.1177 40.7735 69.1177 40.7735 70.0948 40.4164C70.1763 40.2896 70.2532 40.16 70.3274 40.0288C70.3682 39.9596 70.4089 39.8903 70.4509 39.819C70.5923 39.5773 70.7336 39.3356 70.8748 39.0938C70.9242 39.0094 70.9737 38.925 71.0246 38.8381C71.072 38.7569 71.1194 38.6757 71.1682 38.5921C71.2114 38.5182 71.2546 38.4444 71.2991 38.3683C71.3944 38.2005 71.4835 38.0321 71.5676 37.8584Z" fill="#F8E482"/>
</svg>
