<svg width="350" height="350" viewBox="0 0 350 350" fill="none" xmlns="http://www.w3.org/2000/svg">
<path d="M187.908 112.477C188.094 112.509 188.279 112.541 188.469 112.574C195.714 113.852 202.845 116.127 209.681 118.819C209.82 118.692 209.82 118.692 209.961 118.562C210.735 117.871 211.427 117.355 212.403 116.969C212.703 116.847 212.703 116.847 213.009 116.721C214.717 116.156 216.3 115.995 218.097 116.005C218.445 116.007 218.445 116.007 218.801 116.008C231.96 116.201 244.215 123.49 253.195 132.697C253.945 133.483 254.639 134.307 255.311 135.16C255.794 135.769 256.3 136.355 256.807 136.945C263.79 145.323 268.657 156.888 267.812 167.86C267.411 171.536 265.636 175.208 262.824 177.634C259.548 180.134 255.789 181.223 251.694 181.204C251.528 181.204 251.363 181.205 251.193 181.206C249.889 181.204 248.604 181.1 247.308 180.966C247.36 181.114 247.412 181.263 247.465 181.416C248.604 184.683 249.635 187.919 250.267 191.324C250.301 191.498 250.335 191.673 250.371 191.853C251.509 197.857 251.36 204.601 250.056 210.56C249.996 210.841 249.996 210.841 249.936 211.128C249.081 215.093 247.741 218.824 245.828 222.397C245.729 222.595 245.63 222.793 245.528 222.997C243.169 227.603 239.529 231.703 235.47 234.869C235.297 235.004 235.297 235.004 235.121 235.142C231.222 238.171 226.787 240.564 222.153 242.267C222.286 242.36 222.42 242.453 222.557 242.548C226.213 245.139 229.578 248.211 232.299 251.78C232.39 251.897 232.48 252.015 232.574 252.137C234.451 254.589 236.026 257.164 237.491 259.878C237.565 260.014 237.638 260.149 237.714 260.289C238.218 261.24 238.218 261.24 238.218 261.715C238.357 261.715 238.497 261.715 238.641 261.715C238.677 261.465 238.677 261.465 238.714 261.211C238.821 260.621 238.944 260.051 239.089 259.47C239.134 259.289 239.179 259.108 239.226 258.922C239.318 258.555 239.412 258.187 239.507 257.821C240.341 254.442 240.378 251.178 240.275 247.724C240.26 247.171 240.251 246.619 240.243 246.066C240.233 245.817 240.233 245.817 240.223 245.564C240.211 244.299 240.59 243.458 241.389 242.479C242.501 241.611 243.846 241.696 245.194 241.844C248.03 242.527 250.146 244.278 252.169 246.284C252.355 246.467 252.542 246.65 252.733 246.839C255.495 249.712 257.015 253.206 258.048 257.011C258.092 257.171 258.136 257.331 258.181 257.495C259.224 261.561 259.257 266.775 258.088 270.804C258.013 271.093 257.937 271.382 257.863 271.671C256.453 276.944 253.652 281.869 249.633 285.601C249.458 285.775 249.284 285.95 249.104 286.13C248.93 286.304 248.755 286.478 248.576 286.658C248.471 286.767 248.366 286.877 248.257 286.989C247.39 287.88 246.484 288.655 245.484 289.393C245.337 289.502 245.189 289.611 245.037 289.724C239.509 293.773 233.142 296.225 226.38 297.227C226.049 297.287 226.049 297.287 225.711 297.348C224.529 297.48 223.354 297.461 222.166 297.452C221.921 297.451 221.675 297.45 221.422 297.449C220.82 297.446 220.218 297.443 219.616 297.439C219.631 297.621 219.645 297.803 219.661 297.991C219.825 300.208 219.869 302.415 219.878 304.638C219.879 304.824 219.88 305.011 219.881 305.203C219.885 306.188 219.888 307.173 219.89 308.159C219.892 309.165 219.9 310.172 219.908 311.178C219.914 311.963 219.915 312.748 219.916 313.532C219.917 313.903 219.919 314.274 219.923 314.644C219.965 318.773 219.266 322.395 216.319 325.493C213.667 328.011 210.421 328.896 206.933 329.569C206.775 329.606 206.617 329.644 206.455 329.682C205.716 329.808 204.989 329.819 204.242 329.823C204.006 329.826 204.006 329.826 203.766 329.828C197.879 329.871 192.083 329.641 187.507 325.397C184.606 322.274 183.816 317.84 183.892 313.715C183.644 313.776 183.395 313.837 183.139 313.9C179.927 314.611 176.615 314.802 173.335 314.815C173.081 314.816 172.828 314.818 172.568 314.819C171.754 314.823 170.94 314.824 170.126 314.825C169.848 314.825 169.57 314.826 169.284 314.826C164.887 314.828 160.567 314.66 156.201 314.138C155.87 314.099 155.539 314.061 155.209 314.022C154.341 313.921 153.474 313.818 152.607 313.715C152.61 313.942 152.612 314.169 152.614 314.402C152.58 318.349 151.192 322.41 148.465 325.282C144.462 329.077 138.962 329.829 133.688 329.833C133.528 329.833 133.367 329.834 133.202 329.834C128.224 329.827 123.239 329.004 119.481 325.443C116.568 322.286 116.182 318.426 116.193 314.329C116.193 313.977 116.192 313.625 116.191 313.273C116.19 312.34 116.192 311.407 116.195 310.474C116.196 309.895 116.197 309.316 116.198 308.737C116.207 303.201 116.262 297.677 116.672 292.154C116.684 291.985 116.696 291.817 116.709 291.643C116.97 288.069 117.293 284.508 117.729 280.951C117.498 281.03 117.267 281.109 117.029 281.19C116.891 281.237 116.753 281.284 116.611 281.333C116.326 281.43 116.041 281.529 115.756 281.627C115.568 281.691 115.568 281.691 115.376 281.756C115.249 281.799 115.123 281.842 114.993 281.886C111.726 282.795 107.334 282.673 104.2 281.373C104.013 281.31 103.825 281.246 103.631 281.181C100.817 280.189 98.3424 278.086 97.0132 275.415C95.4764 272.183 95.4029 268.003 96.5095 264.594C96.606 264.341 96.7025 264.089 96.8018 263.828C96.887 263.6 96.887 263.6 96.9738 263.366C98.3101 259.82 100.144 256.64 102.509 253.682C102.654 253.497 102.798 253.312 102.947 253.121C105.565 249.831 108.552 246.966 111.784 244.289C111.935 244.164 112.086 244.038 112.241 243.91C112.887 243.381 113.528 242.871 114.229 242.418C114.786 242.109 114.786 242.109 114.981 241.633C114.829 241.607 114.678 241.581 114.521 241.554C109.146 240.365 103.639 236.765 99.5498 233.178C99.3681 233.019 99.1863 232.861 98.9991 232.697C98.4717 232.23 97.9522 231.755 97.436 231.275C97.2954 231.146 97.1548 231.017 97.0099 230.884C89.7548 223.953 85.8042 213.171 85.5373 203.275C85.5204 202.338 85.5171 201.402 85.5192 200.466C85.5193 200.268 85.5194 200.07 85.5195 199.866C85.5365 193.463 86.2827 186.362 89.192 180.543C88.9288 180.611 88.6656 180.679 88.3944 180.749C84.16 181.684 79.7693 180.873 76.066 178.689C72.5244 176.406 70.468 172.689 69.5266 168.664C67.4863 158.977 71.679 148.295 76.8632 140.278C77.3644 139.526 77.8816 138.787 78.4114 138.055C78.5009 137.931 78.5904 137.807 78.6826 137.679C81.4566 133.88 84.6533 130.401 88.3465 127.486C88.7254 127.169 89.1041 126.852 89.4827 126.534C91.7034 124.722 94.1024 123.192 96.5905 121.778C96.7425 121.692 96.8945 121.605 97.0512 121.516C100.976 119.311 105.119 117.785 109.485 116.705C109.635 116.667 109.785 116.629 109.94 116.59C112.198 116.046 114.467 116.012 116.778 116.005C116.924 116.004 117.071 116.003 117.221 116.002C120.589 115.993 124.181 116.495 126.818 118.819C126.818 118.958 126.818 119.098 126.818 119.242C127.023 119.149 127.227 119.056 127.437 118.961C134.732 115.734 142.436 113.618 150.282 112.266C150.482 112.231 150.682 112.196 150.889 112.16C162.966 110.137 175.864 110.399 187.908 112.477Z" fill="#F2D3A3"/>
<path d="M187.908 112.477C188.094 112.509 188.279 112.541 188.469 112.574C195.714 113.852 202.845 116.127 209.681 118.819C209.82 118.692 209.82 118.692 209.961 118.562C210.735 117.871 211.427 117.355 212.403 116.969C212.703 116.847 212.703 116.847 213.009 116.721C214.717 116.156 216.3 115.995 218.097 116.005C218.445 116.007 218.445 116.007 218.801 116.008C231.96 116.201 244.215 123.49 253.195 132.697C253.945 133.483 254.639 134.307 255.311 135.16C255.794 135.769 256.3 136.355 256.807 136.945C263.79 145.323 268.657 156.888 267.812 167.86C267.411 171.536 265.636 175.208 262.824 177.634C259.548 180.134 255.789 181.223 251.694 181.204C251.528 181.204 251.363 181.205 251.193 181.206C249.889 181.204 248.604 181.1 247.308 180.966C247.36 181.114 247.412 181.263 247.465 181.416C248.604 184.683 249.635 187.919 250.267 191.324C250.301 191.498 250.335 191.673 250.371 191.853C251.509 197.857 251.36 204.601 250.056 210.56C249.996 210.841 249.996 210.841 249.936 211.128C249.081 215.093 247.741 218.824 245.828 222.397C245.729 222.595 245.63 222.793 245.528 222.997C243.169 227.603 239.529 231.703 235.47 234.869C235.297 235.004 235.297 235.004 235.121 235.142C231.222 238.171 226.787 240.564 222.153 242.267C222.286 242.36 222.42 242.453 222.557 242.548C226.213 245.139 229.578 248.211 232.299 251.78C232.39 251.897 232.48 252.015 232.574 252.137C234.451 254.589 236.026 257.164 237.491 259.878C237.565 260.014 237.638 260.149 237.714 260.289C238.218 261.24 238.218 261.24 238.218 261.715C238.357 261.715 238.497 261.715 238.641 261.715C238.677 261.465 238.677 261.465 238.714 261.211C238.821 260.621 238.944 260.051 239.089 259.47C239.134 259.289 239.179 259.108 239.226 258.922C239.318 258.555 239.412 258.187 239.507 257.821C240.341 254.442 240.378 251.178 240.275 247.724C240.26 247.171 240.251 246.619 240.243 246.066C240.233 245.817 240.233 245.817 240.223 245.564C240.211 244.299 240.59 243.458 241.389 242.479C242.501 241.611 243.846 241.696 245.194 241.844C248.03 242.527 250.146 244.278 252.169 246.284C252.355 246.467 252.542 246.65 252.733 246.839C255.495 249.712 257.015 253.206 258.048 257.011C258.092 257.171 258.136 257.331 258.181 257.495C259.224 261.561 259.257 266.775 258.088 270.804C258.013 271.093 257.937 271.382 257.863 271.671C256.453 276.944 253.652 281.869 249.633 285.601C249.458 285.775 249.284 285.95 249.104 286.13C248.93 286.304 248.755 286.478 248.576 286.658C248.471 286.767 248.366 286.877 248.257 286.989C247.39 287.88 246.484 288.655 245.484 289.393C245.337 289.502 245.189 289.611 245.037 289.724C239.509 293.773 233.142 296.225 226.38 297.227C226.049 297.287 226.049 297.287 225.711 297.348C224.529 297.48 223.354 297.461 222.166 297.452C221.921 297.451 221.675 297.45 221.422 297.449C220.82 297.446 220.218 297.443 219.616 297.439C219.631 297.621 219.645 297.803 219.661 297.991C219.825 300.208 219.869 302.415 219.878 304.638C219.879 304.824 219.88 305.011 219.881 305.203C219.885 306.188 219.888 307.173 219.89 308.159C219.892 309.165 219.9 310.172 219.908 311.178C219.914 311.963 219.915 312.748 219.916 313.532C219.917 313.903 219.919 314.274 219.923 314.644C219.965 318.773 219.266 322.395 216.319 325.493C213.667 328.011 210.421 328.896 206.933 329.569C206.775 329.606 206.617 329.644 206.455 329.682C205.716 329.808 204.989 329.819 204.242 329.823C204.006 329.826 204.006 329.826 203.766 329.828C197.879 329.871 192.083 329.641 187.507 325.397C184.606 322.274 183.816 317.84 183.892 313.715C183.644 313.776 183.395 313.837 183.139 313.9C179.927 314.611 176.615 314.802 173.335 314.815C173.081 314.816 172.828 314.818 172.568 314.819C171.754 314.823 170.94 314.824 170.126 314.825C169.848 314.825 169.57 314.826 169.284 314.826C164.887 314.828 160.567 314.66 156.201 314.138C155.87 314.099 155.539 314.061 155.209 314.022C154.341 313.921 153.474 313.818 152.607 313.715C152.61 313.942 152.612 314.169 152.614 314.402C152.58 318.349 151.192 322.41 148.465 325.282C144.462 329.077 138.962 329.829 133.688 329.833C133.528 329.833 133.367 329.834 133.202 329.834C128.224 329.827 123.239 329.004 119.481 325.443C116.568 322.286 116.182 318.426 116.193 314.329C116.193 313.977 116.192 313.625 116.191 313.273C116.19 312.34 116.192 311.407 116.195 310.474C116.196 309.895 116.197 309.316 116.198 308.737C116.207 303.201 116.262 297.677 116.672 292.154C116.684 291.985 116.696 291.817 116.709 291.643C116.97 288.069 117.293 284.508 117.729 280.951C117.498 281.03 117.267 281.109 117.029 281.19C116.891 281.237 116.753 281.284 116.611 281.333C116.326 281.43 116.041 281.529 115.756 281.627C115.568 281.691 115.568 281.691 115.376 281.756C115.249 281.799 115.123 281.842 114.993 281.886C111.726 282.795 107.334 282.673 104.2 281.373C104.013 281.31 103.825 281.246 103.631 281.181C100.817 280.189 98.3424 278.086 97.0132 275.415C95.4764 272.183 95.4029 268.003 96.5095 264.594C96.606 264.341 96.7025 264.089 96.8018 263.828C96.887 263.6 96.887 263.6 96.9738 263.366C98.3101 259.82 100.144 256.64 102.509 253.682C102.654 253.497 102.798 253.312 102.947 253.121C105.565 249.831 108.552 246.966 111.784 244.289C111.935 244.164 112.086 244.038 112.241 243.91C112.887 243.381 113.528 242.871 114.229 242.418C114.786 242.109 114.786 242.109 114.981 241.633C114.829 241.607 114.678 241.581 114.521 241.554C109.146 240.365 103.639 236.765 99.5498 233.178C99.3681 233.019 99.1863 232.861 98.9991 232.697C98.4717 232.23 97.9522 231.755 97.436 231.275C97.2954 231.146 97.1548 231.017 97.0099 230.884C89.7548 223.953 85.8042 213.171 85.5373 203.275C85.5204 202.338 85.5171 201.402 85.5192 200.466C85.5193 200.268 85.5194 200.07 85.5195 199.866C85.5365 193.463 86.2827 186.362 89.192 180.543C88.9288 180.611 88.6656 180.679 88.3944 180.749C84.16 181.684 79.7693 180.873 76.066 178.689C72.5244 176.406 70.468 172.689 69.5266 168.664C67.4863 158.977 71.679 148.295 76.8632 140.278C77.3644 139.526 77.8816 138.787 78.4114 138.055C78.5009 137.931 78.5904 137.807 78.6826 137.679C81.4566 133.88 84.6533 130.401 88.3465 127.486C88.7254 127.169 89.1041 126.852 89.4827 126.534C91.7034 124.722 94.1024 123.192 96.5905 121.778C96.7425 121.692 96.8945 121.605 97.0512 121.516C100.976 119.311 105.119 117.785 109.485 116.705C109.635 116.667 109.785 116.629 109.94 116.59C112.198 116.046 114.467 116.012 116.778 116.005C116.924 116.004 117.071 116.003 117.221 116.002C120.589 115.993 124.181 116.495 126.818 118.819C126.818 118.958 126.818 119.098 126.818 119.242C127.023 119.149 127.227 119.056 127.437 118.961C134.732 115.734 142.436 113.618 150.282 112.266C150.482 112.231 150.682 112.196 150.889 112.16C162.966 110.137 175.864 110.399 187.908 112.477ZM153.664 117.128C153.329 117.167 153.329 117.167 152.988 117.208C145.808 118.063 138.85 119.82 132.103 122.412C131.91 122.486 131.718 122.559 131.519 122.634C131.029 122.823 130.541 123.018 130.055 123.218C129.797 123.324 129.539 123.43 129.273 123.539C128.687 123.837 128.687 123.837 128.529 124.38C128.507 125.014 128.522 125.636 128.549 126.27C128.616 130.014 127.698 133.857 126.607 137.421C126.544 137.628 126.48 137.835 126.415 138.049C123.245 148.25 118.629 158.838 111.221 166.725C110.82 167.155 110.442 167.593 110.066 168.045C106.876 171.677 102.122 175.885 97.4855 177.452C96.3682 177.839 95.7223 178.118 95.0959 179.151C94.741 179.957 94.479 180.786 94.2312 181.63C94.0376 182.289 93.829 182.942 93.6195 183.597C92.7679 186.307 92.0459 189.022 91.6039 191.83C91.5422 192.222 91.4752 192.613 91.4046 193.003C91.0499 195.126 91.0229 197.223 91.0277 199.372C91.0284 199.984 91.0234 200.595 91.0181 201.207C91.0057 204.792 91.2901 208.41 92.2967 211.868C92.3503 212.057 92.4039 212.246 92.4591 212.441C95.1935 221.745 101.379 229.119 109.839 233.761C114.449 236.225 119.278 238.069 124.435 238.988C124.623 239.022 124.811 239.056 125.004 239.091C125.174 239.12 125.344 239.149 125.52 239.178C126.22 239.379 126.587 239.807 127.03 240.365C127.1 240.435 127.169 240.504 127.241 240.576C127.332 241.354 127.261 241.8 126.937 242.518C126.205 243.322 125.528 243.488 124.493 243.747C115.785 245.976 108.728 253.404 104.182 260.908C102.159 264.329 100.524 267.893 101.105 271.965C101.548 273.637 102.763 274.949 104.203 275.855C107.347 277.476 111.239 277.775 114.637 276.71C116.196 276.09 117.879 275.263 118.997 273.975C119.172 273.545 119.172 273.545 119.279 273.058C119.325 272.873 119.37 272.688 119.418 272.497C119.465 272.296 119.513 272.095 119.562 271.888C119.64 271.574 119.64 271.574 119.719 271.253C119.886 270.58 120.05 269.906 120.213 269.232C120.83 266.684 121.451 264.149 122.303 261.668C122.362 261.495 122.42 261.322 122.48 261.144C122.85 260.106 123.24 259.065 124.282 258.544C125.145 258.435 126.019 258.349 126.809 258.758C127.367 259.209 127.647 259.551 127.875 260.235C127.929 261.275 127.809 262.12 127.511 263.116C127.432 263.386 127.353 263.657 127.274 263.928C127.232 264.069 127.19 264.21 127.147 264.355C126.119 267.813 125.268 271.297 124.493 274.82C124.43 275.102 124.43 275.102 124.366 275.39C123.08 281.167 122.436 287.065 121.992 292.958C121.965 293.316 121.936 293.674 121.906 294.032C121.771 295.699 121.684 297.364 121.63 299.036C121.621 299.306 121.612 299.577 121.603 299.857C121.508 302.961 121.487 306.067 121.483 309.173C121.482 309.996 121.477 310.818 121.471 311.641C121.467 312.289 121.466 312.936 121.465 313.583C121.465 313.887 121.463 314.191 121.46 314.494C121.437 317.147 121.617 319.677 123.436 321.748C126.046 324.208 129.611 324.608 133.042 324.567C133.491 324.562 133.939 324.562 134.388 324.564C138.148 324.556 142.208 324.115 144.997 321.325C146.901 318.826 147.23 315.89 147.336 312.856C147.352 312.42 147.369 311.983 147.39 311.546C147.408 311.156 147.423 310.764 147.437 310.373C147.543 309.638 147.725 309.233 148.168 308.642C150.015 307.411 153.772 308.409 155.897 308.629C160.315 309.084 164.691 309.316 169.133 309.315C169.793 309.316 170.452 309.32 171.111 309.324C175.203 309.335 179.224 308.986 183.271 308.404C183.806 308.328 184.342 308.252 184.877 308.178C185.105 308.145 185.333 308.112 185.568 308.079C187.265 307.893 187.265 307.893 188.173 308.364C188.807 308.898 188.941 309.133 189.177 309.91C189.231 310.601 189.231 310.601 189.235 311.382C189.239 311.672 189.243 311.962 189.248 312.253C189.253 312.703 189.256 313.153 189.257 313.603C189.272 316.751 189.615 319.804 191.925 322.171C194.537 324.339 198.14 324.538 201.384 324.547C201.839 324.549 202.294 324.555 202.749 324.562C206.304 324.589 209.929 324.194 212.598 321.641C214.086 319.952 214.592 317.869 214.604 315.661C214.606 315.505 214.607 315.349 214.609 315.188C214.613 314.674 214.613 314.16 214.614 313.646C214.616 313.28 214.617 312.914 214.619 312.549C214.624 311.37 214.623 310.191 214.622 309.012C214.622 308.811 214.622 308.611 214.622 308.404C214.62 301.752 214.427 295.177 213.697 288.56C213.65 288.122 213.604 287.683 213.557 287.245C212.638 278.755 211.359 270.051 208.624 261.926C208.495 261.187 208.461 260.53 208.831 259.86C209.309 259.258 209.785 258.762 210.527 258.544C211.295 258.474 211.849 258.485 212.574 258.755C213.69 259.72 214.067 261.247 214.417 262.635C214.459 262.799 214.502 262.963 214.546 263.132C214.637 263.48 214.727 263.828 214.815 264.177C214.954 264.719 215.095 265.261 215.237 265.803C215.684 267.517 216.102 269.23 216.461 270.965C216.899 273.105 216.899 273.105 218.302 274.73C218.456 274.83 218.611 274.929 218.771 275.032C218.93 275.147 219.089 275.261 219.253 275.379C222.049 277.245 225.451 277.641 228.715 276.999C231.024 276.399 233.066 275.368 234.413 273.341C235.477 271.341 235.227 269.049 234.624 266.946C231.905 258.137 224.883 250.14 216.899 245.677C215.119 244.74 213.314 244.324 211.329 244.07C210.518 243.917 210.082 243.657 209.47 243.113C209.129 242.43 209.135 241.737 209.258 240.999C210.12 239.798 211.204 239.623 212.602 239.378C212.742 239.356 212.881 239.335 213.025 239.313C215.053 238.999 216.952 238.454 218.89 237.789C219.041 237.737 219.193 237.686 219.35 237.633C221.581 236.876 223.699 236.041 225.746 234.869C226.033 234.715 226.32 234.562 226.608 234.409C234.885 229.962 241.118 222.305 243.828 213.317C244.091 212.402 244.334 211.484 244.56 210.56C244.595 210.428 244.63 210.297 244.666 210.161C245.443 207.058 245.491 203.805 245.484 200.625C245.484 200.342 245.484 200.342 245.484 200.054C245.477 196.862 245.236 193.817 244.56 190.689C244.523 190.513 244.487 190.336 244.45 190.155C243.735 186.733 242.549 183.412 241.389 180.12C241.339 179.96 241.289 179.799 241.238 179.633C240.976 178.872 240.745 178.634 240.057 178.193C239.776 178.065 239.493 177.941 239.209 177.821C238.901 177.679 238.593 177.535 238.287 177.39C238.055 177.282 238.055 177.282 237.819 177.171C235.372 175.96 233.17 174.187 231.031 172.51C230.914 172.418 230.796 172.326 230.675 172.232C227.471 169.689 224.55 166.736 222.153 163.421C222.05 163.281 221.947 163.14 221.841 162.996C214.306 152.695 206.939 137.388 207.779 124.315C196.271 118.014 182.214 116.356 169.284 116.411C168.422 116.415 167.561 116.412 166.699 116.409C162.314 116.393 158.02 116.605 153.664 117.128Z" fill="black"/>
<path d="M234.954 125.636C241.341 128.903 247.603 133.814 251.958 139.535C252.069 139.68 252.181 139.826 252.296 139.976C253.95 142.146 255.501 144.332 256.82 146.722C256.917 146.896 257.015 147.07 257.115 147.25C260.214 152.826 262.398 158.519 262.421 164.954C262.424 165.365 262.424 165.365 262.426 165.784C262.385 168.78 261.705 171.327 259.636 173.544C256.893 176.034 253.32 176.091 249.82 175.936C241.477 175.349 233.644 168.816 228.358 162.815C227.66 161.988 227.011 161.129 226.38 160.25C226.284 160.117 226.188 159.983 226.089 159.845C222.616 154.986 219.851 149.773 217.742 144.184C217.516 143.588 217.286 142.993 217.055 142.399C215.476 138.271 214.228 133.959 213.486 129.599C213.443 129.393 213.4 129.187 213.356 128.974C213.107 127.706 213.015 126.463 212.997 125.174C212.993 125.021 212.99 124.868 212.986 124.711C212.987 123.763 213.111 123.163 213.697 122.412C218.986 118.446 229.844 123.136 234.954 125.636Z" fill="#7D5232"/>
<path d="M116.593 121.302C116.992 121.3 116.992 121.3 117.399 121.298C121.301 121.306 121.301 121.306 122.802 122.624C123.237 123.623 123.299 124.574 123.291 125.649C123.29 125.899 123.29 125.899 123.288 126.154C123.142 133.659 119.838 141.672 116.691 148.343C116.461 148.834 116.238 149.329 116.016 149.824C112.502 157.576 107.253 164.667 100.396 169.762C100.189 169.92 99.9814 170.078 99.7681 170.241C96.5259 172.613 92.8494 174.403 88.9808 175.47C88.7901 175.525 88.5994 175.581 88.4028 175.638C86.0257 176.228 83.2315 176.144 80.9482 175.258C80.6826 175.158 80.6826 175.158 80.4115 175.055C77.9115 173.964 76.2424 171.831 75.2409 169.34C74.6809 167.586 74.5038 165.942 74.5274 164.108C74.5302 163.747 74.5302 163.747 74.533 163.379C74.5658 161.486 74.7843 159.761 75.2409 157.925C75.2973 157.661 75.3537 157.397 75.4118 157.125C76.8926 150.374 80.441 144.028 84.7532 138.689C84.9575 138.42 84.9575 138.42 85.166 138.145C87.7316 134.843 90.8539 132 94.2655 129.599C94.3938 129.507 94.5221 129.415 94.6543 129.32C99.5757 125.803 105.256 123.086 111.176 121.778C111.346 121.739 111.516 121.7 111.691 121.66C113.328 121.32 114.926 121.292 116.593 121.302Z" fill="#7D5232"/>
<path d="M173.745 253.259C173.938 253.333 174.13 253.407 174.328 253.483C179.117 255.582 181.996 260.696 183.892 265.308C184.828 267.717 185.348 270.169 185.794 272.707C185.832 272.904 185.869 273.102 185.907 273.306C186.478 277.175 186.263 281.498 184.949 285.178C184.865 285.421 184.782 285.664 184.695 285.915C183.174 289.897 180.29 292.984 176.443 294.781C171.361 297.005 164.832 296.766 159.736 294.789C155.794 293.173 153.042 290.544 151.201 286.714C148.359 279.827 149.571 271.823 152.356 265.123C153.513 262.45 154.864 259.864 156.835 257.698C156.926 257.597 157.017 257.496 157.111 257.391C161.502 252.573 167.644 250.795 173.745 253.259Z" fill="#FFBB4D"/>
<path d="M180.861 251.222C183.463 253.418 185.386 256.006 187.063 258.967C187.132 259.088 187.202 259.21 187.273 259.335C189.396 263.13 190.625 267.369 191.291 271.65C191.328 271.882 191.328 271.882 191.365 272.119C192.423 279.084 191.448 286.728 187.324 292.602C183.327 297.753 178.3 300.199 171.984 301.375C164.585 302.14 157.246 300.663 151.349 295.997C147.175 292.583 144.903 287.524 144.364 282.219C144.287 281.035 144.281 279.851 144.284 278.665C144.284 278.504 144.285 278.344 144.285 278.178C144.299 273.722 145.008 269.519 146.477 265.308C146.525 265.171 146.572 265.033 146.621 264.892C148.198 260.403 150.623 256.5 153.876 253.048C153.994 252.918 154.113 252.789 154.235 252.655C161.321 245.175 173.003 244.767 180.861 251.222ZM158.738 255.796C158.538 255.976 158.338 256.156 158.132 256.342C154.397 259.831 152.346 264.491 150.917 269.325C150.852 269.538 150.787 269.751 150.721 269.97C149.134 275.714 148.929 282.398 151.717 287.814C154.136 291.931 157.5 294.155 161.987 295.558C163.967 296.047 165.883 296.242 167.92 296.223C168.152 296.222 168.384 296.22 168.623 296.218C173.501 296.154 177.874 294.873 181.356 291.308C183.8 288.729 184.925 285.612 185.701 282.207C185.762 281.94 185.831 281.674 185.91 281.411C187.416 274.248 184.798 265.896 181.144 259.812C180.624 259.063 180.059 258.379 179.453 257.698C179.256 257.456 179.256 257.456 179.054 257.208C176.882 254.604 173.737 252.723 170.364 252.202C166.012 251.809 162.027 252.824 158.738 255.796Z" fill="black"/>
<path d="M135.901 181.361C138.065 182.38 139.168 183.935 139.977 186.118C140.409 188.207 140.076 189.956 139.011 191.809C138.291 192.856 137.448 193.482 136.33 194.071C136.668 194.806 137.107 195.433 137.572 196.093C139.057 198.297 139.539 200.388 139.541 203.002C139.543 203.194 139.546 203.385 139.549 203.581C139.556 206.72 138.338 209.563 136.119 211.828C135.98 211.828 135.84 211.828 135.696 211.828C135.627 212.037 135.557 212.246 135.485 212.462C134.559 213.416 133.314 214.016 132.142 214.615C131.94 214.721 131.94 214.721 131.733 214.829C129.593 215.89 127.54 216.168 125.167 216.148C124.774 216.146 124.774 216.146 124.374 216.144C122.512 216.111 120.938 215.938 119.208 215.21C118.914 215.102 118.914 215.102 118.614 214.993C115.328 213.681 113.004 211.198 111.456 208.076C110.779 206.415 110.423 204.905 110.436 203.108C110.437 202.915 110.438 202.722 110.44 202.523C110.532 199 112.264 196.176 114.762 193.771C115.811 192.88 116.946 192.199 118.151 191.535C118.303 191.446 118.456 191.357 118.612 191.266C120.802 190.057 123.396 189.805 125.854 189.831C126.029 189.832 126.203 189.833 126.383 189.833C126.81 189.836 127.237 189.84 127.664 189.844C127.654 189.591 127.644 189.339 127.634 189.078C127.562 186.481 127.758 184.795 129.579 182.824C131.372 181.168 133.536 180.667 135.901 181.361Z" fill="#F4A99C"/>
<path d="M204.476 181.613C206.235 182.634 207.241 183.946 207.99 185.828C208.376 187.283 208.256 188.8 207.99 190.267C208.206 190.263 208.206 190.263 208.426 190.26C209.086 190.251 209.747 190.246 210.408 190.24C210.634 190.237 210.86 190.233 211.093 190.23C215.132 190.205 218.951 191.851 221.888 194.623C224.261 197.141 225.44 200.109 225.413 203.568C225.288 207.04 223.708 209.838 221.307 212.251C221.182 212.383 221.057 212.516 220.928 212.652C218.25 215.266 214.207 216.405 210.555 216.368C208.847 216.305 207.285 215.947 205.665 215.422C205.333 215.318 205.333 215.318 204.995 215.212C201.385 213.905 198.967 211.054 197.304 207.704C196.674 206.182 196.498 204.831 196.509 203.201C196.511 203.014 196.512 202.827 196.513 202.635C196.572 199.436 197.913 196.858 199.746 194.283C199.592 194.202 199.592 194.202 199.436 194.119C197.894 193.238 196.352 191.912 195.815 190.159C195.439 187.834 195.575 185.685 196.872 183.678C198.68 181.325 201.736 180.368 204.476 181.613Z" fill="#F4A99C"/>
<path d="M246.25 247.975C248.883 250.191 250.662 252.805 251.957 256.007C252.018 256.15 252.078 256.293 252.14 256.441C254.139 261.72 253.756 268.62 251.535 273.763C247.975 281.496 241.4 287.31 233.466 290.337C228.922 291.98 224.232 292.752 219.404 292.577C219.084 291.451 219.024 290.278 218.906 289.118C218.863 288.695 218.818 288.273 218.774 287.85C218.746 287.582 218.719 287.313 218.69 287.036C218.652 286.669 218.652 286.669 218.614 286.294C218.562 285.637 218.549 284.992 218.559 284.333C218.73 284.271 218.902 284.209 219.078 284.146C220.248 283.713 221.286 283.304 222.311 282.589C223.744 281.758 225.305 281.902 226.913 281.878C228.899 281.835 230.465 281.51 232.299 280.739C232.554 280.634 232.809 280.53 233.072 280.422C236.177 279.017 238.283 276.86 239.539 273.684C239.821 272.877 239.956 272.141 240.041 271.293C240.236 269.93 240.867 268.998 241.609 267.873C245.492 261.969 246.024 254.853 246.25 247.975Z" fill="#7D5232"/>
<path d="M176.785 188.945C177.826 189.782 178.609 190.903 179.031 192.169C179.162 193.847 178.726 195.008 177.683 196.304C176.101 197.985 173.887 198.961 171.632 199.356C171.353 199.356 171.074 199.356 170.787 199.356C170.791 200.307 170.808 201.258 170.826 202.21C170.828 202.478 170.829 202.746 170.83 203.022C170.867 204.597 170.965 205.772 172.055 206.966C173.321 208.148 175.038 208.183 176.682 208.161C179.251 208.034 180.836 206.789 182.545 204.996C182.877 204.621 183.199 204.236 183.509 203.842C183.917 203.342 184.095 203.188 184.728 203.111C185.903 203.073 186.558 203.214 187.486 204.006C188.064 204.874 188.058 205.525 187.909 206.543C187.006 209.252 184.199 211.219 181.779 212.462C181.014 212.786 180.247 213.063 179.453 213.307C179.244 213.377 179.035 213.447 178.819 213.519C174.943 213.805 171.828 213.744 168.698 211.269C168.22 210.906 168.22 210.906 167.404 210.982C166.924 211.277 166.924 211.277 166.44 211.669C165.346 212.471 164.254 212.909 162.965 213.307C162.652 213.412 162.652 213.412 162.331 213.519C158.13 213.873 154.666 213.51 151.339 210.771C151.092 210.575 151.092 210.575 150.841 210.375C149.375 209.153 147.866 207.608 147.68 205.631C147.758 204.708 148.012 204.296 148.591 203.584C149.536 202.954 150.443 203.009 151.551 203.161C152.106 203.557 152.106 203.557 152.608 204.218C154.106 206.029 155.833 207.788 158.299 208.069C158.75 208.095 159.198 208.103 159.649 208.102C159.808 208.102 159.967 208.102 160.13 208.102C161.375 208.076 162.318 207.828 163.388 207.177C163.539 207.109 163.689 207.041 163.844 206.971C164.399 206.663 164.465 206.286 164.656 205.698C164.726 205.558 164.796 205.418 164.868 205.275C164.901 204.83 164.921 204.384 164.935 203.939C164.944 203.673 164.952 203.407 164.962 203.134C164.97 202.855 164.978 202.576 164.987 202.289C164.996 202.006 165.005 201.723 165.014 201.439C165.037 200.745 165.058 200.05 165.079 199.356C164.754 199.317 164.754 199.317 164.422 199.278C162.037 198.892 159.673 197.771 158.108 195.895C157.232 194.63 156.853 193.519 157.047 191.958C157.531 190.269 158.859 189.176 160.292 188.257C161.672 187.506 163.121 187.173 164.656 186.884C164.849 186.845 165.042 186.806 165.241 186.765C169.155 186.236 173.458 186.671 176.785 188.945Z" fill="black"/>
<path d="M204.476 181.613C206.235 182.634 207.241 183.946 207.99 185.828C208.162 186.475 208.162 186.475 208.202 187.096C208.217 187.229 208.233 187.362 208.249 187.499C208.371 189.226 207.706 191.084 206.682 192.473C204.988 194.016 203.42 194.587 201.152 194.566C199.484 194.411 198.22 193.57 197.097 192.36C195.68 190.524 195.53 188.489 195.73 186.25C196.116 184.466 197.123 183.085 198.618 182.059C200.52 180.985 202.446 180.69 204.476 181.613Z" fill="black"/>
<path d="M135.901 181.361C138.065 182.38 139.168 183.935 139.977 186.118C140.411 188.214 140.06 189.93 139.026 191.802C138.184 193.058 136.936 193.951 135.493 194.417C133.388 194.796 131.762 194.418 129.989 193.226C128.819 192.218 127.949 190.733 127.664 189.21C127.495 186.83 127.666 185.126 129.196 183.238C131.001 181.285 133.317 180.603 135.901 181.361Z" fill="black"/>
<path d="M131.699 158.445C131.801 158.458 131.902 158.472 132.007 158.485C135.474 158.953 140.272 159.631 142.631 162.556C143.074 163.213 143.299 163.64 143.175 164.45C143.019 164.957 142.691 165.343 142.29 165.682C141.657 165.967 141.084 165.865 140.432 165.683C139.877 165.423 139.358 165.109 138.834 164.793C136.846 163.613 134.959 163.014 132.674 162.682C132.422 162.645 132.422 162.645 132.164 162.607C130.657 162.404 129.16 162.336 127.655 162.582C127.559 162.596 127.463 162.611 127.364 162.626C126.629 162.745 125.912 162.913 125.196 163.118C124.517 163.296 123.822 163.347 123.179 163.008C122.8 162.741 122.596 162.517 122.374 162.105C122.251 161.363 122.308 160.665 122.673 160C123.42 159.365 124.293 159.101 125.229 158.879C125.347 158.85 125.465 158.822 125.587 158.792C127.589 158.336 129.661 158.167 131.699 158.445Z" fill="black"/>
<path d="M208.668 167.899C208.799 167.969 208.799 167.969 208.933 168.041C209.614 168.44 210.161 168.958 210.423 169.769C210.489 170.579 210.421 171.126 210.03 171.848C209.485 172.411 209.014 172.667 208.253 172.655C207.507 172.545 206.798 172.218 206.093 171.943C204.158 171.192 202.431 170.873 200.375 170.88C200.23 170.88 200.23 170.88 200.083 170.88C197.57 170.89 195.039 171.136 192.692 172.176C191.974 172.482 191.369 172.5 190.616 172.304C189.954 171.897 189.722 171.413 189.498 170.633C189.405 169.921 189.427 169.422 189.725 168.772C190.95 167.231 192.487 166.922 194.29 166.626C194.569 166.58 194.847 166.531 195.125 166.482C199.514 165.734 204.594 165.712 208.668 167.899Z" fill="black"/>
<path d="M265.17 156.927C269.942 157.389 274.473 159.032 277.927 162.379L278.258 162.707L278.274 162.725L278.29 162.741C281.451 166.125 282.701 170.293 282.297 174.527L282.296 174.54C281.734 180.048 278.306 183.801 274.093 186.8L274.09 186.802C273.956 186.897 273.821 186.993 273.687 187.089L273.686 187.088C273.617 187.136 273.549 187.186 273.478 187.236L273.477 187.236C273.127 187.484 272.775 187.731 272.421 187.978C271.066 188.929 270.259 189.773 269.72 190.656C269.178 191.544 268.824 192.608 268.573 194.134L268.572 194.145L268.57 194.155C268.554 194.251 268.536 194.346 268.519 194.444L268.519 194.446C268.504 194.537 268.489 194.629 268.474 194.723L268.449 194.868L268.405 195.009C268.181 195.709 267.841 196.171 267.37 196.604L267.107 196.846L266.775 196.983C265.839 197.366 265.093 197.396 264.262 197.314L264.263 197.315C264.143 197.304 264.143 197.304 264.021 197.293L264.017 197.293C263.746 197.267 263.478 197.238 263.217 197.211C263.036 197.193 262.855 197.175 262.674 197.157L262.672 197.157C262.285 197.118 261.898 197.08 261.512 197.039C261.029 196.989 260.543 196.941 260.055 196.893L258.376 196.724C258.113 196.698 257.852 196.671 257.597 196.644L257.598 196.643L257.071 196.59L256.973 196.57C255.91 196.352 255.305 195.835 254.847 195.413L254.581 195.169L254.418 194.848C253.817 193.665 254.075 192.491 254.117 192.156C254.13 192.045 254.143 191.933 254.156 191.818L254.158 191.799C254.493 189.119 255.275 186.839 256.623 184.804C257.959 182.784 259.782 181.112 262.047 179.545L262.06 179.535L262.073 179.527C262.434 179.285 262.802 179.06 263.127 178.861C264.226 178.174 265.241 177.409 266.135 176.569L266.147 176.557L266.16 176.545C266.241 176.472 266.322 176.398 266.405 176.323C267.667 175.14 268.163 174.024 268.19 172.499C268.102 171.808 267.727 171.072 267.077 170.494C266.22 169.897 265.286 169.533 264.153 169.363L264.145 169.362C264.054 169.348 263.963 169.333 263.87 169.319C262.297 169.119 261.026 169.281 260.007 169.869C258.985 170.577 258.199 171.489 257.337 172.642L257.33 172.649C257.273 172.726 257.215 172.802 257.156 172.881C257.105 172.951 257.098 172.961 257.034 173.049L256.956 173.155L256.866 173.25C256.186 173.966 255.429 174.207 254.785 174.33L254.582 174.37L254.378 174.366C253.239 174.349 252.156 173.851 251.432 173.476C251.036 173.271 250.654 173.051 250.334 172.867C249.994 172.671 249.739 172.525 249.523 172.416L249.523 172.415C249.213 172.257 248.901 172.101 248.589 171.943L248.588 171.942C248.387 171.84 248.187 171.738 247.986 171.637L247.986 171.638C247.894 171.591 247.801 171.544 247.705 171.496L247.702 171.494C247.033 171.154 246.527 170.901 246.176 170.668C245.659 170.326 245.4 169.986 245.201 169.733L244.949 169.412L244.843 169.017C244.444 167.536 244.942 166.391 245.521 165.529L245.519 165.529C245.584 165.429 245.585 165.429 245.651 165.328L245.656 165.321L245.66 165.314C246.909 163.449 248.396 161.925 250.217 160.55C250.314 160.474 250.412 160.399 250.513 160.321L250.526 160.311L250.538 160.301C253.134 158.364 256.147 157.302 259.37 156.863C259.464 156.85 259.562 156.835 259.659 156.821L259.681 156.818C261.519 156.576 263.298 156.747 264.861 156.899C264.961 156.909 265.062 156.917 265.165 156.927L265.17 156.927Z" fill="#FFF288" stroke="black" stroke-width="4"/>
<path d="M254.831 198.805C257.975 197.019 262.492 196.899 265.612 199.459L265.909 199.715L265.933 199.737L265.957 199.759C266.068 199.866 266.068 199.866 266.181 199.976L266.399 200.182L266.419 200.202L266.44 200.223C268.167 201.961 268.814 204.152 268.703 206.297L268.7 206.383L268.687 206.468C268.397 208.564 267.278 210.435 265.504 211.738L265.461 211.769L265.415 211.799C262.99 213.384 260.646 213.538 258.084 213.203L258.026 213.195C255.753 212.83 254.071 211.487 252.892 210.177L252.852 210.133L252.816 210.087C251.346 208.245 250.909 206.059 251.226 203.971L251.235 203.911L251.247 203.851C251.692 201.779 252.932 200.075 254.704 198.885L254.766 198.843L254.831 198.805Z" fill="#FFF288" stroke="black" stroke-width="4"/>
<path d="M180.126 29.012C180.269 29.0082 180.412 29.0043 180.559 29.0003C181.927 28.9895 183.135 29.2865 184.145 30.2511C184.976 31.2445 185.343 32.4907 185.352 33.7696C185.353 33.9043 185.353 33.9043 185.354 34.0417C185.356 34.3309 185.355 34.6201 185.354 34.9093C185.353 35.0086 185.353 35.108 185.353 35.2103C185.346 36.7632 185.246 38.2428 184.91 39.7609C184.866 39.9684 184.866 39.9684 184.821 40.18C184.546 41.4711 184.269 42.763 183.936 44.0406C183.343 46.3295 183.551 48.4211 184.224 50.6688C184.265 50.8045 184.305 50.9401 184.347 51.0799C184.488 51.5459 184.632 52.0109 184.777 52.4756C184.816 52.6023 184.816 52.6023 184.856 52.7316C185.873 55.9811 187.082 59.1442 188.339 62.3072C189.064 64.1338 189.766 65.9697 190.468 67.8055C190.696 68.4026 190.928 68.9984 191.162 69.5933C192.99 74.2736 194.545 79.0729 196.012 83.8774C196.152 84.3253 196.296 84.771 196.444 85.2164C197.661 88.9018 198.695 92.6502 199.612 96.4211C199.737 96.9339 199.876 97.4409 200.026 97.9472C200.295 98.8603 200.518 99.7834 200.745 100.708C201.114 102.205 201.523 103.685 201.964 105.162C202.181 105.888 202.381 106.618 202.577 107.349C202.765 107.391 202.765 107.391 202.957 107.434C209.266 108.858 217.12 111.179 220.879 116.919C221.027 117.163 221.172 117.408 221.314 117.655C221.376 117.762 221.438 117.869 221.502 117.98C222.528 119.885 222.886 122.154 222.36 124.274C221.695 126.355 220.693 127.983 219.173 129.567C219.056 129.693 218.94 129.82 218.82 129.95C213.991 135.093 205.878 137.427 199.231 139.069C199.081 139.107 198.932 139.144 198.777 139.183C196.138 139.841 193.481 140.364 190.799 140.809C190.699 140.826 190.599 140.842 190.497 140.86C187.478 141.364 184.454 141.717 181.406 141.988C181.248 142.003 181.091 142.017 180.929 142.031C180.47 142.072 180.01 142.111 179.551 142.15C179.354 142.167 179.354 142.167 179.153 142.185C176.619 142.392 174.085 142.437 171.543 142.438C171.23 142.438 170.916 142.438 170.602 142.439C169.948 142.44 169.294 142.44 168.64 142.44C167.981 142.44 167.321 142.441 166.662 142.443C162.787 142.453 158.931 142.415 155.064 142.147C154.906 142.137 154.747 142.126 154.583 142.115C152.527 141.975 150.495 141.711 148.456 141.414C147.993 141.347 147.529 141.285 147.065 141.224C137.873 139.994 126.603 137.981 118.928 132.511C118.797 132.418 118.666 132.325 118.531 132.229C116.043 130.409 113.718 128.102 112.638 125.15C112.595 125.039 112.553 124.929 112.509 124.815C111.931 122.99 111.911 120.452 112.771 118.726C112.838 118.584 112.905 118.442 112.973 118.296C113.495 117.255 114.133 116.376 114.913 115.514C115.013 115.402 115.113 115.291 115.217 115.176C116.704 113.61 118.503 112.498 120.4 111.498C120.482 111.454 120.565 111.41 120.649 111.364C124.032 109.547 127.791 108.268 131.539 107.463C131.945 107.339 132.054 107.275 132.312 106.948C132.478 106.538 132.478 106.538 132.616 106.061C132.643 105.973 132.67 105.884 132.698 105.793C132.785 105.509 132.871 105.225 132.956 104.94C133.012 104.757 133.068 104.574 133.124 104.391C133.21 104.11 133.295 103.829 133.381 103.547C133.588 102.866 133.8 102.186 134.016 101.507C134.338 100.491 134.655 99.4743 134.971 98.4567C136.77 92.6586 138.647 86.8953 140.664 81.1688C140.878 80.5612 141.09 79.9531 141.3 79.3441C143.396 73.2647 145.868 67.2444 148.64 61.4428C148.776 61.1563 148.912 60.8698 149.048 60.5833C149.443 59.7525 149.844 58.9243 150.246 58.0968C150.303 57.9792 150.36 57.8617 150.419 57.7405C151.243 56.0398 152.146 54.3921 153.09 52.7546C153.26 52.456 153.427 52.1566 153.591 51.8552C154.358 50.4572 155.211 49.13 156.102 47.808C156.245 47.5941 156.389 47.3801 156.532 47.1662C159.413 42.8796 162.577 38.5373 166.575 35.2104C166.648 35.1487 166.721 35.087 166.797 35.0233C170.56 31.8605 175.077 29.0571 180.126 29.012Z" fill="#AADCE7"/>
<path d="M180.126 29.012C180.269 29.0082 180.412 29.0043 180.559 29.0003C181.927 28.9895 183.135 29.2865 184.145 30.2511C184.976 31.2445 185.343 32.4907 185.352 33.7696C185.353 33.9043 185.353 33.9043 185.354 34.0417C185.356 34.3309 185.355 34.6201 185.354 34.9093C185.353 35.0086 185.353 35.108 185.353 35.2103C185.346 36.7632 185.246 38.2428 184.91 39.7609C184.866 39.9684 184.866 39.9684 184.821 40.18C184.546 41.4711 184.269 42.763 183.936 44.0406C183.343 46.3295 183.551 48.4211 184.224 50.6688C184.265 50.8045 184.305 50.9401 184.347 51.0799C184.488 51.5459 184.632 52.0109 184.777 52.4756C184.816 52.6023 184.816 52.6023 184.856 52.7316C185.873 55.9811 187.082 59.1442 188.339 62.3072C189.064 64.1338 189.766 65.9697 190.468 67.8055C190.696 68.4026 190.928 68.9984 191.162 69.5933C192.99 74.2736 194.545 79.0729 196.012 83.8774C196.152 84.3253 196.296 84.771 196.444 85.2164C197.661 88.9018 198.695 92.6502 199.612 96.4211C199.737 96.9339 199.876 97.4409 200.026 97.9472C200.295 98.8603 200.518 99.7834 200.745 100.708C201.114 102.205 201.523 103.685 201.964 105.162C202.181 105.888 202.381 106.618 202.577 107.349C202.765 107.391 202.765 107.391 202.957 107.434C209.266 108.858 217.12 111.179 220.879 116.919C221.027 117.163 221.172 117.408 221.314 117.655C221.376 117.762 221.438 117.869 221.502 117.98C222.528 119.885 222.886 122.154 222.36 124.274C221.695 126.355 220.693 127.983 219.173 129.567C219.056 129.693 218.94 129.82 218.82 129.95C213.991 135.093 205.878 137.427 199.231 139.069C199.081 139.107 198.932 139.144 198.777 139.183C196.138 139.841 193.481 140.364 190.799 140.809C190.699 140.826 190.599 140.842 190.497 140.86C187.478 141.364 184.454 141.717 181.406 141.988C181.248 142.003 181.091 142.017 180.929 142.031C180.47 142.072 180.01 142.111 179.551 142.15C179.354 142.167 179.354 142.167 179.153 142.185C176.619 142.392 174.085 142.437 171.543 142.438C171.23 142.438 170.916 142.438 170.602 142.439C169.948 142.44 169.294 142.44 168.64 142.44C167.981 142.44 167.321 142.441 166.662 142.443C162.787 142.453 158.931 142.415 155.064 142.147C154.906 142.137 154.747 142.126 154.583 142.115C152.527 141.975 150.495 141.711 148.456 141.414C147.993 141.347 147.529 141.285 147.065 141.224C137.873 139.994 126.603 137.981 118.928 132.511C118.797 132.418 118.666 132.325 118.531 132.229C116.043 130.409 113.718 128.102 112.638 125.15C112.595 125.039 112.553 124.929 112.509 124.815C111.931 122.99 111.911 120.452 112.771 118.726C112.838 118.584 112.905 118.442 112.973 118.296C113.495 117.255 114.133 116.376 114.913 115.514C115.013 115.402 115.113 115.291 115.217 115.176C116.704 113.61 118.503 112.498 120.4 111.498C120.482 111.454 120.565 111.41 120.649 111.364C124.032 109.547 127.791 108.268 131.539 107.463C131.945 107.339 132.054 107.275 132.312 106.948C132.478 106.538 132.478 106.538 132.616 106.061C132.643 105.973 132.67 105.884 132.698 105.793C132.785 105.509 132.871 105.225 132.956 104.94C133.012 104.757 133.068 104.574 133.124 104.391C133.21 104.11 133.295 103.829 133.381 103.547C133.588 102.866 133.8 102.186 134.016 101.507C134.338 100.491 134.655 99.4743 134.971 98.4567C136.77 92.6586 138.647 86.8953 140.664 81.1688C140.878 80.5612 141.09 79.9531 141.3 79.3441C143.396 73.2647 145.868 67.2444 148.64 61.4428C148.776 61.1563 148.912 60.8698 149.048 60.5833C149.443 59.7525 149.844 58.9243 150.246 58.0968C150.303 57.9792 150.36 57.8617 150.419 57.7405C151.243 56.0398 152.146 54.3921 153.09 52.7546C153.26 52.456 153.427 52.1566 153.591 51.8552C154.358 50.4572 155.211 49.13 156.102 47.808C156.245 47.5941 156.389 47.3801 156.532 47.1662C159.413 42.8796 162.577 38.5373 166.575 35.2104C166.648 35.1487 166.721 35.087 166.797 35.0233C170.56 31.8605 175.077 29.0571 180.126 29.012ZM179.582 32.5666C176.043 32.9957 172.912 35.043 170.188 37.218C170.064 37.3157 169.941 37.4133 169.813 37.5139C167.16 39.6412 164.881 42.1405 162.87 44.8775C162.675 45.1392 162.475 45.3972 162.275 45.6551C155.217 54.816 150.826 65.5427 146.474 76.165C146.417 76.3021 146.361 76.4392 146.303 76.5805C145.627 78.2411 145.056 79.9395 144.477 81.6355C144.301 82.1505 144.125 82.6652 143.949 83.18C143.914 83.2803 143.88 83.3807 143.844 83.484C143.572 84.2796 143.297 85.0745 143.019 85.8683C142.982 85.9737 142.945 86.0791 142.907 86.1877C142.721 86.7164 142.53 87.2424 142.333 87.7671C142.159 88.2403 142.01 88.7166 141.873 89.2014C141.408 90.8356 140.846 92.4353 140.287 94.0392C139.773 95.5162 139.287 96.9937 138.871 98.5014C138.672 99.2201 138.452 99.9272 138.209 100.632C137.886 101.579 137.599 102.532 137.322 103.493C137.024 104.533 136.713 105.563 136.359 106.586C135.861 108.077 135.426 109.589 134.979 111.096C134.681 112.098 134.374 113.096 134.038 114.086C133.531 115.45 133.531 115.45 133.65 116.852C134.941 119.119 138.8 120.067 141.143 120.715C141.644 120.854 142.133 121.019 142.626 121.185C143.719 121.54 144.842 121.777 145.963 122.021C146.053 122.041 146.143 122.061 146.235 122.081C148.297 122.528 150.365 122.916 152.455 123.209C152.556 123.223 152.657 123.238 152.761 123.252C154.458 123.489 156.157 123.653 157.867 123.778C157.974 123.786 158.082 123.794 158.193 123.802C158.829 123.848 159.465 123.889 160.101 123.927C160.308 123.939 160.515 123.952 160.722 123.965C162.989 124.108 165.259 124.109 167.529 124.111C167.971 124.112 168.413 124.114 168.855 124.117C171.792 124.137 174.68 124.018 177.602 123.724C178.174 123.669 178.745 123.625 179.317 123.585C181.179 123.451 183.013 123.129 184.852 122.817C185.234 122.754 185.616 122.695 186 122.641C187.839 122.382 189.637 121.946 191.439 121.507C191.771 121.426 192.104 121.349 192.437 121.274C195.073 120.645 199.404 119.47 200.971 117.12C201.14 116.025 200.838 115.003 200.53 113.962C200.421 113.591 200.318 113.219 200.215 112.847C199.87 111.6 199.52 110.354 199.147 109.114C198.873 108.198 198.639 107.274 198.41 106.345C198.051 104.889 197.641 103.45 197.225 102.01C197.178 101.846 197.131 101.682 197.082 101.514C196.989 101.192 196.896 100.87 196.803 100.548C196.546 99.6583 196.32 98.7674 196.117 97.8638C195.965 97.2131 195.78 96.5726 195.592 95.9313C195.556 95.8051 195.519 95.6789 195.482 95.5488C195.394 95.244 195.305 94.9393 195.216 94.6347C194.77 94.7832 194.679 94.8924 194.388 95.2454C193.961 95.75 193.509 96.2146 193.034 96.6742C192.666 97.0565 192.543 97.2696 192.489 97.805C192.523 99.1117 192.986 100.406 193.4 101.634C193.838 102.946 194.24 104.167 193.593 105.484C193.27 105.984 192.99 106.24 192.405 106.413C191.635 106.459 191.073 106.369 190.364 106.053C190.271 106.013 190.178 105.974 190.083 105.933C189.416 105.646 188.761 105.335 188.106 105.021C187.938 104.941 187.769 104.861 187.601 104.781C187.266 104.622 186.932 104.459 186.6 104.295C186.445 104.221 186.29 104.147 186.13 104.07C185.992 104.003 185.853 103.935 185.711 103.865C185.246 103.714 184.977 103.745 184.509 103.87C184.219 104.027 184.219 104.027 183.948 104.246C179.85 107.246 179.85 107.246 178.219 107.138C177.612 107.011 177.266 106.699 176.897 106.22C176.45 104.805 176.839 103.209 177.081 101.778C177.581 99.7541 177.581 99.7541 177.245 97.8453C177.007 97.5912 176.76 97.3774 176.487 97.1609C176.301 97.0016 176.116 96.8422 175.931 96.6825C175.84 96.6071 175.75 96.5316 175.657 96.4539C175.336 96.1792 175.041 95.8836 174.747 95.5799C173.85 94.6079 173.85 94.6079 172.731 93.9655C172.589 93.7397 172.589 93.7397 172.463 93.4302C172.414 93.3142 172.364 93.1983 172.313 93.0788C172.109 92.2939 172.067 91.591 172.388 90.837C172.858 90.3555 173.304 90.1649 173.936 89.9504C174.065 89.905 174.195 89.8596 174.329 89.8129C176.066 89.2799 177.889 89.1772 179.691 89.0135C179.888 88.5433 180.042 88.0764 180.175 87.5847C180.215 87.4407 180.255 87.2967 180.295 87.1484C180.377 86.8487 180.459 86.5489 180.54 86.2492C181.567 82.5181 181.567 82.5181 182.677 81.6022C183.257 81.275 183.866 81.2454 184.509 81.3847C186.059 82.1125 186.896 84.6314 187.61 86.0661C188.375 87.6826 188.375 87.6826 189.729 88.7458C190.114 88.7828 190.489 88.8078 190.875 88.8211C191.091 88.8307 191.306 88.8404 191.522 88.8504C191.68 88.8574 191.68 88.8574 191.84 88.8645C192.432 88.8947 193.021 88.9542 193.61 89.0135C193.356 87.9503 193.065 86.908 192.728 85.8683C192.682 85.7261 192.637 85.5839 192.59 85.4373C192.442 84.9785 192.294 84.52 192.146 84.0615C192.044 83.7431 191.941 83.4248 191.838 83.1064C191.246 81.2696 190.648 79.4347 190.038 77.6038C190.007 77.5107 189.976 77.4176 189.944 77.3217C189.042 74.6146 188.123 71.8975 187.006 69.2702C186.712 68.5716 186.446 67.8629 186.181 67.1526C185.78 66.0778 185.37 65.0064 184.958 63.9355C184.87 63.7052 184.782 63.4749 184.694 63.2446C184.564 62.9047 184.433 62.5651 184.303 62.2254C184.264 62.1242 184.226 62.0229 184.186 61.9186C183.951 61.3078 183.697 60.7087 183.425 60.113C183.221 59.6458 183.058 59.165 182.894 58.6824C182.606 57.8426 182.313 57.0053 182.008 56.1713C181.26 54.1171 180.574 52.0689 180.092 49.9327C180.067 49.8273 180.041 49.722 180.015 49.6135C179.475 47.2237 179.725 44.7032 180.398 42.3736C181.119 39.8283 181.594 37.3238 181.623 34.6751C181.626 34.5096 181.629 34.3442 181.632 34.1737C181.631 33.9416 181.631 33.9416 181.631 33.7048C181.631 33.566 181.631 33.4273 181.632 33.2844C181.595 32.9207 181.595 32.9207 181.321 32.6889C180.767 32.3946 180.185 32.5139 179.582 32.5666Z" fill="black"/>
<path d="M203.514 111.498C204.296 111.585 205.014 111.784 205.764 112.017C205.876 112.051 205.988 112.086 206.104 112.121C206.331 112.19 206.557 112.26 206.784 112.33C207.135 112.437 207.486 112.542 207.838 112.645C208.61 112.877 209.338 113.175 210.072 113.506C210.184 113.556 210.296 113.607 210.412 113.659C212.085 114.418 213.69 115.203 215.158 116.317C215.234 116.374 215.311 116.432 215.391 116.492C216.892 117.643 218.47 119.185 218.771 121.135C218.854 122.394 218.863 123.484 218.236 124.615C218.179 124.726 218.121 124.837 218.062 124.952C216.935 126.934 215.064 128.394 213.15 129.567C213.066 129.618 212.983 129.669 212.897 129.722C210.912 130.922 208.775 131.973 206.595 132.765C206.214 132.904 205.84 133.055 205.466 133.21C201.976 134.644 198.215 135.433 194.546 136.258C194.358 136.301 194.358 136.301 194.165 136.345C194.052 136.37 193.938 136.396 193.821 136.422C193.727 136.443 193.633 136.465 193.535 136.486C192.615 136.682 191.694 136.848 190.763 136.984C190.648 137.001 190.533 137.018 190.414 137.035C190.172 137.071 189.93 137.107 189.689 137.142C189.339 137.194 188.989 137.246 188.64 137.299C185.97 137.7 183.316 138.081 180.62 138.241C180.088 138.275 179.557 138.321 179.026 138.368C177.765 138.475 176.505 138.559 175.241 138.607C175.015 138.615 175.015 138.615 174.786 138.624C173.229 138.679 171.673 138.692 170.116 138.695C169.968 138.695 169.819 138.696 169.667 138.696C168.882 138.698 168.098 138.699 167.313 138.7C166.679 138.7 166.045 138.702 165.41 138.705C161.589 138.723 157.808 138.652 154.003 138.292C153.534 138.248 153.066 138.208 152.598 138.167C150.394 137.975 148.227 137.645 146.048 137.275C145.598 137.201 145.148 137.134 144.696 137.071C137.459 136.053 129.678 134.127 123.211 130.637C123.08 130.571 122.95 130.504 122.816 130.435C121.274 129.631 119.915 128.627 118.66 127.425C118.555 127.329 118.451 127.233 118.343 127.133C116.961 125.824 116.004 124.273 115.907 122.348C115.873 120.727 116.298 119.66 117.364 118.425C117.57 118.21 117.779 117.998 117.991 117.789C118.081 117.698 118.172 117.608 118.265 117.515C121.125 114.822 125.123 113.145 128.832 112.034C128.972 111.991 129.112 111.949 129.257 111.905C129.85 111.734 130.353 111.611 130.973 111.632C130.846 112.241 130.709 112.843 130.533 113.44C130.014 115.214 129.647 116.883 130.493 118.632C131.768 120.804 134.522 122.145 136.805 122.974C137.231 123.131 137.653 123.296 138.076 123.463C138.972 123.808 139.879 124.089 140.802 124.355C141.025 124.421 141.025 124.421 141.253 124.487C141.555 124.576 141.858 124.663 142.16 124.75C142.464 124.838 142.768 124.927 143.071 125.018C144.263 125.372 145.462 125.64 146.683 125.869C146.787 125.889 146.891 125.909 146.998 125.929C149.807 126.455 152.638 126.798 155.478 127.113C155.844 127.155 156.211 127.199 156.577 127.244C163.629 128.105 171.101 128.106 178.154 127.251C178.73 127.183 179.301 127.141 179.88 127.119C181.531 127.055 183.135 126.77 184.76 126.48C184.912 126.453 185.064 126.426 185.221 126.399C195.769 124.832 195.769 124.832 204.103 118.942C204.956 117.544 204.677 115.904 204.31 114.386C204.142 113.733 203.966 113.083 203.781 112.435C203.753 112.335 203.725 112.235 203.695 112.132C203.635 111.921 203.575 111.71 203.514 111.498Z" fill="#AADCE7"/>
<path d="M164.031 56.6243C165.288 57.1698 165.982 58.6866 166.583 59.8447C167.314 61.2696 167.314 61.2696 168.314 62.5131C168.704 62.5313 169.091 62.5414 169.48 62.5461C169.724 62.5505 169.968 62.5549 170.211 62.5594C170.595 62.5657 170.979 62.5717 171.363 62.577C171.734 62.5823 172.105 62.5892 172.475 62.5963C172.588 62.5974 172.701 62.5985 172.817 62.5997C173.815 62.62 175.009 62.6577 175.809 63.3162C176.222 63.7958 176.46 64.2163 176.419 64.8647C175.988 66.7502 174.464 68.6632 173.136 70.0133C172.82 70.3676 172.82 70.3676 172.689 70.8111C172.718 71.0951 172.778 71.3423 172.865 71.6142C172.89 71.7002 172.915 71.7863 172.942 71.875C173.028 72.1456 173.125 72.4105 173.224 72.6765C173.259 72.774 173.294 72.8716 173.331 72.9721C173.512 73.477 173.702 73.9781 173.899 74.4771C174.366 75.6802 174.675 76.7296 174.471 78.0384C174.175 78.6973 173.783 79.0637 173.132 79.3768C171.021 79.6737 168.639 78.7346 166.754 77.8763C166.636 77.8249 166.519 77.7735 166.399 77.7205C166.294 77.6726 166.19 77.6246 166.082 77.5752C165.647 77.4743 165.497 77.5567 165.102 77.7707C164.708 78.0349 164.328 78.3158 163.948 78.5989C163.059 79.2508 162.165 79.8764 161.221 80.4475C161.096 80.5232 160.972 80.599 160.844 80.677C159.927 81.2313 159.369 81.5053 158.276 81.3844C157.671 81.087 157.347 80.7917 157.072 80.1798C157.006 79.6943 157.009 79.2137 157.013 78.7243C157.014 78.5809 157.014 78.4374 157.014 78.2897C157.046 76.4062 157.328 74.5449 157.607 72.6849C157.526 72.6458 157.445 72.6067 157.362 72.5665C156.281 72.0102 155.316 71.1041 154.43 70.2852C154.089 69.973 153.735 69.6796 153.374 69.3907C152.999 69.0123 152.884 68.6336 152.881 68.1093C152.906 67.3365 152.989 66.6049 153.548 66.0301C154.296 65.48 155.155 65.2241 156.029 64.951C156.753 64.719 157.459 64.4528 158.142 64.1192C158.229 64.085 158.316 64.0507 158.405 64.0155C158.906 63.7757 159.158 63.5662 159.401 63.0581C159.567 62.5657 159.709 62.0701 159.84 61.5679C161.297 56.3442 161.297 56.3442 164.031 56.6243Z" fill="black"/>
<path d="M154.145 90.2017C155.071 90.808 155.397 91.7763 155.658 92.8026C155.715 93.0145 155.771 93.2264 155.828 93.4383C155.87 93.6009 155.87 93.6009 155.914 93.7667C156.058 94.3165 156.21 94.8645 156.361 95.4125C156.388 95.5123 156.415 95.6122 156.443 95.7151C156.516 95.9803 156.593 96.2443 156.67 96.5083C156.694 96.6222 156.717 96.736 156.741 96.8534C156.968 97.2271 157.038 97.2466 157.441 97.3678C157.657 97.4203 157.875 97.4698 158.093 97.5168C158.209 97.5443 158.324 97.5717 158.443 97.6001C158.814 97.6878 159.185 97.7716 159.556 97.855C159.924 97.9395 160.292 98.0248 160.659 98.1114C160.888 98.1651 161.117 98.2175 161.346 98.2683C162.241 98.4756 163.147 98.7291 163.833 99.3628C164.224 100.067 164.157 100.817 164.031 101.594C163.799 102.087 163.487 102.425 163.095 102.799C162.997 102.894 162.9 102.989 162.8 103.088C162.092 103.752 161.331 104.35 160.563 104.943C160.412 105.059 160.263 105.177 160.114 105.295C159.953 105.421 159.788 105.54 159.619 105.655C159.124 106.017 159.124 106.017 158.87 106.557C158.848 106.879 158.857 107.186 158.879 107.508C158.883 107.622 158.886 107.736 158.89 107.854C158.917 108.526 158.977 109.194 159.048 109.863C159.096 110.511 159.111 111.158 159.121 111.808C159.125 111.936 159.129 112.064 159.133 112.196C159.14 112.968 159.081 113.439 158.544 114.041C157.898 114.414 157.276 114.571 156.537 114.443C155.709 114.127 155.001 113.602 154.295 113.079C154.138 112.964 154.138 112.964 153.978 112.847C153.67 112.622 153.363 112.395 153.057 112.167C152.89 112.045 152.724 111.922 152.557 111.8C151.422 110.958 151.422 110.958 151.049 110.561C150.549 110.757 150.06 110.97 149.571 111.192C149.416 111.262 149.261 111.332 149.102 111.404C148.78 111.549 148.458 111.695 148.136 111.842C145.763 112.908 145.763 112.908 144.675 112.862C144.563 112.858 144.451 112.854 144.335 112.851C144.254 112.846 144.173 112.841 144.09 112.837C144.09 112.748 144.09 112.66 144.09 112.569C144.012 112.561 143.935 112.552 143.855 112.544C143.414 112.384 143.274 112.157 143.019 111.766C142.936 111.387 142.898 111.093 142.893 110.712C142.892 110.605 142.891 110.499 142.889 110.389C142.944 108.939 143.539 107.589 144.057 106.252C144.49 105.158 144.49 105.158 144.625 104.003C144.485 103.728 144.485 103.728 144.232 103.552C143.608 103.004 143.123 102.384 142.617 101.728C142.511 101.593 142.405 101.457 142.296 101.318C141.474 100.253 140.903 99.4657 140.937 98.0777C141.066 97.4437 141.456 97.0415 141.948 96.6421C142.341 96.412 142.631 96.3396 143.085 96.3318C143.203 96.3291 143.321 96.3264 143.442 96.3237C143.631 96.3214 143.631 96.3214 143.824 96.319C143.954 96.3164 144.084 96.3138 144.218 96.3112C144.632 96.3032 145.047 96.297 145.461 96.2908C145.743 96.2857 146.024 96.2804 146.305 96.2751C146.994 96.2623 147.683 96.251 148.372 96.2406C148.414 96.1577 148.455 96.0748 148.498 95.9894C149.152 94.6831 149.839 93.39 150.556 92.1167C150.635 91.9751 150.715 91.8334 150.797 91.6875C151.58 90.4506 152.611 89.5685 154.145 90.2017Z" fill="black"/>
<path d="M183.84 85.8011C184.34 85.9677 184.405 86.1814 184.637 86.6336C184.71 86.7805 184.71 86.7805 184.785 86.9303C184.891 87.137 184.998 87.3435 185.104 87.5499C185.16 87.6577 185.215 87.7656 185.272 87.8767C185.562 88.433 185.862 88.9828 186.165 89.5318C186.221 89.6344 186.277 89.7369 186.334 89.8426C186.387 89.9385 186.44 90.0343 186.494 90.1331C186.541 90.2174 186.587 90.3017 186.635 90.3886C186.779 90.6301 186.779 90.6301 187.003 90.8337C187.186 91.0208 187.186 91.0208 187.186 91.2885C187.268 91.3078 187.351 91.3271 187.437 91.347C187.721 91.4223 187.721 91.4223 187.989 91.5561C188.198 91.5825 188.408 91.6022 188.618 91.6184C188.746 91.6286 188.873 91.6389 189.005 91.6495C189.142 91.6601 189.278 91.6707 189.419 91.6816C190.644 91.7816 191.858 91.9109 193.075 92.0915C192.858 92.6166 192.497 92.99 192.113 93.3964C191.979 93.5399 191.846 93.6835 191.712 93.8272C191.647 93.8967 191.582 93.9663 191.516 94.0379C190.027 95.5215 190.027 95.5215 189.436 97.4199C189.434 97.5588 189.432 97.6977 189.43 97.8408C189.462 98.263 189.563 98.5304 189.729 98.9173C189.819 99.2626 189.906 99.6072 189.988 99.9545C190.134 100.562 190.286 101.156 190.498 101.745C190.659 102.197 190.703 102.582 190.665 103.066C190.106 102.852 189.567 102.599 189.028 102.338C188.892 102.272 188.892 102.272 188.753 102.205C188.562 102.113 188.371 102.02 188.18 101.928C187.888 101.786 187.594 101.645 187.301 101.503C187.116 101.414 186.93 101.324 186.744 101.234C186.612 101.17 186.612 101.17 186.478 101.105C185.863 100.806 185.863 100.806 185.713 100.657C184.74 100.506 184.13 100.793 183.338 101.326C183.234 101.393 183.131 101.459 183.024 101.528C182.815 101.662 182.606 101.798 182.397 101.934C181.97 102.214 181.538 102.486 181.104 102.757C180.969 102.843 180.834 102.929 180.695 103.018C180.36 103.2 180.36 103.2 179.958 103.2C179.977 102.751 179.997 102.302 180.017 101.853C180.022 101.727 180.027 101.601 180.033 101.471C180.064 100.789 180.121 100.127 180.226 99.4526C180.427 98.0166 180.427 98.0166 179.948 96.6927C179.547 96.1884 179.085 95.7476 178.62 95.3036C178.31 94.9976 178.001 94.6904 177.693 94.3827C177.488 94.1792 177.281 93.9773 177.073 93.7773C176.931 93.6397 176.931 93.6397 176.786 93.4994C176.701 93.4181 176.616 93.3368 176.528 93.2531C176.345 93.0284 176.345 93.0284 176.345 92.6268C176.716 92.5031 176.996 92.4628 177.382 92.4355C177.508 92.4257 177.634 92.4158 177.763 92.4057C178.024 92.3861 178.285 92.3673 178.546 92.3492C179.751 92.2525 180.839 92.0763 181.769 91.2608C182.204 90.7316 182.416 90.1154 182.602 89.4649C182.969 88.2284 183.408 87.0164 183.84 85.8011Z" fill="#F8E482"/>
<path d="M163.362 61.0413C163.79 61.221 163.982 61.3753 164.205 61.7811C164.258 61.8754 164.311 61.9697 164.366 62.0669C164.421 62.1674 164.476 62.2678 164.533 62.3713C165.511 64.1931 165.511 64.1931 166.976 65.5918C167.408 65.6647 167.833 65.6542 168.271 65.6441C168.394 65.6433 168.518 65.6426 168.646 65.6418C169.04 65.6388 169.434 65.6321 169.828 65.6253C170.096 65.6226 170.364 65.6201 170.631 65.6179C171.287 65.612 171.942 65.6028 172.597 65.5918C172.403 65.9873 172.192 66.3375 171.936 66.696C171.496 67.3188 171.057 67.9429 170.623 68.5697C170.56 68.6598 170.496 68.7499 170.431 68.8427C169.843 69.6935 169.371 70.4099 169.519 71.4807C169.765 72.6899 170.145 73.7316 170.688 74.8402C170.906 75.3407 170.97 75.7567 170.991 76.2989C170.35 76.2152 169.776 76.0316 169.176 75.8006C168.982 75.7278 168.787 75.6551 168.593 75.5824C168.29 75.4681 167.987 75.3534 167.685 75.2378C167.39 75.1257 167.096 75.0156 166.8 74.9056C166.711 74.8709 166.622 74.8362 166.53 74.8004C165.824 74.5391 165.181 74.4127 164.471 74.7122C164.354 74.7858 164.236 74.8595 164.115 74.9354C163.979 75.0194 163.842 75.1034 163.702 75.19C163.346 75.4184 162.992 75.6499 162.637 75.8812C162.485 75.9804 162.485 75.9804 162.33 76.0817C162.128 76.2136 161.928 76.3464 161.728 76.4802C161.635 76.5415 161.542 76.6028 161.446 76.6659C161.364 76.7209 161.282 76.7759 161.197 76.8326C160.939 76.9758 160.706 77.0435 160.418 77.1019C160.403 76.3028 160.421 75.5148 160.484 74.7179C160.735 72.7955 160.735 72.7955 160.114 71.0499C159.744 70.67 159.337 70.3494 158.917 70.0273C158.507 69.7126 158.108 69.3909 157.716 69.0549C157.59 68.9496 157.463 68.8444 157.334 68.736C157.072 68.4024 157.072 68.4024 157.098 67.9601C157.134 67.8411 157.169 67.722 157.205 67.5994C157.335 67.5654 157.464 67.5314 157.598 67.4964C158.051 67.3769 158.504 67.2556 158.956 67.1332C159.176 67.074 159.396 67.0158 159.616 66.9579C160.605 66.6837 161.278 66.3059 161.89 65.458C162.05 65.0918 162.05 65.0918 162.162 64.6983C162.207 64.5543 162.252 64.4104 162.298 64.262C162.365 64.0383 162.365 64.0383 162.433 63.8101C162.524 63.515 162.615 63.2199 162.706 62.925C162.77 62.7162 162.77 62.7162 162.836 62.5033C162.994 62.0082 163.173 61.5252 163.362 61.0413Z" fill="#F8E482"/>
<path d="M152.789 94.367C152.877 94.367 152.966 94.367 153.057 94.367C153.208 94.8548 153.358 95.3428 153.508 95.8309C153.551 95.9676 153.593 96.1043 153.637 96.2452C153.825 96.8595 154.002 97.4621 154.12 98.0941C154.246 98.6935 154.489 99.0425 154.872 99.5198C154.98 99.6565 155.088 99.7931 155.199 99.9339C155.61 100.429 155.739 100.418 156.39 100.481C156.553 100.498 156.717 100.514 156.885 100.531C157.228 100.565 157.572 100.598 157.916 100.632C158.814 100.722 159.676 100.839 160.552 101.059C160.375 101.591 160.036 101.756 159.59 102.054C158.767 102.62 158.009 103.236 157.265 103.902C156.697 104.405 156.697 104.405 156.403 104.405C155.868 105.605 155.956 106.807 155.976 108.094C155.978 108.32 155.98 108.547 155.982 108.774C155.986 109.325 155.993 109.876 156.001 110.428C155.369 110.326 154.998 110.075 154.512 109.675C152.754 108.261 152.754 108.261 150.603 107.829C149.338 107.973 148.113 108.521 147.001 109.121C146.766 109.223 146.766 109.223 146.365 109.223C146.439 108.913 146.515 108.604 146.591 108.295C146.626 108.151 146.626 108.151 146.662 108.004C146.814 107.393 146.987 106.792 147.178 106.192C147.673 104.777 147.673 104.777 147.569 103.334C147.178 102.693 146.673 102.136 146.178 101.575C145.855 101.201 145.557 100.81 145.261 100.415C145.163 100.287 145.066 100.159 144.966 100.027C144.759 99.7206 144.759 99.7206 144.759 99.4529C144.848 99.4495 144.938 99.4462 145.03 99.4427C145.444 99.427 145.859 99.4107 146.273 99.3943C146.414 99.3891 146.555 99.3838 146.7 99.3784C148.559 99.4003 148.559 99.4003 150.246 98.7837C150.387 98.5648 150.52 98.341 150.648 98.1145C150.718 97.9949 150.788 97.8754 150.861 97.7522C151.105 97.3349 151.349 96.9175 151.593 96.5001C151.678 96.3544 151.764 96.2087 151.851 96.0586C151.933 95.9184 152.015 95.7782 152.1 95.6338C152.174 95.5063 152.249 95.3788 152.325 95.2474C152.49 94.9577 152.644 94.6669 152.789 94.367Z" fill="#F8E482"/>
</svg>
