<svg width="180" height="277" viewBox="0 0 180 277" fill="none" xmlns="http://www.w3.org/2000/svg">
<path d="M107.606 79.5423C107.773 79.5711 107.941 79.5999 108.113 79.6296C114.669 80.7864 121.122 82.8454 127.309 85.2811C127.434 85.1659 127.434 85.1659 127.562 85.0485C128.263 84.4237 128.889 83.9565 129.772 83.6073C130.043 83.4963 130.043 83.4963 130.32 83.3831C131.866 82.8716 133.298 82.7257 134.924 82.7345C135.24 82.7361 135.24 82.7361 135.562 82.7378C147.47 82.912 158.56 89.5083 166.686 97.8405C167.365 98.5515 167.993 99.2969 168.601 100.069C169.039 100.62 169.496 101.151 169.955 101.684C176.274 109.266 180.679 119.732 179.914 129.661C179.551 132.987 177.945 136.31 175.4 138.506C172.435 140.768 169.034 141.754 165.328 141.736C165.178 141.737 165.028 141.737 164.874 141.738C163.694 141.736 162.532 141.643 161.358 141.521C161.406 141.655 161.453 141.79 161.501 141.928C162.531 144.885 163.465 147.813 164.037 150.894C164.068 151.052 164.099 151.21 164.131 151.373C165.161 156.806 165.026 162.909 163.845 168.301C163.792 168.556 163.792 168.556 163.737 168.816C162.964 172.404 161.751 175.78 160.019 179.014C159.93 179.193 159.84 179.372 159.748 179.556C157.614 183.725 154.319 187.435 150.646 190.3C150.49 190.422 150.49 190.422 150.33 190.547C146.802 193.288 142.789 195.453 138.595 196.995C138.716 197.079 138.836 197.163 138.961 197.249C142.269 199.594 145.315 202.374 147.777 205.603C147.859 205.71 147.941 205.817 148.025 205.927C149.724 208.145 151.149 210.476 152.475 212.932C152.542 213.055 152.608 213.177 152.677 213.303C153.133 214.165 153.133 214.165 153.133 214.594C153.259 214.594 153.385 214.594 153.516 214.594C153.548 214.368 153.548 214.368 153.582 214.138C153.678 213.604 153.79 213.089 153.921 212.563C153.962 212.399 154.003 212.235 154.045 212.067C154.129 211.734 154.213 211.402 154.299 211.07C155.054 208.013 155.088 205.059 154.995 201.933C154.981 201.433 154.973 200.933 154.966 200.432C154.957 200.208 154.957 200.208 154.947 199.978C154.937 198.834 155.28 198.073 156.002 197.186C157.009 196.401 158.226 196.478 159.446 196.613C162.012 197.231 163.927 198.815 165.758 200.63C165.927 200.796 166.095 200.962 166.269 201.133C168.767 203.732 170.143 206.894 171.078 210.338C171.118 210.482 171.158 210.627 171.199 210.776C172.143 214.455 172.172 219.173 171.114 222.819C171.046 223.081 170.978 223.342 170.91 223.604C169.635 228.375 167.1 232.832 163.463 236.21C163.305 236.368 163.147 236.525 162.984 236.688C162.827 236.846 162.669 237.004 162.506 237.166C162.411 237.265 162.316 237.364 162.218 237.466C161.433 238.272 160.613 238.974 159.709 239.641C159.575 239.74 159.442 239.839 159.304 239.941C154.301 243.605 148.539 245.824 142.421 246.731C142.121 246.785 142.121 246.785 141.815 246.84C140.745 246.96 139.682 246.942 138.607 246.934C138.385 246.933 138.163 246.932 137.934 246.931C137.389 246.929 136.844 246.926 136.299 246.922C136.313 247.087 136.326 247.252 136.34 247.422C136.489 249.428 136.528 251.426 136.536 253.437C136.537 253.606 136.538 253.775 136.539 253.948C136.543 254.84 136.545 255.732 136.547 256.623C136.549 257.534 136.556 258.445 136.563 259.356C136.568 260.066 136.57 260.776 136.571 261.486C136.572 261.822 136.574 262.157 136.577 262.492C136.615 266.228 135.982 269.506 133.316 272.31C130.916 274.589 127.978 275.389 124.822 275.998C124.679 276.032 124.536 276.066 124.389 276.101C123.721 276.214 123.062 276.224 122.387 276.229C122.173 276.231 122.173 276.231 121.956 276.233C116.628 276.272 111.383 276.063 107.242 272.223C104.617 269.397 103.902 265.384 103.971 261.652C103.746 261.707 103.521 261.762 103.29 261.819C100.383 262.462 97.3857 262.635 94.417 262.647C94.188 262.648 93.9589 262.65 93.7229 262.651C92.9864 262.654 92.2498 262.655 91.5133 262.656C91.262 262.656 91.0107 262.656 90.7518 262.657C86.7727 262.659 82.8633 262.506 78.912 262.034C78.6126 261.999 78.3133 261.964 78.014 261.929C77.2292 261.838 76.4446 261.745 75.66 261.652C75.662 261.857 75.6641 262.062 75.6662 262.273C75.6355 265.845 74.379 269.52 71.9119 272.119C68.2891 275.553 63.3116 276.234 58.5394 276.238C58.3941 276.238 58.2488 276.238 58.099 276.238C53.5941 276.232 49.0832 275.487 45.6826 272.264C43.046 269.407 42.6968 265.914 42.7071 262.207C42.7067 261.888 42.7062 261.57 42.7055 261.252C42.7044 260.407 42.7061 259.563 42.7086 258.718C42.7101 258.195 42.711 257.671 42.7117 257.147C42.7198 252.137 42.7696 247.138 43.1405 242.14C43.1516 241.987 43.1627 241.835 43.1741 241.678C43.4103 238.443 43.7026 235.221 44.097 232.001C43.8879 232.073 43.6788 232.144 43.4634 232.218C43.3387 232.261 43.214 232.303 43.0855 232.347C42.8274 232.436 42.5695 232.525 42.3117 232.614C42.1413 232.671 42.1413 232.671 41.9673 232.73C41.8531 232.769 41.7389 232.808 41.6213 232.848C38.6651 233.671 34.69 233.56 31.8543 232.384C31.6844 232.327 31.5145 232.269 31.3395 232.21C28.7929 231.312 26.5532 229.409 25.3504 226.992C23.9597 224.067 23.8932 220.284 24.8946 217.2C24.9819 216.971 25.0692 216.742 25.1591 216.507C25.2362 216.3 25.2362 216.3 25.3147 216.088C26.524 212.879 28.1839 210.002 30.324 207.325C30.4547 207.157 30.5854 206.99 30.72 206.817C33.0896 203.84 35.7927 201.248 38.7169 198.824C38.8535 198.711 38.99 198.598 39.1307 198.481C39.7151 198.003 40.2952 197.542 40.9302 197.132C41.4342 196.852 41.4342 196.852 41.6102 196.421C41.4729 196.398 41.3357 196.374 41.1942 196.35C36.3301 195.273 31.3468 192.016 27.6459 188.77C27.4814 188.626 27.317 188.483 27.1475 188.335C26.6703 187.912 26.2001 187.482 25.733 187.048C25.6058 186.931 25.4785 186.814 25.3474 186.694C18.7819 180.422 15.2069 170.664 14.9653 161.709C14.9501 160.862 14.9471 160.015 14.949 159.167C14.9491 158.988 14.9492 158.809 14.9493 158.624C14.9647 152.83 15.6399 146.404 18.2726 141.138C18.0344 141.2 17.7962 141.261 17.5508 141.325C13.7189 142.171 9.74563 141.437 6.39438 139.46C3.1894 137.395 1.32848 134.031 0.476588 130.388C-1.36978 121.622 2.42439 111.955 7.11578 104.701C7.56928 104.02 8.03733 103.351 8.5168 102.689C8.5978 102.576 8.6788 102.464 8.76226 102.349C11.2726 98.9104 14.1654 95.7625 17.5075 93.124C17.8504 92.8373 18.1931 92.5503 18.5357 92.2632C20.5453 90.6236 22.7163 89.2389 24.9678 87.9591C25.1054 87.8809 25.243 87.8027 25.3848 87.7221C28.9364 85.7266 32.6853 84.3453 36.6366 83.3682C36.7725 83.3339 36.9085 83.2995 37.0485 83.2642C39.0914 82.7723 41.1454 82.7408 43.2361 82.7345C43.3687 82.7338 43.5012 82.7331 43.6377 82.7323C46.6856 82.7239 49.9362 83.1784 52.3225 85.2811C52.3225 85.4073 52.3225 85.5336 52.3225 85.6637C52.5072 85.5798 52.6919 85.496 52.8822 85.4096C59.4838 82.4891 66.4555 80.5746 73.5558 79.351C73.737 79.3195 73.9182 79.288 74.1048 79.2555C85.0342 77.4243 96.706 77.6615 107.606 79.5423Z" fill="#F2D3A3"/>
<path d="M175 120.684C175 137.697 138.192 114.953 92.7872 114.953C47.3824 114.953 7 137.697 7 120.684C7 103.671 47.3824 82 92.7872 82C138.192 82 175 103.671 175 120.684Z" fill="#AADCE7"/>
<path d="M107.606 79.5423C107.773 79.5711 107.941 79.5999 108.113 79.6296C114.669 80.7864 121.122 82.8454 127.309 85.2811C127.434 85.1659 127.434 85.1659 127.562 85.0485C128.263 84.4237 128.889 83.9565 129.772 83.6073C130.043 83.4963 130.043 83.4963 130.32 83.3831C131.866 82.8716 133.298 82.7257 134.924 82.7345C135.24 82.7361 135.24 82.7361 135.562 82.7378C147.47 82.912 158.56 89.5083 166.686 97.8405C167.365 98.5515 167.993 99.2969 168.601 100.069C169.039 100.62 169.496 101.151 169.955 101.684C176.274 109.266 180.679 119.732 179.914 129.661C179.551 132.987 177.945 136.31 175.4 138.506C172.435 140.768 169.034 141.754 165.328 141.736C165.178 141.737 165.028 141.737 164.874 141.738C163.694 141.736 162.532 141.643 161.358 141.521C161.406 141.655 161.453 141.79 161.501 141.928C162.531 144.885 163.465 147.813 164.037 150.894C164.068 151.052 164.099 151.21 164.131 151.373C165.161 156.806 165.026 162.909 163.845 168.301C163.792 168.556 163.792 168.556 163.737 168.816C162.964 172.404 161.751 175.78 160.019 179.014C159.93 179.193 159.84 179.372 159.748 179.556C157.614 183.725 154.319 187.435 150.646 190.3C150.49 190.422 150.49 190.422 150.33 190.547C146.802 193.288 142.789 195.453 138.595 196.995C138.716 197.079 138.836 197.163 138.961 197.249C142.269 199.594 145.315 202.374 147.777 205.603C147.859 205.71 147.941 205.817 148.025 205.927C149.724 208.145 151.149 210.476 152.475 212.932C152.542 213.055 152.608 213.177 152.677 213.303C153.133 214.165 153.133 214.165 153.133 214.594C153.259 214.594 153.385 214.594 153.516 214.594C153.548 214.368 153.548 214.368 153.582 214.138C153.678 213.604 153.79 213.089 153.921 212.563C153.962 212.399 154.003 212.235 154.045 212.067C154.129 211.734 154.213 211.402 154.299 211.07C155.054 208.013 155.088 205.059 154.995 201.933C154.981 201.433 154.973 200.933 154.966 200.432C154.957 200.208 154.957 200.208 154.947 199.978C154.937 198.834 155.28 198.073 156.002 197.186C157.009 196.401 158.226 196.478 159.446 196.613C162.012 197.231 163.927 198.815 165.758 200.63C165.927 200.796 166.095 200.962 166.269 201.133C168.767 203.732 170.143 206.894 171.078 210.338C171.118 210.482 171.158 210.627 171.199 210.776C172.143 214.455 172.172 219.173 171.114 222.819C171.046 223.081 170.978 223.342 170.91 223.604C169.635 228.375 167.1 232.832 163.463 236.21C163.305 236.368 163.147 236.525 162.984 236.688C162.827 236.846 162.669 237.004 162.506 237.166C162.411 237.265 162.316 237.364 162.218 237.466C161.433 238.272 160.613 238.974 159.709 239.641C159.575 239.74 159.442 239.839 159.304 239.941C154.301 243.605 148.539 245.824 142.421 246.731C142.121 246.785 142.121 246.785 141.815 246.84C140.745 246.96 139.682 246.942 138.607 246.934C138.385 246.933 138.163 246.932 137.934 246.931C137.389 246.929 136.844 246.926 136.299 246.922C136.313 247.087 136.326 247.252 136.34 247.422C136.489 249.428 136.528 251.426 136.536 253.437C136.537 253.606 136.538 253.775 136.539 253.948C136.543 254.84 136.545 255.732 136.547 256.623C136.549 257.534 136.556 258.445 136.563 259.356C136.568 260.066 136.57 260.776 136.571 261.486C136.572 261.822 136.574 262.157 136.577 262.492C136.615 266.228 135.982 269.506 133.316 272.31C130.916 274.589 127.978 275.389 124.822 275.998C124.679 276.032 124.536 276.066 124.389 276.101C123.721 276.214 123.062 276.224 122.387 276.229C122.173 276.231 122.173 276.231 121.956 276.233C116.628 276.272 111.383 276.063 107.242 272.223C104.617 269.397 103.902 265.384 103.971 261.652C103.746 261.707 103.521 261.762 103.29 261.819C100.383 262.462 97.3857 262.635 94.417 262.647C94.188 262.648 93.9589 262.65 93.7229 262.651C92.9864 262.654 92.2498 262.655 91.5133 262.656C91.262 262.656 91.0107 262.656 90.7518 262.657C86.7727 262.659 82.8633 262.506 78.912 262.034C78.6126 261.999 78.3133 261.964 78.014 261.929C77.2292 261.838 76.4446 261.745 75.66 261.652C75.662 261.857 75.6641 262.062 75.6662 262.273C75.6355 265.845 74.379 269.52 71.9119 272.119C68.2891 275.553 63.3116 276.234 58.5394 276.238C58.3941 276.238 58.2488 276.238 58.099 276.238C53.5941 276.232 49.0832 275.487 45.6826 272.264C43.046 269.407 42.6968 265.914 42.7071 262.207C42.7067 261.888 42.7062 261.57 42.7055 261.252C42.7044 260.407 42.7061 259.563 42.7086 258.718C42.7101 258.195 42.711 257.671 42.7117 257.147C42.7198 252.137 42.7696 247.138 43.1405 242.14C43.1516 241.987 43.1627 241.835 43.1741 241.678C43.4103 238.443 43.7026 235.221 44.097 232.001C43.8879 232.073 43.6788 232.144 43.4634 232.218C43.3387 232.261 43.214 232.303 43.0855 232.347C42.8274 232.436 42.5695 232.525 42.3117 232.614C42.1413 232.671 42.1413 232.671 41.9673 232.73C41.8531 232.769 41.7389 232.808 41.6213 232.848C38.6651 233.671 34.69 233.56 31.8543 232.384C31.6844 232.327 31.5145 232.269 31.3395 232.21C28.7929 231.312 26.5532 229.409 25.3504 226.992C23.9597 224.067 23.8932 220.284 24.8946 217.2C24.9819 216.971 25.0692 216.742 25.1591 216.507C25.2362 216.3 25.2362 216.3 25.3147 216.088C26.524 212.879 28.1839 210.002 30.324 207.325C30.4547 207.157 30.5854 206.99 30.72 206.817C33.0896 203.84 35.7927 201.248 38.7169 198.824C38.8535 198.711 38.99 198.598 39.1307 198.481C39.7151 198.003 40.2952 197.542 40.9302 197.132C41.4342 196.852 41.4342 196.852 41.6102 196.421C41.4729 196.398 41.3357 196.374 41.1942 196.35C36.3301 195.273 31.3468 192.016 27.6459 188.77C27.4814 188.626 27.317 188.483 27.1475 188.335C26.6703 187.912 26.2001 187.482 25.733 187.048C25.6058 186.931 25.4785 186.814 25.3474 186.694C18.7819 180.422 15.2069 170.664 14.9653 161.709C14.9501 160.862 14.9471 160.015 14.949 159.167C14.9491 158.988 14.9492 158.809 14.9493 158.624C14.9647 152.83 15.6399 146.404 18.2726 141.138C18.0344 141.2 17.7962 141.261 17.5508 141.325C13.7189 142.171 9.74563 141.437 6.39438 139.46C3.1894 137.395 1.32848 134.031 0.476588 130.388C-1.36978 121.622 2.42439 111.955 7.11578 104.701C7.56928 104.02 8.03733 103.351 8.5168 102.689C8.5978 102.576 8.6788 102.464 8.76226 102.349C11.2726 98.9104 14.1654 95.7625 17.5075 93.124C17.8504 92.8373 18.1931 92.5503 18.5357 92.2632C20.5453 90.6236 22.7163 89.2389 24.9678 87.9591C25.1054 87.8809 25.243 87.8027 25.3848 87.7221C28.9364 85.7266 32.6853 84.3453 36.6366 83.3682C36.7725 83.3339 36.9085 83.2995 37.0485 83.2642C39.0914 82.7723 41.1454 82.7408 43.2361 82.7345C43.3687 82.7338 43.5012 82.7331 43.6377 82.7323C46.6856 82.7239 49.9362 83.1784 52.3225 85.2811C52.3225 85.4073 52.3225 85.5336 52.3225 85.6637C52.5072 85.5798 52.6919 85.496 52.8822 85.4096C59.4838 82.4891 66.4555 80.5746 73.5558 79.351C73.737 79.3195 73.9182 79.288 74.1048 79.2555C85.0342 77.4243 96.706 77.6615 107.606 79.5423ZM76.6165 83.7507C76.3135 83.7865 76.3135 83.7865 76.0044 83.823C69.5068 84.5968 63.2101 86.1871 57.1048 88.533C56.9304 88.5993 56.7561 88.6655 56.5765 88.7337C56.1325 88.9047 55.6916 89.0814 55.2516 89.2623C55.0181 89.3582 54.7846 89.4542 54.544 89.553C54.0136 89.8226 54.0136 89.8226 53.8707 90.3137C53.8508 90.8872 53.864 91.4506 53.8887 92.0241C53.9488 95.4126 53.1182 98.8898 52.1312 102.115C52.0738 102.302 52.0164 102.49 51.9573 102.683C49.0886 111.915 44.9118 121.496 38.208 128.634C37.8446 129.022 37.5027 129.419 37.1627 129.828C34.276 133.115 29.9733 136.923 25.7778 138.34C24.7667 138.691 24.1822 138.944 23.6154 139.878C23.2942 140.608 23.0571 141.358 22.8328 142.122C22.6577 142.718 22.4689 143.309 22.2793 143.901C21.5087 146.354 20.8553 148.811 20.4553 151.352C20.3995 151.707 20.3388 152.06 20.2749 152.413C19.954 154.335 19.9295 156.233 19.9339 158.177C19.9345 158.731 19.93 159.284 19.9251 159.838C19.914 163.082 20.1713 166.356 21.0822 169.485C21.1307 169.656 21.1792 169.828 21.2292 170.004C23.7037 178.423 29.3015 185.097 36.9571 189.297C41.1288 191.527 45.4988 193.196 50.1652 194.027C50.3353 194.058 50.5055 194.089 50.6808 194.121C50.8347 194.147 50.9886 194.173 51.1472 194.2C51.7811 194.381 52.1128 194.769 52.5138 195.274C52.5769 195.337 52.64 195.4 52.7051 195.465C52.7869 196.169 52.7232 196.572 52.4301 197.222C51.7671 197.95 51.1544 198.1 50.2183 198.334C42.3379 200.351 35.9518 207.074 31.8377 213.864C30.0067 216.96 28.5273 220.185 29.053 223.87C29.454 225.383 30.5537 226.571 31.8566 227.39C34.7019 228.858 38.224 229.127 41.2993 228.164C42.7094 227.602 44.2332 226.855 45.2447 225.689C45.403 225.3 45.403 225.3 45.4993 224.859C45.5409 224.691 45.5825 224.524 45.6254 224.351C45.6684 224.169 45.7115 223.988 45.7558 223.801C45.8263 223.516 45.8263 223.516 45.8981 223.226C46.0489 222.617 46.197 222.007 46.3446 221.397C46.903 219.091 47.4652 216.797 48.2366 214.551C48.2894 214.395 48.3422 214.239 48.3967 214.078C48.7315 213.139 49.0843 212.196 50.027 211.725C50.8085 211.626 51.5991 211.548 52.3143 211.918C52.8187 212.327 53.0727 212.636 53.2789 213.255C53.3279 214.196 53.2185 214.961 52.9494 215.862C52.8778 216.107 52.8063 216.352 52.7347 216.597C52.6967 216.724 52.6588 216.852 52.6196 216.983C51.69 220.113 50.9194 223.265 50.2183 226.454C50.1611 226.709 50.1611 226.709 50.1027 226.97C48.9398 232.197 48.3567 237.535 47.9552 242.868C47.9302 243.192 47.9039 243.516 47.877 243.839C47.7546 245.348 47.6758 246.854 47.6269 248.367C47.6189 248.612 47.611 248.858 47.6027 249.11C47.5164 251.92 47.4977 254.73 47.4942 257.541C47.4932 258.286 47.4885 259.03 47.4832 259.775C47.4796 260.361 47.4786 260.946 47.4783 261.532C47.4777 261.807 47.4762 262.082 47.4737 262.356C47.4529 264.757 47.6153 267.047 49.2618 268.921C51.6231 271.147 54.85 271.509 57.9543 271.472C58.3605 271.467 58.7665 271.468 59.1727 271.469C62.5749 271.462 66.2488 271.063 68.7735 268.538C70.4957 266.276 70.7939 263.62 70.8897 260.874C70.9042 260.479 70.9197 260.084 70.9384 259.689C70.9552 259.335 70.9681 258.981 70.9809 258.627C71.077 257.962 71.2416 257.596 71.6429 257.061C73.3137 255.947 76.714 256.849 78.637 257.049C82.6354 257.461 86.5948 257.67 90.6152 257.67C91.2119 257.67 91.8085 257.674 92.4051 257.677C96.1074 257.688 99.7468 257.372 103.409 256.845C103.894 256.776 104.378 256.708 104.863 256.641C105.069 256.611 105.275 256.581 105.488 256.551C107.024 256.383 107.024 256.383 107.845 256.809C108.419 257.292 108.54 257.505 108.753 258.208C108.802 258.833 108.802 258.833 108.806 259.54C108.81 259.803 108.814 260.065 108.818 260.328C108.822 260.736 108.825 261.143 108.826 261.55C108.84 264.399 109.15 267.162 111.24 269.303C113.604 271.265 116.864 271.445 119.8 271.453C120.212 271.455 120.624 271.461 121.035 271.467C124.253 271.492 127.533 271.134 129.949 268.824C131.295 267.296 131.752 265.41 131.764 263.413C131.765 263.271 131.766 263.13 131.768 262.985C131.771 262.519 131.772 262.054 131.773 261.589C131.774 261.258 131.776 260.927 131.777 260.596C131.782 259.529 131.781 258.462 131.78 257.395C131.78 257.214 131.78 257.032 131.78 256.845C131.778 250.826 131.603 244.876 130.943 238.888C130.901 238.491 130.858 238.094 130.816 237.697C129.984 230.014 128.827 222.138 126.352 214.785C126.235 214.116 126.204 213.522 126.54 212.916C126.972 212.371 127.403 211.922 128.074 211.725C128.769 211.661 129.271 211.672 129.927 211.916C130.937 212.789 131.278 214.171 131.594 215.427C131.633 215.576 131.672 215.724 131.712 215.877C131.793 216.192 131.875 216.507 131.955 216.822C132.08 217.313 132.208 217.803 132.337 218.294C132.741 219.845 133.12 221.395 133.444 222.965C133.841 224.901 133.841 224.901 135.11 226.373C135.25 226.463 135.39 226.553 135.534 226.645C135.678 226.749 135.822 226.853 135.971 226.96C138.501 228.648 141.58 229.006 144.533 228.425C146.622 227.883 148.471 226.95 149.69 225.115C150.653 223.306 150.426 221.231 149.881 219.328C147.42 211.356 141.066 204.119 133.841 200.081C132.23 199.233 130.596 198.856 128.8 198.626C128.066 198.488 127.672 198.253 127.117 197.76C126.809 197.143 126.815 196.515 126.926 195.847C127.706 194.761 128.686 194.602 129.952 194.38C130.078 194.361 130.204 194.341 130.334 194.321C132.17 194.037 133.888 193.545 135.642 192.942C135.779 192.896 135.917 192.849 136.058 192.801C138.077 192.116 139.994 191.361 141.847 190.3C142.106 190.161 142.366 190.022 142.626 189.884C150.117 185.86 155.757 178.931 158.21 170.796C158.448 169.969 158.668 169.138 158.872 168.301C158.904 168.182 158.935 168.063 158.968 167.941C159.671 165.133 159.715 162.189 159.709 159.311C159.709 159.055 159.709 159.055 159.708 158.795C159.702 155.906 159.484 153.151 158.872 150.32C158.839 150.16 158.806 150.001 158.772 149.836C158.126 146.739 157.052 143.735 156.002 140.756C155.957 140.61 155.912 140.465 155.866 140.315C155.629 139.626 155.42 139.411 154.797 139.011C154.543 138.896 154.287 138.784 154.03 138.675C153.751 138.546 153.473 138.416 153.195 138.285C152.986 138.187 152.986 138.187 152.772 138.086C150.558 136.991 148.565 135.386 146.629 133.869C146.523 133.786 146.417 133.703 146.307 133.617C143.407 131.315 140.764 128.644 138.595 125.644C138.502 125.517 138.409 125.39 138.313 125.259C131.493 115.938 124.827 102.085 125.587 90.2546C115.174 84.553 102.452 83.0526 90.7516 83.1021C89.9718 83.1053 89.1921 83.1034 88.4122 83.1001C84.4439 83.0859 80.558 83.2774 76.6165 83.7507Z" fill="black"/>
<path d="M150.179 91.4506C155.959 94.4064 161.626 98.8513 165.567 104.028C165.668 104.159 165.769 104.291 165.873 104.427C167.369 106.391 168.773 108.369 169.967 110.532C170.055 110.689 170.143 110.847 170.234 111.009C173.038 116.056 175.015 121.208 175.036 127.03C175.038 127.403 175.038 127.403 175.04 127.782C175.003 130.493 174.387 132.798 172.515 134.805C170.033 137.058 166.799 137.109 163.632 136.969C156.082 136.438 148.994 130.526 144.21 125.095C143.579 124.346 142.992 123.569 142.421 122.774C142.333 122.653 142.246 122.532 142.157 122.408C139.014 118.01 136.511 113.293 134.603 108.236C134.399 107.696 134.191 107.158 133.981 106.62C132.553 102.884 131.424 98.9822 130.752 95.037C130.713 94.8504 130.674 94.6637 130.635 94.4714C130.409 93.3234 130.326 92.199 130.31 91.0319C130.306 90.8937 130.303 90.7555 130.299 90.6131C130.3 89.7551 130.413 89.2124 130.943 88.5331C135.729 84.9439 145.555 89.1881 150.179 91.4506Z" fill="#7D5232"/>
<path d="M43.0688 87.5287C43.4298 87.5264 43.4298 87.5264 43.7981 87.5242C47.3297 87.5316 47.3297 87.5316 48.688 88.7242C49.0815 89.6285 49.1376 90.4891 49.1303 91.4621C49.1289 91.6885 49.1289 91.6885 49.1275 91.9195C48.9955 98.7107 46.0054 105.962 43.158 111.998C42.9496 112.444 42.7475 112.891 42.5465 113.34C39.3666 120.354 34.6169 126.771 28.4111 131.382C28.2237 131.525 28.0363 131.668 27.8432 131.816C24.9092 133.962 21.5822 135.582 18.0814 136.547C17.9088 136.597 17.7362 136.648 17.5583 136.699C15.4071 137.234 12.8786 137.157 10.8123 136.356C10.5719 136.265 10.5719 136.265 10.3266 136.172C8.06423 135.184 6.55378 133.255 5.64746 131C5.14069 129.413 4.98049 127.925 5.00185 126.265C5.00435 125.939 5.00435 125.939 5.0069 125.606C5.0366 123.893 5.23429 122.331 5.64746 120.67C5.6985 120.431 5.74955 120.192 5.80214 119.946C7.14223 113.837 10.3533 108.094 14.2556 103.262C14.4405 103.019 14.4405 103.019 14.6292 102.771C16.9509 99.7817 19.7764 97.2094 22.8637 95.0368C22.9798 94.9535 23.0959 94.8701 23.2155 94.7843C27.6692 91.6012 32.8094 89.1425 38.167 87.9591C38.3207 87.9239 38.4745 87.8887 38.633 87.8524C40.114 87.5449 41.5601 87.5193 43.0688 87.5287Z" fill="#7D5232"/>
<path d="M94.7891 206.942C94.963 207.009 95.1368 207.076 95.3159 207.145C99.6505 209.044 102.255 213.672 103.971 217.846C104.818 220.025 105.288 222.245 105.693 224.541C105.726 224.72 105.76 224.899 105.795 225.083C106.311 228.585 106.117 232.497 104.928 235.827C104.852 236.047 104.776 236.267 104.698 236.494C103.322 240.097 100.712 242.891 97.2303 244.517C92.6312 246.53 86.7233 246.314 82.1118 244.524C78.5443 243.062 76.0539 240.683 74.3875 237.217C71.8154 230.985 72.9129 223.741 75.4328 217.678C76.4798 215.259 77.7022 212.92 79.4858 210.959C79.5684 210.868 79.6509 210.776 79.736 210.682C83.7095 206.321 89.2677 204.713 94.7891 206.942Z" fill="#FFBB4D"/>
<path d="M101.228 205.099C103.582 207.086 105.323 209.428 106.84 212.107C106.903 212.217 106.966 212.327 107.03 212.44C108.952 215.875 110.063 219.711 110.666 223.585C110.699 223.795 110.699 223.795 110.733 224.009C111.691 230.312 110.808 237.23 107.077 242.546C103.459 247.206 98.9103 249.42 93.1945 250.484C86.4986 251.177 79.8573 249.84 74.5207 245.617C70.7442 242.528 68.6879 237.95 68.1996 233.149C68.1305 232.078 68.125 231.006 68.1279 229.933C68.128 229.788 68.1281 229.642 68.1282 229.492C68.1414 225.46 68.7826 221.656 70.1126 217.846C70.1554 217.721 70.1982 217.597 70.2423 217.469C71.6695 213.407 73.8641 209.875 76.8077 206.751C76.915 206.634 77.0223 206.516 77.1328 206.395C83.5447 199.626 94.117 199.257 101.228 205.099ZM81.2074 209.238C81.0267 209.401 80.8459 209.564 80.6597 209.732C77.2794 212.889 75.4233 217.106 74.1297 221.48C74.0712 221.673 74.0128 221.866 73.9526 222.065C72.517 227.262 72.3312 233.311 74.8537 238.212C77.0428 241.938 80.0878 243.95 84.1478 245.221C85.9399 245.662 87.6731 245.839 89.5167 245.822C89.7267 245.821 89.9368 245.819 90.1532 245.818C94.5674 245.759 98.5246 244.6 101.676 241.375C103.887 239.041 104.906 236.219 105.607 233.139C105.663 232.897 105.726 232.656 105.796 232.418C107.159 225.936 104.79 218.377 101.484 212.872C101.013 212.194 100.502 211.576 99.954 210.959C99.775 210.74 99.775 210.74 99.5923 210.516C97.6272 208.159 94.7805 206.457 91.7285 205.986C87.7905 205.63 84.184 206.548 81.2074 209.238Z" fill="black"/>
<path d="M60.542 141.878C62.4999 142.8 63.4985 144.207 64.2303 146.183C64.6215 148.074 64.32 149.656 63.3561 151.333C62.7043 152.281 61.9414 152.847 60.9306 153.381C61.2356 154.046 61.6331 154.613 62.0544 155.21C63.3979 157.204 63.8341 159.097 63.8358 161.463C63.8381 161.636 63.8405 161.808 63.8429 161.986C63.849 164.827 62.7468 167.399 60.7393 169.449C60.613 169.449 60.4868 169.449 60.3567 169.449C60.2936 169.638 60.2304 169.828 60.1654 170.023C59.3272 170.887 58.2004 171.43 57.1406 171.972C56.9573 172.067 56.9573 172.067 56.7703 172.165C54.8339 173.125 52.9755 173.377 50.828 173.359C50.4729 173.357 50.4729 173.357 50.1107 173.355C48.4253 173.325 47.0013 173.168 45.436 172.51C45.1697 172.412 45.1697 172.412 44.898 172.313C41.9249 171.127 39.8211 168.88 38.4202 166.054C37.808 164.551 37.4854 163.184 37.4974 161.558C37.4985 161.384 37.4996 161.209 37.5007 161.029C37.5841 157.841 39.1516 155.285 41.4121 153.109C42.3616 152.302 43.3884 151.686 44.4795 151.085C44.6171 151.005 44.7547 150.924 44.8965 150.842C46.8782 149.748 49.2259 149.52 51.4497 149.543C51.6079 149.544 51.7661 149.545 51.929 149.545C52.3152 149.548 52.7014 149.551 53.0876 149.555C53.0787 149.326 53.0699 149.098 53.0607 148.862C52.9958 146.512 53.1728 144.985 54.8205 143.203C56.4434 141.704 58.4013 141.25 60.542 141.878Z" fill="#F4A99C"/>
<path d="M122.598 142.107C124.19 143.03 125.1 144.218 125.778 145.92C126.128 147.238 126.019 148.61 125.778 149.938C125.973 149.935 125.973 149.935 126.172 149.931C126.77 149.923 127.368 149.918 127.966 149.914C128.171 149.91 128.375 149.907 128.586 149.904C132.241 149.882 135.697 151.371 138.355 153.88C140.503 156.158 141.569 158.844 141.545 161.974C141.432 165.117 140.002 167.648 137.83 169.832C137.716 169.952 137.603 170.071 137.487 170.195C135.063 172.56 131.405 173.591 128.099 173.557C126.554 173.501 125.141 173.177 123.674 172.701C123.374 172.607 123.374 172.607 123.068 172.511C119.801 171.329 117.613 168.749 116.108 165.718C115.537 164.34 115.379 163.118 115.389 161.642C115.39 161.473 115.391 161.304 115.392 161.13C115.446 158.235 116.659 155.902 118.318 153.572C118.179 153.498 118.179 153.498 118.037 153.423C116.642 152.627 115.247 151.426 114.76 149.84C114.42 147.736 114.544 145.791 115.717 143.975C117.353 141.846 120.118 140.979 122.598 142.107Z" fill="#F4A99C"/>
<path d="M160.402 202.16C162.784 204.165 164.394 206.531 165.567 209.429C165.621 209.558 165.676 209.688 165.732 209.821C167.541 214.598 167.195 220.842 165.184 225.497C161.963 232.495 156.013 237.756 148.833 240.496C144.721 241.983 140.477 242.681 136.108 242.522C135.818 241.504 135.764 240.442 135.657 239.392C135.618 239.01 135.578 238.628 135.538 238.245C135.513 238.002 135.487 237.759 135.462 237.508C135.427 237.176 135.427 237.176 135.393 236.837C135.345 236.242 135.334 235.659 135.343 235.062C135.498 235.006 135.653 234.951 135.813 234.893C136.872 234.501 137.811 234.131 138.738 233.484C140.035 232.732 141.448 232.862 142.903 232.841C144.7 232.802 146.117 232.508 147.777 231.81C148.008 231.715 148.239 231.621 148.477 231.523C151.287 230.251 153.192 228.3 154.329 225.426C154.584 224.695 154.706 224.029 154.783 223.262C154.96 222.028 155.53 221.185 156.202 220.167C159.716 214.824 160.197 208.384 160.402 202.16Z" fill="#7D5232"/>
<path d="M97.539 148.742C98.4812 149.499 99.1896 150.514 99.5714 151.659C99.6906 153.178 99.2958 154.228 98.352 155.401C96.9205 156.922 94.9169 157.805 92.8762 158.163C92.6237 158.163 92.3712 158.163 92.1111 158.163C92.1155 159.024 92.1303 159.885 92.1469 160.746C92.1481 160.988 92.1492 161.231 92.1503 161.481C92.1837 162.906 92.2728 163.97 93.2588 165.05C94.4047 166.12 95.9585 166.151 97.446 166.131C99.7707 166.016 101.206 164.889 102.752 163.267C103.052 162.928 103.344 162.579 103.624 162.223C103.993 161.771 104.154 161.631 104.727 161.561C105.791 161.526 106.383 161.655 107.223 162.372C107.747 163.157 107.741 163.746 107.606 164.667C106.788 167.119 104.248 168.899 102.058 170.023C101.367 170.317 100.672 170.567 99.954 170.788C99.7646 170.851 99.5753 170.915 99.3801 170.98C95.8726 171.239 93.0533 171.183 90.2213 168.943C89.7884 168.615 89.7884 168.615 89.0504 168.684C88.6152 168.951 88.6152 168.951 88.1777 169.306C87.1872 170.032 86.1993 170.427 85.0333 170.788C84.7492 170.883 84.7492 170.883 84.4594 170.98C80.6576 171.3 77.5232 170.972 74.5123 168.493C74.2889 168.316 74.2889 168.316 74.061 168.135C72.7346 167.029 71.3693 165.63 71.2006 163.842C71.2714 163.006 71.5009 162.633 72.0255 161.989C72.8805 161.419 73.7016 161.469 74.7036 161.606C75.2057 161.965 75.2057 161.965 75.66 162.563C77.0158 164.202 78.5786 165.793 80.8106 166.048C81.2188 166.071 81.6236 166.079 82.0324 166.078C82.1761 166.078 82.3198 166.078 82.4678 166.078C83.5942 166.055 84.4471 165.829 85.4159 165.241C85.552 165.179 85.6881 165.118 85.8284 165.054C86.3304 164.775 86.3907 164.434 86.5636 163.902C86.6268 163.776 86.6899 163.649 86.7549 163.519C86.7845 163.117 86.8027 162.714 86.8155 162.31C86.8235 162.07 86.8315 161.829 86.8397 161.582C86.8473 161.329 86.8548 161.077 86.8625 160.817C86.8708 160.561 86.8791 160.305 86.8876 160.048C86.9079 159.42 86.9274 158.792 86.9462 158.163C86.6518 158.128 86.6518 158.128 86.3514 158.092C84.1935 157.743 82.0535 156.729 80.6373 155.031C79.8446 153.886 79.5018 152.881 79.6772 151.468C80.1154 149.94 81.317 148.95 82.6138 148.119C83.8627 147.439 85.1743 147.138 86.5636 146.877C86.7382 146.841 86.9128 146.806 87.0927 146.769C90.635 146.29 94.5283 146.684 97.539 148.742Z" fill="black"/>
<path d="M62.9209 110.203C63.3192 110.402 63.6486 110.635 63.853 111.037C64.0709 111.712 64.0532 112.482 63.7553 113.13C63.3986 113.74 62.9189 114.264 62.4426 114.787C62.3047 114.938 62.1691 115.092 62.0338 115.246C60.2616 117.231 57.9118 118.439 55.4052 119.29C55.3183 119.321 55.2315 119.352 55.142 119.384C53.6357 119.881 51.3259 120.314 49.8131 119.692C49.4383 119.471 49.2818 119.191 49.1056 118.811C48.9717 118.241 48.9312 117.776 49.1892 117.239C49.8444 116.53 50.6232 116.452 51.5483 116.311C54.5768 115.813 57.5605 114.9 59.5128 112.423C59.8058 112.017 60.0615 111.6 60.3098 111.167C60.9129 110.117 61.735 109.722 62.9209 110.203Z" fill="black"/>
<path d="M116.301 110.124C116.997 110.525 117.416 111.084 117.864 111.73C119.501 114.069 122.065 115.557 124.883 116.081C125.427 116.17 125.972 116.253 126.518 116.326C127.309 116.438 128.14 116.571 128.722 117.145C129.007 117.621 129.036 118.061 128.971 118.6C128.814 119.066 128.607 119.472 128.154 119.708C126.889 120.23 125.136 119.962 123.861 119.607C123.778 119.584 123.694 119.561 123.607 119.537C122.28 119.16 121.015 118.692 119.774 118.096C119.669 118.047 119.564 117.997 119.457 117.946C117.304 116.861 114.895 114.711 114.05 112.454C113.955 111.893 113.976 111.395 114.274 110.899C114.761 110.236 115.454 109.765 116.301 110.124Z" fill="black"/>
<path d="M125.193 140.694C127.426 141.979 128.702 143.631 129.654 145.999C129.872 146.814 129.872 146.814 129.922 147.596C129.942 147.763 129.961 147.93 129.982 148.103C130.137 150.277 129.293 152.615 127.993 154.364C125.843 156.307 123.852 157.026 120.973 156.999C118.856 156.804 117.251 155.745 115.826 154.222C114.027 151.911 113.837 149.349 114.09 146.531C114.581 144.285 115.859 142.547 117.757 141.255C120.171 139.903 122.615 139.532 125.193 140.694Z" fill="black"/>
<path d="M59.5707 140.381C62.3295 141.663 63.7367 143.622 64.7679 146.371C65.3209 149.011 64.8737 151.172 63.5549 153.529C62.4812 155.11 60.8907 156.235 59.0506 156.822C56.3665 157.299 54.2929 156.823 52.0319 155.322C50.5405 154.054 49.4306 152.182 49.067 150.265C48.8515 147.268 49.0695 145.122 51.0212 142.745C53.3229 140.285 56.276 139.426 59.5707 140.381Z" fill="black"/>
<path d="M102.562 0.0109006C102.692 0.00738775 102.821 0.0038749 102.955 0.0002556C104.192 -0.00952011 105.286 0.259227 106.2 1.13217C106.952 2.03114 107.284 3.15888 107.292 4.31621C107.293 4.43809 107.293 4.43809 107.294 4.56244C107.296 4.82419 107.295 5.08585 107.294 5.34759C107.293 5.43749 107.293 5.52738 107.293 5.61999C107.286 7.02525 107.196 8.36425 106.892 9.73806C106.852 9.92577 106.852 9.92577 106.812 10.1173C106.563 11.2857 106.312 12.4548 106.011 13.611C105.474 15.6822 105.662 17.5751 106.272 19.6091C106.308 19.7318 106.345 19.8546 106.382 19.9811C106.51 20.4028 106.64 20.8236 106.771 21.2441C106.807 21.3588 106.807 21.3588 106.844 21.4758C107.763 24.4164 108.858 27.2789 109.995 30.1412C110.652 31.7942 111.286 33.4555 111.921 35.1168C112.128 35.6572 112.338 36.1963 112.549 36.7347C114.204 40.9701 115.611 45.3132 116.939 49.661C117.065 50.0664 117.196 50.4697 117.329 50.8727C118.431 54.2078 119.367 57.5999 120.197 61.0124C120.31 61.4765 120.436 61.9352 120.571 62.3934C120.814 63.2197 121.016 64.0551 121.222 64.8915C121.556 66.2462 121.926 67.5862 122.325 68.9228C122.522 69.5795 122.702 70.2399 122.88 70.9019C123.05 70.9396 123.05 70.9396 123.224 70.978C128.933 72.267 136.04 74.3671 139.442 79.5617C139.576 79.7823 139.707 80.0043 139.836 80.2278C139.892 80.3248 139.948 80.4217 140.006 80.5216C140.934 82.2458 141.258 84.299 140.782 86.2179C140.181 88.1007 139.274 89.5744 137.898 91.0072C137.793 91.1218 137.687 91.2364 137.578 91.3545C133.208 96.0084 125.867 98.1203 119.852 99.6065C119.716 99.6405 119.581 99.6745 119.441 99.7096C117.053 100.305 114.649 100.779 112.222 101.181C112.131 101.196 112.041 101.211 111.948 101.227C109.216 101.683 106.48 102.003 103.721 102.248C103.578 102.261 103.436 102.274 103.289 102.287C102.874 102.324 102.458 102.359 102.043 102.395C101.864 102.41 101.864 102.41 101.682 102.426C99.3892 102.613 97.0957 102.654 94.7959 102.655C94.512 102.655 94.2282 102.656 93.9443 102.656C93.3523 102.657 92.7603 102.657 92.1684 102.657C91.5718 102.657 90.9753 102.658 90.3788 102.659C86.8721 102.669 83.3825 102.635 79.8834 102.392C79.7397 102.382 79.596 102.373 79.4479 102.363C77.5869 102.236 75.7486 101.997 73.9031 101.728C73.484 101.668 73.0646 101.612 72.6448 101.556C64.3263 100.444 54.1272 98.6215 47.182 93.6718C47.0635 93.5875 46.945 93.5031 46.8229 93.4163C44.5709 91.7692 42.4675 89.682 41.4895 87.0104C41.4511 86.9104 41.4127 86.8105 41.3732 86.7076C40.8497 85.0555 40.8317 82.7593 41.6107 81.1968C41.6709 81.0684 41.7312 80.9401 41.7933 80.8079C42.2656 79.8655 42.8429 79.0703 43.5485 78.29C43.6392 78.1893 43.7299 78.0886 43.8234 77.9848C45.1693 76.5675 46.7973 75.5608 48.5143 74.6565C48.5886 74.6164 48.6629 74.5764 48.7395 74.5351C51.8005 72.8902 55.2021 71.7335 58.5944 71.005C58.9616 70.8923 59.0601 70.8345 59.2937 70.5385C59.4438 70.1681 59.4438 70.1681 59.5685 69.7361C59.5932 69.6561 59.6178 69.576 59.6432 69.4935C59.7221 69.2366 59.7993 68.9792 59.8765 68.7218C59.927 68.5562 59.9775 68.3906 60.0282 68.225C60.106 67.9704 60.1837 67.7158 60.2611 67.461C60.4484 66.8443 60.6406 66.2292 60.8355 65.6149C61.127 64.6957 61.4143 63.7754 61.7 62.8544C63.3282 57.6075 65.0268 52.3921 66.8519 47.2099C67.0455 46.66 67.2377 46.1097 67.4277 45.5586C69.3246 40.0571 71.561 34.6091 74.0699 29.3589C74.1929 29.0997 74.3159 28.8404 74.4389 28.5811C74.7967 27.8293 75.1591 27.0798 75.5233 26.331C75.5747 26.2246 75.6262 26.1182 75.6792 26.0086C76.4253 24.4696 77.2427 22.9784 78.0964 21.4966C78.2501 21.2264 78.4013 20.9555 78.5503 20.6827C79.2446 19.4175 80.0159 18.2166 80.8221 17.0202C80.9519 16.8266 81.0817 16.633 81.2116 16.4394C83.8183 12.5602 86.682 8.63075 90.2995 5.62011C90.3658 5.56423 90.4321 5.50836 90.5004 5.45079C93.9058 2.58856 97.9939 0.051643 102.562 0.0109006Z" fill="#AADCE7"/>
<path d="M102.562 0.0109006C102.692 0.00738775 102.821 0.0038749 102.955 0.0002556C104.192 -0.00952011 105.286 0.259227 106.2 1.13217C106.952 2.03114 107.284 3.15888 107.292 4.31621C107.293 4.43809 107.293 4.43809 107.294 4.56244C107.296 4.82419 107.295 5.08585 107.294 5.34759C107.293 5.43749 107.293 5.52738 107.293 5.61999C107.286 7.02525 107.196 8.36425 106.892 9.73806C106.852 9.92577 106.852 9.92577 106.812 10.1173C106.563 11.2857 106.312 12.4548 106.011 13.611C105.474 15.6822 105.662 17.5751 106.272 19.6091C106.308 19.7318 106.345 19.8546 106.382 19.9811C106.51 20.4028 106.64 20.8236 106.771 21.2441C106.807 21.3588 106.807 21.3588 106.844 21.4758C107.763 24.4164 108.858 27.2789 109.995 30.1412C110.652 31.7942 111.286 33.4555 111.921 35.1168C112.128 35.6572 112.338 36.1963 112.549 36.7347C114.204 40.9701 115.611 45.3132 116.939 49.661C117.065 50.0664 117.196 50.4697 117.329 50.8727C118.431 54.2078 119.367 57.5999 120.197 61.0124C120.31 61.4765 120.436 61.9352 120.571 62.3934C120.814 63.2197 121.016 64.0551 121.222 64.8915C121.556 66.2462 121.926 67.5862 122.325 68.9228C122.522 69.5795 122.702 70.2399 122.88 70.9019C123.05 70.9396 123.05 70.9396 123.224 70.978C128.933 72.267 136.04 74.3671 139.442 79.5617C139.576 79.7823 139.707 80.0043 139.836 80.2278C139.892 80.3248 139.948 80.4217 140.006 80.5216C140.934 82.2458 141.258 84.299 140.782 86.2179C140.181 88.1007 139.274 89.5744 137.898 91.0072C137.793 91.1218 137.687 91.2364 137.578 91.3545C133.208 96.0084 125.867 98.1203 119.852 99.6065C119.716 99.6405 119.581 99.6745 119.441 99.7096C117.053 100.305 114.649 100.779 112.222 101.181C112.131 101.196 112.041 101.211 111.948 101.227C109.216 101.683 106.48 102.003 103.721 102.248C103.578 102.261 103.436 102.274 103.289 102.287C102.874 102.324 102.458 102.359 102.043 102.395C101.864 102.41 101.864 102.41 101.682 102.426C99.3892 102.613 97.0957 102.654 94.7959 102.655C94.512 102.655 94.2282 102.656 93.9443 102.656C93.3523 102.657 92.7603 102.657 92.1684 102.657C91.5718 102.657 90.9753 102.658 90.3788 102.659C86.8721 102.669 83.3825 102.635 79.8834 102.392C79.7397 102.382 79.596 102.373 79.4479 102.363C77.5869 102.236 75.7486 101.997 73.9031 101.728C73.484 101.668 73.0646 101.612 72.6448 101.556C64.3263 100.444 54.1272 98.6215 47.182 93.6718C47.0635 93.5875 46.945 93.5031 46.8229 93.4163C44.5709 91.7692 42.4675 89.682 41.4895 87.0104C41.4511 86.9104 41.4127 86.8105 41.3732 86.7076C40.8497 85.0555 40.8317 82.7593 41.6107 81.1968C41.6709 81.0684 41.7312 80.9401 41.7933 80.8079C42.2656 79.8655 42.8429 79.0703 43.5485 78.29C43.6392 78.1893 43.7299 78.0886 43.8234 77.9848C45.1693 76.5675 46.7973 75.5608 48.5143 74.6565C48.5886 74.6164 48.6629 74.5764 48.7395 74.5351C51.8005 72.8902 55.2021 71.7335 58.5944 71.005C58.9616 70.8923 59.0601 70.8345 59.2937 70.5385C59.4438 70.1681 59.4438 70.1681 59.5685 69.7361C59.5932 69.6561 59.6178 69.576 59.6432 69.4935C59.7221 69.2366 59.7993 68.9792 59.8765 68.7218C59.927 68.5562 59.9775 68.3906 60.0282 68.225C60.106 67.9704 60.1837 67.7158 60.2611 67.461C60.4484 66.8443 60.6406 66.2292 60.8355 65.6149C61.127 64.6957 61.4143 63.7754 61.7 62.8544C63.3282 57.6075 65.0268 52.3921 66.8519 47.2099C67.0455 46.66 67.2377 46.1097 67.4277 45.5586C69.3246 40.0571 71.561 34.6091 74.0699 29.3589C74.1929 29.0997 74.3159 28.8404 74.4389 28.5811C74.7967 27.8293 75.1591 27.0798 75.5233 26.331C75.5747 26.2246 75.6262 26.1182 75.6792 26.0086C76.4253 24.4696 77.2427 22.9784 78.0964 21.4966C78.2501 21.2264 78.4013 20.9555 78.5503 20.6827C79.2446 19.4175 80.0159 18.2166 80.8221 17.0202C80.9519 16.8266 81.0817 16.633 81.2116 16.4394C83.8183 12.5602 86.682 8.63075 90.2995 5.62011C90.3658 5.56423 90.4321 5.50836 90.5004 5.45079C93.9058 2.58856 97.9939 0.051643 102.562 0.0109006ZM102.07 3.22758C98.8678 3.61591 96.0346 5.46858 93.5696 7.43685C93.4577 7.52522 93.3457 7.61359 93.2304 7.70463C90.8292 9.62974 88.7667 11.8914 86.9469 14.3683C86.7704 14.6051 86.59 14.8385 86.4091 15.0719C80.0218 23.3621 76.0479 33.0691 72.1093 42.6817C72.0583 42.8058 72.0072 42.9299 71.9546 43.0577C71.3432 44.5604 70.8262 46.0974 70.3024 47.6322C70.1433 48.0982 69.9837 48.5641 69.8242 49.0299C69.7931 49.1207 69.762 49.2115 69.7299 49.305C69.4831 50.025 69.2344 50.7443 68.983 51.4627C68.9496 51.5581 68.9162 51.6534 68.8818 51.7517C68.7138 52.2302 68.5404 52.7062 68.3622 53.181C68.2049 53.6092 68.0704 54.0402 67.9457 54.479C67.525 55.9578 67.0163 57.4054 66.5106 58.8569C66.0457 60.1935 65.6059 61.5306 65.2292 62.8949C65.0495 63.5454 64.8497 64.1852 64.6303 64.8233C64.3383 65.6798 64.0779 66.5425 63.8279 67.4122C63.5575 68.3531 63.2761 69.2853 62.956 70.2107C62.5053 71.5599 62.112 72.9285 61.7072 74.2921C61.4377 75.1993 61.1597 76.1019 60.8553 76.998C60.3969 78.2327 60.3969 78.2327 60.5048 79.5011C61.6727 81.5523 65.1646 82.4108 67.285 82.997C67.7383 83.1224 68.1815 83.2718 68.6272 83.4223C69.6164 83.7437 70.6323 83.9583 71.6475 84.1793C71.7287 84.197 71.8099 84.2147 71.8935 84.2329C73.7595 84.638 75.6306 84.9888 77.5217 85.2542C77.6131 85.2671 77.7045 85.2799 77.7987 85.2932C79.3351 85.5069 80.8725 85.656 82.4193 85.7689C82.5168 85.776 82.6142 85.7832 82.7147 85.7905C83.2901 85.8319 83.8657 85.8692 84.4417 85.9033C84.629 85.9144 84.8162 85.926 85.0035 85.9379C87.0548 86.0678 89.1087 86.0682 91.1633 86.0705C91.5634 86.071 91.9635 86.0727 92.3636 86.0755C95.0212 86.0935 97.6345 85.986 100.279 85.7202C100.796 85.6703 101.313 85.6304 101.831 85.5942C103.516 85.473 105.175 85.1818 106.839 84.8993C107.185 84.8419 107.531 84.7887 107.879 84.7399C109.543 84.5053 111.169 84.1114 112.8 83.7135C113.101 83.6407 113.402 83.5706 113.704 83.5032C116.089 82.9341 120.009 81.87 121.426 79.7434C121.58 78.7528 121.306 77.8277 121.027 76.8855C120.929 76.5502 120.835 76.2138 120.742 75.8771C120.43 74.7482 120.113 73.621 119.776 72.4991C119.528 71.6696 119.316 70.8333 119.109 69.9926C118.784 68.6758 118.413 67.373 118.037 66.07C117.994 65.9218 117.951 65.7737 117.907 65.621C117.823 65.3296 117.739 65.0383 117.654 64.7472C117.422 63.9419 117.218 63.1356 117.034 62.3179C116.896 61.7291 116.729 61.1495 116.559 60.5691C116.526 60.4549 116.493 60.3407 116.459 60.223C116.379 59.9472 116.299 59.6714 116.218 59.3958C115.815 59.5302 115.732 59.629 115.469 59.9484C115.083 60.4051 114.673 60.8255 114.244 61.2414C113.91 61.5873 113.8 61.7802 113.751 62.2648C113.781 63.4472 114.2 64.6182 114.575 65.7295C114.971 66.917 115.335 68.0218 114.75 69.2138C114.457 69.6666 114.204 69.8983 113.675 70.0541C112.977 70.0962 112.469 70.0144 111.828 69.7286C111.744 69.6929 111.66 69.6572 111.573 69.6204C110.97 69.3603 110.377 69.0787 109.785 68.7951C109.632 68.7226 109.479 68.6501 109.327 68.5776C109.024 68.4334 108.722 68.2866 108.421 68.1381C108.281 68.0709 108.141 68.0037 107.996 67.9345C107.871 67.8733 107.746 67.8121 107.617 67.7491C107.196 67.6125 106.953 67.6401 106.529 67.7528C106.267 67.8955 106.267 67.8955 106.022 68.0935C102.313 70.8079 102.313 70.8079 100.837 70.7103C100.288 70.5957 99.9742 70.3137 99.6406 69.8799C99.2363 68.5997 99.588 67.155 99.8071 65.8604C100.26 64.0285 100.26 64.0285 99.956 62.3012C99.7406 62.0712 99.5163 61.8778 99.2696 61.6819C99.1017 61.5377 98.9339 61.3934 98.7663 61.249C98.6846 61.1807 98.6029 61.1124 98.5188 61.0421C98.228 60.7935 97.9611 60.526 97.6951 60.2512C96.8829 59.3716 96.8829 59.3716 95.8708 58.7902C95.7421 58.5858 95.7421 58.5858 95.6286 58.3058C95.5836 58.2008 95.5387 58.0959 95.4923 57.9878C95.3082 57.2775 95.2698 56.6414 95.5605 55.9591C95.9859 55.5233 96.3889 55.3509 96.9609 55.1567C97.0783 55.1157 97.1957 55.0746 97.3166 55.0323C98.8891 54.55 100.538 54.4571 102.169 54.3089C102.347 53.8835 102.487 53.4609 102.607 53.0159C102.643 52.8856 102.679 52.7553 102.716 52.6211C102.79 52.3499 102.864 52.0786 102.937 51.8073C103.867 48.4309 103.867 48.4309 104.871 47.6021C105.396 47.306 105.948 47.2792 106.529 47.4053C107.932 48.0639 108.689 50.3433 109.335 51.6417C110.027 53.1045 110.027 53.1045 111.253 54.0667C111.601 54.1002 111.941 54.1227 112.29 54.1348C112.485 54.1435 112.68 54.1523 112.876 54.1613C113.018 54.1676 113.018 54.1676 113.163 54.1741C113.699 54.2014 114.232 54.2553 114.765 54.3089C114.535 53.3468 114.271 52.4036 113.967 51.4627C113.926 51.334 113.884 51.2053 113.842 51.0727C113.708 50.6575 113.574 50.2425 113.44 49.8276C113.347 49.5395 113.255 49.2514 113.162 48.9633C112.626 47.3011 112.085 45.6407 111.533 43.9837C111.505 43.8995 111.477 43.8152 111.448 43.7284C110.631 41.2787 109.8 38.8198 108.789 36.4423C108.522 35.8102 108.282 35.1688 108.042 34.526C107.679 33.5533 107.308 32.5838 106.936 31.6147C106.856 31.4063 106.776 31.1979 106.696 30.9895C106.579 30.6819 106.461 30.3745 106.343 30.0672C106.308 29.9756 106.273 29.8839 106.237 29.7895C106.024 29.2368 105.794 28.6946 105.548 28.1556C105.363 27.7327 105.216 27.2977 105.068 26.8609C104.807 26.1009 104.541 25.3432 104.266 24.5885C103.589 22.7296 102.969 20.876 102.532 18.9429C102.509 18.8476 102.486 18.7523 102.462 18.654C101.973 16.4915 102.2 14.2105 102.809 12.1024C103.462 9.79902 103.891 7.53256 103.917 5.13564C103.92 4.9859 103.923 4.83617 103.926 4.6819C103.925 4.47184 103.925 4.47184 103.925 4.25755C103.925 4.13202 103.925 4.00649 103.925 3.87716C103.892 3.54805 103.892 3.54805 103.645 3.33829C103.143 3.07193 102.616 3.17985 102.07 3.22758Z" fill="black"/>
<path d="M123.728 74.6565C124.435 74.735 125.085 74.9148 125.764 75.1258C125.865 75.1569 125.967 75.188 126.072 75.22C126.277 75.2827 126.482 75.3458 126.687 75.4091C127.004 75.5063 127.323 75.6005 127.641 75.6945C128.339 75.9039 128.998 76.174 129.662 76.4732C129.764 76.5189 129.865 76.5645 129.97 76.6116C131.484 77.2988 132.936 78.0092 134.265 79.0167C134.334 79.0691 134.404 79.1215 134.476 79.1755C135.834 80.2169 137.263 81.6126 137.535 83.3769C137.61 84.5169 137.618 85.5029 137.05 86.5259C136.999 86.6268 136.947 86.7276 136.893 86.8315C135.873 88.6248 134.18 89.9464 132.448 91.0072C132.372 91.0536 132.297 91.1 132.219 91.1478C130.423 92.2335 128.489 93.185 126.516 93.9012C126.171 94.0272 125.833 94.1639 125.494 94.3039C122.336 95.6021 118.933 96.3164 115.613 97.063C115.442 97.1017 115.442 97.1017 115.268 97.1412C115.165 97.1642 115.062 97.1873 114.957 97.2111C114.871 97.2303 114.786 97.2495 114.698 97.2693C113.865 97.4465 113.032 97.5964 112.189 97.7192C112.085 97.7346 111.981 97.7501 111.873 97.7659C111.654 97.7983 111.435 97.8305 111.217 97.8626C110.9 97.9092 110.584 97.9566 110.267 98.0042C107.852 98.3674 105.45 98.7122 103.01 98.8568C102.529 98.8878 102.048 98.9295 101.568 98.9724C100.426 99.0685 99.2866 99.1453 98.1421 99.1881C97.9382 99.1958 97.9382 99.1958 97.7303 99.2036C96.3217 99.2534 94.9137 99.2652 93.5043 99.2677C93.3703 99.2681 93.2362 99.2684 93.0981 99.2688C92.3881 99.2706 91.6781 99.2717 90.9681 99.2722C90.3942 99.2728 89.8203 99.2744 89.2463 99.2772C85.7882 99.2935 82.3668 99.2287 78.9229 98.9031C78.4992 98.8636 78.0753 98.8271 77.6514 98.7903C75.6575 98.6165 73.6958 98.3179 71.7241 97.9831C71.317 97.9162 70.9098 97.8555 70.5012 97.7982C63.9521 96.8771 56.91 95.1338 51.0578 91.9761C50.94 91.9159 50.8223 91.8556 50.701 91.7935C49.3054 91.0659 48.0752 90.1573 46.9398 89.0693C46.845 88.9822 46.7503 88.8951 46.6526 88.8054C45.4023 87.6204 44.5363 86.2171 44.4481 84.4745C44.4175 83.0082 44.8024 82.0422 45.7665 80.9243C45.9531 80.7299 46.1423 80.538 46.3342 80.349C46.4162 80.2672 46.4981 80.1853 46.5826 80.1011C49.1708 77.664 52.7884 76.1466 56.1446 75.141C56.2716 75.1026 56.3985 75.0641 56.5293 75.0246C57.0658 74.8697 57.5209 74.7586 58.0825 74.7776C57.9671 75.3285 57.8432 75.8736 57.6841 76.4136C57.2142 78.0193 56.8822 79.5289 57.6482 81.1116C58.8015 83.0773 61.2939 84.2907 63.3601 85.0412C63.7459 85.1829 64.1276 85.3324 64.5097 85.4836C65.3209 85.7963 66.142 86.0505 66.977 86.2912C67.179 86.3504 67.179 86.3504 67.3851 86.4107C67.6586 86.4906 67.9324 86.5699 68.2063 86.6487C68.4813 86.7282 68.756 86.8091 69.0302 86.8914C70.1092 87.2111 71.1938 87.4535 72.2985 87.6614C72.3929 87.6792 72.4873 87.6971 72.5845 87.7155C75.1265 88.1914 77.6882 88.5019 80.2576 88.7871C80.5895 88.8248 80.921 88.8646 81.2526 88.9054C87.6338 89.6844 94.3961 89.6852 100.779 88.912C101.3 88.8503 101.816 88.8118 102.34 88.7919C103.834 88.7346 105.286 88.4766 106.756 88.214C106.894 88.1897 107.032 88.1654 107.173 88.1404C116.719 86.7227 116.719 86.7227 124.261 81.3922C125.033 80.1273 124.78 78.6434 124.448 77.2694C124.296 76.6788 124.137 76.0908 123.97 75.5043C123.944 75.4138 123.919 75.3233 123.892 75.23C123.838 75.0387 123.783 74.8476 123.728 74.6565Z" fill="#AADCE7"/>
<path d="M87.9983 24.9984C89.1359 25.4921 89.7632 26.8647 90.3071 27.9128C90.9691 29.2023 90.9691 29.2023 91.874 30.3276C92.2266 30.344 92.5767 30.3531 92.9295 30.3574C93.1499 30.3614 93.3703 30.3654 93.5907 30.3694C93.9383 30.3751 94.2859 30.3805 94.6335 30.3853C94.9688 30.3902 95.3042 30.3964 95.6395 30.4028C95.7415 30.4038 95.8435 30.4048 95.9486 30.4059C96.8517 30.4243 97.9329 30.4583 98.6565 31.0542C99.03 31.4882 99.2458 31.8688 99.2082 32.4556C98.8187 34.1618 97.4389 35.893 96.238 37.1148C95.9516 37.4354 95.9516 37.4354 95.8332 37.8367C95.8595 38.0937 95.9136 38.3174 95.992 38.5635C96.015 38.6414 96.038 38.7192 96.0617 38.7995C96.1399 39.0444 96.2272 39.2841 96.3175 39.5248C96.3492 39.6131 96.3809 39.7014 96.4136 39.7923C96.5781 40.2492 96.7496 40.7027 96.9283 41.1542C97.3506 42.243 97.6303 43.1927 97.4454 44.3771C97.1781 44.9733 96.8227 45.3049 96.2342 45.5882C94.3232 45.8569 92.168 45.0071 90.4618 44.2304C90.3558 44.1839 90.2498 44.1373 90.1405 44.0894C90.0461 44.046 89.9516 44.0026 89.8543 43.9579C89.4605 43.8666 89.3246 43.9412 88.9672 44.1348C88.6108 44.3738 88.2668 44.6281 87.9226 44.8842C87.118 45.4742 86.309 46.0404 85.4548 46.5572C85.3423 46.6257 85.2297 46.6942 85.1137 46.7649C84.284 47.2665 83.7796 47.5144 82.7903 47.405C82.2422 47.1359 81.9497 46.8686 81.7002 46.3149C81.6412 45.8755 81.6431 45.4406 81.6472 44.9978C81.6476 44.868 81.648 44.7382 81.6484 44.6044C81.6766 42.9 81.9323 41.2156 82.1847 39.5324C82.1114 39.497 82.0381 39.4617 81.9626 39.4253C80.9849 38.9219 80.1113 38.1018 79.3096 37.3608C79.0009 37.0783 78.681 36.8128 78.3544 36.5513C78.0149 36.2089 77.9104 35.8663 77.9078 35.3917C77.9308 34.6924 78.0059 34.0303 78.5119 33.5102C79.188 33.0124 79.9655 32.7808 80.7569 32.5337C81.4116 32.3237 82.0511 32.0829 82.6692 31.7809C82.7475 31.75 82.8259 31.719 82.9066 31.6871C83.3601 31.4701 83.5878 31.2805 83.8079 30.8207C83.9579 30.3751 84.0864 29.9267 84.2058 29.4722C85.5236 24.745 85.5236 24.745 87.9983 24.9984Z" fill="black"/>
<path d="M79.0513 55.3841C79.8897 55.9328 80.1848 56.8091 80.4209 57.7379C80.472 57.9296 80.5231 58.1214 80.5742 58.3132C80.6127 58.4602 80.6127 58.4602 80.652 58.6103C80.7831 59.1078 80.9198 59.6037 81.0568 60.0996C81.0813 60.19 81.1058 60.2804 81.131 60.3735C81.197 60.6135 81.2668 60.8524 81.3369 61.0913C81.3581 61.1943 81.3792 61.2974 81.4011 61.4036C81.6064 61.7418 81.6696 61.7594 82.034 61.8691C82.2301 61.9166 82.4269 61.9614 82.6242 62.0039C82.7288 62.0288 82.8334 62.0537 82.9412 62.0793C83.2764 62.1586 83.6123 62.2345 83.9484 62.31C84.2814 62.3864 84.6141 62.4636 84.9466 62.542C85.1534 62.5906 85.3604 62.638 85.5678 62.684C86.3781 62.8716 87.1983 63.101 87.819 63.6745C88.1723 64.3121 88.1119 64.9908 87.9983 65.6937C87.7882 66.1399 87.5055 66.4453 87.1504 66.7837C87.0625 66.8701 86.9746 66.9564 86.8841 67.0454C86.2432 67.646 85.5547 68.1879 84.8596 68.7239C84.7232 68.8292 84.5876 68.9356 84.4528 69.0431C84.3074 69.1564 84.1579 69.2647 84.0056 69.3688C83.5577 69.6961 83.5577 69.6961 83.3271 70.1845C83.3077 70.4762 83.3156 70.7539 83.3353 71.0455C83.3388 71.1488 83.3423 71.2521 83.3459 71.3586C83.3696 71.967 83.4239 72.571 83.4881 73.1764C83.5315 73.7629 83.5456 74.3485 83.5548 74.9364C83.5584 75.0522 83.562 75.168 83.5657 75.2873C83.5716 75.9864 83.5181 76.4129 83.0325 76.9575C82.4476 77.2949 81.8853 77.4366 81.2157 77.3209C80.4665 77.0356 79.8263 76.5604 79.187 76.087C79.0452 75.9832 79.0452 75.9832 78.9005 75.8772C78.622 75.6729 78.3443 75.4675 78.0667 75.2619C77.9161 75.151 77.7655 75.0402 77.6149 74.9293C76.5875 74.1672 76.5875 74.1672 76.25 73.8085C75.7975 73.9855 75.3548 74.1786 74.9125 74.3795C74.7724 74.4427 74.6322 74.5058 74.4879 74.5709C74.1962 74.7026 73.9048 74.8347 73.6136 74.9674C71.4659 75.9324 71.4659 75.9324 70.4818 75.8902C70.3803 75.8869 70.2788 75.8836 70.1743 75.8802C70.1009 75.876 70.0275 75.8718 69.9519 75.8675C69.9519 75.7875 69.9519 75.7076 69.9519 75.6252C69.882 75.6177 69.812 75.6103 69.74 75.6025C69.3406 75.4583 69.2138 75.2526 68.983 74.8985C68.908 74.5558 68.8736 74.2897 68.8694 73.9447C68.8683 73.8484 68.8671 73.752 68.8659 73.6527C68.9155 72.3407 69.4534 71.1188 69.9227 69.9091C70.3144 68.919 70.3144 68.919 70.4364 67.8738C70.3095 67.6252 70.3095 67.6252 70.0806 67.465C69.5159 66.9697 69.0775 66.4085 68.6196 65.8148C68.5236 65.6924 68.4276 65.57 68.3287 65.4439C67.5853 64.48 67.0679 63.7676 67.0991 62.5115C67.2158 61.9377 67.5684 61.5738 68.014 61.2124C68.3695 61.0042 68.6323 60.9386 69.0427 60.9315C69.1494 60.9291 69.256 60.9267 69.3659 60.9242C69.537 60.9221 69.537 60.9221 69.7116 60.92C69.8292 60.9177 69.9468 60.9153 70.0679 60.9129C70.4431 60.9057 70.8182 60.9 71.1934 60.8945C71.4479 60.8898 71.7024 60.8851 71.957 60.8803C72.5805 60.8686 73.2041 60.8585 73.8276 60.849C73.8651 60.774 73.9025 60.699 73.941 60.6218C74.5332 59.4396 75.155 58.2694 75.8033 57.1171C75.8753 56.989 75.9473 56.8608 76.0215 56.7287C76.73 55.6094 77.6633 54.8111 79.0513 55.3841Z" fill="black"/>
<path d="M105.924 51.4019C106.376 51.5526 106.435 51.746 106.645 52.1552C106.711 52.2882 106.711 52.2882 106.779 52.4238C106.875 52.6108 106.971 52.7976 107.068 52.9844C107.118 53.082 107.168 53.1796 107.22 53.2802C107.482 53.7836 107.754 54.2812 108.028 54.778C108.078 54.8708 108.129 54.9636 108.181 55.0592C108.229 55.1459 108.277 55.2327 108.326 55.3221C108.368 55.3984 108.41 55.4747 108.453 55.5533C108.584 55.7718 108.584 55.7718 108.786 55.9561C108.951 56.1254 108.951 56.1254 108.951 56.3676C109.026 56.3851 109.101 56.4026 109.179 56.4206C109.436 56.4887 109.436 56.4887 109.678 56.6099C109.867 56.6338 110.057 56.6516 110.247 56.6662C110.363 56.6755 110.479 56.6848 110.598 56.6944C110.722 56.704 110.845 56.7135 110.973 56.7234C112.081 56.8139 113.18 56.9309 114.281 57.0943C114.085 57.5695 113.758 57.9075 113.41 58.2752C113.289 58.4051 113.168 58.535 113.048 58.6651C112.989 58.728 112.93 58.7909 112.87 58.8557C111.522 60.1983 111.522 60.1983 110.988 61.9163C110.986 62.042 110.984 62.1676 110.982 62.2971C111.011 62.6792 111.103 62.9212 111.253 63.2713C111.335 63.5838 111.413 63.8956 111.487 64.2099C111.62 64.7595 111.757 65.2973 111.949 65.8299C112.094 66.2394 112.134 66.5877 112.1 67.0259C111.594 66.8317 111.107 66.6033 110.619 66.3668C110.495 66.3073 110.495 66.3073 110.37 66.2465C110.197 66.1631 110.024 66.0795 109.852 65.9958C109.587 65.8674 109.321 65.7394 109.056 65.6115C108.888 65.5302 108.72 65.4489 108.552 65.3676C108.433 65.3101 108.433 65.3101 108.311 65.2514C107.754 64.9808 107.754 64.9808 107.619 64.8458C106.739 64.7089 106.186 64.9685 105.469 65.4514C105.376 65.5114 105.282 65.5715 105.185 65.6334C104.996 65.7551 104.807 65.8778 104.618 66.0014C104.232 66.255 103.841 66.5011 103.448 66.7458C103.326 66.8237 103.204 66.9016 103.078 66.9819C102.774 67.147 102.774 67.147 102.411 67.147C102.428 66.7407 102.446 66.3345 102.464 65.9283C102.469 65.8141 102.474 65.6998 102.479 65.5822C102.506 64.9655 102.559 64.3664 102.653 63.7557C102.835 62.4562 102.835 62.4562 102.402 61.2582C102.039 60.8018 101.621 60.4029 101.2 60.0011C100.92 59.7242 100.64 59.4462 100.361 59.1677C100.176 58.9836 99.9884 58.8009 99.7996 58.6199C99.6712 58.4954 99.6712 58.4954 99.5403 58.3684C99.4633 58.2949 99.3863 58.2213 99.3069 58.1455C99.141 57.9421 99.141 57.9421 99.141 57.5788C99.4769 57.4668 99.7303 57.4303 100.08 57.4056C100.194 57.3967 100.307 57.3878 100.424 57.3787C100.66 57.3609 100.897 57.3439 101.133 57.3276C102.223 57.24 103.208 57.0806 104.05 56.3426C104.443 55.8637 104.635 55.306 104.803 54.7174C105.136 53.5984 105.533 52.5016 105.924 51.4019Z" fill="#F8E482"/>
<path d="M87.3927 28.9956C87.7799 29.1582 87.9536 29.2979 88.1554 29.6651C88.2035 29.7504 88.2516 29.8358 88.3012 29.9238C88.3511 30.0147 88.4011 30.1056 88.4525 30.1992C89.3375 31.8478 89.3375 31.8478 90.6629 33.1136C91.0543 33.1796 91.4388 33.17 91.8348 33.1609C91.9468 33.1602 92.0589 33.1595 92.1743 33.1588C92.531 33.1561 92.8875 33.15 93.2442 33.1438C93.4865 33.1414 93.7288 33.1392 93.9711 33.1372C94.564 33.1319 95.1569 33.1235 95.7497 33.1136C95.5748 33.4715 95.3837 33.7884 95.1517 34.1128C94.7533 34.6764 94.3566 35.2412 93.9633 35.8084C93.9061 35.8899 93.849 35.9715 93.7902 36.0555C93.2572 36.8254 92.8302 37.4737 92.9641 38.4427C93.1872 39.5369 93.5307 40.4796 94.0224 41.4829C94.2196 41.9358 94.2771 42.3122 94.2964 42.8029C93.7162 42.7272 93.1974 42.561 92.6542 42.352C92.4783 42.2861 92.3024 42.2203 92.1264 42.1545C91.8522 42.0511 91.5782 41.9473 91.3045 41.8427C91.0382 41.7412 90.7714 41.6415 90.5044 41.542C90.4236 41.5106 90.3428 41.4792 90.2596 41.4469C89.6203 41.2104 89.0385 41.096 88.3967 41.367C88.2902 41.4337 88.1837 41.5003 88.074 41.569C87.9507 41.645 87.8273 41.7211 87.7002 41.7994C87.378 42.0061 87.0575 42.2155 86.737 42.4249C86.5991 42.5147 86.5991 42.5147 86.4585 42.6064C86.2763 42.7257 86.0946 42.8459 85.9136 42.967C85.8297 43.0224 85.7457 43.0779 85.6592 43.135C85.5848 43.1848 85.5103 43.2346 85.4336 43.2859C85.2 43.4155 84.989 43.4767 84.7282 43.5296C84.7149 42.8065 84.7309 42.0933 84.7887 41.3722C85.0153 39.6326 85.0153 39.6326 84.4537 38.0528C84.119 37.7091 83.7503 37.4189 83.3699 37.1274C82.9993 36.8427 82.6378 36.5516 82.2831 36.2475C82.169 36.1522 82.0549 36.057 81.9373 35.9589C81.7002 35.657 81.7002 35.657 81.7244 35.2568C81.7564 35.149 81.7884 35.0413 81.8214 34.9303C81.9385 34.8996 82.0555 34.8688 82.1762 34.8371C82.5864 34.729 82.9961 34.6192 83.4056 34.5085C83.6045 34.4549 83.8037 34.4023 84.0029 34.3498C84.8981 34.1017 85.507 33.7598 86.0604 32.9924C86.2051 32.6611 86.2051 32.6611 86.3069 32.305C86.3474 32.1747 86.388 32.0444 86.4297 31.9102C86.4905 31.7077 86.4905 31.7077 86.5525 31.5012C86.6344 31.2341 86.7166 30.9671 86.799 30.7002C86.8571 30.5113 86.8571 30.5113 86.9164 30.3186C87.0594 29.8706 87.2215 29.4335 87.3927 28.9956Z" fill="#F8E482"/>
<path d="M77.8245 59.1536C77.9044 59.1536 77.9844 59.1536 78.0667 59.1536C78.2037 59.5949 78.3397 60.0366 78.4755 60.4783C78.5139 60.602 78.5523 60.7257 78.5919 60.8532C78.7624 61.4091 78.9225 61.9544 79.0285 62.5264C79.1427 63.0688 79.3626 63.3846 79.7094 63.8165C79.8069 63.9402 79.9045 64.0639 80.0051 64.1913C80.377 64.6396 80.4943 64.6295 81.0833 64.6866C81.231 64.7015 81.3787 64.7164 81.5308 64.7318C81.8418 64.7622 82.1528 64.7924 82.4638 64.8226C83.2763 64.9048 84.0568 65.0104 84.8492 65.2094C84.6889 65.6905 84.3823 65.84 83.9787 66.1102C83.2341 66.6222 82.5485 67.1796 81.8752 67.7819C81.3608 68.2373 81.3608 68.2373 81.0946 68.2373C80.6105 69.3237 80.6905 70.4107 80.7086 71.5756C80.7104 71.7807 80.712 71.9858 80.7135 72.1909C80.7175 72.6898 80.7238 73.1886 80.7313 73.6875C80.1592 73.5955 79.8237 73.3688 79.3839 73.0063C77.7929 71.7271 77.7929 71.7271 75.8459 71.3357C74.7018 71.4662 73.5927 71.9621 72.5866 72.5054C72.3742 72.5975 72.3742 72.5975 72.0109 72.5975C72.0784 72.3172 72.1465 72.0372 72.2153 71.7572C72.2471 71.6272 72.2471 71.6272 72.2795 71.4946C72.4174 70.9413 72.5738 70.3979 72.7465 69.8545C73.195 68.5742 73.195 68.5742 73.1009 67.2684C72.7464 66.6884 72.2902 66.1844 71.8418 65.6762C71.5493 65.338 71.2794 64.9845 71.0117 64.6265C70.9236 64.5108 70.8356 64.3951 70.7448 64.2759C70.5575 63.9982 70.5575 63.9982 70.5575 63.756C70.6386 63.753 70.7197 63.7499 70.8032 63.7468C71.178 63.7326 71.5528 63.7178 71.9276 63.703C72.0551 63.6982 72.1826 63.6935 72.3139 63.6886C73.9965 63.7083 73.9965 63.7083 75.5233 63.1504C75.6505 62.9523 75.7708 62.7498 75.8866 62.5448C75.9503 62.4366 76.014 62.3284 76.0797 62.2169C76.3006 61.8393 76.5214 61.4616 76.742 61.0839C76.8192 60.952 76.8964 60.8202 76.976 60.6843C77.05 60.5575 77.1241 60.4306 77.2004 60.2999C77.2679 60.1845 77.3354 60.0691 77.4049 59.9503C77.5538 59.688 77.6931 59.4249 77.8245 59.1536Z" fill="#F8E482"/>
</svg>
