<svg width="350" height="350" viewBox="0 0 350 350" fill="none" xmlns="http://www.w3.org/2000/svg">
<path d="M196.148 97.9881C196.346 98.0221 196.544 98.0561 196.748 98.0912C204.495 99.458 212.119 101.891 219.429 104.769C219.578 104.633 219.578 104.633 219.729 104.494C220.557 103.756 221.297 103.204 222.339 102.791C222.66 102.66 222.66 102.66 222.988 102.526C224.814 101.922 226.507 101.75 228.428 101.76C228.801 101.762 228.801 101.762 229.181 101.764C243.252 101.97 256.356 109.764 265.958 119.609C266.76 120.45 267.502 121.33 268.221 122.242C268.738 122.894 269.278 123.521 269.82 124.151C277.287 133.109 282.492 145.476 281.588 157.208C281.159 161.139 279.261 165.066 276.255 167.66C272.751 170.333 268.733 171.498 264.353 171.477C264.176 171.478 263.999 171.478 263.817 171.479C262.423 171.477 261.049 171.366 259.663 171.222C259.719 171.381 259.774 171.54 259.832 171.704C261.049 175.198 262.152 178.657 262.827 182.298C262.864 182.485 262.901 182.671 262.939 182.864C264.156 189.284 263.996 196.495 262.601 202.867C262.538 203.168 262.538 203.168 262.473 203.474C261.56 207.715 260.127 211.704 258.081 215.525C257.975 215.736 257.869 215.948 257.76 216.166C255.238 221.092 251.345 225.475 247.005 228.861C246.82 229.005 246.82 229.005 246.632 229.153C242.463 232.391 237.721 234.95 232.765 236.772C232.908 236.871 233.051 236.97 233.198 237.072C237.106 239.843 240.705 243.127 243.615 246.943C243.712 247.069 243.809 247.195 243.908 247.325C245.915 249.947 247.599 252.7 249.167 255.603C249.245 255.748 249.323 255.893 249.404 256.042C249.944 257.059 249.944 257.059 249.944 257.567C250.093 257.567 250.242 257.567 250.396 257.567C250.435 257.3 250.435 257.3 250.474 257.028C250.588 256.397 250.72 255.788 250.875 255.167C250.923 254.973 250.972 254.78 251.021 254.58C251.12 254.188 251.22 253.795 251.321 253.403C252.214 249.79 252.253 246.299 252.143 242.607C252.127 242.015 252.118 241.424 252.109 240.833C252.099 240.567 252.099 240.567 252.087 240.296C252.075 238.944 252.48 238.045 253.334 236.998C254.523 236.07 255.962 236.161 257.403 236.32C260.435 237.05 262.699 238.922 264.862 241.066C265.061 241.262 265.26 241.458 265.465 241.66C268.417 244.732 270.043 248.468 271.148 252.537C271.195 252.708 271.242 252.879 271.29 253.055C272.406 257.402 272.441 262.978 271.191 267.286C271.11 267.595 271.03 267.904 270.95 268.213C269.442 273.851 266.447 279.117 262.149 283.108C261.963 283.295 261.776 283.481 261.584 283.673C261.398 283.86 261.211 284.046 261.019 284.238C260.907 284.355 260.794 284.472 260.678 284.592C259.751 285.545 258.783 286.374 257.713 287.163C257.556 287.279 257.398 287.396 257.235 287.517C251.324 291.847 244.516 294.469 237.286 295.54C236.931 295.604 236.931 295.604 236.57 295.669C235.306 295.811 234.05 295.789 232.779 295.78C232.517 295.779 232.255 295.778 231.984 295.777C231.34 295.774 230.697 295.77 230.053 295.766C230.068 295.961 230.084 296.155 230.1 296.356C230.276 298.727 230.323 301.087 230.333 303.464C230.334 303.664 230.335 303.863 230.335 304.068C230.34 305.122 230.343 306.175 230.346 307.229C230.348 308.305 230.356 309.381 230.365 310.457C230.371 311.297 230.373 312.136 230.373 312.975C230.374 313.371 230.377 313.768 230.381 314.164C230.426 318.578 229.678 322.451 226.527 325.765C223.692 328.457 220.22 329.403 216.491 330.123C216.322 330.163 216.153 330.203 215.979 330.244C215.19 330.378 214.412 330.39 213.613 330.395C213.361 330.397 213.361 330.397 213.104 330.4C206.809 330.446 200.612 330.2 195.719 325.661C192.616 322.322 191.772 317.581 191.853 313.17C191.588 313.236 191.322 313.301 191.048 313.368C187.614 314.128 184.072 314.333 180.564 314.346C180.294 314.348 180.023 314.35 179.744 314.351C178.874 314.355 178.003 314.356 177.133 314.357C176.836 314.357 176.539 314.358 176.233 314.358C171.532 314.361 166.912 314.181 162.243 313.622C161.89 313.581 161.536 313.54 161.182 313.499C160.255 313.39 159.328 313.281 158.401 313.17C158.403 313.413 158.406 313.655 158.408 313.905C158.372 318.125 156.887 322.468 153.972 325.539C149.691 329.597 143.81 330.401 138.171 330.405C137.999 330.405 137.827 330.406 137.65 330.406C132.327 330.398 126.997 329.519 122.979 325.711C119.864 322.335 119.451 318.207 119.463 313.826C119.463 313.45 119.462 313.074 119.461 312.698C119.46 311.7 119.462 310.702 119.465 309.705C119.467 309.085 119.468 308.466 119.469 307.847C119.478 301.927 119.537 296.021 119.975 290.115C119.988 289.935 120.002 289.755 120.015 289.569C120.294 285.747 120.639 281.939 121.105 278.135C120.858 278.22 120.611 278.304 120.357 278.392C120.209 278.442 120.062 278.492 119.91 278.544C119.605 278.649 119.301 278.754 118.996 278.859C118.795 278.927 118.795 278.927 118.589 278.996C118.454 279.042 118.319 279.089 118.18 279.136C114.687 280.108 109.99 279.977 106.639 278.588C106.439 278.52 106.238 278.452 106.031 278.382C103.022 277.321 100.376 275.072 98.9543 272.216C97.3111 268.76 97.2324 264.29 98.4157 260.645C98.5189 260.375 98.622 260.105 98.7283 259.827C98.8193 259.582 98.8193 259.582 98.9122 259.333C100.341 255.54 102.302 252.141 104.831 248.977C104.986 248.779 105.14 248.582 105.299 248.378C108.099 244.86 111.293 241.796 114.748 238.933C114.91 238.799 115.071 238.666 115.237 238.528C115.928 237.962 116.613 237.417 117.364 236.933C117.959 236.602 117.959 236.602 118.167 236.094C118.005 236.066 117.843 236.038 117.676 236.009C111.928 234.737 106.04 230.888 101.667 227.052C101.472 226.883 101.278 226.713 101.078 226.538C100.514 226.038 99.9584 225.531 99.4064 225.018C99.2561 224.88 99.1057 224.742 98.9508 224.599C91.193 217.188 86.9686 205.659 86.6832 195.077C86.6652 194.076 86.6617 193.075 86.6639 192.074C86.664 191.862 86.6641 191.65 86.6642 191.432C86.6824 184.586 87.4802 176.992 90.5912 170.77C90.3097 170.843 90.0282 170.916 89.7382 170.991C85.2104 171.991 80.5155 171.123 76.5557 168.787C72.7686 166.347 70.5697 162.372 69.5631 158.068C67.3815 147.71 71.8647 136.287 77.4081 127.715C77.9439 126.911 78.497 126.121 79.0635 125.338C79.1593 125.205 79.255 125.073 79.3536 124.936C82.3198 120.874 85.738 117.154 89.687 114.036C90.0922 113.698 90.4972 113.358 90.902 113.019C93.2766 111.082 95.8418 109.446 98.5023 107.933C98.6649 107.841 98.8274 107.749 98.995 107.653C103.192 105.296 107.621 103.663 112.29 102.509C112.451 102.468 112.611 102.428 112.777 102.386C115.191 101.805 117.618 101.767 120.088 101.76C120.245 101.759 120.401 101.758 120.563 101.757C124.164 101.747 128.005 102.285 130.825 104.769C130.825 104.918 130.825 105.067 130.825 105.221C131.043 105.122 131.261 105.023 131.486 104.921C139.287 101.47 147.525 99.2078 155.914 97.7621C156.128 97.7248 156.343 97.6875 156.563 97.6492C169.477 95.4854 183.269 95.7657 196.148 97.9881Z" fill="#F2D3A3"/>
<path d="M275.782 146.601C275.782 166.704 232.29 139.83 178.639 139.83C124.988 139.83 77.2715 166.704 77.2715 146.601C77.2715 126.499 124.988 100.892 178.639 100.892C232.29 100.892 275.782 126.499 275.782 146.601Z" fill="#AADCE7"/>
<path d="M196.148 97.9881C196.346 98.0221 196.544 98.0561 196.748 98.0912C204.495 99.458 212.119 101.891 219.429 104.769C219.578 104.633 219.578 104.633 219.729 104.494C220.557 103.756 221.297 103.204 222.339 102.791C222.66 102.66 222.66 102.66 222.988 102.526C224.814 101.922 226.507 101.75 228.428 101.76C228.801 101.762 228.801 101.762 229.181 101.764C243.252 101.97 256.356 109.764 265.958 119.609C266.76 120.45 267.502 121.33 268.221 122.242C268.738 122.894 269.278 123.521 269.82 124.151C277.287 133.109 282.492 145.476 281.588 157.208C281.159 161.139 279.261 165.066 276.255 167.66C272.751 170.333 268.733 171.498 264.353 171.477C264.176 171.478 263.999 171.478 263.817 171.479C262.423 171.477 261.049 171.366 259.663 171.222C259.719 171.381 259.774 171.54 259.832 171.704C261.049 175.198 262.152 178.657 262.827 182.298C262.864 182.485 262.901 182.671 262.939 182.864C264.156 189.284 263.996 196.495 262.601 202.867C262.538 203.168 262.538 203.168 262.473 203.474C261.56 207.715 260.127 211.704 258.081 215.525C257.975 215.736 257.869 215.948 257.76 216.166C255.238 221.092 251.345 225.475 247.005 228.861C246.82 229.005 246.82 229.005 246.632 229.153C242.463 232.391 237.721 234.95 232.765 236.772C232.908 236.871 233.051 236.97 233.198 237.072C237.106 239.843 240.705 243.127 243.615 246.943C243.712 247.069 243.809 247.195 243.908 247.325C245.915 249.947 247.599 252.7 249.167 255.603C249.245 255.748 249.323 255.893 249.404 256.042C249.944 257.059 249.944 257.059 249.944 257.567C250.093 257.567 250.242 257.567 250.396 257.567C250.435 257.3 250.435 257.3 250.474 257.028C250.588 256.397 250.72 255.788 250.875 255.167C250.923 254.973 250.972 254.78 251.021 254.58C251.12 254.188 251.22 253.795 251.321 253.403C252.214 249.79 252.253 246.299 252.143 242.607C252.127 242.015 252.118 241.424 252.109 240.833C252.099 240.567 252.099 240.567 252.087 240.296C252.075 238.944 252.48 238.045 253.334 236.998C254.523 236.07 255.962 236.161 257.403 236.32C260.435 237.05 262.699 238.922 264.862 241.066C265.061 241.262 265.26 241.458 265.465 241.66C268.417 244.732 270.043 248.468 271.148 252.537C271.195 252.708 271.242 252.879 271.29 253.055C272.406 257.402 272.441 262.978 271.191 267.286C271.11 267.595 271.03 267.904 270.95 268.213C269.442 273.851 266.447 279.117 262.149 283.108C261.963 283.295 261.776 283.481 261.584 283.673C261.398 283.86 261.211 284.046 261.019 284.238C260.907 284.355 260.794 284.472 260.678 284.592C259.751 285.545 258.783 286.374 257.713 287.163C257.556 287.279 257.398 287.396 257.235 287.517C251.324 291.847 244.516 294.469 237.286 295.54C236.931 295.604 236.931 295.604 236.57 295.669C235.306 295.811 234.05 295.789 232.779 295.78C232.517 295.779 232.255 295.778 231.984 295.777C231.34 295.774 230.697 295.77 230.053 295.766C230.068 295.961 230.084 296.155 230.1 296.356C230.276 298.727 230.323 301.087 230.333 303.464C230.334 303.664 230.335 303.863 230.335 304.068C230.34 305.122 230.343 306.175 230.346 307.229C230.348 308.305 230.356 309.381 230.365 310.457C230.371 311.297 230.373 312.136 230.373 312.975C230.374 313.371 230.377 313.768 230.381 314.164C230.426 318.578 229.678 322.451 226.527 325.765C223.692 328.457 220.22 329.403 216.491 330.123C216.322 330.163 216.153 330.203 215.979 330.244C215.19 330.378 214.412 330.39 213.613 330.395C213.361 330.397 213.361 330.397 213.104 330.4C206.809 330.446 200.612 330.2 195.719 325.661C192.616 322.322 191.772 317.581 191.853 313.17C191.588 313.236 191.322 313.301 191.048 313.368C187.614 314.128 184.072 314.333 180.564 314.346C180.294 314.348 180.023 314.35 179.744 314.351C178.874 314.355 178.003 314.356 177.133 314.357C176.836 314.357 176.539 314.358 176.233 314.358C171.532 314.361 166.912 314.181 162.243 313.622C161.89 313.581 161.536 313.54 161.182 313.499C160.255 313.39 159.328 313.281 158.401 313.17C158.403 313.413 158.406 313.655 158.408 313.905C158.372 318.125 156.887 322.468 153.972 325.539C149.691 329.597 143.81 330.401 138.171 330.405C137.999 330.405 137.827 330.406 137.65 330.406C132.327 330.398 126.997 329.519 122.979 325.711C119.864 322.335 119.451 318.207 119.463 313.826C119.463 313.45 119.462 313.074 119.461 312.698C119.46 311.7 119.462 310.702 119.465 309.705C119.467 309.085 119.468 308.466 119.469 307.847C119.478 301.927 119.537 296.021 119.975 290.115C119.988 289.935 120.002 289.755 120.015 289.569C120.294 285.747 120.639 281.939 121.105 278.135C120.858 278.22 120.611 278.304 120.357 278.392C120.209 278.442 120.062 278.492 119.91 278.544C119.605 278.649 119.301 278.754 118.996 278.859C118.795 278.927 118.795 278.927 118.589 278.996C118.454 279.042 118.319 279.089 118.18 279.136C114.687 280.108 109.99 279.977 106.639 278.588C106.439 278.52 106.238 278.452 106.031 278.382C103.022 277.321 100.376 275.072 98.9543 272.216C97.3111 268.76 97.2324 264.29 98.4157 260.645C98.5189 260.375 98.622 260.105 98.7283 259.827C98.8193 259.582 98.8193 259.582 98.9122 259.333C100.341 255.54 102.302 252.141 104.831 248.977C104.986 248.779 105.14 248.582 105.299 248.378C108.099 244.86 111.293 241.796 114.748 238.933C114.91 238.799 115.071 238.666 115.237 238.528C115.928 237.962 116.613 237.417 117.364 236.933C117.959 236.602 117.959 236.602 118.167 236.094C118.005 236.066 117.843 236.038 117.676 236.009C111.928 234.737 106.04 230.888 101.667 227.052C101.472 226.883 101.278 226.713 101.078 226.538C100.514 226.038 99.9584 225.531 99.4064 225.018C99.2561 224.88 99.1057 224.742 98.9508 224.599C91.193 217.188 86.9686 205.659 86.6832 195.077C86.6652 194.076 86.6617 193.075 86.6639 192.074C86.664 191.862 86.6641 191.65 86.6642 191.432C86.6824 184.586 87.4802 176.992 90.5912 170.77C90.3097 170.843 90.0282 170.916 89.7382 170.991C85.2104 171.991 80.5155 171.123 76.5557 168.787C72.7686 166.347 70.5697 162.372 69.5631 158.068C67.3815 147.71 71.8647 136.287 77.4081 127.715C77.9439 126.911 78.497 126.121 79.0635 125.338C79.1593 125.205 79.255 125.073 79.3536 124.936C82.3198 120.874 85.738 117.154 89.687 114.036C90.0922 113.698 90.4972 113.358 90.902 113.019C93.2766 111.082 95.8418 109.446 98.5023 107.933C98.6649 107.841 98.8274 107.749 98.995 107.653C103.192 105.296 107.621 103.663 112.29 102.509C112.451 102.468 112.611 102.428 112.777 102.386C115.191 101.805 117.618 101.767 120.088 101.76C120.245 101.759 120.401 101.758 120.563 101.757C124.164 101.747 128.005 102.285 130.825 104.769C130.825 104.918 130.825 105.067 130.825 105.221C131.043 105.122 131.261 105.023 131.486 104.921C139.287 101.47 147.525 99.2078 155.914 97.7621C156.128 97.7248 156.343 97.6875 156.563 97.6492C169.477 95.4854 183.269 95.7657 196.148 97.9881ZM159.531 102.961C159.173 103.003 159.173 103.003 158.808 103.046C151.13 103.961 143.69 105.84 136.476 108.612C136.27 108.69 136.064 108.768 135.851 108.849C135.327 109.051 134.806 109.26 134.286 109.473C134.01 109.587 133.734 109.7 133.45 109.817C132.823 110.135 132.823 110.135 132.654 110.716C132.631 111.393 132.646 112.059 132.675 112.737C132.746 116.741 131.765 120.849 130.599 124.66C130.531 124.882 130.463 125.103 130.393 125.332C127.004 136.24 122.068 147.561 114.147 155.995C113.718 156.454 113.314 156.923 112.912 157.406C109.501 161.29 104.417 165.789 99.4594 167.465C98.2646 167.879 97.5739 168.177 96.9042 169.282C96.5247 170.144 96.2445 171.03 95.9795 171.933C95.7726 172.638 95.5495 173.336 95.3255 174.035C94.4149 176.933 93.6428 179.837 93.1702 182.84C93.1042 183.258 93.0326 183.676 92.957 184.093C92.5778 186.364 92.5489 188.606 92.5541 190.904C92.5548 191.558 92.5495 192.212 92.5438 192.866C92.5306 196.699 92.8347 200.568 93.911 204.265C93.9683 204.468 94.0256 204.67 94.0846 204.879C97.0085 214.827 103.623 222.712 112.669 227.675C117.598 230.31 122.762 232.282 128.276 233.265C128.477 233.301 128.678 233.337 128.885 233.375C129.067 233.406 129.249 233.437 129.436 233.469C130.185 233.683 130.577 234.141 131.051 234.737C131.125 234.812 131.2 234.887 131.277 234.963C131.374 235.795 131.298 236.272 130.952 237.04C130.169 237.9 129.445 238.077 128.338 238.354C119.027 240.737 111.481 248.68 106.62 256.704C104.456 260.362 102.708 264.173 103.329 268.527C103.803 270.315 105.103 271.718 106.642 272.687C110.004 274.421 114.166 274.74 117.8 273.601C119.466 272.938 121.266 272.054 122.462 270.676C122.649 270.217 122.649 270.217 122.763 269.696C122.812 269.498 122.861 269.3 122.911 269.096C122.962 268.881 123.013 268.666 123.066 268.445C123.149 268.109 123.149 268.109 123.234 267.766C123.412 267.046 123.587 266.326 123.761 265.605C124.421 262.88 125.085 260.17 125.997 257.516C126.059 257.331 126.122 257.147 126.186 256.956C126.582 255.847 126.999 254.733 128.112 254.176C129.036 254.06 129.97 253.968 130.815 254.405C131.411 254.888 131.711 255.253 131.955 255.984C132.013 257.097 131.884 258.001 131.566 259.065C131.481 259.354 131.396 259.644 131.312 259.933C131.267 260.084 131.222 260.234 131.176 260.39C130.077 264.087 129.167 267.813 128.338 271.581C128.271 271.882 128.271 271.882 128.202 272.19C126.828 278.367 126.139 284.673 125.664 290.975C125.635 291.358 125.604 291.741 125.572 292.123C125.427 293.906 125.334 295.686 125.276 297.474C125.267 297.763 125.258 298.053 125.248 298.352C125.146 301.672 125.124 304.992 125.12 308.313C125.118 309.193 125.113 310.073 125.107 310.953C125.102 311.645 125.101 312.337 125.101 313.03C125.1 313.354 125.098 313.679 125.095 314.003C125.071 316.84 125.263 319.546 127.208 321.76C129.998 324.391 133.811 324.818 137.479 324.774C137.959 324.769 138.439 324.769 138.919 324.771C142.939 324.763 147.28 324.291 150.264 321.308C152.299 318.635 152.651 315.496 152.764 312.252C152.781 311.785 152.799 311.318 152.822 310.851C152.841 310.433 152.857 310.015 152.872 309.597C152.985 308.81 153.18 308.378 153.654 307.746C155.628 306.429 159.646 307.496 161.918 307.731C166.643 308.218 171.321 308.466 176.072 308.466C176.777 308.466 177.482 308.47 178.187 308.474C182.562 308.487 186.862 308.113 191.189 307.491C191.762 307.41 192.334 307.329 192.907 307.249C193.151 307.214 193.395 307.179 193.646 307.143C195.46 306.945 195.46 306.945 196.431 307.449C197.109 308.019 197.253 308.271 197.504 309.102C197.562 309.84 197.562 309.84 197.566 310.675C197.571 310.986 197.575 311.296 197.58 311.607C197.585 312.088 197.589 312.569 197.59 313.051C197.606 316.417 197.973 319.682 200.443 322.212C203.236 324.53 207.088 324.743 210.557 324.752C211.044 324.754 211.53 324.761 212.017 324.769C215.819 324.797 219.694 324.375 222.549 321.646C224.14 319.84 224.68 317.612 224.694 315.251C224.695 315.084 224.697 314.918 224.698 314.746C224.702 314.196 224.703 313.646 224.704 313.096C224.706 312.705 224.708 312.314 224.71 311.923C224.715 310.662 224.714 309.402 224.713 308.141C224.713 307.927 224.713 307.712 224.713 307.491C224.71 300.379 224.504 293.348 223.724 286.273C223.674 285.804 223.624 285.335 223.573 284.866C222.591 275.787 221.224 266.48 218.299 257.793C218.161 257.002 218.125 256.3 218.521 255.583C219.031 254.94 219.541 254.409 220.333 254.176C221.155 254.101 221.748 254.114 222.523 254.402C223.716 255.434 224.119 257.066 224.493 258.551C224.539 258.726 224.585 258.902 224.632 259.083C224.729 259.455 224.824 259.827 224.919 260.199C225.068 260.779 225.219 261.359 225.37 261.938C225.848 263.771 226.296 265.603 226.679 267.458C227.147 269.746 227.147 269.746 228.647 271.484C228.813 271.591 228.978 271.697 229.149 271.807C229.319 271.929 229.489 272.052 229.664 272.178C232.654 274.173 236.292 274.597 239.782 273.91C242.251 273.269 244.435 272.166 245.875 269.998C247.013 267.86 246.745 265.409 246.101 263.161C243.193 253.741 235.685 245.19 227.148 240.418C225.244 239.415 223.314 238.971 221.192 238.699C220.324 238.535 219.859 238.258 219.203 237.676C218.838 236.946 218.845 236.204 218.977 235.415C219.898 234.132 221.057 233.944 222.553 233.682C222.702 233.659 222.851 233.636 223.005 233.612C225.174 233.276 227.204 232.694 229.276 231.983C229.438 231.928 229.601 231.873 229.768 231.816C232.154 231.007 234.419 230.114 236.608 228.861C236.914 228.696 237.221 228.532 237.529 228.369C246.38 223.614 253.045 215.426 255.942 205.815C256.224 204.837 256.483 203.855 256.725 202.867C256.762 202.726 256.8 202.586 256.839 202.441C257.669 199.123 257.721 195.644 257.713 192.243C257.713 191.941 257.713 191.941 257.713 191.633C257.705 188.22 257.448 184.965 256.725 181.62C256.686 181.431 256.647 181.242 256.607 181.048C255.843 177.389 254.575 173.838 253.334 170.318C253.281 170.147 253.227 169.975 253.173 169.798C252.893 168.984 252.646 168.73 251.91 168.257C251.61 168.121 251.307 167.988 251.003 167.86C250.674 167.708 250.345 167.554 250.017 167.399C249.77 167.283 249.77 167.283 249.517 167.164C246.9 165.87 244.546 163.974 242.259 162.181C242.133 162.083 242.008 161.984 241.878 161.883C238.452 159.164 235.329 156.007 232.765 152.462C232.655 152.312 232.545 152.162 232.432 152.007C224.374 140.993 216.497 124.625 217.395 110.646C205.091 103.909 190.058 102.136 176.233 102.194C175.312 102.198 174.39 102.196 173.469 102.192C168.78 102.175 164.188 102.402 159.531 102.961Z" fill="black"/>
<path d="M246.453 112.059C253.283 115.552 259.979 120.804 264.635 126.92C264.755 127.076 264.874 127.232 264.997 127.392C266.765 129.713 268.424 132.05 269.834 134.605C269.938 134.792 270.043 134.978 270.15 135.17C273.463 141.133 275.799 147.22 275.824 154.101C275.826 154.54 275.826 154.54 275.829 154.989C275.785 158.192 275.058 160.915 272.846 163.287C269.913 165.949 266.092 166.01 262.349 165.843C253.428 165.217 245.052 158.23 239.4 151.813C238.654 150.929 237.96 150.011 237.286 149.071C237.183 148.928 237.08 148.785 236.973 148.638C233.26 143.442 230.303 137.868 228.048 131.892C227.807 131.254 227.561 130.619 227.314 129.983C225.625 125.569 224.292 120.958 223.498 116.297C223.452 116.076 223.406 115.856 223.359 115.628C223.092 114.272 222.994 112.943 222.975 111.564C222.971 111.401 222.967 111.238 222.963 111.069C222.964 110.056 223.097 109.414 223.724 108.612C229.378 104.371 240.989 109.386 246.453 112.059Z" fill="#7D5232"/>
<path d="M119.891 107.425C120.317 107.422 120.317 107.422 120.752 107.419C124.925 107.428 124.925 107.428 126.53 108.837C126.995 109.906 127.062 110.923 127.053 112.073C127.051 112.34 127.051 112.34 127.05 112.613C126.894 120.638 123.361 129.206 119.996 136.338C119.75 136.864 119.511 137.393 119.274 137.923C115.516 146.211 109.904 153.794 102.571 159.243C102.35 159.412 102.128 159.581 101.9 159.755C98.4332 162.291 94.5019 164.205 90.3653 165.345C90.1614 165.405 89.9574 165.464 89.7473 165.526C87.2054 166.157 84.2176 166.067 81.7761 165.119C81.492 165.012 81.492 165.012 81.2022 164.902C78.5289 163.735 76.7442 161.455 75.6732 158.79C75.0744 156.916 74.8852 155.158 74.9104 153.196C74.9133 152.811 74.9133 152.811 74.9164 152.417C74.9514 150.393 75.185 148.548 75.6732 146.585C75.7336 146.302 75.7939 146.02 75.856 145.729C77.4395 138.511 81.2337 131.725 85.8447 126.016C86.0632 125.728 86.0632 125.728 86.2862 125.435C89.0295 121.903 92.3681 118.864 96.0161 116.296C96.1533 116.198 96.2905 116.1 96.4319 115.998C101.694 112.237 107.768 109.332 114.099 107.933C114.28 107.892 114.462 107.85 114.649 107.807C116.399 107.444 118.108 107.414 119.891 107.425Z" fill="#7D5232"/>
<path d="M181.004 248.525C181.209 248.604 181.414 248.683 181.626 248.764C186.748 251.009 189.826 256.477 191.853 261.409C192.854 263.985 193.41 266.607 193.887 269.32C193.927 269.531 193.967 269.743 194.008 269.961C194.618 274.098 194.389 278.72 192.983 282.656C192.894 282.916 192.804 283.176 192.712 283.444C191.086 287.702 188.002 291.002 183.888 292.924C178.454 295.302 171.473 295.047 166.024 292.933C161.809 291.205 158.866 288.394 156.897 284.298C153.858 276.934 155.154 268.375 158.132 261.211C159.369 258.353 160.813 255.588 162.921 253.272C163.019 253.164 163.116 253.055 163.217 252.944C167.912 247.791 174.479 245.891 181.004 248.525Z" fill="#FFBB4D"/>
<path d="M188.612 246.347C191.394 248.695 193.451 251.463 195.244 254.628C195.318 254.758 195.392 254.888 195.468 255.022C197.738 259.08 199.052 263.613 199.765 268.19C199.804 268.438 199.804 268.438 199.844 268.692C200.975 276.139 199.932 284.314 195.523 290.594C191.249 296.101 185.873 298.717 179.12 299.975C171.208 300.793 163.36 299.214 157.054 294.224C152.592 290.574 150.162 285.164 149.585 279.492C149.504 278.226 149.497 276.959 149.501 275.691C149.501 275.52 149.501 275.348 149.501 275.171C149.517 270.406 150.274 265.911 151.846 261.409C151.896 261.262 151.947 261.115 151.999 260.963C153.685 256.164 156.279 251.99 159.757 248.299C159.884 248.16 160.01 248.022 160.141 247.879C167.717 239.881 180.21 239.445 188.612 246.347ZM164.956 251.238C164.742 251.43 164.528 251.623 164.308 251.821C160.314 255.552 158.121 260.535 156.592 265.704C156.523 265.931 156.454 266.159 156.383 266.394C154.687 272.536 154.467 279.683 157.448 285.474C160.035 289.876 163.633 292.254 168.43 293.755C170.548 294.277 172.595 294.486 174.774 294.466C175.022 294.464 175.27 294.463 175.526 294.461C180.742 294.392 185.418 293.022 189.141 289.211C191.754 286.453 192.958 283.119 193.787 279.479C193.853 279.193 193.927 278.909 194.01 278.628C195.621 270.968 192.821 262.037 188.915 255.532C188.359 254.731 187.755 254 187.107 253.272C186.895 253.012 186.895 253.012 186.679 252.747C184.357 249.963 180.994 247.952 177.387 247.395C172.734 246.975 168.473 248.059 164.956 251.238Z" fill="black"/>
<path d="M140.537 171.645C142.851 172.734 144.031 174.397 144.895 176.732C145.358 178.965 145.001 180.835 143.862 182.817C143.092 183.936 142.191 184.606 140.996 185.236C141.357 186.022 141.827 186.692 142.324 187.398C143.912 189.754 144.427 191.991 144.429 194.786C144.432 194.99 144.435 195.195 144.438 195.405C144.445 198.761 143.143 201.801 140.77 204.223C140.621 204.223 140.472 204.223 140.318 204.223C140.244 204.447 140.169 204.67 140.092 204.901C139.102 205.921 137.77 206.563 136.518 207.204C136.302 207.317 136.302 207.317 136.081 207.432C133.793 208.567 131.597 208.864 129.059 208.842C128.64 208.84 128.64 208.84 128.212 208.838C126.22 208.803 124.537 208.618 122.688 207.839C122.373 207.724 122.373 207.724 122.052 207.607C118.539 206.205 116.053 203.55 114.398 200.211C113.675 198.435 113.293 196.82 113.308 194.899C113.309 194.693 113.31 194.486 113.311 194.274C113.41 190.506 115.262 187.487 117.933 184.915C119.055 183.962 120.268 183.234 121.558 182.524C121.72 182.429 121.883 182.334 122.05 182.236C124.392 180.944 127.166 180.674 129.794 180.701C129.981 180.702 130.168 180.703 130.36 180.705C130.816 180.707 131.273 180.711 131.729 180.716C131.719 180.445 131.708 180.175 131.697 179.897C131.621 177.12 131.83 175.316 133.777 173.21C135.694 171.439 138.008 170.903 140.537 171.645Z" fill="#F4A99C"/>
<path d="M213.864 171.915C215.745 173.006 216.82 174.409 217.621 176.421C218.034 177.978 217.905 179.599 217.621 181.168C217.852 181.164 217.852 181.164 218.087 181.161C218.794 181.151 219.5 181.145 220.207 181.139C220.448 181.136 220.69 181.132 220.939 181.128C225.258 181.102 229.341 182.862 232.482 185.826C235.02 188.518 236.28 191.692 236.251 195.391C236.118 199.103 234.428 202.095 231.861 204.675C231.728 204.817 231.594 204.958 231.456 205.104C228.592 207.899 224.269 209.117 220.364 209.077C218.537 209.01 216.868 208.628 215.135 208.065C214.781 207.954 214.781 207.954 214.419 207.841C210.559 206.444 207.973 203.396 206.194 199.814C205.521 198.186 205.333 196.742 205.345 194.998C205.346 194.798 205.348 194.599 205.349 194.393C205.412 190.973 206.846 188.215 208.806 185.462C208.642 185.375 208.642 185.375 208.474 185.287C206.826 184.345 205.177 182.927 204.602 181.052C204.201 178.566 204.346 176.269 205.733 174.122C207.666 171.606 210.933 170.583 213.864 171.915Z" fill="#F4A99C"/>
<path d="M258.532 242.874C261.347 245.244 263.25 248.039 264.635 251.463C264.7 251.616 264.764 251.769 264.83 251.927C266.968 257.572 266.559 264.95 264.183 270.45C260.377 278.719 253.346 284.935 244.863 288.172C240.004 289.929 234.989 290.754 229.826 290.567C229.484 289.363 229.42 288.109 229.294 286.869C229.247 286.417 229.2 285.965 229.152 285.513C229.123 285.226 229.093 284.938 229.063 284.642C229.022 284.25 229.022 284.25 228.981 283.849C228.925 283.146 228.912 282.457 228.922 281.752C229.106 281.686 229.289 281.62 229.478 281.552C230.728 281.089 231.839 280.652 232.934 279.887C234.466 278.998 236.136 279.153 237.855 279.127C239.979 279.081 241.653 278.734 243.614 277.909C243.887 277.797 244.16 277.685 244.442 277.57C247.762 276.067 250.013 273.761 251.356 270.365C251.658 269.503 251.802 268.716 251.893 267.808C252.102 266.351 252.776 265.355 253.569 264.151C257.722 257.839 258.29 250.229 258.532 242.874Z" fill="#7D5232"/>
<path d="M184.253 179.755C185.367 180.65 186.204 181.849 186.655 183.202C186.795 184.997 186.329 186.238 185.214 187.624C183.522 189.421 181.155 190.464 178.744 190.887C178.445 190.887 178.147 190.887 177.839 190.887C177.845 191.905 177.862 192.921 177.882 193.939C177.883 194.225 177.884 194.512 177.886 194.807C177.925 196.491 178.03 197.748 179.196 199.024C180.55 200.289 182.386 200.326 184.143 200.302C186.89 200.167 188.586 198.835 190.412 196.918C190.768 196.517 191.112 196.105 191.444 195.684C191.88 195.15 192.07 194.984 192.747 194.902C194.004 194.861 194.704 195.013 195.696 195.86C196.314 196.788 196.308 197.483 196.148 198.572C195.182 201.469 192.181 203.573 189.593 204.901C188.776 205.248 187.955 205.544 187.107 205.805C186.883 205.88 186.659 205.954 186.429 206.031C182.284 206.337 178.953 206.272 175.607 203.625C175.095 203.238 175.095 203.238 174.223 203.319C173.709 203.634 173.709 203.634 173.192 204.053C172.021 204.911 170.854 205.379 169.476 205.805C169.141 205.917 169.141 205.917 168.798 206.031C164.306 206.41 160.602 206.022 157.045 203.093C156.781 202.883 156.781 202.883 156.511 202.67C154.944 201.363 153.331 199.71 153.131 197.597C153.215 196.61 153.486 196.169 154.106 195.408C155.116 194.734 156.087 194.793 157.271 194.956C157.864 195.38 157.864 195.38 158.401 196.086C160.003 198.023 161.849 199.903 164.487 200.204C164.969 200.231 165.447 200.24 165.93 200.239C166.1 200.239 166.27 200.239 166.445 200.239C167.776 200.212 168.784 199.946 169.928 199.25C170.089 199.177 170.25 199.105 170.416 199.03C171.009 198.7 171.08 198.297 171.285 197.668C171.359 197.519 171.434 197.37 171.511 197.216C171.545 196.741 171.567 196.264 171.582 195.787C171.592 195.503 171.601 195.219 171.611 194.927C171.62 194.628 171.629 194.33 171.638 194.023C171.647 193.72 171.657 193.418 171.667 193.115C171.691 192.372 171.714 191.63 171.737 190.887C171.389 190.846 171.389 190.846 171.034 190.803C168.484 190.391 165.955 189.193 164.282 187.186C163.345 185.833 162.94 184.646 163.147 182.976C163.665 181.171 165.085 180.001 166.617 179.019C168.093 178.216 169.643 177.86 171.285 177.551C171.491 177.509 171.697 177.467 171.91 177.424C176.095 176.858 180.696 177.323 184.253 179.755Z" fill="black"/>
<path d="M143.348 134.217C143.819 134.452 144.208 134.728 144.449 135.203C144.707 136 144.686 136.91 144.334 137.675C143.912 138.397 143.346 139.016 142.783 139.633C142.62 139.812 142.46 139.994 142.3 140.176C140.206 142.521 137.429 143.948 134.467 144.955C134.365 144.991 134.262 145.028 134.156 145.066C132.377 145.653 129.647 146.164 127.86 145.429C127.417 145.168 127.232 144.837 127.024 144.388C126.866 143.715 126.818 143.165 127.122 142.531C127.897 141.692 128.817 141.601 129.91 141.434C133.489 140.846 137.014 139.767 139.321 136.84C139.667 136.361 139.969 135.868 140.263 135.356C140.975 134.116 141.947 133.648 143.348 134.217Z" fill="black"/>
<path d="M206.423 134.124C207.245 134.597 207.739 135.257 208.269 136.021C210.203 138.785 213.234 140.543 216.564 141.163C217.206 141.267 217.85 141.366 218.495 141.452C219.43 141.585 220.411 141.741 221.1 142.42C221.436 142.982 221.47 143.502 221.394 144.139C221.208 144.689 220.963 145.169 220.428 145.448C218.934 146.064 216.862 145.748 215.356 145.329C215.257 145.302 215.158 145.274 215.056 145.246C213.488 144.8 211.993 144.247 210.526 143.544C210.402 143.485 210.278 143.427 210.151 143.366C207.608 142.084 204.761 139.543 203.763 136.877C203.651 136.214 203.676 135.625 204.027 135.039C204.602 134.255 205.422 133.699 206.423 134.124Z" fill="black"/>
<path d="M216.929 170.245C219.568 171.764 221.076 173.716 222.2 176.514C222.458 177.477 222.458 177.477 222.517 178.4C222.54 178.598 222.564 178.796 222.588 179C222.771 181.568 221.774 184.332 220.238 186.398C217.697 188.694 215.345 189.543 211.943 189.512C209.441 189.281 207.545 188.03 205.861 186.23C203.736 183.5 203.511 180.472 203.81 177.143C204.39 174.488 205.9 172.435 208.143 170.908C210.996 169.311 213.884 168.873 216.929 170.245Z" fill="black"/>
<path d="M139.389 169.875C142.649 171.391 144.312 173.705 145.53 176.954C146.184 180.073 145.655 182.627 144.097 185.411C142.828 187.28 140.949 188.609 138.775 189.302C135.603 189.866 133.153 189.304 130.482 187.53C128.719 186.031 127.408 183.82 126.978 181.554C126.723 178.014 126.981 175.477 129.287 172.668C132.007 169.762 135.496 168.747 139.389 169.875Z" fill="black"/>
<path d="M190.189 4.01288C190.342 4.00873 190.495 4.00458 190.653 4.0003C192.115 3.98875 193.407 4.30631 194.487 5.33779C195.376 6.40002 195.768 7.73257 195.778 9.10008C195.779 9.2441 195.779 9.2441 195.78 9.39103C195.782 9.70031 195.781 10.0095 195.78 10.3188C195.779 10.425 195.779 10.5312 195.779 10.6406C195.771 12.3011 195.664 13.8833 195.305 15.5066C195.258 15.7284 195.258 15.7284 195.21 15.9547C194.916 17.3353 194.62 18.7167 194.264 20.0829C193.63 22.5303 193.852 24.7669 194.572 27.1703C194.615 27.3153 194.658 27.4604 194.703 27.6099C194.853 28.1082 195.007 28.6054 195.162 29.1023C195.205 29.2378 195.205 29.2378 195.248 29.376C196.335 32.8507 197.628 36.233 198.972 39.6152C199.747 41.5684 200.497 43.5314 201.248 45.4944C201.492 46.1329 201.74 46.77 201.99 47.4062C203.945 52.4107 205.608 57.5426 207.177 62.68C207.326 63.159 207.48 63.6355 207.638 64.1118C208.939 68.0525 210.045 72.0607 211.026 76.093C211.16 76.6413 211.309 77.1833 211.468 77.7248C211.756 78.7011 211.995 79.6882 212.237 80.6765C212.632 82.2773 213.069 83.8606 213.541 85.44C213.773 86.2159 213.987 86.9963 214.196 87.7784C214.398 87.823 214.398 87.823 214.603 87.8684C221.349 89.3915 229.747 91.873 233.767 98.011C233.925 98.2717 234.08 98.534 234.232 98.7981C234.298 98.9127 234.365 99.0272 234.433 99.1453C235.53 101.183 235.912 103.609 235.35 105.876C234.639 108.101 233.568 109.842 231.942 111.535C231.818 111.671 231.693 111.806 231.564 111.945C226.401 117.445 217.726 119.94 210.619 121.696C210.458 121.736 210.298 121.777 210.133 121.818C207.311 122.521 204.47 123.081 201.602 123.557C201.496 123.574 201.389 123.592 201.279 123.611C198.051 124.15 194.818 124.528 191.558 124.818C191.389 124.833 191.221 124.848 191.048 124.863C190.557 124.907 190.066 124.949 189.575 124.99C189.364 125.009 189.364 125.009 189.149 125.027C186.44 125.249 183.73 125.297 181.012 125.298C180.677 125.298 180.341 125.299 180.006 125.299C179.306 125.3 178.607 125.301 177.907 125.3C177.203 125.3 176.498 125.301 175.793 125.303C171.649 125.315 167.526 125.274 163.391 124.988C163.222 124.976 163.052 124.965 162.877 124.953C160.678 124.803 158.506 124.521 156.325 124.203C155.83 124.132 155.334 124.065 154.838 124C145.009 122.685 132.958 120.532 124.751 114.684C124.611 114.584 124.471 114.484 124.327 114.382C121.666 112.435 119.18 109.969 118.025 106.812C117.979 106.694 117.934 106.576 117.887 106.455C117.269 104.503 117.247 101.789 118.168 99.943C118.239 99.7914 118.31 99.6397 118.384 99.4835C118.942 98.3699 119.624 97.4303 120.458 96.5083C120.565 96.3893 120.672 96.2703 120.782 96.1477C122.373 94.473 124.296 93.2835 126.325 92.2149C126.413 92.1676 126.501 92.1203 126.591 92.0715C130.208 90.1278 134.228 88.7611 138.236 87.9003C138.67 87.7671 138.786 87.6988 139.062 87.3491C139.24 86.9114 139.24 86.9114 139.387 86.401C139.416 86.3064 139.445 86.2118 139.475 86.1143C139.568 85.8107 139.66 85.5066 139.751 85.2024C139.811 85.0067 139.87 84.811 139.93 84.6154C140.022 84.3146 140.114 84.0137 140.205 83.7127C140.427 82.984 140.654 82.2572 140.884 81.5312C141.229 80.4452 141.568 79.3577 141.906 78.2695C143.83 72.0697 145.837 65.9071 147.993 59.7837C148.222 59.134 148.449 58.4838 148.674 57.8326C150.915 51.3319 153.558 44.8945 156.522 38.6908C156.667 38.3845 156.813 38.0781 156.958 37.7718C157.381 36.8834 157.809 35.9978 158.239 35.113C158.3 34.9873 158.361 34.8616 158.424 34.732C159.305 32.9135 160.271 31.1516 161.28 29.4006C161.461 29.0813 161.64 28.7612 161.816 28.4389C162.637 26.944 163.548 25.5249 164.501 24.1112C164.654 23.8825 164.807 23.6537 164.961 23.425C168.041 18.8413 171.425 14.1982 175.699 10.6408C175.777 10.5748 175.856 10.5087 175.937 10.4407C179.96 7.05867 184.791 4.06102 190.189 4.01288Z" fill="#AADCE7"/>
<path d="M190.189 4.01288C190.342 4.00873 190.495 4.00458 190.653 4.0003C192.115 3.98875 193.407 4.30631 194.487 5.33779C195.376 6.40002 195.768 7.73257 195.778 9.10008C195.779 9.2441 195.779 9.2441 195.78 9.39103C195.782 9.70031 195.781 10.0095 195.78 10.3188C195.779 10.425 195.779 10.5312 195.779 10.6406C195.771 12.3011 195.664 13.8833 195.305 15.5066C195.258 15.7284 195.258 15.7284 195.21 15.9547C194.916 17.3353 194.62 18.7167 194.264 20.0829C193.63 22.5303 193.852 24.7669 194.572 27.1703C194.615 27.3153 194.658 27.4604 194.703 27.6099C194.853 28.1082 195.007 28.6054 195.162 29.1023C195.205 29.2378 195.205 29.2378 195.248 29.376C196.335 32.8507 197.628 36.233 198.972 39.6152C199.747 41.5684 200.497 43.5314 201.248 45.4944C201.492 46.1329 201.74 46.77 201.99 47.4062C203.945 52.4107 205.608 57.5426 207.177 62.68C207.326 63.159 207.48 63.6355 207.638 64.1118C208.939 68.0525 210.045 72.0607 211.026 76.093C211.16 76.6413 211.309 77.1833 211.468 77.7248C211.756 78.7011 211.995 79.6882 212.237 80.6765C212.632 82.2773 213.069 83.8606 213.541 85.44C213.773 86.2159 213.987 86.9963 214.196 87.7784C214.398 87.823 214.398 87.823 214.603 87.8684C221.349 89.3915 229.747 91.873 233.767 98.011C233.925 98.2717 234.08 98.534 234.232 98.7981C234.298 98.9127 234.365 99.0272 234.433 99.1453C235.53 101.183 235.912 103.609 235.35 105.876C234.639 108.101 233.568 109.842 231.942 111.535C231.818 111.671 231.693 111.806 231.564 111.945C226.401 117.445 217.726 119.94 210.619 121.696C210.458 121.736 210.298 121.777 210.133 121.818C207.311 122.521 204.47 123.081 201.602 123.557C201.496 123.574 201.389 123.592 201.279 123.611C198.051 124.15 194.818 124.528 191.558 124.818C191.389 124.833 191.221 124.848 191.048 124.863C190.557 124.907 190.066 124.949 189.575 124.99C189.364 125.009 189.364 125.009 189.149 125.027C186.44 125.249 183.73 125.297 181.012 125.298C180.677 125.298 180.341 125.299 180.006 125.299C179.306 125.3 178.607 125.301 177.907 125.3C177.203 125.3 176.498 125.301 175.793 125.303C171.649 125.315 167.526 125.274 163.391 124.988C163.222 124.976 163.052 124.965 162.877 124.953C160.678 124.803 158.506 124.521 156.325 124.203C155.83 124.132 155.334 124.065 154.838 124C145.009 122.685 132.958 120.532 124.751 114.684C124.611 114.584 124.471 114.484 124.327 114.382C121.666 112.435 119.18 109.969 118.025 106.812C117.979 106.694 117.934 106.576 117.887 106.455C117.269 104.503 117.247 101.789 118.168 99.943C118.239 99.7914 118.31 99.6397 118.384 99.4835C118.942 98.3699 119.624 97.4303 120.458 96.5083C120.565 96.3893 120.672 96.2703 120.782 96.1477C122.373 94.473 124.296 93.2835 126.325 92.2149C126.413 92.1676 126.501 92.1203 126.591 92.0715C130.208 90.1278 134.228 88.7611 138.236 87.9003C138.67 87.7671 138.786 87.6988 139.062 87.3491C139.24 86.9114 139.24 86.9114 139.387 86.401C139.416 86.3064 139.445 86.2118 139.475 86.1143C139.568 85.8107 139.66 85.5066 139.751 85.2024C139.811 85.0067 139.87 84.811 139.93 84.6154C140.022 84.3146 140.114 84.0137 140.205 83.7127C140.427 82.984 140.654 82.2572 140.884 81.5312C141.229 80.4452 141.568 79.3577 141.906 78.2695C143.83 72.0697 145.837 65.9071 147.993 59.7837C148.222 59.134 148.449 58.4838 148.674 57.8326C150.915 51.3319 153.558 44.8945 156.522 38.6908C156.667 38.3845 156.813 38.0781 156.958 37.7718C157.381 36.8834 157.809 35.9978 158.239 35.113C158.3 34.9873 158.361 34.8616 158.424 34.732C159.305 32.9135 160.271 31.1516 161.28 29.4006C161.461 29.0813 161.64 28.7612 161.816 28.4389C162.637 26.944 163.548 25.5249 164.501 24.1112C164.654 23.8825 164.807 23.6537 164.961 23.425C168.041 18.8413 171.425 14.1982 175.699 10.6408C175.777 10.5748 175.856 10.5087 175.937 10.4407C179.96 7.05867 184.791 4.06102 190.189 4.01288ZM189.608 7.81375C185.823 8.2726 182.476 10.4617 179.563 12.7875C179.431 12.8919 179.299 12.9963 179.162 13.1039C176.325 15.3786 173.888 18.051 171.738 20.9777C171.529 21.2575 171.316 21.5334 171.102 21.8091C163.555 31.6049 158.859 43.0748 154.205 54.4332C154.145 54.5798 154.085 54.7264 154.023 54.8775C153.3 56.6531 152.689 58.4692 152.07 60.2828C151.882 60.8334 151.694 61.3839 151.505 61.9343C151.468 62.0416 151.432 62.1489 151.394 62.2594C151.102 63.1101 150.808 63.9601 150.511 64.8089C150.472 64.9216 150.432 65.0343 150.392 65.1504C150.193 65.7158 149.988 66.2782 149.778 66.8393C149.592 67.3452 149.433 67.8545 149.286 68.373C148.789 70.1204 148.187 71.8309 147.59 73.546C147.041 75.1253 146.521 76.7052 146.076 78.3174C145.863 79.0859 145.627 79.842 145.368 80.596C145.023 81.6079 144.715 82.6274 144.42 83.655C144.101 84.7667 143.768 85.8683 143.39 86.9617C142.857 88.556 142.393 90.1732 141.914 91.7844C141.596 92.8563 141.267 93.9228 140.908 94.9816C140.366 96.4406 140.366 96.4406 140.493 97.9394C141.873 100.363 145.999 101.378 148.505 102.07C149.041 102.218 149.564 102.395 150.091 102.573C151.26 102.952 152.46 103.206 153.66 103.467C153.756 103.488 153.852 103.509 153.95 103.531C156.155 104.009 158.366 104.424 160.601 104.737C160.709 104.752 160.817 104.768 160.928 104.783C162.743 105.036 164.56 105.212 166.388 105.345C166.503 105.354 166.618 105.362 166.737 105.371C167.417 105.42 168.097 105.464 168.777 105.504C168.999 105.517 169.22 105.531 169.441 105.545C171.865 105.699 174.292 105.699 176.72 105.702C177.193 105.703 177.665 105.704 178.138 105.708C181.278 105.729 184.366 105.602 187.491 105.288C188.102 105.229 188.713 105.182 189.325 105.139C191.316 104.996 193.277 104.652 195.243 104.318C195.652 104.25 196.06 104.187 196.471 104.13C198.437 103.852 200.359 103.387 202.286 102.917C202.642 102.831 202.997 102.748 203.354 102.668C206.173 101.996 210.804 100.739 212.479 98.2256C212.66 97.0552 212.336 95.9621 212.007 94.8488C211.891 94.4526 211.781 94.0551 211.671 93.6572C211.301 92.3233 210.927 90.9914 210.529 89.6657C210.236 88.6856 209.985 87.6974 209.741 86.7041C209.357 85.1481 208.918 83.6087 208.474 82.069C208.423 81.894 208.373 81.7189 208.321 81.5385C208.222 81.1942 208.122 80.85 208.022 80.506C207.747 79.5544 207.506 78.6018 207.289 77.6356C207.126 76.9397 206.928 76.2549 206.728 75.5691C206.689 75.4342 206.65 75.2992 206.609 75.1602C206.515 74.8343 206.42 74.5084 206.325 74.1827C205.849 74.3415 205.751 74.4583 205.44 74.8357C204.983 75.3753 204.5 75.8721 203.992 76.3635C203.598 76.7723 203.467 77.0002 203.409 77.5727C203.445 78.9699 203.941 80.3536 204.383 81.6667C204.852 83.0699 205.282 84.3753 204.59 85.7838C204.244 86.3188 203.945 86.5926 203.32 86.7766C202.496 86.8265 201.895 86.7298 201.137 86.392C201.038 86.3499 200.939 86.3077 200.836 86.2643C200.123 85.9569 199.423 85.6242 198.723 85.2891C198.543 85.2034 198.362 85.1177 198.182 85.032C197.824 84.8617 197.468 84.6882 197.112 84.5127C196.946 84.4334 196.78 84.354 196.61 84.2722C196.462 84.1999 196.314 84.1275 196.162 84.053C195.665 83.8916 195.377 83.9243 194.876 84.0575C194.566 84.2261 194.566 84.2261 194.277 84.46C189.894 87.6674 189.894 87.6674 188.15 87.552C187.501 87.4166 187.131 87.0835 186.737 86.5709C186.259 85.0581 186.675 83.3511 186.933 81.8214C187.468 79.6568 187.468 79.6568 187.109 77.6158C186.855 77.3441 186.59 77.1155 186.298 76.884C186.1 76.7137 185.902 76.5432 185.704 76.3725C185.607 76.2918 185.511 76.2111 185.411 76.128C185.068 75.8343 184.752 75.5182 184.438 75.1935C183.478 74.1541 183.478 74.1541 182.282 73.4672C182.13 73.2257 182.13 73.2257 181.996 72.8947C181.943 72.7708 181.89 72.6468 181.835 72.5191C181.617 71.6797 181.572 70.9281 181.916 70.1219C182.418 69.607 182.894 69.4032 183.57 69.1738C183.709 69.1253 183.848 69.0768 183.991 69.0268C185.849 68.4569 187.797 68.3471 189.724 68.172C189.935 67.6693 190.099 67.17 190.242 66.6442C190.285 66.4902 190.327 66.3363 190.371 66.1777C190.458 65.8572 190.545 65.5367 190.632 65.2161C191.73 61.2265 191.73 61.2265 192.917 60.2472C193.538 59.8973 194.189 59.8656 194.876 60.0146C196.534 60.7929 197.429 63.4862 198.192 65.0204C199.01 66.7489 199.01 66.7489 200.458 67.8858C200.869 67.9254 201.27 67.952 201.683 67.9663C201.914 67.9765 202.145 67.9869 202.376 67.9976C202.544 68.0051 202.544 68.0051 202.715 68.0127C203.348 68.0449 203.978 68.1086 204.608 68.172C204.336 67.0352 204.025 65.9207 203.665 64.8089C203.616 64.6568 203.567 64.5047 203.517 64.348C203.359 63.8575 203.201 63.3671 203.043 62.8769C202.933 62.5364 202.823 62.196 202.714 61.8556C202.08 59.8916 201.441 57.9295 200.788 55.9717C200.755 55.8721 200.722 55.7726 200.688 55.67C199.723 52.7754 198.741 49.87 197.547 47.0607C197.232 46.3137 196.947 45.5559 196.664 44.7963C196.235 43.647 195.797 42.5014 195.357 41.3563C195.262 41.1101 195.168 40.8638 195.074 40.6175C194.935 40.2541 194.795 39.8909 194.656 39.5277C194.615 39.4195 194.573 39.3112 194.531 39.1997C194.279 38.5465 194.008 37.9059 193.717 37.2689C193.499 36.7693 193.325 36.2552 193.15 35.7391C192.842 34.8411 192.528 33.9458 192.202 33.0541C191.402 30.8575 190.669 28.6674 190.153 26.3832C190.126 26.2705 190.099 26.1579 190.071 26.0418C189.493 23.4865 189.761 20.7913 190.481 18.3003C191.252 15.5786 191.759 12.9006 191.79 10.0683C191.793 9.8914 191.797 9.71447 191.8 9.53218C191.799 9.28398 191.799 9.28398 191.799 9.03076C191.799 8.88244 191.799 8.73412 191.799 8.5813C191.761 8.19242 191.761 8.19242 191.468 7.94456C190.875 7.62982 190.252 7.75734 189.608 7.81375Z" fill="black"/>
<path d="M215.198 92.215C216.034 92.3078 216.801 92.5201 217.604 92.7695C217.724 92.8062 217.844 92.843 217.967 92.8808C218.21 92.9549 218.452 93.0294 218.694 93.1042C219.069 93.2191 219.446 93.3304 219.822 93.4415C220.647 93.6889 221.426 94.0081 222.21 94.3617C222.33 94.4156 222.45 94.4695 222.574 94.5251C224.363 95.3372 226.079 96.1766 227.648 97.367C227.731 97.429 227.813 97.4909 227.897 97.5547C229.503 98.7852 231.191 100.434 231.512 102.519C231.601 103.866 231.611 105.031 230.94 106.24C230.879 106.359 230.817 106.478 230.754 106.601C229.549 108.72 227.548 110.282 225.502 111.535C225.412 111.59 225.323 111.645 225.231 111.701C223.109 112.984 220.823 114.108 218.492 114.955C218.085 115.104 217.685 115.265 217.285 115.431C213.554 116.965 209.532 117.809 205.609 118.691C205.407 118.736 205.407 118.736 205.201 118.783C205.08 118.81 204.959 118.838 204.834 118.866C204.733 118.888 204.632 118.911 204.528 118.935C203.544 119.144 202.559 119.321 201.564 119.466C201.441 119.484 201.317 119.503 201.19 119.521C200.932 119.56 200.673 119.598 200.414 119.636C200.041 119.691 199.667 119.747 199.293 119.803C196.438 120.232 193.601 120.639 190.717 120.81C190.149 120.847 189.581 120.896 189.013 120.947C187.665 121.06 186.318 121.151 184.965 121.202C184.725 121.211 184.725 121.211 184.479 121.22C182.814 121.279 181.151 121.293 179.485 121.296C179.327 121.296 179.169 121.297 179.005 121.297C178.167 121.299 177.328 121.301 176.489 121.301C175.81 121.302 175.132 121.304 174.454 121.307C170.368 121.326 166.325 121.25 162.256 120.865C161.755 120.818 161.254 120.775 160.753 120.732C158.397 120.526 156.08 120.174 153.75 119.778C153.269 119.699 152.787 119.627 152.305 119.56C144.566 118.471 136.245 116.411 129.33 112.68C129.191 112.609 129.052 112.538 128.909 112.464C127.259 111.604 125.806 110.531 124.464 109.245C124.352 109.142 124.24 109.039 124.125 108.933C122.648 107.533 121.624 105.875 121.52 103.816C121.484 102.083 121.939 100.942 123.078 99.621C123.298 99.3914 123.522 99.1646 123.749 98.9413C123.846 98.8446 123.942 98.7479 124.042 98.6483C127.1 95.7686 131.375 93.9757 135.341 92.7874C135.491 92.742 135.641 92.6967 135.795 92.6499C136.429 92.4669 136.967 92.3356 137.631 92.3581C137.494 93.009 137.348 93.6531 137.16 94.2912C136.605 96.1885 136.212 97.9723 137.117 99.8424C138.48 102.165 141.425 103.599 143.867 104.486C144.323 104.653 144.774 104.83 145.225 105.008C146.184 105.378 147.154 105.678 148.14 105.963C148.379 106.033 148.379 106.033 148.623 106.104C148.946 106.198 149.269 106.292 149.593 106.385C149.918 106.479 150.242 106.575 150.567 106.672C151.841 107.05 153.123 107.336 154.428 107.582C154.54 107.603 154.651 107.624 154.766 107.646C157.77 108.208 160.797 108.575 163.833 108.912C164.225 108.956 164.617 109.003 165.009 109.052C172.549 109.972 180.539 109.973 188.081 109.059C188.697 108.987 189.307 108.941 189.926 108.917C191.691 108.85 193.407 108.545 195.144 108.235C195.307 108.206 195.469 108.177 195.637 108.148C206.916 106.473 206.916 106.473 215.828 100.174C216.74 98.6794 216.442 96.9259 216.049 95.3024C215.869 94.6046 215.681 93.9097 215.484 93.2168C215.454 93.1098 215.423 93.0028 215.392 92.8927C215.328 92.6666 215.263 92.4408 215.198 92.215Z" fill="#AADCE7"/>
<path d="M172.98 33.5384C174.324 34.1217 175.065 35.7437 175.708 36.982C176.49 38.5057 176.49 38.5057 177.559 39.8353C177.976 39.8548 178.39 39.8655 178.807 39.8706C179.067 39.8753 179.327 39.88 179.588 39.8848C179.998 39.8916 180.409 39.8979 180.82 39.9036C181.216 39.9093 181.612 39.9167 182.009 39.9242C182.129 39.9254 182.25 39.9266 182.374 39.9279C183.441 39.9496 184.719 39.9899 185.574 40.694C186.015 41.2068 186.27 41.6565 186.225 42.3499C185.765 44.366 184.135 46.4116 182.716 47.8552C182.377 48.2341 182.377 48.2341 182.237 48.7083C182.269 49.012 182.333 49.2763 182.425 49.567C182.452 49.659 182.48 49.7511 182.508 49.8459C182.6 50.1353 182.703 50.4185 182.81 50.703C182.847 50.8072 182.885 50.9115 182.923 51.019C183.118 51.5589 183.32 52.0947 183.531 52.6283C184.031 53.9148 184.361 55.0369 184.142 56.4364C183.827 57.141 183.407 57.5327 182.711 57.8675C180.453 58.185 177.907 57.1808 175.891 56.2631C175.765 56.2081 175.64 56.1532 175.511 56.0965C175.399 56.0452 175.288 55.9939 175.173 55.9411C174.707 55.8332 174.547 55.9213 174.125 56.1502C173.703 56.4326 173.297 56.733 172.89 57.0357C171.94 57.7328 170.984 58.4018 169.974 59.0124C169.841 59.0934 169.708 59.1744 169.571 59.2578C168.591 59.8506 167.995 60.1435 166.826 60.0142C166.178 59.6963 165.833 59.3805 165.538 58.7262C165.468 58.207 165.47 57.6931 165.475 57.1699C165.476 57.0165 165.476 56.8631 165.477 56.7051C165.51 54.691 165.812 52.7008 166.11 50.7119C166.024 50.6701 165.937 50.6284 165.848 50.5853C164.693 49.9905 163.66 49.0215 162.713 48.1459C162.348 47.8121 161.97 47.4984 161.584 47.1894C161.183 46.7849 161.06 46.38 161.057 45.8192C161.084 44.993 161.173 44.2106 161.771 43.596C162.569 43.0078 163.488 42.7342 164.423 42.4421C165.197 42.1941 165.952 41.9094 166.683 41.5527C166.775 41.5161 166.868 41.4795 166.963 41.4418C167.499 41.1853 167.768 40.9613 168.028 40.4181C168.206 39.8915 168.357 39.3617 168.498 38.8246C170.056 33.239 170.056 33.239 172.98 33.5384Z" fill="black"/>
<path d="M162.408 69.4425C163.398 70.0909 163.747 71.1263 164.026 72.2237C164.086 72.4503 164.147 72.6769 164.207 72.9035C164.253 73.0773 164.253 73.0773 164.299 73.2546C164.454 73.8425 164.616 74.4284 164.777 75.0144C164.806 75.1212 164.835 75.228 164.865 75.338C164.943 75.6216 165.025 75.9039 165.108 76.1861C165.133 76.3079 165.158 76.4297 165.184 76.5552C165.427 76.9548 165.501 76.9756 165.932 77.1052C166.164 77.1614 166.396 77.2143 166.629 77.2645C166.753 77.2939 166.877 77.3233 167.004 77.3536C167.4 77.4474 167.797 77.537 168.194 77.6262C168.588 77.7165 168.981 77.8078 169.374 77.9004C169.618 77.9578 169.863 78.0138 170.108 78.0681C171.065 78.2898 172.034 78.5608 172.768 79.2385C173.185 79.9919 173.114 80.7938 172.98 81.6244C172.731 82.1517 172.397 82.5125 171.978 82.9124C171.874 83.0145 171.77 83.1165 171.663 83.2216C170.906 83.9313 170.092 84.5716 169.271 85.205C169.11 85.3294 168.949 85.4551 168.79 85.5821C168.618 85.7161 168.442 85.844 168.262 85.967C167.732 86.3537 167.732 86.3537 167.46 86.9308C167.437 87.2754 167.446 87.6036 167.47 87.9482C167.474 88.0703 167.478 88.1923 167.482 88.3181C167.51 89.0371 167.574 89.7508 167.65 90.4661C167.702 91.1591 167.718 91.851 167.729 92.5457C167.733 92.6826 167.738 92.8194 167.742 92.9604C167.749 93.7864 167.686 94.2903 167.112 94.9339C166.421 95.3326 165.756 95.5 164.965 95.3632C164.08 95.0262 163.323 94.4647 162.568 93.9053C162.401 93.7826 162.401 93.7826 162.23 93.6574C161.9 93.416 161.572 93.1733 161.244 92.9303C161.066 92.7993 160.888 92.6683 160.71 92.5373C159.496 91.6368 159.496 91.6368 159.098 91.213C158.563 91.4221 158.04 91.6502 157.517 91.8877C157.352 91.9623 157.186 92.037 157.015 92.1138C156.671 92.2694 156.326 92.4256 155.982 92.5823C153.445 93.7225 153.445 93.7225 152.282 93.6727C152.162 93.6688 152.042 93.665 151.918 93.661C151.832 93.656 151.745 93.651 151.656 93.6459C151.656 93.5514 151.656 93.457 151.656 93.3597C151.573 93.3508 151.49 93.3419 151.405 93.3328C150.933 93.1624 150.784 92.9193 150.511 92.501C150.422 92.096 150.382 91.7816 150.377 91.374C150.375 91.2601 150.374 91.1462 150.373 91.0289C150.431 89.4787 151.067 88.0348 151.621 86.6054C152.084 85.4355 152.084 85.4355 152.228 84.2005C152.078 83.9067 152.078 83.9067 151.808 83.7174C151.141 83.1322 150.623 82.469 150.082 81.7675C149.968 81.6229 149.855 81.4783 149.738 81.3293C148.859 80.1903 148.248 79.3486 148.285 77.8644C148.423 77.1864 148.839 76.7563 149.366 76.3293C149.786 76.0832 150.096 76.0058 150.581 75.9974C150.707 75.9946 150.833 75.9917 150.963 75.9888C151.166 75.9863 151.166 75.9863 151.372 75.9838C151.511 75.981 151.65 75.9782 151.793 75.9754C152.236 75.9668 152.679 75.9602 153.123 75.9536C153.423 75.9481 153.724 75.9425 154.025 75.9368C154.762 75.9231 155.499 75.9111 156.235 75.8999C156.28 75.8113 156.324 75.7227 156.369 75.6314C157.069 74.2345 157.804 72.8518 158.57 71.4903C158.655 71.3388 158.74 71.1874 158.828 71.0313C159.665 69.7088 160.768 68.7655 162.408 69.4425Z" fill="black"/>
<path d="M194.161 64.7371C194.695 64.9152 194.765 65.1437 195.013 65.6273C195.092 65.7843 195.092 65.7843 195.172 65.9446C195.285 66.1655 195.399 66.3863 195.513 66.607C195.572 66.7224 195.632 66.8377 195.693 66.9565C196.002 67.5514 196.324 68.1393 196.647 68.7263C196.707 68.836 196.767 68.9456 196.828 69.0586C196.885 69.1611 196.941 69.2636 197 69.3692C197.049 69.4594 197.099 69.5496 197.15 69.6425C197.304 69.9007 197.304 69.9007 197.543 70.1184C197.739 70.3184 197.739 70.3184 197.739 70.6047C197.827 70.6253 197.916 70.646 198.007 70.6673C198.311 70.7478 198.311 70.7478 198.597 70.8909C198.821 70.9191 199.045 70.9402 199.27 70.9574C199.407 70.9684 199.543 70.9794 199.684 70.9908C199.83 71.0021 199.976 71.0134 200.127 71.0251C201.437 71.132 202.735 71.2702 204.036 71.4633C203.804 72.0249 203.418 72.4242 203.007 72.8587C202.864 73.0122 202.721 73.1657 202.579 73.3193C202.509 73.3937 202.44 73.468 202.369 73.5446C200.776 75.1311 200.776 75.1311 200.145 77.161C200.143 77.3095 200.141 77.458 200.139 77.611C200.173 78.0625 200.281 78.3484 200.458 78.7621C200.555 79.1313 200.647 79.4998 200.735 79.8712C200.892 80.5206 201.054 81.1561 201.281 81.7853C201.452 82.2693 201.499 82.6808 201.46 83.1986C200.861 82.9691 200.285 82.6993 199.709 82.4198C199.563 82.3495 199.563 82.3495 199.414 82.2777C199.21 82.1791 199.006 82.0803 198.802 81.9815C198.489 81.8297 198.176 81.6785 197.862 81.5273C197.664 81.4313 197.465 81.3353 197.267 81.2392C197.126 81.1712 197.126 81.1712 196.982 81.1018C196.324 80.7821 196.324 80.7821 196.164 80.6226C195.124 80.4608 194.471 80.7675 193.624 81.3381C193.513 81.4091 193.403 81.4801 193.289 81.5532C193.065 81.697 192.841 81.842 192.619 81.9881C192.162 82.2877 191.7 82.5785 191.236 82.8676C191.091 82.9597 190.947 83.0517 190.798 83.1466C190.44 83.3417 190.44 83.3417 190.011 83.3417C190.031 82.8616 190.052 82.3816 190.073 81.9016C190.079 81.7667 190.084 81.6317 190.09 81.4927C190.123 80.764 190.185 80.0561 190.297 79.3345C190.511 77.799 190.511 77.799 189.999 76.3834C189.571 75.8441 189.077 75.3728 188.579 74.8981C188.248 74.5709 187.918 74.2423 187.588 73.9133C187.369 73.6957 187.148 73.4798 186.925 73.266C186.773 73.1189 186.773 73.1189 186.618 72.9688C186.527 72.8819 186.436 72.795 186.343 72.7054C186.146 72.4651 186.146 72.4651 186.146 72.0358C186.543 71.9035 186.843 71.8604 187.256 71.8312C187.39 71.8207 187.525 71.8102 187.663 71.7993C187.942 71.7784 188.221 71.7582 188.5 71.739C189.789 71.6355 190.952 71.4471 191.946 70.575C192.411 70.0092 192.638 69.3503 192.837 68.6548C193.23 67.3325 193.699 66.0366 194.161 64.7371Z" fill="#F8E482"/>
<path d="M172.264 38.2615C172.722 38.4536 172.927 38.6186 173.165 39.0525C173.222 39.1534 173.279 39.2543 173.338 39.3582C173.397 39.4656 173.456 39.573 173.516 39.6837C174.562 41.6317 174.562 41.6317 176.128 43.1273C176.591 43.2053 177.045 43.194 177.513 43.1832C177.645 43.1824 177.778 43.1816 177.914 43.1808C178.336 43.1776 178.757 43.1704 179.178 43.1631C179.465 43.1602 179.751 43.1576 180.037 43.1553C180.738 43.149 181.438 43.1391 182.139 43.1273C181.932 43.5502 181.706 43.9247 181.432 44.308C180.961 44.974 180.493 45.6413 180.028 46.3116C179.96 46.4079 179.893 46.5042 179.823 46.6035C179.194 47.5133 178.689 48.2793 178.847 49.4243C179.111 50.7172 179.517 51.8311 180.098 53.0166C180.331 53.5518 180.399 53.9965 180.422 54.5763C179.736 54.4868 179.123 54.2905 178.481 54.0435C178.273 53.9657 178.065 53.8879 177.858 53.8102C177.534 53.688 177.21 53.5653 176.886 53.4417C176.572 53.3219 176.256 53.2041 175.941 53.0865C175.845 53.0494 175.75 53.0122 175.652 52.974C174.896 52.6946 174.209 52.5594 173.45 52.8796C173.325 52.9584 173.199 53.0372 173.069 53.1183C172.923 53.2082 172.778 53.298 172.627 53.3906C172.247 53.6348 171.868 53.8823 171.489 54.1296C171.326 54.2358 171.326 54.2358 171.16 54.3441C170.945 54.4851 170.73 54.6271 170.516 54.7702C170.417 54.8357 170.318 54.9012 170.216 54.9687C170.128 55.0276 170.04 55.0864 169.949 55.147C169.673 55.3001 169.424 55.3725 169.116 55.435C169.1 54.5805 169.119 53.7379 169.187 52.8858C169.455 50.8302 169.455 50.8302 168.791 48.9636C168.396 48.5574 167.96 48.2146 167.511 47.8701C167.073 47.5337 166.646 47.1897 166.227 46.8303C166.092 46.7178 165.957 46.6053 165.818 46.4893C165.538 46.1327 165.538 46.1327 165.566 45.6597C165.604 45.5324 165.642 45.4051 165.681 45.274C165.819 45.2376 165.958 45.2013 166.1 45.1639C166.585 45.0361 167.069 44.9063 167.553 44.7755C167.788 44.7122 168.023 44.65 168.259 44.5881C169.316 44.2949 170.036 43.8909 170.69 42.9842C170.861 42.5927 170.861 42.5927 170.981 42.1719C171.029 42.018 171.077 41.864 171.126 41.7054C171.198 41.4662 171.198 41.4662 171.271 41.2221C171.368 40.9066 171.465 40.5911 171.563 40.2757C171.631 40.0525 171.631 40.0525 171.701 39.8247C171.87 39.2953 172.062 38.7789 172.264 38.2615Z" fill="#F8E482"/>
<path d="M160.958 73.8965C161.053 73.8965 161.147 73.8965 161.245 73.8965C161.406 74.418 161.567 74.9399 161.728 75.4618C161.773 75.608 161.818 75.7542 161.865 75.9048C162.067 76.5617 162.256 77.206 162.381 77.8818C162.516 78.5227 162.776 78.8959 163.186 79.4063C163.301 79.5524 163.416 79.6985 163.535 79.8491C163.974 80.3789 164.113 80.3669 164.809 80.4344C164.983 80.452 165.158 80.4696 165.338 80.4878C165.705 80.5237 166.073 80.5594 166.44 80.5951C167.4 80.6922 168.323 80.817 169.259 81.0521C169.069 81.6206 168.707 81.7972 168.23 82.1165C167.35 82.7215 166.54 83.3801 165.745 84.0918C165.137 84.6299 165.137 84.6299 164.822 84.6299C164.25 85.9137 164.345 87.1981 164.366 88.5745C164.368 88.8168 164.37 89.0591 164.372 89.3015C164.377 89.891 164.384 90.4805 164.393 91.07C163.717 90.9612 163.321 90.6934 162.801 90.265C160.921 88.7535 160.921 88.7535 158.62 88.291C157.269 88.4452 155.958 89.0312 154.769 89.6731C154.518 89.782 154.518 89.782 154.089 89.782C154.169 89.4508 154.249 89.1199 154.33 88.7891C154.368 88.6355 154.368 88.6355 154.406 88.4788C154.569 87.825 154.754 87.1829 154.958 86.5409C155.488 85.028 155.488 85.028 155.377 83.485C154.958 82.7998 154.419 82.2042 153.889 81.6037C153.543 81.2041 153.225 80.7864 152.908 80.3634C152.804 80.2267 152.7 80.09 152.593 79.9491C152.372 79.621 152.372 79.621 152.372 79.3348C152.467 79.3312 152.563 79.3276 152.662 79.3239C153.105 79.3071 153.548 79.2896 153.991 79.2721C154.141 79.2665 154.292 79.2609 154.447 79.2551C156.435 79.2785 156.435 79.2785 158.239 78.6192C158.389 78.3851 158.532 78.1458 158.669 77.9036C158.744 77.7758 158.819 77.6479 158.897 77.5162C159.158 77.07 159.419 76.6237 159.679 76.1773C159.77 76.0215 159.862 75.8658 159.956 75.7052C160.043 75.5553 160.131 75.4055 160.221 75.251C160.301 75.1147 160.38 74.9783 160.463 74.8379C160.639 74.528 160.803 74.2171 160.958 73.8965Z" fill="#F8E482"/>
</svg>
