<svg width="350" height="350" viewBox="0 0 350 350" fill="none" xmlns="http://www.w3.org/2000/svg">
<path d="M191.311 106.002C191.501 106.035 191.691 106.068 191.888 106.102C199.34 107.416 206.675 109.757 213.706 112.525C213.849 112.394 213.849 112.394 213.994 112.261C214.791 111.551 215.503 111.02 216.506 110.623C216.814 110.497 216.814 110.497 217.129 110.368C218.886 109.787 220.514 109.621 222.363 109.631C222.721 109.633 222.721 109.633 223.087 109.634C236.622 109.832 249.228 117.33 258.465 126.801C259.237 127.609 259.95 128.457 260.642 129.334C261.139 129.961 261.659 130.564 262.18 131.17C269.363 139.788 274.37 151.684 273.5 162.97C273.088 166.751 271.262 170.528 268.37 173.023C265 175.595 261.134 176.716 256.921 176.695C256.751 176.696 256.581 176.697 256.406 176.698C255.064 176.696 253.743 176.589 252.409 176.451C252.463 176.603 252.517 176.756 252.572 176.914C253.742 180.275 254.804 183.602 255.453 187.105C255.489 187.284 255.524 187.464 255.56 187.649C256.731 193.825 256.578 200.762 255.236 206.891C255.175 207.18 255.175 207.18 255.113 207.475C254.234 211.555 252.856 215.392 250.887 219.067C250.786 219.271 250.684 219.474 250.579 219.684C248.153 224.423 244.408 228.639 240.233 231.896C240.055 232.035 240.055 232.035 239.874 232.177C235.863 235.292 231.302 237.754 226.535 239.506C226.672 239.601 226.81 239.697 226.951 239.795C230.711 242.46 234.173 245.62 236.972 249.29C237.065 249.412 237.158 249.533 237.254 249.658C239.185 252.18 240.805 254.829 242.312 257.621C242.388 257.76 242.463 257.899 242.541 258.043C243.06 259.022 243.06 259.022 243.06 259.51C243.203 259.51 243.347 259.51 243.495 259.51C243.532 259.253 243.532 259.253 243.57 258.992C243.68 258.385 243.807 257.799 243.956 257.201C244.002 257.015 244.049 256.829 244.096 256.637C244.191 256.259 244.288 255.882 244.385 255.504C245.244 252.029 245.282 248.671 245.176 245.119C245.16 244.55 245.151 243.982 245.143 243.413C245.133 243.157 245.133 243.157 245.122 242.897C245.11 241.596 245.5 240.731 246.321 239.723C247.465 238.831 248.849 238.918 250.235 239.071C253.152 239.774 255.329 241.575 257.41 243.637C257.602 243.826 257.793 244.015 257.99 244.209C260.831 247.164 262.394 250.758 263.458 254.672C263.503 254.836 263.548 255.001 263.594 255.17C264.667 259.352 264.701 264.715 263.498 268.859C263.421 269.157 263.343 269.454 263.267 269.751C261.817 275.175 258.936 280.241 254.801 284.08C254.622 284.259 254.442 284.438 254.258 284.623C254.078 284.803 253.899 284.982 253.714 285.167C253.606 285.279 253.498 285.392 253.386 285.508C252.494 286.424 251.562 287.221 250.534 287.98C250.382 288.092 250.23 288.205 250.074 288.321C244.387 292.486 237.838 295.008 230.884 296.039C230.543 296.1 230.543 296.1 230.195 296.163C228.979 296.299 227.771 296.279 226.548 296.27C226.296 296.269 226.044 296.268 225.784 296.267C225.164 296.264 224.545 296.26 223.926 296.256C223.941 296.443 223.956 296.631 223.971 296.824C224.141 299.104 224.186 301.375 224.195 303.661C224.196 303.853 224.197 304.045 224.198 304.243C224.202 305.256 224.205 306.269 224.207 307.283C224.21 308.318 224.217 309.353 224.226 310.389C224.232 311.196 224.233 312.003 224.234 312.81C224.235 313.191 224.238 313.573 224.242 313.954C224.284 318.2 223.565 321.926 220.534 325.113C217.807 327.703 214.467 328.613 210.88 329.306C210.717 329.344 210.555 329.382 210.388 329.422C209.628 329.551 208.88 329.563 208.112 329.567C207.869 329.57 207.869 329.57 207.622 329.572C201.566 329.616 195.605 329.38 190.898 325.014C187.914 321.802 187.101 317.241 187.18 312.998C186.924 313.061 186.668 313.124 186.405 313.189C183.101 313.92 179.694 314.116 176.32 314.13C176.059 314.131 175.799 314.133 175.531 314.134C174.694 314.138 173.856 314.139 173.019 314.14C172.734 314.14 172.448 314.141 172.154 314.141C167.631 314.143 163.187 313.97 158.696 313.433C158.356 313.393 158.015 313.354 157.675 313.314C156.783 313.21 155.891 313.104 155 312.998C155.002 313.232 155.004 313.465 155.007 313.705C154.972 317.765 153.543 321.942 150.739 324.896C146.621 328.8 140.964 329.573 135.539 329.578C135.374 329.578 135.209 329.578 135.039 329.578C129.918 329.571 124.791 328.724 120.925 325.062C117.929 321.814 117.532 317.844 117.543 313.629C117.543 313.268 117.542 312.906 117.542 312.544C117.54 311.584 117.542 310.624 117.545 309.664C117.547 309.069 117.548 308.473 117.549 307.878C117.558 302.183 117.614 296.502 118.036 290.82C118.049 290.647 118.061 290.474 118.074 290.295C118.343 286.618 118.675 282.955 119.123 279.296C118.886 279.378 118.648 279.459 118.403 279.543C118.261 279.591 118.12 279.639 117.973 279.689C117.68 279.79 117.387 279.891 117.094 279.992C116.9 280.058 116.9 280.058 116.703 280.124C116.573 280.169 116.443 280.213 116.309 280.259C112.949 281.194 108.431 281.068 105.207 279.731C105.014 279.666 104.821 279.6 104.622 279.533C101.728 278.512 99.1819 276.349 97.8148 273.602C96.234 270.277 96.1584 265.978 97.2967 262.472C97.3959 262.212 97.4951 261.952 97.5973 261.684C97.6849 261.449 97.6849 261.449 97.7742 261.209C99.1487 257.561 101.035 254.29 103.468 251.247C103.617 251.057 103.765 250.867 103.918 250.671C106.612 247.287 109.684 244.34 113.008 241.585C113.163 241.457 113.318 241.328 113.478 241.195C114.142 240.651 114.802 240.127 115.524 239.661C116.097 239.343 116.097 239.343 116.297 238.854C116.141 238.827 115.985 238.8 115.824 238.772C110.295 237.549 104.631 233.846 100.424 230.156C100.237 229.993 100.05 229.83 99.8574 229.662C99.315 229.181 98.7806 228.693 98.2496 228.2C98.105 228.067 97.9604 227.934 97.8114 227.797C90.3486 220.668 86.285 209.577 86.0104 199.398C85.9931 198.435 85.9897 197.472 85.9919 196.509C85.992 196.305 85.9921 196.101 85.9922 195.891C86.0097 189.306 86.7772 182.001 89.7697 176.016C89.499 176.086 89.2282 176.156 88.9493 176.228C84.5937 177.19 80.0774 176.355 76.2682 174.108C72.6253 171.761 70.51 167.937 69.5417 163.797C67.443 153.833 71.7557 142.845 77.0882 134.599C77.6037 133.825 78.1357 133.065 78.6807 132.312C78.7728 132.184 78.8648 132.057 78.9597 131.925C81.813 128.017 85.1012 124.439 88.9 121.44C89.2898 121.114 89.6793 120.788 90.0687 120.462C92.353 118.598 94.8206 117.024 97.3799 115.569C97.5363 115.48 97.6927 115.392 97.8538 115.3C101.891 113.032 106.152 111.462 110.643 110.351C110.798 110.312 110.952 110.273 111.111 110.233C113.434 109.674 115.768 109.638 118.145 109.631C118.295 109.63 118.446 109.629 118.601 109.628C122.066 109.619 125.76 110.135 128.473 112.525C128.473 112.669 128.473 112.812 128.473 112.96C128.683 112.865 128.893 112.77 129.109 112.671C136.613 109.352 144.537 107.176 152.608 105.785C152.814 105.749 153.02 105.713 153.232 105.676C165.655 103.595 178.922 103.865 191.311 106.002Z" fill="#F2D3A3"/>
<path d="M191.311 106.002C191.501 106.035 191.691 106.068 191.888 106.102C199.34 107.416 206.675 109.757 213.706 112.525C213.849 112.394 213.849 112.394 213.994 112.261C214.791 111.551 215.503 111.02 216.506 110.623C216.814 110.497 216.814 110.497 217.129 110.368C218.886 109.787 220.514 109.621 222.363 109.631C222.721 109.633 222.721 109.633 223.087 109.634C236.622 109.832 249.228 117.33 258.465 126.801C259.237 127.609 259.95 128.457 260.642 129.334C261.139 129.961 261.659 130.564 262.18 131.17C269.363 139.788 274.37 151.684 273.5 162.97C273.088 166.751 271.262 170.528 268.37 173.023C265 175.595 261.134 176.716 256.921 176.695C256.751 176.696 256.581 176.697 256.406 176.698C255.064 176.696 253.743 176.589 252.409 176.451C252.463 176.603 252.517 176.756 252.572 176.914C253.742 180.275 254.804 183.602 255.453 187.105C255.489 187.284 255.524 187.464 255.56 187.649C256.731 193.825 256.578 200.762 255.236 206.891C255.175 207.18 255.175 207.18 255.113 207.475C254.234 211.555 252.856 215.392 250.887 219.067C250.786 219.271 250.684 219.474 250.579 219.684C248.153 224.423 244.408 228.639 240.233 231.896C240.055 232.035 240.055 232.035 239.874 232.177C235.863 235.292 231.302 237.754 226.535 239.506C226.672 239.601 226.81 239.697 226.951 239.795C230.711 242.46 234.173 245.62 236.972 249.29C237.065 249.412 237.158 249.533 237.254 249.658C239.185 252.18 240.805 254.829 242.312 257.621C242.388 257.76 242.463 257.899 242.541 258.043C243.06 259.022 243.06 259.022 243.06 259.51C243.203 259.51 243.347 259.51 243.495 259.51C243.532 259.253 243.532 259.253 243.57 258.992C243.68 258.385 243.807 257.799 243.956 257.201C244.002 257.015 244.049 256.829 244.096 256.637C244.191 256.259 244.288 255.882 244.385 255.504C245.244 252.029 245.282 248.671 245.176 245.119C245.16 244.55 245.151 243.982 245.143 243.413C245.133 243.157 245.133 243.157 245.122 242.897C245.11 241.596 245.5 240.731 246.321 239.723C247.465 238.831 248.849 238.918 250.235 239.071C253.152 239.774 255.329 241.575 257.41 243.637C257.602 243.826 257.793 244.015 257.99 244.209C260.831 247.164 262.394 250.758 263.458 254.672C263.503 254.836 263.548 255.001 263.594 255.17C264.667 259.352 264.701 264.715 263.498 268.859C263.421 269.157 263.343 269.454 263.267 269.751C261.817 275.175 258.936 280.241 254.801 284.08C254.622 284.259 254.442 284.438 254.258 284.623C254.078 284.803 253.899 284.982 253.714 285.167C253.606 285.279 253.498 285.392 253.386 285.508C252.494 286.424 251.562 287.221 250.534 287.98C250.382 288.092 250.23 288.205 250.074 288.321C244.387 292.486 237.838 295.008 230.884 296.039C230.543 296.1 230.543 296.1 230.195 296.163C228.979 296.299 227.771 296.279 226.548 296.27C226.296 296.269 226.044 296.268 225.784 296.267C225.164 296.264 224.545 296.26 223.926 296.256C223.941 296.443 223.956 296.631 223.971 296.824C224.141 299.104 224.186 301.375 224.195 303.661C224.196 303.853 224.197 304.045 224.198 304.243C224.202 305.256 224.205 306.269 224.207 307.283C224.21 308.318 224.217 309.353 224.226 310.389C224.232 311.196 224.233 312.003 224.234 312.81C224.235 313.191 224.238 313.573 224.242 313.954C224.284 318.2 223.565 321.926 220.534 325.113C217.807 327.703 214.467 328.613 210.88 329.306C210.717 329.344 210.555 329.382 210.388 329.422C209.628 329.551 208.88 329.563 208.112 329.567C207.869 329.57 207.869 329.57 207.622 329.572C201.566 329.616 195.605 329.38 190.898 325.014C187.914 321.802 187.101 317.241 187.18 312.998C186.924 313.061 186.668 313.124 186.405 313.189C183.101 313.92 179.694 314.116 176.32 314.13C176.059 314.131 175.799 314.133 175.531 314.134C174.694 314.138 173.856 314.139 173.019 314.14C172.734 314.14 172.448 314.141 172.154 314.141C167.631 314.143 163.187 313.97 158.696 313.433C158.356 313.393 158.015 313.354 157.675 313.314C156.783 313.21 155.891 313.104 155 312.998C155.002 313.232 155.004 313.465 155.007 313.705C154.972 317.765 153.543 321.942 150.739 324.896C146.621 328.8 140.964 329.573 135.539 329.578C135.374 329.578 135.209 329.578 135.039 329.578C129.918 329.571 124.791 328.724 120.925 325.062C117.929 321.814 117.532 317.844 117.543 313.629C117.543 313.268 117.542 312.906 117.542 312.544C117.54 311.584 117.542 310.624 117.545 309.664C117.547 309.069 117.548 308.473 117.549 307.878C117.558 302.183 117.614 296.502 118.036 290.82C118.049 290.647 118.061 290.474 118.074 290.295C118.343 286.618 118.675 282.955 119.123 279.296C118.886 279.378 118.648 279.459 118.403 279.543C118.261 279.591 118.12 279.639 117.973 279.689C117.68 279.79 117.387 279.891 117.094 279.992C116.9 280.058 116.9 280.058 116.703 280.124C116.573 280.169 116.443 280.213 116.309 280.259C112.949 281.194 108.431 281.068 105.207 279.731C105.014 279.666 104.821 279.6 104.622 279.533C101.728 278.512 99.1819 276.349 97.8148 273.602C96.234 270.277 96.1584 265.978 97.2967 262.472C97.3959 262.212 97.4951 261.952 97.5973 261.684C97.6849 261.449 97.6849 261.449 97.7742 261.209C99.1487 257.561 101.035 254.29 103.468 251.247C103.617 251.057 103.765 250.867 103.918 250.671C106.612 247.287 109.684 244.34 113.008 241.585C113.163 241.457 113.318 241.328 113.478 241.195C114.142 240.651 114.802 240.127 115.524 239.661C116.097 239.343 116.097 239.343 116.297 238.854C116.141 238.827 115.985 238.8 115.824 238.772C110.295 237.549 104.631 233.846 100.424 230.156C100.237 229.993 100.05 229.83 99.8574 229.662C99.315 229.181 98.7806 228.693 98.2496 228.2C98.105 228.067 97.9604 227.934 97.8114 227.797C90.3486 220.668 86.285 209.577 86.0104 199.398C85.9931 198.435 85.9897 197.472 85.9919 196.509C85.992 196.305 85.9921 196.101 85.9922 195.891C86.0097 189.306 86.7772 182.001 89.7697 176.016C89.499 176.086 89.2282 176.156 88.9493 176.228C84.5937 177.19 80.0774 176.355 76.2682 174.108C72.6253 171.761 70.51 167.937 69.5417 163.797C67.443 153.833 71.7557 142.845 77.0882 134.599C77.6037 133.825 78.1357 133.065 78.6807 132.312C78.7728 132.184 78.8648 132.057 78.9597 131.925C81.813 128.017 85.1012 124.439 88.9 121.44C89.2898 121.114 89.6793 120.788 90.0687 120.462C92.353 118.598 94.8206 117.024 97.3799 115.569C97.5363 115.48 97.6927 115.392 97.8538 115.3C101.891 113.032 106.152 111.462 110.643 110.351C110.798 110.312 110.952 110.273 111.111 110.233C113.434 109.674 115.768 109.638 118.145 109.631C118.295 109.63 118.446 109.629 118.601 109.628C122.066 109.619 125.76 110.135 128.473 112.525C128.473 112.669 128.473 112.812 128.473 112.96C128.683 112.865 128.893 112.77 129.109 112.671C136.613 109.352 144.537 107.176 152.608 105.785C152.814 105.749 153.02 105.713 153.232 105.676C165.655 103.595 178.922 103.865 191.311 106.002ZM156.087 110.786C155.742 110.827 155.742 110.827 155.391 110.868C148.005 111.748 140.848 113.555 133.909 116.222C133.71 116.297 133.512 116.372 133.308 116.45C132.803 116.644 132.302 116.845 131.802 117.051C131.537 117.16 131.271 117.269 130.998 117.381C130.395 117.688 130.395 117.688 130.233 118.246C130.21 118.898 130.225 119.538 130.253 120.19C130.321 124.041 129.377 127.994 128.255 131.659C128.19 131.873 128.125 132.086 128.058 132.306C124.797 142.799 120.049 153.689 112.429 161.803C112.016 162.244 111.628 162.695 111.241 163.16C107.96 166.896 103.069 171.224 98.3006 172.836C97.1513 173.235 96.4869 173.521 95.8426 174.584C95.4776 175.413 95.208 176.266 94.9531 177.134C94.754 177.812 94.5395 178.484 94.3239 179.157C93.448 181.944 92.7053 184.737 92.2506 187.626C92.1872 188.029 92.1183 188.431 92.0456 188.832C91.6808 191.016 91.653 193.173 91.658 195.383C91.6587 196.012 91.6536 196.641 91.6481 197.271C91.6354 200.958 91.9279 204.68 92.9633 208.236C93.0184 208.431 93.0735 208.626 93.1303 208.827C95.943 218.396 102.306 225.981 111.008 230.756C115.749 233.291 120.717 235.187 126.021 236.133C126.214 236.168 126.407 236.203 126.607 236.239C126.782 236.268 126.957 236.298 127.137 236.329C127.857 236.535 128.234 236.976 128.69 237.549C128.762 237.621 128.834 237.693 128.908 237.767C129.001 238.567 128.928 239.026 128.595 239.764C127.842 240.591 127.145 240.762 126.081 241.028C117.124 243.321 109.865 250.962 105.189 258.68C103.107 262.199 101.426 265.865 102.023 270.054C102.479 271.773 103.729 273.123 105.21 274.055C108.444 275.723 112.448 276.029 115.943 274.934C117.546 274.296 119.278 273.446 120.428 272.121C120.608 271.679 120.608 271.679 120.717 271.178C120.764 270.987 120.812 270.797 120.86 270.6C120.909 270.394 120.958 270.187 121.009 269.975C121.089 269.651 121.089 269.651 121.17 269.321C121.342 268.629 121.51 267.936 121.678 267.242C122.313 264.621 122.952 262.014 123.829 259.461C123.889 259.284 123.949 259.106 124.01 258.923C124.391 257.856 124.792 256.784 125.864 256.248C126.752 256.137 127.651 256.048 128.463 256.468C129.037 256.933 129.326 257.285 129.56 257.988C129.616 259.058 129.491 259.927 129.185 260.951C129.104 261.23 129.023 261.508 128.941 261.786C128.898 261.931 128.855 262.076 128.811 262.225C127.754 265.783 126.878 269.366 126.081 272.991C126.016 273.281 126.016 273.281 125.95 273.577C124.628 279.519 123.965 285.585 123.509 291.647C123.48 292.016 123.45 292.384 123.42 292.752C123.281 294.467 123.191 296.179 123.135 297.899C123.126 298.177 123.117 298.456 123.108 298.743C123.01 301.937 122.989 305.131 122.985 308.326C122.983 309.172 122.978 310.019 122.972 310.865C122.968 311.531 122.967 312.197 122.967 312.863C122.966 313.175 122.964 313.487 122.961 313.799C122.938 316.529 123.122 319.131 124.994 321.261C127.678 323.792 131.346 324.202 134.874 324.16C135.336 324.155 135.797 324.156 136.259 324.157C140.126 324.149 144.302 323.696 147.172 320.826C149.13 318.255 149.468 315.235 149.577 312.115C149.594 311.666 149.611 311.217 149.633 310.767C149.652 310.365 149.667 309.963 149.681 309.561C149.79 308.804 149.977 308.388 150.433 307.78C152.333 306.514 156.198 307.54 158.383 307.766C162.928 308.235 167.429 308.473 171.999 308.472C172.677 308.473 173.355 308.477 174.033 308.481C178.241 308.493 182.378 308.133 186.541 307.535C187.091 307.457 187.642 307.379 188.193 307.303C188.427 307.269 188.662 307.235 188.904 307.201C190.649 307.01 190.649 307.01 191.583 307.495C192.235 308.043 192.373 308.285 192.615 309.084C192.671 309.795 192.671 309.795 192.675 310.598C192.679 310.897 192.684 311.195 192.688 311.494C192.693 311.957 192.697 312.42 192.698 312.883C192.713 316.121 193.066 319.262 195.442 321.696C198.129 323.926 201.835 324.131 205.172 324.14C205.64 324.142 206.108 324.148 206.576 324.155C210.233 324.183 213.961 323.777 216.707 321.151C218.238 319.414 218.757 317.271 218.77 315C218.772 314.839 218.773 314.679 218.775 314.514C218.779 313.985 218.78 313.456 218.78 312.927C218.782 312.551 218.784 312.175 218.786 311.799C218.791 310.586 218.79 309.373 218.789 308.16C218.789 307.954 218.789 307.748 218.789 307.535C218.787 300.693 218.588 293.93 217.838 287.124C217.789 286.673 217.741 286.221 217.693 285.77C216.748 277.037 215.433 268.084 212.619 259.727C212.486 258.967 212.451 258.292 212.832 257.602C213.323 256.983 213.814 256.473 214.576 256.248C215.366 256.176 215.937 256.188 216.682 256.466C217.83 257.458 218.218 259.029 218.577 260.457C218.621 260.626 218.666 260.794 218.711 260.968C218.804 261.326 218.896 261.684 218.988 262.042C219.13 262.601 219.276 263.158 219.422 263.715C219.881 265.478 220.312 267.241 220.681 269.025C221.131 271.226 221.131 271.226 222.574 272.898C222.733 273 222.892 273.103 223.056 273.208C223.22 273.326 223.383 273.444 223.552 273.566C226.428 275.485 229.928 275.892 233.285 275.231C235.659 274.615 237.761 273.554 239.146 271.469C240.241 269.412 239.983 267.054 239.363 264.891C236.566 255.83 229.343 247.604 221.131 243.013C219.3 242.049 217.443 241.622 215.402 241.36C214.567 241.203 214.119 240.936 213.489 240.376C213.138 239.674 213.145 238.96 213.271 238.201C214.157 236.966 215.272 236.786 216.711 236.534C216.855 236.512 216.998 236.49 217.146 236.467C219.232 236.144 221.185 235.584 223.178 234.899C223.334 234.846 223.491 234.793 223.652 234.739C225.947 233.961 228.125 233.102 230.231 231.896C230.526 231.737 230.821 231.58 231.117 231.423C239.632 226.849 246.043 218.973 248.83 209.727C249.101 208.786 249.351 207.842 249.583 206.891C249.619 206.756 249.655 206.621 249.693 206.481C250.491 203.289 250.541 199.943 250.534 196.672C250.534 196.381 250.534 196.381 250.534 196.085C250.526 192.802 250.279 189.67 249.583 186.452C249.546 186.271 249.508 186.089 249.47 185.902C248.735 182.383 247.515 178.967 246.321 175.581C246.27 175.416 246.219 175.25 246.166 175.08C245.897 174.297 245.659 174.053 244.951 173.598C244.662 173.467 244.371 173.34 244.079 173.216C243.762 173.07 243.446 172.922 243.13 172.773C242.892 172.661 242.892 172.661 242.65 172.547C240.132 171.302 237.867 169.478 235.667 167.753C235.546 167.659 235.426 167.564 235.301 167.467C232.005 164.851 229.001 161.814 226.535 158.404C226.429 158.259 226.323 158.115 226.214 157.966C218.463 147.371 210.886 131.626 211.749 118.179C199.913 111.698 185.453 109.992 172.154 110.049C171.267 110.052 170.381 110.05 169.494 110.046C164.984 110.03 160.567 110.248 156.087 110.786Z" fill="black"/>
<path d="M239.702 119.538C246.272 122.898 252.714 127.95 257.193 133.834C257.308 133.984 257.422 134.133 257.54 134.288C259.242 136.52 260.837 138.769 262.194 141.227C262.294 141.406 262.394 141.585 262.498 141.77C265.685 147.506 267.932 153.362 267.956 159.98C267.958 160.403 267.958 160.403 267.96 160.835C267.919 163.916 267.219 166.536 265.091 168.817C262.269 171.378 258.594 171.436 254.993 171.276C246.412 170.673 238.355 163.953 232.918 157.78C232.2 156.929 231.533 156.046 230.884 155.142C230.785 155.005 230.685 154.867 230.583 154.725C227.012 149.727 224.167 144.365 221.998 138.617C221.766 138.003 221.529 137.392 221.291 136.78C219.667 132.534 218.384 128.099 217.62 123.615C217.576 123.402 217.532 123.19 217.487 122.972C217.23 121.667 217.136 120.389 217.117 119.062C217.114 118.905 217.11 118.748 217.106 118.586C217.107 117.611 217.235 116.994 217.838 116.222C223.277 112.142 234.447 116.966 239.702 119.538Z" fill="#7D5232"/>
<path d="M117.954 115.08C118.365 115.078 118.365 115.078 118.783 115.075C122.798 115.083 122.798 115.083 124.342 116.439C124.789 117.467 124.853 118.445 124.844 119.551C124.843 119.808 124.843 119.808 124.841 120.071C124.691 127.79 121.292 136.033 118.056 142.894C117.819 143.4 117.589 143.908 117.361 144.418C113.746 152.391 108.348 159.685 101.294 164.926C101.081 165.089 100.868 165.252 100.648 165.419C97.3133 167.859 93.5316 169.7 89.5524 170.797C89.3562 170.854 89.16 170.912 88.9578 170.97C86.5126 171.578 83.6385 171.491 81.2899 170.58C81.0166 170.476 81.0166 170.476 80.7378 170.371C78.1663 169.248 76.4494 167.055 75.4192 164.492C74.8432 162.688 74.6611 160.997 74.6854 159.11C74.6882 158.739 74.6882 158.739 74.6911 158.361C74.7249 156.413 74.9496 154.639 75.4192 152.75C75.4772 152.479 75.5353 152.207 75.595 151.927C77.1183 144.984 80.7681 138.456 85.2037 132.964C85.4139 132.687 85.4139 132.687 85.6284 132.405C88.2673 129.008 91.479 126.084 94.9882 123.614C95.1201 123.52 95.2521 123.425 95.3881 123.327C100.45 119.709 106.293 116.914 112.383 115.569C112.558 115.529 112.732 115.489 112.912 115.448C114.596 115.099 116.24 115.069 117.954 115.08Z" fill="#7D5232"/>
<path d="M176.743 250.813C176.94 250.889 177.138 250.964 177.342 251.043C182.268 253.202 185.229 258.462 187.18 263.206C188.142 265.684 188.677 268.206 189.136 270.816C189.175 271.02 189.213 271.223 189.252 271.432C189.84 275.412 189.619 279.859 188.267 283.645C188.181 283.895 188.095 284.145 188.006 284.402C186.441 288.499 183.475 291.674 179.518 293.522C174.29 295.81 167.575 295.564 162.333 293.531C158.278 291.868 155.447 289.165 153.553 285.225C150.63 278.14 151.877 269.907 154.741 263.016C155.931 260.266 157.321 257.607 159.348 255.379C159.442 255.274 159.536 255.17 159.633 255.063C164.149 250.106 170.467 248.278 176.743 250.813Z" fill="#FFBB4D"/>
<path d="M184.062 248.717C186.737 250.976 188.716 253.638 190.441 256.683C190.512 256.808 190.583 256.933 190.657 257.062C192.841 260.966 194.104 265.326 194.79 269.729C194.827 269.968 194.827 269.968 194.866 270.212C195.954 277.376 194.951 285.239 190.709 291.281C186.598 296.579 181.427 299.095 174.93 300.305C167.319 301.092 159.77 299.573 153.705 294.773C149.412 291.261 147.075 286.058 146.52 280.601C146.441 279.383 146.435 278.165 146.438 276.945C146.438 276.78 146.438 276.615 146.439 276.444C146.453 271.861 147.182 267.537 148.694 263.206C148.743 263.065 148.791 262.923 148.841 262.778C150.464 258.16 152.958 254.146 156.304 250.595C156.426 250.462 156.548 250.328 156.674 250.191C163.962 242.497 175.979 242.078 184.062 248.717ZM161.305 253.422C161.1 253.607 160.894 253.792 160.683 253.983C156.84 257.572 154.731 262.366 153.26 267.337C153.194 267.557 153.127 267.776 153.059 268.002C151.427 273.909 151.216 280.785 154.083 286.356C156.571 290.59 160.032 292.878 164.647 294.322C166.684 294.824 168.654 295.025 170.75 295.006C170.989 295.004 171.227 295.002 171.473 295.001C176.491 294.934 180.989 293.617 184.57 289.95C187.084 287.297 188.242 284.091 189.04 280.589C189.103 280.314 189.174 280.04 189.254 279.77C190.804 272.402 188.111 263.81 184.353 257.553C183.818 256.782 183.237 256.079 182.614 255.379C182.41 255.129 182.41 255.129 182.202 254.874C179.969 252.196 176.733 250.261 173.264 249.725C168.788 249.321 164.688 250.364 161.305 253.422Z" fill="black"/>
<path d="M251.322 245.377C254.03 247.656 255.86 250.345 257.193 253.639C257.255 253.786 257.317 253.933 257.381 254.085C259.437 259.515 259.043 266.612 256.758 271.903C253.096 279.857 246.333 285.837 238.173 288.952C233.499 290.641 228.674 291.435 223.708 291.255C223.379 290.097 223.317 288.891 223.196 287.697C223.151 287.263 223.106 286.828 223.06 286.393C223.031 286.117 223.003 285.841 222.974 285.556C222.935 285.178 222.935 285.178 222.895 284.793C222.841 284.117 222.828 283.453 222.839 282.775C223.015 282.712 223.191 282.648 223.373 282.583C224.576 282.138 225.644 281.717 226.698 280.981C228.172 280.127 229.778 280.275 231.431 280.25C233.474 280.206 235.085 279.872 236.972 279.079C237.234 278.971 237.497 278.864 237.767 278.753C240.961 277.307 243.127 275.089 244.419 271.822C244.709 270.992 244.848 270.235 244.935 269.362C245.136 267.96 245.785 267.002 246.548 265.844C250.543 259.772 251.089 252.452 251.322 245.377Z" fill="#7D5232"/>
<path d="M179.868 184.659C180.94 185.519 181.745 186.672 182.179 187.974C182.314 189.701 181.865 190.895 180.793 192.228C179.165 193.956 176.888 194.96 174.569 195.367C174.282 195.367 173.995 195.367 173.699 195.367C173.704 196.346 173.721 197.324 173.74 198.302C173.741 198.578 173.742 198.854 173.743 199.138C173.781 200.758 173.883 201.967 175.003 203.195C176.306 204.411 178.072 204.447 179.763 204.424C182.405 204.293 184.036 203.013 185.794 201.169C186.135 200.783 186.466 200.387 186.786 199.982C187.205 199.467 187.388 199.308 188.039 199.229C189.248 199.19 189.921 199.336 190.876 200.151C191.471 201.043 191.464 201.712 191.311 202.76C190.382 205.547 187.495 207.57 185.005 208.848C184.219 209.182 183.429 209.466 182.614 209.718C182.398 209.789 182.183 209.861 181.961 209.935C177.974 210.229 174.77 210.166 171.551 207.621C171.059 207.248 171.059 207.248 170.22 207.326C169.725 207.629 169.725 207.629 169.228 208.033C168.102 208.858 166.979 209.307 165.654 209.718C165.331 209.825 165.331 209.825 165.002 209.935C160.68 210.3 157.117 209.926 153.695 207.108C153.441 206.907 153.441 206.907 153.182 206.702C151.674 205.444 150.122 203.855 149.931 201.822C150.011 200.872 150.272 200.448 150.868 199.716C151.84 199.068 152.774 199.124 153.912 199.281C154.483 199.689 154.483 199.689 155 200.368C156.541 202.232 158.317 204.04 160.854 204.33C161.318 204.356 161.778 204.364 162.243 204.363C162.406 204.363 162.569 204.363 162.738 204.363C164.018 204.337 164.987 204.081 166.089 203.412C166.243 203.342 166.398 203.272 166.558 203.2C167.128 202.883 167.197 202.495 167.393 201.89C167.465 201.747 167.537 201.603 167.611 201.455C167.644 200.998 167.665 200.539 167.679 200.081C167.689 199.808 167.698 199.534 167.707 199.253C167.716 198.966 167.724 198.679 167.733 198.384C167.742 198.093 167.752 197.801 167.761 197.51C167.785 196.796 167.807 196.081 167.828 195.367C167.493 195.327 167.493 195.327 167.152 195.286C164.699 194.89 162.267 193.737 160.657 191.807C159.756 190.505 159.366 189.363 159.566 187.757C160.064 186.02 161.43 184.895 162.904 183.95C164.323 183.178 165.814 182.835 167.393 182.539C167.592 182.498 167.79 182.458 167.995 182.416C172.021 181.872 176.446 182.319 179.868 184.659Z" fill="black"/>
<path d="M129.113 177.021C129.27 177.017 129.27 177.017 129.431 177.012C130.085 177.095 130.488 177.51 130.932 177.964C131.029 178.063 131.127 178.162 131.227 178.263C131.422 178.465 131.616 178.666 131.81 178.869C134.071 181.001 137.144 181.587 140.16 181.516C142.957 181.404 145.746 180.32 147.65 178.268C147.779 178.125 147.907 177.982 148.034 177.837C148.447 177.366 148.719 177.093 149.347 177.011C150.103 177 150.695 177.022 151.269 177.547C151.705 178.026 151.931 178.492 151.976 179.139C151.898 180.438 150.818 181.53 149.9 182.37C148.112 183.898 146.057 184.821 143.806 185.462C143.674 185.501 143.674 185.501 143.54 185.541C139.598 186.688 135.029 186.011 131.444 184.11C129.897 183.252 127.579 181.652 127.014 179.897C126.907 179.01 126.966 178.389 127.511 177.671C128.026 177.196 128.417 177.034 129.113 177.021Z" fill="black"/>
<path d="M190.476 177.011C190.591 177.006 190.706 177.001 190.825 176.996C191.615 177.126 192.085 177.775 192.579 178.432C194.326 180.662 197.001 181.851 199.6 182.105C202.656 182.285 205.885 181.679 208.245 179.308C208.638 178.883 209.006 178.445 209.358 177.976C209.731 177.482 210.022 177.114 210.614 177.012C211.324 176.967 211.902 177.116 212.467 177.616C212.922 178.177 213.178 178.678 213.294 179.431C213.177 180.893 212.203 182.104 211.263 183.014C207.636 186.375 203.099 187.636 198.466 187.111C197.758 186.995 197.071 186.814 196.383 186.594C196.259 186.556 196.259 186.556 196.133 186.517C193.283 185.615 190.336 183.66 188.665 180.834C188.353 180.2 188.198 179.6 188.341 178.879C188.763 177.805 189.41 177.043 190.476 177.011Z" fill="black"/>
<path d="M216.163 133.836C216.317 133.835 216.317 133.835 216.475 133.833C216.587 133.833 216.7 133.833 216.816 133.833C216.936 133.832 217.056 133.831 217.176 133.83C217.502 133.828 217.828 133.827 218.154 133.826C218.357 133.825 218.561 133.825 218.765 133.824C219.403 133.822 220.041 133.82 220.679 133.819C221.414 133.818 222.15 133.816 222.885 133.811C223.454 133.807 224.023 133.805 224.592 133.805C224.932 133.805 225.272 133.804 225.611 133.801C225.931 133.798 226.251 133.798 226.57 133.799C226.743 133.799 226.915 133.797 227.088 133.794C227.677 133.8 228.056 133.843 228.505 134.242C229.185 134.942 229.27 135.538 229.275 136.486C229.276 136.59 229.277 136.695 229.278 136.803C229.28 137.025 229.281 137.246 229.281 137.468C229.282 137.805 229.288 138.141 229.294 138.478C229.295 138.694 229.296 138.91 229.296 139.126C229.299 139.225 229.301 139.325 229.303 139.428C229.297 140.169 229.083 140.618 228.632 141.199C228.572 141.277 228.572 141.277 228.511 141.356C228.405 141.486 228.294 141.612 228.184 141.738C228.102 141.832 228.021 141.926 227.939 142.02C227.898 142.068 227.857 142.115 227.815 142.164C227.572 142.451 227.343 142.749 227.112 143.045C226.869 143.357 226.624 143.666 226.376 143.974C225.631 144.898 224.92 145.847 224.226 146.81C224.191 146.859 224.155 146.908 224.119 146.958C223.951 147.193 223.807 147.425 223.682 147.685C223.758 147.682 223.834 147.68 223.912 147.677C224.591 147.654 225.27 147.633 225.95 147.615C226.319 147.605 226.688 147.593 227.057 147.579C227.212 147.575 227.367 147.571 227.522 147.568C227.59 147.564 227.658 147.561 227.728 147.558C228.256 147.55 228.629 147.726 229.058 148.026C229.423 148.401 229.591 148.779 229.594 149.301C229.595 149.383 229.595 149.464 229.596 149.548C229.596 149.679 229.596 149.679 229.596 149.812C229.596 149.903 229.597 149.993 229.597 150.087C229.598 150.278 229.598 150.47 229.597 150.661C229.597 150.953 229.599 151.244 229.601 151.536C229.601 151.722 229.601 151.909 229.601 152.095C229.602 152.182 229.603 152.268 229.604 152.357C229.6 152.933 229.554 153.457 229.171 153.917C229.121 153.955 229.072 153.993 229.021 154.032C228.972 154.072 228.923 154.111 228.872 154.152C228.527 154.385 228.287 154.448 227.866 154.45C227.71 154.451 227.71 154.451 227.55 154.452C227.435 154.452 227.319 154.452 227.204 154.452C227.082 154.452 226.961 154.453 226.839 154.453C226.508 154.455 226.178 154.455 225.848 154.455C225.641 154.456 225.434 154.456 225.228 154.456C224.507 154.458 223.785 154.459 223.064 154.459C222.393 154.458 221.721 154.46 221.05 154.463C220.473 154.465 219.896 154.466 219.318 154.466C218.974 154.466 218.63 154.466 218.285 154.468C217.961 154.47 217.637 154.47 217.313 154.469C217.194 154.468 217.076 154.469 216.957 154.47C216.213 154.476 215.62 154.461 215.061 153.918C215.004 153.835 215.004 153.835 214.945 153.749C214.906 153.694 214.867 153.639 214.826 153.582C214.629 153.245 214.53 152.951 214.523 152.56C214.521 152.439 214.521 152.439 214.518 152.316C214.517 152.23 214.517 152.144 214.516 152.056C214.514 151.921 214.514 151.921 214.513 151.784C214.511 151.594 214.51 151.404 214.51 151.214C214.508 150.926 214.503 150.638 214.497 150.35C214.479 148.563 214.479 148.563 215.063 147.77C215.112 147.699 215.16 147.628 215.211 147.555C215.365 147.339 215.527 147.13 215.692 146.922C215.813 146.766 215.935 146.61 216.056 146.454C216.117 146.376 216.179 146.297 216.243 146.216C216.54 145.835 216.834 145.451 217.127 145.066C217.183 144.992 217.24 144.918 217.299 144.841C217.71 144.301 218.109 143.751 218.504 143.198C218.857 142.706 219.229 142.231 219.612 141.762C219.834 141.495 219.834 141.495 220.012 141.199C219.965 141.199 219.918 141.199 219.869 141.199C219.373 141.197 218.878 141.193 218.382 141.186C218.197 141.184 218.013 141.183 217.828 141.183C217.562 141.182 217.295 141.178 217.029 141.174C216.947 141.175 216.866 141.175 216.782 141.175C216.13 141.161 215.532 140.997 215.067 140.515C214.555 139.881 214.524 139.263 214.522 138.474C214.521 138.376 214.521 138.278 214.52 138.176C214.519 137.969 214.519 137.762 214.519 137.554C214.519 137.238 214.516 136.921 214.512 136.605C214.512 136.403 214.511 136.201 214.511 135.999C214.51 135.905 214.509 135.811 214.508 135.714C214.511 135.161 214.562 134.821 214.892 134.372C215.3 133.995 215.608 133.839 216.163 133.836Z" fill="black"/>
<path d="M226.925 136.25C227.136 139.354 227.136 139.354 226.439 140.154C226.289 140.316 226.135 140.469 225.973 140.62C225.701 140.884 225.474 141.185 225.239 141.482C225.147 141.596 225.054 141.709 224.961 141.823C224.606 142.259 224.272 142.71 223.938 143.162C223.224 144.12 222.507 145.077 221.763 146.012C220.591 147.376 220.591 147.376 220.183 149.051C220.281 149.434 220.457 149.598 220.78 149.819C221.08 149.919 221.321 149.918 221.637 149.922C221.698 149.923 221.759 149.923 221.822 149.924C222.022 149.927 222.223 149.929 222.424 149.931C222.563 149.933 222.703 149.935 222.842 149.937C223.209 149.941 223.575 149.946 223.942 149.95C224.316 149.954 224.69 149.959 225.064 149.963C225.798 149.973 226.532 149.981 227.266 149.99C227.266 150.665 227.266 151.341 227.266 152.038C223.802 152.038 220.338 152.038 216.769 152.038C216.769 148.925 216.769 148.925 217.635 148.012C217.691 147.958 217.747 147.903 217.804 147.848C218.055 147.593 218.257 147.308 218.466 147.019C218.549 146.906 218.632 146.794 218.716 146.683C218.76 146.625 218.803 146.567 218.848 146.507C219.116 146.15 219.389 145.795 219.66 145.44C220.153 144.794 220.639 144.144 221.12 143.489C221.443 143.049 221.769 142.612 222.098 142.176C223.039 141.089 223.039 141.089 223.426 139.791C223.364 139.382 223.212 139.179 222.914 138.895C222.627 138.8 222.406 138.796 222.104 138.793C222.048 138.792 221.992 138.791 221.935 138.79C221.751 138.787 221.566 138.785 221.382 138.783C221.254 138.781 221.126 138.78 220.999 138.778C220.662 138.773 220.326 138.769 219.99 138.765C219.646 138.76 219.303 138.756 218.96 138.751C218.287 138.742 217.613 138.733 216.94 138.725C216.94 137.936 216.94 137.148 216.94 136.335C217.724 136.32 218.508 136.306 219.292 136.293C219.351 136.292 219.41 136.291 219.471 136.289C221.955 136.247 224.44 136.24 226.925 136.25Z" fill="#AADCE7"/>
<path d="M234.419 127.204C234.623 127.202 234.623 127.202 234.83 127.2C234.979 127.2 235.128 127.199 235.281 127.199C235.439 127.198 235.597 127.197 235.756 127.196C236.186 127.193 236.615 127.191 237.045 127.19C237.314 127.19 237.583 127.189 237.852 127.188C238.694 127.185 239.535 127.183 240.377 127.182C241.347 127.181 242.318 127.177 243.288 127.17C244.039 127.165 244.79 127.163 245.541 127.163C245.989 127.163 246.437 127.161 246.885 127.157C247.307 127.153 247.728 127.153 248.15 127.155C248.378 127.155 248.606 127.152 248.833 127.149C249.611 127.156 250.11 127.214 250.703 127.739C251.6 128.663 251.712 129.45 251.719 130.7C251.72 130.838 251.722 130.976 251.723 131.119C251.725 131.411 251.726 131.703 251.727 131.996C251.728 132.44 251.736 132.884 251.744 133.328C251.745 133.613 251.746 133.898 251.747 134.183C251.75 134.314 251.753 134.446 251.756 134.582C251.748 135.559 251.466 136.152 250.87 136.919C250.791 137.021 250.791 137.021 250.71 137.126C250.571 137.297 250.425 137.464 250.279 137.629C250.171 137.753 250.064 137.878 249.956 138.002C249.902 138.065 249.848 138.127 249.793 138.191C249.472 138.57 249.17 138.963 248.865 139.354C248.545 139.766 248.221 140.173 247.894 140.579C246.91 141.798 245.972 143.05 245.057 144.322C245.011 144.386 244.964 144.451 244.916 144.517C244.695 144.827 244.505 145.133 244.339 145.476C244.44 145.473 244.54 145.469 244.643 145.466C245.539 145.436 246.435 145.408 247.331 145.384C247.818 145.37 248.305 145.354 248.793 145.336C248.997 145.331 249.202 145.326 249.406 145.321C249.496 145.317 249.586 145.313 249.678 145.308C250.374 145.298 250.866 145.529 251.433 145.926C251.914 146.42 252.136 146.919 252.139 147.608C252.14 147.716 252.141 147.823 252.143 147.934C252.142 148.107 252.142 148.107 252.142 148.282C252.143 148.402 252.143 148.521 252.144 148.645C252.144 148.897 252.144 149.15 252.144 149.402C252.144 149.787 252.146 150.172 252.149 150.557C252.149 150.802 252.149 151.048 252.149 151.294C252.15 151.409 252.151 151.523 252.152 151.641C252.148 152.4 252.086 153.091 251.581 153.698C251.516 153.748 251.451 153.798 251.384 153.85C251.319 153.902 251.254 153.954 251.187 154.008C250.731 154.315 250.415 154.399 249.86 154.401C249.653 154.402 249.653 154.402 249.443 154.404C249.291 154.404 249.138 154.404 248.986 154.404C248.826 154.404 248.665 154.405 248.505 154.406C248.069 154.408 247.633 154.408 247.197 154.409C246.924 154.409 246.651 154.409 246.379 154.41C245.427 154.412 244.476 154.413 243.524 154.413C242.638 154.413 241.752 154.415 240.866 154.418C240.105 154.421 239.344 154.423 238.582 154.422C238.128 154.422 237.673 154.423 237.219 154.425C236.791 154.428 236.364 154.428 235.936 154.426C235.779 154.426 235.623 154.426 235.466 154.428C234.485 154.436 233.703 154.416 232.965 153.699C232.889 153.589 232.889 153.589 232.812 153.477C232.76 153.404 232.708 153.331 232.655 153.256C232.395 152.811 232.264 152.424 232.255 151.908C232.252 151.749 232.252 151.749 232.249 151.587C232.248 151.473 232.247 151.359 232.246 151.242C232.244 151.065 232.244 151.065 232.242 150.883C232.24 150.633 232.238 150.382 232.238 150.131C232.235 149.752 232.228 149.372 232.221 148.992C232.197 146.635 232.197 146.635 232.967 145.589C233.032 145.495 233.096 145.401 233.163 145.304C233.366 145.019 233.58 144.744 233.798 144.47C233.958 144.264 234.118 144.058 234.277 143.852C234.359 143.748 234.44 143.644 234.524 143.537C234.917 143.035 235.304 142.528 235.691 142.021C235.765 141.923 235.84 141.825 235.917 141.724C236.461 141.011 236.987 140.286 237.507 139.556C237.973 138.907 238.464 138.28 238.969 137.661C239.262 137.309 239.262 137.309 239.498 136.919C239.435 136.919 239.373 136.918 239.309 136.918C238.655 136.916 238.001 136.91 237.347 136.901C237.103 136.899 236.86 136.897 236.616 136.897C236.264 136.896 235.913 136.891 235.561 136.886C235.454 136.886 235.346 136.887 235.236 136.887C234.375 136.869 233.587 136.652 232.973 136.016C232.297 135.179 232.256 134.364 232.254 133.323C232.253 133.193 232.252 133.064 232.252 132.93C232.25 132.657 232.25 132.383 232.25 132.109C232.249 131.692 232.245 131.274 232.241 130.857C232.24 130.59 232.24 130.324 232.24 130.058C232.238 129.933 232.237 129.809 232.235 129.681C232.239 128.952 232.306 128.503 232.742 127.911C233.28 127.413 233.686 127.208 234.419 127.204Z" fill="black"/>
<path d="M248.618 130.388C248.896 134.483 248.896 134.483 247.978 135.539C247.779 135.752 247.576 135.955 247.363 136.153C247.003 136.502 246.704 136.899 246.394 137.291C246.272 137.441 246.15 137.591 246.027 137.74C245.559 138.316 245.118 138.911 244.677 139.508C243.735 140.772 242.79 142.034 241.807 143.267C240.261 145.067 240.261 145.067 239.723 147.277C239.852 147.782 240.085 147.999 240.511 148.29C240.907 148.422 241.224 148.421 241.642 148.426C241.722 148.427 241.802 148.428 241.885 148.429C242.15 148.433 242.415 148.436 242.68 148.438C242.864 148.441 243.048 148.443 243.231 148.446C243.715 148.452 244.199 148.457 244.682 148.463C245.176 148.468 245.67 148.475 246.163 148.481C247.132 148.493 248.1 148.504 249.068 148.515C249.068 149.407 249.068 150.299 249.068 151.218C244.498 151.218 239.928 151.218 235.219 151.218C235.219 147.111 235.219 147.111 236.362 145.906C236.435 145.835 236.509 145.763 236.585 145.689C236.915 145.354 237.183 144.978 237.457 144.596C237.567 144.448 237.677 144.3 237.788 144.152C237.845 144.076 237.902 143.999 237.961 143.921C238.316 143.449 238.675 142.981 239.033 142.513C239.684 141.661 240.325 140.804 240.959 139.939C241.385 139.358 241.816 138.781 242.249 138.206C243.492 136.772 243.492 136.772 244.002 135.06C243.919 134.52 243.719 134.252 243.326 133.878C242.948 133.752 242.656 133.748 242.257 133.742C242.184 133.741 242.11 133.74 242.034 133.739C241.791 133.735 241.548 133.733 241.305 133.73C241.136 133.728 240.968 133.725 240.799 133.723C240.355 133.717 239.912 133.711 239.468 133.706C239.015 133.7 238.562 133.694 238.11 133.687C237.221 133.675 236.333 133.664 235.444 133.653C235.444 132.613 235.444 131.572 235.444 130.5C236.479 130.481 237.513 130.462 238.548 130.444C238.625 130.443 238.703 130.441 238.783 130.44C242.062 130.384 245.339 130.374 248.618 130.388Z" fill="#AADCE7"/>
<path d="M258.045 119.099C258.317 119.097 258.317 119.097 258.594 119.094C258.792 119.094 258.99 119.093 259.194 119.093C259.405 119.092 259.616 119.09 259.828 119.088C260.401 119.084 260.974 119.083 261.547 119.081C261.906 119.08 262.264 119.079 262.622 119.078C263.745 119.074 264.867 119.071 265.989 119.07C267.283 119.068 268.577 119.063 269.871 119.054C270.872 119.048 271.873 119.045 272.874 119.044C273.472 119.044 274.069 119.042 274.667 119.037C275.229 119.032 275.791 119.031 276.354 119.034C276.657 119.034 276.961 119.03 277.264 119.026C278.301 119.035 278.967 119.112 279.757 119.813C280.954 121.045 281.102 122.094 281.112 123.76C281.114 123.945 281.115 124.129 281.117 124.319C281.12 124.709 281.122 125.099 281.122 125.488C281.125 126.081 281.135 126.673 281.145 127.265C281.147 127.645 281.148 128.025 281.149 128.405C281.153 128.58 281.157 128.755 281.161 128.936C281.151 130.239 280.774 131.03 279.98 132.052C279.874 132.189 279.874 132.189 279.767 132.328C279.581 132.557 279.387 132.779 279.192 133C279.048 133.165 278.905 133.331 278.762 133.497C278.69 133.58 278.618 133.663 278.544 133.749C278.117 134.254 277.713 134.778 277.307 135.3C276.88 135.848 276.448 136.392 276.012 136.933C274.7 138.559 273.45 140.228 272.23 141.923C272.167 142.009 272.105 142.095 272.041 142.183C271.746 142.597 271.493 143.005 271.272 143.462C271.406 143.457 271.54 143.453 271.677 143.448C272.872 143.408 274.067 143.371 275.262 143.339C275.911 143.321 276.561 143.3 277.21 143.275C277.483 143.268 277.755 143.262 278.028 143.255C278.148 143.25 278.267 143.244 278.391 143.238C279.319 143.225 279.975 143.533 280.73 144.062C281.373 144.721 281.667 145.386 281.672 146.305C281.674 146.448 281.675 146.592 281.677 146.739C281.677 146.969 281.677 146.969 281.676 147.204C281.677 147.363 281.678 147.523 281.678 147.687C281.679 148.024 281.679 148.36 281.679 148.697C281.678 149.21 281.682 149.723 281.685 150.236C281.686 150.564 281.686 150.892 281.686 151.22C281.687 151.372 281.689 151.525 281.69 151.681C281.683 152.693 281.602 153.615 280.928 154.425C280.841 154.492 280.754 154.559 280.665 154.628C280.578 154.697 280.492 154.766 280.403 154.838C279.795 155.248 279.373 155.36 278.633 155.362C278.358 155.364 278.358 155.364 278.077 155.366C277.874 155.366 277.671 155.366 277.468 155.366C277.254 155.366 277.04 155.367 276.826 155.369C276.245 155.371 275.663 155.372 275.082 155.372C274.719 155.372 274.355 155.373 273.992 155.374C272.723 155.377 271.454 155.378 270.186 155.378C269.004 155.377 267.823 155.381 266.642 155.385C265.627 155.389 264.611 155.391 263.596 155.391C262.99 155.391 262.385 155.391 261.779 155.395C261.208 155.397 260.638 155.397 260.068 155.395C259.859 155.395 259.651 155.396 259.442 155.398C258.134 155.408 257.091 155.383 256.106 154.426C256.006 154.28 256.006 154.28 255.903 154.13C255.834 154.033 255.765 153.936 255.693 153.835C255.346 153.242 255.172 152.726 255.161 152.038C255.156 151.826 255.156 151.826 255.152 151.609C255.15 151.458 255.149 151.307 255.148 151.151C255.145 150.914 255.145 150.914 255.143 150.672C255.14 150.338 255.138 150.003 255.137 149.669C255.134 149.163 255.125 148.657 255.115 148.15C255.083 145.007 255.083 145.007 256.11 143.612C256.196 143.487 256.282 143.362 256.37 143.233C256.642 142.853 256.926 142.486 257.217 142.12C257.43 141.846 257.643 141.571 257.857 141.297C257.965 141.158 258.074 141.02 258.185 140.877C258.709 140.207 259.225 139.531 259.741 138.855C259.841 138.724 259.94 138.594 260.043 138.46C260.767 137.508 261.469 136.542 262.163 135.568C262.785 134.703 263.439 133.867 264.113 133.042C264.503 132.573 264.503 132.573 264.817 132.052C264.734 132.052 264.651 132.052 264.565 132.052C263.693 132.049 262.821 132.04 261.949 132.029C261.624 132.026 261.3 132.024 260.975 132.023C260.506 132.021 260.037 132.015 259.568 132.008C259.425 132.009 259.282 132.009 259.134 132.01C257.987 131.986 256.936 131.696 256.117 130.848C255.216 129.733 255.161 128.646 255.158 127.258C255.157 127.085 255.156 126.912 255.155 126.734C255.154 126.37 255.153 126.005 255.153 125.64C255.153 125.083 255.147 124.526 255.141 123.97C255.141 123.615 255.14 123.26 255.14 122.904C255.138 122.739 255.135 122.573 255.133 122.402C255.139 121.429 255.228 120.832 255.809 120.042C256.527 119.378 257.068 119.105 258.045 119.099Z" fill="black"/>
<path d="M276.977 123.345C277.348 128.806 277.348 128.806 276.123 130.213C275.859 130.497 275.588 130.768 275.304 131.032C274.824 131.497 274.425 132.026 274.012 132.549C273.849 132.749 273.686 132.949 273.522 133.148C272.898 133.916 272.31 134.709 271.723 135.505C270.466 137.19 269.206 138.873 267.896 140.517C265.834 142.918 265.834 142.918 265.117 145.864C265.289 146.537 265.599 146.826 266.168 147.215C266.695 147.391 267.119 147.389 267.676 147.396C267.783 147.397 267.889 147.399 268 147.4C268.353 147.405 268.706 147.409 269.06 147.413C269.305 147.416 269.55 147.419 269.795 147.422C270.44 147.43 271.085 147.438 271.73 147.445C272.388 147.452 273.046 147.461 273.704 147.469C274.995 147.485 276.286 147.5 277.578 147.515C277.578 148.704 277.578 149.893 277.578 151.118C271.484 151.118 265.39 151.118 259.112 151.118C259.112 145.642 259.112 145.642 260.636 144.036C260.734 143.941 260.832 143.845 260.933 143.747C261.374 143.299 261.73 142.798 262.096 142.289C262.242 142.091 262.389 141.894 262.537 141.698C262.613 141.596 262.689 141.494 262.768 141.389C263.241 140.76 263.72 140.136 264.198 139.512C265.065 138.376 265.92 137.233 266.765 136.08C267.333 135.306 267.907 134.536 268.486 133.769C270.142 131.858 270.142 131.858 270.822 129.575C270.712 128.854 270.445 128.498 269.921 127.999C269.417 127.831 269.028 127.825 268.496 127.818C268.398 127.816 268.3 127.815 268.199 127.813C267.875 127.808 267.551 127.805 267.227 127.801C267.002 127.798 266.777 127.795 266.552 127.792C265.96 127.783 265.369 127.776 264.777 127.769C264.173 127.761 263.57 127.753 262.966 127.744C261.781 127.728 260.597 127.713 259.412 127.698C259.412 126.311 259.412 124.924 259.412 123.495C260.792 123.469 262.171 123.444 263.55 123.42C263.654 123.418 263.757 123.416 263.864 123.414C268.235 123.34 272.605 123.327 276.977 123.345Z" fill="#AADCE7"/>
<ellipse cx="126.969" cy="199.16" rx="14.7766" ry="13.0716" fill="#F4A99C"/>
<ellipse cx="213.355" cy="199.16" rx="14.7766" ry="13.0716" fill="#F4A99C"/>
<path d="M182.168 19.0124C182.316 19.0084 182.463 19.0044 182.614 19.0003C184.021 18.9892 185.264 19.2947 186.303 20.2869C187.158 21.3087 187.535 22.5906 187.544 23.9061C187.546 24.0446 187.546 24.0446 187.547 24.1859C187.548 24.4834 187.548 24.7809 187.546 25.0784C187.546 25.1806 187.545 25.2827 187.545 25.388C187.538 26.9853 187.435 28.5073 187.09 30.0688C187.045 30.2822 187.045 30.2822 186.998 30.4999C186.715 31.8279 186.431 33.1568 186.088 34.471C185.478 36.8253 185.692 38.9768 186.385 41.2888C186.426 41.4283 186.468 41.5679 186.51 41.7117C186.655 42.191 186.803 42.6693 186.952 43.1473C186.993 43.2776 186.993 43.2776 187.034 43.4106C188.08 46.7531 189.324 50.0068 190.617 53.2602C191.363 55.1391 192.084 57.0275 192.806 58.9158C193.041 59.53 193.279 60.1429 193.52 60.7548C195.401 65.569 197 70.5056 198.51 75.4476C198.653 75.9083 198.802 76.3668 198.953 76.8249C200.205 80.6157 201.269 84.4714 202.213 88.3503C202.341 88.8777 202.484 89.3991 202.638 89.92C202.914 90.8592 203.144 91.8087 203.378 92.7594C203.757 94.2993 204.178 95.8224 204.632 97.3417C204.855 98.088 205.061 98.8388 205.262 99.5912C205.456 99.634 205.456 99.634 205.653 99.6777C212.143 101.143 220.221 103.53 224.088 109.434C224.24 109.685 224.389 109.938 224.536 110.192C224.599 110.302 224.663 110.412 224.729 110.526C225.784 112.485 226.152 114.819 225.611 117C224.927 119.14 223.897 120.815 222.333 122.444C222.213 122.574 222.093 122.705 221.97 122.839C217.002 128.129 208.657 130.529 201.821 132.218C201.667 132.257 201.513 132.296 201.354 132.336C198.639 133.012 195.906 133.551 193.147 134.008C193.045 134.025 192.942 134.043 192.836 134.06C189.731 134.579 186.621 134.942 183.485 135.221C183.323 135.236 183.161 135.25 182.994 135.265C182.522 135.307 182.05 135.348 181.577 135.388C181.375 135.405 181.375 135.405 181.168 135.423C178.561 135.636 175.955 135.682 173.34 135.683C173.018 135.684 172.695 135.684 172.372 135.685C171.7 135.685 171.027 135.686 170.354 135.686C169.676 135.686 168.998 135.687 168.32 135.689C164.334 135.699 160.367 135.661 156.39 135.385C156.227 135.374 156.063 135.363 155.895 135.351C153.78 135.207 151.69 134.936 149.592 134.63C149.116 134.562 148.639 134.498 148.162 134.435C138.707 133.17 127.114 131.099 119.22 125.473C119.085 125.377 118.95 125.281 118.812 125.182C116.252 123.31 113.861 120.938 112.749 117.901C112.706 117.787 112.662 117.674 112.617 117.557C112.022 115.679 112.002 113.069 112.887 111.293C112.956 111.147 113.024 111.001 113.095 110.851C113.631 109.78 114.288 108.876 115.09 107.989C115.193 107.874 115.296 107.76 115.402 107.642C116.932 106.031 118.782 104.887 120.734 103.859C120.819 103.813 120.903 103.768 120.99 103.721C124.469 101.851 128.336 100.536 132.192 99.7084C132.609 99.5802 132.721 99.5146 132.987 99.1782C133.157 98.7571 133.157 98.7571 133.299 98.2661C133.327 98.1751 133.355 98.0841 133.384 97.9904C133.474 97.6983 133.561 97.4058 133.649 97.1131C133.706 96.9249 133.764 96.7367 133.821 96.5485C133.91 96.2591 133.998 95.9697 134.086 95.6801C134.299 94.9791 134.518 94.28 134.739 93.5816C135.07 92.5369 135.397 91.4908 135.722 90.444C137.572 84.48 139.503 78.5519 141.578 72.6615C141.798 72.0365 142.016 71.411 142.232 70.7846C144.388 64.5312 146.93 58.3387 149.782 52.3711C149.922 52.0764 150.062 51.7817 150.202 51.487C150.608 50.6324 151.02 49.7805 151.434 48.9294C151.493 48.8084 151.551 48.6875 151.611 48.5629C152.459 46.8135 153.389 45.1186 154.359 43.4343C154.534 43.1271 154.705 42.8192 154.875 42.5092C155.664 41.0711 156.541 39.706 157.457 38.3461C157.605 38.1261 157.752 37.906 157.9 37.686C160.863 33.2767 164.118 28.8102 168.23 25.3881C168.305 25.3246 168.38 25.2611 168.458 25.1957C172.329 21.9423 176.976 19.0587 182.168 19.0124Z" fill="#AADCE7"/>
<path d="M182.168 19.0124C182.316 19.0084 182.463 19.0044 182.614 19.0003C184.021 18.9892 185.264 19.2947 186.303 20.2869C187.158 21.3087 187.535 22.5906 187.544 23.9061C187.546 24.0446 187.546 24.0446 187.547 24.1859C187.548 24.4834 187.548 24.7809 187.546 25.0784C187.546 25.1806 187.545 25.2827 187.545 25.388C187.538 26.9853 187.435 28.5073 187.09 30.0688C187.045 30.2822 187.045 30.2822 186.998 30.4999C186.715 31.8279 186.431 33.1568 186.088 34.471C185.478 36.8253 185.692 38.9768 186.385 41.2888C186.426 41.4283 186.468 41.5679 186.51 41.7117C186.655 42.191 186.803 42.6693 186.952 43.1473C186.993 43.2776 186.993 43.2776 187.034 43.4106C188.08 46.7531 189.324 50.0068 190.617 53.2602C191.363 55.1391 192.084 57.0275 192.806 58.9158C193.041 59.53 193.279 60.1429 193.52 60.7548C195.401 65.569 197 70.5056 198.51 75.4476C198.653 75.9083 198.802 76.3668 198.953 76.8249C200.205 80.6157 201.269 84.4714 202.213 88.3503C202.341 88.8777 202.484 89.3991 202.638 89.92C202.914 90.8592 203.144 91.8087 203.378 92.7594C203.757 94.2993 204.178 95.8224 204.632 97.3417C204.855 98.088 205.061 98.8388 205.262 99.5912C205.456 99.634 205.456 99.634 205.653 99.6777C212.143 101.143 220.221 103.53 224.088 109.434C224.24 109.685 224.389 109.938 224.536 110.192C224.599 110.302 224.663 110.412 224.729 110.526C225.784 112.485 226.152 114.819 225.611 117C224.927 119.14 223.897 120.815 222.333 122.444C222.213 122.574 222.093 122.705 221.97 122.839C217.002 128.129 208.657 130.529 201.821 132.218C201.667 132.257 201.513 132.296 201.354 132.336C198.639 133.012 195.906 133.551 193.147 134.008C193.045 134.025 192.942 134.043 192.836 134.06C189.731 134.579 186.621 134.942 183.485 135.221C183.323 135.236 183.161 135.25 182.994 135.265C182.522 135.307 182.05 135.348 181.577 135.388C181.375 135.405 181.375 135.405 181.168 135.423C178.561 135.636 175.955 135.682 173.34 135.683C173.018 135.684 172.695 135.684 172.372 135.685C171.7 135.685 171.027 135.686 170.354 135.686C169.676 135.686 168.998 135.687 168.32 135.689C164.334 135.699 160.367 135.661 156.39 135.385C156.227 135.374 156.063 135.363 155.895 135.351C153.78 135.207 151.69 134.936 149.592 134.63C149.116 134.562 148.639 134.498 148.162 134.435C138.707 133.17 127.114 131.099 119.22 125.473C119.085 125.377 118.95 125.281 118.812 125.182C116.252 123.31 113.861 120.938 112.749 117.901C112.706 117.787 112.662 117.674 112.617 117.557C112.022 115.679 112.002 113.069 112.887 111.293C112.956 111.147 113.024 111.001 113.095 110.851C113.631 109.78 114.288 108.876 115.09 107.989C115.193 107.874 115.296 107.76 115.402 107.642C116.932 106.031 118.782 104.887 120.734 103.859C120.819 103.813 120.903 103.768 120.99 103.721C124.469 101.851 128.336 100.536 132.192 99.7084C132.609 99.5802 132.721 99.5146 132.987 99.1782C133.157 98.7571 133.157 98.7571 133.299 98.2661C133.327 98.1751 133.355 98.0841 133.384 97.9904C133.474 97.6983 133.561 97.4058 133.649 97.1131C133.706 96.9249 133.764 96.7367 133.821 96.5485C133.91 96.2591 133.998 95.9697 134.086 95.6801C134.299 94.9791 134.518 94.28 134.739 93.5816C135.07 92.5369 135.397 91.4908 135.722 90.444C137.572 84.48 139.503 78.5519 141.578 72.6615C141.798 72.0365 142.016 71.411 142.232 70.7846C144.388 64.5312 146.93 58.3387 149.782 52.3711C149.922 52.0764 150.062 51.7817 150.202 51.487C150.608 50.6324 151.02 49.7805 151.434 48.9294C151.493 48.8084 151.551 48.6875 151.611 48.5629C152.459 46.8135 153.389 45.1186 154.359 43.4343C154.534 43.1271 154.705 42.8192 154.875 42.5092C155.664 41.0711 156.541 39.706 157.457 38.3461C157.605 38.1261 157.752 37.906 157.9 37.686C160.863 33.2767 164.118 28.8102 168.23 25.3881C168.305 25.3246 168.38 25.2611 168.458 25.1957C172.329 21.9423 176.976 19.0587 182.168 19.0124ZM181.609 22.6687C177.969 23.1101 174.748 25.2159 171.947 27.4532C171.819 27.5536 171.692 27.654 171.561 27.7575C168.832 29.9457 166.487 32.5164 164.419 35.3318C164.218 35.601 164.013 35.8663 163.808 36.1316C156.547 45.5547 152.03 56.5882 147.554 67.5145C147.496 67.6556 147.438 67.7966 147.378 67.9419C146.683 69.65 146.095 71.397 145.5 73.1415C145.319 73.6712 145.138 74.2008 144.956 74.7303C144.921 74.8335 144.885 74.9367 144.849 75.043C144.569 75.8613 144.286 76.6789 144 77.4955C143.962 77.6039 143.924 77.7123 143.885 77.824C143.694 78.3679 143.497 78.9089 143.294 79.4486C143.116 79.9353 142.963 80.4252 142.821 80.924C142.343 82.6049 141.765 84.2503 141.19 85.9002C140.661 87.4194 140.161 88.9392 139.733 90.49C139.529 91.2293 139.302 91.9567 139.053 92.682C138.721 93.6554 138.425 94.6361 138.141 95.6246C137.833 96.694 137.513 97.7537 137.149 98.8055C136.637 100.339 136.19 101.895 135.73 103.445C135.424 104.476 135.108 105.502 134.762 106.52C134.241 107.924 134.241 107.924 134.363 109.366C135.691 111.697 139.66 112.673 142.07 113.339C142.585 113.482 143.089 113.652 143.596 113.823C144.72 114.188 145.875 114.432 147.029 114.683C147.121 114.703 147.213 114.723 147.308 114.744C149.429 115.204 151.556 115.603 153.706 115.905C153.81 115.919 153.913 115.934 154.021 115.949C155.767 116.192 157.514 116.362 159.273 116.49C159.383 116.498 159.494 116.506 159.608 116.514C160.262 116.561 160.917 116.604 161.571 116.643C161.784 116.655 161.997 116.668 162.21 116.682C164.542 116.83 166.876 116.83 169.211 116.833C169.666 116.833 170.121 116.835 170.576 116.838C173.597 116.859 176.567 116.737 179.573 116.435C180.16 116.378 180.748 116.333 181.337 116.291C183.252 116.154 185.138 115.823 187.029 115.501C187.423 115.436 187.816 115.376 188.211 115.32C190.103 115.054 191.951 114.606 193.805 114.154C194.147 114.071 194.489 113.991 194.832 113.915C197.544 113.268 201.999 112.058 203.61 109.641C203.784 108.515 203.473 107.464 203.156 106.393C203.045 106.011 202.939 105.629 202.833 105.246C202.477 103.963 202.117 102.682 201.734 101.407C201.452 100.464 201.211 99.5132 200.976 98.5577C200.607 97.0609 200.185 95.5801 199.757 94.099C199.709 93.9306 199.66 93.7621 199.61 93.5886C199.515 93.2574 199.419 92.9263 199.322 92.5954C199.058 91.68 198.826 90.7636 198.617 89.8342C198.461 89.1648 198.271 88.5061 198.078 87.8464C198.04 87.7166 198.003 87.5867 197.964 87.453C197.873 87.1394 197.782 86.826 197.69 86.5127C197.232 86.6655 197.138 86.7778 196.839 87.1408C196.4 87.6599 195.934 88.1378 195.446 88.6105C195.067 89.0037 194.942 89.223 194.886 89.7737C194.92 91.1177 195.397 92.4488 195.822 93.7119C196.273 95.0618 196.687 96.3175 196.021 97.6724C195.688 98.1871 195.401 98.4505 194.799 98.6275C194.007 98.6754 193.429 98.5825 192.7 98.2575C192.604 98.217 192.509 98.1764 192.41 98.1346C191.725 97.8389 191.051 97.5189 190.377 97.1965C190.204 97.1141 190.031 97.0316 189.857 96.9492C189.513 96.7854 189.17 96.6185 188.828 96.4497C188.668 96.3733 188.509 96.297 188.345 96.2183C188.202 96.1487 188.06 96.0792 187.914 96.0075C187.436 95.8522 187.158 95.8837 186.677 96.0118C186.379 96.174 186.379 96.174 186.101 96.399C181.884 99.4844 181.885 99.4844 180.207 99.3734C179.583 99.2431 179.226 98.9227 178.847 98.4296C178.388 96.9744 178.787 95.3323 179.036 93.8607C179.551 91.7785 179.551 91.7785 179.206 89.8152C178.961 89.5538 178.706 89.3339 178.426 89.1112C178.235 88.9473 178.044 88.7833 177.853 88.6191C177.761 88.5415 177.668 88.4639 177.572 88.3839C177.242 88.1014 176.938 87.7974 176.636 87.485C175.713 86.4852 175.713 86.4852 174.562 85.8244C174.416 85.5921 174.416 85.5921 174.287 85.2737C174.236 85.1544 174.185 85.0352 174.132 84.9123C173.923 84.1049 173.879 83.3819 174.21 82.6064C174.693 82.111 175.151 81.915 175.801 81.6943C175.935 81.6477 176.068 81.601 176.206 81.5529C177.993 81.0047 179.868 80.8991 181.721 80.7307C181.924 80.2471 182.082 79.7668 182.22 79.2609C182.26 79.1128 182.301 78.9648 182.343 78.8122C182.427 78.5039 182.511 78.1956 182.595 77.8872C183.651 74.0494 183.651 74.0494 184.793 73.1073C185.389 72.7708 186.016 72.7403 186.677 72.8836C188.272 73.6322 189.132 76.2231 189.867 77.6989C190.653 79.3617 190.653 79.3617 192.046 80.4553C192.442 80.4934 192.828 80.519 193.225 80.5328C193.447 80.5426 193.669 80.5526 193.891 80.5629C194.053 80.5701 194.053 80.5701 194.218 80.5774C194.827 80.6084 195.432 80.6697 196.038 80.7307C195.777 79.6371 195.478 78.5649 195.131 77.4955C195.084 77.3492 195.037 77.2029 194.989 77.0522C194.838 76.5802 194.685 76.1086 194.533 75.6369C194.427 75.3095 194.322 74.982 194.216 74.6546C193.607 72.7652 192.992 70.8778 192.364 68.9945C192.333 68.8987 192.301 68.8029 192.268 68.7043C191.34 65.9198 190.395 63.1249 189.246 60.4225C188.943 59.7039 188.669 58.9749 188.397 58.2443C187.984 57.1387 187.562 56.0367 187.139 54.9351C187.049 54.6983 186.958 54.4614 186.867 54.2244C186.733 53.8749 186.599 53.5255 186.465 53.1761C186.425 53.072 186.386 52.9678 186.345 52.8605C186.103 52.2322 185.842 51.616 185.562 51.0032C185.352 50.5226 185.185 50.0281 185.016 49.5317C184.72 48.6678 184.418 47.8066 184.104 46.9488C183.335 44.8358 182.63 42.7289 182.134 40.5316C182.108 40.4233 182.082 40.3149 182.054 40.2033C181.499 37.7452 181.757 35.1525 182.449 32.7563C183.191 30.1381 183.679 27.5619 183.709 24.8375C183.712 24.6673 183.715 24.4971 183.718 24.3217C183.717 24.083 183.717 24.083 183.717 23.8394C183.717 23.6967 183.717 23.554 183.717 23.407C183.68 23.0329 183.68 23.0329 183.398 22.7945C182.828 22.4917 182.229 22.6144 181.609 22.6687Z" fill="black"/>
<path d="M206.226 103.859C207.03 103.948 207.769 104.152 208.541 104.392C208.656 104.428 208.771 104.463 208.89 104.499C209.124 104.571 209.357 104.642 209.59 104.714C209.951 104.825 210.312 104.932 210.674 105.039C211.468 105.277 212.217 105.584 212.972 105.924C213.087 105.976 213.203 106.028 213.321 106.081C215.043 106.862 216.693 107.67 218.203 108.815C218.282 108.875 218.361 108.934 218.443 108.995C219.987 110.179 221.611 111.766 221.92 113.771C222.005 115.067 222.015 116.188 221.369 117.35C221.311 117.465 221.252 117.58 221.191 117.698C220.031 119.736 218.107 121.238 216.138 122.444C216.052 122.497 215.966 122.55 215.878 122.604C213.836 123.838 211.638 124.919 209.395 125.734C209.004 125.877 208.619 126.032 208.234 126.191C204.645 127.667 200.776 128.479 197.002 129.327C196.808 129.371 196.808 129.371 196.61 129.416C196.493 129.442 196.377 129.469 196.256 129.496C196.159 129.518 196.062 129.539 195.962 129.562C195.016 129.763 194.069 129.934 193.111 130.073C192.992 130.091 192.874 130.108 192.752 130.126C192.503 130.163 192.254 130.2 192.005 130.236C191.646 130.289 191.286 130.343 190.926 130.397C188.181 130.81 185.451 131.202 182.677 131.366C182.13 131.402 181.584 131.449 181.038 131.498C179.74 131.607 178.445 131.694 177.144 131.743C176.912 131.752 176.912 131.752 176.676 131.761C175.075 131.817 173.474 131.831 171.872 131.833C171.72 131.834 171.568 131.834 171.411 131.835C170.604 131.837 169.797 131.838 168.99 131.839C168.337 131.839 167.685 131.841 167.033 131.844C163.102 131.863 159.213 131.789 155.298 131.419C154.817 131.374 154.335 131.333 153.853 131.291C151.587 131.093 149.357 130.754 147.116 130.373C146.653 130.297 146.19 130.228 145.726 130.163C138.282 129.116 130.277 127.135 123.625 123.545C123.491 123.477 123.358 123.408 123.22 123.338C121.633 122.511 120.235 121.478 118.945 120.241C118.837 120.142 118.729 120.043 118.618 119.941C117.197 118.594 116.213 116.999 116.112 115.019C116.077 113.352 116.515 112.254 117.611 110.983C117.823 110.762 118.038 110.544 118.256 110.329C118.349 110.236 118.443 110.143 118.539 110.047C121.48 107.277 125.592 105.553 129.407 104.41C129.552 104.366 129.696 104.322 129.844 104.277C130.454 104.101 130.972 103.975 131.61 103.997C131.479 104.623 131.338 105.242 131.157 105.856C130.623 107.681 130.246 109.397 131.116 111.196C132.427 113.43 135.26 114.81 137.609 115.663C138.047 115.824 138.481 115.994 138.916 116.166C139.838 116.521 140.771 116.81 141.72 117.084C141.95 117.151 141.95 117.151 142.184 117.219C142.495 117.31 142.806 117.4 143.117 117.49C143.43 117.58 143.742 117.672 144.054 117.766C145.28 118.129 146.513 118.405 147.769 118.641C147.876 118.661 147.983 118.682 148.094 118.702C150.983 119.243 153.895 119.596 156.815 119.921C157.193 119.963 157.57 120.009 157.946 120.055C165.2 120.94 172.886 120.941 180.141 120.063C180.733 119.992 181.32 119.949 181.916 119.926C183.614 119.861 185.265 119.568 186.935 119.269C187.092 119.242 187.248 119.214 187.41 119.186C198.259 117.574 198.259 117.574 206.833 111.515C207.709 110.077 207.423 108.391 207.045 106.829C206.872 106.158 206.691 105.489 206.501 104.823C206.472 104.72 206.443 104.617 206.413 104.511C206.351 104.293 206.289 104.076 206.226 103.859Z" fill="#AADCE7"/>
<path d="M165.614 47.4145C166.907 47.9757 167.62 49.5359 168.238 50.7272C168.991 52.1928 168.991 52.1928 170.019 53.4719C170.42 53.4906 170.818 53.5009 171.219 53.5058C171.47 53.5103 171.72 53.5149 171.971 53.5195C172.366 53.526 172.761 53.5321 173.156 53.5376C173.537 53.5431 173.918 53.5502 174.299 53.5574C174.415 53.5586 174.531 53.5597 174.651 53.5609C175.677 53.5818 176.906 53.6206 177.729 54.2979C178.153 54.7912 178.399 55.2238 178.356 55.8908C177.913 57.8302 176.345 59.798 174.98 61.1867C174.654 61.5511 174.654 61.5511 174.52 62.0073C174.55 62.2994 174.611 62.5536 174.7 62.8333C174.726 62.9219 174.752 63.0104 174.779 63.1016C174.868 63.38 174.968 63.6525 175.07 63.9261C175.106 64.0264 175.142 64.1267 175.179 64.2301C175.366 64.7494 175.561 65.2649 175.764 65.7781C176.244 67.0157 176.562 68.0951 176.352 69.4414C176.048 70.1191 175.644 70.496 174.975 70.8181C172.803 71.1235 170.354 70.1575 168.414 69.2747C168.294 69.2218 168.173 69.1689 168.049 69.1144C167.942 69.0651 167.834 69.0158 167.724 68.9649C167.276 68.8611 167.122 68.9459 166.715 69.1661C166.31 69.4377 165.919 69.7267 165.528 70.0179C164.613 70.6884 163.694 71.332 162.723 71.9194C162.595 71.9973 162.467 72.0752 162.335 72.1555C161.392 72.7257 160.819 73.0075 159.694 72.8831C159.071 72.5773 158.739 72.2735 158.455 71.6441C158.388 71.1446 158.39 70.6503 158.395 70.1469C158.396 69.9994 158.396 69.8518 158.396 69.6998C158.428 67.7624 158.719 65.8479 159.006 63.9347C158.923 63.8945 158.839 63.8543 158.754 63.8129C157.642 63.2407 156.649 62.3086 155.738 61.4663C155.387 61.1452 155.023 60.8434 154.652 60.5462C154.266 60.157 154.148 59.7675 154.145 59.2282C154.171 58.4333 154.256 57.6807 154.831 57.0895C155.6 56.5236 156.483 56.2605 157.383 55.9795C158.127 55.7409 158.854 55.4671 159.557 55.1239C159.646 55.0887 159.735 55.0535 159.827 55.0172C160.342 54.7705 160.601 54.555 160.851 54.0325C161.022 53.526 161.168 53.0162 161.303 52.4996C162.801 47.1265 162.801 47.1265 165.614 47.4145Z" fill="black"/>
<path d="M155.444 81.9529C156.397 82.5766 156.733 83.5726 157.001 84.6283C157.059 84.8463 157.117 85.0642 157.175 85.2822C157.219 85.4494 157.219 85.4494 157.264 85.6199C157.413 86.1854 157.568 86.7491 157.724 87.3128C157.752 87.4155 157.78 87.5182 157.808 87.6241C157.883 87.8969 157.963 88.1685 158.042 88.44C158.066 88.5571 158.09 88.6742 158.115 88.7949C158.349 89.1794 158.42 89.1994 158.835 89.3241C159.058 89.3781 159.281 89.4289 159.506 89.4773C159.624 89.5056 159.743 89.5339 159.866 89.563C160.247 89.6532 160.629 89.7394 161.011 89.8252C161.389 89.9121 161.767 89.9999 162.145 90.089C162.38 90.1442 162.616 90.1981 162.851 90.2503C163.772 90.4636 164.705 90.7243 165.41 91.3762C165.812 92.1009 165.743 92.8724 165.614 93.6713C165.375 94.1786 165.054 94.5257 164.65 94.9103C164.55 95.0085 164.45 95.1066 164.348 95.2077C163.619 95.8905 162.836 96.5064 162.046 97.1157C161.891 97.2354 161.737 97.3563 161.584 97.4785C161.419 97.6073 161.249 97.7304 161.076 97.8487C160.567 98.2207 160.567 98.2207 160.305 98.7758C160.282 99.1074 160.291 99.4231 160.314 99.7545C160.318 99.872 160.322 99.9894 160.326 100.11C160.353 100.802 160.415 101.489 160.487 102.177C160.537 102.843 160.553 103.509 160.563 104.177C160.567 104.309 160.571 104.44 160.576 104.576C160.582 105.371 160.522 105.855 159.97 106.474C159.305 106.858 158.666 107.019 157.905 106.887C157.053 106.563 156.325 106.023 155.599 105.485C155.437 105.367 155.437 105.367 155.273 105.247C154.956 105.014 154.641 104.781 154.325 104.547C154.154 104.421 153.983 104.295 153.812 104.169C152.644 103.303 152.644 103.303 152.26 102.895C151.746 103.096 151.243 103.316 150.74 103.544C150.581 103.616 150.421 103.688 150.257 103.762C149.926 103.911 149.595 104.062 149.264 104.212C146.822 105.309 146.822 105.309 145.704 105.261C145.588 105.258 145.473 105.254 145.354 105.25C145.271 105.245 145.187 105.24 145.101 105.235C145.101 105.145 145.101 105.054 145.101 104.96C145.022 104.952 144.942 104.943 144.861 104.934C144.407 104.77 144.263 104.536 144 104.134C143.915 103.745 143.876 103.442 143.871 103.05C143.87 102.94 143.868 102.831 143.867 102.718C143.923 101.227 144.535 99.8378 145.068 98.4628C145.514 97.3374 145.514 97.3374 145.652 96.1494C145.508 95.8668 145.508 95.8668 145.248 95.6847C144.606 95.1217 144.108 94.4838 143.587 93.809C143.478 93.6699 143.369 93.5307 143.256 93.3874C142.411 92.2918 141.823 91.4821 141.859 90.0543C141.991 89.4021 142.392 88.9884 142.899 88.5776C143.303 88.3409 143.601 88.2664 144.068 88.2584C144.189 88.2557 144.31 88.2529 144.435 88.2501C144.63 88.2477 144.63 88.2477 144.828 88.2453C144.962 88.2426 145.096 88.2399 145.233 88.2372C145.66 88.229 146.086 88.2226 146.513 88.2162C146.802 88.211 147.091 88.2056 147.381 88.2001C148.089 88.1869 148.798 88.1753 149.507 88.1646C149.549 88.0794 149.592 87.9941 149.636 87.9063C150.309 86.5626 151.016 85.2324 151.753 83.9227C151.834 83.777 151.916 83.6313 152 83.4812C152.806 82.209 153.867 81.3016 155.444 81.9529Z" fill="black"/>
<path d="M185.989 77.4263C186.503 77.5977 186.57 77.8174 186.809 78.2826C186.884 78.4337 186.884 78.4337 186.961 78.5878C187.07 78.8004 187.18 79.0128 187.29 79.2251C187.347 79.336 187.404 79.447 187.462 79.5613C187.76 80.1335 188.069 80.699 188.381 81.2638C188.438 81.3693 188.495 81.4747 188.554 81.5834C188.609 81.682 188.663 81.7806 188.72 81.8822C188.767 81.969 188.815 82.0557 188.864 82.1451C189.012 82.3934 189.012 82.3934 189.243 82.6029C189.43 82.7953 189.43 82.7953 189.43 83.0707C189.516 83.0905 189.601 83.1104 189.689 83.1309C189.981 83.2083 189.981 83.2083 190.256 83.346C190.471 83.3732 190.687 83.3934 190.903 83.41C191.035 83.4206 191.167 83.4311 191.302 83.4421C191.443 83.4529 191.583 83.4638 191.728 83.4751C192.988 83.5779 194.237 83.7109 195.488 83.8967C195.265 84.4368 194.894 84.8209 194.498 85.2389C194.361 85.3866 194.224 85.5343 194.086 85.682C194.02 85.7536 193.953 85.8251 193.884 85.8988C192.353 87.4248 192.353 87.4248 191.745 89.3776C191.743 89.5204 191.741 89.6633 191.739 89.8105C191.772 90.2448 191.876 90.5198 192.046 90.9177C192.139 91.2729 192.228 91.6274 192.313 91.9847C192.463 92.6093 192.62 93.2206 192.838 93.826C193.003 94.2915 193.048 94.6873 193.01 95.1854C192.434 94.9647 191.88 94.7051 191.326 94.4363C191.185 94.3687 191.185 94.3687 191.042 94.2996C190.846 94.2047 190.65 94.1097 190.454 94.0146C190.152 93.8686 189.851 93.7232 189.549 93.5778C189.358 93.4854 189.167 93.393 188.977 93.3006C188.841 93.2352 188.841 93.2352 188.702 93.1685C188.07 92.8609 188.07 92.8609 187.916 92.7074C186.915 92.5518 186.287 92.8469 185.472 93.3958C185.366 93.464 185.26 93.5323 185.15 93.6027C184.934 93.741 184.719 93.8804 184.505 94.021C184.066 94.3092 183.621 94.589 183.175 94.8671C183.036 94.9556 182.897 95.0442 182.754 95.1354C182.409 95.3231 182.409 95.3231 181.996 95.3231C182.016 94.8613 182.036 94.3996 182.057 93.9378C182.062 93.808 182.067 93.6782 182.073 93.5444C182.105 92.8435 182.164 92.1625 182.272 91.4684C182.478 89.9913 182.478 89.9913 181.986 88.6295C181.573 88.1108 181.098 87.6574 180.62 87.2007C180.301 86.886 179.984 86.5699 179.666 86.2534C179.455 86.0441 179.243 85.8364 179.028 85.6307C178.882 85.4892 178.882 85.4892 178.733 85.3449C178.646 85.2612 178.558 85.1776 178.468 85.0915C178.279 84.8603 178.279 84.8603 178.279 84.4473C178.661 84.3201 178.949 84.2786 179.347 84.2505C179.476 84.2404 179.605 84.2303 179.738 84.2199C180.006 84.1997 180.275 84.1803 180.544 84.1618C181.783 84.0622 182.902 83.881 183.859 83.0422C184.306 82.4978 184.524 81.864 184.715 81.1949C185.093 79.923 185.545 78.6763 185.989 77.4263Z" fill="#F8E482"/>
<path d="M164.926 51.9583C165.366 52.1431 165.563 52.3018 165.793 52.7192C165.847 52.8162 165.902 52.9133 165.958 53.0132C166.015 53.1166 166.072 53.2199 166.13 53.3263C167.136 55.2002 167.136 55.2002 168.643 56.639C169.088 56.714 169.525 56.7031 169.975 56.6927C170.102 56.692 170.229 56.6912 170.361 56.6904C170.766 56.6873 171.171 56.6804 171.577 56.6734C171.852 56.6706 172.128 56.6681 172.403 56.6659C173.077 56.6598 173.751 56.6503 174.425 56.639C174.226 57.0458 174.009 57.406 173.745 57.7747C173.292 58.4154 172.841 59.0574 172.394 59.7021C172.329 59.7948 172.264 59.8874 172.197 59.9829C171.592 60.8581 171.106 61.5949 171.258 62.6964C171.512 63.9401 171.902 65.0117 172.461 66.152C172.685 66.6669 172.751 67.0947 172.773 67.6524C172.113 67.5663 171.524 67.3775 170.906 67.1399C170.706 67.065 170.506 66.9902 170.306 66.9154C169.995 66.7979 169.683 66.6799 169.372 66.561C169.069 66.4457 168.766 66.3324 168.463 66.2193C168.371 66.1836 168.279 66.1478 168.184 66.1111C167.458 65.8423 166.796 65.7123 166.067 66.0203C165.946 66.0961 165.825 66.1718 165.7 66.2499C165.56 66.3363 165.42 66.4228 165.275 66.5118C164.909 66.7467 164.545 66.9848 164.18 67.2227C164.024 67.3249 164.024 67.3249 163.864 67.4291C163.657 67.5647 163.45 67.7013 163.244 67.8389C163.149 67.9019 163.054 67.965 162.955 68.0299C162.871 68.0865 162.786 68.1431 162.699 68.2014C162.433 68.3487 162.193 68.4183 161.897 68.4784C161.882 67.6565 161.9 66.8459 161.966 66.0262C162.223 64.0488 162.223 64.0488 161.585 62.2532C161.205 61.8625 160.785 61.5327 160.353 61.2014C159.932 60.8777 159.521 60.5468 159.118 60.2011C158.988 60.0929 158.858 59.9846 158.725 59.8731C158.455 59.53 158.455 59.53 158.483 59.075C158.519 58.9526 158.555 58.8301 158.593 58.704C158.726 58.669 158.859 58.6341 158.996 58.598C159.462 58.4751 159.928 58.3503 160.394 58.2245C160.62 58.1636 160.846 58.1038 161.073 58.0441C162.09 57.7621 162.782 57.3735 163.411 56.5013C163.576 56.1247 163.576 56.1247 163.691 55.7199C163.738 55.5718 163.784 55.4237 163.831 55.2712C163.9 55.041 163.9 55.041 163.971 54.8063C164.064 54.5027 164.157 54.1992 164.251 53.8958C164.317 53.6811 164.317 53.6811 164.384 53.462C164.547 52.9528 164.731 52.456 164.926 51.9583Z" fill="#F8E482"/>
<path d="M154.05 86.2373C154.141 86.2373 154.232 86.2373 154.325 86.2373C154.481 86.739 154.635 87.241 154.79 87.743C154.833 87.8837 154.877 88.0243 154.922 88.1692C155.116 88.8011 155.298 89.4209 155.418 90.071C155.548 90.6876 155.798 91.0465 156.192 91.5375C156.303 91.6781 156.414 91.8186 156.528 91.9634C156.951 92.4731 157.084 92.4615 157.754 92.5265C157.922 92.5434 158.09 92.5604 158.263 92.5778C158.616 92.6124 158.97 92.6468 159.323 92.6811C160.247 92.7745 161.134 92.8946 162.035 93.1207C161.852 93.6675 161.504 93.8375 161.045 94.1446C160.199 94.7266 159.419 95.3601 158.654 96.0448C158.069 96.5624 158.069 96.5624 157.767 96.5624C157.217 97.7973 157.307 99.0329 157.328 100.357C157.33 100.59 157.332 100.823 157.334 101.056C157.338 101.623 157.345 102.19 157.354 102.757C156.704 102.653 156.322 102.395 155.822 101.983C154.014 100.529 154.014 100.529 151.801 100.084C150.5 100.233 149.24 100.796 148.096 101.414C147.855 101.518 147.855 101.518 147.442 101.518C147.518 101.2 147.596 100.882 147.674 100.563C147.71 100.416 147.71 100.416 147.747 100.265C147.904 99.636 148.082 99.0182 148.278 98.4007C148.788 96.9453 148.788 96.9453 148.681 95.4611C148.278 94.8019 147.759 94.2289 147.25 93.6513C146.917 93.2669 146.61 92.8651 146.306 92.4582C146.206 92.3267 146.106 92.1952 146.003 92.0597C145.79 91.744 145.79 91.744 145.79 91.4687C145.882 91.4652 145.974 91.4618 146.069 91.4582C146.495 91.4421 146.921 91.4253 147.347 91.4085C147.492 91.403 147.637 91.3976 147.786 91.3921C149.699 91.4145 149.699 91.4145 151.434 90.7803C151.579 90.5552 151.715 90.3249 151.847 90.092C151.92 89.969 151.992 89.846 152.067 89.7193C152.318 89.2901 152.569 88.8608 152.819 88.4314C152.907 88.2815 152.995 88.1317 153.085 87.9772C153.17 87.8331 153.254 87.6889 153.341 87.5403C153.417 87.4092 153.494 87.278 153.573 87.1429C153.742 86.8448 153.9 86.5457 154.05 86.2373Z" fill="#F8E482"/>
</svg>
