<svg width="188" height="274" viewBox="0 0 188 274" fill="none" xmlns="http://www.w3.org/2000/svg">
<path d="M107.606 76.5423C107.773 76.5711 107.941 76.5999 108.113 76.6296C114.669 77.7864 121.122 79.8454 127.309 82.2811C127.434 82.1659 127.434 82.1659 127.562 82.0485C128.263 81.4237 128.889 80.9565 129.772 80.6073C130.043 80.4963 130.043 80.4963 130.32 80.3831C131.866 79.8716 133.298 79.7257 134.924 79.7345C135.24 79.7361 135.24 79.7361 135.562 79.7378C147.47 79.912 158.56 86.5083 166.686 94.8405C167.365 95.5515 167.993 96.2969 168.601 97.0688C169.039 97.6202 169.496 98.1508 169.955 98.6843C176.274 106.266 180.679 116.732 179.914 126.661C179.551 129.987 177.945 133.31 175.4 135.506C172.435 137.768 169.034 138.754 165.328 138.736C165.178 138.737 165.028 138.737 164.874 138.738C163.694 138.736 162.532 138.643 161.358 138.521C161.406 138.655 161.453 138.79 161.501 138.928C162.531 141.885 163.465 144.813 164.037 147.894C164.068 148.052 164.099 148.21 164.131 148.373C165.161 153.806 165.026 159.909 163.845 165.301C163.792 165.556 163.792 165.556 163.737 165.816C162.964 169.404 161.751 172.78 160.019 176.014C159.93 176.193 159.84 176.372 159.748 176.556C157.614 180.725 154.319 184.435 150.646 187.3C150.49 187.422 150.49 187.422 150.33 187.547C146.802 190.288 142.789 192.453 138.595 193.995C138.716 194.079 138.836 194.163 138.961 194.249C142.269 196.594 145.315 199.374 147.777 202.603C147.859 202.71 147.941 202.817 148.025 202.927C149.724 205.145 151.149 207.476 152.475 209.932C152.542 210.055 152.608 210.177 152.677 210.303C153.133 211.165 153.133 211.165 153.133 211.594C153.259 211.594 153.385 211.594 153.516 211.594C153.548 211.368 153.548 211.368 153.582 211.138C153.678 210.604 153.79 210.089 153.921 209.563C153.962 209.399 154.003 209.235 154.045 209.067C154.129 208.734 154.213 208.402 154.299 208.07C155.054 205.013 155.088 202.059 154.995 198.933C154.981 198.433 154.973 197.933 154.966 197.432C154.957 197.208 154.957 197.208 154.947 196.978C154.937 195.834 155.28 195.073 156.002 194.186C157.009 193.401 158.226 193.478 159.446 193.613C162.012 194.231 163.927 195.815 165.758 197.63C165.927 197.796 166.095 197.962 166.269 198.133C168.767 200.732 170.143 203.894 171.078 207.338C171.118 207.482 171.158 207.627 171.199 207.776C172.143 211.455 172.172 216.173 171.114 219.819C171.046 220.081 170.978 220.342 170.91 220.604C169.635 225.375 167.1 229.832 163.463 233.21C163.305 233.368 163.147 233.525 162.984 233.688C162.827 233.846 162.669 234.004 162.506 234.166C162.411 234.265 162.316 234.364 162.218 234.466C161.433 235.272 160.613 235.974 159.709 236.641C159.575 236.74 159.442 236.839 159.304 236.941C154.301 240.605 148.539 242.824 142.421 243.731C142.121 243.785 142.121 243.785 141.815 243.84C140.745 243.96 139.682 243.942 138.607 243.934C138.385 243.933 138.163 243.932 137.934 243.931C137.389 243.929 136.844 243.926 136.299 243.922C136.313 244.087 136.326 244.252 136.34 244.422C136.489 246.428 136.528 248.426 136.536 250.437C136.537 250.606 136.538 250.775 136.539 250.948C136.543 251.84 136.545 252.732 136.547 253.623C136.549 254.534 136.556 255.445 136.563 256.356C136.568 257.066 136.57 257.776 136.571 258.486C136.572 258.822 136.574 259.157 136.577 259.492C136.615 263.228 135.982 266.506 133.316 269.31C130.916 271.589 127.978 272.389 124.822 272.998C124.679 273.032 124.536 273.066 124.389 273.101C123.721 273.214 123.062 273.224 122.387 273.229C122.173 273.231 122.173 273.231 121.956 273.233C116.628 273.272 111.383 273.063 107.242 269.223C104.617 266.397 103.902 262.384 103.971 258.652C103.746 258.707 103.521 258.762 103.29 258.819C100.383 259.462 97.3857 259.635 94.417 259.647C94.188 259.648 93.9589 259.65 93.7229 259.651C92.9864 259.654 92.2498 259.655 91.5133 259.656C91.262 259.656 91.0107 259.656 90.7518 259.657C86.7727 259.659 82.8633 259.506 78.912 259.034C78.6126 258.999 78.3133 258.964 78.014 258.929C77.2292 258.838 76.4446 258.745 75.66 258.652C75.662 258.857 75.6641 259.062 75.6662 259.273C75.6355 262.845 74.379 266.52 71.9119 269.119C68.2891 272.553 63.3116 273.234 58.5394 273.238C58.3941 273.238 58.2488 273.238 58.099 273.238C53.5941 273.232 49.0832 272.487 45.6826 269.264C43.046 266.407 42.6968 262.914 42.7071 259.207C42.7067 258.888 42.7062 258.57 42.7055 258.252C42.7044 257.407 42.7061 256.563 42.7086 255.718C42.7101 255.195 42.711 254.671 42.7117 254.147C42.7198 249.137 42.7696 244.138 43.1405 239.14C43.1516 238.987 43.1627 238.835 43.1741 238.678C43.4103 235.443 43.7026 232.221 44.097 229.001C43.8879 229.073 43.6788 229.144 43.4634 229.218C43.3387 229.261 43.214 229.303 43.0855 229.347C42.8274 229.436 42.5695 229.525 42.3117 229.614C42.1413 229.671 42.1413 229.671 41.9673 229.73C41.8531 229.769 41.7389 229.808 41.6213 229.848C38.6651 230.671 34.69 230.56 31.8543 229.384C31.6844 229.327 31.5145 229.269 31.3395 229.21C28.7929 228.312 26.5532 226.409 25.3504 223.992C23.9597 221.067 23.8932 217.284 24.8946 214.2C24.9819 213.971 25.0692 213.742 25.1591 213.507C25.2362 213.3 25.2362 213.3 25.3147 213.088C26.524 209.879 28.1839 207.002 30.324 204.325C30.4547 204.157 30.5854 203.99 30.72 203.817C33.0896 200.84 35.7927 198.248 38.7169 195.824C38.8535 195.711 38.99 195.598 39.1307 195.481C39.7151 195.003 40.2952 194.542 40.9302 194.132C41.4342 193.852 41.4342 193.852 41.6102 193.421C41.4729 193.398 41.3357 193.374 41.1942 193.35C36.3301 192.273 31.3468 189.016 27.6459 185.77C27.4814 185.626 27.317 185.483 27.1475 185.335C26.6703 184.912 26.2001 184.482 25.733 184.048C25.6058 183.931 25.4785 183.814 25.3474 183.694C18.7819 177.422 15.2069 167.664 14.9653 158.709C14.9501 157.862 14.9471 157.015 14.949 156.167C14.9491 155.988 14.9492 155.809 14.9493 155.624C14.9647 149.83 15.6399 143.404 18.2726 138.138C18.0344 138.2 17.7962 138.261 17.5508 138.325C13.7189 139.171 9.74563 138.437 6.39438 136.46C3.1894 134.395 1.32848 131.031 0.476588 127.388C-1.36978 118.622 2.42439 108.955 7.11578 101.701C7.56928 101.02 8.03733 100.351 8.5168 99.6886C8.5978 99.5764 8.6788 99.4642 8.76226 99.3487C11.2726 95.9104 14.1654 92.7625 17.5075 90.124C17.8504 89.8373 18.1931 89.5503 18.5357 89.2632C20.5453 87.6236 22.7163 86.2389 24.9678 84.9591C25.1054 84.8809 25.243 84.8027 25.3848 84.7221C28.9364 82.7266 32.6853 81.3453 36.6366 80.3682C36.7725 80.3339 36.9085 80.2995 37.0485 80.2642C39.0914 79.7723 41.1454 79.7408 43.2361 79.7345C43.3687 79.7338 43.5012 79.7331 43.6377 79.7323C46.6856 79.7239 49.9362 80.1784 52.3225 82.2811C52.3225 82.4073 52.3225 82.5336 52.3225 82.6637C52.5072 82.5798 52.6919 82.496 52.8822 82.4096C59.4838 79.4891 66.4555 77.5746 73.5558 76.351C73.737 76.3195 73.9182 76.288 74.1048 76.2555C85.0342 74.4243 96.706 74.6615 107.606 76.5423Z" fill="#F2D3A3"/>
<path d="M107.606 76.5423C107.773 76.5711 107.941 76.5999 108.113 76.6296C114.669 77.7864 121.122 79.8454 127.309 82.2811C127.434 82.1659 127.434 82.1659 127.562 82.0485C128.263 81.4237 128.889 80.9565 129.772 80.6073C130.043 80.4963 130.043 80.4963 130.32 80.3831C131.866 79.8716 133.298 79.7257 134.924 79.7345C135.24 79.7361 135.24 79.7361 135.562 79.7378C147.47 79.912 158.56 86.5083 166.686 94.8405C167.365 95.5515 167.993 96.2969 168.601 97.0688C169.039 97.6202 169.496 98.1508 169.955 98.6843C176.274 106.266 180.679 116.732 179.914 126.661C179.551 129.987 177.945 133.31 175.4 135.506C172.435 137.768 169.034 138.754 165.328 138.736C165.178 138.737 165.028 138.737 164.874 138.738C163.694 138.736 162.532 138.643 161.358 138.521C161.406 138.655 161.453 138.79 161.501 138.928C162.531 141.885 163.465 144.813 164.037 147.894C164.068 148.052 164.099 148.21 164.131 148.373C165.161 153.806 165.026 159.909 163.845 165.301C163.792 165.556 163.792 165.556 163.737 165.816C162.964 169.404 161.751 172.78 160.019 176.014C159.93 176.193 159.84 176.372 159.748 176.556C157.614 180.725 154.319 184.435 150.646 187.3C150.49 187.422 150.49 187.422 150.33 187.547C146.802 190.288 142.789 192.453 138.595 193.995C138.716 194.079 138.836 194.163 138.961 194.249C142.269 196.594 145.315 199.374 147.777 202.603C147.859 202.71 147.941 202.817 148.025 202.927C149.724 205.145 151.149 207.476 152.475 209.932C152.542 210.055 152.608 210.177 152.677 210.303C153.133 211.165 153.133 211.165 153.133 211.594C153.259 211.594 153.385 211.594 153.516 211.594C153.548 211.368 153.548 211.368 153.582 211.138C153.678 210.604 153.79 210.089 153.921 209.563C153.962 209.399 154.003 209.235 154.045 209.067C154.129 208.734 154.213 208.402 154.299 208.07C155.054 205.013 155.088 202.059 154.995 198.933C154.981 198.433 154.973 197.933 154.966 197.432C154.957 197.208 154.957 197.208 154.947 196.978C154.937 195.834 155.28 195.073 156.002 194.186C157.009 193.401 158.226 193.478 159.446 193.613C162.012 194.231 163.927 195.815 165.758 197.63C165.927 197.796 166.095 197.962 166.269 198.133C168.767 200.732 170.143 203.894 171.078 207.338C171.118 207.482 171.158 207.627 171.199 207.776C172.143 211.455 172.172 216.173 171.114 219.819C171.046 220.081 170.978 220.342 170.91 220.604C169.635 225.375 167.1 229.832 163.463 233.21C163.305 233.368 163.147 233.525 162.984 233.688C162.827 233.846 162.669 234.004 162.506 234.166C162.411 234.265 162.316 234.364 162.218 234.466C161.433 235.272 160.613 235.974 159.709 236.641C159.575 236.74 159.442 236.839 159.304 236.941C154.301 240.605 148.539 242.824 142.421 243.731C142.121 243.785 142.121 243.785 141.815 243.84C140.745 243.96 139.682 243.942 138.607 243.934C138.385 243.933 138.163 243.932 137.934 243.931C137.389 243.929 136.844 243.926 136.299 243.922C136.313 244.087 136.326 244.252 136.34 244.422C136.489 246.428 136.528 248.426 136.536 250.437C136.537 250.606 136.538 250.775 136.539 250.948C136.543 251.84 136.545 252.732 136.547 253.623C136.549 254.534 136.556 255.445 136.563 256.356C136.568 257.066 136.57 257.776 136.571 258.486C136.572 258.822 136.574 259.157 136.577 259.492C136.615 263.228 135.982 266.506 133.316 269.31C130.916 271.589 127.978 272.389 124.822 272.998C124.679 273.032 124.536 273.066 124.389 273.101C123.721 273.214 123.062 273.224 122.387 273.229C122.173 273.231 122.173 273.231 121.956 273.233C116.628 273.272 111.383 273.063 107.242 269.223C104.617 266.397 103.902 262.384 103.971 258.652C103.746 258.707 103.521 258.762 103.29 258.819C100.383 259.462 97.3857 259.635 94.417 259.647C94.188 259.648 93.9589 259.65 93.7229 259.651C92.9864 259.654 92.2498 259.655 91.5133 259.656C91.262 259.656 91.0107 259.656 90.7518 259.657C86.7727 259.659 82.8633 259.506 78.912 259.034C78.6126 258.999 78.3133 258.964 78.014 258.929C77.2292 258.838 76.4446 258.745 75.66 258.652C75.662 258.857 75.6641 259.062 75.6662 259.273C75.6355 262.845 74.379 266.52 71.9119 269.119C68.2891 272.553 63.3116 273.234 58.5394 273.238C58.3941 273.238 58.2488 273.238 58.099 273.238C53.5941 273.232 49.0832 272.487 45.6826 269.264C43.046 266.407 42.6968 262.914 42.7071 259.207C42.7067 258.888 42.7062 258.57 42.7055 258.252C42.7044 257.407 42.7061 256.563 42.7086 255.718C42.7101 255.195 42.711 254.671 42.7117 254.147C42.7198 249.137 42.7696 244.138 43.1405 239.14C43.1516 238.987 43.1627 238.835 43.1741 238.678C43.4103 235.443 43.7026 232.221 44.097 229.001C43.8879 229.073 43.6788 229.144 43.4634 229.218C43.3387 229.261 43.214 229.303 43.0855 229.347C42.8274 229.436 42.5695 229.525 42.3117 229.614C42.1413 229.671 42.1413 229.671 41.9673 229.73C41.8531 229.769 41.7389 229.808 41.6213 229.848C38.6651 230.671 34.69 230.56 31.8543 229.384C31.6844 229.327 31.5145 229.269 31.3395 229.21C28.7929 228.312 26.5532 226.409 25.3504 223.992C23.9597 221.067 23.8932 217.284 24.8946 214.2C24.9819 213.971 25.0692 213.742 25.1591 213.507C25.2362 213.3 25.2362 213.3 25.3147 213.088C26.524 209.879 28.1839 207.002 30.324 204.325C30.4547 204.157 30.5854 203.99 30.72 203.817C33.0896 200.84 35.7927 198.248 38.7169 195.824C38.8535 195.711 38.99 195.598 39.1307 195.481C39.7151 195.003 40.2952 194.542 40.9302 194.132C41.4342 193.852 41.4342 193.852 41.6102 193.421C41.4729 193.398 41.3357 193.374 41.1942 193.35C36.3301 192.273 31.3468 189.016 27.6459 185.77C27.4814 185.626 27.317 185.483 27.1475 185.335C26.6703 184.912 26.2001 184.482 25.733 184.048C25.6058 183.931 25.4785 183.814 25.3474 183.694C18.7819 177.422 15.2069 167.664 14.9653 158.709C14.9501 157.862 14.9471 157.015 14.949 156.167C14.9491 155.988 14.9492 155.809 14.9493 155.624C14.9647 149.83 15.6399 143.404 18.2726 138.138C18.0344 138.2 17.7962 138.261 17.5508 138.325C13.7189 139.171 9.74563 138.437 6.39438 136.46C3.1894 134.395 1.32848 131.031 0.476588 127.388C-1.36978 118.622 2.42439 108.955 7.11578 101.701C7.56928 101.02 8.03733 100.351 8.5168 99.6886C8.5978 99.5764 8.6788 99.4642 8.76226 99.3487C11.2726 95.9104 14.1654 92.7625 17.5075 90.124C17.8504 89.8373 18.1931 89.5503 18.5357 89.2632C20.5453 87.6236 22.7163 86.2389 24.9678 84.9591C25.1054 84.8809 25.243 84.8027 25.3848 84.7221C28.9364 82.7266 32.6853 81.3453 36.6366 80.3682C36.7725 80.3339 36.9085 80.2995 37.0485 80.2642C39.0914 79.7723 41.1454 79.7408 43.2361 79.7345C43.3687 79.7338 43.5012 79.7331 43.6377 79.7323C46.6856 79.7239 49.9362 80.1784 52.3225 82.2811C52.3225 82.4073 52.3225 82.5336 52.3225 82.6637C52.5072 82.5798 52.6919 82.496 52.8822 82.4096C59.4838 79.4891 66.4555 77.5746 73.5558 76.351C73.737 76.3195 73.9182 76.288 74.1048 76.2555C85.0342 74.4243 96.706 74.6615 107.606 76.5423ZM76.6165 80.7507C76.3135 80.7865 76.3135 80.7865 76.0044 80.823C69.5068 81.5968 63.2101 83.1871 57.1048 85.533C56.9304 85.5993 56.7561 85.6655 56.5765 85.7337C56.1325 85.9047 55.6916 86.0814 55.2516 86.2623C55.0181 86.3582 54.7846 86.4542 54.544 86.553C54.0136 86.8226 54.0136 86.8226 53.8707 87.3137C53.8508 87.8872 53.864 88.4506 53.8887 89.0241C53.9488 92.4126 53.1182 95.8898 52.1312 99.1147C52.0738 99.3023 52.0164 99.49 51.9573 99.6833C49.0886 108.915 44.9118 118.496 38.208 125.634C37.8446 126.022 37.5027 126.419 37.1627 126.828C34.276 130.115 29.9733 133.923 25.7778 135.34C24.7667 135.691 24.1822 135.944 23.6154 136.878C23.2942 137.608 23.0571 138.358 22.8328 139.122C22.6577 139.718 22.4689 140.309 22.2793 140.901C21.5087 143.354 20.8553 145.811 20.4553 148.352C20.3995 148.707 20.3388 149.06 20.2749 149.413C19.954 151.335 19.9295 153.233 19.9339 155.177C19.9345 155.731 19.93 156.284 19.9251 156.838C19.914 160.082 20.1713 163.356 21.0822 166.485C21.1307 166.656 21.1792 166.828 21.2292 167.004C23.7037 175.423 29.3015 182.097 36.9571 186.297C41.1288 188.527 45.4988 190.196 50.1652 191.027C50.3353 191.058 50.5055 191.089 50.6808 191.121C50.8347 191.147 50.9886 191.173 51.1472 191.2C51.7811 191.381 52.1128 191.769 52.5138 192.274C52.5769 192.337 52.64 192.4 52.7051 192.465C52.7869 193.169 52.7232 193.572 52.4301 194.222C51.7671 194.95 51.1544 195.1 50.2183 195.334C42.3379 197.351 35.9518 204.074 31.8377 210.864C30.0067 213.96 28.5273 217.185 29.053 220.87C29.454 222.383 30.5537 223.571 31.8566 224.39C34.7019 225.858 38.224 226.127 41.2993 225.164C42.7094 224.602 44.2332 223.855 45.2447 222.689C45.403 222.3 45.403 222.3 45.4993 221.859C45.5409 221.691 45.5825 221.524 45.6254 221.351C45.6684 221.169 45.7115 220.988 45.7558 220.801C45.8263 220.516 45.8263 220.516 45.8981 220.226C46.0489 219.617 46.197 219.007 46.3446 218.397C46.903 216.091 47.4652 213.797 48.2366 211.551C48.2894 211.395 48.3422 211.239 48.3967 211.078C48.7315 210.139 49.0843 209.196 50.027 208.725C50.8085 208.626 51.5991 208.548 52.3143 208.918C52.8187 209.327 53.0727 209.636 53.2789 210.255C53.3279 211.196 53.2185 211.961 52.9494 212.862C52.8778 213.107 52.8063 213.352 52.7347 213.597C52.6967 213.724 52.6588 213.852 52.6196 213.983C51.69 217.113 50.9194 220.265 50.2183 223.454C50.1611 223.709 50.1611 223.709 50.1027 223.97C48.9398 229.197 48.3567 234.535 47.9552 239.868C47.9302 240.192 47.9039 240.516 47.877 240.839C47.7546 242.348 47.6758 243.854 47.6269 245.367C47.6189 245.612 47.611 245.858 47.6027 246.11C47.5164 248.92 47.4977 251.73 47.4942 254.541C47.4932 255.286 47.4885 256.03 47.4832 256.775C47.4796 257.361 47.4786 257.946 47.4783 258.532C47.4777 258.807 47.4762 259.082 47.4737 259.356C47.4529 261.757 47.6153 264.047 49.2618 265.921C51.6231 268.147 54.85 268.509 57.9543 268.472C58.3605 268.467 58.7665 268.468 59.1727 268.469C62.5749 268.462 66.2488 268.063 68.7735 265.538C70.4957 263.276 70.7939 260.62 70.8897 257.874C70.9042 257.479 70.9197 257.084 70.9384 256.689C70.9552 256.335 70.9681 255.981 70.9809 255.627C71.077 254.962 71.2416 254.596 71.6429 254.061C73.3137 252.947 76.714 253.849 78.637 254.049C82.6354 254.461 86.5948 254.67 90.6152 254.67C91.2119 254.67 91.8085 254.674 92.4051 254.677C96.1074 254.688 99.7468 254.372 103.409 253.845C103.894 253.776 104.378 253.708 104.863 253.641C105.069 253.611 105.275 253.581 105.488 253.551C107.024 253.383 107.024 253.383 107.845 253.809C108.419 254.292 108.54 254.505 108.753 255.208C108.802 255.833 108.802 255.833 108.806 256.54C108.81 256.803 108.814 257.065 108.818 257.328C108.822 257.736 108.825 258.143 108.826 258.55C108.84 261.399 109.15 264.162 111.24 266.303C113.604 268.265 116.864 268.445 119.8 268.453C120.212 268.455 120.624 268.461 121.035 268.467C124.253 268.492 127.533 268.134 129.949 265.824C131.295 264.296 131.752 262.41 131.764 260.413C131.765 260.271 131.766 260.13 131.768 259.985C131.771 259.519 131.772 259.054 131.773 258.589C131.774 258.258 131.776 257.927 131.777 257.596C131.782 256.529 131.781 255.462 131.78 254.395C131.78 254.214 131.78 254.032 131.78 253.845C131.778 247.826 131.603 241.876 130.943 235.888C130.901 235.491 130.858 235.094 130.816 234.697C129.984 227.014 128.827 219.138 126.352 211.785C126.235 211.116 126.204 210.522 126.54 209.916C126.972 209.371 127.403 208.922 128.074 208.725C128.769 208.661 129.271 208.672 129.927 208.916C130.937 209.789 131.278 211.171 131.594 212.427C131.633 212.576 131.672 212.724 131.712 212.877C131.793 213.192 131.875 213.507 131.955 213.822C132.08 214.313 132.208 214.803 132.337 215.294C132.741 216.845 133.12 218.395 133.444 219.965C133.841 221.901 133.841 221.901 135.11 223.373C135.25 223.463 135.39 223.553 135.534 223.645C135.678 223.749 135.822 223.853 135.971 223.96C138.501 225.648 141.58 226.006 144.533 225.425C146.622 224.883 148.471 223.95 149.69 222.115C150.653 220.306 150.426 218.231 149.881 216.328C147.42 208.356 141.066 201.119 133.841 197.081C132.23 196.233 130.596 195.856 128.8 195.626C128.066 195.488 127.672 195.253 127.117 194.76C126.809 194.143 126.815 193.515 126.926 192.847C127.706 191.761 128.686 191.602 129.952 191.38C130.078 191.361 130.204 191.341 130.334 191.321C132.17 191.037 133.888 190.545 135.642 189.942C135.779 189.896 135.917 189.849 136.058 189.801C138.077 189.116 139.994 188.361 141.847 187.3C142.106 187.161 142.366 187.022 142.626 186.884C150.117 182.86 155.757 175.931 158.21 167.796C158.448 166.969 158.668 166.138 158.872 165.301C158.904 165.182 158.935 165.063 158.968 164.941C159.671 162.133 159.715 159.189 159.709 156.311C159.709 156.055 159.709 156.055 159.708 155.795C159.702 152.906 159.484 150.151 158.872 147.32C158.839 147.16 158.806 147.001 158.772 146.836C158.126 143.739 157.052 140.735 156.002 137.756C155.957 137.61 155.912 137.465 155.866 137.315C155.629 136.626 155.42 136.411 154.797 136.011C154.543 135.896 154.287 135.784 154.03 135.675C153.751 135.546 153.473 135.416 153.195 135.285C152.986 135.187 152.986 135.187 152.772 135.086C150.558 133.991 148.565 132.386 146.629 130.869C146.523 130.786 146.417 130.703 146.307 130.617C143.407 128.315 140.764 125.644 138.595 122.644C138.502 122.517 138.409 122.39 138.313 122.259C131.493 112.938 124.827 99.0852 125.587 87.2546C115.174 81.553 102.452 80.0526 90.7516 80.1021C89.9718 80.1053 89.1921 80.1034 88.4122 80.1001C84.4439 80.0859 80.558 80.2774 76.6165 80.7507Z" fill="black"/>
<path d="M150.179 88.4506C155.959 91.4064 161.626 95.8513 165.567 101.028C165.668 101.159 165.769 101.291 165.873 101.427C167.369 103.391 168.773 105.369 169.967 107.532C170.055 107.689 170.143 107.847 170.234 108.009C173.038 113.056 175.015 118.208 175.036 124.03C175.038 124.403 175.038 124.403 175.04 124.782C175.003 127.493 174.387 129.798 172.515 131.805C170.033 134.058 166.799 134.109 163.632 133.969C156.082 133.438 148.994 127.526 144.21 122.095C143.579 121.346 142.992 120.569 142.421 119.774C142.333 119.653 142.246 119.532 142.157 119.408C139.014 115.01 136.511 110.293 134.603 105.236C134.399 104.696 134.191 104.158 133.981 103.62C132.553 99.8843 131.424 95.9822 130.752 92.037C130.713 91.8504 130.674 91.6637 130.635 91.4714C130.409 90.3234 130.326 89.199 130.31 88.0319C130.306 87.8937 130.303 87.7555 130.299 87.6131C130.3 86.7551 130.413 86.2124 130.943 85.5331C135.729 81.9439 145.555 86.1881 150.179 88.4506Z" fill="#7D5232"/>
<path d="M43.0688 84.5287C43.4298 84.5264 43.4298 84.5264 43.7981 84.5242C47.3297 84.5316 47.3297 84.5316 48.688 85.7242C49.0815 86.6285 49.1376 87.4891 49.1303 88.4621C49.1289 88.6885 49.1289 88.6885 49.1275 88.9195C48.9955 95.7107 46.0054 102.962 43.158 108.998C42.9496 109.444 42.7475 109.891 42.5465 110.34C39.3666 117.354 34.6169 123.771 28.4111 128.382C28.2237 128.525 28.0363 128.668 27.8432 128.816C24.9092 130.962 21.5822 132.582 18.0814 133.547C17.9088 133.597 17.7362 133.648 17.5583 133.699C15.4071 134.234 12.8786 134.157 10.8123 133.356C10.5719 133.265 10.5719 133.265 10.3266 133.172C8.06423 132.184 6.55378 130.255 5.64746 128C5.14069 126.413 4.98049 124.925 5.00185 123.265C5.00435 122.939 5.00435 122.939 5.0069 122.606C5.0366 120.893 5.23429 119.331 5.64746 117.67C5.6985 117.431 5.74955 117.192 5.80214 116.946C7.14223 110.837 10.3533 105.094 14.2556 100.262C14.4405 100.019 14.4405 100.019 14.6292 99.7707C16.9509 96.7817 19.7764 94.2094 22.8637 92.0368C22.9798 91.9535 23.0959 91.8701 23.2155 91.7843C27.6692 88.6012 32.8094 86.1425 38.167 84.9591C38.3207 84.9239 38.4745 84.8887 38.633 84.8524C40.114 84.5449 41.5601 84.5193 43.0688 84.5287Z" fill="#7D5232"/>
<path d="M94.7891 203.942C94.963 204.009 95.1368 204.076 95.3159 204.145C99.6505 206.044 102.255 210.672 103.971 214.846C104.818 217.025 105.288 219.245 105.693 221.541C105.726 221.72 105.76 221.899 105.795 222.083C106.311 225.585 106.117 229.497 104.928 232.827C104.852 233.047 104.776 233.267 104.698 233.494C103.322 237.097 100.712 239.891 97.2303 241.517C92.6312 243.53 86.7233 243.314 82.1118 241.524C78.5443 240.062 76.0539 237.683 74.3875 234.217C71.8154 227.985 72.9129 220.741 75.4328 214.678C76.4798 212.259 77.7022 209.92 79.4858 207.959C79.5684 207.868 79.6509 207.776 79.736 207.682C83.7095 203.321 89.2677 201.713 94.7891 203.942Z" fill="#FFBB4D"/>
<path d="M101.228 202.099C103.582 204.086 105.323 206.428 106.84 209.107C106.903 209.217 106.966 209.327 107.03 209.44C108.952 212.875 110.063 216.711 110.666 220.585C110.699 220.795 110.699 220.795 110.733 221.009C111.691 227.312 110.808 234.23 107.077 239.546C103.459 244.206 98.9103 246.42 93.1945 247.484C86.4986 248.177 79.8573 246.84 74.5207 242.617C70.7442 239.528 68.6879 234.95 68.1996 230.149C68.1305 229.078 68.125 228.006 68.1279 226.933C68.128 226.788 68.1281 226.642 68.1282 226.492C68.1414 222.46 68.7826 218.656 70.1126 214.846C70.1554 214.721 70.1982 214.597 70.2423 214.469C71.6695 210.407 73.8641 206.875 76.8077 203.751C76.915 203.634 77.0223 203.516 77.1328 203.395C83.5447 196.626 94.117 196.257 101.228 202.099ZM81.2074 206.238C81.0267 206.401 80.8459 206.564 80.6597 206.732C77.2794 209.889 75.4233 214.106 74.1297 218.48C74.0712 218.673 74.0128 218.866 73.9526 219.065C72.517 224.262 72.3312 230.311 74.8537 235.212C77.0428 238.938 80.0878 240.95 84.1478 242.221C85.9399 242.662 87.6731 242.839 89.5167 242.822C89.7267 242.821 89.9368 242.819 90.1532 242.818C94.5674 242.759 98.5246 241.6 101.676 238.375C103.887 236.041 104.906 233.219 105.607 230.139C105.663 229.897 105.726 229.656 105.796 229.418C107.159 222.936 104.79 215.377 101.484 209.872C101.013 209.194 100.502 208.576 99.954 207.959C99.775 207.74 99.775 207.74 99.5923 207.516C97.6272 205.159 94.7805 203.457 91.7285 202.986C87.7905 202.63 84.184 203.548 81.2074 206.238Z" fill="black"/>
<path d="M160.402 199.16C162.784 201.165 164.394 203.531 165.567 206.429C165.621 206.558 165.676 206.688 165.732 206.821C167.541 211.598 167.195 217.842 165.184 222.497C161.963 229.495 156.013 234.756 148.833 237.496C144.721 238.983 140.477 239.681 136.108 239.522C135.818 238.504 135.764 237.442 135.657 236.392C135.618 236.01 135.578 235.628 135.538 235.245C135.513 235.002 135.487 234.759 135.462 234.508C135.427 234.176 135.427 234.176 135.393 233.837C135.345 233.242 135.334 232.659 135.343 232.062C135.498 232.006 135.653 231.951 135.813 231.893C136.872 231.501 137.811 231.131 138.738 230.484C140.035 229.732 141.448 229.862 142.903 229.841C144.7 229.802 146.117 229.508 147.777 228.81C148.008 228.715 148.239 228.621 148.477 228.523C151.287 227.251 153.192 225.3 154.329 222.426C154.584 221.695 154.706 221.029 154.783 220.262C154.96 219.028 155.53 218.185 156.202 217.167C159.716 211.824 160.197 205.384 160.402 199.16Z" fill="#7D5232"/>
<path d="M97.539 145.742C98.4812 146.499 99.1896 147.513 99.5714 148.659C99.6906 150.178 99.2958 151.228 98.352 152.401C96.9205 153.922 94.9169 154.805 92.8762 155.163C92.6237 155.163 92.3712 155.163 92.1111 155.163C92.1155 156.024 92.1303 156.884 92.1469 157.745C92.1481 157.988 92.1492 158.231 92.1503 158.481C92.1837 159.906 92.2728 160.969 93.2588 162.049C94.4047 163.119 95.9585 163.151 97.446 163.131C99.7707 163.016 101.206 161.889 102.752 160.267C103.052 159.927 103.344 159.579 103.624 159.223C103.993 158.77 104.154 158.63 104.727 158.561C105.791 158.526 106.383 158.654 107.223 159.371C107.747 160.156 107.741 160.745 107.606 161.667C106.788 164.119 104.248 165.899 102.058 167.023C101.367 167.317 100.672 167.567 99.954 167.788C99.7646 167.851 99.5753 167.914 99.3801 167.979C95.8726 168.238 93.0533 168.183 90.2213 165.943C89.7884 165.615 89.7884 165.615 89.0504 165.684C88.6152 165.95 88.6152 165.95 88.1777 166.306C87.1872 167.032 86.1993 167.427 85.0333 167.788C84.7492 167.883 84.7492 167.883 84.4594 167.979C80.6576 168.3 77.5232 167.972 74.5123 165.493C74.2889 165.315 74.2889 165.315 74.061 165.135C72.7346 164.029 71.3693 162.63 71.2006 160.842C71.2714 160.006 71.5009 159.633 72.0255 158.989C72.8805 158.419 73.7016 158.468 74.7036 158.606C75.2057 158.965 75.2057 158.965 75.66 159.563C77.0158 161.202 78.5786 162.793 80.8106 163.048C81.2188 163.071 81.6236 163.078 82.0324 163.078C82.1761 163.078 82.3198 163.077 82.4678 163.077C83.5942 163.054 84.4471 162.829 85.4159 162.241C85.552 162.179 85.6881 162.117 85.8284 162.054C86.3304 161.775 86.3907 161.434 86.5636 160.902C86.6268 160.775 86.6899 160.649 86.7549 160.519C86.7845 160.117 86.8027 159.713 86.8155 159.31C86.8235 159.07 86.8315 158.829 86.8397 158.581C86.8473 158.329 86.8548 158.077 86.8625 157.817C86.8708 157.561 86.8791 157.304 86.8876 157.048C86.9079 156.42 86.9274 155.791 86.9462 155.163C86.6518 155.128 86.6518 155.128 86.3514 155.092C84.1935 154.743 82.0535 153.729 80.6373 152.03C79.8446 150.886 79.5018 149.881 79.6772 148.468C80.1154 146.94 81.317 145.95 82.6138 145.119C83.8627 144.439 85.1743 144.138 86.5636 143.877C86.7382 143.841 86.9128 143.806 87.0927 143.769C90.635 143.29 94.5283 143.683 97.539 145.742Z" fill="black"/>
<path d="M52.8856 139.023C53.0239 139.019 53.0239 139.019 53.1651 139.014C53.7405 139.087 54.0958 139.452 54.486 139.852C54.5716 139.939 54.6572 140.026 54.7454 140.116C54.9171 140.293 55.0881 140.47 55.2588 140.648C57.2477 142.524 59.951 143.04 62.6049 142.977C65.0651 142.878 67.5188 141.925 69.1943 140.119C69.3079 139.994 69.4204 139.868 69.5317 139.74C69.8954 139.326 70.1349 139.086 70.687 139.013C71.3519 139.004 71.8726 139.024 72.3776 139.485C72.7612 139.906 72.9604 140.316 73 140.886C72.9316 142.029 71.9809 142.99 71.1739 143.729C69.6001 145.073 67.7923 145.885 65.8119 146.449C65.6964 146.483 65.6964 146.483 65.5786 146.519C62.1104 147.527 58.0904 146.932 54.9369 145.259C53.5754 144.505 51.5359 143.097 51.0389 141.553C50.9446 140.772 50.9969 140.226 51.4767 139.594C51.9295 139.177 52.2733 139.034 52.8856 139.023Z" fill="black"/>
<path d="M106.871 139.014C106.972 139.009 107.074 139.005 107.179 139C107.873 139.115 108.287 139.686 108.721 140.263C110.259 142.225 112.612 143.271 114.898 143.495C117.587 143.654 120.427 143.121 122.504 141.035C122.85 140.661 123.173 140.275 123.483 139.862C123.812 139.428 124.068 139.104 124.588 139.014C125.213 138.975 125.721 139.106 126.218 139.546C126.619 140.039 126.844 140.48 126.946 141.143C126.843 142.429 125.986 143.495 125.159 144.295C121.969 147.251 117.977 148.361 113.901 147.899C113.278 147.797 112.673 147.638 112.068 147.444C111.959 147.411 111.959 147.411 111.848 147.376C109.341 146.584 106.748 144.863 105.278 142.377C105.003 141.819 104.867 141.291 104.993 140.657C105.364 139.712 105.933 139.042 106.871 139.014Z" fill="black"/>
<path d="M129.47 101.03C129.606 101.029 129.606 101.029 129.744 101.027C129.843 101.027 129.942 101.027 130.044 101.027C130.15 101.026 130.256 101.025 130.361 101.024C130.648 101.022 130.934 101.021 131.221 101.021C131.4 101.02 131.58 101.02 131.759 101.019C132.32 101.017 132.881 101.016 133.443 101.015C134.09 101.014 134.737 101.012 135.384 101.007C135.885 101.004 136.385 101.003 136.886 101.002C137.185 101.002 137.483 101.001 137.782 100.999C138.064 100.996 138.345 100.996 138.626 100.997C138.778 100.997 138.93 100.995 139.081 100.993C139.6 100.998 139.933 101.036 140.328 101.387C140.927 102.003 141.001 102.528 141.005 103.361C141.006 103.453 141.007 103.545 141.008 103.64C141.01 103.835 141.011 104.03 141.011 104.225C141.012 104.521 141.017 104.817 141.022 105.114C141.023 105.304 141.024 105.494 141.024 105.684C141.026 105.771 141.028 105.859 141.03 105.949C141.025 106.601 140.837 106.997 140.439 107.508C140.387 107.576 140.387 107.576 140.333 107.646C140.24 107.76 140.143 107.871 140.045 107.982C139.973 108.064 139.902 108.147 139.83 108.23C139.794 108.272 139.758 108.313 139.721 108.356C139.508 108.609 139.306 108.871 139.103 109.132C138.889 109.406 138.673 109.678 138.455 109.948C137.799 110.762 137.174 111.596 136.563 112.444C136.532 112.487 136.501 112.53 136.469 112.574C136.322 112.781 136.195 112.985 136.085 113.214C136.152 113.211 136.218 113.209 136.287 113.207C136.885 113.187 137.482 113.168 138.08 113.152C138.405 113.143 138.729 113.133 139.054 113.12C139.191 113.117 139.327 113.114 139.463 113.111C139.523 113.108 139.583 113.105 139.645 113.102C140.109 113.095 140.437 113.249 140.815 113.514C141.136 113.843 141.283 114.176 141.286 114.636C141.287 114.707 141.287 114.779 141.288 114.853C141.288 114.968 141.288 114.968 141.288 115.085C141.288 115.165 141.289 115.245 141.289 115.327C141.289 115.495 141.289 115.664 141.289 115.832C141.289 116.089 141.291 116.345 141.292 116.602C141.293 116.766 141.293 116.93 141.293 117.094C141.293 117.17 141.294 117.246 141.295 117.324C141.291 117.831 141.251 118.291 140.914 118.696C140.87 118.73 140.827 118.763 140.782 118.798C140.739 118.832 140.695 118.867 140.651 118.903C140.347 119.108 140.136 119.164 139.766 119.165C139.628 119.166 139.628 119.166 139.488 119.167C139.386 119.167 139.285 119.167 139.183 119.167C139.076 119.167 138.969 119.168 138.862 119.168C138.571 119.17 138.281 119.17 137.99 119.17C137.808 119.17 137.627 119.171 137.445 119.171C136.81 119.172 136.176 119.173 135.541 119.173C134.95 119.173 134.36 119.174 133.769 119.177C133.261 119.179 132.754 119.179 132.246 119.179C131.943 119.179 131.64 119.18 131.337 119.181C131.052 119.183 130.767 119.183 130.481 119.182C130.377 119.182 130.273 119.182 130.168 119.183C129.514 119.188 128.992 119.175 128.5 118.697C128.45 118.624 128.45 118.624 128.399 118.549C128.364 118.5 128.329 118.452 128.294 118.402C128.12 118.105 128.033 117.847 128.027 117.503C128.025 117.397 128.025 117.397 128.023 117.288C128.022 117.213 128.021 117.137 128.021 117.059C128.02 116.94 128.02 116.94 128.018 116.82C128.017 116.652 128.016 116.485 128.015 116.318C128.014 116.065 128.009 115.812 128.004 115.558C127.988 113.987 127.988 113.987 128.502 113.289C128.545 113.226 128.588 113.164 128.632 113.099C128.768 112.909 128.91 112.726 129.056 112.543C129.162 112.405 129.269 112.268 129.375 112.131C129.43 112.062 129.484 111.992 129.54 111.921C129.802 111.586 130.06 111.248 130.318 110.91C130.368 110.845 130.418 110.779 130.469 110.712C130.831 110.236 131.182 109.753 131.529 109.266C131.84 108.833 132.167 108.415 132.504 108.003C132.699 107.768 132.699 107.768 132.856 107.508C132.815 107.508 132.773 107.507 132.73 107.507C132.294 107.506 131.858 107.502 131.422 107.496C131.26 107.495 131.097 107.493 130.935 107.493C130.7 107.492 130.466 107.489 130.232 107.486C130.16 107.486 130.088 107.486 130.014 107.487C129.44 107.474 128.915 107.33 128.506 106.906C128.055 106.348 128.028 105.804 128.026 105.11C128.026 105.024 128.025 104.937 128.025 104.848C128.024 104.666 128.023 104.483 128.024 104.301C128.023 104.022 128.02 103.744 128.018 103.466C128.017 103.288 128.017 103.11 128.017 102.933C128.016 102.85 128.015 102.767 128.013 102.682C128.016 102.195 128.061 101.896 128.352 101.501C128.71 101.169 128.981 101.033 129.47 101.03Z" fill="black"/>
<path d="M138.938 103.153C139.124 105.884 139.124 105.884 138.511 106.588C138.378 106.73 138.243 106.865 138.101 106.998C137.861 107.23 137.662 107.495 137.455 107.756C137.374 107.856 137.292 107.956 137.21 108.056C136.898 108.44 136.604 108.837 136.31 109.235C135.682 110.077 135.051 110.919 134.396 111.741C133.365 112.942 133.365 112.942 133.007 114.415C133.093 114.752 133.248 114.897 133.532 115.091C133.796 115.179 134.008 115.178 134.286 115.181C134.34 115.182 134.393 115.183 134.448 115.184C134.625 115.186 134.802 115.188 134.978 115.19C135.101 115.191 135.223 115.193 135.346 115.194C135.669 115.199 135.991 115.202 136.314 115.206C136.643 115.21 136.972 115.214 137.301 115.218C137.947 115.226 138.592 115.234 139.238 115.241C139.238 115.836 139.238 116.43 139.238 117.043C136.191 117.043 133.143 117.043 130.003 117.043C130.003 114.304 130.003 114.304 130.765 113.501C130.814 113.453 130.863 113.406 130.914 113.357C131.135 113.133 131.313 112.882 131.496 112.627C131.569 112.529 131.642 112.43 131.716 112.332C131.754 112.281 131.792 112.23 131.832 112.177C132.068 111.863 132.308 111.551 132.547 111.238C132.981 110.671 133.408 110.099 133.831 109.522C134.115 109.135 134.402 108.75 134.691 108.367C135.52 107.411 135.52 107.411 135.86 106.269C135.805 105.908 135.671 105.73 135.409 105.481C135.157 105.397 134.962 105.394 134.697 105.39C134.647 105.389 134.598 105.389 134.548 105.388C134.386 105.386 134.224 105.384 134.062 105.382C133.949 105.38 133.837 105.379 133.724 105.377C133.428 105.373 133.132 105.369 132.837 105.366C132.535 105.362 132.233 105.358 131.931 105.354C131.338 105.345 130.746 105.338 130.154 105.33C130.154 104.637 130.154 103.943 130.154 103.228C130.843 103.215 131.533 103.203 132.223 103.191C132.275 103.19 132.326 103.189 132.38 103.188C134.566 103.151 136.751 103.144 138.938 103.153Z" fill="#AADCE7"/>
<path d="M145.531 95.1946C145.71 95.1929 145.71 95.1929 145.893 95.1911C146.024 95.1909 146.154 95.1907 146.289 95.1905C146.428 95.1895 146.568 95.1886 146.707 95.1875C147.085 95.1849 147.464 95.1836 147.842 95.1827C148.078 95.1821 148.315 95.1813 148.551 95.1805C149.292 95.1777 150.032 95.1758 150.773 95.1751C151.626 95.1742 152.48 95.1707 153.334 95.165C153.994 95.1607 154.655 95.1587 155.316 95.1584C155.71 95.1582 156.104 95.157 156.498 95.1535C156.869 95.1502 157.24 95.1498 157.612 95.1515C157.812 95.1518 158.012 95.1491 158.212 95.1462C158.897 95.1525 159.336 95.2031 159.857 95.6656C160.647 96.4786 160.745 97.1706 160.751 98.27C160.752 98.3917 160.753 98.5135 160.755 98.6389C160.757 98.896 160.758 99.1532 160.758 99.4103C160.759 99.8012 160.766 100.192 160.773 100.583C160.774 100.833 160.775 101.084 160.776 101.335C160.778 101.45 160.781 101.566 160.784 101.685C160.777 102.545 160.528 103.067 160.004 103.741C159.935 103.831 159.935 103.831 159.864 103.923C159.741 104.075 159.613 104.221 159.484 104.367C159.389 104.476 159.295 104.585 159.2 104.694C159.153 104.749 159.106 104.804 159.057 104.861C158.775 105.194 158.508 105.54 158.24 105.884C157.959 106.246 157.674 106.605 157.386 106.962C156.521 108.034 155.695 109.136 154.89 110.254C154.849 110.311 154.808 110.368 154.766 110.426C154.571 110.699 154.404 110.968 154.259 111.27C154.347 111.267 154.435 111.264 154.526 111.261C155.314 111.234 156.102 111.21 156.891 111.189C157.32 111.177 157.748 111.163 158.177 111.147C158.357 111.142 158.536 111.138 158.716 111.134C158.795 111.13 158.874 111.126 158.956 111.122C159.568 111.113 160.001 111.317 160.499 111.666C160.923 112.101 161.118 112.539 161.121 113.146C161.122 113.24 161.123 113.335 161.124 113.432C161.124 113.584 161.124 113.584 161.124 113.739C161.124 113.844 161.124 113.949 161.125 114.058C161.125 114.28 161.125 114.502 161.125 114.724C161.125 115.063 161.127 115.401 161.13 115.74C161.13 115.956 161.13 116.172 161.13 116.389C161.131 116.489 161.132 116.59 161.133 116.693C161.128 117.361 161.074 117.969 160.63 118.503C160.572 118.548 160.515 118.592 160.456 118.637C160.399 118.683 160.342 118.729 160.283 118.776C159.882 119.046 159.604 119.12 159.116 119.122C158.934 119.123 158.934 119.123 158.749 119.124C158.615 119.124 158.481 119.124 158.347 119.124C158.206 119.125 158.064 119.125 157.923 119.126C157.54 119.128 157.156 119.128 156.772 119.129C156.533 119.129 156.293 119.129 156.053 119.13C155.216 119.131 154.379 119.132 153.542 119.132C152.762 119.132 151.983 119.134 151.203 119.137C150.533 119.14 149.864 119.141 149.194 119.141C148.794 119.141 148.394 119.141 147.995 119.143C147.618 119.145 147.242 119.145 146.866 119.144C146.728 119.144 146.59 119.144 146.453 119.145C145.589 119.152 144.901 119.135 144.252 118.505C144.185 118.408 144.185 118.408 144.118 118.309C144.072 118.245 144.026 118.181 143.979 118.115C143.75 117.723 143.635 117.382 143.628 116.928C143.625 116.789 143.625 116.789 143.622 116.646C143.621 116.546 143.62 116.446 143.619 116.343C143.618 116.187 143.618 116.187 143.616 116.027C143.614 115.807 143.613 115.586 143.612 115.366C143.61 115.031 143.604 114.697 143.598 114.363C143.577 112.289 143.577 112.289 144.254 111.369C144.311 111.286 144.367 111.204 144.426 111.119C144.605 110.868 144.793 110.626 144.984 110.384C145.125 110.203 145.266 110.022 145.407 109.841C145.478 109.75 145.55 109.658 145.623 109.564C145.969 109.122 146.31 108.676 146.65 108.23C146.716 108.144 146.781 108.058 146.849 107.969C147.327 107.341 147.79 106.704 148.248 106.061C148.658 105.49 149.09 104.939 149.534 104.394C149.792 104.085 149.792 104.085 149.999 103.741C149.944 103.741 149.889 103.741 149.833 103.741C149.258 103.739 148.682 103.734 148.107 103.726C147.893 103.724 147.678 103.723 147.464 103.722C147.155 103.721 146.845 103.717 146.536 103.712C146.442 103.713 146.347 103.713 146.25 103.714C145.492 103.697 144.799 103.506 144.259 102.947C143.664 102.211 143.628 101.494 143.626 100.578C143.626 100.464 143.625 100.35 143.624 100.233C143.623 99.9918 143.623 99.7511 143.623 99.5104C143.622 99.143 143.619 98.7757 143.615 98.4083C143.614 98.174 143.614 97.9397 143.614 97.7054C143.612 97.596 143.611 97.4866 143.61 97.3739C143.613 96.7322 143.672 96.3379 144.056 95.8167C144.529 95.3788 144.886 95.1982 145.531 95.1946Z" fill="black"/>
<path d="M158.023 97.9959C158.268 101.599 158.268 101.599 157.46 102.528C157.285 102.715 157.106 102.894 156.919 103.068C156.602 103.375 156.339 103.724 156.067 104.069C155.959 104.201 155.851 104.333 155.743 104.464C155.332 104.971 154.944 105.494 154.556 106.02C153.727 107.132 152.895 108.242 152.031 109.327C150.67 110.911 150.67 110.911 150.197 112.855C150.311 113.299 150.515 113.49 150.891 113.746C151.239 113.862 151.518 113.861 151.885 113.866C151.956 113.866 152.027 113.867 152.099 113.868C152.332 113.872 152.566 113.874 152.799 113.877C152.96 113.879 153.122 113.881 153.284 113.883C153.709 113.888 154.135 113.893 154.56 113.898C154.995 113.903 155.429 113.908 155.863 113.914C156.715 113.925 157.567 113.935 158.419 113.944C158.419 114.729 158.419 115.513 158.419 116.322C154.398 116.322 150.378 116.322 146.235 116.322C146.235 112.709 146.235 112.709 147.24 111.649C147.305 111.586 147.37 111.523 147.436 111.458C147.727 111.163 147.962 110.832 148.204 110.496C148.3 110.366 148.397 110.236 148.495 110.106C148.545 110.038 148.595 109.971 148.647 109.902C148.959 109.487 149.275 109.075 149.591 108.663C150.163 107.914 150.727 107.16 151.285 106.399C151.659 105.888 152.038 105.38 152.42 104.874C153.513 103.613 153.513 103.613 153.962 102.107C153.889 101.631 153.713 101.396 153.367 101.067C153.035 100.956 152.777 100.952 152.427 100.947C152.362 100.946 152.297 100.945 152.231 100.944C152.017 100.941 151.803 100.939 151.589 100.936C151.441 100.934 151.292 100.932 151.144 100.93C150.754 100.925 150.363 100.92 149.973 100.915C149.575 100.91 149.176 100.904 148.778 100.899C147.996 100.888 147.215 100.878 146.433 100.869C146.433 99.9533 146.433 99.038 146.433 98.0949C147.343 98.0778 148.253 98.0611 149.163 98.0454C149.232 98.0442 149.3 98.043 149.37 98.0418C152.255 97.9925 155.138 97.9843 158.023 97.9959Z" fill="#AADCE7"/>
<path d="M166.317 88.0644C166.556 88.0622 166.556 88.0622 166.799 88.0599C166.974 88.0596 167.148 88.0593 167.328 88.059C167.513 88.0577 167.699 88.0564 167.885 88.055C168.389 88.0515 168.893 88.0498 169.398 88.0487C169.713 88.0479 170.028 88.0468 170.344 88.0456C171.331 88.042 172.318 88.0394 173.306 88.0384C174.444 88.0372 175.582 88.0326 176.721 88.025C177.601 88.0192 178.482 88.0166 179.363 88.0162C179.889 88.016 180.414 88.0144 180.94 88.0097C181.435 88.0053 181.929 88.0048 182.424 88.0071C182.691 88.0074 182.958 88.0038 183.225 88C184.137 88.0084 184.723 88.0758 185.419 88.6925C186.471 89.7764 186.602 90.6992 186.61 92.165C186.612 92.3273 186.613 92.4897 186.615 92.6569C186.617 92.9997 186.619 93.3425 186.619 93.6854C186.621 94.2066 186.63 94.7275 186.639 95.2487C186.641 95.5828 186.642 95.917 186.643 96.2511C186.646 96.4054 186.65 96.5597 186.654 96.7186C186.644 97.8653 186.313 98.5611 185.614 99.4602C185.521 99.5803 185.521 99.5803 185.427 99.7029C185.264 99.9046 185.092 100.099 184.921 100.294C184.794 100.439 184.668 100.585 184.543 100.731C184.479 100.804 184.416 100.878 184.351 100.953C183.975 101.398 183.62 101.858 183.262 102.317C182.887 102.8 182.507 103.278 182.123 103.754C180.97 105.184 179.869 106.653 178.796 108.144C178.741 108.22 178.686 108.296 178.63 108.373C178.37 108.737 178.148 109.096 177.954 109.498C178.071 109.494 178.189 109.49 178.31 109.486C179.361 109.451 180.412 109.418 181.463 109.39C182.035 109.374 182.606 109.355 183.177 109.334C183.417 109.328 183.657 109.322 183.897 109.316C184.002 109.311 184.108 109.306 184.216 109.301C185.032 109.289 185.61 109.561 186.275 110.026C186.839 110.606 187.099 111.191 187.103 111.999C187.105 112.126 187.106 112.252 187.107 112.382C187.107 112.584 187.107 112.584 187.107 112.79C187.107 112.93 187.108 113.071 187.108 113.215C187.109 113.511 187.109 113.808 187.109 114.104C187.108 114.555 187.111 115.007 187.115 115.458C187.115 115.746 187.115 116.035 187.115 116.323C187.116 116.457 187.117 116.591 187.119 116.729C187.113 117.62 187.041 118.431 186.448 119.143C186.372 119.202 186.296 119.261 186.217 119.321C186.141 119.382 186.065 119.443 185.986 119.506C185.452 119.867 185.081 119.965 184.429 119.968C184.187 119.969 184.187 119.969 183.94 119.971C183.762 119.971 183.583 119.971 183.405 119.971C183.216 119.971 183.028 119.972 182.84 119.973C182.328 119.976 181.817 119.976 181.305 119.976C180.986 119.977 180.666 119.977 180.346 119.978C179.23 119.98 178.114 119.981 176.997 119.981C175.958 119.981 174.919 119.984 173.88 119.988C172.987 119.991 172.094 119.993 171.2 119.993C170.667 119.993 170.134 119.993 169.601 119.996C169.1 119.999 168.598 119.999 168.096 119.997C167.913 119.997 167.729 119.997 167.546 119.999C166.395 120.008 165.477 119.986 164.611 119.144C164.522 119.015 164.522 119.015 164.432 118.884C164.371 118.798 164.31 118.713 164.248 118.624C163.942 118.103 163.789 117.648 163.779 117.043C163.775 116.856 163.775 116.856 163.771 116.666C163.77 116.533 163.769 116.4 163.768 116.262C163.765 116.054 163.765 116.054 163.763 115.841C163.761 115.547 163.759 115.253 163.758 114.959C163.755 114.513 163.747 114.068 163.739 113.623C163.711 110.858 163.711 110.858 164.614 109.63C164.689 109.52 164.765 109.41 164.843 109.297C165.082 108.962 165.332 108.64 165.588 108.318C165.776 108.076 165.963 107.835 166.151 107.593C166.246 107.471 166.342 107.35 166.44 107.224C166.901 106.634 167.355 106.04 167.808 105.445C167.896 105.33 167.984 105.215 168.074 105.097C168.712 104.26 169.329 103.41 169.939 102.554C170.486 101.792 171.062 101.057 171.655 100.331C171.998 99.918 171.998 99.918 172.274 99.4602C172.201 99.46 172.128 99.4598 172.053 99.4596C171.285 99.457 170.518 99.4498 169.751 99.44C169.466 99.437 169.18 99.4351 168.894 99.4344C168.482 99.4331 168.069 99.4277 167.657 99.4215C167.531 99.422 167.405 99.4225 167.275 99.4231C166.265 99.4015 165.341 99.1468 164.621 98.4011C163.827 97.4199 163.779 96.4637 163.777 95.2425C163.776 95.0904 163.775 94.9384 163.774 94.7817C163.773 94.4608 163.772 94.1398 163.772 93.8189C163.772 93.329 163.767 92.8393 163.762 92.3494C163.761 92.037 163.761 91.7246 163.761 91.4122C163.759 91.2664 163.757 91.1205 163.755 90.9702C163.76 90.1146 163.838 89.5889 164.35 88.894C164.981 88.3101 165.457 88.0693 166.317 88.0644Z" fill="black"/>
<path d="M182.973 91.7997C183.299 96.604 183.299 96.604 182.221 97.8422C181.989 98.0922 181.75 98.3301 181.5 98.5629C181.078 98.9716 180.727 99.4371 180.364 99.8977C180.221 100.073 180.077 100.249 179.933 100.424C179.384 101.1 178.867 101.798 178.35 102.498C177.245 103.981 176.136 105.461 174.983 106.908C173.169 109.02 173.169 109.02 172.538 111.611C172.69 112.204 172.963 112.458 173.463 112.8C173.927 112.955 174.3 112.953 174.789 112.959C174.883 112.961 174.978 112.962 175.074 112.963C175.385 112.967 175.696 112.971 176.007 112.974C176.223 112.977 176.438 112.979 176.654 112.982C177.221 112.989 177.789 112.996 178.356 113.002C178.935 113.009 179.514 113.016 180.093 113.024C181.229 113.038 182.365 113.051 183.501 113.064C183.501 114.11 183.501 115.156 183.501 116.234C178.14 116.234 172.779 116.234 167.255 116.234C167.255 111.417 167.255 111.417 168.596 110.004C168.682 109.92 168.768 109.836 168.857 109.749C169.245 109.355 169.558 108.914 169.88 108.466C170.009 108.293 170.139 108.119 170.268 107.946C170.335 107.856 170.403 107.767 170.472 107.674C170.888 107.121 171.309 106.572 171.729 106.023C172.493 105.024 173.245 104.018 173.988 103.004C174.488 102.323 174.993 101.646 175.502 100.971C176.959 99.2891 176.959 99.2891 177.557 97.2809C177.461 96.6466 177.226 96.333 176.765 95.8941C176.322 95.7463 175.979 95.741 175.511 95.7349C175.425 95.7336 175.339 95.7323 175.25 95.7309C174.965 95.7267 174.679 95.7235 174.394 95.7202C174.196 95.7175 173.999 95.7147 173.801 95.7119C173.28 95.7046 172.76 95.6981 172.239 95.6917C171.708 95.6851 171.177 95.6777 170.646 95.6704C169.604 95.6562 168.562 95.6429 167.52 95.6299C167.52 94.4095 167.52 93.1891 167.52 91.9317C168.733 91.9089 169.946 91.8866 171.16 91.8657C171.251 91.8641 171.342 91.8626 171.436 91.861C175.282 91.7952 179.126 91.7842 182.973 91.7997Z" fill="#AADCE7"/>
<ellipse cx="51" cy="158.5" rx="13" ry="11.5" fill="#F4A99C"/>
<ellipse cx="127" cy="158.5" rx="13" ry="11.5" fill="#F4A99C"/>
<path d="M99.5625 0.0109006C99.6919 0.00738775 99.8214 0.0038749 99.9547 0.0002556C101.192 -0.00952011 102.286 0.259227 103.2 1.13217C103.952 2.03114 104.284 3.15888 104.292 4.31621C104.293 4.43809 104.293 4.43809 104.294 4.56244C104.296 4.82419 104.295 5.08585 104.294 5.34759C104.293 5.43749 104.293 5.52738 104.293 5.61999C104.286 7.02525 104.196 8.36425 103.892 9.73806C103.852 9.92577 103.852 9.92577 103.812 10.1173C103.563 11.2857 103.312 12.4548 103.011 13.611C102.474 15.6822 102.662 17.5751 103.272 19.6091C103.308 19.7318 103.345 19.8546 103.382 19.9811C103.51 20.4028 103.64 20.8236 103.771 21.2441C103.807 21.3588 103.807 21.3588 103.844 21.4758C104.763 24.4164 105.858 27.2789 106.995 30.1412C107.652 31.7942 108.286 33.4555 108.921 35.1168C109.128 35.6572 109.338 36.1963 109.549 36.7347C111.204 40.9701 112.611 45.3132 113.939 49.661C114.065 50.0664 114.196 50.4697 114.329 50.8727C115.431 54.2078 116.367 57.5999 117.197 61.0124C117.31 61.4765 117.436 61.9352 117.571 62.3934C117.814 63.2197 118.016 64.0551 118.222 64.8915C118.556 66.2462 118.926 67.5862 119.325 68.9228C119.522 69.5795 119.702 70.2399 119.88 70.9019C120.05 70.9396 120.05 70.9396 120.224 70.978C125.933 72.267 133.04 74.3671 136.442 79.5617C136.576 79.7823 136.707 80.0043 136.836 80.2278C136.892 80.3248 136.948 80.4217 137.006 80.5216C137.934 82.2458 138.258 84.299 137.782 86.2179C137.181 88.1007 136.274 89.5744 134.898 91.0072C134.793 91.1218 134.687 91.2364 134.578 91.3545C130.208 96.0084 122.867 98.1203 116.852 99.6065C116.716 99.6405 116.581 99.6745 116.441 99.7096C114.053 100.305 111.649 100.779 109.222 101.181C109.131 101.196 109.041 101.211 108.948 101.227C106.216 101.683 103.48 102.003 100.721 102.248C100.578 102.261 100.436 102.274 100.289 102.287C99.8737 102.324 99.4581 102.359 99.0425 102.395C98.8643 102.41 98.8643 102.41 98.6824 102.426C96.3892 102.613 94.0957 102.654 91.7959 102.655C91.512 102.655 91.2282 102.656 90.9443 102.656C90.3523 102.657 89.7603 102.657 89.1684 102.657C88.5718 102.657 87.9753 102.658 87.3788 102.659C83.8721 102.669 80.3825 102.635 76.8834 102.392C76.7397 102.382 76.596 102.373 76.4479 102.363C74.5869 102.236 72.7486 101.997 70.9031 101.728C70.484 101.668 70.0646 101.612 69.6448 101.556C61.3263 100.444 51.1272 98.6215 44.182 93.6718C44.0635 93.5875 43.945 93.5031 43.8229 93.4163C41.5709 91.7692 39.4675 89.682 38.4895 87.0104C38.4511 86.9104 38.4127 86.8105 38.3732 86.7076C37.8497 85.0555 37.8317 82.7593 38.6107 81.1968C38.6709 81.0684 38.7312 80.9401 38.7933 80.8079C39.2656 79.8655 39.8429 79.0703 40.5485 78.29C40.6392 78.1893 40.7299 78.0886 40.8234 77.9848C42.1693 76.5675 43.7973 75.5608 45.5143 74.6565C45.5886 74.6164 45.6629 74.5764 45.7395 74.5351C48.8005 72.8902 52.2021 71.7335 55.5944 71.005C55.9616 70.8923 56.0601 70.8345 56.2937 70.5385C56.4438 70.1681 56.4438 70.1681 56.5685 69.7361C56.5932 69.6561 56.6178 69.576 56.6432 69.4935C56.7221 69.2366 56.7993 68.9792 56.8765 68.7218C56.927 68.5562 56.9775 68.3906 57.0282 68.225C57.106 67.9704 57.1837 67.7158 57.2611 67.461C57.4484 66.8443 57.6406 66.2292 57.8355 65.6149C58.127 64.6957 58.4143 63.7754 58.7 62.8544C60.3282 57.6075 62.0268 52.3921 63.8519 47.2099C64.0455 46.66 64.2377 46.1097 64.4277 45.5586C66.3246 40.0571 68.561 34.6091 71.0699 29.3589C71.1929 29.0997 71.3159 28.8404 71.4389 28.5811C71.7967 27.8293 72.1591 27.0798 72.5233 26.331C72.5747 26.2246 72.6262 26.1182 72.6792 26.0086C73.4253 24.4696 74.2427 22.9784 75.0964 21.4966C75.2501 21.2264 75.4013 20.9555 75.5503 20.6827C76.2446 19.4175 77.0159 18.2166 77.8221 17.0202C77.9519 16.8266 78.0817 16.633 78.2116 16.4394C80.8183 12.5602 83.682 8.63075 87.2995 5.62011C87.3658 5.56423 87.4321 5.50836 87.5004 5.45079C90.9058 2.58856 94.9939 0.051643 99.5625 0.0109006Z" fill="#AADCE7"/>
<path d="M99.5625 0.0109006C99.6919 0.00738775 99.8214 0.0038749 99.9547 0.0002556C101.192 -0.00952011 102.286 0.259227 103.2 1.13217C103.952 2.03114 104.284 3.15888 104.292 4.31621C104.293 4.43809 104.293 4.43809 104.294 4.56244C104.296 4.82419 104.295 5.08585 104.294 5.34759C104.293 5.43749 104.293 5.52738 104.293 5.61999C104.286 7.02525 104.196 8.36425 103.892 9.73806C103.852 9.92577 103.852 9.92577 103.812 10.1173C103.563 11.2857 103.312 12.4548 103.011 13.611C102.474 15.6822 102.662 17.5751 103.272 19.6091C103.308 19.7318 103.345 19.8546 103.382 19.9811C103.51 20.4028 103.64 20.8236 103.771 21.2441C103.807 21.3588 103.807 21.3588 103.844 21.4758C104.763 24.4164 105.858 27.2789 106.995 30.1412C107.652 31.7942 108.286 33.4555 108.921 35.1168C109.128 35.6572 109.338 36.1963 109.549 36.7347C111.204 40.9701 112.611 45.3132 113.939 49.661C114.065 50.0664 114.196 50.4697 114.329 50.8727C115.431 54.2078 116.367 57.5999 117.197 61.0124C117.31 61.4765 117.436 61.9352 117.571 62.3934C117.814 63.2197 118.016 64.0551 118.222 64.8915C118.556 66.2462 118.926 67.5862 119.325 68.9228C119.522 69.5795 119.702 70.2399 119.88 70.9019C120.05 70.9396 120.05 70.9396 120.224 70.978C125.933 72.267 133.04 74.3671 136.442 79.5617C136.576 79.7823 136.707 80.0043 136.836 80.2278C136.892 80.3248 136.948 80.4217 137.006 80.5216C137.934 82.2458 138.258 84.299 137.782 86.2179C137.181 88.1007 136.274 89.5744 134.898 91.0072C134.793 91.1218 134.687 91.2364 134.578 91.3545C130.208 96.0084 122.867 98.1203 116.852 99.6065C116.716 99.6405 116.581 99.6745 116.441 99.7096C114.053 100.305 111.649 100.779 109.222 101.181C109.131 101.196 109.041 101.211 108.948 101.227C106.216 101.683 103.48 102.003 100.721 102.248C100.578 102.261 100.436 102.274 100.289 102.287C99.8737 102.324 99.4581 102.359 99.0425 102.395C98.8643 102.41 98.8643 102.41 98.6824 102.426C96.3892 102.613 94.0957 102.654 91.7959 102.655C91.512 102.655 91.2282 102.656 90.9443 102.656C90.3523 102.657 89.7603 102.657 89.1684 102.657C88.5718 102.657 87.9753 102.658 87.3788 102.659C83.8721 102.669 80.3825 102.635 76.8834 102.392C76.7397 102.382 76.596 102.373 76.4479 102.363C74.5869 102.236 72.7486 101.997 70.9031 101.728C70.484 101.668 70.0646 101.612 69.6448 101.556C61.3263 100.444 51.1272 98.6215 44.182 93.6718C44.0635 93.5875 43.945 93.5031 43.8229 93.4163C41.5709 91.7692 39.4675 89.682 38.4895 87.0104C38.4511 86.9104 38.4127 86.8105 38.3732 86.7076C37.8497 85.0555 37.8317 82.7593 38.6107 81.1968C38.6709 81.0684 38.7312 80.9401 38.7933 80.8079C39.2656 79.8655 39.8429 79.0703 40.5485 78.29C40.6392 78.1893 40.7299 78.0886 40.8234 77.9848C42.1693 76.5675 43.7973 75.5608 45.5143 74.6565C45.5886 74.6164 45.6629 74.5764 45.7395 74.5351C48.8005 72.8902 52.2021 71.7335 55.5944 71.005C55.9616 70.8923 56.0601 70.8345 56.2937 70.5385C56.4438 70.1681 56.4438 70.1681 56.5685 69.7361C56.5932 69.6561 56.6178 69.576 56.6432 69.4935C56.7221 69.2366 56.7993 68.9792 56.8765 68.7218C56.927 68.5562 56.9775 68.3906 57.0282 68.225C57.106 67.9704 57.1837 67.7158 57.2611 67.461C57.4484 66.8443 57.6406 66.2292 57.8355 65.6149C58.127 64.6957 58.4143 63.7754 58.7 62.8544C60.3282 57.6075 62.0268 52.3921 63.8519 47.2099C64.0455 46.66 64.2377 46.1097 64.4277 45.5586C66.3246 40.0571 68.561 34.6091 71.0699 29.3589C71.1929 29.0997 71.3159 28.8404 71.4389 28.5811C71.7967 27.8293 72.1591 27.0798 72.5233 26.331C72.5747 26.2246 72.6262 26.1182 72.6792 26.0086C73.4253 24.4696 74.2427 22.9784 75.0964 21.4966C75.2501 21.2264 75.4013 20.9555 75.5503 20.6827C76.2446 19.4175 77.0159 18.2166 77.8221 17.0202C77.9519 16.8266 78.0817 16.633 78.2116 16.4394C80.8183 12.5602 83.682 8.63075 87.2995 5.62011C87.3658 5.56423 87.4321 5.50836 87.5004 5.45079C90.9058 2.58856 94.9939 0.051643 99.5625 0.0109006ZM99.0705 3.22758C95.8678 3.61591 93.0346 5.46858 90.5696 7.43685C90.4577 7.52522 90.3457 7.61359 90.2304 7.70463C87.8292 9.62974 85.7667 11.8914 83.9469 14.3683C83.7704 14.6051 83.59 14.8385 83.4091 15.0719C77.0218 23.3621 73.0479 33.0691 69.1093 42.6817C69.0583 42.8058 69.0072 42.9299 68.9546 43.0577C68.3432 44.5604 67.8262 46.0974 67.3024 47.6322C67.1433 48.0982 66.9837 48.5641 66.8242 49.0299C66.7931 49.1207 66.762 49.2115 66.7299 49.305C66.4831 50.025 66.2344 50.7443 65.983 51.4627C65.9496 51.5581 65.9162 51.6534 65.8818 51.7517C65.7138 52.2302 65.5404 52.7062 65.3622 53.181C65.2049 53.6092 65.0704 54.0402 64.9457 54.479C64.525 55.9578 64.0163 57.4054 63.5106 58.8569C63.0457 60.1935 62.6059 61.5306 62.2292 62.8949C62.0495 63.5454 61.8497 64.1852 61.6303 64.8233C61.3383 65.6798 61.0779 66.5425 60.8279 67.4122C60.5575 68.3531 60.2761 69.2853 59.956 70.2107C59.5053 71.5599 59.112 72.9285 58.7072 74.2921C58.4377 75.1993 58.1597 76.1019 57.8553 76.998C57.3969 78.2327 57.3969 78.2327 57.5048 79.5011C58.6727 81.5523 62.1646 82.4108 64.285 82.997C64.7383 83.1224 65.1815 83.2718 65.6272 83.4223C66.6164 83.7437 67.6323 83.9583 68.6475 84.1793C68.7287 84.197 68.8099 84.2147 68.8935 84.2329C70.7595 84.638 72.6306 84.9888 74.5217 85.2542C74.6131 85.2671 74.7045 85.2799 74.7987 85.2932C76.3351 85.5069 77.8725 85.656 79.4193 85.7689C79.5168 85.776 79.6142 85.7832 79.7147 85.7905C80.2901 85.8319 80.8657 85.8692 81.4417 85.9033C81.629 85.9144 81.8162 85.926 82.0035 85.9379C84.0548 86.0678 86.1087 86.0682 88.1633 86.0705C88.5634 86.071 88.9635 86.0727 89.3636 86.0755C92.0212 86.0935 94.6345 85.986 97.279 85.7202C97.7959 85.6703 98.313 85.6304 98.831 85.5942C100.516 85.473 102.175 85.1818 103.839 84.8993C104.185 84.8419 104.531 84.7887 104.879 84.7399C106.543 84.5053 108.169 84.1114 109.8 83.7135C110.101 83.6407 110.402 83.5706 110.704 83.5032C113.089 82.9341 117.009 81.87 118.426 79.7434C118.58 78.7528 118.306 77.8277 118.027 76.8855C117.929 76.5502 117.835 76.2138 117.742 75.8771C117.43 74.7482 117.113 73.621 116.776 72.4991C116.528 71.6696 116.316 70.8333 116.109 69.9926C115.784 68.6758 115.413 67.373 115.037 66.07C114.994 65.9218 114.951 65.7737 114.907 65.621C114.823 65.3296 114.739 65.0383 114.654 64.7472C114.422 63.9419 114.218 63.1356 114.034 62.3179C113.896 61.7291 113.729 61.1495 113.559 60.5691C113.526 60.4549 113.493 60.3407 113.459 60.223C113.379 59.9472 113.299 59.6714 113.218 59.3958C112.815 59.5302 112.732 59.629 112.469 59.9484C112.083 60.4051 111.673 60.8255 111.244 61.2414C110.91 61.5873 110.8 61.7802 110.751 62.2648C110.781 63.4472 111.2 64.6182 111.575 65.7295C111.971 66.917 112.335 68.0218 111.75 69.2138C111.457 69.6666 111.204 69.8983 110.675 70.0541C109.977 70.0962 109.469 70.0144 108.828 69.7286C108.744 69.6929 108.66 69.6572 108.573 69.6204C107.97 69.3603 107.377 69.0787 106.785 68.7951C106.632 68.7226 106.479 68.6501 106.327 68.5776C106.024 68.4334 105.722 68.2866 105.421 68.1381C105.281 68.0709 105.141 68.0037 104.996 67.9345C104.871 67.8733 104.746 67.8121 104.617 67.7491C104.196 67.6125 103.953 67.6401 103.529 67.7528C103.267 67.8955 103.267 67.8955 103.022 68.0935C99.3127 70.8079 99.3127 70.8079 97.8371 70.7103C97.2877 70.5957 96.9742 70.3137 96.6406 69.8799C96.2363 68.5997 96.588 67.155 96.8071 65.8604C97.2596 64.0285 97.2596 64.0285 96.956 62.3012C96.7406 62.0712 96.5163 61.8778 96.2696 61.6819C96.1017 61.5377 95.9339 61.3934 95.7663 61.249C95.6846 61.1807 95.6029 61.1124 95.5188 61.0421C95.228 60.7935 94.9611 60.526 94.6951 60.2512C93.8829 59.3716 93.8829 59.3716 92.8708 58.7902C92.7421 58.5858 92.7421 58.5858 92.6286 58.3058C92.5836 58.2008 92.5387 58.0959 92.4923 57.9878C92.3082 57.2775 92.2698 56.6414 92.5605 55.9591C92.9859 55.5233 93.3889 55.3509 93.9609 55.1567C94.0783 55.1157 94.1957 55.0746 94.3166 55.0323C95.8891 54.55 97.5383 54.4571 99.1689 54.3089C99.3471 53.8835 99.4865 53.4609 99.6074 53.0159C99.6433 52.8856 99.6791 52.7553 99.716 52.6211C99.7899 52.3499 99.8637 52.0786 99.9374 51.8073C100.867 48.4309 100.867 48.4309 101.871 47.6021C102.396 47.306 102.948 47.2792 103.529 47.4053C104.932 48.0639 105.689 50.3433 106.335 51.6417C107.027 53.1045 107.027 53.1045 108.253 54.0667C108.601 54.1002 108.941 54.1227 109.29 54.1348C109.485 54.1435 109.68 54.1523 109.876 54.1613C110.018 54.1676 110.018 54.1676 110.163 54.1741C110.699 54.2014 111.232 54.2553 111.765 54.3089C111.535 53.3468 111.271 52.4036 110.967 51.4627C110.926 51.334 110.884 51.2053 110.842 51.0727C110.708 50.6575 110.574 50.2425 110.44 49.8276C110.347 49.5395 110.255 49.2514 110.162 48.9633C109.626 47.3011 109.085 45.6407 108.533 43.9837C108.505 43.8995 108.477 43.8152 108.448 43.7284C107.631 41.2787 106.8 38.8198 105.789 36.4423C105.522 35.8102 105.282 35.1688 105.042 34.526C104.679 33.5533 104.308 32.5838 103.936 31.6147C103.856 31.4063 103.776 31.1979 103.696 30.9895C103.579 30.6819 103.461 30.3745 103.343 30.0672C103.308 29.9756 103.273 29.8839 103.237 29.7895C103.024 29.2368 102.794 28.6946 102.548 28.1556C102.363 27.7327 102.216 27.2977 102.068 26.8609C101.807 26.1009 101.541 25.3432 101.266 24.5885C100.589 22.7296 99.9686 20.876 99.5322 18.9429C99.5091 18.8476 99.486 18.7523 99.4622 18.654C98.9732 16.4915 99.2003 14.2105 99.809 12.1024C100.462 9.79902 100.891 7.53256 100.917 5.13564C100.92 4.9859 100.923 4.83617 100.926 4.6819C100.925 4.47184 100.925 4.47184 100.925 4.25755C100.925 4.13202 100.925 4.00649 100.925 3.87716C100.892 3.54805 100.892 3.54805 100.645 3.33829C100.143 3.07193 99.616 3.17985 99.0705 3.22758Z" fill="black"/>
<path d="M120.728 74.6565C121.435 74.735 122.085 74.9148 122.764 75.1258C122.865 75.1569 122.967 75.188 123.072 75.22C123.277 75.2827 123.482 75.3458 123.687 75.4091C124.004 75.5063 124.323 75.6005 124.641 75.6945C125.339 75.9039 125.998 76.174 126.662 76.4732C126.764 76.5189 126.865 76.5645 126.97 76.6116C128.484 77.2988 129.936 78.0092 131.265 79.0167C131.334 79.0691 131.404 79.1215 131.476 79.1755C132.834 80.2169 134.263 81.6126 134.535 83.3769C134.61 84.5169 134.618 85.5029 134.05 86.5259C133.999 86.6268 133.947 86.7276 133.893 86.8315C132.873 88.6248 131.18 89.9464 129.448 91.0072C129.372 91.0536 129.297 91.1 129.219 91.1478C127.423 92.2335 125.489 93.185 123.516 93.9012C123.171 94.0272 122.833 94.1639 122.494 94.3039C119.336 95.6021 115.933 96.3164 112.613 97.063C112.442 97.1017 112.442 97.1017 112.268 97.1412C112.165 97.1642 112.062 97.1873 111.957 97.2111C111.871 97.2303 111.786 97.2495 111.698 97.2693C110.865 97.4465 110.032 97.5964 109.189 97.7192C109.085 97.7346 108.981 97.7501 108.873 97.7659C108.654 97.7983 108.435 97.8305 108.217 97.8626C107.9 97.9092 107.584 97.9566 107.267 98.0042C104.852 98.3674 102.45 98.7122 100.01 98.8568C99.5285 98.8878 99.0482 98.9295 98.5676 98.9724C97.4264 99.0685 96.2866 99.1453 95.1421 99.1881C94.9382 99.1958 94.9382 99.1958 94.7303 99.2036C93.3217 99.2534 91.9137 99.2652 90.5043 99.2677C90.3703 99.2681 90.2362 99.2684 90.0981 99.2688C89.3881 99.2706 88.6781 99.2717 87.9681 99.2722C87.3942 99.2728 86.8203 99.2744 86.2463 99.2772C82.7882 99.2935 79.3668 99.2287 75.9229 98.9031C75.4992 98.8636 75.0753 98.8271 74.6514 98.7903C72.6575 98.6165 70.6958 98.3179 68.7241 97.9831C68.317 97.9162 67.9098 97.8555 67.5012 97.7982C60.9521 96.8771 53.91 95.1338 48.0578 91.9761C47.94 91.9159 47.8223 91.8556 47.701 91.7935C46.3054 91.0659 45.0752 90.1573 43.9398 89.0693C43.845 88.9822 43.7503 88.8951 43.6526 88.8054C42.4023 87.6204 41.5363 86.2171 41.4481 84.4745C41.4175 83.0082 41.8024 82.0422 42.7665 80.9243C42.9531 80.7299 43.1423 80.538 43.3342 80.349C43.4162 80.2672 43.4981 80.1853 43.5826 80.1011C46.1708 77.664 49.7884 76.1466 53.1446 75.141C53.2716 75.1026 53.3985 75.0641 53.5293 75.0246C54.0658 74.8697 54.5209 74.7586 55.0825 74.7776C54.9671 75.3285 54.8432 75.8736 54.6841 76.4136C54.2142 78.0193 53.8822 79.5289 54.6482 81.1116C55.8015 83.0773 58.2939 84.2907 60.3601 85.0412C60.7459 85.1829 61.1276 85.3324 61.5097 85.4836C62.3209 85.7963 63.142 86.0505 63.977 86.2912C64.179 86.3504 64.179 86.3504 64.3851 86.4107C64.6586 86.4906 64.9324 86.5699 65.2063 86.6487C65.4813 86.7282 65.756 86.8091 66.0302 86.8914C67.1092 87.2111 68.1938 87.4535 69.2985 87.6614C69.3929 87.6792 69.4873 87.6971 69.5845 87.7155C72.1265 88.1914 74.6882 88.5019 77.2576 88.7871C77.5895 88.8248 77.921 88.8646 78.2526 88.9054C84.6338 89.6844 91.3961 89.6852 97.7789 88.912C98.2999 88.8503 98.8161 88.8118 99.3403 88.7919C100.834 88.7346 102.286 88.4766 103.756 88.214C103.894 88.1897 104.032 88.1654 104.173 88.1404C113.719 86.7227 113.719 86.7227 121.261 81.3922C122.033 80.1273 121.78 78.6434 121.448 77.2694C121.296 76.6788 121.137 76.0908 120.97 75.5043C120.944 75.4138 120.919 75.3233 120.892 75.23C120.838 75.0387 120.783 74.8476 120.728 74.6565Z" fill="#AADCE7"/>
<path d="M84.9984 24.9984C86.136 25.4921 86.7633 26.8647 87.3071 27.9128C87.9692 29.2023 87.9692 29.2023 88.8741 30.3276C89.2267 30.344 89.5768 30.3531 89.9296 30.3574C90.15 30.3614 90.3704 30.3654 90.5908 30.3694C90.9383 30.3751 91.2859 30.3805 91.6335 30.3853C91.9689 30.3902 92.3042 30.3964 92.6396 30.4028C92.7416 30.4038 92.8435 30.4048 92.9486 30.4059C93.8517 30.4243 94.933 30.4583 95.6566 31.0542C96.03 31.4882 96.2459 31.8688 96.2082 32.4556C95.8187 34.1618 94.439 35.893 93.2381 37.1148C92.9517 37.4354 92.9517 37.4354 92.8332 37.8367C92.8596 38.0937 92.9137 38.3174 92.992 38.5635C93.015 38.6414 93.0381 38.7192 93.0618 38.7995C93.1399 39.0444 93.2273 39.2841 93.3175 39.5248C93.3492 39.6131 93.381 39.7014 93.4136 39.7923C93.5782 40.2492 93.7496 40.7027 93.9283 41.1542C94.3507 42.243 94.6303 43.1927 94.4454 44.3771C94.1781 44.9733 93.8227 45.3049 93.2343 45.5882C91.3232 45.8569 89.168 45.0071 87.4618 44.2304C87.3558 44.1839 87.2498 44.1373 87.1406 44.0894C87.0461 44.046 86.9517 44.0026 86.8544 43.9579C86.4606 43.8666 86.3246 43.9412 85.9673 44.1348C85.6109 44.3738 85.2668 44.6281 84.9227 44.8842C84.1181 45.4742 83.309 46.0404 82.4549 46.5572C82.3423 46.6257 82.2298 46.6942 82.1138 46.7649C81.284 47.2665 80.7797 47.5144 79.7903 47.405C79.2423 47.1359 78.9497 46.8686 78.7003 46.3149C78.6413 45.8755 78.6431 45.4406 78.6473 44.9978C78.6477 44.868 78.6481 44.7382 78.6485 44.6044C78.6767 42.9 78.9324 41.2156 79.1848 39.5324C79.1115 39.497 79.0382 39.4617 78.9627 39.4253C77.985 38.9219 77.1114 38.1018 76.3097 37.3608C76.001 37.0783 75.6811 36.8128 75.3545 36.5513C75.015 36.2089 74.9104 35.8663 74.9078 35.3917C74.9308 34.6924 75.006 34.0303 75.512 33.5102C76.188 33.0124 76.9655 32.7808 77.7569 32.5337C78.4117 32.3237 79.0511 32.0829 79.6692 31.7809C79.7476 31.75 79.826 31.719 79.9067 31.6871C80.3601 31.4701 80.5879 31.2805 80.8079 30.8207C80.958 30.3751 81.0865 29.9267 81.2059 29.4722C82.5237 24.745 82.5237 24.745 84.9984 24.9984Z" fill="black"/>
<path d="M76.0513 55.3841C76.8898 55.9328 77.1849 56.8091 77.421 57.7379C77.472 57.9296 77.5231 58.1214 77.5743 58.3132C77.6128 58.4602 77.6128 58.4602 77.6521 58.6103C77.7831 59.1078 77.9199 59.6037 78.0568 60.0996C78.0813 60.19 78.1058 60.2804 78.1311 60.3735C78.197 60.6135 78.2668 60.8524 78.3369 61.0913C78.3581 61.1943 78.3793 61.2974 78.4011 61.4036C78.6064 61.7418 78.6696 61.7594 79.0341 61.8691C79.2302 61.9166 79.427 61.9614 79.6243 62.0039C79.7289 62.0288 79.8335 62.0537 79.9412 62.0793C80.2765 62.1586 80.6124 62.2345 80.9485 62.31C81.2814 62.3864 81.6142 62.4636 81.9467 62.542C82.1534 62.5906 82.3605 62.638 82.5679 62.684C83.3782 62.8716 84.1984 63.101 84.819 63.6745C85.1723 64.3121 85.112 64.9908 84.9983 65.6937C84.7883 66.1399 84.5056 66.4453 84.1505 66.7837C84.0626 66.8701 83.9747 66.9564 83.8841 67.0454C83.2432 67.646 82.5548 68.1879 81.8597 68.7239C81.7232 68.8292 81.5876 68.9356 81.4529 69.0431C81.3074 69.1564 81.1579 69.2647 81.0057 69.3688C80.5578 69.6961 80.5578 69.6961 80.3272 70.1845C80.3078 70.4762 80.3157 70.7539 80.3353 71.0455C80.3389 71.1488 80.3424 71.2521 80.346 71.3586C80.3696 71.967 80.424 72.571 80.4882 73.1764C80.5316 73.7629 80.5457 74.3485 80.5549 74.9364C80.5585 75.0522 80.562 75.168 80.5657 75.2873C80.5716 75.9864 80.5181 76.4129 80.0325 76.9575C79.4477 77.2949 78.8854 77.4366 78.2158 77.3209C77.4666 77.0356 76.8264 76.5604 76.1871 76.087C76.0453 75.9832 76.0453 75.9832 75.9006 75.8772C75.6221 75.6729 75.3443 75.4675 75.0668 75.2619C74.9162 75.151 74.7656 75.0402 74.615 74.9293C73.5876 74.1672 73.5876 74.1672 73.25 73.8085C72.7976 73.9855 72.3548 74.1786 71.9125 74.3795C71.7724 74.4427 71.6323 74.5058 71.4879 74.5709C71.1963 74.7026 70.9048 74.8347 70.6136 74.9674C68.4659 75.9324 68.4659 75.9324 67.4819 75.8902C67.3804 75.8869 67.2789 75.8836 67.1743 75.8802C67.101 75.876 67.0276 75.8718 66.952 75.8675C66.952 75.7875 66.952 75.7076 66.952 75.6252C66.882 75.6177 66.8121 75.6103 66.74 75.6025C66.3407 75.4583 66.2139 75.2526 65.983 74.8985C65.9081 74.5558 65.8736 74.2897 65.8695 73.9447C65.8683 73.8484 65.8672 73.752 65.866 73.6527C65.9155 72.3407 66.4534 71.1188 66.9227 69.9091C67.3145 68.919 67.3145 68.919 67.4364 67.8738C67.3096 67.6252 67.3096 67.6252 67.0807 67.465C66.516 66.9697 66.0776 66.4085 65.6197 65.8148C65.5237 65.6924 65.4277 65.57 65.3287 65.4439C64.5853 64.48 64.068 63.7676 64.0991 62.5115C64.2158 61.9377 64.5684 61.5738 65.0141 61.2124C65.3696 61.0042 65.6323 60.9386 66.0428 60.9315C66.1494 60.9291 66.2561 60.9267 66.366 60.9242C66.5371 60.9221 66.5371 60.9221 66.7116 60.92C66.8292 60.9177 66.9468 60.9153 67.068 60.9129C67.4431 60.9057 67.8183 60.9 68.1934 60.8945C68.448 60.8898 68.7025 60.8851 68.957 60.8803C69.5806 60.8686 70.2041 60.8585 70.8277 60.849C70.8651 60.774 70.9025 60.699 70.9411 60.6218C71.5332 59.4396 72.155 58.2694 72.8034 57.1171C72.8754 56.989 72.9474 56.8608 73.0215 56.7287C73.73 55.6094 74.6634 54.8111 76.0513 55.3841Z" fill="black"/>
<path d="M102.924 51.4019C103.376 51.5526 103.435 51.746 103.645 52.1552C103.711 52.2882 103.711 52.2882 103.779 52.4238C103.875 52.6108 103.971 52.7976 104.068 52.9844C104.118 53.082 104.168 53.1796 104.22 53.2802C104.482 53.7836 104.754 54.2812 105.028 54.778C105.078 54.8708 105.129 54.9636 105.181 55.0592C105.229 55.1459 105.277 55.2327 105.326 55.3221C105.368 55.3984 105.41 55.4747 105.453 55.5533C105.584 55.7718 105.584 55.7718 105.786 55.9561C105.951 56.1254 105.951 56.1254 105.951 56.3676C106.026 56.3851 106.101 56.4026 106.179 56.4206C106.436 56.4887 106.436 56.4887 106.678 56.6099C106.867 56.6338 107.057 56.6516 107.247 56.6662C107.363 56.6755 107.479 56.6848 107.598 56.6944C107.722 56.704 107.845 56.7135 107.973 56.7234C109.081 56.8139 110.18 56.9309 111.281 57.0943C111.085 57.5695 110.758 57.9075 110.41 58.2752C110.289 58.4051 110.168 58.535 110.048 58.6651C109.989 58.728 109.93 58.7909 109.87 58.8557C108.522 60.1983 108.522 60.1983 107.988 61.9163C107.986 62.042 107.984 62.1676 107.982 62.2971C108.011 62.6792 108.103 62.9212 108.253 63.2713C108.335 63.5838 108.413 63.8956 108.487 64.2099C108.62 64.7595 108.757 65.2973 108.949 65.8299C109.094 66.2394 109.134 66.5877 109.1 67.0259C108.594 66.8317 108.107 66.6033 107.619 66.3668C107.495 66.3073 107.495 66.3073 107.37 66.2465C107.197 66.1631 107.024 66.0795 106.852 65.9958C106.587 65.8674 106.321 65.7394 106.056 65.6115C105.888 65.5302 105.72 65.4489 105.552 65.3676C105.433 65.3101 105.433 65.3101 105.311 65.2514C104.754 64.9808 104.754 64.9808 104.619 64.8458C103.739 64.7089 103.186 64.9685 102.469 65.4514C102.376 65.5114 102.282 65.5715 102.185 65.6334C101.996 65.7551 101.807 65.8778 101.618 66.0014C101.232 66.255 100.841 66.5011 100.448 66.7458C100.326 66.8237 100.204 66.9016 100.078 66.9819C99.7745 67.147 99.7745 67.147 99.4111 67.147C99.4281 66.7407 99.446 66.3345 99.4641 65.9283C99.4689 65.8141 99.4736 65.6998 99.4786 65.5822C99.5065 64.9655 99.5585 64.3664 99.6534 63.7557C99.8348 62.4562 99.8348 62.4562 99.4017 61.2582C99.0389 60.8018 98.6211 60.4029 98.2 60.0011C97.9195 59.7242 97.6403 59.4462 97.3614 59.1677C97.1756 58.9836 96.9884 58.8009 96.7996 58.6199C96.6712 58.4954 96.6712 58.4954 96.5403 58.3684C96.4633 58.2949 96.3863 58.2213 96.3069 58.1455C96.141 57.9421 96.141 57.9421 96.141 57.5788C96.4769 57.4668 96.7303 57.4303 97.0801 57.4056C97.1937 57.3967 97.3073 57.3878 97.4243 57.3787C97.6605 57.3609 97.8967 57.3439 98.133 57.3276C99.2232 57.24 100.208 57.0806 101.05 56.3426C101.443 55.8637 101.635 55.306 101.803 54.7174C102.136 53.5984 102.533 52.5016 102.924 51.4019Z" fill="#F8E482"/>
<path d="M84.3927 28.9956C84.7799 29.1582 84.9536 29.2979 85.1554 29.6651C85.2035 29.7504 85.2516 29.8358 85.3012 29.9238C85.3511 30.0147 85.4011 30.1056 85.4525 30.1992C86.3375 31.8478 86.3375 31.8478 87.6629 33.1136C88.0543 33.1796 88.4388 33.17 88.8348 33.1609C88.9468 33.1602 89.0589 33.1595 89.1743 33.1588C89.531 33.1561 89.8875 33.15 90.2442 33.1438C90.4865 33.1414 90.7288 33.1392 90.9711 33.1372C91.564 33.1319 92.1569 33.1235 92.7497 33.1136C92.5748 33.4715 92.3837 33.7884 92.1517 34.1128C91.7533 34.6764 91.3566 35.2412 90.9633 35.8084C90.9061 35.8899 90.849 35.9715 90.7902 36.0555C90.2572 36.8254 89.8302 37.4737 89.9641 38.4427C90.1872 39.5369 90.5307 40.4796 91.0224 41.4829C91.2196 41.9358 91.2771 42.3122 91.2964 42.8029C90.7162 42.7272 90.1974 42.561 89.6542 42.352C89.4783 42.2861 89.3024 42.2203 89.1264 42.1545C88.8522 42.0511 88.5782 41.9473 88.3045 41.8427C88.0382 41.7412 87.7714 41.6415 87.5044 41.542C87.4236 41.5106 87.3428 41.4792 87.2596 41.4469C86.6203 41.2104 86.0385 41.096 85.3967 41.367C85.2902 41.4337 85.1837 41.5003 85.074 41.569C84.9507 41.645 84.8273 41.7211 84.7002 41.7994C84.378 42.0061 84.0575 42.2155 83.737 42.4249C83.5991 42.5147 83.5991 42.5147 83.4585 42.6064C83.2763 42.7257 83.0946 42.8459 82.9136 42.967C82.8297 43.0224 82.7457 43.0779 82.6592 43.135C82.5848 43.1848 82.5103 43.2346 82.4336 43.2859C82.2 43.4155 81.989 43.4767 81.7282 43.5296C81.7149 42.8065 81.7309 42.0933 81.7887 41.3722C82.0153 39.6326 82.0153 39.6326 81.4537 38.0528C81.119 37.7091 80.7503 37.4189 80.3699 37.1274C79.9993 36.8427 79.6378 36.5516 79.2831 36.2475C79.169 36.1522 79.0549 36.057 78.9373 35.9589C78.7002 35.657 78.7002 35.657 78.7244 35.2568C78.7564 35.149 78.7884 35.0413 78.8214 34.9303C78.9385 34.8996 79.0555 34.8688 79.1762 34.8371C79.5864 34.729 79.9961 34.6192 80.4056 34.5085C80.6045 34.4549 80.8037 34.4023 81.0029 34.3498C81.8981 34.1017 82.507 33.7598 83.0604 32.9924C83.2051 32.6611 83.2051 32.6611 83.3069 32.305C83.3474 32.1747 83.388 32.0444 83.4297 31.9102C83.4905 31.7077 83.4905 31.7077 83.5525 31.5012C83.6344 31.2341 83.7166 30.9671 83.799 30.7002C83.8571 30.5113 83.8571 30.5113 83.9164 30.3186C84.0594 29.8706 84.2215 29.4335 84.3927 28.9956Z" fill="#F8E482"/>
<path d="M74.8245 59.1536C74.9044 59.1536 74.9844 59.1536 75.0667 59.1536C75.2037 59.5949 75.3397 60.0366 75.4755 60.4783C75.5139 60.602 75.5523 60.7257 75.5919 60.8532C75.7624 61.4091 75.9225 61.9544 76.0285 62.5264C76.1427 63.0688 76.3626 63.3846 76.7094 63.8165C76.8069 63.9402 76.9045 64.0639 77.0051 64.1913C77.377 64.6396 77.4943 64.6295 78.0833 64.6866C78.231 64.7015 78.3787 64.7164 78.5308 64.7318C78.8418 64.7622 79.1528 64.7924 79.4638 64.8226C80.2763 64.9048 81.0568 65.0104 81.8492 65.2094C81.6889 65.6905 81.3823 65.84 80.9787 66.1102C80.2341 66.6222 79.5485 67.1796 78.8752 67.7819C78.3608 68.2373 78.3608 68.2373 78.0946 68.2373C77.6105 69.3237 77.6905 70.4107 77.7086 71.5756C77.7104 71.7807 77.712 71.9858 77.7135 72.1909C77.7175 72.6898 77.7238 73.1886 77.7313 73.6875C77.1592 73.5955 76.8237 73.3688 76.3839 73.0063C74.7929 71.7271 74.7929 71.7271 72.8459 71.3357C71.7018 71.4662 70.5927 71.9621 69.5866 72.5054C69.3742 72.5975 69.3742 72.5975 69.0109 72.5975C69.0784 72.3172 69.1465 72.0372 69.2153 71.7572C69.2471 71.6272 69.2471 71.6272 69.2795 71.4946C69.4174 70.9413 69.5738 70.3979 69.7465 69.8545C70.195 68.5742 70.195 68.5742 70.1009 67.2684C69.7464 66.6884 69.2902 66.1844 68.8418 65.6762C68.5493 65.338 68.2794 64.9845 68.0117 64.6265C67.9236 64.5108 67.8356 64.3951 67.7448 64.2759C67.5575 63.9982 67.5575 63.9982 67.5575 63.756C67.6386 63.753 67.7197 63.7499 67.8032 63.7468C68.178 63.7326 68.5528 63.7178 68.9276 63.703C69.0551 63.6982 69.1826 63.6935 69.3139 63.6886C70.9965 63.7083 70.9965 63.7083 72.5233 63.1504C72.6505 62.9523 72.7708 62.7498 72.8866 62.5448C72.9503 62.4366 73.014 62.3284 73.0797 62.2169C73.3006 61.8393 73.5214 61.4616 73.742 61.0839C73.8192 60.952 73.8964 60.8202 73.976 60.6843C74.05 60.5575 74.1241 60.4306 74.2004 60.2999C74.2679 60.1845 74.3354 60.0691 74.4049 59.9503C74.5538 59.688 74.6931 59.4249 74.8245 59.1536Z" fill="#F8E482"/>
</svg>
