<svg width="350" height="350" viewBox="0 0 350 350" fill="none" xmlns="http://www.w3.org/2000/svg">
<path d="M131.372 55.9297C132.146 56.608 132.891 57.3124 133.633 58.0259C133.782 58.1616 133.932 58.2973 134.086 58.4371C136.552 60.7439 138.51 63.7307 140.238 66.613C140.335 66.7739 140.432 66.9348 140.533 67.1005C148.575 80.5139 154.018 97.937 153.889 113.732C154.188 113.646 154.188 113.646 154.494 113.559C156.499 113.002 158.489 112.593 160.55 112.287C160.702 112.264 160.854 112.241 161.011 112.217C161.943 112.078 162.876 111.943 163.809 111.811C164.204 111.755 164.598 111.696 164.991 111.637C175.752 110.043 186.675 111.452 197.265 113.511C197.255 113.262 197.246 113.013 197.236 112.756C197.239 111.079 197.496 109.419 197.719 107.759C197.743 107.578 197.767 107.396 197.792 107.209C199.868 91.7293 203.741 74.6265 213.778 62.2094C213.878 62.0847 213.977 61.96 214.08 61.8316C219.074 55.6065 225.772 50.3806 233.815 48.9986C238.632 48.7061 242.538 48.9284 246.379 52.0673C247.734 53.3305 248.591 54.8621 249.447 56.4847C249.561 56.6993 249.675 56.9138 249.792 57.1349C251.061 59.7251 251.457 62.5777 251.474 65.4355C251.475 65.6136 251.477 65.7917 251.479 65.9752C251.482 66.5502 251.484 67.1251 251.484 67.7001C251.484 67.9957 251.484 67.9957 251.485 68.2973C251.481 71.5209 251.32 74.6603 250.769 77.8422C250.714 78.1668 250.714 78.1668 250.658 78.498C247.524 96.5457 239.397 114.286 227.87 128.484C228.527 129.269 229.183 130.029 229.92 130.74C230.943 131.747 231.818 132.87 232.714 133.988C232.859 134.163 233.004 134.337 233.154 134.517C235.265 137.075 237.01 139.923 238.659 142.795C238.738 142.932 238.817 143.068 238.898 143.209C243.691 151.563 246.636 161.719 246.614 171.379C246.615 171.596 246.615 171.813 246.615 172.036C246.615 172.49 246.615 172.944 246.614 173.398C246.613 174.088 246.614 174.779 246.615 175.469C246.615 175.913 246.615 176.357 246.614 176.801C246.615 177.005 246.615 177.209 246.616 177.418C246.611 178.665 246.523 179.87 246.365 181.107C246.575 181.121 246.575 181.121 246.789 181.137C247.427 181.183 248.066 181.234 248.704 181.286C248.924 181.301 249.144 181.316 249.371 181.332C250.559 181.431 251.507 181.541 252.53 182.208C253.063 182.847 253.182 183.234 253.273 184.065C253.18 184.948 253.042 185.444 252.53 186.171C251.333 186.824 250.457 186.903 249.117 186.776C248.959 186.765 248.8 186.753 248.636 186.741C247.652 186.664 246.68 186.54 245.704 186.391C245.211 187.829 244.771 189.277 244.356 190.74C244.298 190.942 244.239 191.144 244.18 191.353C244.124 191.549 244.068 191.745 244.01 191.947C243.96 192.122 243.91 192.298 243.859 192.478C243.718 193.015 243.606 193.552 243.503 194.097C243.734 194.177 243.965 194.257 244.204 194.34C248.4 195.828 248.4 195.828 249.447 197.4C249.595 198.157 249.601 198.846 249.447 199.602C248.893 200.401 248.249 200.803 247.339 201.121C246.194 201.155 245.278 200.711 244.232 200.276C243.819 200.108 243.405 199.941 242.991 199.775C242.718 199.662 242.718 199.662 242.44 199.547C241.942 199.346 241.942 199.346 241.301 199.382C240.946 199.926 240.633 200.463 240.324 201.033C238.71 203.89 236.752 206.484 234.475 208.849C234.3 209.034 234.3 209.034 234.122 209.223C230.595 212.945 226.509 215.716 221.939 218.028C221.718 218.14 221.718 218.14 221.493 218.254C220.86 218.565 220.438 218.757 219.723 218.757C219.723 218.903 219.723 219.048 219.723 219.198C219.9 219.243 220.077 219.289 220.259 219.335C221.297 219.735 222.132 220.323 223.04 220.959C223.225 221.088 223.41 221.216 223.601 221.349C226.165 223.14 228.584 225.082 230.952 227.124C231.11 227.26 231.268 227.395 231.431 227.535C231.862 227.908 232.288 228.286 232.714 228.666C232.894 228.826 233.075 228.986 233.261 229.151C236.197 231.795 239.127 234.541 241.521 237.693C241.688 237.9 241.854 238.107 242.026 238.32C245.871 243.156 250.737 249.891 250.108 256.408C250.089 256.673 250.089 256.673 250.069 256.942C249.718 259.803 248.078 262.674 245.925 264.555C244.516 265.607 242.971 266.24 241.301 266.757C241.151 266.807 241.001 266.857 240.847 266.908C235.911 268.296 230.194 266.318 225.715 264.31C225.54 264.232 225.365 264.154 225.185 264.073C225.054 264.014 224.923 263.955 224.787 263.894C224.839 264.281 224.839 264.281 224.891 264.675C226.642 277.949 227.671 291.249 227.703 304.638C227.705 305.074 227.706 305.509 227.708 305.945C227.73 312.838 227.675 319.975 222.786 325.394C220.405 327.66 217.354 328.909 214.219 329.728C214.056 329.771 213.894 329.814 213.726 329.858C211.736 330.3 209.697 330.258 207.668 330.262C207.027 330.265 206.385 330.276 205.744 330.287C202.444 330.316 199.669 329.764 196.728 328.215C196.582 328.139 196.437 328.064 196.286 327.987C193.007 326.249 190.509 323.48 189.336 319.923C188.499 317.162 188.069 314.291 187.577 311.453C187.476 310.883 187.374 310.313 187.272 309.743C187.152 309.066 187.034 308.388 186.916 307.71C186.65 307.73 186.65 307.73 186.378 307.751C180.399 308.189 174.478 308.255 168.49 307.944C168.213 307.93 168.213 307.93 167.93 307.915C167.405 307.887 166.879 307.858 166.354 307.828C166.198 307.82 166.041 307.811 165.879 307.802C165.163 307.759 164.486 307.701 163.797 307.49C163.782 307.675 163.782 307.675 163.767 307.864C163.15 314.691 162.187 322.122 156.739 326.83C155.997 327.376 155.244 327.821 154.426 328.242C154.234 328.343 154.234 328.343 154.038 328.446C150.899 329.965 147.869 330.344 144.421 330.3C143.762 330.292 143.103 330.296 142.443 330.3C139.111 330.298 135.972 329.912 132.917 328.49C132.672 328.377 132.672 328.377 132.422 328.262C128.7 326.479 126.334 323.666 124.826 319.82C124.7 319.504 124.7 319.504 124.573 319.181C123.047 314.817 123.173 310.008 123.199 305.448C123.202 304.964 123.203 304.48 123.204 303.995C123.24 291.34 124.075 278.765 125.695 266.213C125.715 266.054 125.735 265.895 125.756 265.731C125.841 265.089 125.941 264.511 126.147 263.894C125.909 263.99 125.671 264.086 125.427 264.185C119.498 266.552 113.553 268.536 107.338 266.01C104.238 264.545 102.474 262.244 101.266 259.05C99.7954 254.661 101.635 250.182 103.579 246.275C106.997 239.773 112.357 233.629 117.929 228.882C118.34 228.531 118.747 228.175 119.152 227.816C122.838 224.559 126.792 221.548 130.991 218.978C130.862 218.909 130.734 218.841 130.602 218.77C123.666 215.055 117.272 210.823 112.716 204.226C112.621 204.088 112.526 203.951 112.428 203.809C111.435 202.365 110.49 200.911 109.633 199.382C108.642 199.559 107.723 199.782 106.79 200.161C106.561 200.253 106.561 200.253 106.327 200.347C106.022 200.472 105.718 200.601 105.417 200.734C104.337 201.175 103.702 201.168 102.587 200.703C101.913 200.115 101.572 199.769 101.381 198.901C101.325 198.015 101.439 197.489 101.858 196.698C103.282 195.242 105.497 194.698 107.431 194.317C107.365 194.088 107.365 194.088 107.297 193.854C107.092 193.147 106.89 192.438 106.688 191.73C106.618 191.49 106.549 191.25 106.477 191.002C106.022 189.402 105.686 187.817 105.45 186.171C105.2 186.239 104.95 186.307 104.693 186.377C103.652 186.606 102.616 186.712 101.555 186.79C101.396 186.804 101.236 186.819 101.072 186.833C99.9948 186.902 99.3141 186.748 98.4039 186.171C97.7425 185.399 97.6359 184.717 97.6823 183.732C97.7778 183.069 97.9591 182.71 98.4039 182.208C99.695 181.521 100.908 181.393 102.353 181.286C102.567 181.268 102.781 181.249 103.001 181.231C103.523 181.187 104.046 181.146 104.569 181.107C104.534 180.866 104.498 180.624 104.462 180.376C104.319 179.232 104.309 178.095 104.304 176.943C104.302 176.598 104.302 176.598 104.3 176.246C104.298 175.76 104.297 175.273 104.296 174.787C104.294 174.061 104.287 173.335 104.28 172.609C104.259 168.474 104.655 164.433 105.574 160.396C105.628 160.153 105.683 159.911 105.74 159.661C106.829 155.056 108.41 150.557 110.514 146.318C110.611 146.12 110.708 145.921 110.808 145.716C113.236 140.771 116.222 136.13 119.96 132.068C120.398 131.592 120.824 131.107 121.248 130.617C121.828 129.95 122.429 129.319 123.064 128.704C122.768 128.009 122.356 127.48 121.869 126.907C118.391 122.788 115.48 118.029 112.936 113.291C112.828 113.093 112.721 112.894 112.61 112.689C106.164 100.748 101.429 87.5984 99.725 74.0991C99.7055 73.9464 99.686 73.7937 99.666 73.6364C99.5258 72.4726 99.464 71.3239 99.4523 70.1522C99.4502 69.9713 99.448 69.7905 99.4457 69.6042C99.3865 63.4429 99.5379 57.237 104.129 52.5214C104.277 52.3645 104.425 52.2075 104.578 52.0458C106.313 50.355 108.563 49.3408 110.954 48.9986C111.19 48.9624 111.19 48.9624 111.431 48.9255C118.803 47.9485 125.874 51.2333 131.372 55.9297Z" fill="white"/>
<path d="M239.442 150.284C239.442 165.538 211.78 139.525 176.002 139.525C140.224 139.525 110.64 165.538 110.64 150.284C110.64 135.03 140.224 115.315 176.002 115.315C211.78 115.315 239.442 135.03 239.442 150.284Z" fill="#AADCE7"/>
<path d="M143.213 81.6019C152.849 103.562 152.227 127.64 143.213 131.595C134.2 135.55 119.082 120.954 109.447 98.9939C99.8111 77.0339 99.3069 56.0257 108.32 52.0709C117.334 48.116 133.578 59.6419 143.213 81.6019Z" fill="#AADCE7"/>
<path d="M206.529 82.5633C197.601 104.82 198.994 128.866 208.129 132.531C217.265 136.195 231.908 121.123 240.835 98.8654C249.763 76.6082 249.594 55.5947 240.459 51.9304C231.323 48.2661 215.456 60.3061 206.529 82.5633Z" fill="#AADCE7"/>
<path d="M131.372 55.9297C132.146 56.608 132.891 57.3124 133.633 58.0259C133.782 58.1616 133.932 58.2973 134.086 58.4371C136.552 60.7439 138.51 63.7307 140.238 66.613C140.335 66.7739 140.432 66.9348 140.533 67.1005C148.575 80.5139 154.018 97.937 153.889 113.732C154.188 113.646 154.188 113.646 154.494 113.559C156.499 113.002 158.489 112.593 160.55 112.287C160.702 112.264 160.854 112.241 161.011 112.217C161.943 112.078 162.876 111.943 163.809 111.811C164.204 111.755 164.598 111.696 164.991 111.637C175.752 110.043 186.675 111.452 197.265 113.511C197.255 113.262 197.246 113.013 197.236 112.756C197.239 111.079 197.496 109.419 197.719 107.759C197.743 107.578 197.767 107.396 197.792 107.209C199.868 91.7293 203.741 74.6265 213.778 62.2094C213.878 62.0847 213.977 61.96 214.08 61.8316C219.074 55.6065 225.772 50.3806 233.815 48.9986C238.632 48.7061 242.538 48.9284 246.379 52.0673C247.734 53.3305 248.591 54.8621 249.447 56.4847C249.561 56.6993 249.675 56.9138 249.792 57.1349C251.061 59.7251 251.457 62.5777 251.474 65.4355C251.475 65.6136 251.477 65.7917 251.479 65.9752C251.482 66.5502 251.484 67.1251 251.484 67.7001C251.484 67.9957 251.484 67.9957 251.485 68.2973C251.481 71.5209 251.32 74.6603 250.769 77.8422C250.714 78.1668 250.714 78.1668 250.658 78.498C247.524 96.5457 239.397 114.286 227.87 128.484C228.527 129.269 229.183 130.029 229.92 130.74C230.943 131.747 231.818 132.87 232.714 133.988C232.859 134.163 233.004 134.337 233.154 134.517C235.265 137.075 237.01 139.923 238.659 142.795C238.738 142.932 238.817 143.068 238.898 143.209C243.691 151.563 246.636 161.719 246.614 171.379C246.615 171.596 246.615 171.813 246.615 172.036C246.615 172.49 246.615 172.944 246.614 173.398C246.613 174.088 246.614 174.779 246.615 175.469C246.615 175.913 246.615 176.357 246.614 176.801C246.615 177.005 246.615 177.209 246.616 177.418C246.611 178.665 246.523 179.87 246.365 181.107C246.575 181.121 246.575 181.121 246.789 181.137C247.427 181.183 248.066 181.234 248.704 181.286C248.924 181.301 249.144 181.316 249.371 181.332C250.559 181.431 251.507 181.541 252.53 182.208C253.063 182.847 253.182 183.234 253.273 184.065C253.18 184.948 253.042 185.444 252.53 186.171C251.333 186.824 250.457 186.903 249.117 186.776C248.959 186.765 248.8 186.753 248.636 186.741C247.652 186.664 246.68 186.54 245.704 186.391C245.211 187.829 244.771 189.277 244.356 190.74C244.298 190.942 244.239 191.144 244.18 191.353C244.124 191.549 244.068 191.745 244.01 191.947C243.96 192.122 243.91 192.298 243.859 192.478C243.718 193.015 243.606 193.552 243.503 194.097C243.734 194.177 243.965 194.257 244.204 194.34C248.4 195.828 248.4 195.828 249.447 197.4C249.595 198.157 249.601 198.846 249.447 199.602C248.893 200.401 248.249 200.803 247.339 201.121C246.194 201.155 245.278 200.711 244.232 200.276C243.819 200.108 243.405 199.941 242.991 199.775C242.718 199.662 242.718 199.662 242.44 199.547C241.942 199.346 241.942 199.346 241.301 199.382C240.946 199.926 240.633 200.463 240.324 201.033C238.71 203.89 236.752 206.484 234.475 208.849C234.3 209.034 234.3 209.034 234.122 209.223C230.595 212.945 226.509 215.716 221.939 218.028C221.718 218.14 221.718 218.14 221.493 218.254C220.86 218.565 220.438 218.757 219.723 218.757C219.723 218.903 219.723 219.048 219.723 219.198C219.9 219.243 220.077 219.289 220.259 219.335C221.297 219.735 222.132 220.323 223.04 220.959C223.225 221.088 223.41 221.216 223.601 221.349C226.165 223.14 228.584 225.082 230.952 227.124C231.11 227.26 231.268 227.395 231.431 227.535C231.862 227.908 232.288 228.286 232.714 228.666C232.894 228.826 233.075 228.986 233.261 229.151C236.197 231.795 239.127 234.541 241.521 237.693C241.688 237.9 241.854 238.107 242.026 238.32C245.871 243.156 250.737 249.891 250.108 256.408C250.089 256.673 250.089 256.673 250.069 256.942C249.718 259.803 248.078 262.674 245.925 264.555C244.516 265.607 242.971 266.24 241.301 266.757C241.151 266.807 241.001 266.857 240.847 266.908C235.911 268.296 230.194 266.318 225.715 264.31C225.54 264.232 225.365 264.154 225.185 264.073C225.054 264.014 224.923 263.955 224.787 263.894C224.839 264.281 224.839 264.281 224.891 264.675C226.642 277.949 227.671 291.249 227.703 304.638C227.705 305.074 227.706 305.509 227.708 305.945C227.73 312.838 227.675 319.975 222.786 325.394C220.405 327.66 217.354 328.909 214.219 329.728C214.056 329.771 213.894 329.814 213.726 329.858C211.736 330.3 209.697 330.258 207.668 330.262C207.027 330.265 206.385 330.276 205.744 330.287C202.444 330.316 199.669 329.764 196.728 328.215C196.582 328.139 196.437 328.064 196.286 327.987C193.007 326.249 190.509 323.48 189.336 319.923C188.499 317.162 188.069 314.291 187.577 311.453C187.476 310.883 187.374 310.313 187.272 309.743C187.152 309.066 187.034 308.388 186.916 307.71C186.65 307.73 186.65 307.73 186.378 307.751C180.399 308.189 174.478 308.255 168.49 307.944C168.213 307.93 168.213 307.93 167.93 307.915C167.405 307.887 166.879 307.858 166.354 307.828C166.198 307.82 166.041 307.811 165.879 307.802C165.163 307.759 164.486 307.701 163.797 307.49C163.782 307.675 163.782 307.675 163.767 307.864C163.15 314.691 162.187 322.122 156.739 326.83C155.997 327.376 155.244 327.821 154.426 328.242C154.234 328.343 154.234 328.343 154.038 328.446C150.899 329.965 147.869 330.344 144.421 330.3C143.762 330.292 143.103 330.296 142.443 330.3C139.111 330.298 135.972 329.912 132.917 328.49C132.672 328.377 132.672 328.377 132.422 328.262C128.7 326.479 126.334 323.666 124.826 319.82C124.7 319.504 124.7 319.504 124.573 319.181C123.047 314.817 123.173 310.008 123.199 305.448C123.202 304.964 123.203 304.48 123.204 303.995C123.24 291.34 124.075 278.765 125.695 266.213C125.715 266.054 125.735 265.895 125.756 265.731C125.841 265.089 125.941 264.511 126.147 263.894C125.909 263.99 125.671 264.086 125.427 264.185C119.498 266.552 113.553 268.536 107.338 266.01C104.238 264.545 102.474 262.244 101.266 259.05C99.7954 254.661 101.635 250.182 103.579 246.275C106.997 239.773 112.357 233.629 117.929 228.882C118.34 228.531 118.747 228.175 119.152 227.816C122.838 224.559 126.792 221.548 130.991 218.978C130.862 218.909 130.734 218.841 130.602 218.77C123.666 215.055 117.272 210.823 112.716 204.226C112.621 204.088 112.526 203.951 112.428 203.809C111.435 202.365 110.49 200.911 109.633 199.382C108.642 199.559 107.723 199.782 106.79 200.161C106.561 200.253 106.561 200.253 106.327 200.347C106.022 200.472 105.718 200.601 105.417 200.734C104.337 201.175 103.702 201.168 102.587 200.703C101.913 200.115 101.572 199.769 101.381 198.901C101.325 198.015 101.439 197.489 101.858 196.698C103.282 195.242 105.497 194.698 107.431 194.317C107.365 194.088 107.365 194.088 107.297 193.854C107.092 193.147 106.89 192.438 106.688 191.73C106.618 191.49 106.549 191.25 106.477 191.002C106.022 189.402 105.686 187.817 105.45 186.171C105.2 186.239 104.95 186.307 104.693 186.377C103.652 186.606 102.616 186.712 101.555 186.79C101.396 186.804 101.236 186.819 101.072 186.833C99.9948 186.902 99.3141 186.748 98.4039 186.171C97.7425 185.399 97.6359 184.717 97.6823 183.732C97.7778 183.069 97.9591 182.71 98.4039 182.208C99.695 181.521 100.908 181.393 102.353 181.286C102.567 181.268 102.781 181.249 103.001 181.231C103.523 181.187 104.046 181.146 104.569 181.107C104.534 180.866 104.498 180.624 104.462 180.376C104.319 179.232 104.309 178.095 104.304 176.943C104.302 176.598 104.302 176.598 104.3 176.246C104.298 175.76 104.297 175.273 104.296 174.787C104.294 174.061 104.287 173.335 104.28 172.609C104.259 168.474 104.655 164.433 105.574 160.396C105.628 160.153 105.683 159.911 105.74 159.661C106.829 155.056 108.41 150.557 110.514 146.318C110.611 146.12 110.708 145.921 110.808 145.716C113.236 140.771 116.222 136.13 119.96 132.068C120.398 131.592 120.824 131.107 121.248 130.617C121.828 129.95 122.429 129.319 123.064 128.704C122.768 128.009 122.356 127.48 121.869 126.907C118.391 122.788 115.48 118.029 112.936 113.291C112.828 113.093 112.721 112.894 112.61 112.689C106.164 100.748 101.429 87.5984 99.725 74.0991C99.7055 73.9464 99.686 73.7937 99.666 73.6364C99.5258 72.4726 99.464 71.3239 99.4523 70.1522C99.4502 69.9713 99.448 69.7905 99.4457 69.6042C99.3865 63.4429 99.5379 57.237 104.129 52.5214C104.277 52.3645 104.425 52.2075 104.578 52.0458C106.313 50.355 108.563 49.3408 110.954 48.9986C111.19 48.9624 111.19 48.9624 111.431 48.9255C118.803 47.9485 125.874 51.2333 131.372 55.9297ZM107.719 57.8694C105.633 61.1638 105.356 64.7794 105.367 68.5946C105.367 68.7557 105.367 68.9168 105.368 69.0828C105.39 74.7801 106.425 80.2687 107.872 85.7686C107.936 86.015 108.001 86.2614 108.068 86.5153C109.742 92.7674 112.182 98.8452 114.917 104.704C115.011 104.905 115.104 105.105 115.2 105.312C117.641 110.49 120.636 115.424 123.986 120.062C124.106 120.228 124.226 120.394 124.35 120.566C125.931 122.734 127.629 124.809 129.397 126.828C129.996 127.563 130.117 128.079 130.082 129.02C129.694 130.601 128.62 131.549 127.454 132.598C127.156 132.872 126.859 133.146 126.562 133.42C126.416 133.554 126.27 133.688 126.12 133.826C116.957 142.29 111.43 154.956 110.073 167.235C110.053 167.409 110.032 167.583 110.011 167.763C109.828 169.486 109.812 171.208 109.812 172.939C109.812 173.437 109.808 173.935 109.804 174.433C109.796 176.616 109.97 178.728 110.294 180.886C110.68 180.899 110.68 180.899 111.074 180.911C111.415 180.926 111.755 180.941 112.096 180.955C112.266 180.96 112.435 180.965 112.609 180.97C113.621 181.018 114.317 181.116 115.138 181.767C115.682 182.584 115.698 183.242 115.578 184.189C115.308 184.81 115.114 185.163 114.546 185.531C113.877 185.793 113.267 185.825 112.55 185.868C112.293 185.885 112.035 185.901 111.77 185.918C111.573 185.929 111.377 185.939 111.174 185.951C111.247 187.443 111.532 188.82 111.917 190.258C111.963 190.436 112.01 190.615 112.057 190.798C112.181 191.244 112.336 191.681 112.495 192.116C113.17 192.341 113.533 192.327 114.229 192.281C115.07 192.276 115.311 192.306 116.046 192.776C116.503 193.508 116.621 193.926 116.568 194.774C116.383 195.493 115.918 195.843 115.358 196.299C115.136 196.517 114.915 196.737 114.697 196.96C116.391 200.08 118.414 202.76 120.862 205.326C121.025 205.501 121.188 205.676 121.356 205.855C126.381 211.092 133.437 214.308 140.389 216.001C141.64 216.321 142.535 216.557 143.321 217.657C143.649 218.577 143.647 219.389 143.266 220.285C142.502 221.185 141.726 221.287 140.623 221.455C135.174 222.397 130.322 225.861 126.147 229.326C125.864 229.555 125.58 229.783 125.297 230.012C123.145 231.752 121.087 233.563 119.101 235.491C118.918 235.668 118.735 235.845 118.546 236.028C115.065 239.408 115.065 239.408 112.055 243.197C111.849 243.492 111.849 243.492 111.64 243.792C107.334 249.759 107.334 249.759 106.33 256.849C106.741 258.357 107.351 259.691 108.717 260.54C108.942 260.648 109.167 260.756 109.399 260.867C109.624 260.977 109.848 261.087 110.079 261.201C113.208 262.5 117.102 261.581 120.114 260.373C121.287 259.881 122.444 259.358 123.601 258.83C123.849 258.718 124.097 258.606 124.352 258.49C124.59 258.38 124.827 258.269 125.072 258.156C125.285 258.058 125.497 257.96 125.715 257.859C126.038 257.686 126.038 257.686 126.367 257.509C126.496 257.445 126.625 257.38 126.758 257.313C128.133 256.51 128.401 255.323 128.823 253.856C128.9 253.606 128.978 253.356 129.057 253.098C129.303 252.3 129.542 251.499 129.78 250.697C132.304 242.298 132.304 242.298 133.747 241.255C134.432 240.93 134.863 240.902 135.614 240.996C136.447 241.374 136.829 241.688 137.156 242.537C137.326 244.813 136.512 246.938 135.784 249.052C135.448 250.029 135.124 251.01 134.8 251.991C134.736 252.184 134.672 252.377 134.606 252.576C131.543 261.845 130.23 271.512 129.489 281.213C129.447 281.757 129.404 282.302 129.362 282.847C128.833 289.664 128.634 296.471 128.569 303.307C128.567 303.487 128.565 303.668 128.563 303.854C128.127 313.242 128.127 313.242 132.076 321.375C134.175 323.405 136.747 324.208 139.578 324.664C139.755 324.693 139.932 324.722 140.114 324.752C144.589 325.327 149.714 325.125 153.518 322.504C155.72 320.734 156.518 318.247 157.082 315.568C157.128 315.354 157.174 315.141 157.221 314.921C157.65 312.847 157.938 310.756 158.198 308.654C158.816 303.756 158.816 303.756 159.738 302.811C161.354 301.651 163.773 302.168 165.671 302.364C168.621 302.664 171.551 302.707 174.514 302.691C175.319 302.687 176.123 302.687 176.928 302.687C179.189 302.684 181.447 302.67 183.706 302.547C183.862 302.539 184.018 302.53 184.18 302.521C184.963 302.472 185.708 302.367 186.476 302.206C187.1 302.157 187.722 302.155 188.347 302.151C188.512 302.146 188.676 302.142 188.845 302.137C189.843 302.13 190.543 302.174 191.32 302.866C192.071 304.17 192.204 305.577 192.407 307.05C192.482 307.563 192.558 308.077 192.634 308.591C192.672 308.849 192.71 309.107 192.749 309.373C193.491 316.562 193.491 316.562 197.248 322.381C201.491 325.178 206.935 325.523 211.841 324.581C212.044 324.536 212.248 324.49 212.457 324.444C212.677 324.401 212.896 324.358 213.122 324.314C216.171 323.653 218.555 322.265 220.35 319.673C221.781 317.237 222.179 314.483 222.177 311.694C222.178 311.447 222.178 311.447 222.179 311.195C222.181 310.652 222.182 310.11 222.182 309.567C222.183 309.18 222.184 308.794 222.184 308.407C222.186 307.593 222.186 306.78 222.186 305.966C222.186 305.15 222.187 304.335 222.19 303.519C222.219 295.821 221.953 288.137 221.258 280.468C221.242 280.293 221.226 280.118 221.21 279.938C220.277 269.841 218.753 260.065 215.535 250.433C215.452 250.181 215.452 250.181 215.366 249.924C215.096 249.112 214.822 248.302 214.539 247.494C213.887 245.595 213.225 243.543 214.095 241.615C214.912 241.037 215.648 240.914 216.641 240.996C218.121 241.702 218.676 243.594 219.203 245.051C219.608 246.204 219.996 247.363 220.384 248.523C220.518 248.92 220.652 249.317 220.786 249.714C220.852 249.908 220.917 250.103 220.985 250.303C221.116 250.69 221.247 251.076 221.379 251.462C221.674 252.331 221.956 253.197 222.197 254.081C222.686 255.887 222.686 255.887 223.947 257.206C224.295 257.391 224.649 257.566 225.007 257.729C225.273 257.869 225.273 257.869 225.543 258.011C226.097 258.298 226.657 258.566 227.223 258.83C227.524 258.972 227.524 258.972 227.831 259.116C229.573 259.925 231.332 260.645 233.154 261.252C233.328 261.311 233.501 261.369 233.68 261.429C236.229 262.138 239.36 261.933 241.741 260.812C243.295 259.828 244.034 258.557 244.604 256.849C245.112 251.134 241.031 245.704 237.561 241.505C236.827 240.662 236.074 239.837 235.312 239.019C234.716 238.379 234.135 237.726 233.553 237.074C232.796 236.239 232.017 235.482 231.154 234.757C230.71 234.371 230.303 233.961 229.893 233.537C229.051 232.683 228.147 231.936 227.21 231.188C226.64 230.722 226.094 230.239 225.548 229.745C221.315 225.967 215.767 222.113 210.008 221.4C209.124 221.281 208.753 221.206 207.999 220.698C207.523 219.933 207.393 219.439 207.393 218.537C207.664 217.673 207.943 217.302 208.659 216.748C209.568 216.285 210.543 216.064 211.527 215.812C217.664 214.239 223.303 211.48 228.09 207.308C228.305 207.123 228.52 206.937 228.741 206.746C231.823 204.038 234.29 200.789 236.237 197.18C236.237 197.034 236.237 196.889 236.237 196.739C235.991 196.612 235.746 196.485 235.494 196.354C235.019 196.079 234.722 195.892 234.379 195.46C234.115 194.432 234.091 193.723 234.627 192.79C235.764 192.082 236.913 192.25 238.218 192.336C238.436 191.603 238.651 190.868 238.865 190.134C238.926 189.928 238.987 189.722 239.05 189.51C239.396 188.32 239.645 187.186 239.76 185.951C239.473 185.946 239.473 185.946 239.18 185.941C236.849 185.845 236.849 185.845 236.072 185.194C235.384 184.411 235.269 183.929 235.277 182.877C235.41 182.124 235.877 181.782 236.457 181.327C237.183 180.964 237.996 181.022 238.796 180.983C238.973 180.973 239.149 180.964 239.331 180.954C239.768 180.931 240.204 180.908 240.64 180.886C243.113 167.464 238.874 152.688 231.43 141.501C228.872 137.819 226.019 134.361 222.471 131.597C221.58 130.828 220.897 130.092 220.728 128.91C220.906 127.302 221.974 126.228 223.04 125.071C226.57 121.227 229.481 116.719 232.053 112.19C232.2 111.931 232.2 111.931 232.35 111.667C237.216 103.044 241.043 93.8254 243.503 84.2274C243.554 84.0297 243.606 83.832 243.66 83.6283C244.93 78.7317 245.565 73.7442 245.567 68.6909C245.567 68.542 245.568 68.393 245.568 68.2395C245.567 65.5928 245.387 62.9644 244.521 60.4479C244.433 60.1845 244.345 59.9211 244.254 59.6498C243.448 57.7257 241.985 56.0976 240.065 55.2548C239.083 54.9 238.183 54.8246 237.145 54.8333C236.964 54.8348 236.783 54.8362 236.597 54.8376C231.897 54.9742 227.858 57.3493 224.127 60.0076C223.944 60.1361 223.761 60.2647 223.573 60.3972C210.682 69.9259 206.345 89.1424 204.065 104.066C203.457 108.126 203.013 112.201 202.663 116.291C202.646 116.475 202.628 116.659 202.611 116.849C202.58 117.177 202.553 117.506 202.529 117.835C202.433 118.842 202.168 119.407 201.448 120.117C199.765 120.678 198.274 120.111 196.632 119.635C191.824 118.299 187.041 117.48 182.072 117.034C181.723 117.002 181.723 117.002 181.367 116.97C172.618 116.229 163.678 117.228 155.21 119.456C154.691 119.592 154.172 119.728 153.653 119.862C153.239 119.969 152.827 120.08 152.415 120.191C151.385 120.398 150.499 120.494 149.527 120.062C148.771 119.457 148.631 118.976 148.492 118.016C148.462 117.701 148.434 117.385 148.408 117.069C148.375 116.713 148.342 116.357 148.309 116.001C148.293 115.813 148.276 115.625 148.259 115.431C146.773 98.9106 143.606 81.3322 133.853 67.4937C133.721 67.3066 133.721 67.3066 133.587 67.1158C132.462 65.5313 131.232 64.0546 129.89 62.6497C129.767 62.5182 129.645 62.3867 129.518 62.2511C128.385 61.0692 127.159 60.1345 125.803 59.2232C125.589 59.0792 125.375 58.9352 125.155 58.7868C123.485 57.6817 121.858 56.7514 119.982 56.0443C119.768 55.9619 119.768 55.9619 119.55 55.8778C117.687 55.1782 115.919 54.8431 113.927 54.8196C113.748 54.8163 113.569 54.8131 113.385 54.8097C111.038 54.8499 109.104 55.9958 107.719 57.8694Z" fill="black"/>
<path d="M188.476 238.139C194.657 243.477 197.796 251.832 198.55 259.894C198.905 264.521 199.081 269.464 197.768 273.942C197.707 274.159 197.707 274.159 197.646 274.38C196.776 277.455 195.128 279.993 192.922 282.244C192.771 282.4 192.62 282.557 192.465 282.718C187.351 287.686 180.046 288.443 173.337 288.323C171.917 288.279 170.536 288.115 169.137 287.853C168.987 287.825 168.838 287.798 168.684 287.769C163.518 286.773 158.853 284.269 155.777 279.787C151.347 272.974 151.604 263.256 153.138 255.525C154.663 248.451 158.198 240.739 164.326 236.639C164.533 236.51 164.739 236.38 164.952 236.246C165.08 236.164 165.207 236.083 165.338 235.999C173.014 231.135 181.626 232.656 188.476 238.139Z" fill="#F4A99C"/>
<path d="M176.127 229.326C176.531 229.353 176.531 229.353 176.943 229.38C183.914 229.96 189.953 233.18 194.479 238.482C198.169 242.938 200.665 248.272 202.163 253.835C202.241 254.116 202.241 254.116 202.319 254.403C203.229 257.953 203.541 261.554 203.515 265.208C203.512 265.809 203.515 266.41 203.52 267.012C203.524 270.21 203.264 273.419 202.191 276.458C202.135 276.619 202.08 276.78 202.022 276.945C199.851 282.954 195.57 287.786 189.824 290.598C181.735 294.357 171.357 294.551 163.001 291.533C159.042 290.033 155.365 287.557 152.788 284.151C152.629 283.942 152.47 283.733 152.306 283.518C146.738 275.842 146.577 266.511 147.952 257.439C148.285 255.355 148.821 253.345 149.485 251.344C149.564 251.103 149.564 251.103 149.645 250.857C150.365 248.709 151.31 246.692 152.363 244.689C152.545 244.342 152.721 243.991 152.896 243.639C155.991 237.608 161.829 232.509 168.255 230.372C170.783 229.655 173.495 229.129 176.127 229.326ZM160.934 240.555C160.777 240.713 160.62 240.87 160.458 241.033C156.605 245.124 154.413 250.589 153.173 255.995C153.14 256.14 153.107 256.284 153.072 256.432C152.46 259.295 152.274 262.144 152.29 265.062C152.292 265.589 152.29 266.116 152.287 266.644C152.282 272.572 153.739 278.168 157.893 282.555C163.071 287.509 170.093 288.474 176.975 288.375C183.419 288.218 189.388 286.105 193.907 281.419C194.713 280.489 195.343 279.497 195.943 278.426C196.061 278.22 196.179 278.014 196.3 277.802C197.21 276.108 197.756 274.36 198.145 272.481C198.204 272.207 198.204 272.207 198.265 271.926C198.649 269.936 198.654 267.977 198.64 265.959C198.64 265.783 198.639 265.607 198.638 265.425C198.627 262.91 198.585 260.432 198.145 257.949C198.118 257.795 198.091 257.641 198.062 257.482C197.048 251.936 195.01 246.429 191.319 242.097C191.049 241.77 191.049 241.77 190.774 241.436C189.264 239.663 187.518 238.33 185.595 237.032C185.402 236.898 185.209 236.764 185.011 236.626C177.184 231.521 167.067 234.34 160.934 240.555Z" fill="black"/>
<path d="M230.732 74.5395C231.403 74.9795 231.943 75.4998 232.493 76.0808C232.661 76.2488 232.829 76.4168 233.002 76.5899C234.979 79.7376 234.026 83.8429 233.276 87.23C232.775 89.3533 232.107 91.4154 231.392 93.475C231.333 93.6487 231.274 93.8225 231.212 94.0015C230.891 94.9406 230.561 95.8762 230.221 96.8087C230.081 97.1922 229.943 97.5767 229.806 97.9612C229.144 99.7623 228.314 101.451 227.438 103.154C227.215 103.591 226.997 104.031 226.782 104.471C224.167 109.803 221.211 115.179 217.301 119.676C217.132 119.871 217.132 119.871 216.96 120.069C216.609 120.468 216.254 120.865 215.897 121.259C215.79 121.378 215.682 121.498 215.571 121.62C214.772 122.48 214.099 123.112 212.919 123.303C211.835 123.314 211.117 123.313 210.159 122.773C208.746 121.084 208.356 119.886 208.494 117.695C208.611 116.607 208.773 115.527 208.948 114.447C208.984 114.22 208.984 114.22 209.021 113.987C210.952 101.942 214.623 84.1347 225.214 76.4386C226.872 75.2796 228.646 74.1694 230.732 74.5395Z" fill="#F4A99C"/>
<path d="M121.846 74.5971C122.03 74.6508 122.214 74.7044 122.404 74.7597C122.583 74.8111 122.762 74.8624 122.947 74.9154C128.452 76.8229 131.581 82.6448 133.971 87.5654C135.39 90.5611 136.531 93.6415 137.596 96.7777C137.657 96.9547 137.719 97.1318 137.782 97.3142C139.723 102.961 140.905 108.811 141.868 114.692C142.025 115.648 142.189 116.602 142.353 117.557C142.627 119.382 142.608 120.59 141.516 122.126C140.878 122.79 140.305 123.148 139.395 123.31C138.034 123.337 137.101 123.267 136.064 122.348C129.482 115.476 124.709 106.378 121.083 97.6584C120.962 97.3827 120.84 97.1072 120.719 96.8319C119.437 93.8863 118.475 90.8265 117.56 87.7503C117.51 87.584 117.459 87.4177 117.408 87.2464C116.854 85.3325 116.818 83.3866 116.775 81.4064C116.767 81.154 116.758 80.9017 116.749 80.6417C116.743 78.5258 117.411 77.3151 118.705 75.6929C119.743 74.7164 120.417 74.3081 121.846 74.5971Z" fill="#F4A99C"/>
<path d="M225.34 176.735C227.561 178.393 229.119 180.351 229.568 183.127C229.9 186.419 229.507 188.948 227.441 191.587C225.95 193.33 223.971 194.497 221.704 194.978C218.568 195.138 216.11 194.995 213.557 192.996C213.424 192.896 213.29 192.795 213.153 192.692C211.622 191.369 210.276 188.851 210.034 186.831C209.817 183.772 210.363 181.37 212.236 178.905C212.475 178.564 212.475 178.564 212.718 178.217C215.891 174.579 221.431 174.214 225.34 176.735Z" fill="#F4A99C"/>
<path d="M136.219 176.744C138.421 178.228 139.918 180.241 140.558 182.821C141.06 185.794 140.716 188.648 139.013 191.194C137.443 193.195 135.441 194.431 132.971 194.978C129.462 195.19 126.982 194.675 124.186 192.442C122.688 191.094 121.468 188.836 121.254 186.818C121.083 183.527 121.507 181.039 123.616 178.398C127.023 174.703 131.982 174.235 136.219 176.744Z" fill="#F4A99C"/>
<path d="M175.577 174.006C175.814 174.004 176.051 174.002 176.295 174.001C179.545 174.009 179.545 174.009 180.793 174.812C181.536 175.706 181.805 176.37 181.718 177.541C181.454 179.025 180.642 180.521 179.431 181.44C178.777 181.858 178.187 182.182 177.449 182.428C177.323 184.563 177.582 186.675 178.99 188.373C180.043 189.426 181.16 189.63 182.595 189.762C184.173 189.627 185.705 189.202 186.916 188.152C187.342 187.589 187.739 187.015 188.124 186.423C188.458 185.951 188.458 185.951 188.898 185.73C189.867 185.619 190.338 185.674 191.196 186.157C191.852 186.941 191.946 187.306 191.874 188.3C191.485 190.058 190.024 191.466 188.607 192.482C185.83 194.249 182.783 194.525 179.565 193.968C178.139 193.525 177.177 192.679 176.127 191.637C175.732 191.185 175.732 191.185 175.247 191.235C175.111 191.426 174.974 191.616 174.834 191.813C173.863 193.04 172.133 193.782 170.623 194.097C167.197 194.372 164.352 194.093 161.596 191.895C160.449 190.892 159.324 189.9 159.106 188.322C159.059 187.452 159.053 186.992 159.586 186.281C160.416 185.695 160.955 185.636 161.953 185.751C162.842 186.09 163.177 186.83 163.661 187.613C164.343 188.644 165.292 189.068 166.44 189.474C168.163 189.774 169.929 189.903 171.504 189.033C172.766 187.939 173.209 186.45 173.485 184.85C173.524 184.636 173.562 184.423 173.601 184.203C173.667 183.539 173.682 183.066 173.485 182.428C172.97 181.975 172.456 181.7 171.843 181.396C170.443 180.673 169.788 179.248 169.302 177.804C169.159 176.895 169.243 176.586 169.701 175.781C171.235 173.808 173.206 173.989 175.577 174.006Z" fill="black"/>
<path d="M208.528 165.343C210.338 166.774 211.056 168.661 211.337 170.909C211.381 172.615 210.939 174.296 209.815 175.602C208.358 177.132 206.977 177.813 204.861 177.887C202.907 177.816 201.548 177.266 200.131 175.899C198.723 174.262 198.413 172.587 198.495 170.461C198.726 168.424 199.465 166.842 201.008 165.474C203.194 163.901 206.274 163.873 208.528 165.343Z" fill="black"/>
<path d="M149.485 165.254C151.073 166.212 151.775 167.939 152.348 169.657C152.529 172.178 152.231 174.062 150.609 176.039C149.144 177.442 147.314 177.886 145.347 177.865C143.797 177.731 142.365 177.091 141.237 176.012C139.723 174.182 139.555 172.142 139.745 169.862C139.965 168.083 140.877 166.636 142.219 165.474C144.524 163.832 147.022 164.048 149.485 165.254Z" fill="black"/>
<path d="M150.211 139.696C150.601 139.868 150.924 140.069 151.124 140.417C151.337 141 151.32 141.666 151.028 142.226C150.679 142.753 150.209 143.206 149.742 143.658C149.607 143.789 149.474 143.922 149.342 144.055C147.605 145.771 145.303 146.815 142.847 147.551C142.762 147.578 142.677 147.605 142.59 147.632C141.114 148.062 138.851 148.436 137.369 147.898C137.002 147.707 136.848 147.465 136.676 147.136C136.545 146.644 136.505 146.242 136.758 145.778C137.4 145.164 138.162 145.098 139.069 144.976C142.036 144.545 144.959 143.756 146.872 141.615C147.159 141.264 147.409 140.903 147.653 140.529C148.243 139.621 149.049 139.279 150.211 139.696Z" fill="black"/>
<path d="M201.666 139.627C202.268 139.974 202.629 140.457 203.017 141.016C204.432 143.038 206.649 144.323 209.085 144.777C209.555 144.854 210.026 144.926 210.498 144.989C211.182 145.086 211.9 145.2 212.403 145.697C212.649 146.108 212.674 146.488 212.619 146.954C212.483 147.357 212.303 147.708 211.912 147.912C210.819 148.363 209.303 148.131 208.201 147.825C208.129 147.805 208.056 147.785 207.982 147.764C206.835 147.438 205.741 147.033 204.668 146.519C204.577 146.476 204.487 146.433 204.394 146.389C202.533 145.451 200.45 143.592 199.72 141.642C199.638 141.156 199.656 140.726 199.914 140.297C200.334 139.724 200.934 139.317 201.666 139.627Z" fill="black"/>
<path d="M181.87 69.9394C181.941 69.9374 182.013 69.9355 182.087 69.9335C182.771 69.9281 183.376 70.0768 183.882 70.5597C184.298 71.0571 184.482 71.681 184.486 72.3213C184.487 72.3887 184.487 72.3887 184.488 72.4575C184.488 72.6023 184.488 72.7471 184.487 72.8919C184.487 72.9416 184.487 72.9913 184.487 73.0426C184.483 73.82 184.433 74.5608 184.265 75.3209C184.243 75.4247 184.243 75.4247 184.221 75.5307C184.083 76.1771 183.944 76.8239 183.778 77.4635C183.481 78.6095 183.585 79.6567 183.922 80.782C183.942 80.8499 183.962 80.9178 183.983 80.9878C184.054 81.2211 184.126 81.4539 184.198 81.6866C184.218 81.75 184.218 81.75 184.238 81.8147C184.747 83.4416 185.352 85.0253 185.982 86.6088C186.345 87.5233 186.696 88.4425 187.047 89.3616C187.162 89.6605 187.278 89.9588 187.395 90.2567C188.31 92.5999 189.089 95.0027 189.824 97.4081C189.893 97.6323 189.966 97.8555 190.039 98.0784C190.649 99.9236 191.167 101.8 191.626 103.688C191.688 103.945 191.758 104.199 191.833 104.452C191.967 104.909 192.079 105.372 192.193 105.834C192.378 106.584 192.582 107.325 192.803 108.065C192.912 108.428 193.012 108.793 193.11 109.159C193.204 109.18 193.204 109.18 193.3 109.202C196.459 109.915 200.391 111.077 202.273 113.95C202.347 114.073 202.42 114.195 202.491 114.319C202.522 114.373 202.553 114.426 202.585 114.482C203.099 115.435 203.278 116.571 203.015 117.633C202.682 118.675 202.18 119.49 201.419 120.283C201.361 120.346 201.302 120.409 201.242 120.475C198.824 123.05 194.763 124.218 191.435 125.04C191.36 125.059 191.285 125.078 191.208 125.097C189.887 125.426 188.556 125.689 187.214 125.911C187.164 125.92 187.113 125.928 187.062 125.937C185.55 126.189 184.037 126.366 182.51 126.502C182.432 126.509 182.353 126.516 182.272 126.523C182.042 126.543 181.812 126.563 181.582 126.583C181.483 126.591 181.483 126.591 181.383 126.6C180.114 126.704 178.845 126.726 177.573 126.727C177.416 126.727 177.259 126.727 177.102 126.727C176.774 126.728 176.447 126.728 176.119 126.728C175.789 126.728 175.459 126.728 175.129 126.729C173.189 126.734 171.258 126.716 169.323 126.581C169.243 126.576 169.164 126.571 169.082 126.565C168.052 126.495 167.035 126.363 166.014 126.214C165.782 126.181 165.55 126.149 165.318 126.119C160.716 125.503 155.073 124.495 151.231 121.757C151.165 121.71 151.1 121.664 151.032 121.615C149.786 120.704 148.622 119.549 148.081 118.071C148.06 118.016 148.039 117.961 148.017 117.904C147.727 116.99 147.717 115.72 148.148 114.855C148.182 114.784 148.215 114.713 148.249 114.64C148.511 114.119 148.83 113.679 149.221 113.247C149.271 113.191 149.321 113.135 149.373 113.078C150.117 112.294 151.018 111.737 151.968 111.237C152.009 111.215 152.05 111.192 152.092 111.17C153.786 110.259 155.668 109.62 157.545 109.217C157.748 109.154 157.802 109.122 157.931 108.958C158.015 108.754 158.015 108.754 158.083 108.515C158.097 108.47 158.111 108.426 158.125 108.38C158.168 108.238 158.211 108.096 158.254 107.953C158.282 107.862 158.31 107.77 158.338 107.679C158.381 107.538 158.424 107.397 158.467 107.256C158.57 106.915 158.677 106.574 158.784 106.234C158.946 105.726 159.105 105.217 159.263 104.707C160.164 101.804 161.103 98.919 162.113 96.052C162.22 95.7478 162.326 95.4433 162.432 95.1384C163.481 92.0948 164.718 89.0807 166.106 86.176C166.174 86.0326 166.242 85.8892 166.31 85.7457C166.508 85.3298 166.709 84.9151 166.91 84.5009C166.939 84.442 166.967 84.3831 166.997 84.3225C167.409 83.471 167.862 82.6461 168.334 81.8262C168.419 81.6767 168.503 81.5269 168.585 81.376C168.969 80.676 169.396 80.0116 169.842 79.3497C169.914 79.2426 169.986 79.1355 170.057 79.0284C171.5 76.8822 173.084 74.7083 175.085 73.0426C175.122 73.0117 175.159 72.9808 175.196 72.949C177.08 71.3655 179.342 69.9619 181.87 69.9394Z" fill="#AADCE7"/>
<path d="M181.87 69.9394C181.941 69.9374 182.013 69.9355 182.087 69.9335C182.771 69.9281 183.376 70.0768 183.882 70.5597C184.298 71.0571 184.482 71.681 184.486 72.3213C184.487 72.3887 184.487 72.3887 184.488 72.4575C184.488 72.6023 184.488 72.7471 184.487 72.8919C184.487 72.9416 184.487 72.9913 184.487 73.0426C184.483 73.82 184.433 74.5608 184.265 75.3209C184.243 75.4247 184.243 75.4247 184.221 75.5307C184.083 76.1771 183.944 76.8239 183.778 77.4635C183.481 78.6095 183.585 79.6567 183.922 80.782C183.942 80.8499 183.962 80.9178 183.983 80.9878C184.054 81.2211 184.126 81.4539 184.198 81.6866C184.218 81.75 184.218 81.75 184.238 81.8147C184.747 83.4416 185.352 85.0253 185.982 86.6088C186.345 87.5233 186.696 88.4425 187.047 89.3616C187.162 89.6605 187.278 89.9588 187.395 90.2567C188.31 92.5999 189.089 95.0027 189.824 97.4081C189.893 97.6323 189.966 97.8555 190.039 98.0784C190.649 99.9236 191.167 101.8 191.626 103.688C191.688 103.945 191.758 104.199 191.833 104.452C191.967 104.909 192.079 105.372 192.193 105.834C192.378 106.584 192.582 107.325 192.803 108.065C192.912 108.428 193.012 108.793 193.11 109.159C193.204 109.18 193.204 109.18 193.3 109.202C196.459 109.915 200.391 111.077 202.273 113.95C202.347 114.073 202.42 114.195 202.491 114.319C202.522 114.373 202.553 114.426 202.585 114.482C203.099 115.435 203.278 116.571 203.015 117.633C202.682 118.675 202.18 119.49 201.419 120.283C201.361 120.346 201.302 120.409 201.242 120.475C198.824 123.05 194.763 124.218 191.435 125.04C191.36 125.059 191.285 125.078 191.208 125.097C189.887 125.426 188.556 125.689 187.214 125.911C187.164 125.92 187.113 125.928 187.062 125.937C185.55 126.189 184.037 126.366 182.51 126.502C182.432 126.509 182.353 126.516 182.272 126.523C182.042 126.543 181.812 126.563 181.582 126.583C181.483 126.591 181.483 126.591 181.383 126.6C180.114 126.704 178.845 126.726 177.573 126.727C177.416 126.727 177.259 126.727 177.102 126.727C176.774 126.728 176.447 126.728 176.119 126.728C175.789 126.728 175.459 126.728 175.129 126.729C173.189 126.734 171.258 126.716 169.323 126.581C169.243 126.576 169.164 126.571 169.082 126.565C168.052 126.495 167.035 126.363 166.014 126.214C165.782 126.181 165.55 126.149 165.318 126.119C160.716 125.503 155.073 124.495 151.231 121.757C151.165 121.71 151.1 121.664 151.032 121.615C149.786 120.704 148.622 119.549 148.081 118.071C148.06 118.016 148.039 117.961 148.017 117.904C147.727 116.99 147.717 115.72 148.148 114.855C148.182 114.784 148.215 114.713 148.249 114.64C148.511 114.119 148.83 113.679 149.221 113.247C149.271 113.191 149.321 113.135 149.373 113.078C150.117 112.294 151.018 111.737 151.968 111.237C152.009 111.215 152.05 111.192 152.092 111.17C153.786 110.259 155.668 109.62 157.545 109.217C157.748 109.154 157.802 109.122 157.931 108.958C158.015 108.754 158.015 108.754 158.083 108.515C158.097 108.47 158.111 108.426 158.125 108.38C158.168 108.238 158.211 108.096 158.254 107.953C158.282 107.862 158.31 107.77 158.338 107.679C158.381 107.538 158.424 107.397 158.467 107.256C158.57 106.915 158.677 106.574 158.784 106.234C158.946 105.726 159.105 105.217 159.263 104.707C160.164 101.804 161.103 98.919 162.113 96.052C162.22 95.7478 162.326 95.4433 162.432 95.1384C163.481 92.0948 164.718 89.0807 166.106 86.176C166.174 86.0326 166.242 85.8892 166.31 85.7457C166.508 85.3298 166.709 84.9151 166.91 84.5009C166.939 84.442 166.967 84.3831 166.997 84.3225C167.409 83.471 167.862 82.6461 168.334 81.8262C168.419 81.6767 168.503 81.5269 168.585 81.376C168.969 80.676 169.396 80.0116 169.842 79.3497C169.914 79.2426 169.986 79.1355 170.057 79.0284C171.5 76.8822 173.084 74.7083 175.085 73.0426C175.122 73.0117 175.159 72.9808 175.196 72.949C177.08 71.3655 179.342 69.9619 181.87 69.9394ZM181.597 71.719C179.826 71.9338 178.258 72.9588 176.894 74.0478C176.833 74.0966 176.771 74.1455 176.707 74.1959C175.378 75.261 174.237 76.5122 173.23 77.8825C173.133 78.0135 173.033 78.1427 172.933 78.2718C169.399 82.8583 167.201 88.2287 165.022 93.5468C164.993 93.6155 164.965 93.6841 164.936 93.7548C164.598 94.5862 164.312 95.4365 164.022 96.2857C163.934 96.5435 163.846 96.8012 163.757 97.0589C163.74 97.1092 163.723 97.1594 163.705 97.2111C163.569 97.6095 163.431 98.0074 163.292 98.4048C163.274 98.4576 163.255 98.5104 163.236 98.5647C163.143 98.8295 163.047 99.0928 162.949 99.3555C162.862 99.5924 162.787 99.8308 162.718 100.074C162.485 100.892 162.204 101.693 161.924 102.496C161.667 103.235 161.424 103.975 161.215 104.73C161.116 105.09 161.005 105.444 160.884 105.797C160.722 106.27 160.578 106.748 160.44 107.229C160.29 107.749 160.135 108.265 159.958 108.777C159.708 109.524 159.491 110.281 159.267 111.035C159.118 111.537 158.964 112.036 158.795 112.532C158.542 113.215 158.542 113.215 158.601 113.917C159.248 115.052 161.18 115.527 162.353 115.851C162.603 115.92 162.849 116.003 163.095 116.086C163.642 116.264 164.204 116.383 164.766 116.505C164.811 116.515 164.856 116.525 164.902 116.535C165.935 116.759 166.97 116.953 168.016 117.1C168.067 117.107 168.117 117.114 168.169 117.121C169.019 117.24 169.87 117.322 170.726 117.385C170.78 117.389 170.833 117.392 170.889 117.397C171.207 117.419 171.526 117.44 171.844 117.459C171.948 117.465 172.052 117.471 172.155 117.478C173.29 117.55 174.426 117.55 175.563 117.551C175.785 117.552 176.006 117.553 176.227 117.554C177.698 117.564 179.143 117.505 180.606 117.358C180.892 117.33 181.178 117.308 181.465 117.288C182.397 117.221 183.315 117.06 184.236 116.903C184.427 116.872 184.619 116.842 184.811 116.815C185.731 116.686 186.631 116.468 187.534 116.247C187.7 116.207 187.867 116.168 188.034 116.131C189.353 115.816 191.522 115.228 192.306 114.051C192.391 113.503 192.239 112.991 192.085 112.47C192.031 112.284 191.979 112.098 191.928 111.912C191.755 111.287 191.579 110.664 191.393 110.043C191.256 109.584 191.138 109.122 191.024 108.656C190.844 107.928 190.639 107.207 190.431 106.486C190.407 106.404 190.383 106.322 190.359 106.238C190.313 106.077 190.266 105.915 190.219 105.754C190.091 105.309 189.978 104.863 189.876 104.41C189.8 104.085 189.707 103.764 189.613 103.443C189.595 103.38 189.577 103.317 189.558 103.251C189.514 103.099 189.469 102.946 189.425 102.794C189.202 102.868 189.156 102.923 189.01 103.1C188.797 103.352 188.57 103.585 188.332 103.815C188.148 104.006 188.087 104.113 188.059 104.381C188.076 105.035 188.308 105.683 188.515 106.298C188.735 106.955 188.936 107.566 188.612 108.226C188.45 108.476 188.311 108.604 188.018 108.69C187.632 108.714 187.351 108.669 186.996 108.51C186.949 108.491 186.903 108.471 186.855 108.451C186.521 108.307 186.193 108.151 185.865 107.994C185.781 107.954 185.696 107.914 185.612 107.874C185.444 107.794 185.278 107.713 185.111 107.63C185.033 107.593 184.956 107.556 184.876 107.518C184.807 107.484 184.737 107.45 184.666 107.415C184.433 107.34 184.299 107.355 184.064 107.417C183.919 107.496 183.919 107.496 183.784 107.606C181.732 109.108 181.732 109.108 180.915 109.053C180.611 108.99 180.438 108.834 180.253 108.594C180.029 107.886 180.224 107.087 180.345 106.37C180.596 105.357 180.596 105.357 180.428 104.401C180.309 104.274 180.184 104.167 180.048 104.059C179.955 103.979 179.862 103.899 179.769 103.819C179.724 103.781 179.679 103.744 179.633 103.705C179.472 103.567 179.324 103.419 179.177 103.267C178.728 102.78 178.728 102.78 178.168 102.459C178.096 102.346 178.096 102.346 178.034 102.191C178.009 102.133 177.984 102.075 177.958 102.015C177.856 101.622 177.835 101.27 177.996 100.892C178.231 100.651 178.454 100.556 178.771 100.449C178.836 100.426 178.901 100.403 178.967 100.38C179.837 100.113 180.75 100.061 181.652 99.9795C181.751 99.7441 181.828 99.5103 181.895 99.2641C181.914 99.1921 181.934 99.12 181.955 99.0457C181.996 98.8957 182.036 98.7456 182.077 98.5955C182.591 96.7275 182.591 96.7275 183.147 96.269C183.437 96.1052 183.743 96.0903 184.064 96.1601C184.841 96.5245 185.259 97.7856 185.617 98.5039C186 99.3132 186 99.3132 186.677 99.8455C186.87 99.864 187.058 99.8765 187.251 99.8832C187.359 99.888 187.467 99.8928 187.576 99.8978C187.654 99.9013 187.654 99.9013 187.735 99.9049C188.031 99.92 188.326 99.9498 188.621 99.9795C188.494 99.4472 188.348 98.9254 188.179 98.4048C188.156 98.3336 188.133 98.2624 188.11 98.1891C188.036 97.9594 187.962 97.7298 187.888 97.5002C187.836 97.3409 187.785 97.1815 187.734 97.0221C187.437 96.1025 187.138 95.1838 186.832 94.2671C186.817 94.2205 186.801 94.1739 186.785 94.1259C186.334 92.7706 185.874 91.4102 185.315 90.0949C185.167 89.7451 185.034 89.3903 184.901 89.0347C184.7 88.4966 184.495 87.9602 184.289 87.424C184.245 87.3088 184.201 87.1935 184.157 87.0781C184.092 86.908 184.026 86.7379 183.961 86.5679C183.942 86.5172 183.922 86.4665 183.902 86.4143C183.785 86.1085 183.658 85.8085 183.522 85.5103C183.419 85.2763 183.338 85.0357 183.256 84.794C183.112 84.3736 182.965 83.9544 182.812 83.5368C182.437 82.5084 182.094 81.4829 181.853 80.4134C181.84 80.3607 181.827 80.308 181.814 80.2536C181.544 79.0572 181.669 77.7953 182.006 76.6289C182.367 75.3546 182.605 74.1007 182.619 72.7746C182.621 72.6918 182.622 72.6089 182.624 72.5236C182.624 72.4074 182.624 72.4074 182.623 72.2888C182.623 72.2194 182.624 72.1499 182.624 72.0784C182.605 71.8963 182.605 71.8963 182.468 71.7802C182.191 71.6329 181.899 71.6926 181.597 71.719Z" fill="black"/>
<path d="M193.579 111.237C193.97 111.28 194.33 111.379 194.705 111.496C194.761 111.513 194.818 111.531 194.876 111.548C194.989 111.583 195.103 111.618 195.216 111.653C195.392 111.707 195.568 111.759 195.744 111.811C196.13 111.927 196.495 112.076 196.862 112.242C196.918 112.267 196.974 112.292 197.032 112.318C197.87 112.698 198.673 113.091 199.408 113.649C199.447 113.678 199.485 113.707 199.525 113.737C200.277 114.313 201.067 115.085 201.218 116.061C201.259 116.692 201.264 117.237 200.95 117.803C200.921 117.859 200.892 117.915 200.863 117.972C200.298 118.964 199.362 119.696 198.403 120.283C198.361 120.308 198.32 120.334 198.277 120.36C197.283 120.961 196.213 121.487 195.121 121.884C194.931 121.953 194.744 122.029 194.556 122.106C192.809 122.825 190.926 123.22 189.089 123.633C188.995 123.654 188.995 123.654 188.898 123.676C188.842 123.689 188.785 123.702 188.726 123.715C188.679 123.725 188.632 123.736 188.583 123.747C188.122 123.845 187.661 123.928 187.195 123.996C187.138 124.004 187.08 124.013 187.02 124.022C186.899 124.04 186.778 124.057 186.657 124.075C186.482 124.101 186.307 124.127 186.132 124.154C184.795 124.355 183.467 124.545 182.117 124.625C181.85 124.642 181.585 124.666 181.319 124.689C180.687 124.742 180.057 124.785 179.424 124.809C179.311 124.813 179.311 124.813 179.196 124.817C178.417 124.845 177.638 124.851 176.858 124.853C176.784 124.853 176.71 124.853 176.633 124.853C176.24 124.854 175.848 124.855 175.455 124.855C175.137 124.855 174.82 124.856 174.502 124.858C172.589 124.867 170.696 124.831 168.791 124.651C168.556 124.629 168.322 124.609 168.087 124.588C166.984 124.492 165.899 124.327 164.808 124.142C164.583 124.105 164.358 124.071 164.131 124.04C160.508 123.53 156.612 122.566 153.374 120.819C153.309 120.785 153.244 120.752 153.177 120.718C152.405 120.315 151.724 119.812 151.096 119.21C151.044 119.162 150.991 119.114 150.937 119.064C150.246 118.409 149.767 117.632 149.718 116.668C149.701 115.857 149.914 115.323 150.447 114.704C150.55 114.597 150.655 114.491 150.761 114.386C150.807 114.341 150.852 114.295 150.899 114.249C152.331 112.9 154.332 112.061 156.189 111.505C156.259 111.483 156.329 111.462 156.402 111.44C156.698 111.355 156.95 111.293 157.261 111.304C157.197 111.608 157.128 111.91 157.041 112.209C156.78 113.097 156.597 113.932 157.021 114.808C157.659 115.895 159.038 116.567 160.181 116.982C160.394 117.06 160.605 117.143 160.817 117.227C161.266 117.4 161.72 117.54 162.182 117.673C162.293 117.706 162.293 117.706 162.407 117.74C162.559 117.784 162.71 117.828 162.862 117.871C163.014 117.915 163.166 117.96 163.318 118.005C163.915 118.182 164.515 118.316 165.126 118.431C165.178 118.441 165.23 118.451 165.284 118.461C166.69 118.725 168.108 118.896 169.529 119.054C169.713 119.075 169.896 119.097 170.08 119.12C173.61 119.551 177.351 119.551 180.882 119.123C181.171 119.089 181.456 119.068 181.746 119.057C182.573 119.025 183.376 118.882 184.189 118.737C184.266 118.724 184.342 118.71 184.42 118.696C189.701 117.912 189.701 117.912 193.874 114.963C194.301 114.263 194.161 113.442 193.977 112.682C193.893 112.355 193.805 112.03 193.713 111.706C193.699 111.656 193.684 111.605 193.67 111.554C193.64 111.448 193.609 111.342 193.579 111.237Z" fill="#AADCE7"/>
<path d="M173.812 83.7636C174.441 84.0367 174.788 84.7961 175.089 85.3759C175.456 86.0893 175.456 86.0893 175.956 86.7119C176.151 86.721 176.345 86.726 176.54 86.7284C176.662 86.7306 176.784 86.7328 176.906 86.7351C177.098 86.7382 177.291 86.7412 177.483 86.7438C177.668 86.7465 177.854 86.75 178.039 86.7535C178.096 86.7541 178.152 86.7546 178.21 86.7552C178.71 86.7654 179.308 86.7842 179.709 87.1139C179.915 87.354 180.035 87.5646 180.014 87.8892C179.798 88.8332 179.035 89.791 178.371 90.4669C178.212 90.6443 178.212 90.6443 178.147 90.8663C178.161 91.0085 178.191 91.1322 178.234 91.2684C178.247 91.3115 178.26 91.3546 178.273 91.399C178.316 91.5344 178.365 91.6671 178.415 91.8002C178.432 91.8491 178.45 91.8979 178.468 91.9482C178.559 92.201 178.654 92.4519 178.752 92.7017C178.986 93.304 179.141 93.8295 179.039 94.4847C178.891 94.8146 178.694 94.998 178.369 95.1548C177.311 95.3034 176.119 94.8333 175.175 94.4036C175.116 94.3778 175.058 94.3521 174.997 94.3256C174.945 94.3016 174.893 94.2775 174.839 94.2528C174.621 94.2023 174.546 94.2436 174.348 94.3507C174.151 94.4829 173.961 94.6236 173.77 94.7653C173.325 95.0917 172.877 95.4049 172.405 95.6908C172.343 95.7288 172.28 95.7667 172.216 95.8057C171.757 96.0833 171.478 96.2204 170.931 96.1599C170.627 96.011 170.466 95.8632 170.328 95.5568C170.295 95.3137 170.296 95.0731 170.298 94.8281C170.299 94.7563 170.299 94.6845 170.299 94.6105C170.315 93.6675 170.456 92.7357 170.596 91.8044C170.555 91.7849 170.515 91.7653 170.473 91.7452C169.932 91.4667 169.449 91.013 169.005 90.603C168.834 90.4467 168.657 90.2998 168.477 90.1552C168.289 89.9657 168.231 89.7762 168.229 89.5136C168.242 89.1267 168.284 88.7604 168.564 88.4727C168.938 88.1973 169.368 88.0692 169.806 87.9324C170.168 87.8163 170.522 87.683 170.864 87.516C170.907 87.4988 170.95 87.4817 170.995 87.464C171.246 87.344 171.372 87.2391 171.494 86.9847C171.577 86.7382 171.648 86.4901 171.714 86.2387C172.443 83.6234 172.443 83.6234 173.812 83.7636Z" fill="black"/>
<path d="M168.862 100.575C169.326 100.878 169.489 101.363 169.62 101.877C169.648 101.983 169.677 102.089 169.705 102.195C169.726 102.276 169.726 102.276 169.748 102.359C169.82 102.635 169.896 102.909 169.972 103.183C169.985 103.233 169.999 103.283 170.013 103.335C170.049 103.468 170.088 103.6 170.127 103.732C170.138 103.789 170.15 103.846 170.162 103.905C170.276 104.092 170.311 104.102 170.512 104.162C170.621 104.189 170.73 104.213 170.839 104.237C170.897 104.251 170.955 104.264 171.014 104.279C171.2 104.322 171.386 104.364 171.572 104.406C171.756 104.449 171.94 104.491 172.124 104.535C172.238 104.561 172.353 104.588 172.468 104.613C172.916 104.717 173.37 104.844 173.713 105.161C173.908 105.514 173.875 105.889 173.812 106.278C173.696 106.525 173.54 106.694 173.343 106.881C173.294 106.929 173.246 106.977 173.196 107.026C172.841 107.358 172.46 107.658 172.076 107.955C172 108.013 171.925 108.072 171.851 108.131C171.77 108.194 171.687 108.254 171.603 108.311C171.355 108.493 171.355 108.493 171.228 108.763C171.217 108.924 171.222 109.078 171.232 109.239C171.234 109.296 171.236 109.353 171.238 109.412C171.251 109.749 171.281 110.083 171.317 110.418C171.341 110.743 171.349 111.066 171.354 111.392C171.356 111.456 171.358 111.52 171.36 111.586C171.363 111.973 171.333 112.209 171.065 112.51C170.741 112.697 170.43 112.775 170.06 112.711C169.645 112.553 169.291 112.29 168.937 112.028C168.859 111.971 168.859 111.971 168.779 111.912C168.625 111.799 168.471 111.686 168.318 111.572C168.234 111.51 168.151 111.449 168.068 111.388C167.499 110.966 167.499 110.966 167.312 110.768C167.062 110.866 166.817 110.972 166.573 111.084C166.495 111.119 166.417 111.154 166.338 111.19C166.176 111.262 166.015 111.335 165.854 111.409C164.666 111.943 164.666 111.943 164.121 111.919C164.065 111.918 164.009 111.916 163.951 111.914C163.911 111.912 163.87 111.909 163.828 111.907C163.828 111.863 163.828 111.818 163.828 111.773C163.789 111.769 163.751 111.765 163.711 111.76C163.49 111.68 163.42 111.567 163.292 111.371C163.251 111.181 163.232 111.034 163.229 110.843C163.229 110.79 163.228 110.736 163.227 110.682C163.255 109.956 163.552 109.28 163.812 108.61C164.029 108.063 164.029 108.063 164.096 107.484C164.026 107.347 164.026 107.347 163.899 107.258C163.587 106.984 163.344 106.674 163.091 106.345C163.038 106.278 162.985 106.21 162.93 106.14C162.519 105.607 162.233 105.213 162.25 104.518C162.314 104.2 162.509 103.999 162.756 103.799C162.953 103.684 163.098 103.648 163.325 103.644C163.384 103.642 163.443 103.641 163.504 103.64C163.599 103.638 163.599 103.638 163.695 103.637C163.76 103.636 163.825 103.635 163.892 103.633C164.1 103.629 164.307 103.626 164.515 103.623C164.656 103.621 164.797 103.618 164.937 103.615C165.282 103.609 165.627 103.603 165.972 103.598C165.993 103.556 166.014 103.515 166.035 103.472C166.363 102.818 166.707 102.171 167.065 101.533C167.105 101.462 167.145 101.391 167.186 101.318C167.578 100.699 168.094 100.258 168.862 100.575Z" fill="black"/>
<path d="M183.729 98.3713C183.979 98.4548 184.012 98.5617 184.128 98.7881C184.165 98.8617 184.165 98.8617 184.202 98.9367C184.255 99.0402 184.309 99.1435 184.362 99.2469C184.39 99.3009 184.418 99.3549 184.446 99.4105C184.591 99.689 184.742 99.9643 184.893 100.239C184.921 100.291 184.949 100.342 184.978 100.395C185.004 100.443 185.031 100.491 185.058 100.54C185.081 100.582 185.104 100.625 185.128 100.668C185.201 100.789 185.201 100.789 185.313 100.891C185.404 100.985 185.404 100.985 185.404 101.119C185.446 101.128 185.487 101.138 185.53 101.148C185.672 101.186 185.672 101.186 185.806 101.253C185.911 101.266 186.016 101.276 186.121 101.284C186.185 101.289 186.249 101.294 186.315 101.299C186.384 101.305 186.452 101.31 186.522 101.315C187.136 101.366 187.744 101.43 188.352 101.521C188.244 101.784 188.063 101.971 187.871 102.174C187.804 102.246 187.737 102.318 187.67 102.39C187.638 102.424 187.605 102.459 187.572 102.495C186.827 103.238 186.827 103.238 186.531 104.188C186.53 104.258 186.529 104.327 186.528 104.399C186.544 104.61 186.595 104.744 186.677 104.938C186.723 105.111 186.766 105.283 186.807 105.457C186.88 105.761 186.956 106.059 187.063 106.354C187.143 106.58 187.165 106.773 187.146 107.015C186.866 106.908 186.596 106.781 186.327 106.651C186.258 106.618 186.258 106.618 186.189 106.584C186.093 106.538 185.998 106.492 185.902 106.445C185.756 106.374 185.609 106.304 185.462 106.233C185.369 106.188 185.276 106.143 185.183 106.098C185.117 106.066 185.117 106.066 185.05 106.034C184.742 105.884 184.742 105.884 184.667 105.809C184.18 105.733 183.874 105.877 183.478 106.144C183.426 106.177 183.374 106.211 183.321 106.245C183.216 106.312 183.111 106.38 183.007 106.448C182.793 106.589 182.577 106.725 182.36 106.86C182.292 106.903 182.224 106.947 182.155 106.991C181.987 107.082 181.987 107.082 181.786 107.082C181.795 106.857 181.805 106.633 181.815 106.408C181.818 106.345 181.82 106.282 181.823 106.217C181.839 105.875 181.867 105.544 181.92 105.206C182.02 104.487 182.02 104.487 181.781 103.824C181.58 103.572 181.349 103.351 181.116 103.129C180.961 102.976 180.806 102.822 180.652 102.668C180.549 102.566 180.445 102.465 180.341 102.365C180.27 102.296 180.27 102.296 180.197 102.226C180.155 102.185 180.112 102.144 180.068 102.102C179.977 101.99 179.977 101.99 179.977 101.789C180.162 101.727 180.303 101.707 180.496 101.693C180.559 101.688 180.622 101.683 180.687 101.678C180.817 101.668 180.948 101.659 181.079 101.65C181.682 101.601 182.227 101.513 182.692 101.105C182.91 100.84 183.016 100.531 183.109 100.206C183.293 99.5866 183.513 98.9798 183.729 98.3713Z" fill="#F8E482"/>
<path d="M173.477 85.975C173.691 86.0649 173.787 86.1422 173.899 86.3453C173.925 86.3926 173.952 86.4398 173.979 86.4885C174.007 86.5388 174.034 86.589 174.063 86.6409C174.553 87.5529 174.553 87.5529 175.286 88.2532C175.502 88.2897 175.715 88.2845 175.934 88.2794C175.996 88.279 176.058 88.2786 176.122 88.2782C176.319 88.2767 176.517 88.2734 176.714 88.27C176.848 88.2686 176.982 88.2674 177.116 88.2663C177.444 88.2634 177.772 88.2587 178.1 88.2532C178.003 88.4512 177.898 88.6265 177.769 88.806C177.549 89.1179 177.329 89.4303 177.112 89.7441C177.08 89.7892 177.049 89.8343 177.016 89.8808C176.721 90.3068 176.485 90.6654 176.559 91.2015C176.682 91.8069 176.872 92.3285 177.144 92.8835C177.254 93.1341 177.285 93.3423 177.296 93.6138C176.975 93.5719 176.688 93.48 176.388 93.3643C176.29 93.3279 176.193 93.2915 176.096 93.2551C175.944 93.1979 175.792 93.1404 175.641 93.0826C175.493 93.0264 175.346 92.9713 175.198 92.9162C175.153 92.8989 175.109 92.8815 175.063 92.8636C174.709 92.7327 174.387 92.6695 174.032 92.8194C173.973 92.8563 173.914 92.8932 173.854 92.9312C173.785 92.9732 173.717 93.0153 173.647 93.0586C173.468 93.173 173.291 93.2888 173.114 93.4047C173.038 93.4544 173.038 93.4544 172.96 93.5051C172.859 93.5711 172.758 93.6376 172.658 93.7046C172.612 93.7352 172.565 93.7659 172.518 93.7975C172.476 93.8251 172.435 93.8526 172.393 93.881C172.264 93.9527 172.147 93.9866 172.002 94.0158C171.995 93.6158 172.004 93.2212 172.036 92.8223C172.161 91.8598 172.161 91.8598 171.851 90.9859C171.665 90.7957 171.461 90.6351 171.251 90.4739C171.046 90.3163 170.846 90.1553 170.65 89.987C170.587 89.9343 170.523 89.8816 170.458 89.8274C170.327 89.6604 170.327 89.6604 170.341 89.4389C170.358 89.3793 170.376 89.3197 170.394 89.2583C170.459 89.2413 170.524 89.2243 170.591 89.2068C170.818 89.1469 171.044 89.0862 171.271 89.0249C171.381 88.9953 171.491 88.9662 171.601 88.9372C172.096 88.7999 172.433 88.6107 172.74 88.1862C172.82 88.0029 172.82 88.0029 172.876 87.8059C172.898 87.7338 172.921 87.6617 172.944 87.5875C172.977 87.4755 172.977 87.4755 173.012 87.3612C173.057 87.2134 173.103 87.0657 173.148 86.918C173.18 86.8135 173.18 86.8135 173.213 86.7069C173.292 86.459 173.382 86.2173 173.477 85.975Z" fill="#F8E482"/>
<path d="M168.184 102.66C168.228 102.66 168.272 102.66 168.318 102.66C168.393 102.904 168.469 103.148 168.544 103.393C168.565 103.461 168.586 103.53 168.608 103.6C168.702 103.908 168.791 104.209 168.85 104.526C168.913 104.826 169.034 105.001 169.226 105.24C169.28 105.308 169.334 105.376 169.39 105.447C169.596 105.695 169.661 105.689 169.986 105.721C170.068 105.729 170.15 105.737 170.234 105.746C170.406 105.763 170.578 105.779 170.75 105.796C171.2 105.842 171.632 105.9 172.07 106.01C171.981 106.276 171.812 106.359 171.588 106.509C171.176 106.792 170.797 107.1 170.425 107.433C170.14 107.685 170.14 107.685 169.993 107.685C169.725 108.286 169.769 108.888 169.779 109.532C169.78 109.646 169.781 109.759 169.782 109.873C169.784 110.149 169.788 110.425 169.792 110.701C169.475 110.65 169.29 110.524 169.046 110.324C168.166 109.616 168.166 109.616 167.089 109.4C166.456 109.472 165.842 109.746 165.286 110.047C165.168 110.098 165.168 110.098 164.967 110.098C165.005 109.943 165.042 109.788 165.08 109.633C165.098 109.561 165.098 109.561 165.116 109.487C165.192 109.181 165.279 108.881 165.374 108.58C165.622 107.872 165.622 107.872 165.57 107.149C165.374 106.828 165.122 106.55 164.874 106.268C164.712 106.081 164.562 105.886 164.414 105.688C164.366 105.624 164.317 105.56 164.267 105.494C164.163 105.34 164.163 105.34 164.163 105.206C164.208 105.204 164.253 105.203 164.299 105.201C164.506 105.193 164.714 105.185 164.921 105.177C164.992 105.174 165.062 105.171 165.135 105.169C166.066 105.18 166.066 105.18 166.91 104.871C166.981 104.761 167.047 104.649 167.111 104.536C167.147 104.476 167.182 104.416 167.218 104.355C167.34 104.146 167.463 103.937 167.585 103.728C167.627 103.655 167.67 103.582 167.714 103.507C167.755 103.436 167.796 103.366 167.838 103.294C167.876 103.23 167.913 103.166 167.951 103.101C168.034 102.955 168.111 102.81 168.184 102.66Z" fill="#F8E482"/>
</svg>
