<svg width="350" height="350" viewBox="0 0 350 350" fill="none" xmlns="http://www.w3.org/2000/svg">
<path d="M119.517 99.1495C119.732 99.2557 119.947 99.362 120.168 99.4715C123.653 101.206 126.959 103.234 130.271 105.273C131.287 105.898 132.306 106.519 133.327 107.137C133.592 107.298 133.858 107.459 134.132 107.624C134.625 107.923 135.118 108.221 135.611 108.519C135.834 108.654 136.056 108.789 136.286 108.929C136.499 109.058 136.711 109.187 136.931 109.32C137.749 109.838 138.532 110.402 139.31 110.98C140.266 111.456 141.101 111.346 142.112 111.077C142.346 110.991 142.581 110.905 142.822 110.817C143.091 110.722 143.36 110.626 143.637 110.528C143.926 110.424 144.215 110.321 144.513 110.214C154.055 106.924 164.031 105.473 174.099 105.527C174.371 105.528 174.643 105.529 174.923 105.53C185.672 105.571 196.013 107.299 206.266 110.556C206.511 110.632 206.756 110.709 207.008 110.787C207.647 111.003 207.647 111.003 208.471 111.407C209.693 111.596 210.451 110.842 211.416 110.15C211.877 109.835 212.338 109.522 212.8 109.209C213.049 109.04 213.297 108.871 213.553 108.697C214.968 107.755 216.42 106.874 217.874 105.994C218.027 105.902 218.179 105.81 218.336 105.715C222.658 103.1 227.038 100.561 231.596 98.377C232.195 98.0864 232.788 97.786 233.382 97.4855C237.609 95.3757 242.113 93.4456 246.897 93.4158C247.107 93.4105 247.318 93.4052 247.535 93.3997C249.603 93.3865 251.29 93.8945 252.832 95.3244C256.839 99.7853 257.311 106.876 257.897 112.549C257.926 112.821 257.926 112.821 257.954 113.098C258.765 121.346 257.989 129.784 257.14 137.996C257.108 138.313 257.108 138.313 257.076 138.635C256.682 142.508 256.682 142.508 256.279 144.247C255.464 147.787 256.533 150.062 258.068 153.286C261.847 161.545 262.706 170.602 262.536 179.549C262.814 179.548 262.814 179.548 263.098 179.547C268.31 179.538 268.31 179.538 269.413 180.435C270.304 181.423 270.358 182.039 270.337 183.332C270.225 184.282 269.88 184.782 269.236 185.476C267.051 186.813 264.451 186.248 262.02 185.991C261.993 186.207 261.993 186.207 261.966 186.427C261.58 189.446 261.099 192.351 260.216 195.268C260.533 195.334 260.85 195.399 261.177 195.467C261.597 195.556 262.018 195.646 262.439 195.735C262.647 195.778 262.855 195.821 263.07 195.865C264.57 196.188 265.845 196.575 267.013 197.62C267.598 198.655 267.669 199.517 267.432 200.68C266.989 201.536 266.376 202.077 265.563 202.596C263.732 202.971 261.825 202.339 260.071 201.823C259.861 201.763 259.65 201.703 259.433 201.641C258.92 201.494 258.409 201.345 257.897 201.195C257.853 201.338 257.81 201.481 257.765 201.628C257.318 203.035 256.775 204.325 256.077 205.624C255.976 205.812 255.875 206.001 255.772 206.195C254.143 209.166 252.14 211.76 249.783 214.192C249.514 214.47 249.248 214.749 248.983 215.03C243.913 220.398 236.941 225.332 229.809 227.48C230.122 227.718 230.122 227.718 230.442 227.962C233.239 230.098 235.945 232.293 238.516 234.698C239.046 235.194 239.58 235.683 240.122 236.166C241.333 237.246 242.479 238.324 243.522 239.568C243.853 239.955 244.196 240.332 244.546 240.701C247.514 243.831 249.954 247.382 251.97 251.187C252.091 251.405 252.211 251.622 252.336 251.847C254.515 255.93 255.581 260.59 254.299 265.124C253.095 268.507 251.011 270.675 247.847 272.318C242.13 274.655 236.443 274.696 230.729 272.313C230.335 272.145 229.943 271.974 229.551 271.803C229.598 271.985 229.645 272.168 229.694 272.356C230.334 274.967 230.717 277.596 231.081 280.258C231.131 280.618 231.131 280.618 231.182 280.985C236.111 316.789 236.111 316.789 230.848 323.755C227.604 327.27 222.619 328.927 217.955 329.268C216.505 329.318 215.057 329.331 213.606 329.332C213.305 329.333 213.305 329.333 212.998 329.333C207.439 329.328 201.082 328.908 196.793 324.905C194.578 322.464 193.645 319.572 192.911 316.431C192.868 316.252 192.824 316.072 192.78 315.886C192.509 314.654 192.386 313.44 192.301 312.181C192.279 311.857 192.257 311.534 192.235 311.201C192.219 310.955 192.202 310.709 192.186 310.456C192.02 310.472 191.855 310.487 191.685 310.503C186.498 310.965 181.343 311.053 176.139 311.039C175.031 311.036 173.923 311.038 172.815 311.041C167.566 311.052 162.371 310.918 157.14 310.456C157.124 310.683 157.107 310.91 157.091 311.144C157.058 311.593 157.058 311.593 157.024 312.051C156.992 312.495 156.992 312.495 156.959 312.948C156.859 314.07 156.672 315.155 156.431 316.254C156.386 316.462 156.341 316.67 156.294 316.884C155.421 320.726 153.951 323.82 150.698 326.175C146.352 328.815 141.455 329.317 136.492 329.33C135.889 329.332 135.286 329.34 134.682 329.348C128.953 329.389 123.394 328.29 119.066 324.291C115.724 320.752 115.786 316.697 115.829 312.115C115.83 311.84 115.832 311.565 115.833 311.282C115.886 301.206 116.806 291.226 118.116 281.241C118.141 281.044 118.167 280.847 118.194 280.644C118.572 277.771 119.026 274.915 119.517 272.06C119.196 272.166 118.876 272.272 118.546 272.38C112.506 274.348 106.995 274.989 101.108 272.157C98.0722 270.595 96.0521 268.266 94.8289 265.077C93.4181 260.062 95.2776 254.744 97.6689 250.354C99.6738 246.815 102.068 243.667 104.819 240.678C105.291 240.164 105.745 239.64 106.197 239.108C108.068 236.964 110.131 234.986 112.302 233.149C112.572 232.914 112.842 232.679 113.112 232.443C115.105 230.71 117.147 229.065 119.259 227.48C119.111 227.414 118.964 227.347 118.811 227.279C118.327 227.061 117.843 226.84 117.36 226.618C116.687 226.311 116.014 226.012 115.336 225.716C110.684 223.646 106.544 220.834 102.767 217.43C102.551 217.245 102.335 217.06 102.113 216.869C100.834 215.768 99.712 214.611 98.6439 213.307C98.435 213.059 98.226 212.811 98.0108 212.556C95.2362 209.199 93.0003 205.401 91.1709 201.453C89.8084 201.562 88.6125 201.851 87.3055 202.258C85.8593 202.682 84.8926 202.906 83.4401 202.484C82.4249 201.866 81.938 201.316 81.6363 200.164C81.5086 199.164 81.5933 198.703 82.0551 197.797C83.2937 196.33 84.9572 196.084 86.7579 195.735C86.9845 195.69 87.211 195.644 87.4444 195.597C87.999 195.485 88.554 195.376 89.1093 195.268C89.073 195.106 89.0367 194.944 88.9993 194.777C88.3473 191.859 87.7036 188.957 87.3055 185.991C87.0249 186.002 87.0249 186.002 86.7387 186.012C85.8862 186.039 85.0338 186.055 84.181 186.072C83.8867 186.083 83.5924 186.094 83.2891 186.105C80.84 186.14 80.84 186.14 79.8989 185.374C79.1301 184.487 79.0196 184.08 79.0111 182.931C79.0056 182.597 79.0056 182.597 79 182.257C79.0873 181.307 79.3571 180.769 80.074 180.145C81.7239 179.438 83.5693 179.538 85.3396 179.544C85.7494 179.545 85.7494 179.545 86.1675 179.546C86.373 179.547 86.5784 179.548 86.7901 179.549C86.7861 179.337 86.782 179.125 86.7779 178.906C86.6236 169.543 87.942 160.398 91.8272 151.774C91.9352 151.534 92.0432 151.294 92.1545 151.047C92.3608 150.599 92.5731 150.153 92.7928 149.712C93.5675 148.054 93.537 146.803 93.2324 145.018C93.1977 144.799 93.1629 144.579 93.1272 144.353C93.0523 143.894 92.975 143.436 92.8954 142.978C91.0163 131.977 90.2657 120.297 91.6863 109.199C91.7125 108.984 91.7387 108.768 91.7658 108.546C92.3556 103.848 93.3387 98.0324 97.0978 94.7687C103.837 90.5041 113.428 96.118 119.517 99.1495Z" fill="#FBE9CC"/>
<path d="M119.517 99.1495C119.732 99.2557 119.947 99.362 120.168 99.4715C123.653 101.206 126.959 103.234 130.271 105.273C131.287 105.898 132.306 106.519 133.327 107.137C133.592 107.298 133.858 107.459 134.132 107.624C134.625 107.923 135.118 108.221 135.611 108.519C135.834 108.654 136.056 108.789 136.286 108.929C136.499 109.058 136.711 109.187 136.931 109.32C137.749 109.838 138.532 110.402 139.31 110.98C140.266 111.456 141.101 111.346 142.112 111.077C142.346 110.991 142.581 110.905 142.822 110.817C143.091 110.722 143.36 110.626 143.637 110.528C143.926 110.424 144.215 110.321 144.513 110.214C154.055 106.924 164.031 105.473 174.099 105.527C174.371 105.528 174.643 105.529 174.923 105.53C185.672 105.571 196.013 107.299 206.266 110.556C206.511 110.632 206.756 110.709 207.008 110.787C207.647 111.003 207.647 111.003 208.471 111.407C209.693 111.596 210.451 110.842 211.416 110.15C211.877 109.835 212.338 109.522 212.8 109.209C213.049 109.04 213.297 108.871 213.553 108.697C214.968 107.755 216.42 106.874 217.874 105.994C218.027 105.902 218.179 105.81 218.336 105.715C222.658 103.1 227.038 100.561 231.596 98.377C232.195 98.0864 232.788 97.786 233.382 97.4855C237.609 95.3757 242.113 93.4456 246.897 93.4158C247.107 93.4105 247.318 93.4052 247.535 93.3997C249.603 93.3865 251.29 93.8945 252.832 95.3244C256.839 99.7853 257.311 106.876 257.897 112.549C257.926 112.821 257.926 112.821 257.954 113.098C258.765 121.346 257.989 129.784 257.14 137.996C257.108 138.313 257.108 138.313 257.076 138.635C256.682 142.508 256.682 142.508 256.279 144.247C255.464 147.787 256.533 150.062 258.068 153.286C261.847 161.545 262.706 170.602 262.536 179.549C262.814 179.548 262.814 179.548 263.098 179.547C268.31 179.538 268.31 179.538 269.413 180.435C270.304 181.423 270.358 182.039 270.337 183.332C270.225 184.282 269.88 184.782 269.236 185.476C267.051 186.813 264.451 186.248 262.02 185.991C261.993 186.207 261.993 186.207 261.966 186.427C261.58 189.446 261.099 192.351 260.216 195.268C260.533 195.334 260.85 195.399 261.177 195.467C261.597 195.556 262.018 195.646 262.439 195.735C262.647 195.778 262.855 195.821 263.07 195.865C264.57 196.188 265.845 196.575 267.013 197.62C267.598 198.655 267.669 199.517 267.432 200.68C266.989 201.536 266.376 202.077 265.563 202.596C263.732 202.971 261.825 202.339 260.071 201.823C259.861 201.763 259.65 201.703 259.433 201.641C258.92 201.494 258.409 201.345 257.897 201.195C257.853 201.338 257.81 201.481 257.765 201.628C257.318 203.035 256.775 204.325 256.077 205.624C255.976 205.812 255.875 206.001 255.772 206.195C254.143 209.166 252.14 211.76 249.783 214.192C249.514 214.47 249.248 214.749 248.983 215.03C243.913 220.398 236.941 225.332 229.809 227.48C230.122 227.718 230.122 227.718 230.442 227.962C233.239 230.098 235.945 232.293 238.516 234.698C239.046 235.194 239.58 235.683 240.122 236.166C241.333 237.246 242.479 238.324 243.522 239.568C243.853 239.955 244.196 240.332 244.546 240.701C247.514 243.831 249.954 247.382 251.97 251.187C252.091 251.405 252.211 251.622 252.336 251.847C254.515 255.93 255.581 260.59 254.299 265.124C253.095 268.507 251.011 270.675 247.847 272.318C242.13 274.655 236.443 274.696 230.729 272.313C230.335 272.145 229.943 271.974 229.551 271.803C229.598 271.985 229.645 272.168 229.694 272.356C230.334 274.967 230.717 277.596 231.081 280.258C231.131 280.618 231.131 280.618 231.182 280.985C236.111 316.789 236.111 316.789 230.848 323.755C227.604 327.27 222.619 328.927 217.955 329.268C216.505 329.318 215.057 329.331 213.606 329.332C213.305 329.333 213.305 329.333 212.998 329.333C207.439 329.328 201.082 328.908 196.793 324.905C194.578 322.464 193.645 319.572 192.911 316.431C192.868 316.252 192.824 316.072 192.78 315.886C192.509 314.654 192.386 313.44 192.301 312.181C192.279 311.857 192.257 311.534 192.235 311.201C192.219 310.955 192.202 310.709 192.186 310.456C192.02 310.472 191.855 310.487 191.685 310.503C186.498 310.965 181.343 311.053 176.139 311.039C175.031 311.036 173.923 311.038 172.815 311.041C167.566 311.052 162.371 310.918 157.14 310.456C157.124 310.683 157.107 310.91 157.091 311.144C157.058 311.593 157.058 311.593 157.024 312.051C156.992 312.495 156.992 312.495 156.959 312.948C156.859 314.07 156.672 315.155 156.431 316.254C156.386 316.462 156.341 316.67 156.294 316.884C155.421 320.726 153.951 323.82 150.698 326.175C146.352 328.815 141.455 329.317 136.492 329.33C135.889 329.332 135.286 329.34 134.682 329.348C128.953 329.389 123.394 328.29 119.066 324.291C115.724 320.752 115.786 316.697 115.829 312.115C115.83 311.84 115.832 311.565 115.833 311.282C115.886 301.206 116.806 291.226 118.116 281.241C118.141 281.044 118.167 280.847 118.194 280.644C118.572 277.771 119.026 274.915 119.517 272.06C119.196 272.166 118.876 272.272 118.546 272.38C112.506 274.348 106.995 274.989 101.108 272.157C98.0722 270.595 96.0521 268.266 94.8289 265.077C93.4181 260.062 95.2776 254.744 97.6689 250.354C99.6738 246.815 102.068 243.667 104.819 240.678C105.291 240.164 105.745 239.64 106.197 239.108C108.068 236.964 110.131 234.986 112.302 233.149C112.572 232.914 112.842 232.679 113.112 232.443C115.105 230.71 117.147 229.065 119.259 227.48C119.111 227.414 118.964 227.347 118.811 227.279C118.327 227.061 117.843 226.84 117.36 226.618C116.687 226.311 116.014 226.012 115.336 225.716C110.684 223.646 106.544 220.834 102.767 217.43C102.551 217.245 102.335 217.06 102.113 216.869C100.834 215.768 99.712 214.611 98.6439 213.307C98.435 213.059 98.226 212.811 98.0108 212.556C95.2362 209.199 93.0003 205.401 91.1709 201.453C89.8084 201.562 88.6125 201.851 87.3055 202.258C85.8593 202.682 84.8926 202.906 83.4401 202.484C82.4249 201.866 81.938 201.316 81.6363 200.164C81.5086 199.164 81.5933 198.703 82.0551 197.797C83.2937 196.33 84.9572 196.084 86.7579 195.735C86.9845 195.69 87.211 195.644 87.4444 195.597C87.999 195.485 88.554 195.376 89.1093 195.268C89.073 195.106 89.0367 194.944 88.9993 194.777C88.3473 191.859 87.7036 188.957 87.3055 185.991C87.0249 186.002 87.0249 186.002 86.7387 186.012C85.8862 186.039 85.0338 186.055 84.181 186.072C83.8867 186.083 83.5924 186.094 83.2891 186.105C80.84 186.14 80.84 186.14 79.8989 185.374C79.1301 184.487 79.0196 184.08 79.0111 182.931C79.0056 182.597 79.0056 182.597 79 182.257C79.0873 181.307 79.3571 180.769 80.074 180.145C81.7239 179.438 83.5693 179.538 85.3396 179.544C85.7494 179.545 85.7494 179.545 86.1675 179.546C86.373 179.547 86.5784 179.548 86.7901 179.549C86.7861 179.337 86.782 179.125 86.7779 178.906C86.6236 169.543 87.942 160.398 91.8272 151.774C91.9352 151.534 92.0432 151.294 92.1545 151.047C92.3608 150.599 92.5731 150.153 92.7928 149.712C93.5675 148.054 93.537 146.803 93.2324 145.018C93.1977 144.799 93.1629 144.579 93.1272 144.353C93.0523 143.894 92.975 143.436 92.8954 142.978C91.0163 131.977 90.2657 120.297 91.6863 109.199C91.7125 108.984 91.7387 108.768 91.7658 108.546C92.3556 103.848 93.3387 98.0324 97.0978 94.7687C103.837 90.5041 113.428 96.118 119.517 99.1495ZM101.221 100.808C100.062 102.294 99.5701 103.764 99.1271 105.576C99.0862 105.74 99.0453 105.904 99.0032 106.073C97.9773 110.569 98.0351 115.132 98.048 119.716C98.0485 120.063 98.049 120.409 98.0494 120.756C98.0635 128.156 98.5088 135.372 99.771 142.667C100.294 145.789 100.718 148.643 99.1754 151.509C95.0553 159.916 92.7711 170.161 93.2324 179.549C93.769 180.086 94.9353 179.878 95.6805 179.903C97.4048 179.98 99.0988 180.119 100.802 180.403C101.07 180.444 101.07 180.444 101.344 180.485C102.499 180.692 103.238 181.022 104.055 181.868C104.431 182.804 104.451 183.762 104.141 184.721C103.772 185.442 103.423 185.918 102.702 186.295C100.152 187.057 96.9028 186.441 94.2632 186.249C94.179 187.827 94.4897 189.189 94.8913 190.71C94.9506 190.944 95.0099 191.177 95.071 191.418C95.3583 192.599 95.3583 192.599 95.8093 193.722C96.255 193.685 96.7006 193.648 97.1461 193.609C97.3942 193.588 97.6424 193.568 97.898 193.546C98.6262 193.48 98.6262 193.48 99.26 193.33C100.14 193.169 100.987 193.163 101.881 193.158C102.216 193.155 102.552 193.151 102.897 193.147C104.17 193.231 104.17 193.231 104.829 193.722C105.301 194.436 105.432 195.048 105.457 195.896C105.472 196.183 105.472 196.183 105.488 196.475C105.268 197.386 104.834 197.882 104.055 198.361C103.058 198.696 102.045 198.893 101.011 199.085C100.735 199.141 100.458 199.197 100.172 199.254C99.4919 199.39 98.8108 199.522 98.1285 199.649C99.2125 203.183 101.183 206.118 103.54 208.926C103.713 209.133 103.713 209.133 103.89 209.344C109.904 216.408 118.339 220.565 127.074 223.241C131.053 224.467 131.053 224.467 131.886 225.934C132.049 227.239 131.893 227.976 131.113 229.026C130.488 229.37 130.488 229.37 129.744 229.638C125.021 231.485 121.003 234.193 117.332 237.69C116.806 238.186 116.273 238.658 115.726 239.129C112.717 241.75 109.798 244.637 107.405 247.837C107.174 248.138 106.943 248.439 106.712 248.74C103.834 252.531 100.49 257.267 100.963 262.268C101.255 263.922 102.13 264.883 103.4 265.937C106.102 267.809 109.423 268.067 112.593 267.512C114.524 267.12 116.352 266.534 118.164 265.763C118.333 265.692 118.502 265.621 118.676 265.547C119.88 265.003 120.978 264.35 121.522 263.09C121.69 262.538 121.827 261.985 121.956 261.422C122.033 261.112 122.033 261.112 122.111 260.796C122.22 260.355 122.326 259.914 122.431 259.472C122.594 258.785 122.762 258.1 122.932 257.415C123.155 256.518 123.377 255.62 123.597 254.722C123.964 253.231 124.353 251.747 124.767 250.269C124.85 249.96 124.85 249.96 124.934 249.645C125.341 248.212 125.886 247.013 127.087 246.066C127.918 245.709 128.412 245.648 129.309 245.776C130.091 246.197 130.671 246.563 131.21 247.274C131.728 249.087 131.12 250.85 130.654 252.612C130.5 253.21 130.346 253.808 130.193 254.406C130.111 254.719 130.03 255.032 129.947 255.354C126.375 269.17 123.963 283.079 122.867 297.314C122.852 297.51 122.836 297.706 122.82 297.908C122.474 302.377 122.299 306.845 122.261 311.327C122.257 311.793 122.251 312.259 122.244 312.725C122.119 316.447 122.119 316.447 123.774 319.671C126.658 322.581 131.64 322.842 135.491 322.875C142.08 322.943 142.08 322.943 147.698 319.994C150.284 316.823 150.539 312.097 150.9 308.175C151.053 306.712 151.211 305.654 152.244 304.529C153.52 303.635 154.577 303.689 156.061 303.821C156.256 303.834 156.45 303.848 156.651 303.862C157.415 303.918 158.176 303.985 158.937 304.073C163.908 304.653 168.937 304.59 173.935 304.593C174.315 304.594 174.695 304.594 175.075 304.595C180.95 304.604 186.775 304.455 192.621 303.827C194.239 303.693 195.436 303.604 196.824 304.529C198.354 306.399 198.475 308.529 198.725 310.843C199.353 316.2 199.353 316.2 202.123 320.699C206.086 323.694 213.103 323.195 217.745 322.6C220.721 322.164 223.795 321.589 225.879 319.234C227.148 317.506 227.279 315.72 227.268 313.623C227.267 313.424 227.267 313.226 227.266 313.021C227.24 310.048 227.072 307.079 226.91 304.111C226.893 303.794 226.875 303.477 226.858 303.15C226.079 288.965 224.285 274.867 220.829 261.072C220.785 260.898 220.741 260.723 220.696 260.543C220.256 258.79 219.811 257.038 219.356 255.288C219.227 254.792 219.099 254.294 218.971 253.797C218.814 253.185 218.654 252.573 218.492 251.962C218.106 250.461 217.82 249.131 217.955 247.58C218.514 246.662 219.028 246.175 220.016 245.776C220.579 245.737 220.579 245.737 221.16 245.792C221.351 245.805 221.542 245.819 221.739 245.833C222.627 246.131 223.018 246.61 223.624 247.322C223.94 248.01 224.133 248.716 224.325 249.447C224.382 249.653 224.44 249.859 224.499 250.071C224.684 250.738 224.863 251.405 225.041 252.073C225.167 252.53 225.294 252.988 225.42 253.445C226.142 256.076 226.831 258.714 227.32 261.399C227.599 262.811 227.989 263.58 229.036 264.587C232.968 267.099 237.733 268.314 242.339 267.39C244.78 266.758 246.478 265.772 247.832 263.62C248.802 261.563 248.365 259.61 247.69 257.543C245.7 252.299 242.321 248.075 238.57 243.972C238.35 243.725 238.13 243.478 237.903 243.223C236.25 241.376 234.505 239.681 232.643 238.045C232.514 237.93 232.385 237.815 232.251 237.696C228.516 234.382 224.502 231.371 219.727 229.767C218.912 229.48 218.457 229.273 217.778 228.72C217.31 227.718 217.142 226.754 217.44 225.676C218.337 224.552 219.129 224.167 220.5 223.791C220.869 223.684 221.237 223.576 221.606 223.467C221.805 223.409 222.005 223.351 222.21 223.291C230.443 220.824 237.419 217.103 243.724 211.245C243.899 211.087 244.074 210.93 244.254 210.767C247.363 207.839 249.951 203.718 251.197 199.649C251.017 199.617 250.836 199.584 250.65 199.551C249.827 199.401 249.006 199.243 248.185 199.085C247.901 199.035 247.617 198.984 247.324 198.932C244.625 198.402 244.625 198.402 243.724 197.072C243.505 196.277 243.562 195.559 243.724 194.753C244.186 194.013 244.493 193.596 245.27 193.207C247.99 192.977 250.599 193.478 253.259 193.98C253.794 192.608 254.242 191.253 254.595 189.825C254.641 189.65 254.687 189.476 254.734 189.296C254.994 188.258 255.111 187.318 255.063 186.249C254.807 186.268 254.551 186.286 254.287 186.305C252.518 186.429 250.748 186.533 248.975 186.571C248.695 186.578 248.415 186.584 248.127 186.591C247.188 186.492 246.586 186.23 245.786 185.734C245.207 184.763 245.013 184.126 245.013 182.996C245.327 181.933 245.688 181.515 246.559 180.838C247.696 180.38 248.727 180.232 249.947 180.159C250.116 180.148 250.286 180.138 250.46 180.127C250.996 180.093 251.531 180.063 252.067 180.032C252.432 180.01 252.798 179.988 253.163 179.965C254.054 179.91 254.945 179.858 255.836 179.807C255.929 175.442 255.866 171.221 255.063 166.922C255.021 166.697 254.98 166.473 254.937 166.241C253.913 160.886 252.221 155.589 249.842 150.681C248.622 148.049 249.211 145.546 249.642 142.768C250.812 135.106 251.264 127.431 251.278 119.684C251.279 119.43 251.28 119.175 251.281 118.913C251.289 114.438 251.186 109.873 250.086 105.511C250.038 105.295 249.989 105.078 249.939 104.855C249.513 103.094 248.88 101.47 247.332 100.438C245.909 100.345 244.687 100.503 243.321 100.921C243.136 100.977 242.95 101.033 242.759 101.091C232.294 104.412 222.17 110.868 213.268 117.174C211.546 118.364 209.994 118.919 207.905 118.734C207.112 118.468 207.112 118.468 206.294 118.09C201.345 115.954 195.922 114.813 190.64 113.838C190.433 113.798 190.227 113.759 190.014 113.718C174.597 110.809 157.838 112.551 143.188 118.041C141.483 118.675 140.099 119.087 138.344 118.38C135.848 117.178 133.546 115.534 131.226 114.031C127.343 111.522 123.383 109.125 119.314 106.93C118.925 106.72 118.536 106.509 118.149 106.297C109.976 101.439 109.976 101.439 101.221 100.808Z" fill="black"/>
<path d="M174.437 240.235C174.739 240.237 175.041 240.239 175.352 240.24C181.152 240.361 185.84 242.424 189.866 246.549C190.073 246.753 190.279 246.957 190.492 247.167C196.631 253.55 198.516 263.229 198.479 271.777C198.377 276.649 197.003 280.698 193.474 284.172C193.31 284.336 193.145 284.5 192.976 284.669C187.039 290.223 178.507 290.142 170.899 289.895C165.819 289.683 160.952 288.311 156.882 285.202C156.689 285.057 156.496 284.911 156.297 284.76C152.952 282.042 151.211 277.834 150.741 273.626C150.602 271.907 150.664 270.175 150.697 268.452C150.702 268.176 150.706 267.9 150.71 267.615C151.065 259.991 154.012 252.574 158.944 246.806C159.097 246.627 159.25 246.447 159.408 246.262C163.261 242.103 168.882 240.203 174.437 240.235Z" fill="#F2D3A3"/>
<path d="M192.036 241.052C192.255 241.25 192.475 241.449 192.701 241.653C192.918 241.849 193.135 242.044 193.359 242.246C197.403 246.089 199.975 251.099 201.72 256.341C201.815 256.616 201.91 256.891 202.007 257.175C204.122 263.87 204.736 271.661 203.009 278.503C202.967 278.67 202.926 278.838 202.883 279.011C201.546 284.161 198.042 288.455 193.498 291.165C187.632 294.448 181.441 295.312 174.824 295.317C174.498 295.317 174.498 295.317 174.165 295.318C170.846 295.313 167.606 295.218 164.355 294.48C164.165 294.437 163.975 294.394 163.778 294.35C157.753 292.925 151.988 289.583 148.663 284.263C144.531 277.388 144.577 267.981 146.41 260.345C146.465 260.129 146.519 259.914 146.575 259.691C146.628 259.473 146.682 259.254 146.738 259.029C148.267 253.013 150.963 247.599 155.078 242.941C155.315 242.673 155.315 242.673 155.556 242.399C164.855 232.486 181.947 232.381 192.036 241.052ZM158.019 247.836C153.401 253.591 150.968 261.123 150.698 268.453C150.691 268.628 150.684 268.803 150.676 268.983C150.5 273.966 151.239 278.535 154.305 282.626C154.466 282.854 154.466 282.854 154.629 283.088C157.977 287.468 163.986 289.007 169.159 289.768C170.974 289.986 172.805 289.956 174.631 289.938C174.952 289.936 174.952 289.936 175.28 289.934C182.342 289.891 188.776 288.861 193.99 283.657C194.24 283.41 194.24 283.41 194.496 283.159C198.223 279.228 198.573 274.072 198.452 268.947C198.135 260.63 195.48 252.336 189.609 246.291C189.462 246.128 189.314 245.964 189.162 245.796C185.934 242.322 181.009 240.479 176.346 240.265C168.871 240.074 163.037 242.118 158.019 247.836Z" fill="black"/>
<path d="M232.595 178.824C235.353 180.711 237.026 183.267 237.797 186.507C238.228 190.538 237.364 193.602 234.838 196.78C232.779 199.073 229.869 200.272 226.855 200.486C223.196 200.608 220.214 199.554 217.441 197.14C215.026 194.628 214.009 191.49 214.052 188.075C214.21 184.771 215.505 182.045 217.955 179.807C222.451 176.432 227.693 175.925 232.595 178.824Z" fill="#F4A99C"/>
<path d="M129.052 178.261C129.25 178.36 129.449 178.459 129.654 178.561C132.22 180.006 134.076 182.77 134.946 185.541C135.688 188.692 135.383 191.851 133.808 194.699C132.11 197.271 129.683 199.207 126.733 200.164C123.44 200.807 120.156 200.637 117.205 198.955C114.517 197.128 112.488 194.617 111.786 191.403C111.453 186.987 111.976 183.987 114.83 180.53C118.509 176.498 124.335 175.909 129.052 178.261Z" fill="#F4A99C"/>
<path d="M109.08 109.335C110.789 109.566 112.307 110.265 113.848 111.003C114.007 111.079 114.166 111.155 114.33 111.233C118.486 113.252 122.142 116.065 125.768 118.899C126.162 119.207 126.558 119.511 126.955 119.814C127.683 120.431 127.996 120.855 128.117 121.809C127.997 122.799 127.763 123.013 127.006 123.646C126.771 123.844 126.537 124.042 126.295 124.246C125.129 125.178 123.939 126.077 122.748 126.976C121.206 128.143 119.737 129.379 118.279 130.649C117.547 131.287 116.796 131.898 116.038 132.504C114.913 133.416 113.855 134.381 112.801 135.371C110.633 137.396 110.633 137.396 109.596 138.286C109.407 138.451 109.219 138.615 109.024 138.784C108.436 139.092 108.436 139.092 107.626 139.065C106.89 138.834 106.89 138.834 106.326 138.013C104.402 133.494 104.483 127.99 104.504 123.171C104.507 122.42 104.504 121.669 104.501 120.918C104.494 112.346 104.494 112.346 106.452 109.793C107.252 109.179 108.107 109.308 109.08 109.335Z" fill="#F4A99C"/>
<path d="M242.178 109.457C244.089 110.97 244.341 113.667 244.609 115.96C245.268 122.927 245.694 132.129 242.693 138.576C241.881 138.982 241.24 139.072 240.374 138.834C239.573 138.275 238.896 137.602 238.204 136.915C237.4 136.124 236.574 135.354 235.752 134.582C235.573 134.414 235.395 134.246 235.211 134.073C233.805 132.754 232.351 131.528 230.839 130.33C230.382 129.955 229.926 129.579 229.47 129.203C228.391 128.319 227.299 127.453 226.201 126.594C225.896 126.354 225.592 126.114 225.288 125.874C224.712 125.421 224.132 124.975 223.546 124.535C223.162 124.239 223.162 124.239 222.77 123.936C222.543 123.764 222.315 123.593 222.081 123.416C221.428 122.712 221.329 122.263 221.305 121.311C222.521 119.451 224.428 118.226 226.201 116.93C226.367 116.807 226.533 116.685 226.704 116.558C237.834 108.352 237.834 108.352 242.178 109.457Z" fill="#F4A99C"/>
<path d="M174.728 174.83C174.982 174.823 175.236 174.815 175.498 174.808C177.284 174.792 178.755 175.073 180.333 175.942C181.237 176.846 181.576 177.548 181.702 178.825C181.544 180.751 180.599 181.987 179.237 183.302C178.786 183.672 178.786 183.672 178.029 184.011C177.45 184.391 177.45 184.391 177.392 184.982C177.316 187.149 177.895 189.214 179.302 190.888C180.984 192.237 182.667 192.775 184.81 192.675C187.458 192.346 189.014 191.133 190.689 189.112C191.322 188.375 191.545 188.323 192.525 188.23C193.623 188.323 193.995 188.574 194.763 189.342C195.211 190.237 195.14 191.198 195.021 192.176C193.689 194.742 191.076 196.658 188.414 197.658C185.469 198.565 182.089 198.468 179.279 197.217C177.637 196.336 176.215 195.321 174.921 193.98C174.176 194.321 173.768 194.61 173.149 195.188C170.26 197.738 166.871 198.342 163.147 198.16C159.636 197.823 157.177 195.744 154.958 193.186C154.236 192.281 154.206 191.57 154.213 190.44C154.36 189.515 154.873 189.118 155.594 188.569C156.342 188.194 156.824 188.215 157.656 188.311C158.591 188.954 159.239 189.635 159.943 190.517C161.092 191.857 162.051 192.354 163.825 192.541C165.987 192.647 168.032 192.599 169.767 191.145C171.239 189.439 172.014 187.645 171.978 185.385C171.796 184.555 171.579 184.35 170.895 183.866C170.707 183.75 170.52 183.635 170.327 183.516C169.115 182.738 168.035 181.48 167.706 180.065C167.566 178.77 167.562 177.793 168.124 176.602C169.889 174.698 172.314 174.854 174.728 174.83Z" fill="black"/>
<path d="M212.308 163.826C212.939 164.133 213.51 164.467 214.09 164.861C214.44 165.076 214.44 165.076 214.798 165.296C216.586 167.133 217.26 169.067 217.263 171.585C217.215 173.949 216.418 175.609 214.809 177.31C212.962 179.049 211.067 179.444 208.596 179.405C206.682 179.176 204.973 178.304 203.653 176.892C203.428 176.582 203.213 176.265 203.009 175.941C202.903 175.787 202.798 175.633 202.689 175.474C201.51 173.393 201.595 170.448 202.188 168.184C203.043 166.267 204.588 164.857 206.436 163.91C208.267 163.262 210.45 163.233 212.308 163.826Z" fill="black"/>
<path d="M143.112 164.104C144.98 165.221 146.339 166.666 147.09 168.726C147.69 171.189 147.559 173.706 146.317 175.942C145.031 177.649 143.531 178.844 141.421 179.292C139.038 179.577 137.243 179.333 135.236 178.003C134.96 177.828 134.684 177.652 134.399 177.472C132.799 175.982 132.077 174.021 131.973 171.879C131.949 169.46 132.288 167.65 133.971 165.822C136.441 163.479 139.922 162.621 143.112 164.104Z" fill="black"/>
<path d="M138.599 137.122C138.69 137.134 138.78 137.146 138.873 137.158C141.96 137.575 146.232 138.178 148.333 140.783C148.727 141.368 148.927 141.747 148.817 142.469C148.678 142.92 148.386 143.264 148.028 143.566C147.465 143.819 146.955 143.729 146.374 143.567C145.88 143.336 145.419 143.055 144.951 142.774C143.182 141.724 141.502 141.19 139.467 140.894C139.242 140.861 139.242 140.861 139.013 140.828C137.671 140.647 136.338 140.586 134.998 140.805C134.913 140.819 134.827 140.832 134.739 140.845C134.085 140.95 133.447 141.1 132.809 141.282C132.204 141.441 131.585 141.487 131.013 141.185C130.676 140.947 130.494 140.747 130.296 140.381C130.187 139.72 130.237 139.099 130.563 138.506C131.228 137.941 132.005 137.706 132.838 137.508C132.943 137.483 133.049 137.458 133.157 137.431C134.94 137.025 136.784 136.875 138.599 137.122Z" fill="black"/>
<path d="M215.112 150.669C215.229 150.731 215.229 150.731 215.348 150.795C215.954 151.15 216.441 151.612 216.674 152.333C216.733 153.055 216.673 153.542 216.325 154.185C215.84 154.686 215.42 154.914 214.742 154.903C214.078 154.805 213.447 154.514 212.819 154.27C211.096 153.601 209.559 153.317 207.728 153.323C207.599 153.323 207.599 153.323 207.468 153.323C205.231 153.332 202.977 153.551 200.887 154.477C200.248 154.749 199.709 154.766 199.039 154.591C198.449 154.229 198.243 153.798 198.044 153.103C197.96 152.469 197.98 152.024 198.246 151.446C199.336 150.074 200.704 149.799 202.31 149.535C202.558 149.494 202.806 149.45 203.054 149.407C206.962 148.741 211.484 148.722 215.112 150.669Z" fill="black"/>
<path d="M243.213 123.553C247.497 123.967 251.583 125.444 254.703 128.467L255.002 128.764L255.018 128.78L255.034 128.798C257.894 131.859 259.025 135.633 258.66 139.462L258.658 139.475C258.149 144.47 255.037 147.861 251.265 150.547L251.262 150.549C251.142 150.634 251.021 150.718 250.901 150.803L250.902 150.804C250.841 150.847 250.779 150.891 250.716 150.935L250.716 150.936C250.403 151.158 250.087 151.38 249.771 151.601C248.583 152.435 247.89 153.163 247.43 153.916C246.968 154.674 246.659 155.591 246.439 156.934L246.438 156.945L246.436 156.955C246.42 157.047 246.404 157.139 246.387 157.233C246.375 157.307 246.363 157.382 246.351 157.458L246.326 157.604L246.282 157.745C246.069 158.41 245.743 158.852 245.3 159.259L245.037 159.502L244.705 159.638C243.83 159.997 243.127 160.024 242.363 159.949L242.364 159.95C242.257 159.94 242.257 159.939 242.148 159.929L241.437 159.857L240.948 159.809L240.947 159.809C240.602 159.775 240.256 159.739 239.912 159.703C239.483 159.658 239.052 159.615 238.617 159.573L237.597 159.47L237.123 159.424L237.122 159.423C236.887 159.401 236.653 159.376 236.426 159.351L236.426 159.35L235.948 159.302L235.85 159.282C234.845 159.075 234.27 158.583 233.852 158.199L233.587 157.955L233.423 157.633C232.863 156.532 233.089 155.432 233.131 155.129C233.143 155.024 233.155 154.92 233.168 154.812L233.17 154.792C233.471 152.378 234.178 150.315 235.399 148.47C236.609 146.642 238.256 145.133 240.287 143.728L240.3 143.719L240.313 143.71C240.639 143.493 240.969 143.29 241.257 143.114C242.225 142.509 243.117 141.837 243.902 141.1L243.914 141.087L243.927 141.076C244.001 141.008 244.074 140.94 244.15 140.871C245.218 139.867 245.632 138.938 245.661 137.662C245.59 137.104 245.286 136.497 244.744 136.015C244.016 135.513 243.223 135.206 242.255 135.061L242.246 135.059C242.168 135.047 242.09 135.035 242.01 135.022C240.644 134.849 239.571 134.99 238.722 135.473C237.841 136.084 237.157 136.873 236.393 137.894L236.388 137.902C236.336 137.969 236.285 138.038 236.232 138.108C236.189 138.167 236.182 138.177 236.125 138.255L236.048 138.36L235.958 138.455C235.308 139.138 234.584 139.367 233.987 139.481L233.785 139.52L233.58 139.517C232.51 139.501 231.506 139.035 230.859 138.7C230.502 138.515 230.158 138.317 229.873 138.153C229.721 138.065 229.59 137.99 229.473 137.924L229.163 137.756C228.886 137.616 228.609 137.476 228.33 137.336L228.329 137.335C228.15 137.244 227.971 137.154 227.792 137.064L227.793 137.063C227.711 137.021 227.629 136.98 227.544 136.938L227.54 136.936C226.952 136.637 226.486 136.404 226.16 136.189C225.668 135.863 225.419 135.535 225.24 135.308L224.988 134.987L224.882 134.592C224.501 133.178 224.988 132.086 225.527 131.288C225.572 131.22 225.576 131.213 225.63 131.13L225.64 131.116C226.767 129.433 228.108 128.059 229.746 126.821C229.833 126.755 229.918 126.687 230.007 126.619L230.021 126.61L230.034 126.599C232.384 124.845 235.109 123.887 238.012 123.494L238.012 123.495C238.092 123.483 238.173 123.471 238.254 123.459L238.265 123.457L238.276 123.457C239.941 123.237 241.55 123.393 242.938 123.528L242.938 123.527C243.027 123.535 243.117 123.544 243.208 123.552L243.213 123.553Z" fill="#FFF288" stroke="black" stroke-width="4"/>
<path d="M233.879 160.867C236.741 159.241 240.864 159.123 243.725 161.47L243.998 161.705L244.045 161.749C244.144 161.844 244.144 161.844 244.245 161.941L244.438 162.125L244.479 162.164C246.067 163.762 246.659 165.777 246.557 167.74L246.554 167.825L246.541 167.91C246.275 169.836 245.246 171.555 243.62 172.749L243.576 172.782L243.531 172.811C241.312 174.261 239.166 174.397 236.855 174.095L236.826 174.091L236.797 174.086C234.704 173.75 233.165 172.516 232.097 171.329L232.057 171.285L232.021 171.239C230.67 169.546 230.27 167.537 230.56 165.624L230.569 165.564L230.582 165.504C230.99 163.599 232.131 162.034 233.751 160.946L233.813 160.904L233.879 160.867Z" fill="#FFF288" stroke="black" stroke-width="4"/>
<path d="M175.966 69.7663C176.81 70.4129 177.303 71.3726 177.449 72.4216C177.534 73.561 177.167 74.6075 176.443 75.483C176.129 75.8162 175.761 76.083 175.354 76.2935C175.291 76.2935 175.229 76.2935 175.164 76.2935C175.49 76.8102 175.826 77.32 176.169 77.8258C176.208 77.8829 176.246 77.94 176.286 77.9988C176.447 78.2353 176.607 78.4718 176.768 78.708C177.267 79.4409 177.749 80.1797 178.205 80.9397C178.345 81.1722 178.492 81.4006 178.639 81.6293C180.075 83.8908 181.405 86.2316 182.71 88.5706C182.942 88.9866 183.178 89.4006 183.415 89.8135C183.622 89.7235 183.753 89.6151 183.907 89.4525C184.156 89.1983 184.415 88.9649 184.685 88.7345C184.83 88.6102 184.976 88.4859 185.121 88.3615C185.16 88.3286 185.199 88.2956 185.238 88.2616C185.463 88.0693 185.684 87.8743 185.903 87.6752C186.194 87.4113 186.496 87.1627 186.802 86.9155C186.965 86.783 187.127 86.6491 187.289 86.5154C187.521 86.3238 187.753 86.1327 187.986 85.9416C188.029 85.9062 188.072 85.8708 188.116 85.8343C188.628 85.4131 189.147 85.0022 189.676 84.6017C190.038 84.3258 190.393 84.0409 190.745 83.751C191.025 83.5206 191.312 83.3007 191.604 83.0852C191.567 83.0405 191.567 83.0405 191.529 82.9949C190.76 82.0502 190.408 80.8644 190.525 79.6576C190.699 78.6355 191.3 77.7447 192.103 77.0988C192.989 76.4747 193.979 76.3821 195.031 76.4839C196.039 76.6794 197.041 77.3649 197.622 78.2017C198.16 79.125 198.33 80.22 198.085 81.2668C197.81 82.2388 197.171 83.0854 196.301 83.593C195.923 83.7772 195.573 83.909 195.158 83.9739C195.16 84.0252 195.161 84.0764 195.163 84.1292C195.177 85.0083 195.101 85.8809 195.03 86.7565C195.019 86.891 195.009 87.0256 194.998 87.1602C194.874 88.7253 194.725 90.2872 194.557 91.8482C194.52 92.1914 194.485 92.5348 194.45 92.8782C194.39 93.4668 194.328 94.0551 194.264 94.6433C194.238 94.886 194.212 95.1287 194.186 95.3715C194.18 95.4335 194.173 95.4955 194.166 95.5594C194.046 96.6837 193.933 97.8087 193.821 98.934C193.717 99.9898 193.611 101.045 193.492 102.1C193.484 102.168 193.484 102.168 193.476 102.238C193.437 102.585 193.398 102.932 193.358 103.279C193.32 103.614 193.285 103.95 193.254 104.286C193.247 104.349 193.24 104.413 193.233 104.478C193.208 104.858 193.313 105.049 193.538 105.352C194.057 106.1 193.9 107.229 193.902 108.094C193.902 108.157 193.902 108.221 193.902 108.286C193.903 108.622 193.904 108.958 193.904 109.294C193.904 109.639 193.906 109.984 193.908 110.329C193.909 110.596 193.909 110.863 193.909 111.131C193.909 111.258 193.91 111.385 193.911 111.512C193.921 113.187 193.921 113.187 193.524 113.664C190.153 116.557 182.847 116.307 178.648 116.477C178.547 116.481 178.547 116.481 178.443 116.486C176.997 116.543 175.553 116.556 174.106 116.553C173.767 116.552 173.429 116.552 173.09 116.553C159.618 116.578 159.618 116.578 153.764 113.738C153.111 113.067 153.246 111.935 153.248 111.068C153.248 110.945 153.248 110.821 153.248 110.698C153.248 110.44 153.248 110.182 153.249 109.925C153.249 109.597 153.249 109.269 153.248 108.941C153.248 108.686 153.248 108.432 153.248 108.177C153.248 108.056 153.248 107.935 153.248 107.815C153.244 105.71 153.244 105.71 153.81 105.059C153.921 104.887 153.917 104.805 153.902 104.602C153.897 104.536 153.893 104.47 153.888 104.402C153.878 104.292 153.878 104.292 153.868 104.179C153.859 104.058 153.859 104.058 153.849 103.935C153.778 103.048 153.682 102.162 153.589 101.277C153.506 100.48 153.428 99.6828 153.355 98.8849C153.35 98.8387 153.346 98.7925 153.342 98.745C153.3 98.286 153.258 97.8271 153.217 97.368C153.205 97.2379 153.194 97.1078 153.182 96.9777C153.167 96.8188 153.153 96.6599 153.139 96.5011C153.097 96.0428 153.042 95.5881 152.979 95.1322C152.927 94.7292 152.888 94.325 152.849 93.9205C152.84 93.8282 152.832 93.7358 152.823 93.6435C152.799 93.3966 152.775 93.1498 152.752 92.9029C152.737 92.748 152.723 92.5932 152.708 92.4384C152.511 90.3537 152.35 88.267 152.203 86.1782C152.185 85.9304 152.167 85.6825 152.149 85.4347C152.143 85.3529 152.137 85.271 152.131 85.1867C152.12 85.031 152.109 84.8753 152.097 84.7195C152.092 84.6502 152.087 84.5809 152.082 84.5095C152.078 84.4488 152.073 84.388 152.069 84.3254C152.06 84.1873 152.059 84.0488 152.059 83.9104C151.981 83.9078 151.902 83.9052 151.821 83.9025C151.034 83.8133 150.308 83.2492 149.814 82.6551C149.384 82.0669 149.046 81.3454 149.012 80.6097C149.007 80.5329 149.007 80.5329 149.002 80.4545C148.963 79.3312 149.397 78.318 150.155 77.4995C150.79 76.8184 151.691 76.4802 152.604 76.4006C153.655 76.3654 154.592 76.6594 155.399 77.3408C156.162 78.0686 156.641 79.0405 156.709 80.098C156.693 81.107 156.338 82.147 155.632 82.8807C155.605 82.9063 155.578 82.9319 155.55 82.9583C155.62 83.1673 155.657 83.1989 155.827 83.3255C155.871 83.3589 155.915 83.3922 155.961 83.4266C156.009 83.4619 156.056 83.4972 156.106 83.5335C156.205 83.6081 156.304 83.6826 156.403 83.7572C156.452 83.794 156.502 83.8308 156.552 83.8687C156.743 84.0118 156.932 84.1572 157.121 84.3032C157.319 84.4558 157.518 84.6083 157.717 84.7599C158.234 85.1542 158.74 85.5618 159.243 85.9738C159.345 86.0572 159.447 86.1404 159.549 86.2235C160.17 86.7283 160.782 87.2419 161.374 87.7799C161.502 87.896 161.632 88.0101 161.763 88.1235C162.04 88.3648 162.31 88.613 162.58 88.8619C162.725 88.9961 162.872 89.1291 163.019 89.2616C163.095 89.3305 163.171 89.3994 163.246 89.4684C163.283 89.5009 163.319 89.5335 163.357 89.567C163.444 89.6466 163.528 89.7298 163.611 89.8135C163.611 89.8554 163.611 89.8973 163.611 89.9405C163.783 89.7871 163.879 89.6248 163.986 89.4218C164.021 89.3554 164.056 89.2891 164.093 89.2208C164.13 89.1493 164.168 89.0778 164.207 89.0042C164.287 88.8533 164.367 88.7025 164.448 88.5517C164.478 88.4945 164.478 88.4945 164.509 88.4361C164.801 87.8913 165.108 87.3554 165.414 86.8187C165.516 86.6395 165.617 86.4599 165.717 86.28C166.151 85.5059 166.599 84.7424 167.058 83.9831C167.246 83.6722 167.431 83.3597 167.615 83.0465C167.991 82.4049 168.38 81.7729 168.78 81.1465C168.885 80.9828 168.988 80.8185 169.092 80.6541C169.859 79.436 170.677 78.2544 171.505 77.0771C171.688 76.8162 171.871 76.5548 172.054 76.2935C172.004 76.2845 171.955 76.2754 171.904 76.2661C171.323 76.1413 170.788 75.6526 170.459 75.1745C169.851 74.2221 169.599 73.1665 169.81 72.0417C170.052 71.0444 170.566 70.1304 171.459 69.5846C172.922 68.7771 174.573 68.7772 175.966 69.7663Z" fill="black"/>
<path d="M173.576 77.2456C173.818 77.4663 173.99 77.7177 174.171 77.9875C174.223 78.0641 174.223 78.0641 174.276 78.1422C174.403 78.3297 174.529 78.5176 174.655 78.7055C174.709 78.7856 174.763 78.8656 174.817 78.9456C175.524 79.9958 176.224 81.0481 176.877 82.1331C176.912 82.1915 176.948 82.2499 176.984 82.3101C177.599 83.3285 178.206 84.3524 178.813 85.3761C178.976 85.652 179.14 85.9278 179.304 86.2034C180.067 87.4855 180.822 88.7703 181.528 90.0844C181.764 90.5218 182.003 90.9564 182.249 91.3885C182.28 91.4446 182.312 91.5007 182.344 91.5585C182.374 91.6101 182.403 91.6618 182.434 91.715C182.472 91.7827 182.472 91.7827 182.511 91.8518C182.591 91.974 182.669 92.0677 182.78 92.162C182.951 92.1995 182.951 92.1995 183.141 92.1978C183.204 92.2005 183.267 92.2032 183.332 92.2059C183.95 92.0766 184.403 91.4374 184.825 91.0036C185.194 90.6243 185.571 90.2713 185.985 89.941C186.199 89.7696 186.406 89.5898 186.612 89.4089C187.012 89.0606 187.415 88.7168 187.821 88.3754C187.923 88.2893 188.024 88.2028 188.125 88.1161C188.507 87.7899 188.894 87.4729 189.29 87.1646C189.579 86.9393 189.863 86.709 190.147 86.4771C193.062 84.1008 193.062 84.1008 193.38 84.1008C193.406 85.0091 193.327 85.9061 193.249 86.8104C193.239 86.9351 193.228 87.0598 193.218 87.1845C193.048 89.184 192.841 91.1798 192.632 93.1755C192.619 93.3022 192.606 93.4288 192.592 93.5555C192.52 94.2506 192.447 94.9457 192.373 95.6407C192.273 96.5822 192.175 97.5239 192.079 98.4658C192.073 98.5273 192.067 98.5887 192.06 98.652C191.983 99.4069 191.908 100.162 191.833 100.917C191.808 101.179 191.782 101.44 191.756 101.702C191.727 101.996 191.699 102.29 191.67 102.584C191.655 102.739 191.639 102.894 191.624 103.049C191.618 103.119 191.611 103.189 191.604 103.261C191.561 103.692 191.497 104.115 191.413 104.54C188.418 105.247 185.356 105.609 182.293 105.86C182.162 105.871 182.031 105.882 181.899 105.894C181.415 105.935 180.931 105.967 180.446 105.992C180.348 105.997 180.25 106.002 180.151 106.008C178.034 106.124 175.917 106.138 173.797 106.138C173.659 106.138 173.521 106.138 173.383 106.138C171.711 106.139 170.042 106.129 168.372 106.063C168.3 106.06 168.229 106.057 168.155 106.054C167.694 106.036 167.234 106.013 166.773 105.988C166.703 105.984 166.632 105.98 166.56 105.976C163.743 105.816 160.929 105.559 158.152 105.047C158.07 105.032 158.07 105.032 157.985 105.017C156.016 104.653 156.016 104.653 155.677 104.54C155.672 104.485 155.667 104.431 155.662 104.375C155.613 103.849 155.565 103.324 155.516 102.799C155.491 102.529 155.466 102.26 155.441 101.99C155.331 100.788 155.214 99.5871 155.082 98.3872C154.995 97.5903 154.916 96.7931 154.848 95.9943C154.786 95.2797 154.718 94.5667 154.636 93.854C154.511 92.7579 154.42 91.6588 154.326 90.5596C154.307 90.3388 154.288 90.118 154.269 89.8972C154.176 88.8143 154.085 87.7312 153.996 86.6479C153.988 86.5484 153.98 86.4489 153.971 86.3494C153.91 85.6005 153.862 84.8519 153.836 84.1008C154.167 84.2812 154.465 84.483 154.764 84.7118C154.808 84.7453 154.853 84.7788 154.898 84.8133C155.031 84.914 155.163 85.0152 155.296 85.1164C155.333 85.1448 155.37 85.1732 155.409 85.2024C155.909 85.584 156.404 85.9722 156.898 86.3616C157.008 86.4479 157.118 86.5338 157.228 86.6197C158.352 87.4986 159.444 88.4096 160.501 89.3692C160.938 89.7649 160.938 89.7649 161.381 90.1547C161.972 90.6714 162.537 91.2076 163.087 91.7673C163.149 91.8304 163.149 91.8304 163.213 91.8948C163.268 91.9514 163.268 91.9514 163.325 92.0092C163.517 92.1888 163.692 92.1802 163.948 92.1898C164.02 92.1937 164.092 92.1975 164.166 92.2015C164.395 92.1578 164.473 92.0957 164.609 91.9088C164.782 91.6355 164.939 91.3547 165.095 91.0711C165.133 91.0016 165.172 90.9322 165.211 90.8606C165.293 90.7134 165.374 90.5661 165.455 90.4187C165.655 90.0551 165.857 89.6923 166.059 89.3295C166.118 89.2219 166.118 89.2219 166.179 89.1121C166.786 88.0205 167.402 86.9361 168.041 85.8631C168.313 85.406 168.582 84.9472 168.851 84.4878C169.304 83.7118 169.765 82.9409 170.235 82.1754C170.337 82.0105 170.437 81.8452 170.538 81.6799C171.468 80.1538 172.455 78.6398 173.576 77.2456Z" fill="#F8E482"/>
<path d="M155.106 106.253C155.645 106.296 156.171 106.389 156.703 106.486C158.992 106.901 161.293 107.247 163.611 107.459C163.659 107.464 163.706 107.468 163.756 107.473C166.93 107.764 170.11 107.798 173.296 107.793C173.638 107.793 173.981 107.793 174.323 107.793C176.403 107.796 178.479 107.795 180.556 107.666C180.891 107.645 181.227 107.628 181.562 107.61C184.418 107.452 187.257 107.011 190.074 106.532C190.116 106.525 190.158 106.518 190.201 106.511C190.427 106.472 190.653 106.432 190.879 106.39C190.928 106.382 190.976 106.373 191.026 106.364C191.118 106.347 191.211 106.33 191.303 106.312C191.554 106.266 191.792 106.239 192.048 106.253C192.17 106.375 192.119 106.557 192.119 106.72C192.119 106.777 192.118 106.835 192.118 106.895C192.118 106.956 192.118 107.016 192.118 107.079C192.118 107.281 192.118 107.482 192.117 107.684C192.117 107.823 192.117 107.963 192.117 108.102C192.117 108.47 192.116 108.837 192.115 109.205C192.115 109.58 192.114 109.954 192.114 110.329C192.113 111.065 192.112 111.801 192.111 112.537C192.029 112.578 191.948 112.619 191.866 112.66C191.821 112.683 191.775 112.706 191.729 112.73C188.388 114.369 183.896 114.401 180.265 114.616C180.202 114.62 180.139 114.624 180.074 114.628C178.028 114.747 175.983 114.772 173.934 114.771C173.873 114.771 173.812 114.771 173.75 114.771C171.595 114.77 169.445 114.738 167.293 114.632C167.225 114.629 167.158 114.626 167.089 114.622C158.321 114.198 158.321 114.198 155.042 112.537C155.041 111.737 155.039 110.936 155.039 110.136C155.038 109.764 155.038 109.392 155.037 109.02C155.037 108.662 155.036 108.304 155.036 107.945C155.036 107.808 155.036 107.671 155.035 107.534C155.035 107.343 155.035 107.151 155.035 106.96C155.035 106.903 155.034 106.846 155.034 106.787C155.035 106.395 155.035 106.395 155.106 106.253Z" fill="#F8E482"/>
<path d="M175.176 91.7902C176.58 92.7225 177.19 94.0279 177.563 95.6188C177.874 97.2982 177.559 99.1981 176.687 100.667C176.528 100.889 176.358 101.096 176.179 101.302C176.139 101.354 176.1 101.407 176.059 101.461C175.59 102.018 174.866 102.438 174.148 102.572C173.05 102.648 172.228 102.389 171.377 101.667C170.159 100.525 169.624 98.827 169.561 97.1932C169.521 95.5875 169.803 93.8232 170.94 92.6028C172.108 91.4071 173.655 90.9011 175.176 91.7902Z" fill="black"/>
<path d="M173.964 93.0832C174.631 93.3636 175.146 94.0548 175.418 94.7009C175.892 95.9448 176.08 97.6271 175.545 98.8902C175.527 98.9317 175.51 98.9732 175.492 99.016C175.166 99.7769 174.738 100.414 174.021 100.858C173.677 100.973 173.327 100.984 172.998 100.826C172.907 100.748 172.907 100.748 172.815 100.667C172.776 100.636 172.737 100.604 172.697 100.571C172.013 99.9622 171.704 99.0559 171.482 98.1919C171.462 98.1135 171.442 98.035 171.421 97.9542C171.13 96.6836 171.276 95.3159 171.948 94.1762C172.457 93.4622 173.035 92.8557 173.964 93.0832Z" fill="#7D5232"/>
<path d="M174.529 70.9616C175.092 71.2652 175.39 71.7505 175.581 72.3467C175.707 73.0063 175.634 73.5867 175.265 74.1423C174.935 74.5707 174.425 74.8576 173.894 74.9605C173.293 75.0142 172.694 74.8234 172.228 74.4376C171.757 73.9642 171.609 73.4702 171.581 72.8183C171.589 72.2643 171.772 71.8487 172.057 71.3822C172.77 70.7448 173.653 70.6034 174.529 70.9616Z" fill="#F8E482"/>
<path d="M195.214 78.3737C195.814 78.7208 196.149 79.202 196.364 79.848C196.413 80.3988 196.377 80.9555 196.052 81.4182C195.674 81.858 195.201 82.2712 194.604 82.3448C193.861 82.3548 193.287 82.1413 192.746 81.6252C192.302 81.079 192.3 80.3922 192.365 79.721C192.485 79.2052 192.848 78.8088 193.258 78.4912C193.819 78.181 194.612 78.1301 195.214 78.3737Z" fill="#F8E482"/>
<path d="M153.963 78.5152C154.428 78.8408 154.74 79.2218 154.852 79.7847C154.908 80.4544 154.827 81.0401 154.407 81.5818C154.037 81.9717 153.487 82.2316 152.953 82.2753C152.275 82.2907 151.845 82.1469 151.347 81.6847C150.898 81.2006 150.817 80.7482 150.831 80.0998C150.878 79.5551 151.11 79.0813 151.485 78.6858C152.233 78.0646 153.134 78.0489 153.963 78.5152Z" fill="#F8E482"/>
</svg>
