<svg width="180" height="247" viewBox="0 0 180 247" fill="none" xmlns="http://www.w3.org/2000/svg">
<path d="M38.1156 29.5719C38.3178 29.6718 38.52 29.7718 38.7283 29.8748C42.0061 31.5061 45.1168 33.4144 48.232 35.3322C49.1879 35.9207 50.1464 36.5047 51.1068 37.0859C51.3567 37.2372 51.6066 37.3886 51.8641 37.5445C52.3279 37.8251 52.7917 38.1056 53.2557 38.3858C53.4653 38.5131 53.6749 38.6404 53.8908 38.7715C54.091 38.8928 54.2911 39.0142 54.4972 39.1393C55.2674 39.6265 56.0039 40.1576 56.7353 40.7012C57.6351 41.1488 58.4203 41.0457 59.3718 40.7922C59.5921 40.7116 59.8124 40.631 60.0394 40.548C60.2925 40.4582 60.5457 40.3684 60.8065 40.2759C61.0784 40.1785 61.3502 40.0811 61.6303 39.9807C70.6063 36.8853 79.9911 35.5211 89.463 35.5717C89.7188 35.5726 89.9746 35.5734 90.2382 35.5743C100.35 35.6128 110.078 37.2386 119.724 40.3027C119.954 40.3743 120.184 40.4459 120.422 40.5197C121.023 40.7231 121.023 40.7231 121.797 41.1029C122.948 41.2807 123.661 40.5715 124.568 39.9201C125.002 39.6243 125.436 39.3295 125.87 39.0357C126.104 38.8767 126.338 38.7177 126.578 38.5539C127.91 37.6678 129.276 36.8387 130.644 36.0111C130.787 35.9244 130.93 35.8376 131.078 35.7483C135.144 33.2884 139.264 30.8999 143.552 28.8452C144.115 28.5718 144.674 28.2892 145.233 28.0066C149.209 26.0217 153.446 24.2061 157.946 24.1781C158.144 24.1731 158.342 24.1681 158.546 24.1629C160.492 24.1505 162.079 24.6284 163.529 25.9735C167.299 30.1701 167.744 36.8401 168.295 42.1777C168.321 42.4331 168.321 42.4331 168.349 42.6936C169.111 50.4532 168.381 58.3905 167.582 66.1165C167.552 66.414 167.552 66.414 167.522 66.7175C167.151 70.3604 167.151 70.3604 166.773 71.9971C166.005 75.327 167.011 77.4672 168.456 80.4997C172.01 88.2694 172.819 96.7899 172.658 105.207C172.92 105.206 172.92 105.206 173.188 105.205C178.091 105.196 178.091 105.196 179.128 106.04C179.967 106.969 180.016 107.549 179.997 108.765C179.892 109.659 179.567 110.13 178.961 110.782C176.906 112.04 174.46 111.509 172.173 111.267C172.148 111.47 172.148 111.47 172.122 111.677C171.759 114.517 171.307 117.25 170.476 119.994C170.774 120.056 171.073 120.117 171.38 120.181C171.776 120.265 172.171 120.349 172.567 120.433C172.763 120.474 172.959 120.514 173.161 120.555C174.572 120.859 175.772 121.223 176.87 122.206C177.421 123.18 177.487 123.991 177.264 125.085C176.848 125.89 176.271 126.399 175.506 126.888C173.783 127.24 171.99 126.645 170.34 126.161C170.142 126.104 169.943 126.047 169.739 125.989C169.257 125.851 168.776 125.71 168.295 125.57C168.253 125.704 168.212 125.839 168.17 125.977C167.75 127.301 167.239 128.514 166.582 129.736C166.488 129.913 166.393 130.09 166.295 130.273C164.763 133.068 162.879 135.508 160.661 137.797C160.409 138.058 160.158 138.321 159.908 138.585C155.139 143.634 148.58 148.276 141.871 150.296C142.166 150.521 142.166 150.521 142.467 150.75C145.098 152.759 147.644 154.824 150.062 157.087C150.561 157.553 151.063 158.014 151.573 158.468C152.713 159.484 153.791 160.498 154.771 161.668C155.082 162.033 155.405 162.387 155.735 162.735C158.527 165.678 160.822 169.019 162.719 172.599C162.832 172.804 162.946 173.008 163.063 173.219C165.113 177.061 166.116 181.444 164.91 185.709C163.777 188.892 161.817 190.932 158.84 192.477C153.462 194.676 148.112 194.714 142.736 192.473C142.366 192.315 141.997 192.154 141.628 191.992C141.673 192.164 141.717 192.336 141.763 192.513C142.365 194.97 142.725 197.443 143.068 199.947C143.115 200.286 143.115 200.286 143.162 200.631C147.799 234.313 147.799 234.313 142.848 240.865C139.797 244.173 135.107 245.732 130.72 246.052C129.356 246.099 127.993 246.111 126.629 246.112C126.345 246.113 126.345 246.113 126.056 246.113C120.827 246.109 114.847 245.714 110.812 241.948C108.728 239.652 107.85 236.93 107.16 233.976C107.119 233.807 107.078 233.638 107.037 233.464C106.782 232.304 106.666 231.163 106.586 229.978C106.566 229.673 106.545 229.369 106.524 229.056C106.509 228.825 106.493 228.593 106.478 228.355C106.322 228.37 106.167 228.384 106.006 228.399C101.127 228.834 96.2778 228.916 91.3819 228.903C90.3395 228.901 89.2972 228.902 88.2549 228.905C83.3171 228.916 78.4298 228.79 73.5088 228.355C73.4935 228.569 73.4783 228.782 73.4625 229.002C73.4314 229.425 73.4314 229.425 73.3996 229.856C73.3693 230.274 73.3693 230.274 73.3382 230.7C73.2442 231.755 73.0685 232.776 72.8421 233.81C72.7996 234.005 72.757 234.201 72.7132 234.402C71.8916 238.016 70.5085 240.927 67.4483 243.143C63.3606 245.626 58.7535 246.099 54.0847 246.11C53.5172 246.112 52.9499 246.12 52.3824 246.128C46.9925 246.166 41.7626 245.132 37.6914 241.37C34.5475 238.041 34.6063 234.226 34.646 229.916C34.6474 229.657 34.6487 229.398 34.6501 229.132C34.7 219.653 35.5657 210.265 36.7975 200.871C36.8217 200.686 36.8459 200.501 36.8708 200.31C37.2266 197.608 37.6538 194.921 38.1156 192.235C37.8141 192.334 37.5125 192.434 37.2018 192.536C31.5199 194.387 26.3357 194.99 20.7978 192.326C17.9419 190.856 16.0415 188.666 14.8908 185.666C13.5636 180.948 15.3129 175.945 17.5625 171.815C19.4486 168.486 21.7009 165.525 24.2892 162.713C24.733 162.229 25.1604 161.736 25.5856 161.236C27.3449 159.219 29.2864 157.358 31.3279 155.63C31.5822 155.409 31.8363 155.187 32.0902 154.966C33.9652 153.336 35.8865 151.788 37.8732 150.296C37.7341 150.234 37.5951 150.172 37.4518 150.108C36.9958 149.902 36.5408 149.695 36.0863 149.486C35.4538 149.197 34.8201 148.915 34.1829 148.637C29.8065 146.69 25.9118 144.044 22.3584 140.842C22.1553 140.668 21.9522 140.494 21.7429 140.315C20.5404 139.279 19.4845 138.19 18.4797 136.963C18.2831 136.73 18.0866 136.497 17.8841 136.257C15.2739 133.099 13.1706 129.526 11.4496 125.812C10.1678 125.915 9.04278 126.186 7.81327 126.57C6.45275 126.968 5.54338 127.179 4.17699 126.782C3.22195 126.2 2.76384 125.684 2.48006 124.6C2.35995 123.659 2.43964 123.225 2.87399 122.373C4.03919 120.993 5.60416 120.761 7.29813 120.433C7.51125 120.391 7.72437 120.348 7.94395 120.303C8.4657 120.198 8.98774 120.095 9.5102 119.994C9.47603 119.842 9.44185 119.689 9.40663 119.532C8.79332 116.786 8.18781 114.057 7.81327 111.267C7.54931 111.277 7.54931 111.277 7.28002 111.286C6.47805 111.312 5.67616 111.327 4.87394 111.343C4.59708 111.353 4.32021 111.363 4.03495 111.374C1.73097 111.407 1.73097 111.407 0.845625 110.687C0.122366 109.852 0.0184303 109.469 0.0104164 108.388C0.0052603 108.074 0.0052603 108.074 0 107.754C0.0821608 106.86 0.335934 106.355 1.01039 105.767C2.56245 105.102 4.29847 105.196 5.96388 105.202C6.34939 105.203 6.34939 105.203 6.74269 105.204C6.93598 105.205 7.12928 105.206 7.32843 105.207C7.32463 105.007 7.32082 104.807 7.31689 104.601C7.17174 95.793 8.41206 87.1907 12.067 79.0774C12.1686 78.8517 12.2702 78.626 12.3749 78.3935C12.5689 77.9719 12.7687 77.5528 12.9754 77.1373C13.7042 75.578 13.6754 74.4016 13.3889 72.7224C13.3562 72.5158 13.3236 72.3093 13.2899 72.0964C13.2195 71.6648 13.1467 71.2335 13.0719 70.8026C11.3041 60.454 10.598 49.4658 11.9344 39.0262C11.9591 38.8235 11.9838 38.6207 12.0092 38.4119C12.564 33.9922 13.4889 28.521 17.0252 25.4508C23.3646 21.4389 32.3875 26.72 38.1156 29.5719Z" fill="#FBE9CC"/>
<path d="M38.1156 29.5719C38.3178 29.6718 38.52 29.7718 38.7283 29.8748C42.0061 31.5061 45.1168 33.4144 48.232 35.3322C49.1879 35.9207 50.1464 36.5047 51.1068 37.0859C51.3567 37.2372 51.6066 37.3886 51.8641 37.5445C52.3279 37.8251 52.7917 38.1056 53.2557 38.3858C53.4653 38.5131 53.6749 38.6404 53.8908 38.7715C54.091 38.8928 54.2911 39.0142 54.4972 39.1393C55.2674 39.6265 56.0039 40.1576 56.7353 40.7012C57.6351 41.1488 58.4203 41.0457 59.3718 40.7922C59.5921 40.7116 59.8124 40.631 60.0394 40.548C60.2925 40.4582 60.5457 40.3684 60.8065 40.2759C61.0784 40.1785 61.3502 40.0811 61.6303 39.9807C70.6063 36.8853 79.9911 35.5211 89.463 35.5717C89.7188 35.5726 89.9746 35.5734 90.2382 35.5743C100.35 35.6128 110.078 37.2386 119.724 40.3027C119.954 40.3743 120.184 40.4459 120.422 40.5197C121.023 40.7231 121.023 40.7231 121.797 41.1029C122.948 41.2807 123.661 40.5715 124.568 39.9201C125.002 39.6243 125.436 39.3295 125.87 39.0357C126.104 38.8767 126.338 38.7177 126.578 38.5539C127.91 37.6678 129.276 36.8387 130.644 36.0111C130.787 35.9244 130.93 35.8376 131.078 35.7483C135.144 33.2884 139.264 30.8999 143.552 28.8452C144.115 28.5718 144.674 28.2892 145.233 28.0066C149.209 26.0217 153.446 24.2061 157.946 24.1781C158.144 24.1731 158.342 24.1681 158.546 24.1629C160.492 24.1505 162.079 24.6284 163.529 25.9735C167.299 30.1701 167.744 36.8401 168.295 42.1777C168.321 42.4331 168.321 42.4331 168.349 42.6936C169.111 50.4532 168.381 58.3905 167.582 66.1165C167.552 66.414 167.552 66.414 167.522 66.7175C167.151 70.3604 167.151 70.3604 166.773 71.9971C166.005 75.327 167.011 77.4672 168.456 80.4997C172.01 88.2694 172.819 96.7899 172.658 105.207C172.92 105.206 172.92 105.206 173.188 105.205C178.091 105.196 178.091 105.196 179.128 106.04C179.967 106.969 180.016 107.549 179.997 108.765C179.892 109.659 179.567 110.13 178.961 110.782C176.906 112.04 174.46 111.509 172.173 111.267C172.148 111.47 172.148 111.47 172.122 111.677C171.759 114.517 171.307 117.25 170.476 119.994C170.774 120.056 171.073 120.117 171.38 120.181C171.776 120.265 172.171 120.349 172.567 120.433C172.763 120.474 172.959 120.514 173.161 120.555C174.572 120.859 175.772 121.223 176.87 122.206C177.421 123.18 177.487 123.991 177.264 125.085C176.848 125.89 176.271 126.399 175.506 126.888C173.783 127.24 171.99 126.645 170.34 126.161C170.142 126.104 169.943 126.047 169.739 125.989C169.257 125.851 168.776 125.71 168.295 125.57C168.253 125.704 168.212 125.839 168.17 125.977C167.75 127.301 167.239 128.514 166.582 129.736C166.488 129.913 166.393 130.09 166.295 130.273C164.763 133.068 162.879 135.508 160.661 137.797C160.409 138.058 160.158 138.321 159.908 138.585C155.139 143.634 148.58 148.276 141.871 150.296C142.166 150.521 142.166 150.521 142.467 150.75C145.098 152.759 147.644 154.824 150.062 157.087C150.561 157.553 151.063 158.014 151.573 158.468C152.713 159.484 153.791 160.498 154.771 161.668C155.082 162.033 155.405 162.387 155.735 162.735C158.527 165.678 160.822 169.019 162.719 172.599C162.832 172.804 162.946 173.008 163.063 173.219C165.113 177.061 166.116 181.444 164.91 185.709C163.777 188.892 161.817 190.932 158.84 192.477C153.462 194.676 148.112 194.714 142.736 192.473C142.366 192.315 141.997 192.154 141.628 191.992C141.673 192.164 141.717 192.336 141.763 192.513C142.365 194.97 142.725 197.443 143.068 199.947C143.115 200.286 143.115 200.286 143.162 200.631C147.799 234.313 147.799 234.313 142.848 240.865C139.797 244.173 135.107 245.732 130.72 246.052C129.356 246.099 127.993 246.111 126.629 246.112C126.345 246.113 126.345 246.113 126.056 246.113C120.827 246.109 114.847 245.714 110.812 241.948C108.728 239.652 107.85 236.93 107.16 233.976C107.119 233.807 107.078 233.638 107.037 233.464C106.782 232.304 106.666 231.163 106.586 229.978C106.566 229.673 106.545 229.369 106.524 229.056C106.509 228.825 106.493 228.593 106.478 228.355C106.322 228.37 106.167 228.384 106.006 228.399C101.127 228.834 96.2778 228.916 91.3819 228.903C90.3395 228.901 89.2972 228.902 88.2549 228.905C83.3171 228.916 78.4298 228.79 73.5088 228.355C73.4935 228.569 73.4783 228.782 73.4625 229.002C73.4314 229.425 73.4314 229.425 73.3996 229.856C73.3693 230.274 73.3693 230.274 73.3382 230.7C73.2442 231.755 73.0685 232.776 72.8421 233.81C72.7996 234.005 72.757 234.201 72.7132 234.402C71.8916 238.016 70.5085 240.927 67.4483 243.143C63.3606 245.626 58.7535 246.099 54.0847 246.11C53.5172 246.112 52.9499 246.12 52.3824 246.128C46.9925 246.166 41.7626 245.132 37.6914 241.37C34.5475 238.041 34.6063 234.226 34.646 229.916C34.6474 229.657 34.6487 229.398 34.6501 229.132C34.7 219.653 35.5657 210.265 36.7975 200.871C36.8217 200.686 36.8459 200.501 36.8708 200.31C37.2266 197.608 37.6538 194.921 38.1156 192.235C37.8141 192.334 37.5125 192.434 37.2018 192.536C31.5199 194.387 26.3357 194.99 20.7978 192.326C17.9419 190.856 16.0415 188.666 14.8908 185.666C13.5636 180.948 15.3129 175.945 17.5625 171.815C19.4486 168.486 21.7009 165.525 24.2892 162.713C24.733 162.229 25.1604 161.736 25.5856 161.236C27.3449 159.219 29.2864 157.358 31.3279 155.63C31.5822 155.409 31.8363 155.187 32.0902 154.966C33.9652 153.336 35.8865 151.788 37.8732 150.296C37.7341 150.234 37.5951 150.172 37.4518 150.108C36.9958 149.902 36.5408 149.695 36.0863 149.486C35.4538 149.197 34.8201 148.915 34.1829 148.637C29.8065 146.69 25.9118 144.044 22.3584 140.842C22.1553 140.668 21.9522 140.494 21.7429 140.315C20.5404 139.279 19.4845 138.19 18.4797 136.963C18.2831 136.73 18.0866 136.497 17.8841 136.257C15.2739 133.099 13.1706 129.526 11.4496 125.812C10.1678 125.915 9.04278 126.186 7.81327 126.57C6.45275 126.968 5.54338 127.179 4.17699 126.782C3.22195 126.2 2.76384 125.684 2.48006 124.6C2.35995 123.659 2.43964 123.225 2.87399 122.373C4.03919 120.993 5.60416 120.761 7.29813 120.433C7.51125 120.391 7.72437 120.348 7.94395 120.303C8.4657 120.198 8.98774 120.095 9.5102 119.994C9.47603 119.842 9.44185 119.689 9.40663 119.532C8.79332 116.786 8.18781 114.057 7.81327 111.267C7.54931 111.277 7.54931 111.277 7.28002 111.286C6.47805 111.312 5.67616 111.327 4.87394 111.343C4.59708 111.353 4.32021 111.363 4.03495 111.374C1.73097 111.407 1.73097 111.407 0.845625 110.687C0.122366 109.852 0.0184303 109.469 0.0104164 108.388C0.0052603 108.074 0.0052603 108.074 0 107.754C0.0821608 106.86 0.335934 106.355 1.01039 105.767C2.56245 105.102 4.29847 105.196 5.96388 105.202C6.34939 105.203 6.34939 105.203 6.74269 105.204C6.93598 105.205 7.12928 105.206 7.32843 105.207C7.32463 105.007 7.32082 104.807 7.31689 104.601C7.17174 95.793 8.41206 87.1907 12.067 79.0774C12.1686 78.8517 12.2702 78.626 12.3749 78.3935C12.5689 77.9719 12.7687 77.5528 12.9754 77.1373C13.7042 75.578 13.6754 74.4016 13.3889 72.7224C13.3562 72.5158 13.3236 72.3093 13.2899 72.0964C13.2195 71.6648 13.1467 71.2335 13.0719 70.8026C11.3041 60.454 10.598 49.4658 11.9344 39.0262C11.9591 38.8235 11.9838 38.6207 12.0092 38.4119C12.564 33.9922 13.4889 28.521 17.0252 25.4508C23.3646 21.4389 32.3875 26.72 38.1156 29.5719ZM20.9039 31.1324C19.8133 32.5297 19.351 33.9128 18.9342 35.6172C18.8958 35.7715 18.8573 35.9257 18.8177 36.0847C17.8526 40.3148 17.9069 44.607 17.9191 48.9199C17.9196 49.2459 17.92 49.5718 17.9204 49.8977C17.9337 56.8596 18.3526 63.6478 19.54 70.5101C20.0323 73.4474 20.4308 76.132 18.9797 78.8283C15.1038 86.7367 12.955 96.3748 13.3889 105.207C13.8937 105.711 14.9909 105.516 15.6919 105.54C17.314 105.612 18.9076 105.743 20.51 106.01C20.7624 106.048 20.7624 106.048 21.0199 106.087C22.1059 106.282 22.8018 106.592 23.5705 107.388C23.9236 108.269 23.9422 109.169 23.651 110.072C23.3036 110.75 22.9758 111.198 22.2969 111.553C19.8984 112.269 16.8418 111.69 14.3586 111.509C14.2794 112.994 14.5717 114.275 14.9495 115.706C15.0053 115.926 15.061 116.145 15.1185 116.372C15.3888 117.483 15.3888 117.483 15.8131 118.54C16.2323 118.505 16.6515 118.47 17.0706 118.434C17.3041 118.414 17.5375 118.394 17.778 118.374C18.4631 118.312 18.4631 118.312 19.0592 118.17C19.8868 118.019 20.6843 118.013 21.5251 118.009C21.8404 118.006 22.1557 118.002 22.4806 117.999C23.6787 118.078 23.6787 118.078 24.2978 118.54C24.7419 119.211 24.8651 119.787 24.8886 120.585C24.9032 120.855 24.9032 120.855 24.918 121.129C24.7115 121.986 24.3027 122.453 23.5705 122.903C22.6318 123.219 21.6794 123.404 20.7069 123.585C20.4465 123.637 20.186 123.69 19.9176 123.744C19.2774 123.872 18.6367 123.995 17.9949 124.115C19.0146 127.44 20.868 130.201 23.0857 132.842C23.2487 133.037 23.2487 133.037 23.415 133.235C29.0728 139.881 37.0075 143.792 45.2245 146.309C48.968 147.463 48.968 147.463 49.7517 148.842C49.9053 150.07 49.7581 150.763 49.0245 151.751C48.4364 152.075 48.4364 152.075 47.7366 152.327C43.2939 154.064 39.5139 156.612 36.0598 159.901C35.5657 160.368 35.0642 160.813 34.5494 161.255C31.7188 163.721 28.9723 166.437 26.7219 169.448C26.5045 169.731 26.287 170.014 26.0695 170.297C23.3618 173.863 20.2163 178.318 20.6615 183.023C20.9364 184.579 21.7593 185.483 22.954 186.475C25.496 188.236 28.6197 188.479 31.6025 187.957C33.4183 187.588 35.1387 187.036 36.8429 186.311C37.0018 186.244 37.1607 186.177 37.3243 186.108C38.457 185.596 39.4904 184.982 40.0018 183.796C40.1598 183.277 40.289 182.757 40.4101 182.228C40.4824 181.936 40.4824 181.936 40.5561 181.638C40.6583 181.223 40.7585 180.808 40.857 180.393C41.0103 179.747 41.1687 179.102 41.3287 178.458C41.5384 177.613 41.7466 176.769 41.9537 175.924C42.2991 174.522 42.6653 173.126 43.0549 171.735C43.1327 171.445 43.1327 171.445 43.212 171.148C43.5941 169.8 44.1075 168.672 45.2367 167.781C46.0189 167.446 46.4832 167.388 47.3275 167.508C48.0633 167.904 48.6084 168.249 49.1154 168.917C49.6029 170.624 49.031 172.282 48.5927 173.939C48.4479 174.502 48.3032 175.065 48.1585 175.627C48.0822 175.922 48.0059 176.216 47.9272 176.519C44.5672 189.516 42.2986 202.601 41.2671 215.992C41.2526 216.176 41.2382 216.361 41.2233 216.551C40.8972 220.755 40.7326 224.958 40.6973 229.175C40.6934 229.613 40.688 230.051 40.6811 230.49C40.5634 233.991 40.5634 233.991 42.1207 237.024C44.8334 239.762 49.5199 240.007 53.1433 240.038C59.3413 240.102 59.3413 240.102 64.6264 237.328C67.0593 234.344 67.2991 229.898 67.6388 226.209C67.7828 224.833 67.9316 223.837 68.9028 222.78C70.1039 221.938 71.0975 221.989 72.4936 222.113C72.6769 222.126 72.8602 222.139 73.049 222.152C73.7676 222.205 74.4837 222.267 75.1994 222.351C79.8761 222.896 84.6068 222.837 89.3088 222.84C89.6662 222.84 90.0237 222.841 90.3811 222.841C95.9075 222.85 101.387 222.71 106.887 222.119C108.409 221.993 109.536 221.909 110.841 222.78C112.28 224.539 112.394 226.542 112.629 228.719C113.22 233.758 113.22 233.758 115.826 237.991C119.554 240.809 126.155 240.339 130.522 239.78C133.321 239.369 136.214 238.828 138.174 236.613C139.368 234.987 139.491 233.308 139.481 231.334C139.48 231.147 139.48 230.961 139.479 230.768C139.455 227.971 139.296 225.178 139.144 222.386C139.128 222.088 139.111 221.789 139.095 221.482C138.362 208.138 136.674 194.875 133.423 181.898C133.382 181.734 133.341 181.57 133.299 181.401C132.885 179.751 132.466 178.103 132.038 176.457C131.916 175.99 131.796 175.522 131.676 175.054C131.527 174.478 131.377 173.903 131.224 173.328C130.862 171.916 130.592 170.664 130.72 169.205C131.245 168.341 131.729 167.884 132.659 167.508C133.188 167.471 133.188 167.471 133.735 167.523C133.914 167.536 134.094 167.549 134.279 167.562C135.114 167.842 135.483 168.293 136.053 168.963C136.35 169.61 136.531 170.274 136.712 170.962C136.766 171.156 136.82 171.35 136.876 171.549C137.05 172.176 137.218 172.804 137.386 173.432C137.505 173.863 137.623 174.293 137.742 174.723C138.421 177.198 139.07 179.679 139.53 182.206C139.792 183.534 140.159 184.257 141.144 185.205C144.842 187.568 149.325 188.711 153.658 187.841C155.954 187.247 157.552 186.319 158.826 184.295C159.738 182.36 159.327 180.523 158.692 178.578C156.82 173.644 153.642 169.671 150.113 165.811C149.906 165.579 149.699 165.346 149.485 165.107C147.93 163.369 146.289 161.774 144.537 160.236C144.416 160.127 144.294 160.019 144.169 159.907C140.655 156.79 136.878 153.957 132.386 152.448C131.62 152.178 131.192 151.983 130.553 151.463C130.113 150.521 129.955 149.614 130.235 148.6C131.079 147.542 131.824 147.18 133.114 146.827C133.461 146.726 133.808 146.624 134.154 146.522C134.342 146.467 134.529 146.412 134.723 146.356C142.468 144.035 149.03 140.534 154.961 135.024C155.126 134.876 155.29 134.727 155.46 134.574C158.385 131.82 160.819 127.943 161.992 124.115C161.822 124.085 161.652 124.054 161.477 124.023C160.703 123.882 159.931 123.734 159.158 123.585C158.891 123.537 158.624 123.49 158.348 123.441C155.809 122.942 155.809 122.942 154.961 121.691C154.755 120.943 154.809 120.267 154.961 119.509C155.396 118.813 155.685 118.42 156.416 118.055C158.974 117.839 161.429 118.31 163.931 118.782C164.435 117.491 164.856 116.217 165.189 114.873C165.232 114.709 165.274 114.545 165.319 114.376C165.563 113.4 165.673 112.515 165.628 111.509C165.387 111.527 165.147 111.544 164.899 111.562C163.234 111.679 161.569 111.777 159.901 111.812C159.638 111.819 159.375 111.825 159.103 111.831C158.22 111.738 157.653 111.491 156.901 111.025C156.356 110.111 156.174 109.512 156.174 108.449C156.47 107.449 156.809 107.056 157.628 106.419C158.698 105.989 159.668 105.849 160.816 105.78C160.975 105.77 161.134 105.76 161.298 105.75C161.802 105.718 162.306 105.69 162.81 105.661C163.154 105.64 163.497 105.619 163.841 105.598C164.679 105.546 165.517 105.497 166.355 105.449C166.443 101.343 166.384 97.3721 165.628 93.328C165.589 93.1166 165.55 92.9051 165.51 92.6873C164.546 87.6499 162.955 82.6666 160.717 78.049C159.569 75.5735 160.124 73.2189 160.529 70.6055C161.63 63.3976 162.054 56.1773 162.067 48.8896C162.068 48.6503 162.069 48.411 162.07 48.1644C162.078 43.9542 161.981 39.6594 160.946 35.5566C160.901 35.353 160.855 35.1494 160.808 34.9397C160.407 33.283 159.811 31.7547 158.355 30.784C157.017 30.6967 155.868 30.8456 154.583 31.2385C154.408 31.2913 154.234 31.3441 154.054 31.3985C144.209 34.5227 134.684 40.5955 126.311 46.5278C124.69 47.6477 123.231 48.1693 121.265 47.9957C120.519 47.7457 120.519 47.7457 119.75 47.3897C115.094 45.3804 109.992 44.3074 105.023 43.3897C104.829 43.3526 104.635 43.3155 104.435 43.2773C89.9316 40.5408 74.1655 42.1796 60.3837 47.3434C58.7794 47.94 57.4783 48.3278 55.8274 47.6624C53.4789 46.5321 51.3133 44.9854 49.1305 43.5716C45.4776 41.2109 41.753 38.9566 37.9247 36.8916C37.5587 36.6939 37.1932 36.4952 36.8284 36.2954C29.1399 31.7261 29.1399 31.7261 20.9039 31.1324Z" fill="black"/>
<path d="M89.7811 162.296C90.0651 162.298 90.3491 162.299 90.6416 162.301C96.0981 162.415 100.508 164.355 104.296 168.236C104.49 168.427 104.684 168.619 104.884 168.817C110.66 174.822 112.432 183.927 112.398 191.968C112.302 196.551 111.009 200.361 107.69 203.629C107.535 203.783 107.38 203.937 107.221 204.096C101.636 209.322 93.6092 209.245 86.4527 209.013C81.6738 208.813 77.0949 207.523 73.2663 204.598C73.0848 204.461 72.9032 204.324 72.7162 204.183C69.5692 201.625 67.9313 197.667 67.4889 193.708C67.3583 192.091 67.417 190.461 67.4483 188.841C67.4523 188.581 67.4564 188.321 67.4606 188.053C67.7944 180.881 70.5662 173.904 75.2057 168.478C75.3497 168.309 75.4938 168.14 75.6422 167.966C79.2668 164.053 84.555 162.266 89.7811 162.296Z" fill="#F2D3A3"/>
<path d="M106.337 163.064C106.543 163.25 106.75 163.437 106.963 163.629C107.167 163.813 107.371 163.997 107.581 164.187C111.385 167.802 113.805 172.515 115.447 177.447C115.536 177.706 115.625 177.965 115.717 178.231C117.706 184.529 118.284 191.859 116.659 198.295C116.62 198.453 116.581 198.611 116.541 198.773C115.283 203.618 111.987 207.657 107.712 210.207C102.194 213.295 96.3695 214.109 90.1447 214.113C89.8378 214.113 89.8378 214.113 89.5247 214.113C86.4022 214.11 83.3541 214.02 80.2964 213.325C80.1174 213.285 79.9383 213.245 79.7538 213.203C74.0854 211.863 68.6619 208.719 65.5341 203.714C61.6471 197.246 61.6905 188.397 63.4151 181.214C63.4661 181.011 63.517 180.808 63.5695 180.599C63.6202 180.393 63.6709 180.187 63.7231 179.975C65.1613 174.316 67.6976 169.223 71.5694 164.841C71.7916 164.589 71.7916 164.589 72.0182 164.331C80.7669 155.005 96.8453 154.907 106.337 163.064ZM74.3354 169.446C69.9916 174.86 67.7022 181.945 67.4482 188.841C67.4416 189.006 67.435 189.17 67.4282 189.34C67.2622 194.027 67.9579 198.326 70.8421 202.174C70.993 202.389 70.993 202.389 71.147 202.609C74.2966 206.729 79.9488 208.177 84.8155 208.893C86.5234 209.098 88.2456 209.069 89.9629 209.052C90.2653 209.051 90.2653 209.051 90.5738 209.049C97.217 209.009 103.27 208.04 108.175 203.144C108.41 202.912 108.41 202.912 108.651 202.676C112.157 198.977 112.486 194.127 112.372 189.306C112.074 181.481 109.576 173.679 104.053 167.993C103.915 167.839 103.776 167.685 103.633 167.527C100.596 164.258 95.9631 162.525 91.5765 162.323C84.5443 162.144 79.0564 164.067 74.3354 169.446Z" fill="black"/>
<path d="M144.492 104.525C147.086 106.3 148.661 108.704 149.386 111.752C149.791 115.544 148.979 118.427 146.602 121.416C144.665 123.573 141.927 124.701 139.092 124.902C135.65 125.017 132.844 124.026 130.236 121.754C127.964 119.392 127.008 116.44 127.047 113.227C127.197 110.119 128.415 107.554 130.72 105.449C134.949 102.274 139.88 101.797 144.492 104.525Z" fill="#F4A99C"/>
<path d="M47.0851 103.994C47.272 104.088 47.4589 104.181 47.6514 104.277C50.0658 105.636 51.8116 108.237 52.6305 110.843C53.3278 113.807 53.0413 116.779 51.5595 119.458C49.9622 121.878 47.6793 123.7 44.9034 124.6C41.8062 125.204 38.7165 125.045 35.9405 123.462C33.4117 121.743 31.5031 119.381 30.8431 116.358C30.529 112.204 31.0216 109.381 33.7066 106.129C37.1674 102.336 42.6482 101.782 47.0851 103.994Z" fill="#F4A99C"/>
<path d="M28.2967 39.154C29.9045 39.3708 31.3328 40.0285 32.7824 40.7231C32.9322 40.7944 33.082 40.8658 33.2363 40.9393C37.1455 42.8383 40.5854 45.485 43.9966 48.1508C44.3668 48.4401 44.7395 48.7261 45.1127 49.0117C45.798 49.5918 46.0918 49.9905 46.2054 50.8886C46.0927 51.82 45.8725 52.0212 45.161 52.6167C44.94 52.803 44.7191 52.9892 44.4915 53.1811C43.3953 54.0575 42.2752 54.9036 41.1548 55.7486C39.704 56.8472 38.3223 58.0094 36.9509 59.2047C36.2622 59.8044 35.5561 60.3792 34.843 60.9499C33.7849 61.807 32.7891 62.7148 31.7976 63.6468C29.7583 65.5513 29.7583 65.5513 28.7825 66.3892C28.605 66.5435 28.4275 66.6979 28.2447 66.857C27.6916 67.1467 27.6916 67.1467 26.9294 67.1211C26.2371 66.9043 26.2371 66.9043 25.7068 66.1316C23.8968 61.8806 23.9723 56.7031 23.9922 52.17C23.9948 51.4633 23.9922 50.7567 23.9891 50.05C23.9826 41.9863 23.9826 41.9863 25.8252 39.5848C26.5779 39.0069 27.3815 39.1286 28.2967 39.154Z" fill="#F4A99C"/>
<path d="M153.507 39.2688C155.305 40.6924 155.542 43.2293 155.794 45.386C156.414 51.9405 156.815 60.5965 153.992 66.6621C153.228 67.0442 152.625 67.1284 151.81 66.9045C151.057 66.3787 150.42 65.7456 149.768 65.0995C149.012 64.3547 148.235 63.6313 147.462 62.9046C147.294 62.7466 147.126 62.5886 146.954 62.4257C145.63 61.185 144.262 60.0318 142.841 58.9047C142.411 58.5517 141.982 58.1982 141.553 57.8441C140.537 57.0128 139.51 56.1985 138.477 55.3896C138.191 55.1639 137.904 54.9383 137.618 54.7126C137.077 54.2863 136.531 53.8673 135.98 53.4531C135.619 53.1742 135.619 53.1742 135.25 52.8897C135.036 52.7281 134.822 52.5666 134.601 52.4001C133.987 51.7378 133.894 51.3157 133.871 50.42C135.015 48.6701 136.809 47.5175 138.477 46.2989C138.633 46.1835 138.789 46.068 138.95 45.949C149.421 38.2294 149.421 38.2294 153.507 39.2688Z" fill="#F4A99C"/>
<path d="M90.0538 100.767C90.2929 100.76 90.5319 100.753 90.7782 100.746C92.4589 100.732 93.8423 100.996 95.3264 101.813C96.1773 102.664 96.4965 103.324 96.6143 104.525C96.4657 106.337 95.5769 107.5 94.2961 108.737C93.8719 109.085 93.8719 109.085 93.1598 109.404C92.6143 109.761 92.6143 109.761 92.5604 110.317C92.4883 112.356 93.0329 114.299 94.3567 115.873C95.9395 117.142 97.5229 117.649 99.5384 117.555C102.03 117.245 103.494 116.104 105.069 114.203C105.664 113.51 105.874 113.46 106.796 113.373C107.829 113.461 108.179 113.696 108.902 114.419C109.323 115.261 109.256 116.165 109.144 117.085C107.891 119.499 105.433 121.301 102.929 122.242C100.159 123.095 96.9791 123.004 94.335 121.828C92.7905 120.998 91.4531 120.044 90.2356 118.782C89.5344 119.103 89.151 119.375 88.569 119.919C85.8507 122.318 82.6626 122.885 79.1594 122.715C75.856 122.397 73.5435 120.442 71.4557 118.035C70.7765 117.184 70.7481 116.515 70.755 115.452C70.8932 114.582 71.376 114.208 72.0542 113.691C72.7579 113.34 73.2112 113.359 73.9936 113.449C74.8733 114.054 75.4834 114.695 76.145 115.525C77.2266 116.785 78.1287 117.253 79.7974 117.428C81.8314 117.529 83.7548 117.483 85.3872 116.116C86.7717 114.511 87.5009 112.823 87.4667 110.696C87.2961 109.916 87.0917 109.723 86.4478 109.267C86.2716 109.159 86.0953 109.05 85.9137 108.939C84.7741 108.207 83.7575 107.023 83.4479 105.692C83.3167 104.474 83.3123 103.554 83.8418 102.434C85.5018 100.643 87.783 100.789 90.0538 100.767Z" fill="black"/>
<path d="M125.407 90.4153C126.001 90.704 126.538 91.0183 127.083 91.3888C127.413 91.5913 127.413 91.5913 127.75 91.7979C129.432 93.5263 130.066 95.3455 130.069 97.7149C130.024 99.9383 129.274 101.5 127.76 103.101C126.023 104.736 124.24 105.108 121.915 105.071C120.114 104.855 118.507 104.035 117.265 102.707C117.053 102.416 116.851 102.118 116.659 101.813C116.56 101.668 116.461 101.523 116.358 101.373C115.249 99.4155 115.329 96.6447 115.887 94.5147C116.692 92.7118 118.144 91.3852 119.884 90.4939C121.606 89.8846 123.659 89.8577 125.407 90.4153Z" fill="black"/>
<path d="M60.312 90.6766C62.0692 91.7279 63.3477 93.0872 64.0544 95.0249C64.6184 97.3416 64.4953 99.7093 63.3271 101.813C62.1176 103.419 60.7064 104.543 58.7212 104.964C56.4798 105.232 54.7908 105.004 52.9031 103.752C52.6431 103.587 52.3831 103.422 52.1153 103.252C50.6105 101.85 49.9314 100.006 49.8329 97.9908C49.811 95.7157 50.1295 94.0125 51.7128 92.293C54.0364 90.0885 57.3112 89.282 60.312 90.6766Z" fill="black"/>
<path d="M77.5181 81.9751C79.939 84.1064 81.8196 87.4361 82.1759 90.6859C82.5657 97.0705 80.0814 102.465 75.9282 107.232C75.5088 107.694 75.0816 108.148 74.6518 108.6C74.4604 108.823 74.27 109.047 74.0808 109.272C73.3381 110.13 72.5223 110.918 71.7126 111.712C71.1687 112.249 70.6433 112.79 70.1474 113.372C69.3895 114.242 68.584 115.062 67.7716 115.881C67.6133 116.041 67.4551 116.201 67.292 116.366C66.9592 116.701 66.6262 117.036 66.2929 117.37C65.868 117.797 65.4452 118.226 65.0228 118.656C64.6157 119.069 64.2061 119.479 63.7969 119.89C63.6466 120.043 63.4964 120.197 63.3415 120.355C62.3709 121.322 61.6369 121.921 60.2532 122.126C58.8971 121.939 57.8429 121.045 56.7529 120.267C55.6173 119.485 54.4386 118.768 53.2709 118.035C52.2986 117.423 51.3303 116.806 50.3621 116.188C49.5267 115.655 48.6898 115.124 47.8489 114.6C44.8055 112.697 41.8372 110.668 39.1814 108.242C39.0782 108.148 38.9751 108.054 38.8688 107.957C35.7046 105.03 33.2126 101.278 33.0066 96.8524C33.0005 96.454 32.9987 96.0556 33.001 95.6572C33.002 95.4466 33.003 95.2361 33.0041 95.0192C33.0748 91.5515 34.3652 88.626 36.6734 86.0282C36.7745 85.9143 36.8757 85.8005 36.9799 85.6832C39.0947 83.4442 42.1005 81.9974 45.1757 81.8652C49.3453 81.7702 52.711 82.88 55.8418 85.6699C56.139 85.9104 56.4373 86.1497 56.7375 86.3865C56.8523 86.22 56.967 86.0535 57.0853 85.8819C59.4523 82.4813 62.661 79.8712 66.8444 79.12C70.7187 78.6468 74.4216 79.5685 77.5181 81.9751Z" fill="#FF6060"/>
<path d="M118.363 81.729C119.659 82.7331 120.714 83.8632 121.638 85.2209C121.958 85.6885 122.304 86.127 122.662 86.5659C122.75 86.4682 122.837 86.3705 122.927 86.2698C125.213 83.8383 128.5 81.9717 131.886 81.8542C135.643 81.8159 138.617 82.5936 141.472 85.1327C141.65 85.2855 141.65 85.2855 141.831 85.4413C144.157 87.5844 145.78 90.9154 145.985 94.0694C145.999 94.6142 146 95.1573 145.996 95.7022C145.997 95.8841 145.999 96.0661 146 96.2536C145.988 100.797 143.685 104.497 140.633 107.705C137.929 110.323 134.628 112.44 131.462 114.449C130.814 114.862 130.17 115.281 129.526 115.699C129.27 115.865 129.014 116.03 128.757 116.196C128.318 116.48 127.878 116.765 127.439 117.05C126.451 117.688 125.459 118.319 124.461 118.94C124.27 119.059 124.079 119.178 123.882 119.301C123.502 119.537 123.121 119.773 122.741 120.009C121.984 120.479 121.237 120.946 120.522 121.479C120.032 121.818 119.762 121.987 119.18 122.047C119.059 122.064 118.937 122.081 118.811 122.099C117.539 121.922 116.601 121.095 115.734 120.209C115.624 120.099 115.514 119.989 115.401 119.876C115.041 119.517 114.683 119.154 114.326 118.792C114.074 118.539 113.822 118.287 113.57 118.034C113.043 117.506 112.517 116.976 111.992 116.446C111.322 115.769 110.65 115.094 109.978 114.42C109.333 113.773 108.689 113.125 108.045 112.477C107.923 112.355 107.802 112.233 107.677 112.107C106.485 110.908 105.303 109.713 104.211 108.421C103.961 108.152 103.711 107.883 103.46 107.615C101.621 105.566 100.078 103.354 98.8362 100.897C98.7773 100.782 98.7184 100.667 98.6578 100.548C96.8009 96.8386 96.2045 92.553 97.4031 88.5364C98.0289 86.731 98.8796 85.1853 100.09 83.6996C100.176 83.5846 100.262 83.4696 100.351 83.3511C104.689 77.7907 113.009 78.0533 118.363 81.729Z" fill="#FF6060"/>
<path d="M118.363 81.729C119.659 82.7331 120.714 83.8632 121.638 85.2209C121.958 85.6885 122.304 86.127 122.662 86.5659C122.75 86.4682 122.837 86.3705 122.927 86.2698C125.213 83.8383 128.5 81.9717 131.886 81.8542C135.643 81.8159 138.617 82.5936 141.472 85.1327C141.65 85.2855 141.65 85.2855 141.831 85.4413C144.157 87.5844 145.78 90.9154 145.985 94.0694C145.999 94.6142 146 95.1573 145.996 95.7022C145.997 95.8841 145.999 96.0661 146 96.2536C145.988 100.797 143.685 104.497 140.633 107.705C137.929 110.323 134.628 112.44 131.462 114.449C130.814 114.862 130.17 115.281 129.526 115.699C129.27 115.865 129.014 116.03 128.757 116.196C128.318 116.48 127.878 116.765 127.439 117.05C126.451 117.688 125.459 118.319 124.461 118.94C124.27 119.059 124.079 119.178 123.882 119.301C123.502 119.537 123.121 119.773 122.741 120.009C121.984 120.479 121.237 120.946 120.522 121.479C120.032 121.818 119.762 121.987 119.18 122.047C119.059 122.064 118.937 122.081 118.811 122.099C117.539 121.922 116.601 121.095 115.734 120.209C115.624 120.099 115.514 119.989 115.401 119.876C115.041 119.517 114.683 119.154 114.326 118.792C114.074 118.539 113.822 118.287 113.57 118.034C113.043 117.506 112.517 116.976 111.992 116.446C111.322 115.769 110.65 115.094 109.978 114.42C109.333 113.773 108.689 113.125 108.045 112.477C107.923 112.355 107.802 112.233 107.677 112.107C106.485 110.908 105.303 109.713 104.211 108.421C103.961 108.152 103.711 107.883 103.46 107.615C101.621 105.566 100.078 103.354 98.8362 100.897C98.7773 100.782 98.7184 100.667 98.6578 100.548C96.8009 96.8386 96.2045 92.553 97.4031 88.5364C98.0289 86.731 98.8796 85.1853 100.09 83.6996C100.176 83.5846 100.262 83.4696 100.351 83.3511C104.689 77.7907 113.009 78.0533 118.363 81.729ZM104.569 85.8493C104.454 85.9389 104.34 86.0285 104.222 86.1208C102.932 87.2586 101.819 89.4021 101.664 91.113C101.406 96.9716 103.968 101.001 107.793 105.197C108.106 105.522 108.422 105.839 108.748 106.151C109.044 106.447 109.312 106.754 109.582 107.073C110.374 107.983 111.223 108.833 112.078 109.684C112.35 109.955 112.621 110.227 112.892 110.499C113.745 111.353 114.609 112.184 115.526 112.969C116.1 113.474 116.63 114.022 117.165 114.568C117.38 114.788 117.596 115.008 117.812 115.227C117.952 115.37 117.952 115.37 118.094 115.515C118.519 115.912 118.779 116.125 119.371 116.121C120.219 115.875 120.861 115.421 121.587 114.927C121.908 114.713 122.228 114.5 122.548 114.288C122.714 114.177 122.88 114.066 123.05 113.952C123.88 113.403 124.721 112.872 125.562 112.34C125.894 112.129 126.227 111.918 126.559 111.707C126.718 111.606 126.877 111.504 127.041 111.4C135.939 106.197 135.939 106.197 141.17 97.7511C141.668 95.1192 141.077 92.4281 139.58 90.2271C138.276 88.5152 136.606 87.2182 134.486 86.745C132.65 86.634 130.959 86.5883 129.291 87.4616C129.052 87.5859 129.052 87.5859 128.809 87.7128C126.755 88.9064 125.197 90.5475 124.132 92.6588C123.674 93.5223 123.228 93.8028 122.304 94.0899C121.486 94.2214 120.704 94.1389 119.975 93.7316C119.592 93.157 119.569 92.932 119.505 92.2649C119.145 89.9622 117.881 87.975 116.213 86.3867C116.095 86.2694 115.977 86.1521 115.856 86.0312C113.929 84.2171 111.731 83.7678 109.168 83.8234C107.337 83.9115 105.974 84.7209 104.569 85.8493Z" fill="black"/>
<path d="M77.5181 81.9751C79.939 84.1064 81.8196 87.4361 82.1759 90.6859C82.5657 97.0705 80.0814 102.465 75.9282 107.232C75.5089 107.694 75.0816 108.148 74.6518 108.6C74.4604 108.823 74.27 109.047 74.0808 109.272C73.3381 110.13 72.5223 110.918 71.7126 111.712C71.1687 112.249 70.6433 112.79 70.1474 113.372C69.3895 114.242 68.584 115.062 67.7716 115.881C67.6133 116.041 67.4551 116.201 67.292 116.366C66.9592 116.701 66.6262 117.036 66.2929 117.37C65.868 117.797 65.4452 118.226 65.0228 118.656C64.6157 119.069 64.2061 119.479 63.7969 119.89C63.6466 120.043 63.4964 120.197 63.3415 120.355C62.3709 121.322 61.6369 121.921 60.2532 122.126C58.8971 121.939 57.8429 121.045 56.7529 120.267C55.6173 119.485 54.4386 118.768 53.2709 118.035C52.2986 117.423 51.3303 116.806 50.3621 116.188C49.5267 115.655 48.6898 115.124 47.8489 114.6C44.8055 112.697 41.8372 110.668 39.1814 108.242C39.0782 108.148 38.9751 108.054 38.8688 107.957C35.7046 105.03 33.2126 101.278 33.0066 96.8524C33.0005 96.454 32.9987 96.0556 33.001 95.6572C33.002 95.4466 33.003 95.2361 33.0041 95.0192C33.0748 91.5515 34.3652 88.626 36.6734 86.0282C36.7745 85.9143 36.8757 85.8005 36.9799 85.6832C39.0947 83.4442 42.1005 81.9974 45.1757 81.8652C49.3453 81.7702 52.711 82.88 55.8418 85.6699C56.139 85.9104 56.4373 86.1497 56.7375 86.3865C56.8523 86.22 56.967 86.0535 57.0853 85.8819C59.4523 82.4813 62.661 79.8712 66.8444 79.12C70.7187 78.6468 74.4216 79.5685 77.5181 81.9751ZM61.9319 87.3228C60.6622 88.875 59.8064 90.6203 59.6654 92.6299C59.5965 93.0604 59.4709 93.3594 59.2455 93.7314C58.4623 94.2208 57.4528 94.2196 56.5583 94.0896C55.729 93.7257 55.4767 93.2961 55.1028 92.4885C53.6988 89.7479 51.3326 87.8647 48.4682 86.7769C46.3138 86.1488 44.1297 86.6886 42.2045 87.7412C39.9939 89.1826 38.4552 91.167 37.849 93.7537C37.8071 94.0438 37.7737 94.3351 37.7483 94.6271C37.7337 94.7878 37.7192 94.9485 37.7042 95.1141C37.5712 98.1112 38.706 100.943 40.7041 103.148C44.2576 106.873 49.0399 109.494 53.3636 112.22C54.2412 112.775 55.1157 113.335 55.9903 113.895C56.2813 114.081 56.5725 114.267 56.8637 114.453C57.0419 114.567 57.2201 114.681 57.4037 114.799C57.5702 114.905 57.7367 115.011 57.9082 115.12C58.2673 115.354 58.6135 115.597 58.96 115.849C59.4995 116.169 59.7043 116.212 60.3204 116.124C60.7992 115.796 60.7992 115.796 61.2791 115.31C61.3765 115.217 61.474 115.123 61.5745 115.027C61.9357 114.679 62.2926 114.327 62.6492 113.975C62.7984 113.828 62.9476 113.681 63.1013 113.53C64.2586 112.389 65.4083 111.241 66.5561 110.09C66.9317 109.714 67.3079 109.339 67.6842 108.964C68.0509 108.598 68.4172 108.231 68.7834 107.864C69.0391 107.609 69.2951 107.353 69.5511 107.098C73.7079 102.926 77.3909 98.3156 77.3954 92.1899C77.3608 89.7136 76.4583 87.7517 74.8198 85.8938C73.2019 84.3782 70.8686 83.5976 68.6799 83.6552C65.898 83.9122 63.7715 85.2789 61.9319 87.3228Z" fill="black"/>
<path d="M91.408 0.778863C92.2655 1.43604 92.7661 2.41142 92.9146 3.47759C93.0011 4.63569 92.628 5.69932 91.8925 6.58911C91.5728 6.9278 91.1995 7.19897 90.7857 7.41291C90.7218 7.41291 90.6579 7.41291 90.5921 7.41291C90.924 7.93804 91.2651 8.45617 91.6138 8.97031C91.6531 9.02832 91.6924 9.08634 91.7329 9.14611C91.896 9.38652 92.0592 9.62686 92.2227 9.86698C92.7296 10.6119 93.2192 11.3628 93.683 12.1352C93.8259 12.3715 93.9753 12.6036 94.1242 12.8361C95.5841 15.1346 96.9352 17.5137 98.2614 19.891C98.4975 20.3139 98.7371 20.7346 98.9789 21.1543C99.1887 21.0628 99.3217 20.9527 99.4789 20.7874C99.7312 20.529 99.9945 20.2918 100.269 20.0576C100.417 19.9313 100.565 19.8049 100.713 19.6785C100.752 19.645 100.791 19.6115 100.832 19.577C101.06 19.3815 101.285 19.1833 101.507 18.981C101.803 18.7127 102.11 18.4601 102.42 18.2089C102.586 18.0741 102.751 17.9381 102.915 17.8021C103.151 17.6074 103.388 17.4132 103.624 17.219C103.668 17.183 103.711 17.147 103.756 17.1099C104.277 16.6818 104.804 16.2642 105.342 15.8571C105.71 15.5767 106.071 15.2871 106.428 14.9925C106.713 14.7584 107.005 14.5349 107.301 14.3159C107.264 14.2704 107.264 14.2704 107.225 14.224C106.444 13.2639 106.086 12.0587 106.204 10.8321C106.382 9.79331 106.993 8.88786 107.809 8.23143C108.709 7.59711 109.716 7.50301 110.785 7.60646C111.809 7.80515 112.827 8.50185 113.418 9.35235C113.965 10.2907 114.137 11.4037 113.889 12.4676C113.609 13.4555 112.96 14.3161 112.075 14.832C111.692 15.0191 111.336 15.1531 110.914 15.219C110.916 15.2712 110.917 15.3233 110.919 15.3769C110.933 16.2704 110.855 17.1573 110.784 18.0472C110.773 18.184 110.762 18.3207 110.751 18.4575C110.625 20.0483 110.474 21.6357 110.303 23.2223C110.265 23.5711 110.23 23.9201 110.194 24.2692C110.133 24.8673 110.07 25.4653 110.005 26.0631C109.979 26.3098 109.952 26.5565 109.926 26.8032C109.919 26.8663 109.912 26.9293 109.906 26.9942C109.783 28.137 109.668 29.2804 109.555 30.4241C109.449 31.4972 109.341 32.57 109.22 33.6417C109.213 33.7113 109.213 33.7113 109.205 33.7824C109.165 34.1351 109.125 34.4878 109.084 34.8405C109.046 35.1812 109.01 35.5219 108.978 35.8634C108.971 35.9279 108.965 35.9924 108.957 36.0589C108.932 36.4452 109.038 36.6392 109.267 36.9467C109.795 37.7074 109.635 38.8551 109.637 39.7339C109.637 39.7985 109.637 39.8631 109.637 39.9296C109.638 40.271 109.639 40.6124 109.639 40.9538C109.639 41.3044 109.641 41.6549 109.643 42.0055C109.644 42.2771 109.644 42.5487 109.644 42.8203C109.645 42.9495 109.645 43.0787 109.646 43.2078C109.656 44.9101 109.656 44.9101 109.253 45.3952C105.826 48.3361 98.4012 48.0811 94.1336 48.2545C94.0303 48.2587 94.0303 48.2587 93.925 48.263C92.4558 48.3214 90.9877 48.3344 89.5174 48.3313C89.173 48.3305 88.8286 48.331 88.4842 48.3317C74.7923 48.3566 74.7923 48.3566 68.8423 45.4703C68.1781 44.7881 68.3157 43.638 68.3178 42.7567C68.3178 42.6313 68.3176 42.5058 68.3175 42.3803C68.3173 42.1184 68.3176 41.8566 68.3182 41.5947C68.3189 41.2614 68.3185 40.9281 68.3177 40.5948C68.3172 40.336 68.3174 40.0772 68.3177 39.8184C68.3178 39.6956 68.3177 39.5728 68.3174 39.45C68.3133 37.3108 68.3133 37.3108 68.8885 36.6493C69.002 36.4748 68.9979 36.3909 68.9821 36.1852C68.9774 36.1181 68.9726 36.051 68.9677 35.9819C68.9579 35.8693 68.9579 35.8693 68.9479 35.7545C68.9383 35.6321 68.9383 35.6321 68.9285 35.5072C68.8561 34.6053 68.7587 33.7053 68.6644 32.8055C68.5798 31.9955 68.5002 31.1852 68.426 30.3742C68.4217 30.3272 68.4174 30.2803 68.4129 30.232C68.3702 29.7655 68.3279 29.299 68.2861 28.8325C68.2742 28.7002 68.2622 28.568 68.2502 28.4358C68.2356 28.2743 68.2211 28.1128 68.2068 27.9513C68.1645 27.4856 68.1078 27.0234 68.0443 26.56C67.9909 26.1505 67.9516 25.7396 67.9124 25.3285C67.9033 25.2347 67.8942 25.1408 67.8852 25.047C67.861 24.7961 67.8372 24.5451 67.8135 24.2942C67.7986 24.1368 67.7837 23.9795 67.7687 23.8221C67.5681 21.7033 67.4045 19.5825 67.2553 17.4595C67.2374 17.2076 67.2192 16.9557 67.2009 16.7038C67.1948 16.6206 67.1888 16.5374 67.1826 16.4517C67.1711 16.2934 67.1595 16.1352 67.1479 15.9769C67.1428 15.9065 67.1377 15.836 67.1325 15.7635C67.128 15.7017 67.1235 15.64 67.1188 15.5763C67.1106 15.4359 67.1092 15.2952 67.1092 15.1545C67.0294 15.1519 66.9496 15.1492 66.8673 15.1465C66.067 15.0559 65.3297 14.4825 64.8271 13.8786C64.39 13.2808 64.0464 12.5475 64.0126 11.7998C64.0076 11.7217 64.0076 11.7217 64.0025 11.6421C63.9626 10.5004 64.4033 9.47052 65.1738 8.63867C65.8197 7.94637 66.7351 7.60266 67.6631 7.52178C68.7315 7.48594 69.6833 7.78477 70.5042 8.47739C71.2794 9.21709 71.7666 10.2049 71.8348 11.2797C71.8193 12.3053 71.4584 13.3623 70.7406 14.108C70.7132 14.134 70.6857 14.16 70.6575 14.1868C70.7283 14.3993 70.766 14.4314 70.9387 14.5601C70.9837 14.594 71.0286 14.6279 71.075 14.6628C71.1235 14.6987 71.172 14.7345 71.222 14.7715C71.3228 14.8472 71.4236 14.923 71.5244 14.9988C71.5744 15.0362 71.6245 15.0736 71.6761 15.1121C71.8701 15.2576 72.0623 15.4054 72.2542 15.5537C72.4555 15.7089 72.657 15.8639 72.8592 16.0179C73.385 16.4187 73.899 16.8329 74.4106 17.2517C74.5142 17.3365 74.6181 17.421 74.7221 17.5055C75.3527 18.0186 75.9745 18.5406 76.5763 19.0873C76.7068 19.2054 76.8387 19.3214 76.9717 19.4366C77.253 19.6818 77.5278 19.9341 77.8021 20.1871C77.9499 20.3234 78.0988 20.4586 78.2481 20.5933C78.3253 20.6634 78.4025 20.7334 78.4797 20.8035C78.5167 20.8366 78.5537 20.8696 78.5918 20.9037C78.6805 20.9846 78.766 21.0692 78.8507 21.1543C78.8507 21.1969 78.8507 21.2394 78.8507 21.2833C79.0253 21.1275 79.1226 20.9625 79.2312 20.7561C79.267 20.6887 79.3028 20.6213 79.3397 20.5518C79.3779 20.4792 79.4161 20.4066 79.4555 20.3317C79.5371 20.1784 79.6188 20.025 79.7007 19.8718C79.7317 19.8137 79.7317 19.8137 79.7634 19.7543C80.0597 19.2006 80.3719 18.6559 80.6829 18.1104C80.7863 17.9283 80.8887 17.7457 80.991 17.563C81.4315 16.7762 81.8876 16.0002 82.3538 15.2284C82.5446 14.9124 82.7326 14.5948 82.9193 14.2764C83.3018 13.6244 83.6969 12.9821 84.1043 12.3453C84.2104 12.1789 84.3155 12.012 84.4205 11.8449C85.2002 10.6069 86.0314 9.40588 86.873 8.20938C87.0594 7.94417 87.2452 7.67853 87.431 7.41291C87.3809 7.40373 87.3308 7.39454 87.2792 7.38507C86.6884 7.25824 86.1443 6.76152 85.8104 6.27561C85.1922 5.30764 84.9365 4.23475 85.1503 3.09152C85.3964 2.07785 85.9195 1.14892 86.8269 0.594143C88.3135 -0.22656 89.9912 -0.226422 91.408 0.778863Z" fill="black"/>
<path d="M88.9793 8.38086C89.225 8.6052 89.3997 8.86068 89.5842 9.13486C89.6369 9.21272 89.6369 9.21272 89.6908 9.29214C89.8196 9.48272 89.9478 9.67369 90.0761 9.86467C90.1309 9.94602 90.1856 10.0274 90.2404 10.1087C90.9591 11.1761 91.6704 12.2457 92.334 13.3484C92.3699 13.4077 92.4058 13.4671 92.4427 13.5282C93.0683 14.5634 93.6847 15.6041 94.3014 16.6445C94.4677 16.9249 94.6342 17.2052 94.8009 17.4853C95.5759 18.7884 96.3434 20.0943 97.0613 21.4298C97.3006 21.8744 97.5444 22.3161 97.7935 22.7553C97.8256 22.8123 97.8576 22.8693 97.8907 22.9281C97.9207 22.9806 97.9506 23.0331 97.9815 23.0872C98.0206 23.156 98.0206 23.156 98.0605 23.2262C98.1419 23.3504 98.2205 23.4456 98.3338 23.5415C98.5073 23.5796 98.5073 23.5796 98.7007 23.5778C98.7648 23.5806 98.8289 23.5833 98.895 23.5861C99.5223 23.4547 99.9834 22.805 100.412 22.3641C100.787 21.9786 101.17 21.6198 101.591 21.2841C101.809 21.1099 102.019 20.9272 102.229 20.7433C102.635 20.3893 103.045 20.0399 103.457 19.6928C103.56 19.6054 103.663 19.5174 103.766 19.4293C104.154 19.0978 104.547 18.7756 104.95 18.4622C105.244 18.2333 105.533 17.9992 105.821 17.7635C108.784 15.3483 108.784 15.3483 109.108 15.3483C109.134 16.2715 109.054 17.1832 108.974 18.1022C108.964 18.229 108.953 18.3557 108.942 18.4825C108.77 20.5147 108.56 22.5432 108.347 24.5715C108.334 24.7003 108.32 24.8291 108.307 24.9578C108.233 25.6643 108.158 26.3707 108.084 27.0771C107.982 28.0341 107.883 28.9912 107.785 29.9485C107.779 30.011 107.772 30.0734 107.766 30.1377C107.687 30.905 107.611 31.6724 107.535 32.44C107.509 32.7058 107.483 32.9717 107.457 33.2375C107.427 33.5364 107.398 33.8353 107.369 34.1342C107.354 34.2918 107.338 34.4495 107.323 34.6071C107.316 34.6781 107.309 34.749 107.302 34.8221C107.258 35.2602 107.193 35.6898 107.108 36.1217C104.064 36.8403 100.951 37.2088 97.8388 37.464C97.7054 37.4751 97.572 37.4864 97.4385 37.4978C96.9465 37.5395 96.4543 37.572 95.9612 37.5979C95.8615 37.6032 95.7617 37.6085 95.662 37.614C93.5098 37.7319 91.3586 37.7467 89.2037 37.7466C89.0633 37.7466 88.9228 37.7466 88.7824 37.7467C87.0836 37.7474 85.3868 37.7371 83.6892 37.67C83.6167 37.6671 83.5442 37.6643 83.4695 37.6613C83.0009 37.6423 82.5326 37.6193 82.0643 37.5934C81.9929 37.5894 81.9215 37.5855 81.8479 37.5814C78.9845 37.4194 76.1248 37.1579 73.3026 36.6378C73.2187 36.6223 73.2187 36.6223 73.1331 36.6066C71.1314 36.2366 71.1314 36.2366 70.7865 36.1217C70.7815 36.0663 70.7764 36.011 70.7711 35.954C70.722 35.4202 70.6727 34.8865 70.6233 34.3527C70.5979 34.0787 70.5725 33.8046 70.5474 33.5305C70.4351 32.3087 70.3165 31.0882 70.1824 29.8686C70.0934 29.0587 70.0137 28.2484 69.9438 27.4365C69.8812 26.7102 69.8117 25.9855 69.7284 25.2612C69.6013 24.1471 69.5089 23.03 69.4139 21.9128C69.3948 21.6884 69.3755 21.464 69.3562 21.2396C69.2614 20.139 69.1684 19.0381 69.0783 17.9371C69.07 17.8359 69.0617 17.7348 69.0533 17.6337C68.9904 16.8725 68.9419 16.1116 68.9156 15.3483C69.252 15.5317 69.5551 15.7368 69.8592 15.9693C69.9041 16.0033 69.949 16.0374 69.9953 16.0724C70.1303 16.1748 70.2649 16.2776 70.3995 16.3805C70.4373 16.4094 70.4751 16.4382 70.5141 16.4679C71.0226 16.8557 71.5257 17.2503 72.028 17.6461C72.1394 17.7338 72.2511 17.8212 72.3628 17.9084C73.506 18.8017 74.6153 19.7277 75.6896 20.7029C76.1345 21.1051 76.1345 21.1051 76.5847 21.5013C77.1852 22.0264 77.759 22.5714 78.3181 23.1403C78.3814 23.2044 78.3814 23.2044 78.446 23.2699C78.5025 23.3274 78.5025 23.3274 78.5601 23.3862C78.7553 23.5688 78.9332 23.56 79.1935 23.5698C79.2664 23.5737 79.3393 23.5776 79.4145 23.5816C79.6476 23.5372 79.7273 23.4741 79.8654 23.2841C80.0412 23.0064 80.201 22.7209 80.3587 22.4327C80.3978 22.3621 80.4369 22.2915 80.4772 22.2188C80.56 22.0692 80.6426 21.9195 80.725 21.7696C80.9285 21.4 81.1336 21.0314 81.3385 20.6626C81.3993 20.5533 81.3993 20.5533 81.4612 20.4417C82.0778 19.3322 82.7038 18.2301 83.3533 17.1395C83.63 16.6749 83.9035 16.2085 84.1761 15.7416C84.6367 14.9529 85.1051 14.1694 85.5836 13.3914C85.6864 13.2238 85.7887 13.0558 85.8908 12.8877C86.8369 11.3367 87.8399 9.79786 88.9793 8.38086Z" fill="#F8E482"/>
<path d="M70.2058 37.8633C70.7538 37.9062 71.289 38.0016 71.829 38.0999C74.1562 38.5215 76.495 38.8736 78.8506 39.0891C78.8991 39.0935 78.9475 39.098 78.9975 39.1026C82.2243 39.3991 85.4563 39.4333 88.6941 39.4282C89.0421 39.4277 89.3902 39.4279 89.7382 39.4285C91.852 39.4317 93.962 39.4304 96.0727 39.2986C96.4135 39.2774 96.7545 39.26 97.0955 39.2425C99.9986 39.0818 102.883 38.6334 105.747 38.1468C105.789 38.1396 105.832 38.1324 105.876 38.1249C106.106 38.0856 106.336 38.0448 106.565 38.0025C106.614 37.9935 106.664 37.9846 106.714 37.9753C106.808 37.9581 106.902 37.9407 106.996 37.9229C107.251 37.8763 107.493 37.8487 107.753 37.8633C107.877 37.9873 107.825 38.1722 107.825 38.3371C107.825 38.396 107.825 38.4549 107.825 38.5155C107.825 38.5772 107.825 38.6389 107.825 38.7024C107.825 38.9073 107.824 39.1122 107.823 39.3171C107.823 39.4588 107.823 39.6004 107.823 39.7421C107.823 40.1158 107.822 40.4894 107.822 40.863C107.821 41.244 107.821 41.625 107.82 42.0059C107.82 42.754 107.819 43.5021 107.817 44.2501C107.734 44.2919 107.651 44.3336 107.568 44.3753C107.522 44.3985 107.476 44.4217 107.429 44.4456C104.034 46.1118 99.4675 46.144 95.7774 46.363C95.7133 46.3668 95.6493 46.3706 95.5833 46.3746C93.5036 46.4961 91.4248 46.5214 89.3422 46.5202C89.2805 46.5202 89.2188 46.5202 89.1553 46.5202C86.9652 46.5198 84.7802 46.4869 82.5924 46.3791C82.5242 46.3758 82.4559 46.3725 82.3855 46.3691C73.4743 45.9377 73.4743 45.9377 70.1413 44.2501C70.1398 43.4365 70.1387 42.6228 70.138 41.8091C70.1376 41.4313 70.1372 41.0535 70.1365 40.6757C70.1358 40.3114 70.1354 39.947 70.1352 39.5827C70.1351 39.4434 70.1349 39.3042 70.1345 39.1649C70.134 38.9704 70.134 38.7759 70.134 38.5814C70.1338 38.5234 70.1335 38.4653 70.1333 38.4055C70.134 38.0071 70.134 38.0071 70.2058 37.8633Z" fill="#F8E482"/>
<path d="M90.6055 23.1636C92.0318 24.1112 92.652 25.4379 93.0316 27.0548C93.3475 28.7618 93.0267 30.6928 92.1405 32.1862C91.9793 32.4117 91.8059 32.622 91.6244 32.8313C91.584 32.8844 91.5437 32.9376 91.5022 32.9923C91.026 33.5586 90.2896 33.9858 89.5599 34.1216C88.4439 34.199 87.609 33.9354 86.7435 33.2022C85.5061 32.0412 84.9625 30.3156 84.8983 28.6551C84.8575 27.023 85.1444 25.2299 86.3 23.9894C87.4869 22.7742 89.0591 22.2599 90.6055 23.1636Z" fill="black"/>
<path d="M89.3732 24.4776C90.0507 24.7625 90.5743 25.465 90.8502 26.1217C91.3321 27.386 91.5231 29.0958 90.9793 30.3796C90.9616 30.4218 90.944 30.464 90.9258 30.5075C90.5944 31.2808 90.1592 31.928 89.431 32.3795C89.0811 32.4961 88.7256 32.508 88.3907 32.3472C88.2989 32.2674 88.2989 32.2674 88.2052 32.186C88.1656 32.1536 88.126 32.1213 88.0852 32.0879C87.3896 31.4691 87.0757 30.548 86.8504 29.6699C86.8298 29.5902 86.8092 29.5104 86.7879 29.4283C86.4927 28.1369 86.6407 26.7468 87.3237 25.5884C87.8408 24.8627 88.429 24.2464 89.3732 24.4776Z" fill="#7D5232"/>
<path d="M89.947 1.99385C90.5201 2.30242 90.822 2.79564 91.017 3.40155C91.1444 4.07196 91.0707 4.66185 90.6952 5.22658C90.3605 5.66201 89.8417 5.95365 89.3019 6.05819C88.6909 6.11275 88.0826 5.91888 87.6084 5.52671C87.1305 5.04557 86.9795 4.54344 86.9512 3.88086C86.9596 3.31779 87.1453 2.89539 87.435 2.42125C88.16 1.77344 89.057 1.62969 89.947 1.99385Z" fill="#F8E482"/>
<path d="M110.971 9.5273C111.581 9.88009 111.921 10.3692 112.14 11.0257C112.189 11.5856 112.152 12.1514 111.822 12.6217C111.438 13.0687 110.958 13.4887 110.351 13.5634C109.595 13.5736 109.012 13.3567 108.462 12.8321C108.011 12.2769 108.008 11.5789 108.075 10.8967C108.196 10.3724 108.566 9.96958 108.983 9.64676C109.552 9.33151 110.359 9.27971 110.971 9.5273Z" fill="#F8E482"/>
<path d="M69.0446 9.67118C69.5173 10.0021 69.8342 10.3893 69.9478 10.9615C70.0048 11.6421 69.9227 12.2374 69.4962 12.788C69.1203 13.1843 68.5613 13.4485 68.0177 13.4928C67.3289 13.5085 66.8924 13.3624 66.3862 12.8926C65.9299 12.4005 65.8469 11.9407 65.8615 11.2817C65.909 10.7281 66.1447 10.2465 66.5266 9.84456C67.2865 9.21322 68.2023 9.19723 69.0446 9.67118Z" fill="#F8E482"/>
</svg>
