<svg width="180" height="247" viewBox="0 0 180 247" fill="none" xmlns="http://www.w3.org/2000/svg">
<path d="M38.1156 29.5719C38.3178 29.6718 38.52 29.7718 38.7283 29.8748C42.0061 31.5061 45.1168 33.4144 48.232 35.3322C49.1879 35.9207 50.1464 36.5047 51.1068 37.0859C51.3567 37.2372 51.6066 37.3886 51.8641 37.5445C52.3279 37.8251 52.7917 38.1056 53.2557 38.3858C53.4653 38.5131 53.6749 38.6404 53.8908 38.7715C54.091 38.8928 54.2911 39.0142 54.4972 39.1393C55.2674 39.6265 56.0039 40.1576 56.7353 40.7012C57.6351 41.1488 58.4203 41.0457 59.3718 40.7922C59.5921 40.7116 59.8124 40.631 60.0394 40.548C60.2925 40.4582 60.5457 40.3684 60.8065 40.2759C61.0784 40.1785 61.3502 40.0811 61.6303 39.9807C70.6063 36.8853 79.9911 35.5211 89.463 35.5717C89.7188 35.5726 89.9746 35.5734 90.2382 35.5743C100.35 35.6128 110.078 37.2386 119.724 40.3027C119.954 40.3743 120.184 40.4459 120.422 40.5197C121.023 40.7231 121.023 40.7231 121.797 41.1029C122.948 41.2807 123.661 40.5715 124.568 39.9201C125.002 39.6243 125.436 39.3295 125.87 39.0357C126.104 38.8767 126.338 38.7177 126.578 38.5539C127.91 37.6678 129.276 36.8387 130.644 36.0111C130.787 35.9244 130.93 35.8376 131.078 35.7483C135.144 33.2884 139.264 30.8999 143.552 28.8452C144.115 28.5718 144.674 28.2892 145.233 28.0066C149.209 26.0217 153.446 24.2061 157.946 24.1781C158.144 24.1731 158.342 24.1681 158.546 24.1629C160.492 24.1505 162.079 24.6284 163.529 25.9735C167.299 30.1701 167.744 36.8401 168.295 42.1777C168.321 42.4331 168.321 42.4331 168.349 42.6936C169.111 50.4532 168.381 58.3905 167.582 66.1165C167.552 66.414 167.552 66.414 167.522 66.7175C167.151 70.3604 167.151 70.3604 166.773 71.9971C166.005 75.327 167.011 77.4672 168.456 80.4997C172.01 88.2694 172.819 96.7899 172.658 105.207C172.92 105.206 172.92 105.206 173.188 105.205C178.091 105.196 178.091 105.196 179.128 106.04C179.967 106.969 180.016 107.549 179.997 108.765C179.892 109.659 179.567 110.13 178.961 110.782C176.906 112.04 174.46 111.509 172.173 111.267C172.148 111.47 172.148 111.47 172.122 111.677C171.759 114.517 171.307 117.25 170.476 119.994C170.774 120.056 171.073 120.117 171.38 120.181C171.776 120.265 172.171 120.349 172.567 120.433C172.763 120.474 172.959 120.514 173.161 120.555C174.572 120.859 175.772 121.223 176.87 122.206C177.421 123.18 177.487 123.991 177.264 125.085C176.848 125.89 176.271 126.399 175.506 126.888C173.783 127.24 171.99 126.645 170.34 126.161C170.142 126.104 169.943 126.047 169.739 125.989C169.257 125.851 168.776 125.71 168.295 125.57C168.253 125.704 168.212 125.839 168.17 125.977C167.75 127.301 167.239 128.514 166.582 129.736C166.488 129.913 166.393 130.09 166.295 130.273C164.763 133.068 162.879 135.508 160.661 137.797C160.409 138.058 160.158 138.321 159.908 138.585C155.139 143.634 148.58 148.276 141.871 150.296C142.166 150.521 142.166 150.521 142.467 150.75C145.098 152.759 147.644 154.824 150.062 157.087C150.561 157.553 151.063 158.014 151.573 158.468C152.713 159.484 153.791 160.498 154.771 161.668C155.082 162.033 155.405 162.387 155.735 162.735C158.527 165.678 160.822 169.019 162.719 172.599C162.832 172.804 162.946 173.008 163.063 173.219C165.113 177.061 166.116 181.444 164.91 185.709C163.777 188.892 161.817 190.932 158.84 192.477C153.462 194.676 148.112 194.714 142.736 192.473C142.366 192.315 141.997 192.154 141.628 191.992C141.673 192.164 141.717 192.336 141.763 192.513C142.365 194.97 142.725 197.443 143.068 199.947C143.115 200.286 143.115 200.286 143.162 200.631C147.799 234.313 147.799 234.313 142.848 240.865C139.797 244.173 135.107 245.732 130.72 246.052C129.356 246.099 127.993 246.111 126.629 246.112C126.345 246.113 126.345 246.113 126.056 246.113C120.827 246.109 114.847 245.714 110.812 241.948C108.728 239.652 107.85 236.93 107.16 233.976C107.119 233.807 107.078 233.638 107.037 233.464C106.782 232.304 106.666 231.163 106.586 229.978C106.566 229.673 106.545 229.369 106.524 229.056C106.509 228.825 106.493 228.593 106.478 228.355C106.322 228.37 106.167 228.384 106.006 228.399C101.127 228.834 96.2778 228.916 91.3819 228.903C90.3395 228.901 89.2972 228.902 88.2549 228.905C83.3171 228.916 78.4298 228.79 73.5088 228.355C73.4935 228.569 73.4783 228.782 73.4625 229.002C73.4314 229.425 73.4314 229.425 73.3996 229.856C73.3693 230.274 73.3693 230.274 73.3382 230.7C73.2442 231.755 73.0685 232.776 72.8421 233.81C72.7996 234.005 72.757 234.201 72.7132 234.402C71.8916 238.016 70.5085 240.927 67.4483 243.143C63.3606 245.626 58.7535 246.099 54.0847 246.11C53.5172 246.112 52.9499 246.12 52.3824 246.128C46.9925 246.166 41.7626 245.132 37.6914 241.37C34.5475 238.041 34.6063 234.226 34.646 229.916C34.6474 229.657 34.6487 229.398 34.6501 229.132C34.7 219.653 35.5657 210.265 36.7975 200.871C36.8217 200.686 36.8459 200.501 36.8708 200.31C37.2266 197.608 37.6538 194.921 38.1156 192.235C37.8141 192.334 37.5125 192.434 37.2018 192.536C31.5199 194.387 26.3357 194.99 20.7978 192.326C17.9419 190.856 16.0415 188.666 14.8908 185.666C13.5636 180.948 15.3129 175.945 17.5625 171.815C19.4486 168.486 21.7009 165.525 24.2892 162.713C24.733 162.229 25.1604 161.736 25.5856 161.236C27.3449 159.219 29.2864 157.358 31.3279 155.63C31.5822 155.409 31.8363 155.187 32.0902 154.966C33.9652 153.336 35.8865 151.788 37.8732 150.296C37.7341 150.234 37.5951 150.172 37.4518 150.108C36.9958 149.902 36.5408 149.695 36.0863 149.486C35.4538 149.197 34.8201 148.915 34.1829 148.637C29.8065 146.69 25.9118 144.044 22.3584 140.842C22.1553 140.668 21.9522 140.494 21.7429 140.315C20.5404 139.279 19.4845 138.19 18.4797 136.963C18.2831 136.73 18.0866 136.497 17.8841 136.257C15.2739 133.099 13.1706 129.526 11.4496 125.812C10.1678 125.915 9.04278 126.186 7.81327 126.57C6.45275 126.968 5.54338 127.179 4.17699 126.782C3.22195 126.2 2.76384 125.684 2.48006 124.6C2.35995 123.659 2.43964 123.225 2.87399 122.373C4.03919 120.993 5.60416 120.761 7.29813 120.433C7.51125 120.391 7.72437 120.348 7.94395 120.303C8.4657 120.198 8.98774 120.095 9.5102 119.994C9.47603 119.842 9.44185 119.689 9.40663 119.532C8.79332 116.786 8.18781 114.057 7.81327 111.267C7.54931 111.277 7.54931 111.277 7.28002 111.286C6.47805 111.312 5.67616 111.327 4.87394 111.343C4.59708 111.353 4.32021 111.363 4.03495 111.374C1.73097 111.407 1.73097 111.407 0.845625 110.687C0.122366 109.852 0.0184303 109.469 0.0104164 108.388C0.0052603 108.074 0.0052603 108.074 0 107.754C0.0821608 106.86 0.335934 106.355 1.01039 105.767C2.56245 105.102 4.29847 105.196 5.96388 105.202C6.34939 105.203 6.34939 105.203 6.74269 105.204C6.93598 105.205 7.12928 105.206 7.32843 105.207C7.32463 105.007 7.32082 104.807 7.31689 104.601C7.17174 95.793 8.41206 87.1907 12.067 79.0774C12.1686 78.8517 12.2702 78.626 12.3749 78.3935C12.5689 77.9719 12.7687 77.5528 12.9754 77.1373C13.7042 75.578 13.6754 74.4016 13.3889 72.7224C13.3562 72.5158 13.3236 72.3093 13.2899 72.0964C13.2195 71.6648 13.1467 71.2335 13.0719 70.8026C11.3041 60.454 10.598 49.4658 11.9344 39.0262C11.9591 38.8235 11.9838 38.6207 12.0092 38.4119C12.564 33.9922 13.4889 28.521 17.0252 25.4508C23.3646 21.4389 32.3875 26.72 38.1156 29.5719Z" fill="#FBE9CC"/>
<path d="M38.1156 29.5719C38.3178 29.6718 38.52 29.7718 38.7283 29.8748C42.0061 31.5061 45.1168 33.4144 48.232 35.3322C49.1879 35.9207 50.1464 36.5047 51.1068 37.0859C51.3567 37.2372 51.6066 37.3886 51.8641 37.5445C52.3279 37.8251 52.7917 38.1056 53.2557 38.3858C53.4653 38.5131 53.6749 38.6404 53.8908 38.7715C54.091 38.8928 54.2911 39.0142 54.4972 39.1393C55.2674 39.6265 56.0039 40.1576 56.7353 40.7012C57.6351 41.1488 58.4203 41.0457 59.3718 40.7922C59.5921 40.7116 59.8124 40.631 60.0394 40.548C60.2925 40.4582 60.5457 40.3684 60.8065 40.2759C61.0784 40.1785 61.3502 40.0811 61.6303 39.9807C70.6063 36.8853 79.9911 35.5211 89.463 35.5717C89.7188 35.5726 89.9746 35.5734 90.2382 35.5743C100.35 35.6128 110.078 37.2386 119.724 40.3027C119.954 40.3743 120.184 40.4459 120.422 40.5197C121.023 40.7231 121.023 40.7231 121.797 41.1029C122.948 41.2807 123.661 40.5715 124.568 39.9201C125.002 39.6243 125.436 39.3295 125.87 39.0357C126.104 38.8767 126.338 38.7177 126.578 38.5539C127.91 37.6678 129.276 36.8387 130.644 36.0111C130.787 35.9244 130.93 35.8376 131.078 35.7483C135.144 33.2884 139.264 30.8999 143.552 28.8452C144.115 28.5718 144.674 28.2892 145.233 28.0066C149.209 26.0217 153.446 24.2061 157.946 24.1781C158.144 24.1731 158.342 24.1681 158.546 24.1629C160.492 24.1505 162.079 24.6284 163.529 25.9735C167.299 30.1701 167.744 36.8401 168.295 42.1777C168.321 42.4331 168.321 42.4331 168.349 42.6936C169.111 50.4532 168.381 58.3905 167.582 66.1165C167.552 66.414 167.552 66.414 167.522 66.7175C167.151 70.3604 167.151 70.3604 166.773 71.9971C166.005 75.327 167.011 77.4672 168.456 80.4997C172.01 88.2694 172.819 96.7899 172.658 105.207C172.92 105.206 172.92 105.206 173.188 105.205C178.091 105.196 178.091 105.196 179.128 106.04C179.967 106.969 180.016 107.549 179.997 108.765C179.892 109.659 179.567 110.13 178.961 110.782C176.906 112.04 174.46 111.509 172.173 111.267C172.148 111.47 172.148 111.47 172.122 111.677C171.759 114.517 171.307 117.25 170.476 119.994C170.774 120.056 171.073 120.117 171.38 120.181C171.776 120.265 172.171 120.349 172.567 120.433C172.763 120.474 172.959 120.514 173.161 120.555C174.572 120.859 175.772 121.223 176.87 122.206C177.421 123.18 177.487 123.991 177.264 125.085C176.848 125.89 176.271 126.399 175.506 126.888C173.783 127.24 171.99 126.645 170.34 126.161C170.142 126.104 169.943 126.047 169.739 125.989C169.257 125.851 168.776 125.71 168.295 125.57C168.253 125.704 168.212 125.839 168.17 125.977C167.75 127.301 167.239 128.514 166.582 129.736C166.488 129.913 166.393 130.09 166.295 130.273C164.763 133.068 162.879 135.508 160.661 137.797C160.409 138.058 160.158 138.321 159.908 138.585C155.139 143.634 148.58 148.276 141.871 150.296C142.166 150.521 142.166 150.521 142.467 150.75C145.098 152.759 147.644 154.824 150.062 157.087C150.561 157.553 151.063 158.014 151.573 158.468C152.713 159.484 153.791 160.498 154.771 161.668C155.082 162.033 155.405 162.387 155.735 162.735C158.527 165.678 160.822 169.019 162.719 172.599C162.832 172.804 162.946 173.008 163.063 173.219C165.113 177.061 166.116 181.444 164.91 185.709C163.777 188.892 161.817 190.932 158.84 192.477C153.462 194.676 148.112 194.714 142.736 192.473C142.366 192.315 141.997 192.154 141.628 191.992C141.673 192.164 141.717 192.336 141.763 192.513C142.365 194.97 142.725 197.443 143.068 199.947C143.115 200.286 143.115 200.286 143.162 200.631C147.799 234.313 147.799 234.313 142.848 240.865C139.797 244.173 135.107 245.732 130.72 246.052C129.356 246.099 127.993 246.111 126.629 246.112C126.345 246.113 126.345 246.113 126.056 246.113C120.827 246.109 114.847 245.714 110.812 241.948C108.728 239.652 107.85 236.93 107.16 233.976C107.119 233.807 107.078 233.638 107.037 233.464C106.782 232.304 106.666 231.163 106.586 229.978C106.566 229.673 106.545 229.369 106.524 229.056C106.509 228.825 106.493 228.593 106.478 228.355C106.322 228.37 106.167 228.384 106.006 228.399C101.127 228.834 96.2778 228.916 91.3819 228.903C90.3395 228.901 89.2972 228.902 88.2549 228.905C83.3171 228.916 78.4298 228.79 73.5088 228.355C73.4935 228.569 73.4783 228.782 73.4625 229.002C73.4314 229.425 73.4314 229.425 73.3996 229.856C73.3693 230.274 73.3693 230.274 73.3382 230.7C73.2442 231.755 73.0685 232.776 72.8421 233.81C72.7996 234.005 72.757 234.201 72.7132 234.402C71.8916 238.016 70.5085 240.927 67.4483 243.143C63.3606 245.626 58.7535 246.099 54.0847 246.11C53.5172 246.112 52.9499 246.12 52.3824 246.128C46.9925 246.166 41.7626 245.132 37.6914 241.37C34.5475 238.041 34.6063 234.226 34.646 229.916C34.6474 229.657 34.6487 229.398 34.6501 229.132C34.7 219.653 35.5657 210.265 36.7975 200.871C36.8217 200.686 36.8459 200.501 36.8708 200.31C37.2266 197.608 37.6538 194.921 38.1156 192.235C37.8141 192.334 37.5125 192.434 37.2018 192.536C31.5199 194.387 26.3357 194.99 20.7978 192.326C17.9419 190.856 16.0415 188.666 14.8908 185.666C13.5636 180.948 15.3129 175.945 17.5625 171.815C19.4486 168.486 21.7009 165.525 24.2892 162.713C24.733 162.229 25.1604 161.736 25.5856 161.236C27.3449 159.219 29.2864 157.358 31.3279 155.63C31.5822 155.409 31.8363 155.187 32.0902 154.966C33.9652 153.336 35.8865 151.788 37.8732 150.296C37.7341 150.234 37.5951 150.172 37.4518 150.108C36.9958 149.902 36.5408 149.695 36.0863 149.486C35.4538 149.197 34.8201 148.915 34.1829 148.637C29.8065 146.69 25.9118 144.044 22.3584 140.842C22.1553 140.668 21.9522 140.494 21.7429 140.315C20.5404 139.279 19.4845 138.19 18.4797 136.963C18.2831 136.73 18.0866 136.497 17.8841 136.257C15.2739 133.099 13.1706 129.526 11.4496 125.812C10.1678 125.915 9.04278 126.186 7.81327 126.57C6.45275 126.968 5.54338 127.179 4.17699 126.782C3.22195 126.2 2.76384 125.684 2.48006 124.6C2.35995 123.659 2.43964 123.225 2.87399 122.373C4.03919 120.993 5.60416 120.761 7.29813 120.433C7.51125 120.391 7.72437 120.348 7.94395 120.303C8.4657 120.198 8.98774 120.095 9.5102 119.994C9.47603 119.842 9.44185 119.689 9.40663 119.532C8.79332 116.786 8.18781 114.057 7.81327 111.267C7.54931 111.277 7.54931 111.277 7.28002 111.286C6.47805 111.312 5.67616 111.327 4.87394 111.343C4.59708 111.353 4.32021 111.363 4.03495 111.374C1.73097 111.407 1.73097 111.407 0.845625 110.687C0.122366 109.852 0.0184303 109.469 0.0104164 108.388C0.0052603 108.074 0.0052603 108.074 0 107.754C0.0821608 106.86 0.335934 106.355 1.01039 105.767C2.56245 105.102 4.29847 105.196 5.96388 105.202C6.34939 105.203 6.34939 105.203 6.74269 105.204C6.93598 105.205 7.12928 105.206 7.32843 105.207C7.32463 105.007 7.32082 104.807 7.31689 104.601C7.17174 95.793 8.41206 87.1907 12.067 79.0774C12.1686 78.8517 12.2702 78.626 12.3749 78.3935C12.5689 77.9719 12.7687 77.5528 12.9754 77.1373C13.7042 75.578 13.6754 74.4016 13.3889 72.7224C13.3562 72.5158 13.3236 72.3093 13.2899 72.0964C13.2195 71.6648 13.1467 71.2335 13.0719 70.8026C11.3041 60.454 10.598 49.4658 11.9344 39.0262C11.9591 38.8235 11.9838 38.6207 12.0092 38.4119C12.564 33.9922 13.4889 28.521 17.0252 25.4508C23.3646 21.4389 32.3875 26.72 38.1156 29.5719ZM20.9039 31.1324C19.8133 32.5297 19.351 33.9128 18.9342 35.6172C18.8958 35.7715 18.8573 35.9257 18.8177 36.0847C17.8526 40.3148 17.9069 44.607 17.9191 48.9199C17.9196 49.2459 17.92 49.5718 17.9204 49.8977C17.9337 56.8596 18.3526 63.6478 19.54 70.5101C20.0323 73.4474 20.4308 76.132 18.9797 78.8283C15.1038 86.7367 12.955 96.3748 13.3889 105.207C13.8937 105.711 14.9909 105.516 15.6919 105.54C17.314 105.612 18.9076 105.743 20.51 106.01C20.7624 106.048 20.7624 106.048 21.0199 106.087C22.1059 106.282 22.8018 106.592 23.5705 107.388C23.9236 108.269 23.9422 109.169 23.651 110.072C23.3036 110.75 22.9758 111.198 22.2969 111.553C19.8984 112.269 16.8418 111.69 14.3586 111.509C14.2794 112.994 14.5717 114.275 14.9495 115.706C15.0053 115.926 15.061 116.145 15.1185 116.372C15.3888 117.483 15.3888 117.483 15.8131 118.54C16.2323 118.505 16.6515 118.47 17.0706 118.434C17.3041 118.414 17.5375 118.394 17.778 118.374C18.4631 118.312 18.4631 118.312 19.0592 118.17C19.8868 118.019 20.6843 118.013 21.5251 118.009C21.8404 118.006 22.1557 118.002 22.4806 117.999C23.6787 118.078 23.6787 118.078 24.2978 118.54C24.7419 119.211 24.8651 119.787 24.8886 120.585C24.9032 120.855 24.9032 120.855 24.918 121.129C24.7115 121.986 24.3027 122.453 23.5705 122.903C22.6318 123.219 21.6794 123.404 20.7069 123.585C20.4465 123.637 20.186 123.69 19.9176 123.744C19.2774 123.872 18.6367 123.995 17.9949 124.115C19.0146 127.44 20.868 130.201 23.0857 132.842C23.2487 133.037 23.2487 133.037 23.415 133.235C29.0728 139.881 37.0075 143.792 45.2245 146.309C48.968 147.463 48.968 147.463 49.7517 148.842C49.9053 150.07 49.7581 150.763 49.0245 151.751C48.4364 152.075 48.4364 152.075 47.7366 152.327C43.2939 154.064 39.5139 156.612 36.0598 159.901C35.5657 160.368 35.0642 160.813 34.5494 161.255C31.7188 163.721 28.9723 166.437 26.7219 169.448C26.5045 169.731 26.287 170.014 26.0695 170.297C23.3618 173.863 20.2163 178.318 20.6615 183.023C20.9364 184.579 21.7593 185.483 22.954 186.475C25.496 188.236 28.6197 188.479 31.6025 187.957C33.4183 187.588 35.1387 187.036 36.8429 186.311C37.0018 186.244 37.1607 186.177 37.3243 186.108C38.457 185.596 39.4904 184.982 40.0018 183.796C40.1598 183.277 40.289 182.757 40.4101 182.228C40.4824 181.936 40.4824 181.936 40.5561 181.638C40.6583 181.223 40.7585 180.808 40.857 180.393C41.0103 179.747 41.1687 179.102 41.3287 178.458C41.5384 177.613 41.7466 176.769 41.9537 175.924C42.2991 174.522 42.6653 173.126 43.0549 171.735C43.1327 171.445 43.1327 171.445 43.212 171.148C43.5941 169.8 44.1075 168.672 45.2367 167.781C46.0189 167.446 46.4832 167.388 47.3275 167.508C48.0633 167.904 48.6084 168.249 49.1154 168.917C49.6029 170.624 49.031 172.282 48.5927 173.939C48.4479 174.502 48.3032 175.065 48.1585 175.627C48.0822 175.922 48.0059 176.216 47.9272 176.519C44.5672 189.516 42.2986 202.601 41.2671 215.992C41.2526 216.176 41.2382 216.361 41.2233 216.551C40.8972 220.755 40.7326 224.958 40.6973 229.175C40.6934 229.613 40.688 230.051 40.6811 230.49C40.5634 233.991 40.5634 233.991 42.1207 237.024C44.8334 239.762 49.5199 240.007 53.1433 240.038C59.3413 240.102 59.3413 240.102 64.6264 237.328C67.0593 234.344 67.2991 229.898 67.6388 226.209C67.7828 224.833 67.9316 223.837 68.9028 222.78C70.1039 221.938 71.0975 221.989 72.4936 222.113C72.6769 222.126 72.8602 222.139 73.049 222.152C73.7676 222.205 74.4837 222.267 75.1994 222.351C79.8761 222.896 84.6068 222.837 89.3088 222.84C89.6662 222.84 90.0237 222.841 90.3811 222.841C95.9075 222.85 101.387 222.71 106.887 222.119C108.409 221.993 109.536 221.909 110.841 222.78C112.28 224.539 112.394 226.542 112.629 228.719C113.22 233.758 113.22 233.758 115.826 237.991C119.554 240.809 126.155 240.339 130.522 239.78C133.321 239.369 136.214 238.828 138.174 236.613C139.368 234.987 139.491 233.308 139.481 231.334C139.48 231.147 139.48 230.961 139.479 230.768C139.455 227.971 139.296 225.178 139.144 222.386C139.128 222.088 139.111 221.789 139.095 221.482C138.362 208.138 136.674 194.875 133.423 181.898C133.382 181.734 133.341 181.57 133.299 181.401C132.885 179.751 132.466 178.103 132.038 176.457C131.916 175.99 131.796 175.522 131.676 175.054C131.527 174.478 131.377 173.903 131.224 173.328C130.862 171.916 130.592 170.664 130.72 169.205C131.245 168.341 131.729 167.884 132.659 167.508C133.188 167.471 133.188 167.471 133.735 167.523C133.914 167.536 134.094 167.549 134.279 167.562C135.114 167.842 135.483 168.293 136.053 168.963C136.35 169.61 136.531 170.274 136.712 170.962C136.766 171.156 136.82 171.35 136.876 171.549C137.05 172.176 137.218 172.804 137.386 173.432C137.505 173.863 137.623 174.293 137.742 174.723C138.421 177.198 139.07 179.679 139.53 182.206C139.792 183.534 140.159 184.257 141.144 185.205C144.842 187.568 149.325 188.711 153.658 187.841C155.954 187.247 157.552 186.319 158.826 184.295C159.738 182.36 159.327 180.523 158.692 178.578C156.82 173.644 153.642 169.671 150.113 165.811C149.906 165.579 149.699 165.346 149.485 165.107C147.93 163.369 146.289 161.774 144.537 160.236C144.416 160.127 144.294 160.019 144.169 159.907C140.655 156.79 136.878 153.957 132.386 152.448C131.62 152.178 131.192 151.983 130.553 151.463C130.113 150.521 129.955 149.614 130.235 148.6C131.079 147.542 131.824 147.18 133.114 146.827C133.461 146.726 133.808 146.624 134.154 146.522C134.342 146.467 134.529 146.412 134.723 146.356C142.468 144.035 149.03 140.534 154.961 135.024C155.126 134.876 155.29 134.727 155.46 134.574C158.385 131.82 160.819 127.943 161.992 124.115C161.822 124.085 161.652 124.054 161.477 124.023C160.703 123.882 159.931 123.734 159.158 123.585C158.891 123.537 158.624 123.49 158.348 123.441C155.809 122.942 155.809 122.942 154.961 121.691C154.755 120.943 154.809 120.267 154.961 119.509C155.396 118.813 155.685 118.42 156.416 118.055C158.974 117.839 161.429 118.31 163.931 118.782C164.435 117.491 164.856 116.217 165.189 114.873C165.232 114.709 165.274 114.545 165.319 114.376C165.563 113.4 165.673 112.515 165.628 111.509C165.387 111.527 165.147 111.544 164.899 111.562C163.234 111.679 161.569 111.777 159.901 111.812C159.638 111.819 159.375 111.825 159.103 111.831C158.22 111.738 157.653 111.491 156.901 111.025C156.356 110.111 156.174 109.512 156.174 108.449C156.47 107.449 156.809 107.056 157.628 106.419C158.698 105.989 159.668 105.849 160.816 105.78C160.975 105.77 161.134 105.76 161.298 105.75C161.802 105.718 162.306 105.69 162.81 105.661C163.154 105.64 163.497 105.619 163.841 105.598C164.679 105.546 165.517 105.497 166.355 105.449C166.443 101.343 166.384 97.3721 165.628 93.328C165.589 93.1166 165.55 92.9051 165.51 92.6873C164.546 87.6499 162.955 82.6666 160.717 78.049C159.569 75.5735 160.124 73.2189 160.529 70.6055C161.63 63.3976 162.054 56.1773 162.067 48.8896C162.068 48.6503 162.069 48.411 162.07 48.1644C162.078 43.9542 161.981 39.6594 160.946 35.5566C160.901 35.353 160.855 35.1494 160.808 34.9397C160.407 33.283 159.811 31.7547 158.355 30.784C157.017 30.6967 155.868 30.8456 154.583 31.2385C154.408 31.2913 154.234 31.3441 154.054 31.3985C144.209 34.5227 134.684 40.5955 126.311 46.5278C124.69 47.6477 123.231 48.1693 121.265 47.9957C120.519 47.7457 120.519 47.7457 119.75 47.3897C115.094 45.3804 109.992 44.3074 105.023 43.3897C104.829 43.3526 104.635 43.3155 104.435 43.2773C89.9316 40.5408 74.1655 42.1796 60.3837 47.3434C58.7794 47.94 57.4783 48.3278 55.8274 47.6624C53.4789 46.5321 51.3133 44.9854 49.1305 43.5716C45.4776 41.2109 41.753 38.9566 37.9247 36.8916C37.5587 36.6939 37.1932 36.4952 36.8284 36.2954C29.1399 31.7261 29.1399 31.7261 20.9039 31.1324Z" fill="black"/>
<path d="M89.7811 162.296C90.0651 162.298 90.3491 162.299 90.6417 162.301C96.0981 162.415 100.508 164.355 104.296 168.236C104.49 168.427 104.684 168.619 104.884 168.817C110.66 174.822 112.432 183.927 112.398 191.968C112.302 196.551 111.009 200.361 107.69 203.629C107.535 203.783 107.38 203.937 107.221 204.096C101.636 209.322 93.6092 209.245 86.4527 209.013C81.6738 208.813 77.0949 207.523 73.2663 204.598C73.0848 204.461 72.9032 204.324 72.7162 204.183C69.5692 201.625 67.9313 197.667 67.489 193.708C67.3583 192.091 67.4171 190.461 67.4483 188.841C67.4524 188.581 67.4564 188.321 67.4606 188.053C67.7944 180.881 70.5662 173.904 75.2057 168.478C75.3498 168.309 75.4938 168.14 75.6422 167.966C79.2668 164.053 84.555 162.266 89.7811 162.296Z" fill="#F2D3A3"/>
<path d="M106.337 163.064C106.543 163.25 106.75 163.437 106.963 163.629C107.167 163.813 107.371 163.997 107.581 164.187C111.386 167.802 113.805 172.515 115.447 177.447C115.536 177.706 115.625 177.965 115.717 178.231C117.706 184.529 118.284 191.859 116.659 198.295C116.62 198.453 116.581 198.611 116.541 198.773C115.283 203.618 111.987 207.657 107.712 210.207C102.194 213.295 96.3695 214.109 90.1448 214.113C89.8379 214.113 89.8379 214.113 89.5247 214.113C86.4023 214.11 83.3542 214.02 80.2965 213.325C80.1174 213.285 79.9384 213.245 79.7539 213.203C74.0854 211.863 68.6619 208.719 65.5341 203.714C61.6471 197.246 61.6906 188.397 63.4151 181.214C63.4661 181.011 63.5171 180.808 63.5696 180.599C63.6203 180.393 63.6709 180.187 63.7231 179.975C65.1614 174.316 67.6976 169.223 71.5694 164.841C71.7916 164.589 71.7916 164.589 72.0183 164.331C80.767 155.005 96.8454 154.907 106.337 163.064ZM74.3355 169.446C69.9917 174.86 67.7023 181.945 67.4483 188.841C67.4417 189.006 67.4351 189.17 67.4283 189.34C67.2622 194.027 67.958 198.326 70.8422 202.174C70.9931 202.389 70.9931 202.389 71.1471 202.609C74.2967 206.729 79.9489 208.177 84.8155 208.893C86.5234 209.098 88.2457 209.069 89.963 209.052C90.2654 209.051 90.2654 209.051 90.5739 209.049C97.2171 209.009 103.27 208.04 108.175 203.144C108.41 202.912 108.41 202.912 108.651 202.676C112.157 198.977 112.486 194.127 112.372 189.306C112.074 181.481 109.576 173.679 104.054 167.993C103.915 167.839 103.776 167.685 103.633 167.527C100.596 164.258 95.9632 162.525 91.5766 162.323C84.5443 162.144 79.0565 164.067 74.3355 169.446Z" fill="black"/>
<path d="M144.492 104.525C147.086 106.3 148.661 108.704 149.386 111.752C149.791 115.544 148.979 118.427 146.602 121.416C144.665 123.573 141.927 124.701 139.092 124.902C135.65 125.017 132.844 124.026 130.236 121.754C127.964 119.392 127.008 116.44 127.047 113.227C127.197 110.119 128.415 107.554 130.72 105.449C134.949 102.274 139.88 101.797 144.492 104.525Z" fill="#F4A99C"/>
<path d="M47.0851 103.994C47.272 104.088 47.4589 104.181 47.6514 104.277C50.0658 105.636 51.8116 108.237 52.6305 110.843C53.3278 113.807 53.0413 116.779 51.5595 119.458C49.9622 121.878 47.6793 123.7 44.9034 124.6C41.8062 125.204 38.7165 125.045 35.9405 123.462C33.4117 121.743 31.5031 119.381 30.8431 116.358C30.529 112.204 31.0216 109.381 33.7066 106.129C37.1674 102.336 42.6482 101.782 47.0851 103.994Z" fill="#F4A99C"/>
<path d="M28.2967 39.154C29.9045 39.3708 31.3327 40.0285 32.7824 40.7231C32.9322 40.7944 33.0819 40.8658 33.2362 40.9393C37.1454 42.8383 40.5854 45.485 43.9965 48.1508C44.3668 48.4401 44.7395 48.7261 45.1126 49.0117C45.7979 49.5918 46.0918 49.9905 46.2054 50.8886C46.0927 51.82 45.8725 52.0212 45.1609 52.6167C44.94 52.803 44.7191 52.9892 44.4914 53.1811C43.3953 54.0575 42.2752 54.9036 41.1548 55.7486C39.704 56.8472 38.3222 58.0094 36.9509 59.2047C36.2621 59.8044 35.5561 60.3792 34.843 60.9499C33.7848 61.807 32.7891 62.7148 31.7976 63.6468C29.7583 65.5513 29.7583 65.5513 28.7825 66.3892C28.605 66.5435 28.4275 66.6979 28.2446 66.857C27.6916 67.1467 27.6916 67.1467 26.9293 67.1211C26.2371 66.9043 26.2371 66.9043 25.7068 66.1316C23.8968 61.8806 23.9722 56.7031 23.9921 52.17C23.9947 51.4633 23.9921 50.7567 23.989 50.05C23.9826 41.9863 23.9826 41.9863 25.8252 39.5848C26.5779 39.0069 27.3815 39.1286 28.2967 39.154Z" fill="#F4A99C"/>
<path d="M153.507 39.2688C155.305 40.6924 155.542 43.2293 155.794 45.386C156.414 51.9405 156.815 60.5965 153.992 66.6621C153.228 67.0442 152.625 67.1284 151.81 66.9045C151.057 66.3787 150.42 65.7456 149.768 65.0995C149.012 64.3547 148.235 63.6313 147.462 62.9046C147.294 62.7466 147.126 62.5886 146.954 62.4257C145.63 61.185 144.262 60.0318 142.841 58.9047C142.411 58.5517 141.982 58.1982 141.553 57.8441C140.537 57.0128 139.51 56.1985 138.477 55.3896C138.191 55.1639 137.904 54.9383 137.618 54.7126C137.077 54.2863 136.531 53.8673 135.98 53.4531C135.619 53.1742 135.619 53.1742 135.25 52.8897C135.036 52.7281 134.822 52.5666 134.601 52.4001C133.987 51.7378 133.894 51.3157 133.871 50.42C135.015 48.6701 136.809 47.5175 138.477 46.2989C138.633 46.1835 138.789 46.068 138.95 45.949C149.421 38.2294 149.421 38.2294 153.507 39.2688Z" fill="#F4A99C"/>
<path d="M90.0538 100.767C90.2929 100.76 90.532 100.753 90.7783 100.746C92.4589 100.732 93.8424 100.996 95.3265 101.813C96.1774 102.664 96.4965 103.324 96.6143 104.525C96.4658 106.337 95.5769 107.5 94.2962 108.737C93.8719 109.085 93.8719 109.085 93.1598 109.404C92.6143 109.761 92.6143 109.761 92.5604 110.317C92.4884 112.356 93.033 114.299 94.3568 115.873C95.9396 117.142 97.523 117.649 99.5385 117.555C102.03 117.245 103.494 116.104 105.069 114.203C105.664 113.51 105.874 113.46 106.796 113.373C107.829 113.461 108.179 113.696 108.902 114.419C109.323 115.261 109.256 116.165 109.144 117.085C107.891 119.499 105.433 121.301 102.929 122.242C100.159 123.095 96.9791 123.004 94.335 121.828C92.7905 120.998 91.4532 120.044 90.2357 118.782C89.5345 119.103 89.151 119.375 88.569 119.919C85.8507 122.318 82.6626 122.885 79.1594 122.715C75.856 122.397 73.5435 120.442 71.4558 118.035C70.7765 117.184 70.7482 116.515 70.755 115.452C70.8932 114.582 71.376 114.208 72.0543 113.691C72.758 113.34 73.2112 113.359 73.9936 113.449C74.8734 114.054 75.4834 114.695 76.1451 115.525C77.2266 116.785 78.1287 117.253 79.7975 117.428C81.8314 117.529 83.7549 117.483 85.3873 116.116C86.7718 114.511 87.5009 112.823 87.4668 110.696C87.2961 109.916 87.0917 109.723 86.4479 109.267C86.2716 109.159 86.0954 109.05 85.9138 108.939C84.7741 108.207 83.7575 107.023 83.4479 105.692C83.3167 104.474 83.3124 103.554 83.8419 102.434C85.5019 100.643 87.783 100.789 90.0538 100.767Z" fill="black"/>
<path d="M125.407 90.4153C126.001 90.704 126.538 91.0183 127.083 91.3888C127.413 91.5913 127.413 91.5913 127.75 91.7979C129.432 93.5263 130.066 95.3455 130.069 97.7149C130.024 99.9383 129.274 101.5 127.76 103.101C126.023 104.736 124.24 105.108 121.915 105.071C120.114 104.855 118.507 104.035 117.265 102.707C117.053 102.416 116.851 102.118 116.659 101.813C116.56 101.668 116.461 101.523 116.358 101.373C115.249 99.4155 115.329 96.6447 115.887 94.5147C116.692 92.7118 118.144 91.3852 119.884 90.4939C121.606 89.8846 123.659 89.8577 125.407 90.4153Z" fill="black"/>
<path d="M60.3121 90.6766C62.0692 91.7279 63.3477 93.0872 64.0544 95.0249C64.6184 97.3416 64.4954 99.7093 63.3272 101.813C62.1177 103.419 60.7064 104.543 58.7212 104.964C56.4798 105.232 54.7909 105.004 52.9032 103.752C52.6432 103.587 52.3832 103.422 52.1153 103.252C50.6106 101.85 49.9315 100.006 49.833 97.9908C49.8111 95.7157 50.1295 94.0125 51.7129 92.293C54.0365 90.0885 57.3112 89.282 60.3121 90.6766Z" fill="black"/>
<path d="M59.1684 74.324C59.8326 74.8028 60.146 75.3983 60.4824 76.1225C60.5467 76.2585 60.5467 76.2585 60.6123 76.3973C60.7518 76.6929 60.89 76.9892 61.0281 77.2854C61.1249 77.4915 61.2217 77.6976 61.3185 77.9036C62.0065 79.3712 62.6765 80.8462 63.3318 82.3287C63.4283 82.5239 63.4283 82.5239 63.5267 82.723C63.7059 83.1143 63.7845 83.4943 63.8658 83.9163C64.0782 84.7869 64.3345 85.4951 65.0389 86.0801C66.591 86.806 68.5461 86.8185 70.2252 86.9705C71.006 87.0439 71.7848 87.1353 72.5639 87.2246C73.17 87.2939 73.776 87.3603 74.3834 87.4179C74.551 87.4347 74.551 87.4347 74.7221 87.4519C74.9288 87.4725 75.1357 87.4918 75.3428 87.5093C76.1652 87.5942 76.898 87.8317 77.452 88.4732C77.8111 88.9809 77.9808 89.3107 77.9897 89.939C77.9931 90.0457 77.9965 90.1525 78 90.2624C77.829 91.3945 77.0285 92.0853 76.2472 92.8481C76.1265 92.9678 76.0059 93.0875 75.8855 93.2074C75.5696 93.5212 75.2523 93.8336 74.9346 94.1457C74.4273 94.6447 73.9222 95.1458 73.4169 95.6468C73.2418 95.82 73.0662 95.9927 72.8905 96.1653C72.3425 96.7062 71.8103 97.2509 71.3122 97.8383C70.9979 98.2028 70.659 98.5427 70.3193 98.8832C70.251 98.9531 70.1827 99.023 70.1123 99.095C69.9395 99.2686 69.7602 99.4355 69.5799 99.6012C69.501 99.6012 69.4221 99.6012 69.3409 99.6012C69.6079 101.546 69.9171 103.483 70.2371 105.419C70.3966 106.387 70.5555 107.355 70.7138 108.323C70.7713 108.673 70.8297 109.023 70.8883 109.372C70.9215 109.574 70.9546 109.775 70.9877 109.977C71.0028 110.064 71.0178 110.152 71.0333 110.243C71.1948 111.238 71.2356 112.133 70.6554 113.003C70.0021 113.621 69.4462 113.917 68.5445 113.901C67.697 113.772 66.9721 113.297 66.2339 112.883C65.9945 112.751 65.755 112.619 65.5155 112.487C64.9703 112.186 64.4263 111.883 63.8831 111.578C63.2831 111.242 62.6819 110.908 62.0794 110.576C62.0025 110.533 61.9256 110.491 61.8464 110.447C61.5466 110.282 61.2468 110.117 60.9467 109.952C60.7399 109.839 60.5332 109.725 60.3265 109.611C60.1958 109.54 60.065 109.468 59.9303 109.394C59.6654 109.244 59.4045 109.086 59.1473 108.923C59.0223 108.844 58.8972 108.765 58.7684 108.684C58.6582 108.611 58.5481 108.539 58.4346 108.464C58.1089 108.302 58.1089 108.302 57.7535 108.41C57.3808 108.58 57.0218 108.76 56.6636 108.959C56.5955 108.996 56.5274 109.034 56.4572 109.073C56.2353 109.195 56.0139 109.319 55.7925 109.443C55.6366 109.529 55.4808 109.616 55.3249 109.703C54.2472 110.303 53.1799 110.92 52.1166 111.545C51.2205 112.072 50.3194 112.589 49.4142 113.1C49.2867 113.172 49.1593 113.245 49.028 113.319C48.9096 113.386 48.7912 113.452 48.6692 113.521C48.5648 113.58 48.4604 113.639 48.3528 113.699C47.7675 113.991 47.1609 114.053 46.5163 113.96C45.8424 113.68 45.3824 113.229 44.9628 112.644C44.5512 111.407 44.9371 109.942 45.1486 108.686C45.1803 108.492 45.2118 108.297 45.2433 108.103C45.3258 107.596 45.4098 107.088 45.4941 106.581C45.6285 105.771 45.7608 104.961 45.893 104.151C45.9387 103.872 45.9851 103.593 46.0316 103.314C46.1033 102.882 46.1709 102.449 46.2364 102.016C46.2645 101.837 46.2942 101.657 46.3253 101.479C46.3729 101.204 46.4158 100.93 46.458 100.654C46.4735 100.572 46.489 100.489 46.5049 100.405C46.5528 100.066 46.5636 99.8025 46.3897 99.5024C46.1227 99.174 45.8288 98.9067 45.4977 98.6444C45.4001 98.5653 45.3024 98.4861 45.2018 98.4046C45.2018 98.3257 45.2018 98.2467 45.2018 98.1653C45.1229 98.1653 45.044 98.1653 44.9628 98.1653C44.7923 97.9921 44.7923 97.9921 44.5933 97.751C44.124 97.1988 43.6214 96.6894 43.1068 96.1798C42.9643 96.0378 42.9643 96.0378 42.819 95.893C42.5181 95.5932 42.2169 95.2938 41.9155 94.9944C41.5181 94.5997 41.121 94.2045 40.7242 93.8091C40.6345 93.7202 40.5447 93.6313 40.4522 93.5397C39.8986 92.9879 39.3762 92.4177 38.8683 91.8236C38.7815 91.726 38.7815 91.726 38.6931 91.6265C38.1795 91.0382 37.9781 90.5878 38.0019 89.795C38.0909 89.0649 38.4798 88.5032 38.9878 87.9946C39.5794 87.6977 40.1332 87.5582 40.7896 87.473C40.8833 87.4599 40.9771 87.4468 41.0737 87.4334C41.2773 87.4051 41.4809 87.3774 41.6847 87.3501C42.011 87.3058 42.3368 87.2587 42.6626 87.2111C43.7991 87.0473 44.9339 86.9041 46.0775 86.7997C46.6316 86.7481 47.1848 86.689 47.7381 86.6293C48.0074 86.6024 48.2771 86.5791 48.5471 86.5596C49.9501 86.5114 49.9501 86.5114 51.1359 85.875C51.4709 85.3578 51.6443 84.7953 51.8094 84.2056C51.9353 83.7889 52.1214 83.4098 52.3139 83.0205C52.383 82.8742 52.4517 82.7277 52.52 82.581C52.5544 82.5078 52.5887 82.4345 52.6241 82.359C52.9317 81.7 53.2333 81.0382 53.5355 80.3767C53.6175 80.1976 53.6995 80.0185 53.7816 79.8394C54.2095 78.9065 54.6342 77.9731 55.0335 77.0274C55.0918 76.8904 55.15 76.7535 55.2101 76.6123C55.3163 76.3608 55.4209 76.1087 55.5235 75.8557C55.8897 74.9899 56.2431 74.6027 57.0622 74.1295C57.7925 73.9101 58.4882 73.9659 59.1684 74.324Z" fill="#010100"/>
<path d="M57.8253 80.3159C58.2147 80.5114 58.3068 80.9527 58.4731 81.3393C58.5663 81.5515 58.6598 81.7637 58.7534 81.9757C58.8076 82.0986 58.8618 82.2215 58.9176 82.3481C59.264 83.1259 59.619 83.8996 59.9735 84.6736C60.1414 85.0402 60.3089 85.407 60.4765 85.7737C60.5579 85.9513 60.6397 86.1286 60.7219 86.3058C60.9292 86.7529 61.1306 87.2013 61.3223 87.6554C61.3614 87.7453 61.4006 87.8353 61.4409 87.9279C61.5144 88.0971 61.5859 88.2673 61.6548 88.4385C61.9361 89.0743 62.3164 89.3942 62.9496 89.6726C63.2717 89.7705 63.5886 89.8185 63.9222 89.8581C64.0161 89.8712 64.11 89.8842 64.2068 89.8976C64.4135 89.9261 64.6204 89.9536 64.8273 89.9802C65.1815 90.026 65.5351 90.0752 65.8888 90.1251C66.6702 90.2349 67.4521 90.3414 68.234 90.4475C68.6369 90.5022 69.0397 90.557 69.4425 90.612C69.6907 90.6459 69.9389 90.6796 70.1871 90.7132C70.2988 90.7284 70.4106 90.7437 70.5257 90.7594C70.6232 90.7726 70.7208 90.7858 70.8213 90.7994C71.1112 90.8436 71.3972 90.8992 71.6842 90.9592C71.1252 91.642 70.5134 92.2629 69.887 92.8827C69.703 93.0649 69.5195 93.2475 69.3362 93.4303C68.8154 93.9494 68.2941 94.468 67.7716 94.9854C67.4507 95.3033 67.1306 95.6221 66.811 95.9415C66.6897 96.0623 66.5681 96.1829 66.4462 96.3031C66.2756 96.4712 66.1062 96.6404 65.937 96.8099C65.8406 96.9056 65.7442 97.0013 65.6448 97.0999C65.0086 97.8445 64.9626 98.5116 65.0214 99.4576C65.1167 100.521 65.3135 101.574 65.4899 102.626C65.532 102.882 65.5739 103.139 65.6157 103.395C65.7161 104.009 65.8179 104.623 65.9204 105.236C65.9925 105.669 66.0642 106.101 66.1359 106.533C66.1995 106.917 66.2632 107.301 66.327 107.684C65.9016 107.55 65.5169 107.407 65.1314 107.182C65.0389 107.129 64.9463 107.075 64.851 107.02C64.752 106.962 64.653 106.904 64.551 106.844C64.446 106.783 64.3411 106.722 64.233 106.659C64.0047 106.526 63.7766 106.394 63.5486 106.26C63.1655 106.037 62.7817 105.815 62.3978 105.593C61.8875 105.298 61.3773 105.003 60.8674 104.707C60.7504 104.639 60.6335 104.571 60.513 104.501C60.2633 104.356 60.0143 104.209 59.7656 104.062C59.6407 103.988 59.5158 103.914 59.3871 103.838C59.2745 103.771 59.1619 103.704 59.0459 103.635C58.4935 103.327 57.9781 103.242 57.3595 103.357C56.8397 103.58 56.3573 103.856 55.8696 104.142C55.6019 104.299 55.3325 104.452 55.0625 104.605C54.2271 105.081 53.3955 105.562 52.5653 106.047C52.29 106.207 52.0145 106.368 51.7391 106.528C51.54 106.644 51.3413 106.761 51.1425 106.877C50.9592 106.984 50.9592 106.984 50.7721 107.093C50.6639 107.156 50.5556 107.22 50.4441 107.285C50.1539 107.442 49.8651 107.568 49.5566 107.684C49.6162 107.26 49.6772 106.836 49.7385 106.412C49.7583 106.276 49.7781 106.139 49.7985 105.998C49.9328 105.088 50.0793 104.18 50.2349 103.272C50.2533 103.164 50.2717 103.056 50.2907 102.945C50.3828 102.404 50.4761 101.864 50.5713 101.325C50.9956 99.3782 50.9956 99.3782 50.554 97.5138C50.131 96.9593 49.6218 96.4843 49.1198 96.0031C48.894 95.7848 48.6692 95.5656 48.4447 95.3461C48.2955 95.2025 48.2955 95.2025 48.1432 95.056C47.9261 94.8188 47.9261 94.8188 47.9261 94.5849C47.8516 94.5536 47.7772 94.5222 47.7005 94.4899C47.4603 94.351 47.4603 94.351 47.3438 94.0001C47.2669 94.0001 47.1901 94.0001 47.1109 94.0001C46.9464 93.8322 46.9464 93.8322 46.7538 93.5976C46.2825 93.041 45.7733 92.531 45.2548 92.0191C45.0763 91.8429 44.8981 91.6664 44.7202 91.4896C44.6036 91.3745 44.6036 91.3745 44.4846 91.2571C44.3158 91.0762 44.3158 91.0762 44.3158 90.9592C44.8495 90.8732 45.3833 90.7881 45.9171 90.7033C45.999 90.6903 46.0808 90.6773 46.1651 90.6639C47.1709 90.5043 48.1774 90.3533 49.1867 90.2177C49.3275 90.1987 49.3275 90.1987 49.4711 90.1793C49.9275 90.1177 50.3841 90.0574 50.8409 89.9988C52.4833 89.8101 52.4833 89.8101 53.8656 88.9709C54.0216 88.7029 54.1519 88.4518 54.2769 88.1705C54.3133 88.0917 54.3498 88.0129 54.3873 87.9318C54.506 87.6745 54.6226 87.4163 54.7391 87.158C54.8212 86.9789 54.9034 86.7999 54.9858 86.6209C55.1534 86.2563 55.3202 85.8913 55.4864 85.526C55.7107 85.0335 55.9382 84.5426 56.1671 84.0522C56.3001 83.7668 56.4331 83.4814 56.5661 83.196C56.6562 83.0028 56.6562 83.0028 56.748 82.8056C57.1283 81.984 57.4847 81.1549 57.8253 80.3159Z" fill="#FFBB4D"/>
<path d="M123.502 74.5095C124.187 75.1693 124.499 76.0547 124.873 76.9136C124.946 77.0802 125.02 77.2467 125.094 77.4132C125.245 77.7557 125.396 78.0984 125.547 78.4414C125.876 79.1916 126.209 79.94 126.542 80.6883C126.604 80.8278 126.666 80.9674 126.729 81.1111C127.075 81.8861 127.426 82.6578 127.785 83.4266C127.843 83.5515 127.843 83.5515 127.902 83.679C128.091 84.0833 128.28 84.4873 128.471 84.8908C128.539 85.0358 128.607 85.1807 128.675 85.3257C128.765 85.5165 128.765 85.5165 128.857 85.7112C128.985 86.0133 128.985 86.0133 128.985 86.2529C129.099 86.2586 129.212 86.2643 129.329 86.2701C130.56 86.3367 131.775 86.4679 132.997 86.6298C133.192 86.6553 133.387 86.6809 133.583 86.7064C133.988 86.7596 134.393 86.8134 134.798 86.8675C135.314 86.9363 135.83 87.003 136.347 87.0692C136.748 87.121 137.15 87.1744 137.551 87.2281C137.742 87.2533 137.932 87.278 138.122 87.3022C140.657 87.6246 140.657 87.6246 141.502 88.6496C141.901 89.2656 142.061 89.7054 141.979 90.447C141.718 91.6015 140.727 92.3665 139.915 93.1507C139.697 93.364 139.479 93.5777 139.262 93.7918C139.127 93.9239 138.992 94.0556 138.857 94.1867C138.513 94.5214 138.19 94.8645 137.879 95.2296C137.442 95.7387 136.965 96.1948 136.477 96.6539C136.294 96.8297 136.112 97.0057 135.929 97.1819C135.646 97.4559 135.361 97.7285 135.073 97.9974C133.989 98.9378 133.989 98.9378 133.284 100.148C133.309 100.535 133.405 100.86 133.515 101.232C133.57 101.536 133.616 101.841 133.662 102.147C133.716 102.5 133.775 102.851 133.835 103.203C133.965 103.967 134.094 104.732 134.221 105.497C134.243 105.624 134.264 105.752 134.286 105.883C134.458 106.914 134.628 107.945 134.788 108.978C134.825 109.214 134.863 109.451 134.901 109.687C135.283 112.185 135.283 112.185 134.819 113.043C134.395 113.602 133.979 113.876 133.295 113.992C132.16 114.065 131.366 113.648 130.416 113.095C130.213 112.98 130.009 112.866 129.805 112.752C129.341 112.49 128.877 112.226 128.414 111.961C127.544 111.462 126.671 110.971 125.795 110.483C125.183 110.139 124.575 109.79 123.975 109.426C123.804 109.324 123.804 109.324 123.63 109.219C123.416 109.09 123.203 108.96 122.992 108.827C122.897 108.77 122.802 108.713 122.703 108.654C122.621 108.603 122.539 108.552 122.454 108.5C121.877 108.329 121.307 108.734 120.807 109.005C120.681 109.074 120.555 109.142 120.425 109.212C120.292 109.285 120.16 109.358 120.023 109.433C119.885 109.508 119.748 109.583 119.606 109.66C118.588 110.215 117.584 110.792 116.584 111.38C116.117 111.655 115.645 111.918 115.168 112.176C114.848 112.35 114.53 112.526 114.212 112.704C114.105 112.763 113.999 112.822 113.889 112.884C113.676 113.003 113.462 113.122 113.249 113.241C113.15 113.296 113.051 113.351 112.949 113.408C112.861 113.457 112.773 113.507 112.681 113.558C111.916 113.952 111.203 114.102 110.359 113.856C109.753 113.587 109.392 113.199 109.078 112.616C108.642 111.3 109.108 109.679 109.324 108.347C109.361 108.11 109.399 107.874 109.436 107.637C109.629 106.415 109.831 105.194 110.039 103.974C110.058 103.858 110.078 103.743 110.098 103.623C110.192 103.069 110.286 102.515 110.384 101.962C110.418 101.762 110.452 101.563 110.486 101.363C110.502 101.273 110.518 101.183 110.535 101.091C110.615 100.618 110.645 100.253 110.508 99.7939C110.318 99.5183 110.318 99.5183 110.063 99.2564C109.965 99.1518 109.868 99.0472 109.768 98.9394C109.21 98.3623 108.647 97.7918 108.078 97.2259C107.856 97.0045 107.634 96.7826 107.412 96.5606C106.782 95.9304 106.152 95.3009 105.521 94.6719C105.133 94.2848 104.745 93.8972 104.358 93.5093C104.211 93.3625 104.064 93.2159 103.917 93.0695C103.711 92.8652 103.506 92.6601 103.302 92.4548C103.241 92.3954 103.181 92.336 103.119 92.2748C102.491 91.6419 102.037 91.0425 102 90.1325C102.009 89.4529 102.204 88.9301 102.641 88.4099C103.189 87.934 103.654 87.7241 104.381 87.6151C104.468 87.6015 104.555 87.588 104.644 87.574C104.93 87.5303 105.216 87.4905 105.502 87.4513C105.6 87.4373 105.698 87.4234 105.8 87.4091C106.438 87.3189 107.077 87.2346 107.716 87.1519C108.066 87.1056 108.415 87.0565 108.765 87.0066C109.865 86.8516 110.952 86.7169 112.062 86.6705C113.769 86.6284 113.769 86.6284 115.211 85.8423C115.694 85.1252 115.972 84.3351 116.228 83.5139C116.496 82.6549 116.871 81.8554 117.253 81.0429C117.447 80.6295 117.634 80.2133 117.821 79.797C117.857 79.7158 117.894 79.6346 117.931 79.5509C118.18 78.9978 118.425 78.443 118.667 77.8872C118.7 77.813 118.732 77.7388 118.765 77.6624C118.917 77.3158 119.068 76.969 119.217 76.6215C120.09 74.6197 120.09 74.6197 121.118 74.15C121.94 73.84 122.788 74.0351 123.502 74.5095Z" fill="#010100"/>
<path d="M122 80C122.403 80.3297 122.576 80.7775 122.784 81.2416C122.825 81.3301 122.865 81.4186 122.907 81.5098C123.039 81.7998 123.17 82.0903 123.301 82.3809C123.392 82.5814 123.484 82.7818 123.575 82.9823C124.011 83.9436 124.44 84.9078 124.856 85.8781C124.892 85.9608 124.927 86.0435 124.964 86.1287C125.13 86.5159 125.294 86.9036 125.457 87.2921C125.944 88.6016 125.944 88.6016 127 89.4088C127.546 89.5835 128.114 89.6477 128.68 89.7264C128.817 89.7464 128.954 89.7663 129.095 89.7869C129.532 89.8505 129.969 89.9124 130.406 89.9742C130.837 90.0363 131.267 90.0986 131.698 90.161C131.978 90.2015 132.258 90.2418 132.538 90.282C133.694 90.4484 134.847 90.6278 136 90.8155C135.55 91.3552 135.087 91.8689 134.587 92.3622C134.524 92.4254 134.46 92.4886 134.395 92.5537C134.128 92.82 133.86 93.0855 133.592 93.3511C132.92 94.0192 132.255 94.6837 131.641 95.4077C131.243 95.8617 130.8 96.2736 130.364 96.6902C129.676 97.3644 129.324 98.0091 129.285 98.9853C129.288 99.5878 129.396 100.174 129.496 100.766C129.516 100.891 129.537 101.016 129.558 101.144C129.623 101.542 129.689 101.939 129.755 102.337C129.798 102.599 129.842 102.862 129.885 103.125C130.119 104.553 130.119 104.553 130.368 105.979C130.385 106.073 130.402 106.167 130.419 106.264C130.464 106.509 130.509 106.754 130.554 107C130.607 107.342 130.628 107.655 130.615 108C130.21 107.845 129.835 107.669 129.458 107.454C129.35 107.393 129.243 107.331 129.132 107.268C129.017 107.203 128.902 107.137 128.783 107.069C128.663 107 128.543 106.932 128.419 106.861C127.296 106.219 126.18 105.566 125.065 104.91C124.956 104.846 124.847 104.782 124.735 104.717C124.491 104.573 124.249 104.428 124.006 104.283C123.879 104.207 123.752 104.13 123.621 104.052C123.505 103.983 123.39 103.913 123.271 103.842C122.711 103.542 122.151 103.468 121.521 103.554C121.153 103.686 120.822 103.87 120.482 104.064C120.384 104.118 120.285 104.172 120.184 104.228C119.871 104.402 119.559 104.578 119.248 104.755C119.149 104.811 119.05 104.867 118.948 104.925C117.997 105.462 117.053 106.011 116.11 106.563C115.823 106.731 115.536 106.898 115.249 107.065C115.04 107.187 114.832 107.31 114.623 107.432C114.497 107.506 114.37 107.58 114.24 107.656C114.126 107.723 114.013 107.789 113.897 107.857C113.624 108 113.624 108 113.385 108C113.585 106.465 113.832 104.942 114.103 103.418C114.134 103.24 114.166 103.061 114.197 102.883C114.44 101.512 114.44 101.512 114.531 101.001C114.587 100.688 114.64 100.375 114.693 100.061C114.709 99.9771 114.724 99.893 114.74 99.8064C114.906 98.7926 114.804 98.0944 114.224 97.2533C113.737 96.6286 113.167 96.0834 112.604 95.5284C112.471 95.3956 112.338 95.2628 112.205 95.1298C111.857 94.7829 111.509 94.4371 111.16 94.0916C110.599 93.5355 110.04 92.9779 109.481 92.4202C109.285 92.2256 109.09 92.0316 108.894 91.8376C108.775 91.7196 108.656 91.6017 108.538 91.4837C108.434 91.3805 108.33 91.2772 108.222 91.1709C108 90.9356 108 90.9356 108 90.8155C108.404 90.7489 108.808 90.6843 109.212 90.6202C109.344 90.5991 109.477 90.578 109.613 90.5563C110.577 90.4073 111.542 90.2785 112.51 90.1592C112.757 90.1283 113.004 90.0974 113.252 90.0665C113.624 90.0202 113.996 89.9745 114.368 89.9308C114.721 89.8893 115.074 89.8455 115.427 89.8015C115.533 89.7897 115.638 89.778 115.747 89.7658C116.522 89.6664 117.194 89.4628 117.793 88.9408C118.37 88.1336 118.747 87.2288 119.143 86.324C119.222 86.1476 119.3 85.9711 119.379 85.7948C119.498 85.5264 119.618 85.2581 119.737 84.9895C120.112 84.1437 120.498 83.3033 120.886 82.4635C121.264 81.6451 121.638 80.8258 122 80Z" fill="#FFBB4D"/>
<path d="M92.408 0.778863C93.2655 1.43604 93.7661 2.41142 93.9146 3.47759C94.0011 4.63569 93.628 5.69932 92.8925 6.58911C92.5728 6.9278 92.1995 7.19897 91.7857 7.41291C91.7218 7.41291 91.6579 7.41291 91.5921 7.41291C91.924 7.93804 92.2651 8.45617 92.6138 8.97031C92.6531 9.02832 92.6924 9.08634 92.7329 9.14611C92.896 9.38652 93.0592 9.62686 93.2227 9.86698C93.7296 10.6119 94.2192 11.3628 94.683 12.1352C94.8259 12.3715 94.9753 12.6036 95.1242 12.8361C96.5841 15.1346 97.9352 17.5137 99.2614 19.891C99.4975 20.3139 99.7371 20.7346 99.9789 21.1543C100.189 21.0628 100.322 20.9527 100.479 20.7874C100.731 20.529 100.995 20.2918 101.269 20.0576C101.417 19.9313 101.565 19.8049 101.713 19.6785C101.752 19.645 101.791 19.6115 101.832 19.577C102.06 19.3815 102.285 19.1833 102.507 18.981C102.803 18.7127 103.11 18.4601 103.42 18.2089C103.586 18.0741 103.751 17.9381 103.915 17.8021C104.151 17.6074 104.388 17.4132 104.624 17.219C104.668 17.183 104.711 17.147 104.756 17.1099C105.277 16.6818 105.804 16.2642 106.342 15.8571C106.71 15.5767 107.071 15.2871 107.428 14.9925C107.713 14.7584 108.005 14.5349 108.301 14.3159C108.264 14.2704 108.264 14.2704 108.225 14.224C107.444 13.2639 107.086 12.0587 107.204 10.8321C107.382 9.79331 107.993 8.88786 108.809 8.23143C109.709 7.59711 110.716 7.50301 111.785 7.60646C112.809 7.80515 113.827 8.50185 114.418 9.35235C114.965 10.2907 115.137 11.4037 114.889 12.4676C114.609 13.4555 113.96 14.3161 113.075 14.832C112.692 15.0191 112.336 15.1531 111.914 15.219C111.916 15.2712 111.917 15.3233 111.919 15.3769C111.933 16.2704 111.855 17.1573 111.784 18.0472C111.773 18.184 111.762 18.3207 111.751 18.4575C111.625 20.0483 111.474 21.6357 111.303 23.2223C111.265 23.5711 111.23 23.9201 111.194 24.2692C111.133 24.8673 111.07 25.4653 111.005 26.0631C110.979 26.3098 110.952 26.5565 110.926 26.8032C110.919 26.8663 110.912 26.9293 110.906 26.9942C110.783 28.137 110.668 29.2804 110.555 30.4241C110.449 31.4972 110.341 32.57 110.22 33.6417C110.213 33.7113 110.213 33.7113 110.205 33.7824C110.165 34.1351 110.125 34.4878 110.084 34.8405C110.046 35.1812 110.01 35.5219 109.978 35.8634C109.971 35.9279 109.965 35.9924 109.957 36.0589C109.932 36.4452 110.038 36.6392 110.267 36.9467C110.795 37.7074 110.635 38.8551 110.637 39.7339C110.637 39.7985 110.637 39.8631 110.637 39.9296C110.638 40.271 110.639 40.6124 110.639 40.9538C110.639 41.3044 110.641 41.6549 110.643 42.0055C110.644 42.2771 110.644 42.5487 110.644 42.8203C110.645 42.9495 110.645 43.0787 110.646 43.2078C110.656 44.9101 110.656 44.9101 110.253 45.3952C106.826 48.3361 99.4012 48.0811 95.1336 48.2545C95.0303 48.2587 95.0303 48.2587 94.925 48.263C93.4558 48.3214 91.9877 48.3344 90.5174 48.3313C90.173 48.3305 89.8286 48.331 89.4842 48.3317C75.7923 48.3566 75.7923 48.3566 69.8423 45.4703C69.1781 44.7881 69.3157 43.638 69.3178 42.7567C69.3178 42.6313 69.3176 42.5058 69.3175 42.3803C69.3173 42.1184 69.3176 41.8566 69.3182 41.5947C69.3189 41.2614 69.3185 40.9281 69.3177 40.5948C69.3172 40.336 69.3174 40.0772 69.3177 39.8184C69.3178 39.6956 69.3177 39.5728 69.3174 39.45C69.3133 37.3108 69.3133 37.3108 69.8885 36.6493C70.002 36.4748 69.9979 36.3909 69.9821 36.1852C69.9774 36.1181 69.9726 36.051 69.9677 35.9819C69.9579 35.8693 69.9579 35.8693 69.9479 35.7545C69.9383 35.6321 69.9383 35.6321 69.9285 35.5072C69.8561 34.6053 69.7587 33.7053 69.6644 32.8055C69.5798 31.9955 69.5002 31.1852 69.426 30.3742C69.4217 30.3272 69.4174 30.2803 69.4129 30.232C69.3702 29.7655 69.3279 29.299 69.2861 28.8325C69.2742 28.7002 69.2622 28.568 69.2502 28.4358C69.2356 28.2743 69.2211 28.1128 69.2068 27.9513C69.1645 27.4856 69.1078 27.0234 69.0443 26.56C68.9909 26.1505 68.9516 25.7396 68.9124 25.3285C68.9033 25.2347 68.8942 25.1408 68.8852 25.047C68.861 24.7961 68.8372 24.5451 68.8135 24.2942C68.7986 24.1368 68.7837 23.9795 68.7687 23.8221C68.5681 21.7033 68.4045 19.5825 68.2553 17.4595C68.2374 17.2076 68.2192 16.9557 68.2009 16.7038C68.1948 16.6206 68.1888 16.5374 68.1826 16.4517C68.1711 16.2934 68.1595 16.1352 68.1479 15.9769C68.1428 15.9065 68.1377 15.836 68.1325 15.7635C68.128 15.7017 68.1235 15.64 68.1188 15.5763C68.1106 15.4359 68.1092 15.2952 68.1092 15.1545C68.0294 15.1519 67.9496 15.1492 67.8673 15.1465C67.067 15.0559 66.3297 14.4825 65.8271 13.8786C65.39 13.2808 65.0464 12.5475 65.0126 11.7998C65.0076 11.7217 65.0076 11.7217 65.0025 11.6421C64.9626 10.5004 65.4033 9.47052 66.1738 8.63867C66.8197 7.94637 67.7351 7.60266 68.6631 7.52178C69.7315 7.48594 70.6833 7.78477 71.5042 8.47739C72.2794 9.21709 72.7666 10.2049 72.8348 11.2797C72.8193 12.3053 72.4584 13.3623 71.7406 14.108C71.7132 14.134 71.6857 14.16 71.6575 14.1868C71.7283 14.3993 71.766 14.4314 71.9387 14.5601C71.9837 14.594 72.0286 14.6279 72.075 14.6628C72.1235 14.6987 72.172 14.7345 72.222 14.7715C72.3228 14.8472 72.4236 14.923 72.5244 14.9988C72.5744 15.0362 72.6245 15.0736 72.6761 15.1121C72.8701 15.2576 73.0623 15.4054 73.2542 15.5537C73.4555 15.7089 73.657 15.8639 73.8592 16.0179C74.385 16.4187 74.899 16.8329 75.4106 17.2517C75.5142 17.3365 75.6181 17.421 75.7221 17.5055C76.3527 18.0186 76.9745 18.5406 77.5763 19.0873C77.7068 19.2054 77.8387 19.3214 77.9717 19.4366C78.253 19.6818 78.5278 19.9341 78.8021 20.1871C78.9499 20.3234 79.0988 20.4586 79.2481 20.5933C79.3253 20.6634 79.4025 20.7334 79.4797 20.8035C79.5167 20.8366 79.5537 20.8696 79.5918 20.9037C79.6805 20.9846 79.766 21.0692 79.8507 21.1543C79.8507 21.1969 79.8507 21.2394 79.8507 21.2833C80.0253 21.1275 80.1226 20.9625 80.2312 20.7561C80.267 20.6887 80.3028 20.6213 80.3397 20.5518C80.3779 20.4792 80.4161 20.4066 80.4555 20.3317C80.5371 20.1784 80.6188 20.025 80.7007 19.8718C80.7317 19.8137 80.7317 19.8137 80.7634 19.7543C81.0597 19.2006 81.3719 18.6559 81.6829 18.1104C81.7863 17.9283 81.8887 17.7457 81.991 17.563C82.4315 16.7762 82.8876 16.0002 83.3538 15.2284C83.5446 14.9124 83.7326 14.5948 83.9193 14.2764C84.3018 13.6244 84.6969 12.9821 85.1043 12.3453C85.2104 12.1789 85.3155 12.012 85.4205 11.8449C86.2002 10.6069 87.0314 9.40588 87.873 8.20938C88.0594 7.94417 88.2452 7.67853 88.431 7.41291C88.3809 7.40373 88.3308 7.39454 88.2792 7.38507C87.6884 7.25824 87.1443 6.76152 86.8104 6.27561C86.1922 5.30764 85.9365 4.23475 86.1503 3.09152C86.3964 2.07785 86.9195 1.14892 87.8269 0.594143C89.3135 -0.22656 90.9912 -0.226422 92.408 0.778863Z" fill="black"/>
<path d="M89.9793 8.38086C90.225 8.6052 90.3996 8.86068 90.5841 9.13486C90.6369 9.21272 90.6369 9.21272 90.6907 9.29214C90.8195 9.48272 90.9478 9.67369 91.076 9.86467C91.1308 9.94602 91.1856 10.0274 91.2404 10.1087C91.9591 11.1761 92.6703 12.2457 93.334 13.3484C93.3699 13.4077 93.4057 13.4671 93.4427 13.5282C94.0682 14.5634 94.6846 15.6041 95.3014 16.6445C95.4676 16.9249 95.6342 17.2052 95.8009 17.4853C96.5758 18.7884 97.3434 20.0943 98.0613 21.4298C98.3006 21.8744 98.5443 22.3161 98.7934 22.7553C98.8255 22.8123 98.8576 22.8693 98.8906 22.9281C98.9206 22.9806 98.9506 23.0331 98.9814 23.0872C99.0206 23.156 99.0206 23.156 99.0605 23.2262C99.1418 23.3504 99.2204 23.4456 99.3337 23.5415C99.5072 23.5796 99.5072 23.5796 99.7007 23.5778C99.7648 23.5806 99.8289 23.5833 99.895 23.5861C100.522 23.4547 100.983 22.805 101.412 22.3641C101.787 21.9786 102.17 21.6198 102.591 21.2841C102.809 21.1099 103.019 20.9272 103.229 20.7433C103.635 20.3893 104.045 20.0399 104.457 19.6928C104.56 19.6054 104.663 19.5174 104.766 19.4293C105.154 19.0978 105.547 18.7756 105.95 18.4622C106.244 18.2333 106.533 17.9992 106.821 17.7635C109.784 15.3483 109.784 15.3483 110.107 15.3483C110.134 16.2715 110.054 17.1832 109.974 18.1022C109.964 18.229 109.953 18.3557 109.942 18.4825C109.77 20.5147 109.56 22.5432 109.347 24.5715C109.334 24.7003 109.32 24.8291 109.307 24.9578C109.233 25.6643 109.158 26.3707 109.084 27.0771C108.982 28.0341 108.883 28.9912 108.785 29.9485C108.779 30.011 108.772 30.0734 108.766 30.1377C108.687 30.905 108.611 31.6724 108.535 32.44C108.509 32.7058 108.483 32.9717 108.457 33.2375C108.427 33.5364 108.398 33.8353 108.369 34.1342C108.354 34.2918 108.338 34.4495 108.323 34.6071C108.316 34.6781 108.309 34.749 108.302 34.8221C108.258 35.2602 108.193 35.6898 108.108 36.1217C105.064 36.8403 101.951 37.2088 98.8388 37.464C98.7053 37.4751 98.5719 37.4864 98.4385 37.4978C97.9464 37.5395 97.4543 37.572 96.9611 37.5979C96.8614 37.6032 96.7617 37.6085 96.6619 37.614C94.5097 37.7319 92.3585 37.7467 90.2037 37.7466C90.0632 37.7466 89.9228 37.7466 89.7823 37.7467C88.0836 37.7474 86.3868 37.7371 84.6892 37.67C84.6167 37.6671 84.5442 37.6643 84.4694 37.6613C84.0008 37.6423 83.5325 37.6193 83.0643 37.5934C82.9929 37.5894 82.9215 37.5855 82.8479 37.5814C79.9845 37.4194 77.1247 37.1579 74.3025 36.6378C74.2186 36.6223 74.2186 36.6223 74.133 36.6066C72.1314 36.2366 72.1314 36.2366 71.7865 36.1217C71.7814 36.0663 71.7763 36.011 71.7711 35.954C71.722 35.4202 71.6727 34.8865 71.6232 34.3527C71.5978 34.0787 71.5725 33.8046 71.5473 33.5305C71.4351 32.3087 71.3165 31.0882 71.1824 29.8686C71.0934 29.0587 71.0136 28.2484 70.9438 27.4365C70.8811 26.7102 70.8117 25.9855 70.7283 25.2612C70.6012 24.1471 70.5088 23.03 70.4139 21.9128C70.3948 21.6884 70.3755 21.464 70.3561 21.2396C70.2614 20.139 70.1684 19.0381 70.0782 17.9371C70.0699 17.8359 70.0616 17.7348 70.0532 17.6337C69.9904 16.8725 69.9419 16.1116 69.9156 15.3483C70.2519 15.5317 70.5551 15.7368 70.8591 15.9693C70.9041 16.0033 70.949 16.0374 70.9953 16.0724C71.1302 16.1748 71.2649 16.2776 71.3994 16.3805C71.4373 16.4094 71.4751 16.4382 71.5141 16.4679C72.0226 16.8557 72.5257 17.2503 73.0279 17.6461C73.1394 17.7338 73.251 17.8212 73.3628 17.9084C74.5059 18.8017 75.6153 19.7277 76.6895 20.7029C77.1344 21.1051 77.1344 21.1051 77.5846 21.5013C78.1852 22.0264 78.7589 22.5714 79.3181 23.1403C79.3814 23.2044 79.3814 23.2044 79.446 23.2699C79.5024 23.3274 79.5024 23.3274 79.56 23.3862C79.7552 23.5688 79.9332 23.56 80.1934 23.5698C80.2663 23.5737 80.3393 23.5776 80.4144 23.5816C80.6475 23.5372 80.7272 23.4741 80.8654 23.2841C81.0411 23.0064 81.201 22.7209 81.3587 22.4327C81.3978 22.3621 81.4368 22.2915 81.4771 22.2188C81.5599 22.0692 81.6426 21.9195 81.725 21.7696C81.9284 21.4 82.1336 21.0314 82.3385 20.6626C82.3992 20.5533 82.3992 20.5533 82.4612 20.4417C83.0777 19.3322 83.7038 18.2301 84.3533 17.1395C84.6299 16.6749 84.9034 16.2085 85.176 15.7416C85.6367 14.9529 86.105 14.1694 86.5835 13.3914C86.6864 13.2238 86.7886 13.0558 86.8907 12.8877C87.8369 11.3367 88.8399 9.79786 89.9793 8.38086Z" fill="#F8E482"/>
<path d="M71.2059 37.8633C71.7539 37.9062 72.289 38.0016 72.829 38.0999C75.1562 38.5215 77.4951 38.8736 79.8507 39.0891C79.8991 39.0935 79.9476 39.098 79.9975 39.1026C83.2244 39.3991 86.4564 39.4333 89.6942 39.4282C90.0422 39.4277 90.3902 39.4279 90.7382 39.4285C92.8521 39.4317 94.962 39.4304 97.0728 39.2986C97.4136 39.2774 97.7546 39.26 98.0956 39.2425C100.999 39.0818 103.883 38.6334 106.747 38.1468C106.789 38.1396 106.832 38.1324 106.876 38.1249C107.106 38.0856 107.336 38.0448 107.565 38.0025C107.614 37.9935 107.664 37.9846 107.714 37.9753C107.808 37.9581 107.902 37.9407 107.996 37.9229C108.251 37.8763 108.493 37.8487 108.753 37.8633C108.877 37.9873 108.825 38.1722 108.825 38.3371C108.825 38.396 108.825 38.4549 108.825 38.5155C108.825 38.5772 108.825 38.6389 108.825 38.7024C108.825 38.9073 108.824 39.1122 108.824 39.3171C108.823 39.4588 108.823 39.6004 108.823 39.7421C108.823 40.1158 108.822 40.4894 108.822 40.863C108.821 41.244 108.821 41.625 108.82 42.0059C108.82 42.754 108.819 43.5021 108.817 44.2501C108.734 44.2919 108.651 44.3336 108.569 44.3753C108.522 44.3985 108.476 44.4217 108.429 44.4456C105.034 46.1118 100.468 46.144 96.7774 46.363C96.7134 46.3668 96.6493 46.3706 96.5833 46.3746C94.5036 46.4961 92.4249 46.5214 90.3422 46.5202C90.2805 46.5202 90.2189 46.5202 90.1553 46.5202C87.9653 46.5198 85.7803 46.4869 83.5925 46.3791C83.5242 46.3758 83.4559 46.3725 83.3856 46.3691C74.4743 45.9377 74.4743 45.9377 71.1414 44.2501C71.1399 43.4365 71.1387 42.6228 71.138 41.8091C71.1377 41.4313 71.1372 41.0535 71.1365 40.6757C71.1358 40.3114 71.1354 39.947 71.1353 39.5827C71.1351 39.4434 71.1349 39.3042 71.1346 39.1649C71.1341 38.9704 71.134 38.7759 71.134 38.5814C71.1338 38.5234 71.1336 38.4653 71.1333 38.4055C71.134 38.0071 71.134 38.0071 71.2059 37.8633Z" fill="#F8E482"/>
<path d="M91.6055 23.1636C93.0318 24.1112 93.652 25.4379 94.0316 27.0548C94.3475 28.7618 94.0267 30.6928 93.1405 32.1862C92.9793 32.4117 92.8059 32.622 92.6244 32.8313C92.584 32.8844 92.5437 32.9376 92.5022 32.9923C92.026 33.5586 91.2896 33.9858 90.5599 34.1216C89.4439 34.199 88.609 33.9354 87.7435 33.2022C86.5061 32.0412 85.9625 30.3156 85.8983 28.6551C85.8575 27.023 86.1444 25.2299 87.3 23.9894C88.4869 22.7742 90.0591 22.2599 91.6055 23.1636Z" fill="black"/>
<path d="M90.3732 24.4776C91.0506 24.7625 91.5742 25.465 91.8502 26.1217C92.332 27.386 92.5231 29.0958 91.9792 30.3796C91.9616 30.4218 91.9439 30.464 91.9257 30.5075C91.5944 31.2808 91.1592 31.928 90.4309 32.3795C90.0811 32.4961 89.7255 32.508 89.3906 32.3472C89.2988 32.2674 89.2988 32.2674 89.2052 32.186C89.1656 32.1536 89.126 32.1213 89.0852 32.0879C88.3896 31.4691 88.0756 30.548 87.8504 29.6699C87.8298 29.5902 87.8091 29.5104 87.7879 29.4283C87.4927 28.1369 87.6406 26.7468 88.3237 25.5884C88.8408 24.8627 89.429 24.2464 90.3732 24.4776Z" fill="#7D5232"/>
<path d="M90.947 1.99385C91.5201 2.30242 91.822 2.79564 92.017 3.40155C92.1444 4.07196 92.0707 4.66185 91.6952 5.22658C91.3605 5.66201 90.8417 5.95365 90.3019 6.05819C89.6909 6.11275 89.0826 5.91888 88.6084 5.52671C88.1305 5.04557 87.9795 4.54344 87.9512 3.88086C87.9596 3.31779 88.1453 2.89539 88.435 2.42125C89.16 1.77344 90.057 1.62969 90.947 1.99385Z" fill="#F8E482"/>
<path d="M111.971 9.5273C112.581 9.88009 112.921 10.3692 113.14 11.0257C113.189 11.5856 113.152 12.1514 112.822 12.6217C112.438 13.0687 111.958 13.4887 111.351 13.5634C110.595 13.5736 110.012 13.3567 109.462 12.8321C109.011 12.2769 109.008 11.5789 109.075 10.8967C109.196 10.3724 109.566 9.96958 109.982 9.64676C110.552 9.33151 111.359 9.27971 111.971 9.5273Z" fill="#F8E482"/>
<path d="M70.0447 9.67118C70.5174 10.0021 70.8343 10.3893 70.9479 10.9615C71.0048 11.6421 70.9227 12.2374 70.4963 12.788C70.1204 13.1843 69.5614 13.4485 69.0177 13.4928C68.3289 13.5085 67.8924 13.3624 67.3863 12.8926C66.93 12.4005 66.8469 11.9407 66.8616 11.2817C66.909 10.7281 67.1447 10.2465 67.5266 9.84456C68.2866 9.21322 69.2023 9.19723 70.0447 9.67118Z" fill="#F8E482"/>
</svg>
