<svg width="350" height="350" viewBox="0 0 350 350" fill="none" xmlns="http://www.w3.org/2000/svg">
<path d="M175.341 69.7804C178.641 72.452 181.008 76.6833 181.594 80.8918C181.807 83.5727 181.834 86.3129 180.911 88.8692C181.284 88.882 181.284 88.882 181.666 88.895C186.522 89.0893 191.231 89.7825 195.954 90.9205C196.267 90.994 196.267 90.994 196.586 91.069C202.38 92.4399 207.942 94.4321 213.276 97.0746C213.484 97.1771 213.692 97.2796 213.906 97.3853C218.333 99.5878 222.423 102.171 226.268 105.28C226.406 105.391 226.544 105.503 226.687 105.618C229.81 108.161 232.679 110.993 235.157 114.169C235.508 114.592 235.859 115.015 236.211 115.437C238.952 118.806 241.057 122.602 242.93 126.51C243.123 126.91 243.322 127.306 243.521 127.703C246.722 134.246 248.691 141.397 250.038 148.533C250.638 151.66 251.4 154.628 252.447 157.628C253.223 159.853 253.801 161.971 254.075 164.313C254.115 164.579 254.156 164.846 254.197 165.12C255.33 174.373 252.678 183.824 247.009 191.208C243.732 195.379 239.925 198.726 235.385 201.465C235.24 201.552 235.095 201.64 234.946 201.73C232.342 203.288 232.342 203.288 231.51 203.288C231.51 203.439 231.51 203.589 231.51 203.744C231.675 203.801 231.84 203.858 232.01 203.917C233.088 204.393 233.909 205.19 234.8 205.95C235.148 206.243 235.501 206.531 235.853 206.818C237.651 208.297 239.311 209.906 240.955 211.55C241.117 211.712 241.117 211.712 241.281 211.876C242.428 213.024 243.547 214.184 244.604 215.415C245.151 216.047 245.725 216.653 246.297 217.263C247.306 218.348 248.271 219.457 249.198 220.613C249.605 221.121 250.017 221.624 250.434 222.125C254.047 226.485 257.151 230.906 258.933 236.321C259.063 236.713 259.2 237.102 259.34 237.491C260.282 240.508 260.294 244.663 258.861 247.506C258.782 247.667 258.702 247.827 258.619 247.993C256.8 251.207 254.094 252.998 250.656 254.116C245.166 255.382 239.132 253.662 234.245 251.153C234.321 251.303 234.396 251.454 234.473 251.608C236.224 262.851 235.655 274.748 228.744 284.21C223.808 290.749 216.937 294.362 209.401 297.194C209.401 300.428 209.401 303.662 209.401 306.995C210.078 307.145 210.755 307.295 211.453 307.45C212.479 307.766 213.49 308.122 214.501 308.481C214.969 308.646 215.438 308.807 215.907 308.968C218.724 309.953 220.977 311.019 222.593 313.604C223.252 315.34 223.121 317.804 222.432 319.517C221.43 321.282 220.052 322.5 218.104 323.071C217.562 323.187 217.073 323.207 216.519 323.208C216.312 323.208 216.105 323.208 215.892 323.208C215.678 323.208 215.463 323.207 215.242 323.206C214.923 323.207 214.923 323.207 214.597 323.208C213.524 323.207 212.509 323.172 211.453 322.949C211.463 323.107 211.474 323.264 211.485 323.426C211.568 325.587 211.029 327.155 209.564 328.761C208.267 329.898 206.707 330.328 205.015 330.306C203.244 330.128 201.529 329.224 200.284 327.964C199.491 326.885 198.816 325.75 198.233 324.545C198.09 324.638 197.946 324.732 197.799 324.828C195.641 326.186 193.744 326.704 191.167 326.368C189.483 325.807 187.972 324.97 187.065 323.405C186.04 321.339 185.791 319.365 186.481 317.152C187.372 314.95 188.988 313.203 190.679 311.577C191.304 310.963 191.873 310.311 192.441 309.645C192.689 309.359 192.951 309.085 193.219 308.818C193.275 308.214 193.304 307.633 193.313 307.028C193.318 306.852 193.322 306.676 193.326 306.494C193.34 305.929 193.351 305.365 193.361 304.801C193.37 304.419 193.379 304.036 193.388 303.654C193.41 302.716 193.429 301.778 193.447 300.841C193.282 300.869 193.117 300.898 192.947 300.927C187.261 301.898 181.693 302.084 175.942 302.054C175.157 302.051 174.371 302.052 173.586 302.053C169.551 302.057 165.547 302.035 161.537 301.524C161.264 301.491 160.99 301.457 160.709 301.423C160.081 301.341 159.456 301.251 158.83 301.154C158.522 301.108 158.522 301.108 158.207 301.061C157.721 300.989 157.236 300.915 156.751 300.841C156.711 301.911 156.682 302.981 156.663 304.051C156.655 304.415 156.644 304.778 156.63 305.142C156.469 307.581 156.469 307.581 157.501 309.699C157.775 309.946 158.057 310.185 158.346 310.413C160.996 312.933 163.785 315.841 163.93 319.701C163.832 321.577 163.241 323.39 161.821 324.68C160.035 326.106 158.496 326.514 156.206 326.464C154.377 326.251 152.742 325.413 151.28 324.317C151.266 324.592 151.266 324.592 151.252 324.873C150.791 326.75 149.432 328.253 147.861 329.331C146.188 330.259 144.575 330.565 142.709 330.093C140.943 329.476 139.745 328.452 138.873 326.796C138.337 325.481 138.439 324.116 138.516 322.721C138.353 322.795 138.19 322.869 138.021 322.945C136.963 323.326 135.912 323.252 134.798 323.249C134.569 323.252 134.339 323.256 134.103 323.26C131.84 323.261 130.382 322.733 128.712 321.17C127.195 319.495 126.992 317.578 127.044 315.39C127.22 313.359 128.221 312.145 129.719 310.848C130.697 310.131 131.748 309.759 132.89 309.374C133.125 309.29 133.361 309.206 133.604 309.119C134.329 308.862 135.055 308.612 135.781 308.362C136.238 308.201 136.695 308.04 137.152 307.878C138.212 307.502 139.276 307.134 140.34 306.767C140.49 303.608 140.641 300.449 140.796 297.194C139.724 296.799 139.724 296.799 138.63 296.396C136.461 295.58 134.408 294.634 132.362 293.547C132.141 293.435 131.921 293.324 131.693 293.209C124.383 289.426 119.028 282.665 116.413 274.926C114.025 267.216 114.63 259.036 115.724 251.153C115.608 251.202 115.493 251.251 115.374 251.302C109.913 253.613 103.672 255.734 97.8281 253.541C94.8228 252.267 92.0866 250.141 90.8309 247.053C89.0115 241.854 90.4221 236.7 92.7273 231.895C93.8107 229.731 95.1141 227.774 96.578 225.853C96.6736 225.726 96.7691 225.599 96.8676 225.468C98.1711 223.738 99.5192 222.045 100.909 220.383C101.056 220.206 101.056 220.206 101.205 220.026C103.838 216.874 106.673 213.918 109.57 211.009C109.747 210.831 109.924 210.653 110.106 210.469C111.182 209.396 112.29 208.378 113.445 207.391C113.699 207.169 113.953 206.948 114.207 206.727C115.493 205.617 116.748 204.587 118.231 203.744C117.565 203.205 116.857 202.794 116.105 202.387C113.321 200.88 110.84 199.143 108.533 196.974C108.049 196.521 107.556 196.092 107.048 195.667C100.502 189.934 96.3196 180.656 95.7215 172.047C95.4983 167.941 95.6002 163.855 96.6208 159.854C96.6795 159.621 96.6795 159.621 96.7393 159.383C96.982 158.502 97.2764 157.655 97.6256 156.811C98.5886 154.476 99.2224 152.219 99.6656 149.733C99.8444 148.735 100.038 147.739 100.231 146.744C100.269 146.548 100.307 146.352 100.346 146.15C100.848 143.581 101.518 141.063 102.276 138.557C102.338 138.352 102.4 138.146 102.464 137.935C105.63 127.593 110.72 118.104 118.231 110.294C118.338 110.182 118.445 110.07 118.555 109.955C119.835 108.621 121.162 107.395 122.61 106.245C123.035 105.904 123.454 105.555 123.867 105.198C125.816 103.512 127.909 102.099 130.083 100.721C130.239 100.623 130.394 100.524 130.554 100.422C139.421 94.8507 149.743 91.4841 160.055 89.9234C160.307 89.8851 160.558 89.8469 160.817 89.8075C162.283 89.5995 163.704 89.5046 165.184 89.553C165.184 89.4026 165.184 89.2521 165.184 89.0971C165.033 89.0501 164.883 89.0031 164.728 88.9547C164.12 88.6759 163.743 88.4153 163.232 88.0002C161.293 86.5204 159.219 86.0107 156.83 85.8047C156.023 85.671 155.57 85.4938 154.927 84.9945C154.314 84.077 154.267 83.0971 154.471 82.0314C154.971 81.1175 155.52 80.5668 156.486 80.1706C159.223 79.4465 161.887 80.2324 164.327 81.5052C165.087 81.9592 165.823 82.44 166.551 82.9431C166.705 83.0489 166.858 83.1546 167.017 83.2635C168.162 84.0563 169.296 84.8642 170.426 85.6782C170.623 85.8197 170.623 85.8197 170.824 85.964C172.729 87.3319 172.729 87.3319 173.542 88.0074C174.022 88.4595 174.022 88.4595 174.529 88.4134C174.691 88.0114 174.691 88.0114 174.856 87.6014C174.917 87.4506 174.978 87.2999 175.041 87.1446C175.818 84.6368 175.778 81.4924 174.757 79.0684C174.682 78.8821 174.607 78.6958 174.53 78.5039C173.51 76.2249 171.857 74.5922 169.78 73.25C169.028 72.7382 168.666 72.42 168.375 71.5468C168.29 70.4047 168.348 69.7254 169.059 68.8117C171.081 66.9849 173.488 68.4025 175.341 69.7804Z" fill="#FFF1A6"/>
<path d="M175.341 69.7804C178.641 72.452 181.008 76.6833 181.594 80.8918C181.807 83.5727 181.834 86.3129 180.911 88.8692C181.284 88.882 181.284 88.882 181.666 88.895C186.522 89.0893 191.231 89.7825 195.954 90.9205C196.267 90.994 196.267 90.994 196.586 91.069C202.38 92.4399 207.942 94.4321 213.276 97.0746C213.484 97.1771 213.692 97.2796 213.906 97.3853C218.333 99.5878 222.423 102.171 226.268 105.28C226.406 105.391 226.544 105.503 226.687 105.618C229.81 108.161 232.679 110.993 235.157 114.169C235.508 114.592 235.859 115.015 236.211 115.437C238.952 118.806 241.057 122.602 242.93 126.51C243.123 126.91 243.322 127.306 243.521 127.703C246.722 134.246 248.691 141.397 250.038 148.533C250.638 151.66 251.4 154.628 252.447 157.628C253.223 159.853 253.801 161.971 254.075 164.313C254.115 164.579 254.156 164.846 254.197 165.12C255.33 174.373 252.678 183.824 247.009 191.208C243.732 195.379 239.925 198.726 235.385 201.465C235.24 201.552 235.095 201.64 234.946 201.73C232.342 203.288 232.342 203.288 231.51 203.288C231.51 203.439 231.51 203.589 231.51 203.744C231.675 203.801 231.84 203.858 232.01 203.917C233.088 204.393 233.909 205.19 234.8 205.95C235.148 206.243 235.501 206.531 235.853 206.818C237.651 208.297 239.311 209.906 240.955 211.55C241.117 211.712 241.117 211.712 241.281 211.876C242.428 213.024 243.547 214.184 244.604 215.415C245.151 216.047 245.725 216.653 246.297 217.263C247.306 218.348 248.271 219.457 249.198 220.613C249.605 221.121 250.017 221.624 250.434 222.125C254.047 226.485 257.151 230.906 258.933 236.321C259.063 236.713 259.2 237.102 259.34 237.491C260.282 240.508 260.294 244.663 258.861 247.506C258.782 247.667 258.702 247.827 258.619 247.993C256.8 251.207 254.094 252.998 250.656 254.116C245.166 255.382 239.132 253.662 234.245 251.153C234.321 251.303 234.396 251.454 234.473 251.608C236.224 262.851 235.655 274.748 228.744 284.21C223.808 290.749 216.937 294.362 209.401 297.194C209.401 300.428 209.401 303.662 209.401 306.995C210.078 307.145 210.755 307.295 211.453 307.45C212.479 307.766 213.49 308.122 214.501 308.481C214.969 308.646 215.438 308.807 215.907 308.968C218.724 309.953 220.977 311.019 222.593 313.604C223.252 315.34 223.121 317.804 222.432 319.517C221.43 321.282 220.052 322.5 218.104 323.071C217.562 323.187 217.073 323.207 216.519 323.208C216.312 323.208 216.105 323.208 215.892 323.208C215.678 323.208 215.463 323.207 215.242 323.206C214.923 323.207 214.923 323.207 214.597 323.208C213.524 323.207 212.509 323.172 211.453 322.949C211.463 323.107 211.474 323.264 211.485 323.426C211.568 325.587 211.029 327.155 209.564 328.761C208.267 329.898 206.707 330.328 205.015 330.306C203.244 330.128 201.529 329.224 200.284 327.964C199.491 326.885 198.816 325.75 198.233 324.545C198.09 324.638 197.946 324.732 197.799 324.828C195.641 326.186 193.744 326.704 191.167 326.368C189.483 325.807 187.972 324.97 187.065 323.405C186.04 321.339 185.791 319.365 186.481 317.152C187.372 314.95 188.988 313.203 190.679 311.577C191.304 310.963 191.873 310.311 192.441 309.645C192.689 309.359 192.951 309.085 193.219 308.818C193.275 308.214 193.304 307.633 193.313 307.028C193.318 306.852 193.322 306.676 193.326 306.494C193.34 305.929 193.351 305.365 193.361 304.801C193.37 304.419 193.379 304.036 193.388 303.654C193.41 302.716 193.429 301.778 193.447 300.841C193.282 300.869 193.117 300.898 192.947 300.927C187.261 301.898 181.693 302.084 175.942 302.054C175.157 302.051 174.371 302.052 173.586 302.053C169.551 302.057 165.547 302.035 161.537 301.524C161.264 301.491 160.99 301.457 160.709 301.423C160.081 301.341 159.456 301.251 158.83 301.154C158.522 301.108 158.522 301.108 158.207 301.061C157.721 300.989 157.236 300.915 156.751 300.841C156.711 301.911 156.682 302.981 156.663 304.051C156.655 304.415 156.644 304.778 156.63 305.142C156.469 307.581 156.469 307.581 157.501 309.699C157.775 309.946 158.057 310.185 158.346 310.413C160.996 312.933 163.785 315.841 163.93 319.701C163.832 321.577 163.241 323.39 161.821 324.68C160.035 326.106 158.496 326.514 156.206 326.464C154.377 326.251 152.742 325.413 151.28 324.317C151.266 324.592 151.266 324.592 151.252 324.873C150.791 326.75 149.432 328.253 147.861 329.331C146.188 330.259 144.575 330.565 142.709 330.093C140.943 329.476 139.745 328.452 138.873 326.796C138.337 325.481 138.439 324.116 138.516 322.721C138.353 322.795 138.19 322.869 138.021 322.945C136.963 323.326 135.912 323.252 134.798 323.249C134.569 323.252 134.339 323.256 134.103 323.26C131.84 323.261 130.382 322.733 128.712 321.17C127.195 319.495 126.992 317.578 127.044 315.39C127.22 313.359 128.221 312.145 129.719 310.848C130.697 310.131 131.748 309.759 132.89 309.374C133.125 309.29 133.361 309.206 133.604 309.119C134.329 308.862 135.055 308.612 135.781 308.362C136.238 308.201 136.695 308.04 137.152 307.878C138.212 307.502 139.276 307.134 140.34 306.767C140.49 303.608 140.641 300.449 140.796 297.194C139.724 296.799 139.724 296.799 138.63 296.396C136.461 295.58 134.408 294.634 132.362 293.547C132.141 293.435 131.921 293.324 131.693 293.209C124.383 289.426 119.028 282.665 116.413 274.926C114.025 267.216 114.63 259.036 115.724 251.153C115.608 251.202 115.493 251.251 115.374 251.302C109.913 253.613 103.672 255.734 97.8281 253.541C94.8228 252.267 92.0866 250.141 90.8309 247.053C89.0115 241.854 90.4221 236.7 92.7273 231.895C93.8107 229.731 95.1141 227.774 96.578 225.853C96.6736 225.726 96.7691 225.599 96.8676 225.468C98.1711 223.738 99.5192 222.045 100.909 220.383C101.056 220.206 101.056 220.206 101.205 220.026C103.838 216.874 106.673 213.918 109.57 211.009C109.747 210.831 109.924 210.653 110.106 210.469C111.182 209.396 112.29 208.378 113.445 207.391C113.699 207.169 113.953 206.948 114.207 206.727C115.493 205.617 116.748 204.587 118.231 203.744C117.565 203.205 116.857 202.794 116.105 202.387C113.321 200.88 110.84 199.143 108.533 196.974C108.049 196.521 107.556 196.092 107.048 195.667C100.502 189.934 96.3196 180.656 95.7215 172.047C95.4983 167.941 95.6002 163.855 96.6208 159.854C96.6795 159.621 96.6795 159.621 96.7393 159.383C96.982 158.502 97.2764 157.655 97.6256 156.811C98.5886 154.476 99.2224 152.219 99.6656 149.733C99.8444 148.735 100.038 147.739 100.231 146.744C100.269 146.548 100.307 146.352 100.346 146.15C100.848 143.581 101.518 141.063 102.276 138.557C102.338 138.352 102.4 138.146 102.464 137.935C105.63 127.593 110.72 118.104 118.231 110.294C118.338 110.182 118.445 110.07 118.555 109.955C119.835 108.621 121.162 107.395 122.61 106.245C123.035 105.904 123.454 105.555 123.867 105.198C125.816 103.512 127.909 102.099 130.083 100.721C130.239 100.623 130.394 100.524 130.554 100.422C139.421 94.8507 149.743 91.4841 160.055 89.9234C160.307 89.8851 160.558 89.8469 160.817 89.8075C162.283 89.5995 163.704 89.5046 165.184 89.553C165.184 89.4026 165.184 89.2521 165.184 89.0971C165.033 89.0501 164.883 89.0031 164.728 88.9547C164.12 88.6759 163.743 88.4153 163.232 88.0002C161.293 86.5204 159.219 86.0107 156.83 85.8047C156.023 85.671 155.57 85.4938 154.927 84.9945C154.314 84.077 154.267 83.0971 154.471 82.0314C154.971 81.1175 155.52 80.5668 156.486 80.1706C159.223 79.4465 161.887 80.2324 164.327 81.5052C165.087 81.9592 165.823 82.44 166.551 82.9431C166.705 83.0489 166.858 83.1546 167.017 83.2635C168.162 84.0563 169.296 84.8642 170.426 85.6782C170.623 85.8197 170.623 85.8197 170.824 85.964C172.729 87.3319 172.729 87.3319 173.542 88.0074C174.022 88.4595 174.022 88.4595 174.529 88.4134C174.691 88.0114 174.691 88.0114 174.856 87.6014C174.917 87.4506 174.978 87.2999 175.041 87.1446C175.818 84.6368 175.778 81.4924 174.757 79.0684C174.682 78.8821 174.607 78.6958 174.53 78.5039C173.51 76.2249 171.857 74.5922 169.78 73.25C169.028 72.7382 168.666 72.42 168.375 71.5468C168.29 70.4047 168.348 69.7254 169.059 68.8117C171.081 66.9849 173.488 68.4025 175.341 69.7804ZM123.929 112.801C123.686 113.034 123.686 113.034 123.438 113.271C120.92 115.686 118.641 118.149 116.636 121.007C116.534 121.15 116.432 121.293 116.327 121.441C110.427 129.799 106.352 140.114 105.333 150.311C105.06 152.982 104.503 155.256 103.511 157.754C102.054 161.429 101.405 164.712 101.568 168.666C101.593 169.353 101.602 170.038 101.608 170.724C101.675 175.222 102.84 178.755 104.783 182.775C104.856 182.927 104.929 183.079 105.003 183.236C108.663 190.825 116.036 196.738 123.914 199.506C125.231 199.959 126.551 200.402 127.877 200.825C128.033 200.876 128.188 200.927 128.349 200.979C128.776 201.119 129.204 201.255 129.633 201.392C130.356 201.713 130.619 201.918 130.995 202.604C131.268 203.734 131.363 204.157 130.824 205.197C130.258 205.858 129.91 206.226 129.026 206.304C128.797 206.3 128.567 206.297 128.331 206.294C128.104 206.292 127.878 206.291 127.645 206.289C126.892 206.251 126.892 206.251 126.014 206.059C124.793 205.9 124.039 206.539 123.089 207.234C122.91 207.359 122.731 207.484 122.547 207.613C122.015 207.989 121.49 208.372 120.966 208.758C120.822 208.864 120.678 208.97 120.529 209.08C119.673 209.715 118.835 210.371 118.003 211.038C117.669 211.302 117.669 211.302 117.328 211.571C116.187 212.486 115.122 213.431 114.103 214.481C113.676 214.908 113.234 215.303 112.775 215.696C111.274 216.991 109.914 218.404 108.627 219.91C108.147 220.444 107.637 220.938 107.12 221.437C101.907 226.61 96.0503 234.948 95.7803 242.491C95.851 244.282 96.374 245.336 97.6749 246.551C100.136 248.559 103.354 248.461 106.379 248.19C109.124 247.722 111.717 246.606 114.131 245.244C114.609 244.985 115.096 244.757 115.588 244.528C117.276 243.706 117.276 243.706 118.448 242.297C118.789 241.245 118.893 240.152 119.034 239.059C119.247 237.75 119.629 236.484 119.997 235.212C120.076 234.94 120.155 234.668 120.236 234.388C120.733 232.709 121.267 231.05 121.892 229.414C121.959 229.233 122.025 229.052 122.094 228.865C122.584 227.646 123.244 226.765 124.385 226.081C125.1 225.89 125.446 225.946 126.208 226.081C126.822 226.577 127.224 226.972 127.576 227.676C127.703 229.025 127.515 230.196 127.049 231.466C126.99 231.635 126.931 231.804 126.871 231.979C126.463 233.146 126.034 234.306 125.607 235.468C123.726 240.617 122.352 245.757 121.522 251.187C121.456 251.612 121.389 252.037 121.318 252.461C120.765 255.812 120.667 259.132 120.653 262.52C120.65 262.83 120.65 262.83 120.647 263.146C120.623 266.723 120.819 270.387 122.035 273.789C122.092 273.955 122.15 274.122 122.21 274.293C123.157 276.902 124.619 279.147 126.436 281.239C126.667 281.515 126.667 281.515 126.903 281.797C133.814 289.831 144.66 292.72 154.699 294.459C154.939 294.5 155.179 294.542 155.426 294.585C157.155 294.881 158.887 295.134 160.625 295.37C160.867 295.405 161.108 295.44 161.357 295.476C174.647 297.328 189.821 296.736 202.792 293.091C203.015 293.029 203.239 292.968 203.469 292.904C210.003 291.081 216.054 288.456 221.026 283.746C221.188 283.596 221.188 283.596 221.354 283.444C226.433 278.757 228.919 272.437 229.275 265.585C229.292 264.744 229.294 263.904 229.288 263.062C229.287 262.911 229.287 262.76 229.286 262.605C229.258 257.507 228.789 252.518 227.864 247.506C227.828 247.3 227.792 247.093 227.755 246.881C226.921 242.159 225.343 237.521 223.603 233.059C223.54 232.897 223.477 232.735 223.412 232.568C223.294 232.264 223.173 231.961 223.05 231.66C222.491 230.233 222.307 228.732 222.621 227.22C223.05 226.699 223.387 226.382 223.989 226.081C225.148 225.993 225.788 226.073 226.724 226.765C229.561 230.773 230.577 236.549 231.594 241.253C231.877 242.34 232.092 242.995 233.076 243.593C233.256 243.703 233.437 243.814 233.623 243.928C233.819 244.041 234.015 244.155 234.217 244.272C234.42 244.391 234.622 244.51 234.831 244.633C239.279 247.179 244.423 249.047 249.602 248.04C251.36 247.473 252.799 246.424 253.733 244.813C254.466 243.064 254.07 241.161 253.605 239.386C253.528 239.089 253.528 239.089 253.449 238.787C250.997 229.764 244.002 222.61 237.579 216.166C237.368 215.954 237.156 215.741 236.938 215.522C235.897 214.484 234.845 213.475 233.728 212.518C233.187 212.05 232.671 211.557 232.151 211.066C230.811 209.846 229.377 208.839 227.864 207.847C227.605 207.667 227.347 207.486 227.089 207.305C225.608 206.237 225.608 206.237 223.861 206.023C223.622 206.077 223.622 206.077 223.379 206.133C222.038 206.433 220.584 206.528 219.387 205.824C218.806 205.142 218.711 204.765 218.704 203.886C218.7 203.711 218.697 203.535 218.694 203.354C218.754 202.759 218.888 202.428 219.202 201.921C219.6 201.666 219.6 201.666 220.087 201.468C220.271 201.393 220.455 201.318 220.645 201.24C221.744 200.823 222.851 200.429 223.96 200.04C228.714 198.344 232.898 196.594 236.753 193.259C236.865 193.162 236.977 193.065 237.093 192.965C242.935 187.871 247.42 181.025 248.377 173.202C248.402 172.571 248.419 171.945 248.423 171.313C248.424 171.136 248.426 170.959 248.427 170.776C248.429 170.402 248.431 170.028 248.432 169.654C248.434 169.092 248.441 168.531 248.448 167.969C248.468 165.011 248.032 162.36 247.052 159.555C246.965 159.295 246.965 159.295 246.875 159.029C246.598 158.214 246.306 157.411 245.965 156.619C244.957 154.213 244.619 151.839 244.272 149.261C242.528 136.512 237.216 124.867 228.319 115.537C228.032 115.211 227.747 114.883 227.465 114.554C223.424 109.908 218.215 106.342 212.82 103.456C212.681 103.381 212.541 103.305 212.397 103.227C205.611 99.5826 198.194 97.5616 190.712 95.9349C190.529 95.8941 190.347 95.8533 190.159 95.8113C189.133 95.5835 188.104 95.4024 187.065 95.2511C186.863 95.2206 186.661 95.1901 186.454 95.1587C165.796 92.1565 142.11 97.2555 123.929 112.801Z" fill="black"/>
<path d="M181.865 155.936C185.774 158.351 190.381 161.797 191.764 166.374C192.197 168.587 191.503 170.566 190.313 172.433C187.394 176.511 183.057 179.524 178.176 180.723C178.035 180.763 177.894 180.803 177.749 180.843C173.515 181.785 169.424 180.449 165.868 178.216C162.52 175.969 159.342 173.07 158.438 168.982C158.119 167.012 158.507 165.418 159.633 163.76C160.027 163.248 160.435 162.753 160.853 162.261C161.128 161.909 161.128 161.909 161.409 161.549C162.153 160.715 162.955 160.009 163.816 159.298C163.929 159.204 164.043 159.109 164.159 159.012C169.823 154.313 175.145 152.219 181.865 155.936Z" fill="black"/>
<path d="M230.884 160.922C233.104 163.026 234.225 165.667 234.325 168.693C234.364 172.017 233.54 175.128 231.22 177.621C228.6 180.069 225.515 181.152 221.975 181.082C218.737 180.926 215.711 179.47 213.504 177.077C212.964 176.353 212.54 175.605 212.137 174.797C212.026 174.577 211.914 174.356 211.799 174.129C210.633 171.511 210.629 168.597 211.429 165.857C211.89 164.701 212.539 163.714 213.276 162.717C213.396 162.553 213.516 162.389 213.639 162.22C215.451 159.947 218.028 158.68 220.798 157.988C224.626 157.669 227.899 158.441 230.884 160.922Z" fill="#F4A99C"/>
<path d="M131.45 158.843C131.772 158.988 131.772 158.988 132.101 159.135C135.01 160.576 136.746 162.894 137.832 165.908C138.522 169.409 138.175 173.036 136.165 176.051C135.893 176.399 135.613 176.741 135.325 177.077C135.195 177.237 135.064 177.398 134.93 177.564C133.178 179.529 130.339 180.876 127.716 181.036C125.393 181.096 123.524 180.899 121.421 179.812C121.213 179.707 121.005 179.603 120.79 179.496C118.362 178.167 116.637 175.86 115.752 173.245C114.935 169.775 115.238 166.006 117.053 162.918C120.256 158.255 126.231 156.418 131.45 158.843Z" fill="#F4A99C"/>
<path d="M146.266 298.789C148.635 299.24 148.635 299.24 151.052 299.701C151.044 300.215 151.037 300.73 151.028 301.26C150.646 307.876 150.646 307.876 153.32 313.634C153.82 314.136 154.328 314.627 154.842 315.114C157.346 317.492 157.346 317.492 157.506 319.117C157.434 319.758 157.434 319.758 156.978 320.442C155.939 320.409 155.38 320.306 154.635 319.56C154.387 319.292 154.142 319.021 153.901 318.747C152.949 317.67 152.303 317.056 150.824 316.795C149.877 316.812 149.402 316.886 148.656 317.478C147.942 318.341 147.686 319.152 147.377 320.214C146.657 322.611 146.657 322.611 146.038 323.405C145.198 323.59 145.198 323.59 144.443 323.633C144.037 322.933 143.93 322.423 143.924 321.617C143.92 321.409 143.915 321.2 143.91 320.984C143.904 320.547 143.9 320.109 143.898 319.672C143.877 318.437 143.877 318.437 143.379 317.335C141.971 316.51 139.967 316.989 138.431 317.251C137.303 317.442 136.211 317.536 135.069 317.55C134.786 317.554 134.504 317.558 134.213 317.562C133.502 317.479 133.502 317.479 133.048 317.204C132.818 316.795 132.818 316.795 132.845 316.243C133.046 315.656 133.046 315.656 133.549 315.286C135.371 314.434 137.217 313.756 139.129 313.134C142.376 312.194 142.376 312.194 145.01 310.207C146.058 308.063 145.878 305.23 145.96 302.879C145.967 302.677 145.975 302.475 145.982 302.268C145.987 302.091 145.993 301.915 145.998 301.733C146.057 300.75 146.168 299.77 146.266 298.789Z" fill="#FFBB4D"/>
<path d="M203.932 299.017C203.938 299.36 203.938 299.36 203.945 299.71C203.963 300.569 203.983 301.428 204.004 302.288C204.013 302.658 204.02 303.027 204.028 303.397C203.927 307.286 203.927 307.286 205.351 310.747C207.268 312.408 210.041 313.021 212.419 313.759C214.133 314.295 215.677 314.834 217.151 315.884C217.066 316.553 217.066 316.553 216.923 317.251C215.625 317.9 213.817 317.443 212.436 317.251C211.178 317.082 209.931 316.963 208.661 316.938C208.387 316.931 208.113 316.925 207.831 316.918C206.983 317.044 206.73 317.269 206.211 317.935C205.938 318.481 205.94 318.857 205.919 319.466C205.91 319.679 205.902 319.891 205.893 320.11C205.885 320.333 205.877 320.555 205.869 320.784C205.853 321.223 205.837 321.663 205.819 322.102C205.812 322.297 205.805 322.492 205.798 322.693C205.755 323.177 205.755 323.177 205.527 323.633C204.801 323.647 204.801 323.647 203.932 323.405C202.821 322.186 202.511 320.458 202.151 318.9C201.831 318.028 201.456 317.609 200.741 317.023C199.864 316.666 199.057 316.764 198.148 316.966C197.069 317.49 196.332 318.518 195.574 319.417C194.917 320.12 194.48 320.401 193.532 320.513C193.354 320.49 193.175 320.466 192.991 320.442C192.483 319.681 192.471 319.32 192.613 318.431C193.195 316.511 195.164 315.042 196.567 313.704C199.188 310.941 199.02 307.303 198.96 303.69C198.956 303.322 198.953 302.954 198.951 302.587C198.943 301.701 198.931 300.815 198.917 299.929C199.539 299.775 200.161 299.624 200.783 299.473C200.959 299.43 201.134 299.386 201.314 299.341C202.204 299.127 203.009 298.958 203.932 299.017Z" fill="#FFBB4D"/>
<path d="M209.604 146.72C211.354 147.705 212.684 149.392 213.276 151.321C213.346 151.982 213.352 152.637 213.347 153.301C213.345 153.576 213.345 153.576 213.343 153.856C213.297 156.116 212.81 157.858 211.225 159.526C209.516 161.116 207.655 161.756 205.326 161.685C203.308 161.381 201.683 160.283 200.427 158.705C199.045 156.668 198.913 154.625 199.145 152.233C199.563 150.234 200.568 148.457 202.238 147.251C204.552 145.831 207.085 145.534 209.604 146.72Z" fill="black"/>
<path d="M147.138 146.869C148.832 148.062 149.982 149.547 150.597 151.549C150.938 153.989 150.723 156.299 149.485 158.444C148.237 160.059 146.827 160.935 144.898 161.578C142.828 161.788 141.181 161.451 139.495 160.213C137.84 158.81 136.981 157.574 136.693 155.424C136.493 152.908 136.574 150.969 138.061 148.814C138.645 148.13 138.645 148.13 139.2 147.674C139.374 147.514 139.548 147.354 139.727 147.19C141.921 145.659 144.818 145.503 147.138 146.869Z" fill="black"/>
<path d="M179.225 160.282C181.815 161.765 184.26 163.638 185.925 166.136C185.925 166.362 185.925 166.587 185.925 166.82C183.603 167.442 181.42 167.54 179.021 167.542C178.704 167.543 178.388 167.544 178.071 167.544C177.408 167.546 176.746 167.546 176.083 167.546C175.244 167.546 174.404 167.549 173.564 167.553C172.91 167.556 172.256 167.556 171.601 167.556C171.144 167.556 170.687 167.559 170.23 167.561C165.503 167.55 165.503 167.55 164.044 166.82C165.247 163.335 169.553 160.872 172.705 159.298C175.144 158.396 176.982 159.149 179.225 160.282Z" fill="#FFBB4D"/>
<path d="M185.013 172.062C183.766 173.07 182.508 173.829 181.053 174.498C180.874 174.584 180.695 174.67 180.51 174.759C177.571 176.135 174.873 176.693 171.694 175.709C169.389 174.865 167.188 173.709 165.184 172.29C165.184 172.215 165.184 172.14 165.184 172.062C165.399 172.063 165.615 172.063 165.838 172.064C167.876 172.068 169.915 172.072 171.954 172.074C173.002 172.075 174.05 172.077 175.098 172.079C176.11 172.082 177.123 172.083 178.135 172.084C178.52 172.084 178.906 172.085 179.291 172.086C179.833 172.088 180.374 172.088 180.916 172.088C181.073 172.089 181.231 172.09 181.393 172.091C182.184 172.089 182.949 172.042 183.731 171.932C184.557 171.834 184.557 171.834 185.013 172.062Z" fill="#FFBB4D"/>
<path d="M163.212 133.088C165.498 135.101 167.274 138.245 167.611 141.315C167.979 147.344 165.633 152.439 161.71 156.942C161.314 157.378 160.911 157.806 160.505 158.234C160.324 158.444 160.144 158.656 159.966 158.868C159.264 159.678 158.494 160.423 157.729 161.173C157.215 161.679 156.719 162.191 156.251 162.74C155.535 163.562 154.774 164.336 154.007 165.11C153.857 165.261 153.708 165.412 153.554 165.567C153.24 165.884 152.925 166.2 152.61 166.517C152.209 166.92 151.81 167.325 151.411 167.731C151.026 168.12 150.639 168.508 150.253 168.896C150.111 169.041 149.969 169.186 149.823 169.335C148.906 170.248 148.213 170.814 146.906 171.008C145.625 170.831 144.63 169.987 143.6 169.252C142.528 168.514 141.415 167.836 140.312 167.144C139.393 166.567 138.479 165.983 137.565 165.399C136.776 164.896 135.985 164.395 135.191 163.9C132.317 162.103 129.513 160.186 127.005 157.895C126.908 157.806 126.81 157.718 126.71 157.626C123.721 154.862 121.368 151.318 121.173 147.138C121.167 146.762 121.166 146.386 121.168 146.01C121.169 145.811 121.17 145.612 121.171 145.407C121.238 142.132 122.456 139.369 124.636 136.916C124.732 136.808 124.827 136.701 124.926 136.59C126.923 134.475 129.762 133.109 132.666 132.984C136.604 132.894 139.783 133.942 142.74 136.577C143.021 136.804 143.302 137.03 143.586 137.254C143.694 137.097 143.803 136.939 143.914 136.777C146.15 133.566 149.18 131.101 153.131 130.391C156.79 129.944 160.287 130.815 163.212 133.088Z" fill="#FF6060"/>
<path d="M201.787 132.855C203.011 133.803 204.007 134.871 204.88 136.153C205.183 136.595 205.509 137.009 205.848 137.423C205.93 137.331 206.012 137.239 206.097 137.144C208.256 134.847 211.361 133.084 214.559 132.973C218.107 132.937 220.915 133.672 223.613 136.07C223.78 136.214 223.78 136.214 223.952 136.361C226.148 138.385 227.681 141.531 227.874 144.51C227.888 145.024 227.889 145.537 227.885 146.052C227.886 146.224 227.887 146.396 227.889 146.573C227.878 150.864 225.702 154.358 222.82 157.388C220.266 159.861 217.148 161.86 214.159 163.757C213.547 164.147 212.938 164.543 212.33 164.938C212.088 165.094 211.846 165.251 211.604 165.407C211.189 165.676 210.774 165.944 210.359 166.213C209.426 166.817 208.489 167.412 207.546 167.999C207.366 168.111 207.186 168.224 207 168.339C206.641 168.563 206.281 168.786 205.921 169.009C205.207 169.453 204.501 169.893 203.826 170.396C203.363 170.717 203.108 170.876 202.559 170.934C202.444 170.949 202.329 170.965 202.211 170.982C201.009 170.815 200.123 170.034 199.305 169.197C199.201 169.093 199.097 168.99 198.99 168.883C198.65 168.543 198.312 168.201 197.974 167.859C197.736 167.62 197.498 167.382 197.26 167.143C196.762 166.644 196.266 166.144 195.77 165.643C195.137 165.004 194.503 164.366 193.868 163.73C193.259 163.119 192.65 162.507 192.042 161.895C191.927 161.78 191.813 161.665 191.694 161.546C190.569 160.413 189.452 159.285 188.421 158.064C188.185 157.81 187.949 157.556 187.712 157.303C185.975 155.368 184.518 153.279 183.345 150.958C183.289 150.849 183.234 150.741 183.177 150.628C181.423 147.125 180.86 143.078 181.992 139.284C182.583 137.579 183.386 136.119 184.529 134.716C184.611 134.607 184.692 134.499 184.775 134.387C188.873 129.136 196.73 129.383 201.787 132.855Z" fill="#FF6060"/>
<path d="M201.787 132.855C203.011 133.803 204.007 134.871 204.88 136.153C205.183 136.595 205.509 137.009 205.848 137.423C205.93 137.331 206.012 137.239 206.097 137.144C208.256 134.847 211.361 133.084 214.559 132.973C218.107 132.937 220.915 133.672 223.613 136.07C223.78 136.214 223.78 136.214 223.952 136.361C226.148 138.385 227.681 141.531 227.874 144.51C227.888 145.024 227.889 145.537 227.885 146.052C227.886 146.224 227.887 146.396 227.889 146.573C227.878 150.864 225.702 154.358 222.82 157.388C220.266 159.861 217.148 161.86 214.159 163.757C213.547 164.147 212.938 164.543 212.33 164.938C212.088 165.094 211.846 165.251 211.604 165.407C211.189 165.676 210.774 165.944 210.359 166.213C209.426 166.817 208.489 167.412 207.546 167.999C207.366 168.111 207.186 168.224 207 168.339C206.641 168.563 206.281 168.786 205.921 169.009C205.207 169.453 204.501 169.893 203.826 170.396C203.363 170.717 203.108 170.876 202.559 170.934C202.444 170.949 202.329 170.965 202.211 170.982C201.009 170.815 200.123 170.034 199.305 169.197C199.201 169.093 199.097 168.99 198.99 168.883C198.65 168.543 198.312 168.201 197.974 167.859C197.736 167.62 197.498 167.382 197.26 167.143C196.762 166.644 196.266 166.144 195.77 165.643C195.137 165.004 194.503 164.366 193.868 163.73C193.259 163.119 192.65 162.507 192.042 161.895C191.927 161.78 191.813 161.665 191.694 161.546C190.569 160.413 189.452 159.285 188.421 158.064C188.185 157.81 187.949 157.556 187.712 157.303C185.975 155.368 184.518 153.279 183.345 150.958C183.289 150.849 183.234 150.741 183.177 150.628C181.423 147.125 180.86 143.078 181.992 139.284C182.583 137.579 183.386 136.119 184.529 134.716C184.611 134.607 184.692 134.499 184.775 134.387C188.873 129.136 196.73 129.383 201.787 132.855ZM188.759 136.746C188.651 136.831 188.543 136.916 188.432 137.003C187.214 138.077 186.163 140.102 186.015 141.718C185.772 147.251 188.192 151.057 191.805 155.019C192.1 155.326 192.399 155.626 192.706 155.921C192.985 156.2 193.239 156.49 193.494 156.791C194.241 157.651 195.044 158.453 195.851 159.257C196.108 159.513 196.364 159.77 196.62 160.027C197.426 160.833 198.241 161.618 199.108 162.359C199.65 162.837 200.151 163.354 200.655 163.87C200.859 164.078 201.063 164.285 201.267 164.492C201.399 164.627 201.399 164.627 201.533 164.764C201.934 165.139 202.18 165.341 202.739 165.336C203.54 165.104 204.147 164.675 204.832 164.208C205.135 164.007 205.437 163.806 205.74 163.605C205.896 163.5 206.053 163.396 206.214 163.288C206.998 162.77 207.792 162.268 208.586 161.766C208.9 161.566 209.214 161.367 209.527 161.167C209.678 161.072 209.828 160.976 209.983 160.878C218.387 155.964 218.387 155.964 223.327 147.987C223.797 145.501 223.239 142.96 221.826 140.881C220.593 139.264 219.017 138.039 217.014 137.592C215.28 137.487 213.683 137.444 212.108 138.269C211.883 138.387 211.883 138.387 211.653 138.506C209.713 139.634 208.241 141.184 207.236 143.178C206.803 143.993 206.382 144.258 205.509 144.529C204.737 144.653 203.998 144.575 203.31 144.191C202.948 143.648 202.926 143.436 202.866 142.806C202.525 140.631 201.332 138.754 199.757 137.254C199.645 137.143 199.534 137.032 199.419 136.918C197.599 135.205 195.523 134.781 193.103 134.833C191.374 134.916 190.087 135.681 188.759 136.746Z" fill="black"/>
<path d="M163.212 133.088C165.498 135.101 167.274 138.245 167.611 141.315C167.979 147.344 165.633 152.439 161.71 156.942C161.314 157.378 160.911 157.806 160.505 158.234C160.324 158.444 160.144 158.656 159.966 158.868C159.264 159.678 158.494 160.423 157.729 161.173C157.215 161.679 156.719 162.191 156.251 162.74C155.535 163.562 154.774 164.336 154.007 165.11C153.857 165.261 153.708 165.412 153.554 165.567C153.24 165.884 152.925 166.2 152.61 166.517C152.209 166.92 151.81 167.325 151.411 167.731C151.026 168.12 150.639 168.508 150.253 168.896C150.111 169.041 149.969 169.186 149.823 169.335C148.906 170.248 148.213 170.814 146.906 171.008C145.625 170.831 144.63 169.987 143.6 169.252C142.528 168.514 141.415 167.836 140.312 167.144C139.393 166.567 138.479 165.983 137.565 165.399C136.776 164.896 135.985 164.395 135.191 163.9C132.317 162.103 129.513 160.186 127.005 157.895C126.908 157.806 126.81 157.718 126.71 157.626C123.721 154.862 121.368 151.318 121.173 147.138C121.167 146.762 121.166 146.386 121.168 146.01C121.169 145.811 121.17 145.612 121.171 145.407C121.238 142.132 122.456 139.369 124.636 136.916C124.732 136.808 124.827 136.701 124.926 136.59C126.923 134.475 129.762 133.109 132.666 132.984C136.604 132.894 139.783 133.942 142.74 136.577C143.021 136.804 143.302 137.03 143.586 137.254C143.694 137.097 143.803 136.939 143.914 136.777C146.15 133.566 149.18 131.101 153.131 130.391C156.79 129.944 160.287 130.815 163.212 133.088ZM148.492 138.138C147.292 139.604 146.484 141.253 146.351 143.151C146.286 143.557 146.167 143.839 145.954 144.191C145.215 144.653 144.261 144.652 143.417 144.529C142.633 144.185 142.395 143.78 142.042 143.017C140.716 140.429 138.481 138.65 135.776 137.623C133.741 137.029 131.678 137.539 129.86 138.533C127.772 139.895 126.319 141.769 125.747 144.212C125.707 144.486 125.675 144.761 125.651 145.037C125.638 145.189 125.624 145.34 125.61 145.497C125.484 148.327 126.556 151.001 128.443 153.084C131.799 156.603 136.316 159.078 140.399 161.653C141.228 162.177 142.054 162.705 142.88 163.234C143.155 163.41 143.43 163.586 143.705 163.762C143.873 163.869 144.042 163.977 144.215 164.088C144.372 164.188 144.529 164.288 144.691 164.391C145.031 164.612 145.358 164.842 145.685 165.079C146.194 165.382 146.388 165.423 146.97 165.34C147.422 165.029 147.422 165.029 147.875 164.57C147.967 164.482 148.059 164.394 148.154 164.304C148.495 163.975 148.832 163.643 149.169 163.309C149.31 163.171 149.451 163.032 149.596 162.889C150.689 161.812 151.775 160.727 152.859 159.641C153.214 159.286 153.569 158.931 153.924 158.577C154.271 158.231 154.617 157.885 154.962 157.539C155.204 157.297 155.446 157.056 155.687 156.814C159.613 152.874 163.092 148.52 163.096 142.735C163.063 140.396 162.211 138.543 160.663 136.789C159.135 135.357 156.932 134.62 154.865 134.674C152.237 134.917 150.229 136.208 148.492 138.138Z" fill="black"/>
<path d="M177.274 50.7356C178.084 51.3563 178.557 52.2775 178.697 53.2844C178.779 54.3782 178.426 55.3827 177.732 56.223C177.43 56.5429 177.077 56.799 176.686 57.0011C176.626 57.0011 176.566 57.0011 176.503 57.0011C176.817 57.497 177.139 57.9864 177.468 58.472C177.505 58.5267 177.543 58.5815 177.581 58.638C177.735 58.865 177.889 59.092 178.043 59.3188C178.522 60.0223 178.985 60.7315 179.423 61.461C179.558 61.6842 179.699 61.9034 179.839 62.123C181.218 64.2938 182.494 66.5407 183.747 68.7859C183.97 69.1853 184.196 69.5827 184.424 69.979C184.622 69.8927 184.748 69.7886 184.896 69.6325C185.135 69.3885 185.384 69.1645 185.643 68.9432C185.783 68.824 185.922 68.7047 186.062 68.5853C186.099 68.5536 186.136 68.522 186.174 68.4894C186.39 68.3048 186.602 68.1176 186.812 67.9265C187.092 67.6731 187.381 67.4345 187.675 67.1973C187.831 67.07 187.987 66.9415 188.142 66.8131C188.365 66.6293 188.588 66.4458 188.811 66.2624C188.852 66.2284 188.894 66.1944 188.936 66.1594C189.428 65.7551 189.926 65.3607 190.433 64.9761C190.782 64.7113 191.122 64.4378 191.46 64.1596C191.729 63.9385 192.004 63.7274 192.284 63.5205C192.249 63.4776 192.249 63.4776 192.212 63.4338C191.475 62.527 191.136 61.3887 191.248 60.2303C191.416 59.2492 191.993 58.3941 192.764 57.7741C193.614 57.175 194.565 57.0862 195.574 57.1839C196.542 57.3715 197.503 58.0295 198.061 58.8328C198.578 59.719 198.74 60.7702 198.506 61.775C198.242 62.708 197.629 63.5207 196.793 64.008C196.431 64.1847 196.095 64.3113 195.696 64.3735C195.698 64.4228 195.699 64.472 195.701 64.5227C195.715 65.3665 195.641 66.2041 195.573 67.0446C195.563 67.1737 195.553 67.3029 195.542 67.4321C195.423 68.9345 195.281 70.4337 195.119 71.9321C195.084 72.2616 195.05 72.5912 195.016 72.9209C194.959 73.4858 194.899 74.0505 194.838 74.6152C194.813 74.8482 194.788 75.0812 194.763 75.3142C194.757 75.3737 194.75 75.4332 194.744 75.4945C194.628 76.5738 194.52 77.6537 194.413 78.7338C194.312 79.7474 194.211 80.7606 194.097 81.7727C194.089 81.8385 194.089 81.8385 194.082 81.9056C194.044 82.2387 194.006 82.5718 193.968 82.9049C193.932 83.2267 193.898 83.5484 193.868 83.8709C193.862 83.9319 193.855 83.9928 193.848 84.0556C193.824 84.4204 193.925 84.6037 194.141 84.8941C194.639 85.6125 194.488 86.6965 194.49 87.5265C194.49 87.5875 194.49 87.6484 194.491 87.7113C194.491 88.0337 194.492 88.3561 194.492 88.6786C194.493 89.0097 194.494 89.3408 194.496 89.6719C194.497 89.9284 194.497 90.1849 194.497 90.4414C194.498 90.5634 194.498 90.6854 194.499 90.8074C194.509 92.4151 194.509 92.4151 194.127 92.8733C190.891 95.6507 183.879 95.4099 179.848 95.5737C179.751 95.5776 179.751 95.5776 179.651 95.5817C178.264 95.6369 176.877 95.6492 175.488 95.6462C175.163 95.6455 174.838 95.6459 174.513 95.6466C161.581 95.6701 161.581 95.6701 155.962 92.9442C155.335 92.2998 155.465 91.2136 155.467 90.3813C155.467 90.2629 155.466 90.1444 155.466 90.0259C155.466 89.7785 155.466 89.5312 155.467 89.2838C155.468 88.9691 155.467 88.6543 155.467 88.3395C155.466 88.0951 155.466 87.8507 155.467 87.6062C155.467 87.4903 155.467 87.3743 155.466 87.2584C155.462 85.238 155.462 85.238 156.006 84.6132C156.113 84.4485 156.109 84.3692 156.094 84.1749C156.09 84.1115 156.085 84.0482 156.08 83.9829C156.071 83.8766 156.071 83.8766 156.062 83.7681C156.053 83.6525 156.053 83.6525 156.043 83.5346C155.975 82.6828 155.883 81.8328 155.794 80.983C155.714 80.218 155.639 79.4527 155.569 78.6867C155.565 78.6424 155.561 78.5981 155.556 78.5524C155.516 78.1119 155.476 77.6713 155.437 77.2307C155.425 77.1058 155.414 76.9809 155.403 76.856C155.389 76.7035 155.375 76.551 155.362 76.3985C155.322 75.9586 155.268 75.5221 155.208 75.0845C155.158 74.6977 155.121 74.3096 155.084 73.9214C155.075 73.8327 155.067 73.7441 155.058 73.6555C155.035 73.4185 155.013 73.1815 154.99 72.9445C154.976 72.7959 154.962 72.6473 154.948 72.4987C154.759 70.4975 154.604 68.4946 154.463 66.4895C154.446 66.2516 154.429 66.0137 154.412 65.7758C154.406 65.6972 154.4 65.6187 154.394 65.5377C154.384 65.3883 154.373 65.2388 154.362 65.0893C154.357 65.0228 154.352 64.9563 154.347 64.8877C154.343 64.8294 154.339 64.7711 154.334 64.711C154.326 64.5784 154.325 64.4454 154.325 64.3126C154.25 64.3101 154.174 64.3076 154.097 64.305C153.341 64.2194 152.645 63.678 152.17 63.1076C151.757 62.543 151.433 61.8505 151.401 61.1443C151.396 61.0705 151.396 61.0705 151.391 60.9953C151.353 59.917 151.77 58.9444 152.497 58.1587C153.107 57.5049 153.972 57.1803 154.848 57.1039C155.857 57.0701 156.756 57.3523 157.532 58.0064C158.264 58.705 158.724 59.638 158.788 60.653C158.774 61.6216 158.433 62.6199 157.755 63.3242C157.729 63.3488 157.703 63.3733 157.676 63.3987C157.743 63.5993 157.779 63.6296 157.942 63.7512C157.984 63.7832 158.027 63.8152 158.071 63.8482C158.116 63.8821 158.162 63.9159 158.209 63.9508C158.305 64.0224 158.4 64.094 158.495 64.1655C158.542 64.2008 158.59 64.2362 158.638 64.2726C158.822 64.4099 159.003 64.5496 159.184 64.6896C159.374 64.8362 159.565 64.9826 159.756 65.128C160.252 65.5065 160.738 65.8978 161.221 66.2933C161.319 66.3734 161.417 66.4532 161.515 66.533C162.111 67.0176 162.698 67.5106 163.266 68.0269C163.39 68.1384 163.514 68.248 163.64 68.3568C163.905 68.5884 164.165 68.8266 164.424 69.0656C164.564 69.1944 164.704 69.322 164.845 69.4492C164.918 69.5154 164.991 69.5816 165.064 69.6477C165.099 69.679 165.134 69.7102 165.17 69.7424C165.254 69.8188 165.334 69.8986 165.414 69.979C165.414 70.0193 165.414 70.0595 165.414 70.1009C165.579 69.9537 165.671 69.7979 165.774 69.603C165.808 69.5393 165.841 69.4757 165.876 69.41C165.912 69.3415 165.948 69.2729 165.986 69.2022C166.063 69.0573 166.14 68.9125 166.217 68.7678C166.246 68.7129 166.246 68.7129 166.276 68.6569C166.556 68.1339 166.851 67.6195 167.145 67.1043C167.242 66.9323 167.339 66.7598 167.436 66.5872C167.852 65.8442 168.282 65.1113 168.723 64.3823C168.903 64.0839 169.081 63.784 169.257 63.4833C169.618 62.8675 169.991 62.2608 170.376 61.6595C170.476 61.5023 170.576 61.3447 170.675 61.1869C171.411 60.0176 172.196 58.8833 172.991 57.7533C173.167 57.5028 173.342 57.2519 173.518 57.0011C173.471 56.9924 173.423 56.9837 173.375 56.9748C172.817 56.855 172.303 56.3859 171.987 55.927C171.404 55.0128 171.162 53.9995 171.364 52.9198C171.596 51.9624 172.09 51.0851 172.947 50.5611C174.351 49.786 175.936 49.7862 177.274 50.7356Z" fill="black"/>
<path d="M174.98 57.915C175.212 58.1269 175.377 58.3682 175.552 58.6272C175.601 58.7007 175.601 58.7007 175.652 58.7757C175.774 58.9557 175.895 59.136 176.016 59.3164C176.068 59.3932 176.12 59.4701 176.171 59.5469C176.85 60.5549 177.522 61.5651 178.149 62.6066C178.183 62.6627 178.216 62.7187 178.251 62.7764C178.842 63.7541 179.424 64.7369 180.007 65.7196C180.164 65.9844 180.321 66.2491 180.478 66.5137C181.21 67.7444 181.935 68.9777 182.613 70.239C182.839 70.6589 183.069 71.0761 183.305 71.4909C183.335 71.5447 183.365 71.5986 183.397 71.6541C183.425 71.7037 183.453 71.7532 183.482 71.8043C183.519 71.8693 183.519 71.8693 183.557 71.9357C183.634 72.053 183.708 72.1429 183.815 72.2334C183.979 72.2694 183.979 72.2694 184.162 72.2677C184.222 72.2703 184.283 72.2729 184.345 72.2756C184.938 72.1515 185.373 71.5378 185.778 71.1214C186.132 70.7573 186.494 70.4185 186.891 70.1014C187.097 69.9369 187.295 69.7644 187.494 69.5906C187.877 69.2564 188.264 68.9264 188.654 68.5986C188.751 68.516 188.849 68.4329 188.946 68.3497C189.312 68.0366 189.683 67.7323 190.064 67.4363C190.341 67.2201 190.614 66.9991 190.887 66.7765C193.684 64.4954 193.684 64.4954 193.99 64.4954C194.015 65.3673 193.939 66.2283 193.865 67.0963C193.854 67.2161 193.844 67.3358 193.834 67.4555C193.671 69.3748 193.473 71.2906 193.272 73.2062C193.259 73.3278 193.247 73.4494 193.234 73.5711C193.164 74.2383 193.094 74.9055 193.023 75.5726C192.928 76.4764 192.833 77.3804 192.741 78.2845C192.735 78.3435 192.729 78.4024 192.723 78.4632C192.649 79.1878 192.577 79.9126 192.505 80.6375C192.481 80.8886 192.456 81.1397 192.431 81.3908C192.403 81.673 192.376 81.9553 192.348 82.2376C192.334 82.3865 192.319 82.5354 192.304 82.6843C192.298 82.7513 192.292 82.8183 192.285 82.8874C192.244 83.3011 192.182 83.7068 192.101 84.1147C189.227 84.7934 186.287 85.1414 183.348 85.3825C183.222 85.3929 183.096 85.4036 182.97 85.4144C182.505 85.4537 182.04 85.4845 181.574 85.5089C181.48 85.5139 181.386 85.519 181.292 85.5241C179.259 85.6354 177.227 85.6494 175.192 85.6493C175.06 85.6493 174.927 85.6494 174.794 85.6494C173.19 85.6501 171.587 85.6404 169.984 85.577C169.916 85.5743 169.847 85.5716 169.777 85.5688C169.334 85.5508 168.892 85.5291 168.449 85.5046C168.382 85.5009 168.315 85.4972 168.245 85.4933C165.541 85.3403 162.84 85.0933 160.174 84.6021C160.095 84.5875 160.095 84.5875 160.014 84.5726C158.124 84.2233 158.124 84.2233 157.798 84.1147C157.793 84.0624 157.789 84.0102 157.784 83.9564C157.737 83.4522 157.691 82.9481 157.644 82.444C157.62 82.1852 157.596 81.9263 157.572 81.6674C157.466 80.5136 157.354 79.3608 157.228 78.2091C157.144 77.4441 157.068 76.6788 157.002 75.9121C156.943 75.2261 156.878 74.5416 156.799 73.8576C156.679 72.8054 156.592 71.7504 156.502 70.6952C156.484 70.4833 156.466 70.2714 156.447 70.0594C156.358 69.0199 156.27 67.9802 156.185 66.9404C156.177 66.8448 156.169 66.7493 156.161 66.6538C156.102 65.935 156.056 65.2163 156.031 64.4954C156.349 64.6686 156.635 64.8623 156.922 65.0819C156.965 65.114 157.007 65.1462 157.051 65.1793C157.178 65.276 157.306 65.3731 157.433 65.4703C157.468 65.4975 157.504 65.5248 157.541 65.5528C158.021 65.9191 158.496 66.2917 158.971 66.6656C159.076 66.7484 159.181 66.8309 159.287 66.9133C160.367 67.757 161.414 68.6315 162.429 69.5526C162.849 69.9324 162.849 69.9324 163.274 70.3066C163.841 70.8025 164.383 71.3172 164.911 71.8545C164.971 71.9151 164.971 71.9151 165.032 71.9769C165.085 72.0313 165.085 72.0313 165.14 72.0867C165.324 72.2592 165.492 72.2509 165.738 72.2601C165.807 72.2638 165.876 72.2675 165.947 72.2713C166.167 72.2294 166.242 72.1697 166.373 71.9903C166.539 71.728 166.69 71.4584 166.839 71.1862C166.876 71.1195 166.912 71.0529 166.95 70.9842C167.029 70.8429 167.107 70.7015 167.185 70.56C167.377 70.2109 167.57 69.8628 167.764 69.5145C167.821 69.4112 167.821 69.4112 167.88 69.3058C168.462 68.258 169.053 67.2171 169.667 66.1871C169.928 65.7483 170.186 65.3079 170.444 64.8669C170.879 64.122 171.321 63.3819 171.773 62.6472C171.87 62.4889 171.967 62.3303 172.063 62.1715C172.957 60.7067 173.904 59.2533 174.98 57.915Z" fill="#F8E482"/>
<path d="M157.25 85.7597C157.768 85.8002 158.273 85.8903 158.783 85.9831C160.981 86.3813 163.19 86.7138 165.415 86.9174C165.46 86.9216 165.506 86.9258 165.553 86.9302C168.601 87.2102 171.653 87.2425 174.711 87.2377C175.04 87.2372 175.369 87.2374 175.697 87.2379C177.694 87.2409 179.686 87.2397 181.68 87.1153C182.002 87.0952 182.324 87.0788 182.646 87.0623C185.388 86.9105 188.112 86.487 190.817 86.0275C190.857 86.0206 190.897 86.0138 190.938 86.0068C191.156 85.9696 191.373 85.9311 191.59 85.8912C191.636 85.8827 191.683 85.8742 191.73 85.8655C191.819 85.8493 191.908 85.8328 191.996 85.816C192.237 85.772 192.466 85.7459 192.711 85.7597C192.828 85.8768 192.779 86.0514 192.78 86.2071C192.779 86.2628 192.779 86.3184 192.779 86.3757C192.779 86.4339 192.779 86.4922 192.779 86.5522C192.779 86.7457 192.778 86.9392 192.778 87.1328C192.778 87.2665 192.778 87.4003 192.778 87.5341C192.777 87.887 192.777 88.2399 192.776 88.5928C192.776 88.9526 192.775 89.3124 192.775 89.6722C192.774 90.3787 192.773 91.0852 192.772 91.7917C192.694 91.8312 192.615 91.8705 192.537 91.9099C192.493 91.9318 192.45 91.9537 192.405 91.9763C189.199 93.5499 184.886 93.5804 181.401 93.7872C181.341 93.7908 181.28 93.7944 181.218 93.7981C179.254 93.9129 177.29 93.9368 175.323 93.9357C175.265 93.9357 175.207 93.9357 175.147 93.9356C173.078 93.9353 171.015 93.9042 168.949 93.8024C168.884 93.7993 168.82 93.7962 168.753 93.793C160.337 93.3855 160.337 93.3855 157.189 91.7917C157.188 91.0232 157.187 90.2547 157.186 89.4863C157.186 89.1295 157.185 88.7726 157.185 88.4158C157.184 88.0717 157.184 87.7277 157.183 87.3836C157.183 87.252 157.183 87.1205 157.183 86.989C157.182 86.8053 157.182 86.6216 157.182 86.4379C157.182 86.3831 157.182 86.3283 157.182 86.2718C157.182 85.8955 157.182 85.8955 157.25 85.7597Z" fill="#F8E482"/>
<path d="M176.517 71.8765C177.864 72.7714 178.449 74.0245 178.808 75.5516C179.106 77.1637 178.803 78.9874 177.966 80.3978C177.814 80.6108 177.65 80.8095 177.479 81.0071C177.441 81.0573 177.403 81.1075 177.363 81.1592C176.914 81.694 176.218 82.0975 175.529 82.2257C174.475 82.2989 173.687 82.0499 172.869 81.3575C171.701 80.2609 171.187 78.6312 171.127 77.0629C171.088 75.5215 171.359 73.828 172.45 72.6565C173.571 71.5088 175.056 71.023 176.517 71.8765Z" fill="black"/>
<path d="M175.352 73.1178C175.992 73.3869 176.487 74.0504 176.747 74.6705C177.202 75.8646 177.383 77.4795 176.869 78.6919C176.852 78.7318 176.836 78.7716 176.819 78.8127C176.506 79.543 176.095 80.1543 175.407 80.5807C175.076 80.6908 174.741 80.7021 174.424 80.5502C174.338 80.4748 174.338 80.4748 174.249 80.3979C174.212 80.3674 174.174 80.3368 174.136 80.3053C173.479 79.7209 173.182 78.851 172.97 78.0217C172.95 77.9463 172.931 77.871 172.911 77.7934C172.632 76.5738 172.772 75.2609 173.417 74.1669C173.905 73.4815 174.461 72.8994 175.352 73.1178Z" fill="#7D5232"/>
<path d="M175.894 51.8831C176.435 52.1745 176.72 52.6404 176.904 53.2126C177.025 53.8458 176.955 54.4029 176.6 54.9362C176.284 55.3475 175.794 55.6229 175.285 55.7217C174.708 55.7732 174.133 55.5901 173.685 55.2197C173.234 54.7653 173.091 54.2911 173.064 53.6653C173.072 53.1335 173.248 52.7346 173.521 52.2868C174.206 51.6749 175.053 51.5392 175.894 51.8831Z" fill="#F8E482"/>
<path d="M195.75 58.9979C196.326 59.3311 196.647 59.793 196.854 60.4131C196.9 60.9418 196.866 61.4762 196.554 61.9203C196.191 62.3425 195.737 62.7392 195.164 62.8098C194.45 62.8194 193.9 62.6145 193.381 62.1191C192.955 61.5947 192.952 60.9355 193.015 60.2912C193.129 59.7961 193.479 59.4156 193.872 59.1107C194.41 58.813 195.171 58.764 195.75 58.9979Z" fill="#F8E482"/>
<path d="M156.153 59.1338C156.6 59.4463 156.899 59.812 157.006 60.3523C157.06 60.9952 156.983 61.5574 156.58 62.0774C156.225 62.4517 155.697 62.7012 155.183 62.7431C154.533 62.7579 154.121 62.6199 153.642 62.1762C153.212 61.7114 153.133 61.2772 153.147 60.6548C153.192 60.132 153.414 59.6772 153.775 59.2975C154.493 58.7012 155.358 58.6861 156.153 59.1338Z" fill="#F8E482"/>
</svg>
