<svg width="350" height="350" viewBox="0 0 350 350" fill="none" xmlns="http://www.w3.org/2000/svg">
<path d="M168.586 88.6906C171.624 91.1508 173.804 95.0471 174.344 98.9225C174.54 101.391 174.565 103.915 173.715 106.268C174.059 106.28 174.059 106.28 174.41 106.292C178.882 106.471 183.218 107.109 187.567 108.157C187.855 108.225 187.855 108.225 188.149 108.294C193.485 109.557 198.606 111.391 203.518 113.824C203.71 113.919 203.901 114.013 204.098 114.11C208.174 116.139 211.941 118.518 215.482 121.38C215.609 121.483 215.736 121.586 215.867 121.691C218.743 124.034 221.385 126.641 223.667 129.566C223.99 129.955 224.314 130.344 224.638 130.733C227.162 133.836 229.1 137.331 230.825 140.93C231.003 141.298 231.186 141.663 231.369 142.028C234.317 148.054 236.129 154.638 237.37 161.21C237.923 164.089 238.624 166.822 239.589 169.584C240.303 171.633 240.836 173.583 241.088 175.74C241.125 175.986 241.162 176.231 241.2 176.484C242.243 185.004 239.801 193.707 234.581 200.507C231.563 204.348 228.057 207.429 223.877 209.951C223.744 210.032 223.61 210.113 223.473 210.196C221.075 211.631 221.075 211.631 220.309 211.631C220.309 211.769 220.309 211.908 220.309 212.05C220.461 212.103 220.613 212.155 220.769 212.209C221.762 212.648 222.518 213.382 223.339 214.081C223.659 214.352 223.983 214.617 224.308 214.881C225.963 216.243 227.492 217.724 229.006 219.239C229.155 219.387 229.155 219.387 229.307 219.539C230.363 220.595 231.393 221.663 232.366 222.797C232.87 223.38 233.399 223.938 233.925 224.499C234.854 225.499 235.743 226.519 236.596 227.584C236.972 228.052 237.351 228.515 237.734 228.976C241.062 232.991 243.92 237.062 245.561 242.048C245.681 242.409 245.807 242.768 245.935 243.126C246.803 245.904 246.815 249.731 245.495 252.348C245.422 252.496 245.348 252.644 245.272 252.797C243.597 255.757 241.105 257.406 237.939 258.435C232.884 259.601 227.328 258.017 222.828 255.706C222.897 255.845 222.966 255.983 223.038 256.126C224.65 266.479 224.126 277.434 217.762 286.147C213.216 292.168 206.889 295.496 199.95 298.103C199.95 301.081 199.95 304.059 199.95 307.128C200.574 307.267 201.197 307.405 201.839 307.548C202.784 307.839 203.715 308.166 204.646 308.497C205.077 308.649 205.509 308.797 205.941 308.946C208.535 309.852 210.61 310.834 212.097 313.215C212.705 314.813 212.584 317.082 211.949 318.659C211.027 320.285 209.758 321.406 207.964 321.932C207.465 322.039 207.014 322.057 206.504 322.058C206.314 322.058 206.123 322.058 205.927 322.058C205.729 322.058 205.532 322.057 205.328 322.056C205.035 322.057 205.035 322.057 204.735 322.058C203.746 322.057 202.812 322.025 201.839 321.82C201.849 321.965 201.859 322.109 201.869 322.259C201.945 324.248 201.449 325.692 200.1 327.171C198.906 328.219 197.469 328.615 195.911 328.594C194.28 328.43 192.701 327.598 191.555 326.437C190.824 325.444 190.203 324.399 189.666 323.289C189.534 323.375 189.402 323.461 189.266 323.55C187.279 324.8 185.532 325.277 183.159 324.968C181.609 324.451 180.217 323.681 179.382 322.24C178.437 320.337 178.209 318.52 178.844 316.481C179.665 314.454 181.152 312.845 182.709 311.348C183.285 310.783 183.809 310.182 184.333 309.569C184.561 309.305 184.802 309.053 185.048 308.807C185.1 308.251 185.127 307.716 185.135 307.159C185.139 306.997 185.143 306.834 185.148 306.667C185.16 306.147 185.17 305.628 185.18 305.108C185.188 304.756 185.196 304.404 185.204 304.052C185.224 303.188 185.242 302.325 185.258 301.461C185.106 301.487 184.955 301.514 184.798 301.541C179.563 302.434 174.435 302.606 169.14 302.578C168.416 302.575 167.693 302.577 166.97 302.578C163.254 302.582 159.567 302.561 155.874 302.091C155.623 302.06 155.371 302.029 155.112 301.997C154.534 301.922 153.958 301.839 153.382 301.75C153.098 301.707 153.098 301.707 152.808 301.664C152.361 301.598 151.914 301.53 151.467 301.461C151.43 302.447 151.404 303.432 151.386 304.418C151.379 304.752 151.369 305.087 151.356 305.422C151.208 307.668 151.208 307.668 152.158 309.619C152.41 309.846 152.67 310.066 152.936 310.276C155.376 312.596 157.945 315.274 158.078 318.829C157.988 320.556 157.444 322.225 156.136 323.414C154.491 324.727 153.074 325.102 150.965 325.057C149.281 324.86 147.775 324.088 146.43 323.079C146.417 323.332 146.417 323.332 146.403 323.591C145.979 325.32 144.727 326.703 143.281 327.697C141.74 328.55 140.255 328.833 138.537 328.398C136.911 327.829 135.807 326.887 135.004 325.362C134.511 324.151 134.605 322.894 134.676 321.61C134.526 321.678 134.375 321.746 134.22 321.816C133.246 322.167 132.278 322.099 131.252 322.095C131.041 322.099 130.829 322.102 130.612 322.106C128.528 322.107 127.185 321.621 125.648 320.181C124.251 318.639 124.064 316.874 124.112 314.858C124.274 312.989 125.196 311.871 126.575 310.676C127.475 310.016 128.444 309.674 129.495 309.319C129.712 309.241 129.929 309.164 130.153 309.084C130.82 308.848 131.488 308.617 132.157 308.387C132.578 308.239 132.999 308.09 133.419 307.941C134.396 307.595 135.375 307.257 136.355 306.918C136.494 304.009 136.632 301.1 136.775 298.103C135.788 297.739 135.788 297.739 134.781 297.368C132.783 296.617 130.893 295.745 129.009 294.745C128.806 294.642 128.602 294.539 128.393 294.433C121.661 290.95 116.73 284.725 114.322 277.598C112.123 270.498 112.68 262.966 113.688 255.706C113.581 255.752 113.475 255.797 113.366 255.844C108.336 257.972 102.59 259.925 97.2084 257.905C94.4411 256.732 91.9214 254.775 90.7651 251.931C89.0898 247.143 90.3887 242.397 92.5114 237.973C93.509 235.98 94.7093 234.178 96.0573 232.409C96.1453 232.292 96.2333 232.175 96.324 232.055C97.5243 230.461 98.7657 228.903 100.045 227.372C100.18 227.209 100.18 227.209 100.318 227.044C102.743 224.141 105.353 221.419 108.021 218.74C108.184 218.576 108.347 218.412 108.515 218.243C109.506 217.255 110.525 216.317 111.589 215.408C111.823 215.205 112.057 215.001 112.291 214.797C113.475 213.775 114.631 212.827 115.996 212.05C115.383 211.554 114.731 211.175 114.038 210.8C111.475 209.413 109.19 207.814 107.066 205.816C106.621 205.399 106.166 205.004 105.699 204.612C99.671 199.333 95.8193 190.789 95.2686 182.862C95.0631 179.081 95.1569 175.319 96.0967 171.634C96.1507 171.42 96.1507 171.42 96.2059 171.201C96.4293 170.389 96.7004 169.61 97.022 168.833C97.9088 166.682 98.4924 164.603 98.9005 162.314C99.0652 161.395 99.2434 160.479 99.4212 159.562C99.4561 159.382 99.4909 159.201 99.5268 159.015C99.9896 156.649 100.607 154.331 101.304 152.023C101.361 151.834 101.418 151.645 101.477 151.45C104.393 141.927 109.08 133.189 115.996 125.998C116.095 125.894 116.193 125.791 116.295 125.685C117.474 124.457 118.696 123.328 120.028 122.269C120.42 121.955 120.806 121.633 121.186 121.305C122.981 119.752 124.908 118.451 126.91 117.182C127.053 117.092 127.196 117.001 127.344 116.907C135.509 111.776 145.014 108.676 154.51 107.239C154.742 107.204 154.973 107.169 155.212 107.132C156.562 106.941 157.87 106.854 159.233 106.898C159.233 106.76 159.233 106.621 159.233 106.478C159.094 106.435 158.956 106.392 158.813 106.347C158.253 106.09 157.906 105.85 157.435 105.468C155.65 104.106 153.74 103.636 151.54 103.446C150.797 103.323 150.38 103.16 149.788 102.7C149.223 101.856 149.18 100.953 149.368 99.9719C149.828 99.1304 150.333 98.6232 151.223 98.2584C153.744 97.5916 156.197 98.3153 158.444 99.4874C159.144 99.9054 159.822 100.348 160.492 100.811C160.633 100.909 160.775 101.006 160.92 101.106C161.975 101.837 163.019 102.58 164.06 103.33C164.241 103.46 164.241 103.46 164.427 103.593C166.18 104.853 166.18 104.853 166.929 105.475C167.371 105.891 167.371 105.891 167.838 105.849C167.987 105.479 167.987 105.479 168.14 105.101C168.196 104.962 168.252 104.823 168.309 104.68C169.025 102.371 168.989 99.4755 168.048 97.2434C167.979 97.0719 167.91 96.9003 167.839 96.7236C166.9 94.625 165.378 93.1215 163.465 91.8856C162.772 91.4143 162.439 91.1212 162.171 90.3172C162.093 89.2655 162.146 88.64 162.801 87.7986C164.663 86.1164 166.879 87.4218 168.586 88.6906Z" fill="#FFF1A6"/>
<path d="M168.586 88.6906C171.624 91.1508 173.804 95.0471 174.344 98.9225C174.54 101.391 174.565 103.915 173.715 106.268C174.059 106.28 174.059 106.28 174.41 106.292C178.882 106.471 183.218 107.109 187.567 108.157C187.855 108.225 187.855 108.225 188.149 108.294C193.485 109.557 198.606 111.391 203.518 113.824C203.71 113.919 203.901 114.013 204.098 114.11C208.174 116.139 211.941 118.518 215.482 121.38C215.609 121.483 215.736 121.586 215.867 121.691C218.743 124.034 221.385 126.641 223.667 129.566C223.99 129.955 224.314 130.344 224.638 130.733C227.162 133.836 229.1 137.331 230.825 140.93C231.003 141.298 231.186 141.663 231.369 142.028C234.317 148.054 236.129 154.638 237.37 161.21C237.923 164.089 238.624 166.822 239.589 169.584C240.303 171.633 240.836 173.583 241.088 175.74C241.125 175.986 241.162 176.231 241.2 176.484C242.243 185.004 239.801 193.707 234.581 200.507C231.563 204.348 228.057 207.429 223.877 209.951C223.744 210.032 223.61 210.113 223.473 210.196C221.075 211.631 221.075 211.631 220.309 211.631C220.309 211.769 220.309 211.908 220.309 212.05C220.461 212.103 220.613 212.155 220.769 212.209C221.762 212.648 222.518 213.382 223.339 214.081C223.659 214.352 223.983 214.617 224.308 214.881C225.963 216.243 227.492 217.724 229.006 219.239C229.155 219.387 229.155 219.387 229.307 219.539C230.363 220.595 231.393 221.663 232.366 222.797C232.87 223.38 233.399 223.938 233.925 224.499C234.854 225.499 235.743 226.519 236.596 227.584C236.972 228.052 237.351 228.515 237.734 228.976C241.062 232.991 243.92 237.062 245.561 242.048C245.681 242.409 245.807 242.768 245.935 243.126C246.803 245.904 246.815 249.731 245.495 252.348C245.422 252.496 245.348 252.644 245.272 252.797C243.597 255.757 241.105 257.406 237.939 258.435C232.884 259.601 227.328 258.017 222.828 255.706C222.897 255.845 222.966 255.983 223.038 256.126C224.65 266.479 224.126 277.434 217.762 286.147C213.216 292.168 206.889 295.496 199.95 298.103C199.95 301.081 199.95 304.059 199.95 307.128C200.574 307.267 201.197 307.405 201.839 307.548C202.784 307.839 203.715 308.166 204.646 308.497C205.077 308.649 205.509 308.797 205.941 308.946C208.535 309.852 210.61 310.834 212.097 313.215C212.705 314.813 212.584 317.082 211.949 318.659C211.027 320.285 209.758 321.406 207.964 321.932C207.465 322.039 207.014 322.057 206.504 322.058C206.314 322.058 206.123 322.058 205.927 322.058C205.729 322.058 205.532 322.057 205.328 322.056C205.035 322.057 205.035 322.057 204.735 322.058C203.746 322.057 202.812 322.025 201.839 321.82C201.849 321.965 201.859 322.109 201.869 322.259C201.945 324.248 201.449 325.692 200.1 327.171C198.906 328.219 197.469 328.615 195.911 328.594C194.28 328.43 192.701 327.598 191.555 326.437C190.824 325.444 190.203 324.399 189.666 323.289C189.534 323.375 189.402 323.461 189.266 323.55C187.279 324.8 185.532 325.277 183.159 324.968C181.609 324.451 180.217 323.681 179.382 322.24C178.437 320.337 178.209 318.52 178.844 316.481C179.665 314.454 181.152 312.845 182.709 311.348C183.285 310.783 183.809 310.182 184.333 309.569C184.561 309.305 184.802 309.053 185.048 308.807C185.1 308.251 185.127 307.716 185.135 307.159C185.139 306.997 185.143 306.834 185.148 306.667C185.16 306.147 185.17 305.628 185.18 305.108C185.188 304.756 185.196 304.404 185.204 304.052C185.224 303.188 185.242 302.325 185.258 301.461C185.106 301.487 184.955 301.514 184.798 301.541C179.563 302.434 174.435 302.606 169.14 302.578C168.416 302.575 167.693 302.577 166.97 302.578C163.254 302.582 159.567 302.561 155.874 302.091C155.623 302.06 155.371 302.029 155.112 301.997C154.534 301.922 153.958 301.839 153.382 301.75C153.098 301.707 153.098 301.707 152.808 301.664C152.361 301.598 151.914 301.53 151.467 301.461C151.43 302.447 151.404 303.432 151.386 304.418C151.379 304.752 151.369 305.087 151.356 305.422C151.208 307.668 151.208 307.668 152.158 309.619C152.41 309.846 152.67 310.066 152.936 310.276C155.376 312.596 157.945 315.274 158.078 318.829C157.988 320.556 157.444 322.225 156.136 323.414C154.491 324.727 153.074 325.102 150.965 325.057C149.281 324.86 147.775 324.088 146.43 323.079C146.417 323.332 146.417 323.332 146.403 323.591C145.979 325.32 144.727 326.703 143.281 327.697C141.74 328.55 140.255 328.833 138.537 328.398C136.911 327.829 135.807 326.887 135.004 325.362C134.511 324.151 134.605 322.894 134.676 321.61C134.526 321.678 134.375 321.746 134.22 321.816C133.246 322.167 132.278 322.099 131.252 322.095C131.041 322.099 130.829 322.102 130.612 322.106C128.528 322.107 127.185 321.621 125.648 320.181C124.251 318.639 124.064 316.874 124.112 314.858C124.274 312.989 125.196 311.871 126.575 310.676C127.475 310.016 128.444 309.674 129.495 309.319C129.712 309.241 129.929 309.164 130.153 309.084C130.82 308.848 131.488 308.617 132.157 308.387C132.578 308.239 132.999 308.09 133.419 307.941C134.396 307.595 135.375 307.257 136.355 306.918C136.494 304.009 136.632 301.1 136.775 298.103C135.788 297.739 135.788 297.739 134.781 297.368C132.783 296.617 130.893 295.745 129.009 294.745C128.806 294.642 128.602 294.539 128.393 294.433C121.661 290.95 116.73 284.725 114.322 277.598C112.123 270.498 112.68 262.966 113.688 255.706C113.581 255.752 113.475 255.797 113.366 255.844C108.336 257.972 102.59 259.925 97.2084 257.905C94.4411 256.732 91.9214 254.775 90.7651 251.931C89.0898 247.143 90.3887 242.397 92.5114 237.973C93.509 235.98 94.7093 234.178 96.0573 232.409C96.1453 232.292 96.2333 232.175 96.324 232.055C97.5243 230.461 98.7657 228.903 100.045 227.372C100.18 227.209 100.18 227.209 100.318 227.044C102.743 224.141 105.353 221.419 108.021 218.74C108.184 218.576 108.347 218.412 108.515 218.243C109.506 217.255 110.525 216.317 111.589 215.408C111.823 215.205 112.057 215.001 112.291 214.797C113.475 213.775 114.631 212.827 115.996 212.05C115.383 211.554 114.731 211.175 114.038 210.8C111.475 209.413 109.19 207.814 107.066 205.816C106.621 205.399 106.166 205.004 105.699 204.612C99.671 199.333 95.8193 190.789 95.2686 182.862C95.0631 179.081 95.1569 175.319 96.0967 171.634C96.1507 171.42 96.1507 171.42 96.2059 171.201C96.4293 170.389 96.7004 169.61 97.022 168.833C97.9088 166.682 98.4924 164.603 98.9005 162.314C99.0652 161.395 99.2434 160.479 99.4212 159.562C99.4561 159.382 99.4909 159.201 99.5268 159.015C99.9896 156.649 100.607 154.331 101.304 152.023C101.361 151.834 101.418 151.645 101.477 151.45C104.393 141.927 109.08 133.189 115.996 125.998C116.095 125.894 116.193 125.791 116.295 125.685C117.474 124.457 118.696 123.328 120.028 122.269C120.42 121.955 120.806 121.633 121.186 121.305C122.981 119.752 124.908 118.451 126.91 117.182C127.053 117.092 127.196 117.001 127.344 116.907C135.509 111.776 145.014 108.676 154.51 107.239C154.742 107.204 154.973 107.169 155.212 107.132C156.562 106.941 157.87 106.854 159.233 106.898C159.233 106.76 159.233 106.621 159.233 106.478C159.094 106.435 158.956 106.392 158.813 106.347C158.253 106.09 157.906 105.85 157.435 105.468C155.65 104.106 153.74 103.636 151.54 103.446C150.797 103.323 150.38 103.16 149.788 102.7C149.223 101.856 149.18 100.953 149.368 99.9719C149.828 99.1304 150.333 98.6232 151.223 98.2584C153.744 97.5916 156.197 98.3153 158.444 99.4874C159.144 99.9054 159.822 100.348 160.492 100.811C160.633 100.909 160.775 101.006 160.92 101.106C161.975 101.837 163.019 102.58 164.06 103.33C164.241 103.46 164.241 103.46 164.427 103.593C166.18 104.853 166.18 104.853 166.929 105.475C167.371 105.891 167.371 105.891 167.838 105.849C167.987 105.479 167.987 105.479 168.14 105.101C168.196 104.962 168.252 104.823 168.309 104.68C169.025 102.371 168.989 99.4755 168.048 97.2434C167.979 97.0719 167.91 96.9003 167.839 96.7236C166.9 94.625 165.378 93.1215 163.465 91.8856C162.772 91.4143 162.439 91.1212 162.171 90.3172C162.093 89.2655 162.146 88.64 162.801 87.7986C164.663 86.1164 166.879 87.4218 168.586 88.6906ZM121.243 128.306C121.02 128.52 121.02 128.52 120.792 128.738C118.472 130.962 116.374 133.231 114.527 135.862C114.434 135.994 114.34 136.126 114.243 136.262C108.81 143.958 105.057 153.457 104.119 162.847C103.868 165.306 103.355 167.401 102.442 169.701C101.1 173.084 100.502 176.107 100.653 179.749C100.676 180.381 100.683 181.012 100.689 181.644C100.751 185.786 101.824 189.039 103.613 192.741C103.68 192.881 103.747 193.021 103.816 193.166C107.186 200.154 113.975 205.599 121.23 208.148C122.442 208.565 123.657 208.973 124.879 209.363C125.022 209.409 125.166 209.456 125.313 209.505C125.707 209.633 126.101 209.759 126.496 209.884C127.162 210.18 127.404 210.369 127.75 211.001C128.001 212.041 128.089 212.431 127.592 213.388C127.071 213.997 126.751 214.336 125.937 214.407C125.726 214.404 125.515 214.401 125.297 214.398C125.088 214.397 124.88 214.396 124.665 214.394C123.972 214.359 123.972 214.359 123.164 214.182C122.039 214.035 121.345 214.624 120.47 215.264C120.305 215.379 120.141 215.495 119.971 215.613C119.481 215.959 118.997 216.312 118.515 216.668C118.382 216.765 118.25 216.863 118.113 216.963C117.324 217.548 116.553 218.153 115.786 218.767C115.479 219.01 115.479 219.01 115.165 219.258C114.114 220.1 113.133 220.97 112.195 221.937C111.802 222.331 111.395 222.694 110.972 223.056C109.59 224.249 108.338 225.55 107.153 226.936C106.71 227.429 106.241 227.883 105.764 228.343C100.965 233.106 95.5714 240.784 95.3227 247.731C95.3879 249.38 95.8695 250.35 97.0674 251.469C99.3334 253.318 102.297 253.228 105.082 252.978C107.611 252.547 109.998 251.519 112.221 250.266C112.661 250.027 113.109 249.817 113.563 249.606C115.117 248.849 115.117 248.849 116.196 247.552C116.511 246.583 116.606 245.577 116.735 244.57C116.932 243.365 117.284 242.199 117.623 241.027C117.695 240.777 117.768 240.527 117.843 240.269C118.3 238.723 118.792 237.195 119.368 235.689C119.429 235.522 119.49 235.355 119.553 235.183C120.005 234.061 120.612 233.249 121.663 232.619C122.321 232.444 122.641 232.494 123.342 232.619C123.907 233.076 124.277 233.44 124.602 234.088C124.719 235.33 124.545 236.408 124.116 237.577C124.062 237.733 124.008 237.889 123.952 238.05C123.577 239.125 123.181 240.194 122.789 241.263C121.056 246.004 119.791 250.738 119.027 255.738C118.967 256.129 118.904 256.52 118.839 256.911C118.33 259.996 118.24 263.054 118.226 266.174C118.224 266.459 118.224 266.459 118.221 266.75C118.199 270.044 118.38 273.418 119.499 276.55C119.552 276.704 119.605 276.857 119.66 277.015C120.532 279.417 121.879 281.485 123.552 283.411C123.765 283.665 123.765 283.665 123.982 283.925C130.346 291.323 140.333 293.983 149.578 295.584C149.799 295.623 150.019 295.661 150.247 295.701C151.839 295.973 153.435 296.206 155.035 296.424C155.257 296.456 155.479 296.488 155.708 296.521C167.946 298.226 181.919 297.682 193.864 294.325C194.069 294.268 194.275 294.211 194.487 294.153C200.504 292.474 206.076 290.057 210.654 285.72C210.804 285.582 210.804 285.582 210.957 285.441C215.634 281.125 217.923 275.306 218.25 268.996C218.266 268.221 218.268 267.448 218.263 266.673C218.262 266.534 218.261 266.395 218.261 266.252C218.235 261.558 217.803 256.964 216.951 252.348C216.918 252.158 216.885 251.968 216.851 251.772C216.083 247.425 214.63 243.154 213.027 239.045C212.97 238.896 212.912 238.746 212.852 238.593C212.743 238.313 212.632 238.034 212.518 237.756C212.003 236.442 211.834 235.061 212.124 233.668C212.519 233.188 212.828 232.896 213.383 232.619C214.451 232.538 215.04 232.611 215.901 233.249C218.514 236.939 219.449 242.259 220.386 246.59C220.647 247.591 220.845 248.194 221.75 248.745C221.917 248.847 222.083 248.948 222.255 249.053C222.435 249.158 222.616 249.263 222.801 249.37C222.988 249.48 223.175 249.59 223.367 249.703C227.462 252.047 232.199 253.767 236.969 252.84C238.588 252.318 239.913 251.352 240.773 249.869C241.448 248.258 241.083 246.505 240.655 244.871C240.584 244.598 240.584 244.598 240.511 244.319C238.254 236.011 231.812 229.423 225.897 223.489C225.703 223.293 225.508 223.098 225.307 222.896C224.349 221.94 223.379 221.011 222.351 220.129C221.853 219.699 221.378 219.245 220.899 218.793C219.665 217.67 218.344 216.742 216.951 215.828C216.713 215.662 216.475 215.496 216.238 215.33C214.874 214.346 214.874 214.346 213.265 214.149C213.045 214.199 213.045 214.199 212.821 214.25C211.586 214.526 210.248 214.614 209.146 213.965C208.611 213.338 208.523 212.99 208.516 212.181C208.513 212.02 208.51 211.858 208.507 211.691C208.562 211.143 208.685 210.839 208.975 210.371C209.342 210.137 209.342 210.137 209.79 209.955C209.96 209.885 210.129 209.816 210.304 209.744C211.316 209.36 212.335 208.997 213.357 208.64C217.734 207.078 221.587 205.466 225.136 202.396C225.24 202.306 225.343 202.217 225.45 202.125C230.829 197.434 234.96 191.129 235.84 183.926C235.864 183.344 235.88 182.768 235.883 182.187C235.884 182.023 235.885 181.86 235.887 181.692C235.889 181.347 235.89 181.003 235.891 180.658C235.893 180.141 235.899 179.624 235.906 179.107C235.925 176.383 235.523 173.942 234.621 171.359C234.54 171.119 234.54 171.119 234.458 170.875C234.202 170.124 233.933 169.385 233.619 168.656C232.691 166.44 232.38 164.253 232.06 161.88C230.455 150.14 225.563 139.417 217.371 130.825C217.106 130.525 216.844 130.223 216.584 129.92C212.863 125.642 208.066 122.358 203.098 119.701C202.97 119.631 202.841 119.562 202.708 119.49C196.46 116.134 189.63 114.273 182.74 112.775C182.572 112.737 182.404 112.7 182.231 112.661C181.286 112.451 180.339 112.285 179.382 112.145C179.196 112.117 179.01 112.089 178.819 112.06C159.797 109.296 137.985 113.991 121.243 128.306Z" fill="black"/>
<path d="M174.594 168.027C178.194 170.25 182.436 173.424 183.709 177.638C184.108 179.676 183.469 181.498 182.373 183.217C179.685 186.973 175.692 189.748 171.196 190.852C171.067 190.888 170.937 190.925 170.804 190.962C166.905 191.83 163.137 190.6 159.863 188.543C156.78 186.474 153.853 183.805 153.021 180.04C152.727 178.226 153.084 176.758 154.122 175.231C154.485 174.76 154.86 174.304 155.245 173.851C155.499 173.527 155.499 173.527 155.757 173.195C156.442 172.427 157.18 171.777 157.974 171.123C158.078 171.036 158.182 170.949 158.29 170.859C163.505 166.532 168.406 164.603 174.594 168.027Z" fill="black"/>
<path d="M219.732 172.619C221.777 174.556 222.809 176.988 222.901 179.774C222.937 182.835 222.179 185.7 220.042 187.995C217.63 190.249 214.788 191.246 211.529 191.183C208.547 191.039 205.761 189.698 203.729 187.494C203.231 186.828 202.84 186.139 202.469 185.395C202.367 185.192 202.264 184.989 202.158 184.78C201.084 182.369 201.081 179.686 201.817 177.162C202.242 176.098 202.839 175.189 203.519 174.271C203.629 174.12 203.739 173.969 203.852 173.813C205.521 171.72 207.894 170.554 210.445 169.916C213.97 169.622 216.984 170.334 219.732 172.619Z" fill="#F4A99C"/>
<path d="M128.17 170.703C128.466 170.837 128.466 170.837 128.769 170.973C131.448 172.299 133.046 174.434 134.046 177.21C134.682 180.433 134.362 183.773 132.512 186.549C132.261 186.87 132.003 187.185 131.738 187.494C131.618 187.642 131.497 187.79 131.374 187.942C129.761 189.752 127.147 190.993 124.731 191.14C122.592 191.195 120.871 191.014 118.935 190.013C118.743 189.916 118.551 189.82 118.354 189.721C116.117 188.498 114.529 186.373 113.714 183.965C112.962 180.77 113.241 177.3 114.912 174.456C117.862 170.163 123.364 168.471 128.17 170.703Z" fill="#F4A99C"/>
<path d="M141.812 299.572C143.994 299.988 143.994 299.988 146.22 300.412C146.212 300.886 146.205 301.359 146.197 301.847C145.845 307.94 145.845 307.94 148.308 313.242C148.768 313.704 149.236 314.156 149.709 314.605C152.015 316.795 152.015 316.795 152.162 318.291C152.096 318.882 152.096 318.882 151.677 319.511C150.72 319.481 150.204 319.386 149.519 318.699C149.29 318.452 149.065 318.203 148.843 317.95C147.966 316.959 147.371 316.393 146.01 316.153C145.137 316.168 144.7 316.237 144.013 316.782C143.355 317.577 143.12 318.323 142.835 319.301C142.172 321.509 142.172 321.509 141.602 322.24C140.828 322.41 140.828 322.41 140.133 322.45C139.76 321.805 139.661 321.335 139.656 320.594C139.651 320.401 139.647 320.209 139.643 320.011C139.637 319.608 139.633 319.205 139.631 318.802C139.612 317.665 139.612 317.665 139.153 316.65C137.857 315.89 136.012 316.332 134.597 316.573C133.559 316.749 132.553 316.835 131.501 316.848C131.241 316.852 130.981 316.855 130.713 316.859C130.059 316.783 130.059 316.783 129.64 316.529C129.429 316.153 129.429 316.153 129.453 315.644C129.639 315.104 129.639 315.104 130.102 314.763C131.779 313.979 133.48 313.355 135.24 312.782C138.23 311.916 138.23 311.916 140.655 310.086C141.62 308.112 141.455 305.503 141.531 303.338C141.537 303.152 141.544 302.967 141.551 302.775C141.556 302.613 141.561 302.451 141.566 302.283C141.62 301.377 141.722 300.475 141.812 299.572Z" fill="#FFBB4D"/>
<path d="M194.913 299.782C194.919 300.098 194.919 300.098 194.926 300.42C194.942 301.211 194.961 302.002 194.98 302.794C194.988 303.134 194.995 303.475 195.002 303.815C194.909 307.396 194.909 307.396 196.22 310.584C197.986 312.113 200.539 312.677 202.729 313.357C204.307 313.85 205.729 314.347 207.087 315.313C207.008 315.93 207.008 315.93 206.877 316.573C205.681 317.171 204.016 316.749 202.745 316.573C201.586 316.417 200.438 316.307 199.268 316.284C199.016 316.278 198.764 316.272 198.504 316.266C197.724 316.382 197.491 316.589 197.012 317.202C196.761 317.705 196.763 318.051 196.743 318.613C196.735 318.808 196.727 319.004 196.719 319.205C196.712 319.41 196.705 319.615 196.697 319.826C196.683 320.23 196.668 320.635 196.651 321.039C196.645 321.219 196.639 321.399 196.632 321.584C196.592 322.03 196.592 322.03 196.382 322.45C195.713 322.463 195.713 322.463 194.913 322.24C193.891 321.117 193.605 319.526 193.274 318.091C192.979 317.288 192.634 316.902 191.975 316.363C191.168 316.034 190.424 316.124 189.587 316.31C188.594 316.792 187.916 317.739 187.217 318.567C186.612 319.215 186.21 319.473 185.337 319.577C185.173 319.555 185.008 319.533 184.839 319.511C184.371 318.81 184.36 318.478 184.49 317.659C185.027 315.891 186.84 314.538 188.131 313.306C190.546 310.762 190.39 307.412 190.335 304.085C190.332 303.746 190.329 303.407 190.327 303.069C190.32 302.253 190.309 301.437 190.296 300.622C190.868 300.48 191.441 300.34 192.014 300.202C192.176 300.162 192.337 300.122 192.503 300.08C193.322 299.884 194.064 299.727 194.913 299.782Z" fill="#FFBB4D"/>
<path d="M200.137 159.54C201.749 160.447 202.973 162.001 203.518 163.777C203.583 164.386 203.588 164.989 203.584 165.6C203.582 165.853 203.582 165.853 203.58 166.111C203.538 168.193 203.09 169.797 201.629 171.333C200.056 172.796 198.343 173.386 196.198 173.32C194.339 173.041 192.843 172.029 191.686 170.576C190.414 168.701 190.292 166.819 190.506 164.616C190.89 162.776 191.816 161.139 193.354 160.029C195.485 158.722 197.818 158.448 200.137 159.54Z" fill="black"/>
<path d="M142.615 159.677C144.176 160.776 145.234 162.143 145.8 163.987C146.114 166.234 145.917 168.361 144.777 170.336C143.627 171.823 142.329 172.63 140.553 173.222C138.647 173.415 137.13 173.105 135.577 171.965C134.054 170.673 133.262 169.535 132.997 167.555C132.813 165.238 132.888 163.453 134.257 161.468C134.794 160.838 134.794 160.838 135.306 160.419C135.466 160.271 135.626 160.124 135.791 159.973C137.811 158.563 140.48 158.419 142.615 159.677Z" fill="black"/>
<path d="M172.163 172.029C174.548 173.394 176.799 175.119 178.333 177.419C178.333 177.627 178.333 177.835 178.333 178.049C176.195 178.622 174.184 178.712 171.975 178.714C171.684 178.715 171.392 178.715 171.1 178.716C170.49 178.717 169.88 178.718 169.27 178.718C168.497 178.718 167.724 178.72 166.95 178.724C166.348 178.726 165.745 178.727 165.143 178.727C164.722 178.727 164.301 178.729 163.88 178.732C159.527 178.721 159.527 178.721 158.184 178.049C159.291 174.84 163.257 172.572 166.159 171.123C168.405 170.292 170.098 170.985 172.163 172.029Z" fill="#FFBB4D"/>
<path d="M177.492 182.876C176.344 183.804 175.185 184.503 173.846 185.119C173.681 185.198 173.516 185.278 173.346 185.359C170.639 186.626 168.155 187.141 165.227 186.234C163.105 185.457 161.078 184.393 159.232 183.086C159.232 183.017 159.232 182.948 159.232 182.876C159.431 182.877 159.63 182.877 159.835 182.878C161.712 182.882 163.589 182.885 165.467 182.887C166.432 182.888 167.397 182.89 168.362 182.892C169.294 182.894 170.226 182.896 171.159 182.896C171.513 182.896 171.868 182.897 172.223 182.898C172.722 182.9 173.221 182.9 173.719 182.9C173.864 182.901 174.01 182.902 174.159 182.902C174.888 182.901 175.591 182.858 176.311 182.757C177.073 182.666 177.073 182.666 177.492 182.876Z" fill="#FFBB4D"/>
<path d="M141.955 137.564C142.035 137.574 142.115 137.585 142.197 137.596C144.925 137.964 148.702 138.497 150.559 140.8C150.907 141.317 151.084 141.652 150.986 142.29C150.864 142.689 150.606 142.993 150.29 143.259C149.792 143.484 149.341 143.404 148.828 143.26C148.391 143.056 147.983 142.808 147.57 142.56C146.006 141.631 144.521 141.16 142.722 140.898C142.523 140.869 142.523 140.869 142.321 140.839C141.135 140.68 139.957 140.626 138.772 140.82C138.696 140.831 138.621 140.843 138.543 140.855C137.964 140.948 137.401 141.08 136.837 141.241C136.302 141.382 135.755 141.422 135.249 141.155C134.951 140.945 134.791 140.768 134.616 140.444C134.519 139.86 134.563 139.311 134.851 138.788C135.439 138.288 136.126 138.08 136.863 137.905C136.956 137.883 137.049 137.86 137.144 137.837C138.72 137.478 140.351 137.345 141.955 137.564Z" fill="black"/>
<path d="M202.531 145.004C202.634 145.06 202.634 145.06 202.739 145.116C203.275 145.43 203.706 145.838 203.912 146.476C203.964 147.114 203.91 147.544 203.603 148.113C203.174 148.556 202.803 148.757 202.204 148.747C201.617 148.661 201.059 148.403 200.504 148.188C198.981 147.596 197.622 147.345 196.004 147.351C195.89 147.351 195.89 147.351 195.774 147.351C193.797 147.359 191.804 147.552 189.957 148.371C189.392 148.611 188.916 148.626 188.323 148.471C187.802 148.151 187.62 147.77 187.444 147.156C187.37 146.596 187.388 146.203 187.623 145.692C188.586 144.478 189.796 144.236 191.215 144.002C191.434 143.966 191.653 143.928 191.872 143.889C195.327 143.3 199.324 143.284 202.531 145.004Z" fill="black"/>
<path d="M247.039 135.946C250.862 136.315 254.529 137.636 257.334 140.354L257.603 140.621L257.62 140.638L257.636 140.655C260.211 143.412 261.23 146.814 260.902 150.261L260.9 150.274C260.44 154.786 257.626 157.836 254.268 160.227L254.266 160.228C254.16 160.303 254.053 160.378 253.947 160.453C253.893 160.492 253.839 160.531 253.783 160.57L253.783 160.571C253.507 160.767 253.229 160.961 252.95 161.156C251.916 161.882 251.328 162.505 250.943 163.136C250.555 163.772 250.29 164.551 250.098 165.721L250.094 165.742C250.079 165.823 250.066 165.904 250.051 165.988C250.04 166.053 250.029 166.117 250.019 166.184L249.995 166.33L249.949 166.47C249.747 167.103 249.434 167.527 249.018 167.91L248.755 168.152L248.424 168.288C247.606 168.623 246.945 168.648 246.244 168.579L246.245 168.58C246.15 168.571 246.15 168.571 246.054 168.562L244.99 168.455C244.685 168.424 244.379 168.393 244.075 168.362C243.696 168.322 243.315 168.285 242.931 168.247L241.61 168.114C241.401 168.094 241.194 168.073 240.993 168.051L240.993 168.05L240.56 168.006L240.461 167.987C239.511 167.791 238.965 167.321 238.585 166.972L238.32 166.728L238.156 166.407C237.611 165.335 237.849 164.26 237.876 164.042C237.886 163.956 237.896 163.869 237.907 163.78L237.908 163.761C238.179 161.598 238.814 159.738 239.916 158.073C241.007 156.425 242.488 155.072 244.298 153.819L244.312 153.81L244.324 153.801C244.616 153.606 244.911 153.426 245.165 153.271C246.009 152.743 246.785 152.157 247.466 151.517L247.479 151.506L247.491 151.494C247.561 151.431 247.63 151.367 247.702 151.301C248.587 150.465 248.921 149.707 248.948 148.661C248.889 148.235 248.654 147.761 248.227 147.376C247.618 146.959 246.954 146.702 246.135 146.578L246.126 146.577C246.059 146.566 245.991 146.556 245.922 146.545C244.747 146.396 243.856 146.522 243.166 146.913C242.425 147.43 241.841 148.101 241.174 148.993L241.169 149C241.13 149.051 241.091 149.101 241.051 149.153C240.996 149.229 240.996 149.231 240.939 149.309L240.862 149.415L240.772 149.51C240.151 150.162 239.458 150.378 238.905 150.484L238.703 150.523L238.498 150.52C237.495 150.505 236.565 150.069 235.99 149.772C235.669 149.605 235.361 149.428 235.11 149.283C234.975 149.205 234.859 149.14 234.758 149.083L234.492 148.939C234.248 148.815 234.003 148.691 233.757 148.567L233.755 148.567C233.597 148.487 233.439 148.407 233.281 148.327L233.281 148.326C233.208 148.289 233.136 148.253 233.061 148.215L233.058 148.214C232.546 147.953 232.118 147.74 231.815 147.54C231.347 147.23 231.107 146.914 230.947 146.71L230.695 146.39L230.589 145.995C230.231 144.667 230.687 143.639 231.179 142.905L231.177 142.905C231.228 142.827 231.229 142.827 231.281 142.747L231.29 142.733C232.302 141.222 233.506 139.988 234.973 138.88C235.048 138.822 235.125 138.763 235.203 138.703L235.215 138.694L235.228 138.683C237.34 137.108 239.782 136.251 242.374 135.897L242.374 135.896C242.448 135.886 242.524 135.875 242.601 135.864L242.612 135.863L242.623 135.862C244.124 135.664 245.571 135.805 246.796 135.924L246.796 135.923C246.874 135.93 246.953 135.937 247.034 135.945L247.039 135.946Z" fill="#FFF288" stroke="black" stroke-width="4"/>
<path d="M238.651 168.958C241.331 167.435 245.243 167.36 247.865 169.729L247.89 169.75L247.913 169.773C248 169.857 248.001 169.857 248.09 169.943L248.259 170.103L248.28 170.123L248.299 170.143C249.755 171.608 250.297 173.456 250.204 175.247L250.201 175.332L250.188 175.417C249.944 177.184 249 178.758 247.513 179.85L247.47 179.882L247.424 179.911C245.4 181.234 243.441 181.353 241.366 181.082L241.337 181.078L241.308 181.073C239.385 180.764 237.98 179.632 237.018 178.562L236.979 178.519L236.942 178.472C235.703 176.919 235.337 175.077 235.602 173.329L235.612 173.27L235.624 173.211C235.999 171.462 237.047 170.029 238.524 169.037L238.586 168.996L238.651 168.958Z" fill="#FFF288" stroke="black" stroke-width="4"/>
<path d="M168.302 71.719C169.094 72.3257 169.556 73.2262 169.693 74.2104C169.773 75.2796 169.429 76.2615 168.75 77.0829C168.455 77.3956 168.11 77.6459 167.728 77.8434C167.669 77.8434 167.61 77.8434 167.549 77.8434C167.856 78.3282 168.171 78.8065 168.492 79.2812C168.529 79.3347 168.565 79.3883 168.602 79.4435C168.753 79.6654 168.904 79.8873 169.055 80.109C169.523 80.7966 169.975 81.4898 170.403 82.2029C170.535 82.4211 170.673 82.6354 170.81 82.85C172.158 84.9719 173.405 87.1682 174.629 89.3629C174.847 89.7533 175.069 90.1417 175.292 90.5291C175.485 90.4447 175.608 90.343 175.753 90.1904C175.986 89.9519 176.229 89.7329 176.483 89.5167C176.619 89.4001 176.756 89.2834 176.892 89.1668C176.929 89.1358 176.965 89.1049 177.002 89.073C177.213 88.8926 177.421 88.7096 177.626 88.5228C177.899 88.2751 178.182 88.0419 178.469 87.81C178.622 87.6856 178.774 87.56 178.926 87.4345C179.144 87.2548 179.362 87.0755 179.58 86.8961C179.62 86.8629 179.661 86.8297 179.702 86.7955C180.183 86.4003 180.67 86.0148 181.166 85.6389C181.506 85.38 181.839 85.1127 182.169 84.8407C182.432 84.6246 182.701 84.4183 182.975 84.2161C182.94 84.1741 182.94 84.1741 182.905 84.1313C182.183 83.2449 181.853 82.1323 181.962 81C182.126 80.041 182.69 79.2051 183.444 78.5991C184.275 78.0135 185.204 77.9266 186.191 78.0221C187.136 78.2055 188.076 78.8487 188.622 79.6339C189.126 80.5002 189.286 81.5276 189.056 82.5098C188.798 83.4218 188.199 84.2162 187.382 84.6925C187.028 84.8653 186.699 84.989 186.31 85.0499C186.311 85.098 186.313 85.1461 186.315 85.1956C186.328 86.0204 186.256 86.8392 186.19 87.6608C186.18 87.787 186.17 87.9133 186.16 88.0395C186.043 89.5081 185.904 90.9736 185.746 92.4383C185.711 92.7603 185.678 93.0825 185.645 93.4047C185.589 93.957 185.531 94.5089 185.471 95.0609C185.447 95.2886 185.422 95.5164 185.398 95.7441C185.392 95.8023 185.385 95.8605 185.379 95.9204C185.266 96.9754 185.16 98.031 185.055 99.0868C184.957 100.077 184.858 101.068 184.747 102.057C184.739 102.122 184.739 102.122 184.732 102.187C184.695 102.513 184.658 102.838 184.621 103.164C184.585 103.478 184.552 103.793 184.523 104.108C184.517 104.168 184.51 104.227 184.504 104.289C184.48 104.645 184.579 104.824 184.789 105.108C185.277 105.811 185.129 106.87 185.131 107.681C185.131 107.741 185.131 107.801 185.131 107.862C185.132 108.177 185.133 108.492 185.133 108.808C185.133 109.131 185.135 109.455 185.137 109.779C185.138 110.029 185.138 110.28 185.138 110.531C185.138 110.65 185.139 110.769 185.139 110.888C185.149 112.46 185.149 112.46 184.776 112.908C181.613 115.623 174.758 115.387 170.819 115.547C170.723 115.551 170.723 115.551 170.626 115.555C169.27 115.609 167.914 115.621 166.557 115.618C166.239 115.618 165.921 115.618 165.603 115.619C152.963 115.642 152.963 115.642 147.47 112.977C146.857 112.347 146.984 111.286 146.986 110.472C146.986 110.356 146.986 110.24 146.986 110.125C146.986 109.883 146.986 109.641 146.986 109.399C146.987 109.092 146.987 108.784 146.986 108.476C146.986 108.237 146.986 107.998 146.986 107.759C146.986 107.646 146.986 107.533 146.986 107.419C146.982 105.444 146.982 105.444 147.513 104.834C147.618 104.673 147.614 104.595 147.599 104.405C147.595 104.343 147.591 104.281 147.586 104.218C147.577 104.114 147.577 104.114 147.568 104.008C147.559 103.895 147.559 103.895 147.55 103.779C147.483 102.947 147.393 102.116 147.306 101.285C147.228 100.537 147.154 99.7894 147.086 99.0407C147.082 98.9974 147.078 98.9541 147.074 98.9095C147.035 98.4788 146.995 98.0482 146.957 97.6175C146.946 97.4954 146.935 97.3733 146.924 97.2512C146.91 97.1022 146.897 96.9531 146.884 96.804C146.845 96.374 146.792 95.9474 146.734 95.5196C146.684 95.1415 146.648 94.7622 146.612 94.3827C146.603 94.296 146.595 94.2094 146.587 94.1228C146.564 93.8912 146.542 93.6595 146.521 93.4278C146.507 93.2826 146.493 93.1373 146.479 92.992C146.294 91.036 146.143 89.0781 146.005 87.1182C145.989 86.8856 145.972 86.6531 145.955 86.4206C145.949 86.3438 145.944 86.267 145.938 86.1878C145.927 86.0417 145.917 85.8956 145.906 85.7495C145.901 85.6845 145.897 85.6195 145.892 85.5525C145.888 85.4955 145.884 85.4385 145.879 85.3797C145.872 85.2501 145.87 85.1201 145.87 84.9903C145.797 84.9879 145.723 84.9854 145.647 84.9829C144.908 84.8992 144.228 84.3699 143.764 83.8124C143.36 83.2606 143.043 82.5836 143.012 81.8933C143.007 81.8212 143.007 81.8212 143.002 81.7477C142.965 80.6937 143.372 79.743 144.084 78.975C144.68 78.3359 145.525 78.0186 146.382 77.9439C147.368 77.9108 148.247 78.1867 149.005 78.8261C149.72 79.509 150.17 80.4209 150.233 81.4131C150.219 82.3599 149.885 83.3358 149.223 84.0241C149.197 84.0482 149.172 84.0722 149.146 84.097C149.211 84.2931 149.246 84.3227 149.406 84.4415C149.447 84.4728 149.489 84.5041 149.531 84.5363C149.576 84.5695 149.621 84.6026 149.667 84.6367C149.76 84.7066 149.853 84.7766 149.946 84.8465C149.993 84.8811 150.039 84.9156 150.086 84.9512C150.266 85.0854 150.443 85.2219 150.62 85.3588C150.806 85.5021 150.992 85.6452 151.179 85.7874C151.664 86.1573 152.139 86.5398 152.611 86.9264C152.707 87.0047 152.802 87.0827 152.898 87.1607C153.481 87.6344 154.055 88.1163 154.61 88.621C154.731 88.73 154.852 88.837 154.975 88.9434C155.235 89.1698 155.489 89.4027 155.742 89.6362C155.878 89.7621 156.016 89.8869 156.154 90.0113C156.225 90.0759 156.296 90.1406 156.367 90.2053C156.402 90.2358 156.436 90.2664 156.471 90.2978C156.553 90.3725 156.632 90.4506 156.71 90.5291C156.71 90.5685 156.71 90.6078 156.71 90.6483C156.871 90.5044 156.961 90.3521 157.061 90.1616C157.094 90.0993 157.127 90.0371 157.161 89.973C157.197 89.9059 157.232 89.8389 157.268 89.7698C157.344 89.6282 157.419 89.4867 157.495 89.3452C157.523 89.2915 157.523 89.2915 157.552 89.2367C157.826 88.7256 158.114 88.2227 158.401 87.7191C158.497 87.551 158.591 87.3824 158.686 87.2137C159.092 86.4874 159.513 85.771 159.944 85.0585C160.12 84.7668 160.294 84.4736 160.466 84.1797C160.819 83.5777 161.184 82.9847 161.56 82.3969C161.658 82.2433 161.755 82.0892 161.852 81.935C162.572 80.792 163.339 79.6833 164.116 78.5787C164.288 78.3339 164.459 78.0886 164.631 77.8434C164.585 77.8349 164.539 77.8265 164.491 77.8177C163.945 77.7006 163.443 77.2421 163.135 76.7935C162.564 75.8999 162.328 74.9094 162.526 73.854C162.753 72.9182 163.236 72.0607 164.073 71.5485C165.446 70.7908 166.995 70.791 168.302 71.719Z" fill="black"/>
<path d="M166.06 78.7368C166.287 78.9439 166.449 79.1798 166.619 79.4329C166.668 79.5048 166.668 79.5048 166.717 79.5781C166.836 79.754 166.955 79.9303 167.073 80.1066C167.124 80.1817 167.174 80.2568 167.225 80.3319C167.888 81.3173 168.545 82.3047 169.157 83.3227C169.191 83.3775 169.224 83.4323 169.258 83.4888C169.835 84.4444 170.404 85.4051 170.974 86.3656C171.127 86.6245 171.281 86.8832 171.435 87.1418C172.15 88.3448 172.859 89.5504 173.522 90.7833C173.742 91.1937 173.968 91.6015 174.198 92.0069C174.227 92.0596 174.257 92.1122 174.287 92.1665C174.315 92.2149 174.343 92.2634 174.371 92.3133C174.407 92.3769 174.407 92.3769 174.444 92.4417C174.519 92.5564 174.592 92.6443 174.696 92.7328C174.856 92.768 174.856 92.768 175.035 92.7663C175.094 92.7688 175.153 92.7714 175.214 92.774C175.794 92.6527 176.219 92.0528 176.615 91.6458C176.961 91.2899 177.315 90.9587 177.703 90.6488C177.904 90.488 178.098 90.3193 178.292 90.1495C178.667 89.8227 179.045 89.5002 179.426 89.1798C179.521 89.099 179.616 89.0178 179.711 88.9365C180.07 88.6304 180.433 88.333 180.804 88.0437C181.075 87.8324 181.343 87.6163 181.609 87.3987C184.344 85.169 184.344 85.169 184.642 85.169C184.667 86.0213 184.593 86.8629 184.52 87.7114C184.51 87.8284 184.5 87.9454 184.49 88.0624C184.33 89.9385 184.137 91.8112 183.94 93.6837C183.928 93.8025 183.916 93.9214 183.903 94.0403C183.835 94.6925 183.766 95.3447 183.697 95.9968C183.604 96.8802 183.512 97.7638 183.421 98.6476C183.416 98.7052 183.41 98.7629 183.404 98.8223C183.331 99.5306 183.26 100.239 183.191 100.948C183.167 101.193 183.143 101.438 183.118 101.684C183.091 101.96 183.064 102.236 183.038 102.512C183.023 102.657 183.009 102.803 182.995 102.948C182.988 103.014 182.982 103.079 182.976 103.147C182.935 103.551 182.875 103.948 182.796 104.346C179.986 105.01 177.113 105.35 174.239 105.586C174.116 105.596 173.993 105.606 173.87 105.617C173.416 105.655 172.961 105.685 172.506 105.709C172.414 105.714 172.322 105.719 172.23 105.724C170.243 105.833 168.257 105.847 166.268 105.847C166.138 105.847 166.008 105.847 165.879 105.847C164.31 105.847 162.744 105.838 161.177 105.776C161.11 105.773 161.043 105.771 160.974 105.768C160.541 105.75 160.109 105.729 159.677 105.705C159.611 105.701 159.545 105.698 159.477 105.694C156.833 105.545 154.193 105.303 151.588 104.823C151.511 104.809 151.511 104.809 151.432 104.794C149.584 104.453 149.584 104.453 149.265 104.346C149.261 104.295 149.256 104.244 149.251 104.192C149.206 103.699 149.16 103.206 149.115 102.713C149.091 102.46 149.068 102.207 149.044 101.954C148.941 100.826 148.831 99.6997 148.708 98.5738C148.625 97.8261 148.552 97.078 148.487 96.3286C148.429 95.658 148.365 94.989 148.288 94.3204C148.171 93.2919 148.086 92.2606 147.998 91.2292C147.98 91.022 147.963 90.8149 147.945 90.6077C147.857 89.5916 147.771 88.5754 147.688 87.5589C147.681 87.4655 147.673 87.3722 147.665 87.2788C147.607 86.5761 147.562 85.8737 147.538 85.169C147.849 85.3383 148.128 85.5276 148.409 85.7422C148.451 85.7737 148.492 85.8051 148.535 85.8375C148.659 85.932 148.784 86.0269 148.908 86.1219C148.943 86.1486 148.978 86.1752 149.014 86.2026C149.483 86.5606 149.948 86.9249 150.411 87.2903C150.514 87.3712 150.617 87.4519 150.72 87.5325C151.776 88.3571 152.8 89.2119 153.792 90.1123C154.202 90.4835 154.202 90.4835 154.618 90.8493C155.172 91.3341 155.702 91.8372 156.218 92.3624C156.277 92.4216 156.277 92.4216 156.336 92.482C156.388 92.5352 156.388 92.5352 156.442 92.5894C156.622 92.7579 156.786 92.7499 157.026 92.7588C157.094 92.7625 157.161 92.7661 157.23 92.7698C157.446 92.7288 157.519 92.6705 157.647 92.4951C157.809 92.2388 157.956 91.9752 158.102 91.7092C158.138 91.644 158.174 91.5788 158.211 91.5117C158.288 91.3735 158.364 91.2353 158.44 91.097C158.628 90.7558 158.817 90.4155 159.007 90.075C159.063 89.9741 159.063 89.9741 159.12 89.8711C159.689 88.8468 160.267 87.8294 160.867 86.8226C161.122 86.3937 161.375 85.9632 161.626 85.5321C162.051 84.804 162.484 84.0806 162.926 83.3624C163.021 83.2077 163.115 83.0526 163.209 82.8975C164.083 81.4656 165.009 80.045 166.06 78.7368Z" fill="#F8E482"/>
<path d="M148.729 105.955C149.235 105.994 149.729 106.082 150.228 106.173C152.376 106.562 154.535 106.887 156.71 107.086C156.755 107.09 156.799 107.094 156.845 107.099C159.824 107.372 162.808 107.404 165.797 107.399C166.118 107.399 166.44 107.399 166.761 107.399C168.712 107.402 170.66 107.401 172.609 107.28C172.923 107.26 173.238 107.244 173.553 107.228C176.233 107.079 178.896 106.665 181.54 106.216C181.579 106.21 181.618 106.203 181.659 106.196C181.871 106.16 182.083 106.122 182.295 106.083C182.341 106.075 182.386 106.067 182.433 106.058C182.52 106.042 182.606 106.026 182.693 106.01C182.929 105.967 183.152 105.941 183.392 105.955C183.506 106.069 183.458 106.24 183.459 106.392C183.458 106.446 183.458 106.501 183.458 106.557C183.458 106.614 183.458 106.671 183.458 106.729C183.458 106.918 183.457 107.108 183.457 107.297C183.457 107.427 183.457 107.558 183.457 107.689C183.456 108.034 183.456 108.379 183.455 108.724C183.455 109.076 183.454 109.427 183.454 109.779C183.453 110.47 183.452 111.16 183.451 111.851C183.375 111.889 183.298 111.928 183.221 111.966C183.179 111.988 183.136 112.009 183.092 112.031C179.958 113.569 175.743 113.599 172.336 113.801C172.277 113.805 172.218 113.808 172.157 113.812C170.237 113.924 168.318 113.947 166.395 113.946C166.338 113.946 166.281 113.946 166.223 113.946C164.201 113.946 162.184 113.916 160.164 113.816C160.101 113.813 160.038 113.81 159.973 113.807C151.746 113.409 151.746 113.409 148.67 111.851C148.668 111.1 148.667 110.348 148.666 109.597C148.666 109.248 148.666 108.9 148.665 108.551C148.664 108.215 148.664 107.878 148.664 107.542C148.664 107.413 148.664 107.285 148.663 107.156C148.663 106.977 148.663 106.797 148.663 106.618C148.663 106.564 148.662 106.51 148.662 106.455C148.663 106.087 148.663 106.087 148.729 105.955Z" fill="#F8E482"/>
<path d="M167.561 92.384C168.878 93.2588 169.45 94.4836 169.801 95.9763C170.093 97.5521 169.796 99.3347 168.978 100.713C168.829 100.922 168.669 101.116 168.502 101.309C168.465 101.358 168.427 101.407 168.389 101.458C167.949 101.98 167.27 102.375 166.596 102.5C165.566 102.572 164.795 102.328 163.996 101.651C162.854 100.58 162.352 98.9865 162.292 97.4536C162.255 95.9469 162.52 94.2915 163.586 93.1464C164.682 92.0245 166.134 91.5497 167.561 92.384Z" fill="black"/>
<path d="M166.423 93.5971C167.049 93.8601 167.532 94.5087 167.787 95.1149C168.232 96.282 168.408 97.8605 167.906 99.0457C167.89 99.0846 167.873 99.1236 167.856 99.1638C167.551 99.8777 167.149 100.475 166.476 100.892C166.154 101 165.825 101.011 165.516 100.862C165.431 100.788 165.431 100.788 165.345 100.713C165.308 100.683 165.272 100.654 165.234 100.623C164.592 100.052 164.302 99.2012 164.094 98.3905C164.075 98.3169 164.056 98.2433 164.036 98.1674C163.764 96.9752 163.901 95.6919 164.531 94.6226C165.008 93.9526 165.552 93.3836 166.423 93.5971Z" fill="#7D5232"/>
<path d="M166.953 72.8406C167.482 73.1255 167.761 73.5808 167.941 74.1402C168.059 74.7591 167.991 75.3036 167.644 75.825C167.335 76.227 166.856 76.4962 166.358 76.5927C165.794 76.6431 165.232 76.4641 164.794 76.1021C164.353 75.6579 164.214 75.1943 164.188 74.5827C164.195 74.0628 164.367 73.6729 164.634 73.2352C165.303 72.6371 166.132 72.5044 166.953 72.8406Z" fill="#F8E482"/>
<path d="M186.362 79.7953C186.925 80.121 187.239 80.5725 187.441 81.1786C187.487 81.6955 187.453 82.2178 187.148 82.652C186.794 83.0647 186.35 83.4524 185.79 83.5214C185.092 83.5308 184.554 83.3305 184.047 82.8463C183.63 82.3337 183.627 81.6893 183.689 81.0595C183.801 80.5755 184.142 80.2036 184.527 79.9056C185.053 79.6146 185.797 79.5668 186.362 79.7953Z" fill="#F8E482"/>
<path d="M147.657 79.928C148.093 80.2335 148.386 80.591 148.491 81.1191C148.543 81.7475 148.467 82.2971 148.074 82.8054C147.727 83.1712 147.211 83.4151 146.709 83.4561C146.073 83.4705 145.67 83.3356 145.203 82.9019C144.781 82.4476 144.705 82.0232 144.718 81.4148C144.762 80.9037 144.98 80.4592 145.332 80.0881C146.034 79.5052 146.879 79.4904 147.657 79.928Z" fill="#F8E482"/>
</svg>
