<svg width="186" height="297" viewBox="0 0 186 297" fill="none" xmlns="http://www.w3.org/2000/svg">
<path d="M90.3608 20.9439C93.8548 23.7727 96.3609 28.2528 96.9824 32.7089C97.2071 35.5476 97.2363 38.449 96.2584 41.1556C96.6541 41.1692 96.6541 41.1692 97.0578 41.183C102.2 41.3886 107.186 42.1226 112.186 43.3276C112.518 43.4054 112.518 43.4054 112.856 43.4848C118.991 44.9364 124.88 47.0457 130.528 49.8436C130.748 49.9522 130.968 50.0608 131.195 50.1726C135.882 52.5047 140.213 55.2402 144.284 58.5316C144.43 58.6497 144.577 58.7678 144.727 58.8895C148.034 61.5827 151.072 64.5808 153.696 67.9437C154.067 68.3916 154.439 68.8391 154.812 69.2861C157.714 72.8537 159.943 76.8722 161.926 81.0104C162.131 81.4336 162.341 81.8538 162.552 82.2738C165.941 89.2022 168.025 96.7734 169.452 104.329C170.087 107.64 170.894 110.782 172.003 113.959C172.825 116.315 173.437 118.557 173.726 121.037C173.769 121.319 173.812 121.601 173.856 121.892C175.055 131.689 172.247 141.695 166.245 149.514C162.775 153.931 158.744 157.474 153.937 160.374C153.784 160.467 153.63 160.56 153.472 160.655C150.715 162.305 150.715 162.305 149.834 162.305C149.834 162.464 149.834 162.624 149.834 162.788C150.009 162.848 150.184 162.908 150.363 162.971C151.505 163.475 152.374 164.319 153.318 165.123C153.686 165.434 154.059 165.739 154.433 166.043C156.336 167.609 158.094 169.312 159.835 171.053C160.006 171.224 160.006 171.224 160.18 171.398C161.395 172.613 162.579 173.841 163.698 175.145C164.277 175.815 164.885 176.456 165.491 177.102C166.559 178.251 167.581 179.425 168.562 180.649C168.994 181.187 169.43 181.72 169.871 182.25C173.697 186.866 176.983 191.547 178.871 197.281C179.008 197.696 179.153 198.108 179.301 198.52C180.299 201.714 180.312 206.114 178.794 209.124C178.71 209.294 178.625 209.464 178.538 209.639C176.612 213.043 173.746 214.939 170.106 216.122C164.293 217.463 157.905 215.642 152.73 212.985C152.81 213.144 152.89 213.304 152.972 213.468C154.825 225.372 154.223 237.968 146.906 247.988C141.679 254.91 134.404 258.737 126.425 261.735C126.425 265.159 126.425 268.584 126.425 272.112C127.142 272.271 127.859 272.43 128.597 272.595C129.683 272.929 130.754 273.306 131.825 273.686C132.32 273.861 132.816 274.031 133.313 274.202C136.296 275.244 138.682 276.374 140.392 279.111C141.091 280.948 140.952 283.557 140.222 285.371C139.161 287.24 137.702 288.529 135.64 289.134C135.066 289.257 134.548 289.278 133.961 289.279C133.742 289.279 133.523 289.279 133.297 289.28C133.07 289.279 132.843 289.278 132.609 289.277C132.271 289.278 132.271 289.278 131.927 289.28C130.79 289.278 129.715 289.241 128.597 289.005C128.608 289.172 128.62 289.338 128.631 289.51C128.719 291.798 128.148 293.458 126.598 295.158C125.224 296.363 123.572 296.818 121.78 296.795C119.906 296.606 118.09 295.649 116.772 294.315C115.931 293.172 115.217 291.971 114.6 290.695C114.448 290.794 114.296 290.892 114.14 290.994C111.855 292.432 109.847 292.981 107.118 292.625C105.335 292.031 103.735 291.145 102.774 289.488C101.689 287.3 101.426 285.21 102.156 282.866C103.1 280.536 104.81 278.685 106.601 276.964C107.263 276.314 107.865 275.623 108.467 274.918C108.73 274.615 109.007 274.326 109.29 274.043C109.35 273.404 109.381 272.788 109.39 272.148C109.395 271.961 109.4 271.774 109.405 271.582C109.419 270.984 109.43 270.387 109.441 269.789C109.45 269.384 109.46 268.98 109.47 268.575C109.493 267.582 109.513 266.589 109.532 265.596C109.357 265.626 109.182 265.657 109.003 265.688C102.983 266.715 97.0868 266.913 90.9978 266.88C90.1661 266.877 89.3345 266.878 88.5028 266.88C84.2302 266.884 79.9906 266.86 75.745 266.32C75.4557 266.284 75.1663 266.249 74.8682 266.212C74.2036 266.126 73.5416 266.03 72.8792 265.928C72.5526 265.879 72.5526 265.879 72.2193 265.83C71.705 265.753 71.191 265.675 70.677 265.596C70.635 266.729 70.6045 267.862 70.5842 268.996C70.5758 269.38 70.5643 269.765 70.5496 270.15C70.3793 272.733 70.3793 272.733 71.4717 274.976C71.7618 275.237 72.0602 275.49 72.3664 275.732C75.1724 278.399 78.1255 281.479 78.2791 285.566C78.175 287.552 77.5496 289.471 76.0458 290.838C74.1545 292.348 72.5255 292.779 70.1001 292.727C68.1634 292.501 66.4323 291.614 64.885 290.453C64.8701 290.744 64.8701 290.744 64.8549 291.041C64.3666 293.029 62.9278 294.621 61.265 295.763C59.4933 296.744 57.7852 297.069 55.8096 296.569C53.9402 295.915 52.6711 294.832 51.7474 293.078C51.1805 291.686 51.2882 290.24 51.3704 288.764C51.1973 288.842 51.0243 288.92 50.846 289.001C49.726 289.404 48.6131 289.326 47.4336 289.322C47.1905 289.326 46.9474 289.33 46.6969 289.334C44.3012 289.335 42.7574 288.776 40.9892 287.121C39.3834 285.347 39.1679 283.318 39.2235 281.001C39.4098 278.851 40.4695 277.565 42.0554 276.192C43.0904 275.432 44.2041 275.039 45.4124 274.631C45.6622 274.542 45.912 274.453 46.1694 274.361C46.9362 274.089 47.7051 273.824 48.4743 273.56C48.9581 273.389 49.4418 273.219 49.9252 273.047C51.0485 272.649 52.1744 272.26 53.301 271.871C53.4603 268.526 53.6196 265.181 53.7837 261.735C52.6488 261.316 52.6488 261.316 51.491 260.89C49.1935 260.026 47.0202 259.024 44.8543 257.873C44.6204 257.755 44.3865 257.637 44.1454 257.515C36.4051 253.51 30.7352 246.352 27.9666 238.157C25.4383 229.993 26.0785 221.332 27.237 212.985C27.1148 213.037 26.9926 213.089 26.8667 213.143C21.0839 215.59 14.4762 217.836 8.28853 215.513C5.10654 214.165 2.20932 211.914 0.879775 208.644C-1.04661 203.139 0.446938 197.682 2.88775 192.594C4.03483 190.304 5.41489 188.232 6.96496 186.197C7.06615 186.063 7.16733 185.928 7.27158 185.79C8.65176 183.958 10.0791 182.165 11.5503 180.405C11.7059 180.218 11.7059 180.218 11.8646 180.028C14.652 176.69 17.6535 173.56 20.721 170.48C20.9084 170.292 21.0959 170.103 21.289 169.909C22.4283 168.773 23.6008 167.694 24.8237 166.649C25.0927 166.415 25.3617 166.18 25.6306 165.946C26.993 164.771 28.3214 163.681 29.8917 162.788C29.1864 162.217 28.4371 161.782 27.6402 161.351C24.693 159.755 22.0657 157.916 19.6227 155.619C19.1111 155.14 18.5884 154.686 18.0512 154.236C11.1201 148.165 6.69129 138.341 6.05808 129.226C5.82177 124.879 5.92963 120.553 7.01021 116.316C7.07237 116.069 7.07237 116.069 7.13577 115.817C7.39272 114.884 7.70437 113.988 8.07418 113.094C9.09386 110.621 9.76485 108.232 10.2342 105.6C10.4235 104.543 10.6284 103.489 10.8329 102.435C10.873 102.227 10.913 102.02 10.9543 101.806C11.4864 99.0854 12.1959 96.4197 12.9983 93.7664C13.0638 93.5489 13.1293 93.3315 13.1967 93.1075C16.5499 82.1576 21.9388 72.1102 29.8917 63.841C30.0049 63.7224 30.1182 63.6038 30.2349 63.4817C31.5904 62.0693 32.9953 60.771 34.5279 59.5535C34.9786 59.1925 35.4224 58.8228 35.859 58.4449C37.9229 56.6596 40.1385 55.164 42.441 53.705C42.6055 53.6004 42.77 53.4959 42.9395 53.3882C52.3276 47.4889 63.2572 43.9244 74.1764 42.2718C74.4426 42.2313 74.7088 42.1908 74.9831 42.1491C76.5351 41.9289 78.0393 41.8284 79.6064 41.8796C79.6064 41.7203 79.6064 41.5611 79.6064 41.397C79.4471 41.3472 79.2878 41.2974 79.1237 41.2461C78.4798 40.951 78.0811 40.675 77.54 40.2355C75.4865 38.6686 73.2906 38.1289 70.7609 37.9108C69.9068 37.7693 69.4273 37.5816 68.7464 37.053C68.0974 36.0815 68.0472 35.0439 68.2637 33.9156C68.7932 32.948 69.3737 32.3648 70.3971 31.9453C73.2954 31.1787 76.1161 32.0107 78.6995 33.3585C79.5044 33.8392 80.2835 34.3482 81.0544 34.8809C81.2169 34.9929 81.3795 35.1049 81.547 35.2202C82.7596 36.0596 83.9603 36.9151 85.1571 37.777C85.3658 37.9267 85.3658 37.9267 85.5787 38.0796C87.5952 39.5279 87.5952 39.5279 88.4565 40.2431C88.9644 40.7218 88.9644 40.7218 89.5011 40.673C89.6728 40.2474 89.6728 40.2474 89.848 39.8132C89.9124 39.6536 89.9768 39.494 90.0431 39.3296C90.8657 36.6742 90.8242 33.3448 89.7424 30.7783C89.6631 30.581 89.5837 30.3838 89.502 30.1806C88.4225 27.7675 86.6724 26.0388 84.4727 24.6177C83.6763 24.0757 83.2932 23.7388 82.9851 22.8143C82.8955 21.6049 82.9566 20.8857 83.7091 19.9183C85.8505 17.984 88.3989 19.485 90.3608 20.9439Z" fill="#FFF1A6"/>
<path d="M90.3608 20.9439C93.8548 23.7727 96.3609 28.2528 96.9824 32.7089C97.2071 35.5476 97.2363 38.449 96.2584 41.1556C96.6541 41.1692 96.6541 41.1692 97.0578 41.183C102.2 41.3886 107.186 42.1226 112.186 43.3276C112.518 43.4054 112.518 43.4054 112.856 43.4848C118.991 44.9364 124.88 47.0457 130.528 49.8436C130.748 49.9522 130.968 50.0608 131.195 50.1726C135.882 52.5047 140.213 55.2402 144.284 58.5316C144.43 58.6497 144.577 58.7678 144.727 58.8895C148.034 61.5827 151.072 64.5808 153.696 67.9437C154.067 68.3916 154.439 68.8391 154.812 69.2861C157.714 72.8537 159.943 76.8722 161.926 81.0104C162.131 81.4336 162.341 81.8538 162.552 82.2738C165.941 89.2022 168.025 96.7734 169.452 104.329C170.087 107.64 170.894 110.782 172.003 113.959C172.825 116.315 173.437 118.557 173.726 121.037C173.769 121.319 173.812 121.601 173.856 121.892C175.055 131.689 172.247 141.695 166.245 149.514C162.775 153.931 158.744 157.474 153.937 160.374C153.784 160.467 153.63 160.56 153.472 160.655C150.715 162.305 150.715 162.305 149.834 162.305C149.834 162.464 149.834 162.624 149.834 162.788C150.009 162.848 150.184 162.908 150.363 162.971C151.505 163.475 152.374 164.319 153.318 165.123C153.686 165.434 154.059 165.739 154.433 166.043C156.336 167.609 158.094 169.312 159.835 171.053C160.006 171.224 160.006 171.224 160.18 171.398C161.395 172.613 162.579 173.841 163.698 175.145C164.277 175.815 164.885 176.456 165.491 177.102C166.559 178.251 167.581 179.425 168.562 180.649C168.994 181.187 169.43 181.72 169.871 182.25C173.697 186.866 176.983 191.547 178.871 197.281C179.008 197.696 179.153 198.108 179.301 198.52C180.299 201.714 180.312 206.114 178.794 209.124C178.71 209.294 178.625 209.464 178.538 209.639C176.612 213.043 173.746 214.939 170.106 216.122C164.293 217.463 157.905 215.642 152.73 212.985C152.81 213.144 152.89 213.304 152.972 213.468C154.825 225.372 154.223 237.968 146.906 247.988C141.679 254.91 134.404 258.737 126.425 261.735C126.425 265.159 126.425 268.584 126.425 272.112C127.142 272.271 127.859 272.43 128.597 272.595C129.683 272.929 130.754 273.306 131.825 273.686C132.32 273.861 132.816 274.031 133.313 274.202C136.296 275.244 138.682 276.374 140.392 279.111C141.091 280.948 140.952 283.557 140.222 285.371C139.161 287.24 137.702 288.529 135.64 289.134C135.066 289.257 134.548 289.278 133.961 289.279C133.742 289.279 133.523 289.279 133.297 289.28C133.07 289.279 132.843 289.278 132.609 289.277C132.271 289.278 132.271 289.278 131.927 289.28C130.79 289.278 129.715 289.241 128.597 289.005C128.608 289.172 128.62 289.338 128.631 289.51C128.719 291.798 128.148 293.458 126.598 295.158C125.224 296.363 123.572 296.818 121.78 296.795C119.906 296.606 118.09 295.649 116.772 294.315C115.931 293.172 115.217 291.971 114.6 290.695C114.448 290.794 114.296 290.892 114.14 290.994C111.855 292.432 109.847 292.981 107.118 292.625C105.335 292.031 103.735 291.145 102.774 289.488C101.689 287.3 101.426 285.21 102.156 282.866C103.1 280.536 104.81 278.685 106.601 276.964C107.263 276.314 107.865 275.623 108.467 274.918C108.73 274.615 109.007 274.326 109.29 274.043C109.35 273.404 109.381 272.788 109.39 272.148C109.395 271.961 109.4 271.774 109.405 271.582C109.419 270.984 109.43 270.387 109.441 269.789C109.45 269.384 109.46 268.98 109.47 268.575C109.493 267.582 109.513 266.589 109.532 265.596C109.357 265.626 109.182 265.657 109.003 265.688C102.983 266.715 97.0868 266.913 90.9978 266.88C90.1661 266.877 89.3345 266.878 88.5028 266.88C84.2302 266.884 79.9906 266.86 75.745 266.32C75.4557 266.284 75.1663 266.249 74.8682 266.212C74.2036 266.126 73.5416 266.03 72.8792 265.928C72.5526 265.879 72.5526 265.879 72.2193 265.83C71.705 265.753 71.191 265.675 70.677 265.596C70.635 266.729 70.6045 267.862 70.5842 268.996C70.5758 269.38 70.5643 269.765 70.5496 270.15C70.3793 272.733 70.3793 272.733 71.4717 274.976C71.7618 275.237 72.0602 275.49 72.3664 275.732C75.1724 278.399 78.1255 281.479 78.2791 285.566C78.175 287.552 77.5496 289.471 76.0458 290.838C74.1545 292.348 72.5255 292.779 70.1001 292.727C68.1634 292.501 66.4323 291.614 64.885 290.453C64.8701 290.744 64.8701 290.744 64.8549 291.041C64.3666 293.029 62.9278 294.621 61.265 295.763C59.4933 296.744 57.7852 297.069 55.8096 296.569C53.9402 295.915 52.6711 294.832 51.7474 293.078C51.1805 291.686 51.2882 290.24 51.3704 288.764C51.1973 288.842 51.0243 288.92 50.846 289.001C49.726 289.404 48.6131 289.326 47.4336 289.322C47.1905 289.326 46.9474 289.33 46.6969 289.334C44.3012 289.335 42.7574 288.776 40.9892 287.121C39.3834 285.347 39.1679 283.318 39.2235 281.001C39.4098 278.851 40.4695 277.565 42.0554 276.192C43.0904 275.432 44.2041 275.039 45.4124 274.631C45.6622 274.542 45.912 274.453 46.1694 274.361C46.9362 274.089 47.7051 273.824 48.4743 273.56C48.9581 273.389 49.4418 273.219 49.9252 273.047C51.0485 272.649 52.1744 272.26 53.301 271.871C53.4603 268.526 53.6196 265.181 53.7837 261.735C52.6488 261.316 52.6488 261.316 51.491 260.89C49.1935 260.026 47.0202 259.024 44.8543 257.873C44.6204 257.755 44.3865 257.637 44.1454 257.515C36.4051 253.51 30.7352 246.352 27.9666 238.157C25.4383 229.993 26.0785 221.332 27.237 212.985C27.1148 213.037 26.9926 213.089 26.8667 213.143C21.0839 215.59 14.4762 217.836 8.28853 215.513C5.10654 214.165 2.20932 211.914 0.879775 208.644C-1.04661 203.139 0.446938 197.682 2.88775 192.594C4.03483 190.304 5.41489 188.232 6.96496 186.197C7.06615 186.063 7.16733 185.928 7.27158 185.79C8.65176 183.958 10.0791 182.165 11.5503 180.405C11.7059 180.218 11.7059 180.218 11.8646 180.028C14.652 176.69 17.6535 173.56 20.721 170.48C20.9084 170.292 21.0959 170.103 21.289 169.909C22.4283 168.773 23.6008 167.694 24.8237 166.649C25.0927 166.415 25.3617 166.18 25.6306 165.946C26.993 164.771 28.3214 163.681 29.8917 162.788C29.1864 162.217 28.4371 161.782 27.6402 161.351C24.693 159.755 22.0657 157.916 19.6227 155.619C19.1111 155.14 18.5884 154.686 18.0512 154.236C11.1201 148.165 6.69129 138.341 6.05808 129.226C5.82177 124.879 5.92963 120.553 7.01021 116.316C7.07237 116.069 7.07237 116.069 7.13577 115.817C7.39272 114.884 7.70437 113.988 8.07418 113.094C9.09386 110.621 9.76485 108.232 10.2342 105.6C10.4235 104.543 10.6284 103.489 10.8329 102.435C10.873 102.227 10.913 102.02 10.9543 101.806C11.4864 99.0854 12.1959 96.4197 12.9983 93.7664C13.0638 93.5489 13.1293 93.3315 13.1967 93.1075C16.5499 82.1576 21.9388 72.1102 29.8917 63.841C30.0049 63.7224 30.1182 63.6038 30.2349 63.4817C31.5904 62.0693 32.9953 60.771 34.5279 59.5535C34.9786 59.1925 35.4224 58.8228 35.859 58.4449C37.9229 56.6596 40.1385 55.164 42.441 53.705C42.6055 53.6004 42.77 53.4959 42.9395 53.3882C52.3276 47.4889 63.2572 43.9244 74.1764 42.2718C74.4426 42.2313 74.7088 42.1908 74.9831 42.1491C76.5351 41.9289 78.0393 41.8284 79.6064 41.8796C79.6064 41.7203 79.6064 41.5611 79.6064 41.397C79.4471 41.3472 79.2878 41.2974 79.1237 41.2461C78.4798 40.951 78.0811 40.675 77.54 40.2355C75.4865 38.6686 73.2906 38.1289 70.7609 37.9108C69.9068 37.7693 69.4273 37.5816 68.7464 37.053C68.0974 36.0815 68.0472 35.0439 68.2637 33.9156C68.7932 32.948 69.3737 32.3648 70.3971 31.9453C73.2954 31.1787 76.1161 32.0107 78.6995 33.3585C79.5044 33.8392 80.2835 34.3482 81.0544 34.8809C81.2169 34.9929 81.3795 35.1049 81.547 35.2202C82.7596 36.0596 83.9603 36.9151 85.1571 37.777C85.3658 37.9267 85.3658 37.9267 85.5787 38.0796C87.5952 39.5279 87.5952 39.5279 88.4565 40.2431C88.9644 40.7218 88.9644 40.7218 89.5011 40.673C89.6728 40.2474 89.6728 40.2474 89.848 39.8132C89.9124 39.6536 89.9768 39.494 90.0431 39.3296C90.8657 36.6742 90.8242 33.3448 89.7424 30.7783C89.6631 30.581 89.5837 30.3838 89.502 30.1806C88.4225 27.7675 86.6724 26.0388 84.4727 24.6177C83.6763 24.0757 83.2932 23.7388 82.9851 22.8143C82.8955 21.6049 82.9566 20.8857 83.7091 19.9183C85.8505 17.984 88.3989 19.485 90.3608 20.9439ZM35.925 66.4957C35.6678 66.7416 35.6678 66.7416 35.4053 66.9926C32.7385 69.5494 30.326 72.1583 28.2023 75.1837C28.0946 75.3353 27.9869 75.4869 27.8759 75.6431C21.6287 84.493 17.3136 95.4144 16.2346 106.212C15.9462 109.04 15.3558 111.448 14.3062 114.093C12.7629 117.983 12.0757 121.459 12.2487 125.647C12.2753 126.373 12.284 127.099 12.2903 127.826C12.3621 132.588 13.5954 136.328 15.653 140.585C15.7298 140.746 15.8067 140.908 15.8858 141.074C19.7607 149.109 27.5677 155.37 35.9093 158.3C37.3034 158.78 38.7007 159.249 40.1053 159.697C40.27 159.751 40.4348 159.805 40.6045 159.861C41.0569 160.008 41.5104 160.153 41.964 160.297C42.7301 160.637 43.0081 160.855 43.4063 161.581C43.6956 162.777 43.7962 163.225 43.2253 164.326C42.6258 165.026 42.2578 165.416 41.322 165.498C41.079 165.495 40.8361 165.491 40.5858 165.488C40.3459 165.486 40.106 165.485 39.8589 165.483C39.0623 165.442 39.0623 165.442 38.1328 165.239C36.8394 165.07 36.0412 165.747 35.0351 166.483C34.8459 166.616 34.6568 166.748 34.4619 166.885C33.8988 167.282 33.3423 167.688 32.7877 168.097C32.6351 168.209 32.4825 168.322 32.3253 168.437C31.4183 169.11 30.5316 169.805 29.6503 170.51C29.2966 170.79 29.2966 170.79 28.9358 171.075C27.7271 172.044 26.5997 173.045 25.5213 174.156C25.0692 174.609 24.6007 175.027 24.1147 175.443C22.5253 176.814 21.0853 178.31 19.7227 179.905C19.2142 180.471 18.6741 180.993 18.1266 181.521C12.6078 186.998 6.40621 195.827 6.1203 203.814C6.19521 205.711 6.74896 206.827 8.12638 208.113C10.7319 210.239 14.1394 210.135 17.3423 209.848C20.2495 209.352 22.9945 208.171 25.5505 206.729C26.0564 206.455 26.572 206.213 27.0937 205.97C28.8802 205.1 28.8802 205.1 30.1212 203.609C30.483 202.495 30.5926 201.338 30.7415 200.18C30.9669 198.794 31.3717 197.454 31.762 196.107C31.8453 195.819 31.9287 195.531 32.0146 195.234C32.5409 193.457 33.106 191.7 33.7681 189.968C33.8385 189.776 33.9089 189.584 33.9814 189.386C34.5009 188.096 35.199 187.163 36.4077 186.438C37.1643 186.237 37.5315 186.295 38.3383 186.438C38.9878 186.964 39.4136 187.382 39.7863 188.128C39.9211 189.556 39.7216 190.796 39.2283 192.14C39.166 192.319 39.1038 192.499 39.0397 192.683C38.6077 193.92 38.1533 195.148 37.702 196.377C35.7094 201.829 34.2548 207.272 33.376 213.021C33.3068 213.472 33.2349 213.921 33.1599 214.37C32.5747 217.918 32.4711 221.434 32.4558 225.022C32.453 225.349 32.453 225.349 32.4501 225.684C32.4245 229.472 32.6323 233.351 33.9189 236.953C33.9801 237.129 34.0413 237.305 34.1043 237.487C35.1069 240.249 36.6553 242.627 38.5797 244.841C38.8242 245.134 38.8242 245.134 39.0736 245.432C46.3914 253.938 57.8749 256.997 68.505 258.839C68.7589 258.883 69.0127 258.927 69.2742 258.972C71.1048 259.285 72.9395 259.554 74.7797 259.804C75.0353 259.841 75.2908 259.877 75.5541 259.915C89.6259 261.877 105.692 261.25 119.426 257.391C119.663 257.325 119.9 257.26 120.144 257.193C127.062 255.262 133.469 252.483 138.733 247.496C138.905 247.337 138.905 247.337 139.081 247.176C144.459 242.213 147.091 235.522 147.467 228.267C147.486 227.376 147.488 226.486 147.481 225.595C147.481 225.435 147.48 225.276 147.479 225.111C147.45 219.714 146.953 214.431 145.973 209.124C145.935 208.905 145.897 208.687 145.858 208.462C144.975 203.463 143.305 198.552 141.462 193.827C141.395 193.655 141.329 193.484 141.26 193.307C141.134 192.986 141.007 192.665 140.876 192.345C140.284 190.835 140.089 189.246 140.422 187.645C140.877 187.093 141.233 186.757 141.87 186.438C143.098 186.346 143.776 186.43 144.766 187.162C147.77 191.406 148.846 197.523 149.923 202.503C150.223 203.654 150.45 204.348 151.492 204.981C151.683 205.098 151.875 205.215 152.072 205.335C152.279 205.455 152.487 205.576 152.7 205.7C152.915 205.826 153.129 205.952 153.35 206.082C158.06 208.777 163.507 210.756 168.99 209.689C170.852 209.09 172.376 207.978 173.364 206.273C174.141 204.42 173.722 202.405 173.229 200.526C173.147 200.212 173.147 200.212 173.064 199.892C170.468 190.339 163.061 182.763 156.26 175.94C156.036 175.716 155.812 175.491 155.582 175.259C154.479 174.159 153.365 173.091 152.183 172.077C151.609 171.583 151.064 171.06 150.513 170.541C149.094 169.249 147.575 168.182 145.973 167.132C145.699 166.941 145.426 166.75 145.153 166.559C143.585 165.427 143.585 165.427 141.735 165.201C141.482 165.258 141.482 165.258 141.225 165.317C139.805 165.634 138.265 165.735 136.999 164.99C136.383 164.268 136.282 163.868 136.275 162.939C136.271 162.753 136.268 162.567 136.264 162.375C136.328 161.745 136.469 161.395 136.802 160.857C137.224 160.588 137.224 160.588 137.739 160.378C137.934 160.298 138.129 160.219 138.33 160.136C139.494 159.695 140.665 159.277 141.84 158.866C146.873 157.071 151.304 155.217 155.385 151.686C155.504 151.584 155.623 151.481 155.746 151.375C161.931 145.981 166.68 138.732 167.693 130.449C167.72 129.781 167.738 129.118 167.742 128.45C167.744 128.262 167.745 128.074 167.746 127.881C167.749 127.484 167.75 127.088 167.751 126.692C167.753 126.097 167.761 125.503 167.769 124.908C167.79 121.776 167.328 118.969 166.29 115.999C166.198 115.724 166.198 115.724 166.103 115.443C165.809 114.579 165.5 113.729 165.139 112.891C164.072 110.343 163.714 107.829 163.346 105.1C161.5 91.601 155.876 79.2707 146.456 69.3917C146.152 69.0466 145.85 68.6998 145.551 68.3509C141.273 63.4324 135.757 59.656 130.045 56.601C129.897 56.5208 129.749 56.4407 129.596 56.3581C122.412 52.4992 114.558 50.3593 106.636 48.637C106.443 48.5938 106.249 48.5506 106.05 48.506C104.964 48.2649 103.875 48.0732 102.774 47.913C102.561 47.8806 102.347 47.8483 102.127 47.815C80.2549 44.6363 55.1755 50.0352 35.925 66.4957Z" fill="black"/>
<path d="M97.269 112.168C101.408 114.724 106.286 118.373 107.75 123.219C108.208 125.562 107.474 127.658 106.213 129.635C103.123 133.953 98.531 137.144 93.3624 138.413C93.2135 138.455 93.0645 138.497 92.911 138.54C88.4282 139.538 84.0957 138.123 80.3304 135.758C76.786 133.379 73.4207 130.31 72.4635 125.981C72.1257 123.895 72.5363 122.207 73.7296 120.452C74.1466 119.91 74.5785 119.386 75.0211 118.865C75.3123 118.492 75.3123 118.492 75.6093 118.111C76.3969 117.227 77.2463 116.48 78.1584 115.728C78.2783 115.628 78.3982 115.528 78.5217 115.425C84.5188 110.449 90.1536 108.232 97.269 112.168Z" fill="black"/>
<path d="M149.171 117.447C151.522 119.675 152.709 122.471 152.815 125.676C152.855 129.194 151.984 132.489 149.527 135.128C146.753 137.72 143.486 138.866 139.738 138.793C136.31 138.628 133.106 137.086 130.769 134.552C130.197 133.786 129.748 132.994 129.321 132.139C129.203 131.905 129.085 131.671 128.964 131.431C127.728 128.659 127.725 125.574 128.572 122.672C129.059 121.448 129.747 120.403 130.528 119.348C130.654 119.174 130.781 119 130.911 118.821C132.83 116.415 135.559 115.073 138.492 114.34C142.545 114.002 146.01 114.82 149.171 117.447Z" fill="#F4A99C"/>
<path d="M43.889 115.245C44.2301 115.398 44.2301 115.398 44.5781 115.555C47.6583 117.08 49.4961 119.535 50.6463 122.726C51.3769 126.432 51.0097 130.273 48.8816 133.466C48.5928 133.834 48.2963 134.196 47.9917 134.552C47.8535 134.722 47.7154 134.892 47.5731 135.067C45.7184 137.148 42.7128 138.575 39.9353 138.744C37.4755 138.807 35.4967 138.599 33.2703 137.448C33.0497 137.337 32.8292 137.227 32.6019 137.113C30.0303 135.706 28.2047 133.263 27.2671 130.494C26.4021 126.82 26.723 122.83 28.6444 119.561C32.0364 114.623 38.3632 112.678 43.889 115.245Z" fill="#F4A99C"/>
<path d="M59.5757 263.424C62.0844 263.902 62.0844 263.902 64.6437 264.389C64.6353 264.934 64.6269 265.479 64.6183 266.04C64.2129 273.046 64.2129 273.046 67.0452 279.142C67.5744 279.673 68.112 280.193 68.6559 280.709C71.3078 283.227 71.3078 283.227 71.4765 284.948C71.4011 285.627 71.4011 285.627 70.9184 286.351C69.818 286.316 69.2255 286.207 68.4372 285.416C68.1745 285.133 67.9156 284.846 67.6604 284.556C66.6516 283.415 65.9677 282.765 64.4024 282.489C63.3989 282.506 62.8959 282.585 62.106 283.212C61.3502 284.126 61.0792 284.984 60.7522 286.109C59.99 288.647 59.99 288.647 59.3344 289.488C58.4445 289.684 58.4445 289.684 57.6451 289.729C57.2159 288.988 57.1025 288.448 57.0964 287.595C57.0914 287.374 57.0864 287.153 57.0813 286.925C57.075 286.461 57.0706 285.998 57.0681 285.535C57.0463 284.228 57.0463 284.228 56.5185 283.06C55.0285 282.187 52.9064 282.694 51.2799 282.972C50.0856 283.174 48.9288 283.273 47.7202 283.289C47.4209 283.293 47.1217 283.297 46.8133 283.301C46.061 283.213 46.061 283.213 45.5803 282.922C45.337 282.489 45.337 282.489 45.3649 281.904C45.5784 281.283 45.5784 281.283 46.1108 280.891C48.0398 279.989 49.9949 279.271 52.019 278.613C55.457 277.617 55.457 277.617 58.2456 275.513C59.355 273.243 59.1646 270.244 59.2521 267.754C59.2596 267.54 59.2672 267.327 59.275 267.107C59.2808 266.92 59.2866 266.733 59.2925 266.541C59.3545 265.5 59.4719 264.462 59.5757 263.424Z" fill="#FFBB4D"/>
<path d="M120.633 263.665C120.64 264.028 120.64 264.028 120.648 264.399C120.666 265.309 120.688 266.219 120.71 267.128C120.719 267.52 120.727 267.911 120.735 268.303C120.628 272.42 120.628 272.42 122.136 276.086C124.166 277.844 127.102 278.493 129.62 279.275C131.434 279.842 133.069 280.413 134.63 281.524C134.54 282.233 134.54 282.233 134.389 282.972C133.014 283.66 131.1 283.175 129.638 282.972C128.305 282.793 126.986 282.667 125.641 282.64C125.351 282.633 125.061 282.627 124.762 282.62C123.865 282.753 123.597 282.991 123.046 283.696C122.757 284.274 122.76 284.672 122.737 285.318C122.728 285.543 122.719 285.767 122.71 285.999C122.702 286.235 122.693 286.47 122.684 286.713C122.668 287.178 122.65 287.643 122.632 288.108C122.624 288.315 122.617 288.521 122.61 288.734C122.564 289.247 122.564 289.247 122.322 289.729C121.553 289.745 121.553 289.745 120.633 289.488C119.458 288.198 119.129 286.368 118.748 284.718C118.409 283.794 118.012 283.351 117.254 282.731C116.326 282.352 115.472 282.457 114.509 282.67C113.367 283.225 112.587 284.313 111.784 285.266C111.089 286.01 110.626 286.307 109.622 286.426C109.433 286.401 109.244 286.376 109.049 286.351C108.512 285.545 108.499 285.162 108.648 284.221C109.265 282.189 111.35 280.633 112.835 279.216C115.611 276.29 115.433 272.439 115.369 268.613C115.365 268.223 115.362 267.834 115.359 267.445C115.351 266.507 115.339 265.569 115.324 264.631C115.982 264.468 116.641 264.308 117.3 264.148C117.485 264.102 117.671 264.056 117.862 264.009C118.804 263.782 119.656 263.603 120.633 263.665Z" fill="#FFBB4D"/>
<path d="M94.4739 116.769C97.2157 118.339 99.8046 120.323 101.568 122.968C101.568 123.207 101.568 123.446 101.568 123.692C99.1097 124.35 96.7976 124.454 94.258 124.456C93.9225 124.457 93.5871 124.458 93.2517 124.459C92.5502 124.46 91.8488 124.461 91.1474 124.461C90.2582 124.46 89.3691 124.464 88.48 124.468C87.7872 124.471 87.0943 124.471 86.4015 124.471C85.9174 124.471 85.4333 124.474 84.9492 124.477C79.9449 124.464 79.9449 124.464 78.3997 123.692C79.6733 120.002 84.2332 117.394 87.5704 115.728C90.1524 114.772 92.0991 115.57 94.4739 116.769Z" fill="#FFBB4D"/>
<path d="M100.602 129.243C99.2816 130.31 97.9497 131.113 96.4092 131.822C96.2195 131.913 96.0297 132.004 95.8342 132.098C92.7223 133.554 89.8654 134.146 86.4995 133.104C84.0588 132.21 81.7289 130.986 79.6064 129.484C79.6064 129.404 79.6064 129.325 79.6064 129.243C79.8349 129.243 80.0634 129.244 80.2989 129.244C82.4576 129.249 84.6163 129.253 86.775 129.255C87.8847 129.256 88.9944 129.258 90.104 129.261C91.1759 129.263 92.2478 129.265 93.3197 129.265C93.7276 129.266 94.1356 129.267 94.5435 129.268C95.117 129.27 95.6905 129.27 96.2641 129.27C96.4309 129.271 96.5977 129.272 96.7696 129.273C97.6073 129.271 98.4164 129.221 99.2446 129.105C100.12 129.001 100.12 129.001 100.602 129.243Z" fill="#FFBB4D"/>
<path d="M49.1427 105.014C49.2999 105.008 49.2999 105.008 49.4604 105.003C50.1142 105.094 50.518 105.55 50.9613 106.051C51.0586 106.159 51.1559 106.268 51.2562 106.379C51.4513 106.601 51.6456 106.823 51.8395 107.045C54.0996 109.39 57.1716 110.035 60.1874 109.956C62.983 109.833 65.7714 108.641 67.6753 106.384C67.8044 106.228 67.9323 106.069 68.0587 105.91C68.472 105.392 68.7442 105.092 69.3716 105.002C70.1272 104.99 70.7188 105.014 71.2928 105.592C71.7287 106.118 71.955 106.631 72 107.343C71.9223 108.771 70.8419 109.972 69.9249 110.896C68.1365 112.576 66.0822 113.591 63.8317 114.296C63.7005 114.339 63.7005 114.339 63.5666 114.383C59.6254 115.644 55.0573 114.9 51.4738 112.809C49.9266 111.866 47.609 110.106 47.0442 108.176C46.937 107.2 46.9964 106.517 47.5416 105.728C48.0562 105.206 48.4469 105.027 49.1427 105.014Z" fill="black"/>
<path d="M110.187 106.014C110.303 106.009 110.418 106.005 110.537 106C111.326 106.115 111.796 106.686 112.29 107.263C114.037 109.225 116.711 110.271 119.309 110.495C122.364 110.654 125.592 110.121 127.952 108.035C128.345 107.661 128.713 107.275 129.065 106.862C129.438 106.428 129.729 106.104 130.321 106.014C131.03 105.975 131.608 106.106 132.173 106.546C132.628 107.039 132.884 107.48 133 108.143C132.883 109.429 131.909 110.495 130.969 111.295C127.344 114.251 122.808 115.361 118.176 114.899C117.468 114.797 116.781 114.638 116.093 114.444C115.969 114.411 115.969 114.411 115.843 114.376C112.994 113.584 110.048 111.863 108.377 109.377C108.065 108.819 107.911 108.291 108.054 107.657C108.476 106.712 109.122 106.042 110.187 106.014Z" fill="black"/>
<path d="M128.467 61.0034C128.602 61.0021 128.602 61.0021 128.741 61.0008C128.84 61.0006 128.938 61.0004 129.04 61.0003C129.146 60.9996 129.251 60.9988 129.356 60.998C129.643 60.996 129.929 60.9951 130.215 60.9944C130.394 60.994 130.572 60.9933 130.751 60.9927C131.311 60.9906 131.872 60.9892 132.432 60.9886C133.077 60.9879 133.723 60.9853 134.369 60.981C134.869 60.9777 135.368 60.9762 135.868 60.976C136.166 60.9758 136.464 60.975 136.763 60.9723C137.043 60.9698 137.324 60.9695 137.605 60.9708C137.756 60.971 137.908 60.9689 138.059 60.9668C138.577 60.9715 138.909 61.0098 139.303 61.3597C139.901 61.9746 139.975 62.4981 139.979 63.3296C139.98 63.4217 139.981 63.5138 139.982 63.6087C139.984 63.8032 139.984 63.9977 139.985 64.1921C139.986 64.4879 139.991 64.7834 139.996 65.079C139.997 65.2686 139.998 65.4582 139.998 65.6477C140 65.7352 140.002 65.8228 140.004 65.9129C139.999 66.5635 139.811 66.9582 139.414 67.4683C139.362 67.5364 139.362 67.5364 139.308 67.606C139.216 67.7204 139.118 67.8309 139.021 67.9412C138.949 68.0237 138.878 68.1064 138.807 68.1892C138.771 68.2308 138.735 68.2724 138.698 68.3153C138.484 68.5673 138.283 68.8287 138.08 69.0892C137.867 69.3628 137.652 69.6342 137.434 69.9041C136.78 70.7156 136.155 71.5487 135.546 72.3948C135.515 72.4377 135.484 72.4806 135.452 72.5248C135.305 72.7312 135.179 72.9347 135.069 73.1628C135.135 73.1606 135.202 73.1583 135.271 73.156C135.867 73.136 136.463 73.1175 137.06 73.1014C137.384 73.0926 137.708 73.0818 138.032 73.0698C138.168 73.0663 138.304 73.063 138.44 73.0598C138.5 73.057 138.56 73.0541 138.621 73.0512C139.084 73.0444 139.412 73.1984 139.789 73.4625C140.11 73.7912 140.257 74.1232 140.259 74.5819C140.26 74.6534 140.261 74.725 140.261 74.7987C140.261 74.9134 140.261 74.9134 140.261 75.0305C140.262 75.11 140.262 75.1896 140.262 75.2715C140.263 75.4396 140.263 75.6077 140.262 75.7758C140.262 76.0318 140.264 76.2878 140.266 76.5438C140.266 76.7075 140.266 76.8712 140.266 77.0348C140.267 77.1109 140.267 77.1869 140.268 77.2653C140.265 77.7703 140.224 78.2303 139.888 78.6344C139.844 78.6678 139.801 78.7012 139.756 78.7356C139.713 78.7702 139.67 78.8048 139.625 78.8404C139.322 79.0451 139.112 79.1011 138.742 79.1022C138.605 79.1032 138.605 79.1032 138.465 79.1042C138.364 79.1041 138.262 79.104 138.161 79.104C138.054 79.1044 137.947 79.1049 137.84 79.1055C137.55 79.1068 137.26 79.1072 136.97 79.1073C136.789 79.1074 136.607 79.1077 136.426 79.1081C135.793 79.1095 135.159 79.1101 134.526 79.11C133.937 79.1099 133.347 79.1115 132.757 79.1138C132.251 79.1158 131.744 79.1166 131.237 79.1165C130.935 79.1165 130.633 79.1169 130.33 79.1185C130.046 79.1199 129.761 79.1199 129.476 79.1188C129.372 79.1187 129.268 79.119 129.164 79.1199C128.511 79.1253 127.991 79.1125 127.499 78.6353C127.449 78.5621 127.449 78.5621 127.398 78.4874C127.363 78.4389 127.329 78.3903 127.293 78.3402C127.12 78.0442 127.033 77.7864 127.027 77.4431C127.025 77.3372 127.025 77.3372 127.023 77.2292C127.022 77.1537 127.021 77.0781 127.021 77.0003C127.02 76.882 127.02 76.882 127.018 76.7614C127.017 76.5946 127.016 76.4277 127.015 76.2609C127.014 76.0081 127.009 75.7555 127.004 75.5027C126.989 73.9341 126.989 73.9341 127.501 73.2378C127.544 73.1754 127.587 73.113 127.631 73.0487C127.766 72.8588 127.908 72.6759 128.053 72.4932C128.16 72.3562 128.266 72.2192 128.373 72.0822C128.427 72.0131 128.481 71.944 128.537 71.8728C128.798 71.5383 129.056 71.201 129.313 70.8635C129.363 70.7984 129.413 70.7332 129.464 70.6662C129.826 70.1913 130.176 69.709 130.522 69.2232C130.832 68.7911 131.159 68.3742 131.495 67.9622C131.69 67.728 131.69 67.728 131.847 67.4683C131.805 67.4682 131.764 67.468 131.721 67.4679C131.286 67.4665 130.85 67.4624 130.415 67.4568C130.253 67.4551 130.091 67.454 129.929 67.4536C129.695 67.4529 129.461 67.4498 129.227 67.4463C129.156 67.4466 129.084 67.4469 129.01 67.4472C128.438 67.435 127.913 67.2905 127.505 66.8674C127.055 66.3108 127.027 65.7683 127.026 65.0755C127.026 64.9893 127.025 64.903 127.025 64.8141C127.024 64.632 127.023 64.45 127.023 64.2679C127.023 63.99 127.02 63.7122 127.018 63.4343C127.017 63.257 127.017 63.0798 127.017 62.9026C127.016 62.8198 127.015 62.7371 127.013 62.6518C127.016 62.1664 127.061 61.8682 127.351 61.474C127.709 61.1427 127.979 61.0061 128.467 61.0034Z" fill="black"/>
<path d="M137.916 63.1222C138.101 65.8477 138.101 65.8477 137.49 66.5502C137.358 66.692 137.222 66.8269 137.081 66.959C136.841 67.1909 136.642 67.455 136.436 67.7162C136.355 67.816 136.273 67.9156 136.192 68.0151C135.88 68.3983 135.587 68.7942 135.293 69.1914C134.666 70.0325 134.037 70.8722 133.384 71.693C132.354 72.8911 132.354 72.8911 131.997 74.3615C132.083 74.6977 132.237 74.842 132.521 75.0358C132.784 75.1235 132.996 75.1228 133.273 75.1261C133.327 75.1269 133.38 75.1276 133.435 75.1284C133.612 75.1308 133.788 75.1326 133.964 75.1345C134.087 75.136 134.209 75.1376 134.331 75.1392C134.653 75.1433 134.975 75.147 135.297 75.1506C135.625 75.1544 135.954 75.1586 136.282 75.1627C136.927 75.1708 137.571 75.1783 138.216 75.1857C138.216 75.7791 138.216 76.3726 138.216 76.984C135.174 76.984 132.133 76.984 128.999 76.984C128.999 74.251 128.999 74.251 129.76 73.4494C129.809 73.4018 129.858 73.3541 129.908 73.305C130.128 73.0816 130.306 72.8314 130.489 72.5772C130.562 72.4787 130.635 72.3804 130.709 72.2822C130.747 72.2313 130.785 72.1804 130.824 72.128C131.06 71.8142 131.299 71.5029 131.538 71.1911C131.971 70.6244 132.397 70.0537 132.819 69.4786C133.103 69.092 133.389 68.7079 133.678 68.325C134.505 67.371 134.505 67.371 134.844 66.2317C134.789 65.8719 134.656 65.6939 134.394 65.445C134.143 65.3611 133.948 65.3581 133.683 65.3547C133.634 65.3539 133.585 65.3532 133.535 65.3524C133.373 65.35 133.211 65.3482 133.049 65.3463C132.937 65.3448 132.825 65.3432 132.713 65.3416C132.417 65.3375 132.122 65.3338 131.827 65.3302C131.525 65.3264 131.224 65.3222 130.923 65.3181C130.332 65.31 129.74 65.3025 129.149 65.2951C129.149 64.6028 129.149 63.9104 129.149 63.1971C129.838 63.1842 130.526 63.1715 131.214 63.1596C131.266 63.1588 131.318 63.1579 131.371 63.1569C133.553 63.1196 135.734 63.1134 137.916 63.1222Z" fill="#AADCE7"/>
<path d="M144.496 55.1801C144.675 55.1784 144.675 55.1784 144.857 55.1766C144.987 55.1764 145.118 55.1762 145.252 55.176C145.391 55.1751 145.53 55.1741 145.669 55.173C146.047 55.1704 146.424 55.1691 146.802 55.1683C147.038 55.1677 147.274 55.1669 147.51 55.166C148.249 55.1633 148.988 55.1614 149.727 55.1606C150.579 55.1597 151.431 55.1562 152.283 55.1505C152.942 55.1462 153.601 55.1442 154.261 55.144C154.654 55.1438 155.048 55.1426 155.441 55.1391C155.811 55.1358 156.182 55.1354 156.552 55.1371C156.752 55.1373 156.952 55.1346 157.151 55.1318C157.834 55.1381 158.273 55.1886 158.793 55.6502C159.581 56.4615 159.679 57.1522 159.685 58.2493C159.686 58.3708 159.688 58.4923 159.689 58.6175C159.691 58.8741 159.692 59.1307 159.692 59.3873C159.694 59.7775 159.7 60.1673 159.707 60.5574C159.708 60.8075 159.709 61.0576 159.71 61.3078C159.712 61.4232 159.715 61.5387 159.718 61.6577C159.711 62.516 159.463 63.0368 158.94 63.7097C158.87 63.7997 158.87 63.7997 158.8 63.8914C158.677 64.0423 158.549 64.1882 158.421 64.3338C158.326 64.4426 158.232 64.5517 158.138 64.6609C158.09 64.7158 158.043 64.7707 157.994 64.8273C157.713 65.1598 157.447 65.5046 157.18 65.8483C156.898 66.2093 156.614 66.5674 156.327 66.9235C155.463 67.9942 154.64 69.0934 153.836 70.2097C153.795 70.2663 153.754 70.3229 153.712 70.3812C153.518 70.6535 153.351 70.9221 153.206 71.223C153.294 71.22 153.382 71.217 153.472 71.214C154.259 71.1876 155.046 71.1632 155.833 71.142C156.261 71.1304 156.688 71.1161 157.116 71.1002C157.295 71.0957 157.475 71.0913 157.655 71.0871C157.733 71.0833 157.812 71.0796 157.893 71.0757C158.504 71.0668 158.937 71.2699 159.434 71.6185C159.857 72.0521 160.051 72.49 160.054 73.0953C160.055 73.1897 160.056 73.2841 160.057 73.3813C160.057 73.5327 160.057 73.5327 160.057 73.6872C160.057 73.7921 160.058 73.8971 160.058 74.0052C160.059 74.227 160.059 74.4487 160.058 74.6705C160.058 75.0083 160.06 75.3461 160.063 75.6839C160.063 75.8998 160.063 76.1157 160.063 76.3317C160.064 76.432 160.065 76.5323 160.066 76.6357C160.062 77.3021 160.008 77.9089 159.564 78.4421C159.507 78.4862 159.45 78.5303 159.391 78.5757C159.334 78.6213 159.277 78.6669 159.218 78.7139C158.818 78.984 158.54 79.0578 158.053 79.0593C157.872 79.0606 157.872 79.0606 157.687 79.0619C157.553 79.0618 157.42 79.0617 157.286 79.0616C157.145 79.0622 157.004 79.0629 156.863 79.0636C156.48 79.0654 156.097 79.0659 155.715 79.066C155.475 79.0661 155.236 79.0665 154.997 79.0671C154.161 79.0689 153.326 79.0697 152.49 79.0695C151.712 79.0694 150.934 79.0715 150.157 79.0746C149.488 79.0772 148.82 79.0783 148.151 79.0782C147.752 79.0781 147.353 79.0787 146.954 79.0808C146.579 79.0827 146.203 79.0827 145.828 79.0813C145.69 79.081 145.553 79.0815 145.416 79.0827C144.554 79.0897 143.867 79.0729 143.219 78.4432C143.153 78.3467 143.153 78.3467 143.085 78.2482C143.04 78.1841 142.994 78.12 142.947 78.054C142.719 77.6634 142.604 77.3233 142.596 76.8703C142.593 76.7307 142.593 76.7307 142.59 76.5882C142.59 76.4885 142.589 76.3888 142.588 76.2861C142.586 76.1301 142.586 76.1301 142.584 75.9709C142.583 75.7508 142.581 75.5307 142.581 75.3106C142.579 74.977 142.572 74.6437 142.566 74.3103C142.545 72.2406 142.545 72.2406 143.221 71.3219C143.278 71.2396 143.334 71.1573 143.393 71.0724C143.572 70.8219 143.759 70.5806 143.95 70.3395C144.091 70.1588 144.231 69.978 144.372 69.7973C144.443 69.7061 144.514 69.6149 144.588 69.521C144.933 69.0796 145.273 68.6346 145.612 68.1893C145.678 68.1034 145.744 68.0175 145.811 67.929C146.288 67.3025 146.75 66.6662 147.207 66.0251C147.617 65.4551 148.047 64.905 148.491 64.3614C148.748 64.0524 148.748 64.0524 148.955 63.7097C148.9 63.7096 148.845 63.7094 148.789 63.7093C148.215 63.7073 147.641 63.702 147.066 63.6946C146.853 63.6924 146.639 63.6909 146.425 63.6904C146.116 63.6895 145.808 63.6854 145.499 63.6808C145.404 63.6812 145.31 63.6815 145.213 63.6819C144.457 63.6658 143.765 63.4752 143.226 62.917C142.633 62.1825 142.597 61.4668 142.595 60.5528C142.594 60.439 142.593 60.3252 142.593 60.2079C142.592 59.9677 142.591 59.7275 142.591 59.4872C142.591 59.1206 142.587 58.754 142.584 58.3874C142.583 58.1535 142.583 57.9197 142.582 57.6859C142.581 57.5767 142.58 57.4675 142.578 57.355C142.582 56.7146 142.641 56.3211 143.023 55.801C143.496 55.364 143.852 55.1837 144.496 55.1801Z" fill="black"/>
<path d="M156.963 57.9758C157.207 61.5718 157.207 61.5718 156.4 62.4987C156.226 62.6858 156.048 62.8638 155.861 63.0381C155.545 63.344 155.282 63.6924 155.01 64.0371C154.903 64.1687 154.795 64.3002 154.688 64.4314C154.277 64.937 153.889 65.4594 153.503 65.9834C152.675 67.0932 151.845 68.2011 150.983 69.284C149.625 70.8648 149.625 70.8648 149.153 72.8047C149.266 73.2483 149.47 73.4387 149.845 73.6945C150.192 73.8102 150.471 73.8092 150.837 73.8136C150.908 73.8146 150.978 73.8156 151.051 73.8166C151.284 73.8197 151.516 73.8222 151.749 73.8246C151.91 73.8266 152.072 73.8287 152.233 73.8308C152.658 73.8363 153.082 73.8412 153.507 73.8459C153.94 73.8509 154.374 73.8564 154.807 73.8619C155.657 73.8725 156.508 73.8825 157.358 73.8922C157.358 74.6751 157.358 75.4581 157.358 76.2648C153.345 76.2648 149.333 76.2648 145.198 76.2648C145.198 72.659 145.198 72.659 146.202 71.6014C146.266 71.5385 146.331 71.4756 146.397 71.4108C146.688 71.1161 146.922 70.7859 147.163 70.4506C147.26 70.3207 147.356 70.1909 147.454 70.0614C147.504 69.9942 147.554 69.9271 147.606 69.8579C147.917 69.444 148.233 69.0332 148.547 68.6217C149.118 67.8741 149.681 67.1211 150.238 66.3624C150.612 65.8523 150.99 65.3455 151.371 64.8404C152.462 63.5816 152.462 63.5816 152.909 62.0785C152.837 61.6037 152.661 61.369 152.316 61.0405C151.984 60.9299 151.728 60.9259 151.378 60.9213C151.313 60.9203 151.249 60.9194 151.182 60.9184C150.969 60.9152 150.755 60.9128 150.542 60.9103C150.394 60.9083 150.246 60.9062 150.098 60.9041C149.708 60.8987 149.318 60.8938 148.929 60.889C148.531 60.884 148.134 60.8785 147.736 60.8731C146.956 60.8624 146.176 60.8525 145.396 60.8428C145.396 59.9293 145.396 59.0158 145.396 58.0747C146.304 58.0576 147.213 58.0409 148.121 58.0253C148.189 58.0241 148.257 58.0229 148.327 58.0217C151.206 57.9725 154.084 57.9642 156.963 57.9758Z" fill="#AADCE7"/>
<path d="M165.24 48.0643C165.478 48.062 165.478 48.062 165.721 48.0597C165.895 48.0594 166.069 48.0592 166.249 48.0589C166.434 48.0576 166.619 48.0563 166.805 48.0549C167.308 48.0514 167.811 48.0497 168.315 48.0486C168.629 48.0478 168.944 48.0467 169.259 48.0455C170.244 48.0419 171.229 48.0394 172.215 48.0384C173.351 48.0372 174.487 48.0325 175.623 48.0249C176.502 48.0192 177.381 48.0165 178.26 48.0162C178.784 48.0159 179.309 48.0144 179.833 48.0097C180.327 48.0053 180.821 48.0047 181.315 48.0071C181.581 48.0074 181.848 48.0037 182.114 48C183.025 48.0083 183.609 48.0757 184.303 48.6911C185.354 49.7729 185.484 50.6938 185.492 52.1566C185.494 52.3186 185.495 52.4807 185.497 52.6476C185.5 52.9897 185.501 53.3318 185.502 53.6739C185.504 54.1942 185.512 54.714 185.522 55.2341C185.523 55.5676 185.524 55.9011 185.525 56.2346C185.529 56.3885 185.532 56.5425 185.536 56.7011C185.526 57.8455 185.196 58.5399 184.498 59.4372C184.406 59.5571 184.406 59.5571 184.312 59.6794C184.149 59.8807 183.978 60.0752 183.806 60.2693C183.68 60.4144 183.555 60.5598 183.429 60.7054C183.366 60.7786 183.303 60.8518 183.238 60.9272C182.863 61.3706 182.508 61.8304 182.151 62.2886C181.777 62.7699 181.398 63.2474 181.014 63.7222C179.863 65.1498 178.765 66.6154 177.694 68.1038C177.639 68.1793 177.585 68.2548 177.528 68.3325C177.269 68.6956 177.047 69.0537 176.853 69.4549C176.971 69.4509 177.088 69.4469 177.209 69.4428C178.258 69.4076 179.307 69.3752 180.356 69.3469C180.926 69.3315 181.496 69.3124 182.067 69.2912C182.306 69.2851 182.546 69.2792 182.785 69.2737C182.89 69.2687 182.995 69.2637 183.103 69.2585C183.918 69.2466 184.494 69.5174 185.158 69.9822C185.721 70.5604 185.98 71.1443 185.985 71.9513C185.986 72.0771 185.987 72.203 185.988 72.3327C185.988 72.5345 185.988 72.5345 185.988 72.7404C185.989 72.8804 185.989 73.0203 185.99 73.1645C185.991 73.4602 185.991 73.7559 185.99 74.0516C185.99 74.502 185.993 74.9523 185.996 75.4027C185.996 75.6906 185.996 75.9785 185.996 76.2664C185.998 76.4002 185.999 76.534 186 76.6718C185.994 77.5603 185.923 78.3695 185.331 79.0803C185.255 79.1391 185.178 79.1979 185.1 79.2585C185.024 79.3193 184.948 79.3801 184.87 79.4428C184.336 79.8029 183.966 79.9013 183.316 79.9033C183.074 79.905 183.074 79.905 182.828 79.9068C182.65 79.9067 182.472 79.9065 182.293 79.9064C182.105 79.9072 181.917 79.9081 181.729 79.9091C181.219 79.9114 180.709 79.912 180.198 79.9122C179.879 79.9124 179.56 79.9129 179.241 79.9136C178.127 79.9161 177.013 79.9172 175.899 79.9169C174.862 79.9168 173.825 79.9196 172.788 79.9237C171.896 79.9272 171.005 79.9286 170.114 79.9284C169.582 79.9284 169.05 79.9291 168.518 79.9319C168.017 79.9345 167.516 79.9345 167.016 79.9326C166.833 79.9323 166.649 79.9329 166.466 79.9345C165.318 79.9439 164.402 79.9214 163.537 79.0819C163.449 78.9531 163.449 78.9531 163.359 78.8218C163.298 78.7364 163.237 78.6509 163.175 78.5628C162.87 78.0421 162.717 77.5886 162.707 76.9847C162.703 76.7984 162.703 76.7984 162.699 76.6084C162.698 76.4755 162.697 76.3426 162.696 76.2057C162.694 75.9977 162.694 75.9977 162.691 75.7854C162.689 75.4919 162.687 75.1985 162.686 74.905C162.684 74.4602 162.675 74.0159 162.667 73.5712C162.639 70.8117 162.639 70.8117 163.54 69.5867C163.616 69.477 163.691 69.3672 163.769 69.2541C164.008 68.9201 164.257 68.5983 164.512 68.2768C164.7 68.0359 164.887 67.7949 165.074 67.5539C165.169 67.4324 165.265 67.3108 165.363 67.1855C165.822 66.5971 166.276 66.0037 166.729 65.4099C166.816 65.2954 166.904 65.1809 166.994 65.0629C167.63 64.2275 168.246 63.3791 168.855 62.5244C169.401 61.7643 169.975 61.0308 170.567 60.3061C170.91 59.8941 170.91 59.8941 171.185 59.4372C171.112 59.437 171.039 59.4368 170.964 59.4366C170.198 59.434 169.433 59.4268 168.667 59.4171C168.382 59.414 168.097 59.4121 167.812 59.4114C167.4 59.4102 166.989 59.4048 166.577 59.3986C166.451 59.3991 166.326 59.3996 166.196 59.4001C165.188 59.3786 164.266 59.1244 163.547 58.3802C162.755 57.4009 162.708 56.4467 162.705 55.2279C162.704 55.0762 162.703 54.9244 162.703 54.7681C162.701 54.4478 162.701 54.1275 162.701 53.8072C162.7 53.3183 162.695 52.8296 162.69 52.3407C162.689 52.0289 162.689 51.7172 162.689 51.4054C162.687 51.2598 162.685 51.1143 162.683 50.9643C162.688 50.1104 162.766 49.5857 163.277 48.8922C163.907 48.3095 164.382 48.0692 165.24 48.0643Z" fill="black"/>
<path d="M181.862 51.7918C182.188 56.5865 182.188 56.5865 181.112 57.8223C180.88 58.0717 180.642 58.3091 180.393 58.5415C179.972 58.9494 179.621 59.414 179.259 59.8736C179.116 60.049 178.973 60.2243 178.829 60.3993C178.281 61.0734 177.765 61.7699 177.249 62.4686C176.146 63.9484 175.039 65.4255 173.889 66.8694C172.079 68.9771 172.079 68.9771 171.449 71.5637C171.6 72.1551 171.872 72.4089 172.372 72.75C172.835 72.9043 173.207 72.903 173.695 72.9089C173.789 72.9102 173.883 72.9115 173.98 72.9128C174.29 72.917 174.6 72.9203 174.911 72.9235C175.126 72.9262 175.341 72.929 175.556 72.9318C176.122 72.9391 176.689 72.9456 177.255 72.952C177.833 72.9586 178.41 72.9659 178.988 72.9732C180.122 72.9874 181.256 73.0007 182.389 73.0136C182.389 74.0576 182.389 75.1015 182.389 76.1771C177.039 76.1771 171.689 76.1771 166.177 76.1771C166.177 71.3694 166.177 71.3694 167.514 69.9593C167.6 69.8754 167.686 69.7916 167.775 69.7052C168.162 69.3121 168.475 68.872 168.796 68.4249C168.925 68.2516 169.054 68.0786 169.183 67.9059C169.25 67.8164 169.317 67.7268 169.386 67.6345C169.801 67.0827 170.222 66.5349 170.642 65.9864C171.403 64.9895 172.154 63.9855 172.896 62.9739C173.395 62.2937 173.899 61.618 174.407 60.9446C175.861 59.2662 175.861 59.2662 176.458 57.2621C176.362 56.629 176.127 56.316 175.667 55.878C175.225 55.7306 174.882 55.7253 174.416 55.7191C174.33 55.7178 174.244 55.7165 174.155 55.7152C173.87 55.711 173.586 55.7078 173.301 55.7045C173.104 55.7018 172.906 55.699 172.709 55.6962C172.189 55.6889 171.67 55.6824 171.15 55.6761C170.62 55.6694 170.09 55.6621 169.56 55.6548C168.52 55.6406 167.48 55.6273 166.44 55.6144C166.44 54.3965 166.44 53.1785 166.44 51.9237C167.651 51.9009 168.862 51.8786 170.073 51.8578C170.164 51.8562 170.255 51.8546 170.349 51.853C174.187 51.7874 178.023 51.7764 181.862 51.7918Z" fill="#AADCE7"/>
<path d="M91.408 0.778863C92.2655 1.43604 92.7661 2.41142 92.9146 3.47759C93.0011 4.63569 92.628 5.69932 91.8925 6.58911C91.5728 6.9278 91.1995 7.19897 90.7857 7.41291C90.7218 7.41291 90.6579 7.41291 90.5921 7.41291C90.924 7.93804 91.2651 8.45617 91.6138 8.97031C91.6531 9.02832 91.6924 9.08634 91.7329 9.14611C91.896 9.38652 92.0592 9.62686 92.2227 9.86698C92.7296 10.6119 93.2192 11.3628 93.683 12.1352C93.8259 12.3715 93.9753 12.6036 94.1242 12.8361C95.5841 15.1346 96.9352 17.5137 98.2614 19.891C98.4975 20.3139 98.7371 20.7346 98.9789 21.1543C99.1887 21.0628 99.3217 20.9527 99.4789 20.7874C99.7312 20.529 99.9945 20.2918 100.269 20.0576C100.417 19.9313 100.565 19.8049 100.713 19.6785C100.752 19.645 100.791 19.6115 100.832 19.577C101.06 19.3815 101.285 19.1833 101.507 18.981C101.803 18.7127 102.11 18.4601 102.42 18.2089C102.586 18.0741 102.751 17.9381 102.915 17.8021C103.151 17.6074 103.388 17.4132 103.624 17.219C103.668 17.183 103.711 17.147 103.756 17.1099C104.277 16.6818 104.804 16.2642 105.342 15.8571C105.71 15.5767 106.071 15.2871 106.428 14.9925C106.713 14.7584 107.005 14.5349 107.301 14.3159C107.264 14.2704 107.264 14.2704 107.225 14.224C106.444 13.2639 106.086 12.0587 106.204 10.8321C106.382 9.79331 106.993 8.88786 107.809 8.23143C108.709 7.59711 109.716 7.50301 110.785 7.60646C111.809 7.80515 112.827 8.50185 113.418 9.35235C113.965 10.2907 114.137 11.4037 113.889 12.4676C113.609 13.4555 112.96 14.3161 112.075 14.832C111.692 15.0191 111.336 15.1531 110.914 15.219C110.916 15.2712 110.917 15.3233 110.919 15.3769C110.933 16.2704 110.855 17.1573 110.784 18.0472C110.773 18.184 110.762 18.3207 110.751 18.4575C110.625 20.0483 110.474 21.6357 110.303 23.2223C110.265 23.5711 110.23 23.9201 110.194 24.2692C110.133 24.8673 110.07 25.4653 110.005 26.0631C109.979 26.3098 109.952 26.5565 109.926 26.8032C109.919 26.8663 109.912 26.9293 109.906 26.9942C109.783 28.137 109.668 29.2804 109.555 30.4241C109.449 31.4972 109.341 32.57 109.22 33.6417C109.213 33.7113 109.213 33.7113 109.205 33.7824C109.165 34.1351 109.125 34.4878 109.084 34.8405C109.046 35.1812 109.01 35.5219 108.978 35.8634C108.971 35.9279 108.965 35.9924 108.957 36.0589C108.932 36.4452 109.038 36.6392 109.267 36.9467C109.795 37.7074 109.635 38.8551 109.637 39.7339C109.637 39.7985 109.637 39.8631 109.637 39.9296C109.638 40.271 109.639 40.6124 109.639 40.9538C109.639 41.3044 109.641 41.6549 109.643 42.0055C109.644 42.2771 109.644 42.5487 109.644 42.8203C109.645 42.9495 109.645 43.0787 109.646 43.2078C109.656 44.9101 109.656 44.9101 109.253 45.3952C105.826 48.3361 98.4012 48.0811 94.1336 48.2545C94.0303 48.2587 94.0303 48.2587 93.925 48.263C92.4558 48.3214 90.9877 48.3344 89.5174 48.3313C89.173 48.3305 88.8286 48.331 88.4842 48.3317C74.7923 48.3566 74.7923 48.3566 68.8423 45.4703C68.1781 44.7881 68.3157 43.638 68.3178 42.7567C68.3178 42.6313 68.3176 42.5058 68.3175 42.3803C68.3173 42.1184 68.3176 41.8566 68.3182 41.5947C68.3189 41.2614 68.3185 40.9281 68.3177 40.5948C68.3172 40.336 68.3174 40.0772 68.3177 39.8184C68.3178 39.6956 68.3177 39.5728 68.3174 39.45C68.3133 37.3108 68.3133 37.3108 68.8885 36.6493C69.002 36.4748 68.9979 36.3909 68.9821 36.1852C68.9774 36.1181 68.9726 36.051 68.9677 35.9819C68.9579 35.8693 68.9579 35.8693 68.9479 35.7545C68.9383 35.6321 68.9383 35.6321 68.9285 35.5072C68.8561 34.6053 68.7587 33.7053 68.6644 32.8055C68.5798 31.9955 68.5002 31.1852 68.426 30.3742C68.4217 30.3272 68.4174 30.2803 68.4129 30.232C68.3702 29.7655 68.3279 29.299 68.2861 28.8325C68.2742 28.7002 68.2622 28.568 68.2502 28.4358C68.2356 28.2743 68.2211 28.1128 68.2068 27.9513C68.1645 27.4856 68.1078 27.0234 68.0443 26.56C67.9909 26.1505 67.9516 25.7396 67.9124 25.3285C67.9033 25.2347 67.8942 25.1408 67.8852 25.047C67.861 24.7961 67.8372 24.5451 67.8135 24.2942C67.7986 24.1368 67.7837 23.9795 67.7687 23.8221C67.5681 21.7033 67.4045 19.5825 67.2553 17.4595C67.2374 17.2076 67.2192 16.9557 67.2009 16.7038C67.1948 16.6206 67.1888 16.5374 67.1826 16.4517C67.1711 16.2934 67.1595 16.1352 67.1479 15.9769C67.1428 15.9065 67.1377 15.836 67.1325 15.7635C67.128 15.7017 67.1235 15.64 67.1188 15.5763C67.1106 15.4359 67.1092 15.2952 67.1092 15.1545C67.0294 15.1519 66.9496 15.1492 66.8673 15.1465C66.067 15.0559 65.3297 14.4825 64.8271 13.8786C64.39 13.2808 64.0464 12.5475 64.0126 11.7998C64.0076 11.7217 64.0076 11.7217 64.0025 11.6421C63.9626 10.5004 64.4033 9.47052 65.1738 8.63867C65.8197 7.94637 66.7351 7.60266 67.6631 7.52178C68.7315 7.48594 69.6833 7.78477 70.5042 8.47739C71.2794 9.21709 71.7666 10.2049 71.8348 11.2797C71.8193 12.3053 71.4584 13.3623 70.7406 14.108C70.7132 14.134 70.6857 14.16 70.6575 14.1868C70.7283 14.3993 70.766 14.4314 70.9387 14.5601C70.9837 14.594 71.0286 14.6279 71.075 14.6628C71.1235 14.6987 71.172 14.7345 71.222 14.7715C71.3228 14.8472 71.4236 14.923 71.5244 14.9988C71.5744 15.0362 71.6245 15.0736 71.6761 15.1121C71.8701 15.2576 72.0623 15.4054 72.2542 15.5537C72.4555 15.7089 72.657 15.8639 72.8592 16.0179C73.385 16.4187 73.899 16.8329 74.4106 17.2517C74.5142 17.3365 74.6181 17.421 74.7221 17.5055C75.3527 18.0186 75.9745 18.5406 76.5763 19.0873C76.7068 19.2054 76.8387 19.3214 76.9717 19.4366C77.253 19.6818 77.5278 19.9341 77.8021 20.1871C77.9499 20.3234 78.0988 20.4586 78.2481 20.5933C78.3253 20.6634 78.4025 20.7334 78.4797 20.8035C78.5167 20.8366 78.5537 20.8696 78.5918 20.9037C78.6805 20.9846 78.766 21.0692 78.8507 21.1543C78.8507 21.1969 78.8507 21.2394 78.8507 21.2833C79.0253 21.1275 79.1226 20.9625 79.2312 20.7561C79.267 20.6887 79.3028 20.6213 79.3397 20.5518C79.3779 20.4792 79.4161 20.4066 79.4555 20.3317C79.5371 20.1784 79.6188 20.025 79.7007 19.8718C79.7317 19.8137 79.7317 19.8137 79.7634 19.7543C80.0597 19.2006 80.3719 18.6559 80.6829 18.1104C80.7863 17.9283 80.8887 17.7457 80.991 17.563C81.4315 16.7762 81.8876 16.0002 82.3538 15.2284C82.5446 14.9124 82.7326 14.5948 82.9193 14.2764C83.3018 13.6244 83.6969 12.9821 84.1043 12.3453C84.2104 12.1789 84.3155 12.012 84.4205 11.8449C85.2002 10.6069 86.0314 9.40588 86.873 8.20938C87.0594 7.94417 87.2452 7.67853 87.431 7.41291C87.3809 7.40373 87.3308 7.39454 87.2792 7.38507C86.6884 7.25824 86.1443 6.76152 85.8104 6.27561C85.1922 5.30764 84.9365 4.23475 85.1503 3.09152C85.3964 2.07785 85.9195 1.14892 86.8269 0.594143C88.3135 -0.22656 89.9912 -0.226422 91.408 0.778863Z" fill="black"/>
<path d="M88.9793 8.38086C89.225 8.6052 89.3996 8.86068 89.5841 9.13486C89.6369 9.21272 89.6369 9.21272 89.6907 9.29214C89.8195 9.48272 89.9478 9.67369 90.076 9.86467C90.1308 9.94602 90.1856 10.0274 90.2404 10.1087C90.9591 11.1761 91.6703 12.2457 92.334 13.3484C92.3699 13.4077 92.4057 13.4671 92.4427 13.5282C93.0682 14.5634 93.6846 15.6041 94.3014 16.6445C94.4676 16.9249 94.6342 17.2052 94.8009 17.4853C95.5758 18.7884 96.3434 20.0943 97.0612 21.4298C97.3005 21.8744 97.5443 22.3161 97.7934 22.7553C97.8255 22.8123 97.8576 22.8693 97.8906 22.9281C97.9206 22.9806 97.9506 23.0331 97.9814 23.0872C98.0206 23.156 98.0206 23.156 98.0605 23.2262C98.1418 23.3504 98.2204 23.4456 98.3337 23.5415C98.5072 23.5796 98.5072 23.5796 98.7007 23.5778C98.7648 23.5806 98.8289 23.5833 98.8949 23.5861C99.5223 23.4547 99.9834 22.805 100.412 22.3641C100.787 21.9786 101.17 21.6198 101.591 21.2841C101.809 21.1099 102.019 20.9272 102.229 20.7433C102.635 20.3893 103.045 20.0399 103.457 19.6928C103.56 19.6054 103.663 19.5174 103.766 19.4293C104.154 19.0978 104.547 18.7756 104.95 18.4622C105.244 18.2333 105.533 17.9992 105.821 17.7635C108.784 15.3483 108.784 15.3483 109.107 15.3483C109.134 16.2715 109.054 17.1832 108.974 18.1022C108.964 18.229 108.953 18.3557 108.942 18.4825C108.77 20.5147 108.56 22.5432 108.347 24.5715C108.334 24.7003 108.32 24.8291 108.307 24.9578C108.233 25.6643 108.158 26.3707 108.084 27.0771C107.982 28.0341 107.883 28.9912 107.785 29.9485C107.779 30.011 107.772 30.0734 107.766 30.1377C107.687 30.905 107.611 31.6724 107.535 32.44C107.509 32.7058 107.483 32.9717 107.457 33.2375C107.427 33.5364 107.398 33.8353 107.369 34.1342C107.354 34.2918 107.338 34.4495 107.323 34.6071C107.316 34.6781 107.309 34.749 107.302 34.8221C107.258 35.2602 107.193 35.6898 107.108 36.1217C104.064 36.8403 100.951 37.2088 97.8388 37.464C97.7053 37.4751 97.5719 37.4864 97.4385 37.4978C96.9464 37.5395 96.4543 37.572 95.9611 37.5979C95.8614 37.6032 95.7617 37.6085 95.6619 37.614C93.5097 37.7319 91.3585 37.7467 89.2036 37.7466C89.0632 37.7466 88.9227 37.7466 88.7823 37.7467C87.0836 37.7474 85.3867 37.7371 83.6892 37.67C83.6167 37.6671 83.5441 37.6643 83.4694 37.6613C83.0008 37.6423 82.5325 37.6193 82.0642 37.5934C81.9928 37.5894 81.9214 37.5855 81.8479 37.5814C78.9845 37.4194 76.1247 37.1579 73.3025 36.6378C73.2186 36.6223 73.2186 36.6223 73.133 36.6066C71.1314 36.2366 71.1314 36.2366 70.7865 36.1217C70.7814 36.0663 70.7763 36.011 70.7711 35.954C70.722 35.4202 70.6727 34.8865 70.6232 34.3527C70.5978 34.0787 70.5725 33.8046 70.5473 33.5305C70.435 32.3087 70.3165 31.0882 70.1824 29.8686C70.0933 29.0587 70.0136 28.2484 69.9438 27.4365C69.8811 26.7102 69.8117 25.9855 69.7283 25.2612C69.6012 24.1471 69.5088 23.03 69.4139 21.9128C69.3948 21.6884 69.3755 21.464 69.3561 21.2396C69.2614 20.139 69.1684 19.0381 69.0782 17.9371C69.0699 17.8359 69.0616 17.7348 69.0532 17.6337C68.9904 16.8725 68.9418 16.1116 68.9156 15.3483C69.2519 15.5317 69.555 15.7368 69.8591 15.9693C69.904 16.0033 69.949 16.0374 69.9953 16.0724C70.1302 16.1748 70.2648 16.2776 70.3994 16.3805C70.4372 16.4094 70.4751 16.4382 70.5141 16.4679C71.0225 16.8557 71.5257 17.2503 72.0279 17.6461C72.1393 17.7338 72.251 17.8212 72.3628 17.9084C73.5059 18.8017 74.6153 19.7277 75.6895 20.7029C76.1344 21.1051 76.1344 21.1051 76.5846 21.5013C77.1852 22.0264 77.7589 22.5714 78.318 23.1403C78.3814 23.2044 78.3814 23.2044 78.4459 23.2699C78.5024 23.3274 78.5024 23.3274 78.56 23.3862C78.7552 23.5688 78.9331 23.56 79.1934 23.5698C79.2663 23.5737 79.3393 23.5776 79.4144 23.5816C79.6475 23.5372 79.7272 23.4741 79.8653 23.2841C80.0411 23.0064 80.2009 22.7209 80.3587 22.4327C80.3977 22.3621 80.4368 22.2915 80.4771 22.2188C80.5599 22.0692 80.6426 21.9195 80.725 21.7696C80.9284 21.4 81.1335 21.0314 81.3385 20.6626C81.3992 20.5533 81.3992 20.5533 81.4612 20.4417C82.0777 19.3322 82.7038 18.2301 83.3533 17.1395C83.6299 16.6749 83.9034 16.2085 84.176 15.7416C84.6367 14.9529 85.105 14.1694 85.5835 13.3914C85.6864 13.2238 85.7886 13.0558 85.8907 12.8877C86.8368 11.3367 87.8399 9.79786 88.9793 8.38086Z" fill="#F8E482"/>
<path d="M70.2059 37.8633C70.7539 37.9062 71.289 38.0016 71.8291 38.0999C74.1562 38.5215 76.4951 38.8736 78.8507 39.0891C78.8992 39.0935 78.9476 39.098 78.9975 39.1026C82.2244 39.3991 85.4564 39.4333 88.6942 39.4282C89.0422 39.4277 89.3902 39.4279 89.7382 39.4285C91.8521 39.4317 93.962 39.4304 96.0728 39.2986C96.4136 39.2774 96.7546 39.26 97.0956 39.2425C99.9986 39.0818 102.883 38.6334 105.747 38.1468C105.789 38.1396 105.832 38.1324 105.876 38.1249C106.106 38.0856 106.336 38.0448 106.565 38.0025C106.614 37.9935 106.664 37.9846 106.714 37.9753C106.808 37.9581 106.902 37.9407 106.996 37.9229C107.251 37.8763 107.493 37.8487 107.753 37.8633C107.877 37.9873 107.825 38.1722 107.825 38.3371C107.825 38.396 107.825 38.4549 107.825 38.5155C107.825 38.5772 107.825 38.6389 107.825 38.7024C107.825 38.9073 107.824 39.1122 107.824 39.3171C107.823 39.4588 107.823 39.6004 107.823 39.7421C107.823 40.1158 107.822 40.4894 107.822 40.863C107.821 41.244 107.821 41.625 107.82 42.0059C107.82 42.754 107.819 43.5021 107.817 44.2501C107.734 44.2919 107.651 44.3336 107.569 44.3753C107.522 44.3985 107.476 44.4217 107.429 44.4456C104.034 46.1118 99.4675 46.144 95.7774 46.363C95.7134 46.3668 95.6493 46.3706 95.5833 46.3746C93.5036 46.4961 91.4249 46.5214 89.3422 46.5202C89.2805 46.5202 89.2189 46.5202 89.1553 46.5202C86.9653 46.5198 84.7803 46.4869 82.5925 46.3791C82.5242 46.3758 82.4559 46.3725 82.3856 46.3691C73.4743 45.9377 73.4743 45.9377 70.1414 44.2501C70.1399 43.4365 70.1387 42.6228 70.138 41.8091C70.1377 41.4313 70.1373 41.0535 70.1365 40.6757C70.1358 40.3114 70.1354 39.947 70.1353 39.5827C70.1351 39.4434 70.1349 39.3042 70.1346 39.1649C70.1341 38.9704 70.134 38.7759 70.1341 38.5814C70.1338 38.5234 70.1336 38.4653 70.1334 38.4055C70.134 38.0071 70.134 38.0071 70.2059 37.8633Z" fill="#F8E482"/>
<path d="M90.6055 23.1636C92.0318 24.1112 92.652 25.4379 93.0316 27.0548C93.3475 28.7618 93.0267 30.6928 92.1405 32.1862C91.9793 32.4117 91.8059 32.622 91.6244 32.8313C91.584 32.8844 91.5437 32.9376 91.5022 32.9923C91.026 33.5586 90.2896 33.9858 89.5599 34.1216C88.4439 34.199 87.609 33.9354 86.7435 33.2022C85.5061 32.0412 84.9625 30.3156 84.8983 28.6551C84.8575 27.023 85.1444 25.2299 86.3 23.9894C87.4869 22.7742 89.0591 22.2599 90.6055 23.1636Z" fill="black"/>
<path d="M89.3732 24.4776C90.0506 24.7625 90.5742 25.465 90.8502 26.1217C91.332 27.386 91.523 29.0958 90.9792 30.3796C90.9616 30.4218 90.9439 30.464 90.9257 30.5075C90.5944 31.2808 90.1592 31.928 89.4309 32.3795C89.081 32.4961 88.7255 32.508 88.3906 32.3472C88.2988 32.2674 88.2988 32.2674 88.2051 32.186C88.1656 32.1536 88.126 32.1213 88.0852 32.0879C87.3895 31.4691 87.0756 30.548 86.8504 29.6699C86.8297 29.5902 86.8091 29.5104 86.7879 29.4283C86.4927 28.1369 86.6406 26.7468 87.3236 25.5884C87.8408 24.8627 88.429 24.2464 89.3732 24.4776Z" fill="#7D5232"/>
<path d="M89.947 1.99385C90.5201 2.30242 90.822 2.79564 91.017 3.40155C91.1444 4.07196 91.0707 4.66185 90.6952 5.22658C90.3605 5.66201 89.8417 5.95365 89.3019 6.05819C88.6909 6.11275 88.0826 5.91888 87.6084 5.52671C87.1305 5.04557 86.9795 4.54344 86.9512 3.88086C86.9596 3.31779 87.1453 2.89539 87.435 2.42125C88.16 1.77344 89.057 1.62969 89.947 1.99385Z" fill="#F8E482"/>
<path d="M110.971 9.5273C111.581 9.88009 111.921 10.3692 112.14 11.0257C112.189 11.5856 112.152 12.1514 111.822 12.6217C111.438 13.0687 110.958 13.4887 110.351 13.5634C109.595 13.5736 109.012 13.3567 108.462 12.8321C108.011 12.2769 108.008 11.5789 108.075 10.8967C108.196 10.3724 108.566 9.96958 108.982 9.64676C109.552 9.33151 110.358 9.27971 110.971 9.5273Z" fill="#F8E482"/>
<path d="M69.0447 9.67118C69.5174 10.0021 69.8343 10.3893 69.9479 10.9615C70.0048 11.6421 69.9227 12.2374 69.4963 12.788C69.1204 13.1843 68.5614 13.4485 68.0178 13.4928C67.3289 13.5085 66.8924 13.3624 66.3863 12.8926C65.93 12.4005 65.8469 11.9407 65.8616 11.2817C65.909 10.7281 66.1447 10.2465 66.5266 9.84456C67.2866 9.21322 68.2023 9.19723 69.0447 9.67118Z" fill="#F8E482"/>
</svg>
