<svg width="180" height="277" viewBox="0 0 180 277" fill="none" xmlns="http://www.w3.org/2000/svg">
<path d="M84.3709 14.0678C88.7506 16.12 91.1857 20.702 93.3145 24.8254C93.4119 25.0127 93.5093 25.2 93.6096 25.3929C95.6703 29.4108 97.7102 33.9345 98.5096 38.3903C98.7201 38.4119 98.9307 38.4335 99.1477 38.4557C101.87 38.7986 104.333 39.5927 106.908 40.5166C107.748 40.7984 107.748 40.7984 108.611 40.9878C109.257 40.6405 109.819 40.2885 110.415 39.8694C110.779 39.6261 111.143 39.3837 111.508 39.1423C111.792 38.9544 111.792 38.9544 112.08 38.7628C117.222 35.4108 124.535 31.4813 130.834 32.3294C132.299 32.9462 132.848 33.8018 133.501 35.1874C134.828 38.8427 134.082 43.5554 133.63 47.3193C133.594 47.6245 133.559 47.9298 133.522 48.2443C133.354 49.5618 133.165 50.8269 132.771 52.0972C132.447 53.1771 132.21 54.0034 132.277 55.1299C133.109 56.3501 134.126 57.2073 135.249 58.1508C136.054 58.8753 136.707 59.7022 137.364 60.5595C137.494 60.7281 137.624 60.8967 137.757 61.0704C144.535 70.0245 147.745 80.2212 149.793 91.1593C150.653 95.7234 151.577 99.8376 153.923 103.906C154.17 104.349 154.415 104.792 154.66 105.236C155.028 105.902 155.398 106.567 155.771 107.231C159.371 113.647 161.268 120.244 161.229 127.626C161.228 127.837 161.228 128.048 161.227 128.265C161.212 131.384 161.103 134.359 160.273 137.385C160.219 137.587 160.164 137.789 160.109 137.997C156.763 150.092 147.444 159.095 136.831 165.165C135.054 166.165 133.255 167.106 131.412 167.978C133.091 169.244 134.771 170.505 136.48 171.73C139.388 173.842 142.087 176.18 144.688 178.657C144.861 178.821 145.034 178.986 145.212 179.156C149.717 183.477 153.613 188.241 156.232 193.953C160.591 189.574 162.683 184.552 163.773 178.535C164.168 176.436 164.606 174.55 166.226 173.047C167.401 172.274 168.085 172.192 169.509 172.307C172.383 173.119 174.197 175.821 175.624 178.278C180.084 186.295 181.155 195.483 178.744 204.343C178.692 204.538 178.639 204.733 178.585 204.934C176.796 211.343 173.087 216.802 168.643 221.66C168.427 221.897 168.21 222.134 167.988 222.378C160.709 229.982 148.625 236.827 137.953 237.274C137.408 237.264 136.863 237.255 136.318 237.245C136.338 237.509 136.358 237.773 136.379 238.045C136.565 240.623 136.656 243.186 136.665 245.772C136.666 245.961 136.667 246.151 136.668 246.346C136.672 247.348 136.675 248.35 136.676 249.353C136.677 250.166 136.681 250.978 136.688 251.791C136.749 259.563 136.749 259.563 136.241 263.055C136.21 263.273 136.179 263.492 136.147 263.717C135.591 266.957 133.841 270.142 131.292 272.237C125.279 276.333 117.612 277.164 110.541 275.866C105.956 274.76 101.852 272.527 99.3033 268.452C97.3734 265.007 96.7184 261.669 96.7779 257.737C96.4772 257.787 96.4772 257.787 96.1705 257.838C95.2428 257.992 94.3147 258.144 93.3867 258.296C93.0715 258.349 92.7564 258.402 92.4318 258.456C88.6375 259.073 84.9199 259.234 81.0834 259.234C80.3173 259.234 79.5513 259.239 78.7852 259.245C73.8202 259.261 69.0235 258.742 64.1645 257.737C64.1604 258.02 64.1563 258.303 64.1521 258.595C64.0136 263.333 62.6327 267.835 59.3482 271.392C54.2429 276.124 47.4649 276.479 40.88 276.266C38.8323 276.143 36.9535 275.704 35.0145 275.054C34.6997 274.949 34.385 274.845 34.0607 274.737C30.1774 273.28 26.9786 270.669 25.2196 266.885C23.7576 263.176 23.7133 259.284 23.7202 255.348C23.7199 254.988 23.7196 254.629 23.7193 254.258C23.7191 253.499 23.7197 252.739 23.7209 251.98C23.7224 250.848 23.7209 249.717 23.719 248.585C23.7179 244.841 23.7599 241.1 23.8848 237.357C23.8956 237.025 23.9065 236.692 23.9177 236.35C24.2188 228.218 25.5861 220.099 27.2219 212.136C27.0724 212.194 26.9229 212.252 26.7689 212.312C21.3039 214.424 16.444 215.776 10.7506 213.516C7.36508 211.957 4.6685 209.55 3.19474 206.095C1.5829 201.517 2.41322 197.327 4.37625 193.053C6.8726 187.918 10.5442 183.566 14.5228 179.523C14.8057 179.229 15.0883 178.935 15.3707 178.641C16.8508 177.123 18.3851 175.736 20.0437 174.417C20.6273 173.947 21.1983 173.474 21.7641 172.985C23.7208 171.292 25.7317 169.742 27.8566 168.266C28.6588 167.727 28.6588 167.727 29.2422 167.112C29.0592 167.019 28.8763 166.927 28.6878 166.831C21.8779 163.363 21.8779 163.363 19.1407 161.34C18.8378 161.119 18.535 160.897 18.223 160.669C15.9911 159.01 13.9371 157.196 11.9253 155.279C11.6824 155.055 11.4394 154.83 11.1891 154.599C4.24978 147.992 0.366446 139.074 0.0109655 129.547C-0.213834 119.353 3.03542 110.889 8.13063 102.166C10.6829 97.6723 11.469 92.5558 12.4943 87.5554C13.7891 81.2749 15.4349 75.1933 18.5634 69.5606C18.7973 69.1209 18.7973 69.1209 19.0358 68.6722C20.896 65.3032 23.3295 62.2769 25.8149 59.3509C25.9562 59.1837 26.0975 59.0166 26.2431 58.8443C26.9184 58.0622 27.5973 57.3421 28.3899 56.6778C29.8763 55.4761 29.8763 55.4761 30.4767 53.7545C30.323 52.7472 30.0753 51.7871 29.8194 50.8007C28.7704 45.3997 27.4004 37.4253 30.3605 32.4196C31.3766 31.3139 32.0094 30.9398 33.5173 30.742C35.6305 30.816 37.6583 31.6256 39.6323 32.3294C39.9076 32.4269 40.1829 32.5244 40.4666 32.6248C42.4831 33.409 44.4011 34.4099 46.3245 35.3959C46.6153 35.5432 46.9062 35.6905 47.2058 35.8422C48.5662 36.5496 49.8188 37.2557 50.9998 38.2381C53.0011 39.9358 53.0011 39.9358 55.5051 40.3521C57.4138 39.9787 59.2019 39.3318 61.02 38.6547C62.2477 38.2662 63.4599 38.1521 64.7417 38.1017C64.7756 37.8936 64.8096 37.6854 64.8445 37.471C65.0358 36.6345 65.3147 35.9735 65.6944 35.2054C65.8318 34.9271 65.9693 34.6488 66.1109 34.3621C66.2603 34.0663 66.4097 33.7706 66.5636 33.4658C66.7185 33.1585 66.8735 32.8512 67.0331 32.5346C77.6959 11.657 77.6959 11.657 84.3709 14.0678Z" fill="#ECECEB"/>
<path d="M144 82.2112C144 100.625 116.725 69.2232 81.4476 69.2232C46.1703 69.2232 17 100.625 17 82.2112C17 63.7979 46.1703 40 81.4476 40C116.725 40 144 63.7979 144 82.2112Z" fill="#AADCE7"/>
<path d="M84.3709 14.0678C88.7506 16.12 91.1857 20.702 93.3145 24.8254C93.4119 25.0127 93.5093 25.2 93.6096 25.3929C95.6703 29.4108 97.7102 33.9345 98.5096 38.3903C98.7201 38.4119 98.9307 38.4335 99.1477 38.4557C101.87 38.7986 104.333 39.5927 106.908 40.5166C107.748 40.7984 107.748 40.7984 108.611 40.9878C109.257 40.6405 109.819 40.2885 110.415 39.8694C110.779 39.6261 111.143 39.3837 111.508 39.1423C111.792 38.9544 111.792 38.9544 112.08 38.7628C117.222 35.4108 124.535 31.4813 130.834 32.3294C132.299 32.9462 132.848 33.8018 133.501 35.1874C134.828 38.8427 134.082 43.5554 133.63 47.3193C133.594 47.6245 133.559 47.9298 133.522 48.2443C133.354 49.5618 133.165 50.8269 132.771 52.0972C132.447 53.1771 132.21 54.0034 132.277 55.1299C133.109 56.3501 134.126 57.2073 135.249 58.1508C136.054 58.8753 136.707 59.7022 137.364 60.5595C137.494 60.7281 137.624 60.8967 137.757 61.0704C144.535 70.0245 147.745 80.2212 149.793 91.1593C150.653 95.7234 151.577 99.8376 153.923 103.906C154.17 104.349 154.415 104.792 154.66 105.236C155.028 105.902 155.398 106.567 155.771 107.231C159.371 113.647 161.268 120.244 161.229 127.626C161.228 127.837 161.228 128.048 161.227 128.265C161.212 131.384 161.103 134.359 160.273 137.385C160.219 137.587 160.164 137.789 160.109 137.997C156.763 150.092 147.444 159.095 136.831 165.165C135.054 166.165 133.255 167.106 131.412 167.978C133.091 169.244 134.771 170.505 136.48 171.73C139.388 173.842 142.087 176.18 144.688 178.657C144.861 178.821 145.034 178.986 145.212 179.156C149.717 183.477 153.613 188.241 156.232 193.953C160.591 189.574 162.683 184.552 163.773 178.535C164.168 176.436 164.606 174.55 166.226 173.047C167.401 172.274 168.085 172.192 169.509 172.307C172.383 173.119 174.197 175.821 175.624 178.278C180.084 186.295 181.155 195.483 178.744 204.343C178.692 204.538 178.639 204.733 178.585 204.934C176.796 211.343 173.087 216.802 168.643 221.66C168.427 221.897 168.21 222.134 167.988 222.378C160.709 229.982 148.625 236.827 137.953 237.274C137.408 237.264 136.863 237.255 136.318 237.245C136.338 237.509 136.358 237.773 136.379 238.045C136.565 240.623 136.656 243.186 136.665 245.772C136.666 245.961 136.667 246.151 136.668 246.346C136.672 247.348 136.675 248.35 136.676 249.353C136.677 250.166 136.681 250.978 136.688 251.791C136.749 259.563 136.749 259.563 136.241 263.055C136.21 263.273 136.179 263.492 136.147 263.717C135.591 266.957 133.841 270.142 131.292 272.237C125.279 276.333 117.612 277.164 110.541 275.866C105.956 274.76 101.852 272.527 99.3033 268.452C97.3734 265.007 96.7184 261.669 96.7779 257.737C96.4772 257.787 96.4772 257.787 96.1705 257.838C95.2428 257.992 94.3147 258.144 93.3867 258.296C93.0715 258.349 92.7564 258.402 92.4318 258.456C88.6375 259.073 84.9199 259.234 81.0834 259.234C80.3173 259.234 79.5513 259.239 78.7852 259.245C73.8202 259.261 69.0235 258.742 64.1645 257.737C64.1604 258.02 64.1563 258.303 64.1521 258.595C64.0136 263.333 62.6327 267.835 59.3482 271.392C54.2429 276.124 47.4649 276.479 40.88 276.266C38.8323 276.143 36.9535 275.704 35.0145 275.054C34.6997 274.949 34.385 274.845 34.0607 274.737C30.1774 273.28 26.9786 270.669 25.2196 266.885C23.7576 263.176 23.7133 259.284 23.7202 255.348C23.7199 254.988 23.7196 254.629 23.7193 254.258C23.7191 253.499 23.7197 252.739 23.7209 251.98C23.7224 250.848 23.7209 249.717 23.719 248.585C23.7179 244.841 23.7599 241.1 23.8848 237.357C23.8956 237.025 23.9065 236.692 23.9177 236.35C24.2188 228.218 25.5861 220.099 27.2219 212.136C27.0724 212.194 26.9229 212.252 26.7689 212.312C21.3039 214.424 16.444 215.776 10.7506 213.516C7.36508 211.957 4.6685 209.55 3.19474 206.095C1.5829 201.517 2.41322 197.327 4.37625 193.053C6.8726 187.918 10.5442 183.566 14.5228 179.523C14.8057 179.229 15.0883 178.935 15.3707 178.641C16.8508 177.123 18.3851 175.736 20.0437 174.417C20.6273 173.947 21.1983 173.474 21.7641 172.985C23.7208 171.292 25.7317 169.742 27.8566 168.266C28.6588 167.727 28.6588 167.727 29.2422 167.112C29.0592 167.019 28.8763 166.927 28.6878 166.831C21.8779 163.363 21.8779 163.363 19.1407 161.34C18.8378 161.119 18.535 160.897 18.223 160.669C15.9911 159.01 13.9371 157.196 11.9253 155.279C11.6824 155.055 11.4394 154.83 11.1891 154.599C4.24978 147.992 0.366446 139.074 0.0109655 129.547C-0.213834 119.353 3.03542 110.889 8.13063 102.166C10.6829 97.6723 11.469 92.5558 12.4943 87.5554C13.7891 81.2749 15.4349 75.1933 18.5634 69.5606C18.7973 69.1209 18.7973 69.1209 19.0358 68.6722C20.896 65.3032 23.3295 62.2769 25.8149 59.3509C25.9562 59.1837 26.0975 59.0166 26.2431 58.8443C26.9184 58.0622 27.5973 57.3421 28.3899 56.6778C29.8763 55.4761 29.8763 55.4761 30.4767 53.7545C30.323 52.7472 30.0753 51.7871 29.8194 50.8007C28.7704 45.3997 27.4004 37.4253 30.3605 32.4196C31.3766 31.3139 32.0094 30.9398 33.5173 30.742C35.6305 30.816 37.6583 31.6256 39.6323 32.3294C39.9076 32.4269 40.1829 32.5244 40.4666 32.6248C42.4831 33.409 44.4011 34.4099 46.3245 35.3959C46.6153 35.5432 46.9062 35.6905 47.2058 35.8422C48.5662 36.5496 49.8188 37.2557 50.9998 38.2381C53.0011 39.9358 53.0011 39.9358 55.5051 40.3521C57.4138 39.9787 59.2019 39.3318 61.02 38.6547C62.2477 38.2662 63.4599 38.1521 64.7417 38.1017C64.7756 37.8936 64.8096 37.6854 64.8445 37.471C65.0358 36.6345 65.3147 35.9735 65.6944 35.2054C65.8318 34.9271 65.9693 34.6488 66.1109 34.3621C66.2603 34.0663 66.4097 33.7706 66.5636 33.4658C66.7185 33.1585 66.8735 32.8512 67.0331 32.5346C77.6959 11.657 77.6959 11.657 84.3709 14.0678ZM69.2021 43.5624C67.7691 44.1927 66.2248 44.5241 64.7139 44.9222C56.6666 47.0601 49.0996 50.3817 42.2298 55.1299C42.0654 55.2421 41.9009 55.3543 41.7315 55.4698C39.3228 57.1172 37.0587 58.8938 34.8644 60.8167C34.4658 61.1658 34.0644 61.5116 33.6627 61.8571C30.3778 64.732 27.835 67.9245 25.4902 71.5809C25.3822 71.7487 25.2743 71.9164 25.1631 72.0892C21.4962 77.8849 19.9704 84.3735 18.5713 91.0038C18.5215 91.2386 18.4717 91.4734 18.4204 91.7153C18.1726 92.884 17.9283 94.0532 17.6914 95.2241C16.9404 98.868 15.7968 102.167 13.9997 105.439C13.7458 105.913 13.4921 106.387 13.2387 106.862C13.0521 107.209 13.0521 107.209 12.8618 107.564C8.235 116.207 4.62237 125.832 7.52283 135.709C7.6411 136.076 7.76172 136.442 7.88472 136.808C7.94504 136.991 8.00536 137.174 8.0675 137.362C11.6365 147.866 20.7507 155.28 30.4047 160.086C33.285 161.466 36.2672 162.575 39.267 163.665C42.6948 164.924 42.6948 164.924 43.3843 165.958C43.276 167.022 43.276 167.022 43.0956 167.978C42.8422 168.057 42.5888 168.136 42.3277 168.218C31.6978 171.938 21.4682 180.429 14.8115 189.335C14.6852 189.502 14.559 189.668 14.429 189.84C13.0175 191.707 11.7383 193.605 10.6266 195.667C10.5324 195.841 10.4382 196.015 10.3411 196.194C9.16126 198.463 8.58674 200.778 9.20716 203.293C9.98383 205.35 11.5008 206.866 13.4563 207.854C16.5114 208.985 19.4401 208.226 22.3452 206.966C23.629 206.368 24.8605 205.7 26.0756 204.972C26.5888 204.665 27.1112 204.374 27.6345 204.085C30.7822 201.991 31.4087 198.487 32.4498 195.04C32.8926 193.659 33.2192 192.745 34.4372 191.933C35.6963 191.77 36.2548 191.791 37.3053 192.528C38.0596 193.603 37.9872 194.098 37.9006 195.396C37.7291 196.182 37.5422 196.936 37.32 197.706C37.2598 197.923 37.1996 198.14 37.1377 198.363C37.0093 198.825 36.88 199.287 36.7496 199.748C36.4082 200.96 36.0777 202.175 35.7461 203.39C35.681 203.627 35.616 203.865 35.5489 204.11C32.958 213.59 31.5721 223.483 30.6492 233.259C30.6164 233.603 30.6164 233.603 30.5829 233.953C30.1418 238.959 30.0542 243.97 30.0545 248.992C30.0539 250.019 30.0486 251.046 30.0432 252.073C29.7227 259.939 29.7227 259.939 32.7833 266.875C36.1202 269.458 39.8509 269.674 43.9074 269.678C44.2759 269.686 44.6444 269.693 45.0241 269.7C48.5066 269.711 51.9712 269.078 54.6402 266.684C57.514 263.675 57.6793 258.824 58.0672 254.898C58.3551 252.19 58.3551 252.19 59.258 251.099C61.2265 250.115 64.1175 251.085 66.1487 251.496C76.4854 253.477 87.4206 253.565 97.6778 250.943C98.805 250.668 99.9596 250.671 101.107 250.81C102.076 251.472 102.327 252.004 102.55 253.119C102.601 253.62 102.641 254.123 102.674 254.625C103.025 261.484 103.025 261.484 106.681 267.063C109.754 269.496 113.464 269.671 117.233 269.66C117.577 269.665 117.92 269.67 118.274 269.675C122.076 269.677 125.255 269.032 128.038 266.323C130.578 262.185 130.346 257.436 130.311 252.758C130.308 252.183 130.306 251.608 130.303 251.033C130.294 249.419 130.277 247.806 130.257 246.192C130.253 245.829 130.249 245.465 130.245 245.09C130.013 229.545 127.521 213.597 123.457 198.61C122.955 196.716 122.571 195.049 122.753 193.087C123.488 192.202 123.933 191.977 125.062 191.789C126.164 191.972 126.574 192.308 127.371 193.087C127.762 194.021 127.762 194.021 128.064 195.119C128.182 195.522 128.301 195.925 128.421 196.327C128.482 196.535 128.543 196.743 128.605 196.958C129.834 201.404 129.834 201.404 133.024 204.505C133.536 204.758 134.061 204.984 134.586 205.209C134.94 205.397 135.291 205.589 135.64 205.784C138.86 207.554 142.161 208.803 145.851 207.876C147.923 207.171 149.285 206.428 150.406 204.506C151.526 202.08 151.333 199.728 150.442 197.254C148.365 192.42 145.124 188.481 141.513 184.718C141.344 184.539 141.175 184.361 141.001 184.177C135.22 178.099 128.48 173.823 121.07 169.995C120.735 169.82 120.4 169.645 120.055 169.465C119.604 169.233 119.604 169.233 119.144 168.996C118.424 168.555 118.424 168.555 117.847 167.689C117.738 166.824 117.738 166.824 117.847 165.958C118.854 164.907 120.26 164.685 121.617 164.316C133.892 160.789 145.23 153.11 151.539 141.829C152.588 139.856 153.314 137.798 153.923 135.653C154.021 135.311 154.119 134.969 154.22 134.616C156.655 124.472 152.691 114.954 147.665 106.323C147.538 106.102 147.411 105.881 147.28 105.653C147.044 105.245 146.805 104.839 146.56 104.437C144.087 100.166 143.518 95.0121 142.674 90.2355C140.852 79.9935 137.272 71.0562 129.969 63.4997C129.737 63.2538 129.506 63.0079 129.268 62.7545C127.353 60.7638 125.252 59.0848 123.042 57.4388C122.763 57.23 122.763 57.23 122.479 57.017C114.225 50.8729 104.973 46.6404 94.9442 44.3308C93.3967 43.9612 93.3967 43.9612 92.9048 43.4389C91.9707 42.5568 90.4837 42.6544 89.2559 42.5211C88.7666 42.4666 88.7666 42.4666 88.2674 42.411C85.4517 42.1309 82.6497 42.0566 79.8218 42.0521C79.6176 42.0511 79.4133 42.0501 79.2029 42.049C74.0512 42.0275 74.0512 42.0275 69.2021 43.5624Z" fill="black"/>
<path d="M94.204 182.155C94.892 182.701 95.548 183.265 96.2007 183.852C96.483 184.077 96.7654 184.303 97.0564 184.535C99.7248 186.755 101.547 190.05 103.127 193.088C103.223 193.269 103.319 193.45 103.418 193.637C106.579 199.685 108.35 206.474 108.611 213.291C108.62 213.486 108.63 213.681 108.64 213.883C109.004 222.182 106.812 229.794 101.322 236.135C97.469 240.131 92.5813 242.3 87.2536 243.595C86.8351 243.702 86.8351 243.702 86.4081 243.81C78.995 245.368 70.5548 243.847 64.1645 239.843C63.1454 239.13 62.2052 238.363 61.2784 237.534C61.038 237.321 60.7977 237.108 60.5501 236.888C55.298 231.951 52.5316 224.557 52.2479 217.432C51.9955 206.063 55.6266 193.797 63.5196 185.373C71.7669 176.996 84.3921 175.403 94.204 182.155Z" fill="#F2D3A3"/>
<path d="M94.204 182.155C94.892 182.701 95.548 183.265 96.2007 183.852C96.483 184.077 96.7654 184.303 97.0564 184.535C99.7248 186.755 101.547 190.05 103.127 193.088C103.223 193.269 103.319 193.45 103.418 193.637C106.579 199.685 108.35 206.474 108.611 213.291C108.62 213.486 108.63 213.681 108.64 213.883C109.004 222.182 106.812 229.794 101.322 236.135C97.469 240.131 92.5813 242.3 87.2536 243.595C86.8351 243.702 86.8351 243.702 86.4081 243.81C78.995 245.368 70.5548 243.847 64.1645 239.843C63.1454 239.13 62.2052 238.363 61.2784 237.534C61.038 237.321 60.7977 237.108 60.5501 236.888C55.298 231.951 52.5316 224.557 52.2479 217.432C51.9955 206.063 55.6266 193.797 63.5196 185.373C71.7669 176.996 84.3921 175.403 94.204 182.155ZM67.1589 191.103C60.984 199.043 58.0847 209.467 59.0337 219.45C59.71 224.531 61.983 229.589 65.9864 232.889C71.6221 237.008 78.5541 238.418 85.4227 237.357C90.4219 236.396 95.1696 233.801 98.2559 229.704C102.45 223.296 102.907 215.244 101.514 207.857C101.388 207.26 101.251 206.668 101.107 206.075C101.059 205.875 101.011 205.674 100.962 205.467C99.483 199.494 96.8189 193.729 92.4487 189.336C92.2787 189.156 92.1086 188.976 91.9335 188.79C88.6833 185.618 84.3223 184.319 79.8991 184.321C74.7694 184.454 70.4217 187.284 67.1589 191.103Z" fill="black"/>
<path d="M169.797 181.543C169.988 181.543 170.178 181.543 170.374 181.543C170.703 182.444 171.026 183.346 171.349 184.249C171.44 184.5 171.532 184.751 171.626 185.01C174.188 192.216 173.608 200.505 170.41 207.422C169.955 208.343 169.456 209.233 168.931 210.116C168.75 210.423 168.569 210.73 168.382 211.046C162.261 220.748 151.462 227.241 140.461 229.82C140.142 229.89 139.822 229.959 139.493 230.03C139.143 230.116 139.143 230.116 138.786 230.204C137.763 230.364 136.776 230.336 135.741 230.319C135.112 226.984 134.616 223.638 134.151 220.276C133.843 218.086 133.476 215.931 132.975 213.778C132.857 213.015 132.889 212.567 133.143 211.847C133.35 211.942 133.556 212.036 133.769 212.133C136.995 213.547 139.927 214.228 143.443 214.265C143.693 214.269 143.944 214.273 144.201 214.277C148.157 214.248 151.339 212.54 154.201 209.885C156.049 207.892 157.121 205.422 157.549 202.756C158.103 201.407 158.971 200.766 160.067 199.831C165.386 195.2 168.762 188.463 169.797 181.543Z" fill="#3A9592"/>
<path d="M38.1171 110.039C41.2619 112.155 43.0897 115.236 43.9615 118.914C44.3458 123.217 43.4519 126.702 40.7867 130.17C38.8908 132.347 35.5853 134.288 32.6768 134.555C28.7013 134.697 25.5892 134.414 22.3154 131.901C22.0827 131.746 22.0827 131.746 21.8453 131.587C20.5857 130.66 19.8233 129.51 19.0505 128.168C18.9531 127.999 18.8556 127.83 18.7552 127.656C17.0896 124.629 16.9329 121.031 17.5973 117.674C18.9222 113.739 21.3183 110.983 24.9851 109.137C29.4033 106.986 33.974 107.589 38.1171 110.039Z" fill="#F4A99C"/>
<path d="M138.519 110.342C141.274 112.313 143.121 115.219 144.025 118.494C144.531 122.679 143.818 126.478 141.224 129.881C138.817 132.53 135.721 134.255 132.121 134.596C128.427 134.636 125.701 133.834 122.753 131.613C122.378 131.363 122.378 131.363 121.996 131.108C119.517 128.76 118.082 125.575 117.778 122.188C117.676 118.268 118.993 114.656 121.671 111.771C122.862 110.658 124.194 109.844 125.639 109.101C125.831 109.002 126.022 108.903 126.219 108.801C130.136 107.158 135.077 108.121 138.519 110.342Z" fill="#F4A99C"/>
<path d="M62.2077 150.771C62.8522 150.262 63.2728 149.562 63.7299 148.889C66.5096 144.872 71.0788 143.008 75.7396 142.138C82.086 141.044 89.409 141.625 94.8415 145.329C95.4221 145.752 95.9782 146.189 96.5276 146.651C96.6578 146.759 96.788 146.867 96.9221 146.978C97.8738 147.844 98.4708 148.917 99.0978 150.027C99.4667 150.571 99.6409 150.768 100.254 150.967C100.922 151.038 101.336 151.007 101.958 150.746C102.543 150.272 102.757 149.916 102.999 149.201C103.033 147.155 101.685 145.625 100.345 144.199C95.3575 139.13 88.5724 137.108 81.5617 137C74.0196 137.025 67.1175 138.99 61.5704 144.272C60.2377 145.631 58.982 147.209 59.0002 149.187C59.1259 149.92 59.5201 150.265 60.0505 150.771C60.8143 151.026 61.4501 151.023 62.2077 150.771Z" fill="black"/>
<path d="M82.6358 22.5166C86.4969 24.3172 88.6513 31.8922 90.0111 35.6119C90.8924 38.0546 91.774 40.4991 92.4487 43.0082C90.9276 43.0351 89.5204 42.94 88.0112 42.7196C85.3475 42.3836 82.6824 42.3653 80.0022 42.3588C79.7962 42.3574 79.5902 42.3559 79.378 42.3545C76.3801 42.3373 73.4794 42.5708 70.514 43.0082C70.7418 41.7288 71.1858 40.6765 71.7767 39.5268C71.8786 39.3269 71.9804 39.127 72.0854 38.921C72.4243 38.2614 72.7673 37.6042 73.1115 36.9473C73.2285 36.7225 73.3455 36.4977 73.4661 36.2661C74.965 33.4045 76.5786 30.6413 78.3607 27.9462C78.5216 27.7013 78.6826 27.4564 78.8484 27.2041C79.9846 25.5178 81.2514 24.0048 82.6358 22.5166Z" fill="#3A9592"/>
<path d="M119.921 92.5235C121.798 93.5943 122.974 95.2333 123.707 97.2473C124.297 99.8513 124.314 102.891 123.136 105.325C122.029 107.062 120.712 108.216 118.713 108.812C116.885 109.015 115.602 108.731 114.095 107.658C112.175 105.922 111.137 103.846 110.851 101.263C110.765 98.5542 111.424 96.1623 113.193 94.0748C115.139 92.0961 117.3 91.3606 119.921 92.5235Z" fill="black"/>
<path d="M47.1937 92.3183C49.2882 93.4912 50.6684 95.4175 51.3302 97.7062C51.9035 100.74 51.4077 103.553 49.8059 106.179C48.9956 107.292 48.2067 108.153 46.8476 108.524C44.7904 108.797 42.9714 108.803 41.2625 107.53C39.1532 105.536 38.505 103.233 38.3876 100.388C38.4144 97.9271 39.286 95.273 41.0754 93.5156C42.9118 92.0836 44.9514 91.4501 47.1937 92.3183Z" fill="black"/>
<path d="M127.371 39.5449C127.519 42.1832 127.308 44.6315 126.83 47.2293C126.78 47.5028 126.73 47.7763 126.678 48.0581C126.434 49.3162 126.186 50.4984 125.639 51.6667C123.633 50.407 121.652 49.115 119.692 47.7858C118.527 47.002 117.341 46.2895 116.115 45.6058C117.116 44.4776 118.269 43.7903 119.56 43.0444C119.885 42.8552 119.885 42.8552 120.216 42.6623C125.641 39.5449 125.641 39.5449 127.371 39.5449Z" fill="#3A9592"/>
<path d="M36.1689 38.9673C37.9339 39.5032 39.5446 40.1637 41.1656 41.0417C41.4803 41.2099 41.4803 41.2099 41.8013 41.3815C43.6582 42.3901 45.4104 43.5192 47.1363 44.7396C46.0049 45.7078 44.8312 46.4021 43.5286 47.1026C41.6029 48.1567 39.814 49.3233 38.0382 50.6122C37.3234 51.0891 37.3234 51.0891 36.7462 51.0891C35.9922 47.0703 36.1112 43.0407 36.1689 38.9673Z" fill="#3A9592"/>
<path d="M67.9165 117.182C69.535 117.924 70.8027 118.898 71.4982 120.564C71.8302 121.848 71.8773 123.089 71.6684 124.397C71.1486 125.264 70.8305 125.682 69.9368 126.129C68.4723 126.369 67.3371 126.269 66.0946 125.426C64.7383 124.275 64.072 122.922 63.7676 121.181C63.6781 119.718 64.1109 118.863 65.0303 117.759C66.1399 117.02 66.5952 117.012 67.9165 117.182Z" fill="black"/>
<path d="M96.4893 117.182C97.3344 117.706 98.0582 118.299 98.5096 119.202C98.7376 121.137 98.6374 122.608 97.4803 124.208C96.3328 125.533 95.3885 126.078 93.6392 126.219C92.6993 126.209 92.4429 126.125 91.6009 125.606C90.6263 124.572 90.6161 123.561 90.6381 122.205C90.8596 120.257 91.9314 119.001 93.4059 117.796C94.4048 117.126 95.3205 117.044 96.4893 117.182Z" fill="black"/>
<path d="M54.9209 68.2032C55.3192 68.4023 55.6486 68.6352 55.853 69.0371C56.0709 69.712 56.0532 70.4824 55.7553 71.1299C55.3986 71.7404 54.9189 72.2642 54.4426 72.7865C54.3047 72.9384 54.1691 73.0923 54.0338 73.2464C52.2616 75.2307 49.9118 76.4386 47.4052 77.2903C47.3183 77.3213 47.2315 77.3523 47.142 77.3842C45.6357 77.8815 43.3259 78.314 41.8131 77.6919C41.4383 77.4713 41.2818 77.1912 41.1056 76.8106C40.9717 76.2409 40.9312 75.7759 41.1892 75.239C41.8444 74.5295 42.6232 74.4525 43.5483 74.3111C46.5768 73.813 49.5605 72.9001 51.5128 70.423C51.8058 70.0175 52.0615 69.6 52.3098 69.1669C52.9129 68.1172 53.735 67.7216 54.9209 68.2032Z" fill="black"/>
<path d="M108.301 68.1241C108.997 68.5251 109.416 69.0837 109.864 69.7302C111.501 72.0691 114.065 73.5566 116.883 74.0813C117.427 74.1699 117.972 74.2533 118.518 74.3262C119.309 74.4384 120.14 74.5709 120.722 75.1454C121.007 75.6211 121.036 76.061 120.971 76.6C120.814 77.0658 120.607 77.4719 120.154 77.7082C118.889 78.2297 117.136 77.9616 115.861 77.6075C115.778 77.5842 115.694 77.5609 115.607 77.5369C114.28 77.1597 113.015 76.6917 111.774 76.0962C111.669 76.0468 111.564 75.9973 111.457 75.9463C109.304 74.861 106.895 72.7109 106.05 70.4543C105.955 69.8931 105.976 69.395 106.274 68.899C106.761 68.2357 107.454 67.7647 108.301 68.1241Z" fill="black"/>
<path d="M84.408 0.778863C85.2655 1.43604 85.7661 2.41142 85.9146 3.47759C86.0011 4.63569 85.628 5.69932 84.8925 6.58911C84.5728 6.9278 84.1995 7.19897 83.7857 7.41291C83.7218 7.41291 83.6579 7.41291 83.5921 7.41291C83.924 7.93804 84.2651 8.45617 84.6138 8.97031C84.6531 9.02832 84.6924 9.08634 84.7329 9.14611C84.896 9.38652 85.0592 9.62686 85.2227 9.86698C85.7296 10.6119 86.2192 11.3628 86.683 12.1352C86.8259 12.3715 86.9753 12.6036 87.1242 12.8361C88.5841 15.1346 89.9352 17.5137 91.2614 19.891C91.4975 20.3139 91.7371 20.7346 91.9789 21.1543C92.1887 21.0628 92.3217 20.9527 92.4789 20.7874C92.7312 20.529 92.9945 20.2918 93.2692 20.0576C93.417 19.9313 93.5649 19.8049 93.7127 19.6785C93.7519 19.645 93.7912 19.6115 93.8316 19.577C94.0598 19.3815 94.2848 19.1833 94.507 18.981C94.8031 18.7127 95.1099 18.4601 95.4205 18.2089C95.5862 18.0741 95.7508 17.9381 95.9155 17.8021C96.1513 17.6074 96.3876 17.4132 96.6239 17.219C96.6676 17.183 96.7113 17.147 96.7563 17.1099C97.2771 16.6818 97.8042 16.2642 98.3415 15.8571C98.7103 15.5767 99.0709 15.2871 99.4284 14.9925C99.7132 14.7584 100.005 14.5349 100.301 14.3159C100.264 14.2704 100.264 14.2704 100.225 14.224C99.4439 13.2639 99.0858 12.0587 99.2044 10.8321C99.3818 9.79331 99.9928 8.88786 100.809 8.23143C101.709 7.59711 102.716 7.50301 103.785 7.60646C104.809 7.80515 105.827 8.50185 106.418 9.35235C106.965 10.2907 107.137 11.4037 106.889 12.4676C106.609 13.4555 105.96 14.3161 105.075 14.832C104.692 15.0191 104.336 15.1531 103.914 15.219C103.916 15.2712 103.917 15.3233 103.919 15.3769C103.933 16.2704 103.855 17.1573 103.784 18.0472C103.773 18.184 103.762 18.3207 103.751 18.4575C103.625 20.0483 103.474 21.6357 103.303 23.2223C103.265 23.5711 103.23 23.9201 103.194 24.2692C103.133 24.8673 103.07 25.4653 103.005 26.0631C102.979 26.3098 102.952 26.5565 102.926 26.8032C102.919 26.8663 102.912 26.9293 102.906 26.9942C102.783 28.137 102.668 29.2804 102.555 30.4241C102.449 31.4972 102.341 32.57 102.22 33.6417C102.213 33.7113 102.213 33.7113 102.205 33.7824C102.165 34.1351 102.125 34.4878 102.084 34.8405C102.046 35.1812 102.01 35.5219 101.978 35.8634C101.971 35.9279 101.965 35.9924 101.957 36.0589C101.932 36.4452 102.038 36.6392 102.267 36.9467C102.795 37.7074 102.635 38.8551 102.637 39.7339C102.637 39.7985 102.637 39.8631 102.637 39.9296C102.638 40.271 102.639 40.6124 102.639 40.9538C102.639 41.3044 102.641 41.6549 102.643 42.0055C102.644 42.2771 102.644 42.5487 102.644 42.8203C102.645 42.9495 102.645 43.0787 102.646 43.2078C102.656 44.9101 102.656 44.9101 102.253 45.3952C98.8264 48.3361 91.4012 48.0811 87.1336 48.2545C87.0303 48.2587 87.0303 48.2587 86.925 48.263C85.4558 48.3214 83.9877 48.3344 82.5174 48.3313C82.173 48.3305 81.8286 48.331 81.4842 48.3317C67.7923 48.3566 67.7923 48.3566 61.8423 45.4703C61.1781 44.7881 61.3157 43.638 61.3178 42.7567C61.3178 42.6313 61.3176 42.5058 61.3175 42.3803C61.3173 42.1184 61.3176 41.8566 61.3182 41.5947C61.3189 41.2614 61.3185 40.9281 61.3177 40.5948C61.3172 40.336 61.3174 40.0772 61.3177 39.8184C61.3178 39.6956 61.3177 39.5728 61.3174 39.45C61.3133 37.3108 61.3133 37.3108 61.8885 36.6493C62.002 36.4748 61.9979 36.3909 61.9821 36.1852C61.9774 36.1181 61.9726 36.051 61.9677 35.9819C61.9579 35.8693 61.9579 35.8693 61.9479 35.7545C61.9383 35.6321 61.9383 35.6321 61.9285 35.5072C61.8561 34.6053 61.7587 33.7053 61.6644 32.8055C61.5798 31.9955 61.5002 31.1852 61.426 30.3742C61.4217 30.3272 61.4174 30.2803 61.4129 30.232C61.3702 29.7655 61.3279 29.299 61.2861 28.8325C61.2742 28.7002 61.2622 28.568 61.2502 28.4358C61.2356 28.2743 61.2211 28.1128 61.2068 27.9513C61.1645 27.4856 61.1078 27.0234 61.0443 26.56C60.9909 26.1505 60.9516 25.7396 60.9124 25.3285C60.9033 25.2347 60.8942 25.1408 60.8852 25.047C60.861 24.7961 60.8372 24.5451 60.8135 24.2942C60.7986 24.1368 60.7837 23.9795 60.7687 23.8221C60.5681 21.7033 60.4045 19.5825 60.2553 17.4595C60.2374 17.2076 60.2192 16.9557 60.2009 16.7038C60.1948 16.6206 60.1888 16.5374 60.1826 16.4517C60.1711 16.2934 60.1595 16.1352 60.1479 15.9769C60.1428 15.9065 60.1377 15.836 60.1325 15.7635C60.128 15.7017 60.1235 15.64 60.1188 15.5763C60.1106 15.4359 60.1092 15.2952 60.1092 15.1545C60.0294 15.1519 59.9496 15.1492 59.8673 15.1465C59.067 15.0559 58.3297 14.4825 57.8271 13.8786C57.39 13.2808 57.0464 12.5475 57.0126 11.7998C57.0076 11.7217 57.0076 11.7217 57.0025 11.6421C56.9626 10.5004 57.4033 9.47052 58.1738 8.63867C58.8197 7.94637 59.7351 7.60266 60.6631 7.52178C61.7315 7.48594 62.6833 7.78477 63.5042 8.47739C64.2794 9.21709 64.7666 10.2049 64.8348 11.2797C64.8193 12.3053 64.4584 13.3623 63.7406 14.108C63.7132 14.134 63.6857 14.16 63.6575 14.1868C63.7283 14.3993 63.766 14.4314 63.9387 14.5601C63.9837 14.594 64.0286 14.6279 64.075 14.6628C64.1235 14.6987 64.172 14.7345 64.222 14.7715C64.3228 14.8472 64.4236 14.923 64.5244 14.9988C64.5744 15.0362 64.6245 15.0736 64.6761 15.1121C64.8701 15.2576 65.0623 15.4054 65.2542 15.5537C65.4555 15.7089 65.657 15.8639 65.8592 16.0179C66.385 16.4187 66.899 16.8329 67.4106 17.2517C67.5142 17.3365 67.6181 17.421 67.7221 17.5055C68.3527 18.0186 68.9745 18.5406 69.5763 19.0873C69.7068 19.2054 69.8387 19.3214 69.9717 19.4366C70.253 19.6818 70.5278 19.9341 70.8021 20.1871C70.9499 20.3234 71.0988 20.4586 71.2481 20.5933C71.3253 20.6634 71.4025 20.7334 71.4797 20.8035C71.5167 20.8366 71.5537 20.8696 71.5918 20.9037C71.6805 20.9846 71.766 21.0692 71.8507 21.1543C71.8507 21.1969 71.8507 21.2394 71.8507 21.2833C72.0253 21.1275 72.1226 20.9625 72.2312 20.7561C72.267 20.6887 72.3028 20.6213 72.3397 20.5518C72.3779 20.4792 72.4161 20.4066 72.4555 20.3317C72.5371 20.1784 72.6188 20.025 72.7007 19.8718C72.7317 19.8137 72.7317 19.8137 72.7634 19.7543C73.0597 19.2006 73.3719 18.6559 73.6829 18.1104C73.7863 17.9283 73.8887 17.7457 73.991 17.563C74.4315 16.7762 74.8876 16.0002 75.3538 15.2284C75.5446 14.9124 75.7326 14.5948 75.9193 14.2764C76.3018 13.6244 76.6969 12.9821 77.1043 12.3453C77.2104 12.1789 77.3155 12.012 77.4205 11.8449C78.2002 10.6069 79.0314 9.40588 79.873 8.20938C80.0594 7.94417 80.2452 7.67853 80.431 7.41291C80.3809 7.40373 80.3308 7.39454 80.2792 7.38507C79.6884 7.25824 79.1443 6.76152 78.8104 6.27561C78.1922 5.30764 77.9365 4.23475 78.1503 3.09152C78.3964 2.07785 78.9195 1.14892 79.8269 0.594143C81.3135 -0.22656 82.9912 -0.226422 84.408 0.778863Z" fill="black"/>
<path d="M81.9793 8.38086C82.225 8.6052 82.3996 8.86068 82.5841 9.13486C82.6369 9.21272 82.6369 9.21272 82.6907 9.29214C82.8195 9.48272 82.9478 9.67369 83.076 9.86467C83.1308 9.94602 83.1856 10.0274 83.2404 10.1087C83.9591 11.1761 84.6703 12.2457 85.334 13.3484C85.3699 13.4077 85.4057 13.4671 85.4427 13.5282C86.0682 14.5634 86.6846 15.6041 87.3014 16.6445C87.4676 16.9249 87.6342 17.2052 87.8009 17.4853C88.5758 18.7884 89.3434 20.0943 90.0612 21.4298C90.3005 21.8744 90.5443 22.3161 90.7934 22.7553C90.8255 22.8123 90.8576 22.8693 90.8906 22.9281C90.9206 22.9806 90.9506 23.0331 90.9814 23.0872C91.0206 23.156 91.0206 23.156 91.0605 23.2262C91.1418 23.3504 91.2204 23.4456 91.3337 23.5415C91.5072 23.5796 91.5072 23.5796 91.7007 23.5778C91.7648 23.5806 91.8289 23.5833 91.8949 23.5861C92.5223 23.4547 92.9834 22.805 93.4117 22.3641C93.7872 21.9786 94.1699 21.6198 94.5906 21.2841C94.8088 21.1099 95.0188 20.9272 95.2287 20.7433C95.635 20.3893 96.0447 20.0399 96.4569 19.6928C96.5603 19.6054 96.6633 19.5174 96.7662 19.4293C97.1541 19.0978 97.5474 18.7756 97.95 18.4622C98.2437 18.2333 98.533 17.9992 98.8213 17.7635C101.784 15.3483 101.784 15.3483 102.107 15.3483C102.134 16.2715 102.054 17.1832 101.974 18.1022C101.964 18.229 101.953 18.3557 101.942 18.4825C101.77 20.5147 101.56 22.5432 101.347 24.5715C101.334 24.7003 101.32 24.8291 101.307 24.9578C101.233 25.6643 101.158 26.3707 101.084 27.0771C100.982 28.0341 100.883 28.9912 100.785 29.9485C100.779 30.011 100.772 30.0734 100.766 30.1377C100.687 30.905 100.611 31.6724 100.535 32.44C100.509 32.7058 100.483 32.9717 100.457 33.2375C100.427 33.5364 100.398 33.8353 100.369 34.1342C100.354 34.2918 100.338 34.4495 100.323 34.6071C100.316 34.6781 100.309 34.749 100.302 34.8221C100.258 35.2602 100.193 35.6898 100.108 36.1217C97.0639 36.8403 93.9513 37.2088 90.8388 37.464C90.7053 37.4751 90.5719 37.4864 90.4385 37.4978C89.9464 37.5395 89.4543 37.572 88.9611 37.5979C88.8614 37.6032 88.7617 37.6085 88.6619 37.614C86.5097 37.7319 84.3585 37.7467 82.2036 37.7466C82.0632 37.7466 81.9227 37.7466 81.7823 37.7467C80.0836 37.7474 78.3867 37.7371 76.6892 37.67C76.6167 37.6671 76.5441 37.6643 76.4694 37.6613C76.0008 37.6423 75.5325 37.6193 75.0642 37.5934C74.9928 37.5894 74.9214 37.5855 74.8479 37.5814C71.9845 37.4194 69.1247 37.1579 66.3025 36.6378C66.2186 36.6223 66.2186 36.6223 66.133 36.6066C64.1314 36.2366 64.1314 36.2366 63.7865 36.1217C63.7814 36.0663 63.7763 36.011 63.7711 35.954C63.722 35.4202 63.6727 34.8865 63.6232 34.3527C63.5978 34.0787 63.5725 33.8046 63.5473 33.5305C63.435 32.3087 63.3165 31.0882 63.1824 29.8686C63.0933 29.0587 63.0136 28.2484 62.9438 27.4365C62.8811 26.7102 62.8117 25.9855 62.7283 25.2612C62.6012 24.1471 62.5088 23.03 62.4139 21.9128C62.3948 21.6884 62.3755 21.464 62.3561 21.2396C62.2614 20.139 62.1684 19.0381 62.0782 17.9371C62.0699 17.8359 62.0616 17.7348 62.0532 17.6337C61.9904 16.8725 61.9418 16.1116 61.9156 15.3483C62.2519 15.5317 62.555 15.7368 62.8591 15.9693C62.904 16.0033 62.949 16.0374 62.9953 16.0724C63.1302 16.1748 63.2648 16.2776 63.3994 16.3805C63.4372 16.4094 63.4751 16.4382 63.5141 16.4679C64.0225 16.8557 64.5257 17.2503 65.0279 17.6461C65.1393 17.7338 65.251 17.8212 65.3628 17.9084C66.5059 18.8017 67.6153 19.7277 68.6895 20.7029C69.1344 21.1051 69.1344 21.1051 69.5846 21.5013C70.1852 22.0264 70.7589 22.5714 71.318 23.1403C71.3814 23.2044 71.3814 23.2044 71.4459 23.2699C71.5024 23.3274 71.5024 23.3274 71.56 23.3862C71.7552 23.5688 71.9331 23.56 72.1934 23.5698C72.2663 23.5737 72.3393 23.5776 72.4144 23.5816C72.6475 23.5372 72.7272 23.4741 72.8653 23.2841C73.0411 23.0064 73.2009 22.7209 73.3587 22.4327C73.3977 22.3621 73.4368 22.2915 73.4771 22.2188C73.5599 22.0692 73.6426 21.9195 73.725 21.7696C73.9284 21.4 74.1335 21.0314 74.3385 20.6626C74.3992 20.5533 74.3992 20.5533 74.4612 20.4417C75.0777 19.3322 75.7038 18.2301 76.3533 17.1395C76.6299 16.6749 76.9034 16.2085 77.176 15.7416C77.6367 14.9529 78.105 14.1694 78.5835 13.3914C78.6864 13.2238 78.7886 13.0558 78.8907 12.8877C79.8368 11.3367 80.8399 9.79786 81.9793 8.38086Z" fill="#F8E482"/>
<path d="M63.2059 37.8633C63.7539 37.9062 64.289 38.0016 64.8291 38.0999C67.1562 38.5215 69.4951 38.8736 71.8507 39.0891C71.8992 39.0935 71.9476 39.098 71.9975 39.1026C75.2244 39.3991 78.4564 39.4333 81.6942 39.4282C82.0422 39.4277 82.3902 39.4279 82.7382 39.4285C84.8521 39.4317 86.962 39.4304 89.0728 39.2986C89.4136 39.2774 89.7546 39.26 90.0956 39.2425C92.9986 39.0818 95.8833 38.6334 98.7468 38.1468C98.7894 38.1396 98.832 38.1324 98.8759 38.1249C99.106 38.0856 99.3357 38.0448 99.5653 38.0025C99.6145 37.9935 99.6637 37.9846 99.7144 37.9753C99.8083 37.9581 99.9021 37.9407 99.9959 37.9229C100.251 37.8763 100.493 37.8487 100.753 37.8633C100.877 37.9873 100.825 38.1722 100.825 38.3371C100.825 38.396 100.825 38.4549 100.825 38.5155C100.825 38.5772 100.825 38.6389 100.825 38.7024C100.825 38.9073 100.824 39.1122 100.824 39.3171C100.823 39.4588 100.823 39.6004 100.823 39.7421C100.823 40.1158 100.822 40.4894 100.822 40.863C100.821 41.244 100.821 41.625 100.82 42.0059C100.82 42.754 100.819 43.5021 100.817 44.2501C100.734 44.2919 100.651 44.3336 100.569 44.3753C100.522 44.3985 100.476 44.4217 100.429 44.4456C97.0338 46.1118 92.4675 46.144 88.7774 46.363C88.7134 46.3668 88.6493 46.3706 88.5833 46.3746C86.5036 46.4961 84.4249 46.5214 82.3422 46.5202C82.2805 46.5202 82.2189 46.5202 82.1553 46.5202C79.9653 46.5198 77.7803 46.4869 75.5925 46.3791C75.5242 46.3758 75.4559 46.3725 75.3856 46.3691C66.4743 45.9377 66.4743 45.9377 63.1414 44.2501C63.1399 43.4365 63.1387 42.6228 63.138 41.8091C63.1377 41.4313 63.1373 41.0535 63.1365 40.6757C63.1358 40.3114 63.1354 39.947 63.1353 39.5827C63.1351 39.4434 63.1349 39.3042 63.1346 39.1649C63.1341 38.9704 63.134 38.7759 63.1341 38.5814C63.1338 38.5234 63.1336 38.4653 63.1334 38.4055C63.134 38.0071 63.134 38.0071 63.2059 37.8633Z" fill="#F8E482"/>
<path d="M83.6055 23.1636C85.0318 24.1112 85.652 25.4379 86.0316 27.0548C86.3475 28.7618 86.0267 30.6928 85.1405 32.1862C84.9793 32.4117 84.8059 32.622 84.6244 32.8313C84.584 32.8844 84.5437 32.9376 84.5022 32.9923C84.026 33.5586 83.2896 33.9858 82.5599 34.1216C81.4439 34.199 80.609 33.9354 79.7435 33.2022C78.5061 32.0412 77.9625 30.3156 77.8983 28.6551C77.8575 27.023 78.1444 25.2299 79.3 23.9894C80.4869 22.7742 82.0591 22.2599 83.6055 23.1636Z" fill="black"/>
<path d="M82.3732 24.4776C83.0506 24.7625 83.5742 25.465 83.8502 26.1217C84.332 27.386 84.523 29.0958 83.9792 30.3796C83.9616 30.4218 83.9439 30.464 83.9257 30.5075C83.5944 31.2808 83.1592 31.928 82.4309 32.3795C82.081 32.4961 81.7255 32.508 81.3906 32.3472C81.2988 32.2674 81.2988 32.2674 81.2051 32.186C81.1656 32.1536 81.126 32.1213 81.0852 32.0879C80.3895 31.4691 80.0756 30.548 79.8504 29.6699C79.8297 29.5902 79.8091 29.5104 79.7879 29.4283C79.4927 28.1369 79.6406 26.7468 80.3236 25.5884C80.8408 24.8627 81.429 24.2464 82.3732 24.4776Z" fill="#7D5232"/>
<path d="M82.947 1.99385C83.5201 2.30242 83.822 2.79564 84.017 3.40155C84.1444 4.07196 84.0707 4.66185 83.6952 5.22658C83.3605 5.66201 82.8417 5.95365 82.3019 6.05819C81.6909 6.11275 81.0826 5.91888 80.6084 5.52671C80.1305 5.04557 79.9795 4.54344 79.9512 3.88086C79.9596 3.31779 80.1453 2.89539 80.435 2.42125C81.16 1.77344 82.057 1.62969 82.947 1.99385Z" fill="#F8E482"/>
<path d="M103.971 9.5273C104.581 9.88009 104.921 10.3692 105.14 11.0257C105.189 11.5856 105.152 12.1514 104.822 12.6217C104.438 13.0687 103.958 13.4887 103.351 13.5634C102.595 13.5736 102.012 13.3567 101.462 12.8321C101.011 12.2769 101.008 11.5789 101.075 10.8967C101.196 10.3724 101.566 9.96958 101.982 9.64676C102.552 9.33151 103.358 9.27971 103.971 9.5273Z" fill="#F8E482"/>
<path d="M62.0447 9.67118C62.5174 10.0021 62.8343 10.3893 62.9479 10.9615C63.0048 11.6421 62.9227 12.2374 62.4963 12.788C62.1204 13.1843 61.5614 13.4485 61.0178 13.4928C60.3289 13.5085 59.8924 13.3624 59.3863 12.8926C58.93 12.4005 58.8469 11.9407 58.8616 11.2817C58.909 10.7281 59.1447 10.2465 59.5266 9.84456C60.2866 9.21322 61.2023 9.19723 62.0447 9.67118Z" fill="#F8E482"/>
</svg>
