<svg width="350" height="350" viewBox="0 0 350 350" fill="none" xmlns="http://www.w3.org/2000/svg">
<path d="M196.148 96.7089C196.346 96.7429 196.544 96.777 196.748 96.812C204.495 98.1789 212.119 100.612 219.429 103.49C219.578 103.354 219.578 103.354 219.729 103.215C220.557 102.477 221.297 101.925 222.339 101.512C222.66 101.381 222.66 101.381 222.988 101.247C224.814 100.643 226.507 100.47 228.428 100.481C228.801 100.483 228.801 100.483 229.181 100.485C243.252 100.691 256.356 108.485 265.958 118.33C266.76 119.17 267.502 120.051 268.221 120.963C268.738 121.615 269.278 122.242 269.82 122.872C277.287 131.83 282.492 144.197 281.588 155.929C281.159 159.86 279.261 163.786 276.255 166.381C272.751 169.054 268.733 170.219 264.353 170.198C264.176 170.198 263.999 170.199 263.817 170.2C262.423 170.198 261.049 170.087 259.663 169.943C259.719 170.102 259.774 170.261 259.832 170.425C261.049 173.918 262.152 177.378 262.827 181.019C262.864 181.206 262.901 181.392 262.939 181.585C264.156 188.005 263.996 195.216 262.601 201.588C262.538 201.888 262.538 201.888 262.473 202.195C261.56 206.435 260.127 210.424 258.081 214.245C257.975 214.457 257.869 214.669 257.76 214.886C255.238 219.812 251.345 224.196 247.005 227.581C246.82 227.726 246.82 227.726 246.632 227.874C242.463 231.112 237.721 233.671 232.765 235.492C232.908 235.592 233.051 235.691 233.198 235.793C237.106 238.563 240.705 241.848 243.615 245.664C243.712 245.79 243.809 245.916 243.908 246.046C245.915 248.668 247.599 251.421 249.167 254.324C249.245 254.469 249.323 254.613 249.404 254.763C249.944 255.78 249.944 255.78 249.944 256.287C250.093 256.287 250.242 256.287 250.396 256.287C250.435 256.021 250.435 256.021 250.474 255.749C250.588 255.118 250.72 254.509 250.875 253.888C250.923 253.694 250.972 253.501 251.021 253.301C251.12 252.908 251.22 252.516 251.321 252.123C252.214 248.511 252.253 245.02 252.143 241.327C252.127 240.736 252.118 240.145 252.109 239.554C252.099 239.288 252.099 239.288 252.087 239.017C252.075 237.665 252.48 236.765 253.334 235.718C254.523 234.79 255.962 234.882 257.403 235.04C260.435 235.771 262.699 237.643 264.862 239.787C265.061 239.983 265.26 240.179 265.465 240.381C268.417 243.453 270.043 247.189 271.148 251.258C271.195 251.429 271.242 251.6 271.29 251.776C272.406 256.123 272.441 261.698 271.191 266.007C271.11 266.316 271.03 266.625 270.95 266.934C269.442 272.572 266.447 277.838 262.149 281.829C261.963 282.015 261.776 282.202 261.584 282.394C261.398 282.581 261.211 282.767 261.019 282.959C260.907 283.076 260.794 283.193 260.678 283.313C259.751 284.266 258.783 285.095 257.713 285.883C257.556 286 257.398 286.117 257.235 286.238C251.324 290.568 244.516 293.189 237.286 294.261C236.931 294.325 236.931 294.325 236.57 294.39C235.306 294.531 234.05 294.51 232.779 294.501C232.517 294.5 232.255 294.499 231.984 294.498C231.34 294.495 230.697 294.491 230.053 294.487C230.068 294.682 230.084 294.876 230.1 295.077C230.276 297.448 230.323 299.808 230.333 302.185C230.334 302.384 230.335 302.584 230.335 302.789C230.34 303.843 230.343 304.896 230.346 305.95C230.348 307.026 230.356 308.102 230.365 309.178C230.371 310.017 230.373 310.857 230.373 311.696C230.374 312.092 230.377 312.488 230.381 312.885C230.426 317.299 229.678 321.172 226.527 324.485C223.692 327.178 220.22 328.124 216.491 328.844C216.322 328.883 216.153 328.923 215.979 328.964C215.19 329.099 214.412 329.111 213.613 329.116C213.361 329.118 213.361 329.118 213.104 329.12C206.809 329.167 200.612 328.92 195.719 324.382C192.616 321.043 191.772 316.302 191.853 311.891C191.588 311.956 191.322 312.022 191.048 312.089C187.614 312.849 184.072 313.053 180.564 313.067C180.294 313.069 180.023 313.07 179.744 313.072C178.874 313.076 178.003 313.077 177.133 313.078C176.836 313.078 176.539 313.079 176.233 313.079C171.532 313.081 166.912 312.901 162.243 312.343C161.89 312.302 161.536 312.261 161.182 312.219C160.255 312.111 159.328 312.002 158.401 311.891C158.403 312.134 158.406 312.376 158.408 312.626C158.372 316.846 156.887 321.189 153.972 324.259C149.691 328.318 143.81 329.122 138.171 329.126C137.999 329.126 137.827 329.126 137.65 329.127C132.327 329.119 126.997 328.239 122.979 324.432C119.864 321.056 119.451 316.928 119.463 312.547C119.463 312.171 119.462 311.795 119.461 311.419C119.46 310.421 119.462 309.423 119.465 308.425C119.467 307.806 119.468 307.187 119.469 306.568C119.478 300.648 119.537 294.742 119.975 288.836C119.988 288.656 120.002 288.476 120.015 288.29C120.294 284.468 120.639 280.66 121.105 276.856C120.858 276.941 120.611 277.025 120.357 277.112C120.209 277.163 120.062 277.213 119.91 277.265C119.605 277.369 119.301 277.474 118.996 277.58C118.795 277.648 118.795 277.648 118.589 277.717C118.454 277.763 118.319 277.809 118.18 277.857C114.687 278.829 109.99 278.698 106.639 277.308C106.439 277.24 106.238 277.173 106.031 277.103C103.022 276.041 100.376 273.793 98.9543 270.937C97.3111 267.481 97.2324 263.011 98.4157 259.366C98.5189 259.096 98.622 258.826 98.7283 258.548C98.8193 258.303 98.8193 258.303 98.9122 258.053C100.341 254.261 102.302 250.861 104.831 247.698C104.986 247.5 105.14 247.302 105.299 247.099C108.099 243.581 111.293 240.517 114.748 237.654C114.91 237.52 115.071 237.386 115.237 237.249C115.928 236.683 116.613 236.138 117.364 235.654C117.959 235.323 117.959 235.323 118.167 234.814C118.005 234.786 117.843 234.758 117.676 234.73C111.928 233.458 106.04 229.609 101.667 225.773C101.472 225.603 101.278 225.434 101.078 225.259C100.514 224.759 99.9584 224.252 99.4064 223.739C99.2561 223.601 99.1057 223.463 98.9508 223.32C91.193 215.909 86.9686 204.38 86.6832 193.798C86.6652 192.797 86.6617 191.796 86.6639 190.795C86.664 190.583 86.6641 190.371 86.6642 190.153C86.6824 183.307 87.4802 175.713 90.5912 169.491C90.3097 169.564 90.0282 169.637 89.7382 169.712C85.2104 170.712 80.5155 169.844 76.5557 167.508C72.7686 165.068 70.5697 161.093 69.5631 156.789C67.3815 146.431 71.8647 135.008 77.4081 126.436C77.9439 125.632 78.497 124.842 79.0635 124.059C79.1593 123.926 79.255 123.794 79.3536 123.657C82.3198 119.594 85.738 115.875 89.687 112.757C90.0922 112.418 90.4972 112.079 90.902 111.74C93.2766 109.803 95.8418 108.167 98.5023 106.654C98.6649 106.562 98.8274 106.469 98.995 106.374C103.192 104.016 107.621 102.384 112.29 101.23C112.451 101.189 112.611 101.148 112.777 101.107C115.191 100.525 117.618 100.488 120.088 100.481C120.245 100.48 120.401 100.479 120.563 100.478C124.164 100.468 128.005 101.005 130.825 103.49C130.825 103.639 130.825 103.788 130.825 103.942C131.043 103.843 131.261 103.744 131.486 103.642C139.287 100.191 147.525 97.9286 155.914 96.4829C156.128 96.4456 156.343 96.4084 156.563 96.37C169.477 94.2062 183.269 94.4865 196.148 96.7089Z" fill="#F2D3A3"/>
<path d="M196.148 96.7089C196.346 96.7429 196.544 96.777 196.748 96.812C204.495 98.1789 212.119 100.612 219.429 103.49C219.578 103.354 219.578 103.354 219.729 103.215C220.557 102.477 221.297 101.925 222.339 101.512C222.66 101.381 222.66 101.381 222.988 101.247C224.814 100.643 226.507 100.47 228.428 100.481C228.801 100.483 228.801 100.483 229.181 100.485C243.252 100.691 256.356 108.485 265.958 118.33C266.76 119.17 267.502 120.051 268.221 120.963C268.738 121.615 269.278 122.242 269.82 122.872C277.287 131.83 282.492 144.197 281.588 155.929C281.159 159.86 279.261 163.786 276.255 166.381C272.751 169.054 268.733 170.219 264.353 170.198C264.176 170.198 263.999 170.199 263.817 170.2C262.423 170.198 261.049 170.087 259.663 169.943C259.719 170.102 259.774 170.261 259.832 170.425C261.049 173.918 262.152 177.378 262.827 181.019C262.864 181.206 262.901 181.392 262.939 181.585C264.156 188.005 263.996 195.216 262.601 201.588C262.538 201.888 262.538 201.888 262.473 202.195C261.56 206.435 260.127 210.424 258.081 214.245C257.975 214.457 257.869 214.669 257.76 214.886C255.238 219.812 251.345 224.196 247.005 227.581C246.82 227.726 246.82 227.726 246.632 227.874C242.463 231.112 237.721 233.671 232.765 235.492C232.908 235.592 233.051 235.691 233.198 235.793C237.106 238.563 240.705 241.848 243.615 245.664C243.712 245.79 243.809 245.916 243.908 246.046C245.915 248.668 247.599 251.421 249.167 254.324C249.245 254.469 249.323 254.613 249.404 254.763C249.944 255.78 249.944 255.78 249.944 256.287C250.093 256.287 250.242 256.287 250.396 256.287C250.435 256.021 250.435 256.021 250.474 255.749C250.588 255.118 250.72 254.509 250.875 253.888C250.923 253.694 250.972 253.501 251.021 253.301C251.12 252.908 251.22 252.516 251.321 252.123C252.214 248.511 252.253 245.02 252.143 241.327C252.127 240.736 252.118 240.145 252.109 239.554C252.099 239.288 252.099 239.288 252.087 239.017C252.075 237.665 252.48 236.765 253.334 235.718C254.523 234.79 255.962 234.882 257.403 235.04C260.435 235.771 262.699 237.643 264.862 239.787C265.061 239.983 265.26 240.179 265.465 240.381C268.417 243.453 270.043 247.189 271.148 251.258C271.195 251.429 271.242 251.6 271.29 251.776C272.406 256.123 272.441 261.698 271.191 266.007C271.11 266.316 271.03 266.625 270.95 266.934C269.442 272.572 266.447 277.838 262.149 281.829C261.963 282.015 261.776 282.202 261.584 282.394C261.398 282.581 261.211 282.767 261.019 282.959C260.907 283.076 260.794 283.193 260.678 283.313C259.751 284.266 258.783 285.095 257.713 285.883C257.556 286 257.398 286.117 257.235 286.238C251.324 290.568 244.516 293.189 237.286 294.261C236.931 294.325 236.931 294.325 236.57 294.39C235.306 294.531 234.05 294.51 232.779 294.501C232.517 294.5 232.255 294.499 231.984 294.498C231.34 294.495 230.697 294.491 230.053 294.487C230.068 294.682 230.084 294.876 230.1 295.077C230.276 297.448 230.323 299.808 230.333 302.185C230.334 302.384 230.335 302.584 230.335 302.789C230.34 303.843 230.343 304.896 230.346 305.95C230.348 307.026 230.356 308.102 230.365 309.178C230.371 310.017 230.373 310.857 230.373 311.696C230.374 312.092 230.377 312.488 230.381 312.885C230.426 317.299 229.678 321.172 226.527 324.485C223.692 327.178 220.22 328.124 216.491 328.844C216.322 328.883 216.153 328.923 215.979 328.964C215.19 329.099 214.412 329.111 213.613 329.116C213.361 329.118 213.361 329.118 213.104 329.12C206.809 329.167 200.612 328.92 195.719 324.382C192.616 321.043 191.772 316.302 191.853 311.891C191.588 311.956 191.322 312.022 191.048 312.089C187.614 312.849 184.072 313.053 180.564 313.067C180.294 313.069 180.023 313.07 179.744 313.072C178.874 313.076 178.003 313.077 177.133 313.078C176.836 313.078 176.539 313.079 176.233 313.079C171.532 313.081 166.912 312.901 162.243 312.343C161.89 312.302 161.536 312.261 161.182 312.219C160.255 312.111 159.328 312.002 158.401 311.891C158.403 312.134 158.406 312.376 158.408 312.626C158.372 316.846 156.887 321.189 153.972 324.259C149.691 328.318 143.81 329.122 138.171 329.126C137.999 329.126 137.827 329.126 137.65 329.127C132.327 329.119 126.997 328.239 122.979 324.432C119.864 321.056 119.451 316.928 119.463 312.547C119.463 312.171 119.462 311.795 119.461 311.419C119.46 310.421 119.462 309.423 119.465 308.425C119.467 307.806 119.468 307.187 119.469 306.568C119.478 300.648 119.537 294.742 119.975 288.836C119.988 288.656 120.002 288.476 120.015 288.29C120.294 284.468 120.639 280.66 121.105 276.856C120.858 276.941 120.611 277.025 120.357 277.112C120.209 277.163 120.062 277.213 119.91 277.265C119.605 277.369 119.301 277.474 118.996 277.58C118.795 277.648 118.795 277.648 118.589 277.717C118.454 277.763 118.319 277.809 118.18 277.857C114.687 278.829 109.99 278.698 106.639 277.308C106.439 277.24 106.238 277.173 106.031 277.103C103.022 276.041 100.376 273.793 98.9543 270.937C97.3111 267.481 97.2324 263.011 98.4157 259.366C98.5189 259.096 98.622 258.826 98.7283 258.548C98.8193 258.303 98.8193 258.303 98.9122 258.053C100.341 254.261 102.302 250.861 104.831 247.698C104.986 247.5 105.14 247.302 105.299 247.099C108.099 243.581 111.293 240.517 114.748 237.654C114.91 237.52 115.071 237.386 115.237 237.249C115.928 236.683 116.613 236.138 117.364 235.654C117.959 235.323 117.959 235.323 118.167 234.814C118.005 234.786 117.843 234.758 117.676 234.73C111.928 233.458 106.04 229.609 101.667 225.773C101.472 225.603 101.278 225.434 101.078 225.259C100.514 224.759 99.9584 224.252 99.4064 223.739C99.2561 223.601 99.1057 223.463 98.9508 223.32C91.193 215.909 86.9686 204.38 86.6832 193.798C86.6652 192.797 86.6617 191.796 86.6639 190.795C86.664 190.583 86.6641 190.371 86.6642 190.153C86.6824 183.307 87.4802 175.713 90.5912 169.491C90.3097 169.564 90.0282 169.637 89.7382 169.712C85.2104 170.712 80.5155 169.844 76.5557 167.508C72.7686 165.068 70.5697 161.093 69.5631 156.789C67.3815 146.431 71.8647 135.008 77.4081 126.436C77.9439 125.632 78.497 124.842 79.0635 124.059C79.1593 123.926 79.255 123.794 79.3536 123.657C82.3198 119.594 85.738 115.875 89.687 112.757C90.0922 112.418 90.4972 112.079 90.902 111.74C93.2766 109.803 95.8418 108.167 98.5023 106.654C98.6649 106.562 98.8274 106.469 98.995 106.374C103.192 104.016 107.621 102.384 112.29 101.23C112.451 101.189 112.611 101.148 112.777 101.107C115.191 100.525 117.618 100.488 120.088 100.481C120.245 100.48 120.401 100.479 120.563 100.478C124.164 100.468 128.005 101.005 130.825 103.49C130.825 103.639 130.825 103.788 130.825 103.942C131.043 103.843 131.261 103.744 131.486 103.642C139.287 100.191 147.525 97.9286 155.914 96.4829C156.128 96.4456 156.343 96.4084 156.563 96.37C169.477 94.2062 183.269 94.4865 196.148 96.7089ZM159.531 101.682C159.173 101.724 159.173 101.724 158.808 101.767C151.13 102.681 143.69 104.56 136.476 107.332C136.27 107.411 136.064 107.489 135.851 107.57C135.327 107.772 134.806 107.98 134.286 108.194C134.01 108.308 133.734 108.421 133.45 108.538C132.823 108.856 132.823 108.856 132.654 109.436C132.631 110.114 132.646 110.78 132.675 111.457C132.746 115.461 131.765 119.57 130.599 123.381C130.531 123.602 130.463 123.824 130.393 124.053C127.004 134.961 122.068 146.282 114.147 154.716C113.718 155.175 113.314 155.644 112.912 156.127C109.501 160.011 104.417 164.51 99.4594 166.185C98.2646 166.6 97.5739 166.898 96.9042 168.003C96.5247 168.864 96.2445 169.751 95.9795 170.654C95.7726 171.358 95.5495 172.057 95.3255 172.756C94.4149 175.654 93.6428 178.558 93.1702 181.561C93.1042 181.979 93.0326 182.397 92.957 182.814C92.5778 185.085 92.5489 187.327 92.5541 189.625C92.5548 190.279 92.5495 190.933 92.5438 191.587C92.5306 195.42 92.8347 199.289 93.911 202.986C93.9683 203.189 94.0256 203.391 94.0846 203.6C97.0085 213.548 103.623 221.433 112.669 226.396C117.598 229.031 122.762 231.003 128.276 231.986C128.477 232.022 128.678 232.058 128.885 232.096C129.067 232.127 129.249 232.158 129.436 232.189C130.185 232.404 130.577 232.862 131.051 233.458C131.125 233.533 131.2 233.607 131.277 233.684C131.374 234.516 131.298 234.993 130.952 235.761C130.169 236.621 129.445 236.798 128.338 237.075C119.027 239.458 111.481 247.401 106.62 255.425C104.456 259.083 102.708 262.894 103.329 267.248C103.803 269.036 105.103 270.439 106.642 271.408C110.004 273.141 114.166 273.46 117.8 272.322C119.466 271.658 121.266 270.775 122.462 269.397C122.649 268.937 122.649 268.937 122.763 268.417C122.812 268.219 122.861 268.021 122.911 267.817C122.962 267.602 123.013 267.387 123.066 267.166C123.149 266.83 123.149 266.83 123.234 266.487C123.412 265.767 123.587 265.046 123.761 264.326C124.421 261.601 125.085 258.891 125.997 256.237C126.059 256.052 126.122 255.868 126.186 255.677C126.582 254.568 126.999 253.454 128.112 252.897C129.036 252.781 129.97 252.689 130.815 253.126C131.411 253.608 131.711 253.974 131.955 254.705C132.013 255.818 131.884 256.721 131.566 257.786C131.481 258.075 131.396 258.364 131.312 258.654C131.267 258.805 131.222 258.955 131.176 259.11C130.077 262.808 129.167 266.533 128.338 270.301C128.271 270.603 128.271 270.603 128.202 270.911C126.828 277.087 126.139 283.394 125.664 289.696C125.635 290.079 125.604 290.462 125.572 290.844C125.427 292.627 125.334 294.407 125.276 296.194C125.267 296.484 125.258 296.774 125.248 297.072C125.146 300.392 125.124 303.713 125.12 307.034C125.118 307.914 125.113 308.794 125.107 309.673C125.102 310.366 125.101 311.058 125.101 311.75C125.1 312.075 125.098 312.399 125.095 312.724C125.071 315.561 125.263 318.266 127.208 320.48C129.998 323.112 133.811 323.538 137.479 323.495C137.959 323.489 138.439 323.49 138.919 323.492C142.939 323.483 147.28 323.012 150.264 320.028C152.299 317.356 152.651 314.217 152.764 310.973C152.781 310.506 152.799 310.039 152.822 309.572C152.841 309.154 152.857 308.736 152.872 308.318C152.985 307.531 153.18 307.099 153.654 306.466C155.628 305.15 159.646 306.217 161.918 306.452C166.643 306.939 171.321 307.187 176.072 307.186C176.777 307.187 177.482 307.191 178.187 307.195C182.562 307.208 186.862 306.834 191.189 306.212C191.762 306.131 192.334 306.05 192.907 305.97C193.151 305.935 193.395 305.9 193.646 305.864C195.46 305.666 195.46 305.666 196.431 306.17C197.109 306.74 197.253 306.992 197.504 307.823C197.562 308.561 197.562 308.561 197.566 309.396C197.571 309.707 197.575 310.017 197.58 310.328C197.585 310.809 197.589 311.29 197.59 311.772C197.606 315.138 197.973 318.402 200.443 320.932C203.236 323.251 207.088 323.464 210.557 323.473C211.044 323.475 211.53 323.482 212.017 323.489C215.819 323.518 219.694 323.096 222.549 320.367C224.14 318.561 224.68 316.332 224.694 313.972C224.695 313.805 224.697 313.638 224.698 313.467C224.702 312.917 224.703 312.367 224.704 311.817C224.706 311.426 224.708 311.035 224.71 310.644C224.715 309.383 224.714 308.123 224.713 306.862C224.713 306.647 224.713 306.433 224.713 306.212C224.71 299.099 224.504 292.069 223.724 284.993C223.674 284.524 223.624 284.055 223.573 283.586C222.591 274.508 221.224 265.201 218.299 256.513C218.161 255.723 218.125 255.021 218.521 254.304C219.031 253.661 219.541 253.13 220.333 252.897C221.155 252.822 221.748 252.834 222.523 253.123C223.716 254.155 224.119 255.787 224.493 257.272C224.539 257.447 224.585 257.623 224.632 257.803C224.729 258.175 224.824 258.548 224.919 258.92C225.068 259.5 225.219 260.08 225.37 260.659C225.848 262.492 226.296 264.324 226.679 266.179C227.147 268.467 227.147 268.467 228.647 270.205C228.813 270.311 228.978 270.418 229.149 270.527C229.319 270.65 229.489 270.773 229.664 270.899C232.654 272.894 236.292 273.317 239.782 272.631C242.251 271.99 244.435 270.887 245.875 268.719C247.013 266.581 246.745 264.13 246.101 261.882C243.193 252.462 235.685 243.911 227.148 239.138C225.244 238.136 223.314 237.692 221.192 237.42C220.324 237.256 219.859 236.979 219.203 236.397C218.838 235.667 218.845 234.925 218.977 234.136C219.898 232.852 221.057 232.665 222.553 232.403C222.702 232.38 222.851 232.357 223.005 232.333C225.174 231.997 227.204 231.415 229.276 230.703C229.438 230.648 229.601 230.594 229.768 230.537C232.154 229.728 234.419 228.835 236.608 227.581C236.914 227.417 237.221 227.253 237.529 227.09C246.38 222.335 253.045 214.147 255.942 204.536C256.224 203.558 256.483 202.576 256.725 201.588C256.762 201.447 256.8 201.306 256.839 201.162C257.669 197.843 257.721 194.365 257.713 190.964C257.713 190.662 257.713 190.662 257.713 190.354C257.705 186.941 257.448 183.685 256.725 180.341C256.686 180.152 256.647 179.963 256.607 179.769C255.843 176.11 254.575 172.559 253.334 169.039C253.281 168.867 253.227 168.696 253.173 168.519C252.893 167.705 252.646 167.45 251.91 166.978C251.61 166.841 251.307 166.709 251.003 166.581C250.674 166.429 250.345 166.275 250.017 166.12C249.77 166.004 249.77 166.004 249.517 165.885C246.9 164.591 244.546 162.695 242.259 160.902C242.133 160.804 242.008 160.705 241.878 160.604C238.452 157.885 235.329 154.728 232.765 151.183C232.655 151.033 232.545 150.883 232.432 150.728C224.374 139.714 216.497 123.346 217.395 109.367C205.091 102.63 190.058 100.857 176.233 100.915C175.312 100.919 174.39 100.917 173.469 100.913C168.78 100.896 164.188 101.122 159.531 101.682Z" fill="black"/>
<path d="M246.453 110.78C253.283 114.272 259.979 119.524 264.635 125.641C264.755 125.797 264.874 125.952 264.997 126.113C266.765 128.433 268.424 130.771 269.834 133.326C269.938 133.512 270.043 133.699 270.15 133.891C273.463 139.854 275.799 145.941 275.824 152.821C275.826 153.261 275.826 153.261 275.829 153.71C275.785 156.913 275.058 159.636 272.846 162.007C269.913 164.669 266.092 164.73 262.349 164.564C253.428 163.937 245.052 156.951 239.4 150.534C238.654 149.65 237.96 148.731 237.286 147.792C237.183 147.649 237.08 147.506 236.973 147.359C233.26 142.163 230.303 136.589 228.048 130.613C227.807 129.975 227.561 129.339 227.314 128.704C225.625 124.29 224.292 119.679 223.498 115.017C223.452 114.797 223.406 114.576 223.359 114.349C223.092 112.993 222.994 111.664 222.975 110.285C222.971 110.122 222.967 109.958 222.963 109.79C222.964 108.776 223.097 108.135 223.724 107.332C229.378 103.091 240.989 108.106 246.453 110.78Z" fill="#7D5232"/>
<path d="M119.891 106.146C120.317 106.143 120.317 106.143 120.752 106.14C124.925 106.149 124.925 106.149 126.53 107.558C126.995 108.627 127.062 109.644 127.053 110.793C127.051 111.061 127.051 111.061 127.05 111.334C126.894 119.358 123.361 127.927 119.996 135.059C119.75 135.585 119.511 136.114 119.274 136.644C115.516 144.932 109.904 152.515 102.571 157.963C102.35 158.132 102.128 158.301 101.9 158.476C98.4332 161.012 94.5019 162.926 90.3653 164.066C90.1614 164.126 89.9574 164.185 89.7473 164.246C87.2054 164.878 84.2176 164.788 81.7761 163.84C81.492 163.733 81.492 163.733 81.2022 163.623C78.5289 162.456 76.7442 160.176 75.6732 157.511C75.0744 155.637 74.8852 153.878 74.9104 151.917C74.9133 151.531 74.9133 151.531 74.9164 151.138C74.9514 149.114 75.185 147.269 75.6732 145.306C75.7336 145.023 75.7939 144.741 75.856 144.45C77.4395 137.232 81.2337 130.446 85.8447 124.737C86.0632 124.449 86.0632 124.449 86.2862 124.156C89.0295 120.624 92.3681 117.585 96.0161 115.017C96.1533 114.919 96.2905 114.82 96.4319 114.719C101.694 110.958 107.768 108.053 114.099 106.654C114.28 106.613 114.462 106.571 114.649 106.528C116.399 106.165 118.108 106.135 119.891 106.146Z" fill="#7D5232"/>
<path d="M181.004 247.246C181.209 247.325 181.414 247.404 181.626 247.485C186.748 249.73 189.826 255.198 191.853 260.13C192.854 262.705 193.41 265.328 193.887 268.041C193.927 268.252 193.967 268.464 194.008 268.681C194.618 272.819 194.389 277.441 192.983 281.377C192.894 281.637 192.804 281.897 192.712 282.164C191.086 286.422 188.002 289.723 183.888 291.644C178.454 294.023 171.473 293.767 166.024 291.653C161.809 289.925 158.866 287.115 156.897 283.019C153.858 275.655 155.154 267.096 158.132 259.932C159.369 257.073 160.813 254.309 162.921 251.993C163.019 251.884 163.116 251.776 163.217 251.664C167.912 246.512 174.479 244.611 181.004 247.246Z" fill="#FFBB4D"/>
<path d="M188.612 245.068C191.394 247.416 193.451 250.183 195.244 253.349C195.318 253.479 195.392 253.609 195.468 253.743C197.739 257.801 199.052 262.333 199.765 266.911C199.804 267.159 199.804 267.159 199.844 267.413C200.975 274.86 199.933 283.034 195.523 289.315C191.249 294.822 185.874 297.438 179.12 298.696C171.208 299.514 163.36 297.935 157.055 292.945C152.592 289.294 150.163 283.885 149.586 278.212C149.504 276.947 149.497 275.68 149.501 274.412C149.501 274.24 149.501 274.069 149.501 273.892C149.517 269.127 150.275 264.632 151.846 260.13C151.897 259.983 151.947 259.836 151.999 259.684C153.686 254.884 156.279 250.711 159.757 247.02C159.884 246.881 160.011 246.743 160.141 246.6C167.718 238.601 180.21 238.166 188.612 245.068ZM164.956 249.958C164.742 250.151 164.529 250.344 164.309 250.542C160.315 254.273 158.121 259.256 156.593 264.424C156.524 264.652 156.455 264.88 156.383 265.115C154.687 271.256 154.468 278.403 157.448 284.195C160.035 288.597 163.633 290.975 168.43 292.476C170.548 292.998 172.596 293.207 174.774 293.187C175.022 293.185 175.271 293.184 175.526 293.182C180.742 293.113 185.418 291.743 189.141 287.932C191.755 285.174 192.958 281.84 193.787 278.2C193.853 277.914 193.927 277.63 194.01 277.349C195.621 269.689 192.822 260.758 188.915 254.253C188.359 253.452 187.755 252.721 187.107 251.993C186.895 251.733 186.895 251.733 186.68 251.468C184.358 248.684 180.994 246.672 177.388 246.116C172.734 245.695 168.473 246.78 164.956 249.958Z" fill="black"/>
<path d="M140.537 170.366C142.85 171.455 144.03 173.118 144.895 175.453C145.357 177.687 145.001 179.557 143.862 181.538C143.092 182.658 142.19 183.327 140.996 183.957C141.356 184.743 141.826 185.413 142.324 186.119C143.911 188.476 144.427 190.712 144.429 193.507C144.432 193.711 144.434 193.916 144.437 194.126C144.444 197.482 143.142 200.522 140.77 202.944C140.621 202.944 140.472 202.944 140.318 202.944C140.243 203.168 140.169 203.392 140.092 203.622C139.101 204.643 137.77 205.284 136.518 205.925C136.301 206.038 136.301 206.038 136.08 206.153C133.792 207.288 131.596 207.585 129.059 207.564C128.639 207.561 128.639 207.561 128.211 207.559C126.22 207.524 124.537 207.339 122.687 206.561C122.373 206.446 122.373 206.446 122.052 206.328C118.539 204.926 116.053 202.271 114.397 198.932C113.674 197.157 113.293 195.541 113.307 193.62C113.308 193.414 113.31 193.207 113.311 192.995C113.409 189.228 115.262 186.208 117.933 183.636C119.055 182.683 120.268 181.955 121.557 181.245C121.72 181.15 121.882 181.055 122.05 180.957C124.392 179.665 127.166 179.395 129.793 179.423C129.98 179.424 130.167 179.425 130.36 179.426C130.816 179.428 131.272 179.432 131.729 179.437C131.718 179.167 131.708 178.897 131.697 178.618C131.62 175.841 131.829 174.038 133.776 171.931C135.694 170.16 138.007 169.624 140.537 170.366Z" fill="#F4A99C"/>
<path d="M213.863 170.635C215.744 171.727 216.82 173.13 217.621 175.142C218.034 176.698 217.905 178.32 217.621 179.889C217.852 179.885 217.852 179.885 218.087 179.881C218.793 179.872 219.5 179.866 220.206 179.86C220.448 179.856 220.69 179.853 220.939 179.849C225.258 179.822 229.341 181.583 232.482 184.547C235.02 187.239 236.28 190.413 236.251 194.111C236.117 197.824 234.428 200.815 231.861 203.396C231.727 203.537 231.594 203.679 231.456 203.825C228.592 206.62 224.269 207.838 220.364 207.798C218.537 207.731 216.868 207.348 215.135 206.786C214.78 206.675 214.78 206.675 214.419 206.562C210.558 205.165 207.973 202.116 206.194 198.534C205.52 196.907 205.333 195.462 205.345 193.719C205.346 193.519 205.347 193.319 205.349 193.114C205.412 189.693 206.846 186.936 208.806 184.183C208.642 184.096 208.642 184.096 208.474 184.007C206.826 183.066 205.177 181.647 204.602 179.773C204.2 177.287 204.346 174.989 205.732 172.843C207.666 170.327 210.933 169.303 213.863 170.635Z" fill="#F4A99C"/>
<path d="M258.532 241.595C261.347 243.965 263.25 246.76 264.635 250.184C264.7 250.337 264.764 250.49 264.83 250.648C266.968 256.293 266.559 263.671 264.183 269.171C260.377 277.439 253.346 283.656 244.863 286.893C240.004 288.65 234.989 289.475 229.826 289.288C229.484 288.084 229.42 286.83 229.294 285.59C229.247 285.138 229.2 284.686 229.152 284.234C229.123 283.947 229.093 283.659 229.063 283.363C229.022 282.971 229.022 282.971 228.981 282.57C228.925 281.867 228.912 281.178 228.922 280.473C229.106 280.407 229.289 280.341 229.478 280.273C230.728 279.81 231.839 279.373 232.934 278.608C234.466 277.719 236.136 277.873 237.855 277.848C239.979 277.802 241.653 277.455 243.614 276.63C243.887 276.518 244.16 276.406 244.442 276.291C247.762 274.788 250.013 272.482 251.356 269.086C251.658 268.223 251.802 267.437 251.893 266.529C252.102 265.072 252.776 264.076 253.569 262.872C257.722 256.559 258.29 248.95 258.532 241.595Z" fill="#7D5232"/>
<path d="M184.253 178.476C185.367 179.371 186.204 180.569 186.655 181.923C186.796 183.717 186.329 184.959 185.214 186.345C183.523 188.142 181.155 189.185 178.744 189.608C178.445 189.608 178.147 189.608 177.84 189.608C177.845 190.625 177.862 191.642 177.882 192.659C177.883 192.946 177.885 193.233 177.886 193.528C177.926 195.212 178.031 196.469 179.196 197.745C180.55 199.01 182.386 199.047 184.144 199.023C186.89 198.887 188.586 197.556 190.413 195.639C190.768 195.238 191.112 194.826 191.444 194.405C191.88 193.871 192.07 193.705 192.747 193.623C194.004 193.582 194.704 193.734 195.696 194.581C196.315 195.508 196.308 196.204 196.148 197.293C195.183 200.19 192.181 202.293 189.593 203.622C188.776 203.969 187.955 204.265 187.107 204.526C186.883 204.601 186.659 204.675 186.429 204.752C182.284 205.058 178.953 204.993 175.607 202.346C175.095 201.959 175.095 201.959 174.223 202.04C173.709 202.355 173.709 202.355 173.192 202.774C172.022 203.632 170.854 204.1 169.477 204.526C169.141 204.638 169.141 204.638 168.798 204.752C164.306 205.131 160.602 204.743 157.045 201.814C156.781 201.604 156.781 201.604 156.511 201.391C154.944 200.084 153.331 198.431 153.132 196.318C153.215 195.331 153.487 194.89 154.106 194.129C155.117 193.455 156.087 193.514 157.271 193.677C157.864 194.1 157.864 194.1 158.401 194.807C160.003 196.744 161.85 198.624 164.487 198.925C164.969 198.952 165.448 198.961 165.931 198.96C166.1 198.96 166.27 198.96 166.445 198.96C167.776 198.933 168.784 198.667 169.929 197.971C170.089 197.898 170.25 197.825 170.416 197.75C171.009 197.421 171.08 197.018 171.285 196.389C171.359 196.24 171.434 196.091 171.511 195.937C171.546 195.461 171.567 194.985 171.582 194.508C171.592 194.224 171.601 193.94 171.611 193.647C171.62 193.349 171.629 193.051 171.638 192.744C171.648 192.441 171.658 192.138 171.668 191.836C171.692 191.093 171.715 190.351 171.737 189.608C171.389 189.566 171.389 189.566 171.034 189.524C168.484 189.112 165.956 187.913 164.282 185.907C163.346 184.554 162.94 183.367 163.148 181.697C163.665 179.891 165.085 178.722 166.618 177.74C168.093 176.937 169.643 176.58 171.285 176.272C171.491 176.23 171.697 176.188 171.91 176.145C176.096 175.579 180.696 176.044 184.253 178.476Z" fill="black"/>
<path d="M213.864 170.635C215.745 171.727 216.82 173.13 217.621 175.142C217.805 175.834 217.805 175.834 217.847 176.498C217.864 176.64 217.881 176.782 217.898 176.929C218.028 178.775 217.317 180.762 216.223 182.248C214.411 183.898 212.734 184.508 210.309 184.486C208.526 184.32 207.174 183.421 205.974 182.127C204.458 180.164 204.298 177.988 204.511 175.594C204.924 173.686 206.001 172.209 207.6 171.112C209.634 169.964 211.693 169.649 213.864 170.635Z" fill="black"/>
<path d="M140.537 170.366C142.85 171.455 144.03 173.118 144.895 175.453C145.359 177.694 144.984 179.529 143.878 181.53C142.978 182.873 141.644 183.828 140.101 184.326C137.85 184.731 136.111 184.327 134.215 183.053C132.964 181.975 132.034 180.387 131.729 178.758C131.548 176.214 131.731 174.392 133.367 172.373C135.298 170.284 137.774 169.555 140.537 170.366Z" fill="black"/>
<path d="M136.044 145.861C136.152 145.876 136.261 145.89 136.373 145.905C140.08 146.405 145.21 147.13 147.733 150.258C148.207 150.96 148.447 151.416 148.314 152.283C148.148 152.825 147.797 153.238 147.368 153.6C146.692 153.905 146.079 153.796 145.382 153.602C144.788 153.324 144.234 152.987 143.673 152.649C141.547 151.388 139.53 150.747 137.086 150.392C136.816 150.352 136.816 150.352 136.541 150.312C134.93 150.095 133.329 150.022 131.719 150.285C131.616 150.301 131.514 150.317 131.408 150.333C130.622 150.459 129.856 150.639 129.09 150.858C128.363 151.049 127.621 151.104 126.933 150.741C126.528 150.456 126.31 150.216 126.072 149.775C125.941 148.982 126.001 148.236 126.392 147.524C127.191 146.845 128.125 146.563 129.125 146.326C129.252 146.295 129.378 146.265 129.508 146.233C131.649 145.745 133.864 145.565 136.044 145.861Z" fill="black"/>
<path d="M218.346 155.971C218.486 156.046 218.486 156.046 218.629 156.122C219.357 156.55 219.942 157.104 220.223 157.97C220.293 158.837 220.22 159.422 219.802 160.194C219.22 160.796 218.716 161.07 217.902 161.056C217.105 160.939 216.347 160.589 215.593 160.296C213.524 159.492 211.677 159.152 209.479 159.159C209.324 159.159 209.324 159.159 209.166 159.159C206.479 159.169 203.772 159.432 201.263 160.544C200.495 160.872 199.848 160.891 199.043 160.681C198.335 160.246 198.087 159.729 197.848 158.895C197.748 158.133 197.771 157.599 198.091 156.905C199.4 155.256 201.043 154.927 202.971 154.609C203.27 154.56 203.567 154.508 203.865 154.456C208.558 153.656 213.989 153.633 218.346 155.971Z" fill="black"/>
<path d="M252.561 124.811C257.641 125.302 262.454 127.05 266.119 130.601L266.471 130.951L266.486 130.968L266.502 130.984C269.854 134.572 271.179 138.989 270.75 143.479L270.749 143.493C270.154 149.324 266.526 153.305 262.036 156.502L262.033 156.504C261.889 156.606 261.745 156.708 261.601 156.809L261.602 156.81C261.528 156.863 261.455 156.915 261.379 156.969L261.378 156.968C261.002 157.235 260.625 157.501 260.245 157.766C258.788 158.789 257.91 159.702 257.322 160.666C256.73 161.636 256.348 162.793 256.078 164.436L256.076 164.446L256.074 164.456C256.055 164.566 256.035 164.677 256.016 164.79C256.001 164.881 255.986 164.972 255.97 165.066L255.947 165.211L255.902 165.351C255.671 166.073 255.323 166.547 254.834 166.997L254.57 167.24L254.239 167.375C253.265 167.775 252.491 167.806 251.618 167.721L251.618 167.722C251.49 167.71 251.49 167.71 251.359 167.698L251.356 167.697C251.067 167.67 250.78 167.639 250.501 167.61C250.307 167.591 250.114 167.572 249.92 167.552L249.918 167.552L248.678 167.426C248.161 167.372 247.642 167.321 247.119 167.27L245.895 167.147L245.325 167.09L245.323 167.09C245.043 167.063 244.765 167.033 244.492 167.004L244.493 167.003L243.936 166.946L243.838 166.927C242.738 166.701 242.114 166.169 241.63 165.724L241.364 165.479L241.201 165.158C240.581 163.94 240.847 162.732 240.893 162.359C240.907 162.24 240.92 162.12 240.935 161.997L240.935 161.988L240.938 161.977C241.294 159.13 242.123 156.713 243.55 154.557C244.966 152.418 246.901 150.64 249.314 148.971L249.328 148.962L249.341 148.953C249.725 148.696 250.117 148.457 250.465 148.244C251.647 147.506 252.738 146.682 253.702 145.776L253.714 145.765L253.727 145.753C253.821 145.667 253.916 145.58 254.014 145.492C255.374 144.208 255.914 142.983 255.942 141.318C255.846 140.538 255.427 139.714 254.701 139.071C253.764 138.416 252.743 138.019 251.509 137.834L251.499 137.833C251.401 137.817 251.303 137.802 251.202 137.786C249.497 137.57 248.1 137.744 246.973 138.398C245.863 139.169 245.012 140.158 244.088 141.393L244.082 141.401C244.021 141.482 243.959 141.565 243.895 141.649C243.839 141.726 243.833 141.735 243.763 141.831L243.686 141.936L243.596 142.031C242.895 142.767 242.118 143.017 241.444 143.146L241.242 143.184L241.037 143.181C239.854 143.164 238.721 142.645 237.948 142.245C237.528 142.028 237.122 141.795 236.78 141.597C236.417 141.388 236.141 141.229 235.907 141.111C235.575 140.942 235.242 140.773 234.908 140.605L234.906 140.604C234.691 140.496 234.477 140.386 234.263 140.278L234.262 140.279C234.164 140.229 234.065 140.178 233.963 140.127L233.96 140.125C233.24 139.76 232.709 139.494 232.341 139.251C231.808 138.898 231.542 138.549 231.331 138.28L231.079 137.958L230.973 137.564C230.561 136.033 231.073 134.85 231.68 133.947L231.678 133.946C231.748 133.84 231.748 133.84 231.82 133.732L231.824 133.725L231.829 133.718C233.155 131.738 234.733 130.12 236.668 128.657C236.773 128.577 236.879 128.495 236.987 128.412L236.999 128.402L237.012 128.392C239.77 126.334 242.974 125.204 246.407 124.738L246.407 124.739C246.504 124.726 246.602 124.711 246.701 124.696L246.712 124.695L246.723 124.694C248.671 124.437 250.559 124.618 252.231 124.781C252.338 124.791 252.446 124.8 252.556 124.81L252.561 124.811Z" fill="#FFF288" stroke="black" stroke-width="4"/>
<path d="M241.588 169.573C244.911 167.686 249.676 167.564 252.96 170.258L253.273 170.528L253.297 170.549L253.32 170.572C253.439 170.687 253.439 170.687 253.561 170.803L253.793 171.025L253.815 171.045L253.834 171.066C255.651 172.893 256.333 175.197 256.215 177.457L256.211 177.542L256.199 177.627C255.894 179.83 254.718 181.799 252.851 183.17L252.807 183.202L252.761 183.231C250.206 184.902 247.736 185.067 245.016 184.711L244.987 184.707L244.958 184.702C242.571 184.319 240.799 182.908 239.549 181.519L239.509 181.475L239.473 181.429C237.928 179.493 237.468 177.196 237.802 174.996L237.811 174.936L237.824 174.878C238.29 172.701 239.593 170.906 241.461 169.652L241.523 169.61L241.588 169.573Z" fill="#FFF288" stroke="black" stroke-width="4"/>
<path d="M178.287 54.8607C179.234 55.5869 179.788 56.6647 179.952 57.8429C180.047 59.1226 179.635 60.298 178.822 61.2812C178.469 61.6555 178.057 61.9551 177.599 62.1916C177.529 62.1916 177.458 62.1916 177.385 62.1916C177.752 62.7719 178.129 63.3444 178.514 63.9125C178.558 63.9767 178.601 64.0408 178.646 64.1068C178.826 64.3725 179.006 64.6381 179.187 64.9034C179.747 65.7265 180.288 66.5563 180.801 67.4099C180.959 67.671 181.124 67.9275 181.288 68.1844C182.902 70.7243 184.395 73.3533 185.86 75.9803C186.121 76.4476 186.386 76.9126 186.653 77.3763C186.885 77.2753 187.032 77.1535 187.206 76.9709C187.484 76.6854 187.775 76.4232 188.079 76.1644C188.242 76.0249 188.406 75.8852 188.569 75.7456C188.612 75.7085 188.656 75.6715 188.7 75.6333C188.953 75.4174 189.201 75.1983 189.447 74.9747C189.774 74.6783 190.113 74.3991 190.456 74.1215C190.639 73.9726 190.821 73.8223 191.003 73.6721C191.264 73.4569 191.525 73.2423 191.786 73.0276C191.834 72.9879 191.883 72.9481 191.932 72.9072C192.508 72.4341 193.09 71.9726 193.684 71.5227C194.092 71.2129 194.49 70.8929 194.885 70.5673C195.2 70.3086 195.522 70.0616 195.849 69.8196C195.808 69.7694 195.808 69.7694 195.765 69.7181C194.902 68.6571 194.506 67.3253 194.638 65.9699C194.834 64.822 195.509 63.8214 196.411 63.0961C197.406 62.3951 198.518 62.2911 199.699 62.4054C200.831 62.625 201.956 63.3949 202.609 64.3347C203.213 65.3717 203.404 66.6015 203.129 67.7772C202.82 68.8689 202.103 69.8198 201.125 70.3899C200.701 70.5968 200.308 70.7448 199.842 70.8176C199.844 70.8752 199.845 70.9328 199.847 70.9921C199.863 71.9794 199.777 72.9595 199.698 73.9429C199.686 74.094 199.674 74.2451 199.662 74.3963C199.523 76.1541 199.355 77.9083 199.167 79.6615C199.125 80.047 199.086 80.4327 199.046 80.8184C198.979 81.4794 198.909 82.1401 198.838 82.8008C198.809 83.0734 198.779 83.346 198.75 83.6186C198.743 83.6883 198.735 83.7579 198.727 83.8297C198.592 85.0925 198.465 86.356 198.34 87.6198C198.223 88.8057 198.104 89.9912 197.97 91.1754C197.962 91.2523 197.962 91.2523 197.953 91.3309C197.909 91.7207 197.864 92.1104 197.82 92.5001C197.777 92.8766 197.737 93.2531 197.703 93.6304C197.695 93.7017 197.688 93.7731 197.68 93.8465C197.651 94.2733 197.769 94.4877 198.022 94.8276C198.605 95.6682 198.429 96.9365 198.43 97.9075C198.431 97.9789 198.431 98.0503 198.431 98.1238C198.432 98.501 198.433 98.8783 198.433 99.2555C198.433 99.6429 198.435 100.03 198.437 100.418C198.438 100.718 198.439 101.018 198.439 101.318C198.439 101.461 198.44 101.604 198.441 101.746C198.452 103.627 198.452 103.627 198.006 104.164C194.22 107.413 186.015 107.132 181.299 107.323C181.185 107.328 181.185 107.328 181.068 107.332C179.445 107.397 177.822 107.411 176.198 107.408C175.817 107.407 175.437 107.408 175.056 107.408C159.926 107.436 159.926 107.436 153.351 104.247C152.617 103.493 152.769 102.222 152.771 101.248C152.771 101.109 152.771 100.971 152.771 100.832C152.771 100.543 152.771 100.253 152.772 99.9637C152.773 99.5955 152.772 99.2272 152.771 98.8589C152.771 98.5729 152.771 98.2869 152.771 98.0009C152.771 97.8652 152.771 97.7295 152.771 97.5939C152.766 95.2299 152.766 95.2299 153.402 94.4989C153.527 94.3062 153.523 94.2134 153.505 93.986C153.5 93.9119 153.495 93.8378 153.49 93.7614C153.479 93.637 153.479 93.637 153.468 93.5101C153.457 93.3749 153.457 93.3749 153.446 93.2369C153.366 92.2402 153.259 91.2457 153.154 90.2514C153.061 89.3563 152.973 88.4609 152.891 87.5647C152.886 87.5128 152.881 87.461 152.876 87.4075C152.829 86.8921 152.783 86.3766 152.736 85.861C152.723 85.7149 152.71 85.5688 152.697 85.4226C152.68 85.2442 152.664 85.0658 152.649 84.8873C152.602 84.3726 152.539 83.8619 152.469 83.3499C152.41 82.8973 152.367 82.4433 152.323 81.989C152.313 81.8853 152.303 81.7816 152.293 81.6779C152.267 81.4006 152.24 81.1234 152.214 80.8461C152.198 80.6722 152.181 80.4983 152.165 80.3244C151.943 77.983 151.762 75.6394 151.597 73.2934C151.578 73.015 151.557 72.7367 151.537 72.4584C151.53 72.3664 151.524 72.2745 151.517 72.1798C151.504 72.0049 151.491 71.83 151.479 71.6551C151.473 71.5773 151.467 71.4995 151.462 71.4193C151.457 71.351 151.452 71.2828 151.446 71.2125C151.437 71.0573 151.436 70.9018 151.436 70.7464C151.348 70.7434 151.259 70.7405 151.168 70.7374C150.284 70.6373 149.469 70.0038 148.914 69.3364C148.431 68.6759 148.051 67.8655 148.014 67.0393C148.008 66.953 148.008 66.953 148.003 66.865C147.959 65.6033 148.446 64.4653 149.297 63.5461C150.011 62.7811 151.022 62.4012 152.048 62.3119C153.229 62.2723 154.28 62.6025 155.187 63.3678C156.044 64.1853 156.582 65.2768 156.658 66.4645C156.641 67.5978 156.242 68.7659 155.449 69.5898C155.418 69.6186 155.388 69.6474 155.357 69.677C155.435 69.9118 155.477 69.9472 155.668 70.0894C155.717 70.1269 155.767 70.1644 155.818 70.203C155.872 70.2426 155.925 70.2822 155.981 70.3231C156.092 70.4068 156.203 70.4905 156.315 70.5743C156.37 70.6156 156.425 70.6569 156.482 70.6995C156.697 70.8602 156.909 71.0236 157.121 71.1875C157.344 71.359 157.566 71.5302 157.79 71.7004C158.371 72.1433 158.939 72.601 159.504 73.0638C159.619 73.1575 159.733 73.2509 159.848 73.3443C160.545 73.9113 161.232 74.4881 161.897 75.0923C162.042 75.2227 162.187 75.3509 162.334 75.4782C162.645 75.7492 162.949 76.0279 163.252 76.3075C163.415 76.4582 163.58 76.6076 163.745 76.7564C163.83 76.8338 163.915 76.9113 164.001 76.9887C164.042 77.0252 164.082 77.0618 164.125 77.0994C164.223 77.1888 164.317 77.2823 164.411 77.3763C164.411 77.4234 164.411 77.4704 164.411 77.5189C164.604 77.3467 164.711 77.1644 164.831 76.9363C164.871 76.8618 164.91 76.7873 164.951 76.7106C164.993 76.6303 165.035 76.5501 165.079 76.4674C165.169 76.2979 165.259 76.1285 165.35 75.9592C165.384 75.8949 165.384 75.8949 165.419 75.8293C165.747 75.2175 166.092 74.6155 166.435 74.0127C166.549 73.8115 166.663 73.6097 166.776 73.4078C167.263 72.5384 167.766 71.6808 168.282 70.828C168.493 70.4788 168.7 70.1279 168.907 69.776C169.329 69.0555 169.766 68.3457 170.216 67.6421C170.333 67.4582 170.449 67.2737 170.565 67.0891C171.427 65.721 172.346 64.3939 173.276 63.0717C173.482 62.7786 173.687 62.4851 173.892 62.1916C173.837 62.1814 173.781 62.1713 173.724 62.1608C173.072 62.0206 172.47 61.4717 172.101 60.9348C171.418 59.8652 171.136 58.6796 171.372 57.4163C171.644 56.2961 172.222 55.2696 173.225 54.6566C174.867 53.7496 176.721 53.7498 178.287 54.8607Z" fill="black"/>
<path d="M175.603 63.261C175.874 63.5089 176.067 63.7912 176.271 64.0942C176.329 64.1802 176.329 64.1802 176.389 64.268C176.531 64.4786 176.673 64.6896 176.815 64.9007C176.875 64.9906 176.936 65.0804 176.996 65.1703C177.791 66.3498 178.577 67.5317 179.31 68.7503C179.35 68.8159 179.389 68.8815 179.43 68.949C180.121 70.0929 180.802 71.2429 181.484 72.3926C181.668 72.7025 181.852 73.0122 182.036 73.3218C182.892 74.7617 183.74 76.2048 184.534 77.6806C184.798 78.1719 185.068 78.66 185.343 79.1453C185.378 79.2083 185.414 79.2713 185.45 79.3363C185.483 79.3943 185.516 79.4523 185.551 79.512C185.594 79.5881 185.594 79.5881 185.638 79.6657C185.728 79.803 185.815 79.9082 185.94 80.0141C186.132 80.0562 186.132 80.0562 186.345 80.0542C186.416 80.0573 186.487 80.0603 186.56 80.0634C187.253 79.9182 187.763 79.2002 188.236 78.713C188.651 78.287 189.074 77.8906 189.539 77.5196C189.78 77.3271 190.012 77.1252 190.244 76.9219C190.693 76.5308 191.146 76.1447 191.601 75.7612C191.715 75.6645 191.829 75.5673 191.943 75.4699C192.372 75.1036 192.806 74.7476 193.251 74.4013C193.576 74.1483 193.895 73.8897 194.214 73.6292C197.488 70.9603 197.488 70.9603 197.845 70.9603C197.874 71.9804 197.786 72.9879 197.698 74.0035C197.686 74.1436 197.675 74.2836 197.663 74.4237C197.472 76.6693 197.24 78.911 197.005 81.1523C196.99 81.2946 196.975 81.4369 196.96 81.5792C196.879 82.3599 196.796 83.1405 196.714 83.9211C196.602 84.9786 196.492 86.0362 196.384 87.0941C196.377 87.1631 196.37 87.2321 196.362 87.3032C196.276 88.1511 196.191 88.9991 196.108 89.8472C196.079 90.141 196.05 90.4348 196.021 90.7286C195.988 91.0588 195.956 91.3891 195.924 91.7194C195.907 91.8936 195.89 92.0678 195.873 92.242C195.865 92.3204 195.858 92.3989 195.85 92.4796C195.802 92.9638 195.73 93.4385 195.635 93.9157C192.272 94.7098 188.832 95.117 185.393 95.3991C185.245 95.4112 185.098 95.4238 184.951 95.4364C184.407 95.4824 183.863 95.5184 183.318 95.547C183.208 95.5528 183.098 95.5587 182.987 95.5648C180.609 95.695 178.232 95.7114 175.851 95.7113C175.696 95.7113 175.54 95.7113 175.385 95.7114C173.508 95.7122 171.633 95.7008 169.757 95.6266C169.677 95.6235 169.597 95.6203 169.514 95.6171C168.996 95.596 168.479 95.5706 167.961 95.542C167.883 95.5376 167.804 95.5332 167.722 95.5287C164.558 95.3497 161.398 95.0607 158.279 94.486C158.187 94.4689 158.187 94.4689 158.092 94.4515C155.88 94.0427 155.88 94.0427 155.499 93.9157C155.493 93.8545 155.488 93.7934 155.482 93.7304C155.428 93.1406 155.373 92.5508 155.319 91.9609C155.291 91.6581 155.263 91.3552 155.235 91.0523C155.111 89.7022 154.98 88.3535 154.831 87.0058C154.733 86.1108 154.645 85.2154 154.568 84.3183C154.499 83.5156 154.422 82.7148 154.33 81.9144C154.189 80.6833 154.087 79.4489 153.982 78.2144C153.961 77.9664 153.94 77.7184 153.918 77.4704C153.814 76.2542 153.711 75.0377 153.611 73.821C153.602 73.7092 153.593 73.5975 153.584 73.4857C153.514 72.6446 153.461 71.8038 153.432 70.9603C153.803 71.1629 154.138 71.3896 154.474 71.6465C154.524 71.6841 154.574 71.7217 154.625 71.7605C154.774 71.8736 154.923 71.9872 155.071 72.1009C155.113 72.1328 155.155 72.1647 155.198 72.1975C155.76 72.6261 156.316 73.0621 156.871 73.4995C156.994 73.5964 157.117 73.6929 157.241 73.7893C158.504 74.7765 159.73 75.7996 160.917 76.8774C161.409 77.3218 161.409 77.3218 161.906 77.7596C162.57 78.3399 163.204 78.9421 163.822 79.5708C163.892 79.6416 163.892 79.6416 163.963 79.7139C164.025 79.7776 164.025 79.7776 164.089 79.8425C164.305 80.0442 164.501 80.0346 164.789 80.0453C164.87 80.0496 164.95 80.054 165.033 80.0584C165.291 80.0093 165.379 79.9396 165.532 79.7296C165.726 79.4228 165.902 79.1073 166.077 78.7888C166.12 78.7108 166.163 78.6328 166.208 78.5524C166.299 78.3871 166.39 78.2217 166.481 78.0561C166.706 77.6477 166.933 77.2403 167.159 76.8328C167.227 76.712 167.227 76.712 167.295 76.5887C167.976 75.3626 168.668 74.1447 169.386 72.9396C169.692 72.4262 169.994 71.9109 170.295 71.3949C170.804 70.5234 171.322 69.6575 171.85 68.7978C171.964 68.6126 172.077 68.427 172.19 68.2413C173.235 66.5273 174.344 64.8268 175.603 63.261Z" fill="#F8E482"/>
<path d="M154.858 95.8405C155.463 95.8879 156.054 95.9933 156.651 96.102C159.223 96.5679 161.807 96.9569 164.41 97.195C164.464 97.2 164.517 97.2049 164.573 97.21C168.138 97.5376 171.71 97.5754 175.288 97.5698C175.672 97.5693 176.057 97.5695 176.442 97.5701C178.777 97.5736 181.109 97.5722 183.441 97.4266C183.818 97.4031 184.195 97.384 184.572 97.3646C187.78 97.187 190.967 96.6915 194.132 96.1538C194.179 96.1458 194.226 96.1378 194.274 96.1296C194.529 96.0862 194.782 96.0411 195.036 95.9944C195.09 95.9844 195.145 95.9745 195.201 95.9643C195.305 95.9453 195.408 95.926 195.512 95.9064C195.794 95.8549 196.061 95.8243 196.348 95.8405C196.485 95.9775 196.428 96.1818 196.428 96.3641C196.428 96.4291 196.428 96.4942 196.428 96.5613C196.428 96.6294 196.428 96.6976 196.428 96.7678C196.428 96.9942 196.427 97.2206 196.427 97.4471C196.426 97.6036 196.426 97.7601 196.426 97.9167C196.426 98.3296 196.425 98.7425 196.424 99.1554C196.424 99.5763 196.423 99.9973 196.423 100.418C196.422 101.245 196.421 102.072 196.42 102.898C196.328 102.944 196.236 102.99 196.145 103.037C196.094 103.062 196.043 103.088 195.99 103.114C192.239 104.955 187.193 104.991 183.115 105.233C183.044 105.237 182.974 105.241 182.901 105.246C180.602 105.38 178.305 105.408 176.004 105.407C175.936 105.407 175.868 105.407 175.797 105.407C173.377 105.406 170.963 105.37 168.545 105.251C168.47 105.247 168.394 105.244 168.317 105.24C158.469 104.763 158.469 104.763 154.786 102.898C154.785 101.999 154.783 101.1 154.783 100.201C154.782 99.7833 154.782 99.3658 154.781 98.9483C154.78 98.5457 154.78 98.1431 154.779 97.7405C154.779 97.5866 154.779 97.4327 154.779 97.2788C154.778 97.0639 154.778 96.849 154.778 96.6341C154.778 96.5699 154.778 96.5058 154.777 96.4397C154.778 95.9994 154.778 95.9994 154.858 95.8405Z" fill="#F8E482"/>
<path d="M177.4 79.5965C178.976 80.6436 179.661 82.1098 180.081 83.8965C180.43 85.7827 180.075 87.9165 179.096 89.5668C178.918 89.816 178.726 90.0485 178.526 90.2797C178.481 90.3384 178.437 90.3972 178.391 90.4577C177.865 91.0834 177.051 91.5555 176.244 91.7055C175.011 91.7911 174.089 91.4998 173.132 90.6896C171.765 89.4066 171.164 87.4997 171.093 85.6648C171.048 83.8613 171.365 81.8799 172.642 80.5091C173.954 79.1663 175.691 78.5979 177.4 79.5965Z" fill="black"/>
<path d="M176.038 81.0487C176.787 81.3636 177.365 82.1399 177.67 82.8655C178.203 84.2626 178.414 86.152 177.813 87.5706C177.793 87.6173 177.774 87.6639 177.754 87.712C177.388 88.5665 176.907 89.2817 176.102 89.7806C175.715 89.9095 175.323 89.9226 174.952 89.745C174.851 89.6567 174.851 89.6567 174.748 89.5667C174.704 89.531 174.66 89.4952 174.615 89.4584C173.846 88.7746 173.499 87.7568 173.25 86.7864C173.228 86.6983 173.205 86.6102 173.181 86.5194C172.855 85.0923 173.019 83.5562 173.773 82.2762C174.345 81.4743 174.995 80.7932 176.038 81.0487Z" fill="#7D5232"/>
<path d="M176.672 56.2034C177.306 56.5444 177.639 57.0894 177.855 57.759C177.995 58.4998 177.914 59.1516 177.499 59.7757C177.129 60.2569 176.556 60.5791 175.959 60.6947C175.284 60.7549 174.612 60.5407 174.088 60.1074C173.56 59.5757 173.393 59.0208 173.362 58.2886C173.371 57.6664 173.576 57.1996 173.896 56.6757C174.698 55.9598 175.689 55.801 176.672 56.2034Z" fill="#F8E482"/>
<path d="M199.904 64.5278C200.579 64.9177 200.954 65.4582 201.196 66.1837C201.251 66.8023 201.21 67.4275 200.845 67.9473C200.421 68.4412 199.89 68.9053 199.22 68.9879C198.384 68.9992 197.74 68.7594 197.133 68.1798C196.634 67.5663 196.631 66.795 196.705 66.0411C196.839 65.4617 197.247 65.0166 197.707 64.6598C198.337 64.3115 199.228 64.2542 199.904 64.5278Z" fill="#F8E482"/>
<path d="M153.574 64.6869C154.097 65.0525 154.447 65.4805 154.572 66.1127C154.635 66.8648 154.545 67.5227 154.073 68.1311C153.658 68.569 153.04 68.8609 152.44 68.91C151.678 68.9273 151.196 68.7658 150.637 68.2467C150.132 67.7029 150.041 67.1948 150.057 66.4666C150.109 65.8548 150.37 65.3227 150.792 64.8785C151.632 64.1808 152.644 64.1632 153.574 64.6869Z" fill="#F8E482"/>
</svg>
