<svg width="180" height="236" viewBox="0 0 180 236" fill="none" xmlns="http://www.w3.org/2000/svg">
<path d="M107.59 38.5421C107.757 38.5709 107.925 38.5997 108.097 38.6293C114.653 39.7859 121.105 41.8447 127.29 44.28C127.415 44.1649 127.415 44.1649 127.543 44.0475C128.244 43.4228 128.87 42.9556 129.753 42.6065C130.024 42.4955 130.024 42.4955 130.301 42.3823C131.846 41.8709 133.279 41.725 134.905 41.7338C135.22 41.7354 135.22 41.7354 135.542 41.7371C147.448 41.9112 158.536 48.5066 166.662 56.8376C167.341 57.5485 167.968 58.2938 168.577 59.0656C169.014 59.6169 169.471 60.1474 169.93 60.6808C176.248 68.261 180.652 78.7255 179.887 88.6531C179.525 91.9788 177.919 95.3017 175.375 97.4968C172.41 99.7587 169.009 100.745 165.304 100.727C165.154 100.727 165.004 100.728 164.85 100.729C163.67 100.727 162.508 100.633 161.335 100.511C161.382 100.646 161.429 100.78 161.478 100.919C162.508 103.875 163.441 106.803 164.013 109.883C164.044 110.041 164.075 110.199 164.107 110.362C165.136 115.795 165.002 121.897 163.821 127.288C163.768 127.543 163.768 127.543 163.713 127.802C162.94 131.39 161.727 134.766 159.996 137.999C159.907 138.178 159.817 138.357 159.725 138.541C157.591 142.71 154.297 146.419 150.624 149.284C150.468 149.406 150.468 149.406 150.308 149.531C146.78 152.271 142.768 154.436 138.575 155.978C138.695 156.062 138.816 156.145 138.941 156.232C142.248 158.576 145.293 161.356 147.755 164.585C147.837 164.691 147.919 164.798 148.004 164.908C149.702 167.126 151.127 169.456 152.453 171.912C152.52 172.035 152.586 172.157 152.654 172.284C153.111 173.145 153.111 173.145 153.111 173.574C153.237 173.574 153.363 173.574 153.493 173.574C153.526 173.348 153.526 173.348 153.56 173.118C153.656 172.584 153.768 172.069 153.899 171.543C153.94 171.38 153.98 171.216 154.022 171.047C154.106 170.715 154.191 170.383 154.277 170.051C155.032 166.994 155.065 164.04 154.972 160.915C154.958 160.415 154.95 159.915 154.943 159.415C154.934 159.19 154.934 159.19 154.925 158.96C154.914 157.816 155.257 157.055 155.98 156.169C156.986 155.384 158.203 155.461 159.422 155.595C161.988 156.213 163.904 157.797 165.734 159.612C165.902 159.778 166.071 159.944 166.244 160.115C168.743 162.714 170.118 165.875 171.054 169.318C171.093 169.463 171.133 169.607 171.174 169.756C172.118 173.435 172.147 178.153 171.089 181.798C171.021 182.06 170.953 182.321 170.885 182.583C169.61 187.353 167.076 191.81 163.439 195.187C163.281 195.345 163.123 195.502 162.961 195.665C162.803 195.823 162.645 195.98 162.483 196.143C162.387 196.242 162.292 196.341 162.194 196.443C161.41 197.249 160.59 197.95 159.685 198.618C159.552 198.716 159.418 198.815 159.281 198.917C154.278 202.581 148.518 204.8 142.4 205.706C142.1 205.76 142.1 205.76 141.794 205.815C140.724 205.935 139.662 205.917 138.587 205.909C138.365 205.909 138.143 205.908 137.914 205.907C137.369 205.905 136.824 205.901 136.279 205.897C136.293 206.062 136.306 206.227 136.32 206.397C136.469 208.403 136.508 210.4 136.516 212.412C136.517 212.58 136.518 212.749 136.519 212.923C136.523 213.814 136.525 214.706 136.527 215.597C136.529 216.508 136.536 217.418 136.543 218.329C136.548 219.039 136.55 219.749 136.551 220.459C136.552 220.795 136.554 221.13 136.557 221.465C136.595 225.201 135.962 228.478 133.296 231.282C130.897 233.56 127.959 234.361 124.804 234.97C124.661 235.003 124.518 235.037 124.371 235.072C123.703 235.185 123.044 235.195 122.369 235.2C122.155 235.202 122.155 235.202 121.938 235.204C116.611 235.243 111.367 235.035 107.227 231.194C104.602 228.369 103.887 224.357 103.956 220.625C103.731 220.68 103.506 220.735 103.275 220.792C100.368 221.435 97.3715 221.608 94.4032 221.62C94.1742 221.621 93.9452 221.623 93.7093 221.624C92.9728 221.627 92.2364 221.628 91.4999 221.629C91.2487 221.629 90.9974 221.63 90.7385 221.63C86.76 221.632 82.8512 221.48 78.9004 221.007C78.6012 220.972 78.3019 220.937 78.0026 220.903C77.2179 220.811 76.4334 220.718 75.649 220.625C75.651 220.83 75.653 221.035 75.6551 221.247C75.6244 224.817 74.3682 228.492 71.9014 231.09C68.2791 234.525 63.3024 235.205 58.5309 235.209C58.3856 235.209 58.2403 235.209 58.0905 235.209C53.5862 235.203 49.0761 234.458 45.6759 231.236C43.0397 228.38 42.6906 224.887 42.7009 221.18C42.7005 220.862 42.6999 220.543 42.6993 220.225C42.6982 219.381 42.6998 218.536 42.7024 217.692C42.7039 217.168 42.7047 216.644 42.7055 216.12C42.7136 211.111 42.7634 206.114 43.1342 201.116C43.1453 200.963 43.1564 200.811 43.1678 200.654C43.404 197.42 43.6962 194.198 44.0905 190.979C43.8815 191.05 43.6724 191.122 43.4571 191.196C43.3324 191.238 43.2077 191.281 43.0792 191.325C42.8212 191.413 42.5633 191.502 42.3056 191.591C42.1351 191.649 42.1351 191.649 41.9612 191.707C41.847 191.746 41.7329 191.786 41.6152 191.826C38.6595 192.648 34.6849 192.537 31.8497 191.361C31.6798 191.304 31.5099 191.247 31.3349 191.187C28.7887 190.289 26.5494 188.387 25.3467 185.97C23.9562 183.045 23.8897 179.264 24.891 176.179C24.9783 175.951 25.0655 175.722 25.1555 175.487C25.2325 175.28 25.2325 175.28 25.311 175.068C26.5202 171.859 28.1798 168.983 30.3196 166.306C30.4502 166.139 30.5809 165.971 30.7155 165.799C33.0847 162.822 35.7875 160.23 38.7112 157.807C38.8478 157.694 38.9843 157.58 39.125 157.464C39.7093 156.985 40.2893 156.524 40.9242 156.114C41.4282 155.835 41.4282 155.835 41.6041 155.404C41.4669 155.38 41.3296 155.357 41.1882 155.332C36.3248 154.256 31.3422 150.999 27.6419 147.753C27.4774 147.61 27.313 147.466 27.1436 147.319C26.6664 146.896 26.1963 146.466 25.7293 146.032C25.602 145.915 25.4748 145.798 25.3437 145.678C18.7792 139.407 15.2047 129.651 14.9631 120.697C14.9479 119.85 14.9449 119.003 14.9468 118.155C14.9469 117.976 14.947 117.797 14.9471 117.612C14.9625 111.819 15.6376 105.394 18.27 100.129C18.0318 100.191 17.7936 100.252 17.5483 100.316C13.7169 101.162 9.74421 100.428 6.39345 98.451C3.18894 96.3859 1.32828 93.0228 0.476519 89.3808C-1.36958 80.6159 2.42404 70.9501 7.11475 63.6968C7.56818 63.0162 8.03616 62.3474 8.51555 61.685C8.59655 61.5728 8.67754 61.4607 8.76098 61.3451C11.2709 57.9074 14.1633 54.7599 17.5049 52.1218C17.8478 51.8351 18.1904 51.5482 18.533 51.2611C20.5423 49.6218 22.713 48.2373 24.9642 46.9577C25.1018 46.8795 25.2393 46.8013 25.3811 46.7207C28.9322 44.7255 32.6806 43.3444 36.6313 42.3674C36.7672 42.3331 36.9031 42.2988 37.0431 42.2634C39.0857 41.7716 41.1394 41.7402 43.2298 41.7338C43.3623 41.7331 43.4948 41.7324 43.6313 41.7316C46.6788 41.7232 49.9289 42.1777 52.3149 44.28C52.3149 44.4062 52.3149 44.5325 52.3149 44.6625C52.4995 44.5787 52.6842 44.4949 52.8744 44.4085C59.4751 41.4884 66.4458 39.5742 73.5451 38.3508C73.7262 38.3193 73.9074 38.2878 74.094 38.2553C85.0218 36.4244 96.6919 36.6616 107.59 38.5421Z" fill="#F2D3A3"/>
<path d="M107.59 38.5421C107.757 38.5709 107.925 38.5997 108.097 38.6293C114.653 39.7859 121.105 41.8447 127.29 44.28C127.415 44.1649 127.415 44.1649 127.543 44.0475C128.244 43.4228 128.87 42.9556 129.753 42.6065C130.024 42.4955 130.024 42.4955 130.301 42.3823C131.846 41.8709 133.279 41.725 134.905 41.7338C135.22 41.7354 135.22 41.7354 135.542 41.7371C147.448 41.9112 158.536 48.5066 166.662 56.8376C167.341 57.5485 167.968 58.2938 168.577 59.0656C169.014 59.6169 169.471 60.1474 169.93 60.6808C176.248 68.261 180.652 78.7255 179.887 88.6531C179.525 91.9788 177.919 95.3017 175.375 97.4968C172.41 99.7587 169.009 100.745 165.304 100.727C165.154 100.727 165.004 100.728 164.85 100.729C163.67 100.727 162.508 100.633 161.335 100.511C161.382 100.646 161.429 100.78 161.478 100.919C162.508 103.875 163.441 106.803 164.013 109.883C164.044 110.041 164.075 110.199 164.107 110.362C165.136 115.795 165.002 121.897 163.821 127.288C163.768 127.543 163.768 127.543 163.713 127.802C162.94 131.39 161.727 134.766 159.996 137.999C159.907 138.178 159.817 138.357 159.725 138.541C157.591 142.71 154.297 146.419 150.624 149.284C150.468 149.406 150.468 149.406 150.308 149.531C146.78 152.271 142.768 154.436 138.575 155.978C138.695 156.062 138.816 156.145 138.941 156.232C142.248 158.576 145.293 161.356 147.755 164.585C147.837 164.691 147.919 164.798 148.004 164.908C149.702 167.126 151.127 169.456 152.453 171.912C152.52 172.035 152.586 172.157 152.654 172.284C153.111 173.145 153.111 173.145 153.111 173.574C153.237 173.574 153.363 173.574 153.493 173.574C153.526 173.348 153.526 173.348 153.56 173.118C153.656 172.584 153.768 172.069 153.899 171.543C153.94 171.38 153.98 171.216 154.022 171.047C154.106 170.715 154.191 170.383 154.277 170.051C155.032 166.994 155.065 164.04 154.972 160.915C154.958 160.415 154.95 159.915 154.943 159.415C154.934 159.19 154.934 159.19 154.925 158.96C154.914 157.816 155.257 157.055 155.98 156.169C156.986 155.384 158.203 155.461 159.422 155.595C161.988 156.213 163.904 157.797 165.734 159.612C165.902 159.778 166.071 159.944 166.244 160.115C168.743 162.714 170.118 165.875 171.054 169.318C171.093 169.463 171.133 169.607 171.174 169.756C172.118 173.435 172.147 178.153 171.089 181.798C171.021 182.06 170.953 182.321 170.885 182.583C169.61 187.353 167.076 191.81 163.439 195.187C163.281 195.345 163.123 195.502 162.961 195.665C162.803 195.823 162.645 195.98 162.483 196.143C162.387 196.242 162.292 196.341 162.194 196.443C161.41 197.249 160.59 197.95 159.685 198.618C159.552 198.716 159.418 198.815 159.281 198.917C154.278 202.581 148.518 204.8 142.4 205.706C142.1 205.76 142.1 205.76 141.794 205.815C140.724 205.935 139.662 205.917 138.587 205.909C138.365 205.909 138.143 205.908 137.914 205.907C137.369 205.905 136.824 205.901 136.279 205.897C136.293 206.062 136.306 206.227 136.32 206.397C136.469 208.403 136.508 210.4 136.516 212.412C136.517 212.58 136.518 212.749 136.519 212.923C136.523 213.814 136.525 214.706 136.527 215.597C136.529 216.508 136.536 217.418 136.543 218.329C136.548 219.039 136.55 219.749 136.551 220.459C136.552 220.795 136.554 221.13 136.557 221.465C136.595 225.201 135.962 228.478 133.296 231.282C130.897 233.56 127.959 234.361 124.804 234.97C124.661 235.003 124.518 235.037 124.371 235.072C123.703 235.185 123.044 235.195 122.369 235.2C122.155 235.202 122.155 235.202 121.938 235.204C116.611 235.243 111.367 235.035 107.227 231.194C104.602 228.369 103.887 224.357 103.956 220.625C103.731 220.68 103.506 220.735 103.275 220.792C100.368 221.435 97.3715 221.608 94.4032 221.62C94.1742 221.621 93.9452 221.623 93.7093 221.624C92.9728 221.627 92.2364 221.628 91.4999 221.629C91.2487 221.629 90.9974 221.63 90.7385 221.63C86.76 221.632 82.8512 221.48 78.9004 221.007C78.6012 220.972 78.3019 220.937 78.0026 220.903C77.2179 220.811 76.4334 220.718 75.649 220.625C75.651 220.83 75.653 221.035 75.6551 221.247C75.6244 224.817 74.3682 228.492 71.9014 231.09C68.2791 234.525 63.3024 235.205 58.5309 235.209C58.3856 235.209 58.2403 235.209 58.0905 235.209C53.5862 235.203 49.0761 234.458 45.6759 231.236C43.0397 228.38 42.6906 224.887 42.7009 221.18C42.7005 220.862 42.6999 220.543 42.6993 220.225C42.6982 219.381 42.6998 218.536 42.7024 217.692C42.7039 217.168 42.7047 216.644 42.7055 216.12C42.7136 211.111 42.7634 206.114 43.1342 201.116C43.1453 200.963 43.1564 200.811 43.1678 200.654C43.404 197.42 43.6962 194.198 44.0905 190.979C43.8815 191.05 43.6724 191.122 43.4571 191.196C43.3324 191.238 43.2077 191.281 43.0792 191.325C42.8212 191.413 42.5633 191.502 42.3056 191.591C42.1351 191.649 42.1351 191.649 41.9612 191.707C41.847 191.746 41.7329 191.786 41.6152 191.826C38.6595 192.648 34.6849 192.537 31.8497 191.361C31.6798 191.304 31.5099 191.247 31.3349 191.187C28.7887 190.289 26.5494 188.387 25.3467 185.97C23.9562 183.045 23.8897 179.264 24.891 176.179C24.9783 175.951 25.0655 175.722 25.1555 175.487C25.2325 175.28 25.2325 175.28 25.311 175.068C26.5202 171.859 28.1798 168.983 30.3196 166.306C30.4502 166.139 30.5809 165.971 30.7155 165.799C33.0847 162.822 35.7875 160.23 38.7112 157.807C38.8478 157.694 38.9843 157.58 39.125 157.464C39.7093 156.985 40.2893 156.524 40.9242 156.114C41.4282 155.835 41.4282 155.835 41.6041 155.404C41.4669 155.38 41.3296 155.357 41.1882 155.332C36.3248 154.256 31.3422 150.999 27.6419 147.753C27.4774 147.61 27.313 147.466 27.1436 147.319C26.6664 146.896 26.1963 146.466 25.7293 146.032C25.602 145.915 25.4748 145.798 25.3437 145.678C18.7792 139.407 15.2047 129.651 14.9631 120.697C14.9479 119.85 14.9449 119.003 14.9468 118.155C14.9469 117.976 14.947 117.797 14.9471 117.612C14.9625 111.819 15.6376 105.394 18.27 100.129C18.0318 100.191 17.7936 100.252 17.5483 100.316C13.7169 101.162 9.74421 100.428 6.39345 98.451C3.18894 96.3859 1.32828 93.0228 0.476519 89.3808C-1.36958 80.6159 2.42404 70.9501 7.11475 63.6968C7.56818 63.0162 8.03616 62.3474 8.51555 61.685C8.59655 61.5728 8.67754 61.4607 8.76098 61.3451C11.2709 57.9074 14.1633 54.7599 17.5049 52.1218C17.8478 51.8351 18.1904 51.5482 18.533 51.2611C20.5423 49.6218 22.713 48.2373 24.9642 46.9577C25.1018 46.8795 25.2393 46.8013 25.3811 46.7207C28.9322 44.7255 32.6806 43.3444 36.6313 42.3674C36.7672 42.3331 36.9031 42.2988 37.0431 42.2634C39.0857 41.7716 41.1394 41.7402 43.2298 41.7338C43.3623 41.7331 43.4948 41.7324 43.6313 41.7316C46.6788 41.7232 49.9289 42.1777 52.3149 44.28C52.3149 44.4062 52.3149 44.5325 52.3149 44.6625C52.4995 44.5787 52.6842 44.4949 52.8744 44.4085C59.4751 41.4884 66.4458 39.5742 73.5451 38.3508C73.7262 38.3193 73.9074 38.2878 74.094 38.2553C85.0218 36.4244 96.6919 36.6616 107.59 38.5421ZM76.6053 42.7499C76.3024 42.7857 76.3024 42.7857 75.9933 42.8221C69.4967 43.5959 63.2009 45.1859 57.0964 47.5315C56.9221 47.5977 56.7478 47.6639 56.5682 47.7322C56.1243 47.9031 55.6835 48.0798 55.2436 48.2607C55.0101 48.3566 54.7766 48.4525 54.536 48.5513C54.0057 48.8209 54.0057 48.8209 53.8629 49.3119C53.8429 49.8853 53.8562 50.4487 53.8808 51.022C53.9409 54.41 53.1104 57.8867 52.1236 61.1112C52.0662 61.2988 52.0088 61.4864 51.9497 61.6797C49.0815 70.9102 44.9052 80.4896 38.2025 87.6266C37.8391 88.0149 37.4972 88.4118 37.1572 88.8205C34.271 92.1066 29.969 95.9141 25.7741 97.3317C24.7631 97.6825 24.1787 97.9346 23.6119 98.8692C23.2908 99.5986 23.0537 100.349 22.8295 101.113C22.6544 101.709 22.4656 102.3 22.2761 102.892C21.5055 105.344 20.8522 107.801 20.4523 110.342C20.3965 110.696 20.3359 111.05 20.2719 111.403C19.9511 113.324 19.9266 115.221 19.931 117.165C19.9316 117.719 19.9271 118.272 19.9222 118.826C19.9111 122.07 20.1684 125.343 21.0792 128.472C21.1276 128.643 21.1761 128.814 21.2261 128.991C23.7002 137.409 29.2972 144.081 36.9517 148.281C41.1228 150.51 45.4922 152.179 50.1579 153.01C50.328 153.041 50.4981 153.072 50.6734 153.104C50.8273 153.13 50.9812 153.156 51.1398 153.183C51.7736 153.364 52.1052 153.752 52.5061 154.256C52.5692 154.32 52.6323 154.383 52.6974 154.448C52.7792 155.151 52.7155 155.555 52.4224 156.205C51.7596 156.932 51.147 157.083 50.211 157.317C42.3317 159.334 35.9465 166.055 31.8331 172.844C30.0023 175.94 28.5231 179.164 29.0487 182.849C29.4497 184.361 30.5492 185.549 31.8519 186.368C34.6968 187.836 38.2184 188.105 41.2933 187.142C42.7032 186.581 44.2267 185.833 45.2381 184.667C45.3964 184.278 45.3964 184.278 45.4927 183.838C45.5343 183.67 45.5759 183.502 45.6187 183.33C45.6618 183.148 45.7048 182.966 45.7491 182.779C45.8196 182.495 45.8196 182.495 45.8914 182.205C46.0422 181.595 46.1903 180.986 46.3379 180.376C46.8961 178.07 47.4582 175.777 48.2296 173.531C48.2824 173.375 48.3352 173.219 48.3896 173.058C48.7244 172.119 49.0772 171.176 50.0197 170.705C50.8011 170.607 51.5916 170.529 52.3066 170.899C52.811 171.307 53.065 171.617 53.2712 172.235C53.3201 173.177 53.2107 173.941 52.9417 174.842C52.8701 175.087 52.7986 175.332 52.727 175.576C52.689 175.704 52.6511 175.831 52.6119 175.963C51.6824 179.092 50.912 182.244 50.211 185.432C50.1538 185.688 50.1538 185.688 50.0954 185.948C48.9326 191.175 48.3497 196.511 47.9482 201.844C47.9232 202.168 47.8969 202.491 47.87 202.815C47.7476 204.324 47.6689 205.83 47.6199 207.342C47.612 207.588 47.604 207.833 47.5958 208.085C47.5095 210.895 47.4908 213.704 47.4873 216.515C47.4863 217.259 47.4816 218.004 47.4762 218.748C47.4726 219.334 47.4717 219.92 47.4714 220.506C47.4708 220.78 47.4693 221.055 47.4668 221.329C47.446 223.73 47.6084 226.019 49.2546 227.893C51.6156 230.119 54.842 230.48 57.9459 230.443C58.352 230.439 58.7579 230.44 59.1641 230.441C62.5657 230.434 66.2392 230.035 68.7635 227.51C70.4855 225.249 70.7836 222.593 70.8793 219.848C70.8938 219.453 70.9093 219.058 70.9281 218.662C70.9448 218.309 70.9578 217.955 70.9705 217.601C71.0666 216.936 71.2312 216.57 71.6324 216.034C73.303 214.921 76.7028 215.823 78.6255 216.022C82.6233 216.434 86.5822 216.644 90.602 216.644C91.1986 216.644 91.7951 216.648 92.3916 216.651C96.0934 216.662 99.7322 216.345 103.394 215.819C103.878 215.75 104.363 215.682 104.847 215.615C105.054 215.585 105.26 215.555 105.473 215.525C107.008 215.357 107.008 215.357 107.829 215.783C108.403 216.266 108.525 216.479 108.738 217.182C108.786 217.807 108.786 217.807 108.79 218.513C108.794 218.776 108.798 219.039 108.802 219.302C108.806 219.709 108.809 220.116 108.81 220.524C108.824 223.372 109.134 226.134 111.224 228.275C113.588 230.237 116.847 230.417 119.783 230.425C120.194 230.427 120.606 230.433 121.018 230.439C124.235 230.463 127.514 230.106 129.93 227.796C131.276 226.268 131.733 224.383 131.745 222.386C131.746 222.244 131.747 222.103 131.749 221.958C131.752 221.493 131.753 221.027 131.753 220.562C131.755 220.231 131.757 219.9 131.758 219.569C131.763 218.503 131.762 217.436 131.761 216.369C131.761 216.188 131.761 216.006 131.761 215.819C131.759 209.801 131.584 203.851 130.924 197.864C130.882 197.468 130.839 197.071 130.797 196.674C129.965 188.992 128.809 181.117 126.334 173.765C126.217 173.096 126.186 172.502 126.521 171.896C126.953 171.351 127.384 170.902 128.055 170.705C128.75 170.642 129.252 170.652 129.908 170.896C130.918 171.769 131.258 173.151 131.575 174.407C131.614 174.555 131.652 174.704 131.692 174.857C131.774 175.172 131.855 175.487 131.936 175.802C132.061 176.293 132.189 176.783 132.317 177.273C132.721 178.824 133.1 180.374 133.425 181.944C133.821 183.88 133.821 183.88 135.09 185.351C135.23 185.441 135.37 185.531 135.514 185.624C135.658 185.727 135.802 185.831 135.951 185.938C138.481 187.626 141.559 187.984 144.512 187.403C146.601 186.861 148.449 185.928 149.668 184.093C150.631 182.284 150.404 180.21 149.859 178.308C147.398 170.337 141.045 163.101 133.821 159.063C132.21 158.215 130.577 157.839 128.781 157.609C128.047 157.47 127.653 157.236 127.099 156.743C126.79 156.125 126.796 155.498 126.908 154.83C127.687 153.744 128.668 153.585 129.933 153.363C130.059 153.344 130.185 153.324 130.315 153.304C132.151 153.02 133.868 152.528 135.622 151.925C135.759 151.879 135.897 151.832 136.038 151.785C138.057 151.1 139.974 150.344 141.826 149.284C142.085 149.144 142.345 149.006 142.605 148.867C150.095 144.844 155.735 137.916 158.187 129.783C158.425 128.955 158.644 128.125 158.849 127.288C158.88 127.169 158.912 127.05 158.945 126.928C159.648 124.12 159.692 121.177 159.685 118.299C159.685 118.043 159.685 118.043 159.685 117.783C159.678 114.895 159.461 112.14 158.849 109.31C158.816 109.15 158.783 108.99 158.749 108.825C158.103 105.729 157.029 102.725 155.98 99.7464C155.934 99.601 155.889 99.4557 155.843 99.3059C155.606 98.6172 155.397 98.402 154.774 98.0026C154.52 97.8868 154.264 97.7749 154.007 97.6664C153.728 97.5376 153.45 97.4076 153.173 97.2764C152.963 97.1779 152.963 97.1779 152.75 97.0775C150.536 95.9823 148.543 94.3778 146.608 92.8609C146.501 92.7777 146.395 92.6945 146.286 92.6087C143.386 90.3076 140.744 87.6364 138.575 84.6366C138.482 84.5097 138.388 84.3827 138.293 84.252C131.474 74.932 124.809 61.0817 125.569 49.2529C115.157 43.552 102.437 42.0518 90.7384 42.1013C89.9587 42.1046 89.1791 42.1026 88.3994 42.0993C84.4316 42.0852 80.5463 42.2767 76.6053 42.7499Z" fill="black"/>
<path d="M150.157 50.4485C155.936 53.4039 161.602 57.8481 165.543 63.0238C165.644 63.1555 165.744 63.2872 165.848 63.4229C167.345 65.3866 168.748 67.3645 169.942 69.5267C170.03 69.6844 170.118 69.842 170.209 70.0044C173.013 75.0504 174.989 80.2014 175.01 86.0232C175.012 86.3953 175.012 86.3953 175.014 86.7748C174.977 89.4854 174.362 91.7896 172.49 93.7962C170.008 96.0488 166.775 96.1003 163.608 95.9598C156.059 95.4294 148.972 89.5177 144.189 84.0879C143.558 83.3395 142.971 82.5624 142.4 81.7676C142.313 81.6466 142.226 81.5256 142.136 81.4009C138.994 77.0044 136.492 72.2877 134.583 67.2311C134.379 66.6912 134.171 66.1534 133.962 65.6155C132.533 61.8805 131.405 57.979 130.733 54.0344C130.694 53.8478 130.655 53.6611 130.615 53.4688C130.39 52.321 130.307 51.1968 130.29 50.0298C130.287 49.8917 130.284 49.7535 130.28 49.6112C130.281 48.7532 130.394 48.2106 130.924 47.5314C135.709 43.9427 145.534 48.1864 150.157 50.4485Z" fill="#7D5232"/>
<path d="M43.0625 46.5274C43.4235 46.5252 43.4235 46.5252 43.7917 46.5229C47.3228 46.5304 47.3228 46.5304 48.6809 47.7228C49.0743 48.627 49.1305 49.4875 49.1232 50.4603C49.1218 50.6867 49.1218 50.6867 49.1203 50.9176C48.9883 57.7078 45.9987 64.9584 43.1517 70.9936C42.9434 71.4387 42.7413 71.8861 42.5403 72.3345C39.3609 79.3478 34.6118 85.7638 28.407 90.3745C28.2196 90.5175 28.0322 90.6605 27.8392 90.8079C24.9056 92.954 21.579 94.5736 18.0787 95.5387C17.9062 95.5889 17.7336 95.6392 17.5558 95.6911C15.4049 96.2252 12.8767 96.149 10.8107 95.3474C10.5704 95.2564 10.5704 95.2564 10.3251 95.1636C8.06305 94.1761 6.55282 92.2467 5.64663 89.992C5.13994 88.4056 4.97976 86.9179 5.00112 85.2583C5.00362 84.9319 5.00362 84.9319 5.00616 84.599C5.03586 82.8861 5.23352 81.3252 5.64663 79.6638C5.69767 79.4249 5.74871 79.186 5.80129 78.9398C7.14119 72.8322 10.3518 67.0902 14.2535 62.2588C14.4384 62.0155 14.4384 62.0155 14.627 61.7672C16.9484 58.7787 19.7735 56.2068 22.8603 54.0345C22.9764 53.9512 23.0925 53.8678 23.2121 53.782C27.6651 50.5994 32.8046 48.1411 38.1614 46.9578C38.3152 46.9226 38.4689 46.8874 38.6273 46.8511C40.1081 46.5437 41.554 46.5181 43.0625 46.5274Z" fill="#7D5232"/>
<path d="M94.7753 165.924C94.9491 165.99 95.123 166.057 95.302 166.126C99.6359 168.025 102.241 172.652 103.956 176.826C104.803 179.005 105.273 181.224 105.677 183.52C105.711 183.699 105.745 183.877 105.779 184.062C106.296 187.563 106.102 191.474 104.912 194.804C104.837 195.024 104.761 195.244 104.683 195.471C103.307 199.074 100.697 201.867 97.2162 203.493C92.6177 205.505 86.7107 205.289 82.0998 203.5C78.5329 202.038 76.0429 199.66 74.3766 196.194C71.805 189.962 72.9023 182.72 75.4219 176.658C76.4687 174.239 77.6908 171.9 79.4743 169.94C79.5568 169.848 79.6393 169.757 79.7244 169.662C83.6973 165.302 89.2547 163.694 94.7753 165.924Z" fill="#FFBB4D"/>
<path d="M101.213 164.08C103.567 166.067 105.307 168.409 106.825 171.087C106.887 171.197 106.95 171.307 107.015 171.421C108.936 174.855 110.047 178.69 110.65 182.563C110.683 182.773 110.683 182.773 110.717 182.988C111.675 189.29 110.792 196.207 107.061 201.521C103.444 206.181 98.8959 208.395 93.181 209.459C86.486 210.151 79.8457 208.815 74.5098 204.593C70.734 201.504 68.6779 196.927 68.1897 192.126C68.1206 191.055 68.1151 189.984 68.118 188.911C68.1181 188.765 68.1182 188.62 68.1183 188.47C68.1315 184.438 68.7726 180.635 70.1024 176.825C70.1452 176.701 70.188 176.577 70.2321 176.448C71.6591 172.387 73.8534 168.855 76.7966 165.732C76.9038 165.615 77.0111 165.497 77.1216 165.376C83.5326 158.608 94.1033 158.24 101.213 164.08ZM81.1956 168.218C81.0149 168.381 80.8342 168.544 80.648 168.712C77.2682 171.87 75.4124 176.086 74.1189 180.459C74.0605 180.652 74.002 180.845 73.9418 181.044C72.5064 186.24 72.3207 192.288 74.8429 197.189C77.0316 200.914 80.0762 202.926 84.1356 204.196C85.9274 204.638 87.6603 204.814 89.5036 204.798C89.7137 204.796 89.9237 204.795 90.1402 204.793C94.5537 204.735 98.5103 203.576 101.661 200.351C103.872 198.017 104.891 195.196 105.592 192.116C105.648 191.874 105.71 191.633 105.781 191.395C107.144 184.914 104.775 177.357 101.47 171.852C100.999 171.174 100.488 170.556 99.9395 169.94C99.7605 169.72 99.7605 169.72 99.5778 169.496C97.613 167.14 94.7668 165.438 91.7151 164.967C87.7777 164.611 84.1718 165.529 81.1956 168.218Z" fill="black"/>
<path d="M60.5332 100.869C62.4907 101.791 63.4892 103.198 64.2209 105.173C64.612 107.063 64.3106 108.646 63.3468 110.323C62.6951 111.27 61.9324 111.836 60.9217 112.37C61.2266 113.035 61.6241 113.602 62.0453 114.199C63.3886 116.193 63.8248 118.085 63.8265 120.451C63.8288 120.623 63.8312 120.796 63.8336 120.974C63.8397 123.814 62.7377 126.386 60.7304 128.436C60.6042 128.436 60.4779 128.436 60.3479 128.436C60.2847 128.625 60.2216 128.814 60.1566 129.01C59.3185 129.873 58.1919 130.416 57.1323 130.958C56.949 131.054 56.949 131.054 56.762 131.151C54.8259 132.112 52.9678 132.363 50.8206 132.345C50.4656 132.343 50.4656 132.343 50.1034 132.341C48.4182 132.311 46.9944 132.155 45.4293 131.496C45.1631 131.399 45.1631 131.399 44.8914 131.299C41.9187 130.113 39.8153 127.866 38.4146 125.041C37.8025 123.539 37.4799 122.172 37.4919 120.546C37.493 120.371 37.4941 120.197 37.4952 120.017C37.5786 116.829 39.1459 114.274 41.4061 112.098C42.3554 111.291 43.382 110.676 44.473 110.074C44.6106 109.994 44.7482 109.914 44.8899 109.831C46.8714 108.737 49.2187 108.509 51.4422 108.532C51.6003 108.533 51.7585 108.534 51.9214 108.535C52.3076 108.537 52.6937 108.541 53.0799 108.544C53.071 108.316 53.0621 108.087 53.053 107.852C52.988 105.502 53.165 103.976 54.8124 102.193C56.4351 100.694 58.3928 100.241 60.5332 100.869Z" fill="#F4A99C"/>
<path d="M122.58 101.097C124.172 102.021 125.082 103.208 125.76 104.91C126.109 106.227 126 107.599 125.76 108.927C125.955 108.924 125.955 108.924 126.154 108.921C126.752 108.913 127.35 108.908 127.948 108.903C128.152 108.9 128.357 108.896 128.567 108.893C132.222 108.871 135.677 110.36 138.335 112.869C140.483 115.147 141.549 117.832 141.524 120.962C141.411 124.104 139.982 126.635 137.81 128.818C137.696 128.938 137.583 129.058 137.467 129.181C135.043 131.546 131.385 132.577 128.081 132.543C126.535 132.486 125.122 132.163 123.656 131.687C123.356 131.593 123.356 131.593 123.05 131.497C119.784 130.315 117.596 127.736 116.091 124.705C115.521 123.327 115.362 122.105 115.372 120.63C115.373 120.461 115.374 120.292 115.375 120.118C115.429 117.224 116.642 114.89 118.301 112.561C118.162 112.487 118.162 112.487 118.02 112.412C116.625 111.616 115.23 110.415 114.744 108.829C114.404 106.726 114.527 104.781 115.7 102.965C117.336 100.836 120.101 99.9699 122.58 101.097Z" fill="#F4A99C"/>
<path d="M160.379 161.142C162.761 163.147 164.37 165.512 165.543 168.41C165.597 168.54 165.652 168.669 165.708 168.802C167.516 173.579 167.17 179.822 165.16 184.476C161.939 191.473 155.99 196.733 148.812 199.472C144.7 200.959 140.457 201.657 136.088 201.499C135.798 200.48 135.744 199.419 135.637 198.369C135.598 197.987 135.558 197.604 135.518 197.222C135.493 196.979 135.468 196.736 135.442 196.485C135.408 196.153 135.408 196.153 135.373 195.814C135.326 195.219 135.314 194.636 135.323 194.039C135.478 193.984 135.633 193.928 135.793 193.871C136.852 193.479 137.791 193.109 138.718 192.461C140.014 191.71 141.427 191.84 142.882 191.818C144.679 191.779 146.096 191.486 147.755 190.788C147.986 190.693 148.217 190.599 148.455 190.501C151.265 189.229 153.17 187.278 154.306 184.404C154.561 183.674 154.683 183.008 154.76 182.241C154.937 181.008 155.508 180.164 156.179 179.146C159.693 173.805 160.174 167.365 160.379 161.142Z" fill="#7D5232"/>
<path d="M97.5248 107.731C98.4669 108.489 99.1751 109.503 99.5569 110.648C99.676 112.167 99.2814 113.217 98.3376 114.39C96.9064 115.91 94.9031 116.794 92.8627 117.151C92.6102 117.151 92.3578 117.151 92.0977 117.151C92.102 118.012 92.1169 118.872 92.1335 119.733C92.1346 119.976 92.1357 120.218 92.1369 120.468C92.1703 121.893 92.2593 122.957 93.2452 124.037C94.391 125.107 95.9445 125.138 97.4318 125.118C99.7561 125.003 101.191 123.877 102.737 122.255C103.037 121.915 103.329 121.567 103.609 121.21C103.978 120.758 104.139 120.618 104.712 120.548C105.775 120.514 106.368 120.642 107.207 121.359C107.731 122.144 107.725 122.733 107.59 123.654C106.773 126.106 104.233 127.885 102.043 129.01C101.352 129.303 100.657 129.553 99.9395 129.775C99.7501 129.838 99.5608 129.901 99.3657 129.966C95.8586 130.225 93.0398 130.169 90.2082 127.93C89.7753 127.602 89.7753 127.602 89.0374 127.671C88.6023 127.937 88.6023 127.937 88.1648 128.292C87.1745 129.018 86.1868 129.414 85.0209 129.775C84.7369 129.869 84.7369 129.869 84.4471 129.966C80.6458 130.287 77.5119 129.958 74.5014 127.479C74.2781 127.302 74.2781 127.302 74.0502 127.122C72.724 126.016 71.3589 124.617 71.1902 122.829C71.261 121.994 71.4905 121.621 72.015 120.976C72.8699 120.407 73.6909 120.456 74.6927 120.594C75.1948 120.953 75.1948 120.953 75.649 121.55C77.0046 123.189 78.5671 124.78 80.7988 125.035C81.2069 125.058 81.6117 125.066 82.0205 125.065C82.1641 125.065 82.3078 125.065 82.4558 125.065C83.5821 125.041 84.4348 124.816 85.4034 124.228C85.5395 124.166 85.6756 124.105 85.8159 124.041C86.3179 123.762 86.3781 123.421 86.551 122.889C86.6141 122.763 86.6773 122.637 86.7423 122.507C86.7718 122.104 86.7901 121.701 86.8028 121.298C86.8108 121.057 86.8188 120.817 86.8271 120.569C86.8346 120.317 86.8421 120.065 86.8499 119.805C86.8581 119.549 86.8665 119.292 86.8749 119.036C86.8952 118.408 86.9148 117.78 86.9335 117.151C86.6392 117.116 86.6392 117.116 86.3388 117.08C84.1812 116.731 82.0415 115.717 80.6256 114.019C79.833 112.875 79.4902 111.87 79.6655 110.457C80.1037 108.929 81.3051 107.94 82.6017 107.108C83.8504 106.429 85.1619 106.128 86.551 105.867C86.7256 105.831 86.9001 105.796 87.08 105.759C90.6218 105.28 94.5146 105.673 97.5248 107.731Z" fill="black"/>
<path d="M122.58 101.097C124.172 102.021 125.082 103.208 125.76 104.91C125.915 105.496 125.915 105.496 125.951 106.058C125.965 106.178 125.979 106.298 125.994 106.422C126.104 107.985 125.503 109.666 124.577 110.923C123.044 112.32 121.624 112.836 119.572 112.817C118.064 112.677 116.92 111.916 115.904 110.821C114.622 109.16 114.486 107.318 114.667 105.293C115.016 103.678 115.927 102.429 117.28 101.5C119.001 100.529 120.743 100.262 122.58 101.097Z" fill="black"/>
<path d="M60.5332 100.869C62.4907 101.791 63.4892 103.198 64.221 105.174C64.6134 107.07 64.296 108.623 63.3603 110.316C62.5983 111.452 61.4697 112.261 60.1641 112.682C58.2595 113.025 56.7881 112.683 55.1838 111.605C54.1255 110.693 53.3379 109.349 53.0799 107.971C52.927 105.818 53.0816 104.276 54.4665 102.568C56.0998 100.8 58.1953 100.183 60.5332 100.869Z" fill="black"/>
<path d="M89.8981 159.982C90.0554 159.983 90.2127 159.984 90.3748 159.985C90.7578 159.987 91.1409 159.99 91.5239 159.994C91.5239 160.12 91.5239 160.247 91.5239 160.377C91.3511 160.388 91.1782 160.4 91.0002 160.412C90.7746 160.428 90.549 160.444 90.3165 160.46C90.0924 160.476 89.8683 160.491 89.6374 160.507C89.0325 160.546 89.0325 160.546 88.4637 160.759C87.9158 160.817 87.3679 160.856 86.8185 160.897C86.3694 160.901 86.3694 160.901 86.1685 161.142C85.6577 161.169 85.1502 161.15 84.6384 161.142C84.5753 161.015 84.5122 160.889 84.4471 160.759C84.7655 160.666 85.0844 160.575 85.4035 160.484C85.581 160.433 85.7585 160.382 85.9414 160.33C87.2657 160.016 88.5448 159.968 89.8981 159.982Z" fill="black"/>
<path d="M96.8912 129.93C97.1487 129.927 97.1487 129.927 97.4115 129.923C97.5773 129.923 97.7431 129.922 97.914 129.922C98.0641 129.921 98.2143 129.92 98.369 129.919C98.8386 129.971 99.1499 130.114 99.5569 130.348C99.0378 130.608 98.6296 130.561 98.0492 130.558C97.8261 130.558 97.6029 130.557 97.3731 130.556C97.1391 130.555 96.9051 130.553 96.664 130.552C96.4286 130.551 96.1931 130.55 95.9505 130.549C95.3675 130.547 94.7845 130.544 94.2015 130.54C94.1384 130.413 94.0753 130.287 94.0103 130.157C94.9633 129.908 95.9135 129.931 96.8912 129.93Z" fill="#F2D3A3"/>
<path d="M107.207 215.269C107.271 215.395 107.334 215.522 107.399 215.652C107.154 215.675 106.91 215.699 106.658 215.723C105.993 215.784 105.993 215.784 105.486 216.226C104.945 216.27 104.945 216.27 104.291 216.261C103.97 216.26 103.97 216.26 103.642 216.258C103.031 216.227 102.453 216.148 101.852 216.034C101.852 215.971 101.852 215.908 101.852 215.843C102.529 215.746 103.207 215.651 103.884 215.556C104.075 215.529 104.266 215.501 104.463 215.473C105.385 215.345 106.274 215.231 107.207 215.269Z" fill="black"/>
<path d="M158.849 112.561C159.038 112.561 159.227 112.561 159.422 112.561C159.602 113.907 159.634 115.22 159.614 116.578C158.959 115.595 158.802 115.058 158.825 113.852C158.828 113.61 158.832 113.369 158.835 113.12C158.84 112.935 158.844 112.751 158.849 112.561Z" fill="#F2D3A3"/>
<path d="M31.2759 173.957C31.3391 174.083 31.4022 174.209 31.4672 174.339C31.3252 174.719 31.3252 174.719 31.1086 175.164C30.8159 175.79 30.6362 176.336 30.5109 177.017C30.3349 177.471 30.1376 177.911 29.9371 178.356C29.707 178.069 29.707 178.069 29.5546 177.591C29.7371 177.045 29.9302 176.564 30.1762 176.048C30.2385 175.911 30.3009 175.773 30.3652 175.631C30.6383 175.036 30.911 174.504 31.2759 173.957Z" fill="#F2D3A3"/>
<path d="M125.377 104.528C126.05 105.201 125.962 106.083 125.963 106.99C125.96 107.253 125.956 107.516 125.951 107.779C125.825 107.842 125.699 107.906 125.569 107.971C124.873 105.536 124.873 105.536 125.377 104.528Z" fill="black"/>
<path d="M111.224 188.684C111.287 188.684 111.35 188.684 111.415 188.684C111.415 189.757 111.415 190.83 111.415 191.935C111.163 191.935 110.91 191.935 110.65 191.935C110.672 191.501 110.696 191.066 110.722 190.632C110.735 190.39 110.748 190.148 110.762 189.899C110.841 189.257 110.841 189.257 111.224 188.684Z" fill="#F2D3A3"/>
<path d="M29.5545 179.694C29.6176 179.694 29.6808 179.694 29.7458 179.694C29.7662 180.926 29.7385 182.109 29.5545 183.328C29.172 183.137 29.172 183.137 29.0532 182.799C28.9761 182.345 28.962 181.924 28.9688 181.464C28.9705 181.311 28.9722 181.158 28.974 181C28.9762 180.885 28.9785 180.77 28.9807 180.651C29.107 180.651 29.2332 180.651 29.3633 180.651C29.4264 180.335 29.4895 180.019 29.5545 179.694Z" fill="#F2D3A3"/>
<path d="M34.7186 168.792C34.7186 169.853 34.2664 170.463 33.5591 171.219C33.0234 171.779 33.0234 171.779 32.6147 172.426C32.4885 172.363 32.3622 172.3 32.2322 172.235C33.8124 169.812 33.8124 169.812 34.7186 168.792Z" fill="#F2D3A3"/>
<path d="M79.283 42.5587C79.283 42.7481 79.283 42.9375 79.283 43.1325C78.3171 43.3307 77.3944 43.3434 76.4141 43.3238C76.4772 43.1345 76.5403 42.9451 76.6053 42.75C77.5088 42.6254 78.3687 42.5359 79.283 42.5587Z" fill="#F2D3A3"/>
<path d="M114.858 104.528C115.377 105.288 115.283 106.085 115.264 106.966C115.263 107.118 115.261 107.27 115.259 107.426C115.255 107.799 115.248 108.172 115.24 108.544C114.785 107.861 114.779 107.457 114.726 106.644C114.71 106.409 114.693 106.175 114.676 105.933C114.668 105.404 114.693 105.024 114.858 104.528Z" fill="black"/>
<path d="M60.5392 46.7666C60.0329 47.046 59.7943 47.1491 59.2004 47.1491C59.2004 47.2754 59.2004 47.4016 59.2004 47.5317C58.7084 47.8414 58.4972 47.9226 57.9093 47.8425C57.7673 47.803 57.6253 47.7636 57.479 47.7229C57.911 47.2315 58.2823 47.0191 58.9015 46.8144C59.0472 46.7641 59.1929 46.7138 59.3431 46.662C59.8134 46.5675 60.0891 46.6149 60.5392 46.7666Z" fill="#F2D3A3"/>
<path d="M70.2937 219.86C70.3568 219.86 70.4199 219.86 70.4849 219.86C70.5273 220.358 70.5668 220.856 70.6045 221.354C70.6168 221.495 70.6291 221.636 70.6418 221.782C70.7195 222.855 70.7195 222.855 70.2937 223.494C70.1595 223.874 70.0309 224.256 69.9111 224.641C69.6769 223.939 69.7721 223.518 69.8872 222.789C69.9237 222.551 69.9602 222.313 69.9978 222.068C70.0323 221.844 70.0668 221.62 70.1024 221.39C70.1703 220.88 70.2324 220.37 70.2937 219.86Z" fill="#F2D3A3"/>
<path d="M49.6371 188.875C49.7003 188.875 49.7634 188.875 49.8284 188.875C50.0333 189.756 49.9675 190.158 49.6371 190.979C49.555 191.411 49.4836 191.846 49.422 192.282C49.3899 192.504 49.3579 192.726 49.3248 192.955C49.3017 193.123 49.2785 193.292 49.2546 193.465C49.1915 193.465 49.1284 193.465 49.0633 193.465C49.014 192.01 48.9741 190.201 49.6371 188.875Z" fill="#F2D3A3"/>
<path d="M79.8568 110.075C79.9831 110.138 80.1093 110.201 80.2393 110.266C80.2497 110.609 80.2571 110.951 80.2633 111.294C80.2677 111.485 80.2721 111.676 80.2767 111.872C80.2393 112.37 80.2393 112.37 79.8568 112.752C79.602 111.988 79.6398 111.254 79.6656 110.457C79.7287 110.331 79.7918 110.205 79.8568 110.075Z" fill="black"/>
<path d="M170.707 182.563C170.988 183.012 171.104 183.234 171.021 183.766C170.969 183.914 170.916 184.061 170.862 184.213C170.812 184.362 170.762 184.51 170.711 184.663C170.516 185.05 170.516 185.05 169.942 185.432C169.981 185.289 170.02 185.146 170.061 184.999C170.112 184.811 170.164 184.622 170.217 184.428C170.268 184.242 170.319 184.056 170.371 183.863C170.488 183.431 170.6 182.998 170.707 182.563Z" fill="#ECECEB"/>
<path d="M161.144 100.32C161.692 100.43 161.882 100.485 162.291 100.894C162.165 100.894 162.039 100.894 161.909 100.894C161.972 101.095 162.035 101.296 162.1 101.504C162.261 102.116 162.329 102.566 162.291 103.189C161.9 102.602 161.718 102.101 161.502 101.432C161.435 101.224 161.367 101.016 161.298 100.802C161.247 100.643 161.196 100.484 161.144 100.32Z" fill="#ECECEB"/>
<path d="M131.115 222.92C131.242 222.983 131.368 223.046 131.498 223.111C131.57 224.297 131.466 225.109 130.924 226.171C130.616 225.555 130.826 224.919 130.924 224.259C130.96 224.004 130.996 223.749 131.032 223.494C131.059 223.304 131.087 223.115 131.115 222.92Z" fill="#F2D3A3"/>
<path d="M111.224 183.52C111.287 183.52 111.35 183.52 111.415 183.52C111.415 184.656 111.415 185.792 111.415 186.962C111.352 186.962 111.289 186.962 111.224 186.962C111.161 186.584 111.098 186.205 111.033 185.815C110.97 185.815 110.907 185.815 110.841 185.815C110.801 184.96 110.92 184.319 111.224 183.52Z" fill="#F2D3A3"/>
<path d="M17.3137 100.129C17.6293 100.129 17.9449 100.129 18.27 100.129C18.1836 100.436 18.0956 100.743 18.0071 101.049C17.9582 101.22 17.9094 101.391 17.8591 101.567C17.6962 102.042 17.6962 102.042 17.3137 102.615C17.3297 102.468 17.3458 102.32 17.3623 102.169C17.3915 101.881 17.3915 101.881 17.4213 101.587C17.4413 101.396 17.4612 101.206 17.4818 101.009C17.5454 100.514 17.5454 100.514 17.3137 100.129Z" fill="#ECECEB"/>
<path d="M146.034 187.154C145.528 187.433 145.289 187.536 144.695 187.536C144.695 187.662 144.695 187.789 144.695 187.919C144.127 187.824 144.127 187.824 143.547 187.727C143.611 187.601 143.674 187.475 143.739 187.345C145.201 186.89 145.201 186.89 146.034 187.154Z" fill="black"/>
<path d="M42.3692 186.962C42.243 186.962 42.1167 186.962 41.9867 186.962C41.9867 187.089 41.9867 187.215 41.9867 187.345C41.2095 187.493 40.4825 187.555 39.6915 187.536C41.4288 186.601 41.4288 186.601 42.3692 186.962Z" fill="black"/>
<path d="M29.3632 95.3472C29.4894 95.4103 29.6157 95.4734 29.7457 95.5384C29.0781 96.3043 28.6652 96.6146 27.6418 96.686C28.1667 96.1223 28.6715 95.693 29.3632 95.3472Z" fill="#F2D3A3"/>
<path d="M101.278 42.176C101.589 42.1657 101.9 42.1583 102.211 42.1521C102.384 42.1477 102.557 42.1432 102.735 42.1387C103.191 42.176 103.191 42.176 103.573 42.5586C102.73 42.7694 101.951 42.7645 101.087 42.7498C101.15 42.5605 101.213 42.3711 101.278 42.176Z" fill="black"/>
<path d="M76.7017 42.1572C76.9912 42.1606 76.9912 42.1606 77.2867 42.164C77.4802 42.1657 77.6737 42.1674 77.8732 42.1692C78.0976 42.1725 78.0976 42.1725 78.3267 42.1759C78.2635 42.3653 78.2004 42.5546 78.1354 42.7497C76.7146 42.8043 76.7146 42.8043 76.0315 42.3672C76.2228 42.1759 76.2228 42.1759 76.7017 42.1572Z" fill="black"/>
<path d="M45.8119 181.607C46.1944 182.181 46.1944 182.181 46.1466 182.647C46.0133 183.103 45.8506 183.488 45.6206 183.902C45.3422 183.037 45.5689 182.464 45.8119 181.607Z" fill="black"/>
<path d="M69.146 179.886C69.5285 180.46 69.5285 180.46 69.4807 180.914C69.3369 181.417 69.1609 181.891 68.9547 182.372C68.7495 181.746 68.784 181.334 68.9428 180.699C68.98 180.546 69.0173 180.393 69.0556 180.235C69.0854 180.12 69.1153 180.005 69.146 179.886Z" fill="black"/>
<path d="M75.0752 42.5586C75.0752 42.7479 75.0752 42.9373 75.0752 43.1323C74.2232 43.227 74.2232 43.227 73.3539 43.3236C73.2907 43.1343 73.2276 42.9449 73.1626 42.7498C73.8269 42.5284 74.3792 42.5454 75.0752 42.5586Z" fill="black"/>
<path d="M72.6366 215.52C72.7471 215.564 72.8575 215.607 72.9713 215.652C72.3593 216.176 71.8228 216.537 71.0587 216.799C71.3636 216.063 71.7607 215.399 72.6366 215.52Z" fill="black"/>
<path d="M48.4896 192.318C48.9543 193.015 48.9031 193.41 48.8721 194.231C48.6828 194.231 48.4934 194.231 48.2983 194.231C48.2932 193.948 48.2895 193.665 48.2864 193.382C48.2842 193.224 48.2819 193.067 48.2797 192.904C48.2983 192.509 48.2983 192.509 48.4896 192.318Z" fill="black"/>
<path d="M87.198 159.574C87.3711 159.579 87.5442 159.583 87.7225 159.588C87.9836 159.593 87.9836 159.593 88.25 159.598C88.3836 159.603 88.5172 159.607 88.6549 159.612C88.424 159.902 88.424 159.902 88.0811 160.185C87.6485 160.2 87.6485 160.2 87.1846 160.126C86.9527 160.091 86.9527 160.091 86.7161 160.056C86.5985 160.036 86.4809 160.015 86.3597 159.994C86.7423 159.612 86.7423 159.612 87.198 159.574Z" fill="#F2D3A3"/>
<path d="M49.8285 187.919C50.211 188.301 50.211 188.301 50.2588 188.875C50.211 189.449 50.211 189.449 49.8285 189.832C49.7913 189.549 49.7558 189.266 49.7209 188.983C49.7009 188.825 49.6809 188.668 49.6604 188.505C49.6527 188.375 49.6451 188.245 49.6372 188.11C49.7003 188.047 49.7634 187.984 49.8285 187.919Z" fill="#F2D3A3"/>
<path d="M39.5002 186.771C40.1314 186.771 40.7626 186.771 41.4129 186.771C40.8379 187.346 40.299 187.267 39.5002 187.345C39.5002 187.155 39.5002 186.966 39.5002 186.771Z" fill="#F2D3A3"/>
<path d="M115.814 230.188C116.256 230.188 116.698 230.188 117.153 230.188C117.153 230.377 117.153 230.567 117.153 230.762C116.711 230.762 116.27 230.762 115.814 230.762C115.814 230.572 115.814 230.383 115.814 230.188Z" fill="black"/>
<path d="M130.924 152.726C130.861 152.916 130.798 153.105 130.733 153.3C130.102 153.237 129.47 153.174 128.82 153.109C129.627 152.706 130.044 152.692 130.924 152.726Z" fill="#F2D3A3"/>
<path d="M60.3479 41.6025C59.6427 42.0727 59.067 42.1787 58.244 42.3676C58.3071 42.1782 58.3703 41.9889 58.4353 41.7938C59.0867 41.6449 59.68 41.5834 60.3479 41.6025Z" fill="#ECECEB"/>
<path d="M110.076 192.126C110.266 192.19 110.455 192.253 110.65 192.318C110.587 192.696 110.524 193.075 110.459 193.465C110.27 193.465 110.08 193.465 109.885 193.465C109.948 193.023 110.011 192.582 110.076 192.126Z" fill="black"/>
<path d="M144.886 186.771C144.823 186.961 144.76 187.15 144.695 187.345C144.064 187.282 143.433 187.219 142.782 187.154C142.782 187.091 142.782 187.027 142.782 186.962C143.497 186.794 144.153 186.754 144.886 186.771Z" fill="#F2D3A3"/>
<path d="M46.7682 177.782C47.1132 178.309 47.1531 178.526 47.079 179.168C47.0395 179.342 47.0001 179.516 46.9594 179.694C46.8332 179.568 46.707 179.442 46.5769 179.312C46.5832 178.79 46.6848 178.299 46.7682 177.782Z" fill="black"/>
<path d="M124.11 111.461C124.213 111.508 124.316 111.556 124.421 111.604C123.431 112.221 123.431 112.221 123.082 112.37C122.893 112.306 122.704 112.243 122.509 112.178C123.544 111.401 123.544 111.401 124.11 111.461Z" fill="#F4A99C"/>
<path d="M21.5214 105.867C21.6477 105.93 21.7739 105.993 21.904 106.058C21.7938 106.514 21.6702 106.951 21.5214 107.397C21.3952 107.397 21.269 107.397 21.1389 107.397C21.3063 106.082 21.3063 106.082 21.5214 105.867Z" fill="#F2D3A3"/>
<path d="M159.422 198.629C159.422 198.819 159.422 199.008 159.422 199.203C159.076 199.538 159.076 199.538 158.657 199.777C158.468 199.714 158.279 199.651 158.083 199.586C158.525 199.27 158.967 198.955 159.422 198.629Z" fill="#ECECEB"/>
<path d="M47.1507 176.443C47.4605 176.935 47.5417 177.146 47.4615 177.734C47.4221 177.876 47.3826 178.018 47.342 178.164C47.2158 178.038 47.0895 177.912 46.9595 177.782C47.0312 177.088 47.0312 177.088 47.1507 176.443Z" fill="black"/>
<path d="M154.641 137.234C154.83 137.234 155.019 137.234 155.215 137.234C155.071 137.7 155.071 137.7 154.832 138.19C154.426 138.346 154.426 138.346 154.067 138.381C154.256 138.003 154.446 137.624 154.641 137.234Z" fill="black"/>
<path d="M77.5181 85.9751C79.939 88.1064 81.8196 91.4361 82.1759 94.6859C82.5657 101.071 80.0814 106.465 75.9282 111.232C75.5088 111.694 75.0816 112.148 74.6518 112.6C74.4604 112.823 74.27 113.047 74.0808 113.272C73.3381 114.13 72.5223 114.918 71.7126 115.712C71.1687 116.249 70.6433 116.79 70.1474 117.372C69.3895 118.242 68.584 119.062 67.7716 119.881C67.6133 120.041 67.4551 120.201 67.292 120.366C66.9592 120.701 66.6262 121.036 66.2929 121.37C65.868 121.797 65.4452 122.226 65.0228 122.656C64.6157 123.069 64.2061 123.479 63.7969 123.89C63.6466 124.043 63.4964 124.197 63.3415 124.355C62.3709 125.322 61.6369 125.921 60.2532 126.126C58.8971 125.939 57.8429 125.045 56.7529 124.267C55.6173 123.485 54.4386 122.768 53.2709 122.035C52.2986 121.423 51.3303 120.806 50.3621 120.188C49.5267 119.655 48.6898 119.124 47.8489 118.6C44.8055 116.697 41.8372 114.668 39.1814 112.242C39.0782 112.148 38.9751 112.054 38.8688 111.957C35.7046 109.03 33.2126 105.278 33.0066 100.852C33.0005 100.454 32.9987 100.056 33.001 99.6572C33.002 99.4466 33.003 99.2361 33.0041 99.0192C33.0748 95.5515 34.3652 92.626 36.6734 90.0282C36.7745 89.9143 36.8757 89.8005 36.9799 89.6832C39.0947 87.4442 42.1005 85.9974 45.1757 85.8652C49.3453 85.7702 52.711 86.88 55.8418 89.6699C56.139 89.9104 56.4373 90.1497 56.7375 90.3865C56.8523 90.22 56.967 90.0535 57.0853 89.8819C59.4523 86.4813 62.661 83.8712 66.8444 83.12C70.7187 82.6468 74.4216 83.5685 77.5181 85.9751Z" fill="#FF6060"/>
<path d="M118.363 85.729C119.659 86.7331 120.714 87.8632 121.638 89.2209C121.958 89.6885 122.304 90.127 122.662 90.5659C122.75 90.4682 122.837 90.3705 122.927 90.2698C125.213 87.8383 128.5 85.9717 131.886 85.8542C135.643 85.8159 138.617 86.5936 141.472 89.1327C141.65 89.2855 141.65 89.2855 141.831 89.4413C144.157 91.5844 145.78 94.9154 145.985 98.0694C145.999 98.6142 146 99.1573 145.996 99.7022C145.997 99.8841 145.999 100.066 146 100.254C145.988 104.797 143.685 108.497 140.633 111.705C137.929 114.323 134.628 116.44 131.462 118.449C130.814 118.862 130.17 119.281 129.526 119.699C129.27 119.865 129.014 120.03 128.757 120.196C128.318 120.48 127.878 120.765 127.439 121.05C126.451 121.688 125.459 122.319 124.461 122.94C124.27 123.059 124.079 123.178 123.882 123.301C123.502 123.537 123.121 123.773 122.741 124.009C121.984 124.479 121.237 124.946 120.522 125.479C120.032 125.818 119.762 125.987 119.18 126.047C119.059 126.064 118.937 126.081 118.811 126.099C117.539 125.922 116.601 125.095 115.734 124.209C115.624 124.099 115.514 123.989 115.401 123.876C115.041 123.517 114.683 123.154 114.326 122.792C114.074 122.539 113.822 122.287 113.57 122.034C113.043 121.506 112.517 120.976 111.992 120.446C111.322 119.769 110.65 119.094 109.978 118.42C109.333 117.773 108.689 117.125 108.045 116.477C107.923 116.355 107.802 116.233 107.677 116.107C106.485 114.908 105.303 113.713 104.211 112.421C103.961 112.152 103.711 111.883 103.46 111.615C101.621 109.566 100.078 107.354 98.8362 104.897C98.7773 104.782 98.7184 104.667 98.6578 104.548C96.8009 100.839 96.2045 96.553 97.4031 92.5364C98.0289 90.731 98.8796 89.1853 100.09 87.6996C100.176 87.5846 100.262 87.4696 100.351 87.3511C104.689 81.7907 113.009 82.0533 118.363 85.729Z" fill="#FF6060"/>
<path d="M118.363 85.729C119.659 86.7331 120.714 87.8632 121.638 89.2209C121.958 89.6885 122.304 90.127 122.662 90.5659C122.75 90.4682 122.837 90.3705 122.927 90.2698C125.213 87.8383 128.5 85.9717 131.886 85.8542C135.643 85.8159 138.617 86.5936 141.472 89.1327C141.65 89.2855 141.65 89.2855 141.831 89.4413C144.157 91.5844 145.78 94.9154 145.985 98.0694C145.999 98.6142 146 99.1573 145.996 99.7022C145.997 99.8841 145.999 100.066 146 100.254C145.988 104.797 143.685 108.497 140.633 111.705C137.929 114.323 134.628 116.44 131.462 118.449C130.814 118.862 130.17 119.281 129.526 119.699C129.27 119.865 129.014 120.03 128.757 120.196C128.318 120.48 127.878 120.765 127.439 121.05C126.451 121.688 125.459 122.319 124.461 122.94C124.27 123.059 124.079 123.178 123.882 123.301C123.502 123.537 123.121 123.773 122.741 124.009C121.984 124.479 121.237 124.946 120.522 125.479C120.032 125.818 119.762 125.987 119.18 126.047C119.059 126.064 118.937 126.081 118.811 126.099C117.539 125.922 116.601 125.095 115.734 124.209C115.624 124.099 115.514 123.989 115.401 123.876C115.041 123.517 114.683 123.154 114.326 122.792C114.074 122.539 113.822 122.287 113.57 122.034C113.043 121.506 112.517 120.976 111.992 120.446C111.322 119.769 110.65 119.094 109.978 118.42C109.333 117.773 108.689 117.125 108.045 116.477C107.923 116.355 107.802 116.233 107.677 116.107C106.485 114.908 105.303 113.713 104.211 112.421C103.961 112.152 103.711 111.883 103.46 111.615C101.621 109.566 100.078 107.354 98.8362 104.897C98.7773 104.782 98.7184 104.667 98.6578 104.548C96.8009 100.839 96.2045 96.553 97.4031 92.5364C98.0289 90.731 98.8796 89.1853 100.09 87.6996C100.176 87.5846 100.262 87.4696 100.351 87.3511C104.689 81.7907 113.009 82.0533 118.363 85.729ZM104.569 89.8493C104.454 89.9389 104.34 90.0285 104.222 90.1208C102.932 91.2586 101.819 93.4021 101.664 95.113C101.406 100.972 103.968 105.001 107.793 109.197C108.106 109.522 108.422 109.839 108.748 110.151C109.044 110.447 109.312 110.754 109.582 111.073C110.374 111.983 111.223 112.833 112.078 113.684C112.35 113.955 112.621 114.227 112.892 114.499C113.745 115.353 114.609 116.184 115.526 116.969C116.1 117.474 116.63 118.022 117.165 118.568C117.38 118.788 117.596 119.008 117.812 119.227C117.952 119.37 117.952 119.37 118.094 119.515C118.519 119.912 118.779 120.125 119.371 120.121C120.219 119.875 120.861 119.421 121.587 118.927C121.908 118.713 122.228 118.5 122.548 118.288C122.714 118.177 122.88 118.066 123.05 117.952C123.88 117.403 124.721 116.872 125.562 116.34C125.894 116.129 126.227 115.918 126.559 115.707C126.718 115.606 126.877 115.504 127.041 115.4C135.939 110.197 135.939 110.197 141.17 101.751C141.668 99.1192 141.077 96.4281 139.58 94.2271C138.276 92.5152 136.606 91.2182 134.486 90.745C132.65 90.634 130.959 90.5883 129.291 91.4616C129.052 91.5859 129.052 91.5859 128.809 91.7128C126.755 92.9064 125.197 94.5475 124.132 96.6588C123.674 97.5223 123.228 97.8028 122.304 98.0899C121.486 98.2214 120.704 98.1389 119.975 97.7316C119.592 97.157 119.569 96.932 119.505 96.2649C119.145 93.9622 117.881 91.975 116.213 90.3867C116.095 90.2694 115.977 90.1521 115.856 90.0312C113.929 88.2171 111.731 87.7678 109.168 87.8234C107.337 87.9115 105.974 88.7209 104.569 89.8493Z" fill="black"/>
<path d="M77.5181 85.9751C79.939 88.1064 81.8196 91.4361 82.1759 94.6859C82.5657 101.071 80.0814 106.465 75.9282 111.232C75.5089 111.694 75.0816 112.148 74.6518 112.6C74.4604 112.823 74.27 113.047 74.0808 113.272C73.3381 114.13 72.5223 114.918 71.7126 115.712C71.1687 116.249 70.6433 116.79 70.1474 117.372C69.3895 118.242 68.584 119.062 67.7716 119.881C67.6133 120.041 67.4551 120.201 67.292 120.366C66.9592 120.701 66.6262 121.036 66.2929 121.37C65.868 121.797 65.4452 122.226 65.0228 122.656C64.6157 123.069 64.2061 123.479 63.7969 123.89C63.6466 124.043 63.4964 124.197 63.3415 124.355C62.3709 125.322 61.6369 125.921 60.2532 126.126C58.8971 125.939 57.8429 125.045 56.7529 124.267C55.6173 123.485 54.4386 122.768 53.2709 122.035C52.2986 121.423 51.3303 120.806 50.3621 120.188C49.5267 119.655 48.6898 119.124 47.8489 118.6C44.8055 116.697 41.8372 114.668 39.1814 112.242C39.0782 112.148 38.9751 112.054 38.8688 111.957C35.7046 109.03 33.2126 105.278 33.0066 100.852C33.0005 100.454 32.9987 100.056 33.001 99.6572C33.002 99.4466 33.003 99.2361 33.0041 99.0192C33.0748 95.5515 34.3652 92.626 36.6734 90.0282C36.7745 89.9143 36.8757 89.8005 36.9799 89.6832C39.0947 87.4442 42.1005 85.9974 45.1757 85.8652C49.3453 85.7702 52.711 86.88 55.8418 89.6699C56.139 89.9104 56.4373 90.1497 56.7375 90.3865C56.8523 90.22 56.967 90.0535 57.0853 89.8819C59.4523 86.4813 62.661 83.8712 66.8444 83.12C70.7187 82.6468 74.4216 83.5685 77.5181 85.9751ZM61.9319 91.3228C60.6622 92.875 59.8064 94.6203 59.6654 96.6299C59.5965 97.0604 59.4709 97.3594 59.2455 97.7314C58.4623 98.2208 57.4528 98.2196 56.5583 98.0896C55.729 97.7257 55.4767 97.2961 55.1028 96.4885C53.6988 93.7479 51.3326 91.8647 48.4682 90.7769C46.3138 90.1488 44.1297 90.6886 42.2045 91.7412C39.9939 93.1826 38.4552 95.167 37.849 97.7537C37.8071 98.0438 37.7737 98.3351 37.7483 98.6271C37.7337 98.7878 37.7192 98.9485 37.7042 99.1141C37.5712 102.111 38.706 104.943 40.7041 107.148C44.2576 110.873 49.0399 113.494 53.3636 116.22C54.2412 116.775 55.1157 117.335 55.9903 117.895C56.2813 118.081 56.5725 118.267 56.8637 118.453C57.0419 118.567 57.2201 118.681 57.4037 118.799C57.5702 118.905 57.7367 119.011 57.9082 119.12C58.2673 119.354 58.6135 119.597 58.96 119.849C59.4995 120.169 59.7043 120.212 60.3204 120.124C60.7992 119.796 60.7992 119.796 61.2791 119.31C61.3765 119.217 61.474 119.123 61.5745 119.027C61.9357 118.679 62.2926 118.327 62.6492 117.975C62.7984 117.828 62.9476 117.681 63.1013 117.53C64.2586 116.389 65.4083 115.241 66.5561 114.09C66.9317 113.714 67.3079 113.339 67.6842 112.964C68.0509 112.598 68.4172 112.231 68.7834 111.864C69.0391 111.609 69.2951 111.353 69.5511 111.098C73.7079 106.926 77.3909 102.316 77.3954 96.1899C77.3608 93.7136 76.4583 91.7517 74.8198 89.8938C73.2019 88.3782 70.8686 87.5976 68.6799 87.6552C65.898 87.9122 63.7715 89.2789 61.9319 91.3228Z" fill="black"/>
<path d="M92.408 0.778863C93.2655 1.43604 93.7661 2.41142 93.9146 3.47759C94.0011 4.63569 93.628 5.69932 92.8925 6.58911C92.5728 6.9278 92.1995 7.19897 91.7857 7.41291C91.7218 7.41291 91.6579 7.41291 91.5921 7.41291C91.924 7.93804 92.2651 8.45617 92.6138 8.97031C92.6531 9.02832 92.6924 9.08634 92.7329 9.14611C92.896 9.38652 93.0592 9.62686 93.2227 9.86698C93.7296 10.6119 94.2192 11.3628 94.683 12.1352C94.8259 12.3715 94.9753 12.6036 95.1242 12.8361C96.5841 15.1346 97.9352 17.5137 99.2614 19.891C99.4975 20.3139 99.7371 20.7346 99.9789 21.1543C100.189 21.0628 100.322 20.9527 100.479 20.7874C100.731 20.529 100.995 20.2918 101.269 20.0576C101.417 19.9313 101.565 19.8049 101.713 19.6785C101.752 19.645 101.791 19.6115 101.832 19.577C102.06 19.3815 102.285 19.1833 102.507 18.981C102.803 18.7127 103.11 18.4601 103.42 18.2089C103.586 18.0741 103.751 17.9381 103.915 17.8021C104.151 17.6074 104.388 17.4132 104.624 17.219C104.668 17.183 104.711 17.147 104.756 17.1099C105.277 16.6818 105.804 16.2642 106.342 15.8571C106.71 15.5767 107.071 15.2871 107.428 14.9925C107.713 14.7584 108.005 14.5349 108.301 14.3159C108.264 14.2704 108.264 14.2704 108.225 14.224C107.444 13.2639 107.086 12.0587 107.204 10.8321C107.382 9.79331 107.993 8.88786 108.809 8.23143C109.709 7.59711 110.716 7.50301 111.785 7.60646C112.809 7.80515 113.827 8.50185 114.418 9.35235C114.965 10.2907 115.137 11.4037 114.889 12.4676C114.609 13.4555 113.96 14.3161 113.075 14.832C112.692 15.0191 112.336 15.1531 111.914 15.219C111.916 15.2712 111.917 15.3233 111.919 15.3769C111.933 16.2704 111.855 17.1573 111.784 18.0472C111.773 18.184 111.762 18.3207 111.751 18.4575C111.625 20.0483 111.474 21.6357 111.303 23.2223C111.265 23.5711 111.23 23.9201 111.194 24.2692C111.133 24.8673 111.07 25.4653 111.005 26.0631C110.979 26.3098 110.952 26.5565 110.926 26.8032C110.919 26.8663 110.912 26.9293 110.906 26.9942C110.783 28.137 110.668 29.2804 110.555 30.4241C110.449 31.4972 110.341 32.57 110.22 33.6417C110.213 33.7113 110.213 33.7113 110.205 33.7824C110.165 34.1351 110.125 34.4878 110.084 34.8405C110.046 35.1812 110.01 35.5219 109.978 35.8634C109.971 35.9279 109.965 35.9924 109.957 36.0589C109.932 36.4452 110.038 36.6392 110.267 36.9467C110.795 37.7074 110.635 38.8551 110.637 39.7339C110.637 39.7985 110.637 39.8631 110.637 39.9296C110.638 40.271 110.639 40.6124 110.639 40.9538C110.639 41.3044 110.641 41.6549 110.643 42.0055C110.644 42.2771 110.644 42.5487 110.644 42.8203C110.645 42.9495 110.645 43.0787 110.646 43.2078C110.656 44.9101 110.656 44.9101 110.253 45.3952C106.826 48.3361 99.4012 48.0811 95.1336 48.2545C95.0303 48.2587 95.0303 48.2587 94.925 48.263C93.4558 48.3214 91.9877 48.3344 90.5174 48.3313C90.173 48.3305 89.8286 48.331 89.4842 48.3317C75.7923 48.3566 75.7923 48.3566 69.8423 45.4703C69.1781 44.7881 69.3157 43.638 69.3178 42.7567C69.3178 42.6313 69.3176 42.5058 69.3175 42.3803C69.3173 42.1184 69.3176 41.8566 69.3182 41.5947C69.3189 41.2614 69.3185 40.9281 69.3177 40.5948C69.3172 40.336 69.3174 40.0772 69.3177 39.8184C69.3178 39.6956 69.3177 39.5728 69.3174 39.45C69.3133 37.3108 69.3133 37.3108 69.8885 36.6493C70.002 36.4748 69.9979 36.3909 69.9821 36.1852C69.9774 36.1181 69.9726 36.051 69.9677 35.9819C69.9579 35.8693 69.9579 35.8693 69.9479 35.7545C69.9383 35.6321 69.9383 35.6321 69.9285 35.5072C69.8561 34.6053 69.7587 33.7053 69.6644 32.8055C69.5798 31.9955 69.5002 31.1852 69.426 30.3742C69.4217 30.3272 69.4174 30.2803 69.4129 30.232C69.3702 29.7655 69.3279 29.299 69.2861 28.8325C69.2742 28.7002 69.2622 28.568 69.2502 28.4358C69.2356 28.2743 69.2211 28.1128 69.2068 27.9513C69.1645 27.4856 69.1078 27.0234 69.0443 26.56C68.9909 26.1505 68.9516 25.7396 68.9124 25.3285C68.9033 25.2347 68.8942 25.1408 68.8852 25.047C68.861 24.7961 68.8372 24.5451 68.8135 24.2942C68.7986 24.1368 68.7837 23.9795 68.7687 23.8221C68.5681 21.7033 68.4045 19.5825 68.2553 17.4595C68.2374 17.2076 68.2192 16.9557 68.2009 16.7038C68.1948 16.6206 68.1888 16.5374 68.1826 16.4517C68.1711 16.2934 68.1595 16.1352 68.1479 15.9769C68.1428 15.9065 68.1377 15.836 68.1325 15.7635C68.128 15.7017 68.1235 15.64 68.1188 15.5763C68.1106 15.4359 68.1092 15.2952 68.1092 15.1545C68.0294 15.1519 67.9496 15.1492 67.8673 15.1465C67.067 15.0559 66.3297 14.4825 65.8271 13.8786C65.39 13.2808 65.0464 12.5475 65.0126 11.7998C65.0076 11.7217 65.0076 11.7217 65.0025 11.6421C64.9626 10.5004 65.4033 9.47052 66.1738 8.63867C66.8197 7.94637 67.7351 7.60266 68.6631 7.52178C69.7315 7.48594 70.6833 7.78477 71.5042 8.47739C72.2794 9.21709 72.7666 10.2049 72.8348 11.2797C72.8193 12.3053 72.4584 13.3623 71.7406 14.108C71.7132 14.134 71.6857 14.16 71.6575 14.1868C71.7283 14.3993 71.766 14.4314 71.9387 14.5601C71.9837 14.594 72.0286 14.6279 72.075 14.6628C72.1235 14.6987 72.172 14.7345 72.222 14.7715C72.3228 14.8472 72.4236 14.923 72.5244 14.9988C72.5744 15.0362 72.6245 15.0736 72.6761 15.1121C72.8701 15.2576 73.0623 15.4054 73.2542 15.5537C73.4555 15.7089 73.657 15.8639 73.8592 16.0179C74.385 16.4187 74.899 16.8329 75.4106 17.2517C75.5142 17.3365 75.6181 17.421 75.7221 17.5055C76.3527 18.0186 76.9745 18.5406 77.5763 19.0873C77.7068 19.2054 77.8387 19.3214 77.9717 19.4366C78.253 19.6818 78.5278 19.9341 78.8021 20.1871C78.9499 20.3234 79.0988 20.4586 79.2481 20.5933C79.3253 20.6634 79.4025 20.7334 79.4797 20.8035C79.5167 20.8366 79.5537 20.8696 79.5918 20.9037C79.6805 20.9846 79.766 21.0692 79.8507 21.1543C79.8507 21.1969 79.8507 21.2394 79.8507 21.2833C80.0253 21.1275 80.1226 20.9625 80.2312 20.7561C80.267 20.6887 80.3028 20.6213 80.3397 20.5518C80.3779 20.4792 80.4161 20.4066 80.4555 20.3317C80.5371 20.1784 80.6188 20.025 80.7007 19.8718C80.7317 19.8137 80.7317 19.8137 80.7634 19.7543C81.0597 19.2006 81.3719 18.6559 81.6829 18.1104C81.7863 17.9283 81.8887 17.7457 81.991 17.563C82.4315 16.7762 82.8876 16.0002 83.3538 15.2284C83.5446 14.9124 83.7326 14.5948 83.9193 14.2764C84.3018 13.6244 84.6969 12.9821 85.1043 12.3453C85.2104 12.1789 85.3155 12.012 85.4205 11.8449C86.2002 10.6069 87.0314 9.40588 87.873 8.20938C88.0594 7.94417 88.2452 7.67853 88.431 7.41291C88.3809 7.40373 88.3308 7.39454 88.2792 7.38507C87.6884 7.25824 87.1443 6.76152 86.8104 6.27561C86.1922 5.30764 85.9365 4.23475 86.1503 3.09152C86.3964 2.07785 86.9195 1.14892 87.8269 0.594143C89.3135 -0.22656 90.9912 -0.226422 92.408 0.778863Z" fill="black"/>
<path d="M89.9793 8.38086C90.225 8.6052 90.3997 8.86068 90.5842 9.13486C90.6369 9.21272 90.6369 9.21272 90.6908 9.29214C90.8196 9.48272 90.9478 9.67369 91.0761 9.86467C91.1309 9.94602 91.1856 10.0274 91.2404 10.1087C91.9591 11.1761 92.6704 12.2457 93.334 13.3484C93.3699 13.4077 93.4058 13.4671 93.4427 13.5282C94.0683 14.5634 94.6847 15.6041 95.3014 16.6445C95.4677 16.9249 95.6342 17.2052 95.8009 17.4853C96.5759 18.7884 97.3434 20.0943 98.0613 21.4298C98.3006 21.8744 98.5444 22.3161 98.7935 22.7553C98.8256 22.8123 98.8576 22.8693 98.8907 22.9281C98.9207 22.9806 98.9506 23.0331 98.9815 23.0872C99.0206 23.156 99.0206 23.156 99.0605 23.2262C99.1419 23.3504 99.2205 23.4456 99.3338 23.5415C99.5073 23.5796 99.5073 23.5796 99.7007 23.5778C99.7648 23.5806 99.8289 23.5833 99.895 23.5861C100.522 23.4547 100.983 22.805 101.412 22.3641C101.787 21.9786 102.17 21.6198 102.591 21.2841C102.809 21.1099 103.019 20.9272 103.229 20.7433C103.635 20.3893 104.045 20.0399 104.457 19.6928C104.56 19.6054 104.663 19.5174 104.766 19.4293C105.154 19.0978 105.547 18.7756 105.95 18.4622C106.244 18.2333 106.533 17.9992 106.821 17.7635C109.784 15.3483 109.784 15.3483 110.108 15.3483C110.134 16.2715 110.054 17.1832 109.974 18.1022C109.964 18.229 109.953 18.3557 109.942 18.4825C109.77 20.5147 109.56 22.5432 109.347 24.5715C109.334 24.7003 109.32 24.8291 109.307 24.9578C109.233 25.6643 109.158 26.3707 109.084 27.0771C108.982 28.0341 108.883 28.9912 108.785 29.9485C108.779 30.011 108.772 30.0734 108.766 30.1377C108.687 30.905 108.611 31.6724 108.535 32.44C108.509 32.7058 108.483 32.9717 108.457 33.2375C108.427 33.5364 108.398 33.8353 108.369 34.1342C108.354 34.2918 108.338 34.4495 108.323 34.6071C108.316 34.6781 108.309 34.749 108.302 34.8221C108.258 35.2602 108.193 35.6898 108.108 36.1217C105.064 36.8403 101.951 37.2088 98.8388 37.464C98.7054 37.4751 98.572 37.4864 98.4385 37.4978C97.9465 37.5395 97.4543 37.572 96.9612 37.5979C96.8615 37.6032 96.7617 37.6085 96.662 37.614C94.5098 37.7319 92.3586 37.7467 90.2037 37.7466C90.0633 37.7466 89.9228 37.7466 89.7824 37.7467C88.0836 37.7474 86.3868 37.7371 84.6892 37.67C84.6167 37.6671 84.5442 37.6643 84.4695 37.6613C84.0009 37.6423 83.5326 37.6193 83.0643 37.5934C82.9929 37.5894 82.9215 37.5855 82.8479 37.5814C79.9845 37.4194 77.1248 37.1579 74.3026 36.6378C74.2187 36.6223 74.2187 36.6223 74.1331 36.6066C72.1314 36.2366 72.1314 36.2366 71.7865 36.1217C71.7815 36.0663 71.7764 36.011 71.7711 35.954C71.722 35.4202 71.6727 34.8865 71.6233 34.3527C71.5979 34.0787 71.5725 33.8046 71.5474 33.5305C71.4351 32.3087 71.3165 31.0882 71.1824 29.8686C71.0934 29.0587 71.0137 28.2484 70.9438 27.4365C70.8812 26.7102 70.8117 25.9855 70.7284 25.2612C70.6013 24.1471 70.5089 23.03 70.4139 21.9128C70.3948 21.6884 70.3755 21.464 70.3562 21.2396C70.2614 20.139 70.1684 19.0381 70.0783 17.9371C70.07 17.8359 70.0617 17.7348 70.0533 17.6337C69.9904 16.8725 69.9419 16.1116 69.9156 15.3483C70.252 15.5317 70.5551 15.7368 70.8592 15.9693C70.9041 16.0033 70.949 16.0374 70.9953 16.0724C71.1303 16.1748 71.2649 16.2776 71.3995 16.3805C71.4373 16.4094 71.4751 16.4382 71.5141 16.4679C72.0226 16.8557 72.5257 17.2503 73.028 17.6461C73.1394 17.7338 73.2511 17.8212 73.3628 17.9084C74.506 18.8017 75.6153 19.7277 76.6896 20.7029C77.1345 21.1051 77.1345 21.1051 77.5847 21.5013C78.1852 22.0264 78.759 22.5714 79.3181 23.1403C79.3814 23.2044 79.3814 23.2044 79.446 23.2699C79.5025 23.3274 79.5025 23.3274 79.5601 23.3862C79.7553 23.5688 79.9332 23.56 80.1935 23.5698C80.2664 23.5737 80.3393 23.5776 80.4145 23.5816C80.6476 23.5372 80.7273 23.4741 80.8654 23.2841C81.0412 23.0064 81.201 22.7209 81.3587 22.4327C81.3978 22.3621 81.4369 22.2915 81.4772 22.2188C81.56 22.0692 81.6426 21.9195 81.725 21.7696C81.9285 21.4 82.1336 21.0314 82.3385 20.6626C82.3993 20.5533 82.3993 20.5533 82.4612 20.4417C83.0778 19.3322 83.7038 18.2301 84.3533 17.1395C84.63 16.6749 84.9035 16.2085 85.1761 15.7416C85.6367 14.9529 86.1051 14.1694 86.5836 13.3914C86.6864 13.2238 86.7887 13.0558 86.8908 12.8877C87.8369 11.3367 88.8399 9.79786 89.9793 8.38086Z" fill="#F8E482"/>
<path d="M71.2058 37.8633C71.7538 37.9062 72.289 38.0016 72.829 38.0999C75.1562 38.5215 77.495 38.8736 79.8506 39.0891C79.8991 39.0935 79.9475 39.098 79.9975 39.1026C83.2243 39.3991 86.4563 39.4333 89.6941 39.4282C90.0421 39.4277 90.3902 39.4279 90.7382 39.4285C92.852 39.4317 94.962 39.4304 97.0727 39.2986C97.4135 39.2774 97.7545 39.26 98.0955 39.2425C100.999 39.0818 103.883 38.6334 106.747 38.1468C106.789 38.1396 106.832 38.1324 106.876 38.1249C107.106 38.0856 107.336 38.0448 107.565 38.0025C107.614 37.9935 107.664 37.9846 107.714 37.9753C107.808 37.9581 107.902 37.9407 107.996 37.9229C108.251 37.8763 108.493 37.8487 108.753 37.8633C108.877 37.9873 108.825 38.1722 108.825 38.3371C108.825 38.396 108.825 38.4549 108.825 38.5155C108.825 38.5772 108.825 38.6389 108.825 38.7024C108.825 38.9073 108.824 39.1122 108.823 39.3171C108.823 39.4588 108.823 39.6004 108.823 39.7421C108.823 40.1158 108.822 40.4894 108.822 40.863C108.821 41.244 108.821 41.625 108.82 42.0059C108.82 42.754 108.819 43.5021 108.817 44.2501C108.734 44.2919 108.651 44.3336 108.568 44.3753C108.522 44.3985 108.476 44.4217 108.429 44.4456C105.034 46.1118 100.467 46.144 96.7774 46.363C96.7133 46.3668 96.6493 46.3706 96.5833 46.3746C94.5036 46.4961 92.4248 46.5214 90.3422 46.5202C90.2805 46.5202 90.2188 46.5202 90.1553 46.5202C87.9652 46.5198 85.7802 46.4869 83.5924 46.3791C83.5242 46.3758 83.4559 46.3725 83.3855 46.3691C74.4743 45.9377 74.4743 45.9377 71.1413 44.2501C71.1398 43.4365 71.1387 42.6228 71.138 41.8091C71.1376 41.4313 71.1372 41.0535 71.1365 40.6757C71.1358 40.3114 71.1354 39.947 71.1352 39.5827C71.1351 39.4434 71.1349 39.3042 71.1345 39.1649C71.134 38.9704 71.134 38.7759 71.134 38.5814C71.1338 38.5234 71.1335 38.4653 71.1333 38.4055C71.134 38.0071 71.134 38.0071 71.2058 37.8633Z" fill="#F8E482"/>
<path d="M91.6055 23.1636C93.0318 24.1112 93.652 25.4379 94.0316 27.0548C94.3475 28.7618 94.0267 30.6928 93.1405 32.1862C92.9793 32.4117 92.8059 32.622 92.6244 32.8313C92.584 32.8844 92.5437 32.9376 92.5022 32.9923C92.026 33.5586 91.2896 33.9858 90.5599 34.1216C89.4439 34.199 88.609 33.9354 87.7435 33.2022C86.5061 32.0412 85.9625 30.3156 85.8983 28.6551C85.8575 27.023 86.1444 25.2299 87.3 23.9894C88.4869 22.7742 90.0591 22.2599 91.6055 23.1636Z" fill="black"/>
<path d="M90.3732 24.4776C91.0507 24.7625 91.5743 25.465 91.8502 26.1217C92.3321 27.386 92.5231 29.0958 91.9793 30.3796C91.9616 30.4218 91.944 30.464 91.9258 30.5075C91.5944 31.2808 91.1592 31.928 90.431 32.3795C90.0811 32.4961 89.7256 32.508 89.3907 32.3472C89.2989 32.2674 89.2989 32.2674 89.2052 32.186C89.1656 32.1536 89.126 32.1213 89.0852 32.0879C88.3896 31.4691 88.0757 30.548 87.8504 29.6699C87.8298 29.5902 87.8092 29.5104 87.7879 29.4283C87.4927 28.1369 87.6407 26.7468 88.3237 25.5884C88.8408 24.8627 89.429 24.2464 90.3732 24.4776Z" fill="#7D5232"/>
<path d="M90.947 1.99385C91.5201 2.30242 91.822 2.79564 92.017 3.40155C92.1444 4.07196 92.0707 4.66185 91.6952 5.22658C91.3605 5.66201 90.8417 5.95365 90.3019 6.05819C89.6909 6.11275 89.0826 5.91888 88.6084 5.52671C88.1305 5.04557 87.9795 4.54344 87.9512 3.88086C87.9596 3.31779 88.1453 2.89539 88.435 2.42125C89.16 1.77344 90.057 1.62969 90.947 1.99385Z" fill="#F8E482"/>
<path d="M111.971 9.5273C112.581 9.88009 112.921 10.3692 113.14 11.0257C113.189 11.5856 113.152 12.1514 112.822 12.6217C112.438 13.0687 111.958 13.4887 111.351 13.5634C110.595 13.5736 110.012 13.3567 109.462 12.8321C109.011 12.2769 109.008 11.5789 109.075 10.8967C109.196 10.3724 109.566 9.96958 109.983 9.64676C110.552 9.33151 111.359 9.27971 111.971 9.5273Z" fill="#F8E482"/>
<path d="M70.0446 9.67118C70.5173 10.0021 70.8342 10.3893 70.9478 10.9615C71.0048 11.6421 70.9227 12.2374 70.4962 12.788C70.1203 13.1843 69.5613 13.4485 69.0177 13.4928C68.3289 13.5085 67.8924 13.3624 67.3862 12.8926C66.9299 12.4005 66.8469 11.9407 66.8615 11.2817C66.909 10.7281 67.1447 10.2465 67.5266 9.84456C68.2865 9.21322 69.2023 9.19723 70.0446 9.67118Z" fill="#F8E482"/>
</svg>
