<svg width="188" height="236" viewBox="0 0 188 236" fill="none" xmlns="http://www.w3.org/2000/svg">
<path d="M107.606 38.5423C107.773 38.5711 107.941 38.5999 108.113 38.6296C114.669 39.7864 121.122 41.8454 127.309 44.2811C127.434 44.1659 127.434 44.1659 127.562 44.0485C128.263 43.4237 128.889 42.9565 129.772 42.6073C130.043 42.4963 130.043 42.4963 130.32 42.3831C131.866 41.8716 133.298 41.7257 134.924 41.7345C135.24 41.7361 135.24 41.7361 135.562 41.7378C147.47 41.912 158.56 48.5083 166.686 56.8405C167.365 57.5515 167.993 58.2969 168.601 59.0688C169.039 59.6202 169.496 60.1508 169.955 60.6843C176.274 68.2656 180.679 78.7316 179.914 88.6606C179.551 91.9869 177.945 95.3102 175.4 97.5056C172.435 99.7679 169.034 100.754 165.328 100.736C165.178 100.737 165.028 100.737 164.874 100.738C163.694 100.736 162.532 100.643 161.358 100.521C161.406 100.655 161.453 100.79 161.501 100.928C162.531 103.885 163.465 106.813 164.037 109.894C164.068 110.052 164.099 110.21 164.131 110.373C165.161 115.806 165.026 121.909 163.845 127.301C163.792 127.556 163.792 127.556 163.737 127.816C162.964 131.404 161.751 134.78 160.019 138.014C159.93 138.193 159.84 138.372 159.748 138.556C157.614 142.725 154.319 146.435 150.646 149.3C150.49 149.422 150.49 149.422 150.33 149.547C146.802 152.288 142.789 154.453 138.595 155.995C138.716 156.079 138.836 156.163 138.961 156.249C142.269 158.594 145.315 161.374 147.777 164.603C147.859 164.71 147.941 164.817 148.025 164.927C149.724 167.145 151.149 169.476 152.475 171.932C152.542 172.055 152.608 172.177 152.677 172.303C153.133 173.165 153.133 173.165 153.133 173.594C153.259 173.594 153.385 173.594 153.516 173.594C153.548 173.368 153.548 173.368 153.582 173.138C153.678 172.604 153.79 172.089 153.921 171.563C153.962 171.399 154.003 171.235 154.045 171.067C154.129 170.734 154.213 170.402 154.299 170.07C155.054 167.013 155.088 164.059 154.995 160.933C154.981 160.433 154.973 159.933 154.966 159.432C154.957 159.208 154.957 159.208 154.947 158.978C154.937 157.834 155.28 157.073 156.002 156.186C157.009 155.401 158.226 155.478 159.446 155.613C162.012 156.231 163.927 157.815 165.758 159.63C165.927 159.796 166.095 159.962 166.269 160.133C168.767 162.732 170.143 165.894 171.078 169.338C171.118 169.482 171.158 169.627 171.199 169.776C172.143 173.455 172.172 178.173 171.114 181.819C171.046 182.081 170.978 182.342 170.91 182.604C169.635 187.375 167.1 191.832 163.463 195.21C163.305 195.368 163.147 195.525 162.984 195.688C162.827 195.846 162.669 196.004 162.506 196.166C162.411 196.265 162.316 196.364 162.218 196.466C161.433 197.272 160.613 197.974 159.709 198.641C159.575 198.74 159.442 198.839 159.304 198.941C154.301 202.605 148.539 204.824 142.421 205.731C142.121 205.785 142.121 205.785 141.815 205.84C140.745 205.96 139.682 205.942 138.607 205.934C138.385 205.933 138.163 205.932 137.934 205.931C137.389 205.929 136.844 205.926 136.299 205.922C136.313 206.087 136.326 206.252 136.34 206.422C136.489 208.428 136.528 210.426 136.536 212.437C136.537 212.606 136.538 212.775 136.539 212.948C136.543 213.84 136.545 214.732 136.547 215.623C136.549 216.534 136.556 217.445 136.563 218.356C136.568 219.066 136.57 219.776 136.571 220.486C136.572 220.822 136.574 221.157 136.577 221.492C136.615 225.228 135.982 228.506 133.316 231.31C130.916 233.589 127.978 234.389 124.822 234.998C124.679 235.032 124.536 235.066 124.389 235.101C123.721 235.214 123.062 235.224 122.387 235.229C122.173 235.231 122.173 235.231 121.956 235.233C116.628 235.272 111.383 235.063 107.242 231.223C104.617 228.397 103.902 224.384 103.971 220.652C103.746 220.707 103.521 220.762 103.29 220.819C100.383 221.462 97.3857 221.635 94.417 221.647C94.188 221.648 93.9589 221.65 93.7229 221.651C92.9864 221.654 92.2498 221.655 91.5133 221.656C91.262 221.656 91.0107 221.656 90.7518 221.657C86.7727 221.659 82.8633 221.506 78.912 221.034C78.6126 220.999 78.3133 220.964 78.014 220.929C77.2292 220.838 76.4446 220.745 75.66 220.652C75.662 220.857 75.6641 221.062 75.6662 221.273C75.6355 224.845 74.379 228.52 71.9119 231.119C68.2891 234.553 63.3116 235.234 58.5394 235.238C58.3941 235.238 58.2488 235.238 58.099 235.238C53.5941 235.232 49.0832 234.487 45.6826 231.264C43.046 228.407 42.6968 224.914 42.7071 221.207C42.7067 220.888 42.7062 220.57 42.7055 220.252C42.7044 219.407 42.7061 218.563 42.7086 217.718C42.7101 217.195 42.711 216.671 42.7117 216.147C42.7198 211.137 42.7696 206.138 43.1405 201.14C43.1516 200.987 43.1627 200.835 43.1741 200.678C43.4103 197.443 43.7026 194.221 44.097 191.001C43.8879 191.073 43.6788 191.144 43.4634 191.218C43.3387 191.261 43.214 191.303 43.0855 191.347C42.8274 191.436 42.5695 191.525 42.3117 191.614C42.1413 191.671 42.1413 191.671 41.9673 191.73C41.8531 191.769 41.7389 191.808 41.6213 191.848C38.6651 192.671 34.69 192.56 31.8543 191.384C31.6844 191.327 31.5145 191.269 31.3395 191.21C28.7929 190.312 26.5532 188.409 25.3504 185.992C23.9597 183.067 23.8932 179.284 24.8946 176.2C24.9819 175.971 25.0692 175.742 25.1591 175.507C25.2362 175.3 25.2362 175.3 25.3147 175.088C26.524 171.879 28.1839 169.002 30.324 166.325C30.4547 166.157 30.5854 165.99 30.72 165.817C33.0896 162.84 35.7927 160.248 38.7169 157.824C38.8535 157.711 38.99 157.598 39.1307 157.481C39.7151 157.003 40.2952 156.542 40.9302 156.132C41.4342 155.852 41.4342 155.852 41.6102 155.421C41.4729 155.398 41.3357 155.374 41.1942 155.35C36.3301 154.273 31.3468 151.016 27.6459 147.77C27.4814 147.626 27.317 147.483 27.1475 147.335C26.6703 146.912 26.2001 146.482 25.733 146.048C25.6058 145.931 25.4785 145.814 25.3474 145.694C18.7819 139.422 15.2069 129.664 14.9653 120.709C14.9501 119.862 14.9471 119.015 14.949 118.167C14.9491 117.988 14.9492 117.809 14.9493 117.624C14.9647 111.83 15.6399 105.404 18.2726 100.138C18.0344 100.2 17.7962 100.261 17.5508 100.325C13.7189 101.171 9.74563 100.437 6.39438 98.46C3.1894 96.3946 1.32848 93.0309 0.476588 89.3884C-1.36978 80.6222 2.42439 70.955 7.11578 63.7007C7.56928 63.02 8.03733 62.3511 8.5168 61.6886C8.5978 61.5764 8.6788 61.4642 8.76226 61.3487C11.2726 57.9104 14.1654 54.7625 17.5075 52.124C17.8504 51.8373 18.1931 51.5503 18.5357 51.2632C20.5453 49.6236 22.7163 48.2389 24.9678 46.9591C25.1054 46.8809 25.243 46.8027 25.3848 46.7221C28.9364 44.7266 32.6853 43.3453 36.6366 42.3682C36.7725 42.3339 36.9085 42.2995 37.0485 42.2642C39.0914 41.7723 41.1454 41.7408 43.2361 41.7345C43.3687 41.7338 43.5012 41.7331 43.6377 41.7323C46.6856 41.7239 49.9362 42.1784 52.3225 44.2811C52.3225 44.4073 52.3225 44.5336 52.3225 44.6637C52.5072 44.5798 52.6919 44.496 52.8822 44.4096C59.4838 41.4891 66.4555 39.5746 73.5558 38.351C73.737 38.3195 73.9182 38.288 74.1048 38.2555C85.0342 36.4243 96.706 36.6615 107.606 38.5423Z" fill="#F2D3A3"/>
<path d="M107.606 38.5423C107.773 38.5711 107.941 38.5999 108.113 38.6296C114.669 39.7864 121.122 41.8454 127.309 44.2811C127.434 44.1659 127.434 44.1659 127.562 44.0485C128.263 43.4237 128.889 42.9565 129.772 42.6073C130.043 42.4963 130.043 42.4963 130.32 42.3831C131.866 41.8716 133.298 41.7257 134.924 41.7345C135.24 41.7361 135.24 41.7361 135.562 41.7378C147.47 41.912 158.56 48.5083 166.686 56.8405C167.365 57.5515 167.993 58.2969 168.601 59.0688C169.039 59.6202 169.496 60.1508 169.955 60.6843C176.274 68.2656 180.679 78.7316 179.914 88.6606C179.551 91.9869 177.945 95.3102 175.4 97.5056C172.435 99.7679 169.034 100.754 165.328 100.736C165.178 100.737 165.028 100.737 164.874 100.738C163.694 100.736 162.532 100.643 161.358 100.521C161.406 100.655 161.453 100.79 161.501 100.928C162.531 103.885 163.465 106.813 164.037 109.894C164.068 110.052 164.099 110.21 164.131 110.373C165.161 115.806 165.026 121.909 163.845 127.301C163.792 127.556 163.792 127.556 163.737 127.816C162.964 131.404 161.751 134.78 160.019 138.014C159.93 138.193 159.84 138.372 159.748 138.556C157.614 142.725 154.319 146.435 150.646 149.3C150.49 149.422 150.49 149.422 150.33 149.547C146.802 152.288 142.789 154.453 138.595 155.995C138.716 156.079 138.836 156.163 138.961 156.249C142.269 158.594 145.315 161.374 147.777 164.603C147.859 164.71 147.941 164.817 148.025 164.927C149.724 167.145 151.149 169.476 152.475 171.932C152.542 172.055 152.608 172.177 152.677 172.303C153.133 173.165 153.133 173.165 153.133 173.594C153.259 173.594 153.385 173.594 153.516 173.594C153.548 173.368 153.548 173.368 153.582 173.138C153.678 172.604 153.79 172.089 153.921 171.563C153.962 171.399 154.003 171.235 154.045 171.067C154.129 170.734 154.213 170.402 154.299 170.07C155.054 167.013 155.088 164.059 154.995 160.933C154.981 160.433 154.973 159.933 154.966 159.432C154.957 159.208 154.957 159.208 154.947 158.978C154.937 157.834 155.28 157.073 156.002 156.186C157.009 155.401 158.226 155.478 159.446 155.613C162.012 156.231 163.927 157.815 165.758 159.63C165.927 159.796 166.095 159.962 166.269 160.133C168.767 162.732 170.143 165.894 171.078 169.338C171.118 169.482 171.158 169.627 171.199 169.776C172.143 173.455 172.172 178.173 171.114 181.819C171.046 182.081 170.978 182.342 170.91 182.604C169.635 187.375 167.1 191.832 163.463 195.21C163.305 195.368 163.147 195.525 162.984 195.688C162.827 195.846 162.669 196.004 162.506 196.166C162.411 196.265 162.316 196.364 162.218 196.466C161.433 197.272 160.613 197.974 159.709 198.641C159.575 198.74 159.442 198.839 159.304 198.941C154.301 202.605 148.539 204.824 142.421 205.731C142.121 205.785 142.121 205.785 141.815 205.84C140.745 205.96 139.682 205.942 138.607 205.934C138.385 205.933 138.163 205.932 137.934 205.931C137.389 205.929 136.844 205.926 136.299 205.922C136.313 206.087 136.326 206.252 136.34 206.422C136.489 208.428 136.528 210.426 136.536 212.437C136.537 212.606 136.538 212.775 136.539 212.948C136.543 213.84 136.545 214.732 136.547 215.623C136.549 216.534 136.556 217.445 136.563 218.356C136.568 219.066 136.57 219.776 136.571 220.486C136.572 220.822 136.574 221.157 136.577 221.492C136.615 225.228 135.982 228.506 133.316 231.31C130.916 233.589 127.978 234.389 124.822 234.998C124.679 235.032 124.536 235.066 124.389 235.101C123.721 235.214 123.062 235.224 122.387 235.229C122.173 235.231 122.173 235.231 121.956 235.233C116.628 235.272 111.383 235.063 107.242 231.223C104.617 228.397 103.902 224.384 103.971 220.652C103.746 220.707 103.521 220.762 103.29 220.819C100.383 221.462 97.3857 221.635 94.417 221.647C94.188 221.648 93.9589 221.65 93.7229 221.651C92.9864 221.654 92.2498 221.655 91.5133 221.656C91.262 221.656 91.0107 221.656 90.7518 221.657C86.7727 221.659 82.8633 221.506 78.912 221.034C78.6126 220.999 78.3133 220.964 78.014 220.929C77.2292 220.838 76.4446 220.745 75.66 220.652C75.662 220.857 75.6641 221.062 75.6662 221.273C75.6355 224.845 74.379 228.52 71.9119 231.119C68.2891 234.553 63.3116 235.234 58.5394 235.238C58.3941 235.238 58.2488 235.238 58.099 235.238C53.5941 235.232 49.0832 234.487 45.6826 231.264C43.046 228.407 42.6968 224.914 42.7071 221.207C42.7067 220.888 42.7062 220.57 42.7055 220.252C42.7044 219.407 42.7061 218.563 42.7086 217.718C42.7101 217.195 42.711 216.671 42.7117 216.147C42.7198 211.137 42.7696 206.138 43.1405 201.14C43.1516 200.987 43.1627 200.835 43.1741 200.678C43.4103 197.443 43.7026 194.221 44.097 191.001C43.8879 191.073 43.6788 191.144 43.4634 191.218C43.3387 191.261 43.214 191.303 43.0855 191.347C42.8274 191.436 42.5695 191.525 42.3117 191.614C42.1413 191.671 42.1413 191.671 41.9673 191.73C41.8531 191.769 41.7389 191.808 41.6213 191.848C38.6651 192.671 34.69 192.56 31.8543 191.384C31.6844 191.327 31.5145 191.269 31.3395 191.21C28.7929 190.312 26.5532 188.409 25.3504 185.992C23.9597 183.067 23.8932 179.284 24.8946 176.2C24.9819 175.971 25.0692 175.742 25.1591 175.507C25.2362 175.3 25.2362 175.3 25.3147 175.088C26.524 171.879 28.1839 169.002 30.324 166.325C30.4547 166.157 30.5854 165.99 30.72 165.817C33.0896 162.84 35.7927 160.248 38.7169 157.824C38.8535 157.711 38.99 157.598 39.1307 157.481C39.7151 157.003 40.2952 156.542 40.9302 156.132C41.4342 155.852 41.4342 155.852 41.6102 155.421C41.4729 155.398 41.3357 155.374 41.1942 155.35C36.3301 154.273 31.3468 151.016 27.6459 147.77C27.4814 147.626 27.317 147.483 27.1475 147.335C26.6703 146.912 26.2001 146.482 25.733 146.048C25.6058 145.931 25.4785 145.814 25.3474 145.694C18.7819 139.422 15.2069 129.664 14.9653 120.709C14.9501 119.862 14.9471 119.015 14.949 118.167C14.9491 117.988 14.9492 117.809 14.9493 117.624C14.9647 111.83 15.6399 105.404 18.2726 100.138C18.0344 100.2 17.7962 100.261 17.5508 100.325C13.7189 101.171 9.74563 100.437 6.39438 98.46C3.1894 96.3946 1.32848 93.0309 0.476588 89.3884C-1.36978 80.6222 2.42439 70.955 7.11578 63.7007C7.56928 63.02 8.03733 62.3511 8.5168 61.6886C8.5978 61.5764 8.6788 61.4642 8.76226 61.3487C11.2726 57.9104 14.1654 54.7625 17.5075 52.124C17.8504 51.8373 18.1931 51.5503 18.5357 51.2632C20.5453 49.6236 22.7163 48.2389 24.9678 46.9591C25.1054 46.8809 25.243 46.8027 25.3848 46.7221C28.9364 44.7266 32.6853 43.3453 36.6366 42.3682C36.7725 42.3339 36.9085 42.2995 37.0485 42.2642C39.0914 41.7723 41.1454 41.7408 43.2361 41.7345C43.3687 41.7338 43.5012 41.7331 43.6377 41.7323C46.6856 41.7239 49.9362 42.1784 52.3225 44.2811C52.3225 44.4073 52.3225 44.5336 52.3225 44.6637C52.5072 44.5798 52.6919 44.496 52.8822 44.4096C59.4838 41.4891 66.4555 39.5746 73.5558 38.351C73.737 38.3195 73.9182 38.288 74.1048 38.2555C85.0342 36.4243 96.706 36.6615 107.606 38.5423ZM76.6165 42.7507C76.3135 42.7865 76.3135 42.7865 76.0044 42.823C69.5068 43.5968 63.2101 45.1871 57.1048 47.533C56.9304 47.5993 56.7561 47.6655 56.5765 47.7337C56.1325 47.9047 55.6916 48.0814 55.2516 48.2623C55.0181 48.3582 54.7846 48.4542 54.544 48.553C54.0136 48.8226 54.0136 48.8226 53.8707 49.3137C53.8508 49.8872 53.864 50.4506 53.8887 51.0241C53.9488 54.4126 53.1182 57.8898 52.1312 61.1147C52.0738 61.3023 52.0164 61.49 51.9573 61.6833C49.0886 70.9151 44.9118 80.496 38.208 87.6339C37.8446 88.0224 37.5027 88.4193 37.1627 88.828C34.276 92.1146 29.9733 95.9226 25.7778 97.3405C24.7667 97.6914 24.1822 97.9435 23.6154 98.8783C23.2942 99.6077 23.0571 100.358 22.8328 101.122C22.6577 101.718 22.4689 102.309 22.2793 102.901C21.5087 105.354 20.8553 107.811 20.4553 110.352C20.3995 110.707 20.3388 111.06 20.2749 111.413C19.954 113.335 19.9295 115.233 19.9339 117.177C19.9345 117.731 19.93 118.284 19.9251 118.838C19.914 122.082 20.1713 125.356 21.0822 128.485C21.1307 128.656 21.1792 128.828 21.2292 129.004C23.7037 137.423 29.3015 144.097 36.9571 148.297C41.1288 150.527 45.4988 152.196 50.1652 153.027C50.3353 153.058 50.5055 153.089 50.6808 153.121C50.8347 153.147 50.9886 153.173 51.1472 153.2C51.7811 153.381 52.1128 153.769 52.5138 154.274C52.5769 154.337 52.64 154.4 52.7051 154.465C52.7869 155.169 52.7232 155.572 52.4301 156.222C51.7671 156.95 51.1544 157.1 50.2183 157.334C42.3379 159.351 35.9518 166.074 31.8377 172.864C30.0067 175.96 28.5273 179.185 29.053 182.87C29.454 184.383 30.5537 185.571 31.8566 186.39C34.7019 187.858 38.224 188.127 41.2993 187.164C42.7094 186.602 44.2332 185.855 45.2447 184.689C45.403 184.3 45.403 184.3 45.4993 183.859C45.5409 183.691 45.5825 183.524 45.6254 183.351C45.6684 183.169 45.7115 182.988 45.7558 182.801C45.8263 182.516 45.8263 182.516 45.8981 182.226C46.0489 181.617 46.197 181.007 46.3446 180.397C46.903 178.091 47.4652 175.797 48.2366 173.551C48.2894 173.395 48.3422 173.239 48.3967 173.078C48.7315 172.139 49.0843 171.196 50.027 170.725C50.8085 170.626 51.5991 170.548 52.3143 170.918C52.8187 171.327 53.0727 171.636 53.2789 172.255C53.3279 173.196 53.2185 173.961 52.9494 174.862C52.8778 175.107 52.8063 175.352 52.7347 175.597C52.6967 175.724 52.6588 175.852 52.6196 175.983C51.69 179.113 50.9194 182.265 50.2183 185.454C50.1611 185.709 50.1611 185.709 50.1027 185.97C48.9398 191.197 48.3567 196.535 47.9552 201.868C47.9302 202.192 47.9039 202.516 47.877 202.839C47.7546 204.348 47.6758 205.854 47.6269 207.367C47.6189 207.612 47.611 207.858 47.6027 208.11C47.5164 210.92 47.4977 213.73 47.4942 216.541C47.4932 217.286 47.4885 218.03 47.4832 218.775C47.4796 219.361 47.4786 219.946 47.4783 220.532C47.4777 220.807 47.4762 221.082 47.4737 221.356C47.4529 223.757 47.6153 226.047 49.2618 227.921C51.6231 230.147 54.85 230.509 57.9543 230.472C58.3605 230.467 58.7665 230.468 59.1727 230.469C62.5749 230.462 66.2488 230.063 68.7735 227.538C70.4957 225.276 70.7939 222.62 70.8897 219.874C70.9042 219.479 70.9197 219.084 70.9384 218.689C70.9552 218.335 70.9681 217.981 70.9809 217.627C71.077 216.962 71.2416 216.596 71.6429 216.061C73.3137 214.947 76.714 215.849 78.637 216.049C82.6354 216.461 86.5948 216.67 90.6152 216.67C91.2119 216.67 91.8085 216.674 92.4051 216.677C96.1074 216.688 99.7468 216.372 103.409 215.845C103.894 215.776 104.378 215.708 104.863 215.641C105.069 215.611 105.275 215.581 105.488 215.551C107.024 215.383 107.024 215.383 107.845 215.809C108.419 216.292 108.54 216.505 108.753 217.208C108.802 217.833 108.802 217.833 108.806 218.54C108.81 218.803 108.814 219.065 108.818 219.328C108.822 219.736 108.825 220.143 108.826 220.55C108.84 223.399 109.15 226.162 111.24 228.303C113.604 230.265 116.864 230.445 119.8 230.453C120.212 230.455 120.624 230.461 121.035 230.467C124.253 230.492 127.533 230.134 129.949 227.824C131.295 226.296 131.752 224.41 131.764 222.413C131.765 222.271 131.766 222.13 131.768 221.985C131.771 221.519 131.772 221.054 131.773 220.589C131.774 220.258 131.776 219.927 131.777 219.596C131.782 218.529 131.781 217.462 131.78 216.395C131.78 216.214 131.78 216.032 131.78 215.845C131.778 209.826 131.603 203.876 130.943 197.888C130.901 197.491 130.858 197.094 130.816 196.697C129.984 189.014 128.827 181.138 126.352 173.785C126.235 173.116 126.204 172.522 126.54 171.916C126.972 171.371 127.403 170.922 128.074 170.725C128.769 170.661 129.271 170.672 129.927 170.916C130.937 171.789 131.278 173.171 131.594 174.427C131.633 174.576 131.672 174.724 131.712 174.877C131.793 175.192 131.875 175.507 131.955 175.822C132.08 176.313 132.208 176.803 132.337 177.294C132.741 178.845 133.12 180.395 133.444 181.965C133.841 183.901 133.841 183.901 135.11 185.373C135.25 185.463 135.39 185.553 135.534 185.645C135.678 185.749 135.822 185.853 135.971 185.96C138.501 187.648 141.58 188.006 144.533 187.425C146.622 186.883 148.471 185.95 149.69 184.115C150.653 182.306 150.426 180.231 149.881 178.328C147.42 170.356 141.066 163.119 133.841 159.081C132.23 158.233 130.596 157.856 128.8 157.626C128.066 157.488 127.672 157.253 127.117 156.76C126.809 156.143 126.815 155.515 126.926 154.847C127.706 153.761 128.686 153.602 129.952 153.38C130.078 153.361 130.204 153.341 130.334 153.321C132.17 153.037 133.888 152.545 135.642 151.942C135.779 151.896 135.917 151.849 136.058 151.801C138.077 151.116 139.994 150.361 141.847 149.3C142.106 149.161 142.366 149.022 142.626 148.884C150.117 144.86 155.757 137.931 158.21 129.796C158.448 128.969 158.668 128.138 158.872 127.301C158.904 127.182 158.935 127.063 158.968 126.941C159.671 124.133 159.715 121.189 159.709 118.311C159.709 118.055 159.709 118.055 159.708 117.795C159.702 114.906 159.484 112.151 158.872 109.32C158.839 109.16 158.806 109.001 158.772 108.836C158.126 105.739 157.052 102.735 156.002 99.7555C155.957 99.6102 155.912 99.4648 155.866 99.315C155.629 98.6261 155.42 98.411 154.797 98.0115C154.543 97.8957 154.287 97.7838 154.03 97.6752C153.751 97.5464 153.473 97.4164 153.195 97.2852C152.986 97.1867 152.986 97.1867 152.772 97.0862C150.558 95.9909 148.565 94.3862 146.629 92.869C146.523 92.7858 146.417 92.7026 146.307 92.6168C143.407 90.3154 140.764 87.6438 138.595 84.6435C138.502 84.5166 138.409 84.3897 138.313 84.2589C131.493 74.9375 124.827 61.0852 125.587 49.2546C115.174 43.553 102.452 42.0526 90.7516 42.1021C89.9718 42.1053 89.1921 42.1034 88.4122 42.1001C84.4439 42.0859 80.558 42.2774 76.6165 42.7507Z" fill="black"/>
<path d="M150.179 50.4506C155.959 53.4064 161.626 57.8513 165.567 63.0277C165.668 63.1594 165.769 63.2912 165.873 63.4269C167.369 65.3909 168.773 67.3691 169.967 69.5316C170.055 69.6893 170.143 69.8469 170.234 70.0094C173.038 75.0561 175.015 80.2078 175.036 86.0305C175.038 86.4026 175.038 86.4026 175.04 86.7822C175.003 89.4931 174.387 91.7977 172.515 93.8047C170.033 96.0575 166.799 96.1091 163.632 95.9686C156.082 95.4381 148.994 89.5255 144.21 84.0949C143.579 83.3464 142.992 82.5692 142.421 81.7742C142.333 81.6532 142.246 81.5322 142.157 81.4075C139.014 77.0103 136.511 72.293 134.603 67.2356C134.399 66.6957 134.191 66.1577 133.981 65.6198C132.553 61.8843 131.424 57.9822 130.752 54.037C130.713 53.8504 130.674 53.6637 130.635 53.4714C130.409 52.3234 130.326 51.199 130.31 50.0319C130.306 49.8937 130.303 49.7555 130.299 49.6131C130.3 48.7551 130.413 48.2124 130.943 47.5331C135.729 43.9439 145.555 48.1881 150.179 50.4506Z" fill="#7D5232"/>
<path d="M43.0688 46.5289C43.4298 46.5267 43.4298 46.5267 43.7981 46.5244C47.3297 46.5318 47.3297 46.5318 48.688 47.7245C49.0815 48.6288 49.1376 49.4894 49.1303 50.4623C49.1289 50.6887 49.1289 50.6887 49.1275 50.9197C48.9955 57.7109 46.0054 64.9625 43.158 70.9987C42.9496 71.4438 42.7475 71.8913 42.5465 72.3398C39.3666 79.354 34.6169 85.771 28.4111 90.3824C28.2237 90.5254 28.0363 90.6684 27.8432 90.8158C24.9092 92.9622 21.5822 94.582 18.0814 95.5473C17.9088 95.5976 17.7362 95.6479 17.5583 95.6997C15.4071 96.2339 12.8786 96.1577 10.8123 95.356C10.5719 95.265 10.5719 95.265 10.3266 95.1722C8.06423 94.1846 6.55378 92.2548 5.64746 89.9998C5.14069 88.4132 4.98049 86.9253 5.00185 85.2654C5.00435 84.939 5.00435 84.939 5.0069 84.606C5.0366 82.8929 5.23429 81.3317 5.64746 79.6701C5.6985 79.4312 5.74955 79.1922 5.80214 78.946C7.14223 72.8375 10.3533 67.0946 14.2556 62.2626C14.4405 62.0192 14.4405 62.0192 14.6292 61.7709C16.9509 58.782 19.7764 56.2097 22.8637 54.0371C22.9798 53.9537 23.0959 53.8704 23.2155 53.7845C27.6692 50.6014 32.8094 48.1428 38.167 46.9593C38.3207 46.9241 38.4745 46.8889 38.633 46.8526C40.114 46.5452 41.5601 46.5196 43.0688 46.5289Z" fill="#7D5232"/>
<path d="M94.7891 165.942C94.963 166.009 95.1368 166.076 95.3159 166.145C99.6505 168.044 102.255 172.672 103.971 176.846C104.818 179.025 105.288 181.245 105.693 183.541C105.726 183.72 105.76 183.899 105.795 184.083C106.311 187.585 106.117 191.497 104.928 194.827C104.852 195.047 104.776 195.267 104.698 195.494C103.322 199.097 100.712 201.891 97.2303 203.517C92.6312 205.53 86.7233 205.314 82.1118 203.524C78.5443 202.062 76.0539 199.683 74.3875 196.217C71.8154 189.985 72.9129 182.741 75.4328 176.678C76.4798 174.259 77.7022 171.92 79.4858 169.959C79.5684 169.868 79.6509 169.776 79.736 169.682C83.7095 165.321 89.2677 163.713 94.7891 165.942Z" fill="#FFBB4D"/>
<path d="M101.228 164.099C103.582 166.086 105.323 168.428 106.84 171.107C106.903 171.217 106.966 171.327 107.03 171.44C108.952 174.875 110.063 178.711 110.666 182.585C110.699 182.795 110.699 182.795 110.733 183.009C111.691 189.312 110.808 196.23 107.077 201.546C103.459 206.206 98.9103 208.42 93.1945 209.484C86.4986 210.177 79.8573 208.84 74.5207 204.617C70.7442 201.528 68.6879 196.95 68.1996 192.149C68.1305 191.078 68.125 190.006 68.1279 188.933C68.128 188.788 68.1281 188.642 68.1282 188.492C68.1414 184.46 68.7826 180.656 70.1126 176.846C70.1554 176.721 70.1982 176.597 70.2423 176.469C71.6695 172.407 73.8641 168.875 76.8077 165.751C76.915 165.634 77.0223 165.516 77.1328 165.395C83.5447 158.626 94.117 158.257 101.228 164.099ZM81.2074 168.238C81.0267 168.401 80.8459 168.564 80.6597 168.732C77.2794 171.889 75.4233 176.106 74.1297 180.48C74.0712 180.673 74.0128 180.866 73.9526 181.065C72.517 186.262 72.3312 192.311 74.8537 197.212C77.0428 200.938 80.0878 202.95 84.1478 204.221C85.9399 204.662 87.6731 204.839 89.5167 204.822C89.7267 204.821 89.9368 204.819 90.1532 204.818C94.5674 204.759 98.5246 203.6 101.676 200.375C103.887 198.041 104.906 195.219 105.607 192.139C105.663 191.897 105.726 191.656 105.796 191.418C107.159 184.936 104.79 177.377 101.484 171.872C101.013 171.194 100.502 170.576 99.954 169.959C99.775 169.74 99.775 169.74 99.5923 169.516C97.6272 167.159 94.7805 165.457 91.7285 164.986C87.7905 164.63 84.184 165.548 81.2074 168.238Z" fill="black"/>
<path d="M160.402 161.16C162.784 163.166 164.394 165.531 165.567 168.429C165.621 168.559 165.676 168.688 165.732 168.822C167.541 173.599 167.195 179.843 165.184 184.498C161.963 191.495 156.013 196.756 148.833 199.496C144.721 200.983 140.477 201.681 136.108 201.523C135.818 200.504 135.764 199.443 135.657 198.393C135.618 198.01 135.578 197.628 135.538 197.245C135.513 197.002 135.487 196.759 135.462 196.509C135.427 196.176 135.427 196.176 135.393 195.837C135.345 195.242 135.334 194.659 135.343 194.062C135.498 194.007 135.653 193.951 135.813 193.893C136.872 193.501 137.811 193.131 138.738 192.484C140.035 191.732 141.448 191.863 142.903 191.841C144.7 191.802 146.117 191.508 147.777 190.81C148.008 190.716 148.239 190.621 148.477 190.523C151.287 189.252 153.192 187.3 154.329 184.426C154.584 183.696 154.706 183.03 154.783 182.262C154.96 181.029 155.53 180.185 156.202 179.167C159.716 173.824 160.197 167.384 160.402 161.16Z" fill="#7D5232"/>
<path d="M97.539 107.742C98.4812 108.499 99.1896 109.514 99.5714 110.659C99.6906 112.178 99.2958 113.228 98.352 114.401C96.9205 115.922 94.9169 116.805 92.8762 117.163C92.6237 117.163 92.3712 117.163 92.1111 117.163C92.1155 118.024 92.1303 118.885 92.1469 119.746C92.1481 119.988 92.1492 120.231 92.1503 120.481C92.1837 121.906 92.2728 122.97 93.2588 124.05C94.4047 125.12 95.9585 125.151 97.446 125.131C99.7707 125.016 101.206 123.889 102.752 122.267C103.052 121.928 103.344 121.579 103.624 121.223C103.993 120.771 104.154 120.631 104.727 120.561C105.791 120.526 106.383 120.655 107.223 121.372C107.747 122.157 107.741 122.746 107.606 123.667C106.788 126.119 104.248 127.899 102.058 129.023C101.367 129.317 100.672 129.567 99.954 129.788C99.7646 129.851 99.5753 129.915 99.3801 129.98C95.8726 130.239 93.0533 130.183 90.2213 127.943C89.7884 127.615 89.7884 127.615 89.0504 127.684C88.6152 127.951 88.6152 127.951 88.1777 128.306C87.1872 129.032 86.1993 129.427 85.0333 129.788C84.7492 129.883 84.7492 129.883 84.4594 129.98C80.6576 130.3 77.5232 129.972 74.5123 127.493C74.2889 127.316 74.2889 127.316 74.061 127.135C72.7346 126.029 71.3693 124.63 71.2006 122.842C71.2714 122.006 71.5009 121.633 72.0255 120.989C72.8805 120.419 73.7016 120.469 74.7036 120.606C75.2057 120.965 75.2057 120.965 75.66 121.563C77.0158 123.202 78.5786 124.793 80.8106 125.048C81.2188 125.071 81.6236 125.079 82.0324 125.078C82.1761 125.078 82.3198 125.078 82.4678 125.078C83.5942 125.055 84.4471 124.829 85.4159 124.241C85.552 124.179 85.6881 124.118 85.8284 124.054C86.3304 123.775 86.3907 123.434 86.5636 122.902C86.6268 122.776 86.6899 122.649 86.7549 122.519C86.7845 122.117 86.8027 121.714 86.8155 121.31C86.8235 121.07 86.8315 120.829 86.8397 120.582C86.8473 120.329 86.8548 120.077 86.8625 119.817C86.8708 119.561 86.8791 119.305 86.8876 119.048C86.9079 118.42 86.9274 117.792 86.9462 117.163C86.6518 117.128 86.6518 117.128 86.3514 117.092C84.1935 116.743 82.0535 115.729 80.6373 114.031C79.8446 112.886 79.5018 111.881 79.6772 110.468C80.1154 108.94 81.317 107.95 82.6138 107.119C83.8627 106.439 85.1743 106.138 86.5636 105.877C86.7382 105.841 86.9128 105.806 87.0927 105.769C90.635 105.29 94.5283 105.684 97.539 107.742Z" fill="black"/>
<path d="M52.8856 101.023C53.0239 101.018 53.0239 101.018 53.1651 101.014C53.7405 101.087 54.0958 101.452 54.486 101.852C54.5716 101.939 54.6572 102.026 54.7454 102.115C54.9171 102.292 55.0881 102.47 55.2588 102.648C57.2477 104.524 59.951 105.04 62.6049 104.977C65.0651 104.878 67.5188 103.924 69.1943 102.119C69.3079 101.994 69.4204 101.867 69.5317 101.74C69.8954 101.326 70.1349 101.086 70.687 101.013C71.3519 101.004 71.8726 101.023 72.3776 101.485C72.7612 101.906 72.9604 102.316 73 102.886C72.9316 104.028 71.9809 104.989 71.1739 105.728C69.6001 107.073 67.7923 107.885 65.8119 108.448C65.6964 108.483 65.6964 108.483 65.5786 108.518C62.1104 109.527 58.0904 108.932 54.9369 107.259C53.5754 106.504 51.5359 105.097 51.0389 103.552C50.9446 102.772 50.9969 102.226 51.4767 101.594C51.9295 101.177 52.2733 101.034 52.8856 101.023Z" fill="black"/>
<path d="M106.871 101.014C106.972 101.009 107.074 101.005 107.179 101C107.873 101.115 108.287 101.686 108.721 102.263C110.258 104.225 112.612 105.271 114.898 105.495C117.587 105.654 120.427 105.121 122.504 103.035C122.85 102.661 123.173 102.275 123.483 101.862C123.812 101.428 124.068 101.104 124.588 101.014C125.213 100.975 125.721 101.106 126.218 101.546C126.619 102.039 126.844 102.48 126.946 103.143C126.843 104.429 125.986 105.495 125.159 106.295C121.968 109.251 117.977 110.361 113.901 109.899C113.278 109.797 112.673 109.638 112.068 109.444C111.959 109.411 111.959 109.411 111.848 109.376C109.341 108.584 106.748 106.863 105.278 104.377C105.003 103.819 104.867 103.291 104.993 102.657C105.364 101.712 105.933 101.042 106.871 101.014Z" fill="black"/>
<path d="M129.47 63.0298C129.606 63.0285 129.606 63.0285 129.744 63.0272C129.843 63.027 129.942 63.0269 130.044 63.0267C130.15 63.026 130.256 63.0252 130.361 63.0244C130.648 63.0225 130.934 63.0215 131.221 63.0208C131.4 63.0204 131.58 63.0198 131.759 63.0191C132.32 63.017 132.881 63.0156 133.443 63.015C134.09 63.0143 134.737 63.0117 135.384 63.0074C135.885 63.0041 136.385 63.0026 136.886 63.0024C137.185 63.0022 137.483 63.0014 137.782 62.9987C138.064 62.9962 138.345 62.9959 138.626 62.9972C138.778 62.9974 138.93 62.9953 139.081 62.9932C139.6 62.9979 139.933 63.0363 140.328 63.3868C140.927 64.003 141.001 64.5275 141.005 65.3607C141.006 65.453 141.007 65.5453 141.008 65.6404C141.01 65.8353 141.011 66.0301 141.011 66.225C141.012 66.5213 141.017 66.8174 141.022 67.1137C141.023 67.3036 141.024 67.4936 141.024 67.6835C141.026 67.7712 141.028 67.8589 141.03 67.9493C141.025 68.6011 140.837 68.9966 140.439 69.5077C140.387 69.576 140.387 69.576 140.333 69.6457C140.24 69.7603 140.143 69.8711 140.045 69.9816C139.973 70.0643 139.902 70.1471 139.83 70.2301C139.794 70.2718 139.758 70.3135 139.721 70.3564C139.508 70.609 139.306 70.8709 139.103 71.1319C138.889 71.406 138.673 71.678 138.455 71.9484C137.799 72.7616 137.174 73.5964 136.563 74.4442C136.532 74.4872 136.501 74.5301 136.469 74.5744C136.322 74.7812 136.195 74.9852 136.085 75.2137C136.152 75.2115 136.218 75.2092 136.287 75.2069C136.885 75.1868 137.482 75.1683 138.08 75.1522C138.405 75.1434 138.729 75.1326 139.054 75.1205C139.191 75.117 139.327 75.1137 139.463 75.1105C139.523 75.1077 139.583 75.1048 139.645 75.1019C140.109 75.0951 140.437 75.2493 140.815 75.5141C141.136 75.8434 141.283 76.176 141.286 76.6357C141.287 76.7073 141.287 76.779 141.288 76.8529C141.288 76.9679 141.288 76.9679 141.288 77.0852C141.288 77.1649 141.289 77.2446 141.289 77.3267C141.289 77.4951 141.289 77.6635 141.289 77.832C141.289 78.0885 141.291 78.345 141.292 78.6016C141.293 78.7655 141.293 78.9295 141.293 79.0935C141.293 79.1697 141.294 79.2459 141.295 79.3244C141.291 79.8305 141.251 80.2914 140.914 80.6963C140.87 80.7298 140.827 80.7633 140.782 80.7978C140.739 80.8324 140.695 80.8671 140.651 80.9028C140.347 81.1079 140.136 81.1639 139.766 81.1651C139.628 81.1661 139.628 81.1661 139.488 81.167C139.386 81.167 139.285 81.1669 139.183 81.1668C139.076 81.1673 138.969 81.1678 138.862 81.1684C138.571 81.1697 138.281 81.17 137.99 81.1701C137.808 81.1702 137.627 81.1706 137.445 81.171C136.81 81.1723 136.176 81.173 135.541 81.1728C134.95 81.1727 134.36 81.1743 133.769 81.1767C133.261 81.1787 132.754 81.1795 132.246 81.1794C131.943 81.1793 131.64 81.1798 131.337 81.1814C131.052 81.1828 130.767 81.1828 130.481 81.1817C130.377 81.1816 130.273 81.1819 130.168 81.1828C129.514 81.1882 128.992 81.1754 128.5 80.6972C128.45 80.6239 128.45 80.6239 128.399 80.5491C128.364 80.5004 128.329 80.4517 128.294 80.4016C128.12 80.1049 128.033 79.8466 128.027 79.5026C128.025 79.3966 128.025 79.3966 128.023 79.2883C128.022 79.2126 128.021 79.1369 128.021 79.0589C128.02 78.9404 128.02 78.9404 128.018 78.8196C128.017 78.6524 128.016 78.4852 128.015 78.318C128.014 78.0647 128.009 77.8116 128.004 77.5584C127.988 75.9866 127.988 75.9866 128.502 75.2888C128.545 75.2263 128.588 75.1638 128.632 75.0994C128.768 74.9091 128.91 74.7258 129.056 74.5427C129.162 74.4055 129.269 74.2682 129.375 74.131C129.43 74.0617 129.484 73.9925 129.54 73.9211C129.802 73.5859 130.06 73.248 130.318 72.9097C130.368 72.8445 130.418 72.7793 130.469 72.7121C130.831 72.2363 131.182 71.753 131.529 71.2662C131.84 70.8332 132.167 70.4154 132.504 70.0027C132.699 69.768 132.699 69.768 132.856 69.5077C132.815 69.5076 132.773 69.5075 132.73 69.5074C132.294 69.5059 131.858 69.5018 131.422 69.4963C131.26 69.4945 131.097 69.4934 130.935 69.493C130.7 69.4923 130.466 69.4892 130.232 69.4857C130.16 69.486 130.088 69.4863 130.014 69.4866C129.44 69.4744 128.915 69.3296 128.506 68.9057C128.055 68.3479 128.028 67.8043 128.026 67.1102C128.026 67.0237 128.025 66.9373 128.025 66.8482C128.024 66.6658 128.023 66.4833 128.024 66.3009C128.023 66.0224 128.02 65.744 128.018 65.4656C128.017 65.288 128.017 65.1104 128.017 64.9329C128.016 64.8499 128.015 64.767 128.013 64.6816C128.016 64.1952 128.061 63.8964 128.352 63.5014C128.71 63.1695 128.981 63.0326 129.47 63.0298Z" fill="black"/>
<path d="M138.938 65.1529C139.124 67.8839 139.124 67.8839 138.511 68.5878C138.378 68.7299 138.243 68.8652 138.101 68.9975C137.861 69.2298 137.662 69.4945 137.455 69.7563C137.374 69.8562 137.292 69.956 137.21 70.0557C136.898 70.4396 136.604 70.8364 136.31 71.2344C135.682 72.0772 135.051 72.9186 134.396 73.741C133.365 74.9416 133.365 74.9416 133.007 76.4149C133.093 76.7517 133.248 76.8963 133.532 77.0906C133.796 77.1785 134.008 77.1777 134.286 77.1811C134.34 77.1818 134.393 77.1826 134.448 77.1833C134.625 77.1857 134.802 77.1875 134.978 77.1894C135.101 77.1909 135.223 77.1925 135.346 77.1941C135.669 77.1983 135.991 77.202 136.314 77.2056C136.643 77.2094 136.972 77.2136 137.301 77.2177C137.947 77.2258 138.592 77.2334 139.238 77.2407C139.238 77.8354 139.238 78.43 139.238 79.0426C136.191 79.0426 133.143 79.0426 130.003 79.0426C130.003 76.3042 130.003 76.3042 130.765 75.501C130.814 75.4532 130.863 75.4055 130.914 75.3563C131.135 75.1324 131.313 74.8817 131.496 74.627C131.569 74.5283 131.642 74.4298 131.716 74.3314C131.754 74.2804 131.792 74.2294 131.832 74.1768C132.068 73.8625 132.308 73.5505 132.547 73.2381C132.981 72.6703 133.408 72.0984 133.831 71.5222C134.115 71.1348 134.402 70.7499 134.691 70.3663C135.52 69.4103 135.52 69.4103 135.86 68.2687C135.805 67.9082 135.671 67.7299 135.409 67.4804C135.157 67.3964 134.962 67.3934 134.697 67.3899C134.647 67.3892 134.598 67.3884 134.548 67.3877C134.386 67.3853 134.224 67.3834 134.062 67.3816C133.949 67.38 133.837 67.3785 133.724 67.3768C133.428 67.3727 133.132 67.369 132.837 67.3654C132.535 67.3616 132.233 67.3574 131.931 67.3533C131.338 67.3452 130.746 67.3376 130.154 67.3302C130.154 66.6365 130.154 65.9428 130.154 65.228C130.843 65.215 131.533 65.2024 132.223 65.1905C132.275 65.1896 132.326 65.1887 132.38 65.1878C134.566 65.1504 136.751 65.1441 138.938 65.1529Z" fill="#AADCE7"/>
<path d="M145.531 57.1943C145.71 57.1926 145.71 57.1926 145.893 57.1909C146.024 57.1907 146.154 57.1905 146.289 57.1902C146.428 57.1893 146.568 57.1883 146.707 57.1872C147.085 57.1846 147.463 57.1834 147.842 57.1825C148.078 57.1819 148.315 57.1811 148.551 57.1802C149.292 57.1775 150.032 57.1756 150.773 57.1748C151.626 57.1739 152.48 57.1705 153.334 57.1647C153.994 57.1604 154.655 57.1584 155.316 57.1582C155.71 57.158 156.104 57.1568 156.498 57.1532C156.869 57.15 157.24 57.1496 157.611 57.1513C157.812 57.1515 158.012 57.1488 158.212 57.146C158.897 57.1523 159.336 57.2029 159.857 57.6654C160.647 58.4783 160.745 59.1704 160.751 60.2697C160.752 60.3915 160.753 60.5133 160.755 60.6387C160.757 60.8958 160.758 61.1529 160.758 61.41C160.759 61.801 160.766 62.1916 160.773 62.5825C160.774 62.8331 160.775 63.0837 160.776 63.3343C160.778 63.4501 160.781 63.5658 160.784 63.685C160.777 64.545 160.528 65.0668 160.004 65.7411C159.935 65.8313 159.935 65.8313 159.864 65.9232C159.741 66.0744 159.613 66.2206 159.484 66.3665C159.389 66.4755 159.295 66.5848 159.2 66.6942C159.153 66.7492 159.105 66.8042 159.057 66.8609C158.775 67.1941 158.508 67.5397 158.24 67.884C157.959 68.2457 157.674 68.6046 157.386 68.9614C156.521 70.0342 155.695 71.1357 154.89 72.2542C154.849 72.3109 154.808 72.3676 154.766 72.4261C154.571 72.6989 154.404 72.968 154.259 73.2696C154.347 73.2666 154.435 73.2636 154.526 73.2605C155.314 73.234 156.102 73.2097 156.891 73.1884C157.32 73.1768 157.748 73.1625 158.177 73.1465C158.356 73.1419 158.536 73.1375 158.716 73.1334C158.795 73.1296 158.874 73.1258 158.956 73.1219C159.568 73.113 160.001 73.3165 160.499 73.6658C160.923 74.1003 161.118 74.5391 161.121 75.1456C161.122 75.2402 161.123 75.3348 161.124 75.4322C161.124 75.5839 161.124 75.5839 161.124 75.7387C161.124 75.8438 161.124 75.949 161.125 76.0573C161.125 76.2796 161.125 76.5018 161.125 76.724C161.125 77.0625 161.127 77.4009 161.129 77.7394C161.13 77.9557 161.13 78.1721 161.13 78.3885C161.131 78.489 161.132 78.5895 161.132 78.6931C161.128 79.3608 161.074 79.9689 160.63 80.5031C160.572 80.5473 160.515 80.5915 160.456 80.637C160.399 80.6827 160.342 80.7284 160.283 80.7755C159.882 81.0462 159.604 81.1201 159.116 81.1217C158.934 81.1229 158.934 81.1229 158.749 81.1242C158.615 81.1241 158.481 81.1241 158.347 81.1239C158.206 81.1245 158.064 81.1252 157.923 81.126C157.54 81.1277 157.156 81.1282 156.772 81.1283C156.533 81.1284 156.293 81.1289 156.053 81.1294C155.216 81.1312 154.379 81.132 153.541 81.1319C152.762 81.1318 151.983 81.1338 151.203 81.137C150.533 81.1396 149.864 81.1406 149.194 81.1405C148.794 81.1405 148.394 81.141 147.994 81.1431C147.618 81.145 147.242 81.145 146.866 81.1436C146.728 81.1434 146.59 81.1439 146.453 81.1451C145.589 81.1521 144.901 81.1352 144.251 80.5043C144.185 80.4076 144.185 80.4076 144.118 80.3089C144.072 80.2447 144.026 80.1804 143.979 80.1143C143.75 79.7229 143.635 79.3821 143.628 78.9282C143.625 78.7883 143.625 78.7883 143.622 78.6455C143.621 78.5456 143.62 78.4457 143.619 78.3428C143.618 78.1865 143.618 78.1865 143.616 78.027C143.614 77.8065 143.613 77.5859 143.612 77.3653C143.61 77.0311 143.604 76.6972 143.598 76.363C143.577 74.2892 143.577 74.2892 144.254 73.3686C144.311 73.2861 144.367 73.2037 144.426 73.1187C144.605 72.8676 144.793 72.6258 144.984 72.3842C145.125 72.2032 145.266 72.0221 145.407 71.841C145.478 71.7496 145.55 71.6582 145.623 71.5641C145.969 71.1219 146.31 70.676 146.65 70.2297C146.716 70.1436 146.781 70.0576 146.849 69.9689C147.327 69.3411 147.79 68.7035 148.248 68.0612C148.658 67.49 149.09 66.9388 149.534 66.3942C149.792 66.0845 149.792 66.0845 149.999 65.7411C149.944 65.741 149.889 65.7409 149.833 65.7407C149.257 65.7388 148.682 65.7334 148.107 65.726C147.893 65.7237 147.678 65.7223 147.464 65.7218C147.155 65.7208 146.845 65.7168 146.536 65.7121C146.441 65.7125 146.347 65.7129 146.249 65.7133C145.492 65.6971 144.799 65.5061 144.259 64.9468C143.664 64.2109 143.628 63.4938 143.626 62.5779C143.626 62.4638 143.625 62.3498 143.624 62.2323C143.623 61.9916 143.623 61.7509 143.623 61.5102C143.622 61.1427 143.619 60.7755 143.615 60.4081C143.614 60.1738 143.614 59.9395 143.614 59.7052C143.612 59.5958 143.611 59.4864 143.609 59.3737C143.613 58.732 143.672 58.3376 144.056 57.8165C144.529 57.3786 144.886 57.198 145.531 57.1943Z" fill="black"/>
<path d="M158.023 59.9959C158.268 63.5991 158.268 63.5991 157.459 64.5278C157.285 64.7153 157.106 64.8937 156.919 65.0683C156.602 65.3748 156.339 65.724 156.066 66.0694C155.959 66.2012 155.851 66.3329 155.743 66.4644C155.332 66.971 154.944 67.4945 154.556 68.0196C153.727 69.1316 152.895 70.2417 152.031 71.3268C150.67 72.9108 150.67 72.9108 150.197 74.8546C150.311 75.2991 150.515 75.4898 150.891 75.7461C151.239 75.8621 151.518 75.8611 151.885 75.8655C151.956 75.8665 152.027 75.8675 152.099 75.8685C152.332 75.8716 152.566 75.8741 152.799 75.8765C152.96 75.8786 153.122 75.8806 153.284 75.8828C153.709 75.8882 154.135 75.8931 154.56 75.8979C154.995 75.9029 155.429 75.9084 155.863 75.9139C156.715 75.9245 157.567 75.9345 158.419 75.9442C158.419 76.7288 158.419 77.5133 158.419 78.3216C154.398 78.3216 150.378 78.3216 146.235 78.3216C146.235 74.7086 146.235 74.7086 147.24 73.6489C147.305 73.5859 147.37 73.5228 147.436 73.4579C147.727 73.1625 147.962 72.8317 148.204 72.4958C148.3 72.3655 148.397 72.2355 148.495 72.1057C148.545 72.0384 148.595 71.9711 148.647 71.9018C148.959 71.4871 149.275 71.0754 149.591 70.6632C150.163 69.9141 150.727 69.1596 151.285 68.3993C151.659 67.8881 152.038 67.3803 152.42 66.8742C153.513 65.6129 153.513 65.6129 153.961 64.1068C153.889 63.6311 153.713 63.3958 153.367 63.0667C153.035 62.9558 152.777 62.9519 152.427 62.9473C152.362 62.9463 152.297 62.9453 152.231 62.9443C152.017 62.9412 151.803 62.9387 151.589 62.9363C151.441 62.9342 151.292 62.9322 151.144 62.93C150.754 62.9246 150.363 62.9197 149.973 62.9149C149.575 62.9099 149.176 62.9044 148.778 62.8989C147.996 62.8883 147.215 62.8783 146.433 62.8686C146.433 61.9533 146.433 61.038 146.433 60.0949C147.343 60.0778 148.253 60.0611 149.163 60.0454C149.232 60.0442 149.3 60.043 149.37 60.0418C152.255 59.9925 155.138 59.9843 158.023 59.9959Z" fill="#AADCE7"/>
<path d="M166.317 50.0644C166.556 50.0622 166.556 50.0622 166.799 50.0599C166.974 50.0596 167.148 50.0593 167.328 50.059C167.513 50.0577 167.699 50.0564 167.885 50.055C168.389 50.0515 168.893 50.0498 169.398 50.0487C169.713 50.0479 170.028 50.0468 170.344 50.0456C171.331 50.042 172.318 50.0394 173.306 50.0384C174.444 50.0372 175.582 50.0326 176.721 50.025C177.601 50.0192 178.482 50.0166 179.363 50.0162C179.889 50.016 180.414 50.0144 180.94 50.0097C181.435 50.0053 181.929 50.0048 182.424 50.0071C182.691 50.0074 182.958 50.0038 183.225 50C184.137 50.0084 184.723 50.0758 185.419 50.6925C186.471 51.7764 186.602 52.6992 186.61 54.165C186.612 54.3273 186.613 54.4897 186.615 54.6569C186.617 54.9997 186.619 55.3425 186.619 55.6854C186.621 56.2066 186.63 56.7275 186.639 57.2487C186.641 57.5828 186.642 57.917 186.643 58.2511C186.647 58.4054 186.65 58.5597 186.654 58.7186C186.644 59.8653 186.313 60.5611 185.614 61.4602C185.521 61.5803 185.521 61.5803 185.427 61.7029C185.264 61.9046 185.092 62.0995 184.921 62.2939C184.794 62.4394 184.668 62.585 184.543 62.7309C184.479 62.8043 184.416 62.8777 184.351 62.9532C183.975 63.3975 183.62 63.8582 183.262 64.3174C182.887 64.7997 182.507 65.2781 182.123 65.7539C180.97 67.1843 179.869 68.6529 178.796 70.1443C178.741 70.2199 178.686 70.2955 178.63 70.3734C178.37 70.7372 178.148 71.096 177.954 71.4981C178.071 71.4941 178.189 71.4901 178.31 71.486C179.361 71.4507 180.412 71.4182 181.463 71.3899C182.035 71.3744 182.606 71.3553 183.177 71.334C183.417 71.3279 183.657 71.3221 183.897 71.3165C184.002 71.3115 184.108 71.3064 184.216 71.3013C185.032 71.2893 185.61 71.5607 186.275 72.0264C186.84 72.6058 187.099 73.1909 187.103 73.9995C187.105 74.1256 187.106 74.2517 187.107 74.3816C187.107 74.5839 187.107 74.5839 187.107 74.7902C187.107 74.9304 187.108 75.0707 187.109 75.2151C187.109 75.5114 187.109 75.8077 187.109 76.104C187.108 76.5553 187.111 77.0065 187.115 77.4578C187.115 77.7463 187.115 78.0348 187.115 78.3233C187.116 78.4573 187.117 78.5914 187.119 78.7295C187.113 79.6198 187.041 80.4306 186.448 81.1429C186.372 81.2018 186.296 81.2607 186.217 81.3214C186.141 81.3823 186.065 81.4433 185.986 81.5061C185.452 81.8669 185.081 81.9655 184.429 81.9675C184.187 81.9692 184.187 81.9692 183.94 81.971C183.762 81.9709 183.583 81.9707 183.405 81.9706C183.216 81.9714 183.028 81.9723 182.84 81.9733C182.328 81.9756 181.817 81.9762 181.305 81.9764C180.986 81.9766 180.666 81.9772 180.346 81.9779C179.23 81.9803 178.114 81.9814 176.997 81.9812C175.958 81.981 174.919 81.9838 173.88 81.988C172.987 81.9914 172.094 81.9928 171.2 81.9927C170.667 81.9926 170.134 81.9934 169.601 81.9962C169.1 81.9987 168.598 81.9987 168.096 81.9968C167.913 81.9965 167.729 81.9972 167.546 81.9988C166.395 82.0081 165.477 81.9856 164.611 81.1444C164.522 81.0154 164.522 81.0154 164.432 80.8839C164.371 80.7982 164.31 80.7126 164.248 80.6243C163.942 80.1025 163.789 79.6482 163.779 79.043C163.775 78.8564 163.775 78.8564 163.771 78.666C163.77 78.5328 163.769 78.3996 163.768 78.2624C163.766 78.054 163.766 78.054 163.763 77.8414C163.761 77.5473 163.759 77.2532 163.758 76.9591C163.755 76.5135 163.747 76.0682 163.739 75.6227C163.711 72.8576 163.711 72.8576 164.614 71.6302C164.69 71.5202 164.765 71.4102 164.843 71.2969C165.082 70.9622 165.332 70.6398 165.588 70.3177C165.776 70.0762 165.963 69.8348 166.151 69.5933C166.246 69.4715 166.342 69.3497 166.44 69.2241C166.901 68.6345 167.355 68.04 167.809 67.445C167.896 67.3302 167.984 67.2154 168.074 67.0972C168.712 66.2602 169.329 65.4101 169.94 64.5536C170.486 63.792 171.062 63.0571 171.655 62.3309C171.998 61.918 171.998 61.918 172.274 61.4602C172.201 61.46 172.128 61.4598 172.053 61.4596C171.285 61.457 170.518 61.4498 169.751 61.44C169.466 61.437 169.18 61.4351 168.894 61.4344C168.482 61.4331 168.069 61.4277 167.657 61.4215C167.531 61.422 167.405 61.4225 167.275 61.4231C166.265 61.4015 165.341 61.1468 164.621 60.4011C163.827 59.4199 163.78 58.4637 163.777 57.2425C163.776 57.0904 163.775 56.9384 163.774 56.7817C163.773 56.4608 163.772 56.1398 163.772 55.8189C163.772 55.329 163.767 54.8393 163.762 54.3494C163.761 54.037 163.761 53.7246 163.761 53.4122C163.759 53.2664 163.757 53.1205 163.755 52.9702C163.76 52.1146 163.838 51.5889 164.35 50.894C164.981 50.3101 165.457 50.0693 166.317 50.0644Z" fill="black"/>
<path d="M182.973 53.7997C183.299 58.604 183.299 58.604 182.221 59.8422C181.989 60.0922 181.75 60.3301 181.5 60.5629C181.078 60.9716 180.727 61.4371 180.364 61.8977C180.221 62.0735 180.077 62.2491 179.933 62.4244C179.384 63.0999 178.867 63.7978 178.35 64.498C177.245 65.9806 176.136 67.4608 174.983 68.9076C173.169 71.0195 173.169 71.0195 172.538 73.6113C172.69 74.204 172.963 74.4583 173.463 74.8C173.927 74.9546 174.3 74.9533 174.789 74.9592C174.883 74.9605 174.978 74.9618 175.074 74.9632C175.385 74.9673 175.696 74.9706 176.007 74.9739C176.223 74.9766 176.438 74.9794 176.654 74.9822C177.221 74.9895 177.789 74.996 178.356 75.0024C178.935 75.009 179.514 75.0164 180.093 75.0237C181.229 75.0379 182.365 75.0512 183.501 75.0642C183.501 76.1102 183.501 77.1563 183.501 78.234C178.14 78.234 172.779 78.234 167.255 78.234C167.255 73.4166 167.255 73.4166 168.596 72.0037C168.682 71.9196 168.768 71.8356 168.857 71.7491C169.245 71.3552 169.558 70.9142 169.88 70.4662C170.009 70.2926 170.139 70.1192 170.268 69.9461C170.335 69.8564 170.403 69.7667 170.472 69.6743C170.888 69.1213 171.309 68.5724 171.729 68.0228C172.493 67.0239 173.245 66.0179 173.988 65.0042C174.488 64.3227 174.993 63.6456 175.502 62.9708C176.959 61.2891 176.959 61.2891 177.557 59.2809C177.461 58.6466 177.226 58.333 176.765 57.8941C176.322 57.7463 175.979 57.741 175.511 57.7349C175.425 57.7336 175.339 57.7323 175.25 57.7309C174.965 57.7267 174.679 57.7235 174.394 57.7202C174.196 57.7175 173.999 57.7147 173.801 57.7119C173.28 57.7046 172.76 57.6981 172.239 57.6917C171.708 57.6851 171.177 57.6777 170.646 57.6704C169.604 57.6562 168.562 57.6429 167.52 57.6299C167.52 56.4095 167.52 55.1891 167.52 53.9317C168.733 53.9089 169.946 53.8866 171.16 53.8657C171.251 53.8641 171.342 53.8626 171.436 53.861C175.282 53.7952 179.126 53.7842 182.973 53.7997Z" fill="#AADCE7"/>
<ellipse cx="51" cy="120.5" rx="13" ry="11.5" fill="#F4A99C"/>
<ellipse cx="127" cy="120.5" rx="13" ry="11.5" fill="#F4A99C"/>
<path d="M93.408 0.778863C94.2655 1.43604 94.7661 2.41142 94.9146 3.47759C95.0011 4.63569 94.628 5.69932 93.8925 6.58911C93.5728 6.9278 93.1995 7.19897 92.7857 7.41291C92.7218 7.41291 92.6579 7.41291 92.5921 7.41291C92.924 7.93804 93.2651 8.45617 93.6138 8.97031C93.6531 9.02832 93.6924 9.08634 93.7329 9.14611C93.896 9.38652 94.0592 9.62686 94.2227 9.86698C94.7296 10.6119 95.2192 11.3628 95.683 12.1352C95.8259 12.3715 95.9753 12.6036 96.1242 12.8361C97.5841 15.1346 98.9352 17.5137 100.261 19.891C100.497 20.3139 100.737 20.7346 100.979 21.1543C101.189 21.0628 101.322 20.9527 101.479 20.7874C101.731 20.529 101.995 20.2918 102.269 20.0576C102.417 19.9313 102.565 19.8049 102.713 19.6785C102.752 19.645 102.791 19.6115 102.832 19.577C103.06 19.3815 103.285 19.1833 103.507 18.981C103.803 18.7127 104.11 18.4601 104.42 18.2089C104.586 18.0741 104.751 17.9381 104.915 17.8021C105.151 17.6074 105.388 17.4132 105.624 17.219C105.668 17.183 105.711 17.147 105.756 17.1099C106.277 16.6818 106.804 16.2642 107.342 15.8571C107.71 15.5767 108.071 15.2871 108.428 14.9925C108.713 14.7584 109.005 14.5349 109.301 14.3159C109.264 14.2704 109.264 14.2704 109.225 14.224C108.444 13.2639 108.086 12.0587 108.204 10.8321C108.382 9.79331 108.993 8.88786 109.809 8.23143C110.709 7.59711 111.716 7.50301 112.785 7.60646C113.809 7.80515 114.827 8.50185 115.418 9.35235C115.965 10.2907 116.137 11.4037 115.889 12.4676C115.609 13.4555 114.96 14.3161 114.075 14.832C113.692 15.0191 113.336 15.1531 112.914 15.219C112.916 15.2712 112.917 15.3233 112.919 15.3769C112.933 16.2704 112.855 17.1573 112.784 18.0472C112.773 18.184 112.762 18.3207 112.751 18.4575C112.625 20.0483 112.474 21.6357 112.303 23.2223C112.265 23.5711 112.23 23.9201 112.194 24.2692C112.133 24.8673 112.07 25.4653 112.005 26.0631C111.979 26.3098 111.952 26.5565 111.926 26.8032C111.919 26.8663 111.912 26.9293 111.906 26.9942C111.783 28.137 111.668 29.2804 111.555 30.4241C111.449 31.4972 111.341 32.57 111.22 33.6417C111.213 33.7113 111.213 33.7113 111.205 33.7824C111.165 34.1351 111.125 34.4878 111.084 34.8405C111.046 35.1812 111.01 35.5219 110.978 35.8634C110.971 35.9279 110.965 35.9924 110.957 36.0589C110.932 36.4452 111.038 36.6392 111.267 36.9467C111.795 37.7074 111.635 38.8551 111.637 39.7339C111.637 39.7985 111.637 39.8631 111.637 39.9296C111.638 40.271 111.639 40.6124 111.639 40.9538C111.639 41.3044 111.641 41.6549 111.643 42.0055C111.644 42.2771 111.644 42.5487 111.644 42.8203C111.645 42.9495 111.645 43.0787 111.646 43.2078C111.656 44.9101 111.656 44.9101 111.253 45.3952C107.826 48.3361 100.401 48.0811 96.1336 48.2545C96.0303 48.2587 96.0303 48.2587 95.925 48.263C94.4558 48.3214 92.9877 48.3344 91.5174 48.3313C91.173 48.3305 90.8286 48.331 90.4842 48.3317C76.7923 48.3566 76.7923 48.3566 70.8423 45.4703C70.1781 44.7881 70.3157 43.638 70.3178 42.7567C70.3178 42.6313 70.3176 42.5058 70.3175 42.3803C70.3173 42.1184 70.3176 41.8566 70.3182 41.5947C70.3189 41.2614 70.3185 40.9281 70.3177 40.5948C70.3172 40.336 70.3174 40.0772 70.3177 39.8184C70.3178 39.6956 70.3177 39.5728 70.3174 39.45C70.3133 37.3108 70.3133 37.3108 70.8885 36.6493C71.002 36.4748 70.9979 36.3909 70.9821 36.1852C70.9774 36.1181 70.9726 36.051 70.9677 35.9819C70.9579 35.8693 70.9579 35.8693 70.9479 35.7545C70.9383 35.6321 70.9383 35.6321 70.9285 35.5072C70.8561 34.6053 70.7587 33.7053 70.6644 32.8055C70.5798 31.9955 70.5002 31.1852 70.426 30.3742C70.4217 30.3272 70.4174 30.2803 70.4129 30.232C70.3702 29.7655 70.3279 29.299 70.2861 28.8325C70.2742 28.7002 70.2622 28.568 70.2502 28.4358C70.2356 28.2743 70.2211 28.1128 70.2068 27.9513C70.1645 27.4856 70.1078 27.0234 70.0443 26.56C69.9909 26.1505 69.9516 25.7396 69.9124 25.3285C69.9033 25.2347 69.8942 25.1408 69.8852 25.047C69.861 24.7961 69.8372 24.5451 69.8135 24.2942C69.7986 24.1368 69.7837 23.9795 69.7687 23.8221C69.5681 21.7033 69.4045 19.5825 69.2553 17.4595C69.2374 17.2076 69.2192 16.9557 69.2009 16.7038C69.1948 16.6206 69.1888 16.5374 69.1826 16.4517C69.1711 16.2934 69.1595 16.1352 69.1479 15.9769C69.1428 15.9065 69.1377 15.836 69.1325 15.7635C69.128 15.7017 69.1235 15.64 69.1188 15.5763C69.1106 15.4359 69.1092 15.2952 69.1092 15.1545C69.0294 15.1519 68.9496 15.1492 68.8673 15.1465C68.067 15.0559 67.3297 14.4825 66.8271 13.8786C66.39 13.2808 66.0464 12.5475 66.0126 11.7998C66.0076 11.7217 66.0076 11.7217 66.0025 11.6421C65.9626 10.5004 66.4033 9.47052 67.1738 8.63867C67.8197 7.94637 68.7351 7.60266 69.6631 7.52178C70.7315 7.48594 71.6833 7.78477 72.5042 8.47739C73.2794 9.21709 73.7666 10.2049 73.8348 11.2797C73.8193 12.3053 73.4584 13.3623 72.7406 14.108C72.7132 14.134 72.6857 14.16 72.6575 14.1868C72.7283 14.3993 72.766 14.4314 72.9387 14.5601C72.9837 14.594 73.0286 14.6279 73.075 14.6628C73.1235 14.6987 73.172 14.7345 73.222 14.7715C73.3228 14.8472 73.4236 14.923 73.5244 14.9988C73.5744 15.0362 73.6245 15.0736 73.6761 15.1121C73.8701 15.2576 74.0623 15.4054 74.2542 15.5537C74.4555 15.7089 74.657 15.8639 74.8592 16.0179C75.385 16.4187 75.899 16.8329 76.4106 17.2517C76.5142 17.3365 76.6181 17.421 76.7221 17.5055C77.3527 18.0186 77.9745 18.5406 78.5763 19.0873C78.7068 19.2054 78.8387 19.3214 78.9717 19.4366C79.253 19.6818 79.5278 19.9341 79.8021 20.1871C79.9499 20.3234 80.0988 20.4586 80.2481 20.5933C80.3253 20.6634 80.4025 20.7334 80.4797 20.8035C80.5167 20.8366 80.5537 20.8696 80.5918 20.9037C80.6805 20.9846 80.766 21.0692 80.8507 21.1543C80.8507 21.1969 80.8507 21.2394 80.8507 21.2833C81.0253 21.1275 81.1226 20.9625 81.2312 20.7561C81.267 20.6887 81.3028 20.6213 81.3397 20.5518C81.3779 20.4792 81.4161 20.4066 81.4555 20.3317C81.5371 20.1784 81.6188 20.025 81.7007 19.8718C81.7317 19.8137 81.7317 19.8137 81.7634 19.7543C82.0597 19.2006 82.3719 18.6559 82.6829 18.1104C82.7863 17.9283 82.8887 17.7457 82.991 17.563C83.4315 16.7762 83.8876 16.0002 84.3538 15.2284C84.5446 14.9124 84.7326 14.5948 84.9193 14.2764C85.3018 13.6244 85.6969 12.9821 86.1043 12.3453C86.2104 12.1789 86.3155 12.012 86.4205 11.8449C87.2002 10.6069 88.0314 9.40588 88.873 8.20938C89.0594 7.94417 89.2452 7.67853 89.431 7.41291C89.3809 7.40373 89.3308 7.39454 89.2792 7.38507C88.6884 7.25824 88.1443 6.76152 87.8104 6.27561C87.1922 5.30764 86.9365 4.23475 87.1503 3.09152C87.3964 2.07785 87.9195 1.14892 88.8269 0.594143C90.3135 -0.22656 91.9912 -0.226422 93.408 0.778863Z" fill="black"/>
<path d="M90.9793 8.38086C91.225 8.6052 91.3996 8.86068 91.5841 9.13486C91.6369 9.21272 91.6369 9.21272 91.6907 9.29214C91.8195 9.48272 91.9478 9.67369 92.076 9.86467C92.1308 9.94602 92.1856 10.0274 92.2404 10.1087C92.9591 11.1761 93.6703 12.2457 94.334 13.3484C94.3699 13.4077 94.4057 13.4671 94.4427 13.5282C95.0682 14.5634 95.6846 15.6041 96.3014 16.6445C96.4676 16.9249 96.6342 17.2052 96.8009 17.4853C97.5758 18.7884 98.3434 20.0943 99.0612 21.4298C99.3005 21.8744 99.5443 22.3161 99.7934 22.7553C99.8255 22.8123 99.8576 22.8693 99.8906 22.9281C99.9206 22.9806 99.9506 23.0331 99.9814 23.0872C100.021 23.156 100.021 23.156 100.06 23.2262C100.142 23.3504 100.22 23.4456 100.334 23.5415C100.507 23.5796 100.507 23.5796 100.701 23.5778C100.765 23.5806 100.829 23.5833 100.895 23.5861C101.522 23.4547 101.983 22.805 102.412 22.3641C102.787 21.9786 103.17 21.6198 103.591 21.2841C103.809 21.1099 104.019 20.9272 104.229 20.7433C104.635 20.3893 105.045 20.0399 105.457 19.6928C105.56 19.6054 105.663 19.5174 105.766 19.4293C106.154 19.0978 106.547 18.7756 106.95 18.4622C107.244 18.2333 107.533 17.9992 107.821 17.7635C110.784 15.3483 110.784 15.3483 111.107 15.3483C111.134 16.2715 111.054 17.1832 110.974 18.1022C110.964 18.229 110.953 18.3557 110.942 18.4825C110.77 20.5147 110.56 22.5432 110.347 24.5715C110.334 24.7003 110.32 24.8291 110.307 24.9578C110.233 25.6643 110.158 26.3707 110.084 27.0771C109.982 28.0341 109.883 28.9912 109.785 29.9485C109.779 30.011 109.772 30.0734 109.766 30.1377C109.687 30.905 109.611 31.6724 109.535 32.44C109.509 32.7058 109.483 32.9717 109.457 33.2375C109.427 33.5364 109.398 33.8353 109.369 34.1342C109.354 34.2918 109.338 34.4495 109.323 34.6071C109.316 34.6781 109.309 34.749 109.302 34.8221C109.258 35.2602 109.193 35.6898 109.108 36.1217C106.064 36.8403 102.951 37.2088 99.8388 37.464C99.7053 37.4751 99.5719 37.4864 99.4385 37.4978C98.9464 37.5395 98.4543 37.572 97.9611 37.5979C97.8614 37.6032 97.7617 37.6085 97.6619 37.614C95.5097 37.7319 93.3585 37.7467 91.2036 37.7466C91.0632 37.7466 90.9227 37.7466 90.7823 37.7467C89.0836 37.7474 87.3867 37.7371 85.6892 37.67C85.6167 37.6671 85.5441 37.6643 85.4694 37.6613C85.0008 37.6423 84.5325 37.6193 84.0642 37.5934C83.9928 37.5894 83.9214 37.5855 83.8479 37.5814C80.9845 37.4194 78.1247 37.1579 75.3025 36.6378C75.2186 36.6223 75.2186 36.6223 75.133 36.6066C73.1314 36.2366 73.1314 36.2366 72.7865 36.1217C72.7814 36.0663 72.7763 36.011 72.7711 35.954C72.722 35.4202 72.6727 34.8865 72.6232 34.3527C72.5978 34.0787 72.5725 33.8046 72.5473 33.5305C72.435 32.3087 72.3165 31.0882 72.1824 29.8686C72.0933 29.0587 72.0136 28.2484 71.9438 27.4365C71.8811 26.7102 71.8117 25.9855 71.7283 25.2612C71.6012 24.1471 71.5088 23.03 71.4139 21.9128C71.3948 21.6884 71.3755 21.464 71.3561 21.2396C71.2614 20.139 71.1684 19.0381 71.0782 17.9371C71.0699 17.8359 71.0616 17.7348 71.0532 17.6337C70.9904 16.8725 70.9418 16.1116 70.9156 15.3483C71.2519 15.5317 71.555 15.7368 71.8591 15.9693C71.904 16.0033 71.949 16.0374 71.9953 16.0724C72.1302 16.1748 72.2648 16.2776 72.3994 16.3805C72.4372 16.4094 72.4751 16.4382 72.5141 16.4679C73.0225 16.8557 73.5257 17.2503 74.0279 17.6461C74.1393 17.7338 74.251 17.8212 74.3628 17.9084C75.5059 18.8017 76.6153 19.7277 77.6895 20.7029C78.1344 21.1051 78.1344 21.1051 78.5846 21.5013C79.1852 22.0264 79.7589 22.5714 80.318 23.1403C80.3814 23.2044 80.3814 23.2044 80.4459 23.2699C80.5024 23.3274 80.5024 23.3274 80.56 23.3862C80.7552 23.5688 80.9331 23.56 81.1934 23.5698C81.2663 23.5737 81.3393 23.5776 81.4144 23.5816C81.6475 23.5372 81.7272 23.4741 81.8653 23.2841C82.0411 23.0064 82.2009 22.7209 82.3587 22.4327C82.3977 22.3621 82.4368 22.2915 82.4771 22.2188C82.5599 22.0692 82.6426 21.9195 82.725 21.7696C82.9284 21.4 83.1335 21.0314 83.3385 20.6626C83.3992 20.5533 83.3992 20.5533 83.4612 20.4417C84.0777 19.3322 84.7038 18.2301 85.3533 17.1395C85.6299 16.6749 85.9034 16.2085 86.176 15.7416C86.6367 14.9529 87.105 14.1694 87.5835 13.3914C87.6864 13.2238 87.7886 13.0558 87.8907 12.8877C88.8368 11.3367 89.8399 9.79786 90.9793 8.38086Z" fill="#F8E482"/>
<path d="M72.2059 37.8633C72.7539 37.9062 73.289 38.0016 73.8291 38.0999C76.1562 38.5215 78.4951 38.8736 80.8507 39.0891C80.8992 39.0935 80.9476 39.098 80.9975 39.1026C84.2244 39.3991 87.4564 39.4333 90.6942 39.4282C91.0422 39.4277 91.3902 39.4279 91.7382 39.4285C93.8521 39.4317 95.962 39.4304 98.0728 39.2986C98.4136 39.2774 98.7546 39.26 99.0956 39.2425C101.999 39.0818 104.883 38.6334 107.747 38.1468C107.789 38.1396 107.832 38.1324 107.876 38.1249C108.106 38.0856 108.336 38.0448 108.565 38.0025C108.614 37.9935 108.664 37.9846 108.714 37.9753C108.808 37.9581 108.902 37.9407 108.996 37.9229C109.251 37.8763 109.493 37.8487 109.753 37.8633C109.877 37.9873 109.825 38.1722 109.825 38.3371C109.825 38.396 109.825 38.4549 109.825 38.5155C109.825 38.5772 109.825 38.6389 109.825 38.7024C109.825 38.9073 109.824 39.1122 109.824 39.3171C109.823 39.4588 109.823 39.6004 109.823 39.7421C109.823 40.1158 109.822 40.4894 109.822 40.863C109.821 41.244 109.821 41.625 109.82 42.0059C109.82 42.754 109.819 43.5021 109.817 44.2501C109.734 44.2919 109.651 44.3336 109.569 44.3753C109.522 44.3985 109.476 44.4217 109.429 44.4456C106.034 46.1118 101.468 46.144 97.7774 46.363C97.7134 46.3668 97.6493 46.3706 97.5833 46.3746C95.5036 46.4961 93.4249 46.5214 91.3422 46.5202C91.2805 46.5202 91.2189 46.5202 91.1553 46.5202C88.9653 46.5198 86.7803 46.4869 84.5925 46.3791C84.5242 46.3758 84.4559 46.3725 84.3856 46.3691C75.4743 45.9377 75.4743 45.9377 72.1414 44.2501C72.1399 43.4365 72.1387 42.6228 72.138 41.8091C72.1377 41.4313 72.1373 41.0535 72.1365 40.6757C72.1358 40.3114 72.1354 39.947 72.1353 39.5827C72.1351 39.4434 72.1349 39.3042 72.1346 39.1649C72.1341 38.9704 72.134 38.7759 72.1341 38.5814C72.1338 38.5234 72.1336 38.4653 72.1334 38.4055C72.134 38.0071 72.134 38.0071 72.2059 37.8633Z" fill="#F8E482"/>
<path d="M92.6055 23.1636C94.0318 24.1112 94.652 25.4379 95.0316 27.0548C95.3475 28.7618 95.0267 30.6928 94.1405 32.1862C93.9793 32.4117 93.8059 32.622 93.6244 32.8313C93.584 32.8844 93.5437 32.9376 93.5022 32.9923C93.026 33.5586 92.2896 33.9858 91.5599 34.1216C90.4439 34.199 89.609 33.9354 88.7435 33.2022C87.5061 32.0412 86.9625 30.3156 86.8983 28.6551C86.8575 27.023 87.1444 25.2299 88.3 23.9894C89.4869 22.7742 91.0591 22.2599 92.6055 23.1636Z" fill="black"/>
<path d="M91.3732 24.4776C92.0506 24.7625 92.5742 25.465 92.8502 26.1217C93.332 27.386 93.523 29.0958 92.9792 30.3796C92.9616 30.4218 92.9439 30.464 92.9257 30.5075C92.5944 31.2808 92.1592 31.928 91.4309 32.3795C91.081 32.4961 90.7255 32.508 90.3906 32.3472C90.2988 32.2674 90.2988 32.2674 90.2051 32.186C90.1656 32.1536 90.126 32.1213 90.0852 32.0879C89.3895 31.4691 89.0756 30.548 88.8504 29.6699C88.8297 29.5902 88.8091 29.5104 88.7879 29.4283C88.4927 28.1369 88.6406 26.7468 89.3236 25.5884C89.8408 24.8627 90.429 24.2464 91.3732 24.4776Z" fill="#7D5232"/>
<path d="M91.947 1.99385C92.5201 2.30242 92.822 2.79564 93.017 3.40155C93.1444 4.07196 93.0707 4.66185 92.6952 5.22658C92.3605 5.66201 91.8417 5.95365 91.3019 6.05819C90.6909 6.11275 90.0826 5.91888 89.6084 5.52671C89.1305 5.04557 88.9795 4.54344 88.9512 3.88086C88.9596 3.31779 89.1453 2.89539 89.435 2.42125C90.16 1.77344 91.057 1.62969 91.947 1.99385Z" fill="#F8E482"/>
<path d="M112.971 9.5273C113.581 9.88009 113.921 10.3692 114.14 11.0257C114.189 11.5856 114.152 12.1514 113.822 12.6217C113.438 13.0687 112.958 13.4887 112.351 13.5634C111.595 13.5736 111.012 13.3567 110.462 12.8321C110.011 12.2769 110.008 11.5789 110.075 10.8967C110.196 10.3724 110.566 9.96958 110.982 9.64676C111.552 9.33151 112.358 9.27971 112.971 9.5273Z" fill="#F8E482"/>
<path d="M71.0447 9.67118C71.5174 10.0021 71.8343 10.3893 71.9479 10.9615C72.0048 11.6421 71.9227 12.2374 71.4963 12.788C71.1204 13.1843 70.5614 13.4485 70.0178 13.4928C69.3289 13.5085 68.8924 13.3624 68.3863 12.8926C67.93 12.4005 67.8469 11.9407 67.8616 11.2817C67.909 10.7281 68.1447 10.2465 68.5266 9.84456C69.2866 9.21322 70.2023 9.19723 71.0447 9.67118Z" fill="#F8E482"/>
</svg>
