<svg width="350" height="350" viewBox="0 0 350 350" fill="none" xmlns="http://www.w3.org/2000/svg">
<path d="M127.735 38.6103C128.556 39.3296 129.346 40.0766 130.132 40.8332C130.291 40.9771 130.449 41.1209 130.613 41.2691C133.228 43.7154 135.304 46.8825 137.137 49.939C137.24 50.1096 137.343 50.2802 137.449 50.456C145.977 64.6796 151.749 83.1552 151.612 99.9039C151.93 99.8132 151.93 99.8132 152.253 99.7207C154.38 99.1305 156.49 98.6969 158.675 98.3717C158.837 98.3475 158.998 98.3233 159.164 98.2984C160.153 98.1506 161.142 98.0077 162.132 97.8676C162.55 97.8078 162.968 97.7453 163.385 97.6827C174.796 95.993 186.379 97.4872 197.608 99.6704C197.598 99.4062 197.588 99.1419 197.578 98.8697C197.581 97.0908 197.854 95.3305 198.09 93.5707C198.115 93.3782 198.141 93.1856 198.167 92.9873C200.369 76.5726 204.475 58.4366 215.119 45.2693C215.225 45.1371 215.33 45.0049 215.439 44.8687C220.735 38.2675 227.838 32.726 236.366 31.2605C241.475 30.9503 245.616 31.186 249.689 34.5146C251.126 35.8541 252.035 37.4782 252.943 39.1988C253.064 39.4264 253.185 39.6539 253.309 39.8883C254.654 42.635 255.074 45.6599 255.092 48.6904C255.094 48.8792 255.095 49.0681 255.097 49.2627C255.101 49.8724 255.103 50.482 255.103 51.0918C255.103 51.4053 255.103 51.4053 255.103 51.7251C255.099 55.1434 254.929 58.4724 254.344 61.8465C254.286 62.1907 254.286 62.1907 254.227 62.5419C250.903 81.68 242.286 100.492 230.062 115.547C230.759 116.38 231.454 117.186 232.236 117.94C233.321 119.008 234.249 120.198 235.199 121.384C235.353 121.569 235.507 121.754 235.666 121.945C237.905 124.658 239.755 127.678 241.503 130.723C241.587 130.868 241.67 131.013 241.757 131.162C246.839 140.021 249.962 150.79 249.939 161.034C249.939 161.264 249.939 161.494 249.94 161.73C249.94 162.212 249.939 162.693 249.938 163.175C249.937 163.907 249.938 164.639 249.94 165.371C249.94 165.842 249.939 166.313 249.939 166.783C249.939 167 249.94 167.216 249.94 167.438C249.936 168.76 249.842 170.038 249.675 171.349C249.897 171.365 249.897 171.365 250.124 171.381C250.801 171.431 251.478 171.485 252.155 171.539C252.389 171.555 252.622 171.572 252.862 171.589C254.121 171.693 255.127 171.81 256.212 172.517C256.777 173.195 256.904 173.605 257 174.487C256.901 175.423 256.755 175.949 256.212 176.719C254.943 177.412 254.014 177.496 252.593 177.361C252.425 177.349 252.257 177.337 252.083 177.324C251.04 177.243 250.009 177.111 248.974 176.953C248.45 178.477 247.984 180.013 247.544 181.564C247.482 181.779 247.421 181.993 247.357 182.214C247.298 182.422 247.238 182.63 247.177 182.844C247.124 183.03 247.071 183.216 247.017 183.408C246.868 183.977 246.749 184.547 246.639 185.125C246.885 185.209 247.13 185.294 247.383 185.382C251.832 186.96 251.832 186.96 252.943 188.627C253.099 189.429 253.106 190.16 252.943 190.962C252.355 191.809 251.672 192.236 250.708 192.572C249.493 192.608 248.522 192.138 247.413 191.677C246.974 191.498 246.536 191.321 246.097 191.145C245.807 191.025 245.807 191.025 245.512 190.903C244.984 190.69 244.984 190.69 244.304 190.728C243.928 191.305 243.596 191.875 243.268 192.479C241.557 195.509 239.481 198.26 237.067 200.768C236.881 200.964 236.881 200.964 236.692 201.164C232.952 205.111 228.619 208.049 223.773 210.501C223.539 210.62 223.539 210.62 223.3 210.741C222.629 211.07 222.181 211.274 221.423 211.274C221.423 211.429 221.423 211.583 221.423 211.741C221.611 211.79 221.798 211.838 221.992 211.887C223.092 212.311 223.978 212.935 224.94 213.609C225.137 213.746 225.333 213.882 225.535 214.022C228.255 215.922 230.82 217.981 233.331 220.147C233.498 220.29 233.666 220.434 233.838 220.582C234.295 220.978 234.748 221.378 235.199 221.781C235.39 221.951 235.582 222.121 235.779 222.295C238.892 225.099 241.999 228.011 244.538 231.354C244.715 231.573 244.891 231.793 245.073 232.019C249.151 237.147 254.311 244.288 253.644 251.2C253.623 251.48 253.623 251.48 253.603 251.766C253.23 254.799 251.491 257.844 249.208 259.838C247.714 260.954 246.076 261.625 244.304 262.173C244.146 262.226 243.987 262.279 243.823 262.334C238.589 263.806 232.527 261.708 227.777 259.579C227.592 259.496 227.406 259.413 227.215 259.328C227.076 259.265 226.937 259.203 226.793 259.138C226.848 259.548 226.848 259.548 226.903 259.966C228.76 274.042 229.851 288.145 229.886 302.343C229.887 302.805 229.889 303.267 229.891 303.729C229.914 311.039 229.855 318.607 224.671 324.353C222.146 326.756 218.911 328.08 215.586 328.949C215.414 328.994 215.242 329.04 215.064 329.087C212.954 329.555 210.791 329.511 208.64 329.515C207.96 329.518 207.28 329.529 206.6 329.541C203.101 329.572 200.158 328.987 197.039 327.344C196.885 327.264 196.73 327.184 196.571 327.102C193.093 325.259 190.445 322.323 189.201 318.551C188.313 315.623 187.857 312.579 187.335 309.57C187.228 308.965 187.12 308.361 187.012 307.756C186.885 307.038 186.76 306.319 186.635 305.601C186.352 305.622 186.352 305.622 186.064 305.644C179.723 306.108 173.445 306.179 167.095 305.849C166.801 305.834 166.801 305.834 166.501 305.818C165.944 305.789 165.387 305.758 164.831 305.726C164.664 305.717 164.498 305.708 164.327 305.698C163.567 305.653 162.849 305.591 162.119 305.367C162.103 305.564 162.103 305.564 162.086 305.764C161.433 313.003 160.412 320.883 154.634 325.875C153.847 326.454 153.049 326.926 152.182 327.373C151.978 327.48 151.978 327.48 151.77 327.589C148.442 329.2 145.229 329.602 141.572 329.555C140.873 329.547 140.174 329.55 139.475 329.555C135.941 329.553 132.612 329.144 129.373 327.636C129.114 327.516 129.114 327.516 128.849 327.395C124.902 325.503 122.393 322.52 120.793 318.442C120.66 318.107 120.66 318.107 120.525 317.765C118.907 313.137 119.041 308.037 119.068 303.202C119.071 302.689 119.073 302.175 119.074 301.661C119.112 288.241 119.997 274.907 121.715 261.597C121.736 261.428 121.758 261.259 121.78 261.086C121.869 260.405 121.976 259.792 122.194 259.138C121.942 259.24 121.69 259.342 121.43 259.446C115.144 261.956 108.84 264.06 102.249 261.382C98.9617 259.828 97.0912 257.388 95.8105 254.001C94.2508 249.347 96.2019 244.598 98.2629 240.454C101.888 233.56 107.572 227.044 113.479 222.011C113.916 221.638 114.347 221.261 114.776 220.88C118.685 217.426 122.878 214.233 127.33 211.508C127.194 211.435 127.058 211.363 126.918 211.288C119.563 207.349 112.783 202.86 107.951 195.865C107.851 195.719 107.75 195.573 107.646 195.423C106.594 193.892 105.591 192.35 104.683 190.728C103.631 190.916 102.657 191.153 101.668 191.554C101.425 191.652 101.425 191.652 101.177 191.752C100.854 191.884 100.532 192.021 100.211 192.162C99.0668 192.63 98.3937 192.622 97.2114 192.129C96.4967 191.506 96.1344 191.139 95.9318 190.218C95.8731 189.279 95.9938 188.721 96.4379 187.883C97.948 186.338 100.296 185.762 102.348 185.358C102.277 185.115 102.277 185.115 102.205 184.867C101.989 184.116 101.774 183.366 101.56 182.615C101.486 182.36 101.412 182.105 101.336 181.842C100.854 180.146 100.497 178.465 100.247 176.719C99.9818 176.791 99.7169 176.864 99.444 176.938C98.3405 177.181 97.2416 177.293 96.1169 177.376C95.9478 177.391 95.7787 177.406 95.6044 177.422C94.4622 177.494 93.7404 177.332 92.7752 176.719C92.0739 175.901 91.9609 175.178 92.01 174.134C92.1113 173.43 92.3036 173.049 92.7752 172.517C94.1443 171.788 95.4308 171.653 96.9633 171.539C97.1898 171.52 97.4162 171.501 97.6496 171.481C98.2038 171.435 98.7581 171.391 99.3127 171.349C99.2751 171.093 99.2376 170.838 99.1989 170.574C99.0482 169.361 99.0371 168.155 99.0318 166.934C99.0298 166.568 99.0298 166.568 99.0277 166.195C99.0255 165.679 99.024 165.164 99.0231 164.648C99.0209 163.878 99.0136 163.108 99.0062 162.338C98.9842 157.953 99.4041 153.668 100.378 149.387C100.436 149.13 100.494 148.873 100.554 148.608C101.709 143.725 103.386 138.954 105.617 134.459C105.719 134.248 105.822 134.038 105.928 133.821C108.503 128.576 111.669 123.655 115.634 119.349C116.098 118.843 116.55 118.329 116.999 117.809C117.614 117.102 118.252 116.433 118.925 115.781C118.611 115.044 118.174 114.483 117.658 113.876C113.97 109.508 110.883 104.461 108.185 99.437C108.071 99.2264 107.957 99.0157 107.839 98.7988C101.004 86.1364 95.9832 72.1921 94.1761 57.8773C94.1554 57.7154 94.1348 57.5535 94.1135 57.3867C93.9649 56.1526 93.8993 54.9345 93.887 53.692C93.8847 53.5002 93.8823 53.3084 93.88 53.1108C93.8172 46.5773 93.9777 39.9966 98.8457 34.9962C99.0031 34.8297 99.1605 34.6633 99.3227 34.4918C101.163 32.6988 103.548 31.6234 106.084 31.2605C106.334 31.2221 106.334 31.2221 106.589 31.1829C114.407 30.147 121.905 33.6302 127.735 38.6103Z" fill="white"/>
<path d="M127.735 38.6103C128.556 39.3296 129.346 40.0766 130.132 40.8332C130.291 40.9771 130.449 41.1209 130.613 41.2691C133.228 43.7154 135.304 46.8825 137.137 49.939C137.24 50.1096 137.343 50.2802 137.449 50.456C145.977 64.6796 151.749 83.1552 151.612 99.9039C151.93 99.8132 151.93 99.8132 152.253 99.7207C154.38 99.1305 156.49 98.6969 158.675 98.3717C158.837 98.3475 158.998 98.3233 159.164 98.2984C160.153 98.1506 161.142 98.0077 162.132 97.8676C162.55 97.8078 162.968 97.7453 163.385 97.6827C174.796 95.993 186.379 97.4872 197.608 99.6704C197.598 99.4062 197.588 99.1419 197.578 98.8697C197.581 97.0908 197.854 95.3305 198.09 93.5707C198.115 93.3782 198.141 93.1856 198.167 92.9873C200.369 76.5726 204.475 58.4366 215.119 45.2693C215.225 45.1371 215.33 45.0049 215.439 44.8687C220.735 38.2675 227.838 32.726 236.366 31.2605C241.475 30.9503 245.616 31.186 249.689 34.5146C251.126 35.8541 252.035 37.4782 252.943 39.1988C253.064 39.4264 253.185 39.6539 253.309 39.8883C254.654 42.635 255.074 45.6599 255.092 48.6904C255.094 48.8792 255.095 49.0681 255.097 49.2627C255.101 49.8724 255.103 50.482 255.103 51.0918C255.103 51.4053 255.103 51.4053 255.103 51.7251C255.099 55.1434 254.929 58.4724 254.344 61.8465C254.286 62.1907 254.286 62.1907 254.227 62.5419C250.903 81.68 242.286 100.492 230.062 115.547C230.759 116.38 231.454 117.186 232.236 117.94C233.321 119.008 234.249 120.198 235.199 121.384C235.353 121.569 235.507 121.754 235.666 121.945C237.905 124.658 239.755 127.678 241.503 130.723C241.587 130.868 241.67 131.013 241.757 131.162C246.839 140.021 249.962 150.79 249.939 161.034C249.939 161.264 249.939 161.494 249.94 161.73C249.94 162.212 249.939 162.693 249.938 163.175C249.937 163.907 249.938 164.639 249.94 165.371C249.94 165.842 249.939 166.313 249.939 166.783C249.939 167 249.94 167.216 249.94 167.438C249.936 168.76 249.842 170.038 249.675 171.349C249.897 171.365 249.897 171.365 250.124 171.381C250.801 171.431 251.478 171.485 252.155 171.539C252.389 171.555 252.622 171.572 252.862 171.589C254.121 171.693 255.127 171.81 256.212 172.517C256.777 173.195 256.904 173.605 257 174.487C256.901 175.423 256.755 175.949 256.212 176.719C254.943 177.412 254.014 177.496 252.593 177.361C252.425 177.349 252.257 177.337 252.083 177.324C251.04 177.243 250.009 177.111 248.974 176.953C248.45 178.477 247.984 180.013 247.544 181.564C247.482 181.779 247.421 181.993 247.357 182.214C247.298 182.422 247.238 182.63 247.177 182.844C247.124 183.03 247.071 183.216 247.017 183.408C246.868 183.977 246.749 184.547 246.639 185.125C246.885 185.209 247.13 185.294 247.383 185.382C251.832 186.96 251.832 186.96 252.943 188.627C253.099 189.429 253.106 190.16 252.943 190.962C252.355 191.809 251.672 192.236 250.708 192.572C249.493 192.608 248.522 192.138 247.413 191.677C246.974 191.498 246.536 191.321 246.097 191.145C245.807 191.025 245.807 191.025 245.512 190.903C244.984 190.69 244.984 190.69 244.304 190.728C243.928 191.305 243.596 191.875 243.268 192.479C241.557 195.509 239.481 198.26 237.067 200.768C236.881 200.964 236.881 200.964 236.692 201.164C232.952 205.111 228.619 208.049 223.773 210.501C223.539 210.62 223.539 210.62 223.3 210.741C222.629 211.07 222.181 211.274 221.423 211.274C221.423 211.429 221.423 211.583 221.423 211.741C221.611 211.79 221.798 211.838 221.992 211.887C223.092 212.311 223.978 212.935 224.94 213.609C225.137 213.746 225.333 213.882 225.535 214.022C228.255 215.922 230.82 217.981 233.331 220.147C233.498 220.29 233.666 220.434 233.838 220.582C234.295 220.978 234.748 221.378 235.199 221.781C235.39 221.951 235.582 222.121 235.779 222.295C238.892 225.099 241.999 228.011 244.538 231.354C244.715 231.573 244.891 231.793 245.073 232.019C249.151 237.147 254.311 244.288 253.644 251.2C253.623 251.48 253.623 251.48 253.603 251.766C253.23 254.799 251.491 257.844 249.208 259.838C247.714 260.954 246.076 261.625 244.304 262.173C244.146 262.226 243.987 262.279 243.823 262.334C238.589 263.806 232.527 261.708 227.777 259.579C227.592 259.496 227.406 259.413 227.215 259.328C227.076 259.265 226.937 259.203 226.793 259.138C226.848 259.548 226.848 259.548 226.903 259.966C228.76 274.042 229.851 288.145 229.886 302.343C229.887 302.805 229.889 303.267 229.891 303.729C229.914 311.039 229.855 318.607 224.671 324.353C222.146 326.756 218.911 328.08 215.586 328.949C215.414 328.994 215.242 329.04 215.064 329.087C212.954 329.555 210.791 329.511 208.64 329.515C207.96 329.518 207.28 329.529 206.6 329.541C203.101 329.572 200.158 328.987 197.039 327.344C196.885 327.264 196.73 327.184 196.571 327.102C193.093 325.259 190.445 322.323 189.201 318.551C188.313 315.623 187.857 312.579 187.335 309.57C187.228 308.965 187.12 308.361 187.012 307.756C186.885 307.038 186.76 306.319 186.635 305.601C186.352 305.622 186.352 305.622 186.064 305.644C179.723 306.108 173.445 306.179 167.095 305.849C166.801 305.834 166.801 305.834 166.501 305.818C165.944 305.789 165.387 305.758 164.831 305.726C164.664 305.717 164.498 305.708 164.327 305.698C163.567 305.653 162.849 305.591 162.119 305.367C162.103 305.564 162.103 305.564 162.086 305.764C161.433 313.003 160.412 320.883 154.634 325.875C153.847 326.454 153.049 326.926 152.182 327.373C151.978 327.48 151.978 327.48 151.77 327.589C148.442 329.2 145.229 329.602 141.572 329.555C140.873 329.547 140.174 329.55 139.475 329.555C135.941 329.553 132.612 329.144 129.373 327.636C129.114 327.516 129.114 327.516 128.849 327.395C124.902 325.503 122.393 322.52 120.793 318.442C120.66 318.107 120.66 318.107 120.525 317.765C118.907 313.137 119.041 308.037 119.068 303.202C119.071 302.689 119.073 302.175 119.074 301.661C119.112 288.241 119.997 274.907 121.715 261.597C121.736 261.428 121.758 261.259 121.78 261.086C121.869 260.405 121.976 259.792 122.194 259.138C121.942 259.24 121.69 259.342 121.43 259.446C115.144 261.956 108.84 264.06 102.249 261.382C98.9617 259.828 97.0912 257.388 95.8105 254.001C94.2508 249.347 96.2019 244.598 98.2629 240.454C101.888 233.56 107.572 227.044 113.479 222.011C113.916 221.638 114.347 221.261 114.776 220.88C118.685 217.426 122.878 214.233 127.33 211.508C127.194 211.435 127.058 211.363 126.918 211.288C119.563 207.349 112.783 202.86 107.951 195.865C107.851 195.719 107.75 195.573 107.646 195.423C106.594 193.892 105.591 192.35 104.683 190.728C103.631 190.916 102.657 191.153 101.668 191.554C101.425 191.652 101.425 191.652 101.177 191.752C100.854 191.884 100.532 192.021 100.211 192.162C99.0668 192.63 98.3937 192.622 97.2114 192.129C96.4967 191.506 96.1344 191.139 95.9318 190.218C95.8731 189.279 95.9938 188.721 96.4379 187.883C97.948 186.338 100.296 185.762 102.348 185.358C102.277 185.115 102.277 185.115 102.205 184.867C101.989 184.116 101.774 183.366 101.56 182.615C101.486 182.36 101.412 182.105 101.336 181.842C100.854 180.146 100.497 178.465 100.247 176.719C99.9818 176.791 99.7169 176.864 99.444 176.938C98.3405 177.181 97.2416 177.293 96.1169 177.376C95.9478 177.391 95.7787 177.406 95.6044 177.422C94.4622 177.494 93.7404 177.332 92.7752 176.719C92.0739 175.901 91.9609 175.178 92.01 174.134C92.1113 173.43 92.3036 173.049 92.7752 172.517C94.1443 171.788 95.4308 171.653 96.9633 171.539C97.1898 171.52 97.4162 171.501 97.6496 171.481C98.2038 171.435 98.7581 171.391 99.3127 171.349C99.2751 171.093 99.2376 170.838 99.1989 170.574C99.0482 169.361 99.0371 168.155 99.0318 166.934C99.0298 166.568 99.0298 166.568 99.0277 166.195C99.0255 165.679 99.024 165.164 99.0231 164.648C99.0209 163.878 99.0136 163.108 99.0062 162.338C98.9842 157.953 99.4041 153.668 100.378 149.387C100.436 149.13 100.494 148.873 100.554 148.608C101.709 143.725 103.386 138.954 105.617 134.459C105.719 134.248 105.822 134.038 105.928 133.821C108.503 128.576 111.669 123.655 115.634 119.349C116.098 118.843 116.55 118.329 116.999 117.809C117.614 117.102 118.252 116.433 118.925 115.781C118.611 115.044 118.174 114.483 117.658 113.876C113.97 109.508 110.883 104.461 108.185 99.437C108.071 99.2264 107.957 99.0157 107.839 98.7988C101.004 86.1364 95.9832 72.1921 94.1761 57.8773C94.1554 57.7154 94.1348 57.5535 94.1135 57.3867C93.9649 56.1526 93.8993 54.9345 93.887 53.692C93.8847 53.5002 93.8823 53.3084 93.88 53.1108C93.8172 46.5773 93.9777 39.9966 98.8457 34.9962C99.0031 34.8297 99.1605 34.6633 99.3227 34.4918C101.163 32.6988 103.548 31.6234 106.084 31.2605C106.334 31.2221 106.334 31.2221 106.589 31.1829C114.407 30.147 121.905 33.6302 127.735 38.6103ZM102.653 40.6672C100.441 44.1606 100.147 47.9947 100.159 52.0403C100.159 52.2111 100.159 52.3819 100.16 52.558C100.183 58.5994 101.281 64.4197 102.815 70.2518C102.883 70.5131 102.952 70.7744 103.023 71.0436C104.798 77.6734 107.386 84.1184 110.286 90.3312C110.385 90.5438 110.484 90.7563 110.586 90.9753C113.174 96.4663 116.35 101.698 119.903 106.617C120.03 106.793 120.157 106.969 120.289 107.151C121.965 109.45 123.766 111.651 125.64 113.792C126.276 114.571 126.404 115.118 126.367 116.116C125.956 117.792 124.817 118.797 123.58 119.91C123.265 120.2 122.949 120.491 122.634 120.781C122.48 120.924 122.325 121.066 122.166 121.212C112.449 130.187 106.589 143.619 105.15 156.64C105.128 156.824 105.106 157.009 105.084 157.199C104.889 159.027 104.873 160.852 104.873 162.688C104.872 163.216 104.868 163.744 104.864 164.272C104.855 166.588 105.04 168.826 105.383 171.116C105.793 171.129 105.793 171.129 106.21 171.142C106.572 171.157 106.933 171.173 107.295 171.189C107.474 171.194 107.654 171.199 107.839 171.205C108.911 171.255 109.649 171.36 110.52 172.05C111.097 172.916 111.114 173.614 110.987 174.618C110.701 175.276 110.495 175.65 109.892 176.041C109.183 176.319 108.536 176.353 107.776 176.398C107.503 176.416 107.23 176.433 106.948 176.451C106.74 176.463 106.532 176.474 106.317 176.486C106.394 178.068 106.696 179.529 107.105 181.053C107.154 181.242 107.203 181.431 107.253 181.626C107.385 182.099 107.549 182.562 107.718 183.023C108.433 183.262 108.818 183.248 109.557 183.198C110.448 183.193 110.704 183.225 111.483 183.724C111.968 184.499 112.092 184.943 112.036 185.842C111.84 186.605 111.347 186.976 110.753 187.459C110.518 187.691 110.284 187.924 110.053 188.16C111.849 191.469 113.994 194.311 116.59 197.032C116.763 197.217 116.936 197.402 117.114 197.593C122.442 203.146 129.924 206.556 137.297 208.351C138.623 208.69 139.572 208.941 140.405 210.107C140.753 211.083 140.751 211.944 140.347 212.894C139.537 213.849 138.714 213.956 137.545 214.135C131.767 215.134 126.621 218.807 122.194 222.482C121.894 222.724 121.593 222.966 121.293 223.208C119.01 225.054 116.829 226.975 114.722 229.019C114.528 229.207 114.334 229.395 114.134 229.588C110.443 233.172 110.443 233.172 107.251 237.191C107.033 237.503 107.033 237.503 106.811 237.821C102.245 244.149 102.245 244.149 101.181 251.667C101.616 253.266 102.263 254.681 103.711 255.581C103.95 255.695 104.189 255.81 104.435 255.928C104.673 256.044 104.911 256.161 105.156 256.282C108.474 257.659 112.603 256.685 115.797 255.403C117.04 254.882 118.268 254.327 119.494 253.768C119.757 253.649 120.02 253.53 120.291 253.407C120.543 253.29 120.795 253.173 121.055 253.053C121.28 252.949 121.505 252.845 121.736 252.738C122.078 252.555 122.078 252.555 122.427 252.367C122.564 252.299 122.701 252.23 122.842 252.16C124.3 251.307 124.584 250.049 125.032 248.494C125.114 248.228 125.196 247.963 125.28 247.69C125.541 246.843 125.794 245.994 126.046 245.144C128.724 236.237 128.724 236.237 130.253 235.132C130.98 234.786 131.436 234.756 132.234 234.856C133.116 235.257 133.522 235.59 133.868 236.49C134.049 238.904 133.185 241.157 132.413 243.399C132.057 244.435 131.714 245.475 131.37 246.515C131.302 246.72 131.234 246.925 131.164 247.136C127.917 256.965 126.524 267.216 125.738 277.503C125.694 278.08 125.648 278.658 125.603 279.235C125.042 286.464 124.831 293.682 124.762 300.931C124.76 301.123 124.758 301.314 124.756 301.512C124.294 311.467 124.294 311.467 128.481 320.091C130.708 322.244 133.435 323.095 136.436 323.579C136.624 323.61 136.812 323.64 137.005 323.672C141.75 324.281 147.185 324.067 151.218 321.288C153.554 319.411 154.4 316.774 154.998 313.933C155.047 313.707 155.095 313.48 155.146 313.247C155.6 311.047 155.906 308.83 156.181 306.602C156.837 301.407 156.837 301.407 157.814 300.406C159.528 299.175 162.093 299.724 164.106 299.931C167.234 300.249 170.341 300.295 173.483 300.279C174.336 300.274 175.189 300.274 176.043 300.274C178.44 300.271 180.835 300.256 183.23 300.126C183.396 300.117 183.562 300.108 183.733 300.099C184.564 300.046 185.354 299.935 186.168 299.764C186.829 299.712 187.489 299.71 188.152 299.705C188.327 299.701 188.501 299.696 188.68 299.691C189.738 299.683 190.48 299.73 191.304 300.464C192.1 301.847 192.242 303.339 192.457 304.9C192.537 305.445 192.617 305.99 192.698 306.535C192.738 306.808 192.778 307.082 192.819 307.364C193.607 314.988 193.607 314.988 197.591 321.158C202.09 324.124 207.863 324.489 213.065 323.49C213.28 323.443 213.496 323.395 213.718 323.345C213.951 323.3 214.184 323.254 214.423 323.208C217.656 322.506 220.185 321.035 222.088 318.286C223.605 315.703 224.027 312.782 224.026 309.825C224.027 309.563 224.027 309.563 224.028 309.296C224.03 308.72 224.031 308.145 224.031 307.57C224.032 307.16 224.032 306.75 224.033 306.34C224.035 305.477 224.035 304.614 224.035 303.751C224.035 302.886 224.036 302.021 224.04 301.156C224.07 292.994 223.788 284.845 223.05 276.713C223.034 276.527 223.017 276.342 223 276.15C222.01 265.444 220.394 255.077 216.983 244.864C216.894 244.596 216.894 244.596 216.803 244.324C216.517 243.463 216.226 242.604 215.926 241.747C215.235 239.733 214.533 237.557 215.455 235.513C216.322 234.9 217.102 234.769 218.155 234.856C219.724 235.605 220.313 237.612 220.871 239.156C221.301 240.379 221.713 241.609 222.124 242.838C222.266 243.259 222.408 243.68 222.551 244.101C222.62 244.307 222.69 244.513 222.761 244.725C222.9 245.136 223.039 245.545 223.179 245.955C223.492 246.876 223.791 247.794 224.046 248.732C224.565 250.647 224.565 250.647 225.902 252.046C226.271 252.242 226.647 252.427 227.027 252.601C227.308 252.748 227.308 252.748 227.595 252.899C228.183 253.204 228.776 253.488 229.376 253.768C229.695 253.918 229.695 253.918 230.021 254.071C231.869 254.929 233.733 255.693 235.666 256.336C235.85 256.398 236.033 256.46 236.223 256.524C238.926 257.276 242.246 257.058 244.771 255.869C246.42 254.826 247.203 253.478 247.807 251.667C248.346 245.607 244.019 239.849 240.339 235.396C239.56 234.502 238.762 233.628 237.954 232.76C237.322 232.081 236.706 231.389 236.089 230.697C235.286 229.812 234.459 229.009 233.545 228.241C233.073 227.831 232.642 227.396 232.207 226.947C231.314 226.042 230.356 225.249 229.363 224.456C228.759 223.962 228.179 223.449 227.6 222.926C223.111 218.919 217.228 214.833 211.121 214.076C210.184 213.951 209.791 213.871 208.99 213.332C208.486 212.521 208.348 211.997 208.348 211.041C208.636 210.125 208.931 209.731 209.691 209.144C210.655 208.653 211.689 208.418 212.732 208.151C219.239 206.482 225.219 203.558 230.296 199.133C230.523 198.937 230.751 198.74 230.986 198.538C234.254 195.666 236.871 192.22 238.934 188.393C238.934 188.239 238.934 188.085 238.934 187.926C238.674 187.791 238.414 187.657 238.146 187.518C237.643 187.226 237.328 187.027 236.964 186.569C236.684 185.48 236.659 184.728 237.227 183.738C238.433 182.988 239.652 183.165 241.036 183.257C241.267 182.479 241.494 181.701 241.722 180.922C241.786 180.704 241.851 180.485 241.918 180.261C242.285 178.998 242.548 177.795 242.67 176.486C242.366 176.481 242.366 176.481 242.055 176.476C239.584 176.373 239.584 176.373 238.759 175.683C238.03 174.853 237.908 174.342 237.917 173.226C238.057 172.428 238.553 172.065 239.168 171.583C239.938 171.197 240.8 171.26 241.649 171.218C241.836 171.208 242.023 171.198 242.216 171.187C242.679 171.162 243.141 171.139 243.604 171.116C246.226 156.882 241.731 141.213 233.837 129.351C231.125 125.447 228.099 121.78 224.337 118.849C223.393 118.034 222.668 117.252 222.489 116C222.678 114.294 223.811 113.156 224.94 111.928C228.684 107.853 231.771 103.072 234.498 98.2696C234.654 97.9951 234.654 97.9951 234.813 97.7152C239.973 88.5704 244.032 78.7953 246.639 68.6174C246.694 68.4078 246.749 68.1982 246.806 67.9822C248.153 62.7898 248.827 57.501 248.828 52.1424C248.829 51.9845 248.829 51.8265 248.83 51.6638C248.829 48.8571 248.638 46.07 247.719 43.4015C247.626 43.1222 247.533 42.8429 247.436 42.5551C246.582 40.5148 245.03 38.7883 242.994 37.8946C241.953 37.5184 240.999 37.4385 239.898 37.4477C239.706 37.4492 239.514 37.4507 239.316 37.4523C234.333 37.5971 230.049 40.1156 226.093 42.9345C225.899 43.0709 225.705 43.2072 225.506 43.3477C211.836 53.452 207.237 73.8294 204.819 89.6546C204.175 93.9594 203.703 98.2812 203.332 102.618C203.314 102.813 203.296 103.009 203.277 103.21C203.245 103.558 203.216 103.907 203.191 104.256C203.089 105.323 202.807 105.922 202.044 106.675C200.259 107.27 198.679 106.669 196.937 106.164C191.839 104.748 186.767 103.879 181.498 103.406C181.128 103.372 181.128 103.372 180.75 103.338C171.473 102.552 161.993 103.612 153.013 105.974C152.463 106.119 151.912 106.263 151.361 106.405C150.923 106.518 150.486 106.636 150.049 106.753C148.956 106.973 148.018 107.075 146.987 106.617C146.185 105.976 146.037 105.465 145.889 104.448C145.857 104.113 145.828 103.778 145.8 103.444C145.765 103.066 145.73 102.688 145.695 102.31C145.678 102.111 145.66 101.912 145.642 101.707C144.066 84.1877 140.708 65.5473 130.366 50.8729C130.226 50.6745 130.226 50.6745 130.084 50.4722C128.89 48.7919 127.587 47.2261 126.163 45.7363C126.033 45.5968 125.903 45.4573 125.769 45.3136C124.568 44.0603 123.268 43.0692 121.829 42.1027C121.602 41.95 121.376 41.7973 121.142 41.64C119.372 40.4681 117.646 39.4817 115.656 38.7319C115.43 38.6445 115.43 38.6445 115.199 38.5553C113.223 37.8134 111.348 37.4581 109.236 37.4331C109.046 37.4297 108.856 37.4262 108.661 37.4227C106.172 37.4653 104.121 38.6805 102.653 40.6672Z" fill="black"/>
<path d="M188.288 231.827C194.843 237.487 198.171 246.347 198.97 254.896C199.347 259.802 199.533 265.044 198.141 269.792C198.077 270.022 198.077 270.022 198.012 270.257C197.089 273.517 195.342 276.209 193.003 278.596C192.843 278.762 192.683 278.928 192.518 279.099C187.095 284.367 179.348 285.17 172.235 285.042C170.728 284.996 169.264 284.822 167.78 284.544C167.622 284.515 167.464 284.485 167.301 284.455C161.823 283.399 156.876 280.743 153.614 275.991C148.916 268.766 149.188 258.461 150.816 250.263C152.432 242.762 156.181 234.584 162.679 230.237C162.898 230.099 163.117 229.961 163.343 229.819C163.478 229.733 163.613 229.646 163.753 229.557C171.892 224.4 181.024 226.013 188.288 231.827Z" fill="#F4A99C"/>
<path d="M175.194 222.482C175.622 222.51 175.622 222.51 176.059 222.539C183.451 223.153 189.855 226.569 194.655 232.19C198.567 236.916 201.214 242.571 202.803 248.471C202.885 248.769 202.885 248.769 202.969 249.073C203.933 252.838 204.264 256.656 204.237 260.531C204.233 261.169 204.237 261.806 204.241 262.444C204.245 265.836 203.97 269.238 202.832 272.461C202.773 272.632 202.714 272.802 202.654 272.977C200.351 279.349 195.811 284.473 189.719 287.455C181.141 291.441 170.135 291.647 161.275 288.446C157.077 286.856 153.178 284.23 150.445 280.618C150.276 280.397 150.108 280.175 149.934 279.947C144.029 271.808 143.858 261.913 145.317 252.293C145.67 250.083 146.239 247.951 146.943 245.83C147.027 245.574 147.027 245.574 147.112 245.313C147.875 243.035 148.878 240.897 149.995 238.773C150.187 238.404 150.374 238.032 150.56 237.66C153.841 231.264 160.033 225.856 166.847 223.591C169.527 222.83 172.403 222.272 175.194 222.482ZM159.084 234.389C158.917 234.556 158.75 234.723 158.578 234.895C154.492 239.234 152.169 245.029 150.853 250.762C150.818 250.915 150.783 251.068 150.746 251.225C150.098 254.261 149.9 257.282 149.917 260.376C149.92 260.935 149.917 261.494 149.914 262.053C149.908 268.34 151.453 274.274 155.859 278.926C161.349 284.179 168.795 285.203 176.093 285.097C182.926 284.931 189.256 282.691 194.048 277.722C194.902 276.736 195.571 275.683 196.207 274.548C196.332 274.329 196.457 274.111 196.586 273.886C197.551 272.09 198.129 270.236 198.542 268.244C198.605 267.952 198.605 267.952 198.669 267.655C199.077 265.545 199.082 263.467 199.067 261.327C199.067 261.14 199.066 260.954 199.065 260.761C199.053 258.095 199.009 255.466 198.542 252.834C198.513 252.671 198.484 252.507 198.455 252.339C197.378 246.457 195.217 240.618 191.304 236.023C191.018 235.677 191.018 235.677 190.726 235.323C189.125 233.443 187.274 232.029 185.234 230.653C185.029 230.511 184.825 230.369 184.614 230.223C176.315 224.809 165.586 227.799 159.084 234.389Z" fill="black"/>
<path d="M233.097 58.3443C233.809 58.8109 234.382 59.3626 234.965 59.9787C235.143 60.1569 235.322 60.335 235.505 60.5186C237.601 63.8564 236.59 68.2097 235.795 71.8014C235.264 74.053 234.555 76.2396 233.798 78.4237C233.735 78.6079 233.672 78.7922 233.607 78.982C233.266 79.9778 232.916 80.9699 232.555 81.9587C232.407 82.3654 232.261 82.7731 232.116 83.1809C231.414 85.0908 230.533 86.8811 229.604 88.6876C229.368 89.1511 229.137 89.6169 228.908 90.0841C226.136 95.7379 223.001 101.438 218.855 106.208C218.676 106.414 218.676 106.414 218.494 106.624C218.121 107.048 217.745 107.468 217.367 107.886C217.253 108.013 217.139 108.139 217.021 108.269C216.173 109.181 215.459 109.851 214.208 110.053C213.059 110.065 212.298 110.064 211.281 109.491C209.783 107.7 209.37 106.43 209.516 104.107C209.64 102.953 209.812 101.808 209.997 100.663C210.036 100.421 210.036 100.421 210.075 100.175C212.123 87.4017 216.015 68.5191 227.246 60.3581C229.004 59.1291 230.885 57.9519 233.097 58.3443Z" fill="#F4A99C"/>
<path d="M117.634 58.4054C117.829 58.4623 118.024 58.5191 118.225 58.5777C118.415 58.6322 118.605 58.6867 118.801 58.7428C124.639 60.7656 127.956 66.9392 130.491 72.157C131.995 75.3337 133.205 78.6002 134.335 81.9259C134.4 82.1136 134.465 82.3013 134.532 82.4947C136.59 88.483 137.844 94.686 138.865 100.922C139.031 101.936 139.205 102.948 139.38 103.96C139.67 105.896 139.65 107.177 138.491 108.805C137.815 109.509 137.208 109.889 136.242 110.061C134.799 110.09 133.81 110.016 132.711 109.041C125.73 101.753 120.669 92.1057 116.824 82.8598C116.696 82.5674 116.567 82.2753 116.438 81.9833C115.079 78.8598 114.059 75.6152 113.088 72.3531C113.035 72.1768 112.982 72.0005 112.927 71.8188C112.34 69.7892 112.302 67.7258 112.256 65.626C112.247 65.3584 112.238 65.0908 112.229 64.8151C112.222 62.5713 112.931 61.2876 114.303 59.5673C115.404 58.5319 116.118 58.0989 117.634 58.4054Z" fill="#F4A99C"/>
<path d="M227.381 166.713C229.736 168.472 231.388 170.548 231.864 173.492C232.216 176.983 231.8 179.665 229.608 182.462C228.027 184.31 225.929 185.548 223.525 186.058C220.199 186.228 217.593 186.076 214.886 183.957C214.745 183.851 214.603 183.744 214.457 183.634C212.834 182.232 211.407 179.562 211.15 177.42C210.919 174.175 211.499 171.628 213.485 169.014C213.738 168.653 213.738 168.653 213.996 168.285C217.361 164.427 223.235 164.04 227.381 166.713Z" fill="#F4A99C"/>
<path d="M132.876 166.723C135.212 168.297 136.798 170.431 137.477 173.167C138.01 176.32 137.644 179.346 135.838 182.045C134.174 184.168 132.051 185.478 129.432 186.058C125.71 186.283 123.081 185.737 120.116 183.369C118.527 181.94 117.234 179.545 117.007 177.406C116.826 173.915 117.275 171.278 119.512 168.477C123.125 164.558 128.383 164.062 132.876 166.723Z" fill="#F4A99C"/>
<path d="M174.61 163.819C174.862 163.818 175.113 163.816 175.372 163.814C178.818 163.822 178.818 163.822 180.142 164.674C180.929 165.623 181.215 166.326 181.122 167.568C180.842 169.141 179.981 170.728 178.697 171.703C178.003 172.146 177.378 172.489 176.595 172.75C176.462 175.015 176.737 177.254 178.229 179.054C179.346 180.171 180.53 180.387 182.053 180.528C183.725 180.384 185.35 179.934 186.635 178.821C187.086 178.223 187.507 177.615 187.915 176.986C188.269 176.486 188.269 176.486 188.736 176.252C189.763 176.134 190.263 176.192 191.173 176.705C191.869 177.536 191.968 177.923 191.892 178.977C191.479 180.841 189.93 182.334 188.428 183.412C185.483 185.286 182.251 185.578 178.839 184.988C177.327 184.517 176.307 183.621 175.193 182.516C174.775 182.037 174.775 182.037 174.26 182.089C174.116 182.292 173.971 182.494 173.822 182.702C172.793 184.003 170.959 184.791 169.357 185.125C165.724 185.416 162.707 185.12 159.784 182.79C158.569 181.726 157.376 180.674 157.144 179C157.094 178.078 157.088 177.59 157.654 176.836C158.533 176.215 159.105 176.152 160.164 176.274C161.106 176.634 161.461 177.418 161.974 178.249C162.698 179.342 163.705 179.791 164.921 180.221C166.749 180.54 168.621 180.677 170.291 179.755C171.63 178.594 172.099 177.016 172.392 175.318C172.433 175.092 172.474 174.866 172.515 174.633C172.585 173.929 172.601 173.427 172.392 172.75C171.846 172.27 171.301 171.978 170.651 171.656C169.167 170.889 168.472 169.378 167.956 167.847C167.805 166.883 167.894 166.555 168.379 165.702C170.006 163.61 172.096 163.801 174.61 163.819Z" fill="black"/>
<path d="M209.552 154.633C211.471 156.151 212.233 158.152 212.531 160.535C212.578 162.344 212.108 164.127 210.917 165.512C209.372 167.134 207.907 167.856 205.663 167.935C203.591 167.859 202.151 167.277 200.648 165.827C199.154 164.091 198.825 162.315 198.912 160.061C199.157 157.9 199.942 156.223 201.577 154.772C203.895 153.104 207.161 153.074 209.552 154.633Z" fill="black"/>
<path d="M146.943 154.539C148.626 155.555 149.371 157.386 149.978 159.208C150.171 161.881 149.854 163.879 148.135 165.975C146.581 167.463 144.641 167.934 142.554 167.912C140.911 167.769 139.392 167.091 138.196 165.946C136.59 164.006 136.413 161.843 136.614 159.425C136.848 157.539 137.815 156.004 139.238 154.772C141.682 153.031 144.331 153.26 146.943 154.539Z" fill="black"/>
<path d="M163.058 142.811C165.277 144.764 167.001 147.816 167.328 150.795C167.685 156.648 165.408 161.593 161.601 165.963C161.216 166.387 160.825 166.802 160.431 167.217C160.255 167.421 160.081 167.627 159.907 167.833C159.227 168.619 158.479 169.342 157.737 170.069C157.238 170.561 156.756 171.058 156.302 171.591C155.607 172.389 154.869 173.14 154.124 173.891C153.979 174.038 153.834 174.184 153.684 174.335C153.379 174.642 153.074 174.949 152.768 175.256C152.379 175.648 151.991 176.041 151.604 176.434C151.231 176.813 150.856 177.189 150.48 177.566C150.343 177.706 150.205 177.847 150.063 177.992C149.173 178.878 148.5 179.427 147.232 179.615C145.989 179.444 145.023 178.625 144.023 177.911C142.983 177.195 141.902 176.537 140.832 175.866C139.94 175.305 139.053 174.739 138.165 174.172C137.399 173.683 136.632 173.197 135.861 172.717C133.072 170.972 130.351 169.112 127.916 166.889C127.822 166.802 127.727 166.716 127.63 166.627C124.729 163.944 122.445 160.505 122.256 156.448C122.25 156.083 122.249 155.718 122.251 155.352C122.252 155.159 122.253 154.966 122.254 154.768C122.319 151.589 123.501 148.907 125.617 146.526C125.71 146.422 125.803 146.317 125.898 146.21C127.837 144.157 130.592 142.831 133.411 142.71C137.233 142.623 140.318 143.64 143.188 146.197C143.461 146.418 143.734 146.637 144.009 146.854C144.115 146.702 144.22 146.549 144.328 146.392C146.498 143.275 149.439 140.882 153.274 140.193C156.825 139.76 160.22 140.605 163.058 142.811Z" fill="#FF6060"/>
<path d="M200.499 142.585C201.687 143.505 202.654 144.541 203.501 145.786C203.795 146.214 204.111 146.616 204.44 147.019C204.52 146.929 204.6 146.839 204.683 146.747C206.778 144.518 209.792 142.807 212.895 142.7C216.339 142.664 219.065 143.377 221.683 145.705C221.846 145.845 221.846 145.845 222.012 145.988C224.143 147.952 225.631 151.006 225.819 153.897C225.832 154.396 225.833 154.894 225.829 155.394C225.83 155.56 225.832 155.727 225.833 155.899C225.822 160.064 223.711 163.455 220.913 166.396C218.435 168.796 215.408 170.736 212.507 172.578C211.913 172.957 211.322 173.341 210.732 173.724C210.497 173.876 210.262 174.028 210.027 174.179C209.624 174.44 209.221 174.701 208.819 174.962C207.913 175.547 207.004 176.125 206.089 176.695C205.914 176.804 205.739 176.913 205.559 177.025C205.21 177.242 204.861 177.459 204.512 177.675C203.819 178.106 203.133 178.534 202.479 179.022C202.029 179.333 201.781 179.488 201.248 179.543C201.137 179.559 201.025 179.574 200.91 179.59C199.744 179.428 198.884 178.671 198.09 177.858C197.989 177.757 197.888 177.657 197.784 177.553C197.454 177.223 197.126 176.891 196.798 176.559C196.567 176.328 196.336 176.096 196.105 175.865C195.622 175.38 195.14 174.895 194.659 174.409C194.045 173.788 193.429 173.169 192.813 172.551C192.221 171.958 191.631 171.365 191.041 170.771C190.929 170.659 190.818 170.547 190.703 170.432C189.611 169.332 188.527 168.237 187.526 167.053C187.297 166.806 187.068 166.56 186.838 166.314C185.152 164.435 183.738 162.408 182.6 160.156C182.546 160.05 182.492 159.944 182.436 159.835C180.734 156.435 180.187 152.507 181.286 148.825C181.859 147.17 182.639 145.753 183.749 144.391C183.828 144.286 183.907 144.18 183.988 144.072C187.965 138.975 195.591 139.215 200.499 142.585Z" fill="#FF6060"/>
<path d="M200.499 142.585C201.687 143.505 202.654 144.541 203.501 145.786C203.795 146.214 204.111 146.616 204.44 147.019C204.52 146.929 204.6 146.839 204.683 146.747C206.778 144.518 209.792 142.807 212.895 142.7C216.339 142.664 219.065 143.377 221.683 145.705C221.846 145.845 221.846 145.845 222.012 145.988C224.143 147.952 225.631 151.006 225.819 153.897C225.832 154.396 225.833 154.894 225.829 155.394C225.83 155.56 225.832 155.727 225.833 155.899C225.822 160.064 223.711 163.455 220.913 166.396C218.435 168.796 215.408 170.736 212.507 172.578C211.913 172.957 211.322 173.341 210.732 173.724C210.497 173.876 210.262 174.028 210.027 174.179C209.624 174.44 209.221 174.701 208.819 174.962C207.913 175.547 207.004 176.125 206.089 176.695C205.914 176.804 205.739 176.913 205.559 177.025C205.21 177.242 204.861 177.459 204.512 177.675C203.819 178.106 203.133 178.534 202.479 179.022C202.029 179.333 201.781 179.488 201.248 179.543C201.137 179.559 201.025 179.574 200.91 179.59C199.744 179.428 198.884 178.671 198.09 177.858C197.989 177.757 197.888 177.657 197.784 177.553C197.454 177.223 197.126 176.891 196.798 176.559C196.567 176.328 196.336 176.096 196.105 175.865C195.622 175.38 195.14 174.895 194.659 174.409C194.045 173.788 193.429 173.169 192.813 172.551C192.221 171.958 191.631 171.365 191.041 170.771C190.929 170.659 190.818 170.547 190.703 170.432C189.611 169.332 188.527 168.237 187.526 167.053C187.297 166.806 187.068 166.56 186.838 166.314C185.152 164.435 183.738 162.408 182.6 160.156C182.546 160.05 182.492 159.944 182.436 159.835C180.734 156.435 180.187 152.507 181.286 148.825C181.859 147.17 182.639 145.753 183.749 144.391C183.828 144.286 183.907 144.18 183.988 144.072C187.965 138.975 195.591 139.215 200.499 142.585ZM187.854 146.362C187.75 146.444 187.645 146.526 187.537 146.611C186.354 147.654 185.334 149.618 185.191 151.187C184.955 156.557 187.304 160.251 190.81 164.097C191.097 164.395 191.387 164.686 191.685 164.972C191.956 165.243 192.202 165.524 192.45 165.817C193.175 166.651 193.955 167.43 194.738 168.21C194.987 168.458 195.236 168.708 195.484 168.958C196.266 169.74 197.058 170.501 197.899 171.221C198.425 171.684 198.911 172.187 199.401 172.687C199.598 172.889 199.796 173.09 199.994 173.291C200.122 173.422 200.122 173.422 200.253 173.555C200.642 173.919 200.881 174.115 201.423 174.111C202.201 173.885 202.789 173.469 203.455 173.016C203.748 172.82 204.042 172.625 204.336 172.43C204.487 172.329 204.639 172.227 204.796 172.123C205.557 171.62 206.328 171.133 207.098 170.645C207.403 170.452 207.707 170.258 208.012 170.064C208.158 169.972 208.303 169.879 208.454 169.783C216.611 165.014 216.611 165.014 221.406 157.272C221.862 154.859 221.32 152.392 219.948 150.375C218.752 148.805 217.222 147.617 215.278 147.183C213.595 147.081 212.045 147.039 210.516 147.84C210.298 147.954 210.298 147.954 210.075 148.07C208.192 149.164 206.763 150.668 205.787 152.604C205.367 153.395 204.959 153.652 204.112 153.916C203.362 154.036 202.645 153.961 201.977 153.587C201.626 153.06 201.605 152.854 201.546 152.243C201.216 150.132 200.057 148.31 198.528 146.854C198.42 146.747 198.312 146.639 198.201 146.528C196.435 144.865 194.42 144.454 192.071 144.505C190.392 144.585 189.143 145.327 187.854 146.362Z" fill="black"/>
<path d="M163.058 142.811C165.277 144.764 167.001 147.816 167.328 150.795C167.685 156.648 165.408 161.593 161.601 165.963C161.216 166.387 160.825 166.802 160.431 167.217C160.255 167.421 160.081 167.627 159.907 167.833C159.227 168.619 158.479 169.342 157.737 170.069C157.238 170.561 156.756 171.058 156.302 171.591C155.607 172.389 154.869 173.14 154.124 173.891C153.979 174.038 153.834 174.184 153.684 174.335C153.379 174.642 153.074 174.949 152.768 175.256C152.379 175.648 151.991 176.041 151.604 176.434C151.231 176.813 150.856 177.189 150.48 177.566C150.343 177.706 150.205 177.847 150.063 177.992C149.173 178.878 148.5 179.427 147.232 179.615C145.989 179.444 145.023 178.625 144.023 177.911C142.983 177.195 141.902 176.537 140.832 175.866C139.94 175.305 139.053 174.739 138.165 174.172C137.399 173.683 136.632 173.197 135.861 172.717C133.072 170.972 130.351 169.112 127.916 166.889C127.822 166.802 127.727 166.716 127.63 166.627C124.729 163.944 122.445 160.505 122.256 156.448C122.25 156.083 122.249 155.718 122.251 155.352C122.252 155.159 122.253 154.966 122.254 154.768C122.319 151.589 123.501 148.907 125.617 146.526C125.71 146.422 125.803 146.317 125.898 146.21C127.837 144.157 130.592 142.831 133.411 142.71C137.233 142.623 140.318 143.64 143.188 146.197C143.461 146.418 143.734 146.637 144.009 146.854C144.115 146.702 144.22 146.549 144.328 146.392C146.498 143.275 149.439 140.882 153.274 140.193C156.825 139.76 160.22 140.605 163.058 142.811ZM148.771 147.713C147.607 149.135 146.823 150.735 146.693 152.577C146.63 152.972 146.515 153.246 146.308 153.587C145.59 154.036 144.665 154.035 143.845 153.916C143.085 153.582 142.854 153.188 142.511 152.448C141.224 149.936 139.055 148.209 136.429 147.212C134.454 146.636 132.452 147.131 130.687 148.096C128.661 149.417 127.251 151.236 126.695 153.608C126.657 153.874 126.626 154.141 126.603 154.408C126.589 154.556 126.576 154.703 126.562 154.855C126.44 157.602 127.481 160.197 129.312 162.219C132.569 165.634 136.953 168.036 140.917 170.535C141.721 171.044 142.523 171.557 143.324 172.07C143.591 172.241 143.858 172.412 144.125 172.582C144.288 172.687 144.452 172.791 144.62 172.899C144.773 172.996 144.925 173.093 145.083 173.194C145.412 173.408 145.729 173.631 146.047 173.861C146.541 174.155 146.729 174.194 147.294 174.114C147.733 173.813 147.733 173.813 148.172 173.367C148.262 173.282 148.351 173.196 148.443 173.108C148.774 172.79 149.102 172.467 149.428 172.143C149.565 172.009 149.702 171.874 149.843 171.736C150.904 170.69 151.958 169.637 153.01 168.583C153.354 168.238 153.699 167.894 154.044 167.55C154.38 167.214 154.716 166.878 155.051 166.542C155.286 166.308 155.52 166.074 155.755 165.84C159.566 162.015 162.942 157.789 162.946 152.174C162.914 149.904 162.087 148.106 160.585 146.403C159.102 145.013 156.963 144.298 154.957 144.351C152.407 144.586 150.457 145.839 148.771 147.713Z" fill="black"/>
<path d="M176.707 63.7973C177.493 64.3997 177.952 65.2938 178.088 66.2712C178.167 67.3328 177.825 68.3077 177.151 69.1234C176.858 69.4339 176.516 69.6824 176.137 69.8785C176.078 69.8785 176.019 69.8785 175.959 69.8785C176.263 70.3599 176.576 70.8349 176.896 71.3062C176.932 71.3593 176.968 71.4125 177.005 71.4673C177.154 71.6877 177.304 71.908 177.454 72.1281C177.918 72.8109 178.367 73.4992 178.792 74.2073C178.923 74.4239 179.06 74.6367 179.197 74.8498C180.535 76.9567 181.774 79.1376 182.989 81.3168C183.206 81.7044 183.425 82.0901 183.647 82.4748C183.839 82.391 183.961 82.29 184.105 82.1385C184.337 81.9017 184.578 81.6842 184.83 81.4695C184.965 81.3537 185.101 81.2379 185.236 81.122C185.272 81.0913 185.308 81.0606 185.345 81.0289C185.555 80.8498 185.761 80.6681 185.964 80.4826C186.236 80.2367 186.517 80.0051 186.802 79.7748C186.954 79.6513 187.105 79.5266 187.256 79.402C187.472 79.2235 187.688 79.0455 187.905 78.8674C187.945 78.8344 187.985 78.8015 188.026 78.7675C188.504 78.375 188.987 77.9923 189.479 77.619C189.817 77.362 190.148 77.0966 190.476 76.8265C190.737 76.6119 191.004 76.407 191.276 76.2062C191.241 76.1646 191.241 76.1646 191.206 76.1221C190.49 75.2419 190.162 74.1371 190.27 73.0128C190.433 72.0606 190.993 71.2306 191.741 70.6289C192.567 70.0474 193.489 69.9611 194.469 70.056C195.408 70.2381 196.341 70.8767 196.883 71.6564C197.384 72.5166 197.542 73.5368 197.314 74.512C197.058 75.4176 196.463 76.2064 195.652 76.6793C195.3 76.8509 194.974 76.9737 194.587 77.0342C194.589 77.0819 194.59 77.1297 194.592 77.1789C194.605 77.9979 194.534 78.8109 194.468 79.6266C194.458 79.752 194.448 79.8774 194.438 80.0028C194.323 81.4609 194.184 82.9161 194.027 84.3705C193.993 84.6902 193.96 85.0102 193.927 85.3301C193.872 85.8784 193.814 86.4265 193.755 86.9746C193.73 87.2007 193.706 87.4269 193.682 87.653C193.676 87.7108 193.669 87.7686 193.663 87.8281C193.551 88.8756 193.446 89.9237 193.342 90.9721C193.244 91.9558 193.146 92.9392 193.035 93.9216C193.028 93.9854 193.028 93.9854 193.021 94.0505C192.984 94.3739 192.947 94.6972 192.91 95.0205C192.875 95.3328 192.842 95.6451 192.813 95.9581C192.807 96.0173 192.8 96.0764 192.794 96.1374C192.77 96.4914 192.868 96.6693 193.078 96.9512C193.561 97.6485 193.415 98.7006 193.417 99.5061C193.417 99.5653 193.417 99.6245 193.417 99.6855C193.418 99.9984 193.419 100.311 193.419 100.624C193.419 100.946 193.421 101.267 193.422 101.588C193.423 101.837 193.424 102.086 193.424 102.335C193.424 102.454 193.424 102.572 193.425 102.691C193.435 104.251 193.435 104.251 193.065 104.696C189.924 107.391 183.117 107.158 179.205 107.317C179.111 107.32 179.111 107.32 179.014 107.324C177.667 107.378 176.322 107.39 174.974 107.387C174.658 107.386 174.343 107.387 174.027 107.387C161.476 107.41 161.476 107.41 156.022 104.764C155.413 104.139 155.539 103.085 155.541 102.277C155.541 102.162 155.541 102.047 155.541 101.932C155.541 101.692 155.541 101.452 155.541 101.212C155.542 100.906 155.542 100.601 155.541 100.295C155.54 100.058 155.541 99.8208 155.541 99.5835C155.541 99.471 155.541 99.3585 155.541 99.2459C155.537 97.2849 155.537 97.2849 156.064 96.6786C156.168 96.5187 156.164 96.4417 156.15 96.2531C156.146 96.1916 156.141 96.1301 156.137 96.0667C156.128 95.9636 156.128 95.9636 156.119 95.8583C156.11 95.7461 156.11 95.7461 156.101 95.6316C156.034 94.8049 155.945 93.9799 155.859 93.1551C155.781 92.4126 155.708 91.6698 155.64 90.9264C155.636 90.8833 155.632 90.8403 155.628 90.796C155.589 90.3684 155.55 89.9408 155.512 89.5132C155.501 89.3919 155.49 89.2707 155.479 89.1495C155.466 89.0015 155.452 88.8535 155.439 88.7054C155.4 88.2785 155.348 87.8548 155.29 87.4301C155.241 87.0546 155.205 86.678 155.169 86.3012C155.161 86.2151 155.153 86.1291 155.144 86.0431C155.122 85.8131 155.1 85.5831 155.079 85.3531C155.065 85.2088 155.051 85.0646 155.038 84.9203C154.854 82.978 154.704 81.034 154.567 79.0879C154.551 78.857 154.534 78.6261 154.517 78.3952C154.512 78.3189 154.506 78.2427 154.5 78.1641C154.49 78.019 154.479 77.874 154.469 77.7289C154.464 77.6643 154.459 77.5997 154.454 77.5332C154.45 77.4766 154.446 77.42 154.442 77.3617C154.434 77.233 154.433 77.1039 154.433 76.975C154.36 76.9726 154.287 76.9701 154.211 76.9676C153.478 76.8846 152.802 76.359 152.341 75.8054C151.941 75.2575 151.626 74.5853 151.595 73.8999C151.59 73.8283 151.59 73.8283 151.585 73.7553C151.549 72.7087 151.953 71.7647 152.659 71.0022C153.251 70.3675 154.09 70.0525 154.941 69.9783C155.92 69.9455 156.793 70.2194 157.545 70.8543C158.256 71.5324 158.702 72.4379 158.765 73.4231C158.751 74.3632 158.42 75.3321 157.762 76.0157C157.737 76.0395 157.712 76.0634 157.686 76.088C157.751 76.2827 157.785 76.3121 157.943 76.4301C157.985 76.4612 158.026 76.4922 158.068 76.5243C158.113 76.5571 158.157 76.59 158.203 76.6239C158.296 76.6933 158.388 76.7628 158.48 76.8323C158.526 76.8666 158.572 76.9008 158.619 76.9362C158.797 77.0695 158.973 77.205 159.149 77.3409C159.334 77.4832 159.519 77.6253 159.704 77.7665C160.186 78.1338 160.657 78.5135 161.126 78.8974C161.221 78.9752 161.316 79.0526 161.412 79.1301C161.99 79.6004 162.56 80.0789 163.111 80.5801C163.231 80.6883 163.352 80.7946 163.474 80.9003C163.732 81.1251 163.983 81.3563 164.235 81.5882C164.37 81.7132 164.507 81.8371 164.644 81.9606C164.715 82.0248 164.785 82.089 164.856 82.1532C164.89 82.1836 164.924 82.2139 164.959 82.2451C165.04 82.3193 165.118 82.3968 165.196 82.4748C165.196 82.5138 165.196 82.5529 165.196 82.5931C165.356 82.4502 165.445 82.299 165.545 82.1098C165.578 82.048 165.611 81.9862 165.644 81.9225C165.679 81.856 165.714 81.7894 165.751 81.7208C165.825 81.5802 165.9 81.4397 165.975 81.2992C166.004 81.2459 166.004 81.2459 166.033 81.1915C166.304 80.684 166.591 80.1846 166.876 79.6846C166.97 79.5177 167.064 79.3503 167.158 79.1827C167.562 78.4616 167.98 77.7502 168.407 77.0427C168.582 76.7531 168.755 76.462 168.926 76.1701C169.276 75.5724 169.639 74.9836 170.012 74.3999C170.109 74.2474 170.206 74.0944 170.302 73.9412C171.017 72.8064 171.778 71.7054 172.55 70.6086C172.721 70.3655 172.891 70.122 173.061 69.8785C173.015 69.8701 172.97 69.8617 172.922 69.853C172.381 69.7368 171.882 69.2814 171.576 68.836C171.009 67.9487 170.775 66.9652 170.971 65.9173C171.196 64.9881 171.676 64.1366 172.508 63.628C173.87 62.8757 175.408 62.8758 176.707 63.7973Z" fill="black"/>
<path d="M174.481 70.7656C174.706 70.9713 174.866 71.2055 175.035 71.4568C175.083 71.5282 175.083 71.5282 175.133 71.601C175.251 71.7757 175.368 71.9507 175.486 72.1258C175.536 72.2004 175.586 72.2749 175.637 72.3495C176.295 73.3279 176.947 74.3084 177.556 75.3192C177.589 75.3736 177.621 75.428 177.655 75.4841C178.229 76.433 178.794 77.3869 179.359 78.3406C179.512 78.5977 179.664 78.8546 179.817 79.1114C180.527 80.3059 181.231 81.5029 181.889 82.7272C182.108 83.1347 182.332 83.5396 182.56 83.9422C182.59 83.9944 182.619 84.0467 182.649 84.1006C182.677 84.1487 182.704 84.1968 182.733 84.2464C182.768 84.3095 182.768 84.3095 182.805 84.3739C182.88 84.4877 182.952 84.575 183.055 84.6629C183.215 84.6978 183.215 84.6978 183.392 84.6962C183.451 84.6987 183.509 84.7012 183.57 84.7038C184.145 84.5833 184.568 83.9878 184.96 83.5836C185.305 83.2302 185.655 82.9013 186.041 82.5936C186.241 82.4339 186.433 82.2664 186.626 82.0978C186.998 81.7734 187.374 81.4531 187.752 81.1349C187.847 81.0548 187.941 80.9741 188.035 80.8934C188.391 80.5895 188.751 80.2942 189.12 80.0069C189.39 79.797 189.655 79.5825 189.919 79.3664C192.635 77.1525 192.635 77.1525 192.931 77.1525C192.955 77.9987 192.882 78.8344 192.809 79.6769C192.8 79.7931 192.79 79.9093 192.78 80.0255C192.622 81.8883 192.429 83.7478 192.234 85.6071C192.222 85.7251 192.21 85.8431 192.197 85.9612C192.129 86.6088 192.061 87.2563 191.993 87.9039C191.9 88.7811 191.809 89.6584 191.719 90.536C191.713 90.5932 191.707 90.6505 191.701 90.7094C191.63 91.4127 191.559 92.1162 191.49 92.8198C191.466 93.0635 191.442 93.3072 191.418 93.5509C191.391 93.8248 191.365 94.0988 191.338 94.3728C191.324 94.5173 191.309 94.6618 191.295 94.8063C191.289 94.8714 191.283 94.9364 191.276 95.0035C191.236 95.405 191.177 95.7988 191.098 96.1947C188.308 96.8535 185.455 97.1912 182.602 97.4252C182.479 97.4353 182.357 97.4457 182.235 97.4562C181.784 97.4944 181.333 97.5242 180.881 97.5479C180.789 97.5527 180.698 97.5577 180.606 97.5627C178.633 97.6707 176.662 97.6843 174.686 97.6842C174.558 97.6842 174.429 97.6842 174.3 97.6843C172.743 97.685 171.187 97.6755 169.631 97.614C169.565 97.6114 169.498 97.6088 169.43 97.6061C169 97.5886 168.571 97.5675 168.142 97.5438C168.076 97.5401 168.011 97.5365 167.943 97.5328C165.319 97.3843 162.697 97.1446 160.11 96.6678C160.033 96.6536 160.033 96.6536 159.955 96.6392C158.12 96.3001 158.12 96.3001 157.804 96.1947C157.799 96.144 157.795 96.0933 157.79 96.041C157.745 95.5517 157.7 95.0624 157.654 94.5732C157.631 94.3219 157.608 94.0707 157.585 93.8194C157.482 92.6995 157.373 91.5807 157.25 90.4628C157.168 89.7203 157.095 88.9775 157.031 88.2333C156.974 87.5675 156.91 86.9032 156.834 86.2393C156.717 85.218 156.633 84.194 156.546 83.1699C156.528 82.9642 156.51 82.7585 156.493 82.5528C156.406 81.5439 156.321 80.5348 156.238 79.5255C156.23 79.4328 156.223 79.3401 156.215 79.2474C156.157 78.5497 156.113 77.8522 156.089 77.1525C156.397 77.3206 156.675 77.5085 156.954 77.7217C156.995 77.7529 157.036 77.7841 157.079 77.8162C157.202 77.9101 157.326 78.0043 157.449 78.0987C157.484 78.1251 157.518 78.1515 157.554 78.1788C158.02 78.5343 158.481 78.8959 158.942 79.2588C159.044 79.3392 159.146 79.4192 159.249 79.4992C160.297 80.3181 161.314 81.1668 162.298 82.0609C162.706 82.4295 162.706 82.4295 163.119 82.7927C163.669 83.2741 164.195 83.7737 164.708 84.2951C164.766 84.3539 164.766 84.3539 164.825 84.4139C164.877 84.4667 164.877 84.4667 164.93 84.5205C165.109 84.6879 165.272 84.6799 165.51 84.6888C165.577 84.6924 165.644 84.6959 165.713 84.6996C165.926 84.6589 166 84.6011 166.126 84.4269C166.287 84.1724 166.434 83.9107 166.578 83.6465C166.614 83.5818 166.65 83.5171 166.687 83.4504C166.763 83.3132 166.839 83.176 166.914 83.0387C167.101 82.6999 167.289 82.3619 167.477 82.0239C167.532 81.9237 167.532 81.9237 167.589 81.8214C168.154 80.8043 168.728 79.7941 169.323 78.7943C169.577 78.3685 169.828 77.941 170.078 77.513C170.5 76.79 170.929 76.0717 171.368 75.3586C171.462 75.205 171.556 75.051 171.649 74.8969C172.517 73.4751 173.436 72.0645 174.481 70.7656Z" fill="#F8E482"/>
<path d="M157.272 97.7913C157.774 97.8306 158.264 97.9181 158.759 98.0082C160.893 98.3947 163.037 98.7174 165.196 98.9149C165.24 98.919 165.285 98.9232 165.331 98.9274C168.289 99.1991 171.251 99.2305 174.219 99.2258C174.538 99.2254 174.857 99.2256 175.176 99.226C177.114 99.229 179.048 99.2278 180.983 99.1071C181.295 99.0875 181.608 99.0717 181.92 99.0556C184.582 98.9083 187.226 98.4972 189.851 98.0512C189.89 98.0446 189.929 98.038 189.969 98.0311C190.18 97.9951 190.391 97.9577 190.601 97.9189C190.646 97.9107 190.691 97.9025 190.738 97.894C190.824 97.8783 190.91 97.8623 190.996 97.8459C191.23 97.8032 191.452 97.7779 191.69 97.7913C191.803 97.905 191.756 98.0744 191.756 98.2256C191.756 98.2796 191.756 98.3336 191.755 98.3892C191.755 98.4457 191.755 98.5023 191.755 98.5605C191.755 98.7483 191.755 98.9362 191.754 99.124C191.754 99.2539 191.754 99.3837 191.754 99.5136C191.754 99.8561 191.753 100.199 191.753 100.541C191.752 100.89 191.752 101.24 191.752 101.589C191.751 102.274 191.75 102.96 191.749 103.646C191.673 103.684 191.597 103.722 191.521 103.761C191.478 103.782 191.436 103.803 191.392 103.825C188.28 105.352 184.095 105.382 180.712 105.583C180.653 105.586 180.595 105.59 180.534 105.593C178.628 105.705 176.722 105.728 174.813 105.727C174.757 105.727 174.7 105.727 174.642 105.727C172.634 105.726 170.631 105.696 168.626 105.597C168.563 105.594 168.501 105.591 168.436 105.588C160.268 105.193 160.268 105.193 157.212 103.646C157.211 102.9 157.21 102.154 157.209 101.408C157.209 101.062 157.209 100.716 157.208 100.369C157.207 100.035 157.207 99.7014 157.207 99.3674C157.207 99.2398 157.207 99.1121 157.206 98.9845C157.206 98.8062 157.206 98.6279 157.206 98.4496C157.206 98.3964 157.205 98.3432 157.205 98.2884C157.206 97.9231 157.206 97.9231 157.272 97.7913Z" fill="#F8E482"/>
<path d="M175.971 84.3165C177.279 85.1851 177.847 86.4014 178.195 87.8835C178.485 89.4482 178.191 91.2183 177.378 92.5872C177.231 92.794 177.072 92.9868 176.905 93.1786C176.868 93.2273 176.831 93.276 176.793 93.3262C176.357 93.8453 175.682 94.2369 175.013 94.3613C173.99 94.4323 173.225 94.1907 172.431 93.5186C171.297 92.4544 170.799 90.8725 170.74 89.3504C170.702 87.8543 170.965 86.2106 172.025 85.0736C173.113 83.9596 174.554 83.4881 175.971 84.3165Z" fill="black"/>
<path d="M174.842 85.5212C175.463 85.7824 175.943 86.4264 176.196 87.0283C176.638 88.1872 176.813 89.7546 176.314 90.9314C176.298 90.9701 176.282 91.0088 176.265 91.0487C175.961 91.7575 175.562 92.3507 174.895 92.7646C174.574 92.8715 174.248 92.8824 173.941 92.735C173.857 92.6619 173.857 92.6619 173.771 92.5872C173.735 92.5575 173.699 92.5279 173.661 92.4973C173.024 91.9301 172.736 91.0858 172.529 90.2808C172.51 90.2077 172.492 90.1346 172.472 90.0593C172.201 88.8755 172.337 87.6013 172.963 86.5395C173.437 85.8743 173.976 85.3092 174.842 85.5212Z" fill="#7D5232"/>
<path d="M175.368 64.9111C175.894 65.194 176.17 65.6461 176.349 66.2015C176.466 66.816 176.398 67.3568 176.054 67.8744C175.747 68.2736 175.272 68.5409 174.777 68.6368C174.217 68.6868 173.659 68.5091 173.225 68.1496C172.786 67.7085 172.648 67.2482 172.622 66.6409C172.63 66.1247 172.8 65.7375 173.066 65.3029C173.73 64.7091 174.552 64.5773 175.368 64.9111Z" fill="#F8E482"/>
<path d="M194.639 71.8167C195.198 72.14 195.51 72.5884 195.711 73.1902C195.756 73.7034 195.722 74.222 195.42 74.6532C195.067 75.0629 194.627 75.4479 194.071 75.5164C193.378 75.5258 192.844 75.3269 192.34 74.8461C191.926 74.3371 191.924 73.6973 191.985 73.0719C192.096 72.5914 192.435 72.2221 192.817 71.9262C193.339 71.6372 194.078 71.5897 194.639 71.8167Z" fill="#F8E482"/>
<path d="M156.207 71.9484C156.641 72.2517 156.931 72.6067 157.035 73.1312C157.087 73.7551 157.012 74.3008 156.621 74.8055C156.277 75.1687 155.764 75.4109 155.266 75.4516C154.635 75.4659 154.234 75.332 153.77 74.9014C153.352 74.4503 153.276 74.0288 153.29 73.4248C153.333 72.9173 153.549 72.4758 153.899 72.1074C154.596 71.5286 155.435 71.514 156.207 71.9484Z" fill="#F8E482"/>
</svg>
