<svg width="350" height="350" viewBox="0 0 350 350" fill="none" xmlns="http://www.w3.org/2000/svg">
<path d="M127.735 37.6103C128.556 38.3296 129.346 39.0766 130.132 39.8332C130.291 39.9771 130.449 40.1209 130.613 40.2691C133.228 42.7154 135.304 45.8825 137.137 48.939C137.24 49.1096 137.343 49.2802 137.449 49.456C145.977 63.6796 151.749 82.1552 151.612 98.9039C151.93 98.8132 151.93 98.8132 152.253 98.7207C154.38 98.1305 156.49 97.6969 158.675 97.3717C158.837 97.3475 158.998 97.3233 159.164 97.2984C160.153 97.1506 161.142 97.0077 162.132 96.8676C162.55 96.8078 162.968 96.7453 163.385 96.6827C174.796 94.993 186.379 96.4872 197.608 98.6704C197.598 98.4062 197.588 98.1419 197.578 97.8697C197.581 96.0908 197.854 94.3305 198.09 92.5707C198.115 92.3782 198.141 92.1856 198.167 91.9873C200.369 75.5726 204.475 57.4366 215.119 44.2693C215.225 44.1371 215.33 44.0049 215.439 43.8687C220.735 37.2675 227.838 31.726 236.366 30.2605C241.475 29.9503 245.616 30.186 249.689 33.5146C251.126 34.8541 252.035 36.4782 252.943 38.1988C253.064 38.4264 253.185 38.6539 253.309 38.8883C254.654 41.635 255.074 44.6599 255.092 47.6904C255.094 47.8792 255.095 48.0681 255.097 48.2627C255.101 48.8724 255.103 49.482 255.103 50.0918C255.103 50.4053 255.103 50.4053 255.103 50.7251C255.099 54.1434 254.929 57.4724 254.344 60.8465C254.286 61.1907 254.286 61.1907 254.227 61.5419C250.903 80.68 242.286 99.4922 230.062 114.547C230.759 115.38 231.454 116.186 232.236 116.94C233.321 118.008 234.249 119.198 235.199 120.384C235.353 120.569 235.507 120.754 235.666 120.945C237.905 123.658 239.755 126.678 241.503 129.723C241.587 129.868 241.67 130.013 241.757 130.162C246.839 139.021 249.962 149.79 249.939 160.034C249.939 160.264 249.939 160.494 249.94 160.73C249.94 161.212 249.939 161.693 249.938 162.175C249.937 162.907 249.938 163.639 249.94 164.371C249.94 164.842 249.939 165.313 249.939 165.783C249.939 166 249.94 166.216 249.94 166.438C249.936 167.76 249.842 169.038 249.675 170.349C249.897 170.365 249.897 170.365 250.124 170.381C250.801 170.431 251.478 170.485 252.155 170.539C252.389 170.555 252.622 170.572 252.862 170.589C254.121 170.693 255.127 170.81 256.212 171.517C256.777 172.195 256.904 172.605 257 173.487C256.901 174.423 256.755 174.949 256.212 175.719C254.943 176.412 254.014 176.496 252.593 176.361C252.425 176.349 252.257 176.337 252.083 176.324C251.04 176.243 250.009 176.111 248.974 175.953C248.45 177.477 247.984 179.013 247.544 180.564C247.482 180.779 247.421 180.993 247.357 181.214C247.298 181.422 247.238 181.63 247.177 181.844C247.124 182.03 247.071 182.216 247.017 182.408C246.868 182.977 246.749 183.547 246.639 184.125C246.885 184.209 247.13 184.294 247.383 184.382C251.832 185.96 251.832 185.96 252.943 187.627C253.099 188.429 253.106 189.16 252.943 189.962C252.355 190.809 251.672 191.236 250.708 191.572C249.493 191.608 248.522 191.138 247.413 190.677C246.974 190.498 246.536 190.321 246.097 190.145C245.807 190.025 245.807 190.025 245.512 189.903C244.984 189.69 244.984 189.69 244.304 189.728C243.928 190.305 243.596 190.875 243.268 191.479C241.557 194.509 239.481 197.26 237.067 199.768C236.881 199.964 236.881 199.964 236.692 200.164C232.952 204.111 228.619 207.049 223.773 209.501C223.539 209.62 223.539 209.62 223.3 209.741C222.629 210.07 222.181 210.274 221.423 210.274C221.423 210.429 221.423 210.583 221.423 210.741C221.611 210.79 221.798 210.838 221.992 210.887C223.092 211.311 223.978 211.935 224.94 212.609C225.137 212.746 225.333 212.882 225.535 213.022C228.255 214.922 230.82 216.981 233.331 219.147C233.498 219.29 233.666 219.434 233.838 219.582C234.295 219.978 234.748 220.378 235.199 220.781C235.39 220.951 235.582 221.121 235.779 221.295C238.892 224.099 241.999 227.011 244.538 230.354C244.715 230.573 244.891 230.793 245.073 231.019C249.151 236.147 254.311 243.288 253.644 250.2C253.623 250.48 253.623 250.48 253.603 250.766C253.23 253.799 251.491 256.844 249.208 258.838C247.714 259.954 246.076 260.625 244.304 261.173C244.146 261.226 243.987 261.279 243.823 261.334C238.589 262.806 232.527 260.708 227.777 258.579C227.592 258.496 227.406 258.413 227.215 258.328C227.076 258.265 226.937 258.203 226.793 258.138C226.848 258.548 226.848 258.548 226.903 258.966C228.76 273.042 229.851 287.145 229.886 301.343C229.887 301.805 229.889 302.267 229.891 302.729C229.914 310.039 229.855 317.607 224.671 323.353C222.146 325.756 218.911 327.08 215.586 327.949C215.414 327.994 215.242 328.04 215.064 328.087C212.954 328.555 210.791 328.511 208.64 328.515C207.96 328.518 207.28 328.529 206.6 328.541C203.101 328.572 200.158 327.987 197.039 326.344C196.885 326.264 196.73 326.184 196.571 326.102C193.093 324.259 190.445 321.323 189.201 317.551C188.313 314.623 187.857 311.579 187.335 308.57C187.228 307.965 187.12 307.361 187.012 306.756C186.885 306.038 186.76 305.319 186.635 304.601C186.352 304.622 186.352 304.622 186.064 304.644C179.723 305.108 173.445 305.179 167.095 304.849C166.801 304.834 166.801 304.834 166.501 304.818C165.944 304.789 165.387 304.758 164.831 304.726C164.664 304.717 164.498 304.708 164.327 304.698C163.567 304.653 162.849 304.591 162.119 304.367C162.103 304.564 162.103 304.564 162.086 304.764C161.433 312.003 160.412 319.883 154.634 324.875C153.847 325.454 153.049 325.926 152.182 326.373C151.978 326.48 151.978 326.48 151.77 326.589C148.442 328.2 145.229 328.602 141.572 328.555C140.873 328.547 140.174 328.55 139.475 328.555C135.941 328.553 132.612 328.144 129.373 326.636C129.114 326.516 129.114 326.516 128.849 326.395C124.902 324.503 122.393 321.52 120.793 317.442C120.66 317.107 120.66 317.107 120.525 316.765C118.907 312.137 119.041 307.037 119.068 302.202C119.071 301.689 119.073 301.175 119.074 300.661C119.112 287.241 119.997 273.907 121.715 260.597C121.736 260.428 121.758 260.259 121.78 260.086C121.869 259.405 121.976 258.792 122.194 258.138C121.942 258.24 121.69 258.342 121.43 258.446C115.144 260.956 108.84 263.06 102.249 260.382C98.9617 258.828 97.0912 256.388 95.8105 253.001C94.2508 248.347 96.2019 243.598 98.2629 239.454C101.888 232.56 107.572 226.044 113.479 221.011C113.916 220.638 114.347 220.261 114.776 219.88C118.685 216.426 122.878 213.233 127.33 210.508C127.194 210.435 127.058 210.363 126.918 210.288C119.563 206.349 112.783 201.86 107.951 194.865C107.851 194.719 107.75 194.573 107.646 194.423C106.594 192.892 105.591 191.35 104.683 189.728C103.631 189.916 102.657 190.153 101.668 190.554C101.425 190.652 101.425 190.652 101.177 190.752C100.854 190.884 100.532 191.021 100.211 191.162C99.0668 191.63 98.3937 191.622 97.2114 191.129C96.4967 190.506 96.1344 190.139 95.9318 189.218C95.8731 188.279 95.9938 187.721 96.4379 186.883C97.948 185.338 100.296 184.762 102.348 184.358C102.277 184.115 102.277 184.115 102.205 183.867C101.989 183.116 101.774 182.366 101.56 181.615C101.486 181.36 101.412 181.105 101.336 180.842C100.854 179.146 100.497 177.465 100.247 175.719C99.9818 175.791 99.7169 175.864 99.444 175.938C98.3405 176.181 97.2416 176.293 96.1169 176.376C95.9478 176.391 95.7787 176.406 95.6044 176.422C94.4622 176.494 93.7404 176.332 92.7752 175.719C92.0739 174.901 91.9609 174.178 92.01 173.134C92.1113 172.43 92.3036 172.049 92.7752 171.517C94.1443 170.788 95.4308 170.653 96.9633 170.539C97.1898 170.52 97.4162 170.501 97.6496 170.481C98.2038 170.435 98.7581 170.391 99.3127 170.349C99.2751 170.093 99.2376 169.838 99.1989 169.574C99.0482 168.361 99.0371 167.155 99.0318 165.934C99.0298 165.568 99.0298 165.568 99.0277 165.195C99.0255 164.679 99.024 164.164 99.0231 163.648C99.0209 162.878 99.0136 162.108 99.0062 161.338C98.9842 156.953 99.4041 152.668 100.378 148.387C100.436 148.13 100.494 147.873 100.554 147.608C101.709 142.725 103.386 137.954 105.617 133.459C105.719 133.248 105.822 133.038 105.928 132.821C108.503 127.576 111.669 122.655 115.634 118.349C116.098 117.843 116.55 117.329 116.999 116.809C117.614 116.102 118.252 115.433 118.925 114.781C118.611 114.044 118.174 113.483 117.658 112.876C113.97 108.508 110.883 103.461 108.185 98.437C108.071 98.2264 107.957 98.0157 107.839 97.7988C101.004 85.1364 95.9832 71.1921 94.1761 56.8773C94.1554 56.7154 94.1348 56.5535 94.1135 56.3867C93.9649 55.1526 93.8993 53.9345 93.887 52.692C93.8847 52.5002 93.8823 52.3084 93.88 52.1108C93.8172 45.5773 93.9777 38.9966 98.8457 33.9962C99.0031 33.8297 99.1605 33.6633 99.3227 33.4918C101.163 31.6988 103.548 30.6234 106.084 30.2605C106.334 30.2221 106.334 30.2221 106.589 30.1829C114.407 29.147 121.905 32.6302 127.735 37.6103Z" fill="white"/>
<path d="M127.735 37.6103C128.556 38.3296 129.346 39.0766 130.132 39.8332C130.291 39.9771 130.449 40.1209 130.613 40.2691C133.228 42.7154 135.304 45.8825 137.137 48.939C137.24 49.1096 137.343 49.2802 137.449 49.456C145.977 63.6796 151.749 82.1552 151.612 98.9039C151.93 98.8132 151.93 98.8132 152.253 98.7207C154.38 98.1305 156.49 97.6969 158.675 97.3717C158.837 97.3475 158.998 97.3233 159.164 97.2984C160.153 97.1506 161.142 97.0077 162.132 96.8676C162.55 96.8078 162.968 96.7453 163.385 96.6827C174.796 94.993 186.379 96.4872 197.608 98.6704C197.598 98.4062 197.588 98.1419 197.578 97.8697C197.581 96.0908 197.854 94.3305 198.09 92.5707C198.115 92.3782 198.141 92.1856 198.167 91.9873C200.369 75.5726 204.475 57.4366 215.119 44.2693C215.225 44.1371 215.33 44.0049 215.439 43.8687C220.735 37.2675 227.838 31.726 236.366 30.2605C241.475 29.9503 245.616 30.186 249.689 33.5146C251.126 34.8541 252.035 36.4782 252.943 38.1988C253.064 38.4264 253.185 38.6539 253.309 38.8883C254.654 41.635 255.074 44.6599 255.092 47.6904C255.094 47.8792 255.095 48.0681 255.097 48.2627C255.101 48.8724 255.103 49.482 255.103 50.0918C255.103 50.4053 255.103 50.4053 255.103 50.7251C255.099 54.1434 254.929 57.4724 254.344 60.8465C254.286 61.1907 254.286 61.1907 254.227 61.5419C250.903 80.68 242.286 99.4922 230.062 114.547C230.759 115.38 231.454 116.186 232.236 116.94C233.321 118.008 234.249 119.198 235.199 120.384C235.353 120.569 235.507 120.754 235.666 120.945C237.905 123.658 239.755 126.678 241.503 129.723C241.587 129.868 241.67 130.013 241.757 130.162C246.839 139.021 249.962 149.79 249.939 160.034C249.939 160.264 249.939 160.494 249.94 160.73C249.94 161.212 249.939 161.693 249.938 162.175C249.937 162.907 249.938 163.639 249.94 164.371C249.94 164.842 249.939 165.313 249.939 165.783C249.939 166 249.94 166.216 249.94 166.438C249.936 167.76 249.842 169.038 249.675 170.349C249.897 170.365 249.897 170.365 250.124 170.381C250.801 170.431 251.478 170.485 252.155 170.539C252.389 170.555 252.622 170.572 252.862 170.589C254.121 170.693 255.127 170.81 256.212 171.517C256.777 172.195 256.904 172.605 257 173.487C256.901 174.423 256.755 174.949 256.212 175.719C254.943 176.412 254.014 176.496 252.593 176.361C252.425 176.349 252.257 176.337 252.083 176.324C251.04 176.243 250.009 176.111 248.974 175.953C248.45 177.477 247.984 179.013 247.544 180.564C247.482 180.779 247.421 180.993 247.357 181.214C247.298 181.422 247.238 181.63 247.177 181.844C247.124 182.03 247.071 182.216 247.017 182.408C246.868 182.977 246.749 183.547 246.639 184.125C246.885 184.209 247.13 184.294 247.383 184.382C251.832 185.96 251.832 185.96 252.943 187.627C253.099 188.429 253.106 189.16 252.943 189.962C252.355 190.809 251.672 191.236 250.708 191.572C249.493 191.608 248.522 191.138 247.413 190.677C246.974 190.498 246.536 190.321 246.097 190.145C245.807 190.025 245.807 190.025 245.512 189.903C244.984 189.69 244.984 189.69 244.304 189.728C243.928 190.305 243.596 190.875 243.268 191.479C241.557 194.509 239.481 197.26 237.067 199.768C236.881 199.964 236.881 199.964 236.692 200.164C232.952 204.111 228.619 207.049 223.773 209.501C223.539 209.62 223.539 209.62 223.3 209.741C222.629 210.07 222.181 210.274 221.423 210.274C221.423 210.429 221.423 210.583 221.423 210.741C221.611 210.79 221.798 210.838 221.992 210.887C223.092 211.311 223.978 211.935 224.94 212.609C225.137 212.746 225.333 212.882 225.535 213.022C228.255 214.922 230.82 216.981 233.331 219.147C233.498 219.29 233.666 219.434 233.838 219.582C234.295 219.978 234.748 220.378 235.199 220.781C235.39 220.951 235.582 221.121 235.779 221.295C238.892 224.099 241.999 227.011 244.538 230.354C244.715 230.573 244.891 230.793 245.073 231.019C249.151 236.147 254.311 243.288 253.644 250.2C253.623 250.48 253.623 250.48 253.603 250.766C253.23 253.799 251.491 256.844 249.208 258.838C247.714 259.954 246.076 260.625 244.304 261.173C244.146 261.226 243.987 261.279 243.823 261.334C238.589 262.806 232.527 260.708 227.777 258.579C227.592 258.496 227.406 258.413 227.215 258.328C227.076 258.265 226.937 258.203 226.793 258.138C226.848 258.548 226.848 258.548 226.903 258.966C228.76 273.042 229.851 287.145 229.886 301.343C229.887 301.805 229.889 302.267 229.891 302.729C229.914 310.039 229.855 317.607 224.671 323.353C222.146 325.756 218.911 327.08 215.586 327.949C215.414 327.994 215.242 328.04 215.064 328.087C212.954 328.555 210.791 328.511 208.64 328.515C207.96 328.518 207.28 328.529 206.6 328.541C203.101 328.572 200.158 327.987 197.039 326.344C196.885 326.264 196.73 326.184 196.571 326.102C193.093 324.259 190.445 321.323 189.201 317.551C188.313 314.623 187.857 311.579 187.335 308.57C187.228 307.965 187.12 307.361 187.012 306.756C186.885 306.038 186.76 305.319 186.635 304.601C186.352 304.622 186.352 304.622 186.064 304.644C179.723 305.108 173.445 305.179 167.095 304.849C166.801 304.834 166.801 304.834 166.501 304.818C165.944 304.789 165.387 304.758 164.831 304.726C164.664 304.717 164.498 304.708 164.327 304.698C163.567 304.653 162.849 304.591 162.119 304.367C162.103 304.564 162.103 304.564 162.086 304.764C161.433 312.003 160.412 319.883 154.634 324.875C153.847 325.454 153.049 325.926 152.182 326.373C151.978 326.48 151.978 326.48 151.77 326.589C148.442 328.2 145.229 328.602 141.572 328.555C140.873 328.547 140.174 328.55 139.475 328.555C135.941 328.553 132.612 328.144 129.373 326.636C129.114 326.516 129.114 326.516 128.849 326.395C124.902 324.503 122.393 321.52 120.793 317.442C120.66 317.107 120.66 317.107 120.525 316.765C118.907 312.137 119.041 307.037 119.068 302.202C119.071 301.689 119.073 301.175 119.074 300.661C119.112 287.241 119.997 273.907 121.715 260.597C121.736 260.428 121.758 260.259 121.78 260.086C121.869 259.405 121.976 258.792 122.194 258.138C121.942 258.24 121.69 258.342 121.43 258.446C115.144 260.956 108.84 263.06 102.249 260.382C98.9617 258.828 97.0912 256.388 95.8105 253.001C94.2508 248.347 96.2019 243.598 98.2629 239.454C101.888 232.56 107.572 226.044 113.479 221.011C113.916 220.638 114.347 220.261 114.776 219.88C118.685 216.426 122.878 213.233 127.33 210.508C127.194 210.435 127.058 210.363 126.918 210.288C119.563 206.349 112.783 201.86 107.951 194.865C107.851 194.719 107.75 194.573 107.646 194.423C106.594 192.892 105.591 191.35 104.683 189.728C103.631 189.916 102.657 190.153 101.668 190.554C101.425 190.652 101.425 190.652 101.177 190.752C100.854 190.884 100.532 191.021 100.211 191.162C99.0668 191.63 98.3937 191.622 97.2114 191.129C96.4967 190.506 96.1344 190.139 95.9318 189.218C95.8731 188.279 95.9938 187.721 96.4379 186.883C97.948 185.338 100.296 184.762 102.348 184.358C102.277 184.115 102.277 184.115 102.205 183.867C101.989 183.116 101.774 182.366 101.56 181.615C101.486 181.36 101.412 181.105 101.336 180.842C100.854 179.146 100.497 177.465 100.247 175.719C99.9818 175.791 99.7169 175.864 99.444 175.938C98.3405 176.181 97.2416 176.293 96.1169 176.376C95.9478 176.391 95.7787 176.406 95.6044 176.422C94.4622 176.494 93.7404 176.332 92.7752 175.719C92.0739 174.901 91.9609 174.178 92.01 173.134C92.1113 172.43 92.3036 172.049 92.7752 171.517C94.1443 170.788 95.4308 170.653 96.9633 170.539C97.1898 170.52 97.4162 170.501 97.6496 170.481C98.2038 170.435 98.7581 170.391 99.3127 170.349C99.2751 170.093 99.2376 169.838 99.1989 169.574C99.0482 168.361 99.0371 167.155 99.0318 165.934C99.0298 165.568 99.0298 165.568 99.0277 165.195C99.0255 164.679 99.024 164.164 99.0231 163.648C99.0209 162.878 99.0136 162.108 99.0062 161.338C98.9842 156.953 99.4041 152.668 100.378 148.387C100.436 148.13 100.494 147.873 100.554 147.608C101.709 142.725 103.386 137.954 105.617 133.459C105.719 133.248 105.822 133.038 105.928 132.821C108.503 127.576 111.669 122.655 115.634 118.349C116.098 117.843 116.55 117.329 116.999 116.809C117.614 116.102 118.252 115.433 118.925 114.781C118.611 114.044 118.174 113.483 117.658 112.876C113.97 108.508 110.883 103.461 108.185 98.437C108.071 98.2264 107.957 98.0157 107.839 97.7988C101.004 85.1364 95.9832 71.1921 94.1761 56.8773C94.1554 56.7154 94.1348 56.5535 94.1135 56.3867C93.9649 55.1526 93.8993 53.9345 93.887 52.692C93.8847 52.5002 93.8823 52.3084 93.88 52.1108C93.8172 45.5773 93.9777 38.9966 98.8457 33.9962C99.0031 33.8297 99.1605 33.6633 99.3227 33.4918C101.163 31.6988 103.548 30.6234 106.084 30.2605C106.334 30.2221 106.334 30.2221 106.589 30.1829C114.407 29.147 121.905 32.6302 127.735 37.6103ZM102.653 39.6672C100.441 43.1606 100.147 46.9947 100.159 51.0403C100.159 51.2111 100.159 51.3819 100.16 51.558C100.183 57.5994 101.281 63.4197 102.815 69.2518C102.883 69.5131 102.952 69.7744 103.023 70.0436C104.798 76.6734 107.386 83.1184 110.286 89.3312C110.385 89.5438 110.484 89.7563 110.586 89.9753C113.174 95.4663 116.35 100.698 119.903 105.617C120.03 105.793 120.157 105.969 120.289 106.151C121.965 108.45 123.766 110.651 125.64 112.792C126.276 113.571 126.404 114.118 126.367 115.116C125.956 116.792 124.817 117.797 123.58 118.91C123.265 119.2 122.949 119.491 122.634 119.781C122.48 119.924 122.325 120.066 122.166 120.212C112.449 129.187 106.589 142.619 105.15 155.64C105.128 155.824 105.106 156.009 105.084 156.199C104.889 158.027 104.873 159.852 104.873 161.688C104.872 162.216 104.868 162.744 104.864 163.272C104.855 165.588 105.04 167.826 105.383 170.116C105.793 170.129 105.793 170.129 106.21 170.142C106.572 170.157 106.933 170.173 107.295 170.189C107.474 170.194 107.654 170.199 107.839 170.205C108.911 170.255 109.649 170.36 110.52 171.05C111.097 171.916 111.114 172.614 110.987 173.618C110.701 174.276 110.495 174.65 109.892 175.041C109.183 175.319 108.536 175.353 107.776 175.398C107.503 175.416 107.23 175.433 106.948 175.451C106.74 175.463 106.532 175.474 106.317 175.486C106.394 177.068 106.696 178.529 107.105 180.053C107.154 180.242 107.203 180.431 107.253 180.626C107.385 181.099 107.549 181.562 107.718 182.023C108.433 182.262 108.818 182.248 109.557 182.198C110.448 182.193 110.704 182.225 111.483 182.724C111.968 183.499 112.092 183.943 112.036 184.842C111.84 185.605 111.347 185.976 110.753 186.459C110.518 186.691 110.284 186.924 110.053 187.16C111.849 190.469 113.994 193.311 116.59 196.032C116.763 196.217 116.936 196.402 117.114 196.593C122.442 202.146 129.924 205.556 137.297 207.351C138.623 207.69 139.572 207.941 140.405 209.107C140.753 210.083 140.751 210.944 140.347 211.894C139.537 212.849 138.714 212.956 137.545 213.135C131.767 214.134 126.621 217.807 122.194 221.482C121.894 221.724 121.593 221.966 121.293 222.208C119.01 224.054 116.829 225.975 114.722 228.019C114.528 228.207 114.334 228.395 114.134 228.588C110.443 232.172 110.443 232.172 107.251 236.191C107.033 236.503 107.033 236.503 106.811 236.821C102.245 243.149 102.245 243.149 101.181 250.667C101.616 252.266 102.263 253.681 103.711 254.581C103.95 254.695 104.189 254.81 104.435 254.928C104.673 255.044 104.911 255.161 105.156 255.282C108.474 256.659 112.603 255.685 115.797 254.403C117.04 253.882 118.268 253.327 119.494 252.768C119.757 252.649 120.02 252.53 120.291 252.407C120.543 252.29 120.795 252.173 121.055 252.053C121.28 251.949 121.505 251.845 121.736 251.738C122.078 251.555 122.078 251.555 122.427 251.367C122.564 251.299 122.701 251.23 122.842 251.16C124.3 250.307 124.584 249.049 125.032 247.494C125.114 247.228 125.196 246.963 125.28 246.69C125.541 245.843 125.794 244.994 126.046 244.144C128.724 235.237 128.724 235.237 130.253 234.132C130.98 233.786 131.436 233.756 132.234 233.856C133.116 234.257 133.522 234.59 133.868 235.49C134.049 237.904 133.185 240.157 132.413 242.399C132.057 243.435 131.714 244.475 131.37 245.515C131.302 245.72 131.234 245.925 131.164 246.136C127.917 255.965 126.524 266.216 125.738 276.503C125.694 277.08 125.648 277.658 125.603 278.235C125.042 285.464 124.831 292.682 124.762 299.931C124.76 300.123 124.758 300.314 124.756 300.512C124.294 310.467 124.294 310.467 128.481 319.091C130.708 321.244 133.435 322.095 136.436 322.579C136.624 322.61 136.812 322.64 137.005 322.672C141.75 323.281 147.185 323.067 151.218 320.288C153.554 318.411 154.4 315.774 154.998 312.933C155.047 312.707 155.095 312.48 155.146 312.247C155.6 310.047 155.906 307.83 156.181 305.602C156.837 300.407 156.837 300.407 157.814 299.406C159.528 298.175 162.093 298.724 164.106 298.931C167.234 299.249 170.341 299.295 173.483 299.279C174.336 299.274 175.189 299.274 176.043 299.274C178.44 299.271 180.835 299.256 183.23 299.126C183.396 299.117 183.562 299.108 183.733 299.099C184.564 299.046 185.354 298.935 186.168 298.764C186.829 298.712 187.489 298.71 188.152 298.705C188.327 298.701 188.501 298.696 188.68 298.691C189.738 298.683 190.48 298.73 191.304 299.464C192.1 300.847 192.242 302.339 192.457 303.9C192.537 304.445 192.617 304.99 192.698 305.535C192.738 305.808 192.778 306.082 192.819 306.364C193.607 313.988 193.607 313.988 197.591 320.158C202.09 323.124 207.863 323.489 213.065 322.49C213.28 322.443 213.496 322.395 213.718 322.345C213.951 322.3 214.184 322.254 214.423 322.208C217.656 321.506 220.185 320.035 222.088 317.286C223.605 314.703 224.027 311.782 224.026 308.825C224.027 308.563 224.027 308.563 224.028 308.296C224.03 307.72 224.031 307.145 224.031 306.57C224.032 306.16 224.032 305.75 224.033 305.34C224.035 304.477 224.035 303.614 224.035 302.751C224.035 301.886 224.036 301.021 224.04 300.156C224.07 291.994 223.788 283.845 223.05 275.713C223.034 275.527 223.017 275.342 223 275.15C222.01 264.444 220.394 254.077 216.983 243.864C216.894 243.596 216.894 243.596 216.803 243.324C216.517 242.463 216.226 241.604 215.926 240.747C215.235 238.733 214.533 236.557 215.455 234.513C216.322 233.9 217.102 233.769 218.155 233.856C219.724 234.605 220.313 236.612 220.871 238.156C221.301 239.379 221.713 240.609 222.124 241.838C222.266 242.259 222.408 242.68 222.551 243.101C222.62 243.307 222.69 243.513 222.761 243.725C222.9 244.136 223.039 244.545 223.179 244.955C223.492 245.876 223.791 246.794 224.046 247.732C224.565 249.647 224.565 249.647 225.902 251.046C226.271 251.242 226.647 251.427 227.027 251.601C227.308 251.748 227.308 251.748 227.595 251.899C228.183 252.204 228.776 252.488 229.376 252.768C229.695 252.918 229.695 252.918 230.021 253.071C231.869 253.929 233.733 254.693 235.666 255.336C235.85 255.398 236.033 255.46 236.223 255.524C238.926 256.276 242.246 256.058 244.771 254.869C246.42 253.826 247.203 252.478 247.807 250.667C248.346 244.607 244.019 238.849 240.339 234.396C239.56 233.502 238.762 232.628 237.954 231.76C237.322 231.081 236.706 230.389 236.089 229.697C235.286 228.812 234.459 228.009 233.545 227.241C233.073 226.831 232.642 226.396 232.207 225.947C231.314 225.042 230.356 224.249 229.363 223.456C228.759 222.962 228.179 222.449 227.6 221.926C223.111 217.919 217.228 213.833 211.121 213.076C210.184 212.951 209.791 212.871 208.99 212.332C208.486 211.521 208.348 210.997 208.348 210.041C208.636 209.125 208.931 208.731 209.691 208.144C210.655 207.653 211.689 207.418 212.732 207.151C219.239 205.482 225.219 202.558 230.296 198.133C230.523 197.937 230.751 197.74 230.986 197.538C234.254 194.666 236.871 191.22 238.934 187.393C238.934 187.239 238.934 187.085 238.934 186.926C238.674 186.791 238.414 186.657 238.146 186.518C237.643 186.226 237.328 186.027 236.964 185.569C236.684 184.48 236.659 183.728 237.227 182.738C238.433 181.988 239.652 182.165 241.036 182.257C241.267 181.479 241.494 180.701 241.722 179.922C241.786 179.704 241.851 179.485 241.918 179.261C242.285 177.998 242.548 176.795 242.67 175.486C242.366 175.481 242.366 175.481 242.055 175.476C239.584 175.373 239.584 175.373 238.759 174.683C238.03 173.853 237.908 173.342 237.917 172.226C238.057 171.428 238.553 171.065 239.168 170.583C239.938 170.197 240.8 170.26 241.649 170.218C241.836 170.208 242.023 170.198 242.216 170.187C242.679 170.162 243.141 170.139 243.604 170.116C246.226 155.882 241.731 140.213 233.837 128.351C231.125 124.447 228.099 120.78 224.337 117.849C223.393 117.034 222.668 116.252 222.489 115C222.678 113.294 223.811 112.156 224.94 110.928C228.684 106.853 231.771 102.072 234.498 97.2696C234.654 96.9951 234.654 96.9951 234.813 96.7152C239.973 87.5704 244.032 77.7953 246.639 67.6174C246.694 67.4078 246.749 67.1982 246.806 66.9822C248.153 61.7898 248.827 56.501 248.828 51.1424C248.829 50.9845 248.829 50.8265 248.83 50.6638C248.829 47.8571 248.638 45.07 247.719 42.4015C247.626 42.1222 247.533 41.8429 247.436 41.5551C246.582 39.5148 245.03 37.7883 242.994 36.8946C241.953 36.5184 240.999 36.4385 239.898 36.4477C239.706 36.4492 239.514 36.4507 239.316 36.4523C234.333 36.5971 230.049 39.1156 226.093 41.9345C225.899 42.0709 225.705 42.2072 225.506 42.3477C211.836 52.452 207.237 72.8294 204.819 88.6546C204.175 92.9594 203.703 97.2812 203.332 101.618C203.314 101.813 203.296 102.009 203.277 102.21C203.245 102.558 203.216 102.907 203.191 103.256C203.089 104.323 202.807 104.922 202.044 105.675C200.259 106.27 198.679 105.669 196.937 105.164C191.839 103.748 186.767 102.879 181.498 102.406C181.128 102.372 181.128 102.372 180.75 102.338C171.473 101.552 161.993 102.612 153.013 104.974C152.463 105.119 151.912 105.263 151.361 105.405C150.923 105.518 150.486 105.636 150.049 105.753C148.956 105.973 148.018 106.075 146.987 105.617C146.185 104.976 146.037 104.465 145.889 103.448C145.857 103.113 145.828 102.778 145.8 102.444C145.765 102.066 145.73 101.688 145.695 101.31C145.678 101.111 145.66 100.912 145.642 100.707C144.066 83.1877 140.708 64.5473 130.366 49.8729C130.226 49.6745 130.226 49.6745 130.084 49.4722C128.89 47.7919 127.587 46.2261 126.163 44.7363C126.033 44.5968 125.903 44.4573 125.769 44.3136C124.568 43.0603 123.268 42.0692 121.829 41.1027C121.602 40.95 121.376 40.7973 121.142 40.64C119.372 39.4681 117.646 38.4817 115.656 37.7319C115.43 37.6445 115.43 37.6445 115.199 37.5553C113.223 36.8134 111.348 36.4581 109.236 36.4331C109.046 36.4297 108.856 36.4262 108.661 36.4227C106.172 36.4653 104.121 37.6805 102.653 39.6672Z" fill="black"/>
<path d="M188.288 230.827C194.843 236.487 198.171 245.347 198.97 253.896C199.347 258.802 199.533 264.044 198.141 268.792C198.077 269.022 198.077 269.022 198.012 269.257C197.089 272.517 195.342 275.209 193.003 277.596C192.843 277.762 192.683 277.928 192.518 278.099C187.095 283.367 179.348 284.17 172.235 284.042C170.728 283.996 169.264 283.822 167.78 283.544C167.622 283.515 167.464 283.485 167.301 283.455C161.823 282.399 156.876 279.743 153.614 274.991C148.916 267.766 149.188 257.461 150.816 249.263C152.432 241.762 156.181 233.584 162.679 229.237C162.898 229.099 163.117 228.961 163.343 228.819C163.478 228.733 163.613 228.646 163.753 228.557C171.892 223.4 181.024 225.013 188.288 230.827Z" fill="#F4A99C"/>
<path d="M175.194 221.481C175.622 221.51 175.622 221.51 176.059 221.539C183.451 222.153 189.855 225.568 194.655 231.19C198.567 235.916 201.214 241.571 202.803 247.471C202.885 247.769 202.885 247.769 202.969 248.073C203.933 251.838 204.264 255.656 204.237 259.531C204.233 260.169 204.237 260.806 204.241 261.444C204.245 264.835 203.97 268.238 202.832 271.461C202.773 271.631 202.714 271.802 202.654 271.977C200.351 278.349 195.811 283.473 189.719 286.455C181.141 290.441 170.135 290.647 161.275 287.446C157.077 285.856 153.178 283.23 150.445 279.618C150.276 279.397 150.108 279.175 149.934 278.947C144.029 270.808 143.858 260.912 145.317 251.293C145.67 249.083 146.239 246.951 146.943 244.83C147.027 244.574 147.027 244.574 147.112 244.313C147.875 242.035 148.878 239.897 149.995 237.773C150.187 237.404 150.374 237.032 150.56 236.66C153.841 230.264 160.033 224.856 166.847 222.59C169.527 221.83 172.403 221.272 175.194 221.481ZM159.084 233.389C158.917 233.556 158.75 233.723 158.578 233.895C154.492 238.234 152.169 244.029 150.853 249.762C150.818 249.915 150.783 250.068 150.746 250.225C150.098 253.261 149.9 256.282 149.917 259.376C149.92 259.935 149.917 260.494 149.914 261.053C149.908 267.34 151.453 273.274 155.859 277.925C161.349 283.179 168.795 284.203 176.093 284.097C182.926 283.931 189.256 281.691 194.048 276.722C194.902 275.736 195.571 274.683 196.207 273.548C196.332 273.329 196.457 273.111 196.586 272.886C197.551 271.09 198.129 269.236 198.542 267.244C198.605 266.952 198.605 266.952 198.669 266.655C199.077 264.544 199.082 262.467 199.067 260.327C199.067 260.14 199.066 259.954 199.065 259.761C199.053 257.095 199.009 254.466 198.542 251.834C198.513 251.67 198.484 251.507 198.455 251.338C197.378 245.457 195.217 239.618 191.304 235.023C191.018 234.677 191.018 234.677 190.726 234.323C189.125 232.443 187.274 231.029 185.234 229.653C185.029 229.511 184.825 229.369 184.614 229.223C176.315 223.809 165.586 226.799 159.084 233.389Z" fill="black"/>
<path d="M233.097 57.3442C233.809 57.8107 234.382 58.3625 234.965 58.9786C235.143 59.1567 235.322 59.3349 235.505 59.5185C237.601 62.8563 236.59 67.2096 235.795 70.8013C235.264 73.0528 234.555 75.2395 233.798 77.4236C233.735 77.6078 233.672 77.792 233.607 77.9818C233.266 78.9777 232.916 79.9698 232.555 80.9586C232.407 81.3653 232.261 81.773 232.116 82.1807C231.414 84.0907 230.533 85.881 229.604 87.6875C229.368 88.151 229.137 88.6168 228.908 89.0839C226.136 94.7378 223.001 100.438 218.855 105.208C218.676 105.414 218.676 105.414 218.494 105.624C218.121 106.048 217.745 106.468 217.367 106.886C217.253 107.012 217.139 107.139 217.021 107.269C216.173 108.181 215.459 108.851 214.208 109.053C213.059 109.065 212.298 109.064 211.281 108.491C209.783 106.7 209.37 105.43 209.516 103.106C209.64 101.953 209.812 100.808 209.997 99.6626C210.036 99.4213 210.036 99.4213 210.075 99.175C212.123 86.4015 216.015 67.519 227.246 59.358C229.004 58.129 230.885 56.9518 233.097 57.3442Z" fill="#F4A99C"/>
<path d="M117.634 57.4054C117.829 57.4623 118.024 57.5191 118.225 57.5777C118.415 57.6322 118.605 57.6867 118.801 57.7428C124.639 59.7656 127.956 65.9392 130.491 71.157C131.995 74.3337 133.205 77.6002 134.335 80.9259C134.4 81.1136 134.465 81.3013 134.532 81.4947C136.59 87.483 137.844 93.686 138.865 99.9219C139.031 100.936 139.205 101.948 139.38 102.96C139.67 104.896 139.65 106.177 138.491 107.805C137.815 108.509 137.208 108.889 136.242 109.061C134.799 109.09 133.81 109.016 132.711 108.041C125.73 100.753 120.669 91.1057 116.824 81.8598C116.696 81.5674 116.567 81.2753 116.438 80.9833C115.079 77.8598 114.059 74.6152 113.088 71.3531C113.035 71.1768 112.982 71.0005 112.927 70.8188C112.34 68.7892 112.302 66.7258 112.256 64.626C112.247 64.3584 112.238 64.0908 112.229 63.8151C112.222 61.5713 112.931 60.2876 114.303 58.5673C115.404 57.5319 116.118 57.0989 117.634 57.4054Z" fill="#F4A99C"/>
<path d="M227.381 165.713C229.736 167.472 231.388 169.548 231.864 172.491C232.216 175.982 231.8 178.665 229.608 181.462C228.027 183.31 225.929 184.548 223.525 185.058C220.199 185.228 217.593 185.076 214.886 182.957C214.745 182.85 214.603 182.744 214.457 182.634C212.834 181.232 211.407 178.561 211.15 176.42C210.919 173.175 211.499 170.628 213.485 168.014C213.738 167.653 213.738 167.653 213.996 167.285C217.361 163.427 223.235 163.04 227.381 165.713Z" fill="#F4A99C"/>
<path d="M132.876 165.723C135.212 167.297 136.798 169.431 137.477 172.167C138.01 175.32 137.644 178.346 135.838 181.045C134.174 183.168 132.051 184.478 129.432 185.058C125.71 185.283 123.081 184.737 120.116 182.369C118.527 180.94 117.234 178.545 117.007 176.406C116.826 172.915 117.275 170.278 119.512 167.477C123.125 163.558 128.383 163.062 132.876 165.723Z" fill="#F4A99C"/>
<path d="M174.61 162.819C174.862 162.818 175.113 162.816 175.372 162.814C178.818 162.822 178.818 162.822 180.142 163.674C180.929 164.623 181.215 165.326 181.122 166.568C180.842 168.141 179.981 169.728 178.697 170.703C178.003 171.146 177.378 171.489 176.595 171.75C176.462 174.015 176.737 176.254 178.229 178.054C179.346 179.171 180.53 179.387 182.053 179.528C183.725 179.384 185.35 178.934 186.635 177.821C187.086 177.223 187.507 176.615 187.915 175.986C188.269 175.486 188.269 175.486 188.736 175.252C189.763 175.134 190.263 175.192 191.173 175.705C191.869 176.536 191.968 176.923 191.892 177.977C191.479 179.841 189.93 181.334 188.428 182.412C185.483 184.286 182.251 184.578 178.839 183.988C177.327 183.517 176.307 182.621 175.193 181.516C174.775 181.037 174.775 181.037 174.26 181.089C174.116 181.292 173.971 181.494 173.822 181.702C172.793 183.003 170.959 183.791 169.357 184.125C165.724 184.416 162.707 184.12 159.784 181.79C158.569 180.726 157.376 179.674 157.144 178C157.094 177.078 157.088 176.59 157.654 175.836C158.533 175.215 159.105 175.152 160.164 175.274C161.106 175.634 161.461 176.418 161.974 177.249C162.698 178.342 163.705 178.791 164.921 179.221C166.749 179.54 168.621 179.677 170.291 178.755C171.63 177.594 172.099 176.016 172.392 174.318C172.433 174.092 172.474 173.866 172.515 173.633C172.585 172.929 172.601 172.427 172.392 171.75C171.846 171.27 171.301 170.978 170.651 170.656C169.167 169.889 168.472 168.378 167.956 166.847C167.805 165.883 167.894 165.555 168.379 164.702C170.006 162.61 172.096 162.801 174.61 162.819Z" fill="black"/>
<path d="M209.552 153.633C211.471 155.151 212.233 157.152 212.531 159.535C212.578 161.344 212.108 163.127 210.917 164.512C209.372 166.134 207.907 166.856 205.663 166.934C203.591 166.859 202.151 166.277 200.648 164.827C199.154 163.091 198.825 161.315 198.912 159.061C199.157 156.9 199.942 155.223 201.577 153.772C203.895 152.104 207.161 152.074 209.552 153.633Z" fill="black"/>
<path d="M146.943 153.538C148.626 154.555 149.371 156.386 149.978 158.208C150.171 160.881 149.854 162.879 148.135 164.975C146.581 166.463 144.641 166.934 142.554 166.912C140.911 166.769 139.392 166.091 138.196 164.946C136.59 163.006 136.413 160.842 136.614 158.425C136.848 156.539 137.815 155.004 139.238 153.772C141.682 152.031 144.331 152.26 146.943 153.538Z" fill="black"/>
<path d="M149.834 130.161C150.321 130.534 150.555 130.85 150.661 131.43C150.742 132.648 149.935 133.45 149.151 134.318C146.226 137.473 141.771 139.671 137.368 139.965C137.104 139.977 136.839 139.983 136.574 139.988C136.486 139.992 136.397 139.996 136.306 140C135.626 140.009 135.17 139.841 134.647 139.419C134.249 138.965 134.139 138.542 134.173 137.95C134.269 137.315 134.629 136.975 135.119 136.581C135.457 136.354 135.775 136.331 136.175 136.31C140.009 136.08 143.432 134.771 146.146 132.108C146.447 131.774 146.699 131.429 146.951 131.061C147.634 130.084 148.628 129.585 149.834 130.161Z" fill="black"/>
<path d="M198.25 130.161C197.763 130.534 197.529 130.85 197.423 131.43C197.342 132.648 198.149 133.45 198.933 134.318C201.858 137.473 206.313 139.671 210.716 139.965C210.98 139.977 211.245 139.983 211.51 139.988C211.598 139.992 211.687 139.996 211.778 140C212.458 140.009 212.914 139.841 213.437 139.419C213.835 138.965 213.945 138.542 213.911 137.95C213.815 137.315 213.455 136.975 212.965 136.581C212.627 136.354 212.309 136.331 211.909 136.31C208.075 136.08 204.652 134.771 201.938 132.108C201.637 131.774 201.385 131.429 201.133 131.061C200.45 130.084 199.456 129.585 198.25 130.161Z" fill="black"/>
<mask id="mask0_635_1668" style="mask-type:alpha" maskUnits="userSpaceOnUse" x="134" y="153" width="15" height="23">
<path d="M142.337 153.753C143.911 153.708 145.325 154.242 146.474 155.32C147.135 155.96 147.562 156.646 147.924 157.484C147.957 157.559 147.99 157.634 148.024 157.712C148.496 159.041 148.307 160.609 147.725 161.861C147.487 162.353 147.222 162.8 146.851 163.206C146.794 163.27 146.737 163.334 146.678 163.399C145.716 164.418 144.328 165.162 142.906 165.215C142.744 165.216 142.583 165.215 142.421 165.213C142.365 165.213 142.31 165.213 142.252 165.212C142.116 165.212 141.98 165.21 141.844 165.209C141.862 165.284 141.88 165.359 141.899 165.436C143.322 171.368 143.322 171.368 142.064 173.526C141.502 174.43 140.468 175.075 139.444 175.33C138.09 175.528 136.882 175.31 135.746 174.526C134.88 173.83 134.333 172.738 134.191 171.647C133.897 168.522 136.409 165.669 138.268 163.421C138.121 163.174 137.969 162.932 137.812 162.692C137.009 161.423 136.585 159.896 136.921 158.398C137.326 156.79 138.213 155.439 139.627 154.551C140.485 154.072 141.357 153.807 142.337 153.753Z" fill="black"/>
</mask>
<g mask="url(#mask0_635_1668)">
<rect x="134.167" y="163.255" width="9.74162" height="12.061" fill="black"/>
<path d="M139.699 164.851C141.456 170.323 141.456 170.323 140.7 172.147C140.384 172.755 139.927 173.186 139.289 173.442C138.554 173.666 137.883 173.655 137.195 173.292C136.61 172.883 136.19 172.359 136.051 171.647C135.83 169.342 137.712 167.063 139.069 165.388C139.513 164.851 139.513 164.851 139.699 164.851Z" fill="#AADCE7"/>
</g>
<mask id="mask1_635_1668" style="mask-type:alpha" maskUnits="userSpaceOnUse" x="200" y="153" width="15" height="23">
<path d="M206.121 153.753C204.547 153.708 203.133 154.242 201.984 155.32C201.323 155.96 200.896 156.646 200.534 157.484C200.501 157.559 200.468 157.634 200.434 157.712C199.962 159.041 200.151 160.609 200.733 161.861C200.971 162.353 201.236 162.8 201.607 163.206C201.664 163.27 201.721 163.334 201.78 163.399C202.742 164.418 204.13 165.162 205.552 165.215C205.714 165.216 205.875 165.215 206.037 165.213C206.093 165.213 206.148 165.213 206.206 165.212C206.342 165.212 206.478 165.21 206.614 165.209C206.596 165.284 206.578 165.359 206.559 165.436C205.136 171.368 205.136 171.368 206.394 173.526C206.956 174.43 207.99 175.075 209.014 175.33C210.368 175.528 211.576 175.31 212.712 174.526C213.578 173.83 214.125 172.738 214.267 171.647C214.561 168.522 212.049 165.669 210.19 163.421C210.337 163.174 210.489 162.932 210.646 162.692C211.449 161.423 211.873 159.896 211.537 158.398C211.132 156.79 210.245 155.439 208.831 154.551C207.973 154.072 207.101 153.807 206.121 153.753Z" fill="black"/>
</mask>
<g mask="url(#mask1_635_1668)">
<rect width="9.74162" height="12.061" transform="matrix(-1 0 0 1 214.291 163.255)" fill="black"/>
<path d="M208.76 164.851C207.003 170.323 207.003 170.323 207.758 172.147C208.075 172.755 208.532 173.186 209.17 173.442C209.905 173.666 210.576 173.655 211.264 173.292C211.849 172.883 212.269 172.359 212.408 171.647C212.629 169.342 210.747 167.063 209.39 165.388C208.946 164.851 208.946 164.851 208.76 164.851Z" fill="#AADCE7"/>
</g>
<path d="M176.707 62.7972C177.493 63.3996 177.952 64.2937 178.088 65.271C178.167 66.3326 177.825 67.3076 177.151 68.1233C176.858 68.4337 176.516 68.6823 176.137 68.8784C176.078 68.8784 176.019 68.8784 175.959 68.8784C176.263 69.3598 176.576 69.8347 176.896 70.306C176.932 70.3592 176.968 70.4124 177.005 70.4672C177.154 70.6876 177.304 70.9079 177.454 71.128C177.918 71.8108 178.367 72.4991 178.792 73.2072C178.923 73.4238 179.06 73.6366 179.197 73.8497C180.535 75.9566 181.774 78.1375 182.989 80.3166C183.206 80.7043 183.425 81.09 183.647 81.4747C183.839 81.3909 183.961 81.2899 184.105 81.1383C184.337 80.9015 184.578 80.6841 184.83 80.4693C184.965 80.3536 185.101 80.2378 185.236 80.1219C185.272 80.0912 185.308 80.0605 185.345 80.0288C185.555 79.8497 185.761 79.668 185.964 79.4825C186.236 79.2366 186.517 79.005 186.802 78.7747C186.954 78.6512 187.105 78.5265 187.256 78.4019C187.472 78.2234 187.688 78.0454 187.905 77.8673C187.945 77.8343 187.985 77.8013 188.026 77.7674C188.504 77.3749 188.987 76.9921 189.479 76.6189C189.817 76.3619 190.148 76.0965 190.476 75.8264C190.737 75.6118 191.004 75.4069 191.276 75.2061C191.241 75.1645 191.241 75.1645 191.206 75.1219C190.49 74.2418 190.162 73.137 190.27 72.0127C190.433 71.0604 190.993 70.2305 191.741 69.6287C192.567 69.0473 193.489 68.961 194.469 69.0558C195.408 69.238 196.341 69.8766 196.883 70.6562C197.384 71.5164 197.542 72.5366 197.314 73.5119C197.058 74.4175 196.463 75.2063 195.652 75.6792C195.3 75.8508 194.974 75.9736 194.587 76.034C194.589 76.0818 194.59 76.1296 194.592 76.1788C194.605 76.9978 194.534 77.8108 194.468 78.6265C194.458 78.7519 194.448 78.8773 194.438 79.0026C194.323 80.4608 194.184 81.916 194.027 83.3703C193.993 83.6901 193.96 84.01 193.927 84.33C193.872 84.8783 193.814 85.4264 193.755 85.9744C193.73 86.2006 193.706 86.4267 193.682 86.6529C193.676 86.7107 193.669 86.7684 193.663 86.8279C193.551 87.8755 193.446 88.9236 193.342 89.972C193.244 90.9557 193.146 91.9391 193.035 92.9215C193.028 92.9853 193.028 92.9853 193.021 93.0504C192.984 93.3738 192.947 93.6971 192.91 94.0204C192.875 94.3327 192.842 94.645 192.813 94.958C192.807 95.0171 192.8 95.0763 192.794 95.1373C192.77 95.4913 192.868 95.6692 193.078 95.9511C193.561 96.6484 193.415 97.7005 193.417 98.506C193.417 98.5652 193.417 98.6244 193.417 98.6854C193.418 98.9983 193.419 99.3113 193.419 99.6242C193.419 99.9456 193.421 100.267 193.422 100.588C193.423 100.837 193.424 101.086 193.424 101.335C193.424 101.454 193.424 101.572 193.425 101.69C193.435 103.251 193.435 103.251 193.065 103.696C189.924 106.391 183.117 106.158 179.205 106.317C179.111 106.32 179.111 106.32 179.014 106.324C177.667 106.378 176.322 106.39 174.974 106.387C174.658 106.386 174.343 106.387 174.027 106.387C161.476 106.41 161.476 106.41 156.022 103.764C155.413 103.139 155.539 102.085 155.541 101.277C155.541 101.162 155.541 101.047 155.541 100.932C155.541 100.692 155.541 100.452 155.541 100.212C155.542 99.9062 155.542 99.6007 155.541 99.2952C155.54 99.0579 155.541 98.8207 155.541 98.5834C155.541 98.4709 155.541 98.3583 155.541 98.2458C155.537 96.2848 155.537 96.2848 156.064 95.6785C156.168 95.5185 156.164 95.4416 156.15 95.253C156.146 95.1915 156.141 95.13 156.137 95.0666C156.128 94.9635 156.128 94.9635 156.119 94.8582C156.11 94.746 156.11 94.746 156.101 94.6315C156.034 93.8048 155.945 92.9798 155.859 92.155C155.781 91.4125 155.708 90.6697 155.64 89.9262C155.636 89.8832 155.632 89.8402 155.628 89.7959C155.589 89.3683 155.55 88.9407 155.512 88.513C155.501 88.3918 155.49 88.2706 155.479 88.1494C155.466 88.0014 155.452 87.8533 155.439 87.7053C155.4 87.2783 155.348 86.8547 155.29 86.43C155.241 86.0545 155.205 85.6779 155.169 85.301C155.161 85.215 155.153 85.129 155.144 85.043C155.122 84.813 155.1 84.583 155.079 84.3529C155.065 84.2087 155.051 84.0644 155.038 83.9202C154.854 81.9779 154.704 80.0339 154.567 78.0878C154.551 77.8569 154.534 77.626 154.517 77.3951C154.512 77.3188 154.506 77.2426 154.5 77.164C154.49 77.0189 154.479 76.8738 154.469 76.7288C154.464 76.6642 154.459 76.5996 154.454 76.5331C154.45 76.4765 154.446 76.4199 154.442 76.3616C154.434 76.2329 154.433 76.1038 154.433 75.9749C154.36 75.9725 154.287 75.97 154.211 75.9675C153.478 75.8845 152.802 75.3589 152.341 74.8053C151.941 74.2574 151.626 73.5852 151.595 72.8998C151.59 72.8282 151.59 72.8282 151.585 72.7552C151.549 71.7086 151.953 70.7646 152.659 70.002C153.251 69.3674 154.09 69.0524 154.941 68.9782C155.92 68.9454 156.793 69.2193 157.545 69.8542C158.256 70.5323 158.702 71.4378 158.765 72.423C158.751 73.3631 158.42 74.332 157.762 75.0155C157.737 75.0394 157.712 75.0633 157.686 75.0878C157.751 75.2826 157.785 75.312 157.943 75.43C157.985 75.461 158.026 75.4921 158.068 75.5241C158.113 75.557 158.157 75.5899 158.203 75.6238C158.296 75.6932 158.388 75.7627 158.48 75.8321C158.526 75.8664 158.572 75.9007 158.619 75.936C158.797 76.0694 158.973 76.2049 159.149 76.3408C159.334 76.4831 159.519 76.6251 159.704 76.7663C160.186 77.1337 160.657 77.5134 161.126 77.8973C161.221 77.975 161.316 78.0525 161.412 78.13C161.99 78.6003 162.56 79.0788 163.111 79.58C163.231 79.6882 163.352 79.7945 163.474 79.9001C163.732 80.1249 163.983 80.3561 164.235 80.5881C164.37 80.7131 164.507 80.837 164.644 80.9605C164.715 81.0247 164.785 81.0889 164.856 81.1531C164.89 81.1834 164.924 81.2138 164.959 81.245C165.04 81.3192 165.118 81.3966 165.196 81.4747C165.196 81.5137 165.196 81.5527 165.196 81.593C165.356 81.4501 165.445 81.2989 165.545 81.1097C165.578 81.0479 165.611 80.9861 165.644 80.9224C165.679 80.8558 165.714 80.7893 165.751 80.7207C165.825 80.5801 165.9 80.4395 165.975 80.2991C166.004 80.2458 166.004 80.2458 166.033 80.1914C166.304 79.6838 166.591 79.1845 166.876 78.6845C166.97 78.5175 167.064 78.3502 167.158 78.1826C167.562 77.4614 167.98 76.7501 168.407 76.0426C168.582 75.7529 168.755 75.4619 168.926 75.17C169.276 74.5723 169.639 73.9835 170.012 73.3998C170.109 73.2473 170.206 73.0943 170.302 72.9411C171.017 71.8062 171.778 70.7053 172.55 69.6085C172.721 69.3654 172.891 69.1219 173.061 68.8784C173.015 68.87 172.97 68.8616 172.922 68.8529C172.381 68.7366 171.882 68.2813 171.576 67.8359C171.009 66.9486 170.775 65.9651 170.971 64.9171C171.196 63.988 171.676 63.1364 172.508 62.6279C173.87 61.8756 175.408 61.8757 176.707 62.7972Z" fill="black"/>
<path d="M174.481 69.7656C174.706 69.9713 174.866 70.2055 175.035 70.4568C175.083 70.5282 175.083 70.5282 175.133 70.601C175.251 70.7757 175.368 70.9507 175.486 71.1258C175.536 71.2004 175.586 71.2749 175.637 71.3495C176.295 72.3279 176.947 73.3084 177.556 74.3192C177.589 74.3736 177.621 74.428 177.655 74.4841C178.229 75.433 178.794 76.3869 179.359 77.3406C179.512 77.5977 179.664 77.8546 179.817 78.1114C180.527 79.3059 181.231 80.5029 181.889 81.7272C182.108 82.1347 182.332 82.5396 182.56 82.9422C182.59 82.9944 182.619 83.0467 182.649 83.1006C182.677 83.1487 182.704 83.1968 182.733 83.2464C182.768 83.3095 182.768 83.3095 182.805 83.3739C182.88 83.4877 182.952 83.575 183.055 83.6629C183.215 83.6978 183.215 83.6978 183.392 83.6962C183.451 83.6987 183.509 83.7012 183.57 83.7038C184.145 83.5833 184.568 82.9878 184.96 82.5836C185.305 82.2302 185.655 81.9013 186.041 81.5936C186.241 81.4339 186.433 81.2664 186.626 81.0978C186.998 80.7734 187.374 80.4531 187.752 80.1349C187.847 80.0548 187.941 79.9741 188.035 79.8934C188.391 79.5895 188.751 79.2942 189.12 79.0069C189.39 78.797 189.655 78.5825 189.919 78.3664C192.635 76.1525 192.635 76.1525 192.931 76.1525C192.955 76.9987 192.882 77.8344 192.809 78.6769C192.8 78.7931 192.79 78.9093 192.78 79.0255C192.622 80.8883 192.429 82.7478 192.234 84.6071C192.222 84.7251 192.21 84.8431 192.197 84.9612C192.129 85.6088 192.061 86.2563 191.993 86.9039C191.9 87.7811 191.809 88.6584 191.719 89.536C191.713 89.5932 191.707 89.6505 191.701 89.7094C191.63 90.4127 191.559 91.1162 191.49 91.8198C191.466 92.0635 191.442 92.3072 191.418 92.5509C191.391 92.8248 191.365 93.0988 191.338 93.3728C191.324 93.5173 191.309 93.6618 191.295 93.8063C191.289 93.8714 191.283 93.9364 191.276 94.0035C191.236 94.405 191.177 94.7988 191.098 95.1947C188.308 95.8535 185.455 96.1912 182.602 96.4252C182.479 96.4353 182.357 96.4457 182.235 96.4562C181.784 96.4944 181.333 96.5242 180.881 96.5479C180.789 96.5527 180.698 96.5577 180.606 96.5627C178.633 96.6707 176.662 96.6843 174.686 96.6842C174.558 96.6842 174.429 96.6842 174.3 96.6843C172.743 96.685 171.187 96.6755 169.631 96.614C169.565 96.6114 169.498 96.6088 169.43 96.6061C169 96.5886 168.571 96.5675 168.142 96.5438C168.076 96.5401 168.011 96.5365 167.943 96.5328C165.319 96.3843 162.697 96.1446 160.11 95.6678C160.033 95.6536 160.033 95.6536 159.955 95.6392C158.12 95.3001 158.12 95.3001 157.804 95.1947C157.799 95.144 157.795 95.0933 157.79 95.041C157.745 94.5517 157.7 94.0624 157.654 93.5732C157.631 93.3219 157.608 93.0707 157.585 92.8194C157.482 91.6995 157.373 90.5807 157.25 89.4628C157.168 88.7203 157.095 87.9775 157.031 87.2333C156.974 86.5675 156.91 85.9032 156.834 85.2393C156.717 84.218 156.633 83.194 156.546 82.1699C156.528 81.9642 156.51 81.7585 156.493 81.5528C156.406 80.5439 156.321 79.5348 156.238 78.5255C156.23 78.4328 156.223 78.3401 156.215 78.2474C156.157 77.5497 156.113 76.8522 156.089 76.1525C156.397 76.3206 156.675 76.5085 156.954 76.7217C156.995 76.7529 157.036 76.7841 157.079 76.8162C157.202 76.9101 157.326 77.0043 157.449 77.0987C157.484 77.1251 157.518 77.1515 157.554 77.1788C158.02 77.5343 158.481 77.8959 158.942 78.2588C159.044 78.3392 159.146 78.4192 159.249 78.4992C160.297 79.3181 161.314 80.1668 162.298 81.0609C162.706 81.4295 162.706 81.4295 163.119 81.7927C163.669 82.2741 164.195 82.7737 164.708 83.2951C164.766 83.3539 164.766 83.3539 164.825 83.4139C164.877 83.4667 164.877 83.4667 164.93 83.5205C165.109 83.6879 165.272 83.6799 165.51 83.6888C165.577 83.6924 165.644 83.6959 165.713 83.6996C165.926 83.6589 166 83.6011 166.126 83.4269C166.287 83.1724 166.434 82.9107 166.578 82.6465C166.614 82.5818 166.65 82.5171 166.687 82.4504C166.763 82.3132 166.839 82.176 166.914 82.0387C167.101 81.6999 167.289 81.3619 167.477 81.0239C167.532 80.9237 167.532 80.9237 167.589 80.8214C168.154 79.8043 168.728 78.7941 169.323 77.7943C169.577 77.3685 169.828 76.941 170.078 76.513C170.5 75.79 170.929 75.0717 171.368 74.3586C171.462 74.205 171.556 74.051 171.649 73.8969C172.517 72.4751 173.436 71.0645 174.481 69.7656Z" fill="#F8E482"/>
<path d="M157.272 96.7912C157.774 96.8305 158.264 96.918 158.759 97.0081C160.893 97.3946 163.037 97.7173 165.196 97.9148C165.24 97.9189 165.285 97.923 165.331 97.9273C168.289 98.199 171.251 98.2304 174.219 98.2257C174.538 98.2253 174.857 98.2254 175.176 98.2259C177.114 98.2289 179.048 98.2277 180.983 98.1069C181.295 98.0874 181.608 98.0715 181.92 98.0555C184.582 97.9081 187.226 97.4971 189.851 97.0511C189.89 97.0445 189.929 97.0378 189.969 97.031C190.18 96.995 190.391 96.9576 190.601 96.9188C190.646 96.9106 190.691 96.9024 190.738 96.8939C190.824 96.8781 190.91 96.8621 190.996 96.8458C191.23 96.8031 191.452 96.7778 191.69 96.7912C191.803 96.9048 191.756 97.0743 191.756 97.2255C191.756 97.2795 191.756 97.3335 191.755 97.3891C191.755 97.4456 191.755 97.5021 191.755 97.5604C191.755 97.7482 191.755 97.936 191.754 98.1239C191.754 98.2537 191.754 98.3836 191.754 98.5134C191.754 98.8559 191.753 99.1985 191.753 99.541C191.752 99.8902 191.752 100.239 191.752 100.589C191.751 101.274 191.75 101.96 191.749 102.646C191.673 102.684 191.597 102.722 191.521 102.76C191.478 102.782 191.436 102.803 191.392 102.825C188.28 104.352 184.095 104.382 180.712 104.583C180.653 104.586 180.595 104.59 180.534 104.593C178.628 104.705 176.722 104.728 174.813 104.727C174.757 104.727 174.7 104.727 174.642 104.727C172.634 104.726 170.631 104.696 168.626 104.597C168.563 104.594 168.501 104.591 168.436 104.588C160.268 104.193 160.268 104.193 157.212 102.646C157.211 101.9 157.21 101.154 157.209 100.408C157.209 100.062 157.209 99.7155 157.208 99.3692C157.207 99.0353 157.207 98.7013 157.207 98.3673C157.207 98.2396 157.207 98.112 157.206 97.9843C157.206 97.8061 157.206 97.6278 157.206 97.4495C157.206 97.3963 157.205 97.3431 157.205 97.2882C157.206 96.923 157.206 96.923 157.272 96.7912Z" fill="#F8E482"/>
<path d="M175.971 83.3163C177.279 84.1849 177.847 85.4011 178.195 86.8833C178.485 88.448 178.191 90.218 177.378 91.587C177.231 91.7937 177.072 91.9865 176.905 92.1784C176.868 92.2271 176.831 92.2758 176.793 92.326C176.357 92.845 175.682 93.2367 175.013 93.3611C173.99 93.4321 173.225 93.1904 172.431 92.5184C171.297 91.4541 170.799 89.8723 170.74 88.3501C170.702 86.8541 170.965 85.2104 172.025 84.0733C173.113 82.9594 174.554 82.4879 175.971 83.3163Z" fill="black"/>
<path d="M174.842 84.5211C175.463 84.7823 175.943 85.4263 176.196 86.0282C176.638 87.1871 176.813 88.7545 176.314 89.9312C176.298 89.9699 176.282 90.0086 176.265 90.0485C175.961 90.7574 175.562 91.3506 174.895 91.7645C174.574 91.8714 174.248 91.8823 173.941 91.7349C173.857 91.6617 173.857 91.6617 173.771 91.5871C173.735 91.5574 173.699 91.5278 173.661 91.4972C173.024 90.93 172.736 90.0857 172.529 89.2807C172.51 89.2076 172.492 89.1345 172.472 89.0592C172.201 87.8754 172.337 86.6012 172.963 85.5394C173.437 84.8741 173.976 84.3091 174.842 84.5211Z" fill="#7D5232"/>
<path d="M175.367 63.9109C175.893 64.1937 176.169 64.6458 176.348 65.2013C176.465 65.8158 176.397 66.3565 176.053 66.8742C175.746 67.2733 175.271 67.5407 174.776 67.6365C174.216 67.6865 173.658 67.5088 173.224 67.1493C172.785 66.7083 172.647 66.248 172.621 65.6406C172.629 65.1245 172.799 64.7373 173.065 64.3026C173.729 63.7088 174.551 63.5771 175.367 63.9109Z" fill="#F8E482"/>
<path d="M194.639 70.8165C195.198 71.1399 195.51 71.5883 195.711 72.1901C195.756 72.7033 195.722 73.2219 195.42 73.653C195.067 74.0628 194.627 74.4478 194.071 74.5163C193.378 74.5257 192.844 74.3268 192.34 73.8459C191.926 73.337 191.924 72.6972 191.985 72.0718C192.096 71.5912 192.435 71.222 192.817 70.926C193.339 70.6371 194.078 70.5896 194.639 70.8165Z" fill="#F8E482"/>
<path d="M156.207 70.9483C156.641 71.2516 156.931 71.6066 157.035 72.131C157.087 72.755 157.012 73.3007 156.621 73.8054C156.277 74.1686 155.764 74.4108 155.266 74.4515C154.635 74.4658 154.234 74.3319 153.77 73.9012C153.352 73.4502 153.276 73.0287 153.29 72.4247C153.333 71.9171 153.549 71.4757 153.899 71.1072C154.596 70.5285 155.435 70.5138 156.207 70.9483Z" fill="#F8E482"/>
</svg>
