<svg width="180" height="223" viewBox="0 0 180 223" fill="none" xmlns="http://www.w3.org/2000/svg">
<path d="M38.1156 5.57187C38.3178 5.67183 38.52 5.77179 38.7283 5.87478C42.0061 7.5061 45.1168 9.4144 48.232 11.3322C49.1879 11.9207 50.1464 12.5047 51.1068 13.0859C51.3567 13.2372 51.6066 13.3886 51.8641 13.5445C52.3279 13.8251 52.7917 14.1056 53.2557 14.3858C53.4653 14.5131 53.6749 14.6404 53.8908 14.7715C54.091 14.8928 54.2911 15.0142 54.4972 15.1393C55.2674 15.6265 56.0039 16.1576 56.7353 16.7012C57.6351 17.1488 58.4203 17.0457 59.3718 16.7922C59.5921 16.7116 59.8124 16.631 60.0394 16.548C60.2925 16.4582 60.5457 16.3684 60.8065 16.2759C61.0784 16.1785 61.3502 16.0811 61.6303 15.9807C70.6063 12.8853 79.9911 11.5211 89.463 11.5717C89.7188 11.5726 89.9746 11.5734 90.2382 11.5743C100.35 11.6128 110.078 13.2386 119.724 16.3027C119.954 16.3743 120.184 16.4459 120.422 16.5197C121.023 16.7231 121.023 16.7231 121.797 17.1029C122.948 17.2807 123.661 16.5715 124.568 15.9201C125.002 15.6243 125.436 15.3295 125.87 15.0357C126.104 14.8767 126.338 14.7177 126.578 14.5539C127.91 13.6678 129.276 12.8387 130.644 12.0111C130.787 11.9244 130.93 11.8376 131.078 11.7483C135.144 9.28838 139.264 6.89994 143.552 4.84521C144.115 4.57177 144.674 4.28923 145.233 4.00657C149.209 2.02173 153.446 0.206073 157.946 0.178056C158.144 0.173056 158.342 0.168056 158.546 0.162905C160.492 0.150498 162.079 0.628375 163.529 1.97347C167.299 6.17007 167.744 12.8401 168.295 18.1777C168.321 18.4331 168.321 18.4331 168.349 18.6936C169.111 26.4532 168.381 34.3905 167.582 42.1165C167.552 42.414 167.552 42.414 167.522 42.7175C167.151 46.3604 167.151 46.3604 166.773 47.9971C166.005 51.327 167.011 53.4672 168.456 56.4997C172.01 64.2694 172.819 72.7899 172.658 81.2065C172.92 81.2058 172.92 81.2058 173.188 81.205C178.091 81.1963 178.091 81.1963 179.128 82.0399C179.967 82.9695 180.016 83.5486 179.997 84.7652C179.892 85.6586 179.567 86.1296 178.961 86.7822C176.906 88.0403 174.46 87.5086 172.173 87.267C172.148 87.4698 172.148 87.4698 172.122 87.6766C171.759 90.5171 171.307 93.2501 170.476 95.9941C170.774 96.0557 171.073 96.1172 171.38 96.1806C171.776 96.2648 172.171 96.3491 172.567 96.4335C172.763 96.4736 172.959 96.5138 173.161 96.5552C174.572 96.8591 175.772 97.2232 176.87 98.2062C177.421 99.1804 177.487 99.9909 177.264 101.085C176.848 101.89 176.271 102.399 175.506 102.888C173.783 103.24 171.99 102.645 170.34 102.161C170.142 102.104 169.943 102.047 169.739 101.989C169.257 101.851 168.776 101.71 168.295 101.57C168.253 101.704 168.212 101.839 168.17 101.977C167.75 103.301 167.239 104.514 166.582 105.736C166.488 105.913 166.393 106.09 166.295 106.273C164.763 109.068 162.879 111.508 160.661 113.797C160.409 114.058 160.158 114.321 159.908 114.585C155.139 119.634 148.58 124.276 141.871 126.296C142.166 126.521 142.166 126.521 142.467 126.75C145.098 128.759 147.644 130.824 150.062 133.087C150.561 133.553 151.063 134.014 151.573 134.468C152.713 135.484 153.791 136.498 154.771 137.668C155.082 138.033 155.405 138.387 155.735 138.735C158.527 141.678 160.822 145.019 162.719 148.599C162.832 148.804 162.946 149.008 163.063 149.219C165.113 153.061 166.116 157.444 164.91 161.709C163.777 164.892 161.817 166.932 158.84 168.477C153.462 170.676 148.112 170.714 142.736 168.473C142.366 168.315 141.997 168.154 141.628 167.992C141.673 168.164 141.717 168.336 141.763 168.513C142.365 170.97 142.725 173.443 143.068 175.947C143.115 176.286 143.115 176.286 143.162 176.631C147.799 210.313 147.799 210.313 142.848 216.865C139.797 220.173 135.107 221.732 130.72 222.052C129.356 222.099 127.993 222.111 126.629 222.112C126.345 222.113 126.345 222.113 126.056 222.113C120.827 222.109 114.847 221.714 110.812 217.948C108.728 215.652 107.85 212.93 107.16 209.976C107.119 209.807 107.078 209.638 107.037 209.464C106.782 208.304 106.666 207.163 106.586 205.978C106.566 205.673 106.545 205.369 106.524 205.056C106.509 204.825 106.493 204.593 106.478 204.355C106.322 204.37 106.167 204.384 106.006 204.399C101.127 204.834 96.2778 204.916 91.3819 204.903C90.3395 204.901 89.2972 204.902 88.2549 204.905C83.3171 204.916 78.4298 204.79 73.5088 204.355C73.4935 204.569 73.4783 204.782 73.4625 205.002C73.4314 205.425 73.4314 205.425 73.3996 205.856C73.3693 206.274 73.3693 206.274 73.3382 206.7C73.2442 207.755 73.0685 208.776 72.8421 209.81C72.7996 210.005 72.757 210.201 72.7132 210.402C71.8916 214.016 70.5085 216.927 67.4483 219.143C63.3606 221.626 58.7535 222.099 54.0847 222.11C53.5172 222.112 52.9499 222.12 52.3824 222.128C46.9925 222.166 41.7626 221.132 37.6914 217.37C34.5475 214.041 34.6063 210.226 34.646 205.916C34.6474 205.657 34.6487 205.398 34.6501 205.132C34.7 195.653 35.5657 186.265 36.7975 176.871C36.8217 176.686 36.8459 176.501 36.8708 176.31C37.2266 173.608 37.6538 170.921 38.1156 168.235C37.8141 168.334 37.5125 168.434 37.2018 168.536C31.5199 170.387 26.3357 170.99 20.7978 168.326C17.9419 166.856 16.0415 164.666 14.8908 161.666C13.5636 156.948 15.3129 151.945 17.5625 147.815C19.4486 144.486 21.7009 141.525 24.2892 138.713C24.733 138.229 25.1604 137.736 25.5856 137.236C27.3449 135.219 29.2864 133.358 31.3279 131.63C31.5822 131.409 31.8363 131.187 32.0902 130.966C33.9652 129.336 35.8865 127.788 37.8732 126.296C37.7341 126.234 37.5951 126.172 37.4518 126.108C36.9958 125.902 36.5408 125.695 36.0863 125.486C35.4538 125.197 34.8201 124.915 34.1829 124.637C29.8065 122.69 25.9118 120.044 22.3584 116.842C22.1553 116.668 21.9522 116.494 21.7429 116.315C20.5404 115.279 19.4845 114.19 18.4797 112.963C18.2831 112.73 18.0866 112.497 17.8841 112.257C15.2739 109.099 13.1706 105.526 11.4496 101.812C10.1678 101.915 9.04278 102.186 7.81327 102.57C6.45275 102.968 5.54338 103.179 4.17699 102.782C3.22195 102.2 2.76384 101.684 2.48006 100.6C2.35995 99.6592 2.43964 99.2248 2.87399 98.3728C4.03919 96.993 5.60416 96.7613 7.29813 96.4335C7.51125 96.3905 7.72437 96.3475 7.94395 96.3033C8.4657 96.1984 8.98774 96.0954 9.5102 95.9941C9.47603 95.8417 9.44185 95.6893 9.40663 95.5323C8.79332 92.7864 8.18781 90.0571 7.81327 87.267C7.54931 87.2765 7.54931 87.2765 7.28002 87.2863C6.47805 87.3115 5.67616 87.3272 4.87394 87.3428C4.59708 87.3529 4.32021 87.3631 4.03495 87.3736C1.73097 87.407 1.73097 87.407 0.845625 86.6865C0.122366 85.8519 0.0184303 85.4686 0.0104164 84.3883C0.0052603 84.0742 0.0052603 84.0742 0 83.7538C0.0821608 82.8598 0.335934 82.3546 1.01039 81.7671C2.56245 81.102 4.29847 81.196 5.96388 81.2018C6.34939 81.2028 6.34939 81.2028 6.74269 81.2039C6.93598 81.2048 7.12928 81.2056 7.32843 81.2065C7.32463 81.0068 7.32082 80.8071 7.31689 80.6013C7.17174 71.793 8.41206 63.1907 12.067 55.0774C12.1686 54.8517 12.2702 54.626 12.3749 54.3935C12.5689 53.9719 12.7687 53.5528 12.9754 53.1373C13.7042 51.578 13.6754 50.4016 13.3889 48.7224C13.3562 48.5158 13.3236 48.3093 13.2899 48.0964C13.2195 47.6648 13.1467 47.2335 13.0719 46.8026C11.3041 36.454 10.598 25.4658 11.9344 15.0262C11.9591 14.8235 11.9838 14.6207 12.0092 14.4119C12.564 9.99219 13.4889 4.52098 17.0252 1.45075C23.3646 -2.5611 32.3875 2.72003 38.1156 5.57187Z" fill="#FBE9CC"/>
<path d="M38.1156 5.57187C38.3178 5.67183 38.52 5.77179 38.7283 5.87478C42.0061 7.5061 45.1168 9.4144 48.232 11.3322C49.1879 11.9207 50.1464 12.5047 51.1068 13.0859C51.3567 13.2372 51.6066 13.3886 51.8641 13.5445C52.3279 13.8251 52.7917 14.1056 53.2557 14.3858C53.4653 14.5131 53.6749 14.6404 53.8908 14.7715C54.091 14.8928 54.2911 15.0142 54.4972 15.1393C55.2674 15.6265 56.0039 16.1576 56.7353 16.7012C57.6351 17.1488 58.4203 17.0457 59.3718 16.7922C59.5921 16.7116 59.8124 16.631 60.0394 16.548C60.2925 16.4582 60.5457 16.3684 60.8065 16.2759C61.0784 16.1785 61.3502 16.0811 61.6303 15.9807C70.6063 12.8853 79.9911 11.5211 89.463 11.5717C89.7188 11.5726 89.9746 11.5734 90.2382 11.5743C100.35 11.6128 110.078 13.2386 119.724 16.3027C119.954 16.3743 120.184 16.4459 120.422 16.5197C121.023 16.7231 121.023 16.7231 121.797 17.1029C122.948 17.2807 123.661 16.5715 124.568 15.9201C125.002 15.6243 125.436 15.3295 125.87 15.0357C126.104 14.8767 126.338 14.7177 126.578 14.5539C127.91 13.6678 129.276 12.8387 130.644 12.0111C130.787 11.9244 130.93 11.8376 131.078 11.7483C135.144 9.28838 139.264 6.89994 143.552 4.84521C144.115 4.57177 144.674 4.28923 145.233 4.00657C149.209 2.02173 153.446 0.206073 157.946 0.178056C158.144 0.173056 158.342 0.168056 158.546 0.162905C160.492 0.150498 162.079 0.628375 163.529 1.97347C167.299 6.17007 167.744 12.8401 168.295 18.1777C168.321 18.4331 168.321 18.4331 168.349 18.6936C169.111 26.4532 168.381 34.3905 167.582 42.1165C167.552 42.414 167.552 42.414 167.522 42.7175C167.151 46.3604 167.151 46.3604 166.773 47.9971C166.005 51.327 167.011 53.4672 168.456 56.4997C172.01 64.2694 172.819 72.7899 172.658 81.2065C172.92 81.2058 172.92 81.2058 173.188 81.205C178.091 81.1963 178.091 81.1963 179.128 82.0399C179.967 82.9695 180.016 83.5486 179.997 84.7652C179.892 85.6586 179.567 86.1296 178.961 86.7822C176.906 88.0403 174.46 87.5086 172.173 87.267C172.148 87.4698 172.148 87.4698 172.122 87.6766C171.759 90.5171 171.307 93.2501 170.476 95.9941C170.774 96.0557 171.073 96.1172 171.38 96.1806C171.776 96.2648 172.171 96.3491 172.567 96.4335C172.763 96.4736 172.959 96.5138 173.161 96.5552C174.572 96.8591 175.772 97.2232 176.87 98.2062C177.421 99.1804 177.487 99.9909 177.264 101.085C176.848 101.89 176.271 102.399 175.506 102.888C173.783 103.24 171.99 102.645 170.34 102.161C170.142 102.104 169.943 102.047 169.739 101.989C169.257 101.851 168.776 101.71 168.295 101.57C168.253 101.704 168.212 101.839 168.17 101.977C167.75 103.301 167.239 104.514 166.582 105.736C166.488 105.913 166.393 106.09 166.295 106.273C164.763 109.068 162.879 111.508 160.661 113.797C160.409 114.058 160.158 114.321 159.908 114.585C155.139 119.634 148.58 124.276 141.871 126.296C142.166 126.521 142.166 126.521 142.467 126.75C145.098 128.759 147.644 130.824 150.062 133.087C150.561 133.553 151.063 134.014 151.573 134.468C152.713 135.484 153.791 136.498 154.771 137.668C155.082 138.033 155.405 138.387 155.735 138.735C158.527 141.678 160.822 145.019 162.719 148.599C162.832 148.804 162.946 149.008 163.063 149.219C165.113 153.061 166.116 157.444 164.91 161.709C163.777 164.892 161.817 166.932 158.84 168.477C153.462 170.676 148.112 170.714 142.736 168.473C142.366 168.315 141.997 168.154 141.628 167.992C141.673 168.164 141.717 168.336 141.763 168.513C142.365 170.97 142.725 173.443 143.068 175.947C143.115 176.286 143.115 176.286 143.162 176.631C147.799 210.313 147.799 210.313 142.848 216.865C139.797 220.173 135.107 221.732 130.72 222.052C129.356 222.099 127.993 222.111 126.629 222.112C126.345 222.113 126.345 222.113 126.056 222.113C120.827 222.109 114.847 221.714 110.812 217.948C108.728 215.652 107.85 212.93 107.16 209.976C107.119 209.807 107.078 209.638 107.037 209.464C106.782 208.304 106.666 207.163 106.586 205.978C106.566 205.673 106.545 205.369 106.524 205.056C106.509 204.825 106.493 204.593 106.478 204.355C106.322 204.37 106.167 204.384 106.006 204.399C101.127 204.834 96.2778 204.916 91.3819 204.903C90.3395 204.901 89.2972 204.902 88.2549 204.905C83.3171 204.916 78.4298 204.79 73.5088 204.355C73.4935 204.569 73.4783 204.782 73.4625 205.002C73.4314 205.425 73.4314 205.425 73.3996 205.856C73.3693 206.274 73.3693 206.274 73.3382 206.7C73.2442 207.755 73.0685 208.776 72.8421 209.81C72.7996 210.005 72.757 210.201 72.7132 210.402C71.8916 214.016 70.5085 216.927 67.4483 219.143C63.3606 221.626 58.7535 222.099 54.0847 222.11C53.5172 222.112 52.9499 222.12 52.3824 222.128C46.9925 222.166 41.7626 221.132 37.6914 217.37C34.5475 214.041 34.6063 210.226 34.646 205.916C34.6474 205.657 34.6487 205.398 34.6501 205.132C34.7 195.653 35.5657 186.265 36.7975 176.871C36.8217 176.686 36.8459 176.501 36.8708 176.31C37.2266 173.608 37.6538 170.921 38.1156 168.235C37.8141 168.334 37.5125 168.434 37.2018 168.536C31.5199 170.387 26.3357 170.99 20.7978 168.326C17.9419 166.856 16.0415 164.666 14.8908 161.666C13.5636 156.948 15.3129 151.945 17.5625 147.815C19.4486 144.486 21.7009 141.525 24.2892 138.713C24.733 138.229 25.1604 137.736 25.5856 137.236C27.3449 135.219 29.2864 133.358 31.3279 131.63C31.5822 131.409 31.8363 131.187 32.0902 130.966C33.9652 129.336 35.8865 127.788 37.8732 126.296C37.7341 126.234 37.5951 126.172 37.4518 126.108C36.9958 125.902 36.5408 125.695 36.0863 125.486C35.4538 125.197 34.8201 124.915 34.1829 124.637C29.8065 122.69 25.9118 120.044 22.3584 116.842C22.1553 116.668 21.9522 116.494 21.7429 116.315C20.5404 115.279 19.4845 114.19 18.4797 112.963C18.2831 112.73 18.0866 112.497 17.8841 112.257C15.2739 109.099 13.1706 105.526 11.4496 101.812C10.1678 101.915 9.04278 102.186 7.81327 102.57C6.45275 102.968 5.54338 103.179 4.17699 102.782C3.22195 102.2 2.76384 101.684 2.48006 100.6C2.35995 99.6592 2.43964 99.2248 2.87399 98.3728C4.03919 96.993 5.60416 96.7613 7.29813 96.4335C7.51125 96.3905 7.72437 96.3475 7.94395 96.3033C8.4657 96.1984 8.98774 96.0954 9.5102 95.9941C9.47603 95.8417 9.44185 95.6893 9.40663 95.5323C8.79332 92.7864 8.18781 90.0571 7.81327 87.267C7.54931 87.2765 7.54931 87.2765 7.28002 87.2863C6.47805 87.3115 5.67616 87.3272 4.87394 87.3428C4.59708 87.3529 4.32021 87.3631 4.03495 87.3736C1.73097 87.407 1.73097 87.407 0.845625 86.6865C0.122366 85.8519 0.0184303 85.4686 0.0104164 84.3883C0.0052603 84.0742 0.0052603 84.0742 0 83.7538C0.0821608 82.8598 0.335934 82.3546 1.01039 81.7671C2.56245 81.102 4.29847 81.196 5.96388 81.2018C6.34939 81.2028 6.34939 81.2028 6.74269 81.2039C6.93598 81.2048 7.12928 81.2056 7.32843 81.2065C7.32463 81.0068 7.32082 80.8071 7.31689 80.6013C7.17174 71.793 8.41206 63.1907 12.067 55.0774C12.1686 54.8517 12.2702 54.626 12.3749 54.3935C12.5689 53.9719 12.7687 53.5528 12.9754 53.1373C13.7042 51.578 13.6754 50.4016 13.3889 48.7224C13.3562 48.5158 13.3236 48.3093 13.2899 48.0964C13.2195 47.6648 13.1467 47.2335 13.0719 46.8026C11.3041 36.454 10.598 25.4658 11.9344 15.0262C11.9591 14.8235 11.9838 14.6207 12.0092 14.4119C12.564 9.99219 13.4889 4.52098 17.0252 1.45075C23.3646 -2.5611 32.3875 2.72003 38.1156 5.57187ZM20.9039 7.13245C19.8133 8.5297 19.351 9.91284 18.9342 11.6172C18.8958 11.7715 18.8573 11.9257 18.8177 12.0847C17.8526 16.3148 17.9069 20.607 17.9191 24.9199C17.9196 25.2459 17.92 25.5718 17.9204 25.8977C17.9337 32.8596 18.3526 39.6478 19.54 46.5101C20.0323 49.4474 20.4308 52.132 18.9797 54.8283C15.1038 62.7367 12.955 72.3748 13.3889 81.2065C13.8937 81.7113 14.9909 81.5163 15.6919 81.5399C17.314 81.6119 18.9076 81.7431 20.51 82.0096C20.7624 82.0479 20.7624 82.0479 21.0199 82.0871C22.1059 82.2821 22.8018 82.5923 23.5705 83.3883C23.9236 84.2686 23.9422 85.1695 23.651 86.072C23.3036 86.7497 22.9758 87.1977 22.2969 87.553C19.8984 88.2695 16.8418 87.69 14.3586 87.5094C14.2794 88.9937 14.5717 90.2754 14.9495 91.7063C15.0053 91.9258 15.061 92.1454 15.1185 92.3715C15.3888 93.4834 15.3888 93.4834 15.8131 94.5396C16.2323 94.5051 16.6515 94.4695 17.0706 94.4335C17.3041 94.4138 17.5375 94.3942 17.778 94.3739C18.4631 94.3116 18.4631 94.3116 19.0592 94.1703C19.8868 94.0191 20.6843 94.0135 21.5251 94.0093C21.8404 94.0059 22.1557 94.0024 22.4806 93.9989C23.6787 94.0779 23.6787 94.0779 24.2978 94.5396C24.7419 95.2107 24.8651 95.7867 24.8886 96.585C24.9032 96.8545 24.9032 96.8545 24.918 97.1295C24.7115 97.9859 24.3027 98.4527 23.5705 98.9031C22.6318 99.2189 21.6794 99.4037 20.7069 99.5849C20.4465 99.6373 20.186 99.6896 19.9176 99.7435C19.2774 99.8716 18.6367 99.9953 17.9949 100.115C19.0146 103.44 20.868 106.201 23.0857 108.842C23.2487 109.037 23.2487 109.037 23.415 109.235C29.0728 115.881 37.0075 119.792 45.2245 122.309C48.968 123.463 48.968 123.463 49.7517 124.842C49.9053 126.07 49.7581 126.763 49.0245 127.751C48.4364 128.075 48.4364 128.075 47.7366 128.327C43.2939 130.064 39.5139 132.612 36.0598 135.901C35.5657 136.368 35.0642 136.813 34.5494 137.255C31.7188 139.721 28.9723 142.437 26.7219 145.448C26.5045 145.731 26.287 146.014 26.0695 146.297C23.3618 149.863 20.2163 154.318 20.6615 159.023C20.9364 160.579 21.7593 161.483 22.954 162.475C25.496 164.236 28.6197 164.479 31.6025 163.957C33.4183 163.588 35.1387 163.036 36.8429 162.311C37.0018 162.244 37.1607 162.177 37.3243 162.108C38.457 161.596 39.4904 160.982 40.0018 159.796C40.1598 159.277 40.289 158.757 40.4101 158.228C40.4824 157.936 40.4824 157.936 40.5561 157.638C40.6583 157.223 40.7585 156.808 40.857 156.393C41.0103 155.747 41.1687 155.102 41.3287 154.458C41.5384 153.613 41.7466 152.769 41.9537 151.924C42.2991 150.522 42.6653 149.126 43.0549 147.735C43.1327 147.445 43.1327 147.445 43.212 147.148C43.5941 145.8 44.1075 144.672 45.2367 143.781C46.0189 143.446 46.4832 143.388 47.3275 143.508C48.0633 143.904 48.6084 144.249 49.1154 144.917C49.6029 146.624 49.031 148.282 48.5927 149.939C48.4479 150.502 48.3032 151.065 48.1585 151.627C48.0822 151.922 48.0059 152.216 47.9272 152.519C44.5672 165.516 42.2986 178.601 41.2671 191.992C41.2526 192.176 41.2382 192.361 41.2233 192.551C40.8972 196.755 40.7326 200.958 40.6973 205.175C40.6934 205.613 40.688 206.051 40.6811 206.49C40.5634 209.991 40.5634 209.991 42.1207 213.024C44.8334 215.762 49.5199 216.007 53.1433 216.038C59.3413 216.102 59.3413 216.102 64.6264 213.328C67.0593 210.344 67.2991 205.898 67.6388 202.209C67.7828 200.833 67.9316 199.837 68.9028 198.78C70.1039 197.938 71.0975 197.989 72.4936 198.113C72.6769 198.126 72.8602 198.139 73.049 198.152C73.7676 198.205 74.4837 198.267 75.1994 198.351C79.8761 198.896 84.6068 198.837 89.3088 198.84C89.6662 198.84 90.0237 198.841 90.3811 198.841C95.9075 198.85 101.387 198.71 106.887 198.119C108.409 197.993 109.536 197.909 110.841 198.78C112.28 200.539 112.394 202.542 112.629 204.719C113.22 209.758 113.22 209.758 115.826 213.991C119.554 216.809 126.155 216.339 130.522 215.78C133.321 215.369 136.214 214.828 138.174 212.613C139.368 210.987 139.491 209.308 139.481 207.334C139.48 207.147 139.48 206.961 139.479 206.768C139.455 203.971 139.296 201.178 139.144 198.386C139.128 198.088 139.111 197.789 139.095 197.482C138.362 184.138 136.674 170.875 133.423 157.898C133.382 157.734 133.341 157.57 133.299 157.401C132.885 155.751 132.466 154.103 132.038 152.457C131.916 151.99 131.796 151.522 131.676 151.054C131.527 150.478 131.377 149.903 131.224 149.328C130.862 147.916 130.592 146.664 130.72 145.205C131.245 144.341 131.729 143.884 132.659 143.508C133.188 143.471 133.188 143.471 133.735 143.523C133.914 143.536 134.094 143.549 134.279 143.562C135.114 143.842 135.483 144.293 136.053 144.963C136.35 145.61 136.531 146.274 136.712 146.962C136.766 147.156 136.82 147.35 136.876 147.549C137.05 148.176 137.218 148.804 137.386 149.432C137.505 149.863 137.623 150.293 137.742 150.723C138.421 153.198 139.07 155.679 139.53 158.206C139.792 159.534 140.159 160.257 141.144 161.205C144.842 163.568 149.325 164.711 153.658 163.841C155.954 163.247 157.552 162.319 158.826 160.295C159.738 158.36 159.327 156.523 158.692 154.578C156.82 149.644 153.642 145.671 150.113 141.811C149.906 141.579 149.699 141.346 149.485 141.107C147.93 139.369 146.289 137.774 144.537 136.236C144.416 136.127 144.294 136.019 144.169 135.907C140.655 132.79 136.878 129.957 132.386 128.448C131.62 128.178 131.192 127.983 130.553 127.463C130.113 126.521 129.955 125.614 130.235 124.6C131.079 123.542 131.824 123.18 133.114 122.827C133.461 122.726 133.808 122.624 134.154 122.522C134.342 122.467 134.529 122.412 134.723 122.356C142.468 120.035 149.03 116.534 154.961 111.024C155.126 110.876 155.29 110.727 155.46 110.574C158.385 107.82 160.819 103.943 161.992 100.115C161.822 100.085 161.652 100.054 161.477 100.023C160.703 99.882 159.931 99.7335 159.158 99.5849C158.891 99.5373 158.624 99.4896 158.348 99.4405C155.809 98.9419 155.809 98.9419 154.961 97.691C154.755 96.9431 154.809 96.2675 154.961 95.5093C155.396 94.8134 155.685 94.4205 156.416 94.0547C158.974 93.8388 161.429 94.3102 163.931 94.782C164.435 93.4915 164.856 92.2172 165.189 90.873C165.232 90.7089 165.274 90.5449 165.319 90.3759C165.563 89.3996 165.673 88.5147 165.628 87.5094C165.387 87.5269 165.147 87.5444 164.899 87.5625C163.234 87.6787 161.569 87.7768 159.901 87.8125C159.638 87.8187 159.375 87.825 159.103 87.8314C158.22 87.7375 157.653 87.4911 156.901 87.0246C156.356 86.1115 156.174 85.5121 156.174 84.4489C156.47 83.4493 156.809 83.0559 157.628 82.4186C158.698 81.9885 159.668 81.849 160.816 81.7804C160.975 81.7703 161.134 81.7602 161.298 81.7499C161.802 81.7184 162.306 81.6897 162.81 81.6611C163.154 81.6401 163.497 81.619 163.841 81.5976C164.679 81.546 165.517 81.4968 166.355 81.449C166.443 77.3426 166.384 73.3721 165.628 69.328C165.589 69.1166 165.55 68.9051 165.51 68.6873C164.546 63.6499 162.955 58.6666 160.717 54.049C159.569 51.5735 160.124 49.2189 160.529 46.6055C161.63 39.3976 162.054 32.1773 162.067 24.8896C162.068 24.6503 162.069 24.411 162.07 24.1644C162.078 19.9542 161.981 15.6594 160.946 11.5566C160.901 11.353 160.855 11.1494 160.808 10.9397C160.407 9.28303 159.811 7.75465 158.355 6.78397C157.017 6.69669 155.868 6.84559 154.583 7.2385C154.408 7.2913 154.234 7.34409 154.054 7.39848C144.209 10.5227 134.684 16.5955 126.311 22.5278C124.69 23.6477 123.231 24.1693 121.265 23.9957C120.519 23.7457 120.519 23.7457 119.75 23.3897C115.094 21.3804 109.992 20.3074 105.023 19.3897C104.829 19.3526 104.635 19.3155 104.435 19.2773C89.9316 16.5408 74.1655 18.1796 60.3837 23.3434C58.7794 23.94 57.4783 24.3278 55.8274 23.6624C53.4789 22.5321 51.3133 20.9854 49.1305 19.5716C45.4776 17.2109 41.753 14.9566 37.9247 12.8916C37.5587 12.6939 37.1932 12.4952 36.8284 12.2954C29.1399 7.72612 29.1399 7.72612 20.9039 7.13245Z" fill="black"/>
<path d="M89.7811 138.296C90.0651 138.298 90.3491 138.299 90.6416 138.301C96.0981 138.415 100.508 140.355 104.296 144.236C104.49 144.427 104.684 144.619 104.884 144.817C110.66 150.822 112.432 159.927 112.398 167.968C112.302 172.551 111.009 176.361 107.69 179.629C107.535 179.783 107.38 179.937 107.221 180.096C101.636 185.322 93.6092 185.245 86.4527 185.013C81.6738 184.813 77.0949 183.523 73.2663 180.598C73.0848 180.461 72.9032 180.324 72.7162 180.183C69.5692 177.625 67.9313 173.667 67.4889 169.708C67.3583 168.091 67.417 166.461 67.4483 164.841C67.4523 164.581 67.4564 164.321 67.4606 164.053C67.7944 156.881 70.5662 149.904 75.2057 144.478C75.3497 144.309 75.4938 144.14 75.6422 143.966C79.2668 140.053 84.555 138.266 89.7811 138.296Z" fill="#F2D3A3"/>
<path d="M106.337 139.064C106.543 139.25 106.75 139.437 106.963 139.629C107.167 139.813 107.371 139.997 107.581 140.187C111.385 143.802 113.805 148.515 115.447 153.447C115.536 153.706 115.625 153.965 115.717 154.231C117.706 160.529 118.284 167.859 116.659 174.295C116.62 174.453 116.581 174.611 116.541 174.773C115.283 179.618 111.987 183.657 107.712 186.207C102.194 189.295 96.3695 190.109 90.1447 190.113C89.8378 190.113 89.8378 190.113 89.5247 190.113C86.4022 190.11 83.3541 190.02 80.2964 189.325C80.1174 189.285 79.9383 189.245 79.7538 189.203C74.0854 187.863 68.6619 184.719 65.5341 179.714C61.6471 173.246 61.6905 164.397 63.4151 157.214C63.4661 157.011 63.517 156.808 63.5695 156.599C63.6202 156.393 63.6709 156.187 63.7231 155.975C65.1613 150.316 67.6976 145.223 71.5694 140.841C71.7916 140.589 71.7916 140.589 72.0182 140.331C80.7669 131.005 96.8453 130.907 106.337 139.064ZM74.3354 145.446C69.9916 150.86 67.7022 157.945 67.4482 164.841C67.4416 165.006 67.435 165.17 67.4282 165.34C67.2622 170.027 67.9579 174.326 70.8421 178.174C70.993 178.389 70.993 178.389 71.147 178.609C74.2966 182.729 79.9488 184.177 84.8155 184.893C86.5234 185.098 88.2456 185.069 89.9629 185.052C90.2653 185.051 90.2653 185.051 90.5738 185.049C97.217 185.009 103.27 184.04 108.175 179.144C108.41 178.912 108.41 178.912 108.651 178.676C112.157 174.977 112.486 170.127 112.372 165.306C112.074 157.481 109.576 149.679 104.053 143.993C103.915 143.839 103.776 143.685 103.633 143.527C100.596 140.258 95.9631 138.525 91.5765 138.323C84.5443 138.144 79.0564 140.067 74.3354 145.446Z" fill="black"/>
<path d="M144.492 80.5247C147.086 82.2996 148.661 84.7042 149.386 87.7518C149.791 91.544 148.979 94.4266 146.602 97.4163C144.665 99.5734 141.927 100.701 139.092 100.902C135.65 101.017 132.844 100.026 130.236 97.7544C127.964 95.3915 127.008 92.4398 127.047 89.2271C127.197 86.1189 128.415 83.5544 130.72 81.4489C134.949 78.2739 139.88 77.797 144.492 80.5247Z" fill="#F4A99C"/>
<path d="M47.0851 79.9944C47.272 80.0875 47.4589 80.1806 47.6514 80.2766C50.0658 81.6364 51.8116 84.2368 52.6305 86.8427C53.3278 89.8075 53.0413 92.7794 51.5595 95.4581C49.9622 97.8778 47.6793 99.6997 44.9034 100.6C41.8062 101.204 38.7165 101.045 35.9405 99.4618C33.4117 97.7434 31.5031 95.3809 30.8431 92.3578C30.529 88.2035 31.0216 85.381 33.7066 82.1288C37.1674 78.3364 42.6482 77.7821 47.0851 79.9944Z" fill="#F4A99C"/>
<path d="M28.2967 15.154C29.9045 15.3708 31.3328 16.0285 32.7824 16.7231C32.9322 16.7944 33.082 16.8658 33.2363 16.9393C37.1455 18.8383 40.5854 21.485 43.9966 24.1508C44.3668 24.4401 44.7395 24.7261 45.1127 25.0117C45.798 25.5918 46.0918 25.9905 46.2054 26.8886C46.0927 27.82 45.8725 28.0212 45.161 28.6167C44.94 28.803 44.7191 28.9892 44.4915 29.1811C43.3953 30.0575 42.2752 30.9036 41.1548 31.7486C39.704 32.8472 38.3223 34.0094 36.9509 35.2047C36.2622 35.8044 35.5561 36.3792 34.843 36.9499C33.7849 37.807 32.7891 38.7148 31.7976 39.6468C29.7583 41.5513 29.7583 41.5513 28.7825 42.3892C28.605 42.5435 28.4275 42.6979 28.2447 42.857C27.6916 43.1467 27.6916 43.1467 26.9294 43.1211C26.2371 42.9043 26.2371 42.9043 25.7068 42.1316C23.8968 37.8806 23.9723 32.7031 23.9922 28.17C23.9948 27.4633 23.9922 26.7567 23.9891 26.05C23.9826 17.9863 23.9826 17.9863 25.8252 15.5848C26.5779 15.0069 27.3815 15.1286 28.2967 15.154Z" fill="#F4A99C"/>
<path d="M153.507 15.2688C155.305 16.6924 155.542 19.2293 155.794 21.386C156.414 27.9405 156.815 36.5965 153.992 42.6621C153.228 43.0442 152.625 43.1284 151.81 42.9045C151.057 42.3787 150.42 41.7456 149.768 41.0995C149.012 40.3547 148.235 39.6313 147.462 38.9046C147.294 38.7466 147.126 38.5886 146.954 38.4257C145.63 37.185 144.262 36.0318 142.841 34.9047C142.411 34.5517 141.982 34.1982 141.553 33.8441C140.537 33.0128 139.51 32.1985 138.477 31.3896C138.191 31.1639 137.904 30.9383 137.618 30.7126C137.077 30.2863 136.531 29.8673 135.98 29.4531C135.619 29.1742 135.619 29.1742 135.25 28.8897C135.036 28.7281 134.822 28.5666 134.601 28.4001C133.987 27.7378 133.894 27.3157 133.871 26.42C135.015 24.6701 136.809 23.5175 138.477 22.2989C138.633 22.1835 138.789 22.068 138.95 21.949C149.421 14.2294 149.421 14.2294 153.507 15.2688Z" fill="#F4A99C"/>
<path d="M90.0538 76.7675C90.2929 76.7604 90.5319 76.7534 90.7782 76.7462C92.4589 76.7318 93.8423 76.9961 95.3264 77.8129C96.1773 78.6638 96.4965 79.3236 96.6143 80.525C96.4657 82.337 95.5769 83.5004 94.2961 84.737C93.8719 85.0855 93.8719 85.0855 93.1598 85.4036C92.6143 85.7614 92.6143 85.7614 92.5604 86.3174C92.4883 88.3563 93.0329 90.2989 94.3567 91.8732C95.9395 93.1422 97.5229 93.6485 99.5384 93.555C102.03 93.2453 103.494 92.1039 105.069 90.2028C105.664 89.5097 105.874 89.4602 106.796 89.3732C107.829 89.4608 108.179 89.6962 108.902 90.4187C109.323 91.2607 109.256 92.1646 109.144 93.0853C107.891 95.4992 105.433 97.3012 102.929 98.2424C100.159 99.0954 96.9791 99.0042 94.335 97.8276C92.7905 96.9984 91.4531 96.0439 90.2356 94.7822C89.5344 95.1027 89.151 95.3745 88.569 95.9186C85.8507 98.3177 82.6626 98.8853 79.1594 98.7148C75.856 98.397 73.5435 96.4418 71.4557 94.0351C70.7765 93.1843 70.7481 92.5151 70.755 91.4518C70.8932 90.5823 71.376 90.2082 72.0542 89.6914C72.7579 89.3396 73.2112 89.3587 73.9936 89.449C74.8733 90.0538 75.4834 90.6949 76.145 91.5247C77.2266 92.7851 78.1287 93.2528 79.7974 93.4281C81.8314 93.5286 83.7548 93.4828 85.3872 92.1156C86.7717 90.5106 87.5009 88.8226 87.4667 86.6962C87.2961 85.9156 87.0917 85.7231 86.4478 85.2673C86.2716 85.1588 86.0953 85.0504 85.9137 84.9387C84.7741 84.2069 83.7575 83.0229 83.4479 81.6916C83.3167 80.4737 83.3123 79.5542 83.8418 78.4341C85.5018 76.643 87.783 76.7894 90.0538 76.7675Z" fill="black"/>
<path d="M125.407 66.4153C126.001 66.704 126.538 67.0183 127.083 67.3888C127.413 67.5913 127.413 67.5913 127.75 67.7979C129.432 69.5263 130.066 71.3455 130.069 73.7149C130.024 75.9383 129.274 77.5001 127.76 79.1007C126.023 80.736 124.24 81.1081 121.915 81.0713C120.114 80.8553 118.507 80.0354 117.265 78.7067C117.053 78.4157 116.851 78.1175 116.659 77.8128C116.56 77.6678 116.461 77.5228 116.358 77.3734C115.249 75.4155 115.329 72.6447 115.887 70.5147C116.692 68.7118 118.144 67.3852 119.884 66.4939C121.606 65.8846 123.659 65.8577 125.407 66.4153Z" fill="black"/>
<path d="M60.312 66.6766C62.0692 67.7279 63.3477 69.0872 64.0544 71.0249C64.6184 73.3416 64.4953 75.7093 63.3271 77.8127C62.1176 79.4188 60.7064 80.5433 58.7212 80.9641C56.4798 81.2324 54.7908 81.0035 52.9031 79.752C52.6431 79.587 52.3831 79.422 52.1153 79.252C50.6105 77.8505 49.9314 76.0055 49.8329 73.9908C49.811 71.7157 50.1295 70.0125 51.7128 68.293C54.0364 66.0885 57.3112 65.282 60.312 66.6766Z" fill="black"/>
<path d="M118.928 31.0397C119.721 31.3458 120.186 32.0404 120.696 32.6511C122.985 35.395 126.769 37.3316 130.532 37.8012C130.851 37.825 131.169 37.8425 131.489 37.856C131.589 37.8603 131.69 37.8647 131.794 37.8691C131.992 37.8766 132.19 37.8824 132.388 37.8861C133.136 37.9092 133.746 38.0241 134.328 38.4886C134.416 38.5901 134.416 38.5901 134.506 38.6936C134.598 38.7951 134.598 38.7951 134.691 38.8986C135.024 39.3471 135.037 39.8406 134.964 40.3625C134.731 41.0341 134.394 41.4079 133.701 41.7437C131.502 42.412 128.479 41.6417 126.378 40.938C126.247 40.8944 126.247 40.8944 126.114 40.8499C122.576 39.6411 119.08 37.5043 116.844 34.694C116.791 34.6274 116.738 34.5608 116.683 34.4922C116.179 33.8359 115.917 33.2256 116.024 32.4209C116.605 31.2088 117.524 30.8736 118.928 31.0397Z" fill="black"/>
<path d="M62.0917 31.2668C62.6224 31.6729 62.8779 32.0182 62.9939 32.651C63.0818 33.9798 62.2011 34.8547 61.3462 35.8011C58.1551 39.2434 53.2952 41.6413 48.4925 41.9615C48.2036 41.975 47.9152 41.9816 47.626 41.9865C47.5296 41.9908 47.4331 41.9951 47.3337 41.9996C46.5917 42.01 46.0938 41.827 45.5241 41.3657C45.0895 40.8703 44.9697 40.409 45.0061 39.7641C45.1118 39.0708 45.504 38.6996 46.0383 38.2702C46.4075 38.0225 46.7543 37.9973 47.1906 37.9747C51.3735 37.7237 55.1068 36.2955 58.068 33.39C58.3968 33.0266 58.6717 32.6501 58.9463 32.2485C59.6913 31.1828 60.7759 30.6382 62.0917 31.2668Z" fill="black"/>
<mask id="mask0_501_18706" style="mask-type:alpha" maskUnits="userSpaceOnUse" x="115" y="67" width="19" height="26">
<path d="M123.406 67.003C121.39 66.9506 119.58 67.5796 118.108 68.8485C117.261 69.6017 116.715 70.4096 116.251 71.3961C116.209 71.4848 116.167 71.5735 116.123 71.6649C115.518 73.2297 115.761 75.0761 116.506 76.5499C116.811 77.1301 117.15 77.6563 117.625 78.134C117.698 78.2091 117.771 78.2843 117.847 78.3617C119.079 79.5613 120.856 80.4368 122.678 80.499C122.885 80.5005 123.091 80.4997 123.298 80.4975C123.37 80.4972 123.441 80.4968 123.515 80.4964C123.689 80.4954 123.863 80.4939 124.037 80.4923C124.014 80.5803 123.991 80.6683 123.967 80.7591C122.145 87.7438 122.145 87.7438 123.755 90.2854C124.475 91.3492 125.8 92.1088 127.11 92.4096C128.844 92.6425 130.392 92.3861 131.846 91.4624C132.956 90.6428 133.656 89.3575 133.838 88.0724C134.214 84.3931 130.997 81.0343 128.617 78.3867C128.804 78.0959 129 77.8116 129.201 77.5287C130.229 76.0341 130.772 74.2365 130.341 72.4722C129.824 70.5796 128.687 68.989 126.877 67.943C125.777 67.3794 124.661 67.067 123.406 67.003Z" fill="black"/>
</mask>
<g mask="url(#mask0_501_18706)">
<rect width="12.475" height="14.2012" transform="matrix(-1 0 0 1 133.868 78.1919)" fill="black"/>
<path d="M126.785 80.0713C124.535 86.5134 124.535 86.5134 125.502 88.6621C125.907 89.3775 126.493 89.8854 127.31 90.186C128.251 90.45 129.11 90.4376 129.991 90.0097C130.74 89.5277 131.278 88.9108 131.457 88.0725C131.739 85.3586 129.33 82.6749 127.592 80.703C127.024 80.0713 127.024 80.0713 126.785 80.0713Z" fill="#AADCE7"/>
</g>
<mask id="mask1_501_18706" style="mask-type:alpha" maskUnits="userSpaceOnUse" x="47" y="67" width="19" height="26">
<path d="M57.7252 67.003C59.7411 66.9506 61.5516 67.5796 63.023 68.8485C63.8702 69.6017 64.416 70.4096 64.8805 71.3961C64.9225 71.4848 64.9646 71.5735 65.0079 71.6649C65.6128 73.2297 65.3699 75.0761 64.6253 76.5499C64.32 77.1301 63.9815 77.6563 63.5065 78.134C63.4332 78.2091 63.3598 78.2843 63.2843 78.3617C62.0527 79.5613 60.2755 80.4368 58.4536 80.499C58.2467 80.5005 58.0399 80.4997 57.8329 80.4975C57.7615 80.4972 57.6901 80.4968 57.6166 80.4964C57.4425 80.4954 57.2684 80.4939 57.0944 80.4923C57.1174 80.5803 57.1405 80.6683 57.1642 80.7591C58.9864 87.7438 58.9864 87.7438 57.3757 90.2854C56.6565 91.3492 55.3316 92.1088 54.021 92.4096C52.2868 92.6425 50.7396 92.3861 49.2853 91.4624C48.1756 90.6428 47.4749 89.3575 47.2929 88.0724C46.9173 84.3931 50.1342 81.0343 52.5143 78.3867C52.3269 78.0959 52.1312 77.8116 51.9303 77.5287C50.9022 76.0341 50.3597 74.2365 50.7901 72.4722C51.3076 70.5796 52.4444 68.989 54.2547 67.943C55.3538 67.3794 56.4705 67.067 57.7252 67.003Z" fill="black"/>
</mask>
<g mask="url(#mask1_501_18706)">
<rect x="47.2628" y="78.1919" width="12.475" height="14.2012" fill="black"/>
<path d="M54.3463 80.0713C56.5967 86.5134 56.5967 86.5134 55.6288 88.6621C55.2239 89.3775 54.6385 89.8854 53.821 90.186C52.88 90.45 52.021 90.4376 51.1403 90.0097C50.3908 89.5277 49.8528 88.9108 49.6746 88.0725C49.392 85.3586 51.8013 82.6749 53.5391 80.703C54.1076 80.0713 54.1076 80.0713 54.3463 80.0713Z" fill="#AADCE7"/>
</g>
<path d="M62.9357 45.5522C63.065 45.579 63.1943 45.6057 63.3274 45.6332C68.4197 46.7119 72.9792 49.1846 76.7616 52.7416C76.8388 52.8142 76.916 52.8867 76.9955 52.9614C80.7014 56.4709 83.1132 60.8484 84.504 65.7379C84.656 65.7012 84.8081 65.6645 84.9647 65.6267C85.1712 65.5773 85.3777 65.528 85.5842 65.4787C85.6835 65.4546 85.7829 65.4306 85.8852 65.4058C86.2077 65.3291 86.5307 65.2561 86.8544 65.1849C86.9705 65.1592 87.0867 65.1334 87.2063 65.1069C90.0044 64.5391 92.8373 64.8638 95.5647 65.5997C95.7782 65.6538 95.9919 65.7075 96.2057 65.7606C96.3592 65.7987 96.5126 65.8369 96.6707 65.8762C96.7012 65.735 96.7012 65.735 96.7323 65.591C98.0161 60.0425 101.506 55.0132 105.934 51.4973C106.137 51.3324 106.137 51.3324 106.344 51.1641C108.213 49.6765 110.27 48.4965 112.432 47.4878C112.588 47.4142 112.743 47.3406 112.903 47.2648C116.274 45.7408 119.906 45.0759 123.588 45.0942C123.751 45.0947 123.751 45.0947 123.917 45.0951C127.676 45.1116 131.236 45.8491 134.692 47.3496C134.84 47.4132 134.84 47.4132 134.991 47.4781C137.705 48.6582 140.153 50.2826 142.296 52.3269C142.382 52.4081 142.467 52.4894 142.556 52.5731C146.666 56.4912 149.522 61.3999 150.73 66.9822C150.73 67.1647 150.73 67.3472 150.73 67.5353C150.902 67.5289 151.074 67.5224 151.251 67.5158C154.086 67.4409 154.086 67.4409 155.138 68.3016C155.99 69.2033 156.195 70.1881 156.162 71.4022C156.047 72.608 155.644 73.5435 154.782 74.405C154.016 74.9993 153.157 75.1491 152.208 75.2194C152.06 75.2307 151.913 75.2419 151.76 75.2536C151.648 75.2615 151.536 75.2695 151.421 75.2777C151.409 75.3616 151.396 75.4455 151.383 75.5319C150.636 80.4938 149.193 85.2928 146.167 89.3801C146.069 89.5193 145.97 89.6584 145.869 89.8019C144.252 92.0162 142.087 94.2161 139.807 95.7399C139.726 95.7946 139.645 95.8492 139.561 95.9055C133.396 100.004 125.868 101.939 118.512 100.557C117.198 100.28 115.915 99.9048 114.644 99.4729C114.55 99.442 114.457 99.411 114.36 99.3791C107.315 97.0361 101.71 91.887 98.372 85.3376C96.1471 80.869 95.0379 75.7029 95.7029 70.7152C95.5849 70.6767 95.467 70.6382 95.3454 70.5986C95.0376 70.4943 94.7313 70.385 94.4273 70.2702C91.5736 69.1943 88.8901 69.2629 86.0907 70.4403C85.7483 70.577 85.7483 70.577 85.4718 70.577C85.4818 70.6579 85.4918 70.7388 85.5021 70.8221C85.9604 75.0618 85.162 79.326 83.6745 83.2967C83.6407 83.3869 83.607 83.477 83.5722 83.5699C80.9683 90.3414 75.2668 95.6529 68.7469 98.6201C65.3594 100.108 61.6339 100.913 57.9375 100.892C57.6312 100.89 57.325 100.892 57.0187 100.893C55.1288 100.895 53.2555 100.735 51.4171 100.277C51.2354 100.232 51.2354 100.232 51.05 100.186C46.2925 98.9709 41.8888 96.6359 38.3258 93.2513C38.2165 93.1487 38.2165 93.1487 38.105 93.0441C36.3117 91.3521 34.8307 89.4611 33.625 87.3062C33.5623 87.1945 33.4995 87.0828 33.4349 86.9677C31.3659 83.2433 30.2787 79.4897 29.7538 75.2777C29.6069 75.2742 29.4601 75.2706 29.3088 75.2669C27.9115 75.2179 26.9312 75.1251 25.9085 74.0939C25.1783 73.1954 24.9633 72.0594 25.0049 70.9194C25.1474 69.9047 25.6067 68.8574 26.4356 68.2266C27.652 67.6012 28.9692 67.5692 30.3068 67.5353C30.3276 67.4505 30.3484 67.3658 30.3698 67.2785C30.8036 65.5251 31.2522 63.8052 31.9659 62.1432C32.0091 62.0421 32.0524 61.9411 32.0969 61.8369C35.1619 54.7921 40.9769 49.5677 48.0654 46.7686C49.225 46.3246 50.3881 45.9664 51.5986 45.6905C51.7137 45.6634 51.8289 45.6363 51.9475 45.6083C55.4428 44.8166 59.4287 44.7975 62.9357 45.5522ZM46.483 52.4651C46.3986 52.5108 46.3141 52.5565 46.2272 52.6036C41.0862 55.3954 37.149 60.4348 35.4386 65.9965C35.3186 66.4074 35.2045 66.8193 35.094 67.2328C35.061 67.3564 35.0279 67.48 34.9939 67.6073C34.5356 69.4326 34.3977 71.2611 34.4027 73.1347C34.4027 73.2365 34.4028 73.3383 34.4028 73.4431C34.4079 75.2506 34.578 76.9737 35.0076 78.7342C35.0327 78.84 35.0579 78.9457 35.0838 79.0547C35.8324 82.108 37.3347 84.9984 39.2936 87.4444C39.3882 87.5672 39.4829 87.69 39.5804 87.8166C40.9272 89.5268 42.4828 91.0417 44.2709 92.2835C44.3509 92.3397 44.4309 92.3959 44.5134 92.4539C49.43 95.8573 55.9147 97.1066 61.7919 96.078C63.9315 95.6588 65.9453 95.0182 67.913 94.0808C68.0497 94.0162 68.0497 94.0162 68.1891 93.9503C70.4286 92.8722 72.3645 91.3886 74.1347 89.6566C74.2245 89.5737 74.3143 89.4908 74.4068 89.4054C78.2027 85.8334 80.6026 80.0994 80.7884 74.9335C80.8458 72.6293 80.8321 70.3538 80.3563 68.0883C80.3333 67.9782 80.3103 67.8682 80.2866 67.7547C79.3533 63.4728 77.0977 59.7969 74.1347 56.6129C74.05 56.5207 73.9653 56.4286 73.8781 56.3337C71.4166 53.7567 68.1837 52.0231 64.8714 50.806C64.7336 50.7551 64.5958 50.7041 64.4539 50.6516C58.6226 48.6798 51.8118 49.4747 46.483 52.4651ZM106.902 56.7511C106.824 56.8246 106.747 56.8981 106.667 56.9738C106.04 57.5811 105.508 58.2336 104.992 58.9373C104.908 59.0516 104.825 59.1658 104.739 59.2834C101.177 64.2381 99.5447 70.4678 100.476 76.5265C101.23 80.9642 102.991 84.9868 105.934 88.4123C105.994 88.4826 106.055 88.553 106.117 88.6254C109.897 92.9973 115.517 95.7984 121.276 96.2683C127.521 96.6359 133.622 95.2753 138.447 91.0813C138.864 90.7084 139.267 90.3218 139.669 89.9331C139.795 89.8155 139.922 89.6978 140.052 89.5766C144.167 85.6441 146.575 79.8346 146.764 74.1754C146.855 68.5864 145.41 63.1196 141.881 58.6868C141.791 58.5736 141.791 58.5736 141.7 58.4582C139.594 55.8324 137.147 53.722 134.139 52.1886C134.046 52.1404 133.954 52.0921 133.858 52.0424C124.701 47.3065 114.085 49.8129 106.902 56.7511Z" fill="#3DCCA3"/>
</svg>
