<svg width="350" height="350" viewBox="0 0 350 350" fill="none" xmlns="http://www.w3.org/2000/svg">
<path d="M175.341 69.8359C178.641 72.5076 181.008 76.7388 181.594 80.9473C181.807 83.6282 181.834 86.3685 180.911 88.9248C181.284 88.9375 181.284 88.9375 181.666 88.9506C186.522 89.1448 191.231 89.838 195.954 90.9761C196.267 91.0496 196.267 91.0496 196.586 91.1246C202.38 92.4955 207.942 94.4876 213.276 97.1301C213.484 97.2326 213.692 97.3352 213.906 97.4408C218.333 99.6433 222.423 102.227 226.268 105.335C226.406 105.447 226.544 105.559 226.687 105.673C229.81 108.217 232.679 111.049 235.157 114.225C235.508 114.648 235.859 115.07 236.211 115.492C238.952 118.862 241.057 122.657 242.93 126.565C243.123 126.965 243.322 127.362 243.521 127.759C246.722 134.302 248.691 141.453 250.038 148.589C250.638 151.715 251.4 154.683 252.447 157.683C253.223 159.909 253.801 162.026 254.075 164.368C254.115 164.635 254.156 164.901 254.197 165.176C255.33 174.429 252.678 183.879 247.009 191.264C243.732 195.435 239.925 198.781 235.385 201.52C235.24 201.608 235.095 201.695 234.946 201.785C232.342 203.344 232.342 203.344 231.51 203.344C231.51 203.494 231.51 203.645 231.51 203.8C231.675 203.857 231.84 203.914 232.01 203.972C233.088 204.449 233.909 205.246 234.8 206.005C235.148 206.299 235.501 206.586 235.853 206.874C237.651 208.353 239.311 209.961 240.955 211.606C241.117 211.767 241.117 211.767 241.281 211.932C242.428 213.079 243.547 214.239 244.604 215.47C245.151 216.103 245.725 216.709 246.297 217.318C247.306 218.404 248.271 219.512 249.198 220.669C249.605 221.177 250.017 221.68 250.434 222.181C254.047 226.54 257.151 230.961 258.933 236.376C259.063 236.768 259.2 237.158 259.34 237.547C260.282 240.563 260.294 244.719 258.861 247.561C258.782 247.722 258.702 247.883 258.619 248.048C256.8 251.263 254.094 253.054 250.656 254.171C245.166 255.437 239.132 253.717 234.245 251.208C234.321 251.359 234.396 251.509 234.473 251.664C236.224 262.907 235.655 274.804 228.744 284.266C223.808 290.804 216.937 294.418 209.401 297.249C209.401 300.484 209.401 303.718 209.401 307.05C210.078 307.201 210.755 307.351 211.453 307.506C212.479 307.822 213.49 308.178 214.501 308.536C214.969 308.702 215.438 308.863 215.907 309.024C218.724 310.008 220.977 311.075 222.593 313.66C223.252 315.395 223.121 317.859 222.432 319.573C221.43 321.338 220.052 322.556 218.104 323.126C217.562 323.242 217.073 323.262 216.519 323.263C216.312 323.263 216.105 323.264 215.892 323.264C215.678 323.263 215.463 323.262 215.242 323.261C214.923 323.263 214.923 323.263 214.597 323.264C213.524 323.263 212.509 323.227 211.453 323.005C211.463 323.162 211.474 323.319 211.485 323.481C211.568 325.642 211.029 327.21 209.564 328.816C208.267 329.954 206.707 330.384 205.015 330.362C203.244 330.183 201.529 329.28 200.284 328.019C199.491 326.941 198.816 325.806 198.233 324.6C198.09 324.694 197.946 324.787 197.799 324.884C195.641 326.242 193.744 326.76 191.167 326.424C189.483 325.863 187.972 325.026 187.065 323.461C186.04 321.394 185.791 319.421 186.481 317.207C187.372 315.006 188.988 313.258 190.679 311.633C191.304 311.019 191.873 310.366 192.441 309.701C192.689 309.415 192.951 309.141 193.219 308.874C193.275 308.27 193.304 307.689 193.313 307.084C193.318 306.908 193.322 306.731 193.326 306.549C193.34 305.985 193.351 305.421 193.361 304.856C193.37 304.474 193.379 304.092 193.388 303.71C193.41 302.772 193.429 301.834 193.447 300.896C193.282 300.925 193.117 300.953 192.947 300.983C187.261 301.953 181.693 302.14 175.942 302.109C175.157 302.106 174.371 302.107 173.586 302.109C169.551 302.113 165.547 302.09 161.537 301.58C161.264 301.546 160.99 301.513 160.709 301.478C160.081 301.396 159.456 301.306 158.83 301.209C158.522 301.164 158.522 301.164 158.207 301.117C157.721 301.045 157.236 300.971 156.751 300.896C156.711 301.966 156.682 303.036 156.663 304.107C156.655 304.47 156.644 304.834 156.63 305.197C156.469 307.637 156.469 307.637 157.501 309.755C157.775 310.002 158.057 310.24 158.346 310.469C160.996 312.988 163.785 315.896 163.93 319.757C163.832 321.632 163.241 323.445 161.821 324.736C160.035 326.162 158.496 326.569 156.206 326.52C154.377 326.306 152.742 325.468 151.28 324.372C151.266 324.647 151.266 324.647 151.252 324.928C150.791 326.805 149.432 328.308 147.861 329.387C146.188 330.314 144.575 330.621 142.709 330.148C140.943 329.531 139.745 328.508 138.873 326.851C138.337 325.537 138.439 324.171 138.516 322.777C138.353 322.851 138.19 322.925 138.021 323.001C136.963 323.382 135.912 323.308 134.798 323.304C134.569 323.308 134.339 323.311 134.103 323.315C131.84 323.317 130.382 322.789 128.712 321.225C127.195 319.55 126.992 317.634 127.044 315.445C127.22 313.415 128.221 312.2 129.719 310.904C130.697 310.186 131.748 309.815 132.89 309.429C133.125 309.345 133.361 309.261 133.604 309.175C134.329 308.918 135.055 308.668 135.781 308.418C136.238 308.257 136.695 308.095 137.152 307.933C138.212 307.557 139.276 307.19 140.34 306.822C140.49 303.663 140.641 300.504 140.796 297.249C139.724 296.854 139.724 296.854 138.63 296.452C136.461 295.635 134.408 294.689 132.362 293.602C132.141 293.491 131.921 293.379 131.693 293.264C124.383 289.481 119.028 282.721 116.413 274.982C114.025 267.272 114.63 259.092 115.724 251.208C115.608 251.257 115.493 251.307 115.374 251.357C109.913 253.668 103.672 255.789 97.8281 253.596C94.8228 252.323 92.0866 250.197 90.8309 247.108C89.0115 241.909 90.4221 236.755 92.7273 231.95C93.8107 229.787 95.1141 227.83 96.578 225.908C96.6736 225.781 96.7691 225.655 96.8676 225.524C98.1711 223.793 99.5192 222.101 100.909 220.438C101.056 220.262 101.056 220.262 101.205 220.082C103.838 216.93 106.673 213.974 109.57 211.065C109.747 210.887 109.924 210.708 110.106 210.525C111.182 209.452 112.29 208.433 113.445 207.446C113.699 207.225 113.953 207.004 114.207 206.782C115.493 205.673 116.748 204.643 118.231 203.8C117.565 203.26 116.857 202.849 116.105 202.442C113.321 200.935 110.84 199.199 108.533 197.029C108.049 196.576 107.556 196.148 107.048 195.722C100.502 189.99 96.3196 180.711 95.7215 172.103C95.4983 167.997 95.6002 163.911 96.6208 159.91C96.6795 159.676 96.6795 159.676 96.7393 159.438C96.982 158.557 97.2764 157.711 97.6256 156.867C98.5886 154.531 99.2224 152.274 99.6656 149.788C99.8444 148.79 100.038 147.795 100.231 146.799C100.269 146.603 100.307 146.408 100.346 146.206C100.848 143.636 101.518 141.119 102.276 138.613C102.338 138.407 102.4 138.202 102.464 137.99C105.63 127.649 110.72 118.16 118.231 110.35C118.338 110.238 118.445 110.126 118.555 110.01C119.835 108.677 121.162 107.45 122.61 106.301C123.035 105.96 123.454 105.61 123.867 105.254C125.816 103.567 127.909 102.155 130.083 100.777C130.239 100.678 130.394 100.579 130.554 100.478C139.421 94.9062 149.743 91.5397 160.055 89.9789C160.307 89.9407 160.558 89.9024 160.817 89.863C162.283 89.655 163.704 89.5602 165.184 89.6085C165.184 89.4581 165.184 89.3077 165.184 89.1527C165.033 89.1057 164.883 89.0587 164.728 89.0102C164.12 88.7315 163.743 88.4708 163.232 88.0558C161.293 86.5759 159.219 86.0662 156.83 85.8602C156.023 85.7265 155.57 85.5493 154.927 85.05C154.314 84.1325 154.267 83.1526 154.471 82.087C154.971 81.1731 155.52 80.6223 156.486 80.2262C159.223 79.5021 161.887 80.2879 164.327 81.5608C165.087 82.0148 165.823 82.4955 166.551 82.9987C166.705 83.1044 166.858 83.2101 167.017 83.3191C168.162 84.1118 169.296 84.9198 170.426 85.7338C170.623 85.8753 170.623 85.8753 170.824 86.0196C172.729 87.3874 172.729 87.3874 173.542 88.0629C174.022 88.5151 174.022 88.5151 174.529 88.4689C174.691 88.067 174.691 88.067 174.856 87.6569C174.917 87.5062 174.978 87.3555 175.041 87.2002C175.818 84.6923 175.778 81.5479 174.757 79.1239C174.682 78.9376 174.607 78.7514 174.53 78.5595C173.51 76.2804 171.857 74.6477 169.78 73.3056C169.028 72.7937 168.666 72.4755 168.375 71.6024C168.29 70.4602 168.348 69.7809 169.059 68.8672C171.081 67.0405 173.488 68.458 175.341 69.8359Z" fill="#FFF1A6"/>
<path d="M175.341 69.8359C178.641 72.5076 181.008 76.7388 181.594 80.9473C181.807 83.6282 181.834 86.3685 180.911 88.9248C181.284 88.9375 181.284 88.9375 181.666 88.9506C186.522 89.1448 191.231 89.838 195.954 90.9761C196.267 91.0496 196.267 91.0496 196.586 91.1246C202.38 92.4955 207.942 94.4876 213.276 97.1301C213.484 97.2326 213.692 97.3352 213.906 97.4408C218.333 99.6433 222.423 102.227 226.268 105.335C226.406 105.447 226.544 105.559 226.687 105.673C229.81 108.217 232.679 111.049 235.157 114.225C235.508 114.648 235.859 115.07 236.211 115.492C238.952 118.862 241.057 122.657 242.93 126.565C243.123 126.965 243.322 127.362 243.521 127.759C246.722 134.302 248.691 141.453 250.038 148.589C250.638 151.715 251.4 154.683 252.447 157.683C253.223 159.909 253.801 162.026 254.075 164.368C254.115 164.635 254.156 164.901 254.197 165.176C255.33 174.429 252.678 183.879 247.009 191.264C243.732 195.435 239.925 198.781 235.385 201.52C235.24 201.608 235.095 201.695 234.946 201.785C232.342 203.344 232.342 203.344 231.51 203.344C231.51 203.494 231.51 203.645 231.51 203.8C231.675 203.857 231.84 203.914 232.01 203.972C233.088 204.449 233.909 205.246 234.8 206.005C235.148 206.299 235.501 206.586 235.853 206.874C237.651 208.353 239.311 209.961 240.955 211.606C241.117 211.767 241.117 211.767 241.281 211.932C242.428 213.079 243.547 214.239 244.604 215.47C245.151 216.103 245.725 216.709 246.297 217.318C247.306 218.404 248.271 219.512 249.198 220.669C249.605 221.177 250.017 221.68 250.434 222.181C254.047 226.54 257.151 230.961 258.933 236.376C259.063 236.768 259.2 237.158 259.34 237.547C260.282 240.563 260.294 244.719 258.861 247.561C258.782 247.722 258.702 247.883 258.619 248.048C256.8 251.263 254.094 253.054 250.656 254.171C245.166 255.437 239.132 253.717 234.245 251.208C234.321 251.359 234.396 251.509 234.473 251.664C236.224 262.907 235.655 274.804 228.744 284.266C223.808 290.804 216.937 294.418 209.401 297.249C209.401 300.484 209.401 303.718 209.401 307.05C210.078 307.201 210.755 307.351 211.453 307.506C212.479 307.822 213.49 308.178 214.501 308.536C214.969 308.702 215.438 308.863 215.907 309.024C218.724 310.008 220.977 311.075 222.593 313.66C223.252 315.395 223.121 317.859 222.432 319.573C221.43 321.338 220.052 322.556 218.104 323.126C217.562 323.242 217.073 323.262 216.519 323.263C216.312 323.263 216.105 323.264 215.892 323.264C215.678 323.263 215.463 323.262 215.242 323.261C214.923 323.263 214.923 323.263 214.597 323.264C213.524 323.263 212.509 323.227 211.453 323.005C211.463 323.162 211.474 323.319 211.485 323.481C211.568 325.642 211.029 327.21 209.564 328.816C208.267 329.954 206.707 330.384 205.015 330.362C203.244 330.183 201.529 329.28 200.284 328.019C199.491 326.941 198.816 325.806 198.233 324.6C198.09 324.694 197.946 324.787 197.799 324.884C195.641 326.242 193.744 326.76 191.167 326.424C189.483 325.863 187.972 325.026 187.065 323.461C186.04 321.394 185.791 319.421 186.481 317.207C187.372 315.006 188.988 313.258 190.679 311.633C191.304 311.019 191.873 310.366 192.441 309.701C192.689 309.415 192.951 309.141 193.219 308.874C193.275 308.27 193.304 307.689 193.313 307.084C193.318 306.908 193.322 306.731 193.326 306.549C193.34 305.985 193.351 305.421 193.361 304.856C193.37 304.474 193.379 304.092 193.388 303.71C193.41 302.772 193.429 301.834 193.447 300.896C193.282 300.925 193.117 300.953 192.947 300.983C187.261 301.953 181.693 302.14 175.942 302.109C175.157 302.106 174.371 302.107 173.586 302.109C169.551 302.113 165.547 302.09 161.537 301.58C161.264 301.546 160.99 301.513 160.709 301.478C160.081 301.396 159.456 301.306 158.83 301.209C158.522 301.164 158.522 301.164 158.207 301.117C157.721 301.045 157.236 300.971 156.751 300.896C156.711 301.966 156.682 303.036 156.663 304.107C156.655 304.47 156.644 304.834 156.63 305.197C156.469 307.637 156.469 307.637 157.501 309.755C157.775 310.002 158.057 310.24 158.346 310.469C160.996 312.988 163.785 315.896 163.93 319.757C163.832 321.632 163.241 323.445 161.821 324.736C160.035 326.162 158.496 326.569 156.206 326.52C154.377 326.306 152.742 325.468 151.28 324.372C151.266 324.647 151.266 324.647 151.252 324.928C150.791 326.805 149.432 328.308 147.861 329.387C146.188 330.314 144.575 330.621 142.709 330.148C140.943 329.531 139.745 328.508 138.873 326.851C138.337 325.537 138.439 324.171 138.516 322.777C138.353 322.851 138.19 322.925 138.021 323.001C136.963 323.382 135.912 323.308 134.798 323.304C134.569 323.308 134.339 323.311 134.103 323.315C131.84 323.317 130.382 322.789 128.712 321.225C127.195 319.55 126.992 317.634 127.044 315.445C127.22 313.415 128.221 312.2 129.719 310.904C130.697 310.186 131.748 309.815 132.89 309.429C133.125 309.345 133.361 309.261 133.604 309.175C134.329 308.918 135.055 308.668 135.781 308.418C136.238 308.257 136.695 308.095 137.152 307.933C138.212 307.557 139.276 307.19 140.34 306.822C140.49 303.663 140.641 300.504 140.796 297.249C139.724 296.854 139.724 296.854 138.63 296.452C136.461 295.635 134.408 294.689 132.362 293.602C132.141 293.491 131.921 293.379 131.693 293.264C124.383 289.481 119.028 282.721 116.413 274.982C114.025 267.272 114.63 259.092 115.724 251.208C115.608 251.257 115.493 251.307 115.374 251.357C109.913 253.668 103.672 255.789 97.8281 253.596C94.8228 252.323 92.0866 250.197 90.8309 247.108C89.0115 241.909 90.4221 236.755 92.7273 231.95C93.8107 229.787 95.1141 227.83 96.578 225.908C96.6736 225.781 96.7691 225.655 96.8676 225.524C98.1711 223.793 99.5192 222.101 100.909 220.438C101.056 220.262 101.056 220.262 101.205 220.082C103.838 216.93 106.673 213.974 109.57 211.065C109.747 210.887 109.924 210.708 110.106 210.525C111.182 209.452 112.29 208.433 113.445 207.446C113.699 207.225 113.953 207.004 114.207 206.782C115.493 205.673 116.748 204.643 118.231 203.8C117.565 203.26 116.857 202.849 116.105 202.442C113.321 200.935 110.84 199.199 108.533 197.029C108.049 196.576 107.556 196.148 107.048 195.722C100.502 189.99 96.3196 180.711 95.7215 172.103C95.4983 167.997 95.6002 163.911 96.6208 159.91C96.6795 159.676 96.6795 159.676 96.7393 159.438C96.982 158.557 97.2764 157.711 97.6256 156.867C98.5886 154.531 99.2224 152.274 99.6656 149.788C99.8444 148.79 100.038 147.795 100.231 146.799C100.269 146.603 100.307 146.408 100.346 146.206C100.848 143.636 101.518 141.119 102.276 138.613C102.338 138.407 102.4 138.202 102.464 137.99C105.63 127.649 110.72 118.16 118.231 110.35C118.338 110.238 118.445 110.126 118.555 110.01C119.835 108.677 121.162 107.45 122.61 106.301C123.035 105.96 123.454 105.61 123.867 105.254C125.816 103.567 127.909 102.155 130.083 100.777C130.239 100.678 130.394 100.579 130.554 100.478C139.421 94.9062 149.743 91.5397 160.055 89.9789C160.307 89.9407 160.558 89.9024 160.817 89.863C162.283 89.655 163.704 89.5602 165.184 89.6085C165.184 89.4581 165.184 89.3077 165.184 89.1527C165.033 89.1057 164.883 89.0587 164.728 89.0102C164.12 88.7315 163.743 88.4708 163.232 88.0558C161.293 86.5759 159.219 86.0662 156.83 85.8602C156.023 85.7265 155.57 85.5493 154.927 85.05C154.314 84.1325 154.267 83.1526 154.471 82.087C154.971 81.1731 155.52 80.6223 156.486 80.2262C159.223 79.5021 161.887 80.2879 164.327 81.5608C165.087 82.0148 165.823 82.4955 166.551 82.9987C166.705 83.1044 166.858 83.2101 167.017 83.3191C168.162 84.1118 169.296 84.9198 170.426 85.7338C170.623 85.8753 170.623 85.8753 170.824 86.0196C172.729 87.3874 172.729 87.3874 173.542 88.0629C174.022 88.5151 174.022 88.5151 174.529 88.4689C174.691 88.067 174.691 88.067 174.856 87.6569C174.917 87.5062 174.978 87.3555 175.041 87.2002C175.818 84.6923 175.778 81.5479 174.757 79.1239C174.682 78.9376 174.607 78.7514 174.53 78.5595C173.51 76.2804 171.857 74.6477 169.78 73.3056C169.028 72.7937 168.666 72.4755 168.375 71.6024C168.29 70.4602 168.348 69.7809 169.059 68.8672C171.081 67.0405 173.488 68.458 175.341 69.8359ZM123.929 112.857C123.686 113.089 123.686 113.089 123.438 113.326C120.92 115.741 118.641 118.205 116.636 121.062C116.534 121.206 116.432 121.349 116.327 121.496C110.427 129.854 106.352 140.169 105.333 150.367C105.06 153.037 104.503 155.312 103.511 157.81C102.054 161.484 101.405 164.767 101.568 168.722C101.593 169.408 101.602 170.093 101.608 170.78C101.675 175.278 102.84 178.81 104.783 182.83C104.856 182.983 104.929 183.135 105.003 183.292C108.663 190.88 116.036 196.793 123.914 199.562C125.231 200.015 126.551 200.458 127.877 200.881C128.033 200.932 128.188 200.983 128.349 201.035C128.776 201.175 129.204 201.311 129.633 201.447C130.356 201.768 130.619 201.974 130.995 202.66C131.268 203.789 131.363 204.213 130.824 205.253C130.258 205.913 129.91 206.282 129.026 206.359C128.797 206.356 128.567 206.353 128.331 206.349C128.104 206.348 127.878 206.347 127.645 206.345C126.892 206.307 126.892 206.307 126.014 206.114C124.793 205.955 124.039 206.595 123.089 207.29C122.91 207.415 122.731 207.54 122.547 207.669C122.015 208.044 121.49 208.427 120.966 208.814C120.822 208.92 120.678 209.026 120.529 209.135C119.673 209.77 118.835 210.427 118.003 211.093C117.669 211.357 117.669 211.357 117.328 211.626C116.187 212.541 115.122 213.487 114.103 214.536C113.676 214.964 113.234 215.358 112.775 215.751C111.274 217.047 109.914 218.459 108.627 219.965C108.147 220.5 107.637 220.993 107.12 221.492C101.907 226.665 96.0503 235.003 95.7803 242.547C95.851 244.338 96.374 245.392 97.6749 246.607C100.136 248.615 103.354 248.517 106.379 248.245C109.124 247.777 111.717 246.661 114.131 245.3C114.609 245.041 115.096 244.813 115.588 244.583C117.276 243.761 117.276 243.761 118.448 242.353C118.789 241.301 118.893 240.208 119.034 239.115C119.247 237.806 119.629 236.54 119.997 235.268C120.076 234.996 120.155 234.724 120.236 234.444C120.733 232.765 121.267 231.105 121.892 229.47C121.959 229.288 122.025 229.107 122.094 228.92C122.584 227.702 123.244 226.821 124.385 226.136C125.1 225.946 125.446 226.001 126.208 226.136C126.822 226.632 127.224 227.028 127.576 227.732C127.703 229.081 127.515 230.252 127.049 231.521C126.99 231.69 126.931 231.86 126.871 232.034C126.463 233.202 126.034 234.362 125.607 235.523C123.726 240.672 122.352 245.812 121.522 251.242C121.456 251.668 121.389 252.092 121.318 252.517C120.765 255.867 120.667 259.187 120.653 262.576C120.65 262.885 120.65 262.885 120.647 263.201C120.623 266.779 120.819 270.443 122.035 273.844C122.092 274.011 122.15 274.177 122.21 274.349C123.157 276.957 124.619 279.203 126.436 281.294C126.667 281.571 126.667 281.571 126.903 281.853C133.814 289.886 144.66 292.775 154.699 294.514C154.939 294.556 155.179 294.598 155.426 294.641C157.155 294.936 158.887 295.19 160.625 295.426C160.867 295.461 161.108 295.495 161.357 295.531C174.647 297.383 189.821 296.792 202.792 293.147C203.015 293.085 203.239 293.023 203.469 292.96C210.003 291.137 216.054 288.511 221.026 283.802C221.188 283.652 221.188 283.652 221.354 283.499C226.433 278.812 228.919 272.493 229.275 265.641C229.292 264.799 229.294 263.959 229.288 263.117C229.287 262.967 229.287 262.816 229.286 262.661C229.258 257.563 228.789 252.574 227.864 247.561C227.828 247.355 227.792 247.149 227.755 246.936C226.921 242.215 225.343 237.577 223.603 233.114C223.54 232.952 223.477 232.79 223.412 232.623C223.294 232.32 223.173 232.017 223.05 231.715C222.491 230.288 222.307 228.788 222.621 227.276C223.05 226.754 223.387 226.437 223.989 226.136C225.148 226.049 225.788 226.128 226.724 226.82C229.561 230.828 230.577 236.605 231.594 241.308C231.877 242.396 232.092 243.05 233.076 243.648C233.256 243.759 233.437 243.869 233.623 243.983C233.819 244.097 234.015 244.211 234.217 244.328C234.42 244.447 234.622 244.566 234.831 244.689C239.279 247.234 244.423 249.103 249.602 248.096C251.36 247.529 252.799 246.48 253.733 244.869C254.466 243.119 254.07 241.216 253.605 239.441C253.528 239.145 253.528 239.145 253.449 238.842C250.997 229.82 244.002 222.665 237.579 216.222C237.368 216.009 237.156 215.797 236.938 215.578C235.897 214.539 234.845 213.531 233.728 212.573C233.187 212.106 232.671 211.613 232.151 211.122C230.811 209.902 229.377 208.894 227.864 207.902C227.605 207.722 227.347 207.542 227.089 207.361C225.608 206.292 225.608 206.292 223.861 206.079C223.622 206.133 223.622 206.133 223.379 206.188C222.038 206.488 220.584 206.583 219.387 205.879C218.806 205.198 218.711 204.82 218.704 203.942C218.7 203.766 218.697 203.591 218.694 203.41C218.754 202.814 218.888 202.484 219.202 201.976C219.6 201.722 219.6 201.722 220.087 201.524C220.271 201.448 220.455 201.373 220.645 201.295C221.744 200.878 222.851 200.484 223.96 200.096C228.714 198.4 232.898 196.65 236.753 193.315C236.865 193.218 236.977 193.121 237.093 193.021C242.935 187.927 247.42 181.08 248.377 173.257C248.402 172.626 248.419 172 248.423 171.369C248.424 171.192 248.426 171.014 248.427 170.832C248.429 170.457 248.431 170.083 248.432 169.709C248.434 169.148 248.441 168.586 248.448 168.024C248.468 165.066 248.032 162.415 247.052 159.61C246.965 159.35 246.965 159.35 246.875 159.085C246.598 158.269 246.306 157.467 245.965 156.675C244.957 154.269 244.619 151.894 244.272 149.316C242.528 136.568 237.216 124.922 228.319 115.592C228.032 115.266 227.747 114.939 227.465 114.609C223.424 109.964 218.215 106.397 212.82 103.512C212.681 103.436 212.541 103.361 212.397 103.283C205.611 99.6382 198.194 97.6171 190.712 95.9905C190.529 95.9497 190.347 95.9089 190.159 95.8668C189.133 95.639 188.104 95.458 187.065 95.3067C186.863 95.2762 186.661 95.2456 186.454 95.2142C165.796 92.212 142.11 97.311 123.929 112.857Z" fill="black"/>
<path d="M181.865 155.992C185.774 158.406 190.381 161.853 191.764 166.429C192.197 168.642 191.503 170.621 190.313 172.488C187.394 176.566 183.057 179.58 178.176 180.779C178.035 180.819 177.894 180.858 177.749 180.899C173.515 181.841 169.424 180.505 165.868 178.272C162.52 176.025 159.342 173.126 158.438 169.037C158.119 167.067 158.507 165.474 159.633 163.815C160.027 163.304 160.435 162.809 160.853 162.317C161.128 161.964 161.128 161.964 161.409 161.605C162.153 160.77 162.955 160.065 163.816 159.354C163.929 159.259 164.043 159.165 164.159 159.068C169.823 154.368 175.145 152.274 181.865 155.992Z" fill="black"/>
<path d="M230.884 160.978C233.104 163.082 234.225 165.723 234.325 168.749C234.364 172.072 233.54 175.183 231.22 177.676C228.6 180.124 225.515 181.207 221.975 181.138C218.737 180.982 215.711 179.525 213.504 177.132C212.964 176.409 212.54 175.66 212.137 174.853C212.026 174.632 211.914 174.412 211.799 174.184C210.633 171.566 210.629 168.653 211.429 165.912C211.89 164.756 212.539 163.769 213.276 162.773C213.396 162.609 213.516 162.444 213.639 162.275C215.451 160.002 218.028 158.736 220.798 158.043C224.626 157.724 227.899 158.497 230.884 160.978Z" fill="#F4A99C"/>
<path d="M131.451 158.898C131.773 159.043 131.773 159.043 132.102 159.191C135.011 160.631 136.747 162.95 137.833 165.964C138.523 169.464 138.176 173.092 136.166 176.106C135.894 176.454 135.614 176.797 135.326 177.132C135.196 177.293 135.065 177.454 134.931 177.619C133.179 179.584 130.34 180.932 127.717 181.091C125.394 181.151 123.525 180.954 121.422 179.867C121.214 179.763 121.006 179.659 120.791 179.551C118.362 178.222 116.638 175.915 115.753 173.3C114.936 169.831 115.239 166.062 117.054 162.974C120.257 158.311 126.232 156.474 131.451 158.898Z" fill="#F4A99C"/>
<path d="M146.266 298.845C148.635 299.296 148.635 299.296 151.052 299.756C151.044 300.271 151.037 300.785 151.028 301.315C150.646 307.932 150.646 307.932 153.32 313.69C153.82 314.191 154.328 314.683 154.842 315.17C157.346 317.548 157.346 317.548 157.506 319.173C157.434 319.814 157.434 319.814 156.978 320.498C155.939 320.465 155.38 320.362 154.635 319.615C154.387 319.348 154.142 319.077 153.901 318.803C152.949 317.726 152.303 317.112 150.824 316.851C149.877 316.867 149.402 316.942 148.656 317.534C147.942 318.397 147.686 319.207 147.377 320.27C146.657 322.667 146.657 322.667 146.038 323.461C145.198 323.646 145.198 323.646 144.443 323.689C144.037 322.989 143.93 322.478 143.924 321.673C143.92 321.464 143.915 321.255 143.91 321.04C143.904 320.602 143.9 320.165 143.898 319.728C143.877 318.493 143.877 318.493 143.379 317.39C141.971 316.565 139.967 317.045 138.431 317.307C137.303 317.498 136.211 317.592 135.069 317.606C134.786 317.61 134.504 317.614 134.213 317.617C133.502 317.535 133.502 317.535 133.048 317.26C132.818 316.851 132.818 316.851 132.845 316.298C133.046 315.711 133.046 315.711 133.549 315.341C135.371 314.49 137.217 313.812 139.129 313.19C142.376 312.249 142.376 312.249 145.01 310.262C146.058 308.118 145.878 305.286 145.96 302.934C145.967 302.732 145.975 302.531 145.982 302.323C145.987 302.147 145.993 301.971 145.998 301.789C146.057 300.805 146.168 299.825 146.266 298.845Z" fill="#FFBB4D"/>
<path d="M203.932 299.073C203.938 299.416 203.938 299.416 203.945 299.765C203.963 300.625 203.983 301.484 204.004 302.343C204.013 302.713 204.02 303.083 204.028 303.453C203.927 307.341 203.927 307.341 205.351 310.803C207.268 312.463 210.041 313.076 212.419 313.815C214.133 314.35 215.677 314.889 217.151 315.939C217.066 316.609 217.066 316.609 216.923 317.307C215.625 317.956 213.817 317.498 212.436 317.307C211.178 317.138 209.931 317.018 208.661 316.993C208.387 316.987 208.113 316.98 207.831 316.974C206.983 317.099 206.73 317.325 206.211 317.991C205.938 318.537 205.94 318.913 205.919 319.522C205.91 319.734 205.902 319.947 205.893 320.166C205.885 320.388 205.877 320.611 205.869 320.84C205.853 321.279 205.837 321.718 205.819 322.157C205.812 322.353 205.805 322.548 205.798 322.749C205.755 323.233 205.755 323.233 205.527 323.689C204.801 323.703 204.801 323.703 203.932 323.461C202.821 322.242 202.511 320.514 202.151 318.956C201.831 318.083 201.456 317.664 200.741 317.079C199.864 316.721 199.057 316.82 198.148 317.022C197.069 317.545 196.332 318.574 195.574 319.473C194.917 320.176 194.48 320.456 193.532 320.569C193.354 320.545 193.175 320.522 192.991 320.498C192.483 319.736 192.471 319.375 192.613 318.487C193.195 316.567 195.164 315.097 196.567 313.76C199.188 310.996 199.02 307.359 198.96 303.745C198.956 303.377 198.953 303.01 198.951 302.642C198.943 301.756 198.931 300.87 198.917 299.984C199.539 299.831 200.161 299.679 200.783 299.529C200.959 299.485 201.134 299.442 201.314 299.397C202.204 299.183 203.009 299.014 203.932 299.073Z" fill="#FFBB4D"/>
<path d="M209.604 146.775C211.354 147.76 212.684 149.448 213.276 151.377C213.346 152.038 213.352 152.692 213.347 153.357C213.345 153.631 213.345 153.631 213.343 153.911C213.297 156.172 212.81 157.914 211.225 159.582C209.516 161.171 207.655 161.811 205.326 161.74C203.308 161.437 201.683 160.338 200.427 158.76C199.045 156.724 198.913 154.68 199.145 152.288C199.563 150.29 200.568 148.512 202.238 147.307C204.552 145.887 207.085 145.59 209.604 146.775Z" fill="black"/>
<path d="M147.138 146.925C148.832 148.118 149.982 149.602 150.597 151.605C150.938 154.045 150.723 156.355 149.485 158.499C148.237 160.115 146.827 160.99 144.898 161.633C142.828 161.843 141.181 161.507 139.495 160.268C137.84 158.866 136.981 157.63 136.693 155.479C136.493 152.963 136.574 151.025 138.061 148.869C138.645 148.186 138.645 148.186 139.2 147.73C139.374 147.57 139.548 147.41 139.727 147.245C141.921 145.715 144.818 145.558 147.138 146.925Z" fill="black"/>
<path d="M179.225 160.338C181.815 161.82 184.26 163.694 185.925 166.192C185.925 166.417 185.925 166.643 185.925 166.875C183.603 167.497 181.42 167.596 179.021 167.598C178.704 167.598 178.388 167.599 178.071 167.6C177.408 167.601 176.746 167.602 176.083 167.601C175.244 167.601 174.404 167.605 173.564 167.609C172.91 167.611 172.256 167.612 171.601 167.611C171.144 167.612 170.687 167.614 170.23 167.617C165.503 167.605 165.503 167.605 164.044 166.875C165.247 163.39 169.553 160.928 172.705 159.354C175.144 158.451 176.982 159.205 179.225 160.338Z" fill="#FFBB4D"/>
<path d="M185.013 172.118C183.766 173.126 182.508 173.884 181.053 174.554C180.874 174.64 180.695 174.726 180.51 174.814C177.571 176.19 174.873 176.749 171.694 175.765C169.389 174.92 167.188 173.765 165.184 172.346C165.184 172.271 165.184 172.195 165.184 172.118C165.399 172.118 165.615 172.119 165.838 172.119C167.876 172.124 169.915 172.127 171.954 172.13C173.002 172.131 174.05 172.132 175.098 172.135C176.11 172.137 177.123 172.139 178.135 172.139C178.52 172.14 178.906 172.141 179.291 172.142C179.833 172.144 180.374 172.144 180.916 172.144C181.073 172.145 181.231 172.145 181.393 172.146C182.184 172.145 182.949 172.098 183.731 171.988C184.557 171.89 184.557 171.89 185.013 172.118Z" fill="#FFBB4D"/>
<path d="M163.212 133.143C165.498 135.156 167.274 138.301 167.611 141.37C167.979 147.4 165.633 152.494 161.71 156.997C161.314 157.434 160.911 157.862 160.505 158.289C160.324 158.5 160.144 158.711 159.966 158.924C159.264 159.734 158.494 160.478 157.729 161.228C157.215 161.735 156.719 162.246 156.251 162.795C155.535 163.618 154.774 164.392 154.007 165.166C153.857 165.317 153.708 165.468 153.554 165.623C153.24 165.94 152.925 166.256 152.61 166.572C152.209 166.975 151.81 167.38 151.411 167.786C151.026 168.176 150.639 168.564 150.253 168.952C150.111 169.096 149.969 169.241 149.823 169.391C148.906 170.304 148.213 170.87 146.906 171.063C145.625 170.886 144.63 170.043 143.6 169.308C142.528 168.569 141.415 167.892 140.312 167.2C139.393 166.622 138.479 166.039 137.565 165.455C136.776 164.952 135.985 164.451 135.191 163.956C132.317 162.158 129.513 160.242 127.005 157.951C126.908 157.862 126.81 157.773 126.71 157.681C123.721 154.917 121.368 151.374 121.173 147.194C121.167 146.818 121.166 146.441 121.168 146.065C121.169 145.866 121.17 145.667 121.171 145.463C121.238 142.188 122.456 139.425 124.636 136.971C124.732 136.864 124.827 136.756 124.926 136.645C126.923 134.531 129.762 133.164 132.666 133.039C136.604 132.95 139.783 133.998 142.74 136.633C143.021 136.86 143.302 137.086 143.586 137.309C143.694 137.152 143.803 136.995 143.914 136.833C146.15 133.621 149.18 131.156 153.131 130.447C156.79 130 160.287 130.87 163.212 133.143Z" fill="#FF6060"/>
<path d="M201.788 132.911C203.012 133.859 204.008 134.926 204.881 136.208C205.184 136.65 205.51 137.064 205.848 137.479C205.931 137.386 206.013 137.294 206.098 137.199C208.257 134.903 211.362 133.14 214.56 133.029C218.108 132.993 220.916 133.727 223.614 136.125C223.781 136.269 223.781 136.269 223.953 136.417C226.149 138.441 227.682 141.587 227.875 144.565C227.889 145.08 227.89 145.593 227.886 146.107C227.887 146.279 227.888 146.451 227.89 146.628C227.879 150.919 225.703 154.413 222.82 157.443C220.267 159.916 217.149 161.915 214.16 163.813C213.548 164.203 212.939 164.599 212.331 164.993C212.089 165.15 211.847 165.306 211.605 165.463C211.19 165.731 210.775 166 210.36 166.269C209.427 166.872 208.49 167.467 207.547 168.055C207.367 168.167 207.187 168.279 207.001 168.395C206.642 168.618 206.282 168.841 205.922 169.064C205.208 169.508 204.502 169.949 203.827 170.452C203.364 170.772 203.109 170.932 202.56 170.989C202.445 171.005 202.33 171.021 202.212 171.037C201.01 170.871 200.124 170.09 199.306 169.252C199.202 169.149 199.098 169.045 198.991 168.939C198.65 168.599 198.313 168.257 197.975 167.915C197.737 167.676 197.499 167.437 197.261 167.199C196.763 166.7 196.267 166.2 195.771 165.699C195.138 165.059 194.504 164.422 193.869 163.785C193.26 163.174 192.651 162.562 192.043 161.951C191.928 161.835 191.814 161.72 191.695 161.601C190.57 160.469 189.453 159.34 188.422 158.12C188.186 157.866 187.95 157.612 187.713 157.359C185.976 155.423 184.519 153.334 183.346 151.014C183.29 150.905 183.235 150.796 183.178 150.684C181.424 147.181 180.861 143.133 181.993 139.34C182.584 137.635 183.387 136.175 184.53 134.772C184.612 134.663 184.693 134.554 184.776 134.442C188.874 129.191 196.731 129.439 201.788 132.911Z" fill="#FF6060"/>
<path d="M201.788 132.911C203.012 133.859 204.008 134.926 204.881 136.208C205.184 136.65 205.51 137.064 205.848 137.479C205.931 137.386 206.013 137.294 206.098 137.199C208.257 134.903 211.362 133.14 214.56 133.029C218.108 132.993 220.916 133.727 223.614 136.125C223.781 136.269 223.781 136.269 223.953 136.417C226.149 138.441 227.682 141.587 227.875 144.565C227.889 145.08 227.89 145.593 227.886 146.107C227.887 146.279 227.888 146.451 227.89 146.628C227.879 150.919 225.703 154.413 222.82 157.443C220.267 159.916 217.149 161.915 214.16 163.813C213.548 164.203 212.939 164.599 212.331 164.993C212.089 165.15 211.847 165.306 211.605 165.463C211.19 165.731 210.775 166 210.36 166.269C209.427 166.872 208.49 167.467 207.547 168.055C207.367 168.167 207.187 168.279 207.001 168.395C206.642 168.618 206.282 168.841 205.922 169.064C205.208 169.508 204.502 169.949 203.827 170.452C203.364 170.772 203.109 170.932 202.56 170.989C202.445 171.005 202.33 171.021 202.212 171.037C201.01 170.871 200.124 170.09 199.306 169.252C199.202 169.149 199.098 169.045 198.991 168.939C198.65 168.599 198.313 168.257 197.975 167.915C197.737 167.676 197.499 167.437 197.261 167.199C196.763 166.7 196.267 166.2 195.771 165.699C195.138 165.059 194.504 164.422 193.869 163.785C193.26 163.174 192.651 162.562 192.043 161.951C191.928 161.835 191.814 161.72 191.695 161.601C190.57 160.469 189.453 159.34 188.422 158.12C188.186 157.866 187.95 157.612 187.713 157.359C185.976 155.423 184.519 153.334 183.346 151.014C183.29 150.905 183.235 150.796 183.178 150.684C181.424 147.181 180.861 143.133 181.993 139.34C182.584 137.635 183.387 136.175 184.53 134.772C184.612 134.663 184.693 134.554 184.776 134.442C188.874 129.191 196.731 129.439 201.788 132.911ZM188.76 136.802C188.652 136.887 188.544 136.971 188.433 137.058C187.215 138.133 186.164 140.157 186.016 141.773C185.773 147.306 188.193 151.112 191.806 155.075C192.101 155.381 192.4 155.681 192.707 155.976C192.986 156.255 193.24 156.545 193.495 156.846C194.242 157.706 195.045 158.509 195.852 159.312C196.109 159.568 196.365 159.825 196.621 160.083C197.427 160.889 198.242 161.673 199.109 162.415C199.651 162.892 200.152 163.41 200.656 163.925C200.86 164.133 201.064 164.34 201.268 164.547C201.4 164.682 201.4 164.682 201.534 164.82C201.935 165.194 202.181 165.396 202.74 165.392C203.541 165.159 204.148 164.731 204.833 164.264C205.136 164.062 205.438 163.861 205.741 163.66C205.897 163.556 206.054 163.451 206.215 163.344C206.999 162.825 207.793 162.324 208.587 161.821C208.901 161.622 209.215 161.422 209.528 161.223C209.679 161.127 209.829 161.032 209.984 160.933C218.388 156.02 218.388 156.02 223.328 148.043C223.798 145.557 223.24 143.015 221.826 140.937C220.594 139.32 219.018 138.095 217.015 137.648C215.281 137.543 213.684 137.5 212.109 138.325C211.883 138.442 211.883 138.442 211.654 138.562C209.714 139.689 208.242 141.239 207.237 143.233C206.804 144.049 206.383 144.314 205.51 144.585C204.738 144.709 203.999 144.631 203.311 144.246C202.949 143.704 202.927 143.491 202.866 142.861C202.526 140.686 201.333 138.81 199.758 137.309C199.646 137.199 199.535 137.088 199.42 136.974C197.6 135.26 195.524 134.836 193.104 134.889C191.375 134.972 190.088 135.736 188.76 136.802Z" fill="black"/>
<path d="M163.212 133.143C165.498 135.156 167.274 138.301 167.611 141.37C167.979 147.4 165.633 152.494 161.71 156.997C161.314 157.434 160.911 157.862 160.505 158.289C160.324 158.5 160.144 158.711 159.966 158.924C159.264 159.734 158.494 160.478 157.729 161.228C157.215 161.735 156.719 162.246 156.251 162.795C155.535 163.618 154.774 164.392 154.007 165.166C153.857 165.317 153.708 165.468 153.554 165.623C153.24 165.94 152.925 166.256 152.61 166.572C152.209 166.975 151.81 167.38 151.411 167.786C151.026 168.176 150.639 168.564 150.253 168.952C150.111 169.096 149.969 169.241 149.823 169.391C148.906 170.304 148.213 170.87 146.906 171.063C145.625 170.886 144.63 170.043 143.6 169.308C142.528 168.569 141.415 167.892 140.312 167.2C139.393 166.622 138.479 166.039 137.565 165.455C136.776 164.952 135.985 164.451 135.191 163.956C132.317 162.158 129.513 160.242 127.005 157.951C126.908 157.862 126.81 157.773 126.71 157.681C123.721 154.917 121.368 151.374 121.173 147.194C121.167 146.818 121.166 146.441 121.168 146.065C121.169 145.866 121.17 145.667 121.171 145.463C121.238 142.188 122.456 139.425 124.636 136.971C124.732 136.864 124.827 136.756 124.926 136.645C126.923 134.531 129.762 133.164 132.666 133.039C136.604 132.95 139.783 133.998 142.74 136.633C143.021 136.86 143.302 137.086 143.586 137.309C143.694 137.152 143.803 136.995 143.914 136.833C146.15 133.621 149.18 131.156 153.131 130.447C156.79 130 160.287 130.87 163.212 133.143ZM148.492 138.194C147.292 139.66 146.484 141.308 146.351 143.206C146.286 143.613 146.167 143.895 145.954 144.246C145.215 144.709 144.261 144.707 143.417 144.585C142.633 144.241 142.395 143.835 142.042 143.073C140.716 140.484 138.481 138.706 135.776 137.678C133.741 137.085 131.678 137.595 129.86 138.589C127.772 139.95 126.319 141.824 125.747 144.267C125.707 144.541 125.675 144.817 125.651 145.092C125.638 145.244 125.624 145.396 125.61 145.552C125.484 148.383 126.556 151.057 128.443 153.139C131.799 156.658 136.316 159.134 140.399 161.708C141.228 162.232 142.054 162.761 142.88 163.29C143.155 163.466 143.43 163.641 143.705 163.817C143.873 163.925 144.042 164.033 144.215 164.143C144.372 164.244 144.529 164.344 144.691 164.447C145.031 164.668 145.358 164.897 145.685 165.135C146.194 165.437 146.388 165.478 146.97 165.395C147.422 165.085 147.422 165.085 147.875 164.626C147.967 164.538 148.059 164.45 148.154 164.359C148.495 164.031 148.832 163.698 149.169 163.365C149.31 163.226 149.451 163.088 149.596 162.945C150.689 161.867 151.775 160.783 152.859 159.697C153.214 159.341 153.569 158.987 153.924 158.632C154.271 158.287 154.617 157.94 154.962 157.594C155.204 157.353 155.446 157.111 155.687 156.87C159.613 152.93 163.092 148.576 163.096 142.79C163.063 140.452 162.211 138.599 160.663 136.844C159.135 135.413 156.932 134.676 154.865 134.73C152.237 134.973 150.229 136.263 148.492 138.194Z" fill="black"/>
<path d="M149.44 126.133C149.562 126.158 149.684 126.183 149.809 126.209C154.619 127.228 158.925 129.563 162.497 132.923C162.57 132.991 162.643 133.06 162.718 133.13C166.218 136.445 168.496 140.579 169.81 145.197C169.953 145.162 170.097 145.128 170.245 145.092C170.44 145.045 170.635 144.999 170.83 144.952C170.924 144.929 171.017 144.907 171.114 144.883C171.419 144.811 171.724 144.742 172.029 144.675C172.139 144.65 172.249 144.626 172.362 144.601C175.004 144.065 177.68 144.371 180.256 145.066C180.457 145.117 180.659 145.168 180.861 145.218C181.006 145.254 181.151 145.29 181.3 145.327C181.329 145.194 181.329 145.194 181.359 145.058C182.571 139.818 185.867 135.068 190.049 131.747C190.241 131.592 190.241 131.592 190.436 131.433C192.202 130.028 194.144 128.913 196.186 127.961C196.333 127.891 196.48 127.822 196.631 127.75C199.815 126.311 203.245 125.683 206.722 125.7C206.876 125.701 206.876 125.701 207.033 125.701C210.583 125.717 213.945 126.413 217.209 127.83C217.349 127.89 217.349 127.89 217.491 127.951C220.055 129.066 222.367 130.6 224.391 132.531C224.472 132.608 224.553 132.684 224.636 132.764C228.518 136.464 231.216 141.1 232.356 146.372C232.356 146.544 232.356 146.717 232.356 146.894C232.518 146.888 232.681 146.882 232.848 146.876C235.526 146.805 235.526 146.805 236.52 147.618C237.324 148.47 237.518 149.4 237.486 150.546C237.378 151.685 236.997 152.569 236.184 153.382C235.46 153.944 234.649 154.085 233.753 154.152C233.613 154.162 233.473 154.173 233.329 154.184C233.224 154.191 233.118 154.199 233.009 154.207C232.997 154.286 232.985 154.365 232.973 154.447C232.268 159.133 230.905 163.665 228.047 167.526C227.954 167.657 227.861 167.789 227.765 167.924C226.238 170.015 224.194 172.093 222.04 173.532C221.964 173.584 221.887 173.635 221.808 173.688C215.986 177.56 208.875 179.387 201.928 178.082C200.687 177.82 199.476 177.466 198.275 177.058C198.187 177.028 198.098 176.999 198.007 176.969C191.353 174.756 186.06 169.893 182.907 163.708C180.806 159.487 179.758 154.608 180.386 149.898C180.275 149.861 180.163 149.825 180.049 149.787C179.758 149.689 179.469 149.586 179.182 149.477C176.486 148.461 173.952 148.526 171.308 149.638C170.985 149.767 170.985 149.767 170.724 149.767C170.733 149.844 170.742 149.92 170.752 149.999C171.185 154.003 170.431 158.03 169.026 161.78C168.994 161.865 168.962 161.95 168.93 162.038C166.47 168.434 161.086 173.45 154.928 176.252C151.729 177.657 148.21 178.417 144.719 178.398C144.43 178.396 144.141 178.398 143.851 178.399C142.066 178.401 140.297 178.25 138.561 177.817C138.389 177.774 138.389 177.774 138.214 177.731C133.721 176.584 129.562 174.378 126.197 171.182C126.094 171.085 126.094 171.085 125.988 170.986C124.295 169.388 122.896 167.602 121.757 165.567C121.698 165.461 121.639 165.356 121.578 165.247C119.624 161.73 118.597 158.185 118.101 154.207C117.962 154.203 117.824 154.2 117.681 154.197C116.361 154.15 115.435 154.063 114.469 153.089C113.78 152.24 113.577 151.167 113.616 150.09C113.751 149.132 114.184 148.143 114.967 147.547C116.116 146.957 117.36 146.926 118.623 146.894C118.643 146.814 118.663 146.734 118.683 146.652C119.092 144.996 119.516 143.372 120.19 141.802C120.231 141.706 120.272 141.611 120.314 141.513C123.209 134.859 128.701 129.925 135.395 127.281C136.49 126.862 137.589 126.524 138.732 126.263C138.841 126.238 138.95 126.212 139.062 126.186C142.363 125.438 146.127 125.42 149.44 126.133ZM133.901 132.661C133.821 132.705 133.741 132.748 133.659 132.792C128.804 135.429 125.085 140.188 123.47 145.441C123.357 145.829 123.249 146.218 123.145 146.609C123.113 146.725 123.082 146.842 123.05 146.962C122.617 148.686 122.487 150.413 122.492 152.183C122.492 152.279 122.492 152.375 122.492 152.474C122.497 154.181 122.657 155.808 123.063 157.471C123.087 157.571 123.11 157.671 123.135 157.774C123.842 160.658 125.261 163.387 127.111 165.698C127.2 165.813 127.29 165.929 127.382 166.049C128.654 167.664 130.123 169.095 131.812 170.268C131.887 170.321 131.963 170.374 132.041 170.429C136.684 173.643 142.809 174.823 148.359 173.851C150.38 173.456 152.282 172.851 154.14 171.965C154.269 171.904 154.269 171.904 154.401 171.842C156.516 170.824 158.344 169.423 160.016 167.787C160.101 167.708 160.186 167.63 160.273 167.55C163.858 164.176 166.125 158.76 166.3 153.882C166.355 151.705 166.342 149.556 165.892 147.417C165.871 147.313 165.849 147.209 165.826 147.102C164.945 143.058 162.815 139.586 160.016 136.579C159.936 136.492 159.856 136.405 159.774 136.315C157.449 133.881 154.396 132.244 151.268 131.095C151.137 131.046 151.007 130.998 150.873 130.949C145.366 129.086 138.934 129.837 133.901 132.661ZM190.963 136.709C190.89 136.779 190.817 136.848 190.741 136.92C190.149 137.493 189.646 138.109 189.159 138.774C189.08 138.882 189.001 138.99 188.92 139.101C185.556 143.78 184.015 149.664 184.894 155.386C185.606 159.577 187.27 163.376 190.049 166.612C190.106 166.678 190.163 166.744 190.221 166.813C193.792 170.942 199.1 173.587 204.538 174.031C210.436 174.378 216.199 173.093 220.756 169.132C221.15 168.78 221.53 168.415 221.91 168.048C222.029 167.937 222.149 167.826 222.271 167.711C226.158 163.997 228.433 158.51 228.611 153.166C228.696 147.887 227.331 142.724 223.999 138.537C223.914 138.431 223.914 138.431 223.828 138.322C221.839 135.842 219.528 133.849 216.687 132.4C216.599 132.355 216.512 132.309 216.422 132.262C207.773 127.789 197.747 130.157 190.963 136.709Z" fill="#3DCCA3"/>
</svg>
