<svg width="188" height="264" viewBox="0 0 188 264" fill="none" xmlns="http://www.w3.org/2000/svg">
<path d="M84.3709 1.06779C88.7506 3.12003 91.1857 7.70198 93.3145 11.8254C93.4119 12.0127 93.5093 12.2 93.6096 12.3929C95.6703 16.4108 97.7102 20.9345 98.5096 25.3903C98.7201 25.4119 98.9307 25.4335 99.1477 25.4557C101.87 25.7986 104.333 26.5927 106.908 27.5166C107.748 27.7984 107.748 27.7984 108.611 27.9878C109.257 27.6405 109.819 27.2885 110.415 26.8694C110.779 26.6261 111.143 26.3837 111.508 26.1423C111.792 25.9544 111.792 25.9544 112.08 25.7628C117.222 22.4108 124.535 18.4813 130.834 19.3294C132.299 19.9462 132.848 20.8018 133.501 22.1874C134.828 25.8427 134.082 30.5554 133.63 34.3193C133.594 34.6245 133.559 34.9298 133.522 35.2443C133.354 36.5618 133.165 37.8269 132.771 39.0972C132.447 40.1771 132.21 41.0034 132.277 42.1299C133.109 43.3501 134.126 44.2073 135.249 45.1508C136.054 45.8753 136.707 46.7022 137.364 47.5595C137.494 47.7281 137.624 47.8967 137.757 48.0704C144.535 57.0245 147.745 67.2212 149.793 78.1593C150.653 82.7234 151.577 86.8376 153.923 90.9057C154.17 91.3487 154.415 91.7922 154.66 92.236C155.028 92.902 155.398 93.5674 155.771 94.2312C159.371 100.647 161.268 107.244 161.229 114.626C161.228 114.837 161.228 115.048 161.227 115.265C161.212 118.384 161.103 121.359 160.273 124.385C160.219 124.587 160.164 124.789 160.109 124.997C156.763 137.092 147.444 146.095 136.831 152.165C135.054 153.165 133.255 154.106 131.412 154.978C133.091 156.244 134.771 157.505 136.48 158.73C139.388 160.842 142.087 163.18 144.688 165.657C144.861 165.821 145.034 165.986 145.212 166.156C149.717 170.477 153.613 175.241 156.232 180.953C160.591 176.574 162.683 171.552 163.773 165.535C164.168 163.436 164.606 161.55 166.226 160.047C167.401 159.274 168.085 159.192 169.509 159.307C172.383 160.119 174.197 162.821 175.624 165.278C180.084 173.295 181.155 182.483 178.744 191.343C178.692 191.538 178.639 191.733 178.585 191.934C176.796 198.343 173.087 203.802 168.643 208.66C168.427 208.897 168.21 209.134 167.988 209.378C160.709 216.982 148.625 223.827 137.953 224.274C137.408 224.264 136.863 224.255 136.318 224.245C136.338 224.509 136.358 224.773 136.379 225.045C136.565 227.623 136.656 230.186 136.665 232.772C136.666 232.961 136.667 233.151 136.668 233.346C136.672 234.348 136.675 235.35 136.676 236.353C136.677 237.166 136.681 237.978 136.688 238.791C136.749 246.563 136.749 246.563 136.241 250.055C136.21 250.273 136.179 250.492 136.147 250.717C135.591 253.957 133.841 257.142 131.292 259.237C125.279 263.333 117.612 264.164 110.541 262.866C105.956 261.76 101.852 259.527 99.3033 255.452C97.3734 252.007 96.7184 248.669 96.7779 244.737C96.4772 244.787 96.4772 244.787 96.1705 244.838C95.2428 244.992 94.3147 245.144 93.3867 245.296C93.0715 245.349 92.7564 245.402 92.4318 245.456C88.6375 246.073 84.9199 246.234 81.0834 246.234C80.3173 246.234 79.5513 246.239 78.7852 246.245C73.8202 246.261 69.0235 245.742 64.1645 244.737C64.1604 245.02 64.1563 245.303 64.1521 245.595C64.0136 250.333 62.6327 254.835 59.3482 258.392C54.2429 263.124 47.4649 263.479 40.88 263.266C38.8323 263.143 36.9535 262.704 35.0145 262.054C34.6997 261.949 34.385 261.845 34.0607 261.737C30.1774 260.28 26.9786 257.669 25.2196 253.885C23.7576 250.176 23.7133 246.284 23.7202 242.348C23.7199 241.988 23.7196 241.629 23.7193 241.258C23.7191 240.499 23.7197 239.739 23.7209 238.98C23.7224 237.848 23.7209 236.717 23.719 235.585C23.7179 231.841 23.7599 228.1 23.8848 224.357C23.8956 224.025 23.9065 223.692 23.9177 223.35C24.2188 215.218 25.5861 207.099 27.2219 199.136C27.0724 199.194 26.9229 199.252 26.7689 199.312C21.3039 201.424 16.444 202.776 10.7506 200.516C7.36508 198.957 4.6685 196.55 3.19474 193.095C1.5829 188.517 2.41322 184.327 4.37625 180.053C6.8726 174.918 10.5442 170.566 14.5228 166.523C14.8057 166.229 15.0883 165.935 15.3707 165.641C16.8508 164.123 18.3851 162.736 20.0437 161.417C20.6273 160.947 21.1983 160.474 21.7641 159.985C23.7208 158.292 25.7317 156.742 27.8566 155.266C28.6588 154.727 28.6588 154.727 29.2422 154.112C29.0592 154.019 28.8763 153.927 28.6878 153.831C21.8779 150.363 21.8779 150.363 19.1407 148.34C18.8378 148.119 18.535 147.897 18.223 147.669C15.9911 146.01 13.9371 144.196 11.9253 142.279C11.6824 142.055 11.4394 141.83 11.1891 141.599C4.24978 134.992 0.366446 126.074 0.0109655 116.547C-0.213834 106.353 3.03542 97.889 8.13063 89.1657C10.6829 84.6723 11.469 79.5558 12.4943 74.5554C13.7891 68.2749 15.4349 62.1933 18.5634 56.5606C18.7973 56.1209 18.7973 56.1209 19.0358 55.6722C20.896 52.3032 23.3295 49.2769 25.8149 46.3509C25.9562 46.1837 26.0975 46.0166 26.2431 45.8443C26.9184 45.0622 27.5973 44.3421 28.3899 43.6778C29.8763 42.4761 29.8763 42.4761 30.4767 40.7545C30.323 39.7472 30.0753 38.7871 29.8194 37.8007C28.7704 32.3997 27.4004 24.4253 30.3605 19.4196C31.3766 18.3139 32.0094 17.9398 33.5173 17.742C35.6305 17.816 37.6583 18.6256 39.6323 19.3294C39.9076 19.4269 40.1829 19.5244 40.4666 19.6248C42.4831 20.409 44.4011 21.4099 46.3245 22.3959C46.6153 22.5432 46.9062 22.6905 47.2058 22.8422C48.5662 23.5496 49.8188 24.2557 50.9998 25.2381C53.0011 26.9358 53.0011 26.9358 55.5051 27.3521C57.4138 26.9787 59.2019 26.3318 61.02 25.6547C62.2477 25.2662 63.4599 25.1521 64.7417 25.1017C64.7756 24.8936 64.8096 24.6854 64.8445 24.471C65.0358 23.6345 65.3147 22.9735 65.6944 22.2054C65.8318 21.9271 65.9693 21.6488 66.1109 21.3621C66.2603 21.0663 66.4097 20.7706 66.5636 20.4658C66.7185 20.1585 66.8735 19.8512 67.0331 19.5346C77.6959 -1.34297 77.6959 -1.34297 84.3709 1.06779Z" fill="#ECECEB"/>
<path d="M84.3709 1.06779C88.7506 3.12003 91.1857 7.70198 93.3145 11.8254C93.4119 12.0127 93.5093 12.2 93.6096 12.3929C95.6703 16.4108 97.7102 20.9345 98.5096 25.3903C98.7201 25.4119 98.9307 25.4335 99.1477 25.4557C101.87 25.7986 104.333 26.5927 106.908 27.5166C107.748 27.7984 107.748 27.7984 108.611 27.9878C109.257 27.6405 109.819 27.2885 110.415 26.8694C110.779 26.6261 111.143 26.3837 111.508 26.1423C111.792 25.9544 111.792 25.9544 112.08 25.7628C117.222 22.4108 124.535 18.4813 130.834 19.3294C132.299 19.9462 132.848 20.8018 133.501 22.1874C134.828 25.8427 134.082 30.5554 133.63 34.3193C133.594 34.6245 133.559 34.9298 133.522 35.2443C133.354 36.5618 133.165 37.8269 132.771 39.0972C132.447 40.1771 132.21 41.0034 132.277 42.1299C133.109 43.3501 134.126 44.2073 135.249 45.1508C136.054 45.8753 136.707 46.7022 137.364 47.5595C137.494 47.7281 137.624 47.8967 137.757 48.0704C144.535 57.0245 147.745 67.2212 149.793 78.1593C150.653 82.7234 151.577 86.8376 153.923 90.9057C154.17 91.3487 154.415 91.7922 154.66 92.236C155.028 92.902 155.398 93.5674 155.771 94.2312C159.371 100.647 161.268 107.244 161.229 114.626C161.228 114.837 161.228 115.048 161.227 115.265C161.212 118.384 161.103 121.359 160.273 124.385C160.219 124.587 160.164 124.789 160.109 124.997C156.763 137.092 147.444 146.095 136.831 152.165C135.054 153.165 133.255 154.106 131.412 154.978C133.091 156.244 134.771 157.505 136.48 158.73C139.388 160.842 142.087 163.18 144.688 165.657C144.861 165.821 145.034 165.986 145.212 166.156C149.717 170.477 153.613 175.241 156.232 180.953C160.591 176.574 162.683 171.552 163.773 165.535C164.168 163.436 164.606 161.55 166.226 160.047C167.401 159.274 168.085 159.192 169.509 159.307C172.383 160.119 174.197 162.821 175.624 165.278C180.084 173.295 181.155 182.483 178.744 191.343C178.692 191.538 178.639 191.733 178.585 191.934C176.796 198.343 173.087 203.802 168.643 208.66C168.427 208.897 168.21 209.134 167.988 209.378C160.709 216.982 148.625 223.827 137.953 224.274C137.408 224.264 136.863 224.255 136.318 224.245C136.338 224.509 136.358 224.773 136.379 225.045C136.565 227.623 136.656 230.186 136.665 232.772C136.666 232.961 136.667 233.151 136.668 233.346C136.672 234.348 136.675 235.35 136.676 236.353C136.677 237.166 136.681 237.978 136.688 238.791C136.749 246.563 136.749 246.563 136.241 250.055C136.21 250.273 136.179 250.492 136.147 250.717C135.591 253.957 133.841 257.142 131.292 259.237C125.279 263.333 117.612 264.164 110.541 262.866C105.956 261.76 101.852 259.527 99.3033 255.452C97.3734 252.007 96.7184 248.669 96.7779 244.737C96.4772 244.787 96.4772 244.787 96.1705 244.838C95.2428 244.992 94.3147 245.144 93.3867 245.296C93.0715 245.349 92.7564 245.402 92.4318 245.456C88.6375 246.073 84.9199 246.234 81.0834 246.234C80.3173 246.234 79.5513 246.239 78.7852 246.245C73.8202 246.261 69.0235 245.742 64.1645 244.737C64.1604 245.02 64.1563 245.303 64.1521 245.595C64.0136 250.333 62.6327 254.835 59.3482 258.392C54.2429 263.124 47.4649 263.479 40.88 263.266C38.8323 263.143 36.9535 262.704 35.0145 262.054C34.6997 261.949 34.385 261.845 34.0607 261.737C30.1774 260.28 26.9786 257.669 25.2196 253.885C23.7576 250.176 23.7133 246.284 23.7202 242.348C23.7199 241.988 23.7196 241.629 23.7193 241.258C23.7191 240.499 23.7197 239.739 23.7209 238.98C23.7224 237.848 23.7209 236.717 23.719 235.585C23.7179 231.841 23.7599 228.1 23.8848 224.357C23.8956 224.025 23.9065 223.692 23.9177 223.35C24.2188 215.218 25.5861 207.099 27.2219 199.136C27.0724 199.194 26.9229 199.252 26.7689 199.312C21.3039 201.424 16.444 202.776 10.7506 200.516C7.36508 198.957 4.6685 196.55 3.19474 193.095C1.5829 188.517 2.41322 184.327 4.37625 180.053C6.8726 174.918 10.5442 170.566 14.5228 166.523C14.8057 166.229 15.0883 165.935 15.3707 165.641C16.8508 164.123 18.3851 162.736 20.0437 161.417C20.6273 160.947 21.1983 160.474 21.7641 159.985C23.7208 158.292 25.7317 156.742 27.8566 155.266C28.6588 154.727 28.6588 154.727 29.2422 154.112C29.0592 154.019 28.8763 153.927 28.6878 153.831C21.8779 150.363 21.8779 150.363 19.1407 148.34C18.8378 148.119 18.535 147.897 18.223 147.669C15.9911 146.01 13.9371 144.196 11.9253 142.279C11.6824 142.055 11.4394 141.83 11.1891 141.599C4.24978 134.992 0.366446 126.074 0.0109655 116.547C-0.213834 106.353 3.03542 97.889 8.13063 89.1657C10.6829 84.6723 11.469 79.5558 12.4943 74.5554C13.7891 68.2749 15.4349 62.1933 18.5634 56.5606C18.7973 56.1209 18.7973 56.1209 19.0358 55.6722C20.896 52.3032 23.3295 49.2769 25.8149 46.3509C25.9562 46.1837 26.0975 46.0166 26.2431 45.8443C26.9184 45.0622 27.5973 44.3421 28.3899 43.6778C29.8763 42.4761 29.8763 42.4761 30.4767 40.7545C30.323 39.7472 30.0753 38.7871 29.8194 37.8007C28.7704 32.3997 27.4004 24.4253 30.3605 19.4196C31.3766 18.3139 32.0094 17.9398 33.5173 17.742C35.6305 17.816 37.6583 18.6256 39.6323 19.3294C39.9076 19.4269 40.1829 19.5244 40.4666 19.6248C42.4831 20.409 44.4011 21.4099 46.3245 22.3959C46.6153 22.5432 46.9062 22.6905 47.2058 22.8422C48.5662 23.5496 49.8188 24.2557 50.9998 25.2381C53.0011 26.9358 53.0011 26.9358 55.5051 27.3521C57.4138 26.9787 59.2019 26.3318 61.02 25.6547C62.2477 25.2662 63.4599 25.1521 64.7417 25.1017C64.7756 24.8936 64.8096 24.6854 64.8445 24.471C65.0358 23.6345 65.3147 22.9735 65.6944 22.2054C65.8318 21.9271 65.9693 21.6488 66.1109 21.3621C66.2603 21.0663 66.4097 20.7706 66.5636 20.4658C66.7185 20.1585 66.8735 19.8512 67.0331 19.5346C77.6959 -1.34297 77.6959 -1.34297 84.3709 1.06779ZM69.2021 30.5624C67.7691 31.1927 66.2248 31.5241 64.7139 31.9222C56.6666 34.0601 49.0996 37.3817 42.2298 42.1299C42.0654 42.2421 41.9009 42.3543 41.7315 42.4698C39.3228 44.1172 37.0587 45.8938 34.8644 47.8167C34.4658 48.1658 34.0644 48.5116 33.6627 48.8571C30.3778 51.732 27.835 54.9245 25.4902 58.5809C25.3822 58.7487 25.2743 58.9164 25.1631 59.0892C21.4962 64.8849 19.9704 71.3735 18.5713 78.0038C18.5215 78.2386 18.4717 78.4734 18.4204 78.7153C18.1726 79.884 17.9283 81.0532 17.6914 82.2241C16.9404 85.868 15.7968 89.1671 13.9997 92.439C13.7458 92.9131 13.4921 93.3873 13.2387 93.8617C13.0521 94.2093 13.0521 94.2093 12.8618 94.5638C8.235 103.207 4.62237 112.832 7.52283 122.709C7.6411 123.076 7.76172 123.442 7.88472 123.808C7.94504 123.991 8.00536 124.174 8.0675 124.362C11.6365 134.866 20.7507 142.28 30.4047 147.086C33.285 148.466 36.2672 149.575 39.267 150.665C42.6948 151.924 42.6948 151.924 43.3843 152.958C43.276 154.022 43.276 154.022 43.0956 154.978C42.8422 155.057 42.5888 155.136 42.3277 155.218C31.6978 158.938 21.4682 167.429 14.8115 176.335C14.6852 176.502 14.559 176.668 14.429 176.84C13.0175 178.707 11.7383 180.605 10.6266 182.667C10.5324 182.841 10.4382 183.015 10.3411 183.194C9.16126 185.463 8.58674 187.778 9.20716 190.293C9.98383 192.35 11.5008 193.866 13.4563 194.854C16.5114 195.985 19.4401 195.226 22.3452 193.966C23.629 193.368 24.8605 192.7 26.0756 191.972C26.5888 191.665 27.1112 191.374 27.6345 191.085C30.7822 188.991 31.4087 185.487 32.4498 182.04C32.8926 180.659 33.2192 179.745 34.4372 178.933C35.6963 178.77 36.2548 178.791 37.3053 179.528C38.0596 180.603 37.9872 181.098 37.9006 182.396C37.7291 183.182 37.5422 183.936 37.32 184.706C37.2598 184.923 37.1996 185.14 37.1377 185.363C37.0093 185.825 36.88 186.287 36.7496 186.748C36.4082 187.96 36.0777 189.175 35.7461 190.39C35.681 190.627 35.616 190.865 35.5489 191.11C32.958 200.59 31.5721 210.483 30.6492 220.259C30.6164 220.603 30.6164 220.603 30.5829 220.953C30.1418 225.959 30.0542 230.97 30.0545 235.992C30.0539 237.019 30.0486 238.046 30.0432 239.073C29.7227 246.939 29.7227 246.939 32.7833 253.875C36.1202 256.458 39.8509 256.674 43.9074 256.678C44.2759 256.686 44.6444 256.693 45.0241 256.7C48.5066 256.711 51.9712 256.078 54.6402 253.684C57.514 250.675 57.6793 245.824 58.0672 241.898C58.3551 239.19 58.3551 239.19 59.258 238.099C61.2265 237.115 64.1175 238.085 66.1487 238.496C76.4854 240.477 87.4206 240.565 97.6778 237.943C98.805 237.668 99.9596 237.671 101.107 237.81C102.076 238.472 102.327 239.004 102.55 240.119C102.601 240.62 102.641 241.123 102.674 241.625C103.025 248.484 103.025 248.484 106.681 254.063C109.754 256.496 113.464 256.671 117.233 256.66C117.577 256.665 117.92 256.67 118.274 256.675C122.076 256.677 125.255 256.032 128.038 253.323C130.578 249.185 130.346 244.436 130.311 239.758C130.308 239.183 130.306 238.608 130.303 238.033C130.294 236.419 130.277 234.806 130.257 233.192C130.253 232.829 130.249 232.465 130.245 232.09C130.013 216.545 127.521 200.597 123.457 185.61C122.955 183.716 122.571 182.049 122.753 180.087C123.488 179.202 123.933 178.977 125.062 178.789C126.164 178.972 126.574 179.308 127.371 180.087C127.762 181.021 127.762 181.021 128.064 182.119C128.182 182.522 128.301 182.925 128.421 183.327C128.482 183.535 128.543 183.743 128.605 183.958C129.834 188.404 129.834 188.404 133.024 191.505C133.536 191.758 134.061 191.984 134.586 192.209C134.94 192.397 135.291 192.589 135.64 192.784C138.86 194.554 142.161 195.803 145.851 194.876C147.923 194.171 149.285 193.428 150.406 191.506C151.526 189.08 151.333 186.728 150.442 184.254C148.365 179.42 145.124 175.481 141.513 171.718C141.344 171.539 141.175 171.361 141.001 171.177C135.22 165.099 128.48 160.823 121.07 156.995C120.735 156.82 120.4 156.645 120.055 156.465C119.604 156.233 119.604 156.233 119.144 155.996C118.424 155.555 118.424 155.555 117.847 154.689C117.738 153.824 117.738 153.824 117.847 152.958C118.854 151.907 120.26 151.685 121.617 151.316C133.892 147.789 145.23 140.11 151.539 128.829C152.588 126.856 153.314 124.798 153.923 122.653C154.021 122.311 154.119 121.969 154.22 121.616C156.655 111.472 152.691 101.954 147.665 93.3229C147.538 93.1017 147.411 92.8806 147.28 92.6528C147.044 92.2448 146.805 91.839 146.56 91.4365C144.087 87.1664 143.518 82.0121 142.674 77.2355C140.852 66.9935 137.272 58.0562 129.969 50.4997C129.737 50.2538 129.506 50.0079 129.268 49.7545C127.353 47.7638 125.252 46.0848 123.042 44.4388C122.763 44.23 122.763 44.23 122.479 44.017C114.225 37.8729 104.973 33.6404 94.9442 31.3308C93.3967 30.9612 93.3967 30.9612 92.9048 30.4389C91.9707 29.5568 90.4837 29.6544 89.2559 29.5211C88.7666 29.4666 88.7666 29.4666 88.2674 29.411C85.4517 29.1309 82.6497 29.0566 79.8218 29.0521C79.6176 29.0511 79.4133 29.0501 79.2029 29.049C74.0512 29.0275 74.0512 29.0275 69.2021 30.5624Z" fill="black"/>
<path d="M94.204 169.155C94.892 169.701 95.548 170.265 96.2007 170.852C96.483 171.077 96.7654 171.303 97.0564 171.535C99.7248 173.755 101.547 177.05 103.127 180.088C103.223 180.269 103.319 180.45 103.418 180.637C106.579 186.685 108.35 193.474 108.611 200.291C108.62 200.486 108.63 200.681 108.64 200.883C109.004 209.182 106.812 216.794 101.322 223.135C97.469 227.131 92.5813 229.3 87.2536 230.595C86.8351 230.702 86.8351 230.702 86.4081 230.81C78.995 232.368 70.5548 230.847 64.1645 226.843C63.1454 226.13 62.2052 225.363 61.2784 224.534C61.038 224.321 60.7977 224.108 60.5501 223.888C55.298 218.951 52.5316 211.557 52.2479 204.432C51.9955 193.063 55.6266 180.797 63.5196 172.373C71.7669 163.996 84.3921 162.403 94.204 169.155Z" fill="#F2D3A3"/>
<path d="M94.204 169.155C94.892 169.701 95.548 170.265 96.2007 170.852C96.483 171.077 96.7654 171.303 97.0564 171.535C99.7248 173.755 101.547 177.05 103.127 180.088C103.223 180.269 103.319 180.45 103.418 180.637C106.579 186.685 108.35 193.474 108.611 200.291C108.62 200.486 108.63 200.681 108.64 200.883C109.004 209.182 106.812 216.794 101.322 223.135C97.469 227.131 92.5813 229.3 87.2536 230.595C86.8351 230.702 86.8351 230.702 86.4081 230.81C78.995 232.368 70.5548 230.847 64.1645 226.843C63.1454 226.13 62.2052 225.363 61.2784 224.534C61.038 224.321 60.7977 224.108 60.5501 223.888C55.298 218.951 52.5316 211.557 52.2479 204.432C51.9955 193.063 55.6266 180.797 63.5196 172.373C71.7669 163.996 84.3921 162.403 94.204 169.155ZM67.1589 178.103C60.984 186.043 58.0847 196.467 59.0337 206.45C59.71 211.531 61.983 216.589 65.9864 219.889C71.6221 224.008 78.5541 225.418 85.4227 224.357C90.4219 223.396 95.1696 220.801 98.2559 216.704C102.45 210.296 102.907 202.244 101.514 194.857C101.388 194.26 101.251 193.668 101.107 193.075C101.059 192.875 101.011 192.674 100.962 192.467C99.483 186.494 96.8189 180.729 92.4487 176.336C92.2787 176.156 92.1086 175.976 91.9335 175.79C88.6833 172.618 84.3223 171.319 79.8991 171.321C74.7694 171.454 70.4217 174.284 67.1589 178.103Z" fill="black"/>
<path d="M169.797 168.543C169.988 168.543 170.178 168.543 170.374 168.543C170.703 169.444 171.026 170.346 171.349 171.249C171.44 171.5 171.532 171.751 171.626 172.01C174.188 179.216 173.608 187.505 170.41 194.422C169.955 195.343 169.456 196.233 168.931 197.116C168.75 197.423 168.569 197.73 168.382 198.046C162.261 207.748 151.462 214.241 140.461 216.82C140.142 216.89 139.822 216.959 139.493 217.03C139.143 217.116 139.143 217.116 138.786 217.204C137.763 217.364 136.776 217.336 135.741 217.319C135.112 213.984 134.616 210.638 134.151 207.276C133.843 205.086 133.476 202.931 132.975 200.778C132.857 200.015 132.889 199.567 133.143 198.847C133.35 198.942 133.556 199.036 133.769 199.133C136.995 200.547 139.927 201.228 143.443 201.265C143.693 201.269 143.944 201.273 144.201 201.277C148.157 201.248 151.339 199.54 154.201 196.885C156.049 194.892 157.121 192.422 157.549 189.756C158.103 188.407 158.971 187.766 160.067 186.831C165.386 182.2 168.762 175.463 169.797 168.543Z" fill="#3A9592"/>
<path d="M38.117 97.039C41.2618 99.1549 43.0896 102.236 43.9614 105.914C44.3457 110.217 43.4518 113.702 40.7867 117.17C38.8908 119.347 35.5852 121.288 32.6767 121.555C28.7012 121.697 25.5891 121.414 22.3154 118.901C22.0827 118.746 22.0827 118.746 21.8452 118.587C20.5857 117.66 19.8232 116.51 19.0504 115.168C18.953 114.999 18.8556 114.83 18.7552 114.656C17.0895 111.629 16.9329 108.031 17.5972 104.674C18.9221 100.739 21.3183 97.9835 24.9851 96.137C29.4032 93.9858 33.9739 94.589 38.117 97.039Z" fill="#F4A99C"/>
<path d="M138.519 97.3422C141.274 99.3134 143.121 102.219 144.025 105.494C144.531 109.679 143.818 113.478 141.225 116.881C138.817 119.53 135.722 121.255 132.121 121.596C128.427 121.636 125.701 120.834 122.753 118.613C122.378 118.363 122.378 118.363 121.996 118.108C119.517 115.76 118.082 112.575 117.778 109.188C117.676 105.268 118.993 101.656 121.671 98.7706C122.862 97.6582 124.194 96.8438 125.639 96.101C125.831 96.002 126.022 95.903 126.219 95.8011C130.136 94.1576 135.077 95.1214 138.519 97.3422Z" fill="#F4A99C"/>
<path d="M53.1971 117.458C54.1456 118.207 54.7645 119.237 55.4373 120.227C59.5281 126.135 66.2524 128.878 73.1115 130.157C82.4514 131.767 93.2283 130.912 101.223 125.463C102.078 124.842 102.896 124.198 103.705 123.519C103.896 123.36 104.088 123.201 104.285 123.038C105.686 121.763 106.564 120.186 107.487 118.553C108.03 117.753 108.286 117.463 109.188 117.17C110.172 117.065 110.781 117.111 111.696 117.494C112.557 118.192 112.872 118.715 113.229 119.767C113.279 122.778 111.295 125.028 109.322 127.126C101.983 134.582 91.9972 137.557 81.6798 137.715C70.5804 137.679 60.4226 134.789 52.2592 127.018C50.2979 125.02 48.4499 122.697 48.4767 119.787C48.6618 118.71 49.2419 118.202 50.0224 117.458C51.1465 117.083 52.0821 117.087 53.1971 117.458Z" fill="black"/>
<path d="M82.6358 9.5166C86.4969 11.3172 88.6513 18.8922 90.0111 22.6119C90.8925 25.0546 91.774 27.4991 92.4487 30.0082C90.9277 30.0351 89.5204 29.94 88.0113 29.7196C85.3476 29.3836 82.6824 29.3653 80.0022 29.3588C79.7962 29.3574 79.5903 29.3559 79.378 29.3545C76.3802 29.3373 73.4795 29.5708 70.514 30.0082C70.7419 28.7288 71.1858 27.6765 71.7767 26.5268C71.8786 26.3269 71.9805 26.127 72.0855 25.921C72.4244 25.2614 72.7674 24.6042 73.1116 23.9473C73.2286 23.7225 73.3456 23.4977 73.4661 23.2661C74.9651 20.4045 76.5787 17.6413 78.3607 14.9462C78.5217 14.7013 78.6826 14.4564 78.8485 14.2041C79.9847 12.5178 81.2515 11.0048 82.6358 9.5166Z" fill="#3A9592"/>
<path d="M119.921 79.5235C121.798 80.5943 122.974 82.2333 123.707 84.2473C124.297 86.8513 124.314 89.891 123.136 92.3251C122.029 94.0618 120.712 95.2159 118.713 95.8121C116.885 96.0152 115.602 95.7309 114.095 94.6577C112.175 92.9218 111.137 90.8456 110.851 88.2631C110.765 85.5542 111.424 83.1623 113.193 81.0748C115.139 79.0961 117.3 78.3606 119.921 79.5235Z" fill="black"/>
<path d="M47.1937 79.3183C49.2881 80.4912 50.6683 82.4175 51.3301 84.7062C51.9035 87.7402 51.4076 90.5533 49.8059 93.1786C48.9956 94.2925 48.2066 95.1534 46.8476 95.5236C44.7903 95.7972 42.9713 95.803 41.2624 94.5303C39.1531 92.536 38.5049 90.2328 38.3876 87.3882C38.4144 84.9271 39.286 82.273 41.0753 80.5156C42.9117 79.0836 44.9513 78.4501 47.1937 79.3183Z" fill="black"/>
<path d="M127.371 26.5449C127.519 29.1832 127.308 31.6315 126.83 34.2293C126.78 34.5028 126.73 34.7763 126.678 35.0581C126.434 36.3162 126.186 37.4984 125.639 38.6667C123.633 37.407 121.652 36.115 119.692 34.7858C118.527 34.002 117.341 33.2895 116.115 32.6058C117.116 31.4776 118.269 30.7903 119.56 30.0444C119.885 29.8552 119.885 29.8552 120.216 29.6623C125.641 26.5449 125.641 26.5449 127.371 26.5449Z" fill="#3A9592"/>
<path d="M36.1689 25.9673C37.9338 26.5032 39.5445 27.1637 41.1655 28.0417C41.4802 28.2099 41.4802 28.2099 41.8013 28.3815C43.6581 29.3901 45.4104 30.5192 47.1362 31.7396C46.0048 32.7078 44.8311 33.4021 43.5285 34.1026C41.6029 35.1567 39.8139 36.3233 38.0381 37.6122C37.3233 38.0891 37.3233 38.0891 36.7461 38.0891C35.9921 34.0703 36.1112 30.0407 36.1689 25.9673Z" fill="#3A9592"/>
<path d="M67.9165 104.182C69.535 104.924 70.8027 105.898 71.4982 107.564C71.8302 108.848 71.8773 110.089 71.6684 111.397C71.1486 112.264 70.8305 112.682 69.9368 113.129C68.4723 113.369 67.3371 113.269 66.0946 112.426C64.7383 111.275 64.072 109.922 63.7676 108.181C63.6781 106.718 64.1109 105.863 65.0303 104.759C66.1399 104.02 66.5952 104.012 67.9165 104.182Z" fill="black"/>
<path d="M96.4893 104.182C97.3344 104.706 98.0582 105.299 98.5096 106.202C98.7376 108.137 98.6374 109.608 97.4803 111.208C96.3328 112.533 95.3885 113.078 93.6392 113.219C92.6993 113.209 92.4429 113.125 91.6009 112.606C90.6263 111.572 90.6161 110.561 90.6381 109.205C90.8596 107.257 91.9314 106.001 93.4059 104.796C94.4048 104.126 95.3205 104.044 96.4893 104.182Z" fill="black"/>
<path d="M45.7397 49.1401C45.8318 49.1523 45.9238 49.1646 46.0186 49.1772C49.1554 49.6004 53.4977 50.214 55.6326 52.8612C56.0333 53.4555 56.2369 53.8413 56.1245 54.5745C55.984 55.0333 55.6869 55.3826 55.3235 55.6895C54.7512 55.9472 54.2328 55.8551 53.6424 55.6907C53.1401 55.4557 52.6709 55.1707 52.1961 54.8848C50.3974 53.8176 48.69 53.2751 46.622 52.9744C46.3936 52.9409 46.3936 52.9409 46.1607 52.9068C44.7969 52.7234 43.4421 52.6616 42.0798 52.8841C41.993 52.8974 41.9062 52.9108 41.8167 52.9245C41.1513 53.0315 40.5032 53.1839 39.8549 53.369C39.2399 53.5302 38.6113 53.5769 38.0296 53.2695C37.6865 53.0284 37.502 52.8251 37.301 52.4526C37.19 51.7811 37.2409 51.1498 37.5718 50.5475C38.2476 49.9727 39.0381 49.7344 39.8847 49.533C39.9915 49.5072 40.0984 49.4815 40.2085 49.4549C42.0206 49.0417 43.8954 48.8894 45.7397 49.1401Z" fill="black"/>
<path d="M125.392 67.6959C125.511 67.7594 125.511 67.7594 125.632 67.8241C126.248 68.1856 126.743 68.6547 126.98 69.3879C127.04 70.1213 126.978 70.6162 126.625 71.27C126.132 71.7794 125.705 72.011 125.016 71.9996C124.342 71.9004 123.7 71.6041 123.062 71.3559C121.311 70.6761 119.748 70.3876 117.888 70.3937C117.756 70.3938 117.756 70.3938 117.623 70.3939C115.349 70.4027 113.058 70.6253 110.935 71.5665C110.285 71.8433 109.737 71.8599 109.056 71.6824C108.457 71.3143 108.247 70.8763 108.044 70.1703C107.96 69.5258 107.98 69.0739 108.25 68.4864C109.358 67.0911 110.749 66.812 112.38 66.5436C112.633 66.502 112.885 66.4579 113.137 66.4134C117.108 65.7365 121.705 65.7172 125.392 67.6959Z" fill="black"/>
<path d="M169.541 53.578C173.889 53.9986 178.035 55.4972 181.199 58.5633L181.503 58.8657L181.535 58.8984C184.434 62.0027 185.581 65.8294 185.211 69.7122L185.21 69.7248C184.693 74.7882 181.54 78.2275 177.709 80.955L177.706 80.9567C177.584 81.0431 177.461 81.1288 177.339 81.2151L177.34 81.2162C177.278 81.2603 177.215 81.3038 177.151 81.3493L177.151 81.3503C176.832 81.5757 176.512 81.8013 176.19 82.0259C174.981 82.8754 174.272 83.6181 173.802 84.3882C173.329 85.1632 173.015 86.101 172.791 87.4683L172.788 87.4789L172.787 87.4885C172.77 87.5816 172.754 87.6752 172.737 87.7711C172.725 87.8469 172.712 87.9228 172.7 88.0009L172.676 88.1467L172.631 88.2875C172.417 88.9571 172.089 89.4018 171.642 89.8122L171.379 90.0546L171.047 90.1909C170.164 90.5527 169.456 90.5802 168.683 90.5043L168.684 90.5054C168.576 90.4952 168.575 90.4956 168.464 90.4852L168.461 90.4849C168.216 90.4614 167.972 90.4355 167.737 90.4109C167.573 90.3946 167.409 90.3785 167.245 90.3623L167.244 90.3622C166.893 90.3273 166.542 90.2918 166.193 90.2553C165.756 90.2097 165.317 90.1664 164.875 90.1235L163.355 89.9703C163.117 89.947 162.88 89.922 162.649 89.8972C162.523 89.8842 162.396 89.8718 162.265 89.8585L162.165 89.8474L162.066 89.8276C161.054 89.6196 160.475 89.1248 160.051 88.7353L159.787 88.4907L159.623 88.1689C159.047 87.0358 159.296 85.9055 159.332 85.623C159.343 85.5232 159.354 85.4231 159.366 85.3202L159.367 85.3096L159.369 85.2999C159.675 82.8512 160.391 80.7588 161.629 78.8888C162.856 77.035 164.526 75.5042 166.588 74.0777L166.602 74.0692L166.615 74.0597C166.946 73.8386 167.281 73.6338 167.575 73.4547C168.56 72.8389 169.467 72.1544 170.266 71.4037L170.278 71.3911L170.291 71.3797C170.367 71.3107 170.442 71.241 170.52 71.1702C171.612 70.143 172.037 69.1898 172.065 67.8818C171.992 67.3064 171.678 66.6833 171.123 66.1889C170.378 65.6737 169.566 65.3578 168.575 65.2087L168.565 65.2077C168.486 65.1954 168.407 65.1824 168.325 65.1698C166.93 64.9927 165.829 65.1376 164.957 65.6362C164.059 66.2596 163.363 67.0637 162.586 68.1013L162.581 68.1096C162.529 68.1786 162.476 68.2473 162.422 68.3184C162.378 68.3798 162.371 68.3891 162.313 68.4683L162.236 68.5745L162.146 68.6694C161.492 69.3572 160.763 69.5871 160.16 69.703L159.959 69.7416L159.753 69.7385C158.674 69.7222 157.66 69.2519 157.002 68.9116C156.64 68.7242 156.292 68.523 156.002 68.3564C155.693 68.1784 155.467 68.0486 155.277 67.9526L155.278 67.9516C154.997 67.8091 154.715 67.6677 154.432 67.5249L154.43 67.5237C154.249 67.432 154.068 67.3398 153.887 67.2481L153.887 67.249C153.803 67.2067 153.719 67.164 153.633 67.1204L153.629 67.119C153.03 66.8146 152.559 66.5787 152.229 66.3606C151.734 66.0328 151.483 65.7039 151.302 65.4731L151.05 65.1512L150.944 64.7568C150.564 63.3446 151.042 62.2516 151.582 61.4467L151.581 61.4466C151.64 61.3568 151.64 61.3567 151.701 61.2653L151.71 61.2505C152.853 59.5435 154.213 58.1494 155.876 56.8934C155.963 56.8257 156.052 56.7583 156.142 56.6885L156.156 56.6782L156.168 56.6686C158.552 54.8901 161.315 53.9175 164.261 53.518L164.261 53.519C164.342 53.5074 164.425 53.4949 164.508 53.4831L164.519 53.4812L164.53 53.4803C166.218 53.2582 167.849 53.4152 169.261 53.5527C169.351 53.5613 169.443 53.5687 169.536 53.5775L169.541 53.578Z" fill="#FFF288" stroke="black" stroke-width="4"/>
<path d="M160.072 91.499C162.972 89.8518 167.148 89.733 170.043 92.1084L170.319 92.3463L170.366 92.3903C170.467 92.4872 170.467 92.4876 170.57 92.5865L170.766 92.7722L170.787 92.7919L170.807 92.8126C172.414 94.4285 173.013 96.4676 172.91 98.4543L172.906 98.5392L172.894 98.6244C172.625 100.573 171.584 102.313 169.938 103.521L169.894 103.552L169.849 103.582C167.603 105.05 165.43 105.189 163.085 104.882L163.056 104.878L163.027 104.874C160.911 104.533 159.352 103.285 158.27 102.082L158.231 102.037L158.193 101.991C156.827 100.279 156.422 98.2467 156.716 96.3107L156.726 96.2508L156.737 96.1912C157.151 94.2632 158.306 92.6802 159.946 91.5785L160.008 91.5367L160.072 91.499Z" fill="#FFF288" stroke="black" stroke-width="4"/>
<path d="M52.9357 58.5522C53.065 58.579 53.1943 58.6057 53.3274 58.6332C58.4197 59.7119 62.9792 62.1846 66.7616 65.7416C66.8388 65.8142 66.916 65.8867 66.9955 65.9614C70.7014 69.4709 73.1132 73.8484 74.504 78.7379C74.656 78.7012 74.8081 78.6645 74.9647 78.6267C75.1712 78.5773 75.3777 78.528 75.5842 78.4787C75.6835 78.4546 75.7829 78.4306 75.8852 78.4058C76.2077 78.3291 76.5307 78.2561 76.8544 78.1849C76.9705 78.1592 77.0867 78.1334 77.2063 78.1069C80.0044 77.5391 82.8373 77.8638 85.5647 78.5997C85.7782 78.6538 85.9919 78.7075 86.2057 78.7606C86.3592 78.7987 86.5126 78.8369 86.6707 78.8762C86.7012 78.735 86.7012 78.735 86.7323 78.591C88.0161 73.0425 91.506 68.0132 95.934 64.4973C96.1369 64.3324 96.1369 64.3324 96.3439 64.1641C98.2134 62.6765 100.27 61.4965 102.432 60.4878C102.588 60.4142 102.743 60.3406 102.903 60.2648C106.274 58.7408 109.906 58.0759 113.588 58.0942C113.751 58.0947 113.751 58.0947 113.917 58.0951C117.676 58.1116 121.236 58.8491 124.692 60.3496C124.84 60.4132 124.84 60.4132 124.991 60.4781C127.705 61.6582 130.153 63.2826 132.296 65.3269C132.382 65.4081 132.467 65.4894 132.556 65.5731C136.666 69.4912 139.522 74.3999 140.73 79.9822C140.73 80.1647 140.73 80.3472 140.73 80.5353C140.902 80.5289 141.074 80.5224 141.251 80.5158C144.086 80.4409 144.086 80.4409 145.138 81.3016C145.99 82.2033 146.195 83.1881 146.162 84.4022C146.047 85.608 145.644 86.5435 144.782 87.405C144.016 87.9993 143.157 88.1491 142.208 88.2194C142.06 88.2307 141.913 88.2419 141.76 88.2536C141.648 88.2615 141.536 88.2695 141.421 88.2777C141.409 88.3616 141.396 88.4455 141.383 88.5319C140.636 93.4938 139.193 98.2928 136.167 102.38C136.069 102.519 135.97 102.658 135.869 102.802C134.252 105.016 132.087 107.216 129.807 108.74C129.726 108.795 129.645 108.849 129.561 108.905C123.396 113.004 115.868 114.939 108.512 113.557C107.198 113.28 105.915 112.905 104.644 112.473C104.55 112.442 104.457 112.411 104.36 112.379C97.3151 110.036 91.7102 104.887 88.372 98.3376C86.1471 93.869 85.0379 88.7029 85.7029 83.7152C85.5849 83.6767 85.467 83.6382 85.3454 83.5986C85.0376 83.4943 84.7313 83.385 84.4273 83.2702C81.5736 82.1943 78.8901 82.2629 76.0907 83.4403C75.7483 83.577 75.7483 83.577 75.4718 83.577C75.4818 83.6579 75.4918 83.7388 75.5021 83.8221C75.9604 88.0618 75.162 92.326 73.6745 96.2967C73.6407 96.3869 73.607 96.477 73.5722 96.5699C70.9683 103.341 65.2668 108.653 58.7469 111.62C55.3594 113.108 51.6339 113.913 47.9375 113.892C47.6312 113.89 47.325 113.892 47.0187 113.893C45.1288 113.895 43.2555 113.735 41.4171 113.277C41.2354 113.232 41.2354 113.232 41.05 113.186C36.2925 111.971 31.8888 109.636 28.3258 106.251C28.2165 106.149 28.2165 106.149 28.105 106.044C26.3117 104.352 24.8307 102.461 23.625 100.306C23.5623 100.194 23.4995 100.083 23.4349 99.9677C21.3659 96.2433 20.2787 92.4897 19.7538 88.2777C19.6069 88.2742 19.4601 88.2706 19.3088 88.2669C17.9115 88.2179 16.9312 88.1251 15.9085 87.0939C15.1783 86.1954 14.9633 85.0594 15.0049 83.9194C15.1474 82.9047 15.6067 81.8574 16.4356 81.2266C17.652 80.6012 18.9692 80.5692 20.3068 80.5353C20.3276 80.4505 20.3484 80.3658 20.3698 80.2785C20.8036 78.5251 21.2522 76.8052 21.9659 75.1432C22.0091 75.0421 22.0524 74.9411 22.0969 74.8369C25.1619 67.7921 30.9769 62.5677 38.0654 59.7686C39.225 59.3246 40.3881 58.9664 41.5986 58.6905C41.7137 58.6634 41.8289 58.6363 41.9475 58.6083C45.4428 57.8166 49.4287 57.7975 52.9357 58.5522ZM36.483 65.4651C36.3986 65.5108 36.3141 65.5565 36.2272 65.6036C31.0862 68.3954 27.149 73.4348 25.4386 78.9965C25.3186 79.4074 25.2045 79.8193 25.094 80.2328C25.061 80.3564 25.0279 80.48 24.9939 80.6073C24.5356 82.4326 24.3977 84.2611 24.4027 86.1347C24.4027 86.2365 24.4028 86.3383 24.4028 86.4431C24.4079 88.2506 24.578 89.9737 25.0076 91.7342C25.0327 91.84 25.0579 91.9457 25.0838 92.0547C25.8324 95.108 27.3347 97.9984 29.2936 100.444C29.3882 100.567 29.4829 100.69 29.5804 100.817C30.9272 102.527 32.4828 104.042 34.2709 105.283C34.3509 105.34 34.4309 105.396 34.5134 105.454C39.43 108.857 45.9147 110.107 51.7919 109.078C53.9315 108.659 55.9453 108.018 57.913 107.081C58.0497 107.016 58.0497 107.016 58.1891 106.95C60.4286 105.872 62.3645 104.389 64.1347 102.657C64.2245 102.574 64.3143 102.491 64.4068 102.405C68.2027 98.8334 70.6026 93.0994 70.7884 87.9335C70.8458 85.6293 70.8321 83.3538 70.3563 81.0883C70.3333 80.9782 70.3103 80.8682 70.2866 80.7547C69.3533 76.4728 67.0977 72.7969 64.1347 69.6129C64.05 69.5207 63.9653 69.4286 63.8781 69.3337C61.4166 66.7567 58.1837 65.0231 54.8714 63.806C54.7336 63.7551 54.5958 63.7041 54.4539 63.6516C48.6226 61.6798 41.8118 62.4747 36.483 65.4651ZM96.9018 69.7511C96.8243 69.8246 96.7468 69.8981 96.6669 69.9738C96.0396 70.5811 95.5078 71.2336 94.9922 71.9373C94.9085 72.0516 94.8248 72.1658 94.7386 72.2834C91.1767 77.2381 89.5447 83.4678 90.4761 89.5265C91.2296 93.9642 92.9913 97.9868 95.934 101.412C95.9943 101.483 96.0546 101.553 96.1166 101.625C99.8972 105.997 105.517 108.798 111.276 109.268C117.521 109.636 123.622 108.275 128.447 104.081C128.864 103.708 129.267 103.322 129.669 102.933C129.795 102.815 129.922 102.698 130.052 102.577C134.167 98.6441 136.575 92.8346 136.764 87.1754C136.855 81.5864 135.41 76.1196 131.881 71.6868C131.791 71.5736 131.791 71.5736 131.7 71.4582C129.594 68.8324 127.147 66.722 124.139 65.1886C124.046 65.1404 123.954 65.0921 123.858 65.0424C114.701 60.3065 104.085 62.8129 96.9018 69.7511Z" fill="#3DCCA3"/>
</svg>
