<svg width="180" height="264" viewBox="0 0 180 264" fill="none" xmlns="http://www.w3.org/2000/svg">
<path d="M84.3709 1.06779C88.7506 3.12003 91.1857 7.70198 93.3145 11.8254C93.4119 12.0127 93.5093 12.2 93.6096 12.3929C95.6703 16.4108 97.7102 20.9345 98.5096 25.3903C98.7201 25.4119 98.9307 25.4335 99.1477 25.4557C101.87 25.7986 104.333 26.5927 106.908 27.5166C107.748 27.7984 107.748 27.7984 108.611 27.9878C109.257 27.6405 109.819 27.2885 110.415 26.8694C110.779 26.6261 111.143 26.3837 111.508 26.1423C111.792 25.9544 111.792 25.9544 112.08 25.7628C117.222 22.4108 124.535 18.4813 130.834 19.3294C132.299 19.9462 132.848 20.8018 133.501 22.1874C134.828 25.8427 134.082 30.5554 133.63 34.3193C133.594 34.6245 133.559 34.9298 133.522 35.2443C133.354 36.5618 133.165 37.8269 132.771 39.0972C132.447 40.1771 132.21 41.0034 132.277 42.1299C133.109 43.3501 134.126 44.2073 135.249 45.1508C136.054 45.8753 136.707 46.7022 137.364 47.5595C137.494 47.7281 137.624 47.8967 137.757 48.0704C144.535 57.0245 147.745 67.2212 149.793 78.1593C150.653 82.7234 151.577 86.8376 153.923 90.9057C154.17 91.3487 154.415 91.7922 154.66 92.236C155.028 92.902 155.398 93.5674 155.771 94.2312C159.371 100.647 161.268 107.244 161.229 114.626C161.228 114.837 161.228 115.048 161.227 115.265C161.212 118.384 161.103 121.359 160.273 124.385C160.219 124.587 160.164 124.789 160.109 124.997C156.763 137.092 147.444 146.095 136.831 152.165C135.054 153.165 133.255 154.106 131.412 154.978C133.091 156.244 134.771 157.505 136.48 158.73C139.388 160.842 142.087 163.18 144.688 165.657C144.861 165.821 145.034 165.986 145.212 166.156C149.717 170.477 153.613 175.241 156.232 180.953C160.591 176.574 162.683 171.552 163.773 165.535C164.168 163.436 164.606 161.55 166.226 160.047C167.401 159.274 168.085 159.192 169.509 159.307C172.383 160.119 174.197 162.821 175.624 165.278C180.084 173.295 181.155 182.483 178.744 191.343C178.692 191.538 178.639 191.733 178.585 191.934C176.796 198.343 173.087 203.802 168.643 208.66C168.427 208.897 168.21 209.134 167.988 209.378C160.709 216.982 148.625 223.827 137.953 224.274C137.408 224.264 136.863 224.255 136.318 224.245C136.338 224.509 136.358 224.773 136.379 225.045C136.565 227.623 136.656 230.186 136.665 232.772C136.666 232.961 136.667 233.151 136.668 233.346C136.672 234.348 136.675 235.35 136.676 236.353C136.677 237.166 136.681 237.978 136.688 238.791C136.749 246.563 136.749 246.563 136.241 250.055C136.21 250.273 136.179 250.492 136.147 250.717C135.591 253.957 133.841 257.142 131.292 259.237C125.279 263.333 117.612 264.164 110.541 262.866C105.956 261.76 101.852 259.527 99.3033 255.452C97.3734 252.007 96.7184 248.669 96.7779 244.737C96.4772 244.787 96.4772 244.787 96.1705 244.838C95.2428 244.992 94.3147 245.144 93.3867 245.296C93.0715 245.349 92.7564 245.402 92.4318 245.456C88.6375 246.073 84.9199 246.234 81.0834 246.234C80.3173 246.234 79.5513 246.239 78.7852 246.245C73.8202 246.261 69.0235 245.742 64.1645 244.737C64.1604 245.02 64.1563 245.303 64.1521 245.595C64.0136 250.333 62.6327 254.835 59.3482 258.392C54.2429 263.124 47.4649 263.479 40.88 263.266C38.8323 263.143 36.9535 262.704 35.0145 262.054C34.6997 261.949 34.385 261.845 34.0607 261.737C30.1774 260.28 26.9786 257.669 25.2196 253.885C23.7576 250.176 23.7133 246.284 23.7202 242.348C23.7199 241.988 23.7196 241.629 23.7193 241.258C23.7191 240.499 23.7197 239.739 23.7209 238.98C23.7224 237.848 23.7209 236.717 23.719 235.585C23.7179 231.841 23.7599 228.1 23.8848 224.357C23.8956 224.025 23.9065 223.692 23.9177 223.35C24.2188 215.218 25.5861 207.099 27.2219 199.136C27.0724 199.194 26.9229 199.252 26.7689 199.312C21.3039 201.424 16.444 202.776 10.7506 200.516C7.36508 198.957 4.6685 196.55 3.19474 193.095C1.5829 188.517 2.41322 184.327 4.37625 180.053C6.8726 174.918 10.5442 170.566 14.5228 166.523C14.8057 166.229 15.0883 165.935 15.3707 165.641C16.8508 164.123 18.3851 162.736 20.0437 161.417C20.6273 160.947 21.1983 160.474 21.7641 159.985C23.7208 158.292 25.7317 156.742 27.8566 155.266C28.6588 154.727 28.6588 154.727 29.2422 154.112C29.0592 154.019 28.8763 153.927 28.6878 153.831C21.8779 150.363 21.8779 150.363 19.1407 148.34C18.8378 148.119 18.535 147.897 18.223 147.669C15.9911 146.01 13.9371 144.196 11.9253 142.279C11.6824 142.055 11.4394 141.83 11.1891 141.599C4.24978 134.992 0.366446 126.074 0.0109655 116.547C-0.213834 106.353 3.03542 97.889 8.13063 89.1657C10.6829 84.6723 11.469 79.5558 12.4943 74.5554C13.7891 68.2749 15.4349 62.1933 18.5634 56.5606C18.7973 56.1209 18.7973 56.1209 19.0358 55.6722C20.896 52.3032 23.3295 49.2769 25.8149 46.3509C25.9562 46.1837 26.0975 46.0166 26.2431 45.8443C26.9184 45.0622 27.5973 44.3421 28.3899 43.6778C29.8763 42.4761 29.8763 42.4761 30.4767 40.7545C30.323 39.7472 30.0753 38.7871 29.8194 37.8007C28.7704 32.3997 27.4004 24.4253 30.3605 19.4196C31.3766 18.3139 32.0094 17.9398 33.5173 17.742C35.6305 17.816 37.6583 18.6256 39.6323 19.3294C39.9076 19.4269 40.1829 19.5244 40.4666 19.6248C42.4831 20.409 44.4011 21.4099 46.3245 22.3959C46.6153 22.5432 46.9062 22.6905 47.2058 22.8422C48.5662 23.5496 49.8188 24.2557 50.9998 25.2381C53.0011 26.9358 53.0011 26.9358 55.5051 27.3521C57.4138 26.9787 59.2019 26.3318 61.02 25.6547C62.2477 25.2662 63.4599 25.1521 64.7417 25.1017C64.7756 24.8936 64.8096 24.6854 64.8445 24.471C65.0358 23.6345 65.3147 22.9735 65.6944 22.2054C65.8318 21.9271 65.9693 21.6488 66.1109 21.3621C66.2603 21.0663 66.4097 20.7706 66.5636 20.4658C66.7185 20.1585 66.8735 19.8512 67.0331 19.5346C77.6959 -1.34297 77.6959 -1.34297 84.3709 1.06779Z" fill="#ECECEB"/>
<path d="M84.3709 1.06779C88.7506 3.12003 91.1857 7.70198 93.3145 11.8254C93.4119 12.0127 93.5093 12.2 93.6096 12.3929C95.6703 16.4108 97.7102 20.9345 98.5096 25.3903C98.7201 25.4119 98.9307 25.4335 99.1477 25.4557C101.87 25.7986 104.333 26.5927 106.908 27.5166C107.748 27.7984 107.748 27.7984 108.611 27.9878C109.257 27.6405 109.819 27.2885 110.415 26.8694C110.779 26.6261 111.143 26.3837 111.508 26.1423C111.792 25.9544 111.792 25.9544 112.08 25.7628C117.222 22.4108 124.535 18.4813 130.834 19.3294C132.299 19.9462 132.848 20.8018 133.501 22.1874C134.828 25.8427 134.082 30.5554 133.63 34.3193C133.594 34.6245 133.559 34.9298 133.522 35.2443C133.354 36.5618 133.165 37.8269 132.771 39.0972C132.447 40.1771 132.21 41.0034 132.277 42.1299C133.109 43.3501 134.126 44.2073 135.249 45.1508C136.054 45.8753 136.707 46.7022 137.364 47.5595C137.494 47.7281 137.624 47.8967 137.757 48.0704C144.535 57.0245 147.745 67.2212 149.793 78.1593C150.653 82.7234 151.577 86.8376 153.923 90.9057C154.17 91.3487 154.415 91.7922 154.66 92.236C155.028 92.902 155.398 93.5674 155.771 94.2312C159.371 100.647 161.268 107.244 161.229 114.626C161.228 114.837 161.228 115.048 161.227 115.265C161.212 118.384 161.103 121.359 160.273 124.385C160.219 124.587 160.164 124.789 160.109 124.997C156.763 137.092 147.444 146.095 136.831 152.165C135.054 153.165 133.255 154.106 131.412 154.978C133.091 156.244 134.771 157.505 136.48 158.73C139.388 160.842 142.087 163.18 144.688 165.657C144.861 165.821 145.034 165.986 145.212 166.156C149.717 170.477 153.613 175.241 156.232 180.953C160.591 176.574 162.683 171.552 163.773 165.535C164.168 163.436 164.606 161.55 166.226 160.047C167.401 159.274 168.085 159.192 169.509 159.307C172.383 160.119 174.197 162.821 175.624 165.278C180.084 173.295 181.155 182.483 178.744 191.343C178.692 191.538 178.639 191.733 178.585 191.934C176.796 198.343 173.087 203.802 168.643 208.66C168.427 208.897 168.21 209.134 167.988 209.378C160.709 216.982 148.625 223.827 137.953 224.274C137.408 224.264 136.863 224.255 136.318 224.245C136.338 224.509 136.358 224.773 136.379 225.045C136.565 227.623 136.656 230.186 136.665 232.772C136.666 232.961 136.667 233.151 136.668 233.346C136.672 234.348 136.675 235.35 136.676 236.353C136.677 237.166 136.681 237.978 136.688 238.791C136.749 246.563 136.749 246.563 136.241 250.055C136.21 250.273 136.179 250.492 136.147 250.717C135.591 253.957 133.841 257.142 131.292 259.237C125.279 263.333 117.612 264.164 110.541 262.866C105.956 261.76 101.852 259.527 99.3033 255.452C97.3734 252.007 96.7184 248.669 96.7779 244.737C96.4772 244.787 96.4772 244.787 96.1705 244.838C95.2428 244.992 94.3147 245.144 93.3867 245.296C93.0715 245.349 92.7564 245.402 92.4318 245.456C88.6375 246.073 84.9199 246.234 81.0834 246.234C80.3173 246.234 79.5513 246.239 78.7852 246.245C73.8202 246.261 69.0235 245.742 64.1645 244.737C64.1604 245.02 64.1563 245.303 64.1521 245.595C64.0136 250.333 62.6327 254.835 59.3482 258.392C54.2429 263.124 47.4649 263.479 40.88 263.266C38.8323 263.143 36.9535 262.704 35.0145 262.054C34.6997 261.949 34.385 261.845 34.0607 261.737C30.1774 260.28 26.9786 257.669 25.2196 253.885C23.7576 250.176 23.7133 246.284 23.7202 242.348C23.7199 241.988 23.7196 241.629 23.7193 241.258C23.7191 240.499 23.7197 239.739 23.7209 238.98C23.7224 237.848 23.7209 236.717 23.719 235.585C23.7179 231.841 23.7599 228.1 23.8848 224.357C23.8956 224.025 23.9065 223.692 23.9177 223.35C24.2188 215.218 25.5861 207.099 27.2219 199.136C27.0724 199.194 26.9229 199.252 26.7689 199.312C21.3039 201.424 16.444 202.776 10.7506 200.516C7.36508 198.957 4.6685 196.55 3.19474 193.095C1.5829 188.517 2.41322 184.327 4.37625 180.053C6.8726 174.918 10.5442 170.566 14.5228 166.523C14.8057 166.229 15.0883 165.935 15.3707 165.641C16.8508 164.123 18.3851 162.736 20.0437 161.417C20.6273 160.947 21.1983 160.474 21.7641 159.985C23.7208 158.292 25.7317 156.742 27.8566 155.266C28.6588 154.727 28.6588 154.727 29.2422 154.112C29.0592 154.019 28.8763 153.927 28.6878 153.831C21.8779 150.363 21.8779 150.363 19.1407 148.34C18.8378 148.119 18.535 147.897 18.223 147.669C15.9911 146.01 13.9371 144.196 11.9253 142.279C11.6824 142.055 11.4394 141.83 11.1891 141.599C4.24978 134.992 0.366446 126.074 0.0109655 116.547C-0.213834 106.353 3.03542 97.889 8.13063 89.1657C10.6829 84.6723 11.469 79.5558 12.4943 74.5554C13.7891 68.2749 15.4349 62.1933 18.5634 56.5606C18.7973 56.1209 18.7973 56.1209 19.0358 55.6722C20.896 52.3032 23.3295 49.2769 25.8149 46.3509C25.9562 46.1837 26.0975 46.0166 26.2431 45.8443C26.9184 45.0622 27.5973 44.3421 28.3899 43.6778C29.8763 42.4761 29.8763 42.4761 30.4767 40.7545C30.323 39.7472 30.0753 38.7871 29.8194 37.8007C28.7704 32.3997 27.4004 24.4253 30.3605 19.4196C31.3766 18.3139 32.0094 17.9398 33.5173 17.742C35.6305 17.816 37.6583 18.6256 39.6323 19.3294C39.9076 19.4269 40.1829 19.5244 40.4666 19.6248C42.4831 20.409 44.4011 21.4099 46.3245 22.3959C46.6153 22.5432 46.9062 22.6905 47.2058 22.8422C48.5662 23.5496 49.8188 24.2557 50.9998 25.2381C53.0011 26.9358 53.0011 26.9358 55.5051 27.3521C57.4138 26.9787 59.2019 26.3318 61.02 25.6547C62.2477 25.2662 63.4599 25.1521 64.7417 25.1017C64.7756 24.8936 64.8096 24.6854 64.8445 24.471C65.0358 23.6345 65.3147 22.9735 65.6944 22.2054C65.8318 21.9271 65.9693 21.6488 66.1109 21.3621C66.2603 21.0663 66.4097 20.7706 66.5636 20.4658C66.7185 20.1585 66.8735 19.8512 67.0331 19.5346C77.6959 -1.34297 77.6959 -1.34297 84.3709 1.06779ZM69.2021 30.5624C67.7691 31.1927 66.2248 31.5241 64.7139 31.9222C56.6666 34.0601 49.0996 37.3817 42.2298 42.1299C42.0654 42.2421 41.9009 42.3543 41.7315 42.4698C39.3228 44.1172 37.0587 45.8938 34.8644 47.8167C34.4658 48.1658 34.0644 48.5116 33.6627 48.8571C30.3778 51.732 27.835 54.9245 25.4902 58.5809C25.3822 58.7487 25.2743 58.9164 25.1631 59.0892C21.4962 64.8849 19.9704 71.3735 18.5713 78.0038C18.5215 78.2386 18.4717 78.4734 18.4204 78.7153C18.1726 79.884 17.9283 81.0532 17.6914 82.2241C16.9404 85.868 15.7968 89.1671 13.9997 92.439C13.7458 92.9131 13.4921 93.3873 13.2387 93.8617C13.0521 94.2093 13.0521 94.2093 12.8618 94.5638C8.235 103.207 4.62237 112.832 7.52283 122.709C7.6411 123.076 7.76172 123.442 7.88472 123.808C7.94504 123.991 8.00536 124.174 8.0675 124.362C11.6365 134.866 20.7507 142.28 30.4047 147.086C33.285 148.466 36.2672 149.575 39.267 150.665C42.6948 151.924 42.6948 151.924 43.3843 152.958C43.276 154.022 43.276 154.022 43.0956 154.978C42.8422 155.057 42.5888 155.136 42.3277 155.218C31.6978 158.938 21.4682 167.429 14.8115 176.335C14.6852 176.502 14.559 176.668 14.429 176.84C13.0175 178.707 11.7383 180.605 10.6266 182.667C10.5324 182.841 10.4382 183.015 10.3411 183.194C9.16126 185.463 8.58674 187.778 9.20716 190.293C9.98383 192.35 11.5008 193.866 13.4563 194.854C16.5114 195.985 19.4401 195.226 22.3452 193.966C23.629 193.368 24.8605 192.7 26.0756 191.972C26.5888 191.665 27.1112 191.374 27.6345 191.085C30.7822 188.991 31.4087 185.487 32.4498 182.04C32.8926 180.659 33.2192 179.745 34.4372 178.933C35.6963 178.77 36.2548 178.791 37.3053 179.528C38.0596 180.603 37.9872 181.098 37.9006 182.396C37.7291 183.182 37.5422 183.936 37.32 184.706C37.2598 184.923 37.1996 185.14 37.1377 185.363C37.0093 185.825 36.88 186.287 36.7496 186.748C36.4082 187.96 36.0777 189.175 35.7461 190.39C35.681 190.627 35.616 190.865 35.5489 191.11C32.958 200.59 31.5721 210.483 30.6492 220.259C30.6164 220.603 30.6164 220.603 30.5829 220.953C30.1418 225.959 30.0542 230.97 30.0545 235.992C30.0539 237.019 30.0486 238.046 30.0432 239.073C29.7227 246.939 29.7227 246.939 32.7833 253.875C36.1202 256.458 39.8509 256.674 43.9074 256.678C44.2759 256.686 44.6444 256.693 45.0241 256.7C48.5066 256.711 51.9712 256.078 54.6402 253.684C57.514 250.675 57.6793 245.824 58.0672 241.898C58.3551 239.19 58.3551 239.19 59.258 238.099C61.2265 237.115 64.1175 238.085 66.1487 238.496C76.4854 240.477 87.4206 240.565 97.6778 237.943C98.805 237.668 99.9596 237.671 101.107 237.81C102.076 238.472 102.327 239.004 102.55 240.119C102.601 240.62 102.641 241.123 102.674 241.625C103.025 248.484 103.025 248.484 106.681 254.063C109.754 256.496 113.464 256.671 117.233 256.66C117.577 256.665 117.92 256.67 118.274 256.675C122.076 256.677 125.255 256.032 128.038 253.323C130.578 249.185 130.346 244.436 130.311 239.758C130.308 239.183 130.306 238.608 130.303 238.033C130.294 236.419 130.277 234.806 130.257 233.192C130.253 232.829 130.249 232.465 130.245 232.09C130.013 216.545 127.521 200.597 123.457 185.61C122.955 183.716 122.571 182.049 122.753 180.087C123.488 179.202 123.933 178.977 125.062 178.789C126.164 178.972 126.574 179.308 127.371 180.087C127.762 181.021 127.762 181.021 128.064 182.119C128.182 182.522 128.301 182.925 128.421 183.327C128.482 183.535 128.543 183.743 128.605 183.958C129.834 188.404 129.834 188.404 133.024 191.505C133.536 191.758 134.061 191.984 134.586 192.209C134.94 192.397 135.291 192.589 135.64 192.784C138.86 194.554 142.161 195.803 145.851 194.876C147.923 194.171 149.285 193.428 150.406 191.506C151.526 189.08 151.333 186.728 150.442 184.254C148.365 179.42 145.124 175.481 141.513 171.718C141.344 171.539 141.175 171.361 141.001 171.177C135.22 165.099 128.48 160.823 121.07 156.995C120.735 156.82 120.4 156.645 120.055 156.465C119.604 156.233 119.604 156.233 119.144 155.996C118.424 155.555 118.424 155.555 117.847 154.689C117.738 153.824 117.738 153.824 117.847 152.958C118.854 151.907 120.26 151.685 121.617 151.316C133.892 147.789 145.23 140.11 151.539 128.829C152.588 126.856 153.314 124.798 153.923 122.653C154.021 122.311 154.119 121.969 154.22 121.616C156.655 111.472 152.691 101.954 147.665 93.3229C147.538 93.1017 147.411 92.8806 147.28 92.6528C147.044 92.2448 146.805 91.839 146.56 91.4365C144.087 87.1664 143.518 82.0121 142.674 77.2355C140.852 66.9935 137.272 58.0562 129.969 50.4997C129.737 50.2538 129.506 50.0079 129.268 49.7545C127.353 47.7638 125.252 46.0848 123.042 44.4388C122.763 44.23 122.763 44.23 122.479 44.017C114.225 37.8729 104.973 33.6404 94.9442 31.3308C93.3967 30.9612 93.3967 30.9612 92.9048 30.4389C91.9707 29.5568 90.4837 29.6544 89.2559 29.5211C88.7666 29.4666 88.7666 29.4666 88.2674 29.411C85.4517 29.1309 82.6497 29.0566 79.8218 29.0521C79.6176 29.0511 79.4133 29.0501 79.2029 29.049C74.0512 29.0275 74.0512 29.0275 69.2021 30.5624Z" fill="black"/>
<path d="M94.204 169.155C94.892 169.701 95.548 170.265 96.2007 170.852C96.483 171.077 96.7654 171.303 97.0564 171.535C99.7248 173.755 101.547 177.05 103.127 180.088C103.223 180.269 103.319 180.45 103.418 180.637C106.579 186.685 108.35 193.474 108.611 200.291C108.62 200.486 108.63 200.681 108.64 200.883C109.004 209.182 106.812 216.794 101.322 223.135C97.469 227.131 92.5813 229.3 87.2536 230.595C86.8351 230.702 86.8351 230.702 86.4081 230.81C78.995 232.368 70.5548 230.847 64.1645 226.843C63.1454 226.13 62.2052 225.363 61.2784 224.534C61.038 224.321 60.7977 224.108 60.5501 223.888C55.298 218.951 52.5316 211.557 52.2479 204.432C51.9955 193.063 55.6266 180.797 63.5196 172.373C71.7669 163.996 84.3921 162.403 94.204 169.155Z" fill="#F2D3A3"/>
<path d="M94.204 169.155C94.892 169.701 95.548 170.265 96.2007 170.852C96.483 171.077 96.7654 171.303 97.0564 171.535C99.7248 173.755 101.547 177.05 103.127 180.088C103.223 180.269 103.319 180.45 103.418 180.637C106.579 186.685 108.35 193.474 108.611 200.291C108.62 200.486 108.63 200.681 108.64 200.883C109.004 209.182 106.812 216.794 101.322 223.135C97.469 227.131 92.5813 229.3 87.2536 230.595C86.8351 230.702 86.8351 230.702 86.4081 230.81C78.995 232.368 70.5548 230.847 64.1645 226.843C63.1454 226.13 62.2052 225.363 61.2784 224.534C61.038 224.321 60.7977 224.108 60.5501 223.888C55.298 218.951 52.5316 211.557 52.2479 204.432C51.9955 193.063 55.6266 180.797 63.5196 172.373C71.7669 163.996 84.3921 162.403 94.204 169.155ZM67.1589 178.103C60.984 186.043 58.0847 196.467 59.0337 206.45C59.71 211.531 61.983 216.589 65.9864 219.889C71.6221 224.008 78.5541 225.418 85.4227 224.357C90.4219 223.396 95.1696 220.801 98.2559 216.704C102.45 210.296 102.907 202.244 101.514 194.857C101.388 194.26 101.251 193.668 101.107 193.075C101.059 192.875 101.011 192.674 100.962 192.467C99.483 186.494 96.8189 180.729 92.4487 176.336C92.2787 176.156 92.1086 175.976 91.9335 175.79C88.6833 172.618 84.3223 171.319 79.8991 171.321C74.7694 171.454 70.4217 174.284 67.1589 178.103Z" fill="black"/>
<path d="M169.797 168.543C169.988 168.543 170.178 168.543 170.374 168.543C170.703 169.444 171.026 170.346 171.349 171.249C171.44 171.5 171.532 171.751 171.626 172.01C174.188 179.216 173.608 187.505 170.41 194.422C169.955 195.343 169.456 196.233 168.931 197.116C168.75 197.423 168.569 197.73 168.382 198.046C162.261 207.748 151.462 214.241 140.461 216.82C140.142 216.89 139.822 216.959 139.493 217.03C139.143 217.116 139.143 217.116 138.786 217.204C137.763 217.364 136.776 217.336 135.741 217.319C135.112 213.984 134.616 210.638 134.151 207.276C133.843 205.086 133.476 202.931 132.975 200.778C132.857 200.015 132.889 199.567 133.143 198.847C133.35 198.942 133.556 199.036 133.769 199.133C136.995 200.547 139.927 201.228 143.443 201.265C143.693 201.269 143.944 201.273 144.201 201.277C148.157 201.248 151.339 199.54 154.201 196.885C156.049 194.892 157.121 192.422 157.549 189.756C158.103 188.407 158.971 187.766 160.067 186.831C165.386 182.2 168.762 175.463 169.797 168.543Z" fill="#3A9592"/>
<path d="M38.1171 97.039C41.2619 99.1549 43.0897 102.236 43.9615 105.914C44.3458 110.217 43.4519 113.702 40.7867 117.17C38.8908 119.347 35.5853 121.288 32.6768 121.555C28.7013 121.697 25.5892 121.414 22.3154 118.901C22.0827 118.746 22.0827 118.746 21.8453 118.587C20.5857 117.66 19.8233 116.51 19.0505 115.168C18.9531 114.999 18.8556 114.83 18.7552 114.656C17.0896 111.629 16.9329 108.031 17.5973 104.674C18.9222 100.739 21.3183 97.9835 24.9851 96.137C29.4033 93.9858 33.974 94.589 38.1171 97.039Z" fill="#F4A99C"/>
<path d="M138.519 97.3422C141.274 99.3134 143.121 102.219 144.025 105.494C144.531 109.679 143.818 113.478 141.224 116.881C138.817 119.53 135.721 121.255 132.121 121.596C128.427 121.636 125.701 120.834 122.753 118.613C122.378 118.363 122.378 118.363 121.996 118.108C119.517 115.76 118.082 112.575 117.778 109.188C117.676 105.268 118.993 101.656 121.671 98.7706C122.862 97.6582 124.194 96.8438 125.639 96.101C125.831 96.002 126.022 95.903 126.219 95.8011C130.136 94.1576 135.077 95.1214 138.519 97.3422Z" fill="#F4A99C"/>
<path d="M53.1971 117.458C54.1456 118.207 54.7645 119.237 55.4373 120.227C59.5281 126.135 66.2524 128.878 73.1115 130.157C82.4514 131.767 93.2283 130.912 101.223 125.463C102.078 124.842 102.896 124.198 103.705 123.519C103.896 123.36 104.088 123.201 104.285 123.038C105.686 121.763 106.564 120.186 107.487 118.553C108.03 117.753 108.286 117.463 109.188 117.17C110.172 117.065 110.781 117.111 111.696 117.494C112.557 118.192 112.872 118.715 113.229 119.767C113.279 122.778 111.295 125.028 109.322 127.126C101.983 134.582 91.9972 137.557 81.6798 137.715C70.5804 137.679 60.4226 134.789 52.2592 127.018C50.2979 125.02 48.4499 122.697 48.4767 119.787C48.6618 118.71 49.2419 118.202 50.0224 117.458C51.1465 117.083 52.0821 117.087 53.1971 117.458Z" fill="black"/>
<path d="M82.6358 9.5166C86.4969 11.3172 88.6513 18.8922 90.0111 22.6119C90.8924 25.0546 91.774 27.4991 92.4487 30.0082C90.9276 30.0351 89.5204 29.94 88.0112 29.7196C85.3475 29.3836 82.6824 29.3653 80.0022 29.3588C79.7962 29.3574 79.5902 29.3559 79.378 29.3545C76.3801 29.3373 73.4794 29.5708 70.514 30.0082C70.7418 28.7288 71.1858 27.6765 71.7767 26.5268C71.8786 26.3269 71.9804 26.127 72.0854 25.921C72.4243 25.2614 72.7673 24.6042 73.1115 23.9473C73.2285 23.7225 73.3455 23.4977 73.4661 23.2661C74.965 20.4045 76.5786 17.6413 78.3607 14.9462C78.5216 14.7013 78.6826 14.4564 78.8484 14.2041C79.9846 12.5178 81.2514 11.0048 82.6358 9.5166Z" fill="#3A9592"/>
<path d="M119.921 79.5235C121.798 80.5943 122.974 82.2333 123.707 84.2473C124.297 86.8513 124.314 89.891 123.136 92.3251C122.029 94.0618 120.712 95.2159 118.713 95.8121C116.885 96.0152 115.602 95.7309 114.095 94.6577C112.175 92.9218 111.137 90.8456 110.851 88.2631C110.765 85.5542 111.424 83.1623 113.193 81.0748C115.139 79.0961 117.3 78.3606 119.921 79.5235Z" fill="black"/>
<path d="M47.1937 79.3183C49.2882 80.4912 50.6684 82.4175 51.3302 84.7062C51.9035 87.7402 51.4077 90.5533 49.8059 93.1786C48.9956 94.2925 48.2067 95.1534 46.8476 95.5236C44.7904 95.7972 42.9714 95.803 41.2625 94.5303C39.1532 92.536 38.505 90.2328 38.3876 87.3882C38.4144 84.9271 39.286 82.273 41.0754 80.5156C42.9118 79.0836 44.9514 78.4501 47.1937 79.3183Z" fill="black"/>
<path d="M127.371 26.5449C127.519 29.1832 127.308 31.6315 126.83 34.2293C126.78 34.5028 126.73 34.7763 126.678 35.0581C126.434 36.3162 126.186 37.4984 125.639 38.6667C123.633 37.407 121.652 36.115 119.692 34.7858C118.527 34.002 117.341 33.2895 116.115 32.6058C117.116 31.4776 118.269 30.7903 119.56 30.0444C119.885 29.8552 119.885 29.8552 120.216 29.6623C125.641 26.5449 125.641 26.5449 127.371 26.5449Z" fill="#3A9592"/>
<path d="M36.1689 25.9673C37.9339 26.5032 39.5446 27.1637 41.1656 28.0417C41.4803 28.2099 41.4803 28.2099 41.8013 28.3815C43.6582 29.3901 45.4104 30.5192 47.1363 31.7396C46.0049 32.7078 44.8312 33.4021 43.5286 34.1026C41.6029 35.1567 39.814 36.3233 38.0382 37.6122C37.3234 38.0891 37.3234 38.0891 36.7462 38.0891C35.9922 34.0703 36.1112 30.0407 36.1689 25.9673Z" fill="#3A9592"/>
<path d="M67.9165 104.182C69.535 104.924 70.8027 105.898 71.4982 107.564C71.8302 108.848 71.8773 110.089 71.6684 111.397C71.1486 112.264 70.8305 112.682 69.9368 113.129C68.4723 113.369 67.3371 113.269 66.0946 112.426C64.7383 111.275 64.072 109.922 63.7676 108.181C63.6781 106.718 64.1109 105.863 65.0303 104.759C66.1399 104.02 66.5952 104.012 67.9165 104.182Z" fill="black"/>
<path d="M96.4893 104.182C97.3344 104.706 98.0582 105.299 98.5096 106.202C98.7376 108.137 98.6374 109.608 97.4803 111.208C96.3328 112.533 95.3885 113.078 93.6392 113.219C92.6993 113.209 92.4429 113.125 91.6009 112.606C90.6263 111.572 90.6161 110.561 90.6381 109.205C90.8596 107.257 91.9314 106.001 93.4059 104.796C94.4048 104.126 95.3205 104.044 96.4893 104.182Z" fill="black"/>
<path d="M68.5181 71.9751C70.939 74.1064 72.8196 77.4361 73.1759 80.6859C73.5657 87.0705 71.0814 92.4646 66.9282 97.2322C66.5088 97.6944 66.0816 98.1478 65.6518 98.6003C65.4604 98.8232 65.27 99.0471 65.0808 99.2721C64.3381 100.13 63.5223 100.918 62.7126 101.712C62.1687 102.249 61.6433 102.79 61.1474 103.372C60.3895 104.242 59.584 105.062 58.7716 105.881C58.6133 106.041 58.4551 106.201 58.292 106.366C57.9592 106.701 57.6262 107.036 57.2929 107.37C56.868 107.797 56.4452 108.226 56.0228 108.656C55.6157 109.069 55.2061 109.479 54.7969 109.89C54.6466 110.043 54.4964 110.197 54.3415 110.355C53.3709 111.322 52.6369 111.921 51.2532 112.126C49.8971 111.939 48.8429 111.045 47.7529 110.267C46.6173 109.485 45.4386 108.768 44.2709 108.035C43.2986 107.423 42.3303 106.806 41.3621 106.188C40.5267 105.655 39.6898 105.124 38.8489 104.6C35.8055 102.697 32.8372 100.668 30.1814 98.242C30.0782 98.1479 29.9751 98.0538 29.8688 97.9568C26.7046 95.03 24.2126 91.2783 24.0066 86.8524C24.0005 86.454 23.9987 86.0556 24.001 85.6572C24.002 85.4466 24.003 85.2361 24.0041 85.0192C24.0748 81.5515 25.3652 78.626 27.6734 76.0282C27.7745 75.9143 27.8757 75.8005 27.9799 75.6832C30.0947 73.4442 33.1005 71.9974 36.1757 71.8652C40.3453 71.7702 43.711 72.88 46.8418 75.6699C47.139 75.9104 47.4373 76.1497 47.7375 76.3865C47.8523 76.22 47.967 76.0535 48.0853 75.8819C50.4523 72.4813 53.661 69.8712 57.8444 69.12C61.7187 68.6468 65.4216 69.5685 68.5181 71.9751Z" fill="#FF6060"/>
<path d="M109.363 71.729C110.659 72.7331 111.714 73.8632 112.638 75.2209C112.958 75.6885 113.304 76.127 113.662 76.5659C113.75 76.4682 113.837 76.3705 113.927 76.2698C116.213 73.8383 119.5 71.9717 122.886 71.8542C126.643 71.8159 129.617 72.5936 132.472 75.1327C132.65 75.2855 132.65 75.2855 132.831 75.4413C135.157 77.5844 136.78 80.9154 136.985 84.0694C136.999 84.6142 137 85.1573 136.996 85.7022C136.997 85.8841 136.999 86.0661 137 86.2536C136.988 90.7968 134.685 94.4965 131.633 97.7048C128.929 100.323 125.628 102.44 122.462 104.449C121.814 104.862 121.17 105.281 120.526 105.699C120.27 105.865 120.014 106.03 119.757 106.196C119.318 106.48 118.878 106.765 118.439 107.05C117.451 107.688 116.459 108.319 115.461 108.94C115.27 109.059 115.079 109.178 114.882 109.301C114.502 109.537 114.122 109.773 113.741 110.009C112.984 110.479 112.237 110.946 111.522 111.479C111.032 111.818 110.762 111.987 110.18 112.047C110.059 112.064 109.937 112.081 109.811 112.099C108.539 111.922 107.601 111.095 106.735 110.209C106.624 110.099 106.514 109.989 106.401 109.876C106.041 109.517 105.683 109.154 105.326 108.792C105.074 108.539 104.822 108.287 104.57 108.034C104.043 107.506 103.517 106.976 102.992 106.446C102.322 105.769 101.65 105.094 100.978 104.42C100.333 103.773 99.6887 103.125 99.0447 102.477C98.9232 102.355 98.8018 102.233 98.6767 102.107C97.4848 100.908 96.3027 99.7134 95.2106 98.4214C94.961 98.1522 94.7111 97.8834 94.4604 97.6152C92.6211 95.5659 91.0777 93.3543 89.8363 90.8973C89.7774 90.782 89.7185 90.6666 89.6578 90.5477C87.8009 86.8386 87.2045 82.553 88.4031 78.5364C89.0289 76.731 89.8797 75.1853 91.0903 73.6996C91.1762 73.5846 91.2621 73.4696 91.3506 73.3511C95.6892 67.7907 104.009 68.0533 109.363 71.729Z" fill="#FF6060"/>
<path d="M109.363 71.729C110.659 72.7331 111.714 73.8632 112.638 75.2209C112.958 75.6885 113.304 76.127 113.662 76.5659C113.75 76.4682 113.837 76.3705 113.927 76.2698C116.213 73.8383 119.5 71.9717 122.886 71.8542C126.643 71.8159 129.617 72.5936 132.472 75.1327C132.65 75.2855 132.65 75.2855 132.831 75.4413C135.157 77.5844 136.78 80.9154 136.985 84.0694C136.999 84.6142 137 85.1573 136.996 85.7022C136.997 85.8841 136.999 86.0661 137 86.2536C136.988 90.7968 134.685 94.4965 131.633 97.7048C128.929 100.323 125.628 102.44 122.462 104.449C121.814 104.862 121.17 105.281 120.526 105.699C120.27 105.865 120.014 106.03 119.757 106.196C119.318 106.48 118.878 106.765 118.439 107.05C117.451 107.688 116.459 108.319 115.461 108.94C115.27 109.059 115.079 109.178 114.882 109.301C114.502 109.537 114.122 109.773 113.741 110.009C112.984 110.479 112.237 110.946 111.522 111.479C111.032 111.818 110.762 111.987 110.18 112.047C110.059 112.064 109.937 112.081 109.811 112.099C108.539 111.922 107.601 111.095 106.735 110.209C106.624 110.099 106.514 109.989 106.401 109.876C106.041 109.517 105.683 109.154 105.326 108.792C105.074 108.539 104.822 108.287 104.57 108.034C104.043 107.506 103.517 106.976 102.992 106.446C102.322 105.769 101.65 105.094 100.978 104.42C100.333 103.773 99.6887 103.125 99.0447 102.477C98.9232 102.355 98.8018 102.233 98.6767 102.107C97.4848 100.908 96.3027 99.7134 95.2106 98.4214C94.961 98.1522 94.7111 97.8834 94.4604 97.6152C92.6211 95.5659 91.0777 93.3543 89.8363 90.8973C89.7774 90.782 89.7185 90.6666 89.6578 90.5477C87.8009 86.8386 87.2045 82.553 88.4031 78.5364C89.0289 76.731 89.8797 75.1853 91.0903 73.6996C91.1762 73.5846 91.2621 73.4696 91.3506 73.3511C95.6892 67.7907 104.009 68.0533 109.363 71.729ZM95.5689 75.8493C95.4546 75.9389 95.3402 76.0285 95.2225 76.1208C93.9324 77.2586 92.8195 79.4021 92.6637 81.113C92.4064 86.9716 94.9682 91.0015 98.7934 95.1968C99.106 95.5218 99.4225 95.8393 99.748 96.1513C100.044 96.4469 100.312 96.7539 100.582 97.0729C101.374 97.9831 102.224 98.833 103.078 99.6836C103.35 99.9548 103.621 100.227 103.892 100.499C104.746 101.353 105.609 102.184 106.526 102.969C107.1 103.474 107.63 104.022 108.165 104.568C108.38 104.788 108.596 105.008 108.812 105.227C108.952 105.37 108.952 105.37 109.094 105.515C109.519 105.912 109.779 106.125 110.371 106.121C111.219 105.875 111.861 105.421 112.588 104.927C112.908 104.713 113.228 104.5 113.548 104.288C113.714 104.177 113.88 104.066 114.05 103.952C114.88 103.403 115.721 102.872 116.562 102.34C116.894 102.129 117.227 101.918 117.559 101.707C117.718 101.606 117.877 101.504 118.041 101.4C126.94 96.1975 126.94 96.1975 132.17 87.7511C132.668 85.1192 132.077 82.4281 130.58 80.2271C129.276 78.5152 127.606 77.2182 125.486 76.745C123.65 76.634 121.959 76.5883 120.291 77.4616C120.052 77.5859 120.052 77.5859 119.809 77.7128C117.755 78.9064 116.197 80.5475 115.132 82.6588C114.674 83.5223 114.228 83.8028 113.304 84.0899C112.487 84.2214 111.704 84.1389 110.975 83.7316C110.592 83.157 110.569 82.932 110.505 82.2649C110.145 79.9622 108.881 77.975 107.213 76.3867C107.095 76.2694 106.977 76.1521 106.856 76.0312C104.929 74.2171 102.731 73.7678 100.169 73.8234C98.337 73.9115 96.9745 74.7209 95.5689 75.8493Z" fill="black"/>
<path d="M68.5181 71.9751C70.939 74.1064 72.8196 77.4361 73.1759 80.6859C73.5657 87.0705 71.0814 92.4646 66.9282 97.2322C66.5089 97.6944 66.0816 98.1478 65.6518 98.6003C65.4604 98.8232 65.27 99.0471 65.0808 99.2721C64.3381 100.13 63.5223 100.918 62.7126 101.712C62.1687 102.249 61.6433 102.79 61.1474 103.372C60.3895 104.242 59.584 105.062 58.7716 105.881C58.6133 106.041 58.4551 106.201 58.292 106.366C57.9592 106.701 57.6262 107.036 57.2929 107.37C56.868 107.797 56.4452 108.226 56.0228 108.656C55.6157 109.069 55.2061 109.479 54.7969 109.89C54.6466 110.043 54.4964 110.197 54.3415 110.355C53.3709 111.322 52.6369 111.921 51.2532 112.126C49.8971 111.939 48.8429 111.045 47.7529 110.267C46.6173 109.485 45.4386 108.768 44.2709 108.035C43.2986 107.423 42.3303 106.806 41.3621 106.188C40.5267 105.655 39.6898 105.124 38.8489 104.6C35.8055 102.697 32.8372 100.668 30.1814 98.242C30.0782 98.1479 29.9751 98.0538 29.8688 97.9568C26.7046 95.03 24.2126 91.2783 24.0066 86.8524C24.0005 86.454 23.9987 86.0556 24.001 85.6572C24.002 85.4466 24.003 85.2361 24.0041 85.0192C24.0748 81.5515 25.3652 78.626 27.6734 76.0282C27.7745 75.9143 27.8757 75.8005 27.9799 75.6832C30.0947 73.4442 33.1005 71.9974 36.1757 71.8652C40.3453 71.7702 43.711 72.88 46.8418 75.6699C47.139 75.9104 47.4373 76.1497 47.7375 76.3865C47.8523 76.22 47.967 76.0535 48.0853 75.8819C50.4523 72.4813 53.661 69.8712 57.8444 69.12C61.7187 68.6468 65.4216 69.5685 68.5181 71.9751ZM52.9319 77.3228C51.6622 78.875 50.8064 80.6203 50.6654 82.6299C50.5965 83.0604 50.4709 83.3594 50.2455 83.7314C49.4623 84.2208 48.4528 84.2196 47.5583 84.0896C46.729 83.7257 46.4767 83.2961 46.1028 82.4885C44.6988 79.7479 42.3326 77.8647 39.4682 76.7769C37.3138 76.1488 35.1297 76.6886 33.2045 77.7412C30.9939 79.1826 29.4552 81.167 28.849 83.7537C28.8071 84.0438 28.7737 84.3351 28.7483 84.6271C28.7337 84.7878 28.7192 84.9485 28.7042 85.1141C28.5712 88.1112 29.706 90.9427 31.7041 93.1476C35.2576 96.8732 40.0399 99.4943 44.3636 102.22C45.2412 102.775 46.1157 103.335 46.9903 103.895C47.2813 104.081 47.5725 104.267 47.8637 104.453C48.0419 104.567 48.2201 104.681 48.4037 104.799C48.5702 104.905 48.7367 105.011 48.9082 105.12C49.2673 105.354 49.6135 105.597 49.96 105.849C50.4995 106.169 50.7043 106.212 51.3204 106.124C51.7992 105.796 51.7992 105.796 52.2791 105.31C52.3765 105.217 52.474 105.123 52.5745 105.027C52.9357 104.679 53.2926 104.327 53.6492 103.975C53.7984 103.828 53.9476 103.681 54.1013 103.53C55.2586 102.389 56.4083 101.241 57.5561 100.09C57.9317 99.7144 58.3079 99.339 58.6842 98.9636C59.0509 98.5975 59.4172 98.231 59.7834 97.8644C60.0391 97.6086 60.2951 97.3531 60.5511 97.0976C64.7079 92.9259 68.3909 88.3156 68.3954 82.1899C68.3608 79.7136 67.4583 77.7517 65.8198 75.8938C64.2019 74.3782 61.8686 73.5976 59.6799 73.6552C56.898 73.9122 54.7715 75.2789 52.9319 77.3228Z" fill="black"/>
<path d="M53.9357 58.5522C54.065 58.579 54.1943 58.6057 54.3274 58.6332C59.4197 59.7119 63.9792 62.1846 67.7616 65.7416C67.8388 65.8142 67.916 65.8867 67.9955 65.9614C71.7014 69.4709 74.1132 73.8484 75.504 78.7379C75.656 78.7012 75.8081 78.6645 75.9647 78.6267C76.1712 78.5773 76.3777 78.528 76.5842 78.4787C76.6835 78.4546 76.7829 78.4306 76.8852 78.4058C77.2077 78.3291 77.5307 78.2561 77.8544 78.1849C77.9705 78.1592 78.0867 78.1334 78.2063 78.1069C81.0044 77.5391 83.8373 77.8638 86.5647 78.5997C86.7782 78.6538 86.9919 78.7075 87.2057 78.7606C87.3592 78.7987 87.5126 78.8369 87.6707 78.8762C87.7012 78.735 87.7012 78.735 87.7323 78.591C89.0161 73.0425 92.506 68.0132 96.934 64.4973C97.1369 64.3324 97.1369 64.3324 97.3439 64.1641C99.2134 62.6765 101.27 61.4965 103.432 60.4878C103.588 60.4142 103.743 60.3406 103.903 60.2648C107.274 58.7408 110.906 58.0759 114.588 58.0942C114.751 58.0947 114.751 58.0947 114.917 58.0951C118.676 58.1116 122.236 58.8491 125.692 60.3496C125.84 60.4132 125.84 60.4132 125.991 60.4781C128.705 61.6582 131.153 63.2826 133.296 65.3269C133.382 65.4081 133.467 65.4894 133.556 65.5731C137.666 69.4912 140.522 74.3999 141.73 79.9822C141.73 80.1647 141.73 80.3472 141.73 80.5353C141.902 80.5289 142.074 80.5224 142.251 80.5158C145.086 80.4409 145.086 80.4409 146.138 81.3016C146.99 82.2033 147.195 83.1881 147.162 84.4022C147.047 85.608 146.644 86.5435 145.782 87.405C145.016 87.9993 144.157 88.1491 143.208 88.2194C143.06 88.2307 142.913 88.2419 142.76 88.2536C142.648 88.2615 142.536 88.2695 142.421 88.2777C142.409 88.3616 142.396 88.4455 142.383 88.5319C141.636 93.4938 140.193 98.2928 137.167 102.38C137.069 102.519 136.97 102.658 136.869 102.802C135.252 105.016 133.087 107.216 130.807 108.74C130.726 108.795 130.645 108.849 130.561 108.905C124.396 113.004 116.868 114.939 109.512 113.557C108.198 113.28 106.915 112.905 105.644 112.473C105.55 112.442 105.457 112.411 105.36 112.379C98.3151 110.036 92.7102 104.887 89.372 98.3376C87.1471 93.869 86.0379 88.7029 86.7029 83.7152C86.5849 83.6767 86.467 83.6382 86.3454 83.5986C86.0376 83.4943 85.7313 83.385 85.4273 83.2702C82.5736 82.1943 79.8901 82.2629 77.0907 83.4403C76.7483 83.577 76.7483 83.577 76.4718 83.577C76.4818 83.6579 76.4918 83.7388 76.5021 83.8221C76.9604 88.0618 76.162 92.326 74.6745 96.2967C74.6407 96.3869 74.607 96.477 74.5722 96.5699C71.9683 103.341 66.2668 108.653 59.7469 111.62C56.3594 113.108 52.6339 113.913 48.9375 113.892C48.6312 113.89 48.325 113.892 48.0187 113.893C46.1288 113.895 44.2555 113.735 42.4171 113.277C42.2354 113.232 42.2354 113.232 42.05 113.186C37.2925 111.971 32.8888 109.636 29.3258 106.251C29.2165 106.149 29.2165 106.149 29.105 106.044C27.3117 104.352 25.8307 102.461 24.625 100.306C24.5623 100.194 24.4995 100.083 24.4349 99.9677C22.3659 96.2433 21.2787 92.4897 20.7538 88.2777C20.6069 88.2742 20.4601 88.2706 20.3088 88.2669C18.9115 88.2179 17.9312 88.1251 16.9085 87.0939C16.1783 86.1954 15.9633 85.0594 16.0049 83.9194C16.1474 82.9047 16.6067 81.8574 17.4356 81.2266C18.652 80.6012 19.9692 80.5692 21.3068 80.5353C21.3276 80.4505 21.3484 80.3658 21.3698 80.2785C21.8036 78.5251 22.2522 76.8052 22.9659 75.1432C23.0091 75.0421 23.0524 74.9411 23.0969 74.8369C26.1619 67.7921 31.9769 62.5677 39.0654 59.7686C40.225 59.3246 41.3881 58.9664 42.5986 58.6905C42.7137 58.6634 42.8289 58.6363 42.9475 58.6083C46.4428 57.8166 50.4287 57.7975 53.9357 58.5522ZM37.483 65.4651C37.3986 65.5108 37.3141 65.5565 37.2272 65.6036C32.0862 68.3954 28.149 73.4348 26.4386 78.9965C26.3186 79.4074 26.2045 79.8193 26.094 80.2328C26.061 80.3564 26.0279 80.48 25.9939 80.6073C25.5356 82.4326 25.3977 84.2611 25.4027 86.1347C25.4027 86.2365 25.4028 86.3383 25.4028 86.4431C25.4079 88.2506 25.578 89.9737 26.0076 91.7342C26.0327 91.84 26.0579 91.9457 26.0838 92.0547C26.8324 95.108 28.3347 97.9984 30.2936 100.444C30.3882 100.567 30.4829 100.69 30.5804 100.817C31.9272 102.527 33.4828 104.042 35.2709 105.283C35.3509 105.34 35.4309 105.396 35.5134 105.454C40.43 108.857 46.9147 110.107 52.7919 109.078C54.9315 108.659 56.9453 108.018 58.913 107.081C59.0497 107.016 59.0497 107.016 59.1891 106.95C61.4286 105.872 63.3645 104.389 65.1347 102.657C65.2245 102.574 65.3143 102.491 65.4068 102.405C69.2027 98.8334 71.6026 93.0994 71.7884 87.9335C71.8458 85.6293 71.8321 83.3538 71.3563 81.0883C71.3333 80.9782 71.3103 80.8682 71.2866 80.7547C70.3533 76.4728 68.0977 72.7969 65.1347 69.6129C65.05 69.5207 64.9653 69.4286 64.8781 69.3337C62.4166 66.7567 59.1837 65.0231 55.8714 63.806C55.7336 63.7551 55.5958 63.7041 55.4539 63.6516C49.6226 61.6798 42.8118 62.4747 37.483 65.4651ZM97.9018 69.7511C97.8243 69.8246 97.7468 69.8981 97.6669 69.9738C97.0396 70.5811 96.5078 71.2336 95.9922 71.9373C95.9085 72.0516 95.8248 72.1658 95.7386 72.2834C92.1767 77.2381 90.5447 83.4678 91.4761 89.5265C92.2296 93.9642 93.9913 97.9868 96.934 101.412C96.9943 101.483 97.0546 101.553 97.1166 101.625C100.897 105.997 106.517 108.798 112.276 109.268C118.521 109.636 124.622 108.275 129.447 104.081C129.864 103.708 130.267 103.322 130.669 102.933C130.795 102.815 130.922 102.698 131.052 102.577C135.167 98.6441 137.575 92.8346 137.764 87.1754C137.855 81.5864 136.41 76.1196 132.881 71.6868C132.791 71.5736 132.791 71.5736 132.7 71.4582C130.594 68.8324 128.147 66.722 125.139 65.1886C125.046 65.1404 124.954 65.0921 124.858 65.0424C115.701 60.3065 105.085 62.8129 97.9018 69.7511Z" fill="#3DCCA3"/>
</svg>
