<svg width="350" height="350" viewBox="0 0 350 350" fill="none" xmlns="http://www.w3.org/2000/svg">
<path d="M187.908 111.704C188.094 111.736 188.279 111.768 188.469 111.801C195.714 113.079 202.845 115.354 209.681 118.046C209.82 117.919 209.82 117.919 209.961 117.789C210.735 117.098 211.427 116.582 212.403 116.196C212.703 116.074 212.703 116.074 213.009 115.949C214.717 115.383 216.3 115.222 218.097 115.232C218.445 115.234 218.445 115.234 218.801 115.235C231.96 115.428 244.215 122.717 253.195 131.925C253.945 132.71 254.639 133.534 255.311 134.387C255.794 134.996 256.3 135.583 256.807 136.172C263.79 144.55 268.657 156.115 267.812 167.087C267.411 170.763 265.636 174.435 262.824 176.861C259.548 179.361 255.789 180.451 251.694 180.431C251.528 180.432 251.363 180.432 251.193 180.433C249.889 180.431 248.604 180.328 247.308 180.193C247.36 180.341 247.412 180.49 247.465 180.643C248.604 183.911 249.635 187.146 250.267 190.551C250.301 190.725 250.335 190.9 250.371 191.08C251.509 197.084 251.36 203.828 250.056 209.787C249.996 210.068 249.996 210.068 249.936 210.355C249.081 214.32 247.741 218.051 245.828 221.624C245.729 221.822 245.63 222.02 245.528 222.224C243.169 226.83 239.529 230.93 235.47 234.096C235.297 234.231 235.297 234.231 235.121 234.369C231.222 237.398 226.787 239.791 222.153 241.494C222.286 241.587 222.42 241.68 222.557 241.775C226.213 244.366 229.578 247.438 232.299 251.007C232.39 251.125 232.48 251.242 232.574 251.364C234.451 253.816 236.026 256.391 237.491 259.105C237.565 259.241 237.638 259.376 237.714 259.516C238.218 260.467 238.218 260.467 238.218 260.942C238.357 260.942 238.497 260.942 238.641 260.942C238.677 260.692 238.677 260.692 238.714 260.438C238.821 259.848 238.944 259.278 239.089 258.697C239.134 258.516 239.179 258.336 239.226 258.149C239.318 257.782 239.412 257.414 239.507 257.048C240.341 253.669 240.378 250.405 240.275 246.951C240.26 246.398 240.251 245.846 240.243 245.293C240.233 245.044 240.233 245.044 240.223 244.791C240.211 243.526 240.59 242.685 241.389 241.706C242.501 240.838 243.846 240.923 245.194 241.072C248.03 241.755 250.146 243.505 252.169 245.511C252.355 245.694 252.542 245.877 252.733 246.066C255.495 248.939 257.015 252.433 258.048 256.238C258.092 256.398 258.136 256.558 258.181 256.722C259.224 260.788 259.257 266.002 258.088 270.031C258.013 270.32 257.937 270.609 257.863 270.898C256.453 276.171 253.652 281.096 249.633 284.828C249.458 285.003 249.284 285.177 249.104 285.357C248.93 285.531 248.755 285.705 248.576 285.885C248.471 285.994 248.366 286.104 248.257 286.216C247.39 287.107 246.484 287.882 245.484 288.62C245.337 288.729 245.189 288.839 245.037 288.951C239.509 293.001 233.142 295.452 226.38 296.454C226.049 296.514 226.049 296.514 225.711 296.575C224.529 296.707 223.354 296.688 222.166 296.679C221.921 296.678 221.675 296.677 221.422 296.676C220.82 296.673 220.218 296.67 219.616 296.666C219.631 296.848 219.645 297.03 219.661 297.218C219.825 299.435 219.869 301.642 219.878 303.865C219.879 304.052 219.88 304.238 219.881 304.43C219.885 305.415 219.888 306.401 219.89 307.386C219.892 308.392 219.9 309.399 219.908 310.405C219.914 311.19 219.915 311.975 219.916 312.759C219.917 313.13 219.919 313.501 219.923 313.871C219.965 318 219.266 321.622 216.319 324.72C213.667 327.238 210.421 328.123 206.933 328.796C206.775 328.833 206.617 328.871 206.455 328.909C205.716 329.035 204.989 329.046 204.242 329.05C204.006 329.053 204.006 329.053 203.766 329.055C197.879 329.098 192.083 328.868 187.507 324.624C184.606 321.501 183.816 317.067 183.892 312.942C183.644 313.003 183.395 313.064 183.139 313.127C179.927 313.838 176.615 314.029 173.335 314.042C173.081 314.044 172.828 314.045 172.568 314.047C171.754 314.05 170.94 314.051 170.126 314.052C169.848 314.052 169.57 314.053 169.284 314.053C164.887 314.055 160.567 313.887 156.201 313.365C155.87 313.326 155.539 313.288 155.209 313.249C154.341 313.148 153.474 313.045 152.607 312.942C152.61 313.169 152.612 313.396 152.614 313.63C152.58 317.576 151.192 321.637 148.465 324.509C144.462 328.304 138.962 329.056 133.688 329.06C133.528 329.06 133.367 329.061 133.202 329.061C128.224 329.054 123.239 328.231 119.481 324.67C116.568 321.513 116.182 317.653 116.193 313.556C116.193 313.204 116.192 312.852 116.191 312.501C116.19 311.567 116.192 310.634 116.195 309.701C116.196 309.122 116.197 308.543 116.198 307.964C116.207 302.428 116.262 296.905 116.672 291.381C116.684 291.213 116.696 291.044 116.709 290.871C116.97 287.296 117.293 283.735 117.729 280.178C117.498 280.257 117.267 280.336 117.029 280.417C116.891 280.464 116.753 280.511 116.611 280.56C116.326 280.658 116.041 280.756 115.756 280.854C115.568 280.918 115.568 280.918 115.376 280.983C115.249 281.026 115.123 281.069 114.993 281.114C111.726 282.022 107.334 281.9 104.2 280.6C104.013 280.537 103.825 280.473 103.631 280.408C100.817 279.416 98.3424 277.313 97.0132 274.642C95.4764 271.41 95.4029 267.23 96.5095 263.821C96.606 263.568 96.7025 263.316 96.8018 263.056C96.887 262.827 96.887 262.827 96.9738 262.593C98.3101 259.047 100.144 255.867 102.509 252.909C102.654 252.724 102.798 252.539 102.947 252.348C105.565 249.058 108.552 246.194 111.784 243.516C111.935 243.391 112.086 243.266 112.241 243.137C112.887 242.608 113.528 242.098 114.229 241.645C114.786 241.336 114.786 241.336 114.981 240.86C114.829 240.834 114.678 240.808 114.521 240.781C109.146 239.592 103.639 235.992 99.5498 232.405C99.3681 232.246 99.1863 232.088 98.9991 231.924C98.4717 231.457 97.9522 230.982 97.436 230.502C97.2954 230.373 97.1548 230.244 97.0099 230.111C89.7548 223.18 85.8042 212.398 85.5373 202.502C85.5204 201.565 85.5171 200.629 85.5192 199.693C85.5193 199.495 85.5194 199.297 85.5195 199.093C85.5365 192.69 86.2827 185.589 89.192 179.77C88.9288 179.838 88.6656 179.906 88.3944 179.977C84.16 180.911 79.7693 180.1 76.066 177.916C72.5244 175.633 70.468 171.916 69.5266 167.891C67.4863 158.204 71.679 147.522 76.8632 139.505C77.3644 138.753 77.8816 138.014 78.4114 137.282C78.5009 137.158 78.5904 137.034 78.6826 136.906C81.4566 133.107 84.6533 129.628 88.3465 126.713C88.7254 126.396 89.1041 126.079 89.4827 125.761C91.7034 123.95 94.1024 122.419 96.5905 121.005C96.7425 120.919 96.8945 120.832 97.0512 120.743C100.976 118.538 105.119 117.012 109.485 115.932C109.635 115.894 109.785 115.856 109.94 115.817C112.198 115.274 114.467 115.239 116.778 115.232C116.924 115.231 117.071 115.23 117.221 115.229C120.589 115.22 124.181 115.722 126.818 118.046C126.818 118.185 126.818 118.325 126.818 118.469C127.023 118.376 127.227 118.283 127.437 118.188C134.732 114.961 142.436 112.845 150.282 111.493C150.482 111.458 150.682 111.423 150.889 111.387C162.966 109.364 175.864 109.626 187.908 111.704Z" fill="#F2D3A3"/>
<path d="M187.908 111.704C188.094 111.736 188.279 111.768 188.469 111.801C195.714 113.079 202.845 115.354 209.681 118.046C209.82 117.919 209.82 117.919 209.961 117.789C210.735 117.098 211.427 116.582 212.403 116.196C212.703 116.074 212.703 116.074 213.009 115.949C214.717 115.383 216.3 115.222 218.097 115.232C218.445 115.234 218.445 115.234 218.801 115.235C231.96 115.428 244.215 122.717 253.195 131.925C253.945 132.71 254.639 133.534 255.311 134.387C255.794 134.996 256.3 135.583 256.807 136.172C263.79 144.55 268.657 156.115 267.812 167.087C267.411 170.763 265.636 174.435 262.824 176.861C259.548 179.361 255.789 180.451 251.694 180.431C251.528 180.432 251.363 180.432 251.193 180.433C249.889 180.431 248.604 180.328 247.308 180.193C247.36 180.341 247.412 180.49 247.465 180.643C248.604 183.911 249.635 187.146 250.267 190.551C250.301 190.725 250.335 190.9 250.371 191.08C251.509 197.084 251.36 203.828 250.056 209.787C249.996 210.068 249.996 210.068 249.936 210.355C249.081 214.32 247.741 218.051 245.828 221.624C245.729 221.822 245.63 222.02 245.528 222.224C243.169 226.83 239.529 230.93 235.47 234.096C235.297 234.231 235.297 234.231 235.121 234.369C231.222 237.398 226.787 239.791 222.153 241.494C222.286 241.587 222.42 241.68 222.557 241.775C226.213 244.366 229.578 247.438 232.299 251.007C232.39 251.125 232.48 251.242 232.574 251.364C234.451 253.816 236.026 256.391 237.491 259.105C237.565 259.241 237.638 259.376 237.714 259.516C238.218 260.467 238.218 260.467 238.218 260.942C238.357 260.942 238.497 260.942 238.641 260.942C238.677 260.692 238.677 260.692 238.714 260.438C238.821 259.848 238.944 259.278 239.089 258.697C239.134 258.516 239.179 258.336 239.226 258.149C239.318 257.782 239.412 257.414 239.507 257.048C240.341 253.669 240.378 250.405 240.275 246.951C240.26 246.398 240.251 245.846 240.243 245.293C240.233 245.044 240.233 245.044 240.223 244.791C240.211 243.526 240.59 242.685 241.389 241.706C242.501 240.838 243.846 240.923 245.194 241.072C248.03 241.755 250.146 243.505 252.169 245.511C252.355 245.694 252.542 245.877 252.733 246.066C255.495 248.939 257.015 252.433 258.048 256.238C258.092 256.398 258.136 256.558 258.181 256.722C259.224 260.788 259.257 266.002 258.088 270.031C258.013 270.32 257.937 270.609 257.863 270.898C256.453 276.171 253.652 281.096 249.633 284.828C249.458 285.003 249.284 285.177 249.104 285.357C248.93 285.531 248.755 285.705 248.576 285.885C248.471 285.994 248.366 286.104 248.257 286.216C247.39 287.107 246.484 287.882 245.484 288.62C245.337 288.729 245.189 288.839 245.037 288.951C239.509 293.001 233.142 295.452 226.38 296.454C226.049 296.514 226.049 296.514 225.711 296.575C224.529 296.707 223.354 296.688 222.166 296.679C221.921 296.678 221.675 296.677 221.422 296.676C220.82 296.673 220.218 296.67 219.616 296.666C219.631 296.848 219.645 297.03 219.661 297.218C219.825 299.435 219.869 301.642 219.878 303.865C219.879 304.052 219.88 304.238 219.881 304.43C219.885 305.415 219.888 306.401 219.89 307.386C219.892 308.392 219.9 309.399 219.908 310.405C219.914 311.19 219.915 311.975 219.916 312.759C219.917 313.13 219.919 313.501 219.923 313.871C219.965 318 219.266 321.622 216.319 324.72C213.667 327.238 210.421 328.123 206.933 328.796C206.775 328.833 206.617 328.871 206.455 328.909C205.716 329.035 204.989 329.046 204.242 329.05C204.006 329.053 204.006 329.053 203.766 329.055C197.879 329.098 192.083 328.868 187.507 324.624C184.606 321.501 183.816 317.067 183.892 312.942C183.644 313.003 183.395 313.064 183.139 313.127C179.927 313.838 176.615 314.029 173.335 314.042C173.081 314.044 172.828 314.045 172.568 314.047C171.754 314.05 170.94 314.051 170.126 314.052C169.848 314.052 169.57 314.053 169.284 314.053C164.887 314.055 160.567 313.887 156.201 313.365C155.87 313.326 155.539 313.288 155.209 313.249C154.341 313.148 153.474 313.045 152.607 312.942C152.61 313.169 152.612 313.396 152.614 313.63C152.58 317.576 151.192 321.637 148.465 324.509C144.462 328.304 138.962 329.056 133.688 329.06C133.528 329.06 133.367 329.061 133.202 329.061C128.224 329.054 123.239 328.231 119.481 324.67C116.568 321.513 116.182 317.653 116.193 313.556C116.193 313.204 116.192 312.852 116.191 312.501C116.19 311.567 116.192 310.634 116.195 309.701C116.196 309.122 116.197 308.543 116.198 307.964C116.207 302.428 116.262 296.905 116.672 291.381C116.684 291.213 116.696 291.044 116.709 290.871C116.97 287.296 117.293 283.735 117.729 280.178C117.498 280.257 117.267 280.336 117.029 280.417C116.891 280.464 116.753 280.511 116.611 280.56C116.326 280.658 116.041 280.756 115.756 280.854C115.568 280.918 115.568 280.918 115.376 280.983C115.249 281.026 115.123 281.069 114.993 281.114C111.726 282.022 107.334 281.9 104.2 280.6C104.013 280.537 103.825 280.473 103.631 280.408C100.817 279.416 98.3424 277.313 97.0132 274.642C95.4764 271.41 95.4029 267.23 96.5095 263.821C96.606 263.568 96.7025 263.316 96.8018 263.056C96.887 262.827 96.887 262.827 96.9738 262.593C98.3101 259.047 100.144 255.867 102.509 252.909C102.654 252.724 102.798 252.539 102.947 252.348C105.565 249.058 108.552 246.194 111.784 243.516C111.935 243.391 112.086 243.266 112.241 243.137C112.887 242.608 113.528 242.098 114.229 241.645C114.786 241.336 114.786 241.336 114.981 240.86C114.829 240.834 114.678 240.808 114.521 240.781C109.146 239.592 103.639 235.992 99.5498 232.405C99.3681 232.246 99.1863 232.088 98.9991 231.924C98.4717 231.457 97.9522 230.982 97.436 230.502C97.2954 230.373 97.1548 230.244 97.0099 230.111C89.7548 223.18 85.8042 212.398 85.5373 202.502C85.5204 201.565 85.5171 200.629 85.5192 199.693C85.5193 199.495 85.5194 199.297 85.5195 199.093C85.5365 192.69 86.2827 185.589 89.192 179.77C88.9288 179.838 88.6656 179.906 88.3944 179.977C84.16 180.911 79.7693 180.1 76.066 177.916C72.5244 175.633 70.468 171.916 69.5266 167.891C67.4863 158.204 71.679 147.522 76.8632 139.505C77.3644 138.753 77.8816 138.014 78.4114 137.282C78.5009 137.158 78.5904 137.034 78.6826 136.906C81.4566 133.107 84.6533 129.628 88.3465 126.713C88.7254 126.396 89.1041 126.079 89.4827 125.761C91.7034 123.95 94.1024 122.419 96.5905 121.005C96.7425 120.919 96.8945 120.832 97.0512 120.743C100.976 118.538 105.119 117.012 109.485 115.932C109.635 115.894 109.785 115.856 109.94 115.817C112.198 115.274 114.467 115.239 116.778 115.232C116.924 115.231 117.071 115.23 117.221 115.229C120.589 115.22 124.181 115.722 126.818 118.046C126.818 118.185 126.818 118.325 126.818 118.469C127.023 118.376 127.227 118.283 127.437 118.188C134.732 114.961 142.436 112.845 150.282 111.493C150.482 111.458 150.682 111.423 150.889 111.387C162.966 109.364 175.864 109.626 187.908 111.704ZM153.664 116.355C153.329 116.394 153.329 116.394 152.988 116.435C145.808 117.29 138.85 119.047 132.103 121.639C131.91 121.713 131.718 121.786 131.519 121.861C131.029 122.05 130.541 122.245 130.055 122.445C129.797 122.551 129.539 122.657 129.273 122.767C128.687 123.064 128.687 123.064 128.529 123.607C128.507 124.241 128.522 124.863 128.549 125.497C128.616 129.242 127.698 133.084 126.607 136.648C126.544 136.855 126.48 137.062 126.415 137.276C123.245 147.478 118.629 158.065 111.221 165.953C110.82 166.382 110.442 166.82 110.066 167.272C106.876 170.904 102.122 175.112 97.4855 176.679C96.3682 177.066 95.7223 177.345 95.0959 178.378C94.741 179.184 94.479 180.013 94.2312 180.857C94.0376 181.516 93.829 182.17 93.6195 182.824C92.7679 185.534 92.0459 188.249 91.6039 191.057C91.5422 191.449 91.4752 191.84 91.4046 192.23C91.0499 194.353 91.0229 196.45 91.0277 198.599C91.0284 199.211 91.0234 199.822 91.0181 200.434C91.0057 204.019 91.2901 207.637 92.2967 211.095C92.3503 211.284 92.4039 211.473 92.4591 211.669C95.1935 220.972 101.379 228.346 109.839 232.988C114.449 235.452 119.278 237.296 124.435 238.215C124.623 238.249 124.811 238.283 125.004 238.318C125.174 238.347 125.344 238.376 125.52 238.405C126.22 238.606 126.587 239.034 127.03 239.592C127.1 239.662 127.169 239.731 127.241 239.803C127.332 240.581 127.261 241.027 126.937 241.745C126.205 242.549 125.528 242.715 124.493 242.974C115.785 245.203 108.728 252.631 104.182 260.135C102.159 263.556 100.524 267.12 101.105 271.192C101.548 272.864 102.763 274.176 104.203 275.082C107.347 276.704 111.239 277.002 114.637 275.937C116.196 275.317 117.879 274.49 118.997 273.202C119.172 272.772 119.172 272.772 119.279 272.285C119.325 272.1 119.37 271.915 119.418 271.724C119.465 271.523 119.513 271.322 119.562 271.115C119.64 270.801 119.64 270.801 119.719 270.48C119.886 269.807 120.05 269.133 120.213 268.459C120.83 265.911 121.451 263.376 122.303 260.895C122.362 260.722 122.42 260.549 122.48 260.371C122.85 259.334 123.24 258.292 124.282 257.771C125.145 257.662 126.019 257.576 126.809 257.985C127.367 258.436 127.647 258.778 127.875 259.462C127.929 260.502 127.809 261.348 127.511 262.343C127.432 262.614 127.353 262.884 127.274 263.155C127.232 263.296 127.19 263.437 127.147 263.582C126.119 267.04 125.268 270.524 124.493 274.048C124.43 274.33 124.43 274.33 124.366 274.617C123.08 280.394 122.436 286.292 121.992 292.185C121.965 292.543 121.936 292.901 121.906 293.259C121.771 294.926 121.684 296.591 121.63 298.263C121.621 298.534 121.612 298.805 121.603 299.084C121.508 302.189 121.487 305.294 121.483 308.4C121.482 309.223 121.477 310.045 121.471 310.868C121.467 311.516 121.466 312.163 121.465 312.811C121.465 313.114 121.463 313.418 121.46 313.721C121.437 316.374 121.617 318.904 123.436 320.975C126.046 323.436 129.611 323.835 133.042 323.794C133.491 323.789 133.939 323.79 134.388 323.791C138.148 323.783 142.208 323.342 144.997 320.552C146.901 318.053 147.23 315.117 147.336 312.083C147.352 311.647 147.369 311.21 147.39 310.774C147.408 310.383 147.423 309.992 147.437 309.601C147.543 308.865 147.725 308.46 148.168 307.869C150.015 306.638 153.772 307.636 155.897 307.856C160.315 308.311 164.691 308.543 169.133 308.542C169.793 308.543 170.452 308.547 171.111 308.551C175.203 308.562 179.224 308.213 183.271 307.631C183.806 307.555 184.342 307.48 184.877 307.405C185.105 307.372 185.333 307.34 185.568 307.306C187.265 307.12 187.265 307.12 188.173 307.592C188.807 308.125 188.941 308.36 189.177 309.137C189.231 309.828 189.231 309.828 189.235 310.609C189.239 310.899 189.243 311.19 189.248 311.48C189.253 311.93 189.256 312.38 189.257 312.83C189.272 315.978 189.615 319.031 191.925 321.398C194.537 323.566 198.14 323.765 201.384 323.774C201.839 323.776 202.294 323.782 202.749 323.789C206.304 323.816 209.929 323.421 212.598 320.868C214.086 319.179 214.592 317.096 214.604 314.888C214.606 314.732 214.607 314.576 214.609 314.416C214.613 313.901 214.613 313.387 214.614 312.873C214.616 312.507 214.617 312.142 214.619 311.776C214.624 310.597 214.623 309.418 214.622 308.239C214.622 308.038 214.622 307.838 214.622 307.631C214.62 300.979 214.427 294.404 213.697 287.788C213.65 287.349 213.604 286.91 213.557 286.472C212.638 277.982 211.359 269.278 208.624 261.153C208.495 260.414 208.461 259.757 208.831 259.087C209.309 258.485 209.785 257.989 210.527 257.771C211.295 257.701 211.849 257.713 212.574 257.982C213.69 258.947 214.067 260.474 214.417 261.862C214.459 262.026 214.502 262.19 214.546 262.359C214.637 262.707 214.727 263.055 214.815 263.404C214.954 263.946 215.095 264.488 215.237 265.03C215.684 266.744 216.102 268.457 216.461 270.192C216.899 272.332 216.899 272.332 218.302 273.958C218.456 274.057 218.611 274.156 218.771 274.259C218.93 274.374 219.089 274.488 219.253 274.607C222.049 276.472 225.451 276.868 228.715 276.226C231.024 275.627 233.066 274.595 234.413 272.568C235.477 270.568 235.227 268.276 234.624 266.173C231.905 257.364 224.883 249.367 216.899 244.904C215.119 243.967 213.314 243.551 211.329 243.297C210.518 243.144 210.082 242.885 209.47 242.34C209.129 241.657 209.135 240.964 209.258 240.226C210.12 239.025 211.204 238.85 212.602 238.605C212.742 238.583 212.881 238.562 213.025 238.54C215.053 238.226 216.952 237.681 218.89 237.016C219.041 236.964 219.193 236.913 219.35 236.86C221.581 236.103 223.699 235.268 225.746 234.096C226.033 233.942 226.32 233.789 226.608 233.636C234.885 229.189 241.118 221.532 243.828 212.544C244.091 211.629 244.334 210.711 244.56 209.787C244.595 209.655 244.63 209.524 244.666 209.388C245.443 206.285 245.491 203.032 245.484 199.852C245.484 199.569 245.484 199.569 245.484 199.281C245.477 196.089 245.236 193.044 244.56 189.917C244.523 189.74 244.487 189.563 244.45 189.382C243.735 185.96 242.549 182.639 241.389 179.347C241.339 179.187 241.289 179.026 241.238 178.861C240.976 178.099 240.745 177.862 240.057 177.42C239.776 177.292 239.493 177.168 239.209 177.049C238.901 176.906 238.593 176.762 238.287 176.618C238.055 176.509 238.055 176.509 237.819 176.398C235.372 175.187 233.17 173.414 231.031 171.738C230.914 171.646 230.796 171.554 230.675 171.459C227.471 168.916 224.55 165.963 222.153 162.648C222.05 162.508 221.947 162.367 221.841 162.223C214.306 151.922 206.939 136.615 207.779 123.542C196.271 117.241 182.214 115.583 169.284 115.638C168.422 115.642 167.561 115.639 166.699 115.636C162.314 115.62 158.02 115.832 153.664 116.355Z" fill="black"/>
<path d="M234.954 124.863C241.341 128.13 247.604 133.041 251.958 138.762C252.07 138.907 252.181 139.053 252.296 139.203C253.95 141.373 255.501 143.559 256.82 145.949C256.918 146.123 257.015 146.297 257.116 146.477C260.214 152.053 262.399 157.746 262.422 164.18C262.424 164.592 262.424 164.592 262.426 165.011C262.386 168.007 261.705 170.554 259.637 172.771C256.894 175.261 253.32 175.318 249.82 175.162C241.477 174.576 233.644 168.043 228.358 162.042C227.661 161.214 227.012 160.356 226.381 159.477C226.285 159.343 226.188 159.21 226.089 159.072C222.617 154.213 219.851 149 217.742 143.411C217.517 142.815 217.286 142.22 217.055 141.626C215.476 137.498 214.229 133.186 213.486 128.826C213.444 128.62 213.401 128.414 213.357 128.201C213.107 126.933 213.016 125.69 212.998 124.401C212.994 124.248 212.99 124.095 212.986 123.938C212.988 122.99 213.112 122.39 213.698 121.639C218.986 117.673 229.845 122.363 234.954 124.863Z" fill="#7D5232"/>
<path d="M116.593 120.53C116.992 120.527 116.992 120.527 117.399 120.525C121.301 120.533 121.301 120.533 122.802 121.851C123.237 122.85 123.299 123.801 123.291 124.876C123.29 125.126 123.29 125.126 123.288 125.382C123.142 132.886 119.838 140.899 116.691 147.57C116.461 148.062 116.238 148.556 116.016 149.052C112.502 156.803 107.253 163.894 100.396 168.989C100.189 169.148 99.9814 169.306 99.7681 169.468C96.5259 171.84 92.8494 173.63 88.9808 174.697C88.7901 174.752 88.5994 174.808 88.4028 174.865C86.0257 175.456 83.2315 175.371 80.9482 174.485C80.6826 174.385 80.6826 174.385 80.4115 174.282C77.9115 173.191 76.2424 171.059 75.2409 168.567C74.6809 166.813 74.5038 165.169 74.5274 163.335C74.5302 162.974 74.5302 162.974 74.533 162.606C74.5658 160.713 74.7843 158.988 75.2409 157.152C75.2973 156.888 75.3537 156.624 75.4118 156.352C76.8926 149.602 80.441 143.256 84.7532 137.916C84.9575 137.647 84.9575 137.647 85.166 137.373C87.7316 134.07 90.8539 131.227 94.2655 128.826C94.3938 128.734 94.5221 128.642 94.6543 128.547C99.5757 125.03 105.256 122.313 111.176 121.005C111.346 120.966 111.516 120.927 111.691 120.887C113.328 120.548 114.926 120.519 116.593 120.53Z" fill="#7D5232"/>
<path d="M173.746 252.486C173.938 252.56 174.13 252.634 174.328 252.71C179.118 254.809 181.996 259.923 183.892 264.535C184.828 266.944 185.348 269.396 185.795 271.934C185.832 272.131 185.869 272.329 185.907 272.533C186.478 276.402 186.264 280.725 184.949 284.405C184.866 284.648 184.782 284.891 184.696 285.142C183.175 289.124 180.291 292.211 176.444 294.008C171.361 296.232 164.833 295.993 159.737 294.016C155.795 292.4 153.043 289.771 151.201 285.941C148.359 279.054 149.572 271.05 152.356 264.35C153.513 261.677 154.864 259.091 156.835 256.925C156.926 256.824 157.018 256.723 157.112 256.618C161.503 251.8 167.645 250.022 173.746 252.486Z" fill="#FFBB4D"/>
<path d="M180.861 250.449C183.462 252.645 185.386 255.233 187.063 258.193C187.132 258.315 187.201 258.437 187.272 258.562C189.396 262.357 190.624 266.596 191.29 270.877C191.327 271.109 191.327 271.109 191.365 271.346C192.423 278.31 191.447 285.955 187.324 291.829C183.327 296.979 178.3 299.426 171.983 300.602C164.584 301.367 157.245 299.89 151.348 295.223C147.175 291.81 144.903 286.751 144.363 281.446C144.287 280.262 144.281 279.078 144.284 277.892C144.284 277.731 144.284 277.571 144.284 277.405C144.299 272.949 145.007 268.746 146.477 264.535C146.524 264.398 146.572 264.26 146.62 264.118C148.197 259.63 150.623 255.727 153.875 252.275C153.994 252.145 154.112 252.015 154.235 251.882C161.32 244.402 173.003 243.994 180.861 250.449ZM158.737 255.023C158.538 255.203 158.338 255.383 158.132 255.569C154.397 259.058 152.346 263.718 150.916 268.551C150.851 268.764 150.787 268.978 150.72 269.197C149.134 274.941 148.929 281.624 151.716 287.041C154.135 291.157 157.5 293.381 161.986 294.785C163.967 295.273 165.882 295.468 167.919 295.45C168.151 295.448 168.384 295.447 168.623 295.445C173.501 295.38 177.873 294.1 181.355 290.535C183.799 287.956 184.925 284.839 185.7 281.434C185.762 281.167 185.831 280.901 185.909 280.638C187.415 273.475 184.797 265.122 181.144 259.039C180.624 258.29 180.059 257.606 179.453 256.925C179.255 256.682 179.255 256.682 179.053 256.435C176.882 253.831 173.736 251.95 170.363 251.429C166.012 251.036 162.026 252.051 158.737 255.023Z" fill="black"/>
<path d="M135.901 180.588C138.065 181.607 139.168 183.162 139.977 185.345C140.409 187.434 140.076 189.183 139.011 191.036C138.291 192.083 137.448 192.709 136.33 193.299C136.668 194.034 137.107 194.661 137.572 195.32C139.057 197.524 139.539 199.616 139.541 202.23C139.543 202.421 139.546 202.612 139.549 202.809C139.556 205.947 138.338 208.79 136.119 211.055C135.98 211.055 135.84 211.055 135.696 211.055C135.627 211.264 135.557 211.474 135.485 211.689C134.559 212.644 133.314 213.244 132.142 213.843C131.94 213.948 131.94 213.948 131.733 214.056C129.593 215.118 127.54 215.395 125.167 215.375C124.774 215.373 124.774 215.373 124.374 215.371C122.512 215.338 120.938 215.165 119.208 214.437C118.914 214.33 118.914 214.33 118.614 214.22C115.328 212.909 113.004 210.426 111.456 207.303C110.779 205.643 110.423 204.132 110.436 202.335C110.437 202.142 110.438 201.949 110.44 201.751C110.532 198.227 112.264 195.403 114.762 192.998C115.811 192.107 116.946 191.426 118.151 190.762C118.303 190.673 118.456 190.585 118.612 190.493C120.802 189.284 123.396 189.032 125.854 189.058C126.029 189.059 126.203 189.06 126.383 189.061C126.81 189.063 127.237 189.067 127.664 189.071C127.654 188.819 127.644 188.566 127.634 188.306C127.562 185.709 127.758 184.022 129.579 182.052C131.372 180.395 133.536 179.894 135.901 180.588Z" fill="#F4A99C"/>
<path d="M204.475 180.84C206.235 181.861 207.24 183.173 207.99 185.055C208.376 186.51 208.255 188.026 207.99 189.494C208.205 189.49 208.205 189.49 208.425 189.487C209.086 189.478 209.747 189.473 210.407 189.467C210.633 189.464 210.859 189.46 211.092 189.456C215.132 189.432 218.95 191.078 221.887 193.85C224.261 196.368 225.439 199.336 225.412 202.795C225.287 206.267 223.708 209.064 221.307 211.478C221.182 211.61 221.057 211.742 220.928 211.879C218.249 214.492 214.207 215.631 210.554 215.594C208.846 215.532 207.285 215.174 205.664 214.648C205.333 214.544 205.333 214.544 204.995 214.439C201.385 213.132 198.967 210.281 197.303 206.931C196.673 205.409 196.498 204.058 196.509 202.428C196.51 202.241 196.511 202.054 196.512 201.862C196.572 198.663 197.912 196.084 199.746 193.51C199.592 193.429 199.592 193.429 199.435 193.346C197.894 192.465 196.352 191.138 195.814 189.385C195.439 187.061 195.575 184.912 196.871 182.904C198.68 180.552 201.735 179.594 204.475 180.84Z" fill="#F4A99C"/>
<path d="M246.25 247.202C248.883 249.418 250.662 252.032 251.957 255.234C252.018 255.377 252.078 255.52 252.14 255.668C254.139 260.947 253.756 267.847 251.535 272.991C247.975 280.723 241.4 286.537 233.466 289.564C228.922 291.207 224.232 291.979 219.404 291.804C219.084 290.678 219.024 289.505 218.906 288.345C218.863 287.922 218.818 287.5 218.774 287.077C218.746 286.809 218.719 286.54 218.69 286.263C218.652 285.896 218.652 285.896 218.614 285.521C218.562 284.864 218.549 284.219 218.559 283.56C218.73 283.498 218.902 283.437 219.078 283.373C220.248 282.94 221.286 282.531 222.311 281.816C223.744 280.985 225.305 281.129 226.913 281.105C228.899 281.062 230.465 280.738 232.299 279.966C232.554 279.862 232.809 279.757 233.072 279.649C236.177 278.244 238.283 276.087 239.539 272.911C239.821 272.104 239.956 271.368 240.041 270.52C240.236 269.157 240.867 268.225 241.609 267.1C245.492 261.196 246.024 254.08 246.25 247.202Z" fill="#7D5232"/>
<path d="M176.785 188.173C177.826 189.01 178.609 190.13 179.031 191.396C179.162 193.075 178.726 194.235 177.683 195.531C176.101 197.212 173.887 198.188 171.632 198.583C171.353 198.583 171.074 198.583 170.787 198.583C170.791 199.535 170.808 200.486 170.826 201.437C170.828 201.705 170.829 201.973 170.83 202.249C170.867 203.824 170.965 205 172.055 206.193C173.321 207.376 175.038 207.41 176.682 207.388C179.251 207.261 180.836 206.016 182.545 204.224C182.877 203.848 183.199 203.463 183.509 203.069C183.917 202.57 184.095 202.415 184.728 202.338C185.903 202.3 186.558 202.442 187.486 203.234C188.064 204.101 188.058 204.752 187.909 205.77C187.006 208.48 184.199 210.447 181.779 211.689C181.014 212.014 180.247 212.29 179.453 212.535C179.244 212.604 179.035 212.674 178.819 212.746C174.943 213.032 171.828 212.971 168.698 210.496C168.22 210.134 168.22 210.134 167.404 210.209C166.924 210.504 166.924 210.504 166.44 210.896C165.346 211.699 164.254 212.136 162.965 212.535C162.652 212.639 162.652 212.639 162.331 212.746C158.13 213.101 154.666 212.738 151.339 209.998C151.092 209.802 151.092 209.802 150.841 209.603C149.375 208.38 147.866 206.835 147.68 204.859C147.758 203.935 148.012 203.523 148.591 202.811C149.536 202.181 150.443 202.236 151.551 202.388C152.106 202.785 152.106 202.785 152.608 203.445C154.106 205.257 155.833 207.015 158.299 207.296C158.75 207.322 159.198 207.33 159.649 207.329C159.808 207.329 159.967 207.329 160.13 207.329C161.375 207.304 162.318 207.055 163.388 206.405C163.539 206.336 163.689 206.268 163.844 206.198C164.399 205.89 164.465 205.513 164.656 204.925C164.726 204.785 164.796 204.646 164.868 204.502C164.901 204.057 164.921 203.612 164.935 203.166C164.944 202.9 164.952 202.635 164.962 202.361C164.97 202.082 164.978 201.803 164.987 201.516C164.996 201.233 165.005 200.95 165.014 200.667C165.037 199.972 165.058 199.278 165.079 198.583C164.754 198.544 164.754 198.544 164.422 198.505C162.037 198.119 159.673 196.998 158.108 195.122C157.232 193.857 156.853 192.746 157.047 191.185C157.531 189.496 158.859 188.403 160.292 187.484C161.672 186.733 163.121 186.4 164.656 186.112C164.849 186.072 165.042 186.033 165.241 185.993C169.155 185.463 173.458 185.898 176.785 188.173Z" fill="black"/>
<path d="M204.476 180.84C206.236 181.861 207.241 183.173 207.991 185.055C208.162 185.702 208.162 185.702 208.202 186.323C208.218 186.456 208.233 186.589 208.249 186.726C208.371 188.453 207.707 190.311 206.683 191.7C204.989 193.244 203.42 193.814 201.152 193.793C199.485 193.638 198.221 192.797 197.098 191.587C195.681 189.752 195.531 187.716 195.73 185.478C196.117 183.693 197.124 182.312 198.619 181.286C200.521 180.212 202.446 179.917 204.476 180.84Z" fill="black"/>
<path d="M135.901 180.588C138.065 181.606 139.168 183.162 139.977 185.345C140.411 187.441 140.06 189.157 139.026 191.029C138.184 192.285 136.936 193.178 135.493 193.644C133.388 194.023 131.762 193.645 129.989 192.453C128.819 191.445 127.949 189.959 127.664 188.437C127.495 186.057 127.666 184.353 129.196 182.465C131.001 180.512 133.317 179.83 135.901 180.588Z" fill="black"/>
<path d="M133.911 144.411C134.012 144.425 134.114 144.438 134.219 144.452C137.685 144.92 142.483 145.598 144.843 148.523C145.285 149.18 145.51 149.606 145.386 150.416C145.231 150.923 144.902 151.309 144.501 151.648C143.869 151.933 143.296 151.831 142.643 151.65C142.088 151.39 141.57 151.075 141.045 150.759C139.057 149.58 137.171 148.98 134.885 148.648C134.633 148.611 134.633 148.611 134.376 148.573C132.869 148.371 131.372 148.302 129.866 148.548C129.77 148.563 129.674 148.578 129.575 148.593C128.84 148.711 128.124 148.88 127.408 149.084C126.728 149.262 126.033 149.314 125.39 148.974C125.011 148.708 124.807 148.483 124.585 148.071C124.463 147.329 124.519 146.632 124.885 145.966C125.631 145.331 126.505 145.068 127.44 144.845C127.558 144.817 127.677 144.788 127.798 144.759C129.801 144.302 131.872 144.134 133.911 144.411Z" fill="black"/>
<path d="M208.669 167.126C208.8 167.196 208.8 167.196 208.933 167.268C209.614 167.667 210.161 168.185 210.424 168.996C210.489 169.806 210.421 170.353 210.031 171.076C209.486 171.638 209.015 171.894 208.253 171.882C207.508 171.772 206.799 171.445 206.094 171.17C204.159 170.419 202.432 170.1 200.376 170.107C200.231 170.107 200.231 170.107 200.083 170.107C197.571 170.117 195.039 170.363 192.692 171.403C191.974 171.709 191.369 171.727 190.616 171.531C189.954 171.124 189.722 170.64 189.499 169.86C189.405 169.148 189.427 168.649 189.726 167.999C190.95 166.458 192.487 166.149 194.29 165.853C194.569 165.807 194.847 165.758 195.126 165.709C199.515 164.961 204.594 164.939 208.669 167.126Z" fill="black"/>
<path d="M265.171 156.154C269.942 156.616 274.473 158.259 277.927 161.606L278.259 161.935L278.274 161.952L278.29 161.968C281.452 165.352 282.701 169.52 282.298 173.754L282.296 173.767C281.734 179.275 278.306 183.028 274.094 186.027L274.091 186.029C273.956 186.124 273.822 186.22 273.687 186.316L273.686 186.315C273.618 186.363 273.549 186.413 273.479 186.463L273.478 186.464C273.128 186.711 272.775 186.958 272.422 187.205C271.067 188.156 270.26 189 269.72 189.883C269.179 190.771 268.824 191.835 268.574 193.361L268.573 193.372L268.571 193.382C268.554 193.478 268.536 193.573 268.519 193.672L268.52 193.673C268.505 193.764 268.49 193.856 268.474 193.95L268.45 194.095L268.405 194.236C268.181 194.936 267.842 195.398 267.371 195.831L267.107 196.073L266.775 196.21C265.84 196.593 265.093 196.623 264.263 196.541L264.263 196.542C264.144 196.531 264.143 196.532 264.021 196.52L264.017 196.52C263.747 196.494 263.478 196.465 263.218 196.438C263.037 196.42 262.856 196.402 262.675 196.384L262.673 196.384C262.285 196.346 261.899 196.307 261.513 196.266C261.029 196.216 260.544 196.168 260.055 196.12L258.376 195.951C258.113 195.925 257.853 195.898 257.598 195.871L257.598 195.87L257.071 195.817L256.973 195.797C255.911 195.579 255.306 195.062 254.847 194.64L254.581 194.396L254.418 194.075C253.817 192.892 254.076 191.718 254.117 191.383C254.13 191.272 254.143 191.16 254.156 191.045L254.158 191.026C254.493 188.346 255.276 186.066 256.623 184.031C257.96 182.012 259.783 180.339 262.048 178.772L262.061 178.762L262.073 178.754C262.435 178.512 262.803 178.287 263.128 178.088C264.227 177.401 265.241 176.636 266.136 175.796L266.148 175.784L266.16 175.773C266.241 175.699 266.323 175.625 266.406 175.55C267.667 174.367 268.163 173.251 268.191 171.726C268.103 171.035 267.728 170.299 267.078 169.721C266.22 169.124 265.287 168.76 264.154 168.59L264.145 168.589C264.054 168.575 263.964 168.56 263.871 168.546C262.298 168.346 261.027 168.508 260.008 169.096C258.986 169.805 258.2 170.716 257.337 171.869L257.331 171.876C257.273 171.953 257.216 172.029 257.156 172.108C257.105 172.178 257.099 172.188 257.034 172.276L256.957 172.382L256.867 172.477C256.186 173.193 255.429 173.434 254.785 173.557L254.583 173.597L254.378 173.593C253.24 173.576 252.156 173.078 251.432 172.703C251.037 172.498 250.655 172.278 250.334 172.094C249.994 171.898 249.739 171.752 249.524 171.643L249.524 171.642C249.213 171.484 248.902 171.328 248.589 171.17L248.588 171.169C248.388 171.067 248.187 170.965 247.987 170.864L247.987 170.865C247.894 170.818 247.801 170.771 247.706 170.723L247.703 170.721C247.034 170.382 246.528 170.128 246.176 169.895C245.659 169.553 245.401 169.213 245.202 168.96L244.95 168.639L244.843 168.244C244.444 166.763 244.943 165.618 245.522 164.756L245.52 164.756C245.585 164.656 245.585 164.656 245.652 164.555L245.656 164.548L245.661 164.541C246.91 162.676 248.396 161.152 250.217 159.777C250.315 159.701 250.413 159.626 250.513 159.548L250.526 159.538L250.539 159.528C253.135 157.591 256.148 156.529 259.37 156.09C259.465 156.077 259.562 156.062 259.659 156.049L259.681 156.045C261.52 155.803 263.299 155.974 264.861 156.126C264.962 156.136 265.062 156.144 265.166 156.154L265.171 156.154Z" fill="#FFF288" stroke="black" stroke-width="4"/>
<path d="M254.832 198.032C257.976 196.246 262.493 196.126 265.612 198.686L265.909 198.942L265.934 198.964L265.957 198.986C266.068 199.093 266.068 199.094 266.182 199.203L266.399 199.409L266.42 199.429L266.44 199.45C268.168 201.188 268.815 203.379 268.704 205.524L268.7 205.61L268.688 205.695C268.398 207.791 267.278 209.663 265.504 210.965L265.461 210.997L265.416 211.026C262.991 212.612 260.646 212.765 258.085 212.43L258.027 212.422C255.753 212.057 254.071 210.715 252.892 209.404L252.853 209.36L252.816 209.314C251.346 207.472 250.909 205.286 251.226 203.198L251.235 203.138L251.248 203.078C251.692 201.006 252.933 199.302 254.705 198.112L254.767 198.07L254.832 198.032Z" fill="#FFF288" stroke="black" stroke-width="4"/>
<path d="M137.441 152.602C137.584 152.631 137.727 152.661 137.874 152.691C143.501 153.883 148.539 156.616 152.719 160.546C152.804 160.626 152.89 160.707 152.978 160.789C157.073 164.667 159.738 169.505 161.275 174.908C161.443 174.867 161.611 174.827 161.784 174.785C162.012 174.73 162.24 174.676 162.468 174.621C162.578 174.595 162.688 174.568 162.801 174.541C163.157 174.456 163.514 174.375 163.872 174.297C164 174.268 164.129 174.24 164.261 174.21C167.353 173.583 170.483 173.942 173.497 174.755C173.733 174.815 173.969 174.874 174.206 174.933C174.375 174.975 174.545 175.017 174.72 175.06C174.753 174.904 174.753 174.904 174.788 174.745C176.206 168.614 180.063 163.056 184.956 159.171C185.18 158.989 185.18 158.989 185.409 158.803C187.475 157.159 189.748 155.855 192.137 154.741C192.308 154.659 192.48 154.578 192.657 154.494C196.382 152.81 200.395 152.075 204.464 152.096C204.644 152.096 204.644 152.096 204.828 152.097C208.981 152.115 212.916 152.93 216.734 154.588C216.898 154.658 216.898 154.658 217.065 154.73C220.064 156.034 222.769 157.829 225.137 160.088C225.232 160.178 225.327 160.268 225.424 160.36C229.967 164.69 233.122 170.114 234.457 176.283C234.457 176.484 234.457 176.686 234.457 176.894C234.647 176.887 234.837 176.88 235.033 176.872C238.165 176.79 238.165 176.79 239.328 177.741C240.27 178.737 240.497 179.825 240.459 181.167C240.332 182.499 239.887 183.533 238.935 184.485C238.088 185.142 237.139 185.307 236.091 185.385C235.927 185.398 235.764 185.41 235.596 185.423C235.472 185.432 235.348 185.44 235.221 185.45C235.207 185.542 235.193 185.635 235.179 185.73C234.353 191.213 232.758 196.517 229.415 201.033C229.306 201.187 229.197 201.341 229.085 201.499C227.299 203.946 224.907 206.377 222.387 208.061C222.297 208.121 222.207 208.182 222.115 208.244C215.303 212.774 206.983 214.911 198.855 213.384C197.402 213.078 195.985 212.663 194.581 212.186C194.477 212.152 194.374 212.118 194.267 212.083C186.482 209.493 180.288 203.803 176.599 196.566C174.141 191.628 172.915 185.919 173.65 180.408C173.52 180.365 173.389 180.323 173.255 180.279C172.915 180.164 172.576 180.043 172.24 179.916C169.087 178.727 166.122 178.803 163.028 180.104C162.65 180.255 162.65 180.255 162.344 180.255C162.355 180.344 162.366 180.434 162.378 180.526C162.884 185.211 162.002 189.923 160.358 194.311C160.321 194.41 160.284 194.51 160.245 194.613C157.368 202.096 151.067 207.965 143.863 211.244C140.119 212.888 136.002 213.777 131.918 213.754C131.579 213.752 131.241 213.754 130.902 213.756C128.814 213.758 126.744 213.581 124.712 213.074C124.512 213.025 124.512 213.025 124.307 212.974C119.05 211.631 114.183 209.051 110.246 205.311C110.125 205.198 110.125 205.198 110.002 205.082C108.02 203.212 106.384 201.123 105.051 198.741C104.982 198.618 104.913 198.495 104.841 198.367C102.555 194.252 101.354 190.104 100.774 185.45C100.611 185.446 100.449 185.442 100.282 185.438C98.7378 185.383 97.6546 185.281 96.5244 184.141C95.7176 183.148 95.48 181.893 95.526 180.633C95.6833 179.512 96.191 178.355 97.1069 177.658C98.4511 176.967 99.9066 176.931 101.385 176.894C101.408 176.8 101.431 176.707 101.454 176.61C101.934 174.672 102.429 172.772 103.218 170.935C103.266 170.824 103.314 170.712 103.363 170.597C106.75 162.812 113.176 157.039 121.009 153.946C122.29 153.455 123.575 153.059 124.913 152.754C125.04 152.725 125.167 152.695 125.299 152.664C129.161 151.789 133.566 151.768 137.441 152.602ZM119.26 160.241C119.167 160.291 119.073 160.342 118.977 160.394C113.296 163.479 108.946 169.047 107.056 175.193C106.923 175.648 106.797 176.103 106.675 176.56C106.638 176.696 106.602 176.833 106.564 176.973C106.058 178.99 105.905 181.011 105.911 183.081C105.911 183.194 105.911 183.306 105.911 183.422C105.917 185.42 106.105 187.324 106.579 189.269C106.607 189.386 106.635 189.503 106.664 189.623C107.491 192.997 109.151 196.191 111.315 198.894C111.42 199.03 111.525 199.166 111.632 199.305C113.121 201.195 114.84 202.869 116.816 204.242C116.904 204.304 116.992 204.366 117.084 204.43C122.517 208.191 129.682 209.571 136.177 208.435C138.541 207.971 140.767 207.264 142.941 206.228C143.092 206.156 143.092 206.156 143.246 206.083C145.721 204.892 147.86 203.253 149.816 201.339C149.916 201.247 150.015 201.156 150.117 201.061C154.312 197.114 156.964 190.778 157.169 185.069C157.232 182.523 157.217 180.008 156.691 177.505C156.666 177.383 156.641 177.262 156.614 177.136C155.583 172.405 153.09 168.343 149.816 164.824C149.723 164.722 149.629 164.621 149.533 164.516C146.813 161.668 143.24 159.752 139.58 158.407C139.428 158.351 139.275 158.295 139.119 158.237C132.675 156.058 125.149 156.936 119.26 160.241ZM186.025 164.977C185.94 165.058 185.854 165.139 185.766 165.223C185.072 165.894 184.485 166.615 183.915 167.393C183.823 167.519 183.73 167.645 183.635 167.775C179.699 173.25 177.895 180.134 178.925 186.83C179.757 191.733 181.704 196.178 184.956 199.964C185.022 200.041 185.089 200.119 185.158 200.199C189.335 205.03 195.546 208.126 201.909 208.645C208.81 209.051 215.553 207.548 220.884 202.913C221.345 202.501 221.79 202.074 222.234 201.644C222.374 201.514 222.514 201.384 222.657 201.25C227.205 196.905 229.866 190.485 230.074 184.231C230.175 178.055 228.578 172.014 224.679 167.116C224.58 166.991 224.58 166.991 224.478 166.863C222.151 163.962 219.447 161.63 216.123 159.935C216.021 159.882 215.918 159.829 215.813 159.774C205.694 154.54 193.963 157.31 186.025 164.977Z" fill="#3DCCA3"/>
</svg>
