<svg width="160" height="160" viewBox="0 0 160 160" fill="none" xmlns="http://www.w3.org/2000/svg">
<ellipse cx="79.9037" cy="79.9948" rx="63.4013" ry="63.2738" fill="#FFF1A6"/>
<path d="M79.0761 14.001C79.4616 14.0019 79.847 14.001 80.2325 14C83.0501 13.9983 85.817 14.1678 88.6086 14.5477C88.7413 14.5655 88.874 14.5833 89.0108 14.6016C101.218 16.244 112.713 21.2865 122.198 29.1058C122.355 29.2345 122.511 29.3632 122.672 29.4958C124.063 30.6537 125.365 31.8838 126.644 33.162C126.967 33.4836 127.29 33.8035 127.614 34.1232C128.761 35.2606 129.833 36.4121 130.833 37.6799C131.004 37.8855 131.176 38.0904 131.349 38.2946C139.357 47.8427 144.176 59.9935 145.544 72.294C145.558 72.4165 145.573 72.539 145.588 72.6652C147.348 87.7014 143.606 103.574 131.8 120.909C129.999 123.163 128.04 125.253 125.996 127.291C125.862 127.425 125.727 127.56 125.589 127.698C124.804 128.475 124.003 129.22 123.158 129.931C123.005 130.06 123.005 130.06 122.85 130.192C119.266 133.209 115.389 135.702 111.325 138.029C111.222 138.089 111.118 138.149 111.012 138.21C106.063 141.066 100.382 142.895 94.8548 144.221C94.6064 144.281 94.6064 144.281 94.3531 144.342C86.8985 146.099 78.5993 146.509 71.0293 145.333C70.8231 145.301 70.6168 145.27 70.4042 145.237C57.0176 143.151 44.843 137.104 34.8914 128.026C34.7977 127.941 34.704 127.856 34.6074 127.768C32.434 125.793 32.434 125.793 31.659 124.866C31.3517 124.507 31.0286 124.165 30.7032 123.823C21.856 114.484 16.146 101.602 14.6381 88.9443C14.5999 88.624 14.5597 88.3039 14.5182 87.9839C13.8642 82.8664 13.8253 77.5782 14.4239 72.4528C14.4393 72.3073 14.4548 72.1618 14.4707 72.0119C15.884 58.7518 21.8528 45.6964 30.965 35.9017C31.2747 35.5646 31.5754 35.2239 31.8745 34.8777C32.5462 34.1134 33.2614 33.3941 33.9837 32.677C34.2101 32.4518 34.4352 32.2254 34.6603 31.9989C35.647 31.017 36.679 30.13 37.7696 29.2646C37.9458 29.1161 38.1211 28.9667 38.2949 28.8156C49.3006 19.2858 64.5411 13.9632 79.0761 14.001ZM71.9887 19.1027C71.7369 19.1371 71.7369 19.1371 71.48 19.1722C70.3642 19.3306 69.2573 19.5231 68.1511 19.7378C67.994 19.7678 67.837 19.7977 67.6751 19.8286C63.0317 20.7378 58.5044 22.3164 54.2396 24.3424C54.1196 24.3988 53.9996 24.4552 53.876 24.5133C53.1353 24.8634 52.4065 25.2325 51.6811 25.6127C51.5013 25.7058 51.5013 25.7058 51.3178 25.8007C47.1899 27.9475 43.3236 30.6285 39.8484 33.7104C39.7098 33.8322 39.5713 33.954 39.4286 34.0795C39.033 34.4301 38.641 34.7844 38.2493 35.1395C38.0832 35.2877 37.9171 35.436 37.7509 35.5842C36.7222 36.5074 35.7516 37.4602 34.8283 38.4875C34.5625 38.7827 34.2934 39.075 34.02 39.3633C32.9228 40.5247 31.9551 41.7673 30.9987 43.0441C30.7467 43.3791 30.4911 43.7111 30.2349 44.0429C24.3021 51.8372 20.5629 61.5476 19.221 71.1825C19.1968 71.3509 19.1727 71.5193 19.1478 71.6928C17.5776 83.0929 19.4991 94.6898 24.1779 105.161C24.2348 105.29 24.2917 105.419 24.3502 105.551C25.5645 108.285 27.0907 110.86 28.7968 113.318C29.0694 113.714 29.3308 114.117 29.5946 114.52C30.9549 116.54 32.4699 118.428 34.0919 120.246C34.2149 120.384 34.338 120.522 34.4648 120.664C34.8177 121.056 35.174 121.445 35.531 121.833C35.6784 121.996 35.8259 122.16 35.9732 122.323C37.4813 123.982 39.0963 125.485 40.8528 126.883C41.3014 127.243 41.7386 127.614 42.1769 127.986C44.4484 129.862 46.9044 131.453 49.4425 132.948C49.5602 133.018 49.678 133.087 49.7992 133.159C56.1417 136.883 63.2737 139.276 70.5296 140.45C70.6774 140.474 70.8252 140.498 70.9774 140.523C73.8154 140.956 76.6251 141.105 79.4942 141.095C79.7512 141.095 79.7512 141.095 80.0133 141.095C82.7525 141.088 85.4262 140.97 88.1389 140.569C88.3838 140.535 88.3838 140.535 88.6337 140.5C98.5851 139.08 107.859 135.337 115.962 129.455C116.095 129.359 116.095 129.359 116.231 129.262C117.527 128.328 118.748 127.318 119.959 126.279C120.074 126.181 120.189 126.084 120.307 125.983C122.22 124.339 124.075 122.637 125.716 120.722C125.84 120.581 125.964 120.44 126.092 120.295C128.406 117.652 130.393 114.789 132.272 111.83C132.356 111.699 132.44 111.569 132.527 111.434C137.03 104.418 139.613 96.3782 140.747 88.172C140.771 88.0082 140.795 87.8443 140.82 87.6756C141.602 82.2435 141.574 76.4482 140.747 71.0237C140.731 70.9214 140.716 70.819 140.7 70.7136C138.563 56.7616 131.608 43.0306 120.599 33.8692C120.458 33.747 120.318 33.6248 120.172 33.4989C117.902 31.5379 115.467 29.7504 112.924 28.1531C112.747 28.0422 112.571 27.9313 112.389 27.817C109.147 25.819 105.759 24.1425 102.21 22.7546C102.065 22.697 101.921 22.6394 101.771 22.58C94.9529 19.8884 87.4745 18.5925 80.1538 18.5866C80.014 18.5865 79.8742 18.5863 79.7302 18.5862C77.1232 18.5882 74.5738 18.7492 71.9887 19.1027Z" fill="black"/>
<path d="M69.2703 48.6953C71.4311 50.5844 73.1098 53.5356 73.4277 56.416C73.7757 62.0748 71.5582 66.8558 67.8511 71.0814C67.4768 71.4911 67.0955 71.8929 66.7118 72.294C66.5409 72.4916 66.371 72.69 66.2022 72.8894C65.5392 73.6498 64.8111 74.3482 64.0883 75.052C63.6028 75.5275 63.1339 76.0075 62.6912 76.5228C62.0147 77.2946 61.2958 78.0211 60.5706 78.7475C60.4293 78.8891 60.288 79.0306 60.1425 79.1765C59.8455 79.4736 59.5482 79.7705 59.2507 80.0672C58.8714 80.4456 58.494 80.8258 58.117 81.2064C57.7536 81.5724 57.388 81.9361 57.0228 82.3002C56.8886 82.4362 56.7545 82.5721 56.6163 82.7122C55.75 83.5693 55.0948 84.1002 53.8597 84.2819C52.6492 84.1161 51.7083 83.3241 50.7353 82.6345C49.7217 81.9414 48.6697 81.3057 47.6273 80.6564C46.7595 80.1142 45.8952 79.5666 45.031 79.0188C44.2853 78.5464 43.5383 78.0765 42.7877 77.6119C40.0712 75.9249 37.4217 74.1263 35.0512 71.9764C34.9591 71.893 34.867 71.8096 34.7721 71.7237C31.9478 69.1296 29.7235 65.8043 29.5395 61.8815C29.5341 61.5284 29.5325 61.1752 29.5345 60.8221C29.5355 60.6355 29.5364 60.4489 29.5373 60.2567C29.6004 57.1832 30.7523 54.5902 32.8125 52.2877C32.9028 52.1868 32.9931 52.0859 33.0861 51.9819C34.9738 49.9975 37.6568 48.7151 40.4017 48.5979C44.1234 48.5137 47.1276 49.4973 49.9221 51.9701C50.1874 52.1833 50.4536 52.3954 50.7216 52.6052C50.8241 52.4577 50.9265 52.3101 51.032 52.1581C53.1448 49.144 56.0089 46.8306 59.743 46.1647C63.2012 45.7453 66.5063 46.5623 69.2703 48.6953Z" fill="#FF6060"/>
<path d="M105.728 48.4768C106.885 49.3668 107.826 50.3684 108.651 51.5718C108.937 51.9862 109.246 52.375 109.566 52.7639C109.644 52.6773 109.721 52.5907 109.802 52.5015C111.842 50.3464 114.777 48.6919 117.799 48.5879C121.152 48.5539 123.806 49.2432 126.355 51.4937C126.514 51.629 126.514 51.629 126.676 51.7672C128.751 53.6667 130.2 56.619 130.383 59.4145C130.396 59.8973 130.397 60.3787 130.393 60.8617C130.394 61.023 130.395 61.1842 130.397 61.3504C130.386 65.3772 128.33 68.6564 125.606 71.4999C123.193 73.8208 120.246 75.6967 117.42 77.4778C116.842 77.8436 116.267 78.2149 115.692 78.5855C115.463 78.7323 115.235 78.8791 115.006 79.0259C114.614 79.2778 114.221 79.53 113.829 79.7825C112.948 80.3485 112.062 80.9073 111.171 81.4584C111.001 81.5638 110.83 81.6691 110.655 81.7777C110.315 81.9874 109.975 82.1967 109.636 82.4057C108.961 82.8223 108.293 83.2361 107.656 83.708C107.218 84.0088 106.977 84.1587 106.458 84.2123C106.349 84.2272 106.24 84.2421 106.128 84.2575C104.993 84.101 104.156 83.3684 103.382 82.5824C103.284 82.4853 103.185 82.3881 103.084 82.288C102.763 81.9691 102.444 81.6481 102.125 81.3269C101.9 81.1029 101.675 80.879 101.45 80.6553C100.979 80.187 100.51 79.7176 100.041 79.2474C99.4435 78.6475 98.8439 78.0492 98.2436 77.4516C97.6678 76.8782 97.0928 76.3041 96.518 75.7299C96.4096 75.6218 96.3012 75.5136 96.1895 75.4021C95.1256 74.3393 94.0705 73.2803 93.0957 72.1351C92.8729 71.8965 92.6498 71.6582 92.4261 71.4205C90.7843 69.6042 89.4067 67.644 88.2986 65.4663C88.246 65.364 88.1935 65.2618 88.1393 65.1564C86.4819 61.8689 85.9495 58.0705 87.0194 54.5105C87.578 52.9103 88.3374 51.5402 89.4179 50.2234C89.4946 50.1215 89.5713 50.0196 89.6503 49.9145C93.5228 44.9862 100.949 45.219 105.728 48.4768Z" fill="#FF6060"/>
<path d="M105.728 48.4768C106.885 49.3668 107.826 50.3684 108.651 51.5718C108.937 51.9862 109.246 52.375 109.566 52.7639C109.644 52.6773 109.721 52.5907 109.802 52.5015C111.842 50.3464 114.777 48.6919 117.799 48.5879C121.152 48.5539 123.806 49.2432 126.355 51.4937C126.514 51.629 126.514 51.629 126.676 51.7672C128.751 53.6667 130.2 56.619 130.383 59.4145C130.396 59.8973 130.397 60.3787 130.393 60.8617C130.394 61.023 130.395 61.1842 130.397 61.3504C130.386 65.3772 128.33 68.6564 125.606 71.4999C123.193 73.8208 120.246 75.6967 117.42 77.4778C116.842 77.8436 116.267 78.2149 115.692 78.5855C115.463 78.7323 115.235 78.8791 115.006 79.0259C114.614 79.2778 114.221 79.53 113.829 79.7825C112.948 80.3485 112.062 80.9073 111.171 81.4584C111.001 81.5638 110.83 81.6691 110.655 81.7777C110.315 81.9874 109.975 82.1967 109.636 82.4057C108.961 82.8223 108.293 83.2361 107.656 83.708C107.218 84.0088 106.977 84.1587 106.458 84.2123C106.349 84.2272 106.24 84.2421 106.128 84.2575C104.993 84.101 104.156 83.3684 103.382 82.5824C103.284 82.4853 103.185 82.3881 103.084 82.288C102.763 81.9691 102.444 81.6481 102.125 81.3269C101.9 81.1029 101.675 80.879 101.45 80.6553C100.979 80.187 100.51 79.7176 100.041 79.2474C99.4435 78.6475 98.8439 78.0492 98.2436 77.4516C97.6678 76.8782 97.0928 76.3041 96.518 75.7299C96.4096 75.6218 96.3012 75.5136 96.1895 75.4021C95.1256 74.3393 94.0705 73.2803 93.0957 72.1351C92.8729 71.8965 92.6498 71.6582 92.4261 71.4205C90.7843 69.6042 89.4067 67.644 88.2986 65.4663C88.246 65.364 88.1935 65.2618 88.1393 65.1564C86.4819 61.8689 85.9495 58.0705 87.0194 54.5105C87.578 52.9103 88.3374 51.5402 89.4179 50.2234C89.4946 50.1215 89.5713 50.0196 89.6503 49.9145C93.5228 44.9862 100.949 45.219 105.728 48.4768ZM93.4155 52.1288C93.3134 52.2082 93.2114 52.2876 93.1063 52.3694C91.9548 53.3779 90.9614 55.2778 90.8223 56.7941C90.5927 61.9868 92.8793 65.5586 96.2937 69.277C96.5727 69.5651 96.8552 69.8465 97.1458 70.123C97.4096 70.385 97.6492 70.6571 97.8902 70.9399C98.5967 71.7466 99.3554 72.4998 100.118 73.2538C100.361 73.4942 100.603 73.7355 100.845 73.9768C101.607 74.7335 102.377 75.4696 103.196 76.1655C103.708 76.6135 104.182 77.0991 104.659 77.5832C104.851 77.7781 105.043 77.9727 105.236 78.1668C105.361 78.2934 105.361 78.2934 105.488 78.4226C105.867 78.7742 106.1 78.9634 106.627 78.9595C107.385 78.741 107.958 78.3391 108.606 77.9008C108.892 77.7118 109.178 77.5231 109.464 77.3345C109.612 77.2364 109.76 77.1383 109.912 77.0373C110.653 76.5507 111.403 76.0799 112.154 75.6084C112.451 75.4213 112.747 75.2342 113.043 75.0471C113.186 74.9574 113.328 74.8677 113.474 74.7753C121.417 70.164 121.417 70.164 126.086 62.6777C126.53 60.3449 126.003 57.9597 124.666 56.009C123.502 54.4916 122.012 53.3421 120.119 52.9227C118.48 52.8243 116.971 52.7838 115.482 53.5578C115.269 53.668 115.269 53.668 115.052 53.7805C113.218 54.8383 111.828 56.2929 110.878 58.1643C110.469 58.9296 110.071 59.1782 109.246 59.4327C108.516 59.5492 107.818 59.4761 107.167 59.1151C106.825 58.6058 106.805 58.4063 106.747 57.8151C106.426 55.7742 105.298 54.0128 103.809 52.6051C103.704 52.5011 103.598 52.3972 103.49 52.29C101.77 50.6821 99.8083 50.2839 97.5211 50.3332C95.8863 50.4113 94.6701 51.1287 93.4155 52.1288Z" fill="black"/>
<path d="M69.2703 48.6953C71.4311 50.5844 73.1098 53.5356 73.4278 56.416C73.7757 62.0748 71.5582 66.8558 67.8512 71.0814C67.4768 71.4911 67.0955 71.8929 66.7118 72.294C66.5409 72.4916 66.371 72.69 66.2022 72.8894C65.5392 73.6498 64.8111 74.3482 64.0883 75.052C63.6028 75.5275 63.1339 76.0075 62.6912 76.5228C62.0147 77.2946 61.2958 78.0211 60.5706 78.7475C60.4293 78.8891 60.288 79.0306 60.1425 79.1765C59.8455 79.4736 59.5482 79.7705 59.2507 80.0672C58.8714 80.4456 58.494 80.8258 58.117 81.2064C57.7537 81.5724 57.388 81.9361 57.0228 82.3002C56.8886 82.4362 56.7545 82.5721 56.6164 82.7122C55.75 83.5693 55.0948 84.1002 53.8597 84.2819C52.6492 84.1161 51.7083 83.3241 50.7354 82.6345C49.7217 81.9414 48.6697 81.3057 47.6273 80.6564C46.7595 80.1142 45.8952 79.5666 45.031 79.0188C44.2853 78.5464 43.5383 78.0765 42.7877 77.6119C40.0712 75.9249 37.4217 74.1263 35.0512 71.9764C34.9591 71.893 34.867 71.8096 34.7721 71.7237C31.9478 69.1295 29.7235 65.8043 29.5395 61.8815C29.5341 61.5284 29.5325 61.1752 29.5345 60.8221C29.5355 60.6355 29.5364 60.4489 29.5373 60.2567C29.6004 57.1832 30.7523 54.5902 32.8125 52.2877C32.9028 52.1868 32.9931 52.0859 33.0861 51.9819C34.9738 49.9975 37.6568 48.7151 40.4017 48.5979C44.1234 48.5137 47.1276 49.4973 49.9221 51.9701C50.1874 52.1833 50.4536 52.3954 50.7216 52.6052C50.8241 52.4577 50.9265 52.3101 51.032 52.1581C53.1448 49.144 56.0089 46.8306 59.743 46.1647C63.2012 45.7453 66.5063 46.5623 69.2703 48.6953ZM55.3582 53.4351C54.2248 54.8109 53.4609 56.3578 53.335 58.139C53.2735 58.5205 53.1615 58.7855 52.9602 59.1152C52.2612 59.5491 51.3601 59.548 50.5617 59.4328C49.8215 59.1102 49.5963 58.7295 49.2625 58.0137C48.0093 55.5845 45.8972 53.9154 43.3405 52.9513C41.4175 52.3946 39.468 52.873 37.7495 53.806C35.7764 55.0835 34.403 56.8423 33.8619 59.1351C33.8245 59.3921 33.7946 59.6504 33.772 59.9091C33.759 60.0516 33.746 60.194 33.7326 60.3408C33.6139 62.9972 34.6268 65.5068 36.4103 67.4611C39.5822 70.7632 43.8508 73.0863 47.7101 75.5026C48.4934 75.9945 49.274 76.4906 50.0546 76.9868C50.3144 77.1519 50.5743 77.3168 50.8342 77.4818C50.9933 77.5828 51.1524 77.6839 51.3162 77.788C51.4649 77.882 51.6135 77.976 51.7666 78.0728C52.0871 78.28 52.3961 78.4954 52.7054 78.7184C53.1869 79.0021 53.3697 79.0405 53.9197 78.9627C54.3471 78.6715 54.3471 78.6715 54.7754 78.2408C54.8624 78.1582 54.9494 78.0756 55.0391 77.9905C55.3615 77.6821 55.6801 77.37 55.9984 77.0574C56.1315 76.9272 56.2647 76.7971 56.4019 76.663C57.4349 75.652 58.4611 74.6343 59.4856 73.6148C59.8209 73.2815 60.1567 72.9487 60.4926 72.616C60.8199 72.2915 61.1469 71.9667 61.4737 71.6417C61.7019 71.415 61.9304 71.1885 62.1589 70.9621C65.8693 67.2646 69.1567 63.1783 69.1607 57.749C69.1298 55.5542 68.3243 53.8152 66.8618 52.1686C65.4177 50.8253 63.3349 50.1334 61.3814 50.1845C58.8982 50.4122 57.0001 51.6235 55.3582 53.4351Z" fill="black"/>
<path d="M123.117 73.9487C125.151 74.466 127.076 76.0075 128.275 77.6924C129.844 80.3866 130.541 83.1741 129.924 86.2982C129.167 89.0846 127.501 91.6137 124.989 93.1313C123.786 93.817 122.613 94.2829 121.239 94.5231C121.092 94.5518 120.946 94.5804 120.795 94.61C117.875 95.0176 115.124 94.4697 112.665 92.8119C110.398 91.0971 108.777 88.895 108.371 86.0513C108.299 85.4733 108.299 85.4733 108.136 84.9269C108.017 84.2483 107.963 83.7077 108.287 83.091C109.22 82.1942 110.449 81.6231 111.58 81.011C112.431 80.5395 113.246 80.0154 114.063 79.4886C114.225 79.386 114.386 79.2834 114.552 79.1777C115.94 78.2924 117.317 77.3893 118.691 76.4817C118.793 76.4141 118.896 76.3466 119.001 76.2769C120.503 75.288 120.503 75.288 121.938 74.2082C122.314 73.9659 122.674 73.9108 123.117 73.9487Z" fill="#F4A99C"/>
<path d="M37.6096 73.8815C38.0175 74.1396 38.0175 74.1396 38.4591 74.5167C39.454 75.3265 40.5111 76.0166 41.5972 76.6999C41.7698 76.8085 41.9424 76.9172 42.1203 77.0291C42.4712 77.2494 42.8224 77.4694 43.1738 77.6892C43.8062 78.0851 44.4365 78.4842 45.0668 78.8835C46.1915 79.596 47.318 80.3052 48.4485 81.0085C48.8279 81.2456 49.2055 81.4854 49.5829 81.7256C49.9794 81.9774 50.3732 82.2101 50.7859 82.4364C51.7685 83.0043 51.7685 83.0043 51.9577 83.6453C52.0908 86.2808 50.9665 89.2951 49.2581 91.2686C47.6097 93.0062 45.1279 94.5467 42.6518 94.7073C39.1601 94.7602 36.3099 94.3655 33.612 91.9825C33.516 91.9 33.4199 91.8175 33.321 91.7325C31.5183 90.0749 30.2066 87.5275 30.0723 85.072C29.9418 81.373 29.9418 81.373 30.7338 79.7564C30.7936 79.6195 30.8534 79.4825 30.9149 79.3415C32.0279 76.9299 34.003 75.2047 36.3329 73.9814C36.7892 73.8378 37.1329 73.8284 37.6096 73.8815Z" fill="#F4A99C"/>
<path d="M60.9717 86.2435C61.7726 86.724 62.0561 87.5027 62.3639 88.3405C63.8813 92.2562 66.8013 95.0463 70.6389 96.7658C76.7259 99.2251 83.0656 99.2687 89.1774 96.8315C91.1726 95.9889 92.8088 94.7356 94.3744 93.2528C94.4723 93.1675 94.5702 93.0821 94.6711 92.9942C96.1138 91.6862 96.9999 89.9282 97.6711 88.1359C97.9925 87.2906 98.3465 86.6565 99.1215 86.1375C100.027 85.8153 100.774 85.8547 101.69 86.1276C102.291 86.4719 102.737 86.7367 103.009 87.3779C103.416 89.9078 102.152 92.3153 100.771 94.3643C100.23 95.0939 99.6298 95.7637 99.0116 96.4284C98.9124 96.5398 98.8133 96.6511 98.7111 96.7658C94.8644 100.868 88.628 103.551 83.0213 103.891C82.0752 103.921 81.1297 103.93 80.1831 103.931C80.051 103.931 79.919 103.931 79.783 103.931C77.7387 103.928 75.7502 103.856 73.747 103.415C73.626 103.388 73.5051 103.362 73.3804 103.335C69.4775 102.445 65.6213 100.575 62.5538 98.0162C62.3955 97.8848 62.2372 97.7534 62.0741 97.618C59.5132 95.4248 57.2894 92.3911 56.7268 89.0191C56.6806 88.1592 56.9211 87.4352 57.437 86.7428C58.5861 85.8346 59.6174 85.7752 60.9717 86.2435Z" fill="black"/>
<path d="M22.0988 59.7501C22.3843 60.6003 21.9025 61.4663 21.6191 62.2905C21.5136 62.2381 21.4081 62.1857 21.2993 62.1318C21.3717 61.8537 21.4452 61.5759 21.5192 61.2982C21.56 61.1434 21.6008 60.9887 21.6429 60.8293C21.7624 60.4394 21.9023 60.1063 22.0988 59.7501Z" fill="#F8E482"/>
<path d="M55.1989 53.7168C55.1989 54.2185 55.1378 54.4091 54.8791 54.8283C54.6417 54.9854 54.6417 54.9854 54.3994 55.1458C54.5992 54.5966 54.8272 54.1698 55.1989 53.7168Z" fill="#FF6060"/>
</svg>
