<svg width="12" height="24" viewBox="0 0 12 24" fill="none" xmlns="http://www.w3.org/2000/svg">
<path d="M11.8553 1.50239C11.855 1.90053 11.6965 2.28224 11.4148 2.56359L3.73408 10.2443C3.5016 10.4767 3.31719 10.7527 3.19137 11.0564C3.06555 11.3601 3.00079 11.6856 3.00079 12.0143C3.00079 12.3431 3.06555 12.6686 3.19137 12.9723C3.31719 13.276 3.5016 13.5519 3.73408 13.7843L11.4048 21.455C11.6783 21.7383 11.8297 22.1176 11.8263 22.5113C11.8229 22.9051 11.6649 23.2817 11.3865 23.5602C11.1081 23.8386 10.7314 23.9965 10.3377 23.9999C9.94394 24.0034 9.56461 23.852 9.28138 23.5785L1.61067 15.9138C0.579268 14.8803 0 13.4799 0 12.0198C0 10.5598 0.579268 9.15935 1.61067 8.12591L9.2914 0.44018C9.50142 0.230026 9.76906 0.0868928 10.0604 0.0288928C10.3518 -0.0291072 10.6539 0.000632707 10.9284 0.114349C11.2029 0.228066 11.4374 0.420648 11.6024 0.667728C11.7674 0.914807 11.8554 1.20528 11.8553 1.50239Z" fill="black"/>
</svg>
