<svg width="24" height="19" viewBox="0 0 24 19" fill="none" xmlns="http://www.w3.org/2000/svg">
<path d="M22.1079 2.4896C21.2116 0.896257 19.6183 0 17.8257 0H5.97509C4.18258 0 2.58919 0.896257 1.69293 2.4896C0.597505 4.48129 0 6.67218 0 8.96262C0 14.4398 2.19085 18.9211 4.97925 18.9211C6.47302 18.9211 7.66807 17.5269 8.56433 14.639C8.66391 14.2406 9.06225 13.9419 9.56017 13.9419H14.4398C14.8382 13.9419 15.2365 14.2406 15.4357 14.639C16.3319 17.5269 17.5269 18.9211 19.0208 18.9211C21.8092 18.9211 24 14.4398 24 8.96262C23.8008 6.67214 23.2033 4.48129 22.1079 2.4896ZM8.96267 7.96678H7.96683V8.96262C7.96683 9.56012 7.56849 9.95846 6.97098 9.95846C6.37348 9.95846 5.97514 9.56012 5.97514 8.96262V7.96678H4.9793C4.3818 7.96678 3.98346 7.56844 3.98346 6.97094C3.98346 6.37343 4.3818 5.9751 4.9793 5.9751H5.97514V4.97925C5.97514 4.38175 6.37348 3.98341 6.97098 3.98341C7.56849 3.98341 7.96683 4.38175 7.96683 4.97925V5.9751H8.96267C9.56017 5.9751 9.95851 6.37343 9.95851 6.97094C9.95851 7.56844 9.56017 7.96678 8.96267 7.96678ZM15.5353 9.95846C14.7386 9.95846 14.0415 9.26137 14.0415 8.4647C14.0415 7.66803 14.7386 6.97094 15.5353 6.97094C16.3319 6.97094 17.029 7.66803 17.029 8.4647C17.029 9.26137 16.2324 9.95846 15.5353 9.95846ZM18.4233 6.97094C17.7262 6.97094 16.9295 6.27385 16.9295 5.47717C16.9295 4.6805 17.7262 3.98341 18.4233 3.98341C19.1203 3.98341 19.917 4.6805 19.917 5.47717C19.917 6.27385 19.2199 6.97094 18.4233 6.97094Z" fill="#3DCCA3"/>
</svg>
