<svg width="350" height="350" viewBox="0 0 350 350" fill="none" xmlns="http://www.w3.org/2000/svg">
<path d="M119.517 97.9229C119.732 98.0292 119.947 98.1354 120.168 98.2449C123.653 99.979 126.959 102.008 130.271 104.046C131.287 104.672 132.306 105.293 133.327 105.91C133.592 106.071 133.858 106.232 134.132 106.398C134.625 106.696 135.118 106.994 135.611 107.292C135.834 107.427 136.056 107.563 136.286 107.702C136.499 107.831 136.711 107.96 136.931 108.093C137.749 108.611 138.532 109.176 139.31 109.753C140.266 110.229 141.101 110.12 142.112 109.85C142.346 109.764 142.581 109.679 142.822 109.59C143.091 109.495 143.36 109.4 143.637 109.301C143.926 109.198 144.215 109.094 144.513 108.988C154.054 105.697 164.031 104.247 174.099 104.301C174.371 104.302 174.643 104.303 174.923 104.303C185.672 104.344 196.013 106.073 206.266 109.33C206.511 109.406 206.756 109.482 207.008 109.56C207.647 109.777 207.647 109.777 208.471 110.18C209.693 110.369 210.451 109.615 211.416 108.923C211.877 108.609 212.338 108.295 212.8 107.983C213.049 107.814 213.297 107.645 213.553 107.471C214.968 106.529 216.42 105.647 217.874 104.768C218.027 104.676 218.179 104.583 218.336 104.488C222.658 101.874 227.038 99.3346 231.596 97.1505C232.195 96.8598 232.788 96.5595 233.382 96.259C237.609 94.1491 242.113 92.2191 246.897 92.1893C247.107 92.184 247.318 92.1786 247.535 92.1732C249.603 92.16 251.29 92.668 252.832 94.0978C256.839 98.5588 257.311 105.649 257.897 111.323C257.925 111.594 257.925 111.594 257.954 111.871C258.765 120.12 257.989 128.557 257.14 136.77C257.108 137.086 257.108 137.086 257.076 137.409C256.682 141.281 256.682 141.281 256.279 143.021C255.464 146.561 256.533 148.836 258.068 152.059C261.847 160.318 262.706 169.376 262.536 178.323C262.814 178.322 262.814 178.322 263.098 178.321C268.31 178.312 268.31 178.312 269.413 179.208C270.304 180.197 270.358 180.812 270.337 182.105C270.225 183.055 269.88 183.556 269.236 184.249C267.051 185.587 264.451 185.022 262.02 184.765C261.993 184.98 261.993 184.98 261.966 185.2C261.58 188.22 261.099 191.125 260.216 194.042C260.533 194.107 260.85 194.173 261.177 194.24C261.597 194.329 262.018 194.419 262.439 194.509C262.647 194.551 262.855 194.594 263.07 194.638C264.57 194.961 265.845 195.348 267.013 196.393C267.598 197.429 267.669 198.29 267.432 199.453C266.989 200.309 266.376 200.851 265.563 201.37C263.732 201.744 261.825 201.112 260.071 200.597C259.861 200.536 259.65 200.476 259.433 200.414C258.92 200.267 258.409 200.118 257.897 199.969C257.853 200.112 257.81 200.255 257.765 200.402C257.318 201.808 256.775 203.098 256.077 204.398C255.976 204.586 255.875 204.774 255.772 204.968C254.143 207.939 252.14 210.533 249.783 212.966C249.514 213.243 249.248 213.523 248.983 213.803C243.913 219.171 236.941 224.105 229.809 226.253C230.122 226.492 230.122 226.492 230.442 226.735C233.239 228.871 235.945 231.066 238.516 233.471C239.046 233.967 239.58 234.457 240.122 234.939C241.333 236.019 242.479 237.097 243.522 238.341C243.853 238.729 244.196 239.105 244.546 239.475C247.514 242.604 249.954 246.155 251.97 249.961C252.091 250.178 252.211 250.396 252.336 250.62C254.515 254.703 255.581 259.363 254.299 263.897C253.095 267.28 251.011 269.449 247.847 271.091C242.13 273.429 236.443 273.469 230.729 271.087C230.335 270.919 229.943 270.748 229.551 270.576C229.598 270.759 229.645 270.941 229.694 271.129C230.334 273.741 230.717 276.37 231.081 279.032C231.131 279.392 231.131 279.392 231.182 279.759C236.111 315.563 236.111 315.563 230.848 322.528C227.604 326.044 222.619 327.701 217.955 328.041C216.505 328.091 215.057 328.104 213.606 328.106C213.305 328.106 213.305 328.106 212.998 328.106C207.439 328.102 201.082 327.682 196.793 323.679C194.578 321.238 193.645 318.345 192.911 315.205C192.868 315.025 192.824 314.845 192.78 314.66C192.509 313.427 192.386 312.214 192.301 310.954C192.279 310.631 192.257 310.308 192.235 309.974C192.219 309.729 192.202 309.483 192.186 309.23C192.02 309.245 191.855 309.26 191.685 309.276C186.498 309.738 181.343 309.826 176.139 309.812C175.031 309.809 173.923 309.811 172.815 309.814C167.566 309.826 162.371 309.692 157.14 309.23C157.124 309.457 157.107 309.684 157.091 309.917C157.058 310.367 157.058 310.367 157.024 310.825C156.992 311.269 156.992 311.269 156.959 311.722C156.859 312.844 156.672 313.928 156.431 315.028C156.386 315.236 156.341 315.444 156.294 315.658C155.421 319.499 153.951 322.593 150.698 324.949C146.352 327.588 141.455 328.091 136.492 328.103C135.889 328.106 135.286 328.114 134.682 328.122C128.953 328.162 123.394 327.064 119.066 323.064C115.724 319.525 115.786 315.47 115.829 310.889C115.83 310.613 115.832 310.338 115.833 310.055C115.886 299.98 116.806 290 118.116 280.014C118.141 279.817 118.167 279.62 118.194 279.417C118.572 276.545 119.026 273.689 119.517 270.834C119.196 270.939 118.876 271.045 118.546 271.154C112.506 273.122 106.995 273.762 101.108 270.93C98.0722 269.368 96.0521 267.039 94.8289 263.851C93.4181 258.836 95.2776 253.518 97.6689 249.128C99.6738 245.589 102.068 242.441 104.819 239.452C105.291 238.937 105.745 238.413 106.197 237.881C108.068 235.737 110.131 233.759 112.302 231.922C112.572 231.687 112.842 231.452 113.112 231.217C115.105 229.484 117.147 227.839 119.259 226.253C119.111 226.187 118.964 226.121 118.811 226.053C118.327 225.834 117.843 225.614 117.36 225.391C116.687 225.085 116.014 224.785 115.336 224.49C110.684 222.419 106.544 219.607 102.767 216.203C102.551 216.018 102.335 215.833 102.113 215.642C100.834 214.542 99.712 213.384 98.6439 212.08C98.435 211.832 98.226 211.584 98.0108 211.329C95.2362 207.972 93.0003 204.174 91.1709 200.226C89.8084 200.335 88.6125 200.624 87.3055 201.032C85.8593 201.455 84.8926 201.68 83.4401 201.257C82.4249 200.639 81.938 200.09 81.6363 198.938C81.5086 197.938 81.5933 197.476 82.0551 196.57C83.2937 195.104 84.9572 194.857 86.7579 194.509C86.9845 194.463 87.211 194.417 87.4444 194.37C87.999 194.259 88.554 194.149 89.1093 194.042C89.073 193.88 89.0367 193.718 88.9992 193.551C88.3473 190.632 87.7036 187.731 87.3055 184.765C87.0249 184.775 87.0249 184.775 86.7387 184.785C85.8862 184.812 85.0338 184.829 84.181 184.845C83.8867 184.856 83.5924 184.867 83.2891 184.878C80.84 184.914 80.84 184.914 79.8989 184.148C79.1301 183.261 79.0196 182.853 79.0111 181.705C79.0056 181.371 79.0056 181.371 79 181.03C79.0873 180.08 79.3571 179.543 80.074 178.918C81.7239 178.211 83.5693 178.311 85.3396 178.318C85.7494 178.319 85.7494 178.319 86.1675 178.32C86.373 178.321 86.5784 178.322 86.7901 178.323C86.7861 178.11 86.782 177.898 86.7779 177.679C86.6236 168.316 87.942 159.172 91.8272 150.547C91.9352 150.307 92.0432 150.067 92.1545 149.82C92.3608 149.372 92.5731 148.927 92.7928 148.485C93.5675 146.827 93.537 145.577 93.2324 143.792C93.1977 143.572 93.1629 143.353 93.1272 143.127C93.0523 142.668 92.975 142.209 92.8954 141.751C91.0163 130.751 90.2657 119.07 91.6863 107.973C91.7125 107.757 91.7387 107.542 91.7658 107.32C92.3555 102.622 93.3387 96.8058 97.0978 93.5422C103.837 89.2775 113.428 94.8914 119.517 97.9229Z" fill="#FBE9CC"/>
<path d="M119.517 97.9229C119.732 98.0292 119.947 98.1354 120.168 98.2449C123.653 99.979 126.959 102.008 130.271 104.046C131.287 104.672 132.306 105.293 133.327 105.91C133.592 106.071 133.858 106.232 134.132 106.398C134.625 106.696 135.118 106.994 135.611 107.292C135.834 107.427 136.056 107.563 136.286 107.702C136.499 107.831 136.711 107.96 136.931 108.093C137.749 108.611 138.532 109.176 139.31 109.753C140.266 110.229 141.101 110.12 142.112 109.85C142.346 109.764 142.581 109.679 142.822 109.59C143.091 109.495 143.36 109.4 143.637 109.301C143.926 109.198 144.215 109.094 144.513 108.988C154.054 105.697 164.031 104.247 174.099 104.301C174.371 104.302 174.643 104.303 174.923 104.303C185.672 104.344 196.013 106.073 206.266 109.33C206.511 109.406 206.756 109.482 207.008 109.56C207.647 109.777 207.647 109.777 208.471 110.18C209.693 110.369 210.451 109.615 211.416 108.923C211.877 108.609 212.338 108.295 212.8 107.983C213.049 107.814 213.297 107.645 213.553 107.471C214.968 106.529 216.42 105.647 217.874 104.768C218.027 104.676 218.179 104.583 218.336 104.488C222.658 101.874 227.038 99.3346 231.596 97.1505C232.195 96.8598 232.788 96.5595 233.382 96.259C237.609 94.1491 242.113 92.2191 246.897 92.1893C247.107 92.184 247.318 92.1786 247.535 92.1732C249.603 92.16 251.29 92.668 252.832 94.0978C256.839 98.5588 257.311 105.649 257.897 111.323C257.925 111.594 257.925 111.594 257.954 111.871C258.765 120.12 257.989 128.557 257.14 136.77C257.108 137.086 257.108 137.086 257.076 137.409C256.682 141.281 256.682 141.281 256.279 143.021C255.464 146.561 256.533 148.836 258.068 152.059C261.847 160.318 262.706 169.376 262.536 178.323C262.814 178.322 262.814 178.322 263.098 178.321C268.31 178.312 268.31 178.312 269.413 179.208C270.304 180.197 270.358 180.812 270.337 182.105C270.225 183.055 269.88 183.556 269.236 184.249C267.051 185.587 264.451 185.022 262.02 184.765C261.993 184.98 261.993 184.98 261.966 185.2C261.58 188.22 261.099 191.125 260.216 194.042C260.533 194.107 260.85 194.173 261.177 194.24C261.597 194.329 262.018 194.419 262.439 194.509C262.647 194.551 262.855 194.594 263.07 194.638C264.57 194.961 265.845 195.348 267.013 196.393C267.598 197.429 267.669 198.29 267.432 199.453C266.989 200.309 266.376 200.851 265.563 201.37C263.732 201.744 261.825 201.112 260.071 200.597C259.861 200.536 259.65 200.476 259.433 200.414C258.92 200.267 258.409 200.118 257.897 199.969C257.853 200.112 257.81 200.255 257.765 200.402C257.318 201.808 256.775 203.098 256.077 204.398C255.976 204.586 255.875 204.774 255.772 204.968C254.143 207.939 252.14 210.533 249.783 212.966C249.514 213.243 249.248 213.523 248.983 213.803C243.913 219.171 236.941 224.105 229.809 226.253C230.122 226.492 230.122 226.492 230.442 226.735C233.239 228.871 235.945 231.066 238.516 233.471C239.046 233.967 239.58 234.457 240.122 234.939C241.333 236.019 242.479 237.097 243.522 238.341C243.853 238.729 244.196 239.105 244.546 239.475C247.514 242.604 249.954 246.155 251.97 249.961C252.091 250.178 252.211 250.396 252.336 250.62C254.515 254.703 255.581 259.363 254.299 263.897C253.095 267.28 251.011 269.449 247.847 271.091C242.13 273.429 236.443 273.469 230.729 271.087C230.335 270.919 229.943 270.748 229.551 270.576C229.598 270.759 229.645 270.941 229.694 271.129C230.334 273.741 230.717 276.37 231.081 279.032C231.131 279.392 231.131 279.392 231.182 279.759C236.111 315.563 236.111 315.563 230.848 322.528C227.604 326.044 222.619 327.701 217.955 328.041C216.505 328.091 215.057 328.104 213.606 328.106C213.305 328.106 213.305 328.106 212.998 328.106C207.439 328.102 201.082 327.682 196.793 323.679C194.578 321.238 193.645 318.345 192.911 315.205C192.868 315.025 192.824 314.845 192.78 314.66C192.509 313.427 192.386 312.214 192.301 310.954C192.279 310.631 192.257 310.308 192.235 309.974C192.219 309.729 192.202 309.483 192.186 309.23C192.02 309.245 191.855 309.26 191.685 309.276C186.498 309.738 181.343 309.826 176.139 309.812C175.031 309.809 173.923 309.811 172.815 309.814C167.566 309.826 162.371 309.692 157.14 309.23C157.124 309.457 157.107 309.684 157.091 309.917C157.058 310.367 157.058 310.367 157.024 310.825C156.992 311.269 156.992 311.269 156.959 311.722C156.859 312.844 156.672 313.928 156.431 315.028C156.386 315.236 156.341 315.444 156.294 315.658C155.421 319.499 153.951 322.593 150.698 324.949C146.352 327.588 141.455 328.091 136.492 328.103C135.889 328.106 135.286 328.114 134.682 328.122C128.953 328.162 123.394 327.064 119.066 323.064C115.724 319.525 115.786 315.47 115.829 310.889C115.83 310.613 115.832 310.338 115.833 310.055C115.886 299.98 116.806 290 118.116 280.014C118.141 279.817 118.167 279.62 118.194 279.417C118.572 276.545 119.026 273.689 119.517 270.834C119.196 270.939 118.876 271.045 118.546 271.154C112.506 273.122 106.995 273.762 101.108 270.93C98.0722 269.368 96.0521 267.039 94.8289 263.851C93.4181 258.836 95.2776 253.518 97.6689 249.128C99.6738 245.589 102.068 242.441 104.819 239.452C105.291 238.937 105.745 238.413 106.197 237.881C108.068 235.737 110.131 233.759 112.302 231.922C112.572 231.687 112.842 231.452 113.112 231.217C115.105 229.484 117.147 227.839 119.259 226.253C119.111 226.187 118.964 226.121 118.811 226.053C118.327 225.834 117.843 225.614 117.36 225.391C116.687 225.085 116.014 224.785 115.336 224.49C110.684 222.419 106.544 219.607 102.767 216.203C102.551 216.018 102.335 215.833 102.113 215.642C100.834 214.542 99.712 213.384 98.6439 212.08C98.435 211.832 98.226 211.584 98.0108 211.329C95.2362 207.972 93.0003 204.174 91.1709 200.226C89.8084 200.335 88.6125 200.624 87.3055 201.032C85.8593 201.455 84.8926 201.68 83.4401 201.257C82.4249 200.639 81.938 200.09 81.6363 198.938C81.5086 197.938 81.5933 197.476 82.0551 196.57C83.2937 195.104 84.9572 194.857 86.7579 194.509C86.9845 194.463 87.211 194.417 87.4444 194.37C87.999 194.259 88.554 194.149 89.1093 194.042C89.073 193.88 89.0367 193.718 88.9992 193.551C88.3473 190.632 87.7036 187.731 87.3055 184.765C87.0249 184.775 87.0249 184.775 86.7387 184.785C85.8862 184.812 85.0338 184.829 84.181 184.845C83.8867 184.856 83.5924 184.867 83.2891 184.878C80.84 184.914 80.84 184.914 79.8989 184.148C79.1301 183.261 79.0196 182.853 79.0111 181.705C79.0056 181.371 79.0056 181.371 79 181.03C79.0873 180.08 79.3571 179.543 80.074 178.918C81.7239 178.211 83.5693 178.311 85.3396 178.318C85.7494 178.319 85.7494 178.319 86.1675 178.32C86.373 178.321 86.5784 178.322 86.7901 178.323C86.7861 178.11 86.782 177.898 86.7779 177.679C86.6236 168.316 87.942 159.172 91.8272 150.547C91.9352 150.307 92.0432 150.067 92.1545 149.82C92.3608 149.372 92.5731 148.927 92.7928 148.485C93.5675 146.827 93.537 145.577 93.2324 143.792C93.1977 143.572 93.1629 143.353 93.1272 143.127C93.0523 142.668 92.975 142.209 92.8954 141.751C91.0163 130.751 90.2657 119.07 91.6863 107.973C91.7125 107.757 91.7387 107.542 91.7658 107.32C92.3555 102.622 93.3387 96.8058 97.0978 93.5422C103.837 89.2775 113.428 94.8914 119.517 97.9229ZM101.221 99.5818C100.062 101.067 99.5701 102.537 99.1271 104.349C99.0862 104.513 99.0453 104.677 99.0032 104.846C97.9773 109.343 98.0351 113.905 98.048 118.49C98.0485 118.836 98.049 119.183 98.0494 119.529C98.0635 126.93 98.5088 134.146 99.771 141.44C100.294 144.563 100.718 147.416 99.1754 150.283C95.0553 158.689 92.7711 168.934 93.2324 178.323C93.769 178.859 94.9353 178.652 95.6805 178.677C97.4048 178.753 99.0987 178.893 100.802 179.176C101.07 179.217 101.07 179.217 101.344 179.259C102.499 179.466 103.238 179.796 104.055 180.642C104.431 181.577 104.451 182.535 104.141 183.494C103.772 184.215 103.423 184.691 102.702 185.069C100.152 185.83 96.9028 185.215 94.2632 185.023C94.179 186.6 94.4897 187.963 94.8913 189.484C94.9506 189.717 95.0099 189.951 95.071 190.191C95.3583 191.373 95.3583 191.373 95.8093 192.496C96.255 192.459 96.7006 192.421 97.1461 192.383C97.3942 192.362 97.6424 192.341 97.898 192.319C98.6262 192.253 98.6262 192.253 99.26 192.103C100.14 191.942 100.987 191.936 101.881 191.932C102.216 191.928 102.552 191.925 102.897 191.921C104.17 192.005 104.17 192.005 104.829 192.496C105.301 193.209 105.432 193.821 105.457 194.67C105.472 194.956 105.472 194.956 105.488 195.249C105.268 196.159 104.834 196.655 104.055 197.134C103.058 197.47 102.045 197.666 101.011 197.859C100.735 197.914 100.458 197.97 100.172 198.027C99.4919 198.163 98.8108 198.295 98.1285 198.422C99.2125 201.957 101.183 204.891 103.54 207.699C103.713 207.906 103.713 207.906 103.89 208.117C109.904 215.182 118.339 219.339 127.074 222.015C131.053 223.241 131.053 223.241 131.886 224.707C132.049 226.013 131.893 226.749 131.113 227.799C130.488 228.144 130.488 228.144 129.744 228.411C125.021 230.259 121.003 232.967 117.332 236.463C116.806 236.959 116.273 237.432 115.726 237.903C112.717 240.524 109.798 243.41 107.405 246.611C107.174 246.912 106.943 247.213 106.712 247.514C103.834 251.304 100.49 256.04 100.963 261.041C101.255 262.695 102.13 263.656 103.4 264.711C106.102 266.582 109.423 266.841 112.593 266.286C114.524 265.894 116.352 265.307 118.164 264.536C118.333 264.465 118.502 264.394 118.676 264.321C119.88 263.776 120.978 263.124 121.522 261.864C121.69 261.311 121.827 260.759 121.956 260.196C122.033 259.886 122.033 259.886 122.111 259.569C122.22 259.128 122.326 258.687 122.431 258.246C122.594 257.559 122.762 256.874 122.932 256.189C123.155 255.291 123.377 254.393 123.597 253.495C123.964 252.004 124.353 250.521 124.767 249.043C124.85 248.734 124.85 248.734 124.934 248.419C125.341 246.985 125.886 245.787 127.087 244.839C127.918 244.483 128.412 244.421 129.309 244.549C130.091 244.97 130.671 245.337 131.21 246.047C131.728 247.861 131.12 249.623 130.654 251.385C130.5 251.983 130.346 252.582 130.193 253.18C130.111 253.493 130.03 253.806 129.947 254.128C126.375 267.944 123.963 281.853 122.867 296.087C122.852 296.284 122.836 296.48 122.82 296.682C122.474 301.15 122.299 305.619 122.261 310.101C122.257 310.567 122.251 311.032 122.244 311.498C122.119 315.22 122.119 315.22 123.774 318.444C126.658 321.355 131.64 321.616 135.491 321.648C142.08 321.716 142.08 321.716 147.698 318.767C150.284 315.596 150.539 310.87 150.9 306.949C151.053 305.485 151.211 304.427 152.244 303.303C153.52 302.409 154.577 302.462 156.061 302.594C156.256 302.608 156.45 302.621 156.651 302.635C157.415 302.691 158.176 302.758 158.937 302.847C163.908 303.426 168.937 303.363 173.935 303.367C174.315 303.367 174.695 303.368 175.075 303.368C180.95 303.377 186.775 303.228 192.621 302.601C194.239 302.466 195.436 302.377 196.824 303.303C198.354 305.173 198.475 307.303 198.725 309.616C199.353 314.973 199.353 314.973 202.123 319.473C206.086 322.468 213.103 321.968 217.745 321.374C220.721 320.938 223.795 320.362 225.879 318.007C227.148 316.28 227.279 314.494 227.268 312.396C227.267 312.198 227.267 311.999 227.266 311.794C227.24 308.821 227.072 305.852 226.91 302.884C226.893 302.567 226.875 302.25 226.858 301.923C226.079 287.739 224.285 273.64 220.829 259.846C220.785 259.671 220.741 259.497 220.696 259.317C220.256 257.563 219.811 255.811 219.356 254.062C219.227 253.565 219.099 253.068 218.971 252.571C218.814 251.959 218.654 251.347 218.492 250.736C218.106 249.235 217.82 247.904 217.955 246.353C218.514 245.435 219.028 244.949 220.016 244.549C220.579 244.51 220.579 244.51 221.16 244.565C221.351 244.579 221.542 244.593 221.739 244.607C222.627 244.905 223.018 245.384 223.624 246.095C223.94 246.783 224.133 247.489 224.325 248.22C224.382 248.426 224.44 248.633 224.499 248.845C224.684 249.511 224.863 250.179 225.041 250.847C225.167 251.304 225.294 251.761 225.42 252.218C226.142 254.849 226.831 257.487 227.32 260.173C227.599 261.585 227.989 262.354 229.036 263.361C232.967 265.873 237.733 267.088 242.339 266.163C244.779 265.532 246.478 264.545 247.832 262.393C248.802 260.336 248.365 258.384 247.69 256.316C245.7 251.072 242.321 246.849 238.57 242.745C238.35 242.498 238.13 242.251 237.903 241.996C236.25 240.149 234.505 238.454 232.643 236.818C232.514 236.703 232.384 236.588 232.251 236.469C228.516 233.156 224.502 230.145 219.727 228.54C218.912 228.254 218.457 228.046 217.778 227.493C217.31 226.492 217.142 225.528 217.44 224.449C218.337 223.325 219.129 222.94 220.5 222.565C220.869 222.458 221.237 222.35 221.606 222.241C221.805 222.183 222.005 222.124 222.21 222.064C230.443 219.598 237.419 215.876 243.724 210.019C243.899 209.861 244.074 209.703 244.254 209.54C247.363 206.612 249.951 202.492 251.197 198.422C251.017 198.39 250.836 198.358 250.65 198.325C249.827 198.175 249.006 198.017 248.185 197.859C247.901 197.808 247.617 197.757 247.324 197.705C244.625 197.175 244.625 197.175 243.724 195.846C243.505 195.05 243.562 194.332 243.724 193.526C244.186 192.787 244.493 192.369 245.27 191.98C247.99 191.751 250.599 192.252 253.259 192.753C253.794 191.381 254.242 190.027 254.595 188.598C254.641 188.424 254.687 188.249 254.734 188.07C254.994 187.032 255.111 186.091 255.062 185.023C254.807 185.041 254.551 185.06 254.287 185.079C252.518 185.202 250.748 185.307 248.975 185.345C248.695 185.351 248.415 185.358 248.127 185.365C247.188 185.265 246.586 185.003 245.786 184.507C245.207 183.536 245.013 182.899 245.013 181.769C245.327 180.707 245.688 180.288 246.559 179.611C247.696 179.154 248.727 179.006 249.947 178.933C250.116 178.922 250.286 178.911 250.46 178.9C250.996 178.867 251.531 178.836 252.067 178.806C252.432 178.783 252.798 178.761 253.163 178.738C254.054 178.683 254.945 178.631 255.836 178.58C255.929 174.215 255.866 169.995 255.062 165.696C255.021 165.471 254.98 165.246 254.937 165.015C253.913 159.66 252.221 154.363 249.842 149.454C248.622 146.823 249.211 144.32 249.642 141.542C250.812 133.88 251.264 126.204 251.278 118.458C251.279 118.203 251.28 117.949 251.281 117.687C251.289 113.211 251.186 108.646 250.086 104.285C250.037 104.068 249.989 103.852 249.939 103.629C249.512 101.868 248.88 100.243 247.332 99.2114C245.909 99.1186 244.687 99.2769 243.321 99.6945C243.136 99.7506 242.95 99.8068 242.759 99.8646C232.294 103.186 222.17 109.641 213.268 115.947C211.546 117.137 209.994 117.692 207.905 117.507C207.112 117.242 207.112 117.242 206.294 116.863C201.345 114.727 195.922 113.587 190.64 112.611C190.433 112.572 190.227 112.532 190.014 112.492C174.597 109.583 157.838 111.325 143.188 116.814C141.483 117.448 140.099 117.86 138.344 117.153C135.848 115.952 133.546 114.307 131.226 112.805C127.343 110.295 123.383 107.899 119.314 105.704C118.925 105.494 118.536 105.282 118.149 105.07C109.976 100.213 109.976 100.213 101.221 99.5818Z" fill="black"/>
<path d="M174.437 239.009C174.739 239.011 175.041 239.012 175.352 239.014C181.152 239.135 185.84 241.197 189.867 245.322C190.073 245.526 190.279 245.73 190.492 245.94C196.631 252.324 198.516 262.003 198.479 270.551C198.377 275.422 197.003 279.471 193.474 282.945C193.31 283.109 193.145 283.273 192.976 283.443C187.039 288.997 178.507 288.916 170.899 288.669C165.819 288.457 160.952 287.085 156.882 283.976C156.689 283.83 156.496 283.684 156.297 283.534C152.952 280.816 151.211 276.608 150.741 272.399C150.602 270.681 150.664 268.948 150.698 267.226C150.702 266.95 150.706 266.673 150.711 266.389C151.065 258.764 154.012 251.347 158.944 245.58C159.097 245.4 159.25 245.221 159.408 245.036C163.261 240.877 168.882 238.977 174.437 239.009Z" fill="#F2D3A3"/>
<path d="M192.036 239.825C192.255 240.024 192.475 240.222 192.701 240.426C192.918 240.622 193.135 240.818 193.359 241.019C197.403 244.862 199.975 249.872 201.72 255.115C201.815 255.39 201.91 255.665 202.007 255.948C204.122 262.643 204.736 270.434 203.009 277.276C202.967 277.444 202.926 277.611 202.883 277.784C201.546 282.934 198.042 287.228 193.498 289.939C187.632 293.221 181.441 294.086 174.824 294.09C174.498 294.091 174.498 294.091 174.165 294.091C170.846 294.087 167.605 293.991 164.355 293.253C164.165 293.21 163.975 293.167 163.778 293.123C157.753 291.698 151.988 288.356 148.663 283.036C144.531 276.161 144.577 266.754 146.41 259.118C146.464 258.903 146.519 258.687 146.575 258.465C146.628 258.246 146.682 258.027 146.738 257.802C148.267 251.786 150.963 246.373 155.078 241.715C155.314 241.446 155.314 241.446 155.555 241.172C164.855 231.259 181.947 231.154 192.036 239.825ZM158.019 246.61C153.401 252.365 150.968 259.896 150.698 267.226C150.691 267.401 150.684 267.576 150.676 267.757C150.5 272.739 151.239 277.309 154.305 281.399C154.466 281.628 154.466 281.628 154.629 281.861C157.977 286.242 163.986 287.78 169.159 288.541C170.974 288.76 172.805 288.729 174.631 288.711C174.952 288.709 174.952 288.709 175.28 288.708C182.342 288.665 188.776 287.635 193.99 282.43C194.24 282.184 194.24 282.184 194.496 281.933C198.223 278.001 198.573 272.846 198.452 267.72C198.135 259.403 195.48 251.109 189.609 245.065C189.461 244.901 189.314 244.738 189.162 244.569C185.934 241.095 181.009 239.252 176.346 239.038C168.871 238.848 163.037 240.891 158.019 246.61Z" fill="black"/>
<path d="M232.595 177.598C235.353 179.484 237.026 182.041 237.797 185.28C238.228 189.311 237.364 192.375 234.838 195.554C232.779 197.846 229.869 199.045 226.854 199.259C223.196 199.381 220.213 198.327 217.441 195.913C215.026 193.401 214.009 190.263 214.051 186.848C214.21 183.544 215.505 180.818 217.955 178.58C222.451 175.205 227.693 174.698 232.595 177.598Z" fill="#F4A99C"/>
<path d="M129.052 177.034C129.25 177.133 129.449 177.232 129.653 177.334C132.22 178.78 134.076 181.544 134.946 184.314C135.687 187.465 135.383 190.625 133.808 193.472C132.11 196.044 129.683 197.981 126.732 198.938C123.44 199.58 120.156 199.411 117.205 197.728C114.517 195.901 112.488 193.39 111.786 190.176C111.452 185.76 111.976 182.76 114.83 179.303C118.509 175.272 124.335 174.682 129.052 177.034Z" fill="#F4A99C"/>
<path d="M109.079 108.109C110.788 108.339 112.307 109.038 113.848 109.777C114.007 109.852 114.166 109.928 114.33 110.006C118.486 112.025 122.142 114.839 125.768 117.672C126.162 117.98 126.558 118.284 126.955 118.587C127.683 119.204 127.996 119.628 128.116 120.582C127.996 121.573 127.762 121.786 127.006 122.42C126.771 122.618 126.536 122.815 126.294 123.019C125.129 123.951 123.939 124.85 122.748 125.749C121.205 126.917 119.737 128.152 118.279 129.422C117.547 130.06 116.796 130.671 116.038 131.278C114.913 132.189 113.855 133.154 112.801 134.144C110.633 136.169 110.633 136.169 109.596 137.06C109.407 137.224 109.218 137.388 109.024 137.557C108.436 137.865 108.436 137.865 107.626 137.838C106.89 137.607 106.89 137.607 106.326 136.786C104.402 132.267 104.482 126.763 104.504 121.945C104.506 121.193 104.504 120.442 104.5 119.691C104.493 111.119 104.493 111.119 106.452 108.567C107.252 107.952 108.106 108.082 109.079 108.109Z" fill="#F4A99C"/>
<path d="M242.178 108.23C244.089 109.744 244.342 112.44 244.609 114.733C245.269 121.701 245.694 130.902 242.693 137.35C241.881 137.756 241.24 137.845 240.374 137.607C239.573 137.048 238.896 136.375 238.204 135.689C237.4 134.897 236.574 134.128 235.752 133.355C235.573 133.187 235.395 133.019 235.212 132.846C233.805 131.527 232.351 130.302 230.84 129.103C230.383 128.728 229.926 128.352 229.471 127.976C228.391 127.092 227.299 126.227 226.201 125.367C225.897 125.127 225.592 124.887 225.288 124.647C224.712 124.194 224.132 123.749 223.547 123.308C223.162 123.012 223.162 123.012 222.771 122.71C222.543 122.538 222.315 122.366 222.081 122.189C221.428 121.485 221.329 121.036 221.305 120.084C222.521 118.224 224.428 116.999 226.201 115.704C226.367 115.581 226.533 115.458 226.704 115.332C237.834 107.126 237.834 107.126 242.178 108.23Z" fill="#F4A99C"/>
<path d="M174.727 173.604C174.981 173.596 175.235 173.589 175.497 173.581C177.284 173.566 178.754 173.847 180.332 174.715C181.237 175.619 181.576 176.321 181.701 177.598C181.543 179.524 180.598 180.761 179.237 182.075C178.786 182.446 178.786 182.446 178.029 182.784C177.449 183.164 177.449 183.164 177.392 183.755C177.315 185.922 177.894 187.988 179.301 189.661C180.984 191.01 182.667 191.548 184.809 191.449C187.457 191.119 189.014 189.906 190.688 187.885C191.321 187.149 191.544 187.096 192.524 187.004C193.623 187.097 193.995 187.347 194.763 188.115C195.21 189.01 195.139 189.971 195.02 190.949C193.688 193.515 191.075 195.431 188.413 196.431C185.469 197.338 182.089 197.241 179.278 195.99C177.636 195.109 176.215 194.094 174.921 192.753C174.175 193.094 173.768 193.383 173.149 193.961C170.259 196.512 166.87 197.115 163.147 196.934C159.635 196.596 157.177 194.517 154.958 191.959C154.235 191.055 154.205 190.343 154.213 189.213C154.359 188.289 154.873 187.891 155.594 187.342C156.342 186.968 156.824 186.988 157.655 187.084C158.59 187.727 159.239 188.408 159.942 189.291C161.092 190.63 162.051 191.127 163.825 191.314C165.987 191.421 168.031 191.372 169.767 189.919C171.238 188.212 172.014 186.418 171.977 184.158C171.796 183.328 171.579 183.123 170.894 182.639C170.707 182.524 170.519 182.408 170.326 182.29C169.115 181.512 168.034 180.253 167.705 178.838C167.566 177.543 167.561 176.566 168.124 175.375C169.889 173.471 172.313 173.627 174.727 173.604Z" fill="black"/>
<path d="M212.308 162.6C212.939 162.906 213.51 163.241 214.09 163.634C214.44 163.85 214.44 163.85 214.798 164.069C216.586 165.906 217.26 167.84 217.263 170.359C217.215 172.722 216.418 174.383 214.809 176.084C212.962 177.822 211.067 178.218 208.596 178.179C206.681 177.949 204.973 177.078 203.653 175.665C203.428 175.356 203.213 175.039 203.009 174.715C202.903 174.561 202.798 174.407 202.689 174.248C201.51 172.167 201.595 169.221 202.187 166.957C203.043 165.041 204.587 163.63 206.436 162.683C208.267 162.035 210.45 162.007 212.308 162.6Z" fill="black"/>
<path d="M143.112 162.877C144.98 163.995 146.339 165.44 147.09 167.5C147.689 169.962 147.559 172.479 146.317 174.715C145.031 176.422 143.531 177.617 141.421 178.065C139.038 178.35 137.243 178.107 135.236 176.776C134.96 176.601 134.683 176.426 134.399 176.245C132.799 174.755 132.077 172.794 131.972 170.652C131.949 168.234 132.288 166.423 133.971 164.595C136.441 162.252 139.922 161.395 143.112 162.877Z" fill="black"/>
<path d="M161.402 153.627C163.975 155.893 165.974 159.433 166.353 162.887C166.767 169.674 164.126 175.408 159.712 180.476C159.266 180.967 158.812 181.449 158.355 181.93C158.151 182.167 157.949 182.405 157.748 182.644C156.958 183.556 156.091 184.394 155.231 185.238C154.652 185.808 154.094 186.384 153.567 187.002C152.761 187.927 151.905 188.799 151.041 189.67C150.873 189.84 150.705 190.01 150.531 190.184C150.178 190.541 149.824 190.897 149.469 191.253C149.018 191.707 148.568 192.163 148.119 192.619C147.686 193.058 147.251 193.494 146.816 193.931C146.656 194.094 146.497 194.257 146.332 194.425C145.3 195.453 144.52 196.09 143.049 196.308C141.608 196.109 140.487 195.159 139.328 194.332C138.121 193.501 136.868 192.738 135.627 191.959C134.593 191.309 133.564 190.652 132.535 189.995C131.647 189.429 130.757 188.865 129.863 188.308C126.628 186.285 123.473 184.128 120.65 181.549C120.54 181.449 120.43 181.349 120.317 181.246C116.954 178.135 114.305 174.147 114.086 169.442C114.079 169.019 114.078 168.595 114.08 168.172C114.081 167.948 114.082 167.724 114.083 167.493C114.158 163.807 115.53 160.697 117.984 157.936C118.091 157.815 118.199 157.694 118.31 157.569C120.558 155.189 123.753 153.651 127.022 153.511C131.454 153.41 135.032 154.589 138.36 157.555C138.676 157.811 138.993 158.065 139.312 158.317C139.434 158.14 139.556 157.963 139.682 157.78C142.198 154.166 145.609 151.391 150.056 150.592C154.174 150.089 158.11 151.069 161.402 153.627Z" fill="#FF6060"/>
<path d="M204.82 153.366C206.198 154.433 207.319 155.634 208.301 157.077C208.642 157.574 209.009 158.041 209.39 158.507C209.483 158.403 209.576 158.299 209.671 158.192C212.101 155.608 215.596 153.624 219.195 153.499C223.188 153.458 226.349 154.285 229.385 156.984C229.574 157.146 229.574 157.146 229.767 157.312C232.238 159.59 233.964 163.131 234.182 166.483C234.197 167.062 234.198 167.64 234.194 168.219C234.195 168.412 234.196 168.606 234.198 168.805C234.186 173.635 231.737 177.567 228.493 180.978C225.619 183.761 222.109 186.011 218.744 188.147C218.056 188.586 217.371 189.031 216.686 189.476C216.414 189.652 216.141 189.828 215.869 190.004C215.402 190.306 214.935 190.609 214.468 190.911C213.418 191.59 212.363 192.26 211.302 192.921C211.099 193.048 210.896 193.174 210.687 193.304C210.283 193.556 209.878 193.807 209.473 194.057C208.669 194.557 207.874 195.053 207.115 195.619C206.594 195.98 206.307 196.16 205.689 196.224C205.559 196.242 205.43 196.26 205.297 196.278C203.944 196.091 202.947 195.212 202.026 194.269C201.909 194.153 201.792 194.036 201.671 193.916C201.288 193.534 200.908 193.149 200.528 192.764C200.261 192.495 199.993 192.226 199.725 191.958C199.165 191.396 198.606 190.834 198.048 190.27C197.335 189.55 196.621 188.833 195.906 188.116C195.221 187.428 194.536 186.74 193.851 186.051C193.722 185.921 193.593 185.792 193.46 185.658C192.193 184.383 190.937 183.113 189.776 181.74C189.511 181.453 189.245 181.168 188.978 180.883C187.023 178.704 185.383 176.353 184.063 173.742C184 173.619 183.938 173.496 183.873 173.37C181.899 169.427 181.265 164.871 182.539 160.602C183.205 158.683 184.109 157.04 185.396 155.46C185.487 155.338 185.579 155.216 185.673 155.09C190.285 149.179 199.128 149.458 204.82 153.366Z" fill="#FF6060"/>
<path d="M204.82 153.366C206.198 154.433 207.319 155.634 208.301 157.077C208.642 157.574 209.009 158.041 209.39 158.507C209.483 158.403 209.576 158.299 209.671 158.192C212.101 155.608 215.596 153.624 219.195 153.499C223.188 153.458 226.349 154.285 229.385 156.984C229.574 157.146 229.574 157.146 229.767 157.312C232.238 159.59 233.964 163.131 234.182 166.483C234.197 167.062 234.198 167.64 234.194 168.219C234.195 168.412 234.196 168.606 234.198 168.805C234.186 173.635 231.737 177.567 228.493 180.978C225.619 183.761 222.109 186.011 218.744 188.147C218.056 188.586 217.371 189.031 216.686 189.476C216.414 189.652 216.141 189.828 215.869 190.004C215.402 190.306 214.935 190.609 214.468 190.911C213.418 191.59 212.363 192.26 211.302 192.921C211.099 193.048 210.896 193.174 210.687 193.304C210.283 193.556 209.878 193.807 209.473 194.057C208.669 194.557 207.874 195.053 207.115 195.619C206.594 195.98 206.307 196.16 205.689 196.224C205.559 196.242 205.43 196.26 205.297 196.278C203.944 196.091 202.947 195.212 202.026 194.269C201.909 194.153 201.792 194.036 201.671 193.916C201.288 193.534 200.908 193.149 200.528 192.764C200.261 192.495 199.993 192.226 199.725 191.958C199.165 191.396 198.606 190.834 198.048 190.27C197.335 189.55 196.621 188.833 195.906 188.116C195.221 187.428 194.536 186.74 193.851 186.051C193.722 185.921 193.593 185.792 193.46 185.658C192.193 184.383 190.937 183.113 189.776 181.74C189.511 181.453 189.245 181.168 188.978 180.883C187.023 178.704 185.383 176.353 184.063 173.742C184 173.619 183.938 173.496 183.873 173.37C181.899 169.427 181.265 164.871 182.539 160.602C183.205 158.683 184.109 157.04 185.396 155.46C185.487 155.338 185.579 155.216 185.673 155.09C190.285 149.179 199.128 149.458 204.82 153.366ZM190.157 157.745C190.035 157.841 189.914 157.936 189.788 158.034C188.417 159.244 187.234 161.522 187.068 163.341C186.795 169.568 189.518 173.852 193.584 178.312C193.917 178.657 194.253 178.995 194.599 179.326C194.913 179.641 195.199 179.967 195.486 180.306C196.327 181.274 197.231 182.177 198.139 183.081C198.428 183.37 198.716 183.659 199.005 183.948C199.911 184.856 200.829 185.739 201.804 186.573C202.414 187.111 202.978 187.693 203.546 188.274C203.775 188.507 204.004 188.741 204.234 188.974C204.383 189.125 204.383 189.125 204.534 189.28C204.985 189.702 205.262 189.929 205.891 189.924C206.793 189.662 207.476 189.18 208.247 188.655C208.588 188.428 208.928 188.202 209.269 187.975C209.445 187.858 209.621 187.74 209.803 187.619C210.685 187.035 211.579 186.471 212.473 185.905C212.826 185.681 213.179 185.456 213.532 185.232C213.701 185.124 213.87 185.017 214.044 184.906C223.504 179.376 223.504 179.376 229.064 170.397C229.593 167.599 228.965 164.739 227.374 162.399C225.987 160.579 224.212 159.201 221.958 158.698C220.006 158.58 218.209 158.531 216.436 159.459C216.183 159.591 216.183 159.591 215.924 159.726C213.74 160.995 212.084 162.74 210.952 164.984C210.465 165.902 209.992 166.2 209.009 166.505C208.14 166.645 207.308 166.557 206.534 166.124C206.126 165.514 206.102 165.274 206.034 164.565C205.651 162.117 204.307 160.005 202.535 158.317C202.409 158.192 202.284 158.067 202.154 157.939C200.106 156.01 197.77 155.533 195.046 155.592C193.099 155.686 191.651 156.546 190.157 157.745Z" fill="black"/>
<path d="M161.402 153.627C163.975 155.893 165.974 159.433 166.353 162.887C166.767 169.674 164.126 175.408 159.712 180.476C159.266 180.967 158.812 181.449 158.355 181.93C158.151 182.167 157.949 182.405 157.748 182.644C156.958 183.556 156.091 184.394 155.231 185.238C154.652 185.808 154.094 186.384 153.567 187.002C152.761 187.927 151.905 188.799 151.041 189.67C150.873 189.84 150.705 190.01 150.531 190.184C150.178 190.541 149.824 190.897 149.469 191.253C149.018 191.707 148.568 192.163 148.119 192.619C147.686 193.058 147.251 193.494 146.816 193.931C146.656 194.094 146.497 194.257 146.332 194.425C145.3 195.453 144.52 196.09 143.049 196.308C141.608 196.109 140.487 195.159 139.328 194.332C138.121 193.501 136.868 192.738 135.627 191.959C134.593 191.309 133.564 190.652 132.535 189.995C131.647 189.429 130.757 188.865 129.863 188.308C126.628 186.285 123.473 184.128 120.65 181.549C120.54 181.449 120.43 181.349 120.317 181.246C116.954 178.135 114.305 174.147 114.086 169.442C114.079 169.019 114.078 168.595 114.08 168.172C114.081 167.948 114.082 167.724 114.083 167.493C114.158 163.807 115.53 160.697 117.984 157.936C118.091 157.815 118.199 157.694 118.31 157.569C120.558 155.189 123.753 153.651 127.022 153.511C131.454 153.41 135.032 154.589 138.36 157.555C138.676 157.811 138.993 158.065 139.312 158.317C139.434 158.14 139.556 157.963 139.682 157.78C142.198 154.166 145.609 151.391 150.056 150.592C154.174 150.089 158.11 151.069 161.402 153.627ZM144.834 159.312C143.484 160.962 142.574 162.817 142.424 164.954C142.351 165.411 142.218 165.729 141.978 166.124C141.145 166.645 140.072 166.643 139.121 166.505C138.24 166.118 137.972 165.662 137.574 164.803C136.082 161.89 133.567 159.888 130.522 158.732C128.232 158.064 125.91 158.638 123.863 159.757C121.513 161.289 119.878 163.398 119.233 166.148C119.189 166.457 119.153 166.766 119.126 167.077C119.111 167.247 119.095 167.418 119.08 167.594C118.938 170.78 120.144 173.79 122.268 176.134C126.046 180.094 131.129 182.88 135.725 185.778C136.658 186.368 137.588 186.963 138.518 187.558C138.827 187.756 139.137 187.954 139.446 188.152C139.635 188.273 139.825 188.394 140.02 188.519C140.197 188.632 140.374 188.745 140.556 188.861C140.938 189.109 141.306 189.368 141.674 189.635C142.248 189.975 142.466 190.021 143.121 189.928C143.63 189.579 143.63 189.579 144.14 189.062C144.243 188.963 144.347 188.864 144.454 188.762C144.838 188.392 145.217 188.018 145.596 187.643C145.755 187.487 145.913 187.331 146.077 187.17C147.307 185.957 148.529 184.737 149.749 183.514C150.148 183.114 150.548 182.715 150.948 182.316C151.338 181.927 151.727 181.538 152.117 181.148C152.388 180.876 152.661 180.604 152.933 180.333C157.352 175.898 161.266 170.997 161.271 164.486C161.234 161.854 160.275 159.768 158.533 157.793C156.814 156.182 154.333 155.352 152.007 155.413C149.05 155.687 146.789 157.139 144.834 159.312Z" fill="black"/>
</svg>
