<svg width="186" height="223" viewBox="0 0 186 223" fill="none" xmlns="http://www.w3.org/2000/svg">
<path d="M38.1156 5.57187C38.3178 5.67183 38.52 5.77179 38.7283 5.87478C42.0061 7.5061 45.1168 9.4144 48.232 11.3322C49.1879 11.9207 50.1464 12.5047 51.1068 13.0859C51.3567 13.2372 51.6066 13.3886 51.8641 13.5445C52.3279 13.8251 52.7917 14.1056 53.2557 14.3858C53.4653 14.5131 53.6749 14.6404 53.8908 14.7715C54.091 14.8928 54.2911 15.0142 54.4972 15.1393C55.2674 15.6265 56.0039 16.1576 56.7353 16.7012C57.6351 17.1488 58.4203 17.0457 59.3718 16.7922C59.5921 16.7116 59.8124 16.631 60.0394 16.548C60.2925 16.4582 60.5457 16.3684 60.8065 16.2759C61.0784 16.1785 61.3502 16.0811 61.6303 15.9807C70.6063 12.8853 79.9911 11.5211 89.463 11.5717C89.7188 11.5726 89.9746 11.5734 90.2382 11.5743C100.35 11.6128 110.078 13.2386 119.724 16.3027C119.954 16.3743 120.184 16.4459 120.422 16.5197C121.023 16.7231 121.023 16.7231 121.797 17.1029C122.948 17.2807 123.661 16.5715 124.568 15.9201C125.002 15.6243 125.436 15.3295 125.87 15.0357C126.104 14.8767 126.338 14.7177 126.578 14.5539C127.91 13.6678 129.276 12.8387 130.644 12.0111C130.787 11.9244 130.93 11.8376 131.078 11.7483C135.144 9.28838 139.264 6.89994 143.552 4.84521C144.115 4.57177 144.674 4.28923 145.233 4.00657C149.209 2.02173 153.446 0.206073 157.946 0.178056C158.144 0.173056 158.342 0.168056 158.546 0.162905C160.492 0.150498 162.079 0.628375 163.529 1.97347C167.299 6.17007 167.744 12.8401 168.295 18.1777C168.321 18.4331 168.321 18.4331 168.349 18.6936C169.111 26.4532 168.381 34.3905 167.582 42.1165C167.552 42.414 167.552 42.414 167.522 42.7175C167.151 46.3604 167.151 46.3604 166.773 47.9971C166.005 51.327 167.011 53.4672 168.456 56.4997C172.01 64.2694 172.819 72.7899 172.658 81.2066C172.92 81.2058 172.92 81.2058 173.188 81.2049C178.091 81.1963 178.091 81.1963 179.128 82.0399C179.967 82.9695 180.016 83.5486 179.997 84.7652C179.892 85.6586 179.567 86.1296 178.961 86.7822C176.906 88.0403 174.46 87.5086 172.173 87.267C172.148 87.4698 172.148 87.4698 172.122 87.6766C171.759 90.5171 171.307 93.2501 170.476 95.9941C170.774 96.0557 171.073 96.1172 171.38 96.1806C171.776 96.2648 172.171 96.3491 172.567 96.4335C172.763 96.4736 172.959 96.5138 173.161 96.5552C174.572 96.8591 175.772 97.2233 176.87 98.2062C177.421 99.1804 177.487 99.9909 177.264 101.085C176.848 101.89 176.271 102.399 175.507 102.888C173.783 103.24 171.99 102.645 170.34 102.161C170.142 102.104 169.943 102.047 169.739 101.989C169.257 101.851 168.776 101.71 168.295 101.57C168.253 101.704 168.212 101.839 168.17 101.977C167.75 103.301 167.239 104.514 166.582 105.736C166.488 105.913 166.393 106.09 166.295 106.273C164.763 109.068 162.879 111.508 160.661 113.797C160.409 114.058 160.158 114.321 159.908 114.585C155.139 119.634 148.58 124.276 141.871 126.296C142.166 126.521 142.166 126.521 142.467 126.75C145.098 128.759 147.644 130.824 150.062 133.087C150.561 133.553 151.063 134.014 151.573 134.468C152.713 135.484 153.791 136.498 154.771 137.668C155.082 138.033 155.405 138.387 155.735 138.735C158.527 141.678 160.822 145.019 162.719 148.599C162.832 148.804 162.946 149.008 163.063 149.219C165.113 153.061 166.116 157.444 164.91 161.709C163.777 164.892 161.817 166.932 158.84 168.477C153.462 170.676 148.112 170.714 142.736 168.473C142.366 168.315 141.997 168.154 141.628 167.992C141.673 168.164 141.717 168.336 141.763 168.513C142.365 170.97 142.725 173.443 143.068 175.947C143.115 176.286 143.115 176.286 143.162 176.631C147.799 210.313 147.799 210.313 142.848 216.865C139.797 220.173 135.107 221.732 130.72 222.052C129.356 222.099 127.993 222.111 126.629 222.112C126.345 222.113 126.345 222.113 126.056 222.113C120.827 222.109 114.847 221.714 110.812 217.948C108.728 215.652 107.85 212.93 107.16 209.976C107.119 209.807 107.078 209.638 107.037 209.464C106.782 208.304 106.666 207.163 106.586 205.978C106.566 205.673 106.545 205.369 106.524 205.056C106.509 204.825 106.493 204.593 106.478 204.355C106.322 204.37 106.167 204.384 106.006 204.399C101.127 204.834 96.2778 204.916 91.3819 204.903C90.3395 204.901 89.2972 204.902 88.2549 204.905C83.3171 204.916 78.4298 204.79 73.5088 204.355C73.4935 204.569 73.4783 204.782 73.4625 205.002C73.4314 205.425 73.4314 205.425 73.3996 205.856C73.3692 206.274 73.3692 206.274 73.3382 206.7C73.2442 207.755 73.0685 208.776 72.8421 209.81C72.7996 210.005 72.757 210.201 72.7132 210.402C71.8916 214.016 70.5085 216.927 67.4483 219.143C63.3606 221.626 58.7535 222.099 54.0847 222.11C53.5172 222.112 52.9499 222.12 52.3824 222.128C46.9925 222.166 41.7626 221.132 37.6914 217.37C34.5475 214.041 34.6063 210.226 34.646 205.916C34.6474 205.657 34.6487 205.398 34.6501 205.132C34.7 195.653 35.5657 186.265 36.7975 176.871C36.8217 176.686 36.8459 176.501 36.8708 176.31C37.2266 173.608 37.6538 170.921 38.1156 168.235C37.8141 168.334 37.5125 168.434 37.2018 168.536C31.5199 170.387 26.3357 170.99 20.7978 168.326C17.9419 166.856 16.0415 164.666 14.8908 161.666C13.5636 156.948 15.3129 151.945 17.5625 147.815C19.4486 144.486 21.7009 141.525 24.2892 138.713C24.733 138.229 25.1604 137.736 25.5856 137.236C27.3449 135.219 29.2864 133.358 31.3279 131.63C31.5822 131.409 31.8363 131.187 32.0902 130.966C33.9652 129.336 35.8865 127.788 37.8732 126.296C37.7341 126.234 37.5951 126.172 37.4518 126.108C36.9958 125.902 36.5408 125.695 36.0863 125.486C35.4538 125.197 34.8201 124.915 34.1829 124.637C29.8065 122.69 25.9118 120.044 22.3584 116.842C22.1553 116.668 21.9522 116.494 21.7429 116.315C20.5404 115.279 19.4845 114.19 18.4797 112.963C18.2831 112.73 18.0866 112.497 17.8841 112.257C15.2739 109.099 13.1706 105.526 11.4496 101.812C10.1678 101.915 9.04278 102.186 7.81327 102.57C6.45275 102.968 5.54338 103.179 4.17699 102.782C3.22195 102.2 2.76384 101.684 2.48006 100.6C2.35995 99.6592 2.43964 99.2248 2.87399 98.3728C4.03919 96.993 5.60416 96.7613 7.29813 96.4335C7.51125 96.3905 7.72437 96.3475 7.94395 96.3033C8.4657 96.1984 8.98774 96.0954 9.5102 95.9941C9.47603 95.8417 9.44185 95.6893 9.40663 95.5323C8.79332 92.7864 8.18781 90.0571 7.81327 87.267C7.54931 87.2765 7.54931 87.2765 7.28002 87.2863C6.47805 87.3115 5.67616 87.3272 4.87394 87.3428C4.59708 87.3529 4.32021 87.3631 4.03495 87.3736C1.73097 87.407 1.73097 87.407 0.845625 86.6865C0.122366 85.8519 0.0184303 85.4686 0.0104164 84.3883C0.0052603 84.0742 0.0052603 84.0742 0 83.7538C0.0821608 82.8598 0.335934 82.3546 1.01039 81.7671C2.56245 81.102 4.29847 81.196 5.96388 81.2018C6.34939 81.2028 6.34939 81.2028 6.74269 81.2039C6.93598 81.2048 7.12928 81.2056 7.32843 81.2066C7.32463 81.0068 7.32082 80.8071 7.31689 80.6013C7.17174 71.793 8.41206 63.1907 12.067 55.0774C12.1686 54.8517 12.2702 54.626 12.3749 54.3935C12.5689 53.9719 12.7687 53.5528 12.9754 53.1373C13.7042 51.578 13.6754 50.4016 13.3889 48.7224C13.3562 48.5159 13.3236 48.3093 13.2899 48.0964C13.2195 47.6648 13.1467 47.2335 13.0719 46.8026C11.3041 36.454 10.598 25.4658 11.9344 15.0262C11.9591 14.8235 11.9838 14.6207 12.0092 14.4119C12.564 9.99219 13.4889 4.52098 17.0252 1.45075C23.3646 -2.5611 32.3875 2.72003 38.1156 5.57187Z" fill="#FBE9CC"/>
<path d="M38.1156 5.57187C38.3178 5.67183 38.52 5.77179 38.7283 5.87478C42.0061 7.5061 45.1168 9.4144 48.232 11.3322C49.1879 11.9207 50.1464 12.5047 51.1068 13.0859C51.3567 13.2372 51.6066 13.3886 51.8641 13.5445C52.3279 13.8251 52.7917 14.1056 53.2557 14.3858C53.4653 14.5131 53.6749 14.6404 53.8908 14.7715C54.091 14.8928 54.2911 15.0142 54.4972 15.1393C55.2674 15.6265 56.0039 16.1576 56.7353 16.7012C57.6351 17.1488 58.4203 17.0457 59.3718 16.7922C59.5921 16.7116 59.8124 16.631 60.0394 16.548C60.2925 16.4582 60.5457 16.3684 60.8065 16.2759C61.0784 16.1785 61.3502 16.0811 61.6303 15.9807C70.6063 12.8853 79.9911 11.5211 89.463 11.5717C89.7188 11.5726 89.9746 11.5734 90.2382 11.5743C100.35 11.6128 110.078 13.2386 119.724 16.3027C119.954 16.3743 120.184 16.4459 120.422 16.5197C121.023 16.7231 121.023 16.7231 121.797 17.1029C122.948 17.2807 123.661 16.5715 124.568 15.9201C125.002 15.6243 125.436 15.3295 125.87 15.0357C126.104 14.8767 126.338 14.7177 126.578 14.5539C127.91 13.6678 129.276 12.8387 130.644 12.0111C130.787 11.9244 130.93 11.8376 131.078 11.7483C135.144 9.28838 139.264 6.89994 143.552 4.84521C144.115 4.57177 144.674 4.28923 145.233 4.00657C149.209 2.02173 153.446 0.206073 157.946 0.178056C158.144 0.173056 158.342 0.168056 158.546 0.162905C160.492 0.150498 162.079 0.628375 163.529 1.97347C167.299 6.17007 167.744 12.8401 168.295 18.1777C168.321 18.4331 168.321 18.4331 168.349 18.6936C169.111 26.4532 168.381 34.3905 167.582 42.1165C167.552 42.414 167.552 42.414 167.522 42.7175C167.151 46.3604 167.151 46.3604 166.773 47.9971C166.005 51.327 167.011 53.4672 168.456 56.4997C172.01 64.2694 172.819 72.7899 172.658 81.2066C172.92 81.2058 172.92 81.2058 173.188 81.2049C178.091 81.1963 178.091 81.1963 179.128 82.0399C179.967 82.9695 180.016 83.5486 179.997 84.7652C179.892 85.6586 179.567 86.1296 178.961 86.7822C176.906 88.0403 174.46 87.5086 172.173 87.267C172.148 87.4698 172.148 87.4698 172.122 87.6766C171.759 90.5171 171.307 93.2501 170.476 95.9941C170.774 96.0557 171.073 96.1172 171.38 96.1806C171.776 96.2648 172.171 96.3491 172.567 96.4335C172.763 96.4736 172.959 96.5138 173.161 96.5552C174.572 96.8591 175.772 97.2233 176.87 98.2062C177.421 99.1804 177.487 99.9909 177.264 101.085C176.848 101.89 176.271 102.399 175.507 102.888C173.783 103.24 171.99 102.645 170.34 102.161C170.142 102.104 169.943 102.047 169.739 101.989C169.257 101.851 168.776 101.71 168.295 101.57C168.253 101.704 168.212 101.839 168.17 101.977C167.75 103.301 167.239 104.514 166.582 105.736C166.488 105.913 166.393 106.09 166.295 106.273C164.763 109.068 162.879 111.508 160.661 113.797C160.409 114.058 160.158 114.321 159.908 114.585C155.139 119.634 148.58 124.276 141.871 126.296C142.166 126.521 142.166 126.521 142.467 126.75C145.098 128.759 147.644 130.824 150.062 133.087C150.561 133.553 151.063 134.014 151.573 134.468C152.713 135.484 153.791 136.498 154.771 137.668C155.082 138.033 155.405 138.387 155.735 138.735C158.527 141.678 160.822 145.019 162.719 148.599C162.832 148.804 162.946 149.008 163.063 149.219C165.113 153.061 166.116 157.444 164.91 161.709C163.777 164.892 161.817 166.932 158.84 168.477C153.462 170.676 148.112 170.714 142.736 168.473C142.366 168.315 141.997 168.154 141.628 167.992C141.673 168.164 141.717 168.336 141.763 168.513C142.365 170.97 142.725 173.443 143.068 175.947C143.115 176.286 143.115 176.286 143.162 176.631C147.799 210.313 147.799 210.313 142.848 216.865C139.797 220.173 135.107 221.732 130.72 222.052C129.356 222.099 127.993 222.111 126.629 222.112C126.345 222.113 126.345 222.113 126.056 222.113C120.827 222.109 114.847 221.714 110.812 217.948C108.728 215.652 107.85 212.93 107.16 209.976C107.119 209.807 107.078 209.638 107.037 209.464C106.782 208.304 106.666 207.163 106.586 205.978C106.566 205.673 106.545 205.369 106.524 205.056C106.509 204.825 106.493 204.593 106.478 204.355C106.322 204.37 106.167 204.384 106.006 204.399C101.127 204.834 96.2778 204.916 91.3819 204.903C90.3395 204.901 89.2972 204.902 88.2549 204.905C83.3171 204.916 78.4298 204.79 73.5088 204.355C73.4935 204.569 73.4783 204.782 73.4625 205.002C73.4314 205.425 73.4314 205.425 73.3996 205.856C73.3692 206.274 73.3692 206.274 73.3382 206.7C73.2442 207.755 73.0685 208.776 72.8421 209.81C72.7996 210.005 72.757 210.201 72.7132 210.402C71.8916 214.016 70.5085 216.927 67.4483 219.143C63.3606 221.626 58.7535 222.099 54.0847 222.11C53.5172 222.112 52.9499 222.12 52.3824 222.128C46.9925 222.166 41.7626 221.132 37.6914 217.37C34.5475 214.041 34.6063 210.226 34.646 205.916C34.6474 205.657 34.6487 205.398 34.6501 205.132C34.7 195.653 35.5657 186.265 36.7975 176.871C36.8217 176.686 36.8459 176.501 36.8708 176.31C37.2266 173.608 37.6538 170.921 38.1156 168.235C37.8141 168.334 37.5125 168.434 37.2018 168.536C31.5199 170.387 26.3357 170.99 20.7978 168.326C17.9419 166.856 16.0415 164.666 14.8908 161.666C13.5636 156.948 15.3129 151.945 17.5625 147.815C19.4486 144.486 21.7009 141.525 24.2892 138.713C24.733 138.229 25.1604 137.736 25.5856 137.236C27.3449 135.219 29.2864 133.358 31.3279 131.63C31.5822 131.409 31.8363 131.187 32.0902 130.966C33.9652 129.336 35.8865 127.788 37.8732 126.296C37.7341 126.234 37.5951 126.172 37.4518 126.108C36.9958 125.902 36.5408 125.695 36.0863 125.486C35.4538 125.197 34.8201 124.915 34.1829 124.637C29.8065 122.69 25.9118 120.044 22.3584 116.842C22.1553 116.668 21.9522 116.494 21.7429 116.315C20.5404 115.279 19.4845 114.19 18.4797 112.963C18.2831 112.73 18.0866 112.497 17.8841 112.257C15.2739 109.099 13.1706 105.526 11.4496 101.812C10.1678 101.915 9.04278 102.186 7.81327 102.57C6.45275 102.968 5.54338 103.179 4.17699 102.782C3.22195 102.2 2.76384 101.684 2.48006 100.6C2.35995 99.6592 2.43964 99.2248 2.87399 98.3728C4.03919 96.993 5.60416 96.7613 7.29813 96.4335C7.51125 96.3905 7.72437 96.3475 7.94395 96.3033C8.4657 96.1984 8.98774 96.0954 9.5102 95.9941C9.47603 95.8417 9.44185 95.6893 9.40663 95.5323C8.79332 92.7864 8.18781 90.0571 7.81327 87.267C7.54931 87.2765 7.54931 87.2765 7.28002 87.2863C6.47805 87.3115 5.67616 87.3272 4.87394 87.3428C4.59708 87.3529 4.32021 87.3631 4.03495 87.3736C1.73097 87.407 1.73097 87.407 0.845625 86.6865C0.122366 85.8519 0.0184303 85.4686 0.0104164 84.3883C0.0052603 84.0742 0.0052603 84.0742 0 83.7538C0.0821608 82.8598 0.335934 82.3546 1.01039 81.7671C2.56245 81.102 4.29847 81.196 5.96388 81.2018C6.34939 81.2028 6.34939 81.2028 6.74269 81.2039C6.93598 81.2048 7.12928 81.2056 7.32843 81.2066C7.32463 81.0068 7.32082 80.8071 7.31689 80.6013C7.17174 71.793 8.41206 63.1907 12.067 55.0774C12.1686 54.8517 12.2702 54.626 12.3749 54.3935C12.5689 53.9719 12.7687 53.5528 12.9754 53.1373C13.7042 51.578 13.6754 50.4016 13.3889 48.7224C13.3562 48.5159 13.3236 48.3093 13.2899 48.0964C13.2195 47.6648 13.1467 47.2335 13.0719 46.8026C11.3041 36.454 10.598 25.4658 11.9344 15.0262C11.9591 14.8235 11.9838 14.6207 12.0092 14.4119C12.564 9.99219 13.4889 4.52098 17.0252 1.45075C23.3646 -2.5611 32.3875 2.72003 38.1156 5.57187ZM20.9039 7.13245C19.8133 8.5297 19.351 9.91284 18.9342 11.6172C18.8958 11.7715 18.8573 11.9257 18.8177 12.0847C17.8526 16.3148 17.9069 20.607 17.9191 24.9199C17.9196 25.2459 17.92 25.5718 17.9204 25.8977C17.9337 32.8596 18.3526 39.6478 19.54 46.5101C20.0323 49.4474 20.4308 52.132 18.9797 54.8284C15.1038 62.7367 12.955 72.3748 13.3889 81.2066C13.8937 81.7113 14.9909 81.5163 15.6919 81.5399C17.314 81.6119 18.9076 81.7431 20.51 82.0096C20.7624 82.0479 20.7624 82.0479 21.0199 82.0871C22.1059 82.2821 22.8018 82.5923 23.5705 83.3883C23.9236 84.2686 23.9422 85.1695 23.651 86.072C23.3036 86.7497 22.9758 87.1977 22.2969 87.553C19.8984 88.2695 16.8418 87.69 14.3586 87.5094C14.2794 88.9937 14.5717 90.2754 14.9495 91.7063C15.0053 91.9258 15.061 92.1454 15.1185 92.3715C15.3888 93.4834 15.3888 93.4834 15.8131 94.5396C16.2323 94.5051 16.6515 94.4695 17.0706 94.4335C17.3041 94.4138 17.5375 94.3941 17.778 94.3739C18.4631 94.3116 18.4631 94.3116 19.0592 94.1703C19.8868 94.0191 20.6843 94.0135 21.5251 94.0093C21.8404 94.0059 22.1557 94.0024 22.4806 93.9989C23.6787 94.0779 23.6787 94.0779 24.2978 94.5396C24.7419 95.2107 24.8651 95.7867 24.8886 96.585C24.9032 96.8545 24.9032 96.8545 24.918 97.1295C24.7115 97.9859 24.3027 98.4527 23.5705 98.9031C22.6318 99.2189 21.6794 99.4037 20.7069 99.5849C20.4465 99.6373 20.186 99.6896 19.9176 99.7435C19.2774 99.8716 18.6367 99.9953 17.9949 100.115C19.0146 103.44 20.868 106.201 23.0857 108.842C23.2487 109.037 23.2487 109.037 23.415 109.235C29.0728 115.881 37.0075 119.792 45.2245 122.309C48.968 123.463 48.968 123.463 49.7517 124.842C49.9053 126.07 49.7581 126.763 49.0245 127.751C48.4364 128.075 48.4364 128.075 47.7366 128.327C43.2939 130.064 39.5139 132.612 36.0598 135.901C35.5657 136.368 35.0642 136.813 34.5494 137.255C31.7188 139.721 28.9723 142.437 26.7219 145.448C26.5045 145.731 26.287 146.014 26.0695 146.297C23.3618 149.863 20.2163 154.318 20.6615 159.023C20.9364 160.579 21.7593 161.483 22.954 162.475C25.496 164.236 28.6197 164.479 31.6025 163.957C33.4183 163.588 35.1387 163.036 36.8429 162.311C37.0018 162.244 37.1607 162.177 37.3243 162.108C38.457 161.596 39.4904 160.982 40.0018 159.796C40.1598 159.277 40.289 158.757 40.4101 158.228C40.4824 157.936 40.4824 157.936 40.5561 157.638C40.6583 157.223 40.7585 156.808 40.857 156.393C41.0103 155.747 41.1687 155.102 41.3287 154.458C41.5384 153.613 41.7466 152.769 41.9537 151.924C42.2991 150.522 42.6653 149.126 43.0549 147.735C43.1327 147.445 43.1327 147.445 43.212 147.148C43.5941 145.8 44.1075 144.672 45.2367 143.781C46.0189 143.446 46.4832 143.388 47.3275 143.508C48.0633 143.904 48.6084 144.249 49.1154 144.917C49.6029 146.624 49.031 148.282 48.5927 149.939C48.4479 150.502 48.3032 151.065 48.1585 151.627C48.0822 151.922 48.0059 152.216 47.9272 152.519C44.5672 165.516 42.2986 178.601 41.2671 191.992C41.2526 192.176 41.2382 192.361 41.2233 192.551C40.8972 196.755 40.7326 200.958 40.6973 205.175C40.6934 205.613 40.688 206.051 40.6811 206.49C40.5634 209.991 40.5634 209.991 42.1207 213.024C44.8334 215.762 49.5199 216.007 53.1433 216.038C59.3413 216.102 59.3413 216.102 64.6264 213.328C67.0593 210.344 67.2991 205.898 67.6388 202.209C67.7828 200.833 67.9316 199.837 68.9028 198.78C70.1039 197.938 71.0975 197.989 72.4936 198.113C72.6769 198.126 72.8602 198.139 73.049 198.152C73.7676 198.205 74.4837 198.267 75.1994 198.351C79.8761 198.896 84.6068 198.837 89.3088 198.84C89.6662 198.84 90.0237 198.841 90.3811 198.841C95.9075 198.85 101.387 198.71 106.887 198.119C108.409 197.993 109.536 197.909 110.841 198.78C112.28 200.539 112.394 202.542 112.629 204.719C113.22 209.758 113.22 209.758 115.826 213.991C119.554 216.809 126.155 216.339 130.522 215.78C133.321 215.369 136.214 214.828 138.174 212.613C139.368 210.987 139.491 209.308 139.481 207.334C139.48 207.147 139.48 206.961 139.479 206.768C139.455 203.971 139.296 201.178 139.144 198.386C139.128 198.088 139.111 197.789 139.095 197.482C138.362 184.138 136.674 170.875 133.423 157.898C133.382 157.734 133.341 157.57 133.299 157.401C132.885 155.751 132.466 154.103 132.038 152.457C131.916 151.99 131.796 151.522 131.676 151.054C131.527 150.478 131.377 149.903 131.224 149.328C130.862 147.916 130.592 146.664 130.72 145.205C131.245 144.341 131.729 143.884 132.659 143.508C133.188 143.471 133.188 143.471 133.735 143.523C133.914 143.536 134.094 143.549 134.279 143.562C135.115 143.842 135.483 144.293 136.053 144.963C136.35 145.61 136.531 146.274 136.712 146.962C136.766 147.156 136.82 147.35 136.876 147.549C137.05 148.176 137.218 148.804 137.386 149.432C137.505 149.863 137.623 150.293 137.742 150.723C138.421 153.198 139.07 155.679 139.53 158.206C139.792 159.534 140.159 160.257 141.144 161.205C144.842 163.568 149.325 164.711 153.658 163.841C155.954 163.247 157.552 162.319 158.826 160.295C159.738 158.36 159.327 156.523 158.692 154.578C156.82 149.644 153.642 145.671 150.113 141.811C149.906 141.579 149.699 141.346 149.485 141.107C147.93 139.369 146.289 137.774 144.537 136.236C144.416 136.127 144.294 136.019 144.169 135.907C140.655 132.79 136.878 129.957 132.386 128.448C131.62 128.178 131.192 127.983 130.553 127.463C130.113 126.521 129.955 125.614 130.235 124.6C131.079 123.542 131.824 123.18 133.114 122.827C133.461 122.726 133.808 122.624 134.154 122.522C134.342 122.467 134.529 122.412 134.723 122.356C142.468 120.035 149.03 116.534 154.962 111.024C155.126 110.876 155.29 110.727 155.46 110.574C158.385 107.82 160.819 103.943 161.992 100.115C161.822 100.085 161.652 100.054 161.477 100.023C160.703 99.882 159.931 99.7336 159.158 99.5849C158.891 99.5373 158.624 99.4896 158.348 99.4405C155.809 98.9419 155.809 98.9419 154.962 97.691C154.755 96.9431 154.809 96.2675 154.962 95.5093C155.396 94.8134 155.685 94.4205 156.416 94.0547C158.974 93.8388 161.429 94.3102 163.931 94.782C164.435 93.4915 164.856 92.2172 165.189 90.873C165.232 90.7089 165.274 90.5449 165.319 90.3759C165.563 89.3996 165.673 88.5147 165.628 87.5094C165.387 87.5269 165.147 87.5444 164.899 87.5625C163.234 87.6787 161.569 87.7768 159.901 87.8125C159.638 87.8187 159.375 87.825 159.103 87.8314C158.22 87.7375 157.653 87.4911 156.901 87.0246C156.356 86.1115 156.174 85.5121 156.174 84.4489C156.47 83.4493 156.809 83.0559 157.628 82.4186C158.698 81.9885 159.668 81.849 160.816 81.7804C160.975 81.7703 161.134 81.7602 161.298 81.7499C161.802 81.7184 162.306 81.6897 162.81 81.6611C163.154 81.6401 163.497 81.619 163.841 81.5976C164.679 81.546 165.517 81.4968 166.355 81.449C166.443 77.3426 166.384 73.3721 165.628 69.328C165.589 69.1166 165.55 68.9051 165.51 68.6873C164.546 63.6499 162.955 58.6666 160.717 54.049C159.569 51.5735 160.124 49.2189 160.529 46.6055C161.63 39.3976 162.054 32.1773 162.067 24.8896C162.068 24.6503 162.069 24.411 162.07 24.1644C162.078 19.9542 161.981 15.6594 160.946 11.5566C160.901 11.353 160.855 11.1494 160.808 10.9397C160.407 9.28303 159.811 7.75465 158.355 6.78397C157.017 6.69669 155.868 6.84559 154.583 7.2385C154.408 7.2913 154.234 7.34409 154.054 7.39848C144.209 10.5227 134.684 16.5955 126.311 22.5278C124.69 23.6477 123.231 24.1693 121.265 23.9957C120.519 23.7457 120.519 23.7457 119.75 23.3897C115.094 21.3804 109.992 20.3074 105.023 19.3897C104.829 19.3526 104.635 19.3155 104.435 19.2773C89.9316 16.5408 74.1655 18.1796 60.3837 23.3434C58.7794 23.94 57.4783 24.3278 55.8274 23.6624C53.4789 22.5321 51.3133 20.9854 49.1305 19.5716C45.4776 17.2109 41.753 14.9566 37.9247 12.8916C37.5587 12.6939 37.1932 12.4952 36.8284 12.2954C29.1399 7.72612 29.1399 7.72612 20.9039 7.13245Z" fill="black"/>
<path d="M89.7811 138.296C90.0651 138.298 90.3491 138.299 90.6416 138.301C96.0981 138.414 100.508 140.355 104.296 144.235C104.49 144.427 104.684 144.619 104.884 144.817C110.66 150.822 112.432 159.927 112.398 167.968C112.302 172.551 111.009 176.36 107.69 179.629C107.535 179.783 107.38 179.937 107.221 180.096C101.636 185.321 93.6092 185.245 86.4527 185.013C81.6738 184.813 77.0949 183.523 73.2663 180.598C73.0848 180.461 72.9032 180.324 72.7162 180.183C69.5692 177.625 67.9313 173.667 67.4889 169.708C67.3583 168.091 67.417 166.461 67.4483 164.841C67.4523 164.581 67.4564 164.321 67.4606 164.053C67.7944 156.881 70.5662 149.903 75.2057 144.478C75.3497 144.309 75.4938 144.14 75.6422 143.966C79.2668 140.053 84.555 138.266 89.7811 138.296Z" fill="#F2D3A3"/>
<path d="M106.337 139.064C106.543 139.251 106.75 139.437 106.963 139.63C107.167 139.814 107.371 139.998 107.581 140.187C111.386 143.803 113.805 148.516 115.447 153.447C115.536 153.706 115.625 153.965 115.717 154.231C117.706 160.53 118.284 167.859 116.659 174.295C116.62 174.453 116.581 174.611 116.541 174.773C115.283 179.618 111.987 183.658 107.712 186.208C102.194 189.295 96.3695 190.109 90.1448 190.113C89.8379 190.113 89.8379 190.113 89.5247 190.114C86.4023 190.11 83.3542 190.02 80.2965 189.325C80.1174 189.285 79.9384 189.245 79.7539 189.203C74.0854 187.863 68.6619 184.719 65.5341 179.714C61.6471 173.247 61.6906 164.397 63.4151 157.214C63.4661 157.011 63.5171 156.808 63.5696 156.599C63.6203 156.393 63.6709 156.187 63.7231 155.975C65.1614 150.316 67.6976 145.224 71.5694 140.842C71.7916 140.589 71.7916 140.589 72.0183 140.331C80.767 131.005 96.8454 130.907 106.337 139.064ZM74.3355 145.447C69.9917 150.861 67.7023 157.946 67.4483 164.841C67.4417 165.006 67.4351 165.17 67.4283 165.34C67.2622 170.027 67.958 174.326 70.8422 178.174C70.9931 178.389 70.9931 178.389 71.1471 178.609C74.2967 182.73 79.9489 184.177 84.8155 184.893C86.5234 185.098 88.2457 185.07 89.963 185.053C90.2654 185.051 90.2654 185.051 90.5739 185.05C97.2171 185.009 103.27 184.04 108.175 179.144C108.41 178.912 108.41 178.912 108.651 178.676C112.157 174.978 112.486 170.128 112.372 165.306C112.074 157.482 109.576 149.679 104.054 143.993C103.915 143.839 103.776 143.686 103.633 143.527C100.596 140.259 95.9632 138.525 91.5766 138.324C84.5443 138.145 79.0565 140.067 74.3355 145.447Z" fill="black"/>
<path d="M144.492 80.5248C147.086 82.2997 148.661 84.7043 149.386 87.7519C149.791 91.5441 148.979 94.4267 146.602 97.4165C144.665 99.5735 141.927 100.701 139.092 100.902C135.65 101.017 132.844 100.026 130.236 97.7545C127.964 95.3916 127.008 92.4399 127.047 89.2272C127.197 86.119 128.415 83.5545 130.72 81.449C134.949 78.274 139.88 77.7971 144.492 80.5248Z" fill="#F4A99C"/>
<path d="M47.0851 79.9944C47.272 80.0875 47.4589 80.1806 47.6514 80.2766C50.0658 81.6364 51.8116 84.2368 52.6305 86.8427C53.3278 89.8075 53.0413 92.7794 51.5595 95.4581C49.9622 97.8778 47.6793 99.6997 44.9034 100.6C41.8062 101.204 38.7165 101.045 35.9405 99.4618C33.4117 97.7434 31.5031 95.3809 30.8431 92.3578C30.529 88.2035 31.0216 85.381 33.7066 82.1288C37.1674 78.3364 42.6482 77.7821 47.0851 79.9944Z" fill="#F4A99C"/>
<path d="M28.2967 15.1541C29.9044 15.371 31.3327 16.0286 32.7824 16.7232C32.9321 16.7946 33.0819 16.8659 33.2362 16.9394C37.1454 18.8385 40.5853 21.4852 43.9965 24.1509C44.3668 24.4402 44.7395 24.7263 45.1126 25.0118C45.7979 25.5919 46.0918 25.9907 46.2054 26.8887C46.0926 27.8202 45.8724 28.0213 45.1609 28.6169C44.94 28.8031 44.719 28.9894 44.4914 29.1812C43.3952 30.0576 42.2752 30.9037 41.1548 31.7487C39.704 32.8473 38.3222 34.0095 36.9508 35.2048C36.2621 35.8045 35.556 36.3793 34.8429 36.95C33.7848 37.8071 32.789 38.715 31.7976 39.6469C29.7583 41.5514 29.7583 41.5514 28.7825 42.3893C28.605 42.5437 28.4275 42.698 28.2446 42.8571C27.6916 43.1468 27.6916 43.1468 26.9293 43.1213C26.2371 42.9044 26.2371 42.9044 25.7068 42.1317C23.8967 37.8807 23.9722 32.7033 23.9921 28.1701C23.9947 27.4634 23.9921 26.7568 23.989 26.0502C23.9826 17.9864 23.9826 17.9864 25.8251 15.585C26.5779 15.007 27.3815 15.1288 28.2967 15.1541Z" fill="#F4A99C"/>
<path d="M153.507 15.2686C155.305 16.6922 155.542 19.2292 155.794 21.3859C156.414 27.9404 156.815 36.5964 153.992 42.662C153.228 43.0441 152.625 43.1283 151.81 42.9044C151.057 42.3785 150.42 41.7455 149.768 41.0994C149.012 40.3546 148.235 39.6311 147.462 38.9045C147.294 38.7465 147.126 38.5884 146.954 38.4256C145.63 37.1848 144.262 36.0317 142.841 34.9046C142.411 34.5516 141.982 34.198 141.553 33.844C140.537 33.0127 139.51 32.1984 138.477 31.3895C138.191 31.1638 137.904 30.9381 137.618 30.7124C137.077 30.2862 136.531 29.8672 135.98 29.453C135.619 29.1741 135.619 29.1741 135.25 28.8896C135.036 28.728 134.822 28.5664 134.601 28.4C133.987 27.7377 133.894 27.3156 133.871 26.4199C135.015 24.6699 136.809 23.5174 138.477 22.2988C138.633 22.1833 138.789 22.0679 138.95 21.9489C149.421 14.2293 149.421 14.2293 153.507 15.2686Z" fill="#F4A99C"/>
<path d="M90.0539 76.7672C90.2929 76.7602 90.532 76.7532 90.7783 76.7459C92.4589 76.7315 93.8424 76.9959 95.3265 77.8127C96.1774 78.6636 96.4965 79.3233 96.6143 80.5247C96.4658 82.3367 95.577 83.5001 94.2962 84.7367C93.872 85.0852 93.872 85.0852 93.1599 85.4034C92.6143 85.7611 92.6143 85.7611 92.5604 86.3172C92.4884 88.3561 93.033 90.2987 94.3568 91.8729C95.9396 93.142 97.523 93.6483 99.5385 93.5547C102.03 93.2451 103.494 92.1037 105.069 90.2025C105.664 89.5095 105.874 89.46 106.796 89.373C107.829 89.4606 108.18 89.696 108.902 90.4184C109.323 91.2604 109.256 92.1644 109.144 93.085C107.891 95.4989 105.433 97.3009 102.929 98.2421C100.159 99.0951 96.9791 99.004 94.335 97.8274C92.7905 96.9981 91.4532 96.0436 90.2357 94.782C89.5345 95.1025 89.151 95.3743 88.569 95.9183C85.8508 98.3175 82.6626 98.8851 79.1595 98.7145C75.856 98.3968 73.5435 96.4415 71.4558 94.0348C70.7766 93.184 70.7482 92.5148 70.7551 91.4516C70.8932 90.582 71.376 90.2079 72.0543 89.6912C72.758 89.3393 73.2112 89.3585 73.9936 89.4488C74.8734 90.0536 75.4834 90.6947 76.1451 91.5245C77.2266 92.7849 78.1287 93.2525 79.7975 93.4278C81.8315 93.5284 83.7549 93.4825 85.3873 92.1154C86.7718 90.5103 87.501 88.8223 87.4668 86.696C87.2962 85.9154 87.0917 85.7229 86.4479 85.267C86.2716 85.1586 86.0954 85.0502 85.9138 84.9384C84.7741 84.2067 83.7576 83.0227 83.448 81.6914C83.3167 80.4735 83.3124 79.554 83.8419 78.4338C85.5019 76.6428 87.7831 76.7891 90.0539 76.7672Z" fill="black"/>
<path d="M49.1427 68.0136C49.2999 68.0083 49.2999 68.0083 49.4604 68.003C50.1142 68.0943 50.518 68.5504 50.9613 69.0506C51.0586 69.1592 51.1559 69.2677 51.2562 69.3795C51.4513 69.6007 51.6456 69.8227 51.8395 70.0452C54.0996 72.3903 57.1716 73.0348 60.1874 72.9565C62.983 72.8328 65.7714 71.641 67.6753 69.3843C67.8044 69.2275 67.9323 69.0695 68.0587 68.9101C68.472 68.3924 68.7442 68.0923 69.3716 68.0019C70.1272 67.9902 70.7188 68.0145 71.2928 68.5916C71.7287 69.1181 71.955 69.6306 72 70.3427C71.9223 71.7707 70.8419 72.9722 69.9249 73.8958C68.1365 75.5764 66.0822 76.5911 63.8317 77.2959C63.7005 77.3391 63.7005 77.3391 63.5666 77.3832C59.6254 78.6439 55.0573 77.8999 51.4738 75.8089C49.9266 74.866 47.609 73.106 47.0442 71.1757C46.937 70.2002 46.9964 69.5173 47.5416 68.7276C48.0562 68.206 48.4469 68.0275 49.1427 68.0136Z" fill="black"/>
<path d="M110.187 69.014C110.303 69.0094 110.418 69.0048 110.537 69C111.326 69.1147 111.796 69.6857 112.29 70.2635C114.037 72.2255 116.711 73.2713 119.309 73.4952C122.364 73.6538 125.592 73.1207 127.952 71.0348C128.345 70.6605 128.713 70.2749 129.065 69.8624C129.438 69.428 129.729 69.1043 130.321 69.0145C131.03 68.9745 131.608 69.1057 132.173 69.5462C132.628 70.0393 132.884 70.4799 133 71.1428C132.883 72.429 131.909 73.4946 130.969 74.2947C127.344 77.2515 122.808 78.3612 118.176 77.8989C117.468 77.7974 116.781 77.6381 116.093 77.4443C115.969 77.4106 115.969 77.4106 115.843 77.3763C112.994 76.5835 110.048 74.8628 108.377 72.3769C108.065 71.8187 107.911 71.2914 108.054 70.6569C108.476 69.7117 109.122 69.0416 110.187 69.014Z" fill="black"/>
<path d="M128.467 24.0036C128.602 24.0023 128.602 24.0023 128.741 24.001C128.84 24.0008 128.938 24.0007 129.04 24.0005C129.146 23.9998 129.251 23.999 129.356 23.9982C129.643 23.9963 129.929 23.9953 130.215 23.9946C130.394 23.9942 130.572 23.9936 130.751 23.9929C131.311 23.9909 131.872 23.9894 132.432 23.9888C133.077 23.9882 133.723 23.9855 134.369 23.9812C134.869 23.978 135.368 23.9764 135.868 23.9762C136.166 23.9761 136.464 23.9752 136.763 23.9725C137.043 23.9701 137.324 23.9697 137.605 23.9711C137.756 23.9712 137.908 23.9692 138.059 23.967C138.577 23.9718 138.909 24.0101 139.303 24.3599C139.901 24.9748 139.975 25.4983 139.979 26.3299C139.98 26.422 139.981 26.5141 139.982 26.609C139.984 26.8034 139.984 26.9979 139.985 27.1924C139.986 27.4881 139.991 27.7836 139.996 28.0793C139.997 28.2688 139.998 28.4584 139.998 28.648C140 28.7355 140.002 28.823 140.004 28.9132C139.999 29.5637 139.811 29.9584 139.414 30.4685C139.362 30.5367 139.362 30.5367 139.308 30.6062C139.216 30.7206 139.118 30.8312 139.021 30.9415C138.949 31.024 138.878 31.1066 138.807 31.1894C138.771 31.231 138.735 31.2726 138.698 31.3155C138.484 31.5676 138.283 31.8289 138.08 32.0894C137.867 32.363 137.652 32.6344 137.434 32.9043C136.78 33.7158 136.155 34.549 135.546 35.3951C135.515 35.438 135.484 35.4808 135.452 35.525C135.305 35.7314 135.179 35.935 135.069 36.1631C135.135 36.1608 135.202 36.1585 135.271 36.1562C135.867 36.1362 136.463 36.1178 137.06 36.1017C137.384 36.0929 137.708 36.0821 138.032 36.07C138.168 36.0665 138.304 36.0632 138.44 36.0601C138.5 36.0572 138.56 36.0544 138.621 36.0514C139.084 36.0447 139.412 36.1986 139.789 36.4628C140.11 36.7915 140.257 37.1234 140.259 37.5821C140.26 37.6537 140.261 37.7252 140.261 37.7989C140.261 37.9137 140.261 37.9137 140.261 38.0307C140.262 38.1103 140.262 38.1898 140.262 38.2718C140.263 38.4399 140.263 38.608 140.262 38.776C140.262 39.0321 140.264 39.2881 140.266 39.5441C140.266 39.7077 140.266 39.8714 140.266 40.0351C140.267 40.1111 140.267 40.1872 140.268 40.2655C140.265 40.7706 140.224 41.2305 139.888 41.6346C139.844 41.668 139.801 41.7015 139.756 41.7359C139.713 41.7705 139.67 41.805 139.625 41.8407C139.322 42.0454 139.112 42.1013 138.742 42.1025C138.605 42.1034 138.605 42.1034 138.465 42.1044C138.364 42.1044 138.262 42.1043 138.161 42.1042C138.054 42.1047 137.947 42.1052 137.84 42.1057C137.55 42.1071 137.26 42.1074 136.97 42.1075C136.789 42.1076 136.607 42.1079 136.426 42.1083C135.793 42.1097 135.159 42.1103 134.526 42.1102C133.937 42.1101 133.347 42.1117 132.757 42.1141C132.251 42.116 131.744 42.1168 131.237 42.1167C130.935 42.1167 130.633 42.1171 130.33 42.1187C130.046 42.1202 129.761 42.1202 129.476 42.1191C129.372 42.1189 129.268 42.1193 129.164 42.1202C128.511 42.1255 127.991 42.1127 127.499 41.6355C127.449 41.5623 127.449 41.5623 127.398 41.4877C127.363 41.4391 127.329 41.3905 127.293 41.3405C127.12 41.0444 127.033 40.7867 127.027 40.4434C127.025 40.3375 127.025 40.3375 127.023 40.2295C127.022 40.1539 127.021 40.0784 127.021 40.0005C127.02 39.8823 127.02 39.8823 127.018 39.7617C127.017 39.5948 127.016 39.428 127.015 39.2611C127.014 39.0083 127.009 38.7557 127.004 38.503C126.989 36.9343 126.989 36.9343 127.501 36.238C127.544 36.1756 127.587 36.1132 127.631 36.0489C127.766 35.859 127.908 35.6761 128.053 35.4934C128.16 35.3564 128.266 35.2195 128.373 35.0825C128.427 35.0134 128.481 34.9442 128.537 34.873C128.798 34.5385 129.056 34.2013 129.313 33.8637C129.363 33.7986 129.413 33.7335 129.464 33.6664C129.826 33.1916 130.176 32.7093 130.522 32.2234C130.832 31.7913 131.159 31.3744 131.495 30.9625C131.69 30.7282 131.69 30.7282 131.847 30.4685C131.805 30.4684 131.764 30.4683 131.721 30.4682C131.286 30.4667 130.85 30.4626 130.415 30.4571C130.253 30.4553 130.091 30.4543 129.929 30.4538C129.695 30.4531 129.461 30.4501 129.227 30.4466C129.156 30.4468 129.084 30.4471 129.01 30.4474C128.438 30.4352 127.913 30.2907 127.505 29.8677C127.055 29.311 127.027 28.7685 127.026 28.0758C127.026 27.9895 127.025 27.9032 127.025 27.8144C127.024 27.6323 127.023 27.4502 127.023 27.2681C127.023 26.9902 127.02 26.7124 127.018 26.4345C127.017 26.2573 127.017 26.0801 127.017 25.9028C127.016 25.8201 127.015 25.7373 127.013 25.6521C127.016 25.1667 127.061 24.8684 127.351 24.4742C127.709 24.143 127.979 24.0064 128.467 24.0036Z" fill="black"/>
<path d="M137.916 26.1227C138.101 28.8482 138.101 28.8482 137.49 29.5506C137.358 29.6925 137.222 29.8274 137.081 29.9595C136.841 30.1914 136.642 30.4555 136.436 30.7167C136.355 30.8165 136.273 30.9161 136.192 31.0156C135.88 31.3987 135.587 31.7947 135.293 32.1919C134.666 33.033 134.037 33.8727 133.384 34.6935C132.354 35.8916 132.354 35.8916 131.997 37.362C132.083 37.6982 132.237 37.8424 132.521 38.0363C132.784 38.124 132.996 38.1233 133.273 38.1266C133.327 38.1274 133.38 38.1281 133.435 38.1289C133.612 38.1312 133.788 38.1331 133.964 38.135C134.087 38.1365 134.209 38.1381 134.331 38.1397C134.653 38.1438 134.975 38.1475 135.297 38.1511C135.625 38.1549 135.954 38.1591 136.282 38.1632C136.927 38.1713 137.571 38.1788 138.216 38.1862C138.216 38.7796 138.216 39.373 138.216 39.9845C135.174 39.9845 132.133 39.9845 128.999 39.9845C128.999 37.2515 128.999 37.2515 129.76 36.4499C129.809 36.4023 129.858 36.3546 129.908 36.3055C130.128 36.0821 130.306 35.8319 130.489 35.5777C130.562 35.4792 130.635 35.3809 130.709 35.2827C130.747 35.2318 130.785 35.1809 130.824 35.1284C131.06 34.8147 131.299 34.5034 131.538 34.1915C131.971 33.6249 132.397 33.0542 132.819 32.4791C133.103 32.0925 133.389 31.7084 133.678 31.3255C134.505 30.3714 134.505 30.3714 134.844 29.2322C134.789 28.8724 134.656 28.6944 134.394 28.4455C134.143 28.3616 133.948 28.3586 133.683 28.3551C133.634 28.3544 133.585 28.3537 133.535 28.3529C133.373 28.3505 133.211 28.3487 133.049 28.3468C132.937 28.3453 132.825 28.3437 132.713 28.3421C132.417 28.338 132.122 28.3343 131.827 28.3306C131.525 28.3269 131.224 28.3227 130.923 28.3186C130.332 28.3105 129.74 28.303 129.149 28.2956C129.149 27.6033 129.149 26.9109 129.149 26.1976C129.838 26.1846 130.526 26.172 131.214 26.1601C131.266 26.1592 131.318 26.1583 131.371 26.1574C133.553 26.1201 135.734 26.1139 137.916 26.1227Z" fill="#AADCE7"/>
<path d="M144.496 18.1801C144.675 18.1784 144.675 18.1784 144.857 18.1766C144.987 18.1764 145.118 18.1762 145.252 18.176C145.391 18.1751 145.53 18.1741 145.669 18.173C146.047 18.1704 146.424 18.1691 146.802 18.1683C147.038 18.1677 147.274 18.1669 147.51 18.166C148.249 18.1633 148.988 18.1614 149.727 18.1606C150.579 18.1597 151.431 18.1562 152.283 18.1505C152.942 18.1462 153.601 18.1442 154.261 18.144C154.654 18.1438 155.048 18.1426 155.441 18.1391C155.811 18.1358 156.182 18.1354 156.552 18.1371C156.752 18.1373 156.952 18.1346 157.151 18.1318C157.834 18.1381 158.273 18.1886 158.793 18.6502C159.581 19.4615 159.679 20.1522 159.685 21.2493C159.686 21.3708 159.688 21.4923 159.689 21.6175C159.691 21.8741 159.692 22.1307 159.692 22.3873C159.694 22.7775 159.7 23.1673 159.707 23.5574C159.708 23.8075 159.709 24.0576 159.71 24.3078C159.712 24.4232 159.715 24.5387 159.718 24.6577C159.711 25.516 159.463 26.0368 158.94 26.7097C158.87 26.7997 158.87 26.7997 158.8 26.8914C158.677 27.0423 158.549 27.1882 158.421 27.3338C158.326 27.4426 158.232 27.5517 158.138 27.6609C158.09 27.7158 158.043 27.7707 157.994 27.8273C157.713 28.1598 157.447 28.5046 157.18 28.8483C156.898 29.2093 156.614 29.5674 156.327 29.9235C155.463 30.9942 154.64 32.0934 153.836 33.2097C153.795 33.2663 153.754 33.3229 153.712 33.3812C153.518 33.6535 153.351 33.9221 153.206 34.223C153.294 34.22 153.382 34.217 153.472 34.214C154.259 34.1876 155.046 34.1632 155.833 34.142C156.261 34.1304 156.688 34.1161 157.116 34.1002C157.295 34.0957 157.475 34.0913 157.655 34.0871C157.733 34.0833 157.812 34.0796 157.893 34.0757C158.504 34.0668 158.937 34.2699 159.434 34.6185C159.857 35.0521 160.051 35.49 160.054 36.0953C160.055 36.1897 160.056 36.2841 160.057 36.3813C160.057 36.5327 160.057 36.5327 160.057 36.6872C160.057 36.7921 160.058 36.8971 160.058 37.0052C160.059 37.227 160.059 37.4487 160.058 37.6705C160.058 38.0083 160.06 38.3461 160.063 38.6839C160.063 38.8998 160.063 39.1157 160.063 39.3317C160.064 39.432 160.065 39.5323 160.066 39.6357C160.062 40.3021 160.008 40.9089 159.564 41.4421C159.507 41.4862 159.45 41.5303 159.391 41.5757C159.334 41.6213 159.277 41.6669 159.218 41.7139C158.818 41.984 158.54 42.0578 158.053 42.0593C157.872 42.0606 157.872 42.0606 157.687 42.0619C157.553 42.0618 157.42 42.0617 157.286 42.0616C157.145 42.0622 157.004 42.0629 156.863 42.0636C156.48 42.0654 156.097 42.0659 155.715 42.066C155.475 42.0661 155.236 42.0665 154.997 42.0671C154.161 42.0689 153.326 42.0697 152.49 42.0695C151.712 42.0694 150.934 42.0715 150.157 42.0746C149.488 42.0772 148.82 42.0783 148.151 42.0782C147.752 42.0781 147.353 42.0787 146.954 42.0808C146.579 42.0827 146.203 42.0827 145.828 42.0813C145.69 42.081 145.553 42.0815 145.416 42.0827C144.554 42.0897 143.867 42.0729 143.219 41.4432C143.153 41.3467 143.153 41.3467 143.085 41.2482C143.04 41.1841 142.994 41.12 142.947 41.054C142.719 40.6634 142.604 40.3233 142.596 39.8703C142.593 39.7307 142.593 39.7307 142.59 39.5882C142.59 39.4885 142.589 39.3888 142.588 39.2861C142.586 39.1301 142.586 39.1301 142.584 38.9709C142.583 38.7508 142.581 38.5307 142.581 38.3106C142.579 37.977 142.572 37.6437 142.566 37.3103C142.545 35.2406 142.545 35.2406 143.221 34.3219C143.278 34.2396 143.334 34.1573 143.393 34.0724C143.572 33.8219 143.759 33.5806 143.95 33.3395C144.091 33.1588 144.231 32.978 144.372 32.7973C144.443 32.7061 144.514 32.6149 144.588 32.521C144.933 32.0796 145.273 31.6346 145.612 31.1893C145.678 31.1034 145.744 31.0175 145.811 30.929C146.288 30.3025 146.75 29.6662 147.207 29.0251C147.617 28.4551 148.047 27.905 148.491 27.3614C148.748 27.0524 148.748 27.0524 148.955 26.7097C148.9 26.7096 148.845 26.7094 148.789 26.7093C148.215 26.7073 147.641 26.702 147.066 26.6946C146.853 26.6924 146.639 26.6909 146.425 26.6904C146.116 26.6895 145.808 26.6854 145.499 26.6808C145.404 26.6812 145.31 26.6815 145.213 26.6819C144.457 26.6658 143.765 26.4752 143.226 25.917C142.633 25.1825 142.597 24.4668 142.595 23.5528C142.594 23.439 142.593 23.3252 142.593 23.2079C142.592 22.9677 142.591 22.7275 142.591 22.4872C142.591 22.1206 142.587 21.754 142.584 21.3874C142.583 21.1535 142.583 20.9197 142.582 20.6859C142.581 20.5767 142.58 20.4675 142.578 20.355C142.582 19.7146 142.641 19.3211 143.023 18.801C143.496 18.364 143.852 18.1837 144.496 18.1801Z" fill="black"/>
<path d="M156.963 20.976C157.207 24.572 157.207 24.572 156.4 25.4988C156.226 25.6859 156.048 25.8639 155.861 26.0382C155.545 26.3441 155.282 26.6926 155.01 27.0373C154.903 27.1688 154.795 27.3003 154.688 27.4315C154.277 27.9371 153.889 28.4595 153.503 28.9836C152.675 30.0933 151.845 31.2012 150.983 32.2841C149.625 33.8649 149.625 33.8649 149.153 35.8048C149.266 36.2484 149.47 36.4388 149.845 36.6946C150.192 36.8103 150.471 36.8093 150.837 36.8137C150.908 36.8147 150.978 36.8157 151.051 36.8167C151.284 36.8198 151.516 36.8223 151.749 36.8247C151.91 36.8268 152.072 36.8288 152.233 36.8309C152.658 36.8364 153.082 36.8413 153.507 36.8461C153.94 36.851 154.374 36.8565 154.807 36.862C155.657 36.8726 156.508 36.8826 157.358 36.8923C157.358 37.6753 157.358 38.4582 157.358 39.2649C153.345 39.2649 149.333 39.2649 145.198 39.2649C145.198 35.6591 145.198 35.6591 146.202 34.6015C146.266 34.5387 146.331 34.4758 146.397 34.411C146.688 34.1162 146.922 33.7861 147.163 33.4508C147.26 33.3208 147.356 33.191 147.454 33.0615C147.504 32.9943 147.554 32.9272 147.606 32.858C147.917 32.4441 148.233 32.0333 148.547 31.6219C149.118 30.8742 149.681 30.1212 150.238 29.3625C150.612 28.8524 150.99 28.3456 151.371 27.8405C152.462 26.5817 152.462 26.5817 152.909 25.0786C152.837 24.6039 152.661 24.3691 152.316 24.0406C151.984 23.93 151.728 23.926 151.378 23.9214C151.313 23.9205 151.249 23.9195 151.182 23.9185C150.969 23.9154 150.755 23.9129 150.542 23.9105C150.394 23.9084 150.246 23.9064 150.098 23.9042C149.708 23.8988 149.318 23.8939 148.929 23.8891C148.531 23.8842 148.134 23.8787 147.736 23.8732C146.956 23.8626 146.176 23.8526 145.396 23.8429C145.396 22.9294 145.396 22.016 145.396 21.0748C146.304 21.0577 147.213 21.041 148.121 21.0254C148.189 21.0242 148.257 21.023 148.327 21.0218C151.206 20.9726 154.084 20.9644 156.963 20.976Z" fill="#AADCE7"/>
<path d="M165.24 11.0643C165.478 11.062 165.478 11.062 165.721 11.0597C165.895 11.0594 166.069 11.0592 166.249 11.0589C166.434 11.0576 166.619 11.0563 166.805 11.0549C167.308 11.0514 167.811 11.0497 168.315 11.0486C168.629 11.0478 168.944 11.0467 169.259 11.0455C170.244 11.0419 171.229 11.0394 172.215 11.0384C173.351 11.0372 174.487 11.0325 175.623 11.0249C176.502 11.0192 177.381 11.0165 178.26 11.0162C178.784 11.0159 179.309 11.0144 179.833 11.0097C180.327 11.0053 180.821 11.0047 181.315 11.0071C181.581 11.0074 181.848 11.0037 182.114 11C183.025 11.0083 183.609 11.0757 184.303 11.6911C185.354 12.7729 185.484 13.6938 185.492 15.1566C185.494 15.3186 185.495 15.4807 185.497 15.6476C185.5 15.9897 185.501 16.3318 185.502 16.6739C185.504 17.1942 185.512 17.714 185.522 18.2341C185.523 18.5676 185.524 18.9011 185.525 19.2346C185.529 19.3885 185.532 19.5425 185.536 19.7011C185.526 20.8455 185.196 21.5399 184.498 22.4372C184.406 22.5571 184.406 22.5571 184.312 22.6794C184.149 22.8807 183.978 23.0752 183.806 23.2693C183.68 23.4144 183.555 23.5598 183.429 23.7054C183.366 23.7786 183.303 23.8518 183.238 23.9272C182.863 24.3706 182.508 24.8304 182.151 25.2886C181.777 25.7699 181.398 26.2474 181.014 26.7222C179.863 28.1498 178.765 29.6154 177.694 31.1038C177.639 31.1793 177.585 31.2548 177.528 31.3325C177.269 31.6956 177.047 32.0537 176.853 32.4549C176.971 32.4509 177.088 32.4469 177.209 32.4428C178.258 32.4076 179.307 32.3752 180.356 32.3469C180.926 32.3315 181.496 32.3124 182.067 32.2912C182.306 32.2851 182.546 32.2792 182.785 32.2737C182.89 32.2687 182.995 32.2637 183.103 32.2585C183.918 32.2466 184.494 32.5174 185.158 32.9822C185.721 33.5604 185.98 34.1443 185.985 34.9513C185.986 35.0771 185.987 35.203 185.988 35.3327C185.988 35.5345 185.988 35.5345 185.988 35.7404C185.989 35.8804 185.989 36.0203 185.99 36.1645C185.991 36.4602 185.991 36.7559 185.99 37.0516C185.99 37.502 185.993 37.9523 185.996 38.4027C185.996 38.6906 185.996 38.9785 185.996 39.2664C185.998 39.4002 185.999 39.534 186 39.6718C185.994 40.5603 185.923 41.3695 185.331 42.0803C185.255 42.1391 185.178 42.1979 185.1 42.2585C185.024 42.3193 184.948 42.3801 184.87 42.4428C184.336 42.8029 183.966 42.9013 183.316 42.9033C183.074 42.905 183.074 42.905 182.828 42.9068C182.65 42.9067 182.472 42.9065 182.293 42.9064C182.105 42.9072 181.917 42.9081 181.729 42.9091C181.219 42.9114 180.709 42.912 180.198 42.9122C179.879 42.9124 179.56 42.9129 179.241 42.9136C178.127 42.9161 177.013 42.9172 175.899 42.9169C174.862 42.9168 173.825 42.9196 172.788 42.9237C171.896 42.9272 171.005 42.9286 170.114 42.9284C169.582 42.9284 169.05 42.9291 168.518 42.9319C168.017 42.9345 167.516 42.9345 167.016 42.9326C166.833 42.9323 166.649 42.9329 166.466 42.9345C165.318 42.9439 164.402 42.9214 163.537 42.0819C163.449 41.9531 163.449 41.9531 163.359 41.8218C163.298 41.7364 163.237 41.6509 163.175 41.5628C162.87 41.0421 162.717 40.5886 162.707 39.9847C162.703 39.7984 162.703 39.7984 162.699 39.6084C162.698 39.4755 162.697 39.3426 162.696 39.2057C162.694 38.9977 162.694 38.9977 162.691 38.7854C162.689 38.4919 162.687 38.1985 162.686 37.905C162.684 37.4602 162.675 37.0159 162.667 36.5712C162.639 33.8117 162.639 33.8117 163.54 32.5867C163.616 32.477 163.691 32.3672 163.769 32.2541C164.008 31.9201 164.257 31.5983 164.512 31.2768C164.7 31.0359 164.887 30.7949 165.074 30.5539C165.169 30.4324 165.265 30.3108 165.363 30.1855C165.822 29.5971 166.276 29.0037 166.729 28.4099C166.816 28.2954 166.904 28.1809 166.994 28.0629C167.63 27.2275 168.246 26.3791 168.855 25.5244C169.401 24.7643 169.975 24.0308 170.567 23.3061C170.91 22.8941 170.91 22.8941 171.185 22.4372C171.112 22.437 171.039 22.4368 170.964 22.4366C170.198 22.434 169.433 22.4268 168.667 22.4171C168.382 22.414 168.097 22.4121 167.812 22.4114C167.4 22.4102 166.989 22.4048 166.577 22.3986C166.451 22.3991 166.326 22.3996 166.196 22.4001C165.188 22.3786 164.266 22.1244 163.547 21.3802C162.755 20.4009 162.708 19.4467 162.705 18.2279C162.704 18.0762 162.703 17.9244 162.703 17.7681C162.701 17.4478 162.701 17.1275 162.701 16.8072C162.7 16.3183 162.695 15.8296 162.69 15.3407C162.689 15.0289 162.689 14.7172 162.689 14.4054C162.687 14.2598 162.685 14.1143 162.683 13.9643C162.688 13.1104 162.766 12.5857 163.277 11.8922C163.907 11.3095 164.382 11.0692 165.24 11.0643Z" fill="black"/>
<path d="M181.862 14.7921C182.188 19.5867 182.188 19.5867 181.112 20.8225C180.88 21.072 180.642 21.3094 180.393 21.5417C179.972 21.9496 179.621 22.4142 179.259 22.8738C179.116 23.0493 178.973 23.2245 178.829 23.3995C178.281 24.0736 177.765 24.7702 177.249 25.4689C176.146 26.9486 175.039 28.4258 173.889 29.8697C172.079 31.9774 172.079 31.9774 171.449 34.5639C171.6 35.1554 171.872 35.4092 172.372 35.7502C172.835 35.9045 173.207 35.9032 173.695 35.9091C173.789 35.9104 173.883 35.9117 173.98 35.9131C174.29 35.9172 174.6 35.9205 174.911 35.9238C175.126 35.9265 175.341 35.9292 175.556 35.9321C176.122 35.9393 176.689 35.9459 177.255 35.9522C177.833 35.9588 178.41 35.9662 178.988 35.9734C180.122 35.9876 181.256 36.0009 182.389 36.0139C182.389 37.0578 182.389 38.1018 182.389 39.1774C177.039 39.1774 171.689 39.1774 166.177 39.1774C166.177 34.3696 166.177 34.3696 167.514 32.9595C167.6 32.8757 167.686 32.7918 167.775 32.7054C168.162 32.3124 168.475 31.8722 168.796 31.4252C168.925 31.2519 169.054 31.0789 169.183 30.9061C169.25 30.8166 169.317 30.7271 169.386 30.6348C169.801 30.0829 170.222 29.5352 170.642 28.9866C171.403 27.9898 172.154 26.9858 172.896 25.9741C173.395 25.294 173.899 24.6183 174.407 23.9448C175.861 22.2664 175.861 22.2664 176.458 20.2623C176.362 19.6293 176.127 19.3163 175.667 18.8783C175.225 18.7308 174.882 18.7255 174.416 18.7194C174.33 18.7181 174.244 18.7168 174.155 18.7154C173.87 18.7113 173.586 18.708 173.301 18.7048C173.104 18.702 172.906 18.6993 172.709 18.6965C172.189 18.6892 171.67 18.6827 171.15 18.6763C170.62 18.6697 170.09 18.6623 169.56 18.6551C168.52 18.6409 167.48 18.6276 166.44 18.6146C166.44 17.3967 166.44 16.1788 166.44 14.9239C167.651 14.9011 168.862 14.8789 170.073 14.858C170.164 14.8564 170.255 14.8549 170.349 14.8533C174.187 14.7876 178.023 14.7766 181.862 14.7921Z" fill="#AADCE7"/>
</svg>
