<svg width="350" height="350" viewBox="0 0 350 350" fill="none" xmlns="http://www.w3.org/2000/svg">
<path d="M119.517 97.553C119.732 97.6593 119.947 97.7655 120.168 97.875C123.653 99.6091 126.959 101.638 130.271 103.676C131.287 104.302 132.306 104.923 133.327 105.54C133.592 105.701 133.858 105.862 134.132 106.028C134.625 106.326 135.118 106.624 135.611 106.922C135.834 107.058 136.056 107.193 136.286 107.332C136.499 107.461 136.711 107.59 136.931 107.723C137.749 108.241 138.532 108.806 139.31 109.383C140.266 109.859 141.101 109.75 142.112 109.48C142.346 109.395 142.581 109.309 142.822 109.221C143.091 109.125 143.36 109.03 143.637 108.931C143.926 108.828 144.215 108.724 144.513 108.618C154.054 105.327 164.031 103.877 174.099 103.931C174.371 103.932 174.643 103.933 174.923 103.934C185.672 103.975 196.013 105.703 206.266 108.96C206.511 109.036 206.756 109.112 207.008 109.191C207.647 109.407 207.647 109.407 208.471 109.81C209.693 109.999 210.451 109.246 211.416 108.553C211.877 108.239 212.338 107.925 212.8 107.613C213.049 107.444 213.297 107.275 213.553 107.101C214.968 106.159 216.42 105.278 217.874 104.398C218.027 104.306 218.179 104.214 218.336 104.119C222.658 101.504 227.038 98.9648 231.596 96.7806C232.195 96.4899 232.788 96.1896 233.382 95.8891C237.609 93.7792 242.113 91.8492 246.897 91.8194C247.107 91.8141 247.318 91.8088 247.535 91.8033C249.603 91.7901 251.29 92.2981 252.832 93.7279C256.839 98.1889 257.311 105.279 257.897 110.953C257.925 111.224 257.925 111.224 257.954 111.501C258.765 119.75 257.989 128.187 257.14 136.4C257.108 136.716 257.108 136.716 257.076 137.039C256.682 140.911 256.682 140.911 256.279 142.651C255.464 146.191 256.533 148.466 258.068 151.689C261.847 159.949 262.706 169.006 262.536 177.953C262.814 177.952 262.814 177.952 263.098 177.951C268.31 177.942 268.31 177.942 269.413 178.838C270.304 179.827 270.358 180.442 270.337 181.736C270.225 182.685 269.88 183.186 269.235 183.88C267.051 185.217 264.451 184.652 262.02 184.395C261.993 184.61 261.993 184.61 261.966 184.83C261.58 187.85 261.099 190.755 260.216 193.672C260.533 193.737 260.85 193.803 261.177 193.87C261.597 193.96 262.018 194.049 262.439 194.139C262.647 194.182 262.855 194.224 263.07 194.268C264.57 194.591 265.845 194.978 267.013 196.023C267.598 197.059 267.669 197.92 267.432 199.083C266.989 199.939 266.376 200.481 265.563 201C263.732 201.375 261.825 200.742 260.071 200.227C259.861 200.167 259.65 200.106 259.433 200.044C258.92 199.897 258.409 199.748 257.897 199.599C257.853 199.742 257.81 199.885 257.765 200.032C257.318 201.439 256.775 202.728 256.077 204.028C255.976 204.216 255.875 204.404 255.772 204.598C254.143 207.569 252.14 210.163 249.783 212.596C249.514 212.874 249.248 213.153 248.983 213.434C243.913 218.802 236.941 223.736 229.809 225.883C230.122 226.122 230.122 226.122 230.442 226.365C233.239 228.501 235.945 230.697 238.516 233.102C239.046 233.597 239.58 234.087 240.122 234.569C241.333 235.649 242.479 236.727 243.522 237.972C243.853 238.359 244.196 238.736 244.546 239.105C247.514 242.234 249.954 245.785 251.97 249.591C252.091 249.808 252.211 250.026 252.336 250.25C254.515 254.334 255.581 258.993 254.299 263.527C253.095 266.911 251.011 269.079 247.847 270.722C242.13 273.059 236.443 273.1 230.729 270.717C230.335 270.549 229.943 270.378 229.551 270.206C229.598 270.389 229.645 270.571 229.694 270.759C230.334 273.371 230.717 276 231.081 278.662C231.131 279.022 231.131 279.022 231.182 279.389C236.111 315.193 236.111 315.193 230.848 322.158C227.604 325.674 222.619 327.331 217.955 327.671C216.505 327.721 215.057 327.734 213.606 327.736C213.305 327.736 213.305 327.736 212.998 327.736C207.439 327.732 201.082 327.312 196.793 323.309C194.578 320.868 193.645 317.975 192.911 314.835C192.868 314.655 192.824 314.475 192.78 314.29C192.509 313.057 192.386 311.844 192.301 310.584C192.279 310.261 192.257 309.938 192.235 309.604C192.219 309.359 192.202 309.113 192.186 308.86C192.02 308.875 191.855 308.89 191.685 308.906C186.498 309.368 181.343 309.456 176.139 309.442C175.031 309.439 173.923 309.441 172.815 309.444C167.566 309.456 162.371 309.322 157.14 308.86C157.124 309.087 157.107 309.314 157.091 309.548C157.058 309.997 157.058 309.997 157.024 310.455C156.992 310.899 156.992 310.899 156.959 311.352C156.859 312.474 156.672 313.558 156.431 314.658C156.386 314.866 156.341 315.074 156.294 315.288C155.421 319.129 153.951 322.223 150.698 324.579C146.352 327.218 141.455 327.721 136.492 327.733C135.889 327.736 135.286 327.744 134.682 327.752C128.953 327.792 123.394 326.694 119.066 322.695C115.724 319.156 115.786 315.1 115.829 310.519C115.83 310.244 115.832 309.969 115.833 309.685C115.886 299.61 116.806 289.63 118.116 279.644C118.141 279.447 118.167 279.25 118.194 279.047C118.572 276.175 119.026 273.319 119.517 270.464C119.196 270.569 118.876 270.675 118.546 270.784C112.506 272.752 106.995 273.392 101.108 270.56C98.0722 268.998 96.0521 266.67 94.8289 263.481C93.4181 258.466 95.2776 253.148 97.6689 248.758C99.6738 245.219 102.068 242.071 104.819 239.082C105.291 238.568 105.745 238.043 106.197 237.512C108.068 235.367 110.131 233.389 112.302 231.552C112.572 231.318 112.842 231.082 113.112 230.847C115.105 229.114 117.147 227.469 119.259 225.883C119.111 225.817 118.964 225.751 118.811 225.683C118.327 225.464 117.843 225.244 117.36 225.022C116.687 224.715 116.014 224.415 115.336 224.12C110.684 222.049 106.544 219.237 102.767 215.833C102.551 215.648 102.335 215.463 102.113 215.273C100.834 214.172 99.712 213.015 98.6439 211.71C98.435 211.462 98.226 211.215 98.0108 210.959C95.2362 207.603 93.0003 203.804 91.1709 199.856C89.8084 199.965 88.6125 200.254 87.3055 200.662C85.8593 201.086 84.8926 201.31 83.4401 200.887C82.4249 200.269 81.938 199.72 81.6363 198.568C81.5086 197.568 81.5933 197.106 82.0551 196.2C83.2937 194.734 84.9572 194.487 86.7579 194.139C86.9845 194.093 87.211 194.048 87.4444 194.001C87.999 193.889 88.554 193.779 89.1093 193.672C89.073 193.51 89.0367 193.348 88.9992 193.181C88.3473 190.262 87.7036 187.361 87.3055 184.395C87.0249 184.405 87.0249 184.405 86.7387 184.415C85.8862 184.442 85.0338 184.459 84.181 184.475C83.8867 184.486 83.5924 184.497 83.2891 184.508C80.84 184.544 80.84 184.544 79.8989 183.778C79.1301 182.891 79.0196 182.483 79.0111 181.335C79.0056 181.001 79.0056 181.001 79 180.66C79.0873 179.71 79.3571 179.173 80.074 178.549C81.7239 177.842 83.5693 177.942 85.3396 177.948C85.7494 177.949 85.7494 177.949 86.1675 177.95C86.373 177.951 86.5784 177.952 86.7901 177.953C86.7861 177.74 86.782 177.528 86.7779 177.309C86.6236 167.946 87.942 158.802 91.8272 150.177C91.9352 149.937 92.0432 149.698 92.1545 149.45C92.3608 149.002 92.5731 148.557 92.7928 148.115C93.5675 146.458 93.537 145.207 93.2324 143.422C93.1977 143.202 93.1629 142.983 93.1272 142.757C93.0523 142.298 92.975 141.839 92.8954 141.381C91.0163 130.381 90.2657 118.7 91.6863 107.603C91.7125 107.387 91.7387 107.172 91.7658 106.95C92.3555 102.252 93.3387 96.4359 97.0978 93.1723C103.837 88.9077 113.428 94.5215 119.517 97.553Z" fill="#FBE9CC"/>
<path d="M256.521 148.028C256.521 164.747 221.592 136.235 176.415 136.235C131.238 136.235 93.8821 164.747 93.8821 148.028C93.8821 131.309 131.238 109.701 176.415 109.701C221.592 109.701 256.521 131.309 256.521 148.028Z" fill="#AADCE7"/>
<path d="M99.0216 97.5471L119.951 101.998L140.483 119.128L99.8807 142.307L93.6142 118.208L99.0216 97.5471Z" fill="#AADCE7"/>
<path d="M250.276 96L224.34 104.89L208.686 115.665L250.276 139.408L254.031 120.962L250.276 96Z" fill="#AADCE7"/>
<path d="M119.517 97.553C119.732 97.6593 119.947 97.7655 120.168 97.875C123.653 99.6091 126.959 101.638 130.271 103.676C131.287 104.302 132.306 104.923 133.327 105.54C133.592 105.701 133.858 105.862 134.132 106.028C134.625 106.326 135.118 106.624 135.611 106.922C135.834 107.058 136.056 107.193 136.286 107.332C136.499 107.461 136.711 107.59 136.931 107.723C137.749 108.241 138.532 108.806 139.31 109.383C140.266 109.859 141.101 109.75 142.112 109.48C142.346 109.395 142.581 109.309 142.822 109.221C143.091 109.125 143.36 109.03 143.637 108.931C143.926 108.828 144.215 108.724 144.513 108.618C154.054 105.327 164.031 103.877 174.099 103.931C174.371 103.932 174.643 103.933 174.923 103.934C185.672 103.975 196.013 105.703 206.266 108.96C206.511 109.036 206.756 109.112 207.008 109.191C207.647 109.407 207.647 109.407 208.471 109.81C209.693 109.999 210.451 109.246 211.416 108.553C211.877 108.239 212.338 107.925 212.8 107.613C213.049 107.444 213.297 107.275 213.553 107.101C214.968 106.159 216.42 105.278 217.874 104.398C218.027 104.306 218.179 104.214 218.336 104.119C222.658 101.504 227.038 98.9648 231.596 96.7806C232.195 96.4899 232.788 96.1896 233.382 95.8891C237.609 93.7792 242.113 91.8492 246.897 91.8194C247.107 91.8141 247.318 91.8088 247.535 91.8033C249.603 91.7901 251.29 92.2981 252.832 93.7279C256.839 98.1889 257.311 105.279 257.897 110.953C257.925 111.224 257.925 111.224 257.954 111.501C258.765 119.75 257.989 128.187 257.14 136.4C257.108 136.716 257.108 136.716 257.076 137.039C256.682 140.911 256.682 140.911 256.279 142.651C255.464 146.191 256.533 148.466 258.068 151.689C261.847 159.949 262.706 169.006 262.536 177.953C262.814 177.952 262.814 177.952 263.098 177.951C268.31 177.942 268.31 177.942 269.413 178.838C270.304 179.827 270.358 180.442 270.337 181.736C270.225 182.685 269.88 183.186 269.235 183.88C267.051 185.217 264.451 184.652 262.02 184.395C261.993 184.61 261.993 184.61 261.966 184.83C261.58 187.85 261.099 190.755 260.216 193.672C260.533 193.737 260.85 193.803 261.177 193.87C261.597 193.96 262.018 194.049 262.439 194.139C262.647 194.182 262.855 194.224 263.07 194.268C264.57 194.591 265.845 194.978 267.013 196.023C267.598 197.059 267.669 197.92 267.432 199.083C266.989 199.939 266.376 200.481 265.563 201C263.732 201.375 261.825 200.742 260.071 200.227C259.861 200.167 259.65 200.106 259.433 200.044C258.92 199.897 258.409 199.748 257.897 199.599C257.853 199.742 257.81 199.885 257.765 200.032C257.318 201.439 256.775 202.728 256.077 204.028C255.976 204.216 255.875 204.404 255.772 204.598C254.143 207.569 252.14 210.163 249.783 212.596C249.514 212.874 249.248 213.153 248.983 213.434C243.913 218.802 236.941 223.736 229.809 225.883C230.122 226.122 230.122 226.122 230.442 226.365C233.239 228.501 235.945 230.697 238.516 233.102C239.046 233.597 239.58 234.087 240.122 234.569C241.333 235.649 242.479 236.727 243.522 237.972C243.853 238.359 244.196 238.736 244.546 239.105C247.514 242.234 249.954 245.785 251.97 249.591C252.091 249.808 252.211 250.026 252.336 250.25C254.515 254.334 255.581 258.993 254.299 263.527C253.095 266.911 251.011 269.079 247.847 270.722C242.13 273.059 236.443 273.1 230.729 270.717C230.335 270.549 229.943 270.378 229.551 270.206C229.598 270.389 229.645 270.571 229.694 270.759C230.334 273.371 230.717 276 231.081 278.662C231.131 279.022 231.131 279.022 231.182 279.389C236.111 315.193 236.111 315.193 230.848 322.158C227.604 325.674 222.619 327.331 217.955 327.671C216.505 327.721 215.057 327.734 213.606 327.736C213.305 327.736 213.305 327.736 212.998 327.736C207.439 327.732 201.082 327.312 196.793 323.309C194.578 320.868 193.645 317.975 192.911 314.835C192.868 314.655 192.824 314.475 192.78 314.29C192.509 313.057 192.386 311.844 192.301 310.584C192.279 310.261 192.257 309.938 192.235 309.604C192.219 309.359 192.202 309.113 192.186 308.86C192.02 308.875 191.855 308.89 191.685 308.906C186.498 309.368 181.343 309.456 176.139 309.442C175.031 309.439 173.923 309.441 172.815 309.444C167.566 309.456 162.371 309.322 157.14 308.86C157.124 309.087 157.107 309.314 157.091 309.548C157.058 309.997 157.058 309.997 157.024 310.455C156.992 310.899 156.992 310.899 156.959 311.352C156.859 312.474 156.672 313.558 156.431 314.658C156.386 314.866 156.341 315.074 156.294 315.288C155.421 319.129 153.951 322.223 150.698 324.579C146.352 327.218 141.455 327.721 136.492 327.733C135.889 327.736 135.286 327.744 134.682 327.752C128.953 327.792 123.394 326.694 119.066 322.695C115.724 319.156 115.786 315.1 115.829 310.519C115.83 310.244 115.832 309.969 115.833 309.685C115.886 299.61 116.806 289.63 118.116 279.644C118.141 279.447 118.167 279.25 118.194 279.047C118.572 276.175 119.026 273.319 119.517 270.464C119.196 270.569 118.876 270.675 118.546 270.784C112.506 272.752 106.995 273.392 101.108 270.56C98.0722 268.998 96.0521 266.67 94.8289 263.481C93.4181 258.466 95.2776 253.148 97.6689 248.758C99.6738 245.219 102.068 242.071 104.819 239.082C105.291 238.568 105.745 238.043 106.197 237.512C108.068 235.367 110.131 233.389 112.302 231.552C112.572 231.318 112.842 231.082 113.112 230.847C115.105 229.114 117.147 227.469 119.259 225.883C119.111 225.817 118.964 225.751 118.811 225.683C118.327 225.464 117.843 225.244 117.36 225.022C116.687 224.715 116.014 224.415 115.336 224.12C110.684 222.049 106.544 219.237 102.767 215.833C102.551 215.648 102.335 215.463 102.113 215.273C100.834 214.172 99.712 213.015 98.6439 211.71C98.435 211.462 98.226 211.215 98.0108 210.959C95.2362 207.603 93.0003 203.804 91.1709 199.856C89.8084 199.965 88.6125 200.254 87.3055 200.662C85.8593 201.086 84.8926 201.31 83.4401 200.887C82.4249 200.269 81.938 199.72 81.6363 198.568C81.5086 197.568 81.5933 197.106 82.0551 196.2C83.2937 194.734 84.9572 194.487 86.7579 194.139C86.9845 194.093 87.211 194.048 87.4444 194.001C87.999 193.889 88.554 193.779 89.1093 193.672C89.073 193.51 89.0367 193.348 88.9992 193.181C88.3473 190.262 87.7036 187.361 87.3055 184.395C87.0249 184.405 87.0249 184.405 86.7387 184.415C85.8862 184.442 85.0338 184.459 84.181 184.475C83.8867 184.486 83.5924 184.497 83.2891 184.508C80.84 184.544 80.84 184.544 79.8989 183.778C79.1301 182.891 79.0196 182.483 79.0111 181.335C79.0056 181.001 79.0056 181.001 79 180.66C79.0873 179.71 79.3571 179.173 80.074 178.549C81.7239 177.842 83.5693 177.942 85.3396 177.948C85.7494 177.949 85.7494 177.949 86.1675 177.95C86.373 177.951 86.5784 177.952 86.7901 177.953C86.7861 177.74 86.782 177.528 86.7779 177.309C86.6236 167.946 87.942 158.802 91.8272 150.177C91.9352 149.937 92.0432 149.698 92.1545 149.45C92.3608 149.002 92.5731 148.557 92.7928 148.115C93.5675 146.458 93.537 145.207 93.2324 143.422C93.1977 143.202 93.1629 142.983 93.1272 142.757C93.0523 142.298 92.975 141.839 92.8954 141.381C91.0163 130.381 90.2657 118.7 91.6863 107.603C91.7125 107.387 91.7387 107.172 91.7658 106.95C92.3555 102.252 93.3387 96.4359 97.0978 93.1723C103.837 88.9077 113.428 94.5215 119.517 97.553ZM101.221 99.2119C100.062 100.697 99.5701 102.167 99.1271 103.979C99.0862 104.143 99.0453 104.307 99.0032 104.476C97.9773 108.973 98.0351 113.535 98.048 118.12C98.0485 118.466 98.049 118.813 98.0494 119.159C98.0635 126.56 98.5088 133.776 99.771 141.07C100.294 144.193 100.718 147.046 99.1754 149.913C95.0553 158.319 92.7711 168.565 93.2324 177.953C93.769 178.489 94.9353 178.282 95.6805 178.307C97.4048 178.384 99.0987 178.523 100.802 178.806C101.07 178.847 101.07 178.847 101.344 178.889C102.499 179.096 103.238 179.426 104.055 180.272C104.431 181.208 104.451 182.165 104.141 183.125C103.772 183.845 103.423 184.321 102.702 184.699C100.152 185.461 96.9028 184.845 94.2632 184.653C94.179 186.23 94.4897 187.593 94.8913 189.114C94.9506 189.347 95.0099 189.581 95.071 189.821C95.3583 191.003 95.3583 191.003 95.8093 192.126C96.255 192.089 96.7006 192.051 97.1461 192.013C97.3942 191.992 97.6424 191.971 97.898 191.95C98.6262 191.883 98.6262 191.883 99.26 191.733C100.14 191.572 100.987 191.566 101.881 191.562C102.216 191.558 102.552 191.555 102.897 191.551C104.17 191.635 104.17 191.635 104.829 192.126C105.301 192.839 105.432 193.451 105.457 194.3C105.472 194.586 105.472 194.586 105.488 194.879C105.268 195.789 104.834 196.285 104.055 196.764C103.058 197.1 102.045 197.296 101.011 197.489C100.735 197.545 100.458 197.6 100.172 197.658C99.4919 197.794 98.8108 197.925 98.1285 198.053C99.2125 201.587 101.183 204.521 103.54 207.329C103.713 207.536 103.713 207.536 103.89 207.747C109.904 214.812 118.339 218.969 127.074 221.645C131.053 222.871 131.053 222.871 131.886 224.337C132.049 225.643 131.893 226.379 131.113 227.429C130.488 227.774 130.488 227.774 129.744 228.041C125.021 229.889 121.003 232.597 117.332 236.093C116.806 236.589 116.273 237.062 115.726 237.533C112.717 240.154 109.798 243.041 107.405 246.241C107.174 246.542 106.943 246.843 106.712 247.144C103.834 250.934 100.49 255.671 100.963 260.672C101.255 262.325 102.13 263.286 103.4 264.341C106.102 266.213 109.423 266.471 112.593 265.916C114.524 265.524 116.352 264.938 118.164 264.166C118.333 264.095 118.502 264.024 118.676 263.951C119.88 263.406 120.978 262.754 121.522 261.494C121.69 260.941 121.827 260.389 121.956 259.826C122.033 259.516 122.033 259.516 122.111 259.199C122.22 258.759 122.326 258.317 122.431 257.876C122.594 257.189 122.762 256.504 122.932 255.819C123.155 254.921 123.377 254.023 123.597 253.125C123.964 251.635 124.353 250.151 124.767 248.673C124.85 248.364 124.85 248.364 124.934 248.049C125.341 246.615 125.886 245.417 127.087 244.469C127.918 244.113 128.412 244.051 129.309 244.179C130.091 244.6 130.671 244.967 131.21 245.677C131.728 247.491 131.12 249.254 130.654 251.015C130.5 251.613 130.346 252.212 130.193 252.81C130.111 253.123 130.03 253.436 129.947 253.758C126.375 267.574 123.963 281.483 122.867 295.718C122.852 295.914 122.836 296.11 122.82 296.312C122.474 300.781 122.299 305.249 122.261 309.731C122.257 310.197 122.251 310.663 122.244 311.128C122.119 314.85 122.119 314.85 123.774 318.074C126.658 320.985 131.64 321.246 135.491 321.278C142.08 321.346 142.08 321.346 147.698 318.397C150.284 315.226 150.539 310.5 150.9 306.579C151.053 305.116 151.211 304.057 152.244 302.933C153.52 302.039 154.577 302.092 156.061 302.224C156.256 302.238 156.45 302.252 156.651 302.266C157.415 302.322 158.176 302.388 158.937 302.477C163.908 303.056 168.937 302.993 173.935 302.997C174.315 302.997 174.695 302.998 175.075 302.998C180.95 303.007 186.775 302.858 192.621 302.231C194.239 302.096 195.436 302.008 196.824 302.933C198.354 304.803 198.475 306.933 198.725 309.246C199.353 314.603 199.353 314.603 202.123 319.103C206.086 322.098 213.103 321.598 217.745 321.004C220.721 320.568 223.795 319.992 225.879 317.637C227.148 315.91 227.279 314.124 227.268 312.027C227.267 311.828 227.267 311.629 227.266 311.425C227.24 308.451 227.072 305.482 226.91 302.514C226.893 302.197 226.875 301.88 226.858 301.554C226.079 287.369 224.285 273.27 220.829 259.476C220.785 259.301 220.741 259.127 220.696 258.947C220.256 257.193 219.811 255.441 219.356 253.692C219.227 253.195 219.099 252.698 218.971 252.201C218.814 251.589 218.654 250.977 218.492 250.366C218.106 248.865 217.82 247.534 217.955 245.983C218.514 245.065 219.028 244.579 220.016 244.179C220.579 244.14 220.579 244.14 221.16 244.195C221.351 244.209 221.542 244.223 221.739 244.237C222.627 244.535 223.018 245.014 223.624 245.725C223.94 246.413 224.133 247.119 224.325 247.85C224.382 248.057 224.44 248.263 224.499 248.475C224.684 249.141 224.863 249.809 225.041 250.477C225.167 250.934 225.294 251.391 225.42 251.849C226.142 254.479 226.831 257.117 227.32 259.803C227.599 261.215 227.989 261.984 229.036 262.991C232.967 265.503 237.733 266.718 242.339 265.793C244.779 265.162 246.478 264.175 247.832 262.023C248.802 259.966 248.365 258.014 247.69 255.947C245.7 250.702 242.321 246.479 238.57 242.375C238.35 242.128 238.13 241.881 237.903 241.627C236.25 239.779 234.505 238.084 232.643 236.449C232.514 236.333 232.384 236.218 232.251 236.1C228.516 232.786 224.502 229.775 219.727 228.17C218.912 227.884 218.457 227.677 217.778 227.123C217.31 226.122 217.142 225.158 217.44 224.079C218.337 222.955 219.129 222.57 220.5 222.195C220.869 222.088 221.237 221.98 221.606 221.871C221.805 221.813 222.005 221.754 222.21 221.695C230.443 219.228 237.419 215.506 243.724 209.649C243.899 209.491 244.074 209.333 244.254 209.171C247.363 206.242 249.951 202.122 251.197 198.053C251.017 198.02 250.836 197.988 250.65 197.955C249.827 197.805 249.006 197.647 248.185 197.489C247.901 197.438 247.617 197.388 247.324 197.335C244.625 196.805 244.625 196.805 243.724 195.476C243.505 194.681 243.562 193.962 243.724 193.156C244.186 192.417 244.493 191.999 245.27 191.61C247.99 191.381 250.599 191.882 253.259 192.383C253.794 191.012 254.242 189.657 254.595 188.228C254.641 188.054 254.687 187.879 254.734 187.7C254.994 186.662 255.111 185.721 255.062 184.653C254.807 184.671 254.551 184.69 254.287 184.709C252.518 184.833 250.748 184.937 248.975 184.975C248.695 184.981 248.415 184.988 248.127 184.995C247.188 184.895 246.586 184.633 245.786 184.137C245.207 183.167 245.013 182.53 245.013 181.399C245.327 180.337 245.688 179.919 246.559 179.241C247.696 178.784 248.727 178.636 249.947 178.563C250.116 178.552 250.286 178.541 250.46 178.53C250.996 178.497 251.531 178.466 252.067 178.436C252.432 178.414 252.798 178.391 253.163 178.368C254.054 178.314 254.945 178.261 255.836 178.21C255.929 173.845 255.866 169.625 255.062 165.326C255.021 165.101 254.98 164.876 254.937 164.645C253.913 159.29 252.221 153.993 249.842 149.084C248.622 146.453 249.211 143.95 249.642 141.172C250.812 133.51 251.264 125.835 251.278 118.088C251.279 117.833 251.28 117.579 251.281 117.317C251.289 112.841 251.186 108.276 250.086 103.915C250.037 103.698 249.989 103.482 249.939 103.259C249.512 101.498 248.879 99.8733 247.332 98.8415C245.909 98.7487 244.687 98.907 243.321 99.3247C243.136 99.3808 242.95 99.4369 242.759 99.4947C232.294 102.816 222.17 109.271 213.268 115.577C211.546 116.768 209.994 117.322 207.905 117.138C207.112 116.872 207.112 116.872 206.294 116.493C201.345 114.358 195.922 113.217 190.64 112.241C190.433 112.202 190.227 112.163 190.014 112.122C174.597 109.213 157.838 110.955 143.188 116.444C141.483 117.078 140.099 117.491 138.344 116.783C135.848 115.582 133.546 113.938 131.226 112.435C127.343 109.925 123.383 107.529 119.314 105.334C118.925 105.124 118.536 104.913 118.149 104.7C109.976 99.843 109.976 99.843 101.221 99.2119Z" fill="black"/>
<path d="M174.437 238.639C174.739 238.64 175.041 238.642 175.352 238.644C181.152 238.765 185.841 240.827 189.867 244.952C190.073 245.156 190.279 245.36 190.492 245.57C196.631 251.954 198.516 261.633 198.479 270.18C198.377 275.052 197.003 279.101 193.474 282.575C193.31 282.739 193.146 282.903 192.976 283.072C187.039 288.627 178.507 288.546 170.899 288.299C165.819 288.087 160.952 286.715 156.882 283.606C156.689 283.46 156.496 283.314 156.297 283.164C152.952 280.446 151.211 276.238 150.741 272.029C150.602 270.311 150.664 268.578 150.698 266.856C150.702 266.58 150.706 266.303 150.711 266.019C151.066 258.394 154.012 250.977 158.944 245.21C159.097 245.03 159.25 244.851 159.408 244.665C163.261 240.507 168.882 238.606 174.437 238.639Z" fill="#F2D3A3"/>
<path d="M192.036 239.455C192.255 239.653 192.475 239.852 192.701 240.056C192.918 240.252 193.135 240.447 193.359 240.649C197.403 244.492 199.975 249.502 201.72 254.744C201.815 255.019 201.91 255.294 202.007 255.578C204.122 262.273 204.736 270.064 203.009 276.906C202.967 277.073 202.926 277.241 202.883 277.414C201.546 282.564 198.042 286.858 193.498 289.568C187.632 292.851 181.441 293.715 174.824 293.72C174.498 293.72 174.498 293.72 174.165 293.721C170.846 293.716 167.606 293.621 164.355 292.883C164.165 292.84 163.975 292.797 163.778 292.753C157.753 291.328 151.988 287.986 148.663 282.666C144.531 275.791 144.577 266.384 146.41 258.748C146.465 258.532 146.519 258.317 146.575 258.094C146.628 257.876 146.682 257.657 146.738 257.432C148.267 251.416 150.963 246.002 155.078 241.344C155.315 241.076 155.315 241.076 155.556 240.802C164.855 230.889 181.947 230.784 192.036 239.455ZM158.019 246.24C153.401 251.995 150.968 259.526 150.698 266.856C150.691 267.031 150.684 267.206 150.676 267.386C150.5 272.369 151.239 276.938 154.305 281.029C154.466 281.258 154.466 281.258 154.629 281.491C157.977 285.871 163.986 287.41 169.159 288.171C170.974 288.389 172.805 288.359 174.631 288.341C174.952 288.339 174.952 288.339 175.28 288.337C182.342 288.294 188.776 287.264 193.99 282.06C194.24 281.813 194.24 281.813 194.496 281.562C198.223 277.631 198.573 272.475 198.452 267.35C198.135 259.033 195.48 250.739 189.609 244.694C189.462 244.531 189.314 244.368 189.162 244.199C185.934 240.725 181.009 238.882 176.346 238.668C168.871 238.477 163.037 240.521 158.019 246.24Z" fill="black"/>
<path d="M232.595 177.228C235.353 179.115 237.026 181.671 237.797 184.91C238.228 188.941 237.364 192.006 234.838 195.184C232.779 197.477 229.869 198.675 226.854 198.889C223.196 199.012 220.213 197.958 217.441 195.543C215.026 193.031 214.009 189.894 214.051 186.478C214.21 183.174 215.505 180.448 217.955 178.21C222.451 174.835 227.693 174.328 232.595 177.228Z" fill="#F4A99C"/>
<path d="M129.052 176.664C129.25 176.763 129.449 176.862 129.653 176.964C132.22 178.41 134.076 181.174 134.946 183.944C135.687 187.095 135.383 190.255 133.808 193.102C132.11 195.674 129.683 197.611 126.732 198.568C123.44 199.21 120.156 199.041 117.205 197.358C114.517 195.531 112.488 193.02 111.786 189.806C111.452 185.39 111.976 182.39 114.83 178.933C118.509 174.902 124.335 174.312 129.052 176.664Z" fill="#F4A99C"/>
<path d="M109.079 107.739C110.788 107.969 112.307 108.668 113.848 109.407C114.007 109.483 114.166 109.558 114.33 109.637C118.485 111.655 122.142 114.469 125.768 117.302C126.162 117.61 126.558 117.914 126.955 118.218C127.683 118.834 127.996 119.258 128.116 120.213C127.996 121.203 127.762 121.417 127.006 122.05C126.771 122.248 126.536 122.446 126.294 122.65C125.129 123.581 123.938 124.481 122.747 125.379C121.205 126.547 119.736 127.782 118.279 129.053C117.547 129.69 116.796 130.301 116.038 130.908C114.913 131.819 113.855 132.784 112.801 133.775C110.633 135.799 110.633 135.799 109.596 136.69C109.407 136.854 109.218 137.018 109.024 137.187C108.436 137.495 108.436 137.495 107.626 137.468C106.89 137.237 106.89 137.237 106.326 136.416C104.402 131.897 104.482 126.394 104.504 121.575C104.506 120.824 104.504 120.072 104.5 119.321C104.493 110.749 104.493 110.749 106.452 108.197C107.252 107.582 108.106 107.712 109.079 107.739Z" fill="#F4A99C"/>
<path d="M242.178 107.86C244.089 109.374 244.341 112.071 244.609 114.363C245.268 121.331 245.694 130.532 242.693 136.98C241.881 137.386 241.24 137.475 240.374 137.237C239.573 136.678 238.896 136.005 238.204 135.319C237.4 134.527 236.574 133.758 235.752 132.985C235.573 132.817 235.395 132.649 235.211 132.476C233.805 131.157 232.351 129.932 230.839 128.733C230.383 128.358 229.926 127.982 229.47 127.606C228.391 126.722 227.299 125.857 226.201 124.997C225.897 124.757 225.592 124.517 225.288 124.277C224.712 123.824 224.132 123.379 223.547 122.938C223.162 122.642 223.162 122.642 222.77 122.34C222.543 122.168 222.315 121.996 222.081 121.819C221.428 121.115 221.329 120.666 221.305 119.714C222.521 117.854 224.428 116.629 226.201 115.334C226.367 115.211 226.533 115.088 226.704 114.962C237.834 106.756 237.834 106.756 242.178 107.86Z" fill="#F4A99C"/>
<path d="M174.727 173.234C174.981 173.226 175.235 173.219 175.497 173.211C177.284 173.196 178.754 173.477 180.332 174.345C181.237 175.25 181.576 175.951 181.701 177.228C181.543 179.154 180.598 180.391 179.237 181.705C178.786 182.076 178.786 182.076 178.029 182.414C177.449 182.794 177.449 182.794 177.392 183.385C177.315 185.553 177.894 187.618 179.301 189.291C180.984 190.64 182.667 191.178 184.809 191.079C187.457 190.75 189.014 189.536 190.688 187.515C191.321 186.779 191.544 186.726 192.524 186.634C193.622 186.727 193.995 186.977 194.763 187.745C195.21 188.64 195.139 189.601 195.02 190.58C193.688 193.145 191.075 195.061 188.413 196.062C185.469 196.968 182.089 196.871 179.278 195.621C177.636 194.739 176.215 193.725 174.92 192.383C174.175 192.724 173.767 193.013 173.149 193.591C170.259 196.142 166.87 196.745 163.146 196.564C159.635 196.226 157.177 194.147 154.957 191.589C154.235 190.685 154.205 189.973 154.213 188.843C154.359 187.919 154.873 187.521 155.594 186.972C156.342 186.598 156.823 186.618 157.655 186.714C158.59 187.357 159.239 188.039 159.942 188.921C161.092 190.26 162.051 190.758 163.825 190.944C165.987 191.051 168.031 191.002 169.767 189.549C171.238 187.843 172.013 186.048 171.977 183.788C171.796 182.958 171.578 182.754 170.894 182.269C170.707 182.154 170.519 182.038 170.326 181.92C169.115 181.142 168.034 179.883 167.705 178.468C167.566 177.173 167.561 176.196 168.124 175.005C169.888 173.101 172.313 173.257 174.727 173.234Z" fill="black"/>
<path d="M213.539 160.141C214.274 160.488 214.94 160.865 215.616 161.309C216.025 161.553 216.025 161.553 216.442 161.8C218.527 163.875 219.313 166.058 219.316 168.902C219.26 171.57 218.331 173.444 216.455 175.365C214.301 177.328 212.092 177.774 209.21 177.73C206.978 177.471 204.986 176.487 203.447 174.892C203.184 174.543 202.934 174.185 202.696 173.82C202.573 173.646 202.45 173.472 202.323 173.292C200.948 170.943 201.047 167.617 201.738 165.061C202.736 162.897 204.537 161.305 206.692 160.236C208.827 159.504 211.372 159.472 213.539 160.141Z" fill="black"/>
<path d="M141.979 159.476C144.162 160.81 145.75 162.535 146.627 164.994C147.328 167.933 147.175 170.938 145.724 173.607C144.222 175.645 142.469 177.072 140.003 177.606C137.219 177.947 135.121 177.656 132.776 176.068C132.453 175.859 132.13 175.649 131.797 175.434C129.928 173.655 129.085 171.314 128.962 168.757C128.935 165.87 129.331 163.709 131.297 161.527C134.184 158.729 138.251 157.706 141.979 159.476Z" fill="black"/>
<path d="M146.948 134.366C147.371 134.578 147.722 134.825 147.939 135.252C148.171 135.97 148.152 136.789 147.835 137.477C147.456 138.126 146.946 138.683 146.44 139.238C146.293 139.399 146.149 139.563 146.005 139.727C144.121 141.836 141.623 143.12 138.959 144.026C138.867 144.058 138.774 144.091 138.679 144.125C137.078 144.654 134.623 145.114 133.014 144.452C132.616 144.218 132.45 143.92 132.262 143.516C132.12 142.91 132.077 142.416 132.351 141.845C133.048 141.091 133.876 141.009 134.859 140.859C138.078 140.329 141.25 139.359 143.325 136.726C143.637 136.294 143.909 135.851 144.173 135.39C144.814 134.275 145.687 133.854 146.948 134.366Z" fill="black"/>
<path d="M203.691 134.282C204.431 134.708 204.876 135.302 205.352 135.989C207.092 138.475 209.818 140.057 212.814 140.614C213.392 140.708 213.971 140.797 214.552 140.875C215.392 140.994 216.275 141.135 216.895 141.745C217.197 142.251 217.228 142.719 217.16 143.292C216.992 143.787 216.772 144.219 216.291 144.47C214.947 145.024 213.083 144.739 211.728 144.363C211.639 144.338 211.55 144.313 211.458 144.288C210.047 143.887 208.702 143.389 207.382 142.756C207.271 142.704 207.16 142.651 207.045 142.597C204.758 141.443 202.196 139.158 201.299 136.759C201.198 136.162 201.22 135.633 201.536 135.106C202.054 134.4 202.791 133.9 203.691 134.282Z" fill="black"/>
</svg>
