<svg width="350" height="350" viewBox="0 0 350 350" fill="none" xmlns="http://www.w3.org/2000/svg">
<path d="M116.502 116.482C116.701 116.58 116.899 116.679 117.104 116.78C120.329 118.385 123.39 120.263 126.455 122.15C127.396 122.729 128.339 123.303 129.284 123.875C129.529 124.024 129.775 124.173 130.029 124.326C130.485 124.602 130.941 124.878 131.398 125.154C131.604 125.279 131.81 125.405 132.023 125.534C132.22 125.653 132.416 125.772 132.619 125.895C133.377 126.375 134.102 126.897 134.821 127.432C135.707 127.873 136.479 127.771 137.415 127.522C137.632 127.442 137.849 127.363 138.072 127.281C138.321 127.193 138.57 127.105 138.827 127.014C139.094 126.918 139.362 126.822 139.637 126.723C148.469 123.678 157.703 122.335 167.022 122.385C167.274 122.386 167.525 122.387 167.785 122.388C177.733 122.426 187.305 124.025 196.795 127.04C197.022 127.111 197.248 127.181 197.482 127.254C198.073 127.454 198.073 127.454 198.835 127.827C199.967 128.002 200.669 127.305 201.562 126.664C201.988 126.373 202.415 126.083 202.843 125.793C203.073 125.637 203.303 125.481 203.539 125.319C204.849 124.448 206.193 123.632 207.539 122.818C207.68 122.732 207.821 122.647 207.966 122.559C211.967 120.139 216.021 117.789 220.239 115.767C220.794 115.498 221.343 115.22 221.893 114.942C225.805 112.989 229.974 111.203 234.402 111.175C234.597 111.17 234.791 111.165 234.992 111.16C236.907 111.148 238.468 111.618 239.895 112.942C243.604 117.071 244.041 123.633 244.583 128.885C244.61 129.136 244.61 129.136 244.637 129.392C245.387 137.027 244.668 144.837 243.883 152.438C243.853 152.731 243.853 152.731 243.823 153.029C243.459 156.614 243.459 156.614 243.086 158.224C242.331 161.5 243.321 163.606 244.742 166.59C248.239 174.234 249.035 182.617 248.877 190.898C249.135 190.898 249.135 190.898 249.398 190.897C254.222 190.888 254.222 190.888 255.242 191.718C256.067 192.633 256.117 193.203 256.097 194.4C255.994 195.279 255.674 195.742 255.078 196.384C253.056 197.622 250.65 197.099 248.4 196.861C248.375 197.061 248.375 197.061 248.349 197.264C247.992 200.059 247.547 202.748 246.73 205.448C247.023 205.508 247.317 205.569 247.619 205.631C248.008 205.714 248.398 205.797 248.787 205.88C248.98 205.92 249.173 205.959 249.371 206C250.759 206.299 251.94 206.657 253.021 207.624C253.563 208.583 253.628 209.38 253.409 210.457C252.999 211.249 252.431 211.75 251.679 212.23C249.984 212.577 248.219 211.992 246.596 211.515C246.401 211.459 246.206 211.403 246.005 211.346C245.531 211.21 245.057 211.072 244.583 210.934C244.543 211.066 244.503 211.198 244.461 211.334C244.048 212.636 243.545 213.83 242.899 215.033C242.806 215.207 242.712 215.381 242.616 215.561C241.109 218.311 239.255 220.712 237.073 222.964C236.825 223.22 236.578 223.479 236.333 223.739C231.64 228.707 225.187 233.274 218.585 235.262C218.876 235.483 218.876 235.483 219.172 235.708C221.76 237.685 224.265 239.717 226.645 241.943C227.135 242.402 227.63 242.855 228.132 243.302C229.252 244.301 230.313 245.299 231.278 246.451C231.584 246.809 231.902 247.158 232.226 247.5C234.973 250.396 237.232 253.683 239.098 257.205C239.209 257.407 239.321 257.608 239.436 257.815C241.453 261.595 242.44 265.908 241.254 270.105C240.139 273.236 238.21 275.243 235.281 276.763C229.99 278.927 224.726 278.964 219.437 276.759C219.073 276.604 218.71 276.445 218.347 276.286C218.391 276.455 218.434 276.624 218.479 276.798C219.071 279.216 219.426 281.649 219.763 284.113C219.809 284.446 219.809 284.446 219.856 284.786C224.418 317.925 224.418 317.925 219.547 324.372C216.545 327.626 211.931 329.16 207.614 329.475C206.272 329.521 204.931 329.533 203.589 329.535C203.31 329.535 203.31 329.535 203.026 329.535C197.88 329.531 191.997 329.142 188.027 325.437C185.977 323.178 185.113 320.5 184.433 317.594C184.393 317.427 184.354 317.261 184.312 317.089C184.062 315.948 183.947 314.825 183.869 313.66C183.849 313.36 183.829 313.061 183.808 312.753C183.793 312.525 183.778 312.298 183.762 312.063C183.609 312.078 183.456 312.092 183.299 312.106C178.498 312.534 173.727 312.615 168.91 312.603C167.884 312.6 166.859 312.601 165.833 312.604C160.975 312.615 156.166 312.491 151.325 312.063C151.31 312.273 151.295 312.484 151.279 312.7C151.249 313.116 151.249 313.116 151.217 313.54C151.187 313.951 151.187 313.951 151.157 314.37C151.064 315.409 150.891 316.412 150.669 317.43C150.627 317.622 150.585 317.815 150.542 318.013C149.733 321.568 148.373 324.432 145.362 326.613C141.34 329.056 136.807 329.521 132.213 329.532C131.655 329.534 131.097 329.542 130.539 329.549C125.235 329.587 120.09 328.57 116.084 324.869C112.991 321.593 113.049 317.839 113.088 313.599C113.089 313.344 113.091 313.09 113.092 312.827C113.141 303.502 113.993 294.265 115.205 285.022C115.229 284.84 115.252 284.657 115.277 284.47C115.627 281.811 116.047 279.167 116.502 276.525C116.205 276.623 115.908 276.72 115.603 276.821C110.012 278.642 104.911 279.235 99.4628 276.614C96.6529 275.168 94.7831 273.013 93.6509 270.062C92.3451 265.42 94.0662 260.497 96.2796 256.434C98.1353 253.158 100.351 250.245 102.898 247.478C103.335 247.002 103.755 246.517 104.173 246.025C105.904 244.04 107.815 242.209 109.823 240.509C110.073 240.292 110.323 240.074 110.573 239.856C112.418 238.252 114.308 236.73 116.263 235.262C116.126 235.201 115.989 235.14 115.849 235.077C115.4 234.874 114.952 234.67 114.505 234.464C113.883 234.18 113.259 233.903 112.632 233.63C108.326 231.713 104.494 229.11 100.998 225.96C100.798 225.789 100.599 225.617 100.393 225.441C99.2095 224.422 98.1706 223.351 97.182 222.144C96.9886 221.914 96.7952 221.685 96.596 221.449C94.0279 218.342 91.9584 214.826 90.2651 211.172C89.004 211.273 87.8971 211.54 86.6874 211.917C85.3488 212.31 84.4541 212.517 83.1097 212.126C82.17 211.554 81.7193 211.046 81.4401 209.979C81.3219 209.054 81.4003 208.626 81.8277 207.788C82.9741 206.431 84.5139 206.203 86.1806 205.88C86.3903 205.838 86.5999 205.795 86.816 205.752C87.3293 205.649 87.843 205.547 88.357 205.448C88.3234 205.298 88.2897 205.148 88.2551 204.993C87.6517 202.292 87.0559 199.606 86.6874 196.861C86.4277 196.871 86.4277 196.871 86.1627 196.88C85.3737 196.905 84.5847 196.92 83.7954 196.936C83.523 196.946 83.2506 196.956 82.9699 196.966C80.7031 196.999 80.7031 196.999 79.832 196.29C79.1204 195.469 79.0181 195.092 79.0102 194.029C79.0052 193.72 79.0052 193.72 79 193.405C79.0808 192.525 79.3305 192.028 79.9941 191.45C81.5212 190.796 83.2292 190.888 84.8678 190.894C85.2471 190.895 85.2471 190.895 85.6341 190.896C85.8243 190.897 86.0144 190.898 86.2104 190.898C86.2066 190.702 86.2029 190.505 86.199 190.303C86.0562 181.637 87.2766 173.173 90.8726 165.19C90.9726 164.968 91.0725 164.746 91.1756 164.517C91.3665 164.102 91.563 163.69 91.7664 163.281C92.4834 161.747 92.4551 160.59 92.1732 158.938C92.1411 158.734 92.1089 158.531 92.0758 158.322C92.0065 157.897 91.9349 157.473 91.8613 157.049C90.122 146.867 89.4273 136.056 90.7421 125.784C90.7664 125.585 90.7907 125.385 90.8157 125.18C91.3616 120.831 92.2716 115.448 95.7509 112.427C101.988 108.48 110.866 113.676 116.502 116.482Z" fill="#FBE9CC"/>
<path d="M116.502 116.482C116.701 116.58 116.899 116.679 117.104 116.78C120.329 118.385 123.39 120.263 126.455 122.15C127.396 122.729 128.339 123.303 129.284 123.875C129.529 124.024 129.775 124.173 130.029 124.326C130.485 124.602 130.941 124.878 131.398 125.154C131.604 125.279 131.81 125.405 132.023 125.534C132.22 125.653 132.416 125.772 132.619 125.895C133.377 126.375 134.102 126.897 134.821 127.432C135.707 127.873 136.479 127.771 137.415 127.522C137.632 127.442 137.849 127.363 138.072 127.281C138.321 127.193 138.57 127.105 138.827 127.014C139.094 126.918 139.362 126.822 139.637 126.723C148.469 123.678 157.703 122.335 167.022 122.385C167.274 122.386 167.525 122.387 167.785 122.388C177.733 122.426 187.305 124.025 196.795 127.04C197.022 127.111 197.248 127.181 197.482 127.254C198.073 127.454 198.073 127.454 198.835 127.827C199.967 128.002 200.669 127.305 201.562 126.664C201.988 126.373 202.415 126.083 202.843 125.793C203.073 125.637 203.303 125.481 203.539 125.319C204.849 124.448 206.193 123.632 207.539 122.818C207.68 122.732 207.821 122.647 207.966 122.559C211.967 120.139 216.021 117.789 220.239 115.767C220.794 115.498 221.343 115.22 221.893 114.942C225.805 112.989 229.974 111.203 234.402 111.175C234.597 111.17 234.791 111.165 234.992 111.16C236.907 111.148 238.468 111.618 239.895 112.942C243.604 117.071 244.041 123.633 244.583 128.885C244.61 129.136 244.61 129.136 244.637 129.392C245.387 137.027 244.668 144.837 243.883 152.438C243.853 152.731 243.853 152.731 243.823 153.029C243.459 156.614 243.459 156.614 243.086 158.224C242.331 161.5 243.321 163.606 244.742 166.59C248.239 174.234 249.035 182.617 248.877 190.898C249.135 190.898 249.135 190.898 249.398 190.897C254.222 190.888 254.222 190.888 255.242 191.718C256.067 192.633 256.117 193.203 256.097 194.4C255.994 195.279 255.674 195.742 255.078 196.384C253.056 197.622 250.65 197.099 248.4 196.861C248.375 197.061 248.375 197.061 248.349 197.264C247.992 200.059 247.547 202.748 246.73 205.448C247.023 205.508 247.317 205.569 247.619 205.631C248.008 205.714 248.398 205.797 248.787 205.88C248.98 205.92 249.173 205.959 249.371 206C250.759 206.299 251.94 206.657 253.021 207.624C253.563 208.583 253.628 209.38 253.409 210.457C252.999 211.249 252.431 211.75 251.679 212.23C249.984 212.577 248.219 211.992 246.596 211.515C246.401 211.459 246.206 211.403 246.005 211.346C245.531 211.21 245.057 211.072 244.583 210.934C244.543 211.066 244.503 211.198 244.461 211.334C244.048 212.636 243.545 213.83 242.899 215.033C242.806 215.207 242.712 215.381 242.616 215.561C241.109 218.311 239.255 220.712 237.073 222.964C236.825 223.22 236.578 223.479 236.333 223.739C231.64 228.707 225.187 233.274 218.585 235.262C218.876 235.483 218.876 235.483 219.172 235.708C221.76 237.685 224.265 239.717 226.645 241.943C227.135 242.402 227.63 242.855 228.132 243.302C229.252 244.301 230.313 245.299 231.278 246.451C231.584 246.809 231.902 247.158 232.226 247.5C234.973 250.396 237.232 253.683 239.098 257.205C239.209 257.407 239.321 257.608 239.436 257.815C241.453 261.595 242.44 265.908 241.254 270.105C240.139 273.236 238.21 275.243 235.281 276.763C229.99 278.927 224.726 278.964 219.437 276.759C219.073 276.604 218.71 276.445 218.347 276.286C218.391 276.455 218.434 276.624 218.479 276.798C219.071 279.216 219.426 281.649 219.763 284.113C219.809 284.446 219.809 284.446 219.856 284.786C224.418 317.925 224.418 317.925 219.547 324.372C216.545 327.626 211.931 329.16 207.614 329.475C206.272 329.521 204.931 329.533 203.589 329.535C203.31 329.535 203.31 329.535 203.026 329.535C197.88 329.531 191.997 329.142 188.027 325.437C185.977 323.178 185.113 320.5 184.433 317.594C184.393 317.427 184.354 317.261 184.312 317.089C184.062 315.948 183.947 314.825 183.869 313.66C183.849 313.36 183.829 313.061 183.808 312.753C183.793 312.525 183.778 312.298 183.762 312.063C183.609 312.078 183.456 312.092 183.299 312.106C178.498 312.534 173.727 312.615 168.91 312.603C167.884 312.6 166.859 312.601 165.833 312.604C160.975 312.615 156.166 312.491 151.325 312.063C151.31 312.273 151.295 312.484 151.279 312.7C151.249 313.116 151.249 313.116 151.217 313.54C151.187 313.951 151.187 313.951 151.157 314.37C151.064 315.409 150.891 316.412 150.669 317.43C150.627 317.622 150.585 317.815 150.542 318.013C149.733 321.568 148.373 324.432 145.362 326.613C141.34 329.056 136.807 329.521 132.213 329.532C131.655 329.534 131.097 329.542 130.539 329.549C125.235 329.587 120.09 328.57 116.084 324.869C112.991 321.593 113.049 317.839 113.088 313.599C113.089 313.344 113.091 313.09 113.092 312.827C113.141 303.502 113.993 294.265 115.205 285.022C115.229 284.84 115.252 284.657 115.277 284.47C115.627 281.811 116.047 279.167 116.502 276.525C116.205 276.623 115.908 276.72 115.603 276.821C110.012 278.642 104.911 279.235 99.4628 276.614C96.6529 275.168 94.7831 273.013 93.6509 270.062C92.3451 265.42 94.0662 260.497 96.2796 256.434C98.1353 253.158 100.351 250.245 102.898 247.478C103.335 247.002 103.755 246.517 104.173 246.025C105.904 244.04 107.815 242.209 109.823 240.509C110.073 240.292 110.323 240.074 110.573 239.856C112.418 238.252 114.308 236.73 116.263 235.262C116.126 235.201 115.989 235.14 115.849 235.077C115.4 234.874 114.952 234.67 114.505 234.464C113.883 234.18 113.259 233.903 112.632 233.63C108.326 231.713 104.494 229.11 100.998 225.96C100.798 225.789 100.599 225.617 100.393 225.441C99.2095 224.422 98.1706 223.351 97.182 222.144C96.9886 221.914 96.7952 221.685 96.596 221.449C94.0279 218.342 91.9584 214.826 90.2651 211.172C89.004 211.273 87.8971 211.54 86.6874 211.917C85.3488 212.31 84.4541 212.517 83.1097 212.126C82.17 211.554 81.7193 211.046 81.4401 209.979C81.3219 209.054 81.4003 208.626 81.8277 207.788C82.9741 206.431 84.5139 206.203 86.1806 205.88C86.3903 205.838 86.5999 205.795 86.816 205.752C87.3293 205.649 87.843 205.547 88.357 205.448C88.3234 205.298 88.2897 205.148 88.2551 204.993C87.6517 202.292 87.0559 199.606 86.6874 196.861C86.4277 196.871 86.4277 196.871 86.1627 196.88C85.3737 196.905 84.5847 196.92 83.7954 196.936C83.523 196.946 83.2506 196.956 82.9699 196.966C80.7031 196.999 80.7031 196.999 79.832 196.29C79.1204 195.469 79.0181 195.092 79.0102 194.029C79.0052 193.72 79.0052 193.72 79 193.405C79.0808 192.525 79.3305 192.028 79.9941 191.45C81.5212 190.796 83.2292 190.888 84.8678 190.894C85.2471 190.895 85.2471 190.895 85.6341 190.896C85.8243 190.897 86.0144 190.898 86.2104 190.898C86.2066 190.702 86.2029 190.505 86.199 190.303C86.0562 181.637 87.2766 173.173 90.8726 165.19C90.9726 164.968 91.0725 164.746 91.1756 164.517C91.3665 164.102 91.563 163.69 91.7664 163.281C92.4834 161.747 92.4551 160.59 92.1732 158.938C92.1411 158.734 92.1089 158.531 92.0758 158.322C92.0065 157.897 91.9349 157.473 91.8613 157.049C90.122 146.867 89.4273 136.056 90.7421 125.784C90.7664 125.585 90.7907 125.385 90.8157 125.18C91.3616 120.831 92.2716 115.448 95.7509 112.427C101.988 108.48 110.866 113.676 116.502 116.482ZM99.5672 118.018C98.4942 119.392 98.0393 120.753 97.6292 122.43C97.5914 122.582 97.5536 122.734 97.5146 122.89C96.565 127.052 96.6185 131.275 96.6304 135.518C96.6309 135.839 96.6313 136.16 96.6318 136.481C96.6448 143.33 97.057 150.009 98.2252 156.761C98.7096 159.651 99.1017 162.292 97.6739 164.945C93.8605 172.726 91.7463 182.209 92.1732 190.898C92.6699 191.395 93.7494 191.203 94.4391 191.226C96.0351 191.297 97.603 191.426 99.1796 191.688C99.4279 191.726 99.4279 191.726 99.6813 191.765C100.75 191.957 101.434 192.262 102.191 193.045C102.538 193.911 102.556 194.797 102.27 195.685C101.928 196.352 101.606 196.793 100.938 197.143C98.5779 197.848 95.5705 197.277 93.1273 197.1C93.0494 198.56 93.337 199.821 93.7087 201.229C93.7635 201.445 93.8184 201.661 93.875 201.884C94.1409 202.978 94.1409 202.978 94.5584 204.017C94.9709 203.983 95.3833 203.948 95.7957 203.912C96.0253 203.893 96.255 203.874 96.4916 203.854C97.1656 203.792 97.1656 203.792 97.7522 203.653C98.5664 203.505 99.3511 203.499 100.178 203.495C100.489 203.492 100.799 203.488 101.118 203.485C102.297 203.562 102.297 203.562 102.906 204.017C103.343 204.677 103.465 205.244 103.488 206.029C103.502 206.294 103.502 206.294 103.517 206.565C103.313 207.407 102.911 207.867 102.191 208.31C101.267 208.621 100.33 208.802 99.3734 208.981C99.1171 209.032 98.8608 209.084 98.5968 209.137C97.9669 209.263 97.3364 209.384 96.705 209.502C97.7083 212.774 99.5318 215.49 101.714 218.089C101.874 218.28 101.874 218.28 102.038 218.476C107.605 225.015 115.411 228.862 123.496 231.339C127.179 232.474 127.179 232.474 127.95 233.831C128.101 235.039 127.957 235.721 127.235 236.693C126.656 237.012 126.656 237.012 125.968 237.26C121.596 238.969 117.877 241.476 114.479 244.712C113.993 245.171 113.499 245.609 112.993 246.044C110.208 248.471 107.506 251.142 105.291 254.105C105.078 254.383 104.864 254.662 104.65 254.94C101.985 258.448 98.8907 262.832 99.3286 267.461C99.5991 268.992 100.409 269.881 101.584 270.857C104.085 272.59 107.159 272.829 110.093 272.315C111.88 271.953 113.573 271.41 115.249 270.696C115.406 270.63 115.562 270.565 115.723 270.497C116.838 269.993 117.854 269.389 118.357 268.222C118.513 267.711 118.64 267.2 118.759 266.679C118.83 266.392 118.83 266.392 118.903 266.099C119.003 265.691 119.102 265.282 119.199 264.874C119.35 264.238 119.506 263.604 119.663 262.97C119.869 262.139 120.074 261.308 120.278 260.477C120.618 259.097 120.978 257.724 121.361 256.356C121.438 256.07 121.438 256.07 121.516 255.778C121.892 254.451 122.397 253.342 123.508 252.465C124.278 252.135 124.734 252.078 125.565 252.196C126.289 252.586 126.825 252.925 127.324 253.583C127.804 255.262 127.241 256.893 126.81 258.524C126.667 259.077 126.525 259.631 126.383 260.185C126.308 260.474 126.233 260.764 126.155 261.062C122.849 273.85 120.617 286.724 119.602 299.899C119.588 300.081 119.574 300.262 119.559 300.449C119.238 304.585 119.076 308.721 119.042 312.87C119.038 313.301 119.033 313.732 119.026 314.163C118.91 317.608 118.91 317.608 120.442 320.592C123.111 323.286 127.722 323.528 131.287 323.557C137.385 323.62 137.385 323.62 142.585 320.891C144.979 317.956 145.215 313.582 145.549 309.952C145.691 308.598 145.837 307.618 146.793 306.578C147.975 305.75 148.952 305.799 150.326 305.922C150.506 305.934 150.687 305.947 150.872 305.96C151.579 306.012 152.284 306.073 152.988 306.155C157.589 306.692 162.244 306.633 166.87 306.637C167.222 306.637 167.573 306.637 167.925 306.638C173.363 306.647 178.754 306.509 184.165 305.928C185.663 305.803 186.771 305.721 188.056 306.578C189.472 308.308 189.583 310.28 189.815 312.421C190.397 317.379 190.397 317.379 192.96 321.544C196.628 324.316 203.123 323.854 207.419 323.304C210.174 322.9 213.02 322.367 214.948 320.188C216.123 318.589 216.244 316.936 216.234 314.994C216.233 314.811 216.233 314.627 216.232 314.437C216.208 311.685 216.052 308.937 215.902 306.19C215.886 305.897 215.87 305.603 215.854 305.301C215.133 292.172 213.472 279.123 210.274 266.354C210.233 266.193 210.193 266.031 210.151 265.865C209.744 264.242 209.332 262.62 208.911 261.001C208.791 260.541 208.673 260.081 208.555 259.621C208.409 259.054 208.261 258.488 208.111 257.923C207.754 256.533 207.489 255.302 207.614 253.866C208.131 253.016 208.607 252.566 209.522 252.196C210.043 252.16 210.043 252.16 210.58 252.211C210.757 252.224 210.934 252.237 211.116 252.25C211.938 252.525 212.301 252.969 212.861 253.628C213.154 254.264 213.332 254.918 213.51 255.594C213.563 255.785 213.616 255.976 213.671 256.172C213.842 256.789 214.008 257.407 214.173 258.025C214.29 258.448 214.406 258.872 214.523 259.295C215.191 261.73 215.83 264.172 216.282 266.657C216.54 267.964 216.901 268.676 217.87 269.608C221.509 271.933 225.92 273.057 230.183 272.202C232.442 271.617 234.014 270.704 235.267 268.713C236.165 266.809 235.761 265.001 235.136 263.088C233.294 258.234 230.167 254.325 226.695 250.527C226.491 250.298 226.287 250.069 226.077 249.834C224.548 248.124 222.932 246.555 221.209 245.041C221.089 244.934 220.97 244.828 220.846 244.718C217.389 241.651 213.673 238.864 209.254 237.379C208.5 237.113 208.079 236.922 207.45 236.41C207.017 235.483 206.862 234.59 207.137 233.592C207.968 232.552 208.701 232.195 209.969 231.848C210.311 231.749 210.652 231.649 210.993 231.548C211.178 231.494 211.362 231.44 211.552 231.385C219.173 229.102 225.63 225.657 231.465 220.236C231.627 220.09 231.789 219.944 231.955 219.793C234.833 217.083 237.229 213.269 238.382 209.502C238.215 209.473 238.048 209.443 237.876 209.412C237.114 209.273 236.354 209.127 235.595 208.981C235.331 208.934 235.068 208.887 234.797 208.839C232.299 208.348 232.299 208.348 231.465 207.117C231.262 206.381 231.315 205.717 231.465 204.971C231.893 204.286 232.177 203.899 232.896 203.54C235.414 203.327 237.828 203.791 240.29 204.255C240.786 202.985 241.2 201.732 241.528 200.409C241.57 200.248 241.612 200.086 241.656 199.92C241.896 198.96 242.005 198.089 241.96 197.1C241.723 197.117 241.486 197.134 241.242 197.152C239.605 197.266 237.966 197.363 236.325 197.398C236.066 197.404 235.807 197.41 235.54 197.417C234.672 197.324 234.114 197.082 233.373 196.623C232.838 195.724 232.658 195.135 232.658 194.089C232.949 193.105 233.283 192.718 234.089 192.091C235.142 191.668 236.096 191.531 237.225 191.463C237.382 191.453 237.539 191.443 237.7 191.433C238.196 191.402 238.691 191.374 239.187 191.346C239.525 191.325 239.864 191.304 240.202 191.283C241.026 191.232 241.851 191.184 242.675 191.137C242.762 187.097 242.703 183.19 241.96 179.211C241.921 179.003 241.883 178.795 241.843 178.581C240.896 173.625 239.33 168.722 237.128 164.178C235.998 161.743 236.544 159.426 236.943 156.855C238.026 149.763 238.444 142.659 238.457 135.489C238.458 135.253 238.458 135.018 238.459 134.775C238.467 130.633 238.372 126.407 237.354 122.37C237.309 122.17 237.264 121.97 237.218 121.763C236.823 120.133 236.237 118.63 234.804 117.675C233.487 117.589 232.357 117.735 231.093 118.122C230.921 118.174 230.749 118.226 230.572 118.279C220.886 121.353 211.515 127.328 203.276 133.165C201.682 134.267 200.245 134.78 198.312 134.609C197.578 134.363 197.578 134.363 196.821 134.013C192.24 132.036 187.22 130.98 182.331 130.077C182.14 130.041 181.949 130.004 181.752 129.967C167.483 127.274 151.971 128.887 138.411 133.967C136.833 134.554 135.552 134.936 133.928 134.281C131.617 133.169 129.487 131.647 127.339 130.256C123.745 127.934 120.08 125.716 116.314 123.684C115.954 123.489 115.594 123.294 115.235 123.097C107.671 118.602 107.671 118.602 99.5672 118.018Z" fill="black"/>
<path d="M167.335 247.068C167.614 247.07 167.894 247.072 168.182 247.073C173.55 247.185 177.889 249.094 181.616 252.912C181.807 253.101 181.998 253.29 182.194 253.484C187.877 259.393 189.621 268.351 189.587 276.263C189.493 280.772 188.221 284.52 184.955 287.735C184.803 287.887 184.651 288.039 184.494 288.195C178.999 293.336 171.101 293.261 164.06 293.033C159.358 292.836 154.853 291.566 151.086 288.689C150.907 288.554 150.729 288.419 150.545 288.28C147.448 285.764 145.837 281.869 145.402 277.974C145.273 276.383 145.331 274.78 145.362 273.186C145.366 272.93 145.37 272.674 145.374 272.411C145.702 265.354 148.429 258.489 152.994 253.151C153.136 252.984 153.278 252.818 153.424 252.647C156.99 248.797 162.193 247.038 167.335 247.068Z" fill="#F2D3A3"/>
<path d="M183.624 247.824C183.827 248.008 184.03 248.191 184.239 248.38C184.44 248.561 184.641 248.742 184.848 248.929C188.591 252.486 190.972 257.123 192.587 261.976C192.675 262.23 192.763 262.485 192.853 262.747C194.81 268.944 195.378 276.155 193.78 282.488C193.742 282.643 193.703 282.798 193.664 282.958C192.426 287.725 189.183 291.699 184.977 294.208C179.548 297.246 173.817 298.046 167.693 298.051C167.391 298.051 167.391 298.051 167.083 298.051C164.01 298.047 161.011 297.959 158.003 297.276C157.827 297.236 157.651 297.196 157.469 297.155C151.892 295.837 146.556 292.743 143.478 287.819C139.654 281.456 139.697 272.749 141.394 265.681C141.444 265.482 141.494 265.282 141.545 265.076C141.595 264.874 141.645 264.671 141.697 264.463C143.112 258.895 145.607 253.884 149.416 249.573C149.635 249.324 149.635 249.324 149.858 249.071C158.466 239.895 174.285 239.798 183.624 247.824ZM152.138 254.104C147.864 259.43 145.612 266.401 145.362 273.186C145.355 273.348 145.349 273.51 145.342 273.677C145.179 278.289 145.863 282.518 148.701 286.304C148.849 286.516 148.849 286.516 149.001 286.732C152.1 290.786 157.661 292.21 162.449 292.915C164.13 293.117 165.824 293.089 167.514 293.072C167.811 293.07 167.811 293.07 168.115 293.069C174.651 293.029 180.606 292.075 185.432 287.258C185.664 287.03 185.664 287.03 185.901 286.798C189.351 283.159 189.674 278.387 189.562 273.643C189.269 265.945 186.811 258.268 181.377 252.674C181.241 252.522 181.104 252.371 180.964 252.215C177.975 248.999 173.417 247.294 169.101 247.095C162.182 246.919 156.783 248.811 152.138 254.104Z" fill="black"/>
<path d="M221.164 190.228C223.717 191.974 225.266 194.34 225.979 197.338C226.378 201.069 225.579 203.906 223.24 206.847C221.335 208.97 218.641 210.079 215.851 210.277C212.464 210.39 209.704 209.415 207.138 207.18C204.903 204.855 203.962 201.951 204.001 198.79C204.148 195.732 205.346 193.209 207.614 191.137C211.775 188.013 216.627 187.544 221.164 190.228Z" fill="#F4A99C"/>
<path d="M125.327 189.706C125.51 189.798 125.694 189.889 125.884 189.984C128.259 191.321 129.977 193.88 130.783 196.444C131.469 199.361 131.187 202.285 129.729 204.92C128.157 207.301 125.911 209.094 123.18 209.98C120.133 210.574 117.093 210.417 114.361 208.86C111.873 207.169 109.996 204.845 109.346 201.87C109.037 197.783 109.522 195.006 112.164 191.806C115.569 188.075 120.961 187.529 125.327 189.706Z" fill="#F4A99C"/>
<path d="M106.841 125.91C108.423 126.123 109.828 126.77 111.254 127.454C111.402 127.524 111.549 127.594 111.701 127.666C115.547 129.535 118.932 132.139 122.288 134.762C122.652 135.046 123.019 135.328 123.386 135.609C124.06 136.18 124.349 136.572 124.461 137.455C124.35 138.372 124.134 138.57 123.433 139.156C123.216 139.339 122.999 139.522 122.775 139.711C121.696 140.573 120.594 141.406 119.492 142.237C118.064 143.318 116.705 144.462 115.356 145.638C114.678 146.228 113.983 146.793 113.282 147.355C112.241 148.198 111.261 149.091 110.285 150.008C108.279 151.882 108.279 151.882 107.319 152.706C107.144 152.858 106.97 153.01 106.79 153.167C106.246 153.452 106.246 153.452 105.496 153.427C104.814 153.213 104.814 153.213 104.293 152.453C102.512 148.27 102.586 143.176 102.606 138.716C102.608 138.021 102.606 137.326 102.603 136.63C102.596 128.697 102.596 128.697 104.409 126.334C105.15 125.765 105.94 125.885 106.841 125.91Z" fill="#F4A99C"/>
<path d="M230.034 126.023C231.803 127.423 232.037 129.919 232.284 132.041C232.895 138.49 233.289 147.007 230.511 152.975C229.759 153.351 229.166 153.434 228.365 153.213C227.623 152.696 226.997 152.073 226.356 151.437C225.612 150.705 224.848 149.993 224.086 149.278C223.921 149.122 223.756 148.967 223.586 148.807C222.284 147.586 220.939 146.451 219.54 145.342C219.117 144.995 218.694 144.647 218.273 144.299C217.274 143.481 216.263 142.68 215.246 141.884C214.965 141.662 214.683 141.44 214.401 141.218C213.869 140.798 213.331 140.386 212.789 139.979C212.434 139.704 212.434 139.704 212.071 139.424C211.861 139.265 211.65 139.106 211.433 138.943C210.828 138.291 210.737 137.876 210.715 136.994C211.84 135.273 213.605 134.139 215.246 132.94C215.4 132.826 215.554 132.712 215.712 132.595C226.014 125 226.014 125 230.034 126.023Z" fill="#F4A99C"/>
<path d="M167.603 186.531C167.838 186.524 168.074 186.517 168.316 186.51C169.97 186.495 171.331 186.756 172.791 187.559C173.628 188.396 173.942 189.045 174.058 190.228C173.912 192.01 173.037 193.155 171.777 194.372C171.36 194.715 171.36 194.715 170.659 195.028C170.122 195.38 170.122 195.38 170.069 195.927C169.999 197.933 170.534 199.844 171.837 201.393C173.394 202.642 174.952 203.14 176.935 203.048C179.386 202.743 180.827 201.62 182.376 199.749C182.962 199.068 183.169 199.019 184.076 198.933C185.092 199.019 185.437 199.251 186.148 199.962C186.562 200.79 186.496 201.68 186.386 202.585C185.153 204.96 182.735 206.733 180.271 207.66C177.545 208.499 174.417 208.409 171.815 207.251C170.296 206.436 168.98 205.496 167.782 204.255C167.092 204.57 166.715 204.838 166.142 205.373C163.468 207.734 160.331 208.292 156.884 208.124C153.634 207.812 151.359 205.888 149.305 203.52C148.636 202.683 148.609 202.024 148.615 200.978C148.751 200.123 149.226 199.755 149.894 199.246C150.586 198.9 151.032 198.919 151.802 199.008C152.667 199.603 153.268 200.234 153.919 201.05C154.983 202.29 155.87 202.75 157.512 202.923C159.513 203.022 161.406 202.977 163.012 201.631C164.374 200.052 165.091 198.391 165.058 196.299C164.89 195.531 164.689 195.342 164.055 194.893C163.882 194.787 163.709 194.68 163.53 194.57C162.409 193.85 161.408 192.685 161.104 191.375C160.975 190.177 160.97 189.272 161.491 188.17C163.125 186.408 165.369 186.552 167.603 186.531Z" fill="black"/>
<path d="M202.387 176.345C202.971 176.629 203.499 176.939 204.036 177.303C204.361 177.502 204.361 177.502 204.692 177.706C206.347 179.406 206.971 181.196 206.973 183.527C206.929 185.715 206.191 187.252 204.702 188.826C202.993 190.435 201.239 190.802 198.951 190.765C197.179 190.553 195.598 189.746 194.376 188.439C194.168 188.153 193.969 187.859 193.78 187.559C193.682 187.417 193.585 187.274 193.484 187.127C192.393 185.201 192.471 182.474 193.02 180.379C193.812 178.605 195.241 177.3 196.952 176.423C198.647 175.823 200.667 175.797 202.387 176.345Z" fill="black"/>
<path d="M138.341 176.602C140.069 177.637 141.327 178.974 142.023 180.881C142.578 183.16 142.457 185.49 141.307 187.559C140.117 189.139 138.729 190.246 136.775 190.66C134.57 190.924 132.908 190.699 131.051 189.467C130.795 189.305 130.539 189.143 130.276 188.975C128.795 187.596 128.127 185.781 128.03 183.799C128.009 181.56 128.322 179.885 129.88 178.193C132.166 176.024 135.388 175.23 138.341 176.602Z" fill="black"/>
<path d="M136.793 158.365C136.884 158.377 136.974 158.389 137.068 158.401C140.154 158.818 144.426 159.421 146.527 162.026C146.921 162.611 147.121 162.99 147.011 163.712C146.872 164.163 146.58 164.507 146.223 164.809C145.66 165.062 145.15 164.972 144.569 164.81C144.074 164.578 143.613 164.298 143.146 164.017C141.376 162.967 139.696 162.433 137.661 162.137C137.437 162.104 137.437 162.104 137.207 162.071C135.866 161.89 134.533 161.829 133.192 162.048C133.107 162.061 133.021 162.075 132.933 162.088C132.279 162.193 131.641 162.343 131.003 162.525C130.398 162.684 129.78 162.73 129.207 162.427C128.87 162.19 128.688 161.99 128.49 161.624C128.381 160.963 128.431 160.342 128.757 159.749C129.422 159.184 130.2 158.949 131.033 158.751C131.138 158.726 131.243 158.701 131.351 158.674C133.134 158.268 134.979 158.118 136.793 158.365Z" fill="black"/>
<path d="M205.324 166.783C205.441 166.845 205.441 166.845 205.559 166.909C206.166 167.264 206.653 167.726 206.886 168.447C206.945 169.169 206.884 169.656 206.537 170.299C206.051 170.8 205.632 171.028 204.954 171.017C204.29 170.919 203.659 170.628 203.031 170.384C201.308 169.715 199.771 169.431 197.94 169.437C197.811 169.437 197.811 169.437 197.679 169.437C195.443 169.446 193.189 169.665 191.099 170.591C190.46 170.863 189.921 170.88 189.25 170.705C188.661 170.343 188.455 169.912 188.256 169.217C188.172 168.583 188.192 168.138 188.458 167.56C189.548 166.188 190.916 165.913 192.522 165.649C192.77 165.608 193.018 165.565 193.266 165.521C197.174 164.855 201.696 164.836 205.324 166.783Z" fill="black"/>
<path d="M255.652 156.796C259.936 157.21 264.022 158.687 267.142 161.71L267.441 162.007L267.457 162.023L267.473 162.041C270.332 165.102 271.463 168.876 271.098 172.705L271.097 172.718C270.587 177.713 267.476 181.104 263.703 183.79L263.7 183.792C263.58 183.877 263.46 183.961 263.34 184.046L263.341 184.047C263.279 184.09 263.218 184.134 263.155 184.178L263.155 184.179C262.841 184.401 262.526 184.623 262.209 184.844C261.022 185.678 260.328 186.406 259.869 187.159C259.406 187.916 259.098 188.834 258.877 190.177L258.876 190.188L258.874 190.198C258.858 190.29 258.842 190.382 258.826 190.476C258.813 190.55 258.802 190.625 258.789 190.701L258.765 190.847L258.72 190.988C258.507 191.653 258.181 192.095 257.739 192.502L257.475 192.745L257.143 192.881C256.269 193.24 255.566 193.267 254.802 193.192L254.802 193.193C254.696 193.183 254.695 193.182 254.587 193.172L253.875 193.1L253.387 193.052L253.386 193.052C253.04 193.018 252.695 192.982 252.351 192.946C251.922 192.901 251.491 192.858 251.056 192.816L250.035 192.713L249.561 192.667L249.56 192.666C249.325 192.643 249.092 192.619 248.865 192.594L248.865 192.593L248.387 192.545L248.289 192.525C247.284 192.318 246.709 191.826 246.291 191.442L246.026 191.198L245.862 190.876C245.302 189.775 245.528 188.675 245.569 188.372C245.581 188.267 245.594 188.163 245.606 188.055L245.608 188.035C245.91 185.621 246.616 183.558 247.837 181.713C249.048 179.885 250.694 178.376 252.725 176.971L252.739 176.962L252.752 176.953C253.077 176.735 253.408 176.533 253.696 176.357C254.664 175.752 255.556 175.08 256.34 174.343L256.352 174.33L256.365 174.319C256.439 174.251 256.513 174.183 256.589 174.114C257.656 173.11 258.071 172.181 258.1 170.905C258.028 170.347 257.724 169.74 257.182 169.258C256.455 168.756 255.662 168.449 254.693 168.303L254.685 168.302C254.607 168.29 254.528 168.277 254.449 168.265C253.083 168.092 252.009 168.233 251.16 168.716C250.28 169.327 249.596 170.116 248.832 171.137L248.826 171.144C248.775 171.212 248.724 171.281 248.671 171.351C248.627 171.41 248.62 171.42 248.564 171.498L248.486 171.603L248.396 171.698C247.746 172.381 247.023 172.61 246.425 172.724L246.224 172.763L246.018 172.76C244.949 172.744 243.945 172.278 243.297 171.943C242.94 171.758 242.597 171.56 242.312 171.396C242.16 171.308 242.028 171.232 241.912 171.167L241.601 170.999C241.325 170.859 241.047 170.719 240.769 170.579L240.767 170.578C240.588 170.487 240.41 170.397 240.231 170.307L240.231 170.306C240.149 170.264 240.067 170.223 239.983 170.181L239.979 170.179C239.39 169.88 238.925 169.647 238.599 169.432C238.107 169.106 237.857 168.778 237.678 168.551L237.426 168.23L237.321 167.835C236.94 166.421 237.426 165.329 237.966 164.531C238.01 164.463 238.015 164.456 238.069 164.373L238.078 164.359C239.205 162.676 240.546 161.302 242.185 160.064C242.271 159.998 242.357 159.93 242.446 159.862L242.46 159.852L242.472 159.842C244.823 158.088 247.547 157.13 250.451 156.737L250.451 156.738C250.53 156.726 250.612 156.714 250.693 156.702L250.704 156.7L250.715 156.7C252.38 156.48 253.988 156.636 255.377 156.771L255.377 156.77C255.466 156.778 255.555 156.787 255.647 156.795L255.652 156.796Z" fill="#FFF288" stroke="black" stroke-width="4"/>
<path d="M246.317 194.11C249.179 192.484 253.303 192.366 256.163 194.713L256.437 194.948L256.483 194.991C256.582 195.087 256.583 195.087 256.684 195.184L256.876 195.368L256.918 195.407C258.505 197.004 259.098 199.02 258.996 200.983L258.992 201.068L258.98 201.153C258.713 203.079 257.685 204.798 256.059 205.992L256.014 206.024L255.969 206.054C253.751 207.504 251.604 207.64 249.293 207.338L249.264 207.334L249.235 207.329C247.142 206.992 245.603 205.759 244.536 204.572L244.496 204.528L244.459 204.482C243.108 202.789 242.708 200.78 242.999 198.867L243.008 198.807L243.02 198.747C243.429 196.842 244.57 195.277 246.19 194.189L246.252 194.147L246.317 194.11Z" fill="#FFF288" stroke="black" stroke-width="4"/>
</svg>
