<svg width="350" height="350" viewBox="0 0 350 350" fill="none" xmlns="http://www.w3.org/2000/svg">
<path d="M118.21 105.732C118.418 105.835 118.626 105.937 118.84 106.043C122.212 107.722 125.412 109.685 128.617 111.658C129.6 112.263 130.586 112.864 131.574 113.462C131.831 113.617 132.088 113.773 132.353 113.933C132.83 114.222 133.307 114.511 133.785 114.799C134 114.93 134.216 115.061 134.438 115.196C134.644 115.32 134.85 115.445 135.062 115.574C135.854 116.075 136.612 116.622 137.364 117.181C138.29 117.641 139.098 117.535 140.076 117.274C140.303 117.191 140.53 117.108 140.763 117.023C141.024 116.931 141.284 116.838 141.552 116.743C141.832 116.643 142.112 116.543 142.4 116.44C151.633 113.255 161.288 111.852 171.031 111.904C171.295 111.905 171.558 111.906 171.829 111.907C182.231 111.946 192.238 113.619 202.161 116.771C202.398 116.844 202.635 116.918 202.879 116.994C203.497 117.203 203.497 117.203 204.294 117.594C205.477 117.777 206.211 117.047 207.145 116.377C207.59 116.073 208.037 115.77 208.484 115.467C208.724 115.304 208.965 115.14 209.213 114.972C210.582 114.06 211.987 113.207 213.395 112.356C213.542 112.267 213.689 112.177 213.841 112.086C218.024 109.555 222.263 107.098 226.673 104.984C227.253 104.703 227.827 104.412 228.402 104.122C232.493 102.08 236.851 100.212 241.481 100.183C241.685 100.178 241.888 100.173 242.098 100.168C244.1 100.155 245.732 100.646 247.224 102.03C251.102 106.347 251.559 113.209 252.126 118.7C252.154 118.962 252.154 118.962 252.182 119.23C252.966 127.213 252.215 135.378 251.394 143.326C251.363 143.632 251.363 143.632 251.331 143.944C250.95 147.691 250.95 147.691 250.561 149.375C249.771 152.801 250.806 155.002 252.292 158.122C255.949 166.115 256.78 174.88 256.615 183.538C256.885 183.537 256.885 183.537 257.16 183.536C262.204 183.527 262.204 183.527 263.27 184.395C264.133 185.351 264.185 185.947 264.165 187.199C264.056 188.118 263.722 188.602 263.099 189.274C260.985 190.568 258.469 190.021 256.116 189.772C256.09 189.981 256.09 189.981 256.063 190.194C255.69 193.116 255.225 195.927 254.371 198.75C254.677 198.813 254.984 198.877 255.3 198.942C255.707 199.029 256.114 199.115 256.522 199.202C256.723 199.243 256.925 199.285 257.132 199.327C258.584 199.64 259.818 200.014 260.948 201.026C261.514 202.028 261.583 202.862 261.353 203.987C260.925 204.815 260.332 205.339 259.545 205.842C257.773 206.204 255.927 205.592 254.23 205.094C254.026 205.035 253.822 204.977 253.612 204.917C253.116 204.775 252.621 204.63 252.126 204.486C252.084 204.624 252.042 204.762 251.998 204.905C251.566 206.266 251.04 207.514 250.365 208.772C250.267 208.954 250.17 209.136 250.069 209.324C248.493 212.199 246.555 214.709 244.274 217.064C244.014 217.332 243.756 217.603 243.499 217.874C238.593 223.069 231.846 227.844 224.944 229.922C225.247 230.153 225.247 230.153 225.557 230.389C228.263 232.456 230.883 234.58 233.37 236.908C233.883 237.388 234.4 237.861 234.925 238.328C236.097 239.373 237.206 240.417 238.215 241.621C238.535 241.996 238.867 242.36 239.206 242.718C242.078 245.746 244.44 249.182 246.391 252.865C246.507 253.076 246.624 253.286 246.744 253.503C248.853 257.455 249.885 261.964 248.645 266.352C247.479 269.626 245.462 271.725 242.4 273.314C236.868 275.576 231.365 275.616 225.834 273.31C225.453 273.147 225.074 272.982 224.695 272.815C224.74 272.992 224.786 273.169 224.832 273.351C225.452 275.878 225.823 278.422 226.175 280.998C226.223 281.347 226.223 281.347 226.273 281.702C231.043 316.351 231.043 316.351 225.949 323.092C222.811 326.494 217.986 328.097 213.473 328.427C212.07 328.475 210.668 328.488 209.264 328.489C208.973 328.49 208.973 328.49 208.675 328.49C203.296 328.485 197.144 328.079 192.993 324.205C190.85 321.843 189.947 319.044 189.236 316.005C189.194 315.831 189.153 315.657 189.11 315.477C188.847 314.284 188.728 313.11 188.646 311.891C188.625 311.578 188.604 311.265 188.582 310.943C188.566 310.705 188.551 310.467 188.535 310.222C188.375 310.237 188.215 310.252 188.05 310.267C183.03 310.715 178.042 310.8 173.005 310.786C171.933 310.783 170.861 310.785 169.789 310.788C164.709 310.799 159.682 310.669 154.619 310.222C154.603 310.442 154.588 310.662 154.572 310.888C154.54 311.322 154.54 311.322 154.507 311.766C154.476 312.196 154.476 312.196 154.444 312.634C154.347 313.72 154.166 314.769 153.933 315.833C153.89 316.035 153.846 316.236 153.801 316.443C152.956 320.16 151.533 323.155 148.385 325.434C144.18 327.989 139.44 328.475 134.637 328.487C134.054 328.489 133.47 328.497 132.886 328.505C127.342 328.544 121.962 327.481 117.774 323.611C114.539 320.186 114.6 316.261 114.641 311.828C114.642 311.561 114.643 311.295 114.645 311.021C114.696 301.271 115.587 291.613 116.854 281.949C116.879 281.758 116.904 281.568 116.929 281.371C117.295 278.592 117.735 275.828 118.21 273.065C117.9 273.167 117.589 273.269 117.27 273.375C111.425 275.279 106.092 275.899 100.395 273.158C97.457 271.647 95.502 269.393 94.3183 266.307C92.953 261.454 94.7525 256.307 97.0667 252.059C99.0069 248.634 101.324 245.588 103.987 242.695C104.443 242.198 104.883 241.69 105.32 241.176C107.13 239.101 109.127 237.186 111.227 235.409C111.489 235.181 111.75 234.954 112.011 234.726C113.94 233.049 115.917 231.457 117.961 229.922C117.817 229.858 117.674 229.794 117.527 229.729C117.058 229.517 116.59 229.303 116.122 229.089C115.472 228.792 114.82 228.502 114.164 228.216C109.662 226.212 105.656 223.491 102 220.197C101.791 220.018 101.582 219.839 101.367 219.654C100.13 218.589 99.0439 217.469 98.0102 216.207C97.808 215.967 97.6058 215.727 97.3975 215.48C94.7124 212.231 92.5487 208.556 90.7783 204.735C89.4597 204.841 88.3024 205.12 87.0376 205.514C85.638 205.925 84.7025 206.142 83.2969 205.733C82.3145 205.135 81.8432 204.603 81.5513 203.488C81.4277 202.52 81.5097 202.074 81.9565 201.197C83.1552 199.778 84.7651 199.539 86.5077 199.202C86.7269 199.158 86.9461 199.114 87.172 199.068C87.7087 198.96 88.2458 198.854 88.7832 198.75C88.7481 198.593 88.7129 198.437 88.6767 198.275C88.0458 195.45 87.4229 192.643 87.0376 189.772C86.7661 189.782 86.7661 189.782 86.489 189.792C85.664 189.818 84.8391 189.834 84.0139 189.85C83.7291 189.861 83.4442 189.871 83.1508 189.882C80.7807 189.916 80.7807 189.916 79.8699 189.175C79.1259 188.317 79.019 187.922 79.0107 186.811C79.0054 186.488 79.0054 186.488 79 186.158C79.0845 185.239 79.3456 184.719 80.0394 184.115C81.636 183.43 83.4219 183.527 85.1351 183.533C85.5317 183.534 85.5317 183.534 85.9363 183.535C86.1351 183.536 86.334 183.537 86.5388 183.538C86.5349 183.333 86.531 183.127 86.527 182.915C86.3776 173.854 87.6536 165.005 91.4134 156.659C91.5179 156.426 91.6225 156.194 91.7302 155.955C91.9298 155.521 92.1352 155.09 92.3479 154.663C93.0976 153.059 93.068 151.849 92.7733 150.121C92.7397 149.909 92.7061 149.696 92.6714 149.477C92.599 149.033 92.5242 148.59 92.4472 148.146C90.6287 137.501 89.9023 126.197 91.277 115.458C91.3024 115.249 91.3278 115.041 91.354 114.826C91.9247 110.279 92.8761 104.651 96.514 101.492C103.035 97.3654 112.317 102.798 118.21 105.732Z" fill="#FBE9CC"/>
<path d="M118.21 105.732C118.418 105.835 118.626 105.937 118.84 106.043C122.212 107.722 125.412 109.685 128.617 111.658C129.6 112.263 130.586 112.864 131.574 113.462C131.831 113.617 132.088 113.773 132.353 113.933C132.83 114.222 133.307 114.511 133.785 114.799C134 114.93 134.216 115.061 134.438 115.196C134.644 115.32 134.85 115.445 135.062 115.574C135.854 116.075 136.612 116.622 137.364 117.181C138.29 117.641 139.098 117.535 140.076 117.274C140.303 117.191 140.53 117.108 140.763 117.023C141.024 116.931 141.284 116.838 141.552 116.743C141.832 116.643 142.112 116.543 142.4 116.44C151.633 113.255 161.288 111.852 171.031 111.904C171.295 111.905 171.558 111.906 171.829 111.907C182.231 111.946 192.238 113.619 202.161 116.771C202.398 116.844 202.635 116.918 202.879 116.994C203.497 117.203 203.497 117.203 204.294 117.594C205.477 117.777 206.211 117.047 207.145 116.377C207.59 116.073 208.037 115.77 208.484 115.467C208.724 115.304 208.965 115.14 209.213 114.972C210.582 114.06 211.987 113.207 213.395 112.356C213.542 112.267 213.689 112.177 213.841 112.086C218.024 109.555 222.263 107.098 226.673 104.984C227.253 104.703 227.827 104.412 228.402 104.122C232.493 102.08 236.851 100.212 241.481 100.183C241.685 100.178 241.888 100.173 242.098 100.168C244.1 100.155 245.732 100.646 247.224 102.03C251.102 106.347 251.559 113.209 252.126 118.7C252.154 118.962 252.154 118.962 252.182 119.23C252.966 127.213 252.215 135.378 251.394 143.326C251.363 143.632 251.363 143.632 251.331 143.944C250.95 147.691 250.95 147.691 250.561 149.375C249.771 152.801 250.806 155.002 252.292 158.122C255.949 166.115 256.78 174.88 256.615 183.538C256.885 183.537 256.885 183.537 257.16 183.536C262.204 183.527 262.204 183.527 263.27 184.395C264.133 185.351 264.185 185.947 264.165 187.199C264.056 188.118 263.722 188.602 263.099 189.274C260.985 190.568 258.469 190.021 256.116 189.772C256.09 189.981 256.09 189.981 256.063 190.194C255.69 193.116 255.225 195.927 254.371 198.75C254.677 198.813 254.984 198.877 255.3 198.942C255.707 199.029 256.114 199.115 256.522 199.202C256.723 199.243 256.925 199.285 257.132 199.327C258.584 199.64 259.818 200.014 260.948 201.026C261.514 202.028 261.583 202.862 261.353 203.987C260.925 204.815 260.332 205.339 259.545 205.842C257.773 206.204 255.927 205.592 254.23 205.094C254.026 205.035 253.822 204.977 253.612 204.917C253.116 204.775 252.621 204.63 252.126 204.486C252.084 204.624 252.042 204.762 251.998 204.905C251.566 206.266 251.04 207.514 250.365 208.772C250.267 208.954 250.17 209.136 250.069 209.324C248.493 212.199 246.555 214.709 244.274 217.064C244.014 217.332 243.756 217.603 243.499 217.874C238.593 223.069 231.846 227.844 224.944 229.922C225.247 230.153 225.247 230.153 225.557 230.389C228.263 232.456 230.883 234.58 233.37 236.908C233.883 237.388 234.4 237.861 234.925 238.328C236.097 239.373 237.206 240.417 238.215 241.621C238.535 241.996 238.867 242.36 239.206 242.718C242.078 245.746 244.44 249.182 246.391 252.865C246.507 253.076 246.624 253.286 246.744 253.503C248.853 257.455 249.885 261.964 248.645 266.352C247.479 269.626 245.462 271.725 242.4 273.314C236.868 275.576 231.365 275.616 225.834 273.31C225.453 273.147 225.074 272.982 224.695 272.815C224.74 272.992 224.786 273.169 224.832 273.351C225.452 275.878 225.823 278.422 226.175 280.998C226.223 281.347 226.223 281.347 226.273 281.702C231.043 316.351 231.043 316.351 225.949 323.092C222.811 326.494 217.986 328.097 213.473 328.427C212.07 328.475 210.668 328.488 209.264 328.489C208.973 328.49 208.973 328.49 208.675 328.49C203.296 328.485 197.144 328.079 192.993 324.205C190.85 321.843 189.947 319.044 189.236 316.005C189.194 315.831 189.153 315.657 189.11 315.477C188.847 314.284 188.728 313.11 188.646 311.891C188.625 311.578 188.604 311.265 188.582 310.943C188.566 310.705 188.551 310.467 188.535 310.222C188.375 310.237 188.215 310.252 188.05 310.267C183.03 310.715 178.042 310.8 173.005 310.786C171.933 310.783 170.861 310.785 169.789 310.788C164.709 310.799 159.682 310.669 154.619 310.222C154.603 310.442 154.588 310.662 154.572 310.888C154.54 311.322 154.54 311.322 154.507 311.766C154.476 312.196 154.476 312.196 154.444 312.634C154.347 313.72 154.166 314.769 153.933 315.833C153.89 316.035 153.846 316.236 153.801 316.443C152.956 320.16 151.533 323.155 148.385 325.434C144.18 327.989 139.44 328.475 134.637 328.487C134.054 328.489 133.47 328.497 132.886 328.505C127.342 328.544 121.962 327.481 117.774 323.611C114.539 320.186 114.6 316.261 114.641 311.828C114.642 311.561 114.643 311.295 114.645 311.021C114.696 301.271 115.587 291.613 116.854 281.949C116.879 281.758 116.904 281.568 116.929 281.371C117.295 278.592 117.735 275.828 118.21 273.065C117.9 273.167 117.589 273.269 117.27 273.375C111.425 275.279 106.092 275.899 100.395 273.158C97.457 271.647 95.502 269.393 94.3183 266.307C92.953 261.454 94.7525 256.307 97.0667 252.059C99.0069 248.634 101.324 245.588 103.987 242.695C104.443 242.198 104.883 241.69 105.32 241.176C107.13 239.101 109.127 237.186 111.227 235.409C111.489 235.181 111.75 234.954 112.011 234.726C113.94 233.049 115.917 231.457 117.961 229.922C117.817 229.858 117.674 229.794 117.527 229.729C117.058 229.517 116.59 229.303 116.122 229.089C115.472 228.792 114.82 228.502 114.164 228.216C109.662 226.212 105.656 223.491 102 220.197C101.791 220.018 101.582 219.839 101.367 219.654C100.13 218.589 99.0439 217.469 98.0102 216.207C97.808 215.967 97.6058 215.727 97.3975 215.48C94.7124 212.231 92.5487 208.556 90.7783 204.735C89.4597 204.841 88.3024 205.12 87.0376 205.514C85.638 205.925 84.7025 206.142 83.2969 205.733C82.3145 205.135 81.8432 204.603 81.5513 203.488C81.4277 202.52 81.5097 202.074 81.9565 201.197C83.1552 199.778 84.7651 199.539 86.5077 199.202C86.7269 199.158 86.9461 199.114 87.172 199.068C87.7087 198.96 88.2458 198.854 88.7832 198.75C88.7481 198.593 88.7129 198.437 88.6767 198.275C88.0458 195.45 87.4229 192.643 87.0376 189.772C86.7661 189.782 86.7661 189.782 86.489 189.792C85.664 189.818 84.8391 189.834 84.0139 189.85C83.7291 189.861 83.4442 189.871 83.1508 189.882C80.7807 189.916 80.7807 189.916 79.8699 189.175C79.1259 188.317 79.019 187.922 79.0107 186.811C79.0054 186.488 79.0054 186.488 79 186.158C79.0845 185.239 79.3456 184.719 80.0394 184.115C81.636 183.43 83.4219 183.527 85.1351 183.533C85.5317 183.534 85.5317 183.534 85.9363 183.535C86.1351 183.536 86.334 183.537 86.5388 183.538C86.5349 183.333 86.531 183.127 86.527 182.915C86.3776 173.854 87.6536 165.005 91.4134 156.659C91.5179 156.426 91.6225 156.194 91.7302 155.955C91.9298 155.521 92.1352 155.09 92.3479 154.663C93.0976 153.059 93.068 151.849 92.7733 150.121C92.7397 149.909 92.7061 149.696 92.6714 149.477C92.599 149.033 92.5242 148.59 92.4472 148.146C90.6287 137.501 89.9023 126.197 91.277 115.458C91.3024 115.249 91.3278 115.041 91.354 114.826C91.9247 110.279 92.8761 104.651 96.514 101.492C103.035 97.3654 112.317 102.798 118.21 105.732ZM100.504 107.337C99.3822 108.775 98.9066 110.197 98.4778 111.951C98.4383 112.109 98.3987 112.268 98.358 112.432C97.3651 116.783 97.421 121.199 97.4336 125.635C97.434 125.971 97.4345 126.306 97.4349 126.641C97.4486 133.803 97.8795 140.786 99.101 147.845C99.6075 150.867 100.017 153.629 98.5246 156.402C94.5374 164.538 92.3269 174.453 92.7733 183.538C93.2926 184.057 94.4213 183.857 95.1424 183.881C96.8111 183.955 98.4504 184.09 100.099 184.364C100.358 184.404 100.358 184.404 100.623 184.444C101.741 184.644 102.456 184.964 103.247 185.782C103.61 186.688 103.63 187.615 103.33 188.543C102.973 189.24 102.635 189.701 101.937 190.067C99.4697 190.804 96.3253 190.208 93.7708 190.022C93.6893 191.549 93.9901 192.867 94.3787 194.339C94.4361 194.565 94.4934 194.791 94.5526 195.024C94.8307 196.167 94.8307 196.167 95.2671 197.254C95.6984 197.218 96.1296 197.182 96.5607 197.145C96.8009 197.124 97.041 197.104 97.2884 197.083C97.9931 197.019 97.9931 197.019 98.6064 196.874C99.4577 196.718 100.278 196.713 101.143 196.708C101.467 196.705 101.792 196.701 102.126 196.698C103.359 196.779 103.359 196.779 103.995 197.254C104.452 197.944 104.579 198.537 104.603 199.358C104.618 199.635 104.618 199.635 104.633 199.918C104.421 200.799 104 201.279 103.247 201.743C102.282 202.067 101.302 202.258 100.301 202.444C100.033 202.498 99.7655 202.552 99.4895 202.607C98.8309 202.739 98.1717 202.866 97.5115 202.989C98.5605 206.41 100.467 209.249 102.748 211.967C102.916 212.167 102.916 212.167 103.087 212.371C108.908 219.208 117.07 223.231 125.523 225.821C129.374 227.007 129.374 227.007 130.18 228.426C130.338 229.69 130.187 230.403 129.432 231.419C128.827 231.752 128.827 231.752 128.107 232.011C123.537 233.799 119.648 236.419 116.095 239.803C115.587 240.283 115.071 240.74 114.541 241.196C111.629 243.733 108.804 246.526 106.489 249.623C106.265 249.915 106.042 250.206 105.818 250.497C103.033 254.165 99.7967 258.749 100.255 263.588C100.537 265.189 101.384 266.119 102.613 267.139C105.228 268.951 108.441 269.201 111.51 268.664C113.378 268.284 115.148 267.717 116.901 266.971C117.064 266.902 117.228 266.833 117.396 266.762C118.561 266.235 119.624 265.604 120.15 264.384C120.313 263.85 120.446 263.315 120.57 262.77C120.645 262.47 120.645 262.47 120.72 262.164C120.826 261.737 120.929 261.31 121.03 260.883C121.188 260.218 121.351 259.555 121.515 258.892C121.731 258.024 121.945 257.155 122.158 256.286C122.514 254.843 122.89 253.407 123.291 251.977C123.371 251.678 123.371 251.678 123.453 251.373C123.846 249.986 124.374 248.826 125.535 247.909C126.34 247.564 126.818 247.504 127.686 247.628C128.443 248.036 129.004 248.39 129.525 249.078C130.027 250.833 129.439 252.539 128.988 254.244C128.839 254.823 128.69 255.402 128.541 255.981C128.463 256.283 128.384 256.586 128.303 256.898C124.847 270.268 122.513 283.728 121.452 297.504C121.437 297.694 121.422 297.884 121.407 298.079C121.071 302.404 120.902 306.728 120.866 311.065C120.862 311.516 120.856 311.967 120.849 312.418C120.728 316.02 120.728 316.02 122.33 319.139C125.121 321.956 129.942 322.209 133.669 322.24C140.045 322.306 140.045 322.306 145.482 319.452C147.985 316.383 148.231 311.81 148.581 308.015C148.729 306.599 148.882 305.575 149.881 304.487C151.117 303.621 152.139 303.673 153.575 303.801C153.763 303.814 153.952 303.827 154.146 303.841C154.885 303.895 155.622 303.959 156.358 304.045C161.169 304.606 166.036 304.545 170.873 304.549C171.24 304.549 171.608 304.549 171.976 304.55C177.661 304.559 183.298 304.414 188.956 303.807C190.521 303.677 191.68 303.591 193.023 304.487C194.504 306.296 194.621 308.357 194.863 310.596C195.471 315.781 195.471 315.781 198.151 320.135C201.986 323.033 208.777 322.55 213.269 321.974C216.149 321.552 219.124 320.995 221.141 318.717C222.369 317.045 222.496 315.317 222.485 313.287C222.485 313.095 222.484 312.902 222.483 312.704C222.459 309.827 222.295 306.954 222.138 304.081C222.122 303.775 222.105 303.468 222.088 303.152C221.335 289.424 219.598 275.781 216.254 262.431C216.211 262.262 216.169 262.093 216.126 261.919C215.7 260.223 215.269 258.527 214.828 256.834C214.704 256.353 214.58 255.872 214.456 255.391C214.303 254.799 214.149 254.207 213.992 253.615C213.619 252.163 213.341 250.875 213.473 249.374C214.013 248.485 214.511 248.015 215.468 247.628C216.012 247.59 216.012 247.59 216.574 247.644C216.759 247.657 216.944 247.67 217.134 247.684C217.994 247.972 218.373 248.436 218.959 249.125C219.265 249.79 219.451 250.474 219.637 251.181C219.693 251.38 219.748 251.58 219.806 251.785C219.985 252.43 220.158 253.076 220.33 253.722C220.452 254.165 220.574 254.608 220.697 255.05C221.395 257.596 222.063 260.149 222.535 262.748C222.805 264.114 223.183 264.858 224.196 265.833C228.001 268.264 232.612 269.44 237.07 268.545C239.432 267.934 241.076 266.979 242.386 264.897C243.324 262.906 242.902 261.017 242.248 259.016C240.322 253.941 237.053 249.854 233.423 245.883C233.21 245.643 232.997 245.404 232.777 245.158C231.178 243.37 229.489 241.73 227.687 240.147C227.562 240.035 227.437 239.924 227.308 239.809C223.693 236.602 219.808 233.688 215.187 232.136C214.399 231.858 213.959 231.658 213.301 231.123C212.849 230.153 212.686 229.22 212.974 228.177C213.842 227.089 214.609 226.716 215.935 226.353C216.292 226.249 216.649 226.145 217.006 226.039C217.199 225.983 217.392 225.927 217.591 225.869C225.558 223.482 232.309 219.88 238.41 214.212C238.579 214.059 238.749 213.906 238.923 213.749C241.932 210.915 244.436 206.927 245.642 202.989C245.468 202.958 245.293 202.927 245.113 202.895C244.317 202.75 243.522 202.597 242.728 202.444C242.453 202.395 242.178 202.346 241.894 202.295C239.282 201.782 239.282 201.782 238.41 200.496C238.198 199.726 238.254 199.031 238.41 198.251C238.858 197.536 239.154 197.131 239.907 196.755C242.539 196.533 245.063 197.018 247.637 197.503C248.156 196.176 248.589 194.865 248.931 193.482C248.975 193.313 249.019 193.144 249.065 192.971C249.317 191.966 249.43 191.056 249.383 190.022C249.136 190.04 248.888 190.058 248.633 190.076C246.921 190.196 245.208 190.297 243.491 190.334C243.221 190.34 242.95 190.346 242.671 190.353C241.763 190.256 241.18 190.003 240.405 189.523C239.845 188.584 239.657 187.967 239.657 186.873C239.962 185.845 240.311 185.44 241.154 184.785C242.254 184.342 243.252 184.199 244.432 184.128C244.596 184.118 244.76 184.108 244.929 184.097C245.447 184.065 245.966 184.035 246.484 184.006C246.838 183.984 247.191 183.962 247.545 183.94C248.407 183.887 249.269 183.837 250.131 183.787C250.222 179.563 250.16 175.479 249.383 171.318C249.343 171.101 249.303 170.883 249.261 170.659C248.27 165.477 246.633 160.351 244.331 155.601C243.15 153.054 243.721 150.632 244.138 147.944C245.27 140.529 245.707 133.101 245.72 125.604C245.721 125.358 245.722 125.112 245.723 124.858C245.732 120.527 245.632 116.109 244.567 111.888C244.52 111.679 244.473 111.47 244.425 111.254C244.012 109.55 243.4 107.977 241.902 106.979C240.524 106.889 239.343 107.042 238.021 107.446C237.841 107.501 237.662 107.555 237.477 107.611C227.349 110.825 217.551 117.072 208.937 123.175C207.27 124.327 205.769 124.863 203.747 124.685C202.979 124.427 202.979 124.427 202.188 124.061C197.398 121.994 192.15 120.89 187.038 119.946C186.839 119.908 186.639 119.87 186.433 119.831C171.514 117.016 155.295 118.701 141.117 124.014C139.467 124.627 138.128 125.026 136.43 124.342C134.014 123.179 131.787 121.588 129.541 120.133C125.783 117.705 121.952 115.386 118.014 113.262C117.637 113.058 117.261 112.854 116.886 112.648C108.977 107.948 108.977 107.948 100.504 107.337Z" fill="black"/>
<path d="M171.359 242.267C171.651 242.268 171.943 242.27 172.244 242.271C177.857 242.388 182.394 244.384 186.29 248.376C186.49 248.574 186.689 248.771 186.895 248.974C192.837 255.152 194.66 264.519 194.625 272.791C194.526 277.505 193.196 281.424 189.782 284.786C189.622 284.944 189.463 285.103 189.299 285.267C183.554 290.642 175.297 290.564 167.935 290.325C163.019 290.119 158.308 288.791 154.37 285.783C154.183 285.642 153.996 285.501 153.804 285.355C150.566 282.725 148.882 278.652 148.427 274.58C148.292 272.917 148.353 271.24 148.385 269.573C148.389 269.306 148.393 269.039 148.397 268.763C148.741 261.385 151.592 254.207 156.365 248.626C156.513 248.452 156.661 248.278 156.814 248.099C160.543 244.074 165.983 242.235 171.359 242.267Z" fill="#F2D3A3"/>
<path d="M188.389 243.057C188.602 243.248 188.814 243.44 189.033 243.638C189.243 243.827 189.453 244.017 189.669 244.212C193.583 247.931 196.073 252.779 197.762 257.853C197.853 258.119 197.945 258.385 198.039 258.659C200.086 265.138 200.68 272.678 199.009 279.299C198.968 279.461 198.928 279.624 198.887 279.791C197.593 284.775 194.202 288.93 189.804 291.553C184.128 294.73 178.136 295.567 171.733 295.571C171.417 295.571 171.417 295.571 171.095 295.572C167.883 295.568 164.747 295.475 161.602 294.761C161.418 294.719 161.233 294.678 161.044 294.635C155.212 293.256 149.633 290.022 146.416 284.874C142.417 278.22 142.462 269.117 144.236 261.727C144.288 261.518 144.341 261.31 144.395 261.095C144.447 260.883 144.499 260.671 144.553 260.453C146.032 254.631 148.641 249.393 152.624 244.885C152.853 244.625 152.853 244.625 153.086 244.36C162.086 234.766 178.626 234.665 188.389 243.057ZM155.47 249.622C151.001 255.192 148.646 262.48 148.385 269.573C148.378 269.743 148.371 269.912 148.364 270.087C148.193 274.909 148.909 279.331 151.876 283.289C152.031 283.511 152.031 283.511 152.19 283.736C155.43 287.976 161.244 289.465 166.251 290.201C168.007 290.412 169.779 290.383 171.546 290.365C171.857 290.364 171.857 290.364 172.174 290.362C179.008 290.321 185.235 289.324 190.28 284.287C190.523 284.049 190.523 284.049 190.77 283.806C194.377 280.001 194.715 275.012 194.599 270.052C194.292 262.003 191.722 253.977 186.041 248.127C185.898 247.969 185.755 247.811 185.608 247.648C182.484 244.285 177.718 242.502 173.206 242.295C165.972 242.11 160.326 244.088 155.47 249.622Z" fill="black"/>
<path d="M227.64 182.837C230.309 184.662 231.929 187.136 232.675 190.271C233.092 194.172 232.256 197.138 229.811 200.213C227.819 202.432 225.002 203.592 222.085 203.799C218.544 203.918 215.658 202.898 212.975 200.561C210.638 198.13 209.654 195.094 209.695 191.789C209.849 188.591 211.102 185.953 213.473 183.787C217.823 180.521 222.896 180.031 227.64 182.837Z" fill="#F4A99C"/>
<path d="M127.437 182.291C127.629 182.387 127.821 182.483 128.019 182.581C130.503 183.98 132.299 186.655 133.141 189.336C133.859 192.386 133.564 195.443 132.04 198.199C130.397 200.688 128.048 202.562 125.193 203.488C122.006 204.11 118.828 203.946 115.972 202.317C113.371 200.55 111.408 198.119 110.729 195.009C110.406 190.736 110.912 187.832 113.674 184.487C117.234 180.586 122.873 180.015 127.437 182.291Z" fill="#F4A99C"/>
<path d="M108.109 115.589C109.763 115.812 111.232 116.489 112.724 117.203C112.878 117.277 113.032 117.35 113.19 117.426C117.212 119.379 120.751 122.102 124.26 124.844C124.641 125.142 125.024 125.436 125.408 125.73C126.113 126.327 126.415 126.737 126.532 127.661C126.416 128.619 126.189 128.826 125.457 129.438C125.23 129.63 125.003 129.822 124.769 130.019C123.641 130.921 122.489 131.791 121.336 132.66C119.844 133.79 118.422 134.986 117.012 136.215C116.303 136.832 115.577 137.424 114.843 138.011C113.755 138.892 112.73 139.826 111.71 140.785C109.613 142.744 109.613 142.744 108.609 143.606C108.426 143.765 108.244 143.924 108.056 144.087C107.487 144.386 107.487 144.386 106.702 144.359C105.99 144.136 105.99 144.136 105.445 143.341C103.583 138.968 103.66 133.642 103.681 128.979C103.684 128.252 103.681 127.525 103.678 126.798C103.671 118.503 103.671 118.503 105.567 116.032C106.341 115.438 107.168 115.563 108.109 115.589Z" fill="#F4A99C"/>
<path d="M236.914 115.707C238.764 117.171 239.008 119.781 239.267 122C239.905 128.742 240.317 137.647 237.413 143.887C236.627 144.28 236.007 144.366 235.168 144.136C234.393 143.595 233.738 142.944 233.068 142.279C232.29 141.513 231.491 140.769 230.695 140.021C230.523 139.859 230.35 139.696 230.173 139.529C228.811 138.252 227.404 137.066 225.941 135.907C225.499 135.544 225.058 135.18 224.617 134.816C223.572 133.96 222.515 133.123 221.453 132.291C221.158 132.058 220.864 131.826 220.569 131.594C220.012 131.156 219.45 130.725 218.884 130.299C218.512 130.012 218.512 130.012 218.133 129.719C217.913 129.553 217.692 129.387 217.466 129.215C216.833 128.534 216.738 128.1 216.714 127.178C217.892 125.378 219.737 124.193 221.453 122.939C221.613 122.82 221.774 122.701 221.939 122.579C232.71 114.638 232.71 114.638 236.914 115.707Z" fill="#F4A99C"/>
<path d="M171.639 178.971C171.885 178.964 172.131 178.957 172.384 178.949C174.113 178.934 175.537 179.206 177.063 180.047C177.939 180.922 178.267 181.601 178.388 182.837C178.235 184.701 177.321 185.897 176.003 187.17C175.567 187.528 175.567 187.528 174.834 187.855C174.273 188.223 174.273 188.223 174.218 188.795C174.144 190.893 174.704 192.891 176.066 194.511C177.694 195.816 179.323 196.337 181.396 196.241C183.959 195.922 185.465 194.748 187.085 192.792C187.698 192.079 187.914 192.028 188.862 191.939C189.925 192.029 190.285 192.271 191.028 193.014C191.461 193.881 191.393 194.81 191.278 195.758C189.988 198.241 187.46 200.094 184.884 201.063C182.034 201.94 178.763 201.846 176.043 200.636C174.454 199.783 173.079 198.801 171.826 197.503C171.105 197.833 170.71 198.112 170.112 198.672C167.315 201.14 164.036 201.724 160.432 201.549C157.034 201.222 154.655 199.21 152.507 196.735C151.808 195.859 151.779 195.171 151.786 194.077C151.928 193.183 152.425 192.798 153.123 192.266C153.847 191.904 154.313 191.924 155.118 192.017C156.023 192.639 156.65 193.299 157.331 194.152C158.444 195.449 159.372 195.93 161.088 196.11C163.181 196.214 165.159 196.166 166.839 194.76C168.263 193.109 169.013 191.372 168.978 189.185C168.802 188.382 168.592 188.184 167.93 187.715C167.748 187.604 167.567 187.492 167.38 187.377C166.208 186.624 165.162 185.406 164.844 184.037C164.709 182.784 164.704 181.838 165.249 180.686C166.957 178.843 169.303 178.994 171.639 178.971Z" fill="black"/>
<path d="M129.554 169.966C129.715 169.961 129.715 169.961 129.88 169.955C130.553 170.049 130.968 170.519 131.424 171.033C131.524 171.145 131.625 171.256 131.728 171.371C131.928 171.599 132.128 171.827 132.328 172.056C134.653 174.469 137.813 175.132 140.915 175.051C143.791 174.924 146.66 173.698 148.618 171.376C148.751 171.215 148.883 171.053 149.013 170.889C149.438 170.356 149.718 170.047 150.363 169.954C151.141 169.942 151.749 169.967 152.34 170.561C152.788 171.103 153.021 171.63 153.067 172.362C152.987 173.831 151.876 175.067 150.932 176.017C149.093 177.746 146.979 178.79 144.664 179.515C144.529 179.56 144.529 179.56 144.392 179.605C140.337 180.902 135.638 180.136 131.952 177.985C130.36 177.015 127.976 175.205 127.395 173.219C127.285 172.216 127.346 171.513 127.907 170.701C128.436 170.164 128.838 169.981 129.554 169.966Z" fill="black"/>
<path d="M192.351 170.995C192.47 170.991 192.588 170.986 192.711 170.981C193.522 171.099 194.006 171.686 194.514 172.281C196.311 174.299 199.062 175.375 201.735 175.605C204.877 175.768 208.198 175.22 210.625 173.074C211.03 172.689 211.408 172.292 211.771 171.868C212.154 171.421 212.454 171.088 213.062 170.996C213.792 170.955 214.387 171.09 214.967 171.543C215.436 172.05 215.699 172.503 215.818 173.185C215.698 174.508 214.696 175.605 213.729 176.428C210 179.469 205.333 180.611 200.569 180.135C199.841 180.031 199.134 179.867 198.426 179.668C198.299 179.633 198.299 179.633 198.169 179.598C195.238 178.782 192.207 177.012 190.489 174.455C190.167 173.881 190.009 173.338 190.156 172.685C190.59 171.713 191.255 171.024 192.351 170.995Z" fill="black"/>
<path d="M211.155 124.693C211.295 124.692 211.295 124.692 211.437 124.69C211.538 124.69 211.64 124.69 211.745 124.69C211.853 124.689 211.962 124.688 212.07 124.687C212.364 124.685 212.659 124.684 212.953 124.684C213.137 124.683 213.321 124.683 213.505 124.682C214.081 124.68 214.658 124.678 215.234 124.678C215.898 124.677 216.562 124.674 217.227 124.67C217.741 124.667 218.255 124.665 218.769 124.665C219.076 124.665 219.382 124.664 219.689 124.661C219.978 124.658 220.266 124.658 220.555 124.659C220.711 124.66 220.867 124.657 221.023 124.655C221.555 124.66 221.897 124.7 222.303 125.059C222.917 125.692 222.993 126.231 222.998 127.086C222.999 127.181 223 127.275 223.001 127.373C223.002 127.573 223.003 127.773 223.004 127.973C223.005 128.277 223.01 128.581 223.015 128.886C223.016 129.081 223.017 129.276 223.017 129.471C223.019 129.561 223.021 129.651 223.024 129.743C223.018 130.413 222.825 130.819 222.417 131.343C222.363 131.414 222.363 131.414 222.308 131.485C222.212 131.603 222.112 131.716 222.012 131.83C221.939 131.915 221.865 132 221.792 132.085C221.755 132.128 221.718 132.171 221.68 132.215C221.46 132.474 221.253 132.743 221.045 133.011C220.825 133.292 220.604 133.572 220.38 133.849C219.706 134.684 219.064 135.541 218.438 136.411C218.406 136.456 218.374 136.5 218.341 136.545C218.19 136.757 218.06 136.967 217.946 137.201C218.015 137.199 218.084 137.197 218.154 137.194C218.768 137.174 219.381 137.155 219.995 137.138C220.328 137.129 220.661 137.118 220.995 137.106C221.135 137.102 221.275 137.099 221.415 137.095C221.476 137.093 221.538 137.09 221.601 137.087C222.077 137.08 222.415 137.238 222.802 137.51C223.132 137.848 223.283 138.189 223.286 138.661C223.287 138.735 223.288 138.808 223.288 138.884C223.288 139.002 223.288 139.002 223.288 139.123C223.288 139.205 223.289 139.286 223.289 139.371C223.289 139.544 223.29 139.717 223.289 139.889C223.289 140.153 223.291 140.416 223.293 140.68C223.293 140.848 223.293 141.016 223.293 141.185C223.294 141.263 223.294 141.341 223.295 141.422C223.292 141.941 223.25 142.414 222.904 142.83C222.859 142.864 222.815 142.899 222.769 142.934C222.724 142.97 222.68 143.005 222.634 143.042C222.322 143.253 222.106 143.31 221.726 143.311C221.584 143.312 221.584 143.312 221.44 143.313C221.336 143.313 221.232 143.313 221.127 143.313C221.018 143.314 220.908 143.314 220.798 143.315C220.499 143.316 220.201 143.316 219.902 143.317C219.716 143.317 219.529 143.317 219.343 143.317C218.691 143.319 218.04 143.319 217.388 143.319C216.782 143.319 216.175 143.321 215.569 143.323C215.048 143.325 214.526 143.326 214.005 143.326C213.694 143.326 213.383 143.326 213.072 143.328C212.779 143.33 212.486 143.33 212.194 143.328C212.086 143.328 211.979 143.329 211.872 143.33C211.201 143.335 210.665 143.322 210.159 142.831C210.108 142.756 210.108 142.756 210.055 142.679C210.02 142.629 209.984 142.579 209.948 142.527C209.769 142.223 209.68 141.958 209.674 141.605C209.672 141.496 209.672 141.496 209.669 141.385C209.669 141.307 209.668 141.229 209.668 141.149C209.666 141.027 209.666 141.027 209.665 140.903C209.663 140.732 209.662 140.56 209.662 140.388C209.66 140.128 209.656 139.869 209.651 139.609C209.634 137.995 209.634 137.995 210.161 137.279C210.205 137.214 210.25 137.15 210.295 137.084C210.435 136.889 210.581 136.701 210.73 136.513C210.839 136.372 210.949 136.231 211.058 136.09C211.114 136.019 211.17 135.948 211.227 135.874C211.496 135.53 211.761 135.183 212.026 134.836C212.077 134.769 212.128 134.702 212.181 134.633C212.553 134.145 212.913 133.649 213.269 133.149C213.588 132.704 213.924 132.275 214.27 131.852C214.471 131.611 214.471 131.611 214.632 131.343C214.589 131.343 214.547 131.343 214.503 131.343C214.055 131.342 213.607 131.337 213.159 131.332C212.993 131.33 212.826 131.329 212.659 131.328C212.419 131.328 212.178 131.324 211.937 131.321C211.864 131.321 211.79 131.321 211.714 131.322C211.125 131.309 210.585 131.161 210.165 130.725C209.702 130.153 209.674 129.595 209.673 128.882C209.672 128.793 209.672 128.704 209.671 128.613C209.671 128.426 209.67 128.238 209.67 128.051C209.67 127.765 209.667 127.479 209.664 127.194C209.664 127.011 209.663 126.829 209.663 126.647C209.662 126.562 209.661 126.476 209.66 126.389C209.663 125.889 209.709 125.583 210.007 125.177C210.376 124.836 210.653 124.696 211.155 124.693Z" fill="black"/>
<path d="M220.875 126.873C221.066 129.677 221.066 129.677 220.437 130.399C220.301 130.545 220.162 130.684 220.016 130.82C219.77 131.058 219.565 131.33 219.353 131.599C219.269 131.701 219.186 131.804 219.102 131.906C218.781 132.3 218.479 132.708 218.178 133.116C217.533 133.982 216.885 134.845 216.213 135.69C215.154 136.922 215.154 136.922 214.786 138.435C214.875 138.781 215.034 138.929 215.326 139.128C215.596 139.219 215.814 139.218 216.1 139.221C216.155 139.222 216.21 139.223 216.266 139.224C216.448 139.226 216.629 139.228 216.81 139.23C216.936 139.232 217.062 139.233 217.188 139.235C217.519 139.239 217.85 139.243 218.181 139.247C218.519 139.25 218.857 139.255 219.195 139.259C219.858 139.267 220.521 139.275 221.184 139.283C221.184 139.893 221.184 140.504 221.184 141.133C218.055 141.133 214.926 141.133 211.703 141.133C211.703 138.321 211.703 138.321 212.485 137.497C212.536 137.447 212.586 137.398 212.638 137.348C212.864 137.118 213.047 136.861 213.235 136.599C213.31 136.498 213.386 136.397 213.461 136.296C213.5 136.243 213.54 136.191 213.58 136.137C213.823 135.814 214.069 135.494 214.314 135.173C214.759 134.59 215.198 134.003 215.632 133.412C215.924 133.014 216.219 132.619 216.516 132.225C217.366 131.244 217.366 131.244 217.715 130.072C217.659 129.701 217.522 129.518 217.253 129.262C216.994 129.176 216.794 129.173 216.521 129.169C216.471 129.169 216.42 129.168 216.368 129.167C216.202 129.165 216.036 129.163 215.869 129.161C215.754 129.159 215.638 129.158 215.523 129.156C215.219 129.152 214.915 129.148 214.612 129.144C214.302 129.14 213.992 129.136 213.682 129.132C213.073 129.123 212.465 129.116 211.857 129.108C211.857 128.396 211.857 127.684 211.857 126.95C212.565 126.937 213.273 126.924 213.982 126.911C214.035 126.91 214.088 126.909 214.143 126.909C216.387 126.87 218.631 126.864 220.875 126.873Z" fill="#AADCE7"/>
<path d="M227.644 118.702C227.828 118.7 227.828 118.7 228.016 118.699C228.15 118.698 228.284 118.698 228.422 118.698C228.565 118.697 228.709 118.696 228.852 118.695C229.24 118.692 229.628 118.691 230.016 118.69C230.259 118.689 230.502 118.689 230.745 118.688C231.505 118.685 232.265 118.683 233.025 118.682C233.902 118.681 234.778 118.678 235.655 118.672C236.333 118.667 237.011 118.665 237.689 118.665C238.094 118.665 238.499 118.664 238.904 118.66C239.285 118.657 239.666 118.656 240.047 118.658C240.252 118.658 240.458 118.655 240.663 118.653C241.366 118.659 241.817 118.711 242.352 119.186C243.163 120.02 243.263 120.731 243.27 121.86C243.271 121.985 243.272 122.11 243.273 122.238C243.275 122.502 243.277 122.766 243.277 123.03C243.278 123.432 243.285 123.833 243.292 124.234C243.294 124.491 243.294 124.749 243.295 125.006C243.298 125.125 243.3 125.243 243.303 125.366C243.296 126.249 243.041 126.784 242.503 127.477C242.431 127.569 242.431 127.569 242.359 127.664C242.233 127.819 242.101 127.969 241.969 128.119C241.872 128.231 241.775 128.343 241.678 128.455C241.629 128.512 241.58 128.568 241.53 128.626C241.241 128.968 240.967 129.323 240.692 129.677C240.403 130.048 240.11 130.416 239.815 130.783C238.927 131.884 238.079 133.015 237.253 134.163C237.211 134.222 237.169 134.28 237.125 134.34C236.925 134.62 236.754 134.896 236.604 135.206C236.695 135.203 236.785 135.2 236.879 135.196C237.688 135.169 238.497 135.144 239.307 135.122C239.747 135.11 240.187 135.096 240.627 135.079C240.811 135.075 240.996 135.07 241.181 135.066C241.262 135.062 241.343 135.058 241.426 135.054C242.055 135.045 242.5 135.254 243.011 135.613C243.446 136.059 243.646 136.509 243.65 137.132C243.65 137.229 243.651 137.326 243.652 137.426C243.652 137.582 243.652 137.582 243.652 137.741C243.653 137.849 243.653 137.957 243.653 138.068C243.654 138.296 243.654 138.524 243.654 138.752C243.653 139.1 243.656 139.447 243.658 139.795C243.659 140.017 243.659 140.239 243.659 140.461C243.659 140.564 243.66 140.667 243.661 140.774C243.657 141.459 243.602 142.084 243.145 142.632C243.086 142.677 243.028 142.723 242.967 142.77C242.908 142.816 242.85 142.863 242.789 142.912C242.378 143.19 242.092 143.265 241.591 143.267C241.404 143.268 241.404 143.268 241.214 143.27C241.077 143.27 240.939 143.27 240.802 143.269C240.657 143.27 240.512 143.271 240.366 143.271C239.973 143.273 239.579 143.274 239.185 143.274C238.939 143.274 238.693 143.274 238.447 143.275C237.587 143.277 236.728 143.278 235.868 143.278C235.068 143.277 234.268 143.28 233.468 143.283C232.78 143.285 232.092 143.287 231.405 143.286C230.994 143.286 230.584 143.287 230.173 143.289C229.787 143.291 229.401 143.291 229.014 143.29C228.873 143.289 228.732 143.29 228.59 143.291C227.704 143.298 226.998 143.281 226.331 142.633C226.263 142.534 226.263 142.534 226.193 142.433C226.146 142.367 226.099 142.301 226.051 142.233C225.816 141.831 225.698 141.481 225.69 141.015C225.687 140.872 225.687 140.872 225.684 140.725C225.683 140.622 225.682 140.52 225.682 140.414C225.68 140.254 225.68 140.254 225.678 140.09C225.676 139.864 225.675 139.637 225.674 139.411C225.672 139.068 225.666 138.725 225.659 138.382C225.638 136.253 225.638 136.253 226.333 135.307C226.391 135.223 226.449 135.138 226.509 135.051C226.694 134.793 226.886 134.545 227.083 134.297C227.228 134.111 227.372 133.925 227.516 133.739C227.59 133.645 227.663 133.551 227.739 133.455C228.094 133.001 228.443 132.543 228.793 132.085C228.86 131.997 228.928 131.908 228.997 131.817C229.488 131.173 229.963 130.518 230.434 129.859C230.855 129.272 231.298 128.706 231.754 128.147C232.019 127.829 232.019 127.829 232.231 127.477C232.175 127.477 232.119 127.476 232.061 127.476C231.47 127.474 230.879 127.469 230.289 127.461C230.069 127.459 229.849 127.457 229.629 127.457C229.311 127.456 228.994 127.452 228.676 127.447C228.579 127.447 228.482 127.448 228.382 127.448C227.604 127.432 226.893 127.235 226.338 126.661C225.727 125.906 225.691 125.169 225.689 124.229C225.688 124.112 225.687 123.995 225.687 123.874C225.686 123.627 225.685 123.38 225.685 123.133C225.685 122.756 225.681 122.379 225.677 122.002C225.677 121.761 225.676 121.52 225.676 121.28C225.674 121.168 225.673 121.055 225.672 120.94C225.675 120.281 225.736 119.876 226.13 119.341C226.616 118.891 226.982 118.706 227.644 118.702Z" fill="black"/>
<path d="M240.469 121.578C240.72 125.278 240.72 125.278 239.891 126.231C239.711 126.423 239.528 126.607 239.335 126.786C239.01 127.101 238.74 127.459 238.46 127.814C238.35 127.949 238.239 128.084 238.129 128.219C237.706 128.739 237.308 129.277 236.91 129.816C236.058 130.957 235.205 132.097 234.317 133.211C232.921 134.837 232.921 134.837 232.435 136.833C232.552 137.289 232.761 137.485 233.147 137.748C233.504 137.867 233.791 137.866 234.168 137.871C234.24 137.872 234.313 137.873 234.388 137.874C234.627 137.877 234.866 137.88 235.106 137.882C235.272 137.884 235.438 137.886 235.604 137.888C236.04 137.894 236.477 137.899 236.914 137.904C237.36 137.909 237.806 137.915 238.252 137.92C239.126 137.931 240.001 137.942 240.876 137.952C240.876 138.757 240.876 139.562 240.876 140.392C236.748 140.392 232.62 140.392 228.367 140.392C228.367 136.683 228.367 136.683 229.399 135.595C229.465 135.53 229.532 135.466 229.6 135.399C229.899 135.096 230.14 134.756 230.388 134.411C230.487 134.278 230.587 134.144 230.687 134.011C230.739 133.942 230.79 133.873 230.843 133.801C231.164 133.376 231.488 132.953 231.812 132.53C232.4 131.761 232.979 130.986 233.551 130.206C233.936 129.681 234.325 129.159 234.717 128.64C235.839 127.345 235.839 127.345 236.299 125.799C236.225 125.31 236.044 125.069 235.689 124.731C235.348 124.617 235.084 124.613 234.724 124.608C234.657 124.607 234.591 124.606 234.522 124.605C234.303 124.602 234.083 124.6 233.864 124.597C233.711 124.595 233.559 124.593 233.407 124.591C233.006 124.585 232.605 124.58 232.205 124.575C231.796 124.57 231.387 124.564 230.978 124.559C230.175 124.548 229.373 124.537 228.57 124.527C228.57 123.588 228.57 122.648 228.57 121.68C229.505 121.662 230.439 121.645 231.373 121.629C231.443 121.628 231.514 121.627 231.586 121.625C234.547 121.575 237.507 121.566 240.469 121.578Z" fill="#AADCE7"/>
<path d="M248.984 111.382C249.229 111.38 249.229 111.38 249.479 111.377C249.658 111.377 249.837 111.377 250.021 111.376C250.212 111.375 250.403 111.374 250.594 111.372C251.111 111.369 251.629 111.367 252.147 111.366C252.471 111.365 252.794 111.364 253.118 111.363C254.132 111.359 255.145 111.356 256.159 111.355C257.327 111.354 258.496 111.349 259.665 111.342C260.569 111.336 261.473 111.333 262.377 111.333C262.917 111.332 263.457 111.331 263.996 111.326C264.504 111.321 265.012 111.321 265.52 111.323C265.794 111.323 266.068 111.32 266.342 111.316C267.279 111.324 267.881 111.394 268.594 112.027C269.675 113.14 269.809 114.087 269.818 115.592C269.819 115.759 269.821 115.925 269.823 116.097C269.825 116.449 269.827 116.801 269.827 117.153C269.829 117.688 269.838 118.223 269.848 118.758C269.849 119.101 269.851 119.444 269.852 119.787C269.855 119.945 269.859 120.104 269.862 120.267C269.853 121.444 269.513 122.158 268.795 123.081C268.7 123.205 268.7 123.205 268.603 123.331C268.436 123.538 268.26 123.738 268.083 123.937C267.954 124.087 267.824 124.236 267.695 124.386C267.63 124.461 267.565 124.537 267.498 124.614C267.112 125.07 266.748 125.543 266.381 126.015C265.995 126.51 265.605 127.001 265.211 127.49C264.027 128.958 262.897 130.466 261.795 131.997C261.739 132.075 261.683 132.152 261.625 132.232C261.359 132.606 261.13 132.974 260.931 133.387C261.051 133.383 261.172 133.379 261.296 133.374C262.375 133.338 263.455 133.305 264.534 133.276C265.121 133.26 265.707 133.24 266.294 133.218C266.54 133.212 266.786 133.206 267.033 133.2C267.141 133.195 267.249 133.19 267.36 133.185C268.198 133.172 268.791 133.451 269.473 133.929C270.053 134.524 270.32 135.125 270.324 135.955C270.325 136.084 270.327 136.214 270.328 136.347C270.328 136.555 270.328 136.555 270.328 136.767C270.328 136.911 270.329 137.055 270.329 137.203C270.33 137.507 270.33 137.811 270.33 138.115C270.329 138.579 270.332 139.042 270.336 139.505C270.336 139.802 270.336 140.098 270.336 140.394C270.337 140.531 270.339 140.669 270.34 140.811C270.334 141.725 270.26 142.557 269.652 143.289C269.573 143.349 269.495 143.409 269.414 143.472C269.336 143.534 269.258 143.597 269.177 143.661C268.629 144.032 268.247 144.133 267.579 144.135C267.33 144.137 267.33 144.137 267.077 144.139C266.893 144.139 266.71 144.138 266.527 144.138C266.334 144.139 266.14 144.14 265.947 144.141C265.422 144.143 264.897 144.144 264.372 144.144C264.043 144.144 263.715 144.145 263.387 144.146C262.241 144.148 261.095 144.149 259.949 144.149C258.882 144.149 257.815 144.152 256.748 144.156C255.831 144.16 254.914 144.161 253.998 144.161C253.45 144.161 252.903 144.162 252.356 144.165C251.841 144.167 251.326 144.167 250.811 144.165C250.622 144.165 250.434 144.166 250.245 144.167C249.064 144.177 248.122 144.154 247.232 143.29C247.142 143.158 247.142 143.158 247.049 143.023C246.986 142.935 246.924 142.847 246.859 142.756C246.546 142.22 246.389 141.754 246.378 141.133C246.374 140.941 246.374 140.941 246.37 140.746C246.369 140.609 246.368 140.472 246.367 140.331C246.365 140.117 246.365 140.117 246.362 139.899C246.36 139.597 246.358 139.295 246.357 138.993C246.354 138.536 246.346 138.079 246.337 137.621C246.308 134.783 246.308 134.783 247.235 133.522C247.313 133.409 247.391 133.297 247.471 133.18C247.716 132.837 247.973 132.506 248.236 132.175C248.428 131.927 248.621 131.679 248.813 131.431C248.911 131.306 249.009 131.181 249.11 131.052C249.583 130.447 250.049 129.837 250.515 129.226C250.605 129.108 250.695 128.99 250.788 128.869C251.442 128.009 252.076 127.137 252.703 126.257C253.264 125.475 253.855 124.721 254.464 123.975C254.816 123.551 254.816 123.551 255.1 123.081C255.025 123.081 254.95 123.081 254.872 123.081C254.085 123.078 253.297 123.071 252.51 123.061C252.216 123.058 251.923 123.056 251.63 123.055C251.206 123.054 250.783 123.048 250.36 123.042C250.23 123.042 250.101 123.043 249.967 123.043C248.931 123.021 247.982 122.76 247.242 121.994C246.428 120.987 246.379 120.005 246.376 118.751C246.375 118.595 246.375 118.439 246.374 118.278C246.372 117.949 246.372 117.619 246.372 117.29C246.371 116.787 246.366 116.284 246.361 115.781C246.36 115.461 246.36 115.14 246.359 114.819C246.357 114.669 246.356 114.52 246.354 114.365C246.359 113.487 246.439 112.947 246.964 112.234C247.612 111.634 248.101 111.387 248.984 111.382Z" fill="black"/>
<path d="M266.083 115.217C266.419 120.149 266.419 120.149 265.312 121.42C265.073 121.677 264.828 121.921 264.572 122.16C264.138 122.58 263.778 123.058 263.405 123.531C263.258 123.711 263.111 123.891 262.963 124.071C262.399 124.765 261.868 125.481 261.337 126.2C260.203 127.722 259.064 129.242 257.881 130.727C256.019 132.895 256.019 132.895 255.371 135.556C255.527 136.165 255.807 136.426 256.32 136.777C256.797 136.935 257.179 136.934 257.682 136.94C257.779 136.941 257.875 136.943 257.975 136.944C258.294 136.948 258.613 136.952 258.932 136.955C259.154 136.958 259.375 136.961 259.596 136.964C260.179 136.971 260.761 136.978 261.344 136.984C261.938 136.991 262.533 136.999 263.127 137.006C264.293 137.021 265.459 137.035 266.626 137.048C266.626 138.122 266.626 139.196 266.626 140.302C261.122 140.302 255.618 140.302 249.947 140.302C249.947 135.356 249.947 135.356 251.323 133.906C251.412 133.82 251.501 133.733 251.592 133.644C251.99 133.24 252.312 132.787 252.642 132.327C252.775 132.149 252.907 131.971 253.041 131.794C253.11 131.701 253.178 131.609 253.249 131.514C253.676 130.947 254.109 130.383 254.541 129.819C255.324 128.793 256.097 127.761 256.86 126.72C257.373 126.02 257.891 125.325 258.414 124.632C259.91 122.906 259.91 122.906 260.524 120.844C260.425 120.193 260.183 119.871 259.71 119.42C259.255 119.269 258.903 119.263 258.423 119.257C258.335 119.256 258.246 119.254 258.155 119.253C257.862 119.249 257.569 119.245 257.276 119.242C257.073 119.239 256.87 119.236 256.667 119.233C256.133 119.226 255.598 119.219 255.064 119.213C254.519 119.206 253.973 119.198 253.428 119.191C252.358 119.176 251.288 119.162 250.219 119.149C250.219 117.896 250.219 116.643 250.219 115.352C251.464 115.329 252.71 115.306 253.956 115.285C254.049 115.283 254.143 115.281 254.239 115.28C258.187 115.212 262.134 115.201 266.083 115.217Z" fill="#AADCE7"/>
</svg>
