<svg width="350" height="350" viewBox="0 0 350 350" fill="none" xmlns="http://www.w3.org/2000/svg">
<path d="M119.517 98.9229C119.732 99.0292 119.947 99.1354 120.168 99.2449C123.653 100.979 126.959 103.008 130.271 105.046C131.287 105.672 132.306 106.293 133.327 106.91C133.592 107.071 133.858 107.232 134.132 107.398C134.625 107.696 135.118 107.994 135.611 108.292C135.834 108.427 136.056 108.563 136.286 108.702C136.499 108.831 136.711 108.96 136.931 109.093C137.749 109.611 138.532 110.176 139.31 110.753C140.266 111.229 141.101 111.12 142.112 110.85C142.346 110.764 142.581 110.679 142.822 110.59C143.091 110.495 143.36 110.4 143.637 110.301C143.926 110.198 144.215 110.094 144.513 109.988C154.054 106.697 164.031 105.247 174.099 105.301C174.371 105.302 174.643 105.303 174.923 105.303C185.672 105.344 196.013 107.073 206.266 110.33C206.511 110.406 206.756 110.482 207.008 110.56C207.647 110.777 207.647 110.777 208.471 111.18C209.693 111.369 210.451 110.615 211.416 109.923C211.877 109.609 212.338 109.295 212.8 108.983C213.049 108.814 213.297 108.645 213.553 108.471C214.968 107.529 216.42 106.647 217.874 105.768C218.027 105.676 218.179 105.583 218.336 105.488C222.658 102.874 227.038 100.335 231.596 98.1505C232.195 97.8598 232.788 97.5595 233.382 97.259C237.609 95.1491 242.113 93.2191 246.897 93.1893C247.107 93.184 247.318 93.1786 247.535 93.1732C249.603 93.16 251.29 93.668 252.832 95.0978C256.839 99.5588 257.311 106.649 257.897 112.323C257.925 112.594 257.925 112.594 257.954 112.871C258.765 121.12 257.989 129.557 257.14 137.77C257.108 138.086 257.108 138.086 257.076 138.409C256.682 142.281 256.682 142.281 256.279 144.021C255.464 147.561 256.533 149.836 258.068 153.059C261.847 161.318 262.706 170.376 262.536 179.323C262.814 179.322 262.814 179.322 263.098 179.321C268.31 179.312 268.31 179.312 269.413 180.208C270.304 181.197 270.358 181.812 270.337 183.105C270.225 184.055 269.88 184.556 269.235 185.249C267.051 186.587 264.451 186.022 262.02 185.765C261.993 185.98 261.993 185.98 261.966 186.2C261.58 189.22 261.099 192.125 260.216 195.042C260.533 195.107 260.85 195.173 261.177 195.24C261.597 195.33 262.018 195.419 262.439 195.509C262.647 195.551 262.855 195.594 263.07 195.638C264.57 195.961 265.845 196.348 267.013 197.393C267.598 198.429 267.669 199.29 267.432 200.453C266.989 201.309 266.376 201.851 265.563 202.37C263.732 202.744 261.825 202.112 260.071 201.597C259.861 201.536 259.65 201.476 259.433 201.414C258.92 201.267 258.409 201.118 257.897 200.969C257.853 201.112 257.81 201.255 257.765 201.402C257.318 202.808 256.775 204.098 256.077 205.398C255.976 205.586 255.875 205.774 255.772 205.968C254.143 208.939 252.14 211.533 249.783 213.966C249.514 214.243 249.248 214.523 248.983 214.803C243.913 220.171 236.941 225.105 229.809 227.253C230.122 227.492 230.122 227.492 230.442 227.735C233.239 229.871 235.945 232.066 238.516 234.471C239.046 234.967 239.58 235.457 240.122 235.939C241.333 237.019 242.479 238.097 243.522 239.341C243.853 239.729 244.196 240.105 244.546 240.475C247.514 243.604 249.954 247.155 251.97 250.961C252.091 251.178 252.211 251.396 252.336 251.62C254.515 255.703 255.581 260.363 254.299 264.897C253.095 268.28 251.011 270.449 247.847 272.091C242.13 274.429 236.443 274.47 230.729 272.087C230.335 271.919 229.943 271.748 229.551 271.576C229.598 271.759 229.645 271.941 229.694 272.129C230.334 274.741 230.717 277.37 231.081 280.032C231.131 280.392 231.131 280.392 231.182 280.759C236.111 316.563 236.111 316.563 230.848 323.528C227.604 327.044 222.619 328.701 217.955 329.041C216.505 329.091 215.057 329.104 213.606 329.106C213.305 329.106 213.305 329.106 212.998 329.106C207.439 329.101 201.082 328.682 196.793 324.679C194.578 322.238 193.645 319.345 192.911 316.205C192.868 316.025 192.824 315.845 192.78 315.66C192.509 314.427 192.386 313.214 192.301 311.954C192.279 311.631 192.257 311.308 192.235 310.974C192.219 310.729 192.202 310.483 192.186 310.23C192.02 310.245 191.855 310.26 191.685 310.276C186.498 310.738 181.343 310.826 176.139 310.812C175.031 310.809 173.923 310.811 172.815 310.814C167.566 310.826 162.371 310.692 157.14 310.23C157.124 310.457 157.107 310.684 157.091 310.917C157.058 311.367 157.058 311.367 157.024 311.825C156.992 312.269 156.992 312.269 156.959 312.722C156.859 313.844 156.672 314.928 156.431 316.028C156.386 316.236 156.341 316.444 156.294 316.658C155.421 320.499 153.951 323.593 150.698 325.949C146.352 328.588 141.455 329.091 136.492 329.103C135.889 329.106 135.286 329.114 134.682 329.122C128.953 329.162 123.394 328.064 119.066 324.064C115.724 320.525 115.786 316.47 115.829 311.889C115.83 311.613 115.832 311.338 115.833 311.055C115.886 300.98 116.806 291 118.116 281.014C118.141 280.817 118.167 280.62 118.194 280.417C118.572 277.545 119.026 274.689 119.517 271.834C119.196 271.939 118.876 272.045 118.546 272.154C112.506 274.122 106.995 274.762 101.108 271.93C98.0722 270.368 96.0521 268.039 94.8289 264.851C93.4181 259.836 95.2776 254.518 97.6689 250.128C99.6738 246.589 102.068 243.441 104.819 240.452C105.291 239.937 105.745 239.413 106.197 238.881C108.068 236.737 110.131 234.759 112.302 232.922C112.572 232.687 112.842 232.452 113.112 232.217C115.105 230.484 117.147 228.839 119.259 227.253C119.111 227.187 118.964 227.121 118.811 227.053C118.327 226.834 117.843 226.614 117.36 226.391C116.687 226.085 116.014 225.785 115.336 225.49C110.684 223.419 106.544 220.607 102.767 217.203C102.551 217.018 102.335 216.833 102.113 216.642C100.834 215.542 99.712 214.384 98.6439 213.08C98.435 212.832 98.226 212.584 98.0108 212.329C95.2362 208.972 93.0003 205.174 91.1709 201.226C89.8084 201.335 88.6125 201.624 87.3055 202.032C85.8593 202.455 84.8926 202.68 83.4401 202.257C82.4249 201.639 81.938 201.09 81.6363 199.938C81.5086 198.938 81.5933 198.476 82.0551 197.57C83.2937 196.104 84.9572 195.857 86.7579 195.509C86.9845 195.463 87.211 195.417 87.4444 195.37C87.999 195.259 88.554 195.149 89.1093 195.042C89.073 194.88 89.0367 194.718 88.9992 194.551C88.3473 191.632 87.7036 188.731 87.3055 185.765C87.0249 185.775 87.0249 185.775 86.7387 185.785C85.8862 185.812 85.0338 185.829 84.181 185.845C83.8867 185.856 83.5924 185.867 83.2891 185.878C80.84 185.914 80.84 185.914 79.8989 185.148C79.1301 184.261 79.0196 183.853 79.0111 182.705C79.0056 182.371 79.0056 182.371 79 182.03C79.0873 181.08 79.3571 180.543 80.074 179.918C81.7239 179.211 83.5693 179.311 85.3396 179.318C85.7494 179.319 85.7494 179.319 86.1675 179.32C86.373 179.321 86.5784 179.322 86.7901 179.323C86.7861 179.11 86.782 178.898 86.7779 178.679C86.6236 169.316 87.942 160.172 91.8272 151.547C91.9352 151.307 92.0432 151.067 92.1545 150.82C92.3608 150.372 92.5731 149.927 92.7928 149.485C93.5675 147.827 93.537 146.577 93.2324 144.792C93.1977 144.572 93.1629 144.353 93.1272 144.127C93.0523 143.668 92.975 143.209 92.8954 142.751C91.0163 131.751 90.2657 120.07 91.6863 108.973C91.7125 108.757 91.7387 108.542 91.7658 108.32C92.3555 103.622 93.3387 97.8058 97.0978 94.5422C103.837 90.2775 113.428 95.8914 119.517 98.9229Z" fill="#FBE9CC"/>
<path d="M119.517 98.9229C119.732 99.0292 119.947 99.1354 120.168 99.2449C123.653 100.979 126.959 103.008 130.271 105.046C131.287 105.672 132.306 106.293 133.327 106.91C133.592 107.071 133.858 107.232 134.132 107.398C134.625 107.696 135.118 107.994 135.611 108.292C135.834 108.427 136.056 108.563 136.286 108.702C136.499 108.831 136.711 108.96 136.931 109.093C137.749 109.611 138.532 110.176 139.31 110.753C140.266 111.229 141.101 111.12 142.112 110.85C142.346 110.764 142.581 110.679 142.822 110.59C143.091 110.495 143.36 110.4 143.637 110.301C143.926 110.198 144.215 110.094 144.513 109.988C154.054 106.697 164.031 105.247 174.099 105.301C174.371 105.302 174.643 105.303 174.923 105.303C185.672 105.344 196.013 107.073 206.266 110.33C206.511 110.406 206.756 110.482 207.008 110.56C207.647 110.777 207.647 110.777 208.471 111.18C209.693 111.369 210.451 110.615 211.416 109.923C211.877 109.609 212.338 109.295 212.8 108.983C213.049 108.814 213.297 108.645 213.553 108.471C214.968 107.529 216.42 106.647 217.874 105.768C218.027 105.676 218.179 105.583 218.336 105.488C222.658 102.874 227.038 100.335 231.596 98.1505C232.195 97.8598 232.788 97.5595 233.382 97.259C237.609 95.1491 242.113 93.2191 246.897 93.1893C247.107 93.184 247.318 93.1786 247.535 93.1732C249.603 93.16 251.29 93.668 252.832 95.0978C256.839 99.5588 257.311 106.649 257.897 112.323C257.925 112.594 257.925 112.594 257.954 112.871C258.765 121.12 257.989 129.557 257.14 137.77C257.108 138.086 257.108 138.086 257.076 138.409C256.682 142.281 256.682 142.281 256.279 144.021C255.464 147.561 256.533 149.836 258.068 153.059C261.847 161.318 262.706 170.376 262.536 179.323C262.814 179.322 262.814 179.322 263.098 179.321C268.31 179.312 268.31 179.312 269.413 180.208C270.304 181.197 270.358 181.812 270.337 183.105C270.225 184.055 269.88 184.556 269.235 185.249C267.051 186.587 264.451 186.022 262.02 185.765C261.993 185.98 261.993 185.98 261.966 186.2C261.58 189.22 261.099 192.125 260.216 195.042C260.533 195.107 260.85 195.173 261.177 195.24C261.597 195.33 262.018 195.419 262.439 195.509C262.647 195.551 262.855 195.594 263.07 195.638C264.57 195.961 265.845 196.348 267.013 197.393C267.598 198.429 267.669 199.29 267.432 200.453C266.989 201.309 266.376 201.851 265.563 202.37C263.732 202.744 261.825 202.112 260.071 201.597C259.861 201.536 259.65 201.476 259.433 201.414C258.92 201.267 258.409 201.118 257.897 200.969C257.853 201.112 257.81 201.255 257.765 201.402C257.318 202.808 256.775 204.098 256.077 205.398C255.976 205.586 255.875 205.774 255.772 205.968C254.143 208.939 252.14 211.533 249.783 213.966C249.514 214.243 249.248 214.523 248.983 214.803C243.913 220.171 236.941 225.105 229.809 227.253C230.122 227.492 230.122 227.492 230.442 227.735C233.239 229.871 235.945 232.066 238.516 234.471C239.046 234.967 239.58 235.457 240.122 235.939C241.333 237.019 242.479 238.097 243.522 239.341C243.853 239.729 244.196 240.105 244.546 240.475C247.514 243.604 249.954 247.155 251.97 250.961C252.091 251.178 252.211 251.396 252.336 251.62C254.515 255.703 255.581 260.363 254.299 264.897C253.095 268.28 251.011 270.449 247.847 272.091C242.13 274.429 236.443 274.47 230.729 272.087C230.335 271.919 229.943 271.748 229.551 271.576C229.598 271.759 229.645 271.941 229.694 272.129C230.334 274.741 230.717 277.37 231.081 280.032C231.131 280.392 231.131 280.392 231.182 280.759C236.111 316.563 236.111 316.563 230.848 323.528C227.604 327.044 222.619 328.701 217.955 329.041C216.505 329.091 215.057 329.104 213.606 329.106C213.305 329.106 213.305 329.106 212.998 329.106C207.439 329.101 201.082 328.682 196.793 324.679C194.578 322.238 193.645 319.345 192.911 316.205C192.868 316.025 192.824 315.845 192.78 315.66C192.509 314.427 192.386 313.214 192.301 311.954C192.279 311.631 192.257 311.308 192.235 310.974C192.219 310.729 192.202 310.483 192.186 310.23C192.02 310.245 191.855 310.26 191.685 310.276C186.498 310.738 181.343 310.826 176.139 310.812C175.031 310.809 173.923 310.811 172.815 310.814C167.566 310.826 162.371 310.692 157.14 310.23C157.124 310.457 157.107 310.684 157.091 310.917C157.058 311.367 157.058 311.367 157.024 311.825C156.992 312.269 156.992 312.269 156.959 312.722C156.859 313.844 156.672 314.928 156.431 316.028C156.386 316.236 156.341 316.444 156.294 316.658C155.421 320.499 153.951 323.593 150.698 325.949C146.352 328.588 141.455 329.091 136.492 329.103C135.889 329.106 135.286 329.114 134.682 329.122C128.953 329.162 123.394 328.064 119.066 324.064C115.724 320.525 115.786 316.47 115.829 311.889C115.83 311.613 115.832 311.338 115.833 311.055C115.886 300.98 116.806 291 118.116 281.014C118.141 280.817 118.167 280.62 118.194 280.417C118.572 277.545 119.026 274.689 119.517 271.834C119.196 271.939 118.876 272.045 118.546 272.154C112.506 274.122 106.995 274.762 101.108 271.93C98.0722 270.368 96.0521 268.039 94.8289 264.851C93.4181 259.836 95.2776 254.518 97.6689 250.128C99.6738 246.589 102.068 243.441 104.819 240.452C105.291 239.937 105.745 239.413 106.197 238.881C108.068 236.737 110.131 234.759 112.302 232.922C112.572 232.687 112.842 232.452 113.112 232.217C115.105 230.484 117.147 228.839 119.259 227.253C119.111 227.187 118.964 227.121 118.811 227.053C118.327 226.834 117.843 226.614 117.36 226.391C116.687 226.085 116.014 225.785 115.336 225.49C110.684 223.419 106.544 220.607 102.767 217.203C102.551 217.018 102.335 216.833 102.113 216.642C100.834 215.542 99.712 214.384 98.6439 213.08C98.435 212.832 98.226 212.584 98.0108 212.329C95.2362 208.972 93.0003 205.174 91.1709 201.226C89.8084 201.335 88.6125 201.624 87.3055 202.032C85.8593 202.455 84.8926 202.68 83.4401 202.257C82.4249 201.639 81.938 201.09 81.6363 199.938C81.5086 198.938 81.5933 198.476 82.0551 197.57C83.2937 196.104 84.9572 195.857 86.7579 195.509C86.9845 195.463 87.211 195.417 87.4444 195.37C87.999 195.259 88.554 195.149 89.1093 195.042C89.073 194.88 89.0367 194.718 88.9992 194.551C88.3473 191.632 87.7036 188.731 87.3055 185.765C87.0249 185.775 87.0249 185.775 86.7387 185.785C85.8862 185.812 85.0338 185.829 84.181 185.845C83.8867 185.856 83.5924 185.867 83.2891 185.878C80.84 185.914 80.84 185.914 79.8989 185.148C79.1301 184.261 79.0196 183.853 79.0111 182.705C79.0056 182.371 79.0056 182.371 79 182.03C79.0873 181.08 79.3571 180.543 80.074 179.918C81.7239 179.211 83.5693 179.311 85.3396 179.318C85.7494 179.319 85.7494 179.319 86.1675 179.32C86.373 179.321 86.5784 179.322 86.7901 179.323C86.7861 179.11 86.782 178.898 86.7779 178.679C86.6236 169.316 87.942 160.172 91.8272 151.547C91.9352 151.307 92.0432 151.067 92.1545 150.82C92.3608 150.372 92.5731 149.927 92.7928 149.485C93.5675 147.827 93.537 146.577 93.2324 144.792C93.1977 144.572 93.1629 144.353 93.1272 144.127C93.0523 143.668 92.975 143.209 92.8954 142.751C91.0163 131.751 90.2657 120.07 91.6863 108.973C91.7125 108.757 91.7387 108.542 91.7658 108.32C92.3555 103.622 93.3387 97.8058 97.0978 94.5422C103.837 90.2775 113.428 95.8914 119.517 98.9229ZM101.221 100.582C100.062 102.067 99.5701 103.537 99.1271 105.349C99.0862 105.513 99.0453 105.677 99.0032 105.846C97.9773 110.343 98.0351 114.905 98.048 119.49C98.0485 119.836 98.049 120.183 98.0494 120.529C98.0635 127.93 98.5088 135.146 99.771 142.44C100.294 145.563 100.718 148.416 99.1754 151.283C95.0553 159.689 92.7711 169.934 93.2324 179.323C93.769 179.859 94.9353 179.652 95.6805 179.677C97.4048 179.753 99.0987 179.893 100.802 180.176C101.07 180.217 101.07 180.217 101.344 180.259C102.499 180.466 103.238 180.796 104.055 181.642C104.431 182.577 104.451 183.535 104.141 184.495C103.772 185.215 103.423 185.691 102.702 186.069C100.152 186.83 96.9028 186.215 94.2632 186.023C94.179 187.6 94.4897 188.963 94.8913 190.484C94.9506 190.717 95.0099 190.951 95.071 191.191C95.3583 192.373 95.3583 192.373 95.8093 193.496C96.255 193.459 96.7006 193.421 97.1461 193.383C97.3942 193.362 97.6424 193.341 97.898 193.319C98.6262 193.253 98.6262 193.253 99.26 193.103C100.14 192.942 100.987 192.936 101.881 192.932C102.216 192.928 102.552 192.925 102.897 192.921C104.17 193.005 104.17 193.005 104.829 193.496C105.301 194.209 105.432 194.821 105.457 195.67C105.472 195.956 105.472 195.956 105.488 196.249C105.268 197.159 104.834 197.655 104.055 198.134C103.058 198.47 102.045 198.666 101.011 198.859C100.735 198.914 100.458 198.97 100.172 199.027C99.4919 199.163 98.8108 199.295 98.1285 199.422C99.2125 202.957 101.183 205.891 103.54 208.699C103.713 208.906 103.713 208.906 103.89 209.117C109.904 216.182 118.339 220.339 127.074 223.015C131.053 224.241 131.053 224.241 131.886 225.707C132.049 227.013 131.893 227.749 131.113 228.799C130.488 229.144 130.488 229.144 129.744 229.411C125.021 231.259 121.003 233.967 117.332 237.463C116.806 237.959 116.273 238.432 115.726 238.903C112.717 241.524 109.798 244.41 107.405 247.611C107.174 247.912 106.943 248.213 106.712 248.514C103.834 252.304 100.49 257.04 100.963 262.041C101.255 263.695 102.13 264.656 103.4 265.711C106.102 267.582 109.423 267.841 112.593 267.286C114.524 266.894 116.352 266.307 118.164 265.536C118.333 265.465 118.502 265.394 118.676 265.321C119.88 264.776 120.978 264.124 121.522 262.864C121.69 262.311 121.827 261.759 121.956 261.196C122.033 260.886 122.033 260.886 122.111 260.569C122.22 260.128 122.326 259.687 122.431 259.246C122.594 258.559 122.762 257.874 122.932 257.189C123.155 256.291 123.377 255.393 123.597 254.495C123.964 253.004 124.353 251.521 124.767 250.043C124.85 249.734 124.85 249.734 124.934 249.419C125.341 247.985 125.886 246.787 127.087 245.839C127.918 245.483 128.412 245.421 129.309 245.549C130.091 245.97 130.671 246.337 131.21 247.047C131.728 248.861 131.12 250.623 130.654 252.385C130.5 252.983 130.346 253.582 130.193 254.18C130.111 254.493 130.03 254.806 129.947 255.128C126.375 268.944 123.963 282.853 122.867 297.087C122.852 297.284 122.836 297.48 122.82 297.682C122.474 302.15 122.299 306.619 122.261 311.101C122.257 311.567 122.251 312.032 122.244 312.498C122.119 316.22 122.119 316.22 123.774 319.444C126.658 322.355 131.64 322.616 135.491 322.648C142.08 322.716 142.08 322.716 147.698 319.767C150.284 316.596 150.539 311.87 150.9 307.949C151.053 306.485 151.211 305.427 152.244 304.303C153.52 303.409 154.577 303.462 156.061 303.594C156.256 303.608 156.45 303.621 156.651 303.635C157.415 303.691 158.176 303.758 158.937 303.847C163.908 304.426 168.937 304.363 173.935 304.367C174.315 304.367 174.695 304.368 175.075 304.368C180.95 304.377 186.775 304.228 192.621 303.601C194.239 303.466 195.436 303.377 196.824 304.303C198.354 306.172 198.475 308.303 198.725 310.616C199.353 315.973 199.353 315.973 202.123 320.473C206.086 323.468 213.103 322.968 217.745 322.374C220.721 321.938 223.795 321.362 225.879 319.007C227.148 317.28 227.279 315.494 227.268 313.396C227.267 313.198 227.267 312.999 227.266 312.794C227.24 309.821 227.072 306.852 226.91 303.884C226.893 303.567 226.875 303.25 226.858 302.923C226.079 288.739 224.285 274.64 220.829 260.846C220.785 260.671 220.741 260.497 220.696 260.317C220.256 258.563 219.811 256.811 219.356 255.062C219.227 254.565 219.099 254.068 218.971 253.571C218.814 252.959 218.654 252.347 218.492 251.736C218.106 250.235 217.82 248.904 217.955 247.353C218.514 246.435 219.028 245.949 220.016 245.549C220.579 245.51 220.579 245.51 221.16 245.565C221.351 245.579 221.542 245.593 221.739 245.607C222.627 245.905 223.018 246.384 223.624 247.095C223.94 247.783 224.133 248.489 224.325 249.22C224.382 249.426 224.44 249.633 224.499 249.845C224.684 250.511 224.863 251.179 225.041 251.847C225.167 252.304 225.294 252.761 225.42 253.218C226.142 255.849 226.831 258.487 227.32 261.173C227.599 262.585 227.989 263.354 229.036 264.361C232.967 266.873 237.733 268.088 242.339 267.163C244.779 266.532 246.478 265.545 247.832 263.393C248.802 261.336 248.365 259.384 247.69 257.316C245.7 252.072 242.321 247.849 238.57 243.745C238.35 243.498 238.13 243.251 237.903 242.996C236.25 241.149 234.505 239.454 232.643 237.818C232.514 237.703 232.384 237.588 232.251 237.469C228.516 234.156 224.502 231.144 219.727 229.54C218.912 229.254 218.457 229.046 217.778 228.493C217.31 227.492 217.142 226.528 217.44 225.449C218.337 224.325 219.129 223.94 220.5 223.565C220.869 223.458 221.237 223.35 221.606 223.241C221.805 223.183 222.005 223.124 222.21 223.064C230.443 220.598 237.419 216.876 243.724 211.019C243.899 210.861 244.074 210.703 244.254 210.54C247.363 207.612 249.951 203.492 251.197 199.422C251.017 199.39 250.836 199.358 250.65 199.325C249.827 199.175 249.006 199.017 248.185 198.859C247.901 198.808 247.617 198.757 247.324 198.705C244.625 198.175 244.625 198.175 243.724 196.846C243.505 196.05 243.562 195.332 243.724 194.526C244.186 193.787 244.493 193.369 245.27 192.98C247.99 192.751 250.599 193.252 253.259 193.753C253.794 192.381 254.242 191.027 254.595 189.598C254.641 189.424 254.687 189.249 254.734 189.07C254.994 188.032 255.111 187.091 255.062 186.023C254.807 186.041 254.551 186.06 254.287 186.079C252.518 186.202 250.748 186.307 248.975 186.345C248.695 186.351 248.415 186.358 248.127 186.365C247.188 186.265 246.586 186.003 245.786 185.507C245.207 184.537 245.013 183.899 245.013 182.769C245.327 181.707 245.688 181.288 246.559 180.611C247.696 180.154 248.727 180.006 249.947 179.933C250.116 179.922 250.286 179.911 250.46 179.9C250.996 179.867 251.531 179.836 252.067 179.806C252.432 179.783 252.798 179.761 253.163 179.738C254.054 179.683 254.945 179.631 255.836 179.58C255.929 175.215 255.866 170.995 255.062 166.696C255.021 166.471 254.98 166.246 254.937 166.015C253.913 160.66 252.221 155.363 249.842 150.454C248.622 147.823 249.211 145.32 249.642 142.542C250.812 134.88 251.264 127.204 251.278 119.458C251.279 119.203 251.28 118.949 251.281 118.687C251.289 114.211 251.186 109.646 250.086 105.285C250.037 105.068 249.989 104.852 249.939 104.629C249.512 102.868 248.879 101.243 247.332 100.211C245.909 100.119 244.687 100.277 243.321 100.695C243.136 100.751 242.95 100.807 242.759 100.865C232.294 104.186 222.17 110.641 213.268 116.947C211.546 118.137 209.994 118.692 207.905 118.507C207.112 118.242 207.112 118.242 206.294 117.863C201.345 115.727 195.922 114.587 190.64 113.611C190.433 113.572 190.227 113.532 190.014 113.492C174.597 110.583 157.838 112.325 143.188 117.814C141.483 118.448 140.099 118.86 138.344 118.153C135.848 116.952 133.546 115.307 131.226 113.805C127.343 111.295 123.383 108.899 119.314 106.704C118.925 106.494 118.536 106.282 118.149 106.07C109.976 101.213 109.976 101.213 101.221 100.582Z" fill="black"/>
<path d="M174.437 240.009C174.739 240.01 175.041 240.012 175.352 240.014C181.152 240.134 185.84 242.197 189.867 246.322C190.073 246.526 190.279 246.73 190.492 246.94C196.631 253.324 198.516 263.003 198.479 271.55C198.377 276.422 197.003 280.471 193.474 283.945C193.31 284.109 193.145 284.273 192.976 284.442C187.039 289.997 178.507 289.916 170.899 289.669C165.819 289.456 160.952 288.084 156.882 284.976C156.689 284.83 156.496 284.684 156.297 284.534C152.952 281.816 151.211 277.607 150.741 273.399C150.602 271.681 150.664 269.948 150.698 268.226C150.702 267.95 150.706 267.673 150.711 267.388C151.065 259.764 154.012 252.347 158.944 246.58C159.097 246.4 159.25 246.22 159.408 246.035C163.261 241.876 168.882 239.976 174.437 240.009Z" fill="#F2D3A3"/>
<path d="M192.036 240.825C192.255 241.024 192.475 241.222 192.701 241.426C192.918 241.622 193.135 241.818 193.358 242.019C197.403 245.862 199.975 250.872 201.72 256.115C201.815 256.39 201.91 256.665 202.007 256.948C204.122 263.643 204.736 271.434 203.009 278.276C202.967 278.444 202.926 278.612 202.883 278.784C201.546 283.934 198.042 288.228 193.498 290.939C187.632 294.221 181.441 295.086 174.824 295.091C174.498 295.091 174.498 295.091 174.165 295.091C170.846 295.087 167.605 294.991 164.355 294.253C164.165 294.21 163.974 294.167 163.778 294.123C157.753 292.699 151.988 289.356 148.663 284.036C144.531 277.161 144.577 267.755 146.41 260.118C146.464 259.903 146.519 259.687 146.574 259.465C146.628 259.246 146.682 259.027 146.738 258.802C148.267 252.786 150.963 247.373 155.078 242.715C155.314 242.446 155.314 242.446 155.555 242.172C164.855 232.259 181.947 232.154 192.036 240.825ZM158.019 247.61C153.401 253.365 150.967 260.896 150.697 268.226C150.69 268.401 150.683 268.576 150.676 268.757C150.5 273.739 151.239 278.309 154.305 282.399C154.466 282.628 154.466 282.628 154.629 282.861C157.977 287.242 163.986 288.78 169.159 289.541C170.974 289.76 172.805 289.729 174.631 289.711C174.952 289.71 174.952 289.71 175.28 289.708C182.342 289.665 188.776 288.635 193.99 283.43C194.24 283.184 194.24 283.184 194.496 282.933C198.223 279.001 198.573 273.846 198.452 268.72C198.135 260.403 195.48 252.109 189.609 246.065C189.461 245.901 189.314 245.738 189.162 245.57C185.934 242.095 181.009 240.253 176.346 240.038C168.871 239.848 163.037 241.892 158.019 247.61Z" fill="black"/>
<path d="M232.595 178.598C235.353 180.485 237.026 183.041 237.797 186.28C238.228 190.311 237.364 193.376 234.838 196.554C232.779 198.847 229.869 200.045 226.854 200.259C223.196 200.382 220.213 199.328 217.441 196.913C215.026 194.401 214.009 191.264 214.051 187.849C214.21 184.545 215.505 181.819 217.955 179.58C222.451 176.205 227.693 175.698 232.595 178.598Z" fill="#F4A99C"/>
<path d="M129.051 178.034C129.25 178.133 129.449 178.232 129.653 178.334C132.22 179.78 134.076 182.544 134.946 185.314C135.687 188.465 135.383 191.625 133.808 194.472C132.11 197.044 129.683 198.981 126.732 199.938C123.44 200.58 120.155 200.411 117.205 198.728C114.516 196.901 112.488 194.39 111.786 191.176C111.452 186.76 111.976 183.76 114.83 180.303C118.509 176.272 124.335 175.682 129.051 178.034Z" fill="#F4A99C"/>
<path d="M109.079 109.109C110.788 109.339 112.307 110.038 113.848 110.777C114.007 110.853 114.166 110.929 114.33 111.007C118.486 113.025 122.142 115.839 125.768 118.672C126.162 118.98 126.558 119.284 126.955 119.588C127.683 120.204 127.996 120.628 128.116 121.583C127.997 122.573 127.762 122.787 127.006 123.42C126.771 123.618 126.536 123.816 126.294 124.02C125.129 124.951 123.939 125.851 122.748 126.749C121.205 127.917 119.737 129.152 118.279 130.423C117.547 131.06 116.796 131.671 116.038 132.278C114.913 133.189 113.855 134.154 112.801 135.145C110.633 137.169 110.633 137.169 109.596 138.06C109.407 138.224 109.218 138.388 109.024 138.557C108.436 138.865 108.436 138.865 107.626 138.838C106.89 138.607 106.89 138.607 106.326 137.786C104.402 133.267 104.483 127.764 104.504 122.945C104.506 122.194 104.504 121.443 104.5 120.691C104.494 112.12 104.494 112.12 106.452 109.567C107.252 108.952 108.107 109.082 109.079 109.109Z" fill="#F4A99C"/>
<path d="M242.178 109.23C244.089 110.744 244.342 113.44 244.609 115.733C245.269 122.7 245.694 131.902 242.693 138.349C241.881 138.756 241.24 138.845 240.374 138.607C239.573 138.048 238.896 137.375 238.204 136.688C237.4 135.897 236.574 135.128 235.752 134.355C235.574 134.187 235.395 134.019 235.212 133.846C233.805 132.527 232.351 131.301 230.84 130.103C230.383 129.728 229.926 129.352 229.471 128.976C228.391 128.092 227.299 127.227 226.201 126.367C225.897 126.127 225.592 125.887 225.288 125.647C224.713 125.194 224.132 124.749 223.547 124.308C223.163 124.012 223.163 124.012 222.771 123.709C222.543 123.538 222.316 123.366 222.081 123.189C221.428 122.485 221.329 122.036 221.305 121.084C222.521 119.224 224.428 117.999 226.201 116.703C226.367 116.581 226.533 116.458 226.704 116.331C237.834 108.125 237.834 108.125 242.178 109.23Z" fill="#F4A99C"/>
<path d="M174.727 174.604C174.981 174.596 175.236 174.589 175.497 174.581C177.284 174.566 178.755 174.847 180.332 175.715C181.237 176.62 181.576 177.321 181.701 178.598C181.543 180.524 180.598 181.761 179.237 183.075C178.786 183.446 178.786 183.446 178.029 183.784C177.449 184.164 177.449 184.164 177.392 184.755C177.315 186.923 177.894 188.988 179.301 190.661C180.984 192.01 182.667 192.548 184.809 192.449C187.458 192.12 189.014 190.906 190.688 188.886C191.321 188.149 191.544 188.096 192.524 188.004C193.623 188.097 193.995 188.347 194.763 189.115C195.21 190.01 195.14 190.971 195.02 191.95C193.688 194.516 191.075 196.431 188.413 197.432C185.469 198.338 182.089 198.241 179.278 196.991C177.636 196.109 176.215 195.095 174.921 193.753C174.175 194.094 173.768 194.383 173.149 194.961C170.259 197.512 166.87 198.115 163.147 197.934C159.635 197.596 157.177 195.518 154.958 192.959C154.236 192.055 154.205 191.343 154.213 190.213C154.36 189.289 154.873 188.891 155.594 188.342C156.342 187.968 156.824 187.988 157.655 188.084C158.59 188.727 159.239 189.409 159.942 190.291C161.092 191.631 162.051 192.128 163.825 192.314C165.987 192.421 168.032 192.372 169.767 190.919C171.238 189.213 172.014 187.418 171.977 185.158C171.796 184.328 171.579 184.124 170.894 183.639C170.707 183.524 170.519 183.409 170.326 183.29C169.115 182.512 168.034 181.253 167.705 179.838C167.566 178.544 167.561 177.566 168.124 176.375C169.889 174.472 172.313 174.627 174.727 174.604Z" fill="black"/>
<path d="M212.308 163.599C212.939 163.906 213.51 164.24 214.09 164.634C214.44 164.849 214.44 164.849 214.798 165.069C216.586 166.906 217.26 168.84 217.263 171.359C217.215 173.722 216.418 175.382 214.809 177.084C212.962 178.822 211.067 179.218 208.596 179.178C206.681 178.949 204.973 178.077 203.653 176.665C203.428 176.356 203.213 176.039 203.009 175.715C202.903 175.561 202.798 175.406 202.689 175.248C201.51 173.166 201.595 170.221 202.187 167.957C203.043 166.04 204.587 164.63 206.436 163.683C208.267 163.035 210.45 163.006 212.308 163.599Z" fill="black"/>
<path d="M143.112 163.877C144.98 164.995 146.339 166.44 147.09 168.5C147.689 170.962 147.559 173.479 146.317 175.715C145.031 177.422 143.531 178.618 141.421 179.065C139.038 179.35 137.243 179.107 135.236 177.777C134.96 177.601 134.683 177.426 134.399 177.245C132.799 175.755 132.077 173.794 131.973 171.652C131.949 169.234 132.288 167.423 133.971 165.596C136.441 163.252 139.922 162.395 143.112 163.877Z" fill="black"/>
<path d="M141.896 146.494C142.602 147.003 142.935 147.636 143.293 148.406C143.361 148.551 143.361 148.551 143.431 148.698C143.579 149.013 143.726 149.327 143.873 149.642C143.976 149.861 144.079 150.08 144.182 150.299C144.913 151.86 145.625 153.427 146.322 155.003C146.424 155.211 146.424 155.211 146.529 155.422C146.719 155.838 146.803 156.242 146.889 156.691C147.115 157.616 147.388 158.369 148.136 158.991C149.786 159.763 151.865 159.776 153.649 159.938C154.479 160.016 155.307 160.113 156.135 160.208C156.78 160.281 157.424 160.352 158.07 160.413C158.248 160.431 158.248 160.431 158.43 160.449C158.649 160.471 158.869 160.492 159.089 160.51C159.964 160.601 160.743 160.853 161.331 161.535C161.713 162.075 161.894 162.425 161.903 163.093C161.907 163.207 161.91 163.32 161.914 163.437C161.732 164.64 160.881 165.375 160.051 166.185C159.922 166.313 159.794 166.44 159.666 166.567C159.33 166.901 158.993 167.233 158.656 167.565C158.116 168.095 157.579 168.628 157.042 169.16C156.856 169.345 156.669 169.528 156.483 169.712C155.9 170.287 155.334 170.866 154.805 171.49C154.471 171.878 154.111 172.239 153.749 172.601C153.677 172.675 153.604 172.749 153.529 172.826C153.346 173.01 153.155 173.188 152.963 173.364C152.88 173.364 152.796 173.364 152.709 173.364C152.993 175.431 153.322 177.49 153.662 179.549C153.832 180.578 154.001 181.607 154.169 182.636C154.23 183.007 154.292 183.379 154.354 183.75C154.39 183.965 154.425 184.179 154.46 184.393C154.476 184.486 154.492 184.58 154.508 184.676C154.68 185.734 154.723 186.685 154.107 187.61C153.412 188.267 152.821 188.582 151.863 188.565C150.962 188.427 150.191 187.923 149.407 187.482C149.152 187.342 148.898 187.202 148.643 187.062C148.063 186.741 147.485 186.419 146.908 186.095C146.27 185.738 145.631 185.383 144.99 185.03C144.909 184.985 144.827 184.94 144.743 184.894C144.424 184.718 144.105 184.543 143.786 184.367C143.567 184.247 143.347 184.126 143.127 184.005C142.988 183.928 142.849 183.852 142.706 183.774C142.424 183.614 142.147 183.447 141.874 183.273C141.741 183.189 141.608 183.105 141.471 183.019C141.354 182.942 141.237 182.865 141.116 182.785C140.77 182.613 140.77 182.613 140.392 182.728C139.996 182.908 139.614 183.1 139.233 183.311C139.161 183.351 139.089 183.391 139.014 183.432C138.778 183.563 138.543 183.694 138.307 183.826C138.142 183.918 137.976 184.01 137.81 184.102C136.665 184.74 135.53 185.396 134.4 186.06C133.447 186.62 132.49 187.17 131.527 187.713C131.392 187.79 131.256 187.867 131.117 187.946C130.991 188.017 130.865 188.088 130.735 188.161C130.624 188.223 130.513 188.286 130.399 188.35C129.777 188.66 129.132 188.727 128.447 188.627C127.73 188.33 127.242 187.851 126.795 187.228C126.358 185.914 126.768 184.356 126.993 183.021C127.027 182.814 127.06 182.608 127.094 182.402C127.181 181.862 127.271 181.323 127.36 180.783C127.503 179.922 127.644 179.061 127.784 178.2C127.833 177.903 127.882 177.607 127.932 177.31C128.008 176.851 128.08 176.391 128.149 175.931C128.179 175.74 128.211 175.55 128.244 175.36C128.294 175.068 128.34 174.776 128.385 174.483C128.401 174.396 128.418 174.308 128.435 174.218C128.486 173.858 128.497 173.578 128.312 173.259C128.028 172.91 127.716 172.626 127.364 172.347C127.26 172.263 127.156 172.179 127.049 172.092C127.049 172.008 127.049 171.924 127.049 171.838C126.966 171.838 126.882 171.838 126.795 171.838C126.614 171.653 126.614 171.653 126.403 171.397C125.904 170.81 125.37 170.269 124.822 169.727C124.671 169.576 124.671 169.576 124.517 169.422C124.197 169.103 123.877 168.785 123.556 168.467C123.134 168.047 122.712 167.627 122.29 167.207C122.194 167.112 122.099 167.018 122.001 166.921C121.412 166.334 120.857 165.728 120.317 165.096C120.225 164.993 120.225 164.993 120.131 164.887C119.585 164.261 119.371 163.783 119.396 162.94C119.491 162.164 119.904 161.567 120.444 161.026C121.073 160.711 121.662 160.562 122.359 160.472C122.459 160.458 122.559 160.444 122.661 160.43C122.878 160.4 123.094 160.37 123.311 160.341C123.658 160.294 124.004 160.244 124.35 160.193C125.558 160.019 126.765 159.867 127.98 159.756C128.569 159.701 129.157 159.638 129.746 159.575C130.032 159.546 130.319 159.521 130.606 159.501C132.097 159.45 132.097 159.45 133.357 158.773C133.714 158.223 133.898 157.625 134.073 156.998C134.207 156.555 134.405 156.152 134.61 155.739C134.683 155.583 134.756 155.427 134.829 155.272C134.865 155.194 134.902 155.116 134.939 155.036C135.266 154.335 135.587 153.632 135.908 152.928C135.995 152.738 136.083 152.548 136.17 152.357C136.625 151.365 137.076 150.373 137.501 149.368C137.563 149.222 137.624 149.077 137.688 148.927C137.801 148.659 137.912 148.391 138.021 148.123C138.411 147.202 138.786 146.791 139.657 146.288C140.433 146.054 141.173 146.114 141.896 146.494Z" fill="#010100"/>
<path d="M140.468 152.864C140.882 153.072 140.98 153.541 141.157 153.952C141.256 154.177 141.355 154.403 141.455 154.628C141.512 154.759 141.57 154.889 141.629 155.024C141.997 155.851 142.375 156.673 142.752 157.496C142.93 157.886 143.108 158.276 143.286 158.665C143.373 158.854 143.46 159.043 143.547 159.231C143.768 159.706 143.982 160.183 144.185 160.666C144.227 160.761 144.269 160.857 144.311 160.955C144.39 161.135 144.466 161.316 144.539 161.498C144.838 162.174 145.242 162.514 145.915 162.81C146.258 162.914 146.594 162.965 146.949 163.007C147.049 163.021 147.149 163.035 147.252 163.049C147.471 163.079 147.691 163.109 147.911 163.137C148.288 163.186 148.664 163.238 149.04 163.291C149.87 163.408 150.701 163.521 151.533 163.634C151.961 163.692 152.389 163.75 152.817 163.809C153.081 163.845 153.345 163.88 153.609 163.916C153.727 163.932 153.846 163.948 153.969 163.965C154.072 163.979 154.176 163.993 154.283 164.008C154.591 164.055 154.895 164.114 155.2 164.178C154.606 164.903 153.956 165.563 153.29 166.222C153.094 166.416 152.899 166.61 152.704 166.804C152.151 167.356 151.596 167.907 151.041 168.457C150.7 168.795 150.36 169.134 150.02 169.474C149.891 169.602 149.762 169.73 149.632 169.858C149.451 170.037 149.271 170.217 149.091 170.397C148.988 170.499 148.886 170.6 148.78 170.705C148.104 171.497 148.055 172.206 148.118 173.211C148.219 174.341 148.428 175.461 148.616 176.579C148.66 176.852 148.705 177.124 148.749 177.397C148.856 178.05 148.964 178.702 149.073 179.354C149.15 179.814 149.226 180.273 149.302 180.733C149.37 181.141 149.438 181.549 149.505 181.956C149.053 181.814 148.644 181.662 148.235 181.423C148.136 181.366 148.038 181.309 147.936 181.25C147.831 181.188 147.726 181.126 147.617 181.063C147.506 180.998 147.394 180.933 147.279 180.867C147.037 180.726 146.794 180.584 146.552 180.443C146.145 180.205 145.737 179.969 145.329 179.733C144.786 179.419 144.244 179.106 143.702 178.791C143.578 178.719 143.453 178.647 143.325 178.573C143.06 178.418 142.795 178.263 142.531 178.106C142.398 178.027 142.265 177.949 142.128 177.868C142.009 177.796 141.889 177.725 141.766 177.652C141.178 177.325 140.63 177.234 139.973 177.356C139.42 177.594 138.908 177.887 138.389 178.191C138.105 178.358 137.818 178.521 137.531 178.684C136.643 179.189 135.759 179.701 134.877 180.216C134.584 180.386 134.291 180.557 133.998 180.727C133.787 180.851 133.576 180.975 133.364 181.099C133.169 181.212 133.169 181.212 132.971 181.328C132.855 181.395 132.74 181.463 132.622 181.532C132.313 181.699 132.006 181.833 131.678 181.956C131.742 181.506 131.807 181.055 131.872 180.604C131.893 180.459 131.914 180.314 131.936 180.164C132.078 179.196 132.234 178.231 132.399 177.266C132.419 177.152 132.439 177.037 132.459 176.918C132.557 176.344 132.656 175.77 132.757 175.196C133.208 173.127 133.208 173.127 132.739 171.145C132.289 170.556 131.748 170.051 131.214 169.539C130.974 169.307 130.735 169.074 130.497 168.841C130.338 168.688 130.338 168.688 130.176 168.532C129.945 168.28 129.945 168.28 129.945 168.032C129.866 167.998 129.787 167.965 129.705 167.931C129.45 167.783 129.45 167.783 129.326 167.41C129.245 167.41 129.163 167.41 129.079 167.41C128.904 167.232 128.904 167.232 128.699 166.982C128.198 166.39 127.657 165.848 127.106 165.304C126.916 165.117 126.727 164.929 126.537 164.741C126.413 164.619 126.413 164.619 126.287 164.494C126.107 164.302 126.107 164.302 126.107 164.178C126.675 164.086 127.242 163.996 127.81 163.906C127.897 163.892 127.984 163.878 128.073 163.864C129.142 163.694 130.212 163.533 131.285 163.389C131.435 163.369 131.435 163.369 131.588 163.349C132.073 163.283 132.558 163.219 133.044 163.157C134.79 162.956 134.79 162.956 136.259 162.064C136.425 161.779 136.563 161.512 136.696 161.213C136.735 161.129 136.774 161.046 136.814 160.959C136.94 160.686 137.064 160.411 137.187 160.137C137.275 159.947 137.362 159.756 137.45 159.566C137.628 159.178 137.805 158.79 137.982 158.402C138.22 157.879 138.462 157.357 138.705 156.835C138.847 156.532 138.988 156.229 139.13 155.925C139.225 155.72 139.225 155.72 139.323 155.51C139.727 154.637 140.106 153.756 140.468 152.864Z" fill="#FFBB4D"/>
<path d="M210.283 146.691C211.01 147.393 211.343 148.334 211.74 149.247C211.818 149.424 211.896 149.601 211.975 149.778C212.136 150.142 212.296 150.507 212.456 150.871C212.806 151.669 213.16 152.464 213.514 153.26C213.58 153.408 213.646 153.556 213.713 153.709C214.08 154.533 214.454 155.353 214.835 156.17C214.897 156.303 214.897 156.303 214.96 156.439C215.161 156.868 215.362 157.298 215.565 157.727C215.637 157.881 215.709 158.035 215.781 158.189C215.877 158.392 215.877 158.392 215.975 158.599C216.111 158.92 216.111 158.92 216.111 159.175C216.232 159.181 216.352 159.187 216.476 159.193C217.785 159.264 219.077 159.403 220.376 159.575C220.583 159.603 220.791 159.63 220.998 159.657C221.429 159.713 221.859 159.771 222.29 159.828C222.839 159.901 223.388 159.972 223.937 160.042C224.364 160.098 224.79 160.154 225.217 160.211C225.419 160.238 225.622 160.264 225.824 160.29C228.518 160.633 228.518 160.633 229.417 161.722C229.841 162.377 230.011 162.845 229.924 163.633C229.646 164.86 228.593 165.674 227.73 166.507C227.498 166.734 227.266 166.961 227.035 167.189C226.892 167.329 226.749 167.469 226.605 167.608C226.239 167.964 225.896 168.329 225.565 168.717C225.1 169.258 224.594 169.743 224.075 170.231C223.881 170.418 223.687 170.605 223.493 170.792C223.191 171.084 222.889 171.373 222.582 171.659C221.43 172.659 221.43 172.659 220.681 173.945C220.707 174.356 220.81 174.702 220.927 175.097C220.985 175.421 221.034 175.745 221.083 176.07C221.14 176.445 221.202 176.819 221.266 177.193C221.405 178.005 221.541 178.818 221.677 179.631C221.7 179.767 221.722 179.902 221.746 180.041C221.929 181.137 222.11 182.233 222.28 183.331C222.319 183.583 222.36 183.834 222.4 184.085C222.806 186.74 222.806 186.74 222.313 187.652C221.862 188.247 221.42 188.538 220.693 188.661C219.486 188.739 218.642 188.296 217.632 187.708C217.416 187.586 217.2 187.464 216.983 187.343C216.489 187.065 215.996 186.784 215.504 186.502C214.58 185.972 213.651 185.45 212.721 184.931C212.069 184.566 211.423 184.195 210.785 183.808C210.604 183.699 210.604 183.699 210.419 183.588C210.191 183.451 209.965 183.312 209.74 183.171C209.639 183.11 209.538 183.049 209.434 182.987C209.346 182.933 209.259 182.879 209.169 182.823C208.555 182.641 207.949 183.072 207.418 183.361C207.284 183.433 207.15 183.506 207.012 183.58C206.871 183.658 206.73 183.735 206.584 183.815C206.438 183.895 206.292 183.974 206.141 184.056C205.059 184.647 203.991 185.26 202.929 185.885C202.432 186.177 201.93 186.457 201.424 186.731C201.084 186.916 200.745 187.103 200.407 187.292C200.294 187.355 200.181 187.418 200.064 187.483C199.837 187.61 199.61 187.736 199.384 187.863C199.279 187.922 199.173 187.98 199.065 188.04C198.971 188.093 198.877 188.145 198.78 188.2C197.966 188.619 197.209 188.778 196.312 188.517C195.667 188.231 195.283 187.819 194.95 187.199C194.486 185.8 194.982 184.076 195.211 182.661C195.251 182.409 195.291 182.158 195.33 181.906C195.536 180.607 195.75 179.309 195.971 178.012C195.992 177.889 196.013 177.766 196.034 177.64C196.134 177.051 196.234 176.462 196.338 175.873C196.374 175.661 196.41 175.449 196.447 175.237C196.464 175.141 196.481 175.046 196.499 174.947C196.583 174.445 196.615 174.057 196.47 173.569C196.268 173.276 196.268 173.276 195.997 172.997C195.893 172.886 195.79 172.775 195.683 172.66C195.09 172.047 194.492 171.441 193.887 170.839C193.651 170.604 193.415 170.368 193.179 170.132C192.51 169.462 191.839 168.793 191.169 168.124C190.756 167.713 190.344 167.301 189.932 166.888C189.776 166.732 189.62 166.576 189.463 166.421C189.245 166.204 189.027 165.986 188.81 165.767C188.746 165.704 188.682 165.641 188.616 165.576C187.948 164.903 187.466 164.266 187.426 163.299C187.435 162.576 187.643 162.021 188.107 161.468C188.69 160.962 189.185 160.739 189.957 160.623C190.049 160.608 190.141 160.594 190.237 160.579C190.54 160.533 190.844 160.49 191.148 160.449C191.253 160.434 191.357 160.419 191.465 160.404C192.143 160.308 192.822 160.218 193.502 160.13C193.874 160.081 194.245 160.029 194.617 159.976C195.787 159.811 196.942 159.668 198.122 159.619C199.937 159.574 199.937 159.574 201.469 158.738C201.983 157.976 202.279 157.136 202.55 156.263C202.835 155.35 203.234 154.5 203.64 153.636C203.846 153.197 204.044 152.755 204.243 152.312C204.282 152.226 204.321 152.139 204.361 152.051C204.625 151.463 204.885 150.873 205.143 150.282C205.178 150.203 205.212 150.124 205.248 150.043C205.409 149.675 205.569 149.306 205.728 148.937C206.655 146.809 206.655 146.809 207.748 146.309C208.622 145.98 209.523 146.187 210.283 146.691Z" fill="#010100"/>
<path d="M208.686 152.528C209.114 152.878 209.298 153.354 209.52 153.848C209.563 153.942 209.606 154.036 209.65 154.133C209.791 154.441 209.93 154.75 210.069 155.059C210.166 155.272 210.263 155.485 210.36 155.698C210.824 156.72 211.28 157.745 211.722 158.776C211.76 158.864 211.798 158.952 211.836 159.043C212.013 159.454 212.187 159.866 212.36 160.279C212.878 161.671 212.878 161.671 214.001 162.529C214.582 162.715 215.185 162.783 215.787 162.867C215.933 162.888 216.078 162.909 216.228 162.931C216.692 162.999 217.157 163.065 217.621 163.13C218.079 163.196 218.537 163.263 218.995 163.329C219.292 163.372 219.59 163.415 219.888 163.458C221.116 163.634 222.343 163.825 223.568 164.025C223.09 164.598 222.597 165.144 222.066 165.669C221.998 165.736 221.931 165.803 221.862 165.872C221.578 166.155 221.293 166.438 221.009 166.72C220.293 167.43 219.587 168.137 218.934 168.906C218.511 169.389 218.04 169.827 217.577 170.27C216.846 170.986 216.472 171.671 216.429 172.709C216.433 173.35 216.548 173.972 216.654 174.602C216.676 174.735 216.697 174.867 216.72 175.004C216.789 175.427 216.859 175.849 216.93 176.272C216.976 176.551 217.021 176.83 217.067 177.109C217.316 178.628 217.316 178.628 217.581 180.144C217.599 180.244 217.617 180.343 217.635 180.446C217.683 180.707 217.731 180.968 217.779 181.229C217.835 181.593 217.858 181.925 217.844 182.292C217.413 182.127 217.015 181.94 216.613 181.711C216.499 181.646 216.385 181.581 216.267 181.514C216.145 181.444 216.022 181.374 215.896 181.302C215.769 181.229 215.641 181.156 215.509 181.081C214.316 180.398 213.129 179.705 211.944 179.007C211.828 178.939 211.712 178.872 211.593 178.801C211.334 178.649 211.076 178.495 210.819 178.34C210.683 178.259 210.548 178.179 210.409 178.095C210.286 178.021 210.163 177.948 210.036 177.871C209.442 177.553 208.847 177.474 208.177 177.565C207.785 177.706 207.433 177.902 207.072 178.108C206.968 178.166 206.863 178.223 206.756 178.282C206.422 178.467 206.091 178.654 205.76 178.843C205.655 178.902 205.55 178.962 205.442 179.023C204.431 179.594 203.427 180.178 202.425 180.764C202.12 180.942 201.815 181.12 201.509 181.298C201.288 181.428 201.066 181.558 200.845 181.688C200.71 181.767 200.575 181.846 200.437 181.927C200.316 181.997 200.196 182.068 200.072 182.14C199.782 182.292 199.782 182.292 199.528 182.292C199.741 180.661 200.003 179.041 200.291 177.422C200.325 177.232 200.358 177.042 200.392 176.852C200.649 175.395 200.649 175.395 200.746 174.852C200.806 174.519 200.863 174.186 200.919 173.853C200.935 173.763 200.952 173.674 200.968 173.582C201.145 172.504 201.036 171.762 200.42 170.868C199.902 170.204 199.296 169.624 198.698 169.035C198.556 168.893 198.415 168.752 198.273 168.611C197.904 168.242 197.534 167.875 197.163 167.507C196.567 166.916 195.972 166.323 195.378 165.73C195.17 165.524 194.962 165.317 194.754 165.111C194.628 164.986 194.502 164.86 194.376 164.735C194.265 164.625 194.154 164.516 194.04 164.403C193.804 164.152 193.804 164.152 193.804 164.025C194.233 163.954 194.662 163.885 195.092 163.817C195.233 163.795 195.374 163.772 195.519 163.749C196.543 163.591 197.569 163.454 198.598 163.327C198.861 163.294 199.124 163.261 199.387 163.229C199.782 163.179 200.177 163.131 200.573 163.084C200.948 163.04 201.324 162.994 201.699 162.947C201.811 162.934 201.924 162.922 202.039 162.909C202.862 162.803 203.578 162.587 204.214 162.032C204.827 161.174 205.228 160.212 205.649 159.25C205.732 159.063 205.816 158.875 205.899 158.688C206.027 158.402 206.154 158.117 206.28 157.832C206.679 156.933 207.089 156.039 207.501 155.147C207.903 154.277 208.301 153.406 208.686 152.528Z" fill="#FFBB4D"/>
</svg>
