<svg width="180" height="264" viewBox="0 0 180 264" fill="none" xmlns="http://www.w3.org/2000/svg">
<path d="M84.3709 1.06779C88.7506 3.12003 91.1857 7.70198 93.3145 11.8254C93.4119 12.0127 93.5093 12.2 93.6096 12.3929C95.6703 16.4108 97.7102 20.9345 98.5096 25.3903C98.7201 25.4119 98.9307 25.4335 99.1477 25.4557C101.87 25.7986 104.333 26.5927 106.908 27.5166C107.748 27.7984 107.748 27.7984 108.611 27.9878C109.257 27.6405 109.819 27.2885 110.415 26.8694C110.779 26.6261 111.143 26.3837 111.508 26.1423C111.792 25.9544 111.792 25.9544 112.08 25.7628C117.222 22.4108 124.535 18.4813 130.834 19.3294C132.299 19.9462 132.848 20.8018 133.501 22.1874C134.828 25.8427 134.082 30.5554 133.63 34.3193C133.594 34.6245 133.559 34.9298 133.522 35.2443C133.354 36.5618 133.165 37.8269 132.771 39.0972C132.447 40.1771 132.21 41.0034 132.277 42.1299C133.109 43.3501 134.126 44.2073 135.249 45.1508C136.054 45.8753 136.707 46.7022 137.364 47.5595C137.494 47.7281 137.624 47.8967 137.757 48.0704C144.535 57.0245 147.745 67.2212 149.793 78.1593C150.653 82.7234 151.577 86.8376 153.923 90.9057C154.17 91.3487 154.415 91.7922 154.66 92.236C155.028 92.902 155.398 93.5674 155.771 94.2312C159.371 100.647 161.268 107.244 161.229 114.626C161.228 114.837 161.228 115.048 161.227 115.265C161.212 118.384 161.103 121.359 160.273 124.385C160.219 124.587 160.164 124.789 160.109 124.997C156.763 137.092 147.444 146.095 136.831 152.165C135.054 153.165 133.255 154.106 131.412 154.978C133.091 156.244 134.771 157.505 136.48 158.73C139.388 160.842 142.087 163.18 144.688 165.657C144.861 165.821 145.034 165.986 145.212 166.156C149.717 170.477 153.613 175.241 156.232 180.953C160.591 176.574 162.683 171.552 163.773 165.535C164.168 163.436 164.606 161.55 166.226 160.047C167.401 159.274 168.085 159.192 169.509 159.307C172.383 160.119 174.197 162.821 175.624 165.278C180.084 173.295 181.155 182.483 178.744 191.343C178.692 191.538 178.639 191.733 178.585 191.934C176.796 198.343 173.087 203.802 168.643 208.66C168.427 208.897 168.21 209.134 167.988 209.378C160.709 216.982 148.625 223.827 137.953 224.274C137.408 224.264 136.863 224.255 136.318 224.245C136.338 224.509 136.358 224.773 136.379 225.045C136.565 227.623 136.656 230.186 136.665 232.772C136.666 232.961 136.667 233.151 136.668 233.346C136.672 234.348 136.675 235.35 136.676 236.353C136.677 237.166 136.681 237.978 136.688 238.791C136.749 246.562 136.749 246.562 136.241 250.055C136.21 250.273 136.179 250.492 136.147 250.717C135.591 253.957 133.841 257.142 131.292 259.237C125.279 263.333 117.612 264.164 110.541 262.866C105.956 261.759 101.852 259.527 99.3033 255.452C97.3735 252.007 96.7184 248.669 96.7779 244.737C96.4772 244.787 96.4772 244.787 96.1705 244.838C95.2428 244.992 94.3147 245.144 93.3867 245.296C93.0715 245.349 92.7564 245.402 92.4318 245.456C88.6375 246.073 84.9199 246.234 81.0834 246.234C80.3173 246.234 79.5513 246.239 78.7852 246.245C73.8202 246.261 69.0236 245.742 64.1645 244.737C64.1604 245.02 64.1563 245.303 64.1521 245.595C64.0136 250.333 62.6327 254.835 59.3482 258.392C54.2429 263.124 47.4649 263.479 40.88 263.266C38.8323 263.143 36.9535 262.704 35.0145 262.054C34.6997 261.949 34.385 261.845 34.0607 261.737C30.1774 260.28 26.9786 257.669 25.2196 253.885C23.7576 250.176 23.7133 246.284 23.7202 242.348C23.7199 241.988 23.7196 241.629 23.7193 241.258C23.7191 240.499 23.7197 239.739 23.7209 238.98C23.7224 237.848 23.7209 236.717 23.719 235.585C23.7179 231.84 23.7599 228.1 23.8848 224.357C23.8956 224.025 23.9065 223.692 23.9177 223.35C24.2188 215.218 25.5861 207.099 27.2219 199.136C27.0724 199.194 26.9229 199.252 26.7689 199.312C21.3039 201.424 16.444 202.776 10.7506 200.516C7.36508 198.957 4.6685 196.55 3.19474 193.095C1.5829 188.517 2.41322 184.327 4.37625 180.053C6.8726 174.918 10.5442 170.566 14.5228 166.523C14.8057 166.229 15.0883 165.935 15.3707 165.641C16.8508 164.123 18.3851 162.736 20.0437 161.417C20.6273 160.947 21.1983 160.474 21.7641 159.985C23.7208 158.292 25.7317 156.742 27.8566 155.266C28.6588 154.727 28.6588 154.727 29.2422 154.112C29.0592 154.019 28.8763 153.927 28.6878 153.831C21.8779 150.363 21.8779 150.363 19.1407 148.34C18.8378 148.119 18.535 147.897 18.223 147.669C15.9911 146.01 13.9371 144.196 11.9253 142.279C11.6824 142.055 11.4394 141.83 11.1891 141.599C4.24978 134.992 0.366446 126.074 0.0109655 116.547C-0.213834 106.353 3.03542 97.889 8.13063 89.1657C10.6829 84.6723 11.469 79.5558 12.4943 74.5554C13.7891 68.2749 15.4349 62.1933 18.5634 56.5606C18.7973 56.1209 18.7973 56.1209 19.0358 55.6722C20.896 52.3032 23.3295 49.2769 25.8149 46.3509C25.9562 46.1837 26.0975 46.0166 26.2431 45.8443C26.9184 45.0622 27.5973 44.3421 28.3899 43.6778C29.8763 42.4761 29.8763 42.4761 30.4767 40.7545C30.323 39.7472 30.0753 38.7871 29.8194 37.8007C28.7704 32.3997 27.4004 24.4253 30.3605 19.4196C31.3766 18.3139 32.0094 17.9398 33.5173 17.742C35.6305 17.816 37.6583 18.6256 39.6323 19.3294C39.9076 19.4269 40.1829 19.5244 40.4666 19.6248C42.4831 20.409 44.4011 21.4099 46.3245 22.3959C46.6153 22.5432 46.9062 22.6905 47.2058 22.8422C48.5662 23.5496 49.8188 24.2557 50.9998 25.2381C53.0011 26.9358 53.0011 26.9358 55.5051 27.3521C57.4138 26.9787 59.2019 26.3318 61.02 25.6547C62.2477 25.2662 63.4599 25.1521 64.7417 25.1017C64.7756 24.8936 64.8096 24.6854 64.8445 24.471C65.0358 23.6345 65.3147 22.9735 65.6944 22.2054C65.8318 21.9271 65.9693 21.6488 66.1109 21.3621C66.2603 21.0663 66.4097 20.7706 66.5636 20.4658C66.7185 20.1585 66.8735 19.8512 67.0331 19.5346C77.6959 -1.34297 77.6959 -1.34297 84.3709 1.06779Z" fill="#ECECEB"/>
<path d="M144 69.2112C144 87.6246 116.725 56.2232 81.4476 56.2232C46.1703 56.2232 17 87.6246 17 69.2112C17 50.7979 46.1703 27 81.4476 27C116.725 27 144 50.7979 144 69.2112Z" fill="#AADCE7"/>
<path d="M84.3709 1.06779C88.7506 3.12003 91.1857 7.70198 93.3145 11.8254C93.4119 12.0127 93.5093 12.2 93.6096 12.3929C95.6703 16.4108 97.7102 20.9345 98.5096 25.3903C98.7201 25.4119 98.9307 25.4335 99.1477 25.4557C101.87 25.7986 104.333 26.5927 106.908 27.5166C107.748 27.7984 107.748 27.7984 108.611 27.9878C109.257 27.6405 109.819 27.2885 110.415 26.8694C110.779 26.6261 111.143 26.3837 111.508 26.1423C111.792 25.9544 111.792 25.9544 112.08 25.7628C117.222 22.4108 124.535 18.4813 130.834 19.3294C132.299 19.9462 132.848 20.8018 133.501 22.1874C134.828 25.8427 134.082 30.5554 133.63 34.3193C133.594 34.6245 133.559 34.9298 133.522 35.2443C133.354 36.5618 133.165 37.8269 132.771 39.0972C132.447 40.1771 132.21 41.0034 132.277 42.1299C133.109 43.3501 134.126 44.2073 135.249 45.1508C136.054 45.8753 136.707 46.7022 137.364 47.5595C137.494 47.7281 137.624 47.8967 137.757 48.0704C144.535 57.0245 147.745 67.2212 149.793 78.1593C150.653 82.7234 151.577 86.8376 153.923 90.9057C154.17 91.3487 154.415 91.7922 154.66 92.236C155.028 92.902 155.398 93.5674 155.771 94.2312C159.371 100.647 161.268 107.244 161.229 114.626C161.228 114.837 161.228 115.048 161.227 115.265C161.212 118.384 161.103 121.359 160.273 124.385C160.219 124.587 160.164 124.789 160.109 124.997C156.763 137.092 147.444 146.095 136.831 152.165C135.054 153.165 133.255 154.106 131.412 154.978C133.091 156.244 134.771 157.505 136.48 158.73C139.388 160.842 142.087 163.18 144.688 165.657C144.861 165.821 145.034 165.986 145.212 166.156C149.717 170.477 153.613 175.241 156.232 180.953C160.591 176.574 162.683 171.552 163.773 165.535C164.168 163.436 164.606 161.55 166.226 160.047C167.401 159.274 168.085 159.192 169.509 159.307C172.383 160.119 174.197 162.821 175.624 165.278C180.084 173.295 181.155 182.483 178.744 191.343C178.692 191.538 178.639 191.733 178.585 191.934C176.796 198.343 173.087 203.802 168.643 208.66C168.427 208.897 168.21 209.134 167.988 209.378C160.709 216.982 148.625 223.827 137.953 224.274C137.408 224.264 136.863 224.255 136.318 224.245C136.338 224.509 136.358 224.773 136.379 225.045C136.565 227.623 136.656 230.186 136.665 232.772C136.666 232.961 136.667 233.151 136.668 233.346C136.672 234.348 136.675 235.35 136.676 236.353C136.677 237.166 136.681 237.978 136.688 238.791C136.749 246.562 136.749 246.562 136.241 250.055C136.21 250.273 136.179 250.492 136.147 250.717C135.591 253.957 133.841 257.142 131.292 259.237C125.279 263.333 117.612 264.164 110.541 262.866C105.956 261.759 101.852 259.527 99.3033 255.452C97.3735 252.007 96.7184 248.669 96.7779 244.737C96.4772 244.787 96.4772 244.787 96.1705 244.838C95.2428 244.992 94.3147 245.144 93.3867 245.296C93.0715 245.349 92.7564 245.402 92.4318 245.456C88.6375 246.073 84.9199 246.234 81.0834 246.234C80.3173 246.234 79.5513 246.239 78.7852 246.245C73.8202 246.261 69.0236 245.742 64.1645 244.737C64.1604 245.02 64.1563 245.303 64.1521 245.595C64.0136 250.333 62.6327 254.835 59.3482 258.392C54.2429 263.124 47.4649 263.479 40.88 263.266C38.8323 263.143 36.9535 262.704 35.0145 262.054C34.6997 261.949 34.385 261.845 34.0607 261.737C30.1774 260.28 26.9786 257.669 25.2196 253.885C23.7576 250.176 23.7133 246.284 23.7202 242.348C23.7199 241.988 23.7196 241.629 23.7193 241.258C23.7191 240.499 23.7197 239.739 23.7209 238.98C23.7224 237.848 23.7209 236.717 23.719 235.585C23.7179 231.84 23.7599 228.1 23.8848 224.357C23.8956 224.025 23.9065 223.692 23.9177 223.35C24.2188 215.218 25.5861 207.099 27.2219 199.136C27.0724 199.194 26.9229 199.252 26.7689 199.312C21.3039 201.424 16.444 202.776 10.7506 200.516C7.36508 198.957 4.6685 196.55 3.19474 193.095C1.5829 188.517 2.41322 184.327 4.37625 180.053C6.8726 174.918 10.5442 170.566 14.5228 166.523C14.8057 166.229 15.0883 165.935 15.3707 165.641C16.8508 164.123 18.3851 162.736 20.0437 161.417C20.6273 160.947 21.1983 160.474 21.7641 159.985C23.7208 158.292 25.7317 156.742 27.8566 155.266C28.6588 154.727 28.6588 154.727 29.2422 154.112C29.0592 154.019 28.8763 153.927 28.6878 153.831C21.8779 150.363 21.8779 150.363 19.1407 148.34C18.8378 148.119 18.535 147.897 18.223 147.669C15.9911 146.01 13.9371 144.196 11.9253 142.279C11.6824 142.055 11.4394 141.83 11.1891 141.599C4.24978 134.992 0.366446 126.074 0.0109655 116.547C-0.213834 106.353 3.03542 97.889 8.13063 89.1657C10.6829 84.6723 11.469 79.5558 12.4943 74.5554C13.7891 68.2749 15.4349 62.1933 18.5634 56.5606C18.7973 56.1209 18.7973 56.1209 19.0358 55.6722C20.896 52.3032 23.3295 49.2769 25.8149 46.3509C25.9562 46.1837 26.0975 46.0166 26.2431 45.8443C26.9184 45.0622 27.5973 44.3421 28.3899 43.6778C29.8763 42.4761 29.8763 42.4761 30.4767 40.7545C30.323 39.7472 30.0753 38.7871 29.8194 37.8007C28.7704 32.3997 27.4004 24.4253 30.3605 19.4196C31.3766 18.3139 32.0094 17.9398 33.5173 17.742C35.6305 17.816 37.6583 18.6256 39.6323 19.3294C39.9076 19.4269 40.1829 19.5244 40.4666 19.6248C42.4831 20.409 44.4011 21.4099 46.3245 22.3959C46.6153 22.5432 46.9062 22.6905 47.2058 22.8422C48.5662 23.5496 49.8188 24.2557 50.9998 25.2381C53.0011 26.9358 53.0011 26.9358 55.5051 27.3521C57.4138 26.9787 59.2019 26.3318 61.02 25.6547C62.2477 25.2662 63.4599 25.1521 64.7417 25.1017C64.7756 24.8936 64.8096 24.6854 64.8445 24.471C65.0358 23.6345 65.3147 22.9735 65.6944 22.2054C65.8318 21.9271 65.9693 21.6488 66.1109 21.3621C66.2603 21.0663 66.4097 20.7706 66.5636 20.4658C66.7185 20.1585 66.8735 19.8512 67.0331 19.5346C77.6959 -1.34297 77.6959 -1.34297 84.3709 1.06779ZM69.2021 30.5624C67.7691 31.1927 66.2248 31.5241 64.7139 31.9222C56.6666 34.0601 49.0996 37.3817 42.2298 42.1299C42.0654 42.2421 41.9009 42.3543 41.7315 42.4698C39.3228 44.1172 37.0587 45.8938 34.8644 47.8167C34.4658 48.1658 34.0644 48.5116 33.6627 48.8571C30.3778 51.732 27.835 54.9245 25.4902 58.5809C25.3822 58.7487 25.2743 58.9164 25.1631 59.0892C21.4962 64.8849 19.9704 71.3735 18.5713 78.0038C18.5215 78.2386 18.4717 78.4734 18.4204 78.7153C18.1726 79.884 17.9283 81.0532 17.6914 82.2241C16.9404 85.868 15.7968 89.1671 13.9997 92.439C13.7458 92.9131 13.4921 93.3873 13.2387 93.8617C13.0521 94.2093 13.0521 94.2093 12.8618 94.5638C8.235 103.207 4.62237 112.832 7.52283 122.709C7.6411 123.076 7.76172 123.442 7.88472 123.808C7.94504 123.991 8.00535 124.174 8.0675 124.362C11.6365 134.866 20.7507 142.28 30.4047 147.086C33.285 148.466 36.2672 149.575 39.267 150.665C42.6948 151.924 42.6948 151.924 43.3843 152.958C43.276 154.022 43.276 154.022 43.0956 154.978C42.8422 155.057 42.5888 155.136 42.3277 155.218C31.6978 158.938 21.4682 167.429 14.8115 176.335C14.6852 176.502 14.559 176.668 14.429 176.84C13.0175 178.707 11.7383 180.605 10.6266 182.667C10.5324 182.841 10.4382 183.015 10.3411 183.194C9.16126 185.463 8.58674 187.778 9.20716 190.293C9.98383 192.35 11.5008 193.866 13.4563 194.854C16.5114 195.985 19.4401 195.226 22.3452 193.966C23.629 193.368 24.8605 192.7 26.0756 191.972C26.5888 191.665 27.1112 191.374 27.6345 191.085C30.7822 188.991 31.4087 185.487 32.4498 182.04C32.8926 180.659 33.2192 179.745 34.4372 178.933C35.6963 178.77 36.2548 178.791 37.3053 179.528C38.0596 180.603 37.9872 181.098 37.9006 182.396C37.7291 183.182 37.5422 183.936 37.32 184.706C37.2598 184.923 37.1996 185.14 37.1377 185.363C37.0093 185.825 36.88 186.287 36.7496 186.748C36.4082 187.96 36.0777 189.175 35.7461 190.39C35.681 190.627 35.616 190.865 35.5489 191.11C32.958 200.59 31.5721 210.483 30.6492 220.259C30.6164 220.603 30.6164 220.603 30.5829 220.953C30.1418 225.959 30.0542 230.97 30.0545 235.992C30.0539 237.019 30.0486 238.046 30.0432 239.073C29.7227 246.939 29.7227 246.939 32.7833 253.875C36.1202 256.458 39.8509 256.674 43.9074 256.678C44.2759 256.686 44.6444 256.693 45.0241 256.7C48.5066 256.711 51.9712 256.078 54.6402 253.684C57.514 250.675 57.6793 245.824 58.0672 241.898C58.3551 239.19 58.3551 239.19 59.258 238.099C61.2265 237.115 64.1175 238.085 66.1487 238.496C76.4854 240.477 87.4206 240.565 97.6778 237.943C98.805 237.668 99.9596 237.671 101.107 237.81C102.076 238.472 102.327 239.004 102.55 240.119C102.601 240.62 102.641 241.123 102.674 241.625C103.025 248.484 103.025 248.484 106.681 254.063C109.754 256.496 113.464 256.671 117.233 256.66C117.577 256.665 117.92 256.67 118.274 256.675C122.076 256.677 125.255 256.032 128.038 253.323C130.578 249.185 130.346 244.436 130.311 239.758C130.308 239.183 130.306 238.608 130.303 238.033C130.294 236.419 130.277 234.806 130.257 233.192C130.253 232.829 130.249 232.465 130.245 232.09C130.013 216.545 127.521 200.597 123.457 185.61C122.955 183.716 122.571 182.049 122.753 180.087C123.488 179.202 123.933 178.977 125.062 178.789C126.164 178.972 126.574 179.308 127.371 180.087C127.762 181.021 127.762 181.021 128.064 182.119C128.182 182.522 128.301 182.925 128.421 183.327C128.482 183.535 128.543 183.743 128.605 183.958C129.834 188.404 129.834 188.404 133.024 191.505C133.536 191.758 134.061 191.984 134.586 192.209C134.94 192.397 135.291 192.589 135.64 192.784C138.86 194.554 142.161 195.803 145.851 194.876C147.923 194.171 149.285 193.428 150.406 191.506C151.526 189.08 151.333 186.728 150.442 184.254C148.365 179.42 145.124 175.481 141.513 171.718C141.344 171.539 141.175 171.361 141.001 171.177C135.22 165.099 128.48 160.823 121.07 156.995C120.735 156.82 120.4 156.645 120.055 156.465C119.604 156.233 119.604 156.233 119.144 155.996C118.424 155.555 118.424 155.555 117.847 154.689C117.738 153.824 117.738 153.824 117.847 152.958C118.854 151.907 120.26 151.685 121.617 151.316C133.892 147.789 145.23 140.11 151.539 128.829C152.589 126.856 153.314 124.798 153.923 122.653C154.021 122.311 154.119 121.969 154.22 121.616C156.655 111.472 152.691 101.954 147.665 93.3229C147.538 93.1017 147.411 92.8806 147.28 92.6528C147.044 92.2448 146.805 91.839 146.56 91.4365C144.087 87.1664 143.518 82.0121 142.674 77.2355C140.852 66.9935 137.272 58.0562 129.969 50.4997C129.737 50.2538 129.506 50.0079 129.268 49.7545C127.353 47.7638 125.252 46.0848 123.042 44.4388C122.763 44.23 122.763 44.23 122.479 44.017C114.225 37.8729 104.973 33.6404 94.9442 31.3308C93.3967 30.9612 93.3967 30.9612 92.9048 30.4389C91.9707 29.5568 90.4837 29.6544 89.2559 29.5211C88.7666 29.4666 88.7666 29.4666 88.2674 29.411C85.4517 29.1309 82.6497 29.0566 79.8218 29.0521C79.6176 29.0511 79.4133 29.0501 79.2029 29.049C74.0512 29.0275 74.0512 29.0275 69.2021 30.5624Z" fill="black"/>
<path d="M94.204 169.155C94.892 169.701 95.548 170.265 96.2007 170.852C96.483 171.077 96.7654 171.303 97.0564 171.535C99.7248 173.755 101.547 177.05 103.127 180.087C103.223 180.269 103.319 180.45 103.418 180.637C106.579 186.685 108.35 193.474 108.611 200.29C108.62 200.486 108.63 200.681 108.64 200.882C109.004 209.182 106.812 216.794 101.322 223.135C97.469 227.131 92.5813 229.3 87.2536 230.595C86.8351 230.701 86.8351 230.701 86.4081 230.81C78.995 232.368 70.5548 230.847 64.1645 226.843C63.1454 226.13 62.2052 225.363 61.2784 224.534C61.038 224.321 60.7977 224.108 60.5501 223.888C55.298 218.951 52.5316 211.557 52.2479 204.431C51.9955 193.063 55.6266 180.796 63.5196 172.373C71.7669 163.996 84.3921 162.402 94.204 169.155Z" fill="#F2D3A3"/>
<path d="M94.204 169.155C94.892 169.701 95.548 170.265 96.2007 170.852C96.483 171.077 96.7654 171.303 97.0564 171.535C99.7248 173.755 101.547 177.05 103.127 180.087C103.223 180.269 103.319 180.45 103.418 180.637C106.579 186.685 108.35 193.474 108.611 200.29C108.62 200.486 108.63 200.681 108.64 200.882C109.004 209.182 106.812 216.794 101.322 223.135C97.469 227.131 92.5813 229.3 87.2536 230.595C86.8351 230.701 86.8351 230.701 86.4081 230.81C78.995 232.368 70.5548 230.847 64.1645 226.843C63.1454 226.13 62.2052 225.363 61.2784 224.534C61.038 224.321 60.7977 224.108 60.5501 223.888C55.298 218.951 52.5316 211.557 52.2479 204.431C51.9955 193.063 55.6266 180.796 63.5196 172.373C71.7669 163.996 84.3921 162.402 94.204 169.155ZM67.1589 178.103C60.984 186.042 58.0847 196.467 59.0337 206.45C59.71 211.531 61.983 216.589 65.9864 219.889C71.6221 224.008 78.5541 225.418 85.4227 224.357C90.4219 223.396 95.1696 220.801 98.2559 216.704C102.45 210.295 102.907 202.244 101.514 194.856C101.388 194.26 101.251 193.667 101.107 193.075C101.059 192.874 101.011 192.674 100.962 192.467C99.483 186.493 96.8189 180.729 92.4487 176.335C92.2787 176.155 92.1086 175.975 91.9335 175.79C88.6833 172.618 84.3223 171.319 79.8991 171.321C74.7694 171.454 70.4217 174.283 67.1589 178.103Z" fill="black"/>
<path d="M169.797 168.543C169.988 168.543 170.178 168.543 170.375 168.543C170.703 169.444 171.026 170.346 171.349 171.249C171.44 171.5 171.532 171.751 171.626 172.01C174.188 179.216 173.608 187.505 170.41 194.422C169.955 195.343 169.456 196.233 168.931 197.116C168.75 197.423 168.569 197.73 168.382 198.046C162.261 207.748 151.462 214.241 140.461 216.82C140.142 216.89 139.822 216.959 139.493 217.03C139.143 217.116 139.143 217.116 138.786 217.204C137.763 217.364 136.776 217.336 135.741 217.319C135.112 213.984 134.616 210.638 134.151 207.276C133.843 205.086 133.476 202.931 132.975 200.778C132.857 200.015 132.889 199.567 133.143 198.847C133.35 198.942 133.556 199.036 133.769 199.133C136.995 200.547 139.927 201.228 143.443 201.265C143.693 201.269 143.944 201.273 144.201 201.277C148.157 201.248 151.339 199.54 154.201 196.885C156.049 194.892 157.121 192.422 157.549 189.756C158.103 188.407 158.971 187.766 160.067 186.831C165.386 182.2 168.762 175.463 169.797 168.543Z" fill="#3A9592"/>
<path d="M38.1171 97.0387C41.2619 99.1546 43.0897 102.235 43.9615 105.914C44.3458 110.217 43.4519 113.702 40.7867 117.17C38.8908 119.347 35.5853 121.287 32.6768 121.554C28.7013 121.697 25.5892 121.414 22.3154 118.901C22.0827 118.746 22.0827 118.746 21.8453 118.587C20.5857 117.66 19.8233 116.51 19.0505 115.167C18.9531 114.998 18.8556 114.83 18.7552 114.656C17.0896 111.628 16.9329 108.031 17.5973 104.673C18.9222 100.738 21.3183 97.9832 24.9851 96.1368C29.4033 93.9856 33.974 94.5888 38.1171 97.0387Z" fill="#F4A99C"/>
<path d="M138.519 97.342C141.274 99.3132 143.121 102.219 144.025 105.494C144.531 109.679 143.818 113.478 141.224 116.881C138.817 119.529 135.721 121.254 132.121 121.596C128.427 121.635 125.701 120.834 122.753 118.613C122.378 118.363 122.378 118.363 121.996 118.108C119.517 115.76 118.082 112.575 117.778 109.188C117.676 105.268 118.993 101.656 121.671 98.7704C122.862 97.658 124.194 96.8436 125.639 96.1007C125.831 96.0018 126.022 95.9028 126.219 95.8008C130.136 94.1573 135.077 95.1211 138.519 97.342Z" fill="#F4A99C"/>
<path d="M62.2077 137.771C62.8522 137.262 63.2728 136.562 63.7299 135.889C66.5096 131.872 71.0788 130.008 75.7396 129.138C82.086 128.044 89.409 128.625 94.8415 132.329C95.4221 132.752 95.9782 133.189 96.5276 133.651C96.6578 133.759 96.788 133.867 96.9221 133.978C97.8738 134.844 98.4708 135.917 99.0978 137.027C99.4667 137.571 99.6409 137.768 100.254 137.967C100.922 138.038 101.336 138.007 101.958 137.746C102.543 137.272 102.757 136.916 102.999 136.201C103.033 134.155 101.685 132.625 100.345 131.199C95.3575 126.13 88.5724 124.108 81.5617 124C74.0196 124.025 67.1175 125.99 61.5704 131.272C60.2377 132.631 58.982 134.209 59.0002 136.187C59.1259 136.92 59.5201 137.265 60.0505 137.771C60.8143 138.026 61.4501 138.023 62.2077 137.771Z" fill="black"/>
<path d="M82.6358 9.5166C86.4969 11.3172 88.6513 18.8922 90.0111 22.6119C90.8924 25.0546 91.774 27.4991 92.4487 30.0082C90.9276 30.0351 89.5204 29.94 88.0112 29.7196C85.3475 29.3836 82.6824 29.3653 80.0022 29.3588C79.7962 29.3574 79.5902 29.3559 79.378 29.3545C76.3801 29.3373 73.4794 29.5708 70.514 30.0082C70.7418 28.7288 71.1858 27.6765 71.7767 26.5268C71.8786 26.3269 71.9804 26.127 72.0854 25.921C72.4243 25.2614 72.7673 24.6042 73.1115 23.9473C73.2285 23.7225 73.3455 23.4977 73.4661 23.2661C74.965 20.4045 76.5786 17.6413 78.3607 14.9462C78.5216 14.7013 78.6826 14.4564 78.8484 14.2041C79.9846 12.5178 81.2514 11.0048 82.6358 9.5166Z" fill="#3A9592"/>
<path d="M119.921 79.5235C121.798 80.5943 122.974 82.2333 123.707 84.2473C124.297 86.8513 124.314 89.891 123.136 92.3251C122.029 94.0618 120.712 95.2159 118.713 95.8121C116.885 96.0152 115.602 95.7309 114.095 94.6577C112.175 92.9218 111.137 90.8456 110.851 88.2631C110.765 85.5542 111.424 83.1623 113.193 81.0748C115.139 79.0961 117.3 78.3606 119.921 79.5235Z" fill="black"/>
<path d="M47.1937 79.3183C49.2882 80.4912 50.6684 82.4175 51.3302 84.7062C51.9035 87.7402 51.4077 90.5533 49.8059 93.1786C48.9956 94.2925 48.2067 95.1534 46.8476 95.5236C44.7904 95.7972 42.9714 95.803 41.2625 94.5303C39.1532 92.536 38.505 90.2328 38.3876 87.3882C38.4144 84.9271 39.286 82.273 41.0754 80.5156C42.9118 79.0836 44.9514 78.4501 47.1937 79.3183Z" fill="black"/>
<path d="M127.371 26.5447C127.519 29.1829 127.308 31.6313 126.83 34.229C126.78 34.5025 126.73 34.776 126.678 35.0578C126.434 36.316 126.186 37.4981 125.639 38.6665C123.633 37.4068 121.652 36.1148 119.692 34.7855C118.527 34.0018 117.341 33.2893 116.115 32.6056C117.116 31.4774 118.269 30.7901 119.56 30.0441C119.885 29.855 119.885 29.855 120.216 29.662C125.641 26.5447 125.641 26.5447 127.371 26.5447Z" fill="#3A9592"/>
<path d="M36.1689 25.9675C37.9339 26.5034 39.5446 27.1639 41.1656 28.0419C41.4803 28.2102 41.4803 28.2102 41.8013 28.3818C43.6582 29.3904 45.4104 30.5194 47.1363 31.7398C46.0049 32.708 44.8312 33.4024 43.5286 34.1028C41.6029 35.1569 39.814 36.3235 38.0382 37.6124C37.3234 38.0893 37.3234 38.0893 36.7462 38.0893C35.9922 34.0705 36.1112 30.0409 36.1689 25.9675Z" fill="#3A9592"/>
<path d="M67.9165 104.182C69.535 104.924 70.8027 105.898 71.4982 107.564C71.8302 108.848 71.8773 110.089 71.6684 111.397C71.1486 112.264 70.8305 112.682 69.9368 113.129C68.4723 113.369 67.3371 113.269 66.0946 112.426C64.7383 111.275 64.072 109.922 63.7676 108.181C63.6781 106.718 64.1109 105.863 65.0303 104.759C66.1399 104.02 66.5952 104.012 67.9165 104.182Z" fill="black"/>
<path d="M96.4893 104.182C97.3344 104.706 98.0582 105.299 98.5096 106.202C98.7376 108.137 98.6374 109.608 97.4803 111.208C96.3328 112.534 95.3885 113.078 93.6392 113.219C92.6993 113.209 92.4429 113.125 91.6009 112.606C90.6263 111.572 90.6161 110.561 90.6381 109.206C90.8596 107.257 91.9314 106.002 93.4059 104.796C94.4048 104.127 95.3205 104.044 96.4893 104.182Z" fill="black"/>
<path d="M54.9209 55.2032C55.3192 55.4023 55.6486 55.6352 55.853 56.0371C56.0709 56.712 56.0532 57.4824 55.7553 58.1299C55.3986 58.7404 54.9189 59.2642 54.4426 59.7865C54.3047 59.9384 54.1691 60.0923 54.0338 60.2464C52.2616 62.2307 49.9118 63.4386 47.4052 64.2903C47.3183 64.3213 47.2315 64.3523 47.142 64.3842C45.6357 64.8815 43.3259 65.314 41.8131 64.6919C41.4383 64.4713 41.2818 64.1912 41.1056 63.8106C40.9717 63.2409 40.9312 62.7759 41.1892 62.239C41.8444 61.5295 42.6232 61.4525 43.5483 61.3111C46.5768 60.813 49.5605 59.9001 51.5128 57.423C51.8058 57.0175 52.0615 56.6 52.3098 56.1669C52.9129 55.1172 53.735 54.7216 54.9209 55.2032Z" fill="black"/>
<path d="M108.301 55.1241C108.997 55.5251 109.416 56.0837 109.864 56.7302C111.501 59.0691 114.065 60.5566 116.883 61.0813C117.427 61.1699 117.972 61.2533 118.518 61.3262C119.309 61.4384 120.14 61.5709 120.722 62.1454C121.007 62.6211 121.036 63.061 120.971 63.6C120.814 64.0658 120.607 64.4719 120.154 64.7082C118.889 65.2297 117.136 64.9616 115.861 64.6075C115.778 64.5842 115.694 64.5609 115.607 64.5369C114.28 64.1597 113.015 63.6917 111.774 63.0962C111.669 63.0468 111.564 62.9973 111.457 62.9463C109.304 61.861 106.895 59.7109 106.05 57.4543C105.955 56.8931 105.976 56.395 106.274 55.899C106.761 55.2357 107.454 54.7647 108.301 55.1241Z" fill="black"/>
</svg>
