<svg width="350" height="350" viewBox="0 0 350 350" fill="none" xmlns="http://www.w3.org/2000/svg">
<path d="M169.371 65.0678C173.751 67.12 176.186 71.702 178.315 75.8254C178.412 76.0127 178.509 76.2 178.61 76.3929C180.67 80.4108 182.71 84.9345 183.51 89.3903C183.72 89.4119 183.931 89.4335 184.148 89.4557C186.87 89.7986 189.333 90.5927 191.908 91.5166C192.748 91.7984 192.748 91.7984 193.611 91.9878C194.257 91.6405 194.819 91.2885 195.415 90.8694C195.779 90.6261 196.143 90.3837 196.508 90.1423C196.792 89.9544 196.792 89.9544 197.08 89.7628C202.222 86.4108 209.535 82.4813 215.834 83.3294C217.299 83.9462 217.848 84.8018 218.501 86.1874C219.828 89.8427 219.082 94.5554 218.63 98.3193C218.594 98.6245 218.559 98.9298 218.522 99.2443C218.354 100.562 218.165 101.827 217.771 103.097C217.447 104.177 217.21 105.003 217.277 106.13C218.109 107.35 219.126 108.207 220.249 109.151C221.054 109.875 221.707 110.702 222.364 111.559C222.494 111.728 222.624 111.897 222.757 112.07C229.535 121.025 232.745 131.221 234.793 142.159C235.653 146.723 236.577 150.838 238.923 154.906C239.17 155.349 239.415 155.792 239.66 156.236C240.028 156.902 240.398 157.567 240.771 158.231C244.371 164.647 246.268 171.244 246.229 178.626C246.228 178.837 246.228 179.048 246.227 179.265C246.212 182.384 246.103 185.359 245.273 188.385C245.219 188.587 245.164 188.789 245.109 188.997C241.763 201.092 232.444 210.095 221.831 216.165C220.054 217.165 218.255 218.106 216.412 218.978C218.091 220.244 219.771 221.505 221.48 222.73C224.388 224.842 227.087 227.18 229.688 229.657C229.861 229.821 230.034 229.986 230.212 230.156C234.717 234.477 238.613 239.241 241.232 244.953C245.591 240.574 247.683 235.552 248.773 229.535C249.168 227.436 249.606 225.55 251.226 224.047C252.401 223.274 253.085 223.192 254.509 223.307C257.383 224.119 259.197 226.821 260.624 229.278C265.084 237.295 266.155 246.483 263.744 255.343C263.692 255.538 263.639 255.733 263.585 255.934C261.796 262.343 258.087 267.802 253.643 272.66C253.427 272.897 253.21 273.134 252.988 273.378C245.709 280.982 233.625 287.827 222.953 288.274C222.408 288.264 221.863 288.255 221.318 288.245C221.338 288.509 221.358 288.773 221.379 289.045C221.565 291.623 221.656 294.186 221.665 296.772C221.666 296.961 221.667 297.151 221.668 297.346C221.672 298.348 221.675 299.35 221.676 300.353C221.677 301.166 221.681 301.978 221.688 302.791C221.749 310.562 221.749 310.562 221.241 314.055C221.21 314.273 221.179 314.492 221.147 314.717C220.591 317.957 218.841 321.142 216.292 323.237C210.279 327.333 202.612 328.164 195.541 326.866C190.956 325.759 186.852 323.527 184.303 319.452C182.373 316.007 181.718 312.669 181.778 308.737C181.477 308.787 181.477 308.787 181.17 308.838C180.243 308.992 179.315 309.144 178.387 309.296C178.072 309.349 177.756 309.402 177.432 309.456C173.637 310.073 169.92 310.234 166.083 310.234C165.317 310.234 164.551 310.239 163.785 310.245C158.82 310.261 154.024 309.742 149.164 308.737C149.16 309.02 149.156 309.303 149.152 309.595C149.014 314.333 147.633 318.835 144.348 322.392C139.243 327.124 132.465 327.479 125.88 327.266C123.832 327.143 121.953 326.704 120.014 326.054C119.7 325.949 119.385 325.845 119.061 325.737C115.177 324.28 111.979 321.669 110.22 317.885C108.758 314.176 108.713 310.284 108.72 306.348C108.72 305.988 108.72 305.629 108.719 305.258C108.719 304.499 108.72 303.739 108.721 302.98C108.722 301.848 108.721 300.717 108.719 299.585C108.718 295.84 108.76 292.1 108.885 288.357C108.896 288.025 108.907 287.692 108.918 287.35C109.219 279.218 110.586 271.099 112.222 263.136C112.072 263.194 111.923 263.252 111.769 263.312C106.304 265.424 101.444 266.776 95.7506 264.516C92.3651 262.957 89.6685 260.55 88.1947 257.095C86.5829 252.517 87.4132 248.327 89.3763 244.053C91.8726 238.918 95.5442 234.566 99.5228 230.523C99.8057 230.229 100.088 229.935 100.371 229.641C101.851 228.123 103.385 226.736 105.044 225.417C105.627 224.947 106.198 224.474 106.764 223.985C108.721 222.292 110.732 220.742 112.857 219.266C113.659 218.727 113.659 218.727 114.242 218.112C114.059 218.019 113.876 217.927 113.688 217.831C106.878 214.363 106.878 214.363 104.141 212.34C103.838 212.119 103.535 211.897 103.223 211.669C100.991 210.01 98.9371 208.196 96.9253 206.279C96.6824 206.055 96.4394 205.83 96.1891 205.599C89.2498 198.992 85.3664 190.074 85.011 180.547C84.7862 170.353 88.0354 161.889 93.1306 153.166C95.6829 148.672 96.469 143.556 97.4943 138.555C98.7891 132.275 100.435 126.193 103.563 120.561C103.797 120.121 103.797 120.121 104.036 119.672C105.896 116.303 108.33 113.277 110.815 110.351C110.956 110.184 111.097 110.017 111.243 109.844C111.918 109.062 112.597 108.342 113.39 107.678C114.876 106.476 114.876 106.476 115.477 104.754C115.323 103.747 115.075 102.787 114.819 101.801C113.77 96.3997 112.4 88.4253 115.361 83.4196C116.377 82.3139 117.009 81.9398 118.517 81.742C120.631 81.816 122.658 82.6256 124.632 83.3294C124.908 83.4269 125.183 83.5244 125.467 83.6248C127.483 84.409 129.401 85.4099 131.325 86.3959C131.615 86.5432 131.906 86.6905 132.206 86.8422C133.566 87.5496 134.819 88.2557 136 89.2381C138.001 90.9358 138.001 90.9358 140.505 91.3521C142.414 90.9787 144.202 90.3318 146.02 89.6547C147.248 89.2662 148.46 89.1521 149.742 89.1017C149.776 88.8936 149.81 88.6854 149.845 88.471C150.036 87.6345 150.315 86.9735 150.694 86.2054C150.832 85.9271 150.969 85.6488 151.111 85.3621C151.26 85.0663 151.41 84.7706 151.564 84.4658C151.719 84.1585 151.873 83.8512 152.033 83.5346C162.696 62.657 162.696 62.657 169.371 65.0678Z" fill="#ECECEB"/>
<path d="M229 133.211C229 151.625 201.725 120.223 166.448 120.223C131.17 120.223 102 151.625 102 133.211C102 114.798 131.17 91 166.448 91C201.725 91 229 114.798 229 133.211Z" fill="#AADCE7"/>
<path d="M169.371 65.0678C173.751 67.12 176.186 71.702 178.315 75.8254C178.412 76.0127 178.509 76.2 178.61 76.3929C180.67 80.4108 182.71 84.9345 183.51 89.3903C183.72 89.4119 183.931 89.4335 184.148 89.4557C186.87 89.7986 189.333 90.5927 191.908 91.5166C192.748 91.7984 192.748 91.7984 193.611 91.9878C194.257 91.6405 194.819 91.2885 195.415 90.8694C195.779 90.6261 196.143 90.3837 196.508 90.1423C196.792 89.9544 196.792 89.9544 197.08 89.7628C202.222 86.4108 209.535 82.4813 215.834 83.3294C217.299 83.9462 217.848 84.8018 218.501 86.1874C219.828 89.8427 219.082 94.5554 218.63 98.3193C218.594 98.6245 218.559 98.9298 218.522 99.2443C218.354 100.562 218.165 101.827 217.771 103.097C217.447 104.177 217.21 105.003 217.277 106.13C218.109 107.35 219.126 108.207 220.249 109.151C221.054 109.875 221.707 110.702 222.364 111.559C222.494 111.728 222.624 111.897 222.757 112.07C229.535 121.025 232.745 131.221 234.793 142.159C235.653 146.723 236.577 150.838 238.923 154.906C239.17 155.349 239.415 155.792 239.66 156.236C240.028 156.902 240.398 157.567 240.771 158.231C244.371 164.647 246.268 171.244 246.229 178.626C246.228 178.837 246.228 179.048 246.227 179.265C246.212 182.384 246.103 185.359 245.273 188.385C245.219 188.587 245.164 188.789 245.109 188.997C241.763 201.092 232.444 210.095 221.831 216.165C220.054 217.165 218.255 218.106 216.412 218.978C218.091 220.244 219.771 221.505 221.48 222.73C224.388 224.842 227.087 227.18 229.688 229.657C229.861 229.821 230.034 229.986 230.212 230.156C234.717 234.477 238.613 239.241 241.232 244.953C245.591 240.574 247.683 235.552 248.773 229.535C249.168 227.436 249.606 225.55 251.226 224.047C252.401 223.274 253.085 223.192 254.509 223.307C257.383 224.119 259.197 226.821 260.624 229.278C265.084 237.295 266.155 246.483 263.744 255.343C263.692 255.538 263.639 255.733 263.585 255.934C261.796 262.343 258.087 267.802 253.643 272.66C253.427 272.897 253.21 273.134 252.988 273.378C245.709 280.982 233.625 287.827 222.953 288.274C222.408 288.264 221.863 288.255 221.318 288.245C221.338 288.509 221.358 288.773 221.379 289.045C221.565 291.623 221.656 294.186 221.665 296.772C221.666 296.961 221.667 297.151 221.668 297.346C221.672 298.348 221.675 299.35 221.676 300.353C221.677 301.166 221.681 301.978 221.688 302.791C221.749 310.562 221.749 310.562 221.241 314.055C221.21 314.273 221.179 314.492 221.147 314.717C220.591 317.957 218.841 321.142 216.292 323.237C210.279 327.333 202.612 328.164 195.541 326.866C190.956 325.759 186.852 323.527 184.303 319.452C182.373 316.007 181.718 312.669 181.778 308.737C181.477 308.787 181.477 308.787 181.17 308.838C180.243 308.992 179.315 309.144 178.387 309.296C178.072 309.349 177.756 309.402 177.432 309.456C173.637 310.073 169.92 310.234 166.083 310.234C165.317 310.234 164.551 310.239 163.785 310.245C158.82 310.261 154.024 309.742 149.164 308.737C149.16 309.02 149.156 309.303 149.152 309.595C149.014 314.333 147.633 318.835 144.348 322.392C139.243 327.124 132.465 327.479 125.88 327.266C123.832 327.143 121.953 326.704 120.014 326.054C119.7 325.949 119.385 325.845 119.061 325.737C115.177 324.28 111.979 321.669 110.22 317.885C108.758 314.176 108.713 310.284 108.72 306.348C108.72 305.988 108.72 305.629 108.719 305.258C108.719 304.499 108.72 303.739 108.721 302.98C108.722 301.848 108.721 300.717 108.719 299.585C108.718 295.84 108.76 292.1 108.885 288.357C108.896 288.025 108.907 287.692 108.918 287.35C109.219 279.218 110.586 271.099 112.222 263.136C112.072 263.194 111.923 263.252 111.769 263.312C106.304 265.424 101.444 266.776 95.7506 264.516C92.3651 262.957 89.6685 260.55 88.1947 257.095C86.5829 252.517 87.4132 248.327 89.3763 244.053C91.8726 238.918 95.5442 234.566 99.5228 230.523C99.8057 230.229 100.088 229.935 100.371 229.641C101.851 228.123 103.385 226.736 105.044 225.417C105.627 224.947 106.198 224.474 106.764 223.985C108.721 222.292 110.732 220.742 112.857 219.266C113.659 218.727 113.659 218.727 114.242 218.112C114.059 218.019 113.876 217.927 113.688 217.831C106.878 214.363 106.878 214.363 104.141 212.34C103.838 212.119 103.535 211.897 103.223 211.669C100.991 210.01 98.9371 208.196 96.9253 206.279C96.6824 206.055 96.4394 205.83 96.1891 205.599C89.2498 198.992 85.3664 190.074 85.011 180.547C84.7862 170.353 88.0354 161.889 93.1306 153.166C95.6829 148.672 96.469 143.556 97.4943 138.555C98.7891 132.275 100.435 126.193 103.563 120.561C103.797 120.121 103.797 120.121 104.036 119.672C105.896 116.303 108.33 113.277 110.815 110.351C110.956 110.184 111.097 110.017 111.243 109.844C111.918 109.062 112.597 108.342 113.39 107.678C114.876 106.476 114.876 106.476 115.477 104.754C115.323 103.747 115.075 102.787 114.819 101.801C113.77 96.3997 112.4 88.4253 115.361 83.4196C116.377 82.3139 117.009 81.9398 118.517 81.742C120.631 81.816 122.658 82.6256 124.632 83.3294C124.908 83.4269 125.183 83.5244 125.467 83.6248C127.483 84.409 129.401 85.4099 131.325 86.3959C131.615 86.5432 131.906 86.6905 132.206 86.8422C133.566 87.5496 134.819 88.2557 136 89.2381C138.001 90.9358 138.001 90.9358 140.505 91.3521C142.414 90.9787 144.202 90.3318 146.02 89.6547C147.248 89.2662 148.46 89.1521 149.742 89.1017C149.776 88.8936 149.81 88.6854 149.845 88.471C150.036 87.6345 150.315 86.9735 150.694 86.2054C150.832 85.9271 150.969 85.6488 151.111 85.3621C151.26 85.0663 151.41 84.7706 151.564 84.4658C151.719 84.1585 151.873 83.8512 152.033 83.5346C162.696 62.657 162.696 62.657 169.371 65.0678ZM154.202 94.5624C152.769 95.1927 151.225 95.5241 149.714 95.9222C141.667 98.0601 134.1 101.382 127.23 106.13C127.065 106.242 126.901 106.354 126.731 106.47C124.323 108.117 122.059 109.894 119.864 111.817C119.466 112.166 119.064 112.512 118.663 112.857C115.378 115.732 112.835 118.924 110.49 122.581C110.382 122.749 110.274 122.916 110.163 123.089C106.496 128.885 104.97 135.374 103.571 142.004C103.522 142.239 103.472 142.473 103.42 142.715C103.173 143.884 102.928 145.053 102.691 146.224C101.94 149.868 100.797 153.167 98.9997 156.439C98.7458 156.913 98.4921 157.387 98.2387 157.862C98.0521 158.209 98.0521 158.209 97.8618 158.564C93.235 167.207 89.6224 176.832 92.5228 186.709C92.6411 187.076 92.7617 187.442 92.8847 187.808C92.945 187.991 93.0054 188.174 93.0675 188.362C96.6365 198.866 105.751 206.28 115.405 211.086C118.285 212.466 121.267 213.575 124.267 214.665C127.695 215.924 127.695 215.924 128.384 216.958C128.276 218.022 128.276 218.022 128.096 218.978C127.842 219.057 127.589 219.136 127.328 219.218C116.698 222.938 106.468 231.429 99.8115 240.335C99.6852 240.502 99.559 240.668 99.429 240.84C98.0175 242.707 96.7383 244.605 95.6266 246.667C95.5324 246.841 95.4382 247.015 95.3411 247.194C94.1613 249.463 93.5867 251.778 94.2072 254.293C94.9838 256.35 96.5008 257.866 98.4563 258.854C101.511 259.985 104.44 259.226 107.345 257.966C108.629 257.368 109.861 256.7 111.076 255.972C111.589 255.665 112.111 255.374 112.634 255.085C115.782 252.991 116.409 249.487 117.45 246.04C117.893 244.659 118.219 243.745 119.437 242.933C120.696 242.77 121.255 242.791 122.305 243.528C123.06 244.603 122.987 245.098 122.901 246.396C122.729 247.182 122.542 247.936 122.32 248.706C122.26 248.923 122.2 249.14 122.138 249.363C122.009 249.825 121.88 250.287 121.75 250.748C121.408 251.96 121.078 253.175 120.746 254.39C120.681 254.627 120.616 254.865 120.549 255.11C117.958 264.59 116.572 274.483 115.649 284.259C115.616 284.603 115.616 284.603 115.583 284.953C115.142 289.959 115.054 294.97 115.055 299.992C115.054 301.019 115.049 302.046 115.043 303.073C114.723 310.939 114.723 310.939 117.783 317.875C121.12 320.458 124.851 320.674 128.907 320.678C129.276 320.686 129.644 320.693 130.024 320.7C133.507 320.711 136.971 320.078 139.64 317.684C142.514 314.675 142.679 309.824 143.067 305.898C143.355 303.19 143.355 303.19 144.258 302.099C146.226 301.115 149.118 302.085 151.149 302.496C161.485 304.477 172.421 304.565 182.678 301.943C183.805 301.668 184.96 301.671 186.107 301.81C187.076 302.472 187.327 303.004 187.55 304.119C187.601 304.62 187.641 305.123 187.674 305.625C188.025 312.484 188.025 312.484 191.681 318.063C194.754 320.496 198.464 320.671 202.233 320.66C202.577 320.665 202.92 320.67 203.274 320.675C207.076 320.677 210.255 320.032 213.038 317.323C215.578 313.185 215.346 308.436 215.311 303.758C215.308 303.183 215.306 302.608 215.303 302.033C215.294 300.419 215.277 298.806 215.257 297.192C215.253 296.829 215.249 296.465 215.245 296.09C215.013 280.545 212.521 264.597 208.457 249.61C207.955 247.716 207.571 246.049 207.753 244.087C208.488 243.202 208.933 242.977 210.062 242.789C211.164 242.972 211.574 243.308 212.371 244.087C212.762 245.021 212.762 245.021 213.064 246.119C213.182 246.522 213.301 246.925 213.421 247.327C213.482 247.535 213.543 247.743 213.605 247.958C214.834 252.404 214.834 252.404 218.024 255.505C218.536 255.758 219.061 255.984 219.586 256.209C219.94 256.397 220.291 256.589 220.64 256.784C223.86 258.554 227.161 259.803 230.851 258.876C232.923 258.171 234.285 257.428 235.406 255.506C236.526 253.08 236.333 250.728 235.442 248.254C233.365 243.42 230.124 239.481 226.513 235.718C226.344 235.539 226.175 235.361 226.001 235.177C220.22 229.099 213.48 224.823 206.07 220.995C205.735 220.82 205.4 220.645 205.055 220.465C204.604 220.233 204.604 220.233 204.144 219.996C203.424 219.555 203.424 219.555 202.847 218.689C202.738 217.824 202.738 217.824 202.847 216.958C203.854 215.907 205.26 215.685 206.617 215.316C218.892 211.789 230.23 204.11 236.539 192.829C237.589 190.856 238.314 188.798 238.923 186.653C239.021 186.311 239.119 185.969 239.22 185.616C241.655 175.472 237.691 165.954 232.665 157.323C232.538 157.102 232.411 156.881 232.28 156.653C232.044 156.245 231.805 155.839 231.56 155.437C229.087 151.166 228.518 146.012 227.674 141.236C225.852 130.994 222.272 122.056 214.969 114.5C214.737 114.254 214.506 114.008 214.268 113.755C212.353 111.764 210.252 110.085 208.042 108.439C207.763 108.23 207.763 108.23 207.479 108.017C199.225 101.873 189.973 97.6404 179.944 95.3308C178.397 94.9612 178.397 94.9612 177.905 94.4389C176.971 93.5568 175.484 93.6544 174.256 93.5211C173.767 93.4666 173.767 93.4666 173.267 93.411C170.452 93.1309 167.65 93.0566 164.822 93.0521C164.618 93.0511 164.413 93.0501 164.203 93.049C159.051 93.0275 159.051 93.0275 154.202 94.5624Z" fill="black"/>
<path d="M179.204 233.155C179.892 233.701 180.548 234.265 181.201 234.852C181.483 235.077 181.765 235.303 182.056 235.535C184.725 237.755 186.547 241.05 188.127 244.087C188.223 244.269 188.319 244.45 188.418 244.637C191.579 250.685 193.35 257.474 193.611 264.29C193.62 264.486 193.63 264.681 193.64 264.882C194.004 273.182 191.812 280.794 186.322 287.135C182.469 291.131 177.581 293.3 172.254 294.595C171.835 294.701 171.835 294.701 171.408 294.81C163.995 296.368 155.555 294.847 149.164 290.843C148.145 290.13 147.205 289.363 146.278 288.534C146.038 288.321 145.798 288.108 145.55 287.888C140.298 282.951 137.532 275.557 137.248 268.431C136.995 257.063 140.627 244.796 148.52 236.373C156.767 227.996 169.392 226.402 179.204 233.155Z" fill="#F2D3A3"/>
<path d="M179.204 233.155C179.892 233.701 180.548 234.265 181.201 234.852C181.483 235.077 181.765 235.303 182.056 235.535C184.725 237.755 186.547 241.05 188.127 244.087C188.223 244.269 188.319 244.45 188.418 244.637C191.579 250.685 193.35 257.474 193.611 264.29C193.62 264.486 193.63 264.681 193.64 264.882C194.004 273.182 191.812 280.794 186.322 287.135C182.469 291.131 177.581 293.3 172.254 294.595C171.835 294.701 171.835 294.701 171.408 294.81C163.995 296.368 155.555 294.847 149.164 290.843C148.145 290.13 147.205 289.363 146.278 288.534C146.038 288.321 145.798 288.108 145.55 287.888C140.298 282.951 137.532 275.557 137.248 268.431C136.995 257.063 140.627 244.796 148.52 236.373C156.767 227.996 169.392 226.402 179.204 233.155ZM152.159 242.103C145.984 250.042 143.085 260.467 144.034 270.45C144.71 275.531 146.983 280.589 150.986 283.889C156.622 288.008 163.554 289.418 170.423 288.357C175.422 287.396 180.17 284.801 183.256 280.704C187.45 274.295 187.907 266.244 186.514 258.856C186.388 258.26 186.251 257.667 186.107 257.075C186.059 256.874 186.011 256.674 185.962 256.467C184.483 250.493 181.819 244.729 177.449 240.335C177.279 240.155 177.109 239.975 176.933 239.79C173.683 236.618 169.322 235.319 164.899 235.321C159.769 235.454 155.422 238.283 152.159 242.103Z" fill="black"/>
<path d="M254.797 232.543C254.988 232.543 255.178 232.543 255.374 232.543C255.703 233.444 256.026 234.346 256.349 235.249C256.44 235.5 256.532 235.751 256.626 236.01C259.188 243.216 258.608 251.505 255.41 258.422C254.955 259.343 254.456 260.233 253.931 261.116C253.75 261.423 253.569 261.73 253.382 262.046C247.261 271.748 236.462 278.241 225.461 280.82C225.142 280.89 224.822 280.959 224.493 281.03C224.143 281.116 224.143 281.116 223.786 281.204C222.763 281.364 221.776 281.336 220.741 281.319C220.112 277.984 219.616 274.638 219.151 271.276C218.843 269.086 218.476 266.931 217.975 264.778C217.857 264.015 217.889 263.567 218.143 262.847C218.35 262.942 218.556 263.036 218.769 263.133C221.995 264.547 224.927 265.228 228.443 265.265C228.693 265.269 228.944 265.273 229.201 265.277C233.157 265.248 236.339 263.54 239.201 260.885C241.049 258.892 242.121 256.422 242.549 253.756C243.103 252.407 243.971 251.766 245.067 250.831C250.386 246.2 253.762 239.463 254.797 232.543Z" fill="#3A9592"/>
<path d="M123.117 161.039C126.262 163.155 128.09 166.235 128.961 169.914C129.346 174.217 128.452 177.702 125.787 181.17C123.891 183.347 120.585 185.287 117.677 185.554C113.701 185.697 110.589 185.414 107.315 182.901C107.083 182.746 107.083 182.746 106.845 182.587C105.586 181.66 104.823 180.51 104.05 179.167C103.953 178.998 103.856 178.83 103.755 178.656C102.09 175.628 101.933 172.031 102.597 168.673C103.922 164.738 106.318 161.983 109.985 160.137C114.403 157.986 118.974 158.589 123.117 161.039Z" fill="#F4A99C"/>
<path d="M223.519 161.342C226.274 163.313 228.121 166.219 229.025 169.494C229.531 173.679 228.818 177.478 226.224 180.881C223.817 183.529 220.721 185.254 217.121 185.596C213.427 185.635 210.701 184.834 207.753 182.613C207.378 182.363 207.378 182.363 206.996 182.108C204.517 179.76 203.082 176.575 202.778 173.188C202.676 169.268 203.993 165.656 206.671 162.77C207.862 161.658 209.194 160.844 210.639 160.101C210.831 160.002 211.022 159.903 211.219 159.801C215.136 158.157 220.077 159.121 223.519 161.342Z" fill="#F4A99C"/>
<path d="M147.208 201.771C147.852 201.262 148.273 200.562 148.73 199.889C151.51 195.872 156.079 194.008 160.74 193.138C167.086 192.044 174.409 192.625 179.841 196.329C180.422 196.752 180.978 197.189 181.528 197.651C181.658 197.759 181.788 197.867 181.922 197.978C182.874 198.844 183.471 199.917 184.098 201.027C184.467 201.571 184.641 201.768 185.254 201.967C185.922 202.038 186.336 202.007 186.958 201.746C187.543 201.272 187.757 200.916 187.999 200.201C188.033 198.155 186.685 196.625 185.345 195.199C180.357 190.13 173.572 188.108 166.562 188C159.02 188.025 152.117 189.99 146.57 195.272C145.238 196.631 143.982 198.209 144 200.187C144.126 200.92 144.52 201.265 145.05 201.771C145.814 202.026 146.45 202.023 147.208 201.771Z" fill="black"/>
<path d="M167.636 73.5166C171.497 75.3172 173.651 82.8922 175.011 86.6119C175.892 89.0546 176.774 91.4991 177.449 94.0082C175.928 94.0351 174.52 93.94 173.011 93.7196C170.348 93.3836 167.682 93.3653 165.002 93.3588C164.796 93.3574 164.59 93.3559 164.378 93.3545C161.38 93.3373 158.479 93.5708 155.514 94.0082C155.742 92.7288 156.186 91.6765 156.777 90.5268C156.879 90.3269 156.98 90.127 157.085 89.921C157.424 89.2614 157.767 88.6042 158.112 87.9473C158.229 87.7225 158.346 87.4977 158.466 87.2661C159.965 84.4045 161.579 81.6413 163.361 78.9462C163.522 78.7013 163.683 78.4564 163.848 78.2041C164.985 76.5178 166.251 75.0048 167.636 73.5166Z" fill="#3A9592"/>
<path d="M204.921 143.523C206.798 144.594 207.974 146.233 208.707 148.247C209.297 150.851 209.314 153.891 208.136 156.325C207.029 158.062 205.712 159.216 203.713 159.812C201.885 160.015 200.602 159.731 199.095 158.658C197.175 156.922 196.137 154.846 195.851 152.263C195.765 149.554 196.424 147.162 198.193 145.075C200.139 143.096 202.3 142.361 204.921 143.523Z" fill="black"/>
<path d="M132.194 143.318C134.288 144.491 135.668 146.417 136.33 148.706C136.904 151.74 136.408 154.553 134.806 157.179C133.996 158.292 133.207 159.153 131.848 159.524C129.79 159.797 127.971 159.803 126.263 158.53C124.153 156.536 123.505 154.233 123.388 151.388C123.414 148.927 124.286 146.273 126.075 144.516C127.912 143.084 129.951 142.45 132.194 143.318Z" fill="black"/>
<path d="M212.371 90.5447C212.519 93.1829 212.308 95.6313 211.83 98.229C211.78 98.5025 211.73 98.776 211.678 99.0578C211.434 100.316 211.186 101.498 210.639 102.666C208.633 101.407 206.652 100.115 204.692 98.7855C203.527 98.0018 202.341 97.2893 201.115 96.6056C202.116 95.4774 203.269 94.7901 204.56 94.0441C204.885 93.855 204.885 93.855 205.216 93.662C210.641 90.5447 210.641 90.5447 212.371 90.5447Z" fill="#3A9592"/>
<path d="M121.169 89.9675C122.934 90.5034 124.545 91.1639 126.166 92.0419C126.48 92.2102 126.48 92.2102 126.801 92.3818C128.658 93.3904 130.41 94.5194 132.136 95.7398C131.005 96.708 129.831 97.4024 128.529 98.1028C126.603 99.1569 124.814 100.324 123.038 101.612C122.323 102.089 122.323 102.089 121.746 102.089C120.992 98.0705 121.111 94.0409 121.169 89.9675Z" fill="#3A9592"/>
<path d="M152.916 168.182C154.535 168.924 155.803 169.898 156.498 171.564C156.83 172.848 156.877 174.089 156.668 175.397C156.149 176.264 155.831 176.682 154.937 177.129C153.472 177.369 152.337 177.269 151.095 176.426C149.738 175.275 149.072 173.922 148.768 172.181C148.678 170.718 149.111 169.863 150.03 168.759C151.14 168.02 151.595 168.012 152.916 168.182Z" fill="black"/>
<path d="M181.489 168.182C182.334 168.706 183.058 169.299 183.51 170.202C183.738 172.137 183.637 173.608 182.48 175.208C181.333 176.534 180.388 177.078 178.639 177.219C177.699 177.209 177.443 177.125 176.601 176.606C175.626 175.572 175.616 174.561 175.638 173.206C175.86 171.257 176.931 170.002 178.406 168.796C179.405 168.127 180.32 168.044 181.489 168.182Z" fill="black"/>
<path d="M139.921 119.203C140.319 119.402 140.649 119.635 140.853 120.037C141.071 120.712 141.053 121.482 140.755 122.13C140.399 122.74 139.919 123.264 139.443 123.787C139.305 123.938 139.169 124.092 139.034 124.246C137.262 126.231 134.912 127.439 132.405 128.29C132.318 128.321 132.231 128.352 132.142 128.384C130.636 128.881 128.326 129.314 126.813 128.692C126.438 128.471 126.282 128.191 126.106 127.811C125.972 127.241 125.931 126.776 126.189 126.239C126.844 125.53 127.623 125.452 128.548 125.311C131.577 124.813 134.561 123.9 136.513 121.423C136.806 121.017 137.062 120.6 137.31 120.167C137.913 119.117 138.735 118.722 139.921 119.203Z" fill="black"/>
<path d="M193.301 119.124C193.997 119.525 194.416 120.084 194.864 120.73C196.501 123.069 199.065 124.557 201.883 125.081C202.427 125.17 202.972 125.253 203.518 125.326C204.309 125.438 205.14 125.571 205.722 126.145C206.007 126.621 206.036 127.061 205.971 127.6C205.814 128.066 205.607 128.472 205.154 128.708C203.889 129.23 202.136 128.962 200.861 128.607C200.778 128.584 200.694 128.561 200.607 128.537C199.28 128.16 198.015 127.692 196.774 127.096C196.669 127.047 196.564 126.997 196.457 126.946C194.304 125.861 191.895 123.711 191.05 121.454C190.955 120.893 190.976 120.395 191.274 119.899C191.761 119.236 192.454 118.765 193.301 119.124Z" fill="black"/>
</svg>
