<svg width="350" height="350" viewBox="0 0 350 350" fill="none" xmlns="http://www.w3.org/2000/svg">
<path d="M169.371 66.0678C173.751 68.12 176.186 72.702 178.315 76.8254C178.412 77.0127 178.509 77.2 178.61 77.3929C180.67 81.4108 182.71 85.9345 183.51 90.3903C183.72 90.4119 183.931 90.4335 184.148 90.4557C186.87 90.7986 189.333 91.5927 191.908 92.5166C192.748 92.7984 192.748 92.7984 193.611 92.9878C194.257 92.6405 194.819 92.2885 195.415 91.8694C195.779 91.6261 196.143 91.3837 196.508 91.1423C196.792 90.9544 196.792 90.9544 197.08 90.7628C202.222 87.4108 209.535 83.4813 215.834 84.3294C217.299 84.9462 217.848 85.8018 218.501 87.1874C219.828 90.8427 219.082 95.5554 218.63 99.3193C218.594 99.6245 218.559 99.9298 218.522 100.244C218.354 101.562 218.165 102.827 217.771 104.097C217.447 105.177 217.21 106.003 217.277 107.13C218.109 108.35 219.126 109.207 220.249 110.151C221.054 110.875 221.707 111.702 222.364 112.559C222.494 112.728 222.624 112.897 222.757 113.07C229.535 122.025 232.745 132.221 234.793 143.159C235.653 147.723 236.577 151.838 238.923 155.906C239.17 156.349 239.415 156.792 239.66 157.236C240.028 157.902 240.398 158.567 240.771 159.231C244.371 165.647 246.268 172.244 246.229 179.626C246.228 179.837 246.228 180.048 246.227 180.265C246.212 183.384 246.103 186.359 245.273 189.385C245.219 189.587 245.164 189.789 245.109 189.997C241.763 202.092 232.444 211.095 221.831 217.165C220.054 218.165 218.255 219.106 216.412 219.978C218.091 221.244 219.771 222.505 221.48 223.73C224.388 225.842 227.087 228.18 229.688 230.657C229.861 230.821 230.034 230.986 230.212 231.156C234.717 235.477 238.613 240.241 241.232 245.953C245.591 241.574 247.683 236.552 248.773 230.535C249.168 228.436 249.606 226.55 251.226 225.047C252.401 224.274 253.085 224.192 254.509 224.307C257.383 225.119 259.197 227.821 260.624 230.278C265.084 238.295 266.155 247.483 263.744 256.343C263.692 256.538 263.639 256.733 263.585 256.934C261.796 263.343 258.087 268.802 253.643 273.66C253.427 273.897 253.21 274.134 252.988 274.378C245.709 281.982 233.625 288.827 222.953 289.274C222.408 289.264 221.863 289.255 221.318 289.245C221.338 289.509 221.358 289.773 221.379 290.045C221.565 292.623 221.656 295.186 221.665 297.772C221.666 297.961 221.667 298.151 221.668 298.346C221.672 299.348 221.675 300.35 221.676 301.353C221.677 302.166 221.681 302.978 221.688 303.791C221.749 311.563 221.749 311.563 221.241 315.055C221.21 315.273 221.179 315.492 221.147 315.717C220.591 318.957 218.841 322.142 216.292 324.237C210.279 328.333 202.612 329.164 195.541 327.866C190.956 326.76 186.852 324.527 184.303 320.452C182.373 317.007 181.718 313.669 181.778 309.737C181.477 309.787 181.477 309.787 181.17 309.838C180.243 309.992 179.315 310.144 178.387 310.296C178.072 310.349 177.756 310.402 177.432 310.456C173.637 311.073 169.92 311.234 166.083 311.234C165.317 311.234 164.551 311.239 163.785 311.245C158.82 311.261 154.024 310.742 149.164 309.737C149.16 310.02 149.156 310.303 149.152 310.595C149.014 315.333 147.633 319.835 144.348 323.392C139.243 328.124 132.465 328.479 125.88 328.266C123.832 328.143 121.953 327.704 120.014 327.054C119.7 326.949 119.385 326.845 119.061 326.737C115.177 325.28 111.979 322.669 110.22 318.885C108.758 315.176 108.713 311.284 108.72 307.348C108.72 306.988 108.72 306.629 108.719 306.258C108.719 305.499 108.72 304.739 108.721 303.98C108.722 302.848 108.721 301.717 108.719 300.585C108.718 296.841 108.76 293.1 108.885 289.357C108.896 289.025 108.907 288.692 108.918 288.35C109.219 280.218 110.586 272.099 112.222 264.136C112.072 264.194 111.923 264.252 111.769 264.312C106.304 266.424 101.444 267.776 95.7506 265.516C92.3651 263.957 89.6685 261.55 88.1947 258.095C86.5829 253.517 87.4132 249.327 89.3763 245.053C91.8726 239.918 95.5442 235.566 99.5228 231.523C99.8057 231.229 100.088 230.935 100.371 230.641C101.851 229.123 103.385 227.736 105.044 226.417C105.627 225.947 106.198 225.474 106.764 224.985C108.721 223.292 110.732 221.742 112.857 220.266C113.659 219.727 113.659 219.727 114.242 219.112C114.059 219.019 113.876 218.927 113.688 218.831C106.878 215.363 106.878 215.363 104.141 213.34C103.838 213.119 103.535 212.897 103.223 212.669C100.991 211.01 98.9371 209.196 96.9253 207.279C96.6824 207.055 96.4394 206.83 96.1891 206.599C89.2498 199.992 85.3664 191.074 85.011 181.547C84.7862 171.353 88.0354 162.889 93.1306 154.166C95.6829 149.672 96.469 144.556 97.4943 139.555C98.7891 133.275 100.435 127.193 103.563 121.561C103.797 121.121 103.797 121.121 104.036 120.672C105.896 117.303 108.33 114.277 110.815 111.351C110.956 111.184 111.097 111.017 111.243 110.844C111.918 110.062 112.597 109.342 113.39 108.678C114.876 107.476 114.876 107.476 115.477 105.754C115.323 104.747 115.075 103.787 114.819 102.801C113.77 97.3997 112.4 89.4253 115.361 84.4196C116.377 83.3139 117.009 82.9398 118.517 82.742C120.631 82.816 122.658 83.6256 124.632 84.3294C124.908 84.4269 125.183 84.5244 125.467 84.6248C127.483 85.409 129.401 86.4099 131.325 87.3959C131.615 87.5432 131.906 87.6905 132.206 87.8422C133.566 88.5496 134.819 89.2557 136 90.2381C138.001 91.9358 138.001 91.9358 140.505 92.3521C142.414 91.9787 144.202 91.3318 146.02 90.6547C147.248 90.2662 148.46 90.1521 149.742 90.1017C149.776 89.8936 149.81 89.6854 149.845 89.471C150.036 88.6345 150.315 87.9735 150.694 87.2054C150.832 86.9271 150.969 86.6488 151.111 86.3621C151.26 86.0663 151.41 85.7706 151.564 85.4658C151.719 85.1585 151.873 84.8512 152.033 84.5346C162.696 63.657 162.696 63.657 169.371 66.0678Z" fill="#ECECEB"/>
<path d="M169.371 66.0678C173.751 68.12 176.186 72.702 178.315 76.8254C178.412 77.0127 178.509 77.2 178.61 77.3929C180.67 81.4108 182.71 85.9345 183.51 90.3903C183.72 90.4119 183.931 90.4335 184.148 90.4557C186.87 90.7986 189.333 91.5927 191.908 92.5166C192.748 92.7984 192.748 92.7984 193.611 92.9878C194.257 92.6405 194.819 92.2885 195.415 91.8694C195.779 91.6261 196.143 91.3837 196.508 91.1423C196.792 90.9544 196.792 90.9544 197.08 90.7628C202.222 87.4108 209.535 83.4813 215.834 84.3294C217.299 84.9462 217.848 85.8018 218.501 87.1874C219.828 90.8427 219.082 95.5554 218.63 99.3193C218.594 99.6245 218.559 99.9298 218.522 100.244C218.354 101.562 218.165 102.827 217.771 104.097C217.447 105.177 217.21 106.003 217.277 107.13C218.109 108.35 219.126 109.207 220.249 110.151C221.054 110.875 221.707 111.702 222.364 112.559C222.494 112.728 222.624 112.897 222.757 113.07C229.535 122.025 232.745 132.221 234.793 143.159C235.653 147.723 236.577 151.838 238.923 155.906C239.17 156.349 239.415 156.792 239.66 157.236C240.028 157.902 240.398 158.567 240.771 159.231C244.371 165.647 246.268 172.244 246.229 179.626C246.228 179.837 246.228 180.048 246.227 180.265C246.212 183.384 246.103 186.359 245.273 189.385C245.219 189.587 245.164 189.789 245.109 189.997C241.763 202.092 232.444 211.095 221.831 217.165C220.054 218.165 218.255 219.106 216.412 219.978C218.091 221.244 219.771 222.505 221.48 223.73C224.388 225.842 227.087 228.18 229.688 230.657C229.861 230.821 230.034 230.986 230.212 231.156C234.717 235.477 238.613 240.241 241.232 245.953C245.591 241.574 247.683 236.552 248.773 230.535C249.168 228.436 249.606 226.55 251.226 225.047C252.401 224.274 253.085 224.192 254.509 224.307C257.383 225.119 259.197 227.821 260.624 230.278C265.084 238.295 266.155 247.483 263.744 256.343C263.692 256.538 263.639 256.733 263.585 256.934C261.796 263.343 258.087 268.802 253.643 273.66C253.427 273.897 253.21 274.134 252.988 274.378C245.709 281.982 233.625 288.827 222.953 289.274C222.408 289.264 221.863 289.255 221.318 289.245C221.338 289.509 221.358 289.773 221.379 290.045C221.565 292.623 221.656 295.186 221.665 297.772C221.666 297.961 221.667 298.151 221.668 298.346C221.672 299.348 221.675 300.35 221.676 301.353C221.677 302.166 221.681 302.978 221.688 303.791C221.749 311.563 221.749 311.563 221.241 315.055C221.21 315.273 221.179 315.492 221.147 315.717C220.591 318.957 218.841 322.142 216.292 324.237C210.279 328.333 202.612 329.164 195.541 327.866C190.956 326.76 186.852 324.527 184.303 320.452C182.373 317.007 181.718 313.669 181.778 309.737C181.477 309.787 181.477 309.787 181.17 309.838C180.243 309.992 179.315 310.144 178.387 310.296C178.072 310.349 177.756 310.402 177.432 310.456C173.637 311.073 169.92 311.234 166.083 311.234C165.317 311.234 164.551 311.239 163.785 311.245C158.82 311.261 154.024 310.742 149.164 309.737C149.16 310.02 149.156 310.303 149.152 310.595C149.014 315.333 147.633 319.835 144.348 323.392C139.243 328.124 132.465 328.479 125.88 328.266C123.832 328.143 121.953 327.704 120.014 327.054C119.7 326.949 119.385 326.845 119.061 326.737C115.177 325.28 111.979 322.669 110.22 318.885C108.758 315.176 108.713 311.284 108.72 307.348C108.72 306.988 108.72 306.629 108.719 306.258C108.719 305.499 108.72 304.739 108.721 303.98C108.722 302.848 108.721 301.717 108.719 300.585C108.718 296.841 108.76 293.1 108.885 289.357C108.896 289.025 108.907 288.692 108.918 288.35C109.219 280.218 110.586 272.099 112.222 264.136C112.072 264.194 111.923 264.252 111.769 264.312C106.304 266.424 101.444 267.776 95.7506 265.516C92.3651 263.957 89.6685 261.55 88.1947 258.095C86.5829 253.517 87.4132 249.327 89.3763 245.053C91.8726 239.918 95.5442 235.566 99.5228 231.523C99.8057 231.229 100.088 230.935 100.371 230.641C101.851 229.123 103.385 227.736 105.044 226.417C105.627 225.947 106.198 225.474 106.764 224.985C108.721 223.292 110.732 221.742 112.857 220.266C113.659 219.727 113.659 219.727 114.242 219.112C114.059 219.019 113.876 218.927 113.688 218.831C106.878 215.363 106.878 215.363 104.141 213.34C103.838 213.119 103.535 212.897 103.223 212.669C100.991 211.01 98.9371 209.196 96.9253 207.279C96.6824 207.055 96.4394 206.83 96.1891 206.599C89.2498 199.992 85.3664 191.074 85.011 181.547C84.7862 171.353 88.0354 162.889 93.1306 154.166C95.6829 149.672 96.469 144.556 97.4943 139.555C98.7891 133.275 100.435 127.193 103.563 121.561C103.797 121.121 103.797 121.121 104.036 120.672C105.896 117.303 108.33 114.277 110.815 111.351C110.956 111.184 111.097 111.017 111.243 110.844C111.918 110.062 112.597 109.342 113.39 108.678C114.876 107.476 114.876 107.476 115.477 105.754C115.323 104.747 115.075 103.787 114.819 102.801C113.77 97.3997 112.4 89.4253 115.361 84.4196C116.377 83.3139 117.009 82.9398 118.517 82.742C120.631 82.816 122.658 83.6256 124.632 84.3294C124.908 84.4269 125.183 84.5244 125.467 84.6248C127.483 85.409 129.401 86.4099 131.325 87.3959C131.615 87.5432 131.906 87.6905 132.206 87.8422C133.566 88.5496 134.819 89.2557 136 90.2381C138.001 91.9358 138.001 91.9358 140.505 92.3521C142.414 91.9787 144.202 91.3318 146.02 90.6547C147.248 90.2662 148.46 90.1521 149.742 90.1017C149.776 89.8936 149.81 89.6854 149.845 89.471C150.036 88.6345 150.315 87.9735 150.694 87.2054C150.832 86.9271 150.969 86.6488 151.111 86.3621C151.26 86.0663 151.41 85.7706 151.564 85.4658C151.719 85.1585 151.873 84.8512 152.033 84.5346C162.696 63.657 162.696 63.657 169.371 66.0678ZM154.202 95.5624C152.769 96.1927 151.225 96.5241 149.714 96.9222C141.667 99.0601 134.1 102.382 127.23 107.13C127.065 107.242 126.901 107.354 126.731 107.47C124.323 109.117 122.059 110.894 119.864 112.817C119.466 113.166 119.064 113.512 118.663 113.857C115.378 116.732 112.835 119.924 110.49 123.581C110.382 123.749 110.274 123.916 110.163 124.089C106.496 129.885 104.97 136.374 103.571 143.004C103.522 143.239 103.472 143.473 103.42 143.715C103.173 144.884 102.928 146.053 102.691 147.224C101.94 150.868 100.797 154.167 98.9997 157.439C98.7458 157.913 98.4921 158.387 98.2387 158.862C98.0521 159.209 98.0521 159.209 97.8618 159.564C93.235 168.207 89.6224 177.832 92.5228 187.709C92.6411 188.076 92.7617 188.442 92.8847 188.808C92.945 188.991 93.0054 189.174 93.0675 189.362C96.6365 199.866 105.751 207.28 115.405 212.086C118.285 213.466 121.267 214.575 124.267 215.665C127.695 216.924 127.695 216.924 128.384 217.958C128.276 219.022 128.276 219.022 128.096 219.978C127.842 220.057 127.589 220.136 127.328 220.218C116.698 223.938 106.468 232.429 99.8115 241.335C99.6852 241.502 99.559 241.668 99.429 241.84C98.0175 243.707 96.7383 245.605 95.6266 247.667C95.5324 247.841 95.4382 248.015 95.3411 248.194C94.1613 250.463 93.5867 252.778 94.2072 255.293C94.9838 257.35 96.5008 258.866 98.4563 259.854C101.511 260.985 104.44 260.226 107.345 258.966C108.629 258.368 109.861 257.7 111.076 256.972C111.589 256.665 112.111 256.374 112.634 256.085C115.782 253.991 116.409 250.487 117.45 247.04C117.893 245.659 118.219 244.745 119.437 243.933C120.696 243.77 121.255 243.791 122.305 244.528C123.06 245.603 122.987 246.098 122.901 247.396C122.729 248.182 122.542 248.936 122.32 249.706C122.26 249.923 122.2 250.14 122.138 250.363C122.009 250.825 121.88 251.287 121.75 251.748C121.408 252.96 121.078 254.175 120.746 255.39C120.681 255.627 120.616 255.865 120.549 256.11C117.958 265.59 116.572 275.483 115.649 285.259C115.616 285.603 115.616 285.603 115.583 285.953C115.142 290.959 115.054 295.97 115.055 300.992C115.054 302.019 115.049 303.046 115.043 304.073C114.723 311.939 114.723 311.939 117.783 318.875C121.12 321.458 124.851 321.674 128.907 321.678C129.276 321.686 129.644 321.693 130.024 321.7C133.507 321.711 136.971 321.078 139.64 318.684C142.514 315.675 142.679 310.824 143.067 306.898C143.355 304.19 143.355 304.19 144.258 303.099C146.226 302.115 149.118 303.085 151.149 303.496C161.485 305.477 172.421 305.565 182.678 302.943C183.805 302.668 184.96 302.671 186.107 302.81C187.076 303.472 187.327 304.004 187.55 305.119C187.601 305.62 187.641 306.123 187.674 306.625C188.025 313.484 188.025 313.484 191.681 319.063C194.754 321.496 198.464 321.671 202.233 321.66C202.577 321.665 202.92 321.67 203.274 321.675C207.076 321.677 210.255 321.032 213.038 318.323C215.578 314.185 215.346 309.436 215.311 304.758C215.308 304.183 215.306 303.608 215.303 303.033C215.294 301.419 215.277 299.806 215.257 298.192C215.253 297.829 215.249 297.465 215.245 297.09C215.013 281.545 212.521 265.597 208.457 250.61C207.955 248.716 207.571 247.049 207.753 245.087C208.488 244.202 208.933 243.977 210.062 243.789C211.164 243.972 211.574 244.308 212.371 245.087C212.762 246.021 212.762 246.021 213.064 247.119C213.182 247.522 213.301 247.925 213.421 248.327C213.482 248.535 213.543 248.743 213.605 248.958C214.834 253.404 214.834 253.404 218.024 256.505C218.536 256.758 219.061 256.984 219.586 257.209C219.94 257.397 220.291 257.589 220.64 257.784C223.86 259.554 227.161 260.803 230.851 259.876C232.923 259.171 234.285 258.428 235.406 256.506C236.526 254.08 236.333 251.728 235.442 249.254C233.365 244.42 230.124 240.481 226.513 236.718C226.344 236.539 226.175 236.361 226.001 236.177C220.22 230.099 213.48 225.823 206.07 221.995C205.735 221.82 205.4 221.645 205.055 221.465C204.604 221.233 204.604 221.233 204.144 220.996C203.424 220.555 203.424 220.555 202.847 219.689C202.738 218.824 202.738 218.824 202.847 217.958C203.854 216.907 205.26 216.685 206.617 216.316C218.892 212.789 230.23 205.11 236.539 193.829C237.588 191.856 238.314 189.798 238.923 187.653C239.021 187.311 239.119 186.969 239.22 186.616C241.655 176.472 237.691 166.954 232.665 158.323C232.538 158.102 232.411 157.881 232.28 157.653C232.044 157.245 231.805 156.839 231.56 156.437C229.087 152.166 228.518 147.012 227.674 142.236C225.852 131.994 222.272 123.056 214.969 115.5C214.737 115.254 214.506 115.008 214.268 114.755C212.353 112.764 210.252 111.085 208.042 109.439C207.763 109.23 207.763 109.23 207.479 109.017C199.225 102.873 189.973 98.6404 179.944 96.3308C178.397 95.9612 178.397 95.9612 177.905 95.4389C176.971 94.5568 175.484 94.6544 174.256 94.5211C173.767 94.4666 173.767 94.4666 173.267 94.411C170.452 94.1309 167.65 94.0566 164.822 94.0521C164.618 94.0511 164.413 94.0501 164.203 94.049C159.051 94.0275 159.051 94.0275 154.202 95.5624Z" fill="black"/>
<path d="M179.204 234.155C179.892 234.701 180.548 235.265 181.201 235.852C181.483 236.077 181.765 236.303 182.056 236.535C184.725 238.755 186.547 242.05 188.127 245.087C188.223 245.269 188.319 245.45 188.418 245.637C191.579 251.685 193.35 258.474 193.611 265.29C193.62 265.486 193.63 265.681 193.64 265.882C194.004 274.182 191.812 281.794 186.322 288.135C182.469 292.131 177.581 294.3 172.254 295.595C171.835 295.701 171.835 295.701 171.408 295.81C163.995 297.368 155.555 295.847 149.164 291.843C148.145 291.13 147.205 290.363 146.278 289.534C146.038 289.321 145.798 289.108 145.55 288.888C140.298 283.951 137.532 276.557 137.248 269.431C136.996 258.063 140.627 245.796 148.52 237.373C156.767 228.996 169.392 227.402 179.204 234.155Z" fill="#F2D3A3"/>
<path d="M179.204 234.155C179.892 234.701 180.548 235.265 181.201 235.852C181.483 236.077 181.765 236.303 182.056 236.535C184.725 238.755 186.547 242.05 188.127 245.087C188.223 245.269 188.319 245.45 188.418 245.637C191.579 251.685 193.35 258.474 193.611 265.29C193.62 265.486 193.63 265.681 193.64 265.882C194.004 274.182 191.812 281.794 186.322 288.135C182.469 292.131 177.581 294.3 172.254 295.595C171.835 295.701 171.835 295.701 171.408 295.81C163.995 297.368 155.555 295.847 149.164 291.843C148.145 291.13 147.205 290.363 146.278 289.534C146.038 289.321 145.798 289.108 145.55 288.888C140.298 283.951 137.532 276.557 137.248 269.431C136.996 258.063 140.627 245.796 148.52 237.373C156.767 228.996 169.392 227.402 179.204 234.155ZM152.159 243.103C145.984 251.042 143.085 261.467 144.034 271.45C144.71 276.531 146.983 281.589 150.986 284.889C156.622 289.008 163.554 290.418 170.423 289.357C175.422 288.396 180.17 285.801 183.256 281.704C187.45 275.295 187.907 267.244 186.514 259.856C186.388 259.26 186.251 258.667 186.107 258.075C186.059 257.874 186.011 257.674 185.962 257.467C184.483 251.493 181.819 245.729 177.449 241.335C177.279 241.155 177.109 240.975 176.933 240.79C173.683 237.618 169.322 236.319 164.899 236.321C159.769 236.454 155.422 239.283 152.159 243.103Z" fill="black"/>
<path d="M254.797 233.543C254.988 233.543 255.178 233.543 255.374 233.543C255.703 234.444 256.026 235.346 256.349 236.249C256.44 236.5 256.532 236.751 256.626 237.01C259.188 244.216 258.608 252.505 255.41 259.422C254.955 260.343 254.456 261.233 253.931 262.116C253.75 262.423 253.569 262.73 253.382 263.046C247.261 272.748 236.462 279.241 225.461 281.82C225.142 281.89 224.822 281.959 224.493 282.03C224.143 282.116 224.143 282.116 223.786 282.204C222.763 282.364 221.776 282.336 220.741 282.319C220.112 278.984 219.616 275.638 219.151 272.276C218.843 270.086 218.476 267.931 217.975 265.778C217.857 265.015 217.889 264.567 218.143 263.847C218.35 263.942 218.556 264.036 218.769 264.133C221.995 265.547 224.927 266.228 228.443 266.265C228.693 266.269 228.944 266.273 229.201 266.277C233.157 266.248 236.339 264.54 239.201 261.885C241.049 259.892 242.121 257.422 242.549 254.756C243.103 253.407 243.971 252.766 245.067 251.831C250.386 247.2 253.762 240.463 254.797 233.543Z" fill="#3A9592"/>
<path d="M123.117 162.039C126.262 164.155 128.09 167.235 128.961 170.914C129.346 175.217 128.452 178.702 125.787 182.17C123.891 184.347 120.585 186.287 117.677 186.554C113.701 186.697 110.589 186.414 107.315 183.901C107.083 183.746 107.083 183.746 106.845 183.587C105.586 182.66 104.823 181.51 104.05 180.167C103.953 179.998 103.856 179.83 103.755 179.656C102.09 176.628 101.933 173.031 102.597 169.673C103.922 165.738 106.318 162.983 109.985 161.137C114.403 158.986 118.974 159.589 123.117 162.039Z" fill="#F4A99C"/>
<path d="M223.519 162.342C226.274 164.313 228.121 167.219 229.025 170.494C229.531 174.679 228.818 178.478 226.224 181.881C223.817 184.529 220.721 186.254 217.121 186.596C213.427 186.635 210.701 185.834 207.753 183.613C207.378 183.363 207.378 183.363 206.996 183.108C204.517 180.76 203.082 177.575 202.778 174.188C202.676 170.268 203.993 166.656 206.671 163.77C207.862 162.658 209.194 161.844 210.639 161.101C210.831 161.002 211.022 160.903 211.219 160.801C215.136 159.157 220.077 160.121 223.519 162.342Z" fill="#F4A99C"/>
<path d="M138.197 182.458C139.146 183.207 139.765 184.237 140.437 185.227C144.528 191.135 151.252 193.878 158.112 195.157C167.451 196.767 178.228 195.912 186.223 190.463C187.078 189.842 187.896 189.198 188.705 188.519C188.896 188.36 189.088 188.201 189.285 188.038C190.686 186.763 191.564 185.186 192.487 183.553C193.03 182.753 193.286 182.463 194.188 182.17C195.172 182.065 195.781 182.111 196.696 182.494C197.557 183.192 197.872 183.715 198.229 184.767C198.279 187.778 196.295 190.028 194.322 192.126C186.983 199.582 176.997 202.557 166.68 202.715C155.58 202.679 145.423 199.789 137.259 192.018C135.298 190.02 133.45 187.697 133.477 184.787C133.662 183.71 134.242 183.202 135.022 182.458C136.146 182.083 137.082 182.087 138.197 182.458Z" fill="black"/>
<path d="M167.636 74.5166C171.497 76.3172 173.651 83.8922 175.011 87.6119C175.892 90.0546 176.774 92.4991 177.449 95.0082C175.928 95.0351 174.52 94.94 173.011 94.7196C170.348 94.3836 167.682 94.3653 165.002 94.3588C164.796 94.3574 164.59 94.3559 164.378 94.3545C161.38 94.3373 158.479 94.5708 155.514 95.0082C155.742 93.7288 156.186 92.6765 156.777 91.5268C156.879 91.3269 156.98 91.127 157.085 90.921C157.424 90.2614 157.767 89.6042 158.112 88.9473C158.229 88.7225 158.346 88.4977 158.466 88.2661C159.965 85.4045 161.579 82.6413 163.361 79.9462C163.522 79.7013 163.683 79.4564 163.848 79.2041C164.985 77.5178 166.251 76.0048 167.636 74.5166Z" fill="#3A9592"/>
<path d="M204.921 144.523C206.798 145.594 207.974 147.233 208.707 149.247C209.297 151.851 209.314 154.891 208.136 157.325C207.029 159.062 205.712 160.216 203.713 160.812C201.885 161.015 200.602 160.731 199.095 159.658C197.175 157.922 196.137 155.846 195.851 153.263C195.765 150.554 196.424 148.162 198.193 146.075C200.139 144.096 202.3 143.361 204.921 144.523Z" fill="black"/>
<path d="M132.194 144.318C134.288 145.491 135.668 147.417 136.33 149.706C136.904 152.74 136.408 155.553 134.806 158.179C133.996 159.292 133.207 160.153 131.848 160.524C129.79 160.797 127.971 160.803 126.263 159.53C124.153 157.536 123.505 155.233 123.388 152.388C123.414 149.927 124.286 147.273 126.075 145.516C127.912 144.084 129.951 143.45 132.194 144.318Z" fill="black"/>
<path d="M212.371 91.5447C212.519 94.1829 212.308 96.6313 211.83 99.229C211.78 99.5025 211.73 99.776 211.678 100.058C211.434 101.316 211.186 102.498 210.639 103.666C208.633 102.407 206.652 101.115 204.692 99.7855C203.527 99.0018 202.341 98.2893 201.115 97.6056C202.116 96.4774 203.269 95.7901 204.56 95.0441C204.885 94.855 204.885 94.855 205.216 94.662C210.641 91.5447 210.641 91.5447 212.371 91.5447Z" fill="#3A9592"/>
<path d="M121.169 90.9675C122.934 91.5034 124.545 92.1639 126.166 93.0419C126.48 93.2102 126.48 93.2102 126.801 93.3818C128.658 94.3904 130.41 95.5194 132.136 96.7398C131.005 97.708 129.831 98.4024 128.529 99.1028C126.603 100.157 124.814 101.324 123.038 102.612C122.323 103.089 122.323 103.089 121.746 103.089C120.992 99.0705 121.111 95.0409 121.169 90.9675Z" fill="#3A9592"/>
<path d="M152.916 169.182C154.535 169.924 155.803 170.898 156.498 172.564C156.83 173.848 156.877 175.089 156.668 176.397C156.149 177.264 155.831 177.682 154.937 178.129C153.472 178.369 152.337 178.269 151.095 177.426C149.738 176.275 149.072 174.922 148.768 173.181C148.678 171.718 149.111 170.863 150.03 169.759C151.14 169.02 151.595 169.012 152.916 169.182Z" fill="black"/>
<path d="M181.489 169.182C182.334 169.706 183.058 170.299 183.51 171.202C183.738 173.137 183.637 174.608 182.48 176.208C181.333 177.534 180.388 178.078 178.639 178.219C177.699 178.209 177.443 178.125 176.601 177.606C175.626 176.572 175.616 175.561 175.638 174.206C175.86 172.257 176.931 171.002 178.406 169.796C179.405 169.127 180.32 169.044 181.489 169.182Z" fill="black"/>
<path d="M153.518 136.975C155.939 139.106 157.82 142.436 158.176 145.686C158.566 152.071 156.081 157.465 151.928 162.232C151.509 162.694 151.082 163.148 150.652 163.6C150.46 163.823 150.27 164.047 150.081 164.272C149.338 165.13 148.522 165.918 147.713 166.712C147.169 167.249 146.643 167.79 146.147 168.372C145.39 169.242 144.584 170.062 143.772 170.881C143.613 171.041 143.455 171.201 143.292 171.366C142.959 171.701 142.626 172.036 142.293 172.37C141.868 172.797 141.445 173.226 141.023 173.656C140.616 174.069 140.206 174.479 139.797 174.89C139.647 175.043 139.496 175.197 139.342 175.355C138.371 176.322 137.637 176.921 136.253 177.126C134.897 176.939 133.843 176.045 132.753 175.267C131.617 174.485 130.439 173.768 129.271 173.035C128.299 172.423 127.33 171.806 126.362 171.188C125.527 170.655 124.69 170.124 123.849 169.6C120.806 167.697 117.837 165.668 115.181 163.242C115.078 163.148 114.975 163.054 114.869 162.957C111.705 160.03 109.213 156.278 109.007 151.852C109 151.454 108.999 151.056 109.001 150.657C109.002 150.447 109.003 150.236 109.004 150.019C109.075 146.552 110.365 143.626 112.673 141.028C112.775 140.914 112.876 140.8 112.98 140.683C115.095 138.444 118.101 136.997 121.176 136.865C125.345 136.77 128.711 137.88 131.842 140.67C132.139 140.91 132.437 141.15 132.737 141.386C132.852 141.22 132.967 141.053 133.085 140.882C135.452 137.481 138.661 134.871 142.844 134.12C146.719 133.647 150.422 134.569 153.518 136.975Z" fill="#FF6060"/>
<path d="M194.363 136.729C195.659 137.733 196.714 138.863 197.638 140.221C197.958 140.688 198.304 141.127 198.662 141.566C198.75 141.468 198.837 141.37 198.927 141.27C201.213 138.838 204.5 136.971 207.886 136.854C211.643 136.816 214.617 137.593 217.472 140.132C217.65 140.285 217.65 140.285 217.831 140.441C220.157 142.584 221.78 145.915 221.985 149.069C221.999 149.614 222 150.157 221.996 150.702C221.997 150.884 221.999 151.066 222 151.253C221.988 155.797 219.685 159.496 216.633 162.705C213.929 165.323 210.628 167.44 207.462 169.449C206.814 169.862 206.17 170.281 205.526 170.699C205.27 170.865 205.014 171.03 204.757 171.196C204.318 171.48 203.878 171.764 203.439 172.049C202.451 172.688 201.459 173.318 200.461 173.94C200.27 174.059 200.079 174.178 199.882 174.3C199.502 174.537 199.122 174.773 198.741 175.009C197.984 175.479 197.237 175.946 196.522 176.478C196.032 176.818 195.762 176.987 195.18 177.047C195.059 177.064 194.937 177.081 194.811 177.098C193.539 176.922 192.601 176.095 191.735 175.208C191.624 175.099 191.514 174.989 191.401 174.876C191.041 174.516 190.683 174.154 190.326 173.792C190.074 173.539 189.822 173.287 189.57 173.034C189.043 172.506 188.517 171.976 187.992 171.446C187.322 170.769 186.65 170.094 185.978 169.419C185.333 168.773 184.689 168.125 184.045 167.477C183.923 167.355 183.802 167.233 183.677 167.107C182.485 165.908 181.303 164.713 180.211 163.421C179.961 163.152 179.711 162.883 179.46 162.615C177.621 160.566 176.078 158.354 174.836 155.897C174.777 155.782 174.718 155.666 174.658 155.547C172.801 151.838 172.205 147.553 173.403 143.536C174.029 141.731 174.88 140.185 176.09 138.699C176.176 138.584 176.262 138.469 176.351 138.351C180.689 132.79 189.009 133.053 194.363 136.729Z" fill="#FF6060"/>
<path d="M194.363 136.729C195.659 137.733 196.714 138.863 197.638 140.221C197.958 140.688 198.304 141.127 198.662 141.566C198.75 141.468 198.837 141.37 198.927 141.27C201.213 138.838 204.5 136.971 207.886 136.854C211.643 136.816 214.617 137.593 217.472 140.132C217.65 140.285 217.65 140.285 217.831 140.441C220.157 142.584 221.78 145.915 221.985 149.069C221.999 149.614 222 150.157 221.996 150.702C221.997 150.884 221.999 151.066 222 151.253C221.988 155.797 219.685 159.496 216.633 162.705C213.929 165.323 210.628 167.44 207.462 169.449C206.814 169.862 206.17 170.281 205.526 170.699C205.27 170.865 205.014 171.03 204.757 171.196C204.318 171.48 203.878 171.764 203.439 172.049C202.451 172.688 201.459 173.318 200.461 173.94C200.27 174.059 200.079 174.178 199.882 174.3C199.502 174.537 199.122 174.773 198.741 175.009C197.984 175.479 197.237 175.946 196.522 176.478C196.032 176.818 195.762 176.987 195.18 177.047C195.059 177.064 194.937 177.081 194.811 177.098C193.539 176.922 192.601 176.095 191.735 175.208C191.624 175.099 191.514 174.989 191.401 174.876C191.041 174.516 190.683 174.154 190.326 173.792C190.074 173.539 189.822 173.287 189.57 173.034C189.043 172.506 188.517 171.976 187.992 171.446C187.322 170.769 186.65 170.094 185.978 169.419C185.333 168.773 184.689 168.125 184.045 167.477C183.923 167.355 183.802 167.233 183.677 167.107C182.485 165.908 181.303 164.713 180.211 163.421C179.961 163.152 179.711 162.883 179.46 162.615C177.621 160.566 176.078 158.354 174.836 155.897C174.777 155.782 174.718 155.666 174.658 155.547C172.801 151.838 172.205 147.553 173.403 143.536C174.029 141.731 174.88 140.185 176.09 138.699C176.176 138.584 176.262 138.469 176.351 138.351C180.689 132.79 189.009 133.053 194.363 136.729ZM180.569 140.849C180.455 140.939 180.34 141.028 180.222 141.121C178.932 142.258 177.82 144.402 177.664 146.113C177.406 151.971 179.968 156.001 183.793 160.197C184.106 160.522 184.423 160.839 184.748 161.151C185.044 161.447 185.312 161.754 185.582 162.073C186.374 162.983 187.224 163.833 188.078 164.683C188.35 164.955 188.621 165.227 188.892 165.499C189.746 166.353 190.609 167.183 191.526 167.969C192.1 168.474 192.63 169.022 193.165 169.568C193.38 169.788 193.596 170.007 193.812 170.226C193.952 170.369 193.952 170.369 194.094 170.515C194.519 170.912 194.779 171.125 195.371 171.121C196.219 170.874 196.861 170.421 197.588 169.926C197.908 169.713 198.228 169.5 198.548 169.287C198.714 169.177 198.88 169.066 199.05 168.952C199.88 168.403 200.721 167.872 201.562 167.34C201.894 167.129 202.227 166.918 202.559 166.707C202.718 166.605 202.877 166.504 203.041 166.4C211.94 161.197 211.94 161.197 217.17 152.751C217.668 150.119 217.077 147.428 215.58 145.227C214.276 143.515 212.606 142.218 210.486 141.745C208.65 141.634 206.959 141.588 205.291 142.461C205.052 142.586 205.052 142.586 204.809 142.713C202.755 143.906 201.197 145.547 200.132 147.659C199.674 148.522 199.228 148.803 198.304 149.09C197.487 149.221 196.704 149.139 195.975 148.731C195.592 148.157 195.569 147.932 195.505 147.265C195.145 144.962 193.881 142.975 192.213 141.386C192.095 141.269 191.977 141.152 191.856 141.031C189.929 139.217 187.731 138.768 185.169 138.823C183.337 138.911 181.974 139.721 180.569 140.849Z" fill="black"/>
<path d="M153.518 136.975C155.939 139.106 157.82 142.436 158.176 145.686C158.566 152.071 156.081 157.465 151.928 162.232C151.509 162.694 151.082 163.148 150.652 163.6C150.46 163.823 150.27 164.047 150.081 164.272C149.338 165.13 148.522 165.918 147.713 166.712C147.169 167.249 146.643 167.79 146.147 168.372C145.39 169.242 144.584 170.062 143.772 170.881C143.613 171.041 143.455 171.201 143.292 171.366C142.959 171.701 142.626 172.036 142.293 172.37C141.868 172.797 141.445 173.226 141.023 173.656C140.616 174.069 140.206 174.479 139.797 174.89C139.647 175.043 139.496 175.197 139.342 175.355C138.371 176.322 137.637 176.921 136.253 177.126C134.897 176.939 133.843 176.045 132.753 175.267C131.617 174.485 130.439 173.768 129.271 173.035C128.299 172.423 127.33 171.806 126.362 171.188C125.527 170.655 124.69 170.124 123.849 169.6C120.806 167.697 117.837 165.668 115.181 163.242C115.078 163.148 114.975 163.054 114.869 162.957C111.705 160.03 109.213 156.278 109.007 151.852C109 151.454 108.999 151.056 109.001 150.657C109.002 150.447 109.003 150.236 109.004 150.019C109.075 146.552 110.365 143.626 112.673 141.028C112.775 140.914 112.876 140.8 112.98 140.683C115.095 138.444 118.101 136.997 121.176 136.865C125.345 136.77 128.711 137.88 131.842 140.67C132.139 140.91 132.437 141.15 132.737 141.386C132.852 141.22 132.967 141.053 133.085 140.882C135.452 137.481 138.661 134.871 142.844 134.12C146.719 133.647 150.422 134.569 153.518 136.975ZM137.932 142.323C136.662 143.875 135.806 145.62 135.665 147.63C135.596 148.06 135.471 148.359 135.245 148.731C134.462 149.221 133.453 149.22 132.558 149.09C131.729 148.726 131.477 148.296 131.103 147.489C129.699 144.748 127.333 142.865 124.468 141.777C122.314 141.149 120.13 141.689 118.204 142.741C115.994 144.183 114.455 146.167 113.849 148.754C113.807 149.044 113.774 149.335 113.748 149.627C113.734 149.788 113.719 149.949 113.704 150.114C113.571 153.111 114.706 155.943 116.704 158.148C120.258 161.873 125.04 164.494 129.364 167.22C130.241 167.775 131.116 168.335 131.99 168.895C132.281 169.081 132.572 169.267 132.864 169.453C133.042 169.567 133.22 169.681 133.404 169.799C133.57 169.905 133.737 170.011 133.908 170.12C134.267 170.354 134.613 170.597 134.96 170.849C135.499 171.169 135.704 171.212 136.32 171.124C136.799 170.796 136.799 170.796 137.279 170.31C137.377 170.217 137.474 170.123 137.574 170.027C137.936 169.679 138.293 169.327 138.649 168.975C138.798 168.828 138.948 168.681 139.101 168.53C140.259 167.389 141.408 166.241 142.556 165.09C142.932 164.714 143.308 164.339 143.684 163.964C144.051 163.598 144.417 163.231 144.783 162.864C145.039 162.609 145.295 162.353 145.551 162.098C149.708 157.926 153.391 153.316 153.395 147.19C153.361 144.714 152.458 142.752 150.82 140.894C149.202 139.378 146.869 138.598 144.68 138.655C141.898 138.912 139.771 140.279 137.932 142.323Z" fill="black"/>
</svg>
