<svg width="350" height="350" viewBox="0 0 350 350" fill="none" xmlns="http://www.w3.org/2000/svg">
<path d="M169.371 66.0678C173.751 68.12 176.186 72.702 178.315 76.8254C178.412 77.0127 178.509 77.2 178.61 77.3929C180.67 81.4108 182.71 85.9345 183.51 90.3903C183.72 90.4119 183.931 90.4335 184.148 90.4557C186.87 90.7986 189.333 91.5927 191.908 92.5166C192.748 92.7984 192.748 92.7984 193.611 92.9878C194.257 92.6405 194.819 92.2885 195.415 91.8694C195.779 91.6261 196.143 91.3837 196.508 91.1423C196.792 90.9544 196.792 90.9544 197.08 90.7628C202.222 87.4108 209.535 83.4813 215.834 84.3294C217.299 84.9462 217.848 85.8018 218.501 87.1874C219.828 90.8427 219.082 95.5554 218.63 99.3193C218.594 99.6245 218.559 99.9298 218.522 100.244C218.354 101.562 218.165 102.827 217.771 104.097C217.447 105.177 217.21 106.003 217.277 107.13C218.109 108.35 219.126 109.207 220.249 110.151C221.054 110.875 221.707 111.702 222.364 112.559C222.494 112.728 222.624 112.897 222.757 113.07C229.535 122.025 232.745 132.221 234.793 143.159C235.653 147.723 236.577 151.838 238.923 155.906C239.17 156.349 239.415 156.792 239.66 157.236C240.028 157.902 240.398 158.567 240.771 159.231C244.371 165.647 246.268 172.244 246.229 179.626C246.228 179.837 246.228 180.048 246.227 180.265C246.212 183.384 246.103 186.359 245.273 189.385C245.219 189.587 245.164 189.789 245.109 189.997C241.763 202.092 232.444 211.095 221.831 217.165C220.054 218.165 218.255 219.106 216.412 219.978C218.091 221.244 219.771 222.505 221.48 223.73C224.388 225.842 227.087 228.18 229.688 230.657C229.861 230.821 230.034 230.986 230.212 231.156C234.717 235.477 238.613 240.241 241.232 245.953C245.591 241.574 247.683 236.552 248.773 230.535C249.168 228.436 249.606 226.55 251.226 225.047C252.401 224.274 253.085 224.192 254.509 224.307C257.383 225.119 259.197 227.821 260.624 230.278C265.084 238.295 266.155 247.483 263.744 256.343C263.692 256.538 263.639 256.733 263.585 256.934C261.796 263.343 258.087 268.802 253.643 273.66C253.427 273.897 253.21 274.134 252.988 274.378C245.709 281.982 233.625 288.827 222.953 289.274C222.408 289.264 221.863 289.255 221.318 289.245C221.338 289.509 221.358 289.773 221.379 290.045C221.565 292.623 221.656 295.186 221.665 297.772C221.666 297.961 221.667 298.151 221.668 298.346C221.672 299.348 221.675 300.35 221.676 301.353C221.677 302.166 221.681 302.978 221.688 303.791C221.749 311.562 221.749 311.562 221.241 315.055C221.21 315.273 221.179 315.492 221.147 315.717C220.591 318.957 218.841 322.142 216.292 324.237C210.279 328.333 202.612 329.164 195.541 327.866C190.956 326.759 186.852 324.527 184.303 320.452C182.373 317.007 181.718 313.669 181.778 309.737C181.477 309.787 181.477 309.787 181.17 309.838C180.243 309.992 179.315 310.144 178.387 310.296C178.072 310.349 177.756 310.402 177.432 310.456C173.637 311.073 169.92 311.234 166.083 311.234C165.317 311.234 164.551 311.239 163.785 311.245C158.82 311.261 154.024 310.742 149.164 309.737C149.16 310.02 149.156 310.303 149.152 310.595C149.014 315.333 147.633 319.835 144.348 323.392C139.243 328.124 132.465 328.479 125.88 328.266C123.832 328.143 121.953 327.704 120.014 327.054C119.7 326.949 119.385 326.845 119.061 326.737C115.177 325.28 111.979 322.669 110.22 318.885C108.758 315.176 108.713 311.284 108.72 307.348C108.72 306.988 108.72 306.629 108.719 306.258C108.719 305.499 108.72 304.739 108.721 303.98C108.722 302.848 108.721 301.717 108.719 300.585C108.718 296.84 108.76 293.1 108.885 289.357C108.896 289.025 108.907 288.692 108.918 288.35C109.219 280.218 110.586 272.099 112.222 264.136C112.072 264.194 111.923 264.252 111.769 264.312C106.304 266.424 101.444 267.776 95.7506 265.516C92.3651 263.957 89.6685 261.55 88.1947 258.095C86.5829 253.517 87.4132 249.327 89.3763 245.053C91.8726 239.918 95.5442 235.566 99.5228 231.523C99.8057 231.229 100.088 230.935 100.371 230.641C101.851 229.123 103.385 227.736 105.044 226.417C105.627 225.947 106.198 225.474 106.764 224.985C108.721 223.292 110.732 221.742 112.857 220.266C113.659 219.727 113.659 219.727 114.242 219.112C114.059 219.019 113.876 218.927 113.688 218.831C106.878 215.363 106.878 215.363 104.141 213.34C103.838 213.119 103.535 212.897 103.223 212.669C100.991 211.01 98.9371 209.196 96.9253 207.279C96.6824 207.055 96.4394 206.83 96.1891 206.599C89.2498 199.992 85.3664 191.074 85.011 181.547C84.7862 171.353 88.0354 162.889 93.1306 154.166C95.6829 149.672 96.469 144.556 97.4943 139.555C98.7891 133.275 100.435 127.193 103.563 121.561C103.797 121.121 103.797 121.121 104.036 120.672C105.896 117.303 108.33 114.277 110.815 111.351C110.956 111.184 111.097 111.017 111.243 110.844C111.918 110.062 112.597 109.342 113.39 108.678C114.876 107.476 114.876 107.476 115.477 105.754C115.323 104.747 115.075 103.787 114.819 102.801C113.77 97.3997 112.4 89.4253 115.361 84.4196C116.377 83.3139 117.009 82.9398 118.517 82.742C120.631 82.816 122.658 83.6256 124.632 84.3294C124.908 84.4269 125.183 84.5244 125.467 84.6248C127.483 85.409 129.401 86.4099 131.325 87.3959C131.615 87.5432 131.906 87.6905 132.206 87.8422C133.566 88.5496 134.819 89.2557 136 90.2381C138.001 91.9358 138.001 91.9358 140.505 92.3521C142.414 91.9787 144.202 91.3318 146.02 90.6547C147.248 90.2662 148.46 90.1521 149.742 90.1017C149.776 89.8936 149.81 89.6854 149.845 89.471C150.036 88.6345 150.315 87.9735 150.694 87.2054C150.832 86.9271 150.969 86.6488 151.111 86.3621C151.26 86.0663 151.41 85.7706 151.564 85.4658C151.719 85.1585 151.873 84.8512 152.033 84.5346C162.696 63.657 162.696 63.657 169.371 66.0678Z" fill="#ECECEB"/>
<path d="M169.371 66.0678C173.751 68.12 176.186 72.702 178.315 76.8254C178.412 77.0127 178.509 77.2 178.61 77.3929C180.67 81.4108 182.71 85.9345 183.51 90.3903C183.72 90.4119 183.931 90.4335 184.148 90.4557C186.87 90.7986 189.333 91.5927 191.908 92.5166C192.748 92.7984 192.748 92.7984 193.611 92.9878C194.257 92.6405 194.819 92.2885 195.415 91.8694C195.779 91.6261 196.143 91.3837 196.508 91.1423C196.792 90.9544 196.792 90.9544 197.08 90.7628C202.222 87.4108 209.535 83.4813 215.834 84.3294C217.299 84.9462 217.848 85.8018 218.501 87.1874C219.828 90.8427 219.082 95.5554 218.63 99.3193C218.594 99.6245 218.559 99.9298 218.522 100.244C218.354 101.562 218.165 102.827 217.771 104.097C217.447 105.177 217.21 106.003 217.277 107.13C218.109 108.35 219.126 109.207 220.249 110.151C221.054 110.875 221.707 111.702 222.364 112.559C222.494 112.728 222.624 112.897 222.757 113.07C229.535 122.025 232.745 132.221 234.793 143.159C235.653 147.723 236.577 151.838 238.923 155.906C239.17 156.349 239.415 156.792 239.66 157.236C240.028 157.902 240.398 158.567 240.771 159.231C244.371 165.647 246.268 172.244 246.229 179.626C246.228 179.837 246.228 180.048 246.227 180.265C246.212 183.384 246.103 186.359 245.273 189.385C245.219 189.587 245.164 189.789 245.109 189.997C241.763 202.092 232.444 211.095 221.831 217.165C220.054 218.165 218.255 219.106 216.412 219.978C218.091 221.244 219.771 222.505 221.48 223.73C224.388 225.842 227.087 228.18 229.688 230.657C229.861 230.821 230.034 230.986 230.212 231.156C234.717 235.477 238.613 240.241 241.232 245.953C245.591 241.574 247.683 236.552 248.773 230.535C249.168 228.436 249.606 226.55 251.226 225.047C252.401 224.274 253.085 224.192 254.509 224.307C257.383 225.119 259.197 227.821 260.624 230.278C265.084 238.295 266.155 247.483 263.744 256.343C263.692 256.538 263.639 256.733 263.585 256.934C261.796 263.343 258.087 268.802 253.643 273.66C253.427 273.897 253.21 274.134 252.988 274.378C245.709 281.982 233.625 288.827 222.953 289.274C222.408 289.264 221.863 289.255 221.318 289.245C221.338 289.509 221.358 289.773 221.379 290.045C221.565 292.623 221.656 295.186 221.665 297.772C221.666 297.961 221.667 298.151 221.668 298.346C221.672 299.348 221.675 300.35 221.676 301.353C221.677 302.166 221.681 302.978 221.688 303.791C221.749 311.562 221.749 311.562 221.241 315.055C221.21 315.273 221.179 315.492 221.147 315.717C220.591 318.957 218.841 322.142 216.292 324.237C210.279 328.333 202.612 329.164 195.541 327.866C190.956 326.759 186.852 324.527 184.303 320.452C182.373 317.007 181.718 313.669 181.778 309.737C181.477 309.787 181.477 309.787 181.17 309.838C180.243 309.992 179.315 310.144 178.387 310.296C178.072 310.349 177.756 310.402 177.432 310.456C173.637 311.073 169.92 311.234 166.083 311.234C165.317 311.234 164.551 311.239 163.785 311.245C158.82 311.261 154.024 310.742 149.164 309.737C149.16 310.02 149.156 310.303 149.152 310.595C149.014 315.333 147.633 319.835 144.348 323.392C139.243 328.124 132.465 328.479 125.88 328.266C123.832 328.143 121.953 327.704 120.014 327.054C119.7 326.949 119.385 326.845 119.061 326.737C115.177 325.28 111.979 322.669 110.22 318.885C108.758 315.176 108.713 311.284 108.72 307.348C108.72 306.988 108.72 306.629 108.719 306.258C108.719 305.499 108.72 304.739 108.721 303.98C108.722 302.848 108.721 301.717 108.719 300.585C108.718 296.84 108.76 293.1 108.885 289.357C108.896 289.025 108.907 288.692 108.918 288.35C109.219 280.218 110.586 272.099 112.222 264.136C112.072 264.194 111.923 264.252 111.769 264.312C106.304 266.424 101.444 267.776 95.7506 265.516C92.3651 263.957 89.6685 261.55 88.1947 258.095C86.5829 253.517 87.4132 249.327 89.3763 245.053C91.8726 239.918 95.5442 235.566 99.5228 231.523C99.8057 231.229 100.088 230.935 100.371 230.641C101.851 229.123 103.385 227.736 105.044 226.417C105.627 225.947 106.198 225.474 106.764 224.985C108.721 223.292 110.732 221.742 112.857 220.266C113.659 219.727 113.659 219.727 114.242 219.112C114.059 219.019 113.876 218.927 113.688 218.831C106.878 215.363 106.878 215.363 104.141 213.34C103.838 213.119 103.535 212.897 103.223 212.669C100.991 211.01 98.9371 209.196 96.9253 207.279C96.6824 207.055 96.4394 206.83 96.1891 206.599C89.2498 199.992 85.3664 191.074 85.011 181.547C84.7862 171.353 88.0354 162.889 93.1306 154.166C95.6829 149.672 96.469 144.556 97.4943 139.555C98.7891 133.275 100.435 127.193 103.563 121.561C103.797 121.121 103.797 121.121 104.036 120.672C105.896 117.303 108.33 114.277 110.815 111.351C110.956 111.184 111.097 111.017 111.243 110.844C111.918 110.062 112.597 109.342 113.39 108.678C114.876 107.476 114.876 107.476 115.477 105.754C115.323 104.747 115.075 103.787 114.819 102.801C113.77 97.3997 112.4 89.4253 115.361 84.4196C116.377 83.3139 117.009 82.9398 118.517 82.742C120.631 82.816 122.658 83.6256 124.632 84.3294C124.908 84.4269 125.183 84.5244 125.467 84.6248C127.483 85.409 129.401 86.4099 131.325 87.3959C131.615 87.5432 131.906 87.6905 132.206 87.8422C133.566 88.5496 134.819 89.2557 136 90.2381C138.001 91.9358 138.001 91.9358 140.505 92.3521C142.414 91.9787 144.202 91.3318 146.02 90.6547C147.248 90.2662 148.46 90.1521 149.742 90.1017C149.776 89.8936 149.81 89.6854 149.845 89.471C150.036 88.6345 150.315 87.9735 150.694 87.2054C150.832 86.9271 150.969 86.6488 151.111 86.3621C151.26 86.0663 151.41 85.7706 151.564 85.4658C151.719 85.1585 151.873 84.8512 152.033 84.5346C162.696 63.657 162.696 63.657 169.371 66.0678ZM154.202 95.5624C152.769 96.1927 151.225 96.5241 149.714 96.9222C141.667 99.0601 134.1 102.382 127.23 107.13C127.065 107.242 126.901 107.354 126.731 107.47C124.323 109.117 122.059 110.894 119.864 112.817C119.466 113.166 119.064 113.512 118.663 113.857C115.378 116.732 112.835 119.924 110.49 123.581C110.382 123.749 110.274 123.916 110.163 124.089C106.496 129.885 104.97 136.374 103.571 143.004C103.522 143.239 103.472 143.473 103.42 143.715C103.173 144.884 102.928 146.053 102.691 147.224C101.94 150.868 100.797 154.167 98.9997 157.439C98.7458 157.913 98.4921 158.387 98.2387 158.862C98.0521 159.209 98.0521 159.209 97.8618 159.564C93.235 168.207 89.6224 177.832 92.5228 187.709C92.6411 188.076 92.7617 188.442 92.8847 188.808C92.945 188.991 93.0054 189.174 93.0675 189.362C96.6365 199.866 105.751 207.28 115.405 212.086C118.285 213.466 121.267 214.575 124.267 215.665C127.695 216.924 127.695 216.924 128.384 217.958C128.276 219.022 128.276 219.022 128.096 219.978C127.842 220.057 127.589 220.136 127.328 220.218C116.698 223.938 106.468 232.429 99.8115 241.335C99.6852 241.502 99.559 241.668 99.429 241.84C98.0175 243.707 96.7383 245.605 95.6266 247.667C95.5324 247.841 95.4382 248.015 95.3411 248.194C94.1613 250.463 93.5867 252.778 94.2072 255.293C94.9838 257.35 96.5008 258.866 98.4563 259.854C101.511 260.985 104.44 260.226 107.345 258.966C108.629 258.368 109.861 257.7 111.076 256.972C111.589 256.665 112.111 256.374 112.634 256.085C115.782 253.991 116.409 250.487 117.45 247.04C117.893 245.659 118.219 244.745 119.437 243.933C120.696 243.77 121.255 243.791 122.305 244.528C123.06 245.603 122.987 246.098 122.901 247.396C122.729 248.182 122.542 248.936 122.32 249.706C122.26 249.923 122.2 250.14 122.138 250.363C122.009 250.825 121.88 251.287 121.75 251.748C121.408 252.96 121.078 254.175 120.746 255.39C120.681 255.627 120.616 255.865 120.549 256.11C117.958 265.59 116.572 275.483 115.649 285.259C115.616 285.603 115.616 285.603 115.583 285.953C115.142 290.959 115.054 295.97 115.055 300.992C115.054 302.019 115.049 303.046 115.043 304.073C114.723 311.939 114.723 311.939 117.783 318.875C121.12 321.458 124.851 321.674 128.907 321.678C129.276 321.686 129.644 321.693 130.024 321.7C133.507 321.711 136.971 321.078 139.64 318.684C142.514 315.675 142.679 310.824 143.067 306.898C143.355 304.19 143.355 304.19 144.258 303.099C146.226 302.115 149.118 303.085 151.149 303.496C161.485 305.477 172.421 305.565 182.678 302.943C183.805 302.668 184.96 302.671 186.107 302.81C187.076 303.472 187.327 304.004 187.55 305.119C187.601 305.62 187.641 306.123 187.674 306.625C188.025 313.484 188.025 313.484 191.681 319.063C194.754 321.496 198.464 321.671 202.233 321.66C202.577 321.665 202.92 321.67 203.274 321.675C207.076 321.677 210.255 321.032 213.038 318.323C215.578 314.185 215.346 309.436 215.311 304.758C215.308 304.183 215.306 303.608 215.303 303.033C215.294 301.419 215.277 299.806 215.257 298.192C215.253 297.829 215.249 297.465 215.245 297.09C215.013 281.545 212.521 265.597 208.457 250.61C207.955 248.716 207.571 247.049 207.753 245.087C208.488 244.202 208.933 243.977 210.062 243.789C211.164 243.972 211.574 244.308 212.371 245.087C212.762 246.021 212.762 246.021 213.064 247.119C213.182 247.522 213.301 247.925 213.421 248.327C213.482 248.535 213.543 248.743 213.605 248.958C214.834 253.404 214.834 253.404 218.024 256.505C218.536 256.758 219.061 256.984 219.586 257.209C219.94 257.397 220.291 257.589 220.64 257.784C223.86 259.554 227.161 260.803 230.851 259.876C232.923 259.171 234.285 258.428 235.406 256.506C236.526 254.08 236.333 251.728 235.442 249.254C233.365 244.42 230.124 240.481 226.513 236.718C226.344 236.539 226.175 236.361 226.001 236.177C220.22 230.099 213.48 225.823 206.07 221.995C205.735 221.82 205.4 221.645 205.055 221.465C204.604 221.233 204.604 221.233 204.144 220.996C203.424 220.555 203.424 220.555 202.847 219.689C202.738 218.824 202.738 218.824 202.847 217.958C203.854 216.907 205.26 216.685 206.617 216.316C218.892 212.789 230.23 205.11 236.539 193.829C237.589 191.856 238.314 189.798 238.923 187.653C239.021 187.311 239.119 186.969 239.22 186.616C241.655 176.472 237.691 166.954 232.665 158.323C232.538 158.102 232.411 157.881 232.28 157.653C232.044 157.245 231.805 156.839 231.56 156.437C229.087 152.166 228.518 147.012 227.674 142.236C225.852 131.994 222.272 123.056 214.969 115.5C214.737 115.254 214.506 115.008 214.268 114.755C212.353 112.764 210.252 111.085 208.042 109.439C207.763 109.23 207.763 109.23 207.479 109.017C199.225 102.873 189.973 98.6404 179.944 96.3308C178.397 95.9612 178.397 95.9612 177.905 95.4389C176.971 94.5568 175.484 94.6544 174.256 94.5211C173.767 94.4666 173.767 94.4666 173.267 94.411C170.452 94.1309 167.65 94.0566 164.822 94.0521C164.618 94.0511 164.413 94.0501 164.203 94.049C159.051 94.0275 159.051 94.0275 154.202 95.5624Z" fill="black"/>
<path d="M179.204 234.155C179.892 234.701 180.548 235.265 181.201 235.852C181.483 236.077 181.765 236.303 182.056 236.535C184.725 238.755 186.547 242.05 188.127 245.087C188.223 245.269 188.319 245.45 188.418 245.637C191.579 251.685 193.35 258.474 193.611 265.29C193.62 265.486 193.63 265.681 193.64 265.882C194.004 274.182 191.812 281.794 186.322 288.135C182.469 292.131 177.581 294.3 172.254 295.595C171.835 295.701 171.835 295.701 171.408 295.81C163.995 297.368 155.555 295.847 149.164 291.843C148.145 291.13 147.205 290.363 146.278 289.534C146.038 289.321 145.798 289.108 145.55 288.888C140.298 283.951 137.532 276.557 137.248 269.431C136.995 258.063 140.627 245.796 148.52 237.373C156.767 228.996 169.392 227.402 179.204 234.155Z" fill="#F2D3A3"/>
<path d="M179.204 234.155C179.892 234.701 180.548 235.265 181.201 235.852C181.483 236.077 181.765 236.303 182.056 236.535C184.725 238.755 186.547 242.05 188.127 245.087C188.223 245.269 188.319 245.45 188.418 245.637C191.579 251.685 193.35 258.474 193.611 265.29C193.62 265.486 193.63 265.681 193.64 265.882C194.004 274.182 191.812 281.794 186.322 288.135C182.469 292.131 177.581 294.3 172.254 295.595C171.835 295.701 171.835 295.701 171.408 295.81C163.995 297.368 155.555 295.847 149.164 291.843C148.145 291.13 147.205 290.363 146.278 289.534C146.038 289.321 145.798 289.108 145.55 288.888C140.298 283.951 137.532 276.557 137.248 269.431C136.995 258.063 140.627 245.796 148.52 237.373C156.767 228.996 169.392 227.402 179.204 234.155ZM152.159 243.103C145.984 251.042 143.085 261.467 144.034 271.45C144.71 276.531 146.983 281.589 150.986 284.889C156.622 289.008 163.554 290.418 170.423 289.357C175.422 288.396 180.17 285.801 183.256 281.704C187.45 275.295 187.907 267.244 186.514 259.856C186.388 259.26 186.251 258.667 186.107 258.075C186.059 257.874 186.011 257.674 185.962 257.467C184.483 251.493 181.819 245.729 177.449 241.335C177.279 241.155 177.109 240.975 176.933 240.79C173.683 237.618 169.322 236.319 164.899 236.321C159.769 236.454 155.422 239.283 152.159 243.103Z" fill="black"/>
<path d="M254.797 233.543C254.988 233.543 255.178 233.543 255.374 233.543C255.703 234.444 256.026 235.346 256.349 236.249C256.44 236.5 256.532 236.751 256.626 237.01C259.188 244.216 258.608 252.505 255.41 259.422C254.955 260.343 254.456 261.233 253.931 262.116C253.75 262.423 253.569 262.73 253.382 263.046C247.261 272.748 236.462 279.241 225.461 281.82C225.142 281.89 224.822 281.959 224.493 282.03C224.143 282.116 224.143 282.116 223.786 282.204C222.763 282.364 221.776 282.336 220.741 282.319C220.112 278.984 219.616 275.638 219.151 272.276C218.843 270.086 218.476 267.931 217.975 265.778C217.857 265.015 217.889 264.567 218.143 263.847C218.35 263.942 218.556 264.036 218.769 264.133C221.995 265.547 224.927 266.228 228.443 266.265C228.693 266.269 228.944 266.273 229.201 266.277C233.157 266.248 236.339 264.54 239.201 261.885C241.049 259.892 242.121 257.422 242.549 254.756C243.103 253.407 243.971 252.766 245.067 251.831C250.386 247.2 253.762 240.463 254.797 233.543Z" fill="#3A9592"/>
<path d="M123.117 162.039C126.262 164.155 128.09 167.235 128.961 170.914C129.346 175.217 128.452 178.702 125.787 182.17C123.891 184.347 120.585 186.287 117.677 186.554C113.701 186.697 110.589 186.414 107.315 183.901C107.083 183.746 107.083 183.746 106.845 183.587C105.586 182.66 104.823 181.51 104.05 180.167C103.953 179.998 103.856 179.83 103.755 179.656C102.09 176.628 101.933 173.031 102.597 169.673C103.922 165.738 106.318 162.983 109.985 161.137C114.403 158.986 118.974 159.589 123.117 162.039Z" fill="#F4A99C"/>
<path d="M223.519 162.342C226.274 164.313 228.121 167.219 229.025 170.494C229.531 174.679 228.818 178.478 226.224 181.881C223.817 184.529 220.721 186.254 217.121 186.596C213.427 186.635 210.701 185.834 207.753 183.613C207.378 183.363 207.378 183.363 206.996 183.108C204.517 180.76 203.082 177.575 202.778 174.188C202.676 170.268 203.993 166.656 206.671 163.77C207.862 162.658 209.194 161.844 210.639 161.101C210.831 161.002 211.022 160.903 211.219 160.801C215.136 159.157 220.077 160.121 223.519 162.342Z" fill="#F4A99C"/>
<path d="M148.208 202.771C148.852 202.262 149.273 201.562 149.73 200.889C152.51 196.872 157.079 195.008 161.74 194.138C168.086 193.044 175.409 193.625 180.841 197.329C181.422 197.752 181.978 198.189 182.528 198.651C182.658 198.759 182.788 198.867 182.922 198.978C183.874 199.844 184.471 200.917 185.098 202.027C185.467 202.571 185.641 202.768 186.254 202.967C186.922 203.038 187.336 203.007 187.958 202.746C188.543 202.272 188.757 201.916 188.999 201.201C189.033 199.155 187.685 197.625 186.345 196.199C181.357 191.13 174.572 189.108 167.562 189C160.02 189.025 153.117 190.99 147.57 196.272C146.238 197.631 144.982 199.209 145 201.187C145.126 201.92 145.52 202.265 146.05 202.771C146.814 203.026 147.45 203.023 148.208 202.771Z" fill="black"/>
<path d="M167.636 74.5166C171.497 76.3172 173.651 83.8922 175.011 87.6119C175.892 90.0546 176.774 92.4991 177.449 95.0082C175.928 95.0351 174.52 94.94 173.011 94.7196C170.348 94.3836 167.682 94.3653 165.002 94.3588C164.796 94.3574 164.59 94.3559 164.378 94.3545C161.38 94.3373 158.479 94.5708 155.514 95.0082C155.742 93.7288 156.186 92.6765 156.777 91.5268C156.879 91.3269 156.98 91.127 157.085 90.921C157.424 90.2614 157.767 89.6042 158.112 88.9473C158.229 88.7225 158.346 88.4977 158.466 88.2661C159.965 85.4045 161.579 82.6413 163.361 79.9462C163.522 79.7013 163.683 79.4564 163.848 79.2041C164.985 77.5178 166.251 76.0048 167.636 74.5166Z" fill="#3A9592"/>
<path d="M204.921 144.523C206.798 145.594 207.974 147.233 208.707 149.247C209.297 151.851 209.314 154.891 208.136 157.325C207.029 159.062 205.712 160.216 203.713 160.812C201.885 161.015 200.602 160.731 199.095 159.658C197.175 157.922 196.137 155.846 195.851 153.263C195.765 150.554 196.424 148.162 198.193 146.075C200.139 144.096 202.3 143.361 204.921 144.523Z" fill="black"/>
<path d="M132.194 144.318C134.288 145.491 135.668 147.417 136.33 149.706C136.904 152.74 136.408 155.553 134.806 158.179C133.996 159.292 133.207 160.153 131.848 160.524C129.79 160.797 127.971 160.803 126.263 159.53C124.153 157.536 123.505 155.233 123.388 152.388C123.414 149.927 124.286 147.273 126.075 145.516C127.912 144.084 129.951 143.45 132.194 144.318Z" fill="black"/>
<path d="M212.371 91.5447C212.519 94.1829 212.308 96.6313 211.83 99.229C211.78 99.5025 211.73 99.776 211.678 100.058C211.434 101.316 211.186 102.498 210.639 103.666C208.633 102.407 206.652 101.115 204.692 99.7855C203.527 99.0018 202.341 98.2893 201.115 97.6056C202.116 96.4774 203.269 95.7901 204.56 95.0441C204.885 94.855 204.885 94.855 205.216 94.662C210.641 91.5447 210.641 91.5447 212.371 91.5447Z" fill="#3A9592"/>
<path d="M121.169 90.9675C122.934 91.5034 124.545 92.1639 126.166 93.0419C126.48 93.2102 126.48 93.2102 126.801 93.3818C128.658 94.3904 130.41 95.5194 132.136 96.7398C131.005 97.708 129.831 98.4024 128.529 99.1028C126.603 100.157 124.814 101.324 123.038 102.612C122.323 103.089 122.323 103.089 121.746 103.089C120.992 99.0705 121.111 95.0409 121.169 90.9675Z" fill="#3A9592"/>
<path d="M152.916 169.182C154.535 169.924 155.803 170.898 156.498 172.564C156.83 173.848 156.877 175.089 156.668 176.397C156.149 177.264 155.831 177.682 154.937 178.129C153.472 178.369 152.337 178.269 151.095 177.426C149.738 176.275 149.072 174.922 148.768 173.181C148.678 171.718 149.111 170.863 150.03 169.759C151.14 169.02 151.595 169.012 152.916 169.182Z" fill="black"/>
<path d="M181.489 169.182C182.334 169.706 183.058 170.299 183.51 171.202C183.738 173.137 183.637 174.608 182.48 176.208C181.333 177.534 180.388 178.078 178.639 178.219C177.699 178.209 177.443 178.125 176.601 177.606C175.626 176.572 175.616 175.561 175.638 174.206C175.86 172.257 176.931 171.002 178.406 169.796C179.405 169.127 180.32 169.044 181.489 169.182Z" fill="black"/>
<path d="M192.928 124.04C193.721 124.346 194.186 125.04 194.696 125.651C196.985 128.395 200.769 130.332 204.532 130.801C204.851 130.825 205.169 130.842 205.489 130.856C205.589 130.86 205.69 130.865 205.794 130.869C205.992 130.877 206.19 130.882 206.388 130.886C207.136 130.909 207.746 131.024 208.328 131.489C208.416 131.59 208.416 131.59 208.506 131.694C208.598 131.795 208.598 131.795 208.691 131.899C209.024 132.347 209.037 132.841 208.964 133.362C208.731 134.034 208.394 134.408 207.701 134.744C205.502 135.412 202.479 134.642 200.378 133.938C200.247 133.894 200.247 133.894 200.114 133.85C196.576 132.641 193.08 130.504 190.844 127.694C190.791 127.627 190.738 127.561 190.683 127.492C190.179 126.836 189.917 126.226 190.024 125.421C190.605 124.209 191.524 123.874 192.928 124.04Z" fill="black"/>
<path d="M136.092 124.267C136.622 124.673 136.878 125.018 136.994 125.651C137.082 126.98 136.201 127.855 135.346 128.801C132.155 132.243 127.295 134.641 122.493 134.961C122.204 134.975 121.915 134.982 121.626 134.986C121.53 134.991 121.433 134.995 121.334 135C120.592 135.01 120.094 134.827 119.524 134.366C119.089 133.87 118.97 133.409 119.006 132.764C119.112 132.071 119.504 131.7 120.038 131.27C120.407 131.023 120.754 130.997 121.191 130.975C125.373 130.724 129.107 129.295 132.068 126.39C132.397 126.027 132.672 125.65 132.946 125.249C133.691 124.183 134.776 123.638 136.092 124.267Z" fill="black"/>
<mask id="mask0_635_494" style="mask-type:alpha" maskUnits="userSpaceOnUse" x="194" y="144" width="19" height="26">
<path d="M201.624 144.003C199.608 143.951 197.798 144.58 196.326 145.849C195.479 146.602 194.933 147.41 194.469 148.396C194.427 148.485 194.385 148.574 194.341 148.665C193.737 150.23 193.979 152.076 194.724 153.55C195.029 154.13 195.368 154.656 195.843 155.134C195.916 155.209 195.99 155.284 196.065 155.362C197.297 156.561 199.074 157.437 200.896 157.499C201.103 157.501 201.309 157.5 201.516 157.498C201.588 157.497 201.659 157.497 201.733 157.496C201.907 157.495 202.081 157.494 202.255 157.492C202.232 157.58 202.209 157.668 202.185 157.759C200.363 164.744 200.363 164.744 201.974 167.285C202.693 168.349 204.018 169.109 205.328 169.41C207.063 169.643 208.61 169.386 210.064 168.462C211.174 167.643 211.874 166.357 212.056 165.072C212.432 161.393 209.215 158.034 206.835 155.387C207.022 155.096 207.218 154.812 207.419 154.529C208.447 153.034 208.99 151.237 208.559 149.472C208.042 147.58 206.905 145.989 205.095 144.943C203.996 144.379 202.879 144.067 201.624 144.003Z" fill="black"/>
</mask>
<g mask="url(#mask0_635_494)">
<rect width="12.475" height="14.2012" transform="matrix(-1 0 0 1 212.087 155.192)" fill="black"/>
<path d="M205.003 157.071C202.753 163.513 202.753 163.513 203.721 165.662C204.125 166.378 204.711 166.885 205.528 167.186C206.469 167.45 207.328 167.438 208.209 167.01C208.959 166.528 209.497 165.911 209.675 165.073C209.957 162.359 207.548 159.675 205.81 157.703C205.242 157.071 205.242 157.071 205.003 157.071Z" fill="#AADCE7"/>
</g>
<mask id="mask1_635_494" style="mask-type:alpha" maskUnits="userSpaceOnUse" x="120" y="144" width="19" height="26">
<path d="M130.462 144.003C132.478 143.951 134.289 144.58 135.76 145.849C136.607 146.602 137.153 147.41 137.618 148.396C137.66 148.485 137.702 148.574 137.745 148.665C138.35 150.23 138.107 152.076 137.362 153.55C137.057 154.13 136.719 154.656 136.244 155.134C136.17 155.209 136.097 155.284 136.021 155.362C134.79 156.561 133.013 157.437 131.191 157.499C130.984 157.501 130.777 157.5 130.57 157.498C130.499 157.497 130.427 157.497 130.354 157.496C130.18 157.495 130.006 157.494 129.832 157.492C129.855 157.58 129.878 157.668 129.901 157.759C131.724 164.744 131.724 164.744 130.113 167.285C129.394 168.349 128.069 169.109 126.758 169.41C125.024 169.643 123.477 169.386 122.022 168.462C120.913 167.643 120.212 166.357 120.03 165.072C119.654 161.393 122.871 158.034 125.251 155.387C125.064 155.096 124.868 154.812 124.667 154.529C123.639 153.034 123.097 151.237 123.527 149.472C124.045 147.58 125.182 145.989 126.992 144.943C128.091 144.379 129.208 144.067 130.462 144.003Z" fill="black"/>
</mask>
<g mask="url(#mask1_635_494)">
<rect x="120" y="155.192" width="12.475" height="14.2012" fill="black"/>
<path d="M127.083 157.071C129.334 163.513 129.334 163.513 128.366 165.662C127.961 166.378 127.376 166.885 126.558 167.186C125.617 167.45 124.758 167.438 123.877 167.01C123.128 166.528 122.59 165.911 122.412 165.073C122.129 162.359 124.538 159.675 126.276 157.703C126.845 157.071 126.845 157.071 127.083 157.071Z" fill="#AADCE7"/>
</g>
</svg>
