<svg width="180" height="199" viewBox="0 0 180 199" fill="none" xmlns="http://www.w3.org/2000/svg">
<path d="M107.606 1.54234C107.773 1.57113 107.941 1.59991 108.113 1.62958C114.669 2.78635 121.122 4.84536 127.309 7.28107C127.434 7.16595 127.434 7.16595 127.562 7.0485C128.263 6.42373 128.889 5.95648 129.772 5.60727C130.043 5.49631 130.043 5.49631 130.32 5.3831C131.866 4.87163 133.298 4.72569 134.924 4.73451C135.24 4.73613 135.24 4.73613 135.562 4.73778C147.469 4.91197 158.56 11.5083 166.686 19.8405C167.365 20.5515 167.993 21.2969 168.601 22.0688C169.039 22.6202 169.496 23.1508 169.955 23.6843C176.274 31.2656 180.679 41.7316 179.914 51.6606C179.551 54.9869 177.945 58.3102 175.4 60.5056C172.435 62.7679 169.034 63.7539 165.328 63.7359C165.178 63.7366 165.028 63.7374 164.874 63.7381C163.694 63.7362 162.532 63.6426 161.358 63.5207C161.406 63.6551 161.453 63.7895 161.501 63.928C162.531 66.8849 163.465 69.8127 164.037 72.894C164.068 73.052 164.099 73.2101 164.131 73.3729C165.161 78.8064 165.026 84.9091 163.845 90.3015C163.792 90.5559 163.792 90.5559 163.737 90.8156C162.964 94.4042 161.751 97.78 160.019 101.014C159.93 101.193 159.84 101.372 159.748 101.556C157.614 105.725 154.319 109.435 150.646 112.3C150.49 112.422 150.49 112.422 150.33 112.547C146.802 115.288 142.789 117.453 138.595 118.995C138.716 119.079 138.836 119.163 138.961 119.249C142.269 121.594 145.314 124.374 147.777 127.603C147.859 127.71 147.941 127.817 148.025 127.927C149.724 130.145 151.149 132.476 152.475 134.932C152.542 135.055 152.608 135.177 152.677 135.303C153.133 136.165 153.133 136.165 153.133 136.594C153.259 136.594 153.385 136.594 153.516 136.594C153.548 136.368 153.548 136.368 153.582 136.138C153.678 135.604 153.79 135.089 153.921 134.563C153.962 134.399 154.003 134.235 154.045 134.067C154.129 133.734 154.213 133.402 154.299 133.07C155.054 130.013 155.088 127.059 154.995 123.933C154.981 123.433 154.973 122.933 154.966 122.432C154.957 122.208 154.957 122.208 154.947 121.978C154.937 120.834 155.28 120.073 156.002 119.186C157.009 118.401 158.226 118.478 159.446 118.613C162.012 119.231 163.927 120.815 165.758 122.63C165.927 122.796 166.095 122.962 166.269 123.133C168.767 125.732 170.143 128.894 171.078 132.338C171.118 132.482 171.158 132.627 171.199 132.776C172.143 136.455 172.172 141.173 171.114 144.819C171.046 145.081 170.978 145.342 170.91 145.604C169.635 150.375 167.1 154.832 163.463 158.21C163.305 158.368 163.147 158.525 162.984 158.688C162.827 158.846 162.669 159.004 162.506 159.166C162.411 159.265 162.316 159.364 162.218 159.466C161.433 160.272 160.613 160.974 159.709 161.641C159.575 161.74 159.442 161.839 159.304 161.941C154.301 165.605 148.539 167.824 142.421 168.731C142.121 168.785 142.121 168.785 141.815 168.84C140.745 168.96 139.682 168.942 138.607 168.934C138.385 168.933 138.163 168.932 137.934 168.931C137.389 168.929 136.844 168.926 136.299 168.922C136.313 169.087 136.326 169.252 136.34 169.422C136.489 171.428 136.528 173.426 136.536 175.437C136.537 175.606 136.538 175.775 136.539 175.949C136.543 176.84 136.545 177.732 136.547 178.623C136.549 179.534 136.556 180.445 136.563 181.356C136.568 182.066 136.57 182.776 136.571 183.486C136.572 183.822 136.574 184.157 136.577 184.492C136.615 188.228 135.982 191.506 133.316 194.31C130.916 196.589 127.978 197.389 124.822 197.998C124.679 198.032 124.536 198.066 124.389 198.101C123.721 198.214 123.062 198.224 122.387 198.229C122.173 198.231 122.173 198.231 121.956 198.233C116.628 198.272 111.383 198.063 107.242 194.223C104.617 191.397 103.902 187.384 103.971 183.652C103.746 183.707 103.521 183.762 103.29 183.819C100.383 184.462 97.3857 184.635 94.417 184.647C94.188 184.648 93.9589 184.65 93.7229 184.651C92.9864 184.654 92.2498 184.655 91.5133 184.656C91.262 184.656 91.0107 184.656 90.7518 184.657C86.7727 184.659 82.8633 184.506 78.912 184.034C78.6126 183.999 78.3133 183.964 78.014 183.929C77.2292 183.838 76.4446 183.745 75.66 183.652C75.662 183.857 75.6641 184.062 75.6662 184.273C75.6355 187.845 74.379 191.52 71.9119 194.119C68.2891 197.553 63.3116 198.234 58.5394 198.238C58.3941 198.238 58.2488 198.238 58.099 198.238C53.5941 198.232 49.0832 197.487 45.6826 194.264C43.046 191.407 42.6968 187.914 42.7071 184.207C42.7067 183.888 42.7062 183.57 42.7055 183.252C42.7044 182.407 42.7061 181.563 42.7086 180.718C42.7101 180.195 42.711 179.671 42.7117 179.147C42.7198 174.137 42.7696 169.138 43.1405 164.14C43.1516 163.987 43.1627 163.835 43.1741 163.678C43.4103 160.443 43.7026 157.221 44.097 154.001C43.8879 154.073 43.6788 154.144 43.4634 154.218C43.3387 154.261 43.214 154.303 43.0855 154.347C42.8274 154.436 42.5695 154.525 42.3117 154.614C42.1413 154.671 42.1413 154.671 41.9674 154.73C41.8531 154.769 41.7389 154.808 41.6213 154.848C38.6651 155.671 34.69 155.56 31.8543 154.384C31.6844 154.327 31.5145 154.269 31.3395 154.21C28.7929 153.312 26.5532 151.409 25.3504 148.992C23.9597 146.067 23.8932 142.284 24.8946 139.2C24.9819 138.971 25.0692 138.742 25.1591 138.507C25.2362 138.3 25.2362 138.3 25.3147 138.088C26.524 134.879 28.1839 132.002 30.324 129.325C30.4547 129.157 30.5854 128.99 30.72 128.817C33.0896 125.84 35.7927 123.248 38.7169 120.824C38.8535 120.711 38.99 120.598 39.1307 120.481C39.7151 120.003 40.2952 119.542 40.9302 119.132C41.4342 118.852 41.4342 118.852 41.6102 118.421C41.4729 118.398 41.3357 118.374 41.1942 118.35C36.3301 117.273 31.3468 114.016 27.6459 110.77C27.4814 110.626 27.317 110.483 27.1475 110.335C26.6703 109.912 26.2001 109.482 25.733 109.048C25.6058 108.931 25.4785 108.814 25.3474 108.694C18.7819 102.422 15.2069 92.6644 14.9653 83.7089C14.9501 82.8616 14.9471 82.0147 14.949 81.1673C14.9491 80.9881 14.9492 80.8089 14.9493 80.6242C14.9647 74.8302 15.6399 68.4037 18.2726 63.1381C18.0344 63.1997 17.7962 63.2614 17.5508 63.3249C13.7189 64.171 9.74563 63.4368 6.39438 61.46C3.1894 59.3946 1.32848 56.0309 0.476588 52.3884C-1.36978 43.6222 2.42439 33.955 7.11578 26.7007C7.56928 26.02 8.03733 25.3511 8.5168 24.6886C8.5978 24.5764 8.6788 24.4642 8.76226 24.3487C11.2726 20.9104 14.1654 17.7625 17.5075 15.124C17.8504 14.8373 18.1931 14.5503 18.5357 14.2632C20.5453 12.6236 22.7163 11.2389 24.9678 9.95915C25.1054 9.88092 25.243 9.80269 25.3848 9.72209C28.9364 7.72662 32.6853 6.34528 36.6366 5.36816C36.7725 5.33385 36.9085 5.29955 37.0485 5.2642C39.0914 4.7723 41.1454 4.74085 43.2361 4.73451C43.3687 4.73379 43.5012 4.73307 43.6377 4.73233C46.6856 4.72392 49.9362 5.17841 52.3225 7.28107C52.3225 7.40732 52.3225 7.53358 52.3225 7.66365C52.5072 7.57982 52.6919 7.49598 52.8822 7.4096C59.4838 4.48907 66.4555 2.57458 73.5558 1.35105C73.737 1.31951 73.9182 1.28798 74.1048 1.25549C85.0342 -0.575681 96.706 -0.338483 107.606 1.54234Z" fill="#F2D3A3"/>
<path d="M107.606 1.54234C107.773 1.57113 107.941 1.59991 108.113 1.62958C114.669 2.78635 121.122 4.84536 127.309 7.28107C127.434 7.16595 127.434 7.16595 127.562 7.0485C128.263 6.42373 128.889 5.95648 129.772 5.60727C130.043 5.49631 130.043 5.49631 130.32 5.3831C131.866 4.87163 133.298 4.72569 134.924 4.73451C135.24 4.73613 135.24 4.73613 135.562 4.73778C147.469 4.91197 158.56 11.5083 166.686 19.8405C167.365 20.5515 167.993 21.2969 168.601 22.0688C169.039 22.6202 169.496 23.1508 169.955 23.6843C176.274 31.2656 180.679 41.7316 179.914 51.6606C179.551 54.9869 177.945 58.3102 175.4 60.5056C172.435 62.7679 169.034 63.7539 165.328 63.7359C165.178 63.7366 165.028 63.7374 164.874 63.7381C163.694 63.7362 162.532 63.6426 161.358 63.5207C161.406 63.6551 161.453 63.7895 161.501 63.928C162.531 66.8849 163.465 69.8127 164.037 72.894C164.068 73.052 164.099 73.2101 164.131 73.3729C165.161 78.8064 165.026 84.9091 163.845 90.3015C163.792 90.5559 163.792 90.5559 163.737 90.8156C162.964 94.4042 161.751 97.78 160.019 101.014C159.93 101.193 159.84 101.372 159.748 101.556C157.614 105.725 154.319 109.435 150.646 112.3C150.49 112.422 150.49 112.422 150.33 112.547C146.802 115.288 142.789 117.453 138.595 118.995C138.716 119.079 138.836 119.163 138.961 119.249C142.269 121.594 145.314 124.374 147.777 127.603C147.859 127.71 147.941 127.817 148.025 127.927C149.724 130.145 151.149 132.476 152.475 134.932C152.542 135.055 152.608 135.177 152.677 135.303C153.133 136.165 153.133 136.165 153.133 136.594C153.259 136.594 153.385 136.594 153.516 136.594C153.548 136.368 153.548 136.368 153.582 136.138C153.678 135.604 153.79 135.089 153.921 134.563C153.962 134.399 154.003 134.235 154.045 134.067C154.129 133.734 154.213 133.402 154.299 133.07C155.054 130.013 155.088 127.059 154.995 123.933C154.981 123.433 154.973 122.933 154.966 122.432C154.957 122.208 154.957 122.208 154.947 121.978C154.937 120.834 155.28 120.073 156.002 119.186C157.009 118.401 158.226 118.478 159.446 118.613C162.012 119.231 163.927 120.815 165.758 122.63C165.927 122.796 166.095 122.962 166.269 123.133C168.767 125.732 170.143 128.894 171.078 132.338C171.118 132.482 171.158 132.627 171.199 132.776C172.143 136.455 172.172 141.173 171.114 144.819C171.046 145.081 170.978 145.342 170.91 145.604C169.635 150.375 167.1 154.832 163.463 158.21C163.305 158.368 163.147 158.525 162.984 158.688C162.827 158.846 162.669 159.004 162.506 159.166C162.411 159.265 162.316 159.364 162.218 159.466C161.433 160.272 160.613 160.974 159.709 161.641C159.575 161.74 159.442 161.839 159.304 161.941C154.301 165.605 148.539 167.824 142.421 168.731C142.121 168.785 142.121 168.785 141.815 168.84C140.745 168.96 139.682 168.942 138.607 168.934C138.385 168.933 138.163 168.932 137.934 168.931C137.389 168.929 136.844 168.926 136.299 168.922C136.313 169.087 136.326 169.252 136.34 169.422C136.489 171.428 136.528 173.426 136.536 175.437C136.537 175.606 136.538 175.775 136.539 175.949C136.543 176.84 136.545 177.732 136.547 178.623C136.549 179.534 136.556 180.445 136.563 181.356C136.568 182.066 136.57 182.776 136.571 183.486C136.572 183.822 136.574 184.157 136.577 184.492C136.615 188.228 135.982 191.506 133.316 194.31C130.916 196.589 127.978 197.389 124.822 197.998C124.679 198.032 124.536 198.066 124.389 198.101C123.721 198.214 123.062 198.224 122.387 198.229C122.173 198.231 122.173 198.231 121.956 198.233C116.628 198.272 111.383 198.063 107.242 194.223C104.617 191.397 103.902 187.384 103.971 183.652C103.746 183.707 103.521 183.762 103.29 183.819C100.383 184.462 97.3857 184.635 94.417 184.647C94.188 184.648 93.9589 184.65 93.7229 184.651C92.9864 184.654 92.2498 184.655 91.5133 184.656C91.262 184.656 91.0107 184.656 90.7518 184.657C86.7727 184.659 82.8633 184.506 78.912 184.034C78.6126 183.999 78.3133 183.964 78.014 183.929C77.2292 183.838 76.4446 183.745 75.66 183.652C75.662 183.857 75.6641 184.062 75.6662 184.273C75.6355 187.845 74.379 191.52 71.9119 194.119C68.2891 197.553 63.3116 198.234 58.5394 198.238C58.3941 198.238 58.2488 198.238 58.099 198.238C53.5941 198.232 49.0832 197.487 45.6826 194.264C43.046 191.407 42.6968 187.914 42.7071 184.207C42.7067 183.888 42.7062 183.57 42.7055 183.252C42.7044 182.407 42.7061 181.563 42.7086 180.718C42.7101 180.195 42.711 179.671 42.7117 179.147C42.7198 174.137 42.7696 169.138 43.1405 164.14C43.1516 163.987 43.1627 163.835 43.1741 163.678C43.4103 160.443 43.7026 157.221 44.097 154.001C43.8879 154.073 43.6788 154.144 43.4634 154.218C43.3387 154.261 43.214 154.303 43.0855 154.347C42.8274 154.436 42.5695 154.525 42.3117 154.614C42.1413 154.671 42.1413 154.671 41.9674 154.73C41.8531 154.769 41.7389 154.808 41.6213 154.848C38.6651 155.671 34.69 155.56 31.8543 154.384C31.6844 154.327 31.5145 154.269 31.3395 154.21C28.7929 153.312 26.5532 151.409 25.3504 148.992C23.9597 146.067 23.8932 142.284 24.8946 139.2C24.9819 138.971 25.0692 138.742 25.1591 138.507C25.2362 138.3 25.2362 138.3 25.3147 138.088C26.524 134.879 28.1839 132.002 30.324 129.325C30.4547 129.157 30.5854 128.99 30.72 128.817C33.0896 125.84 35.7927 123.248 38.7169 120.824C38.8535 120.711 38.99 120.598 39.1307 120.481C39.7151 120.003 40.2952 119.542 40.9302 119.132C41.4342 118.852 41.4342 118.852 41.6102 118.421C41.4729 118.398 41.3357 118.374 41.1942 118.35C36.3301 117.273 31.3468 114.016 27.6459 110.77C27.4814 110.626 27.317 110.483 27.1475 110.335C26.6703 109.912 26.2001 109.482 25.733 109.048C25.6058 108.931 25.4785 108.814 25.3474 108.694C18.7819 102.422 15.2069 92.6644 14.9653 83.7089C14.9501 82.8616 14.9471 82.0147 14.949 81.1673C14.9491 80.9881 14.9492 80.8089 14.9493 80.6242C14.9647 74.8302 15.6399 68.4037 18.2726 63.1381C18.0344 63.1997 17.7962 63.2614 17.5508 63.3249C13.7189 64.171 9.74563 63.4368 6.39438 61.46C3.1894 59.3946 1.32848 56.0309 0.476588 52.3884C-1.36978 43.6222 2.42439 33.955 7.11578 26.7007C7.56928 26.02 8.03733 25.3511 8.5168 24.6886C8.5978 24.5764 8.6788 24.4642 8.76226 24.3487C11.2726 20.9104 14.1654 17.7625 17.5075 15.124C17.8504 14.8373 18.1931 14.5503 18.5357 14.2632C20.5453 12.6236 22.7163 11.2389 24.9678 9.95915C25.1054 9.88092 25.243 9.80269 25.3848 9.72209C28.9364 7.72662 32.6853 6.34528 36.6366 5.36816C36.7725 5.33385 36.9085 5.29955 37.0485 5.2642C39.0914 4.7723 41.1454 4.74085 43.2361 4.73451C43.3687 4.73379 43.5012 4.73307 43.6377 4.73233C46.6856 4.72392 49.9362 5.17841 52.3225 7.28107C52.3225 7.40732 52.3225 7.53358 52.3225 7.66365C52.5072 7.57982 52.6919 7.49598 52.8822 7.4096C59.4838 4.48907 66.4555 2.57458 73.5558 1.35105C73.737 1.31951 73.9182 1.28798 74.1048 1.25549C85.0342 -0.575681 96.706 -0.338483 107.606 1.54234ZM76.6165 5.75074C76.3135 5.7865 76.3135 5.7865 76.0044 5.82298C69.5068 6.59683 63.2101 8.18712 57.1048 10.533C56.9304 10.5993 56.7561 10.6655 56.5765 10.7337C56.1325 10.9047 55.6916 11.0814 55.2516 11.2623C55.0181 11.3582 54.7846 11.4542 54.544 11.553C54.0136 11.8226 54.0136 11.8226 53.8707 12.3137C53.8508 12.8872 53.864 13.4506 53.8887 14.0241C53.9488 17.4126 53.1182 20.8898 52.1312 24.1147C52.0738 24.3023 52.0164 24.49 51.9573 24.6833C49.0886 33.9151 44.9118 43.496 38.208 50.6339C37.8446 51.0224 37.5027 51.4193 37.1627 51.828C34.276 55.1146 29.9733 58.9226 25.7778 60.3405C24.7667 60.6914 24.1822 60.9435 23.6154 61.8783C23.2942 62.6077 23.0571 63.358 22.8328 64.122C22.6577 64.7184 22.4689 65.3095 22.2793 65.9014C21.5087 68.354 20.8553 70.8112 20.4553 73.3525C20.3995 73.7068 20.3388 74.0604 20.2749 74.4134C19.954 76.335 19.9295 78.2328 19.9339 80.1771C19.9345 80.7307 19.93 81.284 19.9251 81.8376C19.914 85.0819 20.1713 88.3562 21.0822 91.4851C21.1307 91.6565 21.1792 91.8279 21.2292 92.0044C23.7037 100.423 29.3015 107.097 36.9571 111.297C41.1288 113.527 45.4988 115.196 50.1652 116.027C50.3353 116.058 50.5055 116.089 50.6808 116.121C50.8347 116.147 50.9886 116.173 51.1472 116.2C51.7811 116.381 52.1128 116.769 52.5138 117.274C52.5769 117.337 52.64 117.4 52.7051 117.465C52.7869 118.169 52.7232 118.572 52.4301 119.222C51.7671 119.95 51.1544 120.1 50.2183 120.334C42.3379 122.351 35.9518 129.074 31.8377 135.864C30.0067 138.96 28.5273 142.185 29.053 145.87C29.454 147.383 30.5537 148.571 31.8566 149.39C34.7019 150.858 38.224 151.127 41.2993 150.164C42.7094 149.602 44.2332 148.855 45.2447 147.689C45.403 147.3 45.403 147.3 45.4993 146.859C45.5409 146.691 45.5825 146.524 45.6254 146.351C45.6684 146.169 45.7115 145.988 45.7558 145.801C45.8263 145.516 45.8263 145.516 45.8981 145.226C46.0489 144.617 46.197 144.007 46.3446 143.397C46.903 141.091 47.4652 138.797 48.2366 136.551C48.2894 136.395 48.3422 136.239 48.3967 136.078C48.7315 135.139 49.0843 134.196 50.027 133.725C50.8085 133.626 51.5991 133.548 52.3143 133.918C52.8187 134.327 53.0727 134.636 53.2789 135.255C53.3279 136.196 53.2185 136.961 52.9494 137.862C52.8778 138.107 52.8063 138.352 52.7347 138.597C52.6967 138.724 52.6587 138.852 52.6196 138.983C51.69 142.113 50.9194 145.265 50.2183 148.454C50.1611 148.709 50.1611 148.709 50.1027 148.97C48.9398 154.197 48.3567 159.535 47.9552 164.868C47.9302 165.192 47.9039 165.516 47.877 165.839C47.7546 167.348 47.6758 168.854 47.6269 170.367C47.6189 170.612 47.611 170.858 47.6027 171.11C47.5164 173.92 47.4977 176.73 47.4942 179.541C47.4932 180.286 47.4885 181.03 47.4832 181.775C47.4796 182.361 47.4786 182.946 47.4783 183.532C47.4777 183.807 47.4762 184.082 47.4737 184.356C47.4529 186.757 47.6153 189.047 49.2618 190.921C51.6231 193.147 54.85 193.509 57.9543 193.472C58.3605 193.467 58.7665 193.468 59.1727 193.469C62.5749 193.462 66.2488 193.063 68.7735 190.538C70.4957 188.276 70.7939 185.62 70.8897 182.874C70.9042 182.479 70.9197 182.084 70.9384 181.689C70.9552 181.335 70.9681 180.981 70.9809 180.627C71.077 179.962 71.2416 179.596 71.6429 179.061C73.3137 177.947 76.714 178.849 78.637 179.049C82.6354 179.461 86.5948 179.67 90.6152 179.67C91.2119 179.67 91.8085 179.674 92.4051 179.677C96.1074 179.688 99.7468 179.372 103.409 178.845C103.894 178.776 104.378 178.708 104.863 178.641C105.069 178.611 105.275 178.581 105.488 178.551C107.024 178.383 107.024 178.383 107.845 178.809C108.419 179.292 108.54 179.505 108.753 180.208C108.802 180.833 108.802 180.833 108.806 181.54C108.81 181.803 108.814 182.065 108.818 182.328C108.822 182.736 108.825 183.143 108.826 183.55C108.84 186.399 109.15 189.162 111.24 191.303C113.604 193.265 116.864 193.445 119.8 193.453C120.212 193.455 120.624 193.461 121.035 193.467C124.253 193.492 127.533 193.134 129.949 190.824C131.295 189.296 131.752 187.41 131.764 185.413C131.765 185.271 131.766 185.13 131.768 184.985C131.771 184.519 131.772 184.054 131.773 183.589C131.774 183.258 131.776 182.927 131.777 182.596C131.782 181.529 131.781 180.462 131.78 179.395C131.78 179.214 131.78 179.032 131.78 178.845C131.778 172.826 131.603 166.876 130.943 160.888C130.901 160.491 130.858 160.094 130.816 159.697C129.984 152.014 128.827 144.138 126.352 136.785C126.235 136.116 126.204 135.522 126.54 134.916C126.972 134.371 127.403 133.922 128.074 133.725C128.769 133.661 129.271 133.672 129.927 133.916C130.937 134.789 131.278 136.171 131.594 137.427C131.633 137.576 131.672 137.724 131.712 137.877C131.793 138.192 131.875 138.507 131.955 138.822C132.08 139.313 132.208 139.803 132.337 140.294C132.741 141.845 133.12 143.395 133.444 144.965C133.841 146.901 133.841 146.901 135.11 148.373C135.25 148.463 135.39 148.553 135.534 148.645C135.678 148.749 135.822 148.853 135.971 148.96C138.501 150.648 141.58 151.006 144.533 150.425C146.622 149.883 148.471 148.95 149.69 147.115C150.653 145.306 150.426 143.231 149.881 141.328C147.42 133.356 141.066 126.119 133.841 122.081C132.23 121.233 130.596 120.856 128.8 120.626C128.066 120.488 127.672 120.253 127.117 119.76C126.809 119.143 126.815 118.515 126.926 117.847C127.705 116.761 128.686 116.602 129.952 116.38C130.078 116.361 130.204 116.341 130.334 116.321C132.17 116.037 133.888 115.545 135.642 114.942C135.779 114.896 135.917 114.849 136.058 114.801C138.077 114.116 139.994 113.361 141.847 112.3C142.106 112.161 142.366 112.022 142.626 111.884C150.117 107.86 155.757 100.931 158.21 92.7965C158.448 91.9688 158.668 91.1381 158.872 90.3015C158.904 90.1824 158.935 90.0634 158.968 89.9408C159.671 87.1327 159.715 84.1889 159.709 81.3108C159.709 81.0552 159.709 81.0552 159.708 80.7946C159.702 77.9061 159.484 75.1507 158.872 72.3201C158.839 72.1603 158.806 72.0006 158.772 71.836C158.126 68.7395 157.052 65.7346 156.002 62.7555C155.957 62.6102 155.912 62.4648 155.866 62.315C155.629 61.6261 155.42 61.411 154.797 61.0115C154.543 60.8957 154.287 60.7838 154.03 60.6752C153.751 60.5464 153.473 60.4164 153.195 60.2852C152.986 60.1867 152.986 60.1867 152.772 60.0862C150.558 58.9909 148.565 57.3862 146.629 55.869C146.523 55.7858 146.417 55.7026 146.307 55.6168C143.407 53.3154 140.764 50.6438 138.595 47.6435C138.502 47.5166 138.409 47.3897 138.313 47.2589C131.493 37.9375 124.827 24.0852 125.587 12.2546C115.174 6.55298 102.452 5.05257 90.7516 5.10205C89.9718 5.10532 89.1921 5.10338 88.4122 5.10008C84.4439 5.0859 80.558 5.27743 76.6165 5.75074Z" fill="black"/>
<path d="M150.179 13.4505C155.959 16.4063 161.626 20.8511 165.567 26.0276C165.668 26.1593 165.769 26.2911 165.873 26.4268C167.369 28.3907 168.773 30.369 169.967 32.5315C170.055 32.6891 170.143 32.8468 170.234 33.0092C173.038 38.056 175.015 43.2077 175.036 49.0303C175.038 49.4025 175.038 49.4025 175.04 49.7821C175.003 52.493 174.387 54.7976 172.515 56.8045C170.033 59.0574 166.799 59.109 163.632 58.9684C156.082 58.4379 148.994 52.5254 144.21 47.0947C143.579 46.3463 142.992 45.5691 142.421 44.7741C142.333 44.6531 142.246 44.5321 142.156 44.4074C139.014 40.0102 136.511 35.2929 134.603 30.2355C134.399 29.6956 134.191 29.1576 133.981 28.6197C132.553 24.8842 131.424 20.982 130.752 17.0369C130.713 16.8502 130.674 16.6636 130.635 16.4712C130.409 15.3233 130.326 14.1989 130.31 13.0317C130.306 12.8936 130.303 12.7554 130.299 12.613C130.3 11.755 130.413 11.2123 130.943 10.533C135.729 6.94377 145.555 11.188 150.179 13.4505Z" fill="#7D5232"/>
<path d="M43.0688 9.52878C43.4298 9.52656 43.4298 9.52656 43.7981 9.52429C47.3297 9.5317 47.3297 9.5317 48.688 10.7243C49.0815 11.6286 49.1376 12.4893 49.1303 13.4622C49.1289 13.6886 49.1289 13.6886 49.1275 13.9196C48.9954 20.7108 46.0054 27.9624 43.158 33.9985C42.9496 34.4436 42.7475 34.8912 42.5465 35.3396C39.3666 42.3539 34.6168 48.7709 28.4111 53.3823C28.2237 53.5253 28.0363 53.6683 27.8432 53.8157C24.9092 55.9621 21.5822 57.5819 18.0814 58.5471C17.9087 58.5975 17.7361 58.6478 17.5583 58.6996C15.4071 59.2338 12.8785 59.1576 10.8123 58.3559C10.5719 58.2649 10.5719 58.2649 10.3266 58.172C8.0642 57.1844 6.55375 55.2547 5.64743 52.9997C5.14066 51.413 4.98046 49.9252 5.00182 48.2652C5.00432 47.9389 5.00432 47.9389 5.00687 47.6059C5.03657 45.8927 5.23426 44.3316 5.64743 42.67C5.69847 42.431 5.74952 42.1921 5.80211 41.9459C7.1422 35.8374 10.3532 30.0945 14.2555 25.2625C14.4405 25.0191 14.4405 25.0191 14.6291 24.7708C16.9508 21.7818 19.7764 19.2096 22.8636 17.037C22.9797 16.9536 23.0959 16.8703 23.2155 16.7844C27.6691 13.6013 32.8094 11.1427 38.1669 9.95918C38.3207 9.92398 38.4745 9.88878 38.6329 9.85251C40.1139 9.54505 41.56 9.51944 43.0688 9.52878Z" fill="#7D5232"/>
<path d="M94.7891 128.942C94.963 129.009 95.1368 129.076 95.3159 129.145C99.6505 131.044 102.255 135.672 103.971 139.846C104.818 142.025 105.288 144.245 105.693 146.541C105.726 146.72 105.76 146.899 105.795 147.083C106.311 150.585 106.117 154.497 104.928 157.827C104.852 158.047 104.776 158.267 104.698 158.494C103.322 162.097 100.712 164.891 97.2303 166.517C92.6312 168.53 86.7233 168.314 82.1118 166.524C78.5443 165.062 76.0539 162.683 74.3875 159.217C71.8154 152.985 72.9129 145.741 75.4328 139.678C76.4798 137.259 77.7022 134.92 79.4858 132.959C79.5684 132.868 79.6509 132.776 79.736 132.682C83.7095 128.321 89.2677 126.713 94.7891 128.942Z" fill="#FFBB4D"/>
<path d="M101.228 127.099C103.582 129.086 105.323 131.428 106.84 134.107C106.903 134.217 106.966 134.327 107.03 134.44C108.952 137.875 110.063 141.711 110.666 145.585C110.7 145.795 110.7 145.795 110.733 146.009C111.691 152.312 110.808 159.23 107.077 164.546C103.459 169.206 98.9103 171.42 93.1946 172.484C86.4986 173.177 79.8573 171.84 74.5207 167.617C70.7443 164.528 68.6879 159.95 68.1997 155.149C68.1306 154.078 68.125 153.006 68.1279 151.933C68.128 151.788 68.1281 151.642 68.1283 151.492C68.1414 147.46 68.7826 143.656 70.1126 139.846C70.1554 139.721 70.1982 139.597 70.2423 139.469C71.6695 135.407 73.8641 131.875 76.8078 128.751C76.915 128.634 77.0223 128.516 77.1328 128.395C83.5447 121.626 94.117 121.257 101.228 127.099ZM81.2075 131.238C81.0267 131.401 80.846 131.564 80.6598 131.732C77.2795 134.889 75.4234 139.106 74.1297 143.48C74.0713 143.673 74.0128 143.866 73.9526 144.065C72.517 149.262 72.3312 155.311 74.8538 160.212C77.0428 163.938 80.0878 165.95 84.1478 167.221C85.9399 167.662 87.6731 167.839 89.5167 167.822C89.7268 167.821 89.9368 167.819 90.1533 167.818C94.5674 167.759 98.5247 166.6 101.676 163.375C103.887 161.041 104.906 158.219 105.608 155.139C105.663 154.897 105.726 154.656 105.796 154.418C107.159 147.936 104.79 140.377 101.484 134.872C101.013 134.194 100.502 133.576 99.954 132.959C99.775 132.74 99.775 132.74 99.5924 132.516C97.6272 130.159 94.7806 128.457 91.7285 127.986C87.7905 127.63 84.184 128.548 81.2075 131.238Z" fill="black"/>
<path d="M60.542 63.8786C62.4999 64.8001 63.4985 66.2075 64.2304 68.1834C64.6215 70.0738 64.3201 71.6564 63.3561 73.3333C62.7043 74.2807 61.9414 74.8471 60.9306 75.3807C61.2356 76.0458 61.6332 76.6131 62.0544 77.21C63.3979 79.2045 63.8342 81.0972 63.8358 83.4628C63.8382 83.6357 63.8405 83.8085 63.8429 83.9866C63.8491 86.8269 62.7469 89.3993 60.7393 91.4492C60.6131 91.4492 60.4868 91.4492 60.3567 91.4492C60.2936 91.6386 60.2305 91.828 60.1654 92.0231C59.3272 92.8868 58.2004 93.4296 57.1406 93.9719C56.9573 94.0674 56.9573 94.0674 56.7703 94.1648C54.834 95.1256 52.9755 95.3769 50.828 95.3587C50.473 95.3568 50.473 95.3568 50.1107 95.3548C48.4253 95.3251 47.0013 95.1686 45.436 94.5099C45.1697 94.4126 45.1697 94.4126 44.898 94.3133C41.9249 93.1266 39.8212 90.8797 38.4203 88.0538C37.8081 86.5513 37.4854 85.1842 37.4974 83.5584C37.4985 83.3838 37.4996 83.2091 37.5007 83.0291C37.5841 79.8409 39.1517 77.2853 41.4122 75.1088C42.3616 74.3023 43.3884 73.6864 44.4796 73.0853C44.6171 73.0049 44.7547 72.9245 44.8965 72.8417C46.8783 71.748 49.2259 71.5197 51.4497 71.543C51.6079 71.5438 51.7661 71.5447 51.9291 71.5456C52.3153 71.5478 52.7015 71.5512 53.0877 71.5549C53.0788 71.3263 53.0699 71.0978 53.0608 70.8622C52.9958 68.5121 53.1728 66.9856 54.8205 65.2027C56.4434 63.7039 58.4014 63.2505 60.542 63.8786Z" fill="#F4A99C"/>
<path d="M122.598 64.1065C124.19 65.0303 125.1 66.2179 125.778 67.9204C126.128 69.2378 126.019 70.6098 125.778 71.9375C125.973 71.9345 125.973 71.9345 126.172 71.9314C126.77 71.9234 127.368 71.9185 127.966 71.9136C128.171 71.9104 128.375 71.9072 128.586 71.9039C132.241 71.8815 135.697 73.3712 138.355 75.8799C140.503 78.1582 141.569 80.8441 141.545 83.9744C141.432 87.1166 140.002 89.648 137.83 91.8318C137.716 91.9516 137.603 92.0715 137.487 92.195C135.063 94.5601 131.405 95.5908 128.099 95.5573C126.554 95.5005 125.141 95.1769 123.674 94.7012C123.374 94.6072 123.374 94.6072 123.068 94.5114C119.801 93.3289 117.613 90.7491 116.108 87.7176C115.537 86.3399 115.379 85.1177 115.389 83.6422C115.39 83.4731 115.391 83.3041 115.392 83.1299C115.446 80.2355 116.659 77.9018 118.318 75.5721C118.179 75.4984 118.179 75.4984 118.037 75.4234C116.642 74.6267 115.247 73.426 114.76 71.8396C114.42 69.7361 114.544 67.7915 115.717 65.9746C117.353 63.8458 120.118 62.9793 122.598 64.1065Z" fill="#F4A99C"/>
<path d="M160.402 124.16C162.784 126.165 164.394 128.531 165.567 131.429C165.621 131.559 165.676 131.688 165.732 131.821C167.541 136.598 167.195 142.843 165.184 147.498C161.963 154.495 156.013 159.756 148.833 162.496C144.721 163.983 140.477 164.681 136.108 164.522C135.818 163.504 135.764 162.443 135.657 161.393C135.618 161.01 135.578 160.628 135.538 160.245C135.512 160.002 135.487 159.759 135.462 159.509C135.427 159.176 135.427 159.176 135.393 158.837C135.345 158.242 135.334 157.659 135.343 157.062C135.498 157.006 135.653 156.951 135.813 156.893C136.871 156.501 137.811 156.131 138.738 155.484C140.035 154.732 141.448 154.862 142.903 154.841C144.7 154.802 146.117 154.508 147.777 153.81C148.008 153.715 148.239 153.621 148.477 153.523C151.287 152.251 153.192 150.3 154.329 147.426C154.584 146.696 154.706 146.03 154.783 145.262C154.96 144.029 155.53 143.185 156.202 142.167C159.716 136.824 160.197 130.384 160.402 124.16Z" fill="#7D5232"/>
<path d="M97.5389 70.7419C98.4812 71.4993 99.1896 72.5136 99.5714 73.6591C99.6905 75.1779 99.2958 76.2284 98.3519 77.4012C96.9204 78.922 94.9169 79.8053 92.8762 80.163C92.6237 80.163 92.3712 80.163 92.111 80.163C92.1154 81.024 92.1303 81.8846 92.1469 82.7454C92.148 82.9881 92.1491 83.2307 92.1503 83.4807C92.1837 84.906 92.2727 85.9695 93.2588 87.0495C94.4047 88.1196 95.9584 88.151 97.446 88.131C99.7706 88.0162 101.206 86.8893 102.752 85.2673C103.052 84.9275 103.344 84.5792 103.624 84.2227C103.993 83.7704 104.154 83.6306 104.727 83.5607C105.791 83.5263 106.383 83.6545 107.223 84.3714C107.747 85.1566 107.741 85.7454 107.606 86.6669C106.788 89.1186 104.248 90.8988 102.058 92.0231C101.367 92.3168 100.672 92.5669 99.954 92.7882C99.7646 92.8513 99.5752 92.9145 99.3801 92.9795C95.8725 93.2384 93.0533 93.1831 90.2213 90.9433C89.7883 90.6153 89.7883 90.6153 89.0504 90.684C88.6152 90.9504 88.6152 90.9504 88.1776 91.3057C87.1872 92.0316 86.1993 92.4274 85.0333 92.7882C84.7492 92.8829 84.7492 92.8829 84.4594 92.9795C80.6575 93.3004 77.5231 92.972 74.5123 90.4927C74.2889 90.3156 74.2889 90.3156 74.0609 90.1348C72.7346 89.0288 71.3692 87.6302 71.2005 85.842C71.2714 85.0063 71.5009 84.6333 72.0255 83.9888C72.8805 83.4188 73.7016 83.4684 74.7036 83.6062C75.2057 83.9649 75.2057 83.9649 75.66 84.5627C77.0158 86.2021 78.5786 87.7932 80.8105 88.048C81.2188 88.071 81.6235 88.0785 82.0324 88.0777C82.1761 88.0776 82.3198 88.0776 82.4678 88.0776C83.5942 88.0544 84.447 87.8294 85.4159 87.2408C85.552 87.1791 85.6881 87.1175 85.8283 87.054C86.3304 86.7753 86.3906 86.434 86.5636 85.9017C86.6267 85.7755 86.6899 85.6492 86.7549 85.5192C86.7844 85.1167 86.8027 84.7134 86.8154 84.3101C86.8234 84.0697 86.8315 83.8293 86.8397 83.5816C86.8472 83.3293 86.8547 83.0771 86.8625 82.8172C86.8708 82.5609 86.8791 82.3046 86.8875 82.0483C86.9079 81.4199 86.9274 80.7914 86.9462 80.163C86.6518 80.1279 86.6518 80.1279 86.3514 80.092C84.1935 79.7432 82.0534 78.7289 80.6373 77.0306C79.8446 75.8858 79.5018 74.881 79.6771 73.4678C80.1154 71.9399 81.3169 70.9502 82.6137 70.1187C83.8626 69.4394 85.1743 69.1378 86.5636 68.8768C86.7382 68.8413 86.9128 68.8058 87.0926 68.7692C90.635 68.2901 94.5283 68.6835 97.5389 70.7419Z" fill="black"/>
<path d="M122.598 64.1065C124.19 65.0303 125.1 66.2179 125.778 67.9204C125.934 68.5062 125.934 68.5062 125.97 69.0682C125.984 69.1885 125.998 69.3088 126.012 69.4328C126.123 70.9954 125.521 72.6767 124.595 73.9341C123.062 75.3308 121.642 75.8474 119.59 75.8284C118.081 75.6878 116.937 74.9268 115.921 73.8318C114.638 72.1707 114.503 70.3287 114.683 68.303C115.033 66.6879 115.944 65.4386 117.297 64.51C119.018 63.5382 120.761 63.2714 122.598 64.1065Z" fill="black"/>
<path d="M60.542 63.8786C62.4999 64.8002 63.4985 66.2075 64.2304 68.1834C64.6228 70.0804 64.3054 71.6333 63.3696 73.3266C62.6075 74.4632 61.4788 75.2717 60.1729 75.6931C58.268 76.0361 56.7964 75.694 55.1919 74.6156C54.1334 73.7038 53.3457 72.3592 53.0877 70.9811C52.9348 68.828 53.0894 67.2855 54.4745 65.5771C56.108 63.8095 58.2038 63.1926 60.542 63.8786Z" fill="black"/>
<mask id="mask0_361_195" style="mask-type:alpha" maskUnits="userSpaceOnUse" x="112" y="61" width="17" height="26">
<path d="M119.01 61.003C117.157 60.9506 115.492 61.5796 114.139 62.8485C113.36 63.6017 112.858 64.4096 112.431 65.3961C112.392 65.4848 112.354 65.5735 112.314 65.6649C111.758 67.2297 111.981 69.0761 112.666 70.5499C112.946 71.1301 113.258 71.6563 113.694 72.134C113.762 72.2091 113.829 72.2843 113.899 72.3617C115.031 73.5613 116.665 74.4368 118.34 74.499C118.531 74.5005 118.721 74.4997 118.911 74.4975C118.977 74.4972 119.042 74.4968 119.11 74.4964C119.27 74.4954 119.43 74.4939 119.59 74.4923C119.569 74.5803 119.548 74.6683 119.526 74.7591C117.85 81.7438 117.85 81.7438 119.331 84.2854C119.993 85.3492 121.211 86.1088 122.416 86.4096C124.01 86.6425 125.433 86.3861 126.77 85.4624C127.79 84.6428 128.435 83.3575 128.602 82.0724C128.947 78.3931 125.99 75.0343 123.801 72.3867C123.973 72.0959 124.153 71.8116 124.338 71.5287C125.283 70.0341 125.782 68.2365 125.386 66.4722C124.911 64.5796 123.865 62.989 122.201 61.943C121.19 61.3794 120.164 61.067 119.01 61.003Z" fill="black"/>
</mask>
<g mask="url(#mask0_361_195)">
<rect width="11.4702" height="14.2012" transform="matrix(-1 0 0 1 128.63 72.1919)" fill="black"/>
<path d="M122.117 74.0712C120.048 80.5133 120.048 80.5133 120.938 82.662C121.31 83.3774 121.848 83.8852 122.6 84.1859C123.465 84.4499 124.255 84.4375 125.065 84.0095C125.754 83.5276 126.248 82.9107 126.412 82.0724C126.672 79.3585 124.457 76.6748 122.859 74.7028C122.336 74.0712 122.336 74.0712 122.117 74.0712Z" fill="#AADCE7"/>
</g>
<mask id="mask1_361_195" style="mask-type:alpha" maskUnits="userSpaceOnUse" x="49" y="61" width="17" height="26">
<path d="M58.6196 61.003C60.4731 60.9506 62.1378 61.5796 63.4907 62.8485C64.2697 63.6017 64.7716 64.4096 65.1986 65.3961C65.2373 65.4848 65.2759 65.5735 65.3157 65.6649C65.8719 67.2297 65.6486 69.0761 64.9639 70.5499C64.6832 71.1301 64.372 71.6563 63.9353 72.134C63.8678 72.2091 63.8004 72.2843 63.731 72.3617C62.5985 73.5613 60.9645 74.4368 59.2894 74.499C59.0991 74.5005 58.909 74.4997 58.7187 74.4975C58.653 74.4972 58.5874 74.4968 58.5198 74.4964C58.3597 74.4954 58.1997 74.4939 58.0396 74.4923C58.0608 74.5803 58.082 74.6683 58.1039 74.7591C59.7793 81.7438 59.7793 81.7438 58.2983 84.2854C57.6371 85.3492 56.4188 86.1088 55.2139 86.4096C53.6193 86.6425 52.1967 86.3861 50.8596 85.4624C49.8393 84.6428 49.195 83.3575 49.0277 82.0724C48.6823 78.3931 51.6401 75.0343 53.8284 72.3867C53.6562 72.0959 53.4763 71.8116 53.2915 71.5287C52.3462 70.0341 51.8474 68.2365 52.2432 66.4722C52.719 64.5796 53.7642 62.989 55.4287 61.943C56.4393 61.3794 57.466 61.067 58.6196 61.003Z" fill="black"/>
</mask>
<g mask="url(#mask1_361_195)">
<rect x="49" y="72.1919" width="11.4702" height="14.2012" fill="black"/>
<path d="M55.5129 74.0712C57.582 80.5133 57.582 80.5133 56.692 82.662C56.3198 83.3774 55.7815 83.8852 55.0299 84.1859C54.1647 84.4499 53.3748 84.4375 52.5651 84.0095C51.876 83.5276 51.3813 82.9107 51.2175 82.0724C50.9576 79.3585 53.1728 76.6748 54.7707 74.7028C55.2934 74.0712 55.2934 74.0712 55.5129 74.0712Z" fill="#AADCE7"/>
</g>
<path d="M118.928 46.0397C119.721 46.3458 120.186 47.0404 120.696 47.6511C122.985 50.395 126.769 52.3316 130.532 52.8012C130.851 52.825 131.169 52.8425 131.489 52.856C131.589 52.8603 131.69 52.8647 131.794 52.8691C131.992 52.8766 132.19 52.8824 132.388 52.8861C133.136 52.9092 133.746 53.0241 134.328 53.4886C134.416 53.5901 134.416 53.5901 134.506 53.6936C134.598 53.7951 134.598 53.7951 134.691 53.8986C135.024 54.3471 135.037 54.8406 134.964 55.3625C134.731 56.0341 134.394 56.4079 133.701 56.7437C131.502 57.412 128.479 56.6417 126.378 55.938C126.247 55.8944 126.247 55.8944 126.114 55.8499C122.576 54.6411 119.08 52.5043 116.844 49.694C116.791 49.6274 116.738 49.5608 116.683 49.4922C116.179 48.8359 115.917 48.2256 116.024 47.4209C116.605 46.2088 117.524 45.8736 118.928 46.0397Z" fill="black"/>
<path d="M62.0917 46.2668C62.6224 46.6729 62.8779 47.0182 62.9939 47.651C63.0818 48.9798 62.2011 49.8547 61.3462 50.8011C58.1551 54.2434 53.2952 56.6413 48.4925 56.9615C48.2036 56.975 47.9152 56.9816 47.626 56.9865C47.5296 56.9908 47.4331 56.9951 47.3337 56.9996C46.5917 57.01 46.0938 56.827 45.5241 56.3657C45.0895 55.8703 44.9697 55.409 45.0061 54.7641C45.1118 54.0708 45.504 53.6996 46.0383 53.2702C46.4075 53.0225 46.7543 52.9973 47.1906 52.9747C51.3735 52.7237 55.1068 51.2955 58.068 48.39C58.3968 48.0266 58.6717 47.6501 58.9463 47.2485C59.6913 46.1828 60.7759 45.6382 62.0917 46.2668Z" fill="black"/>
</svg>
