<svg width="180" height="199" viewBox="0 0 180 199" fill="none" xmlns="http://www.w3.org/2000/svg">
<path d="M107.59 1.54211C107.757 1.5709 107.925 1.59968 108.097 1.62934C114.653 2.78595 121.105 4.84465 127.29 7.28001C127.415 7.1649 127.415 7.1649 127.543 7.04747C128.244 6.42279 128.87 5.95561 129.753 5.60646C130.024 5.49551 130.024 5.49551 130.301 5.38232C131.846 4.87092 133.279 4.725 134.905 4.73382C135.22 4.73544 135.22 4.73544 135.542 4.73709C147.448 4.91125 158.536 11.5066 166.662 19.8376C167.341 20.5485 167.968 21.2938 168.577 22.0656C169.014 22.6169 169.471 23.1474 169.93 23.6808C176.248 31.261 180.652 41.7255 179.887 51.6531C179.525 54.9788 177.919 58.3017 175.375 60.4968C172.41 62.7587 169.009 63.7446 165.304 63.7266C165.154 63.7273 165.004 63.7281 164.85 63.7288C163.67 63.7269 162.508 63.6333 161.335 63.5114C161.382 63.6458 161.429 63.7802 161.478 63.9187C162.508 66.8752 163.441 69.8026 164.013 72.8833C164.044 73.0414 164.075 73.1994 164.107 73.3622C165.136 78.7949 165.002 84.8968 163.821 90.2883C163.768 90.5427 163.768 90.5427 163.713 90.8023C162.94 94.3904 161.727 97.7657 159.996 100.999C159.907 101.178 159.817 101.357 159.725 101.541C157.591 105.71 154.297 109.419 150.624 112.284C150.468 112.406 150.468 112.406 150.308 112.531C146.78 115.271 142.768 117.436 138.575 118.978C138.695 119.062 138.816 119.145 138.941 119.232C142.248 121.576 145.293 124.356 147.755 127.585C147.837 127.691 147.919 127.798 148.004 127.908C149.702 130.126 151.127 132.456 152.453 134.912C152.52 135.035 152.586 135.157 152.654 135.284C153.111 136.145 153.111 136.145 153.111 136.574C153.237 136.574 153.363 136.574 153.493 136.574C153.526 136.348 153.526 136.348 153.56 136.118C153.656 135.584 153.768 135.069 153.899 134.543C153.94 134.38 153.98 134.216 154.022 134.047C154.106 133.715 154.191 133.383 154.277 133.051C155.032 129.994 155.065 127.04 154.972 123.915C154.958 123.415 154.95 122.915 154.943 122.415C154.934 122.19 154.934 122.19 154.925 121.96C154.914 120.816 155.257 120.055 155.98 119.169C156.986 118.384 158.203 118.461 159.422 118.595C161.988 119.213 163.904 120.797 165.734 122.612C165.902 122.778 166.071 122.944 166.244 123.115C168.743 125.714 170.118 128.875 171.054 132.318C171.093 132.463 171.133 132.607 171.174 132.756C172.118 136.435 172.147 141.153 171.089 144.798C171.021 145.06 170.953 145.321 170.885 145.583C169.61 150.353 167.076 154.81 163.439 158.187C163.281 158.345 163.123 158.502 162.961 158.665C162.803 158.823 162.645 158.98 162.483 159.143C162.387 159.242 162.292 159.341 162.194 159.443C161.41 160.249 160.59 160.95 159.685 161.618C159.552 161.716 159.418 161.815 159.281 161.917C154.278 165.581 148.518 167.8 142.4 168.706C142.1 168.76 142.1 168.76 141.794 168.815C140.724 168.935 139.662 168.917 138.587 168.909C138.365 168.909 138.143 168.908 137.914 168.907C137.369 168.905 136.824 168.901 136.279 168.897C136.293 169.062 136.306 169.227 136.32 169.397C136.469 171.403 136.508 173.4 136.516 175.412C136.517 175.58 136.518 175.749 136.519 175.923C136.523 176.814 136.525 177.706 136.527 178.597C136.529 179.508 136.536 180.418 136.543 181.329C136.548 182.039 136.55 182.749 136.551 183.459C136.552 183.795 136.554 184.13 136.557 184.465C136.595 188.201 135.962 191.478 133.296 194.282C130.897 196.56 127.959 197.361 124.804 197.97C124.661 198.003 124.518 198.037 124.371 198.072C123.703 198.185 123.044 198.195 122.369 198.2C122.155 198.202 122.155 198.202 121.938 198.204C116.611 198.243 111.367 198.035 107.227 194.194C104.602 191.369 103.887 187.357 103.956 183.625C103.731 183.68 103.506 183.735 103.275 183.792C100.368 184.435 97.3715 184.608 94.4032 184.62C94.1742 184.621 93.9452 184.623 93.7093 184.624C92.9728 184.627 92.2364 184.628 91.4999 184.629C91.2487 184.629 90.9974 184.63 90.7385 184.63C86.76 184.632 82.8512 184.48 78.9005 184.007C78.6012 183.972 78.3019 183.937 78.0026 183.903C77.2179 183.811 76.4334 183.718 75.649 183.625C75.651 183.83 75.653 184.035 75.6551 184.247C75.6244 187.817 74.3682 191.492 71.9014 194.09C68.2791 197.525 63.3024 198.205 58.5309 198.209C58.3856 198.209 58.2403 198.209 58.0905 198.209C53.5862 198.203 49.0761 197.458 45.6759 194.236C43.0397 191.38 42.6906 187.887 42.7009 184.18C42.7005 183.862 42.6999 183.543 42.6993 183.225C42.6982 182.381 42.6998 181.536 42.7024 180.692C42.7039 180.168 42.7047 179.644 42.7055 179.12C42.7136 174.111 42.7634 169.114 43.1342 164.116C43.1453 163.963 43.1564 163.811 43.1678 163.654C43.404 160.42 43.6962 157.198 44.0905 153.979C43.8815 154.05 43.6724 154.122 43.4571 154.196C43.3324 154.238 43.2077 154.281 43.0792 154.325C42.8212 154.413 42.5633 154.502 42.3056 154.591C42.1351 154.649 42.1351 154.649 41.9612 154.707C41.847 154.746 41.7329 154.786 41.6152 154.826C38.6595 155.648 34.6849 155.537 31.8497 154.361C31.6798 154.304 31.5099 154.247 31.3349 154.187C28.7887 153.289 26.5494 151.387 25.3467 148.97C23.9562 146.046 23.8897 142.264 24.891 139.179C24.9783 138.951 25.0655 138.722 25.1555 138.487C25.2325 138.28 25.2325 138.28 25.311 138.068C26.5202 134.859 28.1798 131.983 30.3196 129.306C30.4502 129.139 30.5809 128.971 30.7155 128.799C33.0848 125.822 35.7875 123.23 38.7112 120.807C38.8478 120.694 38.9843 120.58 39.125 120.464C39.7093 119.985 40.2893 119.524 40.9242 119.115C41.4282 118.835 41.4282 118.835 41.6041 118.404C41.4669 118.38 41.3296 118.357 41.1882 118.332C36.3248 117.256 31.3422 113.999 27.6419 110.753C27.4774 110.61 27.313 110.466 27.1436 110.319C26.6664 109.896 26.1963 109.466 25.7293 109.032C25.602 108.915 25.4748 108.798 25.3437 108.678C18.7792 102.407 15.2047 92.6509 14.9631 83.6967C14.9479 82.8495 14.9449 82.0027 14.9468 81.1555C14.9469 80.9763 14.947 80.7971 14.9471 80.6125C14.9625 74.8193 15.6376 68.3937 18.27 63.1289C18.0318 63.1905 17.7936 63.2522 17.5483 63.3157C13.7169 64.1616 9.74421 63.4276 6.39345 61.451C3.18894 59.3859 1.32828 56.0228 0.476519 52.3808C-1.36958 43.6159 2.42404 33.9501 7.11475 26.6968C7.56818 26.0162 8.03616 25.3474 8.51555 24.685C8.59655 24.5728 8.67754 24.4607 8.76098 24.3451C11.2709 20.9074 14.1633 17.7599 17.5049 15.1218C17.8478 14.8351 18.1904 14.5482 18.533 14.2611C20.5423 12.6218 22.713 11.2373 24.9642 9.9577C25.1018 9.87948 25.2393 9.80126 25.3811 9.72067C28.9322 7.72549 32.6806 6.34436 36.6313 5.36738C36.7672 5.33308 36.9031 5.29877 37.0431 5.26343C39.0857 4.7716 41.1394 4.74016 43.2298 4.73382C43.3623 4.7331 43.4948 4.73238 43.6313 4.73163C46.6788 4.72323 49.9289 5.17766 52.3148 7.28001C52.3148 7.40624 52.3148 7.53248 52.3148 7.66254C52.4995 7.57871 52.6842 7.49488 52.8744 7.40852C59.4751 4.48842 66.4458 2.57421 73.5451 1.35085C73.7262 1.31932 73.9074 1.28779 74.094 1.25531C85.0218 -0.575597 96.6919 -0.338433 107.59 1.54211Z" fill="#F2D3A3"/>
<path d="M107.59 1.54211C107.757 1.5709 107.925 1.59968 108.097 1.62934C114.653 2.78595 121.105 4.84465 127.29 7.28001C127.415 7.1649 127.415 7.1649 127.543 7.04747C128.244 6.42279 128.87 5.95561 129.753 5.60646C130.024 5.49551 130.024 5.49551 130.301 5.38232C131.846 4.87092 133.279 4.725 134.905 4.73382C135.22 4.73544 135.22 4.73544 135.542 4.73709C147.448 4.91125 158.536 11.5066 166.662 19.8376C167.341 20.5485 167.968 21.2938 168.577 22.0656C169.014 22.6169 169.471 23.1474 169.93 23.6808C176.248 31.261 180.652 41.7255 179.887 51.6531C179.525 54.9788 177.919 58.3017 175.375 60.4968C172.41 62.7587 169.009 63.7446 165.304 63.7266C165.154 63.7273 165.004 63.7281 164.85 63.7288C163.67 63.7269 162.508 63.6333 161.335 63.5114C161.382 63.6458 161.429 63.7802 161.478 63.9187C162.508 66.8752 163.441 69.8026 164.013 72.8833C164.044 73.0414 164.075 73.1994 164.107 73.3622C165.136 78.7949 165.002 84.8968 163.821 90.2883C163.768 90.5427 163.768 90.5427 163.713 90.8023C162.94 94.3904 161.727 97.7657 159.996 100.999C159.907 101.178 159.817 101.357 159.725 101.541C157.591 105.71 154.297 109.419 150.624 112.284C150.468 112.406 150.468 112.406 150.308 112.531C146.78 115.271 142.768 117.436 138.575 118.978C138.695 119.062 138.816 119.145 138.941 119.232C142.248 121.576 145.293 124.356 147.755 127.585C147.837 127.691 147.919 127.798 148.004 127.908C149.702 130.126 151.127 132.456 152.453 134.912C152.52 135.035 152.586 135.157 152.654 135.284C153.111 136.145 153.111 136.145 153.111 136.574C153.237 136.574 153.363 136.574 153.493 136.574C153.526 136.348 153.526 136.348 153.56 136.118C153.656 135.584 153.768 135.069 153.899 134.543C153.94 134.38 153.98 134.216 154.022 134.047C154.106 133.715 154.191 133.383 154.277 133.051C155.032 129.994 155.065 127.04 154.972 123.915C154.958 123.415 154.95 122.915 154.943 122.415C154.934 122.19 154.934 122.19 154.925 121.96C154.914 120.816 155.257 120.055 155.98 119.169C156.986 118.384 158.203 118.461 159.422 118.595C161.988 119.213 163.904 120.797 165.734 122.612C165.902 122.778 166.071 122.944 166.244 123.115C168.743 125.714 170.118 128.875 171.054 132.318C171.093 132.463 171.133 132.607 171.174 132.756C172.118 136.435 172.147 141.153 171.089 144.798C171.021 145.06 170.953 145.321 170.885 145.583C169.61 150.353 167.076 154.81 163.439 158.187C163.281 158.345 163.123 158.502 162.961 158.665C162.803 158.823 162.645 158.98 162.483 159.143C162.387 159.242 162.292 159.341 162.194 159.443C161.41 160.249 160.59 160.95 159.685 161.618C159.552 161.716 159.418 161.815 159.281 161.917C154.278 165.581 148.518 167.8 142.4 168.706C142.1 168.76 142.1 168.76 141.794 168.815C140.724 168.935 139.662 168.917 138.587 168.909C138.365 168.909 138.143 168.908 137.914 168.907C137.369 168.905 136.824 168.901 136.279 168.897C136.293 169.062 136.306 169.227 136.32 169.397C136.469 171.403 136.508 173.4 136.516 175.412C136.517 175.58 136.518 175.749 136.519 175.923C136.523 176.814 136.525 177.706 136.527 178.597C136.529 179.508 136.536 180.418 136.543 181.329C136.548 182.039 136.55 182.749 136.551 183.459C136.552 183.795 136.554 184.13 136.557 184.465C136.595 188.201 135.962 191.478 133.296 194.282C130.897 196.56 127.959 197.361 124.804 197.97C124.661 198.003 124.518 198.037 124.371 198.072C123.703 198.185 123.044 198.195 122.369 198.2C122.155 198.202 122.155 198.202 121.938 198.204C116.611 198.243 111.367 198.035 107.227 194.194C104.602 191.369 103.887 187.357 103.956 183.625C103.731 183.68 103.506 183.735 103.275 183.792C100.368 184.435 97.3715 184.608 94.4032 184.62C94.1742 184.621 93.9452 184.623 93.7093 184.624C92.9728 184.627 92.2364 184.628 91.4999 184.629C91.2487 184.629 90.9974 184.63 90.7385 184.63C86.76 184.632 82.8512 184.48 78.9005 184.007C78.6012 183.972 78.3019 183.937 78.0026 183.903C77.2179 183.811 76.4334 183.718 75.649 183.625C75.651 183.83 75.653 184.035 75.6551 184.247C75.6244 187.817 74.3682 191.492 71.9014 194.09C68.2791 197.525 63.3024 198.205 58.5309 198.209C58.3856 198.209 58.2403 198.209 58.0905 198.209C53.5862 198.203 49.0761 197.458 45.6759 194.236C43.0397 191.38 42.6906 187.887 42.7009 184.18C42.7005 183.862 42.6999 183.543 42.6993 183.225C42.6982 182.381 42.6998 181.536 42.7024 180.692C42.7039 180.168 42.7047 179.644 42.7055 179.12C42.7136 174.111 42.7634 169.114 43.1342 164.116C43.1453 163.963 43.1564 163.811 43.1678 163.654C43.404 160.42 43.6962 157.198 44.0905 153.979C43.8815 154.05 43.6724 154.122 43.4571 154.196C43.3324 154.238 43.2077 154.281 43.0792 154.325C42.8212 154.413 42.5633 154.502 42.3056 154.591C42.1351 154.649 42.1351 154.649 41.9612 154.707C41.847 154.746 41.7329 154.786 41.6152 154.826C38.6595 155.648 34.6849 155.537 31.8497 154.361C31.6798 154.304 31.5099 154.247 31.3349 154.187C28.7887 153.289 26.5494 151.387 25.3467 148.97C23.9562 146.046 23.8897 142.264 24.891 139.179C24.9783 138.951 25.0655 138.722 25.1555 138.487C25.2325 138.28 25.2325 138.28 25.311 138.068C26.5202 134.859 28.1798 131.983 30.3196 129.306C30.4502 129.139 30.5809 128.971 30.7155 128.799C33.0848 125.822 35.7875 123.23 38.7112 120.807C38.8478 120.694 38.9843 120.58 39.125 120.464C39.7093 119.985 40.2893 119.524 40.9242 119.115C41.4282 118.835 41.4282 118.835 41.6041 118.404C41.4669 118.38 41.3296 118.357 41.1882 118.332C36.3248 117.256 31.3422 113.999 27.6419 110.753C27.4774 110.61 27.313 110.466 27.1436 110.319C26.6664 109.896 26.1963 109.466 25.7293 109.032C25.602 108.915 25.4748 108.798 25.3437 108.678C18.7792 102.407 15.2047 92.6509 14.9631 83.6967C14.9479 82.8495 14.9449 82.0027 14.9468 81.1555C14.9469 80.9763 14.947 80.7971 14.9471 80.6125C14.9625 74.8193 15.6376 68.3937 18.27 63.1289C18.0318 63.1905 17.7936 63.2522 17.5483 63.3157C13.7169 64.1616 9.74421 63.4276 6.39345 61.451C3.18894 59.3859 1.32828 56.0228 0.476519 52.3808C-1.36958 43.6159 2.42404 33.9501 7.11475 26.6968C7.56818 26.0162 8.03616 25.3474 8.51555 24.685C8.59655 24.5728 8.67754 24.4607 8.76098 24.3451C11.2709 20.9074 14.1633 17.7599 17.5049 15.1218C17.8478 14.8351 18.1904 14.5482 18.533 14.2611C20.5423 12.6218 22.713 11.2373 24.9642 9.9577C25.1018 9.87948 25.2393 9.80126 25.3811 9.72067C28.9322 7.72549 32.6806 6.34436 36.6313 5.36738C36.7672 5.33308 36.9031 5.29877 37.0431 5.26343C39.0857 4.7716 41.1394 4.74016 43.2298 4.73382C43.3623 4.7331 43.4948 4.73238 43.6313 4.73163C46.6788 4.72323 49.9289 5.17766 52.3148 7.28001C52.3148 7.40624 52.3148 7.53248 52.3148 7.66254C52.4995 7.57871 52.6842 7.49488 52.8744 7.40852C59.4751 4.48842 66.4458 2.57421 73.5451 1.35085C73.7262 1.31932 73.9074 1.28779 74.094 1.25531C85.0218 -0.575597 96.6919 -0.338433 107.59 1.54211ZM76.6053 5.7499C76.3024 5.78566 76.3024 5.78566 75.9933 5.82214C69.4967 6.59587 63.2009 8.18593 57.0964 10.5315C56.9221 10.5977 56.7478 10.6639 56.5682 10.7322C56.1243 10.9031 55.6835 11.0798 55.2436 11.2607C55.0101 11.3566 54.7766 11.4525 54.536 11.5513C54.0057 11.8209 54.0057 11.8209 53.8629 12.3119C53.8429 12.8853 53.8562 13.4487 53.8808 14.022C53.9409 17.41 53.1104 20.8867 52.1236 24.1112C52.0662 24.2988 52.0088 24.4864 51.9497 24.6797C49.0815 33.9102 44.9052 43.4896 38.2025 50.6266C37.8391 51.0149 37.4972 51.4118 37.1572 51.8205C34.271 55.1066 29.969 58.9141 25.7741 60.3317C24.7631 60.6825 24.1787 60.9346 23.6119 61.8692C23.2908 62.5986 23.0537 63.3487 22.8295 64.1127C22.6544 64.7089 22.4656 65.3 22.2761 65.8918C21.5055 68.344 20.8522 70.8009 20.4523 73.3418C20.3965 73.6961 20.3359 74.0496 20.2719 74.4025C19.9511 76.3238 19.9266 78.2214 19.931 80.1654C19.9316 80.7189 19.9271 81.2722 19.9222 81.8256C19.9111 85.0695 20.1684 88.3433 21.0792 91.4717C21.1276 91.6431 21.1761 91.8145 21.2261 91.991C23.7002 100.409 29.2972 107.081 36.9517 111.281C41.1228 113.51 45.4922 115.179 50.1579 116.01C50.328 116.041 50.4981 116.072 50.6734 116.104C50.8273 116.13 50.9812 116.156 51.1398 116.183C51.7736 116.364 52.1052 116.752 52.5061 117.256C52.5692 117.32 52.6323 117.383 52.6974 117.448C52.7792 118.151 52.7155 118.555 52.4224 119.205C51.7596 119.932 51.147 120.083 50.211 120.317C42.3317 122.334 35.9465 129.055 31.8331 135.844C30.0023 138.94 28.5231 142.164 29.0487 145.849C29.4497 147.361 30.5492 148.549 31.8519 149.368C34.6968 150.836 38.2184 151.105 41.2933 150.142C42.7032 149.581 44.2267 148.833 45.2381 147.667C45.3964 147.278 45.3964 147.278 45.4927 146.838C45.5343 146.67 45.5759 146.502 45.6187 146.33C45.6618 146.148 45.7048 145.966 45.7491 145.779C45.8196 145.495 45.8196 145.495 45.8914 145.205C46.0422 144.595 46.1903 143.986 46.3379 143.376C46.8961 141.07 47.4582 138.777 48.2296 136.531C48.2824 136.375 48.3352 136.219 48.3896 136.058C48.7244 135.119 49.0772 134.176 50.0197 133.705C50.8011 133.607 51.5916 133.529 52.3066 133.899C52.811 134.307 53.065 134.617 53.2712 135.235C53.3201 136.177 53.2107 136.941 52.9417 137.842C52.8701 138.087 52.7986 138.332 52.727 138.576C52.689 138.704 52.6511 138.831 52.6119 138.963C51.6824 142.092 50.912 145.244 50.211 148.432C50.1538 148.688 50.1538 148.688 50.0954 148.948C48.9326 154.175 48.3497 159.511 47.9482 164.844C47.9232 165.168 47.8969 165.491 47.87 165.815C47.7476 167.324 47.6689 168.83 47.6199 170.342C47.612 170.588 47.604 170.833 47.5958 171.085C47.5095 173.895 47.4908 176.704 47.4873 179.515C47.4863 180.259 47.4816 181.004 47.4762 181.748C47.4726 182.334 47.4717 182.92 47.4714 183.506C47.4708 183.78 47.4693 184.055 47.4668 184.329C47.446 186.73 47.6084 189.019 49.2546 190.893C51.6156 193.119 54.842 193.48 57.9459 193.443C58.352 193.439 58.7579 193.44 59.1641 193.441C62.5657 193.434 66.2392 193.035 68.7635 190.51C70.4855 188.249 70.7836 185.593 70.8793 182.848C70.8938 182.453 70.9093 182.058 70.9281 181.662C70.9448 181.309 70.9578 180.955 70.9705 180.601C71.0666 179.936 71.2312 179.57 71.6324 179.034C73.303 177.921 76.7028 178.823 78.6255 179.022C82.6233 179.434 86.5822 179.644 90.602 179.644C91.1986 179.644 91.7951 179.648 92.3916 179.651C96.0934 179.662 99.7322 179.345 103.394 178.819C103.878 178.75 104.363 178.682 104.847 178.615C105.054 178.585 105.26 178.555 105.473 178.525C107.008 178.357 107.008 178.357 107.829 178.783C108.403 179.266 108.525 179.479 108.738 180.182C108.786 180.807 108.786 180.807 108.79 181.513C108.794 181.776 108.798 182.039 108.802 182.302C108.806 182.709 108.809 183.116 108.81 183.524C108.824 186.372 109.134 189.134 111.224 191.275C113.588 193.237 116.847 193.417 119.783 193.425C120.194 193.427 120.606 193.433 121.018 193.439C124.235 193.463 127.514 193.106 129.93 190.796C131.276 189.268 131.733 187.383 131.745 185.386C131.746 185.244 131.747 185.103 131.749 184.958C131.752 184.493 131.753 184.027 131.753 183.562C131.755 183.231 131.757 182.9 131.758 182.569C131.763 181.503 131.762 180.436 131.761 179.369C131.761 179.188 131.761 179.006 131.761 178.819C131.759 172.801 131.584 166.851 130.924 160.864C130.882 160.468 130.839 160.071 130.797 159.674C129.965 151.992 128.809 144.117 126.334 136.765C126.217 136.096 126.186 135.502 126.521 134.896C126.953 134.351 127.384 133.902 128.055 133.705C128.75 133.642 129.252 133.652 129.908 133.896C130.918 134.769 131.258 136.151 131.575 137.407C131.614 137.555 131.652 137.704 131.692 137.857C131.774 138.172 131.855 138.487 131.936 138.802C132.061 139.293 132.189 139.783 132.317 140.273C132.721 141.824 133.1 143.374 133.425 144.944C133.821 146.88 133.821 146.88 135.09 148.351C135.23 148.441 135.37 148.531 135.514 148.624C135.658 148.727 135.802 148.831 135.951 148.938C138.48 150.626 141.559 150.984 144.512 150.403C146.601 149.861 148.449 148.928 149.668 147.093C150.631 145.284 150.404 143.21 149.859 141.308C147.398 133.337 141.045 126.101 133.821 122.063C132.21 121.215 130.577 120.839 128.781 120.609C128.047 120.47 127.653 120.236 127.099 119.743C126.79 119.125 126.796 118.498 126.908 117.83C127.687 116.744 128.668 116.585 129.933 116.363C130.059 116.344 130.185 116.324 130.315 116.304C132.151 116.02 133.868 115.528 135.622 114.925C135.759 114.879 135.897 114.832 136.038 114.785C138.057 114.1 139.974 113.344 141.826 112.284C142.085 112.144 142.345 112.006 142.605 111.867C150.095 107.844 155.735 100.916 158.187 92.7829C158.425 91.9554 158.644 91.1248 158.849 90.2883C158.88 90.1693 158.912 90.0503 158.945 89.9277C159.648 87.12 159.692 84.1766 159.685 81.2989C159.685 81.0434 159.685 81.0434 159.685 80.7828C159.678 77.8948 159.461 75.1397 158.849 72.3095C158.816 72.1498 158.783 71.9901 158.749 71.8255C158.103 68.7295 157.029 65.725 155.98 62.7464C155.934 62.601 155.889 62.4557 155.843 62.3059C155.606 61.6172 155.397 61.402 154.774 61.0026C154.52 60.8868 154.264 60.7749 154.007 60.6664C153.728 60.5376 153.45 60.4076 153.173 60.2764C152.963 60.1779 152.963 60.1779 152.75 60.0775C150.536 58.9823 148.543 57.3778 146.608 55.8609C146.501 55.7777 146.395 55.6945 146.286 55.6087C143.386 53.3076 140.744 50.6364 138.575 47.6366C138.482 47.5097 138.388 47.3827 138.293 47.252C131.474 37.932 124.809 24.0817 125.569 12.2529C115.157 6.55202 102.437 5.05183 90.7384 5.10131C89.9587 5.10458 89.1791 5.10263 88.3994 5.09933C84.4316 5.08516 80.5463 5.27666 76.6053 5.7499Z" fill="black"/>
<path d="M150.157 13.4485C155.936 16.4039 161.602 20.8481 165.543 26.0238C165.644 26.1555 165.744 26.2872 165.848 26.4229C167.345 28.3866 168.748 30.3645 169.942 32.5267C170.03 32.6844 170.118 32.842 170.209 33.0044C173.013 38.0504 174.989 43.2014 175.01 49.0232C175.012 49.3953 175.012 49.3953 175.014 49.7748C174.977 52.4854 174.362 54.7896 172.49 56.7962C170.008 59.0488 166.775 59.1003 163.608 58.9598C156.059 58.4294 148.972 52.5177 144.189 47.0879C143.558 46.3395 142.971 45.5624 142.4 44.7676C142.313 44.6466 142.226 44.5256 142.136 44.4009C138.994 40.0044 136.492 35.2878 134.583 30.2311C134.379 29.6912 134.171 29.1534 133.962 28.6155C132.533 24.8805 131.405 20.979 130.733 17.0344C130.694 16.8478 130.655 16.6611 130.615 16.4688C130.39 15.321 130.307 14.1968 130.29 13.0298C130.287 12.8917 130.284 12.7535 130.28 12.6112C130.281 11.7532 130.394 11.2106 130.924 10.5314C135.709 6.94274 145.534 11.1864 150.157 13.4485Z" fill="#7D5232"/>
<path d="M43.0625 9.52731C43.4235 9.52509 43.4235 9.52509 43.7917 9.52283C47.3228 9.53023 47.3228 9.53023 48.6809 10.7227C49.0743 11.6269 49.1305 12.4874 49.1232 13.4602C49.1218 13.6865 49.1218 13.6865 49.1203 13.9175C48.9883 20.7077 45.9987 27.9582 43.1517 33.9935C42.9434 34.4385 42.7413 34.886 42.5403 35.3344C39.3609 42.3477 34.6118 48.7637 28.407 53.3744C28.2196 53.5174 28.0322 53.6604 27.8392 53.8078C24.9056 55.9539 21.579 57.5734 18.0787 58.5385C17.9062 58.5888 17.7336 58.6391 17.5558 58.6909C15.4049 59.2251 12.8767 59.1489 10.8107 58.3473C10.5704 58.2563 10.5704 58.2563 10.3251 58.1635C8.06305 57.176 6.55282 55.2466 5.64663 52.9919C5.13994 51.4055 4.97976 49.9178 5.00112 48.2581C5.00362 47.9318 5.00362 47.9318 5.00616 47.5989C5.03586 45.886 5.23352 44.3251 5.64663 42.6637C5.69767 42.4248 5.74871 42.1859 5.80129 41.9397C7.14119 35.8321 10.3518 30.0901 14.2535 25.2587C14.4384 25.0154 14.4384 25.0154 14.627 24.7671C16.9484 21.7786 19.7735 19.2067 22.8603 17.0344C22.9764 16.9511 23.0925 16.8677 23.2121 16.7819C27.6651 13.5992 32.8046 11.141 38.1614 9.95765C38.3152 9.92246 38.4689 9.88726 38.6273 9.851C40.1081 9.54358 41.554 9.51798 43.0625 9.52731Z" fill="#7D5232"/>
<path d="M94.7753 128.923C94.9491 128.99 95.123 129.057 95.302 129.126C99.6359 131.025 102.241 135.652 103.956 139.825C104.803 142.005 105.273 144.224 105.677 146.52C105.711 146.698 105.745 146.877 105.779 147.062C106.296 150.563 106.102 154.474 104.912 157.804C104.837 158.024 104.761 158.244 104.683 158.471C103.307 162.074 100.697 164.867 97.2162 166.492C92.6177 168.505 86.7107 168.289 82.0998 166.5C78.5329 165.038 76.0429 162.66 74.3766 159.194C71.805 152.962 72.9023 145.72 75.4219 139.658C76.4687 137.239 77.6908 134.9 79.4743 132.94C79.5568 132.848 79.6393 132.757 79.7244 132.662C83.6973 128.302 89.2547 126.694 94.7753 128.923Z" fill="#FFBB4D"/>
<path d="M101.213 127.08C103.567 129.067 105.307 131.409 106.825 134.088C106.887 134.198 106.95 134.307 107.015 134.421C108.936 137.855 110.047 141.69 110.65 145.563C110.683 145.774 110.683 145.774 110.717 145.988C111.675 152.29 110.792 159.207 107.061 164.522C103.444 169.181 98.8959 171.395 93.181 172.459C86.486 173.151 79.8457 171.815 74.5098 167.593C70.734 164.504 68.6779 159.927 68.1897 155.127C68.1206 154.055 68.1151 152.984 68.118 151.911C68.1181 151.766 68.1182 151.62 68.1183 151.47C68.1315 147.439 68.7726 143.635 70.1024 139.825C70.1452 139.701 70.188 139.577 70.2321 139.448C71.6591 135.387 73.8534 131.856 76.7966 128.732C76.9038 128.615 77.0111 128.497 77.1216 128.377C83.5326 121.609 94.1033 121.24 101.213 127.08ZM81.1956 131.219C81.0149 131.382 80.8342 131.545 80.648 131.712C77.2682 134.87 75.4124 139.086 74.1189 143.459C74.0605 143.652 74.002 143.845 73.9418 144.044C72.5065 149.241 72.3207 155.288 74.8429 160.189C77.0316 163.914 80.0762 165.926 84.1356 167.196C85.9274 167.638 87.6603 167.814 89.5036 167.798C89.7137 167.796 89.9237 167.795 90.1402 167.793C94.5537 167.735 98.5103 166.576 101.661 163.351C103.872 161.017 104.891 158.196 105.592 155.116C105.648 154.874 105.71 154.633 105.781 154.396C107.144 147.914 104.775 140.357 101.47 134.853C100.999 134.175 100.488 133.556 99.9395 132.94C99.7605 132.72 99.7605 132.72 99.5778 132.496C97.613 130.14 94.7668 128.438 91.7151 127.967C87.7777 127.611 84.1718 128.529 81.1956 131.219Z" fill="black"/>
<path d="M60.5332 63.8693C62.4907 64.7907 63.4892 66.1978 64.2209 68.1735C64.612 70.0636 64.3106 71.646 63.3468 73.3226C62.6951 74.2699 61.9324 74.8362 60.9217 75.3698C61.2266 76.0347 61.6241 76.6019 62.0453 77.1987C63.3886 79.1929 63.8248 81.0854 63.8265 83.4506C63.8288 83.6235 63.8312 83.7963 63.8336 83.9744C63.8397 86.8142 62.7377 89.3862 60.7304 91.4359C60.6042 91.4359 60.4779 91.4359 60.3479 91.4359C60.2847 91.6252 60.2216 91.8146 60.1566 92.0097C59.3185 92.8732 58.1919 93.416 57.1322 93.9582C56.949 94.0536 56.949 94.0536 56.762 94.1511C54.8259 95.1117 52.9678 95.363 50.8206 95.3448C50.4656 95.3429 50.4656 95.3429 50.1034 95.3408C48.4182 95.3112 46.9944 95.1547 45.4293 94.4961C45.1631 94.3988 45.1631 94.3988 44.8914 94.2996C41.9187 93.1131 39.8153 90.8664 38.4146 88.0409C37.8025 86.5387 37.4799 85.1717 37.4919 83.5463C37.493 83.3716 37.4941 83.197 37.4952 83.017C37.5786 79.8293 39.1459 77.274 41.4061 75.0978C42.3554 74.2915 43.382 73.6756 44.473 73.0746C44.6106 72.9942 44.7482 72.9138 44.8899 72.831C46.8714 71.7375 49.2187 71.5092 51.4422 71.5325C51.6003 71.5334 51.7585 71.5343 51.9214 71.5352C52.3076 71.5374 52.6937 71.5408 53.0799 71.5445C53.071 71.3159 53.0621 71.0874 53.053 70.8519C52.988 68.5021 53.165 66.9758 54.8124 65.1932C56.4351 63.6946 58.3928 63.2413 60.5332 63.8693Z" fill="#F4A99C"/>
<path d="M122.58 64.0972C124.172 65.0208 125.082 66.2082 125.76 67.9105C126.109 69.2277 126 70.5995 125.76 71.927C125.955 71.924 125.955 71.924 126.154 71.921C126.752 71.9129 127.35 71.908 127.948 71.9031C128.152 71.8999 128.357 71.8967 128.567 71.8934C132.222 71.8711 135.677 73.3605 138.335 75.8688C140.482 78.1468 141.549 80.8324 141.524 83.9622C141.411 87.1039 139.982 89.6349 137.81 91.8184C137.696 91.9382 137.583 92.0581 137.467 92.1815C135.043 94.5463 131.385 95.5769 128.081 95.5433C126.535 95.4866 125.122 95.163 123.656 94.6874C123.356 94.5934 123.356 94.5934 123.05 94.4976C119.784 93.3152 117.596 90.7358 116.091 87.7048C115.521 86.3273 115.362 85.1053 115.372 83.63C115.373 83.4609 115.374 83.2919 115.375 83.1178C115.429 80.2238 116.642 77.8904 118.301 75.561C118.162 75.4874 118.162 75.4874 118.02 75.4124C116.625 74.6159 115.23 73.4153 114.744 71.8292C114.404 69.7259 114.527 67.7816 115.7 65.965C117.336 63.8365 120.101 62.9702 122.58 64.0972Z" fill="#F4A99C"/>
<path d="M160.379 124.142C162.761 126.147 164.37 128.512 165.543 131.41C165.597 131.539 165.652 131.669 165.708 131.802C167.516 136.578 167.17 142.822 165.16 147.476C161.939 154.472 155.99 159.733 148.812 162.472C144.7 163.959 140.457 164.657 136.088 164.498C135.798 163.48 135.744 162.419 135.637 161.369C135.598 160.986 135.558 160.604 135.518 160.222C135.493 159.979 135.468 159.736 135.442 159.485C135.408 159.153 135.408 159.153 135.373 158.814C135.326 158.219 135.314 157.636 135.323 157.039C135.478 156.983 135.633 156.928 135.793 156.87C136.852 156.478 137.791 156.108 138.718 155.461C140.014 154.709 141.427 154.84 142.882 154.818C144.679 154.779 146.096 154.486 147.755 153.788C147.986 153.693 148.217 153.598 148.455 153.501C151.265 152.229 153.17 150.278 154.306 147.404C154.561 146.674 154.683 146.008 154.76 145.241C154.937 144.007 155.508 143.164 156.179 142.146C159.693 136.804 160.174 130.365 160.379 124.142Z" fill="#7D5232"/>
<path d="M97.5248 70.7316C98.4669 71.4888 99.1751 72.503 99.5569 73.6484C99.676 75.1669 99.2814 76.2172 98.3376 77.3899C96.9064 78.9105 94.9031 79.7936 92.8627 80.1513C92.6102 80.1513 92.3578 80.1513 92.0977 80.1513C92.102 81.0122 92.1169 81.8726 92.1335 82.7334C92.1346 82.976 92.1357 83.2186 92.1369 83.4685C92.1703 84.8936 92.2593 85.957 93.2452 87.0368C94.391 88.1067 95.9445 88.1382 97.4318 88.1181C99.7561 88.0034 101.191 86.8767 102.737 85.2549C103.037 84.9152 103.329 84.5668 103.609 84.2104C103.978 83.7582 104.139 83.6184 104.712 83.5485C105.775 83.5141 106.368 83.6423 107.207 84.3591C107.731 85.1442 107.725 85.7329 107.59 86.6543C106.773 89.1056 104.233 90.8855 102.043 92.0096C101.352 92.3033 100.657 92.5534 99.9395 92.7747C99.7501 92.8378 99.5608 92.9009 99.3657 92.9659C95.8586 93.2248 93.0398 93.1695 90.2082 90.93C89.7753 90.6021 89.7753 90.6021 89.0374 90.6708C88.6023 90.9372 88.6023 90.9372 88.1648 91.2924C87.1745 92.0182 86.1868 92.4139 85.0209 92.7747C84.7369 92.8694 84.7369 92.8694 84.4471 92.9659C80.6458 93.2868 77.5119 92.9584 74.5014 90.4795C74.2781 90.3024 74.2781 90.3024 74.0502 90.1217C72.724 89.0158 71.3589 87.6174 71.1902 85.8294C71.261 84.9939 71.4905 84.6209 72.015 83.9766C72.8699 83.4066 73.6909 83.4562 74.6927 83.594C75.1948 83.9527 75.1948 83.9527 75.649 84.5504C77.0046 86.1896 78.5671 87.7804 80.7988 88.0351C81.2069 88.0581 81.6117 88.0656 82.0205 88.0648C82.1641 88.0648 82.3078 88.0648 82.4558 88.0647C83.5821 88.0416 84.4348 87.8165 85.4034 87.228C85.5395 87.1664 85.6756 87.1048 85.8159 87.0413C86.3179 86.7626 86.3781 86.4214 86.551 85.8892C86.6141 85.763 86.6773 85.6367 86.7423 85.5067C86.7718 85.1043 86.7901 84.7011 86.8028 84.2978C86.8108 84.0574 86.8188 83.8171 86.8271 83.5694C86.8346 83.3172 86.8421 83.0649 86.8499 82.8051C86.8581 82.5488 86.8665 82.2926 86.8749 82.0363C86.8952 81.408 86.9148 80.7797 86.9335 80.1513C86.6392 80.1162 86.6392 80.1162 86.3388 80.0803C84.1812 79.7316 82.0415 78.7174 80.6256 77.0194C79.833 75.8747 79.4902 74.8701 79.6655 73.4571C80.1037 71.9294 81.3051 70.9399 82.6017 70.1085C83.8504 69.4292 85.1619 69.1277 86.551 68.8668C86.7256 68.8313 86.9001 68.7958 87.08 68.7592C90.6218 68.2801 94.5146 68.6735 97.5248 70.7316Z" fill="black"/>
<path d="M122.58 64.0972C124.172 65.0208 125.082 66.2082 125.76 67.9105C125.915 68.4962 125.915 68.4962 125.951 69.0581C125.965 69.1784 125.979 69.2987 125.994 69.4227C126.104 70.985 125.503 72.6661 124.577 73.9233C123.044 75.3198 121.624 75.8363 119.572 75.8173C118.063 75.6768 116.92 74.9159 115.904 73.821C114.622 72.1602 114.486 70.3185 114.667 68.293C115.016 66.6782 115.927 65.429 117.28 64.5006C119.001 63.5289 120.743 63.2622 122.58 64.0972Z" fill="black"/>
<path d="M60.5332 63.8693C62.4907 64.7907 63.4892 66.1978 64.221 68.1735C64.6134 70.0702 64.296 71.6228 63.3603 73.3159C62.5983 74.4523 61.4697 75.2607 60.1641 75.6821C58.2595 76.025 56.7881 75.683 55.1838 74.6047C54.1255 73.693 53.3379 72.3486 53.0799 70.9707C52.927 68.8179 53.0816 67.2757 54.4665 65.5675C56.0998 63.8002 58.1953 63.1833 60.5332 63.8693Z" fill="black"/>
<path d="M89.8981 122.982C90.0554 122.983 90.2127 122.984 90.3748 122.985C90.7578 122.987 91.1409 122.991 91.5239 122.994C91.5239 123.121 91.5239 123.247 91.5239 123.377C91.3511 123.388 91.1782 123.4 91.0002 123.412C90.7746 123.428 90.549 123.444 90.3165 123.46C90.0924 123.476 89.8683 123.492 89.6374 123.508C89.0325 123.546 89.0325 123.546 88.4637 123.759C87.9158 123.817 87.3679 123.856 86.8185 123.897C86.3694 123.901 86.3694 123.901 86.1685 124.142C85.6577 124.169 85.1502 124.15 84.6384 124.142C84.5753 124.016 84.5122 123.889 84.4471 123.759C84.7655 123.666 85.0844 123.575 85.4035 123.484C85.581 123.433 85.7585 123.382 85.9414 123.33C87.2657 123.016 88.5448 122.968 89.8981 122.982Z" fill="black"/>
<path d="M96.8912 92.93C97.1487 92.9265 97.1487 92.9265 97.4115 92.9229C97.5773 92.9226 97.7431 92.9222 97.914 92.9218C98.0641 92.921 98.2143 92.9202 98.369 92.9194C98.8386 92.971 99.1499 93.1143 99.5569 93.3484C99.0378 93.608 98.6296 93.5612 98.0492 93.5584C97.8261 93.5577 97.6029 93.5571 97.3731 93.5565C97.1391 93.5549 96.9051 93.5533 96.664 93.5516C96.4286 93.5508 96.1931 93.5499 95.9505 93.549C95.3675 93.5468 94.7845 93.5436 94.2015 93.5397C94.1384 93.4135 94.0753 93.2872 94.0103 93.1572C94.9633 92.9085 95.9135 92.9307 96.8912 92.93Z" fill="#F2D3A3"/>
<path d="M107.207 178.269C107.271 178.396 107.334 178.522 107.399 178.652C107.154 178.676 106.91 178.699 106.658 178.724C105.993 178.784 105.993 178.784 105.486 179.226C104.945 179.27 104.945 179.27 104.291 179.262C103.97 179.26 103.97 179.26 103.642 179.258C103.031 179.227 102.453 179.148 101.852 179.034C101.852 178.971 101.852 178.908 101.852 178.843C102.529 178.746 103.207 178.651 103.884 178.556C104.075 178.529 104.266 178.501 104.463 178.473C105.385 178.345 106.274 178.231 107.207 178.269Z" fill="black"/>
<path d="M158.849 75.561C159.038 75.561 159.227 75.561 159.422 75.561C159.602 76.9073 159.634 78.2201 159.614 79.5776C158.959 78.595 158.802 78.058 158.825 76.8521C158.828 76.6104 158.832 76.3688 158.835 76.1199C158.84 75.9355 158.844 75.751 158.849 75.561Z" fill="#F2D3A3"/>
<path d="M31.2759 136.957C31.3391 137.083 31.4022 137.209 31.4672 137.339C31.3252 137.719 31.3252 137.719 31.1086 138.164C30.8159 138.79 30.6362 139.336 30.5109 140.017C30.3349 140.471 30.1376 140.911 29.9371 141.356C29.707 141.069 29.707 141.069 29.5546 140.591C29.7371 140.045 29.9302 139.564 30.1762 139.048C30.2385 138.911 30.3009 138.773 30.3652 138.631C30.6383 138.036 30.911 137.504 31.2759 136.957Z" fill="#F2D3A3"/>
<path d="M125.377 67.528C126.05 68.2007 125.962 69.0826 125.963 69.9905C125.96 70.2535 125.956 70.5165 125.951 70.7794C125.825 70.8425 125.699 70.9057 125.569 70.9707C124.873 68.5364 124.873 68.5364 125.377 67.528Z" fill="black"/>
<path d="M111.224 151.684C111.287 151.684 111.35 151.684 111.415 151.684C111.415 152.757 111.415 153.83 111.415 154.935C111.163 154.935 110.91 154.935 110.65 154.935C110.672 154.501 110.696 154.067 110.722 153.632C110.735 153.39 110.748 153.149 110.762 152.899C110.841 152.258 110.841 152.258 111.224 151.684Z" fill="#F2D3A3"/>
<path d="M29.5545 142.694C29.6176 142.694 29.6808 142.694 29.7458 142.694C29.7662 143.926 29.7385 145.109 29.5545 146.328C29.172 146.137 29.172 146.137 29.0532 145.799C28.9761 145.345 28.962 144.924 28.9688 144.464C28.9705 144.311 28.9722 144.158 28.974 144C28.9762 143.885 28.9785 143.77 28.9807 143.651C29.107 143.651 29.2332 143.651 29.3633 143.651C29.4264 143.335 29.4895 143.02 29.5545 142.694Z" fill="#F2D3A3"/>
<path d="M34.7186 131.792C34.7186 132.853 34.2664 133.463 33.5591 134.219C33.0234 134.779 33.0234 134.779 32.6147 135.426C32.4885 135.363 32.3622 135.3 32.2322 135.235C33.8124 132.812 33.8124 132.812 34.7186 131.792Z" fill="#F2D3A3"/>
<path d="M79.283 5.55863C79.283 5.74798 79.283 5.93733 79.283 6.13242C78.3171 6.33055 77.3944 6.34329 76.4141 6.32368C76.4772 6.13433 76.5403 5.94498 76.6053 5.74989C77.5088 5.62527 78.3687 5.53577 79.283 5.55863Z" fill="#F2D3A3"/>
<path d="M114.858 67.528C115.377 68.2884 115.283 69.0847 115.264 69.9666C115.263 70.1182 115.261 70.2698 115.259 70.426C115.255 70.7989 115.248 71.1717 115.24 71.5445C114.785 70.8607 114.779 70.4574 114.726 69.6438C114.71 69.4093 114.693 69.1749 114.676 68.9333C114.668 68.4043 114.693 68.0238 114.858 67.528Z" fill="black"/>
<path d="M60.5392 9.76648C60.0329 10.0458 59.7943 10.149 59.2004 10.149C59.2004 10.2752 59.2004 10.4015 59.2004 10.5315C58.7084 10.8413 58.4972 10.9225 57.9093 10.8423C57.7673 10.8029 57.6253 10.7634 57.479 10.7228C57.911 10.2314 58.2823 10.0189 58.9015 9.8143C59.0472 9.764 59.1929 9.7137 59.3431 9.66188C59.8134 9.56733 60.0891 9.61474 60.5392 9.76648Z" fill="#F2D3A3"/>
<path d="M70.2937 182.86C70.3568 182.86 70.4199 182.86 70.4849 182.86C70.5273 183.358 70.5668 183.856 70.6045 184.354C70.6168 184.495 70.6291 184.636 70.6418 184.782C70.7195 185.855 70.7195 185.855 70.2937 186.494C70.1595 186.874 70.0309 187.256 69.9111 187.641C69.6769 186.939 69.7721 186.518 69.8872 185.788C69.9237 185.551 69.9602 185.313 69.9978 185.067C70.0323 184.844 70.0668 184.62 70.1024 184.39C70.1703 183.88 70.2324 183.37 70.2937 182.86Z" fill="#F2D3A3"/>
<path d="M49.6371 151.875C49.7003 151.875 49.7634 151.875 49.8284 151.875C50.0333 152.756 49.9675 153.158 49.6371 153.979C49.555 154.411 49.4836 154.846 49.422 155.282C49.3899 155.504 49.3579 155.726 49.3248 155.955C49.3017 156.123 49.2785 156.292 49.2546 156.465C49.1915 156.465 49.1284 156.465 49.0633 156.465C49.014 155.01 48.9741 153.201 49.6371 151.875Z" fill="#F2D3A3"/>
<path d="M79.8568 73.0746C79.9831 73.1377 80.1093 73.2008 80.2393 73.2658C80.2497 73.6085 80.2571 73.9512 80.2633 74.2939C80.2677 74.4847 80.2721 74.6755 80.2767 74.8722C80.2393 75.3697 80.2393 75.3697 79.8568 75.7523C79.602 74.9878 79.6398 74.2541 79.6656 73.4571C79.7287 73.3309 79.7918 73.2046 79.8568 73.0746Z" fill="black"/>
<path d="M170.707 145.563C170.988 146.012 171.104 146.234 171.021 146.766C170.969 146.914 170.916 147.061 170.862 147.213C170.812 147.361 170.762 147.51 170.711 147.663C170.516 148.05 170.516 148.05 169.942 148.432C169.981 148.289 170.02 148.146 170.061 147.999C170.112 147.811 170.164 147.622 170.217 147.428C170.268 147.242 170.319 147.055 170.371 146.863C170.488 146.431 170.6 145.998 170.707 145.563Z" fill="#ECECEB"/>
<path d="M161.144 63.3202C161.692 63.4299 161.882 63.485 162.291 63.894C162.165 63.894 162.039 63.894 161.909 63.894C161.972 64.0952 162.035 64.2964 162.1 64.5036C162.261 65.1159 162.329 65.5658 162.291 66.1891C161.9 65.602 161.718 65.1007 161.502 64.4319C161.435 64.2241 161.367 64.0162 161.298 63.8021C161.247 63.6431 161.196 63.484 161.144 63.3202Z" fill="#ECECEB"/>
<path d="M131.115 185.92C131.242 185.983 131.368 186.046 131.498 186.111C131.57 187.297 131.466 188.109 130.924 189.171C130.616 188.555 130.826 187.919 130.924 187.259C130.96 187.004 130.996 186.749 131.032 186.494C131.059 186.304 131.087 186.115 131.115 185.92Z" fill="#F2D3A3"/>
<path d="M111.224 146.52C111.287 146.52 111.35 146.52 111.415 146.52C111.415 147.656 111.415 148.792 111.415 149.962C111.352 149.962 111.289 149.962 111.224 149.962C111.161 149.584 111.098 149.205 111.033 148.815C110.97 148.815 110.906 148.815 110.841 148.815C110.801 147.96 110.92 147.319 111.224 146.52Z" fill="#F2D3A3"/>
<path d="M17.3137 63.1289C17.6293 63.1289 17.9449 63.1289 18.27 63.1289C18.1836 63.4361 18.0956 63.7428 18.0071 64.0494C17.9582 64.2202 17.9094 64.3911 17.8591 64.5671C17.6962 65.0415 17.6962 65.0415 17.3137 65.6153C17.3297 65.4679 17.3458 65.3205 17.3623 65.1686C17.3915 64.8808 17.3915 64.8808 17.4213 64.5873C17.4413 64.3965 17.4612 64.2056 17.4818 64.009C17.5454 63.5145 17.5454 63.5145 17.3137 63.1289Z" fill="#ECECEB"/>
<path d="M146.034 150.154C145.528 150.433 145.289 150.536 144.695 150.536C144.695 150.662 144.695 150.789 144.695 150.919C144.127 150.824 144.127 150.824 143.547 150.727C143.611 150.601 143.674 150.475 143.739 150.345C145.201 149.89 145.201 149.89 146.034 150.154Z" fill="black"/>
<path d="M42.3692 149.962C42.243 149.962 42.1167 149.962 41.9867 149.962C41.9867 150.089 41.9867 150.215 41.9867 150.345C41.2095 150.493 40.4825 150.555 39.6915 150.536C41.4288 149.601 41.4288 149.601 42.3692 149.962Z" fill="black"/>
<path d="M29.3632 58.3473C29.4894 58.4104 29.6157 58.4735 29.7457 58.5386C29.0781 59.3044 28.6652 59.6147 27.6418 59.6861C28.1667 59.1224 28.6715 58.6932 29.3632 58.3473Z" fill="#F2D3A3"/>
<path d="M101.278 5.17615C101.589 5.16583 101.9 5.15841 102.211 5.15224C102.384 5.1478 102.557 5.14337 102.735 5.13879C103.191 5.17615 103.191 5.17615 103.573 5.55868C102.73 5.7695 101.951 5.76458 101.087 5.74994C101.15 5.56059 101.213 5.37124 101.278 5.17615Z" fill="black"/>
<path d="M76.7017 5.15747C76.9912 5.1608 76.9912 5.1608 77.2867 5.16419C77.4802 5.16592 77.6737 5.16765 77.8732 5.16942C78.0976 5.17275 78.0976 5.17275 78.3267 5.17615C78.2635 5.3655 78.2004 5.55485 78.1354 5.74994C76.7146 5.80459 76.7146 5.80459 76.0315 5.36741C76.2228 5.17615 76.2228 5.17615 76.7017 5.15747Z" fill="black"/>
<path d="M45.8119 144.607C46.1944 145.181 46.1944 145.181 46.1466 145.647C46.0133 146.103 45.8506 146.488 45.6206 146.902C45.3422 146.038 45.5689 145.465 45.8119 144.607Z" fill="black"/>
<path d="M69.146 142.886C69.5285 143.46 69.5285 143.46 69.4807 143.914C69.3369 144.417 69.1609 144.891 68.9547 145.372C68.7495 144.746 68.784 144.334 68.9428 143.699C68.98 143.546 69.0173 143.393 69.0556 143.235C69.0854 143.12 69.1153 143.005 69.146 142.886Z" fill="black"/>
<path d="M75.0752 5.55868C75.0752 5.74803 75.0752 5.93738 75.0752 6.13246C74.2232 6.22714 74.2232 6.22714 73.3539 6.32373C73.2907 6.13438 73.2276 5.94503 73.1626 5.74994C73.8269 5.5285 74.3792 5.54554 75.0752 5.55868Z" fill="black"/>
<path d="M72.6366 178.52C72.7471 178.564 72.8575 178.607 72.9713 178.652C72.3593 179.177 71.8228 179.538 71.0587 179.8C71.3636 179.063 71.7607 178.399 72.6366 178.52Z" fill="black"/>
<path d="M48.4896 155.318C48.9543 156.015 48.9031 156.41 48.8721 157.23C48.6828 157.23 48.4934 157.23 48.2983 157.23C48.2932 156.947 48.2895 156.665 48.2864 156.382C48.2842 156.224 48.2819 156.067 48.2797 155.904C48.2983 155.509 48.2983 155.509 48.4896 155.318Z" fill="black"/>
<path d="M87.198 122.574C87.3711 122.579 87.5442 122.583 87.7225 122.588C87.9836 122.593 87.9836 122.593 88.25 122.598C88.3836 122.603 88.5172 122.607 88.6549 122.612C88.424 122.902 88.424 122.902 88.0811 123.186C87.6485 123.2 87.6485 123.2 87.1846 123.126C86.9527 123.091 86.9527 123.091 86.7161 123.056C86.5985 123.036 86.4809 123.015 86.3597 122.994C86.7423 122.612 86.7423 122.612 87.198 122.574Z" fill="#F2D3A3"/>
<path d="M49.8285 150.919C50.211 151.301 50.211 151.301 50.2588 151.875C50.211 152.449 50.211 152.449 49.8285 152.831C49.7913 152.549 49.7558 152.266 49.7209 151.983C49.7009 151.825 49.6809 151.668 49.6604 151.505C49.6527 151.375 49.6451 151.244 49.6372 151.11C49.7003 151.047 49.7634 150.984 49.8285 150.919Z" fill="#F2D3A3"/>
<path d="M39.5002 149.771C40.1314 149.771 40.7626 149.771 41.4129 149.771C40.8379 150.346 40.299 150.268 39.5002 150.345C39.5002 150.156 39.5002 149.966 39.5002 149.771Z" fill="#F2D3A3"/>
<path d="M115.814 193.188C116.256 193.188 116.698 193.188 117.153 193.188C117.153 193.377 117.153 193.567 117.153 193.762C116.711 193.762 116.269 193.762 115.814 193.762C115.814 193.572 115.814 193.383 115.814 193.188Z" fill="black"/>
<path d="M130.924 115.726C130.861 115.916 130.798 116.105 130.733 116.3C130.102 116.237 129.47 116.174 128.82 116.109C129.627 115.706 130.044 115.692 130.924 115.726Z" fill="#F2D3A3"/>
<path d="M60.3479 4.60226C59.6427 5.07243 59.067 5.17842 58.244 5.36731C58.3071 5.17796 58.3703 4.98861 58.4353 4.79352C59.0867 4.64464 59.68 4.58317 60.3479 4.60226Z" fill="#ECECEB"/>
<path d="M110.076 155.126C110.266 155.19 110.455 155.253 110.65 155.318C110.587 155.696 110.524 156.075 110.459 156.465C110.27 156.465 110.08 156.465 109.885 156.465C109.948 156.023 110.011 155.582 110.076 155.126Z" fill="black"/>
<path d="M144.886 149.771C144.823 149.961 144.76 150.15 144.695 150.345C144.064 150.282 143.433 150.219 142.782 150.154C142.782 150.091 142.782 150.027 142.782 149.962C143.497 149.794 144.153 149.754 144.886 149.771Z" fill="#F2D3A3"/>
<path d="M46.7682 140.782C47.1132 141.309 47.1531 141.526 47.079 142.168C47.0395 142.342 47.0001 142.516 46.9594 142.694C46.8332 142.568 46.707 142.442 46.5769 142.312C46.5832 141.79 46.6848 141.299 46.7682 140.782Z" fill="black"/>
<path d="M124.11 74.4613C124.213 74.5086 124.315 74.556 124.421 74.6047C123.431 75.2211 123.431 75.2211 123.082 75.3698C122.893 75.3067 122.704 75.2435 122.508 75.1785C123.544 74.4017 123.544 74.4017 124.11 74.4613Z" fill="#F4A99C"/>
<path d="M21.5214 68.8668C21.6477 68.9299 21.7739 68.9931 21.904 69.0581C21.7938 69.5144 21.6702 69.9507 21.5214 70.3969C21.3952 70.3969 21.269 70.3969 21.1389 70.3969C21.3063 69.082 21.3063 69.082 21.5214 68.8668Z" fill="#F2D3A3"/>
<path d="M159.422 161.63C159.422 161.819 159.422 162.008 159.422 162.203C159.076 162.538 159.076 162.538 158.657 162.777C158.468 162.714 158.279 162.651 158.083 162.586C158.525 162.27 158.967 161.955 159.422 161.63Z" fill="#ECECEB"/>
<path d="M47.1507 139.443C47.4605 139.935 47.5417 140.146 47.4615 140.734C47.4221 140.876 47.3826 141.018 47.342 141.164C47.2158 141.038 47.0895 140.912 46.9595 140.782C47.0312 140.088 47.0312 140.088 47.1507 139.443Z" fill="black"/>
<path d="M154.641 100.234C154.83 100.234 155.019 100.234 155.215 100.234C155.071 100.7 155.071 100.7 154.832 101.19C154.426 101.346 154.426 101.346 154.067 101.382C154.256 101.003 154.446 100.624 154.641 100.234Z" fill="black"/>
<path d="M77.5181 48.9751C79.939 51.1064 81.8196 54.4361 82.1759 57.6859C82.5657 64.0705 80.0814 69.4646 75.9282 74.2322C75.5089 74.6944 75.0816 75.1478 74.6518 75.6003C74.4604 75.8232 74.27 76.0471 74.0808 76.2721C73.3381 77.13 72.5223 77.918 71.7126 78.712C71.1687 79.2486 70.6433 79.7901 70.1474 80.3715C69.3895 81.2422 68.584 82.0619 67.7716 82.8815C67.6133 83.0412 67.4551 83.2009 67.292 83.3655C66.9592 83.7007 66.6262 84.0357 66.2929 84.3704C65.868 84.7973 65.4452 85.2263 65.0228 85.6558C64.6157 86.0687 64.2061 86.4791 63.7969 86.8898C63.6466 87.0432 63.4964 87.1966 63.3415 87.3546C62.3709 88.3217 61.6369 88.9206 60.2532 89.1256C58.8971 88.9386 57.8429 88.0451 56.7529 87.267C55.6173 86.485 54.4386 85.7678 53.2709 85.0351C52.2986 84.4235 51.3303 83.8056 50.3621 83.1876C49.5267 82.6546 48.6898 82.1244 47.8489 81.6002C44.8055 79.6969 41.8372 77.6676 39.1814 75.242C39.0782 75.1479 38.9751 75.0538 38.8688 74.9568C35.7046 72.03 33.2126 68.2783 33.0066 63.8524C33.0005 63.454 32.9987 63.0556 33.001 62.6572C33.002 62.4466 33.003 62.2361 33.0041 62.0192C33.0748 58.5515 34.3652 55.626 36.6734 53.0282C36.7745 52.9143 36.8757 52.8005 36.9799 52.6832C39.0947 50.4442 42.1005 48.9974 45.1757 48.8652C49.3453 48.7702 52.711 49.88 55.8418 52.6699C56.139 52.9104 56.4373 53.1497 56.7375 53.3865C56.8523 53.22 56.967 53.0535 57.0853 52.8819C59.4523 49.4813 62.661 46.8712 66.8444 46.12C70.7187 45.6468 74.4216 46.5685 77.5181 48.9751Z" fill="#FF6060"/>
<path d="M118.363 48.7287C119.659 49.7328 120.714 50.8629 121.638 52.2206C121.958 52.6882 122.304 53.1268 122.662 53.5656C122.75 53.4679 122.837 53.3702 122.927 53.2696C125.213 50.8381 128.5 48.9714 131.886 48.854C135.643 48.8157 138.617 49.5934 141.472 52.1325C141.65 52.2852 141.65 52.2852 141.831 52.4411C144.157 54.5842 145.78 57.9152 145.985 61.0692C145.999 61.6139 146 62.157 145.996 62.7019C145.997 62.8839 145.999 63.0659 146 63.2534C145.988 67.7966 143.685 71.4963 140.633 74.7046C137.929 77.3231 134.628 79.4395 131.462 81.449C130.814 81.8618 130.17 82.2807 129.526 82.6988C129.27 82.8645 129.014 83.0301 128.757 83.1957C128.318 83.4799 127.878 83.7645 127.439 84.0494C126.451 84.688 125.459 85.3184 124.461 85.9402C124.27 86.0591 124.079 86.178 123.882 86.3004C123.502 86.537 123.121 86.7732 122.741 87.009C121.984 87.4791 121.237 87.9459 120.522 88.4783C120.032 88.8177 119.762 88.9868 119.18 89.0472C119.059 89.0641 118.937 89.081 118.811 89.0983C117.539 88.9217 116.601 88.0952 115.734 87.2084C115.624 87.0988 115.514 86.9891 115.401 86.8762C115.041 86.5164 114.683 86.1542 114.326 85.7919C114.074 85.5391 113.822 85.2865 113.57 85.0341C113.043 84.5057 112.517 83.9762 111.992 83.4457C111.322 82.7688 110.65 82.0938 109.978 81.4195C109.333 80.7726 108.689 80.1249 108.045 79.4771C107.923 79.355 107.802 79.233 107.677 79.1072C106.485 77.9081 105.303 76.7132 104.211 75.4211C103.961 75.1519 103.711 74.8831 103.46 74.615C101.621 72.5657 100.078 70.3541 98.8362 67.8971C98.7773 67.7817 98.7184 67.6663 98.6578 67.5475C96.8009 63.8384 96.2045 59.5528 97.4031 55.5362C98.0289 53.7308 98.8796 52.185 100.09 50.6993C100.176 50.5843 100.262 50.4693 100.351 50.3508C104.689 44.7905 113.009 45.053 118.363 48.7287Z" fill="#FF6060"/>
<path d="M118.363 48.7287C119.659 49.7328 120.714 50.8629 121.638 52.2206C121.958 52.6882 122.304 53.1268 122.662 53.5656C122.75 53.4679 122.837 53.3702 122.927 53.2696C125.213 50.8381 128.5 48.9714 131.886 48.854C135.643 48.8157 138.617 49.5934 141.472 52.1325C141.65 52.2852 141.65 52.2852 141.831 52.4411C144.157 54.5842 145.78 57.9152 145.985 61.0692C145.999 61.6139 146 62.157 145.996 62.7019C145.997 62.8839 145.999 63.0659 146 63.2534C145.988 67.7966 143.685 71.4963 140.633 74.7046C137.929 77.3231 134.628 79.4395 131.462 81.449C130.814 81.8618 130.17 82.2807 129.526 82.6988C129.27 82.8645 129.014 83.0301 128.757 83.1957C128.318 83.4799 127.878 83.7645 127.439 84.0494C126.451 84.688 125.459 85.3184 124.461 85.9402C124.27 86.0591 124.079 86.178 123.882 86.3004C123.502 86.537 123.121 86.7732 122.741 87.009C121.984 87.4791 121.237 87.9459 120.522 88.4783C120.032 88.8177 119.762 88.9868 119.18 89.0472C119.059 89.0641 118.937 89.081 118.811 89.0983C117.539 88.9217 116.601 88.0952 115.734 87.2084C115.624 87.0988 115.514 86.9891 115.401 86.8762C115.041 86.5164 114.683 86.1542 114.326 85.7919C114.074 85.5391 113.822 85.2865 113.57 85.0341C113.043 84.5057 112.517 83.9762 111.992 83.4457C111.322 82.7688 110.65 82.0938 109.978 81.4195C109.333 80.7726 108.689 80.1249 108.045 79.4771C107.923 79.355 107.802 79.233 107.677 79.1072C106.485 77.9081 105.303 76.7132 104.211 75.4211C103.961 75.1519 103.711 74.8831 103.46 74.615C101.621 72.5657 100.078 70.3541 98.8362 67.8971C98.7773 67.7817 98.7184 67.6663 98.6578 67.5475C96.8009 63.8384 96.2045 59.5528 97.4031 55.5362C98.0289 53.7308 98.8796 52.185 100.09 50.6993C100.176 50.5843 100.262 50.4693 100.351 50.3508C104.689 44.7905 113.009 45.053 118.363 48.7287ZM104.569 52.849C104.454 52.9386 104.34 53.0282 104.222 53.1206C102.932 54.2583 101.819 56.4019 101.664 58.1127C101.406 63.9714 103.968 68.0012 107.793 72.1965C108.106 72.5215 108.422 72.8391 108.748 73.151C109.044 73.4467 109.312 73.7537 109.582 74.0727C110.374 74.9828 111.223 75.8327 112.078 76.6833C112.35 76.9546 112.621 77.2268 112.892 77.4991C113.745 78.3528 114.609 79.1833 115.526 79.9685C116.1 80.4739 116.63 81.0218 117.165 81.568C117.38 81.7879 117.596 82.0074 117.812 82.2265C117.952 82.3693 117.952 82.3693 118.094 82.515C118.519 82.9117 118.779 83.1252 119.371 83.1208C120.219 82.8743 120.861 82.4208 121.587 81.9263C121.908 81.7131 122.228 81.5001 122.548 81.2874C122.714 81.1767 122.88 81.0661 123.05 80.9521C123.88 80.4031 124.721 79.8719 125.562 79.3399C125.894 79.1289 126.227 78.9178 126.559 78.7066C126.718 78.6054 126.877 78.5042 127.041 78.4C135.939 73.1972 135.939 73.1972 141.17 64.7509C141.668 62.1189 141.077 59.4278 139.58 57.2269C138.276 55.5149 136.606 54.218 134.486 53.7448C132.65 53.6337 130.959 53.588 129.291 54.4613C129.052 54.5857 129.052 54.5857 128.809 54.7125C126.755 55.9061 125.197 57.5472 124.132 59.6586C123.674 60.522 123.228 60.8026 122.304 61.0896C121.486 61.2212 120.704 61.1387 119.975 60.7314C119.592 60.1568 119.569 59.9317 119.505 59.2646C119.145 56.962 117.881 54.9747 116.213 53.3865C116.095 53.2692 115.977 53.1518 115.856 53.031C113.929 51.2168 111.731 50.7675 109.168 50.8232C107.337 50.9113 105.974 51.7207 104.569 52.849Z" fill="black"/>
<path d="M77.5181 48.9751C79.939 51.1064 81.8196 54.4361 82.1759 57.6859C82.5657 64.0705 80.0814 69.4646 75.9282 74.2322C75.5089 74.6944 75.0816 75.1478 74.6518 75.6003C74.4604 75.8232 74.27 76.0471 74.0808 76.2721C73.3381 77.13 72.5223 77.918 71.7126 78.712C71.1687 79.2486 70.6433 79.7901 70.1474 80.3715C69.3895 81.2422 68.584 82.0619 67.7716 82.8815C67.6133 83.0412 67.4551 83.2009 67.292 83.3655C66.9592 83.7007 66.6262 84.0357 66.2929 84.3704C65.868 84.7973 65.4452 85.2263 65.0228 85.6558C64.6157 86.0687 64.2061 86.4791 63.7969 86.8898C63.6466 87.0432 63.4964 87.1966 63.3415 87.3546C62.3709 88.3217 61.6369 88.9206 60.2532 89.1256C58.8971 88.9386 57.8429 88.0451 56.7529 87.267C55.6173 86.485 54.4386 85.7678 53.2709 85.0351C52.2986 84.4235 51.3303 83.8056 50.3621 83.1876C49.5267 82.6546 48.6898 82.1244 47.8489 81.6002C44.8055 79.6969 41.8372 77.6676 39.1814 75.242C39.0782 75.1479 38.9751 75.0538 38.8688 74.9568C35.7046 72.03 33.2126 68.2783 33.0066 63.8524C33.0005 63.454 32.9987 63.0556 33.001 62.6572C33.002 62.4466 33.003 62.2361 33.0041 62.0192C33.0748 58.5515 34.3652 55.626 36.6734 53.0282C36.7745 52.9143 36.8757 52.8005 36.9799 52.6832C39.0947 50.4442 42.1005 48.9974 45.1757 48.8652C49.3453 48.7702 52.711 49.88 55.8418 52.6699C56.139 52.9104 56.4373 53.1497 56.7375 53.3865C56.8523 53.22 56.967 53.0535 57.0853 52.8819C59.4523 49.4813 62.661 46.8712 66.8444 46.12C70.7187 45.6468 74.4216 46.5685 77.5181 48.9751ZM61.9319 54.3228C60.6622 55.875 59.8064 57.6203 59.6654 59.6299C59.5965 60.0604 59.4709 60.3594 59.2455 60.7314C58.4623 61.2208 57.4528 61.2196 56.5583 61.0896C55.729 60.7257 55.4767 60.2961 55.1028 59.4885C53.6988 56.7479 51.3326 54.8647 48.4682 53.7769C46.3138 53.1488 44.1297 53.6886 42.2045 54.7412C39.9939 56.1826 38.4552 58.167 37.849 60.7537C37.8071 61.0438 37.7737 61.3351 37.7483 61.6271C37.7337 61.7878 37.7192 61.9485 37.7042 62.1141C37.5712 65.1112 38.706 67.9427 40.7041 70.1476C44.2576 73.8732 49.0399 76.4943 53.3636 79.2204C54.2412 79.7754 55.1157 80.3352 55.9903 80.895C56.2813 81.0812 56.5725 81.2673 56.8637 81.4534C57.0419 81.5674 57.2201 81.6814 57.4037 81.7989C57.5702 81.905 57.7367 82.011 57.9082 82.1203C58.2673 82.354 58.6135 82.5971 58.96 82.8486C59.4995 83.1687 59.7043 83.212 60.3204 83.1243C60.7992 82.7957 60.7992 82.7957 61.2791 82.3098C61.3765 82.2166 61.474 82.1234 61.5745 82.0274C61.9357 81.6794 62.2926 81.3273 62.6492 80.9746C62.7984 80.8278 62.9476 80.6809 63.1013 80.5297C64.2586 79.389 65.4083 78.2408 66.5561 77.0905C66.9317 76.7144 67.3079 76.339 67.6842 75.9636C68.0509 75.5975 68.4172 75.231 68.7834 74.8644C69.0391 74.6086 69.2951 74.3531 69.5511 74.0976C73.7079 69.9259 77.3909 65.3156 77.3954 59.1899C77.3608 56.7136 76.4583 54.7517 74.8198 52.8938C73.2019 51.3782 70.8686 50.5976 68.6799 50.6552C65.898 50.9122 63.7715 52.2789 61.9319 54.3228Z" fill="black"/>
</svg>
