<svg width="350" height="350" viewBox="0 0 350 350" fill="none" xmlns="http://www.w3.org/2000/svg">
<path d="M196.148 95.8224C196.346 95.8565 196.544 95.8905 196.748 95.9255C204.495 97.2924 212.119 99.7253 219.429 102.603C219.578 102.467 219.578 102.467 219.729 102.329C220.557 101.59 221.297 101.038 222.339 100.626C222.66 100.495 222.66 100.495 222.988 100.361C224.814 99.7564 226.507 99.5839 228.428 99.5943C228.801 99.5963 228.801 99.5963 229.181 99.5982C243.252 99.804 256.356 107.598 265.958 117.444C266.76 118.284 267.502 119.165 268.221 120.077C268.738 120.728 269.278 121.355 269.82 121.986C277.287 130.944 282.492 143.31 281.588 155.043C281.159 158.973 279.261 162.9 276.255 165.494C272.751 168.167 268.733 169.332 264.353 169.311C264.176 169.312 263.999 169.313 263.817 169.314C262.423 169.311 261.049 169.201 259.663 169.057C259.719 169.216 259.774 169.374 259.832 169.538C261.049 173.032 262.152 176.492 262.827 180.132C262.864 180.319 262.901 180.506 262.939 180.698C264.156 187.119 263.996 194.33 262.601 200.701C262.538 201.002 262.538 201.002 262.473 201.309C261.56 205.549 260.127 209.538 258.081 213.359C257.975 213.571 257.869 213.782 257.76 214C255.238 218.926 251.345 223.309 247.005 226.695C246.82 226.84 246.82 226.84 246.632 226.987C242.463 230.226 237.721 232.784 232.765 234.606C232.908 234.705 233.051 234.804 233.198 234.906C237.106 237.677 240.705 240.962 243.615 244.777C243.712 244.903 243.809 245.03 243.908 245.159C245.915 247.781 247.599 250.535 249.167 253.437C249.245 253.582 249.323 253.727 249.404 253.876C249.944 254.894 249.944 254.894 249.944 255.401C250.093 255.401 250.242 255.401 250.396 255.401C250.435 255.134 250.435 255.134 250.474 254.862C250.588 254.231 250.72 253.622 250.875 253.001C250.923 252.808 250.972 252.614 251.021 252.415C251.12 252.022 251.22 251.629 251.321 251.237C252.214 247.625 252.253 244.134 252.143 240.441C252.127 239.85 252.118 239.259 252.109 238.667C252.099 238.402 252.099 238.402 252.087 238.131C252.075 236.778 252.48 235.879 253.334 234.832C254.523 233.904 255.962 233.995 257.403 234.154C260.435 234.884 262.699 236.756 264.862 238.901C265.061 239.097 265.26 239.293 265.465 239.495C268.417 242.567 270.043 246.303 271.148 250.372C271.195 250.543 271.242 250.713 271.29 250.889C272.406 255.237 272.441 260.812 271.191 265.12C271.11 265.429 271.03 265.738 270.95 266.047C269.442 271.685 266.447 276.952 262.149 280.942C261.963 281.129 261.776 281.315 261.584 281.508C261.398 281.694 261.211 281.881 261.019 282.073C260.907 282.19 260.794 282.306 260.678 282.427C259.751 283.379 258.783 284.209 257.713 284.997C257.556 285.114 257.398 285.231 257.235 285.351C251.324 289.681 244.516 292.303 237.286 293.374C236.931 293.438 236.931 293.438 236.57 293.503C235.306 293.645 234.05 293.624 232.779 293.614C232.517 293.613 232.255 293.612 231.984 293.611C231.34 293.609 230.697 293.605 230.053 293.6C230.068 293.795 230.084 293.99 230.1 294.19C230.276 296.561 230.323 298.922 230.333 301.299C230.334 301.498 230.335 301.697 230.335 301.903C230.34 302.956 230.343 304.01 230.346 305.063C230.348 306.139 230.356 307.216 230.365 308.292C230.371 309.131 230.373 309.97 230.373 310.809C230.374 311.206 230.377 311.602 230.381 311.998C230.426 316.413 229.678 320.286 226.527 323.599C223.692 326.291 220.22 327.237 216.491 327.957C216.322 327.997 216.153 328.037 215.979 328.078C215.19 328.212 214.412 328.224 213.613 328.229C213.361 328.231 213.361 328.231 213.104 328.234C206.809 328.28 200.612 328.034 195.719 323.496C192.616 320.157 191.772 315.415 191.853 311.005C191.588 311.07 191.322 311.135 191.048 311.202C187.614 311.963 184.072 312.167 180.564 312.181C180.294 312.182 180.023 312.184 179.744 312.186C178.874 312.189 178.003 312.191 177.133 312.191C176.836 312.192 176.539 312.192 176.233 312.193C171.532 312.195 166.912 312.015 162.243 311.457C161.89 311.415 161.536 311.374 161.182 311.333C160.255 311.225 159.328 311.115 158.401 311.005C158.403 311.247 158.406 311.49 158.408 311.74C158.372 315.96 156.887 320.302 153.972 323.373C149.691 327.431 143.81 328.235 138.171 328.24C137.999 328.24 137.827 328.24 137.65 328.24C132.327 328.233 126.997 327.353 122.979 323.545C119.864 320.169 119.451 316.042 119.463 311.661C119.463 311.285 119.462 310.909 119.461 310.532C119.46 309.535 119.462 308.537 119.465 307.539C119.467 306.92 119.468 306.301 119.469 305.682C119.478 299.762 119.537 293.856 119.975 287.949C119.988 287.769 120.002 287.589 120.015 287.404C120.294 283.582 120.639 279.774 121.105 275.97C120.858 276.054 120.611 276.139 120.357 276.226C120.209 276.276 120.062 276.327 119.91 276.379C119.605 276.483 119.301 276.588 118.996 276.693C118.795 276.761 118.795 276.761 118.589 276.831C118.454 276.877 118.319 276.923 118.18 276.971C114.687 277.942 109.99 277.811 106.639 276.422C106.439 276.354 106.238 276.286 106.031 276.216C103.022 275.155 100.376 272.906 98.9543 270.051C97.3111 266.594 97.2324 262.125 98.4157 258.48C98.5189 258.21 98.622 257.939 98.7283 257.661C98.8193 257.417 98.8193 257.417 98.9122 257.167C100.341 253.375 102.302 249.975 104.831 246.812C104.986 246.614 105.14 246.416 105.299 246.212C108.099 242.694 111.293 239.631 114.748 236.767C114.91 236.634 115.071 236.5 115.237 236.362C115.928 235.796 116.613 235.252 117.364 234.768C117.959 234.437 117.959 234.437 118.167 233.928C118.005 233.9 117.843 233.872 117.676 233.843C111.928 232.571 106.04 228.723 101.667 224.887C101.472 224.717 101.278 224.547 101.078 224.373C100.514 223.873 99.9584 223.365 99.4064 222.852C99.2561 222.714 99.1057 222.576 98.9508 222.434C91.193 215.023 86.9686 203.493 86.6832 192.911C86.6652 191.91 86.6617 190.909 86.6639 189.908C86.664 189.696 86.6641 189.485 86.6642 189.266C86.6824 182.42 87.4802 174.827 90.5912 168.605C90.3097 168.678 90.0282 168.75 89.7382 168.825C85.2104 169.825 80.5155 168.958 76.5557 166.622C72.7686 164.181 70.5697 160.207 69.5631 155.903C67.3815 145.545 71.8647 134.122 77.4081 125.55C77.9439 124.746 78.497 123.955 79.0635 123.172C79.1593 123.04 79.255 122.907 79.3536 122.771C82.3198 118.708 85.738 114.988 89.687 111.871C90.0922 111.532 90.4972 111.193 90.902 110.854C93.2766 108.916 95.8418 107.28 98.5023 105.768C98.6649 105.675 98.8274 105.583 98.995 105.488C103.192 103.13 107.621 101.498 112.29 100.343C112.451 100.303 112.611 100.262 112.777 100.22C115.191 99.639 117.618 99.6018 120.088 99.5943C120.245 99.5935 120.401 99.5926 120.563 99.5918C124.164 99.5818 128.005 100.119 130.825 102.603C130.825 102.753 130.825 102.902 130.825 103.055C131.043 102.956 131.261 102.857 131.486 102.755C139.287 99.3043 147.525 97.0422 155.914 95.5964C156.128 95.5592 156.343 95.5219 156.563 95.4835C169.477 93.3198 183.269 93.6 196.148 95.8224Z" fill="#F2D3A3"/>
<path d="M196.148 95.8224C196.346 95.8565 196.544 95.8905 196.748 95.9255C204.495 97.2924 212.119 99.7253 219.429 102.603C219.578 102.467 219.578 102.467 219.729 102.329C220.557 101.59 221.297 101.038 222.339 100.626C222.66 100.495 222.66 100.495 222.988 100.361C224.814 99.7564 226.507 99.5839 228.428 99.5943C228.801 99.5963 228.801 99.5963 229.181 99.5982C243.252 99.804 256.356 107.598 265.958 117.444C266.76 118.284 267.502 119.165 268.221 120.077C268.738 120.728 269.278 121.355 269.82 121.986C277.287 130.944 282.492 143.31 281.588 155.043C281.159 158.973 279.261 162.9 276.255 165.494C272.751 168.167 268.733 169.332 264.353 169.311C264.176 169.312 263.999 169.313 263.817 169.314C262.423 169.311 261.049 169.201 259.663 169.057C259.719 169.216 259.774 169.374 259.832 169.538C261.049 173.032 262.152 176.492 262.827 180.132C262.864 180.319 262.901 180.506 262.939 180.698C264.156 187.119 263.996 194.33 262.601 200.701C262.538 201.002 262.538 201.002 262.473 201.309C261.56 205.549 260.127 209.538 258.081 213.359C257.975 213.571 257.869 213.782 257.76 214C255.238 218.926 251.345 223.309 247.005 226.695C246.82 226.84 246.82 226.84 246.632 226.987C242.463 230.226 237.721 232.784 232.765 234.606C232.908 234.705 233.051 234.804 233.198 234.906C237.106 237.677 240.705 240.962 243.615 244.777C243.712 244.903 243.809 245.03 243.908 245.159C245.915 247.781 247.599 250.535 249.167 253.437C249.245 253.582 249.323 253.727 249.404 253.876C249.944 254.894 249.944 254.894 249.944 255.401C250.093 255.401 250.242 255.401 250.396 255.401C250.435 255.134 250.435 255.134 250.474 254.862C250.588 254.231 250.72 253.622 250.875 253.001C250.923 252.808 250.972 252.614 251.021 252.415C251.12 252.022 251.22 251.629 251.321 251.237C252.214 247.625 252.253 244.134 252.143 240.441C252.127 239.85 252.118 239.259 252.109 238.667C252.099 238.402 252.099 238.402 252.087 238.131C252.075 236.778 252.48 235.879 253.334 234.832C254.523 233.904 255.962 233.995 257.403 234.154C260.435 234.884 262.699 236.756 264.862 238.901C265.061 239.097 265.26 239.293 265.465 239.495C268.417 242.567 270.043 246.303 271.148 250.372C271.195 250.543 271.242 250.713 271.29 250.889C272.406 255.237 272.441 260.812 271.191 265.12C271.11 265.429 271.03 265.738 270.95 266.047C269.442 271.685 266.447 276.952 262.149 280.942C261.963 281.129 261.776 281.315 261.584 281.508C261.398 281.694 261.211 281.881 261.019 282.073C260.907 282.19 260.794 282.306 260.678 282.427C259.751 283.379 258.783 284.209 257.713 284.997C257.556 285.114 257.398 285.231 257.235 285.351C251.324 289.681 244.516 292.303 237.286 293.374C236.931 293.438 236.931 293.438 236.57 293.503C235.306 293.645 234.05 293.624 232.779 293.614C232.517 293.613 232.255 293.612 231.984 293.611C231.34 293.609 230.697 293.605 230.053 293.6C230.068 293.795 230.084 293.99 230.1 294.19C230.276 296.561 230.323 298.922 230.333 301.299C230.334 301.498 230.335 301.697 230.335 301.903C230.34 302.956 230.343 304.01 230.346 305.063C230.348 306.139 230.356 307.216 230.365 308.292C230.371 309.131 230.373 309.97 230.373 310.809C230.374 311.206 230.377 311.602 230.381 311.998C230.426 316.413 229.678 320.286 226.527 323.599C223.692 326.291 220.22 327.237 216.491 327.957C216.322 327.997 216.153 328.037 215.979 328.078C215.19 328.212 214.412 328.224 213.613 328.229C213.361 328.231 213.361 328.231 213.104 328.234C206.809 328.28 200.612 328.034 195.719 323.496C192.616 320.157 191.772 315.415 191.853 311.005C191.588 311.07 191.322 311.135 191.048 311.202C187.614 311.963 184.072 312.167 180.564 312.181C180.294 312.182 180.023 312.184 179.744 312.186C178.874 312.189 178.003 312.191 177.133 312.191C176.836 312.192 176.539 312.192 176.233 312.193C171.532 312.195 166.912 312.015 162.243 311.457C161.89 311.415 161.536 311.374 161.182 311.333C160.255 311.225 159.328 311.115 158.401 311.005C158.403 311.247 158.406 311.49 158.408 311.74C158.372 315.96 156.887 320.302 153.972 323.373C149.691 327.431 143.81 328.235 138.171 328.24C137.999 328.24 137.827 328.24 137.65 328.24C132.327 328.233 126.997 327.353 122.979 323.545C119.864 320.169 119.451 316.042 119.463 311.661C119.463 311.285 119.462 310.909 119.461 310.532C119.46 309.535 119.462 308.537 119.465 307.539C119.467 306.92 119.468 306.301 119.469 305.682C119.478 299.762 119.537 293.856 119.975 287.949C119.988 287.769 120.002 287.589 120.015 287.404C120.294 283.582 120.639 279.774 121.105 275.97C120.858 276.054 120.611 276.139 120.357 276.226C120.209 276.276 120.062 276.327 119.91 276.379C119.605 276.483 119.301 276.588 118.996 276.693C118.795 276.761 118.795 276.761 118.589 276.831C118.454 276.877 118.319 276.923 118.18 276.971C114.687 277.942 109.99 277.811 106.639 276.422C106.439 276.354 106.238 276.286 106.031 276.216C103.022 275.155 100.376 272.906 98.9543 270.051C97.3111 266.594 97.2324 262.125 98.4157 258.48C98.5189 258.21 98.622 257.939 98.7283 257.661C98.8193 257.417 98.8193 257.417 98.9122 257.167C100.341 253.375 102.302 249.975 104.831 246.812C104.986 246.614 105.14 246.416 105.299 246.212C108.099 242.694 111.293 239.631 114.748 236.767C114.91 236.634 115.071 236.5 115.237 236.362C115.928 235.796 116.613 235.252 117.364 234.768C117.959 234.437 117.959 234.437 118.167 233.928C118.005 233.9 117.843 233.872 117.676 233.843C111.928 232.571 106.04 228.723 101.667 224.887C101.472 224.717 101.278 224.547 101.078 224.373C100.514 223.873 99.9584 223.365 99.4064 222.852C99.2561 222.714 99.1057 222.576 98.9508 222.434C91.193 215.023 86.9686 203.493 86.6832 192.911C86.6652 191.91 86.6617 190.909 86.6639 189.908C86.664 189.696 86.6641 189.485 86.6642 189.266C86.6824 182.42 87.4802 174.827 90.5912 168.605C90.3097 168.678 90.0282 168.75 89.7382 168.825C85.2104 169.825 80.5155 168.958 76.5557 166.622C72.7686 164.181 70.5697 160.207 69.5631 155.903C67.3815 145.545 71.8647 134.122 77.4081 125.55C77.9439 124.746 78.497 123.955 79.0635 123.172C79.1593 123.04 79.255 122.907 79.3536 122.771C82.3198 118.708 85.738 114.988 89.687 111.871C90.0922 111.532 90.4972 111.193 90.902 110.854C93.2766 108.916 95.8418 107.28 98.5023 105.768C98.6649 105.675 98.8274 105.583 98.995 105.488C103.192 103.13 107.621 101.498 112.29 100.343C112.451 100.303 112.611 100.262 112.777 100.22C115.191 99.639 117.618 99.6018 120.088 99.5943C120.245 99.5935 120.401 99.5926 120.563 99.5918C124.164 99.5818 128.005 100.119 130.825 102.603C130.825 102.753 130.825 102.902 130.825 103.055C131.043 102.956 131.261 102.857 131.486 102.755C139.287 99.3043 147.525 97.0422 155.914 95.5964C156.128 95.5592 156.343 95.5219 156.563 95.4835C169.477 93.3198 183.269 93.6 196.148 95.8224ZM159.531 100.795C159.173 100.837 159.173 100.837 158.808 100.881C151.13 101.795 143.69 103.674 136.476 106.446C136.27 106.524 136.064 106.602 135.851 106.683C135.327 106.885 134.806 107.094 134.286 107.308C134.01 107.421 133.734 107.534 133.45 107.651C132.823 107.97 132.823 107.97 132.654 108.55C132.631 109.228 132.646 109.893 132.675 110.571C132.746 114.575 131.765 118.684 130.599 122.494C130.531 122.716 130.463 122.938 130.393 123.166C127.004 134.074 122.068 145.395 114.147 153.83C113.718 154.289 113.314 154.758 112.912 155.241C109.501 159.124 104.417 163.624 99.4594 165.299C98.2646 165.714 97.5739 166.012 96.9042 167.116C96.5247 167.978 96.2445 168.864 95.9795 169.767C95.7726 170.472 95.5495 171.17 95.3255 171.87C94.4149 174.768 93.6428 177.671 93.1702 180.674C93.1042 181.093 93.0326 181.511 92.957 181.928C92.5778 184.198 92.5489 186.441 92.5541 188.738C92.5548 189.392 92.5495 190.046 92.5438 190.7C92.5306 194.534 92.8347 198.403 93.911 202.1C93.9683 202.302 94.0256 202.505 94.0846 202.713C97.0085 212.661 103.623 220.547 112.669 225.51C117.598 228.145 122.762 230.117 128.276 231.099C128.477 231.135 128.678 231.172 128.885 231.209C129.067 231.24 129.249 231.271 129.436 231.303C130.185 231.517 130.577 231.976 131.051 232.572C131.125 232.646 131.2 232.721 131.277 232.798C131.374 233.629 131.298 234.106 130.952 234.874C130.169 235.734 129.445 235.912 128.338 236.188C119.027 238.572 111.481 246.515 106.62 254.539C104.456 258.197 102.708 262.007 103.329 266.362C103.803 268.149 105.103 269.553 106.642 270.521C110.004 272.255 114.166 272.574 117.8 271.435C119.466 270.772 121.266 269.888 122.462 268.511C122.649 268.051 122.649 268.051 122.763 267.53C122.812 267.332 122.861 267.134 122.911 266.93C122.962 266.715 123.013 266.501 123.066 266.28C123.149 265.943 123.149 265.943 123.234 265.6C123.412 264.881 123.587 264.16 123.761 263.439C124.421 260.714 125.085 258.004 125.997 255.351C126.059 255.166 126.122 254.981 126.186 254.791C126.582 253.681 126.999 252.567 128.112 252.01C129.036 251.894 129.97 251.802 130.815 252.239C131.411 252.722 131.711 253.088 131.955 253.819C132.013 254.931 131.884 255.835 131.566 256.899C131.481 257.189 131.396 257.478 131.312 257.767C131.267 257.918 131.222 258.069 131.176 258.224C130.077 261.922 129.167 265.647 128.338 269.415C128.271 269.716 128.271 269.716 128.202 270.024C126.828 276.201 126.139 282.508 125.664 288.809C125.635 289.192 125.604 289.575 125.572 289.958C125.427 291.741 125.334 293.52 125.276 295.308C125.267 295.598 125.258 295.887 125.248 296.186C125.146 299.506 125.124 302.826 125.12 306.148C125.118 307.027 125.113 307.907 125.107 308.787C125.102 309.479 125.101 310.172 125.101 310.864C125.1 311.188 125.098 311.513 125.095 311.838C125.071 314.675 125.263 317.38 127.208 319.594C129.998 322.225 133.811 322.652 137.479 322.608C137.959 322.603 138.439 322.604 138.919 322.605C142.939 322.597 147.28 322.125 150.264 319.142C152.299 316.469 152.651 313.33 152.764 310.086C152.781 309.619 152.799 309.153 152.822 308.686C152.841 308.268 152.857 307.85 152.872 307.431C152.985 306.645 153.18 306.212 153.654 305.58C155.628 304.264 159.646 305.33 161.918 305.566C166.643 306.053 171.321 306.3 176.072 306.3C176.777 306.3 177.482 306.305 178.187 306.309C182.562 306.321 186.862 305.948 191.189 305.326C191.762 305.244 192.334 305.164 192.907 305.084C193.151 305.049 193.395 305.014 193.646 304.978C195.46 304.779 195.46 304.779 196.431 305.283C197.109 305.854 197.253 306.105 197.504 306.936C197.562 307.675 197.562 307.675 197.566 308.51C197.571 308.82 197.575 309.131 197.58 309.441C197.585 309.922 197.589 310.404 197.59 310.885C197.606 314.251 197.973 317.516 200.443 320.046C203.236 322.364 207.088 322.577 210.557 322.587C211.044 322.589 211.53 322.596 212.017 322.603C215.819 322.632 219.694 322.209 222.549 319.48C224.14 317.674 224.68 315.446 224.694 313.086C224.695 312.919 224.697 312.752 224.698 312.58C224.702 312.03 224.703 311.48 224.704 310.931C224.706 310.54 224.708 310.149 224.71 309.758C224.715 308.497 224.714 307.236 224.713 305.976C224.713 305.761 224.713 305.546 224.713 305.325C224.71 298.213 224.504 291.182 223.724 284.107C223.674 283.638 223.624 283.169 223.573 282.7C222.591 273.622 221.224 264.315 218.299 255.627C218.161 254.836 218.125 254.135 218.521 253.418C219.031 252.774 219.541 252.244 220.333 252.01C221.155 251.936 221.748 251.948 222.523 252.236C223.716 253.268 224.119 254.901 224.493 256.385C224.539 256.561 224.585 256.736 224.632 256.917C224.729 257.289 224.824 257.661 224.919 258.034C225.068 258.614 225.219 259.193 225.37 259.772C225.848 261.605 226.296 263.437 226.679 265.293C227.147 267.58 227.147 267.58 228.647 269.319C228.813 269.425 228.978 269.531 229.149 269.641C229.319 269.764 229.489 269.886 229.664 270.013C232.654 272.007 236.292 272.431 239.782 271.744C242.251 271.103 244.435 270.001 245.875 267.833C247.013 265.695 246.745 263.244 246.101 260.995C243.193 251.575 235.685 243.024 227.148 238.252C225.244 237.25 223.314 236.805 221.192 236.533C220.324 236.37 219.859 236.093 219.203 235.51C218.838 234.78 218.845 234.039 218.977 233.25C219.898 231.966 221.057 231.778 222.553 231.516C222.702 231.493 222.851 231.47 223.005 231.446C225.174 231.111 227.204 230.529 229.276 229.817C229.438 229.762 229.601 229.707 229.768 229.65C232.154 228.841 234.419 227.948 236.608 226.695C236.914 226.53 237.221 226.366 237.529 226.203C246.38 221.448 253.045 213.261 255.942 203.649C256.224 202.671 256.483 201.69 256.725 200.701C256.762 200.561 256.8 200.42 256.839 200.275C257.669 196.957 257.721 193.478 257.713 190.078C257.713 189.776 257.713 189.776 257.713 189.468C257.705 186.055 257.448 182.799 256.725 179.454C256.686 179.265 256.647 179.077 256.607 178.882C255.843 175.223 254.575 171.673 253.334 168.153C253.281 167.981 253.227 167.809 253.173 167.632C252.893 166.818 252.646 166.564 251.91 166.092C251.61 165.955 251.307 165.823 251.003 165.695C250.674 165.542 250.345 165.389 250.017 165.234C249.77 165.117 249.77 165.117 249.517 164.999C246.9 163.704 244.546 161.808 242.259 160.015C242.133 159.917 242.008 159.819 241.878 159.717C238.452 156.998 235.329 153.841 232.765 150.296C232.655 150.146 232.545 149.996 232.432 149.842C224.374 138.827 216.497 122.459 217.395 108.48C205.091 101.743 190.058 99.9702 176.233 100.029C175.312 100.033 174.39 100.03 173.469 100.026C168.78 100.01 164.188 100.236 159.531 100.795Z" fill="black"/>
<path d="M246.453 109.893C253.283 113.386 259.979 118.638 264.636 124.755C264.755 124.91 264.874 125.066 264.997 125.226C266.765 127.547 268.424 129.885 269.834 132.44C269.939 132.626 270.043 132.812 270.15 133.004C273.463 138.968 275.8 145.055 275.824 151.935C275.826 152.375 275.826 152.375 275.829 152.823C275.785 156.027 275.058 158.75 272.846 161.121C269.913 163.783 266.092 163.844 262.349 163.678C253.428 163.051 245.052 156.065 239.4 149.648C238.654 148.763 237.96 147.845 237.286 146.906C237.183 146.763 237.08 146.62 236.974 146.472C233.261 141.277 230.303 135.703 228.048 129.727C227.807 129.089 227.561 128.453 227.314 127.818C225.626 123.404 224.292 118.793 223.498 114.131C223.452 113.911 223.406 113.69 223.359 113.463C223.092 112.106 222.994 110.778 222.975 109.399C222.971 109.235 222.967 109.072 222.963 108.904C222.964 107.89 223.097 107.249 223.724 106.446C229.379 102.205 240.99 107.22 246.453 109.893Z" fill="#7D5232"/>
<path d="M119.891 105.259C120.317 105.257 120.317 105.257 120.752 105.254C124.925 105.263 124.925 105.263 126.53 106.672C126.995 107.74 127.062 108.757 127.053 109.907C127.051 110.175 127.051 110.175 127.05 110.447C126.894 118.472 123.361 127.041 119.996 134.173C119.75 134.699 119.511 135.228 119.273 135.758C115.516 144.046 109.904 151.628 102.571 157.077C102.349 157.246 102.128 157.415 101.9 157.589C98.433 160.125 94.5018 162.039 90.3652 163.18C90.1612 163.239 89.9573 163.299 89.7471 163.36C87.2053 163.991 84.2175 163.901 81.776 162.954C81.4919 162.846 81.4919 162.846 81.2021 162.737C78.5288 161.57 76.744 159.289 75.6731 156.625C75.0743 154.75 74.885 152.992 74.9103 151.031C74.9132 150.645 74.9132 150.645 74.9162 150.252C74.9513 148.227 75.1849 146.383 75.6731 144.419C75.7334 144.137 75.7937 143.855 75.8559 143.564C77.4394 136.346 81.2336 129.56 85.8446 123.85C86.0631 123.563 86.0631 123.563 86.286 123.269C89.0294 119.738 92.368 116.698 96.016 114.131C96.1532 114.032 96.2904 113.934 96.4317 113.833C101.694 110.071 107.768 107.166 114.099 105.768C114.28 105.726 114.462 105.685 114.649 105.642C116.399 105.278 118.108 105.248 119.891 105.259Z" fill="#7D5232"/>
<path d="M181.004 246.36C181.209 246.439 181.415 246.518 181.626 246.599C186.748 248.843 189.826 254.312 191.853 259.244C192.854 261.819 193.41 264.441 193.888 267.155C193.927 267.366 193.967 267.577 194.008 267.795C194.619 271.933 194.389 276.555 192.984 280.49C192.894 280.75 192.805 281.01 192.713 281.278C191.086 285.536 188.002 288.837 183.888 290.758C178.454 293.137 171.473 292.881 166.024 290.767C161.809 289.039 158.866 286.229 156.897 282.133C153.858 274.768 155.155 266.21 158.132 259.046C159.369 256.187 160.814 253.422 162.921 251.106C163.019 250.998 163.116 250.89 163.217 250.778C167.912 245.626 174.48 243.725 181.004 246.36Z" fill="#FFBB4D"/>
<path d="M188.612 244.181C191.394 246.53 193.451 249.297 195.244 252.462C195.318 252.592 195.392 252.722 195.468 252.856C197.739 256.914 199.052 261.447 199.765 266.024C199.804 266.273 199.804 266.273 199.844 266.526C200.975 273.973 199.932 282.148 195.523 288.429C191.249 293.936 185.874 296.552 179.12 297.809C171.208 298.627 163.36 297.048 157.054 292.058C152.592 288.408 150.162 282.999 149.586 277.326C149.504 276.06 149.497 274.794 149.501 273.526C149.501 273.354 149.501 273.182 149.501 273.005C149.517 268.24 150.274 263.746 151.846 259.243C151.896 259.096 151.947 258.949 151.999 258.798C153.686 253.998 156.279 249.825 159.757 246.133C159.884 245.995 160.01 245.856 160.141 245.713C167.717 237.715 180.21 237.279 188.612 244.181ZM164.956 249.072C164.742 249.265 164.529 249.457 164.308 249.656C160.314 253.387 158.121 258.37 156.592 263.538C156.523 263.766 156.454 263.994 156.383 264.228C154.687 270.37 154.467 277.517 157.448 283.309C160.035 287.71 163.633 290.089 168.43 291.59C170.548 292.112 172.596 292.32 174.774 292.3C175.022 292.299 175.27 292.297 175.526 292.295C180.742 292.226 185.418 290.857 189.141 287.045C191.754 284.287 192.958 280.954 193.787 277.313C193.853 277.027 193.927 276.743 194.01 276.462C195.621 268.802 192.821 259.871 188.915 253.367C188.359 252.565 187.755 251.834 187.107 251.106C186.895 250.847 186.895 250.847 186.679 250.582C184.357 247.797 180.994 245.786 177.387 245.229C172.734 244.809 168.473 245.894 164.956 249.072Z" fill="black"/>
<path d="M140.537 169.48C142.851 170.569 144.031 172.232 144.895 174.566C145.357 176.8 145.001 178.67 143.862 180.652C143.092 181.771 142.191 182.44 140.996 183.071C141.357 183.857 141.826 184.527 142.324 185.232C143.912 187.589 144.427 189.826 144.429 192.621C144.432 192.825 144.435 193.029 144.438 193.24C144.445 196.596 143.142 199.635 140.77 202.058C140.621 202.058 140.472 202.058 140.318 202.058C140.244 202.281 140.169 202.505 140.092 202.736C139.102 203.756 137.77 204.398 136.518 205.038C136.301 205.151 136.301 205.151 136.08 205.266C133.792 206.402 131.596 206.699 129.059 206.677C128.639 206.675 128.639 206.675 128.211 206.672C126.22 206.637 124.537 206.452 122.688 205.674C122.373 205.559 122.373 205.559 122.052 205.442C118.539 204.04 116.053 201.385 114.398 198.046C113.674 196.27 113.293 194.655 113.307 192.734C113.309 192.527 113.31 192.321 113.311 192.108C113.41 188.341 115.262 185.321 117.933 182.75C119.055 181.797 120.268 181.069 121.558 180.359C121.72 180.264 121.883 180.169 122.05 180.071C124.392 178.778 127.166 178.509 129.794 178.536C129.98 178.537 130.167 178.538 130.36 178.539C130.816 178.542 131.273 178.546 131.729 178.55C131.718 178.28 131.708 178.01 131.697 177.732C131.62 174.955 131.83 173.151 133.776 171.044C135.694 169.273 138.008 168.738 140.537 169.48Z" fill="#F4A99C"/>
<path d="M213.863 169.749C215.744 170.841 216.82 172.244 217.621 174.256C218.034 175.812 217.905 177.433 217.621 179.002C217.852 178.999 217.852 178.999 218.087 178.995C218.793 178.986 219.5 178.98 220.206 178.974C220.448 178.97 220.69 178.966 220.939 178.963C225.258 178.936 229.341 180.696 232.482 183.661C235.02 186.353 236.28 189.526 236.251 193.225C236.117 196.938 234.428 199.929 231.861 202.51C231.727 202.651 231.594 202.793 231.456 202.939C228.592 205.733 224.269 206.951 220.364 206.912C218.537 206.845 216.868 206.462 215.135 205.9C214.78 205.789 214.78 205.789 214.419 205.676C210.558 204.279 207.973 201.23 206.194 197.648C205.52 196.02 205.333 194.576 205.345 192.833C205.346 192.633 205.347 192.433 205.349 192.227C205.412 188.807 206.845 186.05 208.806 183.297C208.641 183.21 208.641 183.21 208.474 183.121C206.826 182.18 205.177 180.761 204.602 178.887C204.2 176.401 204.346 174.103 205.732 171.956C207.666 169.441 210.933 168.417 213.863 169.749Z" fill="#F4A99C"/>
<path d="M258.533 240.709C261.348 243.078 263.25 245.874 264.636 249.298C264.7 249.451 264.764 249.604 264.831 249.761C266.968 255.406 266.559 262.784 264.184 268.285C260.377 276.553 253.347 282.769 244.863 286.007C240.004 287.764 234.989 288.589 229.827 288.401C229.484 287.198 229.42 285.944 229.294 284.703C229.248 284.251 229.2 283.799 229.153 283.348C229.123 283.06 229.093 282.773 229.063 282.477C229.023 282.084 229.023 282.084 228.981 281.684C228.926 280.981 228.912 280.291 228.923 279.586C229.106 279.52 229.289 279.455 229.478 279.387C230.729 278.924 231.839 278.486 232.935 277.721C234.467 276.833 236.136 276.987 237.855 276.962C239.979 276.915 241.654 276.568 243.615 275.744C243.888 275.632 244.161 275.52 244.442 275.405C247.762 273.902 250.014 271.596 251.356 268.2C251.658 267.337 251.802 266.55 251.893 265.643C252.102 264.186 252.776 263.189 253.57 261.986C257.722 255.673 258.291 248.063 258.533 240.709Z" fill="#7D5232"/>
<path d="M184.253 177.589C185.367 178.484 186.204 179.683 186.655 181.036C186.796 182.831 186.329 184.072 185.214 185.458C183.522 187.255 181.155 188.299 178.744 188.721C178.445 188.721 178.147 188.721 177.84 188.721C177.845 189.739 177.862 190.755 177.882 191.773C177.883 192.059 177.885 192.346 177.886 192.641C177.925 194.326 178.031 195.582 179.196 196.858C180.55 198.123 182.386 198.16 184.143 198.136C186.89 198.001 188.586 196.669 190.413 194.753C190.768 194.351 191.112 193.939 191.444 193.518C191.88 192.984 192.07 192.819 192.747 192.736C194.004 192.695 194.704 192.847 195.696 193.694C196.315 194.622 196.308 195.317 196.148 196.406C195.182 199.303 192.181 201.407 189.593 202.735C188.776 203.082 187.955 203.378 187.107 203.639C186.883 203.714 186.659 203.789 186.429 203.865C182.284 204.171 178.953 204.106 175.607 201.459C175.095 201.072 175.095 201.072 174.223 201.153C173.709 201.468 173.709 201.468 173.192 201.888C172.021 202.745 170.854 203.213 169.476 203.639C169.141 203.751 169.141 203.751 168.798 203.865C164.306 204.244 160.602 203.856 157.045 200.927C156.781 200.718 156.781 200.718 156.511 200.504C154.944 199.197 153.331 197.545 153.131 195.432C153.215 194.444 153.486 194.003 154.106 193.242C155.117 192.568 156.087 192.627 157.271 192.79C157.864 193.214 157.864 193.214 158.401 193.92C160.003 195.857 161.849 197.737 164.487 198.038C164.969 198.065 165.447 198.074 165.93 198.073C166.1 198.073 166.27 198.073 166.445 198.073C167.776 198.046 168.784 197.78 169.928 197.084C170.089 197.012 170.25 196.939 170.416 196.864C171.009 196.534 171.08 196.131 171.285 195.502C171.359 195.353 171.434 195.204 171.511 195.05C171.546 194.575 171.567 194.098 171.582 193.622C171.592 193.337 171.601 193.053 171.611 192.761C171.62 192.463 171.629 192.165 171.638 191.857C171.648 191.555 171.657 191.252 171.667 190.949C171.691 190.206 171.714 189.464 171.737 188.721C171.389 188.68 171.389 188.68 171.034 188.637C168.484 188.225 165.955 187.027 164.282 185.02C163.345 183.667 162.94 182.48 163.147 180.81C163.665 179.005 165.085 177.835 166.617 176.853C168.093 176.05 169.643 175.694 171.285 175.385C171.491 175.343 171.697 175.301 171.91 175.258C176.095 174.692 180.696 175.157 184.253 177.589Z" fill="black"/>
<path d="M213.863 169.749C215.744 170.84 216.82 172.244 217.621 174.255C217.805 174.948 217.805 174.948 217.847 175.612C217.864 175.754 217.88 175.896 217.897 176.042C218.028 177.889 217.317 179.876 216.222 181.361C214.411 183.012 212.734 183.622 210.309 183.6C208.525 183.433 207.174 182.534 205.973 181.24C204.458 179.278 204.298 177.101 204.511 174.707C204.924 172.799 206.001 171.323 207.6 170.226C209.633 169.077 211.692 168.762 213.863 169.749Z" fill="black"/>
<path d="M140.537 169.48C142.851 170.568 144.031 172.231 144.895 174.566C145.359 176.808 144.984 178.642 143.878 180.643C142.978 181.986 141.644 182.942 140.101 183.44C137.85 183.845 136.111 183.441 134.215 182.166C132.965 181.089 132.034 179.5 131.729 177.872C131.548 175.328 131.731 173.505 133.368 171.486C135.298 169.398 137.774 168.669 140.537 169.48Z" fill="black"/>
<path d="M175.24 239.339C175.426 239.34 175.612 239.341 175.804 239.342C176.256 239.344 176.709 239.348 177.161 239.353C177.161 239.502 177.161 239.651 177.161 239.805C176.957 239.818 176.753 239.832 176.543 239.846C176.276 239.865 176.009 239.884 175.735 239.904C175.47 239.922 175.205 239.94 174.932 239.959C174.217 240.005 174.217 240.005 173.545 240.257C172.898 240.325 172.25 240.372 171.601 240.419C171.07 240.425 171.07 240.425 170.833 240.709C170.229 240.741 169.629 240.718 169.024 240.709C168.95 240.56 168.875 240.411 168.798 240.257C169.175 240.147 169.551 240.039 169.928 239.932C170.138 239.872 170.348 239.811 170.564 239.749C172.129 239.379 173.641 239.322 175.24 239.339Z" fill="black"/>
<path d="M183.504 203.823C183.808 203.819 183.808 203.819 184.119 203.815C184.315 203.814 184.511 203.814 184.712 203.814C184.89 203.813 185.067 203.812 185.25 203.811C185.805 203.872 186.173 204.041 186.654 204.318C186.04 204.624 185.558 204.569 184.872 204.566C184.609 204.565 184.345 204.564 184.073 204.564C183.797 204.562 183.52 204.56 183.235 204.558C182.957 204.557 182.679 204.556 182.392 204.555C181.704 204.552 181.015 204.548 180.326 204.544C180.251 204.395 180.177 204.245 180.1 204.092C181.226 203.798 182.349 203.824 183.504 203.823Z" fill="#F2D3A3"/>
<path d="M195.695 304.676C195.77 304.825 195.844 304.974 195.921 305.128C195.632 305.156 195.343 305.184 195.045 305.213C194.26 305.284 194.26 305.284 193.661 305.806C193.022 305.858 193.022 305.858 192.249 305.848C191.869 305.846 191.869 305.846 191.482 305.844C190.76 305.808 190.077 305.714 189.367 305.58C189.367 305.505 189.367 305.431 189.367 305.354C190.167 305.239 190.968 305.127 191.768 305.015C191.994 304.983 192.22 304.95 192.453 304.917C193.541 304.765 194.593 304.631 195.695 304.676Z" fill="black"/>
<path d="M256.725 183.297C256.948 183.297 257.172 183.297 257.403 183.297C257.615 184.887 257.653 186.439 257.629 188.043C256.855 186.882 256.67 186.247 256.696 184.822C256.7 184.537 256.705 184.251 256.709 183.957C256.714 183.739 256.719 183.521 256.725 183.297Z" fill="#F2D3A3"/>
<path d="M105.961 255.853C106.036 256.002 106.11 256.151 106.187 256.305C106.019 256.754 106.019 256.754 105.763 257.28C105.417 258.02 105.205 258.665 105.057 259.469C104.849 260.006 104.616 260.526 104.379 261.051C104.107 260.713 104.107 260.713 103.927 260.147C104.143 259.502 104.371 258.934 104.662 258.325C104.735 258.162 104.809 257.999 104.885 257.832C105.208 257.128 105.53 256.5 105.961 255.853Z" fill="#F2D3A3"/>
<path d="M217.169 173.803C217.964 174.598 217.859 175.64 217.861 176.713C217.857 177.024 217.853 177.335 217.847 177.645C217.698 177.72 217.549 177.795 217.395 177.871C216.573 174.995 216.573 174.995 217.169 173.803Z" fill="black"/>
<path d="M200.442 273.257C200.517 273.257 200.592 273.257 200.668 273.257C200.668 274.525 200.668 275.793 200.668 277.099C200.37 277.099 200.072 277.099 199.764 277.099C199.79 276.586 199.819 276.073 199.849 275.56C199.865 275.274 199.881 274.988 199.897 274.694C199.99 273.935 199.99 273.935 200.442 273.257Z" fill="#F2D3A3"/>
<path d="M103.927 262.634C104.002 262.634 104.076 262.634 104.153 262.634C104.177 264.09 104.144 265.488 103.927 266.928C103.475 266.702 103.475 266.702 103.335 266.303C103.244 265.766 103.227 265.269 103.235 264.725C103.237 264.544 103.239 264.363 103.241 264.177C103.244 264.041 103.246 263.904 103.249 263.764C103.398 263.764 103.547 263.764 103.701 263.764C103.776 263.391 103.85 263.018 103.927 262.634Z" fill="#F2D3A3"/>
<path d="M110.029 249.75C110.029 251.004 109.495 251.724 108.659 252.617C108.026 253.279 108.026 253.279 107.543 254.044C107.394 253.969 107.245 253.895 107.091 253.818C108.959 250.955 108.959 250.955 110.029 249.75Z" fill="#F2D3A3"/>
<path d="M162.695 100.569C162.695 100.793 162.695 101.017 162.695 101.247C161.553 101.481 160.463 101.496 159.305 101.473C159.379 101.249 159.454 101.026 159.531 100.795C160.598 100.648 161.614 100.542 162.695 100.569Z" fill="#F2D3A3"/>
<path d="M204.737 173.803C205.351 174.702 205.24 175.643 205.217 176.685C205.215 176.864 205.213 177.043 205.211 177.228C205.206 177.668 205.198 178.109 205.189 178.549C204.651 177.742 204.643 177.265 204.582 176.304C204.562 176.027 204.543 175.749 204.523 175.464C204.513 174.839 204.542 174.389 204.737 173.803Z" fill="black"/>
<path d="M140.544 105.542C139.945 105.872 139.664 105.994 138.962 105.994C138.962 106.143 138.962 106.292 138.962 106.446C138.381 106.812 138.131 106.908 137.436 106.813C137.269 106.766 137.101 106.72 136.928 106.672C137.438 106.091 137.877 105.84 138.609 105.598C138.781 105.539 138.953 105.479 139.13 105.418C139.686 105.306 140.012 105.362 140.544 105.542Z" fill="#F2D3A3"/>
<path d="M152.072 310.101C152.146 310.101 152.221 310.101 152.298 310.101C152.348 310.689 152.394 311.277 152.439 311.866C152.453 312.033 152.468 312.2 152.483 312.372C152.575 313.64 152.575 313.64 152.072 314.395C151.913 314.844 151.761 315.296 151.62 315.751C151.343 314.92 151.455 314.423 151.591 313.561C151.634 313.28 151.678 312.999 151.722 312.709C151.763 312.445 151.804 312.181 151.846 311.909C151.926 311.306 151.999 310.704 152.072 310.101Z" fill="#F2D3A3"/>
<path d="M127.66 273.483C127.735 273.483 127.809 273.483 127.886 273.483C128.128 274.524 128.051 274.999 127.66 275.969C127.563 276.48 127.479 276.994 127.406 277.509C127.368 277.771 127.33 278.034 127.291 278.304C127.264 278.503 127.237 278.702 127.208 278.907C127.134 278.907 127.059 278.907 126.982 278.907C126.924 277.187 126.877 275.05 127.66 273.483Z" fill="#F2D3A3"/>
<path d="M163.373 180.358C163.523 180.433 163.672 180.508 163.825 180.584C163.838 180.989 163.846 181.394 163.854 181.799C163.859 182.025 163.864 182.25 163.869 182.482C163.825 183.07 163.825 183.07 163.373 183.522C163.072 182.619 163.117 181.752 163.147 180.81C163.222 180.661 163.297 180.512 163.373 180.358Z" fill="black"/>
<path d="M270.738 266.024C271.071 266.554 271.208 266.817 271.11 267.445C271.048 267.62 270.986 267.794 270.922 267.973C270.863 268.149 270.804 268.324 270.743 268.505C270.512 268.962 270.512 268.962 269.834 269.414C269.881 269.245 269.927 269.076 269.975 268.902C270.036 268.68 270.096 268.457 270.159 268.228C270.22 268.007 270.28 267.787 270.342 267.56C270.48 267.049 270.612 266.538 270.738 266.024Z" fill="#ECECEB"/>
<path d="M259.437 168.831C260.085 168.96 260.31 169.025 260.793 169.509C260.644 169.509 260.495 169.509 260.341 169.509C260.416 169.746 260.49 169.984 260.567 170.229C260.757 170.952 260.838 171.484 260.793 172.221C260.33 171.527 260.116 170.934 259.861 170.144C259.781 169.899 259.701 169.653 259.619 169.4C259.559 169.212 259.499 169.024 259.437 168.831Z" fill="#ECECEB"/>
<path d="M223.95 313.717C224.099 313.792 224.248 313.866 224.402 313.943C224.488 315.344 224.365 316.304 223.724 317.559C223.36 316.83 223.608 316.079 223.724 315.299C223.766 314.998 223.809 314.696 223.851 314.395C223.884 314.171 223.916 313.948 223.95 313.717Z" fill="#F2D3A3"/>
<path d="M200.443 267.155C200.517 267.155 200.592 267.155 200.669 267.155C200.669 268.497 200.669 269.839 200.669 271.223C200.594 271.223 200.519 271.223 200.443 271.223C200.368 270.775 200.293 270.328 200.217 269.867C200.142 269.867 200.067 269.867 199.991 269.867C199.942 268.857 200.083 268.099 200.443 267.155Z" fill="#F2D3A3"/>
<path d="M89.4611 168.605C89.834 168.605 90.2069 168.605 90.5911 168.605C90.4889 168.968 90.385 169.33 90.2803 169.692C90.2226 169.894 90.1649 170.096 90.1055 170.304C89.9131 170.865 89.9131 170.865 89.4611 171.543C89.48 171.369 89.4989 171.194 89.5184 171.015C89.553 170.675 89.553 170.675 89.5882 170.328C89.6118 170.102 89.6354 169.877 89.6597 169.645C89.7349 169.06 89.7349 169.06 89.4611 168.605Z" fill="#ECECEB"/>
<path d="M241.58 271.449C240.982 271.779 240.7 271.901 239.998 271.901C239.998 272.05 239.998 272.199 239.998 272.353C239.327 272.241 239.327 272.241 238.642 272.127C238.717 271.978 238.791 271.829 238.868 271.675C240.595 271.137 240.595 271.137 241.58 271.449Z" fill="black"/>
<path d="M119.071 271.223C118.922 271.223 118.772 271.223 118.619 271.223C118.619 271.372 118.619 271.521 118.619 271.675C117.7 271.85 116.841 271.923 115.907 271.901C117.96 270.796 117.96 270.796 119.071 271.223Z" fill="black"/>
<path d="M103.701 162.954C103.85 163.029 103.999 163.103 104.153 163.18C103.364 164.085 102.876 164.452 101.667 164.536C102.287 163.87 102.883 163.363 103.701 162.954Z" fill="#F2D3A3"/>
<path d="M188.689 100.117C189.056 100.105 189.423 100.096 189.791 100.089C189.995 100.083 190.2 100.078 190.41 100.073C190.949 100.117 190.949 100.117 191.401 100.569C190.405 100.818 189.484 100.812 188.463 100.795C188.538 100.571 188.612 100.347 188.689 100.117Z" fill="black"/>
<path d="M159.645 100.095C159.987 100.099 159.987 100.099 160.336 100.103C160.565 100.105 160.793 100.107 161.029 100.109C161.294 100.113 161.294 100.113 161.565 100.117C161.49 100.341 161.416 100.565 161.339 100.795C159.66 100.86 159.66 100.86 158.853 100.343C159.079 100.117 159.079 100.117 159.645 100.095Z" fill="black"/>
<path d="M123.14 264.894C123.592 265.572 123.592 265.572 123.535 266.123C123.378 266.661 123.185 267.117 122.914 267.606C122.585 266.585 122.853 265.908 123.14 264.894Z" fill="black"/>
<path d="M150.716 262.86C151.168 263.538 151.168 263.538 151.111 264.075C150.941 264.67 150.733 265.229 150.49 265.798C150.247 265.058 150.288 264.571 150.475 263.82C150.519 263.64 150.563 263.459 150.609 263.273C150.644 263.137 150.679 263 150.716 262.86Z" fill="black"/>
<path d="M157.722 100.569C157.722 100.793 157.722 101.017 157.722 101.247C156.715 101.359 156.715 101.359 155.688 101.473C155.614 101.25 155.539 101.026 155.462 100.795C156.247 100.534 156.9 100.554 157.722 100.569Z" fill="black"/>
<path d="M154.841 304.972C154.971 305.024 155.102 305.075 155.236 305.128C154.513 305.748 153.879 306.174 152.976 306.484C153.336 305.613 153.806 304.829 154.841 304.972Z" fill="black"/>
<path d="M126.304 277.552C126.853 278.375 126.793 278.843 126.756 279.812C126.532 279.812 126.309 279.812 126.078 279.812C126.072 279.477 126.068 279.143 126.064 278.809C126.061 278.623 126.059 278.437 126.056 278.245C126.078 277.778 126.078 277.778 126.304 277.552Z" fill="black"/>
<path d="M172.049 238.856C172.253 238.862 172.458 238.867 172.669 238.872C172.977 238.878 172.977 238.878 173.292 238.885C173.45 238.89 173.608 238.895 173.77 238.901C173.498 239.244 173.498 239.244 173.092 239.579C172.581 239.595 172.581 239.595 172.033 239.508C171.759 239.467 171.759 239.467 171.48 239.426C171.341 239.402 171.202 239.377 171.058 239.353C171.51 238.901 171.51 238.901 172.049 238.856Z" fill="#F2D3A3"/>
<path d="M127.886 272.353C128.338 272.805 128.338 272.805 128.395 273.483C128.338 274.161 128.338 274.161 127.886 274.613C127.842 274.279 127.8 273.945 127.759 273.61C127.736 273.424 127.712 273.238 127.688 273.046C127.679 272.892 127.67 272.738 127.66 272.579C127.735 272.505 127.809 272.43 127.886 272.353Z" fill="#F2D3A3"/>
<path d="M115.681 270.997C116.427 270.997 117.172 270.997 117.941 270.997C117.261 271.676 116.625 271.584 115.681 271.675C115.681 271.451 115.681 271.228 115.681 270.997Z" fill="#F2D3A3"/>
<path d="M205.867 322.306C206.389 322.306 206.912 322.306 207.449 322.306C207.449 322.53 207.449 322.754 207.449 322.984C206.927 322.984 206.405 322.984 205.867 322.984C205.867 322.76 205.867 322.537 205.867 322.306Z" fill="black"/>
<path d="M223.724 230.763C223.649 230.987 223.574 231.211 223.498 231.441C222.752 231.367 222.006 231.292 221.238 231.215C222.19 230.739 222.684 230.723 223.724 230.763Z" fill="#F2D3A3"/>
<path d="M140.318 99.4391C139.485 99.9946 138.804 100.12 137.832 100.343C137.906 100.119 137.981 99.8956 138.058 99.6651C138.828 99.4891 139.529 99.4165 140.318 99.4391Z" fill="#ECECEB"/>
<path d="M199.086 277.326C199.31 277.4 199.534 277.475 199.764 277.552C199.69 277.999 199.615 278.447 199.538 278.908C199.315 278.908 199.091 278.908 198.86 278.908C198.935 278.386 199.01 277.864 199.086 277.326Z" fill="black"/>
<path d="M240.224 270.997C240.149 271.221 240.075 271.445 239.998 271.675C239.252 271.601 238.506 271.526 237.738 271.449C237.738 271.375 237.738 271.3 237.738 271.223C238.582 271.025 239.358 270.977 240.224 270.997Z" fill="#F2D3A3"/>
<path d="M124.27 260.374C124.678 260.997 124.725 261.253 124.637 262.012C124.59 262.217 124.544 262.422 124.496 262.634C124.347 262.484 124.198 262.335 124.044 262.182C124.051 261.565 124.171 260.984 124.27 260.374Z" fill="black"/>
<path d="M215.671 181.997C215.792 182.053 215.914 182.109 216.038 182.167C214.869 182.895 214.869 182.895 214.456 183.071C214.233 182.996 214.009 182.922 213.779 182.845C215.002 181.927 215.002 181.927 215.671 181.997Z" fill="#F4A99C"/>
<path d="M94.4336 175.386C94.5828 175.46 94.732 175.535 94.8856 175.612C94.7555 176.151 94.6094 176.666 94.4336 177.194C94.2845 177.194 94.1353 177.194 93.9816 177.194C94.1794 175.64 94.1794 175.64 94.4336 175.386Z" fill="#F2D3A3"/>
<path d="M257.403 285.011C257.403 285.235 257.403 285.458 257.403 285.689C256.993 286.084 256.993 286.084 256.499 286.367C256.275 286.292 256.051 286.218 255.821 286.141C256.343 285.768 256.865 285.395 257.403 285.011Z" fill="#ECECEB"/>
<path d="M124.722 258.791C125.088 259.373 125.184 259.622 125.089 260.317C125.043 260.485 124.996 260.652 124.948 260.825C124.799 260.676 124.65 260.527 124.496 260.373C124.581 259.554 124.581 259.554 124.722 258.791Z" fill="black"/>
<path d="M251.752 212.455C251.975 212.455 252.199 212.455 252.43 212.455C252.26 213.006 252.26 213.006 251.978 213.585C251.497 213.769 251.497 213.769 251.074 213.811C251.297 213.364 251.521 212.916 251.752 212.455Z" fill="black"/>
<path d="M160.61 151.878C163.47 154.397 165.693 158.331 166.114 162.172C166.575 169.717 163.639 176.092 158.731 181.726C158.235 182.272 157.73 182.808 157.222 183.343C156.996 183.606 156.771 183.871 156.547 184.137C155.67 185.151 154.706 186.082 153.749 187.02C153.106 187.654 152.485 188.294 151.899 188.982C151.003 190.011 150.051 190.979 149.091 191.948C148.904 192.137 148.717 192.325 148.524 192.52C148.131 192.916 147.738 193.312 147.344 193.707C146.842 194.212 146.342 194.719 145.843 195.226C145.362 195.714 144.878 196.199 144.394 196.685C144.216 196.866 144.039 197.047 143.856 197.234C142.709 198.377 141.841 199.085 140.206 199.327C138.603 199.106 137.358 198.05 136.069 197.13C134.727 196.206 133.335 195.359 131.955 194.493C130.806 193.77 129.661 193.04 128.517 192.31C127.53 191.68 126.541 191.053 125.547 190.434C121.95 188.184 118.442 185.786 115.304 182.92C115.182 182.808 115.06 182.697 114.934 182.583C111.195 179.124 108.25 174.69 108.006 169.459C107.999 168.989 107.997 168.518 108 168.047C108.001 167.798 108.002 167.549 108.004 167.293C108.087 163.195 109.612 159.738 112.34 156.668C112.459 156.533 112.579 156.399 112.702 156.26C115.201 153.614 118.754 151.904 122.388 151.748C127.315 151.636 131.293 152.947 134.993 156.244C135.344 156.528 135.696 156.811 136.051 157.091C136.187 156.894 136.323 156.697 136.462 156.495C139.26 152.476 143.052 149.391 147.995 148.504C152.574 147.944 156.95 149.034 160.61 151.878Z" fill="#FF6060"/>
<path d="M208.879 151.587C210.411 152.773 211.658 154.109 212.75 155.713C213.128 156.266 213.537 156.784 213.96 157.303C214.063 157.187 214.167 157.072 214.273 156.953C216.975 154.079 220.86 151.873 224.861 151.735C229.3 151.689 232.815 152.608 236.19 155.609C236.4 155.79 236.4 155.79 236.614 155.974C239.362 158.507 241.28 162.443 241.522 166.17C241.539 166.814 241.54 167.456 241.535 168.1C241.537 168.315 241.539 168.53 241.54 168.752C241.527 174.121 238.805 178.493 235.197 182.284C232.002 185.379 228.101 187.88 224.36 190.255C223.594 190.743 222.833 191.238 222.071 191.732C221.769 191.928 221.466 192.123 221.163 192.319C220.644 192.655 220.124 192.991 219.605 193.328C218.438 194.083 217.266 194.828 216.086 195.563C215.86 195.703 215.635 195.844 215.402 195.988C214.953 196.268 214.503 196.547 214.053 196.826C213.159 197.381 212.275 197.933 211.431 198.562C210.852 198.963 210.532 199.163 209.845 199.234C209.701 199.254 209.558 199.274 209.409 199.295C207.906 199.086 206.798 198.109 205.773 197.061C205.643 196.932 205.513 196.802 205.379 196.669C204.953 196.244 204.531 195.815 204.108 195.387C203.811 195.089 203.513 194.79 203.215 194.492C202.592 193.867 201.971 193.241 201.35 192.615C200.559 191.815 199.765 191.017 198.97 190.22C198.208 189.456 197.447 188.69 196.685 187.925C196.542 187.78 196.398 187.636 196.25 187.487C194.842 186.07 193.445 184.658 192.154 183.131C191.859 182.813 191.564 182.496 191.268 182.179C189.094 179.757 187.27 177.143 185.803 174.24C185.733 174.103 185.664 173.967 185.592 173.826C183.398 169.443 182.693 164.378 184.109 159.632C184.849 157.498 185.854 155.671 187.285 153.915C187.387 153.78 187.488 153.644 187.593 153.504C192.72 146.932 202.552 147.243 208.879 151.587Z" fill="#FF6060"/>
<path d="M208.879 151.587C210.411 152.773 211.658 154.109 212.75 155.713C213.128 156.266 213.537 156.784 213.96 157.303C214.063 157.187 214.167 157.072 214.273 156.953C216.975 154.079 220.86 151.873 224.861 151.735C229.3 151.689 232.815 152.608 236.19 155.609C236.4 155.79 236.4 155.79 236.614 155.974C239.362 158.507 241.28 162.443 241.522 166.17C241.539 166.814 241.54 167.456 241.535 168.1C241.537 168.315 241.539 168.53 241.54 168.752C241.527 174.121 238.805 178.493 235.197 182.284C232.002 185.379 228.101 187.88 224.36 190.255C223.594 190.743 222.833 191.238 222.071 191.732C221.769 191.928 221.466 192.123 221.163 192.319C220.644 192.655 220.124 192.991 219.605 193.328C218.438 194.083 217.266 194.828 216.086 195.563C215.86 195.703 215.635 195.844 215.402 195.988C214.953 196.268 214.503 196.547 214.053 196.826C213.159 197.381 212.275 197.933 211.431 198.562C210.852 198.963 210.532 199.163 209.845 199.234C209.701 199.254 209.558 199.274 209.409 199.295C207.906 199.086 206.798 198.109 205.773 197.061C205.643 196.932 205.513 196.802 205.379 196.669C204.953 196.244 204.531 195.815 204.108 195.387C203.811 195.089 203.513 194.79 203.215 194.492C202.592 193.867 201.971 193.241 201.35 192.615C200.559 191.815 199.765 191.017 198.97 190.22C198.208 189.456 197.447 188.69 196.685 187.925C196.542 187.78 196.398 187.636 196.25 187.487C194.842 186.07 193.445 184.658 192.154 183.131C191.859 182.813 191.564 182.496 191.268 182.179C189.094 179.757 187.27 177.143 185.803 174.24C185.733 174.103 185.664 173.967 185.592 173.826C183.398 169.443 182.693 164.378 184.109 159.632C184.849 157.498 185.854 155.671 187.285 153.915C187.387 153.78 187.488 153.644 187.593 153.504C192.72 146.932 202.552 147.243 208.879 151.587ZM192.578 156.456C192.443 156.562 192.308 156.668 192.168 156.777C190.644 158.121 189.329 160.655 189.144 162.677C188.84 169.6 191.868 174.363 196.388 179.321C196.758 179.705 197.132 180.08 197.517 180.449C197.866 180.798 198.183 181.161 198.502 181.538C199.438 182.613 200.442 183.618 201.452 184.623C201.773 184.944 202.094 185.265 202.414 185.587C203.423 186.596 204.443 187.577 205.527 188.505C206.205 189.103 206.832 189.75 207.464 190.396C207.718 190.655 207.973 190.915 208.228 191.174C208.394 191.343 208.394 191.343 208.562 191.515C209.063 191.984 209.371 192.236 210.07 192.231C211.073 191.939 211.832 191.403 212.69 190.819C213.068 190.567 213.447 190.315 213.826 190.064C214.021 189.933 214.217 189.802 214.419 189.668C215.4 189.019 216.394 188.391 217.387 187.762C217.78 187.513 218.173 187.264 218.565 187.014C218.753 186.894 218.941 186.775 219.135 186.652C229.651 180.503 229.651 180.503 235.833 170.521C236.421 167.411 235.723 164.231 233.954 161.63C232.412 159.606 230.439 158.074 227.933 157.515C225.763 157.383 223.765 157.329 221.794 158.361C221.512 158.508 221.512 158.508 221.225 158.658C218.797 160.069 216.956 162.008 215.697 164.503C215.156 165.524 214.629 165.855 213.537 166.195C212.571 166.35 211.646 166.253 210.785 165.771C210.332 165.092 210.305 164.826 210.229 164.038C209.803 161.317 208.31 158.968 206.339 157.091C206.199 156.952 206.06 156.814 205.916 156.671C203.639 154.527 201.042 153.996 198.014 154.062C195.849 154.166 194.239 155.123 192.578 156.456Z" fill="black"/>
<path d="M160.61 151.878C163.47 154.397 165.693 158.331 166.114 162.172C166.575 169.717 163.639 176.092 158.731 181.726C158.235 182.272 157.73 182.808 157.222 183.343C156.996 183.606 156.771 183.871 156.547 184.137C155.67 185.151 154.706 186.082 153.749 187.02C153.106 187.654 152.485 188.294 151.899 188.981C151.003 190.011 150.051 190.979 149.091 191.948C148.904 192.137 148.717 192.325 148.524 192.52C148.131 192.916 147.738 193.312 147.344 193.707C146.842 194.212 146.342 194.719 145.843 195.226C145.362 195.714 144.878 196.199 144.394 196.685C144.216 196.866 144.039 197.047 143.856 197.234C142.709 198.377 141.841 199.085 140.206 199.327C138.603 199.106 137.358 198.05 136.069 197.13C134.727 196.206 133.335 195.359 131.955 194.493C130.806 193.77 129.661 193.04 128.517 192.31C127.53 191.68 126.541 191.053 125.547 190.434C121.95 188.184 118.442 185.786 115.304 182.92C115.182 182.808 115.06 182.697 114.934 182.583C111.195 179.124 108.25 174.69 108.006 169.459C107.999 168.989 107.997 168.518 108 168.047C108.001 167.798 108.002 167.549 108.004 167.293C108.087 163.195 109.612 159.738 112.34 156.668C112.459 156.533 112.579 156.399 112.702 156.26C115.201 153.614 118.754 151.904 122.388 151.748C127.315 151.636 131.293 152.947 134.993 156.244C135.344 156.528 135.696 156.811 136.051 157.091C136.187 156.894 136.323 156.697 136.462 156.495C139.26 152.476 143.052 149.391 147.995 148.504C152.574 147.944 156.95 149.034 160.61 151.878ZM142.19 158.198C140.689 160.032 139.678 162.094 139.511 164.469C139.43 164.978 139.282 165.331 139.015 165.771C138.09 166.35 136.897 166.348 135.84 166.195C134.86 165.764 134.561 165.257 134.119 164.302C132.46 161.063 129.664 158.838 126.279 157.552C123.733 156.81 121.152 157.448 118.876 158.692C116.264 160.395 114.446 162.741 113.729 165.798C113.68 166.14 113.64 166.485 113.61 166.83C113.593 167.02 113.576 167.21 113.558 167.405C113.401 170.947 114.742 174.293 117.103 176.899C121.303 181.302 126.954 184.399 132.064 187.621C133.101 188.277 134.135 188.939 135.168 189.6C135.512 189.82 135.856 190.04 136.2 190.26C136.411 190.395 136.622 190.53 136.839 190.668C137.035 190.794 137.232 190.919 137.435 191.048C137.859 191.324 138.268 191.612 138.678 191.909C139.315 192.287 139.557 192.338 140.285 192.235C140.851 191.846 140.851 191.846 141.418 191.272C141.534 191.162 141.649 191.052 141.768 190.938C142.195 190.527 142.616 190.111 143.038 189.694C143.214 189.521 143.39 189.347 143.572 189.168C144.94 187.82 146.298 186.463 147.655 185.104C148.099 184.66 148.543 184.216 148.988 183.772C149.421 183.34 149.854 182.907 150.287 182.473C150.589 182.171 150.892 181.869 151.194 181.567C156.107 176.637 160.459 171.189 160.464 163.949C160.424 161.023 159.357 158.704 157.421 156.509C155.509 154.718 152.751 153.795 150.165 153.863C146.877 154.167 144.364 155.782 142.19 158.198Z" fill="black"/>
</svg>
