<svg width="350" height="350" viewBox="0 0 350 350" fill="none" xmlns="http://www.w3.org/2000/svg">
<path d="M132.371 53.9297C133.145 54.608 133.891 55.3124 134.632 56.0259C134.782 56.1616 134.931 56.2973 135.086 56.4371C137.551 58.7439 139.509 61.7307 141.238 64.613C141.335 64.7739 141.432 64.9348 141.532 65.1005C149.575 78.5139 155.018 95.937 154.889 111.732C155.188 111.646 155.188 111.646 155.493 111.559C157.499 111.002 159.488 110.593 161.549 110.287C161.701 110.264 161.853 110.241 162.01 110.217C162.942 110.078 163.875 109.943 164.809 109.811C165.203 109.755 165.597 109.696 165.991 109.637C176.752 108.043 187.675 109.452 198.264 111.511C198.255 111.262 198.246 111.013 198.236 110.756C198.238 109.079 198.496 107.419 198.718 105.759C198.743 105.578 198.767 105.396 198.792 105.209C200.867 89.7293 204.74 72.6265 214.778 60.2094C214.877 60.0847 214.977 59.96 215.079 59.8316C220.074 53.6065 226.772 48.3806 234.814 46.9986C239.632 46.7061 243.537 46.9284 247.378 50.0673C248.733 51.3305 249.59 52.8621 250.447 54.4847C250.561 54.6993 250.675 54.9138 250.792 55.1349C252.061 57.7251 252.457 60.5777 252.473 63.4355C252.475 63.6136 252.476 63.7917 252.478 63.9752C252.482 64.5502 252.483 65.1251 252.484 65.7001C252.484 65.9957 252.484 65.9957 252.484 66.2973C252.48 69.5209 252.32 72.6603 251.768 75.8422C251.713 76.1668 251.713 76.1668 251.657 76.498C248.523 94.5457 240.397 112.286 228.869 126.484C229.527 127.269 230.182 128.029 230.92 128.74C231.942 129.747 232.817 130.87 233.713 131.988C233.859 132.163 234.004 132.337 234.154 132.517C236.265 135.075 238.01 137.923 239.658 140.795C239.737 140.932 239.816 141.068 239.898 141.209C244.691 149.563 247.635 159.719 247.614 169.379C247.614 169.596 247.614 169.813 247.615 170.036C247.615 170.49 247.614 170.944 247.613 171.398C247.612 172.088 247.613 172.779 247.615 173.469C247.615 173.913 247.614 174.357 247.614 174.801C247.614 175.005 247.615 175.209 247.615 175.418C247.611 176.665 247.523 177.87 247.365 179.107C247.574 179.121 247.574 179.121 247.788 179.137C248.427 179.183 249.065 179.234 249.704 179.286C249.924 179.301 250.144 179.316 250.37 179.332C251.558 179.431 252.506 179.541 253.53 180.208C254.063 180.847 254.182 181.234 254.273 182.065C254.18 182.948 254.042 183.444 253.53 184.171C252.333 184.824 251.457 184.903 250.117 184.776C249.958 184.765 249.799 184.753 249.636 184.741C248.652 184.664 247.68 184.54 246.704 184.391C246.21 185.829 245.77 187.277 245.355 188.74C245.297 188.942 245.239 189.144 245.179 189.353C245.123 189.549 245.067 189.745 245.01 189.947C244.96 190.122 244.91 190.298 244.858 190.478C244.717 191.015 244.606 191.552 244.502 192.097C244.733 192.177 244.965 192.257 245.203 192.34C249.399 193.828 249.399 193.828 250.447 195.4C250.594 196.157 250.601 196.846 250.447 197.602C249.892 198.401 249.248 198.803 248.339 199.121C247.193 199.155 246.278 198.711 245.232 198.276C244.818 198.108 244.405 197.941 243.99 197.775C243.718 197.662 243.718 197.662 243.439 197.547C242.941 197.346 242.941 197.346 242.3 197.382C241.945 197.926 241.632 198.463 241.323 199.033C239.71 201.89 237.751 204.484 235.475 206.849C235.3 207.034 235.3 207.034 235.122 207.223C231.594 210.945 227.508 213.716 222.938 216.028C222.718 216.14 222.718 216.14 222.492 216.254C221.859 216.565 221.437 216.757 220.723 216.757C220.723 216.903 220.723 217.048 220.723 217.198C220.9 217.243 221.076 217.289 221.259 217.335C222.296 217.735 223.132 218.323 224.039 218.959C224.224 219.088 224.41 219.216 224.6 219.349C227.165 221.14 229.584 223.082 231.952 225.124C232.11 225.26 232.268 225.395 232.43 225.535C232.861 225.908 233.288 226.286 233.713 226.666C233.894 226.826 234.074 226.986 234.26 227.151C237.196 229.795 240.126 232.541 242.521 235.693C242.687 235.9 242.854 236.107 243.025 236.32C246.871 241.156 251.737 247.891 251.108 254.408C251.088 254.673 251.088 254.673 251.069 254.942C250.717 257.803 249.078 260.674 246.924 262.555C245.516 263.607 243.971 264.24 242.3 264.757C242.151 264.807 242.001 264.857 241.846 264.908C236.911 266.296 231.194 264.318 226.715 262.31C226.54 262.232 226.365 262.154 226.185 262.073C226.053 262.014 225.922 261.955 225.787 261.894C225.838 262.281 225.838 262.281 225.891 262.675C227.641 275.949 228.671 289.249 228.703 302.638C228.704 303.074 228.706 303.509 228.708 303.945C228.73 310.838 228.674 317.975 223.785 323.394C221.405 325.66 218.354 326.909 215.218 327.728C215.056 327.771 214.893 327.814 214.726 327.858C212.736 328.3 210.696 328.258 208.668 328.262C208.026 328.265 207.385 328.276 206.743 328.287C203.444 328.316 200.669 327.764 197.728 326.215C197.582 326.139 197.436 326.064 197.286 325.987C194.006 324.249 191.509 321.48 190.336 317.923C189.498 315.162 189.069 312.291 188.576 309.453C188.475 308.883 188.374 308.313 188.272 307.743C188.152 307.066 188.034 306.388 187.916 305.71C187.649 305.73 187.649 305.73 187.377 305.751C181.398 306.189 175.478 306.255 169.49 305.944C169.212 305.93 169.212 305.93 168.929 305.915C168.404 305.887 167.879 305.858 167.354 305.828C167.197 305.82 167.04 305.811 166.879 305.802C166.162 305.759 165.485 305.701 164.797 305.49C164.782 305.675 164.782 305.675 164.766 305.864C164.15 312.691 163.187 320.122 157.738 324.83C156.996 325.376 156.243 325.821 155.426 326.242C155.234 326.343 155.234 326.343 155.038 326.446C151.899 327.965 148.869 328.344 145.421 328.3C144.761 328.292 144.102 328.296 143.443 328.3C140.111 328.298 136.971 327.912 133.917 326.49C133.672 326.377 133.672 326.377 133.422 326.262C129.7 324.479 127.334 321.666 125.825 317.82C125.7 317.504 125.7 317.504 125.572 317.181C124.047 312.817 124.172 308.008 124.199 303.448C124.201 302.964 124.203 302.48 124.204 301.995C124.24 289.34 125.075 276.765 126.695 264.213C126.715 264.054 126.735 263.895 126.756 263.731C126.84 263.089 126.941 262.511 127.146 261.894C126.909 261.99 126.671 262.086 126.426 262.185C120.498 264.552 114.553 266.536 108.338 264.01C105.237 262.545 103.474 260.244 102.266 257.05C100.795 252.661 102.635 248.182 104.579 244.275C107.997 237.773 113.357 231.629 118.928 226.882C119.34 226.531 119.746 226.175 120.151 225.816C123.838 222.559 127.792 219.548 131.99 216.978C131.862 216.909 131.734 216.841 131.601 216.77C124.665 213.055 118.272 208.823 113.715 202.226C113.62 202.088 113.525 201.951 113.427 201.809C112.435 200.365 111.489 198.911 110.633 197.382C109.641 197.559 108.723 197.782 107.789 198.161C107.56 198.253 107.56 198.253 107.327 198.347C107.022 198.472 106.718 198.601 106.416 198.734C105.337 199.175 104.702 199.168 103.587 198.703C102.913 198.115 102.571 197.769 102.38 196.901C102.325 196.015 102.439 195.489 102.858 194.698C104.282 193.242 106.496 192.698 108.431 192.317C108.364 192.088 108.364 192.088 108.296 191.854C108.092 191.147 107.89 190.438 107.688 189.73C107.618 189.49 107.548 189.25 107.476 189.002C107.022 187.402 106.686 185.817 106.449 184.171C106.199 184.239 105.95 184.307 105.692 184.377C104.652 184.606 103.615 184.712 102.555 184.79C102.395 184.804 102.236 184.819 102.071 184.833C100.994 184.902 100.314 184.748 99.4034 184.171C98.7421 183.399 98.6355 182.717 98.6818 181.732C98.7773 181.069 98.9587 180.71 99.4034 180.208C100.695 179.521 101.908 179.393 103.353 179.286C103.567 179.268 103.78 179.249 104 179.231C104.523 179.187 105.045 179.146 105.568 179.107C105.533 178.866 105.498 178.624 105.461 178.376C105.319 177.232 105.309 176.095 105.304 174.943C105.302 174.598 105.302 174.598 105.3 174.246C105.298 173.76 105.296 173.273 105.295 172.787C105.293 172.061 105.286 171.335 105.28 170.609C105.259 166.474 105.655 162.433 106.573 158.396C106.628 158.153 106.683 157.911 106.739 157.661C107.828 153.056 109.41 148.557 111.513 144.318C111.61 144.12 111.707 143.921 111.807 143.716C114.235 138.771 117.221 134.13 120.96 130.068C121.398 129.592 121.824 129.107 122.247 128.617C122.828 127.95 123.429 127.319 124.064 126.704C123.768 126.009 123.355 125.48 122.869 124.907C119.391 120.788 116.48 116.029 113.935 111.291C113.828 111.093 113.72 110.894 113.609 110.689C107.163 98.7483 102.429 85.5984 100.725 72.0991C100.705 71.9464 100.686 71.7937 100.666 71.6364C100.525 70.4726 100.464 69.3239 100.452 68.1522C100.45 67.9713 100.448 67.7905 100.445 67.6042C100.386 61.4429 100.537 55.237 105.128 50.5214C105.277 50.3645 105.425 50.2075 105.578 50.0458C107.313 48.355 109.562 47.3408 111.954 46.9986C112.19 46.9624 112.19 46.9624 112.43 46.9255C119.803 45.9485 126.874 49.2333 132.371 53.9297Z" fill="white"/>
<path d="M240.442 148.284C240.442 163.538 212.779 137.525 177.001 137.525C141.223 137.525 111.639 163.538 111.639 148.284C111.639 133.03 141.223 113.315 177.001 113.315C212.779 113.315 240.442 133.03 240.442 148.284Z" fill="#AADCE7"/>
<path d="M144.213 79.602C153.849 101.562 153.227 125.64 144.213 129.595C135.2 133.55 120.082 118.954 110.447 96.994C100.811 75.034 100.307 54.0259 109.32 50.071C118.334 46.1161 134.578 57.642 144.213 79.602Z" fill="#AADCE7"/>
<path d="M207.529 80.5633C198.602 102.82 199.994 126.866 209.129 130.531C218.265 134.195 232.908 119.123 241.835 96.8654C250.763 74.6082 250.594 53.5947 241.459 49.9304C232.323 46.2661 216.457 58.3061 207.529 80.5633Z" fill="#AADCE7"/>
<path d="M132.371 53.9297C133.145 54.608 133.891 55.3124 134.632 56.0259C134.782 56.1616 134.931 56.2973 135.086 56.4371C137.551 58.7439 139.509 61.7307 141.238 64.613C141.335 64.7739 141.432 64.9348 141.532 65.1005C149.575 78.5139 155.018 95.937 154.889 111.732C155.188 111.646 155.188 111.646 155.493 111.559C157.499 111.002 159.488 110.593 161.549 110.287C161.701 110.264 161.853 110.241 162.01 110.217C162.942 110.078 163.875 109.943 164.809 109.811C165.203 109.755 165.597 109.696 165.991 109.637C176.752 108.043 187.675 109.452 198.264 111.511C198.255 111.262 198.246 111.013 198.236 110.756C198.238 109.079 198.496 107.419 198.718 105.759C198.743 105.578 198.767 105.396 198.792 105.209C200.867 89.7293 204.74 72.6265 214.778 60.2094C214.877 60.0847 214.977 59.96 215.079 59.8316C220.074 53.6065 226.772 48.3806 234.814 46.9986C239.632 46.7061 243.537 46.9284 247.378 50.0673C248.733 51.3305 249.59 52.8621 250.447 54.4847C250.561 54.6993 250.675 54.9138 250.792 55.1349C252.061 57.7251 252.457 60.5777 252.473 63.4355C252.475 63.6136 252.476 63.7917 252.478 63.9752C252.482 64.5502 252.483 65.1251 252.484 65.7001C252.484 65.9957 252.484 65.9957 252.484 66.2973C252.48 69.5209 252.32 72.6603 251.768 75.8422C251.713 76.1668 251.713 76.1668 251.657 76.498C248.523 94.5457 240.397 112.286 228.869 126.484C229.527 127.269 230.182 128.029 230.92 128.74C231.942 129.747 232.817 130.87 233.713 131.988C233.859 132.163 234.004 132.337 234.154 132.517C236.265 135.075 238.01 137.923 239.658 140.795C239.737 140.932 239.816 141.068 239.898 141.209C244.691 149.563 247.635 159.719 247.614 169.379C247.614 169.596 247.614 169.813 247.615 170.036C247.615 170.49 247.614 170.944 247.613 171.398C247.612 172.088 247.613 172.779 247.615 173.469C247.615 173.913 247.614 174.357 247.614 174.801C247.614 175.005 247.615 175.209 247.615 175.418C247.611 176.665 247.523 177.87 247.365 179.107C247.574 179.121 247.574 179.121 247.788 179.137C248.427 179.183 249.065 179.234 249.704 179.286C249.924 179.301 250.144 179.316 250.37 179.332C251.558 179.431 252.506 179.541 253.53 180.208C254.063 180.847 254.182 181.234 254.273 182.065C254.18 182.948 254.042 183.444 253.53 184.171C252.333 184.824 251.457 184.903 250.117 184.776C249.958 184.765 249.799 184.753 249.636 184.741C248.652 184.664 247.68 184.54 246.704 184.391C246.21 185.829 245.77 187.277 245.355 188.74C245.297 188.942 245.239 189.144 245.179 189.353C245.123 189.549 245.067 189.745 245.01 189.947C244.96 190.122 244.91 190.298 244.858 190.478C244.717 191.015 244.606 191.552 244.502 192.097C244.733 192.177 244.965 192.257 245.203 192.34C249.399 193.828 249.399 193.828 250.447 195.4C250.594 196.157 250.601 196.846 250.447 197.602C249.892 198.401 249.248 198.803 248.339 199.121C247.193 199.155 246.278 198.711 245.232 198.276C244.818 198.108 244.405 197.941 243.99 197.775C243.718 197.662 243.718 197.662 243.439 197.547C242.941 197.346 242.941 197.346 242.3 197.382C241.945 197.926 241.632 198.463 241.323 199.033C239.71 201.89 237.751 204.484 235.475 206.849C235.3 207.034 235.3 207.034 235.122 207.223C231.594 210.945 227.508 213.716 222.938 216.028C222.718 216.14 222.718 216.14 222.492 216.254C221.859 216.565 221.437 216.757 220.723 216.757C220.723 216.903 220.723 217.048 220.723 217.198C220.9 217.243 221.076 217.289 221.259 217.335C222.296 217.735 223.132 218.323 224.039 218.959C224.224 219.088 224.41 219.216 224.6 219.349C227.165 221.14 229.584 223.082 231.952 225.124C232.11 225.26 232.268 225.395 232.43 225.535C232.861 225.908 233.288 226.286 233.713 226.666C233.894 226.826 234.074 226.986 234.26 227.151C237.196 229.795 240.126 232.541 242.521 235.693C242.687 235.9 242.854 236.107 243.025 236.32C246.871 241.156 251.737 247.891 251.108 254.408C251.088 254.673 251.088 254.673 251.069 254.942C250.717 257.803 249.078 260.674 246.924 262.555C245.516 263.607 243.971 264.24 242.3 264.757C242.151 264.807 242.001 264.857 241.846 264.908C236.911 266.296 231.194 264.318 226.715 262.31C226.54 262.232 226.365 262.154 226.185 262.073C226.053 262.014 225.922 261.955 225.787 261.894C225.838 262.281 225.838 262.281 225.891 262.675C227.641 275.949 228.671 289.249 228.703 302.638C228.704 303.074 228.706 303.509 228.708 303.945C228.73 310.838 228.674 317.975 223.785 323.394C221.405 325.66 218.354 326.909 215.218 327.728C215.056 327.771 214.893 327.814 214.726 327.858C212.736 328.3 210.696 328.258 208.668 328.262C208.026 328.265 207.385 328.276 206.743 328.287C203.444 328.316 200.669 327.764 197.728 326.215C197.582 326.139 197.436 326.064 197.286 325.987C194.006 324.249 191.509 321.48 190.336 317.923C189.498 315.162 189.069 312.291 188.576 309.453C188.475 308.883 188.374 308.313 188.272 307.743C188.152 307.066 188.034 306.388 187.916 305.71C187.649 305.73 187.649 305.73 187.377 305.751C181.398 306.189 175.478 306.255 169.49 305.944C169.212 305.93 169.212 305.93 168.929 305.915C168.404 305.887 167.879 305.858 167.354 305.828C167.197 305.82 167.04 305.811 166.879 305.802C166.162 305.759 165.485 305.701 164.797 305.49C164.782 305.675 164.782 305.675 164.766 305.864C164.15 312.691 163.187 320.122 157.738 324.83C156.996 325.376 156.243 325.821 155.426 326.242C155.234 326.343 155.234 326.343 155.038 326.446C151.899 327.965 148.869 328.344 145.421 328.3C144.761 328.292 144.102 328.296 143.443 328.3C140.111 328.298 136.971 327.912 133.917 326.49C133.672 326.377 133.672 326.377 133.422 326.262C129.7 324.479 127.334 321.666 125.825 317.82C125.7 317.504 125.7 317.504 125.572 317.181C124.047 312.817 124.172 308.008 124.199 303.448C124.201 302.964 124.203 302.48 124.204 301.995C124.24 289.34 125.075 276.765 126.695 264.213C126.715 264.054 126.735 263.895 126.756 263.731C126.84 263.089 126.941 262.511 127.146 261.894C126.909 261.99 126.671 262.086 126.426 262.185C120.498 264.552 114.553 266.536 108.338 264.01C105.237 262.545 103.474 260.244 102.266 257.05C100.795 252.661 102.635 248.182 104.579 244.275C107.997 237.773 113.357 231.629 118.928 226.882C119.34 226.531 119.746 226.175 120.151 225.816C123.838 222.559 127.792 219.548 131.99 216.978C131.862 216.909 131.734 216.841 131.601 216.77C124.665 213.055 118.272 208.823 113.715 202.226C113.62 202.088 113.525 201.951 113.427 201.809C112.435 200.365 111.489 198.911 110.633 197.382C109.641 197.559 108.723 197.782 107.789 198.161C107.56 198.253 107.56 198.253 107.327 198.347C107.022 198.472 106.718 198.601 106.416 198.734C105.337 199.175 104.702 199.168 103.587 198.703C102.913 198.115 102.571 197.769 102.38 196.901C102.325 196.015 102.439 195.489 102.858 194.698C104.282 193.242 106.496 192.698 108.431 192.317C108.364 192.088 108.364 192.088 108.296 191.854C108.092 191.147 107.89 190.438 107.688 189.73C107.618 189.49 107.548 189.25 107.476 189.002C107.022 187.402 106.686 185.817 106.449 184.171C106.199 184.239 105.95 184.307 105.692 184.377C104.652 184.606 103.615 184.712 102.555 184.79C102.395 184.804 102.236 184.819 102.071 184.833C100.994 184.902 100.314 184.748 99.4034 184.171C98.7421 183.399 98.6355 182.717 98.6818 181.732C98.7773 181.069 98.9587 180.71 99.4034 180.208C100.695 179.521 101.908 179.393 103.353 179.286C103.567 179.268 103.78 179.249 104 179.231C104.523 179.187 105.045 179.146 105.568 179.107C105.533 178.866 105.498 178.624 105.461 178.376C105.319 177.232 105.309 176.095 105.304 174.943C105.302 174.598 105.302 174.598 105.3 174.246C105.298 173.76 105.296 173.273 105.295 172.787C105.293 172.061 105.286 171.335 105.28 170.609C105.259 166.474 105.655 162.433 106.573 158.396C106.628 158.153 106.683 157.911 106.739 157.661C107.828 153.056 109.41 148.557 111.513 144.318C111.61 144.12 111.707 143.921 111.807 143.716C114.235 138.771 117.221 134.13 120.96 130.068C121.398 129.592 121.824 129.107 122.247 128.617C122.828 127.95 123.429 127.319 124.064 126.704C123.768 126.009 123.355 125.48 122.869 124.907C119.391 120.788 116.48 116.029 113.935 111.291C113.828 111.093 113.72 110.894 113.609 110.689C107.163 98.7483 102.429 85.5984 100.725 72.0991C100.705 71.9464 100.686 71.7937 100.666 71.6364C100.525 70.4726 100.464 69.3239 100.452 68.1522C100.45 67.9713 100.448 67.7905 100.445 67.6042C100.386 61.4429 100.537 55.237 105.128 50.5214C105.277 50.3645 105.425 50.2075 105.578 50.0458C107.313 48.355 109.562 47.3408 111.954 46.9986C112.19 46.9624 112.19 46.9624 112.43 46.9255C119.803 45.9485 126.874 49.2333 132.371 53.9297ZM108.719 55.8694C106.632 59.1638 106.355 62.7794 106.367 66.5946C106.367 66.7557 106.367 66.9168 106.367 67.0828C106.389 72.7801 107.425 78.2687 108.871 83.7686C108.936 84.015 109 84.2614 109.067 84.5153C110.741 90.7674 113.182 96.8452 115.917 102.704C116.01 102.905 116.104 103.105 116.2 103.312C118.64 108.49 121.635 113.424 124.986 118.062C125.106 118.228 125.226 118.394 125.349 118.566C126.931 120.734 128.629 122.809 130.396 124.828C130.996 125.563 131.116 126.079 131.082 127.02C130.694 128.601 129.62 129.549 128.453 130.598C128.156 130.872 127.859 131.146 127.562 131.42C127.416 131.554 127.27 131.688 127.12 131.826C117.957 140.29 112.43 152.956 111.073 165.235C111.052 165.409 111.032 165.583 111.011 165.763C110.827 167.486 110.812 169.208 110.812 170.939C110.812 171.437 110.808 171.935 110.803 172.433C110.795 174.616 110.969 176.728 111.293 178.886C111.679 178.899 111.679 178.899 112.073 178.911C112.414 178.926 112.755 178.941 113.096 178.955C113.265 178.96 113.434 178.965 113.609 178.97C114.62 179.018 115.316 179.116 116.137 179.767C116.682 180.584 116.698 181.242 116.577 182.189C116.308 182.81 116.114 183.163 115.545 183.531C114.876 183.793 114.266 183.825 113.55 183.868C113.292 183.885 113.035 183.901 112.769 183.918C112.573 183.929 112.376 183.939 112.174 183.951C112.246 185.443 112.531 186.82 112.917 188.258C112.963 188.436 113.009 188.615 113.056 188.798C113.181 189.244 113.336 189.681 113.495 190.116C114.17 190.341 114.532 190.327 115.229 190.281C116.069 190.276 116.311 190.306 117.045 190.776C117.503 191.508 117.62 191.926 117.567 192.774C117.382 193.493 116.918 193.843 116.357 194.299C116.135 194.517 115.914 194.737 115.697 194.96C117.391 198.08 119.413 200.76 121.862 203.326C122.025 203.501 122.188 203.676 122.356 203.855C127.38 209.092 134.436 212.308 141.389 214.001C142.64 214.321 143.534 214.557 144.32 215.657C144.648 216.577 144.646 217.389 144.265 218.285C143.501 219.185 142.725 219.287 141.623 219.455C136.174 220.397 131.321 223.861 127.146 227.326C126.863 227.555 126.58 227.783 126.296 228.012C124.144 229.752 122.087 231.563 120.1 233.491C119.917 233.668 119.734 233.845 119.546 234.028C116.065 237.408 116.065 237.408 113.055 241.197C112.849 241.492 112.849 241.492 112.639 241.792C108.334 247.759 108.334 247.759 107.33 254.849C107.74 256.357 108.351 257.691 109.717 258.54C109.942 258.648 110.167 258.756 110.399 258.867C110.623 258.977 110.848 259.087 111.079 259.201C114.208 260.5 118.102 259.581 121.114 258.373C122.286 257.881 123.444 257.358 124.6 256.83C124.848 256.718 125.096 256.606 125.352 256.49C125.589 256.38 125.827 256.269 126.072 256.156C126.284 256.058 126.496 255.96 126.715 255.859C127.037 255.686 127.037 255.686 127.366 255.509C127.495 255.445 127.625 255.38 127.758 255.313C129.132 254.51 129.4 253.323 129.823 251.856C129.9 251.606 129.977 251.356 130.057 251.098C130.303 250.3 130.541 249.499 130.779 248.697C133.304 240.298 133.304 240.298 134.746 239.255C135.432 238.93 135.862 238.902 136.614 238.996C137.447 239.374 137.829 239.688 138.155 240.537C138.326 242.813 137.511 244.938 136.783 247.052C136.447 248.029 136.124 249.01 135.799 249.991C135.735 250.184 135.671 250.377 135.605 250.576C132.543 259.845 131.23 269.512 130.488 279.213C130.447 279.757 130.404 280.302 130.361 280.847C129.832 287.664 129.633 294.471 129.568 301.307C129.566 301.487 129.564 301.668 129.562 301.854C129.127 311.242 129.127 311.242 133.076 319.375C135.175 321.405 137.747 322.208 140.577 322.664C140.754 322.693 140.931 322.722 141.114 322.752C145.588 323.327 150.714 323.125 154.517 320.504C156.719 318.734 157.518 316.247 158.081 313.568C158.127 313.354 158.173 313.141 158.221 312.921C158.649 310.847 158.938 308.756 159.197 306.654C159.815 301.756 159.815 301.756 160.737 300.811C162.354 299.651 164.772 300.168 166.671 300.364C169.621 300.664 172.551 300.707 175.514 300.691C176.318 300.687 177.123 300.687 177.927 300.687C180.188 300.684 182.447 300.67 184.705 300.547C184.862 300.539 185.018 300.53 185.179 300.521C185.963 300.472 186.708 300.367 187.476 300.206C188.099 300.157 188.722 300.155 189.347 300.151C189.511 300.146 189.676 300.142 189.845 300.137C190.843 300.13 191.542 300.174 192.319 300.866C193.07 302.17 193.204 303.577 193.407 305.05C193.482 305.563 193.558 306.077 193.634 306.591C193.671 306.849 193.709 307.107 193.748 307.373C194.491 314.562 194.491 314.562 198.248 320.381C202.491 323.178 207.935 323.523 212.84 322.581C213.044 322.536 213.247 322.49 213.457 322.444C213.676 322.401 213.896 322.358 214.122 322.314C217.17 321.653 219.554 320.265 221.35 317.673C222.781 315.237 223.179 312.483 223.177 309.694C223.178 309.447 223.178 309.447 223.179 309.195C223.181 308.652 223.181 308.11 223.182 307.567C223.182 307.18 223.183 306.794 223.184 306.407C223.185 305.593 223.186 304.78 223.185 303.966C223.185 303.15 223.187 302.335 223.19 301.519C223.218 293.821 222.953 286.137 222.257 278.468C222.241 278.293 222.225 278.118 222.209 277.938C221.276 267.841 219.752 258.065 216.535 248.433C216.451 248.181 216.451 248.181 216.366 247.924C216.096 247.112 215.822 246.302 215.538 245.494C214.887 243.595 214.225 241.543 215.094 239.615C215.912 239.037 216.647 238.914 217.64 238.996C219.121 239.702 219.676 241.594 220.202 243.051C220.608 244.204 220.996 245.363 221.383 246.523C221.517 246.92 221.651 247.317 221.786 247.714C221.851 247.908 221.917 248.103 221.984 248.303C222.115 248.69 222.246 249.076 222.378 249.462C222.673 250.331 222.955 251.197 223.196 252.081C223.685 253.887 223.685 253.887 224.947 255.206C225.295 255.391 225.649 255.566 226.007 255.729C226.272 255.869 226.272 255.869 226.543 256.011C227.097 256.298 227.657 256.566 228.223 256.83C228.523 256.972 228.523 256.972 228.83 257.116C230.573 257.925 232.331 258.645 234.154 259.252C234.327 259.311 234.501 259.369 234.679 259.429C237.228 260.138 240.359 259.933 242.741 258.812C244.295 257.828 245.034 256.557 245.603 254.849C246.111 249.134 242.031 243.704 238.561 239.505C237.826 238.662 237.073 237.837 236.312 237.019C235.716 236.379 235.135 235.726 234.553 235.074C233.796 234.239 233.016 233.482 232.154 232.757C231.709 232.371 231.302 231.961 230.892 231.537C230.05 230.683 229.146 229.936 228.21 229.188C227.64 228.722 227.094 228.239 226.548 227.745C222.314 223.967 216.767 220.113 211.007 219.4C210.124 219.281 209.753 219.206 208.998 218.698C208.522 217.933 208.393 217.439 208.393 216.537C208.664 215.673 208.942 215.302 209.659 214.748C210.568 214.285 211.543 214.064 212.527 213.812C218.663 212.239 224.302 209.48 229.09 205.308C229.304 205.123 229.519 204.937 229.741 204.746C232.822 202.038 235.29 198.789 237.236 195.18C237.236 195.034 237.236 194.889 237.236 194.739C236.991 194.612 236.746 194.485 236.493 194.354C236.019 194.079 235.721 193.892 235.378 193.46C235.114 192.432 235.09 191.723 235.626 190.79C236.763 190.082 237.913 190.25 239.218 190.336C239.436 189.603 239.65 188.868 239.865 188.134C239.926 187.928 239.987 187.722 240.05 187.51C240.396 186.32 240.644 185.186 240.759 183.951C240.472 183.946 240.472 183.946 240.179 183.941C237.848 183.845 237.848 183.845 237.071 183.194C236.384 182.411 236.269 181.929 236.276 180.877C236.409 180.124 236.877 179.782 237.456 179.327C238.183 178.964 238.996 179.022 239.796 178.983C239.972 178.973 240.149 178.964 240.331 178.954C240.767 178.931 241.203 178.908 241.64 178.886C244.112 165.464 239.874 150.688 232.429 139.501C229.872 135.819 227.018 132.361 223.471 129.597C222.58 128.828 221.896 128.092 221.727 126.91C221.906 125.302 222.974 124.228 224.039 123.071C227.57 119.227 230.481 114.719 233.053 110.19C233.2 109.931 233.2 109.931 233.35 109.667C238.215 101.044 242.043 91.8254 244.502 82.2274C244.554 82.0297 244.606 81.832 244.659 81.6283C245.93 76.7317 246.565 71.7442 246.566 66.6909C246.567 66.542 246.567 66.393 246.568 66.2395C246.567 63.5928 246.387 60.9644 245.521 58.4479C245.433 58.1845 245.345 57.9211 245.254 57.6498C244.448 55.7257 242.985 54.0976 241.064 53.2548C240.082 52.9 239.183 52.8246 238.144 52.8333C237.964 52.8348 237.783 52.8362 237.596 52.8376C232.897 52.9742 228.857 55.3493 225.126 58.0076C224.944 58.1361 224.761 58.2647 224.572 58.3972C211.682 67.9259 207.345 87.1424 205.064 102.066C204.457 106.126 204.012 110.201 203.662 114.291C203.645 114.475 203.628 114.659 203.61 114.849C203.58 115.177 203.552 115.506 203.529 115.835C203.433 116.842 203.167 117.407 202.448 118.117C200.764 118.678 199.274 118.111 197.631 117.635C192.824 116.299 188.041 115.48 183.072 115.034C182.723 115.002 182.723 115.002 182.366 114.97C173.618 114.229 164.678 115.228 156.21 117.456C155.691 117.592 155.172 117.728 154.652 117.862C154.239 117.969 153.827 118.08 153.415 118.191C152.384 118.398 151.499 118.494 150.527 118.062C149.771 117.457 149.631 116.976 149.491 116.016C149.462 115.701 149.434 115.385 149.408 115.069C149.375 114.713 149.342 114.357 149.309 114.001C149.292 113.813 149.275 113.625 149.258 113.431C147.772 96.9106 144.606 79.3322 134.852 65.4937C134.721 65.3066 134.721 65.3066 134.587 65.1158C133.461 63.5313 132.232 62.0546 130.889 60.6497C130.767 60.5182 130.644 60.3867 130.518 60.2511C129.385 59.0692 128.159 58.1345 126.802 57.2232C126.588 57.0792 126.375 56.9352 126.154 56.7868C124.485 55.6817 122.857 54.7514 120.981 54.0443C120.767 53.9619 120.767 53.9619 120.55 53.8778C118.687 53.1782 116.918 52.8431 114.926 52.8196C114.747 52.8163 114.568 52.8131 114.384 52.8097C112.037 52.8499 110.103 53.9958 108.719 55.8694Z" fill="black"/>
<path d="M189.476 236.139C195.657 241.477 198.796 249.832 199.549 257.895C199.904 262.521 200.08 267.464 198.767 271.942C198.707 272.159 198.707 272.159 198.646 272.38C197.775 275.455 196.127 277.993 193.922 280.244C193.771 280.4 193.62 280.557 193.464 280.718C188.351 285.686 181.045 286.443 174.337 286.323C172.916 286.279 171.535 286.116 170.136 285.853C169.987 285.826 169.837 285.798 169.684 285.769C164.518 284.774 159.853 282.269 156.776 277.787C152.346 270.974 152.603 261.256 154.138 253.525C155.662 246.451 159.198 238.739 165.325 234.64C165.532 234.51 165.739 234.38 165.952 234.246C166.079 234.165 166.206 234.083 166.338 233.999C174.013 229.135 182.625 230.656 189.476 236.139Z" fill="#F4A99C"/>
<path d="M177.127 227.326C177.531 227.353 177.531 227.353 177.943 227.38C184.914 227.96 190.953 231.18 195.479 236.482C199.169 240.939 201.665 246.272 203.163 251.835C203.241 252.116 203.241 252.116 203.32 252.403C204.229 255.953 204.541 259.554 204.516 263.208C204.512 263.81 204.516 264.411 204.52 265.012C204.524 268.211 204.264 271.419 203.191 274.459C203.135 274.619 203.08 274.78 203.023 274.946C200.851 280.954 196.57 285.786 190.825 288.598C182.736 292.357 172.357 292.551 164.001 289.533C160.042 288.034 156.366 285.557 153.788 282.151C153.629 281.942 153.47 281.733 153.306 281.518C147.738 273.842 147.577 264.511 148.952 255.439C149.285 253.355 149.821 251.345 150.485 249.344C150.564 249.103 150.564 249.103 150.645 248.857C151.365 246.709 152.31 244.693 153.363 242.69C153.545 242.342 153.721 241.991 153.896 241.64C156.991 235.608 162.83 230.509 169.256 228.372C171.783 227.655 174.495 227.129 177.127 227.326ZM161.935 238.555C161.777 238.713 161.62 238.871 161.458 239.033C157.605 243.124 155.414 248.59 154.173 253.996C154.14 254.14 154.107 254.284 154.072 254.433C153.461 257.295 153.275 260.144 153.29 263.062C153.293 263.589 153.29 264.116 153.287 264.644C153.282 270.573 154.739 276.168 158.893 280.555C164.071 285.509 171.093 286.475 177.975 286.375C184.419 286.218 190.388 284.106 194.907 279.42C195.713 278.49 196.343 277.497 196.943 276.426C197.061 276.22 197.179 276.014 197.3 275.802C198.211 274.108 198.756 272.36 199.145 270.482C199.204 270.207 199.204 270.207 199.265 269.927C199.649 267.936 199.654 265.977 199.64 263.959C199.64 263.783 199.639 263.607 199.638 263.425C199.627 260.911 199.585 258.432 199.145 255.95C199.118 255.795 199.091 255.641 199.063 255.482C198.048 249.936 196.01 244.429 192.32 240.097C192.05 239.77 192.05 239.77 191.774 239.436C190.264 237.663 188.519 236.33 186.595 235.033C186.402 234.899 186.209 234.765 186.011 234.627C178.184 229.522 168.067 232.341 161.935 238.555Z" fill="black"/>
<path d="M231.732 72.5395C232.403 72.9795 232.943 73.4998 233.493 74.0808C233.661 74.2488 233.829 74.4168 234.002 74.5899C235.979 77.7376 235.026 81.8429 234.276 85.23C233.775 87.3533 233.107 89.4154 232.392 91.475C232.333 91.6487 232.273 91.8225 232.212 92.0015C231.891 92.9406 231.561 93.8762 231.22 94.8087C231.081 95.1922 230.943 95.5767 230.806 95.9612C230.144 97.7623 229.314 99.4506 228.438 101.154C228.215 101.591 227.997 102.031 227.781 102.471C225.167 107.803 222.211 113.179 218.301 117.676C218.132 117.871 218.132 117.871 217.96 118.069C217.609 118.468 217.254 118.865 216.897 119.259C216.79 119.378 216.682 119.498 216.571 119.62C215.772 120.48 215.098 121.112 213.919 121.303C212.835 121.314 212.117 121.313 211.159 120.773C209.745 119.084 209.356 117.886 209.494 115.695C209.61 114.607 209.773 113.527 209.948 112.447C209.984 112.22 209.984 112.22 210.021 111.987C211.952 99.9415 215.622 82.1347 226.213 74.4386C227.872 73.2796 229.646 72.1694 231.732 72.5395Z" fill="#F4A99C"/>
<path d="M122.846 72.5971C123.03 72.6508 123.214 72.7044 123.403 72.7597C123.582 72.8111 123.762 72.8624 123.947 72.9154C129.451 74.8229 132.58 80.6448 134.97 85.5654C136.389 88.5611 137.53 91.6415 138.595 94.7777C138.657 94.9547 138.718 95.1318 138.781 95.3142C140.722 100.961 141.904 106.811 142.868 112.692C143.024 113.648 143.188 114.602 143.353 115.557C143.627 117.382 143.607 118.59 142.515 120.126C141.877 120.79 141.305 121.148 140.394 121.31C139.033 121.337 138.101 121.267 137.064 120.348C130.481 113.476 125.708 104.378 122.082 95.6584C121.961 95.3827 121.84 95.1072 121.718 94.8319C120.436 91.8863 119.475 88.8265 118.559 85.7503C118.509 85.584 118.459 85.4177 118.407 85.2464C117.853 83.3325 117.817 81.3866 117.775 79.4064C117.766 79.154 117.757 78.9017 117.748 78.6417C117.742 76.5258 118.411 75.3151 119.705 73.6929C120.743 72.7164 121.416 72.3081 122.846 72.5971Z" fill="#F4A99C"/>
<path d="M226.341 174.735C228.561 176.393 230.119 178.351 230.568 181.127C230.9 184.419 230.508 186.948 228.441 189.587C226.95 191.33 224.971 192.497 222.704 192.978C219.568 193.138 217.11 192.995 214.558 190.996C214.424 190.896 214.291 190.795 214.153 190.692C212.623 189.369 211.276 186.851 211.035 184.831C210.817 181.772 211.363 179.37 213.237 176.905C213.475 176.564 213.475 176.564 213.718 176.217C216.891 172.579 222.431 172.214 226.341 174.735Z" fill="#F4A99C"/>
<path d="M137.219 174.744C139.422 176.228 140.918 178.241 141.558 180.821C142.061 183.794 141.716 186.648 140.013 189.194C138.444 191.195 136.441 192.431 133.972 192.978C130.462 193.19 127.982 192.675 125.186 190.442C123.688 189.094 122.468 186.836 122.254 184.818C122.084 181.527 122.507 179.039 124.617 176.398C128.023 172.703 132.982 172.235 137.219 174.744Z" fill="#F4A99C"/>
<path d="M176.577 172.006C176.814 172.004 177.051 172.002 177.295 172.001C180.545 172.008 180.545 172.008 181.793 172.812C182.535 173.706 182.805 174.37 182.718 175.541C182.454 177.025 181.642 178.521 180.431 179.44C179.776 179.858 179.187 180.181 178.448 180.428C178.323 182.563 178.582 184.675 179.989 186.372C181.043 187.426 182.159 187.629 183.595 187.762C185.172 187.626 186.705 187.202 187.916 186.152C188.342 185.589 188.738 185.015 189.123 184.423C189.457 183.951 189.457 183.951 189.897 183.73C190.866 183.619 191.338 183.674 192.196 184.157C192.852 184.941 192.946 185.306 192.873 186.299C192.485 188.058 191.024 189.466 189.607 190.482C186.83 192.249 183.782 192.525 180.565 191.968C179.139 191.525 178.176 190.679 177.126 189.637C176.732 189.185 176.732 189.185 176.246 189.235C176.11 189.426 175.974 189.616 175.833 189.813C174.863 191.04 173.133 191.782 171.623 192.097C168.196 192.372 165.352 192.093 162.595 189.895C161.449 188.892 160.324 187.9 160.105 186.322C160.058 185.452 160.053 184.992 160.586 184.281C161.416 183.695 161.954 183.636 162.953 183.751C163.841 184.09 164.177 184.83 164.66 185.613C165.343 186.644 166.292 187.068 167.439 187.473C169.163 187.774 170.928 187.903 172.503 187.033C173.766 185.939 174.209 184.45 174.485 182.85C174.523 182.636 174.562 182.423 174.601 182.203C174.667 181.539 174.681 181.066 174.485 180.428C173.97 179.975 173.456 179.7 172.843 179.396C171.443 178.673 170.788 177.248 170.301 175.804C170.159 174.895 170.243 174.586 170.701 173.781C172.235 171.808 174.206 171.989 176.577 172.006Z" fill="black"/>
<path d="M209.528 163.343C211.337 164.774 212.056 166.661 212.337 168.909C212.381 170.615 211.938 172.296 210.815 173.602C209.358 175.132 207.977 175.813 205.861 175.887C203.906 175.816 202.548 175.266 201.131 173.899C199.723 172.262 199.412 170.587 199.494 168.461C199.725 166.424 200.465 164.842 202.007 163.474C204.193 161.901 207.273 161.873 209.528 163.343Z" fill="black"/>
<path d="M150.485 163.253C152.073 164.212 152.775 165.939 153.348 167.657C153.529 170.178 153.23 172.062 151.609 174.039C150.144 175.442 148.314 175.886 146.346 175.865C144.797 175.731 143.365 175.091 142.237 174.011C140.722 172.182 140.555 170.141 140.745 167.862C140.965 166.083 141.877 164.635 143.219 163.474C145.524 161.832 148.022 162.048 150.485 163.253Z" fill="black"/>
<path d="M151.211 137.696C151.601 137.868 151.924 138.069 152.124 138.417C152.338 139 152.32 139.666 152.028 140.226C151.679 140.753 151.209 141.206 150.742 141.658C150.607 141.789 150.474 141.922 150.342 142.055C148.606 143.771 146.303 144.815 143.848 145.551C143.763 145.578 143.678 145.605 143.59 145.632C142.114 146.062 139.851 146.436 138.369 145.898C138.002 145.707 137.849 145.465 137.676 145.136C137.545 144.644 137.505 144.242 137.758 143.778C138.4 143.164 139.163 143.098 140.069 142.976C143.036 142.545 145.959 141.756 147.872 139.615C148.159 139.264 148.41 138.903 148.653 138.529C149.244 137.621 150.049 137.279 151.211 137.696Z" fill="black"/>
<path d="M202.666 137.627C203.268 137.974 203.63 138.457 204.017 139.016C205.432 141.038 207.649 142.323 210.085 142.777C210.555 142.854 211.026 142.926 211.498 142.989C212.182 143.086 212.9 143.2 213.404 143.697C213.65 144.108 213.675 144.488 213.619 144.954C213.483 145.357 213.304 145.708 212.912 145.912C211.819 146.363 210.304 146.131 209.202 145.825C209.129 145.805 209.057 145.785 208.982 145.764C207.835 145.438 206.741 145.033 205.668 144.519C205.578 144.476 205.487 144.433 205.394 144.389C203.533 143.451 201.451 141.592 200.721 139.642C200.639 139.156 200.657 138.726 200.914 138.297C201.335 137.724 201.934 137.317 202.666 137.627Z" fill="black"/>
</svg>
