<svg width="350" height="350" viewBox="0 0 350 350" fill="none" xmlns="http://www.w3.org/2000/svg">
<path d="M125.075 60.044C125.835 60.7097 126.567 61.4011 127.294 62.1014C127.441 62.2346 127.588 62.3677 127.739 62.5049C130.159 64.7691 132.081 67.7005 133.778 70.5295C133.873 70.6874 133.968 70.8453 134.067 71.008C141.96 84.1732 147.302 101.274 147.176 116.776C147.47 116.692 147.47 116.692 147.769 116.606C149.738 116.06 151.69 115.659 153.713 115.358C153.863 115.335 154.012 115.313 154.166 115.29C155.081 115.153 155.996 115.021 156.912 114.891C157.299 114.836 157.686 114.778 158.073 114.72C168.634 113.156 179.356 114.539 189.749 116.56C189.74 116.315 189.73 116.071 189.721 115.819C189.723 114.172 189.976 112.543 190.195 110.914C190.218 110.736 190.242 110.558 190.266 110.374C192.304 95.1811 196.105 78.3947 205.957 66.2074C206.054 66.085 206.152 65.9627 206.253 65.8366C211.155 59.7267 217.729 54.5975 225.622 53.2411C230.351 52.954 234.184 53.1722 237.954 56.2531C239.284 57.4929 240.125 58.9961 240.966 60.5887C241.078 60.7993 241.189 61.0099 241.304 61.2269C242.549 63.7691 242.938 66.5689 242.955 69.3739C242.956 69.5487 242.958 69.7234 242.959 69.9035C242.963 70.4679 242.964 71.0322 242.965 71.5965C242.965 71.8867 242.965 71.8867 242.965 72.1827C242.961 75.3466 242.804 78.4279 242.262 81.5509C242.209 81.8695 242.209 81.8695 242.154 82.1946C239.078 99.9083 231.102 117.321 219.787 131.255C220.433 132.026 221.076 132.772 221.8 133.47C222.803 134.458 223.663 135.56 224.542 136.658C224.684 136.829 224.827 137 224.974 137.177C227.046 139.688 228.759 142.483 230.377 145.302C230.454 145.436 230.532 145.57 230.612 145.708C235.316 153.908 238.206 163.875 238.185 173.357C238.185 173.57 238.186 173.782 238.186 174.001C238.186 174.447 238.186 174.893 238.185 175.338C238.183 176.016 238.185 176.693 238.186 177.371C238.186 177.807 238.186 178.243 238.185 178.678C238.186 178.878 238.186 179.078 238.186 179.284C238.182 180.507 238.096 181.691 237.94 182.904C238.146 182.919 238.146 182.919 238.356 182.934C238.983 182.98 239.61 183.03 240.236 183.08C240.452 183.095 240.668 183.11 240.891 183.126C242.056 183.222 242.987 183.331 243.991 183.985C244.515 184.613 244.632 184.993 244.721 185.808C244.629 186.675 244.494 187.161 243.991 187.875C242.817 188.516 241.957 188.594 240.642 188.469C240.486 188.458 240.33 188.446 240.17 188.434C239.204 188.359 238.25 188.237 237.292 188.091C236.807 189.502 236.376 190.924 235.968 192.359C235.911 192.558 235.854 192.756 235.795 192.961C235.74 193.153 235.686 193.346 235.629 193.544C235.58 193.716 235.531 193.888 235.48 194.066C235.342 194.592 235.233 195.12 235.131 195.655C235.358 195.733 235.585 195.812 235.819 195.893C239.937 197.353 239.937 197.353 240.966 198.896C241.11 199.639 241.117 200.315 240.966 201.057C240.421 201.842 239.789 202.236 238.897 202.548C237.772 202.581 236.874 202.146 235.847 201.719C235.441 201.554 235.035 201.39 234.629 201.227C234.361 201.116 234.361 201.116 234.088 201.003C233.599 200.806 233.599 200.806 232.97 200.841C232.621 201.375 232.314 201.902 232.011 202.462C230.427 205.266 228.505 207.812 226.271 210.134C226.099 210.315 226.099 210.315 225.924 210.501C222.462 214.154 218.452 216.873 213.966 219.142C213.75 219.252 213.75 219.252 213.528 219.365C212.907 219.669 212.493 219.858 211.792 219.858C211.792 220.001 211.792 220.144 211.792 220.291C211.965 220.335 212.139 220.38 212.317 220.426C213.336 220.818 214.156 221.395 215.047 222.019C215.228 222.146 215.41 222.272 215.598 222.402C218.115 224.16 220.489 226.066 222.813 228.07C222.968 228.203 223.123 228.336 223.282 228.473C223.706 228.839 224.124 229.21 224.542 229.583C224.719 229.74 224.896 229.897 225.079 230.059C227.96 232.654 230.836 235.349 233.186 238.443C233.35 238.646 233.513 238.85 233.682 239.059C237.456 243.805 242.232 250.415 241.614 256.812C241.595 257.072 241.595 257.072 241.576 257.337C241.231 260.144 239.622 262.962 237.508 264.808C236.126 265.84 234.609 266.462 232.97 266.969C232.823 267.018 232.676 267.067 232.524 267.118C227.68 268.48 222.069 266.539 217.673 264.568C217.501 264.491 217.329 264.415 217.153 264.335C217.024 264.278 216.895 264.22 216.762 264.16C216.812 264.539 216.812 264.539 216.864 264.926C218.582 277.954 219.592 291.008 219.624 304.15C219.625 304.577 219.627 305.005 219.629 305.432C219.65 312.198 219.596 319.203 214.798 324.522C212.461 326.745 209.466 327.971 206.389 328.775C206.229 328.818 206.07 328.86 205.906 328.903C203.952 329.337 201.951 329.296 199.96 329.3C199.33 329.302 198.701 329.313 198.071 329.324C194.833 329.352 192.109 328.81 189.222 327.29C189.079 327.216 188.936 327.142 188.789 327.066C185.569 325.36 183.118 322.643 181.967 319.152C181.145 316.442 180.724 313.624 180.24 310.839C180.141 310.279 180.041 309.719 179.941 309.16C179.823 308.495 179.708 307.83 179.592 307.165C179.33 307.185 179.33 307.185 179.063 307.205C173.195 307.635 167.384 307.7 161.507 307.394C161.234 307.38 161.234 307.38 160.957 307.366C160.441 307.339 159.926 307.31 159.411 307.281C159.257 307.272 159.103 307.264 158.944 307.255C158.241 307.213 157.577 307.156 156.901 306.949C156.886 307.131 156.886 307.131 156.871 307.316C156.266 314.016 155.32 321.31 149.973 325.931C149.244 326.466 148.506 326.903 147.703 327.317C147.514 327.416 147.514 327.416 147.322 327.516C144.242 329.008 141.267 329.38 137.883 329.337C137.236 329.329 136.589 329.332 135.942 329.336C132.671 329.334 129.59 328.956 126.592 327.56C126.352 327.449 126.352 327.449 126.106 327.337C122.453 325.586 120.131 322.825 118.65 319.051C118.527 318.74 118.527 318.74 118.402 318.423C116.905 314.14 117.028 309.42 117.054 304.945C117.056 304.469 117.058 303.994 117.059 303.519C117.094 291.097 117.914 278.755 119.504 266.436C119.523 266.28 119.543 266.123 119.564 265.962C119.646 265.332 119.745 264.765 119.947 264.16C119.714 264.254 119.48 264.348 119.24 264.445C113.422 266.768 107.587 268.716 101.487 266.237C98.4436 264.798 96.7123 262.541 95.5269 259.406C94.0833 255.097 95.8892 250.702 97.7968 246.866C101.152 240.485 106.413 234.454 111.881 229.796C112.285 229.451 112.684 229.102 113.081 228.749C116.699 225.552 120.58 222.597 124.701 220.074C124.575 220.007 124.449 219.94 124.32 219.871C117.512 216.225 111.237 212.07 106.764 205.595C106.671 205.46 106.578 205.326 106.482 205.187C105.508 203.769 104.58 202.342 103.739 200.841C102.766 201.015 101.864 201.234 100.948 201.606C100.723 201.696 100.723 201.696 100.494 201.789C100.195 201.911 99.8967 202.038 99.6004 202.169C98.5409 202.602 97.9179 202.594 96.8235 202.138C96.1621 201.561 95.8267 201.221 95.6392 200.369C95.5849 199.5 95.6966 198.984 96.1077 198.207C97.5053 196.778 99.6789 196.244 101.578 195.871C101.512 195.646 101.512 195.646 101.446 195.416C101.245 194.721 101.047 194.026 100.848 193.331C100.78 193.095 100.711 192.859 100.641 192.616C100.195 191.046 99.8649 189.49 99.6329 187.875C99.3877 187.942 99.1426 188.008 98.89 188.077C97.8686 188.302 96.8515 188.406 95.8105 188.483C95.654 188.497 95.4974 188.511 95.3362 188.525C94.279 188.592 93.6109 188.442 92.7175 187.875C92.0684 187.117 91.9638 186.448 92.0093 185.482C92.103 184.831 92.281 184.478 92.7175 183.985C93.9847 183.311 95.1755 183.186 96.5939 183.08C96.8035 183.062 97.0132 183.045 97.2291 183.026C97.7421 182.983 98.2551 182.943 98.7685 182.904C98.7337 182.668 98.699 182.431 98.6632 182.187C98.5236 181.064 98.5134 179.948 98.5085 178.818C98.5066 178.479 98.5066 178.479 98.5047 178.134C98.5027 177.657 98.5013 177.179 98.5004 176.702C98.4984 175.989 98.4917 175.276 98.4848 174.564C98.4644 170.506 98.8531 166.539 99.7545 162.577C99.8083 162.339 99.8621 162.101 99.9175 161.856C100.986 157.336 102.539 152.92 104.603 148.76C104.698 148.565 104.794 148.37 104.892 148.169C107.275 143.315 110.206 138.76 113.875 134.774C114.305 134.306 114.723 133.83 115.138 133.349C115.708 132.694 116.298 132.075 116.921 131.471C116.631 130.789 116.226 130.271 115.749 129.708C112.335 125.665 109.478 120.994 106.98 116.344C106.875 116.149 106.769 115.954 106.66 115.753C100.334 104.033 95.6867 91.1265 94.0142 77.8771C93.995 77.7272 93.9759 77.5774 93.9562 77.423C93.8186 76.2807 93.758 75.1533 93.7466 74.0032C93.7444 73.8257 93.7423 73.6482 93.74 73.4653C93.6819 67.4181 93.8305 61.327 98.3363 56.6988C98.482 56.5447 98.6276 56.3907 98.7778 56.2319C100.481 54.5724 102.688 53.577 105.036 53.2411C105.267 53.2056 105.267 53.2056 105.503 53.1693C112.739 52.2105 119.679 55.4345 125.075 60.044Z" fill="white"/>
<path d="M125.075 60.044C125.835 60.7097 126.567 61.4011 127.294 62.1014C127.441 62.2346 127.588 62.3677 127.739 62.5049C130.159 64.7691 132.081 67.7005 133.778 70.5295C133.873 70.6874 133.968 70.8453 134.067 71.008C141.96 84.1732 147.302 101.274 147.176 116.776C147.47 116.692 147.47 116.692 147.769 116.606C149.738 116.06 151.69 115.659 153.713 115.358C153.863 115.335 154.012 115.313 154.166 115.29C155.081 115.153 155.996 115.021 156.912 114.891C157.299 114.836 157.686 114.778 158.073 114.72C168.634 113.156 179.356 114.539 189.749 116.56C189.74 116.315 189.73 116.071 189.721 115.819C189.723 114.172 189.976 112.543 190.195 110.914C190.218 110.736 190.242 110.558 190.266 110.374C192.304 95.1811 196.105 78.3947 205.957 66.2074C206.054 66.085 206.152 65.9627 206.253 65.8366C211.155 59.7267 217.729 54.5975 225.622 53.2411C230.351 52.954 234.184 53.1722 237.954 56.2531C239.284 57.4929 240.125 58.9961 240.966 60.5887C241.078 60.7993 241.189 61.0099 241.304 61.2269C242.549 63.7691 242.938 66.5689 242.955 69.3739C242.956 69.5487 242.958 69.7234 242.959 69.9035C242.963 70.4679 242.964 71.0322 242.965 71.5965C242.965 71.8867 242.965 71.8867 242.965 72.1827C242.961 75.3466 242.804 78.4279 242.262 81.5509C242.209 81.8695 242.209 81.8695 242.154 82.1946C239.078 99.9083 231.102 117.321 219.787 131.255C220.433 132.026 221.076 132.772 221.8 133.47C222.803 134.458 223.663 135.56 224.542 136.658C224.684 136.829 224.827 137 224.974 137.177C227.046 139.688 228.759 142.483 230.377 145.302C230.454 145.436 230.532 145.57 230.612 145.708C235.316 153.908 238.206 163.875 238.185 173.357C238.185 173.57 238.186 173.782 238.186 174.001C238.186 174.447 238.186 174.893 238.185 175.338C238.183 176.016 238.185 176.693 238.186 177.371C238.186 177.807 238.186 178.243 238.185 178.678C238.186 178.878 238.186 179.078 238.186 179.284C238.182 180.507 238.096 181.691 237.94 182.904C238.146 182.919 238.146 182.919 238.356 182.934C238.983 182.98 239.61 183.03 240.236 183.08C240.452 183.095 240.668 183.11 240.891 183.126C242.056 183.222 242.987 183.331 243.991 183.985C244.515 184.613 244.632 184.993 244.721 185.808C244.629 186.675 244.494 187.161 243.991 187.875C242.817 188.516 241.957 188.594 240.642 188.469C240.486 188.458 240.33 188.446 240.17 188.434C239.204 188.359 238.25 188.237 237.292 188.091C236.807 189.502 236.376 190.924 235.968 192.359C235.911 192.558 235.854 192.756 235.795 192.961C235.74 193.153 235.686 193.346 235.629 193.544C235.58 193.716 235.531 193.888 235.48 194.066C235.342 194.592 235.233 195.12 235.131 195.655C235.358 195.733 235.585 195.812 235.819 195.893C239.937 197.353 239.937 197.353 240.966 198.896C241.11 199.639 241.117 200.315 240.966 201.057C240.421 201.842 239.789 202.236 238.897 202.548C237.772 202.581 236.874 202.146 235.847 201.719C235.441 201.554 235.035 201.39 234.629 201.227C234.361 201.116 234.361 201.116 234.088 201.003C233.599 200.806 233.599 200.806 232.97 200.841C232.621 201.375 232.314 201.902 232.011 202.462C230.427 205.266 228.505 207.812 226.271 210.134C226.099 210.315 226.099 210.315 225.924 210.501C222.462 214.154 218.452 216.873 213.966 219.142C213.75 219.252 213.75 219.252 213.528 219.365C212.907 219.669 212.493 219.858 211.792 219.858C211.792 220.001 211.792 220.144 211.792 220.291C211.965 220.335 212.139 220.38 212.317 220.426C213.336 220.818 214.156 221.395 215.047 222.019C215.228 222.146 215.41 222.272 215.598 222.402C218.115 224.16 220.489 226.066 222.813 228.07C222.968 228.203 223.123 228.336 223.282 228.473C223.706 228.839 224.124 229.21 224.542 229.583C224.719 229.74 224.896 229.897 225.079 230.059C227.96 232.654 230.836 235.349 233.186 238.443C233.35 238.646 233.513 238.85 233.682 239.059C237.456 243.805 242.232 250.415 241.614 256.812C241.595 257.072 241.595 257.072 241.576 257.337C241.231 260.144 239.622 262.962 237.508 264.808C236.126 265.84 234.609 266.462 232.97 266.969C232.823 267.018 232.676 267.067 232.524 267.118C227.68 268.48 222.069 266.539 217.673 264.568C217.501 264.491 217.329 264.415 217.153 264.335C217.024 264.278 216.895 264.22 216.762 264.16C216.812 264.539 216.812 264.539 216.864 264.926C218.582 277.954 219.592 291.008 219.624 304.15C219.625 304.577 219.627 305.005 219.629 305.432C219.65 312.198 219.596 319.203 214.798 324.522C212.461 326.745 209.466 327.971 206.389 328.775C206.229 328.818 206.07 328.86 205.906 328.903C203.952 329.337 201.951 329.296 199.96 329.3C199.33 329.302 198.701 329.313 198.071 329.324C194.833 329.352 192.109 328.81 189.222 327.29C189.079 327.216 188.936 327.142 188.789 327.066C185.569 325.36 183.118 322.643 181.967 319.152C181.145 316.442 180.724 313.624 180.24 310.839C180.141 310.279 180.041 309.719 179.941 309.16C179.823 308.495 179.708 307.83 179.592 307.165C179.33 307.185 179.33 307.185 179.063 307.205C173.195 307.635 167.384 307.7 161.507 307.394C161.234 307.38 161.234 307.38 160.957 307.366C160.441 307.339 159.926 307.31 159.411 307.281C159.257 307.272 159.103 307.264 158.944 307.255C158.241 307.213 157.577 307.156 156.901 306.949C156.886 307.131 156.886 307.131 156.871 307.316C156.266 314.016 155.32 321.31 149.973 325.931C149.244 326.466 148.506 326.903 147.703 327.317C147.514 327.416 147.514 327.416 147.322 327.516C144.242 329.008 141.267 329.38 137.883 329.337C137.236 329.329 136.589 329.332 135.942 329.336C132.671 329.334 129.59 328.956 126.592 327.56C126.352 327.449 126.352 327.449 126.106 327.337C122.453 325.586 120.131 322.825 118.65 319.051C118.527 318.74 118.527 318.74 118.402 318.423C116.905 314.14 117.028 309.42 117.054 304.945C117.056 304.469 117.058 303.994 117.059 303.519C117.094 291.097 117.914 278.755 119.504 266.436C119.523 266.28 119.543 266.123 119.564 265.962C119.646 265.332 119.745 264.765 119.947 264.16C119.714 264.254 119.48 264.348 119.24 264.445C113.422 266.768 107.587 268.716 101.487 266.237C98.4436 264.798 96.7123 262.541 95.5269 259.406C94.0833 255.097 95.8892 250.702 97.7968 246.866C101.152 240.485 106.413 234.454 111.881 229.796C112.285 229.451 112.684 229.102 113.081 228.749C116.699 225.552 120.58 222.597 124.701 220.074C124.575 220.007 124.449 219.94 124.32 219.871C117.512 216.225 111.237 212.07 106.764 205.595C106.671 205.46 106.578 205.326 106.482 205.187C105.508 203.769 104.58 202.342 103.739 200.841C102.766 201.015 101.864 201.234 100.948 201.606C100.723 201.696 100.723 201.696 100.494 201.789C100.195 201.911 99.8967 202.038 99.6004 202.169C98.5409 202.602 97.9179 202.594 96.8235 202.138C96.1621 201.561 95.8267 201.221 95.6392 200.369C95.5849 199.5 95.6966 198.984 96.1077 198.207C97.5053 196.778 99.6789 196.244 101.578 195.871C101.512 195.646 101.512 195.646 101.446 195.416C101.245 194.721 101.047 194.026 100.848 193.331C100.78 193.095 100.711 192.859 100.641 192.616C100.195 191.046 99.8649 189.49 99.6329 187.875C99.3877 187.942 99.1426 188.008 98.89 188.077C97.8686 188.302 96.8515 188.406 95.8105 188.483C95.654 188.497 95.4974 188.511 95.3362 188.525C94.279 188.592 93.6109 188.442 92.7175 187.875C92.0684 187.117 91.9638 186.448 92.0093 185.482C92.103 184.831 92.281 184.478 92.7175 183.985C93.9847 183.311 95.1755 183.186 96.5939 183.08C96.8035 183.062 97.0132 183.045 97.2291 183.026C97.7421 182.983 98.2551 182.943 98.7685 182.904C98.7337 182.668 98.699 182.431 98.6632 182.187C98.5236 181.064 98.5134 179.948 98.5085 178.818C98.5066 178.479 98.5066 178.479 98.5047 178.134C98.5027 177.657 98.5013 177.179 98.5004 176.702C98.4984 175.989 98.4917 175.276 98.4848 174.564C98.4644 170.506 98.8531 166.539 99.7545 162.577C99.8083 162.339 99.8621 162.101 99.9175 161.856C100.986 157.336 102.539 152.92 104.603 148.76C104.698 148.565 104.794 148.37 104.892 148.169C107.275 143.315 110.206 138.76 113.875 134.774C114.305 134.306 114.723 133.83 115.138 133.349C115.708 132.694 116.298 132.075 116.921 131.471C116.631 130.789 116.226 130.271 115.749 129.708C112.335 125.665 109.478 120.994 106.98 116.344C106.875 116.149 106.769 115.954 106.66 115.753C100.334 104.033 95.6867 91.1265 94.0142 77.8771C93.995 77.7272 93.9759 77.5774 93.9562 77.423C93.8186 76.2807 93.758 75.1533 93.7466 74.0032C93.7444 73.8257 93.7423 73.6482 93.74 73.4653C93.6819 67.4181 93.8305 61.327 98.3363 56.6988C98.482 56.5447 98.6276 56.3907 98.7778 56.2319C100.481 54.5724 102.688 53.577 105.036 53.2411C105.267 53.2056 105.267 53.2056 105.503 53.1693C112.739 52.2105 119.679 55.4345 125.075 60.044ZM101.861 61.9478C99.8128 65.1812 99.5407 68.7299 99.5519 72.4745C99.552 72.6326 99.5522 72.7907 99.5524 72.9536C99.5742 78.5455 100.59 83.9326 102.01 89.3307C102.073 89.5725 102.137 89.8144 102.202 90.0635C103.846 96.1999 106.241 102.165 108.925 107.916C109.017 108.112 109.109 108.309 109.203 108.512C111.598 113.594 114.538 118.437 117.826 122.989C117.944 123.152 118.062 123.315 118.183 123.484C119.735 125.612 121.402 127.649 123.137 129.63C123.725 130.352 123.843 130.858 123.81 131.782C123.429 133.333 122.375 134.264 121.23 135.294C120.938 135.562 120.646 135.831 120.355 136.1C120.211 136.231 120.068 136.363 119.921 136.499C110.927 144.806 105.503 157.238 104.171 169.29C104.151 169.46 104.131 169.631 104.11 169.807C103.93 171.499 103.915 173.189 103.915 174.888C103.914 175.377 103.911 175.865 103.906 176.354C103.899 178.497 104.069 180.569 104.387 182.688C104.766 182.7 104.766 182.7 105.153 182.713C105.487 182.727 105.822 182.741 106.157 182.756C106.323 182.761 106.489 182.765 106.66 182.771C107.653 182.817 108.336 182.914 109.142 183.553C109.676 184.354 109.692 185 109.574 185.93C109.309 186.539 109.118 186.885 108.561 187.247C107.904 187.504 107.305 187.535 106.602 187.578C106.349 187.594 106.096 187.61 105.836 187.627C105.643 187.637 105.45 187.648 105.252 187.659C105.322 189.123 105.602 190.475 105.981 191.886C106.026 192.061 106.071 192.236 106.118 192.417C106.24 192.854 106.392 193.283 106.548 193.71C107.211 193.93 107.566 193.917 108.25 193.872C109.075 193.867 109.312 193.897 110.033 194.358C110.482 195.076 110.597 195.487 110.545 196.319C110.364 197.025 109.908 197.368 109.358 197.816C109.139 198.03 108.923 198.245 108.709 198.464C110.372 201.527 112.357 204.157 114.76 206.676C114.92 206.847 115.08 207.019 115.245 207.195C120.176 212.334 127.102 215.491 133.926 217.152C135.154 217.467 136.032 217.699 136.803 218.778C137.125 219.681 137.123 220.478 136.749 221.358C135.999 222.241 135.238 222.341 134.156 222.506C128.807 223.431 124.045 226.83 119.947 230.231C119.669 230.456 119.391 230.68 119.113 230.904C117 232.613 114.981 234.39 113.031 236.282C112.852 236.456 112.672 236.63 112.487 236.809C109.07 240.126 109.07 240.126 106.116 243.846C105.914 244.135 105.914 244.135 105.708 244.43C101.483 250.286 101.483 250.286 100.497 257.245C100.9 258.725 101.499 260.034 102.84 260.868C103.061 260.974 103.282 261.079 103.509 261.188C103.73 261.297 103.95 261.405 104.177 261.516C107.248 262.791 111.07 261.889 114.026 260.703C115.177 260.221 116.313 259.707 117.448 259.189C117.691 259.079 117.935 258.969 118.186 258.855C118.419 258.747 118.652 258.639 118.892 258.528C119.101 258.432 119.309 258.335 119.523 258.236C119.84 258.066 119.84 258.066 120.163 257.893C120.29 257.829 120.416 257.766 120.547 257.701C121.896 256.912 122.159 255.748 122.574 254.308C122.65 254.062 122.725 253.817 122.804 253.564C123.045 252.78 123.279 251.994 123.513 251.207C125.991 242.963 125.991 242.963 127.406 241.94C128.079 241.62 128.501 241.593 129.239 241.685C130.057 242.056 130.432 242.364 130.752 243.198C130.92 245.431 130.12 247.517 129.405 249.592C129.076 250.551 128.758 251.514 128.44 252.477C128.377 252.666 128.314 252.856 128.249 253.051C125.244 262.148 123.955 271.637 123.227 281.158C123.186 281.692 123.144 282.227 123.102 282.762C122.583 289.453 122.388 296.133 122.324 302.843C122.322 303.02 122.32 303.198 122.318 303.38C121.891 312.595 121.891 312.595 125.766 320.577C127.827 322.57 130.351 323.358 133.129 323.805C133.303 323.833 133.477 323.862 133.656 323.891C138.048 324.455 143.078 324.257 146.811 321.684C148.973 319.947 149.757 317.507 150.31 314.877C150.355 314.668 150.4 314.458 150.446 314.242C150.867 312.206 151.15 310.154 151.405 308.092C152.012 303.283 152.012 303.283 152.916 302.357C154.503 301.218 156.876 301.726 158.74 301.917C161.635 302.212 164.511 302.254 167.419 302.239C168.209 302.235 168.998 302.235 169.788 302.235C172.007 302.231 174.224 302.217 176.441 302.097C176.594 302.089 176.748 302.081 176.906 302.072C177.675 302.024 178.406 301.92 179.16 301.762C179.772 301.714 180.383 301.712 180.997 301.708C181.158 301.704 181.319 301.699 181.485 301.695C182.465 301.688 183.151 301.731 183.914 302.411C184.651 303.69 184.782 305.071 184.981 306.517C185.055 307.021 185.129 307.525 185.204 308.029C185.241 308.283 185.278 308.536 185.316 308.797C186.045 315.853 186.045 315.853 189.733 321.565C193.897 324.309 199.24 324.648 204.055 323.723C204.255 323.679 204.454 323.635 204.66 323.589C204.875 323.547 205.091 323.505 205.313 323.461C208.305 322.812 210.645 321.451 212.407 318.906C213.811 316.515 214.202 313.812 214.2 311.075C214.201 310.832 214.201 310.832 214.202 310.585C214.204 310.052 214.205 309.52 214.205 308.987C214.206 308.608 214.206 308.228 214.207 307.849C214.209 307.05 214.209 306.252 214.209 305.453C214.209 304.652 214.21 303.852 214.213 303.051C214.241 295.496 213.981 287.954 213.298 280.427C213.282 280.255 213.267 280.083 213.251 279.906C212.335 269.996 210.839 260.401 207.681 250.948C207.599 250.7 207.599 250.7 207.515 250.448C207.25 249.651 206.981 248.856 206.703 248.063C206.064 246.199 205.414 244.185 206.267 242.293C207.07 241.725 207.792 241.604 208.766 241.685C210.219 242.378 210.764 244.236 211.281 245.665C211.679 246.797 212.059 247.935 212.44 249.073C212.571 249.463 212.703 249.852 212.835 250.242C212.899 250.433 212.964 250.623 213.03 250.82C213.158 251.199 213.287 251.579 213.417 251.958C213.706 252.81 213.983 253.66 214.219 254.529C214.699 256.301 214.699 256.301 215.937 257.596C216.279 257.777 216.626 257.948 216.978 258.109C217.238 258.246 217.238 258.246 217.504 258.385C218.048 258.667 218.597 258.93 219.153 259.189C219.448 259.328 219.448 259.328 219.749 259.47C221.46 260.264 223.185 260.971 224.974 261.567C225.144 261.624 225.314 261.681 225.49 261.741C227.992 262.436 231.065 262.235 233.402 261.134C234.928 260.169 235.653 258.921 236.211 257.245C236.71 251.636 232.705 246.306 229.299 242.185C228.579 241.358 227.84 240.548 227.092 239.745C226.507 239.117 225.937 238.476 225.366 237.836C224.622 237.016 223.858 236.273 223.011 235.562C222.575 235.182 222.176 234.78 221.773 234.364C220.946 233.527 220.059 232.793 219.14 232.059C218.581 231.602 218.045 231.127 217.509 230.643C213.354 226.934 207.909 223.152 202.256 222.452C201.389 222.335 201.025 222.261 200.284 221.763C199.817 221.012 199.69 220.527 199.69 219.642C199.956 218.794 200.229 218.43 200.932 217.886C201.825 217.432 202.781 217.214 203.747 216.967C209.77 215.423 215.305 212.716 220.004 208.621C220.214 208.439 220.425 208.257 220.643 208.07C223.667 205.412 226.089 202.222 227.999 198.68C227.999 198.537 227.999 198.395 227.999 198.248C227.759 198.123 227.518 197.998 227.27 197.87C226.805 197.6 226.513 197.416 226.176 196.992C225.917 195.983 225.893 195.287 226.419 194.371C227.535 193.677 228.663 193.841 229.944 193.926C230.158 193.206 230.369 192.485 230.579 191.765C230.639 191.563 230.699 191.361 230.761 191.153C231.1 189.984 231.344 188.871 231.457 187.659C231.176 187.654 231.176 187.654 230.888 187.649C228.6 187.555 228.6 187.555 227.837 186.916C227.163 186.147 227.05 185.674 227.057 184.642C227.188 183.903 227.647 183.567 228.216 183.12C228.929 182.764 229.726 182.822 230.512 182.783C230.685 182.773 230.858 182.764 231.037 182.754C231.465 182.732 231.893 182.71 232.322 182.688C234.748 169.514 230.588 155.011 223.281 144.032C220.771 140.418 217.971 137.024 214.489 134.311C213.614 133.557 212.943 132.834 212.778 131.674C212.953 130.096 214.001 129.042 215.047 127.905C218.512 124.133 221.369 119.708 223.893 115.263C224.038 115.009 224.038 115.009 224.185 114.75C228.961 106.286 232.717 97.2384 235.131 87.8179C235.182 87.6239 235.233 87.4299 235.285 87.23C236.532 82.424 237.155 77.5288 237.157 72.569C237.157 72.4228 237.158 72.2766 237.158 72.1259C237.157 69.5282 236.981 66.9485 236.13 64.4786C236.044 64.22 235.958 63.9615 235.869 63.6952C235.078 61.8067 233.641 60.2087 231.757 59.3815C230.793 59.0333 229.91 58.9593 228.891 58.9679C228.713 58.9693 228.536 58.9707 228.353 58.9721C223.74 59.1062 219.776 61.4373 216.114 64.0464C215.934 64.1725 215.755 64.2987 215.57 64.4288C202.918 73.7811 198.661 92.642 196.423 107.29C195.826 111.274 195.39 115.274 195.047 119.288C195.03 119.469 195.013 119.65 194.996 119.836C194.966 120.158 194.939 120.481 194.916 120.804C194.821 121.792 194.561 122.346 193.855 123.043C192.202 123.594 190.74 123.037 189.128 122.57C184.409 121.259 179.714 120.455 174.838 120.018C174.495 119.986 174.495 119.986 174.145 119.954C165.558 119.227 156.784 120.208 148.473 122.395C147.963 122.528 147.454 122.662 146.944 122.793C146.538 122.898 146.134 123.007 145.729 123.116C144.718 123.319 143.849 123.413 142.894 122.989C142.153 122.396 142.015 121.923 141.878 120.982C141.849 120.672 141.822 120.362 141.796 120.052C141.764 119.703 141.732 119.353 141.699 119.004C141.683 118.819 141.666 118.635 141.65 118.445C140.191 102.229 137.083 84.9763 127.51 71.3939C127.381 71.2103 127.381 71.2103 127.25 71.023C126.145 69.4679 124.938 68.0185 123.621 66.6396C123.5 66.5105 123.38 66.3814 123.256 66.2484C122.144 65.0884 120.941 64.171 119.609 63.2765C119.399 63.1351 119.189 62.9938 118.973 62.8482C117.335 61.7635 115.737 60.8505 113.896 60.1565C113.686 60.0755 113.686 60.0755 113.472 59.993C111.644 59.3063 109.908 58.9775 107.953 58.9544C107.777 58.9512 107.602 58.948 107.421 58.9447C105.117 58.9841 103.219 60.1089 101.861 61.9478Z" fill="black"/>
<path d="M181.123 238.881C187.189 244.12 190.271 252.321 191.01 260.234C191.359 264.775 191.531 269.626 190.242 274.021C190.183 274.234 190.183 274.234 190.123 274.452C189.269 277.469 187.651 279.961 185.487 282.17C185.338 282.323 185.19 282.477 185.037 282.635C180.019 287.512 172.848 288.254 166.264 288.136C164.87 288.093 163.514 287.933 162.141 287.675C161.995 287.648 161.848 287.621 161.697 287.593C156.627 286.616 152.048 284.157 149.029 279.759C144.681 273.072 144.933 263.534 146.439 255.946C147.935 249.002 151.405 241.433 157.419 237.41C157.622 237.282 157.825 237.155 158.034 237.023C158.159 236.943 158.284 236.863 158.413 236.781C165.947 232.007 174.399 233.5 181.123 238.881Z" fill="#F4A99C"/>
<path d="M169.003 230.231C169.399 230.258 169.399 230.258 169.804 230.284C176.645 230.853 182.573 234.014 187.015 239.217C190.637 243.592 193.087 248.826 194.557 254.287C194.633 254.562 194.633 254.562 194.71 254.844C195.603 258.328 195.909 261.862 195.884 265.449C195.881 266.04 195.884 266.629 195.888 267.219C195.892 270.359 195.638 273.508 194.584 276.491C194.53 276.649 194.475 276.807 194.419 276.969C192.288 282.867 188.086 287.609 182.447 290.369C174.507 294.059 164.321 294.249 156.12 291.287C152.234 289.815 148.625 287.385 146.095 284.042C145.939 283.836 145.783 283.631 145.623 283.42C140.157 275.887 139.999 266.728 141.349 257.824C141.676 255.779 142.202 253.805 142.854 251.842C142.932 251.605 142.932 251.605 143.011 251.363C143.717 249.255 144.645 247.276 145.679 245.31C145.857 244.969 146.03 244.625 146.202 244.28C149.239 238.36 154.97 233.355 161.277 231.258C163.758 230.554 166.419 230.037 169.003 230.231ZM154.091 241.253C153.937 241.407 153.783 241.562 153.624 241.721C149.842 245.737 147.691 251.101 146.474 256.407C146.441 256.549 146.408 256.69 146.375 256.836C145.774 259.646 145.592 262.442 145.607 265.305C145.609 265.823 145.607 266.341 145.604 266.858C145.599 272.677 147.029 278.169 151.106 282.475C156.188 287.337 163.08 288.285 169.835 288.187C176.159 288.033 182.018 285.96 186.454 281.36C187.244 280.448 187.863 279.474 188.452 278.423C188.568 278.221 188.683 278.018 188.802 277.81C189.696 276.148 190.231 274.432 190.613 272.588C190.671 272.318 190.671 272.318 190.731 272.043C191.108 270.09 191.113 268.167 191.099 266.186C191.099 266.013 191.098 265.84 191.097 265.662C191.086 263.194 191.045 260.761 190.613 258.325C190.586 258.174 190.56 258.022 190.532 257.866C189.536 252.423 187.536 247.018 183.914 242.765C183.649 242.444 183.649 242.444 183.379 242.117C181.897 240.377 180.183 239.069 178.295 237.795C178.106 237.663 177.917 237.532 177.722 237.397C170.04 232.386 160.11 235.153 154.091 241.253Z" fill="black"/>
<path d="M222.597 78.3094C223.255 78.7412 223.785 79.2519 224.326 79.8222C224.491 79.9871 224.655 80.152 224.825 80.3219C226.765 83.4113 225.83 87.4406 225.094 90.765C224.602 92.849 223.946 94.8729 223.245 96.8945C223.187 97.065 223.128 97.2355 223.068 97.4112C222.753 98.3329 222.429 99.2512 222.095 100.166C221.958 100.543 221.823 100.92 221.688 101.298C221.039 103.065 220.223 104.722 219.364 106.395C219.145 106.824 218.931 107.255 218.72 107.687C216.154 112.92 213.252 118.197 209.414 122.611C209.249 122.802 209.249 122.802 209.08 122.996C208.735 123.388 208.387 123.777 208.037 124.164C207.931 124.281 207.826 124.398 207.717 124.519C206.932 125.363 206.271 125.983 205.113 126.17C204.05 126.181 203.345 126.18 202.404 125.65C201.017 123.992 200.635 122.817 200.77 120.666C200.885 119.598 201.044 118.539 201.216 117.479C201.251 117.255 201.251 117.255 201.288 117.027C203.183 105.204 206.786 87.727 217.181 80.1733C218.808 79.0358 220.549 77.9462 222.597 78.3094Z" fill="#F4A99C"/>
<path d="M115.726 78.366C115.907 78.4186 116.087 78.4713 116.273 78.5255C116.449 78.5759 116.625 78.6264 116.807 78.6783C122.21 80.5505 125.28 86.2647 127.626 91.0942C129.019 94.0344 130.138 97.0579 131.184 100.136C131.244 100.31 131.304 100.484 131.366 100.663C133.271 106.205 134.432 111.947 135.377 117.718C135.531 118.657 135.692 119.594 135.853 120.531C136.122 122.322 136.103 123.508 135.031 125.015C134.406 125.667 133.843 126.019 132.949 126.178C131.614 126.204 130.699 126.135 129.681 125.233C123.22 118.488 118.535 109.558 114.976 101C114.858 100.73 114.739 100.459 114.619 100.189C113.361 97.2981 112.417 94.295 111.519 91.2757C111.47 91.1125 111.42 90.9493 111.37 90.7812C110.826 88.9026 110.791 86.9927 110.749 85.0492C110.74 84.8015 110.732 84.5538 110.723 84.2987C110.717 82.2219 111.373 81.0337 112.643 79.4414C113.662 78.483 114.323 78.0823 115.726 78.366Z" fill="#F4A99C"/>
<path d="M217.306 178.613C219.485 180.241 221.014 182.163 221.455 184.887C221.781 188.118 221.396 190.601 219.367 193.19C217.904 194.901 215.962 196.046 213.737 196.519C210.659 196.676 208.246 196.535 205.741 194.574C205.61 194.475 205.479 194.377 205.344 194.275C203.842 192.977 202.52 190.505 202.283 188.523C202.069 185.52 202.605 183.163 204.444 180.743C204.678 180.409 204.678 180.409 204.917 180.068C208.031 176.497 213.469 176.139 217.306 178.613Z" fill="#F4A99C"/>
<path d="M129.834 178.623C131.995 180.079 133.464 182.054 134.092 184.587C134.585 187.505 134.247 190.306 132.576 192.805C131.035 194.769 129.07 195.982 126.646 196.519C123.201 196.727 120.767 196.221 118.023 194.03C116.553 192.707 115.356 190.491 115.145 188.51C114.978 185.279 115.394 182.838 117.464 180.246C120.808 176.619 125.675 176.159 129.834 178.623Z" fill="#F4A99C"/>
<path d="M168.463 175.935C168.695 175.933 168.928 175.932 169.167 175.93C172.357 175.938 172.357 175.938 173.582 176.726C174.311 177.604 174.576 178.255 174.49 179.404C174.231 180.861 173.434 182.329 172.245 183.232C171.603 183.642 171.024 183.959 170.299 184.201C170.177 186.297 170.431 188.37 171.812 190.036C172.846 191.07 173.942 191.27 175.351 191.4C176.899 191.267 178.403 190.85 179.592 189.82C180.01 189.267 180.399 188.703 180.777 188.122C181.105 187.659 181.105 187.659 181.537 187.443C182.488 187.333 182.951 187.387 183.793 187.861C184.436 188.631 184.529 188.989 184.458 189.964C184.076 191.69 182.642 193.072 181.252 194.069C178.526 195.804 175.535 196.074 172.377 195.528C170.977 195.093 170.033 194.263 169.002 193.24C168.615 192.797 168.615 192.797 168.138 192.845C168.005 193.032 167.871 193.22 167.733 193.412C166.781 194.617 165.083 195.345 163.6 195.655C160.237 195.924 157.445 195.65 154.74 193.494C153.615 192.508 152.51 191.535 152.296 189.986C152.25 189.133 152.245 188.68 152.768 187.983C153.582 187.408 154.111 187.35 155.091 187.463C155.963 187.796 156.292 188.522 156.767 189.29C157.436 190.302 158.368 190.718 159.494 191.116C161.186 191.411 162.919 191.538 164.465 190.684C165.704 189.61 166.138 188.149 166.41 186.578C166.447 186.369 166.485 186.159 166.524 185.943C166.588 185.292 166.602 184.828 166.41 184.201C165.904 183.757 165.4 183.487 164.798 183.188C163.424 182.479 162.781 181.08 162.304 179.663C162.164 178.771 162.246 178.467 162.695 177.677C164.201 175.741 166.136 175.918 168.463 175.935Z" fill="black"/>
<path d="M200.804 167.433C202.58 168.837 203.285 170.689 203.561 172.895C203.604 174.57 203.17 176.22 202.067 177.502C200.637 179.003 199.282 179.671 197.204 179.744C195.286 179.674 193.953 179.135 192.562 177.793C191.18 176.186 190.875 174.542 190.956 172.456C191.183 170.456 191.909 168.904 193.423 167.561C195.568 166.017 198.591 165.989 200.804 167.433Z" fill="black"/>
<path d="M142.854 167.345C144.412 168.286 145.101 169.98 145.663 171.667C145.842 174.141 145.549 175.99 143.957 177.93C142.519 179.307 140.723 179.744 138.792 179.723C137.271 179.591 135.865 178.963 134.758 177.903C133.272 176.107 133.108 174.105 133.294 171.868C133.51 170.122 134.405 168.701 135.723 167.561C137.984 165.95 140.436 166.161 142.854 167.345Z" fill="black"/>
<path d="M141.837 146.448C141.916 146.459 141.994 146.469 142.074 146.48C144.735 146.839 148.42 147.359 150.231 149.605C150.571 150.11 150.744 150.437 150.648 151.059C150.529 151.448 150.277 151.745 149.969 152.005C149.483 152.224 149.043 152.146 148.542 152.006C148.116 151.807 147.718 151.565 147.315 151.322C145.789 150.417 144.341 149.957 142.586 149.701C142.392 149.673 142.392 149.673 142.195 149.644C141.038 149.489 139.888 149.436 138.732 149.625C138.659 149.636 138.585 149.647 138.509 149.659C137.944 149.75 137.395 149.879 136.844 150.036C136.323 150.173 135.789 150.213 135.296 149.952C135.005 149.747 134.848 149.575 134.678 149.259C134.583 148.689 134.627 148.153 134.907 147.642C135.481 147.155 136.151 146.952 136.87 146.782C136.96 146.76 137.051 146.738 137.144 146.715C138.682 146.365 140.273 146.236 141.837 146.448Z" fill="black"/>
<path d="M200.934 153.707C201.035 153.761 201.035 153.761 201.137 153.816C201.66 154.123 202.08 154.521 202.281 155.143C202.332 155.765 202.28 156.185 201.98 156.74C201.561 157.172 201.2 157.369 200.615 157.359C200.043 157.275 199.498 157.023 198.957 156.813C197.471 156.236 196.145 155.991 194.567 155.996C194.456 155.996 194.456 155.996 194.342 155.997C192.413 156.004 190.469 156.193 188.668 156.991C188.116 157.226 187.652 157.24 187.073 157.09C186.565 156.777 186.387 156.406 186.215 155.807C186.144 155.26 186.161 154.877 186.39 154.378C187.33 153.194 188.51 152.958 189.894 152.73C190.108 152.694 190.322 152.657 190.536 152.619C193.906 152.045 197.806 152.029 200.934 153.707Z" fill="black"/>
<path d="M244.36 144.821C248.098 145.183 251.687 146.474 254.433 149.135L254.697 149.396L254.712 149.414L254.729 149.43C257.251 152.13 258.25 155.464 257.928 158.84L257.927 158.854C257.475 163.276 254.718 166.262 251.437 168.598L251.434 168.6L251.123 168.82C251.071 168.857 251.018 168.895 250.964 168.933L250.963 168.934C250.692 169.126 250.42 169.317 250.146 169.508C249.144 170.213 248.576 170.814 248.205 171.422C247.831 172.035 247.574 172.788 247.387 173.926L247.383 173.947C247.371 174.019 247.358 174.09 247.345 174.164L247.346 174.165C247.334 174.235 247.322 174.306 247.31 174.378L247.287 174.523L247.241 174.664C247.041 175.29 246.73 175.71 246.319 176.088L246.055 176.332L245.725 176.467C244.918 176.798 244.264 176.823 243.575 176.755L243.576 176.756C243.484 176.747 243.484 176.747 243.39 176.738L242.352 176.634L241.459 176.543C241.09 176.504 240.719 176.468 240.344 176.431L239.463 176.342L239.055 176.302L239.053 176.302C238.849 176.282 238.647 176.261 238.451 176.24L238.451 176.239L238.027 176.196L237.929 176.176C236.989 175.983 236.448 175.517 236.075 175.175L235.809 174.931L235.645 174.609C235.106 173.548 235.343 172.482 235.368 172.275C235.378 172.191 235.387 172.106 235.397 172.019L235.399 172.01L235.4 172C235.665 169.884 236.286 168.062 237.366 166.431C238.435 164.816 239.884 163.491 241.654 162.267L241.667 162.258L241.68 162.249C241.972 162.054 242.268 161.874 242.518 161.721C243.333 161.21 244.081 160.643 244.739 160.026L244.751 160.014L244.764 160.003C244.827 159.945 244.891 159.887 244.956 159.828C245.819 159.015 246.143 158.286 246.169 157.274C246.112 156.873 245.889 156.424 245.482 156.058C244.896 155.657 244.256 155.41 243.466 155.291L243.457 155.289C243.392 155.279 243.326 155.269 243.259 155.259C242.119 155.114 241.263 155.238 240.602 155.612C239.887 156.111 239.322 156.759 238.673 157.627L238.668 157.634C238.63 157.684 238.592 157.733 238.553 157.784C238.499 157.858 238.499 157.859 238.444 157.936L238.368 158.041L238.276 158.136C237.661 158.783 236.974 158.997 236.429 159.102L236.228 159.14L236.022 159.137C235.031 159.122 234.116 158.692 233.554 158.402C233.24 158.239 232.937 158.065 232.692 157.924C232.428 157.772 232.245 157.666 232.093 157.589L232.093 157.59C231.855 157.469 231.616 157.347 231.376 157.226L231.374 157.226C231.22 157.148 231.066 157.07 230.912 156.992L230.912 156.991C230.841 156.955 230.77 156.92 230.697 156.883L230.694 156.882C230.195 156.628 229.774 156.418 229.476 156.221C229.012 155.914 228.774 155.601 228.618 155.402L228.366 155.081L228.26 154.686C227.907 153.373 228.357 152.355 228.841 151.632C228.891 151.557 228.89 151.556 228.941 151.478L228.946 151.471L228.95 151.465C229.941 149.985 231.119 148.778 232.555 147.694C232.628 147.637 232.702 147.581 232.778 147.522L232.791 147.512L232.805 147.502C234.872 145.959 237.262 145.12 239.797 144.775C239.869 144.764 239.944 144.752 240.018 144.742L240.029 144.741L240.041 144.739C241.512 144.546 242.928 144.684 244.122 144.8L244.122 144.799C244.199 144.806 244.276 144.813 244.355 144.821L244.36 144.821Z" fill="#FFF288" stroke="black" stroke-width="4"/>
<path d="M236.148 177.034C238.695 175.587 242.379 175.47 244.949 177.58L245.195 177.791L245.218 177.812L245.242 177.835C245.324 177.914 245.327 177.918 245.404 177.992C245.461 178.047 245.52 178.101 245.579 178.158L245.62 178.197C247.051 179.637 247.584 181.454 247.493 183.213L247.488 183.299L247.477 183.384C247.236 185.121 246.308 186.669 244.848 187.741L244.803 187.773L244.758 187.803C242.771 189.102 240.846 189.218 238.815 188.953L238.786 188.949L238.757 188.944C236.866 188.64 235.486 187.526 234.544 186.479L234.504 186.435L234.467 186.389C233.249 184.862 232.89 183.05 233.15 181.334L233.159 181.274L233.172 181.214C233.541 179.494 234.571 178.086 236.022 177.112L236.084 177.07L236.148 177.034Z" fill="#FFF288" stroke="black" stroke-width="4"/>
</svg>
