<svg width="160" height="159" viewBox="0 0 160 159" fill="none" xmlns="http://www.w3.org/2000/svg">
<path d="M90.5869 4.05673C92.0952 5.53147 92.9641 7.16877 93.4654 9.21461C93.4654 9.42093 93.4654 9.62724 93.4654 9.83981C93.6528 9.84787 93.6528 9.84787 93.844 9.85609C110.726 10.9127 127.771 19.0255 138.985 31.6664C139.454 32.232 139.906 32.8073 140.355 33.3889C140.57 33.6622 140.784 33.9355 140.998 34.2087C152.894 49.4626 157.011 69.2064 158.33 100.559C158.331 100.784 158.332 101.009 158.333 101.24C158.336 101.881 158.335 102.521 158.333 103.161C158.334 103.443 158.334 103.443 158.336 103.73C158.328 104.782 158.199 105.712 157.949 106.732C157.819 107.364 157.853 107.944 157.908 108.585C157.931 108.855 157.954 109.126 157.977 109.404C158.108 110.702 158.265 111.998 158.426 113.292C159.315 120.417 159.792 127.483 159.801 134.663C159.802 135.095 159.803 135.527 159.804 135.958C159.819 143.549 159.819 143.549 158.877 147.201C158.833 147.373 158.789 147.545 158.744 147.722C157.661 151.684 155.369 155.232 151.773 157.313C147.441 159.413 142.887 158.73 138.454 157.426C138.295 157.379 138.136 157.332 137.972 157.284C135.279 156.454 132.717 155.281 130.167 154.093C129.327 153.702 128.485 153.314 127.643 152.926C127.47 152.847 127.298 152.767 127.12 152.685C122.354 150.491 117.584 148.311 112.638 146.55C112.388 146.461 112.388 146.461 112.133 146.37C109.891 145.586 107.594 145.006 105.292 144.427C105.083 144.374 105.083 144.374 104.869 144.32C101.802 143.551 98.7137 142.954 95.5885 142.473C95.4434 142.451 95.2984 142.428 95.1489 142.405C92.9273 142.061 90.7055 141.73 88.4639 141.548C88.1538 141.522 88.1538 141.522 87.8374 141.495C78.6591 140.791 69.3455 141.375 60.3299 143.215C60.0674 143.269 59.805 143.322 59.5345 143.377C52.0813 144.914 44.9956 147.386 38.0312 150.431C37.5657 150.633 37.1002 150.835 36.6347 151.037C34.139 152.121 31.6545 153.228 29.1823 154.365C23.0118 157.202 15.8547 160.199 9.06369 157.803C8.17182 157.388 7.36721 156.91 6.56289 156.345C6.41407 156.24 6.26524 156.136 6.1119 156.029C2.54183 153.213 1.0368 148.456 0.443481 144.12C0.382595 143.563 0.331053 143.007 0.28486 142.449C0.267571 142.243 0.250281 142.037 0.232468 141.825C0.0519572 139.498 0.0385568 137.174 0.0504109 134.84C0.0509881 134.615 0.0515652 134.391 0.0521599 134.159C0.0643327 130.081 0.203806 126.024 0.51931 121.959C0.530412 121.814 0.541514 121.669 0.552953 121.519C0.831842 117.903 1.21272 114.307 1.71343 110.715C2.07791 108.506 2.07791 108.506 1.76971 106.329C1.74781 105.862 1.73872 105.394 1.73613 104.927C1.73511 104.785 1.73409 104.642 1.73304 104.495C1.73003 104.021 1.72862 103.547 1.72738 103.073C1.72592 102.738 1.72444 102.404 1.72295 102.069C1.71884 100.988 1.71785 99.9073 1.71761 98.8264C1.71751 98.6431 1.71742 98.4597 1.71733 98.2709C1.71587 92.7705 1.76675 87.2989 2.34213 81.8231C2.39724 81.2986 2.45029 80.7739 2.50328 80.2492C4.27111 63.0094 9.06485 45.4006 20.7341 32.1385C20.8929 31.953 20.8929 31.953 21.0549 31.7637C23.5243 28.8946 26.232 26.2569 29.2784 24.011C29.4979 23.8388 29.7166 23.6657 29.9346 23.4916C39.4589 15.9078 54.2051 9.63569 66.5819 9.83981C66.5905 9.58192 66.5991 9.32402 66.608 9.05831C66.871 6.7974 68.1894 4.99341 69.9163 3.58783C75.753 -0.633859 84.8903 0.0355737 90.5869 4.05673Z" fill="black"/>
<path d="M79.4766 96.2735C79.6143 96.2733 79.7521 96.2732 79.894 96.273C88.0343 96.2657 96.1982 96.584 104.288 97.5263C104.769 97.5817 105.25 97.6351 105.731 97.6883C110.419 98.2077 115.087 98.7795 119.724 99.66C119.891 99.6917 120.059 99.7234 120.231 99.756C125.478 100.754 130.647 101.902 135.771 103.411C136.125 103.514 136.125 103.514 136.487 103.618C140.202 104.697 143.83 105.989 147.441 107.371C147.657 107.453 147.873 107.534 148.095 107.619C148.661 107.835 149.223 108.057 149.785 108.282C150.027 108.375 150.027 108.375 150.274 108.47C151.336 108.91 151.336 108.91 151.642 109.519C151.81 110.055 151.908 110.543 151.973 111.1C152.008 111.397 152.008 111.397 152.044 111.701C152.08 112.022 152.08 112.022 152.117 112.349C152.143 112.573 152.169 112.797 152.196 113.028C152.28 113.76 152.362 114.492 152.442 115.225C152.484 115.603 152.484 115.603 152.527 115.988C153.213 122.231 153.52 128.384 153.535 134.661C153.537 135.108 153.538 135.555 153.54 136.002C153.577 147.004 153.577 147.004 150.345 150.666C149.023 151.889 147.414 152.441 145.63 152.502C143.879 152.429 142.239 152.041 140.564 151.551C140.416 151.509 140.269 151.466 140.117 151.422C136.805 150.434 133.703 148.891 130.576 147.439C119.07 142.105 107.545 137.972 94.9503 136.091C94.7391 136.058 94.528 136.026 94.3104 135.993C89.7501 135.349 85.1439 135.21 80.5447 135.218C80.2845 135.218 80.0243 135.218 79.7562 135.218C65.8774 135.246 52.5871 137.852 39.6984 143.007C39.567 143.06 39.4356 143.112 39.3002 143.166C35.905 144.529 32.5832 146.004 29.2981 147.613C17.2979 153.482 17.2979 153.482 12.1229 152.216C10.1875 151.517 9.04331 150.271 8.07375 148.491C6.19031 144.369 6.28511 139.915 6.30012 135.479C6.30293 134.643 6.30015 133.807 6.29747 132.972C6.29543 129.213 6.47101 125.497 6.77126 121.75C6.78518 121.571 6.7991 121.393 6.81344 121.208C6.91908 119.857 7.04597 118.508 7.19211 117.161C7.31299 116.043 7.40889 114.939 7.42465 113.816C7.49083 109.756 7.49083 109.756 8.6844 108.596C9.95754 107.781 11.368 107.383 12.8156 106.985C13.6993 106.739 14.5547 106.431 15.4141 106.111C17.1775 105.459 18.9516 104.843 20.734 104.245C20.9511 104.172 21.1683 104.099 21.392 104.023C27.5949 101.968 34.0474 100.662 40.4743 99.5351C40.9416 99.4528 41.4087 99.369 41.8757 99.2848C48.8484 98.0329 55.8901 97.3591 62.9479 96.7945C63.0977 96.7821 63.2475 96.7698 63.4018 96.7571C68.7427 96.3239 74.1209 96.2767 79.4766 96.2735Z" fill="#AADCE7"/>
<path d="M94.7809 16.0788C95.0105 16.1123 95.0105 16.1123 95.2448 16.1465C107.925 18.0328 120.591 22.7287 130.023 31.633C130.491 32.0733 130.969 32.4924 131.459 32.907C132.139 33.4969 132.725 34.1328 133.306 34.8192C133.711 35.293 134.134 35.7461 134.559 36.2023C142.534 45.0952 146.929 56.8561 149.316 68.4C149.395 68.7631 149.474 69.1262 149.553 69.4893C151.824 80.3192 152.401 91.7473 152.234 102.786C151.02 102.395 149.834 101.962 148.649 101.492C132.53 95.1252 115.517 92.4465 96.1706 90.8042C95.842 90.7786 95.5134 90.7524 95.1848 90.7255C91.1432 90.3982 87.1028 90.3834 83.0454 90.282C83.0454 66.0055 83.0454 41.7291 83.0454 16.717C84.0082 16.6482 84.9711 16.5794 85.963 16.5086C86.6222 16.3801 87.2567 16.2472 87.9038 16.0788C90.2597 15.4692 92.3941 15.7291 94.7809 16.0788Z" fill="#AADCE7"/>
<path d="M71.8049 15.9485C73.4348 16.4118 75.1221 16.6468 76.7935 16.9254C76.7935 41.1331 76.7935 65.3407 76.7935 90.282C73.63 90.3508 70.4665 90.4195 67.2071 90.4904C65.4133 90.5872 63.6293 90.6909 61.8408 90.8421C61.513 90.8685 61.513 90.8685 61.1786 90.8954C43.6446 92.3122 25.3075 94.8524 9.11444 102.093C8.43847 102.369 8.43847 102.369 7.81327 102.369C7.66678 93.3228 7.85011 84.2449 9.37097 75.3034C9.48727 74.6116 9.59326 73.9186 9.69863 73.225C11.6589 60.6987 15.8772 47.8417 24.0684 37.9737C24.2544 37.745 24.4403 37.5163 24.6261 37.2875C26.4717 35.0382 28.5097 32.9692 30.7372 31.0966C30.9355 30.9238 31.1337 30.7511 31.338 30.5731C40.3122 22.7866 59.4966 12.3484 71.8049 15.9485Z" fill="#AADCE7"/>
<path d="M85.7026 8.65455C86.271 9.33352 86.3456 9.79924 86.3799 10.6734C83.8623 12.5634 80.4089 12.4019 77.3927 12.0858C75.8533 11.8577 74.5479 11.313 73.2507 10.465C73.3876 9.42917 73.7152 9.08672 74.5076 8.4551C77.3606 6.49084 82.8943 6.67765 85.7026 8.65455Z" fill="#AADCE7"/>
</svg>
